G75*
%MOIN*%
%OFA0B0*%
%FSLAX24Y24*%
%IPPOS*%
%LPD*%
%AMOC8*
5,1,8,0,0,1.08239X$1,22.5*
%
%ADD10R,0.0433X0.0394*%
%ADD11R,0.0768X0.0591*%
%ADD12R,0.0394X0.0433*%
%ADD13R,0.0315X0.0276*%
%ADD14R,0.0551X0.0394*%
%ADD15R,0.0472X0.0630*%
%ADD16R,0.0276X0.0315*%
%ADD17R,0.0984X0.0984*%
%ADD18C,0.0138*%
%ADD19C,0.0069*%
%ADD20R,0.0591X0.0689*%
%ADD21R,0.0102X0.0268*%
%ADD22R,0.0250X0.0500*%
%ADD23R,0.0500X0.1000*%
%ADD24R,0.0217X0.0472*%
%ADD25R,0.0591X0.0768*%
%ADD26R,0.0098X0.0571*%
%ADD27R,0.0571X0.0098*%
%ADD28R,0.0197X0.0276*%
%ADD29R,0.0413X0.0425*%
%ADD30R,0.0276X0.0197*%
%ADD31R,0.0330X0.0110*%
%ADD32R,0.0110X0.0330*%
%ADD33R,0.1360X0.1360*%
%ADD34C,0.0060*%
%ADD35R,0.0380X0.0120*%
%ADD36R,0.0340X0.0120*%
%ADD37R,0.0430X0.0550*%
%ADD38R,0.0709X0.0433*%
%ADD39R,0.0660X0.0110*%
%ADD40R,0.0110X0.0660*%
%ADD41R,0.0550X0.0430*%
%ADD42R,0.0315X0.0315*%
%ADD43R,0.0512X0.0433*%
%ADD44R,0.0551X0.0472*%
%ADD45R,0.0140X0.0460*%
%ADD46R,0.0080X0.0300*%
%ADD47R,0.0080X0.0260*%
%ADD48R,0.0260X0.0080*%
%ADD49R,0.0120X0.0220*%
%ADD50R,0.0120X0.0200*%
%ADD51R,0.0217X0.0157*%
%ADD52R,0.0157X0.0531*%
%ADD53R,0.0630X0.0748*%
%ADD54R,0.0827X0.0787*%
%ADD55R,0.0472X0.0748*%
D10*
X002405Y028910D03*
X003075Y028910D03*
X016905Y033830D03*
X017575Y033830D03*
X021372Y031652D03*
X022041Y031652D03*
X021765Y033410D03*
X022435Y033410D03*
X022116Y028645D03*
X021446Y028645D03*
D11*
X006634Y011225D03*
X007716Y011225D03*
X016309Y032787D03*
X017391Y032787D03*
D12*
X015215Y036375D03*
X015215Y037045D03*
X014050Y032645D03*
X014050Y031975D03*
X011575Y030260D03*
X011575Y029590D03*
X005390Y026165D03*
X005390Y025495D03*
X020110Y034175D03*
X020110Y034845D03*
D13*
X020266Y035365D03*
X020739Y035365D03*
X021539Y032585D03*
X021541Y032165D03*
X022014Y032165D03*
X022011Y032585D03*
X019294Y032425D03*
X018821Y032425D03*
X018821Y030935D03*
X018814Y030450D03*
X018864Y029980D03*
X019336Y029980D03*
X019286Y030450D03*
X019294Y030935D03*
X019286Y029230D03*
X018814Y029230D03*
X018986Y027400D03*
X018986Y027000D03*
X018514Y027000D03*
X018514Y027400D03*
X015336Y028850D03*
X015336Y029250D03*
X015386Y029700D03*
X014914Y029700D03*
X014864Y029250D03*
X014864Y028850D03*
X016364Y032250D03*
X016836Y032250D03*
X017179Y033355D03*
X017651Y033355D03*
X021664Y020450D03*
X022136Y020450D03*
X017186Y012300D03*
X016714Y012300D03*
X014136Y003900D03*
X013664Y003900D03*
X013136Y003900D03*
X012664Y003900D03*
X012136Y003900D03*
X011664Y003900D03*
X010011Y003900D03*
X009539Y003900D03*
X007461Y011775D03*
X006989Y011775D03*
X008364Y017550D03*
X008836Y017550D03*
X004636Y023150D03*
X004164Y023150D03*
X004164Y023900D03*
X004636Y023900D03*
D14*
X019914Y029189D03*
X019914Y029937D03*
X019977Y030756D03*
X019977Y031504D03*
X019982Y032319D03*
X019982Y033067D03*
X020848Y032693D03*
X020843Y031130D03*
X021694Y031071D03*
X021694Y030323D03*
X022560Y030697D03*
X020781Y029563D03*
D15*
X021467Y029398D03*
X022648Y029398D03*
D16*
X023000Y027386D03*
X023000Y026914D03*
X020150Y026914D03*
X020150Y027386D03*
X020000Y028014D03*
X020000Y028486D03*
X019512Y028474D03*
X019057Y028467D03*
X019057Y027995D03*
X019512Y028001D03*
X018113Y028564D03*
X018113Y029036D03*
X018101Y029754D03*
X018101Y030226D03*
X018100Y031014D03*
X018100Y031486D03*
X019230Y033374D03*
X019230Y033846D03*
X016506Y029480D03*
X016114Y029260D03*
X016506Y029008D03*
X016114Y029732D03*
X013350Y025186D03*
X013350Y024714D03*
X011910Y018126D03*
X011910Y017654D03*
X010570Y017664D03*
X010570Y018136D03*
X009450Y018026D03*
X009450Y017554D03*
X007200Y019964D03*
X006750Y019964D03*
X006750Y020436D03*
X007200Y020436D03*
X004650Y020364D03*
X004650Y020836D03*
X004650Y021364D03*
X004650Y021836D03*
X003860Y025034D03*
X003860Y025506D03*
X003410Y025506D03*
X003410Y025034D03*
X003290Y026269D03*
X002840Y026269D03*
X002840Y026741D03*
X003290Y026741D03*
X001870Y032584D03*
X001870Y033056D03*
X001880Y033734D03*
X001880Y034206D03*
X017500Y013386D03*
X017500Y012914D03*
X013110Y009246D03*
X013110Y008774D03*
X012600Y008814D03*
X012600Y009286D03*
X010600Y008986D03*
X010600Y008514D03*
X023030Y034854D03*
X023030Y035326D03*
D17*
X016450Y031100D03*
D18*
X016322Y030441D02*
X016322Y030303D01*
X016066Y030303D02*
X016066Y030441D01*
X015791Y030716D02*
X015653Y030716D01*
X015653Y030972D02*
X015791Y030972D01*
X015791Y031228D02*
X015653Y031228D01*
X015653Y031484D02*
X015791Y031484D01*
X016066Y031759D02*
X016066Y031897D01*
X016322Y031897D02*
X016322Y031759D01*
X016578Y031759D02*
X016578Y031897D01*
X016834Y031897D02*
X016834Y031759D01*
X017109Y031484D02*
X017247Y031484D01*
X017247Y031228D02*
X017109Y031228D01*
X017109Y030972D02*
X017247Y030972D01*
X017247Y030716D02*
X017109Y030716D01*
X016834Y030441D02*
X016834Y030303D01*
X016578Y030303D02*
X016578Y030441D01*
D19*
X020706Y034021D02*
X020706Y034091D01*
X020972Y034091D01*
X020972Y034021D01*
X020706Y034021D01*
X020706Y034089D02*
X020972Y034089D01*
X020706Y034277D02*
X020706Y034347D01*
X020972Y034347D01*
X020972Y034277D01*
X020706Y034277D01*
X020706Y034345D02*
X020972Y034345D01*
X020706Y034533D02*
X020706Y034603D01*
X020972Y034603D01*
X020972Y034533D01*
X020706Y034533D01*
X020706Y034601D02*
X020972Y034601D01*
X020706Y034789D02*
X020706Y034859D01*
X020972Y034859D01*
X020972Y034789D01*
X020706Y034789D01*
X020706Y034857D02*
X020972Y034857D01*
X021868Y034859D02*
X021868Y034789D01*
X021868Y034859D02*
X022134Y034859D01*
X022134Y034789D01*
X021868Y034789D01*
X021868Y034857D02*
X022134Y034857D01*
X021868Y034603D02*
X021868Y034533D01*
X021868Y034603D02*
X022134Y034603D01*
X022134Y034533D01*
X021868Y034533D01*
X021868Y034601D02*
X022134Y034601D01*
X021868Y034347D02*
X021868Y034277D01*
X021868Y034347D02*
X022134Y034347D01*
X022134Y034277D01*
X021868Y034277D01*
X021868Y034345D02*
X022134Y034345D01*
X021868Y034091D02*
X021868Y034021D01*
X021868Y034091D02*
X022134Y034091D01*
X022134Y034021D01*
X021868Y034021D01*
X021868Y034089D02*
X022134Y034089D01*
D20*
X021420Y034440D03*
D21*
X021290Y034952D03*
X021550Y034952D03*
X021550Y033928D03*
X021290Y033928D03*
D22*
X011435Y017296D03*
X011065Y017296D03*
D23*
X011250Y019552D03*
D24*
X021696Y026938D03*
X022444Y026938D03*
X022444Y027962D03*
X022070Y027962D03*
X021696Y027962D03*
D25*
X020750Y027991D03*
X020750Y026909D03*
X002740Y034139D03*
X002740Y035221D03*
D26*
X004470Y033183D03*
X004627Y033183D03*
X004785Y033183D03*
X004942Y033183D03*
X005100Y033183D03*
X005257Y033183D03*
X005415Y033183D03*
X005572Y033183D03*
X005730Y033183D03*
X005887Y033183D03*
X006045Y033183D03*
X006202Y033183D03*
X006360Y033183D03*
X006517Y033183D03*
X006675Y033183D03*
X006832Y033183D03*
X006990Y033183D03*
X007147Y033183D03*
X007305Y033183D03*
X007462Y033183D03*
X007620Y033183D03*
X007777Y033183D03*
X007935Y033183D03*
X008092Y033183D03*
X008250Y033183D03*
X008407Y033183D03*
X008564Y033183D03*
X008722Y033183D03*
X008879Y033183D03*
X009037Y033183D03*
X009194Y033183D03*
X009352Y033183D03*
X009352Y027100D03*
X009194Y027100D03*
X009037Y027100D03*
X008879Y027100D03*
X008722Y027100D03*
X008564Y027100D03*
X008407Y027100D03*
X008250Y027100D03*
X008092Y027100D03*
X007935Y027100D03*
X007777Y027100D03*
X007620Y027100D03*
X007462Y027100D03*
X007305Y027100D03*
X007147Y027100D03*
X006990Y027100D03*
X006832Y027100D03*
X006675Y027100D03*
X006517Y027100D03*
X006360Y027100D03*
X006202Y027100D03*
X006045Y027100D03*
X005887Y027100D03*
X005730Y027100D03*
X005572Y027100D03*
X005415Y027100D03*
X005257Y027100D03*
X005100Y027100D03*
X004942Y027100D03*
X004785Y027100D03*
X004627Y027100D03*
X004470Y027100D03*
D27*
X003870Y027700D03*
X003870Y027858D03*
X003870Y028015D03*
X003870Y028173D03*
X003870Y028330D03*
X003870Y028488D03*
X003870Y028645D03*
X003870Y028803D03*
X003870Y028960D03*
X003870Y029118D03*
X003870Y029275D03*
X003870Y029433D03*
X003870Y029590D03*
X003870Y029748D03*
X003870Y029905D03*
X003870Y030063D03*
X003870Y030220D03*
X003870Y030378D03*
X003870Y030535D03*
X003870Y030693D03*
X003870Y030850D03*
X003870Y031007D03*
X003870Y031165D03*
X003870Y031322D03*
X003870Y031480D03*
X003870Y031637D03*
X003870Y031795D03*
X003870Y031952D03*
X003870Y032110D03*
X003870Y032267D03*
X003870Y032425D03*
X003870Y032582D03*
X009952Y032582D03*
X009952Y032425D03*
X009952Y032267D03*
X009952Y032110D03*
X009952Y031952D03*
X009952Y031795D03*
X009952Y031637D03*
X009952Y031480D03*
X009952Y031322D03*
X009952Y031165D03*
X009952Y031007D03*
X009952Y030850D03*
X009952Y030693D03*
X009952Y030535D03*
X009952Y030378D03*
X009952Y030220D03*
X009952Y030063D03*
X009952Y029905D03*
X009952Y029748D03*
X009952Y029590D03*
X009952Y029433D03*
X009952Y029275D03*
X009952Y029118D03*
X009952Y028960D03*
X009952Y028803D03*
X009952Y028645D03*
X009952Y028488D03*
X009952Y028330D03*
X009952Y028173D03*
X009952Y028015D03*
X009952Y027858D03*
X009952Y027700D03*
D28*
G36*
X010715Y032564D02*
X010577Y032702D01*
X010771Y032896D01*
X010909Y032758D01*
X010715Y032564D01*
G37*
G36*
X010464Y032814D02*
X010326Y032952D01*
X010520Y033146D01*
X010658Y033008D01*
X010464Y032814D01*
G37*
G36*
X010771Y033127D02*
X010633Y033265D01*
X010827Y033459D01*
X010965Y033321D01*
X010771Y033127D01*
G37*
G36*
X011021Y032876D02*
X010883Y033014D01*
X011077Y033208D01*
X011215Y033070D01*
X011021Y032876D01*
G37*
X010509Y035087D03*
X010155Y035087D03*
X010155Y035466D03*
X010509Y035466D03*
X009859Y036503D03*
X009505Y036503D03*
X009755Y036882D03*
X010109Y036882D03*
X008688Y033713D03*
X008334Y033713D03*
G36*
X005873Y035811D02*
X006011Y035673D01*
X005817Y035479D01*
X005679Y035617D01*
X005873Y035811D01*
G37*
G36*
X005623Y036061D02*
X005761Y035923D01*
X005567Y035729D01*
X005429Y035867D01*
X005623Y036061D01*
G37*
G36*
X004373Y035011D02*
X004511Y034873D01*
X004317Y034679D01*
X004179Y034817D01*
X004373Y035011D01*
G37*
G36*
X004623Y034761D02*
X004761Y034623D01*
X004567Y034429D01*
X004429Y034567D01*
X004623Y034761D01*
G37*
G36*
X004817Y034179D02*
X004679Y034317D01*
X004873Y034511D01*
X005011Y034373D01*
X004817Y034179D01*
G37*
G36*
X005067Y033929D02*
X004929Y034067D01*
X005123Y034261D01*
X005261Y034123D01*
X005067Y033929D01*
G37*
X003002Y031800D03*
X002648Y031800D03*
X002878Y030360D03*
X003232Y030360D03*
X002977Y029430D03*
X002623Y029430D03*
X015323Y034000D03*
X015677Y034000D03*
X015677Y034450D03*
X015323Y034450D03*
X016073Y034450D03*
X016427Y034450D03*
X016427Y033900D03*
X016073Y033900D03*
X015877Y035900D03*
X015523Y035900D03*
X016273Y035900D03*
X016627Y035900D03*
D29*
X003094Y028330D03*
X002406Y028330D03*
D30*
X005860Y026197D03*
X005860Y025843D03*
X006470Y025863D03*
X006470Y026217D03*
X006870Y026217D03*
X006870Y025863D03*
X007270Y025863D03*
X007270Y026217D03*
X009150Y026227D03*
X009150Y025873D03*
X011100Y029648D03*
X011100Y030002D03*
X011050Y030773D03*
X010700Y030773D03*
X010700Y031127D03*
X011050Y031127D03*
X011400Y031127D03*
X011750Y031127D03*
X012100Y031127D03*
X012100Y030773D03*
X011750Y030773D03*
X011400Y030773D03*
X012450Y030773D03*
X012800Y030773D03*
X013150Y030773D03*
X013500Y030773D03*
X013500Y031127D03*
X013150Y031127D03*
X012800Y031127D03*
X012450Y031127D03*
X014600Y032373D03*
X014600Y032727D03*
X013950Y036373D03*
X013950Y036727D03*
X013450Y036573D03*
X013450Y036927D03*
X012750Y036927D03*
X012750Y036573D03*
X014905Y004050D03*
X015495Y004050D03*
D31*
X014780Y034160D03*
X014780Y034360D03*
X014780Y034550D03*
X014780Y034750D03*
X014780Y034950D03*
X014780Y035150D03*
X014780Y035340D03*
X014780Y035540D03*
X012840Y035540D03*
X012840Y035340D03*
X012840Y035150D03*
X012840Y034950D03*
X012840Y034750D03*
X012840Y034550D03*
X012840Y034360D03*
X012840Y034160D03*
D32*
X013120Y033880D03*
X013320Y033880D03*
X013510Y033880D03*
X013710Y033880D03*
X013910Y033880D03*
X014110Y033880D03*
X014300Y033880D03*
X014500Y033880D03*
X014500Y035820D03*
X014300Y035820D03*
X014110Y035820D03*
X013910Y035820D03*
X013710Y035820D03*
X013510Y035820D03*
X013320Y035820D03*
X013120Y035820D03*
D33*
X013810Y034850D03*
D34*
X013930Y034290D02*
X013930Y034200D01*
X013690Y034200D01*
X013620Y034200D02*
X013620Y034290D01*
X013620Y034200D02*
X013380Y034200D01*
X013310Y034200D02*
X013310Y034290D01*
X013310Y034200D02*
X013160Y034200D01*
X013160Y034350D01*
X013160Y034420D02*
X013250Y034420D01*
X013160Y034420D02*
X013160Y034660D01*
X013160Y034730D02*
X013250Y034730D01*
X013160Y034730D02*
X013160Y034970D01*
X013160Y035040D02*
X013250Y035040D01*
X013160Y035040D02*
X013160Y035280D01*
X013160Y035350D02*
X013250Y035350D01*
X013160Y035350D02*
X013160Y035500D01*
X013310Y035500D01*
X013380Y035500D02*
X013620Y035500D01*
X013690Y035500D02*
X013930Y035500D01*
X014000Y035500D02*
X014240Y035500D01*
X014310Y035500D02*
X014460Y035500D01*
X014460Y035350D01*
X014460Y035280D02*
X014370Y035280D01*
X014460Y035280D02*
X014460Y035040D01*
X014460Y034970D02*
X014370Y034970D01*
X014460Y034970D02*
X014460Y034730D01*
X014460Y034660D02*
X014370Y034660D01*
X014460Y034660D02*
X014460Y034420D01*
X014460Y034350D02*
X014370Y034350D01*
X014460Y034350D02*
X014460Y034200D01*
X014310Y034200D01*
X014240Y034200D02*
X014240Y034290D01*
X014240Y034200D02*
X014000Y034200D01*
X013950Y034030D02*
X013860Y034030D01*
X013860Y033720D01*
X013950Y033720D01*
X013950Y034030D01*
X014060Y034030D02*
X014150Y034030D01*
X014150Y033720D01*
X014060Y033720D01*
X014060Y034030D01*
X014260Y034030D02*
X014260Y033720D01*
X014350Y033720D01*
X014350Y034030D01*
X014260Y034030D01*
X014450Y034030D02*
X014540Y034030D01*
X014540Y033720D01*
X014450Y033720D01*
X014450Y034030D01*
X014630Y034120D02*
X014940Y034120D01*
X014940Y034210D01*
X014630Y034210D01*
X014630Y034120D01*
X014630Y034310D02*
X014940Y034310D01*
X014940Y034400D01*
X014630Y034400D01*
X014630Y034310D01*
X014630Y034510D02*
X014940Y034510D01*
X014940Y034600D01*
X014630Y034600D01*
X014630Y034510D01*
X014630Y034710D02*
X014940Y034710D01*
X014940Y034800D01*
X014630Y034800D01*
X014630Y034710D01*
X014630Y034900D02*
X014940Y034900D01*
X014940Y034990D01*
X014630Y034990D01*
X014630Y034900D01*
X014630Y035100D02*
X014940Y035100D01*
X014940Y035190D01*
X014630Y035190D01*
X014630Y035100D01*
X014630Y035300D02*
X014940Y035300D01*
X014940Y035390D01*
X014630Y035390D01*
X014630Y035300D01*
X014630Y035490D02*
X014940Y035490D01*
X014940Y035580D01*
X014630Y035580D01*
X014630Y035490D01*
X014540Y035670D02*
X014540Y035980D01*
X014450Y035980D01*
X014450Y035670D01*
X014540Y035670D01*
X014350Y035670D02*
X014350Y035980D01*
X014260Y035980D01*
X014260Y035670D01*
X014350Y035670D01*
X014310Y035500D02*
X014310Y035410D01*
X014150Y035670D02*
X014150Y035980D01*
X014060Y035980D01*
X014060Y035670D01*
X014150Y035670D01*
X013950Y035670D02*
X013950Y035980D01*
X013860Y035980D01*
X013860Y035670D01*
X013950Y035670D01*
X014000Y035500D02*
X014000Y035410D01*
X013690Y035410D02*
X013690Y035500D01*
X013670Y035670D02*
X013760Y035670D01*
X013760Y035980D01*
X013670Y035980D01*
X013670Y035670D01*
X013560Y035670D02*
X013560Y035980D01*
X013470Y035980D01*
X013470Y035670D01*
X013560Y035670D01*
X013360Y035670D02*
X013360Y035980D01*
X013270Y035980D01*
X013270Y035670D01*
X013360Y035670D01*
X013380Y035500D02*
X013380Y035410D01*
X013170Y035670D02*
X013170Y035980D01*
X013080Y035980D01*
X013080Y035670D01*
X013170Y035670D01*
X012990Y035580D02*
X012680Y035580D01*
X012680Y035490D01*
X012990Y035490D01*
X012990Y035580D01*
X012990Y035390D02*
X012680Y035390D01*
X012680Y035300D01*
X012990Y035300D01*
X012990Y035390D01*
X012990Y035190D02*
X012680Y035190D01*
X012680Y035100D01*
X012990Y035100D01*
X012990Y035190D01*
X012990Y034990D02*
X012680Y034990D01*
X012680Y034900D01*
X012990Y034900D01*
X012990Y034990D01*
X012990Y034800D02*
X012680Y034800D01*
X012680Y034710D01*
X012990Y034710D01*
X012990Y034800D01*
X012990Y034600D02*
X012680Y034600D01*
X012680Y034510D01*
X012990Y034510D01*
X012990Y034600D01*
X012990Y034400D02*
X012680Y034400D01*
X012680Y034310D01*
X012990Y034310D01*
X012990Y034400D01*
X012990Y034210D02*
X012680Y034210D01*
X012680Y034120D01*
X012990Y034120D01*
X012990Y034210D01*
X013080Y034030D02*
X013080Y033720D01*
X013170Y033720D01*
X013170Y034030D01*
X013080Y034030D01*
X013270Y034030D02*
X013360Y034030D01*
X013360Y033720D01*
X013270Y033720D01*
X013270Y034030D01*
X013470Y034030D02*
X013470Y033720D01*
X013560Y033720D01*
X013560Y034030D01*
X013470Y034030D01*
X013670Y034030D02*
X013670Y033720D01*
X013760Y033720D01*
X013760Y034030D01*
X013670Y034030D01*
X018140Y033880D02*
X018460Y033880D01*
X018460Y033780D01*
X018140Y033780D01*
X018140Y033880D01*
X018140Y033680D02*
X018460Y033680D01*
X018460Y033580D01*
X018140Y033580D01*
X018140Y033680D01*
X018140Y033480D02*
X018460Y033480D01*
X018460Y033380D01*
X018140Y033380D01*
X018140Y033480D01*
X018620Y033480D02*
X018940Y033480D01*
X018940Y033380D01*
X018620Y033380D01*
X018620Y033480D01*
X018620Y033580D02*
X018940Y033580D01*
X018940Y033680D01*
X018620Y033680D01*
X018620Y033580D01*
X018620Y033780D02*
X018940Y033780D01*
X018940Y033880D01*
X018620Y033880D01*
X018620Y033780D01*
X018794Y034507D02*
X018894Y034507D01*
X018894Y034697D01*
X018794Y034697D01*
X018794Y034507D01*
X018994Y034507D02*
X019094Y034507D01*
X019094Y034697D01*
X018994Y034697D01*
X018994Y034507D01*
X019194Y034507D02*
X019294Y034507D01*
X019294Y034697D01*
X019194Y034697D01*
X019194Y034507D01*
X019194Y034787D02*
X019294Y034787D01*
X019294Y034987D01*
X019194Y034987D01*
X019194Y034787D01*
X019094Y034797D02*
X019094Y034987D01*
X018994Y034987D01*
X018994Y034797D01*
X019094Y034797D01*
X018894Y034797D02*
X018894Y034987D01*
X018794Y034987D01*
X018794Y034797D01*
X018894Y034797D01*
D35*
X018320Y033830D03*
D36*
X018300Y033630D03*
X018300Y033430D03*
X018780Y033430D03*
X018780Y033630D03*
X018780Y033830D03*
D37*
X017520Y011775D03*
X016780Y011775D03*
D38*
X016750Y012880D03*
X016750Y013620D03*
D39*
X015000Y013640D03*
X015000Y013450D03*
X015000Y013250D03*
X015000Y013050D03*
X015000Y012860D03*
X015000Y012660D03*
X015000Y012460D03*
X015000Y012270D03*
X015000Y012070D03*
X015000Y011870D03*
X015000Y011680D03*
X015000Y011480D03*
X015000Y011280D03*
X015000Y011080D03*
X015000Y010890D03*
X015000Y013840D03*
X015000Y014040D03*
X015000Y014230D03*
X015000Y014430D03*
X015000Y014630D03*
X015000Y014820D03*
X015000Y015020D03*
X015000Y015220D03*
X015000Y015420D03*
X015000Y015610D03*
X009000Y015610D03*
X009000Y015420D03*
X009000Y015220D03*
X009000Y015020D03*
X009000Y014820D03*
X009000Y014630D03*
X009000Y014430D03*
X009000Y014230D03*
X009000Y014040D03*
X009000Y013840D03*
X009000Y013640D03*
X009000Y013450D03*
X009000Y013250D03*
X009000Y013050D03*
X009000Y012860D03*
X009000Y012660D03*
X009000Y012460D03*
X009000Y012270D03*
X009000Y012070D03*
X009000Y011870D03*
X009000Y011680D03*
X009000Y011480D03*
X009000Y011280D03*
X009000Y011080D03*
X009000Y010890D03*
D40*
X009640Y010250D03*
X009830Y010250D03*
X010030Y010250D03*
X010230Y010250D03*
X010430Y010250D03*
X010620Y010250D03*
X010820Y010250D03*
X011020Y010250D03*
X011210Y010250D03*
X011410Y010250D03*
X011610Y010250D03*
X011800Y010250D03*
X012000Y010250D03*
X012200Y010250D03*
X012390Y010250D03*
X012590Y010250D03*
X012790Y010250D03*
X012980Y010250D03*
X013180Y010250D03*
X013380Y010250D03*
X013570Y010250D03*
X013770Y010250D03*
X013970Y010250D03*
X014170Y010250D03*
X014360Y010250D03*
X014360Y016250D03*
X014170Y016250D03*
X013970Y016250D03*
X013770Y016250D03*
X013570Y016250D03*
X013380Y016250D03*
X013180Y016250D03*
X012980Y016250D03*
X012790Y016250D03*
X012590Y016250D03*
X012390Y016250D03*
X012200Y016250D03*
X012000Y016250D03*
X011800Y016250D03*
X011610Y016250D03*
X011410Y016250D03*
X011210Y016250D03*
X011020Y016250D03*
X010820Y016250D03*
X010620Y016250D03*
X010430Y016250D03*
X010230Y016250D03*
X010030Y016250D03*
X009830Y016250D03*
X009640Y016250D03*
D41*
X010000Y017530D03*
X010000Y018270D03*
D42*
X003695Y023150D03*
X003105Y023150D03*
X003105Y023900D03*
X003695Y023900D03*
X008455Y003900D03*
X009045Y003900D03*
D43*
X011147Y008546D03*
X011147Y009254D03*
X012053Y009254D03*
X012053Y008546D03*
D44*
G36*
X005359Y034197D02*
X004971Y034585D01*
X005305Y034919D01*
X005693Y034531D01*
X005359Y034197D01*
G37*
G36*
X005805Y034642D02*
X005417Y035030D01*
X005751Y035364D01*
X006139Y034976D01*
X005805Y034642D01*
G37*
G36*
X005192Y035254D02*
X004804Y035642D01*
X005138Y035976D01*
X005526Y035588D01*
X005192Y035254D01*
G37*
G36*
X004747Y034809D02*
X004359Y035197D01*
X004693Y035531D01*
X005081Y035143D01*
X004747Y034809D01*
G37*
D45*
X008090Y026060D03*
X008610Y026060D03*
X008610Y025240D03*
X008350Y025240D03*
X008090Y025240D03*
D46*
X009297Y034081D03*
X008210Y035460D03*
X007110Y036760D03*
X014710Y024710D03*
D47*
X014870Y024690D03*
X015030Y024690D03*
X015190Y024690D03*
X015190Y025310D03*
X015030Y025310D03*
X014870Y025310D03*
X014710Y025310D03*
X009777Y034061D03*
X009617Y034061D03*
X009457Y034061D03*
X009457Y034681D03*
X009297Y034681D03*
X009617Y034681D03*
X009777Y034681D03*
X008690Y035440D03*
X008530Y035440D03*
X008370Y035440D03*
X008370Y036060D03*
X008210Y036060D03*
X008530Y036060D03*
X008690Y036060D03*
X007590Y036740D03*
X007430Y036740D03*
X007270Y036740D03*
X007270Y037360D03*
X007110Y037360D03*
X007430Y037360D03*
X007590Y037360D03*
D48*
X007810Y037290D03*
X007810Y037130D03*
X007810Y036970D03*
X007810Y036810D03*
X007990Y035990D03*
X007990Y035830D03*
X007990Y035670D03*
X007990Y035510D03*
X008910Y035510D03*
X008910Y035670D03*
X008910Y035830D03*
X008910Y035990D03*
X009077Y034611D03*
X009077Y034451D03*
X009077Y034291D03*
X009077Y034131D03*
X009997Y034131D03*
X009997Y034291D03*
X009997Y034451D03*
X009997Y034611D03*
X006890Y036810D03*
X006890Y036970D03*
X006890Y037130D03*
X006890Y037290D03*
X014490Y025240D03*
X014490Y025080D03*
X014490Y024920D03*
X014490Y024760D03*
X015410Y024760D03*
X015410Y024920D03*
X015410Y025080D03*
X015410Y025240D03*
D49*
X019244Y034887D03*
D50*
X019044Y034897D03*
X018844Y034897D03*
X018844Y034597D03*
X019044Y034597D03*
X019244Y034597D03*
D51*
X015466Y004335D03*
X015466Y003765D03*
X014934Y003765D03*
X014934Y004335D03*
D52*
X018588Y036377D03*
X018844Y036377D03*
X019100Y036377D03*
X019356Y036377D03*
X019612Y036377D03*
D53*
X020714Y037430D03*
X017486Y037430D03*
D54*
X017880Y036505D03*
X020320Y036505D03*
D55*
X019435Y037430D03*
X018765Y037430D03*
M02*
