G75*
%MOIN*%
%OFA0B0*%
%FSLAX24Y24*%
%IPPOS*%
%LPD*%
%AMOC8*
5,1,8,0,0,1.08239X$1,22.5*
%
%ADD10OC8,0.0760*%
%ADD11R,0.0900X0.0900*%
%ADD12C,0.0900*%
%ADD13OC8,0.0820*%
%ADD14R,0.0720X0.0720*%
%ADD15OC8,0.0720*%
%ADD16C,0.1410*%
%ADD17R,0.0596X0.0596*%
%ADD18C,0.0596*%
%ADD19R,0.0636X0.0636*%
%ADD20C,0.0636*%
%ADD21R,0.0714X0.0714*%
%ADD22C,0.0714*%
D10*
X010000Y005000D03*
X010000Y006000D03*
X012000Y006000D03*
X012000Y005000D03*
X013000Y005000D03*
X013000Y006000D03*
X014000Y006000D03*
X014000Y005000D03*
X014000Y022000D03*
X014000Y023000D03*
X013000Y023000D03*
X013000Y022000D03*
X012000Y022000D03*
X012000Y023000D03*
X015000Y023000D03*
X015000Y022000D03*
X016000Y022000D03*
X016000Y023000D03*
X017000Y023000D03*
X017000Y022000D03*
X017400Y027650D03*
X017400Y028650D03*
X017400Y029650D03*
X001000Y030000D03*
X001000Y031000D03*
X001000Y032000D03*
X001000Y033000D03*
X001000Y034000D03*
X001000Y035000D03*
X001000Y029000D03*
D11*
X003000Y018000D03*
X004000Y018000D03*
X020000Y018000D03*
X021000Y018000D03*
D12*
X021000Y017000D03*
X021000Y016000D03*
X021000Y015000D03*
X021000Y014000D03*
X021000Y013000D03*
X021000Y012000D03*
X021000Y011000D03*
X021000Y010000D03*
X021000Y009000D03*
X020000Y009000D03*
X020000Y010000D03*
X020000Y011000D03*
X020000Y012000D03*
X020000Y013000D03*
X020000Y014000D03*
X020000Y015000D03*
X020000Y016000D03*
X020000Y017000D03*
X004000Y017000D03*
X004000Y016000D03*
X004000Y015000D03*
X004000Y014000D03*
X004000Y013000D03*
X004000Y012000D03*
X004000Y011000D03*
X004000Y010000D03*
X004000Y009000D03*
X003000Y009000D03*
X003000Y010000D03*
X003000Y011000D03*
X003000Y012000D03*
X003000Y013000D03*
X003000Y014000D03*
X003000Y015000D03*
X003000Y016000D03*
X003000Y017000D03*
D13*
X003969Y021000D03*
X002000Y021000D03*
X006000Y006000D03*
X007969Y006000D03*
X016000Y006000D03*
X017969Y006000D03*
D14*
X018000Y002000D03*
X018000Y001000D03*
X021000Y005000D03*
X013000Y002000D03*
X013000Y001000D03*
X008000Y001000D03*
X008000Y002000D03*
X003000Y002000D03*
X003000Y001000D03*
X003000Y005000D03*
D15*
X003000Y006000D03*
X003000Y007000D03*
X004000Y002000D03*
X004000Y001000D03*
X005000Y001000D03*
X005000Y002000D03*
X006000Y002000D03*
X006000Y001000D03*
X007000Y001000D03*
X007000Y002000D03*
X009000Y002000D03*
X009000Y001000D03*
X010000Y001000D03*
X010000Y002000D03*
X011000Y002000D03*
X011000Y001000D03*
X012000Y001000D03*
X012000Y002000D03*
X014000Y002000D03*
X014000Y001000D03*
X015000Y001000D03*
X015000Y002000D03*
X016000Y002000D03*
X016000Y001000D03*
X017000Y001000D03*
X017000Y002000D03*
X019000Y002000D03*
X019000Y001000D03*
X020000Y001000D03*
X020000Y002000D03*
X021000Y002000D03*
X021000Y001000D03*
X021000Y006000D03*
X021000Y007000D03*
D16*
X001500Y001500D03*
X022500Y001500D03*
X022500Y037000D03*
X001500Y037000D03*
D17*
X000972Y022852D03*
D18*
X000972Y023348D03*
X000972Y023852D03*
X000972Y024348D03*
X000972Y024852D03*
X000972Y025352D03*
X000972Y025852D03*
D19*
X022650Y021500D03*
D20*
X022650Y022000D03*
X022650Y022500D03*
X022650Y023000D03*
X022650Y023500D03*
X022150Y023500D03*
X022150Y023000D03*
X022150Y022500D03*
X022150Y022000D03*
X022150Y021500D03*
D21*
X020509Y023149D03*
D22*
X020509Y021850D03*
X019525Y021850D03*
X018541Y021850D03*
X018541Y023149D03*
X019525Y023149D03*
M02*
