G75*
%MOIN*%
%OFA0B0*%
%FSLAX24Y24*%
%IPPOS*%
%LPD*%
%AMOC8*
5,1,8,0,0,1.08239X$1,22.5*
%
%ADD10C,0.0100*%
%ADD11C,0.0000*%
D10*
X000490Y000500D02*
X000500Y038000D01*
X023500Y038000D01*
X023500Y011250D01*
X023490Y000500D01*
X000490Y000500D01*
D11*
X000875Y001500D02*
X000877Y001550D01*
X000883Y001599D01*
X000893Y001648D01*
X000906Y001695D01*
X000924Y001742D01*
X000945Y001787D01*
X000969Y001830D01*
X000997Y001871D01*
X001028Y001910D01*
X001062Y001946D01*
X001099Y001980D01*
X001139Y002010D01*
X001180Y002037D01*
X001224Y002061D01*
X001269Y002081D01*
X001316Y002097D01*
X001364Y002110D01*
X001413Y002119D01*
X001463Y002124D01*
X001512Y002125D01*
X001562Y002122D01*
X001611Y002115D01*
X001660Y002104D01*
X001707Y002090D01*
X001753Y002071D01*
X001798Y002049D01*
X001841Y002024D01*
X001881Y001995D01*
X001919Y001963D01*
X001955Y001929D01*
X001988Y001891D01*
X002017Y001851D01*
X002043Y001809D01*
X002066Y001765D01*
X002085Y001719D01*
X002101Y001672D01*
X002113Y001623D01*
X002121Y001574D01*
X002125Y001525D01*
X002125Y001475D01*
X002121Y001426D01*
X002113Y001377D01*
X002101Y001328D01*
X002085Y001281D01*
X002066Y001235D01*
X002043Y001191D01*
X002017Y001149D01*
X001988Y001109D01*
X001955Y001071D01*
X001919Y001037D01*
X001881Y001005D01*
X001841Y000976D01*
X001798Y000951D01*
X001753Y000929D01*
X001707Y000910D01*
X001660Y000896D01*
X001611Y000885D01*
X001562Y000878D01*
X001512Y000875D01*
X001463Y000876D01*
X001413Y000881D01*
X001364Y000890D01*
X001316Y000903D01*
X001269Y000919D01*
X001224Y000939D01*
X001180Y000963D01*
X001139Y000990D01*
X001099Y001020D01*
X001062Y001054D01*
X001028Y001090D01*
X000997Y001129D01*
X000969Y001170D01*
X000945Y001213D01*
X000924Y001258D01*
X000906Y001305D01*
X000893Y001352D01*
X000883Y001401D01*
X000877Y001450D01*
X000875Y001500D01*
X021875Y001500D02*
X021877Y001550D01*
X021883Y001599D01*
X021893Y001648D01*
X021906Y001695D01*
X021924Y001742D01*
X021945Y001787D01*
X021969Y001830D01*
X021997Y001871D01*
X022028Y001910D01*
X022062Y001946D01*
X022099Y001980D01*
X022139Y002010D01*
X022180Y002037D01*
X022224Y002061D01*
X022269Y002081D01*
X022316Y002097D01*
X022364Y002110D01*
X022413Y002119D01*
X022463Y002124D01*
X022512Y002125D01*
X022562Y002122D01*
X022611Y002115D01*
X022660Y002104D01*
X022707Y002090D01*
X022753Y002071D01*
X022798Y002049D01*
X022841Y002024D01*
X022881Y001995D01*
X022919Y001963D01*
X022955Y001929D01*
X022988Y001891D01*
X023017Y001851D01*
X023043Y001809D01*
X023066Y001765D01*
X023085Y001719D01*
X023101Y001672D01*
X023113Y001623D01*
X023121Y001574D01*
X023125Y001525D01*
X023125Y001475D01*
X023121Y001426D01*
X023113Y001377D01*
X023101Y001328D01*
X023085Y001281D01*
X023066Y001235D01*
X023043Y001191D01*
X023017Y001149D01*
X022988Y001109D01*
X022955Y001071D01*
X022919Y001037D01*
X022881Y001005D01*
X022841Y000976D01*
X022798Y000951D01*
X022753Y000929D01*
X022707Y000910D01*
X022660Y000896D01*
X022611Y000885D01*
X022562Y000878D01*
X022512Y000875D01*
X022463Y000876D01*
X022413Y000881D01*
X022364Y000890D01*
X022316Y000903D01*
X022269Y000919D01*
X022224Y000939D01*
X022180Y000963D01*
X022139Y000990D01*
X022099Y001020D01*
X022062Y001054D01*
X022028Y001090D01*
X021997Y001129D01*
X021969Y001170D01*
X021945Y001213D01*
X021924Y001258D01*
X021906Y001305D01*
X021893Y001352D01*
X021883Y001401D01*
X021877Y001450D01*
X021875Y001500D01*
X021875Y037000D02*
X021877Y037050D01*
X021883Y037099D01*
X021893Y037148D01*
X021906Y037195D01*
X021924Y037242D01*
X021945Y037287D01*
X021969Y037330D01*
X021997Y037371D01*
X022028Y037410D01*
X022062Y037446D01*
X022099Y037480D01*
X022139Y037510D01*
X022180Y037537D01*
X022224Y037561D01*
X022269Y037581D01*
X022316Y037597D01*
X022364Y037610D01*
X022413Y037619D01*
X022463Y037624D01*
X022512Y037625D01*
X022562Y037622D01*
X022611Y037615D01*
X022660Y037604D01*
X022707Y037590D01*
X022753Y037571D01*
X022798Y037549D01*
X022841Y037524D01*
X022881Y037495D01*
X022919Y037463D01*
X022955Y037429D01*
X022988Y037391D01*
X023017Y037351D01*
X023043Y037309D01*
X023066Y037265D01*
X023085Y037219D01*
X023101Y037172D01*
X023113Y037123D01*
X023121Y037074D01*
X023125Y037025D01*
X023125Y036975D01*
X023121Y036926D01*
X023113Y036877D01*
X023101Y036828D01*
X023085Y036781D01*
X023066Y036735D01*
X023043Y036691D01*
X023017Y036649D01*
X022988Y036609D01*
X022955Y036571D01*
X022919Y036537D01*
X022881Y036505D01*
X022841Y036476D01*
X022798Y036451D01*
X022753Y036429D01*
X022707Y036410D01*
X022660Y036396D01*
X022611Y036385D01*
X022562Y036378D01*
X022512Y036375D01*
X022463Y036376D01*
X022413Y036381D01*
X022364Y036390D01*
X022316Y036403D01*
X022269Y036419D01*
X022224Y036439D01*
X022180Y036463D01*
X022139Y036490D01*
X022099Y036520D01*
X022062Y036554D01*
X022028Y036590D01*
X021997Y036629D01*
X021969Y036670D01*
X021945Y036713D01*
X021924Y036758D01*
X021906Y036805D01*
X021893Y036852D01*
X021883Y036901D01*
X021877Y036950D01*
X021875Y037000D01*
X020734Y038001D02*
X017466Y038001D01*
X000875Y037000D02*
X000877Y037050D01*
X000883Y037099D01*
X000893Y037148D01*
X000906Y037195D01*
X000924Y037242D01*
X000945Y037287D01*
X000969Y037330D01*
X000997Y037371D01*
X001028Y037410D01*
X001062Y037446D01*
X001099Y037480D01*
X001139Y037510D01*
X001180Y037537D01*
X001224Y037561D01*
X001269Y037581D01*
X001316Y037597D01*
X001364Y037610D01*
X001413Y037619D01*
X001463Y037624D01*
X001512Y037625D01*
X001562Y037622D01*
X001611Y037615D01*
X001660Y037604D01*
X001707Y037590D01*
X001753Y037571D01*
X001798Y037549D01*
X001841Y037524D01*
X001881Y037495D01*
X001919Y037463D01*
X001955Y037429D01*
X001988Y037391D01*
X002017Y037351D01*
X002043Y037309D01*
X002066Y037265D01*
X002085Y037219D01*
X002101Y037172D01*
X002113Y037123D01*
X002121Y037074D01*
X002125Y037025D01*
X002125Y036975D01*
X002121Y036926D01*
X002113Y036877D01*
X002101Y036828D01*
X002085Y036781D01*
X002066Y036735D01*
X002043Y036691D01*
X002017Y036649D01*
X001988Y036609D01*
X001955Y036571D01*
X001919Y036537D01*
X001881Y036505D01*
X001841Y036476D01*
X001798Y036451D01*
X001753Y036429D01*
X001707Y036410D01*
X001660Y036396D01*
X001611Y036385D01*
X001562Y036378D01*
X001512Y036375D01*
X001463Y036376D01*
X001413Y036381D01*
X001364Y036390D01*
X001316Y036403D01*
X001269Y036419D01*
X001224Y036439D01*
X001180Y036463D01*
X001139Y036490D01*
X001099Y036520D01*
X001062Y036554D01*
X001028Y036590D01*
X000997Y036629D01*
X000969Y036670D01*
X000945Y036713D01*
X000924Y036758D01*
X000906Y036805D01*
X000893Y036852D01*
X000883Y036901D01*
X000877Y036950D01*
X000875Y037000D01*
M02*
