%
M48
M72
T01C0.0120
T02C0.0236
T03C0.0360
T04C0.0400
%
T01
X4570Y3756
X4077Y4389
X3374Y4389
X6130Y6380
X6630Y6380
X8369Y5526
X8650Y6008
X10130Y6630
X10833Y7344
X12290Y6350
X12397Y6923
X13760Y7780
X12130Y8630
X13420Y9930
X14500Y10260
X13950Y11190
X13927Y11706
X14631Y11917
X15820Y11450
X16790Y12400
X17890Y13460
X17540Y13950
X14990Y13330
X13223Y12832
X12520Y13113
X12309Y12832
X11324Y12058
X11254Y11495
X11042Y10932
X11100Y10540
X10130Y10630
X10550Y11566
X9424Y11566
X8580Y10932
X7736Y11284
X8380Y9630
X6130Y9300
X3130Y9580
X8932Y12832
X9565Y12902
X9917Y12902
X12168Y11284
X12450Y11917
X15630Y8880
X15930Y7730
X17380Y6630
X18530Y6230
X18630Y4880
X18380Y4630
X18630Y4380
X18880Y3630
X17880Y2380
X17330Y2630
X18130Y1130
X20930Y1030
X20930Y1330
X21230Y1330
X21230Y1030
X21530Y2630
X22730Y2830
X23530Y1330
X23530Y1030
X23830Y1030
X23830Y1330
X22880Y4880
X22630Y7630
X21880Y9130
X19630Y7630
X19380Y9130
X22630Y11630
X21880Y12630
X21455Y13465
X23380Y12630
X23230Y14880
X22880Y15130
X16130Y5880
X17030Y4730
X14630Y3030
X12630Y3880
X12380Y3380
X12130Y4630
X10880Y5030
X13880Y4630
X10030Y1630
X8030Y15030
X6962Y16279
X2880Y16880
X2380Y15130
T02
X1130Y14130
X1130Y13630
X1130Y13130
X1130Y12630
X5380Y12380
X5880Y12380
X6380Y12380
X6380Y11880
X5880Y11880
X5380Y11880
X9380Y16130
X17630Y14630
X19430Y15130
X19630Y11630
X8810Y3130
X8630Y2630
X8630Y2130
X8130Y2130
X8130Y2630
X9130Y2130
X12370Y1420
T03
X13080Y1490
X14080Y1490
X15080Y1490
X16080Y1490
X16080Y2490
X15080Y2490
X14080Y2490
X13080Y2490
X2330Y8090
X2330Y9090
T04
X5390Y8800
X5390Y9800
X6890Y2130
X16630Y11130
X21520Y8200
X24130Y9130
X19630Y17630
X19630Y18630
X18630Y18630
X18630Y17630
X17630Y17630
X17630Y18630
X16630Y18630
X16630Y17630
X15630Y17630
X15630Y18630
X14630Y18630
X14630Y17630
X13630Y17630
X12630Y17630
X12630Y18630
X13630Y18630
X11630Y18630
X11630Y17630
X10630Y17630
X10630Y18630
X9630Y18630
X9630Y17630
X8630Y17630
X8630Y18630
M30
