G75*
%MOIN*%
%OFA0B0*%
%FSLAX24Y24*%
%IPPOS*%
%LPD*%
%AMOC8*
5,1,8,0,0,1.08239X$1,22.5*
%
%ADD10C,0.0000*%
%ADD11R,0.0340X0.0010*%
%ADD12R,0.0480X0.0010*%
%ADD13R,0.0590X0.0010*%
%ADD14R,0.0680X0.0010*%
%ADD15R,0.0760X0.0010*%
%ADD16R,0.0010X0.0010*%
%ADD17R,0.0090X0.0010*%
%ADD18R,0.0320X0.0010*%
%ADD19R,0.0300X0.0010*%
%ADD20R,0.0040X0.0010*%
%ADD21R,0.0070X0.0010*%
%ADD22R,0.0050X0.0010*%
%ADD23R,0.0270X0.0010*%
%ADD24R,0.0230X0.0010*%
%ADD25R,0.0020X0.0010*%
%ADD26R,0.0060X0.0010*%
%ADD27R,0.0240X0.0010*%
%ADD28R,0.0220X0.0010*%
%ADD29R,0.0260X0.0010*%
%ADD30R,0.0030X0.0010*%
%ADD31R,0.0190X0.0010*%
%ADD32R,0.0180X0.0010*%
%ADD33R,0.0080X0.0010*%
%ADD34R,0.0200X0.0010*%
%ADD35R,0.0150X0.0010*%
%ADD36R,0.0160X0.0010*%
%ADD37R,0.0140X0.0010*%
%ADD38R,0.0110X0.0010*%
%ADD39R,0.0170X0.0010*%
%ADD40R,0.0130X0.0010*%
%ADD41R,0.0120X0.0010*%
%ADD42R,0.0370X0.0010*%
%ADD43R,0.0550X0.0010*%
%ADD44R,0.0100X0.0010*%
%ADD45R,0.0800X0.0010*%
%ADD46R,0.0210X0.0010*%
%ADD47R,0.0290X0.0010*%
%ADD48R,0.0420X0.0010*%
%ADD49R,0.0520X0.0010*%
%ADD50R,0.0600X0.0010*%
%ADD51R,0.0670X0.0010*%
%ADD52R,0.0740X0.0010*%
%ADD53R,0.0850X0.0010*%
%ADD54R,0.0900X0.0010*%
%ADD55R,0.0950X0.0010*%
%ADD56R,0.0990X0.0010*%
%ADD57R,0.1030X0.0010*%
%ADD58R,0.1070X0.0010*%
%ADD59R,0.1110X0.0010*%
%ADD60R,0.1150X0.0010*%
%ADD61R,0.1180X0.0010*%
%ADD62R,0.1220X0.0010*%
%ADD63R,0.1250X0.0010*%
%ADD64R,0.0410X0.0010*%
%ADD65R,0.0860X0.0010*%
%ADD66R,0.0450X0.0010*%
%ADD67R,0.0440X0.0010*%
%ADD68R,0.0460X0.0010*%
%ADD69R,0.0490X0.0010*%
%ADD70R,0.0510X0.0010*%
%ADD71R,0.0500X0.0010*%
%ADD72R,0.0350X0.0010*%
%ADD73R,0.0540X0.0010*%
%ADD74R,0.0560X0.0010*%
%ADD75R,0.0580X0.0010*%
%ADD76R,0.0280X0.0010*%
%ADD77R,0.0610X0.0010*%
%ADD78R,0.0330X0.0010*%
%ADD79R,0.0630X0.0010*%
%ADD80R,0.0640X0.0010*%
%ADD81R,0.0660X0.0010*%
%ADD82R,0.0690X0.0010*%
%ADD83R,0.0710X0.0010*%
%ADD84R,0.0310X0.0010*%
%ADD85R,0.0720X0.0010*%
%ADD86R,0.0250X0.0010*%
%ADD87R,0.0770X0.0010*%
%ADD88R,0.0790X0.0010*%
%ADD89R,0.0810X0.0010*%
%ADD90R,0.0820X0.0010*%
%ADD91R,0.0830X0.0010*%
%ADD92R,0.0840X0.0010*%
%ADD93R,0.0880X0.0010*%
%ADD94R,0.0920X0.0010*%
%ADD95R,0.0930X0.0010*%
%ADD96R,0.0940X0.0010*%
%ADD97R,0.0960X0.0010*%
%ADD98R,0.1130X0.0010*%
%ADD99R,0.1140X0.0010*%
%ADD100R,0.1050X0.0010*%
%ADD101R,0.1010X0.0010*%
%ADD102R,0.1020X0.0010*%
%ADD103R,0.0650X0.0010*%
%ADD104R,0.0620X0.0010*%
%ADD105R,0.0470X0.0010*%
%ADD106R,0.0390X0.0010*%
%ADD107R,0.0360X0.0010*%
%ADD108R,0.0400X0.0010*%
%ADD109R,0.0430X0.0010*%
%ADD110R,0.0530X0.0010*%
%ADD111R,0.0700X0.0010*%
%ADD112R,0.0570X0.0010*%
%ADD113R,0.0380X0.0010*%
%ADD114C,0.0050*%
%ADD115C,0.0040*%
%ADD116C,0.0060*%
%ADD117C,0.0020*%
%ADD118C,0.0079*%
%ADD119C,0.0080*%
D10*
X000630Y000630D02*
X000630Y020126D01*
X025000Y020126D01*
X025000Y000630D01*
X000630Y000630D01*
D11*
X013105Y006560D03*
X013115Y006550D03*
X013125Y006540D03*
X013135Y006530D03*
X014125Y005980D03*
X014365Y006030D03*
X015125Y006550D03*
X015135Y006560D03*
X015145Y006570D03*
X015155Y006580D03*
X013125Y007570D03*
X013135Y007610D03*
X013135Y007620D03*
X013135Y007660D03*
X013105Y008350D03*
X013115Y008360D03*
X013125Y008370D03*
X013135Y008380D03*
X015115Y008370D03*
X015125Y008360D03*
X015135Y008350D03*
X015145Y008340D03*
X015155Y008330D03*
D12*
X014775Y008220D03*
X014765Y008230D03*
X014825Y008600D03*
X014125Y008920D03*
X013725Y008440D03*
X013705Y008430D03*
X013575Y008330D03*
X013565Y008320D03*
X013555Y008310D03*
X014655Y007820D03*
X014695Y007850D03*
X015015Y007150D03*
X015015Y007140D03*
X015005Y007120D03*
X015005Y007110D03*
X015005Y007100D03*
X014965Y007010D03*
X014965Y007000D03*
X014125Y005990D03*
D13*
X014120Y006000D03*
X014130Y006210D03*
X014600Y006570D03*
X014840Y008040D03*
X014120Y008910D03*
D14*
X014125Y008900D03*
X014125Y006010D03*
D15*
X014125Y006020D03*
X014615Y006670D03*
X014125Y008890D03*
D16*
X014180Y008820D03*
X014050Y008810D03*
X014050Y008800D03*
X014000Y008800D03*
X014000Y008790D03*
X014000Y008780D03*
X015070Y007860D03*
X014920Y007620D03*
X014850Y007550D03*
X014850Y007540D03*
X014840Y007250D03*
X014840Y007230D03*
X014480Y006900D03*
X014290Y006910D03*
X014240Y006630D03*
X014030Y006630D03*
X013890Y006610D03*
X013730Y006600D03*
X013680Y006620D03*
X013630Y006610D03*
X013500Y006330D03*
X013490Y006320D03*
X013450Y006330D03*
X013620Y006220D03*
X013230Y006360D03*
X013220Y006440D03*
X013230Y006470D03*
X013170Y006440D03*
X013300Y006950D03*
X014170Y007360D03*
X014940Y006440D03*
X014950Y006430D03*
X014910Y006410D03*
X014820Y006350D03*
X014810Y006310D03*
X014850Y006300D03*
X014670Y006240D03*
X014670Y006210D03*
X014630Y006150D03*
X014630Y006140D03*
X014510Y006140D03*
X014450Y006190D03*
X014380Y006180D03*
X014380Y006170D03*
X014380Y006160D03*
X014390Y006150D03*
X014390Y006140D03*
X014350Y006110D03*
X014270Y006170D03*
X014270Y006180D03*
X014160Y006030D03*
X013920Y006130D03*
X013920Y006140D03*
X015000Y006480D03*
D17*
X015140Y006420D03*
X015050Y006330D03*
X015030Y006320D03*
X015020Y006310D03*
X015010Y006300D03*
X014820Y006410D03*
X014770Y006380D03*
X014770Y006230D03*
X014430Y006120D03*
X014430Y006110D03*
X014430Y006100D03*
X014440Y006090D03*
X014440Y006080D03*
X014320Y006080D03*
X014310Y006140D03*
X014090Y006030D03*
X014010Y006110D03*
X014010Y006120D03*
X013700Y006200D03*
X013520Y006210D03*
X013470Y006300D03*
X013510Y006360D03*
X013490Y006370D03*
X013470Y006380D03*
X013460Y006390D03*
X013440Y006400D03*
X013320Y006480D03*
X013180Y006350D03*
X013150Y006370D03*
X013080Y006450D03*
X013240Y006300D03*
X013250Y006290D03*
X014030Y006740D03*
X013860Y008740D03*
X013740Y008750D03*
X014120Y008870D03*
X014360Y008820D03*
D18*
X014785Y008690D03*
X015185Y008290D03*
X015195Y008280D03*
X015205Y008270D03*
X015105Y007710D03*
X015125Y007610D03*
X014655Y007780D03*
X013175Y007840D03*
X013175Y007850D03*
X013165Y007820D03*
X013155Y007790D03*
X013155Y007780D03*
X013145Y007750D03*
X013135Y007710D03*
X013135Y007700D03*
X013135Y007690D03*
X013115Y007560D03*
X013035Y008260D03*
X013045Y008280D03*
X013055Y008290D03*
X013065Y008300D03*
X013075Y008310D03*
X013035Y006650D03*
X013045Y006630D03*
X013055Y006620D03*
X013065Y006610D03*
X013075Y006600D03*
X013815Y006230D03*
X013865Y006030D03*
X015185Y006620D03*
X015195Y006630D03*
X015205Y006640D03*
D19*
X015235Y006680D03*
X015245Y006700D03*
X015255Y006710D03*
X015265Y006720D03*
X015265Y006730D03*
X015275Y006740D03*
X015285Y006760D03*
X015125Y007680D03*
X015285Y008150D03*
X015275Y008170D03*
X015265Y008180D03*
X015265Y008190D03*
X015255Y008200D03*
X015245Y008210D03*
X013835Y008680D03*
X013735Y008840D03*
X013005Y008220D03*
X012995Y008210D03*
X012985Y008190D03*
X012975Y008180D03*
X012965Y008160D03*
X013235Y008000D03*
X013185Y007900D03*
X013185Y007890D03*
X013105Y007550D03*
X012965Y006750D03*
X012975Y006730D03*
X012985Y006720D03*
X012995Y006700D03*
X013005Y006690D03*
X013795Y006050D03*
X014425Y006040D03*
D20*
X014445Y006160D03*
X014515Y006170D03*
X014615Y006190D03*
X014615Y006240D03*
X014815Y006320D03*
X014815Y006330D03*
X014875Y006360D03*
X014905Y006310D03*
X014945Y006350D03*
X014995Y006450D03*
X014855Y006270D03*
X014855Y006260D03*
X014215Y006140D03*
X014215Y006130D03*
X014155Y006110D03*
X014145Y006130D03*
X014145Y006140D03*
X014145Y006150D03*
X014165Y006090D03*
X014165Y006080D03*
X014225Y006060D03*
X014225Y006050D03*
X014225Y006040D03*
X013875Y006170D03*
X013865Y006150D03*
X013865Y006140D03*
X013855Y006120D03*
X013785Y006110D03*
X013585Y006250D03*
X013455Y006320D03*
X013385Y006360D03*
X013335Y006390D03*
X013335Y006400D03*
X013305Y006350D03*
X013255Y006380D03*
X013265Y006420D03*
X013275Y006430D03*
X013965Y006600D03*
X013975Y006610D03*
X013995Y006640D03*
X014005Y006650D03*
X014015Y006670D03*
X014035Y006700D03*
X014035Y006710D03*
X014155Y007170D03*
X014365Y007770D03*
X014385Y007780D03*
X014395Y007790D03*
X013915Y007770D03*
X013895Y007780D03*
X013885Y007790D03*
X013805Y007850D03*
X013795Y007860D03*
X013795Y007870D03*
X013785Y007880D03*
X013145Y007220D03*
X014705Y007710D03*
X014995Y007740D03*
X014475Y008710D03*
X014505Y008790D03*
X014255Y008770D03*
X014255Y008760D03*
X014255Y008750D03*
X014225Y008850D03*
X014105Y008790D03*
X014105Y008780D03*
X014035Y008740D03*
X013945Y008790D03*
X013945Y008800D03*
X013945Y008810D03*
X013945Y008820D03*
X013945Y008830D03*
X013935Y008850D03*
X013875Y008820D03*
X013865Y008830D03*
D21*
X013870Y008750D03*
X014120Y008850D03*
X014170Y008740D03*
X014250Y008800D03*
X014250Y008810D03*
X014250Y008820D03*
X014510Y008800D03*
X014570Y008750D03*
X014570Y008740D03*
X014560Y008710D03*
X014560Y008700D03*
X013740Y008100D03*
X013830Y007820D03*
X014010Y007730D03*
X014270Y007730D03*
X014140Y007160D03*
X014030Y006860D03*
X014030Y006550D03*
X014240Y006550D03*
X014250Y006540D03*
X014150Y006170D03*
X014090Y006040D03*
X013910Y006060D03*
X013690Y006110D03*
X013690Y006120D03*
X013690Y006130D03*
X013690Y006140D03*
X013690Y006150D03*
X013690Y006160D03*
X013690Y006170D03*
X013590Y006150D03*
X013350Y006290D03*
X013310Y006500D03*
X013300Y006510D03*
X013080Y006440D03*
X013670Y006600D03*
X014520Y006190D03*
X014600Y006160D03*
X014700Y006180D03*
X014910Y006320D03*
X014880Y006380D03*
X014940Y006500D03*
X014950Y006510D03*
X014960Y006520D03*
D22*
X015000Y006460D03*
X014610Y006250D03*
X014610Y006180D03*
X014580Y006140D03*
X014520Y006180D03*
X014550Y006210D03*
X014440Y006170D03*
X014320Y006160D03*
X014300Y006070D03*
X014160Y006100D03*
X014000Y006050D03*
X014000Y006040D03*
X013910Y006080D03*
X013870Y006160D03*
X013880Y006180D03*
X013800Y006180D03*
X013780Y006120D03*
X013600Y006270D03*
X013590Y006260D03*
X013570Y006240D03*
X013420Y006250D03*
X013410Y006240D03*
X013290Y006340D03*
X013260Y006390D03*
X013280Y006440D03*
X013900Y006600D03*
X014020Y006500D03*
X014140Y006500D03*
X014250Y006500D03*
X014020Y006870D03*
X014140Y007130D03*
X014140Y007140D03*
X014160Y007180D03*
X014160Y007190D03*
X014170Y007200D03*
X014140Y007700D03*
X013950Y007750D03*
X013930Y007760D03*
X013820Y007830D03*
X013810Y007840D03*
X013750Y007980D03*
X014330Y007750D03*
X014350Y007760D03*
X014990Y007730D03*
X014560Y008690D03*
X014570Y008760D03*
X014470Y008700D03*
X014330Y008720D03*
X014330Y008730D03*
X014220Y008860D03*
X014110Y008810D03*
X014110Y008800D03*
X014040Y008730D03*
X014010Y008860D03*
X013880Y008770D03*
X013830Y008720D03*
X013810Y008800D03*
D23*
X013750Y008850D03*
X013630Y008800D03*
X013500Y008730D03*
X014140Y008720D03*
X014470Y008860D03*
X013990Y008070D03*
X013200Y007960D03*
X012890Y008020D03*
X012880Y008000D03*
X012870Y007980D03*
X012870Y007970D03*
X012860Y007960D03*
X012860Y007950D03*
X012860Y007940D03*
X012850Y007930D03*
X012850Y007920D03*
X012840Y007900D03*
X012840Y007890D03*
X012830Y007870D03*
X012830Y007040D03*
X012840Y007010D03*
X012850Y006990D03*
X012850Y006980D03*
X012860Y006960D03*
X012860Y006950D03*
X012870Y006940D03*
X012870Y006930D03*
X012880Y006910D03*
X012890Y006890D03*
X013110Y006510D03*
X013410Y006640D03*
X013420Y006630D03*
X014080Y006180D03*
X013810Y006040D03*
X015350Y006880D03*
X015360Y006900D03*
X015370Y006920D03*
X015370Y006930D03*
X015380Y006940D03*
X015380Y006950D03*
X015390Y006970D03*
X015390Y006980D03*
X015400Y007000D03*
X015410Y007030D03*
X015420Y007060D03*
X015420Y007850D03*
X015410Y007880D03*
X015400Y007910D03*
X015390Y007930D03*
X015390Y007940D03*
X015380Y007960D03*
X015380Y007970D03*
X015370Y007980D03*
X015370Y007990D03*
X015360Y008010D03*
X015350Y008030D03*
D24*
X015140Y007770D03*
X015150Y007730D03*
X014750Y008740D03*
X014570Y008830D03*
X013650Y008820D03*
X013510Y008750D03*
X013070Y007340D03*
X013070Y007330D03*
X013070Y007320D03*
X013130Y007080D03*
X013130Y007070D03*
X013130Y007060D03*
X013200Y006910D03*
X013200Y006900D03*
X013230Y006860D03*
X013310Y006730D03*
X013320Y006720D03*
X014490Y006050D03*
X015140Y006500D03*
D25*
X015045Y006430D03*
X014995Y006440D03*
X014965Y006410D03*
X014955Y006420D03*
X014935Y006450D03*
X014945Y006360D03*
X014815Y006340D03*
X014675Y006230D03*
X014635Y006130D03*
X014515Y006130D03*
X014515Y006120D03*
X014435Y006150D03*
X014395Y006130D03*
X014385Y006190D03*
X014495Y006210D03*
X014495Y006220D03*
X014275Y006160D03*
X014285Y006120D03*
X014285Y006110D03*
X014285Y006060D03*
X014285Y006050D03*
X014235Y006090D03*
X014165Y006070D03*
X014165Y006060D03*
X014165Y006050D03*
X014095Y006100D03*
X014095Y006110D03*
X014095Y006120D03*
X013915Y006120D03*
X013845Y006090D03*
X013835Y006080D03*
X013835Y006070D03*
X013795Y006190D03*
X013615Y006200D03*
X013615Y006210D03*
X013535Y006180D03*
X013525Y006170D03*
X013385Y006370D03*
X013335Y006380D03*
X013325Y006410D03*
X013215Y006450D03*
X013685Y006610D03*
X014015Y006890D03*
X014135Y006890D03*
X014135Y006900D03*
X014135Y006910D03*
X014135Y006920D03*
X014135Y006930D03*
X014135Y006940D03*
X014135Y006950D03*
X014135Y006960D03*
X014135Y006970D03*
X014135Y006980D03*
X014135Y006990D03*
X014135Y007000D03*
X014135Y007010D03*
X014135Y007020D03*
X014135Y007030D03*
X014135Y007040D03*
X014135Y007050D03*
X014135Y007060D03*
X014145Y007070D03*
X014145Y007080D03*
X014145Y007090D03*
X014145Y007100D03*
X014115Y007170D03*
X014105Y007180D03*
X014105Y007190D03*
X014095Y007200D03*
X014095Y007210D03*
X014085Y007230D03*
X014075Y007250D03*
X014065Y007270D03*
X014055Y007290D03*
X014055Y007300D03*
X014045Y007310D03*
X014045Y007320D03*
X014035Y007330D03*
X014035Y007340D03*
X014025Y007350D03*
X014025Y007360D03*
X014015Y007380D03*
X014005Y007400D03*
X013995Y007420D03*
X013985Y007440D03*
X013985Y007450D03*
X013975Y007460D03*
X013975Y007470D03*
X013965Y007480D03*
X013965Y007490D03*
X013955Y007500D03*
X013955Y007510D03*
X013945Y007530D03*
X013935Y007550D03*
X013925Y007570D03*
X013915Y007590D03*
X013915Y007600D03*
X013905Y007610D03*
X013905Y007620D03*
X013895Y007630D03*
X013895Y007640D03*
X013885Y007650D03*
X013885Y007660D03*
X013875Y007680D03*
X013865Y007700D03*
X013855Y007720D03*
X013845Y007740D03*
X013845Y007750D03*
X013835Y007760D03*
X013835Y007770D03*
X013825Y007780D03*
X013825Y007790D03*
X013815Y007800D03*
X013815Y007810D03*
X013775Y007900D03*
X013765Y007920D03*
X013755Y007940D03*
X013745Y007950D03*
X013735Y007990D03*
X013735Y008000D03*
X013725Y008010D03*
X013725Y008020D03*
X013725Y008030D03*
X013725Y008040D03*
X013725Y008050D03*
X013715Y008060D03*
X013715Y008070D03*
X013715Y008080D03*
X013715Y008110D03*
X013715Y008120D03*
X013715Y008130D03*
X013715Y008140D03*
X013675Y008120D03*
X013615Y008050D03*
X013415Y008000D03*
X014225Y007870D03*
X014225Y007860D03*
X014225Y007850D03*
X014225Y007840D03*
X014225Y007830D03*
X014225Y007820D03*
X014225Y007810D03*
X014225Y007800D03*
X014215Y007790D03*
X014215Y007780D03*
X014215Y007770D03*
X014215Y007760D03*
X014215Y007750D03*
X014215Y007740D03*
X014215Y007730D03*
X014205Y007690D03*
X014205Y007680D03*
X014205Y007670D03*
X014205Y007660D03*
X014205Y007650D03*
X014205Y007640D03*
X014205Y007630D03*
X014205Y007620D03*
X014195Y007610D03*
X014195Y007600D03*
X014195Y007590D03*
X014195Y007580D03*
X014195Y007570D03*
X014195Y007560D03*
X014195Y007550D03*
X014195Y007540D03*
X014185Y007530D03*
X014185Y007520D03*
X014185Y007510D03*
X014185Y007500D03*
X014185Y007490D03*
X014185Y007480D03*
X014185Y007470D03*
X014185Y007460D03*
X014185Y007450D03*
X014175Y007440D03*
X014175Y007430D03*
X014175Y007420D03*
X014175Y007410D03*
X014175Y007400D03*
X014175Y007390D03*
X014175Y007380D03*
X014175Y007370D03*
X014165Y007350D03*
X014165Y007340D03*
X014165Y007330D03*
X014165Y007320D03*
X014165Y007310D03*
X014165Y007300D03*
X014165Y007290D03*
X014165Y007280D03*
X014155Y007270D03*
X014155Y007260D03*
X014155Y007250D03*
X014155Y007240D03*
X014155Y007230D03*
X014155Y007220D03*
X014155Y007210D03*
X014185Y007210D03*
X014195Y007220D03*
X014195Y007230D03*
X014205Y007250D03*
X014215Y007270D03*
X014225Y007290D03*
X014225Y007300D03*
X014235Y007310D03*
X014235Y007320D03*
X014245Y007330D03*
X014245Y007340D03*
X014255Y007350D03*
X014255Y007360D03*
X014265Y007380D03*
X014275Y007400D03*
X014285Y007420D03*
X014285Y007430D03*
X014295Y007440D03*
X014295Y007450D03*
X014305Y007460D03*
X014305Y007470D03*
X014315Y007480D03*
X014315Y007490D03*
X014325Y007500D03*
X014325Y007510D03*
X014335Y007530D03*
X014345Y007550D03*
X014355Y007570D03*
X014355Y007580D03*
X014365Y007590D03*
X014365Y007600D03*
X014375Y007610D03*
X014375Y007620D03*
X014385Y007640D03*
X014395Y007660D03*
X014405Y007680D03*
X014415Y007700D03*
X014415Y007710D03*
X014425Y007720D03*
X014425Y007730D03*
X014435Y007740D03*
X014435Y007750D03*
X014445Y007760D03*
X014445Y007770D03*
X014455Y007790D03*
X014235Y007880D03*
X014235Y007890D03*
X014235Y007900D03*
X014235Y007910D03*
X014235Y007920D03*
X014855Y007530D03*
X014915Y007610D03*
X015075Y007850D03*
X014335Y006910D03*
X013145Y007230D03*
X013145Y007240D03*
X013895Y008720D03*
X014005Y008810D03*
X014005Y008820D03*
X014045Y008790D03*
X014045Y008780D03*
X014045Y008770D03*
X014095Y008740D03*
X014095Y008730D03*
X014175Y008800D03*
X014175Y008810D03*
X014325Y008830D03*
X014375Y008840D03*
X014485Y008740D03*
D26*
X014405Y008730D03*
X014255Y008780D03*
X014255Y008790D03*
X014235Y008840D03*
X014225Y008870D03*
X014115Y008840D03*
X014115Y008830D03*
X014115Y008820D03*
X014175Y008760D03*
X014175Y008750D03*
X013875Y008760D03*
X013975Y007740D03*
X014305Y007740D03*
X014145Y007150D03*
X014035Y006720D03*
X014025Y006510D03*
X014135Y006510D03*
X014245Y006510D03*
X014145Y006160D03*
X014095Y006060D03*
X014095Y006050D03*
X014005Y006060D03*
X014005Y006070D03*
X013905Y006070D03*
X013885Y006190D03*
X013795Y006170D03*
X013785Y006160D03*
X013785Y006150D03*
X013785Y006140D03*
X013785Y006130D03*
X013595Y006160D03*
X013535Y006200D03*
X013425Y006260D03*
X013455Y006310D03*
X013385Y006340D03*
X013385Y006350D03*
X013375Y006330D03*
X013365Y006320D03*
X013365Y006310D03*
X013355Y006300D03*
X014585Y006150D03*
X014605Y006170D03*
X014875Y006370D03*
X014905Y006390D03*
X014935Y006340D03*
X015035Y006410D03*
X014685Y006970D03*
D27*
X015145Y006510D03*
X014515Y006060D03*
X014385Y006230D03*
X014135Y006570D03*
X014135Y006580D03*
X014135Y006590D03*
X014135Y006600D03*
X014135Y006610D03*
X014135Y006620D03*
X013285Y006770D03*
X013195Y006920D03*
X013195Y006930D03*
X013105Y006500D03*
X015135Y007760D03*
X014385Y008680D03*
X014585Y008820D03*
D28*
X013805Y008670D03*
X013675Y008830D03*
X015145Y007740D03*
X013335Y006700D03*
X013325Y006710D03*
X013285Y006760D03*
X013255Y006810D03*
X013225Y006850D03*
X013205Y006880D03*
X013205Y006890D03*
X013175Y006950D03*
X013165Y006960D03*
X013115Y007090D03*
X013105Y007120D03*
X013065Y007310D03*
X013065Y007350D03*
X013065Y007360D03*
X013065Y007370D03*
X013065Y007380D03*
X013065Y007390D03*
X013065Y007460D03*
X013065Y007470D03*
X013065Y007480D03*
X013065Y007490D03*
X013065Y007500D03*
X013625Y006100D03*
X013725Y006060D03*
D29*
X013785Y006240D03*
X013285Y006790D03*
X012855Y006970D03*
X012845Y007000D03*
X012835Y007020D03*
X012835Y007030D03*
X012825Y007050D03*
X012825Y007060D03*
X012825Y007070D03*
X012815Y007080D03*
X012815Y007090D03*
X012815Y007100D03*
X012815Y007110D03*
X012805Y007120D03*
X012805Y007130D03*
X012805Y007140D03*
X012795Y007160D03*
X012795Y007170D03*
X012795Y007180D03*
X012785Y007220D03*
X012785Y007230D03*
X012775Y007290D03*
X012775Y007300D03*
X012775Y007610D03*
X012775Y007620D03*
X012785Y007680D03*
X012785Y007690D03*
X012795Y007730D03*
X012795Y007740D03*
X012795Y007750D03*
X012805Y007770D03*
X012805Y007780D03*
X012805Y007790D03*
X012815Y007800D03*
X012815Y007810D03*
X012815Y007820D03*
X012815Y007830D03*
X012825Y007840D03*
X012825Y007850D03*
X012825Y007860D03*
X012835Y007880D03*
X012845Y007910D03*
X013505Y008740D03*
X014495Y008850D03*
X014765Y008720D03*
X015385Y007950D03*
X015395Y007920D03*
X015405Y007900D03*
X015405Y007890D03*
X015415Y007870D03*
X015415Y007860D03*
X015425Y007840D03*
X015425Y007830D03*
X015425Y007820D03*
X015435Y007810D03*
X015435Y007800D03*
X015435Y007790D03*
X015445Y007770D03*
X015445Y007760D03*
X015445Y007750D03*
X015455Y007720D03*
X015455Y007710D03*
X015455Y007700D03*
X015465Y007660D03*
X015465Y007650D03*
X015475Y007560D03*
X015475Y007350D03*
X015465Y007260D03*
X015465Y007250D03*
X015455Y007210D03*
X015455Y007200D03*
X015455Y007190D03*
X015445Y007160D03*
X015445Y007150D03*
X015445Y007140D03*
X015435Y007120D03*
X015435Y007110D03*
X015435Y007100D03*
X015425Y007090D03*
X015425Y007080D03*
X015425Y007070D03*
X015415Y007050D03*
X015415Y007040D03*
X015405Y007020D03*
X015405Y007010D03*
X015395Y006990D03*
X015385Y006960D03*
X015145Y006520D03*
X014525Y006070D03*
X015125Y007750D03*
D30*
X014910Y007600D03*
X014450Y007780D03*
X014410Y007800D03*
X014410Y007690D03*
X014400Y007670D03*
X014390Y007650D03*
X014380Y007630D03*
X014350Y007560D03*
X014340Y007540D03*
X014330Y007520D03*
X014280Y007410D03*
X014270Y007390D03*
X014260Y007370D03*
X014220Y007280D03*
X014210Y007260D03*
X014200Y007240D03*
X014090Y007220D03*
X014080Y007240D03*
X014070Y007260D03*
X014060Y007280D03*
X014020Y007370D03*
X014010Y007390D03*
X014000Y007410D03*
X013990Y007430D03*
X013950Y007520D03*
X013940Y007540D03*
X013930Y007560D03*
X013920Y007580D03*
X013880Y007670D03*
X013870Y007690D03*
X013860Y007710D03*
X013850Y007730D03*
X013870Y007800D03*
X013860Y007810D03*
X013780Y007890D03*
X013770Y007910D03*
X013760Y007930D03*
X013750Y007960D03*
X013610Y008060D03*
X014210Y007700D03*
X014140Y007120D03*
X014140Y007110D03*
X014020Y006880D03*
X014030Y006690D03*
X014020Y006680D03*
X014010Y006660D03*
X013990Y006630D03*
X013980Y006620D03*
X013860Y006130D03*
X013850Y006110D03*
X013850Y006100D03*
X013790Y006100D03*
X013590Y006170D03*
X013540Y006190D03*
X013240Y006370D03*
X013260Y006400D03*
X013260Y006410D03*
X013220Y006460D03*
X013170Y006430D03*
X014150Y006120D03*
X014220Y006150D03*
X014230Y006080D03*
X014230Y006070D03*
X014290Y006130D03*
X014440Y006180D03*
X014510Y006160D03*
X014510Y006150D03*
X014520Y006110D03*
X014530Y006100D03*
X014570Y006130D03*
X014620Y006200D03*
X014620Y006210D03*
X014620Y006220D03*
X014620Y006230D03*
X014680Y006220D03*
X014710Y006190D03*
X014550Y006220D03*
X014850Y006280D03*
X014850Y006290D03*
X014880Y006340D03*
X014870Y006350D03*
X014910Y006400D03*
X014910Y006300D03*
X014910Y006290D03*
X015040Y006420D03*
X015000Y006470D03*
X014560Y008680D03*
X014480Y008720D03*
X014480Y008730D03*
X014490Y008750D03*
X014490Y008760D03*
X014500Y008770D03*
X014500Y008780D03*
X014570Y008770D03*
X014370Y008830D03*
X014260Y008740D03*
X014260Y008730D03*
X014100Y008750D03*
X014100Y008760D03*
X014100Y008770D03*
X014040Y008760D03*
X014040Y008750D03*
X014010Y008830D03*
X014010Y008840D03*
X014010Y008850D03*
X013940Y008840D03*
X013950Y008780D03*
X013950Y008770D03*
X013950Y008760D03*
X013950Y008750D03*
X013950Y008740D03*
X013950Y008730D03*
X013960Y008720D03*
X013900Y008710D03*
X013880Y008780D03*
X013880Y008790D03*
X013880Y008800D03*
X013880Y008810D03*
D31*
X013530Y008770D03*
X014720Y008770D03*
X015150Y007810D03*
X013340Y006680D03*
X013140Y006980D03*
X013130Y007010D03*
X013130Y007020D03*
X013070Y007200D03*
X013070Y007210D03*
X013060Y007300D03*
X013530Y006140D03*
X013660Y006080D03*
X013680Y006070D03*
X014610Y006090D03*
X014840Y006210D03*
D32*
X014755Y006160D03*
X014675Y006310D03*
X014595Y006080D03*
X014425Y006240D03*
X015065Y006390D03*
X015145Y006470D03*
X015145Y007820D03*
X014425Y008670D03*
X014705Y008780D03*
X013865Y008080D03*
X013935Y007950D03*
X013545Y008780D03*
X013055Y007270D03*
X013055Y007260D03*
X013055Y007250D03*
X013075Y007190D03*
X013075Y007180D03*
X013075Y007170D03*
X013075Y007160D03*
X013135Y007000D03*
X013135Y006990D03*
X013095Y006480D03*
D33*
X013085Y006430D03*
X013165Y006360D03*
X013185Y006340D03*
X013315Y006490D03*
X013385Y006440D03*
X013395Y006430D03*
X013415Y006420D03*
X013425Y006410D03*
X013695Y006190D03*
X013695Y006180D03*
X014005Y006100D03*
X014005Y006090D03*
X014005Y006080D03*
X014305Y006150D03*
X014315Y006100D03*
X014315Y006090D03*
X014525Y006200D03*
X014775Y006220D03*
X014915Y006330D03*
X014835Y006420D03*
X014845Y006430D03*
X014865Y006440D03*
X014875Y006450D03*
X014905Y006470D03*
X014915Y006480D03*
X014925Y006490D03*
X014805Y006400D03*
X015125Y006400D03*
X015135Y006410D03*
X014245Y006520D03*
X014245Y006530D03*
X014135Y006530D03*
X014135Y006540D03*
X014135Y006550D03*
X014135Y006520D03*
X014025Y006520D03*
X014025Y006530D03*
X014025Y006540D03*
X014035Y006730D03*
X014695Y007720D03*
X014565Y008720D03*
X014565Y008730D03*
X014245Y008830D03*
X014175Y008730D03*
X014115Y008860D03*
D34*
X014735Y008760D03*
X015145Y007800D03*
X015145Y007790D03*
X013875Y006580D03*
X013635Y006090D03*
X013335Y006690D03*
X013205Y006870D03*
X013095Y007140D03*
X013055Y007410D03*
X013055Y007420D03*
X013055Y007430D03*
X014765Y006170D03*
X015145Y006480D03*
D35*
X015060Y006370D03*
X014740Y006140D03*
X014680Y006110D03*
X014650Y006100D03*
X014050Y006810D03*
X014050Y006820D03*
X013330Y006450D03*
X013230Y006330D03*
X013360Y006230D03*
X013550Y006120D03*
X013570Y006110D03*
X013090Y006470D03*
X013850Y007960D03*
X013780Y008090D03*
D36*
X013735Y008780D03*
X014275Y006900D03*
X014685Y006320D03*
X014835Y006200D03*
X014695Y006120D03*
X014465Y006250D03*
X015145Y006460D03*
X013735Y006260D03*
X013295Y006280D03*
D37*
X013295Y006270D03*
X013365Y006220D03*
X013645Y006290D03*
X013715Y006270D03*
X013135Y006410D03*
X013125Y006420D03*
X013045Y007220D03*
X013045Y007240D03*
X014045Y006800D03*
X014045Y006790D03*
X014565Y006280D03*
X014695Y006330D03*
X014725Y006130D03*
X014915Y006250D03*
X015145Y006450D03*
X014675Y007730D03*
X014455Y008660D03*
X014375Y008750D03*
X014375Y008760D03*
D38*
X013740Y008690D03*
X013730Y008700D03*
X013720Y008730D03*
X013720Y008740D03*
X015130Y007960D03*
X015140Y007940D03*
X015140Y007930D03*
X015160Y007880D03*
X014040Y006770D03*
X014040Y006760D03*
X013610Y006310D03*
X013520Y006220D03*
X013420Y006180D03*
X013400Y006190D03*
X014010Y006150D03*
X014010Y006140D03*
X014010Y006130D03*
X014720Y006290D03*
X014750Y006260D03*
X014720Y006350D03*
X014800Y006390D03*
X014890Y006220D03*
X014960Y006270D03*
X015060Y006350D03*
X015020Y006400D03*
D39*
X015060Y006380D03*
X014750Y006150D03*
X014550Y006270D03*
X013660Y006280D03*
X013540Y006130D03*
X013080Y007150D03*
X013050Y007280D03*
X013050Y007290D03*
X014200Y008050D03*
X014670Y007740D03*
X015150Y007830D03*
X015150Y007840D03*
X014690Y008790D03*
X014670Y008800D03*
X013780Y008660D03*
D40*
X014370Y008740D03*
X014380Y008770D03*
X014380Y008780D03*
X014380Y008790D03*
X014380Y008800D03*
X014420Y007950D03*
X015140Y007910D03*
X015140Y007900D03*
X015160Y007860D03*
X015160Y007850D03*
X015060Y006360D03*
X014910Y006240D03*
X014830Y006190D03*
X014590Y006290D03*
X014010Y006170D03*
X013480Y006150D03*
X013460Y006160D03*
X013440Y006170D03*
X013470Y006270D03*
X013480Y006280D03*
X013330Y006460D03*
X013230Y006320D03*
X013140Y006400D03*
X013040Y007230D03*
D41*
X013085Y006460D03*
X013145Y006390D03*
X013235Y006310D03*
X013305Y006260D03*
X013375Y006210D03*
X013385Y006200D03*
X013475Y006290D03*
X013525Y006230D03*
X013625Y006300D03*
X013325Y006470D03*
X013925Y006590D03*
X014045Y006780D03*
X014015Y006160D03*
X014705Y006340D03*
X014735Y006280D03*
X014745Y006270D03*
X014825Y006180D03*
X014905Y006230D03*
X014965Y006280D03*
X015145Y006440D03*
X015155Y007870D03*
X015155Y007890D03*
X015135Y007920D03*
X014475Y008080D03*
X014485Y008650D03*
X014375Y008810D03*
X013745Y008770D03*
X013755Y008650D03*
X013785Y007970D03*
D42*
X013280Y008030D03*
X013200Y008440D03*
X013210Y008450D03*
X013220Y008460D03*
X013470Y008680D03*
X013140Y007580D03*
X014120Y006190D03*
X015090Y007250D03*
X015100Y007270D03*
X015060Y008430D03*
X015050Y008440D03*
D43*
X014740Y008640D03*
X013460Y008160D03*
X014900Y006940D03*
X014910Y006950D03*
X014130Y006200D03*
X013670Y006530D03*
D44*
X013565Y006330D03*
X013545Y006340D03*
X013525Y006350D03*
X013585Y006320D03*
X013705Y006210D03*
X013325Y006240D03*
X013305Y006250D03*
X013145Y006380D03*
X014035Y006750D03*
X014735Y006360D03*
X014755Y006370D03*
X014755Y006250D03*
X014765Y006240D03*
X014955Y006260D03*
X014995Y006290D03*
X015055Y006340D03*
X015145Y006430D03*
X014895Y006460D03*
X014225Y007720D03*
X014055Y007720D03*
X013735Y008640D03*
X013725Y008710D03*
X013725Y008720D03*
X013745Y008760D03*
X013855Y008730D03*
X015135Y007950D03*
D45*
X014125Y008560D03*
X014125Y006350D03*
X014055Y006220D03*
D46*
X013760Y006250D03*
X013300Y006740D03*
X013290Y006750D03*
X013240Y006820D03*
X013230Y006830D03*
X013230Y006840D03*
X013160Y006970D03*
X013130Y007030D03*
X013130Y007040D03*
X013130Y007050D03*
X013110Y007100D03*
X013110Y007110D03*
X013100Y007130D03*
X013060Y007400D03*
X013060Y007440D03*
X013060Y007450D03*
X013060Y007510D03*
X013060Y007520D03*
X014140Y007710D03*
X014380Y008070D03*
X015140Y007780D03*
X014740Y008750D03*
X014550Y008840D03*
X013520Y008760D03*
X013100Y006490D03*
X014530Y006260D03*
X014660Y006300D03*
X015140Y006490D03*
D47*
X015280Y006750D03*
X015290Y006770D03*
X015300Y006780D03*
X015300Y006790D03*
X015310Y006800D03*
X015320Y006820D03*
X015330Y006840D03*
X015130Y007650D03*
X015130Y007660D03*
X015130Y007670D03*
X015330Y008070D03*
X015320Y008090D03*
X015310Y008110D03*
X015300Y008120D03*
X015300Y008130D03*
X015290Y008140D03*
X015280Y008160D03*
X014640Y007770D03*
X014120Y008620D03*
X013490Y008720D03*
X012970Y008170D03*
X012960Y008150D03*
X012950Y008140D03*
X012950Y008130D03*
X012940Y008120D03*
X012930Y008100D03*
X012920Y008080D03*
X013190Y007930D03*
X013190Y007920D03*
X013190Y007910D03*
X013220Y007990D03*
X013100Y007540D03*
X012920Y006830D03*
X012930Y006810D03*
X012940Y006790D03*
X012950Y006780D03*
X012950Y006770D03*
X012960Y006760D03*
X012970Y006740D03*
X013440Y006620D03*
X013450Y006610D03*
X013460Y006600D03*
X014120Y006290D03*
D48*
X014125Y006300D03*
X014565Y006480D03*
X015065Y007230D03*
X015085Y007440D03*
X015085Y007530D03*
X015085Y007540D03*
X015085Y007550D03*
X014655Y007800D03*
X014935Y008530D03*
X014795Y008650D03*
X014145Y008710D03*
X014125Y008610D03*
X013455Y008650D03*
X013325Y008540D03*
X013305Y008530D03*
X013295Y008520D03*
X013535Y006590D03*
D49*
X013675Y006520D03*
X014125Y006310D03*
X014585Y006530D03*
X014725Y007870D03*
X014735Y007880D03*
X014745Y007890D03*
X014755Y007900D03*
X014765Y007920D03*
X014815Y008140D03*
X014805Y008150D03*
X014805Y008160D03*
X014785Y008620D03*
X014125Y008600D03*
X013795Y008470D03*
X013485Y008210D03*
X013425Y008130D03*
X014175Y007940D03*
D50*
X014845Y008030D03*
X014125Y008590D03*
X014865Y006920D03*
X014125Y006320D03*
X013665Y006560D03*
D51*
X014120Y006330D03*
X014610Y006620D03*
X014120Y008580D03*
D52*
X014125Y008570D03*
X014615Y006660D03*
X014125Y006340D03*
D53*
X014120Y006360D03*
X014120Y008550D03*
D54*
X014125Y008540D03*
X014625Y006770D03*
X014125Y006370D03*
D55*
X014120Y006380D03*
X014120Y008530D03*
D56*
X014120Y008520D03*
X014120Y006390D03*
D57*
X014120Y006400D03*
X014120Y008510D03*
D58*
X014120Y008500D03*
X014120Y006410D03*
D59*
X014120Y006420D03*
X014120Y008490D03*
D60*
X014120Y008480D03*
X014120Y006430D03*
D61*
X014125Y006440D03*
D62*
X014125Y006450D03*
D63*
X014120Y006460D03*
D64*
X014560Y006470D03*
X013540Y006580D03*
X015080Y007330D03*
X015090Y007360D03*
X015090Y007370D03*
X015090Y007380D03*
X015090Y007390D03*
X015090Y007400D03*
X015090Y007430D03*
X015080Y007560D03*
X014950Y008520D03*
X013460Y008660D03*
X013280Y008510D03*
X013320Y008050D03*
D65*
X014625Y006740D03*
X013915Y006470D03*
D66*
X013690Y006480D03*
X014990Y007020D03*
X014990Y007030D03*
X014990Y007040D03*
X015040Y007180D03*
X015040Y007190D03*
X015040Y007210D03*
X015050Y007220D03*
X015070Y007480D03*
X015070Y007490D03*
X014730Y008280D03*
X014720Y008290D03*
X014710Y008300D03*
X014540Y008440D03*
X014520Y008450D03*
X014890Y008560D03*
X013370Y008570D03*
D67*
X013355Y008560D03*
X013445Y008640D03*
X013335Y008060D03*
X014555Y008430D03*
X014575Y008420D03*
X014605Y008400D03*
X014655Y008360D03*
X014665Y008350D03*
X014675Y008340D03*
X014685Y008330D03*
X014695Y008320D03*
X014705Y008310D03*
X014905Y008550D03*
X015075Y007470D03*
X015075Y007460D03*
X015035Y007170D03*
X015035Y007160D03*
X014575Y006490D03*
D68*
X014575Y006500D03*
X014995Y007050D03*
X014995Y007060D03*
X015035Y007200D03*
X015065Y007510D03*
X015065Y007520D03*
X014745Y008260D03*
X014735Y008270D03*
X014875Y008570D03*
X014185Y008060D03*
X013645Y008390D03*
X013385Y008580D03*
X013685Y006490D03*
D69*
X013680Y006500D03*
X014580Y006510D03*
X014790Y008190D03*
X014780Y008210D03*
X014470Y008470D03*
X013740Y008450D03*
X013550Y008300D03*
X013540Y008290D03*
X013530Y008280D03*
X013400Y008120D03*
X013420Y008600D03*
X013440Y008610D03*
D70*
X013460Y008620D03*
X013510Y008250D03*
X013500Y008240D03*
X013500Y008230D03*
X013490Y008220D03*
X013380Y008080D03*
X014800Y008170D03*
X013680Y006510D03*
D71*
X014585Y006520D03*
X014715Y007860D03*
X014795Y008180D03*
X014785Y008200D03*
X014805Y008610D03*
X014125Y008700D03*
X013765Y008460D03*
X013525Y008270D03*
X013515Y008260D03*
X013395Y008110D03*
X013395Y008100D03*
X013385Y008090D03*
X013375Y008070D03*
D72*
X013260Y008010D03*
X013150Y008390D03*
X014670Y007790D03*
X015110Y007600D03*
X015110Y008380D03*
X015100Y008390D03*
X015090Y008400D03*
X015080Y008410D03*
X014790Y008680D03*
X015120Y006540D03*
X015110Y006530D03*
X013150Y006520D03*
D73*
X014585Y006540D03*
X014915Y006960D03*
X014785Y007950D03*
X014825Y008110D03*
X013465Y008170D03*
X013465Y008180D03*
D74*
X013455Y008150D03*
X014835Y008080D03*
X014595Y006550D03*
X013665Y006540D03*
D75*
X013665Y006550D03*
X014595Y006560D03*
X014885Y006930D03*
X014845Y008050D03*
X014815Y008100D03*
D76*
X014635Y007760D03*
X015315Y008100D03*
X015325Y008080D03*
X015335Y008060D03*
X015345Y008050D03*
X015345Y008040D03*
X015355Y008020D03*
X015365Y008000D03*
X014775Y008710D03*
X013215Y007980D03*
X013205Y007970D03*
X013195Y007950D03*
X013195Y007940D03*
X012915Y008070D03*
X012905Y008060D03*
X012905Y008050D03*
X012895Y008040D03*
X012895Y008030D03*
X012885Y008010D03*
X012875Y007990D03*
X012925Y008090D03*
X012935Y008110D03*
X013095Y007530D03*
X012875Y006920D03*
X012885Y006900D03*
X012895Y006880D03*
X012895Y006870D03*
X012905Y006860D03*
X012905Y006850D03*
X012915Y006840D03*
X012925Y006820D03*
X012935Y006800D03*
X014135Y006560D03*
X015315Y006810D03*
X015325Y006830D03*
X015335Y006850D03*
X015345Y006860D03*
X015345Y006870D03*
X015355Y006890D03*
X015365Y006910D03*
D77*
X014600Y006580D03*
X013660Y006570D03*
X014850Y008010D03*
X014850Y008020D03*
D78*
X015100Y007700D03*
X015180Y008300D03*
X015170Y008310D03*
X015160Y008320D03*
X014190Y007930D03*
X013480Y008700D03*
X013100Y008340D03*
X013090Y008330D03*
X013080Y008320D03*
X013140Y007680D03*
X013140Y007670D03*
X013130Y007650D03*
X013130Y007640D03*
X013130Y007630D03*
X013080Y006590D03*
X013090Y006580D03*
X013100Y006570D03*
X015160Y006590D03*
X015170Y006600D03*
X015180Y006610D03*
X014120Y008930D03*
D79*
X014740Y007960D03*
X014850Y007990D03*
X014850Y008000D03*
X014840Y006900D03*
X014600Y006590D03*
D80*
X014605Y006600D03*
D81*
X014605Y006610D03*
X014845Y007980D03*
D82*
X014610Y006630D03*
D83*
X014610Y006640D03*
D84*
X014330Y006890D03*
X015130Y007620D03*
X015130Y007630D03*
X015130Y007640D03*
X015120Y007690D03*
X015110Y007720D03*
X015240Y008220D03*
X015230Y008230D03*
X015230Y008240D03*
X015220Y008250D03*
X015210Y008260D03*
X014780Y008700D03*
X014420Y008870D03*
X013800Y008860D03*
X013490Y008710D03*
X013040Y008270D03*
X013030Y008250D03*
X013020Y008240D03*
X013010Y008230D03*
X012990Y008200D03*
X013180Y007880D03*
X013180Y007870D03*
X013180Y007860D03*
X013170Y007830D03*
X013160Y007810D03*
X013160Y007800D03*
X013150Y007770D03*
X013150Y007760D03*
X013140Y007740D03*
X013140Y007730D03*
X013140Y007720D03*
X012990Y006710D03*
X013010Y006680D03*
X013020Y006670D03*
X013030Y006660D03*
X013040Y006640D03*
X015210Y006650D03*
X015220Y006660D03*
X015230Y006670D03*
X015240Y006690D03*
D85*
X014615Y006650D03*
D86*
X015440Y007130D03*
X015450Y007170D03*
X015450Y007180D03*
X015460Y007220D03*
X015460Y007230D03*
X015460Y007240D03*
X015470Y007270D03*
X015470Y007280D03*
X015470Y007290D03*
X015470Y007300D03*
X015470Y007310D03*
X015470Y007320D03*
X015470Y007330D03*
X015470Y007340D03*
X015480Y007360D03*
X015480Y007370D03*
X015480Y007380D03*
X015480Y007390D03*
X015480Y007400D03*
X015480Y007410D03*
X015480Y007420D03*
X015480Y007430D03*
X015480Y007440D03*
X015480Y007450D03*
X015480Y007460D03*
X015480Y007470D03*
X015480Y007480D03*
X015480Y007490D03*
X015480Y007500D03*
X015480Y007510D03*
X015480Y007520D03*
X015480Y007530D03*
X015480Y007540D03*
X015480Y007550D03*
X015470Y007570D03*
X015470Y007580D03*
X015470Y007590D03*
X015470Y007600D03*
X015470Y007610D03*
X015470Y007620D03*
X015470Y007630D03*
X015470Y007640D03*
X015460Y007670D03*
X015460Y007680D03*
X015460Y007690D03*
X015450Y007730D03*
X015450Y007740D03*
X015440Y007780D03*
X014640Y007750D03*
X014760Y008730D03*
X014600Y008810D03*
X013640Y008810D03*
X012800Y007760D03*
X012790Y007720D03*
X012790Y007710D03*
X012790Y007700D03*
X012780Y007670D03*
X012780Y007660D03*
X012780Y007650D03*
X012780Y007640D03*
X012780Y007630D03*
X012770Y007600D03*
X012770Y007590D03*
X012770Y007580D03*
X012770Y007570D03*
X012770Y007560D03*
X012770Y007550D03*
X012770Y007540D03*
X012770Y007530D03*
X012770Y007520D03*
X012770Y007510D03*
X012770Y007500D03*
X012770Y007490D03*
X012770Y007480D03*
X012770Y007470D03*
X012770Y007460D03*
X012770Y007450D03*
X012770Y007440D03*
X012770Y007430D03*
X012770Y007420D03*
X012770Y007410D03*
X012770Y007400D03*
X012770Y007390D03*
X012770Y007380D03*
X012770Y007370D03*
X012770Y007360D03*
X012770Y007350D03*
X012770Y007340D03*
X012770Y007330D03*
X012770Y007320D03*
X012770Y007310D03*
X012780Y007280D03*
X012780Y007270D03*
X012780Y007260D03*
X012780Y007250D03*
X012780Y007240D03*
X012790Y007210D03*
X012790Y007200D03*
X012790Y007190D03*
X012800Y007150D03*
X013190Y006940D03*
X013270Y006800D03*
X013290Y006780D03*
X013370Y006670D03*
X013380Y006660D03*
X013390Y006650D03*
D87*
X014620Y006680D03*
D88*
X014620Y006690D03*
D89*
X014620Y006700D03*
D90*
X014625Y006710D03*
D91*
X014620Y006720D03*
X014120Y008880D03*
D92*
X014625Y006730D03*
D93*
X014625Y006750D03*
X014625Y006760D03*
D94*
X014625Y006780D03*
D95*
X014630Y006790D03*
D96*
X014625Y006800D03*
D97*
X014625Y006810D03*
X014625Y006820D03*
D98*
X014560Y006850D03*
X014550Y006830D03*
D99*
X014555Y006840D03*
D100*
X014610Y006860D03*
D101*
X014630Y006870D03*
D102*
X014635Y006880D03*
D103*
X014830Y006890D03*
X014170Y008690D03*
D104*
X014795Y008090D03*
X014855Y006910D03*
D105*
X014960Y006970D03*
X014960Y006980D03*
X014960Y006990D03*
X015000Y007070D03*
X015000Y007080D03*
X015000Y007090D03*
X015010Y007130D03*
X015060Y007500D03*
X014680Y007840D03*
X014670Y007830D03*
X014640Y007810D03*
X014760Y008240D03*
X014750Y008250D03*
X014500Y008460D03*
X014840Y008590D03*
X014860Y008580D03*
X013690Y008420D03*
X013670Y008410D03*
X013660Y008400D03*
X013630Y008380D03*
X013620Y008370D03*
X013610Y008360D03*
X013600Y008350D03*
X013590Y008340D03*
X013400Y008590D03*
D106*
X013240Y008480D03*
X013300Y008040D03*
X014990Y008490D03*
X015000Y008480D03*
X015080Y007240D03*
D107*
X015095Y007260D03*
X015105Y007280D03*
X015105Y007290D03*
X015105Y007300D03*
X015105Y007310D03*
X015105Y007320D03*
X015065Y008420D03*
X014795Y008670D03*
X013855Y008870D03*
X013655Y008790D03*
X013475Y008690D03*
X013185Y008430D03*
X013175Y008420D03*
X013165Y008410D03*
X013155Y008400D03*
X013275Y008020D03*
X013135Y007600D03*
X013135Y007590D03*
D108*
X013255Y008490D03*
X013265Y008500D03*
X014965Y008510D03*
X014975Y008500D03*
X015085Y007590D03*
X015085Y007580D03*
X015085Y007570D03*
X015095Y007420D03*
X015095Y007410D03*
X015085Y007350D03*
X015085Y007340D03*
D109*
X015080Y007450D03*
X014640Y008370D03*
X014630Y008380D03*
X014620Y008390D03*
X014590Y008410D03*
X014920Y008540D03*
X013340Y008550D03*
D110*
X013480Y008630D03*
X013480Y008200D03*
X013470Y008190D03*
X013430Y008140D03*
X014760Y007910D03*
X014770Y007930D03*
X014780Y007940D03*
X014820Y008120D03*
X014820Y008130D03*
X014760Y008630D03*
D111*
X014825Y007970D03*
D112*
X014840Y008060D03*
X014840Y008070D03*
D113*
X015035Y008450D03*
X015025Y008460D03*
X015015Y008470D03*
X014795Y008660D03*
X013465Y008670D03*
X013235Y008470D03*
D114*
X014568Y005684D02*
X014568Y005625D01*
X014568Y005509D02*
X014568Y005275D01*
X014626Y005275D02*
X014509Y005275D01*
X014381Y005275D02*
X014206Y005275D01*
X014147Y005333D01*
X014206Y005392D01*
X014322Y005392D01*
X014381Y005450D01*
X014322Y005509D01*
X014147Y005509D01*
X014012Y005217D02*
X013779Y005217D01*
X013644Y005275D02*
X013410Y005275D01*
X013276Y005275D02*
X013276Y005625D01*
X013101Y005625D01*
X013042Y005567D01*
X013042Y005450D01*
X013101Y005392D01*
X013276Y005392D01*
X013527Y005450D02*
X013644Y005450D01*
X013644Y005625D02*
X013644Y005275D01*
X013644Y005625D02*
X013410Y005625D01*
X012907Y005567D02*
X012907Y005509D01*
X012849Y005450D01*
X012732Y005450D01*
X012674Y005392D01*
X012674Y005333D01*
X012732Y005275D01*
X012849Y005275D01*
X012907Y005333D01*
X012907Y005567D02*
X012849Y005625D01*
X012732Y005625D01*
X012674Y005567D01*
X012171Y005509D02*
X012054Y005275D01*
X011937Y005509D01*
X011802Y005567D02*
X011802Y005333D01*
X011569Y005567D01*
X011569Y005333D01*
X011627Y005275D01*
X011744Y005275D01*
X011802Y005333D01*
X011802Y005567D02*
X011744Y005625D01*
X011627Y005625D01*
X011569Y005567D01*
X011434Y005333D02*
X011376Y005333D01*
X011376Y005275D01*
X011434Y005275D01*
X011434Y005333D01*
X011250Y005450D02*
X011016Y005450D01*
X011075Y005275D02*
X011075Y005625D01*
X011250Y005450D01*
X014568Y005509D02*
X014626Y005509D01*
X014761Y005450D02*
X014761Y005275D01*
X014761Y005450D02*
X014819Y005509D01*
X014995Y005509D01*
X014995Y005275D01*
X015129Y005275D02*
X015304Y005275D01*
X015363Y005333D01*
X015304Y005392D01*
X015129Y005392D01*
X015129Y005450D02*
X015129Y005275D01*
X015129Y005450D02*
X015188Y005509D01*
X015304Y005509D01*
X015492Y005509D02*
X015608Y005509D01*
X015550Y005567D02*
X015550Y005333D01*
X015492Y005275D01*
X015743Y005275D02*
X015918Y005275D01*
X015977Y005333D01*
X015977Y005450D01*
X015918Y005509D01*
X015743Y005509D01*
X016111Y005567D02*
X016111Y005333D01*
X016170Y005275D01*
X016287Y005275D01*
X016345Y005333D01*
X016345Y005567D01*
X016287Y005625D01*
X016170Y005625D01*
X016111Y005567D01*
D115*
X016900Y005011D02*
X017053Y004781D01*
X017207Y005011D01*
X017360Y004781D02*
X016900Y004781D01*
X017284Y004628D02*
X016977Y004321D01*
X016900Y004321D01*
X016900Y004091D02*
X017360Y004091D01*
X017130Y003860D01*
X017130Y004167D01*
X017360Y004321D02*
X017360Y004628D01*
X017284Y004628D01*
X018150Y004598D02*
X018150Y004905D01*
X018150Y004751D02*
X018610Y004751D01*
X018457Y004598D01*
X018534Y005058D02*
X018227Y005058D01*
X018534Y005365D01*
X018227Y005365D01*
X018150Y005289D01*
X018150Y005135D01*
X018227Y005058D01*
X018534Y005058D02*
X018610Y005135D01*
X018610Y005289D01*
X018534Y005365D01*
X018534Y005519D02*
X018227Y005519D01*
X018534Y005826D01*
X018227Y005826D01*
X018150Y005749D01*
X018150Y005596D01*
X018227Y005519D01*
X018534Y005519D02*
X018610Y005596D01*
X018610Y005749D01*
X018534Y005826D01*
X018457Y005979D02*
X018150Y005979D01*
X018457Y005979D02*
X018457Y006209D01*
X018380Y006286D01*
X018150Y006286D01*
X018150Y006440D02*
X018610Y006440D01*
X018610Y006747D01*
X018380Y006593D02*
X018380Y006440D01*
X019149Y006550D02*
X019379Y006703D01*
X019149Y006857D01*
X019379Y007010D02*
X019379Y006550D01*
X019532Y006627D02*
X019609Y006550D01*
X019762Y006550D01*
X019839Y006627D01*
X019532Y006934D01*
X019532Y006627D01*
X019532Y006934D02*
X019609Y007010D01*
X019762Y007010D01*
X019839Y006934D01*
X019839Y006627D01*
X019993Y006550D02*
X020300Y006550D01*
X019993Y006857D01*
X019993Y006934D01*
X020069Y007010D01*
X020223Y007010D01*
X020300Y006934D01*
X020453Y006934D02*
X020530Y007010D01*
X020683Y007010D01*
X020760Y006934D01*
X020760Y006857D01*
X020683Y006780D01*
X020453Y006780D01*
X020453Y006627D02*
X020453Y006934D01*
X020453Y006627D02*
X020530Y006550D01*
X020683Y006550D01*
X020760Y006627D01*
X021400Y006616D02*
X021860Y006616D01*
X021784Y006463D02*
X021477Y006463D01*
X021400Y006386D01*
X021400Y006233D01*
X021477Y006156D01*
X021784Y006463D01*
X021860Y006386D01*
X021860Y006233D01*
X021784Y006156D01*
X021477Y006156D01*
X021477Y006002D02*
X021553Y006002D01*
X021630Y005926D01*
X021630Y005696D01*
X021477Y005696D01*
X021400Y005772D01*
X021400Y005926D01*
X021477Y006002D01*
X021630Y005696D02*
X021784Y005849D01*
X021860Y006002D01*
X021860Y005542D02*
X021860Y005235D01*
X021630Y005235D01*
X021707Y005389D01*
X021707Y005465D01*
X021630Y005542D01*
X021477Y005542D01*
X021400Y005465D01*
X021400Y005312D01*
X021477Y005235D01*
X021200Y005261D02*
X021200Y005415D01*
X021124Y005491D01*
X021047Y005491D01*
X020740Y005184D01*
X020740Y005491D01*
X021124Y005184D02*
X021200Y005261D01*
X021124Y005031D02*
X021047Y005031D01*
X020970Y004954D01*
X020893Y005031D01*
X020817Y005031D01*
X020740Y004954D01*
X020740Y004801D01*
X020817Y004724D01*
X020740Y004571D02*
X020893Y004340D01*
X021047Y004571D01*
X021124Y004724D02*
X021200Y004801D01*
X021200Y004954D01*
X021124Y005031D01*
X020970Y004954D02*
X020970Y004878D01*
X020740Y004340D02*
X021200Y004340D01*
X021290Y004197D02*
X021290Y003890D01*
X021597Y004197D01*
X021674Y004197D01*
X021750Y004120D01*
X021750Y003966D01*
X021674Y003890D01*
X021674Y003736D02*
X021367Y003429D01*
X021290Y003506D01*
X021290Y003659D01*
X021367Y003736D01*
X021674Y003736D01*
X021750Y003659D01*
X021750Y003506D01*
X021674Y003429D01*
X021367Y003429D01*
X021290Y003276D02*
X021443Y003046D01*
X021597Y003276D01*
X021750Y003046D02*
X021290Y003046D01*
X021520Y002892D02*
X021520Y002585D01*
X021750Y002815D01*
X021290Y002815D01*
X021537Y002481D02*
X021613Y002481D01*
X021690Y002405D01*
X021690Y002174D01*
X021537Y002174D01*
X021460Y002251D01*
X021460Y002405D01*
X021537Y002481D01*
X021844Y002328D02*
X021690Y002174D01*
X021767Y002021D02*
X021613Y001791D01*
X021460Y002021D01*
X021460Y001791D02*
X021920Y001791D01*
X021920Y001637D02*
X021844Y001484D01*
X021690Y001330D01*
X021690Y001561D01*
X021613Y001637D01*
X021537Y001637D01*
X021460Y001561D01*
X021460Y001407D01*
X021537Y001330D01*
X021690Y001330D01*
X021613Y001177D02*
X021537Y001177D01*
X021460Y001100D01*
X021460Y000947D01*
X021537Y000870D01*
X021613Y000870D01*
X021690Y000947D01*
X021690Y001100D01*
X021613Y001177D01*
X021690Y001100D02*
X021767Y001177D01*
X021844Y001177D01*
X021920Y001100D01*
X021920Y000947D01*
X021844Y000870D01*
X021767Y000870D01*
X021690Y000947D01*
X022768Y001900D02*
X022768Y002360D01*
X022462Y002360D01*
X022615Y002130D02*
X022768Y002130D01*
X022922Y002130D02*
X022922Y001900D01*
X022922Y002130D02*
X022999Y002207D01*
X023229Y002207D01*
X023229Y001900D01*
X023382Y001977D02*
X023459Y001900D01*
X023612Y001900D01*
X023689Y001977D01*
X023382Y002284D01*
X023382Y001977D01*
X023689Y001977D02*
X023689Y002284D01*
X023612Y002360D01*
X023459Y002360D01*
X023382Y002284D01*
X023843Y002284D02*
X023843Y001977D01*
X023919Y001900D01*
X024073Y001900D01*
X024150Y001977D01*
X023843Y002284D01*
X023919Y002360D01*
X024073Y002360D01*
X024150Y002284D01*
X024150Y001977D01*
X024303Y001900D02*
X024610Y001900D01*
X024457Y001900D02*
X024457Y002360D01*
X024610Y002207D01*
X024525Y003025D02*
X024765Y003025D01*
X024885Y003145D01*
X024765Y003265D01*
X024525Y003265D01*
X024525Y003393D02*
X024525Y003573D01*
X024585Y003634D01*
X024825Y003634D01*
X024885Y003573D01*
X024885Y003393D01*
X024525Y003393D01*
X024705Y003265D02*
X024705Y003025D01*
X024645Y003762D02*
X024645Y003942D01*
X024705Y004002D01*
X024825Y004002D01*
X024885Y003942D01*
X024885Y003762D01*
X024525Y003762D01*
X024645Y003882D02*
X024525Y004002D01*
X024525Y004130D02*
X024525Y004370D01*
X024525Y004250D02*
X024885Y004250D01*
X024765Y004130D01*
X024825Y004498D02*
X024885Y004558D01*
X024885Y004678D01*
X024825Y004738D01*
X024765Y004738D01*
X024525Y004498D01*
X024525Y004738D01*
X024525Y004867D02*
X024585Y004867D01*
X024825Y005107D01*
X024885Y005107D01*
X024885Y004867D01*
X024885Y005235D02*
X024525Y005235D01*
X024525Y005415D01*
X024585Y005475D01*
X024645Y005475D01*
X024705Y005415D01*
X024705Y005235D01*
X024705Y005415D02*
X024765Y005475D01*
X024825Y005475D01*
X024885Y005415D01*
X024885Y005235D01*
X024360Y005900D02*
X024053Y005900D01*
X024207Y005900D02*
X024207Y006360D01*
X024360Y006207D01*
X024400Y006598D02*
X024400Y006905D01*
X024400Y006751D02*
X024860Y006751D01*
X024707Y006598D01*
X024784Y007058D02*
X024477Y007058D01*
X024784Y007365D01*
X024477Y007365D01*
X024400Y007289D01*
X024400Y007135D01*
X024477Y007058D01*
X024784Y007058D02*
X024860Y007135D01*
X024860Y007289D01*
X024784Y007365D01*
X024784Y007519D02*
X024477Y007519D01*
X024784Y007826D01*
X024477Y007826D01*
X024400Y007749D01*
X024400Y007596D01*
X024477Y007519D01*
X024784Y007519D02*
X024860Y007596D01*
X024860Y007749D01*
X024784Y007826D01*
X024707Y007979D02*
X024707Y008209D01*
X024630Y008286D01*
X024400Y008286D01*
X024400Y008440D02*
X024860Y008440D01*
X024860Y008747D01*
X024630Y008593D02*
X024630Y008440D01*
X024707Y007979D02*
X024400Y007979D01*
X023823Y006360D02*
X023669Y006360D01*
X023593Y006284D01*
X023900Y005977D01*
X023823Y005900D01*
X023669Y005900D01*
X023593Y005977D01*
X023593Y006284D01*
X023439Y006284D02*
X023362Y006360D01*
X023209Y006360D01*
X023132Y006284D01*
X023439Y005977D01*
X023362Y005900D01*
X023209Y005900D01*
X023132Y005977D01*
X023132Y006284D01*
X022979Y006207D02*
X022749Y006207D01*
X022672Y006130D01*
X022672Y005900D01*
X022518Y005900D02*
X022518Y006360D01*
X022212Y006360D01*
X022365Y006130D02*
X022518Y006130D01*
X022979Y006207D02*
X022979Y005900D01*
X023439Y005977D02*
X023439Y006284D01*
X023823Y006360D02*
X023900Y006284D01*
X023900Y005977D01*
X021707Y006847D02*
X021553Y006616D01*
X021400Y006847D01*
X021124Y004187D02*
X021047Y004187D01*
X020970Y004110D01*
X020893Y004187D01*
X020817Y004187D01*
X020740Y004110D01*
X020740Y003957D01*
X020817Y003880D01*
X020970Y004033D02*
X020970Y004110D01*
X021124Y004187D02*
X021200Y004110D01*
X021200Y003957D01*
X021124Y003880D01*
X019810Y002811D02*
X019734Y002888D01*
X019657Y002888D01*
X019580Y002811D01*
X019503Y002888D01*
X019427Y002888D01*
X019350Y002811D01*
X019350Y002658D01*
X019427Y002581D01*
X019427Y002427D02*
X019350Y002351D01*
X019350Y002197D01*
X019427Y002120D01*
X019427Y001967D02*
X019734Y001967D01*
X019810Y001890D01*
X019810Y001737D01*
X019734Y001660D01*
X019657Y001660D01*
X019580Y001737D01*
X019580Y001967D01*
X019427Y001967D02*
X019350Y001890D01*
X019350Y001737D01*
X019427Y001660D01*
X019580Y002120D02*
X019657Y002274D01*
X019657Y002351D01*
X019580Y002427D01*
X019427Y002427D01*
X019580Y002120D02*
X019810Y002120D01*
X019810Y002427D01*
X019734Y002581D02*
X019810Y002658D01*
X019810Y002811D01*
X019580Y002811D02*
X019580Y002734D01*
X021844Y002328D02*
X021920Y002481D01*
X017360Y003553D02*
X016900Y003553D01*
X016900Y003400D02*
X016900Y003707D01*
X017207Y003400D02*
X017360Y003553D01*
X010860Y006501D02*
X010400Y006501D01*
X010400Y006348D02*
X010400Y006655D01*
X010477Y006808D02*
X010784Y007115D01*
X010477Y007115D01*
X010400Y007039D01*
X010400Y006885D01*
X010477Y006808D01*
X010784Y006808D01*
X010860Y006885D01*
X010860Y007039D01*
X010784Y007115D01*
X010784Y007269D02*
X010860Y007346D01*
X010860Y007499D01*
X010784Y007576D01*
X010477Y007269D01*
X010400Y007346D01*
X010400Y007499D01*
X010477Y007576D01*
X010784Y007576D01*
X010707Y007729D02*
X010400Y007729D01*
X010400Y007883D02*
X010630Y007883D01*
X010707Y007959D01*
X010630Y008036D01*
X010400Y008036D01*
X010400Y008190D02*
X010860Y008190D01*
X010630Y008190D02*
X010630Y008497D01*
X010860Y008497D02*
X010400Y008497D01*
X010377Y009065D02*
X010684Y009065D01*
X010530Y009065D02*
X010530Y009526D01*
X010684Y009372D01*
X010223Y009449D02*
X010223Y009142D01*
X009917Y009449D01*
X009917Y009142D01*
X009993Y009065D01*
X010147Y009065D01*
X010223Y009142D01*
X010223Y009449D02*
X010147Y009526D01*
X009993Y009526D01*
X009917Y009449D01*
X009763Y009372D02*
X009763Y009142D01*
X009686Y009065D01*
X009456Y009065D01*
X009456Y009372D01*
X009303Y009296D02*
X009149Y009296D01*
X009303Y009526D02*
X009303Y009065D01*
X009303Y009526D02*
X008996Y009526D01*
X010630Y007883D02*
X010707Y007806D01*
X010707Y007729D01*
X010784Y007269D02*
X010477Y007269D01*
X009912Y007207D02*
X009759Y007360D01*
X009759Y006900D01*
X009912Y006900D02*
X009605Y006900D01*
X009452Y006977D02*
X009452Y007284D01*
X009375Y007360D01*
X009221Y007360D01*
X009145Y007284D01*
X009452Y006977D01*
X009375Y006900D01*
X009221Y006900D01*
X009145Y006977D01*
X009145Y007284D01*
X008991Y007284D02*
X008991Y006977D01*
X008684Y007284D01*
X008684Y006977D01*
X008761Y006900D01*
X008914Y006900D01*
X008991Y006977D01*
X008991Y007284D02*
X008914Y007360D01*
X008761Y007360D01*
X008684Y007284D01*
X008531Y007207D02*
X008301Y007207D01*
X008224Y007130D01*
X008224Y006900D01*
X008070Y006900D02*
X008070Y007360D01*
X007763Y007360D01*
X007917Y007130D02*
X008070Y007130D01*
X008531Y007207D02*
X008531Y006900D01*
X010707Y006348D02*
X010860Y006501D01*
X004860Y005781D02*
X004400Y005781D01*
X004553Y005781D02*
X004707Y006011D01*
X004553Y005781D02*
X004400Y006011D01*
X004477Y005628D02*
X004400Y005551D01*
X004400Y005398D01*
X004477Y005321D01*
X004784Y005628D01*
X004477Y005628D01*
X004784Y005628D02*
X004860Y005551D01*
X004860Y005398D01*
X004784Y005321D01*
X004477Y005321D01*
X004477Y005167D02*
X004400Y005091D01*
X004400Y004937D01*
X004477Y004860D01*
X004784Y005167D01*
X004477Y005167D01*
X004784Y005167D02*
X004860Y005091D01*
X004860Y004937D01*
X004784Y004860D01*
X004477Y004860D01*
X004400Y004707D02*
X004400Y004400D01*
X004707Y004707D01*
X004784Y004707D01*
X004860Y004630D01*
X004860Y004477D01*
X004784Y004400D01*
X004707Y004011D02*
X004553Y003781D01*
X004400Y004011D01*
X004400Y003781D02*
X004860Y003781D01*
X004784Y003628D02*
X004477Y003628D01*
X004400Y003551D01*
X004400Y003398D01*
X004477Y003321D01*
X004784Y003628D01*
X004860Y003551D01*
X004860Y003398D01*
X004784Y003321D01*
X004477Y003321D01*
X004477Y003167D02*
X004400Y003091D01*
X004400Y002937D01*
X004477Y002860D01*
X004784Y003167D01*
X004477Y003167D01*
X004477Y002860D02*
X004784Y002860D01*
X004860Y002937D01*
X004860Y003091D01*
X004784Y003167D01*
X004784Y002707D02*
X004860Y002630D01*
X004860Y002477D01*
X004784Y002400D01*
X004707Y002707D02*
X004400Y002400D01*
X004400Y002707D01*
X004707Y002707D02*
X004784Y002707D01*
X002860Y002553D02*
X002400Y002553D01*
X002400Y002400D02*
X002400Y002707D01*
X002477Y002860D02*
X002784Y003167D01*
X002477Y003167D01*
X002400Y003091D01*
X002400Y002937D01*
X002477Y002860D01*
X002784Y002860D01*
X002860Y002937D01*
X002860Y003091D01*
X002784Y003167D01*
X002784Y003321D02*
X002477Y003321D01*
X002784Y003628D01*
X002477Y003628D01*
X002400Y003551D01*
X002400Y003398D01*
X002477Y003321D01*
X002784Y003321D02*
X002860Y003398D01*
X002860Y003551D01*
X002784Y003628D01*
X002860Y003781D02*
X002400Y003781D01*
X002553Y003781D02*
X002707Y004011D01*
X002553Y003781D02*
X002400Y004011D01*
X002400Y004400D02*
X002400Y004707D01*
X002400Y004553D02*
X002860Y004553D01*
X002707Y004400D01*
X002784Y004860D02*
X002477Y004860D01*
X002784Y005167D01*
X002477Y005167D01*
X002400Y005091D01*
X002400Y004937D01*
X002477Y004860D01*
X002784Y004860D02*
X002860Y004937D01*
X002860Y005091D01*
X002784Y005167D01*
X002784Y005321D02*
X002477Y005321D01*
X002784Y005628D01*
X002477Y005628D01*
X002400Y005551D01*
X002400Y005398D01*
X002477Y005321D01*
X002784Y005321D02*
X002860Y005398D01*
X002860Y005551D01*
X002784Y005628D01*
X002860Y005781D02*
X002400Y005781D01*
X002553Y005781D02*
X002707Y006011D01*
X002553Y005781D02*
X002400Y006011D01*
X002860Y002553D02*
X002707Y002400D01*
X008650Y011900D02*
X008650Y012207D01*
X008650Y012360D02*
X009110Y012360D01*
X008957Y012514D01*
X009110Y012667D01*
X008650Y012667D01*
X009018Y013150D02*
X009018Y013610D01*
X008712Y013610D01*
X008865Y013380D02*
X009018Y013380D01*
X009172Y013380D02*
X009172Y013150D01*
X009479Y013150D02*
X009479Y013457D01*
X009249Y013457D01*
X009172Y013380D01*
X009632Y013227D02*
X009709Y013150D01*
X009862Y013150D01*
X009939Y013227D01*
X009632Y013534D01*
X009632Y013227D01*
X009632Y013534D02*
X009709Y013610D01*
X009862Y013610D01*
X009939Y013534D01*
X009939Y013227D01*
X010093Y013227D02*
X010169Y013150D01*
X010323Y013150D01*
X010400Y013227D01*
X010093Y013534D01*
X010093Y013227D01*
X010400Y013227D02*
X010400Y013534D01*
X010323Y013610D01*
X010169Y013610D01*
X010093Y013534D01*
X010553Y013150D02*
X010860Y013150D01*
X010707Y013150D02*
X010707Y013610D01*
X010860Y013457D01*
X011400Y012667D02*
X011860Y012667D01*
X011707Y012514D01*
X011860Y012360D01*
X011400Y012360D01*
X011400Y012207D02*
X011400Y011900D01*
X011400Y012053D02*
X011860Y012053D01*
X011707Y011900D01*
X013900Y011900D02*
X013900Y012207D01*
X013900Y012360D02*
X014360Y012360D01*
X014207Y012514D01*
X014360Y012667D01*
X013900Y012667D01*
X013900Y012053D02*
X014360Y012053D01*
X014207Y011900D01*
X014400Y014900D02*
X014400Y015360D01*
X014169Y015360D01*
X014093Y015284D01*
X014093Y015130D01*
X014169Y015053D01*
X014400Y015053D01*
X014553Y015360D02*
X014860Y015360D01*
X014707Y015360D02*
X014707Y014900D01*
X013939Y014977D02*
X013862Y014900D01*
X013709Y014900D01*
X013632Y014977D01*
X013632Y015053D01*
X013709Y015130D01*
X013862Y015130D01*
X013939Y015207D01*
X013939Y015284D01*
X013862Y015360D01*
X013709Y015360D01*
X013632Y015284D01*
X013479Y015284D02*
X013402Y015360D01*
X013249Y015360D01*
X013172Y015284D01*
X013172Y015207D01*
X013479Y014900D01*
X013172Y014900D01*
X013018Y014977D02*
X012712Y015284D01*
X012712Y014977D01*
X012788Y014900D01*
X012942Y014900D01*
X013018Y014977D01*
X013018Y015284D01*
X012942Y015360D01*
X012788Y015360D01*
X012712Y015284D01*
X012558Y015284D02*
X012481Y015360D01*
X012328Y015360D01*
X012251Y015284D01*
X012251Y015207D01*
X012558Y014900D01*
X012251Y014900D01*
X012098Y014900D02*
X011791Y015207D01*
X011791Y015284D01*
X011867Y015360D01*
X012021Y015360D01*
X012098Y015284D01*
X011637Y015360D02*
X011407Y015360D01*
X011330Y015284D01*
X011330Y014977D01*
X011407Y014900D01*
X011637Y014900D01*
X011637Y015360D01*
X011791Y014900D02*
X012098Y014900D01*
X009378Y015235D02*
X009071Y015542D01*
X009071Y015618D01*
X009148Y015695D01*
X009301Y015695D01*
X009378Y015618D01*
X009378Y015235D02*
X009071Y015235D01*
X008917Y015235D02*
X008610Y015542D01*
X008610Y015618D01*
X008687Y015695D01*
X008841Y015695D01*
X008917Y015618D01*
X008917Y015235D02*
X008610Y015235D01*
X008457Y015311D02*
X008457Y015542D01*
X008457Y015311D02*
X008380Y015235D01*
X008150Y015235D01*
X008150Y015542D01*
X007997Y015465D02*
X007843Y015465D01*
X007997Y015695D02*
X007690Y015695D01*
X007997Y015695D02*
X007997Y015235D01*
X004860Y015130D02*
X004860Y014977D01*
X004784Y014900D01*
X004860Y015130D02*
X004784Y015207D01*
X004707Y015207D01*
X004400Y014900D01*
X004400Y015207D01*
X004477Y015360D02*
X004784Y015667D01*
X004477Y015667D01*
X004400Y015591D01*
X004400Y015437D01*
X004477Y015360D01*
X004784Y015360D01*
X004860Y015437D01*
X004860Y015591D01*
X004784Y015667D01*
X004784Y015821D02*
X004477Y015821D01*
X004784Y016128D01*
X004477Y016128D01*
X004400Y016051D01*
X004400Y015898D01*
X004477Y015821D01*
X004784Y015821D02*
X004860Y015898D01*
X004860Y016051D01*
X004784Y016128D01*
X004860Y016281D02*
X004400Y016281D01*
X004553Y016281D02*
X004707Y016511D01*
X004553Y016281D02*
X004400Y016511D01*
X004400Y016900D02*
X004707Y017207D01*
X004784Y017207D01*
X004860Y017130D01*
X004860Y016977D01*
X004784Y016900D01*
X004400Y016900D02*
X004400Y017207D01*
X004477Y017360D02*
X004784Y017667D01*
X004477Y017667D01*
X004400Y017591D01*
X004400Y017437D01*
X004477Y017360D01*
X004784Y017360D01*
X004860Y017437D01*
X004860Y017591D01*
X004784Y017667D01*
X004784Y017821D02*
X004860Y017898D01*
X004860Y018051D01*
X004784Y018128D01*
X004477Y017821D01*
X004400Y017898D01*
X004400Y018051D01*
X004477Y018128D01*
X004784Y018128D01*
X004860Y018281D02*
X004400Y018281D01*
X004553Y018281D02*
X004707Y018511D01*
X004553Y018281D02*
X004400Y018511D01*
X004477Y017821D02*
X004784Y017821D01*
X002860Y017898D02*
X002860Y018051D01*
X002784Y018128D01*
X002477Y017821D01*
X002400Y017898D01*
X002400Y018051D01*
X002477Y018128D01*
X002784Y018128D01*
X002860Y018281D02*
X002400Y018281D01*
X002553Y018281D02*
X002707Y018511D01*
X002553Y018281D02*
X002400Y018511D01*
X002860Y017898D02*
X002784Y017821D01*
X002477Y017821D01*
X002477Y017667D02*
X002400Y017591D01*
X002400Y017437D01*
X002477Y017360D01*
X002784Y017667D01*
X002477Y017667D01*
X002784Y017667D02*
X002860Y017591D01*
X002860Y017437D01*
X002784Y017360D01*
X002477Y017360D01*
X002400Y017207D02*
X002400Y016900D01*
X002400Y017053D02*
X002860Y017053D01*
X002707Y016900D01*
X002707Y016511D02*
X002553Y016281D01*
X002400Y016511D01*
X002400Y016281D02*
X002860Y016281D01*
X002784Y016128D02*
X002477Y015821D01*
X002400Y015898D01*
X002400Y016051D01*
X002477Y016128D01*
X002784Y016128D01*
X002860Y016051D01*
X002860Y015898D01*
X002784Y015821D01*
X002477Y015821D01*
X002477Y015667D02*
X002400Y015591D01*
X002400Y015437D01*
X002477Y015360D01*
X002784Y015667D01*
X002477Y015667D01*
X002784Y015667D02*
X002860Y015591D01*
X002860Y015437D01*
X002784Y015360D01*
X002477Y015360D01*
X002400Y015207D02*
X002400Y014900D01*
X002400Y015053D02*
X002860Y015053D01*
X002707Y014900D01*
X008650Y012053D02*
X009110Y012053D01*
X008957Y011900D01*
D116*
X018990Y005142D02*
X018990Y004119D01*
X018992Y004099D01*
X018996Y004079D01*
X019004Y004061D01*
X019014Y004044D01*
X019027Y004028D01*
X019043Y004015D01*
X019060Y004005D01*
X019078Y003997D01*
X019098Y003993D01*
X019118Y003991D01*
X020141Y003991D02*
X020161Y003993D01*
X020181Y003997D01*
X020199Y004005D01*
X020216Y004015D01*
X020232Y004028D01*
X020245Y004044D01*
X020255Y004061D01*
X020263Y004079D01*
X020267Y004099D01*
X020269Y004119D01*
X020269Y005142D01*
X020267Y005162D01*
X020263Y005182D01*
X020255Y005200D01*
X020245Y005217D01*
X020232Y005233D01*
X020216Y005246D01*
X020199Y005256D01*
X020181Y005264D01*
X020161Y005268D01*
X020141Y005270D01*
X019118Y005270D02*
X019098Y005268D01*
X019078Y005264D01*
X019060Y005256D01*
X019043Y005246D01*
X019027Y005233D01*
X019014Y005217D01*
X019004Y005200D01*
X018996Y005182D01*
X018992Y005162D01*
X018990Y005142D01*
X021990Y007119D02*
X021990Y008142D01*
X021992Y008162D01*
X021996Y008182D01*
X022004Y008200D01*
X022014Y008217D01*
X022027Y008233D01*
X022043Y008246D01*
X022060Y008256D01*
X022078Y008264D01*
X022098Y008268D01*
X022118Y008270D01*
X023141Y008270D02*
X023161Y008268D01*
X023181Y008264D01*
X023199Y008256D01*
X023216Y008246D01*
X023232Y008233D01*
X023245Y008217D01*
X023255Y008200D01*
X023263Y008182D01*
X023267Y008162D01*
X023269Y008142D01*
X023269Y007119D01*
X023267Y007099D01*
X023263Y007079D01*
X023255Y007061D01*
X023245Y007044D01*
X023232Y007028D01*
X023216Y007015D01*
X023199Y007005D01*
X023181Y006997D01*
X023161Y006993D01*
X023141Y006991D01*
X022118Y006991D02*
X022098Y006993D01*
X022078Y006997D01*
X022060Y007005D01*
X022043Y007015D01*
X022027Y007028D01*
X022014Y007044D01*
X022004Y007061D01*
X021996Y007079D01*
X021992Y007099D01*
X021990Y007119D01*
X023070Y004437D02*
X023070Y003823D01*
X024190Y003823D02*
X024190Y004437D01*
D117*
X023457Y006890D02*
X023363Y006890D01*
X023340Y006913D01*
X023340Y006960D01*
X023363Y006983D01*
X023457Y006983D01*
X023480Y006960D01*
X023480Y006913D01*
X023457Y006890D01*
X023480Y007037D02*
X023480Y007107D01*
X023457Y007131D01*
X023410Y007131D01*
X023387Y007107D01*
X023387Y007037D01*
X023340Y007037D02*
X023480Y007037D01*
X023433Y007185D02*
X023480Y007231D01*
X023433Y007278D01*
X023340Y007278D01*
X023340Y007332D02*
X023433Y007425D01*
X023457Y007425D01*
X023480Y007402D01*
X023480Y007355D01*
X023457Y007332D01*
X023410Y007278D02*
X023410Y007185D01*
X023433Y007185D02*
X023340Y007185D01*
X023340Y007332D02*
X023340Y007425D01*
X023363Y007479D02*
X023340Y007503D01*
X023340Y007549D01*
X023363Y007573D01*
X023387Y007573D01*
X023410Y007549D01*
X023410Y007526D01*
X023410Y007549D02*
X023433Y007573D01*
X023457Y007573D01*
X023480Y007549D01*
X023480Y007503D01*
X023457Y007479D01*
X023457Y007627D02*
X023480Y007650D01*
X023480Y007697D01*
X023457Y007720D01*
X023433Y007720D01*
X023410Y007697D01*
X023387Y007720D01*
X023363Y007720D01*
X023340Y007697D01*
X023340Y007650D01*
X023363Y007627D01*
X023410Y007673D02*
X023410Y007697D01*
X023363Y007774D02*
X023340Y007797D01*
X023340Y007844D01*
X023363Y007867D01*
X023387Y007867D01*
X023410Y007844D01*
X023410Y007821D01*
X023410Y007844D02*
X023433Y007867D01*
X023457Y007867D01*
X023480Y007844D01*
X023480Y007797D01*
X023457Y007774D01*
X023480Y007921D02*
X023340Y007921D01*
X023340Y007991D01*
X023363Y008015D01*
X023457Y008015D01*
X023480Y007991D01*
X023480Y007921D01*
X023457Y008069D02*
X023363Y008069D01*
X023340Y008092D01*
X023340Y008139D01*
X023363Y008162D01*
X023410Y008162D01*
X023410Y008115D01*
X023457Y008069D02*
X023480Y008092D01*
X023480Y008139D01*
X023457Y008162D01*
X023480Y008216D02*
X023340Y008216D01*
X023387Y008216D02*
X023480Y008309D01*
X023410Y008239D02*
X023340Y008309D01*
X022061Y007941D02*
X022063Y007968D01*
X022069Y007995D01*
X022078Y008021D01*
X022091Y008045D01*
X022107Y008068D01*
X022126Y008087D01*
X022148Y008104D01*
X022172Y008118D01*
X022197Y008128D01*
X022224Y008135D01*
X022251Y008138D01*
X022279Y008137D01*
X022306Y008132D01*
X022332Y008124D01*
X022356Y008112D01*
X022379Y008096D01*
X022400Y008078D01*
X022417Y008057D01*
X022432Y008033D01*
X022443Y008008D01*
X022451Y007982D01*
X022455Y007955D01*
X022455Y007927D01*
X022451Y007900D01*
X022443Y007874D01*
X022432Y007849D01*
X022417Y007825D01*
X022400Y007804D01*
X022379Y007786D01*
X022357Y007770D01*
X022332Y007758D01*
X022306Y007750D01*
X022279Y007745D01*
X022251Y007744D01*
X022224Y007747D01*
X022197Y007754D01*
X022172Y007764D01*
X022148Y007778D01*
X022126Y007795D01*
X022107Y007814D01*
X022091Y007837D01*
X022078Y007861D01*
X022069Y007887D01*
X022063Y007914D01*
X022061Y007941D01*
X020480Y005309D02*
X020387Y005216D01*
X020410Y005239D02*
X020340Y005309D01*
X020340Y005216D02*
X020480Y005216D01*
X020457Y005162D02*
X020480Y005139D01*
X020480Y005092D01*
X020457Y005069D01*
X020363Y005069D01*
X020340Y005092D01*
X020340Y005139D01*
X020363Y005162D01*
X020410Y005162D01*
X020410Y005115D01*
X020363Y005015D02*
X020340Y004991D01*
X020340Y004921D01*
X020480Y004921D01*
X020480Y004991D01*
X020457Y005015D01*
X020363Y005015D01*
X020363Y004867D02*
X020340Y004844D01*
X020340Y004797D01*
X020363Y004774D01*
X020363Y004720D02*
X020340Y004697D01*
X020340Y004650D01*
X020363Y004627D01*
X020363Y004573D02*
X020340Y004549D01*
X020340Y004503D01*
X020363Y004479D01*
X020340Y004425D02*
X020340Y004332D01*
X020433Y004425D01*
X020457Y004425D01*
X020480Y004402D01*
X020480Y004355D01*
X020457Y004332D01*
X020433Y004278D02*
X020340Y004278D01*
X020410Y004278D02*
X020410Y004185D01*
X020433Y004185D02*
X020480Y004231D01*
X020433Y004278D01*
X020433Y004185D02*
X020340Y004185D01*
X020410Y004131D02*
X020387Y004107D01*
X020387Y004037D01*
X020340Y004037D02*
X020480Y004037D01*
X020480Y004107D01*
X020457Y004131D01*
X020410Y004131D01*
X020363Y003983D02*
X020340Y003960D01*
X020340Y003913D01*
X020363Y003890D01*
X020457Y003890D01*
X020480Y003913D01*
X020480Y003960D01*
X020457Y003983D01*
X020363Y003983D01*
X020457Y004479D02*
X020480Y004503D01*
X020480Y004549D01*
X020457Y004573D01*
X020433Y004573D01*
X020410Y004549D01*
X020387Y004573D01*
X020363Y004573D01*
X020410Y004549D02*
X020410Y004526D01*
X020457Y004627D02*
X020480Y004650D01*
X020480Y004697D01*
X020457Y004720D01*
X020433Y004720D01*
X020410Y004697D01*
X020387Y004720D01*
X020363Y004720D01*
X020410Y004697D02*
X020410Y004673D01*
X020457Y004774D02*
X020480Y004797D01*
X020480Y004844D01*
X020457Y004867D01*
X020433Y004867D01*
X020410Y004844D01*
X020387Y004867D01*
X020363Y004867D01*
X020410Y004844D02*
X020410Y004821D01*
X019061Y004941D02*
X019063Y004968D01*
X019069Y004995D01*
X019078Y005021D01*
X019091Y005045D01*
X019107Y005068D01*
X019126Y005087D01*
X019148Y005104D01*
X019172Y005118D01*
X019197Y005128D01*
X019224Y005135D01*
X019251Y005138D01*
X019279Y005137D01*
X019306Y005132D01*
X019332Y005124D01*
X019356Y005112D01*
X019379Y005096D01*
X019400Y005078D01*
X019417Y005057D01*
X019432Y005033D01*
X019443Y005008D01*
X019451Y004982D01*
X019455Y004955D01*
X019455Y004927D01*
X019451Y004900D01*
X019443Y004874D01*
X019432Y004849D01*
X019417Y004825D01*
X019400Y004804D01*
X019379Y004786D01*
X019357Y004770D01*
X019332Y004758D01*
X019306Y004750D01*
X019279Y004745D01*
X019251Y004744D01*
X019224Y004747D01*
X019197Y004754D01*
X019172Y004764D01*
X019148Y004778D01*
X019126Y004795D01*
X019107Y004814D01*
X019091Y004837D01*
X019078Y004861D01*
X019069Y004887D01*
X019063Y004914D01*
X019061Y004941D01*
X024620Y014140D02*
X024840Y014140D01*
X024620Y014287D01*
X024840Y014287D01*
X024730Y014361D02*
X024730Y014508D01*
X024730Y014582D02*
X024730Y014729D01*
X024730Y014803D02*
X024730Y014876D01*
X024840Y014803D02*
X024620Y014803D01*
X024620Y014950D01*
X024620Y015024D02*
X024840Y015171D01*
X024840Y015245D02*
X024620Y015245D01*
X024620Y015171D02*
X024840Y015024D01*
X024840Y014950D02*
X024840Y014803D01*
X024840Y014729D02*
X024620Y014729D01*
X024620Y014582D02*
X024840Y014582D01*
X024840Y015245D02*
X024840Y015392D01*
X024840Y015466D02*
X024620Y015466D01*
X024620Y015613D01*
X024730Y015539D02*
X024730Y015466D01*
X024840Y015466D02*
X024840Y015613D01*
X024840Y015687D02*
X024840Y015834D01*
X024840Y015760D02*
X024620Y015760D01*
X024730Y015908D02*
X024730Y016055D01*
X024803Y016129D02*
X024840Y016166D01*
X024840Y016239D01*
X024803Y016276D01*
X024767Y016276D01*
X024620Y016129D01*
X024620Y016276D01*
X024620Y016350D02*
X024620Y016460D01*
X024657Y016497D01*
X024803Y016497D01*
X024840Y016460D01*
X024840Y016350D01*
X024620Y016350D01*
X024583Y016571D02*
X024583Y016718D01*
X024657Y016792D02*
X024620Y016829D01*
X024620Y016902D01*
X024657Y016939D01*
X024693Y016939D01*
X024730Y016902D01*
X024730Y016829D01*
X024767Y016792D01*
X024803Y016792D01*
X024840Y016829D01*
X024840Y016902D01*
X024803Y016939D01*
X024803Y017013D02*
X024657Y017013D01*
X024620Y017050D01*
X024620Y017123D01*
X024657Y017160D01*
X024803Y017160D01*
X024840Y017123D01*
X024840Y017050D01*
X024803Y017013D01*
X024840Y017234D02*
X024840Y017381D01*
X024840Y017307D02*
X024620Y017307D01*
X024620Y017455D02*
X024767Y017602D01*
X024803Y017602D01*
X024840Y017565D01*
X024840Y017492D01*
X024803Y017455D01*
X024620Y017455D02*
X024620Y017602D01*
X024657Y017676D02*
X024620Y017713D01*
X024620Y017786D01*
X024657Y017823D01*
X024693Y017823D01*
X024730Y017786D01*
X024730Y017749D01*
X024730Y017786D02*
X024767Y017823D01*
X024803Y017823D01*
X024840Y017786D01*
X024840Y017713D01*
X024803Y017676D01*
X024803Y017897D02*
X024840Y017933D01*
X024840Y018007D01*
X024803Y018044D01*
X024767Y018044D01*
X024620Y017897D01*
X024620Y018044D01*
X024730Y018118D02*
X024730Y018265D01*
X024730Y015318D02*
X024730Y015245D01*
D118*
X024083Y003933D03*
D119*
X024420Y016430D02*
X021840Y016430D01*
X021840Y017830D01*
X024420Y017830D01*
X024420Y016430D01*
M02*
