G75*
%MOIN*%
%OFA0B0*%
%FSLAX24Y24*%
%IPPOS*%
%LPD*%
%AMOC8*
5,1,8,0,0,1.08239X$1,22.5*
%
%ADD10R,0.0394X0.0433*%
%ADD11R,0.0118X0.0472*%
%ADD12R,0.0433X0.0394*%
%ADD13R,0.0768X0.0591*%
%ADD14R,0.0354X0.0276*%
%ADD15R,0.0591X0.0768*%
%ADD16R,0.0236X0.0866*%
%ADD17R,0.0244X0.0480*%
%ADD18R,0.0480X0.0880*%
%ADD19R,0.1417X0.0866*%
D10*
X009545Y012380D03*
X010215Y012380D03*
X009630Y014045D03*
X009630Y014715D03*
X012295Y012380D03*
X012965Y012380D03*
X014795Y012380D03*
X015465Y012380D03*
X017880Y006465D03*
X017880Y005795D03*
X019445Y006280D03*
X020115Y006280D03*
X024130Y007295D03*
X024130Y007965D03*
X020965Y002130D03*
X020295Y002130D03*
D11*
X020013Y003799D03*
X019758Y003799D03*
X019502Y003799D03*
X019246Y003799D03*
X019246Y005462D03*
X019502Y005462D03*
X019758Y005462D03*
X020013Y005462D03*
X022246Y006799D03*
X022502Y006799D03*
X022758Y006799D03*
X023013Y006799D03*
X023013Y008462D03*
X022758Y008462D03*
X022502Y008462D03*
X022246Y008462D03*
D12*
X003130Y003295D03*
X003130Y003965D03*
X003130Y004795D03*
X003130Y005465D03*
X004130Y005465D03*
X004130Y004795D03*
X004130Y003965D03*
X004130Y003295D03*
X008295Y007630D03*
X008965Y007630D03*
X017630Y004465D03*
X017630Y003795D03*
X018880Y002205D03*
X018880Y001535D03*
X022130Y002795D03*
X022130Y003465D03*
X023295Y002630D03*
X023965Y002630D03*
X022130Y004795D03*
X022130Y005465D03*
X021130Y005795D03*
X021130Y006465D03*
X023295Y005630D03*
X023965Y005630D03*
X004130Y015795D03*
X004130Y016465D03*
X004130Y017295D03*
X004130Y017965D03*
X003130Y017965D03*
X003130Y017295D03*
X003130Y016465D03*
X003130Y015795D03*
D13*
X008089Y008630D03*
X009171Y008630D03*
D14*
X010130Y007886D03*
X010130Y007374D03*
D15*
X008630Y013589D03*
X008630Y014671D03*
D16*
X010380Y014106D03*
X010880Y014106D03*
X011380Y014106D03*
X011880Y014106D03*
X012880Y014106D03*
X013380Y014106D03*
X013880Y014106D03*
X014380Y014106D03*
X015380Y014106D03*
X015880Y014106D03*
X016380Y014106D03*
X016880Y014106D03*
X016880Y016154D03*
X016380Y016154D03*
X015880Y016154D03*
X015380Y016154D03*
X014380Y016154D03*
X013880Y016154D03*
X013380Y016154D03*
X012880Y016154D03*
X011880Y016154D03*
X011380Y016154D03*
X010880Y016154D03*
X010380Y016154D03*
D17*
X023256Y004642D03*
X023630Y004642D03*
X024004Y004642D03*
X024004Y003618D03*
X023630Y003618D03*
X023256Y003618D03*
D18*
X023130Y018350D03*
X022220Y018350D03*
X024040Y018350D03*
D19*
X023130Y015910D03*
M02*
