G75*
%MOIN*%
%OFA0B0*%
%FSLAX24Y24*%
%IPPOS*%
%LPD*%
%AMOC8*
5,1,8,0,0,1.08239X$1,22.5*
%
%ADD10C,0.0000*%
%ADD11R,0.0434X0.0473*%
%ADD12R,0.0158X0.0512*%
%ADD13R,0.0473X0.0434*%
%ADD14C,0.0580*%
%ADD15C,0.0640*%
%ADD16R,0.0808X0.0631*%
%ADD17R,0.0394X0.0316*%
%ADD18R,0.0631X0.0808*%
%ADD19R,0.0276X0.0906*%
%ADD20R,0.0284X0.0520*%
%ADD21OC8,0.0640*%
%ADD22R,0.0520X0.0920*%
%ADD23R,0.1457X0.0906*%
D10*
X000630Y000630D02*
X000630Y020126D01*
X025000Y020126D01*
X025000Y000630D01*
X000630Y000630D01*
D11*
X009545Y012380D03*
X010215Y012380D03*
X009630Y014045D03*
X009630Y014715D03*
X012295Y012380D03*
X012965Y012380D03*
X014795Y012380D03*
X015465Y012380D03*
X017880Y006465D03*
X017880Y005795D03*
X019445Y006280D03*
X020115Y006280D03*
X024130Y007295D03*
X024130Y007965D03*
X020965Y002130D03*
X020295Y002130D03*
D12*
X020013Y003799D03*
X019758Y003799D03*
X019502Y003799D03*
X019246Y003799D03*
X019246Y005462D03*
X019502Y005462D03*
X019758Y005462D03*
X020013Y005462D03*
X022246Y006799D03*
X022502Y006799D03*
X022758Y006799D03*
X023013Y006799D03*
X023013Y008462D03*
X022758Y008462D03*
X022502Y008462D03*
X022246Y008462D03*
D13*
X021130Y006465D03*
X021130Y005795D03*
X022130Y005465D03*
X022130Y004795D03*
X023295Y005630D03*
X023965Y005630D03*
X022130Y003465D03*
X022130Y002795D03*
X023295Y002630D03*
X023965Y002630D03*
X018630Y002215D03*
X018630Y001545D03*
X017630Y003795D03*
X017630Y004465D03*
X008965Y007630D03*
X008295Y007630D03*
X004130Y005465D03*
X004130Y004795D03*
X004130Y003965D03*
X004130Y003295D03*
X003130Y003295D03*
X003130Y003965D03*
X003130Y004795D03*
X003130Y005465D03*
X003130Y015795D03*
X003130Y016465D03*
X003130Y017295D03*
X003130Y017965D03*
X004130Y017965D03*
X004130Y017295D03*
X004130Y016465D03*
X004130Y015795D03*
D14*
X002400Y009130D02*
X001860Y009130D01*
X001860Y008130D02*
X002400Y008130D01*
X013130Y002150D02*
X013130Y001610D01*
X014130Y001610D02*
X014130Y002150D01*
X015130Y002150D02*
X015130Y001610D01*
X016130Y001610D02*
X016130Y002150D01*
D15*
X005430Y008630D02*
X004830Y008630D01*
X004830Y009630D02*
X005430Y009630D01*
D16*
X008089Y008630D03*
X009171Y008630D03*
D17*
X010130Y007886D03*
X010130Y007374D03*
D18*
X008630Y013589D03*
X008630Y014671D03*
D19*
X010380Y014106D03*
X010880Y014106D03*
X011380Y014106D03*
X011880Y014106D03*
X012880Y014106D03*
X013380Y014106D03*
X013880Y014106D03*
X014380Y014106D03*
X015380Y014106D03*
X015880Y014106D03*
X016380Y014106D03*
X016880Y014106D03*
X016880Y016154D03*
X016380Y016154D03*
X015880Y016154D03*
X015380Y016154D03*
X014380Y016154D03*
X013880Y016154D03*
X013380Y016154D03*
X012880Y016154D03*
X011880Y016154D03*
X011380Y016154D03*
X010880Y016154D03*
X010380Y016154D03*
D20*
X023256Y004642D03*
X023630Y004642D03*
X024004Y004642D03*
X024004Y003618D03*
X023630Y003618D03*
X023256Y003618D03*
D21*
X024130Y009130D03*
X016630Y011130D03*
X016630Y017630D03*
X016630Y018630D03*
X015630Y018630D03*
X015630Y017630D03*
X014630Y017630D03*
X014630Y018630D03*
X013630Y018630D03*
X012630Y018630D03*
X012630Y017630D03*
X013630Y017630D03*
X011630Y017630D03*
X011630Y018630D03*
X010630Y018630D03*
X010630Y017630D03*
X009630Y017630D03*
X009630Y018630D03*
X008630Y018630D03*
X008630Y017630D03*
X017630Y017630D03*
X017630Y018630D03*
X018630Y018630D03*
X018630Y017630D03*
X019630Y017630D03*
X019630Y018630D03*
D22*
X022220Y018350D03*
X023130Y018350D03*
X024040Y018350D03*
D23*
X023130Y015910D03*
M02*
