  0
SECTION
  2
HEADER
  9
$ACADVER
  1
AC1014
  9
$HANDSEED
  5
FFFF
  9
$MEASUREMENT
 70
     1
  0
ENDSEC
  0
SECTION
  2
TABLES
  0
TABLE
  2
VPORT
  5
8
330
0
100
AcDbSymbolTable
 70
     4
  0
VPORT
  5
2E
330
8
100
AcDbSymbolTableRecord
100
AcDbViewportTableRecord
  2
*ACTIVE
 70
     0
 10
0.0
 20
0.0
 11
1.0
 21
1.0
 12
210.0
 22
148.5
 13
0.0
 23
0.0
 14
10.0
 24
10.0
 15
10.0
 25
10.0
 16
0.0
 26
0.0
 36
1.0
 17
0.0
 27
0.0
 37
0.0
 40
341.0
 41
1.24
 42
50.0
 43
0.0
 44
0.0
 50
0.0
 51
0.0
 71
     0
 72
   100
 73
     1
 74
     3
 75
     0
 76
     0
 77
     0
 78
     0
  0
ENDTAB
  0
TABLE
  2
LTYPE
  5
5
330
0
100
AcDbSymbolTable
 70
     1
  0
LTYPE
  5
14
330
5
100
AcDbSymbolTableRecord
100
AcDbLinetypeTableRecord
  2
BYBLOCK
 70
     0
  3

 72
    65
 73
     0
 40
0.0
  0
LTYPE
  5
15
330
5
100
AcDbSymbolTableRecord
100
AcDbLinetypeTableRecord
  2
BYLAYER
 70
     0
  3

 72
    65
 73
     0
 40
0.0
  0
LTYPE
  5
16
330
5
100
AcDbSymbolTableRecord
100
AcDbLinetypeTableRecord
  2
CONTINUOUS
 70
     0
  3
Solid line
 72
    65
 73
     0
 40
0.0
  0
ENDTAB
  0
TABLE
  2
LAYER
  5
2
100
AcDbSymbolTable
 70
2
  0
LAYER
  5
50
100
AcDbSymbolTableRecord
100
AcDbLayerTableRecord
  2
0
 70
0
  6
CONTINUOUS
  0
LAYER
  5
51
100
AcDbSymbolTableRecord
100
AcDbLayerTableRecord
  2
ink_ext_XXXXXX
 70
0
  6
CONTINUOUS
  0
ENDTAB
  0
TABLE
  2
STYLE
  5
3
330
0
100
AcDbSymbolTable
 70
     1
  0
STYLE
  5
11
330
3
100
AcDbSymbolTableRecord
100
AcDbTextStyleTableRecord
  2
STANDARD
 70
     0
 40
0.0
 41
1.0
 50
0.0
 71
     0
 42
2.5
  3
txt
  4

  0
ENDTAB
  0
TABLE
  2
VIEW
  5
6
330
0
100
AcDbSymbolTable
 70
     0
  0
ENDTAB
  0
TABLE
  2
UCS
  5
7
330
0
100
AcDbSymbolTable
 70
     0
  0
ENDTAB
  0
TABLE
  2
APPID
  5
9
330
0
100
AcDbSymbolTable
 70
     2
  0
APPID
  5
12
330
9
100
AcDbSymbolTableRecord
100
AcDbRegAppTableRecord
  2
ACAD
 70
     0
  0
ENDTAB
  0
TABLE
  2
DIMSTYLE
  5
A
330
0
100
AcDbSymbolTable
 70
     1
  0
DIMSTYLE
105
27
330
A
100
AcDbSymbolTableRecord
100
AcDbDimStyleTableRecord
  2
ISO-25
 70
     0
  3

  4

  5

  6

  7

 40
1.0
 41
2.5
 42
0.625
 43
3.75
 44
1.25
 45
0.0
 46
0.0
 47
0.0
 48
0.0
140
2.5
141
2.5
142
0.0
143
0.03937007874016
144
1.0
145
0.0
146
1.0
147
0.625
 71
     0
 72
     0
 73
     0
 74
     0
 75
     0
 76
     0
 77
     1
 78
     8
170
     0
171
     3
172
     1
173
     0
174
     0
175
     0
176
     0
177
     0
178
     0
270
     2
271
     2
272
     2
273
     2
274
     3
340
11
275
     0
280
     0
281
     0
282
     0
283
     0
284
     8
285
     0
286
     0
287
     3
288
     0
  0
ENDTAB
  0
TABLE
  2
BLOCK_RECORD
  5
1
330
0
100
AcDbSymbolTable
 70
     1
  0
BLOCK_RECORD
  5
1F
330
1
100
AcDbSymbolTableRecord
100
AcDbBlockTableRecord
  2
*MODEL_SPACE
  0
BLOCK_RECORD
  5
1B
330
1
100
AcDbSymbolTableRecord
100
AcDbBlockTableRecord
  2
*PAPER_SPACE
  0
ENDTAB
  0
ENDSEC
  0
SECTION
  2
BLOCKS
  0
BLOCK
  5
20
330
1F
100
AcDbEntity
  8
0
100
AcDbBlockBegin
  2
*MODEL_SPACE
 70
     0
 10
0.0
 20
0.0
 30
0.0
  3
*MODEL_SPACE
  1

  0
ENDBLK
  5
21
330
1F
100
AcDbEntity
  8
0
100
AcDbBlockEnd
  0
BLOCK
  5
1C
330
1B
100
AcDbEntity
 67
     1
  8
0
100
AcDbBlockBegin
  2
*PAPER_SPACE
  1

  0
ENDBLK
  5
1D
330
1B
100
AcDbEntity
 67
     1
  8
0
100
AcDbBlockEnd
  0
ENDSEC
  0
SECTION
  2
ENTITIES
  0
LWPOLYLINE
  5
100
100
AcDbEntity
  8
ink_ext_XXXXXX
 62
7
100
AcDbPolyline
 90
4
 70
0
 10
31.850048
 20
19.547487
 30
0.0
 10
31.072279
 20
20.325221
 30
0.0
 10
30.365065
 20
19.618149
 30
0.0
 10
31.142975
 20
18.840415
 30
0.0
  0
LWPOLYLINE
  5
101
100
AcDbEntity
  8
ink_ext_XXXXXX
 62
7
100
AcDbPolyline
 90
4
 70
0
 10
33.052103
 20
18.345397
 30
0.0
 10
32.274192
 20
19.123307
 30
0.0
 10
31.567120
 20
18.416094
 30
0.0
 10
32.344889
 20
17.638324
 30
0.0
  0
LWPOLYLINE
  5
102
100
AcDbEntity
  8
ink_ext_XXXXXX
 62
7
100
AcDbPolyline
 90
4
 70
0
 10
36.820122
 20
17.541452
 30
0.0
 10
35.441467
 20
18.920178
 30
0.0
 10
34.380664
 20
17.859657
 30
0.0
 10
35.759672
 20
16.480790
 30
0.0
  0
LWPOLYLINE
  5
103
100
AcDbEntity
  8
ink_ext_XXXXXX
 62
7
100
AcDbPolyline
 90
4
 70
0
 10
34.875682
 20
19.485998
 30
0.0
 10
33.496814
 20
20.864865
 30
0.0
 10
32.436117
 20
19.804204
 30
0.0
 10
33.814985
 20
18.425336
 30
0.0
  0
LWPOLYLINE
  5
104
100
AcDbEntity
  8
ink_ext_XXXXXX
 62
7
100
AcDbPolyline
 90
6
 70
1
 10
13.914049
 20
11.533364
 30
0.0
 10
16.064064
 20
11.533364
 30
0.0
 10
16.064064
 20
13.133405
 30
0.0
 10
13.914049
 20
13.133405
 30
0.0
 10
13.914049
 20
11.533364
 30
0.0
 10
13.914049
 20
11.533364
 30
0.0
  0
LWPOLYLINE
  5
105
100
AcDbEntity
  8
ink_ext_XXXXXX
 62
7
100
AcDbPolyline
 90
5
 70
0
 10
13.850514
 20
11.282010
 30
0.0
 10
13.850514
 20
10.459861
 30
0.0
 10
14.127656
 20
10.459861
 30
0.0
 10
14.127656
 20
11.282010
 30
0.0
 10
13.850514
 20
11.282010
 30
0.0
  0
LWPOLYLINE
  5
106
100
AcDbEntity
  8
ink_ext_XXXXXX
 62
7
100
AcDbPolyline
 90
6
 70
1
 10
13.825185
 20
10.434355
 30
0.0
 10
14.153158
 20
10.434355
 30
0.0
 10
14.153158
 20
11.307343
 30
0.0
 10
13.825185
 20
11.307343
 30
0.0
 10
13.825185
 20
10.434355
 30
0.0
 10
13.825185
 20
10.434355
 30
0.0
  0
LWPOLYLINE
  5
107
100
AcDbEntity
  8
ink_ext_XXXXXX
 62
7
100
AcDbPolyline
 90
5
 70
0
 10
14.350471
 20
11.282010
 30
0.0
 10
14.350471
 20
10.459861
 30
0.0
 10
14.627754
 20
10.459861
 30
0.0
 10
14.627754
 20
11.282010
 30
0.0
 10
14.350471
 20
11.282010
 30
0.0
  0
LWPOLYLINE
  5
108
100
AcDbEntity
  8
ink_ext_XXXXXX
 62
7
100
AcDbPolyline
 90
6
 70
1
 10
14.325106
 20
10.434355
 30
0.0
 10
14.653079
 20
10.434355
 30
0.0
 10
14.653079
 20
11.307343
 30
0.0
 10
14.325106
 20
11.307343
 30
0.0
 10
14.325106
 20
10.434355
 30
0.0
 10
14.325106
 20
10.434355
 30
0.0
  0
LWPOLYLINE
  5
109
100
AcDbEntity
  8
ink_ext_XXXXXX
 62
7
100
AcDbPolyline
 90
5
 70
0
 10
14.850569
 20
11.282010
 30
0.0
 10
14.850569
 20
10.459861
 30
0.0
 10
15.127676
 20
10.459861
 30
0.0
 10
15.127676
 20
11.282010
 30
0.0
 10
14.850569
 20
11.282010
 30
0.0
  0
LWPOLYLINE
  5
10a
100
AcDbEntity
  8
ink_ext_XXXXXX
 62
7
100
AcDbPolyline
 90
6
 70
1
 10
14.825063
 20
10.434355
 30
0.0
 10
15.153036
 20
10.434355
 30
0.0
 10
15.153036
 20
11.307343
 30
0.0
 10
14.825063
 20
11.307343
 30
0.0
 10
14.825063
 20
10.434355
 30
0.0
 10
14.825063
 20
10.434355
 30
0.0
  0
LWPOLYLINE
  5
10b
100
AcDbEntity
  8
ink_ext_XXXXXX
 62
7
100
AcDbPolyline
 90
5
 70
0
 10
15.350525
 20
11.282010
 30
0.0
 10
15.350525
 20
10.459861
 30
0.0
 10
15.627632
 20
10.459861
 30
0.0
 10
15.627632
 20
11.282010
 30
0.0
 10
15.350525
 20
11.282010
 30
0.0
  0
LWPOLYLINE
  5
10c
100
AcDbEntity
  8
ink_ext_XXXXXX
 62
7
100
AcDbPolyline
 90
6
 70
1
 10
15.325161
 20
10.434355
 30
0.0
 10
15.653134
 20
10.434355
 30
0.0
 10
15.653134
 20
11.307343
 30
0.0
 10
15.325161
 20
11.307343
 30
0.0
 10
15.325161
 20
10.434355
 30
0.0
 10
15.325161
 20
10.434355
 30
0.0
  0
LWPOLYLINE
  5
10d
100
AcDbEntity
  8
ink_ext_XXXXXX
 62
7
100
AcDbPolyline
 90
5
 70
0
 10
15.850482
 20
11.282010
 30
0.0
 10
15.850482
 20
10.459861
 30
0.0
 10
16.127730
 20
10.459861
 30
0.0
 10
16.127730
 20
11.282010
 30
0.0
 10
15.850482
 20
11.282010
 30
0.0
  0
LWPOLYLINE
  5
10e
100
AcDbEntity
  8
ink_ext_XXXXXX
 62
7
100
AcDbPolyline
 90
6
 70
1
 10
15.825117
 20
10.434355
 30
0.0
 10
16.153090
 20
10.434355
 30
0.0
 10
16.153090
 20
11.307343
 30
0.0
 10
15.825117
 20
11.307343
 30
0.0
 10
15.825117
 20
10.434355
 30
0.0
 10
15.825117
 20
10.434355
 30
0.0
  0
LWPOLYLINE
  5
10f
100
AcDbEntity
  8
ink_ext_XXXXXX
 62
7
100
AcDbPolyline
 90
5
 70
0
 10
15.850482
 20
14.207031
 30
0.0
 10
15.850482
 20
13.384742
 30
0.0
 10
16.127730
 20
13.384742
 30
0.0
 10
16.127730
 20
14.207031
 30
0.0
 10
15.850482
 20
14.207031
 30
0.0
  0
LWPOLYLINE
  5
110
100
AcDbEntity
  8
ink_ext_XXXXXX
 62
7
100
AcDbPolyline
 90
6
 70
1
 10
15.825117
 20
13.359377
 30
0.0
 10
16.153090
 20
13.359377
 30
0.0
 10
16.153090
 20
14.232364
 30
0.0
 10
15.825117
 20
14.232364
 30
0.0
 10
15.825117
 20
13.359377
 30
0.0
 10
15.825117
 20
13.359377
 30
0.0
  0
LWPOLYLINE
  5
111
100
AcDbEntity
  8
ink_ext_XXXXXX
 62
7
100
AcDbPolyline
 90
5
 70
0
 10
15.350525
 20
14.207031
 30
0.0
 10
15.350525
 20
13.384742
 30
0.0
 10
15.627632
 20
13.384742
 30
0.0
 10
15.627632
 20
14.207031
 30
0.0
 10
15.350525
 20
14.207031
 30
0.0
  0
LWPOLYLINE
  5
112
100
AcDbEntity
  8
ink_ext_XXXXXX
 62
7
100
AcDbPolyline
 90
6
 70
1
 10
15.325161
 20
13.359377
 30
0.0
 10
15.653134
 20
13.359377
 30
0.0
 10
15.653134
 20
14.232364
 30
0.0
 10
15.325161
 20
14.232364
 30
0.0
 10
15.325161
 20
13.359377
 30
0.0
 10
15.325161
 20
13.359377
 30
0.0
  0
LWPOLYLINE
  5
113
100
AcDbEntity
  8
ink_ext_XXXXXX
 62
7
100
AcDbPolyline
 90
5
 70
0
 10
14.850569
 20
14.207031
 30
0.0
 10
14.850569
 20
13.384742
 30
0.0
 10
15.127676
 20
13.384742
 30
0.0
 10
15.127676
 20
14.207031
 30
0.0
 10
14.850569
 20
14.207031
 30
0.0
  0
LWPOLYLINE
  5
114
100
AcDbEntity
  8
ink_ext_XXXXXX
 62
7
100
AcDbPolyline
 90
6
 70
1
 10
14.825063
 20
13.359377
 30
0.0
 10
15.153036
 20
13.359377
 30
0.0
 10
15.153036
 20
14.232364
 30
0.0
 10
14.825063
 20
14.232364
 30
0.0
 10
14.825063
 20
13.359377
 30
0.0
 10
14.825063
 20
13.359377
 30
0.0
  0
LWPOLYLINE
  5
115
100
AcDbEntity
  8
ink_ext_XXXXXX
 62
7
100
AcDbPolyline
 90
5
 70
0
 10
14.350471
 20
14.207031
 30
0.0
 10
14.350471
 20
13.384742
 30
0.0
 10
14.627754
 20
13.384742
 30
0.0
 10
14.627754
 20
14.207031
 30
0.0
 10
14.350471
 20
14.207031
 30
0.0
  0
LWPOLYLINE
  5
116
100
AcDbEntity
  8
ink_ext_XXXXXX
 62
7
100
AcDbPolyline
 90
6
 70
1
 10
14.325106
 20
13.359377
 30
0.0
 10
14.653079
 20
13.359377
 30
0.0
 10
14.653079
 20
14.232364
 30
0.0
 10
14.325106
 20
14.232364
 30
0.0
 10
14.325106
 20
13.359377
 30
0.0
 10
14.325106
 20
13.359377
 30
0.0
  0
LWPOLYLINE
  5
117
100
AcDbEntity
  8
ink_ext_XXXXXX
 62
7
100
AcDbPolyline
 90
5
 70
0
 10
13.850514
 20
14.207031
 30
0.0
 10
13.850514
 20
13.384742
 30
0.0
 10
14.127656
 20
13.384742
 30
0.0
 10
14.127656
 20
14.207031
 30
0.0
 10
13.850514
 20
14.207031
 30
0.0
  0
LWPOLYLINE
  5
118
100
AcDbEntity
  8
ink_ext_XXXXXX
 62
7
100
AcDbPolyline
 90
6
 70
1
 10
13.825185
 20
13.359377
 30
0.0
 10
14.153158
 20
13.359377
 30
0.0
 10
14.153158
 20
14.232364
 30
0.0
 10
13.825185
 20
14.232364
 30
0.0
 10
13.825185
 20
13.359377
 30
0.0
 10
13.825185
 20
13.359377
 30
0.0
  0
LWPOLYLINE
  5
119
100
AcDbEntity
  8
ink_ext_XXXXXX
 62
7
100
AcDbPolyline
 90
6
 70
1
 10
10.785369
 20
6.212064
 30
0.0
 10
11.750548
 20
6.212064
 30
0.0
 10
11.750548
 20
9.564832
 30
0.0
 10
10.785369
 20
9.564832
 30
0.0
 10
10.785369
 20
6.212064
 30
0.0
 10
10.785369
 20
6.212064
 30
0.0
  0
LWPOLYLINE
  5
11a
100
AcDbEntity
  8
ink_ext_XXXXXX
 62
7
100
AcDbPolyline
 90
6
 70
1
 10
13.147604
 20
6.212064
 30
0.0
 10
14.112783
 20
6.212064
 30
0.0
 10
14.112783
 20
9.564832
 30
0.0
 10
13.147604
 20
9.564832
 30
0.0
 10
13.147604
 20
6.212064
 30
0.0
 10
13.147604
 20
6.212064
 30
0.0
  0
LWPOLYLINE
  5
11b
100
AcDbEntity
  8
ink_ext_XXXXXX
 62
7
100
AcDbPolyline
 90
6
 70
1
 10
11.949112
 20
12.633431
 30
0.0
 10
12.949156
 20
12.633431
 30
0.0
 10
12.949156
 20
13.733381
 30
0.0
 10
11.949112
 20
13.733381
 30
0.0
 10
11.949112
 20
12.633431
 30
0.0
 10
11.949112
 20
12.633431
 30
0.0
  0
LWPOLYLINE
  5
11c
100
AcDbEntity
  8
ink_ext_XXXXXX
 62
7
100
AcDbPolyline
 90
6
 70
1
 10
11.949112
 20
10.933359
 30
0.0
 10
12.949156
 20
10.933359
 30
0.0
 10
12.949156
 20
12.033448
 30
0.0
 10
11.949112
 20
12.033448
 30
0.0
 10
11.949112
 20
10.933359
 30
0.0
 10
11.949112
 20
10.933359
 30
0.0
  0
LWPOLYLINE
  5
11d
100
AcDbEntity
  8
ink_ext_XXXXXX
 62
7
100
AcDbPolyline
 90
6
 70
1
 10
16.764106
 20
13.420866
 30
0.0
 10
17.864056
 20
13.420866
 30
0.0
 10
17.864056
 20
14.420910
 30
0.0
 10
16.764106
 20
14.420910
 30
0.0
 10
16.764106
 20
13.420866
 30
0.0
 10
16.764106
 20
13.420866
 30
0.0
  0
LWPOLYLINE
  5
11e
100
AcDbEntity
  8
ink_ext_XXXXXX
 62
7
100
AcDbPolyline
 90
6
 70
1
 10
18.464071
 20
13.420866
 30
0.0
 10
19.564159
 20
13.420866
 30
0.0
 10
19.564159
 20
14.420910
 30
0.0
 10
18.464071
 20
14.420910
 30
0.0
 10
18.464071
 20
13.420866
 30
0.0
 10
18.464071
 20
13.420866
 30
0.0
  0
LWPOLYLINE
  5
11f
100
AcDbEntity
  8
ink_ext_XXXXXX
 62
7
100
AcDbPolyline
 90
6
 70
1
 10
17.486348
 20
9.663359
 30
0.0
 10
18.486254
 20
9.663359
 30
0.0
 10
18.486254
 20
10.763448
 30
0.0
 10
17.486348
 20
10.763448
 30
0.0
 10
17.486348
 20
9.663359
 30
0.0
 10
17.486348
 20
9.663359
 30
0.0
  0
LWPOLYLINE
  5
120
100
AcDbEntity
  8
ink_ext_XXXXXX
 62
7
100
AcDbPolyline
 90
6
 70
1
 10
17.486348
 20
11.363431
 30
0.0
 10
18.486254
 20
11.363431
 30
0.0
 10
18.486254
 20
12.463381
 30
0.0
 10
17.486348
 20
12.463381
 30
0.0
 10
17.486348
 20
11.363431
 30
0.0
 10
17.486348
 20
11.363431
 30
0.0
  0
LWPOLYLINE
  5
121
100
AcDbEntity
  8
ink_ext_XXXXXX
 62
7
100
AcDbPolyline
 90
6
 70
1
 10
19.238913
 20
9.663359
 30
0.0
 10
20.238819
 20
9.663359
 30
0.0
 10
20.238819
 20
10.763448
 30
0.0
 10
19.238913
 20
10.763448
 30
0.0
 10
19.238913
 20
9.663359
 30
0.0
 10
19.238913
 20
9.663359
 30
0.0
  0
LWPOLYLINE
  5
122
100
AcDbEntity
  8
ink_ext_XXXXXX
 62
7
100
AcDbPolyline
 90
6
 70
1
 10
19.238913
 20
11.363431
 30
0.0
 10
20.238819
 20
11.363431
 30
0.0
 10
20.238819
 20
12.463381
 30
0.0
 10
19.238913
 20
12.463381
 30
0.0
 10
19.238913
 20
11.363431
 30
0.0
 10
19.238913
 20
11.363431
 30
0.0
  0
LWPOLYLINE
  5
123
100
AcDbEntity
  8
ink_ext_XXXXXX
 62
7
100
AcDbPolyline
 90
6
 70
1
 10
19.496193
 20
5.635625
 30
0.0
 10
20.296145
 20
5.635625
 30
0.0
 10
20.296145
 20
6.435577
 30
0.0
 10
19.496193
 20
6.435577
 30
0.0
 10
19.496193
 20
5.635625
 30
0.0
 10
19.496193
 20
5.635625
 30
0.0
  0
LWPOLYLINE
  5
124
100
AcDbEntity
  8
ink_ext_XXXXXX
 62
7
100
AcDbPolyline
 90
6
 70
1
 10
19.496193
 20
7.135636
 30
0.0
 10
20.296145
 20
7.135636
 30
0.0
 10
20.296145
 20
7.935588
 30
0.0
 10
19.496193
 20
7.935588
 30
0.0
 10
19.496193
 20
7.135636
 30
0.0
 10
19.496193
 20
7.135636
 30
0.0
  0
LWPOLYLINE
  5
125
100
AcDbEntity
  8
ink_ext_XXXXXX
 62
7
100
AcDbPolyline
 90
6
 70
1
 10
20.666992
 20
7.237166
 30
0.0
 10
21.766943
 20
7.237166
 30
0.0
 10
21.766943
 20
8.237209
 30
0.0
 10
20.666992
 20
8.237209
 30
0.0
 10
20.666992
 20
7.237166
 30
0.0
 10
20.666992
 20
7.237166
 30
0.0
  0
LWPOLYLINE
  5
126
100
AcDbEntity
  8
ink_ext_XXXXXX
 62
7
100
AcDbPolyline
 90
6
 70
1
 10
20.666992
 20
5.537235
 30
0.0
 10
21.766943
 20
5.537235
 30
0.0
 10
21.766943
 20
6.537142
 30
0.0
 10
20.666992
 20
6.537142
 30
0.0
 10
20.666992
 20
5.537235
 30
0.0
 10
20.666992
 20
5.537235
 30
0.0
  0
LWPOLYLINE
  5
127
100
AcDbEntity
  8
ink_ext_XXXXXX
 62
7
100
AcDbPolyline
 90
6
 70
1
 10
76.788081
 20
29.646986
 30
0.0
 10
77.448438
 20
29.646986
 30
0.0
 10
77.448438
 20
29.951808
 30
0.0
 10
76.788081
 20
29.951808
 30
0.0
 10
76.788081
 20
29.646986
 30
0.0
 10
76.788081
 20
29.646986
 30
0.0
  0
LWPOLYLINE
  5
128
100
AcDbEntity
  8
ink_ext_XXXXXX
 62
7
100
AcDbPolyline
 90
6
 70
1
 10
76.788081
 20
30.129551
 30
0.0
 10
77.448438
 20
30.129551
 30
0.0
 10
77.448438
 20
30.434372
 30
0.0
 10
76.788081
 20
30.434372
 30
0.0
 10
76.788081
 20
30.129551
 30
0.0
 10
76.788081
 20
30.129551
 30
0.0
  0
LWPOLYLINE
  5
129
100
AcDbEntity
  8
ink_ext_XXXXXX
 62
7
100
AcDbPolyline
 90
6
 70
1
 10
76.788081
 20
30.637656
 30
0.0
 10
77.448438
 20
30.637656
 30
0.0
 10
77.448438
 20
30.942341
 30
0.0
 10
76.788081
 20
30.942341
 30
0.0
 10
76.788081
 20
30.637656
 30
0.0
 10
76.788081
 20
30.637656
 30
0.0
  0
LWPOLYLINE
  5
12a
100
AcDbEntity
  8
ink_ext_XXXXXX
 62
7
100
AcDbPolyline
 90
6
 70
1
 10
76.788081
 20
31.145586
 30
0.0
 10
77.448438
 20
31.145586
 30
0.0
 10
77.448438
 20
31.450408
 30
0.0
 10
76.788081
 20
31.450408
 30
0.0
 10
76.788081
 20
31.145586
 30
0.0
 10
76.788081
 20
31.145586
 30
0.0
  0
LWPOLYLINE
  5
12b
100
AcDbEntity
  8
ink_ext_XXXXXX
 62
7
100
AcDbPolyline
 90
6
 70
1
 10
76.788081
 20
31.653551
 30
0.0
 10
77.448438
 20
31.653551
 30
0.0
 10
77.448438
 20
31.958372
 30
0.0
 10
76.788081
 20
31.958372
 30
0.0
 10
76.788081
 20
31.653551
 30
0.0
 10
76.788081
 20
31.653551
 30
0.0
  0
LWPOLYLINE
  5
12c
100
AcDbEntity
  8
ink_ext_XXXXXX
 62
7
100
AcDbPolyline
 90
6
 70
1
 10
76.788081
 20
32.136256
 30
0.0
 10
77.448438
 20
32.136256
 30
0.0
 10
77.448438
 20
32.440941
 30
0.0
 10
76.788081
 20
32.440941
 30
0.0
 10
76.788081
 20
32.136256
 30
0.0
 10
76.788081
 20
32.136256
 30
0.0
  0
LWPOLYLINE
  5
12d
100
AcDbEntity
  8
ink_ext_XXXXXX
 62
7
100
AcDbPolyline
 90
6
 70
1
 10
74.756081
 20
32.136256
 30
0.0
 10
75.416576
 20
32.136256
 30
0.0
 10
75.416576
 20
32.440941
 30
0.0
 10
74.756081
 20
32.440941
 30
0.0
 10
74.756081
 20
32.136256
 30
0.0
 10
74.756081
 20
32.136256
 30
0.0
  0
LWPOLYLINE
  5
12e
100
AcDbEntity
  8
ink_ext_XXXXXX
 62
7
100
AcDbPolyline
 90
6
 70
1
 10
74.756081
 20
31.653551
 30
0.0
 10
75.416576
 20
31.653551
 30
0.0
 10
75.416576
 20
31.958372
 30
0.0
 10
74.756081
 20
31.958372
 30
0.0
 10
74.756081
 20
31.653551
 30
0.0
 10
74.756081
 20
31.653551
 30
0.0
  0
LWPOLYLINE
  5
12f
100
AcDbEntity
  8
ink_ext_XXXXXX
 62
7
100
AcDbPolyline
 90
6
 70
1
 10
74.756081
 20
31.145586
 30
0.0
 10
75.416576
 20
31.145586
 30
0.0
 10
75.416576
 20
31.450408
 30
0.0
 10
74.756081
 20
31.450408
 30
0.0
 10
74.756081
 20
31.145586
 30
0.0
 10
74.756081
 20
31.145586
 30
0.0
  0
LWPOLYLINE
  5
130
100
AcDbEntity
  8
ink_ext_XXXXXX
 62
7
100
AcDbPolyline
 90
6
 70
1
 10
74.756081
 20
30.637656
 30
0.0
 10
75.416576
 20
30.637656
 30
0.0
 10
75.416576
 20
30.942341
 30
0.0
 10
74.756081
 20
30.942341
 30
0.0
 10
74.756081
 20
30.637656
 30
0.0
 10
74.756081
 20
30.637656
 30
0.0
  0
LWPOLYLINE
  5
131
100
AcDbEntity
  8
ink_ext_XXXXXX
 62
7
100
AcDbPolyline
 90
6
 70
1
 10
74.756081
 20
30.129551
 30
0.0
 10
75.416576
 20
30.129551
 30
0.0
 10
75.416576
 20
30.434372
 30
0.0
 10
74.756081
 20
30.434372
 30
0.0
 10
74.756081
 20
30.129551
 30
0.0
 10
74.756081
 20
30.129551
 30
0.0
  0
LWPOLYLINE
  5
132
100
AcDbEntity
  8
ink_ext_XXXXXX
 62
7
100
AcDbPolyline
 90
6
 70
1
 10
74.756081
 20
29.646986
 30
0.0
 10
75.416576
 20
29.646986
 30
0.0
 10
75.416576
 20
29.951808
 30
0.0
 10
74.756081
 20
29.951808
 30
0.0
 10
74.756081
 20
29.646986
 30
0.0
 10
74.756081
 20
29.646986
 30
0.0
  0
LWPOLYLINE
  5
133
100
AcDbEntity
  8
ink_ext_XXXXXX
 62
7
100
AcDbPolyline
 90
6
 70
1
 10
75.606981
 20
29.494551
 30
0.0
 10
76.597651
 20
29.494551
 30
0.0
 10
76.597651
 20
32.593343
 30
0.0
 10
75.606981
 20
32.593343
 30
0.0
 10
75.606981
 20
29.494551
 30
0.0
 10
75.606981
 20
29.494551
 30
0.0
  0
LWPOLYLINE
  5
134
100
AcDbEntity
  8
ink_ext_XXXXXX
 62
7
100
AcDbPolyline
 90
6
 70
1
 10
76.788081
 20
39.832492
 30
0.0
 10
77.448438
 20
39.832492
 30
0.0
 10
77.448438
 20
40.137175
 30
0.0
 10
76.788081
 20
40.137175
 30
0.0
 10
76.788081
 20
39.832492
 30
0.0
 10
76.788081
 20
39.832492
 30
0.0
  0
LWPOLYLINE
  5
135
100
AcDbEntity
  8
ink_ext_XXXXXX
 62
7
100
AcDbPolyline
 90
6
 70
1
 10
76.788081
 20
40.315092
 30
0.0
 10
77.448438
 20
40.315092
 30
0.0
 10
77.448438
 20
40.619775
 30
0.0
 10
76.788081
 20
40.619775
 30
0.0
 10
76.788081
 20
40.315092
 30
0.0
 10
76.788081
 20
40.315092
 30
0.0
  0
LWPOLYLINE
  5
136
100
AcDbEntity
  8
ink_ext_XXXXXX
 62
7
100
AcDbPolyline
 90
6
 70
1
 10
76.788081
 20
40.823092
 30
0.0
 10
77.448438
 20
40.823092
 30
0.0
 10
77.448438
 20
41.127913
 30
0.0
 10
76.788081
 20
41.127913
 30
0.0
 10
76.788081
 20
40.823092
 30
0.0
 10
76.788081
 20
40.823092
 30
0.0
  0
LWPOLYLINE
  5
137
100
AcDbEntity
  8
ink_ext_XXXXXX
 62
7
100
AcDbPolyline
 90
6
 70
1
 10
76.788081
 20
41.331092
 30
0.0
 10
77.448438
 20
41.331092
 30
0.0
 10
77.448438
 20
41.635913
 30
0.0
 10
76.788081
 20
41.635913
 30
0.0
 10
76.788081
 20
41.331092
 30
0.0
 10
76.788081
 20
41.331092
 30
0.0
  0
LWPOLYLINE
  5
138
100
AcDbEntity
  8
ink_ext_XXXXXX
 62
7
100
AcDbPolyline
 90
6
 70
1
 10
76.788081
 20
41.839092
 30
0.0
 10
77.448438
 20
41.839092
 30
0.0
 10
77.448438
 20
42.143913
 30
0.0
 10
76.788081
 20
42.143913
 30
0.0
 10
76.788081
 20
41.839092
 30
0.0
 10
76.788081
 20
41.839092
 30
0.0
  0
LWPOLYLINE
  5
139
100
AcDbEntity
  8
ink_ext_XXXXXX
 62
7
100
AcDbPolyline
 90
6
 70
1
 10
76.788081
 20
42.321692
 30
0.0
 10
77.448438
 20
42.321692
 30
0.0
 10
77.448438
 20
42.626513
 30
0.0
 10
76.788081
 20
42.626513
 30
0.0
 10
76.788081
 20
42.321692
 30
0.0
 10
76.788081
 20
42.321692
 30
0.0
  0
LWPOLYLINE
  5
13a
100
AcDbEntity
  8
ink_ext_XXXXXX
 62
7
100
AcDbPolyline
 90
6
 70
1
 10
74.756081
 20
42.321692
 30
0.0
 10
75.416576
 20
42.321692
 30
0.0
 10
75.416576
 20
42.626513
 30
0.0
 10
74.756081
 20
42.626513
 30
0.0
 10
74.756081
 20
42.321692
 30
0.0
 10
74.756081
 20
42.321692
 30
0.0
  0
LWPOLYLINE
  5
13b
100
AcDbEntity
  8
ink_ext_XXXXXX
 62
7
100
AcDbPolyline
 90
6
 70
1
 10
74.756081
 20
41.839092
 30
0.0
 10
75.416576
 20
41.839092
 30
0.0
 10
75.416576
 20
42.143913
 30
0.0
 10
74.756081
 20
42.143913
 30
0.0
 10
74.756081
 20
41.839092
 30
0.0
 10
74.756081
 20
41.839092
 30
0.0
  0
LWPOLYLINE
  5
13c
100
AcDbEntity
  8
ink_ext_XXXXXX
 62
7
100
AcDbPolyline
 90
6
 70
1
 10
74.756081
 20
41.331092
 30
0.0
 10
75.416576
 20
41.331092
 30
0.0
 10
75.416576
 20
41.635913
 30
0.0
 10
74.756081
 20
41.635913
 30
0.0
 10
74.756081
 20
41.331092
 30
0.0
 10
74.756081
 20
41.331092
 30
0.0
  0
LWPOLYLINE
  5
13d
100
AcDbEntity
  8
ink_ext_XXXXXX
 62
7
100
AcDbPolyline
 90
6
 70
1
 10
74.756081
 20
40.823092
 30
0.0
 10
75.416576
 20
40.823092
 30
0.0
 10
75.416576
 20
41.127913
 30
0.0
 10
74.756081
 20
41.127913
 30
0.0
 10
74.756081
 20
40.823092
 30
0.0
 10
74.756081
 20
40.823092
 30
0.0
  0
LWPOLYLINE
  5
13e
100
AcDbEntity
  8
ink_ext_XXXXXX
 62
7
100
AcDbPolyline
 90
6
 70
1
 10
74.756081
 20
40.315092
 30
0.0
 10
75.416576
 20
40.315092
 30
0.0
 10
75.416576
 20
40.619775
 30
0.0
 10
74.756081
 20
40.619775
 30
0.0
 10
74.756081
 20
40.315092
 30
0.0
 10
74.756081
 20
40.315092
 30
0.0
  0
LWPOLYLINE
  5
13f
100
AcDbEntity
  8
ink_ext_XXXXXX
 62
7
100
AcDbPolyline
 90
6
 70
1
 10
74.756081
 20
39.832492
 30
0.0
 10
75.416576
 20
39.832492
 30
0.0
 10
75.416576
 20
40.137175
 30
0.0
 10
74.756081
 20
40.137175
 30
0.0
 10
74.756081
 20
39.832492
 30
0.0
 10
74.756081
 20
39.832492
 30
0.0
  0
LWPOLYLINE
  5
140
100
AcDbEntity
  8
ink_ext_XXXXXX
 62
7
100
AcDbPolyline
 90
6
 70
1
 10
75.606981
 20
39.680092
 30
0.0
 10
76.597651
 20
39.680092
 30
0.0
 10
76.597651
 20
42.778885
 30
0.0
 10
75.606981
 20
42.778885
 30
0.0
 10
75.606981
 20
39.680092
 30
0.0
 10
75.606981
 20
39.680092
 30
0.0
  0
LWPOLYLINE
  5
141
100
AcDbEntity
  8
ink_ext_XXXXXX
 62
7
100
AcDbPolyline
 90
6
 70
1
 10
68.638914
 20
8.436610
 30
0.0
 10
69.299272
 20
8.436610
 30
0.0
 10
69.299272
 20
8.741432
 30
0.0
 10
68.638914
 20
8.741432
 30
0.0
 10
68.638914
 20
8.436610
 30
0.0
 10
68.638914
 20
8.436610
 30
0.0
  0
LWPOLYLINE
  5
142
100
AcDbEntity
  8
ink_ext_XXXXXX
 62
7
100
AcDbPolyline
 90
6
 70
1
 10
68.638914
 20
8.919210
 30
0.0
 10
69.299272
 20
8.919210
 30
0.0
 10
69.299272
 20
9.224032
 30
0.0
 10
68.638914
 20
9.224032
 30
0.0
 10
68.638914
 20
8.919210
 30
0.0
 10
68.638914
 20
8.919210
 30
0.0
  0
LWPOLYLINE
  5
143
100
AcDbEntity
  8
ink_ext_XXXXXX
 62
7
100
AcDbPolyline
 90
6
 70
1
 10
68.638914
 20
9.427175
 30
0.0
 10
69.299272
 20
9.427175
 30
0.0
 10
69.299272
 20
9.731997
 30
0.0
 10
68.638914
 20
9.731997
 30
0.0
 10
68.638914
 20
9.427175
 30
0.0
 10
68.638914
 20
9.427175
 30
0.0
  0
LWPOLYLINE
  5
144
100
AcDbEntity
  8
ink_ext_XXXXXX
 62
7
100
AcDbPolyline
 90
6
 70
1
 10
68.638914
 20
9.935245
 30
0.0
 10
69.299272
 20
9.935245
 30
0.0
 10
69.299272
 20
10.240067
 30
0.0
 10
68.638914
 20
10.240067
 30
0.0
 10
68.638914
 20
9.935245
 30
0.0
 10
68.638914
 20
9.935245
 30
0.0
  0
LWPOLYLINE
  5
145
100
AcDbEntity
  8
ink_ext_XXXXXX
 62
7
100
AcDbPolyline
 90
6
 70
1
 10
68.638914
 20
10.443175
 30
0.0
 10
69.299272
 20
10.443175
 30
0.0
 10
69.299272
 20
10.747997
 30
0.0
 10
68.638914
 20
10.747997
 30
0.0
 10
68.638914
 20
10.443175
 30
0.0
 10
68.638914
 20
10.443175
 30
0.0
  0
LWPOLYLINE
  5
146
100
AcDbEntity
  8
ink_ext_XXXXXX
 62
7
100
AcDbPolyline
 90
6
 70
1
 10
68.638914
 20
10.925775
 30
0.0
 10
69.299272
 20
10.925775
 30
0.0
 10
69.299272
 20
11.230597
 30
0.0
 10
68.638914
 20
11.230597
 30
0.0
 10
68.638914
 20
10.925775
 30
0.0
 10
68.638914
 20
10.925775
 30
0.0
  0
LWPOLYLINE
  5
147
100
AcDbEntity
  8
ink_ext_XXXXXX
 62
7
100
AcDbPolyline
 90
6
 70
1
 10
66.606914
 20
10.925775
 30
0.0
 10
67.267272
 20
10.925775
 30
0.0
 10
67.267272
 20
11.230597
 30
0.0
 10
66.606914
 20
11.230597
 30
0.0
 10
66.606914
 20
10.925775
 30
0.0
 10
66.606914
 20
10.925775
 30
0.0
  0
LWPOLYLINE
  5
148
100
AcDbEntity
  8
ink_ext_XXXXXX
 62
7
100
AcDbPolyline
 90
6
 70
1
 10
66.606914
 20
10.443175
 30
0.0
 10
67.267272
 20
10.443175
 30
0.0
 10
67.267272
 20
10.747997
 30
0.0
 10
66.606914
 20
10.747997
 30
0.0
 10
66.606914
 20
10.443175
 30
0.0
 10
66.606914
 20
10.443175
 30
0.0
  0
LWPOLYLINE
  5
149
100
AcDbEntity
  8
ink_ext_XXXXXX
 62
7
100
AcDbPolyline
 90
6
 70
1
 10
66.606914
 20
9.935245
 30
0.0
 10
67.267272
 20
9.935245
 30
0.0
 10
67.267272
 20
10.240067
 30
0.0
 10
66.606914
 20
10.240067
 30
0.0
 10
66.606914
 20
9.935245
 30
0.0
 10
66.606914
 20
9.935245
 30
0.0
  0
LWPOLYLINE
  5
14a
100
AcDbEntity
  8
ink_ext_XXXXXX
 62
7
100
AcDbPolyline
 90
6
 70
1
 10
66.606914
 20
9.427175
 30
0.0
 10
67.267272
 20
9.427175
 30
0.0
 10
67.267272
 20
9.731997
 30
0.0
 10
66.606914
 20
9.731997
 30
0.0
 10
66.606914
 20
9.427175
 30
0.0
 10
66.606914
 20
9.427175
 30
0.0
  0
LWPOLYLINE
  5
14b
100
AcDbEntity
  8
ink_ext_XXXXXX
 62
7
100
AcDbPolyline
 90
6
 70
1
 10
66.606914
 20
8.919210
 30
0.0
 10
67.267272
 20
8.919210
 30
0.0
 10
67.267272
 20
9.224032
 30
0.0
 10
66.606914
 20
9.224032
 30
0.0
 10
66.606914
 20
8.919210
 30
0.0
 10
66.606914
 20
8.919210
 30
0.0
  0
LWPOLYLINE
  5
14c
100
AcDbEntity
  8
ink_ext_XXXXXX
 62
7
100
AcDbPolyline
 90
6
 70
1
 10
66.606914
 20
8.436610
 30
0.0
 10
67.267272
 20
8.436610
 30
0.0
 10
67.267272
 20
8.741432
 30
0.0
 10
66.606914
 20
8.741432
 30
0.0
 10
66.606914
 20
8.436610
 30
0.0
 10
66.606914
 20
8.436610
 30
0.0
  0
LWPOLYLINE
  5
14d
100
AcDbEntity
  8
ink_ext_XXXXXX
 62
7
100
AcDbPolyline
 90
6
 70
1
 10
67.457814
 20
8.284210
 30
0.0
 10
68.448347
 20
8.284210
 30
0.0
 10
68.448347
 20
11.383003
 30
0.0
 10
67.457814
 20
11.383003
 30
0.0
 10
67.457814
 20
8.284210
 30
0.0
 10
67.457814
 20
8.284210
 30
0.0
  0
LWPOLYLINE
  5
14e
100
AcDbEntity
  8
ink_ext_XXXXXX
 62
7
100
AcDbPolyline
 90
6
 70
1
 10
68.638914
 20
19.104575
 30
0.0
 10
69.299272
 20
19.104575
 30
0.0
 10
69.299272
 20
19.409397
 30
0.0
 10
68.638914
 20
19.409397
 30
0.0
 10
68.638914
 20
19.104575
 30
0.0
 10
68.638914
 20
19.104575
 30
0.0
  0
LWPOLYLINE
  5
14f
100
AcDbEntity
  8
ink_ext_XXXXXX
 62
7
100
AcDbPolyline
 90
6
 70
1
 10
68.638914
 20
19.587175
 30
0.0
 10
69.299272
 20
19.587175
 30
0.0
 10
69.299272
 20
19.891997
 30
0.0
 10
68.638914
 20
19.891997
 30
0.0
 10
68.638914
 20
19.587175
 30
0.0
 10
68.638914
 20
19.587175
 30
0.0
  0
LWPOLYLINE
  5
150
100
AcDbEntity
  8
ink_ext_XXXXXX
 62
7
100
AcDbPolyline
 90
6
 70
1
 10
68.638914
 20
20.095245
 30
0.0
 10
69.299272
 20
20.095245
 30
0.0
 10
69.299272
 20
20.400067
 30
0.0
 10
68.638914
 20
20.400067
 30
0.0
 10
68.638914
 20
20.095245
 30
0.0
 10
68.638914
 20
20.095245
 30
0.0
  0
LWPOLYLINE
  5
151
100
AcDbEntity
  8
ink_ext_XXXXXX
 62
7
100
AcDbPolyline
 90
6
 70
1
 10
68.638914
 20
20.603175
 30
0.0
 10
69.299272
 20
20.603175
 30
0.0
 10
69.299272
 20
20.907997
 30
0.0
 10
68.638914
 20
20.907997
 30
0.0
 10
68.638914
 20
20.603175
 30
0.0
 10
68.638914
 20
20.603175
 30
0.0
  0
LWPOLYLINE
  5
152
100
AcDbEntity
  8
ink_ext_XXXXXX
 62
7
100
AcDbPolyline
 90
6
 70
1
 10
68.638914
 20
21.111139
 30
0.0
 10
69.299272
 20
21.111139
 30
0.0
 10
69.299272
 20
21.415961
 30
0.0
 10
68.638914
 20
21.415961
 30
0.0
 10
68.638914
 20
21.111139
 30
0.0
 10
68.638914
 20
21.111139
 30
0.0
  0
LWPOLYLINE
  5
153
100
AcDbEntity
  8
ink_ext_XXXXXX
 62
7
100
AcDbPolyline
 90
6
 70
1
 10
68.638914
 20
21.593845
 30
0.0
 10
69.299272
 20
21.593845
 30
0.0
 10
69.299272
 20
21.898530
 30
0.0
 10
68.638914
 20
21.898530
 30
0.0
 10
68.638914
 20
21.593845
 30
0.0
 10
68.638914
 20
21.593845
 30
0.0
  0
LWPOLYLINE
  5
154
100
AcDbEntity
  8
ink_ext_XXXXXX
 62
7
100
AcDbPolyline
 90
6
 70
1
 10
66.606914
 20
21.593845
 30
0.0
 10
67.267272
 20
21.593845
 30
0.0
 10
67.267272
 20
21.898530
 30
0.0
 10
66.606914
 20
21.898530
 30
0.0
 10
66.606914
 20
21.593845
 30
0.0
 10
66.606914
 20
21.593845
 30
0.0
  0
LWPOLYLINE
  5
155
100
AcDbEntity
  8
ink_ext_XXXXXX
 62
7
100
AcDbPolyline
 90
6
 70
1
 10
66.606914
 20
21.111139
 30
0.0
 10
67.267272
 20
21.111139
 30
0.0
 10
67.267272
 20
21.415961
 30
0.0
 10
66.606914
 20
21.415961
 30
0.0
 10
66.606914
 20
21.111139
 30
0.0
 10
66.606914
 20
21.111139
 30
0.0
  0
LWPOLYLINE
  5
156
100
AcDbEntity
  8
ink_ext_XXXXXX
 62
7
100
AcDbPolyline
 90
6
 70
1
 10
66.606914
 20
20.603175
 30
0.0
 10
67.267272
 20
20.603175
 30
0.0
 10
67.267272
 20
20.907997
 30
0.0
 10
66.606914
 20
20.907997
 30
0.0
 10
66.606914
 20
20.603175
 30
0.0
 10
66.606914
 20
20.603175
 30
0.0
  0
LWPOLYLINE
  5
157
100
AcDbEntity
  8
ink_ext_XXXXXX
 62
7
100
AcDbPolyline
 90
6
 70
1
 10
66.606914
 20
20.095245
 30
0.0
 10
67.267272
 20
20.095245
 30
0.0
 10
67.267272
 20
20.400067
 30
0.0
 10
66.606914
 20
20.400067
 30
0.0
 10
66.606914
 20
20.095245
 30
0.0
 10
66.606914
 20
20.095245
 30
0.0
  0
LWPOLYLINE
  5
158
100
AcDbEntity
  8
ink_ext_XXXXXX
 62
7
100
AcDbPolyline
 90
6
 70
1
 10
66.606914
 20
19.587175
 30
0.0
 10
67.267272
 20
19.587175
 30
0.0
 10
67.267272
 20
19.891997
 30
0.0
 10
66.606914
 20
19.891997
 30
0.0
 10
66.606914
 20
19.587175
 30
0.0
 10
66.606914
 20
19.587175
 30
0.0
  0
LWPOLYLINE
  5
159
100
AcDbEntity
  8
ink_ext_XXXXXX
 62
7
100
AcDbPolyline
 90
6
 70
1
 10
66.606914
 20
19.104575
 30
0.0
 10
67.267272
 20
19.104575
 30
0.0
 10
67.267272
 20
19.409397
 30
0.0
 10
66.606914
 20
19.409397
 30
0.0
 10
66.606914
 20
19.104575
 30
0.0
 10
66.606914
 20
19.104575
 30
0.0
  0
LWPOLYLINE
  5
15a
100
AcDbEntity
  8
ink_ext_XXXXXX
 62
7
100
AcDbPolyline
 90
6
 70
1
 10
67.457814
 20
18.952175
 30
0.0
 10
68.448347
 20
18.952175
 30
0.0
 10
68.448347
 20
22.050968
 30
0.0
 10
67.457814
 20
22.050968
 30
0.0
 10
67.457814
 20
18.952175
 30
0.0
 10
67.457814
 20
18.952175
 30
0.0
  0
LWPOLYLINE
  5
15b
100
AcDbEntity
  8
ink_ext_XXXXXX
 62
7
100
AcDbPolyline
 90
4
 70
0
 10
40.035339
 20
34.758242
 30
0.0
 10
40.530286
 20
34.263259
 30
0.0
 10
41.166697
 20
34.899635
 30
0.0
 10
40.671750
 20
35.394547
 30
0.0
  0
LWPOLYLINE
  5
15c
100
AcDbEntity
  8
ink_ext_XXXXXX
 62
7
100
AcDbPolyline
 90
4
 70
0
 10
39.116000
 20
35.677475
 30
0.0
 10
39.610947
 20
35.182563
 30
0.0
 10
40.247711
 20
35.818939
 30
0.0
 10
39.752411
 20
36.313886
 30
0.0
  0
LWPOLYLINE
  5
15d
100
AcDbEntity
  8
ink_ext_XXXXXX
 62
7
100
AcDbPolyline
 90
4
 70
0
 10
59.034539
 20
20.839112
 30
0.0
 10
59.529486
 20
20.344130
 30
0.0
 10
60.165897
 20
20.980506
 30
0.0
 10
59.670950
 20
21.475488
 30
0.0
  0
LWPOLYLINE
  5
15e
100
AcDbEntity
  8
ink_ext_XXXXXX
 62
7
100
AcDbPolyline
 90
4
 70
0
 10
58.115200
 20
21.758275
 30
0.0
 10
58.610147
 20
21.263257
 30
0.0
 10
59.246558
 20
21.899633
 30
0.0
 10
58.751611
 20
22.394651
 30
0.0
  0
LWPOLYLINE
  5
15f
100
AcDbEntity
  8
ink_ext_XXXXXX
 62
7
100
AcDbPolyline
 90
4
 70
0
 10
56.494539
 20
18.299112
 30
0.0
 10
56.989486
 20
17.804130
 30
0.0
 10
57.625897
 20
18.440506
 30
0.0
 10
57.130950
 20
18.935488
 30
0.0
  0
LWPOLYLINE
  5
160
100
AcDbEntity
  8
ink_ext_XXXXXX
 62
7
100
AcDbPolyline
 90
4
 70
0
 10
55.575200
 20
19.218275
 30
0.0
 10
56.070147
 20
18.723257
 30
0.0
 10
56.706558
 20
19.359633
 30
0.0
 10
56.211611
 20
19.854651
 30
0.0
  0
LWPOLYLINE
  5
161
100
AcDbEntity
  8
ink_ext_XXXXXX
 62
7
100
AcDbPolyline
 90
4
 70
0
 10
40.987839
 20
35.710636
 30
0.0
 10
41.482786
 20
35.215759
 30
0.0
 10
42.119197
 20
35.852100
 30
0.0
 10
41.624250
 20
36.347047
 30
0.0
  0
LWPOLYLINE
  5
162
100
AcDbEntity
  8
ink_ext_XXXXXX
 62
7
100
AcDbPolyline
 90
4
 70
0
 10
40.068500
 20
36.629975
 30
0.0
 10
40.563447
 20
36.135028
 30
0.0
 10
41.200211
 20
36.771439
 30
0.0
 10
40.704911
 20
37.266386
 30
0.0
  0
LWPOLYLINE
  5
163
100
AcDbEntity
  8
ink_ext_XXXXXX
 62
7
100
AcDbPolyline
 90
4
 70
0
 10
57.064981
 20
22.018837
 30
0.0
 10
56.166808
 20
22.916903
 30
0.0
 10
55.717722
 20
22.467958
 30
0.0
 10
56.615894
 20
21.569892
 30
0.0
  0
LWPOLYLINE
  5
164
100
AcDbEntity
  8
ink_ext_XXXXXX
 62
7
100
AcDbPolyline
 90
4
 70
0
 10
56.399994
 20
21.354203
 30
0.0
 10
55.502175
 20
22.252270
 30
0.0
 10
55.053089
 20
21.803184
 30
0.0
 10
55.951261
 20
20.905117
 30
0.0
  0
LWPOLYLINE
  5
165
100
AcDbEntity
  8
ink_ext_XXXXXX
 62
7
100
AcDbPolyline
 90
4
 70
0
 10
58.763606
 20
18.308461
 30
0.0
 10
60.559597
 20
16.512328
 30
0.0
 10
61.457769
 20
17.410395
 30
0.0
 10
59.661778
 20
19.206422
 30
0.0
  0
LWPOLYLINE
  5
166
100
AcDbEntity
  8
ink_ext_XXXXXX
 62
7
100
AcDbPolyline
 90
6
 70
1
 10
6.123869
 20
30.924429
 30
0.0
 10
7.123776
 20
30.924429
 30
0.0
 10
7.123776
 20
32.024380
 30
0.0
 10
6.123869
 20
32.024380
 30
0.0
 10
6.123869
 20
30.924429
 30
0.0
 10
6.123869
 20
30.924429
 30
0.0
  0
LWPOLYLINE
  5
167
100
AcDbEntity
  8
ink_ext_XXXXXX
 62
7
100
AcDbPolyline
 90
6
 70
1
 10
4.423763
 20
30.924429
 30
0.0
 10
5.423807
 20
30.924429
 30
0.0
 10
5.423807
 20
32.024380
 30
0.0
 10
4.423763
 20
32.024380
 30
0.0
 10
4.423763
 20
30.924429
 30
0.0
 10
4.423763
 20
30.924429
 30
0.0
  0
LWPOLYLINE
  5
168
100
AcDbEntity
  8
ink_ext_XXXXXX
 62
7
100
AcDbPolyline
 90
6
 70
1
 10
6.123869
 20
32.753229
 30
0.0
 10
7.123776
 20
32.753229
 30
0.0
 10
7.123776
 20
33.853180
 30
0.0
 10
6.123869
 20
33.853180
 30
0.0
 10
6.123869
 20
32.753229
 30
0.0
 10
6.123869
 20
32.753229
 30
0.0
  0
LWPOLYLINE
  5
169
100
AcDbEntity
  8
ink_ext_XXXXXX
 62
7
100
AcDbPolyline
 90
6
 70
1
 10
4.423763
 20
32.753229
 30
0.0
 10
5.423807
 20
32.753229
 30
0.0
 10
5.423807
 20
33.853180
 30
0.0
 10
4.423763
 20
33.853180
 30
0.0
 10
4.423763
 20
32.753229
 30
0.0
 10
4.423763
 20
32.753229
 30
0.0
  0
LWPOLYLINE
  5
16a
100
AcDbEntity
  8
ink_ext_XXXXXX
 62
7
100
AcDbPolyline
 90
6
 70
1
 10
70.468772
 20
47.124408
 30
0.0
 10
71.568723
 20
47.124408
 30
0.0
 10
71.568723
 20
48.124452
 30
0.0
 10
70.468772
 20
48.124452
 30
0.0
 10
70.468772
 20
47.124408
 30
0.0
 10
70.468772
 20
47.124408
 30
0.0
  0
LWPOLYLINE
  5
16b
100
AcDbEntity
  8
ink_ext_XXXXXX
 62
7
100
AcDbPolyline
 90
6
 70
1
 10
70.468772
 20
48.824444
 30
0.0
 10
71.568723
 20
48.824444
 30
0.0
 10
71.568723
 20
49.824488
 30
0.0
 10
70.468772
 20
49.824488
 30
0.0
 10
70.468772
 20
48.824444
 30
0.0
 10
70.468772
 20
48.824444
 30
0.0
  0
LWPOLYLINE
  5
16c
100
AcDbEntity
  8
ink_ext_XXXXXX
 62
7
100
AcDbPolyline
 90
6
 70
1
 10
67.322347
 20
45.351700
 30
0.0
 10
69.532168
 20
45.351700
 30
0.0
 10
69.532168
 20
45.961342
 30
0.0
 10
67.322347
 20
45.961342
 30
0.0
 10
67.322347
 20
45.351700
 30
0.0
 10
67.322347
 20
45.351700
 30
0.0
  0
LWPOLYLINE
  5
16d
100
AcDbEntity
  8
ink_ext_XXXXXX
 62
7
100
AcDbPolyline
 90
6
 70
1
 10
59.232447
 20
45.351700
 30
0.0
 10
61.442268
 20
45.351700
 30
0.0
 10
61.442268
 20
45.961342
 30
0.0
 10
59.232447
 20
45.961342
 30
0.0
 10
59.232447
 20
45.351700
 30
0.0
 10
59.232447
 20
45.351700
 30
0.0
  0
LWPOLYLINE
  5
16e
100
AcDbEntity
  8
ink_ext_XXXXXX
 62
7
100
AcDbPolyline
 90
6
 70
1
 10
67.322347
 20
46.621700
 30
0.0
 10
69.532168
 20
46.621700
 30
0.0
 10
69.532168
 20
47.231342
 30
0.0
 10
67.322347
 20
47.231342
 30
0.0
 10
67.322347
 20
46.621700
 30
0.0
 10
67.322347
 20
46.621700
 30
0.0
  0
LWPOLYLINE
  5
16f
100
AcDbEntity
  8
ink_ext_XXXXXX
 62
7
100
AcDbPolyline
 90
6
 70
1
 10
67.322347
 20
47.891700
 30
0.0
 10
69.532168
 20
47.891700
 30
0.0
 10
69.532168
 20
48.501342
 30
0.0
 10
67.322347
 20
48.501342
 30
0.0
 10
67.322347
 20
47.891700
 30
0.0
 10
67.322347
 20
47.891700
 30
0.0
  0
LWPOLYLINE
  5
170
100
AcDbEntity
  8
ink_ext_XXXXXX
 62
7
100
AcDbPolyline
 90
6
 70
1
 10
59.232447
 20
46.621700
 30
0.0
 10
61.442268
 20
46.621700
 30
0.0
 10
61.442268
 20
47.231342
 30
0.0
 10
59.232447
 20
47.231342
 30
0.0
 10
59.232447
 20
46.621700
 30
0.0
 10
59.232447
 20
46.621700
 30
0.0
  0
LWPOLYLINE
  5
171
100
AcDbEntity
  8
ink_ext_XXXXXX
 62
7
100
AcDbPolyline
 90
6
 70
1
 10
59.232447
 20
47.891700
 30
0.0
 10
61.442268
 20
47.891700
 30
0.0
 10
61.442268
 20
48.501342
 30
0.0
 10
59.232447
 20
48.501342
 30
0.0
 10
59.232447
 20
47.891700
 30
0.0
 10
59.232447
 20
47.891700
 30
0.0
  0
LWPOLYLINE
  5
172
100
AcDbEntity
  8
ink_ext_XXXXXX
 62
7
100
AcDbPolyline
 90
6
 70
1
 10
67.322347
 20
49.161700
 30
0.0
 10
69.532168
 20
49.161700
 30
0.0
 10
69.532168
 20
49.771342
 30
0.0
 10
67.322347
 20
49.771342
 30
0.0
 10
67.322347
 20
49.161700
 30
0.0
 10
67.322347
 20
49.161700
 30
0.0
  0
LWPOLYLINE
  5
173
100
AcDbEntity
  8
ink_ext_XXXXXX
 62
7
100
AcDbPolyline
 90
6
 70
1
 10
59.232447
 20
49.161700
 30
0.0
 10
61.442268
 20
49.161700
 30
0.0
 10
61.442268
 20
49.771342
 30
0.0
 10
59.232447
 20
49.771342
 30
0.0
 10
59.232447
 20
49.161700
 30
0.0
 10
59.232447
 20
49.161700
 30
0.0
  0
LWPOLYLINE
  5
174
100
AcDbEntity
  8
ink_ext_XXXXXX
 62
7
100
AcDbPolyline
 90
6
 70
1
 10
13.688060
 20
14.577448
 30
0.0
 10
14.688104
 20
14.577448
 30
0.0
 10
14.688104
 20
15.677399
 30
0.0
 10
13.688060
 20
15.677399
 30
0.0
 10
13.688060
 20
14.577448
 30
0.0
 10
13.688060
 20
14.577448
 30
0.0
  0
LWPOLYLINE
  5
175
100
AcDbEntity
  8
ink_ext_XXXXXX
 62
7
100
AcDbPolyline
 90
6
 70
1
 10
11.988094
 20
14.577448
 30
0.0
 10
12.988138
 20
14.577448
 30
0.0
 10
12.988138
 20
15.677399
 30
0.0
 10
11.988094
 20
15.677399
 30
0.0
 10
11.988094
 20
14.577448
 30
0.0
 10
11.988094
 20
14.577448
 30
0.0
  0
LWPOLYLINE
  5
176
100
AcDbEntity
  8
ink_ext_XXXXXX
 62
7
100
AcDbPolyline
 90
6
 70
1
 10
26.874223
 20
14.970725
 30
0.0
 10
27.674175
 20
14.970725
 30
0.0
 10
27.674175
 20
15.770814
 30
0.0
 10
26.874223
 20
15.770814
 30
0.0
 10
26.874223
 20
14.970725
 30
0.0
 10
26.874223
 20
14.970725
 30
0.0
  0
LWPOLYLINE
  5
177
100
AcDbEntity
  8
ink_ext_XXXXXX
 62
7
100
AcDbPolyline
 90
6
 70
1
 10
28.374234
 20
14.970725
 30
0.0
 10
29.174186
 20
14.970725
 30
0.0
 10
29.174186
 20
15.770814
 30
0.0
 10
28.374234
 20
15.770814
 30
0.0
 10
28.374234
 20
14.970725
 30
0.0
 10
28.374234
 20
14.970725
 30
0.0
  0
LWPOLYLINE
  5
178
100
AcDbEntity
  8
ink_ext_XXXXXX
 62
7
100
AcDbPolyline
 90
6
 70
1
 10
23.270669
 20
14.820794
 30
0.0
 10
24.270575
 20
14.820794
 30
0.0
 10
24.270575
 20
15.920745
 30
0.0
 10
23.270669
 20
15.920745
 30
0.0
 10
23.270669
 20
14.820794
 30
0.0
 10
23.270669
 20
14.820794
 30
0.0
  0
LWPOLYLINE
  5
179
100
AcDbEntity
  8
ink_ext_XXXXXX
 62
7
100
AcDbPolyline
 90
6
 70
1
 10
24.970599
 20
14.820794
 30
0.0
 10
25.970643
 20
14.820794
 30
0.0
 10
25.970643
 20
15.920745
 30
0.0
 10
24.970599
 20
15.920745
 30
0.0
 10
24.970599
 20
14.820794
 30
0.0
 10
24.970599
 20
14.820794
 30
0.0
  0
LWPOLYLINE
  5
17a
100
AcDbEntity
  8
ink_ext_XXXXXX
 62
7
100
AcDbPolyline
 90
6
 70
1
 10
22.964034
 20
40.832264
 30
0.0
 10
23.763986
 20
40.832264
 30
0.0
 10
23.763986
 20
41.632216
 30
0.0
 10
22.964034
 20
41.632216
 30
0.0
 10
22.964034
 20
40.832264
 30
0.0
 10
22.964034
 20
40.832264
 30
0.0
  0
LWPOLYLINE
  5
17b
100
AcDbEntity
  8
ink_ext_XXXXXX
 62
7
100
AcDbPolyline
 90
6
 70
1
 10
24.464045
 20
40.832264
 30
0.0
 10
25.263997
 20
40.832264
 30
0.0
 10
25.263997
 20
41.632216
 30
0.0
 10
24.464045
 20
41.632216
 30
0.0
 10
24.464045
 20
40.832264
 30
0.0
 10
24.464045
 20
40.832264
 30
0.0
  0
LWPOLYLINE
  5
17c
100
AcDbEntity
  8
ink_ext_XXXXXX
 62
7
100
AcDbPolyline
 90
6
 70
1
 10
18.444633
 20
40.678100
 30
0.0
 10
19.444540
 20
40.678100
 30
0.0
 10
19.444540
 20
41.778051
 30
0.0
 10
18.444633
 20
41.778051
 30
0.0
 10
18.444633
 20
40.678100
 30
0.0
 10
18.444633
 20
40.678100
 30
0.0
  0
LWPOLYLINE
  5
17d
100
AcDbEntity
  8
ink_ext_XXXXXX
 62
7
100
AcDbPolyline
 90
6
 70
1
 10
20.144564
 20
40.678100
 30
0.0
 10
21.144607
 20
40.678100
 30
0.0
 10
21.144607
 20
41.778051
 30
0.0
 10
20.144564
 20
41.778051
 30
0.0
 10
20.144564
 20
40.678100
 30
0.0
 10
20.144564
 20
40.678100
 30
0.0
  0
LWPOLYLINE
  5
17e
100
AcDbEntity
  8
ink_ext_XXXXXX
 62
7
100
AcDbPolyline
 90
6
 70
1
 10
22.989399
 20
39.384464
 30
0.0
 10
23.789351
 20
39.384464
 30
0.0
 10
23.789351
 20
40.184553
 30
0.0
 10
22.989399
 20
40.184553
 30
0.0
 10
22.989399
 20
39.384464
 30
0.0
 10
22.989399
 20
39.384464
 30
0.0
  0
LWPOLYLINE
  5
17f
100
AcDbEntity
  8
ink_ext_XXXXXX
 62
7
100
AcDbPolyline
 90
6
 70
1
 10
24.489410
 20
39.384464
 30
0.0
 10
25.289362
 20
39.384464
 30
0.0
 10
25.289362
 20
40.184553
 30
0.0
 10
24.489410
 20
40.184553
 30
0.0
 10
24.489410
 20
39.384464
 30
0.0
 10
24.489410
 20
39.384464
 30
0.0
  0
LWPOLYLINE
  5
180
100
AcDbEntity
  8
ink_ext_XXXXXX
 62
7
100
AcDbPolyline
 90
6
 70
1
 10
18.444633
 20
39.154100
 30
0.0
 10
19.444540
 20
39.154100
 30
0.0
 10
19.444540
 20
40.254051
 30
0.0
 10
18.444633
 20
40.254051
 30
0.0
 10
18.444633
 20
39.154100
 30
0.0
 10
18.444633
 20
39.154100
 30
0.0
  0
LWPOLYLINE
  5
181
100
AcDbEntity
  8
ink_ext_XXXXXX
 62
7
100
AcDbPolyline
 90
6
 70
1
 10
20.144564
 20
39.154100
 30
0.0
 10
21.144607
 20
39.154100
 30
0.0
 10
21.144607
 20
40.254051
 30
0.0
 10
20.144564
 20
40.254051
 30
0.0
 10
20.144564
 20
39.154100
 30
0.0
 10
20.144564
 20
39.154100
 30
0.0
  0
LWPOLYLINE
  5
182
100
AcDbEntity
  8
ink_ext_XXXXXX
 62
7
100
AcDbPolyline
 90
6
 70
1
 10
17.405032
 20
7.241469
 30
0.0
 10
18.504983
 20
7.241469
 30
0.0
 10
18.504983
 20
8.241376
 30
0.0
 10
17.405032
 20
8.241376
 30
0.0
 10
17.405032
 20
7.241469
 30
0.0
 10
17.405032
 20
7.241469
 30
0.0
  0
LWPOLYLINE
  5
183
100
AcDbEntity
  8
ink_ext_XXXXXX
 62
7
100
AcDbPolyline
 90
6
 70
1
 10
17.405032
 20
5.541363
 30
0.0
 10
18.504983
 20
5.541363
 30
0.0
 10
18.504983
 20
6.541407
 30
0.0
 10
17.405032
 20
6.541407
 30
0.0
 10
17.405032
 20
5.541363
 30
0.0
 10
17.405032
 20
5.541363
 30
0.0
  0
LWPOLYLINE
  5
184
100
AcDbEntity
  8
ink_ext_XXXXXX
 62
7
100
AcDbPolyline
 90
6
 70
1
 10
20.839112
 20
9.663359
 30
0.0
 10
21.839156
 20
9.663359
 30
0.0
 10
21.839156
 20
10.763448
 30
0.0
 10
20.839112
 20
10.763448
 30
0.0
 10
20.839112
 20
9.663359
 30
0.0
 10
20.839112
 20
9.663359
 30
0.0
  0
LWPOLYLINE
  5
185
100
AcDbEntity
  8
ink_ext_XXXXXX
 62
7
100
AcDbPolyline
 90
6
 70
1
 10
20.839112
 20
11.363431
 30
0.0
 10
21.839156
 20
11.363431
 30
0.0
 10
21.839156
 20
12.463381
 30
0.0
 10
20.839112
 20
12.463381
 30
0.0
 10
20.839112
 20
11.363431
 30
0.0
 10
20.839112
 20
11.363431
 30
0.0
  0
LWPOLYLINE
  5
186
100
AcDbEntity
  8
ink_ext_XXXXXX
 62
7
100
AcDbPolyline
 90
6
 70
1
 10
66.552939
 20
17.563218
 30
0.0
 10
67.652889
 20
17.563218
 30
0.0
 10
67.652889
 20
18.563124
 30
0.0
 10
66.552939
 20
18.563124
 30
0.0
 10
66.552939
 20
17.563218
 30
0.0
 10
66.552939
 20
17.563218
 30
0.0
  0
LWPOLYLINE
  5
187
100
AcDbEntity
  8
ink_ext_XXXXXX
 62
7
100
AcDbPolyline
 90
6
 70
1
 10
68.252975
 20
17.563218
 30
0.0
 10
69.352926
 20
17.563218
 30
0.0
 10
69.352926
 20
18.563124
 30
0.0
 10
68.252975
 20
18.563124
 30
0.0
 10
68.252975
 20
17.563218
 30
0.0
 10
68.252975
 20
17.563218
 30
0.0
  0
LWPOLYLINE
  5
188
100
AcDbEntity
  8
ink_ext_XXXXXX
 62
7
100
AcDbPolyline
 90
6
 70
1
 10
66.552939
 20
6.742748
 30
0.0
 10
67.652889
 20
6.742748
 30
0.0
 10
67.652889
 20
7.742791
 30
0.0
 10
66.552939
 20
7.742791
 30
0.0
 10
66.552939
 20
6.742748
 30
0.0
 10
66.552939
 20
6.742748
 30
0.0
  0
LWPOLYLINE
  5
189
100
AcDbEntity
  8
ink_ext_XXXXXX
 62
7
100
AcDbPolyline
 90
6
 70
1
 10
68.252975
 20
6.742748
 30
0.0
 10
69.352926
 20
6.742748
 30
0.0
 10
69.352926
 20
7.742791
 30
0.0
 10
68.252975
 20
7.742791
 30
0.0
 10
68.252975
 20
6.742748
 30
0.0
 10
68.252975
 20
6.742748
 30
0.0
  0
LWPOLYLINE
  5
18a
100
AcDbEntity
  8
ink_ext_XXXXXX
 62
7
100
AcDbPolyline
 90
6
 70
1
 10
74.575106
 20
37.655853
 30
0.0
 10
75.675194
 20
37.655853
 30
0.0
 10
75.675194
 20
38.655897
 30
0.0
 10
74.575106
 20
38.655897
 30
0.0
 10
74.575106
 20
37.655853
 30
0.0
 10
74.575106
 20
37.655853
 30
0.0
  0
LWPOLYLINE
  5
18b
100
AcDbEntity
  8
ink_ext_XXXXXX
 62
7
100
AcDbPolyline
 90
6
 70
1
 10
76.275142
 20
37.655853
 30
0.0
 10
77.375092
 20
37.655853
 30
0.0
 10
77.375092
 20
38.655897
 30
0.0
 10
76.275142
 20
38.655897
 30
0.0
 10
76.275142
 20
37.655853
 30
0.0
 10
76.275142
 20
37.655853
 30
0.0
  0
LWPOLYLINE
  5
18c
100
AcDbEntity
  8
ink_ext_XXXXXX
 62
7
100
AcDbPolyline
 90
6
 70
1
 10
74.707750
 20
27.829051
 30
0.0
 10
75.807701
 20
27.829051
 30
0.0
 10
75.807701
 20
28.828958
 30
0.0
 10
74.707750
 20
28.828958
 30
0.0
 10
74.707750
 20
27.829051
 30
0.0
 10
74.707750
 20
27.829051
 30
0.0
  0
LWPOLYLINE
  5
18d
100
AcDbEntity
  8
ink_ext_XXXXXX
 62
7
100
AcDbPolyline
 90
6
 70
1
 10
76.407786
 20
27.829051
 30
0.0
 10
77.507737
 20
27.829051
 30
0.0
 10
77.507737
 20
28.828958
 30
0.0
 10
76.407786
 20
28.828958
 30
0.0
 10
76.407786
 20
27.829051
 30
0.0
 10
76.407786
 20
27.829051
 30
0.0
  0
LWPOLYLINE
  5
18e
100
AcDbEntity
  8
ink_ext_XXXXXX
 62
7
100
AcDbPolyline
 90
6
 70
1
 10
50.682878
 20
13.442209
 30
0.0
 10
51.182831
 20
13.442209
 30
0.0
 10
51.182831
 20
13.792231
 30
0.0
 10
50.682878
 20
13.792231
 30
0.0
 10
50.682878
 20
13.442209
 30
0.0
 10
50.682878
 20
13.442209
 30
0.0
  0
LWPOLYLINE
  5
18f
100
AcDbEntity
  8
ink_ext_XXXXXX
 62
7
100
AcDbPolyline
 90
6
 70
1
 10
50.682878
 20
12.792181
 30
0.0
 10
51.182831
 20
12.792181
 30
0.0
 10
51.182831
 20
13.142203
 30
0.0
 10
50.682878
 20
13.142203
 30
0.0
 10
50.682878
 20
12.792181
 30
0.0
 10
50.682878
 20
12.792181
 30
0.0
  0
LWPOLYLINE
  5
190
100
AcDbEntity
  8
ink_ext_XXXXXX
 62
7
100
AcDbPolyline
 90
6
 70
1
 10
50.682878
 20
12.142188
 30
0.0
 10
51.182831
 20
12.142188
 30
0.0
 10
51.182831
 20
12.492210
 30
0.0
 10
50.682878
 20
12.492210
 30
0.0
 10
50.682878
 20
12.142188
 30
0.0
 10
50.682878
 20
12.142188
 30
0.0
  0
LWPOLYLINE
  5
191
100
AcDbEntity
  8
ink_ext_XXXXXX
 62
7
100
AcDbPolyline
 90
6
 70
1
 10
50.682878
 20
14.092237
 30
0.0
 10
51.182831
 20
14.092237
 30
0.0
 10
51.182831
 20
14.442259
 30
0.0
 10
50.682878
 20
14.442259
 30
0.0
 10
50.682878
 20
14.092237
 30
0.0
 10
50.682878
 20
14.092237
 30
0.0
  0
LWPOLYLINE
  5
192
100
AcDbEntity
  8
ink_ext_XXXXXX
 62
7
100
AcDbPolyline
 90
6
 70
1
 10
48.632886
 20
12.792181
 30
0.0
 10
49.132839
 20
12.792181
 30
0.0
 10
49.132839
 20
13.142203
 30
0.0
 10
48.632886
 20
13.142203
 30
0.0
 10
48.632886
 20
12.792181
 30
0.0
 10
48.632886
 20
12.792181
 30
0.0
  0
LWPOLYLINE
  5
193
100
AcDbEntity
  8
ink_ext_XXXXXX
 62
7
100
AcDbPolyline
 90
6
 70
1
 10
48.632886
 20
13.442209
 30
0.0
 10
49.132839
 20
13.442209
 30
0.0
 10
49.132839
 20
13.792231
 30
0.0
 10
48.632886
 20
13.792231
 30
0.0
 10
48.632886
 20
13.442209
 30
0.0
 10
48.632886
 20
13.442209
 30
0.0
  0
LWPOLYLINE
  5
194
100
AcDbEntity
  8
ink_ext_XXXXXX
 62
7
100
AcDbPolyline
 90
6
 70
1
 10
48.632886
 20
14.092237
 30
0.0
 10
49.132839
 20
14.092237
 30
0.0
 10
49.132839
 20
14.442259
 30
0.0
 10
48.632886
 20
14.442259
 30
0.0
 10
48.632886
 20
14.092237
 30
0.0
 10
48.632886
 20
14.092237
 30
0.0
  0
LWPOLYLINE
  5
195
100
AcDbEntity
  8
ink_ext_XXXXXX
 62
7
100
AcDbPolyline
 90
6
 70
1
 10
48.632886
 20
12.142188
 30
0.0
 10
49.132839
 20
12.142188
 30
0.0
 10
49.132839
 20
12.492210
 30
0.0
 10
48.632886
 20
12.492210
 30
0.0
 10
48.632886
 20
12.142188
 30
0.0
 10
48.632886
 20
12.142188
 30
0.0
  0
LWPOLYLINE
  5
196
100
AcDbEntity
  8
ink_ext_XXXXXX
 62
7
100
AcDbPolyline
 90
6
 70
1
 10
52.277786
 20
11.790645
 30
0.0
 10
53.277692
 20
11.790645
 30
0.0
 10
53.277692
 20
12.890595
 30
0.0
 10
52.277786
 20
12.890595
 30
0.0
 10
52.277786
 20
11.790645
 30
0.0
 10
52.277786
 20
11.790645
 30
0.0
  0
LWPOLYLINE
  5
197
100
AcDbEntity
  8
ink_ext_XXXXXX
 62
7
100
AcDbPolyline
 90
6
 70
1
 10
52.277786
 20
13.490575
 30
0.0
 10
53.277692
 20
13.490575
 30
0.0
 10
53.277692
 20
14.590663
 30
0.0
 10
52.277786
 20
14.590663
 30
0.0
 10
52.277786
 20
13.490575
 30
0.0
 10
52.277786
 20
13.490575
 30
0.0
  0
LWPOLYLINE
  5
198
100
AcDbEntity
  8
ink_ext_XXXXXX
 62
7
100
AcDbPolyline
 90
4
 70
0
 10
38.826017
 20
27.013006
 30
0.0
 10
38.628461
 20
27.210597
 30
0.0
 10
37.443128
 20
26.025228
 30
0.0
 10
37.640683
 20
25.827602
 30
0.0
  0
LWPOLYLINE
  5
199
100
AcDbEntity
  8
ink_ext_XXXXXX
 62
7
100
AcDbPolyline
 90
4
 70
0
 10
39.167153
 20
26.671799
 30
0.0
 10
38.969597
 20
26.869390
 30
0.0
 10
37.784264
 20
25.684021
 30
0.0
 10
37.981819
 20
25.486395
 30
0.0
  0
LWPOLYLINE
  5
19a
100
AcDbEntity
  8
ink_ext_XXXXXX
 62
7
100
AcDbPolyline
 90
4
 70
0
 10
39.526633
 20
26.312671
 30
0.0
 10
39.329078
 20
26.510156
 30
0.0
 10
38.143392
 20
25.324752
 30
0.0
 10
38.340947
 20
25.127303
 30
0.0
  0
LWPOLYLINE
  5
19b
100
AcDbEntity
  8
ink_ext_XXXXXX
 62
7
100
AcDbPolyline
 90
4
 70
0
 10
39.885761
 20
25.953438
 30
0.0
 10
39.688206
 20
26.151029
 30
0.0
 10
38.502519
 20
24.965660
 30
0.0
 10
38.700428
 20
24.768034
 30
0.0
  0
LWPOLYLINE
  5
19c
100
AcDbEntity
  8
ink_ext_XXXXXX
 62
7
100
AcDbPolyline
 90
4
 70
0
 10
40.244889
 20
25.594169
 30
0.0
 10
40.047333
 20
25.791654
 30
0.0
 10
38.862000
 20
24.606250
 30
0.0
 10
39.059556
 20
24.408765
 30
0.0
  0
LWPOLYLINE
  5
19d
100
AcDbEntity
  8
ink_ext_XXXXXX
 62
7
100
AcDbPolyline
 90
4
 70
0
 10
40.586025
 20
25.252962
 30
0.0
 10
40.388822
 20
25.450447
 30
0.0
 10
39.203136
 20
24.265043
 30
0.0
 10
39.400692
 20
24.067558
 30
0.0
  0
LWPOLYLINE
  5
19e
100
AcDbEntity
  8
ink_ext_XXXXXX
 62
7
100
AcDbPolyline
 90
4
 70
0
 10
40.945506
 20
24.893693
 30
0.0
 10
40.747597
 20
25.091319
 30
0.0
 10
39.562264
 20
23.905916
 30
0.0
 10
39.759819
 20
23.708325
 30
0.0
  0
LWPOLYLINE
  5
19f
100
AcDbEntity
  8
ink_ext_XXXXXX
 62
7
100
AcDbPolyline
 90
4
 70
0
 10
41.304633
 20
24.534460
 30
0.0
 10
41.107078
 20
24.732051
 30
0.0
 10
39.921744
 20
23.546682
 30
0.0
 10
40.119300
 20
23.349056
 30
0.0
  0
LWPOLYLINE
  5
1a0
100
AcDbEntity
  8
ink_ext_XXXXXX
 62
7
100
AcDbPolyline
 90
4
 70
0
 10
41.645769
 20
24.193253
 30
0.0
 10
41.448214
 20
24.390738
 30
0.0
 10
40.262881
 20
23.205334
 30
0.0
 10
40.460436
 20
23.007849
 30
0.0
  0
LWPOLYLINE
  5
1a1
100
AcDbEntity
  8
ink_ext_XXXXXX
 62
7
100
AcDbPolyline
 90
4
 70
0
 10
42.005250
 20
23.833984
 30
0.0
 10
41.807342
 20
24.031610
 30
0.0
 10
40.622008
 20
22.846206
 30
0.0
 10
40.819564
 20
22.648616
 30
0.0
  0
LWPOLYLINE
  5
1a2
100
AcDbEntity
  8
ink_ext_XXXXXX
 62
7
100
AcDbPolyline
 90
4
 70
0
 10
42.364378
 20
23.474892
 30
0.0
 10
42.166822
 20
23.672341
 30
0.0
 10
40.981489
 20
22.486973
 30
0.0
 10
41.179044
 20
22.289347
 30
0.0
  0
LWPOLYLINE
  5
1a3
100
AcDbEntity
  8
ink_ext_XXXXXX
 62
7
100
AcDbPolyline
 90
4
 70
0
 10
42.705514
 20
23.133685
 30
0.0
 10
42.507958
 20
23.331135
 30
0.0
 10
41.322625
 20
22.145766
 30
0.0
 10
41.520181
 20
21.948140
 30
0.0
  0
LWPOLYLINE
  5
1a4
100
AcDbEntity
  8
ink_ext_XXXXXX
 62
7
100
AcDbPolyline
 90
4
 70
0
 10
43.064642
 20
22.774275
 30
0.0
 10
42.867086
 20
22.971901
 30
0.0
 10
41.681753
 20
21.786497
 30
0.0
 10
41.879308
 20
21.588906
 30
0.0
  0
LWPOLYLINE
  5
1a5
100
AcDbEntity
  8
ink_ext_XXXXXX
 62
7
100
AcDbPolyline
 90
4
 70
0
 10
43.423769
 20
22.415182
 30
0.0
 10
43.226567
 20
22.612632
 30
0.0
 10
42.040881
 20
21.427264
 30
0.0
 10
42.238436
 20
21.229779
 30
0.0
  0
LWPOLYLINE
  5
1a6
100
AcDbEntity
  8
ink_ext_XXXXXX
 62
7
100
AcDbPolyline
 90
4
 70
0
 10
43.765258
 20
22.073976
 30
0.0
 10
43.567703
 20
22.271426
 30
0.0
 10
42.382369
 20
21.086057
 30
0.0
 10
42.579572
 20
20.888572
 30
0.0
  0
LWPOLYLINE
  5
1a7
100
AcDbEntity
  8
ink_ext_XXXXXX
 62
7
100
AcDbPolyline
 90
4
 70
0
 10
44.124386
 20
21.714707
 30
0.0
 10
43.926831
 20
21.912333
 30
0.0
 10
42.741497
 20
20.726929
 30
0.0
 10
42.939053
 20
20.529338
 30
0.0
  0
LWPOLYLINE
  5
1a8
100
AcDbEntity
  8
ink_ext_XXXXXX
 62
7
100
AcDbPolyline
 90
4
 70
0
 10
44.483514
 20
21.355473
 30
0.0
 10
44.285958
 20
21.553064
 30
0.0
 10
43.100625
 20
20.367696
 30
0.0
 10
43.298181
 20
20.170069
 30
0.0
  0
LWPOLYLINE
  5
1a9
100
AcDbEntity
  8
ink_ext_XXXXXX
 62
7
100
AcDbPolyline
 90
4
 70
0
 10
44.824650
 20
21.014267
 30
0.0
 10
44.627447
 20
21.211716
 30
0.0
 10
43.442114
 20
20.026348
 30
0.0
 10
43.639317
 20
19.828863
 30
0.0
  0
LWPOLYLINE
  5
1aa
100
AcDbEntity
  8
ink_ext_XXXXXX
 62
7
100
AcDbPolyline
 90
4
 70
0
 10
45.184131
 20
20.654998
 30
0.0
 10
44.986575
 20
20.852624
 30
0.0
 10
43.801242
 20
19.667220
 30
0.0
 10
43.998797
 20
19.469629
 30
0.0
  0
LWPOLYLINE
  5
1ab
100
AcDbEntity
  8
ink_ext_XXXXXX
 62
7
100
AcDbPolyline
 90
4
 70
0
 10
45.543258
 20
20.295729
 30
0.0
 10
45.345703
 20
20.493355
 30
0.0
 10
44.160369
 20
19.307951
 30
0.0
 10
44.357925
 20
19.110360
 30
0.0
  0
LWPOLYLINE
  5
1ac
100
AcDbEntity
  8
ink_ext_XXXXXX
 62
7
100
AcDbPolyline
 90
4
 70
0
 10
45.884394
 20
19.954557
 30
0.0
 10
45.686839
 20
20.152007
 30
0.0
 10
44.501506
 20
18.966639
 30
0.0
 10
44.699061
 20
18.769154
 30
0.0
  0
LWPOLYLINE
  5
1ad
100
AcDbEntity
  8
ink_ext_XXXXXX
 62
7
100
AcDbPolyline
 90
4
 70
0
 10
46.243875
 20
19.595289
 30
0.0
 10
46.046319
 20
19.792915
 30
0.0
 10
44.860633
 20
18.607511
 30
0.0
 10
45.058542
 20
18.409885
 30
0.0
  0
LWPOLYLINE
  5
1ae
100
AcDbEntity
  8
ink_ext_XXXXXX
 62
7
100
AcDbPolyline
 90
4
 70
0
 10
46.603003
 20
19.236161
 30
0.0
 10
46.405447
 20
19.433646
 30
0.0
 10
45.220114
 20
18.248242
 30
0.0
 10
45.417669
 20
18.050792
 30
0.0
  0
LWPOLYLINE
  5
1af
100
AcDbEntity
  8
ink_ext_XXXXXX
 62
7
100
AcDbPolyline
 90
4
 70
0
 10
46.962131
 20
18.876927
 30
0.0
 10
46.764575
 20
19.074518
 30
0.0
 10
45.579242
 20
17.889149
 30
0.0
 10
45.776797
 20
17.691523
 30
0.0
  0
LWPOLYLINE
  5
1b0
100
AcDbEntity
  8
ink_ext_XXXXXX
 62
7
100
AcDbPolyline
 90
4
 70
0
 10
47.303267
 20
18.535721
 30
0.0
 10
47.105711
 20
18.733311
 30
0.0
 10
45.920378
 20
17.547943
 30
0.0
 10
46.117933
 20
17.350317
 30
0.0
  0
LWPOLYLINE
  5
1b1
100
AcDbEntity
  8
ink_ext_XXXXXX
 62
7
100
AcDbPolyline
 90
4
 70
0
 10
49.404764
 20
17.350317
 30
0.0
 10
49.602319
 20
17.547943
 30
0.0
 10
48.416986
 20
18.733311
 30
0.0
 10
48.219431
 20
18.535721
 30
0.0
  0
LWPOLYLINE
  5
1b2
100
AcDbEntity
  8
ink_ext_XXXXXX
 62
7
100
AcDbPolyline
 90
4
 70
0
 10
49.745900
 20
17.691523
 30
0.0
 10
49.943456
 20
17.889149
 30
0.0
 10
48.758122
 20
19.074518
 30
0.0
 10
48.560567
 20
18.876927
 30
0.0
  0
LWPOLYLINE
  5
1b3
100
AcDbEntity
  8
ink_ext_XXXXXX
 62
7
100
AcDbPolyline
 90
4
 70
0
 10
50.105028
 20
18.050792
 30
0.0
 10
50.302936
 20
18.248242
 30
0.0
 10
49.117250
 20
19.433646
 30
0.0
 10
48.919694
 20
19.236161
 30
0.0
  0
LWPOLYLINE
  5
1b4
100
AcDbEntity
  8
ink_ext_XXXXXX
 62
7
100
AcDbPolyline
 90
4
 70
0
 10
50.464508
 20
18.409885
 30
0.0
 10
50.662064
 20
18.607511
 30
0.0
 10
49.476378
 20
19.792915
 30
0.0
 10
49.279175
 20
19.595289
 30
0.0
  0
LWPOLYLINE
  5
1b5
100
AcDbEntity
  8
ink_ext_XXXXXX
 62
7
100
AcDbPolyline
 90
4
 70
0
 10
50.823636
 20
18.769154
 30
0.0
 10
51.021192
 20
18.966639
 30
0.0
 10
49.835858
 20
20.152007
 30
0.0
 10
49.638303
 20
19.954557
 30
0.0
  0
LWPOLYLINE
  5
1b6
100
AcDbEntity
  8
ink_ext_XXXXXX
 62
7
100
AcDbPolyline
 90
4
 70
0
 10
51.164772
 20
19.110360
 30
0.0
 10
51.362681
 20
19.307951
 30
0.0
 10
50.176994
 20
20.493355
 30
0.0
 10
49.979439
 20
20.295729
 30
0.0
  0
LWPOLYLINE
  5
1b7
100
AcDbEntity
  8
ink_ext_XXXXXX
 62
7
100
AcDbPolyline
 90
4
 70
0
 10
51.524253
 20
19.469629
 30
0.0
 10
51.721456
 20
19.667220
 30
0.0
 10
50.536122
 20
20.852624
 30
0.0
 10
50.338919
 20
20.654998
 30
0.0
  0
LWPOLYLINE
  5
1b8
100
AcDbEntity
  8
ink_ext_XXXXXX
 62
7
100
AcDbPolyline
 90
4
 70
0
 10
51.883381
 20
19.828863
 30
0.0
 10
52.080936
 20
20.026348
 30
0.0
 10
50.895603
 20
21.211716
 30
0.0
 10
50.698047
 20
21.014267
 30
0.0
  0
LWPOLYLINE
  5
1b9
100
AcDbEntity
  8
ink_ext_XXXXXX
 62
7
100
AcDbPolyline
 90
4
 70
0
 10
52.224517
 20
20.170069
 30
0.0
 10
52.422072
 20
20.367696
 30
0.0
 10
51.236739
 20
21.553064
 30
0.0
 10
51.039183
 20
21.355473
 30
0.0
  0
LWPOLYLINE
  5
1ba
100
AcDbEntity
  8
ink_ext_XXXXXX
 62
7
100
AcDbPolyline
 90
4
 70
0
 10
52.583997
 20
20.529338
 30
0.0
 10
52.781200
 20
20.726929
 30
0.0
 10
51.595867
 20
21.912333
 30
0.0
 10
51.398311
 20
21.714707
 30
0.0
  0
LWPOLYLINE
  5
1bb
100
AcDbEntity
  8
ink_ext_XXXXXX
 62
7
100
AcDbPolyline
 90
4
 70
0
 10
52.943125
 20
20.888572
 30
0.0
 10
53.140681
 20
21.086057
 30
0.0
 10
51.955347
 20
22.271426
 30
0.0
 10
51.757439
 20
22.073976
 30
0.0
  0
LWPOLYLINE
  5
1bc
100
AcDbEntity
  8
ink_ext_XXXXXX
 62
7
100
AcDbPolyline
 90
4
 70
0
 10
53.284261
 20
21.229779
 30
0.0
 10
53.481817
 20
21.427264
 30
0.0
 10
52.296483
 20
22.612632
 30
0.0
 10
52.098928
 20
22.415182
 30
0.0
  0
LWPOLYLINE
  5
1bd
100
AcDbEntity
  8
ink_ext_XXXXXX
 62
7
100
AcDbPolyline
 90
4
 70
0
 10
53.643389
 20
21.588906
 30
0.0
 10
53.840944
 20
21.786497
 30
0.0
 10
52.655611
 20
22.971901
 30
0.0
 10
52.458056
 20
22.774275
 30
0.0
  0
LWPOLYLINE
  5
1be
100
AcDbEntity
  8
ink_ext_XXXXXX
 62
7
100
AcDbPolyline
 90
4
 70
0
 10
54.002869
 20
21.948140
 30
0.0
 10
54.200425
 20
22.145766
 30
0.0
 10
53.015092
 20
23.331135
 30
0.0
 10
52.817183
 20
23.133685
 30
0.0
  0
LWPOLYLINE
  5
1bf
100
AcDbEntity
  8
ink_ext_XXXXXX
 62
7
100
AcDbPolyline
 90
4
 70
0
 10
54.344006
 20
22.289347
 30
0.0
 10
54.541561
 20
22.486973
 30
0.0
 10
53.356228
 20
23.672341
 30
0.0
 10
53.158672
 20
23.474892
 30
0.0
  0
LWPOLYLINE
  5
1c0
100
AcDbEntity
  8
ink_ext_XXXXXX
 62
7
100
AcDbPolyline
 90
4
 70
0
 10
54.703133
 20
22.648616
 30
0.0
 10
54.900689
 20
22.846206
 30
0.0
 10
53.715356
 20
24.031610
 30
0.0
 10
53.517800
 20
23.833984
 30
0.0
  0
LWPOLYLINE
  5
1c1
100
AcDbEntity
  8
ink_ext_XXXXXX
 62
7
100
AcDbPolyline
 90
4
 70
0
 10
55.062261
 20
23.007849
 30
0.0
 10
55.259817
 20
23.205334
 30
0.0
 10
54.074483
 20
24.390738
 30
0.0
 10
53.876928
 20
24.193253
 30
0.0
  0
LWPOLYLINE
  5
1c2
100
AcDbEntity
  8
ink_ext_XXXXXX
 62
7
100
AcDbPolyline
 90
4
 70
0
 10
55.403750
 20
23.349056
 30
0.0
 10
55.601306
 20
23.546682
 30
0.0
 10
54.415972
 20
24.732051
 30
0.0
 10
54.218064
 20
24.534460
 30
0.0
  0
LWPOLYLINE
  5
1c3
100
AcDbEntity
  8
ink_ext_XXXXXX
 62
7
100
AcDbPolyline
 90
4
 70
0
 10
55.762878
 20
23.708325
 30
0.0
 10
55.960433
 20
23.905916
 30
0.0
 10
54.775100
 20
25.091319
 30
0.0
 10
54.577544
 20
24.893693
 30
0.0
  0
LWPOLYLINE
  5
1c4
100
AcDbEntity
  8
ink_ext_XXXXXX
 62
7
100
AcDbPolyline
 90
4
 70
0
 10
56.122006
 20
24.067558
 30
0.0
 10
56.319561
 20
24.265043
 30
0.0
 10
55.134228
 20
25.450447
 30
0.0
 10
54.936672
 20
25.252962
 30
0.0
  0
LWPOLYLINE
  5
1c5
100
AcDbEntity
  8
ink_ext_XXXXXX
 62
7
100
AcDbPolyline
 90
4
 70
0
 10
56.463494
 20
24.408765
 30
0.0
 10
56.661050
 20
24.606250
 30
0.0
 10
55.475717
 20
25.791654
 30
0.0
 10
55.277808
 20
25.594169
 30
0.0
  0
LWPOLYLINE
  5
1c6
100
AcDbEntity
  8
ink_ext_XXXXXX
 62
7
100
AcDbPolyline
 90
4
 70
0
 10
56.822622
 20
24.768034
 30
0.0
 10
57.020178
 20
24.965660
 30
0.0
 10
55.834492
 20
26.151029
 30
0.0
 10
55.636936
 20
25.953438
 30
0.0
  0
LWPOLYLINE
  5
1c7
100
AcDbEntity
  8
ink_ext_XXXXXX
 62
7
100
AcDbPolyline
 90
4
 70
0
 10
57.181750
 20
25.127303
 30
0.0
 10
57.379306
 20
25.324752
 30
0.0
 10
56.193972
 20
26.510156
 30
0.0
 10
55.996417
 20
26.312671
 30
0.0
  0
LWPOLYLINE
  5
1c8
100
AcDbEntity
  8
ink_ext_XXXXXX
 62
7
100
AcDbPolyline
 90
4
 70
0
 10
57.540878
 20
25.486395
 30
0.0
 10
57.738433
 20
25.684021
 30
0.0
 10
56.553100
 20
26.869390
 30
0.0
 10
56.355544
 20
26.671799
 30
0.0
  0
LWPOLYLINE
  5
1c9
100
AcDbEntity
  8
ink_ext_XXXXXX
 62
7
100
AcDbPolyline
 90
4
 70
0
 10
57.882014
 20
25.827602
 30
0.0
 10
58.079569
 20
26.025228
 30
0.0
 10
56.894236
 20
27.210597
 30
0.0
 10
56.696681
 20
27.013006
 30
0.0
  0
LWPOLYLINE
  5
1ca
100
AcDbEntity
  8
ink_ext_XXXXXX
 62
7
100
AcDbPolyline
 90
4
 70
0
 10
58.079569
 20
29.311988
 30
0.0
 10
57.882014
 20
29.509579
 30
0.0
 10
56.696681
 20
28.324210
 30
0.0
 10
56.894236
 20
28.126584
 30
0.0
  0
LWPOLYLINE
  5
1cb
100
AcDbEntity
  8
ink_ext_XXXXXX
 62
7
100
AcDbPolyline
 90
4
 70
0
 10
57.738433
 20
29.653159
 30
0.0
 10
57.540878
 20
29.850786
 30
0.0
 10
56.355544
 20
28.665382
 30
0.0
 10
56.553100
 20
28.467791
 30
0.0
  0
LWPOLYLINE
  5
1cc
100
AcDbEntity
  8
ink_ext_XXXXXX
 62
7
100
AcDbPolyline
 90
4
 70
0
 10
57.379306
 20
30.012428
 30
0.0
 10
57.181750
 20
30.210054
 30
0.0
 10
55.996417
 20
29.024651
 30
0.0
 10
56.193972
 20
28.827060
 30
0.0
  0
LWPOLYLINE
  5
1cd
100
AcDbEntity
  8
ink_ext_XXXXXX
 62
7
100
AcDbPolyline
 90
4
 70
0
 10
57.020178
 20
30.371556
 30
0.0
 10
56.822622
 20
30.569147
 30
0.0
 10
55.636936
 20
29.383778
 30
0.0
 10
55.834492
 20
29.186152
 30
0.0
  0
LWPOLYLINE
  5
1ce
100
AcDbEntity
  8
ink_ext_XXXXXX
 62
7
100
AcDbPolyline
 90
4
 70
0
 10
56.661050
 20
30.730931
 30
0.0
 10
56.463494
 20
30.928416
 30
0.0
 10
55.277808
 20
29.743012
 30
0.0
 10
55.475717
 20
29.545562
 30
0.0
  0
LWPOLYLINE
  5
1cf
100
AcDbEntity
  8
ink_ext_XXXXXX
 62
7
100
AcDbPolyline
 90
4
 70
0
 10
56.319561
 20
31.072137
 30
0.0
 10
56.122006
 20
31.269622
 30
0.0
 10
54.936672
 20
30.084219
 30
0.0
 10
55.134228
 20
29.886769
 30
0.0
  0
LWPOLYLINE
  5
1d0
100
AcDbEntity
  8
ink_ext_XXXXXX
 62
7
100
AcDbPolyline
 90
4
 70
0
 10
55.960433
 20
31.431265
 30
0.0
 10
55.762878
 20
31.628856
 30
0.0
 10
54.577544
 20
30.443487
 30
0.0
 10
54.775100
 20
30.245861
 30
0.0
  0
LWPOLYLINE
  5
1d1
100
AcDbEntity
  8
ink_ext_XXXXXX
 62
7
100
AcDbPolyline
 90
4
 70
0
 10
55.601306
 20
31.790499
 30
0.0
 10
55.403750
 20
31.988125
 30
0.0
 10
54.218064
 20
30.802721
 30
0.0
 10
54.415972
 20
30.605130
 30
0.0
  0
LWPOLYLINE
  5
1d2
100
AcDbEntity
  8
ink_ext_XXXXXX
 62
7
100
AcDbPolyline
 90
4
 70
0
 10
55.259817
 20
32.131847
 30
0.0
 10
55.062261
 20
32.329332
 30
0.0
 10
53.876928
 20
31.143928
 30
0.0
 10
54.074483
 20
30.946478
 30
0.0
  0
LWPOLYLINE
  5
1d3
100
AcDbEntity
  8
ink_ext_XXXXXX
 62
7
100
AcDbPolyline
 90
4
 70
0
 10
54.900689
 20
32.490974
 30
0.0
 10
54.703133
 20
32.688565
 30
0.0
 10
53.517800
 20
31.503197
 30
0.0
 10
53.715356
 20
31.305571
 30
0.0
  0
LWPOLYLINE
  5
1d4
100
AcDbEntity
  8
ink_ext_XXXXXX
 62
7
100
AcDbPolyline
 90
4
 70
0
 10
54.541561
 20
32.850243
 30
0.0
 10
54.344006
 20
33.047834
 30
0.0
 10
53.158672
 20
31.862466
 30
0.0
 10
53.356228
 20
31.664839
 30
0.0
  0
LWPOLYLINE
  5
1d5
100
AcDbEntity
  8
ink_ext_XXXXXX
 62
7
100
AcDbPolyline
 90
4
 70
0
 10
54.200425
 20
33.191415
 30
0.0
 10
54.002869
 20
33.389041
 30
0.0
 10
52.817183
 20
32.203637
 30
0.0
 10
53.015092
 20
32.006046
 30
0.0
  0
LWPOLYLINE
  5
1d6
100
AcDbEntity
  8
ink_ext_XXXXXX
 62
7
100
AcDbPolyline
 90
4
 70
0
 10
53.840944
 20
33.550684
 30
0.0
 10
53.643389
 20
33.748310
 30
0.0
 10
52.458056
 20
32.562906
 30
0.0
 10
52.655611
 20
32.365280
 30
0.0
  0
LWPOLYLINE
  5
1d7
100
AcDbEntity
  8
ink_ext_XXXXXX
 62
7
100
AcDbPolyline
 90
4
 70
0
 10
53.481817
 20
33.909952
 30
0.0
 10
53.284261
 20
34.107543
 30
0.0
 10
52.098928
 20
32.922034
 30
0.0
 10
52.296483
 20
32.724549
 30
0.0
  0
LWPOLYLINE
  5
1d8
100
AcDbEntity
  8
ink_ext_XXXXXX
 62
7
100
AcDbPolyline
 90
4
 70
0
 10
53.140681
 20
34.251124
 30
0.0
 10
52.943125
 20
34.448609
 30
0.0
 10
51.757439
 20
33.263240
 30
0.0
 10
51.955347
 20
33.065755
 30
0.0
  0
LWPOLYLINE
  5
1d9
100
AcDbEntity
  8
ink_ext_XXXXXX
 62
7
100
AcDbPolyline
 90
4
 70
0
 10
52.781200
 20
34.610252
 30
0.0
 10
52.583997
 20
34.807878
 30
0.0
 10
51.398311
 20
33.622474
 30
0.0
 10
51.595867
 20
33.424883
 30
0.0
  0
LWPOLYLINE
  5
1da
100
AcDbEntity
  8
ink_ext_XXXXXX
 62
7
100
AcDbPolyline
 90
4
 70
0
 10
52.422072
 20
34.969521
 30
0.0
 10
52.224517
 20
35.167111
 30
0.0
 10
51.039183
 20
33.981743
 30
0.0
 10
51.236739
 20
33.784117
 30
0.0
  0
LWPOLYLINE
  5
1db
100
AcDbEntity
  8
ink_ext_XXXXXX
 62
7
100
AcDbPolyline
 90
4
 70
0
 10
52.080936
 20
35.310939
 30
0.0
 10
51.883381
 20
35.508494
 30
0.0
 10
50.698047
 20
34.322949
 30
0.0
 10
50.895603
 20
34.125464
 30
0.0
  0
LWPOLYLINE
  5
1dc
100
AcDbEntity
  8
ink_ext_XXXXXX
 62
7
100
AcDbPolyline
 90
4
 70
0
 10
51.721456
 20
35.670067
 30
0.0
 10
51.524253
 20
35.867622
 30
0.0
 10
50.338919
 20
34.682183
 30
0.0
 10
50.536122
 20
34.484592
 30
0.0
  0
LWPOLYLINE
  5
1dd
100
AcDbEntity
  8
ink_ext_XXXXXX
 62
7
100
AcDbPolyline
 90
4
 70
0
 10
51.362681
 20
36.029194
 30
0.0
 10
51.164772
 20
36.226750
 30
0.0
 10
49.979439
 20
35.041452
 30
0.0
 10
50.176994
 20
34.843826
 30
0.0
  0
LWPOLYLINE
  5
1de
100
AcDbEntity
  8
ink_ext_XXXXXX
 62
7
100
AcDbPolyline
 90
4
 70
0
 10
51.021192
 20
36.370683
 30
0.0
 10
50.823636
 20
36.567886
 30
0.0
 10
49.638303
 20
35.382553
 30
0.0
 10
49.835858
 20
35.185174
 30
0.0
  0
LWPOLYLINE
  5
1df
100
AcDbEntity
  8
ink_ext_XXXXXX
 62
7
100
AcDbPolyline
 90
4
 70
0
 10
50.662064
 20
36.729811
 30
0.0
 10
50.464508
 20
36.927367
 30
0.0
 10
49.279175
 20
35.742033
 30
0.0
 10
49.476378
 20
35.544125
 30
0.0
  0
LWPOLYLINE
  5
1e0
100
AcDbEntity
  8
ink_ext_XXXXXX
 62
7
100
AcDbPolyline
 90
4
 70
0
 10
50.302936
 20
37.088939
 30
0.0
 10
50.105028
 20
37.286494
 30
0.0
 10
48.919694
 20
36.101161
 30
0.0
 10
49.117250
 20
35.903606
 30
0.0
  0
LWPOLYLINE
  5
1e1
100
AcDbEntity
  8
ink_ext_XXXXXX
 62
7
100
AcDbPolyline
 90
4
 70
0
 10
49.943456
 20
37.448067
 30
0.0
 10
49.745900
 20
37.645622
 30
0.0
 10
48.560567
 20
36.460289
 30
0.0
 10
48.758122
 20
36.262733
 30
0.0
  0
LWPOLYLINE
  5
1e2
100
AcDbEntity
  8
ink_ext_XXXXXX
 62
7
100
AcDbPolyline
 90
4
 70
0
 10
49.602319
 20
37.789203
 30
0.0
 10
49.404764
 20
37.986758
 30
0.0
 10
48.219431
 20
36.801425
 30
0.0
 10
48.416986
 20
36.603869
 30
0.0
  0
LWPOLYLINE
  5
1e3
100
AcDbEntity
  8
ink_ext_XXXXXX
 62
7
100
AcDbPolyline
 90
4
 70
0
 10
47.105711
 20
36.603869
 30
0.0
 10
47.303267
 20
36.801425
 30
0.0
 10
46.117933
 20
37.986758
 30
0.0
 10
45.920378
 20
37.789203
 30
0.0
  0
LWPOLYLINE
  5
1e4
100
AcDbEntity
  8
ink_ext_XXXXXX
 62
7
100
AcDbPolyline
 90
4
 70
0
 10
46.764575
 20
36.262733
 30
0.0
 10
46.962131
 20
36.460289
 30
0.0
 10
45.776797
 20
37.645622
 30
0.0
 10
45.579242
 20
37.448067
 30
0.0
  0
LWPOLYLINE
  5
1e5
100
AcDbEntity
  8
ink_ext_XXXXXX
 62
7
100
AcDbPolyline
 90
4
 70
0
 10
46.405447
 20
35.903606
 30
0.0
 10
46.603003
 20
36.101161
 30
0.0
 10
45.417669
 20
37.286494
 30
0.0
 10
45.220114
 20
37.088939
 30
0.0
  0
LWPOLYLINE
  5
1e6
100
AcDbEntity
  8
ink_ext_XXXXXX
 62
7
100
AcDbPolyline
 90
4
 70
0
 10
46.046319
 20
35.544125
 30
0.0
 10
46.243875
 20
35.742033
 30
0.0
 10
45.058542
 20
36.927367
 30
0.0
 10
44.860633
 20
36.729811
 30
0.0
  0
LWPOLYLINE
  5
1e7
100
AcDbEntity
  8
ink_ext_XXXXXX
 62
7
100
AcDbPolyline
 90
4
 70
0
 10
45.686839
 20
35.185174
 30
0.0
 10
45.884394
 20
35.382553
 30
0.0
 10
44.699061
 20
36.567886
 30
0.0
 10
44.501506
 20
36.370683
 30
0.0
  0
LWPOLYLINE
  5
1e8
100
AcDbEntity
  8
ink_ext_XXXXXX
 62
7
100
AcDbPolyline
 90
4
 70
0
 10
45.345703
 20
34.843826
 30
0.0
 10
45.543258
 20
35.041452
 30
0.0
 10
44.357925
 20
36.226750
 30
0.0
 10
44.160369
 20
36.029194
 30
0.0
  0
LWPOLYLINE
  5
1e9
100
AcDbEntity
  8
ink_ext_XXXXXX
 62
7
100
AcDbPolyline
 90
4
 70
0
 10
44.986575
 20
34.484592
 30
0.0
 10
45.184131
 20
34.682183
 30
0.0
 10
43.998797
 20
35.867622
 30
0.0
 10
43.801242
 20
35.670067
 30
0.0
  0
LWPOLYLINE
  5
1ea
100
AcDbEntity
  8
ink_ext_XXXXXX
 62
7
100
AcDbPolyline
 90
4
 70
0
 10
44.627447
 20
34.125464
 30
0.0
 10
44.824650
 20
34.322949
 30
0.0
 10
43.639317
 20
35.508494
 30
0.0
 10
43.442114
 20
35.310939
 30
0.0
  0
LWPOLYLINE
  5
1eb
100
AcDbEntity
  8
ink_ext_XXXXXX
 62
7
100
AcDbPolyline
 90
4
 70
0
 10
44.285958
 20
33.784117
 30
0.0
 10
44.483514
 20
33.981743
 30
0.0
 10
43.298181
 20
35.167111
 30
0.0
 10
43.100625
 20
34.969521
 30
0.0
  0
LWPOLYLINE
  5
1ec
100
AcDbEntity
  8
ink_ext_XXXXXX
 62
7
100
AcDbPolyline
 90
4
 70
0
 10
43.926831
 20
33.424883
 30
0.0
 10
44.124386
 20
33.622474
 30
0.0
 10
42.939053
 20
34.807878
 30
0.0
 10
42.741497
 20
34.610252
 30
0.0
  0
LWPOLYLINE
  5
1ed
100
AcDbEntity
  8
ink_ext_XXXXXX
 62
7
100
AcDbPolyline
 90
4
 70
0
 10
43.567703
 20
33.065755
 30
0.0
 10
43.765258
 20
33.263240
 30
0.0
 10
42.579572
 20
34.448609
 30
0.0
 10
42.382369
 20
34.251124
 30
0.0
  0
LWPOLYLINE
  5
1ee
100
AcDbEntity
  8
ink_ext_XXXXXX
 62
7
100
AcDbPolyline
 90
4
 70
0
 10
43.226567
 20
32.724549
 30
0.0
 10
43.423769
 20
32.922034
 30
0.0
 10
42.238436
 20
34.107543
 30
0.0
 10
42.040881
 20
33.909952
 30
0.0
  0
LWPOLYLINE
  5
1ef
100
AcDbEntity
  8
ink_ext_XXXXXX
 62
7
100
AcDbPolyline
 90
4
 70
0
 10
42.867086
 20
32.365280
 30
0.0
 10
43.064642
 20
32.562906
 30
0.0
 10
41.879308
 20
33.748310
 30
0.0
 10
41.681753
 20
33.550684
 30
0.0
  0
LWPOLYLINE
  5
1f0
100
AcDbEntity
  8
ink_ext_XXXXXX
 62
7
100
AcDbPolyline
 90
4
 70
0
 10
42.507958
 20
32.006046
 30
0.0
 10
42.705514
 20
32.203637
 30
0.0
 10
41.520181
 20
33.389041
 30
0.0
 10
41.322625
 20
33.191415
 30
0.0
  0
LWPOLYLINE
  5
1f1
100
AcDbEntity
  8
ink_ext_XXXXXX
 62
7
100
AcDbPolyline
 90
4
 70
0
 10
42.166822
 20
31.664839
 30
0.0
 10
42.364378
 20
31.862466
 30
0.0
 10
41.179044
 20
33.047834
 30
0.0
 10
40.981489
 20
32.850243
 30
0.0
  0
LWPOLYLINE
  5
1f2
100
AcDbEntity
  8
ink_ext_XXXXXX
 62
7
100
AcDbPolyline
 90
4
 70
0
 10
41.807342
 20
31.305571
 30
0.0
 10
42.005250
 20
31.503197
 30
0.0
 10
40.819564
 20
32.688565
 30
0.0
 10
40.622008
 20
32.490974
 30
0.0
  0
LWPOLYLINE
  5
1f3
100
AcDbEntity
  8
ink_ext_XXXXXX
 62
7
100
AcDbPolyline
 90
4
 70
0
 10
41.448214
 20
30.946478
 30
0.0
 10
41.645769
 20
31.143928
 30
0.0
 10
40.460436
 20
32.329332
 30
0.0
 10
40.262881
 20
32.131847
 30
0.0
  0
LWPOLYLINE
  5
1f4
100
AcDbEntity
  8
ink_ext_XXXXXX
 62
7
100
AcDbPolyline
 90
4
 70
0
 10
41.107078
 20
30.605130
 30
0.0
 10
41.304633
 20
30.802721
 30
0.0
 10
40.119300
 20
31.988125
 30
0.0
 10
39.921744
 20
31.790499
 30
0.0
  0
LWPOLYLINE
  5
1f5
100
AcDbEntity
  8
ink_ext_XXXXXX
 62
7
100
AcDbPolyline
 90
4
 70
0
 10
40.747597
 20
30.245861
 30
0.0
 10
40.945506
 20
30.443487
 30
0.0
 10
39.759819
 20
31.628856
 30
0.0
 10
39.562264
 20
31.431265
 30
0.0
  0
LWPOLYLINE
  5
1f6
100
AcDbEntity
  8
ink_ext_XXXXXX
 62
7
100
AcDbPolyline
 90
4
 70
0
 10
40.388822
 20
29.886769
 30
0.0
 10
40.586025
 20
30.084219
 30
0.0
 10
39.400692
 20
31.269622
 30
0.0
 10
39.203136
 20
31.072137
 30
0.0
  0
LWPOLYLINE
  5
1f7
100
AcDbEntity
  8
ink_ext_XXXXXX
 62
7
100
AcDbPolyline
 90
4
 70
0
 10
40.047333
 20
29.545562
 30
0.0
 10
40.244889
 20
29.743012
 30
0.0
 10
39.059556
 20
30.928416
 30
0.0
 10
38.862000
 20
30.730931
 30
0.0
  0
LWPOLYLINE
  5
1f8
100
AcDbEntity
  8
ink_ext_XXXXXX
 62
7
100
AcDbPolyline
 90
4
 70
0
 10
39.688206
 20
29.186152
 30
0.0
 10
39.885761
 20
29.383778
 30
0.0
 10
38.700428
 20
30.569147
 30
0.0
 10
38.502519
 20
30.371556
 30
0.0
  0
LWPOLYLINE
  5
1f9
100
AcDbEntity
  8
ink_ext_XXXXXX
 62
7
100
AcDbPolyline
 90
4
 70
0
 10
39.329078
 20
28.827060
 30
0.0
 10
39.526633
 20
29.024651
 30
0.0
 10
38.340947
 20
30.210054
 30
0.0
 10
38.143392
 20
30.012428
 30
0.0
  0
LWPOLYLINE
  5
1fa
100
AcDbEntity
  8
ink_ext_XXXXXX
 62
7
100
AcDbPolyline
 90
4
 70
0
 10
38.969597
 20
28.467791
 30
0.0
 10
39.167153
 20
28.665382
 30
0.0
 10
37.981819
 20
29.850786
 30
0.0
 10
37.784264
 20
29.653159
 30
0.0
  0
LWPOLYLINE
  5
1fb
100
AcDbEntity
  8
ink_ext_XXXXXX
 62
7
100
AcDbPolyline
 90
4
 70
0
 10
38.628461
 20
28.126584
 30
0.0
 10
38.826017
 20
28.324210
 30
0.0
 10
37.640683
 20
29.509579
 30
0.0
 10
37.443128
 20
29.311988
 30
0.0
  0
LWPOLYLINE
  5
1fc
100
AcDbEntity
  8
ink_ext_XXXXXX
 62
7
100
AcDbPolyline
 90
4
 70
0
 10
52.388206
 20
38.160325
 30
0.0
 10
53.166081
 20
38.938200
 30
0.0
 10
52.458761
 20
39.645167
 30
0.0
 10
51.681239
 20
38.867292
 30
0.0
  0
LWPOLYLINE
  5
1fd
100
AcDbEntity
  8
ink_ext_XXXXXX
 62
7
100
AcDbPolyline
 90
4
 70
0
 10
51.186292
 20
36.958411
 30
0.0
 10
51.964167
 20
37.736286
 30
0.0
 10
51.256847
 20
38.443253
 30
0.0
 10
50.479325
 20
37.665378
 30
0.0
  0
LWPOLYLINE
  5
1fe
100
AcDbEntity
  8
ink_ext_XXXXXX
 62
7
100
AcDbPolyline
 90
4
 70
0
 10
41.729731
 20
19.529954
 30
0.0
 10
40.951856
 20
20.307723
 30
0.0
 10
39.679033
 20
19.034972
 30
0.0
 10
40.456908
 20
18.257203
 30
0.0
  0
LWPOLYLINE
  5
1ff
100
AcDbEntity
  8
ink_ext_XXXXXX
 62
7
100
AcDbPolyline
 90
4
 70
0
 10
40.400464
 20
20.858939
 30
0.0
 10
39.622589
 20
21.636849
 30
0.0
 10
38.350119
 20
20.363956
 30
0.0
 10
39.127642
 20
19.586187
 30
0.0
  0
LWPOLYLINE
  5
200
100
AcDbEntity
  8
ink_ext_XXXXXX
 62
7
100
AcDbPolyline
 90
4
 70
0
 10
35.355389
 20
21.122287
 30
0.0
 10
34.577443
 20
21.900056
 30
0.0
 10
33.870371
 20
21.192984
 30
0.0
 10
34.648140
 20
20.415074
 30
0.0
  0
LWPOLYLINE
  5
201
100
AcDbEntity
  8
ink_ext_XXXXXX
 62
7
100
AcDbPolyline
 90
4
 70
0
 10
36.557303
 20
19.920232
 30
0.0
 10
35.779428
 20
20.698001
 30
0.0
 10
35.072320
 20
19.990929
 30
0.0
 10
35.850336
 20
19.213160
 30
0.0
  0
LWPOLYLINE
  5
202
100
AcDbEntity
  8
ink_ext_XXXXXX
 62
7
100
AcDbPolyline
 90
4
 70
0
 10
38.116933
 20
21.304744
 30
0.0
 10
36.738278
 20
22.683611
 30
0.0
 10
35.677475
 20
21.622949
 30
0.0
 10
37.056483
 20
20.244223
 30
0.0
  0
LWPOLYLINE
  5
203
100
AcDbEntity
  8
ink_ext_XXXXXX
 62
7
100
AcDbPolyline
 90
4
 70
0
 10
36.172422
 20
23.249431
 30
0.0
 10
34.793520
 20
24.628299
 30
0.0
 10
33.732999
 20
23.567637
 30
0.0
 10
35.111866
 20
22.188770
 30
0.0
  0
LWPOLYLINE
  5
204
100
AcDbEntity
  8
ink_ext_XXXXXX
 62
7
100
AcDbPolyline
 90
4
 70
0
 10
59.856158
 20
23.220504
 30
0.0
 10
59.361211
 20
23.715486
 30
0.0
 10
58.724800
 20
23.079110
 30
0.0
 10
59.220100
 20
22.584128
 30
0.0
  0
LWPOLYLINE
  5
205
100
AcDbEntity
  8
ink_ext_XXXXXX
 62
7
100
AcDbPolyline
 90
4
 70
0
 10
60.775497
 20
22.301341
 30
0.0
 10
60.280550
 20
22.796324
 30
0.0
 10
59.644139
 20
22.159948
 30
0.0
 10
60.139086
 20
21.664965
 30
0.0
  0
LWPOLYLINE
  5
206
100
AcDbEntity
  8
ink_ext_XXXXXX
 62
7
100
AcDbPolyline
 90
4
 70
0
 10
60.778672
 20
24.117476
 30
0.0
 10
60.283725
 20
24.612459
 30
0.0
 10
59.647314
 20
23.976083
 30
0.0
 10
60.142261
 20
23.481065
 30
0.0
  0
LWPOLYLINE
  5
207
100
AcDbEntity
  8
ink_ext_XXXXXX
 62
7
100
AcDbPolyline
 90
4
 70
0
 10
61.698011
 20
23.198314
 30
0.0
 10
61.203064
 20
23.693296
 30
0.0
 10
60.566653
 20
23.056921
 30
0.0
 10
61.061600
 20
22.561938
 30
0.0
  0
LWPOLYLINE
  5
208
100
AcDbEntity
  8
ink_ext_XXXXXX
 62
7
100
AcDbPolyline
 90
5
 70
0
 10
16.538258
 20
24.201931
 30
0.0
 10
16.241007
 20
24.201931
 30
0.0
 10
16.241007
 20
24.057257
 30
0.0
 10
16.538258
 20
24.057257
 30
0.0
 10
16.538258
 20
24.201931
 30
0.0
  0
LWPOLYLINE
  5
209
100
AcDbEntity
  8
ink_ext_XXXXXX
 62
7
100
AcDbPolyline
 90
6
 70
1
 10
16.215642
 20
24.031751
 30
0.0
 10
16.563597
 20
24.031751
 30
0.0
 10
16.563597
 20
24.227433
 30
0.0
 10
16.215642
 20
24.227433
 30
0.0
 10
16.215642
 20
24.031751
 30
0.0
 10
16.215642
 20
24.031751
 30
0.0
  0
LWPOLYLINE
  5
20a
100
AcDbEntity
  8
ink_ext_XXXXXX
 62
7
100
AcDbPolyline
 90
5
 70
0
 10
17.808257
 20
24.201931
 30
0.0
 10
17.511007
 20
24.201931
 30
0.0
 10
17.511007
 20
24.057257
 30
0.0
 10
17.808257
 20
24.057257
 30
0.0
 10
17.808257
 20
24.201931
 30
0.0
  0
LWPOLYLINE
  5
20b
100
AcDbEntity
  8
ink_ext_XXXXXX
 62
7
100
AcDbPolyline
 90
6
 70
1
 10
17.485642
 20
24.031751
 30
0.0
 10
17.833597
 20
24.031751
 30
0.0
 10
17.833597
 20
24.227433
 30
0.0
 10
17.485642
 20
24.227433
 30
0.0
 10
17.485642
 20
24.031751
 30
0.0
 10
17.485642
 20
24.031751
 30
0.0
  0
LWPOLYLINE
  5
20c
100
AcDbEntity
  8
ink_ext_XXXXXX
 62
7
100
AcDbPolyline
 90
5
 70
0
 10
16.952207
 20
24.278131
 30
0.0
 10
16.952207
 20
23.981022
 30
0.0
 10
17.097057
 20
23.981022
 30
0.0
 10
17.097057
 20
24.278131
 30
0.0
 10
16.952207
 20
24.278131
 30
0.0
  0
LWPOLYLINE
  5
20d
100
AcDbEntity
  8
ink_ext_XXXXXX
 62
7
100
AcDbPolyline
 90
6
 70
1
 10
16.926842
 20
23.955551
 30
0.0
 10
17.122386
 20
23.955551
 30
0.0
 10
17.122386
 20
24.303644
 30
0.0
 10
16.926842
 20
24.303644
 30
0.0
 10
16.926842
 20
23.955551
 30
0.0
 10
16.926842
 20
23.955551
 30
0.0
  0
LWPOLYLINE
  5
20e
100
AcDbEntity
  8
ink_ext_XXXXXX
 62
7
100
AcDbPolyline
 90
6
 70
1
 10
12.615933
 20
36.567886
 30
0.0
 10
12.866047
 20
36.567886
 30
0.0
 10
12.866047
 20
37.242849
 30
0.0
 10
12.615933
 20
37.242849
 30
0.0
 10
12.615933
 20
36.567886
 30
0.0
 10
12.615933
 20
36.567886
 30
0.0
  0
LWPOLYLINE
  5
20f
100
AcDbEntity
  8
ink_ext_XXXXXX
 62
7
100
AcDbPolyline
 90
6
 70
1
 10
13.116031
 20
36.567886
 30
0.0
 10
13.366007
 20
36.567886
 30
0.0
 10
13.366007
 20
37.242849
 30
0.0
 10
13.116031
 20
37.242849
 30
0.0
 10
13.116031
 20
36.567886
 30
0.0
 10
13.116031
 20
36.567886
 30
0.0
  0
LWPOLYLINE
  5
210
100
AcDbEntity
  8
ink_ext_XXXXXX
 62
7
100
AcDbPolyline
 90
6
 70
1
 10
13.615987
 20
36.567886
 30
0.0
 10
13.865964
 20
36.567886
 30
0.0
 10
13.865964
 20
37.242849
 30
0.0
 10
13.615987
 20
37.242849
 30
0.0
 10
13.615987
 20
36.567886
 30
0.0
 10
13.615987
 20
36.567886
 30
0.0
  0
LWPOLYLINE
  5
211
100
AcDbEntity
  8
ink_ext_XXXXXX
 62
7
100
AcDbPolyline
 90
6
 70
1
 10
14.115944
 20
36.567886
 30
0.0
 10
14.366058
 20
36.567886
 30
0.0
 10
14.366058
 20
37.242849
 30
0.0
 10
14.115944
 20
37.242849
 30
0.0
 10
14.115944
 20
36.567886
 30
0.0
 10
14.115944
 20
36.567886
 30
0.0
  0
LWPOLYLINE
  5
212
100
AcDbEntity
  8
ink_ext_XXXXXX
 62
7
100
AcDbPolyline
 90
6
 70
1
 10
14.616007
 20
36.567886
 30
0.0
 10
14.865983
 20
36.567886
 30
0.0
 10
14.865983
 20
37.242849
 30
0.0
 10
14.616007
 20
37.242849
 30
0.0
 10
14.616007
 20
36.567886
 30
0.0
 10
14.616007
 20
36.567886
 30
0.0
  0
LWPOLYLINE
  5
213
100
AcDbEntity
  8
ink_ext_XXXXXX
 62
7
100
AcDbPolyline
 90
6
 70
1
 10
15.115963
 20
36.567886
 30
0.0
 10
15.365940
 20
36.567886
 30
0.0
 10
15.365940
 20
37.242849
 30
0.0
 10
15.115963
 20
37.242849
 30
0.0
 10
15.115963
 20
36.567886
 30
0.0
 10
15.115963
 20
36.567886
 30
0.0
  0
LWPOLYLINE
  5
214
100
AcDbEntity
  8
ink_ext_XXXXXX
 62
7
100
AcDbPolyline
 90
6
 70
1
 10
12.115976
 20
36.567886
 30
0.0
 10
12.365953
 20
36.567886
 30
0.0
 10
12.365953
 20
37.242849
 30
0.0
 10
12.115976
 20
37.242849
 30
0.0
 10
12.115976
 20
36.567886
 30
0.0
 10
12.115976
 20
36.567886
 30
0.0
  0
LWPOLYLINE
  5
215
100
AcDbEntity
  8
ink_ext_XXXXXX
 62
7
100
AcDbPolyline
 90
6
 70
1
 10
11.616020
 20
36.567886
 30
0.0
 10
11.865996
 20
36.567886
 30
0.0
 10
11.865996
 20
37.242849
 30
0.0
 10
11.616020
 20
37.242849
 30
0.0
 10
11.616020
 20
36.567886
 30
0.0
 10
11.616020
 20
36.567886
 30
0.0
  0
LWPOLYLINE
  5
216
100
AcDbEntity
  8
ink_ext_XXXXXX
 62
7
100
AcDbPolyline
 90
6
 70
1
 10
11.115957
 20
36.567886
 30
0.0
 10
11.366071
 20
36.567886
 30
0.0
 10
11.366071
 20
37.242849
 30
0.0
 10
11.115957
 20
37.242849
 30
0.0
 10
11.115957
 20
36.567886
 30
0.0
 10
11.115957
 20
36.567886
 30
0.0
  0
LWPOLYLINE
  5
217
100
AcDbEntity
  8
ink_ext_XXXXXX
 62
7
100
AcDbPolyline
 90
6
 70
1
 10
10.616001
 20
36.567886
 30
0.0
 10
10.865977
 20
36.567886
 30
0.0
 10
10.865977
 20
37.242849
 30
0.0
 10
10.616001
 20
37.242849
 30
0.0
 10
10.616001
 20
36.567886
 30
0.0
 10
10.616001
 20
36.567886
 30
0.0
  0
LWPOLYLINE
  5
218
100
AcDbEntity
  8
ink_ext_XXXXXX
 62
7
100
AcDbPolyline
 90
6
 70
1
 10
12.615933
 20
39.895286
 30
0.0
 10
12.866047
 20
39.895286
 30
0.0
 10
12.866047
 20
40.570249
 30
0.0
 10
12.615933
 20
40.570249
 30
0.0
 10
12.615933
 20
39.895286
 30
0.0
 10
12.615933
 20
39.895286
 30
0.0
  0
LWPOLYLINE
  5
219
100
AcDbEntity
  8
ink_ext_XXXXXX
 62
7
100
AcDbPolyline
 90
6
 70
1
 10
13.116031
 20
39.895286
 30
0.0
 10
13.366007
 20
39.895286
 30
0.0
 10
13.366007
 20
40.570249
 30
0.0
 10
13.116031
 20
40.570249
 30
0.0
 10
13.116031
 20
39.895286
 30
0.0
 10
13.116031
 20
39.895286
 30
0.0
  0
LWPOLYLINE
  5
21a
100
AcDbEntity
  8
ink_ext_XXXXXX
 62
7
100
AcDbPolyline
 90
6
 70
1
 10
13.615987
 20
39.895286
 30
0.0
 10
13.865964
 20
39.895286
 30
0.0
 10
13.865964
 20
40.570249
 30
0.0
 10
13.615987
 20
40.570249
 30
0.0
 10
13.615987
 20
39.895286
 30
0.0
 10
13.615987
 20
39.895286
 30
0.0
  0
LWPOLYLINE
  5
21b
100
AcDbEntity
  8
ink_ext_XXXXXX
 62
7
100
AcDbPolyline
 90
6
 70
1
 10
14.115944
 20
39.895286
 30
0.0
 10
14.366058
 20
39.895286
 30
0.0
 10
14.366058
 20
40.570249
 30
0.0
 10
14.115944
 20
40.570249
 30
0.0
 10
14.115944
 20
39.895286
 30
0.0
 10
14.115944
 20
39.895286
 30
0.0
  0
LWPOLYLINE
  5
21c
100
AcDbEntity
  8
ink_ext_XXXXXX
 62
7
100
AcDbPolyline
 90
6
 70
1
 10
14.616007
 20
39.895286
 30
0.0
 10
14.865983
 20
39.895286
 30
0.0
 10
14.865983
 20
40.570249
 30
0.0
 10
14.616007
 20
40.570249
 30
0.0
 10
14.616007
 20
39.895286
 30
0.0
 10
14.616007
 20
39.895286
 30
0.0
  0
LWPOLYLINE
  5
21d
100
AcDbEntity
  8
ink_ext_XXXXXX
 62
7
100
AcDbPolyline
 90
6
 70
1
 10
15.115963
 20
39.895286
 30
0.0
 10
15.365940
 20
39.895286
 30
0.0
 10
15.365940
 20
40.570249
 30
0.0
 10
15.115963
 20
40.570249
 30
0.0
 10
15.115963
 20
39.895286
 30
0.0
 10
15.115963
 20
39.895286
 30
0.0
  0
LWPOLYLINE
  5
21e
100
AcDbEntity
  8
ink_ext_XXXXXX
 62
7
100
AcDbPolyline
 90
6
 70
1
 10
12.115976
 20
39.895286
 30
0.0
 10
12.365953
 20
39.895286
 30
0.0
 10
12.365953
 20
40.570249
 30
0.0
 10
12.115976
 20
40.570249
 30
0.0
 10
12.115976
 20
39.895286
 30
0.0
 10
12.115976
 20
39.895286
 30
0.0
  0
LWPOLYLINE
  5
21f
100
AcDbEntity
  8
ink_ext_XXXXXX
 62
7
100
AcDbPolyline
 90
6
 70
1
 10
11.616020
 20
39.895286
 30
0.0
 10
11.865996
 20
39.895286
 30
0.0
 10
11.865996
 20
40.570249
 30
0.0
 10
11.616020
 20
40.570249
 30
0.0
 10
11.616020
 20
39.895286
 30
0.0
 10
11.616020
 20
39.895286
 30
0.0
  0
LWPOLYLINE
  5
220
100
AcDbEntity
  8
ink_ext_XXXXXX
 62
7
100
AcDbPolyline
 90
6
 70
1
 10
11.115957
 20
39.895286
 30
0.0
 10
11.366071
 20
39.895286
 30
0.0
 10
11.366071
 20
40.570249
 30
0.0
 10
11.115957
 20
40.570249
 30
0.0
 10
11.115957
 20
39.895286
 30
0.0
 10
11.115957
 20
39.895286
 30
0.0
  0
LWPOLYLINE
  5
221
100
AcDbEntity
  8
ink_ext_XXXXXX
 62
7
100
AcDbPolyline
 90
6
 70
1
 10
10.616001
 20
39.895286
 30
0.0
 10
10.865977
 20
39.895286
 30
0.0
 10
10.865977
 20
40.570249
 30
0.0
 10
10.616001
 20
40.570249
 30
0.0
 10
10.616001
 20
39.895286
 30
0.0
 10
10.616001
 20
39.895286
 30
0.0
  0
LWPOLYLINE
  5
222
100
AcDbEntity
  8
ink_ext_XXXXXX
 62
7
100
AcDbPolyline
 90
6
 70
1
 10
15.016057
 20
38.195250
 30
0.0
 10
15.691019
 20
38.195250
 30
0.0
 10
15.691019
 20
38.445225
 30
0.0
 10
15.016057
 20
38.445225
 30
0.0
 10
15.016057
 20
38.195250
 30
0.0
 10
15.016057
 20
38.195250
 30
0.0
  0
LWPOLYLINE
  5
223
100
AcDbEntity
  8
ink_ext_XXXXXX
 62
7
100
AcDbPolyline
 90
6
 70
1
 10
15.016057
 20
38.695489
 30
0.0
 10
15.691019
 20
38.695489
 30
0.0
 10
15.691019
 20
38.945464
 30
0.0
 10
15.016057
 20
38.945464
 30
0.0
 10
15.016057
 20
38.695489
 30
0.0
 10
15.016057
 20
38.695489
 30
0.0
  0
LWPOLYLINE
  5
224
100
AcDbEntity
  8
ink_ext_XXXXXX
 62
7
100
AcDbPolyline
 90
6
 70
1
 10
15.016057
 20
39.195375
 30
0.0
 10
15.691019
 20
39.195375
 30
0.0
 10
15.691019
 20
39.445350
 30
0.0
 10
15.016057
 20
39.445350
 30
0.0
 10
15.016057
 20
39.195375
 30
0.0
 10
15.016057
 20
39.195375
 30
0.0
  0
LWPOLYLINE
  5
225
100
AcDbEntity
  8
ink_ext_XXXXXX
 62
7
100
AcDbPolyline
 90
6
 70
1
 10
15.016057
 20
37.695364
 30
0.0
 10
15.691019
 20
37.695364
 30
0.0
 10
15.691019
 20
37.945339
 30
0.0
 10
15.016057
 20
37.945339
 30
0.0
 10
15.016057
 20
37.695364
 30
0.0
 10
15.016057
 20
37.695364
 30
0.0
  0
LWPOLYLINE
  5
226
100
AcDbEntity
  8
ink_ext_XXXXXX
 62
7
100
AcDbPolyline
 90
6
 70
1
 10
10.291057
 20
38.195250
 30
0.0
 10
10.966020
 20
38.195250
 30
0.0
 10
10.966020
 20
38.445225
 30
0.0
 10
10.291057
 20
38.445225
 30
0.0
 10
10.291057
 20
38.195250
 30
0.0
 10
10.291057
 20
38.195250
 30
0.0
  0
LWPOLYLINE
  5
227
100
AcDbEntity
  8
ink_ext_XXXXXX
 62
7
100
AcDbPolyline
 90
6
 70
1
 10
10.291057
 20
38.695489
 30
0.0
 10
10.966020
 20
38.695489
 30
0.0
 10
10.966020
 20
38.945464
 30
0.0
 10
10.291057
 20
38.945464
 30
0.0
 10
10.291057
 20
38.695489
 30
0.0
 10
10.291057
 20
38.695489
 30
0.0
  0
LWPOLYLINE
  5
228
100
AcDbEntity
  8
ink_ext_XXXXXX
 62
7
100
AcDbPolyline
 90
6
 70
1
 10
10.291057
 20
39.195375
 30
0.0
 10
10.966020
 20
39.195375
 30
0.0
 10
10.966020
 20
39.445350
 30
0.0
 10
10.291057
 20
39.445350
 30
0.0
 10
10.291057
 20
39.195375
 30
0.0
 10
10.291057
 20
39.195375
 30
0.0
  0
LWPOLYLINE
  5
229
100
AcDbEntity
  8
ink_ext_XXXXXX
 62
7
100
AcDbPolyline
 90
6
 70
1
 10
10.291057
 20
37.695364
 30
0.0
 10
10.966020
 20
37.695364
 30
0.0
 10
10.966020
 20
37.945339
 30
0.0
 10
10.291057
 20
37.945339
 30
0.0
 10
10.291057
 20
37.695364
 30
0.0
 10
10.291057
 20
37.695364
 30
0.0
  0
LWPOLYLINE
  5
22a
100
AcDbEntity
  8
ink_ext_XXXXXX
 62
7
100
AcDbPolyline
 90
6
 70
1
 10
11.319051
 20
33.376376
 30
0.0
 10
12.318958
 20
33.376376
 30
0.0
 10
12.318958
 20
34.476464
 30
0.0
 10
11.319051
 20
34.476464
 30
0.0
 10
11.319051
 20
33.376376
 30
0.0
 10
11.319051
 20
33.376376
 30
0.0
  0
LWPOLYLINE
  5
22b
100
AcDbEntity
  8
ink_ext_XXXXXX
 62
7
100
AcDbPolyline
 90
6
 70
1
 10
11.319051
 20
35.076448
 30
0.0
 10
12.318958
 20
35.076448
 30
0.0
 10
12.318958
 20
36.176398
 30
0.0
 10
11.319051
 20
36.176398
 30
0.0
 10
11.319051
 20
35.076448
 30
0.0
 10
11.319051
 20
35.076448
 30
0.0
  0
LWPOLYLINE
  5
22c
100
AcDbEntity
  8
ink_ext_XXXXXX
 62
7
100
AcDbPolyline
 90
6
 70
1
 10
7.906209
 20
37.435367
 30
0.0
 10
9.006159
 20
37.435367
 30
0.0
 10
9.006159
 20
38.435411
 30
0.0
 10
7.906209
 20
38.435411
 30
0.0
 10
7.906209
 20
37.435367
 30
0.0
 10
7.906209
 20
37.435367
 30
0.0
  0
LWPOLYLINE
  5
22d
100
AcDbEntity
  8
ink_ext_XXXXXX
 62
7
100
AcDbPolyline
 90
6
 70
1
 10
6.206137
 20
37.435367
 30
0.0
 10
7.306225
 20
37.435367
 30
0.0
 10
7.306225
 20
38.435411
 30
0.0
 10
6.206137
 20
38.435411
 30
0.0
 10
6.206137
 20
37.435367
 30
0.0
 10
6.206137
 20
37.435367
 30
0.0
  0
LWPOLYLINE
  5
22e
100
AcDbEntity
  8
ink_ext_XXXXXX
 62
7
100
AcDbPolyline
 90
6
 70
1
 10
12.551163
 20
41.680342
 30
0.0
 10
13.251208
 20
41.680342
 30
0.0
 10
13.251208
 20
43.080291
 30
0.0
 10
12.551163
 20
43.080291
 30
0.0
 10
12.551163
 20
41.680342
 30
0.0
 10
12.551163
 20
41.680342
 30
0.0
  0
LWPOLYLINE
  5
22f
100
AcDbEntity
  8
ink_ext_XXXXXX
 62
7
100
AcDbPolyline
 90
6
 70
1
 10
10.851233
 20
41.680342
 30
0.0
 10
11.551278
 20
41.680342
 30
0.0
 10
11.551278
 20
43.080291
 30
0.0
 10
10.851233
 20
43.080291
 30
0.0
 10
10.851233
 20
41.680342
 30
0.0
 10
10.851233
 20
41.680342
 30
0.0
  0
LWPOLYLINE
  5
230
100
AcDbEntity
  8
ink_ext_XXXXXX
 62
7
100
AcDbPolyline
 90
6
 70
1
 10
9.070940
 20
41.896242
 30
0.0
 10
10.171028
 20
41.896242
 30
0.0
 10
10.171028
 20
42.896286
 30
0.0
 10
9.070940
 20
42.896286
 30
0.0
 10
9.070940
 20
41.896242
 30
0.0
 10
9.070940
 20
41.896242
 30
0.0
  0
LWPOLYLINE
  5
231
100
AcDbEntity
  8
ink_ext_XXXXXX
 62
7
100
AcDbPolyline
 90
6
 70
1
 10
7.370974
 20
41.896242
 30
0.0
 10
8.470925
 20
41.896242
 30
0.0
 10
8.470925
 20
42.896286
 30
0.0
 10
7.370974
 20
42.896286
 30
0.0
 10
7.370974
 20
41.896242
 30
0.0
 10
7.370974
 20
41.896242
 30
0.0
  0
LWPOLYLINE
  5
232
100
AcDbEntity
  8
ink_ext_XXXXXX
 62
7
100
AcDbPolyline
 90
6
 70
1
 10
13.924245
 20
41.896242
 30
0.0
 10
15.024195
 20
41.896242
 30
0.0
 10
15.024195
 20
42.896286
 30
0.0
 10
13.924245
 20
42.896286
 30
0.0
 10
13.924245
 20
41.896242
 30
0.0
 10
13.924245
 20
41.896242
 30
0.0
  0
LWPOLYLINE
  5
233
100
AcDbEntity
  8
ink_ext_XXXXXX
 62
7
100
AcDbPolyline
 90
6
 70
1
 10
15.624210
 20
41.896242
 30
0.0
 10
16.724161
 20
41.896242
 30
0.0
 10
16.724161
 20
42.896286
 30
0.0
 10
15.624210
 20
42.896286
 30
0.0
 10
15.624210
 20
41.896242
 30
0.0
 10
15.624210
 20
41.896242
 30
0.0
  0
LWPOLYLINE
  5
234
100
AcDbEntity
  8
ink_ext_XXXXXX
 62
7
100
AcDbPolyline
 90
6
 70
1
 10
7.906209
 20
39.975367
 30
0.0
 10
9.006159
 20
39.975367
 30
0.0
 10
9.006159
 20
40.975411
 30
0.0
 10
7.906209
 20
40.975411
 30
0.0
 10
7.906209
 20
39.975367
 30
0.0
 10
7.906209
 20
39.975367
 30
0.0
  0
LWPOLYLINE
  5
235
100
AcDbEntity
  8
ink_ext_XXXXXX
 62
7
100
AcDbPolyline
 90
6
 70
1
 10
6.206137
 20
39.975367
 30
0.0
 10
7.306225
 20
39.975367
 30
0.0
 10
7.306225
 20
40.975411
 30
0.0
 10
6.206137
 20
40.975411
 30
0.0
 10
6.206137
 20
39.975367
 30
0.0
 10
6.206137
 20
39.975367
 30
0.0
  0
LWPOLYLINE
  5
236
100
AcDbEntity
  8
ink_ext_XXXXXX
 62
7
100
AcDbPolyline
 90
6
 70
1
 10
13.097827
 20
33.426400
 30
0.0
 10
14.197778
 20
33.426400
 30
0.0
 10
14.197778
 20
34.426444
 30
0.0
 10
13.097827
 20
34.426444
 30
0.0
 10
13.097827
 20
33.426400
 30
0.0
 10
13.097827
 20
33.426400
 30
0.0
  0
LWPOLYLINE
  5
237
100
AcDbEntity
  8
ink_ext_XXXXXX
 62
7
100
AcDbPolyline
 90
6
 70
1
 10
13.097827
 20
35.126330
 30
0.0
 10
14.197778
 20
35.126330
 30
0.0
 10
14.197778
 20
36.126374
 30
0.0
 10
13.097827
 20
36.126374
 30
0.0
 10
13.097827
 20
35.126330
 30
0.0
 10
13.097827
 20
35.126330
 30
0.0
  0
LWPOLYLINE
  5
238
100
AcDbEntity
  8
ink_ext_XXXXXX
 62
7
100
AcDbPolyline
 90
6
 70
1
 10
9.022997
 20
34.845343
 30
0.0
 10
10.023041
 20
34.845343
 30
0.0
 10
10.023041
 20
35.945431
 30
0.0
 10
9.022997
 20
35.945431
 30
0.0
 10
9.022997
 20
34.845343
 30
0.0
 10
9.022997
 20
34.845343
 30
0.0
  0
LWPOLYLINE
  5
239
100
AcDbEntity
  8
ink_ext_XXXXXX
 62
7
100
AcDbPolyline
 90
6
 70
1
 10
7.323032
 20
34.845343
 30
0.0
 10
8.322938
 20
34.845343
 30
0.0
 10
8.322938
 20
35.945431
 30
0.0
 10
7.323032
 20
35.945431
 30
0.0
 10
7.323032
 20
34.845343
 30
0.0
 10
7.323032
 20
34.845343
 30
0.0
  0
LWPOLYLINE
  5
23a
100
AcDbEntity
  8
ink_ext_XXXXXX
 62
7
100
AcDbPolyline
 90
6
 70
1
 10
57.191275
 20
46.467889
 30
0.0
 10
58.191319
 20
46.467889
 30
0.0
 10
58.191319
 20
47.567839
 30
0.0
 10
57.191275
 20
47.567839
 30
0.0
 10
57.191275
 20
46.467889
 30
0.0
 10
57.191275
 20
46.467889
 30
0.0
  0
LWPOLYLINE
  5
23b
100
AcDbEntity
  8
ink_ext_XXXXXX
 62
7
100
AcDbPolyline
 90
6
 70
1
 10
57.191275
 20
44.767853
 30
0.0
 10
58.191319
 20
44.767853
 30
0.0
 10
58.191319
 20
45.867941
 30
0.0
 10
57.191275
 20
45.867941
 30
0.0
 10
57.191275
 20
44.767853
 30
0.0
 10
57.191275
 20
44.767853
 30
0.0
  0
LWPOLYLINE
  5
23c
100
AcDbEntity
  8
ink_ext_XXXXXX
 62
7
100
AcDbPolyline
 90
6
 70
1
 10
73.333681
 20
9.114331
 30
0.0
 10
74.083746
 20
9.114331
 30
0.0
 10
74.083746
 20
9.414330
 30
0.0
 10
73.333681
 20
9.414330
 30
0.0
 10
73.333681
 20
9.114331
 30
0.0
 10
73.333681
 20
9.114331
 30
0.0
  0
LWPOLYLINE
  5
23d
100
AcDbEntity
  8
ink_ext_XXXXXX
 62
7
100
AcDbPolyline
 90
6
 70
1
 10
73.333681
 20
8.464479
 30
0.0
 10
74.083746
 20
8.464479
 30
0.0
 10
74.083746
 20
8.764478
 30
0.0
 10
73.333681
 20
8.764478
 30
0.0
 10
73.333681
 20
8.464479
 30
0.0
 10
73.333681
 20
8.464479
 30
0.0
  0
LWPOLYLINE
  5
23e
100
AcDbEntity
  8
ink_ext_XXXXXX
 62
7
100
AcDbPolyline
 90
6
 70
1
 10
73.333681
 20
7.814451
 30
0.0
 10
74.083746
 20
7.814451
 30
0.0
 10
74.083746
 20
8.114450
 30
0.0
 10
73.333681
 20
8.114450
 30
0.0
 10
73.333681
 20
7.814451
 30
0.0
 10
73.333681
 20
7.814451
 30
0.0
  0
LWPOLYLINE
  5
23f
100
AcDbEntity
  8
ink_ext_XXXXXX
 62
7
100
AcDbPolyline
 90
6
 70
1
 10
75.233742
 20
7.814451
 30
0.0
 10
75.983807
 20
7.814451
 30
0.0
 10
75.983807
 20
8.114450
 30
0.0
 10
75.233742
 20
8.114450
 30
0.0
 10
75.233742
 20
7.814451
 30
0.0
 10
75.233742
 20
7.814451
 30
0.0
  0
LWPOLYLINE
  5
240
100
AcDbEntity
  8
ink_ext_XXXXXX
 62
7
100
AcDbPolyline
 90
6
 70
1
 10
75.233742
 20
8.464479
 30
0.0
 10
75.983807
 20
8.464479
 30
0.0
 10
75.983807
 20
8.764478
 30
0.0
 10
75.233742
 20
8.764478
 30
0.0
 10
75.233742
 20
8.464479
 30
0.0
 10
75.233742
 20
8.464479
 30
0.0
  0
LWPOLYLINE
  5
241
100
AcDbEntity
  8
ink_ext_XXXXXX
 62
7
100
AcDbPolyline
 90
6
 70
1
 10
75.233742
 20
9.114331
 30
0.0
 10
75.983807
 20
9.114331
 30
0.0
 10
75.983807
 20
9.414330
 30
0.0
 10
75.233742
 20
9.414330
 30
0.0
 10
75.233742
 20
9.114331
 30
0.0
 10
75.233742
 20
9.114331
 30
0.0
  0
LWPOLYLINE
  5
242
100
AcDbEntity
  8
ink_ext_XXXXXX
 62
7
100
AcDbPolyline
 90
6
 70
1
 10
73.185514
 20
6.111169
 30
0.0
 10
74.912746
 20
6.111169
 30
0.0
 10
74.912746
 20
7.211120
 30
0.0
 10
73.185514
 20
7.211120
 30
0.0
 10
73.185514
 20
6.111169
 30
0.0
 10
73.185514
 20
6.111169
 30
0.0
  0
LWPOLYLINE
  5
243
100
AcDbEntity
  8
ink_ext_XXXXXX
 62
7
100
AcDbPolyline
 90
6
 70
1
 10
73.185514
 20
4.711665
 30
0.0
 10
74.912746
 20
4.711665
 30
0.0
 10
74.912746
 20
5.811478
 30
0.0
 10
73.185514
 20
5.811478
 30
0.0
 10
73.185514
 20
4.711665
 30
0.0
 10
73.185514
 20
4.711665
 30
0.0
  0
LWPOLYLINE
  5
244
100
AcDbEntity
  8
ink_ext_XXXXXX
 62
7
100
AcDbPolyline
 90
6
 70
1
 10
75.936122
 20
6.111169
 30
0.0
 10
77.663216
 20
6.111169
 30
0.0
 10
77.663216
 20
7.211120
 30
0.0
 10
75.936122
 20
7.211120
 30
0.0
 10
75.936122
 20
6.111169
 30
0.0
 10
75.936122
 20
6.111169
 30
0.0
  0
LWPOLYLINE
  5
245
100
AcDbEntity
  8
ink_ext_XXXXXX
 62
7
100
AcDbPolyline
 90
6
 70
1
 10
75.936122
 20
4.711665
 30
0.0
 10
77.663216
 20
4.711665
 30
0.0
 10
77.663216
 20
5.811478
 30
0.0
 10
75.936122
 20
5.811478
 30
0.0
 10
75.936122
 20
4.711665
 30
0.0
 10
75.936122
 20
4.711665
 30
0.0
  0
LWPOLYLINE
  5
246
100
AcDbEntity
  8
ink_ext_XXXXXX
 62
7
100
AcDbPolyline
 90
6
 70
1
 10
73.333681
 20
14.600872
 30
0.0
 10
74.083746
 20
14.600872
 30
0.0
 10
74.083746
 20
14.900872
 30
0.0
 10
73.333681
 20
14.900872
 30
0.0
 10
73.333681
 20
14.600872
 30
0.0
 10
73.333681
 20
14.600872
 30
0.0
  0
LWPOLYLINE
  5
247
100
AcDbEntity
  8
ink_ext_XXXXXX
 62
7
100
AcDbPolyline
 90
6
 70
1
 10
73.333681
 20
13.950844
 30
0.0
 10
74.083746
 20
13.950844
 30
0.0
 10
74.083746
 20
14.250843
 30
0.0
 10
73.333681
 20
14.250843
 30
0.0
 10
73.333681
 20
13.950844
 30
0.0
 10
73.333681
 20
13.950844
 30
0.0
  0
LWPOLYLINE
  5
248
100
AcDbEntity
  8
ink_ext_XXXXXX
 62
7
100
AcDbPolyline
 90
6
 70
1
 10
73.333681
 20
13.300816
 30
0.0
 10
74.083746
 20
13.300816
 30
0.0
 10
74.083746
 20
13.600815
 30
0.0
 10
73.333681
 20
13.600815
 30
0.0
 10
73.333681
 20
13.300816
 30
0.0
 10
73.333681
 20
13.300816
 30
0.0
  0
LWPOLYLINE
  5
249
100
AcDbEntity
  8
ink_ext_XXXXXX
 62
7
100
AcDbPolyline
 90
6
 70
1
 10
75.233742
 20
13.300816
 30
0.0
 10
75.983807
 20
13.300816
 30
0.0
 10
75.983807
 20
13.600815
 30
0.0
 10
75.233742
 20
13.600815
 30
0.0
 10
75.233742
 20
13.300816
 30
0.0
 10
75.233742
 20
13.300816
 30
0.0
  0
LWPOLYLINE
  5
24a
100
AcDbEntity
  8
ink_ext_XXXXXX
 62
7
100
AcDbPolyline
 90
6
 70
1
 10
75.233742
 20
13.950844
 30
0.0
 10
75.983807
 20
13.950844
 30
0.0
 10
75.983807
 20
14.250843
 30
0.0
 10
75.233742
 20
14.250843
 30
0.0
 10
75.233742
 20
13.950844
 30
0.0
 10
75.233742
 20
13.950844
 30
0.0
  0
LWPOLYLINE
  5
24b
100
AcDbEntity
  8
ink_ext_XXXXXX
 62
7
100
AcDbPolyline
 90
6
 70
1
 10
75.233742
 20
14.600872
 30
0.0
 10
75.983807
 20
14.600872
 30
0.0
 10
75.983807
 20
14.900872
 30
0.0
 10
75.233742
 20
14.900872
 30
0.0
 10
75.233742
 20
14.600872
 30
0.0
 10
75.233742
 20
14.600872
 30
0.0
  0
LWPOLYLINE
  5
24c
100
AcDbEntity
  8
ink_ext_XXXXXX
 62
7
100
AcDbPolyline
 90
6
 70
1
 10
73.185514
 20
11.597569
 30
0.0
 10
74.912746
 20
11.597569
 30
0.0
 10
74.912746
 20
12.697520
 30
0.0
 10
73.185514
 20
12.697520
 30
0.0
 10
73.185514
 20
11.597569
 30
0.0
 10
73.185514
 20
11.597569
 30
0.0
  0
LWPOLYLINE
  5
24d
100
AcDbEntity
  8
ink_ext_XXXXXX
 62
7
100
AcDbPolyline
 90
6
 70
1
 10
73.185514
 20
10.198029
 30
0.0
 10
74.912746
 20
10.198029
 30
0.0
 10
74.912746
 20
11.297842
 30
0.0
 10
73.185514
 20
11.297842
 30
0.0
 10
73.185514
 20
10.198029
 30
0.0
 10
73.185514
 20
10.198029
 30
0.0
  0
LWPOLYLINE
  5
24e
100
AcDbEntity
  8
ink_ext_XXXXXX
 62
7
100
AcDbPolyline
 90
6
 70
1
 10
75.936122
 20
11.597569
 30
0.0
 10
77.663216
 20
11.597569
 30
0.0
 10
77.663216
 20
12.697520
 30
0.0
 10
75.936122
 20
12.697520
 30
0.0
 10
75.936122
 20
11.597569
 30
0.0
 10
75.936122
 20
11.597569
 30
0.0
  0
LWPOLYLINE
  5
24f
100
AcDbEntity
  8
ink_ext_XXXXXX
 62
7
100
AcDbPolyline
 90
6
 70
1
 10
75.936122
 20
10.198029
 30
0.0
 10
77.663216
 20
10.198029
 30
0.0
 10
77.663216
 20
11.297842
 30
0.0
 10
75.936122
 20
11.297842
 30
0.0
 10
75.936122
 20
10.198029
 30
0.0
 10
75.936122
 20
10.198029
 30
0.0
  0
LWPOLYLINE
  5
250
100
AcDbEntity
  8
ink_ext_XXXXXX
 62
7
100
AcDbPolyline
 90
6
 70
1
 10
73.333681
 20
20.087237
 30
0.0
 10
74.083746
 20
20.087237
 30
0.0
 10
74.083746
 20
20.387236
 30
0.0
 10
73.333681
 20
20.387236
 30
0.0
 10
73.333681
 20
20.087237
 30
0.0
 10
73.333681
 20
20.087237
 30
0.0
  0
LWPOLYLINE
  5
251
100
AcDbEntity
  8
ink_ext_XXXXXX
 62
7
100
AcDbPolyline
 90
6
 70
1
 10
73.333681
 20
19.437244
 30
0.0
 10
74.083746
 20
19.437244
 30
0.0
 10
74.083746
 20
19.737243
 30
0.0
 10
73.333681
 20
19.737243
 30
0.0
 10
73.333681
 20
19.437244
 30
0.0
 10
73.333681
 20
19.437244
 30
0.0
  0
LWPOLYLINE
  5
252
100
AcDbEntity
  8
ink_ext_XXXXXX
 62
7
100
AcDbPolyline
 90
6
 70
1
 10
73.333681
 20
18.787216
 30
0.0
 10
74.083746
 20
18.787216
 30
0.0
 10
74.083746
 20
19.087215
 30
0.0
 10
73.333681
 20
19.087215
 30
0.0
 10
73.333681
 20
18.787216
 30
0.0
 10
73.333681
 20
18.787216
 30
0.0
  0
LWPOLYLINE
  5
253
100
AcDbEntity
  8
ink_ext_XXXXXX
 62
7
100
AcDbPolyline
 90
6
 70
1
 10
75.233742
 20
18.787216
 30
0.0
 10
75.983807
 20
18.787216
 30
0.0
 10
75.983807
 20
19.087215
 30
0.0
 10
75.233742
 20
19.087215
 30
0.0
 10
75.233742
 20
18.787216
 30
0.0
 10
75.233742
 20
18.787216
 30
0.0
  0
LWPOLYLINE
  5
254
100
AcDbEntity
  8
ink_ext_XXXXXX
 62
7
100
AcDbPolyline
 90
6
 70
1
 10
75.233742
 20
19.437244
 30
0.0
 10
75.983807
 20
19.437244
 30
0.0
 10
75.983807
 20
19.737243
 30
0.0
 10
75.233742
 20
19.737243
 30
0.0
 10
75.233742
 20
19.437244
 30
0.0
 10
75.233742
 20
19.437244
 30
0.0
  0
LWPOLYLINE
  5
255
100
AcDbEntity
  8
ink_ext_XXXXXX
 62
7
100
AcDbPolyline
 90
6
 70
1
 10
75.233742
 20
20.087237
 30
0.0
 10
75.983807
 20
20.087237
 30
0.0
 10
75.983807
 20
20.387236
 30
0.0
 10
75.233742
 20
20.387236
 30
0.0
 10
75.233742
 20
20.087237
 30
0.0
 10
75.233742
 20
20.087237
 30
0.0
  0
LWPOLYLINE
  5
256
100
AcDbEntity
  8
ink_ext_XXXXXX
 62
7
100
AcDbPolyline
 90
6
 70
1
 10
73.185514
 20
17.083969
 30
0.0
 10
74.912746
 20
17.083969
 30
0.0
 10
74.912746
 20
18.183920
 30
0.0
 10
73.185514
 20
18.183920
 30
0.0
 10
73.185514
 20
17.083969
 30
0.0
 10
73.185514
 20
17.083969
 30
0.0
  0
LWPOLYLINE
  5
257
100
AcDbEntity
  8
ink_ext_XXXXXX
 62
7
100
AcDbPolyline
 90
6
 70
1
 10
73.185514
 20
15.684571
 30
0.0
 10
74.912746
 20
15.684571
 30
0.0
 10
74.912746
 20
16.784383
 30
0.0
 10
73.185514
 20
16.784383
 30
0.0
 10
73.185514
 20
15.684571
 30
0.0
 10
73.185514
 20
15.684571
 30
0.0
  0
LWPOLYLINE
  5
258
100
AcDbEntity
  8
ink_ext_XXXXXX
 62
7
100
AcDbPolyline
 90
6
 70
1
 10
75.936122
 20
17.083969
 30
0.0
 10
77.663216
 20
17.083969
 30
0.0
 10
77.663216
 20
18.183920
 30
0.0
 10
75.936122
 20
18.183920
 30
0.0
 10
75.936122
 20
17.083969
 30
0.0
 10
75.936122
 20
17.083969
 30
0.0
  0
LWPOLYLINE
  5
259
100
AcDbEntity
  8
ink_ext_XXXXXX
 62
7
100
AcDbPolyline
 90
6
 70
1
 10
75.936122
 20
15.684571
 30
0.0
 10
77.663216
 20
15.684571
 30
0.0
 10
77.663216
 20
16.784383
 30
0.0
 10
75.936122
 20
16.784383
 30
0.0
 10
75.936122
 20
15.684571
 30
0.0
 10
75.936122
 20
15.684571
 30
0.0
  0
LWPOLYLINE
  5
25a
100
AcDbEntity
  8
ink_ext_XXXXXX
 62
7
100
AcDbPolyline
 90
6
 70
1
 10
71.720075
 20
19.277647
 30
0.0
 10
72.720119
 20
19.277647
 30
0.0
 10
72.720119
 20
20.377598
 30
0.0
 10
71.720075
 20
20.377598
 30
0.0
 10
71.720075
 20
19.277647
 30
0.0
 10
71.720075
 20
19.277647
 30
0.0
  0
LWPOLYLINE
  5
25b
100
AcDbEntity
  8
ink_ext_XXXXXX
 62
7
100
AcDbPolyline
 90
6
 70
1
 10
71.720075
 20
17.577576
 30
0.0
 10
72.720119
 20
17.577576
 30
0.0
 10
72.720119
 20
18.677664
 30
0.0
 10
71.720075
 20
18.677664
 30
0.0
 10
71.720075
 20
17.577576
 30
0.0
 10
71.720075
 20
17.577576
 30
0.0
  0
LWPOLYLINE
  5
25c
100
AcDbEntity
  8
ink_ext_XXXXXX
 62
7
100
AcDbPolyline
 90
6
 70
1
 10
73.333681
 20
25.573637
 30
0.0
 10
74.083746
 20
25.573637
 30
0.0
 10
74.083746
 20
25.873636
 30
0.0
 10
73.333681
 20
25.873636
 30
0.0
 10
73.333681
 20
25.573637
 30
0.0
 10
73.333681
 20
25.573637
 30
0.0
  0
LWPOLYLINE
  5
25d
100
AcDbEntity
  8
ink_ext_XXXXXX
 62
7
100
AcDbPolyline
 90
6
 70
1
 10
73.333681
 20
24.923609
 30
0.0
 10
74.083746
 20
24.923609
 30
0.0
 10
74.083746
 20
25.223608
 30
0.0
 10
73.333681
 20
25.223608
 30
0.0
 10
73.333681
 20
24.923609
 30
0.0
 10
73.333681
 20
24.923609
 30
0.0
  0
LWPOLYLINE
  5
25e
100
AcDbEntity
  8
ink_ext_XXXXXX
 62
7
100
AcDbPolyline
 90
6
 70
1
 10
73.333681
 20
24.273581
 30
0.0
 10
74.083746
 20
24.273581
 30
0.0
 10
74.083746
 20
24.573580
 30
0.0
 10
73.333681
 20
24.573580
 30
0.0
 10
73.333681
 20
24.273581
 30
0.0
 10
73.333681
 20
24.273581
 30
0.0
  0
LWPOLYLINE
  5
25f
100
AcDbEntity
  8
ink_ext_XXXXXX
 62
7
100
AcDbPolyline
 90
6
 70
1
 10
75.233742
 20
24.273581
 30
0.0
 10
75.983807
 20
24.273581
 30
0.0
 10
75.983807
 20
24.573580
 30
0.0
 10
75.233742
 20
24.573580
 30
0.0
 10
75.233742
 20
24.273581
 30
0.0
 10
75.233742
 20
24.273581
 30
0.0
  0
LWPOLYLINE
  5
260
100
AcDbEntity
  8
ink_ext_XXXXXX
 62
7
100
AcDbPolyline
 90
6
 70
1
 10
75.233742
 20
24.923609
 30
0.0
 10
75.983807
 20
24.923609
 30
0.0
 10
75.983807
 20
25.223608
 30
0.0
 10
75.233742
 20
25.223608
 30
0.0
 10
75.233742
 20
24.923609
 30
0.0
 10
75.233742
 20
24.923609
 30
0.0
  0
LWPOLYLINE
  5
261
100
AcDbEntity
  8
ink_ext_XXXXXX
 62
7
100
AcDbPolyline
 90
6
 70
1
 10
75.233742
 20
25.573637
 30
0.0
 10
75.983807
 20
25.573637
 30
0.0
 10
75.983807
 20
25.873636
 30
0.0
 10
75.233742
 20
25.873636
 30
0.0
 10
75.233742
 20
25.573637
 30
0.0
 10
75.233742
 20
25.573637
 30
0.0
  0
LWPOLYLINE
  5
262
100
AcDbEntity
  8
ink_ext_XXXXXX
 62
7
100
AcDbPolyline
 90
6
 70
1
 10
73.185514
 20
22.570334
 30
0.0
 10
74.912746
 20
22.570334
 30
0.0
 10
74.912746
 20
23.670285
 30
0.0
 10
73.185514
 20
23.670285
 30
0.0
 10
73.185514
 20
22.570334
 30
0.0
 10
73.185514
 20
22.570334
 30
0.0
  0
LWPOLYLINE
  5
263
100
AcDbEntity
  8
ink_ext_XXXXXX
 62
7
100
AcDbPolyline
 90
6
 70
1
 10
73.185514
 20
21.170935
 30
0.0
 10
74.912746
 20
21.170935
 30
0.0
 10
74.912746
 20
22.270748
 30
0.0
 10
73.185514
 20
22.270748
 30
0.0
 10
73.185514
 20
21.170935
 30
0.0
 10
73.185514
 20
21.170935
 30
0.0
  0
LWPOLYLINE
  5
264
100
AcDbEntity
  8
ink_ext_XXXXXX
 62
7
100
AcDbPolyline
 90
6
 70
1
 10
75.936122
 20
22.570334
 30
0.0
 10
77.663216
 20
22.570334
 30
0.0
 10
77.663216
 20
23.670285
 30
0.0
 10
75.936122
 20
23.670285
 30
0.0
 10
75.936122
 20
22.570334
 30
0.0
 10
75.936122
 20
22.570334
 30
0.0
  0
LWPOLYLINE
  5
265
100
AcDbEntity
  8
ink_ext_XXXXXX
 62
7
100
AcDbPolyline
 90
6
 70
1
 10
75.936122
 20
21.170935
 30
0.0
 10
77.663216
 20
21.170935
 30
0.0
 10
77.663216
 20
22.270748
 30
0.0
 10
75.936122
 20
22.270748
 30
0.0
 10
75.936122
 20
21.170935
 30
0.0
 10
75.936122
 20
21.170935
 30
0.0
  0
LWPOLYLINE
  5
266
100
AcDbEntity
  8
ink_ext_XXXXXX
 62
7
100
AcDbPolyline
 90
6
 70
1
 10
71.720075
 20
24.764047
 30
0.0
 10
72.720119
 20
24.764047
 30
0.0
 10
72.720119
 20
25.863998
 30
0.0
 10
71.720075
 20
25.863998
 30
0.0
 10
71.720075
 20
24.764047
 30
0.0
 10
71.720075
 20
24.764047
 30
0.0
  0
LWPOLYLINE
  5
267
100
AcDbEntity
  8
ink_ext_XXXXXX
 62
7
100
AcDbPolyline
 90
6
 70
1
 10
71.720075
 20
23.063941
 30
0.0
 10
72.720119
 20
23.063941
 30
0.0
 10
72.720119
 20
24.164029
 30
0.0
 10
71.720075
 20
24.164029
 30
0.0
 10
71.720075
 20
23.063941
 30
0.0
 10
71.720075
 20
23.063941
 30
0.0
  0
LWPOLYLINE
  5
268
100
AcDbEntity
  8
ink_ext_XXXXXX
 62
7
100
AcDbPolyline
 90
6
 70
1
 10
71.720075
 20
8.304742
 30
0.0
 10
72.720119
 20
8.304742
 30
0.0
 10
72.720119
 20
9.404830
 30
0.0
 10
71.720075
 20
9.404830
 30
0.0
 10
71.720075
 20
8.304742
 30
0.0
 10
71.720075
 20
8.304742
 30
0.0
  0
LWPOLYLINE
  5
269
100
AcDbEntity
  8
ink_ext_XXXXXX
 62
7
100
AcDbPolyline
 90
6
 70
1
 10
71.720075
 20
6.604811
 30
0.0
 10
72.720119
 20
6.604811
 30
0.0
 10
72.720119
 20
7.704762
 30
0.0
 10
71.720075
 20
7.704762
 30
0.0
 10
71.720075
 20
6.604811
 30
0.0
 10
71.720075
 20
6.604811
 30
0.0
  0
LWPOLYLINE
  5
26a
100
AcDbEntity
  8
ink_ext_XXXXXX
 62
7
100
AcDbPolyline
 90
6
 70
1
 10
71.720075
 20
13.791283
 30
0.0
 10
72.720119
 20
13.791283
 30
0.0
 10
72.720119
 20
14.891233
 30
0.0
 10
71.720075
 20
14.891233
 30
0.0
 10
71.720075
 20
13.791283
 30
0.0
 10
71.720075
 20
13.791283
 30
0.0
  0
LWPOLYLINE
  5
26b
100
AcDbEntity
  8
ink_ext_XXXXXX
 62
7
100
AcDbPolyline
 90
6
 70
1
 10
71.720075
 20
12.091176
 30
0.0
 10
72.720119
 20
12.091176
 30
0.0
 10
72.720119
 20
13.191127
 30
0.0
 10
71.720075
 20
13.191127
 30
0.0
 10
71.720075
 20
12.091176
 30
0.0
 10
71.720075
 20
12.091176
 30
0.0
  0
LWPOLYLINE
  5
26c
100
AcDbEntity
  8
ink_ext_XXXXXX
 62
7
100
AcDbPolyline
 90
6
 70
1
 10
70.196075
 20
5.763225
 30
0.0
 10
71.196119
 20
5.763225
 30
0.0
 10
71.196119
 20
7.163174
 30
0.0
 10
70.196075
 20
7.163174
 30
0.0
 10
70.196075
 20
5.763225
 30
0.0
 10
70.196075
 20
5.763225
 30
0.0
  0
LWPOLYLINE
  5
26d
100
AcDbEntity
  8
ink_ext_XXXXXX
 62
7
100
AcDbPolyline
 90
6
 70
1
 10
71.146106
 20
3.563197
 30
0.0
 10
72.146149
 20
3.563197
 30
0.0
 10
72.146149
 20
4.963146
 30
0.0
 10
71.146106
 20
4.963146
 30
0.0
 10
71.146106
 20
3.563197
 30
0.0
 10
71.146106
 20
3.563197
 30
0.0
  0
LWPOLYLINE
  5
26e
100
AcDbEntity
  8
ink_ext_XXXXXX
 62
7
100
AcDbPolyline
 90
6
 70
1
 10
69.246044
 20
3.563197
 30
0.0
 10
70.246088
 20
3.563197
 30
0.0
 10
70.246088
 20
4.963146
 30
0.0
 10
69.246044
 20
4.963146
 30
0.0
 10
69.246044
 20
3.563197
 30
0.0
 10
69.246044
 20
3.563197
 30
0.0
  0
LWPOLYLINE
  5
26f
100
AcDbEntity
  8
ink_ext_XXXXXX
 62
7
100
AcDbPolyline
 90
6
 70
1
 10
62.069133
 20
21.308730
 30
0.0
 10
63.169084
 20
21.308730
 30
0.0
 10
63.169084
 20
22.308774
 30
0.0
 10
62.069133
 20
22.308774
 30
0.0
 10
62.069133
 20
21.308730
 30
0.0
 10
62.069133
 20
21.308730
 30
0.0
  0
LWPOLYLINE
  5
270
100
AcDbEntity
  8
ink_ext_XXXXXX
 62
7
100
AcDbPolyline
 90
6
 70
1
 10
62.069133
 20
19.608800
 30
0.0
 10
63.169084
 20
19.608800
 30
0.0
 10
63.169084
 20
20.608844
 30
0.0
 10
62.069133
 20
20.608844
 30
0.0
 10
62.069133
 20
19.608800
 30
0.0
 10
62.069133
 20
19.608800
 30
0.0
  0
LWPOLYLINE
  5
271
100
AcDbEntity
  8
ink_ext_XXXXXX
 62
7
100
AcDbPolyline
 90
6
 70
1
 10
62.118875
 20
24.357647
 30
0.0
 10
63.118919
 20
24.357647
 30
0.0
 10
63.118919
 20
25.457598
 30
0.0
 10
62.118875
 20
25.457598
 30
0.0
 10
62.118875
 20
24.357647
 30
0.0
 10
62.118875
 20
24.357647
 30
0.0
  0
LWPOLYLINE
  5
272
100
AcDbEntity
  8
ink_ext_XXXXXX
 62
7
100
AcDbPolyline
 90
6
 70
1
 10
62.118875
 20
22.657576
 30
0.0
 10
63.118919
 20
22.657576
 30
0.0
 10
63.118919
 20
23.757664
 30
0.0
 10
62.118875
 20
23.757664
 30
0.0
 10
62.118875
 20
22.657576
 30
0.0
 10
62.118875
 20
22.657576
 30
0.0
  0
LWPOLYLINE
  5
273
100
AcDbEntity
  8
ink_ext_XXXXXX
 62
7
100
AcDbPolyline
 90
6
 70
1
 10
63.593133
 20
23.594766
 30
0.0
 10
64.693084
 20
23.594766
 30
0.0
 10
64.693084
 20
24.594809
 30
0.0
 10
63.593133
 20
24.594809
 30
0.0
 10
63.593133
 20
23.594766
 30
0.0
 10
63.593133
 20
23.594766
 30
0.0
  0
LWPOLYLINE
  5
274
100
AcDbEntity
  8
ink_ext_XXXXXX
 62
7
100
AcDbPolyline
 90
6
 70
1
 10
63.593133
 20
21.894835
 30
0.0
 10
64.693084
 20
21.894835
 30
0.0
 10
64.693084
 20
22.894879
 30
0.0
 10
63.593133
 20
22.894879
 30
0.0
 10
63.593133
 20
21.894835
 30
0.0
 10
63.593133
 20
21.894835
 30
0.0
  0
LWPOLYLINE
  5
275
100
AcDbEntity
  8
ink_ext_XXXXXX
 62
7
100
AcDbPolyline
 90
6
 70
1
 10
66.728975
 20
23.202018
 30
0.0
 10
67.828926
 20
23.202018
 30
0.0
 10
67.828926
 20
24.201924
 30
0.0
 10
66.728975
 20
24.201924
 30
0.0
 10
66.728975
 20
23.202018
 30
0.0
 10
66.728975
 20
23.202018
 30
0.0
  0
LWPOLYLINE
  5
276
100
AcDbEntity
  8
ink_ext_XXXXXX
 62
7
100
AcDbPolyline
 90
6
 70
1
 10
65.028939
 20
23.202018
 30
0.0
 10
66.129027
 20
23.202018
 30
0.0
 10
66.129027
 20
24.201924
 30
0.0
 10
65.028939
 20
24.201924
 30
0.0
 10
65.028939
 20
23.202018
 30
0.0
 10
65.028939
 20
23.202018
 30
0.0
  0
LWPOLYLINE
  5
277
100
AcDbEntity
  8
ink_ext_XXXXXX
 62
7
100
AcDbPolyline
 90
6
 70
1
 10
71.581433
 20
26.403229
 30
0.0
 10
72.581477
 20
26.403229
 30
0.0
 10
72.581477
 20
27.503180
 30
0.0
 10
71.581433
 20
27.503180
 30
0.0
 10
71.581433
 20
26.403229
 30
0.0
 10
71.581433
 20
26.403229
 30
0.0
  0
LWPOLYLINE
  5
278
100
AcDbEntity
  8
ink_ext_XXXXXX
 62
7
100
AcDbPolyline
 90
6
 70
1
 10
73.281469
 20
26.403229
 30
0.0
 10
74.281376
 20
26.403229
 30
0.0
 10
74.281376
 20
27.503180
 30
0.0
 10
73.281469
 20
27.503180
 30
0.0
 10
73.281469
 20
26.403229
 30
0.0
 10
73.281469
 20
26.403229
 30
0.0
  0
LWPOLYLINE
  5
279
100
AcDbEntity
  8
ink_ext_XXXXXX
 62
7
100
AcDbPolyline
 90
6
 70
1
 10
69.804139
 20
27.926348
 30
0.0
 10
70.904089
 20
27.926348
 30
0.0
 10
70.904089
 20
28.926391
 30
0.0
 10
69.804139
 20
28.926391
 30
0.0
 10
69.804139
 20
27.926348
 30
0.0
 10
69.804139
 20
27.926348
 30
0.0
  0
LWPOLYLINE
  5
27a
100
AcDbEntity
  8
ink_ext_XXXXXX
 62
7
100
AcDbPolyline
 90
6
 70
1
 10
71.504175
 20
27.926348
 30
0.0
 10
72.604126
 20
27.926348
 30
0.0
 10
72.604126
 20
28.926391
 30
0.0
 10
71.504175
 20
28.926391
 30
0.0
 10
71.504175
 20
27.926348
 30
0.0
 10
71.504175
 20
27.926348
 30
0.0
  0
LWPOLYLINE
  5
27b
100
AcDbEntity
  8
ink_ext_XXXXXX
 62
7
100
AcDbPolyline
 90
6
 70
1
 10
65.129833
 20
24.523559
 30
0.0
 10
66.129877
 20
24.523559
 30
0.0
 10
66.129877
 20
25.623647
 30
0.0
 10
65.129833
 20
25.623647
 30
0.0
 10
65.129833
 20
24.523559
 30
0.0
 10
65.129833
 20
24.523559
 30
0.0
  0
LWPOLYLINE
  5
27c
100
AcDbEntity
  8
ink_ext_XXXXXX
 62
7
100
AcDbPolyline
 90
6
 70
1
 10
66.829869
 20
24.523559
 30
0.0
 10
67.829913
 20
24.523559
 30
0.0
 10
67.829913
 20
25.623647
 30
0.0
 10
66.829869
 20
25.623647
 30
0.0
 10
66.829869
 20
24.523559
 30
0.0
 10
66.829869
 20
24.523559
 30
0.0
  0
LWPOLYLINE
  5
27d
100
AcDbEntity
  8
ink_ext_XXXXXX
 62
7
100
AcDbPolyline
 90
6
 70
1
 10
66.678175
 20
26.097548
 30
0.0
 10
67.778263
 20
26.097548
 30
0.0
 10
67.778263
 20
27.097591
 30
0.0
 10
66.678175
 20
27.097591
 30
0.0
 10
66.678175
 20
26.097548
 30
0.0
 10
66.678175
 20
26.097548
 30
0.0
  0
LWPOLYLINE
  5
27e
100
AcDbEntity
  8
ink_ext_XXXXXX
 62
7
100
AcDbPolyline
 90
6
 70
1
 10
64.978139
 20
26.097548
 30
0.0
 10
66.078089
 20
26.097548
 30
0.0
 10
66.078089
 20
27.097591
 30
0.0
 10
64.978139
 20
27.097591
 30
0.0
 10
64.978139
 20
26.097548
 30
0.0
 10
64.978139
 20
26.097548
 30
0.0
  0
LWPOLYLINE
  5
27f
100
AcDbEntity
  8
ink_ext_XXXXXX
 62
7
100
AcDbPolyline
 90
5
 70
0
 10
16.693127
 20
24.942094
 30
0.0
 10
18.309590
 20
23.325631
 30
0.0
 10
18.848387
 20
23.864464
 30
0.0
 10
17.231960
 20
25.481033
 30
0.0
 10
16.693127
 20
24.942094
 30
0.0
  0
LWPOLYLINE
  5
280
100
AcDbEntity
  8
ink_ext_XXXXXX
 62
7
100
AcDbPolyline
 90
4
 70
0
 10
16.657320
 20
24.942094
 30
0.0
 10
18.309590
 20
23.289824
 30
0.0
 10
18.884371
 20
23.864464
 30
0.0
 10
17.231960
 20
25.516840
 30
0.0
  0
LWPOLYLINE
  5
281
100
AcDbEntity
  8
ink_ext_XXXXXX
 62
7
100
AcDbPolyline
 90
5
 70
0
 10
16.311280
 20
28.152372
 30
0.0
 10
17.927849
 20
26.536050
 30
0.0
 10
18.466541
 20
27.074883
 30
0.0
 10
16.850113
 20
28.691170
 30
0.0
 10
16.311280
 20
28.152372
 30
0.0
  0
LWPOLYLINE
  5
282
100
AcDbEntity
  8
ink_ext_XXXXXX
 62
7
100
AcDbPolyline
 90
4
 70
0
 10
16.275332
 20
28.152372
 30
0.0
 10
17.927743
 20
26.500102
 30
0.0
 10
18.502489
 20
27.074742
 30
0.0
 10
16.850113
 20
28.727118
 30
0.0
  0
LWPOLYLINE
  5
283
100
AcDbEntity
  8
ink_ext_XXXXXX
 62
7
100
AcDbPolyline
 90
5
 70
0
 10
19.521558
 20
27.770631
 30
0.0
 10
21.138021
 20
26.154062
 30
0.0
 10
21.676819
 20
26.692860
 30
0.0
 10
20.060391
 20
28.309464
 30
0.0
 10
19.521558
 20
27.770631
 30
0.0
  0
LWPOLYLINE
  5
284
100
AcDbEntity
  8
ink_ext_XXXXXX
 62
7
100
AcDbPolyline
 90
4
 70
0
 10
19.485610
 20
27.770631
 30
0.0
 10
21.138021
 20
26.118220
 30
0.0
 10
21.712767
 20
26.693001
 30
0.0
 10
20.060391
 20
28.345412
 30
0.0
  0
LWPOLYLINE
  5
285
100
AcDbEntity
  8
ink_ext_XXXXXX
 62
7
100
AcDbPolyline
 90
5
 70
0
 10
19.139711
 20
30.980768
 30
0.0
 10
20.756139
 20
29.364340
 30
0.0
 10
21.294972
 20
29.903138
 30
0.0
 10
19.678650
 20
31.519742
 30
0.0
 10
19.139711
 20
30.980768
 30
0.0
  0
LWPOLYLINE
  5
286
100
AcDbEntity
  8
ink_ext_XXXXXX
 62
7
100
AcDbPolyline
 90
4
 70
0
 10
19.103869
 20
30.980768
 30
0.0
 10
20.756139
 20
29.328498
 30
0.0
 10
21.330920
 20
29.903138
 30
0.0
 10
19.678509
 20
31.555549
 30
0.0
  0
LWPOLYLINE
  5
287
100
AcDbEntity
  8
ink_ext_XXXXXX
 62
7
100
AcDbPolyline
 90
5
 70
0
 10
22.349989
 20
30.599062
 30
0.0
 10
23.966558
 20
28.982635
 30
0.0
 10
24.505250
 20
29.521432
 30
0.0
 10
22.888787
 20
31.137754
 30
0.0
 10
22.349989
 20
30.599062
 30
0.0
  0
LWPOLYLINE
  5
288
100
AcDbEntity
  8
ink_ext_XXXXXX
 62
7
100
AcDbPolyline
 90
4
 70
0
 10
22.314006
 20
30.599062
 30
0.0
 10
23.966417
 20
28.946651
 30
0.0
 10
24.541198
 20
29.521432
 30
0.0
 10
22.888787
 20
31.173702
 30
0.0
  0
LWPOLYLINE
  5
289
100
AcDbEntity
  8
ink_ext_XXXXXX
 62
7
100
AcDbPolyline
 90
5
 70
0
 10
21.968142
 20
33.809340
 30
0.0
 10
23.584570
 20
32.192771
 30
0.0
 10
24.123368
 20
32.731569
 30
0.0
 10
22.506940
 20
34.348138
 30
0.0
 10
21.968142
 20
33.809340
 30
0.0
  0
LWPOLYLINE
  5
28a
100
AcDbEntity
  8
ink_ext_XXXXXX
 62
7
100
AcDbPolyline
 90
4
 70
0
 10
21.932300
 20
33.809340
 30
0.0
 10
23.584570
 20
32.156929
 30
0.0
 10
24.159351
 20
32.731710
 30
0.0
 10
22.506940
 20
34.383980
 30
0.0
  0
LWPOLYLINE
  5
28b
100
AcDbEntity
  8
ink_ext_XXXXXX
 62
7
100
AcDbPolyline
 90
5
 70
0
 10
25.178420
 20
33.427352
 30
0.0
 10
26.794848
 20
31.811031
 30
0.0
 10
27.333646
 20
32.349863
 30
0.0
 10
25.717359
 20
33.966150
 30
0.0
 10
25.178420
 20
33.427352
 30
0.0
  0
LWPOLYLINE
  5
28c
100
AcDbEntity
  8
ink_ext_XXXXXX
 62
7
100
AcDbPolyline
 90
4
 70
0
 10
25.142578
 20
33.427352
 30
0.0
 10
26.794848
 20
31.775082
 30
0.0
 10
27.369629
 20
32.349722
 30
0.0
 10
25.717218
 20
34.002133
 30
0.0
  0
LWPOLYLINE
  5
28d
100
AcDbEntity
  8
ink_ext_XXXXXX
 62
7
100
AcDbPolyline
 90
6
 70
1
 10
20.144564
 20
42.202100
 30
0.0
 10
21.144607
 20
42.202100
 30
0.0
 10
21.144607
 20
43.302051
 30
0.0
 10
20.144564
 20
43.302051
 30
0.0
 10
20.144564
 20
42.202100
 30
0.0
 10
20.144564
 20
42.202100
 30
0.0
  0
LWPOLYLINE
  5
28e
100
AcDbEntity
  8
ink_ext_XXXXXX
 62
7
100
AcDbPolyline
 90
6
 70
1
 10
18.444633
 20
42.202100
 30
0.0
 10
19.444540
 20
42.202100
 30
0.0
 10
19.444540
 20
43.302051
 30
0.0
 10
18.444633
 20
43.302051
 30
0.0
 10
18.444633
 20
42.202100
 30
0.0
 10
18.444633
 20
42.202100
 30
0.0
  0
LWPOLYLINE
  5
28f
100
AcDbEntity
  8
ink_ext_XXXXXX
 62
7
100
AcDbPolyline
 90
4
 70
0
 10
20.735749
 20
33.466476
 30
0.0
 10
21.442821
 20
34.173689
 30
0.0
 10
20.665052
 20
34.951458
 30
0.0
 10
19.957979
 20
34.244386
 30
0.0
  0
LWPOLYLINE
  5
290
100
AcDbEntity
  8
ink_ext_XXXXXX
 62
7
100
AcDbPolyline
 90
4
 70
0
 10
19.533694
 20
32.264562
 30
0.0
 10
20.240907
 20
32.971634
 30
0.0
 10
19.462997
 20
33.749403
 30
0.0
 10
18.755924
 20
33.042331
 30
0.0
  0
LWPOLYLINE
  5
291
100
AcDbEntity
  8
ink_ext_XXXXXX
 62
7
100
AcDbPolyline
 90
4
 70
0
 10
16.942964
 20
31.158674
 30
0.0
 10
16.165089
 20
30.380799
 30
0.0
 10
16.872303
 20
29.673726
 30
0.0
 10
17.650037
 20
30.451601
 30
0.0
  0
LWPOLYLINE
  5
292
100
AcDbEntity
  8
ink_ext_XXXXXX
 62
7
100
AcDbPolyline
 90
4
 70
0
 10
18.144913
 20
32.360623
 30
0.0
 10
17.367144
 20
31.582854
 30
0.0
 10
18.074217
 20
30.875781
 30
0.0
 10
18.852127
 20
31.653551
 30
0.0
  0
LWPOLYLINE
  5
293
100
AcDbEntity
  8
ink_ext_XXXXXX
 62
7
100
AcDbPolyline
 90
6
 70
1
 10
3.513169
 20
28.426445
 30
0.0
 10
6.815226
 20
28.426445
 30
0.0
 10
6.815226
 20
29.442336
 30
0.0
 10
3.513169
 20
29.442336
 30
0.0
 10
3.513169
 20
28.426445
 30
0.0
 10
3.513169
 20
28.426445
 30
0.0
  0
LWPOLYLINE
  5
294
100
AcDbEntity
  8
ink_ext_XXXXXX
 62
7
100
AcDbPolyline
 90
6
 70
1
 10
8.593173
 20
28.426445
 30
0.0
 10
11.895229
 20
28.426445
 30
0.0
 10
11.895229
 20
29.442336
 30
0.0
 10
8.593173
 20
29.442336
 30
0.0
 10
8.593173
 20
28.426445
 30
0.0
 10
8.593173
 20
28.426445
 30
0.0
  0
LWPOLYLINE
  5
295
100
AcDbEntity
  8
ink_ext_XXXXXX
 62
7
100
AcDbPolyline
 90
6
 70
1
 10
3.513169
 20
25.886445
 30
0.0
 10
6.815226
 20
25.886445
 30
0.0
 10
6.815226
 20
26.902336
 30
0.0
 10
3.513169
 20
26.902336
 30
0.0
 10
3.513169
 20
25.886445
 30
0.0
 10
3.513169
 20
25.886445
 30
0.0
  0
LWPOLYLINE
  5
296
100
AcDbEntity
  8
ink_ext_XXXXXX
 62
7
100
AcDbPolyline
 90
6
 70
1
 10
8.593173
 20
25.886445
 30
0.0
 10
11.895229
 20
25.886445
 30
0.0
 10
11.895229
 20
26.902336
 30
0.0
 10
8.593173
 20
26.902336
 30
0.0
 10
8.593173
 20
25.886445
 30
0.0
 10
8.593173
 20
25.886445
 30
0.0
  0
LWPOLYLINE
  5
297
100
AcDbEntity
  8
ink_ext_XXXXXX
 62
7
100
AcDbPolyline
 90
6
 70
1
 10
3.513169
 20
23.346445
 30
0.0
 10
6.815226
 20
23.346445
 30
0.0
 10
6.815226
 20
24.362336
 30
0.0
 10
3.513169
 20
24.362336
 30
0.0
 10
3.513169
 20
23.346445
 30
0.0
 10
3.513169
 20
23.346445
 30
0.0
  0
LWPOLYLINE
  5
298
100
AcDbEntity
  8
ink_ext_XXXXXX
 62
7
100
AcDbPolyline
 90
6
 70
1
 10
8.593173
 20
23.346445
 30
0.0
 10
11.895229
 20
23.346445
 30
0.0
 10
11.895229
 20
24.362336
 30
0.0
 10
8.593173
 20
24.362336
 30
0.0
 10
8.593173
 20
23.346445
 30
0.0
 10
8.593173
 20
23.346445
 30
0.0
  0
LWPOLYLINE
  5
299
100
AcDbEntity
  8
ink_ext_XXXXXX
 62
7
100
AcDbPolyline
 90
6
 70
1
 10
3.513169
 20
20.806445
 30
0.0
 10
6.815226
 20
20.806445
 30
0.0
 10
6.815226
 20
21.822336
 30
0.0
 10
3.513169
 20
21.822336
 30
0.0
 10
3.513169
 20
20.806445
 30
0.0
 10
3.513169
 20
20.806445
 30
0.0
  0
LWPOLYLINE
  5
29a
100
AcDbEntity
  8
ink_ext_XXXXXX
 62
7
100
AcDbPolyline
 90
6
 70
1
 10
8.593173
 20
20.806445
 30
0.0
 10
11.895229
 20
20.806445
 30
0.0
 10
11.895229
 20
21.822336
 30
0.0
 10
8.593173
 20
21.822336
 30
0.0
 10
8.593173
 20
20.806445
 30
0.0
 10
8.593173
 20
20.806445
 30
0.0
  0
LWPOLYLINE
  5
29b
100
AcDbEntity
  8
ink_ext_XXXXXX
 62
7
100
AcDbPolyline
 90
6
 70
1
 10
3.513169
 20
18.266445
 30
0.0
 10
6.815226
 20
18.266445
 30
0.0
 10
6.815226
 20
19.282336
 30
0.0
 10
3.513169
 20
19.282336
 30
0.0
 10
3.513169
 20
18.266445
 30
0.0
 10
3.513169
 20
18.266445
 30
0.0
  0
LWPOLYLINE
  5
29c
100
AcDbEntity
  8
ink_ext_XXXXXX
 62
7
100
AcDbPolyline
 90
6
 70
1
 10
8.593173
 20
18.266445
 30
0.0
 10
11.895229
 20
18.266445
 30
0.0
 10
11.895229
 20
19.282336
 30
0.0
 10
8.593173
 20
19.282336
 30
0.0
 10
8.593173
 20
18.266445
 30
0.0
 10
8.593173
 20
18.266445
 30
0.0
  0
ENDSEC
  0
SECTION
  2
OBJECTS
  0
DICTIONARY
  5
C
330
0
100
AcDbDictionary
  3
ACAD_GROUP
350
D
  3
ACAD_MLINESTYLE
350
17
  0
DICTIONARY
  5
D
330
C
100
AcDbDictionary
  0
DICTIONARY
  5
1A
330
C
100
AcDbDictionary
  0
DICTIONARY
  5
17
330
C
100
AcDbDictionary
  3
STANDARD
350
18
  0
DICTIONARY
  5
19
330
C
100
AcDbDictionary
  0
ENDSEC
  0
EOF
