G75*
%MOIN*%
%OFA0B0*%
%FSLAX25Y25*%
%IPPOS*%
%LPD*%
%AMOC8*
5,1,8,0,0,1.08239X$1,22.5*
%
%ADD10R,0.04331X0.03937*%
%ADD11R,0.07677X0.05906*%
%ADD12R,0.08465X0.06299*%
%ADD13C,0.00011*%
%ADD14R,0.03800X0.13200*%
%ADD15R,0.03937X0.04331*%
%ADD16R,0.03150X0.03150*%
%ADD17R,0.02600X0.01200*%
%ADD18R,0.03900X0.12200*%
%ADD19R,0.02756X0.03543*%
%ADD20R,0.05000X0.02500*%
%ADD21R,0.10000X0.05000*%
%ADD22R,0.08700X0.02400*%
%ADD23R,0.01969X0.01378*%
%ADD24R,0.01100X0.06600*%
%ADD25R,0.04331X0.07087*%
%ADD26C,0.00030*%
%ADD27R,0.00984X0.02657*%
%ADD28R,0.02657X0.00984*%
%ADD29R,0.02756X0.05512*%
%ADD30R,0.02953X0.01181*%
%ADD31R,0.06800X0.04330*%
%ADD32R,0.03937X0.05512*%
%ADD33C,0.03000*%
%ADD34R,0.13000X0.04000*%
D10*
X0070689Y0023785D03*
X0070689Y0030478D03*
X0083531Y0030461D03*
X0083531Y0023769D03*
X0074858Y0054806D03*
X0068166Y0054806D03*
G36*
X0122610Y0074176D02*
X0119549Y0077237D01*
X0122332Y0080020D01*
X0125393Y0076959D01*
X0122610Y0074176D01*
G37*
G36*
X0127342Y0069443D02*
X0124281Y0072504D01*
X0127064Y0075287D01*
X0130125Y0072226D01*
X0127342Y0069443D01*
G37*
G36*
X0141142Y0075643D02*
X0138081Y0078704D01*
X0140864Y0081487D01*
X0143925Y0078426D01*
X0141142Y0075643D01*
G37*
G36*
X0136410Y0080376D02*
X0133349Y0083437D01*
X0136132Y0086220D01*
X0139193Y0083159D01*
X0136410Y0080376D01*
G37*
G36*
X0074220Y0124620D02*
X0071159Y0121559D01*
X0068376Y0124342D01*
X0071437Y0127403D01*
X0074220Y0124620D01*
G37*
G36*
X0069487Y0119888D02*
X0066426Y0116827D01*
X0063643Y0119610D01*
X0066704Y0122671D01*
X0069487Y0119888D01*
G37*
X0053731Y0133569D03*
X0053731Y0140261D03*
X0033292Y0149352D03*
X0026599Y0149352D03*
X0026599Y0159352D03*
X0033292Y0159352D03*
X0031185Y0166915D03*
X0037878Y0166915D03*
X0056985Y0166915D03*
X0063678Y0166915D03*
G36*
X0198738Y0148289D02*
X0201799Y0151350D01*
X0204582Y0148567D01*
X0201521Y0145506D01*
X0198738Y0148289D01*
G37*
G36*
X0203470Y0153022D02*
X0206531Y0156083D01*
X0209314Y0153300D01*
X0206253Y0150239D01*
X0203470Y0153022D01*
G37*
X0257985Y0104715D03*
X0264678Y0104715D03*
X0276985Y0111915D03*
X0283678Y0111915D03*
X0296291Y0111531D03*
X0302983Y0111531D03*
X0264878Y0093315D03*
X0258185Y0093315D03*
X0252531Y0094861D03*
X0252531Y0088169D03*
X0246531Y0085861D03*
X0246531Y0079169D03*
X0264185Y0071115D03*
X0270878Y0071115D03*
X0270878Y0028515D03*
X0264185Y0028515D03*
X0295769Y0150220D03*
X0302461Y0150220D03*
X0279601Y0187498D03*
X0279601Y0194191D03*
D11*
G36*
X0138234Y0087358D02*
X0132808Y0092784D01*
X0136984Y0096960D01*
X0142410Y0091534D01*
X0138234Y0087358D01*
G37*
G36*
X0145890Y0079703D02*
X0140464Y0085129D01*
X0144640Y0089305D01*
X0150066Y0083879D01*
X0145890Y0079703D01*
G37*
G36*
X0140784Y0064886D02*
X0135358Y0070312D01*
X0139534Y0074488D01*
X0144960Y0069062D01*
X0140784Y0064886D01*
G37*
G36*
X0133129Y0072542D02*
X0127703Y0077968D01*
X0131879Y0082144D01*
X0137305Y0076718D01*
X0133129Y0072542D01*
G37*
D12*
X0059012Y0048556D03*
D13*
X0059558Y0044418D02*
X0059558Y0041180D01*
X0058466Y0041180D01*
X0058466Y0044418D01*
X0059558Y0044418D01*
X0059558Y0041190D02*
X0058466Y0041190D01*
X0058466Y0041200D02*
X0059558Y0041200D01*
X0059558Y0041210D02*
X0058466Y0041210D01*
X0058466Y0041220D02*
X0059558Y0041220D01*
X0059558Y0041230D02*
X0058466Y0041230D01*
X0058466Y0041240D02*
X0059558Y0041240D01*
X0059558Y0041250D02*
X0058466Y0041250D01*
X0058466Y0041260D02*
X0059558Y0041260D01*
X0059558Y0041270D02*
X0058466Y0041270D01*
X0058466Y0041280D02*
X0059558Y0041280D01*
X0059558Y0041290D02*
X0058466Y0041290D01*
X0058466Y0041300D02*
X0059558Y0041300D01*
X0059558Y0041310D02*
X0058466Y0041310D01*
X0058466Y0041320D02*
X0059558Y0041320D01*
X0059558Y0041330D02*
X0058466Y0041330D01*
X0058466Y0041340D02*
X0059558Y0041340D01*
X0059558Y0041350D02*
X0058466Y0041350D01*
X0058466Y0041360D02*
X0059558Y0041360D01*
X0059558Y0041370D02*
X0058466Y0041370D01*
X0058466Y0041380D02*
X0059558Y0041380D01*
X0059558Y0041390D02*
X0058466Y0041390D01*
X0058466Y0041400D02*
X0059558Y0041400D01*
X0059558Y0041410D02*
X0058466Y0041410D01*
X0058466Y0041420D02*
X0059558Y0041420D01*
X0059558Y0041430D02*
X0058466Y0041430D01*
X0058466Y0041440D02*
X0059558Y0041440D01*
X0059558Y0041450D02*
X0058466Y0041450D01*
X0058466Y0041460D02*
X0059558Y0041460D01*
X0059558Y0041470D02*
X0058466Y0041470D01*
X0058466Y0041480D02*
X0059558Y0041480D01*
X0059558Y0041490D02*
X0058466Y0041490D01*
X0058466Y0041500D02*
X0059558Y0041500D01*
X0059558Y0041510D02*
X0058466Y0041510D01*
X0058466Y0041520D02*
X0059558Y0041520D01*
X0059558Y0041530D02*
X0058466Y0041530D01*
X0058466Y0041540D02*
X0059558Y0041540D01*
X0059558Y0041550D02*
X0058466Y0041550D01*
X0058466Y0041560D02*
X0059558Y0041560D01*
X0059558Y0041570D02*
X0058466Y0041570D01*
X0058466Y0041580D02*
X0059558Y0041580D01*
X0059558Y0041590D02*
X0058466Y0041590D01*
X0058466Y0041600D02*
X0059558Y0041600D01*
X0059558Y0041610D02*
X0058466Y0041610D01*
X0058466Y0041620D02*
X0059558Y0041620D01*
X0059558Y0041630D02*
X0058466Y0041630D01*
X0058466Y0041640D02*
X0059558Y0041640D01*
X0059558Y0041650D02*
X0058466Y0041650D01*
X0058466Y0041660D02*
X0059558Y0041660D01*
X0059558Y0041670D02*
X0058466Y0041670D01*
X0058466Y0041680D02*
X0059558Y0041680D01*
X0059558Y0041690D02*
X0058466Y0041690D01*
X0058466Y0041700D02*
X0059558Y0041700D01*
X0059558Y0041710D02*
X0058466Y0041710D01*
X0058466Y0041720D02*
X0059558Y0041720D01*
X0059558Y0041730D02*
X0058466Y0041730D01*
X0058466Y0041740D02*
X0059558Y0041740D01*
X0059558Y0041750D02*
X0058466Y0041750D01*
X0058466Y0041760D02*
X0059558Y0041760D01*
X0059558Y0041770D02*
X0058466Y0041770D01*
X0058466Y0041780D02*
X0059558Y0041780D01*
X0059558Y0041790D02*
X0058466Y0041790D01*
X0058466Y0041800D02*
X0059558Y0041800D01*
X0059558Y0041810D02*
X0058466Y0041810D01*
X0058466Y0041820D02*
X0059558Y0041820D01*
X0059558Y0041830D02*
X0058466Y0041830D01*
X0058466Y0041840D02*
X0059558Y0041840D01*
X0059558Y0041850D02*
X0058466Y0041850D01*
X0058466Y0041860D02*
X0059558Y0041860D01*
X0059558Y0041870D02*
X0058466Y0041870D01*
X0058466Y0041880D02*
X0059558Y0041880D01*
X0059558Y0041890D02*
X0058466Y0041890D01*
X0058466Y0041900D02*
X0059558Y0041900D01*
X0059558Y0041910D02*
X0058466Y0041910D01*
X0058466Y0041920D02*
X0059558Y0041920D01*
X0059558Y0041930D02*
X0058466Y0041930D01*
X0058466Y0041940D02*
X0059558Y0041940D01*
X0059558Y0041950D02*
X0058466Y0041950D01*
X0058466Y0041960D02*
X0059558Y0041960D01*
X0059558Y0041970D02*
X0058466Y0041970D01*
X0058466Y0041980D02*
X0059558Y0041980D01*
X0059558Y0041990D02*
X0058466Y0041990D01*
X0058466Y0042000D02*
X0059558Y0042000D01*
X0059558Y0042010D02*
X0058466Y0042010D01*
X0058466Y0042020D02*
X0059558Y0042020D01*
X0059558Y0042030D02*
X0058466Y0042030D01*
X0058466Y0042040D02*
X0059558Y0042040D01*
X0059558Y0042050D02*
X0058466Y0042050D01*
X0058466Y0042060D02*
X0059558Y0042060D01*
X0059558Y0042070D02*
X0058466Y0042070D01*
X0058466Y0042080D02*
X0059558Y0042080D01*
X0059558Y0042090D02*
X0058466Y0042090D01*
X0058466Y0042100D02*
X0059558Y0042100D01*
X0059558Y0042110D02*
X0058466Y0042110D01*
X0058466Y0042120D02*
X0059558Y0042120D01*
X0059558Y0042130D02*
X0058466Y0042130D01*
X0058466Y0042140D02*
X0059558Y0042140D01*
X0059558Y0042150D02*
X0058466Y0042150D01*
X0058466Y0042160D02*
X0059558Y0042160D01*
X0059558Y0042170D02*
X0058466Y0042170D01*
X0058466Y0042180D02*
X0059558Y0042180D01*
X0059558Y0042190D02*
X0058466Y0042190D01*
X0058466Y0042200D02*
X0059558Y0042200D01*
X0059558Y0042210D02*
X0058466Y0042210D01*
X0058466Y0042220D02*
X0059558Y0042220D01*
X0059558Y0042230D02*
X0058466Y0042230D01*
X0058466Y0042240D02*
X0059558Y0042240D01*
X0059558Y0042250D02*
X0058466Y0042250D01*
X0058466Y0042260D02*
X0059558Y0042260D01*
X0059558Y0042270D02*
X0058466Y0042270D01*
X0058466Y0042280D02*
X0059558Y0042280D01*
X0059558Y0042290D02*
X0058466Y0042290D01*
X0058466Y0042300D02*
X0059558Y0042300D01*
X0059558Y0042310D02*
X0058466Y0042310D01*
X0058466Y0042320D02*
X0059558Y0042320D01*
X0059558Y0042330D02*
X0058466Y0042330D01*
X0058466Y0042340D02*
X0059558Y0042340D01*
X0059558Y0042350D02*
X0058466Y0042350D01*
X0058466Y0042360D02*
X0059558Y0042360D01*
X0059558Y0042370D02*
X0058466Y0042370D01*
X0058466Y0042380D02*
X0059558Y0042380D01*
X0059558Y0042390D02*
X0058466Y0042390D01*
X0058466Y0042400D02*
X0059558Y0042400D01*
X0059558Y0042410D02*
X0058466Y0042410D01*
X0058466Y0042420D02*
X0059558Y0042420D01*
X0059558Y0042430D02*
X0058466Y0042430D01*
X0058466Y0042440D02*
X0059558Y0042440D01*
X0059558Y0042450D02*
X0058466Y0042450D01*
X0058466Y0042460D02*
X0059558Y0042460D01*
X0059558Y0042470D02*
X0058466Y0042470D01*
X0058466Y0042480D02*
X0059558Y0042480D01*
X0059558Y0042490D02*
X0058466Y0042490D01*
X0058466Y0042500D02*
X0059558Y0042500D01*
X0059558Y0042510D02*
X0058466Y0042510D01*
X0058466Y0042520D02*
X0059558Y0042520D01*
X0059558Y0042530D02*
X0058466Y0042530D01*
X0058466Y0042540D02*
X0059558Y0042540D01*
X0059558Y0042550D02*
X0058466Y0042550D01*
X0058466Y0042560D02*
X0059558Y0042560D01*
X0059558Y0042570D02*
X0058466Y0042570D01*
X0058466Y0042580D02*
X0059558Y0042580D01*
X0059558Y0042590D02*
X0058466Y0042590D01*
X0058466Y0042600D02*
X0059558Y0042600D01*
X0059558Y0042610D02*
X0058466Y0042610D01*
X0058466Y0042620D02*
X0059558Y0042620D01*
X0059558Y0042630D02*
X0058466Y0042630D01*
X0058466Y0042640D02*
X0059558Y0042640D01*
X0059558Y0042650D02*
X0058466Y0042650D01*
X0058466Y0042660D02*
X0059558Y0042660D01*
X0059558Y0042670D02*
X0058466Y0042670D01*
X0058466Y0042680D02*
X0059558Y0042680D01*
X0059558Y0042690D02*
X0058466Y0042690D01*
X0058466Y0042700D02*
X0059558Y0042700D01*
X0059558Y0042710D02*
X0058466Y0042710D01*
X0058466Y0042720D02*
X0059558Y0042720D01*
X0059558Y0042730D02*
X0058466Y0042730D01*
X0058466Y0042740D02*
X0059558Y0042740D01*
X0059558Y0042750D02*
X0058466Y0042750D01*
X0058466Y0042760D02*
X0059558Y0042760D01*
X0059558Y0042770D02*
X0058466Y0042770D01*
X0058466Y0042780D02*
X0059558Y0042780D01*
X0059558Y0042790D02*
X0058466Y0042790D01*
X0058466Y0042800D02*
X0059558Y0042800D01*
X0059558Y0042810D02*
X0058466Y0042810D01*
X0058466Y0042820D02*
X0059558Y0042820D01*
X0059558Y0042830D02*
X0058466Y0042830D01*
X0058466Y0042840D02*
X0059558Y0042840D01*
X0059558Y0042850D02*
X0058466Y0042850D01*
X0058466Y0042860D02*
X0059558Y0042860D01*
X0059558Y0042870D02*
X0058466Y0042870D01*
X0058466Y0042880D02*
X0059558Y0042880D01*
X0059558Y0042890D02*
X0058466Y0042890D01*
X0058466Y0042900D02*
X0059558Y0042900D01*
X0059558Y0042910D02*
X0058466Y0042910D01*
X0058466Y0042920D02*
X0059558Y0042920D01*
X0059558Y0042930D02*
X0058466Y0042930D01*
X0058466Y0042940D02*
X0059558Y0042940D01*
X0059558Y0042950D02*
X0058466Y0042950D01*
X0058466Y0042960D02*
X0059558Y0042960D01*
X0059558Y0042970D02*
X0058466Y0042970D01*
X0058466Y0042980D02*
X0059558Y0042980D01*
X0059558Y0042990D02*
X0058466Y0042990D01*
X0058466Y0043000D02*
X0059558Y0043000D01*
X0059558Y0043010D02*
X0058466Y0043010D01*
X0058466Y0043020D02*
X0059558Y0043020D01*
X0059558Y0043030D02*
X0058466Y0043030D01*
X0058466Y0043040D02*
X0059558Y0043040D01*
X0059558Y0043050D02*
X0058466Y0043050D01*
X0058466Y0043060D02*
X0059558Y0043060D01*
X0059558Y0043070D02*
X0058466Y0043070D01*
X0058466Y0043080D02*
X0059558Y0043080D01*
X0059558Y0043090D02*
X0058466Y0043090D01*
X0058466Y0043100D02*
X0059558Y0043100D01*
X0059558Y0043110D02*
X0058466Y0043110D01*
X0058466Y0043120D02*
X0059558Y0043120D01*
X0059558Y0043130D02*
X0058466Y0043130D01*
X0058466Y0043140D02*
X0059558Y0043140D01*
X0059558Y0043150D02*
X0058466Y0043150D01*
X0058466Y0043160D02*
X0059558Y0043160D01*
X0059558Y0043170D02*
X0058466Y0043170D01*
X0058466Y0043180D02*
X0059558Y0043180D01*
X0059558Y0043190D02*
X0058466Y0043190D01*
X0058466Y0043200D02*
X0059558Y0043200D01*
X0059558Y0043210D02*
X0058466Y0043210D01*
X0058466Y0043220D02*
X0059558Y0043220D01*
X0059558Y0043230D02*
X0058466Y0043230D01*
X0058466Y0043240D02*
X0059558Y0043240D01*
X0059558Y0043250D02*
X0058466Y0043250D01*
X0058466Y0043260D02*
X0059558Y0043260D01*
X0059558Y0043270D02*
X0058466Y0043270D01*
X0058466Y0043280D02*
X0059558Y0043280D01*
X0059558Y0043290D02*
X0058466Y0043290D01*
X0058466Y0043300D02*
X0059558Y0043300D01*
X0059558Y0043310D02*
X0058466Y0043310D01*
X0058466Y0043320D02*
X0059558Y0043320D01*
X0059558Y0043330D02*
X0058466Y0043330D01*
X0058466Y0043340D02*
X0059558Y0043340D01*
X0059558Y0043350D02*
X0058466Y0043350D01*
X0058466Y0043360D02*
X0059558Y0043360D01*
X0059558Y0043370D02*
X0058466Y0043370D01*
X0058466Y0043380D02*
X0059558Y0043380D01*
X0059558Y0043390D02*
X0058466Y0043390D01*
X0058466Y0043400D02*
X0059558Y0043400D01*
X0059558Y0043410D02*
X0058466Y0043410D01*
X0058466Y0043420D02*
X0059558Y0043420D01*
X0059558Y0043430D02*
X0058466Y0043430D01*
X0058466Y0043440D02*
X0059558Y0043440D01*
X0059558Y0043450D02*
X0058466Y0043450D01*
X0058466Y0043460D02*
X0059558Y0043460D01*
X0059558Y0043470D02*
X0058466Y0043470D01*
X0058466Y0043480D02*
X0059558Y0043480D01*
X0059558Y0043490D02*
X0058466Y0043490D01*
X0058466Y0043500D02*
X0059558Y0043500D01*
X0059558Y0043510D02*
X0058466Y0043510D01*
X0058466Y0043520D02*
X0059558Y0043520D01*
X0059558Y0043530D02*
X0058466Y0043530D01*
X0058466Y0043540D02*
X0059558Y0043540D01*
X0059558Y0043550D02*
X0058466Y0043550D01*
X0058466Y0043560D02*
X0059558Y0043560D01*
X0059558Y0043570D02*
X0058466Y0043570D01*
X0058466Y0043580D02*
X0059558Y0043580D01*
X0059558Y0043590D02*
X0058466Y0043590D01*
X0058466Y0043600D02*
X0059558Y0043600D01*
X0059558Y0043610D02*
X0058466Y0043610D01*
X0058466Y0043620D02*
X0059558Y0043620D01*
X0059558Y0043630D02*
X0058466Y0043630D01*
X0058466Y0043640D02*
X0059558Y0043640D01*
X0059558Y0043650D02*
X0058466Y0043650D01*
X0058466Y0043660D02*
X0059558Y0043660D01*
X0059558Y0043670D02*
X0058466Y0043670D01*
X0058466Y0043680D02*
X0059558Y0043680D01*
X0059558Y0043690D02*
X0058466Y0043690D01*
X0058466Y0043700D02*
X0059558Y0043700D01*
X0059558Y0043710D02*
X0058466Y0043710D01*
X0058466Y0043720D02*
X0059558Y0043720D01*
X0059558Y0043730D02*
X0058466Y0043730D01*
X0058466Y0043740D02*
X0059558Y0043740D01*
X0059558Y0043750D02*
X0058466Y0043750D01*
X0058466Y0043760D02*
X0059558Y0043760D01*
X0059558Y0043770D02*
X0058466Y0043770D01*
X0058466Y0043780D02*
X0059558Y0043780D01*
X0059558Y0043790D02*
X0058466Y0043790D01*
X0058466Y0043800D02*
X0059558Y0043800D01*
X0059558Y0043810D02*
X0058466Y0043810D01*
X0058466Y0043820D02*
X0059558Y0043820D01*
X0059558Y0043830D02*
X0058466Y0043830D01*
X0058466Y0043840D02*
X0059558Y0043840D01*
X0059558Y0043850D02*
X0058466Y0043850D01*
X0058466Y0043860D02*
X0059558Y0043860D01*
X0059558Y0043870D02*
X0058466Y0043870D01*
X0058466Y0043880D02*
X0059558Y0043880D01*
X0059558Y0043890D02*
X0058466Y0043890D01*
X0058466Y0043900D02*
X0059558Y0043900D01*
X0059558Y0043910D02*
X0058466Y0043910D01*
X0058466Y0043920D02*
X0059558Y0043920D01*
X0059558Y0043930D02*
X0058466Y0043930D01*
X0058466Y0043940D02*
X0059558Y0043940D01*
X0059558Y0043950D02*
X0058466Y0043950D01*
X0058466Y0043960D02*
X0059558Y0043960D01*
X0059558Y0043970D02*
X0058466Y0043970D01*
X0058466Y0043980D02*
X0059558Y0043980D01*
X0059558Y0043990D02*
X0058466Y0043990D01*
X0058466Y0044000D02*
X0059558Y0044000D01*
X0059558Y0044010D02*
X0058466Y0044010D01*
X0058466Y0044020D02*
X0059558Y0044020D01*
X0059558Y0044030D02*
X0058466Y0044030D01*
X0058466Y0044040D02*
X0059558Y0044040D01*
X0059558Y0044050D02*
X0058466Y0044050D01*
X0058466Y0044060D02*
X0059558Y0044060D01*
X0059558Y0044070D02*
X0058466Y0044070D01*
X0058466Y0044080D02*
X0059558Y0044080D01*
X0059558Y0044090D02*
X0058466Y0044090D01*
X0058466Y0044100D02*
X0059558Y0044100D01*
X0059558Y0044110D02*
X0058466Y0044110D01*
X0058466Y0044120D02*
X0059558Y0044120D01*
X0059558Y0044130D02*
X0058466Y0044130D01*
X0058466Y0044140D02*
X0059558Y0044140D01*
X0059558Y0044150D02*
X0058466Y0044150D01*
X0058466Y0044160D02*
X0059558Y0044160D01*
X0059558Y0044170D02*
X0058466Y0044170D01*
X0058466Y0044180D02*
X0059558Y0044180D01*
X0059558Y0044190D02*
X0058466Y0044190D01*
X0058466Y0044200D02*
X0059558Y0044200D01*
X0059558Y0044210D02*
X0058466Y0044210D01*
X0058466Y0044220D02*
X0059558Y0044220D01*
X0059558Y0044230D02*
X0058466Y0044230D01*
X0058466Y0044240D02*
X0059558Y0044240D01*
X0059558Y0044250D02*
X0058466Y0044250D01*
X0058466Y0044260D02*
X0059558Y0044260D01*
X0059558Y0044270D02*
X0058466Y0044270D01*
X0058466Y0044280D02*
X0059558Y0044280D01*
X0059558Y0044290D02*
X0058466Y0044290D01*
X0058466Y0044300D02*
X0059558Y0044300D01*
X0059558Y0044310D02*
X0058466Y0044310D01*
X0058466Y0044320D02*
X0059558Y0044320D01*
X0059558Y0044330D02*
X0058466Y0044330D01*
X0058466Y0044340D02*
X0059558Y0044340D01*
X0059558Y0044350D02*
X0058466Y0044350D01*
X0058466Y0044360D02*
X0059558Y0044360D01*
X0059558Y0044370D02*
X0058466Y0044370D01*
X0058466Y0044380D02*
X0059558Y0044380D01*
X0059558Y0044390D02*
X0058466Y0044390D01*
X0058466Y0044400D02*
X0059558Y0044400D01*
X0059558Y0044410D02*
X0058466Y0044410D01*
X0057590Y0044418D02*
X0057590Y0041180D01*
X0056498Y0041180D01*
X0056498Y0044418D01*
X0057590Y0044418D01*
X0057590Y0041190D02*
X0056498Y0041190D01*
X0056498Y0041200D02*
X0057590Y0041200D01*
X0057590Y0041210D02*
X0056498Y0041210D01*
X0056498Y0041220D02*
X0057590Y0041220D01*
X0057590Y0041230D02*
X0056498Y0041230D01*
X0056498Y0041240D02*
X0057590Y0041240D01*
X0057590Y0041250D02*
X0056498Y0041250D01*
X0056498Y0041260D02*
X0057590Y0041260D01*
X0057590Y0041270D02*
X0056498Y0041270D01*
X0056498Y0041280D02*
X0057590Y0041280D01*
X0057590Y0041290D02*
X0056498Y0041290D01*
X0056498Y0041300D02*
X0057590Y0041300D01*
X0057590Y0041310D02*
X0056498Y0041310D01*
X0056498Y0041320D02*
X0057590Y0041320D01*
X0057590Y0041330D02*
X0056498Y0041330D01*
X0056498Y0041340D02*
X0057590Y0041340D01*
X0057590Y0041350D02*
X0056498Y0041350D01*
X0056498Y0041360D02*
X0057590Y0041360D01*
X0057590Y0041370D02*
X0056498Y0041370D01*
X0056498Y0041380D02*
X0057590Y0041380D01*
X0057590Y0041390D02*
X0056498Y0041390D01*
X0056498Y0041400D02*
X0057590Y0041400D01*
X0057590Y0041410D02*
X0056498Y0041410D01*
X0056498Y0041420D02*
X0057590Y0041420D01*
X0057590Y0041430D02*
X0056498Y0041430D01*
X0056498Y0041440D02*
X0057590Y0041440D01*
X0057590Y0041450D02*
X0056498Y0041450D01*
X0056498Y0041460D02*
X0057590Y0041460D01*
X0057590Y0041470D02*
X0056498Y0041470D01*
X0056498Y0041480D02*
X0057590Y0041480D01*
X0057590Y0041490D02*
X0056498Y0041490D01*
X0056498Y0041500D02*
X0057590Y0041500D01*
X0057590Y0041510D02*
X0056498Y0041510D01*
X0056498Y0041520D02*
X0057590Y0041520D01*
X0057590Y0041530D02*
X0056498Y0041530D01*
X0056498Y0041540D02*
X0057590Y0041540D01*
X0057590Y0041550D02*
X0056498Y0041550D01*
X0056498Y0041560D02*
X0057590Y0041560D01*
X0057590Y0041570D02*
X0056498Y0041570D01*
X0056498Y0041580D02*
X0057590Y0041580D01*
X0057590Y0041590D02*
X0056498Y0041590D01*
X0056498Y0041600D02*
X0057590Y0041600D01*
X0057590Y0041610D02*
X0056498Y0041610D01*
X0056498Y0041620D02*
X0057590Y0041620D01*
X0057590Y0041630D02*
X0056498Y0041630D01*
X0056498Y0041640D02*
X0057590Y0041640D01*
X0057590Y0041650D02*
X0056498Y0041650D01*
X0056498Y0041660D02*
X0057590Y0041660D01*
X0057590Y0041670D02*
X0056498Y0041670D01*
X0056498Y0041680D02*
X0057590Y0041680D01*
X0057590Y0041690D02*
X0056498Y0041690D01*
X0056498Y0041700D02*
X0057590Y0041700D01*
X0057590Y0041710D02*
X0056498Y0041710D01*
X0056498Y0041720D02*
X0057590Y0041720D01*
X0057590Y0041730D02*
X0056498Y0041730D01*
X0056498Y0041740D02*
X0057590Y0041740D01*
X0057590Y0041750D02*
X0056498Y0041750D01*
X0056498Y0041760D02*
X0057590Y0041760D01*
X0057590Y0041770D02*
X0056498Y0041770D01*
X0056498Y0041780D02*
X0057590Y0041780D01*
X0057590Y0041790D02*
X0056498Y0041790D01*
X0056498Y0041800D02*
X0057590Y0041800D01*
X0057590Y0041810D02*
X0056498Y0041810D01*
X0056498Y0041820D02*
X0057590Y0041820D01*
X0057590Y0041830D02*
X0056498Y0041830D01*
X0056498Y0041840D02*
X0057590Y0041840D01*
X0057590Y0041850D02*
X0056498Y0041850D01*
X0056498Y0041860D02*
X0057590Y0041860D01*
X0057590Y0041870D02*
X0056498Y0041870D01*
X0056498Y0041880D02*
X0057590Y0041880D01*
X0057590Y0041890D02*
X0056498Y0041890D01*
X0056498Y0041900D02*
X0057590Y0041900D01*
X0057590Y0041910D02*
X0056498Y0041910D01*
X0056498Y0041920D02*
X0057590Y0041920D01*
X0057590Y0041930D02*
X0056498Y0041930D01*
X0056498Y0041940D02*
X0057590Y0041940D01*
X0057590Y0041950D02*
X0056498Y0041950D01*
X0056498Y0041960D02*
X0057590Y0041960D01*
X0057590Y0041970D02*
X0056498Y0041970D01*
X0056498Y0041980D02*
X0057590Y0041980D01*
X0057590Y0041990D02*
X0056498Y0041990D01*
X0056498Y0042000D02*
X0057590Y0042000D01*
X0057590Y0042010D02*
X0056498Y0042010D01*
X0056498Y0042020D02*
X0057590Y0042020D01*
X0057590Y0042030D02*
X0056498Y0042030D01*
X0056498Y0042040D02*
X0057590Y0042040D01*
X0057590Y0042050D02*
X0056498Y0042050D01*
X0056498Y0042060D02*
X0057590Y0042060D01*
X0057590Y0042070D02*
X0056498Y0042070D01*
X0056498Y0042080D02*
X0057590Y0042080D01*
X0057590Y0042090D02*
X0056498Y0042090D01*
X0056498Y0042100D02*
X0057590Y0042100D01*
X0057590Y0042110D02*
X0056498Y0042110D01*
X0056498Y0042120D02*
X0057590Y0042120D01*
X0057590Y0042130D02*
X0056498Y0042130D01*
X0056498Y0042140D02*
X0057590Y0042140D01*
X0057590Y0042150D02*
X0056498Y0042150D01*
X0056498Y0042160D02*
X0057590Y0042160D01*
X0057590Y0042170D02*
X0056498Y0042170D01*
X0056498Y0042180D02*
X0057590Y0042180D01*
X0057590Y0042190D02*
X0056498Y0042190D01*
X0056498Y0042200D02*
X0057590Y0042200D01*
X0057590Y0042210D02*
X0056498Y0042210D01*
X0056498Y0042220D02*
X0057590Y0042220D01*
X0057590Y0042230D02*
X0056498Y0042230D01*
X0056498Y0042240D02*
X0057590Y0042240D01*
X0057590Y0042250D02*
X0056498Y0042250D01*
X0056498Y0042260D02*
X0057590Y0042260D01*
X0057590Y0042270D02*
X0056498Y0042270D01*
X0056498Y0042280D02*
X0057590Y0042280D01*
X0057590Y0042290D02*
X0056498Y0042290D01*
X0056498Y0042300D02*
X0057590Y0042300D01*
X0057590Y0042310D02*
X0056498Y0042310D01*
X0056498Y0042320D02*
X0057590Y0042320D01*
X0057590Y0042330D02*
X0056498Y0042330D01*
X0056498Y0042340D02*
X0057590Y0042340D01*
X0057590Y0042350D02*
X0056498Y0042350D01*
X0056498Y0042360D02*
X0057590Y0042360D01*
X0057590Y0042370D02*
X0056498Y0042370D01*
X0056498Y0042380D02*
X0057590Y0042380D01*
X0057590Y0042390D02*
X0056498Y0042390D01*
X0056498Y0042400D02*
X0057590Y0042400D01*
X0057590Y0042410D02*
X0056498Y0042410D01*
X0056498Y0042420D02*
X0057590Y0042420D01*
X0057590Y0042430D02*
X0056498Y0042430D01*
X0056498Y0042440D02*
X0057590Y0042440D01*
X0057590Y0042450D02*
X0056498Y0042450D01*
X0056498Y0042460D02*
X0057590Y0042460D01*
X0057590Y0042470D02*
X0056498Y0042470D01*
X0056498Y0042480D02*
X0057590Y0042480D01*
X0057590Y0042490D02*
X0056498Y0042490D01*
X0056498Y0042500D02*
X0057590Y0042500D01*
X0057590Y0042510D02*
X0056498Y0042510D01*
X0056498Y0042520D02*
X0057590Y0042520D01*
X0057590Y0042530D02*
X0056498Y0042530D01*
X0056498Y0042540D02*
X0057590Y0042540D01*
X0057590Y0042550D02*
X0056498Y0042550D01*
X0056498Y0042560D02*
X0057590Y0042560D01*
X0057590Y0042570D02*
X0056498Y0042570D01*
X0056498Y0042580D02*
X0057590Y0042580D01*
X0057590Y0042590D02*
X0056498Y0042590D01*
X0056498Y0042600D02*
X0057590Y0042600D01*
X0057590Y0042610D02*
X0056498Y0042610D01*
X0056498Y0042620D02*
X0057590Y0042620D01*
X0057590Y0042630D02*
X0056498Y0042630D01*
X0056498Y0042640D02*
X0057590Y0042640D01*
X0057590Y0042650D02*
X0056498Y0042650D01*
X0056498Y0042660D02*
X0057590Y0042660D01*
X0057590Y0042670D02*
X0056498Y0042670D01*
X0056498Y0042680D02*
X0057590Y0042680D01*
X0057590Y0042690D02*
X0056498Y0042690D01*
X0056498Y0042700D02*
X0057590Y0042700D01*
X0057590Y0042710D02*
X0056498Y0042710D01*
X0056498Y0042720D02*
X0057590Y0042720D01*
X0057590Y0042730D02*
X0056498Y0042730D01*
X0056498Y0042740D02*
X0057590Y0042740D01*
X0057590Y0042750D02*
X0056498Y0042750D01*
X0056498Y0042760D02*
X0057590Y0042760D01*
X0057590Y0042770D02*
X0056498Y0042770D01*
X0056498Y0042780D02*
X0057590Y0042780D01*
X0057590Y0042790D02*
X0056498Y0042790D01*
X0056498Y0042800D02*
X0057590Y0042800D01*
X0057590Y0042810D02*
X0056498Y0042810D01*
X0056498Y0042820D02*
X0057590Y0042820D01*
X0057590Y0042830D02*
X0056498Y0042830D01*
X0056498Y0042840D02*
X0057590Y0042840D01*
X0057590Y0042850D02*
X0056498Y0042850D01*
X0056498Y0042860D02*
X0057590Y0042860D01*
X0057590Y0042870D02*
X0056498Y0042870D01*
X0056498Y0042880D02*
X0057590Y0042880D01*
X0057590Y0042890D02*
X0056498Y0042890D01*
X0056498Y0042900D02*
X0057590Y0042900D01*
X0057590Y0042910D02*
X0056498Y0042910D01*
X0056498Y0042920D02*
X0057590Y0042920D01*
X0057590Y0042930D02*
X0056498Y0042930D01*
X0056498Y0042940D02*
X0057590Y0042940D01*
X0057590Y0042950D02*
X0056498Y0042950D01*
X0056498Y0042960D02*
X0057590Y0042960D01*
X0057590Y0042970D02*
X0056498Y0042970D01*
X0056498Y0042980D02*
X0057590Y0042980D01*
X0057590Y0042990D02*
X0056498Y0042990D01*
X0056498Y0043000D02*
X0057590Y0043000D01*
X0057590Y0043010D02*
X0056498Y0043010D01*
X0056498Y0043020D02*
X0057590Y0043020D01*
X0057590Y0043030D02*
X0056498Y0043030D01*
X0056498Y0043040D02*
X0057590Y0043040D01*
X0057590Y0043050D02*
X0056498Y0043050D01*
X0056498Y0043060D02*
X0057590Y0043060D01*
X0057590Y0043070D02*
X0056498Y0043070D01*
X0056498Y0043080D02*
X0057590Y0043080D01*
X0057590Y0043090D02*
X0056498Y0043090D01*
X0056498Y0043100D02*
X0057590Y0043100D01*
X0057590Y0043110D02*
X0056498Y0043110D01*
X0056498Y0043120D02*
X0057590Y0043120D01*
X0057590Y0043130D02*
X0056498Y0043130D01*
X0056498Y0043140D02*
X0057590Y0043140D01*
X0057590Y0043150D02*
X0056498Y0043150D01*
X0056498Y0043160D02*
X0057590Y0043160D01*
X0057590Y0043170D02*
X0056498Y0043170D01*
X0056498Y0043180D02*
X0057590Y0043180D01*
X0057590Y0043190D02*
X0056498Y0043190D01*
X0056498Y0043200D02*
X0057590Y0043200D01*
X0057590Y0043210D02*
X0056498Y0043210D01*
X0056498Y0043220D02*
X0057590Y0043220D01*
X0057590Y0043230D02*
X0056498Y0043230D01*
X0056498Y0043240D02*
X0057590Y0043240D01*
X0057590Y0043250D02*
X0056498Y0043250D01*
X0056498Y0043260D02*
X0057590Y0043260D01*
X0057590Y0043270D02*
X0056498Y0043270D01*
X0056498Y0043280D02*
X0057590Y0043280D01*
X0057590Y0043290D02*
X0056498Y0043290D01*
X0056498Y0043300D02*
X0057590Y0043300D01*
X0057590Y0043310D02*
X0056498Y0043310D01*
X0056498Y0043320D02*
X0057590Y0043320D01*
X0057590Y0043330D02*
X0056498Y0043330D01*
X0056498Y0043340D02*
X0057590Y0043340D01*
X0057590Y0043350D02*
X0056498Y0043350D01*
X0056498Y0043360D02*
X0057590Y0043360D01*
X0057590Y0043370D02*
X0056498Y0043370D01*
X0056498Y0043380D02*
X0057590Y0043380D01*
X0057590Y0043390D02*
X0056498Y0043390D01*
X0056498Y0043400D02*
X0057590Y0043400D01*
X0057590Y0043410D02*
X0056498Y0043410D01*
X0056498Y0043420D02*
X0057590Y0043420D01*
X0057590Y0043430D02*
X0056498Y0043430D01*
X0056498Y0043440D02*
X0057590Y0043440D01*
X0057590Y0043450D02*
X0056498Y0043450D01*
X0056498Y0043460D02*
X0057590Y0043460D01*
X0057590Y0043470D02*
X0056498Y0043470D01*
X0056498Y0043480D02*
X0057590Y0043480D01*
X0057590Y0043490D02*
X0056498Y0043490D01*
X0056498Y0043500D02*
X0057590Y0043500D01*
X0057590Y0043510D02*
X0056498Y0043510D01*
X0056498Y0043520D02*
X0057590Y0043520D01*
X0057590Y0043530D02*
X0056498Y0043530D01*
X0056498Y0043540D02*
X0057590Y0043540D01*
X0057590Y0043550D02*
X0056498Y0043550D01*
X0056498Y0043560D02*
X0057590Y0043560D01*
X0057590Y0043570D02*
X0056498Y0043570D01*
X0056498Y0043580D02*
X0057590Y0043580D01*
X0057590Y0043590D02*
X0056498Y0043590D01*
X0056498Y0043600D02*
X0057590Y0043600D01*
X0057590Y0043610D02*
X0056498Y0043610D01*
X0056498Y0043620D02*
X0057590Y0043620D01*
X0057590Y0043630D02*
X0056498Y0043630D01*
X0056498Y0043640D02*
X0057590Y0043640D01*
X0057590Y0043650D02*
X0056498Y0043650D01*
X0056498Y0043660D02*
X0057590Y0043660D01*
X0057590Y0043670D02*
X0056498Y0043670D01*
X0056498Y0043680D02*
X0057590Y0043680D01*
X0057590Y0043690D02*
X0056498Y0043690D01*
X0056498Y0043700D02*
X0057590Y0043700D01*
X0057590Y0043710D02*
X0056498Y0043710D01*
X0056498Y0043720D02*
X0057590Y0043720D01*
X0057590Y0043730D02*
X0056498Y0043730D01*
X0056498Y0043740D02*
X0057590Y0043740D01*
X0057590Y0043750D02*
X0056498Y0043750D01*
X0056498Y0043760D02*
X0057590Y0043760D01*
X0057590Y0043770D02*
X0056498Y0043770D01*
X0056498Y0043780D02*
X0057590Y0043780D01*
X0057590Y0043790D02*
X0056498Y0043790D01*
X0056498Y0043800D02*
X0057590Y0043800D01*
X0057590Y0043810D02*
X0056498Y0043810D01*
X0056498Y0043820D02*
X0057590Y0043820D01*
X0057590Y0043830D02*
X0056498Y0043830D01*
X0056498Y0043840D02*
X0057590Y0043840D01*
X0057590Y0043850D02*
X0056498Y0043850D01*
X0056498Y0043860D02*
X0057590Y0043860D01*
X0057590Y0043870D02*
X0056498Y0043870D01*
X0056498Y0043880D02*
X0057590Y0043880D01*
X0057590Y0043890D02*
X0056498Y0043890D01*
X0056498Y0043900D02*
X0057590Y0043900D01*
X0057590Y0043910D02*
X0056498Y0043910D01*
X0056498Y0043920D02*
X0057590Y0043920D01*
X0057590Y0043930D02*
X0056498Y0043930D01*
X0056498Y0043940D02*
X0057590Y0043940D01*
X0057590Y0043950D02*
X0056498Y0043950D01*
X0056498Y0043960D02*
X0057590Y0043960D01*
X0057590Y0043970D02*
X0056498Y0043970D01*
X0056498Y0043980D02*
X0057590Y0043980D01*
X0057590Y0043990D02*
X0056498Y0043990D01*
X0056498Y0044000D02*
X0057590Y0044000D01*
X0057590Y0044010D02*
X0056498Y0044010D01*
X0056498Y0044020D02*
X0057590Y0044020D01*
X0057590Y0044030D02*
X0056498Y0044030D01*
X0056498Y0044040D02*
X0057590Y0044040D01*
X0057590Y0044050D02*
X0056498Y0044050D01*
X0056498Y0044060D02*
X0057590Y0044060D01*
X0057590Y0044070D02*
X0056498Y0044070D01*
X0056498Y0044080D02*
X0057590Y0044080D01*
X0057590Y0044090D02*
X0056498Y0044090D01*
X0056498Y0044100D02*
X0057590Y0044100D01*
X0057590Y0044110D02*
X0056498Y0044110D01*
X0056498Y0044120D02*
X0057590Y0044120D01*
X0057590Y0044130D02*
X0056498Y0044130D01*
X0056498Y0044140D02*
X0057590Y0044140D01*
X0057590Y0044150D02*
X0056498Y0044150D01*
X0056498Y0044160D02*
X0057590Y0044160D01*
X0057590Y0044170D02*
X0056498Y0044170D01*
X0056498Y0044180D02*
X0057590Y0044180D01*
X0057590Y0044190D02*
X0056498Y0044190D01*
X0056498Y0044200D02*
X0057590Y0044200D01*
X0057590Y0044210D02*
X0056498Y0044210D01*
X0056498Y0044220D02*
X0057590Y0044220D01*
X0057590Y0044230D02*
X0056498Y0044230D01*
X0056498Y0044240D02*
X0057590Y0044240D01*
X0057590Y0044250D02*
X0056498Y0044250D01*
X0056498Y0044260D02*
X0057590Y0044260D01*
X0057590Y0044270D02*
X0056498Y0044270D01*
X0056498Y0044280D02*
X0057590Y0044280D01*
X0057590Y0044290D02*
X0056498Y0044290D01*
X0056498Y0044300D02*
X0057590Y0044300D01*
X0057590Y0044310D02*
X0056498Y0044310D01*
X0056498Y0044320D02*
X0057590Y0044320D01*
X0057590Y0044330D02*
X0056498Y0044330D01*
X0056498Y0044340D02*
X0057590Y0044340D01*
X0057590Y0044350D02*
X0056498Y0044350D01*
X0056498Y0044360D02*
X0057590Y0044360D01*
X0057590Y0044370D02*
X0056498Y0044370D01*
X0056498Y0044380D02*
X0057590Y0044380D01*
X0057590Y0044390D02*
X0056498Y0044390D01*
X0056498Y0044400D02*
X0057590Y0044400D01*
X0057590Y0044410D02*
X0056498Y0044410D01*
X0055621Y0044418D02*
X0055621Y0041180D01*
X0054529Y0041180D01*
X0054529Y0044418D01*
X0055621Y0044418D01*
X0055621Y0041190D02*
X0054529Y0041190D01*
X0054529Y0041200D02*
X0055621Y0041200D01*
X0055621Y0041210D02*
X0054529Y0041210D01*
X0054529Y0041220D02*
X0055621Y0041220D01*
X0055621Y0041230D02*
X0054529Y0041230D01*
X0054529Y0041240D02*
X0055621Y0041240D01*
X0055621Y0041250D02*
X0054529Y0041250D01*
X0054529Y0041260D02*
X0055621Y0041260D01*
X0055621Y0041270D02*
X0054529Y0041270D01*
X0054529Y0041280D02*
X0055621Y0041280D01*
X0055621Y0041290D02*
X0054529Y0041290D01*
X0054529Y0041300D02*
X0055621Y0041300D01*
X0055621Y0041310D02*
X0054529Y0041310D01*
X0054529Y0041320D02*
X0055621Y0041320D01*
X0055621Y0041330D02*
X0054529Y0041330D01*
X0054529Y0041340D02*
X0055621Y0041340D01*
X0055621Y0041350D02*
X0054529Y0041350D01*
X0054529Y0041360D02*
X0055621Y0041360D01*
X0055621Y0041370D02*
X0054529Y0041370D01*
X0054529Y0041380D02*
X0055621Y0041380D01*
X0055621Y0041390D02*
X0054529Y0041390D01*
X0054529Y0041400D02*
X0055621Y0041400D01*
X0055621Y0041410D02*
X0054529Y0041410D01*
X0054529Y0041420D02*
X0055621Y0041420D01*
X0055621Y0041430D02*
X0054529Y0041430D01*
X0054529Y0041440D02*
X0055621Y0041440D01*
X0055621Y0041450D02*
X0054529Y0041450D01*
X0054529Y0041460D02*
X0055621Y0041460D01*
X0055621Y0041470D02*
X0054529Y0041470D01*
X0054529Y0041480D02*
X0055621Y0041480D01*
X0055621Y0041490D02*
X0054529Y0041490D01*
X0054529Y0041500D02*
X0055621Y0041500D01*
X0055621Y0041510D02*
X0054529Y0041510D01*
X0054529Y0041520D02*
X0055621Y0041520D01*
X0055621Y0041530D02*
X0054529Y0041530D01*
X0054529Y0041540D02*
X0055621Y0041540D01*
X0055621Y0041550D02*
X0054529Y0041550D01*
X0054529Y0041560D02*
X0055621Y0041560D01*
X0055621Y0041570D02*
X0054529Y0041570D01*
X0054529Y0041580D02*
X0055621Y0041580D01*
X0055621Y0041590D02*
X0054529Y0041590D01*
X0054529Y0041600D02*
X0055621Y0041600D01*
X0055621Y0041610D02*
X0054529Y0041610D01*
X0054529Y0041620D02*
X0055621Y0041620D01*
X0055621Y0041630D02*
X0054529Y0041630D01*
X0054529Y0041640D02*
X0055621Y0041640D01*
X0055621Y0041650D02*
X0054529Y0041650D01*
X0054529Y0041660D02*
X0055621Y0041660D01*
X0055621Y0041670D02*
X0054529Y0041670D01*
X0054529Y0041680D02*
X0055621Y0041680D01*
X0055621Y0041690D02*
X0054529Y0041690D01*
X0054529Y0041700D02*
X0055621Y0041700D01*
X0055621Y0041710D02*
X0054529Y0041710D01*
X0054529Y0041720D02*
X0055621Y0041720D01*
X0055621Y0041730D02*
X0054529Y0041730D01*
X0054529Y0041740D02*
X0055621Y0041740D01*
X0055621Y0041750D02*
X0054529Y0041750D01*
X0054529Y0041760D02*
X0055621Y0041760D01*
X0055621Y0041770D02*
X0054529Y0041770D01*
X0054529Y0041780D02*
X0055621Y0041780D01*
X0055621Y0041790D02*
X0054529Y0041790D01*
X0054529Y0041800D02*
X0055621Y0041800D01*
X0055621Y0041810D02*
X0054529Y0041810D01*
X0054529Y0041820D02*
X0055621Y0041820D01*
X0055621Y0041830D02*
X0054529Y0041830D01*
X0054529Y0041840D02*
X0055621Y0041840D01*
X0055621Y0041850D02*
X0054529Y0041850D01*
X0054529Y0041860D02*
X0055621Y0041860D01*
X0055621Y0041870D02*
X0054529Y0041870D01*
X0054529Y0041880D02*
X0055621Y0041880D01*
X0055621Y0041890D02*
X0054529Y0041890D01*
X0054529Y0041900D02*
X0055621Y0041900D01*
X0055621Y0041910D02*
X0054529Y0041910D01*
X0054529Y0041920D02*
X0055621Y0041920D01*
X0055621Y0041930D02*
X0054529Y0041930D01*
X0054529Y0041940D02*
X0055621Y0041940D01*
X0055621Y0041950D02*
X0054529Y0041950D01*
X0054529Y0041960D02*
X0055621Y0041960D01*
X0055621Y0041970D02*
X0054529Y0041970D01*
X0054529Y0041980D02*
X0055621Y0041980D01*
X0055621Y0041990D02*
X0054529Y0041990D01*
X0054529Y0042000D02*
X0055621Y0042000D01*
X0055621Y0042010D02*
X0054529Y0042010D01*
X0054529Y0042020D02*
X0055621Y0042020D01*
X0055621Y0042030D02*
X0054529Y0042030D01*
X0054529Y0042040D02*
X0055621Y0042040D01*
X0055621Y0042050D02*
X0054529Y0042050D01*
X0054529Y0042060D02*
X0055621Y0042060D01*
X0055621Y0042070D02*
X0054529Y0042070D01*
X0054529Y0042080D02*
X0055621Y0042080D01*
X0055621Y0042090D02*
X0054529Y0042090D01*
X0054529Y0042100D02*
X0055621Y0042100D01*
X0055621Y0042110D02*
X0054529Y0042110D01*
X0054529Y0042120D02*
X0055621Y0042120D01*
X0055621Y0042130D02*
X0054529Y0042130D01*
X0054529Y0042140D02*
X0055621Y0042140D01*
X0055621Y0042150D02*
X0054529Y0042150D01*
X0054529Y0042160D02*
X0055621Y0042160D01*
X0055621Y0042170D02*
X0054529Y0042170D01*
X0054529Y0042180D02*
X0055621Y0042180D01*
X0055621Y0042190D02*
X0054529Y0042190D01*
X0054529Y0042200D02*
X0055621Y0042200D01*
X0055621Y0042210D02*
X0054529Y0042210D01*
X0054529Y0042220D02*
X0055621Y0042220D01*
X0055621Y0042230D02*
X0054529Y0042230D01*
X0054529Y0042240D02*
X0055621Y0042240D01*
X0055621Y0042250D02*
X0054529Y0042250D01*
X0054529Y0042260D02*
X0055621Y0042260D01*
X0055621Y0042270D02*
X0054529Y0042270D01*
X0054529Y0042280D02*
X0055621Y0042280D01*
X0055621Y0042290D02*
X0054529Y0042290D01*
X0054529Y0042300D02*
X0055621Y0042300D01*
X0055621Y0042310D02*
X0054529Y0042310D01*
X0054529Y0042320D02*
X0055621Y0042320D01*
X0055621Y0042330D02*
X0054529Y0042330D01*
X0054529Y0042340D02*
X0055621Y0042340D01*
X0055621Y0042350D02*
X0054529Y0042350D01*
X0054529Y0042360D02*
X0055621Y0042360D01*
X0055621Y0042370D02*
X0054529Y0042370D01*
X0054529Y0042380D02*
X0055621Y0042380D01*
X0055621Y0042390D02*
X0054529Y0042390D01*
X0054529Y0042400D02*
X0055621Y0042400D01*
X0055621Y0042410D02*
X0054529Y0042410D01*
X0054529Y0042420D02*
X0055621Y0042420D01*
X0055621Y0042430D02*
X0054529Y0042430D01*
X0054529Y0042440D02*
X0055621Y0042440D01*
X0055621Y0042450D02*
X0054529Y0042450D01*
X0054529Y0042460D02*
X0055621Y0042460D01*
X0055621Y0042470D02*
X0054529Y0042470D01*
X0054529Y0042480D02*
X0055621Y0042480D01*
X0055621Y0042490D02*
X0054529Y0042490D01*
X0054529Y0042500D02*
X0055621Y0042500D01*
X0055621Y0042510D02*
X0054529Y0042510D01*
X0054529Y0042520D02*
X0055621Y0042520D01*
X0055621Y0042530D02*
X0054529Y0042530D01*
X0054529Y0042540D02*
X0055621Y0042540D01*
X0055621Y0042550D02*
X0054529Y0042550D01*
X0054529Y0042560D02*
X0055621Y0042560D01*
X0055621Y0042570D02*
X0054529Y0042570D01*
X0054529Y0042580D02*
X0055621Y0042580D01*
X0055621Y0042590D02*
X0054529Y0042590D01*
X0054529Y0042600D02*
X0055621Y0042600D01*
X0055621Y0042610D02*
X0054529Y0042610D01*
X0054529Y0042620D02*
X0055621Y0042620D01*
X0055621Y0042630D02*
X0054529Y0042630D01*
X0054529Y0042640D02*
X0055621Y0042640D01*
X0055621Y0042650D02*
X0054529Y0042650D01*
X0054529Y0042660D02*
X0055621Y0042660D01*
X0055621Y0042670D02*
X0054529Y0042670D01*
X0054529Y0042680D02*
X0055621Y0042680D01*
X0055621Y0042690D02*
X0054529Y0042690D01*
X0054529Y0042700D02*
X0055621Y0042700D01*
X0055621Y0042710D02*
X0054529Y0042710D01*
X0054529Y0042720D02*
X0055621Y0042720D01*
X0055621Y0042730D02*
X0054529Y0042730D01*
X0054529Y0042740D02*
X0055621Y0042740D01*
X0055621Y0042750D02*
X0054529Y0042750D01*
X0054529Y0042760D02*
X0055621Y0042760D01*
X0055621Y0042770D02*
X0054529Y0042770D01*
X0054529Y0042780D02*
X0055621Y0042780D01*
X0055621Y0042790D02*
X0054529Y0042790D01*
X0054529Y0042800D02*
X0055621Y0042800D01*
X0055621Y0042810D02*
X0054529Y0042810D01*
X0054529Y0042820D02*
X0055621Y0042820D01*
X0055621Y0042830D02*
X0054529Y0042830D01*
X0054529Y0042840D02*
X0055621Y0042840D01*
X0055621Y0042850D02*
X0054529Y0042850D01*
X0054529Y0042860D02*
X0055621Y0042860D01*
X0055621Y0042870D02*
X0054529Y0042870D01*
X0054529Y0042880D02*
X0055621Y0042880D01*
X0055621Y0042890D02*
X0054529Y0042890D01*
X0054529Y0042900D02*
X0055621Y0042900D01*
X0055621Y0042910D02*
X0054529Y0042910D01*
X0054529Y0042920D02*
X0055621Y0042920D01*
X0055621Y0042930D02*
X0054529Y0042930D01*
X0054529Y0042940D02*
X0055621Y0042940D01*
X0055621Y0042950D02*
X0054529Y0042950D01*
X0054529Y0042960D02*
X0055621Y0042960D01*
X0055621Y0042970D02*
X0054529Y0042970D01*
X0054529Y0042980D02*
X0055621Y0042980D01*
X0055621Y0042990D02*
X0054529Y0042990D01*
X0054529Y0043000D02*
X0055621Y0043000D01*
X0055621Y0043010D02*
X0054529Y0043010D01*
X0054529Y0043020D02*
X0055621Y0043020D01*
X0055621Y0043030D02*
X0054529Y0043030D01*
X0054529Y0043040D02*
X0055621Y0043040D01*
X0055621Y0043050D02*
X0054529Y0043050D01*
X0054529Y0043060D02*
X0055621Y0043060D01*
X0055621Y0043070D02*
X0054529Y0043070D01*
X0054529Y0043080D02*
X0055621Y0043080D01*
X0055621Y0043090D02*
X0054529Y0043090D01*
X0054529Y0043100D02*
X0055621Y0043100D01*
X0055621Y0043110D02*
X0054529Y0043110D01*
X0054529Y0043120D02*
X0055621Y0043120D01*
X0055621Y0043130D02*
X0054529Y0043130D01*
X0054529Y0043140D02*
X0055621Y0043140D01*
X0055621Y0043150D02*
X0054529Y0043150D01*
X0054529Y0043160D02*
X0055621Y0043160D01*
X0055621Y0043170D02*
X0054529Y0043170D01*
X0054529Y0043180D02*
X0055621Y0043180D01*
X0055621Y0043190D02*
X0054529Y0043190D01*
X0054529Y0043200D02*
X0055621Y0043200D01*
X0055621Y0043210D02*
X0054529Y0043210D01*
X0054529Y0043220D02*
X0055621Y0043220D01*
X0055621Y0043230D02*
X0054529Y0043230D01*
X0054529Y0043240D02*
X0055621Y0043240D01*
X0055621Y0043250D02*
X0054529Y0043250D01*
X0054529Y0043260D02*
X0055621Y0043260D01*
X0055621Y0043270D02*
X0054529Y0043270D01*
X0054529Y0043280D02*
X0055621Y0043280D01*
X0055621Y0043290D02*
X0054529Y0043290D01*
X0054529Y0043300D02*
X0055621Y0043300D01*
X0055621Y0043310D02*
X0054529Y0043310D01*
X0054529Y0043320D02*
X0055621Y0043320D01*
X0055621Y0043330D02*
X0054529Y0043330D01*
X0054529Y0043340D02*
X0055621Y0043340D01*
X0055621Y0043350D02*
X0054529Y0043350D01*
X0054529Y0043360D02*
X0055621Y0043360D01*
X0055621Y0043370D02*
X0054529Y0043370D01*
X0054529Y0043380D02*
X0055621Y0043380D01*
X0055621Y0043390D02*
X0054529Y0043390D01*
X0054529Y0043400D02*
X0055621Y0043400D01*
X0055621Y0043410D02*
X0054529Y0043410D01*
X0054529Y0043420D02*
X0055621Y0043420D01*
X0055621Y0043430D02*
X0054529Y0043430D01*
X0054529Y0043440D02*
X0055621Y0043440D01*
X0055621Y0043450D02*
X0054529Y0043450D01*
X0054529Y0043460D02*
X0055621Y0043460D01*
X0055621Y0043470D02*
X0054529Y0043470D01*
X0054529Y0043480D02*
X0055621Y0043480D01*
X0055621Y0043490D02*
X0054529Y0043490D01*
X0054529Y0043500D02*
X0055621Y0043500D01*
X0055621Y0043510D02*
X0054529Y0043510D01*
X0054529Y0043520D02*
X0055621Y0043520D01*
X0055621Y0043530D02*
X0054529Y0043530D01*
X0054529Y0043540D02*
X0055621Y0043540D01*
X0055621Y0043550D02*
X0054529Y0043550D01*
X0054529Y0043560D02*
X0055621Y0043560D01*
X0055621Y0043570D02*
X0054529Y0043570D01*
X0054529Y0043580D02*
X0055621Y0043580D01*
X0055621Y0043590D02*
X0054529Y0043590D01*
X0054529Y0043600D02*
X0055621Y0043600D01*
X0055621Y0043610D02*
X0054529Y0043610D01*
X0054529Y0043620D02*
X0055621Y0043620D01*
X0055621Y0043630D02*
X0054529Y0043630D01*
X0054529Y0043640D02*
X0055621Y0043640D01*
X0055621Y0043650D02*
X0054529Y0043650D01*
X0054529Y0043660D02*
X0055621Y0043660D01*
X0055621Y0043670D02*
X0054529Y0043670D01*
X0054529Y0043680D02*
X0055621Y0043680D01*
X0055621Y0043690D02*
X0054529Y0043690D01*
X0054529Y0043700D02*
X0055621Y0043700D01*
X0055621Y0043710D02*
X0054529Y0043710D01*
X0054529Y0043720D02*
X0055621Y0043720D01*
X0055621Y0043730D02*
X0054529Y0043730D01*
X0054529Y0043740D02*
X0055621Y0043740D01*
X0055621Y0043750D02*
X0054529Y0043750D01*
X0054529Y0043760D02*
X0055621Y0043760D01*
X0055621Y0043770D02*
X0054529Y0043770D01*
X0054529Y0043780D02*
X0055621Y0043780D01*
X0055621Y0043790D02*
X0054529Y0043790D01*
X0054529Y0043800D02*
X0055621Y0043800D01*
X0055621Y0043810D02*
X0054529Y0043810D01*
X0054529Y0043820D02*
X0055621Y0043820D01*
X0055621Y0043830D02*
X0054529Y0043830D01*
X0054529Y0043840D02*
X0055621Y0043840D01*
X0055621Y0043850D02*
X0054529Y0043850D01*
X0054529Y0043860D02*
X0055621Y0043860D01*
X0055621Y0043870D02*
X0054529Y0043870D01*
X0054529Y0043880D02*
X0055621Y0043880D01*
X0055621Y0043890D02*
X0054529Y0043890D01*
X0054529Y0043900D02*
X0055621Y0043900D01*
X0055621Y0043910D02*
X0054529Y0043910D01*
X0054529Y0043920D02*
X0055621Y0043920D01*
X0055621Y0043930D02*
X0054529Y0043930D01*
X0054529Y0043940D02*
X0055621Y0043940D01*
X0055621Y0043950D02*
X0054529Y0043950D01*
X0054529Y0043960D02*
X0055621Y0043960D01*
X0055621Y0043970D02*
X0054529Y0043970D01*
X0054529Y0043980D02*
X0055621Y0043980D01*
X0055621Y0043990D02*
X0054529Y0043990D01*
X0054529Y0044000D02*
X0055621Y0044000D01*
X0055621Y0044010D02*
X0054529Y0044010D01*
X0054529Y0044020D02*
X0055621Y0044020D01*
X0055621Y0044030D02*
X0054529Y0044030D01*
X0054529Y0044040D02*
X0055621Y0044040D01*
X0055621Y0044050D02*
X0054529Y0044050D01*
X0054529Y0044060D02*
X0055621Y0044060D01*
X0055621Y0044070D02*
X0054529Y0044070D01*
X0054529Y0044080D02*
X0055621Y0044080D01*
X0055621Y0044090D02*
X0054529Y0044090D01*
X0054529Y0044100D02*
X0055621Y0044100D01*
X0055621Y0044110D02*
X0054529Y0044110D01*
X0054529Y0044120D02*
X0055621Y0044120D01*
X0055621Y0044130D02*
X0054529Y0044130D01*
X0054529Y0044140D02*
X0055621Y0044140D01*
X0055621Y0044150D02*
X0054529Y0044150D01*
X0054529Y0044160D02*
X0055621Y0044160D01*
X0055621Y0044170D02*
X0054529Y0044170D01*
X0054529Y0044180D02*
X0055621Y0044180D01*
X0055621Y0044190D02*
X0054529Y0044190D01*
X0054529Y0044200D02*
X0055621Y0044200D01*
X0055621Y0044210D02*
X0054529Y0044210D01*
X0054529Y0044220D02*
X0055621Y0044220D01*
X0055621Y0044230D02*
X0054529Y0044230D01*
X0054529Y0044240D02*
X0055621Y0044240D01*
X0055621Y0044250D02*
X0054529Y0044250D01*
X0054529Y0044260D02*
X0055621Y0044260D01*
X0055621Y0044270D02*
X0054529Y0044270D01*
X0054529Y0044280D02*
X0055621Y0044280D01*
X0055621Y0044290D02*
X0054529Y0044290D01*
X0054529Y0044300D02*
X0055621Y0044300D01*
X0055621Y0044310D02*
X0054529Y0044310D01*
X0054529Y0044320D02*
X0055621Y0044320D01*
X0055621Y0044330D02*
X0054529Y0044330D01*
X0054529Y0044340D02*
X0055621Y0044340D01*
X0055621Y0044350D02*
X0054529Y0044350D01*
X0054529Y0044360D02*
X0055621Y0044360D01*
X0055621Y0044370D02*
X0054529Y0044370D01*
X0054529Y0044380D02*
X0055621Y0044380D01*
X0055621Y0044390D02*
X0054529Y0044390D01*
X0054529Y0044400D02*
X0055621Y0044400D01*
X0055621Y0044410D02*
X0054529Y0044410D01*
X0061527Y0044418D02*
X0061527Y0041180D01*
X0060435Y0041180D01*
X0060435Y0044418D01*
X0061527Y0044418D01*
X0061527Y0041190D02*
X0060435Y0041190D01*
X0060435Y0041200D02*
X0061527Y0041200D01*
X0061527Y0041210D02*
X0060435Y0041210D01*
X0060435Y0041220D02*
X0061527Y0041220D01*
X0061527Y0041230D02*
X0060435Y0041230D01*
X0060435Y0041240D02*
X0061527Y0041240D01*
X0061527Y0041250D02*
X0060435Y0041250D01*
X0060435Y0041260D02*
X0061527Y0041260D01*
X0061527Y0041270D02*
X0060435Y0041270D01*
X0060435Y0041280D02*
X0061527Y0041280D01*
X0061527Y0041290D02*
X0060435Y0041290D01*
X0060435Y0041300D02*
X0061527Y0041300D01*
X0061527Y0041310D02*
X0060435Y0041310D01*
X0060435Y0041320D02*
X0061527Y0041320D01*
X0061527Y0041330D02*
X0060435Y0041330D01*
X0060435Y0041340D02*
X0061527Y0041340D01*
X0061527Y0041350D02*
X0060435Y0041350D01*
X0060435Y0041360D02*
X0061527Y0041360D01*
X0061527Y0041370D02*
X0060435Y0041370D01*
X0060435Y0041380D02*
X0061527Y0041380D01*
X0061527Y0041390D02*
X0060435Y0041390D01*
X0060435Y0041400D02*
X0061527Y0041400D01*
X0061527Y0041410D02*
X0060435Y0041410D01*
X0060435Y0041420D02*
X0061527Y0041420D01*
X0061527Y0041430D02*
X0060435Y0041430D01*
X0060435Y0041440D02*
X0061527Y0041440D01*
X0061527Y0041450D02*
X0060435Y0041450D01*
X0060435Y0041460D02*
X0061527Y0041460D01*
X0061527Y0041470D02*
X0060435Y0041470D01*
X0060435Y0041480D02*
X0061527Y0041480D01*
X0061527Y0041490D02*
X0060435Y0041490D01*
X0060435Y0041500D02*
X0061527Y0041500D01*
X0061527Y0041510D02*
X0060435Y0041510D01*
X0060435Y0041520D02*
X0061527Y0041520D01*
X0061527Y0041530D02*
X0060435Y0041530D01*
X0060435Y0041540D02*
X0061527Y0041540D01*
X0061527Y0041550D02*
X0060435Y0041550D01*
X0060435Y0041560D02*
X0061527Y0041560D01*
X0061527Y0041570D02*
X0060435Y0041570D01*
X0060435Y0041580D02*
X0061527Y0041580D01*
X0061527Y0041590D02*
X0060435Y0041590D01*
X0060435Y0041600D02*
X0061527Y0041600D01*
X0061527Y0041610D02*
X0060435Y0041610D01*
X0060435Y0041620D02*
X0061527Y0041620D01*
X0061527Y0041630D02*
X0060435Y0041630D01*
X0060435Y0041640D02*
X0061527Y0041640D01*
X0061527Y0041650D02*
X0060435Y0041650D01*
X0060435Y0041660D02*
X0061527Y0041660D01*
X0061527Y0041670D02*
X0060435Y0041670D01*
X0060435Y0041680D02*
X0061527Y0041680D01*
X0061527Y0041690D02*
X0060435Y0041690D01*
X0060435Y0041700D02*
X0061527Y0041700D01*
X0061527Y0041710D02*
X0060435Y0041710D01*
X0060435Y0041720D02*
X0061527Y0041720D01*
X0061527Y0041730D02*
X0060435Y0041730D01*
X0060435Y0041740D02*
X0061527Y0041740D01*
X0061527Y0041750D02*
X0060435Y0041750D01*
X0060435Y0041760D02*
X0061527Y0041760D01*
X0061527Y0041770D02*
X0060435Y0041770D01*
X0060435Y0041780D02*
X0061527Y0041780D01*
X0061527Y0041790D02*
X0060435Y0041790D01*
X0060435Y0041800D02*
X0061527Y0041800D01*
X0061527Y0041810D02*
X0060435Y0041810D01*
X0060435Y0041820D02*
X0061527Y0041820D01*
X0061527Y0041830D02*
X0060435Y0041830D01*
X0060435Y0041840D02*
X0061527Y0041840D01*
X0061527Y0041850D02*
X0060435Y0041850D01*
X0060435Y0041860D02*
X0061527Y0041860D01*
X0061527Y0041870D02*
X0060435Y0041870D01*
X0060435Y0041880D02*
X0061527Y0041880D01*
X0061527Y0041890D02*
X0060435Y0041890D01*
X0060435Y0041900D02*
X0061527Y0041900D01*
X0061527Y0041910D02*
X0060435Y0041910D01*
X0060435Y0041920D02*
X0061527Y0041920D01*
X0061527Y0041930D02*
X0060435Y0041930D01*
X0060435Y0041940D02*
X0061527Y0041940D01*
X0061527Y0041950D02*
X0060435Y0041950D01*
X0060435Y0041960D02*
X0061527Y0041960D01*
X0061527Y0041970D02*
X0060435Y0041970D01*
X0060435Y0041980D02*
X0061527Y0041980D01*
X0061527Y0041990D02*
X0060435Y0041990D01*
X0060435Y0042000D02*
X0061527Y0042000D01*
X0061527Y0042010D02*
X0060435Y0042010D01*
X0060435Y0042020D02*
X0061527Y0042020D01*
X0061527Y0042030D02*
X0060435Y0042030D01*
X0060435Y0042040D02*
X0061527Y0042040D01*
X0061527Y0042050D02*
X0060435Y0042050D01*
X0060435Y0042060D02*
X0061527Y0042060D01*
X0061527Y0042070D02*
X0060435Y0042070D01*
X0060435Y0042080D02*
X0061527Y0042080D01*
X0061527Y0042090D02*
X0060435Y0042090D01*
X0060435Y0042100D02*
X0061527Y0042100D01*
X0061527Y0042110D02*
X0060435Y0042110D01*
X0060435Y0042120D02*
X0061527Y0042120D01*
X0061527Y0042130D02*
X0060435Y0042130D01*
X0060435Y0042140D02*
X0061527Y0042140D01*
X0061527Y0042150D02*
X0060435Y0042150D01*
X0060435Y0042160D02*
X0061527Y0042160D01*
X0061527Y0042170D02*
X0060435Y0042170D01*
X0060435Y0042180D02*
X0061527Y0042180D01*
X0061527Y0042190D02*
X0060435Y0042190D01*
X0060435Y0042200D02*
X0061527Y0042200D01*
X0061527Y0042210D02*
X0060435Y0042210D01*
X0060435Y0042220D02*
X0061527Y0042220D01*
X0061527Y0042230D02*
X0060435Y0042230D01*
X0060435Y0042240D02*
X0061527Y0042240D01*
X0061527Y0042250D02*
X0060435Y0042250D01*
X0060435Y0042260D02*
X0061527Y0042260D01*
X0061527Y0042270D02*
X0060435Y0042270D01*
X0060435Y0042280D02*
X0061527Y0042280D01*
X0061527Y0042290D02*
X0060435Y0042290D01*
X0060435Y0042300D02*
X0061527Y0042300D01*
X0061527Y0042310D02*
X0060435Y0042310D01*
X0060435Y0042320D02*
X0061527Y0042320D01*
X0061527Y0042330D02*
X0060435Y0042330D01*
X0060435Y0042340D02*
X0061527Y0042340D01*
X0061527Y0042350D02*
X0060435Y0042350D01*
X0060435Y0042360D02*
X0061527Y0042360D01*
X0061527Y0042370D02*
X0060435Y0042370D01*
X0060435Y0042380D02*
X0061527Y0042380D01*
X0061527Y0042390D02*
X0060435Y0042390D01*
X0060435Y0042400D02*
X0061527Y0042400D01*
X0061527Y0042410D02*
X0060435Y0042410D01*
X0060435Y0042420D02*
X0061527Y0042420D01*
X0061527Y0042430D02*
X0060435Y0042430D01*
X0060435Y0042440D02*
X0061527Y0042440D01*
X0061527Y0042450D02*
X0060435Y0042450D01*
X0060435Y0042460D02*
X0061527Y0042460D01*
X0061527Y0042470D02*
X0060435Y0042470D01*
X0060435Y0042480D02*
X0061527Y0042480D01*
X0061527Y0042490D02*
X0060435Y0042490D01*
X0060435Y0042500D02*
X0061527Y0042500D01*
X0061527Y0042510D02*
X0060435Y0042510D01*
X0060435Y0042520D02*
X0061527Y0042520D01*
X0061527Y0042530D02*
X0060435Y0042530D01*
X0060435Y0042540D02*
X0061527Y0042540D01*
X0061527Y0042550D02*
X0060435Y0042550D01*
X0060435Y0042560D02*
X0061527Y0042560D01*
X0061527Y0042570D02*
X0060435Y0042570D01*
X0060435Y0042580D02*
X0061527Y0042580D01*
X0061527Y0042590D02*
X0060435Y0042590D01*
X0060435Y0042600D02*
X0061527Y0042600D01*
X0061527Y0042610D02*
X0060435Y0042610D01*
X0060435Y0042620D02*
X0061527Y0042620D01*
X0061527Y0042630D02*
X0060435Y0042630D01*
X0060435Y0042640D02*
X0061527Y0042640D01*
X0061527Y0042650D02*
X0060435Y0042650D01*
X0060435Y0042660D02*
X0061527Y0042660D01*
X0061527Y0042670D02*
X0060435Y0042670D01*
X0060435Y0042680D02*
X0061527Y0042680D01*
X0061527Y0042690D02*
X0060435Y0042690D01*
X0060435Y0042700D02*
X0061527Y0042700D01*
X0061527Y0042710D02*
X0060435Y0042710D01*
X0060435Y0042720D02*
X0061527Y0042720D01*
X0061527Y0042730D02*
X0060435Y0042730D01*
X0060435Y0042740D02*
X0061527Y0042740D01*
X0061527Y0042750D02*
X0060435Y0042750D01*
X0060435Y0042760D02*
X0061527Y0042760D01*
X0061527Y0042770D02*
X0060435Y0042770D01*
X0060435Y0042780D02*
X0061527Y0042780D01*
X0061527Y0042790D02*
X0060435Y0042790D01*
X0060435Y0042800D02*
X0061527Y0042800D01*
X0061527Y0042810D02*
X0060435Y0042810D01*
X0060435Y0042820D02*
X0061527Y0042820D01*
X0061527Y0042830D02*
X0060435Y0042830D01*
X0060435Y0042840D02*
X0061527Y0042840D01*
X0061527Y0042850D02*
X0060435Y0042850D01*
X0060435Y0042860D02*
X0061527Y0042860D01*
X0061527Y0042870D02*
X0060435Y0042870D01*
X0060435Y0042880D02*
X0061527Y0042880D01*
X0061527Y0042890D02*
X0060435Y0042890D01*
X0060435Y0042900D02*
X0061527Y0042900D01*
X0061527Y0042910D02*
X0060435Y0042910D01*
X0060435Y0042920D02*
X0061527Y0042920D01*
X0061527Y0042930D02*
X0060435Y0042930D01*
X0060435Y0042940D02*
X0061527Y0042940D01*
X0061527Y0042950D02*
X0060435Y0042950D01*
X0060435Y0042960D02*
X0061527Y0042960D01*
X0061527Y0042970D02*
X0060435Y0042970D01*
X0060435Y0042980D02*
X0061527Y0042980D01*
X0061527Y0042990D02*
X0060435Y0042990D01*
X0060435Y0043000D02*
X0061527Y0043000D01*
X0061527Y0043010D02*
X0060435Y0043010D01*
X0060435Y0043020D02*
X0061527Y0043020D01*
X0061527Y0043030D02*
X0060435Y0043030D01*
X0060435Y0043040D02*
X0061527Y0043040D01*
X0061527Y0043050D02*
X0060435Y0043050D01*
X0060435Y0043060D02*
X0061527Y0043060D01*
X0061527Y0043070D02*
X0060435Y0043070D01*
X0060435Y0043080D02*
X0061527Y0043080D01*
X0061527Y0043090D02*
X0060435Y0043090D01*
X0060435Y0043100D02*
X0061527Y0043100D01*
X0061527Y0043110D02*
X0060435Y0043110D01*
X0060435Y0043120D02*
X0061527Y0043120D01*
X0061527Y0043130D02*
X0060435Y0043130D01*
X0060435Y0043140D02*
X0061527Y0043140D01*
X0061527Y0043150D02*
X0060435Y0043150D01*
X0060435Y0043160D02*
X0061527Y0043160D01*
X0061527Y0043170D02*
X0060435Y0043170D01*
X0060435Y0043180D02*
X0061527Y0043180D01*
X0061527Y0043190D02*
X0060435Y0043190D01*
X0060435Y0043200D02*
X0061527Y0043200D01*
X0061527Y0043210D02*
X0060435Y0043210D01*
X0060435Y0043220D02*
X0061527Y0043220D01*
X0061527Y0043230D02*
X0060435Y0043230D01*
X0060435Y0043240D02*
X0061527Y0043240D01*
X0061527Y0043250D02*
X0060435Y0043250D01*
X0060435Y0043260D02*
X0061527Y0043260D01*
X0061527Y0043270D02*
X0060435Y0043270D01*
X0060435Y0043280D02*
X0061527Y0043280D01*
X0061527Y0043290D02*
X0060435Y0043290D01*
X0060435Y0043300D02*
X0061527Y0043300D01*
X0061527Y0043310D02*
X0060435Y0043310D01*
X0060435Y0043320D02*
X0061527Y0043320D01*
X0061527Y0043330D02*
X0060435Y0043330D01*
X0060435Y0043340D02*
X0061527Y0043340D01*
X0061527Y0043350D02*
X0060435Y0043350D01*
X0060435Y0043360D02*
X0061527Y0043360D01*
X0061527Y0043370D02*
X0060435Y0043370D01*
X0060435Y0043380D02*
X0061527Y0043380D01*
X0061527Y0043390D02*
X0060435Y0043390D01*
X0060435Y0043400D02*
X0061527Y0043400D01*
X0061527Y0043410D02*
X0060435Y0043410D01*
X0060435Y0043420D02*
X0061527Y0043420D01*
X0061527Y0043430D02*
X0060435Y0043430D01*
X0060435Y0043440D02*
X0061527Y0043440D01*
X0061527Y0043450D02*
X0060435Y0043450D01*
X0060435Y0043460D02*
X0061527Y0043460D01*
X0061527Y0043470D02*
X0060435Y0043470D01*
X0060435Y0043480D02*
X0061527Y0043480D01*
X0061527Y0043490D02*
X0060435Y0043490D01*
X0060435Y0043500D02*
X0061527Y0043500D01*
X0061527Y0043510D02*
X0060435Y0043510D01*
X0060435Y0043520D02*
X0061527Y0043520D01*
X0061527Y0043530D02*
X0060435Y0043530D01*
X0060435Y0043540D02*
X0061527Y0043540D01*
X0061527Y0043550D02*
X0060435Y0043550D01*
X0060435Y0043560D02*
X0061527Y0043560D01*
X0061527Y0043570D02*
X0060435Y0043570D01*
X0060435Y0043580D02*
X0061527Y0043580D01*
X0061527Y0043590D02*
X0060435Y0043590D01*
X0060435Y0043600D02*
X0061527Y0043600D01*
X0061527Y0043610D02*
X0060435Y0043610D01*
X0060435Y0043620D02*
X0061527Y0043620D01*
X0061527Y0043630D02*
X0060435Y0043630D01*
X0060435Y0043640D02*
X0061527Y0043640D01*
X0061527Y0043650D02*
X0060435Y0043650D01*
X0060435Y0043660D02*
X0061527Y0043660D01*
X0061527Y0043670D02*
X0060435Y0043670D01*
X0060435Y0043680D02*
X0061527Y0043680D01*
X0061527Y0043690D02*
X0060435Y0043690D01*
X0060435Y0043700D02*
X0061527Y0043700D01*
X0061527Y0043710D02*
X0060435Y0043710D01*
X0060435Y0043720D02*
X0061527Y0043720D01*
X0061527Y0043730D02*
X0060435Y0043730D01*
X0060435Y0043740D02*
X0061527Y0043740D01*
X0061527Y0043750D02*
X0060435Y0043750D01*
X0060435Y0043760D02*
X0061527Y0043760D01*
X0061527Y0043770D02*
X0060435Y0043770D01*
X0060435Y0043780D02*
X0061527Y0043780D01*
X0061527Y0043790D02*
X0060435Y0043790D01*
X0060435Y0043800D02*
X0061527Y0043800D01*
X0061527Y0043810D02*
X0060435Y0043810D01*
X0060435Y0043820D02*
X0061527Y0043820D01*
X0061527Y0043830D02*
X0060435Y0043830D01*
X0060435Y0043840D02*
X0061527Y0043840D01*
X0061527Y0043850D02*
X0060435Y0043850D01*
X0060435Y0043860D02*
X0061527Y0043860D01*
X0061527Y0043870D02*
X0060435Y0043870D01*
X0060435Y0043880D02*
X0061527Y0043880D01*
X0061527Y0043890D02*
X0060435Y0043890D01*
X0060435Y0043900D02*
X0061527Y0043900D01*
X0061527Y0043910D02*
X0060435Y0043910D01*
X0060435Y0043920D02*
X0061527Y0043920D01*
X0061527Y0043930D02*
X0060435Y0043930D01*
X0060435Y0043940D02*
X0061527Y0043940D01*
X0061527Y0043950D02*
X0060435Y0043950D01*
X0060435Y0043960D02*
X0061527Y0043960D01*
X0061527Y0043970D02*
X0060435Y0043970D01*
X0060435Y0043980D02*
X0061527Y0043980D01*
X0061527Y0043990D02*
X0060435Y0043990D01*
X0060435Y0044000D02*
X0061527Y0044000D01*
X0061527Y0044010D02*
X0060435Y0044010D01*
X0060435Y0044020D02*
X0061527Y0044020D01*
X0061527Y0044030D02*
X0060435Y0044030D01*
X0060435Y0044040D02*
X0061527Y0044040D01*
X0061527Y0044050D02*
X0060435Y0044050D01*
X0060435Y0044060D02*
X0061527Y0044060D01*
X0061527Y0044070D02*
X0060435Y0044070D01*
X0060435Y0044080D02*
X0061527Y0044080D01*
X0061527Y0044090D02*
X0060435Y0044090D01*
X0060435Y0044100D02*
X0061527Y0044100D01*
X0061527Y0044110D02*
X0060435Y0044110D01*
X0060435Y0044120D02*
X0061527Y0044120D01*
X0061527Y0044130D02*
X0060435Y0044130D01*
X0060435Y0044140D02*
X0061527Y0044140D01*
X0061527Y0044150D02*
X0060435Y0044150D01*
X0060435Y0044160D02*
X0061527Y0044160D01*
X0061527Y0044170D02*
X0060435Y0044170D01*
X0060435Y0044180D02*
X0061527Y0044180D01*
X0061527Y0044190D02*
X0060435Y0044190D01*
X0060435Y0044200D02*
X0061527Y0044200D01*
X0061527Y0044210D02*
X0060435Y0044210D01*
X0060435Y0044220D02*
X0061527Y0044220D01*
X0061527Y0044230D02*
X0060435Y0044230D01*
X0060435Y0044240D02*
X0061527Y0044240D01*
X0061527Y0044250D02*
X0060435Y0044250D01*
X0060435Y0044260D02*
X0061527Y0044260D01*
X0061527Y0044270D02*
X0060435Y0044270D01*
X0060435Y0044280D02*
X0061527Y0044280D01*
X0061527Y0044290D02*
X0060435Y0044290D01*
X0060435Y0044300D02*
X0061527Y0044300D01*
X0061527Y0044310D02*
X0060435Y0044310D01*
X0060435Y0044320D02*
X0061527Y0044320D01*
X0061527Y0044330D02*
X0060435Y0044330D01*
X0060435Y0044340D02*
X0061527Y0044340D01*
X0061527Y0044350D02*
X0060435Y0044350D01*
X0060435Y0044360D02*
X0061527Y0044360D01*
X0061527Y0044370D02*
X0060435Y0044370D01*
X0060435Y0044380D02*
X0061527Y0044380D01*
X0061527Y0044390D02*
X0060435Y0044390D01*
X0060435Y0044400D02*
X0061527Y0044400D01*
X0061527Y0044410D02*
X0060435Y0044410D01*
X0063495Y0044418D02*
X0063495Y0041180D01*
X0062403Y0041180D01*
X0062403Y0044418D01*
X0063495Y0044418D01*
X0063495Y0041190D02*
X0062403Y0041190D01*
X0062403Y0041200D02*
X0063495Y0041200D01*
X0063495Y0041210D02*
X0062403Y0041210D01*
X0062403Y0041220D02*
X0063495Y0041220D01*
X0063495Y0041230D02*
X0062403Y0041230D01*
X0062403Y0041240D02*
X0063495Y0041240D01*
X0063495Y0041250D02*
X0062403Y0041250D01*
X0062403Y0041260D02*
X0063495Y0041260D01*
X0063495Y0041270D02*
X0062403Y0041270D01*
X0062403Y0041280D02*
X0063495Y0041280D01*
X0063495Y0041290D02*
X0062403Y0041290D01*
X0062403Y0041300D02*
X0063495Y0041300D01*
X0063495Y0041310D02*
X0062403Y0041310D01*
X0062403Y0041320D02*
X0063495Y0041320D01*
X0063495Y0041330D02*
X0062403Y0041330D01*
X0062403Y0041340D02*
X0063495Y0041340D01*
X0063495Y0041350D02*
X0062403Y0041350D01*
X0062403Y0041360D02*
X0063495Y0041360D01*
X0063495Y0041370D02*
X0062403Y0041370D01*
X0062403Y0041380D02*
X0063495Y0041380D01*
X0063495Y0041390D02*
X0062403Y0041390D01*
X0062403Y0041400D02*
X0063495Y0041400D01*
X0063495Y0041410D02*
X0062403Y0041410D01*
X0062403Y0041420D02*
X0063495Y0041420D01*
X0063495Y0041430D02*
X0062403Y0041430D01*
X0062403Y0041440D02*
X0063495Y0041440D01*
X0063495Y0041450D02*
X0062403Y0041450D01*
X0062403Y0041460D02*
X0063495Y0041460D01*
X0063495Y0041470D02*
X0062403Y0041470D01*
X0062403Y0041480D02*
X0063495Y0041480D01*
X0063495Y0041490D02*
X0062403Y0041490D01*
X0062403Y0041500D02*
X0063495Y0041500D01*
X0063495Y0041510D02*
X0062403Y0041510D01*
X0062403Y0041520D02*
X0063495Y0041520D01*
X0063495Y0041530D02*
X0062403Y0041530D01*
X0062403Y0041540D02*
X0063495Y0041540D01*
X0063495Y0041550D02*
X0062403Y0041550D01*
X0062403Y0041560D02*
X0063495Y0041560D01*
X0063495Y0041570D02*
X0062403Y0041570D01*
X0062403Y0041580D02*
X0063495Y0041580D01*
X0063495Y0041590D02*
X0062403Y0041590D01*
X0062403Y0041600D02*
X0063495Y0041600D01*
X0063495Y0041610D02*
X0062403Y0041610D01*
X0062403Y0041620D02*
X0063495Y0041620D01*
X0063495Y0041630D02*
X0062403Y0041630D01*
X0062403Y0041640D02*
X0063495Y0041640D01*
X0063495Y0041650D02*
X0062403Y0041650D01*
X0062403Y0041660D02*
X0063495Y0041660D01*
X0063495Y0041670D02*
X0062403Y0041670D01*
X0062403Y0041680D02*
X0063495Y0041680D01*
X0063495Y0041690D02*
X0062403Y0041690D01*
X0062403Y0041700D02*
X0063495Y0041700D01*
X0063495Y0041710D02*
X0062403Y0041710D01*
X0062403Y0041720D02*
X0063495Y0041720D01*
X0063495Y0041730D02*
X0062403Y0041730D01*
X0062403Y0041740D02*
X0063495Y0041740D01*
X0063495Y0041750D02*
X0062403Y0041750D01*
X0062403Y0041760D02*
X0063495Y0041760D01*
X0063495Y0041770D02*
X0062403Y0041770D01*
X0062403Y0041780D02*
X0063495Y0041780D01*
X0063495Y0041790D02*
X0062403Y0041790D01*
X0062403Y0041800D02*
X0063495Y0041800D01*
X0063495Y0041810D02*
X0062403Y0041810D01*
X0062403Y0041820D02*
X0063495Y0041820D01*
X0063495Y0041830D02*
X0062403Y0041830D01*
X0062403Y0041840D02*
X0063495Y0041840D01*
X0063495Y0041850D02*
X0062403Y0041850D01*
X0062403Y0041860D02*
X0063495Y0041860D01*
X0063495Y0041870D02*
X0062403Y0041870D01*
X0062403Y0041880D02*
X0063495Y0041880D01*
X0063495Y0041890D02*
X0062403Y0041890D01*
X0062403Y0041900D02*
X0063495Y0041900D01*
X0063495Y0041910D02*
X0062403Y0041910D01*
X0062403Y0041920D02*
X0063495Y0041920D01*
X0063495Y0041930D02*
X0062403Y0041930D01*
X0062403Y0041940D02*
X0063495Y0041940D01*
X0063495Y0041950D02*
X0062403Y0041950D01*
X0062403Y0041960D02*
X0063495Y0041960D01*
X0063495Y0041970D02*
X0062403Y0041970D01*
X0062403Y0041980D02*
X0063495Y0041980D01*
X0063495Y0041990D02*
X0062403Y0041990D01*
X0062403Y0042000D02*
X0063495Y0042000D01*
X0063495Y0042010D02*
X0062403Y0042010D01*
X0062403Y0042020D02*
X0063495Y0042020D01*
X0063495Y0042030D02*
X0062403Y0042030D01*
X0062403Y0042040D02*
X0063495Y0042040D01*
X0063495Y0042050D02*
X0062403Y0042050D01*
X0062403Y0042060D02*
X0063495Y0042060D01*
X0063495Y0042070D02*
X0062403Y0042070D01*
X0062403Y0042080D02*
X0063495Y0042080D01*
X0063495Y0042090D02*
X0062403Y0042090D01*
X0062403Y0042100D02*
X0063495Y0042100D01*
X0063495Y0042110D02*
X0062403Y0042110D01*
X0062403Y0042120D02*
X0063495Y0042120D01*
X0063495Y0042130D02*
X0062403Y0042130D01*
X0062403Y0042140D02*
X0063495Y0042140D01*
X0063495Y0042150D02*
X0062403Y0042150D01*
X0062403Y0042160D02*
X0063495Y0042160D01*
X0063495Y0042170D02*
X0062403Y0042170D01*
X0062403Y0042180D02*
X0063495Y0042180D01*
X0063495Y0042190D02*
X0062403Y0042190D01*
X0062403Y0042200D02*
X0063495Y0042200D01*
X0063495Y0042210D02*
X0062403Y0042210D01*
X0062403Y0042220D02*
X0063495Y0042220D01*
X0063495Y0042230D02*
X0062403Y0042230D01*
X0062403Y0042240D02*
X0063495Y0042240D01*
X0063495Y0042250D02*
X0062403Y0042250D01*
X0062403Y0042260D02*
X0063495Y0042260D01*
X0063495Y0042270D02*
X0062403Y0042270D01*
X0062403Y0042280D02*
X0063495Y0042280D01*
X0063495Y0042290D02*
X0062403Y0042290D01*
X0062403Y0042300D02*
X0063495Y0042300D01*
X0063495Y0042310D02*
X0062403Y0042310D01*
X0062403Y0042320D02*
X0063495Y0042320D01*
X0063495Y0042330D02*
X0062403Y0042330D01*
X0062403Y0042340D02*
X0063495Y0042340D01*
X0063495Y0042350D02*
X0062403Y0042350D01*
X0062403Y0042360D02*
X0063495Y0042360D01*
X0063495Y0042370D02*
X0062403Y0042370D01*
X0062403Y0042380D02*
X0063495Y0042380D01*
X0063495Y0042390D02*
X0062403Y0042390D01*
X0062403Y0042400D02*
X0063495Y0042400D01*
X0063495Y0042410D02*
X0062403Y0042410D01*
X0062403Y0042420D02*
X0063495Y0042420D01*
X0063495Y0042430D02*
X0062403Y0042430D01*
X0062403Y0042440D02*
X0063495Y0042440D01*
X0063495Y0042450D02*
X0062403Y0042450D01*
X0062403Y0042460D02*
X0063495Y0042460D01*
X0063495Y0042470D02*
X0062403Y0042470D01*
X0062403Y0042480D02*
X0063495Y0042480D01*
X0063495Y0042490D02*
X0062403Y0042490D01*
X0062403Y0042500D02*
X0063495Y0042500D01*
X0063495Y0042510D02*
X0062403Y0042510D01*
X0062403Y0042520D02*
X0063495Y0042520D01*
X0063495Y0042530D02*
X0062403Y0042530D01*
X0062403Y0042540D02*
X0063495Y0042540D01*
X0063495Y0042550D02*
X0062403Y0042550D01*
X0062403Y0042560D02*
X0063495Y0042560D01*
X0063495Y0042570D02*
X0062403Y0042570D01*
X0062403Y0042580D02*
X0063495Y0042580D01*
X0063495Y0042590D02*
X0062403Y0042590D01*
X0062403Y0042600D02*
X0063495Y0042600D01*
X0063495Y0042610D02*
X0062403Y0042610D01*
X0062403Y0042620D02*
X0063495Y0042620D01*
X0063495Y0042630D02*
X0062403Y0042630D01*
X0062403Y0042640D02*
X0063495Y0042640D01*
X0063495Y0042650D02*
X0062403Y0042650D01*
X0062403Y0042660D02*
X0063495Y0042660D01*
X0063495Y0042670D02*
X0062403Y0042670D01*
X0062403Y0042680D02*
X0063495Y0042680D01*
X0063495Y0042690D02*
X0062403Y0042690D01*
X0062403Y0042700D02*
X0063495Y0042700D01*
X0063495Y0042710D02*
X0062403Y0042710D01*
X0062403Y0042720D02*
X0063495Y0042720D01*
X0063495Y0042730D02*
X0062403Y0042730D01*
X0062403Y0042740D02*
X0063495Y0042740D01*
X0063495Y0042750D02*
X0062403Y0042750D01*
X0062403Y0042760D02*
X0063495Y0042760D01*
X0063495Y0042770D02*
X0062403Y0042770D01*
X0062403Y0042780D02*
X0063495Y0042780D01*
X0063495Y0042790D02*
X0062403Y0042790D01*
X0062403Y0042800D02*
X0063495Y0042800D01*
X0063495Y0042810D02*
X0062403Y0042810D01*
X0062403Y0042820D02*
X0063495Y0042820D01*
X0063495Y0042830D02*
X0062403Y0042830D01*
X0062403Y0042840D02*
X0063495Y0042840D01*
X0063495Y0042850D02*
X0062403Y0042850D01*
X0062403Y0042860D02*
X0063495Y0042860D01*
X0063495Y0042870D02*
X0062403Y0042870D01*
X0062403Y0042880D02*
X0063495Y0042880D01*
X0063495Y0042890D02*
X0062403Y0042890D01*
X0062403Y0042900D02*
X0063495Y0042900D01*
X0063495Y0042910D02*
X0062403Y0042910D01*
X0062403Y0042920D02*
X0063495Y0042920D01*
X0063495Y0042930D02*
X0062403Y0042930D01*
X0062403Y0042940D02*
X0063495Y0042940D01*
X0063495Y0042950D02*
X0062403Y0042950D01*
X0062403Y0042960D02*
X0063495Y0042960D01*
X0063495Y0042970D02*
X0062403Y0042970D01*
X0062403Y0042980D02*
X0063495Y0042980D01*
X0063495Y0042990D02*
X0062403Y0042990D01*
X0062403Y0043000D02*
X0063495Y0043000D01*
X0063495Y0043010D02*
X0062403Y0043010D01*
X0062403Y0043020D02*
X0063495Y0043020D01*
X0063495Y0043030D02*
X0062403Y0043030D01*
X0062403Y0043040D02*
X0063495Y0043040D01*
X0063495Y0043050D02*
X0062403Y0043050D01*
X0062403Y0043060D02*
X0063495Y0043060D01*
X0063495Y0043070D02*
X0062403Y0043070D01*
X0062403Y0043080D02*
X0063495Y0043080D01*
X0063495Y0043090D02*
X0062403Y0043090D01*
X0062403Y0043100D02*
X0063495Y0043100D01*
X0063495Y0043110D02*
X0062403Y0043110D01*
X0062403Y0043120D02*
X0063495Y0043120D01*
X0063495Y0043130D02*
X0062403Y0043130D01*
X0062403Y0043140D02*
X0063495Y0043140D01*
X0063495Y0043150D02*
X0062403Y0043150D01*
X0062403Y0043160D02*
X0063495Y0043160D01*
X0063495Y0043170D02*
X0062403Y0043170D01*
X0062403Y0043180D02*
X0063495Y0043180D01*
X0063495Y0043190D02*
X0062403Y0043190D01*
X0062403Y0043200D02*
X0063495Y0043200D01*
X0063495Y0043210D02*
X0062403Y0043210D01*
X0062403Y0043220D02*
X0063495Y0043220D01*
X0063495Y0043230D02*
X0062403Y0043230D01*
X0062403Y0043240D02*
X0063495Y0043240D01*
X0063495Y0043250D02*
X0062403Y0043250D01*
X0062403Y0043260D02*
X0063495Y0043260D01*
X0063495Y0043270D02*
X0062403Y0043270D01*
X0062403Y0043280D02*
X0063495Y0043280D01*
X0063495Y0043290D02*
X0062403Y0043290D01*
X0062403Y0043300D02*
X0063495Y0043300D01*
X0063495Y0043310D02*
X0062403Y0043310D01*
X0062403Y0043320D02*
X0063495Y0043320D01*
X0063495Y0043330D02*
X0062403Y0043330D01*
X0062403Y0043340D02*
X0063495Y0043340D01*
X0063495Y0043350D02*
X0062403Y0043350D01*
X0062403Y0043360D02*
X0063495Y0043360D01*
X0063495Y0043370D02*
X0062403Y0043370D01*
X0062403Y0043380D02*
X0063495Y0043380D01*
X0063495Y0043390D02*
X0062403Y0043390D01*
X0062403Y0043400D02*
X0063495Y0043400D01*
X0063495Y0043410D02*
X0062403Y0043410D01*
X0062403Y0043420D02*
X0063495Y0043420D01*
X0063495Y0043430D02*
X0062403Y0043430D01*
X0062403Y0043440D02*
X0063495Y0043440D01*
X0063495Y0043450D02*
X0062403Y0043450D01*
X0062403Y0043460D02*
X0063495Y0043460D01*
X0063495Y0043470D02*
X0062403Y0043470D01*
X0062403Y0043480D02*
X0063495Y0043480D01*
X0063495Y0043490D02*
X0062403Y0043490D01*
X0062403Y0043500D02*
X0063495Y0043500D01*
X0063495Y0043510D02*
X0062403Y0043510D01*
X0062403Y0043520D02*
X0063495Y0043520D01*
X0063495Y0043530D02*
X0062403Y0043530D01*
X0062403Y0043540D02*
X0063495Y0043540D01*
X0063495Y0043550D02*
X0062403Y0043550D01*
X0062403Y0043560D02*
X0063495Y0043560D01*
X0063495Y0043570D02*
X0062403Y0043570D01*
X0062403Y0043580D02*
X0063495Y0043580D01*
X0063495Y0043590D02*
X0062403Y0043590D01*
X0062403Y0043600D02*
X0063495Y0043600D01*
X0063495Y0043610D02*
X0062403Y0043610D01*
X0062403Y0043620D02*
X0063495Y0043620D01*
X0063495Y0043630D02*
X0062403Y0043630D01*
X0062403Y0043640D02*
X0063495Y0043640D01*
X0063495Y0043650D02*
X0062403Y0043650D01*
X0062403Y0043660D02*
X0063495Y0043660D01*
X0063495Y0043670D02*
X0062403Y0043670D01*
X0062403Y0043680D02*
X0063495Y0043680D01*
X0063495Y0043690D02*
X0062403Y0043690D01*
X0062403Y0043700D02*
X0063495Y0043700D01*
X0063495Y0043710D02*
X0062403Y0043710D01*
X0062403Y0043720D02*
X0063495Y0043720D01*
X0063495Y0043730D02*
X0062403Y0043730D01*
X0062403Y0043740D02*
X0063495Y0043740D01*
X0063495Y0043750D02*
X0062403Y0043750D01*
X0062403Y0043760D02*
X0063495Y0043760D01*
X0063495Y0043770D02*
X0062403Y0043770D01*
X0062403Y0043780D02*
X0063495Y0043780D01*
X0063495Y0043790D02*
X0062403Y0043790D01*
X0062403Y0043800D02*
X0063495Y0043800D01*
X0063495Y0043810D02*
X0062403Y0043810D01*
X0062403Y0043820D02*
X0063495Y0043820D01*
X0063495Y0043830D02*
X0062403Y0043830D01*
X0062403Y0043840D02*
X0063495Y0043840D01*
X0063495Y0043850D02*
X0062403Y0043850D01*
X0062403Y0043860D02*
X0063495Y0043860D01*
X0063495Y0043870D02*
X0062403Y0043870D01*
X0062403Y0043880D02*
X0063495Y0043880D01*
X0063495Y0043890D02*
X0062403Y0043890D01*
X0062403Y0043900D02*
X0063495Y0043900D01*
X0063495Y0043910D02*
X0062403Y0043910D01*
X0062403Y0043920D02*
X0063495Y0043920D01*
X0063495Y0043930D02*
X0062403Y0043930D01*
X0062403Y0043940D02*
X0063495Y0043940D01*
X0063495Y0043950D02*
X0062403Y0043950D01*
X0062403Y0043960D02*
X0063495Y0043960D01*
X0063495Y0043970D02*
X0062403Y0043970D01*
X0062403Y0043980D02*
X0063495Y0043980D01*
X0063495Y0043990D02*
X0062403Y0043990D01*
X0062403Y0044000D02*
X0063495Y0044000D01*
X0063495Y0044010D02*
X0062403Y0044010D01*
X0062403Y0044020D02*
X0063495Y0044020D01*
X0063495Y0044030D02*
X0062403Y0044030D01*
X0062403Y0044040D02*
X0063495Y0044040D01*
X0063495Y0044050D02*
X0062403Y0044050D01*
X0062403Y0044060D02*
X0063495Y0044060D01*
X0063495Y0044070D02*
X0062403Y0044070D01*
X0062403Y0044080D02*
X0063495Y0044080D01*
X0063495Y0044090D02*
X0062403Y0044090D01*
X0062403Y0044100D02*
X0063495Y0044100D01*
X0063495Y0044110D02*
X0062403Y0044110D01*
X0062403Y0044120D02*
X0063495Y0044120D01*
X0063495Y0044130D02*
X0062403Y0044130D01*
X0062403Y0044140D02*
X0063495Y0044140D01*
X0063495Y0044150D02*
X0062403Y0044150D01*
X0062403Y0044160D02*
X0063495Y0044160D01*
X0063495Y0044170D02*
X0062403Y0044170D01*
X0062403Y0044180D02*
X0063495Y0044180D01*
X0063495Y0044190D02*
X0062403Y0044190D01*
X0062403Y0044200D02*
X0063495Y0044200D01*
X0063495Y0044210D02*
X0062403Y0044210D01*
X0062403Y0044220D02*
X0063495Y0044220D01*
X0063495Y0044230D02*
X0062403Y0044230D01*
X0062403Y0044240D02*
X0063495Y0044240D01*
X0063495Y0044250D02*
X0062403Y0044250D01*
X0062403Y0044260D02*
X0063495Y0044260D01*
X0063495Y0044270D02*
X0062403Y0044270D01*
X0062403Y0044280D02*
X0063495Y0044280D01*
X0063495Y0044290D02*
X0062403Y0044290D01*
X0062403Y0044300D02*
X0063495Y0044300D01*
X0063495Y0044310D02*
X0062403Y0044310D01*
X0062403Y0044320D02*
X0063495Y0044320D01*
X0063495Y0044330D02*
X0062403Y0044330D01*
X0062403Y0044340D02*
X0063495Y0044340D01*
X0063495Y0044350D02*
X0062403Y0044350D01*
X0062403Y0044360D02*
X0063495Y0044360D01*
X0063495Y0044370D02*
X0062403Y0044370D01*
X0062403Y0044380D02*
X0063495Y0044380D01*
X0063495Y0044390D02*
X0062403Y0044390D01*
X0062403Y0044400D02*
X0063495Y0044400D01*
X0063495Y0044410D02*
X0062403Y0044410D01*
X0063495Y0052695D02*
X0063495Y0055933D01*
X0063495Y0052695D02*
X0062403Y0052695D01*
X0062403Y0055933D01*
X0063495Y0055933D01*
X0063495Y0052705D02*
X0062403Y0052705D01*
X0062403Y0052715D02*
X0063495Y0052715D01*
X0063495Y0052725D02*
X0062403Y0052725D01*
X0062403Y0052735D02*
X0063495Y0052735D01*
X0063495Y0052745D02*
X0062403Y0052745D01*
X0062403Y0052755D02*
X0063495Y0052755D01*
X0063495Y0052765D02*
X0062403Y0052765D01*
X0062403Y0052775D02*
X0063495Y0052775D01*
X0063495Y0052785D02*
X0062403Y0052785D01*
X0062403Y0052795D02*
X0063495Y0052795D01*
X0063495Y0052805D02*
X0062403Y0052805D01*
X0062403Y0052815D02*
X0063495Y0052815D01*
X0063495Y0052825D02*
X0062403Y0052825D01*
X0062403Y0052835D02*
X0063495Y0052835D01*
X0063495Y0052845D02*
X0062403Y0052845D01*
X0062403Y0052855D02*
X0063495Y0052855D01*
X0063495Y0052865D02*
X0062403Y0052865D01*
X0062403Y0052875D02*
X0063495Y0052875D01*
X0063495Y0052885D02*
X0062403Y0052885D01*
X0062403Y0052895D02*
X0063495Y0052895D01*
X0063495Y0052905D02*
X0062403Y0052905D01*
X0062403Y0052915D02*
X0063495Y0052915D01*
X0063495Y0052925D02*
X0062403Y0052925D01*
X0062403Y0052935D02*
X0063495Y0052935D01*
X0063495Y0052945D02*
X0062403Y0052945D01*
X0062403Y0052955D02*
X0063495Y0052955D01*
X0063495Y0052965D02*
X0062403Y0052965D01*
X0062403Y0052975D02*
X0063495Y0052975D01*
X0063495Y0052985D02*
X0062403Y0052985D01*
X0062403Y0052995D02*
X0063495Y0052995D01*
X0063495Y0053005D02*
X0062403Y0053005D01*
X0062403Y0053015D02*
X0063495Y0053015D01*
X0063495Y0053025D02*
X0062403Y0053025D01*
X0062403Y0053035D02*
X0063495Y0053035D01*
X0063495Y0053045D02*
X0062403Y0053045D01*
X0062403Y0053055D02*
X0063495Y0053055D01*
X0063495Y0053065D02*
X0062403Y0053065D01*
X0062403Y0053075D02*
X0063495Y0053075D01*
X0063495Y0053085D02*
X0062403Y0053085D01*
X0062403Y0053095D02*
X0063495Y0053095D01*
X0063495Y0053105D02*
X0062403Y0053105D01*
X0062403Y0053115D02*
X0063495Y0053115D01*
X0063495Y0053125D02*
X0062403Y0053125D01*
X0062403Y0053135D02*
X0063495Y0053135D01*
X0063495Y0053145D02*
X0062403Y0053145D01*
X0062403Y0053155D02*
X0063495Y0053155D01*
X0063495Y0053165D02*
X0062403Y0053165D01*
X0062403Y0053175D02*
X0063495Y0053175D01*
X0063495Y0053185D02*
X0062403Y0053185D01*
X0062403Y0053195D02*
X0063495Y0053195D01*
X0063495Y0053205D02*
X0062403Y0053205D01*
X0062403Y0053215D02*
X0063495Y0053215D01*
X0063495Y0053225D02*
X0062403Y0053225D01*
X0062403Y0053235D02*
X0063495Y0053235D01*
X0063495Y0053245D02*
X0062403Y0053245D01*
X0062403Y0053255D02*
X0063495Y0053255D01*
X0063495Y0053265D02*
X0062403Y0053265D01*
X0062403Y0053275D02*
X0063495Y0053275D01*
X0063495Y0053285D02*
X0062403Y0053285D01*
X0062403Y0053295D02*
X0063495Y0053295D01*
X0063495Y0053305D02*
X0062403Y0053305D01*
X0062403Y0053315D02*
X0063495Y0053315D01*
X0063495Y0053325D02*
X0062403Y0053325D01*
X0062403Y0053335D02*
X0063495Y0053335D01*
X0063495Y0053345D02*
X0062403Y0053345D01*
X0062403Y0053355D02*
X0063495Y0053355D01*
X0063495Y0053365D02*
X0062403Y0053365D01*
X0062403Y0053375D02*
X0063495Y0053375D01*
X0063495Y0053385D02*
X0062403Y0053385D01*
X0062403Y0053395D02*
X0063495Y0053395D01*
X0063495Y0053405D02*
X0062403Y0053405D01*
X0062403Y0053415D02*
X0063495Y0053415D01*
X0063495Y0053425D02*
X0062403Y0053425D01*
X0062403Y0053435D02*
X0063495Y0053435D01*
X0063495Y0053445D02*
X0062403Y0053445D01*
X0062403Y0053455D02*
X0063495Y0053455D01*
X0063495Y0053465D02*
X0062403Y0053465D01*
X0062403Y0053475D02*
X0063495Y0053475D01*
X0063495Y0053485D02*
X0062403Y0053485D01*
X0062403Y0053495D02*
X0063495Y0053495D01*
X0063495Y0053505D02*
X0062403Y0053505D01*
X0062403Y0053515D02*
X0063495Y0053515D01*
X0063495Y0053525D02*
X0062403Y0053525D01*
X0062403Y0053535D02*
X0063495Y0053535D01*
X0063495Y0053545D02*
X0062403Y0053545D01*
X0062403Y0053555D02*
X0063495Y0053555D01*
X0063495Y0053565D02*
X0062403Y0053565D01*
X0062403Y0053575D02*
X0063495Y0053575D01*
X0063495Y0053585D02*
X0062403Y0053585D01*
X0062403Y0053595D02*
X0063495Y0053595D01*
X0063495Y0053605D02*
X0062403Y0053605D01*
X0062403Y0053615D02*
X0063495Y0053615D01*
X0063495Y0053625D02*
X0062403Y0053625D01*
X0062403Y0053635D02*
X0063495Y0053635D01*
X0063495Y0053645D02*
X0062403Y0053645D01*
X0062403Y0053655D02*
X0063495Y0053655D01*
X0063495Y0053665D02*
X0062403Y0053665D01*
X0062403Y0053675D02*
X0063495Y0053675D01*
X0063495Y0053685D02*
X0062403Y0053685D01*
X0062403Y0053695D02*
X0063495Y0053695D01*
X0063495Y0053705D02*
X0062403Y0053705D01*
X0062403Y0053715D02*
X0063495Y0053715D01*
X0063495Y0053725D02*
X0062403Y0053725D01*
X0062403Y0053735D02*
X0063495Y0053735D01*
X0063495Y0053745D02*
X0062403Y0053745D01*
X0062403Y0053755D02*
X0063495Y0053755D01*
X0063495Y0053765D02*
X0062403Y0053765D01*
X0062403Y0053775D02*
X0063495Y0053775D01*
X0063495Y0053785D02*
X0062403Y0053785D01*
X0062403Y0053795D02*
X0063495Y0053795D01*
X0063495Y0053805D02*
X0062403Y0053805D01*
X0062403Y0053815D02*
X0063495Y0053815D01*
X0063495Y0053825D02*
X0062403Y0053825D01*
X0062403Y0053835D02*
X0063495Y0053835D01*
X0063495Y0053845D02*
X0062403Y0053845D01*
X0062403Y0053855D02*
X0063495Y0053855D01*
X0063495Y0053865D02*
X0062403Y0053865D01*
X0062403Y0053875D02*
X0063495Y0053875D01*
X0063495Y0053885D02*
X0062403Y0053885D01*
X0062403Y0053895D02*
X0063495Y0053895D01*
X0063495Y0053905D02*
X0062403Y0053905D01*
X0062403Y0053915D02*
X0063495Y0053915D01*
X0063495Y0053925D02*
X0062403Y0053925D01*
X0062403Y0053935D02*
X0063495Y0053935D01*
X0063495Y0053945D02*
X0062403Y0053945D01*
X0062403Y0053955D02*
X0063495Y0053955D01*
X0063495Y0053965D02*
X0062403Y0053965D01*
X0062403Y0053975D02*
X0063495Y0053975D01*
X0063495Y0053985D02*
X0062403Y0053985D01*
X0062403Y0053995D02*
X0063495Y0053995D01*
X0063495Y0054005D02*
X0062403Y0054005D01*
X0062403Y0054015D02*
X0063495Y0054015D01*
X0063495Y0054025D02*
X0062403Y0054025D01*
X0062403Y0054035D02*
X0063495Y0054035D01*
X0063495Y0054045D02*
X0062403Y0054045D01*
X0062403Y0054055D02*
X0063495Y0054055D01*
X0063495Y0054065D02*
X0062403Y0054065D01*
X0062403Y0054075D02*
X0063495Y0054075D01*
X0063495Y0054085D02*
X0062403Y0054085D01*
X0062403Y0054095D02*
X0063495Y0054095D01*
X0063495Y0054105D02*
X0062403Y0054105D01*
X0062403Y0054115D02*
X0063495Y0054115D01*
X0063495Y0054125D02*
X0062403Y0054125D01*
X0062403Y0054135D02*
X0063495Y0054135D01*
X0063495Y0054145D02*
X0062403Y0054145D01*
X0062403Y0054155D02*
X0063495Y0054155D01*
X0063495Y0054165D02*
X0062403Y0054165D01*
X0062403Y0054175D02*
X0063495Y0054175D01*
X0063495Y0054185D02*
X0062403Y0054185D01*
X0062403Y0054195D02*
X0063495Y0054195D01*
X0063495Y0054205D02*
X0062403Y0054205D01*
X0062403Y0054215D02*
X0063495Y0054215D01*
X0063495Y0054225D02*
X0062403Y0054225D01*
X0062403Y0054235D02*
X0063495Y0054235D01*
X0063495Y0054245D02*
X0062403Y0054245D01*
X0062403Y0054255D02*
X0063495Y0054255D01*
X0063495Y0054265D02*
X0062403Y0054265D01*
X0062403Y0054275D02*
X0063495Y0054275D01*
X0063495Y0054285D02*
X0062403Y0054285D01*
X0062403Y0054295D02*
X0063495Y0054295D01*
X0063495Y0054305D02*
X0062403Y0054305D01*
X0062403Y0054315D02*
X0063495Y0054315D01*
X0063495Y0054325D02*
X0062403Y0054325D01*
X0062403Y0054335D02*
X0063495Y0054335D01*
X0063495Y0054345D02*
X0062403Y0054345D01*
X0062403Y0054355D02*
X0063495Y0054355D01*
X0063495Y0054365D02*
X0062403Y0054365D01*
X0062403Y0054375D02*
X0063495Y0054375D01*
X0063495Y0054385D02*
X0062403Y0054385D01*
X0062403Y0054395D02*
X0063495Y0054395D01*
X0063495Y0054405D02*
X0062403Y0054405D01*
X0062403Y0054415D02*
X0063495Y0054415D01*
X0063495Y0054425D02*
X0062403Y0054425D01*
X0062403Y0054435D02*
X0063495Y0054435D01*
X0063495Y0054445D02*
X0062403Y0054445D01*
X0062403Y0054455D02*
X0063495Y0054455D01*
X0063495Y0054465D02*
X0062403Y0054465D01*
X0062403Y0054475D02*
X0063495Y0054475D01*
X0063495Y0054485D02*
X0062403Y0054485D01*
X0062403Y0054495D02*
X0063495Y0054495D01*
X0063495Y0054505D02*
X0062403Y0054505D01*
X0062403Y0054515D02*
X0063495Y0054515D01*
X0063495Y0054525D02*
X0062403Y0054525D01*
X0062403Y0054535D02*
X0063495Y0054535D01*
X0063495Y0054545D02*
X0062403Y0054545D01*
X0062403Y0054555D02*
X0063495Y0054555D01*
X0063495Y0054565D02*
X0062403Y0054565D01*
X0062403Y0054575D02*
X0063495Y0054575D01*
X0063495Y0054585D02*
X0062403Y0054585D01*
X0062403Y0054595D02*
X0063495Y0054595D01*
X0063495Y0054605D02*
X0062403Y0054605D01*
X0062403Y0054615D02*
X0063495Y0054615D01*
X0063495Y0054625D02*
X0062403Y0054625D01*
X0062403Y0054635D02*
X0063495Y0054635D01*
X0063495Y0054645D02*
X0062403Y0054645D01*
X0062403Y0054655D02*
X0063495Y0054655D01*
X0063495Y0054665D02*
X0062403Y0054665D01*
X0062403Y0054675D02*
X0063495Y0054675D01*
X0063495Y0054685D02*
X0062403Y0054685D01*
X0062403Y0054695D02*
X0063495Y0054695D01*
X0063495Y0054705D02*
X0062403Y0054705D01*
X0062403Y0054715D02*
X0063495Y0054715D01*
X0063495Y0054725D02*
X0062403Y0054725D01*
X0062403Y0054735D02*
X0063495Y0054735D01*
X0063495Y0054745D02*
X0062403Y0054745D01*
X0062403Y0054755D02*
X0063495Y0054755D01*
X0063495Y0054765D02*
X0062403Y0054765D01*
X0062403Y0054775D02*
X0063495Y0054775D01*
X0063495Y0054785D02*
X0062403Y0054785D01*
X0062403Y0054795D02*
X0063495Y0054795D01*
X0063495Y0054805D02*
X0062403Y0054805D01*
X0062403Y0054815D02*
X0063495Y0054815D01*
X0063495Y0054825D02*
X0062403Y0054825D01*
X0062403Y0054835D02*
X0063495Y0054835D01*
X0063495Y0054845D02*
X0062403Y0054845D01*
X0062403Y0054855D02*
X0063495Y0054855D01*
X0063495Y0054865D02*
X0062403Y0054865D01*
X0062403Y0054875D02*
X0063495Y0054875D01*
X0063495Y0054885D02*
X0062403Y0054885D01*
X0062403Y0054895D02*
X0063495Y0054895D01*
X0063495Y0054905D02*
X0062403Y0054905D01*
X0062403Y0054915D02*
X0063495Y0054915D01*
X0063495Y0054925D02*
X0062403Y0054925D01*
X0062403Y0054935D02*
X0063495Y0054935D01*
X0063495Y0054945D02*
X0062403Y0054945D01*
X0062403Y0054955D02*
X0063495Y0054955D01*
X0063495Y0054965D02*
X0062403Y0054965D01*
X0062403Y0054975D02*
X0063495Y0054975D01*
X0063495Y0054985D02*
X0062403Y0054985D01*
X0062403Y0054995D02*
X0063495Y0054995D01*
X0063495Y0055005D02*
X0062403Y0055005D01*
X0062403Y0055015D02*
X0063495Y0055015D01*
X0063495Y0055025D02*
X0062403Y0055025D01*
X0062403Y0055035D02*
X0063495Y0055035D01*
X0063495Y0055045D02*
X0062403Y0055045D01*
X0062403Y0055055D02*
X0063495Y0055055D01*
X0063495Y0055065D02*
X0062403Y0055065D01*
X0062403Y0055075D02*
X0063495Y0055075D01*
X0063495Y0055085D02*
X0062403Y0055085D01*
X0062403Y0055095D02*
X0063495Y0055095D01*
X0063495Y0055105D02*
X0062403Y0055105D01*
X0062403Y0055115D02*
X0063495Y0055115D01*
X0063495Y0055125D02*
X0062403Y0055125D01*
X0062403Y0055135D02*
X0063495Y0055135D01*
X0063495Y0055145D02*
X0062403Y0055145D01*
X0062403Y0055155D02*
X0063495Y0055155D01*
X0063495Y0055165D02*
X0062403Y0055165D01*
X0062403Y0055175D02*
X0063495Y0055175D01*
X0063495Y0055185D02*
X0062403Y0055185D01*
X0062403Y0055195D02*
X0063495Y0055195D01*
X0063495Y0055205D02*
X0062403Y0055205D01*
X0062403Y0055215D02*
X0063495Y0055215D01*
X0063495Y0055225D02*
X0062403Y0055225D01*
X0062403Y0055235D02*
X0063495Y0055235D01*
X0063495Y0055245D02*
X0062403Y0055245D01*
X0062403Y0055255D02*
X0063495Y0055255D01*
X0063495Y0055265D02*
X0062403Y0055265D01*
X0062403Y0055275D02*
X0063495Y0055275D01*
X0063495Y0055285D02*
X0062403Y0055285D01*
X0062403Y0055295D02*
X0063495Y0055295D01*
X0063495Y0055305D02*
X0062403Y0055305D01*
X0062403Y0055315D02*
X0063495Y0055315D01*
X0063495Y0055325D02*
X0062403Y0055325D01*
X0062403Y0055335D02*
X0063495Y0055335D01*
X0063495Y0055345D02*
X0062403Y0055345D01*
X0062403Y0055355D02*
X0063495Y0055355D01*
X0063495Y0055365D02*
X0062403Y0055365D01*
X0062403Y0055375D02*
X0063495Y0055375D01*
X0063495Y0055385D02*
X0062403Y0055385D01*
X0062403Y0055395D02*
X0063495Y0055395D01*
X0063495Y0055405D02*
X0062403Y0055405D01*
X0062403Y0055415D02*
X0063495Y0055415D01*
X0063495Y0055425D02*
X0062403Y0055425D01*
X0062403Y0055435D02*
X0063495Y0055435D01*
X0063495Y0055445D02*
X0062403Y0055445D01*
X0062403Y0055455D02*
X0063495Y0055455D01*
X0063495Y0055465D02*
X0062403Y0055465D01*
X0062403Y0055475D02*
X0063495Y0055475D01*
X0063495Y0055485D02*
X0062403Y0055485D01*
X0062403Y0055495D02*
X0063495Y0055495D01*
X0063495Y0055505D02*
X0062403Y0055505D01*
X0062403Y0055515D02*
X0063495Y0055515D01*
X0063495Y0055525D02*
X0062403Y0055525D01*
X0062403Y0055535D02*
X0063495Y0055535D01*
X0063495Y0055545D02*
X0062403Y0055545D01*
X0062403Y0055555D02*
X0063495Y0055555D01*
X0063495Y0055565D02*
X0062403Y0055565D01*
X0062403Y0055575D02*
X0063495Y0055575D01*
X0063495Y0055585D02*
X0062403Y0055585D01*
X0062403Y0055595D02*
X0063495Y0055595D01*
X0063495Y0055605D02*
X0062403Y0055605D01*
X0062403Y0055615D02*
X0063495Y0055615D01*
X0063495Y0055625D02*
X0062403Y0055625D01*
X0062403Y0055635D02*
X0063495Y0055635D01*
X0063495Y0055645D02*
X0062403Y0055645D01*
X0062403Y0055655D02*
X0063495Y0055655D01*
X0063495Y0055665D02*
X0062403Y0055665D01*
X0062403Y0055675D02*
X0063495Y0055675D01*
X0063495Y0055685D02*
X0062403Y0055685D01*
X0062403Y0055695D02*
X0063495Y0055695D01*
X0063495Y0055705D02*
X0062403Y0055705D01*
X0062403Y0055715D02*
X0063495Y0055715D01*
X0063495Y0055725D02*
X0062403Y0055725D01*
X0062403Y0055735D02*
X0063495Y0055735D01*
X0063495Y0055745D02*
X0062403Y0055745D01*
X0062403Y0055755D02*
X0063495Y0055755D01*
X0063495Y0055765D02*
X0062403Y0055765D01*
X0062403Y0055775D02*
X0063495Y0055775D01*
X0063495Y0055785D02*
X0062403Y0055785D01*
X0062403Y0055795D02*
X0063495Y0055795D01*
X0063495Y0055805D02*
X0062403Y0055805D01*
X0062403Y0055815D02*
X0063495Y0055815D01*
X0063495Y0055825D02*
X0062403Y0055825D01*
X0062403Y0055835D02*
X0063495Y0055835D01*
X0063495Y0055845D02*
X0062403Y0055845D01*
X0062403Y0055855D02*
X0063495Y0055855D01*
X0063495Y0055865D02*
X0062403Y0055865D01*
X0062403Y0055875D02*
X0063495Y0055875D01*
X0063495Y0055885D02*
X0062403Y0055885D01*
X0062403Y0055895D02*
X0063495Y0055895D01*
X0063495Y0055905D02*
X0062403Y0055905D01*
X0062403Y0055915D02*
X0063495Y0055915D01*
X0063495Y0055925D02*
X0062403Y0055925D01*
X0061527Y0055933D02*
X0061527Y0052695D01*
X0060435Y0052695D01*
X0060435Y0055933D01*
X0061527Y0055933D01*
X0061527Y0052705D02*
X0060435Y0052705D01*
X0060435Y0052715D02*
X0061527Y0052715D01*
X0061527Y0052725D02*
X0060435Y0052725D01*
X0060435Y0052735D02*
X0061527Y0052735D01*
X0061527Y0052745D02*
X0060435Y0052745D01*
X0060435Y0052755D02*
X0061527Y0052755D01*
X0061527Y0052765D02*
X0060435Y0052765D01*
X0060435Y0052775D02*
X0061527Y0052775D01*
X0061527Y0052785D02*
X0060435Y0052785D01*
X0060435Y0052795D02*
X0061527Y0052795D01*
X0061527Y0052805D02*
X0060435Y0052805D01*
X0060435Y0052815D02*
X0061527Y0052815D01*
X0061527Y0052825D02*
X0060435Y0052825D01*
X0060435Y0052835D02*
X0061527Y0052835D01*
X0061527Y0052845D02*
X0060435Y0052845D01*
X0060435Y0052855D02*
X0061527Y0052855D01*
X0061527Y0052865D02*
X0060435Y0052865D01*
X0060435Y0052875D02*
X0061527Y0052875D01*
X0061527Y0052885D02*
X0060435Y0052885D01*
X0060435Y0052895D02*
X0061527Y0052895D01*
X0061527Y0052905D02*
X0060435Y0052905D01*
X0060435Y0052915D02*
X0061527Y0052915D01*
X0061527Y0052925D02*
X0060435Y0052925D01*
X0060435Y0052935D02*
X0061527Y0052935D01*
X0061527Y0052945D02*
X0060435Y0052945D01*
X0060435Y0052955D02*
X0061527Y0052955D01*
X0061527Y0052965D02*
X0060435Y0052965D01*
X0060435Y0052975D02*
X0061527Y0052975D01*
X0061527Y0052985D02*
X0060435Y0052985D01*
X0060435Y0052995D02*
X0061527Y0052995D01*
X0061527Y0053005D02*
X0060435Y0053005D01*
X0060435Y0053015D02*
X0061527Y0053015D01*
X0061527Y0053025D02*
X0060435Y0053025D01*
X0060435Y0053035D02*
X0061527Y0053035D01*
X0061527Y0053045D02*
X0060435Y0053045D01*
X0060435Y0053055D02*
X0061527Y0053055D01*
X0061527Y0053065D02*
X0060435Y0053065D01*
X0060435Y0053075D02*
X0061527Y0053075D01*
X0061527Y0053085D02*
X0060435Y0053085D01*
X0060435Y0053095D02*
X0061527Y0053095D01*
X0061527Y0053105D02*
X0060435Y0053105D01*
X0060435Y0053115D02*
X0061527Y0053115D01*
X0061527Y0053125D02*
X0060435Y0053125D01*
X0060435Y0053135D02*
X0061527Y0053135D01*
X0061527Y0053145D02*
X0060435Y0053145D01*
X0060435Y0053155D02*
X0061527Y0053155D01*
X0061527Y0053165D02*
X0060435Y0053165D01*
X0060435Y0053175D02*
X0061527Y0053175D01*
X0061527Y0053185D02*
X0060435Y0053185D01*
X0060435Y0053195D02*
X0061527Y0053195D01*
X0061527Y0053205D02*
X0060435Y0053205D01*
X0060435Y0053215D02*
X0061527Y0053215D01*
X0061527Y0053225D02*
X0060435Y0053225D01*
X0060435Y0053235D02*
X0061527Y0053235D01*
X0061527Y0053245D02*
X0060435Y0053245D01*
X0060435Y0053255D02*
X0061527Y0053255D01*
X0061527Y0053265D02*
X0060435Y0053265D01*
X0060435Y0053275D02*
X0061527Y0053275D01*
X0061527Y0053285D02*
X0060435Y0053285D01*
X0060435Y0053295D02*
X0061527Y0053295D01*
X0061527Y0053305D02*
X0060435Y0053305D01*
X0060435Y0053315D02*
X0061527Y0053315D01*
X0061527Y0053325D02*
X0060435Y0053325D01*
X0060435Y0053335D02*
X0061527Y0053335D01*
X0061527Y0053345D02*
X0060435Y0053345D01*
X0060435Y0053355D02*
X0061527Y0053355D01*
X0061527Y0053365D02*
X0060435Y0053365D01*
X0060435Y0053375D02*
X0061527Y0053375D01*
X0061527Y0053385D02*
X0060435Y0053385D01*
X0060435Y0053395D02*
X0061527Y0053395D01*
X0061527Y0053405D02*
X0060435Y0053405D01*
X0060435Y0053415D02*
X0061527Y0053415D01*
X0061527Y0053425D02*
X0060435Y0053425D01*
X0060435Y0053435D02*
X0061527Y0053435D01*
X0061527Y0053445D02*
X0060435Y0053445D01*
X0060435Y0053455D02*
X0061527Y0053455D01*
X0061527Y0053465D02*
X0060435Y0053465D01*
X0060435Y0053475D02*
X0061527Y0053475D01*
X0061527Y0053485D02*
X0060435Y0053485D01*
X0060435Y0053495D02*
X0061527Y0053495D01*
X0061527Y0053505D02*
X0060435Y0053505D01*
X0060435Y0053515D02*
X0061527Y0053515D01*
X0061527Y0053525D02*
X0060435Y0053525D01*
X0060435Y0053535D02*
X0061527Y0053535D01*
X0061527Y0053545D02*
X0060435Y0053545D01*
X0060435Y0053555D02*
X0061527Y0053555D01*
X0061527Y0053565D02*
X0060435Y0053565D01*
X0060435Y0053575D02*
X0061527Y0053575D01*
X0061527Y0053585D02*
X0060435Y0053585D01*
X0060435Y0053595D02*
X0061527Y0053595D01*
X0061527Y0053605D02*
X0060435Y0053605D01*
X0060435Y0053615D02*
X0061527Y0053615D01*
X0061527Y0053625D02*
X0060435Y0053625D01*
X0060435Y0053635D02*
X0061527Y0053635D01*
X0061527Y0053645D02*
X0060435Y0053645D01*
X0060435Y0053655D02*
X0061527Y0053655D01*
X0061527Y0053665D02*
X0060435Y0053665D01*
X0060435Y0053675D02*
X0061527Y0053675D01*
X0061527Y0053685D02*
X0060435Y0053685D01*
X0060435Y0053695D02*
X0061527Y0053695D01*
X0061527Y0053705D02*
X0060435Y0053705D01*
X0060435Y0053715D02*
X0061527Y0053715D01*
X0061527Y0053725D02*
X0060435Y0053725D01*
X0060435Y0053735D02*
X0061527Y0053735D01*
X0061527Y0053745D02*
X0060435Y0053745D01*
X0060435Y0053755D02*
X0061527Y0053755D01*
X0061527Y0053765D02*
X0060435Y0053765D01*
X0060435Y0053775D02*
X0061527Y0053775D01*
X0061527Y0053785D02*
X0060435Y0053785D01*
X0060435Y0053795D02*
X0061527Y0053795D01*
X0061527Y0053805D02*
X0060435Y0053805D01*
X0060435Y0053815D02*
X0061527Y0053815D01*
X0061527Y0053825D02*
X0060435Y0053825D01*
X0060435Y0053835D02*
X0061527Y0053835D01*
X0061527Y0053845D02*
X0060435Y0053845D01*
X0060435Y0053855D02*
X0061527Y0053855D01*
X0061527Y0053865D02*
X0060435Y0053865D01*
X0060435Y0053875D02*
X0061527Y0053875D01*
X0061527Y0053885D02*
X0060435Y0053885D01*
X0060435Y0053895D02*
X0061527Y0053895D01*
X0061527Y0053905D02*
X0060435Y0053905D01*
X0060435Y0053915D02*
X0061527Y0053915D01*
X0061527Y0053925D02*
X0060435Y0053925D01*
X0060435Y0053935D02*
X0061527Y0053935D01*
X0061527Y0053945D02*
X0060435Y0053945D01*
X0060435Y0053955D02*
X0061527Y0053955D01*
X0061527Y0053965D02*
X0060435Y0053965D01*
X0060435Y0053975D02*
X0061527Y0053975D01*
X0061527Y0053985D02*
X0060435Y0053985D01*
X0060435Y0053995D02*
X0061527Y0053995D01*
X0061527Y0054005D02*
X0060435Y0054005D01*
X0060435Y0054015D02*
X0061527Y0054015D01*
X0061527Y0054025D02*
X0060435Y0054025D01*
X0060435Y0054035D02*
X0061527Y0054035D01*
X0061527Y0054045D02*
X0060435Y0054045D01*
X0060435Y0054055D02*
X0061527Y0054055D01*
X0061527Y0054065D02*
X0060435Y0054065D01*
X0060435Y0054075D02*
X0061527Y0054075D01*
X0061527Y0054085D02*
X0060435Y0054085D01*
X0060435Y0054095D02*
X0061527Y0054095D01*
X0061527Y0054105D02*
X0060435Y0054105D01*
X0060435Y0054115D02*
X0061527Y0054115D01*
X0061527Y0054125D02*
X0060435Y0054125D01*
X0060435Y0054135D02*
X0061527Y0054135D01*
X0061527Y0054145D02*
X0060435Y0054145D01*
X0060435Y0054155D02*
X0061527Y0054155D01*
X0061527Y0054165D02*
X0060435Y0054165D01*
X0060435Y0054175D02*
X0061527Y0054175D01*
X0061527Y0054185D02*
X0060435Y0054185D01*
X0060435Y0054195D02*
X0061527Y0054195D01*
X0061527Y0054205D02*
X0060435Y0054205D01*
X0060435Y0054215D02*
X0061527Y0054215D01*
X0061527Y0054225D02*
X0060435Y0054225D01*
X0060435Y0054235D02*
X0061527Y0054235D01*
X0061527Y0054245D02*
X0060435Y0054245D01*
X0060435Y0054255D02*
X0061527Y0054255D01*
X0061527Y0054265D02*
X0060435Y0054265D01*
X0060435Y0054275D02*
X0061527Y0054275D01*
X0061527Y0054285D02*
X0060435Y0054285D01*
X0060435Y0054295D02*
X0061527Y0054295D01*
X0061527Y0054305D02*
X0060435Y0054305D01*
X0060435Y0054315D02*
X0061527Y0054315D01*
X0061527Y0054325D02*
X0060435Y0054325D01*
X0060435Y0054335D02*
X0061527Y0054335D01*
X0061527Y0054345D02*
X0060435Y0054345D01*
X0060435Y0054355D02*
X0061527Y0054355D01*
X0061527Y0054365D02*
X0060435Y0054365D01*
X0060435Y0054375D02*
X0061527Y0054375D01*
X0061527Y0054385D02*
X0060435Y0054385D01*
X0060435Y0054395D02*
X0061527Y0054395D01*
X0061527Y0054405D02*
X0060435Y0054405D01*
X0060435Y0054415D02*
X0061527Y0054415D01*
X0061527Y0054425D02*
X0060435Y0054425D01*
X0060435Y0054435D02*
X0061527Y0054435D01*
X0061527Y0054445D02*
X0060435Y0054445D01*
X0060435Y0054455D02*
X0061527Y0054455D01*
X0061527Y0054465D02*
X0060435Y0054465D01*
X0060435Y0054475D02*
X0061527Y0054475D01*
X0061527Y0054485D02*
X0060435Y0054485D01*
X0060435Y0054495D02*
X0061527Y0054495D01*
X0061527Y0054505D02*
X0060435Y0054505D01*
X0060435Y0054515D02*
X0061527Y0054515D01*
X0061527Y0054525D02*
X0060435Y0054525D01*
X0060435Y0054535D02*
X0061527Y0054535D01*
X0061527Y0054545D02*
X0060435Y0054545D01*
X0060435Y0054555D02*
X0061527Y0054555D01*
X0061527Y0054565D02*
X0060435Y0054565D01*
X0060435Y0054575D02*
X0061527Y0054575D01*
X0061527Y0054585D02*
X0060435Y0054585D01*
X0060435Y0054595D02*
X0061527Y0054595D01*
X0061527Y0054605D02*
X0060435Y0054605D01*
X0060435Y0054615D02*
X0061527Y0054615D01*
X0061527Y0054625D02*
X0060435Y0054625D01*
X0060435Y0054635D02*
X0061527Y0054635D01*
X0061527Y0054645D02*
X0060435Y0054645D01*
X0060435Y0054655D02*
X0061527Y0054655D01*
X0061527Y0054665D02*
X0060435Y0054665D01*
X0060435Y0054675D02*
X0061527Y0054675D01*
X0061527Y0054685D02*
X0060435Y0054685D01*
X0060435Y0054695D02*
X0061527Y0054695D01*
X0061527Y0054705D02*
X0060435Y0054705D01*
X0060435Y0054715D02*
X0061527Y0054715D01*
X0061527Y0054725D02*
X0060435Y0054725D01*
X0060435Y0054735D02*
X0061527Y0054735D01*
X0061527Y0054745D02*
X0060435Y0054745D01*
X0060435Y0054755D02*
X0061527Y0054755D01*
X0061527Y0054765D02*
X0060435Y0054765D01*
X0060435Y0054775D02*
X0061527Y0054775D01*
X0061527Y0054785D02*
X0060435Y0054785D01*
X0060435Y0054795D02*
X0061527Y0054795D01*
X0061527Y0054805D02*
X0060435Y0054805D01*
X0060435Y0054815D02*
X0061527Y0054815D01*
X0061527Y0054825D02*
X0060435Y0054825D01*
X0060435Y0054835D02*
X0061527Y0054835D01*
X0061527Y0054845D02*
X0060435Y0054845D01*
X0060435Y0054855D02*
X0061527Y0054855D01*
X0061527Y0054865D02*
X0060435Y0054865D01*
X0060435Y0054875D02*
X0061527Y0054875D01*
X0061527Y0054885D02*
X0060435Y0054885D01*
X0060435Y0054895D02*
X0061527Y0054895D01*
X0061527Y0054905D02*
X0060435Y0054905D01*
X0060435Y0054915D02*
X0061527Y0054915D01*
X0061527Y0054925D02*
X0060435Y0054925D01*
X0060435Y0054935D02*
X0061527Y0054935D01*
X0061527Y0054945D02*
X0060435Y0054945D01*
X0060435Y0054955D02*
X0061527Y0054955D01*
X0061527Y0054965D02*
X0060435Y0054965D01*
X0060435Y0054975D02*
X0061527Y0054975D01*
X0061527Y0054985D02*
X0060435Y0054985D01*
X0060435Y0054995D02*
X0061527Y0054995D01*
X0061527Y0055005D02*
X0060435Y0055005D01*
X0060435Y0055015D02*
X0061527Y0055015D01*
X0061527Y0055025D02*
X0060435Y0055025D01*
X0060435Y0055035D02*
X0061527Y0055035D01*
X0061527Y0055045D02*
X0060435Y0055045D01*
X0060435Y0055055D02*
X0061527Y0055055D01*
X0061527Y0055065D02*
X0060435Y0055065D01*
X0060435Y0055075D02*
X0061527Y0055075D01*
X0061527Y0055085D02*
X0060435Y0055085D01*
X0060435Y0055095D02*
X0061527Y0055095D01*
X0061527Y0055105D02*
X0060435Y0055105D01*
X0060435Y0055115D02*
X0061527Y0055115D01*
X0061527Y0055125D02*
X0060435Y0055125D01*
X0060435Y0055135D02*
X0061527Y0055135D01*
X0061527Y0055145D02*
X0060435Y0055145D01*
X0060435Y0055155D02*
X0061527Y0055155D01*
X0061527Y0055165D02*
X0060435Y0055165D01*
X0060435Y0055175D02*
X0061527Y0055175D01*
X0061527Y0055185D02*
X0060435Y0055185D01*
X0060435Y0055195D02*
X0061527Y0055195D01*
X0061527Y0055205D02*
X0060435Y0055205D01*
X0060435Y0055215D02*
X0061527Y0055215D01*
X0061527Y0055225D02*
X0060435Y0055225D01*
X0060435Y0055235D02*
X0061527Y0055235D01*
X0061527Y0055245D02*
X0060435Y0055245D01*
X0060435Y0055255D02*
X0061527Y0055255D01*
X0061527Y0055265D02*
X0060435Y0055265D01*
X0060435Y0055275D02*
X0061527Y0055275D01*
X0061527Y0055285D02*
X0060435Y0055285D01*
X0060435Y0055295D02*
X0061527Y0055295D01*
X0061527Y0055305D02*
X0060435Y0055305D01*
X0060435Y0055315D02*
X0061527Y0055315D01*
X0061527Y0055325D02*
X0060435Y0055325D01*
X0060435Y0055335D02*
X0061527Y0055335D01*
X0061527Y0055345D02*
X0060435Y0055345D01*
X0060435Y0055355D02*
X0061527Y0055355D01*
X0061527Y0055365D02*
X0060435Y0055365D01*
X0060435Y0055375D02*
X0061527Y0055375D01*
X0061527Y0055385D02*
X0060435Y0055385D01*
X0060435Y0055395D02*
X0061527Y0055395D01*
X0061527Y0055405D02*
X0060435Y0055405D01*
X0060435Y0055415D02*
X0061527Y0055415D01*
X0061527Y0055425D02*
X0060435Y0055425D01*
X0060435Y0055435D02*
X0061527Y0055435D01*
X0061527Y0055445D02*
X0060435Y0055445D01*
X0060435Y0055455D02*
X0061527Y0055455D01*
X0061527Y0055465D02*
X0060435Y0055465D01*
X0060435Y0055475D02*
X0061527Y0055475D01*
X0061527Y0055485D02*
X0060435Y0055485D01*
X0060435Y0055495D02*
X0061527Y0055495D01*
X0061527Y0055505D02*
X0060435Y0055505D01*
X0060435Y0055515D02*
X0061527Y0055515D01*
X0061527Y0055525D02*
X0060435Y0055525D01*
X0060435Y0055535D02*
X0061527Y0055535D01*
X0061527Y0055545D02*
X0060435Y0055545D01*
X0060435Y0055555D02*
X0061527Y0055555D01*
X0061527Y0055565D02*
X0060435Y0055565D01*
X0060435Y0055575D02*
X0061527Y0055575D01*
X0061527Y0055585D02*
X0060435Y0055585D01*
X0060435Y0055595D02*
X0061527Y0055595D01*
X0061527Y0055605D02*
X0060435Y0055605D01*
X0060435Y0055615D02*
X0061527Y0055615D01*
X0061527Y0055625D02*
X0060435Y0055625D01*
X0060435Y0055635D02*
X0061527Y0055635D01*
X0061527Y0055645D02*
X0060435Y0055645D01*
X0060435Y0055655D02*
X0061527Y0055655D01*
X0061527Y0055665D02*
X0060435Y0055665D01*
X0060435Y0055675D02*
X0061527Y0055675D01*
X0061527Y0055685D02*
X0060435Y0055685D01*
X0060435Y0055695D02*
X0061527Y0055695D01*
X0061527Y0055705D02*
X0060435Y0055705D01*
X0060435Y0055715D02*
X0061527Y0055715D01*
X0061527Y0055725D02*
X0060435Y0055725D01*
X0060435Y0055735D02*
X0061527Y0055735D01*
X0061527Y0055745D02*
X0060435Y0055745D01*
X0060435Y0055755D02*
X0061527Y0055755D01*
X0061527Y0055765D02*
X0060435Y0055765D01*
X0060435Y0055775D02*
X0061527Y0055775D01*
X0061527Y0055785D02*
X0060435Y0055785D01*
X0060435Y0055795D02*
X0061527Y0055795D01*
X0061527Y0055805D02*
X0060435Y0055805D01*
X0060435Y0055815D02*
X0061527Y0055815D01*
X0061527Y0055825D02*
X0060435Y0055825D01*
X0060435Y0055835D02*
X0061527Y0055835D01*
X0061527Y0055845D02*
X0060435Y0055845D01*
X0060435Y0055855D02*
X0061527Y0055855D01*
X0061527Y0055865D02*
X0060435Y0055865D01*
X0060435Y0055875D02*
X0061527Y0055875D01*
X0061527Y0055885D02*
X0060435Y0055885D01*
X0060435Y0055895D02*
X0061527Y0055895D01*
X0061527Y0055905D02*
X0060435Y0055905D01*
X0060435Y0055915D02*
X0061527Y0055915D01*
X0061527Y0055925D02*
X0060435Y0055925D01*
X0059558Y0055933D02*
X0059558Y0052695D01*
X0058466Y0052695D01*
X0058466Y0055933D01*
X0059558Y0055933D01*
X0059558Y0052705D02*
X0058466Y0052705D01*
X0058466Y0052715D02*
X0059558Y0052715D01*
X0059558Y0052725D02*
X0058466Y0052725D01*
X0058466Y0052735D02*
X0059558Y0052735D01*
X0059558Y0052745D02*
X0058466Y0052745D01*
X0058466Y0052755D02*
X0059558Y0052755D01*
X0059558Y0052765D02*
X0058466Y0052765D01*
X0058466Y0052775D02*
X0059558Y0052775D01*
X0059558Y0052785D02*
X0058466Y0052785D01*
X0058466Y0052795D02*
X0059558Y0052795D01*
X0059558Y0052805D02*
X0058466Y0052805D01*
X0058466Y0052815D02*
X0059558Y0052815D01*
X0059558Y0052825D02*
X0058466Y0052825D01*
X0058466Y0052835D02*
X0059558Y0052835D01*
X0059558Y0052845D02*
X0058466Y0052845D01*
X0058466Y0052855D02*
X0059558Y0052855D01*
X0059558Y0052865D02*
X0058466Y0052865D01*
X0058466Y0052875D02*
X0059558Y0052875D01*
X0059558Y0052885D02*
X0058466Y0052885D01*
X0058466Y0052895D02*
X0059558Y0052895D01*
X0059558Y0052905D02*
X0058466Y0052905D01*
X0058466Y0052915D02*
X0059558Y0052915D01*
X0059558Y0052925D02*
X0058466Y0052925D01*
X0058466Y0052935D02*
X0059558Y0052935D01*
X0059558Y0052945D02*
X0058466Y0052945D01*
X0058466Y0052955D02*
X0059558Y0052955D01*
X0059558Y0052965D02*
X0058466Y0052965D01*
X0058466Y0052975D02*
X0059558Y0052975D01*
X0059558Y0052985D02*
X0058466Y0052985D01*
X0058466Y0052995D02*
X0059558Y0052995D01*
X0059558Y0053005D02*
X0058466Y0053005D01*
X0058466Y0053015D02*
X0059558Y0053015D01*
X0059558Y0053025D02*
X0058466Y0053025D01*
X0058466Y0053035D02*
X0059558Y0053035D01*
X0059558Y0053045D02*
X0058466Y0053045D01*
X0058466Y0053055D02*
X0059558Y0053055D01*
X0059558Y0053065D02*
X0058466Y0053065D01*
X0058466Y0053075D02*
X0059558Y0053075D01*
X0059558Y0053085D02*
X0058466Y0053085D01*
X0058466Y0053095D02*
X0059558Y0053095D01*
X0059558Y0053105D02*
X0058466Y0053105D01*
X0058466Y0053115D02*
X0059558Y0053115D01*
X0059558Y0053125D02*
X0058466Y0053125D01*
X0058466Y0053135D02*
X0059558Y0053135D01*
X0059558Y0053145D02*
X0058466Y0053145D01*
X0058466Y0053155D02*
X0059558Y0053155D01*
X0059558Y0053165D02*
X0058466Y0053165D01*
X0058466Y0053175D02*
X0059558Y0053175D01*
X0059558Y0053185D02*
X0058466Y0053185D01*
X0058466Y0053195D02*
X0059558Y0053195D01*
X0059558Y0053205D02*
X0058466Y0053205D01*
X0058466Y0053215D02*
X0059558Y0053215D01*
X0059558Y0053225D02*
X0058466Y0053225D01*
X0058466Y0053235D02*
X0059558Y0053235D01*
X0059558Y0053245D02*
X0058466Y0053245D01*
X0058466Y0053255D02*
X0059558Y0053255D01*
X0059558Y0053265D02*
X0058466Y0053265D01*
X0058466Y0053275D02*
X0059558Y0053275D01*
X0059558Y0053285D02*
X0058466Y0053285D01*
X0058466Y0053295D02*
X0059558Y0053295D01*
X0059558Y0053305D02*
X0058466Y0053305D01*
X0058466Y0053315D02*
X0059558Y0053315D01*
X0059558Y0053325D02*
X0058466Y0053325D01*
X0058466Y0053335D02*
X0059558Y0053335D01*
X0059558Y0053345D02*
X0058466Y0053345D01*
X0058466Y0053355D02*
X0059558Y0053355D01*
X0059558Y0053365D02*
X0058466Y0053365D01*
X0058466Y0053375D02*
X0059558Y0053375D01*
X0059558Y0053385D02*
X0058466Y0053385D01*
X0058466Y0053395D02*
X0059558Y0053395D01*
X0059558Y0053405D02*
X0058466Y0053405D01*
X0058466Y0053415D02*
X0059558Y0053415D01*
X0059558Y0053425D02*
X0058466Y0053425D01*
X0058466Y0053435D02*
X0059558Y0053435D01*
X0059558Y0053445D02*
X0058466Y0053445D01*
X0058466Y0053455D02*
X0059558Y0053455D01*
X0059558Y0053465D02*
X0058466Y0053465D01*
X0058466Y0053475D02*
X0059558Y0053475D01*
X0059558Y0053485D02*
X0058466Y0053485D01*
X0058466Y0053495D02*
X0059558Y0053495D01*
X0059558Y0053505D02*
X0058466Y0053505D01*
X0058466Y0053515D02*
X0059558Y0053515D01*
X0059558Y0053525D02*
X0058466Y0053525D01*
X0058466Y0053535D02*
X0059558Y0053535D01*
X0059558Y0053545D02*
X0058466Y0053545D01*
X0058466Y0053555D02*
X0059558Y0053555D01*
X0059558Y0053565D02*
X0058466Y0053565D01*
X0058466Y0053575D02*
X0059558Y0053575D01*
X0059558Y0053585D02*
X0058466Y0053585D01*
X0058466Y0053595D02*
X0059558Y0053595D01*
X0059558Y0053605D02*
X0058466Y0053605D01*
X0058466Y0053615D02*
X0059558Y0053615D01*
X0059558Y0053625D02*
X0058466Y0053625D01*
X0058466Y0053635D02*
X0059558Y0053635D01*
X0059558Y0053645D02*
X0058466Y0053645D01*
X0058466Y0053655D02*
X0059558Y0053655D01*
X0059558Y0053665D02*
X0058466Y0053665D01*
X0058466Y0053675D02*
X0059558Y0053675D01*
X0059558Y0053685D02*
X0058466Y0053685D01*
X0058466Y0053695D02*
X0059558Y0053695D01*
X0059558Y0053705D02*
X0058466Y0053705D01*
X0058466Y0053715D02*
X0059558Y0053715D01*
X0059558Y0053725D02*
X0058466Y0053725D01*
X0058466Y0053735D02*
X0059558Y0053735D01*
X0059558Y0053745D02*
X0058466Y0053745D01*
X0058466Y0053755D02*
X0059558Y0053755D01*
X0059558Y0053765D02*
X0058466Y0053765D01*
X0058466Y0053775D02*
X0059558Y0053775D01*
X0059558Y0053785D02*
X0058466Y0053785D01*
X0058466Y0053795D02*
X0059558Y0053795D01*
X0059558Y0053805D02*
X0058466Y0053805D01*
X0058466Y0053815D02*
X0059558Y0053815D01*
X0059558Y0053825D02*
X0058466Y0053825D01*
X0058466Y0053835D02*
X0059558Y0053835D01*
X0059558Y0053845D02*
X0058466Y0053845D01*
X0058466Y0053855D02*
X0059558Y0053855D01*
X0059558Y0053865D02*
X0058466Y0053865D01*
X0058466Y0053875D02*
X0059558Y0053875D01*
X0059558Y0053885D02*
X0058466Y0053885D01*
X0058466Y0053895D02*
X0059558Y0053895D01*
X0059558Y0053905D02*
X0058466Y0053905D01*
X0058466Y0053915D02*
X0059558Y0053915D01*
X0059558Y0053925D02*
X0058466Y0053925D01*
X0058466Y0053935D02*
X0059558Y0053935D01*
X0059558Y0053945D02*
X0058466Y0053945D01*
X0058466Y0053955D02*
X0059558Y0053955D01*
X0059558Y0053965D02*
X0058466Y0053965D01*
X0058466Y0053975D02*
X0059558Y0053975D01*
X0059558Y0053985D02*
X0058466Y0053985D01*
X0058466Y0053995D02*
X0059558Y0053995D01*
X0059558Y0054005D02*
X0058466Y0054005D01*
X0058466Y0054015D02*
X0059558Y0054015D01*
X0059558Y0054025D02*
X0058466Y0054025D01*
X0058466Y0054035D02*
X0059558Y0054035D01*
X0059558Y0054045D02*
X0058466Y0054045D01*
X0058466Y0054055D02*
X0059558Y0054055D01*
X0059558Y0054065D02*
X0058466Y0054065D01*
X0058466Y0054075D02*
X0059558Y0054075D01*
X0059558Y0054085D02*
X0058466Y0054085D01*
X0058466Y0054095D02*
X0059558Y0054095D01*
X0059558Y0054105D02*
X0058466Y0054105D01*
X0058466Y0054115D02*
X0059558Y0054115D01*
X0059558Y0054125D02*
X0058466Y0054125D01*
X0058466Y0054135D02*
X0059558Y0054135D01*
X0059558Y0054145D02*
X0058466Y0054145D01*
X0058466Y0054155D02*
X0059558Y0054155D01*
X0059558Y0054165D02*
X0058466Y0054165D01*
X0058466Y0054175D02*
X0059558Y0054175D01*
X0059558Y0054185D02*
X0058466Y0054185D01*
X0058466Y0054195D02*
X0059558Y0054195D01*
X0059558Y0054205D02*
X0058466Y0054205D01*
X0058466Y0054215D02*
X0059558Y0054215D01*
X0059558Y0054225D02*
X0058466Y0054225D01*
X0058466Y0054235D02*
X0059558Y0054235D01*
X0059558Y0054245D02*
X0058466Y0054245D01*
X0058466Y0054255D02*
X0059558Y0054255D01*
X0059558Y0054265D02*
X0058466Y0054265D01*
X0058466Y0054275D02*
X0059558Y0054275D01*
X0059558Y0054285D02*
X0058466Y0054285D01*
X0058466Y0054295D02*
X0059558Y0054295D01*
X0059558Y0054305D02*
X0058466Y0054305D01*
X0058466Y0054315D02*
X0059558Y0054315D01*
X0059558Y0054325D02*
X0058466Y0054325D01*
X0058466Y0054335D02*
X0059558Y0054335D01*
X0059558Y0054345D02*
X0058466Y0054345D01*
X0058466Y0054355D02*
X0059558Y0054355D01*
X0059558Y0054365D02*
X0058466Y0054365D01*
X0058466Y0054375D02*
X0059558Y0054375D01*
X0059558Y0054385D02*
X0058466Y0054385D01*
X0058466Y0054395D02*
X0059558Y0054395D01*
X0059558Y0054405D02*
X0058466Y0054405D01*
X0058466Y0054415D02*
X0059558Y0054415D01*
X0059558Y0054425D02*
X0058466Y0054425D01*
X0058466Y0054435D02*
X0059558Y0054435D01*
X0059558Y0054445D02*
X0058466Y0054445D01*
X0058466Y0054455D02*
X0059558Y0054455D01*
X0059558Y0054465D02*
X0058466Y0054465D01*
X0058466Y0054475D02*
X0059558Y0054475D01*
X0059558Y0054485D02*
X0058466Y0054485D01*
X0058466Y0054495D02*
X0059558Y0054495D01*
X0059558Y0054505D02*
X0058466Y0054505D01*
X0058466Y0054515D02*
X0059558Y0054515D01*
X0059558Y0054525D02*
X0058466Y0054525D01*
X0058466Y0054535D02*
X0059558Y0054535D01*
X0059558Y0054545D02*
X0058466Y0054545D01*
X0058466Y0054555D02*
X0059558Y0054555D01*
X0059558Y0054565D02*
X0058466Y0054565D01*
X0058466Y0054575D02*
X0059558Y0054575D01*
X0059558Y0054585D02*
X0058466Y0054585D01*
X0058466Y0054595D02*
X0059558Y0054595D01*
X0059558Y0054605D02*
X0058466Y0054605D01*
X0058466Y0054615D02*
X0059558Y0054615D01*
X0059558Y0054625D02*
X0058466Y0054625D01*
X0058466Y0054635D02*
X0059558Y0054635D01*
X0059558Y0054645D02*
X0058466Y0054645D01*
X0058466Y0054655D02*
X0059558Y0054655D01*
X0059558Y0054665D02*
X0058466Y0054665D01*
X0058466Y0054675D02*
X0059558Y0054675D01*
X0059558Y0054685D02*
X0058466Y0054685D01*
X0058466Y0054695D02*
X0059558Y0054695D01*
X0059558Y0054705D02*
X0058466Y0054705D01*
X0058466Y0054715D02*
X0059558Y0054715D01*
X0059558Y0054725D02*
X0058466Y0054725D01*
X0058466Y0054735D02*
X0059558Y0054735D01*
X0059558Y0054745D02*
X0058466Y0054745D01*
X0058466Y0054755D02*
X0059558Y0054755D01*
X0059558Y0054765D02*
X0058466Y0054765D01*
X0058466Y0054775D02*
X0059558Y0054775D01*
X0059558Y0054785D02*
X0058466Y0054785D01*
X0058466Y0054795D02*
X0059558Y0054795D01*
X0059558Y0054805D02*
X0058466Y0054805D01*
X0058466Y0054815D02*
X0059558Y0054815D01*
X0059558Y0054825D02*
X0058466Y0054825D01*
X0058466Y0054835D02*
X0059558Y0054835D01*
X0059558Y0054845D02*
X0058466Y0054845D01*
X0058466Y0054855D02*
X0059558Y0054855D01*
X0059558Y0054865D02*
X0058466Y0054865D01*
X0058466Y0054875D02*
X0059558Y0054875D01*
X0059558Y0054885D02*
X0058466Y0054885D01*
X0058466Y0054895D02*
X0059558Y0054895D01*
X0059558Y0054905D02*
X0058466Y0054905D01*
X0058466Y0054915D02*
X0059558Y0054915D01*
X0059558Y0054925D02*
X0058466Y0054925D01*
X0058466Y0054935D02*
X0059558Y0054935D01*
X0059558Y0054945D02*
X0058466Y0054945D01*
X0058466Y0054955D02*
X0059558Y0054955D01*
X0059558Y0054965D02*
X0058466Y0054965D01*
X0058466Y0054975D02*
X0059558Y0054975D01*
X0059558Y0054985D02*
X0058466Y0054985D01*
X0058466Y0054995D02*
X0059558Y0054995D01*
X0059558Y0055005D02*
X0058466Y0055005D01*
X0058466Y0055015D02*
X0059558Y0055015D01*
X0059558Y0055025D02*
X0058466Y0055025D01*
X0058466Y0055035D02*
X0059558Y0055035D01*
X0059558Y0055045D02*
X0058466Y0055045D01*
X0058466Y0055055D02*
X0059558Y0055055D01*
X0059558Y0055065D02*
X0058466Y0055065D01*
X0058466Y0055075D02*
X0059558Y0055075D01*
X0059558Y0055085D02*
X0058466Y0055085D01*
X0058466Y0055095D02*
X0059558Y0055095D01*
X0059558Y0055105D02*
X0058466Y0055105D01*
X0058466Y0055115D02*
X0059558Y0055115D01*
X0059558Y0055125D02*
X0058466Y0055125D01*
X0058466Y0055135D02*
X0059558Y0055135D01*
X0059558Y0055145D02*
X0058466Y0055145D01*
X0058466Y0055155D02*
X0059558Y0055155D01*
X0059558Y0055165D02*
X0058466Y0055165D01*
X0058466Y0055175D02*
X0059558Y0055175D01*
X0059558Y0055185D02*
X0058466Y0055185D01*
X0058466Y0055195D02*
X0059558Y0055195D01*
X0059558Y0055205D02*
X0058466Y0055205D01*
X0058466Y0055215D02*
X0059558Y0055215D01*
X0059558Y0055225D02*
X0058466Y0055225D01*
X0058466Y0055235D02*
X0059558Y0055235D01*
X0059558Y0055245D02*
X0058466Y0055245D01*
X0058466Y0055255D02*
X0059558Y0055255D01*
X0059558Y0055265D02*
X0058466Y0055265D01*
X0058466Y0055275D02*
X0059558Y0055275D01*
X0059558Y0055285D02*
X0058466Y0055285D01*
X0058466Y0055295D02*
X0059558Y0055295D01*
X0059558Y0055305D02*
X0058466Y0055305D01*
X0058466Y0055315D02*
X0059558Y0055315D01*
X0059558Y0055325D02*
X0058466Y0055325D01*
X0058466Y0055335D02*
X0059558Y0055335D01*
X0059558Y0055345D02*
X0058466Y0055345D01*
X0058466Y0055355D02*
X0059558Y0055355D01*
X0059558Y0055365D02*
X0058466Y0055365D01*
X0058466Y0055375D02*
X0059558Y0055375D01*
X0059558Y0055385D02*
X0058466Y0055385D01*
X0058466Y0055395D02*
X0059558Y0055395D01*
X0059558Y0055405D02*
X0058466Y0055405D01*
X0058466Y0055415D02*
X0059558Y0055415D01*
X0059558Y0055425D02*
X0058466Y0055425D01*
X0058466Y0055435D02*
X0059558Y0055435D01*
X0059558Y0055445D02*
X0058466Y0055445D01*
X0058466Y0055455D02*
X0059558Y0055455D01*
X0059558Y0055465D02*
X0058466Y0055465D01*
X0058466Y0055475D02*
X0059558Y0055475D01*
X0059558Y0055485D02*
X0058466Y0055485D01*
X0058466Y0055495D02*
X0059558Y0055495D01*
X0059558Y0055505D02*
X0058466Y0055505D01*
X0058466Y0055515D02*
X0059558Y0055515D01*
X0059558Y0055525D02*
X0058466Y0055525D01*
X0058466Y0055535D02*
X0059558Y0055535D01*
X0059558Y0055545D02*
X0058466Y0055545D01*
X0058466Y0055555D02*
X0059558Y0055555D01*
X0059558Y0055565D02*
X0058466Y0055565D01*
X0058466Y0055575D02*
X0059558Y0055575D01*
X0059558Y0055585D02*
X0058466Y0055585D01*
X0058466Y0055595D02*
X0059558Y0055595D01*
X0059558Y0055605D02*
X0058466Y0055605D01*
X0058466Y0055615D02*
X0059558Y0055615D01*
X0059558Y0055625D02*
X0058466Y0055625D01*
X0058466Y0055635D02*
X0059558Y0055635D01*
X0059558Y0055645D02*
X0058466Y0055645D01*
X0058466Y0055655D02*
X0059558Y0055655D01*
X0059558Y0055665D02*
X0058466Y0055665D01*
X0058466Y0055675D02*
X0059558Y0055675D01*
X0059558Y0055685D02*
X0058466Y0055685D01*
X0058466Y0055695D02*
X0059558Y0055695D01*
X0059558Y0055705D02*
X0058466Y0055705D01*
X0058466Y0055715D02*
X0059558Y0055715D01*
X0059558Y0055725D02*
X0058466Y0055725D01*
X0058466Y0055735D02*
X0059558Y0055735D01*
X0059558Y0055745D02*
X0058466Y0055745D01*
X0058466Y0055755D02*
X0059558Y0055755D01*
X0059558Y0055765D02*
X0058466Y0055765D01*
X0058466Y0055775D02*
X0059558Y0055775D01*
X0059558Y0055785D02*
X0058466Y0055785D01*
X0058466Y0055795D02*
X0059558Y0055795D01*
X0059558Y0055805D02*
X0058466Y0055805D01*
X0058466Y0055815D02*
X0059558Y0055815D01*
X0059558Y0055825D02*
X0058466Y0055825D01*
X0058466Y0055835D02*
X0059558Y0055835D01*
X0059558Y0055845D02*
X0058466Y0055845D01*
X0058466Y0055855D02*
X0059558Y0055855D01*
X0059558Y0055865D02*
X0058466Y0055865D01*
X0058466Y0055875D02*
X0059558Y0055875D01*
X0059558Y0055885D02*
X0058466Y0055885D01*
X0058466Y0055895D02*
X0059558Y0055895D01*
X0059558Y0055905D02*
X0058466Y0055905D01*
X0058466Y0055915D02*
X0059558Y0055915D01*
X0059558Y0055925D02*
X0058466Y0055925D01*
X0057590Y0055933D02*
X0057590Y0052695D01*
X0056498Y0052695D01*
X0056498Y0055933D01*
X0057590Y0055933D01*
X0057590Y0052705D02*
X0056498Y0052705D01*
X0056498Y0052715D02*
X0057590Y0052715D01*
X0057590Y0052725D02*
X0056498Y0052725D01*
X0056498Y0052735D02*
X0057590Y0052735D01*
X0057590Y0052745D02*
X0056498Y0052745D01*
X0056498Y0052755D02*
X0057590Y0052755D01*
X0057590Y0052765D02*
X0056498Y0052765D01*
X0056498Y0052775D02*
X0057590Y0052775D01*
X0057590Y0052785D02*
X0056498Y0052785D01*
X0056498Y0052795D02*
X0057590Y0052795D01*
X0057590Y0052805D02*
X0056498Y0052805D01*
X0056498Y0052815D02*
X0057590Y0052815D01*
X0057590Y0052825D02*
X0056498Y0052825D01*
X0056498Y0052835D02*
X0057590Y0052835D01*
X0057590Y0052845D02*
X0056498Y0052845D01*
X0056498Y0052855D02*
X0057590Y0052855D01*
X0057590Y0052865D02*
X0056498Y0052865D01*
X0056498Y0052875D02*
X0057590Y0052875D01*
X0057590Y0052885D02*
X0056498Y0052885D01*
X0056498Y0052895D02*
X0057590Y0052895D01*
X0057590Y0052905D02*
X0056498Y0052905D01*
X0056498Y0052915D02*
X0057590Y0052915D01*
X0057590Y0052925D02*
X0056498Y0052925D01*
X0056498Y0052935D02*
X0057590Y0052935D01*
X0057590Y0052945D02*
X0056498Y0052945D01*
X0056498Y0052955D02*
X0057590Y0052955D01*
X0057590Y0052965D02*
X0056498Y0052965D01*
X0056498Y0052975D02*
X0057590Y0052975D01*
X0057590Y0052985D02*
X0056498Y0052985D01*
X0056498Y0052995D02*
X0057590Y0052995D01*
X0057590Y0053005D02*
X0056498Y0053005D01*
X0056498Y0053015D02*
X0057590Y0053015D01*
X0057590Y0053025D02*
X0056498Y0053025D01*
X0056498Y0053035D02*
X0057590Y0053035D01*
X0057590Y0053045D02*
X0056498Y0053045D01*
X0056498Y0053055D02*
X0057590Y0053055D01*
X0057590Y0053065D02*
X0056498Y0053065D01*
X0056498Y0053075D02*
X0057590Y0053075D01*
X0057590Y0053085D02*
X0056498Y0053085D01*
X0056498Y0053095D02*
X0057590Y0053095D01*
X0057590Y0053105D02*
X0056498Y0053105D01*
X0056498Y0053115D02*
X0057590Y0053115D01*
X0057590Y0053125D02*
X0056498Y0053125D01*
X0056498Y0053135D02*
X0057590Y0053135D01*
X0057590Y0053145D02*
X0056498Y0053145D01*
X0056498Y0053155D02*
X0057590Y0053155D01*
X0057590Y0053165D02*
X0056498Y0053165D01*
X0056498Y0053175D02*
X0057590Y0053175D01*
X0057590Y0053185D02*
X0056498Y0053185D01*
X0056498Y0053195D02*
X0057590Y0053195D01*
X0057590Y0053205D02*
X0056498Y0053205D01*
X0056498Y0053215D02*
X0057590Y0053215D01*
X0057590Y0053225D02*
X0056498Y0053225D01*
X0056498Y0053235D02*
X0057590Y0053235D01*
X0057590Y0053245D02*
X0056498Y0053245D01*
X0056498Y0053255D02*
X0057590Y0053255D01*
X0057590Y0053265D02*
X0056498Y0053265D01*
X0056498Y0053275D02*
X0057590Y0053275D01*
X0057590Y0053285D02*
X0056498Y0053285D01*
X0056498Y0053295D02*
X0057590Y0053295D01*
X0057590Y0053305D02*
X0056498Y0053305D01*
X0056498Y0053315D02*
X0057590Y0053315D01*
X0057590Y0053325D02*
X0056498Y0053325D01*
X0056498Y0053335D02*
X0057590Y0053335D01*
X0057590Y0053345D02*
X0056498Y0053345D01*
X0056498Y0053355D02*
X0057590Y0053355D01*
X0057590Y0053365D02*
X0056498Y0053365D01*
X0056498Y0053375D02*
X0057590Y0053375D01*
X0057590Y0053385D02*
X0056498Y0053385D01*
X0056498Y0053395D02*
X0057590Y0053395D01*
X0057590Y0053405D02*
X0056498Y0053405D01*
X0056498Y0053415D02*
X0057590Y0053415D01*
X0057590Y0053425D02*
X0056498Y0053425D01*
X0056498Y0053435D02*
X0057590Y0053435D01*
X0057590Y0053445D02*
X0056498Y0053445D01*
X0056498Y0053455D02*
X0057590Y0053455D01*
X0057590Y0053465D02*
X0056498Y0053465D01*
X0056498Y0053475D02*
X0057590Y0053475D01*
X0057590Y0053485D02*
X0056498Y0053485D01*
X0056498Y0053495D02*
X0057590Y0053495D01*
X0057590Y0053505D02*
X0056498Y0053505D01*
X0056498Y0053515D02*
X0057590Y0053515D01*
X0057590Y0053525D02*
X0056498Y0053525D01*
X0056498Y0053535D02*
X0057590Y0053535D01*
X0057590Y0053545D02*
X0056498Y0053545D01*
X0056498Y0053555D02*
X0057590Y0053555D01*
X0057590Y0053565D02*
X0056498Y0053565D01*
X0056498Y0053575D02*
X0057590Y0053575D01*
X0057590Y0053585D02*
X0056498Y0053585D01*
X0056498Y0053595D02*
X0057590Y0053595D01*
X0057590Y0053605D02*
X0056498Y0053605D01*
X0056498Y0053615D02*
X0057590Y0053615D01*
X0057590Y0053625D02*
X0056498Y0053625D01*
X0056498Y0053635D02*
X0057590Y0053635D01*
X0057590Y0053645D02*
X0056498Y0053645D01*
X0056498Y0053655D02*
X0057590Y0053655D01*
X0057590Y0053665D02*
X0056498Y0053665D01*
X0056498Y0053675D02*
X0057590Y0053675D01*
X0057590Y0053685D02*
X0056498Y0053685D01*
X0056498Y0053695D02*
X0057590Y0053695D01*
X0057590Y0053705D02*
X0056498Y0053705D01*
X0056498Y0053715D02*
X0057590Y0053715D01*
X0057590Y0053725D02*
X0056498Y0053725D01*
X0056498Y0053735D02*
X0057590Y0053735D01*
X0057590Y0053745D02*
X0056498Y0053745D01*
X0056498Y0053755D02*
X0057590Y0053755D01*
X0057590Y0053765D02*
X0056498Y0053765D01*
X0056498Y0053775D02*
X0057590Y0053775D01*
X0057590Y0053785D02*
X0056498Y0053785D01*
X0056498Y0053795D02*
X0057590Y0053795D01*
X0057590Y0053805D02*
X0056498Y0053805D01*
X0056498Y0053815D02*
X0057590Y0053815D01*
X0057590Y0053825D02*
X0056498Y0053825D01*
X0056498Y0053835D02*
X0057590Y0053835D01*
X0057590Y0053845D02*
X0056498Y0053845D01*
X0056498Y0053855D02*
X0057590Y0053855D01*
X0057590Y0053865D02*
X0056498Y0053865D01*
X0056498Y0053875D02*
X0057590Y0053875D01*
X0057590Y0053885D02*
X0056498Y0053885D01*
X0056498Y0053895D02*
X0057590Y0053895D01*
X0057590Y0053905D02*
X0056498Y0053905D01*
X0056498Y0053915D02*
X0057590Y0053915D01*
X0057590Y0053925D02*
X0056498Y0053925D01*
X0056498Y0053935D02*
X0057590Y0053935D01*
X0057590Y0053945D02*
X0056498Y0053945D01*
X0056498Y0053955D02*
X0057590Y0053955D01*
X0057590Y0053965D02*
X0056498Y0053965D01*
X0056498Y0053975D02*
X0057590Y0053975D01*
X0057590Y0053985D02*
X0056498Y0053985D01*
X0056498Y0053995D02*
X0057590Y0053995D01*
X0057590Y0054005D02*
X0056498Y0054005D01*
X0056498Y0054015D02*
X0057590Y0054015D01*
X0057590Y0054025D02*
X0056498Y0054025D01*
X0056498Y0054035D02*
X0057590Y0054035D01*
X0057590Y0054045D02*
X0056498Y0054045D01*
X0056498Y0054055D02*
X0057590Y0054055D01*
X0057590Y0054065D02*
X0056498Y0054065D01*
X0056498Y0054075D02*
X0057590Y0054075D01*
X0057590Y0054085D02*
X0056498Y0054085D01*
X0056498Y0054095D02*
X0057590Y0054095D01*
X0057590Y0054105D02*
X0056498Y0054105D01*
X0056498Y0054115D02*
X0057590Y0054115D01*
X0057590Y0054125D02*
X0056498Y0054125D01*
X0056498Y0054135D02*
X0057590Y0054135D01*
X0057590Y0054145D02*
X0056498Y0054145D01*
X0056498Y0054155D02*
X0057590Y0054155D01*
X0057590Y0054165D02*
X0056498Y0054165D01*
X0056498Y0054175D02*
X0057590Y0054175D01*
X0057590Y0054185D02*
X0056498Y0054185D01*
X0056498Y0054195D02*
X0057590Y0054195D01*
X0057590Y0054205D02*
X0056498Y0054205D01*
X0056498Y0054215D02*
X0057590Y0054215D01*
X0057590Y0054225D02*
X0056498Y0054225D01*
X0056498Y0054235D02*
X0057590Y0054235D01*
X0057590Y0054245D02*
X0056498Y0054245D01*
X0056498Y0054255D02*
X0057590Y0054255D01*
X0057590Y0054265D02*
X0056498Y0054265D01*
X0056498Y0054275D02*
X0057590Y0054275D01*
X0057590Y0054285D02*
X0056498Y0054285D01*
X0056498Y0054295D02*
X0057590Y0054295D01*
X0057590Y0054305D02*
X0056498Y0054305D01*
X0056498Y0054315D02*
X0057590Y0054315D01*
X0057590Y0054325D02*
X0056498Y0054325D01*
X0056498Y0054335D02*
X0057590Y0054335D01*
X0057590Y0054345D02*
X0056498Y0054345D01*
X0056498Y0054355D02*
X0057590Y0054355D01*
X0057590Y0054365D02*
X0056498Y0054365D01*
X0056498Y0054375D02*
X0057590Y0054375D01*
X0057590Y0054385D02*
X0056498Y0054385D01*
X0056498Y0054395D02*
X0057590Y0054395D01*
X0057590Y0054405D02*
X0056498Y0054405D01*
X0056498Y0054415D02*
X0057590Y0054415D01*
X0057590Y0054425D02*
X0056498Y0054425D01*
X0056498Y0054435D02*
X0057590Y0054435D01*
X0057590Y0054445D02*
X0056498Y0054445D01*
X0056498Y0054455D02*
X0057590Y0054455D01*
X0057590Y0054465D02*
X0056498Y0054465D01*
X0056498Y0054475D02*
X0057590Y0054475D01*
X0057590Y0054485D02*
X0056498Y0054485D01*
X0056498Y0054495D02*
X0057590Y0054495D01*
X0057590Y0054505D02*
X0056498Y0054505D01*
X0056498Y0054515D02*
X0057590Y0054515D01*
X0057590Y0054525D02*
X0056498Y0054525D01*
X0056498Y0054535D02*
X0057590Y0054535D01*
X0057590Y0054545D02*
X0056498Y0054545D01*
X0056498Y0054555D02*
X0057590Y0054555D01*
X0057590Y0054565D02*
X0056498Y0054565D01*
X0056498Y0054575D02*
X0057590Y0054575D01*
X0057590Y0054585D02*
X0056498Y0054585D01*
X0056498Y0054595D02*
X0057590Y0054595D01*
X0057590Y0054605D02*
X0056498Y0054605D01*
X0056498Y0054615D02*
X0057590Y0054615D01*
X0057590Y0054625D02*
X0056498Y0054625D01*
X0056498Y0054635D02*
X0057590Y0054635D01*
X0057590Y0054645D02*
X0056498Y0054645D01*
X0056498Y0054655D02*
X0057590Y0054655D01*
X0057590Y0054665D02*
X0056498Y0054665D01*
X0056498Y0054675D02*
X0057590Y0054675D01*
X0057590Y0054685D02*
X0056498Y0054685D01*
X0056498Y0054695D02*
X0057590Y0054695D01*
X0057590Y0054705D02*
X0056498Y0054705D01*
X0056498Y0054715D02*
X0057590Y0054715D01*
X0057590Y0054725D02*
X0056498Y0054725D01*
X0056498Y0054735D02*
X0057590Y0054735D01*
X0057590Y0054745D02*
X0056498Y0054745D01*
X0056498Y0054755D02*
X0057590Y0054755D01*
X0057590Y0054765D02*
X0056498Y0054765D01*
X0056498Y0054775D02*
X0057590Y0054775D01*
X0057590Y0054785D02*
X0056498Y0054785D01*
X0056498Y0054795D02*
X0057590Y0054795D01*
X0057590Y0054805D02*
X0056498Y0054805D01*
X0056498Y0054815D02*
X0057590Y0054815D01*
X0057590Y0054825D02*
X0056498Y0054825D01*
X0056498Y0054835D02*
X0057590Y0054835D01*
X0057590Y0054845D02*
X0056498Y0054845D01*
X0056498Y0054855D02*
X0057590Y0054855D01*
X0057590Y0054865D02*
X0056498Y0054865D01*
X0056498Y0054875D02*
X0057590Y0054875D01*
X0057590Y0054885D02*
X0056498Y0054885D01*
X0056498Y0054895D02*
X0057590Y0054895D01*
X0057590Y0054905D02*
X0056498Y0054905D01*
X0056498Y0054915D02*
X0057590Y0054915D01*
X0057590Y0054925D02*
X0056498Y0054925D01*
X0056498Y0054935D02*
X0057590Y0054935D01*
X0057590Y0054945D02*
X0056498Y0054945D01*
X0056498Y0054955D02*
X0057590Y0054955D01*
X0057590Y0054965D02*
X0056498Y0054965D01*
X0056498Y0054975D02*
X0057590Y0054975D01*
X0057590Y0054985D02*
X0056498Y0054985D01*
X0056498Y0054995D02*
X0057590Y0054995D01*
X0057590Y0055005D02*
X0056498Y0055005D01*
X0056498Y0055015D02*
X0057590Y0055015D01*
X0057590Y0055025D02*
X0056498Y0055025D01*
X0056498Y0055035D02*
X0057590Y0055035D01*
X0057590Y0055045D02*
X0056498Y0055045D01*
X0056498Y0055055D02*
X0057590Y0055055D01*
X0057590Y0055065D02*
X0056498Y0055065D01*
X0056498Y0055075D02*
X0057590Y0055075D01*
X0057590Y0055085D02*
X0056498Y0055085D01*
X0056498Y0055095D02*
X0057590Y0055095D01*
X0057590Y0055105D02*
X0056498Y0055105D01*
X0056498Y0055115D02*
X0057590Y0055115D01*
X0057590Y0055125D02*
X0056498Y0055125D01*
X0056498Y0055135D02*
X0057590Y0055135D01*
X0057590Y0055145D02*
X0056498Y0055145D01*
X0056498Y0055155D02*
X0057590Y0055155D01*
X0057590Y0055165D02*
X0056498Y0055165D01*
X0056498Y0055175D02*
X0057590Y0055175D01*
X0057590Y0055185D02*
X0056498Y0055185D01*
X0056498Y0055195D02*
X0057590Y0055195D01*
X0057590Y0055205D02*
X0056498Y0055205D01*
X0056498Y0055215D02*
X0057590Y0055215D01*
X0057590Y0055225D02*
X0056498Y0055225D01*
X0056498Y0055235D02*
X0057590Y0055235D01*
X0057590Y0055245D02*
X0056498Y0055245D01*
X0056498Y0055255D02*
X0057590Y0055255D01*
X0057590Y0055265D02*
X0056498Y0055265D01*
X0056498Y0055275D02*
X0057590Y0055275D01*
X0057590Y0055285D02*
X0056498Y0055285D01*
X0056498Y0055295D02*
X0057590Y0055295D01*
X0057590Y0055305D02*
X0056498Y0055305D01*
X0056498Y0055315D02*
X0057590Y0055315D01*
X0057590Y0055325D02*
X0056498Y0055325D01*
X0056498Y0055335D02*
X0057590Y0055335D01*
X0057590Y0055345D02*
X0056498Y0055345D01*
X0056498Y0055355D02*
X0057590Y0055355D01*
X0057590Y0055365D02*
X0056498Y0055365D01*
X0056498Y0055375D02*
X0057590Y0055375D01*
X0057590Y0055385D02*
X0056498Y0055385D01*
X0056498Y0055395D02*
X0057590Y0055395D01*
X0057590Y0055405D02*
X0056498Y0055405D01*
X0056498Y0055415D02*
X0057590Y0055415D01*
X0057590Y0055425D02*
X0056498Y0055425D01*
X0056498Y0055435D02*
X0057590Y0055435D01*
X0057590Y0055445D02*
X0056498Y0055445D01*
X0056498Y0055455D02*
X0057590Y0055455D01*
X0057590Y0055465D02*
X0056498Y0055465D01*
X0056498Y0055475D02*
X0057590Y0055475D01*
X0057590Y0055485D02*
X0056498Y0055485D01*
X0056498Y0055495D02*
X0057590Y0055495D01*
X0057590Y0055505D02*
X0056498Y0055505D01*
X0056498Y0055515D02*
X0057590Y0055515D01*
X0057590Y0055525D02*
X0056498Y0055525D01*
X0056498Y0055535D02*
X0057590Y0055535D01*
X0057590Y0055545D02*
X0056498Y0055545D01*
X0056498Y0055555D02*
X0057590Y0055555D01*
X0057590Y0055565D02*
X0056498Y0055565D01*
X0056498Y0055575D02*
X0057590Y0055575D01*
X0057590Y0055585D02*
X0056498Y0055585D01*
X0056498Y0055595D02*
X0057590Y0055595D01*
X0057590Y0055605D02*
X0056498Y0055605D01*
X0056498Y0055615D02*
X0057590Y0055615D01*
X0057590Y0055625D02*
X0056498Y0055625D01*
X0056498Y0055635D02*
X0057590Y0055635D01*
X0057590Y0055645D02*
X0056498Y0055645D01*
X0056498Y0055655D02*
X0057590Y0055655D01*
X0057590Y0055665D02*
X0056498Y0055665D01*
X0056498Y0055675D02*
X0057590Y0055675D01*
X0057590Y0055685D02*
X0056498Y0055685D01*
X0056498Y0055695D02*
X0057590Y0055695D01*
X0057590Y0055705D02*
X0056498Y0055705D01*
X0056498Y0055715D02*
X0057590Y0055715D01*
X0057590Y0055725D02*
X0056498Y0055725D01*
X0056498Y0055735D02*
X0057590Y0055735D01*
X0057590Y0055745D02*
X0056498Y0055745D01*
X0056498Y0055755D02*
X0057590Y0055755D01*
X0057590Y0055765D02*
X0056498Y0055765D01*
X0056498Y0055775D02*
X0057590Y0055775D01*
X0057590Y0055785D02*
X0056498Y0055785D01*
X0056498Y0055795D02*
X0057590Y0055795D01*
X0057590Y0055805D02*
X0056498Y0055805D01*
X0056498Y0055815D02*
X0057590Y0055815D01*
X0057590Y0055825D02*
X0056498Y0055825D01*
X0056498Y0055835D02*
X0057590Y0055835D01*
X0057590Y0055845D02*
X0056498Y0055845D01*
X0056498Y0055855D02*
X0057590Y0055855D01*
X0057590Y0055865D02*
X0056498Y0055865D01*
X0056498Y0055875D02*
X0057590Y0055875D01*
X0057590Y0055885D02*
X0056498Y0055885D01*
X0056498Y0055895D02*
X0057590Y0055895D01*
X0057590Y0055905D02*
X0056498Y0055905D01*
X0056498Y0055915D02*
X0057590Y0055915D01*
X0057590Y0055925D02*
X0056498Y0055925D01*
X0055621Y0055933D02*
X0055621Y0052695D01*
X0054529Y0052695D01*
X0054529Y0055933D01*
X0055621Y0055933D01*
X0055621Y0052705D02*
X0054529Y0052705D01*
X0054529Y0052715D02*
X0055621Y0052715D01*
X0055621Y0052725D02*
X0054529Y0052725D01*
X0054529Y0052735D02*
X0055621Y0052735D01*
X0055621Y0052745D02*
X0054529Y0052745D01*
X0054529Y0052755D02*
X0055621Y0052755D01*
X0055621Y0052765D02*
X0054529Y0052765D01*
X0054529Y0052775D02*
X0055621Y0052775D01*
X0055621Y0052785D02*
X0054529Y0052785D01*
X0054529Y0052795D02*
X0055621Y0052795D01*
X0055621Y0052805D02*
X0054529Y0052805D01*
X0054529Y0052815D02*
X0055621Y0052815D01*
X0055621Y0052825D02*
X0054529Y0052825D01*
X0054529Y0052835D02*
X0055621Y0052835D01*
X0055621Y0052845D02*
X0054529Y0052845D01*
X0054529Y0052855D02*
X0055621Y0052855D01*
X0055621Y0052865D02*
X0054529Y0052865D01*
X0054529Y0052875D02*
X0055621Y0052875D01*
X0055621Y0052885D02*
X0054529Y0052885D01*
X0054529Y0052895D02*
X0055621Y0052895D01*
X0055621Y0052905D02*
X0054529Y0052905D01*
X0054529Y0052915D02*
X0055621Y0052915D01*
X0055621Y0052925D02*
X0054529Y0052925D01*
X0054529Y0052935D02*
X0055621Y0052935D01*
X0055621Y0052945D02*
X0054529Y0052945D01*
X0054529Y0052955D02*
X0055621Y0052955D01*
X0055621Y0052965D02*
X0054529Y0052965D01*
X0054529Y0052975D02*
X0055621Y0052975D01*
X0055621Y0052985D02*
X0054529Y0052985D01*
X0054529Y0052995D02*
X0055621Y0052995D01*
X0055621Y0053005D02*
X0054529Y0053005D01*
X0054529Y0053015D02*
X0055621Y0053015D01*
X0055621Y0053025D02*
X0054529Y0053025D01*
X0054529Y0053035D02*
X0055621Y0053035D01*
X0055621Y0053045D02*
X0054529Y0053045D01*
X0054529Y0053055D02*
X0055621Y0053055D01*
X0055621Y0053065D02*
X0054529Y0053065D01*
X0054529Y0053075D02*
X0055621Y0053075D01*
X0055621Y0053085D02*
X0054529Y0053085D01*
X0054529Y0053095D02*
X0055621Y0053095D01*
X0055621Y0053105D02*
X0054529Y0053105D01*
X0054529Y0053115D02*
X0055621Y0053115D01*
X0055621Y0053125D02*
X0054529Y0053125D01*
X0054529Y0053135D02*
X0055621Y0053135D01*
X0055621Y0053145D02*
X0054529Y0053145D01*
X0054529Y0053155D02*
X0055621Y0053155D01*
X0055621Y0053165D02*
X0054529Y0053165D01*
X0054529Y0053175D02*
X0055621Y0053175D01*
X0055621Y0053185D02*
X0054529Y0053185D01*
X0054529Y0053195D02*
X0055621Y0053195D01*
X0055621Y0053205D02*
X0054529Y0053205D01*
X0054529Y0053215D02*
X0055621Y0053215D01*
X0055621Y0053225D02*
X0054529Y0053225D01*
X0054529Y0053235D02*
X0055621Y0053235D01*
X0055621Y0053245D02*
X0054529Y0053245D01*
X0054529Y0053255D02*
X0055621Y0053255D01*
X0055621Y0053265D02*
X0054529Y0053265D01*
X0054529Y0053275D02*
X0055621Y0053275D01*
X0055621Y0053285D02*
X0054529Y0053285D01*
X0054529Y0053295D02*
X0055621Y0053295D01*
X0055621Y0053305D02*
X0054529Y0053305D01*
X0054529Y0053315D02*
X0055621Y0053315D01*
X0055621Y0053325D02*
X0054529Y0053325D01*
X0054529Y0053335D02*
X0055621Y0053335D01*
X0055621Y0053345D02*
X0054529Y0053345D01*
X0054529Y0053355D02*
X0055621Y0053355D01*
X0055621Y0053365D02*
X0054529Y0053365D01*
X0054529Y0053375D02*
X0055621Y0053375D01*
X0055621Y0053385D02*
X0054529Y0053385D01*
X0054529Y0053395D02*
X0055621Y0053395D01*
X0055621Y0053405D02*
X0054529Y0053405D01*
X0054529Y0053415D02*
X0055621Y0053415D01*
X0055621Y0053425D02*
X0054529Y0053425D01*
X0054529Y0053435D02*
X0055621Y0053435D01*
X0055621Y0053445D02*
X0054529Y0053445D01*
X0054529Y0053455D02*
X0055621Y0053455D01*
X0055621Y0053465D02*
X0054529Y0053465D01*
X0054529Y0053475D02*
X0055621Y0053475D01*
X0055621Y0053485D02*
X0054529Y0053485D01*
X0054529Y0053495D02*
X0055621Y0053495D01*
X0055621Y0053505D02*
X0054529Y0053505D01*
X0054529Y0053515D02*
X0055621Y0053515D01*
X0055621Y0053525D02*
X0054529Y0053525D01*
X0054529Y0053535D02*
X0055621Y0053535D01*
X0055621Y0053545D02*
X0054529Y0053545D01*
X0054529Y0053555D02*
X0055621Y0053555D01*
X0055621Y0053565D02*
X0054529Y0053565D01*
X0054529Y0053575D02*
X0055621Y0053575D01*
X0055621Y0053585D02*
X0054529Y0053585D01*
X0054529Y0053595D02*
X0055621Y0053595D01*
X0055621Y0053605D02*
X0054529Y0053605D01*
X0054529Y0053615D02*
X0055621Y0053615D01*
X0055621Y0053625D02*
X0054529Y0053625D01*
X0054529Y0053635D02*
X0055621Y0053635D01*
X0055621Y0053645D02*
X0054529Y0053645D01*
X0054529Y0053655D02*
X0055621Y0053655D01*
X0055621Y0053665D02*
X0054529Y0053665D01*
X0054529Y0053675D02*
X0055621Y0053675D01*
X0055621Y0053685D02*
X0054529Y0053685D01*
X0054529Y0053695D02*
X0055621Y0053695D01*
X0055621Y0053705D02*
X0054529Y0053705D01*
X0054529Y0053715D02*
X0055621Y0053715D01*
X0055621Y0053725D02*
X0054529Y0053725D01*
X0054529Y0053735D02*
X0055621Y0053735D01*
X0055621Y0053745D02*
X0054529Y0053745D01*
X0054529Y0053755D02*
X0055621Y0053755D01*
X0055621Y0053765D02*
X0054529Y0053765D01*
X0054529Y0053775D02*
X0055621Y0053775D01*
X0055621Y0053785D02*
X0054529Y0053785D01*
X0054529Y0053795D02*
X0055621Y0053795D01*
X0055621Y0053805D02*
X0054529Y0053805D01*
X0054529Y0053815D02*
X0055621Y0053815D01*
X0055621Y0053825D02*
X0054529Y0053825D01*
X0054529Y0053835D02*
X0055621Y0053835D01*
X0055621Y0053845D02*
X0054529Y0053845D01*
X0054529Y0053855D02*
X0055621Y0053855D01*
X0055621Y0053865D02*
X0054529Y0053865D01*
X0054529Y0053875D02*
X0055621Y0053875D01*
X0055621Y0053885D02*
X0054529Y0053885D01*
X0054529Y0053895D02*
X0055621Y0053895D01*
X0055621Y0053905D02*
X0054529Y0053905D01*
X0054529Y0053915D02*
X0055621Y0053915D01*
X0055621Y0053925D02*
X0054529Y0053925D01*
X0054529Y0053935D02*
X0055621Y0053935D01*
X0055621Y0053945D02*
X0054529Y0053945D01*
X0054529Y0053955D02*
X0055621Y0053955D01*
X0055621Y0053965D02*
X0054529Y0053965D01*
X0054529Y0053975D02*
X0055621Y0053975D01*
X0055621Y0053985D02*
X0054529Y0053985D01*
X0054529Y0053995D02*
X0055621Y0053995D01*
X0055621Y0054005D02*
X0054529Y0054005D01*
X0054529Y0054015D02*
X0055621Y0054015D01*
X0055621Y0054025D02*
X0054529Y0054025D01*
X0054529Y0054035D02*
X0055621Y0054035D01*
X0055621Y0054045D02*
X0054529Y0054045D01*
X0054529Y0054055D02*
X0055621Y0054055D01*
X0055621Y0054065D02*
X0054529Y0054065D01*
X0054529Y0054075D02*
X0055621Y0054075D01*
X0055621Y0054085D02*
X0054529Y0054085D01*
X0054529Y0054095D02*
X0055621Y0054095D01*
X0055621Y0054105D02*
X0054529Y0054105D01*
X0054529Y0054115D02*
X0055621Y0054115D01*
X0055621Y0054125D02*
X0054529Y0054125D01*
X0054529Y0054135D02*
X0055621Y0054135D01*
X0055621Y0054145D02*
X0054529Y0054145D01*
X0054529Y0054155D02*
X0055621Y0054155D01*
X0055621Y0054165D02*
X0054529Y0054165D01*
X0054529Y0054175D02*
X0055621Y0054175D01*
X0055621Y0054185D02*
X0054529Y0054185D01*
X0054529Y0054195D02*
X0055621Y0054195D01*
X0055621Y0054205D02*
X0054529Y0054205D01*
X0054529Y0054215D02*
X0055621Y0054215D01*
X0055621Y0054225D02*
X0054529Y0054225D01*
X0054529Y0054235D02*
X0055621Y0054235D01*
X0055621Y0054245D02*
X0054529Y0054245D01*
X0054529Y0054255D02*
X0055621Y0054255D01*
X0055621Y0054265D02*
X0054529Y0054265D01*
X0054529Y0054275D02*
X0055621Y0054275D01*
X0055621Y0054285D02*
X0054529Y0054285D01*
X0054529Y0054295D02*
X0055621Y0054295D01*
X0055621Y0054305D02*
X0054529Y0054305D01*
X0054529Y0054315D02*
X0055621Y0054315D01*
X0055621Y0054325D02*
X0054529Y0054325D01*
X0054529Y0054335D02*
X0055621Y0054335D01*
X0055621Y0054345D02*
X0054529Y0054345D01*
X0054529Y0054355D02*
X0055621Y0054355D01*
X0055621Y0054365D02*
X0054529Y0054365D01*
X0054529Y0054375D02*
X0055621Y0054375D01*
X0055621Y0054385D02*
X0054529Y0054385D01*
X0054529Y0054395D02*
X0055621Y0054395D01*
X0055621Y0054405D02*
X0054529Y0054405D01*
X0054529Y0054415D02*
X0055621Y0054415D01*
X0055621Y0054425D02*
X0054529Y0054425D01*
X0054529Y0054435D02*
X0055621Y0054435D01*
X0055621Y0054445D02*
X0054529Y0054445D01*
X0054529Y0054455D02*
X0055621Y0054455D01*
X0055621Y0054465D02*
X0054529Y0054465D01*
X0054529Y0054475D02*
X0055621Y0054475D01*
X0055621Y0054485D02*
X0054529Y0054485D01*
X0054529Y0054495D02*
X0055621Y0054495D01*
X0055621Y0054505D02*
X0054529Y0054505D01*
X0054529Y0054515D02*
X0055621Y0054515D01*
X0055621Y0054525D02*
X0054529Y0054525D01*
X0054529Y0054535D02*
X0055621Y0054535D01*
X0055621Y0054545D02*
X0054529Y0054545D01*
X0054529Y0054555D02*
X0055621Y0054555D01*
X0055621Y0054565D02*
X0054529Y0054565D01*
X0054529Y0054575D02*
X0055621Y0054575D01*
X0055621Y0054585D02*
X0054529Y0054585D01*
X0054529Y0054595D02*
X0055621Y0054595D01*
X0055621Y0054605D02*
X0054529Y0054605D01*
X0054529Y0054615D02*
X0055621Y0054615D01*
X0055621Y0054625D02*
X0054529Y0054625D01*
X0054529Y0054635D02*
X0055621Y0054635D01*
X0055621Y0054645D02*
X0054529Y0054645D01*
X0054529Y0054655D02*
X0055621Y0054655D01*
X0055621Y0054665D02*
X0054529Y0054665D01*
X0054529Y0054675D02*
X0055621Y0054675D01*
X0055621Y0054685D02*
X0054529Y0054685D01*
X0054529Y0054695D02*
X0055621Y0054695D01*
X0055621Y0054705D02*
X0054529Y0054705D01*
X0054529Y0054715D02*
X0055621Y0054715D01*
X0055621Y0054725D02*
X0054529Y0054725D01*
X0054529Y0054735D02*
X0055621Y0054735D01*
X0055621Y0054745D02*
X0054529Y0054745D01*
X0054529Y0054755D02*
X0055621Y0054755D01*
X0055621Y0054765D02*
X0054529Y0054765D01*
X0054529Y0054775D02*
X0055621Y0054775D01*
X0055621Y0054785D02*
X0054529Y0054785D01*
X0054529Y0054795D02*
X0055621Y0054795D01*
X0055621Y0054805D02*
X0054529Y0054805D01*
X0054529Y0054815D02*
X0055621Y0054815D01*
X0055621Y0054825D02*
X0054529Y0054825D01*
X0054529Y0054835D02*
X0055621Y0054835D01*
X0055621Y0054845D02*
X0054529Y0054845D01*
X0054529Y0054855D02*
X0055621Y0054855D01*
X0055621Y0054865D02*
X0054529Y0054865D01*
X0054529Y0054875D02*
X0055621Y0054875D01*
X0055621Y0054885D02*
X0054529Y0054885D01*
X0054529Y0054895D02*
X0055621Y0054895D01*
X0055621Y0054905D02*
X0054529Y0054905D01*
X0054529Y0054915D02*
X0055621Y0054915D01*
X0055621Y0054925D02*
X0054529Y0054925D01*
X0054529Y0054935D02*
X0055621Y0054935D01*
X0055621Y0054945D02*
X0054529Y0054945D01*
X0054529Y0054955D02*
X0055621Y0054955D01*
X0055621Y0054965D02*
X0054529Y0054965D01*
X0054529Y0054975D02*
X0055621Y0054975D01*
X0055621Y0054985D02*
X0054529Y0054985D01*
X0054529Y0054995D02*
X0055621Y0054995D01*
X0055621Y0055005D02*
X0054529Y0055005D01*
X0054529Y0055015D02*
X0055621Y0055015D01*
X0055621Y0055025D02*
X0054529Y0055025D01*
X0054529Y0055035D02*
X0055621Y0055035D01*
X0055621Y0055045D02*
X0054529Y0055045D01*
X0054529Y0055055D02*
X0055621Y0055055D01*
X0055621Y0055065D02*
X0054529Y0055065D01*
X0054529Y0055075D02*
X0055621Y0055075D01*
X0055621Y0055085D02*
X0054529Y0055085D01*
X0054529Y0055095D02*
X0055621Y0055095D01*
X0055621Y0055105D02*
X0054529Y0055105D01*
X0054529Y0055115D02*
X0055621Y0055115D01*
X0055621Y0055125D02*
X0054529Y0055125D01*
X0054529Y0055135D02*
X0055621Y0055135D01*
X0055621Y0055145D02*
X0054529Y0055145D01*
X0054529Y0055155D02*
X0055621Y0055155D01*
X0055621Y0055165D02*
X0054529Y0055165D01*
X0054529Y0055175D02*
X0055621Y0055175D01*
X0055621Y0055185D02*
X0054529Y0055185D01*
X0054529Y0055195D02*
X0055621Y0055195D01*
X0055621Y0055205D02*
X0054529Y0055205D01*
X0054529Y0055215D02*
X0055621Y0055215D01*
X0055621Y0055225D02*
X0054529Y0055225D01*
X0054529Y0055235D02*
X0055621Y0055235D01*
X0055621Y0055245D02*
X0054529Y0055245D01*
X0054529Y0055255D02*
X0055621Y0055255D01*
X0055621Y0055265D02*
X0054529Y0055265D01*
X0054529Y0055275D02*
X0055621Y0055275D01*
X0055621Y0055285D02*
X0054529Y0055285D01*
X0054529Y0055295D02*
X0055621Y0055295D01*
X0055621Y0055305D02*
X0054529Y0055305D01*
X0054529Y0055315D02*
X0055621Y0055315D01*
X0055621Y0055325D02*
X0054529Y0055325D01*
X0054529Y0055335D02*
X0055621Y0055335D01*
X0055621Y0055345D02*
X0054529Y0055345D01*
X0054529Y0055355D02*
X0055621Y0055355D01*
X0055621Y0055365D02*
X0054529Y0055365D01*
X0054529Y0055375D02*
X0055621Y0055375D01*
X0055621Y0055385D02*
X0054529Y0055385D01*
X0054529Y0055395D02*
X0055621Y0055395D01*
X0055621Y0055405D02*
X0054529Y0055405D01*
X0054529Y0055415D02*
X0055621Y0055415D01*
X0055621Y0055425D02*
X0054529Y0055425D01*
X0054529Y0055435D02*
X0055621Y0055435D01*
X0055621Y0055445D02*
X0054529Y0055445D01*
X0054529Y0055455D02*
X0055621Y0055455D01*
X0055621Y0055465D02*
X0054529Y0055465D01*
X0054529Y0055475D02*
X0055621Y0055475D01*
X0055621Y0055485D02*
X0054529Y0055485D01*
X0054529Y0055495D02*
X0055621Y0055495D01*
X0055621Y0055505D02*
X0054529Y0055505D01*
X0054529Y0055515D02*
X0055621Y0055515D01*
X0055621Y0055525D02*
X0054529Y0055525D01*
X0054529Y0055535D02*
X0055621Y0055535D01*
X0055621Y0055545D02*
X0054529Y0055545D01*
X0054529Y0055555D02*
X0055621Y0055555D01*
X0055621Y0055565D02*
X0054529Y0055565D01*
X0054529Y0055575D02*
X0055621Y0055575D01*
X0055621Y0055585D02*
X0054529Y0055585D01*
X0054529Y0055595D02*
X0055621Y0055595D01*
X0055621Y0055605D02*
X0054529Y0055605D01*
X0054529Y0055615D02*
X0055621Y0055615D01*
X0055621Y0055625D02*
X0054529Y0055625D01*
X0054529Y0055635D02*
X0055621Y0055635D01*
X0055621Y0055645D02*
X0054529Y0055645D01*
X0054529Y0055655D02*
X0055621Y0055655D01*
X0055621Y0055665D02*
X0054529Y0055665D01*
X0054529Y0055675D02*
X0055621Y0055675D01*
X0055621Y0055685D02*
X0054529Y0055685D01*
X0054529Y0055695D02*
X0055621Y0055695D01*
X0055621Y0055705D02*
X0054529Y0055705D01*
X0054529Y0055715D02*
X0055621Y0055715D01*
X0055621Y0055725D02*
X0054529Y0055725D01*
X0054529Y0055735D02*
X0055621Y0055735D01*
X0055621Y0055745D02*
X0054529Y0055745D01*
X0054529Y0055755D02*
X0055621Y0055755D01*
X0055621Y0055765D02*
X0054529Y0055765D01*
X0054529Y0055775D02*
X0055621Y0055775D01*
X0055621Y0055785D02*
X0054529Y0055785D01*
X0054529Y0055795D02*
X0055621Y0055795D01*
X0055621Y0055805D02*
X0054529Y0055805D01*
X0054529Y0055815D02*
X0055621Y0055815D01*
X0055621Y0055825D02*
X0054529Y0055825D01*
X0054529Y0055835D02*
X0055621Y0055835D01*
X0055621Y0055845D02*
X0054529Y0055845D01*
X0054529Y0055855D02*
X0055621Y0055855D01*
X0055621Y0055865D02*
X0054529Y0055865D01*
X0054529Y0055875D02*
X0055621Y0055875D01*
X0055621Y0055885D02*
X0054529Y0055885D01*
X0054529Y0055895D02*
X0055621Y0055895D01*
X0055621Y0055905D02*
X0054529Y0055905D01*
X0054529Y0055915D02*
X0055621Y0055915D01*
X0055621Y0055925D02*
X0054529Y0055925D01*
D14*
X0044362Y0031056D03*
X0053662Y0031056D03*
D15*
X0070812Y0040210D03*
X0070812Y0046903D03*
X0077712Y0046903D03*
X0084012Y0046903D03*
X0084012Y0040210D03*
X0077712Y0040210D03*
X0093585Y0060515D03*
X0100278Y0060515D03*
X0055858Y0059556D03*
X0049166Y0059556D03*
X0049012Y0051903D03*
X0049012Y0045210D03*
X0026078Y0123915D03*
X0019385Y0123915D03*
X0019385Y0131115D03*
X0026078Y0131115D03*
X0030799Y0139352D03*
X0037492Y0139352D03*
X0046531Y0140261D03*
X0046531Y0133569D03*
G36*
X0073843Y0130088D02*
X0076626Y0132871D01*
X0079687Y0129810D01*
X0076904Y0127027D01*
X0073843Y0130088D01*
G37*
G36*
X0078576Y0134820D02*
X0081359Y0137603D01*
X0084420Y0134542D01*
X0081637Y0131759D01*
X0078576Y0134820D01*
G37*
X0081278Y0156315D03*
X0081278Y0162315D03*
X0074585Y0162315D03*
X0074585Y0156315D03*
X0074585Y0168315D03*
X0081278Y0168315D03*
X0227131Y0178417D03*
X0227131Y0185109D03*
X0283785Y0106115D03*
X0284331Y0099661D03*
X0290478Y0106115D03*
X0284331Y0092969D03*
X0284331Y0078061D03*
X0284331Y0071369D03*
X0284331Y0056461D03*
X0284331Y0049769D03*
X0284331Y0034861D03*
X0284331Y0028169D03*
X0207787Y0048585D03*
X0207787Y0055278D03*
X0246531Y0091369D03*
X0246531Y0098061D03*
X0258385Y0098715D03*
X0265078Y0098715D03*
D16*
X0113284Y0060515D03*
X0107379Y0060515D03*
X0078331Y0029668D03*
X0078331Y0023762D03*
X0092084Y0156631D03*
X0091984Y0162331D03*
X0097890Y0162331D03*
X0097990Y0156631D03*
D17*
X0263531Y0085615D03*
X0263531Y0083715D03*
X0263531Y0081715D03*
X0263531Y0079715D03*
X0263531Y0077715D03*
X0263531Y0075815D03*
X0271531Y0075815D03*
X0271531Y0077715D03*
X0271531Y0079715D03*
X0271531Y0081715D03*
X0271531Y0083715D03*
X0271531Y0085615D03*
X0295615Y0117320D03*
X0295615Y0119220D03*
X0295615Y0121220D03*
X0295615Y0123220D03*
X0295615Y0125220D03*
X0295615Y0127120D03*
X0303615Y0127120D03*
X0303615Y0125220D03*
X0303615Y0123220D03*
X0303615Y0121220D03*
X0303615Y0119220D03*
X0303615Y0117320D03*
X0303615Y0157420D03*
X0303615Y0159320D03*
X0303615Y0161320D03*
X0303615Y0163320D03*
X0303615Y0165320D03*
X0303615Y0167220D03*
X0295615Y0167220D03*
X0295615Y0165320D03*
X0295615Y0163320D03*
X0295615Y0161320D03*
X0295615Y0159320D03*
X0295615Y0157420D03*
X0271531Y0043615D03*
X0271531Y0041715D03*
X0271531Y0039715D03*
X0271531Y0037715D03*
X0271531Y0035715D03*
X0271531Y0033815D03*
X0263531Y0033815D03*
X0263531Y0035715D03*
X0263531Y0037715D03*
X0263531Y0039715D03*
X0263531Y0041715D03*
X0263531Y0043615D03*
D18*
X0267531Y0038715D03*
X0267531Y0080715D03*
X0299615Y0122220D03*
X0299615Y0162320D03*
D19*
G36*
X0236782Y0092447D02*
X0234833Y0094396D01*
X0237336Y0096899D01*
X0239285Y0094950D01*
X0236782Y0092447D01*
G37*
G36*
X0233150Y0088915D02*
X0231201Y0090864D01*
X0233704Y0093367D01*
X0235653Y0091418D01*
X0233150Y0088915D01*
G37*
G36*
X0231304Y0088167D02*
X0233253Y0086218D01*
X0230750Y0083715D01*
X0228801Y0085664D01*
X0231304Y0088167D01*
G37*
G36*
X0236770Y0085296D02*
X0234821Y0087245D01*
X0237324Y0089748D01*
X0239273Y0087799D01*
X0236770Y0085296D01*
G37*
G36*
X0234924Y0084548D02*
X0236873Y0082599D01*
X0234370Y0080096D01*
X0232421Y0082045D01*
X0234924Y0084548D01*
G37*
G36*
X0240401Y0088827D02*
X0238452Y0090776D01*
X0240955Y0093279D01*
X0242904Y0091330D01*
X0240401Y0088827D01*
G37*
G36*
X0221304Y0078167D02*
X0223253Y0076218D01*
X0220750Y0073715D01*
X0218801Y0075664D01*
X0221304Y0078167D01*
G37*
G36*
X0224924Y0074548D02*
X0226873Y0072599D01*
X0224370Y0070096D01*
X0222421Y0072045D01*
X0224924Y0074548D01*
G37*
G36*
X0160124Y0139348D02*
X0162073Y0137399D01*
X0159570Y0134896D01*
X0157621Y0136845D01*
X0160124Y0139348D01*
G37*
G36*
X0163874Y0143098D02*
X0165823Y0141149D01*
X0163320Y0138646D01*
X0161371Y0140595D01*
X0163874Y0143098D01*
G37*
G36*
X0160254Y0146717D02*
X0162203Y0144768D01*
X0159700Y0142265D01*
X0157751Y0144214D01*
X0160254Y0146717D01*
G37*
G36*
X0156504Y0142967D02*
X0158453Y0141018D01*
X0155950Y0138515D01*
X0154001Y0140464D01*
X0156504Y0142967D01*
G37*
D20*
G36*
X0222896Y0084922D02*
X0219362Y0088456D01*
X0221130Y0090224D01*
X0224664Y0086690D01*
X0222896Y0084922D01*
G37*
G36*
X0220279Y0082305D02*
X0216745Y0085839D01*
X0218513Y0087607D01*
X0222047Y0084073D01*
X0220279Y0082305D01*
G37*
D21*
G36*
X0234889Y0075615D02*
X0241959Y0068545D01*
X0238423Y0065009D01*
X0231353Y0072079D01*
X0234889Y0075615D01*
G37*
D22*
X0237548Y0179750D03*
X0237548Y0184750D03*
X0237548Y0189750D03*
X0237548Y0194750D03*
X0269398Y0194750D03*
X0269398Y0189750D03*
X0269398Y0184750D03*
X0269398Y0179750D03*
D23*
X0200522Y0056170D03*
X0200522Y0053611D03*
X0200522Y0051052D03*
X0200522Y0048493D03*
X0192452Y0048493D03*
X0192452Y0051052D03*
X0192452Y0053611D03*
X0192452Y0056170D03*
D24*
G36*
X0189840Y0072975D02*
X0190618Y0073753D01*
X0195284Y0069087D01*
X0194506Y0068309D01*
X0189840Y0072975D01*
G37*
G36*
X0191184Y0074318D02*
X0191962Y0075096D01*
X0196628Y0070430D01*
X0195850Y0069652D01*
X0191184Y0074318D01*
G37*
G36*
X0192598Y0075732D02*
X0193376Y0076510D01*
X0198042Y0071844D01*
X0197264Y0071066D01*
X0192598Y0075732D01*
G37*
G36*
X0194012Y0077146D02*
X0194790Y0077924D01*
X0199456Y0073258D01*
X0198678Y0072480D01*
X0194012Y0077146D01*
G37*
G36*
X0195427Y0078561D02*
X0196205Y0079339D01*
X0200871Y0074673D01*
X0200093Y0073895D01*
X0195427Y0078561D01*
G37*
G36*
X0196770Y0079904D02*
X0197548Y0080682D01*
X0202214Y0076016D01*
X0201436Y0075238D01*
X0196770Y0079904D01*
G37*
G36*
X0198184Y0081318D02*
X0198962Y0082096D01*
X0203628Y0077430D01*
X0202850Y0076652D01*
X0198184Y0081318D01*
G37*
G36*
X0199599Y0082733D02*
X0200377Y0083511D01*
X0205043Y0078845D01*
X0204265Y0078067D01*
X0199599Y0082733D01*
G37*
G36*
X0200942Y0084076D02*
X0201720Y0084854D01*
X0206386Y0080188D01*
X0205608Y0079410D01*
X0200942Y0084076D01*
G37*
G36*
X0202356Y0085490D02*
X0203134Y0086268D01*
X0207800Y0081602D01*
X0207022Y0080824D01*
X0202356Y0085490D01*
G37*
G36*
X0203770Y0086905D02*
X0204548Y0087683D01*
X0209214Y0083017D01*
X0208436Y0082239D01*
X0203770Y0086905D01*
G37*
G36*
X0205114Y0088248D02*
X0205892Y0089026D01*
X0210558Y0084360D01*
X0209780Y0083582D01*
X0205114Y0088248D01*
G37*
G36*
X0206528Y0089662D02*
X0207306Y0090440D01*
X0211972Y0085774D01*
X0211194Y0084996D01*
X0206528Y0089662D01*
G37*
G36*
X0207942Y0091077D02*
X0208720Y0091855D01*
X0213386Y0087189D01*
X0212608Y0086411D01*
X0207942Y0091077D01*
G37*
G36*
X0209286Y0092420D02*
X0210064Y0093198D01*
X0214730Y0088532D01*
X0213952Y0087754D01*
X0209286Y0092420D01*
G37*
G36*
X0210700Y0093834D02*
X0211478Y0094612D01*
X0216144Y0089946D01*
X0215366Y0089168D01*
X0210700Y0093834D01*
G37*
G36*
X0212114Y0095248D02*
X0212892Y0096026D01*
X0217558Y0091360D01*
X0216780Y0090582D01*
X0212114Y0095248D01*
G37*
G36*
X0213458Y0096592D02*
X0214236Y0097370D01*
X0218902Y0092704D01*
X0218124Y0091926D01*
X0213458Y0096592D01*
G37*
G36*
X0214872Y0098006D02*
X0215650Y0098784D01*
X0220316Y0094118D01*
X0219538Y0093340D01*
X0214872Y0098006D01*
G37*
G36*
X0216286Y0099420D02*
X0217064Y0100198D01*
X0221730Y0095532D01*
X0220952Y0094754D01*
X0216286Y0099420D01*
G37*
G36*
X0217630Y0100764D02*
X0218408Y0101542D01*
X0223074Y0096876D01*
X0222296Y0096098D01*
X0217630Y0100764D01*
G37*
G36*
X0219044Y0102178D02*
X0219822Y0102956D01*
X0224488Y0098290D01*
X0223710Y0097512D01*
X0219044Y0102178D01*
G37*
G36*
X0220458Y0103592D02*
X0221236Y0104370D01*
X0225902Y0099704D01*
X0225124Y0098926D01*
X0220458Y0103592D01*
G37*
G36*
X0221872Y0105006D02*
X0222650Y0105784D01*
X0227316Y0101118D01*
X0226538Y0100340D01*
X0221872Y0105006D01*
G37*
G36*
X0223216Y0106350D02*
X0223994Y0107128D01*
X0228660Y0102462D01*
X0227882Y0101684D01*
X0223216Y0106350D01*
G37*
G36*
X0223994Y0110735D02*
X0223216Y0111513D01*
X0227882Y0116179D01*
X0228660Y0115401D01*
X0223994Y0110735D01*
G37*
G36*
X0222650Y0112078D02*
X0221872Y0112856D01*
X0226538Y0117522D01*
X0227316Y0116744D01*
X0222650Y0112078D01*
G37*
G36*
X0221236Y0113493D02*
X0220458Y0114271D01*
X0225124Y0118937D01*
X0225902Y0118159D01*
X0221236Y0113493D01*
G37*
G36*
X0219822Y0114907D02*
X0219044Y0115685D01*
X0223710Y0120351D01*
X0224488Y0119573D01*
X0219822Y0114907D01*
G37*
G36*
X0218408Y0116321D02*
X0217630Y0117099D01*
X0222296Y0121765D01*
X0223074Y0120987D01*
X0218408Y0116321D01*
G37*
G36*
X0217064Y0117665D02*
X0216286Y0118443D01*
X0220952Y0123109D01*
X0221730Y0122331D01*
X0217064Y0117665D01*
G37*
G36*
X0215650Y0119079D02*
X0214872Y0119857D01*
X0219538Y0124523D01*
X0220316Y0123745D01*
X0215650Y0119079D01*
G37*
G36*
X0214236Y0120493D02*
X0213458Y0121271D01*
X0218124Y0125937D01*
X0218902Y0125159D01*
X0214236Y0120493D01*
G37*
G36*
X0212892Y0121837D02*
X0212114Y0122615D01*
X0216780Y0127281D01*
X0217558Y0126503D01*
X0212892Y0121837D01*
G37*
G36*
X0211478Y0123251D02*
X0210700Y0124029D01*
X0215366Y0128695D01*
X0216144Y0127917D01*
X0211478Y0123251D01*
G37*
G36*
X0210064Y0124665D02*
X0209286Y0125443D01*
X0213952Y0130109D01*
X0214730Y0129331D01*
X0210064Y0124665D01*
G37*
G36*
X0208720Y0126008D02*
X0207942Y0126786D01*
X0212608Y0131452D01*
X0213386Y0130674D01*
X0208720Y0126008D01*
G37*
G36*
X0207306Y0127423D02*
X0206528Y0128201D01*
X0211194Y0132867D01*
X0211972Y0132089D01*
X0207306Y0127423D01*
G37*
G36*
X0205892Y0128837D02*
X0205114Y0129615D01*
X0209780Y0134281D01*
X0210558Y0133503D01*
X0205892Y0128837D01*
G37*
G36*
X0204548Y0130180D02*
X0203770Y0130958D01*
X0208436Y0135624D01*
X0209214Y0134846D01*
X0204548Y0130180D01*
G37*
G36*
X0203134Y0131595D02*
X0202356Y0132373D01*
X0207022Y0137039D01*
X0207800Y0136261D01*
X0203134Y0131595D01*
G37*
G36*
X0201720Y0133009D02*
X0200942Y0133787D01*
X0205608Y0138453D01*
X0206386Y0137675D01*
X0201720Y0133009D01*
G37*
G36*
X0200377Y0134352D02*
X0199599Y0135130D01*
X0204265Y0139796D01*
X0205043Y0139018D01*
X0200377Y0134352D01*
G37*
G36*
X0198962Y0135767D02*
X0198184Y0136545D01*
X0202850Y0141211D01*
X0203628Y0140433D01*
X0198962Y0135767D01*
G37*
G36*
X0197548Y0137181D02*
X0196770Y0137959D01*
X0201436Y0142625D01*
X0202214Y0141847D01*
X0197548Y0137181D01*
G37*
G36*
X0196205Y0138524D02*
X0195427Y0139302D01*
X0200093Y0143968D01*
X0200871Y0143190D01*
X0196205Y0138524D01*
G37*
G36*
X0194790Y0139938D02*
X0194012Y0140716D01*
X0198678Y0145382D01*
X0199456Y0144604D01*
X0194790Y0139938D01*
G37*
G36*
X0193376Y0141353D02*
X0192598Y0142131D01*
X0197264Y0146797D01*
X0198042Y0146019D01*
X0193376Y0141353D01*
G37*
G36*
X0191962Y0142767D02*
X0191184Y0143545D01*
X0195850Y0148211D01*
X0196628Y0147433D01*
X0191962Y0142767D01*
G37*
G36*
X0190618Y0144110D02*
X0189840Y0144888D01*
X0194506Y0149554D01*
X0195284Y0148776D01*
X0190618Y0144110D01*
G37*
G36*
X0180790Y0148776D02*
X0181568Y0149554D01*
X0186234Y0144888D01*
X0185456Y0144110D01*
X0180790Y0148776D01*
G37*
G36*
X0179446Y0147433D02*
X0180224Y0148211D01*
X0184890Y0143545D01*
X0184112Y0142767D01*
X0179446Y0147433D01*
G37*
G36*
X0178032Y0146019D02*
X0178810Y0146797D01*
X0183476Y0142131D01*
X0182698Y0141353D01*
X0178032Y0146019D01*
G37*
G36*
X0176618Y0144604D02*
X0177396Y0145382D01*
X0182062Y0140716D01*
X0181284Y0139938D01*
X0176618Y0144604D01*
G37*
G36*
X0175203Y0143190D02*
X0175981Y0143968D01*
X0180647Y0139302D01*
X0179869Y0138524D01*
X0175203Y0143190D01*
G37*
G36*
X0173860Y0141847D02*
X0174638Y0142625D01*
X0179304Y0137959D01*
X0178526Y0137181D01*
X0173860Y0141847D01*
G37*
G36*
X0172446Y0140433D02*
X0173224Y0141211D01*
X0177890Y0136545D01*
X0177112Y0135767D01*
X0172446Y0140433D01*
G37*
G36*
X0171031Y0139018D02*
X0171809Y0139796D01*
X0176475Y0135130D01*
X0175697Y0134352D01*
X0171031Y0139018D01*
G37*
G36*
X0169688Y0137675D02*
X0170466Y0138453D01*
X0175132Y0133787D01*
X0174354Y0133009D01*
X0169688Y0137675D01*
G37*
G36*
X0168274Y0136261D02*
X0169052Y0137039D01*
X0173718Y0132373D01*
X0172940Y0131595D01*
X0168274Y0136261D01*
G37*
G36*
X0166860Y0134846D02*
X0167638Y0135624D01*
X0172304Y0130958D01*
X0171526Y0130180D01*
X0166860Y0134846D01*
G37*
G36*
X0165516Y0133503D02*
X0166294Y0134281D01*
X0170960Y0129615D01*
X0170182Y0128837D01*
X0165516Y0133503D01*
G37*
G36*
X0164102Y0132089D02*
X0164880Y0132867D01*
X0169546Y0128201D01*
X0168768Y0127423D01*
X0164102Y0132089D01*
G37*
G36*
X0162688Y0130674D02*
X0163466Y0131452D01*
X0168132Y0126786D01*
X0167354Y0126008D01*
X0162688Y0130674D01*
G37*
G36*
X0161344Y0129331D02*
X0162122Y0130109D01*
X0166788Y0125443D01*
X0166010Y0124665D01*
X0161344Y0129331D01*
G37*
G36*
X0159930Y0127917D02*
X0160708Y0128695D01*
X0165374Y0124029D01*
X0164596Y0123251D01*
X0159930Y0127917D01*
G37*
G36*
X0158516Y0126503D02*
X0159294Y0127281D01*
X0163960Y0122615D01*
X0163182Y0121837D01*
X0158516Y0126503D01*
G37*
G36*
X0157172Y0125159D02*
X0157950Y0125937D01*
X0162616Y0121271D01*
X0161838Y0120493D01*
X0157172Y0125159D01*
G37*
G36*
X0155758Y0123745D02*
X0156536Y0124523D01*
X0161202Y0119857D01*
X0160424Y0119079D01*
X0155758Y0123745D01*
G37*
G36*
X0154344Y0122331D02*
X0155122Y0123109D01*
X0159788Y0118443D01*
X0159010Y0117665D01*
X0154344Y0122331D01*
G37*
G36*
X0153000Y0120987D02*
X0153778Y0121765D01*
X0158444Y0117099D01*
X0157666Y0116321D01*
X0153000Y0120987D01*
G37*
G36*
X0151586Y0119573D02*
X0152364Y0120351D01*
X0157030Y0115685D01*
X0156252Y0114907D01*
X0151586Y0119573D01*
G37*
G36*
X0150172Y0118159D02*
X0150950Y0118937D01*
X0155616Y0114271D01*
X0154838Y0113493D01*
X0150172Y0118159D01*
G37*
G36*
X0148758Y0116744D02*
X0149536Y0117522D01*
X0154202Y0112856D01*
X0153424Y0112078D01*
X0148758Y0116744D01*
G37*
G36*
X0147414Y0115401D02*
X0148192Y0116179D01*
X0152858Y0111513D01*
X0152080Y0110735D01*
X0147414Y0115401D01*
G37*
G36*
X0148192Y0101684D02*
X0147414Y0102462D01*
X0152080Y0107128D01*
X0152858Y0106350D01*
X0148192Y0101684D01*
G37*
G36*
X0149536Y0100340D02*
X0148758Y0101118D01*
X0153424Y0105784D01*
X0154202Y0105006D01*
X0149536Y0100340D01*
G37*
G36*
X0150950Y0098926D02*
X0150172Y0099704D01*
X0154838Y0104370D01*
X0155616Y0103592D01*
X0150950Y0098926D01*
G37*
G36*
X0152364Y0097512D02*
X0151586Y0098290D01*
X0156252Y0102956D01*
X0157030Y0102178D01*
X0152364Y0097512D01*
G37*
G36*
X0153778Y0096098D02*
X0153000Y0096876D01*
X0157666Y0101542D01*
X0158444Y0100764D01*
X0153778Y0096098D01*
G37*
G36*
X0155122Y0094754D02*
X0154344Y0095532D01*
X0159010Y0100198D01*
X0159788Y0099420D01*
X0155122Y0094754D01*
G37*
G36*
X0156536Y0093340D02*
X0155758Y0094118D01*
X0160424Y0098784D01*
X0161202Y0098006D01*
X0156536Y0093340D01*
G37*
G36*
X0157950Y0091926D02*
X0157172Y0092704D01*
X0161838Y0097370D01*
X0162616Y0096592D01*
X0157950Y0091926D01*
G37*
G36*
X0159294Y0090582D02*
X0158516Y0091360D01*
X0163182Y0096026D01*
X0163960Y0095248D01*
X0159294Y0090582D01*
G37*
G36*
X0160708Y0089168D02*
X0159930Y0089946D01*
X0164596Y0094612D01*
X0165374Y0093834D01*
X0160708Y0089168D01*
G37*
G36*
X0162122Y0087754D02*
X0161344Y0088532D01*
X0166010Y0093198D01*
X0166788Y0092420D01*
X0162122Y0087754D01*
G37*
G36*
X0163466Y0086411D02*
X0162688Y0087189D01*
X0167354Y0091855D01*
X0168132Y0091077D01*
X0163466Y0086411D01*
G37*
G36*
X0164880Y0084996D02*
X0164102Y0085774D01*
X0168768Y0090440D01*
X0169546Y0089662D01*
X0164880Y0084996D01*
G37*
G36*
X0166294Y0083582D02*
X0165516Y0084360D01*
X0170182Y0089026D01*
X0170960Y0088248D01*
X0166294Y0083582D01*
G37*
G36*
X0167638Y0082239D02*
X0166860Y0083017D01*
X0171526Y0087683D01*
X0172304Y0086905D01*
X0167638Y0082239D01*
G37*
G36*
X0169052Y0080824D02*
X0168274Y0081602D01*
X0172940Y0086268D01*
X0173718Y0085490D01*
X0169052Y0080824D01*
G37*
G36*
X0170466Y0079410D02*
X0169688Y0080188D01*
X0174354Y0084854D01*
X0175132Y0084076D01*
X0170466Y0079410D01*
G37*
G36*
X0171809Y0078067D02*
X0171031Y0078845D01*
X0175697Y0083511D01*
X0176475Y0082733D01*
X0171809Y0078067D01*
G37*
G36*
X0173224Y0076652D02*
X0172446Y0077430D01*
X0177112Y0082096D01*
X0177890Y0081318D01*
X0173224Y0076652D01*
G37*
G36*
X0174638Y0075238D02*
X0173860Y0076016D01*
X0178526Y0080682D01*
X0179304Y0079904D01*
X0174638Y0075238D01*
G37*
G36*
X0175981Y0073895D02*
X0175203Y0074673D01*
X0179869Y0079339D01*
X0180647Y0078561D01*
X0175981Y0073895D01*
G37*
G36*
X0177396Y0072480D02*
X0176618Y0073258D01*
X0181284Y0077924D01*
X0182062Y0077146D01*
X0177396Y0072480D01*
G37*
G36*
X0178810Y0071066D02*
X0178032Y0071844D01*
X0182698Y0076510D01*
X0183476Y0075732D01*
X0178810Y0071066D01*
G37*
G36*
X0180224Y0069652D02*
X0179446Y0070430D01*
X0184112Y0075096D01*
X0184890Y0074318D01*
X0180224Y0069652D01*
G37*
G36*
X0181568Y0068309D02*
X0180790Y0069087D01*
X0185456Y0073753D01*
X0186234Y0072975D01*
X0181568Y0068309D01*
G37*
D25*
G36*
X0159279Y0071879D02*
X0156217Y0074941D01*
X0161227Y0079951D01*
X0164289Y0076889D01*
X0159279Y0071879D01*
G37*
G36*
X0154047Y0077112D02*
X0150985Y0080174D01*
X0155995Y0085184D01*
X0159057Y0082122D01*
X0154047Y0077112D01*
G37*
D26*
X0070111Y0094713D02*
X0068941Y0094713D01*
X0068941Y0095283D01*
X0070111Y0095283D01*
X0070111Y0094713D01*
X0070111Y0094742D02*
X0068941Y0094742D01*
X0068941Y0094771D02*
X0070111Y0094771D01*
X0070111Y0094800D02*
X0068941Y0094800D01*
X0068941Y0094829D02*
X0070111Y0094829D01*
X0070111Y0094858D02*
X0068941Y0094858D01*
X0068941Y0094887D02*
X0070111Y0094887D01*
X0070111Y0094916D02*
X0068941Y0094916D01*
X0068941Y0094945D02*
X0070111Y0094945D01*
X0070111Y0094974D02*
X0068941Y0094974D01*
X0068941Y0095003D02*
X0070111Y0095003D01*
X0070111Y0095032D02*
X0068941Y0095032D01*
X0068941Y0095061D02*
X0070111Y0095061D01*
X0070111Y0095090D02*
X0068941Y0095090D01*
X0068941Y0095119D02*
X0070111Y0095119D01*
X0070111Y0095148D02*
X0068941Y0095148D01*
X0068941Y0095177D02*
X0070111Y0095177D01*
X0070111Y0095206D02*
X0068941Y0095206D01*
X0068941Y0095235D02*
X0070111Y0095235D01*
X0070111Y0095264D02*
X0068941Y0095264D01*
X0067311Y0095583D02*
X0067311Y0094413D01*
X0066741Y0094413D01*
X0066741Y0095583D01*
X0067311Y0095583D01*
X0067311Y0094442D02*
X0066741Y0094442D01*
X0066741Y0094471D02*
X0067311Y0094471D01*
X0067311Y0094500D02*
X0066741Y0094500D01*
X0066741Y0094529D02*
X0067311Y0094529D01*
X0067311Y0094558D02*
X0066741Y0094558D01*
X0066741Y0094587D02*
X0067311Y0094587D01*
X0067311Y0094616D02*
X0066741Y0094616D01*
X0066741Y0094645D02*
X0067311Y0094645D01*
X0067311Y0094674D02*
X0066741Y0094674D01*
X0066741Y0094703D02*
X0067311Y0094703D01*
X0067311Y0094732D02*
X0066741Y0094732D01*
X0066741Y0094761D02*
X0067311Y0094761D01*
X0067311Y0094790D02*
X0066741Y0094790D01*
X0066741Y0094819D02*
X0067311Y0094819D01*
X0067311Y0094848D02*
X0066741Y0094848D01*
X0066741Y0094877D02*
X0067311Y0094877D01*
X0067311Y0094906D02*
X0066741Y0094906D01*
X0066741Y0094935D02*
X0067311Y0094935D01*
X0067311Y0094964D02*
X0066741Y0094964D01*
X0066741Y0094993D02*
X0067311Y0094993D01*
X0067311Y0095022D02*
X0066741Y0095022D01*
X0066741Y0095051D02*
X0067311Y0095051D01*
X0067311Y0095080D02*
X0066741Y0095080D01*
X0066741Y0095109D02*
X0067311Y0095109D01*
X0067311Y0095138D02*
X0066741Y0095138D01*
X0066741Y0095167D02*
X0067311Y0095167D01*
X0067311Y0095196D02*
X0066741Y0095196D01*
X0066741Y0095225D02*
X0067311Y0095225D01*
X0067311Y0095254D02*
X0066741Y0095254D01*
X0066741Y0095283D02*
X0067311Y0095283D01*
X0067311Y0095312D02*
X0066741Y0095312D01*
X0066741Y0095341D02*
X0067311Y0095341D01*
X0067311Y0095370D02*
X0066741Y0095370D01*
X0066741Y0095399D02*
X0067311Y0095399D01*
X0067311Y0095428D02*
X0066741Y0095428D01*
X0066741Y0095457D02*
X0067311Y0095457D01*
X0067311Y0095486D02*
X0066741Y0095486D01*
X0066741Y0095515D02*
X0067311Y0095515D01*
X0067311Y0095544D02*
X0066741Y0095544D01*
X0066741Y0095573D02*
X0067311Y0095573D01*
X0065111Y0094713D02*
X0063941Y0094713D01*
X0063941Y0095283D01*
X0065111Y0095283D01*
X0065111Y0094713D01*
X0065111Y0094742D02*
X0063941Y0094742D01*
X0063941Y0094771D02*
X0065111Y0094771D01*
X0065111Y0094800D02*
X0063941Y0094800D01*
X0063941Y0094829D02*
X0065111Y0094829D01*
X0065111Y0094858D02*
X0063941Y0094858D01*
X0063941Y0094887D02*
X0065111Y0094887D01*
X0065111Y0094916D02*
X0063941Y0094916D01*
X0063941Y0094945D02*
X0065111Y0094945D01*
X0065111Y0094974D02*
X0063941Y0094974D01*
X0063941Y0095003D02*
X0065111Y0095003D01*
X0065111Y0095032D02*
X0063941Y0095032D01*
X0063941Y0095061D02*
X0065111Y0095061D01*
X0065111Y0095090D02*
X0063941Y0095090D01*
X0063941Y0095119D02*
X0065111Y0095119D01*
X0065111Y0095148D02*
X0063941Y0095148D01*
X0063941Y0095177D02*
X0065111Y0095177D01*
X0065111Y0095206D02*
X0063941Y0095206D01*
X0063941Y0095235D02*
X0065111Y0095235D01*
X0065111Y0095264D02*
X0063941Y0095264D01*
D27*
X0060004Y0145297D03*
X0058035Y0145297D03*
X0056067Y0145297D03*
X0054098Y0145297D03*
X0052130Y0145297D03*
X0050161Y0145297D03*
X0048193Y0145297D03*
X0046224Y0145297D03*
X0044256Y0145297D03*
X0042287Y0145297D03*
X0042287Y0158397D03*
X0044256Y0158397D03*
X0046224Y0158397D03*
X0048193Y0158397D03*
X0050161Y0158397D03*
X0052130Y0158397D03*
X0054098Y0158397D03*
X0056067Y0158397D03*
X0058035Y0158397D03*
X0060004Y0158397D03*
D28*
X0060447Y0154805D03*
X0060447Y0152836D03*
X0060447Y0150868D03*
X0060447Y0148899D03*
X0041844Y0148899D03*
X0041844Y0150868D03*
X0041844Y0152836D03*
X0041844Y0154805D03*
D29*
X0044099Y0166852D03*
X0050792Y0166852D03*
D30*
X0290191Y0101274D03*
X0290191Y0098715D03*
X0290191Y0096156D03*
X0297672Y0096156D03*
X0297672Y0098715D03*
X0297672Y0101274D03*
X0297672Y0079674D03*
X0297672Y0077115D03*
X0297672Y0074556D03*
X0290191Y0074556D03*
X0290191Y0077115D03*
X0290191Y0079674D03*
X0290191Y0058074D03*
X0290191Y0055515D03*
X0290191Y0052956D03*
X0297672Y0052956D03*
X0297672Y0055515D03*
X0297672Y0058074D03*
X0297672Y0036474D03*
X0297672Y0033915D03*
X0297672Y0031356D03*
X0290191Y0031356D03*
X0290191Y0033915D03*
X0290191Y0036474D03*
D31*
X0291531Y0042315D03*
X0291531Y0047825D03*
X0302361Y0047825D03*
X0302361Y0042315D03*
X0302361Y0026225D03*
X0302361Y0020715D03*
X0291531Y0020715D03*
X0291531Y0026225D03*
X0291531Y0063915D03*
X0291531Y0069425D03*
X0302361Y0069425D03*
X0302361Y0063915D03*
X0302361Y0085515D03*
X0302361Y0091025D03*
X0291531Y0091025D03*
X0291531Y0085515D03*
D32*
X0278331Y0025446D03*
X0274591Y0016784D03*
X0282072Y0016784D03*
D33*
X0107612Y0127362D02*
X0101249Y0133725D01*
X0107612Y0127362D02*
X0105491Y0125241D01*
X0099128Y0131604D01*
X0101249Y0133725D01*
X0102492Y0128240D02*
X0106734Y0128240D01*
X0103735Y0131239D02*
X0099493Y0131239D01*
X0094973Y0128865D02*
X0088610Y0135228D01*
X0094973Y0128865D02*
X0092852Y0126744D01*
X0086489Y0133107D01*
X0088610Y0135228D01*
X0089853Y0129743D02*
X0094095Y0129743D01*
X0091096Y0132742D02*
X0086854Y0132742D01*
X0077475Y0124092D02*
X0083838Y0117729D01*
X0081717Y0115608D01*
X0075354Y0121971D01*
X0077475Y0124092D01*
X0078718Y0118607D02*
X0082960Y0118607D01*
X0079961Y0121606D02*
X0075719Y0121606D01*
X0066339Y0112957D02*
X0072702Y0106594D01*
X0070581Y0104473D01*
X0064218Y0110836D01*
X0066339Y0112957D01*
X0067582Y0107472D02*
X0071824Y0107472D01*
X0068825Y0110471D02*
X0064583Y0110471D01*
X0078978Y0111454D02*
X0085341Y0105091D01*
X0083220Y0102970D01*
X0076857Y0109333D01*
X0078978Y0111454D01*
X0080221Y0105969D02*
X0084463Y0105969D01*
X0081464Y0108968D02*
X0077222Y0108968D01*
X0090114Y0122589D02*
X0096477Y0116226D01*
X0094356Y0114105D01*
X0087993Y0120468D01*
X0090114Y0122589D01*
X0091357Y0117104D02*
X0095599Y0117104D01*
X0092600Y0120103D02*
X0088358Y0120103D01*
X0067843Y0100318D02*
X0074206Y0093955D01*
X0072085Y0091834D01*
X0065722Y0098197D01*
X0067843Y0100318D01*
X0069086Y0094833D02*
X0073328Y0094833D01*
X0070329Y0097832D02*
X0066087Y0097832D01*
D34*
X0040331Y0093915D03*
X0040331Y0103915D03*
X0040331Y0113915D03*
X0020331Y0113915D03*
X0020331Y0103915D03*
X0020331Y0093915D03*
X0020331Y0083915D03*
X0020331Y0073915D03*
X0040331Y0073915D03*
X0040331Y0083915D03*
M02*
