%
M48
M72
T01C0.01181
T02C0.01200
T03C0.01969
T04C0.02362
T05C0.04000
T06C0.11811
%
T01
X48387Y41681
X56012Y46556
X59012Y48556
X62012Y46556
X56012Y50556
X72137Y50431
X80237Y52231
X84437Y52231
X168637Y98031
X170637Y95231
X173437Y91631
X203687Y58331
X195887Y44531
X242537Y64431
X263331Y59715
X263331Y55515
X262987Y29531
X263587Y88731
X267587Y88731
X241437Y87231
X289131Y114315
X291531Y110715
X297531Y132315
X297531Y138315
X297531Y144315
X296331Y173115
X299931Y176715
X296331Y179115
X296331Y185115
X296331Y191115
X296331Y197115
X176187Y130931
X163037Y147681
X156637Y150031
X77331Y183015
X78531Y188715
X78531Y194715
X78531Y200715
X78531Y206715
X73431Y178215
X67131Y177315
X61731Y177315
X52131Y177315
X41931Y177315
X37131Y177315
X29931Y179115
X25131Y180315
X20931Y182115
X17331Y184515
X16131Y188715
X16131Y194715
X16131Y200715
X16131Y206715
T02
X26131Y166915
X37446Y156852
X45931Y151915
X56331Y152115
X63931Y155515
X68931Y152115
X64946Y149352
X63331Y162715
X70331Y162063
X55146Y162452
X41746Y140652
X45931Y128515
X34731Y122115
X38331Y119115
X35931Y109115
X26031Y109115
X9531Y103515
X9531Y120915
X9531Y133515
X26331Y138315
X25131Y141915
X22446Y154352
X62931Y116715
X58731Y100515
X41931Y99515
X9531Y81315
X62012Y50556
X65131Y40515
X66331Y32715
X87531Y27315
X89515Y60683
X62931Y73515
X117131Y73715
X127931Y82715
X131237Y86031
X133131Y89115
X130331Y92715
X134331Y97663
X131931Y105663
X128731Y108863
X126331Y112063
X118131Y119715
X112131Y133463
X121931Y136863
X98931Y142515
X95931Y145515
X106731Y155115
X111531Y155115
X117531Y156663
X120131Y153663
X93531Y169515
X86931Y167715
X161131Y111263
X156731Y108663
X158931Y106063
X169531Y101663
X155931Y89115
X153531Y69915
X189931Y77915
X191531Y82315
X211131Y77315
X214731Y85515
X242531Y98715
X250531Y109515
X237531Y112715
X269331Y100915
X269331Y97515
X269331Y93115
X272331Y89115
X275931Y91515
X285531Y88515
X284331Y82515
X279531Y74715
X278331Y67515
X271731Y64515
X284331Y60915
X278331Y53115
X271731Y47115
X285531Y45315
X284931Y39315
X279931Y34315
X277531Y31515
X283531Y23915
X277731Y18315
X293931Y35915
X293931Y57515
X293931Y79115
X304931Y97515
X293931Y101115
X304731Y107115
X285531Y117320
X279731Y107715
X275931Y102715
X251331Y81915
X247731Y74715
X234531Y63015
X229331Y54715
X224731Y61115
X215731Y49315
X229331Y39315
X251531Y42315
X256931Y44915
X205131Y63915
X196531Y61515
X192331Y61515
X176131Y116463
X186331Y126663
X187131Y131115
X184731Y133863
X182331Y137263
X192731Y134463
X194731Y150863
X198131Y153863
X203331Y156163
X206331Y162115
X196331Y172115
X188331Y168263
X186931Y165063
X177931Y155915
X213131Y177063
X222931Y175663
X256131Y188263
X260531Y194663
X303531Y140715
X291531Y131115
T03
X269931Y15915
T04
X270531Y24315
X268131Y51915
X210531Y100515
X206931Y96915
X197931Y113115
X194331Y116715
X173931Y125115
X163731Y105315
X122931Y96915
X120931Y59715
X121131Y52315
X61131Y21915
X56331Y93915
T05
X21931Y17515
X31931Y17515
X31931Y27515
X21931Y27515
X21931Y37515
X31931Y37515
X31931Y47515
X21931Y47515
X21931Y57515
X31931Y57515
X103931Y27915
X113931Y27915
X123931Y27915
X133931Y27915
X143931Y27515
X153931Y27515
X163931Y27515
X173931Y27515
X183931Y27515
X193931Y27515
X203931Y27515
X203931Y27515
X213931Y27515
X223931Y27515
X233931Y27515
X243931Y27515
X253931Y27515
X203931Y37515
X193931Y37515
X183931Y37515
X173931Y37515
X163931Y37515
X153931Y37515
X143931Y37515
X232131Y157715
X242131Y157715
X252131Y157715
X262131Y157715
X272131Y157715
X272131Y167715
X262131Y167715
X252131Y167715
X242131Y167715
X232131Y167715
X217131Y183263
X207131Y183263
X197131Y183263
X187131Y183263
X177131Y183263
X167131Y183263
X157131Y183263
X147131Y183263
X137131Y183263
X127131Y183263
X117131Y183263
X107131Y183263
X97131Y183263
X97131Y193263
X107131Y193263
X117131Y193263
X127131Y193263
X137131Y193263
X147131Y193263
X157131Y193263
X167131Y193263
X177131Y193263
X187131Y193263
X197131Y193263
X207131Y193263
X217131Y193263
X304418Y195554
X314418Y195554
X312331Y173915
X312331Y163915
X312331Y153915
X312331Y143915
X312331Y133915
X312331Y123915
X312331Y113915
X312331Y103915
X312331Y93715
X312331Y83715
X312331Y73715
X312331Y63715
X312331Y53715
X312331Y43715
X312331Y33715
X312331Y23715
X100131Y168915
T06
X101620Y44148
X282722Y138636
M30
