G75*
%MOIN*%
%OFA0B0*%
%FSLAX25Y25*%
%IPPOS*%
%LPD*%
%AMOC8*
5,1,8,0,0,1.08239X$1,22.5*
%
%ADD10C,0.00000*%
%ADD11C,0.02381*%
%ADD12C,0.02400*%
%ADD13R,0.04600X0.06300*%
%ADD14OC8,0.06000*%
%ADD15R,0.06000X0.06000*%
%ADD16R,0.06000X0.04000*%
%ADD17R,0.04000X0.06000*%
%ADD18R,0.09500X0.20000*%
%ADD19R,0.09000X0.20000*%
%ADD20C,0.01200*%
%ADD21C,0.01000*%
%ADD22C,0.00800*%
%ADD23C,0.01600*%
%ADD24C,0.03562*%
%ADD25C,0.03200*%
%ADD26C,0.02400*%
%ADD27C,0.04000*%
%ADD28C,0.03169*%
D10*
X0007131Y0012652D02*
X0007131Y0209502D01*
X0326029Y0209502D01*
X0326029Y0012652D01*
X0007131Y0012652D01*
X0095714Y0044148D02*
X0095716Y0044301D01*
X0095722Y0044455D01*
X0095732Y0044608D01*
X0095746Y0044760D01*
X0095764Y0044913D01*
X0095786Y0045064D01*
X0095811Y0045215D01*
X0095841Y0045366D01*
X0095875Y0045516D01*
X0095912Y0045664D01*
X0095953Y0045812D01*
X0095998Y0045958D01*
X0096047Y0046104D01*
X0096100Y0046248D01*
X0096156Y0046390D01*
X0096216Y0046531D01*
X0096280Y0046671D01*
X0096347Y0046809D01*
X0096418Y0046945D01*
X0096493Y0047079D01*
X0096570Y0047211D01*
X0096652Y0047341D01*
X0096736Y0047469D01*
X0096824Y0047595D01*
X0096915Y0047718D01*
X0097009Y0047839D01*
X0097107Y0047957D01*
X0097207Y0048073D01*
X0097311Y0048186D01*
X0097417Y0048297D01*
X0097526Y0048405D01*
X0097638Y0048510D01*
X0097752Y0048611D01*
X0097870Y0048710D01*
X0097989Y0048806D01*
X0098111Y0048899D01*
X0098236Y0048988D01*
X0098363Y0049075D01*
X0098492Y0049157D01*
X0098623Y0049237D01*
X0098756Y0049313D01*
X0098891Y0049386D01*
X0099028Y0049455D01*
X0099167Y0049520D01*
X0099307Y0049582D01*
X0099449Y0049640D01*
X0099592Y0049695D01*
X0099737Y0049746D01*
X0099883Y0049793D01*
X0100030Y0049836D01*
X0100178Y0049875D01*
X0100327Y0049911D01*
X0100477Y0049942D01*
X0100628Y0049970D01*
X0100779Y0049994D01*
X0100932Y0050014D01*
X0101084Y0050030D01*
X0101237Y0050042D01*
X0101390Y0050050D01*
X0101543Y0050054D01*
X0101697Y0050054D01*
X0101850Y0050050D01*
X0102003Y0050042D01*
X0102156Y0050030D01*
X0102308Y0050014D01*
X0102461Y0049994D01*
X0102612Y0049970D01*
X0102763Y0049942D01*
X0102913Y0049911D01*
X0103062Y0049875D01*
X0103210Y0049836D01*
X0103357Y0049793D01*
X0103503Y0049746D01*
X0103648Y0049695D01*
X0103791Y0049640D01*
X0103933Y0049582D01*
X0104073Y0049520D01*
X0104212Y0049455D01*
X0104349Y0049386D01*
X0104484Y0049313D01*
X0104617Y0049237D01*
X0104748Y0049157D01*
X0104877Y0049075D01*
X0105004Y0048988D01*
X0105129Y0048899D01*
X0105251Y0048806D01*
X0105370Y0048710D01*
X0105488Y0048611D01*
X0105602Y0048510D01*
X0105714Y0048405D01*
X0105823Y0048297D01*
X0105929Y0048186D01*
X0106033Y0048073D01*
X0106133Y0047957D01*
X0106231Y0047839D01*
X0106325Y0047718D01*
X0106416Y0047595D01*
X0106504Y0047469D01*
X0106588Y0047341D01*
X0106670Y0047211D01*
X0106747Y0047079D01*
X0106822Y0046945D01*
X0106893Y0046809D01*
X0106960Y0046671D01*
X0107024Y0046531D01*
X0107084Y0046390D01*
X0107140Y0046248D01*
X0107193Y0046104D01*
X0107242Y0045958D01*
X0107287Y0045812D01*
X0107328Y0045664D01*
X0107365Y0045516D01*
X0107399Y0045366D01*
X0107429Y0045215D01*
X0107454Y0045064D01*
X0107476Y0044913D01*
X0107494Y0044760D01*
X0107508Y0044608D01*
X0107518Y0044455D01*
X0107524Y0044301D01*
X0107526Y0044148D01*
X0107524Y0043995D01*
X0107518Y0043841D01*
X0107508Y0043688D01*
X0107494Y0043536D01*
X0107476Y0043383D01*
X0107454Y0043232D01*
X0107429Y0043081D01*
X0107399Y0042930D01*
X0107365Y0042780D01*
X0107328Y0042632D01*
X0107287Y0042484D01*
X0107242Y0042338D01*
X0107193Y0042192D01*
X0107140Y0042048D01*
X0107084Y0041906D01*
X0107024Y0041765D01*
X0106960Y0041625D01*
X0106893Y0041487D01*
X0106822Y0041351D01*
X0106747Y0041217D01*
X0106670Y0041085D01*
X0106588Y0040955D01*
X0106504Y0040827D01*
X0106416Y0040701D01*
X0106325Y0040578D01*
X0106231Y0040457D01*
X0106133Y0040339D01*
X0106033Y0040223D01*
X0105929Y0040110D01*
X0105823Y0039999D01*
X0105714Y0039891D01*
X0105602Y0039786D01*
X0105488Y0039685D01*
X0105370Y0039586D01*
X0105251Y0039490D01*
X0105129Y0039397D01*
X0105004Y0039308D01*
X0104877Y0039221D01*
X0104748Y0039139D01*
X0104617Y0039059D01*
X0104484Y0038983D01*
X0104349Y0038910D01*
X0104212Y0038841D01*
X0104073Y0038776D01*
X0103933Y0038714D01*
X0103791Y0038656D01*
X0103648Y0038601D01*
X0103503Y0038550D01*
X0103357Y0038503D01*
X0103210Y0038460D01*
X0103062Y0038421D01*
X0102913Y0038385D01*
X0102763Y0038354D01*
X0102612Y0038326D01*
X0102461Y0038302D01*
X0102308Y0038282D01*
X0102156Y0038266D01*
X0102003Y0038254D01*
X0101850Y0038246D01*
X0101697Y0038242D01*
X0101543Y0038242D01*
X0101390Y0038246D01*
X0101237Y0038254D01*
X0101084Y0038266D01*
X0100932Y0038282D01*
X0100779Y0038302D01*
X0100628Y0038326D01*
X0100477Y0038354D01*
X0100327Y0038385D01*
X0100178Y0038421D01*
X0100030Y0038460D01*
X0099883Y0038503D01*
X0099737Y0038550D01*
X0099592Y0038601D01*
X0099449Y0038656D01*
X0099307Y0038714D01*
X0099167Y0038776D01*
X0099028Y0038841D01*
X0098891Y0038910D01*
X0098756Y0038983D01*
X0098623Y0039059D01*
X0098492Y0039139D01*
X0098363Y0039221D01*
X0098236Y0039308D01*
X0098111Y0039397D01*
X0097989Y0039490D01*
X0097870Y0039586D01*
X0097752Y0039685D01*
X0097638Y0039786D01*
X0097526Y0039891D01*
X0097417Y0039999D01*
X0097311Y0040110D01*
X0097207Y0040223D01*
X0097107Y0040339D01*
X0097009Y0040457D01*
X0096915Y0040578D01*
X0096824Y0040701D01*
X0096736Y0040827D01*
X0096652Y0040955D01*
X0096570Y0041085D01*
X0096493Y0041217D01*
X0096418Y0041351D01*
X0096347Y0041487D01*
X0096280Y0041625D01*
X0096216Y0041765D01*
X0096156Y0041906D01*
X0096100Y0042048D01*
X0096047Y0042192D01*
X0095998Y0042338D01*
X0095953Y0042484D01*
X0095912Y0042632D01*
X0095875Y0042780D01*
X0095841Y0042930D01*
X0095811Y0043081D01*
X0095786Y0043232D01*
X0095764Y0043383D01*
X0095746Y0043536D01*
X0095732Y0043688D01*
X0095722Y0043841D01*
X0095716Y0043995D01*
X0095714Y0044148D01*
X0276816Y0138636D02*
X0276818Y0138789D01*
X0276824Y0138943D01*
X0276834Y0139096D01*
X0276848Y0139248D01*
X0276866Y0139401D01*
X0276888Y0139552D01*
X0276913Y0139703D01*
X0276943Y0139854D01*
X0276977Y0140004D01*
X0277014Y0140152D01*
X0277055Y0140300D01*
X0277100Y0140446D01*
X0277149Y0140592D01*
X0277202Y0140736D01*
X0277258Y0140878D01*
X0277318Y0141019D01*
X0277382Y0141159D01*
X0277449Y0141297D01*
X0277520Y0141433D01*
X0277595Y0141567D01*
X0277672Y0141699D01*
X0277754Y0141829D01*
X0277838Y0141957D01*
X0277926Y0142083D01*
X0278017Y0142206D01*
X0278111Y0142327D01*
X0278209Y0142445D01*
X0278309Y0142561D01*
X0278413Y0142674D01*
X0278519Y0142785D01*
X0278628Y0142893D01*
X0278740Y0142998D01*
X0278854Y0143099D01*
X0278972Y0143198D01*
X0279091Y0143294D01*
X0279213Y0143387D01*
X0279338Y0143476D01*
X0279465Y0143563D01*
X0279594Y0143645D01*
X0279725Y0143725D01*
X0279858Y0143801D01*
X0279993Y0143874D01*
X0280130Y0143943D01*
X0280269Y0144008D01*
X0280409Y0144070D01*
X0280551Y0144128D01*
X0280694Y0144183D01*
X0280839Y0144234D01*
X0280985Y0144281D01*
X0281132Y0144324D01*
X0281280Y0144363D01*
X0281429Y0144399D01*
X0281579Y0144430D01*
X0281730Y0144458D01*
X0281881Y0144482D01*
X0282034Y0144502D01*
X0282186Y0144518D01*
X0282339Y0144530D01*
X0282492Y0144538D01*
X0282645Y0144542D01*
X0282799Y0144542D01*
X0282952Y0144538D01*
X0283105Y0144530D01*
X0283258Y0144518D01*
X0283410Y0144502D01*
X0283563Y0144482D01*
X0283714Y0144458D01*
X0283865Y0144430D01*
X0284015Y0144399D01*
X0284164Y0144363D01*
X0284312Y0144324D01*
X0284459Y0144281D01*
X0284605Y0144234D01*
X0284750Y0144183D01*
X0284893Y0144128D01*
X0285035Y0144070D01*
X0285175Y0144008D01*
X0285314Y0143943D01*
X0285451Y0143874D01*
X0285586Y0143801D01*
X0285719Y0143725D01*
X0285850Y0143645D01*
X0285979Y0143563D01*
X0286106Y0143476D01*
X0286231Y0143387D01*
X0286353Y0143294D01*
X0286472Y0143198D01*
X0286590Y0143099D01*
X0286704Y0142998D01*
X0286816Y0142893D01*
X0286925Y0142785D01*
X0287031Y0142674D01*
X0287135Y0142561D01*
X0287235Y0142445D01*
X0287333Y0142327D01*
X0287427Y0142206D01*
X0287518Y0142083D01*
X0287606Y0141957D01*
X0287690Y0141829D01*
X0287772Y0141699D01*
X0287849Y0141567D01*
X0287924Y0141433D01*
X0287995Y0141297D01*
X0288062Y0141159D01*
X0288126Y0141019D01*
X0288186Y0140878D01*
X0288242Y0140736D01*
X0288295Y0140592D01*
X0288344Y0140446D01*
X0288389Y0140300D01*
X0288430Y0140152D01*
X0288467Y0140004D01*
X0288501Y0139854D01*
X0288531Y0139703D01*
X0288556Y0139552D01*
X0288578Y0139401D01*
X0288596Y0139248D01*
X0288610Y0139096D01*
X0288620Y0138943D01*
X0288626Y0138789D01*
X0288628Y0138636D01*
X0288626Y0138483D01*
X0288620Y0138329D01*
X0288610Y0138176D01*
X0288596Y0138024D01*
X0288578Y0137871D01*
X0288556Y0137720D01*
X0288531Y0137569D01*
X0288501Y0137418D01*
X0288467Y0137268D01*
X0288430Y0137120D01*
X0288389Y0136972D01*
X0288344Y0136826D01*
X0288295Y0136680D01*
X0288242Y0136536D01*
X0288186Y0136394D01*
X0288126Y0136253D01*
X0288062Y0136113D01*
X0287995Y0135975D01*
X0287924Y0135839D01*
X0287849Y0135705D01*
X0287772Y0135573D01*
X0287690Y0135443D01*
X0287606Y0135315D01*
X0287518Y0135189D01*
X0287427Y0135066D01*
X0287333Y0134945D01*
X0287235Y0134827D01*
X0287135Y0134711D01*
X0287031Y0134598D01*
X0286925Y0134487D01*
X0286816Y0134379D01*
X0286704Y0134274D01*
X0286590Y0134173D01*
X0286472Y0134074D01*
X0286353Y0133978D01*
X0286231Y0133885D01*
X0286106Y0133796D01*
X0285979Y0133709D01*
X0285850Y0133627D01*
X0285719Y0133547D01*
X0285586Y0133471D01*
X0285451Y0133398D01*
X0285314Y0133329D01*
X0285175Y0133264D01*
X0285035Y0133202D01*
X0284893Y0133144D01*
X0284750Y0133089D01*
X0284605Y0133038D01*
X0284459Y0132991D01*
X0284312Y0132948D01*
X0284164Y0132909D01*
X0284015Y0132873D01*
X0283865Y0132842D01*
X0283714Y0132814D01*
X0283563Y0132790D01*
X0283410Y0132770D01*
X0283258Y0132754D01*
X0283105Y0132742D01*
X0282952Y0132734D01*
X0282799Y0132730D01*
X0282645Y0132730D01*
X0282492Y0132734D01*
X0282339Y0132742D01*
X0282186Y0132754D01*
X0282034Y0132770D01*
X0281881Y0132790D01*
X0281730Y0132814D01*
X0281579Y0132842D01*
X0281429Y0132873D01*
X0281280Y0132909D01*
X0281132Y0132948D01*
X0280985Y0132991D01*
X0280839Y0133038D01*
X0280694Y0133089D01*
X0280551Y0133144D01*
X0280409Y0133202D01*
X0280269Y0133264D01*
X0280130Y0133329D01*
X0279993Y0133398D01*
X0279858Y0133471D01*
X0279725Y0133547D01*
X0279594Y0133627D01*
X0279465Y0133709D01*
X0279338Y0133796D01*
X0279213Y0133885D01*
X0279091Y0133978D01*
X0278972Y0134074D01*
X0278854Y0134173D01*
X0278740Y0134274D01*
X0278628Y0134379D01*
X0278519Y0134487D01*
X0278413Y0134598D01*
X0278309Y0134711D01*
X0278209Y0134827D01*
X0278111Y0134945D01*
X0278017Y0135066D01*
X0277926Y0135189D01*
X0277838Y0135315D01*
X0277754Y0135443D01*
X0277672Y0135573D01*
X0277595Y0135705D01*
X0277520Y0135839D01*
X0277449Y0135975D01*
X0277382Y0136113D01*
X0277318Y0136253D01*
X0277258Y0136394D01*
X0277202Y0136536D01*
X0277149Y0136680D01*
X0277100Y0136826D01*
X0277055Y0136972D01*
X0277014Y0137120D01*
X0276977Y0137268D01*
X0276943Y0137418D01*
X0276913Y0137569D01*
X0276888Y0137720D01*
X0276866Y0137871D01*
X0276848Y0138024D01*
X0276834Y0138176D01*
X0276824Y0138329D01*
X0276818Y0138483D01*
X0276816Y0138636D01*
D11*
X0297531Y0138315D03*
X0297531Y0132315D03*
X0297531Y0144315D03*
X0296331Y0173115D03*
X0299931Y0176715D03*
X0296331Y0179115D03*
X0296331Y0185115D03*
X0296331Y0191115D03*
X0296331Y0197115D03*
X0289131Y0114315D03*
X0291531Y0110715D03*
X0267587Y0088731D03*
X0263587Y0088731D03*
X0241437Y0087231D03*
X0242537Y0064431D03*
X0263331Y0059715D03*
X0263331Y0055515D03*
X0262987Y0029531D03*
X0203687Y0058331D03*
X0195887Y0044531D03*
X0173437Y0091631D03*
X0170637Y0095231D03*
X0168637Y0098031D03*
X0176187Y0130931D03*
X0163037Y0147681D03*
X0156637Y0150031D03*
X0077331Y0183015D03*
X0078531Y0188715D03*
X0078531Y0194715D03*
X0078531Y0200715D03*
X0078531Y0206715D03*
X0073431Y0178215D03*
X0067131Y0177315D03*
X0061731Y0177315D03*
X0052131Y0177315D03*
X0041931Y0177315D03*
X0037131Y0177315D03*
X0029931Y0179115D03*
X0025131Y0180315D03*
X0020931Y0182115D03*
X0017331Y0184515D03*
X0016131Y0188715D03*
X0016131Y0194715D03*
X0016131Y0200715D03*
X0016131Y0206715D03*
X0080237Y0052231D03*
X0084437Y0052231D03*
X0072137Y0050431D03*
X0056012Y0050556D03*
X0048387Y0041681D03*
D12*
X0056012Y0046556D03*
X0059012Y0048556D03*
X0062012Y0046556D03*
X0062012Y0050556D03*
X0065131Y0040515D03*
X0066331Y0032715D03*
X0087531Y0027315D03*
X0089515Y0060683D03*
X0062931Y0073515D03*
X0058731Y0100515D03*
X0041931Y0099515D03*
X0035931Y0109115D03*
X0026031Y0109115D03*
X0038331Y0119115D03*
X0034731Y0122115D03*
X0045931Y0128515D03*
X0041746Y0140652D03*
X0045931Y0151915D03*
X0037446Y0156852D03*
X0026131Y0166915D03*
X0022446Y0154352D03*
X0025131Y0141915D03*
X0026331Y0138315D03*
X0009531Y0133515D03*
X0009531Y0120915D03*
X0009531Y0103515D03*
X0009531Y0081315D03*
X0062931Y0116715D03*
X0095931Y0145515D03*
X0098931Y0142515D03*
X0112131Y0133463D03*
X0121931Y0136863D03*
X0120131Y0153663D03*
X0117531Y0156663D03*
X0111531Y0155115D03*
X0106731Y0155115D03*
X0093531Y0169515D03*
X0086931Y0167715D03*
X0070331Y0162063D03*
X0063331Y0162715D03*
X0063931Y0155515D03*
X0068931Y0152115D03*
X0064946Y0149352D03*
X0056331Y0152115D03*
X0055146Y0162452D03*
X0118131Y0119715D03*
X0126331Y0112063D03*
X0128731Y0108863D03*
X0131931Y0105663D03*
X0134331Y0097663D03*
X0130331Y0092715D03*
X0133131Y0089115D03*
X0131237Y0086031D03*
X0127931Y0082715D03*
X0117131Y0073715D03*
X0153531Y0069915D03*
X0155931Y0089115D03*
X0169531Y0101663D03*
X0158931Y0106063D03*
X0156731Y0108663D03*
X0161131Y0111263D03*
X0176131Y0116463D03*
X0186331Y0126663D03*
X0187131Y0131115D03*
X0184731Y0133863D03*
X0182331Y0137263D03*
X0192731Y0134463D03*
X0194731Y0150863D03*
X0198131Y0153863D03*
X0203331Y0156163D03*
X0206331Y0162115D03*
X0196331Y0172115D03*
X0188331Y0168263D03*
X0186931Y0165063D03*
X0177931Y0155915D03*
X0213131Y0177063D03*
X0222931Y0175663D03*
X0256131Y0188263D03*
X0260531Y0194663D03*
X0303531Y0140715D03*
X0291531Y0131115D03*
X0285531Y0117320D03*
X0279731Y0107715D03*
X0275931Y0102715D03*
X0269331Y0100915D03*
X0269331Y0097515D03*
X0269331Y0093115D03*
X0272331Y0089115D03*
X0275931Y0091515D03*
X0285531Y0088515D03*
X0284331Y0082515D03*
X0279531Y0074715D03*
X0278331Y0067515D03*
X0271731Y0064515D03*
X0284331Y0060915D03*
X0278331Y0053115D03*
X0271731Y0047115D03*
X0285531Y0045315D03*
X0284931Y0039315D03*
X0279931Y0034315D03*
X0277531Y0031515D03*
X0283531Y0023915D03*
X0277731Y0018315D03*
X0293931Y0035915D03*
X0293931Y0057515D03*
X0293931Y0079115D03*
X0304931Y0097515D03*
X0293931Y0101115D03*
X0304731Y0107115D03*
X0251331Y0081915D03*
X0247731Y0074715D03*
X0234531Y0063015D03*
X0229331Y0054715D03*
X0224731Y0061115D03*
X0215731Y0049315D03*
X0229331Y0039315D03*
X0251531Y0042315D03*
X0256931Y0044915D03*
X0211131Y0077315D03*
X0214731Y0085515D03*
X0191531Y0082315D03*
X0189931Y0077915D03*
X0205131Y0063915D03*
X0196531Y0061515D03*
X0192331Y0061515D03*
X0242531Y0098715D03*
X0250531Y0109515D03*
X0237531Y0112715D03*
D13*
X0301837Y0183831D03*
X0307837Y0183831D03*
X0313837Y0183831D03*
X0100131Y0063715D03*
X0094131Y0063715D03*
X0085698Y0026778D03*
X0079698Y0026778D03*
X0258531Y0017115D03*
X0264531Y0017115D03*
X0270531Y0017115D03*
D14*
X0253931Y0027515D03*
X0223931Y0027515D03*
X0213931Y0027515D03*
X0203931Y0027515D03*
X0203931Y0027515D03*
X0193931Y0027515D03*
X0183931Y0027515D03*
X0173931Y0027515D03*
X0163931Y0027515D03*
X0153931Y0027515D03*
X0143931Y0027515D03*
X0143931Y0037515D03*
X0153931Y0037515D03*
X0163931Y0037515D03*
X0173931Y0037515D03*
X0183931Y0037515D03*
X0193931Y0037515D03*
X0203931Y0037515D03*
X0123931Y0027915D03*
X0113931Y0027915D03*
X0103931Y0027915D03*
X0031931Y0027515D03*
X0021931Y0027515D03*
X0021931Y0037515D03*
X0031931Y0037515D03*
X0031931Y0047515D03*
X0021931Y0047515D03*
X0031931Y0057515D03*
X0031931Y0017515D03*
X0021931Y0017515D03*
X0100131Y0168915D03*
X0097131Y0183263D03*
X0107131Y0183263D03*
X0117131Y0183263D03*
X0127131Y0183263D03*
X0137131Y0183263D03*
X0147131Y0183263D03*
X0157131Y0183263D03*
X0167131Y0183263D03*
X0177131Y0183263D03*
X0187131Y0183263D03*
X0197131Y0183263D03*
X0207131Y0183263D03*
X0217131Y0183263D03*
X0217131Y0193263D03*
X0207131Y0193263D03*
X0197131Y0193263D03*
X0187131Y0193263D03*
X0177131Y0193263D03*
X0167131Y0193263D03*
X0157131Y0193263D03*
X0147131Y0193263D03*
X0137131Y0193263D03*
X0127131Y0193263D03*
X0117131Y0193263D03*
X0107131Y0193263D03*
X0097131Y0193263D03*
X0232131Y0167715D03*
X0242131Y0167715D03*
X0252131Y0167715D03*
X0262131Y0167715D03*
X0272131Y0167715D03*
X0272131Y0157715D03*
X0262131Y0157715D03*
X0252131Y0157715D03*
X0242131Y0157715D03*
X0232131Y0157715D03*
X0304418Y0195554D03*
X0312331Y0173915D03*
X0312331Y0163915D03*
X0312331Y0153915D03*
X0312331Y0133915D03*
X0312331Y0123915D03*
X0312331Y0113915D03*
X0312331Y0093715D03*
X0312331Y0083715D03*
X0312331Y0073715D03*
X0312331Y0053715D03*
X0312331Y0043715D03*
X0312331Y0033715D03*
D15*
X0312331Y0023715D03*
X0312331Y0063715D03*
X0312331Y0103915D03*
X0312331Y0143915D03*
X0314418Y0195554D03*
X0243931Y0027515D03*
X0233931Y0027515D03*
X0133931Y0027915D03*
X0021931Y0057515D03*
D16*
X0017131Y0081515D03*
X0017131Y0106515D03*
X0017131Y0111515D03*
X0017131Y0116515D03*
X0017131Y0131515D03*
X0017131Y0136515D03*
X0017131Y0176515D03*
X0087131Y0176515D03*
X0087131Y0156515D03*
X0087131Y0151515D03*
X0087131Y0146515D03*
X0087131Y0111515D03*
X0087131Y0081515D03*
D17*
X0067131Y0181515D03*
X0062131Y0181515D03*
X0057131Y0181515D03*
X0052131Y0181515D03*
X0047131Y0181515D03*
X0042131Y0181515D03*
X0037131Y0181515D03*
D18*
X0029631Y0199415D03*
X0064631Y0199415D03*
D19*
X0047131Y0199415D03*
D20*
X0059921Y0187815D02*
X0064032Y0187815D01*
X0064032Y0198815D01*
X0065231Y0198815D01*
X0065231Y0187815D01*
X0069592Y0187815D01*
X0069999Y0187924D01*
X0070364Y0188135D01*
X0070662Y0188433D01*
X0070872Y0188797D01*
X0070981Y0189204D01*
X0070981Y0198815D01*
X0065232Y0198815D01*
X0065232Y0200015D01*
X0070981Y0200015D01*
X0070981Y0207902D01*
X0257242Y0207902D01*
X0324429Y0207348D01*
X0324429Y0181377D01*
X0320305Y0185501D01*
X0319518Y0186289D01*
X0318488Y0186715D01*
X0317737Y0186715D01*
X0317737Y0187644D01*
X0316800Y0188581D01*
X0310874Y0188581D01*
X0310837Y0188544D01*
X0310800Y0188581D01*
X0305437Y0188581D01*
X0305437Y0190954D01*
X0306323Y0190954D01*
X0309018Y0193649D01*
X0309018Y0197460D01*
X0306323Y0200154D01*
X0302513Y0200154D01*
X0299818Y0197460D01*
X0299818Y0196045D01*
X0298785Y0195012D01*
X0298237Y0193689D01*
X0298237Y0187944D01*
X0297937Y0187644D01*
X0297937Y0180019D01*
X0298874Y0179081D01*
X0304800Y0179081D01*
X0304837Y0179119D01*
X0304874Y0179081D01*
X0305037Y0179081D01*
X0305037Y0178580D01*
X0301945Y0175489D01*
X0301158Y0174701D01*
X0300731Y0173672D01*
X0300731Y0107758D01*
X0300749Y0107715D01*
X0282531Y0107715D01*
X0282531Y0108272D01*
X0282105Y0109301D01*
X0281318Y0110089D01*
X0280288Y0110515D01*
X0280043Y0110515D01*
X0278843Y0111715D01*
X0252291Y0111715D01*
X0252118Y0111889D01*
X0251088Y0112315D01*
X0249975Y0112315D01*
X0248945Y0111889D01*
X0248158Y0111101D01*
X0247731Y0110072D01*
X0247731Y0108958D01*
X0248158Y0107929D01*
X0248945Y0107141D01*
X0249975Y0106715D01*
X0251088Y0106715D01*
X0252118Y0107141D01*
X0252291Y0107315D01*
X0274220Y0107315D01*
X0271731Y0104826D01*
X0271731Y0103216D01*
X0271045Y0103161D01*
X0270918Y0103289D01*
X0269888Y0103715D01*
X0268775Y0103715D01*
X0267745Y0103289D01*
X0266958Y0102501D01*
X0266531Y0101472D01*
X0266531Y0100358D01*
X0266958Y0099329D01*
X0267072Y0099215D01*
X0266958Y0099101D01*
X0266531Y0098072D01*
X0266531Y0096958D01*
X0266958Y0095929D01*
X0267572Y0095315D01*
X0266958Y0094701D01*
X0266531Y0093672D01*
X0266531Y0092558D01*
X0266958Y0091529D01*
X0267745Y0090741D01*
X0268775Y0090315D01*
X0269798Y0090315D01*
X0269531Y0089672D01*
X0269531Y0089475D01*
X0269331Y0088992D01*
X0269331Y0066038D01*
X0269211Y0065747D01*
X0258531Y0076426D01*
X0253976Y0080982D01*
X0254131Y0081358D01*
X0254131Y0082472D01*
X0253705Y0083501D01*
X0252918Y0084289D01*
X0251888Y0084715D01*
X0250775Y0084715D01*
X0249745Y0084289D01*
X0248958Y0083501D01*
X0248531Y0082472D01*
X0248531Y0081358D01*
X0248958Y0080329D01*
X0249131Y0080155D01*
X0249131Y0079604D01*
X0250420Y0078315D01*
X0251920Y0076815D01*
X0249591Y0076815D01*
X0249318Y0077089D01*
X0248288Y0077515D01*
X0247175Y0077515D01*
X0246145Y0077089D01*
X0245358Y0076301D01*
X0244931Y0075272D01*
X0244931Y0074158D01*
X0245358Y0073129D01*
X0246145Y0072341D01*
X0247175Y0071915D01*
X0248288Y0071915D01*
X0249318Y0072341D01*
X0249591Y0072615D01*
X0252720Y0072615D01*
X0271731Y0053604D01*
X0271731Y0049915D01*
X0271175Y0049915D01*
X0270931Y0049814D01*
X0270931Y0049933D01*
X0270998Y0050000D01*
X0271513Y0051242D01*
X0271513Y0052587D01*
X0270998Y0053830D01*
X0270047Y0054781D01*
X0268804Y0055296D01*
X0267459Y0055296D01*
X0266216Y0054781D01*
X0265265Y0053830D01*
X0264750Y0052587D01*
X0264750Y0051242D01*
X0265265Y0050000D01*
X0265331Y0049933D01*
X0265331Y0026675D01*
X0263831Y0025175D01*
X0263718Y0025289D01*
X0262688Y0025715D01*
X0259691Y0025715D01*
X0258531Y0026875D01*
X0258531Y0029420D01*
X0255837Y0032115D01*
X0252026Y0032115D01*
X0249331Y0029420D01*
X0249331Y0025610D01*
X0252026Y0022915D01*
X0254572Y0022915D01*
X0255622Y0021865D01*
X0255569Y0021865D01*
X0254631Y0020928D01*
X0254631Y0019389D01*
X0206731Y0019389D01*
X0206731Y0023810D01*
X0208531Y0025610D01*
X0208531Y0029420D01*
X0205837Y0032115D01*
X0202026Y0032115D01*
X0199331Y0029420D01*
X0199331Y0025610D01*
X0201131Y0023810D01*
X0201131Y0019389D01*
X0064331Y0019389D01*
X0064331Y0020805D01*
X0064513Y0021242D01*
X0064513Y0022587D01*
X0063998Y0023830D01*
X0063047Y0024781D01*
X0061804Y0025296D01*
X0060459Y0025296D01*
X0059216Y0024781D01*
X0058265Y0023830D01*
X0057750Y0022587D01*
X0057750Y0021242D01*
X0057931Y0020805D01*
X0057931Y0019115D01*
X0036531Y0019115D01*
X0036531Y0019420D01*
X0033837Y0022115D01*
X0030026Y0022115D01*
X0027331Y0019420D01*
X0027331Y0015610D01*
X0028689Y0014252D01*
X0025174Y0014252D01*
X0026531Y0015610D01*
X0026531Y0019420D01*
X0023837Y0022115D01*
X0020026Y0022115D01*
X0017331Y0019420D01*
X0017331Y0015610D01*
X0018689Y0014252D01*
X0008731Y0014252D01*
X0008731Y0078616D01*
X0008975Y0078515D01*
X0010088Y0078515D01*
X0011118Y0078941D01*
X0011905Y0079729D01*
X0012331Y0080758D01*
X0012331Y0132355D01*
X0012531Y0132555D01*
X0012531Y0131915D01*
X0016731Y0131915D01*
X0016731Y0131115D01*
X0012531Y0131115D01*
X0012531Y0129304D01*
X0012641Y0128897D01*
X0012851Y0128533D01*
X0013149Y0128235D01*
X0013514Y0128024D01*
X0013921Y0127915D01*
X0016731Y0127915D01*
X0016731Y0131115D01*
X0017531Y0131115D01*
X0017531Y0127915D01*
X0020342Y0127915D01*
X0020749Y0128024D01*
X0021114Y0128235D01*
X0021412Y0128533D01*
X0021622Y0128897D01*
X0021731Y0129304D01*
X0021731Y0131115D01*
X0017532Y0131115D01*
X0017532Y0131915D01*
X0021731Y0131915D01*
X0021731Y0133726D01*
X0021705Y0133825D01*
X0021731Y0133852D01*
X0021731Y0139178D01*
X0020794Y0140115D01*
X0013469Y0140115D01*
X0012669Y0139315D01*
X0011975Y0139315D01*
X0010945Y0138889D01*
X0010158Y0138101D01*
X0008731Y0136675D01*
X0008731Y0207902D01*
X0023281Y0207902D01*
X0023281Y0200015D01*
X0029031Y0200015D01*
X0029031Y0198815D01*
X0023281Y0198815D01*
X0023281Y0189204D01*
X0023391Y0188797D01*
X0023601Y0188433D01*
X0023899Y0188135D01*
X0024264Y0187924D01*
X0024671Y0187815D01*
X0029032Y0187815D01*
X0029032Y0198815D01*
X0030231Y0198815D01*
X0030231Y0187815D01*
X0034122Y0187815D01*
X0034131Y0185777D01*
X0033851Y0185497D01*
X0033641Y0185133D01*
X0033531Y0184726D01*
X0033531Y0181915D01*
X0036731Y0181915D01*
X0036731Y0181115D01*
X0033531Y0181115D01*
X0033531Y0178304D01*
X0033641Y0177897D01*
X0033851Y0177533D01*
X0034149Y0177235D01*
X0034514Y0177024D01*
X0034921Y0176915D01*
X0036731Y0176915D01*
X0036731Y0181115D01*
X0037531Y0181115D01*
X0037531Y0176915D01*
X0039342Y0176915D01*
X0039631Y0176992D01*
X0039921Y0176915D01*
X0041731Y0176915D01*
X0041731Y0181115D01*
X0038531Y0181115D01*
X0037532Y0181115D01*
X0037532Y0181915D01*
X0041731Y0181915D01*
X0041731Y0181115D01*
X0042531Y0181115D01*
X0042531Y0176915D01*
X0044342Y0176915D01*
X0044442Y0176942D01*
X0044469Y0176915D01*
X0049794Y0176915D01*
X0049821Y0176942D01*
X0049921Y0176915D01*
X0051731Y0176915D01*
X0051731Y0181115D01*
X0052531Y0181115D01*
X0052531Y0176915D01*
X0054342Y0176915D01*
X0054442Y0176942D01*
X0054469Y0176915D01*
X0059794Y0176915D01*
X0059821Y0176942D01*
X0059921Y0176915D01*
X0061731Y0176915D01*
X0061731Y0181115D01*
X0062531Y0181115D01*
X0062531Y0176915D01*
X0064342Y0176915D01*
X0064631Y0176992D01*
X0064921Y0176915D01*
X0066731Y0176915D01*
X0066731Y0181115D01*
X0063531Y0181115D01*
X0062532Y0181115D01*
X0062532Y0181915D01*
X0066731Y0181915D01*
X0066731Y0181115D01*
X0067531Y0181115D01*
X0067531Y0176915D01*
X0069342Y0176915D01*
X0069749Y0177024D01*
X0070114Y0177235D01*
X0070412Y0177533D01*
X0070622Y0177897D01*
X0070731Y0178304D01*
X0070731Y0181115D01*
X0067532Y0181115D01*
X0067532Y0181915D01*
X0070731Y0181915D01*
X0070731Y0184726D01*
X0070622Y0185133D01*
X0070412Y0185497D01*
X0070114Y0185795D01*
X0069749Y0186006D01*
X0069342Y0186115D01*
X0067531Y0186115D01*
X0067531Y0181915D01*
X0066731Y0181915D01*
X0066731Y0186115D01*
X0064921Y0186115D01*
X0064631Y0186037D01*
X0064342Y0186115D01*
X0062531Y0186115D01*
X0062531Y0181915D01*
X0061731Y0181915D01*
X0061731Y0186115D01*
X0059937Y0186115D01*
X0059938Y0186244D01*
X0059928Y0186254D01*
X0059921Y0187815D01*
X0059924Y0187293D02*
X0094656Y0187293D01*
X0095226Y0187863D02*
X0092531Y0185168D01*
X0092531Y0183663D01*
X0096731Y0183663D01*
X0096731Y0182863D01*
X0092531Y0182863D01*
X0092531Y0181358D01*
X0095226Y0178663D01*
X0096731Y0178663D01*
X0096731Y0182863D01*
X0097531Y0182863D01*
X0097531Y0178663D01*
X0099037Y0178663D01*
X0101731Y0181358D01*
X0101731Y0182863D01*
X0097532Y0182863D01*
X0097532Y0183663D01*
X0101731Y0183663D01*
X0101731Y0185168D01*
X0099037Y0187863D01*
X0097531Y0187863D01*
X0097531Y0183663D01*
X0096731Y0183663D01*
X0096731Y0187863D01*
X0095226Y0187863D01*
X0095226Y0188663D02*
X0099037Y0188663D01*
X0101731Y0191358D01*
X0101731Y0195168D01*
X0099037Y0197863D01*
X0095226Y0197863D01*
X0092531Y0195168D01*
X0092531Y0191358D01*
X0095226Y0188663D01*
X0094199Y0189690D02*
X0070981Y0189690D01*
X0070981Y0190889D02*
X0093000Y0190889D01*
X0092531Y0192087D02*
X0070981Y0192087D01*
X0070981Y0193286D02*
X0092531Y0193286D01*
X0092531Y0194484D02*
X0070981Y0194484D01*
X0070981Y0195683D02*
X0093046Y0195683D01*
X0094244Y0196881D02*
X0070981Y0196881D01*
X0070981Y0198080D02*
X0300438Y0198080D01*
X0299818Y0196881D02*
X0220019Y0196881D01*
X0219037Y0197863D02*
X0215226Y0197863D01*
X0212531Y0195168D01*
X0212531Y0191358D01*
X0213526Y0190363D01*
X0213001Y0190363D01*
X0211731Y0191633D01*
X0211731Y0195168D01*
X0209037Y0197863D01*
X0205226Y0197863D01*
X0202531Y0195168D01*
X0202531Y0191358D01*
X0205226Y0188663D01*
X0208762Y0188663D01*
X0210031Y0187393D01*
X0211262Y0186163D01*
X0213526Y0186163D01*
X0212531Y0185168D01*
X0212531Y0181358D01*
X0214265Y0179624D01*
X0213688Y0179863D01*
X0213344Y0179863D01*
X0211731Y0181529D01*
X0211731Y0185168D01*
X0209037Y0187863D01*
X0205226Y0187863D01*
X0202531Y0185168D01*
X0202531Y0181358D01*
X0205226Y0178663D01*
X0208661Y0178663D01*
X0210331Y0176937D01*
X0210331Y0176506D01*
X0210758Y0175477D01*
X0211545Y0174689D01*
X0212575Y0174263D01*
X0213688Y0174263D01*
X0214718Y0174689D01*
X0215505Y0175477D01*
X0215931Y0176506D01*
X0215931Y0177620D01*
X0215505Y0178649D01*
X0215491Y0178663D01*
X0219037Y0178663D01*
X0221731Y0181358D01*
X0221731Y0185168D01*
X0220737Y0186163D01*
X0254272Y0186163D01*
X0254545Y0185889D01*
X0255575Y0185463D01*
X0256688Y0185463D01*
X0257718Y0185889D01*
X0258505Y0186677D01*
X0258781Y0187343D01*
X0258831Y0187393D01*
X0258831Y0187465D01*
X0258931Y0187706D01*
X0258931Y0188820D01*
X0258831Y0189061D01*
X0258831Y0189133D01*
X0258781Y0189183D01*
X0258505Y0189849D01*
X0257718Y0190637D01*
X0256688Y0191063D01*
X0255575Y0191063D01*
X0254545Y0190637D01*
X0254272Y0190363D01*
X0220737Y0190363D01*
X0221731Y0191358D01*
X0221731Y0195168D01*
X0219037Y0197863D01*
X0221217Y0195683D02*
X0299455Y0195683D01*
X0298566Y0194484D02*
X0221731Y0194484D01*
X0221731Y0193286D02*
X0298237Y0193286D01*
X0298237Y0192087D02*
X0221731Y0192087D01*
X0221263Y0190889D02*
X0255154Y0190889D01*
X0257109Y0190889D02*
X0298237Y0190889D01*
X0298237Y0189690D02*
X0258571Y0189690D01*
X0258931Y0188492D02*
X0298237Y0188492D01*
X0297937Y0187293D02*
X0258760Y0187293D01*
X0257923Y0186095D02*
X0297937Y0186095D01*
X0297937Y0184896D02*
X0221731Y0184896D01*
X0221731Y0183698D02*
X0297937Y0183698D01*
X0297937Y0182499D02*
X0221731Y0182499D01*
X0221674Y0181301D02*
X0297937Y0181301D01*
X0297937Y0180102D02*
X0220476Y0180102D01*
X0219277Y0178904D02*
X0305037Y0178904D01*
X0304162Y0177705D02*
X0215896Y0177705D01*
X0215931Y0176507D02*
X0302963Y0176507D01*
X0301765Y0175308D02*
X0275650Y0175308D01*
X0275643Y0175315D02*
X0228220Y0175315D01*
X0226931Y0174026D01*
X0224531Y0171626D01*
X0224531Y0154805D01*
X0189163Y0118258D01*
X0188531Y0117626D01*
X0188531Y0117605D01*
X0188517Y0117590D01*
X0188531Y0116697D01*
X0188531Y0115804D01*
X0188546Y0115789D01*
X0188547Y0115768D01*
X0189189Y0115147D01*
X0197020Y0107315D01*
X0198843Y0107315D01*
X0200131Y0108604D01*
X0226443Y0134915D01*
X0257643Y0134915D01*
X0258931Y0136204D01*
X0270843Y0148115D01*
X0273243Y0148115D01*
X0274531Y0149404D01*
X0279331Y0154204D01*
X0279331Y0171626D01*
X0278043Y0172915D01*
X0278043Y0172915D01*
X0276931Y0174026D01*
X0276931Y0174026D01*
X0275643Y0175315D01*
X0276848Y0174110D02*
X0300913Y0174110D01*
X0300731Y0172911D02*
X0278047Y0172911D01*
X0279245Y0171713D02*
X0300731Y0171713D01*
X0300731Y0170514D02*
X0279331Y0170514D01*
X0279331Y0169315D02*
X0300731Y0169315D01*
X0300731Y0168117D02*
X0279331Y0168117D01*
X0279331Y0166918D02*
X0300731Y0166918D01*
X0300731Y0165720D02*
X0279331Y0165720D01*
X0279331Y0164521D02*
X0300731Y0164521D01*
X0300731Y0163323D02*
X0279331Y0163323D01*
X0279331Y0162124D02*
X0300731Y0162124D01*
X0300731Y0160926D02*
X0279331Y0160926D01*
X0279331Y0159727D02*
X0300731Y0159727D01*
X0300731Y0158529D02*
X0279331Y0158529D01*
X0279331Y0157330D02*
X0300731Y0157330D01*
X0300731Y0156132D02*
X0279331Y0156132D01*
X0279331Y0154933D02*
X0300731Y0154933D01*
X0300731Y0153735D02*
X0278863Y0153735D01*
X0277664Y0152536D02*
X0300731Y0152536D01*
X0300731Y0151338D02*
X0276466Y0151338D01*
X0275267Y0150139D02*
X0300731Y0150139D01*
X0300731Y0148941D02*
X0274069Y0148941D01*
X0272331Y0150315D02*
X0269931Y0150315D01*
X0256731Y0137115D01*
X0225531Y0137115D01*
X0197931Y0109515D01*
X0190731Y0116715D01*
X0226731Y0153915D01*
X0226731Y0170715D01*
X0229131Y0173115D01*
X0274731Y0173115D01*
X0277131Y0170715D01*
X0277131Y0155115D01*
X0272331Y0150315D01*
X0273354Y0151338D02*
X0224237Y0151338D01*
X0223078Y0150139D02*
X0269756Y0150139D01*
X0268557Y0148941D02*
X0221918Y0148941D01*
X0220758Y0147742D02*
X0267359Y0147742D01*
X0266160Y0146544D02*
X0219598Y0146544D01*
X0218438Y0145345D02*
X0264962Y0145345D01*
X0263763Y0144147D02*
X0217278Y0144147D01*
X0216119Y0142948D02*
X0262565Y0142948D01*
X0261366Y0141750D02*
X0214959Y0141750D01*
X0213799Y0140551D02*
X0260168Y0140551D01*
X0258969Y0139353D02*
X0212639Y0139353D01*
X0211479Y0138154D02*
X0257771Y0138154D01*
X0259683Y0136956D02*
X0275294Y0136956D01*
X0275217Y0137143D02*
X0276359Y0134385D01*
X0278471Y0132273D01*
X0281229Y0131131D01*
X0284215Y0131131D01*
X0286974Y0132273D01*
X0289085Y0134385D01*
X0290228Y0137143D01*
X0290228Y0140129D01*
X0289085Y0142888D01*
X0286974Y0144999D01*
X0284215Y0146142D01*
X0281229Y0146142D01*
X0278471Y0144999D01*
X0276359Y0142888D01*
X0275217Y0140129D01*
X0275217Y0137143D01*
X0275217Y0138154D02*
X0260882Y0138154D01*
X0262080Y0139353D02*
X0275217Y0139353D01*
X0275391Y0140551D02*
X0263279Y0140551D01*
X0264478Y0141750D02*
X0275888Y0141750D01*
X0276420Y0142948D02*
X0265676Y0142948D01*
X0266875Y0144147D02*
X0277618Y0144147D01*
X0279306Y0145345D02*
X0268073Y0145345D01*
X0269272Y0146544D02*
X0300731Y0146544D01*
X0300731Y0147742D02*
X0270470Y0147742D01*
X0274553Y0152536D02*
X0225397Y0152536D01*
X0226557Y0153735D02*
X0229889Y0153735D01*
X0230309Y0153315D02*
X0233954Y0153315D01*
X0236531Y0155892D01*
X0236531Y0159537D01*
X0233954Y0162115D01*
X0230309Y0162115D01*
X0227731Y0159537D01*
X0227731Y0155892D01*
X0230309Y0153315D01*
X0228691Y0154933D02*
X0226731Y0154933D01*
X0226731Y0156132D02*
X0227731Y0156132D01*
X0227731Y0157330D02*
X0226731Y0157330D01*
X0226731Y0158529D02*
X0227731Y0158529D01*
X0227921Y0159727D02*
X0226731Y0159727D01*
X0226731Y0160926D02*
X0229120Y0160926D01*
X0230226Y0163115D02*
X0231731Y0163115D01*
X0231731Y0167315D01*
X0227531Y0167315D01*
X0227531Y0165810D01*
X0230226Y0163115D01*
X0230018Y0163323D02*
X0226731Y0163323D01*
X0226731Y0164521D02*
X0228820Y0164521D01*
X0227621Y0165720D02*
X0226731Y0165720D01*
X0226731Y0166918D02*
X0227531Y0166918D01*
X0227531Y0168115D02*
X0231731Y0168115D01*
X0231731Y0167315D01*
X0232531Y0167315D01*
X0232531Y0163115D01*
X0234037Y0163115D01*
X0236731Y0165810D01*
X0236731Y0167315D01*
X0232532Y0167315D01*
X0232532Y0168115D01*
X0236731Y0168115D01*
X0236731Y0169620D01*
X0234037Y0172315D01*
X0232531Y0172315D01*
X0232531Y0168115D01*
X0231731Y0168115D01*
X0231731Y0172315D01*
X0230226Y0172315D01*
X0227531Y0169620D01*
X0227531Y0168115D01*
X0227531Y0168117D02*
X0226731Y0168117D01*
X0226731Y0169315D02*
X0227531Y0169315D01*
X0226731Y0170514D02*
X0228425Y0170514D01*
X0227729Y0171713D02*
X0229624Y0171713D01*
X0228928Y0172911D02*
X0274935Y0172911D01*
X0273954Y0172115D02*
X0270309Y0172115D01*
X0267731Y0169537D01*
X0267731Y0165892D01*
X0270309Y0163315D01*
X0273954Y0163315D01*
X0276531Y0165892D01*
X0276531Y0169537D01*
X0273954Y0172115D01*
X0274356Y0171713D02*
X0276134Y0171713D01*
X0275555Y0170514D02*
X0277131Y0170514D01*
X0277131Y0169315D02*
X0276531Y0169315D01*
X0276531Y0168117D02*
X0277131Y0168117D01*
X0277131Y0166918D02*
X0276531Y0166918D01*
X0276359Y0165720D02*
X0277131Y0165720D01*
X0277131Y0164521D02*
X0275160Y0164521D01*
X0273962Y0163323D02*
X0277131Y0163323D01*
X0277131Y0162124D02*
X0226731Y0162124D01*
X0224531Y0162124D02*
X0209131Y0162124D01*
X0209131Y0162672D02*
X0208705Y0163701D01*
X0207918Y0164489D01*
X0206888Y0164915D01*
X0206501Y0164915D01*
X0199131Y0172285D01*
X0199131Y0172672D01*
X0198705Y0173701D01*
X0197918Y0174489D01*
X0196888Y0174915D01*
X0195775Y0174915D01*
X0194745Y0174489D01*
X0193958Y0173701D01*
X0193531Y0172672D01*
X0193531Y0171558D01*
X0193958Y0170529D01*
X0194745Y0169741D01*
X0195775Y0169315D01*
X0196162Y0169315D01*
X0203531Y0161945D01*
X0203531Y0161558D01*
X0203958Y0160529D01*
X0204745Y0159741D01*
X0205775Y0159315D01*
X0206888Y0159315D01*
X0207918Y0159741D01*
X0208705Y0160529D01*
X0209131Y0161558D01*
X0209131Y0162672D01*
X0208862Y0163323D02*
X0224531Y0163323D01*
X0224531Y0164521D02*
X0207838Y0164521D01*
X0205696Y0165720D02*
X0224531Y0165720D01*
X0224531Y0166918D02*
X0204498Y0166918D01*
X0203299Y0168117D02*
X0224531Y0168117D01*
X0224531Y0169315D02*
X0202101Y0169315D01*
X0200902Y0170514D02*
X0224531Y0170514D01*
X0224618Y0171713D02*
X0199704Y0171713D01*
X0199032Y0172911D02*
X0225816Y0172911D01*
X0226931Y0174026D02*
X0226931Y0174026D01*
X0227015Y0174110D02*
X0198297Y0174110D01*
X0194366Y0174110D02*
X0091679Y0174110D01*
X0091731Y0174304D02*
X0091731Y0176115D01*
X0087532Y0176115D01*
X0087532Y0176915D01*
X0091731Y0176915D01*
X0091731Y0178726D01*
X0091622Y0179133D01*
X0091412Y0179497D01*
X0091114Y0179795D01*
X0090749Y0180006D01*
X0090342Y0180115D01*
X0087531Y0180115D01*
X0087531Y0176915D01*
X0086731Y0176915D01*
X0086731Y0176115D01*
X0082531Y0176115D01*
X0082531Y0174304D01*
X0082641Y0173897D01*
X0082851Y0173533D01*
X0083149Y0173235D01*
X0083514Y0173024D01*
X0083921Y0172915D01*
X0086731Y0172915D01*
X0086731Y0176115D01*
X0087531Y0176115D01*
X0087531Y0172915D01*
X0090342Y0172915D01*
X0090749Y0173024D01*
X0091114Y0173235D01*
X0091412Y0173533D01*
X0091622Y0173897D01*
X0091731Y0174304D01*
X0091731Y0175308D02*
X0210927Y0175308D01*
X0210331Y0176507D02*
X0087532Y0176507D01*
X0086731Y0176507D02*
X0017532Y0176507D01*
X0017532Y0176115D02*
X0017532Y0176915D01*
X0021731Y0176915D01*
X0021731Y0178726D01*
X0021622Y0179133D01*
X0021412Y0179497D01*
X0021114Y0179795D01*
X0020749Y0180006D01*
X0020342Y0180115D01*
X0017531Y0180115D01*
X0017531Y0176915D01*
X0016731Y0176915D01*
X0016731Y0176115D01*
X0012531Y0176115D01*
X0012531Y0174304D01*
X0012641Y0173897D01*
X0012851Y0173533D01*
X0013149Y0173235D01*
X0013514Y0173024D01*
X0013921Y0172915D01*
X0016731Y0172915D01*
X0016731Y0176115D01*
X0017531Y0176115D01*
X0017531Y0172915D01*
X0020342Y0172915D01*
X0020749Y0173024D01*
X0021114Y0173235D01*
X0021412Y0173533D01*
X0021622Y0173897D01*
X0021731Y0174304D01*
X0021731Y0176115D01*
X0017532Y0176115D01*
X0017531Y0175308D02*
X0016731Y0175308D01*
X0016731Y0174110D02*
X0017531Y0174110D01*
X0016731Y0176507D02*
X0008731Y0176507D01*
X0008731Y0177705D02*
X0012531Y0177705D01*
X0012531Y0176915D02*
X0012531Y0178726D01*
X0012641Y0179133D01*
X0012851Y0179497D01*
X0013149Y0179795D01*
X0013514Y0180006D01*
X0013921Y0180115D01*
X0016731Y0180115D01*
X0016731Y0176915D01*
X0012531Y0176915D01*
X0012531Y0175308D02*
X0008731Y0175308D01*
X0008731Y0174110D02*
X0012584Y0174110D01*
X0008731Y0172911D02*
X0097622Y0172911D01*
X0098226Y0173515D02*
X0095859Y0171148D01*
X0095118Y0171889D01*
X0094088Y0172315D01*
X0092975Y0172315D01*
X0091945Y0171889D01*
X0091158Y0171101D01*
X0090731Y0170072D01*
X0090731Y0160115D01*
X0089131Y0160115D01*
X0089131Y0165955D01*
X0089305Y0166129D01*
X0089731Y0167158D01*
X0089731Y0168272D01*
X0089305Y0169301D01*
X0088518Y0170089D01*
X0087488Y0170515D01*
X0086375Y0170515D01*
X0085345Y0170089D01*
X0084558Y0169301D01*
X0084131Y0168272D01*
X0084131Y0167158D01*
X0084558Y0166129D01*
X0084731Y0165955D01*
X0084731Y0160115D01*
X0083469Y0160115D01*
X0082531Y0159178D01*
X0082531Y0153852D01*
X0082558Y0153825D01*
X0082531Y0153726D01*
X0082531Y0151915D01*
X0086731Y0151915D01*
X0086731Y0151115D01*
X0082531Y0151115D01*
X0082531Y0149304D01*
X0082558Y0149204D01*
X0082531Y0149178D01*
X0082531Y0143852D01*
X0083469Y0142915D01*
X0090794Y0142915D01*
X0091731Y0143852D01*
X0091731Y0143915D01*
X0092588Y0143915D01*
X0093421Y0144260D01*
X0093558Y0143929D01*
X0094345Y0143141D01*
X0095375Y0142715D01*
X0096131Y0142715D01*
X0096131Y0141958D01*
X0096558Y0140929D01*
X0097345Y0140141D01*
X0098375Y0139715D01*
X0099488Y0139715D01*
X0100518Y0140141D01*
X0101305Y0140929D01*
X0101731Y0141958D01*
X0101731Y0142345D01*
X0102231Y0142845D01*
X0111701Y0152315D01*
X0112088Y0152315D01*
X0113118Y0152741D01*
X0113905Y0153529D01*
X0114331Y0154558D01*
X0114331Y0155672D01*
X0113905Y0156701D01*
X0113118Y0157489D01*
X0112088Y0157915D01*
X0110975Y0157915D01*
X0109945Y0157489D01*
X0109158Y0156701D01*
X0109131Y0156638D01*
X0109105Y0156701D01*
X0108318Y0157489D01*
X0107288Y0157915D01*
X0106175Y0157915D01*
X0105145Y0157489D01*
X0104358Y0156701D01*
X0103931Y0155672D01*
X0103931Y0155426D01*
X0096723Y0148218D01*
X0096488Y0148315D01*
X0096331Y0148315D01*
X0096331Y0166210D01*
X0098226Y0164315D01*
X0102037Y0164315D01*
X0104731Y0167010D01*
X0104731Y0170820D01*
X0102037Y0173515D01*
X0098226Y0173515D01*
X0096424Y0171713D02*
X0095294Y0171713D01*
X0091769Y0171713D02*
X0008731Y0171713D01*
X0008731Y0170514D02*
X0086372Y0170514D01*
X0087491Y0170514D02*
X0090915Y0170514D01*
X0090731Y0169315D02*
X0089291Y0169315D01*
X0089731Y0168117D02*
X0090731Y0168117D01*
X0090731Y0166918D02*
X0089632Y0166918D01*
X0089131Y0165720D02*
X0090731Y0165720D01*
X0090731Y0164521D02*
X0089131Y0164521D01*
X0089131Y0163323D02*
X0090731Y0163323D01*
X0090731Y0162124D02*
X0089131Y0162124D01*
X0089131Y0160926D02*
X0090731Y0160926D01*
X0096331Y0160926D02*
X0188099Y0160926D01*
X0189297Y0159727D02*
X0096331Y0159727D01*
X0096331Y0158529D02*
X0115438Y0158529D01*
X0115158Y0158249D02*
X0115945Y0159037D01*
X0116975Y0159463D01*
X0118088Y0159463D01*
X0119118Y0159037D01*
X0119905Y0158249D01*
X0120331Y0157220D01*
X0120331Y0156463D01*
X0120688Y0156463D01*
X0121718Y0156037D01*
X0122505Y0155249D01*
X0122931Y0154220D01*
X0122931Y0153106D01*
X0122505Y0152077D01*
X0122231Y0151803D01*
X0122231Y0139663D01*
X0122488Y0139663D01*
X0123518Y0139237D01*
X0124305Y0138449D01*
X0124731Y0137420D01*
X0124731Y0136306D01*
X0124305Y0135277D01*
X0123518Y0134489D01*
X0122488Y0134063D01*
X0121375Y0134063D01*
X0120345Y0134489D01*
X0119558Y0135277D01*
X0119131Y0136306D01*
X0119131Y0136693D01*
X0118731Y0137093D01*
X0114931Y0133293D01*
X0114931Y0132906D01*
X0114505Y0131877D01*
X0113718Y0131089D01*
X0112688Y0130663D01*
X0111575Y0130663D01*
X0110545Y0131089D01*
X0109758Y0131877D01*
X0109331Y0132906D01*
X0109331Y0134020D01*
X0109758Y0135049D01*
X0110545Y0135837D01*
X0111575Y0136263D01*
X0111962Y0136263D01*
X0115431Y0139733D01*
X0115431Y0154803D01*
X0115158Y0155077D01*
X0114731Y0156106D01*
X0114731Y0157220D01*
X0115158Y0158249D01*
X0114777Y0157330D02*
X0113276Y0157330D01*
X0114141Y0156132D02*
X0114731Y0156132D01*
X0114331Y0154933D02*
X0115301Y0154933D01*
X0115431Y0153735D02*
X0113991Y0153735D01*
X0112623Y0152536D02*
X0115431Y0152536D01*
X0115431Y0151338D02*
X0110724Y0151338D01*
X0109526Y0150139D02*
X0115431Y0150139D01*
X0115431Y0148941D02*
X0108327Y0148941D01*
X0107129Y0147742D02*
X0115431Y0147742D01*
X0115431Y0146544D02*
X0105930Y0146544D01*
X0104732Y0145345D02*
X0115431Y0145345D01*
X0115431Y0144147D02*
X0103533Y0144147D01*
X0102335Y0142948D02*
X0115431Y0142948D01*
X0115431Y0141750D02*
X0101645Y0141750D01*
X0100928Y0140551D02*
X0115431Y0140551D01*
X0115051Y0139353D02*
X0030339Y0139353D01*
X0031538Y0140551D02*
X0096935Y0140551D01*
X0096218Y0141750D02*
X0032736Y0141750D01*
X0033935Y0142948D02*
X0083435Y0142948D01*
X0082531Y0144147D02*
X0035133Y0144147D01*
X0036332Y0145345D02*
X0082531Y0145345D01*
X0082531Y0146544D02*
X0037530Y0146544D01*
X0038001Y0147015D02*
X0049401Y0147015D01*
X0053652Y0151266D01*
X0053958Y0150529D01*
X0054745Y0149741D01*
X0055775Y0149315D01*
X0056888Y0149315D01*
X0057918Y0149741D01*
X0058191Y0150015D01*
X0067072Y0150015D01*
X0067345Y0149741D01*
X0068375Y0149315D01*
X0069488Y0149315D01*
X0070518Y0149741D01*
X0071305Y0150529D01*
X0071731Y0151558D01*
X0071731Y0152672D01*
X0071305Y0153701D01*
X0070518Y0154489D01*
X0069488Y0154915D01*
X0068375Y0154915D01*
X0067345Y0154489D01*
X0067072Y0154215D01*
X0066424Y0154215D01*
X0066731Y0154958D01*
X0066731Y0156072D01*
X0066305Y0157101D01*
X0065518Y0157889D01*
X0064488Y0158315D01*
X0063375Y0158315D01*
X0062345Y0157889D01*
X0062072Y0157615D01*
X0054062Y0157615D01*
X0052831Y0156385D01*
X0048731Y0152285D01*
X0048731Y0152472D01*
X0048305Y0153501D01*
X0047518Y0154289D01*
X0046488Y0154715D01*
X0045375Y0154715D01*
X0044345Y0154289D01*
X0044172Y0154115D01*
X0034220Y0154115D01*
X0024820Y0144715D01*
X0024575Y0144715D01*
X0023545Y0144289D01*
X0022758Y0143501D01*
X0022331Y0142472D01*
X0022331Y0141358D01*
X0022758Y0140329D01*
X0023545Y0139541D01*
X0023770Y0139448D01*
X0023531Y0138872D01*
X0023531Y0137758D01*
X0023958Y0136729D01*
X0024745Y0135941D01*
X0025775Y0135515D01*
X0026888Y0135515D01*
X0027918Y0135941D01*
X0028705Y0136729D01*
X0029131Y0137758D01*
X0029131Y0138145D01*
X0036801Y0145815D01*
X0038001Y0147015D01*
X0035131Y0151915D02*
X0025131Y0141915D01*
X0022529Y0142948D02*
X0008731Y0142948D01*
X0008731Y0141750D02*
X0022331Y0141750D01*
X0022666Y0140551D02*
X0008731Y0140551D01*
X0008731Y0139353D02*
X0012706Y0139353D01*
X0010211Y0138154D02*
X0008731Y0138154D01*
X0008731Y0136956D02*
X0009012Y0136956D01*
X0012531Y0136215D02*
X0016831Y0136215D01*
X0017131Y0136515D01*
X0021731Y0136956D02*
X0023864Y0136956D01*
X0023531Y0138154D02*
X0021731Y0138154D01*
X0021556Y0139353D02*
X0023731Y0139353D01*
X0029141Y0138154D02*
X0113853Y0138154D01*
X0112654Y0136956D02*
X0028799Y0136956D01*
X0027473Y0135757D02*
X0110466Y0135757D01*
X0109555Y0134559D02*
X0021731Y0134559D01*
X0021731Y0135757D02*
X0025190Y0135757D01*
X0021731Y0133360D02*
X0109331Y0133360D01*
X0109640Y0132162D02*
X0021731Y0132162D01*
X0021731Y0130963D02*
X0110850Y0130963D01*
X0113413Y0130963D02*
X0134175Y0130963D01*
X0135373Y0132162D02*
X0114623Y0132162D01*
X0114998Y0133360D02*
X0136572Y0133360D01*
X0137770Y0134559D02*
X0123587Y0134559D01*
X0124504Y0135757D02*
X0138969Y0135757D01*
X0140167Y0136956D02*
X0124731Y0136956D01*
X0124427Y0138154D02*
X0141366Y0138154D01*
X0142564Y0139353D02*
X0123238Y0139353D01*
X0122231Y0140551D02*
X0143763Y0140551D01*
X0144961Y0141750D02*
X0122231Y0141750D01*
X0122231Y0142948D02*
X0146160Y0142948D01*
X0147358Y0144147D02*
X0122231Y0144147D01*
X0122231Y0145345D02*
X0148557Y0145345D01*
X0149755Y0146544D02*
X0122231Y0146544D01*
X0122231Y0147742D02*
X0150954Y0147742D01*
X0152152Y0148941D02*
X0122231Y0148941D01*
X0122231Y0150139D02*
X0153351Y0150139D01*
X0153881Y0150669D02*
X0125326Y0122115D01*
X0119654Y0122115D01*
X0118688Y0122515D01*
X0117575Y0122515D01*
X0116545Y0122089D01*
X0115758Y0121301D01*
X0115331Y0120272D01*
X0115331Y0119158D01*
X0115758Y0118129D01*
X0116545Y0117341D01*
X0117575Y0116915D01*
X0118688Y0116915D01*
X0119654Y0117315D01*
X0126798Y0117315D01*
X0127680Y0117680D01*
X0128355Y0118355D01*
X0150919Y0140919D01*
X0159943Y0131187D01*
X0159952Y0131061D01*
X0160495Y0130591D01*
X0160984Y0130064D01*
X0161110Y0130059D01*
X0170524Y0121916D01*
X0171059Y0121381D01*
X0171142Y0121381D01*
X0171205Y0121327D01*
X0171959Y0121381D01*
X0172715Y0121381D01*
X0172774Y0121441D01*
X0172858Y0121447D01*
X0173146Y0121780D01*
X0173259Y0121734D01*
X0174604Y0121734D01*
X0175847Y0122249D01*
X0176798Y0123200D01*
X0177313Y0124442D01*
X0177313Y0125787D01*
X0177257Y0125923D01*
X0182396Y0131062D01*
X0182438Y0131063D01*
X0182977Y0131643D01*
X0183537Y0132203D01*
X0183537Y0132246D01*
X0183566Y0132277D01*
X0183537Y0133068D01*
X0183537Y0133860D01*
X0183507Y0133890D01*
X0183505Y0133933D01*
X0182925Y0134472D01*
X0182921Y0134476D01*
X0183918Y0134889D01*
X0184705Y0135677D01*
X0185131Y0136706D01*
X0185131Y0137820D01*
X0184705Y0138849D01*
X0183918Y0139637D01*
X0182888Y0140063D01*
X0181775Y0140063D01*
X0180891Y0139697D01*
X0172922Y0147666D01*
X0172672Y0147770D01*
X0164791Y0155284D01*
X0164761Y0155343D01*
X0164447Y0155612D01*
X0164148Y0155898D01*
X0164086Y0155922D01*
X0164036Y0155964D01*
X0163643Y0156093D01*
X0163257Y0156242D01*
X0163191Y0156241D01*
X0163129Y0156261D01*
X0162716Y0156229D01*
X0162303Y0156219D01*
X0162242Y0156193D01*
X0160145Y0156031D01*
X0159760Y0156031D01*
X0159672Y0155995D01*
X0159577Y0155988D01*
X0159233Y0155814D01*
X0158878Y0155666D01*
X0158810Y0155599D01*
X0158725Y0155556D01*
X0158475Y0155263D01*
X0155999Y0152788D01*
X0155056Y0152397D01*
X0154271Y0151612D01*
X0153881Y0150669D01*
X0154158Y0151338D02*
X0122231Y0151338D01*
X0122695Y0152536D02*
X0155392Y0152536D01*
X0156946Y0153735D02*
X0122931Y0153735D01*
X0122636Y0154933D02*
X0158145Y0154933D01*
X0161450Y0156132D02*
X0121488Y0156132D01*
X0120286Y0157330D02*
X0175487Y0157330D01*
X0175558Y0157501D02*
X0175131Y0156472D01*
X0175131Y0155358D01*
X0175558Y0154329D01*
X0176345Y0153541D01*
X0176631Y0153423D01*
X0176631Y0149445D01*
X0177862Y0148215D01*
X0185031Y0141045D01*
X0185831Y0140245D01*
X0185831Y0133985D01*
X0185031Y0133185D01*
X0185031Y0132975D01*
X0184758Y0132701D01*
X0184331Y0131672D01*
X0184331Y0130558D01*
X0184758Y0129529D01*
X0185102Y0129184D01*
X0184745Y0129037D01*
X0183958Y0128249D01*
X0183531Y0127220D01*
X0183531Y0126833D01*
X0175962Y0119263D01*
X0175575Y0119263D01*
X0174545Y0118837D01*
X0173758Y0118049D01*
X0173331Y0117020D01*
X0173331Y0115906D01*
X0173758Y0114877D01*
X0174545Y0114089D01*
X0175575Y0113663D01*
X0176688Y0113663D01*
X0177718Y0114089D01*
X0178505Y0114877D01*
X0178931Y0115906D01*
X0178931Y0116293D01*
X0186501Y0123863D01*
X0186888Y0123863D01*
X0187918Y0124289D01*
X0188705Y0125077D01*
X0189131Y0126106D01*
X0189131Y0127220D01*
X0188705Y0128249D01*
X0188361Y0128593D01*
X0188718Y0128741D01*
X0189505Y0129529D01*
X0189931Y0130558D01*
X0189931Y0131672D01*
X0189793Y0132007D01*
X0190031Y0132245D01*
X0190031Y0141985D01*
X0188801Y0143215D01*
X0188001Y0144015D01*
X0180831Y0151185D01*
X0180831Y0155985D01*
X0180731Y0156085D01*
X0180731Y0156472D01*
X0180305Y0157501D01*
X0179518Y0158289D01*
X0178488Y0158715D01*
X0177375Y0158715D01*
X0176345Y0158289D01*
X0175558Y0157501D01*
X0175131Y0156132D02*
X0163542Y0156132D01*
X0165159Y0154933D02*
X0175307Y0154933D01*
X0176152Y0153735D02*
X0166416Y0153735D01*
X0167673Y0152536D02*
X0176631Y0152536D01*
X0176631Y0151338D02*
X0168930Y0151338D01*
X0170187Y0150139D02*
X0176631Y0150139D01*
X0177136Y0148941D02*
X0171444Y0148941D01*
X0172739Y0147742D02*
X0178334Y0147742D01*
X0177862Y0148215D02*
X0177862Y0148215D01*
X0179533Y0146544D02*
X0174045Y0146544D01*
X0175243Y0145345D02*
X0180731Y0145345D01*
X0181930Y0144147D02*
X0176442Y0144147D01*
X0177640Y0142948D02*
X0183128Y0142948D01*
X0184327Y0141750D02*
X0178839Y0141750D01*
X0180037Y0140551D02*
X0185525Y0140551D01*
X0185031Y0141045D02*
X0185031Y0141045D01*
X0185831Y0139353D02*
X0184202Y0139353D01*
X0184993Y0138154D02*
X0185831Y0138154D01*
X0185831Y0136956D02*
X0185131Y0136956D01*
X0184738Y0135757D02*
X0185831Y0135757D01*
X0185831Y0134559D02*
X0183119Y0134559D01*
X0183537Y0133360D02*
X0185207Y0133360D01*
X0184534Y0132162D02*
X0183496Y0132162D01*
X0184331Y0130963D02*
X0182297Y0130963D01*
X0181099Y0129765D02*
X0184660Y0129765D01*
X0184275Y0128566D02*
X0179900Y0128566D01*
X0178702Y0127368D02*
X0183593Y0127368D01*
X0182868Y0126169D02*
X0177503Y0126169D01*
X0177313Y0124971D02*
X0181669Y0124971D01*
X0180471Y0123772D02*
X0177035Y0123772D01*
X0176172Y0122574D02*
X0179272Y0122574D01*
X0178074Y0121375D02*
X0171870Y0121375D01*
X0171150Y0121375D02*
X0131375Y0121375D01*
X0132573Y0122574D02*
X0169764Y0122574D01*
X0168378Y0123772D02*
X0133772Y0123772D01*
X0134970Y0124971D02*
X0166993Y0124971D01*
X0165607Y0126169D02*
X0136169Y0126169D01*
X0137367Y0127368D02*
X0164222Y0127368D01*
X0162836Y0128566D02*
X0138566Y0128566D01*
X0139764Y0129765D02*
X0161451Y0129765D01*
X0160065Y0130963D02*
X0140963Y0130963D01*
X0142161Y0132162D02*
X0159039Y0132162D01*
X0157928Y0133360D02*
X0143360Y0133360D01*
X0144558Y0134559D02*
X0156816Y0134559D01*
X0155705Y0135757D02*
X0145757Y0135757D01*
X0146955Y0136956D02*
X0154594Y0136956D01*
X0153483Y0138154D02*
X0148154Y0138154D01*
X0149352Y0139353D02*
X0152372Y0139353D01*
X0151260Y0140551D02*
X0150551Y0140551D01*
X0132976Y0129765D02*
X0021731Y0129765D01*
X0021431Y0128566D02*
X0131777Y0128566D01*
X0130579Y0127368D02*
X0012331Y0127368D01*
X0012331Y0128566D02*
X0012832Y0128566D01*
X0012531Y0129765D02*
X0012331Y0129765D01*
X0012331Y0130963D02*
X0012531Y0130963D01*
X0012531Y0132162D02*
X0012331Y0132162D01*
X0016731Y0130963D02*
X0017531Y0130963D01*
X0017531Y0129765D02*
X0016731Y0129765D01*
X0016731Y0128566D02*
X0017531Y0128566D01*
X0012331Y0126169D02*
X0129380Y0126169D01*
X0128182Y0124971D02*
X0012331Y0124971D01*
X0012331Y0123772D02*
X0031019Y0123772D01*
X0031462Y0124215D02*
X0021731Y0114485D01*
X0021731Y0116115D01*
X0017532Y0116115D01*
X0017532Y0116915D01*
X0021731Y0116915D01*
X0021731Y0118726D01*
X0021622Y0119133D01*
X0021412Y0119497D01*
X0021114Y0119795D01*
X0020749Y0120006D01*
X0020342Y0120115D01*
X0017531Y0120115D01*
X0017531Y0116915D01*
X0016731Y0116915D01*
X0016731Y0116115D01*
X0012531Y0116115D01*
X0012531Y0114304D01*
X0012558Y0114204D01*
X0012531Y0114178D01*
X0012531Y0103852D01*
X0013469Y0102915D01*
X0020794Y0102915D01*
X0021731Y0103852D01*
X0021731Y0105545D01*
X0021831Y0105645D01*
X0022431Y0106245D01*
X0023687Y0107500D01*
X0024445Y0106741D01*
X0025475Y0106315D01*
X0026588Y0106315D01*
X0027618Y0106741D01*
X0027891Y0107015D01*
X0034072Y0107015D01*
X0034345Y0106741D01*
X0035375Y0106315D01*
X0036488Y0106315D01*
X0037518Y0106741D01*
X0038305Y0107529D01*
X0038731Y0108558D01*
X0038731Y0109672D01*
X0038305Y0110701D01*
X0037518Y0111489D01*
X0036488Y0111915D01*
X0035375Y0111915D01*
X0034345Y0111489D01*
X0034072Y0111215D01*
X0027891Y0111215D01*
X0027646Y0111460D01*
X0033201Y0117015D01*
X0036472Y0117015D01*
X0036745Y0116741D01*
X0037775Y0116315D01*
X0038888Y0116315D01*
X0039918Y0116741D01*
X0040705Y0117529D01*
X0041131Y0118558D01*
X0041131Y0119672D01*
X0040705Y0120701D01*
X0039918Y0121489D01*
X0038888Y0121915D01*
X0037775Y0121915D01*
X0037531Y0121814D01*
X0037531Y0122672D01*
X0037105Y0123701D01*
X0036318Y0124489D01*
X0035288Y0124915D01*
X0034175Y0124915D01*
X0033145Y0124489D01*
X0032872Y0124215D01*
X0031462Y0124215D01*
X0029820Y0122574D02*
X0012331Y0122574D01*
X0012331Y0121375D02*
X0028622Y0121375D01*
X0027423Y0120177D02*
X0012331Y0120177D01*
X0012851Y0119497D02*
X0012641Y0119133D01*
X0012531Y0118726D01*
X0012531Y0116915D01*
X0016731Y0116915D01*
X0016731Y0120115D01*
X0013921Y0120115D01*
X0013514Y0120006D01*
X0013149Y0119795D01*
X0012851Y0119497D01*
X0012599Y0118978D02*
X0012331Y0118978D01*
X0012331Y0117779D02*
X0012531Y0117779D01*
X0012331Y0116581D02*
X0016731Y0116581D01*
X0017532Y0116581D02*
X0023828Y0116581D01*
X0025026Y0117779D02*
X0021731Y0117779D01*
X0021664Y0118978D02*
X0026225Y0118978D01*
X0022629Y0115382D02*
X0021731Y0115382D01*
X0017531Y0117779D02*
X0016731Y0117779D01*
X0016731Y0118978D02*
X0017531Y0118978D01*
X0012531Y0115382D02*
X0012331Y0115382D01*
X0012331Y0114184D02*
X0012538Y0114184D01*
X0012531Y0112985D02*
X0012331Y0112985D01*
X0012331Y0111787D02*
X0012531Y0111787D01*
X0012531Y0110588D02*
X0012331Y0110588D01*
X0012331Y0109390D02*
X0012531Y0109390D01*
X0012531Y0108191D02*
X0012331Y0108191D01*
X0012331Y0106993D02*
X0012531Y0106993D01*
X0012531Y0105794D02*
X0012331Y0105794D01*
X0012331Y0104596D02*
X0012531Y0104596D01*
X0012331Y0103397D02*
X0012986Y0103397D01*
X0012331Y0102199D02*
X0056456Y0102199D01*
X0056358Y0102101D02*
X0055931Y0101072D01*
X0055931Y0099958D01*
X0056358Y0098929D01*
X0060131Y0095155D01*
X0060131Y0088558D01*
X0060131Y0072958D01*
X0060558Y0071929D01*
X0061345Y0071141D01*
X0062375Y0070715D01*
X0063488Y0070715D01*
X0064518Y0071141D01*
X0065305Y0071929D01*
X0065731Y0072958D01*
X0065731Y0096872D01*
X0065305Y0097901D01*
X0060318Y0102889D01*
X0059288Y0103315D01*
X0058175Y0103315D01*
X0057145Y0102889D01*
X0056358Y0102101D01*
X0055931Y0101000D02*
X0012331Y0101000D01*
X0012331Y0099802D02*
X0055996Y0099802D01*
X0056683Y0098603D02*
X0012331Y0098603D01*
X0012331Y0097405D02*
X0057882Y0097405D01*
X0059080Y0096206D02*
X0012331Y0096206D01*
X0012331Y0095008D02*
X0060131Y0095008D01*
X0060131Y0093809D02*
X0012331Y0093809D01*
X0012331Y0092611D02*
X0060131Y0092611D01*
X0060131Y0091412D02*
X0012331Y0091412D01*
X0012331Y0090214D02*
X0060131Y0090214D01*
X0060131Y0089015D02*
X0012331Y0089015D01*
X0012331Y0087817D02*
X0060131Y0087817D01*
X0060131Y0086618D02*
X0012331Y0086618D01*
X0012331Y0085420D02*
X0060131Y0085420D01*
X0060131Y0084221D02*
X0021571Y0084221D01*
X0021622Y0084133D02*
X0021412Y0084497D01*
X0021114Y0084795D01*
X0020749Y0085006D01*
X0020342Y0085115D01*
X0017531Y0085115D01*
X0017531Y0081915D01*
X0016731Y0081915D01*
X0016731Y0081115D01*
X0012531Y0081115D01*
X0012531Y0079304D01*
X0012641Y0078897D01*
X0012851Y0078533D01*
X0013149Y0078235D01*
X0013514Y0078024D01*
X0013921Y0077915D01*
X0016731Y0077915D01*
X0016731Y0081115D01*
X0017531Y0081115D01*
X0017531Y0077915D01*
X0020342Y0077915D01*
X0020749Y0078024D01*
X0021114Y0078235D01*
X0021412Y0078533D01*
X0021622Y0078897D01*
X0021731Y0079304D01*
X0021731Y0081115D01*
X0017532Y0081115D01*
X0017532Y0081915D01*
X0021731Y0081915D01*
X0021731Y0083726D01*
X0021622Y0084133D01*
X0021731Y0083023D02*
X0060131Y0083023D01*
X0060131Y0081824D02*
X0017532Y0081824D01*
X0016731Y0081824D02*
X0012331Y0081824D01*
X0012531Y0081915D02*
X0012531Y0083726D01*
X0012641Y0084133D01*
X0012851Y0084497D01*
X0013149Y0084795D01*
X0013514Y0085006D01*
X0013921Y0085115D01*
X0016731Y0085115D01*
X0016731Y0081915D01*
X0012531Y0081915D01*
X0012531Y0083023D02*
X0012331Y0083023D01*
X0012331Y0084221D02*
X0012692Y0084221D01*
X0012531Y0080626D02*
X0012277Y0080626D01*
X0012531Y0079427D02*
X0011603Y0079427D01*
X0013159Y0078229D02*
X0008731Y0078229D01*
X0008731Y0077030D02*
X0060131Y0077030D01*
X0060131Y0075832D02*
X0008731Y0075832D01*
X0008731Y0074633D02*
X0060131Y0074633D01*
X0060131Y0073435D02*
X0008731Y0073435D01*
X0008731Y0072236D02*
X0060431Y0072236D01*
X0061596Y0071038D02*
X0008731Y0071038D01*
X0008731Y0069839D02*
X0150731Y0069839D01*
X0150731Y0069358D02*
X0151158Y0068329D01*
X0151945Y0067541D01*
X0152975Y0067115D01*
X0154088Y0067115D01*
X0155054Y0067515D01*
X0155209Y0067515D01*
X0156091Y0067880D01*
X0156766Y0068555D01*
X0157131Y0069438D01*
X0157131Y0070392D01*
X0156766Y0071274D01*
X0156091Y0071950D01*
X0155209Y0072315D01*
X0155054Y0072315D01*
X0154088Y0072715D01*
X0152975Y0072715D01*
X0151945Y0072289D01*
X0151158Y0071501D01*
X0150731Y0070472D01*
X0150731Y0069358D01*
X0151029Y0068641D02*
X0008731Y0068641D01*
X0008731Y0067442D02*
X0090231Y0067442D01*
X0090231Y0067528D02*
X0090231Y0065915D01*
X0090135Y0065915D01*
X0089861Y0065641D01*
X0089494Y0065520D01*
X0089242Y0065021D01*
X0088846Y0064626D01*
X0088846Y0064239D01*
X0088334Y0063225D01*
X0087929Y0063057D01*
X0087141Y0062270D01*
X0086715Y0061240D01*
X0086715Y0060127D01*
X0087141Y0059097D01*
X0087929Y0058310D01*
X0088958Y0057883D01*
X0090072Y0057883D01*
X0091101Y0058310D01*
X0091756Y0058965D01*
X0097094Y0058965D01*
X0097207Y0059078D01*
X0097214Y0059074D01*
X0097621Y0058965D01*
X0099581Y0058965D01*
X0099581Y0063165D01*
X0100681Y0063165D01*
X0100681Y0058965D01*
X0102642Y0058965D01*
X0103049Y0059074D01*
X0103414Y0059285D01*
X0103712Y0059583D01*
X0103922Y0059947D01*
X0104031Y0060354D01*
X0104031Y0063165D01*
X0100682Y0063165D01*
X0100682Y0064265D01*
X0104031Y0064265D01*
X0104031Y0067076D01*
X0103922Y0067483D01*
X0103712Y0067847D01*
X0103414Y0068145D01*
X0103049Y0068356D01*
X0102642Y0068465D01*
X0100681Y0068465D01*
X0100681Y0064265D01*
X0099581Y0064265D01*
X0099581Y0068465D01*
X0097621Y0068465D01*
X0097214Y0068356D01*
X0097207Y0068352D01*
X0097094Y0068465D01*
X0091169Y0068465D01*
X0090231Y0067528D01*
X0090231Y0066244D02*
X0008731Y0066244D01*
X0008731Y0065045D02*
X0089254Y0065045D01*
X0088648Y0063846D02*
X0008731Y0063846D01*
X0008731Y0062648D02*
X0087520Y0062648D01*
X0086802Y0061449D02*
X0034502Y0061449D01*
X0033837Y0062115D02*
X0032331Y0062115D01*
X0032331Y0057915D01*
X0031531Y0057915D01*
X0031531Y0057115D01*
X0027331Y0057115D01*
X0027331Y0055610D01*
X0030026Y0052915D01*
X0031531Y0052915D01*
X0031531Y0057115D01*
X0032331Y0057115D01*
X0032331Y0052915D01*
X0033837Y0052915D01*
X0036531Y0055610D01*
X0036531Y0057115D01*
X0032332Y0057115D01*
X0032332Y0057915D01*
X0036531Y0057915D01*
X0036531Y0059420D01*
X0033837Y0062115D01*
X0032331Y0061449D02*
X0031531Y0061449D01*
X0031531Y0062115D02*
X0031531Y0057915D01*
X0027331Y0057915D01*
X0027331Y0059420D01*
X0030026Y0062115D01*
X0031531Y0062115D01*
X0031531Y0060251D02*
X0032331Y0060251D01*
X0032331Y0059052D02*
X0031531Y0059052D01*
X0031531Y0057854D02*
X0022332Y0057854D01*
X0022332Y0057915D02*
X0026531Y0057915D01*
X0026531Y0060726D01*
X0026422Y0061133D01*
X0026212Y0061497D01*
X0025914Y0061795D01*
X0025549Y0062006D01*
X0025142Y0062115D01*
X0022331Y0062115D01*
X0022331Y0057915D01*
X0021531Y0057915D01*
X0021531Y0057115D01*
X0017331Y0057115D01*
X0017331Y0054304D01*
X0017441Y0053897D01*
X0017651Y0053533D01*
X0017949Y0053235D01*
X0018314Y0053024D01*
X0018721Y0052915D01*
X0021531Y0052915D01*
X0021531Y0057115D01*
X0022331Y0057115D01*
X0022331Y0052915D01*
X0025142Y0052915D01*
X0025549Y0053024D01*
X0025914Y0053235D01*
X0026212Y0053533D01*
X0026422Y0053897D01*
X0026531Y0054304D01*
X0026531Y0057115D01*
X0022332Y0057115D01*
X0022332Y0057915D01*
X0021531Y0057915D02*
X0021531Y0062115D01*
X0018721Y0062115D01*
X0018314Y0062006D01*
X0017949Y0061795D01*
X0017651Y0061497D01*
X0017441Y0061133D01*
X0017331Y0060726D01*
X0017331Y0057915D01*
X0021531Y0057915D01*
X0021531Y0057854D02*
X0008731Y0057854D01*
X0008731Y0059052D02*
X0017331Y0059052D01*
X0017331Y0060251D02*
X0008731Y0060251D01*
X0008731Y0061449D02*
X0017624Y0061449D01*
X0021531Y0061449D02*
X0022331Y0061449D01*
X0022331Y0060251D02*
X0021531Y0060251D01*
X0021531Y0059052D02*
X0022331Y0059052D01*
X0022331Y0056655D02*
X0021531Y0056655D01*
X0021531Y0055457D02*
X0022331Y0055457D01*
X0022331Y0054258D02*
X0021531Y0054258D01*
X0021531Y0053060D02*
X0022331Y0053060D01*
X0022331Y0052115D02*
X0022331Y0047915D01*
X0021531Y0047915D01*
X0021531Y0047115D01*
X0017331Y0047115D01*
X0017331Y0045610D01*
X0020026Y0042915D01*
X0021531Y0042915D01*
X0021531Y0047115D01*
X0022331Y0047115D01*
X0022331Y0042915D01*
X0023837Y0042915D01*
X0026531Y0045610D01*
X0026531Y0047115D01*
X0022332Y0047115D01*
X0022332Y0047915D01*
X0026531Y0047915D01*
X0026531Y0049420D01*
X0023837Y0052115D01*
X0022331Y0052115D01*
X0022331Y0051861D02*
X0021531Y0051861D01*
X0021531Y0052115D02*
X0021531Y0047915D01*
X0017331Y0047915D01*
X0017331Y0049420D01*
X0020026Y0052115D01*
X0021531Y0052115D01*
X0021531Y0050663D02*
X0022331Y0050663D01*
X0022331Y0049464D02*
X0021531Y0049464D01*
X0021531Y0048266D02*
X0022331Y0048266D01*
X0022331Y0047067D02*
X0021531Y0047067D01*
X0021531Y0045869D02*
X0022331Y0045869D01*
X0022331Y0044670D02*
X0021531Y0044670D01*
X0021531Y0043472D02*
X0022331Y0043472D01*
X0023837Y0042115D02*
X0020026Y0042115D01*
X0017331Y0039420D01*
X0017331Y0035610D01*
X0020026Y0032915D01*
X0023837Y0032915D01*
X0026531Y0035610D01*
X0026531Y0039420D01*
X0023837Y0042115D01*
X0024394Y0043472D02*
X0029469Y0043472D01*
X0030026Y0042915D02*
X0027331Y0045610D01*
X0027331Y0047115D01*
X0031531Y0047115D01*
X0031531Y0047915D01*
X0027331Y0047915D01*
X0027331Y0049420D01*
X0030026Y0052115D01*
X0031531Y0052115D01*
X0031531Y0047915D01*
X0032331Y0047915D01*
X0032331Y0052115D01*
X0033837Y0052115D01*
X0036531Y0049420D01*
X0036531Y0047915D01*
X0032332Y0047915D01*
X0032332Y0047115D01*
X0036531Y0047115D01*
X0036531Y0045610D01*
X0033837Y0042915D01*
X0032331Y0042915D01*
X0032331Y0047115D01*
X0031531Y0047115D01*
X0031531Y0042915D01*
X0030026Y0042915D01*
X0030026Y0042115D02*
X0027331Y0039420D01*
X0027331Y0035610D01*
X0030026Y0032915D01*
X0033837Y0032915D01*
X0036531Y0035610D01*
X0036531Y0039420D01*
X0033837Y0042115D01*
X0030026Y0042115D01*
X0028986Y0041075D02*
X0024877Y0041075D01*
X0026076Y0039876D02*
X0027787Y0039876D01*
X0027331Y0038678D02*
X0026531Y0038678D01*
X0026531Y0037479D02*
X0027331Y0037479D01*
X0027331Y0036281D02*
X0026531Y0036281D01*
X0026004Y0035082D02*
X0027859Y0035082D01*
X0029057Y0033884D02*
X0024806Y0033884D01*
X0023837Y0032115D02*
X0022331Y0032115D01*
X0022331Y0027915D01*
X0021531Y0027915D01*
X0021531Y0027115D01*
X0017331Y0027115D01*
X0017331Y0025610D01*
X0020026Y0022915D01*
X0021531Y0022915D01*
X0021531Y0027115D01*
X0022331Y0027115D01*
X0022331Y0022915D01*
X0023837Y0022915D01*
X0026531Y0025610D01*
X0026531Y0027115D01*
X0022332Y0027115D01*
X0022332Y0027915D01*
X0026531Y0027915D01*
X0026531Y0029420D01*
X0023837Y0032115D01*
X0024465Y0031487D02*
X0029398Y0031487D01*
X0030026Y0032115D02*
X0027331Y0029420D01*
X0027331Y0027915D01*
X0031531Y0027915D01*
X0031531Y0027115D01*
X0027331Y0027115D01*
X0027331Y0025610D01*
X0030026Y0022915D01*
X0031531Y0022915D01*
X0031531Y0027115D01*
X0032331Y0027115D01*
X0032331Y0022915D01*
X0033837Y0022915D01*
X0036531Y0025610D01*
X0036531Y0027115D01*
X0032332Y0027115D01*
X0032332Y0027915D01*
X0036531Y0027915D01*
X0036531Y0029420D01*
X0033837Y0032115D01*
X0032331Y0032115D01*
X0032331Y0027915D01*
X0031531Y0027915D01*
X0031531Y0032115D01*
X0030026Y0032115D01*
X0031531Y0031487D02*
X0032331Y0031487D01*
X0032331Y0030288D02*
X0031531Y0030288D01*
X0031531Y0029090D02*
X0032331Y0029090D01*
X0032332Y0027891D02*
X0075798Y0027891D01*
X0075798Y0027328D02*
X0079148Y0027328D01*
X0079148Y0026228D01*
X0075798Y0026228D01*
X0075798Y0023417D01*
X0075907Y0023010D01*
X0076118Y0022646D01*
X0076416Y0022348D01*
X0076781Y0022137D01*
X0077188Y0022028D01*
X0079148Y0022028D01*
X0079148Y0026228D01*
X0080248Y0026228D01*
X0080248Y0022028D01*
X0082209Y0022028D01*
X0082616Y0022137D01*
X0082623Y0022141D01*
X0082736Y0022028D01*
X0088661Y0022028D01*
X0089598Y0022965D01*
X0089598Y0025422D01*
X0089905Y0025729D01*
X0090331Y0026758D01*
X0090331Y0027872D01*
X0089905Y0028901D01*
X0089598Y0029208D01*
X0089598Y0030591D01*
X0088661Y0031528D01*
X0082736Y0031528D01*
X0082623Y0031415D01*
X0082616Y0031419D01*
X0082209Y0031528D01*
X0080248Y0031528D01*
X0080248Y0027328D01*
X0079148Y0027328D01*
X0079148Y0031528D01*
X0077188Y0031528D01*
X0076781Y0031419D01*
X0076416Y0031208D01*
X0076118Y0030910D01*
X0075907Y0030546D01*
X0075798Y0030139D01*
X0075798Y0027328D01*
X0075798Y0029090D02*
X0036531Y0029090D01*
X0035664Y0030288D02*
X0064874Y0030288D01*
X0064745Y0030341D02*
X0065775Y0029915D01*
X0066888Y0029915D01*
X0067918Y0030341D01*
X0068705Y0031129D01*
X0069131Y0032158D01*
X0069131Y0033272D01*
X0068705Y0034301D01*
X0068123Y0034884D01*
X0067501Y0038925D01*
X0067505Y0038929D01*
X0067931Y0039958D01*
X0067931Y0041072D01*
X0067505Y0042101D01*
X0066718Y0042889D01*
X0065688Y0043315D01*
X0064575Y0043315D01*
X0063545Y0042889D01*
X0062758Y0042101D01*
X0062331Y0041072D01*
X0062331Y0039958D01*
X0062758Y0038929D01*
X0063340Y0038346D01*
X0063962Y0034305D01*
X0063958Y0034301D01*
X0063531Y0033272D01*
X0063531Y0032158D01*
X0063958Y0031129D01*
X0064745Y0030341D01*
X0063810Y0031487D02*
X0034465Y0031487D01*
X0034806Y0033884D02*
X0063785Y0033884D01*
X0063843Y0035082D02*
X0036004Y0035082D01*
X0036531Y0036281D02*
X0063658Y0036281D01*
X0063474Y0037479D02*
X0036531Y0037479D01*
X0036531Y0038678D02*
X0063009Y0038678D01*
X0062365Y0039876D02*
X0036076Y0039876D01*
X0034877Y0041075D02*
X0062333Y0041075D01*
X0062930Y0042273D02*
X0008731Y0042273D01*
X0008731Y0041075D02*
X0018986Y0041075D01*
X0017787Y0039876D02*
X0008731Y0039876D01*
X0008731Y0038678D02*
X0017331Y0038678D01*
X0017331Y0037479D02*
X0008731Y0037479D01*
X0008731Y0036281D02*
X0017331Y0036281D01*
X0017859Y0035082D02*
X0008731Y0035082D01*
X0008731Y0033884D02*
X0019057Y0033884D01*
X0020026Y0032115D02*
X0017331Y0029420D01*
X0017331Y0027915D01*
X0021531Y0027915D01*
X0021531Y0032115D01*
X0020026Y0032115D01*
X0019398Y0031487D02*
X0008731Y0031487D01*
X0008731Y0032685D02*
X0063531Y0032685D01*
X0067789Y0030288D02*
X0075839Y0030288D01*
X0077034Y0031487D02*
X0068853Y0031487D01*
X0069131Y0032685D02*
X0265331Y0032685D01*
X0265331Y0031487D02*
X0256465Y0031487D01*
X0257664Y0030288D02*
X0265331Y0030288D01*
X0265331Y0029090D02*
X0258531Y0029090D01*
X0258531Y0027891D02*
X0265331Y0027891D01*
X0265331Y0026693D02*
X0258714Y0026693D01*
X0263222Y0025494D02*
X0264151Y0025494D01*
X0265331Y0033884D02*
X0206806Y0033884D01*
X0205837Y0032915D02*
X0208531Y0035610D01*
X0208531Y0037115D01*
X0204332Y0037115D01*
X0204332Y0037915D01*
X0208531Y0037915D01*
X0208531Y0039420D01*
X0205837Y0042115D01*
X0204331Y0042115D01*
X0204331Y0037915D01*
X0203531Y0037915D01*
X0203531Y0037115D01*
X0199331Y0037115D01*
X0199331Y0035610D01*
X0202026Y0032915D01*
X0203531Y0032915D01*
X0203531Y0037115D01*
X0204331Y0037115D01*
X0204331Y0032915D01*
X0205837Y0032915D01*
X0206465Y0031487D02*
X0211398Y0031487D01*
X0212026Y0032115D02*
X0209331Y0029420D01*
X0209331Y0025610D01*
X0212026Y0022915D01*
X0215837Y0022915D01*
X0218531Y0025610D01*
X0218531Y0029420D01*
X0215837Y0032115D01*
X0212026Y0032115D01*
X0210199Y0030288D02*
X0207664Y0030288D01*
X0208531Y0029090D02*
X0209331Y0029090D01*
X0209331Y0027891D02*
X0208531Y0027891D01*
X0208531Y0026693D02*
X0209331Y0026693D01*
X0209447Y0025494D02*
X0208416Y0025494D01*
X0207218Y0024296D02*
X0210645Y0024296D01*
X0211844Y0023097D02*
X0206731Y0023097D01*
X0206731Y0021899D02*
X0255588Y0021899D01*
X0254631Y0020700D02*
X0206731Y0020700D01*
X0206731Y0019502D02*
X0254631Y0019502D01*
X0251844Y0023097D02*
X0247676Y0023097D01*
X0247549Y0023024D02*
X0247914Y0023235D01*
X0248212Y0023533D01*
X0248422Y0023897D01*
X0248531Y0024304D01*
X0248531Y0027115D01*
X0244332Y0027115D01*
X0244332Y0027915D01*
X0248531Y0027915D01*
X0248531Y0030726D01*
X0248422Y0031133D01*
X0248212Y0031497D01*
X0247914Y0031795D01*
X0247549Y0032006D01*
X0247142Y0032115D01*
X0244331Y0032115D01*
X0244331Y0027915D01*
X0243531Y0027915D01*
X0243531Y0027115D01*
X0239331Y0027115D01*
X0239331Y0024304D01*
X0239441Y0023897D01*
X0239651Y0023533D01*
X0239949Y0023235D01*
X0240314Y0023024D01*
X0240721Y0022915D01*
X0243531Y0022915D01*
X0243531Y0027115D01*
X0244331Y0027115D01*
X0244331Y0022915D01*
X0247142Y0022915D01*
X0247549Y0023024D01*
X0248529Y0024296D02*
X0250645Y0024296D01*
X0249447Y0025494D02*
X0248531Y0025494D01*
X0248531Y0026693D02*
X0249331Y0026693D01*
X0249331Y0027891D02*
X0244332Y0027891D01*
X0243531Y0027891D02*
X0234332Y0027891D01*
X0234332Y0027915D02*
X0238531Y0027915D01*
X0238531Y0030726D01*
X0238422Y0031133D01*
X0238212Y0031497D01*
X0237914Y0031795D01*
X0237549Y0032006D01*
X0237142Y0032115D01*
X0234331Y0032115D01*
X0234331Y0027915D01*
X0233531Y0027915D01*
X0233531Y0027115D01*
X0229331Y0027115D01*
X0229331Y0024304D01*
X0229441Y0023897D01*
X0229651Y0023533D01*
X0229949Y0023235D01*
X0230314Y0023024D01*
X0230721Y0022915D01*
X0233531Y0022915D01*
X0233531Y0027115D01*
X0234331Y0027115D01*
X0234331Y0022915D01*
X0237142Y0022915D01*
X0237549Y0023024D01*
X0237914Y0023235D01*
X0238212Y0023533D01*
X0238422Y0023897D01*
X0238531Y0024304D01*
X0238531Y0027115D01*
X0234332Y0027115D01*
X0234332Y0027915D01*
X0233531Y0027915D02*
X0233531Y0032115D01*
X0230721Y0032115D01*
X0230314Y0032006D01*
X0229949Y0031795D01*
X0229651Y0031497D01*
X0229441Y0031133D01*
X0229331Y0030726D01*
X0229331Y0027915D01*
X0233531Y0027915D01*
X0233531Y0027891D02*
X0228531Y0027891D01*
X0228531Y0026693D02*
X0229331Y0026693D01*
X0229331Y0025494D02*
X0228416Y0025494D01*
X0228531Y0025610D02*
X0225837Y0022915D01*
X0222026Y0022915D01*
X0219331Y0025610D01*
X0219331Y0029420D01*
X0222026Y0032115D01*
X0225837Y0032115D01*
X0228531Y0029420D01*
X0228531Y0025610D01*
X0229334Y0024296D02*
X0227218Y0024296D01*
X0226019Y0023097D02*
X0230187Y0023097D01*
X0233531Y0023097D02*
X0234331Y0023097D01*
X0234331Y0024296D02*
X0233531Y0024296D01*
X0233531Y0025494D02*
X0234331Y0025494D01*
X0234331Y0026693D02*
X0233531Y0026693D01*
X0233531Y0029090D02*
X0234331Y0029090D01*
X0234331Y0030288D02*
X0233531Y0030288D01*
X0233531Y0031487D02*
X0234331Y0031487D01*
X0238218Y0031487D02*
X0239645Y0031487D01*
X0239651Y0031497D02*
X0239441Y0031133D01*
X0239331Y0030726D01*
X0239331Y0027915D01*
X0243531Y0027915D01*
X0243531Y0032115D01*
X0240721Y0032115D01*
X0240314Y0032006D01*
X0239949Y0031795D01*
X0239651Y0031497D01*
X0239331Y0030288D02*
X0238531Y0030288D01*
X0238531Y0029090D02*
X0239331Y0029090D01*
X0239331Y0026693D02*
X0238531Y0026693D01*
X0238531Y0025494D02*
X0239331Y0025494D01*
X0239334Y0024296D02*
X0238529Y0024296D01*
X0237676Y0023097D02*
X0240187Y0023097D01*
X0243531Y0023097D02*
X0244331Y0023097D01*
X0244331Y0024296D02*
X0243531Y0024296D01*
X0243531Y0025494D02*
X0244331Y0025494D01*
X0244331Y0026693D02*
X0243531Y0026693D01*
X0243531Y0029090D02*
X0244331Y0029090D01*
X0244331Y0030288D02*
X0243531Y0030288D01*
X0243531Y0031487D02*
X0244331Y0031487D01*
X0248218Y0031487D02*
X0251398Y0031487D01*
X0250199Y0030288D02*
X0248531Y0030288D01*
X0248531Y0029090D02*
X0249331Y0029090D01*
X0250975Y0039515D02*
X0252088Y0039515D01*
X0253118Y0039941D01*
X0253391Y0040215D01*
X0255201Y0040215D01*
X0256431Y0041445D01*
X0257101Y0042115D01*
X0257488Y0042115D01*
X0258518Y0042541D01*
X0259305Y0043329D01*
X0259731Y0044358D01*
X0259731Y0045472D01*
X0259305Y0046501D01*
X0258518Y0047289D01*
X0257488Y0047715D01*
X0256375Y0047715D01*
X0255345Y0047289D01*
X0254558Y0046501D01*
X0254131Y0045472D01*
X0254131Y0045085D01*
X0253462Y0044415D01*
X0253391Y0044415D01*
X0253118Y0044689D01*
X0252088Y0045115D01*
X0250975Y0045115D01*
X0249945Y0044689D01*
X0249158Y0043901D01*
X0248731Y0042872D01*
X0248731Y0041758D01*
X0249158Y0040729D01*
X0249945Y0039941D01*
X0250975Y0039515D01*
X0250102Y0039876D02*
X0232130Y0039876D01*
X0232131Y0039872D02*
X0231705Y0040901D01*
X0231431Y0041175D01*
X0231431Y0052855D01*
X0231705Y0053129D01*
X0232131Y0054158D01*
X0232131Y0055272D01*
X0231705Y0056301D01*
X0230918Y0057089D01*
X0229888Y0057515D01*
X0228775Y0057515D01*
X0227745Y0057089D01*
X0226958Y0056301D01*
X0226531Y0055272D01*
X0226531Y0054158D01*
X0226958Y0053129D01*
X0227231Y0052855D01*
X0227231Y0041175D01*
X0226958Y0040901D01*
X0226531Y0039872D01*
X0226531Y0038758D01*
X0226958Y0037729D01*
X0227745Y0036941D01*
X0228775Y0036515D01*
X0229888Y0036515D01*
X0230918Y0036941D01*
X0231705Y0037729D01*
X0232131Y0038758D01*
X0232131Y0039872D01*
X0232098Y0038678D02*
X0265331Y0038678D01*
X0265331Y0039876D02*
X0252961Y0039876D01*
X0256061Y0041075D02*
X0265331Y0041075D01*
X0265331Y0042273D02*
X0257871Y0042273D01*
X0259364Y0043472D02*
X0265331Y0043472D01*
X0265331Y0044670D02*
X0259731Y0044670D01*
X0259567Y0045869D02*
X0265331Y0045869D01*
X0265331Y0047067D02*
X0258739Y0047067D01*
X0255124Y0047067D02*
X0231431Y0047067D01*
X0231431Y0045869D02*
X0254296Y0045869D01*
X0253717Y0044670D02*
X0253136Y0044670D01*
X0249927Y0044670D02*
X0231431Y0044670D01*
X0231431Y0043472D02*
X0248980Y0043472D01*
X0248731Y0042273D02*
X0231431Y0042273D01*
X0231531Y0041075D02*
X0249014Y0041075D01*
X0265331Y0037479D02*
X0231456Y0037479D01*
X0227207Y0037479D02*
X0204332Y0037479D01*
X0203531Y0037479D02*
X0194332Y0037479D01*
X0194332Y0037115D02*
X0194332Y0037915D01*
X0198531Y0037915D01*
X0198531Y0039420D01*
X0195837Y0042115D01*
X0194331Y0042115D01*
X0194331Y0037915D01*
X0193531Y0037915D01*
X0193531Y0037115D01*
X0189331Y0037115D01*
X0189331Y0035610D01*
X0192026Y0032915D01*
X0193531Y0032915D01*
X0193531Y0037115D01*
X0194331Y0037115D01*
X0194331Y0032915D01*
X0195837Y0032915D01*
X0198531Y0035610D01*
X0198531Y0037115D01*
X0194332Y0037115D01*
X0194331Y0036281D02*
X0193531Y0036281D01*
X0193531Y0037479D02*
X0188531Y0037479D01*
X0189331Y0037915D02*
X0193531Y0037915D01*
X0193531Y0042115D01*
X0192026Y0042115D01*
X0189331Y0039420D01*
X0189331Y0037915D01*
X0189331Y0038678D02*
X0188531Y0038678D01*
X0188531Y0039420D02*
X0185837Y0042115D01*
X0182026Y0042115D01*
X0179331Y0039420D01*
X0179331Y0035610D01*
X0182026Y0032915D01*
X0185837Y0032915D01*
X0188531Y0035610D01*
X0188531Y0039420D01*
X0188076Y0039876D02*
X0189787Y0039876D01*
X0190986Y0041075D02*
X0186877Y0041075D01*
X0188531Y0036281D02*
X0189331Y0036281D01*
X0189859Y0035082D02*
X0188004Y0035082D01*
X0186806Y0033884D02*
X0191057Y0033884D01*
X0192026Y0032115D02*
X0189331Y0029420D01*
X0189331Y0025610D01*
X0192026Y0022915D01*
X0195837Y0022915D01*
X0198531Y0025610D01*
X0198531Y0029420D01*
X0195837Y0032115D01*
X0192026Y0032115D01*
X0191398Y0031487D02*
X0186465Y0031487D01*
X0185837Y0032115D02*
X0182026Y0032115D01*
X0179331Y0029420D01*
X0179331Y0025610D01*
X0182026Y0022915D01*
X0185837Y0022915D01*
X0188531Y0025610D01*
X0188531Y0029420D01*
X0185837Y0032115D01*
X0187664Y0030288D02*
X0190199Y0030288D01*
X0189331Y0029090D02*
X0188531Y0029090D01*
X0188531Y0027891D02*
X0189331Y0027891D01*
X0189331Y0026693D02*
X0188531Y0026693D01*
X0188416Y0025494D02*
X0189447Y0025494D01*
X0190645Y0024296D02*
X0187218Y0024296D01*
X0186019Y0023097D02*
X0191844Y0023097D01*
X0196019Y0023097D02*
X0201131Y0023097D01*
X0201131Y0021899D02*
X0064513Y0021899D01*
X0064331Y0020700D02*
X0201131Y0020700D01*
X0201131Y0019502D02*
X0064331Y0019502D01*
X0064302Y0023097D02*
X0075884Y0023097D01*
X0075798Y0024296D02*
X0063532Y0024296D01*
X0058731Y0024296D02*
X0035218Y0024296D01*
X0036416Y0025494D02*
X0075798Y0025494D01*
X0079148Y0025494D02*
X0080248Y0025494D01*
X0080248Y0024296D02*
X0079148Y0024296D01*
X0079148Y0023097D02*
X0080248Y0023097D01*
X0079148Y0026693D02*
X0036531Y0026693D01*
X0034019Y0023097D02*
X0057961Y0023097D01*
X0057750Y0021899D02*
X0034053Y0021899D01*
X0035252Y0020700D02*
X0057931Y0020700D01*
X0057931Y0019502D02*
X0036450Y0019502D01*
X0032331Y0023097D02*
X0031531Y0023097D01*
X0031531Y0024296D02*
X0032331Y0024296D01*
X0032331Y0025494D02*
X0031531Y0025494D01*
X0031531Y0026693D02*
X0032331Y0026693D01*
X0031531Y0027891D02*
X0022332Y0027891D01*
X0021531Y0027891D02*
X0008731Y0027891D01*
X0008731Y0026693D02*
X0017331Y0026693D01*
X0017447Y0025494D02*
X0008731Y0025494D01*
X0008731Y0024296D02*
X0018645Y0024296D01*
X0019844Y0023097D02*
X0008731Y0023097D01*
X0008731Y0021899D02*
X0019810Y0021899D01*
X0018611Y0020700D02*
X0008731Y0020700D01*
X0008731Y0019502D02*
X0017413Y0019502D01*
X0017331Y0018303D02*
X0008731Y0018303D01*
X0008731Y0017105D02*
X0017331Y0017105D01*
X0017331Y0015906D02*
X0008731Y0015906D01*
X0008731Y0014708D02*
X0018234Y0014708D01*
X0025629Y0014708D02*
X0028234Y0014708D01*
X0027331Y0015906D02*
X0026531Y0015906D01*
X0026531Y0017105D02*
X0027331Y0017105D01*
X0027331Y0018303D02*
X0026531Y0018303D01*
X0026450Y0019502D02*
X0027413Y0019502D01*
X0028611Y0020700D02*
X0025252Y0020700D01*
X0024053Y0021899D02*
X0029810Y0021899D01*
X0029844Y0023097D02*
X0024019Y0023097D01*
X0022331Y0023097D02*
X0021531Y0023097D01*
X0021531Y0024296D02*
X0022331Y0024296D01*
X0022331Y0025494D02*
X0021531Y0025494D01*
X0021531Y0026693D02*
X0022331Y0026693D01*
X0022331Y0029090D02*
X0021531Y0029090D01*
X0021531Y0030288D02*
X0022331Y0030288D01*
X0022331Y0031487D02*
X0021531Y0031487D01*
X0018199Y0030288D02*
X0008731Y0030288D01*
X0008731Y0029090D02*
X0017331Y0029090D01*
X0025664Y0030288D02*
X0028199Y0030288D01*
X0027331Y0029090D02*
X0026531Y0029090D01*
X0026531Y0026693D02*
X0027331Y0026693D01*
X0027447Y0025494D02*
X0026416Y0025494D01*
X0025218Y0024296D02*
X0028645Y0024296D01*
X0031531Y0043472D02*
X0032331Y0043472D01*
X0032331Y0044670D02*
X0031531Y0044670D01*
X0031531Y0045869D02*
X0032331Y0045869D01*
X0032331Y0047067D02*
X0031531Y0047067D01*
X0031531Y0048266D02*
X0032331Y0048266D01*
X0032331Y0049464D02*
X0031531Y0049464D01*
X0031531Y0050663D02*
X0032331Y0050663D01*
X0032331Y0051861D02*
X0031531Y0051861D01*
X0031531Y0053060D02*
X0032331Y0053060D01*
X0032331Y0054258D02*
X0031531Y0054258D01*
X0031531Y0055457D02*
X0032331Y0055457D01*
X0032331Y0056655D02*
X0031531Y0056655D01*
X0032332Y0057854D02*
X0118043Y0057854D01*
X0118065Y0057800D02*
X0118131Y0057733D01*
X0118131Y0053908D01*
X0117750Y0052987D01*
X0117750Y0051642D01*
X0118265Y0050400D01*
X0119216Y0049449D01*
X0120459Y0048934D01*
X0121804Y0048934D01*
X0123047Y0049449D01*
X0123998Y0050400D01*
X0124513Y0051642D01*
X0124513Y0052987D01*
X0123998Y0054230D01*
X0123731Y0054497D01*
X0123731Y0057733D01*
X0123798Y0057800D01*
X0124313Y0059042D01*
X0124313Y0060387D01*
X0123798Y0061630D01*
X0122847Y0062581D01*
X0121604Y0063096D01*
X0120259Y0063096D01*
X0119016Y0062581D01*
X0118065Y0061630D01*
X0117550Y0060387D01*
X0117550Y0059042D01*
X0118065Y0057800D01*
X0118131Y0056655D02*
X0036531Y0056655D01*
X0036379Y0055457D02*
X0118131Y0055457D01*
X0118131Y0054258D02*
X0035180Y0054258D01*
X0033982Y0053060D02*
X0054764Y0053060D01*
X0054690Y0053029D02*
X0054233Y0052724D01*
X0053844Y0052335D01*
X0053539Y0051878D01*
X0053329Y0051370D01*
X0053221Y0050831D01*
X0053221Y0050557D01*
X0056012Y0050557D01*
X0056012Y0053347D01*
X0056287Y0053347D01*
X0056826Y0053240D01*
X0057334Y0053029D01*
X0057791Y0052724D01*
X0058180Y0052335D01*
X0058485Y0051878D01*
X0058695Y0051370D01*
X0058700Y0051349D01*
X0058736Y0051356D01*
X0059012Y0051356D01*
X0059012Y0048557D01*
X0059012Y0048557D01*
X0059012Y0051356D01*
X0059288Y0051356D01*
X0059315Y0051351D01*
X0059320Y0051373D01*
X0059531Y0051883D01*
X0059837Y0052341D01*
X0060227Y0052731D01*
X0060686Y0053038D01*
X0061195Y0053249D01*
X0061736Y0053356D01*
X0062012Y0053356D01*
X0062012Y0050557D01*
X0062012Y0050557D01*
X0062012Y0053356D01*
X0062288Y0053356D01*
X0062829Y0053249D01*
X0063338Y0053038D01*
X0063797Y0052731D01*
X0064187Y0052341D01*
X0064493Y0051883D01*
X0064704Y0051373D01*
X0064812Y0050832D01*
X0064812Y0050557D01*
X0062012Y0050557D01*
X0062012Y0050556D01*
X0062012Y0046557D01*
X0062012Y0049356D01*
X0062012Y0050556D01*
X0062012Y0050556D01*
X0064812Y0050556D01*
X0064812Y0050281D01*
X0064704Y0049740D01*
X0064493Y0049230D01*
X0064187Y0048772D01*
X0063972Y0048556D01*
X0064187Y0048341D01*
X0064493Y0047883D01*
X0064704Y0047373D01*
X0064812Y0046832D01*
X0064812Y0046557D01*
X0062012Y0046557D01*
X0062012Y0046557D01*
X0062012Y0046556D01*
X0062012Y0043756D01*
X0062012Y0046556D01*
X0062012Y0046556D01*
X0064812Y0046556D01*
X0064812Y0046281D01*
X0064704Y0045740D01*
X0064493Y0045230D01*
X0064187Y0044772D01*
X0063797Y0044382D01*
X0063338Y0044075D01*
X0062829Y0043864D01*
X0062288Y0043756D01*
X0062012Y0043756D01*
X0061736Y0043756D01*
X0061195Y0043864D01*
X0060686Y0044075D01*
X0060227Y0044382D01*
X0059837Y0044772D01*
X0059531Y0045230D01*
X0059320Y0045740D01*
X0059315Y0045762D01*
X0059288Y0045756D01*
X0059012Y0045756D01*
X0059012Y0048556D01*
X0059012Y0045756D01*
X0058736Y0045756D01*
X0058709Y0045762D01*
X0058704Y0045740D01*
X0058493Y0045230D01*
X0058187Y0044772D01*
X0057797Y0044382D01*
X0057338Y0044075D01*
X0056829Y0043864D01*
X0056288Y0043756D01*
X0056012Y0043756D01*
X0056012Y0046556D01*
X0056012Y0043756D01*
X0055736Y0043756D01*
X0055195Y0043864D01*
X0054686Y0044075D01*
X0054227Y0044382D01*
X0053837Y0044772D01*
X0053531Y0045230D01*
X0053320Y0045740D01*
X0053212Y0046281D01*
X0053212Y0046556D01*
X0056012Y0046556D01*
X0056012Y0046556D01*
X0056012Y0046557D01*
X0056012Y0049356D01*
X0056012Y0050556D01*
X0056012Y0046557D01*
X0056012Y0046557D01*
X0053212Y0046557D01*
X0053212Y0046832D01*
X0053320Y0047373D01*
X0053531Y0047883D01*
X0053837Y0048341D01*
X0054059Y0048563D01*
X0053844Y0048778D01*
X0053539Y0049235D01*
X0053329Y0049743D01*
X0053221Y0050282D01*
X0053221Y0050556D01*
X0056012Y0050556D01*
X0056012Y0050556D01*
X0056012Y0050557D01*
X0056012Y0050557D01*
X0056012Y0053347D01*
X0055737Y0053347D01*
X0055198Y0053240D01*
X0054690Y0053029D01*
X0056012Y0053060D02*
X0056012Y0053060D01*
X0056012Y0051861D02*
X0056012Y0051861D01*
X0056012Y0050663D02*
X0056012Y0050663D01*
X0056012Y0049464D02*
X0056012Y0049464D01*
X0056012Y0048266D02*
X0056012Y0048266D01*
X0056012Y0047067D02*
X0056012Y0047067D01*
X0056012Y0045869D02*
X0056012Y0045869D01*
X0056012Y0044670D02*
X0056012Y0044670D01*
X0053938Y0044670D02*
X0035592Y0044670D01*
X0036531Y0045869D02*
X0053294Y0045869D01*
X0053259Y0047067D02*
X0036531Y0047067D01*
X0036531Y0048266D02*
X0053787Y0048266D01*
X0053444Y0049464D02*
X0036487Y0049464D01*
X0035289Y0050663D02*
X0053221Y0050663D01*
X0053532Y0051861D02*
X0034090Y0051861D01*
X0029773Y0051861D02*
X0024090Y0051861D01*
X0025289Y0050663D02*
X0028574Y0050663D01*
X0027376Y0049464D02*
X0026487Y0049464D01*
X0026531Y0048266D02*
X0027331Y0048266D01*
X0027331Y0047067D02*
X0026531Y0047067D01*
X0026531Y0045869D02*
X0027331Y0045869D01*
X0028271Y0044670D02*
X0025592Y0044670D01*
X0019469Y0043472D02*
X0008731Y0043472D01*
X0008731Y0044670D02*
X0018271Y0044670D01*
X0017331Y0045869D02*
X0008731Y0045869D01*
X0008731Y0047067D02*
X0017331Y0047067D01*
X0017331Y0048266D02*
X0008731Y0048266D01*
X0008731Y0049464D02*
X0017376Y0049464D01*
X0018574Y0050663D02*
X0008731Y0050663D01*
X0008731Y0051861D02*
X0019773Y0051861D01*
X0018252Y0053060D02*
X0008731Y0053060D01*
X0008731Y0054258D02*
X0017344Y0054258D01*
X0017331Y0055457D02*
X0008731Y0055457D01*
X0008731Y0056655D02*
X0017331Y0056655D01*
X0025611Y0053060D02*
X0029881Y0053060D01*
X0028683Y0054258D02*
X0026519Y0054258D01*
X0026531Y0055457D02*
X0027484Y0055457D01*
X0027331Y0056655D02*
X0026531Y0056655D01*
X0026531Y0059052D02*
X0027331Y0059052D01*
X0026531Y0060251D02*
X0028162Y0060251D01*
X0029361Y0061449D02*
X0026239Y0061449D01*
X0035701Y0060251D02*
X0086715Y0060251D01*
X0087186Y0059052D02*
X0036531Y0059052D01*
X0034394Y0043472D02*
X0094114Y0043472D01*
X0094114Y0042655D02*
X0095257Y0039896D01*
X0097368Y0037785D01*
X0100127Y0036643D01*
X0103113Y0036643D01*
X0105871Y0037785D01*
X0107983Y0039896D01*
X0109125Y0042655D01*
X0109125Y0045641D01*
X0107983Y0048400D01*
X0105871Y0050511D01*
X0103113Y0051654D01*
X0100127Y0051654D01*
X0097368Y0050511D01*
X0095257Y0048400D01*
X0094114Y0045641D01*
X0094114Y0042655D01*
X0094272Y0042273D02*
X0067333Y0042273D01*
X0067930Y0041075D02*
X0094769Y0041075D01*
X0095277Y0039876D02*
X0067898Y0039876D01*
X0067539Y0038678D02*
X0096476Y0038678D01*
X0098107Y0037479D02*
X0067723Y0037479D01*
X0067908Y0036281D02*
X0139331Y0036281D01*
X0139331Y0035610D02*
X0142026Y0032915D01*
X0145837Y0032915D01*
X0148531Y0035610D01*
X0148531Y0039420D01*
X0145837Y0042115D01*
X0142026Y0042115D01*
X0139331Y0039420D01*
X0139331Y0035610D01*
X0139859Y0035082D02*
X0068092Y0035082D01*
X0068878Y0033884D02*
X0141057Y0033884D01*
X0142026Y0032115D02*
X0139331Y0029420D01*
X0139331Y0025610D01*
X0142026Y0022915D01*
X0145837Y0022915D01*
X0148531Y0025610D01*
X0148531Y0029420D01*
X0145837Y0032115D01*
X0142026Y0032115D01*
X0141398Y0031487D02*
X0138435Y0031487D01*
X0138422Y0031533D02*
X0138212Y0031897D01*
X0137914Y0032195D01*
X0137549Y0032406D01*
X0137142Y0032515D01*
X0134331Y0032515D01*
X0134331Y0028315D01*
X0133531Y0028315D01*
X0133531Y0027515D01*
X0129331Y0027515D01*
X0129331Y0024704D01*
X0129441Y0024297D01*
X0129651Y0023933D01*
X0129949Y0023635D01*
X0130314Y0023424D01*
X0130721Y0023315D01*
X0133531Y0023315D01*
X0133531Y0027515D01*
X0134331Y0027515D01*
X0134331Y0023315D01*
X0137142Y0023315D01*
X0137549Y0023424D01*
X0137914Y0023635D01*
X0138212Y0023933D01*
X0138422Y0024297D01*
X0138531Y0024704D01*
X0138531Y0027515D01*
X0134332Y0027515D01*
X0134332Y0028315D01*
X0138531Y0028315D01*
X0138531Y0031126D01*
X0138422Y0031533D01*
X0138531Y0030288D02*
X0140199Y0030288D01*
X0139331Y0029090D02*
X0138531Y0029090D01*
X0139331Y0027891D02*
X0134332Y0027891D01*
X0133531Y0027891D02*
X0128531Y0027891D01*
X0129331Y0028315D02*
X0129331Y0031126D01*
X0129441Y0031533D01*
X0129651Y0031897D01*
X0129949Y0032195D01*
X0130314Y0032406D01*
X0130721Y0032515D01*
X0133531Y0032515D01*
X0133531Y0028315D01*
X0129331Y0028315D01*
X0129331Y0029090D02*
X0128531Y0029090D01*
X0128531Y0029820D02*
X0128531Y0026010D01*
X0125837Y0023315D01*
X0122026Y0023315D01*
X0119331Y0026010D01*
X0119331Y0029820D01*
X0122026Y0032515D01*
X0125837Y0032515D01*
X0128531Y0029820D01*
X0128064Y0030288D02*
X0129331Y0030288D01*
X0129428Y0031487D02*
X0126865Y0031487D01*
X0128531Y0026693D02*
X0129331Y0026693D01*
X0129331Y0025494D02*
X0128016Y0025494D01*
X0126818Y0024296D02*
X0129442Y0024296D01*
X0133531Y0024296D02*
X0134331Y0024296D01*
X0134331Y0025494D02*
X0133531Y0025494D01*
X0133531Y0026693D02*
X0134331Y0026693D01*
X0134331Y0029090D02*
X0133531Y0029090D01*
X0133531Y0030288D02*
X0134331Y0030288D01*
X0134331Y0031487D02*
X0133531Y0031487D01*
X0138531Y0026693D02*
X0139331Y0026693D01*
X0139447Y0025494D02*
X0138531Y0025494D01*
X0138421Y0024296D02*
X0140645Y0024296D01*
X0141844Y0023097D02*
X0089598Y0023097D01*
X0089598Y0024296D02*
X0101045Y0024296D01*
X0102026Y0023315D02*
X0105837Y0023315D01*
X0108531Y0026010D01*
X0108531Y0029820D01*
X0105837Y0032515D01*
X0102026Y0032515D01*
X0099331Y0029820D01*
X0099331Y0026010D01*
X0102026Y0023315D01*
X0099847Y0025494D02*
X0089670Y0025494D01*
X0090304Y0026693D02*
X0099331Y0026693D01*
X0099331Y0027891D02*
X0090324Y0027891D01*
X0089717Y0029090D02*
X0099331Y0029090D01*
X0099799Y0030288D02*
X0089598Y0030288D01*
X0088702Y0031487D02*
X0100998Y0031487D01*
X0106865Y0031487D02*
X0110998Y0031487D01*
X0112026Y0032515D02*
X0109331Y0029820D01*
X0109331Y0026010D01*
X0112026Y0023315D01*
X0115837Y0023315D01*
X0118531Y0026010D01*
X0118531Y0029820D01*
X0115837Y0032515D01*
X0112026Y0032515D01*
X0109799Y0030288D02*
X0108064Y0030288D01*
X0108531Y0029090D02*
X0109331Y0029090D01*
X0109331Y0027891D02*
X0108531Y0027891D01*
X0108531Y0026693D02*
X0109331Y0026693D01*
X0109847Y0025494D02*
X0108016Y0025494D01*
X0106818Y0024296D02*
X0111045Y0024296D01*
X0116818Y0024296D02*
X0121045Y0024296D01*
X0119847Y0025494D02*
X0118016Y0025494D01*
X0118531Y0026693D02*
X0119331Y0026693D01*
X0119331Y0027891D02*
X0118531Y0027891D01*
X0118531Y0029090D02*
X0119331Y0029090D01*
X0119799Y0030288D02*
X0118064Y0030288D01*
X0116865Y0031487D02*
X0120998Y0031487D01*
X0107962Y0039876D02*
X0139787Y0039876D01*
X0139331Y0038678D02*
X0106764Y0038678D01*
X0105133Y0037479D02*
X0139331Y0037479D01*
X0140986Y0041075D02*
X0108471Y0041075D01*
X0108967Y0042273D02*
X0227231Y0042273D01*
X0227231Y0043472D02*
X0109125Y0043472D01*
X0109125Y0044670D02*
X0227231Y0044670D01*
X0227231Y0045869D02*
X0109031Y0045869D01*
X0108534Y0047067D02*
X0214019Y0047067D01*
X0214145Y0046941D02*
X0213358Y0047729D01*
X0212931Y0048758D01*
X0212931Y0049872D01*
X0213358Y0050901D01*
X0214145Y0051689D01*
X0215175Y0052115D01*
X0215331Y0052115D01*
X0215675Y0052528D01*
X0215784Y0052537D01*
X0222567Y0059320D01*
X0222358Y0059529D01*
X0221931Y0060558D01*
X0221931Y0061672D01*
X0222358Y0062701D01*
X0223145Y0063489D01*
X0224175Y0063915D01*
X0225288Y0063915D01*
X0226318Y0063489D01*
X0227105Y0062701D01*
X0227531Y0061672D01*
X0227531Y0060558D01*
X0227105Y0059529D01*
X0226831Y0059255D01*
X0226831Y0057645D01*
X0218531Y0049345D01*
X0218531Y0048758D01*
X0218105Y0047729D01*
X0217318Y0046941D01*
X0216288Y0046515D01*
X0215175Y0046515D01*
X0214145Y0046941D01*
X0213135Y0048266D02*
X0108038Y0048266D01*
X0106918Y0049464D02*
X0119201Y0049464D01*
X0118156Y0050663D02*
X0105504Y0050663D01*
X0097735Y0050663D02*
X0064812Y0050663D01*
X0064590Y0049464D02*
X0096322Y0049464D01*
X0095201Y0048266D02*
X0064237Y0048266D01*
X0064765Y0047067D02*
X0094705Y0047067D01*
X0094209Y0045869D02*
X0064730Y0045869D01*
X0064086Y0044670D02*
X0094114Y0044670D01*
X0097182Y0059052D02*
X0097294Y0059052D01*
X0099581Y0059052D02*
X0100681Y0059052D01*
X0100681Y0060251D02*
X0099581Y0060251D01*
X0099581Y0061449D02*
X0100681Y0061449D01*
X0100681Y0062648D02*
X0099581Y0062648D01*
X0100682Y0063846D02*
X0188997Y0063846D01*
X0188971Y0063906D02*
X0189654Y0062368D01*
X0189531Y0062072D01*
X0189531Y0060958D01*
X0189958Y0059929D01*
X0190745Y0059141D01*
X0191775Y0058715D01*
X0192888Y0058715D01*
X0193918Y0059141D01*
X0194431Y0059655D01*
X0194945Y0059141D01*
X0195975Y0058715D01*
X0197088Y0058715D01*
X0198118Y0059141D01*
X0198905Y0059929D01*
X0199331Y0060958D01*
X0199331Y0062072D01*
X0198905Y0063101D01*
X0198118Y0063889D01*
X0197088Y0064315D01*
X0196837Y0064315D01*
X0196831Y0064321D01*
X0196831Y0064385D01*
X0196255Y0064961D01*
X0195711Y0065566D01*
X0195647Y0065570D01*
X0195231Y0065985D01*
X0195231Y0081585D01*
X0194331Y0082485D01*
X0194331Y0082872D01*
X0193905Y0083901D01*
X0193118Y0084689D01*
X0192088Y0085115D01*
X0190975Y0085115D01*
X0189945Y0084689D01*
X0189158Y0083901D01*
X0188731Y0082872D01*
X0188731Y0081758D01*
X0189158Y0080729D01*
X0189231Y0080656D01*
X0188345Y0080289D01*
X0187558Y0079501D01*
X0187131Y0078472D01*
X0187131Y0077358D01*
X0187558Y0076329D01*
X0188345Y0075541D01*
X0188631Y0075423D01*
X0188631Y0065505D01*
X0188459Y0065057D01*
X0188631Y0064669D01*
X0188631Y0064245D01*
X0188971Y0063906D01*
X0188465Y0065045D02*
X0104031Y0065045D01*
X0104031Y0066244D02*
X0188631Y0066244D01*
X0188631Y0067442D02*
X0154878Y0067442D01*
X0156801Y0068641D02*
X0188631Y0068641D01*
X0188631Y0069839D02*
X0157131Y0069839D01*
X0156864Y0071038D02*
X0188631Y0071038D01*
X0188631Y0072236D02*
X0155399Y0072236D01*
X0151893Y0072236D02*
X0065432Y0072236D01*
X0065731Y0073435D02*
X0188631Y0073435D01*
X0188631Y0074633D02*
X0065731Y0074633D01*
X0065731Y0075832D02*
X0188055Y0075832D01*
X0187267Y0077030D02*
X0065731Y0077030D01*
X0065731Y0078229D02*
X0083159Y0078229D01*
X0083149Y0078235D02*
X0083514Y0078024D01*
X0083921Y0077915D01*
X0086731Y0077915D01*
X0086731Y0081115D01*
X0082531Y0081115D01*
X0082531Y0079304D01*
X0082641Y0078897D01*
X0082851Y0078533D01*
X0083149Y0078235D01*
X0082531Y0079427D02*
X0065731Y0079427D01*
X0065731Y0080626D02*
X0082531Y0080626D01*
X0082531Y0081915D02*
X0086731Y0081915D01*
X0086731Y0081115D01*
X0087531Y0081115D01*
X0087531Y0077915D01*
X0090342Y0077915D01*
X0090749Y0078024D01*
X0091114Y0078235D01*
X0091412Y0078533D01*
X0091622Y0078897D01*
X0091731Y0079304D01*
X0091731Y0081115D01*
X0087532Y0081115D01*
X0087532Y0081915D01*
X0091731Y0081915D01*
X0091731Y0083726D01*
X0091622Y0084133D01*
X0091412Y0084497D01*
X0091114Y0084795D01*
X0090749Y0085006D01*
X0090342Y0085115D01*
X0087531Y0085115D01*
X0087531Y0081915D01*
X0086731Y0081915D01*
X0086731Y0085115D01*
X0083921Y0085115D01*
X0083514Y0085006D01*
X0083149Y0084795D01*
X0082851Y0084497D01*
X0082641Y0084133D01*
X0082531Y0083726D01*
X0082531Y0081915D01*
X0082531Y0083023D02*
X0065731Y0083023D01*
X0065731Y0084221D02*
X0082692Y0084221D01*
X0086731Y0084221D02*
X0087531Y0084221D01*
X0087531Y0083023D02*
X0086731Y0083023D01*
X0086731Y0081824D02*
X0065731Y0081824D01*
X0065731Y0085420D02*
X0127145Y0085420D01*
X0127375Y0085515D02*
X0126345Y0085089D01*
X0125558Y0084301D01*
X0125131Y0083272D01*
X0125131Y0082158D01*
X0125558Y0081129D01*
X0126345Y0080341D01*
X0127375Y0079915D01*
X0128488Y0079915D01*
X0129518Y0080341D01*
X0129691Y0080515D01*
X0159432Y0080515D01*
X0160720Y0081804D01*
X0161566Y0082649D01*
X0161591Y0082650D01*
X0162208Y0083291D01*
X0162320Y0083404D01*
X0162837Y0083920D01*
X0162837Y0083945D01*
X0171006Y0092441D01*
X0171192Y0092441D01*
X0172218Y0092866D01*
X0173003Y0093651D01*
X0173428Y0094676D01*
X0173428Y0095787D01*
X0173003Y0096812D01*
X0172218Y0097597D01*
X0171428Y0097924D01*
X0171428Y0098587D01*
X0171131Y0099303D01*
X0171905Y0100077D01*
X0172331Y0101106D01*
X0172331Y0102220D01*
X0171905Y0103249D01*
X0171118Y0104037D01*
X0170088Y0104463D01*
X0168975Y0104463D01*
X0167945Y0104037D01*
X0167158Y0103249D01*
X0166985Y0102831D01*
X0166069Y0102362D01*
X0165429Y0102177D01*
X0165318Y0101977D01*
X0165114Y0101872D01*
X0164910Y0101238D01*
X0163952Y0099505D01*
X0159010Y0094563D01*
X0132443Y0094563D01*
X0131918Y0095089D01*
X0130888Y0095515D01*
X0129775Y0095515D01*
X0128745Y0095089D01*
X0127958Y0094301D01*
X0127531Y0093272D01*
X0127531Y0092158D01*
X0127958Y0091129D01*
X0128745Y0090341D01*
X0129775Y0089915D01*
X0130432Y0089915D01*
X0130331Y0089672D01*
X0130331Y0088687D01*
X0129651Y0088405D01*
X0128863Y0087618D01*
X0128437Y0086588D01*
X0128437Y0085515D01*
X0127375Y0085515D01*
X0128449Y0086618D02*
X0065731Y0086618D01*
X0065731Y0087817D02*
X0129062Y0087817D01*
X0130331Y0089015D02*
X0065731Y0089015D01*
X0065731Y0090214D02*
X0129053Y0090214D01*
X0127840Y0091412D02*
X0065731Y0091412D01*
X0065731Y0092611D02*
X0127531Y0092611D01*
X0127754Y0093809D02*
X0124269Y0093809D01*
X0124847Y0094049D02*
X0123604Y0093534D01*
X0122259Y0093534D01*
X0121016Y0094049D01*
X0120065Y0095000D01*
X0119550Y0096242D01*
X0119550Y0097587D01*
X0120065Y0098830D01*
X0121016Y0099781D01*
X0122259Y0100296D01*
X0122320Y0100296D01*
X0128734Y0104243D01*
X0128919Y0104428D01*
X0129271Y0104574D01*
X0129336Y0104613D01*
X0129131Y0105106D01*
X0129131Y0106063D01*
X0128175Y0106063D01*
X0127145Y0106489D01*
X0126358Y0107277D01*
X0125931Y0108306D01*
X0125931Y0109263D01*
X0125775Y0109263D01*
X0124745Y0109689D01*
X0123958Y0110477D01*
X0123531Y0111506D01*
X0123531Y0112620D01*
X0123958Y0113649D01*
X0124745Y0114437D01*
X0125775Y0114863D01*
X0126888Y0114863D01*
X0127918Y0114437D01*
X0128591Y0113763D01*
X0132401Y0113763D01*
X0132801Y0113363D01*
X0159272Y0113363D01*
X0159545Y0113637D01*
X0160575Y0114063D01*
X0161688Y0114063D01*
X0162718Y0113637D01*
X0163505Y0112849D01*
X0163931Y0111820D01*
X0163931Y0110706D01*
X0163505Y0109677D01*
X0162718Y0108889D01*
X0161688Y0108463D01*
X0160575Y0108463D01*
X0159545Y0108889D01*
X0159531Y0108903D01*
X0159531Y0108845D01*
X0160518Y0108437D01*
X0161295Y0107660D01*
X0161816Y0108181D01*
X0163059Y0108696D01*
X0164404Y0108696D01*
X0165647Y0108181D01*
X0166598Y0107230D01*
X0167113Y0105987D01*
X0167113Y0104642D01*
X0166598Y0103400D01*
X0165647Y0102449D01*
X0165210Y0102268D01*
X0161944Y0099002D01*
X0160768Y0098515D01*
X0131637Y0098515D01*
X0125594Y0094796D01*
X0124847Y0094049D01*
X0125938Y0095008D02*
X0128665Y0095008D01*
X0127886Y0096206D02*
X0160653Y0096206D01*
X0159454Y0095008D02*
X0131998Y0095008D01*
X0129833Y0097405D02*
X0161852Y0097405D01*
X0160981Y0098603D02*
X0163050Y0098603D01*
X0162744Y0099802D02*
X0164116Y0099802D01*
X0163942Y0101000D02*
X0164779Y0101000D01*
X0165141Y0102199D02*
X0165504Y0102199D01*
X0166595Y0103397D02*
X0167306Y0103397D01*
X0167093Y0104596D02*
X0208786Y0104596D01*
X0207465Y0103397D02*
X0171757Y0103397D01*
X0172331Y0102199D02*
X0206143Y0102199D01*
X0204821Y0101000D02*
X0172288Y0101000D01*
X0171630Y0099802D02*
X0203499Y0099802D01*
X0203418Y0099728D02*
X0203279Y0099719D01*
X0202787Y0099156D01*
X0202232Y0098653D01*
X0202225Y0098514D01*
X0202134Y0098410D01*
X0202184Y0097663D01*
X0202147Y0096915D01*
X0202240Y0096812D01*
X0202250Y0096674D01*
X0202813Y0096181D01*
X0203316Y0095627D01*
X0203454Y0095620D01*
X0204010Y0095134D01*
X0204065Y0095000D01*
X0205016Y0094049D01*
X0205460Y0093865D01*
X0212714Y0087518D01*
X0212739Y0087482D01*
X0212358Y0087101D01*
X0211931Y0086072D01*
X0211931Y0084958D01*
X0212358Y0083929D01*
X0213145Y0083141D01*
X0214175Y0082715D01*
X0214562Y0082715D01*
X0215631Y0081645D01*
X0215631Y0073262D01*
X0221985Y0066908D01*
X0222171Y0066478D01*
X0222576Y0066317D01*
X0222884Y0066009D01*
X0223353Y0066009D01*
X0223788Y0065836D01*
X0224188Y0066009D01*
X0224624Y0066009D01*
X0224955Y0066340D01*
X0227418Y0067403D01*
X0231731Y0062902D01*
X0231731Y0062458D01*
X0232158Y0061429D01*
X0232945Y0060641D01*
X0233975Y0060215D01*
X0235088Y0060215D01*
X0236118Y0060641D01*
X0236905Y0061429D01*
X0237148Y0062015D01*
X0237243Y0061920D01*
X0237535Y0061602D01*
X0237562Y0061601D01*
X0237581Y0061581D01*
X0238014Y0061581D01*
X0238445Y0061563D01*
X0238465Y0061581D01*
X0238493Y0061581D01*
X0238798Y0061887D01*
X0239117Y0062179D01*
X0239118Y0062207D01*
X0245031Y0068120D01*
X0245344Y0068383D01*
X0245349Y0068437D01*
X0245387Y0068476D01*
X0245387Y0068884D01*
X0245422Y0069291D01*
X0245387Y0069333D01*
X0245387Y0069387D01*
X0245098Y0069676D01*
X0236973Y0079331D01*
X0237597Y0082336D01*
X0237687Y0082426D01*
X0237687Y0082708D01*
X0238798Y0082514D01*
X0239012Y0082327D01*
X0239626Y0082369D01*
X0240232Y0082263D01*
X0240465Y0082426D01*
X0240748Y0082446D01*
X0241152Y0082909D01*
X0241656Y0083263D01*
X0241705Y0083543D01*
X0242768Y0084762D01*
X0243018Y0084866D01*
X0243803Y0085651D01*
X0244038Y0086218D01*
X0246741Y0089318D01*
X0247310Y0089919D01*
X0247308Y0089969D01*
X0247341Y0090007D01*
X0247285Y0090831D01*
X0247263Y0091658D01*
X0247226Y0091692D01*
X0247223Y0091743D01*
X0246600Y0092286D01*
X0242769Y0095915D01*
X0243088Y0095915D01*
X0244118Y0096341D01*
X0244905Y0097129D01*
X0245331Y0098158D01*
X0245331Y0099272D01*
X0244905Y0100301D01*
X0244118Y0101089D01*
X0243088Y0101515D01*
X0241975Y0101515D01*
X0240945Y0101089D01*
X0240158Y0100301D01*
X0240123Y0100218D01*
X0239201Y0099295D01*
X0233280Y0104904D01*
X0236635Y0108259D01*
X0239015Y0110299D01*
X0239118Y0110341D01*
X0239435Y0110659D01*
X0239777Y0110952D01*
X0239827Y0111050D01*
X0239905Y0111129D01*
X0240077Y0111544D01*
X0240281Y0111945D01*
X0240289Y0112056D01*
X0240331Y0112158D01*
X0240331Y0112607D01*
X0240366Y0113056D01*
X0240331Y0113161D01*
X0240331Y0113272D01*
X0240160Y0113687D01*
X0240020Y0114114D01*
X0239948Y0114199D01*
X0239905Y0114301D01*
X0239587Y0114619D01*
X0239295Y0114960D01*
X0239196Y0115010D01*
X0239118Y0115089D01*
X0238702Y0115261D01*
X0238302Y0115464D01*
X0238191Y0115473D01*
X0238088Y0115515D01*
X0237639Y0115515D01*
X0237191Y0115549D01*
X0237085Y0115515D01*
X0236975Y0115515D01*
X0236559Y0115343D01*
X0236132Y0115203D01*
X0236048Y0115131D01*
X0235945Y0115089D01*
X0235628Y0114771D01*
X0233248Y0112731D01*
X0233145Y0112689D01*
X0232828Y0112371D01*
X0232486Y0112078D01*
X0232436Y0111979D01*
X0229214Y0108757D01*
X0222939Y0114701D01*
X0222408Y0115286D01*
X0222317Y0115291D01*
X0222250Y0115354D01*
X0221460Y0115333D01*
X0220671Y0115371D01*
X0220603Y0115310D01*
X0220511Y0115307D01*
X0219967Y0114734D01*
X0203418Y0099728D01*
X0202230Y0098603D02*
X0171421Y0098603D01*
X0172410Y0097405D02*
X0202171Y0097405D01*
X0202784Y0096206D02*
X0173254Y0096206D01*
X0173428Y0095008D02*
X0204062Y0095008D01*
X0205523Y0093809D02*
X0173068Y0093809D01*
X0171602Y0092611D02*
X0206893Y0092611D01*
X0208263Y0091412D02*
X0170017Y0091412D01*
X0168864Y0090214D02*
X0209633Y0090214D01*
X0211002Y0089015D02*
X0167712Y0089015D01*
X0166559Y0087817D02*
X0212372Y0087817D01*
X0212158Y0086618D02*
X0165407Y0086618D01*
X0164255Y0085420D02*
X0211931Y0085420D01*
X0212237Y0084221D02*
X0193585Y0084221D01*
X0194269Y0083023D02*
X0213432Y0083023D01*
X0215452Y0081824D02*
X0194992Y0081824D01*
X0195231Y0080626D02*
X0215631Y0080626D01*
X0215631Y0079427D02*
X0212979Y0079427D01*
X0212718Y0079689D02*
X0211688Y0080115D01*
X0210575Y0080115D01*
X0209545Y0079689D01*
X0208758Y0078901D01*
X0208331Y0077872D01*
X0208331Y0076758D01*
X0208758Y0075729D01*
X0209031Y0075455D01*
X0209031Y0070785D01*
X0204962Y0066715D01*
X0204575Y0066715D01*
X0203545Y0066289D01*
X0202758Y0065501D01*
X0202331Y0064472D01*
X0202331Y0063358D01*
X0202758Y0062329D01*
X0203545Y0061541D01*
X0204575Y0061115D01*
X0205688Y0061115D01*
X0206718Y0061541D01*
X0207505Y0062329D01*
X0207931Y0063358D01*
X0207931Y0063745D01*
X0213231Y0069045D01*
X0213231Y0075455D01*
X0213505Y0075729D01*
X0213931Y0076758D01*
X0213931Y0077872D01*
X0213505Y0078901D01*
X0212718Y0079689D01*
X0213784Y0078229D02*
X0215631Y0078229D01*
X0215631Y0077030D02*
X0213931Y0077030D01*
X0213548Y0075832D02*
X0215631Y0075832D01*
X0215631Y0074633D02*
X0213231Y0074633D01*
X0213231Y0073435D02*
X0215631Y0073435D01*
X0216657Y0072236D02*
X0213231Y0072236D01*
X0213231Y0071038D02*
X0217856Y0071038D01*
X0219054Y0069839D02*
X0213231Y0069839D01*
X0212827Y0068641D02*
X0220253Y0068641D01*
X0221451Y0067442D02*
X0211628Y0067442D01*
X0210430Y0066244D02*
X0222650Y0066244D01*
X0224859Y0066244D02*
X0228529Y0066244D01*
X0229678Y0065045D02*
X0209231Y0065045D01*
X0208033Y0063846D02*
X0224009Y0063846D01*
X0225454Y0063846D02*
X0230826Y0063846D01*
X0231731Y0062648D02*
X0227127Y0062648D01*
X0227531Y0061449D02*
X0232149Y0061449D01*
X0233888Y0060251D02*
X0227404Y0060251D01*
X0226831Y0059052D02*
X0266283Y0059052D01*
X0267481Y0057854D02*
X0226831Y0057854D01*
X0227312Y0056655D02*
X0225842Y0056655D01*
X0226608Y0055457D02*
X0224643Y0055457D01*
X0223445Y0054258D02*
X0226531Y0054258D01*
X0227027Y0053060D02*
X0222246Y0053060D01*
X0221048Y0051861D02*
X0227231Y0051861D01*
X0227231Y0050663D02*
X0219849Y0050663D01*
X0218651Y0049464D02*
X0227231Y0049464D01*
X0227231Y0048266D02*
X0218328Y0048266D01*
X0217444Y0047067D02*
X0227231Y0047067D01*
X0231431Y0048266D02*
X0265331Y0048266D01*
X0265331Y0049464D02*
X0231431Y0049464D01*
X0231431Y0050663D02*
X0264990Y0050663D01*
X0264750Y0051861D02*
X0231431Y0051861D01*
X0231636Y0053060D02*
X0264946Y0053060D01*
X0265693Y0054258D02*
X0232131Y0054258D01*
X0232055Y0055457D02*
X0269878Y0055457D01*
X0270570Y0054258D02*
X0271077Y0054258D01*
X0271317Y0053060D02*
X0271731Y0053060D01*
X0271731Y0051861D02*
X0271513Y0051861D01*
X0271731Y0050663D02*
X0271273Y0050663D01*
X0274731Y0053715D02*
X0253731Y0074715D01*
X0253099Y0072236D02*
X0249064Y0072236D01*
X0246399Y0072236D02*
X0242944Y0072236D01*
X0243952Y0071038D02*
X0254298Y0071038D01*
X0255496Y0069839D02*
X0244961Y0069839D01*
X0245387Y0068641D02*
X0256695Y0068641D01*
X0257893Y0067442D02*
X0244353Y0067442D01*
X0243155Y0066244D02*
X0259092Y0066244D01*
X0260290Y0065045D02*
X0241956Y0065045D01*
X0242537Y0064431D02*
X0243437Y0065931D01*
X0240758Y0063846D02*
X0261489Y0063846D01*
X0262687Y0062648D02*
X0239559Y0062648D01*
X0236914Y0061449D02*
X0263886Y0061449D01*
X0265084Y0060251D02*
X0235175Y0060251D01*
X0231351Y0056655D02*
X0268680Y0056655D01*
X0272331Y0059515D02*
X0273931Y0057915D01*
X0293931Y0057515D01*
X0295833Y0055457D02*
X0307731Y0055457D01*
X0307731Y0055620D02*
X0307731Y0052348D01*
X0302690Y0048315D01*
X0287417Y0048315D01*
X0287025Y0048343D01*
X0286942Y0048315D01*
X0286254Y0048315D01*
X0285771Y0048115D01*
X0284975Y0048115D01*
X0283945Y0047689D01*
X0283158Y0046901D01*
X0282731Y0045872D01*
X0282731Y0044758D01*
X0283158Y0043729D01*
X0283945Y0042941D01*
X0284975Y0042515D01*
X0286088Y0042515D01*
X0287118Y0042941D01*
X0287676Y0043500D01*
X0287721Y0043515D01*
X0303399Y0043515D01*
X0303741Y0043477D01*
X0303872Y0043515D01*
X0304009Y0043515D01*
X0304327Y0043647D01*
X0304658Y0043743D01*
X0304765Y0043828D01*
X0304891Y0043880D01*
X0305135Y0044124D01*
X0310739Y0048608D01*
X0310837Y0048645D01*
X0311110Y0048904D01*
X0311373Y0049115D01*
X0314237Y0049115D01*
X0316931Y0051810D01*
X0316931Y0055620D01*
X0314237Y0058315D01*
X0310426Y0058315D01*
X0307731Y0055620D01*
X0307731Y0054258D02*
X0276931Y0054258D01*
X0276931Y0054626D02*
X0275882Y0055676D01*
X0292136Y0055350D01*
X0292345Y0055141D01*
X0293375Y0054715D01*
X0294488Y0054715D01*
X0295518Y0055141D01*
X0296305Y0055929D01*
X0296731Y0056958D01*
X0296731Y0058072D01*
X0296305Y0059101D01*
X0295518Y0059889D01*
X0294488Y0060315D01*
X0293375Y0060315D01*
X0292345Y0059889D01*
X0292207Y0059750D01*
X0274861Y0060097D01*
X0273931Y0061026D01*
X0273931Y0062755D01*
X0274105Y0062929D01*
X0274531Y0063958D01*
X0274531Y0065072D01*
X0274514Y0065115D01*
X0276809Y0065115D01*
X0277775Y0064715D01*
X0278888Y0064715D01*
X0279918Y0065141D01*
X0280705Y0065929D01*
X0281131Y0066958D01*
X0281131Y0068072D01*
X0280705Y0069101D01*
X0279918Y0069889D01*
X0278888Y0070315D01*
X0277775Y0070315D01*
X0276809Y0069915D01*
X0274131Y0069915D01*
X0274131Y0086955D01*
X0274705Y0087529D01*
X0275131Y0088558D01*
X0275131Y0089672D01*
X0274705Y0090701D01*
X0273931Y0091475D01*
X0273931Y0094804D01*
X0278131Y0090604D01*
X0278131Y0088604D01*
X0279420Y0087315D01*
X0283420Y0083315D01*
X0284620Y0083315D01*
X0289847Y0078088D01*
X0290271Y0077495D01*
X0290474Y0077461D01*
X0290620Y0077315D01*
X0291349Y0077315D01*
X0291856Y0077231D01*
X0291972Y0077115D01*
X0281054Y0077115D01*
X0280088Y0077515D01*
X0278975Y0077515D01*
X0277945Y0077089D01*
X0277158Y0076301D01*
X0276731Y0075272D01*
X0276731Y0074158D01*
X0277158Y0073129D01*
X0277945Y0072341D01*
X0278975Y0071915D01*
X0280088Y0071915D01*
X0281054Y0072315D01*
X0307731Y0072315D01*
X0307731Y0071810D01*
X0310426Y0069115D01*
X0314237Y0069115D01*
X0316931Y0071810D01*
X0316931Y0075620D01*
X0314237Y0078315D01*
X0310426Y0078315D01*
X0309226Y0077115D01*
X0295891Y0077115D01*
X0296305Y0077529D01*
X0296731Y0078558D01*
X0296731Y0079672D01*
X0296305Y0080701D01*
X0295518Y0081489D01*
X0294488Y0081915D01*
X0293375Y0081915D01*
X0292574Y0081583D01*
X0287731Y0086426D01*
X0287731Y0086426D01*
X0287567Y0086591D01*
X0287905Y0086929D01*
X0288305Y0087895D01*
X0291788Y0091377D01*
X0308164Y0091377D01*
X0310426Y0089115D01*
X0314237Y0089115D01*
X0316931Y0091810D01*
X0316931Y0095620D01*
X0314237Y0098315D01*
X0310426Y0098315D01*
X0308288Y0096177D01*
X0307408Y0096177D01*
X0307731Y0096958D01*
X0307731Y0098072D01*
X0307305Y0099101D01*
X0306518Y0099889D01*
X0305488Y0100315D01*
X0304375Y0100315D01*
X0303409Y0099915D01*
X0298526Y0099915D01*
X0296705Y0101735D01*
X0296305Y0102701D01*
X0295518Y0103489D01*
X0294488Y0103915D01*
X0293375Y0103915D01*
X0292345Y0103489D01*
X0291558Y0102701D01*
X0291131Y0101672D01*
X0291131Y0100558D01*
X0291558Y0099529D01*
X0292345Y0098741D01*
X0293311Y0098341D01*
X0295475Y0096177D01*
X0290316Y0096177D01*
X0289434Y0095812D01*
X0288759Y0095137D01*
X0284911Y0091289D01*
X0283945Y0090889D01*
X0283158Y0090101D01*
X0283070Y0089888D01*
X0282531Y0090426D01*
X0282531Y0092426D01*
X0276531Y0098426D01*
X0275243Y0099715D01*
X0273931Y0099715D01*
X0273931Y0103915D01*
X0275531Y0105515D01*
X0277972Y0105515D01*
X0278145Y0105341D01*
X0279175Y0104915D01*
X0280288Y0104915D01*
X0281318Y0105341D01*
X0281491Y0105515D01*
X0302372Y0105515D01*
X0303145Y0104741D01*
X0304175Y0104315D01*
X0305288Y0104315D01*
X0306318Y0104741D01*
X0307091Y0105515D01*
X0307731Y0105515D01*
X0307731Y0100252D01*
X0308669Y0099315D01*
X0315994Y0099315D01*
X0316931Y0100252D01*
X0316931Y0105578D01*
X0320231Y0105672D01*
X0320231Y0019975D01*
X0317972Y0017715D01*
X0280514Y0017715D01*
X0280531Y0017758D01*
X0280531Y0018872D01*
X0280131Y0019838D01*
X0280131Y0020592D01*
X0279766Y0021474D01*
X0276531Y0024709D01*
X0276531Y0028898D01*
X0276975Y0028715D01*
X0278088Y0028715D01*
X0279054Y0029115D01*
X0314237Y0029115D01*
X0316931Y0031810D01*
X0316931Y0035620D01*
X0314237Y0038315D01*
X0310426Y0038315D01*
X0307731Y0035620D01*
X0307731Y0033915D01*
X0295891Y0033915D01*
X0296305Y0034329D01*
X0296731Y0035358D01*
X0296731Y0036472D01*
X0296305Y0037501D01*
X0295518Y0038289D01*
X0294488Y0038715D01*
X0293375Y0038715D01*
X0292345Y0038289D01*
X0292241Y0038184D01*
X0284879Y0038479D01*
X0284843Y0038515D01*
X0283975Y0038515D01*
X0283109Y0038550D01*
X0283071Y0038515D01*
X0282843Y0038515D01*
X0276931Y0044426D01*
X0276931Y0054626D01*
X0276101Y0055457D02*
X0286813Y0055457D01*
X0293220Y0060251D02*
X0274707Y0060251D01*
X0273931Y0061449D02*
X0307731Y0061449D01*
X0307731Y0060251D02*
X0294643Y0060251D01*
X0296325Y0059052D02*
X0320231Y0059052D01*
X0320231Y0057854D02*
X0314698Y0057854D01*
X0315896Y0056655D02*
X0320231Y0056655D01*
X0320231Y0055457D02*
X0316931Y0055457D01*
X0316931Y0054258D02*
X0320231Y0054258D01*
X0320231Y0053060D02*
X0316931Y0053060D01*
X0316931Y0051861D02*
X0320231Y0051861D01*
X0320231Y0050663D02*
X0315785Y0050663D01*
X0314586Y0049464D02*
X0320231Y0049464D01*
X0320231Y0048266D02*
X0314286Y0048266D01*
X0314237Y0048315D02*
X0310426Y0048315D01*
X0307731Y0045620D01*
X0307731Y0041810D01*
X0310426Y0039115D01*
X0314237Y0039115D01*
X0316931Y0041810D01*
X0316931Y0045620D01*
X0314237Y0048315D01*
X0315484Y0047067D02*
X0320231Y0047067D01*
X0320231Y0045869D02*
X0316683Y0045869D01*
X0316931Y0044670D02*
X0320231Y0044670D01*
X0320231Y0043472D02*
X0316931Y0043472D01*
X0316931Y0042273D02*
X0320231Y0042273D01*
X0320231Y0041075D02*
X0316197Y0041075D01*
X0314998Y0039876D02*
X0320231Y0039876D01*
X0320231Y0038678D02*
X0294578Y0038678D01*
X0293285Y0038678D02*
X0282680Y0038678D01*
X0281481Y0039876D02*
X0309665Y0039876D01*
X0308466Y0041075D02*
X0280283Y0041075D01*
X0279084Y0042273D02*
X0307731Y0042273D01*
X0307731Y0043472D02*
X0287648Y0043472D01*
X0283415Y0043472D02*
X0277886Y0043472D01*
X0276931Y0044670D02*
X0282768Y0044670D01*
X0282731Y0045869D02*
X0276931Y0045869D01*
X0276931Y0047067D02*
X0283324Y0047067D01*
X0286136Y0048266D02*
X0276931Y0048266D01*
X0276931Y0049464D02*
X0304126Y0049464D01*
X0305625Y0050663D02*
X0276931Y0050663D01*
X0276931Y0051861D02*
X0307123Y0051861D01*
X0307731Y0053060D02*
X0276931Y0053060D01*
X0274731Y0053715D02*
X0274731Y0043515D01*
X0281931Y0036315D01*
X0283931Y0036315D01*
X0293931Y0035915D01*
X0283931Y0036315D01*
X0289731Y0031515D02*
X0277531Y0031515D01*
X0278993Y0029090D02*
X0320231Y0029090D01*
X0320231Y0030288D02*
X0315410Y0030288D01*
X0316609Y0031487D02*
X0320231Y0031487D01*
X0320231Y0032685D02*
X0316931Y0032685D01*
X0316931Y0033884D02*
X0320231Y0033884D01*
X0320231Y0035082D02*
X0316931Y0035082D01*
X0316271Y0036281D02*
X0320231Y0036281D01*
X0320231Y0037479D02*
X0315073Y0037479D01*
X0315131Y0038715D02*
X0302931Y0038715D01*
X0302731Y0038915D01*
X0308392Y0036281D02*
X0296731Y0036281D01*
X0296617Y0035082D02*
X0307731Y0035082D01*
X0309590Y0037479D02*
X0296314Y0037479D01*
X0305818Y0044670D02*
X0307731Y0044670D01*
X0307980Y0045869D02*
X0307316Y0045869D01*
X0308814Y0047067D02*
X0309178Y0047067D01*
X0310312Y0048266D02*
X0310377Y0048266D01*
X0308767Y0056655D02*
X0296606Y0056655D01*
X0296731Y0057854D02*
X0309965Y0057854D01*
X0308669Y0059115D02*
X0307731Y0060052D01*
X0307731Y0067378D01*
X0308669Y0068315D01*
X0315994Y0068315D01*
X0316931Y0067378D01*
X0316931Y0060052D01*
X0315994Y0059115D01*
X0308669Y0059115D01*
X0307731Y0062648D02*
X0273931Y0062648D01*
X0274485Y0063846D02*
X0307731Y0063846D01*
X0307731Y0065045D02*
X0279685Y0065045D01*
X0280836Y0066244D02*
X0307731Y0066244D01*
X0307796Y0067442D02*
X0281131Y0067442D01*
X0280896Y0068641D02*
X0320231Y0068641D01*
X0320231Y0069839D02*
X0314961Y0069839D01*
X0316159Y0071038D02*
X0320231Y0071038D01*
X0320231Y0072236D02*
X0316931Y0072236D01*
X0316931Y0073435D02*
X0320231Y0073435D01*
X0320231Y0074633D02*
X0316931Y0074633D01*
X0316720Y0075832D02*
X0320231Y0075832D01*
X0320231Y0077030D02*
X0315522Y0077030D01*
X0314323Y0078229D02*
X0320231Y0078229D01*
X0320231Y0079427D02*
X0314549Y0079427D01*
X0314237Y0079115D02*
X0316931Y0081810D01*
X0316931Y0085620D01*
X0314237Y0088315D01*
X0310426Y0088315D01*
X0307731Y0085620D01*
X0307731Y0081810D01*
X0310426Y0079115D01*
X0314237Y0079115D01*
X0315748Y0080626D02*
X0320231Y0080626D01*
X0320231Y0081824D02*
X0316931Y0081824D01*
X0316931Y0083023D02*
X0320231Y0083023D01*
X0320231Y0084221D02*
X0316931Y0084221D01*
X0316931Y0085420D02*
X0320231Y0085420D01*
X0320231Y0086618D02*
X0315934Y0086618D01*
X0314735Y0087817D02*
X0320231Y0087817D01*
X0320231Y0089015D02*
X0289426Y0089015D01*
X0288273Y0087817D02*
X0309928Y0087817D01*
X0308729Y0086618D02*
X0287595Y0086618D01*
X0288738Y0085420D02*
X0307731Y0085420D01*
X0307731Y0084221D02*
X0289937Y0084221D01*
X0291135Y0083023D02*
X0307731Y0083023D01*
X0307731Y0081824D02*
X0294708Y0081824D01*
X0293155Y0081824D02*
X0292334Y0081824D01*
X0291531Y0079515D02*
X0285531Y0085515D01*
X0284331Y0085515D01*
X0280331Y0089515D01*
X0280331Y0091515D01*
X0274331Y0097515D01*
X0270531Y0097515D01*
X0269331Y0097515D01*
X0266752Y0098603D02*
X0245331Y0098603D01*
X0245112Y0099802D02*
X0266762Y0099802D01*
X0266531Y0101000D02*
X0244206Y0101000D01*
X0242531Y0098715D02*
X0241731Y0098715D01*
X0238931Y0095915D01*
X0243792Y0096206D02*
X0266843Y0096206D01*
X0266531Y0097405D02*
X0245020Y0097405D01*
X0243727Y0095008D02*
X0267265Y0095008D01*
X0266588Y0093809D02*
X0244992Y0093809D01*
X0246257Y0092611D02*
X0266531Y0092611D01*
X0267074Y0091412D02*
X0247269Y0091412D01*
X0247327Y0090214D02*
X0269756Y0090214D01*
X0269341Y0089015D02*
X0246477Y0089015D01*
X0245432Y0087817D02*
X0269331Y0087817D01*
X0269331Y0086618D02*
X0244386Y0086618D01*
X0243572Y0085420D02*
X0269331Y0085420D01*
X0269331Y0084221D02*
X0252985Y0084221D01*
X0253903Y0083023D02*
X0269331Y0083023D01*
X0269331Y0081824D02*
X0254131Y0081824D01*
X0254332Y0080626D02*
X0269331Y0080626D01*
X0269331Y0079427D02*
X0255531Y0079427D01*
X0256729Y0078229D02*
X0269331Y0078229D01*
X0269331Y0077030D02*
X0257928Y0077030D01*
X0259126Y0075832D02*
X0269331Y0075832D01*
X0269331Y0074633D02*
X0260325Y0074633D01*
X0261523Y0073435D02*
X0269331Y0073435D01*
X0269331Y0072236D02*
X0262722Y0072236D01*
X0263920Y0071038D02*
X0269331Y0071038D01*
X0269331Y0069839D02*
X0265119Y0069839D01*
X0266317Y0068641D02*
X0269331Y0068641D01*
X0269331Y0067442D02*
X0267516Y0067442D01*
X0268714Y0066244D02*
X0269331Y0066244D01*
X0274531Y0065045D02*
X0276978Y0065045D01*
X0279967Y0069839D02*
X0309702Y0069839D01*
X0308504Y0071038D02*
X0274131Y0071038D01*
X0274131Y0072236D02*
X0278199Y0072236D01*
X0277031Y0073435D02*
X0274131Y0073435D01*
X0274131Y0074633D02*
X0276731Y0074633D01*
X0276963Y0075832D02*
X0274131Y0075832D01*
X0274131Y0077030D02*
X0277887Y0077030D01*
X0274131Y0078229D02*
X0289707Y0078229D01*
X0288508Y0079427D02*
X0274131Y0079427D01*
X0274131Y0080626D02*
X0287310Y0080626D01*
X0286111Y0081824D02*
X0274131Y0081824D01*
X0274131Y0083023D02*
X0284913Y0083023D01*
X0282514Y0084221D02*
X0274131Y0084221D01*
X0274131Y0085420D02*
X0281315Y0085420D01*
X0280117Y0086618D02*
X0274131Y0086618D01*
X0274824Y0087817D02*
X0278918Y0087817D01*
X0278131Y0089015D02*
X0275131Y0089015D01*
X0274907Y0090214D02*
X0278131Y0090214D01*
X0277323Y0091412D02*
X0273994Y0091412D01*
X0273931Y0092611D02*
X0276124Y0092611D01*
X0274926Y0093809D02*
X0273931Y0093809D01*
X0278751Y0096206D02*
X0295446Y0096206D01*
X0294248Y0097405D02*
X0277553Y0097405D01*
X0276354Y0098603D02*
X0292678Y0098603D01*
X0291445Y0099802D02*
X0273931Y0099802D01*
X0273931Y0101000D02*
X0291131Y0101000D01*
X0291350Y0102199D02*
X0273931Y0102199D01*
X0273931Y0103397D02*
X0292254Y0103397D01*
X0295609Y0103397D02*
X0307731Y0103397D01*
X0307731Y0102199D02*
X0296513Y0102199D01*
X0297440Y0101000D02*
X0307731Y0101000D01*
X0308182Y0099802D02*
X0306604Y0099802D01*
X0307511Y0098603D02*
X0320231Y0098603D01*
X0320231Y0097405D02*
X0315147Y0097405D01*
X0316346Y0096206D02*
X0320231Y0096206D01*
X0320231Y0095008D02*
X0316931Y0095008D01*
X0316931Y0093809D02*
X0320231Y0093809D01*
X0320231Y0092611D02*
X0316931Y0092611D01*
X0316534Y0091412D02*
X0320231Y0091412D01*
X0320231Y0090214D02*
X0315336Y0090214D01*
X0309327Y0090214D02*
X0290624Y0090214D01*
X0287432Y0093809D02*
X0281148Y0093809D01*
X0279950Y0095008D02*
X0288630Y0095008D01*
X0286233Y0092611D02*
X0282347Y0092611D01*
X0282531Y0091412D02*
X0285035Y0091412D01*
X0283270Y0090214D02*
X0282744Y0090214D01*
X0291531Y0079515D02*
X0293931Y0079115D01*
X0296595Y0078229D02*
X0310340Y0078229D01*
X0310114Y0079427D02*
X0296731Y0079427D01*
X0296336Y0080626D02*
X0308915Y0080626D01*
X0307731Y0072236D02*
X0280864Y0072236D01*
X0272331Y0059515D02*
X0256331Y0075515D01*
X0251331Y0080515D01*
X0251331Y0081915D01*
X0248760Y0083023D02*
X0241314Y0083023D01*
X0242296Y0084221D02*
X0249678Y0084221D01*
X0248531Y0081824D02*
X0237491Y0081824D01*
X0237242Y0080626D02*
X0248835Y0080626D01*
X0249308Y0079427D02*
X0236993Y0079427D01*
X0237900Y0078229D02*
X0250507Y0078229D01*
X0249376Y0077030D02*
X0251705Y0077030D01*
X0246087Y0077030D02*
X0238909Y0077030D01*
X0239918Y0075832D02*
X0245163Y0075832D01*
X0244931Y0074633D02*
X0240926Y0074633D01*
X0241935Y0073435D02*
X0245231Y0073435D01*
X0222336Y0062648D02*
X0207637Y0062648D01*
X0206496Y0061449D02*
X0221931Y0061449D01*
X0222059Y0060251D02*
X0199039Y0060251D01*
X0199331Y0061449D02*
X0203767Y0061449D01*
X0202626Y0062648D02*
X0199093Y0062648D01*
X0198160Y0063846D02*
X0202331Y0063846D01*
X0202569Y0065045D02*
X0196180Y0065045D01*
X0195231Y0066244D02*
X0203500Y0066244D01*
X0205689Y0067442D02*
X0195231Y0067442D01*
X0195231Y0068641D02*
X0206887Y0068641D01*
X0208086Y0069839D02*
X0195231Y0069839D01*
X0195231Y0071038D02*
X0209031Y0071038D01*
X0209031Y0072236D02*
X0195231Y0072236D01*
X0195231Y0073435D02*
X0209031Y0073435D01*
X0209031Y0074633D02*
X0195231Y0074633D01*
X0195231Y0075832D02*
X0208715Y0075832D01*
X0208331Y0077030D02*
X0195231Y0077030D01*
X0195231Y0078229D02*
X0208479Y0078229D01*
X0209284Y0079427D02*
X0195231Y0079427D01*
X0189159Y0080626D02*
X0159542Y0080626D01*
X0160741Y0081824D02*
X0188731Y0081824D01*
X0188794Y0083023D02*
X0161950Y0083023D01*
X0162320Y0083404D02*
X0162320Y0083404D01*
X0163102Y0084221D02*
X0189478Y0084221D01*
X0187527Y0079427D02*
X0091731Y0079427D01*
X0091731Y0080626D02*
X0126061Y0080626D01*
X0125270Y0081824D02*
X0087532Y0081824D01*
X0087531Y0080626D02*
X0086731Y0080626D01*
X0086731Y0079427D02*
X0087531Y0079427D01*
X0087531Y0078229D02*
X0086731Y0078229D01*
X0091103Y0078229D02*
X0187131Y0078229D01*
X0189530Y0062648D02*
X0122686Y0062648D01*
X0123873Y0061449D02*
X0189531Y0061449D01*
X0189824Y0060251D02*
X0124313Y0060251D01*
X0124313Y0059052D02*
X0190960Y0059052D01*
X0193703Y0059052D02*
X0195160Y0059052D01*
X0197903Y0059052D02*
X0222299Y0059052D01*
X0221101Y0057854D02*
X0123820Y0057854D01*
X0123731Y0056655D02*
X0219902Y0056655D01*
X0218704Y0055457D02*
X0123731Y0055457D01*
X0123970Y0054258D02*
X0217505Y0054258D01*
X0216307Y0053060D02*
X0124483Y0053060D01*
X0124513Y0051861D02*
X0214562Y0051861D01*
X0213259Y0050663D02*
X0124107Y0050663D01*
X0123062Y0049464D02*
X0212931Y0049464D01*
X0203531Y0042115D02*
X0202026Y0042115D01*
X0199331Y0039420D01*
X0199331Y0037915D01*
X0203531Y0037915D01*
X0203531Y0042115D01*
X0203531Y0041075D02*
X0204331Y0041075D01*
X0204331Y0039876D02*
X0203531Y0039876D01*
X0203531Y0038678D02*
X0204331Y0038678D01*
X0204331Y0036281D02*
X0203531Y0036281D01*
X0203531Y0035082D02*
X0204331Y0035082D01*
X0204331Y0033884D02*
X0203531Y0033884D01*
X0201057Y0033884D02*
X0196806Y0033884D01*
X0198004Y0035082D02*
X0199859Y0035082D01*
X0199331Y0036281D02*
X0198531Y0036281D01*
X0198531Y0038678D02*
X0199331Y0038678D01*
X0199787Y0039876D02*
X0198076Y0039876D01*
X0196877Y0041075D02*
X0200986Y0041075D01*
X0206877Y0041075D02*
X0227132Y0041075D01*
X0226533Y0039876D02*
X0208076Y0039876D01*
X0208531Y0038678D02*
X0226565Y0038678D01*
X0226465Y0031487D02*
X0229645Y0031487D01*
X0229331Y0030288D02*
X0227664Y0030288D01*
X0228531Y0029090D02*
X0229331Y0029090D01*
X0221398Y0031487D02*
X0216465Y0031487D01*
X0217664Y0030288D02*
X0220199Y0030288D01*
X0219331Y0029090D02*
X0218531Y0029090D01*
X0218531Y0027891D02*
X0219331Y0027891D01*
X0219331Y0026693D02*
X0218531Y0026693D01*
X0218416Y0025494D02*
X0219447Y0025494D01*
X0220645Y0024296D02*
X0217218Y0024296D01*
X0216019Y0023097D02*
X0221844Y0023097D01*
X0208004Y0035082D02*
X0265331Y0035082D01*
X0265331Y0036281D02*
X0208531Y0036281D01*
X0201398Y0031487D02*
X0196465Y0031487D01*
X0197664Y0030288D02*
X0200199Y0030288D01*
X0199331Y0029090D02*
X0198531Y0029090D01*
X0198531Y0027891D02*
X0199331Y0027891D01*
X0199331Y0026693D02*
X0198531Y0026693D01*
X0198416Y0025494D02*
X0199447Y0025494D01*
X0200645Y0024296D02*
X0197218Y0024296D01*
X0194331Y0033884D02*
X0193531Y0033884D01*
X0193531Y0035082D02*
X0194331Y0035082D01*
X0194331Y0038678D02*
X0193531Y0038678D01*
X0193531Y0039876D02*
X0194331Y0039876D01*
X0194331Y0041075D02*
X0193531Y0041075D01*
X0180986Y0041075D02*
X0176877Y0041075D01*
X0175837Y0042115D02*
X0172026Y0042115D01*
X0169331Y0039420D01*
X0169331Y0035610D01*
X0172026Y0032915D01*
X0175837Y0032915D01*
X0178531Y0035610D01*
X0178531Y0039420D01*
X0175837Y0042115D01*
X0178076Y0039876D02*
X0179787Y0039876D01*
X0179331Y0038678D02*
X0178531Y0038678D01*
X0178531Y0037479D02*
X0179331Y0037479D01*
X0179331Y0036281D02*
X0178531Y0036281D01*
X0178004Y0035082D02*
X0179859Y0035082D01*
X0181057Y0033884D02*
X0176806Y0033884D01*
X0175837Y0032115D02*
X0172026Y0032115D01*
X0169331Y0029420D01*
X0169331Y0025610D01*
X0172026Y0022915D01*
X0175837Y0022915D01*
X0178531Y0025610D01*
X0178531Y0029420D01*
X0175837Y0032115D01*
X0176465Y0031487D02*
X0181398Y0031487D01*
X0180199Y0030288D02*
X0177664Y0030288D01*
X0178531Y0029090D02*
X0179331Y0029090D01*
X0179331Y0027891D02*
X0178531Y0027891D01*
X0178531Y0026693D02*
X0179331Y0026693D01*
X0179447Y0025494D02*
X0178416Y0025494D01*
X0177218Y0024296D02*
X0180645Y0024296D01*
X0181844Y0023097D02*
X0176019Y0023097D01*
X0171844Y0023097D02*
X0166019Y0023097D01*
X0165837Y0022915D02*
X0168531Y0025610D01*
X0168531Y0029420D01*
X0165837Y0032115D01*
X0162026Y0032115D01*
X0159331Y0029420D01*
X0159331Y0025610D01*
X0162026Y0022915D01*
X0165837Y0022915D01*
X0167218Y0024296D02*
X0170645Y0024296D01*
X0169447Y0025494D02*
X0168416Y0025494D01*
X0168531Y0026693D02*
X0169331Y0026693D01*
X0169331Y0027891D02*
X0168531Y0027891D01*
X0168531Y0029090D02*
X0169331Y0029090D01*
X0170199Y0030288D02*
X0167664Y0030288D01*
X0166465Y0031487D02*
X0171398Y0031487D01*
X0171057Y0033884D02*
X0166806Y0033884D01*
X0165837Y0032915D02*
X0168531Y0035610D01*
X0168531Y0039420D01*
X0165837Y0042115D01*
X0162026Y0042115D01*
X0159331Y0039420D01*
X0159331Y0035610D01*
X0162026Y0032915D01*
X0165837Y0032915D01*
X0168004Y0035082D02*
X0169859Y0035082D01*
X0169331Y0036281D02*
X0168531Y0036281D01*
X0168531Y0037479D02*
X0169331Y0037479D01*
X0169331Y0038678D02*
X0168531Y0038678D01*
X0168076Y0039876D02*
X0169787Y0039876D01*
X0170986Y0041075D02*
X0166877Y0041075D01*
X0160986Y0041075D02*
X0156877Y0041075D01*
X0155837Y0042115D02*
X0152026Y0042115D01*
X0149331Y0039420D01*
X0149331Y0035610D01*
X0152026Y0032915D01*
X0155837Y0032915D01*
X0158531Y0035610D01*
X0158531Y0039420D01*
X0155837Y0042115D01*
X0158076Y0039876D02*
X0159787Y0039876D01*
X0159331Y0038678D02*
X0158531Y0038678D01*
X0158531Y0037479D02*
X0159331Y0037479D01*
X0159331Y0036281D02*
X0158531Y0036281D01*
X0158004Y0035082D02*
X0159859Y0035082D01*
X0161057Y0033884D02*
X0156806Y0033884D01*
X0155837Y0032115D02*
X0152026Y0032115D01*
X0149331Y0029420D01*
X0149331Y0025610D01*
X0152026Y0022915D01*
X0155837Y0022915D01*
X0158531Y0025610D01*
X0158531Y0029420D01*
X0155837Y0032115D01*
X0156465Y0031487D02*
X0161398Y0031487D01*
X0160199Y0030288D02*
X0157664Y0030288D01*
X0158531Y0029090D02*
X0159331Y0029090D01*
X0159331Y0027891D02*
X0158531Y0027891D01*
X0158531Y0026693D02*
X0159331Y0026693D01*
X0159447Y0025494D02*
X0158416Y0025494D01*
X0157218Y0024296D02*
X0160645Y0024296D01*
X0161844Y0023097D02*
X0156019Y0023097D01*
X0151844Y0023097D02*
X0146019Y0023097D01*
X0147218Y0024296D02*
X0150645Y0024296D01*
X0149447Y0025494D02*
X0148416Y0025494D01*
X0148531Y0026693D02*
X0149331Y0026693D01*
X0149331Y0027891D02*
X0148531Y0027891D01*
X0148531Y0029090D02*
X0149331Y0029090D01*
X0150199Y0030288D02*
X0147664Y0030288D01*
X0146465Y0031487D02*
X0151398Y0031487D01*
X0151057Y0033884D02*
X0146806Y0033884D01*
X0148004Y0035082D02*
X0149859Y0035082D01*
X0149331Y0036281D02*
X0148531Y0036281D01*
X0148531Y0037479D02*
X0149331Y0037479D01*
X0149331Y0038678D02*
X0148531Y0038678D01*
X0148076Y0039876D02*
X0149787Y0039876D01*
X0150986Y0041075D02*
X0146877Y0041075D01*
X0117750Y0051861D02*
X0064502Y0051861D01*
X0063285Y0053060D02*
X0117780Y0053060D01*
X0117550Y0059052D02*
X0102969Y0059052D01*
X0104004Y0060251D02*
X0117550Y0060251D01*
X0117990Y0061449D02*
X0104031Y0061449D01*
X0104031Y0062648D02*
X0119177Y0062648D01*
X0103933Y0067442D02*
X0152185Y0067442D01*
X0150966Y0071038D02*
X0064267Y0071038D01*
X0060131Y0078229D02*
X0021103Y0078229D01*
X0021731Y0079427D02*
X0060131Y0079427D01*
X0060131Y0080626D02*
X0021731Y0080626D01*
X0017531Y0080626D02*
X0016731Y0080626D01*
X0016731Y0079427D02*
X0017531Y0079427D01*
X0017531Y0078229D02*
X0016731Y0078229D01*
X0016731Y0083023D02*
X0017531Y0083023D01*
X0017531Y0084221D02*
X0016731Y0084221D01*
X0021277Y0103397D02*
X0127360Y0103397D01*
X0129307Y0104596D02*
X0021731Y0104596D01*
X0021981Y0105794D02*
X0129131Y0105794D01*
X0126642Y0106993D02*
X0037769Y0106993D01*
X0038580Y0108191D02*
X0083224Y0108191D01*
X0083149Y0108235D02*
X0083514Y0108024D01*
X0083921Y0107915D01*
X0086731Y0107915D01*
X0086731Y0111115D01*
X0082531Y0111115D01*
X0082531Y0109304D01*
X0082641Y0108897D01*
X0082851Y0108533D01*
X0083149Y0108235D01*
X0082531Y0109390D02*
X0038731Y0109390D01*
X0038352Y0110588D02*
X0082531Y0110588D01*
X0082531Y0111915D02*
X0086731Y0111915D01*
X0086731Y0111115D01*
X0087531Y0111115D01*
X0087531Y0107915D01*
X0090342Y0107915D01*
X0090749Y0108024D01*
X0091114Y0108235D01*
X0091412Y0108533D01*
X0091622Y0108897D01*
X0091731Y0109304D01*
X0091731Y0111115D01*
X0087532Y0111115D01*
X0087532Y0111915D01*
X0091731Y0111915D01*
X0091731Y0113726D01*
X0091622Y0114133D01*
X0091412Y0114497D01*
X0091114Y0114795D01*
X0090749Y0115006D01*
X0090342Y0115115D01*
X0087531Y0115115D01*
X0087531Y0111915D01*
X0086731Y0111915D01*
X0086731Y0115115D01*
X0083921Y0115115D01*
X0083514Y0115006D01*
X0083149Y0114795D01*
X0082851Y0114497D01*
X0082641Y0114133D01*
X0082531Y0113726D01*
X0082531Y0111915D01*
X0082531Y0112985D02*
X0029172Y0112985D01*
X0027973Y0111787D02*
X0035065Y0111787D01*
X0036798Y0111787D02*
X0086731Y0111787D01*
X0087532Y0111787D02*
X0123531Y0111787D01*
X0123683Y0112985D02*
X0091731Y0112985D01*
X0091593Y0114184D02*
X0124493Y0114184D01*
X0128170Y0114184D02*
X0174451Y0114184D01*
X0173548Y0115382D02*
X0031569Y0115382D01*
X0030370Y0114184D02*
X0082670Y0114184D01*
X0086731Y0114184D02*
X0087531Y0114184D01*
X0087531Y0112985D02*
X0086731Y0112985D01*
X0086731Y0110588D02*
X0087531Y0110588D01*
X0087531Y0109390D02*
X0086731Y0109390D01*
X0086731Y0108191D02*
X0087531Y0108191D01*
X0091039Y0108191D02*
X0125979Y0108191D01*
X0125468Y0109390D02*
X0091731Y0109390D01*
X0091731Y0110588D02*
X0123912Y0110588D01*
X0127779Y0117779D02*
X0173646Y0117779D01*
X0173331Y0116581D02*
X0039531Y0116581D01*
X0040809Y0117779D02*
X0116107Y0117779D01*
X0115406Y0118978D02*
X0041131Y0118978D01*
X0040922Y0120177D02*
X0115331Y0120177D01*
X0115832Y0121375D02*
X0040031Y0121375D01*
X0037531Y0122574D02*
X0125785Y0122574D01*
X0126983Y0123772D02*
X0037034Y0123772D01*
X0037132Y0116581D02*
X0032767Y0116581D01*
X0034094Y0106993D02*
X0027869Y0106993D01*
X0024194Y0106993D02*
X0023179Y0106993D01*
X0061007Y0102199D02*
X0125412Y0102199D01*
X0123465Y0101000D02*
X0062206Y0101000D01*
X0063404Y0099802D02*
X0121066Y0099802D01*
X0119971Y0098603D02*
X0064603Y0098603D01*
X0065511Y0097405D02*
X0119550Y0097405D01*
X0119565Y0096206D02*
X0065731Y0096206D01*
X0065731Y0095008D02*
X0120062Y0095008D01*
X0121594Y0093809D02*
X0065731Y0093809D01*
X0091571Y0084221D02*
X0125525Y0084221D01*
X0125131Y0083023D02*
X0091731Y0083023D01*
X0099581Y0067442D02*
X0100681Y0067442D01*
X0100681Y0066244D02*
X0099581Y0066244D01*
X0099581Y0065045D02*
X0100681Y0065045D01*
X0094131Y0063715D02*
X0091046Y0063715D01*
X0089515Y0060683D01*
X0062012Y0053060D02*
X0062012Y0053060D01*
X0062012Y0051861D02*
X0062012Y0051861D01*
X0062012Y0050663D02*
X0062012Y0050663D01*
X0062012Y0049464D02*
X0062012Y0049464D01*
X0062012Y0048266D02*
X0062012Y0048266D01*
X0062012Y0047067D02*
X0062012Y0047067D01*
X0062012Y0045869D02*
X0062012Y0045869D01*
X0062012Y0044670D02*
X0062012Y0044670D01*
X0059938Y0044670D02*
X0058086Y0044670D01*
X0059012Y0045869D02*
X0059012Y0045869D01*
X0059012Y0047067D02*
X0059012Y0047067D01*
X0059012Y0048266D02*
X0059012Y0048266D01*
X0059012Y0048556D02*
X0059012Y0048556D01*
X0059012Y0049464D02*
X0059012Y0049464D01*
X0059012Y0050663D02*
X0059012Y0050663D01*
X0059522Y0051861D02*
X0058492Y0051861D01*
X0057260Y0053060D02*
X0060739Y0053060D01*
X0079148Y0031487D02*
X0080248Y0031487D01*
X0080248Y0030288D02*
X0079148Y0030288D01*
X0079148Y0029090D02*
X0080248Y0029090D01*
X0080248Y0027891D02*
X0079148Y0027891D01*
X0082363Y0031487D02*
X0082694Y0031487D01*
X0085698Y0026778D02*
X0087531Y0027411D01*
X0087531Y0027315D01*
X0127931Y0082715D02*
X0158520Y0082715D01*
X0160120Y0084315D01*
X0160269Y0084463D02*
X0160637Y0084831D01*
X0170637Y0095231D01*
X0167837Y0096063D02*
X0168637Y0098031D01*
X0167837Y0096063D02*
X0167037Y0095169D01*
X0159931Y0088063D01*
X0158731Y0086863D01*
X0157900Y0086031D01*
X0131237Y0086031D01*
X0160763Y0108191D02*
X0161841Y0108191D01*
X0163218Y0109390D02*
X0194945Y0109390D01*
X0193747Y0110588D02*
X0163883Y0110588D01*
X0163931Y0111787D02*
X0192548Y0111787D01*
X0191350Y0112985D02*
X0163369Y0112985D01*
X0165622Y0108191D02*
X0196144Y0108191D01*
X0196858Y0110588D02*
X0199005Y0110588D01*
X0200203Y0111787D02*
X0195660Y0111787D01*
X0194461Y0112985D02*
X0201402Y0112985D01*
X0202600Y0114184D02*
X0193262Y0114184D01*
X0192064Y0115382D02*
X0203799Y0115382D01*
X0204998Y0116581D02*
X0190865Y0116581D01*
X0191762Y0117779D02*
X0206196Y0117779D01*
X0207395Y0118978D02*
X0192922Y0118978D01*
X0194081Y0120177D02*
X0208593Y0120177D01*
X0209792Y0121375D02*
X0195241Y0121375D01*
X0196401Y0122574D02*
X0210990Y0122574D01*
X0212189Y0123772D02*
X0197561Y0123772D01*
X0198721Y0124971D02*
X0213387Y0124971D01*
X0214586Y0126169D02*
X0199881Y0126169D01*
X0201040Y0127368D02*
X0215784Y0127368D01*
X0216983Y0128566D02*
X0202200Y0128566D01*
X0203360Y0129765D02*
X0218181Y0129765D01*
X0219380Y0130963D02*
X0204520Y0130963D01*
X0205680Y0132162D02*
X0220578Y0132162D01*
X0221777Y0133360D02*
X0206840Y0133360D01*
X0208000Y0134559D02*
X0222975Y0134559D01*
X0224174Y0135757D02*
X0209159Y0135757D01*
X0210319Y0136956D02*
X0225372Y0136956D01*
X0226086Y0134559D02*
X0276287Y0134559D01*
X0275791Y0135757D02*
X0258485Y0135757D01*
X0277384Y0133360D02*
X0224888Y0133360D01*
X0223689Y0132162D02*
X0278740Y0132162D01*
X0286704Y0132162D02*
X0288934Y0132162D01*
X0288731Y0131672D02*
X0288731Y0130558D01*
X0289158Y0129529D01*
X0289431Y0129255D01*
X0289431Y0124190D01*
X0285362Y0120120D01*
X0284975Y0120120D01*
X0283945Y0119694D01*
X0283158Y0118907D01*
X0282731Y0117877D01*
X0282731Y0116764D01*
X0283158Y0115734D01*
X0283945Y0114947D01*
X0284975Y0114520D01*
X0286088Y0114520D01*
X0287118Y0114947D01*
X0287905Y0115734D01*
X0288331Y0116764D01*
X0288331Y0117151D01*
X0293631Y0122451D01*
X0293631Y0129255D01*
X0293905Y0129529D01*
X0294331Y0130558D01*
X0294331Y0131672D01*
X0293905Y0132701D01*
X0293118Y0133489D01*
X0292088Y0133915D01*
X0290975Y0133915D01*
X0289945Y0133489D01*
X0289158Y0132701D01*
X0288731Y0131672D01*
X0288731Y0130963D02*
X0222491Y0130963D01*
X0221292Y0129765D02*
X0289060Y0129765D01*
X0289431Y0128566D02*
X0220094Y0128566D01*
X0218895Y0127368D02*
X0289431Y0127368D01*
X0289431Y0126169D02*
X0217697Y0126169D01*
X0216498Y0124971D02*
X0289431Y0124971D01*
X0289013Y0123772D02*
X0215300Y0123772D01*
X0214101Y0122574D02*
X0287815Y0122574D01*
X0286616Y0121375D02*
X0212903Y0121375D01*
X0211704Y0120177D02*
X0285418Y0120177D01*
X0283229Y0118978D02*
X0210506Y0118978D01*
X0209307Y0117779D02*
X0282731Y0117779D01*
X0282807Y0116581D02*
X0208109Y0116581D01*
X0206910Y0115382D02*
X0236655Y0115382D01*
X0238462Y0115382D02*
X0283510Y0115382D01*
X0287553Y0115382D02*
X0300731Y0115382D01*
X0300731Y0114184D02*
X0239960Y0114184D01*
X0240361Y0112985D02*
X0300731Y0112985D01*
X0300731Y0111787D02*
X0252219Y0111787D01*
X0250531Y0109515D02*
X0277931Y0109515D01*
X0279731Y0107715D01*
X0282016Y0109390D02*
X0300731Y0109390D01*
X0300731Y0110588D02*
X0279969Y0110588D01*
X0282531Y0108191D02*
X0300731Y0108191D01*
X0303496Y0104596D02*
X0274612Y0104596D01*
X0272700Y0105794D02*
X0234171Y0105794D01*
X0233606Y0104596D02*
X0271731Y0104596D01*
X0271731Y0103397D02*
X0270655Y0103397D01*
X0268008Y0103397D02*
X0234871Y0103397D01*
X0236136Y0102199D02*
X0266833Y0102199D01*
X0273898Y0106993D02*
X0251759Y0106993D01*
X0249304Y0106993D02*
X0235369Y0106993D01*
X0236568Y0108191D02*
X0248049Y0108191D01*
X0247731Y0109390D02*
X0237955Y0109390D01*
X0239365Y0110588D02*
X0247945Y0110588D01*
X0248844Y0111787D02*
X0240200Y0111787D01*
X0234943Y0114184D02*
X0223485Y0114184D01*
X0224750Y0112985D02*
X0233545Y0112985D01*
X0232244Y0111787D02*
X0226015Y0111787D01*
X0227280Y0110588D02*
X0231045Y0110588D01*
X0229847Y0109390D02*
X0228545Y0109390D01*
X0219361Y0114184D02*
X0205712Y0114184D01*
X0204513Y0112985D02*
X0218039Y0112985D01*
X0216717Y0111787D02*
X0203315Y0111787D01*
X0202116Y0110588D02*
X0215396Y0110588D01*
X0214074Y0109390D02*
X0200918Y0109390D01*
X0199719Y0108191D02*
X0212752Y0108191D01*
X0211430Y0106993D02*
X0166696Y0106993D01*
X0167113Y0105794D02*
X0210108Y0105794D01*
X0190151Y0114184D02*
X0177812Y0114184D01*
X0178715Y0115382D02*
X0188945Y0115382D01*
X0188531Y0116581D02*
X0179219Y0116581D01*
X0180418Y0117779D02*
X0188685Y0117779D01*
X0189860Y0118978D02*
X0181616Y0118978D01*
X0182815Y0120177D02*
X0191020Y0120177D01*
X0192180Y0121375D02*
X0184013Y0121375D01*
X0185212Y0122574D02*
X0193340Y0122574D01*
X0194499Y0123772D02*
X0186410Y0123772D01*
X0188599Y0124971D02*
X0195659Y0124971D01*
X0196819Y0126169D02*
X0189131Y0126169D01*
X0189070Y0127368D02*
X0197979Y0127368D01*
X0199139Y0128566D02*
X0188388Y0128566D01*
X0189603Y0129765D02*
X0200299Y0129765D01*
X0201459Y0130963D02*
X0189931Y0130963D01*
X0189948Y0132162D02*
X0202618Y0132162D01*
X0203778Y0133360D02*
X0190031Y0133360D01*
X0190031Y0134559D02*
X0204938Y0134559D01*
X0206098Y0135757D02*
X0190031Y0135757D01*
X0190031Y0136956D02*
X0207258Y0136956D01*
X0208418Y0138154D02*
X0190031Y0138154D01*
X0190031Y0139353D02*
X0209577Y0139353D01*
X0210737Y0140551D02*
X0190031Y0140551D01*
X0190031Y0141750D02*
X0211897Y0141750D01*
X0213057Y0142948D02*
X0189068Y0142948D01*
X0188001Y0144015D02*
X0188001Y0144015D01*
X0187870Y0144147D02*
X0214217Y0144147D01*
X0215377Y0145345D02*
X0186671Y0145345D01*
X0185473Y0146544D02*
X0216537Y0146544D01*
X0217696Y0147742D02*
X0184274Y0147742D01*
X0183075Y0148941D02*
X0192694Y0148941D01*
X0192358Y0149277D02*
X0193145Y0148489D01*
X0194175Y0148063D01*
X0195288Y0148063D01*
X0196318Y0148489D01*
X0197105Y0149277D01*
X0197531Y0150306D01*
X0197531Y0151081D01*
X0197575Y0151063D01*
X0198688Y0151063D01*
X0199718Y0151489D01*
X0200505Y0152277D01*
X0200931Y0153306D01*
X0200931Y0154420D01*
X0200505Y0155449D01*
X0200231Y0155723D01*
X0200231Y0159333D01*
X0191131Y0168433D01*
X0191131Y0168820D01*
X0190705Y0169849D01*
X0189918Y0170637D01*
X0188888Y0171063D01*
X0187775Y0171063D01*
X0186745Y0170637D01*
X0185958Y0169849D01*
X0185531Y0168820D01*
X0185531Y0167706D01*
X0185599Y0167542D01*
X0185345Y0167437D01*
X0184558Y0166649D01*
X0184131Y0165620D01*
X0184131Y0164506D01*
X0184558Y0163477D01*
X0185345Y0162689D01*
X0186375Y0162263D01*
X0186762Y0162263D01*
X0192831Y0156193D01*
X0192831Y0152923D01*
X0192358Y0152449D01*
X0191931Y0151420D01*
X0191931Y0150306D01*
X0192358Y0149277D01*
X0192001Y0150139D02*
X0181877Y0150139D01*
X0180831Y0151338D02*
X0191931Y0151338D01*
X0192445Y0152536D02*
X0180831Y0152536D01*
X0180831Y0153735D02*
X0192831Y0153735D01*
X0192831Y0154933D02*
X0180831Y0154933D01*
X0180731Y0156132D02*
X0192831Y0156132D01*
X0191694Y0157330D02*
X0180376Y0157330D01*
X0178938Y0158529D02*
X0190496Y0158529D01*
X0186900Y0162124D02*
X0096331Y0162124D01*
X0096331Y0163323D02*
X0184712Y0163323D01*
X0184131Y0164521D02*
X0102243Y0164521D01*
X0103442Y0165720D02*
X0184173Y0165720D01*
X0184827Y0166918D02*
X0104640Y0166918D01*
X0104731Y0168117D02*
X0185531Y0168117D01*
X0185737Y0169315D02*
X0104731Y0169315D01*
X0104731Y0170514D02*
X0186623Y0170514D01*
X0190040Y0170514D02*
X0193973Y0170514D01*
X0193531Y0171713D02*
X0103839Y0171713D01*
X0102641Y0172911D02*
X0193631Y0172911D01*
X0195773Y0169315D02*
X0190926Y0169315D01*
X0191447Y0168117D02*
X0197360Y0168117D01*
X0198558Y0166918D02*
X0192646Y0166918D01*
X0193844Y0165720D02*
X0199757Y0165720D01*
X0200955Y0164521D02*
X0195043Y0164521D01*
X0196241Y0163323D02*
X0202154Y0163323D01*
X0203352Y0162124D02*
X0197440Y0162124D01*
X0198638Y0160926D02*
X0203793Y0160926D01*
X0204779Y0159727D02*
X0199837Y0159727D01*
X0200231Y0158529D02*
X0224531Y0158529D01*
X0224531Y0159727D02*
X0207884Y0159727D01*
X0208870Y0160926D02*
X0224531Y0160926D01*
X0224531Y0157330D02*
X0200231Y0157330D01*
X0200231Y0156132D02*
X0224531Y0156132D01*
X0224531Y0154933D02*
X0200719Y0154933D01*
X0200931Y0153735D02*
X0223496Y0153735D01*
X0222336Y0152536D02*
X0200613Y0152536D01*
X0199352Y0151338D02*
X0221176Y0151338D01*
X0220016Y0150139D02*
X0197462Y0150139D01*
X0196769Y0148941D02*
X0218856Y0148941D01*
X0234374Y0153735D02*
X0239889Y0153735D01*
X0240309Y0153315D02*
X0243954Y0153315D01*
X0246531Y0155892D01*
X0246531Y0159537D01*
X0243954Y0162115D01*
X0240309Y0162115D01*
X0237731Y0159537D01*
X0237731Y0155892D01*
X0240309Y0153315D01*
X0238691Y0154933D02*
X0235572Y0154933D01*
X0236531Y0156132D02*
X0237731Y0156132D01*
X0237731Y0157330D02*
X0236531Y0157330D01*
X0236531Y0158529D02*
X0237731Y0158529D01*
X0237921Y0159727D02*
X0236342Y0159727D01*
X0235143Y0160926D02*
X0239120Y0160926D01*
X0240309Y0163315D02*
X0243954Y0163315D01*
X0246531Y0165892D01*
X0246531Y0169537D01*
X0243954Y0172115D01*
X0240309Y0172115D01*
X0237731Y0169537D01*
X0237731Y0165892D01*
X0240309Y0163315D01*
X0240301Y0163323D02*
X0234245Y0163323D01*
X0235443Y0164521D02*
X0239102Y0164521D01*
X0237904Y0165720D02*
X0236642Y0165720D01*
X0236731Y0166918D02*
X0237731Y0166918D01*
X0237731Y0168117D02*
X0236731Y0168117D01*
X0236731Y0169315D02*
X0237731Y0169315D01*
X0238708Y0170514D02*
X0235838Y0170514D01*
X0234639Y0171713D02*
X0239907Y0171713D01*
X0244356Y0171713D02*
X0249907Y0171713D01*
X0250309Y0172115D02*
X0247731Y0169537D01*
X0247731Y0165892D01*
X0250309Y0163315D01*
X0253954Y0163315D01*
X0256531Y0165892D01*
X0256531Y0169537D01*
X0253954Y0172115D01*
X0250309Y0172115D01*
X0248708Y0170514D02*
X0245555Y0170514D01*
X0246531Y0169315D02*
X0247731Y0169315D01*
X0247731Y0168117D02*
X0246531Y0168117D01*
X0246531Y0166918D02*
X0247731Y0166918D01*
X0247904Y0165720D02*
X0246359Y0165720D01*
X0245160Y0164521D02*
X0249102Y0164521D01*
X0250301Y0163323D02*
X0243962Y0163323D01*
X0245143Y0160926D02*
X0249120Y0160926D01*
X0250309Y0162115D02*
X0247731Y0159537D01*
X0247731Y0155892D01*
X0250309Y0153315D01*
X0253954Y0153315D01*
X0256531Y0155892D01*
X0256531Y0159537D01*
X0253954Y0162115D01*
X0250309Y0162115D01*
X0247921Y0159727D02*
X0246342Y0159727D01*
X0246531Y0158529D02*
X0247731Y0158529D01*
X0247731Y0157330D02*
X0246531Y0157330D01*
X0246531Y0156132D02*
X0247731Y0156132D01*
X0248691Y0154933D02*
X0245572Y0154933D01*
X0244374Y0153735D02*
X0249889Y0153735D01*
X0254374Y0153735D02*
X0259889Y0153735D01*
X0260309Y0153315D02*
X0263954Y0153315D01*
X0266531Y0155892D01*
X0266531Y0159537D01*
X0263954Y0162115D01*
X0260309Y0162115D01*
X0257731Y0159537D01*
X0257731Y0155892D01*
X0260309Y0153315D01*
X0258691Y0154933D02*
X0255572Y0154933D01*
X0256531Y0156132D02*
X0257731Y0156132D01*
X0257731Y0157330D02*
X0256531Y0157330D01*
X0256531Y0158529D02*
X0257731Y0158529D01*
X0257921Y0159727D02*
X0256342Y0159727D01*
X0255143Y0160926D02*
X0259120Y0160926D01*
X0260309Y0163315D02*
X0263954Y0163315D01*
X0266531Y0165892D01*
X0266531Y0169537D01*
X0263954Y0172115D01*
X0260309Y0172115D01*
X0257731Y0169537D01*
X0257731Y0165892D01*
X0260309Y0163315D01*
X0260301Y0163323D02*
X0253962Y0163323D01*
X0255160Y0164521D02*
X0259102Y0164521D01*
X0257904Y0165720D02*
X0256359Y0165720D01*
X0256531Y0166918D02*
X0257731Y0166918D01*
X0257731Y0168117D02*
X0256531Y0168117D01*
X0256531Y0169315D02*
X0257731Y0169315D01*
X0258708Y0170514D02*
X0255555Y0170514D01*
X0254356Y0171713D02*
X0259907Y0171713D01*
X0264356Y0171713D02*
X0269907Y0171713D01*
X0268708Y0170514D02*
X0265555Y0170514D01*
X0266531Y0169315D02*
X0267731Y0169315D01*
X0267731Y0168117D02*
X0266531Y0168117D01*
X0266531Y0166918D02*
X0267731Y0166918D01*
X0267904Y0165720D02*
X0266359Y0165720D01*
X0265160Y0164521D02*
X0269102Y0164521D01*
X0270301Y0163323D02*
X0263962Y0163323D01*
X0265143Y0160926D02*
X0269120Y0160926D01*
X0270309Y0162115D02*
X0267731Y0159537D01*
X0267731Y0155892D01*
X0270309Y0153315D01*
X0273954Y0153315D01*
X0276531Y0155892D01*
X0276531Y0159537D01*
X0273954Y0162115D01*
X0270309Y0162115D01*
X0267921Y0159727D02*
X0266342Y0159727D01*
X0266531Y0158529D02*
X0267731Y0158529D01*
X0267731Y0157330D02*
X0266531Y0157330D01*
X0266531Y0156132D02*
X0267731Y0156132D01*
X0268691Y0154933D02*
X0265572Y0154933D01*
X0264374Y0153735D02*
X0269889Y0153735D01*
X0274374Y0153735D02*
X0275751Y0153735D01*
X0275572Y0154933D02*
X0276950Y0154933D01*
X0277131Y0156132D02*
X0276531Y0156132D01*
X0276531Y0157330D02*
X0277131Y0157330D01*
X0277131Y0158529D02*
X0276531Y0158529D01*
X0276342Y0159727D02*
X0277131Y0159727D01*
X0277131Y0160926D02*
X0275143Y0160926D01*
X0286138Y0145345D02*
X0300731Y0145345D01*
X0300731Y0144147D02*
X0287826Y0144147D01*
X0289024Y0142948D02*
X0300731Y0142948D01*
X0300731Y0141750D02*
X0289556Y0141750D01*
X0290053Y0140551D02*
X0300731Y0140551D01*
X0300731Y0139353D02*
X0290228Y0139353D01*
X0290228Y0138154D02*
X0300731Y0138154D01*
X0300731Y0136956D02*
X0290150Y0136956D01*
X0289653Y0135757D02*
X0300731Y0135757D01*
X0300731Y0134559D02*
X0289157Y0134559D01*
X0289817Y0133360D02*
X0288060Y0133360D01*
X0293246Y0133360D02*
X0300731Y0133360D01*
X0300731Y0132162D02*
X0294129Y0132162D01*
X0294331Y0130963D02*
X0300731Y0130963D01*
X0300731Y0129765D02*
X0294003Y0129765D01*
X0293631Y0128566D02*
X0300731Y0128566D01*
X0300731Y0127368D02*
X0293631Y0127368D01*
X0293631Y0126169D02*
X0300731Y0126169D01*
X0300731Y0124971D02*
X0293631Y0124971D01*
X0293631Y0123772D02*
X0300731Y0123772D01*
X0300731Y0122574D02*
X0293631Y0122574D01*
X0292556Y0121375D02*
X0300731Y0121375D01*
X0300731Y0120177D02*
X0291357Y0120177D01*
X0290159Y0118978D02*
X0300731Y0118978D01*
X0300731Y0117779D02*
X0288960Y0117779D01*
X0288256Y0116581D02*
X0300731Y0116581D01*
X0305967Y0104596D02*
X0307731Y0104596D01*
X0316481Y0099802D02*
X0320231Y0099802D01*
X0320231Y0101000D02*
X0316931Y0101000D01*
X0316931Y0102199D02*
X0320231Y0102199D01*
X0320231Y0103397D02*
X0316931Y0103397D01*
X0316931Y0104596D02*
X0320231Y0104596D01*
X0309516Y0097405D02*
X0307731Y0097405D01*
X0307420Y0096206D02*
X0308317Y0096206D01*
X0316867Y0067442D02*
X0320231Y0067442D01*
X0320231Y0066244D02*
X0316931Y0066244D01*
X0316931Y0065045D02*
X0320231Y0065045D01*
X0320231Y0063846D02*
X0316931Y0063846D01*
X0316931Y0062648D02*
X0320231Y0062648D01*
X0320231Y0061449D02*
X0316931Y0061449D01*
X0316931Y0060251D02*
X0320231Y0060251D01*
X0315131Y0038715D02*
X0318331Y0035515D01*
X0318331Y0032515D01*
X0314331Y0028515D01*
X0308731Y0028515D01*
X0304131Y0023915D01*
X0283531Y0023915D01*
X0279342Y0021899D02*
X0307731Y0021899D01*
X0307731Y0023097D02*
X0278143Y0023097D01*
X0276945Y0024296D02*
X0307731Y0024296D01*
X0307731Y0025494D02*
X0276531Y0025494D01*
X0276531Y0026693D02*
X0307731Y0026693D01*
X0307731Y0027378D02*
X0307731Y0020052D01*
X0308669Y0019115D01*
X0315994Y0019115D01*
X0316931Y0020052D01*
X0316931Y0027378D01*
X0315994Y0028315D01*
X0308669Y0028315D01*
X0307731Y0027378D01*
X0308245Y0027891D02*
X0276531Y0027891D01*
X0280087Y0020700D02*
X0307731Y0020700D01*
X0308282Y0019502D02*
X0280271Y0019502D01*
X0280531Y0018303D02*
X0318560Y0018303D01*
X0319758Y0019502D02*
X0316381Y0019502D01*
X0316931Y0020700D02*
X0320231Y0020700D01*
X0320231Y0021899D02*
X0316931Y0021899D01*
X0316931Y0023097D02*
X0320231Y0023097D01*
X0320231Y0024296D02*
X0316931Y0024296D01*
X0316931Y0025494D02*
X0320231Y0025494D01*
X0320231Y0026693D02*
X0316931Y0026693D01*
X0316418Y0027891D02*
X0320231Y0027891D01*
X0240857Y0101000D02*
X0237401Y0101000D01*
X0238666Y0099802D02*
X0239707Y0099802D01*
X0176875Y0120177D02*
X0130176Y0120177D01*
X0128978Y0118978D02*
X0174887Y0118978D01*
X0176925Y0158529D02*
X0119625Y0158529D01*
X0109787Y0157330D02*
X0108476Y0157330D01*
X0106731Y0155115D02*
X0097131Y0145515D01*
X0095931Y0145515D01*
X0094811Y0142948D02*
X0090827Y0142948D01*
X0093148Y0144147D02*
X0093468Y0144147D01*
X0096331Y0148941D02*
X0097446Y0148941D01*
X0096331Y0150139D02*
X0098645Y0150139D01*
X0099843Y0151338D02*
X0096331Y0151338D01*
X0096331Y0152536D02*
X0101042Y0152536D01*
X0102240Y0153735D02*
X0096331Y0153735D01*
X0096331Y0154933D02*
X0103439Y0154933D01*
X0104122Y0156132D02*
X0096331Y0156132D01*
X0096331Y0157330D02*
X0104987Y0157330D01*
X0098020Y0164521D02*
X0096331Y0164521D01*
X0096331Y0165720D02*
X0096821Y0165720D01*
X0087131Y0167515D02*
X0086931Y0167715D01*
X0086931Y0156715D01*
X0087131Y0156515D01*
X0082531Y0156132D02*
X0066707Y0156132D01*
X0066721Y0154933D02*
X0082531Y0154933D01*
X0082534Y0153735D02*
X0071271Y0153735D01*
X0071731Y0152536D02*
X0082531Y0152536D01*
X0082531Y0150139D02*
X0070916Y0150139D01*
X0071640Y0151338D02*
X0086731Y0151338D01*
X0082531Y0148941D02*
X0051327Y0148941D01*
X0052526Y0150139D02*
X0054347Y0150139D01*
X0050129Y0147742D02*
X0082531Y0147742D01*
X0082531Y0157330D02*
X0066076Y0157330D01*
X0063931Y0155515D02*
X0063731Y0155715D01*
X0053777Y0157330D02*
X0008731Y0157330D01*
X0008731Y0156132D02*
X0052579Y0156132D01*
X0051380Y0154933D02*
X0008731Y0154933D01*
X0008731Y0153735D02*
X0033840Y0153735D01*
X0032642Y0152536D02*
X0008731Y0152536D01*
X0008731Y0151338D02*
X0031443Y0151338D01*
X0030245Y0150139D02*
X0008731Y0150139D01*
X0008731Y0148941D02*
X0029046Y0148941D01*
X0027848Y0147742D02*
X0008731Y0147742D01*
X0008731Y0146544D02*
X0026649Y0146544D01*
X0025451Y0145345D02*
X0008731Y0145345D01*
X0008731Y0144147D02*
X0023403Y0144147D01*
X0035131Y0151915D02*
X0045931Y0151915D01*
X0048071Y0153735D02*
X0050182Y0153735D01*
X0048983Y0152536D02*
X0048705Y0152536D01*
X0021679Y0174110D02*
X0082584Y0174110D01*
X0082531Y0175308D02*
X0021731Y0175308D01*
X0021731Y0177705D02*
X0033752Y0177705D01*
X0033531Y0178904D02*
X0021684Y0178904D01*
X0020390Y0180102D02*
X0033531Y0180102D01*
X0033531Y0182499D02*
X0008731Y0182499D01*
X0008731Y0181301D02*
X0036731Y0181301D01*
X0037532Y0181301D02*
X0041731Y0181301D01*
X0041731Y0180102D02*
X0042531Y0180102D01*
X0042531Y0178904D02*
X0041731Y0178904D01*
X0041731Y0177705D02*
X0042531Y0177705D01*
X0037531Y0177705D02*
X0036731Y0177705D01*
X0036731Y0178904D02*
X0037531Y0178904D01*
X0037531Y0180102D02*
X0036731Y0180102D01*
X0033531Y0183698D02*
X0008731Y0183698D01*
X0008731Y0184896D02*
X0033577Y0184896D01*
X0034130Y0186095D02*
X0008731Y0186095D01*
X0008731Y0187293D02*
X0034125Y0187293D01*
X0030231Y0188492D02*
X0029032Y0188492D01*
X0029032Y0189690D02*
X0030231Y0189690D01*
X0030231Y0190889D02*
X0029032Y0190889D01*
X0029032Y0192087D02*
X0030231Y0192087D01*
X0030231Y0193286D02*
X0029032Y0193286D01*
X0029032Y0194484D02*
X0030231Y0194484D01*
X0030231Y0195683D02*
X0029032Y0195683D01*
X0029032Y0196881D02*
X0030231Y0196881D01*
X0030231Y0198080D02*
X0029032Y0198080D01*
X0029031Y0199278D02*
X0008731Y0199278D01*
X0008731Y0198080D02*
X0023281Y0198080D01*
X0023281Y0196881D02*
X0008731Y0196881D01*
X0008731Y0195683D02*
X0023281Y0195683D01*
X0023281Y0194484D02*
X0008731Y0194484D01*
X0008731Y0193286D02*
X0023281Y0193286D01*
X0023281Y0192087D02*
X0008731Y0192087D01*
X0008731Y0190889D02*
X0023281Y0190889D01*
X0023281Y0189690D02*
X0008731Y0189690D01*
X0008731Y0188492D02*
X0023567Y0188492D01*
X0017531Y0180102D02*
X0016731Y0180102D01*
X0016731Y0178904D02*
X0017531Y0178904D01*
X0017531Y0177705D02*
X0016731Y0177705D01*
X0013873Y0180102D02*
X0008731Y0180102D01*
X0008731Y0178904D02*
X0012579Y0178904D01*
X0008731Y0169315D02*
X0084572Y0169315D01*
X0084131Y0168117D02*
X0008731Y0168117D01*
X0008731Y0166918D02*
X0084231Y0166918D01*
X0084731Y0165720D02*
X0008731Y0165720D01*
X0008731Y0164521D02*
X0084731Y0164521D01*
X0084731Y0163323D02*
X0008731Y0163323D01*
X0008731Y0162124D02*
X0084731Y0162124D01*
X0084731Y0160926D02*
X0008731Y0160926D01*
X0008731Y0159727D02*
X0083081Y0159727D01*
X0082531Y0158529D02*
X0008731Y0158529D01*
X0051731Y0177705D02*
X0052531Y0177705D01*
X0052531Y0178904D02*
X0051731Y0178904D01*
X0051731Y0180102D02*
X0052531Y0180102D01*
X0061731Y0180102D02*
X0062531Y0180102D01*
X0062531Y0178904D02*
X0061731Y0178904D01*
X0061731Y0177705D02*
X0062531Y0177705D01*
X0062532Y0181301D02*
X0066731Y0181301D01*
X0067532Y0181301D02*
X0092589Y0181301D01*
X0092531Y0182499D02*
X0070731Y0182499D01*
X0070731Y0183698D02*
X0092531Y0183698D01*
X0092531Y0184896D02*
X0070686Y0184896D01*
X0069418Y0186095D02*
X0093458Y0186095D01*
X0096731Y0186095D02*
X0097531Y0186095D01*
X0097531Y0187293D02*
X0096731Y0187293D01*
X0096731Y0184896D02*
X0097531Y0184896D01*
X0097531Y0183698D02*
X0096731Y0183698D01*
X0096731Y0182499D02*
X0097531Y0182499D01*
X0097531Y0181301D02*
X0096731Y0181301D01*
X0096731Y0180102D02*
X0097531Y0180102D01*
X0097531Y0178904D02*
X0096731Y0178904D01*
X0094986Y0178904D02*
X0091684Y0178904D01*
X0091731Y0177705D02*
X0209588Y0177705D01*
X0213113Y0180102D02*
X0213787Y0180102D01*
X0212589Y0181301D02*
X0211953Y0181301D01*
X0211731Y0182499D02*
X0212531Y0182499D01*
X0212531Y0183698D02*
X0211731Y0183698D01*
X0211731Y0184896D02*
X0212531Y0184896D01*
X0213458Y0186095D02*
X0210805Y0186095D01*
X0210131Y0187293D02*
X0209607Y0187293D01*
X0208933Y0188492D02*
X0070696Y0188492D01*
X0067531Y0186095D02*
X0066731Y0186095D01*
X0066731Y0184896D02*
X0067531Y0184896D01*
X0067531Y0183698D02*
X0066731Y0183698D01*
X0066731Y0182499D02*
X0067531Y0182499D01*
X0067531Y0180102D02*
X0066731Y0180102D01*
X0066731Y0178904D02*
X0067531Y0178904D01*
X0067531Y0177705D02*
X0066731Y0177705D01*
X0070511Y0177705D02*
X0082531Y0177705D01*
X0082531Y0176915D02*
X0086731Y0176915D01*
X0086731Y0180115D01*
X0083921Y0180115D01*
X0083514Y0180006D01*
X0083149Y0179795D01*
X0082851Y0179497D01*
X0082641Y0179133D01*
X0082531Y0178726D01*
X0082531Y0176915D01*
X0082579Y0178904D02*
X0070731Y0178904D01*
X0070731Y0180102D02*
X0083873Y0180102D01*
X0086731Y0180102D02*
X0087531Y0180102D01*
X0087531Y0178904D02*
X0086731Y0178904D01*
X0086731Y0177705D02*
X0087531Y0177705D01*
X0087531Y0175308D02*
X0086731Y0175308D01*
X0086731Y0174110D02*
X0087531Y0174110D01*
X0090390Y0180102D02*
X0093787Y0180102D01*
X0099277Y0178904D02*
X0104986Y0178904D01*
X0105226Y0178663D02*
X0109037Y0178663D01*
X0111731Y0181358D01*
X0111731Y0185168D01*
X0109037Y0187863D01*
X0105226Y0187863D01*
X0102531Y0185168D01*
X0102531Y0181358D01*
X0105226Y0178663D01*
X0103787Y0180102D02*
X0100476Y0180102D01*
X0101674Y0181301D02*
X0102589Y0181301D01*
X0102531Y0182499D02*
X0101731Y0182499D01*
X0101731Y0183698D02*
X0102531Y0183698D01*
X0102531Y0184896D02*
X0101731Y0184896D01*
X0100805Y0186095D02*
X0103458Y0186095D01*
X0104656Y0187293D02*
X0099607Y0187293D01*
X0100064Y0189690D02*
X0104199Y0189690D01*
X0105226Y0188663D02*
X0109037Y0188663D01*
X0111731Y0191358D01*
X0111731Y0195168D01*
X0109037Y0197863D01*
X0105226Y0197863D01*
X0102531Y0195168D01*
X0102531Y0191358D01*
X0105226Y0188663D01*
X0103000Y0190889D02*
X0101263Y0190889D01*
X0101731Y0192087D02*
X0102531Y0192087D01*
X0102531Y0193286D02*
X0101731Y0193286D01*
X0101731Y0194484D02*
X0102531Y0194484D01*
X0103046Y0195683D02*
X0101217Y0195683D01*
X0100019Y0196881D02*
X0104244Y0196881D01*
X0110019Y0196881D02*
X0114244Y0196881D01*
X0115226Y0197863D02*
X0112531Y0195168D01*
X0112531Y0191358D01*
X0115226Y0188663D01*
X0119037Y0188663D01*
X0121731Y0191358D01*
X0121731Y0195168D01*
X0119037Y0197863D01*
X0115226Y0197863D01*
X0113046Y0195683D02*
X0111217Y0195683D01*
X0111731Y0194484D02*
X0112531Y0194484D01*
X0112531Y0193286D02*
X0111731Y0193286D01*
X0111731Y0192087D02*
X0112531Y0192087D01*
X0113000Y0190889D02*
X0111263Y0190889D01*
X0110064Y0189690D02*
X0114199Y0189690D01*
X0115226Y0187863D02*
X0112531Y0185168D01*
X0112531Y0181358D01*
X0115226Y0178663D01*
X0119037Y0178663D01*
X0121731Y0181358D01*
X0121731Y0185168D01*
X0119037Y0187863D01*
X0115226Y0187863D01*
X0114656Y0187293D02*
X0109607Y0187293D01*
X0110805Y0186095D02*
X0113458Y0186095D01*
X0112531Y0184896D02*
X0111731Y0184896D01*
X0111731Y0183698D02*
X0112531Y0183698D01*
X0112531Y0182499D02*
X0111731Y0182499D01*
X0111674Y0181301D02*
X0112589Y0181301D01*
X0113787Y0180102D02*
X0110476Y0180102D01*
X0109277Y0178904D02*
X0114986Y0178904D01*
X0119277Y0178904D02*
X0124986Y0178904D01*
X0125226Y0178663D02*
X0129037Y0178663D01*
X0131731Y0181358D01*
X0131731Y0185168D01*
X0129037Y0187863D01*
X0125226Y0187863D01*
X0122531Y0185168D01*
X0122531Y0181358D01*
X0125226Y0178663D01*
X0123787Y0180102D02*
X0120476Y0180102D01*
X0121674Y0181301D02*
X0122589Y0181301D01*
X0122531Y0182499D02*
X0121731Y0182499D01*
X0121731Y0183698D02*
X0122531Y0183698D01*
X0122531Y0184896D02*
X0121731Y0184896D01*
X0120805Y0186095D02*
X0123458Y0186095D01*
X0124656Y0187293D02*
X0119607Y0187293D01*
X0120064Y0189690D02*
X0124199Y0189690D01*
X0125226Y0188663D02*
X0129037Y0188663D01*
X0131731Y0191358D01*
X0131731Y0195168D01*
X0129037Y0197863D01*
X0125226Y0197863D01*
X0122531Y0195168D01*
X0122531Y0191358D01*
X0125226Y0188663D01*
X0123000Y0190889D02*
X0121263Y0190889D01*
X0121731Y0192087D02*
X0122531Y0192087D01*
X0122531Y0193286D02*
X0121731Y0193286D01*
X0121731Y0194484D02*
X0122531Y0194484D01*
X0123046Y0195683D02*
X0121217Y0195683D01*
X0120019Y0196881D02*
X0124244Y0196881D01*
X0130019Y0196881D02*
X0134244Y0196881D01*
X0135226Y0197863D02*
X0132531Y0195168D01*
X0132531Y0191358D01*
X0135226Y0188663D01*
X0139037Y0188663D01*
X0141731Y0191358D01*
X0141731Y0195168D01*
X0139037Y0197863D01*
X0135226Y0197863D01*
X0133046Y0195683D02*
X0131217Y0195683D01*
X0131731Y0194484D02*
X0132531Y0194484D01*
X0132531Y0193286D02*
X0131731Y0193286D01*
X0131731Y0192087D02*
X0132531Y0192087D01*
X0133000Y0190889D02*
X0131263Y0190889D01*
X0130064Y0189690D02*
X0134199Y0189690D01*
X0135226Y0187863D02*
X0132531Y0185168D01*
X0132531Y0181358D01*
X0135226Y0178663D01*
X0139037Y0178663D01*
X0141731Y0181358D01*
X0141731Y0185168D01*
X0139037Y0187863D01*
X0135226Y0187863D01*
X0134656Y0187293D02*
X0129607Y0187293D01*
X0130805Y0186095D02*
X0133458Y0186095D01*
X0132531Y0184896D02*
X0131731Y0184896D01*
X0131731Y0183698D02*
X0132531Y0183698D01*
X0132531Y0182499D02*
X0131731Y0182499D01*
X0131674Y0181301D02*
X0132589Y0181301D01*
X0133787Y0180102D02*
X0130476Y0180102D01*
X0129277Y0178904D02*
X0134986Y0178904D01*
X0139277Y0178904D02*
X0144986Y0178904D01*
X0145226Y0178663D02*
X0142531Y0181358D01*
X0142531Y0185168D01*
X0145226Y0187863D01*
X0149037Y0187863D01*
X0151731Y0185168D01*
X0151731Y0181358D01*
X0149037Y0178663D01*
X0145226Y0178663D01*
X0143787Y0180102D02*
X0140476Y0180102D01*
X0141674Y0181301D02*
X0142589Y0181301D01*
X0142531Y0182499D02*
X0141731Y0182499D01*
X0141731Y0183698D02*
X0142531Y0183698D01*
X0142531Y0184896D02*
X0141731Y0184896D01*
X0140805Y0186095D02*
X0143458Y0186095D01*
X0144656Y0187293D02*
X0139607Y0187293D01*
X0140064Y0189690D02*
X0144199Y0189690D01*
X0145226Y0188663D02*
X0142531Y0191358D01*
X0142531Y0195168D01*
X0145226Y0197863D01*
X0149037Y0197863D01*
X0151731Y0195168D01*
X0151731Y0191358D01*
X0149037Y0188663D01*
X0145226Y0188663D01*
X0143000Y0190889D02*
X0141263Y0190889D01*
X0141731Y0192087D02*
X0142531Y0192087D01*
X0142531Y0193286D02*
X0141731Y0193286D01*
X0141731Y0194484D02*
X0142531Y0194484D01*
X0143046Y0195683D02*
X0141217Y0195683D01*
X0140019Y0196881D02*
X0144244Y0196881D01*
X0150019Y0196881D02*
X0154244Y0196881D01*
X0155226Y0197863D02*
X0152531Y0195168D01*
X0152531Y0191358D01*
X0155226Y0188663D01*
X0159037Y0188663D01*
X0161731Y0191358D01*
X0161731Y0195168D01*
X0159037Y0197863D01*
X0155226Y0197863D01*
X0153046Y0195683D02*
X0151217Y0195683D01*
X0151731Y0194484D02*
X0152531Y0194484D01*
X0152531Y0193286D02*
X0151731Y0193286D01*
X0151731Y0192087D02*
X0152531Y0192087D01*
X0153000Y0190889D02*
X0151263Y0190889D01*
X0150064Y0189690D02*
X0154199Y0189690D01*
X0155226Y0187863D02*
X0152531Y0185168D01*
X0152531Y0181358D01*
X0155226Y0178663D01*
X0159037Y0178663D01*
X0161731Y0181358D01*
X0161731Y0185168D01*
X0159037Y0187863D01*
X0155226Y0187863D01*
X0154656Y0187293D02*
X0149607Y0187293D01*
X0150805Y0186095D02*
X0153458Y0186095D01*
X0152531Y0184896D02*
X0151731Y0184896D01*
X0151731Y0183698D02*
X0152531Y0183698D01*
X0152531Y0182499D02*
X0151731Y0182499D01*
X0151674Y0181301D02*
X0152589Y0181301D01*
X0153787Y0180102D02*
X0150476Y0180102D01*
X0149277Y0178904D02*
X0154986Y0178904D01*
X0159277Y0178904D02*
X0164986Y0178904D01*
X0165226Y0178663D02*
X0169037Y0178663D01*
X0171731Y0181358D01*
X0171731Y0185168D01*
X0169037Y0187863D01*
X0165226Y0187863D01*
X0162531Y0185168D01*
X0162531Y0181358D01*
X0165226Y0178663D01*
X0163787Y0180102D02*
X0160476Y0180102D01*
X0161674Y0181301D02*
X0162589Y0181301D01*
X0162531Y0182499D02*
X0161731Y0182499D01*
X0161731Y0183698D02*
X0162531Y0183698D01*
X0162531Y0184896D02*
X0161731Y0184896D01*
X0160805Y0186095D02*
X0163458Y0186095D01*
X0164656Y0187293D02*
X0159607Y0187293D01*
X0160064Y0189690D02*
X0164199Y0189690D01*
X0165226Y0188663D02*
X0162531Y0191358D01*
X0162531Y0195168D01*
X0165226Y0197863D01*
X0169037Y0197863D01*
X0171731Y0195168D01*
X0171731Y0191358D01*
X0169037Y0188663D01*
X0165226Y0188663D01*
X0163000Y0190889D02*
X0161263Y0190889D01*
X0161731Y0192087D02*
X0162531Y0192087D01*
X0162531Y0193286D02*
X0161731Y0193286D01*
X0161731Y0194484D02*
X0162531Y0194484D01*
X0163046Y0195683D02*
X0161217Y0195683D01*
X0160019Y0196881D02*
X0164244Y0196881D01*
X0170019Y0196881D02*
X0174244Y0196881D01*
X0175226Y0197863D02*
X0172531Y0195168D01*
X0172531Y0191358D01*
X0175226Y0188663D01*
X0179037Y0188663D01*
X0181731Y0191358D01*
X0181731Y0195168D01*
X0179037Y0197863D01*
X0175226Y0197863D01*
X0173046Y0195683D02*
X0171217Y0195683D01*
X0171731Y0194484D02*
X0172531Y0194484D01*
X0172531Y0193286D02*
X0171731Y0193286D01*
X0171731Y0192087D02*
X0172531Y0192087D01*
X0173000Y0190889D02*
X0171263Y0190889D01*
X0170064Y0189690D02*
X0174199Y0189690D01*
X0175226Y0187863D02*
X0172531Y0185168D01*
X0172531Y0181358D01*
X0175226Y0178663D01*
X0179037Y0178663D01*
X0181731Y0181358D01*
X0181731Y0185168D01*
X0179037Y0187863D01*
X0175226Y0187863D01*
X0174656Y0187293D02*
X0169607Y0187293D01*
X0170805Y0186095D02*
X0173458Y0186095D01*
X0172531Y0184896D02*
X0171731Y0184896D01*
X0171731Y0183698D02*
X0172531Y0183698D01*
X0172531Y0182499D02*
X0171731Y0182499D01*
X0171674Y0181301D02*
X0172589Y0181301D01*
X0173787Y0180102D02*
X0170476Y0180102D01*
X0169277Y0178904D02*
X0174986Y0178904D01*
X0179277Y0178904D02*
X0184986Y0178904D01*
X0185226Y0178663D02*
X0189037Y0178663D01*
X0191731Y0181358D01*
X0191731Y0185168D01*
X0189037Y0187863D01*
X0185226Y0187863D01*
X0182531Y0185168D01*
X0182531Y0181358D01*
X0185226Y0178663D01*
X0183787Y0180102D02*
X0180476Y0180102D01*
X0181674Y0181301D02*
X0182589Y0181301D01*
X0182531Y0182499D02*
X0181731Y0182499D01*
X0181731Y0183698D02*
X0182531Y0183698D01*
X0182531Y0184896D02*
X0181731Y0184896D01*
X0180805Y0186095D02*
X0183458Y0186095D01*
X0184656Y0187293D02*
X0179607Y0187293D01*
X0180064Y0189690D02*
X0184199Y0189690D01*
X0185226Y0188663D02*
X0182531Y0191358D01*
X0182531Y0195168D01*
X0185226Y0197863D01*
X0189037Y0197863D01*
X0191731Y0195168D01*
X0191731Y0191358D01*
X0189037Y0188663D01*
X0185226Y0188663D01*
X0183000Y0190889D02*
X0181263Y0190889D01*
X0181731Y0192087D02*
X0182531Y0192087D01*
X0182531Y0193286D02*
X0181731Y0193286D01*
X0181731Y0194484D02*
X0182531Y0194484D01*
X0183046Y0195683D02*
X0181217Y0195683D01*
X0180019Y0196881D02*
X0184244Y0196881D01*
X0190019Y0196881D02*
X0194244Y0196881D01*
X0195226Y0197863D02*
X0192531Y0195168D01*
X0192531Y0191358D01*
X0195226Y0188663D01*
X0199037Y0188663D01*
X0201731Y0191358D01*
X0201731Y0195168D01*
X0199037Y0197863D01*
X0195226Y0197863D01*
X0193046Y0195683D02*
X0191217Y0195683D01*
X0191731Y0194484D02*
X0192531Y0194484D01*
X0192531Y0193286D02*
X0191731Y0193286D01*
X0191731Y0192087D02*
X0192531Y0192087D01*
X0193000Y0190889D02*
X0191263Y0190889D01*
X0190064Y0189690D02*
X0194199Y0189690D01*
X0195226Y0187863D02*
X0192531Y0185168D01*
X0192531Y0183663D01*
X0196731Y0183663D01*
X0196731Y0182863D01*
X0192531Y0182863D01*
X0192531Y0181358D01*
X0195226Y0178663D01*
X0196731Y0178663D01*
X0196731Y0182863D01*
X0197531Y0182863D01*
X0197531Y0178663D01*
X0199037Y0178663D01*
X0201731Y0181358D01*
X0201731Y0182863D01*
X0197532Y0182863D01*
X0197532Y0183663D01*
X0201731Y0183663D01*
X0201731Y0185168D01*
X0199037Y0187863D01*
X0197531Y0187863D01*
X0197531Y0183663D01*
X0196731Y0183663D01*
X0196731Y0187863D01*
X0195226Y0187863D01*
X0194656Y0187293D02*
X0189607Y0187293D01*
X0190805Y0186095D02*
X0193458Y0186095D01*
X0192531Y0184896D02*
X0191731Y0184896D01*
X0191731Y0183698D02*
X0192531Y0183698D01*
X0192531Y0182499D02*
X0191731Y0182499D01*
X0191674Y0181301D02*
X0192589Y0181301D01*
X0193787Y0180102D02*
X0190476Y0180102D01*
X0189277Y0178904D02*
X0194986Y0178904D01*
X0196731Y0178904D02*
X0197531Y0178904D01*
X0197531Y0180102D02*
X0196731Y0180102D01*
X0196731Y0181301D02*
X0197531Y0181301D01*
X0197531Y0182499D02*
X0196731Y0182499D01*
X0196731Y0183698D02*
X0197531Y0183698D01*
X0197531Y0184896D02*
X0196731Y0184896D01*
X0196731Y0186095D02*
X0197531Y0186095D01*
X0197531Y0187293D02*
X0196731Y0187293D01*
X0199607Y0187293D02*
X0204656Y0187293D01*
X0203458Y0186095D02*
X0200805Y0186095D01*
X0201731Y0184896D02*
X0202531Y0184896D01*
X0202531Y0183698D02*
X0201731Y0183698D01*
X0201731Y0182499D02*
X0202531Y0182499D01*
X0202589Y0181301D02*
X0201674Y0181301D01*
X0200476Y0180102D02*
X0203787Y0180102D01*
X0204986Y0178904D02*
X0199277Y0178904D01*
X0200064Y0189690D02*
X0204199Y0189690D01*
X0203000Y0190889D02*
X0201263Y0190889D01*
X0201731Y0192087D02*
X0202531Y0192087D01*
X0202531Y0193286D02*
X0201731Y0193286D01*
X0201731Y0194484D02*
X0202531Y0194484D01*
X0203046Y0195683D02*
X0201217Y0195683D01*
X0200019Y0196881D02*
X0204244Y0196881D01*
X0210019Y0196881D02*
X0214244Y0196881D01*
X0213046Y0195683D02*
X0211217Y0195683D01*
X0211731Y0194484D02*
X0212531Y0194484D01*
X0212531Y0193286D02*
X0211731Y0193286D01*
X0211731Y0192087D02*
X0212531Y0192087D01*
X0212476Y0190889D02*
X0213000Y0190889D01*
X0220805Y0186095D02*
X0254340Y0186095D01*
X0232531Y0171713D02*
X0231731Y0171713D01*
X0231731Y0170514D02*
X0232531Y0170514D01*
X0232531Y0169315D02*
X0231731Y0169315D01*
X0231731Y0168117D02*
X0232531Y0168117D01*
X0232531Y0166918D02*
X0231731Y0166918D01*
X0231731Y0165720D02*
X0232531Y0165720D01*
X0232531Y0164521D02*
X0231731Y0164521D01*
X0231731Y0163323D02*
X0232531Y0163323D01*
X0228213Y0175308D02*
X0215336Y0175308D01*
X0285670Y0207668D02*
X0070981Y0207668D01*
X0070981Y0206469D02*
X0324429Y0206469D01*
X0324429Y0205271D02*
X0070981Y0205271D01*
X0070981Y0204072D02*
X0324429Y0204072D01*
X0324429Y0202874D02*
X0070981Y0202874D01*
X0070981Y0201675D02*
X0324429Y0201675D01*
X0324429Y0200477D02*
X0070981Y0200477D01*
X0065232Y0199278D02*
X0301637Y0199278D01*
X0307200Y0199278D02*
X0309989Y0199278D01*
X0309927Y0199172D02*
X0309818Y0198765D01*
X0309818Y0195954D01*
X0314018Y0195954D01*
X0314018Y0195154D01*
X0314818Y0195154D01*
X0314818Y0190954D01*
X0317629Y0190954D01*
X0318036Y0191063D01*
X0318401Y0191274D01*
X0318698Y0191572D01*
X0318909Y0191937D01*
X0319018Y0192344D01*
X0319018Y0195154D01*
X0314818Y0195154D01*
X0314818Y0195954D01*
X0319018Y0195954D01*
X0319018Y0198765D01*
X0318909Y0199172D01*
X0318698Y0199537D01*
X0318401Y0199835D01*
X0318036Y0200045D01*
X0317629Y0200154D01*
X0314818Y0200154D01*
X0314818Y0195954D01*
X0314018Y0195954D01*
X0314018Y0200154D01*
X0311207Y0200154D01*
X0310801Y0200045D01*
X0310436Y0199835D01*
X0310138Y0199537D01*
X0309927Y0199172D01*
X0309818Y0198080D02*
X0308398Y0198080D01*
X0309018Y0196881D02*
X0309818Y0196881D01*
X0309018Y0195683D02*
X0314018Y0195683D01*
X0314018Y0195154D02*
X0309818Y0195154D01*
X0309818Y0192344D01*
X0309927Y0191937D01*
X0310138Y0191572D01*
X0310436Y0191274D01*
X0310801Y0191063D01*
X0311207Y0190954D01*
X0314018Y0190954D01*
X0314018Y0195154D01*
X0314018Y0194484D02*
X0314818Y0194484D01*
X0314818Y0193286D02*
X0314018Y0193286D01*
X0314018Y0192087D02*
X0314818Y0192087D01*
X0318949Y0192087D02*
X0324429Y0192087D01*
X0324429Y0190889D02*
X0305437Y0190889D01*
X0305437Y0189690D02*
X0324429Y0189690D01*
X0324429Y0188492D02*
X0316890Y0188492D01*
X0317737Y0187293D02*
X0324429Y0187293D01*
X0324429Y0186095D02*
X0319712Y0186095D01*
X0320305Y0185501D02*
X0320305Y0185501D01*
X0320910Y0184896D02*
X0324429Y0184896D01*
X0324429Y0183698D02*
X0322109Y0183698D01*
X0323307Y0182499D02*
X0324429Y0182499D01*
X0324429Y0193286D02*
X0319018Y0193286D01*
X0319018Y0194484D02*
X0324429Y0194484D01*
X0324429Y0195683D02*
X0314818Y0195683D01*
X0314818Y0196881D02*
X0314018Y0196881D01*
X0314018Y0198080D02*
X0314818Y0198080D01*
X0314818Y0199278D02*
X0314018Y0199278D01*
X0318848Y0199278D02*
X0324429Y0199278D01*
X0324429Y0198080D02*
X0319018Y0198080D01*
X0319018Y0196881D02*
X0324429Y0196881D01*
X0309818Y0194484D02*
X0309018Y0194484D01*
X0308655Y0193286D02*
X0309818Y0193286D01*
X0309887Y0192087D02*
X0307456Y0192087D01*
X0120276Y0134559D02*
X0116197Y0134559D01*
X0117395Y0135757D02*
X0119359Y0135757D01*
X0118869Y0136956D02*
X0118594Y0136956D01*
X0065287Y0128331D02*
X0065087Y0128331D01*
X0062931Y0116715D02*
X0062931Y0116115D01*
X0061731Y0114915D01*
X0061731Y0182499D02*
X0062531Y0182499D01*
X0062531Y0183698D02*
X0061731Y0183698D01*
X0061731Y0184896D02*
X0062531Y0184896D01*
X0062531Y0186095D02*
X0061731Y0186095D01*
X0064418Y0186095D02*
X0064845Y0186095D01*
X0065231Y0188492D02*
X0064032Y0188492D01*
X0064032Y0189690D02*
X0065231Y0189690D01*
X0065231Y0190889D02*
X0064032Y0190889D01*
X0064032Y0192087D02*
X0065231Y0192087D01*
X0065231Y0193286D02*
X0064032Y0193286D01*
X0064032Y0194484D02*
X0065231Y0194484D01*
X0065231Y0195683D02*
X0064032Y0195683D01*
X0064032Y0196881D02*
X0065231Y0196881D01*
X0065231Y0198080D02*
X0064032Y0198080D01*
X0023281Y0200477D02*
X0008731Y0200477D01*
X0008731Y0201675D02*
X0023281Y0201675D01*
X0023281Y0202874D02*
X0008731Y0202874D01*
X0008731Y0204072D02*
X0023281Y0204072D01*
X0023281Y0205271D02*
X0008731Y0205271D01*
X0008731Y0206469D02*
X0023281Y0206469D01*
X0023281Y0207668D02*
X0008731Y0207668D01*
D21*
X0057546Y0162452D02*
X0058746Y0163652D01*
X0057546Y0162452D02*
X0055146Y0162452D01*
X0054931Y0155515D02*
X0063931Y0155515D01*
X0063931Y0154915D01*
X0068931Y0152115D02*
X0056331Y0152115D01*
X0054931Y0155515D02*
X0048531Y0149115D01*
X0037131Y0149115D01*
X0035931Y0147915D01*
X0026331Y0138315D01*
X0041746Y0140652D02*
X0042446Y0141852D01*
X0034946Y0154352D02*
X0037446Y0156852D01*
X0064946Y0149352D02*
X0064946Y0146852D01*
X0034731Y0122115D02*
X0032331Y0122115D01*
X0021731Y0111515D01*
X0017131Y0111515D01*
X0017131Y0106515D02*
X0019731Y0106515D01*
X0020331Y0107115D01*
X0032331Y0119115D01*
X0033231Y0119115D01*
X0034131Y0119115D01*
X0038331Y0119115D01*
X0035931Y0109115D02*
X0027531Y0109115D01*
X0026031Y0109115D01*
X0098931Y0142515D02*
X0100131Y0143715D01*
X0111531Y0155115D01*
X0117531Y0156663D02*
X0117531Y0138863D01*
X0112131Y0133463D01*
X0120131Y0138663D02*
X0120131Y0153663D01*
X0120131Y0138663D02*
X0121531Y0137263D01*
X0121931Y0136863D01*
X0126331Y0112063D02*
X0126731Y0111663D01*
X0131531Y0111663D01*
X0131931Y0111263D01*
X0161131Y0111263D01*
X0156731Y0108663D02*
X0155931Y0108863D01*
X0128731Y0108863D01*
X0131931Y0105663D02*
X0132331Y0106063D01*
X0158931Y0106063D01*
X0166846Y0100400D02*
X0169309Y0101663D01*
X0169531Y0101663D01*
X0166846Y0100400D02*
X0165646Y0098230D01*
X0160131Y0092715D01*
X0159880Y0092463D01*
X0158731Y0092463D01*
X0148731Y0092463D01*
X0134331Y0092463D01*
X0130583Y0092463D01*
X0130553Y0092465D01*
X0130523Y0092470D01*
X0130494Y0092479D01*
X0130466Y0092492D01*
X0130440Y0092508D01*
X0130416Y0092526D01*
X0130394Y0092548D01*
X0130376Y0092572D01*
X0130360Y0092598D01*
X0130347Y0092626D01*
X0130338Y0092655D01*
X0130333Y0092685D01*
X0130331Y0092715D01*
X0133131Y0089115D02*
X0155931Y0089115D01*
X0160269Y0084463D02*
X0160120Y0084315D01*
X0134331Y0097663D02*
X0133931Y0097663D01*
X0133131Y0098463D01*
X0176131Y0116463D02*
X0186331Y0126663D01*
X0187131Y0131115D02*
X0187131Y0132315D01*
X0187931Y0133115D01*
X0187931Y0141115D01*
X0187131Y0141915D01*
X0178731Y0150315D01*
X0178731Y0150715D01*
X0178731Y0155115D01*
X0177931Y0155915D01*
X0186931Y0165063D02*
X0194931Y0157063D01*
X0194931Y0151263D01*
X0194900Y0151251D01*
X0194871Y0151235D01*
X0194843Y0151217D01*
X0194818Y0151196D01*
X0194795Y0151173D01*
X0194774Y0151147D01*
X0194756Y0151119D01*
X0194741Y0151089D01*
X0194730Y0151058D01*
X0194721Y0151026D01*
X0194716Y0150994D01*
X0194715Y0150961D01*
X0194717Y0150928D01*
X0194722Y0150895D01*
X0194731Y0150863D01*
X0198131Y0153863D02*
X0198131Y0157863D01*
X0198131Y0158463D01*
X0188331Y0168263D01*
X0188731Y0167863D01*
X0196331Y0172115D02*
X0206331Y0162115D01*
X0213131Y0177063D02*
X0207131Y0183263D01*
X0212131Y0188263D02*
X0224331Y0188263D01*
X0253731Y0188263D01*
X0256131Y0188263D01*
X0256731Y0188263D01*
X0256131Y0188263D02*
X0253731Y0188263D01*
X0212131Y0188263D02*
X0207131Y0193263D01*
X0165537Y0145181D02*
X0164287Y0145181D01*
X0165537Y0145181D02*
X0176837Y0131081D01*
X0183763Y0133431D02*
X0184131Y0133063D01*
X0183763Y0133431D02*
X0183763Y0134031D01*
X0192731Y0134463D02*
X0192731Y0136263D01*
X0219595Y0111562D02*
X0223200Y0111562D01*
X0224254Y0110563D02*
X0218494Y0110563D01*
X0217393Y0109565D02*
X0225308Y0109565D01*
X0226362Y0108566D02*
X0216292Y0108566D01*
X0215190Y0107568D02*
X0227416Y0107568D01*
X0228470Y0106569D02*
X0214089Y0106569D01*
X0212988Y0105571D02*
X0229524Y0105571D01*
X0230578Y0104572D02*
X0211887Y0104572D01*
X0210785Y0103574D02*
X0231632Y0103574D01*
X0232685Y0102575D02*
X0209684Y0102575D01*
X0208583Y0101577D02*
X0233739Y0101577D01*
X0234793Y0100578D02*
X0207482Y0100578D01*
X0206380Y0099579D02*
X0235847Y0099579D01*
X0236901Y0098581D02*
X0216052Y0098581D01*
X0215951Y0098681D02*
X0212623Y0098681D01*
X0212037Y0098096D01*
X0209537Y0095596D01*
X0209537Y0093088D01*
X0204287Y0097681D01*
X0221437Y0113231D01*
X0245187Y0090731D01*
X0239737Y0084481D01*
X0235694Y0085188D01*
X0231063Y0089820D01*
X0230804Y0090108D01*
X0230773Y0090110D01*
X0230751Y0090131D01*
X0230363Y0090131D01*
X0224173Y0090460D01*
X0215951Y0098681D01*
X0217050Y0097582D02*
X0237955Y0097582D01*
X0239009Y0096584D02*
X0218049Y0096584D01*
X0219047Y0095585D02*
X0240063Y0095585D01*
X0241117Y0094587D02*
X0220046Y0094587D01*
X0221044Y0093588D02*
X0242171Y0093588D01*
X0243225Y0092590D02*
X0222043Y0092590D01*
X0223041Y0091591D02*
X0244279Y0091591D01*
X0245066Y0090593D02*
X0224040Y0090593D01*
X0217731Y0082515D02*
X0214731Y0085515D01*
X0217731Y0082515D02*
X0217731Y0077715D01*
X0217731Y0074132D01*
X0223754Y0068109D01*
X0227926Y0069909D01*
X0234531Y0063015D01*
X0229331Y0054715D02*
X0229331Y0039315D01*
X0216731Y0050515D02*
X0215731Y0049315D01*
X0216731Y0050515D02*
X0224731Y0058515D01*
X0224731Y0060715D01*
X0224731Y0061115D01*
X0211131Y0069915D02*
X0205131Y0063915D01*
X0204931Y0063715D01*
X0205131Y0063915D01*
X0211131Y0069915D02*
X0211131Y0077315D01*
X0209537Y0093588D02*
X0208965Y0093588D01*
X0209537Y0094587D02*
X0207824Y0094587D01*
X0206682Y0095585D02*
X0209537Y0095585D01*
X0210525Y0096584D02*
X0205541Y0096584D01*
X0204400Y0097582D02*
X0211524Y0097582D01*
X0212522Y0098581D02*
X0205279Y0098581D01*
X0220697Y0112560D02*
X0222146Y0112560D01*
X0231288Y0089594D02*
X0244195Y0089594D01*
X0243325Y0088596D02*
X0232287Y0088596D01*
X0233285Y0087597D02*
X0242454Y0087597D01*
X0241437Y0087231D02*
X0236537Y0087231D01*
X0234137Y0089631D01*
X0234284Y0086599D02*
X0241583Y0086599D01*
X0240713Y0085600D02*
X0235282Y0085600D01*
X0239049Y0084602D02*
X0239842Y0084602D01*
X0247731Y0074715D02*
X0253731Y0074715D01*
X0269331Y0093115D02*
X0275931Y0093115D01*
X0275931Y0091515D01*
X0276731Y0101515D02*
X0269331Y0100915D01*
X0276731Y0101515D02*
X0277931Y0102715D01*
X0285531Y0117320D02*
X0291531Y0123320D01*
X0291531Y0131115D01*
X0196531Y0061515D02*
X0194731Y0063515D01*
X0193131Y0065115D01*
X0193131Y0067115D01*
X0193131Y0080715D01*
X0191531Y0082315D01*
X0189931Y0077915D02*
X0190731Y0076315D01*
X0190731Y0066315D01*
X0190731Y0065115D01*
X0192331Y0061515D01*
X0251531Y0042315D02*
X0254331Y0042315D01*
X0256931Y0044915D01*
X0066331Y0032715D02*
X0065131Y0040515D01*
D22*
X0161887Y0132031D02*
X0171887Y0123381D01*
X0181537Y0133031D01*
X0161787Y0151381D01*
X0152337Y0142331D01*
X0161887Y0132031D01*
X0162287Y0131686D02*
X0180191Y0131686D01*
X0180990Y0132484D02*
X0161467Y0132484D01*
X0160727Y0133283D02*
X0181267Y0133283D01*
X0180407Y0134081D02*
X0159987Y0134081D01*
X0159246Y0134880D02*
X0179548Y0134880D01*
X0178688Y0135678D02*
X0158506Y0135678D01*
X0157765Y0136477D02*
X0177829Y0136477D01*
X0176969Y0137275D02*
X0157025Y0137275D01*
X0156285Y0138074D02*
X0176110Y0138074D01*
X0175251Y0138872D02*
X0155544Y0138872D01*
X0154804Y0139671D02*
X0174391Y0139671D01*
X0173532Y0140469D02*
X0154064Y0140469D01*
X0153323Y0141268D02*
X0172672Y0141268D01*
X0171813Y0142066D02*
X0152583Y0142066D01*
X0152894Y0142865D02*
X0170953Y0142865D01*
X0170094Y0143663D02*
X0153728Y0143663D01*
X0154562Y0144462D02*
X0169235Y0144462D01*
X0168375Y0145260D02*
X0155395Y0145260D01*
X0156229Y0146059D02*
X0167516Y0146059D01*
X0166656Y0146857D02*
X0157063Y0146857D01*
X0157897Y0147656D02*
X0165797Y0147656D01*
X0164937Y0148454D02*
X0158731Y0148454D01*
X0159564Y0149253D02*
X0164078Y0149253D01*
X0163219Y0150051D02*
X0160398Y0150051D01*
X0161232Y0150850D02*
X0162359Y0150850D01*
X0163210Y0130887D02*
X0179393Y0130887D01*
X0178594Y0130089D02*
X0164133Y0130089D01*
X0165056Y0129290D02*
X0177796Y0129290D01*
X0176997Y0128492D02*
X0165979Y0128492D01*
X0166902Y0127693D02*
X0176199Y0127693D01*
X0175400Y0126895D02*
X0167826Y0126895D01*
X0168749Y0126096D02*
X0174602Y0126096D01*
X0173803Y0125298D02*
X0169672Y0125298D01*
X0170595Y0124499D02*
X0173005Y0124499D01*
X0172206Y0123701D02*
X0171518Y0123701D01*
X0203331Y0156163D02*
X0204131Y0160063D01*
D23*
X0220331Y0173863D02*
X0220531Y0173663D01*
X0222931Y0175663D01*
X0260531Y0194063D02*
X0261731Y0192863D01*
X0260531Y0194063D02*
X0260531Y0194663D01*
X0182331Y0137263D02*
X0179931Y0137263D01*
X0171563Y0145631D01*
X0171437Y0145631D01*
X0162837Y0153831D01*
X0160237Y0153631D01*
X0156637Y0150031D01*
X0126320Y0119715D01*
X0118131Y0119715D01*
X0163037Y0146431D02*
X0164287Y0145181D01*
X0163037Y0146431D02*
X0163037Y0147681D01*
X0176187Y0130931D02*
X0175537Y0130181D01*
X0184731Y0133063D02*
X0184731Y0133463D01*
X0184731Y0133863D02*
X0184731Y0133063D01*
X0214287Y0103931D02*
X0215487Y0105181D01*
X0214287Y0103931D02*
X0209287Y0098931D01*
X0154731Y0069915D02*
X0153531Y0069915D01*
X0117131Y0073715D02*
X0112131Y0078715D01*
X0041931Y0099515D02*
X0041531Y0099515D01*
X0041131Y0099115D01*
X0009531Y0103515D02*
X0009531Y0105315D01*
X0271731Y0088515D02*
X0271731Y0064515D01*
X0272331Y0067515D01*
X0278331Y0067515D01*
X0278331Y0071115D02*
X0280731Y0071115D01*
X0284331Y0067515D01*
X0284331Y0060915D01*
X0278331Y0053115D02*
X0278331Y0045915D01*
X0284931Y0039315D01*
X0280131Y0034315D02*
X0273731Y0040715D01*
X0274131Y0040315D01*
X0274131Y0023715D01*
X0277731Y0020115D01*
X0277731Y0018315D01*
X0277531Y0031515D02*
X0289731Y0031515D01*
X0307131Y0031515D01*
X0310131Y0031515D01*
X0312331Y0033715D01*
X0303531Y0045915D02*
X0287331Y0045915D01*
X0285531Y0045315D01*
X0286731Y0045915D02*
X0287331Y0045915D01*
X0286731Y0045915D01*
X0273731Y0040715D02*
X0271731Y0042715D01*
X0271731Y0044115D01*
X0271731Y0047115D01*
X0271731Y0044115D01*
X0279931Y0034315D02*
X0280131Y0034315D01*
X0303531Y0045915D02*
X0309531Y0050715D01*
X0312061Y0053115D01*
X0312061Y0053445D01*
X0312331Y0053715D01*
X0312331Y0073715D02*
X0311331Y0074715D01*
X0279531Y0074715D01*
X0275931Y0073515D02*
X0278331Y0071115D01*
X0275931Y0073515D02*
X0275931Y0082515D01*
X0275931Y0091515D01*
X0272331Y0089115D02*
X0271731Y0088515D01*
X0275931Y0082515D02*
X0281331Y0082515D01*
X0284331Y0082515D01*
X0285531Y0088515D02*
X0290794Y0093777D01*
X0312269Y0093777D01*
X0312331Y0093715D01*
X0304931Y0097515D02*
X0297531Y0097515D01*
X0293931Y0101115D01*
D24*
X0268131Y0051915D03*
X0270531Y0024315D03*
X0206931Y0096915D03*
X0210531Y0100515D03*
X0197931Y0113115D03*
X0194331Y0116715D03*
X0173931Y0125115D03*
X0163731Y0105315D03*
X0122931Y0096915D03*
X0120931Y0059715D03*
X0121131Y0052315D03*
X0061131Y0021915D03*
X0056331Y0093915D03*
D25*
X0052131Y0095715D01*
X0052131Y0097515D01*
X0122931Y0096915D02*
X0130731Y0101715D01*
X0134931Y0101715D01*
X0158331Y0101715D01*
X0160131Y0101715D01*
X0163731Y0105315D01*
X0173931Y0125115D02*
X0172731Y0125715D01*
X0172131Y0126315D01*
X0156343Y0141126D02*
X0155543Y0141126D01*
X0206931Y0096915D02*
X0209404Y0098715D01*
X0061131Y0021915D02*
X0061131Y0017789D01*
X0059931Y0016589D01*
X0059257Y0015915D01*
X0033531Y0015915D01*
D26*
X0031931Y0017515D01*
X0059931Y0016589D02*
X0203931Y0016589D01*
X0203931Y0027515D01*
X0203931Y0016589D01*
X0219531Y0016589D01*
X0203931Y0016589D01*
X0219531Y0016589D02*
X0257491Y0016589D01*
X0258006Y0016589D01*
X0258531Y0017115D01*
X0264531Y0017115D02*
X0264531Y0021915D01*
X0263131Y0021915D01*
X0262131Y0022915D01*
X0258531Y0022915D01*
X0253931Y0027515D01*
X0264531Y0021915D02*
X0268131Y0025515D01*
X0270531Y0024315D01*
X0268720Y0024315D01*
X0268131Y0025515D02*
X0268131Y0051915D01*
X0270531Y0017115D02*
X0269931Y0015915D01*
X0270531Y0017115D02*
X0272731Y0014915D01*
X0285531Y0014915D01*
X0313731Y0014915D01*
X0319131Y0014915D01*
X0323031Y0018815D01*
X0323031Y0021615D01*
X0323031Y0178815D01*
X0317931Y0183915D01*
X0315531Y0183915D01*
X0315448Y0183831D01*
X0313837Y0183831D01*
X0307837Y0183831D02*
X0307837Y0177420D01*
X0303531Y0173115D01*
X0303531Y0140715D01*
X0303531Y0108315D01*
X0304731Y0107115D01*
X0279531Y0103515D02*
X0278731Y0102715D01*
X0277931Y0102715D01*
X0275931Y0102715D01*
X0237531Y0112715D02*
X0234731Y0110315D01*
X0227931Y0103515D01*
X0157437Y0140031D02*
X0156343Y0141126D01*
X0155037Y0142431D01*
X0093531Y0148215D02*
X0093531Y0159915D01*
X0093531Y0169515D01*
X0067131Y0179715D02*
X0067131Y0181515D01*
X0062131Y0181515D02*
X0062131Y0180515D01*
X0061731Y0177315D01*
X0052131Y0179715D02*
X0052131Y0181515D01*
X0042131Y0181515D02*
X0042131Y0180515D01*
X0041931Y0177315D01*
X0037131Y0177315D02*
X0037131Y0181515D01*
X0087131Y0146515D02*
X0087331Y0146715D01*
X0091131Y0146715D01*
X0092031Y0146715D01*
X0093531Y0148215D01*
X0058731Y0100515D02*
X0062931Y0096315D01*
X0062931Y0089115D01*
X0062931Y0073515D01*
X0062931Y0089115D02*
X0062931Y0093315D01*
X0009531Y0103515D02*
X0009531Y0081315D01*
X0009531Y0103515D02*
X0009531Y0105315D01*
X0009531Y0120915D01*
X0009531Y0122115D01*
X0009531Y0133515D01*
X0012531Y0136515D01*
X0017131Y0136515D01*
X0120931Y0059715D02*
X0120931Y0052515D01*
X0121131Y0052315D01*
D27*
X0047131Y0181515D02*
X0047131Y0186915D01*
X0047131Y0187115D01*
X0047131Y0192515D01*
X0047131Y0199415D01*
X0044631Y0189615D02*
X0044629Y0189515D01*
X0044631Y0189416D01*
X0044637Y0189316D01*
X0044646Y0189217D01*
X0044659Y0189118D01*
X0044677Y0189020D01*
X0044697Y0188922D01*
X0044722Y0188826D01*
X0044750Y0188730D01*
X0044782Y0188636D01*
X0044818Y0188543D01*
X0044857Y0188451D01*
X0044899Y0188361D01*
X0044945Y0188272D01*
X0044994Y0188186D01*
X0045047Y0188101D01*
X0045103Y0188018D01*
X0045161Y0187938D01*
X0045223Y0187860D01*
X0045288Y0187784D01*
X0045356Y0187711D01*
X0045426Y0187640D01*
X0045500Y0187573D01*
X0045575Y0187508D01*
X0045653Y0187446D01*
X0045734Y0187387D01*
X0045816Y0187331D01*
X0045901Y0187279D01*
X0045988Y0187229D01*
X0046076Y0187183D01*
X0046166Y0187141D01*
X0046258Y0187102D01*
X0046351Y0187066D01*
X0046446Y0187034D01*
X0046541Y0187006D01*
X0046638Y0186982D01*
X0046735Y0186961D01*
X0046833Y0186944D01*
X0046932Y0186930D01*
X0047031Y0186921D01*
X0047131Y0186915D01*
X0047231Y0186919D01*
X0047331Y0186927D01*
X0047430Y0186939D01*
X0047529Y0186955D01*
X0047627Y0186974D01*
X0047725Y0186998D01*
X0047821Y0187025D01*
X0047916Y0187056D01*
X0048010Y0187090D01*
X0048103Y0187129D01*
X0048194Y0187171D01*
X0048283Y0187216D01*
X0048370Y0187265D01*
X0048456Y0187317D01*
X0048539Y0187373D01*
X0048620Y0187432D01*
X0048699Y0187494D01*
X0048775Y0187559D01*
X0048848Y0187627D01*
X0048919Y0187698D01*
X0048987Y0187771D01*
X0049052Y0187847D01*
X0049114Y0187926D01*
X0049173Y0188007D01*
X0049229Y0188090D01*
X0049281Y0188176D01*
X0049330Y0188263D01*
X0049375Y0188352D01*
X0049417Y0188443D01*
X0049456Y0188536D01*
X0049490Y0188629D01*
X0049521Y0188725D01*
X0049548Y0188821D01*
X0049572Y0188918D01*
X0049591Y0189017D01*
X0049607Y0189116D01*
X0049619Y0189215D01*
X0049627Y0189315D01*
X0049631Y0189415D01*
X0049631Y0189515D01*
X0301837Y0192973D02*
X0301837Y0183831D01*
X0301837Y0192973D02*
X0304418Y0195554D01*
D28*
X0269931Y0015915D03*
M02*
