G75*
%MOIN*%
%OFA0B0*%
%FSLAX25Y25*%
%IPPOS*%
%LPD*%
%AMOC8*
5,1,8,0,0,1.08239X$1,22.5*
%
%ADD10C,0.00000*%
%ADD11C,0.12211*%
%ADD12C,0.02781*%
%ADD13C,0.02800*%
%ADD14R,0.05000X0.06700*%
%ADD15R,0.00600X0.07200*%
%ADD16OC8,0.06400*%
%ADD17R,0.06400X0.06400*%
%ADD18R,0.06400X0.04400*%
%ADD19R,0.04400X0.06400*%
%ADD20R,0.09900X0.20400*%
%ADD21R,0.09400X0.20400*%
D10*
X0007131Y0012652D02*
X0007131Y0209502D01*
X0326029Y0209502D01*
X0326029Y0012652D01*
X0007131Y0012652D01*
X0095714Y0044148D02*
X0095716Y0044301D01*
X0095722Y0044455D01*
X0095732Y0044608D01*
X0095746Y0044760D01*
X0095764Y0044913D01*
X0095786Y0045064D01*
X0095811Y0045215D01*
X0095841Y0045366D01*
X0095875Y0045516D01*
X0095912Y0045664D01*
X0095953Y0045812D01*
X0095998Y0045958D01*
X0096047Y0046104D01*
X0096100Y0046248D01*
X0096156Y0046390D01*
X0096216Y0046531D01*
X0096280Y0046671D01*
X0096347Y0046809D01*
X0096418Y0046945D01*
X0096493Y0047079D01*
X0096570Y0047211D01*
X0096652Y0047341D01*
X0096736Y0047469D01*
X0096824Y0047595D01*
X0096915Y0047718D01*
X0097009Y0047839D01*
X0097107Y0047957D01*
X0097207Y0048073D01*
X0097311Y0048186D01*
X0097417Y0048297D01*
X0097526Y0048405D01*
X0097638Y0048510D01*
X0097752Y0048611D01*
X0097870Y0048710D01*
X0097989Y0048806D01*
X0098111Y0048899D01*
X0098236Y0048988D01*
X0098363Y0049075D01*
X0098492Y0049157D01*
X0098623Y0049237D01*
X0098756Y0049313D01*
X0098891Y0049386D01*
X0099028Y0049455D01*
X0099167Y0049520D01*
X0099307Y0049582D01*
X0099449Y0049640D01*
X0099592Y0049695D01*
X0099737Y0049746D01*
X0099883Y0049793D01*
X0100030Y0049836D01*
X0100178Y0049875D01*
X0100327Y0049911D01*
X0100477Y0049942D01*
X0100628Y0049970D01*
X0100779Y0049994D01*
X0100932Y0050014D01*
X0101084Y0050030D01*
X0101237Y0050042D01*
X0101390Y0050050D01*
X0101543Y0050054D01*
X0101697Y0050054D01*
X0101850Y0050050D01*
X0102003Y0050042D01*
X0102156Y0050030D01*
X0102308Y0050014D01*
X0102461Y0049994D01*
X0102612Y0049970D01*
X0102763Y0049942D01*
X0102913Y0049911D01*
X0103062Y0049875D01*
X0103210Y0049836D01*
X0103357Y0049793D01*
X0103503Y0049746D01*
X0103648Y0049695D01*
X0103791Y0049640D01*
X0103933Y0049582D01*
X0104073Y0049520D01*
X0104212Y0049455D01*
X0104349Y0049386D01*
X0104484Y0049313D01*
X0104617Y0049237D01*
X0104748Y0049157D01*
X0104877Y0049075D01*
X0105004Y0048988D01*
X0105129Y0048899D01*
X0105251Y0048806D01*
X0105370Y0048710D01*
X0105488Y0048611D01*
X0105602Y0048510D01*
X0105714Y0048405D01*
X0105823Y0048297D01*
X0105929Y0048186D01*
X0106033Y0048073D01*
X0106133Y0047957D01*
X0106231Y0047839D01*
X0106325Y0047718D01*
X0106416Y0047595D01*
X0106504Y0047469D01*
X0106588Y0047341D01*
X0106670Y0047211D01*
X0106747Y0047079D01*
X0106822Y0046945D01*
X0106893Y0046809D01*
X0106960Y0046671D01*
X0107024Y0046531D01*
X0107084Y0046390D01*
X0107140Y0046248D01*
X0107193Y0046104D01*
X0107242Y0045958D01*
X0107287Y0045812D01*
X0107328Y0045664D01*
X0107365Y0045516D01*
X0107399Y0045366D01*
X0107429Y0045215D01*
X0107454Y0045064D01*
X0107476Y0044913D01*
X0107494Y0044760D01*
X0107508Y0044608D01*
X0107518Y0044455D01*
X0107524Y0044301D01*
X0107526Y0044148D01*
X0107524Y0043995D01*
X0107518Y0043841D01*
X0107508Y0043688D01*
X0107494Y0043536D01*
X0107476Y0043383D01*
X0107454Y0043232D01*
X0107429Y0043081D01*
X0107399Y0042930D01*
X0107365Y0042780D01*
X0107328Y0042632D01*
X0107287Y0042484D01*
X0107242Y0042338D01*
X0107193Y0042192D01*
X0107140Y0042048D01*
X0107084Y0041906D01*
X0107024Y0041765D01*
X0106960Y0041625D01*
X0106893Y0041487D01*
X0106822Y0041351D01*
X0106747Y0041217D01*
X0106670Y0041085D01*
X0106588Y0040955D01*
X0106504Y0040827D01*
X0106416Y0040701D01*
X0106325Y0040578D01*
X0106231Y0040457D01*
X0106133Y0040339D01*
X0106033Y0040223D01*
X0105929Y0040110D01*
X0105823Y0039999D01*
X0105714Y0039891D01*
X0105602Y0039786D01*
X0105488Y0039685D01*
X0105370Y0039586D01*
X0105251Y0039490D01*
X0105129Y0039397D01*
X0105004Y0039308D01*
X0104877Y0039221D01*
X0104748Y0039139D01*
X0104617Y0039059D01*
X0104484Y0038983D01*
X0104349Y0038910D01*
X0104212Y0038841D01*
X0104073Y0038776D01*
X0103933Y0038714D01*
X0103791Y0038656D01*
X0103648Y0038601D01*
X0103503Y0038550D01*
X0103357Y0038503D01*
X0103210Y0038460D01*
X0103062Y0038421D01*
X0102913Y0038385D01*
X0102763Y0038354D01*
X0102612Y0038326D01*
X0102461Y0038302D01*
X0102308Y0038282D01*
X0102156Y0038266D01*
X0102003Y0038254D01*
X0101850Y0038246D01*
X0101697Y0038242D01*
X0101543Y0038242D01*
X0101390Y0038246D01*
X0101237Y0038254D01*
X0101084Y0038266D01*
X0100932Y0038282D01*
X0100779Y0038302D01*
X0100628Y0038326D01*
X0100477Y0038354D01*
X0100327Y0038385D01*
X0100178Y0038421D01*
X0100030Y0038460D01*
X0099883Y0038503D01*
X0099737Y0038550D01*
X0099592Y0038601D01*
X0099449Y0038656D01*
X0099307Y0038714D01*
X0099167Y0038776D01*
X0099028Y0038841D01*
X0098891Y0038910D01*
X0098756Y0038983D01*
X0098623Y0039059D01*
X0098492Y0039139D01*
X0098363Y0039221D01*
X0098236Y0039308D01*
X0098111Y0039397D01*
X0097989Y0039490D01*
X0097870Y0039586D01*
X0097752Y0039685D01*
X0097638Y0039786D01*
X0097526Y0039891D01*
X0097417Y0039999D01*
X0097311Y0040110D01*
X0097207Y0040223D01*
X0097107Y0040339D01*
X0097009Y0040457D01*
X0096915Y0040578D01*
X0096824Y0040701D01*
X0096736Y0040827D01*
X0096652Y0040955D01*
X0096570Y0041085D01*
X0096493Y0041217D01*
X0096418Y0041351D01*
X0096347Y0041487D01*
X0096280Y0041625D01*
X0096216Y0041765D01*
X0096156Y0041906D01*
X0096100Y0042048D01*
X0096047Y0042192D01*
X0095998Y0042338D01*
X0095953Y0042484D01*
X0095912Y0042632D01*
X0095875Y0042780D01*
X0095841Y0042930D01*
X0095811Y0043081D01*
X0095786Y0043232D01*
X0095764Y0043383D01*
X0095746Y0043536D01*
X0095732Y0043688D01*
X0095722Y0043841D01*
X0095716Y0043995D01*
X0095714Y0044148D01*
X0276816Y0138636D02*
X0276818Y0138789D01*
X0276824Y0138943D01*
X0276834Y0139096D01*
X0276848Y0139248D01*
X0276866Y0139401D01*
X0276888Y0139552D01*
X0276913Y0139703D01*
X0276943Y0139854D01*
X0276977Y0140004D01*
X0277014Y0140152D01*
X0277055Y0140300D01*
X0277100Y0140446D01*
X0277149Y0140592D01*
X0277202Y0140736D01*
X0277258Y0140878D01*
X0277318Y0141019D01*
X0277382Y0141159D01*
X0277449Y0141297D01*
X0277520Y0141433D01*
X0277595Y0141567D01*
X0277672Y0141699D01*
X0277754Y0141829D01*
X0277838Y0141957D01*
X0277926Y0142083D01*
X0278017Y0142206D01*
X0278111Y0142327D01*
X0278209Y0142445D01*
X0278309Y0142561D01*
X0278413Y0142674D01*
X0278519Y0142785D01*
X0278628Y0142893D01*
X0278740Y0142998D01*
X0278854Y0143099D01*
X0278972Y0143198D01*
X0279091Y0143294D01*
X0279213Y0143387D01*
X0279338Y0143476D01*
X0279465Y0143563D01*
X0279594Y0143645D01*
X0279725Y0143725D01*
X0279858Y0143801D01*
X0279993Y0143874D01*
X0280130Y0143943D01*
X0280269Y0144008D01*
X0280409Y0144070D01*
X0280551Y0144128D01*
X0280694Y0144183D01*
X0280839Y0144234D01*
X0280985Y0144281D01*
X0281132Y0144324D01*
X0281280Y0144363D01*
X0281429Y0144399D01*
X0281579Y0144430D01*
X0281730Y0144458D01*
X0281881Y0144482D01*
X0282034Y0144502D01*
X0282186Y0144518D01*
X0282339Y0144530D01*
X0282492Y0144538D01*
X0282645Y0144542D01*
X0282799Y0144542D01*
X0282952Y0144538D01*
X0283105Y0144530D01*
X0283258Y0144518D01*
X0283410Y0144502D01*
X0283563Y0144482D01*
X0283714Y0144458D01*
X0283865Y0144430D01*
X0284015Y0144399D01*
X0284164Y0144363D01*
X0284312Y0144324D01*
X0284459Y0144281D01*
X0284605Y0144234D01*
X0284750Y0144183D01*
X0284893Y0144128D01*
X0285035Y0144070D01*
X0285175Y0144008D01*
X0285314Y0143943D01*
X0285451Y0143874D01*
X0285586Y0143801D01*
X0285719Y0143725D01*
X0285850Y0143645D01*
X0285979Y0143563D01*
X0286106Y0143476D01*
X0286231Y0143387D01*
X0286353Y0143294D01*
X0286472Y0143198D01*
X0286590Y0143099D01*
X0286704Y0142998D01*
X0286816Y0142893D01*
X0286925Y0142785D01*
X0287031Y0142674D01*
X0287135Y0142561D01*
X0287235Y0142445D01*
X0287333Y0142327D01*
X0287427Y0142206D01*
X0287518Y0142083D01*
X0287606Y0141957D01*
X0287690Y0141829D01*
X0287772Y0141699D01*
X0287849Y0141567D01*
X0287924Y0141433D01*
X0287995Y0141297D01*
X0288062Y0141159D01*
X0288126Y0141019D01*
X0288186Y0140878D01*
X0288242Y0140736D01*
X0288295Y0140592D01*
X0288344Y0140446D01*
X0288389Y0140300D01*
X0288430Y0140152D01*
X0288467Y0140004D01*
X0288501Y0139854D01*
X0288531Y0139703D01*
X0288556Y0139552D01*
X0288578Y0139401D01*
X0288596Y0139248D01*
X0288610Y0139096D01*
X0288620Y0138943D01*
X0288626Y0138789D01*
X0288628Y0138636D01*
X0288626Y0138483D01*
X0288620Y0138329D01*
X0288610Y0138176D01*
X0288596Y0138024D01*
X0288578Y0137871D01*
X0288556Y0137720D01*
X0288531Y0137569D01*
X0288501Y0137418D01*
X0288467Y0137268D01*
X0288430Y0137120D01*
X0288389Y0136972D01*
X0288344Y0136826D01*
X0288295Y0136680D01*
X0288242Y0136536D01*
X0288186Y0136394D01*
X0288126Y0136253D01*
X0288062Y0136113D01*
X0287995Y0135975D01*
X0287924Y0135839D01*
X0287849Y0135705D01*
X0287772Y0135573D01*
X0287690Y0135443D01*
X0287606Y0135315D01*
X0287518Y0135189D01*
X0287427Y0135066D01*
X0287333Y0134945D01*
X0287235Y0134827D01*
X0287135Y0134711D01*
X0287031Y0134598D01*
X0286925Y0134487D01*
X0286816Y0134379D01*
X0286704Y0134274D01*
X0286590Y0134173D01*
X0286472Y0134074D01*
X0286353Y0133978D01*
X0286231Y0133885D01*
X0286106Y0133796D01*
X0285979Y0133709D01*
X0285850Y0133627D01*
X0285719Y0133547D01*
X0285586Y0133471D01*
X0285451Y0133398D01*
X0285314Y0133329D01*
X0285175Y0133264D01*
X0285035Y0133202D01*
X0284893Y0133144D01*
X0284750Y0133089D01*
X0284605Y0133038D01*
X0284459Y0132991D01*
X0284312Y0132948D01*
X0284164Y0132909D01*
X0284015Y0132873D01*
X0283865Y0132842D01*
X0283714Y0132814D01*
X0283563Y0132790D01*
X0283410Y0132770D01*
X0283258Y0132754D01*
X0283105Y0132742D01*
X0282952Y0132734D01*
X0282799Y0132730D01*
X0282645Y0132730D01*
X0282492Y0132734D01*
X0282339Y0132742D01*
X0282186Y0132754D01*
X0282034Y0132770D01*
X0281881Y0132790D01*
X0281730Y0132814D01*
X0281579Y0132842D01*
X0281429Y0132873D01*
X0281280Y0132909D01*
X0281132Y0132948D01*
X0280985Y0132991D01*
X0280839Y0133038D01*
X0280694Y0133089D01*
X0280551Y0133144D01*
X0280409Y0133202D01*
X0280269Y0133264D01*
X0280130Y0133329D01*
X0279993Y0133398D01*
X0279858Y0133471D01*
X0279725Y0133547D01*
X0279594Y0133627D01*
X0279465Y0133709D01*
X0279338Y0133796D01*
X0279213Y0133885D01*
X0279091Y0133978D01*
X0278972Y0134074D01*
X0278854Y0134173D01*
X0278740Y0134274D01*
X0278628Y0134379D01*
X0278519Y0134487D01*
X0278413Y0134598D01*
X0278309Y0134711D01*
X0278209Y0134827D01*
X0278111Y0134945D01*
X0278017Y0135066D01*
X0277926Y0135189D01*
X0277838Y0135315D01*
X0277754Y0135443D01*
X0277672Y0135573D01*
X0277595Y0135705D01*
X0277520Y0135839D01*
X0277449Y0135975D01*
X0277382Y0136113D01*
X0277318Y0136253D01*
X0277258Y0136394D01*
X0277202Y0136536D01*
X0277149Y0136680D01*
X0277100Y0136826D01*
X0277055Y0136972D01*
X0277014Y0137120D01*
X0276977Y0137268D01*
X0276943Y0137418D01*
X0276913Y0137569D01*
X0276888Y0137720D01*
X0276866Y0137871D01*
X0276848Y0138024D01*
X0276834Y0138176D01*
X0276824Y0138329D01*
X0276818Y0138483D01*
X0276816Y0138636D01*
D11*
X0282722Y0138636D03*
X0101620Y0044148D03*
D12*
X0056012Y0050556D03*
D13*
X0059012Y0048556D03*
X0056012Y0046556D03*
X0062012Y0046556D03*
X0062012Y0050556D03*
D14*
X0079698Y0026778D03*
X0085698Y0026778D03*
X0094131Y0063715D03*
X0100131Y0063715D03*
X0258531Y0017115D03*
X0264531Y0017115D03*
X0270531Y0017115D03*
X0301837Y0183831D03*
X0307837Y0183831D03*
X0313837Y0183831D03*
D15*
X0097131Y0063715D03*
X0082698Y0026778D03*
D16*
X0103931Y0027915D03*
X0113931Y0027915D03*
X0123931Y0027915D03*
X0143931Y0027515D03*
X0153931Y0027515D03*
X0163931Y0027515D03*
X0173931Y0027515D03*
X0183931Y0027515D03*
X0193931Y0027515D03*
X0203931Y0027515D03*
X0203931Y0027515D03*
X0213931Y0027515D03*
X0223931Y0027515D03*
X0203931Y0037515D03*
X0193931Y0037515D03*
X0183931Y0037515D03*
X0173931Y0037515D03*
X0163931Y0037515D03*
X0153931Y0037515D03*
X0143931Y0037515D03*
X0253931Y0027515D03*
X0312331Y0033715D03*
X0312331Y0043715D03*
X0312331Y0053715D03*
X0312331Y0073715D03*
X0312331Y0083715D03*
X0312331Y0093715D03*
X0312331Y0113915D03*
X0312331Y0123915D03*
X0312331Y0133915D03*
X0312331Y0153915D03*
X0312331Y0163915D03*
X0312331Y0173915D03*
X0304418Y0195554D03*
X0272131Y0167715D03*
X0262131Y0167715D03*
X0252131Y0167715D03*
X0242131Y0167715D03*
X0232131Y0167715D03*
X0232131Y0157715D03*
X0242131Y0157715D03*
X0252131Y0157715D03*
X0262131Y0157715D03*
X0272131Y0157715D03*
X0217131Y0183263D03*
X0207131Y0183263D03*
X0197131Y0183263D03*
X0187131Y0183263D03*
X0177131Y0183263D03*
X0167131Y0183263D03*
X0157131Y0183263D03*
X0147131Y0183263D03*
X0137131Y0183263D03*
X0127131Y0183263D03*
X0117131Y0183263D03*
X0107131Y0183263D03*
X0097131Y0183263D03*
X0097131Y0193263D03*
X0107131Y0193263D03*
X0117131Y0193263D03*
X0127131Y0193263D03*
X0137131Y0193263D03*
X0147131Y0193263D03*
X0157131Y0193263D03*
X0167131Y0193263D03*
X0177131Y0193263D03*
X0187131Y0193263D03*
X0197131Y0193263D03*
X0207131Y0193263D03*
X0217131Y0193263D03*
X0100131Y0168915D03*
X0031931Y0057515D03*
X0031931Y0047515D03*
X0021931Y0047515D03*
X0021931Y0037515D03*
X0031931Y0037515D03*
X0031931Y0027515D03*
X0021931Y0027515D03*
X0021931Y0017515D03*
X0031931Y0017515D03*
D17*
X0021931Y0057515D03*
X0133931Y0027915D03*
X0233931Y0027515D03*
X0243931Y0027515D03*
X0312331Y0023715D03*
X0312331Y0063715D03*
X0312331Y0103915D03*
X0312331Y0143915D03*
X0314418Y0195554D03*
D18*
X0087131Y0176515D03*
X0087131Y0156515D03*
X0087131Y0151515D03*
X0087131Y0146515D03*
X0087131Y0111515D03*
X0087131Y0081515D03*
X0017131Y0081515D03*
X0017131Y0106515D03*
X0017131Y0111515D03*
X0017131Y0116515D03*
X0017131Y0131515D03*
X0017131Y0136515D03*
X0017131Y0176515D03*
D19*
X0037131Y0181515D03*
X0042131Y0181515D03*
X0047131Y0181515D03*
X0052131Y0181515D03*
X0057131Y0181515D03*
X0062131Y0181515D03*
X0067131Y0181515D03*
D20*
X0064631Y0199415D03*
X0029631Y0199415D03*
D21*
X0047131Y0199415D03*
M02*
