G75*
%MOIN*%
%OFA0B0*%
%FSLAX25Y25*%
%IPPOS*%
%LPD*%
%AMOC8*
5,1,8,0,0,1.08239X$1,22.5*
%
%ADD10C,0.00000*%
%ADD11C,0.00300*%
%ADD12R,0.03400X0.00100*%
%ADD13R,0.04800X0.00100*%
%ADD14R,0.05900X0.00100*%
%ADD15R,0.06800X0.00100*%
%ADD16R,0.07600X0.00100*%
%ADD17R,0.00100X0.00100*%
%ADD18R,0.00900X0.00100*%
%ADD19R,0.03200X0.00100*%
%ADD20R,0.03000X0.00100*%
%ADD21R,0.00400X0.00100*%
%ADD22R,0.00700X0.00100*%
%ADD23R,0.00500X0.00100*%
%ADD24R,0.02700X0.00100*%
%ADD25R,0.02300X0.00100*%
%ADD26R,0.00200X0.00100*%
%ADD27R,0.00600X0.00100*%
%ADD28R,0.02400X0.00100*%
%ADD29R,0.02200X0.00100*%
%ADD30R,0.02600X0.00100*%
%ADD31R,0.00300X0.00100*%
%ADD32R,0.01900X0.00100*%
%ADD33R,0.01800X0.00100*%
%ADD34R,0.00800X0.00100*%
%ADD35R,0.02000X0.00100*%
%ADD36R,0.01500X0.00100*%
%ADD37R,0.01600X0.00100*%
%ADD38R,0.01400X0.00100*%
%ADD39R,0.01100X0.00100*%
%ADD40R,0.01700X0.00100*%
%ADD41R,0.01300X0.00100*%
%ADD42R,0.01200X0.00100*%
%ADD43R,0.03700X0.00100*%
%ADD44R,0.05500X0.00100*%
%ADD45R,0.01000X0.00100*%
%ADD46R,0.08000X0.00100*%
%ADD47R,0.02100X0.00100*%
%ADD48R,0.02900X0.00100*%
%ADD49R,0.04200X0.00100*%
%ADD50R,0.05200X0.00100*%
%ADD51R,0.06000X0.00100*%
%ADD52R,0.06700X0.00100*%
%ADD53R,0.07400X0.00100*%
%ADD54R,0.08500X0.00100*%
%ADD55R,0.09000X0.00100*%
%ADD56R,0.09500X0.00100*%
%ADD57R,0.09900X0.00100*%
%ADD58R,0.10300X0.00100*%
%ADD59R,0.10700X0.00100*%
%ADD60R,0.11100X0.00100*%
%ADD61R,0.11500X0.00100*%
%ADD62R,0.11800X0.00100*%
%ADD63R,0.12200X0.00100*%
%ADD64R,0.12500X0.00100*%
%ADD65R,0.04100X0.00100*%
%ADD66R,0.08600X0.00100*%
%ADD67R,0.04500X0.00100*%
%ADD68R,0.04400X0.00100*%
%ADD69R,0.04600X0.00100*%
%ADD70R,0.04900X0.00100*%
%ADD71R,0.05100X0.00100*%
%ADD72R,0.05000X0.00100*%
%ADD73R,0.03500X0.00100*%
%ADD74R,0.05400X0.00100*%
%ADD75R,0.05600X0.00100*%
%ADD76R,0.05800X0.00100*%
%ADD77R,0.02800X0.00100*%
%ADD78R,0.06100X0.00100*%
%ADD79R,0.03300X0.00100*%
%ADD80R,0.06300X0.00100*%
%ADD81R,0.06400X0.00100*%
%ADD82R,0.06600X0.00100*%
%ADD83R,0.06900X0.00100*%
%ADD84R,0.07100X0.00100*%
%ADD85R,0.03100X0.00100*%
%ADD86R,0.07200X0.00100*%
%ADD87R,0.02500X0.00100*%
%ADD88R,0.07700X0.00100*%
%ADD89R,0.07900X0.00100*%
%ADD90R,0.08100X0.00100*%
%ADD91R,0.08200X0.00100*%
%ADD92R,0.08300X0.00100*%
%ADD93R,0.08400X0.00100*%
%ADD94R,0.08800X0.00100*%
%ADD95R,0.09200X0.00100*%
%ADD96R,0.09300X0.00100*%
%ADD97R,0.09400X0.00100*%
%ADD98R,0.09600X0.00100*%
%ADD99R,0.11300X0.00100*%
%ADD100R,0.11400X0.00100*%
%ADD101R,0.10500X0.00100*%
%ADD102R,0.10100X0.00100*%
%ADD103R,0.10200X0.00100*%
%ADD104R,0.06500X0.00100*%
%ADD105R,0.06200X0.00100*%
%ADD106R,0.04700X0.00100*%
%ADD107R,0.03900X0.00100*%
%ADD108R,0.03600X0.00100*%
%ADD109R,0.04000X0.00100*%
%ADD110R,0.04300X0.00100*%
%ADD111R,0.05300X0.00100*%
%ADD112R,0.07000X0.00100*%
%ADD113R,0.05700X0.00100*%
%ADD114R,0.03800X0.00100*%
%ADD115C,0.00600*%
%ADD116C,0.00500*%
%ADD117R,0.00984X0.00984*%
%ADD118C,0.00200*%
%ADD119C,0.00197*%
%ADD120C,0.00079*%
%ADD121C,0.01378*%
%ADD122R,0.02000X0.02000*%
%ADD123C,0.00400*%
D10*
X0007131Y0012652D02*
X0007131Y0209502D01*
X0326029Y0209502D01*
X0326029Y0012652D01*
X0007131Y0012652D01*
X0095714Y0044148D02*
X0095716Y0044301D01*
X0095722Y0044455D01*
X0095732Y0044608D01*
X0095746Y0044760D01*
X0095764Y0044913D01*
X0095786Y0045064D01*
X0095811Y0045215D01*
X0095841Y0045366D01*
X0095875Y0045516D01*
X0095912Y0045664D01*
X0095953Y0045812D01*
X0095998Y0045958D01*
X0096047Y0046104D01*
X0096100Y0046248D01*
X0096156Y0046390D01*
X0096216Y0046531D01*
X0096280Y0046671D01*
X0096347Y0046809D01*
X0096418Y0046945D01*
X0096493Y0047079D01*
X0096570Y0047211D01*
X0096652Y0047341D01*
X0096736Y0047469D01*
X0096824Y0047595D01*
X0096915Y0047718D01*
X0097009Y0047839D01*
X0097107Y0047957D01*
X0097207Y0048073D01*
X0097311Y0048186D01*
X0097417Y0048297D01*
X0097526Y0048405D01*
X0097638Y0048510D01*
X0097752Y0048611D01*
X0097870Y0048710D01*
X0097989Y0048806D01*
X0098111Y0048899D01*
X0098236Y0048988D01*
X0098363Y0049075D01*
X0098492Y0049157D01*
X0098623Y0049237D01*
X0098756Y0049313D01*
X0098891Y0049386D01*
X0099028Y0049455D01*
X0099167Y0049520D01*
X0099307Y0049582D01*
X0099449Y0049640D01*
X0099592Y0049695D01*
X0099737Y0049746D01*
X0099883Y0049793D01*
X0100030Y0049836D01*
X0100178Y0049875D01*
X0100327Y0049911D01*
X0100477Y0049942D01*
X0100628Y0049970D01*
X0100779Y0049994D01*
X0100932Y0050014D01*
X0101084Y0050030D01*
X0101237Y0050042D01*
X0101390Y0050050D01*
X0101543Y0050054D01*
X0101697Y0050054D01*
X0101850Y0050050D01*
X0102003Y0050042D01*
X0102156Y0050030D01*
X0102308Y0050014D01*
X0102461Y0049994D01*
X0102612Y0049970D01*
X0102763Y0049942D01*
X0102913Y0049911D01*
X0103062Y0049875D01*
X0103210Y0049836D01*
X0103357Y0049793D01*
X0103503Y0049746D01*
X0103648Y0049695D01*
X0103791Y0049640D01*
X0103933Y0049582D01*
X0104073Y0049520D01*
X0104212Y0049455D01*
X0104349Y0049386D01*
X0104484Y0049313D01*
X0104617Y0049237D01*
X0104748Y0049157D01*
X0104877Y0049075D01*
X0105004Y0048988D01*
X0105129Y0048899D01*
X0105251Y0048806D01*
X0105370Y0048710D01*
X0105488Y0048611D01*
X0105602Y0048510D01*
X0105714Y0048405D01*
X0105823Y0048297D01*
X0105929Y0048186D01*
X0106033Y0048073D01*
X0106133Y0047957D01*
X0106231Y0047839D01*
X0106325Y0047718D01*
X0106416Y0047595D01*
X0106504Y0047469D01*
X0106588Y0047341D01*
X0106670Y0047211D01*
X0106747Y0047079D01*
X0106822Y0046945D01*
X0106893Y0046809D01*
X0106960Y0046671D01*
X0107024Y0046531D01*
X0107084Y0046390D01*
X0107140Y0046248D01*
X0107193Y0046104D01*
X0107242Y0045958D01*
X0107287Y0045812D01*
X0107328Y0045664D01*
X0107365Y0045516D01*
X0107399Y0045366D01*
X0107429Y0045215D01*
X0107454Y0045064D01*
X0107476Y0044913D01*
X0107494Y0044760D01*
X0107508Y0044608D01*
X0107518Y0044455D01*
X0107524Y0044301D01*
X0107526Y0044148D01*
X0107524Y0043995D01*
X0107518Y0043841D01*
X0107508Y0043688D01*
X0107494Y0043536D01*
X0107476Y0043383D01*
X0107454Y0043232D01*
X0107429Y0043081D01*
X0107399Y0042930D01*
X0107365Y0042780D01*
X0107328Y0042632D01*
X0107287Y0042484D01*
X0107242Y0042338D01*
X0107193Y0042192D01*
X0107140Y0042048D01*
X0107084Y0041906D01*
X0107024Y0041765D01*
X0106960Y0041625D01*
X0106893Y0041487D01*
X0106822Y0041351D01*
X0106747Y0041217D01*
X0106670Y0041085D01*
X0106588Y0040955D01*
X0106504Y0040827D01*
X0106416Y0040701D01*
X0106325Y0040578D01*
X0106231Y0040457D01*
X0106133Y0040339D01*
X0106033Y0040223D01*
X0105929Y0040110D01*
X0105823Y0039999D01*
X0105714Y0039891D01*
X0105602Y0039786D01*
X0105488Y0039685D01*
X0105370Y0039586D01*
X0105251Y0039490D01*
X0105129Y0039397D01*
X0105004Y0039308D01*
X0104877Y0039221D01*
X0104748Y0039139D01*
X0104617Y0039059D01*
X0104484Y0038983D01*
X0104349Y0038910D01*
X0104212Y0038841D01*
X0104073Y0038776D01*
X0103933Y0038714D01*
X0103791Y0038656D01*
X0103648Y0038601D01*
X0103503Y0038550D01*
X0103357Y0038503D01*
X0103210Y0038460D01*
X0103062Y0038421D01*
X0102913Y0038385D01*
X0102763Y0038354D01*
X0102612Y0038326D01*
X0102461Y0038302D01*
X0102308Y0038282D01*
X0102156Y0038266D01*
X0102003Y0038254D01*
X0101850Y0038246D01*
X0101697Y0038242D01*
X0101543Y0038242D01*
X0101390Y0038246D01*
X0101237Y0038254D01*
X0101084Y0038266D01*
X0100932Y0038282D01*
X0100779Y0038302D01*
X0100628Y0038326D01*
X0100477Y0038354D01*
X0100327Y0038385D01*
X0100178Y0038421D01*
X0100030Y0038460D01*
X0099883Y0038503D01*
X0099737Y0038550D01*
X0099592Y0038601D01*
X0099449Y0038656D01*
X0099307Y0038714D01*
X0099167Y0038776D01*
X0099028Y0038841D01*
X0098891Y0038910D01*
X0098756Y0038983D01*
X0098623Y0039059D01*
X0098492Y0039139D01*
X0098363Y0039221D01*
X0098236Y0039308D01*
X0098111Y0039397D01*
X0097989Y0039490D01*
X0097870Y0039586D01*
X0097752Y0039685D01*
X0097638Y0039786D01*
X0097526Y0039891D01*
X0097417Y0039999D01*
X0097311Y0040110D01*
X0097207Y0040223D01*
X0097107Y0040339D01*
X0097009Y0040457D01*
X0096915Y0040578D01*
X0096824Y0040701D01*
X0096736Y0040827D01*
X0096652Y0040955D01*
X0096570Y0041085D01*
X0096493Y0041217D01*
X0096418Y0041351D01*
X0096347Y0041487D01*
X0096280Y0041625D01*
X0096216Y0041765D01*
X0096156Y0041906D01*
X0096100Y0042048D01*
X0096047Y0042192D01*
X0095998Y0042338D01*
X0095953Y0042484D01*
X0095912Y0042632D01*
X0095875Y0042780D01*
X0095841Y0042930D01*
X0095811Y0043081D01*
X0095786Y0043232D01*
X0095764Y0043383D01*
X0095746Y0043536D01*
X0095732Y0043688D01*
X0095722Y0043841D01*
X0095716Y0043995D01*
X0095714Y0044148D01*
X0276816Y0138636D02*
X0276818Y0138789D01*
X0276824Y0138943D01*
X0276834Y0139096D01*
X0276848Y0139248D01*
X0276866Y0139401D01*
X0276888Y0139552D01*
X0276913Y0139703D01*
X0276943Y0139854D01*
X0276977Y0140004D01*
X0277014Y0140152D01*
X0277055Y0140300D01*
X0277100Y0140446D01*
X0277149Y0140592D01*
X0277202Y0140736D01*
X0277258Y0140878D01*
X0277318Y0141019D01*
X0277382Y0141159D01*
X0277449Y0141297D01*
X0277520Y0141433D01*
X0277595Y0141567D01*
X0277672Y0141699D01*
X0277754Y0141829D01*
X0277838Y0141957D01*
X0277926Y0142083D01*
X0278017Y0142206D01*
X0278111Y0142327D01*
X0278209Y0142445D01*
X0278309Y0142561D01*
X0278413Y0142674D01*
X0278519Y0142785D01*
X0278628Y0142893D01*
X0278740Y0142998D01*
X0278854Y0143099D01*
X0278972Y0143198D01*
X0279091Y0143294D01*
X0279213Y0143387D01*
X0279338Y0143476D01*
X0279465Y0143563D01*
X0279594Y0143645D01*
X0279725Y0143725D01*
X0279858Y0143801D01*
X0279993Y0143874D01*
X0280130Y0143943D01*
X0280269Y0144008D01*
X0280409Y0144070D01*
X0280551Y0144128D01*
X0280694Y0144183D01*
X0280839Y0144234D01*
X0280985Y0144281D01*
X0281132Y0144324D01*
X0281280Y0144363D01*
X0281429Y0144399D01*
X0281579Y0144430D01*
X0281730Y0144458D01*
X0281881Y0144482D01*
X0282034Y0144502D01*
X0282186Y0144518D01*
X0282339Y0144530D01*
X0282492Y0144538D01*
X0282645Y0144542D01*
X0282799Y0144542D01*
X0282952Y0144538D01*
X0283105Y0144530D01*
X0283258Y0144518D01*
X0283410Y0144502D01*
X0283563Y0144482D01*
X0283714Y0144458D01*
X0283865Y0144430D01*
X0284015Y0144399D01*
X0284164Y0144363D01*
X0284312Y0144324D01*
X0284459Y0144281D01*
X0284605Y0144234D01*
X0284750Y0144183D01*
X0284893Y0144128D01*
X0285035Y0144070D01*
X0285175Y0144008D01*
X0285314Y0143943D01*
X0285451Y0143874D01*
X0285586Y0143801D01*
X0285719Y0143725D01*
X0285850Y0143645D01*
X0285979Y0143563D01*
X0286106Y0143476D01*
X0286231Y0143387D01*
X0286353Y0143294D01*
X0286472Y0143198D01*
X0286590Y0143099D01*
X0286704Y0142998D01*
X0286816Y0142893D01*
X0286925Y0142785D01*
X0287031Y0142674D01*
X0287135Y0142561D01*
X0287235Y0142445D01*
X0287333Y0142327D01*
X0287427Y0142206D01*
X0287518Y0142083D01*
X0287606Y0141957D01*
X0287690Y0141829D01*
X0287772Y0141699D01*
X0287849Y0141567D01*
X0287924Y0141433D01*
X0287995Y0141297D01*
X0288062Y0141159D01*
X0288126Y0141019D01*
X0288186Y0140878D01*
X0288242Y0140736D01*
X0288295Y0140592D01*
X0288344Y0140446D01*
X0288389Y0140300D01*
X0288430Y0140152D01*
X0288467Y0140004D01*
X0288501Y0139854D01*
X0288531Y0139703D01*
X0288556Y0139552D01*
X0288578Y0139401D01*
X0288596Y0139248D01*
X0288610Y0139096D01*
X0288620Y0138943D01*
X0288626Y0138789D01*
X0288628Y0138636D01*
X0288626Y0138483D01*
X0288620Y0138329D01*
X0288610Y0138176D01*
X0288596Y0138024D01*
X0288578Y0137871D01*
X0288556Y0137720D01*
X0288531Y0137569D01*
X0288501Y0137418D01*
X0288467Y0137268D01*
X0288430Y0137120D01*
X0288389Y0136972D01*
X0288344Y0136826D01*
X0288295Y0136680D01*
X0288242Y0136536D01*
X0288186Y0136394D01*
X0288126Y0136253D01*
X0288062Y0136113D01*
X0287995Y0135975D01*
X0287924Y0135839D01*
X0287849Y0135705D01*
X0287772Y0135573D01*
X0287690Y0135443D01*
X0287606Y0135315D01*
X0287518Y0135189D01*
X0287427Y0135066D01*
X0287333Y0134945D01*
X0287235Y0134827D01*
X0287135Y0134711D01*
X0287031Y0134598D01*
X0286925Y0134487D01*
X0286816Y0134379D01*
X0286704Y0134274D01*
X0286590Y0134173D01*
X0286472Y0134074D01*
X0286353Y0133978D01*
X0286231Y0133885D01*
X0286106Y0133796D01*
X0285979Y0133709D01*
X0285850Y0133627D01*
X0285719Y0133547D01*
X0285586Y0133471D01*
X0285451Y0133398D01*
X0285314Y0133329D01*
X0285175Y0133264D01*
X0285035Y0133202D01*
X0284893Y0133144D01*
X0284750Y0133089D01*
X0284605Y0133038D01*
X0284459Y0132991D01*
X0284312Y0132948D01*
X0284164Y0132909D01*
X0284015Y0132873D01*
X0283865Y0132842D01*
X0283714Y0132814D01*
X0283563Y0132790D01*
X0283410Y0132770D01*
X0283258Y0132754D01*
X0283105Y0132742D01*
X0282952Y0132734D01*
X0282799Y0132730D01*
X0282645Y0132730D01*
X0282492Y0132734D01*
X0282339Y0132742D01*
X0282186Y0132754D01*
X0282034Y0132770D01*
X0281881Y0132790D01*
X0281730Y0132814D01*
X0281579Y0132842D01*
X0281429Y0132873D01*
X0281280Y0132909D01*
X0281132Y0132948D01*
X0280985Y0132991D01*
X0280839Y0133038D01*
X0280694Y0133089D01*
X0280551Y0133144D01*
X0280409Y0133202D01*
X0280269Y0133264D01*
X0280130Y0133329D01*
X0279993Y0133398D01*
X0279858Y0133471D01*
X0279725Y0133547D01*
X0279594Y0133627D01*
X0279465Y0133709D01*
X0279338Y0133796D01*
X0279213Y0133885D01*
X0279091Y0133978D01*
X0278972Y0134074D01*
X0278854Y0134173D01*
X0278740Y0134274D01*
X0278628Y0134379D01*
X0278519Y0134487D01*
X0278413Y0134598D01*
X0278309Y0134711D01*
X0278209Y0134827D01*
X0278111Y0134945D01*
X0278017Y0135066D01*
X0277926Y0135189D01*
X0277838Y0135315D01*
X0277754Y0135443D01*
X0277672Y0135573D01*
X0277595Y0135705D01*
X0277520Y0135839D01*
X0277449Y0135975D01*
X0277382Y0136113D01*
X0277318Y0136253D01*
X0277258Y0136394D01*
X0277202Y0136536D01*
X0277149Y0136680D01*
X0277100Y0136826D01*
X0277055Y0136972D01*
X0277014Y0137120D01*
X0276977Y0137268D01*
X0276943Y0137418D01*
X0276913Y0137569D01*
X0276888Y0137720D01*
X0276866Y0137871D01*
X0276848Y0138024D01*
X0276834Y0138176D01*
X0276824Y0138329D01*
X0276818Y0138483D01*
X0276816Y0138636D01*
D11*
X0285749Y0148670D02*
X0286716Y0148670D01*
X0287200Y0149154D01*
X0288211Y0149154D02*
X0288695Y0148670D01*
X0289663Y0148670D01*
X0290146Y0149154D01*
X0290146Y0149638D01*
X0289663Y0150122D01*
X0289179Y0150122D01*
X0289663Y0150122D02*
X0290146Y0150605D01*
X0290146Y0151089D01*
X0289663Y0151573D01*
X0288695Y0151573D01*
X0288211Y0151089D01*
X0287200Y0151089D02*
X0286716Y0151573D01*
X0285749Y0151573D01*
X0285265Y0151089D01*
X0285265Y0149154D01*
X0285749Y0148670D01*
X0281881Y0151234D02*
X0279947Y0151234D01*
X0278979Y0152201D01*
X0279947Y0153169D01*
X0281881Y0153169D01*
X0281398Y0154180D02*
X0280914Y0154180D01*
X0280430Y0154664D01*
X0280430Y0155632D01*
X0280914Y0156115D01*
X0281398Y0156115D01*
X0281881Y0155632D01*
X0281881Y0154664D01*
X0281398Y0154180D01*
X0280430Y0154664D02*
X0279947Y0154180D01*
X0279463Y0154180D01*
X0278979Y0154664D01*
X0278979Y0155632D01*
X0279463Y0156115D01*
X0279947Y0156115D01*
X0280430Y0155632D01*
X0280430Y0153169D02*
X0280430Y0151234D01*
X0291158Y0150122D02*
X0293093Y0150122D01*
X0292609Y0151573D02*
X0291158Y0150122D01*
X0292609Y0148670D02*
X0292609Y0151573D01*
X0281881Y0163020D02*
X0279947Y0163020D01*
X0278979Y0163987D01*
X0279947Y0164955D01*
X0281881Y0164955D01*
X0281398Y0165966D02*
X0281881Y0166450D01*
X0281881Y0167418D01*
X0281398Y0167901D01*
X0279463Y0167901D01*
X0278979Y0167418D01*
X0278979Y0166450D01*
X0279463Y0165966D01*
X0279947Y0165966D01*
X0280430Y0166450D01*
X0280430Y0167901D01*
X0280430Y0164955D02*
X0280430Y0163020D01*
X0298050Y0170391D02*
X0298534Y0169907D01*
X0299501Y0169907D01*
X0299985Y0170391D01*
X0299985Y0172810D01*
X0300997Y0171842D02*
X0301964Y0172810D01*
X0301964Y0169907D01*
X0300997Y0169907D02*
X0302931Y0169907D01*
X0303943Y0169907D02*
X0305878Y0171842D01*
X0305878Y0172326D01*
X0305394Y0172810D01*
X0304427Y0172810D01*
X0303943Y0172326D01*
X0303943Y0169907D02*
X0305878Y0169907D01*
X0298050Y0170391D02*
X0298050Y0172810D01*
X0286051Y0187094D02*
X0283149Y0187094D01*
X0283149Y0188546D01*
X0283632Y0189029D01*
X0284600Y0189029D01*
X0285084Y0188546D01*
X0285084Y0187094D01*
X0285084Y0188062D02*
X0286051Y0189029D01*
X0286051Y0190041D02*
X0286051Y0191976D01*
X0286051Y0191008D02*
X0283149Y0191008D01*
X0284116Y0190041D01*
X0284116Y0192988D02*
X0283632Y0192988D01*
X0283149Y0193471D01*
X0283149Y0194439D01*
X0283632Y0194923D01*
X0284116Y0194923D01*
X0284600Y0194439D01*
X0284600Y0193471D01*
X0284116Y0192988D01*
X0284600Y0193471D02*
X0285084Y0192988D01*
X0285567Y0192988D01*
X0286051Y0193471D01*
X0286051Y0194439D01*
X0285567Y0194923D01*
X0285084Y0194923D01*
X0284600Y0194439D01*
X0290856Y0202404D02*
X0291824Y0203372D01*
X0291824Y0205307D01*
X0289889Y0205307D02*
X0289889Y0203372D01*
X0290856Y0202404D01*
X0292836Y0201921D02*
X0294770Y0201921D01*
X0295782Y0202404D02*
X0295782Y0205307D01*
X0296750Y0204339D01*
X0297717Y0205307D01*
X0297717Y0202404D01*
X0298729Y0202888D02*
X0299212Y0202404D01*
X0300180Y0202404D01*
X0300664Y0202888D01*
X0300664Y0204823D01*
X0300180Y0205307D01*
X0299212Y0205307D01*
X0298729Y0204823D01*
X0298729Y0202888D01*
X0301675Y0205307D02*
X0303610Y0205307D01*
X0302643Y0205307D02*
X0302643Y0202404D01*
X0304622Y0202404D02*
X0306557Y0204339D01*
X0306557Y0204823D01*
X0306073Y0205307D01*
X0305105Y0205307D01*
X0304622Y0204823D01*
X0304622Y0202404D02*
X0306557Y0202404D01*
X0311381Y0202449D02*
X0311865Y0201965D01*
X0312833Y0201965D01*
X0313316Y0202449D01*
X0313316Y0203416D01*
X0312349Y0203416D01*
X0311381Y0204384D02*
X0311381Y0202449D01*
X0311381Y0204384D02*
X0311865Y0204867D01*
X0312833Y0204867D01*
X0313316Y0204384D01*
X0314328Y0204867D02*
X0316263Y0201965D01*
X0316263Y0204867D01*
X0317275Y0204867D02*
X0317275Y0201965D01*
X0318726Y0201965D01*
X0319210Y0202449D01*
X0319210Y0204384D01*
X0318726Y0204867D01*
X0317275Y0204867D01*
X0314328Y0204867D02*
X0314328Y0201965D01*
X0319530Y0167686D02*
X0319530Y0165751D01*
X0318079Y0167202D01*
X0320981Y0167202D01*
X0320981Y0164739D02*
X0318079Y0164739D01*
X0319047Y0163772D01*
X0318079Y0162805D01*
X0320981Y0162805D01*
X0320981Y0159858D02*
X0318079Y0161793D01*
X0318563Y0158846D02*
X0319047Y0158846D01*
X0319530Y0158363D01*
X0320014Y0158846D01*
X0320498Y0158846D01*
X0320981Y0158363D01*
X0320981Y0157395D01*
X0320498Y0156911D01*
X0320981Y0155900D02*
X0318079Y0155900D01*
X0319047Y0154932D01*
X0318079Y0153965D01*
X0320981Y0153965D01*
X0318563Y0156911D02*
X0318079Y0157395D01*
X0318079Y0158363D01*
X0318563Y0158846D01*
X0319530Y0158363D02*
X0319530Y0157879D01*
X0306111Y0132510D02*
X0306111Y0129607D01*
X0307078Y0129607D02*
X0305143Y0129607D01*
X0304131Y0129607D02*
X0302197Y0129607D01*
X0303164Y0129607D02*
X0303164Y0132510D01*
X0302197Y0131542D01*
X0301185Y0132510D02*
X0301185Y0130091D01*
X0300701Y0129607D01*
X0299734Y0129607D01*
X0299250Y0130091D01*
X0299250Y0132510D01*
X0305143Y0131542D02*
X0306111Y0132510D01*
X0318479Y0126002D02*
X0318479Y0125035D01*
X0318963Y0124551D01*
X0318479Y0123539D02*
X0321381Y0123539D01*
X0321381Y0124551D02*
X0319447Y0126486D01*
X0318963Y0126486D01*
X0318479Y0126002D01*
X0318479Y0123539D02*
X0319447Y0122572D01*
X0318479Y0121605D01*
X0321381Y0121605D01*
X0321381Y0124551D02*
X0321381Y0126486D01*
X0318479Y0120593D02*
X0321381Y0118658D01*
X0321381Y0117646D02*
X0321381Y0115711D01*
X0321381Y0116679D02*
X0318479Y0116679D01*
X0319447Y0115711D01*
X0318479Y0114700D02*
X0321381Y0114700D01*
X0321381Y0112765D02*
X0318479Y0112765D01*
X0319447Y0113732D01*
X0318479Y0114700D01*
X0307526Y0103367D02*
X0306558Y0103367D01*
X0306075Y0102884D01*
X0306075Y0100949D01*
X0308010Y0102884D01*
X0308010Y0100949D01*
X0307526Y0100465D01*
X0306558Y0100465D01*
X0306075Y0100949D01*
X0305063Y0100465D02*
X0303128Y0100465D01*
X0304095Y0100465D02*
X0304095Y0103367D01*
X0303128Y0102400D01*
X0302116Y0103367D02*
X0302116Y0100949D01*
X0301633Y0100465D01*
X0300665Y0100465D01*
X0300181Y0100949D01*
X0300181Y0103367D01*
X0300413Y0105848D02*
X0299929Y0106332D01*
X0300413Y0105848D02*
X0301381Y0105848D01*
X0301864Y0106332D01*
X0301864Y0106816D01*
X0301381Y0107300D01*
X0300897Y0107300D01*
X0301381Y0107300D02*
X0301864Y0107783D01*
X0301864Y0108267D01*
X0301381Y0108751D01*
X0300413Y0108751D01*
X0299929Y0108267D01*
X0298918Y0108267D02*
X0298918Y0107783D01*
X0298434Y0107300D01*
X0298918Y0106816D01*
X0298918Y0106332D01*
X0298434Y0105848D01*
X0297467Y0105848D01*
X0296983Y0106332D01*
X0295971Y0106332D02*
X0295488Y0105848D01*
X0294520Y0105848D01*
X0294036Y0106332D01*
X0294036Y0108267D01*
X0294520Y0108751D01*
X0295488Y0108751D01*
X0295971Y0108267D01*
X0296983Y0108267D02*
X0297467Y0108751D01*
X0298434Y0108751D01*
X0298918Y0108267D01*
X0298434Y0107300D02*
X0297950Y0107300D01*
X0307526Y0103367D02*
X0308010Y0102884D01*
X0318163Y0085486D02*
X0318647Y0085486D01*
X0319130Y0085002D01*
X0319130Y0084035D01*
X0318647Y0083551D01*
X0318163Y0083551D01*
X0317679Y0084035D01*
X0317679Y0085002D01*
X0318163Y0085486D01*
X0319130Y0085002D02*
X0319614Y0085486D01*
X0320098Y0085486D01*
X0320581Y0085002D01*
X0320581Y0084035D01*
X0320098Y0083551D01*
X0319614Y0083551D01*
X0319130Y0084035D01*
X0317679Y0082539D02*
X0320581Y0082539D01*
X0320581Y0080605D02*
X0317679Y0080605D01*
X0318647Y0081572D01*
X0317679Y0082539D01*
X0317679Y0079593D02*
X0320581Y0077658D01*
X0318163Y0076646D02*
X0320098Y0074711D01*
X0320581Y0074711D01*
X0320581Y0073700D02*
X0317679Y0073700D01*
X0318647Y0072732D01*
X0317679Y0071765D01*
X0320581Y0071765D01*
X0317679Y0074711D02*
X0317679Y0076646D01*
X0318163Y0076646D01*
X0303381Y0077123D02*
X0303381Y0076156D01*
X0302898Y0075672D01*
X0300479Y0075672D01*
X0300479Y0077607D02*
X0302898Y0077607D01*
X0303381Y0077123D01*
X0302898Y0078618D02*
X0303381Y0079102D01*
X0303381Y0080070D01*
X0302898Y0080553D01*
X0300963Y0080553D01*
X0300479Y0080070D01*
X0300479Y0079102D01*
X0300963Y0078618D01*
X0301447Y0078618D01*
X0301930Y0079102D01*
X0301930Y0080553D01*
X0282210Y0079867D02*
X0282210Y0079384D01*
X0280275Y0077449D01*
X0280275Y0076965D01*
X0279263Y0076965D02*
X0277328Y0076965D01*
X0279263Y0078900D01*
X0279263Y0079384D01*
X0278779Y0079867D01*
X0277812Y0079867D01*
X0277328Y0079384D01*
X0276316Y0079384D02*
X0275833Y0079867D01*
X0274865Y0079867D01*
X0274381Y0079384D01*
X0274381Y0077449D01*
X0274865Y0076965D01*
X0275833Y0076965D01*
X0276316Y0077449D01*
X0280275Y0079867D02*
X0282210Y0079867D01*
X0280798Y0092365D02*
X0278863Y0092365D01*
X0278379Y0092849D01*
X0278379Y0093816D01*
X0278863Y0094300D01*
X0278863Y0095311D02*
X0278379Y0095795D01*
X0278379Y0096763D01*
X0278863Y0097246D01*
X0279347Y0097246D01*
X0279830Y0096763D01*
X0280314Y0097246D01*
X0280798Y0097246D01*
X0281281Y0096763D01*
X0281281Y0095795D01*
X0280798Y0095311D01*
X0280798Y0094300D02*
X0281281Y0093816D01*
X0281281Y0092849D01*
X0280798Y0092365D01*
X0279830Y0096279D02*
X0279830Y0096763D01*
X0278863Y0098258D02*
X0278379Y0098742D01*
X0278379Y0099709D01*
X0278863Y0100193D01*
X0280798Y0098258D01*
X0281281Y0098742D01*
X0281281Y0099709D01*
X0280798Y0100193D01*
X0278863Y0100193D01*
X0278863Y0098258D02*
X0280798Y0098258D01*
X0279986Y0103665D02*
X0280470Y0104149D01*
X0280470Y0106084D01*
X0279986Y0106567D01*
X0279019Y0106567D01*
X0278535Y0106084D01*
X0278535Y0105600D01*
X0279019Y0105116D01*
X0280470Y0105116D01*
X0279986Y0103665D02*
X0279019Y0103665D01*
X0278535Y0104149D01*
X0277523Y0103665D02*
X0275588Y0103665D01*
X0276556Y0103665D02*
X0276556Y0106567D01*
X0275588Y0105600D01*
X0274577Y0106084D02*
X0274577Y0105116D01*
X0274093Y0104632D01*
X0272642Y0104632D01*
X0272642Y0103665D02*
X0272642Y0106567D01*
X0274093Y0106567D01*
X0274577Y0106084D01*
X0273609Y0104632D02*
X0274577Y0103665D01*
X0264710Y0107749D02*
X0264226Y0107265D01*
X0263258Y0107265D01*
X0262775Y0107749D01*
X0262775Y0108232D01*
X0263258Y0108716D01*
X0264226Y0108716D01*
X0264710Y0108232D01*
X0264710Y0107749D01*
X0264226Y0108716D02*
X0264710Y0109200D01*
X0264710Y0109684D01*
X0264226Y0110167D01*
X0263258Y0110167D01*
X0262775Y0109684D01*
X0262775Y0109200D01*
X0263258Y0108716D01*
X0261763Y0109200D02*
X0261763Y0109684D01*
X0261279Y0110167D01*
X0260312Y0110167D01*
X0259828Y0109684D01*
X0258816Y0109684D02*
X0258333Y0110167D01*
X0257365Y0110167D01*
X0256881Y0109684D01*
X0256881Y0107749D01*
X0257365Y0107265D01*
X0258333Y0107265D01*
X0258816Y0107749D01*
X0259828Y0107265D02*
X0261763Y0109200D01*
X0261763Y0110865D02*
X0259828Y0110865D01*
X0260795Y0110865D02*
X0260795Y0113767D01*
X0259828Y0112800D01*
X0258816Y0113284D02*
X0258816Y0112316D01*
X0258333Y0111832D01*
X0256881Y0111832D01*
X0256881Y0110865D02*
X0256881Y0113767D01*
X0258333Y0113767D01*
X0258816Y0113284D01*
X0258333Y0114465D02*
X0258816Y0114949D01*
X0258333Y0114465D02*
X0257365Y0114465D01*
X0256881Y0114949D01*
X0256881Y0116884D01*
X0257365Y0117367D01*
X0258333Y0117367D01*
X0258816Y0116884D01*
X0259828Y0116884D02*
X0260312Y0117367D01*
X0261279Y0117367D01*
X0261763Y0116884D01*
X0261763Y0116400D01*
X0261279Y0115916D01*
X0261763Y0115432D01*
X0261763Y0114949D01*
X0261279Y0114465D01*
X0260312Y0114465D01*
X0259828Y0114949D01*
X0260795Y0115916D02*
X0261279Y0115916D01*
X0262775Y0116400D02*
X0263742Y0117367D01*
X0263742Y0114465D01*
X0262775Y0114465D02*
X0264710Y0114465D01*
X0264710Y0113767D02*
X0264710Y0113284D01*
X0262775Y0111349D01*
X0262775Y0110865D01*
X0261763Y0107265D02*
X0259828Y0107265D01*
X0258816Y0110865D02*
X0257849Y0111832D01*
X0262775Y0113767D02*
X0264710Y0113767D01*
X0277181Y0115449D02*
X0277665Y0114965D01*
X0278633Y0114965D01*
X0279116Y0115449D01*
X0280128Y0115449D02*
X0280612Y0114965D01*
X0281579Y0114965D01*
X0282063Y0115449D01*
X0282063Y0115932D01*
X0281579Y0116416D01*
X0281095Y0116416D01*
X0281579Y0116416D02*
X0282063Y0116900D01*
X0282063Y0117384D01*
X0281579Y0117867D01*
X0280612Y0117867D01*
X0280128Y0117384D01*
X0279116Y0117384D02*
X0278633Y0117867D01*
X0277665Y0117867D01*
X0277181Y0117384D01*
X0277181Y0115449D01*
X0283075Y0114965D02*
X0285010Y0116900D01*
X0285010Y0117384D01*
X0284526Y0117867D01*
X0283558Y0117867D01*
X0283075Y0117384D01*
X0283075Y0114965D02*
X0285010Y0114965D01*
X0253781Y0104570D02*
X0253781Y0103602D01*
X0253298Y0103118D01*
X0252330Y0103118D01*
X0252330Y0104570D01*
X0252814Y0105053D01*
X0253298Y0105053D01*
X0253781Y0104570D01*
X0252330Y0103118D02*
X0251363Y0104086D01*
X0250879Y0105053D01*
X0247781Y0105707D02*
X0247781Y0103772D01*
X0245847Y0105707D01*
X0245363Y0105707D01*
X0244879Y0105223D01*
X0244879Y0104256D01*
X0245363Y0103772D01*
X0245363Y0102760D02*
X0244879Y0102277D01*
X0244879Y0101309D01*
X0245363Y0100825D01*
X0247298Y0100825D01*
X0247781Y0101309D01*
X0247781Y0102277D01*
X0247298Y0102760D01*
X0250879Y0101139D02*
X0253781Y0101139D01*
X0253781Y0100172D02*
X0253781Y0102107D01*
X0251847Y0100172D02*
X0250879Y0101139D01*
X0251363Y0099160D02*
X0252330Y0099160D01*
X0252814Y0098677D01*
X0252814Y0097225D01*
X0253781Y0097225D02*
X0250879Y0097225D01*
X0250879Y0098677D01*
X0251363Y0099160D01*
X0252814Y0098193D02*
X0253781Y0099160D01*
X0247298Y0106718D02*
X0247781Y0107202D01*
X0247781Y0108170D01*
X0247298Y0108653D01*
X0245363Y0108653D01*
X0244879Y0108170D01*
X0244879Y0107202D01*
X0245363Y0106718D01*
X0245847Y0106718D01*
X0246330Y0107202D01*
X0246330Y0108653D01*
X0234506Y0100058D02*
X0233822Y0100742D01*
X0233137Y0100742D01*
X0232422Y0101457D02*
X0232422Y0102141D01*
X0231738Y0102825D01*
X0231054Y0102825D01*
X0229686Y0101457D01*
X0229686Y0100773D01*
X0230370Y0100089D01*
X0231054Y0100089D01*
X0231427Y0099031D02*
X0234164Y0099031D01*
X0234506Y0099373D01*
X0234506Y0100058D01*
X0235221Y0098658D02*
X0233853Y0097290D01*
X0236589Y0097290D01*
X0235221Y0095922D01*
X0234537Y0095922D01*
X0233853Y0096606D01*
X0233853Y0097290D01*
X0232795Y0097663D02*
X0231427Y0099031D01*
X0228522Y0097941D02*
X0228522Y0097257D01*
X0227838Y0096573D01*
X0227154Y0096573D01*
X0226128Y0097599D01*
X0226812Y0096915D02*
X0226812Y0095547D01*
X0227527Y0094831D02*
X0228895Y0093463D01*
X0228211Y0094147D02*
X0230264Y0096200D01*
X0228895Y0096200D01*
X0228522Y0097941D02*
X0227496Y0098967D01*
X0225444Y0096915D01*
X0224838Y0093825D02*
X0224154Y0093825D01*
X0222786Y0092457D01*
X0222786Y0091773D01*
X0223470Y0091089D01*
X0224154Y0091089D01*
X0224527Y0090031D02*
X0225895Y0088663D01*
X0225211Y0089347D02*
X0227264Y0091400D01*
X0225895Y0091400D01*
X0225522Y0092457D02*
X0225522Y0093141D01*
X0224838Y0093825D01*
X0228321Y0089658D02*
X0227979Y0089316D01*
X0227979Y0088632D01*
X0229005Y0087606D01*
X0229689Y0088290D02*
X0229689Y0088974D01*
X0229005Y0089658D01*
X0228321Y0089658D01*
X0229689Y0088290D02*
X0228321Y0086922D01*
X0227637Y0086922D01*
X0226953Y0087606D01*
X0226953Y0088290D01*
X0230637Y0091722D02*
X0232689Y0093774D01*
X0230637Y0093774D01*
X0232005Y0092406D01*
X0236589Y0097290D02*
X0236589Y0097974D01*
X0235905Y0098658D01*
X0235221Y0098658D01*
X0240079Y0084653D02*
X0240079Y0082718D01*
X0241530Y0082718D01*
X0241047Y0083686D01*
X0241047Y0084170D01*
X0241530Y0084653D01*
X0242498Y0084653D01*
X0242981Y0084170D01*
X0242981Y0083202D01*
X0242498Y0082718D01*
X0242981Y0081707D02*
X0242981Y0079772D01*
X0242981Y0080739D02*
X0240079Y0080739D01*
X0241047Y0079772D01*
X0240563Y0078760D02*
X0241530Y0078760D01*
X0242014Y0078277D01*
X0242014Y0076825D01*
X0242981Y0076825D02*
X0240079Y0076825D01*
X0240079Y0078277D01*
X0240563Y0078760D01*
X0242014Y0077793D02*
X0242981Y0078760D01*
X0230899Y0067963D02*
X0230214Y0068647D01*
X0229530Y0068647D01*
X0228162Y0067279D01*
X0228162Y0066595D01*
X0228846Y0065911D01*
X0229530Y0065911D01*
X0230899Y0067279D01*
X0230899Y0067963D01*
X0231614Y0066564D02*
X0232298Y0066564D01*
X0232982Y0065880D01*
X0232982Y0065195D01*
X0232640Y0064853D01*
X0229903Y0064853D01*
X0231272Y0063485D01*
X0229188Y0065569D02*
X0229188Y0066937D01*
X0221781Y0070759D02*
X0221439Y0070417D01*
X0220755Y0070417D01*
X0220071Y0071101D01*
X0220071Y0071785D01*
X0220413Y0072127D01*
X0221097Y0072127D01*
X0221781Y0071443D01*
X0221781Y0070759D01*
X0220755Y0070417D02*
X0220755Y0069733D01*
X0220413Y0069391D01*
X0219729Y0069391D01*
X0219045Y0070075D01*
X0219045Y0070759D01*
X0219387Y0071101D01*
X0220071Y0071101D01*
X0217988Y0071132D02*
X0216619Y0072500D01*
X0217303Y0071816D02*
X0219356Y0073868D01*
X0217988Y0073868D01*
X0217614Y0074926D02*
X0217614Y0075610D01*
X0216930Y0076294D01*
X0216246Y0076294D01*
X0214878Y0074926D01*
X0214878Y0074242D01*
X0215562Y0073558D01*
X0216246Y0073558D01*
X0212778Y0061960D02*
X0210843Y0061960D01*
X0212778Y0061960D02*
X0212778Y0061476D01*
X0210843Y0059541D01*
X0210843Y0059057D01*
X0209831Y0059057D02*
X0207897Y0059057D01*
X0208864Y0059057D02*
X0208864Y0061960D01*
X0207897Y0060992D01*
X0206885Y0061476D02*
X0206401Y0061960D01*
X0205434Y0061960D01*
X0204950Y0061476D01*
X0204950Y0059541D01*
X0205434Y0059057D01*
X0206401Y0059057D01*
X0206885Y0059541D01*
X0189666Y0055521D02*
X0189666Y0053586D01*
X0187731Y0055521D01*
X0187247Y0055521D01*
X0186764Y0055037D01*
X0186764Y0054070D01*
X0187247Y0053586D01*
X0187247Y0052575D02*
X0186764Y0052091D01*
X0186764Y0051123D01*
X0187247Y0050640D01*
X0189182Y0050640D01*
X0189666Y0051123D01*
X0189666Y0052091D01*
X0189182Y0052575D01*
X0189666Y0049643D02*
X0189666Y0048675D01*
X0189666Y0049159D02*
X0186764Y0049159D01*
X0186764Y0048675D02*
X0186764Y0049643D01*
X0181635Y0046984D02*
X0181151Y0047467D01*
X0180184Y0047467D01*
X0179700Y0046984D01*
X0178689Y0046984D02*
X0178205Y0047467D01*
X0177237Y0047467D01*
X0176754Y0046984D01*
X0176754Y0045049D01*
X0177237Y0044565D01*
X0178205Y0044565D01*
X0178689Y0045049D01*
X0178689Y0046984D01*
X0179700Y0044565D02*
X0181635Y0046500D01*
X0181635Y0046984D01*
X0181635Y0044565D02*
X0179700Y0044565D01*
X0175757Y0044565D02*
X0174789Y0044565D01*
X0175273Y0044565D02*
X0175273Y0047467D01*
X0174789Y0047467D02*
X0175757Y0047467D01*
X0173778Y0044081D02*
X0171843Y0044081D01*
X0170831Y0044565D02*
X0168896Y0044565D01*
X0168896Y0047467D01*
X0167885Y0046500D02*
X0167885Y0044565D01*
X0167885Y0046016D02*
X0165950Y0046016D01*
X0165950Y0046500D02*
X0166917Y0047467D01*
X0167885Y0046500D01*
X0165950Y0046500D02*
X0165950Y0044565D01*
X0163971Y0044565D02*
X0163971Y0047467D01*
X0164938Y0047467D02*
X0163003Y0047467D01*
X0162006Y0047467D02*
X0161039Y0047467D01*
X0161523Y0047467D02*
X0161523Y0044565D01*
X0162006Y0044565D02*
X0161039Y0044565D01*
X0160027Y0045049D02*
X0160027Y0046016D01*
X0159060Y0046016D01*
X0160027Y0045049D02*
X0159544Y0044565D01*
X0158576Y0044565D01*
X0158092Y0045049D01*
X0158092Y0046984D01*
X0158576Y0047467D01*
X0159544Y0047467D01*
X0160027Y0046984D01*
X0157095Y0047467D02*
X0156128Y0047467D01*
X0156612Y0047467D02*
X0156612Y0044565D01*
X0157095Y0044565D02*
X0156128Y0044565D01*
X0155116Y0045049D02*
X0155116Y0046984D01*
X0154633Y0047467D01*
X0153181Y0047467D01*
X0153181Y0044565D01*
X0154633Y0044565D01*
X0155116Y0045049D01*
X0147737Y0059495D02*
X0146369Y0060863D01*
X0149105Y0060863D01*
X0149447Y0061205D01*
X0149447Y0061890D01*
X0148763Y0062574D01*
X0148079Y0062574D01*
X0147022Y0064315D02*
X0144969Y0062263D01*
X0144285Y0062947D02*
X0145654Y0061579D01*
X0143912Y0064004D02*
X0143228Y0064004D01*
X0142544Y0064688D01*
X0142544Y0065372D01*
X0143912Y0066741D01*
X0144596Y0066741D01*
X0145280Y0066057D01*
X0145280Y0065372D01*
X0145654Y0064315D02*
X0147022Y0064315D01*
X0146542Y0069274D02*
X0148595Y0071326D01*
X0146542Y0071326D01*
X0147911Y0069958D01*
X0144801Y0071015D02*
X0143433Y0072384D01*
X0144117Y0071699D02*
X0146169Y0073752D01*
X0144801Y0073752D01*
X0144428Y0074809D02*
X0144428Y0075493D01*
X0143744Y0076177D01*
X0143059Y0076177D01*
X0141691Y0074809D01*
X0141691Y0074125D01*
X0142375Y0073441D01*
X0143059Y0073441D01*
X0148678Y0075223D02*
X0150730Y0077275D01*
X0148678Y0075223D02*
X0150046Y0073855D01*
X0150761Y0073139D02*
X0153498Y0073139D01*
X0153840Y0073481D01*
X0153840Y0074165D01*
X0153156Y0074850D01*
X0152471Y0074850D01*
X0150761Y0073139D02*
X0152129Y0071771D01*
X0147382Y0088851D02*
X0146698Y0088851D01*
X0146013Y0089535D01*
X0146013Y0090219D01*
X0146698Y0090903D02*
X0147724Y0090561D01*
X0148066Y0090219D01*
X0148066Y0089535D01*
X0147382Y0088851D01*
X0146698Y0090903D02*
X0147724Y0091929D01*
X0149092Y0090561D01*
X0146324Y0093329D02*
X0144272Y0091276D01*
X0143588Y0091960D02*
X0144956Y0090592D01*
X0144956Y0093329D02*
X0146324Y0093329D01*
X0144583Y0094386D02*
X0144583Y0095070D01*
X0143899Y0095754D01*
X0143215Y0095754D01*
X0141846Y0094386D01*
X0141846Y0093702D01*
X0142531Y0093018D01*
X0143215Y0093018D01*
X0119795Y0080126D02*
X0119795Y0079442D01*
X0119453Y0079100D01*
X0118768Y0079100D01*
X0118768Y0078416D01*
X0118426Y0078074D01*
X0117742Y0078074D01*
X0117058Y0078758D01*
X0117058Y0079442D01*
X0116001Y0079815D02*
X0114633Y0081184D01*
X0115317Y0080499D02*
X0117369Y0082552D01*
X0116001Y0082552D01*
X0115628Y0083609D02*
X0115628Y0084293D01*
X0114944Y0084977D01*
X0114259Y0084977D01*
X0112891Y0083609D01*
X0112891Y0082925D01*
X0113575Y0082241D01*
X0114259Y0082241D01*
X0118426Y0080810D02*
X0119111Y0080810D01*
X0119795Y0080126D01*
X0118768Y0079100D02*
X0118426Y0079442D01*
X0099463Y0065584D02*
X0099463Y0065100D01*
X0098979Y0064616D01*
X0098012Y0064616D01*
X0097528Y0065100D01*
X0097528Y0065584D01*
X0098012Y0066067D01*
X0098979Y0066067D01*
X0099463Y0065584D01*
X0098979Y0064616D02*
X0099463Y0064132D01*
X0099463Y0063649D01*
X0098979Y0063165D01*
X0098012Y0063165D01*
X0097528Y0063649D01*
X0097528Y0064132D01*
X0098012Y0064616D01*
X0096516Y0064616D02*
X0096033Y0064132D01*
X0094581Y0064132D01*
X0094581Y0063165D02*
X0094581Y0066067D01*
X0096033Y0066067D01*
X0096516Y0065584D01*
X0096516Y0064616D01*
X0095549Y0064132D02*
X0096516Y0063165D01*
X0088182Y0065449D02*
X0088182Y0067384D01*
X0087698Y0067867D01*
X0086247Y0067867D01*
X0086247Y0064965D01*
X0087698Y0064965D01*
X0088182Y0065449D01*
X0085235Y0065449D02*
X0085235Y0067384D01*
X0084751Y0067867D01*
X0083300Y0067867D01*
X0083300Y0064965D01*
X0084751Y0064965D01*
X0085235Y0065449D01*
X0082289Y0065932D02*
X0082289Y0067867D01*
X0082289Y0065932D02*
X0081321Y0064965D01*
X0080354Y0065932D01*
X0080354Y0067867D01*
X0080837Y0069965D02*
X0080354Y0070449D01*
X0080837Y0069965D02*
X0081805Y0069965D01*
X0082289Y0070449D01*
X0082289Y0070932D01*
X0081805Y0071416D01*
X0080837Y0071416D01*
X0080354Y0071900D01*
X0080354Y0072384D01*
X0080837Y0072867D01*
X0081805Y0072867D01*
X0082289Y0072384D01*
X0083300Y0072867D02*
X0083300Y0069965D01*
X0084751Y0069965D01*
X0085235Y0070449D01*
X0085235Y0072384D01*
X0084751Y0072867D01*
X0083300Y0072867D01*
X0083300Y0074965D02*
X0084751Y0074965D01*
X0085235Y0075449D01*
X0085235Y0077384D01*
X0084751Y0077867D01*
X0083300Y0077867D01*
X0083300Y0074965D01*
X0082289Y0075449D02*
X0081805Y0074965D01*
X0080837Y0074965D01*
X0080354Y0075449D01*
X0080837Y0076416D02*
X0081805Y0076416D01*
X0082289Y0075932D01*
X0082289Y0075449D01*
X0080837Y0076416D02*
X0080354Y0076900D01*
X0080354Y0077384D01*
X0080837Y0077867D01*
X0081805Y0077867D01*
X0082289Y0077384D01*
X0081805Y0079965D02*
X0082289Y0080449D01*
X0082289Y0081416D01*
X0081321Y0081416D01*
X0080354Y0080449D02*
X0080837Y0079965D01*
X0081805Y0079965D01*
X0083300Y0079965D02*
X0083300Y0082867D01*
X0085235Y0079965D01*
X0085235Y0082867D01*
X0086247Y0082867D02*
X0086247Y0079965D01*
X0087698Y0079965D01*
X0088182Y0080449D01*
X0088182Y0082384D01*
X0087698Y0082867D01*
X0086247Y0082867D01*
X0085825Y0084965D02*
X0084858Y0084965D01*
X0085341Y0084965D02*
X0085341Y0087867D01*
X0084858Y0087867D02*
X0085825Y0087867D01*
X0086822Y0087867D02*
X0088757Y0084965D01*
X0088757Y0087867D01*
X0089768Y0087867D02*
X0091703Y0087867D01*
X0090736Y0087867D02*
X0090736Y0084965D01*
X0086822Y0084965D02*
X0086822Y0087867D01*
X0083846Y0084481D02*
X0081911Y0084481D01*
X0080899Y0085449D02*
X0080899Y0086416D01*
X0079932Y0086416D01*
X0080899Y0085449D02*
X0080416Y0084965D01*
X0079448Y0084965D01*
X0078965Y0085449D01*
X0078965Y0087384D01*
X0079448Y0087867D01*
X0080416Y0087867D01*
X0080899Y0087384D01*
X0077968Y0087867D02*
X0077000Y0087867D01*
X0077484Y0087867D02*
X0077484Y0084965D01*
X0077000Y0084965D02*
X0077968Y0084965D01*
X0075989Y0084965D02*
X0074054Y0084965D01*
X0074054Y0087867D01*
X0067149Y0087867D02*
X0067149Y0084965D01*
X0065214Y0087867D01*
X0065214Y0084965D01*
X0064203Y0084965D02*
X0062268Y0084965D01*
X0062268Y0087867D01*
X0064203Y0087867D01*
X0063235Y0086416D02*
X0062268Y0086416D01*
X0061256Y0084481D02*
X0059321Y0084481D01*
X0059728Y0082867D02*
X0061179Y0082867D01*
X0061663Y0082384D01*
X0061663Y0080449D01*
X0061179Y0079965D01*
X0059728Y0079965D01*
X0059728Y0082867D01*
X0058716Y0082867D02*
X0058716Y0080932D01*
X0057749Y0079965D01*
X0056781Y0080932D01*
X0056781Y0082867D01*
X0057342Y0084965D02*
X0058310Y0085932D01*
X0058310Y0087867D01*
X0056375Y0087867D02*
X0056375Y0085932D01*
X0057342Y0084965D01*
X0055363Y0085449D02*
X0055363Y0087867D01*
X0053428Y0087867D02*
X0053428Y0085449D01*
X0053912Y0084965D01*
X0054879Y0084965D01*
X0055363Y0085449D01*
X0062675Y0082867D02*
X0062675Y0079965D01*
X0064126Y0079965D01*
X0064610Y0080449D01*
X0064610Y0082384D01*
X0064126Y0082867D01*
X0062675Y0082867D01*
X0062675Y0077867D02*
X0062675Y0074965D01*
X0064610Y0074965D01*
X0062675Y0072867D02*
X0062675Y0069965D01*
X0064610Y0069965D01*
X0064126Y0067867D02*
X0062675Y0067867D01*
X0062675Y0064965D01*
X0064126Y0064965D01*
X0064610Y0065449D01*
X0064610Y0067384D01*
X0064126Y0067867D01*
X0061663Y0067384D02*
X0061663Y0065449D01*
X0061179Y0064965D01*
X0059728Y0064965D01*
X0059728Y0067867D01*
X0061179Y0067867D01*
X0061663Y0067384D01*
X0061179Y0069965D02*
X0061663Y0070449D01*
X0061179Y0069965D02*
X0060212Y0069965D01*
X0059728Y0070449D01*
X0059728Y0072384D01*
X0060212Y0072867D01*
X0061179Y0072867D01*
X0061663Y0072384D01*
X0061179Y0074965D02*
X0061663Y0075449D01*
X0061179Y0074965D02*
X0060212Y0074965D01*
X0059728Y0075449D01*
X0059728Y0077384D01*
X0060212Y0077867D01*
X0061179Y0077867D01*
X0061663Y0077384D01*
X0058716Y0077384D02*
X0058233Y0077867D01*
X0057265Y0077867D01*
X0056781Y0077384D01*
X0056781Y0076900D01*
X0057265Y0076416D01*
X0058233Y0076416D01*
X0058716Y0075932D01*
X0058716Y0075449D01*
X0058233Y0074965D01*
X0057265Y0074965D01*
X0056781Y0075449D01*
X0057265Y0072867D02*
X0056781Y0072384D01*
X0056781Y0071900D01*
X0057265Y0071416D01*
X0058233Y0071416D01*
X0058716Y0070932D01*
X0058716Y0070449D01*
X0058233Y0069965D01*
X0057265Y0069965D01*
X0056781Y0070449D01*
X0057265Y0072867D02*
X0058233Y0072867D01*
X0058716Y0072384D01*
X0058716Y0067867D02*
X0058716Y0065932D01*
X0057749Y0064965D01*
X0056781Y0065932D01*
X0056781Y0067867D01*
X0067912Y0059875D02*
X0067912Y0057940D01*
X0068396Y0057456D01*
X0069363Y0057456D01*
X0069847Y0057940D01*
X0070859Y0057456D02*
X0072794Y0057456D01*
X0071826Y0057456D02*
X0071826Y0060359D01*
X0070859Y0059391D01*
X0069847Y0059875D02*
X0069363Y0060359D01*
X0068396Y0060359D01*
X0067912Y0059875D01*
X0073805Y0059875D02*
X0073805Y0057940D01*
X0075740Y0059875D01*
X0075740Y0057940D01*
X0075256Y0057456D01*
X0074289Y0057456D01*
X0073805Y0057940D01*
X0073805Y0059875D02*
X0074289Y0060359D01*
X0075256Y0060359D01*
X0075740Y0059875D01*
X0069125Y0051948D02*
X0069125Y0049045D01*
X0068158Y0049045D02*
X0070093Y0049045D01*
X0068158Y0050980D02*
X0069125Y0051948D01*
X0067146Y0051948D02*
X0067146Y0049529D01*
X0066663Y0049045D01*
X0065695Y0049045D01*
X0065211Y0049529D01*
X0065211Y0051948D01*
X0070260Y0038588D02*
X0070743Y0038588D01*
X0072678Y0036653D01*
X0073162Y0036653D01*
X0072678Y0035641D02*
X0073162Y0035158D01*
X0073162Y0034190D01*
X0072678Y0033706D01*
X0070743Y0033706D01*
X0070260Y0034190D01*
X0070260Y0035158D01*
X0070743Y0035641D01*
X0070260Y0036653D02*
X0070260Y0038588D01*
X0076579Y0038011D02*
X0076579Y0037043D01*
X0077063Y0036560D01*
X0077547Y0036560D01*
X0078030Y0037043D01*
X0078030Y0038011D01*
X0078514Y0038494D01*
X0078998Y0038494D01*
X0079481Y0038011D01*
X0079481Y0037043D01*
X0078998Y0036560D01*
X0078514Y0036560D01*
X0078030Y0037043D01*
X0078030Y0038011D02*
X0077547Y0038494D01*
X0077063Y0038494D01*
X0076579Y0038011D01*
X0077063Y0035548D02*
X0076579Y0035064D01*
X0076579Y0034097D01*
X0077063Y0033613D01*
X0078998Y0033613D01*
X0079481Y0034097D01*
X0079481Y0035064D01*
X0078998Y0035548D01*
X0082379Y0035064D02*
X0082379Y0034097D01*
X0082863Y0033613D01*
X0084798Y0033613D01*
X0085281Y0034097D01*
X0085281Y0035064D01*
X0084798Y0035548D01*
X0084798Y0036560D02*
X0085281Y0037043D01*
X0085281Y0038011D01*
X0084798Y0038494D01*
X0082863Y0038494D01*
X0082379Y0038011D01*
X0082379Y0037043D01*
X0082863Y0036560D01*
X0083347Y0036560D01*
X0083830Y0037043D01*
X0083830Y0038494D01*
X0082863Y0035548D02*
X0082379Y0035064D01*
X0082579Y0020353D02*
X0083063Y0019386D01*
X0084030Y0018418D01*
X0084030Y0019870D01*
X0084514Y0020353D01*
X0084998Y0020353D01*
X0085481Y0019870D01*
X0085481Y0018902D01*
X0084998Y0018418D01*
X0084030Y0018418D01*
X0084030Y0017407D02*
X0084514Y0016923D01*
X0084514Y0015472D01*
X0084514Y0016439D02*
X0085481Y0017407D01*
X0084030Y0017407D02*
X0083063Y0017407D01*
X0082579Y0016923D01*
X0082579Y0015472D01*
X0085481Y0015472D01*
X0079819Y0016250D02*
X0079336Y0015766D01*
X0079819Y0016250D02*
X0079819Y0017217D01*
X0079336Y0017701D01*
X0078368Y0017701D01*
X0077885Y0017217D01*
X0077885Y0016733D01*
X0078368Y0015766D01*
X0076917Y0015766D01*
X0076917Y0017701D01*
X0076917Y0018712D02*
X0078852Y0018712D01*
X0079819Y0019680D01*
X0078852Y0020647D01*
X0076917Y0020647D01*
X0071439Y0017835D02*
X0070955Y0017835D01*
X0069020Y0019770D01*
X0068537Y0019770D01*
X0068537Y0017835D01*
X0069020Y0016823D02*
X0069988Y0016823D01*
X0070471Y0016340D01*
X0070471Y0014888D01*
X0070471Y0015856D02*
X0071439Y0016823D01*
X0071439Y0014888D02*
X0068537Y0014888D01*
X0068537Y0016340D01*
X0069020Y0016823D01*
X0099681Y0018549D02*
X0100165Y0018065D01*
X0101133Y0018065D01*
X0101616Y0018549D01*
X0101616Y0019032D01*
X0101133Y0019516D01*
X0100649Y0019516D01*
X0101133Y0019516D02*
X0101616Y0020000D01*
X0101616Y0020484D01*
X0101133Y0020967D01*
X0100165Y0020967D01*
X0099681Y0020484D01*
X0102628Y0020967D02*
X0102628Y0019032D01*
X0103595Y0018065D01*
X0104563Y0019032D01*
X0104563Y0020967D01*
X0105575Y0020484D02*
X0106058Y0020967D01*
X0107026Y0020967D01*
X0107510Y0020484D01*
X0107510Y0020000D01*
X0107026Y0019516D01*
X0107510Y0019032D01*
X0107510Y0018549D01*
X0107026Y0018065D01*
X0106058Y0018065D01*
X0105575Y0018549D01*
X0106542Y0019516D02*
X0107026Y0019516D01*
X0107056Y0018932D02*
X0108507Y0018932D01*
X0108991Y0019416D01*
X0108991Y0020384D01*
X0108507Y0020867D01*
X0107056Y0020867D01*
X0107056Y0017965D01*
X0108023Y0018932D02*
X0108991Y0017965D01*
X0110002Y0017965D02*
X0111937Y0020867D01*
X0112949Y0019900D02*
X0113916Y0020867D01*
X0113916Y0017965D01*
X0112949Y0017965D02*
X0114884Y0017965D01*
X0115895Y0017965D02*
X0117830Y0020867D01*
X0118842Y0020867D02*
X0120777Y0020867D01*
X0119809Y0020867D02*
X0119809Y0017965D01*
X0121788Y0017965D02*
X0123723Y0020867D01*
X0124735Y0019900D02*
X0125702Y0020867D01*
X0125702Y0017965D01*
X0124735Y0017965D02*
X0126670Y0017965D01*
X0129081Y0018349D02*
X0129081Y0020284D01*
X0129565Y0020767D01*
X0130533Y0020767D01*
X0131016Y0020284D01*
X0131016Y0019316D02*
X0130049Y0019316D01*
X0131016Y0019316D02*
X0131016Y0018349D01*
X0130533Y0017865D01*
X0129565Y0017865D01*
X0129081Y0018349D01*
X0132028Y0017865D02*
X0132028Y0020767D01*
X0133963Y0017865D01*
X0133963Y0020767D01*
X0134975Y0020767D02*
X0136426Y0020767D01*
X0136910Y0020284D01*
X0136910Y0018349D01*
X0136426Y0017865D01*
X0134975Y0017865D01*
X0134975Y0020767D01*
X0123723Y0017965D02*
X0121788Y0020867D01*
X0111937Y0017965D02*
X0110002Y0020867D01*
X0117437Y0056809D02*
X0116953Y0057293D01*
X0116953Y0058260D01*
X0117437Y0058744D01*
X0117921Y0058744D01*
X0118404Y0058260D01*
X0118888Y0058744D01*
X0119372Y0058744D01*
X0119856Y0058260D01*
X0119856Y0057293D01*
X0119372Y0056809D01*
X0118404Y0057776D02*
X0118404Y0058260D01*
X0118888Y0059755D02*
X0116953Y0059755D01*
X0118888Y0059755D02*
X0119856Y0060723D01*
X0118888Y0061690D01*
X0116953Y0061690D01*
X0088182Y0069965D02*
X0088182Y0071900D01*
X0087214Y0072867D01*
X0086247Y0071900D01*
X0086247Y0069965D01*
X0086247Y0071416D02*
X0088182Y0071416D01*
X0088182Y0074965D02*
X0088182Y0076900D01*
X0087214Y0077867D01*
X0086247Y0076900D01*
X0086247Y0074965D01*
X0086247Y0076416D02*
X0088182Y0076416D01*
X0080354Y0080449D02*
X0080354Y0082384D01*
X0080837Y0082867D01*
X0081805Y0082867D01*
X0082289Y0082384D01*
X0058115Y0103411D02*
X0056063Y0105463D01*
X0059483Y0104779D01*
X0057431Y0106831D01*
X0058146Y0107546D02*
X0059172Y0108573D01*
X0059856Y0108573D01*
X0061225Y0107204D01*
X0061225Y0106520D01*
X0060198Y0105494D01*
X0058146Y0107546D01*
X0055689Y0104406D02*
X0055005Y0104406D01*
X0054321Y0103721D01*
X0054321Y0103037D01*
X0055689Y0101669D01*
X0056374Y0101669D01*
X0057058Y0102353D01*
X0057058Y0103037D01*
X0056374Y0103721D01*
X0055689Y0103037D01*
X0046798Y0121565D02*
X0044863Y0121565D01*
X0044379Y0122049D01*
X0044379Y0123016D01*
X0044863Y0123500D01*
X0044863Y0124511D02*
X0044379Y0124995D01*
X0044379Y0125963D01*
X0044863Y0126446D01*
X0045347Y0126446D01*
X0047281Y0124511D01*
X0047281Y0126446D01*
X0052179Y0126316D02*
X0052179Y0124865D01*
X0055081Y0124865D01*
X0054114Y0124865D02*
X0054114Y0126316D01*
X0053630Y0126800D01*
X0052663Y0126800D01*
X0052179Y0126316D01*
X0054114Y0125832D02*
X0055081Y0126800D01*
X0053630Y0127811D02*
X0053630Y0129746D01*
X0055081Y0129263D02*
X0052179Y0129263D01*
X0053630Y0127811D01*
X0047281Y0123016D02*
X0046798Y0123500D01*
X0047281Y0123016D02*
X0047281Y0122049D01*
X0046798Y0121565D01*
X0039184Y0127353D02*
X0038700Y0126869D01*
X0037249Y0126869D01*
X0037249Y0125902D02*
X0037249Y0128804D01*
X0038700Y0128804D01*
X0039184Y0128321D01*
X0039184Y0127353D01*
X0036238Y0125902D02*
X0034303Y0125902D01*
X0034303Y0128804D01*
X0033291Y0128321D02*
X0033291Y0127837D01*
X0032807Y0127353D01*
X0031356Y0127353D01*
X0031356Y0125902D02*
X0032807Y0125902D01*
X0033291Y0126386D01*
X0033291Y0126869D01*
X0032807Y0127353D01*
X0033291Y0128321D02*
X0032807Y0128804D01*
X0031356Y0128804D01*
X0031356Y0125902D01*
X0031188Y0133265D02*
X0031188Y0136167D01*
X0032640Y0136167D01*
X0033123Y0135684D01*
X0033123Y0134716D01*
X0032640Y0134232D01*
X0031188Y0134232D01*
X0032156Y0134232D02*
X0033123Y0133265D01*
X0034135Y0133749D02*
X0034619Y0133265D01*
X0035586Y0133265D01*
X0036070Y0133749D01*
X0036070Y0134716D01*
X0035586Y0135200D01*
X0035102Y0135200D01*
X0034135Y0134716D01*
X0034135Y0136167D01*
X0036070Y0136167D01*
X0033100Y0143402D02*
X0032133Y0143402D01*
X0031649Y0143886D01*
X0030638Y0143886D02*
X0030154Y0143402D01*
X0029186Y0143402D01*
X0028703Y0143886D01*
X0028703Y0145821D01*
X0029186Y0146304D01*
X0030154Y0146304D01*
X0030638Y0145821D01*
X0031649Y0145821D02*
X0032133Y0146304D01*
X0033100Y0146304D01*
X0033584Y0145821D01*
X0033584Y0145337D01*
X0033100Y0144853D01*
X0033584Y0144369D01*
X0033584Y0143886D01*
X0033100Y0143402D01*
X0033100Y0144853D02*
X0032617Y0144853D01*
X0033500Y0153402D02*
X0033500Y0156304D01*
X0032049Y0154853D01*
X0033984Y0154853D01*
X0031038Y0153886D02*
X0030554Y0153402D01*
X0029586Y0153402D01*
X0029103Y0153886D01*
X0029103Y0155821D01*
X0029586Y0156304D01*
X0030554Y0156304D01*
X0031038Y0155821D01*
X0033772Y0169765D02*
X0034740Y0169765D01*
X0035223Y0170249D01*
X0036235Y0170249D02*
X0036719Y0169765D01*
X0037686Y0169765D01*
X0038170Y0170249D01*
X0038170Y0171216D01*
X0037686Y0171700D01*
X0037202Y0171700D01*
X0036235Y0171216D01*
X0036235Y0172667D01*
X0038170Y0172667D01*
X0035223Y0172184D02*
X0034740Y0172667D01*
X0033772Y0172667D01*
X0033288Y0172184D01*
X0033288Y0170249D01*
X0033772Y0169765D01*
X0044838Y0170650D02*
X0045322Y0170167D01*
X0046289Y0170167D01*
X0046773Y0170650D01*
X0046773Y0172585D01*
X0046289Y0173069D01*
X0045322Y0173069D01*
X0044838Y0172585D01*
X0044838Y0170650D01*
X0045806Y0171134D02*
X0046773Y0170167D01*
X0047785Y0170167D02*
X0049720Y0170167D01*
X0048752Y0170167D02*
X0048752Y0173069D01*
X0047785Y0172102D01*
X0059188Y0172184D02*
X0059188Y0170249D01*
X0059672Y0169765D01*
X0060640Y0169765D01*
X0061123Y0170249D01*
X0062135Y0170249D02*
X0062619Y0169765D01*
X0063586Y0169765D01*
X0064070Y0170249D01*
X0064070Y0170732D01*
X0063586Y0171216D01*
X0062135Y0171216D01*
X0062135Y0170249D01*
X0062135Y0171216D02*
X0063102Y0172184D01*
X0064070Y0172667D01*
X0061123Y0172184D02*
X0060640Y0172667D01*
X0059672Y0172667D01*
X0059188Y0172184D01*
X0074142Y0171765D02*
X0074142Y0174667D01*
X0075593Y0174667D01*
X0076077Y0174184D01*
X0076077Y0173216D01*
X0075593Y0172732D01*
X0074142Y0172732D01*
X0075109Y0172732D02*
X0076077Y0171765D01*
X0077088Y0171765D02*
X0079023Y0171765D01*
X0078056Y0171765D02*
X0078056Y0174667D01*
X0077088Y0173700D01*
X0080035Y0174184D02*
X0080519Y0174667D01*
X0081486Y0174667D01*
X0081970Y0174184D01*
X0081970Y0173700D01*
X0080035Y0171765D01*
X0081970Y0171765D01*
X0087281Y0166293D02*
X0087281Y0164358D01*
X0087281Y0165325D02*
X0084379Y0165325D01*
X0085347Y0164358D01*
X0087281Y0163346D02*
X0087281Y0161411D01*
X0087281Y0162379D02*
X0084379Y0162379D01*
X0085347Y0161411D01*
X0084863Y0160400D02*
X0085830Y0160400D01*
X0086314Y0159916D01*
X0086314Y0158465D01*
X0086314Y0159432D02*
X0087281Y0160400D01*
X0087281Y0158465D02*
X0084379Y0158465D01*
X0084379Y0159916D01*
X0084863Y0160400D01*
X0081126Y0152867D02*
X0081610Y0152384D01*
X0079675Y0150449D01*
X0080158Y0149965D01*
X0081126Y0149965D01*
X0081610Y0150449D01*
X0081610Y0152384D01*
X0081126Y0152867D02*
X0080158Y0152867D01*
X0079675Y0152384D01*
X0079675Y0150449D01*
X0078663Y0149965D02*
X0076728Y0149965D01*
X0077695Y0149965D02*
X0077695Y0152867D01*
X0076728Y0151900D01*
X0075716Y0152384D02*
X0075716Y0151416D01*
X0075233Y0150932D01*
X0073781Y0150932D01*
X0073781Y0149965D02*
X0073781Y0152867D01*
X0075233Y0152867D01*
X0075716Y0152384D01*
X0074749Y0150932D02*
X0075716Y0149965D01*
X0067528Y0146649D02*
X0067528Y0143747D01*
X0068495Y0143747D02*
X0066560Y0143747D01*
X0065549Y0144231D02*
X0065065Y0143747D01*
X0064097Y0143747D01*
X0063614Y0144231D01*
X0063614Y0146166D01*
X0064097Y0146649D01*
X0065065Y0146649D01*
X0065549Y0146166D01*
X0066560Y0145682D02*
X0067528Y0146649D01*
X0062617Y0146649D02*
X0061649Y0146649D01*
X0062133Y0146649D02*
X0062133Y0143747D01*
X0061649Y0143747D02*
X0062617Y0143747D01*
X0063556Y0138604D02*
X0065007Y0138604D01*
X0065491Y0138121D01*
X0065491Y0137153D01*
X0065007Y0136669D01*
X0063556Y0136669D01*
X0063556Y0135702D02*
X0063556Y0138604D01*
X0064524Y0136669D02*
X0065491Y0135702D01*
X0066503Y0136186D02*
X0066986Y0135702D01*
X0067954Y0135702D01*
X0068438Y0136186D01*
X0068438Y0136669D01*
X0067954Y0137153D01*
X0066986Y0137153D01*
X0066503Y0137637D01*
X0066503Y0138121D01*
X0066986Y0138604D01*
X0067954Y0138604D01*
X0068438Y0138121D01*
X0069449Y0138604D02*
X0071384Y0138604D01*
X0070417Y0138604D02*
X0070417Y0135702D01*
X0073310Y0134750D02*
X0075363Y0132697D01*
X0074679Y0133381D02*
X0075705Y0134408D01*
X0075705Y0135092D01*
X0075021Y0135776D01*
X0074337Y0135776D01*
X0073310Y0134750D01*
X0075363Y0134066D02*
X0076731Y0134066D01*
X0077104Y0135123D02*
X0077788Y0135123D01*
X0078472Y0135807D01*
X0078472Y0136491D01*
X0077104Y0137859D01*
X0076420Y0137859D01*
X0075736Y0137175D01*
X0075736Y0136491D01*
X0076078Y0136149D01*
X0076762Y0136149D01*
X0077788Y0137175D01*
X0069647Y0127778D02*
X0067595Y0129831D01*
X0067595Y0128462D01*
X0068963Y0127094D02*
X0070331Y0128462D01*
X0068248Y0126379D02*
X0066879Y0125011D01*
X0067564Y0125695D02*
X0065511Y0127747D01*
X0065511Y0126379D01*
X0064454Y0126006D02*
X0063770Y0126006D01*
X0063086Y0125321D01*
X0063086Y0124637D01*
X0064454Y0123269D01*
X0065138Y0123269D01*
X0065822Y0123953D01*
X0065822Y0124637D01*
X0090621Y0137237D02*
X0090621Y0137921D01*
X0091305Y0138606D01*
X0091989Y0138606D01*
X0092331Y0138264D01*
X0092331Y0137579D01*
X0093016Y0137579D01*
X0093358Y0137237D01*
X0093358Y0136553D01*
X0092674Y0135869D01*
X0091989Y0135869D01*
X0091989Y0137237D02*
X0092331Y0137579D01*
X0093731Y0138295D02*
X0095099Y0138295D01*
X0095099Y0139663D01*
X0093731Y0141031D01*
X0094788Y0141404D02*
X0094788Y0142088D01*
X0095472Y0142773D01*
X0096156Y0142773D01*
X0096498Y0142431D01*
X0096498Y0141746D01*
X0097183Y0141746D01*
X0097525Y0141404D01*
X0097525Y0140720D01*
X0096841Y0140036D01*
X0096156Y0140036D01*
X0096156Y0141404D02*
X0096498Y0141746D01*
X0093731Y0138295D02*
X0092363Y0139663D01*
X0101081Y0155313D02*
X0103016Y0155313D01*
X0104028Y0155313D02*
X0105963Y0155313D01*
X0106975Y0155313D02*
X0108426Y0155313D01*
X0108910Y0155797D01*
X0108910Y0157732D01*
X0108426Y0158215D01*
X0106975Y0158215D01*
X0106975Y0155313D01*
X0104995Y0156764D02*
X0104028Y0156764D01*
X0104028Y0158215D02*
X0104028Y0155313D01*
X0101081Y0155313D02*
X0101081Y0158215D01*
X0101081Y0160413D02*
X0103016Y0160413D01*
X0104028Y0160413D02*
X0105963Y0160413D01*
X0106975Y0160413D02*
X0108426Y0160413D01*
X0108910Y0160897D01*
X0108910Y0162832D01*
X0108426Y0163315D01*
X0106975Y0163315D01*
X0106975Y0160413D01*
X0105963Y0158215D02*
X0104028Y0158215D01*
X0104028Y0160413D02*
X0104028Y0163315D01*
X0105963Y0163315D01*
X0104995Y0161864D02*
X0104028Y0161864D01*
X0101081Y0163315D02*
X0101081Y0160413D01*
X0109921Y0160413D02*
X0111856Y0162348D01*
X0111856Y0162832D01*
X0111372Y0163315D01*
X0110405Y0163315D01*
X0109921Y0162832D01*
X0109921Y0160413D02*
X0111856Y0160413D01*
X0110889Y0158215D02*
X0110889Y0155313D01*
X0111856Y0155313D02*
X0109921Y0155313D01*
X0109921Y0157248D02*
X0110889Y0158215D01*
X0116963Y0172219D02*
X0118198Y0172219D01*
X0118815Y0172836D01*
X0118815Y0175304D01*
X0118198Y0175922D01*
X0116963Y0175922D01*
X0116346Y0175304D01*
X0116346Y0172836D01*
X0116963Y0172219D01*
X0120029Y0172836D02*
X0120029Y0174070D01*
X0120646Y0174687D01*
X0122498Y0174687D01*
X0123712Y0174687D02*
X0124947Y0174687D01*
X0124329Y0175304D02*
X0124329Y0172836D01*
X0124947Y0172219D01*
X0126168Y0172836D02*
X0126785Y0173453D01*
X0128636Y0173453D01*
X0128636Y0174070D02*
X0128636Y0172219D01*
X0126785Y0172219D01*
X0126168Y0172836D01*
X0126785Y0174687D02*
X0128019Y0174687D01*
X0128636Y0174070D01*
X0129851Y0174687D02*
X0131702Y0174687D01*
X0132320Y0174070D01*
X0132320Y0172219D01*
X0133534Y0172219D02*
X0134768Y0172219D01*
X0134151Y0172219D02*
X0134151Y0174687D01*
X0133534Y0174687D01*
X0134151Y0175922D02*
X0134151Y0176539D01*
X0136607Y0174687D02*
X0138458Y0174687D01*
X0137841Y0173453D02*
X0136607Y0173453D01*
X0135989Y0174070D01*
X0136607Y0174687D01*
X0137841Y0173453D02*
X0138458Y0172836D01*
X0137841Y0172219D01*
X0135989Y0172219D01*
X0129851Y0172219D02*
X0129851Y0174687D01*
X0122498Y0172219D02*
X0120646Y0172219D01*
X0120029Y0172836D01*
X0143356Y0172219D02*
X0145824Y0172219D01*
X0144590Y0172219D02*
X0144590Y0175922D01*
X0143356Y0174687D01*
X0150722Y0174687D02*
X0151956Y0172219D01*
X0153191Y0174687D01*
X0154405Y0175304D02*
X0155022Y0175922D01*
X0156257Y0175922D01*
X0156874Y0175304D01*
X0154405Y0172836D01*
X0155022Y0172219D01*
X0156257Y0172219D01*
X0156874Y0172836D01*
X0156874Y0175304D01*
X0154405Y0175304D02*
X0154405Y0172836D01*
X0158088Y0172836D02*
X0158705Y0172836D01*
X0158705Y0172219D01*
X0158088Y0172219D01*
X0158088Y0172836D01*
X0159930Y0172836D02*
X0159930Y0174070D01*
X0161781Y0174070D01*
X0162399Y0173453D01*
X0162399Y0172836D01*
X0161781Y0172219D01*
X0160547Y0172219D01*
X0159930Y0172836D01*
X0159930Y0174070D02*
X0161164Y0175304D01*
X0162399Y0175922D01*
X0162020Y0200765D02*
X0162020Y0203667D01*
X0161052Y0202700D01*
X0160041Y0203184D02*
X0159557Y0203667D01*
X0158589Y0203667D01*
X0158106Y0203184D01*
X0158106Y0201249D01*
X0158589Y0200765D01*
X0159557Y0200765D01*
X0160041Y0201249D01*
X0160041Y0203184D01*
X0161052Y0200765D02*
X0162987Y0200765D01*
X0157109Y0200765D02*
X0156141Y0200765D01*
X0156625Y0200765D02*
X0156625Y0203667D01*
X0156141Y0203667D02*
X0157109Y0203667D01*
X0155130Y0200281D02*
X0153195Y0200281D01*
X0152183Y0200765D02*
X0150248Y0200765D01*
X0150248Y0203667D01*
X0149237Y0202700D02*
X0149237Y0200765D01*
X0149237Y0202216D02*
X0147302Y0202216D01*
X0147302Y0202700D02*
X0147302Y0200765D01*
X0147302Y0202700D02*
X0148269Y0203667D01*
X0149237Y0202700D01*
X0146290Y0203667D02*
X0144355Y0203667D01*
X0145323Y0203667D02*
X0145323Y0200765D01*
X0143358Y0200765D02*
X0142391Y0200765D01*
X0142875Y0200765D02*
X0142875Y0203667D01*
X0143358Y0203667D02*
X0142391Y0203667D01*
X0141379Y0203184D02*
X0140896Y0203667D01*
X0139928Y0203667D01*
X0139444Y0203184D01*
X0139444Y0201249D01*
X0139928Y0200765D01*
X0140896Y0200765D01*
X0141379Y0201249D01*
X0141379Y0202216D01*
X0140412Y0202216D01*
X0138447Y0200765D02*
X0137480Y0200765D01*
X0137964Y0200765D02*
X0137964Y0203667D01*
X0138447Y0203667D02*
X0137480Y0203667D01*
X0136468Y0203184D02*
X0135985Y0203667D01*
X0134533Y0203667D01*
X0134533Y0200765D01*
X0135985Y0200765D01*
X0136468Y0201249D01*
X0136468Y0203184D01*
X0196579Y0177543D02*
X0197063Y0178027D01*
X0197547Y0178027D01*
X0198030Y0177543D01*
X0198514Y0178027D01*
X0198998Y0178027D01*
X0199481Y0177543D01*
X0199481Y0176576D01*
X0198998Y0176092D01*
X0198514Y0175081D02*
X0196579Y0175081D01*
X0197063Y0176092D02*
X0196579Y0176576D01*
X0196579Y0177543D01*
X0198030Y0177543D02*
X0198030Y0177060D01*
X0198514Y0175081D02*
X0199481Y0174113D01*
X0198514Y0173146D01*
X0196579Y0173146D01*
X0197063Y0172134D02*
X0197547Y0172134D01*
X0198030Y0171650D01*
X0198514Y0172134D01*
X0198998Y0172134D01*
X0199481Y0171650D01*
X0199481Y0170683D01*
X0198998Y0170199D01*
X0198030Y0171167D02*
X0198030Y0171650D01*
X0197063Y0172134D02*
X0196579Y0171650D01*
X0196579Y0170683D01*
X0197063Y0170199D01*
X0197063Y0166241D02*
X0196579Y0165757D01*
X0196579Y0164306D01*
X0199481Y0164306D01*
X0199481Y0165757D01*
X0198998Y0166241D01*
X0197063Y0166241D01*
X0196579Y0163294D02*
X0199481Y0163294D01*
X0196579Y0161360D01*
X0199481Y0161360D01*
X0198998Y0160348D02*
X0198030Y0160348D01*
X0198030Y0159380D01*
X0197063Y0158413D02*
X0198998Y0158413D01*
X0199481Y0158897D01*
X0199481Y0159864D01*
X0198998Y0160348D01*
X0197063Y0160348D02*
X0196579Y0159864D01*
X0196579Y0158897D01*
X0197063Y0158413D01*
X0208079Y0159613D02*
X0208079Y0161548D01*
X0208079Y0160580D02*
X0210981Y0160580D01*
X0210981Y0162560D02*
X0210981Y0164494D01*
X0209530Y0163527D02*
X0209530Y0162560D01*
X0208079Y0162560D02*
X0210981Y0162560D01*
X0208079Y0162560D02*
X0208079Y0164494D01*
X0208079Y0168453D02*
X0209047Y0169420D01*
X0208079Y0170388D01*
X0210981Y0170388D01*
X0210981Y0171399D02*
X0210981Y0172367D01*
X0210981Y0171883D02*
X0208079Y0171883D01*
X0208079Y0171399D02*
X0208079Y0172367D01*
X0208563Y0173363D02*
X0209047Y0173363D01*
X0209530Y0173847D01*
X0209530Y0174815D01*
X0210014Y0175298D01*
X0210498Y0175298D01*
X0210981Y0174815D01*
X0210981Y0173847D01*
X0210498Y0173363D01*
X0208563Y0173363D02*
X0208079Y0173847D01*
X0208079Y0174815D01*
X0208563Y0175298D01*
X0208563Y0176310D02*
X0210498Y0176310D01*
X0210981Y0176794D01*
X0210981Y0177761D01*
X0210498Y0178245D01*
X0208563Y0178245D01*
X0208079Y0177761D01*
X0208079Y0176794D01*
X0208563Y0176310D01*
X0216479Y0175643D02*
X0216479Y0174676D01*
X0216963Y0174192D01*
X0217447Y0174192D01*
X0217930Y0174676D01*
X0217930Y0175643D01*
X0218414Y0176127D01*
X0218898Y0176127D01*
X0219381Y0175643D01*
X0219381Y0174676D01*
X0218898Y0174192D01*
X0218898Y0173181D02*
X0216963Y0173181D01*
X0216479Y0172697D01*
X0216479Y0171729D01*
X0216963Y0171246D01*
X0218898Y0171246D01*
X0219381Y0171729D01*
X0219381Y0172697D01*
X0218898Y0173181D01*
X0216479Y0175643D02*
X0216963Y0176127D01*
X0216479Y0177139D02*
X0216479Y0178106D01*
X0216479Y0177622D02*
X0219381Y0177622D01*
X0219381Y0177139D02*
X0219381Y0178106D01*
X0225830Y0171153D02*
X0225830Y0169218D01*
X0225830Y0170186D02*
X0222927Y0170186D01*
X0223895Y0169218D01*
X0223895Y0168207D02*
X0225830Y0168207D01*
X0224378Y0168207D02*
X0224378Y0166272D01*
X0223895Y0166272D02*
X0225830Y0166272D01*
X0223895Y0166272D02*
X0222927Y0167239D01*
X0223895Y0168207D01*
X0219381Y0168299D02*
X0216479Y0168299D01*
X0217447Y0169267D01*
X0216479Y0170234D01*
X0219381Y0170234D01*
X0219381Y0164341D02*
X0217930Y0162890D01*
X0218414Y0162406D02*
X0216479Y0164341D01*
X0216479Y0162406D02*
X0219381Y0162406D01*
X0219381Y0161394D02*
X0219381Y0159460D01*
X0216479Y0159460D01*
X0216963Y0158448D02*
X0216479Y0157964D01*
X0216479Y0156997D01*
X0216963Y0156513D01*
X0218898Y0156513D01*
X0219381Y0156997D01*
X0219381Y0157964D01*
X0218898Y0158448D01*
X0222927Y0159367D02*
X0225830Y0159367D01*
X0222927Y0157432D01*
X0225830Y0157432D01*
X0225346Y0156421D02*
X0224378Y0156421D01*
X0224378Y0155453D01*
X0223411Y0154486D02*
X0225346Y0154486D01*
X0225830Y0154970D01*
X0225830Y0155937D01*
X0225346Y0156421D01*
X0223411Y0156421D02*
X0222927Y0155937D01*
X0222927Y0154970D01*
X0223411Y0154486D01*
X0223895Y0153474D02*
X0225830Y0153474D01*
X0224378Y0153474D02*
X0224378Y0151539D01*
X0223895Y0151539D02*
X0225830Y0151539D01*
X0223895Y0151539D02*
X0222927Y0152507D01*
X0223895Y0153474D01*
X0222927Y0160379D02*
X0222927Y0161830D01*
X0223411Y0162314D01*
X0225346Y0162314D01*
X0225830Y0161830D01*
X0225830Y0160379D01*
X0222927Y0160379D01*
X0210981Y0168453D02*
X0208079Y0168453D01*
X0207573Y0149397D02*
X0209625Y0147344D01*
X0208941Y0146660D02*
X0210309Y0148029D01*
X0207573Y0148029D02*
X0207573Y0149397D01*
X0206515Y0147655D02*
X0205831Y0147655D01*
X0205147Y0146971D01*
X0205147Y0146287D01*
X0204432Y0145572D02*
X0203748Y0145572D01*
X0203063Y0144888D01*
X0203063Y0144204D01*
X0204432Y0142835D01*
X0205116Y0142835D01*
X0205800Y0143520D01*
X0205800Y0144204D01*
X0206857Y0144577D02*
X0206857Y0147313D01*
X0206515Y0147655D01*
X0208225Y0145945D02*
X0206857Y0144577D01*
X0171506Y0146563D02*
X0171506Y0147247D01*
X0171164Y0147589D01*
X0170480Y0147589D01*
X0169454Y0146563D01*
X0170138Y0145878D01*
X0170822Y0145878D01*
X0171506Y0146563D01*
X0169454Y0146563D02*
X0169454Y0147931D01*
X0169796Y0148957D01*
X0167028Y0146189D02*
X0169080Y0144137D01*
X0168396Y0143453D02*
X0169764Y0144821D01*
X0167028Y0144821D02*
X0167028Y0146189D01*
X0165971Y0144448D02*
X0165287Y0144448D01*
X0164602Y0143764D01*
X0164602Y0143080D01*
X0165971Y0141711D01*
X0166655Y0141711D01*
X0167339Y0142396D01*
X0167339Y0143080D01*
X0157956Y0134097D02*
X0157956Y0133413D01*
X0157272Y0132728D01*
X0156588Y0132728D01*
X0156214Y0131671D02*
X0154846Y0130303D01*
X0155530Y0130987D02*
X0153478Y0133039D01*
X0153478Y0131671D01*
X0152421Y0131298D02*
X0153105Y0130614D01*
X0153105Y0129930D01*
X0152079Y0128903D01*
X0152763Y0128219D02*
X0150710Y0130272D01*
X0151737Y0131298D01*
X0152421Y0131298D01*
X0152763Y0129588D02*
X0154131Y0129588D01*
X0155219Y0134097D02*
X0155219Y0134781D01*
X0155904Y0135465D01*
X0156588Y0135465D01*
X0156930Y0135123D01*
X0156930Y0134439D01*
X0157614Y0134439D01*
X0157956Y0134097D01*
X0156930Y0134439D02*
X0156588Y0134097D01*
X0151258Y0135898D02*
X0150775Y0135414D01*
X0150291Y0135414D01*
X0151258Y0135898D02*
X0151258Y0138316D01*
X0149807Y0138316D01*
X0149323Y0137833D01*
X0149323Y0136865D01*
X0149807Y0136381D01*
X0151258Y0136381D01*
X0148319Y0138316D02*
X0147836Y0138316D01*
X0146868Y0137349D01*
X0146868Y0138316D02*
X0146868Y0136381D01*
X0145857Y0136865D02*
X0145857Y0137833D01*
X0145373Y0138316D01*
X0144405Y0138316D01*
X0143922Y0137833D01*
X0143922Y0136865D01*
X0144405Y0136381D01*
X0145373Y0136381D01*
X0145857Y0136865D01*
X0142932Y0136865D02*
X0142932Y0136381D01*
X0142448Y0136381D01*
X0142448Y0136865D01*
X0142932Y0136865D01*
X0141437Y0136865D02*
X0140953Y0137349D01*
X0139986Y0137349D01*
X0139502Y0137833D01*
X0139986Y0138316D01*
X0141437Y0138316D01*
X0141437Y0136865D02*
X0140953Y0136381D01*
X0139502Y0136381D01*
X0138505Y0136381D02*
X0137537Y0136381D01*
X0138021Y0136381D02*
X0138021Y0138316D01*
X0137537Y0138316D01*
X0138021Y0139284D02*
X0138021Y0139768D01*
X0136526Y0137833D02*
X0136526Y0136381D01*
X0136526Y0137833D02*
X0136042Y0138316D01*
X0134591Y0138316D01*
X0134591Y0136381D01*
X0133579Y0136381D02*
X0132128Y0136381D01*
X0131644Y0136865D01*
X0132128Y0137349D01*
X0133579Y0137349D01*
X0133579Y0137833D02*
X0133579Y0136381D01*
X0133579Y0137833D02*
X0133096Y0138316D01*
X0132128Y0138316D01*
X0130648Y0138316D02*
X0129680Y0138316D01*
X0130164Y0138800D02*
X0130164Y0136865D01*
X0130648Y0136381D01*
X0128669Y0136381D02*
X0127217Y0136381D01*
X0126734Y0136865D01*
X0126734Y0137833D01*
X0127217Y0138316D01*
X0128669Y0138316D01*
X0125722Y0137833D02*
X0125238Y0138316D01*
X0124271Y0138316D01*
X0123787Y0137833D01*
X0123787Y0136865D01*
X0124271Y0136381D01*
X0125238Y0136381D01*
X0125722Y0136865D01*
X0125722Y0137833D01*
X0202833Y0200149D02*
X0203317Y0199665D01*
X0204285Y0199665D01*
X0204768Y0200149D01*
X0204768Y0200632D01*
X0204285Y0201116D01*
X0203317Y0201116D01*
X0202833Y0201600D01*
X0202833Y0202084D01*
X0203317Y0202567D01*
X0204285Y0202567D01*
X0204768Y0202084D01*
X0205780Y0202567D02*
X0207231Y0202567D01*
X0207715Y0202084D01*
X0207715Y0201116D01*
X0207231Y0200632D01*
X0205780Y0200632D01*
X0205780Y0199665D02*
X0205780Y0202567D01*
X0208727Y0202567D02*
X0209694Y0202567D01*
X0209210Y0202567D02*
X0209210Y0199665D01*
X0208727Y0199665D02*
X0209694Y0199665D01*
X0225579Y0195418D02*
X0225579Y0194450D01*
X0226063Y0193966D01*
X0226063Y0192955D02*
X0225579Y0192471D01*
X0225579Y0191504D01*
X0226063Y0191020D01*
X0226063Y0190008D02*
X0225579Y0189525D01*
X0225579Y0188557D01*
X0226063Y0188073D01*
X0227998Y0188073D01*
X0228481Y0188557D01*
X0228481Y0189525D01*
X0227998Y0190008D01*
X0228481Y0191020D02*
X0226547Y0192955D01*
X0226063Y0192955D01*
X0228481Y0192955D02*
X0228481Y0191020D01*
X0228481Y0193966D02*
X0226547Y0195901D01*
X0226063Y0195901D01*
X0225579Y0195418D01*
X0228481Y0195901D02*
X0228481Y0193966D01*
X0251365Y0201163D02*
X0251848Y0200680D01*
X0252816Y0200680D01*
X0253300Y0201163D01*
X0253300Y0203582D01*
X0254311Y0202131D02*
X0255763Y0202131D01*
X0256246Y0201647D01*
X0256246Y0201163D01*
X0255763Y0200680D01*
X0254795Y0200680D01*
X0254311Y0201163D01*
X0254311Y0202131D01*
X0255279Y0203098D01*
X0256246Y0203582D01*
X0251365Y0203582D02*
X0251365Y0201163D01*
X0251742Y0151567D02*
X0252710Y0150600D01*
X0252710Y0148665D01*
X0253721Y0148665D02*
X0255656Y0148665D01*
X0256668Y0149149D02*
X0257151Y0148665D01*
X0258119Y0148665D01*
X0258603Y0149149D01*
X0258603Y0151084D01*
X0258119Y0151567D01*
X0257151Y0151567D01*
X0256668Y0151084D01*
X0256668Y0149149D01*
X0259614Y0149149D02*
X0259614Y0151084D01*
X0260098Y0151567D01*
X0261065Y0151567D01*
X0261549Y0151084D01*
X0261549Y0150116D02*
X0260582Y0150116D01*
X0261549Y0150116D02*
X0261549Y0149149D01*
X0261065Y0148665D01*
X0260098Y0148665D01*
X0259614Y0149149D01*
X0253721Y0148665D02*
X0253721Y0151567D01*
X0252710Y0150116D02*
X0250775Y0150116D01*
X0250775Y0150600D02*
X0251742Y0151567D01*
X0250775Y0150600D02*
X0250775Y0148665D01*
X0249763Y0148665D02*
X0249763Y0151567D01*
X0247828Y0151567D02*
X0249763Y0148665D01*
X0247828Y0148665D02*
X0247828Y0151567D01*
X0246816Y0150600D02*
X0246816Y0148665D01*
X0246816Y0150116D02*
X0244881Y0150116D01*
X0244881Y0150600D02*
X0245849Y0151567D01*
X0246816Y0150600D01*
X0244881Y0150600D02*
X0244881Y0148665D01*
X0257753Y0083509D02*
X0257753Y0081574D01*
X0259204Y0081574D01*
X0258721Y0082542D01*
X0258721Y0083026D01*
X0259204Y0083509D01*
X0260172Y0083509D01*
X0260656Y0083026D01*
X0260656Y0082058D01*
X0260172Y0081574D01*
X0260172Y0080563D02*
X0257753Y0080563D01*
X0257753Y0078628D02*
X0260172Y0078628D01*
X0260656Y0079112D01*
X0260656Y0080079D01*
X0260172Y0080563D01*
X0265665Y0068267D02*
X0265181Y0067784D01*
X0265181Y0065849D01*
X0265665Y0065365D01*
X0266633Y0065365D01*
X0267116Y0065849D01*
X0268128Y0065365D02*
X0270063Y0067300D01*
X0270063Y0067784D01*
X0269579Y0068267D01*
X0268612Y0068267D01*
X0268128Y0067784D01*
X0267116Y0067784D02*
X0266633Y0068267D01*
X0265665Y0068267D01*
X0268128Y0065365D02*
X0270063Y0065365D01*
X0271075Y0065849D02*
X0271075Y0066816D01*
X0272526Y0066816D01*
X0273010Y0066332D01*
X0273010Y0065849D01*
X0272526Y0065365D01*
X0271558Y0065365D01*
X0271075Y0065849D01*
X0271075Y0066816D02*
X0272042Y0067784D01*
X0273010Y0068267D01*
X0273726Y0058967D02*
X0273242Y0058484D01*
X0273242Y0056549D01*
X0273726Y0056065D01*
X0274693Y0056065D01*
X0275177Y0056549D01*
X0276188Y0056065D02*
X0278123Y0058000D01*
X0278123Y0058484D01*
X0277640Y0058967D01*
X0276672Y0058967D01*
X0276188Y0058484D01*
X0275177Y0058484D02*
X0274693Y0058967D01*
X0273726Y0058967D01*
X0276188Y0056065D02*
X0278123Y0056065D01*
X0279135Y0056549D02*
X0279619Y0056065D01*
X0280586Y0056065D01*
X0281070Y0056549D01*
X0281070Y0057516D01*
X0280586Y0058000D01*
X0280102Y0058000D01*
X0279135Y0057516D01*
X0279135Y0058967D01*
X0281070Y0058967D01*
X0267642Y0048893D02*
X0266191Y0047442D01*
X0268126Y0047442D01*
X0267642Y0045991D02*
X0267642Y0048893D01*
X0265179Y0048893D02*
X0265179Y0046475D01*
X0264696Y0045991D01*
X0263728Y0045991D01*
X0263244Y0046475D01*
X0263244Y0048893D01*
X0273881Y0038884D02*
X0273881Y0036949D01*
X0274365Y0036465D01*
X0275333Y0036465D01*
X0275816Y0036949D01*
X0276828Y0036465D02*
X0278763Y0038400D01*
X0278763Y0038884D01*
X0278279Y0039367D01*
X0277312Y0039367D01*
X0276828Y0038884D01*
X0275816Y0038884D02*
X0275333Y0039367D01*
X0274365Y0039367D01*
X0273881Y0038884D01*
X0276828Y0036465D02*
X0278763Y0036465D01*
X0279775Y0037916D02*
X0281710Y0037916D01*
X0281226Y0036465D02*
X0281226Y0039367D01*
X0279775Y0037916D01*
X0267726Y0025067D02*
X0266758Y0025067D01*
X0266275Y0024584D01*
X0265263Y0024584D02*
X0264779Y0025067D01*
X0263812Y0025067D01*
X0263328Y0024584D01*
X0262316Y0024584D02*
X0261833Y0025067D01*
X0260865Y0025067D01*
X0260381Y0024584D01*
X0260381Y0022649D01*
X0260865Y0022165D01*
X0261833Y0022165D01*
X0262316Y0022649D01*
X0263328Y0022165D02*
X0265263Y0024100D01*
X0265263Y0024584D01*
X0266275Y0022649D02*
X0266758Y0022165D01*
X0267726Y0022165D01*
X0268210Y0022649D01*
X0268210Y0023132D01*
X0267726Y0023616D01*
X0267242Y0023616D01*
X0267726Y0023616D02*
X0268210Y0024100D01*
X0268210Y0024584D01*
X0267726Y0025067D01*
X0265263Y0022165D02*
X0263328Y0022165D01*
X0266181Y0021167D02*
X0266181Y0018749D01*
X0266665Y0018265D01*
X0267633Y0018265D01*
X0268116Y0018749D01*
X0268116Y0021167D01*
X0269128Y0020684D02*
X0269612Y0021167D01*
X0270579Y0021167D01*
X0271063Y0020684D01*
X0271063Y0020200D01*
X0270579Y0019716D01*
X0271063Y0019232D01*
X0271063Y0018749D01*
X0270579Y0018265D01*
X0269612Y0018265D01*
X0269128Y0018749D01*
X0270095Y0019716D02*
X0270579Y0019716D01*
X0251500Y0036015D02*
X0250178Y0036369D01*
X0251500Y0036015D02*
X0248986Y0034563D01*
X0248503Y0035401D02*
X0249470Y0033725D01*
X0244754Y0035545D02*
X0244931Y0036206D01*
X0244205Y0037463D01*
X0241692Y0036012D01*
X0242417Y0034755D01*
X0243078Y0034578D01*
X0244754Y0035545D01*
X0243700Y0038339D02*
X0241186Y0036888D01*
X0242732Y0040015D01*
X0240219Y0038564D01*
X0240132Y0039681D02*
X0240970Y0040165D01*
X0240486Y0041003D01*
X0241807Y0040649D02*
X0241985Y0041310D01*
X0241501Y0042148D01*
X0240840Y0042325D01*
X0239164Y0041357D01*
X0238987Y0040696D01*
X0239471Y0039859D01*
X0240132Y0039681D01*
X0243158Y0043691D02*
X0242191Y0045366D01*
X0242942Y0046968D02*
X0244617Y0047936D01*
X0243650Y0049611D02*
X0241974Y0048644D01*
X0241620Y0047322D01*
X0242942Y0046968D01*
X0244083Y0043057D02*
X0246597Y0044508D01*
X0246242Y0043186D01*
X0247564Y0042832D01*
X0245050Y0041381D01*
X0245975Y0040747D02*
X0245798Y0040086D01*
X0246282Y0039248D01*
X0246943Y0039071D01*
X0248618Y0040038D01*
X0248795Y0040699D01*
X0248312Y0041537D01*
X0247651Y0041714D01*
X0245975Y0040747D01*
X0249543Y0039404D02*
X0250511Y0037728D01*
X0250027Y0038566D02*
X0247513Y0037115D01*
X0236226Y0021267D02*
X0234775Y0021267D01*
X0234775Y0018365D01*
X0236226Y0018365D01*
X0236710Y0018849D01*
X0236710Y0020784D01*
X0236226Y0021267D01*
X0233763Y0021267D02*
X0233763Y0018365D01*
X0231828Y0021267D01*
X0231828Y0018365D01*
X0230816Y0018849D02*
X0230816Y0019816D01*
X0229849Y0019816D01*
X0228896Y0020200D02*
X0228896Y0020684D01*
X0228412Y0021167D01*
X0227444Y0021167D01*
X0226961Y0020684D01*
X0225949Y0021167D02*
X0224014Y0018265D01*
X0225949Y0018265D02*
X0224014Y0021167D01*
X0223003Y0021167D02*
X0221068Y0021167D01*
X0222035Y0021167D02*
X0222035Y0018265D01*
X0220056Y0021167D02*
X0218121Y0018265D01*
X0217110Y0018265D02*
X0215175Y0018265D01*
X0217110Y0020200D01*
X0217110Y0020684D01*
X0216626Y0021167D01*
X0215658Y0021167D01*
X0215175Y0020684D01*
X0214163Y0021167D02*
X0212228Y0018265D01*
X0211216Y0018265D02*
X0210249Y0019232D01*
X0210733Y0019232D02*
X0209281Y0019232D01*
X0209281Y0018265D02*
X0209281Y0021167D01*
X0210733Y0021167D01*
X0211216Y0020684D01*
X0211216Y0019716D01*
X0210733Y0019232D01*
X0212228Y0021167D02*
X0214163Y0018265D01*
X0206563Y0019032D02*
X0206563Y0020967D01*
X0206563Y0019032D02*
X0205595Y0018065D01*
X0204628Y0019032D01*
X0204628Y0020967D01*
X0203616Y0020967D02*
X0201681Y0020967D01*
X0201681Y0019516D01*
X0202649Y0020000D01*
X0203133Y0020000D01*
X0203616Y0019516D01*
X0203616Y0018549D01*
X0203133Y0018065D01*
X0202165Y0018065D01*
X0201681Y0018549D01*
X0198110Y0018549D02*
X0197626Y0018065D01*
X0196658Y0018065D01*
X0196175Y0018549D01*
X0195163Y0019032D02*
X0195163Y0020967D01*
X0196175Y0020484D02*
X0196658Y0020967D01*
X0197626Y0020967D01*
X0198110Y0020484D01*
X0198110Y0020000D01*
X0197626Y0019516D01*
X0198110Y0019032D01*
X0198110Y0018549D01*
X0197626Y0019516D02*
X0197142Y0019516D01*
X0195163Y0019032D02*
X0194195Y0018065D01*
X0193228Y0019032D01*
X0193228Y0020967D01*
X0192216Y0020484D02*
X0192216Y0020000D01*
X0191733Y0019516D01*
X0192216Y0019032D01*
X0192216Y0018549D01*
X0191733Y0018065D01*
X0190765Y0018065D01*
X0190281Y0018549D01*
X0191249Y0019516D02*
X0191733Y0019516D01*
X0192216Y0020484D02*
X0191733Y0020967D01*
X0190765Y0020967D01*
X0190281Y0020484D01*
X0209679Y0034809D02*
X0210163Y0034325D01*
X0212098Y0034325D01*
X0212581Y0034809D01*
X0212581Y0035777D01*
X0212098Y0036260D01*
X0211130Y0036260D01*
X0211130Y0035293D01*
X0210163Y0036260D02*
X0209679Y0035777D01*
X0209679Y0034809D01*
X0209679Y0037272D02*
X0212581Y0039207D01*
X0209679Y0039207D01*
X0209679Y0040218D02*
X0209679Y0041670D01*
X0210163Y0042153D01*
X0212098Y0042153D01*
X0212581Y0041670D01*
X0212581Y0040218D01*
X0209679Y0040218D01*
X0209679Y0037272D02*
X0212581Y0037272D01*
X0228881Y0020784D02*
X0228881Y0018849D01*
X0229365Y0018365D01*
X0230333Y0018365D01*
X0230816Y0018849D01*
X0230816Y0020784D02*
X0230333Y0021267D01*
X0229365Y0021267D01*
X0228881Y0020784D01*
X0228896Y0020200D02*
X0226961Y0018265D01*
X0228896Y0018265D01*
X0300479Y0032072D02*
X0302898Y0032072D01*
X0303381Y0032556D01*
X0303381Y0033523D01*
X0302898Y0034007D01*
X0300479Y0034007D01*
X0300479Y0035018D02*
X0300479Y0036953D01*
X0300963Y0036953D01*
X0302898Y0035018D01*
X0303381Y0035018D01*
X0317679Y0034711D02*
X0319130Y0034711D01*
X0318647Y0035679D01*
X0318647Y0036163D01*
X0319130Y0036646D01*
X0320098Y0036646D01*
X0320581Y0036163D01*
X0320581Y0035195D01*
X0320098Y0034711D01*
X0320581Y0033700D02*
X0317679Y0033700D01*
X0318647Y0032732D01*
X0317679Y0031765D01*
X0320581Y0031765D01*
X0317679Y0034711D02*
X0317679Y0036646D01*
X0317679Y0039593D02*
X0320581Y0037658D01*
X0320581Y0040605D02*
X0317679Y0040605D01*
X0318647Y0041572D01*
X0317679Y0042539D01*
X0320581Y0042539D01*
X0320098Y0043551D02*
X0320581Y0044035D01*
X0320581Y0045002D01*
X0320098Y0045486D01*
X0319614Y0045486D01*
X0319130Y0045002D01*
X0319130Y0043551D01*
X0320098Y0043551D01*
X0319130Y0043551D02*
X0318163Y0044519D01*
X0317679Y0045486D01*
X0303781Y0054156D02*
X0303781Y0055123D01*
X0303298Y0055607D01*
X0300879Y0055607D01*
X0301363Y0056618D02*
X0301847Y0056618D01*
X0302330Y0057102D01*
X0302330Y0058070D01*
X0302814Y0058553D01*
X0303298Y0058553D01*
X0303781Y0058070D01*
X0303781Y0057102D01*
X0303298Y0056618D01*
X0302814Y0056618D01*
X0302330Y0057102D01*
X0302330Y0058070D02*
X0301847Y0058553D01*
X0301363Y0058553D01*
X0300879Y0058070D01*
X0300879Y0057102D01*
X0301363Y0056618D01*
X0300879Y0053672D02*
X0303298Y0053672D01*
X0303781Y0054156D01*
X0045862Y0050195D02*
X0045862Y0048260D01*
X0045862Y0049227D02*
X0042960Y0049227D01*
X0043927Y0048260D01*
X0043443Y0047248D02*
X0042960Y0046765D01*
X0042960Y0045797D01*
X0043443Y0045313D01*
X0045378Y0045313D01*
X0045862Y0045797D01*
X0045862Y0046765D01*
X0045378Y0047248D01*
X0045463Y0058213D02*
X0043528Y0058213D01*
X0044495Y0058213D02*
X0044495Y0061115D01*
X0043528Y0060148D01*
X0042516Y0060632D02*
X0042516Y0059664D01*
X0042033Y0059180D01*
X0040581Y0059180D01*
X0040581Y0058213D02*
X0040581Y0061115D01*
X0042033Y0061115D01*
X0042516Y0060632D01*
X0041549Y0059180D02*
X0042516Y0058213D01*
X0015171Y0058479D02*
X0015171Y0060414D01*
X0014687Y0061426D02*
X0011785Y0061426D01*
X0012268Y0057468D02*
X0011785Y0056984D01*
X0011785Y0055533D01*
X0014687Y0055533D01*
X0014687Y0056984D01*
X0014203Y0057468D01*
X0012268Y0057468D01*
X0011785Y0054521D02*
X0014687Y0054521D01*
X0011785Y0052586D01*
X0014687Y0052586D01*
X0014203Y0051575D02*
X0013236Y0051575D01*
X0013236Y0050607D01*
X0014203Y0049640D02*
X0014687Y0050123D01*
X0014687Y0051091D01*
X0014203Y0051575D01*
X0012268Y0051575D02*
X0011785Y0051091D01*
X0011785Y0050123D01*
X0012268Y0049640D01*
X0014203Y0049640D01*
X0015171Y0048628D02*
X0015171Y0046693D01*
X0015171Y0045682D02*
X0015171Y0043747D01*
X0014687Y0042765D02*
X0011785Y0042765D01*
X0012268Y0041753D02*
X0012752Y0041753D01*
X0013236Y0041269D01*
X0013720Y0041753D01*
X0014203Y0041753D01*
X0014687Y0041269D01*
X0014687Y0040302D01*
X0014203Y0039818D01*
X0013720Y0038806D02*
X0011785Y0038806D01*
X0012268Y0039818D02*
X0011785Y0040302D01*
X0011785Y0041269D01*
X0012268Y0041753D01*
X0013236Y0041269D02*
X0013236Y0040785D01*
X0013720Y0038806D02*
X0014687Y0037839D01*
X0013720Y0036871D01*
X0011785Y0036871D01*
X0012268Y0035860D02*
X0012752Y0035860D01*
X0013236Y0035376D01*
X0013720Y0035860D01*
X0014203Y0035860D01*
X0014687Y0035376D01*
X0014687Y0034409D01*
X0014203Y0033925D01*
X0013236Y0034892D02*
X0013236Y0035376D01*
X0012268Y0035860D02*
X0011785Y0035376D01*
X0011785Y0034409D01*
X0012268Y0033925D01*
X0015171Y0032913D02*
X0015171Y0030978D01*
X0014687Y0029996D02*
X0011785Y0029996D01*
X0012268Y0028985D02*
X0011785Y0028501D01*
X0011785Y0027050D01*
X0014687Y0027050D01*
X0014687Y0028501D01*
X0014203Y0028985D01*
X0012268Y0028985D01*
X0011785Y0026038D02*
X0014687Y0026038D01*
X0011785Y0024103D01*
X0014687Y0024103D01*
X0014203Y0023092D02*
X0013236Y0023092D01*
X0013236Y0022124D01*
X0014203Y0021157D02*
X0014687Y0021640D01*
X0014687Y0022608D01*
X0014203Y0023092D01*
X0012268Y0023092D02*
X0011785Y0022608D01*
X0011785Y0021640D01*
X0012268Y0021157D01*
X0014203Y0021157D01*
X0014687Y0020175D02*
X0011785Y0020175D01*
X0011785Y0019163D02*
X0013720Y0019163D01*
X0014687Y0018195D01*
X0013720Y0017228D01*
X0011785Y0017228D01*
X0011785Y0016216D02*
X0011785Y0014281D01*
X0013236Y0014281D01*
X0012752Y0015249D01*
X0012752Y0015733D01*
X0013236Y0016216D01*
X0014203Y0016216D01*
X0014687Y0015733D01*
X0014687Y0014765D01*
X0014203Y0014281D01*
X0013535Y0122865D02*
X0015470Y0124800D01*
X0015470Y0125284D01*
X0014986Y0125767D01*
X0014019Y0125767D01*
X0013535Y0125284D01*
X0012523Y0125284D02*
X0012523Y0124316D01*
X0012040Y0123832D01*
X0010588Y0123832D01*
X0010588Y0122865D02*
X0010588Y0125767D01*
X0012040Y0125767D01*
X0012523Y0125284D01*
X0011556Y0123832D02*
X0012523Y0122865D01*
X0013535Y0122865D02*
X0015470Y0122865D01*
X0014386Y0129165D02*
X0013419Y0129165D01*
X0012935Y0129649D01*
X0011923Y0129165D02*
X0010956Y0130132D01*
X0011440Y0130132D02*
X0009988Y0130132D01*
X0009988Y0129165D02*
X0009988Y0132067D01*
X0011440Y0132067D01*
X0011923Y0131584D01*
X0011923Y0130616D01*
X0011440Y0130132D01*
X0012935Y0131584D02*
X0013419Y0132067D01*
X0014386Y0132067D01*
X0014870Y0131584D01*
X0014870Y0131100D01*
X0014386Y0130616D01*
X0014870Y0130132D01*
X0014870Y0129649D01*
X0014386Y0129165D01*
X0014386Y0130616D02*
X0013902Y0130616D01*
D12*
X0127687Y0146583D03*
X0127787Y0146483D03*
X0127887Y0146383D03*
X0127987Y0146283D03*
X0135587Y0141083D03*
X0137987Y0140583D03*
X0147887Y0146083D03*
X0147987Y0146183D03*
X0148087Y0146283D03*
X0148187Y0146383D03*
X0147987Y0156483D03*
X0147887Y0156883D03*
X0147887Y0156983D03*
X0147887Y0157383D03*
X0148187Y0164283D03*
X0148087Y0164383D03*
X0147987Y0164483D03*
X0147887Y0164583D03*
X0128087Y0164483D03*
X0127987Y0164383D03*
X0127887Y0164283D03*
X0127787Y0164183D03*
X0127687Y0164083D03*
D13*
X0131487Y0162983D03*
X0131587Y0163083D03*
X0130987Y0166783D03*
X0137987Y0169983D03*
X0141987Y0165183D03*
X0142187Y0165083D03*
X0143487Y0164083D03*
X0143587Y0163983D03*
X0143687Y0163883D03*
X0132687Y0158983D03*
X0132287Y0159283D03*
X0129087Y0152283D03*
X0129087Y0152183D03*
X0129187Y0151983D03*
X0129187Y0151883D03*
X0129187Y0151783D03*
X0129587Y0150883D03*
X0129587Y0150783D03*
X0137987Y0140683D03*
D14*
X0138037Y0140783D03*
X0137937Y0142883D03*
X0133237Y0146483D03*
X0130837Y0161183D03*
X0138037Y0169883D03*
D15*
X0137987Y0169783D03*
X0137987Y0140883D03*
D16*
X0137987Y0140983D03*
X0133087Y0147483D03*
X0137987Y0169683D03*
D17*
X0137437Y0168983D03*
X0138737Y0168883D03*
X0138737Y0168783D03*
X0139237Y0168783D03*
X0139237Y0168683D03*
X0139237Y0168583D03*
X0128537Y0159383D03*
X0130037Y0156983D03*
X0130737Y0156283D03*
X0130737Y0156183D03*
X0130837Y0153283D03*
X0130837Y0153083D03*
X0134437Y0149783D03*
X0136337Y0149883D03*
X0136837Y0147083D03*
X0138937Y0147083D03*
X0140337Y0146883D03*
X0141937Y0146783D03*
X0142437Y0146983D03*
X0142937Y0146883D03*
X0144237Y0144083D03*
X0144337Y0143983D03*
X0144737Y0144083D03*
X0143037Y0142983D03*
X0140037Y0142183D03*
X0140037Y0142083D03*
X0137637Y0141083D03*
X0136537Y0142483D03*
X0136537Y0142583D03*
X0135737Y0141883D03*
X0135337Y0142183D03*
X0135337Y0142283D03*
X0135437Y0142383D03*
X0135437Y0142483D03*
X0135437Y0142583D03*
X0134737Y0142683D03*
X0134137Y0142183D03*
X0132937Y0142183D03*
X0132937Y0142283D03*
X0132537Y0142883D03*
X0132537Y0143183D03*
X0131137Y0143883D03*
X0130737Y0143783D03*
X0131037Y0144283D03*
X0130137Y0144883D03*
X0129837Y0145183D03*
X0129737Y0145083D03*
X0129237Y0145583D03*
X0137537Y0154383D03*
X0146237Y0150283D03*
X0146937Y0145483D03*
X0147037Y0145183D03*
X0147537Y0145183D03*
X0146937Y0144383D03*
D18*
X0147437Y0144283D03*
X0147737Y0144483D03*
X0148437Y0145283D03*
X0146837Y0143783D03*
X0146737Y0143683D03*
X0146037Y0145583D03*
X0144837Y0144783D03*
X0144637Y0144683D03*
X0144537Y0144583D03*
X0144337Y0144483D03*
X0144137Y0144383D03*
X0144537Y0143783D03*
X0144037Y0142883D03*
X0142237Y0142783D03*
X0139137Y0141983D03*
X0139137Y0141883D03*
X0138337Y0141083D03*
X0136037Y0141583D03*
X0136137Y0142183D03*
X0134937Y0141983D03*
X0134937Y0141883D03*
X0134937Y0141783D03*
X0134837Y0141683D03*
X0134837Y0141583D03*
X0131537Y0143083D03*
X0131537Y0144583D03*
X0131037Y0144883D03*
X0129137Y0143783D03*
X0129037Y0143883D03*
X0128937Y0143983D03*
X0128737Y0144083D03*
X0127837Y0144983D03*
X0138937Y0148183D03*
X0140637Y0168183D03*
X0141837Y0168283D03*
X0138037Y0169483D03*
X0135637Y0168983D03*
D19*
X0131387Y0167683D03*
X0127387Y0163683D03*
X0127287Y0163583D03*
X0127187Y0163483D03*
X0132687Y0158583D03*
X0128187Y0157883D03*
X0127987Y0156883D03*
X0127187Y0147183D03*
X0127287Y0147083D03*
X0127387Y0146983D03*
X0141087Y0143083D03*
X0140587Y0141083D03*
X0148487Y0146783D03*
X0148587Y0146883D03*
X0148687Y0146983D03*
X0148787Y0147083D03*
X0148887Y0147283D03*
X0148087Y0156383D03*
X0147887Y0157683D03*
X0147887Y0157783D03*
X0147887Y0157883D03*
X0147787Y0158283D03*
X0147687Y0158583D03*
X0147687Y0158683D03*
X0147587Y0158983D03*
X0147487Y0159183D03*
X0147487Y0159283D03*
X0148887Y0163383D03*
X0148787Y0163583D03*
X0148687Y0163683D03*
X0148587Y0163783D03*
X0148487Y0163883D03*
D20*
X0149187Y0162983D03*
X0149287Y0162883D03*
X0149387Y0162683D03*
X0149487Y0162583D03*
X0149587Y0162383D03*
X0146887Y0160783D03*
X0147387Y0159783D03*
X0147387Y0159683D03*
X0148187Y0156283D03*
X0149587Y0148283D03*
X0149487Y0148083D03*
X0149387Y0147983D03*
X0149287Y0147783D03*
X0149187Y0147683D03*
X0141287Y0141283D03*
X0134987Y0141183D03*
X0126887Y0147583D03*
X0126787Y0147783D03*
X0126687Y0147883D03*
X0126587Y0147983D03*
X0126587Y0148083D03*
X0126487Y0148183D03*
X0126387Y0148383D03*
X0127987Y0157583D03*
X0126387Y0162283D03*
X0126487Y0162483D03*
X0126587Y0162583D03*
X0126587Y0162683D03*
X0126687Y0162783D03*
X0126787Y0162883D03*
X0140887Y0167583D03*
X0141887Y0169183D03*
D21*
X0140587Y0169083D03*
X0140487Y0168983D03*
X0139887Y0169283D03*
X0139787Y0169083D03*
X0139787Y0168983D03*
X0139787Y0168883D03*
X0139787Y0168783D03*
X0139787Y0168683D03*
X0138887Y0168183D03*
X0138187Y0168583D03*
X0138187Y0168683D03*
X0136987Y0169283D03*
X0136687Y0168483D03*
X0136687Y0168383D03*
X0136687Y0168283D03*
X0134487Y0167883D03*
X0134187Y0168683D03*
X0135287Y0158683D03*
X0135387Y0158583D03*
X0135587Y0158483D03*
X0132187Y0157883D03*
X0129287Y0158183D03*
X0137687Y0152483D03*
X0138887Y0147883D03*
X0138887Y0147783D03*
X0139087Y0147483D03*
X0139187Y0147283D03*
X0139287Y0147183D03*
X0139487Y0146883D03*
X0139587Y0146783D03*
X0144687Y0143983D03*
X0145387Y0144383D03*
X0145887Y0144683D03*
X0145887Y0144783D03*
X0146187Y0144283D03*
X0146687Y0144583D03*
X0146587Y0144983D03*
X0146487Y0145083D03*
X0143387Y0143283D03*
X0141387Y0141883D03*
X0140687Y0141983D03*
X0140587Y0142183D03*
X0140587Y0142283D03*
X0140487Y0142483D03*
X0137787Y0142283D03*
X0137787Y0142183D03*
X0137787Y0142083D03*
X0137687Y0141883D03*
X0137587Y0141683D03*
X0137587Y0141583D03*
X0136987Y0141383D03*
X0136987Y0141283D03*
X0136987Y0141183D03*
X0137087Y0142083D03*
X0137087Y0142183D03*
X0134787Y0142383D03*
X0134087Y0142483D03*
X0133087Y0142683D03*
X0133087Y0143183D03*
X0131087Y0143983D03*
X0131087Y0144083D03*
X0130487Y0144383D03*
X0130187Y0143883D03*
X0129787Y0144283D03*
X0129287Y0145283D03*
X0130687Y0143483D03*
X0130687Y0143383D03*
X0147787Y0152983D03*
X0141287Y0159383D03*
X0141287Y0159483D03*
X0141387Y0159583D03*
X0141187Y0159283D03*
X0140387Y0158683D03*
X0140287Y0158583D03*
X0140087Y0158483D03*
D22*
X0140937Y0158983D03*
X0139137Y0158083D03*
X0136537Y0158083D03*
X0137837Y0152383D03*
X0138937Y0149383D03*
X0138937Y0146283D03*
X0136837Y0146283D03*
X0136737Y0146183D03*
X0137737Y0142483D03*
X0138337Y0141183D03*
X0140137Y0141383D03*
X0142337Y0141883D03*
X0142337Y0141983D03*
X0142337Y0142083D03*
X0142337Y0142183D03*
X0142337Y0142283D03*
X0142337Y0142383D03*
X0142337Y0142483D03*
X0143337Y0142283D03*
X0145737Y0143683D03*
X0146137Y0145783D03*
X0146237Y0145883D03*
X0148437Y0145183D03*
X0142537Y0146783D03*
X0134037Y0142683D03*
X0133237Y0142383D03*
X0132237Y0142583D03*
X0130137Y0143983D03*
X0130437Y0144583D03*
X0129837Y0145783D03*
X0129737Y0145883D03*
X0129637Y0145983D03*
X0141837Y0161783D03*
X0140537Y0168283D03*
X0138037Y0169283D03*
X0137537Y0168183D03*
X0136737Y0168783D03*
X0136737Y0168883D03*
X0136737Y0168983D03*
X0134137Y0168783D03*
X0133537Y0168283D03*
X0133537Y0168183D03*
X0133637Y0167883D03*
X0133637Y0167783D03*
D23*
X0133637Y0167683D03*
X0133537Y0168383D03*
X0134537Y0167783D03*
X0135937Y0167983D03*
X0135937Y0168083D03*
X0137037Y0169383D03*
X0138137Y0168883D03*
X0138137Y0168783D03*
X0138837Y0168083D03*
X0139137Y0169383D03*
X0140437Y0168483D03*
X0140937Y0167983D03*
X0141137Y0168783D03*
X0141737Y0160583D03*
X0141137Y0159183D03*
X0141037Y0159083D03*
X0139937Y0158383D03*
X0139737Y0158283D03*
X0137837Y0157783D03*
X0135937Y0158283D03*
X0135737Y0158383D03*
X0129337Y0158083D03*
X0137537Y0152783D03*
X0137637Y0152683D03*
X0137637Y0152583D03*
X0137837Y0152183D03*
X0137837Y0152083D03*
X0139037Y0149483D03*
X0140237Y0146783D03*
X0139037Y0145783D03*
X0137837Y0145783D03*
X0136737Y0145783D03*
X0136037Y0142383D03*
X0136237Y0141483D03*
X0137637Y0141783D03*
X0139237Y0141283D03*
X0139237Y0141183D03*
X0140137Y0141583D03*
X0140537Y0142383D03*
X0140437Y0142583D03*
X0141237Y0142583D03*
X0141437Y0141983D03*
X0143237Y0143483D03*
X0143337Y0143383D03*
X0143537Y0143183D03*
X0145037Y0143283D03*
X0145137Y0143183D03*
X0146337Y0144183D03*
X0146637Y0144683D03*
X0146437Y0145183D03*
X0134837Y0142483D03*
X0134037Y0142583D03*
X0133737Y0142883D03*
X0133137Y0142583D03*
X0133437Y0142183D03*
X0133137Y0143283D03*
X0129237Y0145383D03*
D24*
X0125737Y0149583D03*
X0125637Y0149783D03*
X0125537Y0149983D03*
X0125537Y0150083D03*
X0125437Y0150183D03*
X0125437Y0150283D03*
X0125337Y0150483D03*
X0125337Y0150583D03*
X0125237Y0150783D03*
X0125137Y0151083D03*
X0125037Y0151383D03*
X0125037Y0159283D03*
X0125137Y0159583D03*
X0125237Y0159883D03*
X0125337Y0160083D03*
X0125337Y0160183D03*
X0125437Y0160383D03*
X0125437Y0160483D03*
X0125537Y0160583D03*
X0125537Y0160683D03*
X0125637Y0160883D03*
X0125737Y0161083D03*
X0134537Y0169383D03*
X0137837Y0167983D03*
X0141737Y0169283D03*
X0142937Y0168783D03*
X0144237Y0168083D03*
X0139337Y0161483D03*
X0147237Y0160383D03*
X0150337Y0160983D03*
X0150437Y0160783D03*
X0150537Y0160583D03*
X0150537Y0160483D03*
X0150637Y0160383D03*
X0150637Y0160283D03*
X0150637Y0160183D03*
X0150737Y0160083D03*
X0150737Y0159983D03*
X0150837Y0159783D03*
X0150837Y0159683D03*
X0150937Y0159483D03*
X0150937Y0151183D03*
X0150837Y0150883D03*
X0150737Y0150683D03*
X0150737Y0150583D03*
X0150637Y0150383D03*
X0150637Y0150283D03*
X0150537Y0150183D03*
X0150537Y0150083D03*
X0150437Y0149883D03*
X0150337Y0149683D03*
X0148137Y0145883D03*
X0145137Y0147183D03*
X0145037Y0147083D03*
X0141137Y0141183D03*
X0138437Y0142583D03*
D25*
X0134337Y0141283D03*
X0127837Y0145783D03*
X0127737Y0158083D03*
X0127837Y0158483D03*
X0131737Y0168183D03*
X0133537Y0169083D03*
X0142737Y0168983D03*
X0144137Y0168283D03*
X0148537Y0154183D03*
X0148537Y0154083D03*
X0148537Y0153983D03*
X0147937Y0151583D03*
X0147937Y0151483D03*
X0147937Y0151383D03*
X0147237Y0149883D03*
X0147237Y0149783D03*
X0146937Y0149383D03*
X0146137Y0148083D03*
X0146037Y0147983D03*
D26*
X0147087Y0145283D03*
X0145987Y0144883D03*
X0145887Y0144583D03*
X0145387Y0144483D03*
X0143887Y0142583D03*
X0143987Y0142483D03*
X0143087Y0142783D03*
X0143087Y0142883D03*
X0141287Y0142683D03*
X0140787Y0141683D03*
X0140887Y0141583D03*
X0140887Y0141483D03*
X0140087Y0141983D03*
X0138287Y0141983D03*
X0138287Y0141883D03*
X0138287Y0141783D03*
X0137587Y0141483D03*
X0137587Y0141383D03*
X0137587Y0141283D03*
X0136887Y0141683D03*
X0136387Y0141883D03*
X0136387Y0141983D03*
X0136487Y0142383D03*
X0136387Y0141383D03*
X0136387Y0141283D03*
X0135287Y0142083D03*
X0134887Y0142283D03*
X0135387Y0142683D03*
X0134287Y0142883D03*
X0134287Y0142983D03*
X0134087Y0142083D03*
X0134087Y0141983D03*
X0132887Y0142083D03*
X0132487Y0143083D03*
X0131087Y0144183D03*
X0129787Y0144383D03*
X0129587Y0144883D03*
X0129687Y0144983D03*
X0129887Y0145283D03*
X0129287Y0145183D03*
X0128787Y0145083D03*
X0135887Y0149883D03*
X0137887Y0149883D03*
X0137887Y0149783D03*
X0137887Y0149683D03*
X0137887Y0149983D03*
X0137887Y0150083D03*
X0137887Y0150183D03*
X0137887Y0150283D03*
X0137887Y0150383D03*
X0137887Y0150483D03*
X0137887Y0150583D03*
X0137887Y0150683D03*
X0137887Y0150783D03*
X0137887Y0150883D03*
X0137887Y0150983D03*
X0137887Y0151083D03*
X0137887Y0151183D03*
X0137887Y0151283D03*
X0137887Y0151383D03*
X0137787Y0151483D03*
X0137787Y0151583D03*
X0137787Y0151683D03*
X0137787Y0151783D03*
X0138087Y0152483D03*
X0138187Y0152583D03*
X0138187Y0152683D03*
X0138287Y0152783D03*
X0138287Y0152883D03*
X0138387Y0153083D03*
X0138487Y0153283D03*
X0138587Y0153483D03*
X0138687Y0153683D03*
X0138687Y0153783D03*
X0138787Y0153883D03*
X0138787Y0153983D03*
X0138887Y0154083D03*
X0138887Y0154183D03*
X0138987Y0154283D03*
X0138987Y0154383D03*
X0139087Y0154583D03*
X0139187Y0154783D03*
X0139287Y0154983D03*
X0139387Y0155183D03*
X0139387Y0155283D03*
X0139487Y0155383D03*
X0139487Y0155483D03*
X0139587Y0155583D03*
X0139587Y0155683D03*
X0139687Y0155783D03*
X0139687Y0155883D03*
X0139787Y0156083D03*
X0139887Y0156283D03*
X0139987Y0156483D03*
X0140087Y0156683D03*
X0140087Y0156783D03*
X0140187Y0156883D03*
X0140187Y0156983D03*
X0140287Y0157083D03*
X0140287Y0157183D03*
X0140387Y0157283D03*
X0140387Y0157383D03*
X0140487Y0157583D03*
X0140587Y0157783D03*
X0140687Y0157983D03*
X0140787Y0158183D03*
X0140787Y0158283D03*
X0140887Y0158383D03*
X0140887Y0158483D03*
X0140987Y0158583D03*
X0140987Y0158683D03*
X0141087Y0158783D03*
X0141087Y0158883D03*
X0141487Y0159783D03*
X0141587Y0159983D03*
X0141687Y0160183D03*
X0141787Y0160283D03*
X0141887Y0160683D03*
X0141887Y0160783D03*
X0141987Y0160883D03*
X0141987Y0160983D03*
X0141987Y0161083D03*
X0141987Y0161183D03*
X0141987Y0161283D03*
X0142087Y0161383D03*
X0142087Y0161483D03*
X0142087Y0161583D03*
X0142087Y0161883D03*
X0142087Y0161983D03*
X0142087Y0162083D03*
X0142087Y0162183D03*
X0142487Y0161983D03*
X0143087Y0161283D03*
X0145087Y0160783D03*
X0140287Y0167983D03*
X0139187Y0168883D03*
X0139187Y0168983D03*
X0138787Y0168683D03*
X0138787Y0168583D03*
X0138787Y0168483D03*
X0138287Y0168183D03*
X0138287Y0168083D03*
X0137487Y0168783D03*
X0137487Y0168883D03*
X0135987Y0169083D03*
X0135487Y0169183D03*
X0134387Y0168183D03*
X0136887Y0159983D03*
X0136887Y0159883D03*
X0136887Y0159783D03*
X0136887Y0159683D03*
X0136887Y0159583D03*
X0136987Y0159483D03*
X0136987Y0159383D03*
X0136987Y0159283D03*
X0136987Y0159183D03*
X0136987Y0159083D03*
X0136987Y0158983D03*
X0136987Y0158883D03*
X0136987Y0158783D03*
X0137087Y0158683D03*
X0137087Y0158583D03*
X0137087Y0158483D03*
X0137087Y0158383D03*
X0137087Y0158283D03*
X0137087Y0158183D03*
X0137087Y0158083D03*
X0137187Y0157683D03*
X0137187Y0157583D03*
X0137187Y0157483D03*
X0137187Y0157383D03*
X0137187Y0157283D03*
X0137187Y0157183D03*
X0137187Y0157083D03*
X0137187Y0156983D03*
X0137287Y0156883D03*
X0137287Y0156783D03*
X0137287Y0156683D03*
X0137287Y0156583D03*
X0137287Y0156483D03*
X0137287Y0156383D03*
X0137287Y0156283D03*
X0137287Y0156183D03*
X0137387Y0156083D03*
X0137387Y0155983D03*
X0137387Y0155883D03*
X0137387Y0155783D03*
X0137387Y0155683D03*
X0137387Y0155583D03*
X0137387Y0155483D03*
X0137387Y0155383D03*
X0137387Y0155283D03*
X0137487Y0155183D03*
X0137487Y0155083D03*
X0137487Y0154983D03*
X0137487Y0154883D03*
X0137487Y0154783D03*
X0137487Y0154683D03*
X0137487Y0154583D03*
X0137487Y0154483D03*
X0137587Y0154283D03*
X0137587Y0154183D03*
X0137587Y0154083D03*
X0137587Y0153983D03*
X0137587Y0153883D03*
X0137587Y0153783D03*
X0137587Y0153683D03*
X0137587Y0153583D03*
X0137687Y0153483D03*
X0137687Y0153383D03*
X0137687Y0153283D03*
X0137687Y0153183D03*
X0137687Y0153083D03*
X0137687Y0152983D03*
X0137687Y0152883D03*
X0137387Y0152883D03*
X0137287Y0152983D03*
X0137287Y0153083D03*
X0137187Y0153283D03*
X0137087Y0153483D03*
X0136987Y0153683D03*
X0136987Y0153783D03*
X0136887Y0153883D03*
X0136887Y0153983D03*
X0136787Y0154083D03*
X0136787Y0154183D03*
X0136687Y0154283D03*
X0136687Y0154383D03*
X0136587Y0154583D03*
X0136487Y0154783D03*
X0136387Y0154983D03*
X0136387Y0155083D03*
X0136287Y0155183D03*
X0136287Y0155283D03*
X0136187Y0155383D03*
X0136187Y0155483D03*
X0136087Y0155583D03*
X0136087Y0155683D03*
X0135987Y0155783D03*
X0135987Y0155883D03*
X0135887Y0156083D03*
X0135787Y0156283D03*
X0135687Y0156483D03*
X0135687Y0156583D03*
X0135587Y0156683D03*
X0135587Y0156783D03*
X0135487Y0156883D03*
X0135487Y0156983D03*
X0135387Y0157183D03*
X0135287Y0157383D03*
X0135187Y0157583D03*
X0135087Y0157783D03*
X0135087Y0157883D03*
X0134987Y0157983D03*
X0134987Y0158083D03*
X0134887Y0158183D03*
X0134887Y0158283D03*
X0134787Y0158383D03*
X0134787Y0158483D03*
X0134687Y0158683D03*
X0130687Y0156083D03*
X0130087Y0156883D03*
X0128487Y0159283D03*
X0139087Y0149683D03*
X0142387Y0146883D03*
X0147787Y0153083D03*
X0147787Y0153183D03*
D27*
X0139487Y0158183D03*
X0136187Y0158183D03*
X0137787Y0152283D03*
X0132387Y0150483D03*
X0136787Y0145883D03*
X0137887Y0145883D03*
X0138987Y0145883D03*
X0138887Y0147983D03*
X0144687Y0143883D03*
X0144987Y0143383D03*
X0145587Y0143883D03*
X0145587Y0143983D03*
X0145487Y0144083D03*
X0145387Y0144183D03*
X0145387Y0144283D03*
X0145687Y0143783D03*
X0143887Y0142783D03*
X0143287Y0142383D03*
X0141387Y0142383D03*
X0141387Y0142283D03*
X0141387Y0142183D03*
X0141387Y0142083D03*
X0141287Y0142483D03*
X0140387Y0142683D03*
X0140187Y0141483D03*
X0139187Y0141483D03*
X0139187Y0141383D03*
X0138287Y0141383D03*
X0138287Y0141283D03*
X0137787Y0142383D03*
X0133387Y0142283D03*
X0133187Y0142483D03*
X0130487Y0144483D03*
X0130187Y0144683D03*
X0129887Y0144183D03*
X0128887Y0144883D03*
X0135187Y0168083D03*
X0136687Y0168583D03*
X0136687Y0168683D03*
X0136887Y0169183D03*
X0136987Y0169483D03*
X0138087Y0169183D03*
X0138087Y0169083D03*
X0138087Y0168983D03*
X0137487Y0168383D03*
X0137487Y0168283D03*
X0140487Y0168383D03*
D28*
X0135387Y0167583D03*
X0133387Y0168983D03*
X0127887Y0158383D03*
X0127787Y0145883D03*
X0134087Y0141383D03*
X0135387Y0143083D03*
X0137887Y0146483D03*
X0137887Y0146583D03*
X0137887Y0146683D03*
X0137887Y0146783D03*
X0137887Y0146883D03*
X0137887Y0146983D03*
X0146387Y0148483D03*
X0147287Y0149983D03*
X0147287Y0150083D03*
X0148187Y0145783D03*
D29*
X0145987Y0147883D03*
X0145887Y0147783D03*
X0146387Y0148383D03*
X0146687Y0148883D03*
X0146987Y0149283D03*
X0147187Y0149583D03*
X0147187Y0149683D03*
X0147487Y0150283D03*
X0147587Y0150383D03*
X0148087Y0151683D03*
X0148187Y0151983D03*
X0148587Y0153883D03*
X0148587Y0154283D03*
X0148587Y0154383D03*
X0148587Y0154483D03*
X0148587Y0154583D03*
X0148587Y0154683D03*
X0148587Y0155383D03*
X0148587Y0155483D03*
X0148587Y0155583D03*
X0148587Y0155683D03*
X0148587Y0155783D03*
X0141187Y0167483D03*
X0142487Y0169083D03*
X0127787Y0158183D03*
X0141987Y0141383D03*
X0142987Y0141783D03*
D30*
X0141387Y0143183D03*
X0133987Y0141483D03*
X0127787Y0145983D03*
X0125387Y0150383D03*
X0125287Y0150683D03*
X0125187Y0150883D03*
X0125187Y0150983D03*
X0125087Y0151183D03*
X0125087Y0151283D03*
X0124987Y0151483D03*
X0124987Y0151583D03*
X0124987Y0151683D03*
X0124887Y0151783D03*
X0124887Y0151883D03*
X0124887Y0151983D03*
X0124787Y0152183D03*
X0124787Y0152283D03*
X0124787Y0152383D03*
X0124687Y0152683D03*
X0124687Y0152783D03*
X0124687Y0152883D03*
X0124587Y0153283D03*
X0124587Y0153383D03*
X0124487Y0154283D03*
X0124487Y0156383D03*
X0124587Y0157283D03*
X0124587Y0157383D03*
X0124687Y0157783D03*
X0124687Y0157883D03*
X0124687Y0157983D03*
X0124787Y0158283D03*
X0124787Y0158383D03*
X0124787Y0158483D03*
X0124887Y0158683D03*
X0124887Y0158783D03*
X0124887Y0158883D03*
X0124987Y0158983D03*
X0124987Y0159083D03*
X0124987Y0159183D03*
X0125087Y0159383D03*
X0125087Y0159483D03*
X0125187Y0159683D03*
X0125187Y0159783D03*
X0125287Y0159983D03*
X0125387Y0160283D03*
X0127987Y0158283D03*
X0131587Y0167983D03*
X0134287Y0169283D03*
X0144187Y0168183D03*
X0150787Y0159883D03*
X0150887Y0159583D03*
X0150987Y0159383D03*
X0150987Y0159283D03*
X0150987Y0159183D03*
X0151087Y0159083D03*
X0151087Y0158983D03*
X0151087Y0158883D03*
X0151087Y0158783D03*
X0151187Y0158683D03*
X0151187Y0158583D03*
X0151187Y0158483D03*
X0151287Y0158283D03*
X0151287Y0158183D03*
X0151287Y0158083D03*
X0151387Y0157683D03*
X0151387Y0157583D03*
X0151487Y0156983D03*
X0151487Y0156883D03*
X0151487Y0153783D03*
X0151487Y0153683D03*
X0151387Y0153083D03*
X0151387Y0152983D03*
X0151287Y0152583D03*
X0151287Y0152483D03*
X0151287Y0152383D03*
X0151187Y0152183D03*
X0151187Y0152083D03*
X0151187Y0151983D03*
X0151087Y0151883D03*
X0151087Y0151783D03*
X0151087Y0151683D03*
X0151087Y0151583D03*
X0150987Y0151483D03*
X0150987Y0151383D03*
X0150987Y0151283D03*
X0150887Y0151083D03*
X0150887Y0150983D03*
X0150787Y0150783D03*
X0150687Y0150483D03*
X0146387Y0148683D03*
D31*
X0147037Y0145383D03*
X0147537Y0145083D03*
X0146837Y0144483D03*
X0146637Y0144783D03*
X0146637Y0144883D03*
X0143837Y0142683D03*
X0143337Y0142483D03*
X0141337Y0141783D03*
X0140737Y0141783D03*
X0140737Y0141883D03*
X0140637Y0142083D03*
X0137737Y0141983D03*
X0137037Y0142283D03*
X0136937Y0141583D03*
X0136937Y0141483D03*
X0136337Y0142083D03*
X0134837Y0142583D03*
X0134137Y0142383D03*
X0134137Y0142283D03*
X0134037Y0141883D03*
X0133937Y0141783D03*
X0133537Y0142083D03*
X0133037Y0142783D03*
X0133037Y0142883D03*
X0133037Y0142983D03*
X0133037Y0143083D03*
X0132437Y0142983D03*
X0132137Y0142683D03*
X0133737Y0142983D03*
X0130737Y0143583D03*
X0130737Y0143683D03*
X0130437Y0144183D03*
X0130537Y0144283D03*
X0130137Y0143783D03*
X0130137Y0143683D03*
X0130137Y0144783D03*
X0129237Y0145483D03*
X0128837Y0144983D03*
X0138937Y0147683D03*
X0139037Y0147583D03*
X0139137Y0147383D03*
X0139337Y0147083D03*
X0139437Y0146983D03*
X0139037Y0149583D03*
X0137837Y0151883D03*
X0137837Y0151983D03*
X0138337Y0152983D03*
X0138437Y0153183D03*
X0138537Y0153383D03*
X0138637Y0153583D03*
X0139037Y0154483D03*
X0139137Y0154683D03*
X0139237Y0154883D03*
X0139337Y0155083D03*
X0139737Y0155983D03*
X0139837Y0156183D03*
X0139937Y0156383D03*
X0140037Y0156583D03*
X0140437Y0157483D03*
X0140537Y0157683D03*
X0140637Y0157883D03*
X0140737Y0158083D03*
X0140537Y0158783D03*
X0140637Y0158883D03*
X0141437Y0159683D03*
X0141537Y0159883D03*
X0141637Y0160083D03*
X0141737Y0160383D03*
X0143137Y0161383D03*
X0137137Y0157783D03*
X0135437Y0157083D03*
X0135337Y0157283D03*
X0135237Y0157483D03*
X0135137Y0157683D03*
X0134737Y0158583D03*
X0135137Y0158783D03*
X0135737Y0156383D03*
X0135837Y0156183D03*
X0135937Y0155983D03*
X0136437Y0154883D03*
X0136537Y0154683D03*
X0136637Y0154483D03*
X0137037Y0153583D03*
X0137137Y0153383D03*
X0137237Y0153183D03*
X0130137Y0156783D03*
X0133637Y0167583D03*
X0134437Y0167983D03*
X0134437Y0168083D03*
X0134337Y0168283D03*
X0134337Y0168383D03*
X0134237Y0168483D03*
X0134237Y0168583D03*
X0133537Y0168483D03*
X0135537Y0169083D03*
X0136637Y0168183D03*
X0136637Y0168083D03*
X0138237Y0168283D03*
X0138237Y0168383D03*
X0138237Y0168483D03*
X0138837Y0168383D03*
X0138837Y0168283D03*
X0139637Y0167983D03*
X0139737Y0168083D03*
X0139737Y0168183D03*
X0139737Y0168283D03*
X0139737Y0168383D03*
X0139737Y0168483D03*
X0139737Y0168583D03*
X0139837Y0169183D03*
X0140437Y0168883D03*
X0140437Y0168783D03*
X0140437Y0168683D03*
X0140437Y0168583D03*
X0140237Y0167883D03*
X0139137Y0169083D03*
X0139137Y0169183D03*
X0139137Y0169283D03*
D32*
X0143937Y0168483D03*
X0132037Y0168483D03*
X0127737Y0158883D03*
X0145837Y0147583D03*
X0147837Y0150583D03*
X0147937Y0150883D03*
X0147937Y0150983D03*
X0148537Y0152783D03*
X0148537Y0152883D03*
X0148637Y0153783D03*
X0143937Y0142183D03*
X0142637Y0141583D03*
X0142437Y0141483D03*
X0133137Y0141683D03*
X0130837Y0142883D03*
D33*
X0131687Y0142383D03*
X0132487Y0143883D03*
X0133287Y0141583D03*
X0134987Y0143183D03*
X0128587Y0144683D03*
X0127787Y0145483D03*
X0127787Y0158983D03*
X0134987Y0167483D03*
X0132187Y0168583D03*
X0140587Y0161583D03*
X0139887Y0160283D03*
X0148687Y0153483D03*
X0148687Y0153383D03*
X0148687Y0153283D03*
X0148487Y0152683D03*
X0148487Y0152583D03*
X0148487Y0152483D03*
X0148487Y0152383D03*
X0147887Y0150783D03*
X0147887Y0150683D03*
X0148287Y0145583D03*
X0143787Y0168583D03*
D34*
X0138087Y0169383D03*
X0136787Y0169083D03*
X0137487Y0168083D03*
X0133587Y0168083D03*
X0133587Y0167983D03*
X0132287Y0157983D03*
X0138887Y0148083D03*
X0138987Y0146183D03*
X0138987Y0146083D03*
X0138987Y0145983D03*
X0137887Y0145983D03*
X0137887Y0146083D03*
X0137887Y0146183D03*
X0137887Y0146283D03*
X0136787Y0146083D03*
X0136787Y0145983D03*
X0136187Y0142283D03*
X0136087Y0141783D03*
X0136087Y0141683D03*
X0133987Y0142783D03*
X0131487Y0142983D03*
X0130087Y0144083D03*
X0130887Y0144983D03*
X0130787Y0145083D03*
X0130587Y0145183D03*
X0130487Y0145283D03*
X0130187Y0145483D03*
X0130087Y0145583D03*
X0129987Y0145683D03*
X0131187Y0144783D03*
X0127987Y0144783D03*
X0127887Y0144883D03*
X0139187Y0141783D03*
X0139187Y0141683D03*
X0139187Y0141583D03*
X0142287Y0142583D03*
X0142287Y0142683D03*
X0144987Y0144883D03*
X0145087Y0144983D03*
X0145287Y0145083D03*
X0145387Y0145183D03*
X0146087Y0145683D03*
X0147387Y0144183D03*
X0147587Y0144383D03*
X0148387Y0145083D03*
D35*
X0145887Y0147683D03*
X0147187Y0149483D03*
X0148287Y0152183D03*
X0148687Y0154883D03*
X0148687Y0154983D03*
X0148687Y0155083D03*
X0140487Y0146583D03*
X0142887Y0141683D03*
X0131587Y0142483D03*
X0127787Y0145583D03*
X0127787Y0158683D03*
X0127787Y0158783D03*
X0131887Y0168383D03*
D36*
X0141437Y0161683D03*
X0140737Y0160383D03*
X0138737Y0148983D03*
X0138737Y0148883D03*
X0145937Y0145283D03*
X0146937Y0144083D03*
X0145637Y0143083D03*
X0143737Y0141983D03*
X0143537Y0141883D03*
X0148337Y0145483D03*
X0132737Y0141783D03*
X0132437Y0141883D03*
X0131837Y0142183D03*
X0128637Y0144483D03*
D37*
X0127787Y0145383D03*
X0130887Y0142783D03*
X0132287Y0141983D03*
X0132387Y0143983D03*
X0134587Y0143283D03*
X0136487Y0149783D03*
X0141887Y0143383D03*
X0146287Y0143583D03*
X0141887Y0168583D03*
D38*
X0135487Y0168383D03*
X0135487Y0168283D03*
X0134687Y0167383D03*
X0132487Y0158083D03*
X0138787Y0148783D03*
X0138787Y0148683D03*
X0142087Y0143483D03*
X0142787Y0143683D03*
X0145587Y0142983D03*
X0146287Y0143483D03*
X0147887Y0144883D03*
X0147987Y0144983D03*
X0148787Y0152983D03*
X0148787Y0153183D03*
X0133587Y0143583D03*
X0132287Y0144083D03*
X0131987Y0142083D03*
X0130087Y0143283D03*
X0127787Y0145283D03*
D39*
X0128637Y0144283D03*
X0129037Y0144783D03*
X0129637Y0143483D03*
X0130337Y0142983D03*
X0131737Y0143383D03*
X0132037Y0143683D03*
X0132037Y0144283D03*
X0131237Y0144683D03*
X0139137Y0142283D03*
X0139137Y0142183D03*
X0139137Y0142083D03*
X0143137Y0143883D03*
X0144037Y0142983D03*
X0145037Y0142583D03*
X0145237Y0142683D03*
X0138837Y0148383D03*
X0138837Y0148483D03*
X0127637Y0159583D03*
X0127837Y0160083D03*
X0127837Y0160183D03*
X0127937Y0160383D03*
X0141837Y0167683D03*
X0141937Y0167783D03*
X0142037Y0168083D03*
X0142037Y0168183D03*
D40*
X0141437Y0167383D03*
X0137237Y0161283D03*
X0132537Y0158183D03*
X0127737Y0159083D03*
X0127737Y0159183D03*
X0132337Y0168683D03*
X0132537Y0168783D03*
X0148737Y0153683D03*
X0148737Y0153583D03*
X0148437Y0152283D03*
X0142637Y0143583D03*
X0143837Y0142083D03*
X0133737Y0143483D03*
X0131737Y0142283D03*
X0128637Y0144583D03*
D41*
X0128637Y0144383D03*
X0130137Y0143183D03*
X0130937Y0142683D03*
X0133337Y0143683D03*
X0139137Y0142483D03*
X0144437Y0142283D03*
X0144637Y0142383D03*
X0144837Y0142483D03*
X0144537Y0143483D03*
X0144437Y0143583D03*
X0145937Y0145383D03*
X0146937Y0143983D03*
X0147837Y0144783D03*
X0148837Y0153083D03*
X0135037Y0160283D03*
X0127837Y0159883D03*
X0127837Y0159783D03*
X0127637Y0159383D03*
X0127637Y0159283D03*
X0135537Y0168183D03*
X0135437Y0168483D03*
X0135437Y0168583D03*
X0135437Y0168683D03*
X0135437Y0168783D03*
D42*
X0135487Y0168883D03*
X0134387Y0167283D03*
X0134487Y0161583D03*
X0127887Y0159983D03*
X0127687Y0159683D03*
X0127687Y0159483D03*
X0141387Y0160483D03*
X0141687Y0167283D03*
X0141787Y0168483D03*
X0138787Y0148583D03*
X0139987Y0146683D03*
X0142987Y0143783D03*
X0143987Y0143083D03*
X0144487Y0143683D03*
X0145387Y0142783D03*
X0145487Y0142883D03*
X0146187Y0143383D03*
X0146887Y0143883D03*
X0147787Y0144683D03*
X0148387Y0145383D03*
X0145987Y0145483D03*
X0139087Y0142383D03*
X0132187Y0144183D03*
X0131887Y0143583D03*
X0131787Y0143483D03*
X0130987Y0142583D03*
X0130187Y0143083D03*
X0129587Y0143583D03*
X0127787Y0145183D03*
D43*
X0138037Y0142683D03*
X0128337Y0153283D03*
X0128237Y0153483D03*
X0128637Y0165083D03*
X0128737Y0165183D03*
X0144537Y0167583D03*
X0147037Y0165383D03*
X0147137Y0165283D03*
X0147237Y0165183D03*
X0146437Y0161083D03*
X0147837Y0156583D03*
D44*
X0144637Y0162383D03*
X0131837Y0167183D03*
X0130137Y0150283D03*
X0130237Y0150183D03*
X0137937Y0142783D03*
X0142537Y0146083D03*
D45*
X0143587Y0144083D03*
X0143387Y0143983D03*
X0143787Y0144183D03*
X0143987Y0144283D03*
X0142187Y0142883D03*
X0145987Y0143183D03*
X0146187Y0143283D03*
X0147787Y0144583D03*
X0138887Y0148283D03*
X0131887Y0144383D03*
X0131687Y0144483D03*
X0131687Y0143283D03*
X0131587Y0143183D03*
X0129687Y0143383D03*
X0129287Y0143683D03*
X0128687Y0144183D03*
X0127787Y0145083D03*
X0130287Y0145383D03*
X0136987Y0157983D03*
X0138687Y0157983D03*
X0141887Y0167183D03*
X0141987Y0167883D03*
X0141987Y0167983D03*
X0141787Y0168383D03*
X0140687Y0168083D03*
X0127887Y0160283D03*
D46*
X0137987Y0166383D03*
X0137987Y0144283D03*
X0138687Y0142983D03*
D47*
X0141637Y0143283D03*
X0146237Y0148183D03*
X0146337Y0148283D03*
X0146837Y0148983D03*
X0146937Y0149083D03*
X0146937Y0149183D03*
X0147637Y0150483D03*
X0147937Y0151083D03*
X0147937Y0151183D03*
X0147937Y0151283D03*
X0148137Y0151783D03*
X0148137Y0151883D03*
X0148237Y0152083D03*
X0148637Y0154783D03*
X0148637Y0155183D03*
X0148637Y0155283D03*
X0148637Y0155883D03*
X0148637Y0155983D03*
X0137837Y0157883D03*
X0135437Y0161483D03*
X0131837Y0168283D03*
X0133737Y0169183D03*
X0144037Y0168383D03*
X0127837Y0158583D03*
X0127837Y0145683D03*
X0132637Y0143783D03*
X0133937Y0143383D03*
X0148237Y0145683D03*
D48*
X0149537Y0148183D03*
X0149637Y0148383D03*
X0149737Y0148483D03*
X0149737Y0148583D03*
X0149837Y0148683D03*
X0149937Y0148883D03*
X0150037Y0149083D03*
X0144837Y0146983D03*
X0144737Y0146883D03*
X0144637Y0146783D03*
X0138037Y0143683D03*
X0126437Y0148283D03*
X0126337Y0148483D03*
X0126237Y0148583D03*
X0126237Y0148683D03*
X0126137Y0148783D03*
X0126037Y0148983D03*
X0125937Y0149183D03*
X0127937Y0157283D03*
X0127937Y0157383D03*
X0127937Y0157483D03*
X0125937Y0161483D03*
X0126037Y0161683D03*
X0126137Y0161883D03*
X0126237Y0161983D03*
X0126237Y0162083D03*
X0126337Y0162183D03*
X0126437Y0162383D03*
X0132837Y0158483D03*
X0138037Y0166983D03*
X0144337Y0167983D03*
X0149537Y0162483D03*
X0149637Y0162283D03*
X0149737Y0162183D03*
X0149737Y0162083D03*
X0149837Y0161983D03*
X0149937Y0161783D03*
X0150037Y0161583D03*
X0147337Y0160083D03*
X0147337Y0159983D03*
X0147337Y0159883D03*
X0147037Y0160683D03*
X0148237Y0156183D03*
D49*
X0146287Y0165983D03*
X0146187Y0166083D03*
X0145987Y0166183D03*
X0144687Y0167283D03*
X0137987Y0166883D03*
X0137787Y0167883D03*
X0131287Y0167283D03*
X0129887Y0166083D03*
X0132687Y0158783D03*
X0128387Y0156283D03*
X0128387Y0156183D03*
X0128387Y0156083D03*
X0128387Y0155183D03*
X0128587Y0153083D03*
X0133587Y0145583D03*
X0137987Y0143783D03*
X0143887Y0146683D03*
D50*
X0142487Y0145983D03*
X0137987Y0143883D03*
X0133387Y0146083D03*
X0131987Y0159483D03*
X0131887Y0159583D03*
X0131787Y0159683D03*
X0131687Y0159783D03*
X0131587Y0159983D03*
X0131087Y0162183D03*
X0131187Y0162283D03*
X0131187Y0162383D03*
X0131387Y0166983D03*
X0137987Y0166783D03*
X0141287Y0165483D03*
X0144387Y0162883D03*
X0144987Y0162083D03*
X0137487Y0160183D03*
D51*
X0130787Y0161083D03*
X0137987Y0166683D03*
X0130587Y0149983D03*
X0137987Y0143983D03*
X0142587Y0146383D03*
D52*
X0138037Y0144083D03*
X0133137Y0146983D03*
X0138037Y0166583D03*
D53*
X0137987Y0166483D03*
X0133087Y0147383D03*
X0137987Y0144183D03*
D54*
X0138037Y0144383D03*
X0138037Y0166283D03*
D55*
X0137987Y0166183D03*
X0132987Y0148483D03*
X0137987Y0144483D03*
D56*
X0138037Y0144583D03*
X0138037Y0166083D03*
D57*
X0138037Y0165983D03*
X0138037Y0144683D03*
D58*
X0138037Y0144783D03*
X0138037Y0165883D03*
D59*
X0138037Y0165783D03*
X0138037Y0144883D03*
D60*
X0138037Y0144983D03*
X0138037Y0165683D03*
D61*
X0138037Y0165583D03*
X0138037Y0145083D03*
D62*
X0137987Y0145183D03*
D63*
X0137987Y0145283D03*
D64*
X0138037Y0145383D03*
D65*
X0133637Y0145483D03*
X0143837Y0146583D03*
X0128437Y0154083D03*
X0128337Y0154383D03*
X0128337Y0154483D03*
X0128337Y0154583D03*
X0128337Y0154683D03*
X0128337Y0154783D03*
X0128337Y0155083D03*
X0128437Y0156383D03*
X0129737Y0165983D03*
X0144637Y0167383D03*
X0146437Y0165883D03*
X0146037Y0161283D03*
D66*
X0132987Y0148183D03*
X0140087Y0145483D03*
D67*
X0142337Y0145583D03*
X0129337Y0150983D03*
X0129337Y0151083D03*
X0129337Y0151183D03*
X0128837Y0152583D03*
X0128837Y0152683D03*
X0128837Y0152883D03*
X0128737Y0152983D03*
X0128537Y0155583D03*
X0128537Y0155683D03*
X0131937Y0163583D03*
X0132037Y0163683D03*
X0132137Y0163783D03*
X0133837Y0165183D03*
X0134037Y0165283D03*
X0130337Y0166383D03*
X0145537Y0166483D03*
D68*
X0145687Y0166383D03*
X0144787Y0167183D03*
X0145887Y0161383D03*
X0133687Y0165083D03*
X0133487Y0164983D03*
X0133187Y0164783D03*
X0132687Y0164383D03*
X0132587Y0164283D03*
X0132487Y0164183D03*
X0132387Y0164083D03*
X0132287Y0163983D03*
X0132187Y0163883D03*
X0130187Y0166283D03*
X0128487Y0155483D03*
X0128487Y0155383D03*
X0128887Y0152483D03*
X0128887Y0152383D03*
X0133487Y0145683D03*
D69*
X0133487Y0145783D03*
X0129287Y0151283D03*
X0129287Y0151383D03*
X0128887Y0152783D03*
X0128587Y0155883D03*
X0128587Y0155983D03*
X0137387Y0161383D03*
X0131887Y0163483D03*
X0131787Y0163383D03*
X0130487Y0166483D03*
X0142787Y0164683D03*
X0145387Y0166583D03*
X0142387Y0145683D03*
D70*
X0142437Y0145783D03*
X0133437Y0145883D03*
X0131337Y0162683D03*
X0131437Y0162883D03*
X0134537Y0165483D03*
X0141837Y0165283D03*
X0143737Y0163783D03*
X0143837Y0163683D03*
X0143937Y0163583D03*
X0145237Y0161983D03*
X0145037Y0166783D03*
X0144837Y0166883D03*
D71*
X0144637Y0166983D03*
X0144137Y0163283D03*
X0144237Y0163183D03*
X0144237Y0163083D03*
X0144337Y0162983D03*
X0145437Y0161583D03*
X0131237Y0162483D03*
X0142437Y0145883D03*
D72*
X0133387Y0145983D03*
X0132087Y0159383D03*
X0131287Y0162583D03*
X0131387Y0162783D03*
X0131187Y0166883D03*
X0137987Y0167783D03*
X0141587Y0165383D03*
X0143987Y0163483D03*
X0144087Y0163383D03*
X0145287Y0161883D03*
X0145287Y0161783D03*
X0145387Y0161683D03*
X0145487Y0161483D03*
D73*
X0146637Y0160883D03*
X0147737Y0164683D03*
X0132537Y0158683D03*
X0128137Y0156783D03*
X0128137Y0164583D03*
X0128237Y0164683D03*
X0128337Y0164783D03*
X0128437Y0164883D03*
X0131337Y0167583D03*
X0128037Y0146183D03*
X0128137Y0146083D03*
X0147737Y0145983D03*
D74*
X0133387Y0146183D03*
X0130087Y0150383D03*
X0131387Y0160283D03*
X0130987Y0161883D03*
X0144587Y0162483D03*
X0144587Y0162583D03*
D75*
X0144687Y0162283D03*
X0130887Y0161583D03*
X0133287Y0146283D03*
X0142587Y0146183D03*
D76*
X0142587Y0146283D03*
X0133287Y0146383D03*
X0130387Y0150083D03*
X0130787Y0161283D03*
X0131087Y0161783D03*
D77*
X0132887Y0158383D03*
X0126087Y0161783D03*
X0125987Y0161583D03*
X0125887Y0161383D03*
X0125787Y0161283D03*
X0125787Y0161183D03*
X0125687Y0160983D03*
X0125587Y0160783D03*
X0131487Y0167883D03*
X0147087Y0160583D03*
X0147187Y0160483D03*
X0147287Y0160283D03*
X0147287Y0160183D03*
X0150087Y0161483D03*
X0150187Y0161383D03*
X0150187Y0161283D03*
X0150287Y0161183D03*
X0150287Y0161083D03*
X0150387Y0160883D03*
X0150487Y0160683D03*
X0149987Y0161683D03*
X0149887Y0161883D03*
X0148287Y0156083D03*
X0150487Y0149983D03*
X0150387Y0149783D03*
X0150287Y0149583D03*
X0150287Y0149483D03*
X0150187Y0149383D03*
X0150187Y0149283D03*
X0150087Y0149183D03*
X0149987Y0148983D03*
X0149887Y0148783D03*
X0137887Y0146383D03*
X0126087Y0148883D03*
X0125987Y0149083D03*
X0125887Y0149283D03*
X0125787Y0149383D03*
X0125787Y0149483D03*
X0125687Y0149683D03*
X0125587Y0149883D03*
D78*
X0133237Y0146583D03*
X0142637Y0146483D03*
X0130737Y0160883D03*
X0130737Y0160983D03*
D79*
X0127637Y0163983D03*
X0127537Y0163883D03*
X0127437Y0163783D03*
X0128237Y0157783D03*
X0137337Y0160083D03*
X0144437Y0167783D03*
X0148237Y0164183D03*
X0148337Y0164083D03*
X0148437Y0163983D03*
X0147837Y0157583D03*
X0147837Y0157483D03*
X0147937Y0157283D03*
X0147937Y0157183D03*
X0147937Y0157083D03*
X0148437Y0146683D03*
X0148337Y0146583D03*
X0148237Y0146483D03*
X0127637Y0146683D03*
X0127537Y0146783D03*
X0127437Y0146883D03*
X0138037Y0170083D03*
D80*
X0130737Y0160783D03*
X0130737Y0160683D03*
X0131837Y0160383D03*
X0130837Y0149783D03*
X0133237Y0146683D03*
D81*
X0133187Y0146783D03*
D82*
X0133187Y0146883D03*
X0130787Y0160583D03*
D83*
X0133137Y0147083D03*
D84*
X0133137Y0147183D03*
D85*
X0135937Y0149683D03*
X0127137Y0147283D03*
X0127037Y0147383D03*
X0126937Y0147483D03*
X0126837Y0147683D03*
X0127937Y0156983D03*
X0127937Y0157083D03*
X0127937Y0157183D03*
X0128037Y0157683D03*
X0128137Y0157983D03*
X0126837Y0162983D03*
X0126937Y0163083D03*
X0126937Y0163183D03*
X0127037Y0163283D03*
X0127137Y0163383D03*
X0131437Y0167783D03*
X0135037Y0169483D03*
X0141237Y0169383D03*
X0144337Y0167883D03*
X0148837Y0163483D03*
X0148937Y0163283D03*
X0149037Y0163183D03*
X0149137Y0163083D03*
X0149337Y0162783D03*
X0147437Y0159583D03*
X0147437Y0159483D03*
X0147437Y0159383D03*
X0147537Y0159083D03*
X0147637Y0158883D03*
X0147637Y0158783D03*
X0147737Y0158483D03*
X0147737Y0158383D03*
X0147837Y0158183D03*
X0147837Y0158083D03*
X0147837Y0157983D03*
X0149337Y0147883D03*
X0149137Y0147583D03*
X0149037Y0147483D03*
X0148937Y0147383D03*
X0148837Y0147183D03*
D86*
X0133087Y0147283D03*
D87*
X0124837Y0152083D03*
X0124737Y0152483D03*
X0124737Y0152583D03*
X0124637Y0152983D03*
X0124637Y0153083D03*
X0124637Y0153183D03*
X0124537Y0153483D03*
X0124537Y0153583D03*
X0124537Y0153683D03*
X0124537Y0153783D03*
X0124537Y0153883D03*
X0124537Y0153983D03*
X0124537Y0154083D03*
X0124537Y0154183D03*
X0124437Y0154383D03*
X0124437Y0154483D03*
X0124437Y0154583D03*
X0124437Y0154683D03*
X0124437Y0154783D03*
X0124437Y0154883D03*
X0124437Y0154983D03*
X0124437Y0155083D03*
X0124437Y0155183D03*
X0124437Y0155283D03*
X0124437Y0155383D03*
X0124437Y0155483D03*
X0124437Y0155583D03*
X0124437Y0155683D03*
X0124437Y0155783D03*
X0124437Y0155883D03*
X0124437Y0155983D03*
X0124437Y0156083D03*
X0124437Y0156183D03*
X0124437Y0156283D03*
X0124537Y0156483D03*
X0124537Y0156583D03*
X0124537Y0156683D03*
X0124537Y0156783D03*
X0124537Y0156883D03*
X0124537Y0156983D03*
X0124537Y0157083D03*
X0124537Y0157183D03*
X0124637Y0157483D03*
X0124637Y0157583D03*
X0124637Y0157683D03*
X0124737Y0158083D03*
X0124737Y0158183D03*
X0124837Y0158583D03*
X0132837Y0158283D03*
X0131637Y0168083D03*
X0133237Y0168883D03*
X0142837Y0168883D03*
X0151237Y0158383D03*
X0151337Y0157983D03*
X0151337Y0157883D03*
X0151337Y0157783D03*
X0151437Y0157483D03*
X0151437Y0157383D03*
X0151437Y0157283D03*
X0151437Y0157183D03*
X0151437Y0157083D03*
X0151537Y0156783D03*
X0151537Y0156683D03*
X0151537Y0156583D03*
X0151537Y0156483D03*
X0151537Y0156383D03*
X0151537Y0156283D03*
X0151537Y0156183D03*
X0151537Y0156083D03*
X0151537Y0155983D03*
X0151537Y0155883D03*
X0151537Y0155783D03*
X0151537Y0155683D03*
X0151537Y0155583D03*
X0151537Y0155483D03*
X0151537Y0155383D03*
X0151537Y0155283D03*
X0151537Y0155183D03*
X0151537Y0155083D03*
X0151537Y0154983D03*
X0151537Y0154883D03*
X0151537Y0154783D03*
X0151537Y0154683D03*
X0151537Y0154583D03*
X0151537Y0154483D03*
X0151537Y0154383D03*
X0151537Y0154283D03*
X0151537Y0154183D03*
X0151537Y0154083D03*
X0151537Y0153983D03*
X0151537Y0153883D03*
X0151437Y0153583D03*
X0151437Y0153483D03*
X0151437Y0153383D03*
X0151437Y0153283D03*
X0151437Y0153183D03*
X0151337Y0152883D03*
X0151337Y0152783D03*
X0151337Y0152683D03*
X0151237Y0152283D03*
X0147337Y0150183D03*
X0146537Y0148783D03*
X0146337Y0148583D03*
X0145537Y0147483D03*
X0145437Y0147383D03*
X0145337Y0147283D03*
D88*
X0133037Y0147583D03*
D89*
X0133037Y0147683D03*
D90*
X0133037Y0147783D03*
D91*
X0132987Y0147883D03*
D92*
X0133037Y0147983D03*
X0138037Y0169583D03*
D93*
X0132987Y0148083D03*
D94*
X0132987Y0148283D03*
X0132987Y0148383D03*
D95*
X0132987Y0148583D03*
D96*
X0132937Y0148683D03*
D97*
X0132987Y0148783D03*
D98*
X0132987Y0148883D03*
X0132987Y0148983D03*
D99*
X0133637Y0149283D03*
X0133737Y0149083D03*
D100*
X0133687Y0149183D03*
D101*
X0133137Y0149383D03*
D102*
X0132937Y0149483D03*
D103*
X0132887Y0149583D03*
D104*
X0130937Y0149683D03*
X0137537Y0167683D03*
D105*
X0131287Y0161683D03*
X0130687Y0149883D03*
D106*
X0129637Y0150483D03*
X0129637Y0150583D03*
X0129637Y0150683D03*
X0129237Y0151483D03*
X0129237Y0151583D03*
X0129237Y0151683D03*
X0129137Y0152083D03*
X0128637Y0155783D03*
X0132437Y0159183D03*
X0132537Y0159083D03*
X0132837Y0158883D03*
X0131637Y0163183D03*
X0131737Y0163283D03*
X0134237Y0165383D03*
X0130837Y0166683D03*
X0130637Y0166583D03*
X0142337Y0164983D03*
X0142537Y0164883D03*
X0142637Y0164783D03*
X0142937Y0164583D03*
X0143037Y0164483D03*
X0143137Y0164383D03*
X0143237Y0164283D03*
X0143337Y0164183D03*
X0145237Y0166683D03*
D107*
X0146837Y0165583D03*
X0146237Y0161183D03*
X0129337Y0165683D03*
X0129237Y0165583D03*
X0128437Y0153183D03*
D108*
X0128287Y0153383D03*
X0128187Y0153583D03*
X0128187Y0153683D03*
X0128187Y0153783D03*
X0128187Y0153883D03*
X0128187Y0153983D03*
X0128587Y0164983D03*
X0131287Y0167483D03*
X0140687Y0169483D03*
X0142687Y0168683D03*
X0144487Y0167683D03*
X0147387Y0165083D03*
X0147487Y0164983D03*
X0147587Y0164883D03*
X0147687Y0164783D03*
X0146487Y0160983D03*
X0147887Y0156783D03*
X0147887Y0156683D03*
D109*
X0146687Y0165683D03*
X0146587Y0165783D03*
X0129587Y0165883D03*
X0129487Y0165783D03*
X0128387Y0156683D03*
X0128387Y0156583D03*
X0128387Y0156483D03*
X0128287Y0154983D03*
X0128287Y0154883D03*
X0128387Y0154283D03*
X0128387Y0154183D03*
D110*
X0128437Y0155283D03*
X0132837Y0164483D03*
X0132937Y0164583D03*
X0133037Y0164683D03*
X0133337Y0164883D03*
X0130037Y0166183D03*
X0145837Y0166283D03*
D111*
X0144437Y0167083D03*
X0144437Y0162783D03*
X0144537Y0162683D03*
X0144937Y0162183D03*
X0131637Y0159883D03*
X0131537Y0160083D03*
X0131437Y0160183D03*
X0131037Y0161983D03*
X0131037Y0162083D03*
X0131637Y0167083D03*
D112*
X0130987Y0160483D03*
D113*
X0130837Y0161383D03*
X0130837Y0161483D03*
D114*
X0128887Y0165283D03*
X0128987Y0165383D03*
X0129087Y0165483D03*
X0131287Y0167383D03*
X0144587Y0167483D03*
X0146887Y0165483D03*
D115*
X0144631Y0178263D02*
X0142131Y0180763D01*
X0142131Y0195763D01*
X0139631Y0198263D01*
X0134631Y0198263D01*
X0132131Y0195763D01*
X0132131Y0180763D01*
X0129631Y0178263D01*
X0124631Y0178263D01*
X0122131Y0180763D01*
X0122131Y0195763D01*
X0124631Y0198263D01*
X0129631Y0198263D01*
X0132131Y0195763D01*
X0122131Y0195763D02*
X0119631Y0198263D01*
X0114631Y0198263D01*
X0112131Y0195763D01*
X0112131Y0180763D01*
X0109631Y0178263D01*
X0104631Y0178263D01*
X0102131Y0180763D01*
X0099631Y0178263D01*
X0094631Y0178263D01*
X0092131Y0180763D01*
X0092131Y0195763D01*
X0094631Y0198263D01*
X0099631Y0198263D01*
X0102131Y0195763D01*
X0102131Y0180763D01*
X0102631Y0173915D02*
X0097631Y0173915D01*
X0095131Y0171415D01*
X0095131Y0166415D01*
X0097631Y0163915D01*
X0102631Y0163915D01*
X0105131Y0166415D01*
X0105131Y0171415D01*
X0102631Y0173915D01*
X0112131Y0180763D02*
X0114631Y0178263D01*
X0119631Y0178263D01*
X0122131Y0180763D01*
X0132131Y0180763D02*
X0134631Y0178263D01*
X0139631Y0178263D01*
X0142131Y0180763D01*
X0144631Y0178263D02*
X0149631Y0178263D01*
X0152131Y0180763D01*
X0152131Y0195763D01*
X0149631Y0198263D01*
X0144631Y0198263D01*
X0142131Y0195763D01*
X0152131Y0195763D02*
X0154631Y0198263D01*
X0159631Y0198263D01*
X0162131Y0195763D01*
X0162131Y0180763D01*
X0159631Y0178263D01*
X0154631Y0178263D01*
X0152131Y0180763D01*
X0162131Y0180763D02*
X0164631Y0178263D01*
X0169631Y0178263D01*
X0172131Y0180763D01*
X0172131Y0195763D01*
X0169631Y0198263D01*
X0164631Y0198263D01*
X0162131Y0195763D01*
X0172131Y0195763D02*
X0174631Y0198263D01*
X0179631Y0198263D01*
X0182131Y0195763D01*
X0182131Y0180763D01*
X0179631Y0178263D01*
X0174631Y0178263D01*
X0172131Y0180763D01*
X0182131Y0180763D02*
X0184631Y0178263D01*
X0189631Y0178263D01*
X0192131Y0180763D01*
X0192131Y0195763D01*
X0189631Y0198263D01*
X0184631Y0198263D01*
X0182131Y0195763D01*
X0192131Y0195763D02*
X0194631Y0198263D01*
X0199631Y0198263D01*
X0202131Y0195763D01*
X0202131Y0180763D01*
X0199631Y0178263D01*
X0194631Y0178263D01*
X0192131Y0180763D01*
X0202131Y0180763D02*
X0202131Y0195763D01*
X0204631Y0198263D01*
X0209631Y0198263D01*
X0212131Y0195763D01*
X0212131Y0180763D01*
X0214631Y0178263D01*
X0219631Y0178263D01*
X0222131Y0180763D01*
X0222131Y0195763D01*
X0219631Y0198263D01*
X0214631Y0198263D01*
X0212131Y0195763D01*
X0212131Y0180763D02*
X0209631Y0178263D01*
X0204631Y0178263D01*
X0202131Y0180763D01*
X0227131Y0170215D02*
X0229631Y0172715D01*
X0234631Y0172715D01*
X0237131Y0170215D01*
X0237131Y0155215D01*
X0239631Y0152715D01*
X0244631Y0152715D01*
X0247131Y0155215D01*
X0247131Y0170215D01*
X0249631Y0172715D01*
X0254631Y0172715D01*
X0257131Y0170215D01*
X0257131Y0155215D01*
X0259631Y0152715D01*
X0264631Y0152715D01*
X0267131Y0155215D01*
X0269631Y0152715D01*
X0274631Y0152715D01*
X0277131Y0155215D01*
X0277131Y0170215D01*
X0274631Y0172715D01*
X0269631Y0172715D01*
X0267131Y0170215D01*
X0267131Y0155215D01*
X0257131Y0155215D02*
X0254631Y0152715D01*
X0249631Y0152715D01*
X0247131Y0155215D01*
X0237131Y0155215D02*
X0234631Y0152715D01*
X0229631Y0152715D01*
X0227131Y0155215D01*
X0227131Y0170215D01*
X0237131Y0170215D02*
X0239631Y0172715D01*
X0244631Y0172715D01*
X0247131Y0170215D01*
X0243250Y0175451D02*
X0264947Y0175451D01*
X0264631Y0172715D02*
X0259631Y0172715D01*
X0257131Y0170215D01*
X0264631Y0172715D02*
X0267131Y0170215D01*
X0299418Y0193054D02*
X0299418Y0198054D01*
X0301918Y0200554D01*
X0306918Y0200554D01*
X0309418Y0198054D01*
X0311918Y0200554D01*
X0316918Y0200554D01*
X0319418Y0198054D01*
X0319418Y0193054D01*
X0316918Y0190554D01*
X0311918Y0190554D01*
X0309418Y0193054D01*
X0306918Y0190554D01*
X0301918Y0190554D01*
X0299418Y0193054D01*
X0309418Y0193054D02*
X0309418Y0198054D01*
X0309831Y0178915D02*
X0314831Y0178915D01*
X0317331Y0176415D01*
X0317331Y0171415D01*
X0314831Y0168915D01*
X0317331Y0166415D01*
X0317331Y0161415D01*
X0314831Y0158915D01*
X0317331Y0156415D01*
X0317331Y0151415D01*
X0314831Y0148915D01*
X0317331Y0146415D01*
X0317331Y0141415D01*
X0314831Y0138915D01*
X0317331Y0136415D01*
X0317331Y0131415D01*
X0314831Y0128915D01*
X0317331Y0126415D01*
X0317331Y0121415D01*
X0314831Y0118915D01*
X0317331Y0116415D01*
X0317331Y0111415D01*
X0314831Y0108915D01*
X0317331Y0106415D01*
X0317331Y0101415D01*
X0314831Y0098915D01*
X0309831Y0098915D01*
X0307331Y0101415D01*
X0307331Y0106415D01*
X0309831Y0108915D01*
X0307331Y0111415D01*
X0307331Y0116415D01*
X0309831Y0118915D01*
X0314831Y0118915D01*
X0309831Y0118915D02*
X0307331Y0121415D01*
X0307331Y0126415D01*
X0309831Y0128915D01*
X0307331Y0131415D01*
X0307331Y0136415D01*
X0309831Y0138915D01*
X0314831Y0138915D01*
X0309831Y0138915D01*
X0307331Y0141415D01*
X0307331Y0146415D01*
X0309831Y0148915D01*
X0307331Y0151415D01*
X0307331Y0156415D01*
X0309831Y0158915D01*
X0314831Y0158915D01*
X0309831Y0158915D02*
X0307331Y0161415D01*
X0307331Y0166415D01*
X0309831Y0168915D01*
X0307331Y0171415D01*
X0307331Y0176415D01*
X0309831Y0178915D01*
X0309831Y0168915D02*
X0314831Y0168915D01*
X0314831Y0148915D02*
X0309831Y0148915D01*
X0309831Y0128915D02*
X0314831Y0128915D01*
X0314831Y0108915D02*
X0309831Y0108915D01*
X0296235Y0102739D02*
X0291628Y0102739D01*
X0291628Y0094691D02*
X0296235Y0094691D01*
X0307331Y0096215D02*
X0307331Y0091215D01*
X0309831Y0088715D01*
X0314831Y0088715D01*
X0317331Y0091215D01*
X0317331Y0096215D01*
X0314831Y0098715D01*
X0309831Y0098715D01*
X0307331Y0096215D01*
X0309831Y0088715D02*
X0307331Y0086215D01*
X0307331Y0081215D01*
X0309831Y0078715D01*
X0314831Y0078715D01*
X0317331Y0076215D01*
X0317331Y0071215D01*
X0314831Y0068715D01*
X0317331Y0066215D01*
X0317331Y0061215D01*
X0314831Y0058715D01*
X0309831Y0058715D01*
X0307331Y0061215D01*
X0307331Y0066215D01*
X0309831Y0068715D01*
X0307331Y0071215D01*
X0307331Y0076215D01*
X0309831Y0078715D01*
X0314831Y0078715D02*
X0317331Y0081215D01*
X0317331Y0086215D01*
X0314831Y0088715D01*
X0296235Y0081139D02*
X0291628Y0081139D01*
X0291628Y0073091D02*
X0296235Y0073091D01*
X0309831Y0068715D02*
X0314831Y0068715D01*
X0314831Y0058715D02*
X0309831Y0058715D01*
X0307331Y0056215D01*
X0307331Y0051215D01*
X0309831Y0048715D01*
X0314831Y0048715D01*
X0317331Y0051215D01*
X0317331Y0056215D01*
X0314831Y0058715D01*
X0314831Y0048715D02*
X0317331Y0046215D01*
X0317331Y0041215D01*
X0314831Y0038715D01*
X0317331Y0036215D01*
X0317331Y0031215D01*
X0314831Y0028715D01*
X0317331Y0026215D01*
X0317331Y0021215D01*
X0314831Y0018715D01*
X0309831Y0018715D01*
X0307331Y0021215D01*
X0307331Y0026215D01*
X0309831Y0028715D01*
X0307331Y0031215D01*
X0307331Y0036215D01*
X0309831Y0038715D01*
X0314831Y0038715D01*
X0309831Y0038715D02*
X0307331Y0041215D01*
X0307331Y0046215D01*
X0309831Y0048715D01*
X0296235Y0051491D02*
X0291628Y0051491D01*
X0291628Y0059539D02*
X0296235Y0059539D01*
X0296235Y0037939D02*
X0291628Y0037939D01*
X0291628Y0029891D02*
X0296235Y0029891D01*
X0309831Y0028715D02*
X0314831Y0028715D01*
X0258931Y0030015D02*
X0258931Y0025015D01*
X0256431Y0022515D01*
X0251431Y0022515D01*
X0248931Y0025015D01*
X0246431Y0022515D01*
X0241431Y0022515D01*
X0238931Y0025015D01*
X0238931Y0030015D01*
X0241431Y0032515D01*
X0246431Y0032515D01*
X0248931Y0030015D01*
X0251431Y0032515D01*
X0256431Y0032515D01*
X0258931Y0030015D01*
X0248931Y0030015D02*
X0248931Y0025015D01*
X0238931Y0025015D02*
X0236431Y0022515D01*
X0231431Y0022515D01*
X0228931Y0025015D01*
X0226431Y0022515D01*
X0221431Y0022515D01*
X0218931Y0025015D01*
X0218931Y0030015D01*
X0221431Y0032515D01*
X0226431Y0032515D01*
X0228931Y0030015D01*
X0231431Y0032515D01*
X0236431Y0032515D01*
X0238931Y0030015D01*
X0238931Y0025015D01*
X0228931Y0025015D02*
X0228931Y0030015D01*
X0218931Y0030015D02*
X0216431Y0032515D01*
X0211431Y0032515D01*
X0208931Y0030015D01*
X0206431Y0032515D01*
X0201431Y0032515D01*
X0198931Y0030015D01*
X0198931Y0025015D01*
X0198931Y0040015D01*
X0201431Y0042515D01*
X0206431Y0042515D01*
X0208931Y0040015D01*
X0208931Y0025015D01*
X0206431Y0022515D01*
X0201431Y0022515D01*
X0198931Y0025015D01*
X0196431Y0022515D01*
X0191431Y0022515D01*
X0188931Y0025015D01*
X0188931Y0040015D01*
X0191431Y0042515D01*
X0196431Y0042515D01*
X0198931Y0040015D01*
X0188931Y0040015D02*
X0188931Y0025015D01*
X0186431Y0022515D01*
X0181431Y0022515D01*
X0178931Y0025015D01*
X0178931Y0040015D01*
X0181431Y0042515D01*
X0186431Y0042515D01*
X0188931Y0040015D01*
X0178931Y0040015D02*
X0176431Y0042515D01*
X0171431Y0042515D01*
X0168931Y0040015D01*
X0168931Y0025015D01*
X0171431Y0022515D01*
X0176431Y0022515D01*
X0178931Y0025015D01*
X0168931Y0025015D02*
X0166431Y0022515D01*
X0161431Y0022515D01*
X0158931Y0025015D01*
X0158931Y0040015D01*
X0161431Y0042515D01*
X0166431Y0042515D01*
X0168931Y0040015D01*
X0158931Y0040015D02*
X0156431Y0042515D01*
X0151431Y0042515D01*
X0148931Y0040015D01*
X0148931Y0025015D01*
X0151431Y0022515D01*
X0156431Y0022515D01*
X0158931Y0025015D01*
X0148931Y0025015D02*
X0146431Y0022515D01*
X0141431Y0022515D01*
X0138931Y0025015D01*
X0138931Y0040015D01*
X0141431Y0042515D01*
X0146431Y0042515D01*
X0148931Y0040015D01*
X0138931Y0030415D02*
X0136431Y0032915D01*
X0131431Y0032915D01*
X0128931Y0030415D01*
X0126431Y0032915D01*
X0121431Y0032915D01*
X0118931Y0030415D01*
X0118931Y0025415D01*
X0121431Y0022915D01*
X0126431Y0022915D01*
X0128931Y0025415D01*
X0128931Y0030415D01*
X0128931Y0025415D02*
X0131431Y0022915D01*
X0136431Y0022915D01*
X0138931Y0025415D01*
X0138931Y0030415D01*
X0118931Y0030415D02*
X0116431Y0032915D01*
X0111431Y0032915D01*
X0108931Y0030415D01*
X0106431Y0032915D01*
X0101431Y0032915D01*
X0098931Y0030415D01*
X0098931Y0025415D01*
X0101431Y0022915D01*
X0106431Y0022915D01*
X0108931Y0025415D01*
X0108931Y0030415D01*
X0108931Y0025415D02*
X0111431Y0022915D01*
X0116431Y0022915D01*
X0118931Y0025415D01*
X0180400Y0071455D02*
X0181178Y0070677D01*
X0183936Y0073435D01*
X0183158Y0074213D01*
X0180400Y0071455D01*
X0179764Y0072091D02*
X0182522Y0074849D01*
X0181744Y0075627D01*
X0178986Y0072869D01*
X0179764Y0072091D01*
X0178420Y0073435D02*
X0181178Y0076192D01*
X0180400Y0076970D01*
X0177643Y0074213D01*
X0178420Y0073435D01*
X0177006Y0074849D02*
X0179764Y0077607D01*
X0178986Y0078384D01*
X0176228Y0075627D01*
X0177006Y0074849D01*
X0175592Y0076263D02*
X0178350Y0079021D01*
X0177572Y0079799D01*
X0174814Y0077041D01*
X0175592Y0076263D01*
X0174248Y0077607D02*
X0177006Y0080364D01*
X0176228Y0081142D01*
X0173471Y0078384D01*
X0174248Y0077607D01*
X0172834Y0079021D02*
X0175592Y0081779D01*
X0174814Y0082556D01*
X0172056Y0079799D01*
X0172834Y0079021D01*
X0171420Y0080435D02*
X0174178Y0083193D01*
X0173400Y0083971D01*
X0170642Y0081213D01*
X0171420Y0080435D01*
X0170076Y0081779D02*
X0172834Y0084536D01*
X0172056Y0085314D01*
X0169299Y0082556D01*
X0170076Y0081779D01*
X0168662Y0083193D02*
X0171420Y0085951D01*
X0170642Y0086728D01*
X0167884Y0083971D01*
X0168662Y0083193D01*
X0167248Y0084607D02*
X0170006Y0087365D01*
X0169228Y0088143D01*
X0166470Y0085385D01*
X0167248Y0084607D01*
X0165905Y0085951D02*
X0168662Y0088708D01*
X0167814Y0089557D01*
X0165127Y0086728D01*
X0165905Y0085951D01*
X0164490Y0087365D02*
X0167248Y0090122D01*
X0166470Y0090900D01*
X0163713Y0088143D01*
X0164490Y0087365D01*
X0163076Y0088779D02*
X0165834Y0091537D01*
X0165056Y0092314D01*
X0162298Y0089557D01*
X0163076Y0088779D01*
X0161662Y0090193D02*
X0160884Y0090971D01*
X0163642Y0093729D01*
X0164420Y0092951D01*
X0161662Y0090193D01*
X0160318Y0091537D02*
X0163076Y0094294D01*
X0162298Y0095072D01*
X0159541Y0092314D01*
X0160318Y0091537D01*
X0158904Y0092951D02*
X0161662Y0095709D01*
X0160884Y0096486D01*
X0158126Y0093729D01*
X0158904Y0092951D01*
X0157490Y0094365D02*
X0160248Y0097123D01*
X0159470Y0097901D01*
X0156712Y0095143D01*
X0157490Y0094365D01*
X0156146Y0095709D02*
X0158904Y0098466D01*
X0158126Y0099244D01*
X0155369Y0096486D01*
X0156146Y0095709D01*
X0154732Y0097123D02*
X0157490Y0099881D01*
X0156712Y0100658D01*
X0153954Y0097901D01*
X0154732Y0097123D01*
X0153318Y0098537D02*
X0156076Y0101295D01*
X0155298Y0102073D01*
X0152540Y0099315D01*
X0153318Y0098537D01*
X0151975Y0099881D02*
X0151197Y0100658D01*
X0153954Y0103416D01*
X0154732Y0102638D01*
X0151975Y0099881D01*
X0150560Y0101295D02*
X0149783Y0102073D01*
X0152540Y0104830D01*
X0153318Y0104052D01*
X0150560Y0101295D01*
X0149146Y0102709D02*
X0151904Y0105467D01*
X0151126Y0106244D01*
X0148368Y0103487D01*
X0149146Y0102709D01*
X0151975Y0105396D02*
X0151975Y0112467D01*
X0151904Y0112396D02*
X0149146Y0115154D01*
X0148368Y0114376D01*
X0151126Y0111618D01*
X0151904Y0112396D01*
X0152540Y0113033D02*
X0149783Y0115790D01*
X0150560Y0116568D01*
X0153318Y0113811D01*
X0152540Y0113033D01*
X0153954Y0114447D02*
X0151197Y0117205D01*
X0151975Y0117982D01*
X0154732Y0115225D01*
X0153954Y0114447D01*
X0155298Y0115790D02*
X0152540Y0118548D01*
X0153318Y0119326D01*
X0156076Y0116568D01*
X0155298Y0115790D01*
X0156712Y0117205D02*
X0153954Y0119962D01*
X0154732Y0120740D01*
X0157490Y0117982D01*
X0156712Y0117205D01*
X0158126Y0118619D02*
X0155369Y0121377D01*
X0156146Y0122154D01*
X0158904Y0119397D01*
X0158126Y0118619D01*
X0159470Y0119962D02*
X0156712Y0122720D01*
X0157490Y0123498D01*
X0160248Y0120740D01*
X0159470Y0119962D01*
X0160884Y0121377D02*
X0158126Y0124134D01*
X0158904Y0124912D01*
X0161662Y0122154D01*
X0160884Y0121377D01*
X0162298Y0122791D02*
X0159541Y0125548D01*
X0160318Y0126326D01*
X0163076Y0123569D01*
X0162298Y0122791D01*
X0163642Y0124134D02*
X0160884Y0126892D01*
X0161662Y0127670D01*
X0164420Y0124912D01*
X0163642Y0124134D01*
X0165056Y0125548D02*
X0162298Y0128306D01*
X0163076Y0129084D01*
X0165834Y0126326D01*
X0165056Y0125548D01*
X0166470Y0126963D02*
X0163713Y0129720D01*
X0164490Y0130498D01*
X0167248Y0127741D01*
X0166470Y0126963D01*
X0167814Y0128306D02*
X0165056Y0131064D01*
X0165834Y0131842D01*
X0168662Y0129155D01*
X0167814Y0128306D01*
X0169228Y0129720D02*
X0166470Y0132478D01*
X0167248Y0133256D01*
X0170006Y0130498D01*
X0169228Y0129720D01*
X0170642Y0131135D02*
X0167884Y0133892D01*
X0168662Y0134670D01*
X0171420Y0131912D01*
X0170642Y0131135D01*
X0172056Y0132549D02*
X0169299Y0135307D01*
X0170076Y0136084D01*
X0172834Y0133327D01*
X0172056Y0132549D01*
X0173400Y0133892D02*
X0170642Y0136650D01*
X0171420Y0137428D01*
X0174178Y0134670D01*
X0173400Y0133892D01*
X0174814Y0135307D02*
X0172056Y0138064D01*
X0172834Y0138842D01*
X0175592Y0136084D01*
X0174814Y0135307D01*
X0176228Y0136721D02*
X0173471Y0139479D01*
X0174248Y0140256D01*
X0177006Y0137499D01*
X0176228Y0136721D01*
X0177572Y0138064D02*
X0174814Y0140822D01*
X0175592Y0141600D01*
X0178350Y0138842D01*
X0177572Y0138064D01*
X0178986Y0139479D02*
X0176228Y0142236D01*
X0177006Y0143014D01*
X0179764Y0140256D01*
X0178986Y0139479D01*
X0180400Y0140893D02*
X0177643Y0143650D01*
X0178420Y0144428D01*
X0181178Y0141671D01*
X0180400Y0140893D01*
X0181744Y0142236D02*
X0178986Y0144994D01*
X0179764Y0145772D01*
X0182522Y0143014D01*
X0181744Y0142236D01*
X0183158Y0143650D02*
X0180400Y0146408D01*
X0181178Y0147186D01*
X0183936Y0144428D01*
X0183158Y0143650D01*
X0184572Y0145065D02*
X0181814Y0147822D01*
X0182592Y0148600D01*
X0185350Y0145842D01*
X0184572Y0145065D01*
X0188037Y0148529D02*
X0148439Y0108931D01*
X0188037Y0069334D01*
X0227635Y0108931D01*
X0188037Y0148529D01*
X0190724Y0145842D02*
X0193482Y0148600D01*
X0194260Y0147822D01*
X0191502Y0145065D01*
X0190724Y0145842D01*
X0192138Y0144428D02*
X0194896Y0147186D01*
X0195674Y0146408D01*
X0192916Y0143650D01*
X0192138Y0144428D01*
X0193552Y0143014D02*
X0196310Y0145772D01*
X0197088Y0144994D01*
X0194330Y0142236D01*
X0193552Y0143014D01*
X0194896Y0141671D02*
X0197654Y0144428D01*
X0198431Y0143650D01*
X0195674Y0140893D01*
X0194896Y0141671D01*
X0196310Y0140256D02*
X0199068Y0143014D01*
X0199846Y0142236D01*
X0197088Y0139479D01*
X0196310Y0140256D01*
X0197724Y0138842D02*
X0200482Y0141600D01*
X0201260Y0140822D01*
X0198502Y0138064D01*
X0197724Y0138842D01*
X0199068Y0137499D02*
X0201826Y0140256D01*
X0202603Y0139479D01*
X0199846Y0136721D01*
X0199068Y0137499D01*
X0200482Y0136084D02*
X0203240Y0138842D01*
X0204018Y0138064D01*
X0201260Y0135307D01*
X0200482Y0136084D01*
X0201896Y0134670D02*
X0204654Y0137428D01*
X0205432Y0136650D01*
X0202674Y0133892D01*
X0201896Y0134670D01*
X0203240Y0133327D02*
X0205998Y0136084D01*
X0206775Y0135307D01*
X0204018Y0132549D01*
X0203240Y0133327D01*
X0204654Y0131912D02*
X0207412Y0134670D01*
X0208190Y0133892D01*
X0205432Y0131135D01*
X0204654Y0131912D01*
X0206068Y0130498D02*
X0208826Y0133256D01*
X0209604Y0132478D01*
X0206846Y0129720D01*
X0206068Y0130498D01*
X0207412Y0129155D02*
X0210169Y0131912D01*
X0210947Y0131135D01*
X0208260Y0128306D01*
X0207412Y0129155D01*
X0208826Y0127741D02*
X0211584Y0130498D01*
X0212361Y0129720D01*
X0209604Y0126963D01*
X0208826Y0127741D01*
X0210240Y0126326D02*
X0212998Y0129084D01*
X0213776Y0128306D01*
X0211018Y0125548D01*
X0210240Y0126326D01*
X0211654Y0124912D02*
X0214412Y0127670D01*
X0215190Y0126892D01*
X0212432Y0124134D01*
X0211654Y0124912D01*
X0212998Y0123569D02*
X0215756Y0126326D01*
X0216533Y0125548D01*
X0213776Y0122791D01*
X0212998Y0123569D01*
X0214412Y0122154D02*
X0217170Y0124912D01*
X0217948Y0124134D01*
X0215190Y0121377D01*
X0214412Y0122154D01*
X0215826Y0120740D02*
X0218584Y0123498D01*
X0219362Y0122720D01*
X0216604Y0119962D01*
X0215826Y0120740D01*
X0217170Y0119397D02*
X0219928Y0122154D01*
X0220705Y0121377D01*
X0217948Y0118619D01*
X0217170Y0119397D01*
X0218584Y0117982D02*
X0221342Y0120740D01*
X0222120Y0119962D01*
X0219362Y0117205D01*
X0218584Y0117982D01*
X0219998Y0116568D02*
X0222756Y0119326D01*
X0223534Y0118548D01*
X0220776Y0115790D01*
X0219998Y0116568D01*
X0221342Y0115225D02*
X0224099Y0117982D01*
X0224877Y0117205D01*
X0222120Y0114447D01*
X0221342Y0115225D01*
X0222756Y0113811D02*
X0225514Y0116568D01*
X0226291Y0115790D01*
X0223534Y0113033D01*
X0222756Y0113811D01*
X0224170Y0112396D02*
X0226928Y0115154D01*
X0227706Y0114376D01*
X0224948Y0111618D01*
X0224170Y0112396D01*
X0224948Y0106244D02*
X0227706Y0103487D01*
X0226928Y0102709D01*
X0224170Y0105467D01*
X0224948Y0106244D01*
X0223534Y0104830D02*
X0226291Y0102073D01*
X0225514Y0101295D01*
X0222756Y0104052D01*
X0223534Y0104830D01*
X0222120Y0103416D02*
X0224877Y0100658D01*
X0224099Y0099881D01*
X0221342Y0102638D01*
X0222120Y0103416D01*
X0220776Y0102073D02*
X0219998Y0101295D01*
X0222756Y0098537D01*
X0223534Y0099315D01*
X0220776Y0102073D01*
X0219362Y0100658D02*
X0222120Y0097901D01*
X0221342Y0097123D01*
X0218584Y0099881D01*
X0219362Y0100658D01*
X0217948Y0099244D02*
X0220705Y0096486D01*
X0219928Y0095709D01*
X0217170Y0098466D01*
X0217948Y0099244D01*
X0216604Y0097901D02*
X0219362Y0095143D01*
X0218584Y0094365D01*
X0215826Y0097123D01*
X0216604Y0097901D01*
X0215190Y0096486D02*
X0217948Y0093729D01*
X0217170Y0092951D01*
X0214412Y0095709D01*
X0215190Y0096486D01*
X0213776Y0095072D02*
X0216533Y0092314D01*
X0215756Y0091537D01*
X0212998Y0094294D01*
X0213776Y0095072D01*
X0212432Y0093729D02*
X0215190Y0090971D01*
X0214412Y0090193D01*
X0211654Y0092951D01*
X0212432Y0093729D01*
X0211018Y0092314D02*
X0213776Y0089557D01*
X0212998Y0088779D01*
X0210240Y0091537D01*
X0211018Y0092314D01*
X0209604Y0090900D02*
X0212361Y0088143D01*
X0211584Y0087365D01*
X0208826Y0090122D01*
X0209604Y0090900D01*
X0208260Y0089557D02*
X0211018Y0086799D01*
X0210240Y0086021D01*
X0207412Y0088708D01*
X0208260Y0089557D01*
X0206846Y0088143D02*
X0209604Y0085385D01*
X0208826Y0084607D01*
X0206068Y0087365D01*
X0206846Y0088143D01*
X0205432Y0086728D02*
X0208190Y0083971D01*
X0207412Y0083193D01*
X0204654Y0085951D01*
X0205432Y0086728D01*
X0204018Y0085314D02*
X0206775Y0082556D01*
X0205998Y0081779D01*
X0203240Y0084536D01*
X0204018Y0085314D01*
X0202674Y0083971D02*
X0205432Y0081213D01*
X0204654Y0080435D01*
X0201896Y0083193D01*
X0202674Y0083971D01*
X0201260Y0082556D02*
X0204018Y0079799D01*
X0203240Y0079021D01*
X0200482Y0081779D01*
X0201260Y0082556D01*
X0199846Y0081142D02*
X0202603Y0078384D01*
X0201826Y0077607D01*
X0199068Y0080364D01*
X0199846Y0081142D01*
X0198502Y0079799D02*
X0201260Y0077041D01*
X0200482Y0076263D01*
X0197724Y0079021D01*
X0198502Y0079799D01*
X0197088Y0078384D02*
X0199846Y0075627D01*
X0199068Y0074849D01*
X0196310Y0077607D01*
X0197088Y0078384D01*
X0195674Y0076970D02*
X0198431Y0074213D01*
X0197654Y0073435D01*
X0194896Y0076192D01*
X0195674Y0076970D01*
X0194330Y0075627D02*
X0197088Y0072869D01*
X0196310Y0072091D01*
X0193552Y0074849D01*
X0194330Y0075627D01*
X0192916Y0074213D02*
X0195674Y0071455D01*
X0194896Y0070677D01*
X0192138Y0073435D01*
X0192916Y0074213D01*
X0191502Y0072798D02*
X0190724Y0072021D01*
X0193482Y0069263D01*
X0194260Y0070041D01*
X0191502Y0072798D01*
X0185350Y0072021D02*
X0182592Y0069263D01*
X0181814Y0070041D01*
X0184572Y0072798D01*
X0185350Y0072021D01*
X0220543Y0081476D02*
X0221604Y0080415D01*
X0226553Y0085365D01*
X0226907Y0085718D01*
X0243195Y0069430D01*
X0243237Y0069386D01*
X0243275Y0069340D01*
X0243311Y0069291D01*
X0243344Y0069240D01*
X0243373Y0069188D01*
X0243400Y0069133D01*
X0243423Y0069078D01*
X0243443Y0069021D01*
X0243459Y0068962D01*
X0243472Y0068903D01*
X0243481Y0068844D01*
X0243486Y0068783D01*
X0243488Y0068723D01*
X0243486Y0068663D01*
X0243481Y0068602D01*
X0243472Y0068543D01*
X0243459Y0068484D01*
X0243443Y0068425D01*
X0243423Y0068368D01*
X0243400Y0068313D01*
X0243373Y0068258D01*
X0243344Y0068206D01*
X0243311Y0068155D01*
X0243275Y0068106D01*
X0243237Y0068060D01*
X0243195Y0068016D01*
X0238953Y0063773D01*
X0238909Y0063731D01*
X0238863Y0063693D01*
X0238814Y0063657D01*
X0238763Y0063624D01*
X0238711Y0063595D01*
X0238656Y0063568D01*
X0238601Y0063545D01*
X0238544Y0063525D01*
X0238485Y0063509D01*
X0238426Y0063496D01*
X0238367Y0063487D01*
X0238306Y0063482D01*
X0238246Y0063480D01*
X0238186Y0063482D01*
X0238125Y0063487D01*
X0238066Y0063496D01*
X0238007Y0063509D01*
X0237948Y0063525D01*
X0237891Y0063545D01*
X0237836Y0063568D01*
X0237781Y0063595D01*
X0237729Y0063624D01*
X0237678Y0063657D01*
X0237629Y0063693D01*
X0237583Y0063731D01*
X0237539Y0063773D01*
X0221250Y0080062D01*
X0221604Y0080415D01*
X0220543Y0081476D02*
X0225493Y0086426D01*
X0226553Y0085365D01*
X0226434Y0080535D02*
X0227848Y0079121D01*
X0229262Y0080535D01*
X0230323Y0079474D02*
X0227494Y0076646D01*
X0228555Y0075585D01*
X0231383Y0078414D01*
X0230323Y0079474D01*
X0227848Y0079121D02*
X0226434Y0077706D01*
X0229616Y0074524D02*
X0231030Y0075939D01*
X0232444Y0077353D01*
X0231030Y0075939D02*
X0232444Y0074524D01*
X0208931Y0030015D02*
X0208931Y0025015D01*
X0206431Y0022515D01*
X0201431Y0022515D01*
X0198931Y0025015D01*
X0208931Y0025015D02*
X0211431Y0022515D01*
X0216431Y0022515D01*
X0218931Y0025015D01*
X0051531Y0062415D02*
X0049731Y0069015D01*
X0038031Y0069015D01*
X0037831Y0068915D02*
X0032831Y0068915D01*
X0030331Y0071415D01*
X0027831Y0068915D01*
X0022831Y0068915D01*
X0020331Y0071415D01*
X0020331Y0076415D01*
X0022831Y0078915D01*
X0020331Y0081415D01*
X0020331Y0086415D01*
X0022831Y0088915D01*
X0020331Y0091415D01*
X0020331Y0096415D01*
X0022831Y0098915D01*
X0020331Y0101415D01*
X0020331Y0106415D01*
X0022831Y0108915D01*
X0020331Y0111415D01*
X0020331Y0116415D01*
X0022831Y0118915D01*
X0027831Y0118915D01*
X0030331Y0116415D01*
X0030331Y0111415D01*
X0027831Y0108915D01*
X0030331Y0106415D01*
X0032831Y0108915D01*
X0030331Y0111415D01*
X0027831Y0108915D02*
X0022831Y0108915D01*
X0030331Y0106415D02*
X0030331Y0101415D01*
X0027831Y0098915D01*
X0030331Y0096415D01*
X0030331Y0091415D01*
X0027831Y0088915D01*
X0030331Y0086415D01*
X0032831Y0088915D01*
X0030331Y0091415D01*
X0027831Y0088915D02*
X0022831Y0088915D01*
X0030331Y0086415D02*
X0030331Y0081415D01*
X0032831Y0078915D01*
X0030331Y0076415D01*
X0027831Y0078915D01*
X0030331Y0081415D01*
X0027831Y0078915D02*
X0022831Y0078915D01*
X0030331Y0076415D02*
X0030331Y0071415D01*
X0037831Y0068915D02*
X0040331Y0071415D01*
X0040331Y0076415D01*
X0037831Y0078915D01*
X0040331Y0081415D01*
X0040331Y0086415D01*
X0037831Y0088915D01*
X0040331Y0091415D01*
X0040331Y0096415D01*
X0037831Y0098915D01*
X0040331Y0101415D01*
X0040331Y0106415D01*
X0037831Y0108915D01*
X0032831Y0108915D01*
X0037831Y0108915D02*
X0040331Y0111415D01*
X0040331Y0116415D01*
X0037831Y0118915D01*
X0032831Y0118915D01*
X0030331Y0116415D01*
X0047931Y0115515D02*
X0047931Y0098115D01*
X0051531Y0090015D01*
X0037831Y0088915D02*
X0032831Y0088915D01*
X0030331Y0096415D02*
X0032831Y0098915D01*
X0030331Y0101415D01*
X0027831Y0098915D02*
X0022831Y0098915D01*
X0032831Y0098915D02*
X0037831Y0098915D01*
X0037831Y0078915D02*
X0032831Y0078915D01*
X0034431Y0062515D02*
X0019431Y0062515D01*
X0016931Y0060015D01*
X0016931Y0055015D01*
X0019431Y0052515D01*
X0034431Y0052515D01*
X0036931Y0050015D01*
X0036931Y0045015D01*
X0034431Y0042515D01*
X0019431Y0042515D01*
X0016931Y0040015D01*
X0016931Y0035015D01*
X0019431Y0032515D01*
X0034431Y0032515D01*
X0036931Y0030015D01*
X0036931Y0025015D01*
X0034431Y0022515D01*
X0036931Y0020015D01*
X0036931Y0015015D01*
X0034431Y0012515D01*
X0019431Y0012515D01*
X0016931Y0015015D01*
X0016931Y0020015D01*
X0019431Y0022515D01*
X0034431Y0022515D01*
X0034431Y0032515D02*
X0036931Y0035015D01*
X0036931Y0040015D01*
X0034431Y0042515D01*
X0034431Y0052515D02*
X0036931Y0055015D01*
X0036931Y0060015D01*
X0034431Y0062515D01*
X0019431Y0052515D02*
X0016931Y0050015D01*
X0016931Y0045015D01*
X0019431Y0042515D01*
X0019431Y0032515D02*
X0016931Y0030015D01*
X0016931Y0025015D01*
X0019431Y0022515D01*
X0102131Y0195763D02*
X0104631Y0198263D01*
X0109631Y0198263D01*
X0112131Y0195763D01*
X0243250Y0199050D02*
X0264947Y0199050D01*
D116*
X0142075Y0102568D02*
X0142077Y0102643D01*
X0142083Y0102717D01*
X0142093Y0102791D01*
X0142106Y0102864D01*
X0142124Y0102937D01*
X0142145Y0103008D01*
X0142170Y0103079D01*
X0142199Y0103148D01*
X0142232Y0103215D01*
X0142268Y0103280D01*
X0142307Y0103344D01*
X0142349Y0103405D01*
X0142395Y0103464D01*
X0142444Y0103521D01*
X0142496Y0103574D01*
X0142550Y0103625D01*
X0142607Y0103674D01*
X0142667Y0103718D01*
X0142729Y0103760D01*
X0142793Y0103799D01*
X0142859Y0103834D01*
X0142926Y0103865D01*
X0142996Y0103893D01*
X0143066Y0103917D01*
X0143138Y0103938D01*
X0143211Y0103954D01*
X0143284Y0103967D01*
X0143359Y0103976D01*
X0143433Y0103981D01*
X0143508Y0103982D01*
X0143582Y0103979D01*
X0143657Y0103972D01*
X0143730Y0103961D01*
X0143804Y0103947D01*
X0143876Y0103928D01*
X0143947Y0103906D01*
X0144017Y0103880D01*
X0144086Y0103850D01*
X0144152Y0103817D01*
X0144217Y0103780D01*
X0144280Y0103740D01*
X0144341Y0103696D01*
X0144399Y0103650D01*
X0144455Y0103600D01*
X0144508Y0103548D01*
X0144559Y0103493D01*
X0144606Y0103435D01*
X0144650Y0103375D01*
X0144691Y0103312D01*
X0144729Y0103248D01*
X0144763Y0103182D01*
X0144794Y0103113D01*
X0144821Y0103044D01*
X0144844Y0102973D01*
X0144863Y0102901D01*
X0144879Y0102828D01*
X0144891Y0102754D01*
X0144899Y0102680D01*
X0144903Y0102605D01*
X0144903Y0102531D01*
X0144899Y0102456D01*
X0144891Y0102382D01*
X0144879Y0102308D01*
X0144863Y0102235D01*
X0144844Y0102163D01*
X0144821Y0102092D01*
X0144794Y0102023D01*
X0144763Y0101954D01*
X0144729Y0101888D01*
X0144691Y0101824D01*
X0144650Y0101761D01*
X0144606Y0101701D01*
X0144559Y0101643D01*
X0144508Y0101588D01*
X0144455Y0101536D01*
X0144399Y0101486D01*
X0144341Y0101440D01*
X0144280Y0101396D01*
X0144217Y0101356D01*
X0144152Y0101319D01*
X0144086Y0101286D01*
X0144017Y0101256D01*
X0143947Y0101230D01*
X0143876Y0101208D01*
X0143804Y0101189D01*
X0143730Y0101175D01*
X0143657Y0101164D01*
X0143582Y0101157D01*
X0143508Y0101154D01*
X0143433Y0101155D01*
X0143359Y0101160D01*
X0143284Y0101169D01*
X0143211Y0101182D01*
X0143138Y0101198D01*
X0143066Y0101219D01*
X0142996Y0101243D01*
X0142926Y0101271D01*
X0142859Y0101302D01*
X0142793Y0101337D01*
X0142729Y0101376D01*
X0142667Y0101418D01*
X0142607Y0101462D01*
X0142550Y0101511D01*
X0142496Y0101562D01*
X0142444Y0101615D01*
X0142395Y0101672D01*
X0142349Y0101731D01*
X0142307Y0101792D01*
X0142268Y0101856D01*
X0142232Y0101921D01*
X0142199Y0101988D01*
X0142170Y0102057D01*
X0142145Y0102128D01*
X0142124Y0102199D01*
X0142106Y0102272D01*
X0142093Y0102345D01*
X0142083Y0102419D01*
X0142077Y0102493D01*
X0142075Y0102568D01*
X0155825Y0086619D02*
X0149550Y0080344D01*
X0159449Y0070444D01*
X0165724Y0076719D01*
X0155825Y0086619D01*
X0106112Y0132225D02*
X0067222Y0093334D01*
X0060151Y0100405D01*
X0099041Y0139296D01*
X0106112Y0132225D01*
X0061382Y0144372D02*
X0061382Y0159332D01*
X0040909Y0159332D01*
X0040909Y0144372D01*
X0061382Y0144372D01*
X0043820Y0155002D02*
X0043822Y0155077D01*
X0043828Y0155152D01*
X0043838Y0155226D01*
X0043852Y0155300D01*
X0043869Y0155373D01*
X0043891Y0155444D01*
X0043916Y0155515D01*
X0043945Y0155584D01*
X0043977Y0155652D01*
X0044013Y0155717D01*
X0044053Y0155781D01*
X0044096Y0155843D01*
X0044142Y0155902D01*
X0044191Y0155959D01*
X0044243Y0156013D01*
X0044297Y0156064D01*
X0044355Y0156112D01*
X0044414Y0156157D01*
X0044477Y0156199D01*
X0044541Y0156238D01*
X0044607Y0156273D01*
X0044675Y0156305D01*
X0044745Y0156333D01*
X0044815Y0156357D01*
X0044888Y0156378D01*
X0044961Y0156394D01*
X0045035Y0156407D01*
X0045109Y0156416D01*
X0045184Y0156421D01*
X0045259Y0156422D01*
X0045334Y0156419D01*
X0045408Y0156412D01*
X0045482Y0156401D01*
X0045556Y0156386D01*
X0045629Y0156368D01*
X0045700Y0156345D01*
X0045770Y0156319D01*
X0045839Y0156289D01*
X0045906Y0156256D01*
X0045972Y0156219D01*
X0046035Y0156179D01*
X0046096Y0156135D01*
X0046154Y0156088D01*
X0046210Y0156039D01*
X0046264Y0155986D01*
X0046314Y0155931D01*
X0046362Y0155873D01*
X0046406Y0155812D01*
X0046447Y0155750D01*
X0046485Y0155685D01*
X0046519Y0155618D01*
X0046550Y0155550D01*
X0046577Y0155480D01*
X0046601Y0155409D01*
X0046620Y0155336D01*
X0046636Y0155263D01*
X0046648Y0155189D01*
X0046656Y0155114D01*
X0046660Y0155039D01*
X0046660Y0154965D01*
X0046656Y0154890D01*
X0046648Y0154815D01*
X0046636Y0154741D01*
X0046620Y0154668D01*
X0046601Y0154595D01*
X0046577Y0154524D01*
X0046550Y0154454D01*
X0046519Y0154386D01*
X0046485Y0154319D01*
X0046447Y0154254D01*
X0046406Y0154192D01*
X0046362Y0154131D01*
X0046314Y0154073D01*
X0046264Y0154018D01*
X0046210Y0153965D01*
X0046154Y0153916D01*
X0046096Y0153869D01*
X0046035Y0153825D01*
X0045972Y0153785D01*
X0045906Y0153748D01*
X0045839Y0153715D01*
X0045770Y0153685D01*
X0045700Y0153659D01*
X0045629Y0153636D01*
X0045556Y0153618D01*
X0045482Y0153603D01*
X0045408Y0153592D01*
X0045334Y0153585D01*
X0045259Y0153582D01*
X0045184Y0153583D01*
X0045109Y0153588D01*
X0045035Y0153597D01*
X0044961Y0153610D01*
X0044888Y0153626D01*
X0044815Y0153647D01*
X0044745Y0153671D01*
X0044675Y0153699D01*
X0044607Y0153731D01*
X0044541Y0153766D01*
X0044477Y0153805D01*
X0044414Y0153847D01*
X0044355Y0153892D01*
X0044297Y0153940D01*
X0044243Y0153991D01*
X0044191Y0154045D01*
X0044142Y0154102D01*
X0044096Y0154161D01*
X0044053Y0154223D01*
X0044013Y0154287D01*
X0043977Y0154352D01*
X0043945Y0154420D01*
X0043916Y0154489D01*
X0043891Y0154560D01*
X0043869Y0154631D01*
X0043852Y0154704D01*
X0043838Y0154778D01*
X0043828Y0154852D01*
X0043822Y0154927D01*
X0043820Y0155002D01*
X0051631Y0089815D02*
X0071631Y0089815D01*
X0071631Y0062315D01*
X0091631Y0062315D01*
X0091631Y0089815D01*
X0071631Y0089815D01*
X0051631Y0089815D02*
X0051631Y0062315D01*
X0071631Y0062315D01*
X0064918Y0054462D02*
X0064012Y0054462D01*
X0064918Y0054462D02*
X0064918Y0042651D01*
X0064012Y0042651D01*
X0057312Y0039356D02*
X0040712Y0039356D01*
X0040712Y0022756D01*
X0057312Y0022756D01*
X0057312Y0039356D01*
X0055469Y0043438D02*
X0055469Y0044619D01*
X0053106Y0044619D01*
X0053106Y0042651D01*
X0054012Y0042651D01*
X0053106Y0044619D02*
X0053106Y0054462D01*
X0054012Y0054462D01*
X0291531Y0050315D02*
X0303531Y0050315D01*
X0303531Y0039815D02*
X0291531Y0039815D01*
X0291531Y0028715D02*
X0303531Y0028715D01*
X0303531Y0018215D02*
X0291531Y0018215D01*
X0291531Y0061415D02*
X0303531Y0061415D01*
X0303531Y0071915D02*
X0291531Y0071915D01*
X0291531Y0083015D02*
X0303531Y0083015D01*
X0303531Y0093515D02*
X0291531Y0093515D01*
D117*
X0109839Y0060515D03*
X0078331Y0026223D03*
X0094545Y0156631D03*
X0094445Y0162331D03*
D118*
X0144352Y0113067D02*
X0143644Y0112360D01*
X0143644Y0111652D01*
X0142622Y0111338D02*
X0144392Y0109568D01*
X0144392Y0108861D01*
X0143684Y0108153D01*
X0142976Y0108153D01*
X0141207Y0109922D01*
X0144352Y0113067D02*
X0145060Y0113067D01*
X0145414Y0112713D01*
X0145414Y0109883D01*
X0146829Y0111298D01*
X0260348Y0180150D02*
X0260350Y0180225D01*
X0260356Y0180299D01*
X0260366Y0180373D01*
X0260380Y0180446D01*
X0260397Y0180518D01*
X0260419Y0180590D01*
X0260444Y0180660D01*
X0260473Y0180728D01*
X0260506Y0180796D01*
X0260542Y0180861D01*
X0260581Y0180924D01*
X0260624Y0180985D01*
X0260670Y0181044D01*
X0260719Y0181100D01*
X0260771Y0181153D01*
X0260826Y0181204D01*
X0260883Y0181251D01*
X0260943Y0181296D01*
X0261005Y0181337D01*
X0261070Y0181375D01*
X0261136Y0181409D01*
X0261204Y0181440D01*
X0261273Y0181467D01*
X0261344Y0181490D01*
X0261416Y0181510D01*
X0261489Y0181526D01*
X0261562Y0181538D01*
X0261636Y0181546D01*
X0261711Y0181550D01*
X0261785Y0181550D01*
X0261860Y0181546D01*
X0261934Y0181538D01*
X0262007Y0181526D01*
X0262080Y0181510D01*
X0262152Y0181490D01*
X0262223Y0181467D01*
X0262292Y0181440D01*
X0262360Y0181409D01*
X0262426Y0181375D01*
X0262491Y0181337D01*
X0262553Y0181296D01*
X0262613Y0181251D01*
X0262670Y0181204D01*
X0262725Y0181153D01*
X0262777Y0181100D01*
X0262826Y0181044D01*
X0262872Y0180985D01*
X0262915Y0180924D01*
X0262954Y0180861D01*
X0262990Y0180796D01*
X0263023Y0180728D01*
X0263052Y0180660D01*
X0263077Y0180590D01*
X0263099Y0180518D01*
X0263116Y0180446D01*
X0263130Y0180373D01*
X0263140Y0180299D01*
X0263146Y0180225D01*
X0263148Y0180150D01*
X0263146Y0180075D01*
X0263140Y0180001D01*
X0263130Y0179927D01*
X0263116Y0179854D01*
X0263099Y0179782D01*
X0263077Y0179710D01*
X0263052Y0179640D01*
X0263023Y0179572D01*
X0262990Y0179504D01*
X0262954Y0179439D01*
X0262915Y0179376D01*
X0262872Y0179315D01*
X0262826Y0179256D01*
X0262777Y0179200D01*
X0262725Y0179147D01*
X0262670Y0179096D01*
X0262613Y0179049D01*
X0262553Y0179004D01*
X0262491Y0178963D01*
X0262426Y0178925D01*
X0262360Y0178891D01*
X0262292Y0178860D01*
X0262223Y0178833D01*
X0262152Y0178810D01*
X0262080Y0178790D01*
X0262007Y0178774D01*
X0261934Y0178762D01*
X0261860Y0178754D01*
X0261785Y0178750D01*
X0261711Y0178750D01*
X0261636Y0178754D01*
X0261562Y0178762D01*
X0261489Y0178774D01*
X0261416Y0178790D01*
X0261344Y0178810D01*
X0261273Y0178833D01*
X0261204Y0178860D01*
X0261136Y0178891D01*
X0261070Y0178925D01*
X0261005Y0178963D01*
X0260943Y0179004D01*
X0260883Y0179049D01*
X0260826Y0179096D01*
X0260771Y0179147D01*
X0260719Y0179200D01*
X0260670Y0179256D01*
X0260624Y0179315D01*
X0260581Y0179376D01*
X0260542Y0179439D01*
X0260506Y0179504D01*
X0260473Y0179572D01*
X0260444Y0179640D01*
X0260419Y0179710D01*
X0260397Y0179782D01*
X0260380Y0179854D01*
X0260366Y0179927D01*
X0260356Y0180001D01*
X0260350Y0180075D01*
X0260348Y0180150D01*
X0278698Y0086317D02*
X0279432Y0086317D01*
X0279799Y0085950D01*
X0278331Y0084482D01*
X0278698Y0084115D01*
X0279432Y0084115D01*
X0279799Y0084482D01*
X0279799Y0085950D01*
X0278698Y0086317D02*
X0278331Y0085950D01*
X0278331Y0084482D01*
X0280541Y0084482D02*
X0280908Y0084482D01*
X0280908Y0084115D01*
X0280541Y0084115D01*
X0280541Y0084482D01*
X0281646Y0084482D02*
X0283114Y0085950D01*
X0283114Y0084482D01*
X0282747Y0084115D01*
X0282013Y0084115D01*
X0281646Y0084482D01*
X0281646Y0085950D01*
X0282013Y0086317D01*
X0282747Y0086317D01*
X0283114Y0085950D01*
X0283856Y0086317D02*
X0283856Y0085216D01*
X0284590Y0085583D01*
X0284957Y0085583D01*
X0285324Y0085216D01*
X0285324Y0084482D01*
X0284957Y0084115D01*
X0284223Y0084115D01*
X0283856Y0084482D01*
X0283856Y0086317D02*
X0285324Y0086317D01*
X0286066Y0086317D02*
X0287167Y0086317D01*
X0287534Y0085950D01*
X0287534Y0085216D01*
X0287167Y0084849D01*
X0286066Y0084849D01*
X0286800Y0084849D02*
X0287534Y0084115D01*
X0286066Y0084115D02*
X0286066Y0086317D01*
X0285866Y0065317D02*
X0286967Y0065317D01*
X0287334Y0064950D01*
X0287334Y0064216D01*
X0286967Y0063849D01*
X0285866Y0063849D01*
X0286600Y0063849D02*
X0287334Y0063115D01*
X0285866Y0063115D02*
X0285866Y0065317D01*
X0285124Y0065317D02*
X0283656Y0065317D01*
X0283656Y0064216D01*
X0284390Y0064583D01*
X0284757Y0064583D01*
X0285124Y0064216D01*
X0285124Y0063482D01*
X0284757Y0063115D01*
X0284023Y0063115D01*
X0283656Y0063482D01*
X0282914Y0063482D02*
X0282914Y0064950D01*
X0281446Y0063482D01*
X0281813Y0063115D01*
X0282547Y0063115D01*
X0282914Y0063482D01*
X0281446Y0063482D02*
X0281446Y0064950D01*
X0281813Y0065317D01*
X0282547Y0065317D01*
X0282914Y0064950D01*
X0280708Y0063482D02*
X0280708Y0063115D01*
X0280341Y0063115D01*
X0280341Y0063482D01*
X0280708Y0063482D01*
X0279599Y0063482D02*
X0279599Y0064950D01*
X0278131Y0063482D01*
X0278498Y0063115D01*
X0279232Y0063115D01*
X0279599Y0063482D01*
X0278131Y0063482D02*
X0278131Y0064950D01*
X0278498Y0065317D01*
X0279232Y0065317D01*
X0279599Y0064950D01*
X0278388Y0043417D02*
X0278755Y0043050D01*
X0277287Y0041582D01*
X0277654Y0041215D01*
X0278388Y0041215D01*
X0278755Y0041582D01*
X0278755Y0043050D01*
X0278388Y0043417D02*
X0277654Y0043417D01*
X0277287Y0043050D01*
X0277287Y0041582D01*
X0279497Y0041582D02*
X0279864Y0041582D01*
X0279864Y0041215D01*
X0279497Y0041215D01*
X0279497Y0041582D01*
X0280602Y0041582D02*
X0282070Y0043050D01*
X0282070Y0041582D01*
X0281703Y0041215D01*
X0280969Y0041215D01*
X0280602Y0041582D01*
X0280602Y0043050D01*
X0280969Y0043417D01*
X0281703Y0043417D01*
X0282070Y0043050D01*
X0282812Y0043417D02*
X0282812Y0042316D01*
X0283546Y0042683D01*
X0283913Y0042683D01*
X0284280Y0042316D01*
X0284280Y0041582D01*
X0283913Y0041215D01*
X0283179Y0041215D01*
X0282812Y0041582D01*
X0282812Y0043417D02*
X0284280Y0043417D01*
X0285022Y0043417D02*
X0286123Y0043417D01*
X0286489Y0043050D01*
X0286489Y0042316D01*
X0286123Y0041949D01*
X0285022Y0041949D01*
X0285756Y0041949D02*
X0286489Y0041215D01*
X0285022Y0041215D02*
X0285022Y0043417D01*
X0294798Y0017417D02*
X0295532Y0017417D01*
X0295899Y0017050D01*
X0294431Y0015582D01*
X0294798Y0015215D01*
X0295532Y0015215D01*
X0295899Y0015582D01*
X0295899Y0017050D01*
X0294798Y0017417D02*
X0294431Y0017050D01*
X0294431Y0015582D01*
X0296641Y0015582D02*
X0297008Y0015582D01*
X0297008Y0015215D01*
X0296641Y0015215D01*
X0296641Y0015582D01*
X0297746Y0015582D02*
X0299214Y0017050D01*
X0299214Y0015582D01*
X0298847Y0015215D01*
X0298113Y0015215D01*
X0297746Y0015582D01*
X0297746Y0017050D01*
X0298113Y0017417D01*
X0298847Y0017417D01*
X0299214Y0017050D01*
X0299956Y0017417D02*
X0299956Y0016316D01*
X0300690Y0016683D01*
X0301057Y0016683D01*
X0301424Y0016316D01*
X0301424Y0015582D01*
X0301057Y0015215D01*
X0300323Y0015215D01*
X0299956Y0015582D01*
X0299956Y0017417D02*
X0301424Y0017417D01*
X0302166Y0017417D02*
X0303267Y0017417D01*
X0303634Y0017050D01*
X0303634Y0016316D01*
X0303267Y0015949D01*
X0302166Y0015949D01*
X0302900Y0015949D02*
X0303634Y0015215D01*
X0302166Y0015215D02*
X0302166Y0017417D01*
D119*
X0201408Y0048001D02*
X0201408Y0048198D01*
X0201408Y0056662D01*
X0201409Y0056662D02*
X0201407Y0056708D01*
X0201402Y0056754D01*
X0201393Y0056800D01*
X0201380Y0056845D01*
X0201364Y0056888D01*
X0201345Y0056930D01*
X0201322Y0056971D01*
X0201296Y0057009D01*
X0201267Y0057046D01*
X0201236Y0057080D01*
X0201202Y0057111D01*
X0201165Y0057140D01*
X0201127Y0057166D01*
X0201086Y0057189D01*
X0201044Y0057208D01*
X0201001Y0057224D01*
X0200956Y0057237D01*
X0200910Y0057246D01*
X0200864Y0057251D01*
X0200818Y0057253D01*
X0192156Y0057253D01*
X0192110Y0057251D01*
X0192064Y0057246D01*
X0192018Y0057237D01*
X0191973Y0057224D01*
X0191930Y0057208D01*
X0191888Y0057189D01*
X0191847Y0057166D01*
X0191809Y0057140D01*
X0191772Y0057111D01*
X0191738Y0057080D01*
X0191707Y0057046D01*
X0191678Y0057009D01*
X0191652Y0056971D01*
X0191629Y0056930D01*
X0191610Y0056888D01*
X0191594Y0056845D01*
X0191581Y0056800D01*
X0191572Y0056754D01*
X0191567Y0056708D01*
X0191565Y0056662D01*
X0191566Y0056662D02*
X0191566Y0056465D01*
X0191566Y0048001D01*
X0191565Y0048001D02*
X0191567Y0047955D01*
X0191572Y0047909D01*
X0191581Y0047863D01*
X0191594Y0047818D01*
X0191610Y0047775D01*
X0191629Y0047733D01*
X0191652Y0047692D01*
X0191678Y0047654D01*
X0191707Y0047617D01*
X0191738Y0047583D01*
X0191772Y0047552D01*
X0191809Y0047523D01*
X0191847Y0047497D01*
X0191888Y0047474D01*
X0191930Y0047455D01*
X0191973Y0047439D01*
X0192018Y0047426D01*
X0192064Y0047417D01*
X0192110Y0047412D01*
X0192156Y0047410D01*
X0192353Y0047410D01*
X0200818Y0047410D01*
X0200864Y0047412D01*
X0200910Y0047417D01*
X0200956Y0047426D01*
X0201001Y0047439D01*
X0201044Y0047455D01*
X0201086Y0047474D01*
X0201127Y0047497D01*
X0201165Y0047523D01*
X0201202Y0047552D01*
X0201236Y0047583D01*
X0201267Y0047617D01*
X0201296Y0047654D01*
X0201322Y0047692D01*
X0201345Y0047733D01*
X0201364Y0047775D01*
X0201380Y0047818D01*
X0201393Y0047863D01*
X0201402Y0047909D01*
X0201407Y0047955D01*
X0201409Y0048001D01*
X0194125Y0048591D02*
X0194127Y0048630D01*
X0194133Y0048669D01*
X0194143Y0048707D01*
X0194156Y0048744D01*
X0194173Y0048779D01*
X0194193Y0048813D01*
X0194217Y0048844D01*
X0194244Y0048873D01*
X0194273Y0048899D01*
X0194305Y0048922D01*
X0194339Y0048942D01*
X0194375Y0048958D01*
X0194412Y0048970D01*
X0194451Y0048979D01*
X0194490Y0048984D01*
X0194529Y0048985D01*
X0194568Y0048982D01*
X0194607Y0048975D01*
X0194644Y0048964D01*
X0194681Y0048950D01*
X0194716Y0048932D01*
X0194749Y0048911D01*
X0194780Y0048886D01*
X0194808Y0048859D01*
X0194833Y0048829D01*
X0194855Y0048796D01*
X0194874Y0048762D01*
X0194889Y0048726D01*
X0194901Y0048688D01*
X0194909Y0048650D01*
X0194913Y0048611D01*
X0194913Y0048571D01*
X0194909Y0048532D01*
X0194901Y0048494D01*
X0194889Y0048456D01*
X0194874Y0048420D01*
X0194855Y0048386D01*
X0194833Y0048353D01*
X0194808Y0048323D01*
X0194780Y0048296D01*
X0194749Y0048271D01*
X0194716Y0048250D01*
X0194681Y0048232D01*
X0194644Y0048218D01*
X0194607Y0048207D01*
X0194568Y0048200D01*
X0194529Y0048197D01*
X0194490Y0048198D01*
X0194451Y0048203D01*
X0194412Y0048212D01*
X0194375Y0048224D01*
X0194339Y0048240D01*
X0194305Y0048260D01*
X0194273Y0048283D01*
X0194244Y0048309D01*
X0194217Y0048338D01*
X0194193Y0048369D01*
X0194173Y0048403D01*
X0194156Y0048438D01*
X0194143Y0048475D01*
X0194133Y0048513D01*
X0194127Y0048552D01*
X0194125Y0048591D01*
D120*
X0192550Y0048000D02*
X0192511Y0048002D01*
X0192473Y0048008D01*
X0192436Y0048017D01*
X0192399Y0048030D01*
X0192364Y0048047D01*
X0192331Y0048066D01*
X0192300Y0048089D01*
X0192271Y0048115D01*
X0192245Y0048144D01*
X0192222Y0048175D01*
X0192203Y0048208D01*
X0192186Y0048243D01*
X0192173Y0048280D01*
X0192164Y0048317D01*
X0192158Y0048355D01*
X0192156Y0048394D01*
X0200424Y0048000D02*
X0200463Y0048002D01*
X0200501Y0048008D01*
X0200538Y0048017D01*
X0200575Y0048030D01*
X0200610Y0048047D01*
X0200643Y0048066D01*
X0200674Y0048089D01*
X0200703Y0048115D01*
X0200729Y0048144D01*
X0200752Y0048175D01*
X0200771Y0048208D01*
X0200788Y0048243D01*
X0200801Y0048280D01*
X0200810Y0048317D01*
X0200816Y0048355D01*
X0200818Y0048394D01*
X0200818Y0056269D02*
X0200816Y0056308D01*
X0200810Y0056346D01*
X0200801Y0056383D01*
X0200788Y0056420D01*
X0200771Y0056455D01*
X0200752Y0056488D01*
X0200729Y0056519D01*
X0200703Y0056548D01*
X0200674Y0056574D01*
X0200643Y0056597D01*
X0200610Y0056616D01*
X0200575Y0056633D01*
X0200538Y0056646D01*
X0200501Y0056655D01*
X0200463Y0056661D01*
X0200424Y0056663D01*
X0192550Y0056663D02*
X0192511Y0056661D01*
X0192473Y0056655D01*
X0192436Y0056646D01*
X0192399Y0056633D01*
X0192364Y0056616D01*
X0192331Y0056597D01*
X0192300Y0056574D01*
X0192271Y0056548D01*
X0192245Y0056519D01*
X0192222Y0056488D01*
X0192203Y0056455D01*
X0192186Y0056420D01*
X0192173Y0056383D01*
X0192164Y0056346D01*
X0192158Y0056308D01*
X0192156Y0056269D01*
D121*
X0047446Y0166852D03*
D122*
X0289931Y0103715D03*
X0289931Y0082115D03*
X0289931Y0060515D03*
X0289931Y0038915D03*
D123*
X0112918Y0122857D02*
X0112918Y0123588D01*
X0112187Y0124320D01*
X0111456Y0123588D01*
X0111456Y0122126D02*
X0109993Y0123588D01*
X0109993Y0124320D01*
X0110724Y0125051D01*
X0111456Y0125051D01*
X0112918Y0122857D02*
X0112187Y0122126D01*
X0111456Y0122126D01*
X0110639Y0121310D02*
X0109177Y0122772D01*
X0108446Y0122772D01*
X0107714Y0122041D01*
X0107714Y0121310D01*
X0109177Y0119847D01*
X0109908Y0119847D01*
X0110639Y0120578D01*
X0110639Y0121310D01*
X0108726Y0118665D02*
X0107264Y0118665D01*
X0107629Y0119031D02*
X0106532Y0117934D01*
X0107264Y0117203D02*
X0105070Y0119396D01*
X0106167Y0120493D01*
X0106898Y0120493D01*
X0107629Y0119762D01*
X0107629Y0119031D01*
X0105350Y0117483D02*
X0105350Y0116752D01*
X0104254Y0115655D01*
X0104985Y0114924D02*
X0102791Y0117118D01*
X0103888Y0118215D01*
X0104619Y0118215D01*
X0105350Y0117483D01*
M02*
