G75*
%MOIN*%
%OFA0B0*%
%FSLAX25Y25*%
%IPPOS*%
%LPD*%
%AMOC8*
5,1,8,0,0,1.08239X$1,22.5*
%
%ADD10C,0.00000*%
%ADD11C,0.00200*%
%ADD12C,0.00600*%
%ADD13C,0.00300*%
%ADD14C,0.00500*%
%ADD15C,0.00700*%
D10*
X0007131Y0012652D02*
X0007131Y0209502D01*
X0326029Y0209502D01*
X0326029Y0012652D01*
X0007131Y0012652D01*
X0095714Y0044148D02*
X0095716Y0044301D01*
X0095722Y0044455D01*
X0095732Y0044608D01*
X0095746Y0044760D01*
X0095764Y0044913D01*
X0095786Y0045064D01*
X0095811Y0045215D01*
X0095841Y0045366D01*
X0095875Y0045516D01*
X0095912Y0045664D01*
X0095953Y0045812D01*
X0095998Y0045958D01*
X0096047Y0046104D01*
X0096100Y0046248D01*
X0096156Y0046390D01*
X0096216Y0046531D01*
X0096280Y0046671D01*
X0096347Y0046809D01*
X0096418Y0046945D01*
X0096493Y0047079D01*
X0096570Y0047211D01*
X0096652Y0047341D01*
X0096736Y0047469D01*
X0096824Y0047595D01*
X0096915Y0047718D01*
X0097009Y0047839D01*
X0097107Y0047957D01*
X0097207Y0048073D01*
X0097311Y0048186D01*
X0097417Y0048297D01*
X0097526Y0048405D01*
X0097638Y0048510D01*
X0097752Y0048611D01*
X0097870Y0048710D01*
X0097989Y0048806D01*
X0098111Y0048899D01*
X0098236Y0048988D01*
X0098363Y0049075D01*
X0098492Y0049157D01*
X0098623Y0049237D01*
X0098756Y0049313D01*
X0098891Y0049386D01*
X0099028Y0049455D01*
X0099167Y0049520D01*
X0099307Y0049582D01*
X0099449Y0049640D01*
X0099592Y0049695D01*
X0099737Y0049746D01*
X0099883Y0049793D01*
X0100030Y0049836D01*
X0100178Y0049875D01*
X0100327Y0049911D01*
X0100477Y0049942D01*
X0100628Y0049970D01*
X0100779Y0049994D01*
X0100932Y0050014D01*
X0101084Y0050030D01*
X0101237Y0050042D01*
X0101390Y0050050D01*
X0101543Y0050054D01*
X0101697Y0050054D01*
X0101850Y0050050D01*
X0102003Y0050042D01*
X0102156Y0050030D01*
X0102308Y0050014D01*
X0102461Y0049994D01*
X0102612Y0049970D01*
X0102763Y0049942D01*
X0102913Y0049911D01*
X0103062Y0049875D01*
X0103210Y0049836D01*
X0103357Y0049793D01*
X0103503Y0049746D01*
X0103648Y0049695D01*
X0103791Y0049640D01*
X0103933Y0049582D01*
X0104073Y0049520D01*
X0104212Y0049455D01*
X0104349Y0049386D01*
X0104484Y0049313D01*
X0104617Y0049237D01*
X0104748Y0049157D01*
X0104877Y0049075D01*
X0105004Y0048988D01*
X0105129Y0048899D01*
X0105251Y0048806D01*
X0105370Y0048710D01*
X0105488Y0048611D01*
X0105602Y0048510D01*
X0105714Y0048405D01*
X0105823Y0048297D01*
X0105929Y0048186D01*
X0106033Y0048073D01*
X0106133Y0047957D01*
X0106231Y0047839D01*
X0106325Y0047718D01*
X0106416Y0047595D01*
X0106504Y0047469D01*
X0106588Y0047341D01*
X0106670Y0047211D01*
X0106747Y0047079D01*
X0106822Y0046945D01*
X0106893Y0046809D01*
X0106960Y0046671D01*
X0107024Y0046531D01*
X0107084Y0046390D01*
X0107140Y0046248D01*
X0107193Y0046104D01*
X0107242Y0045958D01*
X0107287Y0045812D01*
X0107328Y0045664D01*
X0107365Y0045516D01*
X0107399Y0045366D01*
X0107429Y0045215D01*
X0107454Y0045064D01*
X0107476Y0044913D01*
X0107494Y0044760D01*
X0107508Y0044608D01*
X0107518Y0044455D01*
X0107524Y0044301D01*
X0107526Y0044148D01*
X0107524Y0043995D01*
X0107518Y0043841D01*
X0107508Y0043688D01*
X0107494Y0043536D01*
X0107476Y0043383D01*
X0107454Y0043232D01*
X0107429Y0043081D01*
X0107399Y0042930D01*
X0107365Y0042780D01*
X0107328Y0042632D01*
X0107287Y0042484D01*
X0107242Y0042338D01*
X0107193Y0042192D01*
X0107140Y0042048D01*
X0107084Y0041906D01*
X0107024Y0041765D01*
X0106960Y0041625D01*
X0106893Y0041487D01*
X0106822Y0041351D01*
X0106747Y0041217D01*
X0106670Y0041085D01*
X0106588Y0040955D01*
X0106504Y0040827D01*
X0106416Y0040701D01*
X0106325Y0040578D01*
X0106231Y0040457D01*
X0106133Y0040339D01*
X0106033Y0040223D01*
X0105929Y0040110D01*
X0105823Y0039999D01*
X0105714Y0039891D01*
X0105602Y0039786D01*
X0105488Y0039685D01*
X0105370Y0039586D01*
X0105251Y0039490D01*
X0105129Y0039397D01*
X0105004Y0039308D01*
X0104877Y0039221D01*
X0104748Y0039139D01*
X0104617Y0039059D01*
X0104484Y0038983D01*
X0104349Y0038910D01*
X0104212Y0038841D01*
X0104073Y0038776D01*
X0103933Y0038714D01*
X0103791Y0038656D01*
X0103648Y0038601D01*
X0103503Y0038550D01*
X0103357Y0038503D01*
X0103210Y0038460D01*
X0103062Y0038421D01*
X0102913Y0038385D01*
X0102763Y0038354D01*
X0102612Y0038326D01*
X0102461Y0038302D01*
X0102308Y0038282D01*
X0102156Y0038266D01*
X0102003Y0038254D01*
X0101850Y0038246D01*
X0101697Y0038242D01*
X0101543Y0038242D01*
X0101390Y0038246D01*
X0101237Y0038254D01*
X0101084Y0038266D01*
X0100932Y0038282D01*
X0100779Y0038302D01*
X0100628Y0038326D01*
X0100477Y0038354D01*
X0100327Y0038385D01*
X0100178Y0038421D01*
X0100030Y0038460D01*
X0099883Y0038503D01*
X0099737Y0038550D01*
X0099592Y0038601D01*
X0099449Y0038656D01*
X0099307Y0038714D01*
X0099167Y0038776D01*
X0099028Y0038841D01*
X0098891Y0038910D01*
X0098756Y0038983D01*
X0098623Y0039059D01*
X0098492Y0039139D01*
X0098363Y0039221D01*
X0098236Y0039308D01*
X0098111Y0039397D01*
X0097989Y0039490D01*
X0097870Y0039586D01*
X0097752Y0039685D01*
X0097638Y0039786D01*
X0097526Y0039891D01*
X0097417Y0039999D01*
X0097311Y0040110D01*
X0097207Y0040223D01*
X0097107Y0040339D01*
X0097009Y0040457D01*
X0096915Y0040578D01*
X0096824Y0040701D01*
X0096736Y0040827D01*
X0096652Y0040955D01*
X0096570Y0041085D01*
X0096493Y0041217D01*
X0096418Y0041351D01*
X0096347Y0041487D01*
X0096280Y0041625D01*
X0096216Y0041765D01*
X0096156Y0041906D01*
X0096100Y0042048D01*
X0096047Y0042192D01*
X0095998Y0042338D01*
X0095953Y0042484D01*
X0095912Y0042632D01*
X0095875Y0042780D01*
X0095841Y0042930D01*
X0095811Y0043081D01*
X0095786Y0043232D01*
X0095764Y0043383D01*
X0095746Y0043536D01*
X0095732Y0043688D01*
X0095722Y0043841D01*
X0095716Y0043995D01*
X0095714Y0044148D01*
X0276816Y0138636D02*
X0276818Y0138789D01*
X0276824Y0138943D01*
X0276834Y0139096D01*
X0276848Y0139248D01*
X0276866Y0139401D01*
X0276888Y0139552D01*
X0276913Y0139703D01*
X0276943Y0139854D01*
X0276977Y0140004D01*
X0277014Y0140152D01*
X0277055Y0140300D01*
X0277100Y0140446D01*
X0277149Y0140592D01*
X0277202Y0140736D01*
X0277258Y0140878D01*
X0277318Y0141019D01*
X0277382Y0141159D01*
X0277449Y0141297D01*
X0277520Y0141433D01*
X0277595Y0141567D01*
X0277672Y0141699D01*
X0277754Y0141829D01*
X0277838Y0141957D01*
X0277926Y0142083D01*
X0278017Y0142206D01*
X0278111Y0142327D01*
X0278209Y0142445D01*
X0278309Y0142561D01*
X0278413Y0142674D01*
X0278519Y0142785D01*
X0278628Y0142893D01*
X0278740Y0142998D01*
X0278854Y0143099D01*
X0278972Y0143198D01*
X0279091Y0143294D01*
X0279213Y0143387D01*
X0279338Y0143476D01*
X0279465Y0143563D01*
X0279594Y0143645D01*
X0279725Y0143725D01*
X0279858Y0143801D01*
X0279993Y0143874D01*
X0280130Y0143943D01*
X0280269Y0144008D01*
X0280409Y0144070D01*
X0280551Y0144128D01*
X0280694Y0144183D01*
X0280839Y0144234D01*
X0280985Y0144281D01*
X0281132Y0144324D01*
X0281280Y0144363D01*
X0281429Y0144399D01*
X0281579Y0144430D01*
X0281730Y0144458D01*
X0281881Y0144482D01*
X0282034Y0144502D01*
X0282186Y0144518D01*
X0282339Y0144530D01*
X0282492Y0144538D01*
X0282645Y0144542D01*
X0282799Y0144542D01*
X0282952Y0144538D01*
X0283105Y0144530D01*
X0283258Y0144518D01*
X0283410Y0144502D01*
X0283563Y0144482D01*
X0283714Y0144458D01*
X0283865Y0144430D01*
X0284015Y0144399D01*
X0284164Y0144363D01*
X0284312Y0144324D01*
X0284459Y0144281D01*
X0284605Y0144234D01*
X0284750Y0144183D01*
X0284893Y0144128D01*
X0285035Y0144070D01*
X0285175Y0144008D01*
X0285314Y0143943D01*
X0285451Y0143874D01*
X0285586Y0143801D01*
X0285719Y0143725D01*
X0285850Y0143645D01*
X0285979Y0143563D01*
X0286106Y0143476D01*
X0286231Y0143387D01*
X0286353Y0143294D01*
X0286472Y0143198D01*
X0286590Y0143099D01*
X0286704Y0142998D01*
X0286816Y0142893D01*
X0286925Y0142785D01*
X0287031Y0142674D01*
X0287135Y0142561D01*
X0287235Y0142445D01*
X0287333Y0142327D01*
X0287427Y0142206D01*
X0287518Y0142083D01*
X0287606Y0141957D01*
X0287690Y0141829D01*
X0287772Y0141699D01*
X0287849Y0141567D01*
X0287924Y0141433D01*
X0287995Y0141297D01*
X0288062Y0141159D01*
X0288126Y0141019D01*
X0288186Y0140878D01*
X0288242Y0140736D01*
X0288295Y0140592D01*
X0288344Y0140446D01*
X0288389Y0140300D01*
X0288430Y0140152D01*
X0288467Y0140004D01*
X0288501Y0139854D01*
X0288531Y0139703D01*
X0288556Y0139552D01*
X0288578Y0139401D01*
X0288596Y0139248D01*
X0288610Y0139096D01*
X0288620Y0138943D01*
X0288626Y0138789D01*
X0288628Y0138636D01*
X0288626Y0138483D01*
X0288620Y0138329D01*
X0288610Y0138176D01*
X0288596Y0138024D01*
X0288578Y0137871D01*
X0288556Y0137720D01*
X0288531Y0137569D01*
X0288501Y0137418D01*
X0288467Y0137268D01*
X0288430Y0137120D01*
X0288389Y0136972D01*
X0288344Y0136826D01*
X0288295Y0136680D01*
X0288242Y0136536D01*
X0288186Y0136394D01*
X0288126Y0136253D01*
X0288062Y0136113D01*
X0287995Y0135975D01*
X0287924Y0135839D01*
X0287849Y0135705D01*
X0287772Y0135573D01*
X0287690Y0135443D01*
X0287606Y0135315D01*
X0287518Y0135189D01*
X0287427Y0135066D01*
X0287333Y0134945D01*
X0287235Y0134827D01*
X0287135Y0134711D01*
X0287031Y0134598D01*
X0286925Y0134487D01*
X0286816Y0134379D01*
X0286704Y0134274D01*
X0286590Y0134173D01*
X0286472Y0134074D01*
X0286353Y0133978D01*
X0286231Y0133885D01*
X0286106Y0133796D01*
X0285979Y0133709D01*
X0285850Y0133627D01*
X0285719Y0133547D01*
X0285586Y0133471D01*
X0285451Y0133398D01*
X0285314Y0133329D01*
X0285175Y0133264D01*
X0285035Y0133202D01*
X0284893Y0133144D01*
X0284750Y0133089D01*
X0284605Y0133038D01*
X0284459Y0132991D01*
X0284312Y0132948D01*
X0284164Y0132909D01*
X0284015Y0132873D01*
X0283865Y0132842D01*
X0283714Y0132814D01*
X0283563Y0132790D01*
X0283410Y0132770D01*
X0283258Y0132754D01*
X0283105Y0132742D01*
X0282952Y0132734D01*
X0282799Y0132730D01*
X0282645Y0132730D01*
X0282492Y0132734D01*
X0282339Y0132742D01*
X0282186Y0132754D01*
X0282034Y0132770D01*
X0281881Y0132790D01*
X0281730Y0132814D01*
X0281579Y0132842D01*
X0281429Y0132873D01*
X0281280Y0132909D01*
X0281132Y0132948D01*
X0280985Y0132991D01*
X0280839Y0133038D01*
X0280694Y0133089D01*
X0280551Y0133144D01*
X0280409Y0133202D01*
X0280269Y0133264D01*
X0280130Y0133329D01*
X0279993Y0133398D01*
X0279858Y0133471D01*
X0279725Y0133547D01*
X0279594Y0133627D01*
X0279465Y0133709D01*
X0279338Y0133796D01*
X0279213Y0133885D01*
X0279091Y0133978D01*
X0278972Y0134074D01*
X0278854Y0134173D01*
X0278740Y0134274D01*
X0278628Y0134379D01*
X0278519Y0134487D01*
X0278413Y0134598D01*
X0278309Y0134711D01*
X0278209Y0134827D01*
X0278111Y0134945D01*
X0278017Y0135066D01*
X0277926Y0135189D01*
X0277838Y0135315D01*
X0277754Y0135443D01*
X0277672Y0135573D01*
X0277595Y0135705D01*
X0277520Y0135839D01*
X0277449Y0135975D01*
X0277382Y0136113D01*
X0277318Y0136253D01*
X0277258Y0136394D01*
X0277202Y0136536D01*
X0277149Y0136680D01*
X0277100Y0136826D01*
X0277055Y0136972D01*
X0277014Y0137120D01*
X0276977Y0137268D01*
X0276943Y0137418D01*
X0276913Y0137569D01*
X0276888Y0137720D01*
X0276866Y0137871D01*
X0276848Y0138024D01*
X0276834Y0138176D01*
X0276824Y0138329D01*
X0276818Y0138483D01*
X0276816Y0138636D01*
D11*
X0295165Y0188496D02*
X0295532Y0188863D01*
X0295532Y0190331D01*
X0295899Y0189964D02*
X0295165Y0189964D01*
X0296641Y0189964D02*
X0298109Y0188496D01*
X0298851Y0189230D02*
X0300319Y0189230D01*
X0300319Y0188863D02*
X0300319Y0189597D01*
X0299952Y0189964D01*
X0299218Y0189964D01*
X0298851Y0189597D01*
X0298851Y0189230D01*
X0299218Y0188496D02*
X0299952Y0188496D01*
X0300319Y0188863D01*
X0301061Y0188129D02*
X0302529Y0188129D01*
X0303271Y0189230D02*
X0303271Y0190698D01*
X0303271Y0189230D02*
X0304005Y0188496D01*
X0304739Y0189230D01*
X0304739Y0190698D01*
X0307688Y0189964D02*
X0308422Y0189964D01*
X0308055Y0190331D02*
X0308055Y0188863D01*
X0307688Y0188496D01*
X0309164Y0188863D02*
X0309164Y0189597D01*
X0309531Y0189964D01*
X0310265Y0189964D01*
X0310632Y0189597D01*
X0310632Y0188863D01*
X0310265Y0188496D01*
X0309531Y0188496D01*
X0309164Y0188863D01*
X0311374Y0188496D02*
X0311374Y0189597D01*
X0311741Y0189964D01*
X0312108Y0189597D01*
X0312108Y0188496D01*
X0312842Y0188496D02*
X0312842Y0189964D01*
X0312475Y0189964D01*
X0312108Y0189597D01*
X0313584Y0188129D02*
X0315052Y0188129D01*
X0315794Y0189230D02*
X0315794Y0190698D01*
X0317262Y0190698D02*
X0317262Y0189230D01*
X0316528Y0188496D01*
X0315794Y0189230D01*
X0320213Y0189230D02*
X0320213Y0188863D01*
X0320580Y0188496D01*
X0321314Y0188496D01*
X0321681Y0188863D01*
X0322423Y0189230D02*
X0322423Y0190698D01*
X0321681Y0190331D02*
X0321314Y0190698D01*
X0320580Y0190698D01*
X0320213Y0190331D01*
X0320213Y0189964D01*
X0320580Y0189597D01*
X0320213Y0189230D01*
X0320580Y0189597D02*
X0320947Y0189597D01*
X0322423Y0189230D02*
X0323157Y0188496D01*
X0323891Y0189230D01*
X0323891Y0190698D01*
X0324633Y0190331D02*
X0324633Y0189964D01*
X0325000Y0189597D01*
X0324633Y0189230D01*
X0324633Y0188863D01*
X0325000Y0188496D01*
X0325734Y0188496D01*
X0326101Y0188863D01*
X0325367Y0189597D02*
X0325000Y0189597D01*
X0324633Y0190331D02*
X0325000Y0190698D01*
X0325734Y0190698D01*
X0326101Y0190331D01*
X0298109Y0189964D02*
X0296641Y0188496D01*
X0251770Y0017935D02*
X0251036Y0017935D01*
X0250669Y0017568D01*
X0250669Y0017201D01*
X0251036Y0016834D01*
X0250669Y0016467D01*
X0250669Y0016100D01*
X0251036Y0015733D01*
X0251770Y0015733D01*
X0252137Y0016100D01*
X0251403Y0016834D02*
X0251036Y0016834D01*
X0249927Y0016467D02*
X0249927Y0017935D01*
X0249927Y0016467D02*
X0249193Y0015733D01*
X0248459Y0016467D01*
X0248459Y0017935D01*
X0247717Y0017568D02*
X0247350Y0017935D01*
X0246616Y0017935D01*
X0246249Y0017568D01*
X0246249Y0017201D01*
X0246616Y0016834D01*
X0246249Y0016467D01*
X0246249Y0016100D01*
X0246616Y0015733D01*
X0247350Y0015733D01*
X0247717Y0016100D01*
X0246983Y0016834D02*
X0246616Y0016834D01*
X0241088Y0016467D02*
X0241088Y0017935D01*
X0241088Y0016467D02*
X0240354Y0015733D01*
X0239620Y0016467D01*
X0239620Y0017935D01*
X0238878Y0015366D02*
X0237410Y0015366D01*
X0236668Y0015733D02*
X0236668Y0017201D01*
X0236301Y0017201D01*
X0235934Y0016834D01*
X0235567Y0017201D01*
X0235200Y0016834D01*
X0235200Y0015733D01*
X0235934Y0015733D02*
X0235934Y0016834D01*
X0234458Y0016834D02*
X0234458Y0016100D01*
X0234091Y0015733D01*
X0233357Y0015733D01*
X0232990Y0016100D01*
X0232990Y0016834D01*
X0233357Y0017201D01*
X0234091Y0017201D01*
X0234458Y0016834D01*
X0232248Y0017201D02*
X0231514Y0017201D01*
X0231881Y0017568D02*
X0231881Y0016100D01*
X0231514Y0015733D01*
X0226355Y0016100D02*
X0225988Y0015733D01*
X0225254Y0015733D01*
X0224887Y0016100D01*
X0224887Y0016834D01*
X0225254Y0017201D01*
X0225621Y0017201D01*
X0226355Y0016834D01*
X0226355Y0017935D01*
X0224887Y0017935D01*
X0224145Y0017935D02*
X0224145Y0016467D01*
X0223411Y0015733D01*
X0222677Y0016467D01*
X0222677Y0017935D01*
X0251770Y0017935D02*
X0252137Y0017568D01*
D12*
X0255031Y0020115D02*
X0255031Y0014115D01*
X0255033Y0014055D01*
X0255038Y0013994D01*
X0255047Y0013935D01*
X0255060Y0013876D01*
X0255076Y0013817D01*
X0255096Y0013760D01*
X0255119Y0013705D01*
X0255146Y0013650D01*
X0255175Y0013598D01*
X0255208Y0013547D01*
X0255244Y0013498D01*
X0255282Y0013452D01*
X0255324Y0013408D01*
X0255368Y0013366D01*
X0255414Y0013328D01*
X0255463Y0013292D01*
X0255514Y0013259D01*
X0255566Y0013230D01*
X0255621Y0013203D01*
X0255676Y0013180D01*
X0255733Y0013160D01*
X0255792Y0013144D01*
X0255851Y0013131D01*
X0255910Y0013122D01*
X0255971Y0013117D01*
X0256031Y0013115D01*
X0273031Y0013115D01*
X0273091Y0013117D01*
X0273152Y0013122D01*
X0273211Y0013131D01*
X0273270Y0013144D01*
X0273329Y0013160D01*
X0273386Y0013180D01*
X0273441Y0013203D01*
X0273496Y0013230D01*
X0273548Y0013259D01*
X0273599Y0013292D01*
X0273648Y0013328D01*
X0273694Y0013366D01*
X0273738Y0013408D01*
X0273780Y0013452D01*
X0273818Y0013498D01*
X0273854Y0013547D01*
X0273887Y0013598D01*
X0273916Y0013650D01*
X0273943Y0013705D01*
X0273966Y0013760D01*
X0273986Y0013817D01*
X0274002Y0013876D01*
X0274015Y0013935D01*
X0274024Y0013994D01*
X0274029Y0014055D01*
X0274031Y0014115D01*
X0274031Y0020115D01*
X0274029Y0020175D01*
X0274024Y0020236D01*
X0274015Y0020295D01*
X0274002Y0020354D01*
X0273986Y0020413D01*
X0273966Y0020470D01*
X0273943Y0020525D01*
X0273916Y0020580D01*
X0273887Y0020632D01*
X0273854Y0020683D01*
X0273818Y0020732D01*
X0273780Y0020778D01*
X0273738Y0020822D01*
X0273694Y0020864D01*
X0273648Y0020902D01*
X0273599Y0020938D01*
X0273548Y0020971D01*
X0273496Y0021000D01*
X0273441Y0021027D01*
X0273386Y0021050D01*
X0273329Y0021070D01*
X0273270Y0021086D01*
X0273211Y0021099D01*
X0273152Y0021108D01*
X0273091Y0021113D01*
X0273031Y0021115D01*
X0256031Y0021115D01*
X0255971Y0021113D01*
X0255910Y0021108D01*
X0255851Y0021099D01*
X0255792Y0021086D01*
X0255733Y0021070D01*
X0255676Y0021050D01*
X0255621Y0021027D01*
X0255566Y0021000D01*
X0255514Y0020971D01*
X0255463Y0020938D01*
X0255414Y0020902D01*
X0255368Y0020864D01*
X0255324Y0020822D01*
X0255282Y0020778D01*
X0255244Y0020732D01*
X0255208Y0020683D01*
X0255175Y0020632D01*
X0255146Y0020580D01*
X0255119Y0020525D01*
X0255096Y0020470D01*
X0255076Y0020413D01*
X0255060Y0020354D01*
X0255047Y0020295D01*
X0255038Y0020236D01*
X0255033Y0020175D01*
X0255031Y0020115D01*
X0103631Y0060715D02*
X0103631Y0066715D01*
X0103629Y0066775D01*
X0103624Y0066836D01*
X0103615Y0066895D01*
X0103602Y0066954D01*
X0103586Y0067013D01*
X0103566Y0067070D01*
X0103543Y0067125D01*
X0103516Y0067180D01*
X0103487Y0067232D01*
X0103454Y0067283D01*
X0103418Y0067332D01*
X0103380Y0067378D01*
X0103338Y0067422D01*
X0103294Y0067464D01*
X0103248Y0067502D01*
X0103199Y0067538D01*
X0103148Y0067571D01*
X0103096Y0067600D01*
X0103041Y0067627D01*
X0102986Y0067650D01*
X0102929Y0067670D01*
X0102870Y0067686D01*
X0102811Y0067699D01*
X0102752Y0067708D01*
X0102691Y0067713D01*
X0102631Y0067715D01*
X0091631Y0067715D01*
X0091571Y0067713D01*
X0091510Y0067708D01*
X0091451Y0067699D01*
X0091392Y0067686D01*
X0091333Y0067670D01*
X0091276Y0067650D01*
X0091221Y0067627D01*
X0091166Y0067600D01*
X0091114Y0067571D01*
X0091063Y0067538D01*
X0091014Y0067502D01*
X0090968Y0067464D01*
X0090924Y0067422D01*
X0090882Y0067378D01*
X0090844Y0067332D01*
X0090808Y0067283D01*
X0090775Y0067232D01*
X0090746Y0067180D01*
X0090719Y0067125D01*
X0090696Y0067070D01*
X0090676Y0067013D01*
X0090660Y0066954D01*
X0090647Y0066895D01*
X0090638Y0066836D01*
X0090633Y0066775D01*
X0090631Y0066715D01*
X0090631Y0060715D01*
X0090633Y0060655D01*
X0090638Y0060594D01*
X0090647Y0060535D01*
X0090660Y0060476D01*
X0090676Y0060417D01*
X0090696Y0060360D01*
X0090719Y0060305D01*
X0090746Y0060250D01*
X0090775Y0060198D01*
X0090808Y0060147D01*
X0090844Y0060098D01*
X0090882Y0060052D01*
X0090924Y0060008D01*
X0090968Y0059966D01*
X0091014Y0059928D01*
X0091063Y0059892D01*
X0091114Y0059859D01*
X0091166Y0059830D01*
X0091221Y0059803D01*
X0091276Y0059780D01*
X0091333Y0059760D01*
X0091392Y0059744D01*
X0091451Y0059731D01*
X0091510Y0059722D01*
X0091571Y0059717D01*
X0091631Y0059715D01*
X0102631Y0059715D01*
X0102691Y0059717D01*
X0102752Y0059722D01*
X0102811Y0059731D01*
X0102870Y0059744D01*
X0102929Y0059760D01*
X0102986Y0059780D01*
X0103041Y0059803D01*
X0103096Y0059830D01*
X0103148Y0059859D01*
X0103199Y0059892D01*
X0103248Y0059928D01*
X0103294Y0059966D01*
X0103338Y0060008D01*
X0103380Y0060052D01*
X0103418Y0060098D01*
X0103454Y0060147D01*
X0103487Y0060198D01*
X0103516Y0060250D01*
X0103543Y0060305D01*
X0103566Y0060360D01*
X0103586Y0060417D01*
X0103602Y0060476D01*
X0103615Y0060535D01*
X0103624Y0060594D01*
X0103629Y0060655D01*
X0103631Y0060715D01*
X0088198Y0030778D02*
X0077198Y0030778D01*
X0077138Y0030776D01*
X0077077Y0030771D01*
X0077018Y0030762D01*
X0076959Y0030749D01*
X0076900Y0030733D01*
X0076843Y0030713D01*
X0076788Y0030690D01*
X0076733Y0030663D01*
X0076681Y0030634D01*
X0076630Y0030601D01*
X0076581Y0030565D01*
X0076535Y0030527D01*
X0076491Y0030485D01*
X0076449Y0030441D01*
X0076411Y0030395D01*
X0076375Y0030346D01*
X0076342Y0030295D01*
X0076313Y0030243D01*
X0076286Y0030188D01*
X0076263Y0030133D01*
X0076243Y0030076D01*
X0076227Y0030017D01*
X0076214Y0029958D01*
X0076205Y0029899D01*
X0076200Y0029838D01*
X0076198Y0029778D01*
X0076198Y0023778D01*
X0076200Y0023718D01*
X0076205Y0023657D01*
X0076214Y0023598D01*
X0076227Y0023539D01*
X0076243Y0023480D01*
X0076263Y0023423D01*
X0076286Y0023368D01*
X0076313Y0023313D01*
X0076342Y0023261D01*
X0076375Y0023210D01*
X0076411Y0023161D01*
X0076449Y0023115D01*
X0076491Y0023071D01*
X0076535Y0023029D01*
X0076581Y0022991D01*
X0076630Y0022955D01*
X0076681Y0022922D01*
X0076733Y0022893D01*
X0076788Y0022866D01*
X0076843Y0022843D01*
X0076900Y0022823D01*
X0076959Y0022807D01*
X0077018Y0022794D01*
X0077077Y0022785D01*
X0077138Y0022780D01*
X0077198Y0022778D01*
X0088198Y0022778D01*
X0088258Y0022780D01*
X0088319Y0022785D01*
X0088378Y0022794D01*
X0088437Y0022807D01*
X0088496Y0022823D01*
X0088553Y0022843D01*
X0088608Y0022866D01*
X0088663Y0022893D01*
X0088715Y0022922D01*
X0088766Y0022955D01*
X0088815Y0022991D01*
X0088861Y0023029D01*
X0088905Y0023071D01*
X0088947Y0023115D01*
X0088985Y0023161D01*
X0089021Y0023210D01*
X0089054Y0023261D01*
X0089083Y0023313D01*
X0089110Y0023368D01*
X0089133Y0023423D01*
X0089153Y0023480D01*
X0089169Y0023539D01*
X0089182Y0023598D01*
X0089191Y0023657D01*
X0089196Y0023718D01*
X0089198Y0023778D01*
X0089198Y0029778D01*
X0089196Y0029838D01*
X0089191Y0029899D01*
X0089182Y0029958D01*
X0089169Y0030017D01*
X0089153Y0030076D01*
X0089133Y0030133D01*
X0089110Y0030188D01*
X0089083Y0030243D01*
X0089054Y0030295D01*
X0089021Y0030346D01*
X0088985Y0030395D01*
X0088947Y0030441D01*
X0088905Y0030485D01*
X0088861Y0030527D01*
X0088815Y0030565D01*
X0088766Y0030601D01*
X0088715Y0030634D01*
X0088663Y0030663D01*
X0088608Y0030690D01*
X0088553Y0030713D01*
X0088496Y0030733D01*
X0088437Y0030749D01*
X0088378Y0030762D01*
X0088319Y0030771D01*
X0088258Y0030776D01*
X0088198Y0030778D01*
X0298337Y0180831D02*
X0298337Y0186831D01*
X0298339Y0186891D01*
X0298344Y0186952D01*
X0298353Y0187011D01*
X0298366Y0187070D01*
X0298382Y0187129D01*
X0298402Y0187186D01*
X0298425Y0187241D01*
X0298452Y0187296D01*
X0298481Y0187348D01*
X0298514Y0187399D01*
X0298550Y0187448D01*
X0298588Y0187494D01*
X0298630Y0187538D01*
X0298674Y0187580D01*
X0298720Y0187618D01*
X0298769Y0187654D01*
X0298820Y0187687D01*
X0298872Y0187716D01*
X0298927Y0187743D01*
X0298982Y0187766D01*
X0299039Y0187786D01*
X0299098Y0187802D01*
X0299157Y0187815D01*
X0299216Y0187824D01*
X0299277Y0187829D01*
X0299337Y0187831D01*
X0316337Y0187831D01*
X0316397Y0187829D01*
X0316458Y0187824D01*
X0316517Y0187815D01*
X0316576Y0187802D01*
X0316635Y0187786D01*
X0316692Y0187766D01*
X0316747Y0187743D01*
X0316802Y0187716D01*
X0316854Y0187687D01*
X0316905Y0187654D01*
X0316954Y0187618D01*
X0317000Y0187580D01*
X0317044Y0187538D01*
X0317086Y0187494D01*
X0317124Y0187448D01*
X0317160Y0187399D01*
X0317193Y0187348D01*
X0317222Y0187296D01*
X0317249Y0187241D01*
X0317272Y0187186D01*
X0317292Y0187129D01*
X0317308Y0187070D01*
X0317321Y0187011D01*
X0317330Y0186952D01*
X0317335Y0186891D01*
X0317337Y0186831D01*
X0317337Y0180831D01*
X0317335Y0180771D01*
X0317330Y0180710D01*
X0317321Y0180651D01*
X0317308Y0180592D01*
X0317292Y0180533D01*
X0317272Y0180476D01*
X0317249Y0180421D01*
X0317222Y0180366D01*
X0317193Y0180314D01*
X0317160Y0180263D01*
X0317124Y0180214D01*
X0317086Y0180168D01*
X0317044Y0180124D01*
X0317000Y0180082D01*
X0316954Y0180044D01*
X0316905Y0180008D01*
X0316854Y0179975D01*
X0316802Y0179946D01*
X0316747Y0179919D01*
X0316692Y0179896D01*
X0316635Y0179876D01*
X0316576Y0179860D01*
X0316517Y0179847D01*
X0316458Y0179838D01*
X0316397Y0179833D01*
X0316337Y0179831D01*
X0299337Y0179831D01*
X0299277Y0179833D01*
X0299216Y0179838D01*
X0299157Y0179847D01*
X0299098Y0179860D01*
X0299039Y0179876D01*
X0298982Y0179896D01*
X0298927Y0179919D01*
X0298872Y0179946D01*
X0298820Y0179975D01*
X0298769Y0180008D01*
X0298720Y0180044D01*
X0298674Y0180082D01*
X0298630Y0180124D01*
X0298588Y0180168D01*
X0298550Y0180214D01*
X0298514Y0180263D01*
X0298481Y0180314D01*
X0298452Y0180366D01*
X0298425Y0180421D01*
X0298402Y0180476D01*
X0298382Y0180533D01*
X0298366Y0180592D01*
X0298353Y0180651D01*
X0298344Y0180710D01*
X0298339Y0180771D01*
X0298337Y0180831D01*
D13*
X0136081Y0170467D02*
X0136081Y0167565D01*
X0134147Y0167565D01*
X0133135Y0168049D02*
X0132651Y0167565D01*
X0131684Y0167565D01*
X0131200Y0168049D01*
X0131200Y0169984D01*
X0131684Y0170467D01*
X0132651Y0170467D01*
X0133135Y0169984D01*
X0133135Y0168049D01*
X0130188Y0168532D02*
X0128737Y0168532D01*
X0128253Y0169016D01*
X0128253Y0169984D01*
X0128737Y0170467D01*
X0130188Y0170467D01*
X0130188Y0167565D01*
X0129221Y0168532D02*
X0128253Y0167565D01*
X0127242Y0167565D02*
X0127242Y0169500D01*
X0126274Y0170467D01*
X0125307Y0169500D01*
X0125307Y0167565D01*
X0124295Y0167081D02*
X0122360Y0167081D01*
X0121349Y0167565D02*
X0121349Y0170467D01*
X0119898Y0170467D01*
X0119414Y0169984D01*
X0119414Y0169016D01*
X0119898Y0168532D01*
X0121349Y0168532D01*
X0120381Y0168532D02*
X0119414Y0167565D01*
X0118402Y0168049D02*
X0117919Y0167565D01*
X0116951Y0167565D01*
X0116467Y0168049D01*
X0116467Y0168532D01*
X0116951Y0169016D01*
X0117919Y0169016D01*
X0118402Y0169500D01*
X0118402Y0169984D01*
X0117919Y0170467D01*
X0116951Y0170467D01*
X0116467Y0169984D01*
X0115456Y0170467D02*
X0113521Y0170467D01*
X0114488Y0170467D02*
X0114488Y0167565D01*
X0112509Y0167081D02*
X0110574Y0167081D01*
X0109563Y0167565D02*
X0109563Y0170467D01*
X0107628Y0167565D01*
X0107628Y0170467D01*
X0125307Y0169016D02*
X0127242Y0169016D01*
X0107481Y0072667D02*
X0107481Y0069765D01*
X0105547Y0069765D01*
X0104535Y0069765D02*
X0104535Y0072667D01*
X0102600Y0072667D01*
X0101588Y0072667D02*
X0101588Y0069765D01*
X0100137Y0069765D01*
X0099653Y0070249D01*
X0099653Y0072184D01*
X0100137Y0072667D01*
X0101588Y0072667D01*
X0103567Y0071216D02*
X0104535Y0071216D01*
X0104535Y0069765D02*
X0102600Y0069765D01*
X0098642Y0070249D02*
X0098158Y0069765D01*
X0097191Y0069765D01*
X0096707Y0070249D01*
X0096707Y0070732D01*
X0097191Y0071216D01*
X0097674Y0071216D01*
X0097191Y0071216D02*
X0096707Y0071700D01*
X0096707Y0072184D01*
X0097191Y0072667D01*
X0098158Y0072667D01*
X0098642Y0072184D01*
X0095695Y0072184D02*
X0095212Y0072667D01*
X0094244Y0072667D01*
X0093760Y0072184D01*
X0093760Y0071700D01*
X0094244Y0071216D01*
X0093760Y0070732D01*
X0093760Y0070249D01*
X0094244Y0069765D01*
X0095212Y0069765D01*
X0095695Y0070249D01*
X0094728Y0071216D02*
X0094244Y0071216D01*
X0092749Y0069281D02*
X0090814Y0069281D01*
X0089802Y0070249D02*
X0089319Y0069765D01*
X0088835Y0069765D01*
X0088351Y0070249D01*
X0088351Y0072667D01*
X0088835Y0072667D02*
X0087867Y0072667D01*
X0088246Y0021530D02*
X0090181Y0021530D01*
X0090181Y0018628D01*
X0088246Y0018628D01*
X0087234Y0018628D02*
X0085783Y0018628D01*
X0085300Y0019112D01*
X0085300Y0021047D01*
X0085783Y0021530D01*
X0087234Y0021530D01*
X0087234Y0018628D01*
X0089214Y0020079D02*
X0090181Y0020079D01*
X0091193Y0018628D02*
X0093128Y0018628D01*
X0093128Y0021530D01*
X0084288Y0021530D02*
X0084288Y0020079D01*
X0083320Y0020563D01*
X0082837Y0020563D01*
X0082353Y0020079D01*
X0082353Y0019112D01*
X0082837Y0018628D01*
X0083804Y0018628D01*
X0084288Y0019112D01*
X0084288Y0021530D02*
X0082353Y0021530D01*
X0081341Y0018144D02*
X0079406Y0018144D01*
X0078395Y0019112D02*
X0077911Y0018628D01*
X0077427Y0018628D01*
X0076944Y0019112D01*
X0076944Y0021530D01*
X0077427Y0021530D02*
X0076460Y0021530D01*
D14*
X0087131Y0076515D02*
X0017053Y0076515D01*
X0017053Y0181515D02*
X0087131Y0181515D01*
D15*
X0022384Y0187615D02*
X0022384Y0188716D01*
X0021834Y0189267D01*
X0021283Y0189267D01*
X0020733Y0188716D01*
X0020733Y0187615D01*
X0021283Y0187065D01*
X0021834Y0187065D01*
X0022384Y0187615D01*
X0020733Y0187615D02*
X0020182Y0187065D01*
X0019632Y0187065D01*
X0019081Y0187615D01*
X0019081Y0188716D01*
X0019632Y0189267D01*
X0020182Y0189267D01*
X0020733Y0188716D01*
X0020733Y0190748D02*
X0019632Y0190748D01*
X0019081Y0191299D01*
X0019081Y0192400D01*
X0019632Y0192950D01*
X0020182Y0192950D01*
X0020733Y0192400D01*
X0020733Y0190748D01*
X0021834Y0191849D01*
X0022384Y0192950D01*
X0021834Y0194431D02*
X0021283Y0194431D01*
X0020733Y0194982D01*
X0020733Y0196083D01*
X0020182Y0196633D01*
X0019632Y0196633D01*
X0019081Y0196083D01*
X0019081Y0194982D01*
X0019632Y0194431D01*
X0020182Y0194431D01*
X0020733Y0194982D01*
X0020733Y0196083D02*
X0021283Y0196633D01*
X0021834Y0196633D01*
X0022384Y0196083D01*
X0022384Y0194982D01*
X0021834Y0194431D01*
X0022384Y0198114D02*
X0019081Y0198114D01*
X0019081Y0200316D02*
X0022384Y0200316D01*
X0021283Y0199215D01*
X0022384Y0198114D01*
X0022384Y0201798D02*
X0019081Y0201798D01*
X0020733Y0201798D02*
X0020733Y0203999D01*
X0022384Y0203999D02*
X0019081Y0203999D01*
X0019081Y0205481D02*
X0019081Y0207683D01*
X0019081Y0205481D02*
X0019632Y0205481D01*
X0021834Y0207683D01*
X0022384Y0207683D01*
X0022384Y0205481D01*
M02*
