G75*
%MOIN*%
%OFA0B0*%
%FSLAX25Y25*%
%IPPOS*%
%LPD*%
%AMOC8*
5,1,8,0,0,1.08239X$1,22.5*
%
%ADD10C,0.00000*%
%ADD11C,0.06000*%
%ADD12OC8,0.06000*%
%ADD13R,0.04600X0.06300*%
%ADD14C,0.01600*%
%ADD15C,0.02381*%
%ADD16C,0.01000*%
%ADD17C,0.01200*%
%ADD18C,0.02400*%
%ADD19C,0.04000*%
%ADD20C,0.03562*%
%ADD21C,0.03169*%
%ADD22C,0.02000*%
D10*
X0004700Y0004550D02*
X0004700Y0169550D01*
X0302200Y0169550D01*
X0302200Y0004550D01*
X0004700Y0004550D01*
X0045531Y0033206D02*
X0045533Y0033254D01*
X0045539Y0033302D01*
X0045549Y0033349D01*
X0045562Y0033395D01*
X0045580Y0033440D01*
X0045600Y0033484D01*
X0045625Y0033526D01*
X0045653Y0033565D01*
X0045683Y0033602D01*
X0045717Y0033636D01*
X0045754Y0033668D01*
X0045792Y0033697D01*
X0045833Y0033722D01*
X0045876Y0033744D01*
X0045921Y0033762D01*
X0045967Y0033776D01*
X0046014Y0033787D01*
X0046062Y0033794D01*
X0046110Y0033797D01*
X0046158Y0033796D01*
X0046206Y0033791D01*
X0046254Y0033782D01*
X0046300Y0033770D01*
X0046345Y0033753D01*
X0046389Y0033733D01*
X0046431Y0033710D01*
X0046471Y0033683D01*
X0046509Y0033653D01*
X0046544Y0033620D01*
X0046576Y0033584D01*
X0046606Y0033546D01*
X0046632Y0033505D01*
X0046654Y0033462D01*
X0046674Y0033418D01*
X0046689Y0033373D01*
X0046701Y0033326D01*
X0046709Y0033278D01*
X0046713Y0033230D01*
X0046713Y0033182D01*
X0046709Y0033134D01*
X0046701Y0033086D01*
X0046689Y0033039D01*
X0046674Y0032994D01*
X0046654Y0032950D01*
X0046632Y0032907D01*
X0046606Y0032866D01*
X0046576Y0032828D01*
X0046544Y0032792D01*
X0046509Y0032759D01*
X0046471Y0032729D01*
X0046431Y0032702D01*
X0046389Y0032679D01*
X0046345Y0032659D01*
X0046300Y0032642D01*
X0046254Y0032630D01*
X0046206Y0032621D01*
X0046158Y0032616D01*
X0046110Y0032615D01*
X0046062Y0032618D01*
X0046014Y0032625D01*
X0045967Y0032636D01*
X0045921Y0032650D01*
X0045876Y0032668D01*
X0045833Y0032690D01*
X0045792Y0032715D01*
X0045754Y0032744D01*
X0045717Y0032776D01*
X0045683Y0032810D01*
X0045653Y0032847D01*
X0045625Y0032886D01*
X0045600Y0032928D01*
X0045580Y0032972D01*
X0045562Y0033017D01*
X0045549Y0033063D01*
X0045539Y0033110D01*
X0045533Y0033158D01*
X0045531Y0033206D01*
X0045531Y0037144D02*
X0045533Y0037192D01*
X0045539Y0037240D01*
X0045549Y0037287D01*
X0045562Y0037333D01*
X0045580Y0037378D01*
X0045600Y0037422D01*
X0045625Y0037464D01*
X0045653Y0037503D01*
X0045683Y0037540D01*
X0045717Y0037574D01*
X0045754Y0037606D01*
X0045792Y0037635D01*
X0045833Y0037660D01*
X0045876Y0037682D01*
X0045921Y0037700D01*
X0045967Y0037714D01*
X0046014Y0037725D01*
X0046062Y0037732D01*
X0046110Y0037735D01*
X0046158Y0037734D01*
X0046206Y0037729D01*
X0046254Y0037720D01*
X0046300Y0037708D01*
X0046345Y0037691D01*
X0046389Y0037671D01*
X0046431Y0037648D01*
X0046471Y0037621D01*
X0046509Y0037591D01*
X0046544Y0037558D01*
X0046576Y0037522D01*
X0046606Y0037484D01*
X0046632Y0037443D01*
X0046654Y0037400D01*
X0046674Y0037356D01*
X0046689Y0037311D01*
X0046701Y0037264D01*
X0046709Y0037216D01*
X0046713Y0037168D01*
X0046713Y0037120D01*
X0046709Y0037072D01*
X0046701Y0037024D01*
X0046689Y0036977D01*
X0046674Y0036932D01*
X0046654Y0036888D01*
X0046632Y0036845D01*
X0046606Y0036804D01*
X0046576Y0036766D01*
X0046544Y0036730D01*
X0046509Y0036697D01*
X0046471Y0036667D01*
X0046431Y0036640D01*
X0046389Y0036617D01*
X0046345Y0036597D01*
X0046300Y0036580D01*
X0046254Y0036568D01*
X0046206Y0036559D01*
X0046158Y0036554D01*
X0046110Y0036553D01*
X0046062Y0036556D01*
X0046014Y0036563D01*
X0045967Y0036574D01*
X0045921Y0036588D01*
X0045876Y0036606D01*
X0045833Y0036628D01*
X0045792Y0036653D01*
X0045754Y0036682D01*
X0045717Y0036714D01*
X0045683Y0036748D01*
X0045653Y0036785D01*
X0045625Y0036824D01*
X0045600Y0036866D01*
X0045580Y0036910D01*
X0045562Y0036955D01*
X0045549Y0037001D01*
X0045539Y0037048D01*
X0045533Y0037096D01*
X0045531Y0037144D01*
X0048484Y0035175D02*
X0048486Y0035223D01*
X0048492Y0035271D01*
X0048502Y0035318D01*
X0048515Y0035364D01*
X0048533Y0035409D01*
X0048553Y0035453D01*
X0048578Y0035495D01*
X0048606Y0035534D01*
X0048636Y0035571D01*
X0048670Y0035605D01*
X0048707Y0035637D01*
X0048745Y0035666D01*
X0048786Y0035691D01*
X0048829Y0035713D01*
X0048874Y0035731D01*
X0048920Y0035745D01*
X0048967Y0035756D01*
X0049015Y0035763D01*
X0049063Y0035766D01*
X0049111Y0035765D01*
X0049159Y0035760D01*
X0049207Y0035751D01*
X0049253Y0035739D01*
X0049298Y0035722D01*
X0049342Y0035702D01*
X0049384Y0035679D01*
X0049424Y0035652D01*
X0049462Y0035622D01*
X0049497Y0035589D01*
X0049529Y0035553D01*
X0049559Y0035515D01*
X0049585Y0035474D01*
X0049607Y0035431D01*
X0049627Y0035387D01*
X0049642Y0035342D01*
X0049654Y0035295D01*
X0049662Y0035247D01*
X0049666Y0035199D01*
X0049666Y0035151D01*
X0049662Y0035103D01*
X0049654Y0035055D01*
X0049642Y0035008D01*
X0049627Y0034963D01*
X0049607Y0034919D01*
X0049585Y0034876D01*
X0049559Y0034835D01*
X0049529Y0034797D01*
X0049497Y0034761D01*
X0049462Y0034728D01*
X0049424Y0034698D01*
X0049384Y0034671D01*
X0049342Y0034648D01*
X0049298Y0034628D01*
X0049253Y0034611D01*
X0049207Y0034599D01*
X0049159Y0034590D01*
X0049111Y0034585D01*
X0049063Y0034584D01*
X0049015Y0034587D01*
X0048967Y0034594D01*
X0048920Y0034605D01*
X0048874Y0034619D01*
X0048829Y0034637D01*
X0048786Y0034659D01*
X0048745Y0034684D01*
X0048707Y0034713D01*
X0048670Y0034745D01*
X0048636Y0034779D01*
X0048606Y0034816D01*
X0048578Y0034855D01*
X0048553Y0034897D01*
X0048533Y0034941D01*
X0048515Y0034986D01*
X0048502Y0035032D01*
X0048492Y0035079D01*
X0048486Y0035127D01*
X0048484Y0035175D01*
X0051437Y0033206D02*
X0051439Y0033254D01*
X0051445Y0033302D01*
X0051455Y0033349D01*
X0051468Y0033395D01*
X0051486Y0033440D01*
X0051506Y0033484D01*
X0051531Y0033526D01*
X0051559Y0033565D01*
X0051589Y0033602D01*
X0051623Y0033636D01*
X0051660Y0033668D01*
X0051698Y0033697D01*
X0051739Y0033722D01*
X0051782Y0033744D01*
X0051827Y0033762D01*
X0051873Y0033776D01*
X0051920Y0033787D01*
X0051968Y0033794D01*
X0052016Y0033797D01*
X0052064Y0033796D01*
X0052112Y0033791D01*
X0052160Y0033782D01*
X0052206Y0033770D01*
X0052251Y0033753D01*
X0052295Y0033733D01*
X0052337Y0033710D01*
X0052377Y0033683D01*
X0052415Y0033653D01*
X0052450Y0033620D01*
X0052482Y0033584D01*
X0052512Y0033546D01*
X0052538Y0033505D01*
X0052560Y0033462D01*
X0052580Y0033418D01*
X0052595Y0033373D01*
X0052607Y0033326D01*
X0052615Y0033278D01*
X0052619Y0033230D01*
X0052619Y0033182D01*
X0052615Y0033134D01*
X0052607Y0033086D01*
X0052595Y0033039D01*
X0052580Y0032994D01*
X0052560Y0032950D01*
X0052538Y0032907D01*
X0052512Y0032866D01*
X0052482Y0032828D01*
X0052450Y0032792D01*
X0052415Y0032759D01*
X0052377Y0032729D01*
X0052337Y0032702D01*
X0052295Y0032679D01*
X0052251Y0032659D01*
X0052206Y0032642D01*
X0052160Y0032630D01*
X0052112Y0032621D01*
X0052064Y0032616D01*
X0052016Y0032615D01*
X0051968Y0032618D01*
X0051920Y0032625D01*
X0051873Y0032636D01*
X0051827Y0032650D01*
X0051782Y0032668D01*
X0051739Y0032690D01*
X0051698Y0032715D01*
X0051660Y0032744D01*
X0051623Y0032776D01*
X0051589Y0032810D01*
X0051559Y0032847D01*
X0051531Y0032886D01*
X0051506Y0032928D01*
X0051486Y0032972D01*
X0051468Y0033017D01*
X0051455Y0033063D01*
X0051445Y0033110D01*
X0051439Y0033158D01*
X0051437Y0033206D01*
X0051437Y0037144D02*
X0051439Y0037192D01*
X0051445Y0037240D01*
X0051455Y0037287D01*
X0051468Y0037333D01*
X0051486Y0037378D01*
X0051506Y0037422D01*
X0051531Y0037464D01*
X0051559Y0037503D01*
X0051589Y0037540D01*
X0051623Y0037574D01*
X0051660Y0037606D01*
X0051698Y0037635D01*
X0051739Y0037660D01*
X0051782Y0037682D01*
X0051827Y0037700D01*
X0051873Y0037714D01*
X0051920Y0037725D01*
X0051968Y0037732D01*
X0052016Y0037735D01*
X0052064Y0037734D01*
X0052112Y0037729D01*
X0052160Y0037720D01*
X0052206Y0037708D01*
X0052251Y0037691D01*
X0052295Y0037671D01*
X0052337Y0037648D01*
X0052377Y0037621D01*
X0052415Y0037591D01*
X0052450Y0037558D01*
X0052482Y0037522D01*
X0052512Y0037484D01*
X0052538Y0037443D01*
X0052560Y0037400D01*
X0052580Y0037356D01*
X0052595Y0037311D01*
X0052607Y0037264D01*
X0052615Y0037216D01*
X0052619Y0037168D01*
X0052619Y0037120D01*
X0052615Y0037072D01*
X0052607Y0037024D01*
X0052595Y0036977D01*
X0052580Y0036932D01*
X0052560Y0036888D01*
X0052538Y0036845D01*
X0052512Y0036804D01*
X0052482Y0036766D01*
X0052450Y0036730D01*
X0052415Y0036697D01*
X0052377Y0036667D01*
X0052337Y0036640D01*
X0052295Y0036617D01*
X0052251Y0036597D01*
X0052206Y0036580D01*
X0052160Y0036568D01*
X0052112Y0036559D01*
X0052064Y0036554D01*
X0052016Y0036553D01*
X0051968Y0036556D01*
X0051920Y0036563D01*
X0051873Y0036574D01*
X0051827Y0036588D01*
X0051782Y0036606D01*
X0051739Y0036628D01*
X0051698Y0036653D01*
X0051660Y0036682D01*
X0051623Y0036714D01*
X0051589Y0036748D01*
X0051559Y0036785D01*
X0051531Y0036824D01*
X0051506Y0036866D01*
X0051486Y0036910D01*
X0051468Y0036955D01*
X0051455Y0037001D01*
X0051445Y0037048D01*
X0051439Y0037096D01*
X0051437Y0037144D01*
D11*
X0083800Y0017450D02*
X0083800Y0011450D01*
X0093800Y0011450D02*
X0093800Y0017450D01*
X0103800Y0017450D02*
X0103800Y0011450D01*
X0113800Y0011450D02*
X0113800Y0017450D01*
X0123800Y0017450D02*
X0123800Y0011450D01*
X0133800Y0011450D02*
X0133800Y0017450D01*
X0143800Y0017450D02*
X0143800Y0011450D01*
X0153800Y0011450D02*
X0153800Y0017450D01*
X0163800Y0017550D02*
X0163800Y0011550D01*
X0173800Y0011550D02*
X0173800Y0017550D01*
X0183800Y0017550D02*
X0183800Y0011550D01*
X0193800Y0011550D02*
X0193800Y0017550D01*
X0203800Y0017550D02*
X0203800Y0011550D01*
X0213800Y0011550D02*
X0213800Y0017550D01*
X0223800Y0017550D02*
X0223800Y0011550D01*
X0233800Y0011550D02*
X0233800Y0017550D01*
X0269300Y0036250D02*
X0275300Y0036250D01*
X0275300Y0046250D02*
X0269300Y0046250D01*
X0269300Y0056250D02*
X0275300Y0056250D01*
X0275300Y0066250D02*
X0269300Y0066250D01*
X0227300Y0083050D02*
X0221300Y0083050D01*
X0221300Y0093050D02*
X0227300Y0093050D01*
X0227300Y0103050D02*
X0221300Y0103050D01*
X0221300Y0113050D02*
X0227300Y0113050D01*
X0269300Y0136250D02*
X0275300Y0136250D01*
X0275300Y0146250D02*
X0269300Y0146250D01*
X0269300Y0156250D02*
X0275300Y0156250D01*
X0256900Y0158050D02*
X0256900Y0164050D01*
X0246900Y0164050D02*
X0246900Y0158050D01*
X0236900Y0158050D02*
X0236900Y0164050D01*
X0226900Y0164050D02*
X0226900Y0158050D01*
X0216900Y0158050D02*
X0216900Y0164050D01*
X0206900Y0164050D02*
X0206900Y0158050D01*
X0196900Y0158050D02*
X0196900Y0164050D01*
X0186900Y0164050D02*
X0186900Y0158050D01*
X0176900Y0158050D02*
X0176900Y0164050D01*
X0166900Y0164050D02*
X0166900Y0158050D01*
X0156900Y0158050D02*
X0156900Y0164050D01*
X0146800Y0164050D02*
X0146800Y0158050D01*
X0136800Y0158050D02*
X0136800Y0164050D01*
X0126800Y0164050D02*
X0126800Y0158050D01*
X0116800Y0158050D02*
X0116800Y0164050D01*
X0106800Y0164050D02*
X0106800Y0158050D01*
X0096800Y0158050D02*
X0096800Y0164050D01*
X0086800Y0164050D02*
X0086800Y0158050D01*
X0076800Y0158050D02*
X0076800Y0164050D01*
X0157500Y0145250D02*
X0163500Y0145250D01*
X0163500Y0135250D02*
X0157500Y0135250D01*
X0208800Y0062750D02*
X0214800Y0062750D01*
X0214800Y0052750D02*
X0208800Y0052750D01*
D12*
X0024375Y0050175D03*
X0014375Y0050175D03*
X0014375Y0060175D03*
X0024375Y0060175D03*
X0024375Y0070175D03*
X0014375Y0070175D03*
X0014375Y0040175D03*
X0024375Y0040175D03*
X0024375Y0030175D03*
X0014375Y0030175D03*
X0014375Y0020175D03*
X0024375Y0020175D03*
X0024375Y0010175D03*
X0014375Y0010175D03*
D13*
X0085500Y0031950D03*
X0091500Y0031950D03*
X0097500Y0031950D03*
X0039900Y0058050D03*
X0033900Y0058050D03*
D14*
X0033550Y0058202D02*
X0029175Y0058202D01*
X0029175Y0058187D02*
X0029175Y0059975D01*
X0024575Y0059975D01*
X0024575Y0060375D01*
X0024175Y0060375D01*
X0024175Y0064975D01*
X0022387Y0064975D01*
X0019575Y0062163D01*
X0019575Y0060375D01*
X0024175Y0060375D01*
X0024175Y0059975D01*
X0019575Y0059975D01*
X0019575Y0058187D01*
X0022387Y0055375D01*
X0024175Y0055375D01*
X0024175Y0059975D01*
X0024575Y0059975D01*
X0024575Y0055375D01*
X0026363Y0055375D01*
X0029175Y0058187D01*
X0029800Y0058400D02*
X0033550Y0058400D01*
X0033550Y0063000D01*
X0031363Y0063000D01*
X0030905Y0062877D01*
X0030495Y0062640D01*
X0030160Y0062305D01*
X0029923Y0061895D01*
X0029800Y0061437D01*
X0029800Y0058400D01*
X0029800Y0057700D02*
X0029800Y0054663D01*
X0029923Y0054205D01*
X0030160Y0053795D01*
X0030495Y0053460D01*
X0030905Y0053223D01*
X0031363Y0053100D01*
X0033550Y0053100D01*
X0033550Y0057700D01*
X0034250Y0057700D01*
X0034250Y0053100D01*
X0036437Y0053100D01*
X0036543Y0053128D01*
X0036772Y0052900D01*
X0043028Y0052900D01*
X0044200Y0054072D01*
X0044200Y0054669D01*
X0050011Y0054697D01*
X0049953Y0054638D01*
X0049614Y0054315D01*
X0049602Y0054287D01*
X0049581Y0054266D01*
X0049401Y0053833D01*
X0049212Y0053405D01*
X0049212Y0053375D01*
X0049200Y0053347D01*
X0049200Y0052879D01*
X0049189Y0052411D01*
X0049200Y0052383D01*
X0049200Y0050662D01*
X0048995Y0050457D01*
X0048509Y0049285D01*
X0048509Y0048015D01*
X0048995Y0046843D01*
X0049893Y0045945D01*
X0051065Y0045459D01*
X0052335Y0045459D01*
X0053507Y0045945D01*
X0054405Y0046843D01*
X0054891Y0048015D01*
X0054891Y0049285D01*
X0054476Y0050285D01*
X0058241Y0050197D01*
X0058493Y0049945D01*
X0059665Y0049459D01*
X0060935Y0049459D01*
X0062107Y0049945D01*
X0063005Y0050843D01*
X0063491Y0052015D01*
X0063491Y0053285D01*
X0063005Y0054457D01*
X0062705Y0054757D01*
X0082179Y0054849D01*
X0108941Y0052701D01*
X0109063Y0052650D01*
X0109572Y0052650D01*
X0110078Y0052609D01*
X0110204Y0052650D01*
X0136457Y0052650D01*
X0139221Y0049523D01*
X0149100Y0036447D01*
X0149187Y0036237D01*
X0149481Y0035944D01*
X0149731Y0035613D01*
X0149927Y0035498D01*
X0150087Y0035337D01*
X0150471Y0035178D01*
X0150828Y0034968D01*
X0151053Y0034937D01*
X0151263Y0034850D01*
X0151678Y0034850D01*
X0152089Y0034793D01*
X0152309Y0034850D01*
X0170826Y0034850D01*
X0170509Y0034085D01*
X0170509Y0032815D01*
X0170995Y0031643D01*
X0171893Y0030745D01*
X0173065Y0030259D01*
X0174335Y0030259D01*
X0175507Y0030745D01*
X0175712Y0030950D01*
X0189888Y0030950D01*
X0190093Y0030745D01*
X0191265Y0030259D01*
X0192535Y0030259D01*
X0193707Y0030745D01*
X0194605Y0031643D01*
X0195091Y0032815D01*
X0195091Y0034085D01*
X0194774Y0034850D01*
X0202175Y0034850D01*
X0203787Y0033237D01*
X0204687Y0032337D01*
X0205863Y0031850D01*
X0256833Y0031850D01*
X0258495Y0027117D01*
X0258495Y0027041D01*
X0258706Y0026519D01*
X0258892Y0025989D01*
X0258943Y0025932D01*
X0258972Y0025861D01*
X0259366Y0025459D01*
X0259741Y0025041D01*
X0259810Y0025007D01*
X0259864Y0024953D01*
X0260382Y0024733D01*
X0260889Y0024490D01*
X0260966Y0024485D01*
X0261036Y0024456D01*
X0261599Y0024451D01*
X0262160Y0024420D01*
X0262233Y0024445D01*
X0284450Y0024255D01*
X0284463Y0024250D01*
X0285086Y0024250D01*
X0285709Y0024245D01*
X0285722Y0024250D01*
X0285737Y0024250D01*
X0286312Y0024488D01*
X0286889Y0024722D01*
X0286900Y0024732D01*
X0286913Y0024737D01*
X0287353Y0025178D01*
X0287797Y0025614D01*
X0287803Y0025627D01*
X0287813Y0025637D01*
X0288051Y0026213D01*
X0288294Y0026786D01*
X0288295Y0026800D01*
X0288300Y0026813D01*
X0288300Y0027436D01*
X0288305Y0028059D01*
X0288300Y0028072D01*
X0288300Y0136232D01*
X0288493Y0152996D01*
X0288500Y0153013D01*
X0288500Y0153632D01*
X0288507Y0154250D01*
X0288500Y0154267D01*
X0288500Y0156887D01*
X0288013Y0158063D01*
X0287113Y0158963D01*
X0285937Y0159450D01*
X0279171Y0159450D01*
X0278132Y0160489D01*
X0276295Y0161250D01*
X0268305Y0161250D01*
X0266468Y0160489D01*
X0265061Y0159082D01*
X0264300Y0157245D01*
X0264300Y0155255D01*
X0265061Y0153418D01*
X0266468Y0152011D01*
X0268305Y0151250D01*
X0276295Y0151250D01*
X0278132Y0152011D01*
X0279171Y0153050D01*
X0282093Y0153050D01*
X0281937Y0139450D01*
X0279171Y0139450D01*
X0278132Y0140489D01*
X0276295Y0141250D01*
X0268305Y0141250D01*
X0266468Y0140489D01*
X0265061Y0139082D01*
X0264300Y0137245D01*
X0264300Y0135255D01*
X0265061Y0133418D01*
X0266468Y0132011D01*
X0268305Y0131250D01*
X0276295Y0131250D01*
X0278132Y0132011D01*
X0279171Y0133050D01*
X0281900Y0133050D01*
X0281900Y0030677D01*
X0263974Y0030831D01*
X0262300Y0035596D01*
X0262300Y0035687D01*
X0262090Y0036194D01*
X0261908Y0036711D01*
X0261848Y0036779D01*
X0261813Y0036863D01*
X0261425Y0037251D01*
X0261059Y0037659D01*
X0260977Y0037699D01*
X0260913Y0037763D01*
X0260406Y0037973D01*
X0259911Y0038210D01*
X0259820Y0038215D01*
X0259737Y0038250D01*
X0259188Y0038250D01*
X0258640Y0038280D01*
X0258554Y0038250D01*
X0207825Y0038250D01*
X0205313Y0040763D01*
X0204137Y0041250D01*
X0153493Y0041250D01*
X0144561Y0053072D01*
X0144519Y0053192D01*
X0144179Y0053577D01*
X0143869Y0053987D01*
X0143760Y0054051D01*
X0141720Y0056359D01*
X0142835Y0056359D01*
X0144007Y0056845D01*
X0144905Y0057743D01*
X0145391Y0058915D01*
X0145391Y0060185D01*
X0144905Y0061357D01*
X0144212Y0062050D01*
X0144905Y0062743D01*
X0145391Y0063915D01*
X0145391Y0065185D01*
X0144905Y0066357D01*
X0144700Y0066562D01*
X0144700Y0068243D01*
X0144703Y0068733D01*
X0144700Y0068740D01*
X0144700Y0068747D01*
X0144512Y0069200D01*
X0144327Y0069654D01*
X0144322Y0069659D01*
X0144319Y0069666D01*
X0143973Y0070013D01*
X0143628Y0070361D01*
X0143621Y0070364D01*
X0143616Y0070369D01*
X0143163Y0070557D01*
X0142712Y0070747D01*
X0142704Y0070747D01*
X0142697Y0070750D01*
X0142207Y0070750D01*
X0109324Y0070938D01*
X0109107Y0071155D01*
X0107935Y0071641D01*
X0106665Y0071641D01*
X0105493Y0071155D01*
X0105091Y0070753D01*
X0105091Y0071885D01*
X0104605Y0073057D01*
X0103707Y0073955D01*
X0102535Y0074441D01*
X0101265Y0074441D01*
X0100093Y0073955D01*
X0099195Y0073057D01*
X0098709Y0071885D01*
X0098709Y0070615D01*
X0099195Y0069443D01*
X0099300Y0069338D01*
X0099300Y0065886D01*
X0099009Y0065185D01*
X0099009Y0063915D01*
X0099495Y0062743D01*
X0100393Y0061845D01*
X0101565Y0061359D01*
X0102835Y0061359D01*
X0104007Y0061845D01*
X0104212Y0062050D01*
X0114700Y0062050D01*
X0114700Y0059053D01*
X0114701Y0059050D01*
X0109828Y0059050D01*
X0083051Y0061200D01*
X0082921Y0061253D01*
X0082421Y0061251D01*
X0081922Y0061291D01*
X0081788Y0061248D01*
X0044200Y0061069D01*
X0044200Y0062028D01*
X0043028Y0063200D01*
X0036772Y0063200D01*
X0036543Y0062972D01*
X0036437Y0063000D01*
X0034250Y0063000D01*
X0034250Y0058400D01*
X0033550Y0058400D01*
X0033550Y0057700D01*
X0029800Y0057700D01*
X0029800Y0056604D02*
X0027592Y0056604D01*
X0026363Y0054975D02*
X0024575Y0054975D01*
X0024575Y0050375D01*
X0024175Y0050375D01*
X0024175Y0054975D01*
X0022387Y0054975D01*
X0019575Y0052163D01*
X0019575Y0050375D01*
X0024175Y0050375D01*
X0024175Y0049975D01*
X0019575Y0049975D01*
X0019575Y0048187D01*
X0022387Y0045375D01*
X0024175Y0045375D01*
X0024175Y0049975D01*
X0024575Y0049975D01*
X0024575Y0050375D01*
X0029175Y0050375D01*
X0029175Y0052163D01*
X0026363Y0054975D01*
X0027931Y0053407D02*
X0030586Y0053407D01*
X0029800Y0055005D02*
X0006700Y0055005D01*
X0006700Y0053407D02*
X0010819Y0053407D01*
X0009575Y0052163D02*
X0009575Y0050375D01*
X0014175Y0050375D01*
X0014175Y0054975D01*
X0012387Y0054975D01*
X0009575Y0052163D01*
X0009575Y0051808D02*
X0006700Y0051808D01*
X0006700Y0050210D02*
X0014175Y0050210D01*
X0014175Y0050375D02*
X0014175Y0049975D01*
X0009575Y0049975D01*
X0009575Y0048187D01*
X0012387Y0045375D01*
X0014175Y0045375D01*
X0014175Y0049975D01*
X0014575Y0049975D01*
X0014575Y0050375D01*
X0014175Y0050375D01*
X0014575Y0050375D02*
X0014575Y0054975D01*
X0016363Y0054975D01*
X0019175Y0052163D01*
X0019175Y0050375D01*
X0014575Y0050375D01*
X0014575Y0050210D02*
X0024175Y0050210D01*
X0024575Y0050210D02*
X0048893Y0050210D01*
X0049200Y0051808D02*
X0029175Y0051808D01*
X0029175Y0049975D02*
X0024575Y0049975D01*
X0024575Y0045375D01*
X0026363Y0045375D01*
X0029175Y0048187D01*
X0029175Y0049975D01*
X0029175Y0048611D02*
X0048509Y0048611D01*
X0048925Y0047013D02*
X0028001Y0047013D01*
X0026402Y0045414D02*
X0127309Y0045414D01*
X0127309Y0045215D02*
X0127795Y0044043D01*
X0127800Y0044038D01*
X0127800Y0035462D01*
X0127595Y0035257D01*
X0127109Y0034085D01*
X0127109Y0032815D01*
X0127595Y0031643D01*
X0128493Y0030745D01*
X0129665Y0030259D01*
X0130935Y0030259D01*
X0132107Y0030745D01*
X0133005Y0031643D01*
X0133491Y0032815D01*
X0133491Y0034085D01*
X0133005Y0035257D01*
X0132800Y0035462D01*
X0132800Y0043638D01*
X0133205Y0044043D01*
X0133691Y0045215D01*
X0133691Y0046485D01*
X0133205Y0047657D01*
X0132307Y0048555D01*
X0131135Y0049041D01*
X0129865Y0049041D01*
X0128693Y0048555D01*
X0127795Y0047657D01*
X0127309Y0046485D01*
X0127309Y0045215D01*
X0127800Y0043816D02*
X0027805Y0043816D01*
X0026446Y0045175D02*
X0022304Y0045175D01*
X0019375Y0042246D01*
X0019375Y0038104D01*
X0022304Y0035175D01*
X0019375Y0032246D01*
X0019375Y0028104D01*
X0022304Y0025175D01*
X0026446Y0025175D01*
X0029375Y0028104D01*
X0029375Y0032246D01*
X0026446Y0035175D01*
X0022304Y0035175D01*
X0026446Y0035175D01*
X0029375Y0038104D01*
X0029375Y0042246D01*
X0026446Y0045175D01*
X0024575Y0045414D02*
X0024175Y0045414D01*
X0024175Y0047013D02*
X0024575Y0047013D01*
X0024575Y0048611D02*
X0024175Y0048611D01*
X0020749Y0047013D02*
X0018001Y0047013D01*
X0019175Y0048187D02*
X0016363Y0045375D01*
X0014575Y0045375D01*
X0014575Y0049975D01*
X0019175Y0049975D01*
X0019175Y0048187D01*
X0019175Y0048611D02*
X0019575Y0048611D01*
X0019575Y0051808D02*
X0019175Y0051808D01*
X0017931Y0053407D02*
X0020819Y0053407D01*
X0024175Y0053407D02*
X0024575Y0053407D01*
X0024575Y0051808D02*
X0024175Y0051808D01*
X0024175Y0056604D02*
X0024575Y0056604D01*
X0024575Y0058202D02*
X0024175Y0058202D01*
X0024175Y0059801D02*
X0024575Y0059801D01*
X0024575Y0060375D02*
X0029175Y0060375D01*
X0029175Y0062163D01*
X0026363Y0064975D01*
X0024575Y0064975D01*
X0024575Y0060375D01*
X0024575Y0061399D02*
X0024175Y0061399D01*
X0024175Y0062998D02*
X0024575Y0062998D01*
X0024575Y0064596D02*
X0024175Y0064596D01*
X0022304Y0065175D02*
X0026446Y0065175D01*
X0028946Y0067675D01*
X0039163Y0067675D01*
X0039493Y0067345D01*
X0040665Y0066859D01*
X0041935Y0066859D01*
X0043107Y0067345D01*
X0044005Y0068243D01*
X0044491Y0069415D01*
X0044491Y0070685D01*
X0044005Y0071857D01*
X0043107Y0072755D01*
X0041935Y0073241D01*
X0040665Y0073241D01*
X0039493Y0072755D01*
X0039419Y0072681D01*
X0039095Y0072703D01*
X0039014Y0072675D01*
X0028946Y0072675D01*
X0026446Y0075175D01*
X0022304Y0075175D01*
X0019375Y0072246D01*
X0019375Y0068104D01*
X0022304Y0065175D01*
X0022008Y0064596D02*
X0016742Y0064596D01*
X0016363Y0064975D02*
X0014575Y0064975D01*
X0014575Y0060375D01*
X0014175Y0060375D01*
X0014175Y0064975D01*
X0012387Y0064975D01*
X0009575Y0062163D01*
X0009575Y0060375D01*
X0014175Y0060375D01*
X0014175Y0059975D01*
X0009575Y0059975D01*
X0009575Y0058187D01*
X0012387Y0055375D01*
X0014175Y0055375D01*
X0014175Y0059975D01*
X0014575Y0059975D01*
X0014575Y0060375D01*
X0019175Y0060375D01*
X0019175Y0062163D01*
X0016363Y0064975D01*
X0016446Y0065175D02*
X0019375Y0068104D01*
X0019375Y0072246D01*
X0016446Y0075175D01*
X0012304Y0075175D01*
X0009375Y0072246D01*
X0009375Y0068104D01*
X0012304Y0065175D01*
X0016446Y0065175D01*
X0017466Y0066195D02*
X0021284Y0066195D01*
X0019686Y0067793D02*
X0019064Y0067793D01*
X0019375Y0069392D02*
X0019375Y0069392D01*
X0019375Y0070990D02*
X0019375Y0070990D01*
X0019032Y0072589D02*
X0019718Y0072589D01*
X0021316Y0074187D02*
X0017434Y0074187D01*
X0011316Y0074187D02*
X0006700Y0074187D01*
X0006700Y0072589D02*
X0009718Y0072589D01*
X0009375Y0070990D02*
X0006700Y0070990D01*
X0006700Y0069392D02*
X0009375Y0069392D01*
X0009686Y0067793D02*
X0006700Y0067793D01*
X0006700Y0066195D02*
X0011284Y0066195D01*
X0012008Y0064596D02*
X0006700Y0064596D01*
X0006700Y0062998D02*
X0010410Y0062998D01*
X0009575Y0061399D02*
X0006700Y0061399D01*
X0006700Y0059801D02*
X0009575Y0059801D01*
X0009575Y0058202D02*
X0006700Y0058202D01*
X0006700Y0056604D02*
X0011158Y0056604D01*
X0014175Y0056604D02*
X0014575Y0056604D01*
X0014575Y0055375D02*
X0016363Y0055375D01*
X0019175Y0058187D01*
X0019175Y0059975D01*
X0014575Y0059975D01*
X0014575Y0055375D01*
X0014575Y0058202D02*
X0014175Y0058202D01*
X0014175Y0059801D02*
X0014575Y0059801D01*
X0014575Y0061399D02*
X0014175Y0061399D01*
X0014175Y0062998D02*
X0014575Y0062998D01*
X0014575Y0064596D02*
X0014175Y0064596D01*
X0018340Y0062998D02*
X0020410Y0062998D01*
X0019575Y0061399D02*
X0019175Y0061399D01*
X0019175Y0059801D02*
X0019575Y0059801D01*
X0019575Y0058202D02*
X0019175Y0058202D01*
X0017592Y0056604D02*
X0021158Y0056604D01*
X0014575Y0053407D02*
X0014175Y0053407D01*
X0014175Y0051808D02*
X0014575Y0051808D01*
X0014575Y0048611D02*
X0014175Y0048611D01*
X0014175Y0047013D02*
X0014575Y0047013D01*
X0014575Y0045414D02*
X0014175Y0045414D01*
X0012348Y0045414D02*
X0006700Y0045414D01*
X0006700Y0043816D02*
X0010945Y0043816D01*
X0012304Y0045175D02*
X0009375Y0042246D01*
X0009375Y0038104D01*
X0012304Y0035175D01*
X0009375Y0032246D01*
X0009375Y0028104D01*
X0012304Y0025175D01*
X0016446Y0025175D01*
X0019375Y0028104D01*
X0019375Y0032246D01*
X0016446Y0035175D01*
X0012304Y0035175D01*
X0016446Y0035175D01*
X0019375Y0038104D01*
X0019375Y0042246D01*
X0016446Y0045175D01*
X0012304Y0045175D01*
X0010749Y0047013D02*
X0006700Y0047013D01*
X0006700Y0048611D02*
X0009575Y0048611D01*
X0016402Y0045414D02*
X0022348Y0045414D01*
X0020945Y0043816D02*
X0017805Y0043816D01*
X0019375Y0042217D02*
X0019375Y0042217D01*
X0019375Y0040619D02*
X0019375Y0040619D01*
X0019375Y0039020D02*
X0019375Y0039020D01*
X0018693Y0037422D02*
X0020057Y0037422D01*
X0021656Y0035823D02*
X0017094Y0035823D01*
X0017396Y0034225D02*
X0021354Y0034225D01*
X0019755Y0032626D02*
X0018995Y0032626D01*
X0019375Y0031028D02*
X0019375Y0031028D01*
X0019375Y0029429D02*
X0019375Y0029429D01*
X0019102Y0027831D02*
X0019648Y0027831D01*
X0021247Y0026232D02*
X0017503Y0026232D01*
X0016363Y0024975D02*
X0014575Y0024975D01*
X0014575Y0020375D01*
X0014175Y0020375D01*
X0014175Y0024975D01*
X0012387Y0024975D01*
X0009575Y0022163D01*
X0009575Y0020375D01*
X0014175Y0020375D01*
X0014175Y0019975D01*
X0009575Y0019975D01*
X0009575Y0018187D01*
X0012387Y0015375D01*
X0014175Y0015375D01*
X0014175Y0019975D01*
X0014575Y0019975D01*
X0014575Y0020375D01*
X0019175Y0020375D01*
X0019175Y0022163D01*
X0016363Y0024975D01*
X0016705Y0024634D02*
X0022045Y0024634D01*
X0022387Y0024975D02*
X0019575Y0022163D01*
X0019575Y0020375D01*
X0024175Y0020375D01*
X0024175Y0024975D01*
X0022387Y0024975D01*
X0024175Y0024634D02*
X0024575Y0024634D01*
X0024575Y0024975D02*
X0024575Y0020375D01*
X0024175Y0020375D01*
X0024175Y0019975D01*
X0019575Y0019975D01*
X0019575Y0018187D01*
X0022387Y0015375D01*
X0024175Y0015375D01*
X0024175Y0019975D01*
X0024575Y0019975D01*
X0024575Y0020375D01*
X0029175Y0020375D01*
X0029175Y0022163D01*
X0026363Y0024975D01*
X0024575Y0024975D01*
X0024575Y0023035D02*
X0024175Y0023035D01*
X0024175Y0021437D02*
X0024575Y0021437D01*
X0024575Y0019975D02*
X0029175Y0019975D01*
X0029175Y0018187D01*
X0026363Y0015375D01*
X0024575Y0015375D01*
X0024575Y0019975D01*
X0024575Y0019838D02*
X0024175Y0019838D01*
X0024175Y0018240D02*
X0024575Y0018240D01*
X0024575Y0016641D02*
X0024175Y0016641D01*
X0022304Y0015175D02*
X0019375Y0012246D01*
X0016446Y0015175D01*
X0012304Y0015175D01*
X0009375Y0012246D01*
X0009375Y0008104D01*
X0010929Y0006550D01*
X0006700Y0006550D01*
X0006700Y0167550D01*
X0073229Y0167550D01*
X0072561Y0166882D01*
X0071800Y0165045D01*
X0071800Y0157055D01*
X0072561Y0155218D01*
X0073968Y0153811D01*
X0075805Y0153050D01*
X0077795Y0153050D01*
X0079632Y0153811D01*
X0081039Y0155218D01*
X0081800Y0157055D01*
X0082561Y0155218D01*
X0083968Y0153811D01*
X0085805Y0153050D01*
X0087795Y0153050D01*
X0089632Y0153811D01*
X0091039Y0155218D01*
X0091800Y0157055D01*
X0092561Y0155218D01*
X0093968Y0153811D01*
X0095805Y0153050D01*
X0097795Y0153050D01*
X0099632Y0153811D01*
X0101039Y0155218D01*
X0101800Y0157055D01*
X0102561Y0155218D01*
X0103968Y0153811D01*
X0105805Y0153050D01*
X0107795Y0153050D01*
X0109632Y0153811D01*
X0111039Y0155218D01*
X0111800Y0157055D01*
X0112561Y0155218D01*
X0113968Y0153811D01*
X0115805Y0153050D01*
X0117795Y0153050D01*
X0119632Y0153811D01*
X0121039Y0155218D01*
X0121800Y0157055D01*
X0122561Y0155218D01*
X0123968Y0153811D01*
X0125805Y0153050D01*
X0127795Y0153050D01*
X0129632Y0153811D01*
X0131039Y0155218D01*
X0131800Y0157055D01*
X0132561Y0155218D01*
X0133968Y0153811D01*
X0135805Y0153050D01*
X0137795Y0153050D01*
X0139632Y0153811D01*
X0141039Y0155218D01*
X0141800Y0157055D01*
X0142561Y0155218D01*
X0143968Y0153811D01*
X0145805Y0153050D01*
X0147795Y0153050D01*
X0149632Y0153811D01*
X0151039Y0155218D01*
X0151800Y0157055D01*
X0151800Y0165045D01*
X0151039Y0166882D01*
X0150371Y0167550D01*
X0153329Y0167550D01*
X0152661Y0166882D01*
X0151900Y0165045D01*
X0151900Y0157055D01*
X0152661Y0155218D01*
X0154068Y0153811D01*
X0155905Y0153050D01*
X0157895Y0153050D01*
X0159732Y0153811D01*
X0161139Y0155218D01*
X0161900Y0157055D01*
X0162661Y0155218D01*
X0164068Y0153811D01*
X0165905Y0153050D01*
X0167895Y0153050D01*
X0169732Y0153811D01*
X0171139Y0155218D01*
X0171900Y0157055D01*
X0172661Y0155218D01*
X0174068Y0153811D01*
X0175905Y0153050D01*
X0177895Y0153050D01*
X0179732Y0153811D01*
X0181139Y0155218D01*
X0181900Y0157055D01*
X0182661Y0155218D01*
X0184068Y0153811D01*
X0185905Y0153050D01*
X0187895Y0153050D01*
X0189732Y0153811D01*
X0191139Y0155218D01*
X0191900Y0157055D01*
X0192661Y0155218D01*
X0194068Y0153811D01*
X0195905Y0153050D01*
X0197895Y0153050D01*
X0199732Y0153811D01*
X0201139Y0155218D01*
X0201900Y0157055D01*
X0202661Y0155218D01*
X0204068Y0153811D01*
X0205905Y0153050D01*
X0207895Y0153050D01*
X0209732Y0153811D01*
X0211139Y0155218D01*
X0211900Y0157055D01*
X0212661Y0155218D01*
X0214068Y0153811D01*
X0215905Y0153050D01*
X0217895Y0153050D01*
X0219732Y0153811D01*
X0221139Y0155218D01*
X0221900Y0157055D01*
X0222661Y0155218D01*
X0224068Y0153811D01*
X0225905Y0153050D01*
X0227895Y0153050D01*
X0229732Y0153811D01*
X0231139Y0155218D01*
X0231900Y0157055D01*
X0232661Y0155218D01*
X0234068Y0153811D01*
X0235905Y0153050D01*
X0237895Y0153050D01*
X0239732Y0153811D01*
X0241139Y0155218D01*
X0241900Y0157055D01*
X0242661Y0155218D01*
X0244068Y0153811D01*
X0245905Y0153050D01*
X0247895Y0153050D01*
X0249732Y0153811D01*
X0251139Y0155218D01*
X0251900Y0157055D01*
X0252661Y0155218D01*
X0254068Y0153811D01*
X0255905Y0153050D01*
X0257895Y0153050D01*
X0259732Y0153811D01*
X0261139Y0155218D01*
X0261900Y0157055D01*
X0261900Y0165045D01*
X0261139Y0166882D01*
X0260471Y0167550D01*
X0300200Y0167550D01*
X0300200Y0006550D01*
X0247900Y0006550D01*
X0247900Y0007909D01*
X0248284Y0008837D01*
X0248284Y0010263D01*
X0247739Y0011580D01*
X0246730Y0012589D01*
X0245413Y0013134D01*
X0243987Y0013134D01*
X0242670Y0012589D01*
X0241661Y0011580D01*
X0241116Y0010263D01*
X0241116Y0008837D01*
X0241129Y0008804D01*
X0238076Y0008808D01*
X0238800Y0010555D01*
X0238800Y0018545D01*
X0238039Y0020382D01*
X0236632Y0021789D01*
X0234795Y0022550D01*
X0232805Y0022550D01*
X0230968Y0021789D01*
X0229561Y0020382D01*
X0228800Y0018545D01*
X0228039Y0020382D01*
X0226632Y0021789D01*
X0224795Y0022550D01*
X0222805Y0022550D01*
X0220968Y0021789D01*
X0219561Y0020382D01*
X0218800Y0018545D01*
X0218039Y0020382D01*
X0216632Y0021789D01*
X0214795Y0022550D01*
X0212805Y0022550D01*
X0210968Y0021789D01*
X0209561Y0020382D01*
X0208800Y0018545D01*
X0208039Y0020382D01*
X0206903Y0021518D01*
X0207319Y0021934D01*
X0207650Y0022732D01*
X0208065Y0022559D01*
X0209335Y0022559D01*
X0210507Y0023045D01*
X0211405Y0023943D01*
X0211891Y0025115D01*
X0211891Y0026385D01*
X0211405Y0027557D01*
X0210507Y0028455D01*
X0209335Y0028941D01*
X0208065Y0028941D01*
X0206893Y0028455D01*
X0206688Y0028250D01*
X0204703Y0028250D01*
X0203784Y0027869D01*
X0203081Y0027166D01*
X0202700Y0026247D01*
X0202700Y0025850D01*
X0200425Y0025850D01*
X0200263Y0026013D01*
X0199087Y0026500D01*
X0176613Y0026500D01*
X0176155Y0027607D01*
X0175257Y0028505D01*
X0174085Y0028991D01*
X0172815Y0028991D01*
X0171643Y0028505D01*
X0170745Y0027607D01*
X0170283Y0026492D01*
X0136008Y0026404D01*
X0135407Y0027005D01*
X0134235Y0027491D01*
X0132965Y0027491D01*
X0131793Y0027005D01*
X0131188Y0026400D01*
X0095018Y0026400D01*
X0094853Y0026800D01*
X0100628Y0026800D01*
X0101800Y0027972D01*
X0101800Y0035928D01*
X0100628Y0037100D01*
X0099569Y0037100D01*
X0098900Y0039924D01*
X0098900Y0040187D01*
X0098755Y0040537D01*
X0098667Y0040907D01*
X0098513Y0041120D01*
X0098413Y0041363D01*
X0098144Y0041631D01*
X0097922Y0041939D01*
X0097698Y0042077D01*
X0097513Y0042263D01*
X0097162Y0042408D01*
X0096839Y0042608D01*
X0096579Y0042649D01*
X0096337Y0042750D01*
X0095957Y0042750D01*
X0095582Y0042811D01*
X0095326Y0042750D01*
X0094063Y0042750D01*
X0092887Y0042263D01*
X0091987Y0041363D01*
X0091500Y0040187D01*
X0091500Y0038913D01*
X0091987Y0037737D01*
X0092625Y0037100D01*
X0084700Y0037100D01*
X0084700Y0040047D01*
X0084319Y0040966D01*
X0083616Y0041669D01*
X0082697Y0042050D01*
X0077962Y0042050D01*
X0077757Y0042255D01*
X0076585Y0042741D01*
X0075315Y0042741D01*
X0074143Y0042255D01*
X0073245Y0041357D01*
X0072759Y0040185D01*
X0072759Y0038915D01*
X0073245Y0037743D01*
X0074143Y0036845D01*
X0075315Y0036359D01*
X0076585Y0036359D01*
X0077757Y0036845D01*
X0077962Y0037050D01*
X0079700Y0037050D01*
X0079700Y0032803D01*
X0080081Y0031884D01*
X0080784Y0031181D01*
X0081200Y0031008D01*
X0081200Y0030827D01*
X0081168Y0030827D01*
X0080375Y0030846D01*
X0080373Y0030845D01*
X0080370Y0030845D01*
X0079631Y0030559D01*
X0078891Y0030273D01*
X0078889Y0030271D01*
X0078886Y0030270D01*
X0078316Y0029725D01*
X0076226Y0027732D01*
X0076143Y0027696D01*
X0075652Y0027185D01*
X0075139Y0026696D01*
X0075103Y0026614D01*
X0075040Y0026549D01*
X0074782Y0025889D01*
X0074495Y0025241D01*
X0074493Y0025151D01*
X0072964Y0021245D01*
X0072675Y0020546D01*
X0072675Y0020505D01*
X0072660Y0020467D01*
X0072675Y0019711D01*
X0072675Y0018954D01*
X0072691Y0018917D01*
X0072691Y0018876D01*
X0072995Y0018183D01*
X0073284Y0017484D01*
X0073313Y0017455D01*
X0073329Y0017418D01*
X0073600Y0017158D01*
X0073600Y0006550D01*
X0027821Y0006550D01*
X0029375Y0008104D01*
X0029375Y0012246D01*
X0026446Y0015175D01*
X0022304Y0015175D01*
X0022172Y0015043D02*
X0016578Y0015043D01*
X0016363Y0015375D02*
X0019175Y0018187D01*
X0019175Y0019975D01*
X0014575Y0019975D01*
X0014575Y0015375D01*
X0016363Y0015375D01*
X0017629Y0016641D02*
X0021121Y0016641D01*
X0019575Y0018240D02*
X0019175Y0018240D01*
X0019175Y0019838D02*
X0019575Y0019838D01*
X0019575Y0021437D02*
X0019175Y0021437D01*
X0018303Y0023035D02*
X0020447Y0023035D01*
X0014575Y0023035D02*
X0014175Y0023035D01*
X0014175Y0021437D02*
X0014575Y0021437D01*
X0014575Y0019838D02*
X0014175Y0019838D01*
X0014175Y0018240D02*
X0014575Y0018240D01*
X0014575Y0016641D02*
X0014175Y0016641D01*
X0012172Y0015043D02*
X0006700Y0015043D01*
X0006700Y0016641D02*
X0011121Y0016641D01*
X0009575Y0018240D02*
X0006700Y0018240D01*
X0006700Y0019838D02*
X0009575Y0019838D01*
X0009575Y0021437D02*
X0006700Y0021437D01*
X0006700Y0023035D02*
X0010447Y0023035D01*
X0012045Y0024634D02*
X0006700Y0024634D01*
X0006700Y0026232D02*
X0011247Y0026232D01*
X0009648Y0027831D02*
X0006700Y0027831D01*
X0006700Y0029429D02*
X0009375Y0029429D01*
X0009375Y0031028D02*
X0006700Y0031028D01*
X0006700Y0032626D02*
X0009755Y0032626D01*
X0011354Y0034225D02*
X0006700Y0034225D01*
X0006700Y0035823D02*
X0011656Y0035823D01*
X0010057Y0037422D02*
X0006700Y0037422D01*
X0006700Y0039020D02*
X0009375Y0039020D01*
X0009375Y0040619D02*
X0006700Y0040619D01*
X0006700Y0042217D02*
X0009375Y0042217D01*
X0027094Y0035823D02*
X0043865Y0035823D01*
X0043926Y0035676D02*
X0043532Y0036628D01*
X0043532Y0037659D01*
X0043926Y0038611D01*
X0044655Y0039340D01*
X0045607Y0039734D01*
X0046638Y0039734D01*
X0047590Y0039340D01*
X0048318Y0038611D01*
X0048669Y0037766D01*
X0049481Y0037766D01*
X0049832Y0038611D01*
X0050560Y0039340D01*
X0051512Y0039734D01*
X0052543Y0039734D01*
X0053495Y0039340D01*
X0054224Y0038611D01*
X0054618Y0037659D01*
X0054618Y0036628D01*
X0054224Y0035676D01*
X0053723Y0035175D01*
X0054224Y0034674D01*
X0054618Y0033722D01*
X0054618Y0032738D01*
X0054865Y0032841D01*
X0056135Y0032841D01*
X0057307Y0032355D01*
X0057512Y0032150D01*
X0066597Y0032150D01*
X0067516Y0031769D01*
X0068219Y0031066D01*
X0068600Y0030147D01*
X0068600Y0021462D01*
X0068805Y0021257D01*
X0069291Y0020085D01*
X0069291Y0018815D01*
X0068805Y0017643D01*
X0067907Y0016745D01*
X0066735Y0016259D01*
X0065465Y0016259D01*
X0064293Y0016745D01*
X0063395Y0017643D01*
X0062909Y0018815D01*
X0062909Y0020085D01*
X0063395Y0021257D01*
X0063600Y0021462D01*
X0063600Y0027150D01*
X0057512Y0027150D01*
X0057307Y0026945D01*
X0056135Y0026459D01*
X0054865Y0026459D01*
X0053693Y0026945D01*
X0052795Y0027843D01*
X0052309Y0029015D01*
X0052309Y0030285D01*
X0052447Y0030616D01*
X0051512Y0030616D01*
X0050560Y0031010D01*
X0049832Y0031739D01*
X0049481Y0032584D01*
X0048669Y0032584D01*
X0048318Y0031739D01*
X0047590Y0031010D01*
X0046638Y0030616D01*
X0045607Y0030616D01*
X0044655Y0031010D01*
X0043926Y0031739D01*
X0043532Y0032691D01*
X0043532Y0033722D01*
X0043926Y0034674D01*
X0044427Y0035175D01*
X0043926Y0035676D01*
X0043740Y0034225D02*
X0027396Y0034225D01*
X0028995Y0032626D02*
X0043559Y0032626D01*
X0044637Y0031028D02*
X0029375Y0031028D01*
X0029375Y0029429D02*
X0052309Y0029429D01*
X0052807Y0027831D02*
X0029102Y0027831D01*
X0027503Y0026232D02*
X0063600Y0026232D01*
X0063600Y0024634D02*
X0026705Y0024634D01*
X0028303Y0023035D02*
X0063600Y0023035D01*
X0063574Y0021437D02*
X0029175Y0021437D01*
X0029175Y0019838D02*
X0062909Y0019838D01*
X0063148Y0018240D02*
X0029175Y0018240D01*
X0027629Y0016641D02*
X0064544Y0016641D01*
X0067656Y0016641D02*
X0073600Y0016641D01*
X0073600Y0015043D02*
X0026578Y0015043D01*
X0028177Y0013444D02*
X0073600Y0013444D01*
X0073600Y0011846D02*
X0029375Y0011846D01*
X0029375Y0010247D02*
X0073600Y0010247D01*
X0073600Y0008649D02*
X0029375Y0008649D01*
X0028321Y0007050D02*
X0073600Y0007050D01*
X0072970Y0018240D02*
X0069052Y0018240D01*
X0069291Y0019838D02*
X0072672Y0019838D01*
X0073040Y0021437D02*
X0068626Y0021437D01*
X0068600Y0023035D02*
X0073665Y0023035D01*
X0074291Y0024634D02*
X0068600Y0024634D01*
X0068600Y0026232D02*
X0074916Y0026232D01*
X0076329Y0027831D02*
X0068600Y0027831D01*
X0068600Y0029429D02*
X0078006Y0029429D01*
X0081153Y0031028D02*
X0068235Y0031028D01*
X0073566Y0037422D02*
X0054618Y0037422D01*
X0054285Y0035823D02*
X0079700Y0035823D01*
X0079700Y0034225D02*
X0054410Y0034225D01*
X0056652Y0032626D02*
X0079773Y0032626D01*
X0084700Y0037422D02*
X0092303Y0037422D01*
X0091500Y0039020D02*
X0084700Y0039020D01*
X0084463Y0040619D02*
X0091679Y0040619D01*
X0092842Y0042217D02*
X0077795Y0042217D01*
X0074105Y0042217D02*
X0029375Y0042217D01*
X0029375Y0040619D02*
X0072939Y0040619D01*
X0072759Y0039020D02*
X0053815Y0039020D01*
X0050241Y0039020D02*
X0047909Y0039020D01*
X0044335Y0039020D02*
X0029375Y0039020D01*
X0028693Y0037422D02*
X0043532Y0037422D01*
X0047607Y0031028D02*
X0050543Y0031028D01*
X0054475Y0047013D02*
X0127528Y0047013D01*
X0128829Y0048611D02*
X0054891Y0048611D01*
X0054507Y0050210D02*
X0057699Y0050210D01*
X0062372Y0050210D02*
X0138614Y0050210D01*
X0139910Y0048611D02*
X0132171Y0048611D01*
X0133472Y0047013D02*
X0141117Y0047013D01*
X0142325Y0045414D02*
X0133691Y0045414D01*
X0132978Y0043816D02*
X0143533Y0043816D01*
X0144741Y0042217D02*
X0132800Y0042217D01*
X0132800Y0040619D02*
X0145948Y0040619D01*
X0147156Y0039020D02*
X0132800Y0039020D01*
X0132800Y0037422D02*
X0148364Y0037422D01*
X0149572Y0035823D02*
X0132800Y0035823D01*
X0133433Y0034225D02*
X0170567Y0034225D01*
X0170588Y0032626D02*
X0133412Y0032626D01*
X0132390Y0031028D02*
X0171610Y0031028D01*
X0170969Y0027831D02*
X0101659Y0027831D01*
X0101800Y0029429D02*
X0257683Y0029429D01*
X0258245Y0027831D02*
X0211131Y0027831D01*
X0211891Y0026232D02*
X0258806Y0026232D01*
X0260589Y0024634D02*
X0211691Y0024634D01*
X0210483Y0023035D02*
X0300200Y0023035D01*
X0300200Y0021437D02*
X0236984Y0021437D01*
X0238264Y0019838D02*
X0300200Y0019838D01*
X0300200Y0018240D02*
X0238800Y0018240D01*
X0238800Y0016641D02*
X0300200Y0016641D01*
X0300200Y0015043D02*
X0238800Y0015043D01*
X0238800Y0013444D02*
X0300200Y0013444D01*
X0300200Y0011846D02*
X0247473Y0011846D01*
X0248284Y0010247D02*
X0300200Y0010247D01*
X0300200Y0008649D02*
X0248206Y0008649D01*
X0247900Y0007050D02*
X0300200Y0007050D01*
X0300200Y0024634D02*
X0286671Y0024634D01*
X0288059Y0026232D02*
X0300200Y0026232D01*
X0300200Y0027831D02*
X0288303Y0027831D01*
X0288300Y0029429D02*
X0300200Y0029429D01*
X0300200Y0031028D02*
X0288300Y0031028D01*
X0288300Y0032626D02*
X0300200Y0032626D01*
X0300200Y0034225D02*
X0288300Y0034225D01*
X0288300Y0035823D02*
X0300200Y0035823D01*
X0300200Y0037422D02*
X0288300Y0037422D01*
X0288300Y0039020D02*
X0300200Y0039020D01*
X0300200Y0040619D02*
X0288300Y0040619D01*
X0288300Y0042217D02*
X0300200Y0042217D01*
X0300200Y0043816D02*
X0288300Y0043816D01*
X0288300Y0045414D02*
X0300200Y0045414D01*
X0300200Y0047013D02*
X0288300Y0047013D01*
X0288300Y0048611D02*
X0300200Y0048611D01*
X0300200Y0050210D02*
X0288300Y0050210D01*
X0288300Y0051808D02*
X0300200Y0051808D01*
X0300200Y0053407D02*
X0288300Y0053407D01*
X0288300Y0055005D02*
X0300200Y0055005D01*
X0300200Y0056604D02*
X0288300Y0056604D01*
X0288300Y0058202D02*
X0300200Y0058202D01*
X0300200Y0059801D02*
X0288300Y0059801D01*
X0288300Y0061399D02*
X0300200Y0061399D01*
X0300200Y0062998D02*
X0288300Y0062998D01*
X0288300Y0064596D02*
X0300200Y0064596D01*
X0300200Y0066195D02*
X0288300Y0066195D01*
X0288300Y0067793D02*
X0300200Y0067793D01*
X0300200Y0069392D02*
X0288300Y0069392D01*
X0288300Y0070990D02*
X0300200Y0070990D01*
X0300200Y0072589D02*
X0288300Y0072589D01*
X0288300Y0074187D02*
X0300200Y0074187D01*
X0300200Y0075786D02*
X0288300Y0075786D01*
X0288300Y0077384D02*
X0300200Y0077384D01*
X0300200Y0078983D02*
X0288300Y0078983D01*
X0288300Y0080582D02*
X0300200Y0080582D01*
X0300200Y0082180D02*
X0288300Y0082180D01*
X0288300Y0083779D02*
X0300200Y0083779D01*
X0300200Y0085377D02*
X0288300Y0085377D01*
X0288300Y0086976D02*
X0300200Y0086976D01*
X0300200Y0088574D02*
X0288300Y0088574D01*
X0288300Y0090173D02*
X0300200Y0090173D01*
X0300200Y0091771D02*
X0288300Y0091771D01*
X0288300Y0093370D02*
X0300200Y0093370D01*
X0300200Y0094968D02*
X0288300Y0094968D01*
X0288300Y0096567D02*
X0300200Y0096567D01*
X0300200Y0098165D02*
X0288300Y0098165D01*
X0288300Y0099764D02*
X0300200Y0099764D01*
X0300200Y0101362D02*
X0288300Y0101362D01*
X0288300Y0102961D02*
X0300200Y0102961D01*
X0300200Y0104559D02*
X0288300Y0104559D01*
X0288300Y0106158D02*
X0300200Y0106158D01*
X0300200Y0107756D02*
X0288300Y0107756D01*
X0288300Y0109355D02*
X0300200Y0109355D01*
X0300200Y0110953D02*
X0288300Y0110953D01*
X0288300Y0112552D02*
X0300200Y0112552D01*
X0300200Y0114150D02*
X0288300Y0114150D01*
X0288300Y0115749D02*
X0300200Y0115749D01*
X0300200Y0117347D02*
X0288300Y0117347D01*
X0288300Y0118946D02*
X0300200Y0118946D01*
X0300200Y0120544D02*
X0288300Y0120544D01*
X0288300Y0122143D02*
X0300200Y0122143D01*
X0300200Y0123741D02*
X0288300Y0123741D01*
X0288300Y0125340D02*
X0300200Y0125340D01*
X0300200Y0126938D02*
X0288300Y0126938D01*
X0288300Y0128537D02*
X0300200Y0128537D01*
X0300200Y0130135D02*
X0288300Y0130135D01*
X0288300Y0131734D02*
X0300200Y0131734D01*
X0300200Y0133332D02*
X0288300Y0133332D01*
X0288300Y0134931D02*
X0300200Y0134931D01*
X0300200Y0136529D02*
X0288303Y0136529D01*
X0288322Y0138128D02*
X0300200Y0138128D01*
X0300200Y0139726D02*
X0288340Y0139726D01*
X0288359Y0141325D02*
X0300200Y0141325D01*
X0300200Y0142923D02*
X0288377Y0142923D01*
X0288395Y0144522D02*
X0300200Y0144522D01*
X0300200Y0146120D02*
X0288414Y0146120D01*
X0288432Y0147719D02*
X0300200Y0147719D01*
X0300200Y0149318D02*
X0288450Y0149318D01*
X0288469Y0150916D02*
X0300200Y0150916D01*
X0300200Y0152515D02*
X0288487Y0152515D01*
X0288506Y0154113D02*
X0300200Y0154113D01*
X0300200Y0155712D02*
X0288500Y0155712D01*
X0288325Y0157310D02*
X0300200Y0157310D01*
X0300200Y0158909D02*
X0287167Y0158909D01*
X0278088Y0160507D02*
X0300200Y0160507D01*
X0300200Y0162106D02*
X0261900Y0162106D01*
X0261900Y0163704D02*
X0300200Y0163704D01*
X0300200Y0165303D02*
X0261793Y0165303D01*
X0261120Y0166901D02*
X0300200Y0166901D01*
X0282087Y0152515D02*
X0278636Y0152515D01*
X0278132Y0150489D02*
X0276295Y0151250D01*
X0268305Y0151250D01*
X0266468Y0150489D01*
X0265061Y0149082D01*
X0264300Y0147245D01*
X0264300Y0145255D01*
X0265061Y0143418D01*
X0266468Y0142011D01*
X0268305Y0141250D01*
X0276295Y0141250D01*
X0278132Y0142011D01*
X0279539Y0143418D01*
X0280300Y0145255D01*
X0280300Y0147245D01*
X0279539Y0149082D01*
X0278132Y0150489D01*
X0277101Y0150916D02*
X0282068Y0150916D01*
X0282050Y0149318D02*
X0279304Y0149318D01*
X0280103Y0147719D02*
X0282032Y0147719D01*
X0282013Y0146120D02*
X0280300Y0146120D01*
X0279996Y0144522D02*
X0281995Y0144522D01*
X0281977Y0142923D02*
X0279045Y0142923D01*
X0276476Y0141325D02*
X0281958Y0141325D01*
X0281940Y0139726D02*
X0278895Y0139726D01*
X0268124Y0141325D02*
X0166646Y0141325D01*
X0166332Y0141011D02*
X0167739Y0142418D01*
X0168500Y0144255D01*
X0168500Y0146245D01*
X0167739Y0148082D01*
X0166332Y0149489D01*
X0164495Y0150250D01*
X0156505Y0150250D01*
X0154668Y0149489D01*
X0153261Y0148082D01*
X0152500Y0146245D01*
X0152500Y0144255D01*
X0153261Y0142418D01*
X0154668Y0141011D01*
X0156505Y0140250D01*
X0154668Y0139489D01*
X0153261Y0138082D01*
X0152500Y0136245D01*
X0152500Y0134255D01*
X0153261Y0132418D01*
X0154668Y0131011D01*
X0156505Y0130250D01*
X0164495Y0130250D01*
X0166332Y0131011D01*
X0167739Y0132418D01*
X0168500Y0134255D01*
X0168500Y0136245D01*
X0167739Y0138082D01*
X0166332Y0139489D01*
X0164495Y0140250D01*
X0156505Y0140250D01*
X0164495Y0140250D01*
X0166332Y0141011D01*
X0165759Y0139726D02*
X0265705Y0139726D01*
X0264666Y0138128D02*
X0167693Y0138128D01*
X0168382Y0136529D02*
X0264300Y0136529D01*
X0264434Y0134931D02*
X0168500Y0134931D01*
X0168118Y0133332D02*
X0265147Y0133332D01*
X0267137Y0131734D02*
X0167055Y0131734D01*
X0153945Y0131734D02*
X0051222Y0131734D01*
X0051005Y0132257D02*
X0051491Y0131085D01*
X0051491Y0129815D01*
X0051005Y0128643D01*
X0050900Y0128538D01*
X0050900Y0107721D01*
X0050916Y0107679D01*
X0050900Y0107206D01*
X0050900Y0106733D01*
X0050882Y0106691D01*
X0050881Y0106645D01*
X0050685Y0106214D01*
X0050504Y0105777D01*
X0050472Y0105745D01*
X0050469Y0105738D01*
X0050491Y0105685D01*
X0050491Y0104415D01*
X0050005Y0103243D01*
X0049107Y0102345D01*
X0047935Y0101859D01*
X0046665Y0101859D01*
X0045493Y0102345D01*
X0044595Y0103243D01*
X0044109Y0104415D01*
X0044109Y0105685D01*
X0044595Y0106857D01*
X0045493Y0107755D01*
X0045700Y0107841D01*
X0045700Y0128538D01*
X0045595Y0128643D01*
X0045109Y0129815D01*
X0045109Y0131085D01*
X0045595Y0132257D01*
X0046493Y0133155D01*
X0047665Y0133641D01*
X0048935Y0133641D01*
X0050107Y0133155D01*
X0051005Y0132257D01*
X0049679Y0133332D02*
X0152882Y0133332D01*
X0152500Y0134931D02*
X0006700Y0134931D01*
X0006700Y0136529D02*
X0152618Y0136529D01*
X0153307Y0138128D02*
X0006700Y0138128D01*
X0006700Y0139726D02*
X0155241Y0139726D01*
X0154354Y0141325D02*
X0006700Y0141325D01*
X0006700Y0142923D02*
X0153052Y0142923D01*
X0152500Y0144522D02*
X0006700Y0144522D01*
X0006700Y0146120D02*
X0152500Y0146120D01*
X0153111Y0147719D02*
X0006700Y0147719D01*
X0006700Y0149318D02*
X0154496Y0149318D01*
X0153766Y0154113D02*
X0149934Y0154113D01*
X0151243Y0155712D02*
X0152457Y0155712D01*
X0151900Y0157310D02*
X0151800Y0157310D01*
X0151800Y0158909D02*
X0151900Y0158909D01*
X0151900Y0160507D02*
X0151800Y0160507D01*
X0151800Y0162106D02*
X0151900Y0162106D01*
X0151900Y0163704D02*
X0151800Y0163704D01*
X0151693Y0165303D02*
X0152007Y0165303D01*
X0152680Y0166901D02*
X0151020Y0166901D01*
X0143229Y0167550D02*
X0142561Y0166882D01*
X0141800Y0165045D01*
X0141800Y0157055D01*
X0141800Y0165045D01*
X0141039Y0166882D01*
X0140371Y0167550D01*
X0143229Y0167550D01*
X0142580Y0166901D02*
X0141020Y0166901D01*
X0141693Y0165303D02*
X0141907Y0165303D01*
X0141800Y0163704D02*
X0141800Y0163704D01*
X0141800Y0162106D02*
X0141800Y0162106D01*
X0141800Y0160507D02*
X0141800Y0160507D01*
X0141800Y0158909D02*
X0141800Y0158909D01*
X0141800Y0157310D02*
X0141800Y0157310D01*
X0141243Y0155712D02*
X0142357Y0155712D01*
X0143666Y0154113D02*
X0139934Y0154113D01*
X0133666Y0154113D02*
X0129934Y0154113D01*
X0131243Y0155712D02*
X0132357Y0155712D01*
X0131800Y0157055D02*
X0131800Y0165045D01*
X0132561Y0166882D01*
X0133229Y0167550D01*
X0130371Y0167550D01*
X0131039Y0166882D01*
X0131800Y0165045D01*
X0131800Y0157055D01*
X0131800Y0157310D02*
X0131800Y0157310D01*
X0131800Y0158909D02*
X0131800Y0158909D01*
X0131800Y0160507D02*
X0131800Y0160507D01*
X0131800Y0162106D02*
X0131800Y0162106D01*
X0131800Y0163704D02*
X0131800Y0163704D01*
X0131693Y0165303D02*
X0131907Y0165303D01*
X0132580Y0166901D02*
X0131020Y0166901D01*
X0123229Y0167550D02*
X0122561Y0166882D01*
X0121800Y0165045D01*
X0121800Y0157055D01*
X0121800Y0165045D01*
X0121039Y0166882D01*
X0120371Y0167550D01*
X0123229Y0167550D01*
X0122580Y0166901D02*
X0121020Y0166901D01*
X0121693Y0165303D02*
X0121907Y0165303D01*
X0121800Y0163704D02*
X0121800Y0163704D01*
X0121800Y0162106D02*
X0121800Y0162106D01*
X0121800Y0160507D02*
X0121800Y0160507D01*
X0121800Y0158909D02*
X0121800Y0158909D01*
X0121800Y0157310D02*
X0121800Y0157310D01*
X0121243Y0155712D02*
X0122357Y0155712D01*
X0123666Y0154113D02*
X0119934Y0154113D01*
X0113666Y0154113D02*
X0109934Y0154113D01*
X0111243Y0155712D02*
X0112357Y0155712D01*
X0111800Y0157055D02*
X0111800Y0165045D01*
X0112561Y0166882D01*
X0113229Y0167550D01*
X0110371Y0167550D01*
X0111039Y0166882D01*
X0111800Y0165045D01*
X0111800Y0157055D01*
X0111800Y0157310D02*
X0111800Y0157310D01*
X0111800Y0158909D02*
X0111800Y0158909D01*
X0111800Y0160507D02*
X0111800Y0160507D01*
X0111800Y0162106D02*
X0111800Y0162106D01*
X0111800Y0163704D02*
X0111800Y0163704D01*
X0111693Y0165303D02*
X0111907Y0165303D01*
X0112580Y0166901D02*
X0111020Y0166901D01*
X0103229Y0167550D02*
X0102561Y0166882D01*
X0101800Y0165045D01*
X0101800Y0157055D01*
X0101800Y0165045D01*
X0101039Y0166882D01*
X0100371Y0167550D01*
X0103229Y0167550D01*
X0102580Y0166901D02*
X0101020Y0166901D01*
X0101693Y0165303D02*
X0101907Y0165303D01*
X0101800Y0163704D02*
X0101800Y0163704D01*
X0101800Y0162106D02*
X0101800Y0162106D01*
X0101800Y0160507D02*
X0101800Y0160507D01*
X0101800Y0158909D02*
X0101800Y0158909D01*
X0101800Y0157310D02*
X0101800Y0157310D01*
X0101243Y0155712D02*
X0102357Y0155712D01*
X0103666Y0154113D02*
X0099934Y0154113D01*
X0093666Y0154113D02*
X0089934Y0154113D01*
X0091243Y0155712D02*
X0092357Y0155712D01*
X0091800Y0157055D02*
X0091800Y0165045D01*
X0092561Y0166882D01*
X0093229Y0167550D01*
X0090371Y0167550D01*
X0091039Y0166882D01*
X0091800Y0165045D01*
X0091800Y0157055D01*
X0091800Y0157310D02*
X0091800Y0157310D01*
X0091800Y0158909D02*
X0091800Y0158909D01*
X0091800Y0160507D02*
X0091800Y0160507D01*
X0091800Y0162106D02*
X0091800Y0162106D01*
X0091800Y0163704D02*
X0091800Y0163704D01*
X0091693Y0165303D02*
X0091907Y0165303D01*
X0092580Y0166901D02*
X0091020Y0166901D01*
X0083229Y0167550D02*
X0082561Y0166882D01*
X0081800Y0165045D01*
X0081800Y0157055D01*
X0081800Y0165045D01*
X0081039Y0166882D01*
X0080371Y0167550D01*
X0083229Y0167550D01*
X0082580Y0166901D02*
X0081020Y0166901D01*
X0081693Y0165303D02*
X0081907Y0165303D01*
X0081800Y0163704D02*
X0081800Y0163704D01*
X0081800Y0162106D02*
X0081800Y0162106D01*
X0081800Y0160507D02*
X0081800Y0160507D01*
X0081800Y0158909D02*
X0081800Y0158909D01*
X0081800Y0157310D02*
X0081800Y0157310D01*
X0081243Y0155712D02*
X0082357Y0155712D01*
X0083666Y0154113D02*
X0079934Y0154113D01*
X0073666Y0154113D02*
X0006700Y0154113D01*
X0006700Y0152515D02*
X0265964Y0152515D01*
X0264773Y0154113D02*
X0260034Y0154113D01*
X0261343Y0155712D02*
X0264300Y0155712D01*
X0264327Y0157310D02*
X0261900Y0157310D01*
X0261900Y0158909D02*
X0264989Y0158909D01*
X0266512Y0160507D02*
X0261900Y0160507D01*
X0251900Y0160507D02*
X0251900Y0160507D01*
X0251900Y0158909D02*
X0251900Y0158909D01*
X0251900Y0157310D02*
X0251900Y0157310D01*
X0251900Y0157055D02*
X0251900Y0165045D01*
X0252661Y0166882D01*
X0253329Y0167550D01*
X0250471Y0167550D01*
X0251139Y0166882D01*
X0251900Y0165045D01*
X0251900Y0157055D01*
X0251343Y0155712D02*
X0252457Y0155712D01*
X0253766Y0154113D02*
X0250034Y0154113D01*
X0243766Y0154113D02*
X0240034Y0154113D01*
X0241343Y0155712D02*
X0242457Y0155712D01*
X0241900Y0157055D02*
X0241900Y0165045D01*
X0242661Y0166882D01*
X0243329Y0167550D01*
X0240471Y0167550D01*
X0241139Y0166882D01*
X0241900Y0165045D01*
X0241900Y0157055D01*
X0241900Y0157310D02*
X0241900Y0157310D01*
X0241900Y0158909D02*
X0241900Y0158909D01*
X0241900Y0160507D02*
X0241900Y0160507D01*
X0241900Y0162106D02*
X0241900Y0162106D01*
X0241900Y0163704D02*
X0241900Y0163704D01*
X0241793Y0165303D02*
X0242007Y0165303D01*
X0242680Y0166901D02*
X0241120Y0166901D01*
X0233329Y0167550D02*
X0232661Y0166882D01*
X0231900Y0165045D01*
X0231900Y0157055D01*
X0231900Y0165045D01*
X0231139Y0166882D01*
X0230471Y0167550D01*
X0233329Y0167550D01*
X0232680Y0166901D02*
X0231120Y0166901D01*
X0231793Y0165303D02*
X0232007Y0165303D01*
X0231900Y0163704D02*
X0231900Y0163704D01*
X0231900Y0162106D02*
X0231900Y0162106D01*
X0231900Y0160507D02*
X0231900Y0160507D01*
X0231900Y0158909D02*
X0231900Y0158909D01*
X0231900Y0157310D02*
X0231900Y0157310D01*
X0231343Y0155712D02*
X0232457Y0155712D01*
X0233766Y0154113D02*
X0230034Y0154113D01*
X0223766Y0154113D02*
X0220034Y0154113D01*
X0221343Y0155712D02*
X0222457Y0155712D01*
X0221900Y0157055D02*
X0221900Y0165045D01*
X0222661Y0166882D01*
X0223329Y0167550D01*
X0220471Y0167550D01*
X0221139Y0166882D01*
X0221900Y0165045D01*
X0221900Y0157055D01*
X0221900Y0157310D02*
X0221900Y0157310D01*
X0221900Y0158909D02*
X0221900Y0158909D01*
X0221900Y0160507D02*
X0221900Y0160507D01*
X0221900Y0162106D02*
X0221900Y0162106D01*
X0221900Y0163704D02*
X0221900Y0163704D01*
X0221793Y0165303D02*
X0222007Y0165303D01*
X0222680Y0166901D02*
X0221120Y0166901D01*
X0213329Y0167550D02*
X0212661Y0166882D01*
X0211900Y0165045D01*
X0211900Y0157055D01*
X0211900Y0165045D01*
X0211139Y0166882D01*
X0210471Y0167550D01*
X0213329Y0167550D01*
X0212680Y0166901D02*
X0211120Y0166901D01*
X0211793Y0165303D02*
X0212007Y0165303D01*
X0211900Y0163704D02*
X0211900Y0163704D01*
X0211900Y0162106D02*
X0211900Y0162106D01*
X0211900Y0160507D02*
X0211900Y0160507D01*
X0211900Y0158909D02*
X0211900Y0158909D01*
X0211900Y0157310D02*
X0211900Y0157310D01*
X0211343Y0155712D02*
X0212457Y0155712D01*
X0213766Y0154113D02*
X0210034Y0154113D01*
X0203766Y0154113D02*
X0200034Y0154113D01*
X0201343Y0155712D02*
X0202457Y0155712D01*
X0201900Y0157055D02*
X0201900Y0165045D01*
X0202661Y0166882D01*
X0203329Y0167550D01*
X0200471Y0167550D01*
X0201139Y0166882D01*
X0201900Y0165045D01*
X0201900Y0157055D01*
X0201900Y0157310D02*
X0201900Y0157310D01*
X0201900Y0158909D02*
X0201900Y0158909D01*
X0201900Y0160507D02*
X0201900Y0160507D01*
X0201900Y0162106D02*
X0201900Y0162106D01*
X0201900Y0163704D02*
X0201900Y0163704D01*
X0201793Y0165303D02*
X0202007Y0165303D01*
X0202680Y0166901D02*
X0201120Y0166901D01*
X0193329Y0167550D02*
X0192661Y0166882D01*
X0191900Y0165045D01*
X0191900Y0157055D01*
X0191900Y0165045D01*
X0191139Y0166882D01*
X0190471Y0167550D01*
X0193329Y0167550D01*
X0192680Y0166901D02*
X0191120Y0166901D01*
X0191793Y0165303D02*
X0192007Y0165303D01*
X0191900Y0163704D02*
X0191900Y0163704D01*
X0191900Y0162106D02*
X0191900Y0162106D01*
X0191900Y0160507D02*
X0191900Y0160507D01*
X0191900Y0158909D02*
X0191900Y0158909D01*
X0191900Y0157310D02*
X0191900Y0157310D01*
X0191343Y0155712D02*
X0192457Y0155712D01*
X0193766Y0154113D02*
X0190034Y0154113D01*
X0183766Y0154113D02*
X0180034Y0154113D01*
X0181343Y0155712D02*
X0182457Y0155712D01*
X0181900Y0157055D02*
X0181900Y0165045D01*
X0182661Y0166882D01*
X0183329Y0167550D01*
X0180471Y0167550D01*
X0181139Y0166882D01*
X0181900Y0165045D01*
X0181900Y0157055D01*
X0181900Y0157310D02*
X0181900Y0157310D01*
X0181900Y0158909D02*
X0181900Y0158909D01*
X0181900Y0160507D02*
X0181900Y0160507D01*
X0181900Y0162106D02*
X0181900Y0162106D01*
X0181900Y0163704D02*
X0181900Y0163704D01*
X0181793Y0165303D02*
X0182007Y0165303D01*
X0182680Y0166901D02*
X0181120Y0166901D01*
X0173329Y0167550D02*
X0172661Y0166882D01*
X0171900Y0165045D01*
X0171900Y0157055D01*
X0171900Y0165045D01*
X0171139Y0166882D01*
X0170471Y0167550D01*
X0173329Y0167550D01*
X0172680Y0166901D02*
X0171120Y0166901D01*
X0171793Y0165303D02*
X0172007Y0165303D01*
X0171900Y0163704D02*
X0171900Y0163704D01*
X0171900Y0162106D02*
X0171900Y0162106D01*
X0171900Y0160507D02*
X0171900Y0160507D01*
X0171900Y0158909D02*
X0171900Y0158909D01*
X0171900Y0157310D02*
X0171900Y0157310D01*
X0171343Y0155712D02*
X0172457Y0155712D01*
X0173766Y0154113D02*
X0170034Y0154113D01*
X0163766Y0154113D02*
X0160034Y0154113D01*
X0161343Y0155712D02*
X0162457Y0155712D01*
X0161900Y0157055D02*
X0161900Y0165045D01*
X0162661Y0166882D01*
X0163329Y0167550D01*
X0160471Y0167550D01*
X0161139Y0166882D01*
X0161900Y0165045D01*
X0161900Y0157055D01*
X0161900Y0157310D02*
X0161900Y0157310D01*
X0161900Y0158909D02*
X0161900Y0158909D01*
X0161900Y0160507D02*
X0161900Y0160507D01*
X0161900Y0162106D02*
X0161900Y0162106D01*
X0161900Y0163704D02*
X0161900Y0163704D01*
X0161793Y0165303D02*
X0162007Y0165303D01*
X0162680Y0166901D02*
X0161120Y0166901D01*
X0166504Y0149318D02*
X0265296Y0149318D01*
X0264497Y0147719D02*
X0167889Y0147719D01*
X0168500Y0146120D02*
X0264300Y0146120D01*
X0264604Y0144522D02*
X0168500Y0144522D01*
X0167948Y0142923D02*
X0265555Y0142923D01*
X0267499Y0150916D02*
X0006700Y0150916D01*
X0006700Y0155712D02*
X0072357Y0155712D01*
X0071800Y0157310D02*
X0006700Y0157310D01*
X0006700Y0158909D02*
X0071800Y0158909D01*
X0071800Y0160507D02*
X0006700Y0160507D01*
X0006700Y0162106D02*
X0071800Y0162106D01*
X0071800Y0163704D02*
X0006700Y0163704D01*
X0006700Y0165303D02*
X0071907Y0165303D01*
X0072580Y0166901D02*
X0006700Y0166901D01*
X0006700Y0133332D02*
X0046921Y0133332D01*
X0045378Y0131734D02*
X0006700Y0131734D01*
X0006700Y0130135D02*
X0045109Y0130135D01*
X0045700Y0128537D02*
X0006700Y0128537D01*
X0006700Y0126938D02*
X0045700Y0126938D01*
X0045700Y0125340D02*
X0006700Y0125340D01*
X0006700Y0123741D02*
X0045700Y0123741D01*
X0045700Y0122143D02*
X0006700Y0122143D01*
X0006700Y0120544D02*
X0045700Y0120544D01*
X0045700Y0118946D02*
X0006700Y0118946D01*
X0006700Y0117347D02*
X0045700Y0117347D01*
X0045700Y0115749D02*
X0006700Y0115749D01*
X0006700Y0114150D02*
X0045700Y0114150D01*
X0045700Y0112552D02*
X0006700Y0112552D01*
X0006700Y0110953D02*
X0045700Y0110953D01*
X0045700Y0109355D02*
X0006700Y0109355D01*
X0006700Y0107756D02*
X0045496Y0107756D01*
X0044305Y0106158D02*
X0006700Y0106158D01*
X0006700Y0104559D02*
X0044109Y0104559D01*
X0044877Y0102961D02*
X0006700Y0102961D01*
X0006700Y0101362D02*
X0055700Y0101362D01*
X0055700Y0101333D02*
X0056096Y0100377D01*
X0056827Y0099646D01*
X0057783Y0099250D01*
X0062188Y0099250D01*
X0062293Y0099145D01*
X0063465Y0098659D01*
X0064735Y0098659D01*
X0065907Y0099145D01*
X0066805Y0100043D01*
X0067291Y0101215D01*
X0067291Y0102485D01*
X0066891Y0103450D01*
X0074928Y0103450D01*
X0076100Y0104622D01*
X0076100Y0118078D01*
X0074928Y0119250D01*
X0061472Y0119250D01*
X0060300Y0118078D01*
X0060300Y0113962D01*
X0060107Y0114155D01*
X0058935Y0114641D01*
X0057665Y0114641D01*
X0056493Y0114155D01*
X0055595Y0113257D01*
X0055109Y0112085D01*
X0055109Y0110815D01*
X0055595Y0109643D01*
X0055700Y0109538D01*
X0055700Y0101333D01*
X0055700Y0102961D02*
X0049723Y0102961D01*
X0050491Y0104559D02*
X0055700Y0104559D01*
X0055700Y0106158D02*
X0050662Y0106158D01*
X0050900Y0107756D02*
X0055700Y0107756D01*
X0055700Y0109355D02*
X0050900Y0109355D01*
X0050900Y0110953D02*
X0055109Y0110953D01*
X0055303Y0112552D02*
X0050900Y0112552D01*
X0050900Y0114150D02*
X0056488Y0114150D01*
X0060112Y0114150D02*
X0060300Y0114150D01*
X0060300Y0115749D02*
X0050900Y0115749D01*
X0050900Y0117347D02*
X0060300Y0117347D01*
X0061167Y0118946D02*
X0050900Y0118946D01*
X0050900Y0120544D02*
X0281900Y0120544D01*
X0281900Y0118946D02*
X0075233Y0118946D01*
X0076100Y0117347D02*
X0218609Y0117347D01*
X0218468Y0117289D02*
X0217061Y0115882D01*
X0216300Y0114045D01*
X0216300Y0112055D01*
X0217061Y0110218D01*
X0218468Y0108811D01*
X0220305Y0108050D01*
X0228295Y0108050D01*
X0230132Y0108811D01*
X0231539Y0110218D01*
X0232300Y0112055D01*
X0232300Y0114045D01*
X0231539Y0115882D01*
X0230132Y0117289D01*
X0228295Y0118050D01*
X0220305Y0118050D01*
X0218468Y0117289D01*
X0217006Y0115749D02*
X0076100Y0115749D01*
X0076100Y0114150D02*
X0216344Y0114150D01*
X0216300Y0112552D02*
X0076100Y0112552D01*
X0076100Y0110953D02*
X0216757Y0110953D01*
X0217924Y0109355D02*
X0076100Y0109355D01*
X0076100Y0107756D02*
X0219596Y0107756D01*
X0220305Y0108050D02*
X0218468Y0107289D01*
X0217061Y0105882D01*
X0216300Y0104045D01*
X0216300Y0102055D01*
X0217061Y0100218D01*
X0218468Y0098811D01*
X0220305Y0098050D01*
X0228295Y0098050D01*
X0230132Y0098811D01*
X0231539Y0100218D01*
X0232300Y0102055D01*
X0232300Y0104045D01*
X0231539Y0105882D01*
X0230132Y0107289D01*
X0228295Y0108050D01*
X0220305Y0108050D01*
X0217337Y0106158D02*
X0076100Y0106158D01*
X0076038Y0104559D02*
X0110197Y0104559D01*
X0110393Y0104755D02*
X0109495Y0103857D01*
X0109009Y0102685D01*
X0109009Y0101415D01*
X0109495Y0100243D01*
X0110393Y0099345D01*
X0111565Y0098859D01*
X0112835Y0098859D01*
X0114007Y0099345D01*
X0114112Y0099450D01*
X0152188Y0099450D01*
X0152293Y0099345D01*
X0153465Y0098859D01*
X0154735Y0098859D01*
X0155907Y0099345D01*
X0156805Y0100243D01*
X0157291Y0101415D01*
X0157291Y0102685D01*
X0156805Y0103857D01*
X0155907Y0104755D01*
X0154735Y0105241D01*
X0153465Y0105241D01*
X0152293Y0104755D01*
X0152188Y0104650D01*
X0114112Y0104650D01*
X0114007Y0104755D01*
X0112835Y0105241D01*
X0111565Y0105241D01*
X0110393Y0104755D01*
X0109124Y0102961D02*
X0067093Y0102961D01*
X0067291Y0101362D02*
X0109031Y0101362D01*
X0109974Y0099764D02*
X0066526Y0099764D01*
X0056709Y0099764D02*
X0006700Y0099764D01*
X0006700Y0098165D02*
X0220027Y0098165D01*
X0220305Y0098050D02*
X0218468Y0097289D01*
X0217061Y0095882D01*
X0216300Y0094045D01*
X0216300Y0092055D01*
X0217061Y0090218D01*
X0218468Y0088811D01*
X0220305Y0088050D01*
X0228295Y0088050D01*
X0230132Y0088811D01*
X0231539Y0090218D01*
X0232300Y0092055D01*
X0232300Y0094045D01*
X0231539Y0095882D01*
X0230132Y0097289D01*
X0228295Y0098050D01*
X0220305Y0098050D01*
X0217746Y0096567D02*
X0006700Y0096567D01*
X0006700Y0094968D02*
X0216683Y0094968D01*
X0216300Y0093370D02*
X0006700Y0093370D01*
X0006700Y0091771D02*
X0216418Y0091771D01*
X0217106Y0090173D02*
X0006700Y0090173D01*
X0006700Y0088574D02*
X0219040Y0088574D01*
X0220305Y0088050D02*
X0218468Y0087289D01*
X0217061Y0085882D01*
X0216300Y0084045D01*
X0216300Y0082055D01*
X0217061Y0080218D01*
X0218468Y0078811D01*
X0220305Y0078050D01*
X0228295Y0078050D01*
X0230132Y0078811D01*
X0231539Y0080218D01*
X0232300Y0082055D01*
X0232300Y0084045D01*
X0231539Y0085882D01*
X0230132Y0087289D01*
X0228295Y0088050D01*
X0220305Y0088050D01*
X0218155Y0086976D02*
X0006700Y0086976D01*
X0006700Y0085377D02*
X0216852Y0085377D01*
X0216300Y0083779D02*
X0006700Y0083779D01*
X0006700Y0082180D02*
X0216300Y0082180D01*
X0216911Y0080582D02*
X0006700Y0080582D01*
X0006700Y0078983D02*
X0218296Y0078983D01*
X0230304Y0078983D02*
X0281900Y0078983D01*
X0281900Y0077384D02*
X0006700Y0077384D01*
X0006700Y0075786D02*
X0281900Y0075786D01*
X0281900Y0074187D02*
X0103146Y0074187D01*
X0104799Y0072589D02*
X0281900Y0072589D01*
X0281900Y0070990D02*
X0276921Y0070990D01*
X0276295Y0071250D02*
X0278132Y0070489D01*
X0279539Y0069082D01*
X0280300Y0067245D01*
X0280300Y0065255D01*
X0279539Y0063418D01*
X0278132Y0062011D01*
X0276295Y0061250D01*
X0268305Y0061250D01*
X0266468Y0062011D01*
X0265061Y0063418D01*
X0264300Y0065255D01*
X0264300Y0067245D01*
X0265061Y0069082D01*
X0266468Y0070489D01*
X0268305Y0071250D01*
X0276295Y0071250D01*
X0279229Y0069392D02*
X0281900Y0069392D01*
X0281900Y0067793D02*
X0280073Y0067793D01*
X0280300Y0066195D02*
X0281900Y0066195D01*
X0281900Y0064596D02*
X0280027Y0064596D01*
X0279119Y0062998D02*
X0281900Y0062998D01*
X0281900Y0061399D02*
X0276655Y0061399D01*
X0276295Y0061250D02*
X0278132Y0060489D01*
X0279539Y0059082D01*
X0280300Y0057245D01*
X0280300Y0055255D01*
X0279539Y0053418D01*
X0278132Y0052011D01*
X0276295Y0051250D01*
X0268305Y0051250D01*
X0266468Y0052011D01*
X0265061Y0053418D01*
X0264300Y0055255D01*
X0264300Y0057245D01*
X0265061Y0059082D01*
X0266468Y0060489D01*
X0268305Y0061250D01*
X0276295Y0061250D01*
X0278820Y0059801D02*
X0281900Y0059801D01*
X0281900Y0058202D02*
X0279903Y0058202D01*
X0280300Y0056604D02*
X0281900Y0056604D01*
X0281900Y0055005D02*
X0280196Y0055005D01*
X0279528Y0053407D02*
X0281900Y0053407D01*
X0281900Y0051808D02*
X0277642Y0051808D01*
X0277143Y0050698D02*
X0276424Y0050932D01*
X0275678Y0051050D01*
X0272500Y0051050D01*
X0272500Y0046450D01*
X0272100Y0046450D01*
X0272100Y0051050D01*
X0268922Y0051050D01*
X0268176Y0050932D01*
X0267457Y0050698D01*
X0266784Y0050355D01*
X0266173Y0049911D01*
X0265639Y0049377D01*
X0265195Y0048766D01*
X0264852Y0048093D01*
X0264618Y0047374D01*
X0264500Y0046628D01*
X0264500Y0046450D01*
X0272100Y0046450D01*
X0272100Y0046050D01*
X0264500Y0046050D01*
X0264500Y0046010D01*
X0261700Y0048810D01*
X0261700Y0053307D01*
X0261274Y0054336D01*
X0260486Y0055124D01*
X0259457Y0055550D01*
X0219052Y0055550D01*
X0219039Y0055582D01*
X0217632Y0056989D01*
X0215795Y0057750D01*
X0207805Y0057750D01*
X0205968Y0056989D01*
X0204561Y0055582D01*
X0203800Y0053745D01*
X0203800Y0051755D01*
X0204561Y0049918D01*
X0205968Y0048511D01*
X0207805Y0047750D01*
X0215209Y0047750D01*
X0215209Y0046515D01*
X0215695Y0045343D01*
X0216593Y0044445D01*
X0217765Y0043959D01*
X0219035Y0043959D01*
X0220207Y0044445D01*
X0220412Y0044650D01*
X0232488Y0044650D01*
X0232693Y0044445D01*
X0233865Y0043959D01*
X0235135Y0043959D01*
X0236307Y0044445D01*
X0237205Y0045343D01*
X0237691Y0046515D01*
X0237691Y0047785D01*
X0237205Y0048957D01*
X0236307Y0049855D01*
X0236077Y0049950D01*
X0256100Y0049950D01*
X0256100Y0047093D01*
X0256526Y0046064D01*
X0264606Y0037984D01*
X0264300Y0037245D01*
X0264300Y0035255D01*
X0265061Y0033418D01*
X0266468Y0032011D01*
X0268305Y0031250D01*
X0276295Y0031250D01*
X0278132Y0032011D01*
X0279539Y0033418D01*
X0280300Y0035255D01*
X0280300Y0037245D01*
X0279539Y0039082D01*
X0278132Y0040489D01*
X0276295Y0041250D01*
X0269614Y0041250D01*
X0269296Y0041450D01*
X0272100Y0041450D01*
X0272100Y0046050D01*
X0272500Y0046050D01*
X0272500Y0046450D01*
X0280100Y0046450D01*
X0280100Y0046628D01*
X0279982Y0047374D01*
X0279748Y0048093D01*
X0279405Y0048766D01*
X0278961Y0049377D01*
X0278427Y0049911D01*
X0277816Y0050355D01*
X0277143Y0050698D01*
X0278016Y0050210D02*
X0281900Y0050210D01*
X0281900Y0048611D02*
X0279484Y0048611D01*
X0280039Y0047013D02*
X0281900Y0047013D01*
X0281900Y0045414D02*
X0280027Y0045414D01*
X0279982Y0045126D02*
X0280100Y0045872D01*
X0280100Y0046050D01*
X0272500Y0046050D01*
X0272500Y0041450D01*
X0275678Y0041450D01*
X0276424Y0041568D01*
X0277143Y0041802D01*
X0277816Y0042145D01*
X0278427Y0042589D01*
X0278961Y0043123D01*
X0279405Y0043734D01*
X0279748Y0044407D01*
X0279982Y0045126D01*
X0279447Y0043816D02*
X0281900Y0043816D01*
X0281900Y0042217D02*
X0277916Y0042217D01*
X0277819Y0040619D02*
X0281900Y0040619D01*
X0281900Y0039020D02*
X0279564Y0039020D01*
X0280227Y0037422D02*
X0281900Y0037422D01*
X0281900Y0035823D02*
X0280300Y0035823D01*
X0279873Y0034225D02*
X0281900Y0034225D01*
X0281900Y0032626D02*
X0278747Y0032626D01*
X0281900Y0031028D02*
X0263905Y0031028D01*
X0263343Y0032626D02*
X0265853Y0032626D01*
X0264727Y0034225D02*
X0262782Y0034225D01*
X0262243Y0035823D02*
X0264300Y0035823D01*
X0264373Y0037422D02*
X0261272Y0037422D01*
X0263570Y0039020D02*
X0207055Y0039020D01*
X0205457Y0040619D02*
X0261971Y0040619D01*
X0260373Y0042217D02*
X0152762Y0042217D01*
X0151554Y0043816D02*
X0258774Y0043816D01*
X0257176Y0045414D02*
X0237234Y0045414D01*
X0237691Y0047013D02*
X0256133Y0047013D01*
X0256100Y0048611D02*
X0237348Y0048611D01*
X0218017Y0056604D02*
X0264300Y0056604D01*
X0264404Y0055005D02*
X0260604Y0055005D01*
X0261659Y0053407D02*
X0265072Y0053407D01*
X0266958Y0051808D02*
X0261700Y0051808D01*
X0261700Y0050210D02*
X0266584Y0050210D01*
X0265116Y0048611D02*
X0261898Y0048611D01*
X0263497Y0047013D02*
X0264561Y0047013D01*
X0258900Y0047650D02*
X0266900Y0039650D01*
X0272300Y0036250D01*
X0272100Y0042217D02*
X0272500Y0042217D01*
X0272500Y0043816D02*
X0272100Y0043816D01*
X0272100Y0045414D02*
X0272500Y0045414D01*
X0272500Y0047013D02*
X0272100Y0047013D01*
X0272100Y0048611D02*
X0272500Y0048611D01*
X0272500Y0050210D02*
X0272100Y0050210D01*
X0264697Y0058202D02*
X0216887Y0058202D01*
X0217632Y0058511D02*
X0215795Y0057750D01*
X0207805Y0057750D01*
X0205968Y0058511D01*
X0204561Y0059918D01*
X0203800Y0061755D01*
X0203800Y0063745D01*
X0204561Y0065582D01*
X0205968Y0066989D01*
X0207805Y0067750D01*
X0215795Y0067750D01*
X0217632Y0066989D01*
X0219039Y0065582D01*
X0219800Y0063745D01*
X0219800Y0061755D01*
X0219039Y0059918D01*
X0217632Y0058511D01*
X0218922Y0059801D02*
X0265780Y0059801D01*
X0267945Y0061399D02*
X0219653Y0061399D01*
X0219800Y0062998D02*
X0265481Y0062998D01*
X0264573Y0064596D02*
X0219447Y0064596D01*
X0218426Y0066195D02*
X0264300Y0066195D01*
X0264527Y0067793D02*
X0144700Y0067793D01*
X0144434Y0069392D02*
X0265371Y0069392D01*
X0267679Y0070990D02*
X0109272Y0070990D01*
X0105328Y0070990D02*
X0105091Y0070990D01*
X0100654Y0074187D02*
X0027434Y0074187D01*
X0027466Y0066195D02*
X0099300Y0066195D01*
X0099300Y0067793D02*
X0043556Y0067793D01*
X0044481Y0069392D02*
X0099246Y0069392D01*
X0098709Y0070990D02*
X0044364Y0070990D01*
X0043273Y0072589D02*
X0099001Y0072589D01*
X0099009Y0064596D02*
X0026742Y0064596D01*
X0028340Y0062998D02*
X0031355Y0062998D01*
X0033550Y0062998D02*
X0034250Y0062998D01*
X0034250Y0061399D02*
X0033550Y0061399D01*
X0033550Y0059801D02*
X0034250Y0059801D01*
X0034250Y0056604D02*
X0033550Y0056604D01*
X0033550Y0055005D02*
X0034250Y0055005D01*
X0034250Y0053407D02*
X0033550Y0053407D01*
X0029800Y0059801D02*
X0029175Y0059801D01*
X0029175Y0061399D02*
X0029800Y0061399D01*
X0036445Y0062998D02*
X0036569Y0062998D01*
X0043231Y0062998D02*
X0099389Y0062998D01*
X0101469Y0061399D02*
X0044200Y0061399D01*
X0043535Y0053407D02*
X0049213Y0053407D01*
X0063440Y0053407D02*
X0100146Y0053407D01*
X0100476Y0059801D02*
X0114700Y0059801D01*
X0114700Y0061399D02*
X0102931Y0061399D01*
X0097558Y0042217D02*
X0127800Y0042217D01*
X0127800Y0040619D02*
X0098735Y0040619D01*
X0099114Y0039020D02*
X0127800Y0039020D01*
X0127800Y0037422D02*
X0099493Y0037422D01*
X0101800Y0035823D02*
X0127800Y0035823D01*
X0127167Y0034225D02*
X0101800Y0034225D01*
X0101800Y0032626D02*
X0127188Y0032626D01*
X0128210Y0031028D02*
X0101800Y0031028D01*
X0137201Y0051808D02*
X0063405Y0051808D01*
X0014575Y0024634D02*
X0014175Y0024634D01*
X0010573Y0013444D02*
X0006700Y0013444D01*
X0006700Y0011846D02*
X0009375Y0011846D01*
X0009375Y0010247D02*
X0006700Y0010247D01*
X0006700Y0008649D02*
X0009375Y0008649D01*
X0010429Y0007050D02*
X0006700Y0007050D01*
X0017821Y0006550D02*
X0019375Y0008104D01*
X0019375Y0012246D01*
X0019375Y0008104D01*
X0020929Y0006550D01*
X0017821Y0006550D01*
X0018321Y0007050D02*
X0020429Y0007050D01*
X0019375Y0008649D02*
X0019375Y0008649D01*
X0019375Y0010247D02*
X0019375Y0010247D01*
X0019375Y0011846D02*
X0019375Y0011846D01*
X0018177Y0013444D02*
X0020573Y0013444D01*
X0142917Y0055005D02*
X0204322Y0055005D01*
X0203800Y0053407D02*
X0144330Y0053407D01*
X0145516Y0051808D02*
X0203800Y0051808D01*
X0204440Y0050210D02*
X0146723Y0050210D01*
X0147931Y0048611D02*
X0205868Y0048611D01*
X0211800Y0052750D02*
X0258900Y0052750D01*
X0258900Y0047650D01*
X0257121Y0031028D02*
X0193990Y0031028D01*
X0195012Y0032626D02*
X0204398Y0032626D01*
X0202800Y0034225D02*
X0195033Y0034225D01*
X0203745Y0027831D02*
X0175931Y0027831D01*
X0199733Y0026232D02*
X0202700Y0026232D01*
X0206984Y0021437D02*
X0210616Y0021437D01*
X0209336Y0019838D02*
X0208264Y0019838D01*
X0208800Y0018545D02*
X0208800Y0010555D01*
X0208091Y0008844D01*
X0209510Y0008842D01*
X0208800Y0010555D01*
X0208800Y0018545D01*
X0208800Y0018240D02*
X0208800Y0018240D01*
X0208800Y0016641D02*
X0208800Y0016641D01*
X0208800Y0015043D02*
X0208800Y0015043D01*
X0208800Y0013444D02*
X0208800Y0013444D01*
X0208800Y0011846D02*
X0208800Y0011846D01*
X0208672Y0010247D02*
X0208928Y0010247D01*
X0218086Y0008832D02*
X0218800Y0010555D01*
X0218800Y0018545D01*
X0218800Y0010555D01*
X0219515Y0008830D01*
X0218086Y0008832D01*
X0218672Y0010247D02*
X0218928Y0010247D01*
X0218800Y0011846D02*
X0218800Y0011846D01*
X0218800Y0013444D02*
X0218800Y0013444D01*
X0218800Y0015043D02*
X0218800Y0015043D01*
X0218800Y0016641D02*
X0218800Y0016641D01*
X0218800Y0018240D02*
X0218800Y0018240D01*
X0218264Y0019838D02*
X0219336Y0019838D01*
X0220616Y0021437D02*
X0216984Y0021437D01*
X0226984Y0021437D02*
X0230616Y0021437D01*
X0229336Y0019838D02*
X0228264Y0019838D01*
X0228800Y0018545D02*
X0228800Y0010555D01*
X0228081Y0008820D01*
X0229520Y0008818D01*
X0228800Y0010555D01*
X0228800Y0018545D01*
X0228800Y0018240D02*
X0228800Y0018240D01*
X0228800Y0016641D02*
X0228800Y0016641D01*
X0228800Y0015043D02*
X0228800Y0015043D01*
X0228800Y0013444D02*
X0228800Y0013444D01*
X0228800Y0011846D02*
X0228800Y0011846D01*
X0228672Y0010247D02*
X0228928Y0010247D01*
X0238672Y0010247D02*
X0241116Y0010247D01*
X0241927Y0011846D02*
X0238800Y0011846D01*
X0215666Y0045414D02*
X0150347Y0045414D01*
X0149139Y0047013D02*
X0215209Y0047013D01*
X0205583Y0056604D02*
X0143425Y0056604D01*
X0145095Y0058202D02*
X0206713Y0058202D01*
X0204678Y0059801D02*
X0145391Y0059801D01*
X0144863Y0061399D02*
X0203947Y0061399D01*
X0203800Y0062998D02*
X0145011Y0062998D01*
X0145391Y0064596D02*
X0204153Y0064596D01*
X0205174Y0066195D02*
X0144972Y0066195D01*
X0156326Y0099764D02*
X0217515Y0099764D01*
X0216587Y0101362D02*
X0157269Y0101362D01*
X0157176Y0102961D02*
X0216300Y0102961D01*
X0216513Y0104559D02*
X0156103Y0104559D01*
X0228573Y0098165D02*
X0281900Y0098165D01*
X0281900Y0096567D02*
X0230854Y0096567D01*
X0231917Y0094968D02*
X0281900Y0094968D01*
X0281900Y0093370D02*
X0232300Y0093370D01*
X0232182Y0091771D02*
X0281900Y0091771D01*
X0281900Y0090173D02*
X0231494Y0090173D01*
X0229560Y0088574D02*
X0281900Y0088574D01*
X0281900Y0086976D02*
X0230445Y0086976D01*
X0231748Y0085377D02*
X0281900Y0085377D01*
X0281900Y0083779D02*
X0232300Y0083779D01*
X0232300Y0082180D02*
X0281900Y0082180D01*
X0281900Y0080582D02*
X0231689Y0080582D01*
X0231085Y0099764D02*
X0281900Y0099764D01*
X0281900Y0101362D02*
X0232013Y0101362D01*
X0232300Y0102961D02*
X0281900Y0102961D01*
X0281900Y0104559D02*
X0232087Y0104559D01*
X0231263Y0106158D02*
X0281900Y0106158D01*
X0281900Y0107756D02*
X0229004Y0107756D01*
X0230676Y0109355D02*
X0281900Y0109355D01*
X0281900Y0110953D02*
X0231843Y0110953D01*
X0232300Y0112552D02*
X0281900Y0112552D01*
X0281900Y0114150D02*
X0232256Y0114150D01*
X0231594Y0115749D02*
X0281900Y0115749D01*
X0281900Y0117347D02*
X0229991Y0117347D01*
X0277463Y0131734D02*
X0281900Y0131734D01*
X0281900Y0130135D02*
X0051491Y0130135D01*
X0050900Y0128537D02*
X0281900Y0128537D01*
X0281900Y0126938D02*
X0050900Y0126938D01*
X0050900Y0125340D02*
X0281900Y0125340D01*
X0281900Y0123741D02*
X0050900Y0123741D01*
X0050900Y0122143D02*
X0281900Y0122143D01*
X0251900Y0162106D02*
X0251900Y0162106D01*
X0251900Y0163704D02*
X0251900Y0163704D01*
X0251793Y0165303D02*
X0252007Y0165303D01*
X0252680Y0166901D02*
X0251120Y0166901D01*
D15*
X0160900Y0126450D03*
X0162900Y0106650D03*
X0154100Y0102050D03*
X0117500Y0092450D03*
X0117500Y0082250D03*
X0126300Y0076650D03*
X0117500Y0071850D03*
X0107300Y0068450D03*
X0101900Y0071250D03*
X0102200Y0064550D03*
X0088700Y0076450D03*
X0099700Y0087050D03*
X0088500Y0087450D03*
X0112200Y0102050D03*
X0072500Y0120750D03*
X0067300Y0121250D03*
X0056900Y0126250D03*
X0048300Y0130450D03*
X0030150Y0123300D03*
X0058300Y0111450D03*
X0047300Y0105050D03*
X0064100Y0101850D03*
X0054300Y0094450D03*
X0041300Y0070050D03*
X0060300Y0052650D03*
X0051700Y0048650D03*
X0062200Y0037050D03*
X0069700Y0037050D03*
X0075950Y0039550D03*
X0094700Y0039550D03*
X0112750Y0029450D03*
X0126850Y0029450D03*
X0130300Y0033450D03*
X0132350Y0029450D03*
X0133600Y0024300D03*
X0154350Y0029450D03*
X0167150Y0029450D03*
X0173450Y0025800D03*
X0173700Y0033450D03*
X0191900Y0033450D03*
X0194700Y0029550D03*
X0205150Y0029550D03*
X0208700Y0025750D03*
X0212450Y0029550D03*
X0234650Y0029750D03*
X0258500Y0021050D03*
X0234500Y0047150D03*
X0218400Y0047150D03*
X0215500Y0079750D03*
X0240500Y0102850D03*
X0156400Y0046150D03*
X0142200Y0059550D03*
X0142200Y0064550D03*
X0123000Y0052150D03*
X0130500Y0045850D03*
X0092000Y0025350D03*
X0066100Y0019450D03*
X0058100Y0019850D03*
X0055500Y0029650D03*
X0038450Y0028300D03*
X0127500Y0142650D03*
X0038700Y0157250D03*
X0014300Y0143250D03*
D16*
X0099700Y0087050D02*
X0102200Y0089550D01*
X0107300Y0068450D02*
X0142200Y0068250D01*
X0142200Y0064550D01*
X0142200Y0059550D02*
X0117200Y0059550D01*
X0117200Y0064550D01*
X0102200Y0064550D01*
X0130300Y0045250D02*
X0130300Y0033450D01*
X0130300Y0045250D02*
X0130283Y0045288D01*
X0130270Y0045327D01*
X0130261Y0045367D01*
X0130255Y0045408D01*
X0130253Y0045449D01*
X0130255Y0045491D01*
X0130260Y0045531D01*
X0130270Y0045572D01*
X0130283Y0045611D01*
X0130300Y0045649D01*
X0130320Y0045685D01*
X0130343Y0045719D01*
X0130369Y0045751D01*
X0130398Y0045780D01*
X0130430Y0045806D01*
X0130464Y0045830D01*
X0130500Y0045850D01*
X0156300Y0046150D02*
X0156400Y0046150D01*
X0173700Y0033450D02*
X0191900Y0033450D01*
X0198450Y0023350D02*
X0198450Y0023300D01*
X0198450Y0023350D02*
X0205200Y0023350D01*
X0205200Y0025750D01*
X0208700Y0025750D01*
X0218400Y0047150D02*
X0234500Y0047150D01*
X0085500Y0031950D02*
X0083700Y0033300D01*
X0082200Y0033300D01*
X0082200Y0039550D01*
X0075950Y0039550D01*
X0066100Y0029650D02*
X0055500Y0029650D01*
X0066100Y0029650D02*
X0066100Y0019450D01*
X0058900Y0020650D02*
X0058700Y0020650D01*
X0058100Y0019850D01*
X0051700Y0048650D02*
X0051700Y0052850D01*
X0060300Y0052650D01*
X0041300Y0070050D02*
X0039425Y0070175D01*
X0024375Y0070175D01*
D17*
X0053300Y0094450D02*
X0054300Y0094450D01*
X0058300Y0101850D02*
X0064100Y0101850D01*
X0058300Y0101850D02*
X0058300Y0111450D01*
X0048300Y0107250D02*
X0047300Y0105050D01*
X0048300Y0107250D02*
X0048300Y0130450D01*
X0056700Y0130050D02*
X0056900Y0126250D01*
X0066700Y0120850D02*
X0068100Y0120650D01*
X0067300Y0121250D02*
X0066700Y0120850D01*
X0072500Y0120750D02*
X0075300Y0118450D01*
X0112200Y0102050D02*
X0154100Y0102050D01*
X0162500Y0106250D02*
X0162900Y0106250D01*
X0162900Y0106650D01*
X0160900Y0126450D02*
X0159900Y0126650D01*
X0129300Y0142650D02*
X0127500Y0142650D01*
X0038700Y0157250D02*
X0037500Y0157250D01*
X0014300Y0143250D02*
X0013500Y0143250D01*
X0012900Y0143850D01*
X0030150Y0123300D02*
X0030150Y0120800D01*
X0086700Y0088050D02*
X0088500Y0087450D01*
X0088700Y0076450D02*
X0089500Y0076450D01*
X0089700Y0076250D01*
X0101900Y0071250D02*
X0101900Y0064550D01*
X0102200Y0064550D01*
X0123000Y0052150D02*
X0123000Y0052050D01*
X0092000Y0031450D02*
X0091500Y0031950D01*
X0092000Y0031450D02*
X0092000Y0025350D01*
X0091200Y0025500D02*
X0092750Y0023200D01*
X0133100Y0023200D02*
X0134350Y0023200D01*
X0133100Y0023200D02*
X0133600Y0024300D01*
X0173450Y0023300D02*
X0173450Y0025800D01*
X0215500Y0079750D02*
X0215800Y0079750D01*
X0240500Y0102850D02*
X0240700Y0102850D01*
X0241500Y0102050D01*
D18*
X0272300Y0136250D02*
X0285100Y0136250D01*
X0285300Y0153650D01*
X0285300Y0156250D01*
X0272300Y0156250D01*
X0285100Y0136250D02*
X0285100Y0027450D01*
X0261700Y0027650D01*
X0259100Y0035050D01*
X0206500Y0035050D01*
X0203500Y0038050D01*
X0151900Y0038050D01*
X0141700Y0051550D01*
X0137900Y0055850D01*
X0109700Y0055850D01*
X0082300Y0058050D01*
X0040100Y0057850D01*
X0039900Y0058050D01*
X0091500Y0031950D02*
X0091500Y0023200D01*
X0092750Y0023200D01*
X0134350Y0023200D01*
X0173450Y0023300D01*
X0198450Y0023300D01*
X0244700Y0009550D02*
X0244700Y0005800D01*
X0258500Y0021050D02*
X0263300Y0020450D01*
X0261100Y0020850D01*
X0097500Y0031950D02*
X0095700Y0039550D01*
X0094700Y0039550D01*
X0081700Y0025950D02*
X0078475Y0024350D01*
X0076800Y0019750D02*
X0076800Y0006000D01*
D19*
X0076675Y0019750D02*
X0076800Y0019750D01*
X0076675Y0019750D02*
X0078475Y0024350D01*
X0081075Y0026829D01*
X0085500Y0026729D01*
X0085500Y0031950D01*
D20*
X0076800Y0019750D03*
D21*
X0244700Y0009550D03*
D22*
X0244700Y0005800D02*
X0076800Y0006000D01*
M02*
