G75*
%MOIN*%
%OFA0B0*%
%FSLAX25Y25*%
%IPPOS*%
%LPD*%
%AMOC8*
5,1,8,0,0,1.08239X$1,22.5*
%
%ADD10R,0.04331X0.03937*%
%ADD11R,0.03937X0.04331*%
%ADD12R,0.05906X0.07677*%
%ADD13R,0.08465X0.06299*%
%ADD14C,0.00011*%
%ADD15R,0.03800X0.13200*%
%ADD16R,0.03150X0.03150*%
%ADD17R,0.01200X0.02600*%
%ADD18R,0.12200X0.03900*%
%ADD19R,0.01969X0.02362*%
%ADD20R,0.02362X0.01969*%
%ADD21R,0.07677X0.05906*%
%ADD22R,0.01181X0.03150*%
%ADD23R,0.03150X0.01181*%
%ADD24R,0.01378X0.03150*%
%ADD25R,0.03346X0.01378*%
%ADD26R,0.10236X0.11024*%
%ADD27R,0.05512X0.01181*%
%ADD28R,0.01181X0.05512*%
%ADD29R,0.02756X0.03543*%
%ADD30R,0.05000X0.02500*%
%ADD31R,0.10000X0.05000*%
%ADD32R,0.02400X0.08700*%
%ADD33R,0.02800X0.01600*%
%ADD34R,0.05900X0.09400*%
D10*
X0062200Y0009279D03*
X0069900Y0009204D03*
X0069900Y0015896D03*
X0062200Y0015971D03*
X0084954Y0031850D03*
X0091646Y0031850D03*
X0064921Y0041425D03*
X0058229Y0041425D03*
X0076954Y0076650D03*
X0083646Y0076650D03*
X0083446Y0084250D03*
X0076754Y0084250D03*
X0076754Y0091050D03*
X0083446Y0091050D03*
X0066446Y0097750D03*
X0059754Y0097750D03*
X0025300Y0095596D03*
X0025300Y0088904D03*
X0014100Y0088904D03*
X0014100Y0095596D03*
X0061854Y0125750D03*
X0068546Y0125750D03*
X0026246Y0141450D03*
X0019554Y0141450D03*
X0131600Y0141096D03*
X0137800Y0141196D03*
X0137800Y0134504D03*
X0131600Y0134404D03*
X0204654Y0086650D03*
X0211346Y0086650D03*
X0211346Y0079750D03*
X0204654Y0079750D03*
X0167996Y0046000D03*
X0161304Y0046000D03*
D11*
X0160300Y0030796D03*
X0160300Y0024104D03*
X0199900Y0024104D03*
X0199900Y0030796D03*
X0253000Y0023496D03*
X0253000Y0016804D03*
X0123100Y0056704D03*
X0123100Y0063396D03*
X0108246Y0052250D03*
X0101554Y0052250D03*
X0074075Y0033521D03*
X0067775Y0033521D03*
X0067775Y0026829D03*
X0074075Y0026829D03*
X0060875Y0026829D03*
X0060875Y0033521D03*
X0039075Y0031829D03*
X0039075Y0038521D03*
X0040729Y0047675D03*
X0047421Y0047675D03*
X0048500Y0086404D03*
X0048500Y0093096D03*
X0052300Y0120504D03*
X0052300Y0127196D03*
X0076600Y0128496D03*
X0076600Y0121804D03*
X0166000Y0120904D03*
X0166000Y0127596D03*
X0250954Y0122450D03*
X0257646Y0122450D03*
X0119700Y0030796D03*
X0119700Y0024104D03*
D12*
X0115700Y0053037D03*
X0115700Y0063863D03*
D13*
X0049075Y0035175D03*
D14*
X0049621Y0031036D02*
X0049621Y0027798D01*
X0048529Y0027798D01*
X0048529Y0031036D01*
X0049621Y0031036D01*
X0049621Y0027808D02*
X0048529Y0027808D01*
X0048529Y0027818D02*
X0049621Y0027818D01*
X0049621Y0027828D02*
X0048529Y0027828D01*
X0048529Y0027838D02*
X0049621Y0027838D01*
X0049621Y0027848D02*
X0048529Y0027848D01*
X0048529Y0027858D02*
X0049621Y0027858D01*
X0049621Y0027868D02*
X0048529Y0027868D01*
X0048529Y0027878D02*
X0049621Y0027878D01*
X0049621Y0027888D02*
X0048529Y0027888D01*
X0048529Y0027898D02*
X0049621Y0027898D01*
X0049621Y0027908D02*
X0048529Y0027908D01*
X0048529Y0027918D02*
X0049621Y0027918D01*
X0049621Y0027928D02*
X0048529Y0027928D01*
X0048529Y0027938D02*
X0049621Y0027938D01*
X0049621Y0027948D02*
X0048529Y0027948D01*
X0048529Y0027958D02*
X0049621Y0027958D01*
X0049621Y0027968D02*
X0048529Y0027968D01*
X0048529Y0027978D02*
X0049621Y0027978D01*
X0049621Y0027988D02*
X0048529Y0027988D01*
X0048529Y0027998D02*
X0049621Y0027998D01*
X0049621Y0028008D02*
X0048529Y0028008D01*
X0048529Y0028018D02*
X0049621Y0028018D01*
X0049621Y0028028D02*
X0048529Y0028028D01*
X0048529Y0028038D02*
X0049621Y0028038D01*
X0049621Y0028048D02*
X0048529Y0028048D01*
X0048529Y0028058D02*
X0049621Y0028058D01*
X0049621Y0028068D02*
X0048529Y0028068D01*
X0048529Y0028078D02*
X0049621Y0028078D01*
X0049621Y0028088D02*
X0048529Y0028088D01*
X0048529Y0028098D02*
X0049621Y0028098D01*
X0049621Y0028108D02*
X0048529Y0028108D01*
X0048529Y0028118D02*
X0049621Y0028118D01*
X0049621Y0028128D02*
X0048529Y0028128D01*
X0048529Y0028138D02*
X0049621Y0028138D01*
X0049621Y0028148D02*
X0048529Y0028148D01*
X0048529Y0028158D02*
X0049621Y0028158D01*
X0049621Y0028168D02*
X0048529Y0028168D01*
X0048529Y0028178D02*
X0049621Y0028178D01*
X0049621Y0028188D02*
X0048529Y0028188D01*
X0048529Y0028198D02*
X0049621Y0028198D01*
X0049621Y0028208D02*
X0048529Y0028208D01*
X0048529Y0028218D02*
X0049621Y0028218D01*
X0049621Y0028228D02*
X0048529Y0028228D01*
X0048529Y0028238D02*
X0049621Y0028238D01*
X0049621Y0028248D02*
X0048529Y0028248D01*
X0048529Y0028258D02*
X0049621Y0028258D01*
X0049621Y0028268D02*
X0048529Y0028268D01*
X0048529Y0028278D02*
X0049621Y0028278D01*
X0049621Y0028288D02*
X0048529Y0028288D01*
X0048529Y0028298D02*
X0049621Y0028298D01*
X0049621Y0028308D02*
X0048529Y0028308D01*
X0048529Y0028318D02*
X0049621Y0028318D01*
X0049621Y0028328D02*
X0048529Y0028328D01*
X0048529Y0028338D02*
X0049621Y0028338D01*
X0049621Y0028348D02*
X0048529Y0028348D01*
X0048529Y0028358D02*
X0049621Y0028358D01*
X0049621Y0028368D02*
X0048529Y0028368D01*
X0048529Y0028378D02*
X0049621Y0028378D01*
X0049621Y0028388D02*
X0048529Y0028388D01*
X0048529Y0028398D02*
X0049621Y0028398D01*
X0049621Y0028408D02*
X0048529Y0028408D01*
X0048529Y0028418D02*
X0049621Y0028418D01*
X0049621Y0028428D02*
X0048529Y0028428D01*
X0048529Y0028438D02*
X0049621Y0028438D01*
X0049621Y0028448D02*
X0048529Y0028448D01*
X0048529Y0028458D02*
X0049621Y0028458D01*
X0049621Y0028468D02*
X0048529Y0028468D01*
X0048529Y0028478D02*
X0049621Y0028478D01*
X0049621Y0028488D02*
X0048529Y0028488D01*
X0048529Y0028498D02*
X0049621Y0028498D01*
X0049621Y0028508D02*
X0048529Y0028508D01*
X0048529Y0028518D02*
X0049621Y0028518D01*
X0049621Y0028528D02*
X0048529Y0028528D01*
X0048529Y0028538D02*
X0049621Y0028538D01*
X0049621Y0028548D02*
X0048529Y0028548D01*
X0048529Y0028558D02*
X0049621Y0028558D01*
X0049621Y0028568D02*
X0048529Y0028568D01*
X0048529Y0028578D02*
X0049621Y0028578D01*
X0049621Y0028588D02*
X0048529Y0028588D01*
X0048529Y0028598D02*
X0049621Y0028598D01*
X0049621Y0028608D02*
X0048529Y0028608D01*
X0048529Y0028618D02*
X0049621Y0028618D01*
X0049621Y0028628D02*
X0048529Y0028628D01*
X0048529Y0028638D02*
X0049621Y0028638D01*
X0049621Y0028648D02*
X0048529Y0028648D01*
X0048529Y0028658D02*
X0049621Y0028658D01*
X0049621Y0028668D02*
X0048529Y0028668D01*
X0048529Y0028678D02*
X0049621Y0028678D01*
X0049621Y0028688D02*
X0048529Y0028688D01*
X0048529Y0028698D02*
X0049621Y0028698D01*
X0049621Y0028708D02*
X0048529Y0028708D01*
X0048529Y0028718D02*
X0049621Y0028718D01*
X0049621Y0028728D02*
X0048529Y0028728D01*
X0048529Y0028738D02*
X0049621Y0028738D01*
X0049621Y0028748D02*
X0048529Y0028748D01*
X0048529Y0028758D02*
X0049621Y0028758D01*
X0049621Y0028768D02*
X0048529Y0028768D01*
X0048529Y0028778D02*
X0049621Y0028778D01*
X0049621Y0028788D02*
X0048529Y0028788D01*
X0048529Y0028798D02*
X0049621Y0028798D01*
X0049621Y0028808D02*
X0048529Y0028808D01*
X0048529Y0028818D02*
X0049621Y0028818D01*
X0049621Y0028828D02*
X0048529Y0028828D01*
X0048529Y0028838D02*
X0049621Y0028838D01*
X0049621Y0028848D02*
X0048529Y0028848D01*
X0048529Y0028858D02*
X0049621Y0028858D01*
X0049621Y0028868D02*
X0048529Y0028868D01*
X0048529Y0028878D02*
X0049621Y0028878D01*
X0049621Y0028888D02*
X0048529Y0028888D01*
X0048529Y0028898D02*
X0049621Y0028898D01*
X0049621Y0028908D02*
X0048529Y0028908D01*
X0048529Y0028918D02*
X0049621Y0028918D01*
X0049621Y0028928D02*
X0048529Y0028928D01*
X0048529Y0028938D02*
X0049621Y0028938D01*
X0049621Y0028948D02*
X0048529Y0028948D01*
X0048529Y0028958D02*
X0049621Y0028958D01*
X0049621Y0028968D02*
X0048529Y0028968D01*
X0048529Y0028978D02*
X0049621Y0028978D01*
X0049621Y0028988D02*
X0048529Y0028988D01*
X0048529Y0028998D02*
X0049621Y0028998D01*
X0049621Y0029008D02*
X0048529Y0029008D01*
X0048529Y0029018D02*
X0049621Y0029018D01*
X0049621Y0029028D02*
X0048529Y0029028D01*
X0048529Y0029038D02*
X0049621Y0029038D01*
X0049621Y0029048D02*
X0048529Y0029048D01*
X0048529Y0029058D02*
X0049621Y0029058D01*
X0049621Y0029068D02*
X0048529Y0029068D01*
X0048529Y0029078D02*
X0049621Y0029078D01*
X0049621Y0029088D02*
X0048529Y0029088D01*
X0048529Y0029098D02*
X0049621Y0029098D01*
X0049621Y0029108D02*
X0048529Y0029108D01*
X0048529Y0029118D02*
X0049621Y0029118D01*
X0049621Y0029128D02*
X0048529Y0029128D01*
X0048529Y0029138D02*
X0049621Y0029138D01*
X0049621Y0029148D02*
X0048529Y0029148D01*
X0048529Y0029158D02*
X0049621Y0029158D01*
X0049621Y0029168D02*
X0048529Y0029168D01*
X0048529Y0029178D02*
X0049621Y0029178D01*
X0049621Y0029188D02*
X0048529Y0029188D01*
X0048529Y0029198D02*
X0049621Y0029198D01*
X0049621Y0029208D02*
X0048529Y0029208D01*
X0048529Y0029218D02*
X0049621Y0029218D01*
X0049621Y0029228D02*
X0048529Y0029228D01*
X0048529Y0029238D02*
X0049621Y0029238D01*
X0049621Y0029248D02*
X0048529Y0029248D01*
X0048529Y0029258D02*
X0049621Y0029258D01*
X0049621Y0029268D02*
X0048529Y0029268D01*
X0048529Y0029278D02*
X0049621Y0029278D01*
X0049621Y0029288D02*
X0048529Y0029288D01*
X0048529Y0029298D02*
X0049621Y0029298D01*
X0049621Y0029308D02*
X0048529Y0029308D01*
X0048529Y0029318D02*
X0049621Y0029318D01*
X0049621Y0029328D02*
X0048529Y0029328D01*
X0048529Y0029338D02*
X0049621Y0029338D01*
X0049621Y0029348D02*
X0048529Y0029348D01*
X0048529Y0029358D02*
X0049621Y0029358D01*
X0049621Y0029368D02*
X0048529Y0029368D01*
X0048529Y0029378D02*
X0049621Y0029378D01*
X0049621Y0029388D02*
X0048529Y0029388D01*
X0048529Y0029398D02*
X0049621Y0029398D01*
X0049621Y0029408D02*
X0048529Y0029408D01*
X0048529Y0029418D02*
X0049621Y0029418D01*
X0049621Y0029428D02*
X0048529Y0029428D01*
X0048529Y0029438D02*
X0049621Y0029438D01*
X0049621Y0029448D02*
X0048529Y0029448D01*
X0048529Y0029458D02*
X0049621Y0029458D01*
X0049621Y0029468D02*
X0048529Y0029468D01*
X0048529Y0029478D02*
X0049621Y0029478D01*
X0049621Y0029488D02*
X0048529Y0029488D01*
X0048529Y0029498D02*
X0049621Y0029498D01*
X0049621Y0029508D02*
X0048529Y0029508D01*
X0048529Y0029518D02*
X0049621Y0029518D01*
X0049621Y0029528D02*
X0048529Y0029528D01*
X0048529Y0029538D02*
X0049621Y0029538D01*
X0049621Y0029548D02*
X0048529Y0029548D01*
X0048529Y0029558D02*
X0049621Y0029558D01*
X0049621Y0029568D02*
X0048529Y0029568D01*
X0048529Y0029578D02*
X0049621Y0029578D01*
X0049621Y0029588D02*
X0048529Y0029588D01*
X0048529Y0029598D02*
X0049621Y0029598D01*
X0049621Y0029608D02*
X0048529Y0029608D01*
X0048529Y0029618D02*
X0049621Y0029618D01*
X0049621Y0029628D02*
X0048529Y0029628D01*
X0048529Y0029638D02*
X0049621Y0029638D01*
X0049621Y0029648D02*
X0048529Y0029648D01*
X0048529Y0029658D02*
X0049621Y0029658D01*
X0049621Y0029668D02*
X0048529Y0029668D01*
X0048529Y0029678D02*
X0049621Y0029678D01*
X0049621Y0029688D02*
X0048529Y0029688D01*
X0048529Y0029698D02*
X0049621Y0029698D01*
X0049621Y0029708D02*
X0048529Y0029708D01*
X0048529Y0029718D02*
X0049621Y0029718D01*
X0049621Y0029728D02*
X0048529Y0029728D01*
X0048529Y0029738D02*
X0049621Y0029738D01*
X0049621Y0029748D02*
X0048529Y0029748D01*
X0048529Y0029758D02*
X0049621Y0029758D01*
X0049621Y0029768D02*
X0048529Y0029768D01*
X0048529Y0029778D02*
X0049621Y0029778D01*
X0049621Y0029788D02*
X0048529Y0029788D01*
X0048529Y0029798D02*
X0049621Y0029798D01*
X0049621Y0029808D02*
X0048529Y0029808D01*
X0048529Y0029818D02*
X0049621Y0029818D01*
X0049621Y0029828D02*
X0048529Y0029828D01*
X0048529Y0029838D02*
X0049621Y0029838D01*
X0049621Y0029848D02*
X0048529Y0029848D01*
X0048529Y0029858D02*
X0049621Y0029858D01*
X0049621Y0029868D02*
X0048529Y0029868D01*
X0048529Y0029878D02*
X0049621Y0029878D01*
X0049621Y0029888D02*
X0048529Y0029888D01*
X0048529Y0029898D02*
X0049621Y0029898D01*
X0049621Y0029908D02*
X0048529Y0029908D01*
X0048529Y0029918D02*
X0049621Y0029918D01*
X0049621Y0029928D02*
X0048529Y0029928D01*
X0048529Y0029938D02*
X0049621Y0029938D01*
X0049621Y0029948D02*
X0048529Y0029948D01*
X0048529Y0029958D02*
X0049621Y0029958D01*
X0049621Y0029968D02*
X0048529Y0029968D01*
X0048529Y0029978D02*
X0049621Y0029978D01*
X0049621Y0029988D02*
X0048529Y0029988D01*
X0048529Y0029998D02*
X0049621Y0029998D01*
X0049621Y0030008D02*
X0048529Y0030008D01*
X0048529Y0030018D02*
X0049621Y0030018D01*
X0049621Y0030028D02*
X0048529Y0030028D01*
X0048529Y0030038D02*
X0049621Y0030038D01*
X0049621Y0030048D02*
X0048529Y0030048D01*
X0048529Y0030058D02*
X0049621Y0030058D01*
X0049621Y0030068D02*
X0048529Y0030068D01*
X0048529Y0030078D02*
X0049621Y0030078D01*
X0049621Y0030088D02*
X0048529Y0030088D01*
X0048529Y0030098D02*
X0049621Y0030098D01*
X0049621Y0030108D02*
X0048529Y0030108D01*
X0048529Y0030118D02*
X0049621Y0030118D01*
X0049621Y0030128D02*
X0048529Y0030128D01*
X0048529Y0030138D02*
X0049621Y0030138D01*
X0049621Y0030148D02*
X0048529Y0030148D01*
X0048529Y0030158D02*
X0049621Y0030158D01*
X0049621Y0030168D02*
X0048529Y0030168D01*
X0048529Y0030178D02*
X0049621Y0030178D01*
X0049621Y0030188D02*
X0048529Y0030188D01*
X0048529Y0030198D02*
X0049621Y0030198D01*
X0049621Y0030208D02*
X0048529Y0030208D01*
X0048529Y0030218D02*
X0049621Y0030218D01*
X0049621Y0030228D02*
X0048529Y0030228D01*
X0048529Y0030238D02*
X0049621Y0030238D01*
X0049621Y0030248D02*
X0048529Y0030248D01*
X0048529Y0030258D02*
X0049621Y0030258D01*
X0049621Y0030268D02*
X0048529Y0030268D01*
X0048529Y0030278D02*
X0049621Y0030278D01*
X0049621Y0030288D02*
X0048529Y0030288D01*
X0048529Y0030298D02*
X0049621Y0030298D01*
X0049621Y0030308D02*
X0048529Y0030308D01*
X0048529Y0030318D02*
X0049621Y0030318D01*
X0049621Y0030328D02*
X0048529Y0030328D01*
X0048529Y0030338D02*
X0049621Y0030338D01*
X0049621Y0030348D02*
X0048529Y0030348D01*
X0048529Y0030358D02*
X0049621Y0030358D01*
X0049621Y0030368D02*
X0048529Y0030368D01*
X0048529Y0030378D02*
X0049621Y0030378D01*
X0049621Y0030388D02*
X0048529Y0030388D01*
X0048529Y0030398D02*
X0049621Y0030398D01*
X0049621Y0030408D02*
X0048529Y0030408D01*
X0048529Y0030418D02*
X0049621Y0030418D01*
X0049621Y0030428D02*
X0048529Y0030428D01*
X0048529Y0030438D02*
X0049621Y0030438D01*
X0049621Y0030448D02*
X0048529Y0030448D01*
X0048529Y0030458D02*
X0049621Y0030458D01*
X0049621Y0030468D02*
X0048529Y0030468D01*
X0048529Y0030478D02*
X0049621Y0030478D01*
X0049621Y0030488D02*
X0048529Y0030488D01*
X0048529Y0030498D02*
X0049621Y0030498D01*
X0049621Y0030508D02*
X0048529Y0030508D01*
X0048529Y0030518D02*
X0049621Y0030518D01*
X0049621Y0030528D02*
X0048529Y0030528D01*
X0048529Y0030538D02*
X0049621Y0030538D01*
X0049621Y0030548D02*
X0048529Y0030548D01*
X0048529Y0030558D02*
X0049621Y0030558D01*
X0049621Y0030568D02*
X0048529Y0030568D01*
X0048529Y0030578D02*
X0049621Y0030578D01*
X0049621Y0030588D02*
X0048529Y0030588D01*
X0048529Y0030598D02*
X0049621Y0030598D01*
X0049621Y0030608D02*
X0048529Y0030608D01*
X0048529Y0030618D02*
X0049621Y0030618D01*
X0049621Y0030628D02*
X0048529Y0030628D01*
X0048529Y0030638D02*
X0049621Y0030638D01*
X0049621Y0030648D02*
X0048529Y0030648D01*
X0048529Y0030658D02*
X0049621Y0030658D01*
X0049621Y0030668D02*
X0048529Y0030668D01*
X0048529Y0030678D02*
X0049621Y0030678D01*
X0049621Y0030688D02*
X0048529Y0030688D01*
X0048529Y0030698D02*
X0049621Y0030698D01*
X0049621Y0030708D02*
X0048529Y0030708D01*
X0048529Y0030718D02*
X0049621Y0030718D01*
X0049621Y0030728D02*
X0048529Y0030728D01*
X0048529Y0030738D02*
X0049621Y0030738D01*
X0049621Y0030748D02*
X0048529Y0030748D01*
X0048529Y0030758D02*
X0049621Y0030758D01*
X0049621Y0030768D02*
X0048529Y0030768D01*
X0048529Y0030778D02*
X0049621Y0030778D01*
X0049621Y0030788D02*
X0048529Y0030788D01*
X0048529Y0030798D02*
X0049621Y0030798D01*
X0049621Y0030808D02*
X0048529Y0030808D01*
X0048529Y0030818D02*
X0049621Y0030818D01*
X0049621Y0030828D02*
X0048529Y0030828D01*
X0048529Y0030838D02*
X0049621Y0030838D01*
X0049621Y0030848D02*
X0048529Y0030848D01*
X0048529Y0030858D02*
X0049621Y0030858D01*
X0049621Y0030868D02*
X0048529Y0030868D01*
X0048529Y0030878D02*
X0049621Y0030878D01*
X0049621Y0030888D02*
X0048529Y0030888D01*
X0048529Y0030898D02*
X0049621Y0030898D01*
X0049621Y0030908D02*
X0048529Y0030908D01*
X0048529Y0030918D02*
X0049621Y0030918D01*
X0049621Y0030928D02*
X0048529Y0030928D01*
X0048529Y0030938D02*
X0049621Y0030938D01*
X0049621Y0030948D02*
X0048529Y0030948D01*
X0048529Y0030958D02*
X0049621Y0030958D01*
X0049621Y0030968D02*
X0048529Y0030968D01*
X0048529Y0030978D02*
X0049621Y0030978D01*
X0049621Y0030988D02*
X0048529Y0030988D01*
X0048529Y0030998D02*
X0049621Y0030998D01*
X0049621Y0031008D02*
X0048529Y0031008D01*
X0048529Y0031018D02*
X0049621Y0031018D01*
X0049621Y0031028D02*
X0048529Y0031028D01*
X0047652Y0031036D02*
X0047652Y0027798D01*
X0046560Y0027798D01*
X0046560Y0031036D01*
X0047652Y0031036D01*
X0047652Y0027808D02*
X0046560Y0027808D01*
X0046560Y0027818D02*
X0047652Y0027818D01*
X0047652Y0027828D02*
X0046560Y0027828D01*
X0046560Y0027838D02*
X0047652Y0027838D01*
X0047652Y0027848D02*
X0046560Y0027848D01*
X0046560Y0027858D02*
X0047652Y0027858D01*
X0047652Y0027868D02*
X0046560Y0027868D01*
X0046560Y0027878D02*
X0047652Y0027878D01*
X0047652Y0027888D02*
X0046560Y0027888D01*
X0046560Y0027898D02*
X0047652Y0027898D01*
X0047652Y0027908D02*
X0046560Y0027908D01*
X0046560Y0027918D02*
X0047652Y0027918D01*
X0047652Y0027928D02*
X0046560Y0027928D01*
X0046560Y0027938D02*
X0047652Y0027938D01*
X0047652Y0027948D02*
X0046560Y0027948D01*
X0046560Y0027958D02*
X0047652Y0027958D01*
X0047652Y0027968D02*
X0046560Y0027968D01*
X0046560Y0027978D02*
X0047652Y0027978D01*
X0047652Y0027988D02*
X0046560Y0027988D01*
X0046560Y0027998D02*
X0047652Y0027998D01*
X0047652Y0028008D02*
X0046560Y0028008D01*
X0046560Y0028018D02*
X0047652Y0028018D01*
X0047652Y0028028D02*
X0046560Y0028028D01*
X0046560Y0028038D02*
X0047652Y0028038D01*
X0047652Y0028048D02*
X0046560Y0028048D01*
X0046560Y0028058D02*
X0047652Y0028058D01*
X0047652Y0028068D02*
X0046560Y0028068D01*
X0046560Y0028078D02*
X0047652Y0028078D01*
X0047652Y0028088D02*
X0046560Y0028088D01*
X0046560Y0028098D02*
X0047652Y0028098D01*
X0047652Y0028108D02*
X0046560Y0028108D01*
X0046560Y0028118D02*
X0047652Y0028118D01*
X0047652Y0028128D02*
X0046560Y0028128D01*
X0046560Y0028138D02*
X0047652Y0028138D01*
X0047652Y0028148D02*
X0046560Y0028148D01*
X0046560Y0028158D02*
X0047652Y0028158D01*
X0047652Y0028168D02*
X0046560Y0028168D01*
X0046560Y0028178D02*
X0047652Y0028178D01*
X0047652Y0028188D02*
X0046560Y0028188D01*
X0046560Y0028198D02*
X0047652Y0028198D01*
X0047652Y0028208D02*
X0046560Y0028208D01*
X0046560Y0028218D02*
X0047652Y0028218D01*
X0047652Y0028228D02*
X0046560Y0028228D01*
X0046560Y0028238D02*
X0047652Y0028238D01*
X0047652Y0028248D02*
X0046560Y0028248D01*
X0046560Y0028258D02*
X0047652Y0028258D01*
X0047652Y0028268D02*
X0046560Y0028268D01*
X0046560Y0028278D02*
X0047652Y0028278D01*
X0047652Y0028288D02*
X0046560Y0028288D01*
X0046560Y0028298D02*
X0047652Y0028298D01*
X0047652Y0028308D02*
X0046560Y0028308D01*
X0046560Y0028318D02*
X0047652Y0028318D01*
X0047652Y0028328D02*
X0046560Y0028328D01*
X0046560Y0028338D02*
X0047652Y0028338D01*
X0047652Y0028348D02*
X0046560Y0028348D01*
X0046560Y0028358D02*
X0047652Y0028358D01*
X0047652Y0028368D02*
X0046560Y0028368D01*
X0046560Y0028378D02*
X0047652Y0028378D01*
X0047652Y0028388D02*
X0046560Y0028388D01*
X0046560Y0028398D02*
X0047652Y0028398D01*
X0047652Y0028408D02*
X0046560Y0028408D01*
X0046560Y0028418D02*
X0047652Y0028418D01*
X0047652Y0028428D02*
X0046560Y0028428D01*
X0046560Y0028438D02*
X0047652Y0028438D01*
X0047652Y0028448D02*
X0046560Y0028448D01*
X0046560Y0028458D02*
X0047652Y0028458D01*
X0047652Y0028468D02*
X0046560Y0028468D01*
X0046560Y0028478D02*
X0047652Y0028478D01*
X0047652Y0028488D02*
X0046560Y0028488D01*
X0046560Y0028498D02*
X0047652Y0028498D01*
X0047652Y0028508D02*
X0046560Y0028508D01*
X0046560Y0028518D02*
X0047652Y0028518D01*
X0047652Y0028528D02*
X0046560Y0028528D01*
X0046560Y0028538D02*
X0047652Y0028538D01*
X0047652Y0028548D02*
X0046560Y0028548D01*
X0046560Y0028558D02*
X0047652Y0028558D01*
X0047652Y0028568D02*
X0046560Y0028568D01*
X0046560Y0028578D02*
X0047652Y0028578D01*
X0047652Y0028588D02*
X0046560Y0028588D01*
X0046560Y0028598D02*
X0047652Y0028598D01*
X0047652Y0028608D02*
X0046560Y0028608D01*
X0046560Y0028618D02*
X0047652Y0028618D01*
X0047652Y0028628D02*
X0046560Y0028628D01*
X0046560Y0028638D02*
X0047652Y0028638D01*
X0047652Y0028648D02*
X0046560Y0028648D01*
X0046560Y0028658D02*
X0047652Y0028658D01*
X0047652Y0028668D02*
X0046560Y0028668D01*
X0046560Y0028678D02*
X0047652Y0028678D01*
X0047652Y0028688D02*
X0046560Y0028688D01*
X0046560Y0028698D02*
X0047652Y0028698D01*
X0047652Y0028708D02*
X0046560Y0028708D01*
X0046560Y0028718D02*
X0047652Y0028718D01*
X0047652Y0028728D02*
X0046560Y0028728D01*
X0046560Y0028738D02*
X0047652Y0028738D01*
X0047652Y0028748D02*
X0046560Y0028748D01*
X0046560Y0028758D02*
X0047652Y0028758D01*
X0047652Y0028768D02*
X0046560Y0028768D01*
X0046560Y0028778D02*
X0047652Y0028778D01*
X0047652Y0028788D02*
X0046560Y0028788D01*
X0046560Y0028798D02*
X0047652Y0028798D01*
X0047652Y0028808D02*
X0046560Y0028808D01*
X0046560Y0028818D02*
X0047652Y0028818D01*
X0047652Y0028828D02*
X0046560Y0028828D01*
X0046560Y0028838D02*
X0047652Y0028838D01*
X0047652Y0028848D02*
X0046560Y0028848D01*
X0046560Y0028858D02*
X0047652Y0028858D01*
X0047652Y0028868D02*
X0046560Y0028868D01*
X0046560Y0028878D02*
X0047652Y0028878D01*
X0047652Y0028888D02*
X0046560Y0028888D01*
X0046560Y0028898D02*
X0047652Y0028898D01*
X0047652Y0028908D02*
X0046560Y0028908D01*
X0046560Y0028918D02*
X0047652Y0028918D01*
X0047652Y0028928D02*
X0046560Y0028928D01*
X0046560Y0028938D02*
X0047652Y0028938D01*
X0047652Y0028948D02*
X0046560Y0028948D01*
X0046560Y0028958D02*
X0047652Y0028958D01*
X0047652Y0028968D02*
X0046560Y0028968D01*
X0046560Y0028978D02*
X0047652Y0028978D01*
X0047652Y0028988D02*
X0046560Y0028988D01*
X0046560Y0028998D02*
X0047652Y0028998D01*
X0047652Y0029008D02*
X0046560Y0029008D01*
X0046560Y0029018D02*
X0047652Y0029018D01*
X0047652Y0029028D02*
X0046560Y0029028D01*
X0046560Y0029038D02*
X0047652Y0029038D01*
X0047652Y0029048D02*
X0046560Y0029048D01*
X0046560Y0029058D02*
X0047652Y0029058D01*
X0047652Y0029068D02*
X0046560Y0029068D01*
X0046560Y0029078D02*
X0047652Y0029078D01*
X0047652Y0029088D02*
X0046560Y0029088D01*
X0046560Y0029098D02*
X0047652Y0029098D01*
X0047652Y0029108D02*
X0046560Y0029108D01*
X0046560Y0029118D02*
X0047652Y0029118D01*
X0047652Y0029128D02*
X0046560Y0029128D01*
X0046560Y0029138D02*
X0047652Y0029138D01*
X0047652Y0029148D02*
X0046560Y0029148D01*
X0046560Y0029158D02*
X0047652Y0029158D01*
X0047652Y0029168D02*
X0046560Y0029168D01*
X0046560Y0029178D02*
X0047652Y0029178D01*
X0047652Y0029188D02*
X0046560Y0029188D01*
X0046560Y0029198D02*
X0047652Y0029198D01*
X0047652Y0029208D02*
X0046560Y0029208D01*
X0046560Y0029218D02*
X0047652Y0029218D01*
X0047652Y0029228D02*
X0046560Y0029228D01*
X0046560Y0029238D02*
X0047652Y0029238D01*
X0047652Y0029248D02*
X0046560Y0029248D01*
X0046560Y0029258D02*
X0047652Y0029258D01*
X0047652Y0029268D02*
X0046560Y0029268D01*
X0046560Y0029278D02*
X0047652Y0029278D01*
X0047652Y0029288D02*
X0046560Y0029288D01*
X0046560Y0029298D02*
X0047652Y0029298D01*
X0047652Y0029308D02*
X0046560Y0029308D01*
X0046560Y0029318D02*
X0047652Y0029318D01*
X0047652Y0029328D02*
X0046560Y0029328D01*
X0046560Y0029338D02*
X0047652Y0029338D01*
X0047652Y0029348D02*
X0046560Y0029348D01*
X0046560Y0029358D02*
X0047652Y0029358D01*
X0047652Y0029368D02*
X0046560Y0029368D01*
X0046560Y0029378D02*
X0047652Y0029378D01*
X0047652Y0029388D02*
X0046560Y0029388D01*
X0046560Y0029398D02*
X0047652Y0029398D01*
X0047652Y0029408D02*
X0046560Y0029408D01*
X0046560Y0029418D02*
X0047652Y0029418D01*
X0047652Y0029428D02*
X0046560Y0029428D01*
X0046560Y0029438D02*
X0047652Y0029438D01*
X0047652Y0029448D02*
X0046560Y0029448D01*
X0046560Y0029458D02*
X0047652Y0029458D01*
X0047652Y0029468D02*
X0046560Y0029468D01*
X0046560Y0029478D02*
X0047652Y0029478D01*
X0047652Y0029488D02*
X0046560Y0029488D01*
X0046560Y0029498D02*
X0047652Y0029498D01*
X0047652Y0029508D02*
X0046560Y0029508D01*
X0046560Y0029518D02*
X0047652Y0029518D01*
X0047652Y0029528D02*
X0046560Y0029528D01*
X0046560Y0029538D02*
X0047652Y0029538D01*
X0047652Y0029548D02*
X0046560Y0029548D01*
X0046560Y0029558D02*
X0047652Y0029558D01*
X0047652Y0029568D02*
X0046560Y0029568D01*
X0046560Y0029578D02*
X0047652Y0029578D01*
X0047652Y0029588D02*
X0046560Y0029588D01*
X0046560Y0029598D02*
X0047652Y0029598D01*
X0047652Y0029608D02*
X0046560Y0029608D01*
X0046560Y0029618D02*
X0047652Y0029618D01*
X0047652Y0029628D02*
X0046560Y0029628D01*
X0046560Y0029638D02*
X0047652Y0029638D01*
X0047652Y0029648D02*
X0046560Y0029648D01*
X0046560Y0029658D02*
X0047652Y0029658D01*
X0047652Y0029668D02*
X0046560Y0029668D01*
X0046560Y0029678D02*
X0047652Y0029678D01*
X0047652Y0029688D02*
X0046560Y0029688D01*
X0046560Y0029698D02*
X0047652Y0029698D01*
X0047652Y0029708D02*
X0046560Y0029708D01*
X0046560Y0029718D02*
X0047652Y0029718D01*
X0047652Y0029728D02*
X0046560Y0029728D01*
X0046560Y0029738D02*
X0047652Y0029738D01*
X0047652Y0029748D02*
X0046560Y0029748D01*
X0046560Y0029758D02*
X0047652Y0029758D01*
X0047652Y0029768D02*
X0046560Y0029768D01*
X0046560Y0029778D02*
X0047652Y0029778D01*
X0047652Y0029788D02*
X0046560Y0029788D01*
X0046560Y0029798D02*
X0047652Y0029798D01*
X0047652Y0029808D02*
X0046560Y0029808D01*
X0046560Y0029818D02*
X0047652Y0029818D01*
X0047652Y0029828D02*
X0046560Y0029828D01*
X0046560Y0029838D02*
X0047652Y0029838D01*
X0047652Y0029848D02*
X0046560Y0029848D01*
X0046560Y0029858D02*
X0047652Y0029858D01*
X0047652Y0029868D02*
X0046560Y0029868D01*
X0046560Y0029878D02*
X0047652Y0029878D01*
X0047652Y0029888D02*
X0046560Y0029888D01*
X0046560Y0029898D02*
X0047652Y0029898D01*
X0047652Y0029908D02*
X0046560Y0029908D01*
X0046560Y0029918D02*
X0047652Y0029918D01*
X0047652Y0029928D02*
X0046560Y0029928D01*
X0046560Y0029938D02*
X0047652Y0029938D01*
X0047652Y0029948D02*
X0046560Y0029948D01*
X0046560Y0029958D02*
X0047652Y0029958D01*
X0047652Y0029968D02*
X0046560Y0029968D01*
X0046560Y0029978D02*
X0047652Y0029978D01*
X0047652Y0029988D02*
X0046560Y0029988D01*
X0046560Y0029998D02*
X0047652Y0029998D01*
X0047652Y0030008D02*
X0046560Y0030008D01*
X0046560Y0030018D02*
X0047652Y0030018D01*
X0047652Y0030028D02*
X0046560Y0030028D01*
X0046560Y0030038D02*
X0047652Y0030038D01*
X0047652Y0030048D02*
X0046560Y0030048D01*
X0046560Y0030058D02*
X0047652Y0030058D01*
X0047652Y0030068D02*
X0046560Y0030068D01*
X0046560Y0030078D02*
X0047652Y0030078D01*
X0047652Y0030088D02*
X0046560Y0030088D01*
X0046560Y0030098D02*
X0047652Y0030098D01*
X0047652Y0030108D02*
X0046560Y0030108D01*
X0046560Y0030118D02*
X0047652Y0030118D01*
X0047652Y0030128D02*
X0046560Y0030128D01*
X0046560Y0030138D02*
X0047652Y0030138D01*
X0047652Y0030148D02*
X0046560Y0030148D01*
X0046560Y0030158D02*
X0047652Y0030158D01*
X0047652Y0030168D02*
X0046560Y0030168D01*
X0046560Y0030178D02*
X0047652Y0030178D01*
X0047652Y0030188D02*
X0046560Y0030188D01*
X0046560Y0030198D02*
X0047652Y0030198D01*
X0047652Y0030208D02*
X0046560Y0030208D01*
X0046560Y0030218D02*
X0047652Y0030218D01*
X0047652Y0030228D02*
X0046560Y0030228D01*
X0046560Y0030238D02*
X0047652Y0030238D01*
X0047652Y0030248D02*
X0046560Y0030248D01*
X0046560Y0030258D02*
X0047652Y0030258D01*
X0047652Y0030268D02*
X0046560Y0030268D01*
X0046560Y0030278D02*
X0047652Y0030278D01*
X0047652Y0030288D02*
X0046560Y0030288D01*
X0046560Y0030298D02*
X0047652Y0030298D01*
X0047652Y0030308D02*
X0046560Y0030308D01*
X0046560Y0030318D02*
X0047652Y0030318D01*
X0047652Y0030328D02*
X0046560Y0030328D01*
X0046560Y0030338D02*
X0047652Y0030338D01*
X0047652Y0030348D02*
X0046560Y0030348D01*
X0046560Y0030358D02*
X0047652Y0030358D01*
X0047652Y0030368D02*
X0046560Y0030368D01*
X0046560Y0030378D02*
X0047652Y0030378D01*
X0047652Y0030388D02*
X0046560Y0030388D01*
X0046560Y0030398D02*
X0047652Y0030398D01*
X0047652Y0030408D02*
X0046560Y0030408D01*
X0046560Y0030418D02*
X0047652Y0030418D01*
X0047652Y0030428D02*
X0046560Y0030428D01*
X0046560Y0030438D02*
X0047652Y0030438D01*
X0047652Y0030448D02*
X0046560Y0030448D01*
X0046560Y0030458D02*
X0047652Y0030458D01*
X0047652Y0030468D02*
X0046560Y0030468D01*
X0046560Y0030478D02*
X0047652Y0030478D01*
X0047652Y0030488D02*
X0046560Y0030488D01*
X0046560Y0030498D02*
X0047652Y0030498D01*
X0047652Y0030508D02*
X0046560Y0030508D01*
X0046560Y0030518D02*
X0047652Y0030518D01*
X0047652Y0030528D02*
X0046560Y0030528D01*
X0046560Y0030538D02*
X0047652Y0030538D01*
X0047652Y0030548D02*
X0046560Y0030548D01*
X0046560Y0030558D02*
X0047652Y0030558D01*
X0047652Y0030568D02*
X0046560Y0030568D01*
X0046560Y0030578D02*
X0047652Y0030578D01*
X0047652Y0030588D02*
X0046560Y0030588D01*
X0046560Y0030598D02*
X0047652Y0030598D01*
X0047652Y0030608D02*
X0046560Y0030608D01*
X0046560Y0030618D02*
X0047652Y0030618D01*
X0047652Y0030628D02*
X0046560Y0030628D01*
X0046560Y0030638D02*
X0047652Y0030638D01*
X0047652Y0030648D02*
X0046560Y0030648D01*
X0046560Y0030658D02*
X0047652Y0030658D01*
X0047652Y0030668D02*
X0046560Y0030668D01*
X0046560Y0030678D02*
X0047652Y0030678D01*
X0047652Y0030688D02*
X0046560Y0030688D01*
X0046560Y0030698D02*
X0047652Y0030698D01*
X0047652Y0030708D02*
X0046560Y0030708D01*
X0046560Y0030718D02*
X0047652Y0030718D01*
X0047652Y0030728D02*
X0046560Y0030728D01*
X0046560Y0030738D02*
X0047652Y0030738D01*
X0047652Y0030748D02*
X0046560Y0030748D01*
X0046560Y0030758D02*
X0047652Y0030758D01*
X0047652Y0030768D02*
X0046560Y0030768D01*
X0046560Y0030778D02*
X0047652Y0030778D01*
X0047652Y0030788D02*
X0046560Y0030788D01*
X0046560Y0030798D02*
X0047652Y0030798D01*
X0047652Y0030808D02*
X0046560Y0030808D01*
X0046560Y0030818D02*
X0047652Y0030818D01*
X0047652Y0030828D02*
X0046560Y0030828D01*
X0046560Y0030838D02*
X0047652Y0030838D01*
X0047652Y0030848D02*
X0046560Y0030848D01*
X0046560Y0030858D02*
X0047652Y0030858D01*
X0047652Y0030868D02*
X0046560Y0030868D01*
X0046560Y0030878D02*
X0047652Y0030878D01*
X0047652Y0030888D02*
X0046560Y0030888D01*
X0046560Y0030898D02*
X0047652Y0030898D01*
X0047652Y0030908D02*
X0046560Y0030908D01*
X0046560Y0030918D02*
X0047652Y0030918D01*
X0047652Y0030928D02*
X0046560Y0030928D01*
X0046560Y0030938D02*
X0047652Y0030938D01*
X0047652Y0030948D02*
X0046560Y0030948D01*
X0046560Y0030958D02*
X0047652Y0030958D01*
X0047652Y0030968D02*
X0046560Y0030968D01*
X0046560Y0030978D02*
X0047652Y0030978D01*
X0047652Y0030988D02*
X0046560Y0030988D01*
X0046560Y0030998D02*
X0047652Y0030998D01*
X0047652Y0031008D02*
X0046560Y0031008D01*
X0046560Y0031018D02*
X0047652Y0031018D01*
X0047652Y0031028D02*
X0046560Y0031028D01*
X0045684Y0031036D02*
X0045684Y0027798D01*
X0044592Y0027798D01*
X0044592Y0031036D01*
X0045684Y0031036D01*
X0045684Y0027808D02*
X0044592Y0027808D01*
X0044592Y0027818D02*
X0045684Y0027818D01*
X0045684Y0027828D02*
X0044592Y0027828D01*
X0044592Y0027838D02*
X0045684Y0027838D01*
X0045684Y0027848D02*
X0044592Y0027848D01*
X0044592Y0027858D02*
X0045684Y0027858D01*
X0045684Y0027868D02*
X0044592Y0027868D01*
X0044592Y0027878D02*
X0045684Y0027878D01*
X0045684Y0027888D02*
X0044592Y0027888D01*
X0044592Y0027898D02*
X0045684Y0027898D01*
X0045684Y0027908D02*
X0044592Y0027908D01*
X0044592Y0027918D02*
X0045684Y0027918D01*
X0045684Y0027928D02*
X0044592Y0027928D01*
X0044592Y0027938D02*
X0045684Y0027938D01*
X0045684Y0027948D02*
X0044592Y0027948D01*
X0044592Y0027958D02*
X0045684Y0027958D01*
X0045684Y0027968D02*
X0044592Y0027968D01*
X0044592Y0027978D02*
X0045684Y0027978D01*
X0045684Y0027988D02*
X0044592Y0027988D01*
X0044592Y0027998D02*
X0045684Y0027998D01*
X0045684Y0028008D02*
X0044592Y0028008D01*
X0044592Y0028018D02*
X0045684Y0028018D01*
X0045684Y0028028D02*
X0044592Y0028028D01*
X0044592Y0028038D02*
X0045684Y0028038D01*
X0045684Y0028048D02*
X0044592Y0028048D01*
X0044592Y0028058D02*
X0045684Y0028058D01*
X0045684Y0028068D02*
X0044592Y0028068D01*
X0044592Y0028078D02*
X0045684Y0028078D01*
X0045684Y0028088D02*
X0044592Y0028088D01*
X0044592Y0028098D02*
X0045684Y0028098D01*
X0045684Y0028108D02*
X0044592Y0028108D01*
X0044592Y0028118D02*
X0045684Y0028118D01*
X0045684Y0028128D02*
X0044592Y0028128D01*
X0044592Y0028138D02*
X0045684Y0028138D01*
X0045684Y0028148D02*
X0044592Y0028148D01*
X0044592Y0028158D02*
X0045684Y0028158D01*
X0045684Y0028168D02*
X0044592Y0028168D01*
X0044592Y0028178D02*
X0045684Y0028178D01*
X0045684Y0028188D02*
X0044592Y0028188D01*
X0044592Y0028198D02*
X0045684Y0028198D01*
X0045684Y0028208D02*
X0044592Y0028208D01*
X0044592Y0028218D02*
X0045684Y0028218D01*
X0045684Y0028228D02*
X0044592Y0028228D01*
X0044592Y0028238D02*
X0045684Y0028238D01*
X0045684Y0028248D02*
X0044592Y0028248D01*
X0044592Y0028258D02*
X0045684Y0028258D01*
X0045684Y0028268D02*
X0044592Y0028268D01*
X0044592Y0028278D02*
X0045684Y0028278D01*
X0045684Y0028288D02*
X0044592Y0028288D01*
X0044592Y0028298D02*
X0045684Y0028298D01*
X0045684Y0028308D02*
X0044592Y0028308D01*
X0044592Y0028318D02*
X0045684Y0028318D01*
X0045684Y0028328D02*
X0044592Y0028328D01*
X0044592Y0028338D02*
X0045684Y0028338D01*
X0045684Y0028348D02*
X0044592Y0028348D01*
X0044592Y0028358D02*
X0045684Y0028358D01*
X0045684Y0028368D02*
X0044592Y0028368D01*
X0044592Y0028378D02*
X0045684Y0028378D01*
X0045684Y0028388D02*
X0044592Y0028388D01*
X0044592Y0028398D02*
X0045684Y0028398D01*
X0045684Y0028408D02*
X0044592Y0028408D01*
X0044592Y0028418D02*
X0045684Y0028418D01*
X0045684Y0028428D02*
X0044592Y0028428D01*
X0044592Y0028438D02*
X0045684Y0028438D01*
X0045684Y0028448D02*
X0044592Y0028448D01*
X0044592Y0028458D02*
X0045684Y0028458D01*
X0045684Y0028468D02*
X0044592Y0028468D01*
X0044592Y0028478D02*
X0045684Y0028478D01*
X0045684Y0028488D02*
X0044592Y0028488D01*
X0044592Y0028498D02*
X0045684Y0028498D01*
X0045684Y0028508D02*
X0044592Y0028508D01*
X0044592Y0028518D02*
X0045684Y0028518D01*
X0045684Y0028528D02*
X0044592Y0028528D01*
X0044592Y0028538D02*
X0045684Y0028538D01*
X0045684Y0028548D02*
X0044592Y0028548D01*
X0044592Y0028558D02*
X0045684Y0028558D01*
X0045684Y0028568D02*
X0044592Y0028568D01*
X0044592Y0028578D02*
X0045684Y0028578D01*
X0045684Y0028588D02*
X0044592Y0028588D01*
X0044592Y0028598D02*
X0045684Y0028598D01*
X0045684Y0028608D02*
X0044592Y0028608D01*
X0044592Y0028618D02*
X0045684Y0028618D01*
X0045684Y0028628D02*
X0044592Y0028628D01*
X0044592Y0028638D02*
X0045684Y0028638D01*
X0045684Y0028648D02*
X0044592Y0028648D01*
X0044592Y0028658D02*
X0045684Y0028658D01*
X0045684Y0028668D02*
X0044592Y0028668D01*
X0044592Y0028678D02*
X0045684Y0028678D01*
X0045684Y0028688D02*
X0044592Y0028688D01*
X0044592Y0028698D02*
X0045684Y0028698D01*
X0045684Y0028708D02*
X0044592Y0028708D01*
X0044592Y0028718D02*
X0045684Y0028718D01*
X0045684Y0028728D02*
X0044592Y0028728D01*
X0044592Y0028738D02*
X0045684Y0028738D01*
X0045684Y0028748D02*
X0044592Y0028748D01*
X0044592Y0028758D02*
X0045684Y0028758D01*
X0045684Y0028768D02*
X0044592Y0028768D01*
X0044592Y0028778D02*
X0045684Y0028778D01*
X0045684Y0028788D02*
X0044592Y0028788D01*
X0044592Y0028798D02*
X0045684Y0028798D01*
X0045684Y0028808D02*
X0044592Y0028808D01*
X0044592Y0028818D02*
X0045684Y0028818D01*
X0045684Y0028828D02*
X0044592Y0028828D01*
X0044592Y0028838D02*
X0045684Y0028838D01*
X0045684Y0028848D02*
X0044592Y0028848D01*
X0044592Y0028858D02*
X0045684Y0028858D01*
X0045684Y0028868D02*
X0044592Y0028868D01*
X0044592Y0028878D02*
X0045684Y0028878D01*
X0045684Y0028888D02*
X0044592Y0028888D01*
X0044592Y0028898D02*
X0045684Y0028898D01*
X0045684Y0028908D02*
X0044592Y0028908D01*
X0044592Y0028918D02*
X0045684Y0028918D01*
X0045684Y0028928D02*
X0044592Y0028928D01*
X0044592Y0028938D02*
X0045684Y0028938D01*
X0045684Y0028948D02*
X0044592Y0028948D01*
X0044592Y0028958D02*
X0045684Y0028958D01*
X0045684Y0028968D02*
X0044592Y0028968D01*
X0044592Y0028978D02*
X0045684Y0028978D01*
X0045684Y0028988D02*
X0044592Y0028988D01*
X0044592Y0028998D02*
X0045684Y0028998D01*
X0045684Y0029008D02*
X0044592Y0029008D01*
X0044592Y0029018D02*
X0045684Y0029018D01*
X0045684Y0029028D02*
X0044592Y0029028D01*
X0044592Y0029038D02*
X0045684Y0029038D01*
X0045684Y0029048D02*
X0044592Y0029048D01*
X0044592Y0029058D02*
X0045684Y0029058D01*
X0045684Y0029068D02*
X0044592Y0029068D01*
X0044592Y0029078D02*
X0045684Y0029078D01*
X0045684Y0029088D02*
X0044592Y0029088D01*
X0044592Y0029098D02*
X0045684Y0029098D01*
X0045684Y0029108D02*
X0044592Y0029108D01*
X0044592Y0029118D02*
X0045684Y0029118D01*
X0045684Y0029128D02*
X0044592Y0029128D01*
X0044592Y0029138D02*
X0045684Y0029138D01*
X0045684Y0029148D02*
X0044592Y0029148D01*
X0044592Y0029158D02*
X0045684Y0029158D01*
X0045684Y0029168D02*
X0044592Y0029168D01*
X0044592Y0029178D02*
X0045684Y0029178D01*
X0045684Y0029188D02*
X0044592Y0029188D01*
X0044592Y0029198D02*
X0045684Y0029198D01*
X0045684Y0029208D02*
X0044592Y0029208D01*
X0044592Y0029218D02*
X0045684Y0029218D01*
X0045684Y0029228D02*
X0044592Y0029228D01*
X0044592Y0029238D02*
X0045684Y0029238D01*
X0045684Y0029248D02*
X0044592Y0029248D01*
X0044592Y0029258D02*
X0045684Y0029258D01*
X0045684Y0029268D02*
X0044592Y0029268D01*
X0044592Y0029278D02*
X0045684Y0029278D01*
X0045684Y0029288D02*
X0044592Y0029288D01*
X0044592Y0029298D02*
X0045684Y0029298D01*
X0045684Y0029308D02*
X0044592Y0029308D01*
X0044592Y0029318D02*
X0045684Y0029318D01*
X0045684Y0029328D02*
X0044592Y0029328D01*
X0044592Y0029338D02*
X0045684Y0029338D01*
X0045684Y0029348D02*
X0044592Y0029348D01*
X0044592Y0029358D02*
X0045684Y0029358D01*
X0045684Y0029368D02*
X0044592Y0029368D01*
X0044592Y0029378D02*
X0045684Y0029378D01*
X0045684Y0029388D02*
X0044592Y0029388D01*
X0044592Y0029398D02*
X0045684Y0029398D01*
X0045684Y0029408D02*
X0044592Y0029408D01*
X0044592Y0029418D02*
X0045684Y0029418D01*
X0045684Y0029428D02*
X0044592Y0029428D01*
X0044592Y0029438D02*
X0045684Y0029438D01*
X0045684Y0029448D02*
X0044592Y0029448D01*
X0044592Y0029458D02*
X0045684Y0029458D01*
X0045684Y0029468D02*
X0044592Y0029468D01*
X0044592Y0029478D02*
X0045684Y0029478D01*
X0045684Y0029488D02*
X0044592Y0029488D01*
X0044592Y0029498D02*
X0045684Y0029498D01*
X0045684Y0029508D02*
X0044592Y0029508D01*
X0044592Y0029518D02*
X0045684Y0029518D01*
X0045684Y0029528D02*
X0044592Y0029528D01*
X0044592Y0029538D02*
X0045684Y0029538D01*
X0045684Y0029548D02*
X0044592Y0029548D01*
X0044592Y0029558D02*
X0045684Y0029558D01*
X0045684Y0029568D02*
X0044592Y0029568D01*
X0044592Y0029578D02*
X0045684Y0029578D01*
X0045684Y0029588D02*
X0044592Y0029588D01*
X0044592Y0029598D02*
X0045684Y0029598D01*
X0045684Y0029608D02*
X0044592Y0029608D01*
X0044592Y0029618D02*
X0045684Y0029618D01*
X0045684Y0029628D02*
X0044592Y0029628D01*
X0044592Y0029638D02*
X0045684Y0029638D01*
X0045684Y0029648D02*
X0044592Y0029648D01*
X0044592Y0029658D02*
X0045684Y0029658D01*
X0045684Y0029668D02*
X0044592Y0029668D01*
X0044592Y0029678D02*
X0045684Y0029678D01*
X0045684Y0029688D02*
X0044592Y0029688D01*
X0044592Y0029698D02*
X0045684Y0029698D01*
X0045684Y0029708D02*
X0044592Y0029708D01*
X0044592Y0029718D02*
X0045684Y0029718D01*
X0045684Y0029728D02*
X0044592Y0029728D01*
X0044592Y0029738D02*
X0045684Y0029738D01*
X0045684Y0029748D02*
X0044592Y0029748D01*
X0044592Y0029758D02*
X0045684Y0029758D01*
X0045684Y0029768D02*
X0044592Y0029768D01*
X0044592Y0029778D02*
X0045684Y0029778D01*
X0045684Y0029788D02*
X0044592Y0029788D01*
X0044592Y0029798D02*
X0045684Y0029798D01*
X0045684Y0029808D02*
X0044592Y0029808D01*
X0044592Y0029818D02*
X0045684Y0029818D01*
X0045684Y0029828D02*
X0044592Y0029828D01*
X0044592Y0029838D02*
X0045684Y0029838D01*
X0045684Y0029848D02*
X0044592Y0029848D01*
X0044592Y0029858D02*
X0045684Y0029858D01*
X0045684Y0029868D02*
X0044592Y0029868D01*
X0044592Y0029878D02*
X0045684Y0029878D01*
X0045684Y0029888D02*
X0044592Y0029888D01*
X0044592Y0029898D02*
X0045684Y0029898D01*
X0045684Y0029908D02*
X0044592Y0029908D01*
X0044592Y0029918D02*
X0045684Y0029918D01*
X0045684Y0029928D02*
X0044592Y0029928D01*
X0044592Y0029938D02*
X0045684Y0029938D01*
X0045684Y0029948D02*
X0044592Y0029948D01*
X0044592Y0029958D02*
X0045684Y0029958D01*
X0045684Y0029968D02*
X0044592Y0029968D01*
X0044592Y0029978D02*
X0045684Y0029978D01*
X0045684Y0029988D02*
X0044592Y0029988D01*
X0044592Y0029998D02*
X0045684Y0029998D01*
X0045684Y0030008D02*
X0044592Y0030008D01*
X0044592Y0030018D02*
X0045684Y0030018D01*
X0045684Y0030028D02*
X0044592Y0030028D01*
X0044592Y0030038D02*
X0045684Y0030038D01*
X0045684Y0030048D02*
X0044592Y0030048D01*
X0044592Y0030058D02*
X0045684Y0030058D01*
X0045684Y0030068D02*
X0044592Y0030068D01*
X0044592Y0030078D02*
X0045684Y0030078D01*
X0045684Y0030088D02*
X0044592Y0030088D01*
X0044592Y0030098D02*
X0045684Y0030098D01*
X0045684Y0030108D02*
X0044592Y0030108D01*
X0044592Y0030118D02*
X0045684Y0030118D01*
X0045684Y0030128D02*
X0044592Y0030128D01*
X0044592Y0030138D02*
X0045684Y0030138D01*
X0045684Y0030148D02*
X0044592Y0030148D01*
X0044592Y0030158D02*
X0045684Y0030158D01*
X0045684Y0030168D02*
X0044592Y0030168D01*
X0044592Y0030178D02*
X0045684Y0030178D01*
X0045684Y0030188D02*
X0044592Y0030188D01*
X0044592Y0030198D02*
X0045684Y0030198D01*
X0045684Y0030208D02*
X0044592Y0030208D01*
X0044592Y0030218D02*
X0045684Y0030218D01*
X0045684Y0030228D02*
X0044592Y0030228D01*
X0044592Y0030238D02*
X0045684Y0030238D01*
X0045684Y0030248D02*
X0044592Y0030248D01*
X0044592Y0030258D02*
X0045684Y0030258D01*
X0045684Y0030268D02*
X0044592Y0030268D01*
X0044592Y0030278D02*
X0045684Y0030278D01*
X0045684Y0030288D02*
X0044592Y0030288D01*
X0044592Y0030298D02*
X0045684Y0030298D01*
X0045684Y0030308D02*
X0044592Y0030308D01*
X0044592Y0030318D02*
X0045684Y0030318D01*
X0045684Y0030328D02*
X0044592Y0030328D01*
X0044592Y0030338D02*
X0045684Y0030338D01*
X0045684Y0030348D02*
X0044592Y0030348D01*
X0044592Y0030358D02*
X0045684Y0030358D01*
X0045684Y0030368D02*
X0044592Y0030368D01*
X0044592Y0030378D02*
X0045684Y0030378D01*
X0045684Y0030388D02*
X0044592Y0030388D01*
X0044592Y0030398D02*
X0045684Y0030398D01*
X0045684Y0030408D02*
X0044592Y0030408D01*
X0044592Y0030418D02*
X0045684Y0030418D01*
X0045684Y0030428D02*
X0044592Y0030428D01*
X0044592Y0030438D02*
X0045684Y0030438D01*
X0045684Y0030448D02*
X0044592Y0030448D01*
X0044592Y0030458D02*
X0045684Y0030458D01*
X0045684Y0030468D02*
X0044592Y0030468D01*
X0044592Y0030478D02*
X0045684Y0030478D01*
X0045684Y0030488D02*
X0044592Y0030488D01*
X0044592Y0030498D02*
X0045684Y0030498D01*
X0045684Y0030508D02*
X0044592Y0030508D01*
X0044592Y0030518D02*
X0045684Y0030518D01*
X0045684Y0030528D02*
X0044592Y0030528D01*
X0044592Y0030538D02*
X0045684Y0030538D01*
X0045684Y0030548D02*
X0044592Y0030548D01*
X0044592Y0030558D02*
X0045684Y0030558D01*
X0045684Y0030568D02*
X0044592Y0030568D01*
X0044592Y0030578D02*
X0045684Y0030578D01*
X0045684Y0030588D02*
X0044592Y0030588D01*
X0044592Y0030598D02*
X0045684Y0030598D01*
X0045684Y0030608D02*
X0044592Y0030608D01*
X0044592Y0030618D02*
X0045684Y0030618D01*
X0045684Y0030628D02*
X0044592Y0030628D01*
X0044592Y0030638D02*
X0045684Y0030638D01*
X0045684Y0030648D02*
X0044592Y0030648D01*
X0044592Y0030658D02*
X0045684Y0030658D01*
X0045684Y0030668D02*
X0044592Y0030668D01*
X0044592Y0030678D02*
X0045684Y0030678D01*
X0045684Y0030688D02*
X0044592Y0030688D01*
X0044592Y0030698D02*
X0045684Y0030698D01*
X0045684Y0030708D02*
X0044592Y0030708D01*
X0044592Y0030718D02*
X0045684Y0030718D01*
X0045684Y0030728D02*
X0044592Y0030728D01*
X0044592Y0030738D02*
X0045684Y0030738D01*
X0045684Y0030748D02*
X0044592Y0030748D01*
X0044592Y0030758D02*
X0045684Y0030758D01*
X0045684Y0030768D02*
X0044592Y0030768D01*
X0044592Y0030778D02*
X0045684Y0030778D01*
X0045684Y0030788D02*
X0044592Y0030788D01*
X0044592Y0030798D02*
X0045684Y0030798D01*
X0045684Y0030808D02*
X0044592Y0030808D01*
X0044592Y0030818D02*
X0045684Y0030818D01*
X0045684Y0030828D02*
X0044592Y0030828D01*
X0044592Y0030838D02*
X0045684Y0030838D01*
X0045684Y0030848D02*
X0044592Y0030848D01*
X0044592Y0030858D02*
X0045684Y0030858D01*
X0045684Y0030868D02*
X0044592Y0030868D01*
X0044592Y0030878D02*
X0045684Y0030878D01*
X0045684Y0030888D02*
X0044592Y0030888D01*
X0044592Y0030898D02*
X0045684Y0030898D01*
X0045684Y0030908D02*
X0044592Y0030908D01*
X0044592Y0030918D02*
X0045684Y0030918D01*
X0045684Y0030928D02*
X0044592Y0030928D01*
X0044592Y0030938D02*
X0045684Y0030938D01*
X0045684Y0030948D02*
X0044592Y0030948D01*
X0044592Y0030958D02*
X0045684Y0030958D01*
X0045684Y0030968D02*
X0044592Y0030968D01*
X0044592Y0030978D02*
X0045684Y0030978D01*
X0045684Y0030988D02*
X0044592Y0030988D01*
X0044592Y0030998D02*
X0045684Y0030998D01*
X0045684Y0031008D02*
X0044592Y0031008D01*
X0044592Y0031018D02*
X0045684Y0031018D01*
X0045684Y0031028D02*
X0044592Y0031028D01*
X0051590Y0031036D02*
X0051590Y0027798D01*
X0050498Y0027798D01*
X0050498Y0031036D01*
X0051590Y0031036D01*
X0051590Y0027808D02*
X0050498Y0027808D01*
X0050498Y0027818D02*
X0051590Y0027818D01*
X0051590Y0027828D02*
X0050498Y0027828D01*
X0050498Y0027838D02*
X0051590Y0027838D01*
X0051590Y0027848D02*
X0050498Y0027848D01*
X0050498Y0027858D02*
X0051590Y0027858D01*
X0051590Y0027868D02*
X0050498Y0027868D01*
X0050498Y0027878D02*
X0051590Y0027878D01*
X0051590Y0027888D02*
X0050498Y0027888D01*
X0050498Y0027898D02*
X0051590Y0027898D01*
X0051590Y0027908D02*
X0050498Y0027908D01*
X0050498Y0027918D02*
X0051590Y0027918D01*
X0051590Y0027928D02*
X0050498Y0027928D01*
X0050498Y0027938D02*
X0051590Y0027938D01*
X0051590Y0027948D02*
X0050498Y0027948D01*
X0050498Y0027958D02*
X0051590Y0027958D01*
X0051590Y0027968D02*
X0050498Y0027968D01*
X0050498Y0027978D02*
X0051590Y0027978D01*
X0051590Y0027988D02*
X0050498Y0027988D01*
X0050498Y0027998D02*
X0051590Y0027998D01*
X0051590Y0028008D02*
X0050498Y0028008D01*
X0050498Y0028018D02*
X0051590Y0028018D01*
X0051590Y0028028D02*
X0050498Y0028028D01*
X0050498Y0028038D02*
X0051590Y0028038D01*
X0051590Y0028048D02*
X0050498Y0028048D01*
X0050498Y0028058D02*
X0051590Y0028058D01*
X0051590Y0028068D02*
X0050498Y0028068D01*
X0050498Y0028078D02*
X0051590Y0028078D01*
X0051590Y0028088D02*
X0050498Y0028088D01*
X0050498Y0028098D02*
X0051590Y0028098D01*
X0051590Y0028108D02*
X0050498Y0028108D01*
X0050498Y0028118D02*
X0051590Y0028118D01*
X0051590Y0028128D02*
X0050498Y0028128D01*
X0050498Y0028138D02*
X0051590Y0028138D01*
X0051590Y0028148D02*
X0050498Y0028148D01*
X0050498Y0028158D02*
X0051590Y0028158D01*
X0051590Y0028168D02*
X0050498Y0028168D01*
X0050498Y0028178D02*
X0051590Y0028178D01*
X0051590Y0028188D02*
X0050498Y0028188D01*
X0050498Y0028198D02*
X0051590Y0028198D01*
X0051590Y0028208D02*
X0050498Y0028208D01*
X0050498Y0028218D02*
X0051590Y0028218D01*
X0051590Y0028228D02*
X0050498Y0028228D01*
X0050498Y0028238D02*
X0051590Y0028238D01*
X0051590Y0028248D02*
X0050498Y0028248D01*
X0050498Y0028258D02*
X0051590Y0028258D01*
X0051590Y0028268D02*
X0050498Y0028268D01*
X0050498Y0028278D02*
X0051590Y0028278D01*
X0051590Y0028288D02*
X0050498Y0028288D01*
X0050498Y0028298D02*
X0051590Y0028298D01*
X0051590Y0028308D02*
X0050498Y0028308D01*
X0050498Y0028318D02*
X0051590Y0028318D01*
X0051590Y0028328D02*
X0050498Y0028328D01*
X0050498Y0028338D02*
X0051590Y0028338D01*
X0051590Y0028348D02*
X0050498Y0028348D01*
X0050498Y0028358D02*
X0051590Y0028358D01*
X0051590Y0028368D02*
X0050498Y0028368D01*
X0050498Y0028378D02*
X0051590Y0028378D01*
X0051590Y0028388D02*
X0050498Y0028388D01*
X0050498Y0028398D02*
X0051590Y0028398D01*
X0051590Y0028408D02*
X0050498Y0028408D01*
X0050498Y0028418D02*
X0051590Y0028418D01*
X0051590Y0028428D02*
X0050498Y0028428D01*
X0050498Y0028438D02*
X0051590Y0028438D01*
X0051590Y0028448D02*
X0050498Y0028448D01*
X0050498Y0028458D02*
X0051590Y0028458D01*
X0051590Y0028468D02*
X0050498Y0028468D01*
X0050498Y0028478D02*
X0051590Y0028478D01*
X0051590Y0028488D02*
X0050498Y0028488D01*
X0050498Y0028498D02*
X0051590Y0028498D01*
X0051590Y0028508D02*
X0050498Y0028508D01*
X0050498Y0028518D02*
X0051590Y0028518D01*
X0051590Y0028528D02*
X0050498Y0028528D01*
X0050498Y0028538D02*
X0051590Y0028538D01*
X0051590Y0028548D02*
X0050498Y0028548D01*
X0050498Y0028558D02*
X0051590Y0028558D01*
X0051590Y0028568D02*
X0050498Y0028568D01*
X0050498Y0028578D02*
X0051590Y0028578D01*
X0051590Y0028588D02*
X0050498Y0028588D01*
X0050498Y0028598D02*
X0051590Y0028598D01*
X0051590Y0028608D02*
X0050498Y0028608D01*
X0050498Y0028618D02*
X0051590Y0028618D01*
X0051590Y0028628D02*
X0050498Y0028628D01*
X0050498Y0028638D02*
X0051590Y0028638D01*
X0051590Y0028648D02*
X0050498Y0028648D01*
X0050498Y0028658D02*
X0051590Y0028658D01*
X0051590Y0028668D02*
X0050498Y0028668D01*
X0050498Y0028678D02*
X0051590Y0028678D01*
X0051590Y0028688D02*
X0050498Y0028688D01*
X0050498Y0028698D02*
X0051590Y0028698D01*
X0051590Y0028708D02*
X0050498Y0028708D01*
X0050498Y0028718D02*
X0051590Y0028718D01*
X0051590Y0028728D02*
X0050498Y0028728D01*
X0050498Y0028738D02*
X0051590Y0028738D01*
X0051590Y0028748D02*
X0050498Y0028748D01*
X0050498Y0028758D02*
X0051590Y0028758D01*
X0051590Y0028768D02*
X0050498Y0028768D01*
X0050498Y0028778D02*
X0051590Y0028778D01*
X0051590Y0028788D02*
X0050498Y0028788D01*
X0050498Y0028798D02*
X0051590Y0028798D01*
X0051590Y0028808D02*
X0050498Y0028808D01*
X0050498Y0028818D02*
X0051590Y0028818D01*
X0051590Y0028828D02*
X0050498Y0028828D01*
X0050498Y0028838D02*
X0051590Y0028838D01*
X0051590Y0028848D02*
X0050498Y0028848D01*
X0050498Y0028858D02*
X0051590Y0028858D01*
X0051590Y0028868D02*
X0050498Y0028868D01*
X0050498Y0028878D02*
X0051590Y0028878D01*
X0051590Y0028888D02*
X0050498Y0028888D01*
X0050498Y0028898D02*
X0051590Y0028898D01*
X0051590Y0028908D02*
X0050498Y0028908D01*
X0050498Y0028918D02*
X0051590Y0028918D01*
X0051590Y0028928D02*
X0050498Y0028928D01*
X0050498Y0028938D02*
X0051590Y0028938D01*
X0051590Y0028948D02*
X0050498Y0028948D01*
X0050498Y0028958D02*
X0051590Y0028958D01*
X0051590Y0028968D02*
X0050498Y0028968D01*
X0050498Y0028978D02*
X0051590Y0028978D01*
X0051590Y0028988D02*
X0050498Y0028988D01*
X0050498Y0028998D02*
X0051590Y0028998D01*
X0051590Y0029008D02*
X0050498Y0029008D01*
X0050498Y0029018D02*
X0051590Y0029018D01*
X0051590Y0029028D02*
X0050498Y0029028D01*
X0050498Y0029038D02*
X0051590Y0029038D01*
X0051590Y0029048D02*
X0050498Y0029048D01*
X0050498Y0029058D02*
X0051590Y0029058D01*
X0051590Y0029068D02*
X0050498Y0029068D01*
X0050498Y0029078D02*
X0051590Y0029078D01*
X0051590Y0029088D02*
X0050498Y0029088D01*
X0050498Y0029098D02*
X0051590Y0029098D01*
X0051590Y0029108D02*
X0050498Y0029108D01*
X0050498Y0029118D02*
X0051590Y0029118D01*
X0051590Y0029128D02*
X0050498Y0029128D01*
X0050498Y0029138D02*
X0051590Y0029138D01*
X0051590Y0029148D02*
X0050498Y0029148D01*
X0050498Y0029158D02*
X0051590Y0029158D01*
X0051590Y0029168D02*
X0050498Y0029168D01*
X0050498Y0029178D02*
X0051590Y0029178D01*
X0051590Y0029188D02*
X0050498Y0029188D01*
X0050498Y0029198D02*
X0051590Y0029198D01*
X0051590Y0029208D02*
X0050498Y0029208D01*
X0050498Y0029218D02*
X0051590Y0029218D01*
X0051590Y0029228D02*
X0050498Y0029228D01*
X0050498Y0029238D02*
X0051590Y0029238D01*
X0051590Y0029248D02*
X0050498Y0029248D01*
X0050498Y0029258D02*
X0051590Y0029258D01*
X0051590Y0029268D02*
X0050498Y0029268D01*
X0050498Y0029278D02*
X0051590Y0029278D01*
X0051590Y0029288D02*
X0050498Y0029288D01*
X0050498Y0029298D02*
X0051590Y0029298D01*
X0051590Y0029308D02*
X0050498Y0029308D01*
X0050498Y0029318D02*
X0051590Y0029318D01*
X0051590Y0029328D02*
X0050498Y0029328D01*
X0050498Y0029338D02*
X0051590Y0029338D01*
X0051590Y0029348D02*
X0050498Y0029348D01*
X0050498Y0029358D02*
X0051590Y0029358D01*
X0051590Y0029368D02*
X0050498Y0029368D01*
X0050498Y0029378D02*
X0051590Y0029378D01*
X0051590Y0029388D02*
X0050498Y0029388D01*
X0050498Y0029398D02*
X0051590Y0029398D01*
X0051590Y0029408D02*
X0050498Y0029408D01*
X0050498Y0029418D02*
X0051590Y0029418D01*
X0051590Y0029428D02*
X0050498Y0029428D01*
X0050498Y0029438D02*
X0051590Y0029438D01*
X0051590Y0029448D02*
X0050498Y0029448D01*
X0050498Y0029458D02*
X0051590Y0029458D01*
X0051590Y0029468D02*
X0050498Y0029468D01*
X0050498Y0029478D02*
X0051590Y0029478D01*
X0051590Y0029488D02*
X0050498Y0029488D01*
X0050498Y0029498D02*
X0051590Y0029498D01*
X0051590Y0029508D02*
X0050498Y0029508D01*
X0050498Y0029518D02*
X0051590Y0029518D01*
X0051590Y0029528D02*
X0050498Y0029528D01*
X0050498Y0029538D02*
X0051590Y0029538D01*
X0051590Y0029548D02*
X0050498Y0029548D01*
X0050498Y0029558D02*
X0051590Y0029558D01*
X0051590Y0029568D02*
X0050498Y0029568D01*
X0050498Y0029578D02*
X0051590Y0029578D01*
X0051590Y0029588D02*
X0050498Y0029588D01*
X0050498Y0029598D02*
X0051590Y0029598D01*
X0051590Y0029608D02*
X0050498Y0029608D01*
X0050498Y0029618D02*
X0051590Y0029618D01*
X0051590Y0029628D02*
X0050498Y0029628D01*
X0050498Y0029638D02*
X0051590Y0029638D01*
X0051590Y0029648D02*
X0050498Y0029648D01*
X0050498Y0029658D02*
X0051590Y0029658D01*
X0051590Y0029668D02*
X0050498Y0029668D01*
X0050498Y0029678D02*
X0051590Y0029678D01*
X0051590Y0029688D02*
X0050498Y0029688D01*
X0050498Y0029698D02*
X0051590Y0029698D01*
X0051590Y0029708D02*
X0050498Y0029708D01*
X0050498Y0029718D02*
X0051590Y0029718D01*
X0051590Y0029728D02*
X0050498Y0029728D01*
X0050498Y0029738D02*
X0051590Y0029738D01*
X0051590Y0029748D02*
X0050498Y0029748D01*
X0050498Y0029758D02*
X0051590Y0029758D01*
X0051590Y0029768D02*
X0050498Y0029768D01*
X0050498Y0029778D02*
X0051590Y0029778D01*
X0051590Y0029788D02*
X0050498Y0029788D01*
X0050498Y0029798D02*
X0051590Y0029798D01*
X0051590Y0029808D02*
X0050498Y0029808D01*
X0050498Y0029818D02*
X0051590Y0029818D01*
X0051590Y0029828D02*
X0050498Y0029828D01*
X0050498Y0029838D02*
X0051590Y0029838D01*
X0051590Y0029848D02*
X0050498Y0029848D01*
X0050498Y0029858D02*
X0051590Y0029858D01*
X0051590Y0029868D02*
X0050498Y0029868D01*
X0050498Y0029878D02*
X0051590Y0029878D01*
X0051590Y0029888D02*
X0050498Y0029888D01*
X0050498Y0029898D02*
X0051590Y0029898D01*
X0051590Y0029908D02*
X0050498Y0029908D01*
X0050498Y0029918D02*
X0051590Y0029918D01*
X0051590Y0029928D02*
X0050498Y0029928D01*
X0050498Y0029938D02*
X0051590Y0029938D01*
X0051590Y0029948D02*
X0050498Y0029948D01*
X0050498Y0029958D02*
X0051590Y0029958D01*
X0051590Y0029968D02*
X0050498Y0029968D01*
X0050498Y0029978D02*
X0051590Y0029978D01*
X0051590Y0029988D02*
X0050498Y0029988D01*
X0050498Y0029998D02*
X0051590Y0029998D01*
X0051590Y0030008D02*
X0050498Y0030008D01*
X0050498Y0030018D02*
X0051590Y0030018D01*
X0051590Y0030028D02*
X0050498Y0030028D01*
X0050498Y0030038D02*
X0051590Y0030038D01*
X0051590Y0030048D02*
X0050498Y0030048D01*
X0050498Y0030058D02*
X0051590Y0030058D01*
X0051590Y0030068D02*
X0050498Y0030068D01*
X0050498Y0030078D02*
X0051590Y0030078D01*
X0051590Y0030088D02*
X0050498Y0030088D01*
X0050498Y0030098D02*
X0051590Y0030098D01*
X0051590Y0030108D02*
X0050498Y0030108D01*
X0050498Y0030118D02*
X0051590Y0030118D01*
X0051590Y0030128D02*
X0050498Y0030128D01*
X0050498Y0030138D02*
X0051590Y0030138D01*
X0051590Y0030148D02*
X0050498Y0030148D01*
X0050498Y0030158D02*
X0051590Y0030158D01*
X0051590Y0030168D02*
X0050498Y0030168D01*
X0050498Y0030178D02*
X0051590Y0030178D01*
X0051590Y0030188D02*
X0050498Y0030188D01*
X0050498Y0030198D02*
X0051590Y0030198D01*
X0051590Y0030208D02*
X0050498Y0030208D01*
X0050498Y0030218D02*
X0051590Y0030218D01*
X0051590Y0030228D02*
X0050498Y0030228D01*
X0050498Y0030238D02*
X0051590Y0030238D01*
X0051590Y0030248D02*
X0050498Y0030248D01*
X0050498Y0030258D02*
X0051590Y0030258D01*
X0051590Y0030268D02*
X0050498Y0030268D01*
X0050498Y0030278D02*
X0051590Y0030278D01*
X0051590Y0030288D02*
X0050498Y0030288D01*
X0050498Y0030298D02*
X0051590Y0030298D01*
X0051590Y0030308D02*
X0050498Y0030308D01*
X0050498Y0030318D02*
X0051590Y0030318D01*
X0051590Y0030328D02*
X0050498Y0030328D01*
X0050498Y0030338D02*
X0051590Y0030338D01*
X0051590Y0030348D02*
X0050498Y0030348D01*
X0050498Y0030358D02*
X0051590Y0030358D01*
X0051590Y0030368D02*
X0050498Y0030368D01*
X0050498Y0030378D02*
X0051590Y0030378D01*
X0051590Y0030388D02*
X0050498Y0030388D01*
X0050498Y0030398D02*
X0051590Y0030398D01*
X0051590Y0030408D02*
X0050498Y0030408D01*
X0050498Y0030418D02*
X0051590Y0030418D01*
X0051590Y0030428D02*
X0050498Y0030428D01*
X0050498Y0030438D02*
X0051590Y0030438D01*
X0051590Y0030448D02*
X0050498Y0030448D01*
X0050498Y0030458D02*
X0051590Y0030458D01*
X0051590Y0030468D02*
X0050498Y0030468D01*
X0050498Y0030478D02*
X0051590Y0030478D01*
X0051590Y0030488D02*
X0050498Y0030488D01*
X0050498Y0030498D02*
X0051590Y0030498D01*
X0051590Y0030508D02*
X0050498Y0030508D01*
X0050498Y0030518D02*
X0051590Y0030518D01*
X0051590Y0030528D02*
X0050498Y0030528D01*
X0050498Y0030538D02*
X0051590Y0030538D01*
X0051590Y0030548D02*
X0050498Y0030548D01*
X0050498Y0030558D02*
X0051590Y0030558D01*
X0051590Y0030568D02*
X0050498Y0030568D01*
X0050498Y0030578D02*
X0051590Y0030578D01*
X0051590Y0030588D02*
X0050498Y0030588D01*
X0050498Y0030598D02*
X0051590Y0030598D01*
X0051590Y0030608D02*
X0050498Y0030608D01*
X0050498Y0030618D02*
X0051590Y0030618D01*
X0051590Y0030628D02*
X0050498Y0030628D01*
X0050498Y0030638D02*
X0051590Y0030638D01*
X0051590Y0030648D02*
X0050498Y0030648D01*
X0050498Y0030658D02*
X0051590Y0030658D01*
X0051590Y0030668D02*
X0050498Y0030668D01*
X0050498Y0030678D02*
X0051590Y0030678D01*
X0051590Y0030688D02*
X0050498Y0030688D01*
X0050498Y0030698D02*
X0051590Y0030698D01*
X0051590Y0030708D02*
X0050498Y0030708D01*
X0050498Y0030718D02*
X0051590Y0030718D01*
X0051590Y0030728D02*
X0050498Y0030728D01*
X0050498Y0030738D02*
X0051590Y0030738D01*
X0051590Y0030748D02*
X0050498Y0030748D01*
X0050498Y0030758D02*
X0051590Y0030758D01*
X0051590Y0030768D02*
X0050498Y0030768D01*
X0050498Y0030778D02*
X0051590Y0030778D01*
X0051590Y0030788D02*
X0050498Y0030788D01*
X0050498Y0030798D02*
X0051590Y0030798D01*
X0051590Y0030808D02*
X0050498Y0030808D01*
X0050498Y0030818D02*
X0051590Y0030818D01*
X0051590Y0030828D02*
X0050498Y0030828D01*
X0050498Y0030838D02*
X0051590Y0030838D01*
X0051590Y0030848D02*
X0050498Y0030848D01*
X0050498Y0030858D02*
X0051590Y0030858D01*
X0051590Y0030868D02*
X0050498Y0030868D01*
X0050498Y0030878D02*
X0051590Y0030878D01*
X0051590Y0030888D02*
X0050498Y0030888D01*
X0050498Y0030898D02*
X0051590Y0030898D01*
X0051590Y0030908D02*
X0050498Y0030908D01*
X0050498Y0030918D02*
X0051590Y0030918D01*
X0051590Y0030928D02*
X0050498Y0030928D01*
X0050498Y0030938D02*
X0051590Y0030938D01*
X0051590Y0030948D02*
X0050498Y0030948D01*
X0050498Y0030958D02*
X0051590Y0030958D01*
X0051590Y0030968D02*
X0050498Y0030968D01*
X0050498Y0030978D02*
X0051590Y0030978D01*
X0051590Y0030988D02*
X0050498Y0030988D01*
X0050498Y0030998D02*
X0051590Y0030998D01*
X0051590Y0031008D02*
X0050498Y0031008D01*
X0050498Y0031018D02*
X0051590Y0031018D01*
X0051590Y0031028D02*
X0050498Y0031028D01*
X0053558Y0031036D02*
X0053558Y0027798D01*
X0052466Y0027798D01*
X0052466Y0031036D01*
X0053558Y0031036D01*
X0053558Y0027808D02*
X0052466Y0027808D01*
X0052466Y0027818D02*
X0053558Y0027818D01*
X0053558Y0027828D02*
X0052466Y0027828D01*
X0052466Y0027838D02*
X0053558Y0027838D01*
X0053558Y0027848D02*
X0052466Y0027848D01*
X0052466Y0027858D02*
X0053558Y0027858D01*
X0053558Y0027868D02*
X0052466Y0027868D01*
X0052466Y0027878D02*
X0053558Y0027878D01*
X0053558Y0027888D02*
X0052466Y0027888D01*
X0052466Y0027898D02*
X0053558Y0027898D01*
X0053558Y0027908D02*
X0052466Y0027908D01*
X0052466Y0027918D02*
X0053558Y0027918D01*
X0053558Y0027928D02*
X0052466Y0027928D01*
X0052466Y0027938D02*
X0053558Y0027938D01*
X0053558Y0027948D02*
X0052466Y0027948D01*
X0052466Y0027958D02*
X0053558Y0027958D01*
X0053558Y0027968D02*
X0052466Y0027968D01*
X0052466Y0027978D02*
X0053558Y0027978D01*
X0053558Y0027988D02*
X0052466Y0027988D01*
X0052466Y0027998D02*
X0053558Y0027998D01*
X0053558Y0028008D02*
X0052466Y0028008D01*
X0052466Y0028018D02*
X0053558Y0028018D01*
X0053558Y0028028D02*
X0052466Y0028028D01*
X0052466Y0028038D02*
X0053558Y0028038D01*
X0053558Y0028048D02*
X0052466Y0028048D01*
X0052466Y0028058D02*
X0053558Y0028058D01*
X0053558Y0028068D02*
X0052466Y0028068D01*
X0052466Y0028078D02*
X0053558Y0028078D01*
X0053558Y0028088D02*
X0052466Y0028088D01*
X0052466Y0028098D02*
X0053558Y0028098D01*
X0053558Y0028108D02*
X0052466Y0028108D01*
X0052466Y0028118D02*
X0053558Y0028118D01*
X0053558Y0028128D02*
X0052466Y0028128D01*
X0052466Y0028138D02*
X0053558Y0028138D01*
X0053558Y0028148D02*
X0052466Y0028148D01*
X0052466Y0028158D02*
X0053558Y0028158D01*
X0053558Y0028168D02*
X0052466Y0028168D01*
X0052466Y0028178D02*
X0053558Y0028178D01*
X0053558Y0028188D02*
X0052466Y0028188D01*
X0052466Y0028198D02*
X0053558Y0028198D01*
X0053558Y0028208D02*
X0052466Y0028208D01*
X0052466Y0028218D02*
X0053558Y0028218D01*
X0053558Y0028228D02*
X0052466Y0028228D01*
X0052466Y0028238D02*
X0053558Y0028238D01*
X0053558Y0028248D02*
X0052466Y0028248D01*
X0052466Y0028258D02*
X0053558Y0028258D01*
X0053558Y0028268D02*
X0052466Y0028268D01*
X0052466Y0028278D02*
X0053558Y0028278D01*
X0053558Y0028288D02*
X0052466Y0028288D01*
X0052466Y0028298D02*
X0053558Y0028298D01*
X0053558Y0028308D02*
X0052466Y0028308D01*
X0052466Y0028318D02*
X0053558Y0028318D01*
X0053558Y0028328D02*
X0052466Y0028328D01*
X0052466Y0028338D02*
X0053558Y0028338D01*
X0053558Y0028348D02*
X0052466Y0028348D01*
X0052466Y0028358D02*
X0053558Y0028358D01*
X0053558Y0028368D02*
X0052466Y0028368D01*
X0052466Y0028378D02*
X0053558Y0028378D01*
X0053558Y0028388D02*
X0052466Y0028388D01*
X0052466Y0028398D02*
X0053558Y0028398D01*
X0053558Y0028408D02*
X0052466Y0028408D01*
X0052466Y0028418D02*
X0053558Y0028418D01*
X0053558Y0028428D02*
X0052466Y0028428D01*
X0052466Y0028438D02*
X0053558Y0028438D01*
X0053558Y0028448D02*
X0052466Y0028448D01*
X0052466Y0028458D02*
X0053558Y0028458D01*
X0053558Y0028468D02*
X0052466Y0028468D01*
X0052466Y0028478D02*
X0053558Y0028478D01*
X0053558Y0028488D02*
X0052466Y0028488D01*
X0052466Y0028498D02*
X0053558Y0028498D01*
X0053558Y0028508D02*
X0052466Y0028508D01*
X0052466Y0028518D02*
X0053558Y0028518D01*
X0053558Y0028528D02*
X0052466Y0028528D01*
X0052466Y0028538D02*
X0053558Y0028538D01*
X0053558Y0028548D02*
X0052466Y0028548D01*
X0052466Y0028558D02*
X0053558Y0028558D01*
X0053558Y0028568D02*
X0052466Y0028568D01*
X0052466Y0028578D02*
X0053558Y0028578D01*
X0053558Y0028588D02*
X0052466Y0028588D01*
X0052466Y0028598D02*
X0053558Y0028598D01*
X0053558Y0028608D02*
X0052466Y0028608D01*
X0052466Y0028618D02*
X0053558Y0028618D01*
X0053558Y0028628D02*
X0052466Y0028628D01*
X0052466Y0028638D02*
X0053558Y0028638D01*
X0053558Y0028648D02*
X0052466Y0028648D01*
X0052466Y0028658D02*
X0053558Y0028658D01*
X0053558Y0028668D02*
X0052466Y0028668D01*
X0052466Y0028678D02*
X0053558Y0028678D01*
X0053558Y0028688D02*
X0052466Y0028688D01*
X0052466Y0028698D02*
X0053558Y0028698D01*
X0053558Y0028708D02*
X0052466Y0028708D01*
X0052466Y0028718D02*
X0053558Y0028718D01*
X0053558Y0028728D02*
X0052466Y0028728D01*
X0052466Y0028738D02*
X0053558Y0028738D01*
X0053558Y0028748D02*
X0052466Y0028748D01*
X0052466Y0028758D02*
X0053558Y0028758D01*
X0053558Y0028768D02*
X0052466Y0028768D01*
X0052466Y0028778D02*
X0053558Y0028778D01*
X0053558Y0028788D02*
X0052466Y0028788D01*
X0052466Y0028798D02*
X0053558Y0028798D01*
X0053558Y0028808D02*
X0052466Y0028808D01*
X0052466Y0028818D02*
X0053558Y0028818D01*
X0053558Y0028828D02*
X0052466Y0028828D01*
X0052466Y0028838D02*
X0053558Y0028838D01*
X0053558Y0028848D02*
X0052466Y0028848D01*
X0052466Y0028858D02*
X0053558Y0028858D01*
X0053558Y0028868D02*
X0052466Y0028868D01*
X0052466Y0028878D02*
X0053558Y0028878D01*
X0053558Y0028888D02*
X0052466Y0028888D01*
X0052466Y0028898D02*
X0053558Y0028898D01*
X0053558Y0028908D02*
X0052466Y0028908D01*
X0052466Y0028918D02*
X0053558Y0028918D01*
X0053558Y0028928D02*
X0052466Y0028928D01*
X0052466Y0028938D02*
X0053558Y0028938D01*
X0053558Y0028948D02*
X0052466Y0028948D01*
X0052466Y0028958D02*
X0053558Y0028958D01*
X0053558Y0028968D02*
X0052466Y0028968D01*
X0052466Y0028978D02*
X0053558Y0028978D01*
X0053558Y0028988D02*
X0052466Y0028988D01*
X0052466Y0028998D02*
X0053558Y0028998D01*
X0053558Y0029008D02*
X0052466Y0029008D01*
X0052466Y0029018D02*
X0053558Y0029018D01*
X0053558Y0029028D02*
X0052466Y0029028D01*
X0052466Y0029038D02*
X0053558Y0029038D01*
X0053558Y0029048D02*
X0052466Y0029048D01*
X0052466Y0029058D02*
X0053558Y0029058D01*
X0053558Y0029068D02*
X0052466Y0029068D01*
X0052466Y0029078D02*
X0053558Y0029078D01*
X0053558Y0029088D02*
X0052466Y0029088D01*
X0052466Y0029098D02*
X0053558Y0029098D01*
X0053558Y0029108D02*
X0052466Y0029108D01*
X0052466Y0029118D02*
X0053558Y0029118D01*
X0053558Y0029128D02*
X0052466Y0029128D01*
X0052466Y0029138D02*
X0053558Y0029138D01*
X0053558Y0029148D02*
X0052466Y0029148D01*
X0052466Y0029158D02*
X0053558Y0029158D01*
X0053558Y0029168D02*
X0052466Y0029168D01*
X0052466Y0029178D02*
X0053558Y0029178D01*
X0053558Y0029188D02*
X0052466Y0029188D01*
X0052466Y0029198D02*
X0053558Y0029198D01*
X0053558Y0029208D02*
X0052466Y0029208D01*
X0052466Y0029218D02*
X0053558Y0029218D01*
X0053558Y0029228D02*
X0052466Y0029228D01*
X0052466Y0029238D02*
X0053558Y0029238D01*
X0053558Y0029248D02*
X0052466Y0029248D01*
X0052466Y0029258D02*
X0053558Y0029258D01*
X0053558Y0029268D02*
X0052466Y0029268D01*
X0052466Y0029278D02*
X0053558Y0029278D01*
X0053558Y0029288D02*
X0052466Y0029288D01*
X0052466Y0029298D02*
X0053558Y0029298D01*
X0053558Y0029308D02*
X0052466Y0029308D01*
X0052466Y0029318D02*
X0053558Y0029318D01*
X0053558Y0029328D02*
X0052466Y0029328D01*
X0052466Y0029338D02*
X0053558Y0029338D01*
X0053558Y0029348D02*
X0052466Y0029348D01*
X0052466Y0029358D02*
X0053558Y0029358D01*
X0053558Y0029368D02*
X0052466Y0029368D01*
X0052466Y0029378D02*
X0053558Y0029378D01*
X0053558Y0029388D02*
X0052466Y0029388D01*
X0052466Y0029398D02*
X0053558Y0029398D01*
X0053558Y0029408D02*
X0052466Y0029408D01*
X0052466Y0029418D02*
X0053558Y0029418D01*
X0053558Y0029428D02*
X0052466Y0029428D01*
X0052466Y0029438D02*
X0053558Y0029438D01*
X0053558Y0029448D02*
X0052466Y0029448D01*
X0052466Y0029458D02*
X0053558Y0029458D01*
X0053558Y0029468D02*
X0052466Y0029468D01*
X0052466Y0029478D02*
X0053558Y0029478D01*
X0053558Y0029488D02*
X0052466Y0029488D01*
X0052466Y0029498D02*
X0053558Y0029498D01*
X0053558Y0029508D02*
X0052466Y0029508D01*
X0052466Y0029518D02*
X0053558Y0029518D01*
X0053558Y0029528D02*
X0052466Y0029528D01*
X0052466Y0029538D02*
X0053558Y0029538D01*
X0053558Y0029548D02*
X0052466Y0029548D01*
X0052466Y0029558D02*
X0053558Y0029558D01*
X0053558Y0029568D02*
X0052466Y0029568D01*
X0052466Y0029578D02*
X0053558Y0029578D01*
X0053558Y0029588D02*
X0052466Y0029588D01*
X0052466Y0029598D02*
X0053558Y0029598D01*
X0053558Y0029608D02*
X0052466Y0029608D01*
X0052466Y0029618D02*
X0053558Y0029618D01*
X0053558Y0029628D02*
X0052466Y0029628D01*
X0052466Y0029638D02*
X0053558Y0029638D01*
X0053558Y0029648D02*
X0052466Y0029648D01*
X0052466Y0029658D02*
X0053558Y0029658D01*
X0053558Y0029668D02*
X0052466Y0029668D01*
X0052466Y0029678D02*
X0053558Y0029678D01*
X0053558Y0029688D02*
X0052466Y0029688D01*
X0052466Y0029698D02*
X0053558Y0029698D01*
X0053558Y0029708D02*
X0052466Y0029708D01*
X0052466Y0029718D02*
X0053558Y0029718D01*
X0053558Y0029728D02*
X0052466Y0029728D01*
X0052466Y0029738D02*
X0053558Y0029738D01*
X0053558Y0029748D02*
X0052466Y0029748D01*
X0052466Y0029758D02*
X0053558Y0029758D01*
X0053558Y0029768D02*
X0052466Y0029768D01*
X0052466Y0029778D02*
X0053558Y0029778D01*
X0053558Y0029788D02*
X0052466Y0029788D01*
X0052466Y0029798D02*
X0053558Y0029798D01*
X0053558Y0029808D02*
X0052466Y0029808D01*
X0052466Y0029818D02*
X0053558Y0029818D01*
X0053558Y0029828D02*
X0052466Y0029828D01*
X0052466Y0029838D02*
X0053558Y0029838D01*
X0053558Y0029848D02*
X0052466Y0029848D01*
X0052466Y0029858D02*
X0053558Y0029858D01*
X0053558Y0029868D02*
X0052466Y0029868D01*
X0052466Y0029878D02*
X0053558Y0029878D01*
X0053558Y0029888D02*
X0052466Y0029888D01*
X0052466Y0029898D02*
X0053558Y0029898D01*
X0053558Y0029908D02*
X0052466Y0029908D01*
X0052466Y0029918D02*
X0053558Y0029918D01*
X0053558Y0029928D02*
X0052466Y0029928D01*
X0052466Y0029938D02*
X0053558Y0029938D01*
X0053558Y0029948D02*
X0052466Y0029948D01*
X0052466Y0029958D02*
X0053558Y0029958D01*
X0053558Y0029968D02*
X0052466Y0029968D01*
X0052466Y0029978D02*
X0053558Y0029978D01*
X0053558Y0029988D02*
X0052466Y0029988D01*
X0052466Y0029998D02*
X0053558Y0029998D01*
X0053558Y0030008D02*
X0052466Y0030008D01*
X0052466Y0030018D02*
X0053558Y0030018D01*
X0053558Y0030028D02*
X0052466Y0030028D01*
X0052466Y0030038D02*
X0053558Y0030038D01*
X0053558Y0030048D02*
X0052466Y0030048D01*
X0052466Y0030058D02*
X0053558Y0030058D01*
X0053558Y0030068D02*
X0052466Y0030068D01*
X0052466Y0030078D02*
X0053558Y0030078D01*
X0053558Y0030088D02*
X0052466Y0030088D01*
X0052466Y0030098D02*
X0053558Y0030098D01*
X0053558Y0030108D02*
X0052466Y0030108D01*
X0052466Y0030118D02*
X0053558Y0030118D01*
X0053558Y0030128D02*
X0052466Y0030128D01*
X0052466Y0030138D02*
X0053558Y0030138D01*
X0053558Y0030148D02*
X0052466Y0030148D01*
X0052466Y0030158D02*
X0053558Y0030158D01*
X0053558Y0030168D02*
X0052466Y0030168D01*
X0052466Y0030178D02*
X0053558Y0030178D01*
X0053558Y0030188D02*
X0052466Y0030188D01*
X0052466Y0030198D02*
X0053558Y0030198D01*
X0053558Y0030208D02*
X0052466Y0030208D01*
X0052466Y0030218D02*
X0053558Y0030218D01*
X0053558Y0030228D02*
X0052466Y0030228D01*
X0052466Y0030238D02*
X0053558Y0030238D01*
X0053558Y0030248D02*
X0052466Y0030248D01*
X0052466Y0030258D02*
X0053558Y0030258D01*
X0053558Y0030268D02*
X0052466Y0030268D01*
X0052466Y0030278D02*
X0053558Y0030278D01*
X0053558Y0030288D02*
X0052466Y0030288D01*
X0052466Y0030298D02*
X0053558Y0030298D01*
X0053558Y0030308D02*
X0052466Y0030308D01*
X0052466Y0030318D02*
X0053558Y0030318D01*
X0053558Y0030328D02*
X0052466Y0030328D01*
X0052466Y0030338D02*
X0053558Y0030338D01*
X0053558Y0030348D02*
X0052466Y0030348D01*
X0052466Y0030358D02*
X0053558Y0030358D01*
X0053558Y0030368D02*
X0052466Y0030368D01*
X0052466Y0030378D02*
X0053558Y0030378D01*
X0053558Y0030388D02*
X0052466Y0030388D01*
X0052466Y0030398D02*
X0053558Y0030398D01*
X0053558Y0030408D02*
X0052466Y0030408D01*
X0052466Y0030418D02*
X0053558Y0030418D01*
X0053558Y0030428D02*
X0052466Y0030428D01*
X0052466Y0030438D02*
X0053558Y0030438D01*
X0053558Y0030448D02*
X0052466Y0030448D01*
X0052466Y0030458D02*
X0053558Y0030458D01*
X0053558Y0030468D02*
X0052466Y0030468D01*
X0052466Y0030478D02*
X0053558Y0030478D01*
X0053558Y0030488D02*
X0052466Y0030488D01*
X0052466Y0030498D02*
X0053558Y0030498D01*
X0053558Y0030508D02*
X0052466Y0030508D01*
X0052466Y0030518D02*
X0053558Y0030518D01*
X0053558Y0030528D02*
X0052466Y0030528D01*
X0052466Y0030538D02*
X0053558Y0030538D01*
X0053558Y0030548D02*
X0052466Y0030548D01*
X0052466Y0030558D02*
X0053558Y0030558D01*
X0053558Y0030568D02*
X0052466Y0030568D01*
X0052466Y0030578D02*
X0053558Y0030578D01*
X0053558Y0030588D02*
X0052466Y0030588D01*
X0052466Y0030598D02*
X0053558Y0030598D01*
X0053558Y0030608D02*
X0052466Y0030608D01*
X0052466Y0030618D02*
X0053558Y0030618D01*
X0053558Y0030628D02*
X0052466Y0030628D01*
X0052466Y0030638D02*
X0053558Y0030638D01*
X0053558Y0030648D02*
X0052466Y0030648D01*
X0052466Y0030658D02*
X0053558Y0030658D01*
X0053558Y0030668D02*
X0052466Y0030668D01*
X0052466Y0030678D02*
X0053558Y0030678D01*
X0053558Y0030688D02*
X0052466Y0030688D01*
X0052466Y0030698D02*
X0053558Y0030698D01*
X0053558Y0030708D02*
X0052466Y0030708D01*
X0052466Y0030718D02*
X0053558Y0030718D01*
X0053558Y0030728D02*
X0052466Y0030728D01*
X0052466Y0030738D02*
X0053558Y0030738D01*
X0053558Y0030748D02*
X0052466Y0030748D01*
X0052466Y0030758D02*
X0053558Y0030758D01*
X0053558Y0030768D02*
X0052466Y0030768D01*
X0052466Y0030778D02*
X0053558Y0030778D01*
X0053558Y0030788D02*
X0052466Y0030788D01*
X0052466Y0030798D02*
X0053558Y0030798D01*
X0053558Y0030808D02*
X0052466Y0030808D01*
X0052466Y0030818D02*
X0053558Y0030818D01*
X0053558Y0030828D02*
X0052466Y0030828D01*
X0052466Y0030838D02*
X0053558Y0030838D01*
X0053558Y0030848D02*
X0052466Y0030848D01*
X0052466Y0030858D02*
X0053558Y0030858D01*
X0053558Y0030868D02*
X0052466Y0030868D01*
X0052466Y0030878D02*
X0053558Y0030878D01*
X0053558Y0030888D02*
X0052466Y0030888D01*
X0052466Y0030898D02*
X0053558Y0030898D01*
X0053558Y0030908D02*
X0052466Y0030908D01*
X0052466Y0030918D02*
X0053558Y0030918D01*
X0053558Y0030928D02*
X0052466Y0030928D01*
X0052466Y0030938D02*
X0053558Y0030938D01*
X0053558Y0030948D02*
X0052466Y0030948D01*
X0052466Y0030958D02*
X0053558Y0030958D01*
X0053558Y0030968D02*
X0052466Y0030968D01*
X0052466Y0030978D02*
X0053558Y0030978D01*
X0053558Y0030988D02*
X0052466Y0030988D01*
X0052466Y0030998D02*
X0053558Y0030998D01*
X0053558Y0031008D02*
X0052466Y0031008D01*
X0052466Y0031018D02*
X0053558Y0031018D01*
X0053558Y0031028D02*
X0052466Y0031028D01*
X0053558Y0039314D02*
X0053558Y0042552D01*
X0053558Y0039314D02*
X0052466Y0039314D01*
X0052466Y0042552D01*
X0053558Y0042552D01*
X0053558Y0039324D02*
X0052466Y0039324D01*
X0052466Y0039334D02*
X0053558Y0039334D01*
X0053558Y0039344D02*
X0052466Y0039344D01*
X0052466Y0039354D02*
X0053558Y0039354D01*
X0053558Y0039364D02*
X0052466Y0039364D01*
X0052466Y0039374D02*
X0053558Y0039374D01*
X0053558Y0039384D02*
X0052466Y0039384D01*
X0052466Y0039394D02*
X0053558Y0039394D01*
X0053558Y0039404D02*
X0052466Y0039404D01*
X0052466Y0039414D02*
X0053558Y0039414D01*
X0053558Y0039424D02*
X0052466Y0039424D01*
X0052466Y0039434D02*
X0053558Y0039434D01*
X0053558Y0039444D02*
X0052466Y0039444D01*
X0052466Y0039454D02*
X0053558Y0039454D01*
X0053558Y0039464D02*
X0052466Y0039464D01*
X0052466Y0039474D02*
X0053558Y0039474D01*
X0053558Y0039484D02*
X0052466Y0039484D01*
X0052466Y0039494D02*
X0053558Y0039494D01*
X0053558Y0039504D02*
X0052466Y0039504D01*
X0052466Y0039514D02*
X0053558Y0039514D01*
X0053558Y0039524D02*
X0052466Y0039524D01*
X0052466Y0039534D02*
X0053558Y0039534D01*
X0053558Y0039544D02*
X0052466Y0039544D01*
X0052466Y0039554D02*
X0053558Y0039554D01*
X0053558Y0039564D02*
X0052466Y0039564D01*
X0052466Y0039574D02*
X0053558Y0039574D01*
X0053558Y0039584D02*
X0052466Y0039584D01*
X0052466Y0039594D02*
X0053558Y0039594D01*
X0053558Y0039604D02*
X0052466Y0039604D01*
X0052466Y0039614D02*
X0053558Y0039614D01*
X0053558Y0039624D02*
X0052466Y0039624D01*
X0052466Y0039634D02*
X0053558Y0039634D01*
X0053558Y0039644D02*
X0052466Y0039644D01*
X0052466Y0039654D02*
X0053558Y0039654D01*
X0053558Y0039664D02*
X0052466Y0039664D01*
X0052466Y0039674D02*
X0053558Y0039674D01*
X0053558Y0039684D02*
X0052466Y0039684D01*
X0052466Y0039694D02*
X0053558Y0039694D01*
X0053558Y0039704D02*
X0052466Y0039704D01*
X0052466Y0039714D02*
X0053558Y0039714D01*
X0053558Y0039724D02*
X0052466Y0039724D01*
X0052466Y0039734D02*
X0053558Y0039734D01*
X0053558Y0039744D02*
X0052466Y0039744D01*
X0052466Y0039754D02*
X0053558Y0039754D01*
X0053558Y0039764D02*
X0052466Y0039764D01*
X0052466Y0039774D02*
X0053558Y0039774D01*
X0053558Y0039784D02*
X0052466Y0039784D01*
X0052466Y0039794D02*
X0053558Y0039794D01*
X0053558Y0039804D02*
X0052466Y0039804D01*
X0052466Y0039814D02*
X0053558Y0039814D01*
X0053558Y0039824D02*
X0052466Y0039824D01*
X0052466Y0039834D02*
X0053558Y0039834D01*
X0053558Y0039844D02*
X0052466Y0039844D01*
X0052466Y0039854D02*
X0053558Y0039854D01*
X0053558Y0039864D02*
X0052466Y0039864D01*
X0052466Y0039874D02*
X0053558Y0039874D01*
X0053558Y0039884D02*
X0052466Y0039884D01*
X0052466Y0039894D02*
X0053558Y0039894D01*
X0053558Y0039904D02*
X0052466Y0039904D01*
X0052466Y0039914D02*
X0053558Y0039914D01*
X0053558Y0039924D02*
X0052466Y0039924D01*
X0052466Y0039934D02*
X0053558Y0039934D01*
X0053558Y0039944D02*
X0052466Y0039944D01*
X0052466Y0039954D02*
X0053558Y0039954D01*
X0053558Y0039964D02*
X0052466Y0039964D01*
X0052466Y0039974D02*
X0053558Y0039974D01*
X0053558Y0039984D02*
X0052466Y0039984D01*
X0052466Y0039994D02*
X0053558Y0039994D01*
X0053558Y0040004D02*
X0052466Y0040004D01*
X0052466Y0040014D02*
X0053558Y0040014D01*
X0053558Y0040024D02*
X0052466Y0040024D01*
X0052466Y0040034D02*
X0053558Y0040034D01*
X0053558Y0040044D02*
X0052466Y0040044D01*
X0052466Y0040054D02*
X0053558Y0040054D01*
X0053558Y0040064D02*
X0052466Y0040064D01*
X0052466Y0040074D02*
X0053558Y0040074D01*
X0053558Y0040084D02*
X0052466Y0040084D01*
X0052466Y0040094D02*
X0053558Y0040094D01*
X0053558Y0040104D02*
X0052466Y0040104D01*
X0052466Y0040114D02*
X0053558Y0040114D01*
X0053558Y0040124D02*
X0052466Y0040124D01*
X0052466Y0040134D02*
X0053558Y0040134D01*
X0053558Y0040144D02*
X0052466Y0040144D01*
X0052466Y0040154D02*
X0053558Y0040154D01*
X0053558Y0040164D02*
X0052466Y0040164D01*
X0052466Y0040174D02*
X0053558Y0040174D01*
X0053558Y0040184D02*
X0052466Y0040184D01*
X0052466Y0040194D02*
X0053558Y0040194D01*
X0053558Y0040204D02*
X0052466Y0040204D01*
X0052466Y0040214D02*
X0053558Y0040214D01*
X0053558Y0040224D02*
X0052466Y0040224D01*
X0052466Y0040234D02*
X0053558Y0040234D01*
X0053558Y0040244D02*
X0052466Y0040244D01*
X0052466Y0040254D02*
X0053558Y0040254D01*
X0053558Y0040264D02*
X0052466Y0040264D01*
X0052466Y0040274D02*
X0053558Y0040274D01*
X0053558Y0040284D02*
X0052466Y0040284D01*
X0052466Y0040294D02*
X0053558Y0040294D01*
X0053558Y0040304D02*
X0052466Y0040304D01*
X0052466Y0040314D02*
X0053558Y0040314D01*
X0053558Y0040324D02*
X0052466Y0040324D01*
X0052466Y0040334D02*
X0053558Y0040334D01*
X0053558Y0040344D02*
X0052466Y0040344D01*
X0052466Y0040354D02*
X0053558Y0040354D01*
X0053558Y0040364D02*
X0052466Y0040364D01*
X0052466Y0040374D02*
X0053558Y0040374D01*
X0053558Y0040384D02*
X0052466Y0040384D01*
X0052466Y0040394D02*
X0053558Y0040394D01*
X0053558Y0040404D02*
X0052466Y0040404D01*
X0052466Y0040414D02*
X0053558Y0040414D01*
X0053558Y0040424D02*
X0052466Y0040424D01*
X0052466Y0040434D02*
X0053558Y0040434D01*
X0053558Y0040444D02*
X0052466Y0040444D01*
X0052466Y0040454D02*
X0053558Y0040454D01*
X0053558Y0040464D02*
X0052466Y0040464D01*
X0052466Y0040474D02*
X0053558Y0040474D01*
X0053558Y0040484D02*
X0052466Y0040484D01*
X0052466Y0040494D02*
X0053558Y0040494D01*
X0053558Y0040504D02*
X0052466Y0040504D01*
X0052466Y0040514D02*
X0053558Y0040514D01*
X0053558Y0040524D02*
X0052466Y0040524D01*
X0052466Y0040534D02*
X0053558Y0040534D01*
X0053558Y0040544D02*
X0052466Y0040544D01*
X0052466Y0040554D02*
X0053558Y0040554D01*
X0053558Y0040564D02*
X0052466Y0040564D01*
X0052466Y0040574D02*
X0053558Y0040574D01*
X0053558Y0040584D02*
X0052466Y0040584D01*
X0052466Y0040594D02*
X0053558Y0040594D01*
X0053558Y0040604D02*
X0052466Y0040604D01*
X0052466Y0040614D02*
X0053558Y0040614D01*
X0053558Y0040624D02*
X0052466Y0040624D01*
X0052466Y0040634D02*
X0053558Y0040634D01*
X0053558Y0040644D02*
X0052466Y0040644D01*
X0052466Y0040654D02*
X0053558Y0040654D01*
X0053558Y0040664D02*
X0052466Y0040664D01*
X0052466Y0040674D02*
X0053558Y0040674D01*
X0053558Y0040684D02*
X0052466Y0040684D01*
X0052466Y0040694D02*
X0053558Y0040694D01*
X0053558Y0040704D02*
X0052466Y0040704D01*
X0052466Y0040714D02*
X0053558Y0040714D01*
X0053558Y0040724D02*
X0052466Y0040724D01*
X0052466Y0040734D02*
X0053558Y0040734D01*
X0053558Y0040744D02*
X0052466Y0040744D01*
X0052466Y0040754D02*
X0053558Y0040754D01*
X0053558Y0040764D02*
X0052466Y0040764D01*
X0052466Y0040774D02*
X0053558Y0040774D01*
X0053558Y0040784D02*
X0052466Y0040784D01*
X0052466Y0040794D02*
X0053558Y0040794D01*
X0053558Y0040804D02*
X0052466Y0040804D01*
X0052466Y0040814D02*
X0053558Y0040814D01*
X0053558Y0040824D02*
X0052466Y0040824D01*
X0052466Y0040834D02*
X0053558Y0040834D01*
X0053558Y0040844D02*
X0052466Y0040844D01*
X0052466Y0040854D02*
X0053558Y0040854D01*
X0053558Y0040864D02*
X0052466Y0040864D01*
X0052466Y0040874D02*
X0053558Y0040874D01*
X0053558Y0040884D02*
X0052466Y0040884D01*
X0052466Y0040894D02*
X0053558Y0040894D01*
X0053558Y0040904D02*
X0052466Y0040904D01*
X0052466Y0040914D02*
X0053558Y0040914D01*
X0053558Y0040924D02*
X0052466Y0040924D01*
X0052466Y0040934D02*
X0053558Y0040934D01*
X0053558Y0040944D02*
X0052466Y0040944D01*
X0052466Y0040954D02*
X0053558Y0040954D01*
X0053558Y0040964D02*
X0052466Y0040964D01*
X0052466Y0040974D02*
X0053558Y0040974D01*
X0053558Y0040984D02*
X0052466Y0040984D01*
X0052466Y0040994D02*
X0053558Y0040994D01*
X0053558Y0041004D02*
X0052466Y0041004D01*
X0052466Y0041014D02*
X0053558Y0041014D01*
X0053558Y0041024D02*
X0052466Y0041024D01*
X0052466Y0041034D02*
X0053558Y0041034D01*
X0053558Y0041044D02*
X0052466Y0041044D01*
X0052466Y0041054D02*
X0053558Y0041054D01*
X0053558Y0041064D02*
X0052466Y0041064D01*
X0052466Y0041074D02*
X0053558Y0041074D01*
X0053558Y0041084D02*
X0052466Y0041084D01*
X0052466Y0041094D02*
X0053558Y0041094D01*
X0053558Y0041104D02*
X0052466Y0041104D01*
X0052466Y0041114D02*
X0053558Y0041114D01*
X0053558Y0041124D02*
X0052466Y0041124D01*
X0052466Y0041134D02*
X0053558Y0041134D01*
X0053558Y0041144D02*
X0052466Y0041144D01*
X0052466Y0041154D02*
X0053558Y0041154D01*
X0053558Y0041164D02*
X0052466Y0041164D01*
X0052466Y0041174D02*
X0053558Y0041174D01*
X0053558Y0041184D02*
X0052466Y0041184D01*
X0052466Y0041194D02*
X0053558Y0041194D01*
X0053558Y0041204D02*
X0052466Y0041204D01*
X0052466Y0041214D02*
X0053558Y0041214D01*
X0053558Y0041224D02*
X0052466Y0041224D01*
X0052466Y0041234D02*
X0053558Y0041234D01*
X0053558Y0041244D02*
X0052466Y0041244D01*
X0052466Y0041254D02*
X0053558Y0041254D01*
X0053558Y0041264D02*
X0052466Y0041264D01*
X0052466Y0041274D02*
X0053558Y0041274D01*
X0053558Y0041284D02*
X0052466Y0041284D01*
X0052466Y0041294D02*
X0053558Y0041294D01*
X0053558Y0041304D02*
X0052466Y0041304D01*
X0052466Y0041314D02*
X0053558Y0041314D01*
X0053558Y0041324D02*
X0052466Y0041324D01*
X0052466Y0041334D02*
X0053558Y0041334D01*
X0053558Y0041344D02*
X0052466Y0041344D01*
X0052466Y0041354D02*
X0053558Y0041354D01*
X0053558Y0041364D02*
X0052466Y0041364D01*
X0052466Y0041374D02*
X0053558Y0041374D01*
X0053558Y0041384D02*
X0052466Y0041384D01*
X0052466Y0041394D02*
X0053558Y0041394D01*
X0053558Y0041404D02*
X0052466Y0041404D01*
X0052466Y0041414D02*
X0053558Y0041414D01*
X0053558Y0041424D02*
X0052466Y0041424D01*
X0052466Y0041434D02*
X0053558Y0041434D01*
X0053558Y0041444D02*
X0052466Y0041444D01*
X0052466Y0041454D02*
X0053558Y0041454D01*
X0053558Y0041464D02*
X0052466Y0041464D01*
X0052466Y0041474D02*
X0053558Y0041474D01*
X0053558Y0041484D02*
X0052466Y0041484D01*
X0052466Y0041494D02*
X0053558Y0041494D01*
X0053558Y0041504D02*
X0052466Y0041504D01*
X0052466Y0041514D02*
X0053558Y0041514D01*
X0053558Y0041524D02*
X0052466Y0041524D01*
X0052466Y0041534D02*
X0053558Y0041534D01*
X0053558Y0041544D02*
X0052466Y0041544D01*
X0052466Y0041554D02*
X0053558Y0041554D01*
X0053558Y0041564D02*
X0052466Y0041564D01*
X0052466Y0041574D02*
X0053558Y0041574D01*
X0053558Y0041584D02*
X0052466Y0041584D01*
X0052466Y0041594D02*
X0053558Y0041594D01*
X0053558Y0041604D02*
X0052466Y0041604D01*
X0052466Y0041614D02*
X0053558Y0041614D01*
X0053558Y0041624D02*
X0052466Y0041624D01*
X0052466Y0041634D02*
X0053558Y0041634D01*
X0053558Y0041644D02*
X0052466Y0041644D01*
X0052466Y0041654D02*
X0053558Y0041654D01*
X0053558Y0041664D02*
X0052466Y0041664D01*
X0052466Y0041674D02*
X0053558Y0041674D01*
X0053558Y0041684D02*
X0052466Y0041684D01*
X0052466Y0041694D02*
X0053558Y0041694D01*
X0053558Y0041704D02*
X0052466Y0041704D01*
X0052466Y0041714D02*
X0053558Y0041714D01*
X0053558Y0041724D02*
X0052466Y0041724D01*
X0052466Y0041734D02*
X0053558Y0041734D01*
X0053558Y0041744D02*
X0052466Y0041744D01*
X0052466Y0041754D02*
X0053558Y0041754D01*
X0053558Y0041764D02*
X0052466Y0041764D01*
X0052466Y0041774D02*
X0053558Y0041774D01*
X0053558Y0041784D02*
X0052466Y0041784D01*
X0052466Y0041794D02*
X0053558Y0041794D01*
X0053558Y0041804D02*
X0052466Y0041804D01*
X0052466Y0041814D02*
X0053558Y0041814D01*
X0053558Y0041824D02*
X0052466Y0041824D01*
X0052466Y0041834D02*
X0053558Y0041834D01*
X0053558Y0041844D02*
X0052466Y0041844D01*
X0052466Y0041854D02*
X0053558Y0041854D01*
X0053558Y0041864D02*
X0052466Y0041864D01*
X0052466Y0041874D02*
X0053558Y0041874D01*
X0053558Y0041884D02*
X0052466Y0041884D01*
X0052466Y0041894D02*
X0053558Y0041894D01*
X0053558Y0041904D02*
X0052466Y0041904D01*
X0052466Y0041914D02*
X0053558Y0041914D01*
X0053558Y0041924D02*
X0052466Y0041924D01*
X0052466Y0041934D02*
X0053558Y0041934D01*
X0053558Y0041944D02*
X0052466Y0041944D01*
X0052466Y0041954D02*
X0053558Y0041954D01*
X0053558Y0041964D02*
X0052466Y0041964D01*
X0052466Y0041974D02*
X0053558Y0041974D01*
X0053558Y0041984D02*
X0052466Y0041984D01*
X0052466Y0041994D02*
X0053558Y0041994D01*
X0053558Y0042004D02*
X0052466Y0042004D01*
X0052466Y0042014D02*
X0053558Y0042014D01*
X0053558Y0042024D02*
X0052466Y0042024D01*
X0052466Y0042034D02*
X0053558Y0042034D01*
X0053558Y0042044D02*
X0052466Y0042044D01*
X0052466Y0042054D02*
X0053558Y0042054D01*
X0053558Y0042064D02*
X0052466Y0042064D01*
X0052466Y0042074D02*
X0053558Y0042074D01*
X0053558Y0042084D02*
X0052466Y0042084D01*
X0052466Y0042094D02*
X0053558Y0042094D01*
X0053558Y0042104D02*
X0052466Y0042104D01*
X0052466Y0042114D02*
X0053558Y0042114D01*
X0053558Y0042124D02*
X0052466Y0042124D01*
X0052466Y0042134D02*
X0053558Y0042134D01*
X0053558Y0042144D02*
X0052466Y0042144D01*
X0052466Y0042154D02*
X0053558Y0042154D01*
X0053558Y0042164D02*
X0052466Y0042164D01*
X0052466Y0042174D02*
X0053558Y0042174D01*
X0053558Y0042184D02*
X0052466Y0042184D01*
X0052466Y0042194D02*
X0053558Y0042194D01*
X0053558Y0042204D02*
X0052466Y0042204D01*
X0052466Y0042214D02*
X0053558Y0042214D01*
X0053558Y0042224D02*
X0052466Y0042224D01*
X0052466Y0042234D02*
X0053558Y0042234D01*
X0053558Y0042244D02*
X0052466Y0042244D01*
X0052466Y0042254D02*
X0053558Y0042254D01*
X0053558Y0042264D02*
X0052466Y0042264D01*
X0052466Y0042274D02*
X0053558Y0042274D01*
X0053558Y0042284D02*
X0052466Y0042284D01*
X0052466Y0042294D02*
X0053558Y0042294D01*
X0053558Y0042304D02*
X0052466Y0042304D01*
X0052466Y0042314D02*
X0053558Y0042314D01*
X0053558Y0042324D02*
X0052466Y0042324D01*
X0052466Y0042334D02*
X0053558Y0042334D01*
X0053558Y0042344D02*
X0052466Y0042344D01*
X0052466Y0042354D02*
X0053558Y0042354D01*
X0053558Y0042364D02*
X0052466Y0042364D01*
X0052466Y0042374D02*
X0053558Y0042374D01*
X0053558Y0042384D02*
X0052466Y0042384D01*
X0052466Y0042394D02*
X0053558Y0042394D01*
X0053558Y0042404D02*
X0052466Y0042404D01*
X0052466Y0042414D02*
X0053558Y0042414D01*
X0053558Y0042424D02*
X0052466Y0042424D01*
X0052466Y0042434D02*
X0053558Y0042434D01*
X0053558Y0042444D02*
X0052466Y0042444D01*
X0052466Y0042454D02*
X0053558Y0042454D01*
X0053558Y0042464D02*
X0052466Y0042464D01*
X0052466Y0042474D02*
X0053558Y0042474D01*
X0053558Y0042484D02*
X0052466Y0042484D01*
X0052466Y0042494D02*
X0053558Y0042494D01*
X0053558Y0042504D02*
X0052466Y0042504D01*
X0052466Y0042514D02*
X0053558Y0042514D01*
X0053558Y0042524D02*
X0052466Y0042524D01*
X0052466Y0042534D02*
X0053558Y0042534D01*
X0053558Y0042544D02*
X0052466Y0042544D01*
X0051590Y0042552D02*
X0051590Y0039314D01*
X0050498Y0039314D01*
X0050498Y0042552D01*
X0051590Y0042552D01*
X0051590Y0039324D02*
X0050498Y0039324D01*
X0050498Y0039334D02*
X0051590Y0039334D01*
X0051590Y0039344D02*
X0050498Y0039344D01*
X0050498Y0039354D02*
X0051590Y0039354D01*
X0051590Y0039364D02*
X0050498Y0039364D01*
X0050498Y0039374D02*
X0051590Y0039374D01*
X0051590Y0039384D02*
X0050498Y0039384D01*
X0050498Y0039394D02*
X0051590Y0039394D01*
X0051590Y0039404D02*
X0050498Y0039404D01*
X0050498Y0039414D02*
X0051590Y0039414D01*
X0051590Y0039424D02*
X0050498Y0039424D01*
X0050498Y0039434D02*
X0051590Y0039434D01*
X0051590Y0039444D02*
X0050498Y0039444D01*
X0050498Y0039454D02*
X0051590Y0039454D01*
X0051590Y0039464D02*
X0050498Y0039464D01*
X0050498Y0039474D02*
X0051590Y0039474D01*
X0051590Y0039484D02*
X0050498Y0039484D01*
X0050498Y0039494D02*
X0051590Y0039494D01*
X0051590Y0039504D02*
X0050498Y0039504D01*
X0050498Y0039514D02*
X0051590Y0039514D01*
X0051590Y0039524D02*
X0050498Y0039524D01*
X0050498Y0039534D02*
X0051590Y0039534D01*
X0051590Y0039544D02*
X0050498Y0039544D01*
X0050498Y0039554D02*
X0051590Y0039554D01*
X0051590Y0039564D02*
X0050498Y0039564D01*
X0050498Y0039574D02*
X0051590Y0039574D01*
X0051590Y0039584D02*
X0050498Y0039584D01*
X0050498Y0039594D02*
X0051590Y0039594D01*
X0051590Y0039604D02*
X0050498Y0039604D01*
X0050498Y0039614D02*
X0051590Y0039614D01*
X0051590Y0039624D02*
X0050498Y0039624D01*
X0050498Y0039634D02*
X0051590Y0039634D01*
X0051590Y0039644D02*
X0050498Y0039644D01*
X0050498Y0039654D02*
X0051590Y0039654D01*
X0051590Y0039664D02*
X0050498Y0039664D01*
X0050498Y0039674D02*
X0051590Y0039674D01*
X0051590Y0039684D02*
X0050498Y0039684D01*
X0050498Y0039694D02*
X0051590Y0039694D01*
X0051590Y0039704D02*
X0050498Y0039704D01*
X0050498Y0039714D02*
X0051590Y0039714D01*
X0051590Y0039724D02*
X0050498Y0039724D01*
X0050498Y0039734D02*
X0051590Y0039734D01*
X0051590Y0039744D02*
X0050498Y0039744D01*
X0050498Y0039754D02*
X0051590Y0039754D01*
X0051590Y0039764D02*
X0050498Y0039764D01*
X0050498Y0039774D02*
X0051590Y0039774D01*
X0051590Y0039784D02*
X0050498Y0039784D01*
X0050498Y0039794D02*
X0051590Y0039794D01*
X0051590Y0039804D02*
X0050498Y0039804D01*
X0050498Y0039814D02*
X0051590Y0039814D01*
X0051590Y0039824D02*
X0050498Y0039824D01*
X0050498Y0039834D02*
X0051590Y0039834D01*
X0051590Y0039844D02*
X0050498Y0039844D01*
X0050498Y0039854D02*
X0051590Y0039854D01*
X0051590Y0039864D02*
X0050498Y0039864D01*
X0050498Y0039874D02*
X0051590Y0039874D01*
X0051590Y0039884D02*
X0050498Y0039884D01*
X0050498Y0039894D02*
X0051590Y0039894D01*
X0051590Y0039904D02*
X0050498Y0039904D01*
X0050498Y0039914D02*
X0051590Y0039914D01*
X0051590Y0039924D02*
X0050498Y0039924D01*
X0050498Y0039934D02*
X0051590Y0039934D01*
X0051590Y0039944D02*
X0050498Y0039944D01*
X0050498Y0039954D02*
X0051590Y0039954D01*
X0051590Y0039964D02*
X0050498Y0039964D01*
X0050498Y0039974D02*
X0051590Y0039974D01*
X0051590Y0039984D02*
X0050498Y0039984D01*
X0050498Y0039994D02*
X0051590Y0039994D01*
X0051590Y0040004D02*
X0050498Y0040004D01*
X0050498Y0040014D02*
X0051590Y0040014D01*
X0051590Y0040024D02*
X0050498Y0040024D01*
X0050498Y0040034D02*
X0051590Y0040034D01*
X0051590Y0040044D02*
X0050498Y0040044D01*
X0050498Y0040054D02*
X0051590Y0040054D01*
X0051590Y0040064D02*
X0050498Y0040064D01*
X0050498Y0040074D02*
X0051590Y0040074D01*
X0051590Y0040084D02*
X0050498Y0040084D01*
X0050498Y0040094D02*
X0051590Y0040094D01*
X0051590Y0040104D02*
X0050498Y0040104D01*
X0050498Y0040114D02*
X0051590Y0040114D01*
X0051590Y0040124D02*
X0050498Y0040124D01*
X0050498Y0040134D02*
X0051590Y0040134D01*
X0051590Y0040144D02*
X0050498Y0040144D01*
X0050498Y0040154D02*
X0051590Y0040154D01*
X0051590Y0040164D02*
X0050498Y0040164D01*
X0050498Y0040174D02*
X0051590Y0040174D01*
X0051590Y0040184D02*
X0050498Y0040184D01*
X0050498Y0040194D02*
X0051590Y0040194D01*
X0051590Y0040204D02*
X0050498Y0040204D01*
X0050498Y0040214D02*
X0051590Y0040214D01*
X0051590Y0040224D02*
X0050498Y0040224D01*
X0050498Y0040234D02*
X0051590Y0040234D01*
X0051590Y0040244D02*
X0050498Y0040244D01*
X0050498Y0040254D02*
X0051590Y0040254D01*
X0051590Y0040264D02*
X0050498Y0040264D01*
X0050498Y0040274D02*
X0051590Y0040274D01*
X0051590Y0040284D02*
X0050498Y0040284D01*
X0050498Y0040294D02*
X0051590Y0040294D01*
X0051590Y0040304D02*
X0050498Y0040304D01*
X0050498Y0040314D02*
X0051590Y0040314D01*
X0051590Y0040324D02*
X0050498Y0040324D01*
X0050498Y0040334D02*
X0051590Y0040334D01*
X0051590Y0040344D02*
X0050498Y0040344D01*
X0050498Y0040354D02*
X0051590Y0040354D01*
X0051590Y0040364D02*
X0050498Y0040364D01*
X0050498Y0040374D02*
X0051590Y0040374D01*
X0051590Y0040384D02*
X0050498Y0040384D01*
X0050498Y0040394D02*
X0051590Y0040394D01*
X0051590Y0040404D02*
X0050498Y0040404D01*
X0050498Y0040414D02*
X0051590Y0040414D01*
X0051590Y0040424D02*
X0050498Y0040424D01*
X0050498Y0040434D02*
X0051590Y0040434D01*
X0051590Y0040444D02*
X0050498Y0040444D01*
X0050498Y0040454D02*
X0051590Y0040454D01*
X0051590Y0040464D02*
X0050498Y0040464D01*
X0050498Y0040474D02*
X0051590Y0040474D01*
X0051590Y0040484D02*
X0050498Y0040484D01*
X0050498Y0040494D02*
X0051590Y0040494D01*
X0051590Y0040504D02*
X0050498Y0040504D01*
X0050498Y0040514D02*
X0051590Y0040514D01*
X0051590Y0040524D02*
X0050498Y0040524D01*
X0050498Y0040534D02*
X0051590Y0040534D01*
X0051590Y0040544D02*
X0050498Y0040544D01*
X0050498Y0040554D02*
X0051590Y0040554D01*
X0051590Y0040564D02*
X0050498Y0040564D01*
X0050498Y0040574D02*
X0051590Y0040574D01*
X0051590Y0040584D02*
X0050498Y0040584D01*
X0050498Y0040594D02*
X0051590Y0040594D01*
X0051590Y0040604D02*
X0050498Y0040604D01*
X0050498Y0040614D02*
X0051590Y0040614D01*
X0051590Y0040624D02*
X0050498Y0040624D01*
X0050498Y0040634D02*
X0051590Y0040634D01*
X0051590Y0040644D02*
X0050498Y0040644D01*
X0050498Y0040654D02*
X0051590Y0040654D01*
X0051590Y0040664D02*
X0050498Y0040664D01*
X0050498Y0040674D02*
X0051590Y0040674D01*
X0051590Y0040684D02*
X0050498Y0040684D01*
X0050498Y0040694D02*
X0051590Y0040694D01*
X0051590Y0040704D02*
X0050498Y0040704D01*
X0050498Y0040714D02*
X0051590Y0040714D01*
X0051590Y0040724D02*
X0050498Y0040724D01*
X0050498Y0040734D02*
X0051590Y0040734D01*
X0051590Y0040744D02*
X0050498Y0040744D01*
X0050498Y0040754D02*
X0051590Y0040754D01*
X0051590Y0040764D02*
X0050498Y0040764D01*
X0050498Y0040774D02*
X0051590Y0040774D01*
X0051590Y0040784D02*
X0050498Y0040784D01*
X0050498Y0040794D02*
X0051590Y0040794D01*
X0051590Y0040804D02*
X0050498Y0040804D01*
X0050498Y0040814D02*
X0051590Y0040814D01*
X0051590Y0040824D02*
X0050498Y0040824D01*
X0050498Y0040834D02*
X0051590Y0040834D01*
X0051590Y0040844D02*
X0050498Y0040844D01*
X0050498Y0040854D02*
X0051590Y0040854D01*
X0051590Y0040864D02*
X0050498Y0040864D01*
X0050498Y0040874D02*
X0051590Y0040874D01*
X0051590Y0040884D02*
X0050498Y0040884D01*
X0050498Y0040894D02*
X0051590Y0040894D01*
X0051590Y0040904D02*
X0050498Y0040904D01*
X0050498Y0040914D02*
X0051590Y0040914D01*
X0051590Y0040924D02*
X0050498Y0040924D01*
X0050498Y0040934D02*
X0051590Y0040934D01*
X0051590Y0040944D02*
X0050498Y0040944D01*
X0050498Y0040954D02*
X0051590Y0040954D01*
X0051590Y0040964D02*
X0050498Y0040964D01*
X0050498Y0040974D02*
X0051590Y0040974D01*
X0051590Y0040984D02*
X0050498Y0040984D01*
X0050498Y0040994D02*
X0051590Y0040994D01*
X0051590Y0041004D02*
X0050498Y0041004D01*
X0050498Y0041014D02*
X0051590Y0041014D01*
X0051590Y0041024D02*
X0050498Y0041024D01*
X0050498Y0041034D02*
X0051590Y0041034D01*
X0051590Y0041044D02*
X0050498Y0041044D01*
X0050498Y0041054D02*
X0051590Y0041054D01*
X0051590Y0041064D02*
X0050498Y0041064D01*
X0050498Y0041074D02*
X0051590Y0041074D01*
X0051590Y0041084D02*
X0050498Y0041084D01*
X0050498Y0041094D02*
X0051590Y0041094D01*
X0051590Y0041104D02*
X0050498Y0041104D01*
X0050498Y0041114D02*
X0051590Y0041114D01*
X0051590Y0041124D02*
X0050498Y0041124D01*
X0050498Y0041134D02*
X0051590Y0041134D01*
X0051590Y0041144D02*
X0050498Y0041144D01*
X0050498Y0041154D02*
X0051590Y0041154D01*
X0051590Y0041164D02*
X0050498Y0041164D01*
X0050498Y0041174D02*
X0051590Y0041174D01*
X0051590Y0041184D02*
X0050498Y0041184D01*
X0050498Y0041194D02*
X0051590Y0041194D01*
X0051590Y0041204D02*
X0050498Y0041204D01*
X0050498Y0041214D02*
X0051590Y0041214D01*
X0051590Y0041224D02*
X0050498Y0041224D01*
X0050498Y0041234D02*
X0051590Y0041234D01*
X0051590Y0041244D02*
X0050498Y0041244D01*
X0050498Y0041254D02*
X0051590Y0041254D01*
X0051590Y0041264D02*
X0050498Y0041264D01*
X0050498Y0041274D02*
X0051590Y0041274D01*
X0051590Y0041284D02*
X0050498Y0041284D01*
X0050498Y0041294D02*
X0051590Y0041294D01*
X0051590Y0041304D02*
X0050498Y0041304D01*
X0050498Y0041314D02*
X0051590Y0041314D01*
X0051590Y0041324D02*
X0050498Y0041324D01*
X0050498Y0041334D02*
X0051590Y0041334D01*
X0051590Y0041344D02*
X0050498Y0041344D01*
X0050498Y0041354D02*
X0051590Y0041354D01*
X0051590Y0041364D02*
X0050498Y0041364D01*
X0050498Y0041374D02*
X0051590Y0041374D01*
X0051590Y0041384D02*
X0050498Y0041384D01*
X0050498Y0041394D02*
X0051590Y0041394D01*
X0051590Y0041404D02*
X0050498Y0041404D01*
X0050498Y0041414D02*
X0051590Y0041414D01*
X0051590Y0041424D02*
X0050498Y0041424D01*
X0050498Y0041434D02*
X0051590Y0041434D01*
X0051590Y0041444D02*
X0050498Y0041444D01*
X0050498Y0041454D02*
X0051590Y0041454D01*
X0051590Y0041464D02*
X0050498Y0041464D01*
X0050498Y0041474D02*
X0051590Y0041474D01*
X0051590Y0041484D02*
X0050498Y0041484D01*
X0050498Y0041494D02*
X0051590Y0041494D01*
X0051590Y0041504D02*
X0050498Y0041504D01*
X0050498Y0041514D02*
X0051590Y0041514D01*
X0051590Y0041524D02*
X0050498Y0041524D01*
X0050498Y0041534D02*
X0051590Y0041534D01*
X0051590Y0041544D02*
X0050498Y0041544D01*
X0050498Y0041554D02*
X0051590Y0041554D01*
X0051590Y0041564D02*
X0050498Y0041564D01*
X0050498Y0041574D02*
X0051590Y0041574D01*
X0051590Y0041584D02*
X0050498Y0041584D01*
X0050498Y0041594D02*
X0051590Y0041594D01*
X0051590Y0041604D02*
X0050498Y0041604D01*
X0050498Y0041614D02*
X0051590Y0041614D01*
X0051590Y0041624D02*
X0050498Y0041624D01*
X0050498Y0041634D02*
X0051590Y0041634D01*
X0051590Y0041644D02*
X0050498Y0041644D01*
X0050498Y0041654D02*
X0051590Y0041654D01*
X0051590Y0041664D02*
X0050498Y0041664D01*
X0050498Y0041674D02*
X0051590Y0041674D01*
X0051590Y0041684D02*
X0050498Y0041684D01*
X0050498Y0041694D02*
X0051590Y0041694D01*
X0051590Y0041704D02*
X0050498Y0041704D01*
X0050498Y0041714D02*
X0051590Y0041714D01*
X0051590Y0041724D02*
X0050498Y0041724D01*
X0050498Y0041734D02*
X0051590Y0041734D01*
X0051590Y0041744D02*
X0050498Y0041744D01*
X0050498Y0041754D02*
X0051590Y0041754D01*
X0051590Y0041764D02*
X0050498Y0041764D01*
X0050498Y0041774D02*
X0051590Y0041774D01*
X0051590Y0041784D02*
X0050498Y0041784D01*
X0050498Y0041794D02*
X0051590Y0041794D01*
X0051590Y0041804D02*
X0050498Y0041804D01*
X0050498Y0041814D02*
X0051590Y0041814D01*
X0051590Y0041824D02*
X0050498Y0041824D01*
X0050498Y0041834D02*
X0051590Y0041834D01*
X0051590Y0041844D02*
X0050498Y0041844D01*
X0050498Y0041854D02*
X0051590Y0041854D01*
X0051590Y0041864D02*
X0050498Y0041864D01*
X0050498Y0041874D02*
X0051590Y0041874D01*
X0051590Y0041884D02*
X0050498Y0041884D01*
X0050498Y0041894D02*
X0051590Y0041894D01*
X0051590Y0041904D02*
X0050498Y0041904D01*
X0050498Y0041914D02*
X0051590Y0041914D01*
X0051590Y0041924D02*
X0050498Y0041924D01*
X0050498Y0041934D02*
X0051590Y0041934D01*
X0051590Y0041944D02*
X0050498Y0041944D01*
X0050498Y0041954D02*
X0051590Y0041954D01*
X0051590Y0041964D02*
X0050498Y0041964D01*
X0050498Y0041974D02*
X0051590Y0041974D01*
X0051590Y0041984D02*
X0050498Y0041984D01*
X0050498Y0041994D02*
X0051590Y0041994D01*
X0051590Y0042004D02*
X0050498Y0042004D01*
X0050498Y0042014D02*
X0051590Y0042014D01*
X0051590Y0042024D02*
X0050498Y0042024D01*
X0050498Y0042034D02*
X0051590Y0042034D01*
X0051590Y0042044D02*
X0050498Y0042044D01*
X0050498Y0042054D02*
X0051590Y0042054D01*
X0051590Y0042064D02*
X0050498Y0042064D01*
X0050498Y0042074D02*
X0051590Y0042074D01*
X0051590Y0042084D02*
X0050498Y0042084D01*
X0050498Y0042094D02*
X0051590Y0042094D01*
X0051590Y0042104D02*
X0050498Y0042104D01*
X0050498Y0042114D02*
X0051590Y0042114D01*
X0051590Y0042124D02*
X0050498Y0042124D01*
X0050498Y0042134D02*
X0051590Y0042134D01*
X0051590Y0042144D02*
X0050498Y0042144D01*
X0050498Y0042154D02*
X0051590Y0042154D01*
X0051590Y0042164D02*
X0050498Y0042164D01*
X0050498Y0042174D02*
X0051590Y0042174D01*
X0051590Y0042184D02*
X0050498Y0042184D01*
X0050498Y0042194D02*
X0051590Y0042194D01*
X0051590Y0042204D02*
X0050498Y0042204D01*
X0050498Y0042214D02*
X0051590Y0042214D01*
X0051590Y0042224D02*
X0050498Y0042224D01*
X0050498Y0042234D02*
X0051590Y0042234D01*
X0051590Y0042244D02*
X0050498Y0042244D01*
X0050498Y0042254D02*
X0051590Y0042254D01*
X0051590Y0042264D02*
X0050498Y0042264D01*
X0050498Y0042274D02*
X0051590Y0042274D01*
X0051590Y0042284D02*
X0050498Y0042284D01*
X0050498Y0042294D02*
X0051590Y0042294D01*
X0051590Y0042304D02*
X0050498Y0042304D01*
X0050498Y0042314D02*
X0051590Y0042314D01*
X0051590Y0042324D02*
X0050498Y0042324D01*
X0050498Y0042334D02*
X0051590Y0042334D01*
X0051590Y0042344D02*
X0050498Y0042344D01*
X0050498Y0042354D02*
X0051590Y0042354D01*
X0051590Y0042364D02*
X0050498Y0042364D01*
X0050498Y0042374D02*
X0051590Y0042374D01*
X0051590Y0042384D02*
X0050498Y0042384D01*
X0050498Y0042394D02*
X0051590Y0042394D01*
X0051590Y0042404D02*
X0050498Y0042404D01*
X0050498Y0042414D02*
X0051590Y0042414D01*
X0051590Y0042424D02*
X0050498Y0042424D01*
X0050498Y0042434D02*
X0051590Y0042434D01*
X0051590Y0042444D02*
X0050498Y0042444D01*
X0050498Y0042454D02*
X0051590Y0042454D01*
X0051590Y0042464D02*
X0050498Y0042464D01*
X0050498Y0042474D02*
X0051590Y0042474D01*
X0051590Y0042484D02*
X0050498Y0042484D01*
X0050498Y0042494D02*
X0051590Y0042494D01*
X0051590Y0042504D02*
X0050498Y0042504D01*
X0050498Y0042514D02*
X0051590Y0042514D01*
X0051590Y0042524D02*
X0050498Y0042524D01*
X0050498Y0042534D02*
X0051590Y0042534D01*
X0051590Y0042544D02*
X0050498Y0042544D01*
X0049621Y0042552D02*
X0049621Y0039314D01*
X0048529Y0039314D01*
X0048529Y0042552D01*
X0049621Y0042552D01*
X0049621Y0039324D02*
X0048529Y0039324D01*
X0048529Y0039334D02*
X0049621Y0039334D01*
X0049621Y0039344D02*
X0048529Y0039344D01*
X0048529Y0039354D02*
X0049621Y0039354D01*
X0049621Y0039364D02*
X0048529Y0039364D01*
X0048529Y0039374D02*
X0049621Y0039374D01*
X0049621Y0039384D02*
X0048529Y0039384D01*
X0048529Y0039394D02*
X0049621Y0039394D01*
X0049621Y0039404D02*
X0048529Y0039404D01*
X0048529Y0039414D02*
X0049621Y0039414D01*
X0049621Y0039424D02*
X0048529Y0039424D01*
X0048529Y0039434D02*
X0049621Y0039434D01*
X0049621Y0039444D02*
X0048529Y0039444D01*
X0048529Y0039454D02*
X0049621Y0039454D01*
X0049621Y0039464D02*
X0048529Y0039464D01*
X0048529Y0039474D02*
X0049621Y0039474D01*
X0049621Y0039484D02*
X0048529Y0039484D01*
X0048529Y0039494D02*
X0049621Y0039494D01*
X0049621Y0039504D02*
X0048529Y0039504D01*
X0048529Y0039514D02*
X0049621Y0039514D01*
X0049621Y0039524D02*
X0048529Y0039524D01*
X0048529Y0039534D02*
X0049621Y0039534D01*
X0049621Y0039544D02*
X0048529Y0039544D01*
X0048529Y0039554D02*
X0049621Y0039554D01*
X0049621Y0039564D02*
X0048529Y0039564D01*
X0048529Y0039574D02*
X0049621Y0039574D01*
X0049621Y0039584D02*
X0048529Y0039584D01*
X0048529Y0039594D02*
X0049621Y0039594D01*
X0049621Y0039604D02*
X0048529Y0039604D01*
X0048529Y0039614D02*
X0049621Y0039614D01*
X0049621Y0039624D02*
X0048529Y0039624D01*
X0048529Y0039634D02*
X0049621Y0039634D01*
X0049621Y0039644D02*
X0048529Y0039644D01*
X0048529Y0039654D02*
X0049621Y0039654D01*
X0049621Y0039664D02*
X0048529Y0039664D01*
X0048529Y0039674D02*
X0049621Y0039674D01*
X0049621Y0039684D02*
X0048529Y0039684D01*
X0048529Y0039694D02*
X0049621Y0039694D01*
X0049621Y0039704D02*
X0048529Y0039704D01*
X0048529Y0039714D02*
X0049621Y0039714D01*
X0049621Y0039724D02*
X0048529Y0039724D01*
X0048529Y0039734D02*
X0049621Y0039734D01*
X0049621Y0039744D02*
X0048529Y0039744D01*
X0048529Y0039754D02*
X0049621Y0039754D01*
X0049621Y0039764D02*
X0048529Y0039764D01*
X0048529Y0039774D02*
X0049621Y0039774D01*
X0049621Y0039784D02*
X0048529Y0039784D01*
X0048529Y0039794D02*
X0049621Y0039794D01*
X0049621Y0039804D02*
X0048529Y0039804D01*
X0048529Y0039814D02*
X0049621Y0039814D01*
X0049621Y0039824D02*
X0048529Y0039824D01*
X0048529Y0039834D02*
X0049621Y0039834D01*
X0049621Y0039844D02*
X0048529Y0039844D01*
X0048529Y0039854D02*
X0049621Y0039854D01*
X0049621Y0039864D02*
X0048529Y0039864D01*
X0048529Y0039874D02*
X0049621Y0039874D01*
X0049621Y0039884D02*
X0048529Y0039884D01*
X0048529Y0039894D02*
X0049621Y0039894D01*
X0049621Y0039904D02*
X0048529Y0039904D01*
X0048529Y0039914D02*
X0049621Y0039914D01*
X0049621Y0039924D02*
X0048529Y0039924D01*
X0048529Y0039934D02*
X0049621Y0039934D01*
X0049621Y0039944D02*
X0048529Y0039944D01*
X0048529Y0039954D02*
X0049621Y0039954D01*
X0049621Y0039964D02*
X0048529Y0039964D01*
X0048529Y0039974D02*
X0049621Y0039974D01*
X0049621Y0039984D02*
X0048529Y0039984D01*
X0048529Y0039994D02*
X0049621Y0039994D01*
X0049621Y0040004D02*
X0048529Y0040004D01*
X0048529Y0040014D02*
X0049621Y0040014D01*
X0049621Y0040024D02*
X0048529Y0040024D01*
X0048529Y0040034D02*
X0049621Y0040034D01*
X0049621Y0040044D02*
X0048529Y0040044D01*
X0048529Y0040054D02*
X0049621Y0040054D01*
X0049621Y0040064D02*
X0048529Y0040064D01*
X0048529Y0040074D02*
X0049621Y0040074D01*
X0049621Y0040084D02*
X0048529Y0040084D01*
X0048529Y0040094D02*
X0049621Y0040094D01*
X0049621Y0040104D02*
X0048529Y0040104D01*
X0048529Y0040114D02*
X0049621Y0040114D01*
X0049621Y0040124D02*
X0048529Y0040124D01*
X0048529Y0040134D02*
X0049621Y0040134D01*
X0049621Y0040144D02*
X0048529Y0040144D01*
X0048529Y0040154D02*
X0049621Y0040154D01*
X0049621Y0040164D02*
X0048529Y0040164D01*
X0048529Y0040174D02*
X0049621Y0040174D01*
X0049621Y0040184D02*
X0048529Y0040184D01*
X0048529Y0040194D02*
X0049621Y0040194D01*
X0049621Y0040204D02*
X0048529Y0040204D01*
X0048529Y0040214D02*
X0049621Y0040214D01*
X0049621Y0040224D02*
X0048529Y0040224D01*
X0048529Y0040234D02*
X0049621Y0040234D01*
X0049621Y0040244D02*
X0048529Y0040244D01*
X0048529Y0040254D02*
X0049621Y0040254D01*
X0049621Y0040264D02*
X0048529Y0040264D01*
X0048529Y0040274D02*
X0049621Y0040274D01*
X0049621Y0040284D02*
X0048529Y0040284D01*
X0048529Y0040294D02*
X0049621Y0040294D01*
X0049621Y0040304D02*
X0048529Y0040304D01*
X0048529Y0040314D02*
X0049621Y0040314D01*
X0049621Y0040324D02*
X0048529Y0040324D01*
X0048529Y0040334D02*
X0049621Y0040334D01*
X0049621Y0040344D02*
X0048529Y0040344D01*
X0048529Y0040354D02*
X0049621Y0040354D01*
X0049621Y0040364D02*
X0048529Y0040364D01*
X0048529Y0040374D02*
X0049621Y0040374D01*
X0049621Y0040384D02*
X0048529Y0040384D01*
X0048529Y0040394D02*
X0049621Y0040394D01*
X0049621Y0040404D02*
X0048529Y0040404D01*
X0048529Y0040414D02*
X0049621Y0040414D01*
X0049621Y0040424D02*
X0048529Y0040424D01*
X0048529Y0040434D02*
X0049621Y0040434D01*
X0049621Y0040444D02*
X0048529Y0040444D01*
X0048529Y0040454D02*
X0049621Y0040454D01*
X0049621Y0040464D02*
X0048529Y0040464D01*
X0048529Y0040474D02*
X0049621Y0040474D01*
X0049621Y0040484D02*
X0048529Y0040484D01*
X0048529Y0040494D02*
X0049621Y0040494D01*
X0049621Y0040504D02*
X0048529Y0040504D01*
X0048529Y0040514D02*
X0049621Y0040514D01*
X0049621Y0040524D02*
X0048529Y0040524D01*
X0048529Y0040534D02*
X0049621Y0040534D01*
X0049621Y0040544D02*
X0048529Y0040544D01*
X0048529Y0040554D02*
X0049621Y0040554D01*
X0049621Y0040564D02*
X0048529Y0040564D01*
X0048529Y0040574D02*
X0049621Y0040574D01*
X0049621Y0040584D02*
X0048529Y0040584D01*
X0048529Y0040594D02*
X0049621Y0040594D01*
X0049621Y0040604D02*
X0048529Y0040604D01*
X0048529Y0040614D02*
X0049621Y0040614D01*
X0049621Y0040624D02*
X0048529Y0040624D01*
X0048529Y0040634D02*
X0049621Y0040634D01*
X0049621Y0040644D02*
X0048529Y0040644D01*
X0048529Y0040654D02*
X0049621Y0040654D01*
X0049621Y0040664D02*
X0048529Y0040664D01*
X0048529Y0040674D02*
X0049621Y0040674D01*
X0049621Y0040684D02*
X0048529Y0040684D01*
X0048529Y0040694D02*
X0049621Y0040694D01*
X0049621Y0040704D02*
X0048529Y0040704D01*
X0048529Y0040714D02*
X0049621Y0040714D01*
X0049621Y0040724D02*
X0048529Y0040724D01*
X0048529Y0040734D02*
X0049621Y0040734D01*
X0049621Y0040744D02*
X0048529Y0040744D01*
X0048529Y0040754D02*
X0049621Y0040754D01*
X0049621Y0040764D02*
X0048529Y0040764D01*
X0048529Y0040774D02*
X0049621Y0040774D01*
X0049621Y0040784D02*
X0048529Y0040784D01*
X0048529Y0040794D02*
X0049621Y0040794D01*
X0049621Y0040804D02*
X0048529Y0040804D01*
X0048529Y0040814D02*
X0049621Y0040814D01*
X0049621Y0040824D02*
X0048529Y0040824D01*
X0048529Y0040834D02*
X0049621Y0040834D01*
X0049621Y0040844D02*
X0048529Y0040844D01*
X0048529Y0040854D02*
X0049621Y0040854D01*
X0049621Y0040864D02*
X0048529Y0040864D01*
X0048529Y0040874D02*
X0049621Y0040874D01*
X0049621Y0040884D02*
X0048529Y0040884D01*
X0048529Y0040894D02*
X0049621Y0040894D01*
X0049621Y0040904D02*
X0048529Y0040904D01*
X0048529Y0040914D02*
X0049621Y0040914D01*
X0049621Y0040924D02*
X0048529Y0040924D01*
X0048529Y0040934D02*
X0049621Y0040934D01*
X0049621Y0040944D02*
X0048529Y0040944D01*
X0048529Y0040954D02*
X0049621Y0040954D01*
X0049621Y0040964D02*
X0048529Y0040964D01*
X0048529Y0040974D02*
X0049621Y0040974D01*
X0049621Y0040984D02*
X0048529Y0040984D01*
X0048529Y0040994D02*
X0049621Y0040994D01*
X0049621Y0041004D02*
X0048529Y0041004D01*
X0048529Y0041014D02*
X0049621Y0041014D01*
X0049621Y0041024D02*
X0048529Y0041024D01*
X0048529Y0041034D02*
X0049621Y0041034D01*
X0049621Y0041044D02*
X0048529Y0041044D01*
X0048529Y0041054D02*
X0049621Y0041054D01*
X0049621Y0041064D02*
X0048529Y0041064D01*
X0048529Y0041074D02*
X0049621Y0041074D01*
X0049621Y0041084D02*
X0048529Y0041084D01*
X0048529Y0041094D02*
X0049621Y0041094D01*
X0049621Y0041104D02*
X0048529Y0041104D01*
X0048529Y0041114D02*
X0049621Y0041114D01*
X0049621Y0041124D02*
X0048529Y0041124D01*
X0048529Y0041134D02*
X0049621Y0041134D01*
X0049621Y0041144D02*
X0048529Y0041144D01*
X0048529Y0041154D02*
X0049621Y0041154D01*
X0049621Y0041164D02*
X0048529Y0041164D01*
X0048529Y0041174D02*
X0049621Y0041174D01*
X0049621Y0041184D02*
X0048529Y0041184D01*
X0048529Y0041194D02*
X0049621Y0041194D01*
X0049621Y0041204D02*
X0048529Y0041204D01*
X0048529Y0041214D02*
X0049621Y0041214D01*
X0049621Y0041224D02*
X0048529Y0041224D01*
X0048529Y0041234D02*
X0049621Y0041234D01*
X0049621Y0041244D02*
X0048529Y0041244D01*
X0048529Y0041254D02*
X0049621Y0041254D01*
X0049621Y0041264D02*
X0048529Y0041264D01*
X0048529Y0041274D02*
X0049621Y0041274D01*
X0049621Y0041284D02*
X0048529Y0041284D01*
X0048529Y0041294D02*
X0049621Y0041294D01*
X0049621Y0041304D02*
X0048529Y0041304D01*
X0048529Y0041314D02*
X0049621Y0041314D01*
X0049621Y0041324D02*
X0048529Y0041324D01*
X0048529Y0041334D02*
X0049621Y0041334D01*
X0049621Y0041344D02*
X0048529Y0041344D01*
X0048529Y0041354D02*
X0049621Y0041354D01*
X0049621Y0041364D02*
X0048529Y0041364D01*
X0048529Y0041374D02*
X0049621Y0041374D01*
X0049621Y0041384D02*
X0048529Y0041384D01*
X0048529Y0041394D02*
X0049621Y0041394D01*
X0049621Y0041404D02*
X0048529Y0041404D01*
X0048529Y0041414D02*
X0049621Y0041414D01*
X0049621Y0041424D02*
X0048529Y0041424D01*
X0048529Y0041434D02*
X0049621Y0041434D01*
X0049621Y0041444D02*
X0048529Y0041444D01*
X0048529Y0041454D02*
X0049621Y0041454D01*
X0049621Y0041464D02*
X0048529Y0041464D01*
X0048529Y0041474D02*
X0049621Y0041474D01*
X0049621Y0041484D02*
X0048529Y0041484D01*
X0048529Y0041494D02*
X0049621Y0041494D01*
X0049621Y0041504D02*
X0048529Y0041504D01*
X0048529Y0041514D02*
X0049621Y0041514D01*
X0049621Y0041524D02*
X0048529Y0041524D01*
X0048529Y0041534D02*
X0049621Y0041534D01*
X0049621Y0041544D02*
X0048529Y0041544D01*
X0048529Y0041554D02*
X0049621Y0041554D01*
X0049621Y0041564D02*
X0048529Y0041564D01*
X0048529Y0041574D02*
X0049621Y0041574D01*
X0049621Y0041584D02*
X0048529Y0041584D01*
X0048529Y0041594D02*
X0049621Y0041594D01*
X0049621Y0041604D02*
X0048529Y0041604D01*
X0048529Y0041614D02*
X0049621Y0041614D01*
X0049621Y0041624D02*
X0048529Y0041624D01*
X0048529Y0041634D02*
X0049621Y0041634D01*
X0049621Y0041644D02*
X0048529Y0041644D01*
X0048529Y0041654D02*
X0049621Y0041654D01*
X0049621Y0041664D02*
X0048529Y0041664D01*
X0048529Y0041674D02*
X0049621Y0041674D01*
X0049621Y0041684D02*
X0048529Y0041684D01*
X0048529Y0041694D02*
X0049621Y0041694D01*
X0049621Y0041704D02*
X0048529Y0041704D01*
X0048529Y0041714D02*
X0049621Y0041714D01*
X0049621Y0041724D02*
X0048529Y0041724D01*
X0048529Y0041734D02*
X0049621Y0041734D01*
X0049621Y0041744D02*
X0048529Y0041744D01*
X0048529Y0041754D02*
X0049621Y0041754D01*
X0049621Y0041764D02*
X0048529Y0041764D01*
X0048529Y0041774D02*
X0049621Y0041774D01*
X0049621Y0041784D02*
X0048529Y0041784D01*
X0048529Y0041794D02*
X0049621Y0041794D01*
X0049621Y0041804D02*
X0048529Y0041804D01*
X0048529Y0041814D02*
X0049621Y0041814D01*
X0049621Y0041824D02*
X0048529Y0041824D01*
X0048529Y0041834D02*
X0049621Y0041834D01*
X0049621Y0041844D02*
X0048529Y0041844D01*
X0048529Y0041854D02*
X0049621Y0041854D01*
X0049621Y0041864D02*
X0048529Y0041864D01*
X0048529Y0041874D02*
X0049621Y0041874D01*
X0049621Y0041884D02*
X0048529Y0041884D01*
X0048529Y0041894D02*
X0049621Y0041894D01*
X0049621Y0041904D02*
X0048529Y0041904D01*
X0048529Y0041914D02*
X0049621Y0041914D01*
X0049621Y0041924D02*
X0048529Y0041924D01*
X0048529Y0041934D02*
X0049621Y0041934D01*
X0049621Y0041944D02*
X0048529Y0041944D01*
X0048529Y0041954D02*
X0049621Y0041954D01*
X0049621Y0041964D02*
X0048529Y0041964D01*
X0048529Y0041974D02*
X0049621Y0041974D01*
X0049621Y0041984D02*
X0048529Y0041984D01*
X0048529Y0041994D02*
X0049621Y0041994D01*
X0049621Y0042004D02*
X0048529Y0042004D01*
X0048529Y0042014D02*
X0049621Y0042014D01*
X0049621Y0042024D02*
X0048529Y0042024D01*
X0048529Y0042034D02*
X0049621Y0042034D01*
X0049621Y0042044D02*
X0048529Y0042044D01*
X0048529Y0042054D02*
X0049621Y0042054D01*
X0049621Y0042064D02*
X0048529Y0042064D01*
X0048529Y0042074D02*
X0049621Y0042074D01*
X0049621Y0042084D02*
X0048529Y0042084D01*
X0048529Y0042094D02*
X0049621Y0042094D01*
X0049621Y0042104D02*
X0048529Y0042104D01*
X0048529Y0042114D02*
X0049621Y0042114D01*
X0049621Y0042124D02*
X0048529Y0042124D01*
X0048529Y0042134D02*
X0049621Y0042134D01*
X0049621Y0042144D02*
X0048529Y0042144D01*
X0048529Y0042154D02*
X0049621Y0042154D01*
X0049621Y0042164D02*
X0048529Y0042164D01*
X0048529Y0042174D02*
X0049621Y0042174D01*
X0049621Y0042184D02*
X0048529Y0042184D01*
X0048529Y0042194D02*
X0049621Y0042194D01*
X0049621Y0042204D02*
X0048529Y0042204D01*
X0048529Y0042214D02*
X0049621Y0042214D01*
X0049621Y0042224D02*
X0048529Y0042224D01*
X0048529Y0042234D02*
X0049621Y0042234D01*
X0049621Y0042244D02*
X0048529Y0042244D01*
X0048529Y0042254D02*
X0049621Y0042254D01*
X0049621Y0042264D02*
X0048529Y0042264D01*
X0048529Y0042274D02*
X0049621Y0042274D01*
X0049621Y0042284D02*
X0048529Y0042284D01*
X0048529Y0042294D02*
X0049621Y0042294D01*
X0049621Y0042304D02*
X0048529Y0042304D01*
X0048529Y0042314D02*
X0049621Y0042314D01*
X0049621Y0042324D02*
X0048529Y0042324D01*
X0048529Y0042334D02*
X0049621Y0042334D01*
X0049621Y0042344D02*
X0048529Y0042344D01*
X0048529Y0042354D02*
X0049621Y0042354D01*
X0049621Y0042364D02*
X0048529Y0042364D01*
X0048529Y0042374D02*
X0049621Y0042374D01*
X0049621Y0042384D02*
X0048529Y0042384D01*
X0048529Y0042394D02*
X0049621Y0042394D01*
X0049621Y0042404D02*
X0048529Y0042404D01*
X0048529Y0042414D02*
X0049621Y0042414D01*
X0049621Y0042424D02*
X0048529Y0042424D01*
X0048529Y0042434D02*
X0049621Y0042434D01*
X0049621Y0042444D02*
X0048529Y0042444D01*
X0048529Y0042454D02*
X0049621Y0042454D01*
X0049621Y0042464D02*
X0048529Y0042464D01*
X0048529Y0042474D02*
X0049621Y0042474D01*
X0049621Y0042484D02*
X0048529Y0042484D01*
X0048529Y0042494D02*
X0049621Y0042494D01*
X0049621Y0042504D02*
X0048529Y0042504D01*
X0048529Y0042514D02*
X0049621Y0042514D01*
X0049621Y0042524D02*
X0048529Y0042524D01*
X0048529Y0042534D02*
X0049621Y0042534D01*
X0049621Y0042544D02*
X0048529Y0042544D01*
X0047652Y0042552D02*
X0047652Y0039314D01*
X0046560Y0039314D01*
X0046560Y0042552D01*
X0047652Y0042552D01*
X0047652Y0039324D02*
X0046560Y0039324D01*
X0046560Y0039334D02*
X0047652Y0039334D01*
X0047652Y0039344D02*
X0046560Y0039344D01*
X0046560Y0039354D02*
X0047652Y0039354D01*
X0047652Y0039364D02*
X0046560Y0039364D01*
X0046560Y0039374D02*
X0047652Y0039374D01*
X0047652Y0039384D02*
X0046560Y0039384D01*
X0046560Y0039394D02*
X0047652Y0039394D01*
X0047652Y0039404D02*
X0046560Y0039404D01*
X0046560Y0039414D02*
X0047652Y0039414D01*
X0047652Y0039424D02*
X0046560Y0039424D01*
X0046560Y0039434D02*
X0047652Y0039434D01*
X0047652Y0039444D02*
X0046560Y0039444D01*
X0046560Y0039454D02*
X0047652Y0039454D01*
X0047652Y0039464D02*
X0046560Y0039464D01*
X0046560Y0039474D02*
X0047652Y0039474D01*
X0047652Y0039484D02*
X0046560Y0039484D01*
X0046560Y0039494D02*
X0047652Y0039494D01*
X0047652Y0039504D02*
X0046560Y0039504D01*
X0046560Y0039514D02*
X0047652Y0039514D01*
X0047652Y0039524D02*
X0046560Y0039524D01*
X0046560Y0039534D02*
X0047652Y0039534D01*
X0047652Y0039544D02*
X0046560Y0039544D01*
X0046560Y0039554D02*
X0047652Y0039554D01*
X0047652Y0039564D02*
X0046560Y0039564D01*
X0046560Y0039574D02*
X0047652Y0039574D01*
X0047652Y0039584D02*
X0046560Y0039584D01*
X0046560Y0039594D02*
X0047652Y0039594D01*
X0047652Y0039604D02*
X0046560Y0039604D01*
X0046560Y0039614D02*
X0047652Y0039614D01*
X0047652Y0039624D02*
X0046560Y0039624D01*
X0046560Y0039634D02*
X0047652Y0039634D01*
X0047652Y0039644D02*
X0046560Y0039644D01*
X0046560Y0039654D02*
X0047652Y0039654D01*
X0047652Y0039664D02*
X0046560Y0039664D01*
X0046560Y0039674D02*
X0047652Y0039674D01*
X0047652Y0039684D02*
X0046560Y0039684D01*
X0046560Y0039694D02*
X0047652Y0039694D01*
X0047652Y0039704D02*
X0046560Y0039704D01*
X0046560Y0039714D02*
X0047652Y0039714D01*
X0047652Y0039724D02*
X0046560Y0039724D01*
X0046560Y0039734D02*
X0047652Y0039734D01*
X0047652Y0039744D02*
X0046560Y0039744D01*
X0046560Y0039754D02*
X0047652Y0039754D01*
X0047652Y0039764D02*
X0046560Y0039764D01*
X0046560Y0039774D02*
X0047652Y0039774D01*
X0047652Y0039784D02*
X0046560Y0039784D01*
X0046560Y0039794D02*
X0047652Y0039794D01*
X0047652Y0039804D02*
X0046560Y0039804D01*
X0046560Y0039814D02*
X0047652Y0039814D01*
X0047652Y0039824D02*
X0046560Y0039824D01*
X0046560Y0039834D02*
X0047652Y0039834D01*
X0047652Y0039844D02*
X0046560Y0039844D01*
X0046560Y0039854D02*
X0047652Y0039854D01*
X0047652Y0039864D02*
X0046560Y0039864D01*
X0046560Y0039874D02*
X0047652Y0039874D01*
X0047652Y0039884D02*
X0046560Y0039884D01*
X0046560Y0039894D02*
X0047652Y0039894D01*
X0047652Y0039904D02*
X0046560Y0039904D01*
X0046560Y0039914D02*
X0047652Y0039914D01*
X0047652Y0039924D02*
X0046560Y0039924D01*
X0046560Y0039934D02*
X0047652Y0039934D01*
X0047652Y0039944D02*
X0046560Y0039944D01*
X0046560Y0039954D02*
X0047652Y0039954D01*
X0047652Y0039964D02*
X0046560Y0039964D01*
X0046560Y0039974D02*
X0047652Y0039974D01*
X0047652Y0039984D02*
X0046560Y0039984D01*
X0046560Y0039994D02*
X0047652Y0039994D01*
X0047652Y0040004D02*
X0046560Y0040004D01*
X0046560Y0040014D02*
X0047652Y0040014D01*
X0047652Y0040024D02*
X0046560Y0040024D01*
X0046560Y0040034D02*
X0047652Y0040034D01*
X0047652Y0040044D02*
X0046560Y0040044D01*
X0046560Y0040054D02*
X0047652Y0040054D01*
X0047652Y0040064D02*
X0046560Y0040064D01*
X0046560Y0040074D02*
X0047652Y0040074D01*
X0047652Y0040084D02*
X0046560Y0040084D01*
X0046560Y0040094D02*
X0047652Y0040094D01*
X0047652Y0040104D02*
X0046560Y0040104D01*
X0046560Y0040114D02*
X0047652Y0040114D01*
X0047652Y0040124D02*
X0046560Y0040124D01*
X0046560Y0040134D02*
X0047652Y0040134D01*
X0047652Y0040144D02*
X0046560Y0040144D01*
X0046560Y0040154D02*
X0047652Y0040154D01*
X0047652Y0040164D02*
X0046560Y0040164D01*
X0046560Y0040174D02*
X0047652Y0040174D01*
X0047652Y0040184D02*
X0046560Y0040184D01*
X0046560Y0040194D02*
X0047652Y0040194D01*
X0047652Y0040204D02*
X0046560Y0040204D01*
X0046560Y0040214D02*
X0047652Y0040214D01*
X0047652Y0040224D02*
X0046560Y0040224D01*
X0046560Y0040234D02*
X0047652Y0040234D01*
X0047652Y0040244D02*
X0046560Y0040244D01*
X0046560Y0040254D02*
X0047652Y0040254D01*
X0047652Y0040264D02*
X0046560Y0040264D01*
X0046560Y0040274D02*
X0047652Y0040274D01*
X0047652Y0040284D02*
X0046560Y0040284D01*
X0046560Y0040294D02*
X0047652Y0040294D01*
X0047652Y0040304D02*
X0046560Y0040304D01*
X0046560Y0040314D02*
X0047652Y0040314D01*
X0047652Y0040324D02*
X0046560Y0040324D01*
X0046560Y0040334D02*
X0047652Y0040334D01*
X0047652Y0040344D02*
X0046560Y0040344D01*
X0046560Y0040354D02*
X0047652Y0040354D01*
X0047652Y0040364D02*
X0046560Y0040364D01*
X0046560Y0040374D02*
X0047652Y0040374D01*
X0047652Y0040384D02*
X0046560Y0040384D01*
X0046560Y0040394D02*
X0047652Y0040394D01*
X0047652Y0040404D02*
X0046560Y0040404D01*
X0046560Y0040414D02*
X0047652Y0040414D01*
X0047652Y0040424D02*
X0046560Y0040424D01*
X0046560Y0040434D02*
X0047652Y0040434D01*
X0047652Y0040444D02*
X0046560Y0040444D01*
X0046560Y0040454D02*
X0047652Y0040454D01*
X0047652Y0040464D02*
X0046560Y0040464D01*
X0046560Y0040474D02*
X0047652Y0040474D01*
X0047652Y0040484D02*
X0046560Y0040484D01*
X0046560Y0040494D02*
X0047652Y0040494D01*
X0047652Y0040504D02*
X0046560Y0040504D01*
X0046560Y0040514D02*
X0047652Y0040514D01*
X0047652Y0040524D02*
X0046560Y0040524D01*
X0046560Y0040534D02*
X0047652Y0040534D01*
X0047652Y0040544D02*
X0046560Y0040544D01*
X0046560Y0040554D02*
X0047652Y0040554D01*
X0047652Y0040564D02*
X0046560Y0040564D01*
X0046560Y0040574D02*
X0047652Y0040574D01*
X0047652Y0040584D02*
X0046560Y0040584D01*
X0046560Y0040594D02*
X0047652Y0040594D01*
X0047652Y0040604D02*
X0046560Y0040604D01*
X0046560Y0040614D02*
X0047652Y0040614D01*
X0047652Y0040624D02*
X0046560Y0040624D01*
X0046560Y0040634D02*
X0047652Y0040634D01*
X0047652Y0040644D02*
X0046560Y0040644D01*
X0046560Y0040654D02*
X0047652Y0040654D01*
X0047652Y0040664D02*
X0046560Y0040664D01*
X0046560Y0040674D02*
X0047652Y0040674D01*
X0047652Y0040684D02*
X0046560Y0040684D01*
X0046560Y0040694D02*
X0047652Y0040694D01*
X0047652Y0040704D02*
X0046560Y0040704D01*
X0046560Y0040714D02*
X0047652Y0040714D01*
X0047652Y0040724D02*
X0046560Y0040724D01*
X0046560Y0040734D02*
X0047652Y0040734D01*
X0047652Y0040744D02*
X0046560Y0040744D01*
X0046560Y0040754D02*
X0047652Y0040754D01*
X0047652Y0040764D02*
X0046560Y0040764D01*
X0046560Y0040774D02*
X0047652Y0040774D01*
X0047652Y0040784D02*
X0046560Y0040784D01*
X0046560Y0040794D02*
X0047652Y0040794D01*
X0047652Y0040804D02*
X0046560Y0040804D01*
X0046560Y0040814D02*
X0047652Y0040814D01*
X0047652Y0040824D02*
X0046560Y0040824D01*
X0046560Y0040834D02*
X0047652Y0040834D01*
X0047652Y0040844D02*
X0046560Y0040844D01*
X0046560Y0040854D02*
X0047652Y0040854D01*
X0047652Y0040864D02*
X0046560Y0040864D01*
X0046560Y0040874D02*
X0047652Y0040874D01*
X0047652Y0040884D02*
X0046560Y0040884D01*
X0046560Y0040894D02*
X0047652Y0040894D01*
X0047652Y0040904D02*
X0046560Y0040904D01*
X0046560Y0040914D02*
X0047652Y0040914D01*
X0047652Y0040924D02*
X0046560Y0040924D01*
X0046560Y0040934D02*
X0047652Y0040934D01*
X0047652Y0040944D02*
X0046560Y0040944D01*
X0046560Y0040954D02*
X0047652Y0040954D01*
X0047652Y0040964D02*
X0046560Y0040964D01*
X0046560Y0040974D02*
X0047652Y0040974D01*
X0047652Y0040984D02*
X0046560Y0040984D01*
X0046560Y0040994D02*
X0047652Y0040994D01*
X0047652Y0041004D02*
X0046560Y0041004D01*
X0046560Y0041014D02*
X0047652Y0041014D01*
X0047652Y0041024D02*
X0046560Y0041024D01*
X0046560Y0041034D02*
X0047652Y0041034D01*
X0047652Y0041044D02*
X0046560Y0041044D01*
X0046560Y0041054D02*
X0047652Y0041054D01*
X0047652Y0041064D02*
X0046560Y0041064D01*
X0046560Y0041074D02*
X0047652Y0041074D01*
X0047652Y0041084D02*
X0046560Y0041084D01*
X0046560Y0041094D02*
X0047652Y0041094D01*
X0047652Y0041104D02*
X0046560Y0041104D01*
X0046560Y0041114D02*
X0047652Y0041114D01*
X0047652Y0041124D02*
X0046560Y0041124D01*
X0046560Y0041134D02*
X0047652Y0041134D01*
X0047652Y0041144D02*
X0046560Y0041144D01*
X0046560Y0041154D02*
X0047652Y0041154D01*
X0047652Y0041164D02*
X0046560Y0041164D01*
X0046560Y0041174D02*
X0047652Y0041174D01*
X0047652Y0041184D02*
X0046560Y0041184D01*
X0046560Y0041194D02*
X0047652Y0041194D01*
X0047652Y0041204D02*
X0046560Y0041204D01*
X0046560Y0041214D02*
X0047652Y0041214D01*
X0047652Y0041224D02*
X0046560Y0041224D01*
X0046560Y0041234D02*
X0047652Y0041234D01*
X0047652Y0041244D02*
X0046560Y0041244D01*
X0046560Y0041254D02*
X0047652Y0041254D01*
X0047652Y0041264D02*
X0046560Y0041264D01*
X0046560Y0041274D02*
X0047652Y0041274D01*
X0047652Y0041284D02*
X0046560Y0041284D01*
X0046560Y0041294D02*
X0047652Y0041294D01*
X0047652Y0041304D02*
X0046560Y0041304D01*
X0046560Y0041314D02*
X0047652Y0041314D01*
X0047652Y0041324D02*
X0046560Y0041324D01*
X0046560Y0041334D02*
X0047652Y0041334D01*
X0047652Y0041344D02*
X0046560Y0041344D01*
X0046560Y0041354D02*
X0047652Y0041354D01*
X0047652Y0041364D02*
X0046560Y0041364D01*
X0046560Y0041374D02*
X0047652Y0041374D01*
X0047652Y0041384D02*
X0046560Y0041384D01*
X0046560Y0041394D02*
X0047652Y0041394D01*
X0047652Y0041404D02*
X0046560Y0041404D01*
X0046560Y0041414D02*
X0047652Y0041414D01*
X0047652Y0041424D02*
X0046560Y0041424D01*
X0046560Y0041434D02*
X0047652Y0041434D01*
X0047652Y0041444D02*
X0046560Y0041444D01*
X0046560Y0041454D02*
X0047652Y0041454D01*
X0047652Y0041464D02*
X0046560Y0041464D01*
X0046560Y0041474D02*
X0047652Y0041474D01*
X0047652Y0041484D02*
X0046560Y0041484D01*
X0046560Y0041494D02*
X0047652Y0041494D01*
X0047652Y0041504D02*
X0046560Y0041504D01*
X0046560Y0041514D02*
X0047652Y0041514D01*
X0047652Y0041524D02*
X0046560Y0041524D01*
X0046560Y0041534D02*
X0047652Y0041534D01*
X0047652Y0041544D02*
X0046560Y0041544D01*
X0046560Y0041554D02*
X0047652Y0041554D01*
X0047652Y0041564D02*
X0046560Y0041564D01*
X0046560Y0041574D02*
X0047652Y0041574D01*
X0047652Y0041584D02*
X0046560Y0041584D01*
X0046560Y0041594D02*
X0047652Y0041594D01*
X0047652Y0041604D02*
X0046560Y0041604D01*
X0046560Y0041614D02*
X0047652Y0041614D01*
X0047652Y0041624D02*
X0046560Y0041624D01*
X0046560Y0041634D02*
X0047652Y0041634D01*
X0047652Y0041644D02*
X0046560Y0041644D01*
X0046560Y0041654D02*
X0047652Y0041654D01*
X0047652Y0041664D02*
X0046560Y0041664D01*
X0046560Y0041674D02*
X0047652Y0041674D01*
X0047652Y0041684D02*
X0046560Y0041684D01*
X0046560Y0041694D02*
X0047652Y0041694D01*
X0047652Y0041704D02*
X0046560Y0041704D01*
X0046560Y0041714D02*
X0047652Y0041714D01*
X0047652Y0041724D02*
X0046560Y0041724D01*
X0046560Y0041734D02*
X0047652Y0041734D01*
X0047652Y0041744D02*
X0046560Y0041744D01*
X0046560Y0041754D02*
X0047652Y0041754D01*
X0047652Y0041764D02*
X0046560Y0041764D01*
X0046560Y0041774D02*
X0047652Y0041774D01*
X0047652Y0041784D02*
X0046560Y0041784D01*
X0046560Y0041794D02*
X0047652Y0041794D01*
X0047652Y0041804D02*
X0046560Y0041804D01*
X0046560Y0041814D02*
X0047652Y0041814D01*
X0047652Y0041824D02*
X0046560Y0041824D01*
X0046560Y0041834D02*
X0047652Y0041834D01*
X0047652Y0041844D02*
X0046560Y0041844D01*
X0046560Y0041854D02*
X0047652Y0041854D01*
X0047652Y0041864D02*
X0046560Y0041864D01*
X0046560Y0041874D02*
X0047652Y0041874D01*
X0047652Y0041884D02*
X0046560Y0041884D01*
X0046560Y0041894D02*
X0047652Y0041894D01*
X0047652Y0041904D02*
X0046560Y0041904D01*
X0046560Y0041914D02*
X0047652Y0041914D01*
X0047652Y0041924D02*
X0046560Y0041924D01*
X0046560Y0041934D02*
X0047652Y0041934D01*
X0047652Y0041944D02*
X0046560Y0041944D01*
X0046560Y0041954D02*
X0047652Y0041954D01*
X0047652Y0041964D02*
X0046560Y0041964D01*
X0046560Y0041974D02*
X0047652Y0041974D01*
X0047652Y0041984D02*
X0046560Y0041984D01*
X0046560Y0041994D02*
X0047652Y0041994D01*
X0047652Y0042004D02*
X0046560Y0042004D01*
X0046560Y0042014D02*
X0047652Y0042014D01*
X0047652Y0042024D02*
X0046560Y0042024D01*
X0046560Y0042034D02*
X0047652Y0042034D01*
X0047652Y0042044D02*
X0046560Y0042044D01*
X0046560Y0042054D02*
X0047652Y0042054D01*
X0047652Y0042064D02*
X0046560Y0042064D01*
X0046560Y0042074D02*
X0047652Y0042074D01*
X0047652Y0042084D02*
X0046560Y0042084D01*
X0046560Y0042094D02*
X0047652Y0042094D01*
X0047652Y0042104D02*
X0046560Y0042104D01*
X0046560Y0042114D02*
X0047652Y0042114D01*
X0047652Y0042124D02*
X0046560Y0042124D01*
X0046560Y0042134D02*
X0047652Y0042134D01*
X0047652Y0042144D02*
X0046560Y0042144D01*
X0046560Y0042154D02*
X0047652Y0042154D01*
X0047652Y0042164D02*
X0046560Y0042164D01*
X0046560Y0042174D02*
X0047652Y0042174D01*
X0047652Y0042184D02*
X0046560Y0042184D01*
X0046560Y0042194D02*
X0047652Y0042194D01*
X0047652Y0042204D02*
X0046560Y0042204D01*
X0046560Y0042214D02*
X0047652Y0042214D01*
X0047652Y0042224D02*
X0046560Y0042224D01*
X0046560Y0042234D02*
X0047652Y0042234D01*
X0047652Y0042244D02*
X0046560Y0042244D01*
X0046560Y0042254D02*
X0047652Y0042254D01*
X0047652Y0042264D02*
X0046560Y0042264D01*
X0046560Y0042274D02*
X0047652Y0042274D01*
X0047652Y0042284D02*
X0046560Y0042284D01*
X0046560Y0042294D02*
X0047652Y0042294D01*
X0047652Y0042304D02*
X0046560Y0042304D01*
X0046560Y0042314D02*
X0047652Y0042314D01*
X0047652Y0042324D02*
X0046560Y0042324D01*
X0046560Y0042334D02*
X0047652Y0042334D01*
X0047652Y0042344D02*
X0046560Y0042344D01*
X0046560Y0042354D02*
X0047652Y0042354D01*
X0047652Y0042364D02*
X0046560Y0042364D01*
X0046560Y0042374D02*
X0047652Y0042374D01*
X0047652Y0042384D02*
X0046560Y0042384D01*
X0046560Y0042394D02*
X0047652Y0042394D01*
X0047652Y0042404D02*
X0046560Y0042404D01*
X0046560Y0042414D02*
X0047652Y0042414D01*
X0047652Y0042424D02*
X0046560Y0042424D01*
X0046560Y0042434D02*
X0047652Y0042434D01*
X0047652Y0042444D02*
X0046560Y0042444D01*
X0046560Y0042454D02*
X0047652Y0042454D01*
X0047652Y0042464D02*
X0046560Y0042464D01*
X0046560Y0042474D02*
X0047652Y0042474D01*
X0047652Y0042484D02*
X0046560Y0042484D01*
X0046560Y0042494D02*
X0047652Y0042494D01*
X0047652Y0042504D02*
X0046560Y0042504D01*
X0046560Y0042514D02*
X0047652Y0042514D01*
X0047652Y0042524D02*
X0046560Y0042524D01*
X0046560Y0042534D02*
X0047652Y0042534D01*
X0047652Y0042544D02*
X0046560Y0042544D01*
X0045684Y0042552D02*
X0045684Y0039314D01*
X0044592Y0039314D01*
X0044592Y0042552D01*
X0045684Y0042552D01*
X0045684Y0039324D02*
X0044592Y0039324D01*
X0044592Y0039334D02*
X0045684Y0039334D01*
X0045684Y0039344D02*
X0044592Y0039344D01*
X0044592Y0039354D02*
X0045684Y0039354D01*
X0045684Y0039364D02*
X0044592Y0039364D01*
X0044592Y0039374D02*
X0045684Y0039374D01*
X0045684Y0039384D02*
X0044592Y0039384D01*
X0044592Y0039394D02*
X0045684Y0039394D01*
X0045684Y0039404D02*
X0044592Y0039404D01*
X0044592Y0039414D02*
X0045684Y0039414D01*
X0045684Y0039424D02*
X0044592Y0039424D01*
X0044592Y0039434D02*
X0045684Y0039434D01*
X0045684Y0039444D02*
X0044592Y0039444D01*
X0044592Y0039454D02*
X0045684Y0039454D01*
X0045684Y0039464D02*
X0044592Y0039464D01*
X0044592Y0039474D02*
X0045684Y0039474D01*
X0045684Y0039484D02*
X0044592Y0039484D01*
X0044592Y0039494D02*
X0045684Y0039494D01*
X0045684Y0039504D02*
X0044592Y0039504D01*
X0044592Y0039514D02*
X0045684Y0039514D01*
X0045684Y0039524D02*
X0044592Y0039524D01*
X0044592Y0039534D02*
X0045684Y0039534D01*
X0045684Y0039544D02*
X0044592Y0039544D01*
X0044592Y0039554D02*
X0045684Y0039554D01*
X0045684Y0039564D02*
X0044592Y0039564D01*
X0044592Y0039574D02*
X0045684Y0039574D01*
X0045684Y0039584D02*
X0044592Y0039584D01*
X0044592Y0039594D02*
X0045684Y0039594D01*
X0045684Y0039604D02*
X0044592Y0039604D01*
X0044592Y0039614D02*
X0045684Y0039614D01*
X0045684Y0039624D02*
X0044592Y0039624D01*
X0044592Y0039634D02*
X0045684Y0039634D01*
X0045684Y0039644D02*
X0044592Y0039644D01*
X0044592Y0039654D02*
X0045684Y0039654D01*
X0045684Y0039664D02*
X0044592Y0039664D01*
X0044592Y0039674D02*
X0045684Y0039674D01*
X0045684Y0039684D02*
X0044592Y0039684D01*
X0044592Y0039694D02*
X0045684Y0039694D01*
X0045684Y0039704D02*
X0044592Y0039704D01*
X0044592Y0039714D02*
X0045684Y0039714D01*
X0045684Y0039724D02*
X0044592Y0039724D01*
X0044592Y0039734D02*
X0045684Y0039734D01*
X0045684Y0039744D02*
X0044592Y0039744D01*
X0044592Y0039754D02*
X0045684Y0039754D01*
X0045684Y0039764D02*
X0044592Y0039764D01*
X0044592Y0039774D02*
X0045684Y0039774D01*
X0045684Y0039784D02*
X0044592Y0039784D01*
X0044592Y0039794D02*
X0045684Y0039794D01*
X0045684Y0039804D02*
X0044592Y0039804D01*
X0044592Y0039814D02*
X0045684Y0039814D01*
X0045684Y0039824D02*
X0044592Y0039824D01*
X0044592Y0039834D02*
X0045684Y0039834D01*
X0045684Y0039844D02*
X0044592Y0039844D01*
X0044592Y0039854D02*
X0045684Y0039854D01*
X0045684Y0039864D02*
X0044592Y0039864D01*
X0044592Y0039874D02*
X0045684Y0039874D01*
X0045684Y0039884D02*
X0044592Y0039884D01*
X0044592Y0039894D02*
X0045684Y0039894D01*
X0045684Y0039904D02*
X0044592Y0039904D01*
X0044592Y0039914D02*
X0045684Y0039914D01*
X0045684Y0039924D02*
X0044592Y0039924D01*
X0044592Y0039934D02*
X0045684Y0039934D01*
X0045684Y0039944D02*
X0044592Y0039944D01*
X0044592Y0039954D02*
X0045684Y0039954D01*
X0045684Y0039964D02*
X0044592Y0039964D01*
X0044592Y0039974D02*
X0045684Y0039974D01*
X0045684Y0039984D02*
X0044592Y0039984D01*
X0044592Y0039994D02*
X0045684Y0039994D01*
X0045684Y0040004D02*
X0044592Y0040004D01*
X0044592Y0040014D02*
X0045684Y0040014D01*
X0045684Y0040024D02*
X0044592Y0040024D01*
X0044592Y0040034D02*
X0045684Y0040034D01*
X0045684Y0040044D02*
X0044592Y0040044D01*
X0044592Y0040054D02*
X0045684Y0040054D01*
X0045684Y0040064D02*
X0044592Y0040064D01*
X0044592Y0040074D02*
X0045684Y0040074D01*
X0045684Y0040084D02*
X0044592Y0040084D01*
X0044592Y0040094D02*
X0045684Y0040094D01*
X0045684Y0040104D02*
X0044592Y0040104D01*
X0044592Y0040114D02*
X0045684Y0040114D01*
X0045684Y0040124D02*
X0044592Y0040124D01*
X0044592Y0040134D02*
X0045684Y0040134D01*
X0045684Y0040144D02*
X0044592Y0040144D01*
X0044592Y0040154D02*
X0045684Y0040154D01*
X0045684Y0040164D02*
X0044592Y0040164D01*
X0044592Y0040174D02*
X0045684Y0040174D01*
X0045684Y0040184D02*
X0044592Y0040184D01*
X0044592Y0040194D02*
X0045684Y0040194D01*
X0045684Y0040204D02*
X0044592Y0040204D01*
X0044592Y0040214D02*
X0045684Y0040214D01*
X0045684Y0040224D02*
X0044592Y0040224D01*
X0044592Y0040234D02*
X0045684Y0040234D01*
X0045684Y0040244D02*
X0044592Y0040244D01*
X0044592Y0040254D02*
X0045684Y0040254D01*
X0045684Y0040264D02*
X0044592Y0040264D01*
X0044592Y0040274D02*
X0045684Y0040274D01*
X0045684Y0040284D02*
X0044592Y0040284D01*
X0044592Y0040294D02*
X0045684Y0040294D01*
X0045684Y0040304D02*
X0044592Y0040304D01*
X0044592Y0040314D02*
X0045684Y0040314D01*
X0045684Y0040324D02*
X0044592Y0040324D01*
X0044592Y0040334D02*
X0045684Y0040334D01*
X0045684Y0040344D02*
X0044592Y0040344D01*
X0044592Y0040354D02*
X0045684Y0040354D01*
X0045684Y0040364D02*
X0044592Y0040364D01*
X0044592Y0040374D02*
X0045684Y0040374D01*
X0045684Y0040384D02*
X0044592Y0040384D01*
X0044592Y0040394D02*
X0045684Y0040394D01*
X0045684Y0040404D02*
X0044592Y0040404D01*
X0044592Y0040414D02*
X0045684Y0040414D01*
X0045684Y0040424D02*
X0044592Y0040424D01*
X0044592Y0040434D02*
X0045684Y0040434D01*
X0045684Y0040444D02*
X0044592Y0040444D01*
X0044592Y0040454D02*
X0045684Y0040454D01*
X0045684Y0040464D02*
X0044592Y0040464D01*
X0044592Y0040474D02*
X0045684Y0040474D01*
X0045684Y0040484D02*
X0044592Y0040484D01*
X0044592Y0040494D02*
X0045684Y0040494D01*
X0045684Y0040504D02*
X0044592Y0040504D01*
X0044592Y0040514D02*
X0045684Y0040514D01*
X0045684Y0040524D02*
X0044592Y0040524D01*
X0044592Y0040534D02*
X0045684Y0040534D01*
X0045684Y0040544D02*
X0044592Y0040544D01*
X0044592Y0040554D02*
X0045684Y0040554D01*
X0045684Y0040564D02*
X0044592Y0040564D01*
X0044592Y0040574D02*
X0045684Y0040574D01*
X0045684Y0040584D02*
X0044592Y0040584D01*
X0044592Y0040594D02*
X0045684Y0040594D01*
X0045684Y0040604D02*
X0044592Y0040604D01*
X0044592Y0040614D02*
X0045684Y0040614D01*
X0045684Y0040624D02*
X0044592Y0040624D01*
X0044592Y0040634D02*
X0045684Y0040634D01*
X0045684Y0040644D02*
X0044592Y0040644D01*
X0044592Y0040654D02*
X0045684Y0040654D01*
X0045684Y0040664D02*
X0044592Y0040664D01*
X0044592Y0040674D02*
X0045684Y0040674D01*
X0045684Y0040684D02*
X0044592Y0040684D01*
X0044592Y0040694D02*
X0045684Y0040694D01*
X0045684Y0040704D02*
X0044592Y0040704D01*
X0044592Y0040714D02*
X0045684Y0040714D01*
X0045684Y0040724D02*
X0044592Y0040724D01*
X0044592Y0040734D02*
X0045684Y0040734D01*
X0045684Y0040744D02*
X0044592Y0040744D01*
X0044592Y0040754D02*
X0045684Y0040754D01*
X0045684Y0040764D02*
X0044592Y0040764D01*
X0044592Y0040774D02*
X0045684Y0040774D01*
X0045684Y0040784D02*
X0044592Y0040784D01*
X0044592Y0040794D02*
X0045684Y0040794D01*
X0045684Y0040804D02*
X0044592Y0040804D01*
X0044592Y0040814D02*
X0045684Y0040814D01*
X0045684Y0040824D02*
X0044592Y0040824D01*
X0044592Y0040834D02*
X0045684Y0040834D01*
X0045684Y0040844D02*
X0044592Y0040844D01*
X0044592Y0040854D02*
X0045684Y0040854D01*
X0045684Y0040864D02*
X0044592Y0040864D01*
X0044592Y0040874D02*
X0045684Y0040874D01*
X0045684Y0040884D02*
X0044592Y0040884D01*
X0044592Y0040894D02*
X0045684Y0040894D01*
X0045684Y0040904D02*
X0044592Y0040904D01*
X0044592Y0040914D02*
X0045684Y0040914D01*
X0045684Y0040924D02*
X0044592Y0040924D01*
X0044592Y0040934D02*
X0045684Y0040934D01*
X0045684Y0040944D02*
X0044592Y0040944D01*
X0044592Y0040954D02*
X0045684Y0040954D01*
X0045684Y0040964D02*
X0044592Y0040964D01*
X0044592Y0040974D02*
X0045684Y0040974D01*
X0045684Y0040984D02*
X0044592Y0040984D01*
X0044592Y0040994D02*
X0045684Y0040994D01*
X0045684Y0041004D02*
X0044592Y0041004D01*
X0044592Y0041014D02*
X0045684Y0041014D01*
X0045684Y0041024D02*
X0044592Y0041024D01*
X0044592Y0041034D02*
X0045684Y0041034D01*
X0045684Y0041044D02*
X0044592Y0041044D01*
X0044592Y0041054D02*
X0045684Y0041054D01*
X0045684Y0041064D02*
X0044592Y0041064D01*
X0044592Y0041074D02*
X0045684Y0041074D01*
X0045684Y0041084D02*
X0044592Y0041084D01*
X0044592Y0041094D02*
X0045684Y0041094D01*
X0045684Y0041104D02*
X0044592Y0041104D01*
X0044592Y0041114D02*
X0045684Y0041114D01*
X0045684Y0041124D02*
X0044592Y0041124D01*
X0044592Y0041134D02*
X0045684Y0041134D01*
X0045684Y0041144D02*
X0044592Y0041144D01*
X0044592Y0041154D02*
X0045684Y0041154D01*
X0045684Y0041164D02*
X0044592Y0041164D01*
X0044592Y0041174D02*
X0045684Y0041174D01*
X0045684Y0041184D02*
X0044592Y0041184D01*
X0044592Y0041194D02*
X0045684Y0041194D01*
X0045684Y0041204D02*
X0044592Y0041204D01*
X0044592Y0041214D02*
X0045684Y0041214D01*
X0045684Y0041224D02*
X0044592Y0041224D01*
X0044592Y0041234D02*
X0045684Y0041234D01*
X0045684Y0041244D02*
X0044592Y0041244D01*
X0044592Y0041254D02*
X0045684Y0041254D01*
X0045684Y0041264D02*
X0044592Y0041264D01*
X0044592Y0041274D02*
X0045684Y0041274D01*
X0045684Y0041284D02*
X0044592Y0041284D01*
X0044592Y0041294D02*
X0045684Y0041294D01*
X0045684Y0041304D02*
X0044592Y0041304D01*
X0044592Y0041314D02*
X0045684Y0041314D01*
X0045684Y0041324D02*
X0044592Y0041324D01*
X0044592Y0041334D02*
X0045684Y0041334D01*
X0045684Y0041344D02*
X0044592Y0041344D01*
X0044592Y0041354D02*
X0045684Y0041354D01*
X0045684Y0041364D02*
X0044592Y0041364D01*
X0044592Y0041374D02*
X0045684Y0041374D01*
X0045684Y0041384D02*
X0044592Y0041384D01*
X0044592Y0041394D02*
X0045684Y0041394D01*
X0045684Y0041404D02*
X0044592Y0041404D01*
X0044592Y0041414D02*
X0045684Y0041414D01*
X0045684Y0041424D02*
X0044592Y0041424D01*
X0044592Y0041434D02*
X0045684Y0041434D01*
X0045684Y0041444D02*
X0044592Y0041444D01*
X0044592Y0041454D02*
X0045684Y0041454D01*
X0045684Y0041464D02*
X0044592Y0041464D01*
X0044592Y0041474D02*
X0045684Y0041474D01*
X0045684Y0041484D02*
X0044592Y0041484D01*
X0044592Y0041494D02*
X0045684Y0041494D01*
X0045684Y0041504D02*
X0044592Y0041504D01*
X0044592Y0041514D02*
X0045684Y0041514D01*
X0045684Y0041524D02*
X0044592Y0041524D01*
X0044592Y0041534D02*
X0045684Y0041534D01*
X0045684Y0041544D02*
X0044592Y0041544D01*
X0044592Y0041554D02*
X0045684Y0041554D01*
X0045684Y0041564D02*
X0044592Y0041564D01*
X0044592Y0041574D02*
X0045684Y0041574D01*
X0045684Y0041584D02*
X0044592Y0041584D01*
X0044592Y0041594D02*
X0045684Y0041594D01*
X0045684Y0041604D02*
X0044592Y0041604D01*
X0044592Y0041614D02*
X0045684Y0041614D01*
X0045684Y0041624D02*
X0044592Y0041624D01*
X0044592Y0041634D02*
X0045684Y0041634D01*
X0045684Y0041644D02*
X0044592Y0041644D01*
X0044592Y0041654D02*
X0045684Y0041654D01*
X0045684Y0041664D02*
X0044592Y0041664D01*
X0044592Y0041674D02*
X0045684Y0041674D01*
X0045684Y0041684D02*
X0044592Y0041684D01*
X0044592Y0041694D02*
X0045684Y0041694D01*
X0045684Y0041704D02*
X0044592Y0041704D01*
X0044592Y0041714D02*
X0045684Y0041714D01*
X0045684Y0041724D02*
X0044592Y0041724D01*
X0044592Y0041734D02*
X0045684Y0041734D01*
X0045684Y0041744D02*
X0044592Y0041744D01*
X0044592Y0041754D02*
X0045684Y0041754D01*
X0045684Y0041764D02*
X0044592Y0041764D01*
X0044592Y0041774D02*
X0045684Y0041774D01*
X0045684Y0041784D02*
X0044592Y0041784D01*
X0044592Y0041794D02*
X0045684Y0041794D01*
X0045684Y0041804D02*
X0044592Y0041804D01*
X0044592Y0041814D02*
X0045684Y0041814D01*
X0045684Y0041824D02*
X0044592Y0041824D01*
X0044592Y0041834D02*
X0045684Y0041834D01*
X0045684Y0041844D02*
X0044592Y0041844D01*
X0044592Y0041854D02*
X0045684Y0041854D01*
X0045684Y0041864D02*
X0044592Y0041864D01*
X0044592Y0041874D02*
X0045684Y0041874D01*
X0045684Y0041884D02*
X0044592Y0041884D01*
X0044592Y0041894D02*
X0045684Y0041894D01*
X0045684Y0041904D02*
X0044592Y0041904D01*
X0044592Y0041914D02*
X0045684Y0041914D01*
X0045684Y0041924D02*
X0044592Y0041924D01*
X0044592Y0041934D02*
X0045684Y0041934D01*
X0045684Y0041944D02*
X0044592Y0041944D01*
X0044592Y0041954D02*
X0045684Y0041954D01*
X0045684Y0041964D02*
X0044592Y0041964D01*
X0044592Y0041974D02*
X0045684Y0041974D01*
X0045684Y0041984D02*
X0044592Y0041984D01*
X0044592Y0041994D02*
X0045684Y0041994D01*
X0045684Y0042004D02*
X0044592Y0042004D01*
X0044592Y0042014D02*
X0045684Y0042014D01*
X0045684Y0042024D02*
X0044592Y0042024D01*
X0044592Y0042034D02*
X0045684Y0042034D01*
X0045684Y0042044D02*
X0044592Y0042044D01*
X0044592Y0042054D02*
X0045684Y0042054D01*
X0045684Y0042064D02*
X0044592Y0042064D01*
X0044592Y0042074D02*
X0045684Y0042074D01*
X0045684Y0042084D02*
X0044592Y0042084D01*
X0044592Y0042094D02*
X0045684Y0042094D01*
X0045684Y0042104D02*
X0044592Y0042104D01*
X0044592Y0042114D02*
X0045684Y0042114D01*
X0045684Y0042124D02*
X0044592Y0042124D01*
X0044592Y0042134D02*
X0045684Y0042134D01*
X0045684Y0042144D02*
X0044592Y0042144D01*
X0044592Y0042154D02*
X0045684Y0042154D01*
X0045684Y0042164D02*
X0044592Y0042164D01*
X0044592Y0042174D02*
X0045684Y0042174D01*
X0045684Y0042184D02*
X0044592Y0042184D01*
X0044592Y0042194D02*
X0045684Y0042194D01*
X0045684Y0042204D02*
X0044592Y0042204D01*
X0044592Y0042214D02*
X0045684Y0042214D01*
X0045684Y0042224D02*
X0044592Y0042224D01*
X0044592Y0042234D02*
X0045684Y0042234D01*
X0045684Y0042244D02*
X0044592Y0042244D01*
X0044592Y0042254D02*
X0045684Y0042254D01*
X0045684Y0042264D02*
X0044592Y0042264D01*
X0044592Y0042274D02*
X0045684Y0042274D01*
X0045684Y0042284D02*
X0044592Y0042284D01*
X0044592Y0042294D02*
X0045684Y0042294D01*
X0045684Y0042304D02*
X0044592Y0042304D01*
X0044592Y0042314D02*
X0045684Y0042314D01*
X0045684Y0042324D02*
X0044592Y0042324D01*
X0044592Y0042334D02*
X0045684Y0042334D01*
X0045684Y0042344D02*
X0044592Y0042344D01*
X0044592Y0042354D02*
X0045684Y0042354D01*
X0045684Y0042364D02*
X0044592Y0042364D01*
X0044592Y0042374D02*
X0045684Y0042374D01*
X0045684Y0042384D02*
X0044592Y0042384D01*
X0044592Y0042394D02*
X0045684Y0042394D01*
X0045684Y0042404D02*
X0044592Y0042404D01*
X0044592Y0042414D02*
X0045684Y0042414D01*
X0045684Y0042424D02*
X0044592Y0042424D01*
X0044592Y0042434D02*
X0045684Y0042434D01*
X0045684Y0042444D02*
X0044592Y0042444D01*
X0044592Y0042454D02*
X0045684Y0042454D01*
X0045684Y0042464D02*
X0044592Y0042464D01*
X0044592Y0042474D02*
X0045684Y0042474D01*
X0045684Y0042484D02*
X0044592Y0042484D01*
X0044592Y0042494D02*
X0045684Y0042494D01*
X0045684Y0042504D02*
X0044592Y0042504D01*
X0044592Y0042514D02*
X0045684Y0042514D01*
X0045684Y0042524D02*
X0044592Y0042524D01*
X0044592Y0042534D02*
X0045684Y0042534D01*
X0045684Y0042544D02*
X0044592Y0042544D01*
D15*
X0034425Y0017675D03*
X0043725Y0017675D03*
D16*
X0054375Y0016153D03*
X0054375Y0010247D03*
X0089647Y0052850D03*
X0095553Y0052850D03*
X0132300Y0119297D03*
X0137800Y0119197D03*
X0137800Y0125103D03*
X0132300Y0125203D03*
D17*
X0137700Y0033350D03*
X0139600Y0033350D03*
X0141600Y0033350D03*
X0143600Y0033350D03*
X0145600Y0033350D03*
X0147500Y0033350D03*
X0147500Y0025350D03*
X0145600Y0025350D03*
X0143600Y0025350D03*
X0141600Y0025350D03*
X0139600Y0025350D03*
X0137700Y0025350D03*
X0107400Y0025350D03*
X0105500Y0025350D03*
X0103500Y0025350D03*
X0101500Y0025350D03*
X0099500Y0025350D03*
X0097600Y0025350D03*
X0097600Y0033350D03*
X0099500Y0033350D03*
X0101500Y0033350D03*
X0103500Y0033350D03*
X0105500Y0033350D03*
X0107400Y0033350D03*
X0177600Y0033550D03*
X0179500Y0033550D03*
X0181500Y0033550D03*
X0183500Y0033550D03*
X0185500Y0033550D03*
X0187400Y0033550D03*
X0187400Y0025550D03*
X0185500Y0025550D03*
X0183500Y0025550D03*
X0181500Y0025550D03*
X0179500Y0025550D03*
X0177600Y0025550D03*
X0217700Y0025450D03*
X0219600Y0025450D03*
X0221600Y0025450D03*
X0223600Y0025450D03*
X0225600Y0025450D03*
X0227500Y0025450D03*
X0227500Y0033450D03*
X0225600Y0033450D03*
X0223600Y0033450D03*
X0221600Y0033450D03*
X0219600Y0033450D03*
X0217700Y0033450D03*
D18*
X0222600Y0029450D03*
X0182500Y0029550D03*
X0142600Y0029350D03*
X0102500Y0029350D03*
D19*
X0045309Y0141544D03*
X0045309Y0147450D03*
X0045309Y0153356D03*
X0033891Y0153356D03*
X0033891Y0147450D03*
X0033891Y0141544D03*
D20*
X0039600Y0153356D03*
D21*
X0025213Y0149350D03*
X0014387Y0149350D03*
D22*
X0065247Y0117256D03*
X0067216Y0117256D03*
X0069184Y0117256D03*
X0071153Y0117256D03*
X0071153Y0105444D03*
X0069184Y0105444D03*
X0067216Y0105444D03*
X0065247Y0105444D03*
D23*
X0062294Y0108397D03*
X0062294Y0110366D03*
X0062294Y0112334D03*
X0062294Y0114303D03*
X0074106Y0114303D03*
X0074106Y0112334D03*
X0074106Y0110366D03*
X0074106Y0108397D03*
D24*
X0067721Y0091224D03*
X0065753Y0091224D03*
X0063784Y0091224D03*
X0061816Y0091224D03*
X0059847Y0091224D03*
X0057879Y0091224D03*
X0057879Y0075476D03*
X0059847Y0075476D03*
X0061816Y0075476D03*
X0063784Y0075476D03*
X0065753Y0075476D03*
X0067721Y0075476D03*
D25*
X0070576Y0078429D03*
X0070576Y0080397D03*
X0070576Y0082366D03*
X0070576Y0084334D03*
X0070576Y0086303D03*
X0070576Y0088271D03*
X0055024Y0088271D03*
X0055024Y0086303D03*
X0055024Y0084334D03*
X0055024Y0082366D03*
X0055024Y0080397D03*
X0055024Y0078429D03*
D26*
X0062800Y0083350D03*
D27*
X0134991Y0083150D03*
X0134991Y0081181D03*
X0134991Y0079213D03*
X0134991Y0077244D03*
X0134991Y0075276D03*
X0134991Y0073307D03*
X0134991Y0071339D03*
X0134991Y0069370D03*
X0134991Y0067402D03*
X0134991Y0065433D03*
X0134991Y0063465D03*
X0134991Y0061496D03*
X0134991Y0059528D03*
X0134991Y0085119D03*
X0134991Y0087087D03*
X0134991Y0089056D03*
X0134991Y0091024D03*
X0134991Y0092993D03*
X0134991Y0094961D03*
X0134991Y0096930D03*
X0134991Y0098898D03*
X0134991Y0100867D03*
X0134991Y0102835D03*
X0134991Y0104804D03*
X0134991Y0106772D03*
X0196409Y0106772D03*
X0196409Y0104804D03*
X0196409Y0102835D03*
X0196409Y0100867D03*
X0196409Y0098898D03*
X0196409Y0096930D03*
X0196409Y0094961D03*
X0196409Y0092993D03*
X0196409Y0091024D03*
X0196409Y0089056D03*
X0196409Y0087087D03*
X0196409Y0085119D03*
X0196409Y0083150D03*
X0196409Y0081181D03*
X0196409Y0079213D03*
X0196409Y0077244D03*
X0196409Y0075276D03*
X0196409Y0073307D03*
X0196409Y0071339D03*
X0196409Y0069370D03*
X0196409Y0067402D03*
X0196409Y0065433D03*
X0196409Y0063465D03*
X0196409Y0061496D03*
X0196409Y0059528D03*
D28*
X0189322Y0052441D03*
X0187354Y0052441D03*
X0185385Y0052441D03*
X0183417Y0052441D03*
X0181448Y0052441D03*
X0179480Y0052441D03*
X0177511Y0052441D03*
X0175543Y0052441D03*
X0173574Y0052441D03*
X0171606Y0052441D03*
X0169637Y0052441D03*
X0167669Y0052441D03*
X0165700Y0052441D03*
X0163731Y0052441D03*
X0161763Y0052441D03*
X0159794Y0052441D03*
X0157826Y0052441D03*
X0155857Y0052441D03*
X0153889Y0052441D03*
X0151920Y0052441D03*
X0149952Y0052441D03*
X0147983Y0052441D03*
X0146015Y0052441D03*
X0144046Y0052441D03*
X0142078Y0052441D03*
X0142078Y0113859D03*
X0144046Y0113859D03*
X0146015Y0113859D03*
X0147983Y0113859D03*
X0149952Y0113859D03*
X0151920Y0113859D03*
X0153889Y0113859D03*
X0155857Y0113859D03*
X0157826Y0113859D03*
X0159794Y0113859D03*
X0161763Y0113859D03*
X0163731Y0113859D03*
X0165700Y0113859D03*
X0167669Y0113859D03*
X0169637Y0113859D03*
X0171606Y0113859D03*
X0173574Y0113859D03*
X0175543Y0113859D03*
X0177511Y0113859D03*
X0179480Y0113859D03*
X0181448Y0113859D03*
X0183417Y0113859D03*
X0185385Y0113859D03*
X0187354Y0113859D03*
X0189322Y0113859D03*
D29*
X0122659Y0088850D03*
X0117541Y0088850D03*
X0117141Y0097050D03*
X0122259Y0097050D03*
X0122259Y0102050D03*
X0117141Y0102050D03*
X0117541Y0075250D03*
X0122659Y0075250D03*
D30*
X0123441Y0080300D03*
X0123441Y0084000D03*
D31*
X0100882Y0082150D03*
D32*
X0237400Y0079450D03*
X0242400Y0079450D03*
X0247400Y0079450D03*
X0252400Y0079450D03*
X0252400Y0111300D03*
X0247400Y0111300D03*
X0242400Y0111300D03*
X0237400Y0111300D03*
D33*
X0045000Y0119850D03*
X0045000Y0123750D03*
X0045000Y0127650D03*
X0033600Y0127650D03*
X0033600Y0123750D03*
X0033600Y0119850D03*
D34*
X0039300Y0123750D03*
M02*
