G75*
%MOIN*%
%OFA0B0*%
%FSLAX24Y24*%
%IPPOS*%
%LPD*%
%AMOC8*
5,1,8,0,0,1.08239X$1,22.5*
%
%ADD10R,0.0433X0.0394*%
%ADD11R,0.0394X0.0433*%
%ADD12R,0.0472X0.0118*%
%ADD13R,0.0710X0.0630*%
%ADD14R,0.2126X0.2441*%
%ADD15R,0.0394X0.0630*%
%ADD16R,0.0551X0.0276*%
%ADD17R,0.0709X0.0630*%
%ADD18R,0.0630X0.0709*%
%ADD19R,0.0344X0.0098*%
%ADD20R,0.0130X0.0600*%
%ADD21R,0.0130X0.0300*%
%ADD22R,0.0118X0.0295*%
%ADD23R,0.0295X0.0118*%
%ADD24R,0.1516X0.2165*%
%ADD25R,0.2165X0.1516*%
%ADD26R,0.1000X0.1050*%
%ADD27R,0.0500X0.0250*%
%ADD28R,0.0480X0.0880*%
%ADD29R,0.1417X0.0866*%
%ADD30R,0.0118X0.0472*%
%ADD31R,0.0630X0.0710*%
D10*
X007295Y006380D03*
X007965Y006380D03*
X008795Y008630D03*
X009465Y008630D03*
X009465Y009630D03*
X008795Y009630D03*
X012295Y010880D03*
X012965Y010880D03*
X016930Y009415D03*
X016930Y008745D03*
X017295Y007130D03*
X017965Y007130D03*
X016130Y006965D03*
X016130Y006295D03*
X016130Y005465D03*
X016130Y004795D03*
X017295Y005630D03*
X017965Y005630D03*
X019880Y004215D03*
X019880Y003545D03*
X019630Y002965D03*
X019630Y002295D03*
X021130Y006545D03*
X021130Y007215D03*
X023030Y008795D03*
X023030Y009465D03*
X024380Y010795D03*
X024380Y011465D03*
X023380Y011295D03*
X023380Y011965D03*
X013130Y004965D03*
X013130Y004295D03*
X011630Y004465D03*
X011630Y003795D03*
X009965Y003130D03*
X009295Y003130D03*
X008465Y016630D03*
X007795Y016630D03*
D11*
X007795Y015630D03*
X008465Y015630D03*
X013295Y014130D03*
X013965Y014130D03*
X014880Y014045D03*
X014880Y014715D03*
X015545Y009630D03*
X016215Y009630D03*
X020295Y008880D03*
X020965Y008880D03*
X020130Y006715D03*
X020130Y006045D03*
X022380Y004215D03*
X022380Y003545D03*
X022565Y002030D03*
X021895Y002030D03*
X021215Y001980D03*
X020545Y001980D03*
X019865Y001580D03*
X019195Y001580D03*
X017965Y001780D03*
X017295Y001780D03*
X017045Y003380D03*
X017715Y003380D03*
X014565Y005130D03*
X013895Y005130D03*
X011565Y003130D03*
X010895Y003130D03*
X011215Y001280D03*
X010545Y001280D03*
X009465Y005130D03*
X008795Y005130D03*
X009130Y006545D03*
X009130Y007215D03*
X007965Y007380D03*
X007295Y007380D03*
X010880Y006465D03*
X010880Y005795D03*
X003215Y010880D03*
X002545Y010880D03*
X001965Y011130D03*
X001295Y011130D03*
D12*
X011798Y011747D03*
X011798Y012002D03*
X011798Y012258D03*
X011798Y012514D03*
X013461Y012514D03*
X013461Y012258D03*
X013461Y012002D03*
X013461Y011747D03*
X014272Y009402D03*
X014272Y009205D03*
X014272Y009008D03*
X014272Y008811D03*
X014272Y008614D03*
X014272Y008417D03*
X014272Y008221D03*
X014272Y008024D03*
X014272Y007827D03*
X014272Y007630D03*
X014272Y007433D03*
X014272Y007236D03*
X014272Y007039D03*
X014272Y006843D03*
X014272Y006646D03*
X014272Y006449D03*
X014272Y006252D03*
X014272Y006055D03*
X014272Y005858D03*
X011988Y005858D03*
X011988Y006055D03*
X011988Y006252D03*
X011988Y006449D03*
X011988Y006646D03*
X011988Y006843D03*
X011988Y007039D03*
X011988Y007236D03*
X011988Y007433D03*
X011988Y007630D03*
X011988Y007827D03*
X011988Y008024D03*
X011988Y008221D03*
X011988Y008417D03*
X011988Y008614D03*
X011988Y008811D03*
X011988Y009008D03*
X011988Y009205D03*
X011988Y009402D03*
D13*
X011630Y015070D03*
X011630Y016190D03*
X010130Y016190D03*
X010130Y015070D03*
D14*
X022630Y017114D03*
D15*
X021732Y014240D03*
X023528Y014240D03*
D16*
X010130Y009465D03*
X010130Y008795D03*
D17*
X008130Y004581D03*
X008130Y003479D03*
X004630Y012579D03*
X004630Y013681D03*
D18*
X003681Y013630D03*
X002579Y013630D03*
D19*
X008818Y004524D03*
X008818Y004327D03*
X008818Y004130D03*
X008818Y003933D03*
X008818Y003736D03*
X010442Y003736D03*
X010442Y003933D03*
X010442Y004130D03*
X010442Y004327D03*
X010442Y004524D03*
D20*
X003321Y012680D03*
X003085Y012680D03*
X002849Y012680D03*
D21*
X002789Y012090D03*
X002986Y012090D03*
X003183Y012090D03*
X003380Y012090D03*
D22*
X008624Y014006D03*
X008880Y014006D03*
X009136Y014006D03*
X009136Y014754D03*
X008880Y014754D03*
X008624Y014754D03*
D23*
X013506Y015374D03*
X013506Y015630D03*
X013506Y015886D03*
X014254Y015886D03*
X014254Y015630D03*
X014254Y015374D03*
D24*
X005589Y017130D03*
X001671Y017130D03*
D25*
X003630Y001671D03*
X003630Y005589D03*
D26*
X006880Y003126D03*
D27*
X006880Y004055D03*
D28*
X018720Y012850D03*
X019630Y012850D03*
X020540Y012850D03*
X020540Y016450D03*
X019630Y016450D03*
X018720Y016450D03*
D29*
X019630Y014010D03*
X019630Y010410D03*
D30*
X020746Y004711D03*
X021002Y004711D03*
X021258Y004711D03*
X021513Y004711D03*
X021513Y003048D03*
X021258Y003048D03*
X021002Y003048D03*
X020746Y003048D03*
D31*
X011790Y002080D03*
X010670Y002080D03*
M02*
