G75*
%MOIN*%
%OFA0B0*%
%FSLAX24Y24*%
%IPPOS*%
%LPD*%
%AMOC8*
5,1,8,0,0,1.08239X$1,22.5*
%
%ADD10C,0.0000*%
%ADD11C,0.0020*%
%ADD12C,0.0040*%
%ADD13C,0.0060*%
%ADD14C,0.0080*%
%ADD15R,0.0340X0.0300*%
%ADD16C,0.0050*%
%ADD17C,0.0138*%
%ADD18C,0.0157*%
%ADD19C,0.0010*%
%ADD20R,0.0220X0.0200*%
%ADD21R,0.0200X0.0200*%
%ADD22C,0.0100*%
%ADD23R,0.0827X0.0118*%
D10*
X000630Y000630D02*
X000630Y020126D01*
X025000Y020126D01*
X025000Y000630D01*
X000630Y000630D01*
D11*
X007324Y002322D02*
X007398Y002396D01*
X007324Y002469D01*
X007545Y002469D01*
X007545Y002543D02*
X007545Y002653D01*
X007508Y002690D01*
X007471Y002690D01*
X007435Y002653D01*
X007435Y002543D01*
X007545Y002543D02*
X007324Y002543D01*
X007324Y002653D01*
X007361Y002690D01*
X007398Y002690D01*
X007435Y002653D01*
X007471Y002764D02*
X007471Y002874D01*
X007435Y002911D01*
X007361Y002911D01*
X007324Y002874D01*
X007324Y002764D01*
X007545Y002764D01*
X007471Y002838D02*
X007545Y002911D01*
X007545Y002985D02*
X007324Y002985D01*
X007398Y003059D01*
X007324Y003132D01*
X007545Y003132D01*
X007545Y003206D02*
X007545Y003353D01*
X007545Y003280D02*
X007324Y003280D01*
X007398Y003206D01*
X007361Y003427D02*
X007324Y003464D01*
X007324Y003537D01*
X007361Y003574D01*
X007398Y003574D01*
X007545Y003427D01*
X007545Y003574D01*
X007508Y003648D02*
X007361Y003795D01*
X007508Y003795D01*
X007545Y003758D01*
X007545Y003685D01*
X007508Y003648D01*
X007361Y003648D01*
X007324Y003685D01*
X007324Y003758D01*
X007361Y003795D01*
X007324Y003869D02*
X007545Y003869D01*
X007545Y004016D01*
X007545Y004163D02*
X007324Y004163D01*
X007324Y004090D02*
X007324Y004237D01*
X007324Y004311D02*
X007324Y004384D01*
X007324Y004348D02*
X007545Y004348D01*
X007545Y004384D02*
X007545Y004311D01*
X007508Y004458D02*
X007361Y004458D01*
X007324Y004495D01*
X007324Y004568D01*
X007361Y004605D01*
X007435Y004605D02*
X007435Y004532D01*
X007435Y004605D02*
X007508Y004605D01*
X007545Y004568D01*
X007545Y004495D01*
X007508Y004458D01*
X007545Y002322D02*
X007324Y002322D01*
X012727Y001047D02*
X012727Y000900D01*
X012727Y001010D02*
X012874Y001010D01*
X012874Y001047D02*
X012874Y000900D01*
X012948Y000900D02*
X012948Y001120D01*
X013095Y000900D01*
X013095Y001120D01*
X013169Y001047D02*
X013242Y001120D01*
X013242Y000900D01*
X013169Y000900D02*
X013316Y000900D01*
X013727Y000900D02*
X013727Y001047D01*
X013800Y001120D01*
X013874Y001047D01*
X013874Y000900D01*
X013948Y000900D02*
X013948Y001120D01*
X014095Y000900D01*
X014095Y001120D01*
X014169Y001083D02*
X014206Y001120D01*
X014279Y001120D01*
X014316Y001083D01*
X014316Y001047D01*
X014169Y000900D01*
X014316Y000900D01*
X014727Y000900D02*
X014727Y001047D01*
X014800Y001120D01*
X014874Y001047D01*
X014874Y000900D01*
X014948Y000900D02*
X014948Y001120D01*
X015095Y000900D01*
X015095Y001120D01*
X015169Y001083D02*
X015206Y001120D01*
X015279Y001120D01*
X015316Y001083D01*
X015316Y001047D01*
X015279Y001010D01*
X015316Y000973D01*
X015316Y000937D01*
X015279Y000900D01*
X015206Y000900D01*
X015169Y000937D01*
X015242Y001010D02*
X015279Y001010D01*
X014874Y001010D02*
X014727Y001010D01*
X013874Y001010D02*
X013727Y001010D01*
X012874Y001047D02*
X012800Y001120D01*
X012727Y001047D01*
X015727Y001047D02*
X015727Y000900D01*
X015727Y001010D02*
X015874Y001010D01*
X015874Y001047D02*
X015874Y000900D01*
X015948Y000900D02*
X015948Y001120D01*
X016095Y000900D01*
X016095Y001120D01*
X016169Y001010D02*
X016316Y001010D01*
X016279Y000900D02*
X016279Y001120D01*
X016169Y001010D01*
X015874Y001047D02*
X015800Y001120D01*
X015727Y001047D01*
X020317Y004103D02*
X020340Y004080D01*
X020387Y004080D01*
X020410Y004103D01*
X020410Y004197D01*
X020387Y004220D01*
X020340Y004220D01*
X020317Y004197D01*
X020317Y004103D01*
X020464Y004080D02*
X020464Y004220D01*
X020534Y004220D01*
X020557Y004197D01*
X020557Y004150D01*
X020534Y004127D01*
X020464Y004127D01*
X020611Y004150D02*
X020705Y004150D01*
X020705Y004173D02*
X020705Y004080D01*
X020759Y004080D02*
X020852Y004173D01*
X020852Y004197D01*
X020829Y004220D01*
X020782Y004220D01*
X020759Y004197D01*
X020705Y004173D02*
X020658Y004220D01*
X020611Y004173D01*
X020611Y004080D01*
X020759Y004080D02*
X020852Y004080D01*
X020906Y004103D02*
X020929Y004080D01*
X020976Y004080D01*
X020999Y004103D01*
X020999Y004127D01*
X020976Y004150D01*
X020953Y004150D01*
X020976Y004150D02*
X020999Y004173D01*
X020999Y004197D01*
X020976Y004220D01*
X020929Y004220D01*
X020906Y004197D01*
X021053Y004197D02*
X021077Y004220D01*
X021123Y004220D01*
X021147Y004197D01*
X021147Y004173D01*
X021123Y004150D01*
X021100Y004150D01*
X021123Y004150D02*
X021147Y004127D01*
X021147Y004103D01*
X021123Y004080D01*
X021077Y004080D01*
X021053Y004103D01*
X021201Y004103D02*
X021224Y004080D01*
X021271Y004080D01*
X021294Y004103D01*
X021294Y004127D01*
X021271Y004150D01*
X021247Y004150D01*
X021271Y004150D02*
X021294Y004173D01*
X021294Y004197D01*
X021271Y004220D01*
X021224Y004220D01*
X021201Y004197D01*
X021348Y004220D02*
X021418Y004220D01*
X021441Y004197D01*
X021441Y004103D01*
X021418Y004080D01*
X021348Y004080D01*
X021348Y004220D01*
X021495Y004197D02*
X021495Y004103D01*
X021519Y004080D01*
X021565Y004080D01*
X021589Y004103D01*
X021589Y004150D01*
X021542Y004150D01*
X021495Y004197D02*
X021519Y004220D01*
X021565Y004220D01*
X021589Y004197D01*
X021643Y004220D02*
X021643Y004080D01*
X021643Y004127D02*
X021736Y004220D01*
X021666Y004150D02*
X021736Y004080D01*
X020561Y003569D02*
X020563Y003596D01*
X020569Y003623D01*
X020578Y003649D01*
X020591Y003673D01*
X020607Y003696D01*
X020626Y003715D01*
X020648Y003732D01*
X020672Y003746D01*
X020697Y003756D01*
X020724Y003763D01*
X020751Y003766D01*
X020779Y003765D01*
X020806Y003760D01*
X020832Y003752D01*
X020856Y003740D01*
X020879Y003724D01*
X020900Y003706D01*
X020917Y003685D01*
X020932Y003661D01*
X020943Y003636D01*
X020951Y003610D01*
X020955Y003583D01*
X020955Y003555D01*
X020951Y003528D01*
X020943Y003502D01*
X020932Y003477D01*
X020917Y003453D01*
X020900Y003432D01*
X020879Y003414D01*
X020857Y003398D01*
X020832Y003386D01*
X020806Y003378D01*
X020779Y003373D01*
X020751Y003372D01*
X020724Y003375D01*
X020697Y003382D01*
X020672Y003392D01*
X020648Y003406D01*
X020626Y003423D01*
X020607Y003442D01*
X020591Y003465D01*
X020578Y003489D01*
X020569Y003515D01*
X020563Y003542D01*
X020561Y003569D01*
X013260Y006109D02*
X013040Y006109D01*
X013113Y006183D01*
X013040Y006256D01*
X013260Y006256D01*
X013223Y006330D02*
X013260Y006367D01*
X013260Y006440D01*
X013223Y006477D01*
X013187Y006477D01*
X013150Y006440D01*
X013150Y006367D01*
X013113Y006330D01*
X013077Y006330D01*
X013040Y006367D01*
X013040Y006440D01*
X013077Y006477D01*
X013040Y006551D02*
X013040Y006661D01*
X013077Y006698D01*
X013150Y006698D01*
X013187Y006661D01*
X013187Y006551D01*
X013260Y006551D02*
X013040Y006551D01*
X013150Y006772D02*
X013040Y006882D01*
X013260Y006882D01*
X013150Y006919D02*
X013150Y006772D01*
X013223Y006993D02*
X013260Y007030D01*
X013260Y007103D01*
X013223Y007140D01*
X013187Y007140D01*
X013150Y007103D01*
X013150Y007066D01*
X013150Y007103D02*
X013113Y007140D01*
X013077Y007140D01*
X013040Y007103D01*
X013040Y007030D01*
X013077Y006993D01*
X013077Y007214D02*
X013040Y007251D01*
X013040Y007324D01*
X013077Y007361D01*
X013223Y007214D01*
X013260Y007251D01*
X013260Y007324D01*
X013223Y007361D01*
X013077Y007361D01*
X013077Y007435D02*
X013223Y007435D01*
X013260Y007472D01*
X013260Y007545D01*
X013223Y007582D01*
X013150Y007582D01*
X013150Y007508D01*
X013077Y007435D02*
X013040Y007472D01*
X013040Y007545D01*
X013077Y007582D01*
X013077Y007656D02*
X013040Y007693D01*
X013040Y007766D01*
X013077Y007803D01*
X013113Y007803D01*
X013260Y007656D01*
X013260Y007803D01*
X013223Y007877D02*
X013260Y007914D01*
X013260Y007987D01*
X013223Y008024D01*
X013150Y008024D01*
X013113Y007987D01*
X013113Y007950D01*
X013150Y007877D01*
X013040Y007877D01*
X013040Y008024D01*
X013150Y008098D02*
X013040Y008208D01*
X013260Y008208D01*
X013150Y008245D02*
X013150Y008098D01*
X013150Y008319D02*
X013040Y008429D01*
X013260Y008429D01*
X013150Y008466D02*
X013150Y008319D01*
X013223Y007214D02*
X013077Y007214D01*
X010716Y008486D02*
X010496Y008486D01*
X010496Y008633D01*
X010533Y008707D02*
X010680Y008707D01*
X010716Y008744D01*
X010716Y008818D01*
X010680Y008854D01*
X010606Y008928D02*
X010606Y009075D01*
X010570Y009149D02*
X010496Y009223D01*
X010716Y009223D01*
X010716Y009296D02*
X010716Y009149D01*
X010716Y009370D02*
X010570Y009517D01*
X010533Y009517D01*
X010496Y009481D01*
X010496Y009407D01*
X010533Y009370D01*
X010716Y009370D02*
X010716Y009517D01*
X010716Y009591D02*
X010496Y009591D01*
X010570Y009665D01*
X010496Y009738D01*
X010716Y009738D01*
X010533Y008854D02*
X010496Y008818D01*
X010496Y008744D01*
X010533Y008707D01*
X010606Y008560D02*
X010606Y008486D01*
X011940Y011280D02*
X011987Y011280D01*
X012010Y011303D01*
X012010Y011397D01*
X011987Y011420D01*
X011940Y011420D01*
X011917Y011397D01*
X011917Y011303D01*
X011940Y011280D01*
X012064Y011280D02*
X012064Y011420D01*
X012134Y011420D01*
X012157Y011397D01*
X012157Y011350D01*
X012134Y011327D01*
X012064Y011327D01*
X012211Y011350D02*
X012305Y011350D01*
X012305Y011373D02*
X012305Y011280D01*
X012359Y011280D02*
X012452Y011373D01*
X012452Y011397D01*
X012429Y011420D01*
X012382Y011420D01*
X012359Y011397D01*
X012305Y011373D02*
X012258Y011420D01*
X012211Y011373D01*
X012211Y011280D01*
X012359Y011280D02*
X012452Y011280D01*
X012506Y011303D02*
X012529Y011280D01*
X012576Y011280D01*
X012599Y011303D01*
X012599Y011327D01*
X012576Y011350D01*
X012553Y011350D01*
X012576Y011350D02*
X012599Y011373D01*
X012599Y011397D01*
X012576Y011420D01*
X012529Y011420D01*
X012506Y011397D01*
X012653Y011397D02*
X012677Y011420D01*
X012723Y011420D01*
X012747Y011397D01*
X012747Y011373D01*
X012723Y011350D01*
X012747Y011327D01*
X012747Y011303D01*
X012723Y011280D01*
X012677Y011280D01*
X012653Y011303D01*
X012700Y011350D02*
X012723Y011350D01*
X012801Y011303D02*
X012824Y011280D01*
X012871Y011280D01*
X012894Y011303D01*
X012894Y011327D01*
X012871Y011350D01*
X012847Y011350D01*
X012871Y011350D02*
X012894Y011373D01*
X012894Y011397D01*
X012871Y011420D01*
X012824Y011420D01*
X012801Y011397D01*
X012948Y011420D02*
X012948Y011280D01*
X013018Y011280D01*
X013041Y011303D01*
X013041Y011397D01*
X013018Y011420D01*
X012948Y011420D01*
X013095Y011397D02*
X013095Y011303D01*
X013119Y011280D01*
X013165Y011280D01*
X013189Y011303D01*
X013189Y011350D01*
X013142Y011350D01*
X013095Y011397D02*
X013119Y011420D01*
X013165Y011420D01*
X013189Y011397D01*
X013243Y011420D02*
X013243Y011280D01*
X013243Y011327D02*
X013336Y011420D01*
X013266Y011350D02*
X013336Y011280D01*
X012122Y012502D02*
X012124Y012529D01*
X012130Y012556D01*
X012139Y012582D01*
X012152Y012606D01*
X012168Y012629D01*
X012187Y012648D01*
X012209Y012665D01*
X012233Y012679D01*
X012258Y012689D01*
X012285Y012696D01*
X012312Y012699D01*
X012340Y012698D01*
X012367Y012693D01*
X012393Y012685D01*
X012417Y012673D01*
X012440Y012657D01*
X012461Y012639D01*
X012478Y012618D01*
X012493Y012594D01*
X012504Y012569D01*
X012512Y012543D01*
X012516Y012516D01*
X012516Y012488D01*
X012512Y012461D01*
X012504Y012435D01*
X012493Y012410D01*
X012478Y012386D01*
X012461Y012365D01*
X012440Y012347D01*
X012418Y012331D01*
X012393Y012319D01*
X012367Y012311D01*
X012340Y012306D01*
X012312Y012305D01*
X012285Y012308D01*
X012258Y012315D01*
X012233Y012325D01*
X012209Y012339D01*
X012187Y012356D01*
X012168Y012375D01*
X012152Y012398D01*
X012139Y012422D01*
X012130Y012448D01*
X012124Y012475D01*
X012122Y012502D01*
X016360Y012080D02*
X016360Y011933D01*
X016433Y011860D01*
X016507Y011933D01*
X016507Y012080D01*
X016581Y012043D02*
X016581Y011897D01*
X016618Y011860D01*
X016691Y011860D01*
X016728Y011897D01*
X016802Y011897D02*
X016802Y012043D01*
X016839Y012080D01*
X016912Y012080D01*
X016949Y012043D01*
X016949Y011897D02*
X016912Y011860D01*
X016839Y011860D01*
X016802Y011897D01*
X016728Y012043D02*
X016691Y012080D01*
X016618Y012080D01*
X016581Y012043D01*
X017441Y012140D02*
X017441Y011920D01*
X017588Y011920D02*
X017441Y012140D01*
X017588Y012140D02*
X017588Y011920D01*
X017662Y012030D02*
X017809Y012030D01*
X017883Y012030D02*
X018030Y012030D01*
X018104Y012030D02*
X018178Y012030D01*
X018104Y011920D02*
X018251Y011920D01*
X018325Y011920D02*
X018472Y012140D01*
X018546Y012140D02*
X018693Y012140D01*
X018767Y012140D02*
X018767Y011920D01*
X018914Y011920D01*
X018841Y012030D02*
X018767Y012030D01*
X018767Y012140D02*
X018914Y012140D01*
X018988Y012140D02*
X019135Y012140D01*
X019062Y012140D02*
X019062Y011920D01*
X019209Y012030D02*
X019356Y012030D01*
X019430Y012103D02*
X019467Y012140D01*
X019540Y012140D01*
X019577Y012103D01*
X019577Y012067D01*
X019430Y011920D01*
X019577Y011920D01*
X019651Y011920D02*
X019651Y012140D01*
X019761Y012140D01*
X019798Y012103D01*
X019798Y011957D01*
X019761Y011920D01*
X019651Y011920D01*
X019872Y011883D02*
X020019Y011883D01*
X020093Y011957D02*
X020130Y011920D01*
X020203Y011920D01*
X020240Y011957D01*
X020240Y011993D01*
X020203Y012030D01*
X020130Y012030D01*
X020093Y012067D01*
X020093Y012103D01*
X020130Y012140D01*
X020203Y012140D01*
X020240Y012103D01*
X020314Y012103D02*
X020314Y011957D01*
X020351Y011920D01*
X020424Y011920D01*
X020461Y011957D01*
X020461Y012103D01*
X020424Y012140D01*
X020351Y012140D01*
X020314Y012103D01*
X020535Y012140D02*
X020682Y012140D01*
X020608Y012140D02*
X020608Y011920D01*
X020756Y011920D02*
X020903Y012067D01*
X020903Y012103D01*
X020866Y012140D01*
X020793Y012140D01*
X020756Y012103D01*
X020756Y011920D02*
X020903Y011920D01*
X020977Y011957D02*
X021014Y011920D01*
X021087Y011920D01*
X021124Y011957D01*
X021124Y011993D01*
X021087Y012030D01*
X021050Y012030D01*
X021087Y012030D02*
X021124Y012067D01*
X021124Y012103D01*
X021087Y012140D01*
X021014Y012140D01*
X020977Y012103D01*
X021198Y012103D02*
X021235Y012140D01*
X021308Y012140D01*
X021345Y012103D01*
X021345Y012067D01*
X021198Y011920D01*
X021345Y011920D01*
X021419Y012030D02*
X021566Y012030D01*
X023710Y010080D02*
X023710Y009933D01*
X023783Y009860D01*
X023857Y009933D01*
X023857Y010080D01*
X023931Y010080D02*
X024041Y010080D01*
X024078Y010043D01*
X024078Y009970D01*
X024041Y009933D01*
X023931Y009933D01*
X023931Y009860D02*
X023931Y010080D01*
X024004Y009933D02*
X024078Y009860D01*
X024152Y009860D02*
X024299Y009860D01*
X024373Y009860D02*
X024373Y010080D01*
X024520Y010080D01*
X024446Y009970D02*
X024373Y009970D01*
X024299Y010080D02*
X024152Y010080D01*
X024152Y009860D01*
X024152Y009970D02*
X024225Y009970D01*
X018620Y012030D02*
X018546Y012030D01*
X018546Y011920D02*
X018546Y012140D01*
X018325Y012140D02*
X018472Y011920D01*
X018251Y012140D02*
X018104Y012140D01*
X018104Y011920D01*
X018030Y011920D02*
X018030Y012140D01*
X017883Y012140D02*
X017883Y011920D01*
X017854Y015520D02*
X018001Y015520D01*
X018075Y015520D02*
X018222Y015740D01*
X018296Y015740D02*
X018296Y015520D01*
X018222Y015520D02*
X018075Y015740D01*
X018001Y015740D02*
X017854Y015740D01*
X017854Y015520D01*
X017780Y015520D02*
X017780Y015740D01*
X017780Y015630D02*
X017633Y015630D01*
X017559Y015630D02*
X017412Y015630D01*
X017338Y015520D02*
X017338Y015740D01*
X017191Y015740D02*
X017191Y015520D01*
X017338Y015520D02*
X017191Y015740D01*
X017633Y015740D02*
X017633Y015520D01*
X017854Y015630D02*
X017928Y015630D01*
X018296Y015630D02*
X018370Y015630D01*
X018296Y015740D02*
X018443Y015740D01*
X018517Y015740D02*
X018517Y015520D01*
X018664Y015520D01*
X018591Y015630D02*
X018517Y015630D01*
X018517Y015740D02*
X018664Y015740D01*
X018738Y015740D02*
X018885Y015740D01*
X018812Y015740D02*
X018812Y015520D01*
X018959Y015630D02*
X019106Y015630D01*
X019180Y015703D02*
X019217Y015740D01*
X019290Y015740D01*
X019327Y015703D01*
X019327Y015667D01*
X019180Y015520D01*
X019327Y015520D01*
X019401Y015520D02*
X019511Y015520D01*
X019548Y015557D01*
X019548Y015703D01*
X019511Y015740D01*
X019401Y015740D01*
X019401Y015520D01*
X019622Y015483D02*
X019769Y015483D01*
X019843Y015557D02*
X019880Y015520D01*
X019953Y015520D01*
X019990Y015557D01*
X019990Y015593D01*
X019953Y015630D01*
X019880Y015630D01*
X019843Y015667D01*
X019843Y015703D01*
X019880Y015740D01*
X019953Y015740D01*
X019990Y015703D01*
X020064Y015703D02*
X020064Y015557D01*
X020101Y015520D01*
X020174Y015520D01*
X020211Y015557D01*
X020211Y015703D01*
X020174Y015740D01*
X020101Y015740D01*
X020064Y015703D01*
X020285Y015740D02*
X020432Y015740D01*
X020358Y015740D02*
X020358Y015520D01*
X020506Y015520D02*
X020653Y015667D01*
X020653Y015703D01*
X020616Y015740D01*
X020543Y015740D01*
X020506Y015703D01*
X020506Y015520D02*
X020653Y015520D01*
X020727Y015557D02*
X020764Y015520D01*
X020837Y015520D01*
X020874Y015557D01*
X020874Y015593D01*
X020837Y015630D01*
X020800Y015630D01*
X020837Y015630D02*
X020874Y015667D01*
X020874Y015703D01*
X020837Y015740D01*
X020764Y015740D01*
X020727Y015703D01*
X020948Y015703D02*
X020985Y015740D01*
X021058Y015740D01*
X021095Y015703D01*
X021095Y015667D01*
X020948Y015520D01*
X021095Y015520D01*
X021169Y015630D02*
X021316Y015630D01*
X019979Y016677D02*
X019979Y016823D01*
X019942Y016860D01*
X019832Y016860D01*
X019832Y016640D01*
X019942Y016640D01*
X019979Y016677D01*
X019758Y016640D02*
X019758Y016860D01*
X019611Y016860D02*
X019758Y016640D01*
X019611Y016640D02*
X019611Y016860D01*
X019537Y016823D02*
X019500Y016860D01*
X019427Y016860D01*
X019390Y016823D01*
X019390Y016677D01*
X019427Y016640D01*
X019500Y016640D01*
X019537Y016677D01*
X019537Y016750D01*
X019463Y016750D01*
X018979Y016713D02*
X018979Y016677D01*
X018942Y016640D01*
X018869Y016640D01*
X018832Y016677D01*
X018905Y016750D02*
X018942Y016750D01*
X018979Y016713D01*
X018942Y016750D02*
X018979Y016787D01*
X018979Y016823D01*
X018942Y016860D01*
X018869Y016860D01*
X018832Y016823D01*
X018758Y016860D02*
X018611Y016860D01*
X018684Y016860D02*
X018684Y016640D01*
X018537Y016640D02*
X018537Y016860D01*
X018537Y016750D02*
X018390Y016750D01*
X018390Y016640D02*
X018390Y016860D01*
X017979Y016823D02*
X017979Y016787D01*
X017832Y016640D01*
X017979Y016640D01*
X017979Y016823D02*
X017942Y016860D01*
X017869Y016860D01*
X017832Y016823D01*
X017758Y016860D02*
X017611Y016860D01*
X017684Y016860D02*
X017684Y016640D01*
X017537Y016640D02*
X017537Y016860D01*
X017537Y016750D02*
X017390Y016750D01*
X017390Y016640D02*
X017390Y016860D01*
X016979Y016640D02*
X016832Y016640D01*
X016905Y016640D02*
X016905Y016860D01*
X016832Y016787D01*
X016758Y016860D02*
X016611Y016860D01*
X016684Y016860D02*
X016684Y016640D01*
X016537Y016640D02*
X016537Y016860D01*
X016537Y016750D02*
X016390Y016750D01*
X016390Y016640D02*
X016390Y016860D01*
X015942Y019390D02*
X015979Y019427D01*
X015979Y019573D01*
X015942Y019610D01*
X015832Y019610D01*
X015832Y019390D01*
X015942Y019390D01*
X015758Y019390D02*
X015758Y019610D01*
X015611Y019610D02*
X015611Y019390D01*
X015537Y019427D02*
X015537Y019500D01*
X015463Y019500D01*
X015390Y019427D02*
X015427Y019390D01*
X015500Y019390D01*
X015537Y019427D01*
X015537Y019573D02*
X015500Y019610D01*
X015427Y019610D01*
X015390Y019573D01*
X015390Y019427D01*
X015200Y019427D02*
X015163Y019390D01*
X015090Y019390D01*
X015053Y019427D01*
X015126Y019500D02*
X015163Y019500D01*
X015200Y019463D01*
X015200Y019427D01*
X015163Y019500D02*
X015200Y019537D01*
X015200Y019573D01*
X015163Y019610D01*
X015090Y019610D01*
X015053Y019573D01*
X014979Y019610D02*
X014832Y019610D01*
X014905Y019610D02*
X014905Y019390D01*
X014758Y019390D02*
X014611Y019610D01*
X014537Y019610D02*
X014390Y019610D01*
X014390Y019390D01*
X014537Y019390D01*
X014611Y019390D02*
X014758Y019610D01*
X014463Y019500D02*
X014390Y019500D01*
X014200Y019537D02*
X014200Y019573D01*
X014163Y019610D01*
X014090Y019610D01*
X014053Y019573D01*
X013979Y019610D02*
X013832Y019610D01*
X013905Y019610D02*
X013905Y019390D01*
X013758Y019390D02*
X013611Y019610D01*
X013537Y019610D02*
X013390Y019610D01*
X013390Y019390D01*
X013537Y019390D01*
X013611Y019390D02*
X013758Y019610D01*
X013463Y019500D02*
X013390Y019500D01*
X013200Y019390D02*
X013053Y019390D01*
X013126Y019390D02*
X013126Y019610D01*
X013053Y019537D01*
X012979Y019610D02*
X012832Y019610D01*
X012905Y019610D02*
X012905Y019390D01*
X012758Y019390D02*
X012611Y019610D01*
X012537Y019610D02*
X012390Y019610D01*
X012390Y019390D01*
X012537Y019390D01*
X012611Y019390D02*
X012758Y019610D01*
X012463Y019500D02*
X012390Y019500D01*
X011979Y019427D02*
X011979Y019573D01*
X011942Y019610D01*
X011832Y019610D01*
X011832Y019390D01*
X011942Y019390D01*
X011979Y019427D01*
X011758Y019390D02*
X011758Y019610D01*
X011611Y019610D02*
X011758Y019390D01*
X011611Y019390D02*
X011611Y019610D01*
X011537Y019573D02*
X011500Y019610D01*
X011427Y019610D01*
X011390Y019573D01*
X011390Y019427D01*
X011427Y019390D01*
X011500Y019390D01*
X011537Y019427D01*
X011537Y019500D01*
X011463Y019500D01*
X010979Y019500D02*
X010832Y019500D01*
X010905Y019573D02*
X010905Y019427D01*
X010758Y019427D02*
X010721Y019390D01*
X010648Y019390D01*
X010611Y019427D01*
X010611Y019573D01*
X010648Y019610D01*
X010721Y019610D01*
X010758Y019573D01*
X010537Y019573D02*
X010500Y019610D01*
X010427Y019610D01*
X010390Y019573D01*
X010390Y019537D01*
X010427Y019500D01*
X010500Y019500D01*
X010537Y019463D01*
X010537Y019427D01*
X010500Y019390D01*
X010427Y019390D01*
X010390Y019427D01*
X009979Y019427D02*
X009979Y019573D01*
X009942Y019610D01*
X009832Y019610D01*
X009832Y019390D01*
X009942Y019390D01*
X009979Y019427D01*
X009758Y019390D02*
X009758Y019610D01*
X009611Y019610D02*
X009758Y019390D01*
X009611Y019390D02*
X009611Y019610D01*
X009537Y019573D02*
X009500Y019610D01*
X009427Y019610D01*
X009390Y019573D01*
X009390Y019427D01*
X009427Y019390D01*
X009500Y019390D01*
X009537Y019427D01*
X009537Y019500D01*
X009463Y019500D01*
X008979Y019500D02*
X008832Y019500D01*
X008905Y019573D02*
X008905Y019427D01*
X008684Y019390D02*
X008684Y019610D01*
X008611Y019610D02*
X008758Y019610D01*
X008537Y019573D02*
X008537Y019537D01*
X008500Y019500D01*
X008390Y019500D01*
X008390Y019390D02*
X008390Y019610D01*
X008500Y019610D01*
X008537Y019573D01*
X008500Y019500D02*
X008537Y019463D01*
X008537Y019427D01*
X008500Y019390D01*
X008390Y019390D01*
X014053Y019390D02*
X014200Y019537D01*
X014200Y019390D02*
X014053Y019390D01*
X015611Y019610D02*
X015758Y019390D01*
X016890Y019390D02*
X016890Y019610D01*
X016890Y019500D02*
X017037Y019500D01*
X017111Y019500D02*
X017184Y019500D01*
X017111Y019610D02*
X017111Y019390D01*
X017258Y019390D01*
X017332Y019390D02*
X017332Y019537D01*
X017405Y019610D01*
X017479Y019537D01*
X017479Y019390D01*
X017479Y019500D02*
X017332Y019500D01*
X017258Y019610D02*
X017111Y019610D01*
X017037Y019610D02*
X017037Y019390D01*
X017553Y019610D02*
X017700Y019610D01*
X017626Y019610D02*
X017626Y019390D01*
X017774Y019353D02*
X017921Y019353D01*
X017995Y019390D02*
X018105Y019390D01*
X018142Y019427D01*
X018142Y019463D01*
X018105Y019500D01*
X017995Y019500D01*
X017995Y019390D02*
X017995Y019610D01*
X018105Y019610D01*
X018142Y019573D01*
X018142Y019537D01*
X018105Y019500D01*
X018216Y019427D02*
X018216Y019610D01*
X018363Y019610D02*
X018363Y019427D01*
X018326Y019390D01*
X018253Y019390D01*
X018216Y019427D01*
X018437Y019427D02*
X018474Y019390D01*
X018547Y019390D01*
X018584Y019427D01*
X018584Y019463D01*
X018547Y019500D01*
X018474Y019500D01*
X018437Y019537D01*
X018437Y019573D01*
X018474Y019610D01*
X018547Y019610D01*
X018584Y019573D01*
X019390Y019610D02*
X019390Y019390D01*
X019500Y019390D01*
X019537Y019427D01*
X019537Y019573D01*
X019500Y019610D01*
X019390Y019610D01*
X019611Y019610D02*
X019684Y019610D01*
X019648Y019610D02*
X019648Y019390D01*
X019684Y019390D02*
X019611Y019390D01*
X019758Y019427D02*
X019795Y019390D01*
X019868Y019390D01*
X019905Y019427D01*
X019905Y019463D01*
X019868Y019500D01*
X019795Y019500D01*
X019758Y019537D01*
X019758Y019573D01*
X019795Y019610D01*
X019868Y019610D01*
X019905Y019573D01*
X019979Y019573D02*
X019979Y019537D01*
X020016Y019500D01*
X020089Y019500D01*
X020126Y019463D01*
X020126Y019427D01*
X020089Y019390D01*
X020016Y019390D01*
X019979Y019427D01*
X019979Y019573D02*
X020016Y019610D01*
X020089Y019610D01*
X020126Y019573D01*
X020200Y019610D02*
X020274Y019610D01*
X020237Y019610D02*
X020237Y019390D01*
X020200Y019390D02*
X020274Y019390D01*
X020348Y019390D02*
X020348Y019610D01*
X020458Y019610D01*
X020494Y019573D01*
X020494Y019500D01*
X020458Y019463D01*
X020348Y019463D01*
X021390Y018860D02*
X021463Y018787D01*
X021537Y018860D01*
X021537Y018640D01*
X021611Y018677D02*
X021648Y018640D01*
X021684Y018640D01*
X021721Y018677D01*
X021721Y018860D01*
X021684Y018860D02*
X021758Y018860D01*
X021832Y018860D02*
X021942Y018860D01*
X021979Y018823D01*
X021979Y018677D01*
X021942Y018640D01*
X021832Y018640D01*
X021832Y018860D01*
X022053Y018750D02*
X022200Y018750D01*
X022274Y018750D02*
X022421Y018750D01*
X022495Y018750D02*
X022642Y018750D01*
X022716Y018787D02*
X022789Y018860D01*
X022789Y018640D01*
X022716Y018640D02*
X022863Y018640D01*
X022937Y018640D02*
X023084Y018640D01*
X023010Y018640D02*
X023010Y018860D01*
X022937Y018787D01*
X023158Y018860D02*
X023305Y018860D01*
X023231Y018860D02*
X023231Y018640D01*
X023379Y018677D02*
X023526Y018823D01*
X023526Y018677D01*
X023489Y018640D01*
X023416Y018640D01*
X023379Y018677D01*
X023379Y018823D01*
X023416Y018860D01*
X023489Y018860D01*
X023526Y018823D01*
X023600Y018750D02*
X023747Y018750D01*
X023821Y018823D02*
X023858Y018860D01*
X023931Y018860D01*
X023968Y018823D01*
X023968Y018787D01*
X023821Y018640D01*
X023968Y018640D01*
X024042Y018677D02*
X024079Y018640D01*
X024152Y018640D01*
X024189Y018677D01*
X024189Y018750D01*
X024152Y018787D01*
X024115Y018787D01*
X024042Y018750D01*
X024042Y018860D01*
X024189Y018860D01*
X024263Y018823D02*
X024300Y018860D01*
X024373Y018860D01*
X024410Y018823D01*
X024410Y018787D01*
X024263Y018640D01*
X024410Y018640D01*
X022642Y018640D02*
X022642Y018860D01*
X022495Y018860D02*
X022495Y018640D01*
X022384Y018640D02*
X022384Y018860D01*
X022274Y018750D01*
X022163Y018640D02*
X022163Y018860D01*
X022053Y018750D01*
X021390Y018640D02*
X021390Y018860D01*
X005816Y010547D02*
X005706Y010473D01*
X005816Y010400D01*
X005706Y010400D02*
X005706Y010620D01*
X005595Y010620D02*
X005595Y010400D01*
X005559Y010400D02*
X005632Y010400D01*
X005484Y010400D02*
X005374Y010400D01*
X005338Y010437D01*
X005338Y010510D01*
X005374Y010547D01*
X005484Y010547D01*
X005559Y010620D02*
X005595Y010620D01*
X005042Y010620D02*
X005042Y010400D01*
X004969Y010473D01*
X004896Y010400D01*
X004896Y010620D01*
X004821Y010583D02*
X004821Y010547D01*
X004785Y010510D01*
X004675Y010510D01*
X004600Y010473D02*
X004600Y010437D01*
X004564Y010400D01*
X004490Y010400D01*
X004454Y010437D01*
X004490Y010510D02*
X004564Y010510D01*
X004600Y010473D01*
X004675Y010400D02*
X004675Y010620D01*
X004785Y010620D01*
X004821Y010583D01*
X004785Y010510D02*
X004821Y010473D01*
X004821Y010437D01*
X004785Y010400D01*
X004675Y010400D01*
X004600Y010583D02*
X004564Y010620D01*
X004490Y010620D01*
X004454Y010583D01*
X004454Y010547D01*
X004490Y010510D01*
X004158Y010547D02*
X004048Y010547D01*
X004012Y010510D01*
X004012Y010437D01*
X004048Y010400D01*
X004158Y010400D01*
X004158Y010620D01*
X004140Y010066D02*
X004140Y009919D01*
X004140Y009992D02*
X004360Y009992D01*
X004323Y009845D02*
X004360Y009808D01*
X004360Y009735D01*
X004323Y009698D01*
X004250Y009735D02*
X004213Y009698D01*
X004177Y009698D01*
X004140Y009735D01*
X004140Y009808D01*
X004177Y009845D01*
X004250Y009808D02*
X004287Y009845D01*
X004323Y009845D01*
X004250Y009808D02*
X004250Y009735D01*
X004360Y009624D02*
X004360Y009477D01*
X004140Y009477D01*
X004140Y009624D01*
X004250Y009550D02*
X004250Y009477D01*
X004140Y009403D02*
X004140Y009256D01*
X004140Y009329D02*
X004360Y009329D01*
X003610Y009316D02*
X003610Y009169D01*
X003390Y009169D01*
X003427Y009095D02*
X003390Y009058D01*
X003390Y008985D01*
X003427Y008948D01*
X003573Y008948D01*
X003610Y008985D01*
X003610Y009058D01*
X003573Y009095D01*
X003573Y008874D02*
X003610Y008837D01*
X003610Y008764D01*
X003573Y008727D01*
X003500Y008764D02*
X003500Y008837D01*
X003537Y008874D01*
X003573Y008874D01*
X003500Y008764D02*
X003463Y008727D01*
X003427Y008727D01*
X003390Y008764D01*
X003390Y008837D01*
X003427Y008874D01*
X003463Y008316D02*
X003610Y008316D01*
X003500Y008316D02*
X003500Y008169D01*
X003463Y008169D02*
X003390Y008242D01*
X003463Y008316D01*
X003463Y008169D02*
X003610Y008169D01*
X003573Y008095D02*
X003427Y008095D01*
X003390Y008058D01*
X003390Y007948D01*
X003610Y007948D01*
X003610Y008058D01*
X003573Y008095D01*
X003573Y007874D02*
X003610Y007837D01*
X003610Y007764D01*
X003573Y007727D01*
X003500Y007764D02*
X003500Y007837D01*
X003537Y007874D01*
X003573Y007874D01*
X003500Y007764D02*
X003463Y007727D01*
X003427Y007727D01*
X003390Y007764D01*
X003390Y007837D01*
X003427Y007874D01*
X004140Y008227D02*
X004140Y008337D01*
X004177Y008374D01*
X004250Y008374D01*
X004287Y008337D01*
X004287Y008227D01*
X004360Y008227D02*
X004140Y008227D01*
X004287Y008300D02*
X004360Y008374D01*
X004323Y008448D02*
X004360Y008485D01*
X004360Y008558D01*
X004323Y008595D01*
X004287Y008595D01*
X004250Y008558D01*
X004250Y008485D01*
X004213Y008448D01*
X004177Y008448D01*
X004140Y008485D01*
X004140Y008558D01*
X004177Y008595D01*
X004140Y008669D02*
X004140Y008816D01*
X004140Y008742D02*
X004360Y008742D01*
D12*
X002338Y010150D02*
X002338Y010380D01*
X002261Y010457D01*
X002185Y010380D01*
X002185Y010150D01*
X002031Y010150D02*
X002031Y010457D01*
X002108Y010457D01*
X002185Y010380D01*
X001878Y010380D02*
X001878Y010150D01*
X001878Y010380D02*
X001801Y010457D01*
X001648Y010457D01*
X001571Y010380D01*
X001417Y010227D02*
X001417Y010534D01*
X001341Y010610D01*
X001187Y010610D01*
X001110Y010534D01*
X001110Y010227D01*
X001187Y010150D01*
X001341Y010150D01*
X001417Y010227D01*
X001571Y010150D02*
X001571Y010610D01*
X000957Y010534D02*
X000957Y010227D01*
X000880Y010150D01*
X000727Y010150D01*
X000650Y010227D01*
X000957Y010534D01*
X000880Y010610D01*
X000727Y010610D01*
X000650Y010534D01*
X000650Y010227D01*
X003650Y010633D02*
X003803Y010479D01*
X003650Y010633D02*
X004110Y010633D01*
X004110Y010786D02*
X004110Y010479D01*
X004110Y010940D02*
X003650Y010940D01*
X003803Y011093D01*
X003650Y011247D01*
X004110Y011247D01*
X005226Y012650D02*
X005150Y012727D01*
X005150Y012880D01*
X005226Y012957D01*
X005303Y012957D01*
X005610Y012650D01*
X005610Y012957D01*
X005610Y013110D02*
X005303Y013417D01*
X005226Y013417D01*
X005150Y013341D01*
X005150Y013187D01*
X005226Y013110D01*
X005610Y013110D02*
X005610Y013417D01*
X005533Y013571D02*
X005610Y013648D01*
X005610Y013878D01*
X005303Y013878D01*
X005303Y013571D02*
X005533Y013571D01*
X003878Y013900D02*
X003878Y014207D01*
X003878Y013900D02*
X003648Y013900D01*
X003571Y013977D01*
X003571Y014207D01*
X003417Y014284D02*
X003110Y013977D01*
X003187Y013900D01*
X003341Y013900D01*
X003417Y013977D01*
X003417Y014284D01*
X003341Y014360D01*
X003187Y014360D01*
X003110Y014284D01*
X003110Y013977D01*
X002957Y013900D02*
X002650Y013900D01*
X002803Y013900D02*
X002803Y014360D01*
X002650Y014207D01*
X002699Y015378D02*
X002469Y015378D01*
X002469Y015839D01*
X002699Y015839D01*
X002776Y015762D01*
X002776Y015455D01*
X002699Y015378D01*
X002929Y015378D02*
X002929Y015839D01*
X003159Y015839D01*
X003236Y015762D01*
X003236Y015609D01*
X003159Y015532D01*
X002929Y015532D01*
X003083Y015532D02*
X003236Y015378D01*
X003390Y015378D02*
X003697Y015378D01*
X003850Y015378D02*
X004157Y015685D01*
X004157Y015762D01*
X004080Y015839D01*
X003927Y015839D01*
X003850Y015762D01*
X003543Y015839D02*
X003543Y015378D01*
X003850Y015378D02*
X004157Y015378D01*
X004310Y015378D02*
X004310Y015455D01*
X004617Y015762D01*
X004617Y015839D01*
X004310Y015839D01*
X003543Y015839D02*
X003390Y015685D01*
X001721Y015769D02*
X001934Y015471D01*
X001933Y015471D02*
X001932Y015462D01*
X001934Y015452D01*
X001938Y015443D01*
X001945Y015436D01*
X001954Y015432D01*
X001964Y015431D01*
X001974Y015433D01*
X002281Y015235D01*
X002257Y015205D01*
X002231Y015177D01*
X002202Y015152D01*
X002170Y015131D01*
X002137Y015112D01*
X002102Y015097D01*
X002066Y015085D01*
X002028Y015076D01*
X001990Y015072D01*
X001952Y015071D01*
X001914Y015074D01*
X001876Y015081D01*
X001840Y015091D01*
X001804Y015105D01*
X001770Y015122D01*
X001737Y015143D01*
X001707Y015166D01*
X001680Y015193D01*
X001655Y015222D01*
X001633Y015253D01*
X001614Y015286D01*
X001598Y015321D01*
X001586Y015357D01*
X001578Y015395D01*
X001573Y015433D01*
X001572Y015471D01*
X001575Y015509D01*
X001581Y015547D01*
X001591Y015584D01*
X001605Y015619D01*
X001622Y015653D01*
X001642Y015686D01*
X001666Y015716D01*
X001692Y015744D01*
X001721Y015769D01*
X001742Y015739D01*
X001715Y015715D01*
X001690Y015688D01*
X001668Y015658D01*
X001650Y015627D01*
X001634Y015593D01*
X001622Y015559D01*
X001614Y015523D01*
X001610Y015487D01*
X001609Y015450D01*
X001612Y015414D01*
X001619Y015378D01*
X001630Y015343D01*
X001644Y015309D01*
X001661Y015277D01*
X001682Y015247D01*
X001706Y015219D01*
X001732Y015194D01*
X001761Y015171D01*
X001792Y015152D01*
X001825Y015136D01*
X001860Y015123D01*
X001895Y015115D01*
X001931Y015109D01*
X001968Y015108D01*
X002005Y015110D01*
X002041Y015117D01*
X002076Y015126D01*
X002110Y015140D01*
X002142Y015157D01*
X002173Y015177D01*
X002201Y015200D01*
X002227Y015226D01*
X002250Y015255D01*
X002219Y015275D01*
X002197Y015248D01*
X002172Y015224D01*
X002144Y015202D01*
X002115Y015184D01*
X002084Y015169D01*
X002051Y015157D01*
X002017Y015150D01*
X001982Y015146D01*
X001948Y015145D01*
X001913Y015149D01*
X001879Y015156D01*
X001846Y015167D01*
X001815Y015182D01*
X001785Y015200D01*
X001757Y015221D01*
X001732Y015245D01*
X001710Y015272D01*
X001690Y015300D01*
X001674Y015331D01*
X001662Y015364D01*
X001653Y015397D01*
X001647Y015432D01*
X001646Y015466D01*
X001648Y015501D01*
X001655Y015535D01*
X001664Y015568D01*
X001678Y015601D01*
X001695Y015631D01*
X001715Y015659D01*
X001738Y015685D01*
X001764Y015709D01*
X001785Y015678D01*
X001761Y015656D01*
X001740Y015631D01*
X001722Y015604D01*
X001707Y015575D01*
X001695Y015545D01*
X001688Y015513D01*
X001684Y015480D01*
X001683Y015448D01*
X001687Y015415D01*
X001694Y015384D01*
X001705Y015353D01*
X001720Y015323D01*
X001737Y015296D01*
X001758Y015271D01*
X001782Y015248D01*
X001808Y015229D01*
X001836Y015212D01*
X001866Y015199D01*
X001897Y015190D01*
X001930Y015184D01*
X001962Y015182D01*
X001995Y015184D01*
X002027Y015189D01*
X002058Y015199D01*
X002088Y015212D01*
X002117Y015228D01*
X002143Y015247D01*
X002166Y015270D01*
X002188Y015295D01*
X002156Y015315D01*
X002136Y015292D01*
X002114Y015272D01*
X002089Y015254D01*
X002062Y015240D01*
X002034Y015230D01*
X002005Y015223D01*
X001975Y015219D01*
X001944Y015220D01*
X001914Y015224D01*
X001885Y015232D01*
X001857Y015243D01*
X001831Y015258D01*
X001807Y015276D01*
X001785Y015297D01*
X001766Y015320D01*
X001749Y015346D01*
X001737Y015373D01*
X001727Y015402D01*
X001722Y015432D01*
X001720Y015462D01*
X001722Y015492D01*
X001728Y015522D01*
X001737Y015551D01*
X001750Y015578D01*
X001766Y015604D01*
X001785Y015627D01*
X001807Y015648D01*
X001828Y015618D01*
X001809Y015598D01*
X001792Y015577D01*
X001778Y015553D01*
X001768Y015528D01*
X001761Y015501D01*
X001757Y015474D01*
X001758Y015446D01*
X001761Y015419D01*
X001769Y015393D01*
X001780Y015368D01*
X001794Y015344D01*
X001811Y015323D01*
X001831Y015304D01*
X001853Y015288D01*
X001877Y015275D01*
X001903Y015265D01*
X001930Y015259D01*
X001957Y015256D01*
X001985Y015257D01*
X002012Y015262D01*
X002038Y015270D01*
X002063Y015282D01*
X002086Y015297D01*
X002107Y015314D01*
X002125Y015335D01*
X002094Y015355D01*
X002076Y015336D01*
X002056Y015321D01*
X002034Y015309D01*
X002011Y015300D01*
X001986Y015295D01*
X001961Y015293D01*
X001936Y015295D01*
X001911Y015301D01*
X001888Y015311D01*
X001866Y015324D01*
X001846Y015340D01*
X001829Y015358D01*
X001816Y015379D01*
X001805Y015402D01*
X001798Y015427D01*
X001794Y015452D01*
X001795Y015477D01*
X001799Y015502D01*
X001807Y015526D01*
X001818Y015548D01*
X001832Y015569D01*
X001850Y015587D01*
X001871Y015557D01*
X001857Y015540D01*
X001845Y015521D01*
X001837Y015500D01*
X001832Y015478D01*
X001831Y015456D01*
X001834Y015434D01*
X001841Y015412D01*
X001851Y015392D01*
X001864Y015375D01*
X001880Y015359D01*
X001899Y015347D01*
X001919Y015337D01*
X001941Y015332D01*
X001963Y015330D01*
X001986Y015332D01*
X002007Y015338D01*
X002028Y015347D01*
X002046Y015359D01*
X002062Y015375D01*
X002031Y015395D01*
X002016Y015383D01*
X002000Y015375D01*
X001983Y015369D01*
X001964Y015367D01*
X001946Y015369D01*
X001928Y015374D01*
X001912Y015382D01*
X001897Y015393D01*
X001885Y015407D01*
X001876Y015423D01*
X001870Y015441D01*
X001868Y015459D01*
X001869Y015477D01*
X001874Y015495D01*
X001882Y015512D01*
X001893Y015526D01*
X001915Y015495D01*
X001909Y015483D01*
X001906Y015470D01*
X001905Y015456D01*
X001908Y015443D01*
X001914Y015431D01*
X001923Y015420D01*
X001934Y015412D01*
X001946Y015406D01*
X001960Y015404D01*
X001974Y015405D01*
X001987Y015409D01*
X001998Y015416D01*
X004991Y015221D02*
X005289Y015434D01*
X005289Y015433D02*
X005298Y015432D01*
X005308Y015434D01*
X005317Y015438D01*
X005324Y015445D01*
X005328Y015454D01*
X005329Y015464D01*
X005327Y015474D01*
X005525Y015781D01*
X005555Y015757D01*
X005583Y015731D01*
X005608Y015702D01*
X005629Y015670D01*
X005648Y015637D01*
X005663Y015602D01*
X005675Y015566D01*
X005684Y015528D01*
X005688Y015490D01*
X005689Y015452D01*
X005686Y015414D01*
X005679Y015376D01*
X005669Y015340D01*
X005655Y015304D01*
X005638Y015270D01*
X005617Y015237D01*
X005594Y015207D01*
X005567Y015180D01*
X005538Y015155D01*
X005507Y015133D01*
X005474Y015114D01*
X005439Y015098D01*
X005403Y015086D01*
X005365Y015078D01*
X005327Y015073D01*
X005289Y015072D01*
X005251Y015075D01*
X005213Y015081D01*
X005176Y015091D01*
X005141Y015105D01*
X005107Y015122D01*
X005074Y015142D01*
X005044Y015166D01*
X005016Y015192D01*
X004991Y015221D01*
X005021Y015242D01*
X005045Y015215D01*
X005072Y015190D01*
X005102Y015168D01*
X005133Y015150D01*
X005167Y015134D01*
X005201Y015122D01*
X005237Y015114D01*
X005273Y015110D01*
X005310Y015109D01*
X005346Y015112D01*
X005382Y015119D01*
X005417Y015130D01*
X005451Y015144D01*
X005483Y015161D01*
X005513Y015182D01*
X005541Y015206D01*
X005566Y015232D01*
X005589Y015261D01*
X005608Y015292D01*
X005624Y015325D01*
X005637Y015360D01*
X005645Y015395D01*
X005651Y015431D01*
X005652Y015468D01*
X005650Y015505D01*
X005643Y015541D01*
X005634Y015576D01*
X005620Y015610D01*
X005603Y015642D01*
X005583Y015673D01*
X005560Y015701D01*
X005534Y015727D01*
X005505Y015750D01*
X005485Y015719D01*
X005512Y015697D01*
X005536Y015672D01*
X005558Y015644D01*
X005576Y015615D01*
X005591Y015584D01*
X005603Y015551D01*
X005610Y015517D01*
X005614Y015482D01*
X005615Y015448D01*
X005611Y015413D01*
X005604Y015379D01*
X005593Y015346D01*
X005578Y015315D01*
X005560Y015285D01*
X005539Y015257D01*
X005515Y015232D01*
X005488Y015210D01*
X005460Y015190D01*
X005429Y015174D01*
X005396Y015162D01*
X005363Y015153D01*
X005328Y015147D01*
X005294Y015146D01*
X005259Y015148D01*
X005225Y015155D01*
X005192Y015164D01*
X005159Y015178D01*
X005129Y015195D01*
X005101Y015215D01*
X005075Y015238D01*
X005051Y015264D01*
X005082Y015285D01*
X005104Y015261D01*
X005129Y015240D01*
X005156Y015222D01*
X005185Y015207D01*
X005215Y015195D01*
X005247Y015188D01*
X005280Y015184D01*
X005312Y015183D01*
X005345Y015187D01*
X005376Y015194D01*
X005407Y015205D01*
X005437Y015220D01*
X005464Y015237D01*
X005489Y015258D01*
X005512Y015282D01*
X005531Y015308D01*
X005548Y015336D01*
X005561Y015366D01*
X005570Y015397D01*
X005576Y015430D01*
X005578Y015462D01*
X005576Y015495D01*
X005571Y015527D01*
X005561Y015558D01*
X005548Y015588D01*
X005532Y015617D01*
X005513Y015643D01*
X005490Y015666D01*
X005465Y015688D01*
X005445Y015656D01*
X005468Y015636D01*
X005488Y015614D01*
X005506Y015589D01*
X005520Y015562D01*
X005530Y015534D01*
X005537Y015505D01*
X005541Y015475D01*
X005540Y015444D01*
X005536Y015414D01*
X005528Y015385D01*
X005517Y015357D01*
X005502Y015331D01*
X005484Y015307D01*
X005463Y015285D01*
X005440Y015266D01*
X005414Y015249D01*
X005387Y015237D01*
X005358Y015227D01*
X005328Y015222D01*
X005298Y015220D01*
X005268Y015222D01*
X005238Y015228D01*
X005209Y015237D01*
X005182Y015250D01*
X005156Y015266D01*
X005133Y015285D01*
X005112Y015307D01*
X005142Y015328D01*
X005162Y015309D01*
X005183Y015292D01*
X005207Y015278D01*
X005232Y015268D01*
X005259Y015261D01*
X005286Y015257D01*
X005314Y015258D01*
X005341Y015261D01*
X005367Y015269D01*
X005392Y015280D01*
X005416Y015294D01*
X005437Y015311D01*
X005456Y015331D01*
X005472Y015353D01*
X005485Y015377D01*
X005495Y015403D01*
X005501Y015430D01*
X005504Y015457D01*
X005503Y015485D01*
X005498Y015512D01*
X005490Y015538D01*
X005478Y015563D01*
X005463Y015586D01*
X005446Y015607D01*
X005425Y015625D01*
X005405Y015594D01*
X005424Y015576D01*
X005439Y015556D01*
X005451Y015534D01*
X005460Y015511D01*
X005465Y015486D01*
X005467Y015461D01*
X005465Y015436D01*
X005459Y015411D01*
X005449Y015388D01*
X005436Y015366D01*
X005420Y015346D01*
X005402Y015329D01*
X005381Y015316D01*
X005358Y015305D01*
X005333Y015298D01*
X005308Y015294D01*
X005283Y015295D01*
X005258Y015299D01*
X005234Y015307D01*
X005212Y015318D01*
X005191Y015332D01*
X005173Y015350D01*
X005203Y015371D01*
X005220Y015357D01*
X005239Y015345D01*
X005260Y015337D01*
X005282Y015332D01*
X005304Y015331D01*
X005326Y015334D01*
X005348Y015341D01*
X005368Y015351D01*
X005385Y015364D01*
X005401Y015380D01*
X005413Y015399D01*
X005423Y015419D01*
X005428Y015441D01*
X005430Y015463D01*
X005428Y015486D01*
X005422Y015507D01*
X005413Y015528D01*
X005401Y015546D01*
X005385Y015562D01*
X005365Y015531D01*
X005377Y015516D01*
X005385Y015500D01*
X005391Y015483D01*
X005393Y015464D01*
X005391Y015446D01*
X005386Y015428D01*
X005378Y015412D01*
X005367Y015397D01*
X005353Y015385D01*
X005337Y015376D01*
X005319Y015370D01*
X005301Y015368D01*
X005283Y015369D01*
X005265Y015374D01*
X005248Y015382D01*
X005234Y015393D01*
X005265Y015415D01*
X005277Y015409D01*
X005290Y015406D01*
X005304Y015405D01*
X005317Y015408D01*
X005329Y015414D01*
X005340Y015423D01*
X005348Y015434D01*
X005354Y015446D01*
X005356Y015460D01*
X005355Y015474D01*
X005351Y015487D01*
X005344Y015498D01*
X006900Y015732D02*
X007360Y015732D01*
X007360Y015885D02*
X007360Y015578D01*
X007053Y015578D02*
X006900Y015732D01*
X007283Y016039D02*
X007283Y016115D01*
X007360Y016115D01*
X007360Y016039D01*
X007283Y016039D01*
X007283Y016269D02*
X007360Y016346D01*
X007360Y016499D01*
X007283Y016576D01*
X007130Y016576D01*
X007053Y016499D01*
X007053Y016422D01*
X007130Y016269D01*
X006900Y016269D01*
X006900Y016576D01*
X007053Y016729D02*
X007283Y016729D01*
X007360Y016806D01*
X007360Y017036D01*
X007053Y017036D01*
X007130Y017190D02*
X007130Y017343D01*
X007360Y017190D02*
X006900Y017190D01*
X006900Y017497D01*
X005539Y018491D02*
X005326Y018789D01*
X005327Y018789D02*
X005328Y018798D01*
X005326Y018808D01*
X005322Y018817D01*
X005315Y018824D01*
X005306Y018828D01*
X005296Y018829D01*
X005286Y018827D01*
X004979Y019025D01*
X005003Y019055D01*
X005029Y019083D01*
X005058Y019108D01*
X005090Y019129D01*
X005123Y019148D01*
X005158Y019163D01*
X005194Y019175D01*
X005232Y019184D01*
X005270Y019188D01*
X005308Y019189D01*
X005346Y019186D01*
X005384Y019179D01*
X005420Y019169D01*
X005456Y019155D01*
X005490Y019138D01*
X005523Y019117D01*
X005553Y019094D01*
X005580Y019067D01*
X005605Y019038D01*
X005627Y019007D01*
X005646Y018974D01*
X005662Y018939D01*
X005674Y018903D01*
X005682Y018865D01*
X005687Y018827D01*
X005688Y018789D01*
X005685Y018751D01*
X005679Y018713D01*
X005669Y018676D01*
X005655Y018641D01*
X005638Y018607D01*
X005618Y018574D01*
X005594Y018544D01*
X005568Y018516D01*
X005539Y018491D01*
X005518Y018521D01*
X005545Y018545D01*
X005570Y018572D01*
X005592Y018602D01*
X005610Y018633D01*
X005626Y018667D01*
X005638Y018701D01*
X005646Y018737D01*
X005650Y018773D01*
X005651Y018810D01*
X005648Y018846D01*
X005641Y018882D01*
X005630Y018917D01*
X005616Y018951D01*
X005599Y018983D01*
X005578Y019013D01*
X005554Y019041D01*
X005528Y019066D01*
X005499Y019089D01*
X005468Y019108D01*
X005435Y019124D01*
X005400Y019137D01*
X005365Y019145D01*
X005329Y019151D01*
X005292Y019152D01*
X005255Y019150D01*
X005219Y019143D01*
X005184Y019134D01*
X005150Y019120D01*
X005118Y019103D01*
X005087Y019083D01*
X005059Y019060D01*
X005033Y019034D01*
X005010Y019005D01*
X005041Y018985D01*
X005063Y019012D01*
X005088Y019036D01*
X005116Y019058D01*
X005145Y019076D01*
X005176Y019091D01*
X005209Y019103D01*
X005243Y019110D01*
X005278Y019114D01*
X005312Y019115D01*
X005347Y019111D01*
X005381Y019104D01*
X005414Y019093D01*
X005445Y019078D01*
X005475Y019060D01*
X005503Y019039D01*
X005528Y019015D01*
X005550Y018988D01*
X005570Y018960D01*
X005586Y018929D01*
X005598Y018896D01*
X005607Y018863D01*
X005613Y018828D01*
X005614Y018794D01*
X005612Y018759D01*
X005605Y018725D01*
X005596Y018692D01*
X005582Y018659D01*
X005565Y018629D01*
X005545Y018601D01*
X005522Y018575D01*
X005496Y018551D01*
X005475Y018582D01*
X005499Y018604D01*
X005520Y018629D01*
X005538Y018656D01*
X005553Y018685D01*
X005565Y018715D01*
X005572Y018747D01*
X005576Y018780D01*
X005577Y018812D01*
X005573Y018845D01*
X005566Y018876D01*
X005555Y018907D01*
X005540Y018937D01*
X005523Y018964D01*
X005502Y018989D01*
X005478Y019012D01*
X005452Y019031D01*
X005424Y019048D01*
X005394Y019061D01*
X005363Y019070D01*
X005330Y019076D01*
X005298Y019078D01*
X005265Y019076D01*
X005233Y019071D01*
X005202Y019061D01*
X005172Y019048D01*
X005143Y019032D01*
X005117Y019013D01*
X005094Y018990D01*
X005072Y018965D01*
X005104Y018945D01*
X005124Y018968D01*
X005146Y018988D01*
X005171Y019006D01*
X005198Y019020D01*
X005226Y019030D01*
X005255Y019037D01*
X005285Y019041D01*
X005316Y019040D01*
X005346Y019036D01*
X005375Y019028D01*
X005403Y019017D01*
X005429Y019002D01*
X005453Y018984D01*
X005475Y018963D01*
X005494Y018940D01*
X005511Y018914D01*
X005523Y018887D01*
X005533Y018858D01*
X005538Y018828D01*
X005540Y018798D01*
X005538Y018768D01*
X005532Y018738D01*
X005523Y018709D01*
X005510Y018682D01*
X005494Y018656D01*
X005475Y018633D01*
X005453Y018612D01*
X005432Y018642D01*
X005451Y018662D01*
X005468Y018683D01*
X005482Y018707D01*
X005492Y018732D01*
X005499Y018759D01*
X005503Y018786D01*
X005502Y018814D01*
X005499Y018841D01*
X005491Y018867D01*
X005480Y018892D01*
X005466Y018916D01*
X005449Y018937D01*
X005429Y018956D01*
X005407Y018972D01*
X005383Y018985D01*
X005357Y018995D01*
X005330Y019001D01*
X005303Y019004D01*
X005275Y019003D01*
X005248Y018998D01*
X005222Y018990D01*
X005197Y018978D01*
X005174Y018963D01*
X005153Y018946D01*
X005135Y018925D01*
X005166Y018905D01*
X005184Y018924D01*
X005204Y018939D01*
X005226Y018951D01*
X005249Y018960D01*
X005274Y018965D01*
X005299Y018967D01*
X005324Y018965D01*
X005349Y018959D01*
X005372Y018949D01*
X005394Y018936D01*
X005414Y018920D01*
X005431Y018902D01*
X005444Y018881D01*
X005455Y018858D01*
X005462Y018833D01*
X005466Y018808D01*
X005465Y018783D01*
X005461Y018758D01*
X005453Y018734D01*
X005442Y018712D01*
X005428Y018691D01*
X005410Y018673D01*
X005389Y018703D01*
X005403Y018720D01*
X005415Y018739D01*
X005423Y018760D01*
X005428Y018782D01*
X005429Y018804D01*
X005426Y018826D01*
X005419Y018848D01*
X005409Y018868D01*
X005396Y018885D01*
X005380Y018901D01*
X005361Y018913D01*
X005341Y018923D01*
X005319Y018928D01*
X005297Y018930D01*
X005274Y018928D01*
X005253Y018922D01*
X005232Y018913D01*
X005214Y018901D01*
X005198Y018885D01*
X005229Y018865D01*
X005244Y018877D01*
X005260Y018885D01*
X005277Y018891D01*
X005296Y018893D01*
X005314Y018891D01*
X005332Y018886D01*
X005348Y018878D01*
X005363Y018867D01*
X005375Y018853D01*
X005384Y018837D01*
X005390Y018819D01*
X005392Y018801D01*
X005391Y018783D01*
X005386Y018765D01*
X005378Y018748D01*
X005367Y018734D01*
X005345Y018765D01*
X005351Y018777D01*
X005354Y018790D01*
X005355Y018804D01*
X005352Y018817D01*
X005346Y018829D01*
X005337Y018840D01*
X005326Y018848D01*
X005314Y018854D01*
X005300Y018856D01*
X005286Y018855D01*
X005273Y018851D01*
X005262Y018844D01*
X005044Y018791D02*
X005044Y018331D01*
X005044Y018561D02*
X004738Y018561D01*
X004584Y018408D02*
X004584Y018791D01*
X004738Y018791D02*
X004738Y018331D01*
X004584Y018408D02*
X004507Y018331D01*
X004354Y018331D01*
X004277Y018408D01*
X004277Y018791D01*
X004124Y018791D02*
X004124Y018715D01*
X003817Y018408D01*
X003817Y018331D01*
X003587Y018331D02*
X003587Y018791D01*
X003356Y018561D01*
X003663Y018561D01*
X003817Y018791D02*
X004124Y018791D01*
X003203Y018408D02*
X003203Y018331D01*
X003126Y018331D01*
X003126Y018408D01*
X003203Y018408D01*
X002973Y018408D02*
X002896Y018331D01*
X002742Y018331D01*
X002666Y018408D01*
X002973Y018715D01*
X002973Y018408D01*
X002666Y018408D02*
X002666Y018715D01*
X002742Y018791D01*
X002896Y018791D01*
X002973Y018715D01*
X002269Y019039D02*
X001971Y018826D01*
X001971Y018827D02*
X001962Y018828D01*
X001952Y018826D01*
X001943Y018822D01*
X001936Y018815D01*
X001932Y018806D01*
X001931Y018796D01*
X001933Y018786D01*
X001735Y018479D01*
X001705Y018503D01*
X001677Y018529D01*
X001652Y018558D01*
X001631Y018590D01*
X001612Y018623D01*
X001597Y018658D01*
X001585Y018694D01*
X001576Y018732D01*
X001572Y018770D01*
X001571Y018808D01*
X001574Y018846D01*
X001581Y018884D01*
X001591Y018920D01*
X001605Y018956D01*
X001622Y018990D01*
X001643Y019023D01*
X001666Y019053D01*
X001693Y019080D01*
X001722Y019105D01*
X001753Y019127D01*
X001786Y019146D01*
X001821Y019162D01*
X001857Y019174D01*
X001895Y019182D01*
X001933Y019187D01*
X001971Y019188D01*
X002009Y019185D01*
X002047Y019179D01*
X002084Y019169D01*
X002119Y019155D01*
X002153Y019138D01*
X002186Y019118D01*
X002216Y019094D01*
X002244Y019068D01*
X002269Y019039D01*
X002239Y019018D01*
X002215Y019045D01*
X002188Y019070D01*
X002158Y019092D01*
X002127Y019110D01*
X002093Y019126D01*
X002059Y019138D01*
X002023Y019146D01*
X001987Y019150D01*
X001950Y019151D01*
X001914Y019148D01*
X001878Y019141D01*
X001843Y019130D01*
X001809Y019116D01*
X001777Y019099D01*
X001747Y019078D01*
X001719Y019054D01*
X001694Y019028D01*
X001671Y018999D01*
X001652Y018968D01*
X001636Y018935D01*
X001623Y018900D01*
X001615Y018865D01*
X001609Y018829D01*
X001608Y018792D01*
X001610Y018755D01*
X001617Y018719D01*
X001626Y018684D01*
X001640Y018650D01*
X001657Y018618D01*
X001677Y018587D01*
X001700Y018559D01*
X001726Y018533D01*
X001755Y018510D01*
X001775Y018541D01*
X001748Y018563D01*
X001724Y018588D01*
X001702Y018616D01*
X001684Y018645D01*
X001669Y018676D01*
X001657Y018709D01*
X001650Y018743D01*
X001646Y018778D01*
X001645Y018812D01*
X001649Y018847D01*
X001656Y018881D01*
X001667Y018914D01*
X001682Y018945D01*
X001700Y018975D01*
X001721Y019003D01*
X001745Y019028D01*
X001772Y019050D01*
X001800Y019070D01*
X001831Y019086D01*
X001864Y019098D01*
X001897Y019107D01*
X001932Y019113D01*
X001966Y019114D01*
X002001Y019112D01*
X002035Y019105D01*
X002068Y019096D01*
X002101Y019082D01*
X002131Y019065D01*
X002159Y019045D01*
X002185Y019022D01*
X002209Y018996D01*
X002178Y018975D01*
X002156Y018999D01*
X002131Y019020D01*
X002104Y019038D01*
X002075Y019053D01*
X002045Y019065D01*
X002013Y019072D01*
X001980Y019076D01*
X001948Y019077D01*
X001915Y019073D01*
X001884Y019066D01*
X001853Y019055D01*
X001823Y019040D01*
X001796Y019023D01*
X001771Y019002D01*
X001748Y018978D01*
X001729Y018952D01*
X001712Y018924D01*
X001699Y018894D01*
X001690Y018863D01*
X001684Y018830D01*
X001682Y018798D01*
X001684Y018765D01*
X001689Y018733D01*
X001699Y018702D01*
X001712Y018672D01*
X001728Y018643D01*
X001747Y018617D01*
X001770Y018594D01*
X001795Y018572D01*
X001815Y018604D01*
X001792Y018624D01*
X001772Y018646D01*
X001754Y018671D01*
X001740Y018698D01*
X001730Y018726D01*
X001723Y018755D01*
X001719Y018785D01*
X001720Y018816D01*
X001724Y018846D01*
X001732Y018875D01*
X001743Y018903D01*
X001758Y018929D01*
X001776Y018953D01*
X001797Y018975D01*
X001820Y018994D01*
X001846Y019011D01*
X001873Y019023D01*
X001902Y019033D01*
X001932Y019038D01*
X001962Y019040D01*
X001992Y019038D01*
X002022Y019032D01*
X002051Y019023D01*
X002078Y019010D01*
X002104Y018994D01*
X002127Y018975D01*
X002148Y018953D01*
X002118Y018932D01*
X002098Y018951D01*
X002077Y018968D01*
X002053Y018982D01*
X002028Y018992D01*
X002001Y018999D01*
X001974Y019003D01*
X001946Y019002D01*
X001919Y018999D01*
X001893Y018991D01*
X001868Y018980D01*
X001844Y018966D01*
X001823Y018949D01*
X001804Y018929D01*
X001788Y018907D01*
X001775Y018883D01*
X001765Y018857D01*
X001759Y018830D01*
X001756Y018803D01*
X001757Y018775D01*
X001762Y018748D01*
X001770Y018722D01*
X001782Y018697D01*
X001797Y018674D01*
X001814Y018653D01*
X001835Y018635D01*
X001855Y018666D01*
X001836Y018684D01*
X001821Y018704D01*
X001809Y018726D01*
X001800Y018749D01*
X001795Y018774D01*
X001793Y018799D01*
X001795Y018824D01*
X001801Y018849D01*
X001811Y018872D01*
X001824Y018894D01*
X001840Y018914D01*
X001858Y018931D01*
X001879Y018944D01*
X001902Y018955D01*
X001927Y018962D01*
X001952Y018966D01*
X001977Y018965D01*
X002002Y018961D01*
X002026Y018953D01*
X002048Y018942D01*
X002069Y018928D01*
X002087Y018910D01*
X002057Y018889D01*
X002040Y018903D01*
X002021Y018915D01*
X002000Y018923D01*
X001978Y018928D01*
X001956Y018929D01*
X001934Y018926D01*
X001912Y018919D01*
X001892Y018909D01*
X001875Y018896D01*
X001859Y018880D01*
X001847Y018861D01*
X001837Y018841D01*
X001832Y018819D01*
X001830Y018797D01*
X001832Y018774D01*
X001838Y018753D01*
X001847Y018732D01*
X001859Y018714D01*
X001875Y018698D01*
X001895Y018729D01*
X001883Y018744D01*
X001875Y018760D01*
X001869Y018777D01*
X001867Y018796D01*
X001869Y018814D01*
X001874Y018832D01*
X001882Y018848D01*
X001893Y018863D01*
X001907Y018875D01*
X001923Y018884D01*
X001941Y018890D01*
X001959Y018892D01*
X001977Y018891D01*
X001995Y018886D01*
X002012Y018878D01*
X002026Y018867D01*
X001995Y018845D01*
X001983Y018851D01*
X001970Y018854D01*
X001956Y018855D01*
X001943Y018852D01*
X001931Y018846D01*
X001920Y018837D01*
X001912Y018826D01*
X001906Y018814D01*
X001904Y018800D01*
X001905Y018786D01*
X001909Y018773D01*
X001916Y018762D01*
X007150Y014957D02*
X007303Y015110D01*
X007303Y014650D01*
X007150Y014650D02*
X007457Y014650D01*
X007610Y014650D02*
X007610Y015110D01*
X007841Y014957D02*
X007610Y014803D01*
X007841Y014650D01*
X009650Y014630D02*
X009803Y014707D01*
X009880Y014707D01*
X009957Y014630D01*
X009957Y014477D01*
X009880Y014400D01*
X009727Y014400D01*
X009650Y014477D01*
X009650Y014630D02*
X009650Y014860D01*
X009957Y014860D01*
X010110Y014784D02*
X010187Y014860D01*
X010341Y014860D01*
X010417Y014784D01*
X010110Y014477D01*
X010187Y014400D01*
X010341Y014400D01*
X010417Y014477D01*
X010417Y014784D01*
X010571Y014707D02*
X010571Y014400D01*
X010724Y014400D02*
X010724Y014630D01*
X010801Y014707D01*
X010878Y014630D01*
X010878Y014400D01*
X010724Y014630D02*
X010648Y014707D01*
X010571Y014707D01*
X010110Y014784D02*
X010110Y014477D01*
X011150Y014477D02*
X011227Y014400D01*
X011380Y014400D01*
X011457Y014477D01*
X011457Y014630D01*
X011380Y014707D01*
X011303Y014707D01*
X011150Y014630D01*
X011150Y014860D01*
X011457Y014860D01*
X011610Y014784D02*
X011687Y014860D01*
X011841Y014860D01*
X011917Y014784D01*
X011610Y014477D01*
X011687Y014400D01*
X011841Y014400D01*
X011917Y014477D01*
X011917Y014784D01*
X012071Y014707D02*
X012148Y014707D01*
X012224Y014630D01*
X012301Y014707D01*
X012378Y014630D01*
X012378Y014400D01*
X012224Y014400D02*
X012224Y014630D01*
X012071Y014707D02*
X012071Y014400D01*
X011610Y014477D02*
X011610Y014784D01*
X013306Y013207D02*
X013459Y013360D01*
X013459Y012900D01*
X013306Y012900D02*
X013613Y012900D01*
X013766Y012900D02*
X013766Y013360D01*
X013997Y013207D02*
X013766Y013053D01*
X013997Y012900D01*
X015150Y013232D02*
X015610Y013232D01*
X015610Y013385D02*
X015610Y013078D01*
X015303Y013078D02*
X015150Y013232D01*
X015533Y013539D02*
X015533Y013615D01*
X015610Y013615D01*
X015610Y013539D01*
X015533Y013539D01*
X015533Y013769D02*
X015610Y013846D01*
X015610Y013999D01*
X015533Y014076D01*
X015380Y014076D01*
X015303Y013999D01*
X015303Y013922D01*
X015380Y013769D01*
X015150Y013769D01*
X015150Y014076D01*
X015303Y014229D02*
X015533Y014229D01*
X015610Y014306D01*
X015610Y014536D01*
X015303Y014536D01*
X015380Y014690D02*
X015380Y014843D01*
X015610Y014690D02*
X015150Y014690D01*
X015150Y014997D01*
X013497Y010610D02*
X013190Y010610D01*
X013190Y010150D01*
X013036Y010150D02*
X013036Y010380D01*
X012959Y010457D01*
X012729Y010457D01*
X012729Y010150D01*
X012576Y010227D02*
X012576Y010534D01*
X012269Y010227D01*
X012346Y010150D01*
X012499Y010150D01*
X012576Y010227D01*
X012576Y010534D02*
X012499Y010610D01*
X012346Y010610D01*
X012269Y010534D01*
X012269Y010227D01*
X012115Y010227D02*
X012039Y010150D01*
X011885Y010150D01*
X011808Y010227D01*
X012115Y010534D01*
X012115Y010227D01*
X012115Y010534D02*
X012039Y010610D01*
X011885Y010610D01*
X011808Y010534D01*
X011808Y010227D01*
X011655Y010150D02*
X011348Y010150D01*
X011501Y010150D02*
X011501Y010610D01*
X011348Y010457D01*
X013190Y010380D02*
X013343Y010380D01*
X015450Y010207D02*
X015603Y010360D01*
X015603Y009900D01*
X015450Y009900D02*
X015757Y009900D01*
X015910Y009900D02*
X015910Y010360D01*
X016064Y010207D01*
X016217Y010360D01*
X016217Y009900D01*
X017200Y009417D02*
X017660Y009417D01*
X017353Y009264D02*
X017200Y009417D01*
X017353Y009264D02*
X017200Y009110D01*
X017660Y009110D01*
X017660Y008957D02*
X017660Y008650D01*
X017660Y008803D02*
X017200Y008803D01*
X017353Y008650D01*
X016247Y007607D02*
X016016Y007453D01*
X016247Y007300D01*
X016016Y007300D02*
X016016Y007760D01*
X015709Y007760D02*
X015709Y007300D01*
X015556Y007300D02*
X015863Y007300D01*
X015556Y007607D02*
X015709Y007760D01*
X016828Y006707D02*
X016982Y006860D01*
X016982Y006400D01*
X017135Y006400D02*
X016828Y006400D01*
X017289Y006400D02*
X017365Y006400D01*
X017365Y006477D01*
X017289Y006477D01*
X017289Y006400D01*
X017519Y006477D02*
X017596Y006400D01*
X017749Y006400D01*
X017826Y006477D01*
X017826Y006630D01*
X017749Y006707D01*
X017672Y006707D01*
X017519Y006630D01*
X017519Y006860D01*
X017826Y006860D01*
X017979Y006707D02*
X017979Y006477D01*
X018056Y006400D01*
X018286Y006400D01*
X018286Y006707D01*
X018440Y006630D02*
X018593Y006630D01*
X018440Y006400D02*
X018440Y006860D01*
X018747Y006860D01*
X019150Y007031D02*
X019150Y007338D01*
X019380Y007185D02*
X019380Y007031D01*
X019380Y006878D02*
X019303Y006801D01*
X019303Y006571D01*
X019610Y006571D01*
X019533Y006417D02*
X019610Y006341D01*
X019610Y006187D01*
X019533Y006110D01*
X019226Y006417D01*
X019533Y006417D01*
X019533Y006110D02*
X019226Y006110D01*
X019150Y006187D01*
X019150Y006341D01*
X019226Y006417D01*
X019380Y006878D02*
X019610Y006878D01*
X019610Y007031D02*
X019150Y007031D01*
X019610Y005957D02*
X019610Y005650D01*
X019610Y005803D02*
X019150Y005803D01*
X019303Y005650D01*
X019402Y005110D02*
X019249Y005034D01*
X019096Y004880D01*
X019326Y004880D01*
X019402Y004803D01*
X019402Y004727D01*
X019326Y004650D01*
X019172Y004650D01*
X019096Y004727D01*
X019096Y004880D01*
X018942Y004880D02*
X018942Y004727D01*
X018865Y004650D01*
X018712Y004650D01*
X018635Y004727D01*
X018635Y004880D02*
X018789Y004957D01*
X018865Y004957D01*
X018942Y004880D01*
X018942Y005110D02*
X018635Y005110D01*
X018635Y004880D01*
X018093Y005130D02*
X017940Y005130D01*
X017786Y005207D02*
X017786Y004900D01*
X017556Y004900D01*
X017479Y004977D01*
X017479Y005207D01*
X017326Y005130D02*
X017326Y004977D01*
X017249Y004900D01*
X017096Y004900D01*
X017019Y004977D01*
X017019Y005130D02*
X017172Y005207D01*
X017249Y005207D01*
X017326Y005130D01*
X017326Y005360D02*
X017019Y005360D01*
X017019Y005130D01*
X016865Y004977D02*
X016865Y004900D01*
X016789Y004900D01*
X016789Y004977D01*
X016865Y004977D01*
X016635Y004900D02*
X016328Y004900D01*
X016482Y004900D02*
X016482Y005360D01*
X016328Y005207D01*
X016360Y004610D02*
X016360Y004150D01*
X016207Y004150D02*
X015900Y004150D01*
X016053Y004150D02*
X016053Y004610D01*
X015900Y004457D01*
X015611Y004400D02*
X015381Y004553D01*
X015611Y004707D01*
X015381Y004860D02*
X015381Y004400D01*
X015228Y004477D02*
X015151Y004400D01*
X014998Y004400D01*
X014921Y004477D01*
X015228Y004784D01*
X015228Y004477D01*
X015228Y004784D02*
X015151Y004860D01*
X014998Y004860D01*
X014921Y004784D01*
X014921Y004477D01*
X014767Y004400D02*
X014460Y004400D01*
X014767Y004707D01*
X014767Y004784D01*
X014691Y004860D01*
X014537Y004860D01*
X014460Y004784D01*
X014307Y004784D02*
X014307Y004477D01*
X014230Y004400D01*
X014077Y004400D01*
X014000Y004477D01*
X014077Y004630D02*
X014307Y004630D01*
X014307Y004784D02*
X014230Y004860D01*
X014077Y004860D01*
X014000Y004784D01*
X014000Y004707D01*
X014077Y004630D01*
X013497Y005150D02*
X013266Y005303D01*
X013497Y005457D01*
X013266Y005610D02*
X013266Y005150D01*
X013113Y005227D02*
X013036Y005150D01*
X012883Y005150D01*
X012806Y005227D01*
X013113Y005534D01*
X013113Y005227D01*
X012806Y005227D02*
X012806Y005534D01*
X012883Y005610D01*
X013036Y005610D01*
X013113Y005534D01*
X012652Y005150D02*
X012346Y005150D01*
X012499Y005150D02*
X012499Y005610D01*
X012346Y005457D01*
X012360Y004747D02*
X012207Y004516D01*
X012053Y004747D01*
X011900Y004516D02*
X012360Y004516D01*
X012283Y004363D02*
X011976Y004363D01*
X012283Y004056D01*
X012360Y004133D01*
X012360Y004286D01*
X012283Y004363D01*
X011976Y004363D02*
X011900Y004286D01*
X011900Y004133D01*
X011976Y004056D01*
X012283Y004056D01*
X012283Y003902D02*
X011976Y003902D01*
X012283Y003596D01*
X012360Y003672D01*
X012360Y003826D01*
X012283Y003902D01*
X011976Y003902D02*
X011900Y003826D01*
X011900Y003672D01*
X011976Y003596D01*
X012283Y003596D01*
X012287Y003610D02*
X012441Y003610D01*
X012517Y003534D01*
X012210Y003227D01*
X012287Y003150D01*
X012441Y003150D01*
X012517Y003227D01*
X012517Y003534D01*
X012671Y003610D02*
X012671Y003150D01*
X012671Y003303D02*
X012901Y003457D01*
X012671Y003303D02*
X012901Y003150D01*
X012360Y003135D02*
X012360Y003442D01*
X012360Y003289D02*
X011900Y003289D01*
X012053Y003135D01*
X012057Y003150D02*
X011750Y003150D01*
X011903Y003150D02*
X011903Y003610D01*
X011750Y003457D01*
X012210Y003534D02*
X012210Y003227D01*
X012210Y003534D02*
X012287Y003610D01*
X012430Y002597D02*
X012353Y002520D01*
X012430Y002443D01*
X012660Y002443D01*
X012660Y002290D02*
X012353Y002290D01*
X012353Y002366D01*
X012430Y002443D01*
X012430Y002597D02*
X012660Y002597D01*
X012583Y002136D02*
X012276Y002136D01*
X012583Y001829D01*
X012660Y001906D01*
X012660Y002059D01*
X012583Y002136D01*
X012276Y002136D02*
X012200Y002059D01*
X012200Y001906D01*
X012276Y001829D01*
X012583Y001829D01*
X012583Y001676D02*
X012660Y001599D01*
X012660Y001446D01*
X012583Y001369D01*
X012430Y001369D02*
X012353Y001522D01*
X012353Y001599D01*
X012430Y001676D01*
X012583Y001676D01*
X012200Y001676D02*
X012200Y001369D01*
X012430Y001369D01*
X010328Y002400D02*
X010328Y002707D01*
X010328Y002400D02*
X010098Y002400D01*
X010021Y002477D01*
X010021Y002707D01*
X009867Y002707D02*
X009867Y002784D01*
X009791Y002860D01*
X009637Y002860D01*
X009560Y002784D01*
X009407Y002784D02*
X009330Y002860D01*
X009177Y002860D01*
X009100Y002784D01*
X009407Y002784D02*
X009407Y002707D01*
X009100Y002400D01*
X009407Y002400D01*
X009560Y002400D02*
X009867Y002707D01*
X009867Y002400D02*
X009560Y002400D01*
X009648Y001510D02*
X009801Y001510D01*
X009878Y001434D01*
X009571Y001127D01*
X009648Y001050D01*
X009801Y001050D01*
X009878Y001127D01*
X009878Y001434D01*
X010031Y001510D02*
X010031Y001050D01*
X010031Y001203D02*
X010261Y001357D01*
X010031Y001203D02*
X010261Y001050D01*
X009571Y001127D02*
X009571Y001434D01*
X009648Y001510D01*
X009417Y001434D02*
X009110Y001127D01*
X009187Y001050D01*
X009341Y001050D01*
X009417Y001127D01*
X009417Y001434D01*
X009341Y001510D01*
X009187Y001510D01*
X009110Y001434D01*
X009110Y001127D01*
X008957Y001050D02*
X008650Y001050D01*
X008957Y001357D01*
X008957Y001434D01*
X008880Y001510D01*
X008727Y001510D01*
X008650Y001434D01*
X004991Y001721D02*
X005289Y001934D01*
X005289Y001933D02*
X005298Y001932D01*
X005308Y001934D01*
X005317Y001938D01*
X005324Y001945D01*
X005328Y001954D01*
X005329Y001964D01*
X005327Y001974D01*
X005525Y002281D01*
X005555Y002257D01*
X005583Y002231D01*
X005608Y002202D01*
X005629Y002170D01*
X005648Y002137D01*
X005663Y002102D01*
X005675Y002066D01*
X005684Y002028D01*
X005688Y001990D01*
X005689Y001952D01*
X005686Y001914D01*
X005679Y001876D01*
X005669Y001840D01*
X005655Y001804D01*
X005638Y001770D01*
X005617Y001737D01*
X005594Y001707D01*
X005567Y001680D01*
X005538Y001655D01*
X005507Y001633D01*
X005474Y001614D01*
X005439Y001598D01*
X005403Y001586D01*
X005365Y001578D01*
X005327Y001573D01*
X005289Y001572D01*
X005251Y001575D01*
X005213Y001581D01*
X005176Y001591D01*
X005141Y001605D01*
X005107Y001622D01*
X005074Y001642D01*
X005044Y001666D01*
X005016Y001692D01*
X004991Y001721D01*
X005021Y001742D01*
X005045Y001715D01*
X005072Y001690D01*
X005102Y001668D01*
X005133Y001650D01*
X005167Y001634D01*
X005201Y001622D01*
X005237Y001614D01*
X005273Y001610D01*
X005310Y001609D01*
X005346Y001612D01*
X005382Y001619D01*
X005417Y001630D01*
X005451Y001644D01*
X005483Y001661D01*
X005513Y001682D01*
X005541Y001706D01*
X005566Y001732D01*
X005589Y001761D01*
X005608Y001792D01*
X005624Y001825D01*
X005637Y001860D01*
X005645Y001895D01*
X005651Y001931D01*
X005652Y001968D01*
X005650Y002005D01*
X005643Y002041D01*
X005634Y002076D01*
X005620Y002110D01*
X005603Y002142D01*
X005583Y002173D01*
X005560Y002201D01*
X005534Y002227D01*
X005505Y002250D01*
X005485Y002219D01*
X005512Y002197D01*
X005536Y002172D01*
X005558Y002144D01*
X005576Y002115D01*
X005591Y002084D01*
X005603Y002051D01*
X005610Y002017D01*
X005614Y001982D01*
X005615Y001948D01*
X005611Y001913D01*
X005604Y001879D01*
X005593Y001846D01*
X005578Y001815D01*
X005560Y001785D01*
X005539Y001757D01*
X005515Y001732D01*
X005488Y001710D01*
X005460Y001690D01*
X005429Y001674D01*
X005396Y001662D01*
X005363Y001653D01*
X005328Y001647D01*
X005294Y001646D01*
X005259Y001648D01*
X005225Y001655D01*
X005192Y001664D01*
X005159Y001678D01*
X005129Y001695D01*
X005101Y001715D01*
X005075Y001738D01*
X005051Y001764D01*
X005082Y001785D01*
X005104Y001761D01*
X005129Y001740D01*
X005156Y001722D01*
X005185Y001707D01*
X005215Y001695D01*
X005247Y001688D01*
X005280Y001684D01*
X005312Y001683D01*
X005345Y001687D01*
X005376Y001694D01*
X005407Y001705D01*
X005437Y001720D01*
X005464Y001737D01*
X005489Y001758D01*
X005512Y001782D01*
X005531Y001808D01*
X005548Y001836D01*
X005561Y001866D01*
X005570Y001897D01*
X005576Y001930D01*
X005578Y001962D01*
X005576Y001995D01*
X005571Y002027D01*
X005561Y002058D01*
X005548Y002088D01*
X005532Y002117D01*
X005513Y002143D01*
X005490Y002166D01*
X005465Y002188D01*
X005445Y002156D01*
X005468Y002136D01*
X005488Y002114D01*
X005506Y002089D01*
X005520Y002062D01*
X005530Y002034D01*
X005537Y002005D01*
X005541Y001975D01*
X005540Y001944D01*
X005536Y001914D01*
X005528Y001885D01*
X005517Y001857D01*
X005502Y001831D01*
X005484Y001807D01*
X005463Y001785D01*
X005440Y001766D01*
X005414Y001749D01*
X005387Y001737D01*
X005358Y001727D01*
X005328Y001722D01*
X005298Y001720D01*
X005268Y001722D01*
X005238Y001728D01*
X005209Y001737D01*
X005182Y001750D01*
X005156Y001766D01*
X005133Y001785D01*
X005112Y001807D01*
X005142Y001828D01*
X005162Y001809D01*
X005183Y001792D01*
X005207Y001778D01*
X005232Y001768D01*
X005259Y001761D01*
X005286Y001757D01*
X005314Y001758D01*
X005341Y001761D01*
X005367Y001769D01*
X005392Y001780D01*
X005416Y001794D01*
X005437Y001811D01*
X005456Y001831D01*
X005472Y001853D01*
X005485Y001877D01*
X005495Y001903D01*
X005501Y001930D01*
X005504Y001957D01*
X005503Y001985D01*
X005498Y002012D01*
X005490Y002038D01*
X005478Y002063D01*
X005463Y002086D01*
X005446Y002107D01*
X005425Y002125D01*
X005405Y002094D01*
X005424Y002076D01*
X005439Y002056D01*
X005451Y002034D01*
X005460Y002011D01*
X005465Y001986D01*
X005467Y001961D01*
X005465Y001936D01*
X005459Y001911D01*
X005449Y001888D01*
X005436Y001866D01*
X005420Y001846D01*
X005402Y001829D01*
X005381Y001816D01*
X005358Y001805D01*
X005333Y001798D01*
X005308Y001794D01*
X005283Y001795D01*
X005258Y001799D01*
X005234Y001807D01*
X005212Y001818D01*
X005191Y001832D01*
X005173Y001850D01*
X005203Y001871D01*
X005220Y001857D01*
X005239Y001845D01*
X005260Y001837D01*
X005282Y001832D01*
X005304Y001831D01*
X005326Y001834D01*
X005348Y001841D01*
X005368Y001851D01*
X005385Y001864D01*
X005401Y001880D01*
X005413Y001899D01*
X005423Y001919D01*
X005428Y001941D01*
X005430Y001963D01*
X005428Y001986D01*
X005422Y002007D01*
X005413Y002028D01*
X005401Y002046D01*
X005385Y002062D01*
X005365Y002031D01*
X005377Y002016D01*
X005385Y002000D01*
X005391Y001983D01*
X005393Y001964D01*
X005391Y001946D01*
X005386Y001928D01*
X005378Y001912D01*
X005367Y001897D01*
X005353Y001885D01*
X005337Y001876D01*
X005319Y001870D01*
X005301Y001868D01*
X005283Y001869D01*
X005265Y001874D01*
X005248Y001882D01*
X005234Y001893D01*
X005265Y001915D01*
X005277Y001909D01*
X005290Y001906D01*
X005304Y001905D01*
X005317Y001908D01*
X005329Y001914D01*
X005340Y001923D01*
X005348Y001934D01*
X005354Y001946D01*
X005356Y001960D01*
X005355Y001974D01*
X005351Y001987D01*
X005344Y001998D01*
X005291Y002793D02*
X005291Y003100D01*
X005291Y002946D02*
X004831Y002946D01*
X004984Y002793D01*
X004907Y003253D02*
X004831Y003330D01*
X004831Y003483D01*
X004907Y003560D01*
X005214Y003253D01*
X005291Y003330D01*
X005291Y003483D01*
X005214Y003560D01*
X004907Y003560D01*
X004831Y003713D02*
X005214Y003713D01*
X005291Y003790D01*
X005291Y003944D01*
X005214Y004020D01*
X004831Y004020D01*
X004831Y004174D02*
X005291Y004174D01*
X005061Y004174D02*
X005061Y004481D01*
X004831Y004481D02*
X005291Y004481D01*
X005539Y004991D02*
X005326Y005289D01*
X005327Y005289D02*
X005328Y005298D01*
X005326Y005308D01*
X005322Y005317D01*
X005315Y005324D01*
X005306Y005328D01*
X005296Y005329D01*
X005286Y005327D01*
X004979Y005525D01*
X005003Y005555D01*
X005029Y005583D01*
X005058Y005608D01*
X005090Y005629D01*
X005123Y005648D01*
X005158Y005663D01*
X005194Y005675D01*
X005232Y005684D01*
X005270Y005688D01*
X005308Y005689D01*
X005346Y005686D01*
X005384Y005679D01*
X005420Y005669D01*
X005456Y005655D01*
X005490Y005638D01*
X005523Y005617D01*
X005553Y005594D01*
X005580Y005567D01*
X005605Y005538D01*
X005627Y005507D01*
X005646Y005474D01*
X005662Y005439D01*
X005674Y005403D01*
X005682Y005365D01*
X005687Y005327D01*
X005688Y005289D01*
X005685Y005251D01*
X005679Y005213D01*
X005669Y005176D01*
X005655Y005141D01*
X005638Y005107D01*
X005618Y005074D01*
X005594Y005044D01*
X005568Y005016D01*
X005539Y004991D01*
X005518Y005021D01*
X005545Y005045D01*
X005570Y005072D01*
X005592Y005102D01*
X005610Y005133D01*
X005626Y005167D01*
X005638Y005201D01*
X005646Y005237D01*
X005650Y005273D01*
X005651Y005310D01*
X005648Y005346D01*
X005641Y005382D01*
X005630Y005417D01*
X005616Y005451D01*
X005599Y005483D01*
X005578Y005513D01*
X005554Y005541D01*
X005528Y005566D01*
X005499Y005589D01*
X005468Y005608D01*
X005435Y005624D01*
X005400Y005637D01*
X005365Y005645D01*
X005329Y005651D01*
X005292Y005652D01*
X005255Y005650D01*
X005219Y005643D01*
X005184Y005634D01*
X005150Y005620D01*
X005118Y005603D01*
X005087Y005583D01*
X005059Y005560D01*
X005033Y005534D01*
X005010Y005505D01*
X005041Y005485D01*
X005063Y005512D01*
X005088Y005536D01*
X005116Y005558D01*
X005145Y005576D01*
X005176Y005591D01*
X005209Y005603D01*
X005243Y005610D01*
X005278Y005614D01*
X005312Y005615D01*
X005347Y005611D01*
X005381Y005604D01*
X005414Y005593D01*
X005445Y005578D01*
X005475Y005560D01*
X005503Y005539D01*
X005528Y005515D01*
X005550Y005488D01*
X005570Y005460D01*
X005586Y005429D01*
X005598Y005396D01*
X005607Y005363D01*
X005613Y005328D01*
X005614Y005294D01*
X005612Y005259D01*
X005605Y005225D01*
X005596Y005192D01*
X005582Y005159D01*
X005565Y005129D01*
X005545Y005101D01*
X005522Y005075D01*
X005496Y005051D01*
X005475Y005082D01*
X005499Y005104D01*
X005520Y005129D01*
X005538Y005156D01*
X005553Y005185D01*
X005565Y005215D01*
X005572Y005247D01*
X005576Y005280D01*
X005577Y005312D01*
X005573Y005345D01*
X005566Y005376D01*
X005555Y005407D01*
X005540Y005437D01*
X005523Y005464D01*
X005502Y005489D01*
X005478Y005512D01*
X005452Y005531D01*
X005424Y005548D01*
X005394Y005561D01*
X005363Y005570D01*
X005330Y005576D01*
X005298Y005578D01*
X005265Y005576D01*
X005233Y005571D01*
X005202Y005561D01*
X005172Y005548D01*
X005143Y005532D01*
X005117Y005513D01*
X005094Y005490D01*
X005072Y005465D01*
X005104Y005445D01*
X005124Y005468D01*
X005146Y005488D01*
X005171Y005506D01*
X005198Y005520D01*
X005226Y005530D01*
X005255Y005537D01*
X005285Y005541D01*
X005316Y005540D01*
X005346Y005536D01*
X005375Y005528D01*
X005403Y005517D01*
X005429Y005502D01*
X005453Y005484D01*
X005475Y005463D01*
X005494Y005440D01*
X005511Y005414D01*
X005523Y005387D01*
X005533Y005358D01*
X005538Y005328D01*
X005540Y005298D01*
X005538Y005268D01*
X005532Y005238D01*
X005523Y005209D01*
X005510Y005182D01*
X005494Y005156D01*
X005475Y005133D01*
X005453Y005112D01*
X005432Y005142D01*
X005451Y005162D01*
X005468Y005183D01*
X005482Y005207D01*
X005492Y005232D01*
X005499Y005259D01*
X005503Y005286D01*
X005502Y005314D01*
X005499Y005341D01*
X005491Y005367D01*
X005480Y005392D01*
X005466Y005416D01*
X005449Y005437D01*
X005429Y005456D01*
X005407Y005472D01*
X005383Y005485D01*
X005357Y005495D01*
X005330Y005501D01*
X005303Y005504D01*
X005275Y005503D01*
X005248Y005498D01*
X005222Y005490D01*
X005197Y005478D01*
X005174Y005463D01*
X005153Y005446D01*
X005135Y005425D01*
X005166Y005405D01*
X005184Y005424D01*
X005204Y005439D01*
X005226Y005451D01*
X005249Y005460D01*
X005274Y005465D01*
X005299Y005467D01*
X005324Y005465D01*
X005349Y005459D01*
X005372Y005449D01*
X005394Y005436D01*
X005414Y005420D01*
X005431Y005402D01*
X005444Y005381D01*
X005455Y005358D01*
X005462Y005333D01*
X005466Y005308D01*
X005465Y005283D01*
X005461Y005258D01*
X005453Y005234D01*
X005442Y005212D01*
X005428Y005191D01*
X005410Y005173D01*
X005389Y005203D01*
X005403Y005220D01*
X005415Y005239D01*
X005423Y005260D01*
X005428Y005282D01*
X005429Y005304D01*
X005426Y005326D01*
X005419Y005348D01*
X005409Y005368D01*
X005396Y005385D01*
X005380Y005401D01*
X005361Y005413D01*
X005341Y005423D01*
X005319Y005428D01*
X005297Y005430D01*
X005274Y005428D01*
X005253Y005422D01*
X005232Y005413D01*
X005214Y005401D01*
X005198Y005385D01*
X005229Y005365D01*
X005244Y005377D01*
X005260Y005385D01*
X005277Y005391D01*
X005296Y005393D01*
X005314Y005391D01*
X005332Y005386D01*
X005348Y005378D01*
X005363Y005367D01*
X005375Y005353D01*
X005384Y005337D01*
X005390Y005319D01*
X005392Y005301D01*
X005391Y005283D01*
X005386Y005265D01*
X005378Y005248D01*
X005367Y005234D01*
X005345Y005265D01*
X005351Y005277D01*
X005354Y005290D01*
X005355Y005304D01*
X005352Y005317D01*
X005346Y005329D01*
X005337Y005340D01*
X005326Y005348D01*
X005314Y005354D01*
X005300Y005356D01*
X005286Y005355D01*
X005273Y005351D01*
X005262Y005344D01*
X006639Y005130D02*
X006946Y005130D01*
X007099Y004977D02*
X007176Y004977D01*
X007176Y004900D01*
X007099Y004900D01*
X007099Y004977D01*
X007329Y004977D02*
X007329Y004900D01*
X007329Y004977D02*
X007636Y005284D01*
X007636Y005360D01*
X007329Y005360D01*
X006869Y005360D02*
X006869Y004900D01*
X006639Y005130D02*
X006869Y005360D01*
X007790Y005207D02*
X007790Y004977D01*
X007866Y004900D01*
X008097Y004900D01*
X008097Y005207D01*
X008130Y005400D02*
X007977Y005400D01*
X007900Y005477D01*
X008053Y005630D02*
X008130Y005630D01*
X008207Y005553D01*
X008207Y005477D01*
X008130Y005400D01*
X008130Y005630D02*
X008207Y005707D01*
X008207Y005784D01*
X008130Y005860D01*
X007977Y005860D01*
X007900Y005784D01*
X008360Y005784D02*
X008360Y005477D01*
X008667Y005784D01*
X008667Y005477D01*
X008591Y005400D01*
X008437Y005400D01*
X008360Y005477D01*
X008360Y005784D02*
X008437Y005860D01*
X008591Y005860D01*
X008667Y005784D01*
X008821Y005477D02*
X008898Y005477D01*
X008898Y005400D01*
X008821Y005400D01*
X008821Y005477D01*
X009051Y005400D02*
X009358Y005400D01*
X009511Y005400D02*
X009511Y005860D01*
X009630Y006039D02*
X009630Y006346D01*
X009783Y006499D02*
X009783Y006576D01*
X009860Y006576D01*
X009860Y006499D01*
X009783Y006499D01*
X009783Y006729D02*
X009860Y006729D01*
X009783Y006729D02*
X009476Y007036D01*
X009400Y007036D01*
X009400Y006729D01*
X009553Y007190D02*
X009553Y007420D01*
X009630Y007497D01*
X009783Y007497D01*
X009860Y007420D01*
X009860Y007190D01*
X010013Y007190D02*
X009553Y007190D01*
X010150Y007492D02*
X010150Y007798D01*
X010380Y007645D02*
X010380Y007492D01*
X010380Y007338D02*
X010610Y007338D01*
X010610Y007492D02*
X010150Y007492D01*
X010380Y007338D02*
X010303Y007261D01*
X010303Y007031D01*
X010610Y007031D01*
X010533Y006878D02*
X010610Y006801D01*
X010610Y006648D01*
X010533Y006571D01*
X010226Y006878D01*
X010533Y006878D01*
X010226Y006878D02*
X010150Y006801D01*
X010150Y006648D01*
X010226Y006571D01*
X010533Y006571D01*
X010533Y006417D02*
X010226Y006417D01*
X010533Y006110D01*
X010610Y006187D01*
X010610Y006341D01*
X010533Y006417D01*
X010533Y006110D02*
X010226Y006110D01*
X010150Y006187D01*
X010150Y006341D01*
X010226Y006417D01*
X009860Y006269D02*
X009400Y006269D01*
X009630Y006039D01*
X009742Y005707D02*
X009511Y005553D01*
X009742Y005400D01*
X009204Y005400D02*
X009204Y005860D01*
X009051Y005707D01*
X008511Y006650D02*
X008281Y006650D01*
X008281Y006497D02*
X008281Y006957D01*
X008511Y006957D01*
X008588Y006880D01*
X008588Y006727D01*
X008511Y006650D01*
X008128Y006727D02*
X008128Y007034D01*
X007821Y006727D01*
X007898Y006650D01*
X008051Y006650D01*
X008128Y006727D01*
X008128Y007034D02*
X008051Y007110D01*
X007898Y007110D01*
X007821Y007034D01*
X007821Y006727D01*
X007667Y007034D02*
X007360Y006727D01*
X007360Y006650D01*
X007130Y006650D02*
X007130Y007110D01*
X006900Y006880D01*
X007207Y006880D01*
X007360Y007110D02*
X007667Y007110D01*
X007667Y007034D01*
X007610Y007650D02*
X007917Y007957D01*
X007917Y008034D01*
X007841Y008110D01*
X007687Y008110D01*
X007610Y008034D01*
X007457Y008034D02*
X007380Y008110D01*
X007227Y008110D01*
X007150Y008034D01*
X007150Y007957D01*
X007227Y007880D01*
X007380Y007880D01*
X007457Y007803D01*
X007457Y007727D01*
X007380Y007650D01*
X007227Y007650D01*
X007150Y007727D01*
X007150Y007803D01*
X007227Y007880D01*
X007380Y007880D02*
X007457Y007957D01*
X007457Y008034D01*
X007610Y007650D02*
X007917Y007650D01*
X008071Y007650D02*
X008071Y008110D01*
X008301Y007957D02*
X008071Y007803D01*
X008301Y007650D01*
X008479Y008747D02*
X008479Y009207D01*
X008709Y009207D01*
X008786Y009130D01*
X008786Y008977D01*
X008709Y008900D01*
X008479Y008900D01*
X008326Y008900D02*
X008019Y008900D01*
X008326Y009207D01*
X008326Y009284D01*
X008249Y009360D01*
X008096Y009360D01*
X008019Y009284D01*
X007712Y009360D02*
X007712Y008900D01*
X007865Y008900D02*
X007558Y008900D01*
X007558Y009207D02*
X007712Y009360D01*
X007712Y009900D02*
X007712Y010360D01*
X007558Y010207D01*
X007558Y009900D02*
X007865Y009900D01*
X008019Y009900D02*
X008326Y010207D01*
X008326Y010284D01*
X008249Y010360D01*
X008096Y010360D01*
X008019Y010284D01*
X008479Y010207D02*
X008709Y010207D01*
X008786Y010130D01*
X008786Y009977D01*
X008709Y009900D01*
X008479Y009900D01*
X008326Y009900D02*
X008019Y009900D01*
X008479Y009747D02*
X008479Y010207D01*
X008940Y010130D02*
X009093Y010130D01*
X008940Y009900D02*
X008940Y010360D01*
X009247Y010360D01*
X009247Y009360D02*
X008940Y009360D01*
X008940Y008900D01*
X008940Y009130D02*
X009093Y009130D01*
X010610Y005957D02*
X010610Y005650D01*
X010610Y005803D02*
X010150Y005803D01*
X010303Y005650D01*
X005214Y003253D02*
X004907Y003253D01*
X002338Y003296D02*
X002185Y003143D01*
X002185Y003220D02*
X002185Y002990D01*
X002338Y002990D02*
X001878Y002990D01*
X001878Y003220D01*
X001955Y003296D01*
X002108Y003296D01*
X002185Y003220D01*
X002338Y003450D02*
X002338Y003757D01*
X002338Y003910D02*
X002031Y004217D01*
X001955Y004217D01*
X001878Y004141D01*
X001878Y003987D01*
X001955Y003910D01*
X001878Y003603D02*
X002338Y003603D01*
X002338Y003910D02*
X002338Y004217D01*
X002338Y004371D02*
X002262Y004371D01*
X001955Y004678D01*
X001878Y004678D01*
X001878Y004371D01*
X001878Y003603D02*
X002031Y003450D01*
X001955Y002836D02*
X001878Y002759D01*
X001878Y002529D01*
X002338Y002529D01*
X002338Y002759D01*
X002262Y002836D01*
X001955Y002836D01*
X001721Y002269D02*
X001934Y001971D01*
X001933Y001971D02*
X001932Y001962D01*
X001934Y001952D01*
X001938Y001943D01*
X001945Y001936D01*
X001954Y001932D01*
X001964Y001931D01*
X001974Y001933D01*
X002281Y001735D01*
X002257Y001705D01*
X002231Y001677D01*
X002202Y001652D01*
X002170Y001631D01*
X002137Y001612D01*
X002102Y001597D01*
X002066Y001585D01*
X002028Y001576D01*
X001990Y001572D01*
X001952Y001571D01*
X001914Y001574D01*
X001876Y001581D01*
X001840Y001591D01*
X001804Y001605D01*
X001770Y001622D01*
X001737Y001643D01*
X001707Y001666D01*
X001680Y001693D01*
X001655Y001722D01*
X001633Y001753D01*
X001614Y001786D01*
X001598Y001821D01*
X001586Y001857D01*
X001578Y001895D01*
X001573Y001933D01*
X001572Y001971D01*
X001575Y002009D01*
X001581Y002047D01*
X001591Y002084D01*
X001605Y002119D01*
X001622Y002153D01*
X001642Y002186D01*
X001666Y002216D01*
X001692Y002244D01*
X001721Y002269D01*
X001742Y002239D01*
X001715Y002215D01*
X001690Y002188D01*
X001668Y002158D01*
X001650Y002127D01*
X001634Y002093D01*
X001622Y002059D01*
X001614Y002023D01*
X001610Y001987D01*
X001609Y001950D01*
X001612Y001914D01*
X001619Y001878D01*
X001630Y001843D01*
X001644Y001809D01*
X001661Y001777D01*
X001682Y001747D01*
X001706Y001719D01*
X001732Y001694D01*
X001761Y001671D01*
X001792Y001652D01*
X001825Y001636D01*
X001860Y001623D01*
X001895Y001615D01*
X001931Y001609D01*
X001968Y001608D01*
X002005Y001610D01*
X002041Y001617D01*
X002076Y001626D01*
X002110Y001640D01*
X002142Y001657D01*
X002173Y001677D01*
X002201Y001700D01*
X002227Y001726D01*
X002250Y001755D01*
X002219Y001775D01*
X002197Y001748D01*
X002172Y001724D01*
X002144Y001702D01*
X002115Y001684D01*
X002084Y001669D01*
X002051Y001657D01*
X002017Y001650D01*
X001982Y001646D01*
X001948Y001645D01*
X001913Y001649D01*
X001879Y001656D01*
X001846Y001667D01*
X001815Y001682D01*
X001785Y001700D01*
X001757Y001721D01*
X001732Y001745D01*
X001710Y001772D01*
X001690Y001800D01*
X001674Y001831D01*
X001662Y001864D01*
X001653Y001897D01*
X001647Y001932D01*
X001646Y001966D01*
X001648Y002001D01*
X001655Y002035D01*
X001664Y002068D01*
X001678Y002101D01*
X001695Y002131D01*
X001715Y002159D01*
X001738Y002185D01*
X001764Y002209D01*
X001785Y002178D01*
X001761Y002156D01*
X001740Y002131D01*
X001722Y002104D01*
X001707Y002075D01*
X001695Y002045D01*
X001688Y002013D01*
X001684Y001980D01*
X001683Y001948D01*
X001687Y001915D01*
X001694Y001884D01*
X001705Y001853D01*
X001720Y001823D01*
X001737Y001796D01*
X001758Y001771D01*
X001782Y001748D01*
X001808Y001729D01*
X001836Y001712D01*
X001866Y001699D01*
X001897Y001690D01*
X001930Y001684D01*
X001962Y001682D01*
X001995Y001684D01*
X002027Y001689D01*
X002058Y001699D01*
X002088Y001712D01*
X002117Y001728D01*
X002143Y001747D01*
X002166Y001770D01*
X002188Y001795D01*
X002156Y001815D01*
X002136Y001792D01*
X002114Y001772D01*
X002089Y001754D01*
X002062Y001740D01*
X002034Y001730D01*
X002005Y001723D01*
X001975Y001719D01*
X001944Y001720D01*
X001914Y001724D01*
X001885Y001732D01*
X001857Y001743D01*
X001831Y001758D01*
X001807Y001776D01*
X001785Y001797D01*
X001766Y001820D01*
X001749Y001846D01*
X001737Y001873D01*
X001727Y001902D01*
X001722Y001932D01*
X001720Y001962D01*
X001722Y001992D01*
X001728Y002022D01*
X001737Y002051D01*
X001750Y002078D01*
X001766Y002104D01*
X001785Y002127D01*
X001807Y002148D01*
X001828Y002118D01*
X001809Y002098D01*
X001792Y002077D01*
X001778Y002053D01*
X001768Y002028D01*
X001761Y002001D01*
X001757Y001974D01*
X001758Y001946D01*
X001761Y001919D01*
X001769Y001893D01*
X001780Y001868D01*
X001794Y001844D01*
X001811Y001823D01*
X001831Y001804D01*
X001853Y001788D01*
X001877Y001775D01*
X001903Y001765D01*
X001930Y001759D01*
X001957Y001756D01*
X001985Y001757D01*
X002012Y001762D01*
X002038Y001770D01*
X002063Y001782D01*
X002086Y001797D01*
X002107Y001814D01*
X002125Y001835D01*
X002094Y001855D01*
X002076Y001836D01*
X002056Y001821D01*
X002034Y001809D01*
X002011Y001800D01*
X001986Y001795D01*
X001961Y001793D01*
X001936Y001795D01*
X001911Y001801D01*
X001888Y001811D01*
X001866Y001824D01*
X001846Y001840D01*
X001829Y001858D01*
X001816Y001879D01*
X001805Y001902D01*
X001798Y001927D01*
X001794Y001952D01*
X001795Y001977D01*
X001799Y002002D01*
X001807Y002026D01*
X001818Y002048D01*
X001832Y002069D01*
X001850Y002087D01*
X001871Y002057D01*
X001857Y002040D01*
X001845Y002021D01*
X001837Y002000D01*
X001832Y001978D01*
X001831Y001956D01*
X001834Y001934D01*
X001841Y001912D01*
X001851Y001892D01*
X001864Y001875D01*
X001880Y001859D01*
X001899Y001847D01*
X001919Y001837D01*
X001941Y001832D01*
X001963Y001830D01*
X001986Y001832D01*
X002007Y001838D01*
X002028Y001847D01*
X002046Y001859D01*
X002062Y001875D01*
X002031Y001895D01*
X002016Y001883D01*
X002000Y001875D01*
X001983Y001869D01*
X001964Y001867D01*
X001946Y001869D01*
X001928Y001874D01*
X001912Y001882D01*
X001897Y001893D01*
X001885Y001907D01*
X001876Y001923D01*
X001870Y001941D01*
X001868Y001959D01*
X001869Y001977D01*
X001874Y001995D01*
X001882Y002012D01*
X001893Y002026D01*
X001915Y001995D01*
X001909Y001983D01*
X001906Y001970D01*
X001905Y001956D01*
X001908Y001943D01*
X001914Y001931D01*
X001923Y001920D01*
X001934Y001912D01*
X001946Y001906D01*
X001960Y001904D01*
X001974Y001905D01*
X001987Y001909D01*
X001998Y001916D01*
X002269Y005539D02*
X001971Y005326D01*
X001971Y005327D02*
X001962Y005328D01*
X001952Y005326D01*
X001943Y005322D01*
X001936Y005315D01*
X001932Y005306D01*
X001931Y005296D01*
X001933Y005286D01*
X001735Y004979D01*
X001705Y005003D01*
X001677Y005029D01*
X001652Y005058D01*
X001631Y005090D01*
X001612Y005123D01*
X001597Y005158D01*
X001585Y005194D01*
X001576Y005232D01*
X001572Y005270D01*
X001571Y005308D01*
X001574Y005346D01*
X001581Y005384D01*
X001591Y005420D01*
X001605Y005456D01*
X001622Y005490D01*
X001643Y005523D01*
X001666Y005553D01*
X001693Y005580D01*
X001722Y005605D01*
X001753Y005627D01*
X001786Y005646D01*
X001821Y005662D01*
X001857Y005674D01*
X001895Y005682D01*
X001933Y005687D01*
X001971Y005688D01*
X002009Y005685D01*
X002047Y005679D01*
X002084Y005669D01*
X002119Y005655D01*
X002153Y005638D01*
X002186Y005618D01*
X002216Y005594D01*
X002244Y005568D01*
X002269Y005539D01*
X002239Y005518D01*
X002215Y005545D01*
X002188Y005570D01*
X002158Y005592D01*
X002127Y005610D01*
X002093Y005626D01*
X002059Y005638D01*
X002023Y005646D01*
X001987Y005650D01*
X001950Y005651D01*
X001914Y005648D01*
X001878Y005641D01*
X001843Y005630D01*
X001809Y005616D01*
X001777Y005599D01*
X001747Y005578D01*
X001719Y005554D01*
X001694Y005528D01*
X001671Y005499D01*
X001652Y005468D01*
X001636Y005435D01*
X001623Y005400D01*
X001615Y005365D01*
X001609Y005329D01*
X001608Y005292D01*
X001610Y005255D01*
X001617Y005219D01*
X001626Y005184D01*
X001640Y005150D01*
X001657Y005118D01*
X001677Y005087D01*
X001700Y005059D01*
X001726Y005033D01*
X001755Y005010D01*
X001775Y005041D01*
X001748Y005063D01*
X001724Y005088D01*
X001702Y005116D01*
X001684Y005145D01*
X001669Y005176D01*
X001657Y005209D01*
X001650Y005243D01*
X001646Y005278D01*
X001645Y005312D01*
X001649Y005347D01*
X001656Y005381D01*
X001667Y005414D01*
X001682Y005445D01*
X001700Y005475D01*
X001721Y005503D01*
X001745Y005528D01*
X001772Y005550D01*
X001800Y005570D01*
X001831Y005586D01*
X001864Y005598D01*
X001897Y005607D01*
X001932Y005613D01*
X001966Y005614D01*
X002001Y005612D01*
X002035Y005605D01*
X002068Y005596D01*
X002101Y005582D01*
X002131Y005565D01*
X002159Y005545D01*
X002185Y005522D01*
X002209Y005496D01*
X002178Y005475D01*
X002156Y005499D01*
X002131Y005520D01*
X002104Y005538D01*
X002075Y005553D01*
X002045Y005565D01*
X002013Y005572D01*
X001980Y005576D01*
X001948Y005577D01*
X001915Y005573D01*
X001884Y005566D01*
X001853Y005555D01*
X001823Y005540D01*
X001796Y005523D01*
X001771Y005502D01*
X001748Y005478D01*
X001729Y005452D01*
X001712Y005424D01*
X001699Y005394D01*
X001690Y005363D01*
X001684Y005330D01*
X001682Y005298D01*
X001684Y005265D01*
X001689Y005233D01*
X001699Y005202D01*
X001712Y005172D01*
X001728Y005143D01*
X001747Y005117D01*
X001770Y005094D01*
X001795Y005072D01*
X001815Y005104D01*
X001792Y005124D01*
X001772Y005146D01*
X001754Y005171D01*
X001740Y005198D01*
X001730Y005226D01*
X001723Y005255D01*
X001719Y005285D01*
X001720Y005316D01*
X001724Y005346D01*
X001732Y005375D01*
X001743Y005403D01*
X001758Y005429D01*
X001776Y005453D01*
X001797Y005475D01*
X001820Y005494D01*
X001846Y005511D01*
X001873Y005523D01*
X001902Y005533D01*
X001932Y005538D01*
X001962Y005540D01*
X001992Y005538D01*
X002022Y005532D01*
X002051Y005523D01*
X002078Y005510D01*
X002104Y005494D01*
X002127Y005475D01*
X002148Y005453D01*
X002118Y005432D01*
X002098Y005451D01*
X002077Y005468D01*
X002053Y005482D01*
X002028Y005492D01*
X002001Y005499D01*
X001974Y005503D01*
X001946Y005502D01*
X001919Y005499D01*
X001893Y005491D01*
X001868Y005480D01*
X001844Y005466D01*
X001823Y005449D01*
X001804Y005429D01*
X001788Y005407D01*
X001775Y005383D01*
X001765Y005357D01*
X001759Y005330D01*
X001756Y005303D01*
X001757Y005275D01*
X001762Y005248D01*
X001770Y005222D01*
X001782Y005197D01*
X001797Y005174D01*
X001814Y005153D01*
X001835Y005135D01*
X001855Y005166D01*
X001836Y005184D01*
X001821Y005204D01*
X001809Y005226D01*
X001800Y005249D01*
X001795Y005274D01*
X001793Y005299D01*
X001795Y005324D01*
X001801Y005349D01*
X001811Y005372D01*
X001824Y005394D01*
X001840Y005414D01*
X001858Y005431D01*
X001879Y005444D01*
X001902Y005455D01*
X001927Y005462D01*
X001952Y005466D01*
X001977Y005465D01*
X002002Y005461D01*
X002026Y005453D01*
X002048Y005442D01*
X002069Y005428D01*
X002087Y005410D01*
X002057Y005389D01*
X002040Y005403D01*
X002021Y005415D01*
X002000Y005423D01*
X001978Y005428D01*
X001956Y005429D01*
X001934Y005426D01*
X001912Y005419D01*
X001892Y005409D01*
X001875Y005396D01*
X001859Y005380D01*
X001847Y005361D01*
X001837Y005341D01*
X001832Y005319D01*
X001830Y005297D01*
X001832Y005274D01*
X001838Y005253D01*
X001847Y005232D01*
X001859Y005214D01*
X001875Y005198D01*
X001895Y005229D01*
X001883Y005244D01*
X001875Y005260D01*
X001869Y005277D01*
X001867Y005296D01*
X001869Y005314D01*
X001874Y005332D01*
X001882Y005348D01*
X001893Y005363D01*
X001907Y005375D01*
X001923Y005384D01*
X001941Y005390D01*
X001959Y005392D01*
X001977Y005391D01*
X001995Y005386D01*
X002012Y005378D01*
X002026Y005367D01*
X001995Y005345D01*
X001983Y005351D01*
X001970Y005354D01*
X001956Y005355D01*
X001943Y005352D01*
X001931Y005346D01*
X001920Y005337D01*
X001912Y005326D01*
X001906Y005314D01*
X001904Y005300D01*
X001905Y005286D01*
X001909Y005273D01*
X001916Y005262D01*
X016135Y002357D02*
X016289Y002510D01*
X016289Y002050D01*
X016442Y002050D02*
X016135Y002050D01*
X016596Y002127D02*
X016672Y002050D01*
X016826Y002050D01*
X016902Y002127D01*
X016902Y002203D01*
X016826Y002280D01*
X016596Y002280D01*
X016596Y002127D01*
X016596Y002280D02*
X016749Y002434D01*
X016902Y002510D01*
X017056Y002434D02*
X017133Y002510D01*
X017286Y002510D01*
X017363Y002434D01*
X017363Y002357D01*
X017056Y002050D01*
X017363Y002050D01*
X017516Y002050D02*
X017516Y002510D01*
X017747Y002357D02*
X017516Y002203D01*
X017747Y002050D01*
X018150Y002289D02*
X018610Y002289D01*
X018610Y002442D02*
X018610Y002135D01*
X018303Y002135D02*
X018150Y002289D01*
X018380Y002596D02*
X018380Y002826D01*
X018457Y002902D01*
X018533Y002902D01*
X018610Y002826D01*
X018610Y002672D01*
X018533Y002596D01*
X018380Y002596D01*
X018226Y002749D01*
X018150Y002902D01*
X018226Y003056D02*
X018150Y003133D01*
X018150Y003286D01*
X018226Y003363D01*
X018303Y003363D01*
X018610Y003056D01*
X018610Y003363D01*
X018610Y003516D02*
X018150Y003516D01*
X018303Y003747D02*
X018457Y003516D01*
X018610Y003747D01*
X018900Y003167D02*
X019360Y003167D01*
X019360Y002860D02*
X018900Y002860D01*
X019053Y003014D01*
X018900Y003167D01*
X019360Y002707D02*
X019360Y002400D01*
X019360Y002553D02*
X018900Y002553D01*
X019053Y002400D01*
X018996Y001310D02*
X019072Y001234D01*
X019072Y001157D01*
X018996Y001080D01*
X019072Y001003D01*
X019072Y000927D01*
X018996Y000850D01*
X018842Y000850D01*
X018765Y000927D01*
X018612Y000850D02*
X018305Y000850D01*
X018612Y001157D01*
X018612Y001234D01*
X018535Y001310D01*
X018382Y001310D01*
X018305Y001234D01*
X018765Y001234D02*
X018842Y001310D01*
X018996Y001310D01*
X018996Y001080D02*
X018919Y001080D01*
X019226Y000927D02*
X019302Y000927D01*
X019302Y000850D01*
X019226Y000850D01*
X019226Y000927D01*
X019456Y000850D02*
X019763Y001157D01*
X019763Y001234D01*
X019686Y001310D01*
X019533Y001310D01*
X019456Y001234D01*
X019456Y000850D02*
X019763Y000850D01*
X019916Y000850D02*
X019916Y001310D01*
X020147Y001157D02*
X019916Y001003D01*
X020147Y000850D01*
X020477Y001250D02*
X020400Y001327D01*
X020477Y001250D02*
X020630Y001250D01*
X020707Y001327D01*
X020707Y001403D01*
X020630Y001480D01*
X020553Y001480D01*
X020630Y001480D02*
X020707Y001557D01*
X020707Y001634D01*
X020630Y001710D01*
X020477Y001710D01*
X020400Y001634D01*
X020860Y001557D02*
X021014Y001710D01*
X021014Y001250D01*
X021167Y001250D02*
X020860Y001250D01*
X021321Y001250D02*
X021398Y001250D01*
X021398Y001327D01*
X021321Y001327D01*
X021321Y001250D01*
X021551Y001327D02*
X021551Y001480D01*
X021781Y001480D01*
X021858Y001403D01*
X021858Y001327D01*
X021781Y001250D01*
X021628Y001250D01*
X021551Y001327D01*
X021551Y001480D02*
X021704Y001634D01*
X021858Y001710D01*
X022011Y001634D02*
X022088Y001710D01*
X022242Y001710D01*
X022318Y001634D01*
X022011Y001327D01*
X022088Y001250D01*
X022242Y001250D01*
X022318Y001327D01*
X022318Y001634D01*
X022472Y001710D02*
X022472Y001250D01*
X022472Y001403D02*
X022702Y001557D01*
X022472Y001403D02*
X022702Y001250D01*
X022011Y001327D02*
X022011Y001634D01*
X021983Y002500D02*
X021906Y002577D01*
X022213Y002884D01*
X022213Y002577D01*
X022136Y002500D01*
X021983Y002500D01*
X021906Y002577D02*
X021906Y002884D01*
X021983Y002960D01*
X022136Y002960D01*
X022213Y002884D01*
X022366Y002960D02*
X022366Y002500D01*
X022366Y002653D02*
X022597Y002807D01*
X022366Y002653D02*
X022597Y002500D01*
X023053Y003150D02*
X022900Y003303D01*
X023360Y003303D01*
X023360Y003150D02*
X023360Y003457D01*
X023283Y003610D02*
X022976Y003917D01*
X023283Y003917D01*
X023360Y003841D01*
X023360Y003687D01*
X023283Y003610D01*
X022976Y003610D01*
X022900Y003687D01*
X022900Y003841D01*
X022976Y003917D01*
X022976Y004071D02*
X022900Y004148D01*
X022900Y004301D01*
X022976Y004378D01*
X023283Y004071D01*
X023360Y004148D01*
X023360Y004301D01*
X023283Y004378D01*
X022976Y004378D01*
X023053Y004531D02*
X023053Y004761D01*
X023130Y004838D01*
X023360Y004838D01*
X023360Y004992D02*
X022900Y004992D01*
X022900Y005298D01*
X023130Y005145D02*
X023130Y004992D01*
X023053Y004531D02*
X023360Y004531D01*
X023283Y004071D02*
X022976Y004071D01*
X021752Y002884D02*
X021676Y002960D01*
X021522Y002960D01*
X021446Y002884D01*
X021752Y002884D02*
X021752Y002807D01*
X021446Y002500D01*
X021752Y002500D01*
X020247Y004650D02*
X020016Y004803D01*
X020247Y004957D01*
X020016Y005110D02*
X020016Y004650D01*
X019863Y004727D02*
X019786Y004650D01*
X019633Y004650D01*
X019556Y004727D01*
X019863Y005034D01*
X019863Y004727D01*
X019863Y005034D02*
X019786Y005110D01*
X019633Y005110D01*
X019556Y005034D01*
X019556Y004727D01*
X018247Y005360D02*
X017940Y005360D01*
X017940Y004900D01*
X016591Y004457D02*
X016360Y004303D01*
X016591Y004150D01*
X021650Y006039D02*
X022110Y006039D01*
X022110Y006192D02*
X022110Y005885D01*
X021803Y005885D02*
X021650Y006039D01*
X021880Y006346D02*
X021880Y006576D01*
X021957Y006652D01*
X022033Y006652D01*
X022110Y006576D01*
X022110Y006422D01*
X022033Y006346D01*
X021880Y006346D01*
X021726Y006499D01*
X021650Y006652D01*
X021726Y006806D02*
X021650Y006883D01*
X021650Y007036D01*
X021726Y007113D01*
X021803Y007113D01*
X022110Y006806D01*
X022110Y007113D01*
X022110Y007266D02*
X021650Y007266D01*
X021803Y007497D02*
X021957Y007266D01*
X022110Y007497D01*
X022479Y008000D02*
X022786Y008000D01*
X022633Y008000D02*
X022633Y008460D01*
X022479Y008307D01*
X022940Y008460D02*
X022940Y008000D01*
X023247Y008000D02*
X023247Y008460D01*
X023093Y008307D01*
X022940Y008460D01*
X020747Y009150D02*
X020516Y009303D01*
X020747Y009457D01*
X020516Y009610D02*
X020516Y009150D01*
X020363Y009150D02*
X020056Y009150D01*
X020209Y009150D02*
X020209Y009610D01*
X020056Y009457D01*
X022650Y011209D02*
X023110Y011209D01*
X023110Y011056D02*
X023110Y011363D01*
X023110Y011516D02*
X022650Y011516D01*
X022803Y011747D02*
X022957Y011516D01*
X023110Y011747D01*
X022650Y011209D02*
X022803Y011056D01*
X023650Y011016D02*
X024110Y011016D01*
X024110Y010863D02*
X024110Y010556D01*
X024110Y010709D02*
X023650Y010709D01*
X023803Y010556D01*
X023957Y011016D02*
X023803Y011247D01*
X023957Y011016D02*
X024110Y011247D01*
D13*
X023880Y009630D02*
X023630Y009380D01*
X023630Y008880D01*
X023880Y008630D01*
X024380Y008630D01*
X024630Y008880D01*
X024630Y009380D01*
X024380Y009630D01*
X023880Y009630D01*
X021769Y004391D02*
X021769Y003368D01*
X021767Y003348D01*
X021763Y003328D01*
X021755Y003310D01*
X021745Y003293D01*
X021732Y003277D01*
X021716Y003264D01*
X021699Y003254D01*
X021681Y003246D01*
X021661Y003242D01*
X021641Y003240D01*
X020618Y003240D02*
X020598Y003242D01*
X020578Y003246D01*
X020560Y003254D01*
X020543Y003264D01*
X020527Y003277D01*
X020514Y003293D01*
X020504Y003310D01*
X020496Y003328D01*
X020492Y003348D01*
X020490Y003368D01*
X020490Y004391D01*
X020492Y004411D01*
X020496Y004431D01*
X020504Y004449D01*
X020514Y004466D01*
X020527Y004482D01*
X020543Y004495D01*
X020560Y004505D01*
X020578Y004513D01*
X020598Y004517D01*
X020618Y004519D01*
X021641Y004519D02*
X021661Y004517D01*
X021681Y004513D01*
X021699Y004505D01*
X021716Y004495D01*
X021732Y004482D01*
X021745Y004466D01*
X021755Y004449D01*
X021763Y004431D01*
X021767Y004411D01*
X021769Y004391D01*
X016630Y002280D02*
X016630Y001480D01*
X016530Y001380D01*
X015730Y001380D01*
X015630Y001480D01*
X015530Y001380D01*
X014730Y001380D01*
X014630Y001480D01*
X014530Y001380D01*
X013730Y001380D01*
X013630Y001480D01*
X013530Y001380D01*
X012730Y001380D01*
X012630Y001480D01*
X012630Y002280D01*
X012730Y002380D01*
X013530Y002380D01*
X013630Y002280D01*
X013730Y002380D01*
X014530Y002380D01*
X014630Y002280D01*
X014730Y002380D01*
X015530Y002380D01*
X015630Y002280D01*
X015730Y002380D01*
X016530Y002380D01*
X016630Y002280D01*
X016880Y010630D02*
X016380Y010630D01*
X016130Y010880D01*
X016130Y011380D01*
X016380Y011630D01*
X016880Y011630D01*
X017130Y011380D01*
X017130Y010880D01*
X016880Y010630D01*
X013141Y011491D02*
X012118Y011491D01*
X012098Y011493D01*
X012078Y011497D01*
X012060Y011505D01*
X012043Y011515D01*
X012027Y011528D01*
X012014Y011544D01*
X012004Y011561D01*
X011996Y011579D01*
X011992Y011599D01*
X011990Y011619D01*
X011990Y012642D02*
X011992Y012662D01*
X011996Y012682D01*
X012004Y012700D01*
X012014Y012717D01*
X012027Y012733D01*
X012043Y012746D01*
X012060Y012756D01*
X012078Y012764D01*
X012098Y012768D01*
X012118Y012770D01*
X013141Y012770D01*
X013161Y012768D01*
X013181Y012764D01*
X013199Y012756D01*
X013216Y012746D01*
X013232Y012733D01*
X013245Y012717D01*
X013255Y012700D01*
X013263Y012682D01*
X013267Y012662D01*
X013269Y012642D01*
X013269Y011619D02*
X013267Y011599D01*
X013263Y011579D01*
X013255Y011561D01*
X013245Y011544D01*
X013232Y011528D01*
X013216Y011515D01*
X013199Y011505D01*
X013181Y011497D01*
X013161Y011493D01*
X013141Y011491D01*
X009282Y014150D02*
X009282Y014610D01*
X008478Y014610D02*
X008478Y014150D01*
X008380Y017130D02*
X008880Y017130D01*
X009130Y017380D01*
X009130Y018880D01*
X009380Y019130D01*
X009880Y019130D01*
X010130Y018880D01*
X010130Y017380D01*
X010380Y017130D01*
X010880Y017130D01*
X011130Y017380D01*
X011130Y018880D01*
X011380Y019130D01*
X011880Y019130D01*
X012130Y018880D01*
X012130Y017380D01*
X012380Y017130D01*
X012880Y017130D01*
X013130Y017380D01*
X013130Y018880D01*
X013380Y019130D01*
X013880Y019130D01*
X014130Y018880D01*
X014130Y017380D01*
X014380Y017130D01*
X014880Y017130D01*
X015130Y017380D01*
X015130Y018880D01*
X015380Y019130D01*
X015880Y019130D01*
X016130Y018880D01*
X016130Y017380D01*
X015880Y017130D01*
X015380Y017130D01*
X015130Y017380D01*
X014130Y017380D02*
X013880Y017130D01*
X013380Y017130D01*
X013130Y017380D01*
X012130Y017380D02*
X011880Y017130D01*
X011380Y017130D01*
X011130Y017380D01*
X010130Y017380D02*
X009880Y017130D01*
X009380Y017130D01*
X009130Y017380D01*
X008380Y017130D02*
X008130Y017380D01*
X008130Y018880D01*
X008380Y019130D01*
X008880Y019130D01*
X009130Y018880D01*
X010130Y018880D02*
X010380Y019130D01*
X010880Y019130D01*
X011130Y018880D01*
X012130Y018880D02*
X012380Y019130D01*
X012880Y019130D01*
X013130Y018880D01*
X014130Y018880D02*
X014380Y019130D01*
X014880Y019130D01*
X015130Y018880D01*
X016130Y018880D02*
X016380Y019130D01*
X016880Y019130D01*
X017130Y018880D01*
X017130Y017380D01*
X016880Y017130D01*
X016380Y017130D01*
X016130Y017380D01*
X017130Y017380D02*
X017380Y017130D01*
X017880Y017130D01*
X018130Y017380D01*
X018130Y018880D01*
X018380Y019130D01*
X018880Y019130D01*
X019130Y018880D01*
X019380Y019130D01*
X019880Y019130D01*
X020130Y018880D01*
X020130Y017380D01*
X019880Y017130D01*
X019380Y017130D01*
X019130Y017380D01*
X019130Y018880D01*
X018130Y018880D02*
X017880Y019130D01*
X017380Y019130D01*
X017130Y018880D01*
X018130Y017380D02*
X018380Y017130D01*
X018880Y017130D01*
X019130Y017380D01*
X014110Y016032D02*
X013650Y016032D01*
X013650Y015228D02*
X014110Y015228D01*
X005630Y009880D02*
X005630Y009380D01*
X005380Y009130D01*
X005630Y008880D01*
X005630Y008380D01*
X005380Y008130D01*
X004880Y008130D01*
X004630Y008380D01*
X004630Y008880D01*
X004880Y009130D01*
X004630Y009380D01*
X004630Y009880D01*
X004880Y010130D01*
X005380Y010130D01*
X005630Y009880D01*
X005380Y009130D02*
X004880Y009130D01*
X002630Y008730D02*
X002630Y009530D01*
X002530Y009630D01*
X001730Y009630D01*
X001630Y009530D01*
X001630Y008730D01*
X001730Y008630D01*
X001630Y008530D01*
X001630Y007730D01*
X001730Y007630D01*
X002530Y007630D01*
X002630Y007730D01*
X002630Y008530D01*
X002530Y008630D01*
X002630Y008730D01*
D14*
X001071Y006189D02*
X006189Y006189D01*
X006189Y001061D01*
X001071Y001061D01*
X001071Y006189D01*
X004900Y005579D02*
X004976Y005527D01*
X005050Y005472D01*
X005122Y005414D01*
X005192Y005354D01*
X005259Y005290D01*
X005324Y005224D01*
X005385Y005155D01*
X005444Y005085D01*
X005501Y005011D01*
X005554Y004936D01*
X005604Y004858D01*
X005651Y004779D01*
X005695Y004698D01*
X005736Y004615D01*
X005773Y004530D01*
X005807Y004444D01*
X005838Y004357D01*
X005865Y004269D01*
X005888Y004179D01*
X005908Y004089D01*
X005924Y003998D01*
X005937Y003907D01*
X005946Y003815D01*
X005951Y003723D01*
X005953Y003630D01*
X005951Y003535D01*
X005945Y003440D01*
X005935Y003346D01*
X005922Y003252D01*
X005904Y003159D01*
X005883Y003066D01*
X005858Y002974D01*
X005829Y002884D01*
X005796Y002795D01*
X005760Y002707D01*
X005721Y002621D01*
X005678Y002536D01*
X005631Y002453D01*
X005581Y002372D01*
X005528Y002294D01*
X005472Y002217D01*
X005412Y002143D01*
X005350Y002072D01*
X005285Y002003D01*
X005217Y001936D01*
X005146Y001873D01*
X005073Y001812D01*
X004997Y001755D01*
X004919Y001701D01*
X002360Y001681D02*
X002284Y001733D01*
X002210Y001788D01*
X002138Y001846D01*
X002068Y001906D01*
X002001Y001970D01*
X001936Y002036D01*
X001875Y002105D01*
X001816Y002175D01*
X001759Y002249D01*
X001706Y002324D01*
X001656Y002402D01*
X001609Y002481D01*
X001565Y002562D01*
X001524Y002645D01*
X001487Y002730D01*
X001453Y002816D01*
X001422Y002903D01*
X001395Y002991D01*
X001372Y003081D01*
X001352Y003171D01*
X001336Y003262D01*
X001323Y003353D01*
X001314Y003445D01*
X001309Y003537D01*
X001307Y003630D01*
X001309Y003725D01*
X001315Y003820D01*
X001325Y003914D01*
X001338Y004008D01*
X001356Y004101D01*
X001377Y004194D01*
X001402Y004286D01*
X001431Y004376D01*
X001464Y004465D01*
X001500Y004553D01*
X001539Y004639D01*
X001582Y004724D01*
X001629Y004807D01*
X001679Y004888D01*
X001732Y004966D01*
X001788Y005043D01*
X001848Y005117D01*
X001910Y005188D01*
X001975Y005257D01*
X002043Y005324D01*
X002114Y005387D01*
X002187Y005448D01*
X002263Y005505D01*
X002341Y005559D01*
X009079Y004691D02*
X010181Y004691D01*
X010181Y003569D02*
X009079Y003569D01*
X018340Y010930D02*
X020920Y010930D01*
X020920Y012330D01*
X018340Y012330D01*
X018340Y010930D01*
X018340Y014530D02*
X020920Y014530D01*
X020920Y015930D01*
X018340Y015930D01*
X018340Y014530D01*
X021340Y015280D02*
X021340Y017640D01*
X023920Y017640D02*
X023920Y015280D01*
X021340Y015280D01*
X006199Y014571D02*
X001071Y014571D01*
X001071Y019689D01*
X006199Y019689D01*
X006199Y014571D01*
X005579Y015860D02*
X005527Y015784D01*
X005472Y015710D01*
X005414Y015638D01*
X005354Y015568D01*
X005290Y015501D01*
X005224Y015436D01*
X005155Y015375D01*
X005085Y015316D01*
X005011Y015259D01*
X004936Y015206D01*
X004858Y015156D01*
X004779Y015109D01*
X004698Y015065D01*
X004615Y015024D01*
X004530Y014987D01*
X004444Y014953D01*
X004357Y014922D01*
X004269Y014895D01*
X004179Y014872D01*
X004089Y014852D01*
X003998Y014836D01*
X003907Y014823D01*
X003815Y014814D01*
X003723Y014809D01*
X003630Y014807D01*
X003535Y014809D01*
X003440Y014815D01*
X003346Y014825D01*
X003252Y014838D01*
X003159Y014856D01*
X003066Y014877D01*
X002974Y014902D01*
X002884Y014931D01*
X002795Y014964D01*
X002707Y015000D01*
X002621Y015039D01*
X002536Y015082D01*
X002453Y015129D01*
X002372Y015179D01*
X002294Y015232D01*
X002217Y015288D01*
X002143Y015348D01*
X002072Y015410D01*
X002003Y015475D01*
X001936Y015543D01*
X001873Y015614D01*
X001812Y015687D01*
X001755Y015763D01*
X001701Y015841D01*
X001681Y018400D02*
X001733Y018476D01*
X001788Y018550D01*
X001846Y018622D01*
X001906Y018692D01*
X001970Y018759D01*
X002036Y018824D01*
X002105Y018885D01*
X002175Y018944D01*
X002249Y019001D01*
X002324Y019054D01*
X002402Y019104D01*
X002481Y019151D01*
X002562Y019195D01*
X002645Y019236D01*
X002730Y019273D01*
X002816Y019307D01*
X002903Y019338D01*
X002991Y019365D01*
X003081Y019388D01*
X003171Y019408D01*
X003262Y019424D01*
X003353Y019437D01*
X003445Y019446D01*
X003537Y019451D01*
X003630Y019453D01*
X003725Y019451D01*
X003820Y019445D01*
X003914Y019435D01*
X004008Y019422D01*
X004101Y019404D01*
X004194Y019383D01*
X004286Y019358D01*
X004376Y019329D01*
X004465Y019296D01*
X004553Y019260D01*
X004639Y019221D01*
X004724Y019178D01*
X004807Y019131D01*
X004888Y019081D01*
X004966Y019028D01*
X005043Y018972D01*
X005117Y018912D01*
X005188Y018850D01*
X005257Y018785D01*
X005324Y018717D01*
X005387Y018646D01*
X005448Y018573D01*
X005505Y018497D01*
X005559Y018419D01*
D15*
X022630Y015090D03*
D16*
X015909Y002905D02*
X015909Y002565D01*
X015796Y002565D02*
X016023Y002565D01*
X015796Y002792D02*
X015909Y002905D01*
X015023Y002849D02*
X015023Y002792D01*
X014796Y002565D01*
X015023Y002565D01*
X015023Y002849D02*
X014966Y002905D01*
X014853Y002905D01*
X014796Y002849D01*
X014023Y002849D02*
X014023Y002792D01*
X013966Y002735D01*
X014023Y002678D01*
X014023Y002622D01*
X013966Y002565D01*
X013853Y002565D01*
X013796Y002622D01*
X013909Y002735D02*
X013966Y002735D01*
X014023Y002849D02*
X013966Y002905D01*
X013853Y002905D01*
X013796Y002849D01*
X013023Y002735D02*
X012796Y002735D01*
X012966Y002905D01*
X012966Y002565D01*
X003255Y008427D02*
X003255Y008577D01*
X003255Y008502D02*
X002805Y008502D01*
X002805Y008427D02*
X002805Y008577D01*
X002880Y008734D02*
X002805Y008809D01*
X002805Y008959D01*
X002880Y009034D01*
X002955Y009034D01*
X003255Y008734D01*
X003255Y009034D01*
X003180Y009195D02*
X002880Y009195D01*
X002805Y009270D01*
X002805Y009420D01*
X002880Y009495D01*
X003180Y009495D02*
X003255Y009420D01*
X003255Y009270D01*
X003180Y009195D01*
X003498Y012032D02*
X003498Y012859D01*
X002671Y012859D02*
X002671Y012032D01*
D17*
X010130Y009130D03*
D18*
X009217Y004543D03*
D19*
X009884Y004562D02*
X009909Y004587D01*
X010009Y004487D01*
X010034Y004512D01*
X010034Y004562D01*
X010009Y004587D01*
X009909Y004587D01*
X009884Y004562D02*
X009884Y004512D01*
X009909Y004487D01*
X010009Y004487D01*
X009959Y004440D02*
X009959Y004340D01*
X009884Y004415D01*
X010034Y004415D01*
X010009Y004292D02*
X010034Y004267D01*
X010034Y004217D01*
X010009Y004192D01*
X010009Y004145D02*
X010034Y004120D01*
X010034Y004070D01*
X010009Y004045D01*
X009909Y004045D01*
X009884Y004070D01*
X009884Y004120D01*
X009909Y004145D01*
X009909Y004192D02*
X009884Y004217D01*
X009884Y004267D01*
X009909Y004292D01*
X009934Y004292D01*
X009959Y004267D01*
X009984Y004292D01*
X010009Y004292D01*
X009959Y004267D02*
X009959Y004242D01*
X009884Y003998D02*
X009884Y003898D01*
X009884Y003948D02*
X010034Y003948D01*
X010034Y003850D02*
X010034Y003750D01*
X009884Y003750D01*
X009909Y004634D02*
X009884Y004659D01*
X009884Y004709D01*
X009909Y004734D01*
X009934Y004734D01*
X010034Y004634D01*
X010034Y004734D01*
X003741Y011635D02*
X003766Y011660D01*
X003766Y011685D01*
X003741Y011710D01*
X003666Y011710D01*
X003666Y011660D01*
X003691Y011635D01*
X003741Y011635D01*
X003666Y011710D02*
X003716Y011760D01*
X003766Y011785D01*
X003619Y011760D02*
X003619Y011735D01*
X003594Y011710D01*
X003544Y011710D01*
X003519Y011735D01*
X003519Y011760D01*
X003544Y011785D01*
X003594Y011785D01*
X003619Y011760D01*
X003594Y011710D02*
X003619Y011685D01*
X003619Y011660D01*
X003594Y011635D01*
X003544Y011635D01*
X003519Y011660D01*
X003519Y011685D01*
X003544Y011710D01*
X003472Y011660D02*
X003447Y011635D01*
X003397Y011635D01*
X003372Y011660D01*
X003472Y011760D01*
X003472Y011660D01*
X003472Y011760D02*
X003447Y011785D01*
X003397Y011785D01*
X003372Y011760D01*
X003372Y011660D01*
X003324Y011635D02*
X003224Y011635D01*
X003324Y011735D01*
X003324Y011760D01*
X003299Y011785D01*
X003249Y011785D01*
X003224Y011760D01*
X003177Y011785D02*
X003127Y011760D01*
X003077Y011710D01*
X003152Y011710D01*
X003177Y011685D01*
X003177Y011660D01*
X003152Y011635D01*
X003102Y011635D01*
X003077Y011660D01*
X003077Y011710D01*
X003030Y011685D02*
X003030Y011660D01*
X003005Y011635D01*
X002955Y011635D01*
X002930Y011660D01*
X002955Y011710D02*
X003005Y011710D01*
X003030Y011685D01*
X003030Y011760D02*
X003005Y011785D01*
X002955Y011785D01*
X002930Y011760D01*
X002930Y011735D01*
X002955Y011710D01*
X002882Y011710D02*
X002857Y011685D01*
X002782Y011685D01*
X002782Y011635D02*
X002782Y011785D01*
X002857Y011785D01*
X002882Y011760D01*
X002882Y011710D01*
X002735Y011785D02*
X002635Y011785D01*
X002685Y011785D02*
X002685Y011635D01*
X008485Y014285D02*
X008535Y014285D01*
X008510Y014285D02*
X008510Y014435D01*
X008485Y014435D02*
X008535Y014435D01*
X008583Y014435D02*
X008683Y014285D01*
X008683Y014435D01*
X008731Y014385D02*
X008781Y014435D01*
X008831Y014385D01*
X008831Y014285D01*
X008878Y014285D02*
X008978Y014385D01*
X008978Y014410D01*
X008953Y014435D01*
X008903Y014435D01*
X008878Y014410D01*
X008831Y014360D02*
X008731Y014360D01*
X008731Y014385D02*
X008731Y014285D01*
X008878Y014285D02*
X008978Y014285D01*
X009025Y014285D02*
X009125Y014285D01*
X009075Y014285D02*
X009075Y014435D01*
X009025Y014385D01*
X009173Y014410D02*
X009198Y014435D01*
X009248Y014435D01*
X009273Y014410D01*
X009273Y014385D01*
X009248Y014360D01*
X009273Y014335D01*
X009273Y014310D01*
X009248Y014285D01*
X009198Y014285D01*
X009173Y014310D01*
X009223Y014360D02*
X009248Y014360D01*
X008583Y014285D02*
X008583Y014435D01*
X013785Y015200D02*
X013785Y015250D01*
X013785Y015225D02*
X013935Y015225D01*
X013935Y015200D02*
X013935Y015250D01*
X013935Y015298D02*
X013785Y015298D01*
X013935Y015398D01*
X013785Y015398D01*
X013835Y015446D02*
X013785Y015496D01*
X013835Y015546D01*
X013935Y015546D01*
X013935Y015593D02*
X013835Y015693D01*
X013810Y015693D01*
X013785Y015668D01*
X013785Y015618D01*
X013810Y015593D01*
X013860Y015546D02*
X013860Y015446D01*
X013835Y015446D02*
X013935Y015446D01*
X013935Y015593D02*
X013935Y015693D01*
X013935Y015740D02*
X013935Y015840D01*
X013935Y015790D02*
X013785Y015790D01*
X013835Y015740D01*
X013810Y015888D02*
X013785Y015913D01*
X013785Y015963D01*
X013810Y015988D01*
X013835Y015988D01*
X013860Y015963D01*
X013885Y015988D01*
X013910Y015988D01*
X013935Y015963D01*
X013935Y015913D01*
X013910Y015888D01*
X013860Y015938D02*
X013860Y015963D01*
D20*
X002490Y012030D03*
D21*
X008380Y013980D03*
X014280Y015130D03*
D22*
X013957Y009500D02*
X012303Y009500D01*
X012303Y005760D01*
X013957Y005760D01*
X013957Y009500D01*
X012535Y009244D02*
X012537Y009257D01*
X012543Y009269D01*
X012552Y009278D01*
X012563Y009285D01*
X012576Y009288D01*
X012589Y009287D01*
X012601Y009282D01*
X012611Y009274D01*
X012619Y009263D01*
X012623Y009251D01*
X012623Y009237D01*
X012619Y009225D01*
X012611Y009214D01*
X012601Y009206D01*
X012589Y009201D01*
X012576Y009200D01*
X012563Y009203D01*
X012552Y009210D01*
X012543Y009219D01*
X012537Y009231D01*
X012535Y009244D01*
X007156Y003900D02*
X006604Y003900D01*
X006880Y003408D01*
X007156Y003900D01*
D23*
X006880Y003388D03*
M02*
