G75*
%MOIN*%
%OFA0B0*%
%FSLAX25Y25*%
%IPPOS*%
%LPD*%
%AMOC8*
5,1,8,0,0,1.08239X$1,22.5*
%
%ADD10C,0.00000*%
%ADD11R,0.03400X0.00100*%
%ADD12R,0.04800X0.00100*%
%ADD13R,0.05900X0.00100*%
%ADD14R,0.06800X0.00100*%
%ADD15R,0.07600X0.00100*%
%ADD16R,0.00100X0.00100*%
%ADD17R,0.00900X0.00100*%
%ADD18R,0.03200X0.00100*%
%ADD19R,0.03000X0.00100*%
%ADD20R,0.00400X0.00100*%
%ADD21R,0.00700X0.00100*%
%ADD22R,0.00500X0.00100*%
%ADD23R,0.02700X0.00100*%
%ADD24R,0.02300X0.00100*%
%ADD25R,0.00200X0.00100*%
%ADD26R,0.00600X0.00100*%
%ADD27R,0.02400X0.00100*%
%ADD28R,0.02200X0.00100*%
%ADD29R,0.02600X0.00100*%
%ADD30R,0.00300X0.00100*%
%ADD31R,0.01900X0.00100*%
%ADD32R,0.01800X0.00100*%
%ADD33R,0.00800X0.00100*%
%ADD34R,0.02000X0.00100*%
%ADD35R,0.01500X0.00100*%
%ADD36R,0.01600X0.00100*%
%ADD37R,0.01400X0.00100*%
%ADD38R,0.01100X0.00100*%
%ADD39R,0.01700X0.00100*%
%ADD40R,0.01300X0.00100*%
%ADD41R,0.01200X0.00100*%
%ADD42R,0.03700X0.00100*%
%ADD43R,0.05500X0.00100*%
%ADD44R,0.01000X0.00100*%
%ADD45R,0.08000X0.00100*%
%ADD46R,0.02100X0.00100*%
%ADD47R,0.02900X0.00100*%
%ADD48R,0.04200X0.00100*%
%ADD49R,0.05200X0.00100*%
%ADD50R,0.06000X0.00100*%
%ADD51R,0.06700X0.00100*%
%ADD52R,0.07400X0.00100*%
%ADD53R,0.08500X0.00100*%
%ADD54R,0.09000X0.00100*%
%ADD55R,0.09500X0.00100*%
%ADD56R,0.09900X0.00100*%
%ADD57R,0.10300X0.00100*%
%ADD58R,0.10700X0.00100*%
%ADD59R,0.11100X0.00100*%
%ADD60R,0.11500X0.00100*%
%ADD61R,0.11800X0.00100*%
%ADD62R,0.12200X0.00100*%
%ADD63R,0.12500X0.00100*%
%ADD64R,0.04100X0.00100*%
%ADD65R,0.08600X0.00100*%
%ADD66R,0.04500X0.00100*%
%ADD67R,0.04400X0.00100*%
%ADD68R,0.04600X0.00100*%
%ADD69R,0.04900X0.00100*%
%ADD70R,0.05100X0.00100*%
%ADD71R,0.05000X0.00100*%
%ADD72R,0.03500X0.00100*%
%ADD73R,0.05400X0.00100*%
%ADD74R,0.05600X0.00100*%
%ADD75R,0.05800X0.00100*%
%ADD76R,0.02800X0.00100*%
%ADD77R,0.06100X0.00100*%
%ADD78R,0.03300X0.00100*%
%ADD79R,0.06300X0.00100*%
%ADD80R,0.06400X0.00100*%
%ADD81R,0.06600X0.00100*%
%ADD82R,0.06900X0.00100*%
%ADD83R,0.07100X0.00100*%
%ADD84R,0.03100X0.00100*%
%ADD85R,0.07200X0.00100*%
%ADD86R,0.02500X0.00100*%
%ADD87R,0.07700X0.00100*%
%ADD88R,0.07900X0.00100*%
%ADD89R,0.08100X0.00100*%
%ADD90R,0.08200X0.00100*%
%ADD91R,0.08300X0.00100*%
%ADD92R,0.08400X0.00100*%
%ADD93R,0.08800X0.00100*%
%ADD94R,0.09200X0.00100*%
%ADD95R,0.09300X0.00100*%
%ADD96R,0.09400X0.00100*%
%ADD97R,0.09600X0.00100*%
%ADD98R,0.11300X0.00100*%
%ADD99R,0.11400X0.00100*%
%ADD100R,0.10500X0.00100*%
%ADD101R,0.10100X0.00100*%
%ADD102R,0.10200X0.00100*%
%ADD103R,0.06500X0.00100*%
%ADD104R,0.06200X0.00100*%
%ADD105R,0.04700X0.00100*%
%ADD106R,0.03900X0.00100*%
%ADD107R,0.03600X0.00100*%
%ADD108R,0.04000X0.00100*%
%ADD109R,0.04300X0.00100*%
%ADD110R,0.05300X0.00100*%
%ADD111R,0.07000X0.00100*%
%ADD112R,0.05700X0.00100*%
%ADD113R,0.03800X0.00100*%
D10*
X0021485Y0001800D02*
X0021485Y0178965D01*
X0375186Y0178887D01*
X0375816Y0001800D01*
X0021485Y0001800D01*
D11*
X0189443Y0084561D03*
X0189543Y0084461D03*
X0189643Y0084361D03*
X0189743Y0084261D03*
X0199643Y0078761D03*
X0202043Y0079261D03*
X0209643Y0084461D03*
X0209743Y0084561D03*
X0209843Y0084661D03*
X0209943Y0084761D03*
X0189643Y0094661D03*
X0189743Y0095061D03*
X0189743Y0095161D03*
X0189743Y0095561D03*
X0189443Y0102461D03*
X0189543Y0102561D03*
X0189643Y0102661D03*
X0189743Y0102761D03*
X0209543Y0102661D03*
X0209643Y0102561D03*
X0209743Y0102461D03*
X0209843Y0102361D03*
X0209943Y0102261D03*
D12*
X0206143Y0101161D03*
X0206043Y0101261D03*
X0206643Y0104961D03*
X0199643Y0108161D03*
X0195643Y0103361D03*
X0195443Y0103261D03*
X0194143Y0102261D03*
X0194043Y0102161D03*
X0193943Y0102061D03*
X0204943Y0097161D03*
X0205343Y0097461D03*
X0208543Y0090461D03*
X0208543Y0090361D03*
X0208443Y0090161D03*
X0208443Y0090061D03*
X0208443Y0089961D03*
X0208043Y0089061D03*
X0208043Y0088961D03*
X0199643Y0078861D03*
D13*
X0199593Y0078961D03*
X0199693Y0081061D03*
X0204393Y0084661D03*
X0206793Y0099361D03*
X0199593Y0108061D03*
D14*
X0199643Y0107961D03*
X0199643Y0079061D03*
D15*
X0199643Y0079161D03*
X0204543Y0085661D03*
X0199643Y0107861D03*
D16*
X0200193Y0107161D03*
X0198893Y0107061D03*
X0198893Y0106961D03*
X0198393Y0106961D03*
X0198393Y0106861D03*
X0198393Y0106761D03*
X0209093Y0097561D03*
X0207593Y0095161D03*
X0206893Y0094461D03*
X0206893Y0094361D03*
X0206793Y0091461D03*
X0206793Y0091261D03*
X0203193Y0087961D03*
X0201293Y0088061D03*
X0200793Y0085261D03*
X0198693Y0085261D03*
X0197293Y0085061D03*
X0195693Y0084961D03*
X0195193Y0085161D03*
X0194693Y0085061D03*
X0190693Y0083661D03*
X0190593Y0083361D03*
X0190093Y0083361D03*
X0190693Y0082561D03*
X0192893Y0082261D03*
X0193293Y0082161D03*
X0193393Y0082261D03*
X0194593Y0081161D03*
X0197593Y0080361D03*
X0197593Y0080261D03*
X0199993Y0079261D03*
X0201093Y0080661D03*
X0201093Y0080761D03*
X0201893Y0080061D03*
X0202293Y0080361D03*
X0202293Y0080461D03*
X0202193Y0080561D03*
X0202193Y0080661D03*
X0202193Y0080761D03*
X0202893Y0080861D03*
X0203493Y0080361D03*
X0204693Y0080361D03*
X0204693Y0080461D03*
X0205093Y0081061D03*
X0205093Y0081361D03*
X0206493Y0082061D03*
X0206893Y0081961D03*
X0206593Y0082461D03*
X0207493Y0083061D03*
X0207793Y0083361D03*
X0207893Y0083261D03*
X0208393Y0083761D03*
X0200093Y0092561D03*
X0191393Y0088461D03*
D17*
X0198693Y0086361D03*
X0193293Y0082661D03*
X0193493Y0082561D03*
X0193093Y0082761D03*
X0192993Y0082861D03*
X0192793Y0082961D03*
X0193093Y0081961D03*
X0193593Y0081061D03*
X0195393Y0080961D03*
X0198493Y0080161D03*
X0198493Y0080061D03*
X0199293Y0079261D03*
X0201593Y0079761D03*
X0201493Y0080361D03*
X0202693Y0080161D03*
X0202693Y0080061D03*
X0202693Y0079961D03*
X0202793Y0079861D03*
X0202793Y0079761D03*
X0206093Y0081261D03*
X0206093Y0082761D03*
X0206593Y0083061D03*
X0208493Y0081961D03*
X0208593Y0082061D03*
X0208693Y0082161D03*
X0208893Y0082261D03*
X0209793Y0083161D03*
X0191593Y0083761D03*
X0190193Y0082461D03*
X0189893Y0082661D03*
X0189193Y0083461D03*
X0190793Y0081961D03*
X0190893Y0081861D03*
X0195793Y0106461D03*
X0196993Y0106361D03*
X0199593Y0107661D03*
X0201993Y0107161D03*
D18*
X0206243Y0105861D03*
X0210243Y0101861D03*
X0210343Y0101761D03*
X0210443Y0101661D03*
X0209443Y0096061D03*
X0209643Y0095061D03*
X0204943Y0096761D03*
X0190143Y0097361D03*
X0190143Y0097461D03*
X0190043Y0097161D03*
X0189943Y0096861D03*
X0189943Y0096761D03*
X0189843Y0096461D03*
X0189743Y0096061D03*
X0189743Y0095961D03*
X0189743Y0095861D03*
X0189543Y0094561D03*
X0188743Y0101561D03*
X0188843Y0101761D03*
X0188943Y0101861D03*
X0189043Y0101961D03*
X0189143Y0102061D03*
X0188743Y0085461D03*
X0188843Y0085261D03*
X0188943Y0085161D03*
X0189043Y0085061D03*
X0189143Y0084961D03*
X0196543Y0081261D03*
X0197043Y0079261D03*
X0210243Y0085161D03*
X0210343Y0085261D03*
X0210443Y0085361D03*
D19*
X0210743Y0085761D03*
X0210843Y0085961D03*
X0210943Y0086061D03*
X0211043Y0086161D03*
X0211043Y0086261D03*
X0211143Y0086361D03*
X0211243Y0086561D03*
X0202643Y0079361D03*
X0196343Y0079461D03*
X0188443Y0085861D03*
X0188343Y0085961D03*
X0188243Y0086161D03*
X0188143Y0086261D03*
X0188043Y0086461D03*
X0189443Y0094461D03*
X0190243Y0097861D03*
X0190243Y0097961D03*
X0190743Y0098961D03*
X0188043Y0100561D03*
X0188143Y0100761D03*
X0188243Y0100861D03*
X0188343Y0101061D03*
X0188443Y0101161D03*
X0196743Y0105761D03*
X0195743Y0107361D03*
X0210843Y0101061D03*
X0210943Y0100961D03*
X0211043Y0100861D03*
X0211043Y0100761D03*
X0211143Y0100661D03*
X0211243Y0100461D03*
X0209643Y0095761D03*
D20*
X0208343Y0096361D03*
X0205443Y0096061D03*
X0202343Y0096861D03*
X0202243Y0096761D03*
X0202043Y0096661D03*
X0197543Y0096661D03*
X0197343Y0096761D03*
X0197243Y0096861D03*
X0196443Y0097461D03*
X0196343Y0097561D03*
X0196343Y0097661D03*
X0196243Y0097761D03*
X0199943Y0090661D03*
X0189843Y0091161D03*
X0198743Y0086061D03*
X0198743Y0085961D03*
X0198543Y0085661D03*
X0198443Y0085461D03*
X0198343Y0085361D03*
X0198143Y0085061D03*
X0198043Y0084961D03*
X0194243Y0081461D03*
X0192943Y0082161D03*
X0192243Y0082561D03*
X0191743Y0082861D03*
X0191743Y0082961D03*
X0191443Y0082461D03*
X0190943Y0082761D03*
X0191043Y0083161D03*
X0191143Y0083261D03*
X0196243Y0080061D03*
X0196943Y0080161D03*
X0197043Y0080361D03*
X0197043Y0080461D03*
X0197143Y0080661D03*
X0199843Y0080461D03*
X0199843Y0080361D03*
X0199843Y0080261D03*
X0199943Y0080061D03*
X0200043Y0079861D03*
X0200043Y0079761D03*
X0200643Y0079561D03*
X0200643Y0079461D03*
X0200643Y0079361D03*
X0200543Y0080261D03*
X0200543Y0080361D03*
X0202843Y0080561D03*
X0203543Y0080661D03*
X0204543Y0080861D03*
X0204543Y0081361D03*
X0206543Y0082161D03*
X0206543Y0082261D03*
X0207143Y0082561D03*
X0207443Y0082061D03*
X0207843Y0082461D03*
X0208343Y0083461D03*
X0206943Y0081661D03*
X0206943Y0081561D03*
X0203143Y0106061D03*
X0203443Y0106861D03*
X0200943Y0106661D03*
X0200943Y0106561D03*
X0200943Y0106461D03*
X0200643Y0107461D03*
X0199443Y0106861D03*
X0199443Y0106761D03*
X0198743Y0106361D03*
X0197843Y0106861D03*
X0197843Y0106961D03*
X0197843Y0107061D03*
X0197843Y0107161D03*
X0197843Y0107261D03*
X0197743Y0107461D03*
X0197143Y0107161D03*
X0197043Y0107261D03*
D21*
X0197093Y0106461D03*
X0199593Y0107461D03*
X0200093Y0106361D03*
X0200893Y0106961D03*
X0200893Y0107061D03*
X0200893Y0107161D03*
X0203493Y0106961D03*
X0204093Y0106461D03*
X0204093Y0106361D03*
X0203993Y0106061D03*
X0203993Y0105961D03*
X0195793Y0099961D03*
X0196693Y0097161D03*
X0198493Y0096261D03*
X0201093Y0096261D03*
X0199793Y0090561D03*
X0198693Y0087561D03*
X0198693Y0084461D03*
X0200793Y0084461D03*
X0200893Y0084361D03*
X0203593Y0080861D03*
X0204393Y0080561D03*
X0205393Y0080761D03*
X0207493Y0082161D03*
X0207193Y0082761D03*
X0207793Y0083961D03*
X0207893Y0084061D03*
X0207993Y0084161D03*
X0199893Y0080661D03*
X0199293Y0079361D03*
X0197493Y0079561D03*
X0195293Y0080061D03*
X0195293Y0080161D03*
X0195293Y0080261D03*
X0195293Y0080361D03*
X0195293Y0080461D03*
X0195293Y0080561D03*
X0195293Y0080661D03*
X0194293Y0080461D03*
X0191893Y0081861D03*
X0191493Y0083961D03*
X0191393Y0084061D03*
X0189193Y0083361D03*
X0195093Y0084961D03*
D22*
X0197393Y0084961D03*
X0198593Y0083961D03*
X0199793Y0083961D03*
X0200893Y0083961D03*
X0203893Y0081061D03*
X0203593Y0080761D03*
X0204193Y0080361D03*
X0204493Y0080761D03*
X0204493Y0081461D03*
X0202793Y0080661D03*
X0201593Y0080561D03*
X0201393Y0079661D03*
X0199993Y0079961D03*
X0198393Y0079461D03*
X0198393Y0079361D03*
X0197493Y0079761D03*
X0197093Y0080561D03*
X0197193Y0080761D03*
X0196393Y0080761D03*
X0196193Y0080161D03*
X0194393Y0081661D03*
X0194293Y0081561D03*
X0194093Y0081361D03*
X0192593Y0081461D03*
X0192493Y0081361D03*
X0191293Y0082361D03*
X0190993Y0082861D03*
X0191193Y0083361D03*
X0198593Y0087661D03*
X0199793Y0090261D03*
X0199793Y0090361D03*
X0199993Y0090761D03*
X0199993Y0090861D03*
X0200093Y0090961D03*
X0199793Y0095961D03*
X0201693Y0096461D03*
X0201893Y0096561D03*
X0197893Y0096461D03*
X0197693Y0096561D03*
X0196593Y0097261D03*
X0196493Y0097361D03*
X0195893Y0098761D03*
X0196693Y0106161D03*
X0197193Y0106661D03*
X0196493Y0106961D03*
X0198493Y0107561D03*
X0199493Y0107061D03*
X0199493Y0106961D03*
X0198793Y0106261D03*
X0200593Y0107561D03*
X0201693Y0106261D03*
X0201693Y0106161D03*
X0203093Y0105961D03*
X0203993Y0105861D03*
X0204093Y0106561D03*
X0208293Y0096261D03*
X0208393Y0083561D03*
D23*
X0211893Y0087761D03*
X0211993Y0087961D03*
X0212093Y0088161D03*
X0212093Y0088261D03*
X0212193Y0088361D03*
X0212193Y0088461D03*
X0212293Y0088661D03*
X0212293Y0088761D03*
X0212393Y0088961D03*
X0212493Y0089261D03*
X0212593Y0089561D03*
X0212593Y0097461D03*
X0212493Y0097761D03*
X0212393Y0098061D03*
X0212293Y0098261D03*
X0212293Y0098361D03*
X0212193Y0098561D03*
X0212193Y0098661D03*
X0212093Y0098761D03*
X0212093Y0098861D03*
X0211993Y0099061D03*
X0211893Y0099261D03*
X0198293Y0099661D03*
X0190393Y0098561D03*
X0187293Y0099161D03*
X0187193Y0098961D03*
X0187093Y0098761D03*
X0187093Y0098661D03*
X0186993Y0098561D03*
X0186993Y0098461D03*
X0186993Y0098361D03*
X0186893Y0098261D03*
X0186893Y0098161D03*
X0186793Y0097961D03*
X0186793Y0097861D03*
X0186693Y0097661D03*
X0193393Y0106261D03*
X0194693Y0106961D03*
X0195893Y0107461D03*
X0199793Y0106161D03*
X0203093Y0107561D03*
X0186693Y0089361D03*
X0186793Y0089061D03*
X0186893Y0088861D03*
X0186893Y0088761D03*
X0186993Y0088561D03*
X0186993Y0088461D03*
X0187093Y0088361D03*
X0187093Y0088261D03*
X0187193Y0088061D03*
X0187293Y0087861D03*
X0192493Y0085361D03*
X0192593Y0085261D03*
X0189493Y0084061D03*
X0196493Y0079361D03*
X0199193Y0080761D03*
D24*
X0203293Y0079461D03*
X0209793Y0083961D03*
X0191593Y0086161D03*
X0191493Y0086261D03*
X0190693Y0087561D03*
X0190393Y0087961D03*
X0190393Y0088061D03*
X0189693Y0089561D03*
X0189693Y0089661D03*
X0189693Y0089761D03*
X0189093Y0092161D03*
X0189093Y0092261D03*
X0189093Y0092361D03*
X0209793Y0096661D03*
X0209893Y0096261D03*
X0205893Y0106361D03*
X0204093Y0107261D03*
X0194893Y0107161D03*
X0193493Y0106461D03*
D25*
X0197343Y0106161D03*
X0198443Y0107061D03*
X0198443Y0107161D03*
X0198843Y0106861D03*
X0198843Y0106761D03*
X0198843Y0106661D03*
X0199343Y0106361D03*
X0199343Y0106261D03*
X0200143Y0106961D03*
X0200143Y0107061D03*
X0201643Y0107261D03*
X0202143Y0107361D03*
X0203243Y0106361D03*
X0195543Y0100361D03*
X0195543Y0100261D03*
X0195543Y0100161D03*
X0195543Y0100061D03*
X0195543Y0099761D03*
X0195543Y0099661D03*
X0195543Y0099561D03*
X0195643Y0099461D03*
X0195643Y0099361D03*
X0195643Y0099261D03*
X0195643Y0099161D03*
X0195643Y0099061D03*
X0195743Y0098961D03*
X0195743Y0098861D03*
X0195843Y0098461D03*
X0195943Y0098361D03*
X0196043Y0098161D03*
X0196143Y0097961D03*
X0196543Y0097061D03*
X0196543Y0096961D03*
X0196643Y0096861D03*
X0196643Y0096761D03*
X0196743Y0096661D03*
X0196743Y0096561D03*
X0196843Y0096461D03*
X0196843Y0096361D03*
X0196943Y0096161D03*
X0197043Y0095961D03*
X0197143Y0095761D03*
X0197243Y0095561D03*
X0197243Y0095461D03*
X0197343Y0095361D03*
X0197343Y0095261D03*
X0197443Y0095161D03*
X0197443Y0095061D03*
X0197543Y0094961D03*
X0197543Y0094861D03*
X0197643Y0094661D03*
X0197743Y0094461D03*
X0197843Y0094261D03*
X0197943Y0094061D03*
X0197943Y0093961D03*
X0198043Y0093861D03*
X0198043Y0093761D03*
X0198143Y0093661D03*
X0198143Y0093561D03*
X0198243Y0093461D03*
X0198243Y0093361D03*
X0198343Y0093161D03*
X0198443Y0092961D03*
X0198543Y0092761D03*
X0198643Y0092561D03*
X0198643Y0092461D03*
X0198743Y0092361D03*
X0198743Y0092261D03*
X0198843Y0092161D03*
X0198843Y0092061D03*
X0198943Y0091961D03*
X0198943Y0091861D03*
X0199043Y0091661D03*
X0199143Y0091461D03*
X0199243Y0091261D03*
X0199343Y0091061D03*
X0199343Y0090961D03*
X0199443Y0090861D03*
X0199443Y0090761D03*
X0199543Y0090661D03*
X0199943Y0091061D03*
X0199943Y0091161D03*
X0199943Y0091261D03*
X0199943Y0091361D03*
X0199943Y0091461D03*
X0199943Y0091561D03*
X0199943Y0091661D03*
X0200043Y0091761D03*
X0200043Y0091861D03*
X0200043Y0091961D03*
X0200043Y0092061D03*
X0200043Y0092161D03*
X0200043Y0092261D03*
X0200043Y0092361D03*
X0200043Y0092461D03*
X0200143Y0092661D03*
X0200143Y0092761D03*
X0200143Y0092861D03*
X0200143Y0092961D03*
X0200143Y0093061D03*
X0200143Y0093161D03*
X0200143Y0093261D03*
X0200143Y0093361D03*
X0200243Y0093461D03*
X0200243Y0093561D03*
X0200243Y0093661D03*
X0200243Y0093761D03*
X0200243Y0093861D03*
X0200243Y0093961D03*
X0200243Y0094061D03*
X0200243Y0094161D03*
X0200243Y0094261D03*
X0200343Y0094361D03*
X0200343Y0094461D03*
X0200343Y0094561D03*
X0200343Y0094661D03*
X0200343Y0094761D03*
X0200343Y0094861D03*
X0200343Y0094961D03*
X0200343Y0095061D03*
X0200443Y0095161D03*
X0200443Y0095261D03*
X0200443Y0095361D03*
X0200443Y0095461D03*
X0200443Y0095561D03*
X0200443Y0095661D03*
X0200443Y0095761D03*
X0200443Y0095861D03*
X0200543Y0096261D03*
X0200543Y0096361D03*
X0200543Y0096461D03*
X0200543Y0096561D03*
X0200543Y0096661D03*
X0200543Y0096761D03*
X0200543Y0096861D03*
X0200643Y0096961D03*
X0200643Y0097061D03*
X0200643Y0097161D03*
X0200643Y0097261D03*
X0200643Y0097361D03*
X0200643Y0097461D03*
X0200643Y0097561D03*
X0200643Y0097661D03*
X0200743Y0097761D03*
X0200743Y0097861D03*
X0200743Y0097961D03*
X0200743Y0098061D03*
X0200743Y0098161D03*
X0202943Y0096861D03*
X0202843Y0096661D03*
X0202843Y0096561D03*
X0202743Y0096461D03*
X0202743Y0096361D03*
X0202643Y0096261D03*
X0202643Y0096161D03*
X0202543Y0096061D03*
X0202543Y0095961D03*
X0202443Y0095761D03*
X0202343Y0095561D03*
X0202243Y0095361D03*
X0202143Y0095161D03*
X0202143Y0095061D03*
X0202043Y0094961D03*
X0202043Y0094861D03*
X0201943Y0094761D03*
X0201943Y0094661D03*
X0201843Y0094461D03*
X0201743Y0094261D03*
X0201643Y0094061D03*
X0201643Y0093961D03*
X0201543Y0093861D03*
X0201543Y0093761D03*
X0201443Y0093661D03*
X0201443Y0093561D03*
X0201343Y0093461D03*
X0201343Y0093361D03*
X0201243Y0093261D03*
X0201243Y0093161D03*
X0201143Y0092961D03*
X0201043Y0092761D03*
X0200943Y0092561D03*
X0200943Y0092461D03*
X0200843Y0092361D03*
X0200843Y0092261D03*
X0200743Y0092161D03*
X0200743Y0092061D03*
X0200643Y0091961D03*
X0200643Y0091861D03*
X0200543Y0091661D03*
X0200443Y0091461D03*
X0200343Y0091261D03*
X0200343Y0091161D03*
X0200243Y0091061D03*
X0199843Y0089961D03*
X0199843Y0089861D03*
X0199843Y0089761D03*
X0199843Y0089661D03*
X0199743Y0089561D03*
X0199743Y0089461D03*
X0199743Y0089361D03*
X0199743Y0089261D03*
X0199743Y0089161D03*
X0199743Y0089061D03*
X0199743Y0088961D03*
X0199743Y0088861D03*
X0199743Y0088761D03*
X0199743Y0088661D03*
X0199743Y0088561D03*
X0199743Y0088461D03*
X0199743Y0088361D03*
X0199743Y0088261D03*
X0199743Y0088161D03*
X0199743Y0088061D03*
X0199743Y0087961D03*
X0199743Y0087861D03*
X0198543Y0087861D03*
X0201743Y0088061D03*
X0195243Y0085061D03*
X0192243Y0082661D03*
X0191743Y0082761D03*
X0191643Y0083061D03*
X0190543Y0083461D03*
X0193743Y0080761D03*
X0193643Y0080661D03*
X0194543Y0080961D03*
X0194543Y0081061D03*
X0196343Y0080861D03*
X0196843Y0079861D03*
X0196743Y0079761D03*
X0196743Y0079661D03*
X0197543Y0080161D03*
X0199343Y0080161D03*
X0199343Y0080061D03*
X0199343Y0079961D03*
X0200043Y0079661D03*
X0200043Y0079561D03*
X0200043Y0079461D03*
X0200743Y0079861D03*
X0201243Y0080061D03*
X0201243Y0080161D03*
X0201143Y0080561D03*
X0201243Y0079561D03*
X0201243Y0079461D03*
X0202343Y0080261D03*
X0202743Y0080461D03*
X0202243Y0080861D03*
X0203343Y0081061D03*
X0203343Y0081161D03*
X0203543Y0080261D03*
X0203543Y0080161D03*
X0204743Y0080261D03*
X0205143Y0081261D03*
X0206543Y0082361D03*
X0207843Y0082561D03*
X0208043Y0083061D03*
X0207943Y0083161D03*
X0207743Y0083461D03*
X0208343Y0083361D03*
X0208843Y0083261D03*
X0189843Y0091261D03*
X0189843Y0091361D03*
X0192543Y0098961D03*
X0194543Y0099461D03*
X0195143Y0100161D03*
X0206943Y0094261D03*
X0207543Y0095061D03*
X0209143Y0097461D03*
D26*
X0201443Y0096361D03*
X0198143Y0096361D03*
X0199843Y0090461D03*
X0205243Y0088661D03*
X0198743Y0086161D03*
X0198643Y0084061D03*
X0199743Y0084061D03*
X0200843Y0084061D03*
X0197243Y0080861D03*
X0196343Y0080661D03*
X0196243Y0080561D03*
X0196243Y0080461D03*
X0196243Y0080361D03*
X0196243Y0080261D03*
X0197443Y0079661D03*
X0198443Y0079661D03*
X0198443Y0079561D03*
X0199343Y0079561D03*
X0199343Y0079461D03*
X0199843Y0080561D03*
X0194343Y0080561D03*
X0193743Y0080961D03*
X0192643Y0081561D03*
X0192943Y0082061D03*
X0192243Y0082361D03*
X0192243Y0082461D03*
X0192143Y0082261D03*
X0192043Y0082161D03*
X0192043Y0082061D03*
X0191943Y0081961D03*
X0204243Y0080461D03*
X0204443Y0080661D03*
X0207743Y0082361D03*
X0207443Y0082861D03*
X0207143Y0082661D03*
X0208743Y0083061D03*
X0202443Y0106261D03*
X0200943Y0106761D03*
X0200943Y0106861D03*
X0200743Y0107361D03*
X0200643Y0107661D03*
X0199543Y0107361D03*
X0199543Y0107261D03*
X0199543Y0107161D03*
X0200143Y0106561D03*
X0200143Y0106461D03*
X0197143Y0106561D03*
D27*
X0202243Y0105761D03*
X0204243Y0107161D03*
X0209743Y0096561D03*
X0191243Y0086661D03*
X0190343Y0088161D03*
X0190343Y0088261D03*
X0199743Y0085161D03*
X0199743Y0085061D03*
X0199743Y0084961D03*
X0199743Y0084861D03*
X0199743Y0084761D03*
X0199743Y0084661D03*
X0202243Y0081261D03*
X0203543Y0079561D03*
X0209843Y0084061D03*
X0189443Y0083961D03*
D28*
X0191643Y0086061D03*
X0191743Y0085961D03*
X0191243Y0086561D03*
X0190943Y0087061D03*
X0190643Y0087461D03*
X0190443Y0087761D03*
X0190443Y0087861D03*
X0190143Y0088461D03*
X0190043Y0088561D03*
X0189543Y0089861D03*
X0189443Y0090161D03*
X0189043Y0092061D03*
X0189043Y0092461D03*
X0189043Y0092561D03*
X0189043Y0092661D03*
X0189043Y0092761D03*
X0189043Y0092861D03*
X0189043Y0093561D03*
X0189043Y0093661D03*
X0189043Y0093761D03*
X0189043Y0093861D03*
X0189043Y0093961D03*
X0209843Y0096361D03*
X0196443Y0105661D03*
X0195143Y0107261D03*
X0194643Y0079961D03*
X0195643Y0079561D03*
D29*
X0196243Y0081361D03*
X0203643Y0079661D03*
X0209843Y0084161D03*
X0212243Y0088561D03*
X0212343Y0088861D03*
X0212443Y0089061D03*
X0212443Y0089161D03*
X0212543Y0089361D03*
X0212543Y0089461D03*
X0212643Y0089661D03*
X0212643Y0089761D03*
X0212643Y0089861D03*
X0212743Y0089961D03*
X0212743Y0090061D03*
X0212743Y0090161D03*
X0212843Y0090361D03*
X0212843Y0090461D03*
X0212843Y0090561D03*
X0212943Y0090861D03*
X0212943Y0090961D03*
X0212943Y0091061D03*
X0213043Y0091461D03*
X0213043Y0091561D03*
X0213143Y0092461D03*
X0213143Y0094561D03*
X0213043Y0095461D03*
X0213043Y0095561D03*
X0212943Y0095961D03*
X0212943Y0096061D03*
X0212943Y0096161D03*
X0212843Y0096461D03*
X0212843Y0096561D03*
X0212843Y0096661D03*
X0212743Y0096861D03*
X0212743Y0096961D03*
X0212743Y0097061D03*
X0212643Y0097161D03*
X0212643Y0097261D03*
X0212643Y0097361D03*
X0212543Y0097561D03*
X0212543Y0097661D03*
X0212443Y0097861D03*
X0212443Y0097961D03*
X0212343Y0098161D03*
X0212243Y0098461D03*
X0209643Y0096461D03*
X0206043Y0106161D03*
X0203343Y0107461D03*
X0193443Y0106361D03*
X0186843Y0098061D03*
X0186743Y0097761D03*
X0186643Y0097561D03*
X0186643Y0097461D03*
X0186643Y0097361D03*
X0186543Y0097261D03*
X0186543Y0097161D03*
X0186543Y0097061D03*
X0186543Y0096961D03*
X0186443Y0096861D03*
X0186443Y0096761D03*
X0186443Y0096661D03*
X0186343Y0096461D03*
X0186343Y0096361D03*
X0186343Y0096261D03*
X0186243Y0095861D03*
X0186243Y0095761D03*
X0186143Y0095161D03*
X0186143Y0095061D03*
X0186143Y0091961D03*
X0186143Y0091861D03*
X0186243Y0091261D03*
X0186243Y0091161D03*
X0186343Y0090761D03*
X0186343Y0090661D03*
X0186343Y0090561D03*
X0186443Y0090361D03*
X0186443Y0090261D03*
X0186443Y0090161D03*
X0186543Y0090061D03*
X0186543Y0089961D03*
X0186543Y0089861D03*
X0186543Y0089761D03*
X0186643Y0089661D03*
X0186643Y0089561D03*
X0186643Y0089461D03*
X0186743Y0089261D03*
X0186743Y0089161D03*
X0186843Y0088961D03*
X0186943Y0088661D03*
X0191243Y0086861D03*
D30*
X0190593Y0083561D03*
X0190093Y0083261D03*
X0190793Y0082661D03*
X0190993Y0082961D03*
X0190993Y0083061D03*
X0193793Y0080861D03*
X0194293Y0080661D03*
X0196293Y0079961D03*
X0196893Y0079961D03*
X0196893Y0080061D03*
X0196993Y0080261D03*
X0199893Y0080161D03*
X0200593Y0080461D03*
X0200693Y0079761D03*
X0200693Y0079661D03*
X0201293Y0080261D03*
X0202793Y0080761D03*
X0203493Y0080561D03*
X0203493Y0080461D03*
X0203593Y0080061D03*
X0203693Y0079961D03*
X0204093Y0080261D03*
X0204593Y0080961D03*
X0204593Y0081061D03*
X0204593Y0081161D03*
X0204593Y0081261D03*
X0205193Y0081161D03*
X0205493Y0080861D03*
X0203893Y0081161D03*
X0206893Y0081761D03*
X0206893Y0081861D03*
X0207193Y0082361D03*
X0207093Y0082461D03*
X0207493Y0081961D03*
X0207493Y0081861D03*
X0207493Y0082961D03*
X0208393Y0083661D03*
X0208793Y0083161D03*
X0198693Y0085861D03*
X0198593Y0085761D03*
X0198493Y0085561D03*
X0198293Y0085261D03*
X0198193Y0085161D03*
X0198593Y0087761D03*
X0199793Y0090061D03*
X0199793Y0090161D03*
X0199293Y0091161D03*
X0199193Y0091361D03*
X0199093Y0091561D03*
X0198993Y0091761D03*
X0198593Y0092661D03*
X0198493Y0092861D03*
X0198393Y0093061D03*
X0198293Y0093261D03*
X0197893Y0094161D03*
X0197793Y0094361D03*
X0197693Y0094561D03*
X0197593Y0094761D03*
X0197193Y0095661D03*
X0197093Y0095861D03*
X0196993Y0096061D03*
X0196893Y0096261D03*
X0197093Y0096961D03*
X0196993Y0097061D03*
X0196193Y0097861D03*
X0196093Y0098061D03*
X0195993Y0098261D03*
X0195893Y0098561D03*
X0194493Y0099561D03*
X0200493Y0095961D03*
X0202193Y0095261D03*
X0202293Y0095461D03*
X0202393Y0095661D03*
X0202493Y0095861D03*
X0202893Y0096761D03*
X0202493Y0096961D03*
X0201893Y0094561D03*
X0201793Y0094361D03*
X0201693Y0094161D03*
X0201193Y0093061D03*
X0201093Y0092861D03*
X0200993Y0092661D03*
X0200593Y0091761D03*
X0200493Y0091561D03*
X0200393Y0091361D03*
X0207493Y0094961D03*
X0203993Y0105761D03*
X0203193Y0106161D03*
X0203193Y0106261D03*
X0203293Y0106461D03*
X0203293Y0106561D03*
X0203393Y0106661D03*
X0203393Y0106761D03*
X0204093Y0106661D03*
X0202093Y0107261D03*
X0200993Y0106361D03*
X0200993Y0106261D03*
X0199393Y0106461D03*
X0199393Y0106561D03*
X0199393Y0106661D03*
X0198793Y0106561D03*
X0198793Y0106461D03*
X0197993Y0106161D03*
X0197893Y0106261D03*
X0197893Y0106361D03*
X0197893Y0106461D03*
X0197893Y0106561D03*
X0197893Y0106661D03*
X0197893Y0106761D03*
X0197793Y0107361D03*
X0197193Y0107061D03*
X0197193Y0106961D03*
X0197193Y0106861D03*
X0197193Y0106761D03*
X0197393Y0106061D03*
X0198493Y0107261D03*
X0198493Y0107361D03*
X0198493Y0107461D03*
X0287591Y0121805D03*
D31*
X0209893Y0097061D03*
X0205593Y0106661D03*
X0193693Y0106661D03*
X0188993Y0091961D03*
X0189093Y0091061D03*
X0189093Y0090961D03*
X0189693Y0089161D03*
X0189693Y0089061D03*
X0189793Y0088761D03*
X0191793Y0085761D03*
X0193693Y0080361D03*
X0194993Y0079761D03*
X0195193Y0079661D03*
X0204493Y0079861D03*
X0206793Y0081061D03*
D32*
X0205943Y0080561D03*
X0205143Y0082061D03*
X0204343Y0079761D03*
X0202643Y0081361D03*
X0209043Y0082861D03*
X0209843Y0083661D03*
X0189343Y0083761D03*
X0189743Y0088861D03*
X0189743Y0088961D03*
X0189143Y0090561D03*
X0189143Y0090661D03*
X0189143Y0090761D03*
X0189143Y0090861D03*
X0188943Y0091461D03*
X0188943Y0091561D03*
X0188943Y0091661D03*
X0197743Y0098461D03*
X0197043Y0099761D03*
X0193843Y0106761D03*
X0202643Y0105661D03*
X0205443Y0106761D03*
X0209843Y0097161D03*
D33*
X0205343Y0096161D03*
X0204043Y0106161D03*
X0204043Y0106261D03*
X0200843Y0107261D03*
X0200143Y0106261D03*
X0199543Y0107561D03*
X0198743Y0086261D03*
X0198643Y0084361D03*
X0198643Y0084261D03*
X0198643Y0084161D03*
X0199743Y0084161D03*
X0199743Y0084261D03*
X0199743Y0084361D03*
X0199743Y0084461D03*
X0200843Y0084261D03*
X0200843Y0084161D03*
X0203643Y0080961D03*
X0201443Y0080461D03*
X0201543Y0079961D03*
X0201543Y0079861D03*
X0198443Y0079861D03*
X0198443Y0079761D03*
X0198443Y0079961D03*
X0195343Y0080761D03*
X0195343Y0080861D03*
X0192643Y0083061D03*
X0192543Y0083161D03*
X0192343Y0083261D03*
X0192243Y0083361D03*
X0191543Y0083861D03*
X0190243Y0082361D03*
X0190043Y0082561D03*
X0189243Y0083261D03*
X0206143Y0081161D03*
X0207543Y0082261D03*
X0206743Y0083161D03*
X0206843Y0083261D03*
X0207043Y0083361D03*
X0207143Y0083461D03*
X0207443Y0083661D03*
X0207543Y0083761D03*
X0207643Y0083861D03*
X0206443Y0082961D03*
X0209643Y0082961D03*
X0209743Y0083061D03*
D34*
X0209843Y0083761D03*
X0206043Y0080661D03*
X0197143Y0084761D03*
X0191743Y0085861D03*
X0190443Y0087661D03*
X0189343Y0090361D03*
X0188943Y0093061D03*
X0188943Y0093161D03*
X0188943Y0093261D03*
X0209843Y0096861D03*
X0209843Y0096961D03*
X0205743Y0106561D03*
X0194743Y0079861D03*
D35*
X0194093Y0080061D03*
X0193893Y0080161D03*
X0191993Y0081261D03*
X0190693Y0082261D03*
X0191693Y0083461D03*
X0189293Y0083661D03*
X0198893Y0087061D03*
X0198893Y0087161D03*
X0208993Y0082661D03*
X0205793Y0080361D03*
X0205193Y0080061D03*
X0204893Y0079961D03*
X0196893Y0098561D03*
X0196193Y0099861D03*
D36*
X0195743Y0106761D03*
X0201143Y0087961D03*
X0209843Y0083561D03*
X0206743Y0080961D03*
X0205343Y0080161D03*
X0205243Y0082161D03*
X0203043Y0081461D03*
X0195743Y0081561D03*
X0191343Y0081761D03*
D37*
X0191343Y0081661D03*
X0192043Y0081161D03*
X0194843Y0081861D03*
X0195543Y0081661D03*
X0189743Y0083061D03*
X0189643Y0083161D03*
X0198843Y0086861D03*
X0198843Y0086961D03*
X0188843Y0091161D03*
X0188843Y0091361D03*
X0205143Y0096261D03*
X0202943Y0105561D03*
X0202143Y0106461D03*
X0202143Y0106561D03*
X0209843Y0083461D03*
X0207543Y0081461D03*
X0205643Y0080261D03*
X0205343Y0082261D03*
X0204043Y0081761D03*
D38*
X0205593Y0081861D03*
X0205893Y0081561D03*
X0205593Y0082461D03*
X0206393Y0082861D03*
X0207293Y0081161D03*
X0207993Y0081661D03*
X0208993Y0082461D03*
X0208593Y0082961D03*
X0198493Y0080461D03*
X0198493Y0080361D03*
X0198493Y0080261D03*
X0194493Y0082061D03*
X0193593Y0081161D03*
X0192593Y0080761D03*
X0192393Y0080861D03*
X0198793Y0086561D03*
X0198793Y0086661D03*
X0209993Y0097761D03*
X0209793Y0098261D03*
X0209793Y0098361D03*
X0209693Y0098561D03*
X0195793Y0105861D03*
X0195693Y0105961D03*
X0195593Y0106261D03*
X0195593Y0106361D03*
D39*
X0196193Y0105561D03*
X0200393Y0099461D03*
X0205093Y0096361D03*
X0209893Y0097261D03*
X0209893Y0097361D03*
X0205293Y0106861D03*
X0205093Y0106961D03*
X0188893Y0091861D03*
X0188893Y0091761D03*
X0189193Y0090461D03*
X0194993Y0081761D03*
X0193793Y0080261D03*
X0203893Y0081661D03*
X0205893Y0080461D03*
X0208993Y0082761D03*
D40*
X0208993Y0082561D03*
X0207493Y0081361D03*
X0206693Y0080861D03*
X0204293Y0081861D03*
X0198493Y0080661D03*
X0193193Y0080461D03*
X0192993Y0080561D03*
X0192793Y0080661D03*
X0193093Y0081661D03*
X0193193Y0081761D03*
X0191693Y0083561D03*
X0190693Y0082161D03*
X0189793Y0082961D03*
X0188793Y0091261D03*
X0202593Y0098461D03*
X0209793Y0098061D03*
X0209793Y0097961D03*
X0209993Y0097561D03*
X0209993Y0097461D03*
X0202093Y0106361D03*
X0202193Y0106661D03*
X0202193Y0106761D03*
X0202193Y0106861D03*
X0202193Y0106961D03*
D41*
X0202143Y0107061D03*
X0203243Y0105461D03*
X0195943Y0105461D03*
X0195843Y0106661D03*
X0203143Y0099761D03*
X0209743Y0098161D03*
X0209943Y0097861D03*
X0209943Y0097661D03*
X0196243Y0098661D03*
X0198843Y0086761D03*
X0197643Y0084861D03*
X0194643Y0081961D03*
X0193643Y0081261D03*
X0193143Y0081861D03*
X0192243Y0080961D03*
X0192143Y0081061D03*
X0191443Y0081561D03*
X0190743Y0082061D03*
X0189843Y0082861D03*
X0189243Y0083561D03*
X0191643Y0083661D03*
X0198543Y0080561D03*
X0205443Y0082361D03*
X0205743Y0081761D03*
X0205843Y0081661D03*
X0206643Y0080761D03*
X0207443Y0081261D03*
X0208043Y0081761D03*
X0209843Y0083361D03*
D42*
X0199593Y0080861D03*
X0209293Y0091461D03*
X0209393Y0091661D03*
X0191193Y0099261D03*
X0189793Y0094761D03*
X0190393Y0103361D03*
X0190493Y0103461D03*
X0190593Y0103561D03*
X0193093Y0105761D03*
X0208893Y0103361D03*
X0208993Y0103261D03*
D43*
X0205793Y0105361D03*
X0192993Y0100561D03*
X0207393Y0088361D03*
X0207493Y0088461D03*
X0195093Y0084261D03*
X0199693Y0080961D03*
D44*
X0195443Y0081061D03*
X0194243Y0082161D03*
X0194043Y0082261D03*
X0193843Y0082361D03*
X0193643Y0082461D03*
X0191643Y0081361D03*
X0191443Y0081461D03*
X0189843Y0082761D03*
X0198743Y0086461D03*
X0205943Y0082661D03*
X0205743Y0082561D03*
X0205943Y0081461D03*
X0206043Y0081361D03*
X0207943Y0081561D03*
X0208343Y0081861D03*
X0208943Y0082361D03*
X0209843Y0083261D03*
X0207343Y0083561D03*
X0200643Y0096161D03*
X0198943Y0096161D03*
X0209743Y0098461D03*
X0196943Y0106261D03*
X0195843Y0106561D03*
X0195643Y0106161D03*
X0195643Y0106061D03*
X0195743Y0105361D03*
D45*
X0199643Y0104561D03*
X0199643Y0082461D03*
X0198943Y0081161D03*
D46*
X0195993Y0081461D03*
X0189393Y0083861D03*
X0191393Y0086361D03*
X0191293Y0086461D03*
X0190793Y0087161D03*
X0190693Y0087261D03*
X0190693Y0087361D03*
X0189993Y0088661D03*
X0189693Y0089261D03*
X0189693Y0089361D03*
X0189693Y0089461D03*
X0189493Y0089961D03*
X0189493Y0090061D03*
X0189393Y0090261D03*
X0188993Y0092961D03*
X0188993Y0093361D03*
X0188993Y0093461D03*
X0188993Y0094061D03*
X0188993Y0094161D03*
X0199793Y0096061D03*
X0202193Y0099661D03*
X0209793Y0096761D03*
X0205793Y0106461D03*
X0203893Y0107361D03*
X0193593Y0106561D03*
X0209793Y0083861D03*
X0204993Y0081961D03*
X0203693Y0081561D03*
D47*
X0199593Y0081861D03*
X0192993Y0084961D03*
X0192893Y0085061D03*
X0192793Y0085161D03*
X0188093Y0086361D03*
X0187993Y0086561D03*
X0187893Y0086661D03*
X0187893Y0086761D03*
X0187793Y0086861D03*
X0187693Y0087061D03*
X0187593Y0087261D03*
X0189393Y0094361D03*
X0190293Y0098061D03*
X0190293Y0098161D03*
X0190293Y0098261D03*
X0190593Y0098861D03*
X0187893Y0100261D03*
X0187893Y0100361D03*
X0187993Y0100461D03*
X0188093Y0100661D03*
X0187793Y0100161D03*
X0187693Y0099961D03*
X0187593Y0099761D03*
X0193293Y0106161D03*
X0199593Y0105161D03*
X0211193Y0100561D03*
X0211293Y0100361D03*
X0211393Y0100261D03*
X0211393Y0100161D03*
X0211493Y0100061D03*
X0211593Y0099861D03*
X0211693Y0099661D03*
X0204793Y0096661D03*
X0209693Y0095661D03*
X0209693Y0095561D03*
X0209693Y0095461D03*
X0211693Y0087361D03*
X0211593Y0087161D03*
X0211493Y0086961D03*
X0211393Y0086861D03*
X0211393Y0086761D03*
X0211293Y0086661D03*
X0211193Y0086461D03*
D48*
X0209043Y0091261D03*
X0209243Y0093361D03*
X0209243Y0094261D03*
X0209243Y0094361D03*
X0209243Y0094461D03*
X0204943Y0096961D03*
X0207743Y0104261D03*
X0206343Y0105461D03*
X0199843Y0106061D03*
X0199643Y0105061D03*
X0192943Y0105461D03*
X0191643Y0104361D03*
X0191443Y0104261D03*
X0191343Y0104161D03*
X0193743Y0084861D03*
X0199643Y0081961D03*
X0204043Y0083761D03*
D49*
X0204243Y0084261D03*
X0199643Y0082061D03*
X0195143Y0084161D03*
X0200143Y0098361D03*
X0205643Y0097661D03*
X0205743Y0097761D03*
X0205843Y0097861D03*
X0205943Y0097961D03*
X0206043Y0098161D03*
X0206543Y0100361D03*
X0206443Y0100461D03*
X0206443Y0100561D03*
X0199643Y0104961D03*
X0196343Y0103661D03*
X0193243Y0101061D03*
X0192643Y0100261D03*
X0206243Y0105161D03*
D50*
X0199643Y0104861D03*
X0206843Y0099261D03*
X0207043Y0088161D03*
X0199643Y0082161D03*
X0195043Y0084561D03*
D51*
X0199593Y0082261D03*
X0204493Y0085161D03*
X0199593Y0104761D03*
D52*
X0199643Y0104661D03*
X0204543Y0085561D03*
X0199643Y0082361D03*
D53*
X0199593Y0082561D03*
X0199593Y0104461D03*
D54*
X0199643Y0104361D03*
X0204643Y0086661D03*
X0199643Y0082661D03*
D55*
X0199593Y0082761D03*
X0199593Y0104261D03*
D56*
X0199593Y0104161D03*
X0199593Y0082861D03*
D57*
X0199593Y0082961D03*
X0199593Y0104061D03*
D58*
X0199593Y0103961D03*
X0199593Y0083061D03*
D59*
X0199593Y0083161D03*
X0199593Y0103861D03*
D60*
X0199593Y0103761D03*
X0199593Y0083261D03*
D61*
X0199643Y0083361D03*
D62*
X0199643Y0083461D03*
D63*
X0199593Y0083561D03*
D64*
X0193793Y0084761D03*
X0203993Y0083661D03*
X0209193Y0092261D03*
X0209293Y0092561D03*
X0209293Y0092661D03*
X0209293Y0092761D03*
X0209293Y0092861D03*
X0209293Y0092961D03*
X0209293Y0093261D03*
X0209193Y0094561D03*
X0207893Y0104161D03*
X0192993Y0105561D03*
X0191193Y0104061D03*
X0191593Y0099461D03*
D65*
X0204643Y0086361D03*
X0197543Y0083661D03*
D66*
X0195293Y0083761D03*
X0208293Y0089161D03*
X0208293Y0089261D03*
X0208293Y0089361D03*
X0208793Y0090761D03*
X0208793Y0090861D03*
X0208793Y0091061D03*
X0208893Y0091161D03*
X0209093Y0093761D03*
X0209093Y0093861D03*
X0205693Y0101761D03*
X0205593Y0101861D03*
X0205493Y0101961D03*
X0203793Y0103361D03*
X0203593Y0103461D03*
X0207293Y0104561D03*
X0192093Y0104661D03*
D67*
X0191943Y0104561D03*
X0192843Y0105361D03*
X0191743Y0099561D03*
X0203943Y0103261D03*
X0204143Y0103161D03*
X0204443Y0102961D03*
X0204943Y0102561D03*
X0205043Y0102461D03*
X0205143Y0102361D03*
X0205243Y0102261D03*
X0205343Y0102161D03*
X0205443Y0102061D03*
X0207443Y0104461D03*
X0209143Y0093661D03*
X0209143Y0093561D03*
X0208743Y0090661D03*
X0208743Y0090561D03*
X0204143Y0083861D03*
D68*
X0204143Y0083961D03*
X0208343Y0089461D03*
X0208343Y0089561D03*
X0208743Y0090961D03*
X0209043Y0094061D03*
X0209043Y0094161D03*
X0200243Y0099561D03*
X0205743Y0101661D03*
X0205843Y0101561D03*
X0207143Y0104661D03*
X0194843Y0102861D03*
X0192243Y0104761D03*
X0195243Y0083861D03*
D69*
X0195193Y0083961D03*
X0204193Y0084061D03*
X0206293Y0100861D03*
X0206193Y0101061D03*
X0203093Y0103661D03*
X0195793Y0103461D03*
X0193893Y0101961D03*
X0193793Y0101861D03*
X0193693Y0101761D03*
X0192393Y0100161D03*
X0192593Y0104961D03*
X0192793Y0105061D03*
D70*
X0192993Y0105161D03*
X0193493Y0101461D03*
X0193393Y0101361D03*
X0193393Y0101261D03*
X0193293Y0101161D03*
X0192193Y0099761D03*
X0206393Y0100661D03*
X0195193Y0084061D03*
D71*
X0204243Y0084161D03*
X0205543Y0097561D03*
X0206343Y0100761D03*
X0206243Y0100961D03*
X0206443Y0105061D03*
X0199643Y0105961D03*
X0196043Y0103561D03*
X0193643Y0101661D03*
X0193543Y0101561D03*
X0192343Y0100061D03*
X0192343Y0099961D03*
X0192243Y0099861D03*
X0192143Y0099661D03*
D72*
X0190993Y0099061D03*
X0189893Y0102861D03*
X0205093Y0096861D03*
X0209493Y0094961D03*
X0209493Y0102761D03*
X0209393Y0102861D03*
X0209293Y0102961D03*
X0209193Y0103061D03*
X0206293Y0105761D03*
X0209593Y0084361D03*
X0209493Y0084261D03*
X0189893Y0084161D03*
D73*
X0204243Y0084361D03*
X0207543Y0088561D03*
X0206243Y0098461D03*
X0206643Y0100061D03*
X0193043Y0100661D03*
X0193043Y0100761D03*
D74*
X0192943Y0100461D03*
X0206743Y0099761D03*
X0204343Y0084461D03*
X0195043Y0084361D03*
D75*
X0195043Y0084461D03*
X0204343Y0084561D03*
X0207243Y0088261D03*
X0206843Y0099461D03*
X0206543Y0099961D03*
D76*
X0204743Y0096561D03*
X0211543Y0099961D03*
X0211643Y0099761D03*
X0211743Y0099561D03*
X0211843Y0099461D03*
X0211843Y0099361D03*
X0211943Y0099161D03*
X0212043Y0098961D03*
X0206143Y0106061D03*
X0190543Y0098761D03*
X0190443Y0098661D03*
X0190343Y0098461D03*
X0190343Y0098361D03*
X0187543Y0099661D03*
X0187443Y0099561D03*
X0187443Y0099461D03*
X0187343Y0099361D03*
X0187343Y0099261D03*
X0187243Y0099061D03*
X0187143Y0098861D03*
X0187643Y0099861D03*
X0187743Y0100061D03*
X0189343Y0094261D03*
X0187143Y0088161D03*
X0187243Y0087961D03*
X0187343Y0087761D03*
X0187343Y0087661D03*
X0187443Y0087561D03*
X0187443Y0087461D03*
X0187543Y0087361D03*
X0187643Y0087161D03*
X0187743Y0086961D03*
X0199743Y0084561D03*
X0211543Y0087061D03*
X0211643Y0087261D03*
X0211743Y0087461D03*
X0211843Y0087561D03*
X0211843Y0087661D03*
X0211943Y0087861D03*
X0212043Y0088061D03*
D77*
X0204393Y0084761D03*
X0194993Y0084661D03*
X0206893Y0099061D03*
X0206893Y0099161D03*
D78*
X0209393Y0095961D03*
X0200293Y0098261D03*
X0209993Y0102161D03*
X0210093Y0102061D03*
X0210193Y0101961D03*
X0199593Y0108261D03*
X0193193Y0105961D03*
X0189393Y0102361D03*
X0189293Y0102261D03*
X0189193Y0102161D03*
X0189793Y0095761D03*
X0189793Y0095661D03*
X0189693Y0095461D03*
X0189693Y0095361D03*
X0189693Y0095261D03*
X0189193Y0084861D03*
X0189293Y0084761D03*
X0189393Y0084661D03*
X0209993Y0084861D03*
X0210093Y0084961D03*
X0210193Y0085061D03*
D79*
X0206793Y0087961D03*
X0204393Y0084861D03*
X0205793Y0098561D03*
X0206893Y0098861D03*
X0206893Y0098961D03*
D80*
X0204443Y0084961D03*
D81*
X0204443Y0085061D03*
X0206843Y0098761D03*
D82*
X0204493Y0085261D03*
D83*
X0204493Y0085361D03*
D84*
X0201693Y0087861D03*
X0210493Y0085461D03*
X0210593Y0085561D03*
X0210693Y0085661D03*
X0210793Y0085861D03*
X0209693Y0095161D03*
X0209693Y0095261D03*
X0209693Y0095361D03*
X0209593Y0095861D03*
X0209493Y0096161D03*
X0210793Y0101161D03*
X0210693Y0101261D03*
X0210693Y0101361D03*
X0210593Y0101461D03*
X0210493Y0101561D03*
X0206193Y0105961D03*
X0202593Y0107661D03*
X0196393Y0107561D03*
X0193293Y0106061D03*
X0188793Y0101661D03*
X0188693Y0101461D03*
X0188593Y0101361D03*
X0188493Y0101261D03*
X0188293Y0100961D03*
X0190193Y0097761D03*
X0190193Y0097661D03*
X0190193Y0097561D03*
X0190093Y0097261D03*
X0189993Y0097061D03*
X0189993Y0096961D03*
X0189893Y0096661D03*
X0189893Y0096561D03*
X0189793Y0096361D03*
X0189793Y0096261D03*
X0189793Y0096161D03*
X0188293Y0086061D03*
X0188493Y0085761D03*
X0188593Y0085661D03*
X0188693Y0085561D03*
X0188793Y0085361D03*
D85*
X0204543Y0085461D03*
D86*
X0212793Y0090261D03*
X0212893Y0090661D03*
X0212893Y0090761D03*
X0212993Y0091161D03*
X0212993Y0091261D03*
X0212993Y0091361D03*
X0213093Y0091661D03*
X0213093Y0091761D03*
X0213093Y0091861D03*
X0213093Y0091961D03*
X0213093Y0092061D03*
X0213093Y0092161D03*
X0213093Y0092261D03*
X0213093Y0092361D03*
X0213193Y0092561D03*
X0213193Y0092661D03*
X0213193Y0092761D03*
X0213193Y0092861D03*
X0213193Y0092961D03*
X0213193Y0093061D03*
X0213193Y0093161D03*
X0213193Y0093261D03*
X0213193Y0093361D03*
X0213193Y0093461D03*
X0213193Y0093561D03*
X0213193Y0093661D03*
X0213193Y0093761D03*
X0213193Y0093861D03*
X0213193Y0093961D03*
X0213193Y0094061D03*
X0213193Y0094161D03*
X0213193Y0094261D03*
X0213193Y0094361D03*
X0213193Y0094461D03*
X0213093Y0094661D03*
X0213093Y0094761D03*
X0213093Y0094861D03*
X0213093Y0094961D03*
X0213093Y0095061D03*
X0213093Y0095161D03*
X0213093Y0095261D03*
X0213093Y0095361D03*
X0212993Y0095661D03*
X0212993Y0095761D03*
X0212993Y0095861D03*
X0212893Y0096261D03*
X0212893Y0096361D03*
X0212793Y0096761D03*
X0204793Y0096461D03*
X0190293Y0088361D03*
X0191093Y0086961D03*
X0191293Y0086761D03*
X0192093Y0085661D03*
X0192193Y0085561D03*
X0192293Y0085461D03*
X0186393Y0090461D03*
X0186293Y0090861D03*
X0186293Y0090961D03*
X0186293Y0091061D03*
X0186193Y0091361D03*
X0186193Y0091461D03*
X0186193Y0091561D03*
X0186193Y0091661D03*
X0186193Y0091761D03*
X0186093Y0092061D03*
X0186093Y0092161D03*
X0186093Y0092261D03*
X0186093Y0092361D03*
X0186093Y0092461D03*
X0186093Y0092561D03*
X0186093Y0092661D03*
X0186093Y0092761D03*
X0186093Y0092861D03*
X0186093Y0092961D03*
X0186093Y0093061D03*
X0186093Y0093161D03*
X0186093Y0093261D03*
X0186093Y0093361D03*
X0186093Y0093461D03*
X0186093Y0093561D03*
X0186093Y0093661D03*
X0186093Y0093761D03*
X0186093Y0093861D03*
X0186093Y0093961D03*
X0186093Y0094061D03*
X0186093Y0094161D03*
X0186093Y0094261D03*
X0186093Y0094361D03*
X0186093Y0094461D03*
X0186093Y0094561D03*
X0186093Y0094661D03*
X0186093Y0094761D03*
X0186093Y0094861D03*
X0186093Y0094961D03*
X0186193Y0095261D03*
X0186193Y0095361D03*
X0186193Y0095461D03*
X0186193Y0095561D03*
X0186193Y0095661D03*
X0186293Y0095961D03*
X0186293Y0096061D03*
X0186293Y0096161D03*
X0186393Y0096561D03*
X0205993Y0106261D03*
X0204393Y0107061D03*
X0194793Y0107061D03*
D87*
X0204593Y0085761D03*
D88*
X0204593Y0085861D03*
D89*
X0204593Y0085961D03*
D90*
X0204643Y0086061D03*
D91*
X0204593Y0086161D03*
X0199593Y0107761D03*
D92*
X0204643Y0086261D03*
D93*
X0204643Y0086461D03*
X0204643Y0086561D03*
D94*
X0204643Y0086761D03*
D95*
X0204693Y0086861D03*
D96*
X0204643Y0086961D03*
D97*
X0204643Y0087061D03*
X0204643Y0087161D03*
D98*
X0203993Y0087461D03*
X0203893Y0087261D03*
D99*
X0203943Y0087361D03*
D100*
X0204493Y0087561D03*
D101*
X0204693Y0087661D03*
D102*
X0204743Y0087761D03*
D103*
X0206693Y0087861D03*
X0200093Y0105861D03*
D104*
X0206343Y0099861D03*
X0206943Y0088061D03*
D105*
X0207993Y0088661D03*
X0207993Y0088761D03*
X0207993Y0088861D03*
X0208393Y0089661D03*
X0208393Y0089761D03*
X0208393Y0089861D03*
X0208493Y0090261D03*
X0208993Y0093961D03*
X0205193Y0097361D03*
X0205093Y0097261D03*
X0204793Y0097061D03*
X0205993Y0101361D03*
X0205893Y0101461D03*
X0203393Y0103561D03*
X0206793Y0104861D03*
X0206993Y0104761D03*
X0195293Y0103161D03*
X0195093Y0103061D03*
X0194993Y0102961D03*
X0194693Y0102761D03*
X0194593Y0102661D03*
X0194493Y0102561D03*
X0194393Y0102461D03*
X0194293Y0102361D03*
X0192393Y0104861D03*
D106*
X0190793Y0103761D03*
X0191393Y0099361D03*
X0208293Y0103861D03*
X0208393Y0103761D03*
X0209193Y0091361D03*
D107*
X0209343Y0091561D03*
X0209443Y0091761D03*
X0209443Y0091861D03*
X0209443Y0091961D03*
X0209443Y0092061D03*
X0209443Y0092161D03*
X0209043Y0103161D03*
X0206343Y0105661D03*
X0196943Y0107661D03*
X0194943Y0106861D03*
X0193143Y0105861D03*
X0190243Y0103261D03*
X0190143Y0103161D03*
X0190043Y0103061D03*
X0189943Y0102961D03*
X0191143Y0099161D03*
X0189743Y0094961D03*
X0189743Y0094861D03*
D108*
X0190943Y0103861D03*
X0191043Y0103961D03*
X0208043Y0104061D03*
X0208143Y0103961D03*
X0209243Y0094861D03*
X0209243Y0094761D03*
X0209243Y0094661D03*
X0209343Y0093161D03*
X0209343Y0093061D03*
X0209243Y0092461D03*
X0209243Y0092361D03*
D109*
X0209193Y0093461D03*
X0204793Y0102661D03*
X0204693Y0102761D03*
X0204593Y0102861D03*
X0204293Y0103061D03*
X0207593Y0104361D03*
X0191793Y0104461D03*
D110*
X0193193Y0105261D03*
X0193193Y0100961D03*
X0193093Y0100861D03*
X0192693Y0100361D03*
X0205993Y0098061D03*
X0206093Y0098261D03*
X0206193Y0098361D03*
X0206593Y0100161D03*
X0206593Y0100261D03*
X0205993Y0105261D03*
D111*
X0206643Y0098661D03*
D112*
X0206793Y0099561D03*
X0206793Y0099661D03*
D113*
X0208743Y0103461D03*
X0208643Y0103561D03*
X0208543Y0103661D03*
X0206343Y0105561D03*
X0193043Y0105661D03*
X0190743Y0103661D03*
M02*
