G75*
%MOIN*%
%OFA0B0*%
%FSLAX25Y25*%
%IPPOS*%
%LPD*%
%AMOC8*
5,1,8,0,0,1.08239X$1,22.5*
%
%ADD10C,0.00000*%
%ADD11C,0.00400*%
%ADD12C,0.00300*%
%ADD13R,0.03400X0.00100*%
%ADD14R,0.04800X0.00100*%
%ADD15R,0.05900X0.00100*%
%ADD16R,0.06800X0.00100*%
%ADD17R,0.07600X0.00100*%
%ADD18R,0.00100X0.00100*%
%ADD19R,0.00900X0.00100*%
%ADD20R,0.03200X0.00100*%
%ADD21R,0.03000X0.00100*%
%ADD22R,0.00400X0.00100*%
%ADD23R,0.00700X0.00100*%
%ADD24R,0.00500X0.00100*%
%ADD25R,0.02700X0.00100*%
%ADD26R,0.02300X0.00100*%
%ADD27R,0.00200X0.00100*%
%ADD28R,0.00600X0.00100*%
%ADD29R,0.02400X0.00100*%
%ADD30R,0.02200X0.00100*%
%ADD31R,0.02600X0.00100*%
%ADD32R,0.00300X0.00100*%
%ADD33R,0.01900X0.00100*%
%ADD34R,0.01800X0.00100*%
%ADD35R,0.00800X0.00100*%
%ADD36R,0.02000X0.00100*%
%ADD37R,0.01500X0.00100*%
%ADD38R,0.01600X0.00100*%
%ADD39R,0.01400X0.00100*%
%ADD40R,0.01100X0.00100*%
%ADD41R,0.01700X0.00100*%
%ADD42R,0.01300X0.00100*%
%ADD43R,0.01200X0.00100*%
%ADD44R,0.03700X0.00100*%
%ADD45R,0.05500X0.00100*%
%ADD46R,0.01000X0.00100*%
%ADD47R,0.08000X0.00100*%
%ADD48R,0.02100X0.00100*%
%ADD49R,0.02900X0.00100*%
%ADD50R,0.04200X0.00100*%
%ADD51R,0.05200X0.00100*%
%ADD52R,0.06000X0.00100*%
%ADD53R,0.06700X0.00100*%
%ADD54R,0.07400X0.00100*%
%ADD55R,0.08500X0.00100*%
%ADD56R,0.09000X0.00100*%
%ADD57R,0.09500X0.00100*%
%ADD58R,0.09900X0.00100*%
%ADD59R,0.10300X0.00100*%
%ADD60R,0.10700X0.00100*%
%ADD61R,0.11100X0.00100*%
%ADD62R,0.11500X0.00100*%
%ADD63R,0.11800X0.00100*%
%ADD64R,0.12200X0.00100*%
%ADD65R,0.12500X0.00100*%
%ADD66R,0.04100X0.00100*%
%ADD67R,0.08600X0.00100*%
%ADD68R,0.04500X0.00100*%
%ADD69R,0.04400X0.00100*%
%ADD70R,0.04600X0.00100*%
%ADD71R,0.04900X0.00100*%
%ADD72R,0.05100X0.00100*%
%ADD73R,0.05000X0.00100*%
%ADD74R,0.03500X0.00100*%
%ADD75R,0.05400X0.00100*%
%ADD76R,0.05600X0.00100*%
%ADD77R,0.05800X0.00100*%
%ADD78R,0.02800X0.00100*%
%ADD79R,0.06100X0.00100*%
%ADD80R,0.03300X0.00100*%
%ADD81R,0.06300X0.00100*%
%ADD82R,0.06400X0.00100*%
%ADD83R,0.06600X0.00100*%
%ADD84R,0.06900X0.00100*%
%ADD85R,0.07100X0.00100*%
%ADD86R,0.03100X0.00100*%
%ADD87R,0.07200X0.00100*%
%ADD88R,0.02500X0.00100*%
%ADD89R,0.07700X0.00100*%
%ADD90R,0.07900X0.00100*%
%ADD91R,0.08100X0.00100*%
%ADD92R,0.08200X0.00100*%
%ADD93R,0.08300X0.00100*%
%ADD94R,0.08400X0.00100*%
%ADD95R,0.08800X0.00100*%
%ADD96R,0.09200X0.00100*%
%ADD97R,0.09300X0.00100*%
%ADD98R,0.09400X0.00100*%
%ADD99R,0.09600X0.00100*%
%ADD100R,0.11300X0.00100*%
%ADD101R,0.11400X0.00100*%
%ADD102R,0.10500X0.00100*%
%ADD103R,0.10100X0.00100*%
%ADD104R,0.10200X0.00100*%
%ADD105R,0.06500X0.00100*%
%ADD106R,0.06200X0.00100*%
%ADD107R,0.04700X0.00100*%
%ADD108R,0.03900X0.00100*%
%ADD109R,0.03600X0.00100*%
%ADD110R,0.04000X0.00100*%
%ADD111R,0.04300X0.00100*%
%ADD112R,0.05300X0.00100*%
%ADD113R,0.07000X0.00100*%
%ADD114R,0.05700X0.00100*%
%ADD115R,0.03800X0.00100*%
%ADD116C,0.00600*%
%ADD117C,0.00500*%
%ADD118R,0.01102X0.04134*%
%ADD119R,0.04134X0.01102*%
%ADD120C,0.00200*%
D10*
X0021485Y0001800D02*
X0021485Y0178965D01*
X0375186Y0178887D01*
X0375816Y0001800D01*
X0021485Y0001800D01*
D11*
X0038417Y0004953D02*
X0038417Y0008022D01*
X0039952Y0009557D01*
X0041487Y0008022D01*
X0041487Y0004953D01*
X0043021Y0005720D02*
X0046091Y0008789D01*
X0046091Y0005720D01*
X0045323Y0004953D01*
X0043789Y0004953D01*
X0043021Y0005720D01*
X0043021Y0008789D01*
X0043789Y0009557D01*
X0045323Y0009557D01*
X0046091Y0008789D01*
X0048260Y0008022D02*
X0049794Y0009557D01*
X0051329Y0008022D01*
X0051329Y0004953D01*
X0052864Y0004953D02*
X0055933Y0008022D01*
X0055933Y0008789D01*
X0055166Y0009557D01*
X0053631Y0009557D01*
X0052864Y0008789D01*
X0051329Y0007255D02*
X0048260Y0007255D01*
X0048260Y0008022D02*
X0048260Y0004953D01*
X0052864Y0004953D02*
X0055933Y0004953D01*
X0057118Y0004953D02*
X0057118Y0008022D01*
X0058653Y0009557D01*
X0060187Y0008022D01*
X0060187Y0004953D01*
X0060187Y0007255D02*
X0057118Y0007255D01*
X0061722Y0007255D02*
X0064791Y0007255D01*
X0064024Y0004953D02*
X0064024Y0009557D01*
X0061722Y0007255D01*
X0077787Y0007255D02*
X0080857Y0007255D01*
X0080857Y0008022D02*
X0080857Y0004953D01*
X0082391Y0005720D02*
X0083159Y0004953D01*
X0084693Y0004953D01*
X0085461Y0005720D01*
X0085461Y0006487D01*
X0084693Y0007255D01*
X0082391Y0007255D01*
X0082391Y0005720D01*
X0082391Y0007255D02*
X0083926Y0008789D01*
X0085461Y0009557D01*
X0080857Y0008022D02*
X0079322Y0009557D01*
X0077787Y0008022D01*
X0077787Y0004953D01*
X0041487Y0007255D02*
X0038417Y0007255D01*
X0038417Y0028575D02*
X0038417Y0031644D01*
X0039952Y0033179D01*
X0041487Y0031644D01*
X0041487Y0028575D01*
X0043021Y0028575D02*
X0046091Y0028575D01*
X0044556Y0028575D02*
X0044556Y0033179D01*
X0043021Y0031644D01*
X0041487Y0030877D02*
X0038417Y0030877D01*
X0048260Y0030877D02*
X0051329Y0030877D01*
X0051329Y0031644D02*
X0051329Y0028575D01*
X0052864Y0029342D02*
X0053631Y0028575D01*
X0055166Y0028575D01*
X0055933Y0029342D01*
X0055933Y0030109D01*
X0055166Y0030877D01*
X0054398Y0030877D01*
X0055166Y0030877D02*
X0055933Y0031644D01*
X0055933Y0032411D01*
X0055166Y0033179D01*
X0053631Y0033179D01*
X0052864Y0032411D01*
X0051329Y0031644D02*
X0049794Y0033179D01*
X0048260Y0031644D01*
X0048260Y0028575D01*
X0055917Y0036449D02*
X0057452Y0036449D01*
X0058219Y0037216D01*
X0058219Y0038751D01*
X0056684Y0038751D01*
X0055150Y0040285D02*
X0055150Y0037216D01*
X0055917Y0036449D01*
X0059754Y0036449D02*
X0059754Y0041053D01*
X0062823Y0036449D01*
X0062823Y0041053D01*
X0064357Y0041053D02*
X0066659Y0041053D01*
X0067427Y0040285D01*
X0067427Y0037216D01*
X0066659Y0036449D01*
X0064357Y0036449D01*
X0064357Y0041053D01*
X0058219Y0040285D02*
X0057452Y0041053D01*
X0055917Y0041053D01*
X0055150Y0040285D01*
X0067945Y0032628D02*
X0069480Y0034163D01*
X0071014Y0032628D01*
X0071014Y0029559D01*
X0072549Y0029559D02*
X0072549Y0030326D01*
X0075618Y0033396D01*
X0075618Y0034163D01*
X0072549Y0034163D01*
X0077787Y0032628D02*
X0079322Y0034163D01*
X0080857Y0032628D01*
X0080857Y0029559D01*
X0082391Y0030326D02*
X0083159Y0029559D01*
X0084693Y0029559D01*
X0085461Y0030326D01*
X0085461Y0031861D01*
X0084693Y0032628D01*
X0083926Y0032628D01*
X0082391Y0031861D01*
X0082391Y0034163D01*
X0085461Y0034163D01*
X0080857Y0031861D02*
X0077787Y0031861D01*
X0077787Y0032628D02*
X0077787Y0029559D01*
X0071014Y0031861D02*
X0067945Y0031861D01*
X0067945Y0032628D02*
X0067945Y0029559D01*
X0069240Y0049697D02*
X0068472Y0050464D01*
X0068472Y0051999D01*
X0069240Y0052766D01*
X0072309Y0049697D01*
X0073076Y0050464D01*
X0073076Y0051999D01*
X0072309Y0052766D01*
X0069240Y0052766D01*
X0069240Y0049697D02*
X0072309Y0049697D01*
X0080283Y0050464D02*
X0080283Y0051999D01*
X0081051Y0052766D01*
X0084120Y0049697D01*
X0084887Y0050464D01*
X0084887Y0051999D01*
X0084120Y0052766D01*
X0081051Y0052766D01*
X0080283Y0050464D02*
X0081051Y0049697D01*
X0084120Y0049697D01*
X0092095Y0050464D02*
X0092095Y0051999D01*
X0092862Y0052766D01*
X0095931Y0049697D01*
X0096698Y0050464D01*
X0096698Y0051999D01*
X0095931Y0052766D01*
X0092862Y0052766D01*
X0092095Y0050464D02*
X0092862Y0049697D01*
X0095931Y0049697D01*
X0104280Y0052747D02*
X0105814Y0054282D01*
X0108883Y0054282D01*
X0108883Y0055817D02*
X0108116Y0055817D01*
X0105047Y0058886D01*
X0104280Y0058886D01*
X0104280Y0055817D01*
X0106582Y0054282D02*
X0106582Y0051213D01*
X0105814Y0051213D02*
X0104280Y0052747D01*
X0105814Y0051213D02*
X0108883Y0051213D01*
X0096541Y0058555D02*
X0091937Y0058555D01*
X0091937Y0060857D01*
X0092704Y0061624D01*
X0094239Y0061624D01*
X0095006Y0060857D01*
X0095006Y0058555D01*
X0095006Y0060090D02*
X0096541Y0061624D01*
X0096541Y0063159D02*
X0096541Y0066228D01*
X0096541Y0064694D02*
X0091937Y0064694D01*
X0093472Y0063159D01*
X0090183Y0063140D02*
X0087113Y0063140D01*
X0085579Y0061605D01*
X0087113Y0060071D01*
X0090183Y0060071D01*
X0087881Y0060071D02*
X0087881Y0063140D01*
X0087881Y0064675D02*
X0087881Y0066977D01*
X0088648Y0067744D01*
X0089415Y0067744D01*
X0090183Y0066977D01*
X0090183Y0065442D01*
X0089415Y0064675D01*
X0087881Y0064675D01*
X0086346Y0066209D01*
X0085579Y0067744D01*
X0084730Y0068530D02*
X0083963Y0067763D01*
X0083195Y0067763D01*
X0082428Y0068530D01*
X0082428Y0070065D01*
X0083195Y0070832D01*
X0083963Y0070832D01*
X0084730Y0070065D01*
X0084730Y0068530D01*
X0084730Y0066228D02*
X0084730Y0063159D01*
X0084730Y0061624D02*
X0083195Y0060090D01*
X0083195Y0060857D02*
X0083195Y0058555D01*
X0084730Y0058555D02*
X0080126Y0058555D01*
X0080126Y0060857D01*
X0080893Y0061624D01*
X0082428Y0061624D01*
X0083195Y0060857D01*
X0081661Y0063159D02*
X0080126Y0064694D01*
X0084730Y0064694D01*
X0081661Y0067763D02*
X0080893Y0067763D01*
X0080126Y0068530D01*
X0080126Y0070065D01*
X0080893Y0070832D01*
X0081661Y0070832D01*
X0082428Y0070065D01*
X0082428Y0068530D02*
X0081661Y0067763D01*
X0078372Y0066977D02*
X0078372Y0065442D01*
X0077604Y0064675D01*
X0076070Y0064675D02*
X0075302Y0066209D01*
X0075302Y0066977D01*
X0076070Y0067744D01*
X0077604Y0067744D01*
X0078372Y0066977D01*
X0076070Y0064675D02*
X0073768Y0064675D01*
X0073768Y0067744D01*
X0072919Y0068530D02*
X0072919Y0070065D01*
X0072152Y0070832D01*
X0069082Y0070832D01*
X0068315Y0070065D01*
X0068315Y0068530D01*
X0069082Y0067763D01*
X0069850Y0067763D01*
X0070617Y0068530D01*
X0070617Y0070832D01*
X0072919Y0068530D02*
X0072152Y0067763D01*
X0072919Y0066228D02*
X0072919Y0063159D01*
X0072919Y0061624D02*
X0071384Y0060090D01*
X0071384Y0060857D02*
X0071384Y0058555D01*
X0072919Y0058555D02*
X0068315Y0058555D01*
X0068315Y0060857D01*
X0069082Y0061624D01*
X0070617Y0061624D01*
X0071384Y0060857D01*
X0073768Y0061605D02*
X0075302Y0063140D01*
X0078372Y0063140D01*
X0076070Y0063140D02*
X0076070Y0060071D01*
X0075302Y0060071D02*
X0078372Y0060071D01*
X0075302Y0060071D02*
X0073768Y0061605D01*
X0069850Y0063159D02*
X0068315Y0064694D01*
X0072919Y0064694D01*
X0066561Y0063140D02*
X0063491Y0063140D01*
X0061957Y0061605D01*
X0063491Y0060071D01*
X0066561Y0060071D01*
X0064259Y0060071D02*
X0064259Y0063140D01*
X0064259Y0064675D02*
X0064259Y0067744D01*
X0066561Y0066977D02*
X0061957Y0066977D01*
X0064259Y0064675D01*
X0061108Y0064694D02*
X0056504Y0064694D01*
X0058039Y0063159D01*
X0058806Y0061624D02*
X0059573Y0060857D01*
X0059573Y0058555D01*
X0059573Y0060090D02*
X0061108Y0061624D01*
X0061108Y0063159D02*
X0061108Y0066228D01*
X0060341Y0067763D02*
X0061108Y0068530D01*
X0061108Y0070065D01*
X0060341Y0070832D01*
X0059573Y0070832D01*
X0058806Y0070065D01*
X0058806Y0067763D01*
X0060341Y0067763D01*
X0058806Y0067763D02*
X0057271Y0069298D01*
X0056504Y0070832D01*
X0053982Y0067744D02*
X0054750Y0066977D01*
X0054750Y0065442D01*
X0053982Y0064675D01*
X0054750Y0063140D02*
X0051680Y0063140D01*
X0050146Y0061605D01*
X0051680Y0060071D01*
X0054750Y0060071D01*
X0056504Y0060857D02*
X0057271Y0061624D01*
X0058806Y0061624D01*
X0056504Y0060857D02*
X0056504Y0058555D01*
X0061108Y0058555D01*
X0060498Y0052766D02*
X0057429Y0052766D01*
X0060498Y0049697D01*
X0061265Y0050464D01*
X0061265Y0051999D01*
X0060498Y0052766D01*
X0057429Y0052766D02*
X0056661Y0051999D01*
X0056661Y0050464D01*
X0057429Y0049697D01*
X0060498Y0049697D01*
X0049454Y0050464D02*
X0048687Y0049697D01*
X0045618Y0052766D01*
X0048687Y0052766D01*
X0049454Y0051999D01*
X0049454Y0050464D01*
X0048687Y0049697D02*
X0045618Y0049697D01*
X0044850Y0050464D01*
X0044850Y0051999D01*
X0045618Y0052766D01*
X0044693Y0058555D02*
X0044693Y0060857D01*
X0045460Y0061624D01*
X0046995Y0061624D01*
X0047762Y0060857D01*
X0047762Y0058555D01*
X0047762Y0060090D02*
X0049297Y0061624D01*
X0049297Y0063159D02*
X0049297Y0066228D01*
X0050146Y0066977D02*
X0050913Y0067744D01*
X0051680Y0067744D01*
X0052448Y0066977D01*
X0053215Y0067744D01*
X0053982Y0067744D01*
X0052448Y0066977D02*
X0052448Y0066209D01*
X0050913Y0064675D02*
X0050146Y0065442D01*
X0050146Y0066977D01*
X0049297Y0068530D02*
X0048530Y0067763D01*
X0049297Y0068530D02*
X0049297Y0070065D01*
X0048530Y0070832D01*
X0046995Y0070832D01*
X0046228Y0070065D01*
X0046228Y0069298D01*
X0046995Y0067763D01*
X0044693Y0067763D01*
X0044693Y0070832D01*
X0042939Y0067744D02*
X0042939Y0064675D01*
X0039869Y0067744D01*
X0039102Y0067744D01*
X0038335Y0066977D01*
X0038335Y0065442D01*
X0039102Y0064675D01*
X0039869Y0063140D02*
X0042939Y0063140D01*
X0040637Y0063140D02*
X0040637Y0060071D01*
X0039869Y0060071D02*
X0038335Y0061605D01*
X0039869Y0063140D01*
X0039869Y0060071D02*
X0042939Y0060071D01*
X0044693Y0058555D02*
X0049297Y0058555D01*
X0052448Y0060071D02*
X0052448Y0063140D01*
X0049297Y0064694D02*
X0044693Y0064694D01*
X0046228Y0063159D01*
X0035517Y0063159D02*
X0035517Y0066228D01*
X0035517Y0064694D02*
X0030913Y0064694D01*
X0032448Y0063159D01*
X0031681Y0061624D02*
X0033215Y0061624D01*
X0033983Y0060857D01*
X0033983Y0058555D01*
X0035517Y0058555D02*
X0030913Y0058555D01*
X0030913Y0060857D01*
X0031681Y0061624D01*
X0033983Y0060090D02*
X0035517Y0061624D01*
X0033215Y0067763D02*
X0033215Y0070832D01*
X0030913Y0070065D02*
X0033215Y0067763D01*
X0035517Y0070065D02*
X0030913Y0070065D01*
X0031838Y0052766D02*
X0034907Y0049697D01*
X0035675Y0050464D01*
X0035675Y0051999D01*
X0034907Y0052766D01*
X0031838Y0052766D01*
X0031071Y0051999D01*
X0031071Y0050464D01*
X0031838Y0049697D01*
X0034907Y0049697D01*
X0091937Y0067763D02*
X0091937Y0070832D01*
X0092704Y0070832D01*
X0095774Y0067763D01*
X0096541Y0067763D01*
X0121547Y0082098D02*
X0124617Y0082098D01*
X0126151Y0082098D02*
X0129220Y0085168D01*
X0129220Y0085935D01*
X0128453Y0086702D01*
X0126918Y0086702D01*
X0126151Y0085935D01*
X0123082Y0086702D02*
X0123082Y0082098D01*
X0126151Y0082098D02*
X0129220Y0082098D01*
X0130755Y0082098D02*
X0133057Y0082098D01*
X0133824Y0082866D01*
X0133824Y0084400D01*
X0133057Y0085168D01*
X0130755Y0085168D01*
X0130755Y0080564D01*
X0135327Y0083023D02*
X0136094Y0082256D01*
X0137629Y0082256D01*
X0138396Y0083023D01*
X0139931Y0084558D02*
X0143000Y0084558D01*
X0142233Y0086860D02*
X0139931Y0084558D01*
X0138396Y0086093D02*
X0137629Y0086860D01*
X0136094Y0086860D01*
X0135327Y0086093D01*
X0135327Y0083023D01*
X0142233Y0082256D02*
X0142233Y0086860D01*
X0123082Y0086702D02*
X0121547Y0085168D01*
X0108133Y0095878D02*
X0105831Y0097413D01*
X0108133Y0098947D01*
X0105831Y0100482D02*
X0105831Y0095878D01*
X0104297Y0096645D02*
X0103529Y0095878D01*
X0101995Y0095878D01*
X0101228Y0096645D01*
X0104297Y0099715D01*
X0104297Y0096645D01*
X0101228Y0096645D02*
X0101228Y0099715D01*
X0101995Y0100482D01*
X0103529Y0100482D01*
X0104297Y0099715D01*
X0099693Y0099715D02*
X0096624Y0096645D01*
X0097391Y0095878D01*
X0098926Y0095878D01*
X0099693Y0096645D01*
X0099693Y0099715D01*
X0098926Y0100482D01*
X0097391Y0100482D01*
X0096624Y0099715D01*
X0096624Y0096645D01*
X0095089Y0095878D02*
X0092020Y0095878D01*
X0093554Y0095878D02*
X0093554Y0100482D01*
X0092020Y0098947D01*
X0092787Y0105720D02*
X0092020Y0106488D01*
X0092787Y0105720D02*
X0094322Y0105720D01*
X0095089Y0106488D01*
X0095089Y0107255D01*
X0094322Y0108022D01*
X0093554Y0108022D01*
X0094322Y0108022D02*
X0095089Y0108790D01*
X0095089Y0109557D01*
X0094322Y0110324D01*
X0092787Y0110324D01*
X0092020Y0109557D01*
X0096624Y0109557D02*
X0097391Y0110324D01*
X0098926Y0110324D01*
X0099693Y0109557D01*
X0099693Y0108790D01*
X0098926Y0108022D01*
X0099693Y0107255D01*
X0099693Y0106488D01*
X0098926Y0105720D01*
X0097391Y0105720D01*
X0096624Y0106488D01*
X0098158Y0108022D02*
X0098926Y0108022D01*
X0101228Y0107255D02*
X0103529Y0108790D01*
X0101228Y0110324D02*
X0101228Y0105720D01*
X0101228Y0107255D02*
X0103529Y0105720D01*
X0082919Y0115642D02*
X0082919Y0118711D01*
X0082919Y0117176D02*
X0078315Y0117176D01*
X0079850Y0115642D01*
X0079082Y0120246D02*
X0078315Y0121013D01*
X0078315Y0122548D01*
X0079082Y0123315D01*
X0082152Y0120246D01*
X0082919Y0121013D01*
X0082919Y0122548D01*
X0082152Y0123315D01*
X0079082Y0123315D01*
X0079082Y0124850D02*
X0078315Y0125617D01*
X0078315Y0127152D01*
X0079082Y0127919D01*
X0082152Y0124850D01*
X0082919Y0125617D01*
X0082919Y0127152D01*
X0082152Y0127919D01*
X0079082Y0127919D01*
X0079850Y0129454D02*
X0079850Y0131755D01*
X0080617Y0132523D01*
X0082919Y0132523D01*
X0083079Y0132157D02*
X0083079Y0133692D01*
X0083846Y0134459D01*
X0084613Y0135994D02*
X0083079Y0137528D01*
X0087683Y0137528D01*
X0087683Y0135994D02*
X0087683Y0139063D01*
X0086915Y0134459D02*
X0087683Y0133692D01*
X0087683Y0132157D01*
X0086915Y0131390D01*
X0083846Y0131390D01*
X0083079Y0132157D01*
X0082919Y0129454D02*
X0079850Y0129454D01*
X0076288Y0132453D02*
X0074753Y0132453D01*
X0073986Y0133220D01*
X0073986Y0133987D01*
X0074753Y0134755D01*
X0076288Y0134755D01*
X0077055Y0133987D01*
X0077055Y0133220D01*
X0076288Y0132453D01*
X0076288Y0134755D02*
X0077055Y0135522D01*
X0077055Y0136289D01*
X0076288Y0137057D01*
X0074753Y0137057D01*
X0073986Y0136289D01*
X0073986Y0135522D01*
X0074753Y0134755D01*
X0072451Y0134755D02*
X0071684Y0133987D01*
X0069382Y0133987D01*
X0069382Y0132453D02*
X0069382Y0137057D01*
X0071684Y0137057D01*
X0072451Y0136289D01*
X0072451Y0134755D01*
X0070917Y0133987D02*
X0072451Y0132453D01*
X0065561Y0133063D02*
X0065561Y0136132D01*
X0062492Y0133063D01*
X0063259Y0132295D01*
X0064794Y0132295D01*
X0065561Y0133063D01*
X0062492Y0133063D02*
X0062492Y0136132D01*
X0063259Y0136899D01*
X0064794Y0136899D01*
X0065561Y0136132D01*
X0062405Y0131604D02*
X0060103Y0129302D01*
X0063172Y0129302D01*
X0062405Y0127000D02*
X0062405Y0131604D01*
X0058568Y0131604D02*
X0055499Y0127000D01*
X0053965Y0127000D02*
X0050895Y0127000D01*
X0049361Y0127000D02*
X0049361Y0130069D01*
X0047826Y0131604D01*
X0046291Y0130069D01*
X0046291Y0127000D01*
X0046291Y0129302D02*
X0049361Y0129302D01*
X0050895Y0130069D02*
X0052430Y0131604D01*
X0052430Y0127000D01*
X0062492Y0124321D02*
X0062492Y0121252D01*
X0065561Y0124321D01*
X0065561Y0121252D01*
X0064794Y0120484D01*
X0063259Y0120484D01*
X0062492Y0121252D01*
X0062492Y0124321D02*
X0063259Y0125088D01*
X0064794Y0125088D01*
X0065561Y0124321D01*
X0069382Y0125246D02*
X0071684Y0125246D01*
X0072451Y0124478D01*
X0072451Y0122944D01*
X0071684Y0122176D01*
X0069382Y0122176D01*
X0069382Y0120642D02*
X0069382Y0125246D01*
X0070917Y0122176D02*
X0072451Y0120642D01*
X0073986Y0120642D02*
X0073986Y0121409D01*
X0077055Y0124478D01*
X0077055Y0125246D01*
X0073986Y0125246D01*
X0079082Y0124850D02*
X0082152Y0124850D01*
X0082152Y0120246D02*
X0079082Y0120246D01*
X0076288Y0110482D02*
X0073986Y0108180D01*
X0077055Y0108180D01*
X0076288Y0105878D02*
X0076288Y0110482D01*
X0072451Y0109715D02*
X0072451Y0108180D01*
X0071684Y0107413D01*
X0069382Y0107413D01*
X0070917Y0107413D02*
X0072451Y0105878D01*
X0069382Y0105878D02*
X0069382Y0110482D01*
X0071684Y0110482D01*
X0072451Y0109715D01*
X0071684Y0099655D02*
X0072451Y0098888D01*
X0072451Y0097353D01*
X0071684Y0096586D01*
X0069382Y0096586D01*
X0070917Y0096586D02*
X0072451Y0095051D01*
X0073986Y0095818D02*
X0074753Y0095051D01*
X0076288Y0095051D01*
X0077055Y0095818D01*
X0077055Y0096586D01*
X0076288Y0097353D01*
X0075520Y0097353D01*
X0076288Y0097353D02*
X0077055Y0098120D01*
X0077055Y0098888D01*
X0076288Y0099655D01*
X0074753Y0099655D01*
X0073986Y0098888D01*
X0071684Y0099655D02*
X0069382Y0099655D01*
X0069382Y0095051D01*
X0053965Y0115189D02*
X0050895Y0115189D01*
X0049361Y0115189D02*
X0049361Y0118258D01*
X0047826Y0119793D01*
X0046291Y0118258D01*
X0046291Y0115189D01*
X0046291Y0117491D02*
X0049361Y0117491D01*
X0050895Y0118258D02*
X0052430Y0119793D01*
X0052430Y0115189D01*
X0053197Y0140780D02*
X0051663Y0140780D01*
X0050895Y0141547D01*
X0053965Y0144616D01*
X0053965Y0141547D01*
X0053197Y0140780D01*
X0055499Y0140780D02*
X0058568Y0145383D01*
X0060103Y0143081D02*
X0063172Y0143081D01*
X0062405Y0140780D02*
X0062405Y0145383D01*
X0060103Y0143081D01*
X0053965Y0144616D02*
X0053197Y0145383D01*
X0051663Y0145383D01*
X0050895Y0144616D01*
X0050895Y0141547D01*
X0049361Y0140780D02*
X0049361Y0143849D01*
X0047826Y0145383D01*
X0046291Y0143849D01*
X0046291Y0140780D01*
X0046291Y0143081D02*
X0049361Y0143081D01*
X0062492Y0147826D02*
X0065561Y0150896D01*
X0065561Y0147826D01*
X0064794Y0147059D01*
X0063259Y0147059D01*
X0062492Y0147826D01*
X0062492Y0150896D01*
X0063259Y0151663D01*
X0064794Y0151663D01*
X0065561Y0150896D01*
X0069382Y0151820D02*
X0071684Y0151820D01*
X0072451Y0151053D01*
X0072451Y0149518D01*
X0071684Y0148751D01*
X0069382Y0148751D01*
X0069382Y0147217D02*
X0069382Y0151820D01*
X0070917Y0148751D02*
X0072451Y0147217D01*
X0073986Y0147984D02*
X0074753Y0147217D01*
X0076288Y0147217D01*
X0077055Y0147984D01*
X0077055Y0148751D01*
X0076288Y0149518D01*
X0073986Y0149518D01*
X0073986Y0147984D01*
X0073986Y0149518D02*
X0075520Y0151053D01*
X0077055Y0151820D01*
X0076288Y0159028D02*
X0074753Y0159028D01*
X0073986Y0159795D01*
X0073986Y0161330D02*
X0075520Y0162097D01*
X0076288Y0162097D01*
X0077055Y0161330D01*
X0077055Y0159795D01*
X0076288Y0159028D01*
X0073986Y0161330D02*
X0073986Y0163631D01*
X0077055Y0163631D01*
X0072451Y0162864D02*
X0072451Y0161330D01*
X0071684Y0160562D01*
X0069382Y0160562D01*
X0069382Y0159028D02*
X0069382Y0163631D01*
X0071684Y0163631D01*
X0072451Y0162864D01*
X0070917Y0160562D02*
X0072451Y0159028D01*
X0065561Y0159637D02*
X0065561Y0162707D01*
X0062492Y0159637D01*
X0063259Y0158870D01*
X0064794Y0158870D01*
X0065561Y0159637D01*
X0062492Y0159637D02*
X0062492Y0162707D01*
X0063259Y0163474D01*
X0064794Y0163474D01*
X0065561Y0162707D01*
X0053965Y0156427D02*
X0050895Y0153358D01*
X0051663Y0152591D01*
X0053197Y0152591D01*
X0053965Y0153358D01*
X0053965Y0156427D01*
X0053197Y0157194D01*
X0051663Y0157194D01*
X0050895Y0156427D01*
X0050895Y0153358D01*
X0049361Y0152591D02*
X0049361Y0155660D01*
X0047826Y0157194D01*
X0046291Y0155660D01*
X0046291Y0152591D01*
X0046291Y0154893D02*
X0049361Y0154893D01*
X0101025Y0154106D02*
X0104094Y0154106D01*
X0102559Y0154106D02*
X0102559Y0158710D01*
X0101025Y0157176D01*
X0105629Y0157943D02*
X0105629Y0154874D01*
X0108698Y0157943D01*
X0108698Y0154874D01*
X0107931Y0154106D01*
X0106396Y0154106D01*
X0105629Y0154874D01*
X0105629Y0157943D02*
X0106396Y0158710D01*
X0107931Y0158710D01*
X0108698Y0157943D01*
X0110233Y0157943D02*
X0111000Y0158710D01*
X0112535Y0158710D01*
X0113302Y0157943D01*
X0110233Y0154874D01*
X0111000Y0154106D01*
X0112535Y0154106D01*
X0113302Y0154874D01*
X0113302Y0157943D01*
X0114837Y0158710D02*
X0114837Y0154106D01*
X0114837Y0155641D02*
X0117139Y0157176D01*
X0114837Y0155641D02*
X0117139Y0154106D01*
X0112488Y0151053D02*
X0111721Y0151820D01*
X0110186Y0151820D01*
X0109419Y0151053D01*
X0107884Y0151053D02*
X0107884Y0149518D01*
X0107117Y0148751D01*
X0104815Y0148751D01*
X0104815Y0147217D02*
X0104815Y0151820D01*
X0107117Y0151820D01*
X0107884Y0151053D01*
X0106350Y0148751D02*
X0107884Y0147217D01*
X0109419Y0147217D02*
X0112488Y0150286D01*
X0112488Y0151053D01*
X0112488Y0147217D02*
X0109419Y0147217D01*
X0110186Y0144773D02*
X0111721Y0144773D01*
X0112488Y0144006D01*
X0112488Y0143239D01*
X0111721Y0142471D01*
X0112488Y0141704D01*
X0112488Y0140937D01*
X0111721Y0140169D01*
X0110186Y0140169D01*
X0109419Y0140937D01*
X0107884Y0140937D02*
X0107117Y0140169D01*
X0105582Y0140169D01*
X0104815Y0140937D01*
X0106350Y0142471D02*
X0107117Y0142471D01*
X0107884Y0141704D01*
X0107884Y0140937D01*
X0107117Y0142471D02*
X0107884Y0143239D01*
X0107884Y0144006D01*
X0107117Y0144773D01*
X0105582Y0144773D01*
X0104815Y0144006D01*
X0109419Y0144006D02*
X0110186Y0144773D01*
X0114023Y0144773D02*
X0114023Y0140169D01*
X0114023Y0141704D02*
X0116325Y0140169D01*
X0114023Y0141704D02*
X0116325Y0143239D01*
X0111721Y0142471D02*
X0110954Y0142471D01*
X0110233Y0154874D02*
X0110233Y0157943D01*
X0109698Y0160839D02*
X0109698Y0165443D01*
X0108164Y0163908D01*
X0106629Y0164675D02*
X0106629Y0163141D01*
X0105862Y0162373D01*
X0103560Y0162373D01*
X0103560Y0160839D02*
X0103560Y0165443D01*
X0105862Y0165443D01*
X0106629Y0164675D01*
X0105094Y0162373D02*
X0106629Y0160839D01*
X0108164Y0160839D02*
X0111233Y0160839D01*
X0146921Y0111466D02*
X0146154Y0110699D01*
X0146154Y0107630D01*
X0146921Y0106862D01*
X0148455Y0106862D01*
X0149223Y0107630D01*
X0150757Y0107630D02*
X0150757Y0108397D01*
X0151525Y0109164D01*
X0153059Y0109164D01*
X0153827Y0108397D01*
X0153827Y0107630D01*
X0153059Y0106862D01*
X0151525Y0106862D01*
X0150757Y0107630D01*
X0151525Y0109164D02*
X0150757Y0109931D01*
X0150757Y0110699D01*
X0151525Y0111466D01*
X0153059Y0111466D01*
X0153827Y0110699D01*
X0153827Y0109931D01*
X0153059Y0109164D01*
X0149223Y0110699D02*
X0148455Y0111466D01*
X0146921Y0111466D01*
X0147688Y0105403D02*
X0147688Y0100799D01*
X0146154Y0100799D02*
X0149223Y0100799D01*
X0150757Y0101567D02*
X0153827Y0104636D01*
X0153827Y0101567D01*
X0153059Y0100799D01*
X0151525Y0100799D01*
X0150757Y0101567D01*
X0150757Y0104636D01*
X0151525Y0105403D01*
X0153059Y0105403D01*
X0153827Y0104636D01*
X0155361Y0104636D02*
X0155361Y0101567D01*
X0158431Y0104636D01*
X0158431Y0101567D01*
X0157663Y0100799D01*
X0156129Y0100799D01*
X0155361Y0101567D01*
X0155361Y0104636D02*
X0156129Y0105403D01*
X0157663Y0105403D01*
X0158431Y0104636D01*
X0159965Y0103868D02*
X0162267Y0103868D01*
X0163035Y0103101D01*
X0163035Y0100799D01*
X0159965Y0100799D02*
X0159965Y0103868D01*
X0147688Y0105403D02*
X0146154Y0103868D01*
X0218906Y0122531D02*
X0218906Y0124833D01*
X0219673Y0125601D01*
X0221207Y0125601D01*
X0221975Y0124833D01*
X0221975Y0122531D01*
X0223509Y0122531D02*
X0218906Y0122531D01*
X0221975Y0124066D02*
X0223509Y0125601D01*
X0222742Y0127135D02*
X0223509Y0127903D01*
X0223509Y0129437D01*
X0222742Y0130205D01*
X0219673Y0130205D01*
X0218906Y0129437D01*
X0218906Y0127903D01*
X0219673Y0127135D01*
X0220440Y0127135D01*
X0221207Y0127903D01*
X0221207Y0130205D01*
X0220598Y0132374D02*
X0219063Y0133909D01*
X0223667Y0133909D01*
X0223667Y0135443D02*
X0223667Y0132374D01*
X0223667Y0136978D02*
X0219063Y0136978D01*
X0220598Y0138513D01*
X0219063Y0140047D01*
X0223667Y0140047D01*
X0244003Y0116775D02*
X0246305Y0116775D01*
X0244003Y0116775D02*
X0243235Y0116007D01*
X0243235Y0113705D01*
X0246305Y0113705D01*
X0245537Y0112171D02*
X0242468Y0112171D01*
X0245537Y0109102D01*
X0246305Y0109869D01*
X0246305Y0111404D01*
X0245537Y0112171D01*
X0242468Y0112171D02*
X0241701Y0111404D01*
X0241701Y0109869D01*
X0242468Y0109102D01*
X0245537Y0109102D01*
X0245537Y0107567D02*
X0242468Y0107567D01*
X0245537Y0104498D01*
X0246305Y0105265D01*
X0246305Y0106800D01*
X0245537Y0107567D01*
X0242468Y0107567D02*
X0241701Y0106800D01*
X0241701Y0105265D01*
X0242468Y0104498D01*
X0245537Y0104498D01*
X0246305Y0102963D02*
X0246305Y0099894D01*
X0246305Y0101428D02*
X0241701Y0101428D01*
X0243235Y0099894D01*
X0239257Y0100661D02*
X0239257Y0102196D01*
X0238490Y0102963D01*
X0239257Y0104498D02*
X0236188Y0107567D01*
X0235421Y0107567D01*
X0234654Y0106800D01*
X0234654Y0105265D01*
X0235421Y0104498D01*
X0235421Y0102963D02*
X0234654Y0102196D01*
X0234654Y0100661D01*
X0235421Y0099894D01*
X0238490Y0099894D01*
X0239257Y0100661D01*
X0239257Y0104498D02*
X0239257Y0107567D01*
X0304618Y0137374D02*
X0304618Y0141978D01*
X0306920Y0141978D01*
X0307687Y0141211D01*
X0307687Y0139676D01*
X0306920Y0138909D01*
X0304618Y0138909D01*
X0306153Y0138909D02*
X0307687Y0137374D01*
X0309222Y0137374D02*
X0312291Y0137374D01*
X0310757Y0137374D02*
X0310757Y0141978D01*
X0309222Y0140443D01*
X0306920Y0143122D02*
X0305385Y0143122D01*
X0304618Y0143889D01*
X0307687Y0146959D01*
X0307687Y0143889D01*
X0306920Y0143122D01*
X0304618Y0143889D02*
X0304618Y0146959D01*
X0305385Y0147726D01*
X0306920Y0147726D01*
X0307687Y0146959D01*
X0313826Y0141211D02*
X0314593Y0141978D01*
X0316128Y0141978D01*
X0316895Y0141211D01*
X0313826Y0138141D01*
X0314593Y0137374D01*
X0316128Y0137374D01*
X0316895Y0138141D01*
X0316895Y0141211D01*
X0313826Y0141211D02*
X0313826Y0138141D01*
X0324303Y0137374D02*
X0324303Y0141978D01*
X0326605Y0141978D01*
X0327372Y0141211D01*
X0327372Y0139676D01*
X0326605Y0138909D01*
X0324303Y0138909D01*
X0325838Y0138909D02*
X0327372Y0137374D01*
X0328907Y0137374D02*
X0331976Y0137374D01*
X0330442Y0137374D02*
X0330442Y0141978D01*
X0328907Y0140443D01*
X0333511Y0141211D02*
X0334278Y0141978D01*
X0335813Y0141978D01*
X0336580Y0141211D01*
X0336580Y0140443D01*
X0335813Y0139676D01*
X0336580Y0138909D01*
X0336580Y0138141D01*
X0335813Y0137374D01*
X0334278Y0137374D01*
X0333511Y0138141D01*
X0335046Y0139676D02*
X0335813Y0139676D01*
X0335813Y0143122D02*
X0333511Y0144657D01*
X0335813Y0146191D01*
X0333511Y0147726D02*
X0333511Y0143122D01*
X0331976Y0143889D02*
X0331976Y0144657D01*
X0331209Y0145424D01*
X0330442Y0145424D01*
X0331209Y0145424D02*
X0331976Y0146191D01*
X0331976Y0146959D01*
X0331209Y0147726D01*
X0329674Y0147726D01*
X0328907Y0146959D01*
X0327372Y0146959D02*
X0327372Y0146191D01*
X0326605Y0145424D01*
X0327372Y0144657D01*
X0327372Y0143889D01*
X0326605Y0143122D01*
X0325070Y0143122D01*
X0324303Y0143889D01*
X0325838Y0145424D02*
X0326605Y0145424D01*
X0327372Y0146959D02*
X0326605Y0147726D01*
X0325070Y0147726D01*
X0324303Y0146959D01*
X0328907Y0143889D02*
X0329674Y0143122D01*
X0331209Y0143122D01*
X0331976Y0143889D01*
X0331976Y0166902D02*
X0328907Y0166902D01*
X0327372Y0166902D02*
X0325838Y0168436D01*
X0326605Y0168436D02*
X0324303Y0168436D01*
X0324303Y0166902D02*
X0324303Y0171505D01*
X0326605Y0171505D01*
X0327372Y0170738D01*
X0327372Y0169204D01*
X0326605Y0168436D01*
X0328907Y0169971D02*
X0330442Y0171505D01*
X0330442Y0166902D01*
X0333511Y0166902D02*
X0336580Y0169971D01*
X0336580Y0170738D01*
X0335813Y0171505D01*
X0334278Y0171505D01*
X0333511Y0170738D01*
X0333511Y0172650D02*
X0333511Y0177254D01*
X0331976Y0176486D02*
X0331976Y0175719D01*
X0331209Y0174952D01*
X0329674Y0174952D01*
X0328907Y0175719D01*
X0328907Y0176486D01*
X0329674Y0177254D01*
X0331209Y0177254D01*
X0331976Y0176486D01*
X0331209Y0174952D02*
X0331976Y0174184D01*
X0331976Y0173417D01*
X0331209Y0172650D01*
X0329674Y0172650D01*
X0328907Y0173417D01*
X0328907Y0174184D01*
X0329674Y0174952D01*
X0327372Y0172650D02*
X0324303Y0172650D01*
X0325838Y0172650D02*
X0325838Y0177254D01*
X0324303Y0175719D01*
X0315361Y0171505D02*
X0315361Y0166902D01*
X0316895Y0166902D02*
X0313826Y0166902D01*
X0312291Y0166902D02*
X0309222Y0166902D01*
X0307687Y0166902D02*
X0306153Y0168436D01*
X0306920Y0168436D02*
X0304618Y0168436D01*
X0304618Y0166902D02*
X0304618Y0171505D01*
X0306920Y0171505D01*
X0307687Y0170738D01*
X0307687Y0169204D01*
X0306920Y0168436D01*
X0309222Y0169971D02*
X0310757Y0171505D01*
X0310757Y0166902D01*
X0313826Y0169971D02*
X0315361Y0171505D01*
X0306703Y0173417D02*
X0305936Y0172650D01*
X0304401Y0172650D01*
X0303634Y0173417D01*
X0306703Y0176486D01*
X0306703Y0173417D01*
X0303634Y0173417D02*
X0303634Y0176486D01*
X0304401Y0177254D01*
X0305936Y0177254D01*
X0306703Y0176486D01*
X0333511Y0174184D02*
X0335813Y0175719D01*
X0333511Y0174184D02*
X0335813Y0172650D01*
X0336580Y0166902D02*
X0333511Y0166902D01*
X0329573Y0089294D02*
X0326504Y0089294D01*
X0329573Y0086224D01*
X0330340Y0086992D01*
X0330340Y0088526D01*
X0329573Y0089294D01*
X0326504Y0089294D02*
X0325736Y0088526D01*
X0325736Y0086992D01*
X0326504Y0086224D01*
X0329573Y0086224D01*
X0329573Y0084690D02*
X0330340Y0083922D01*
X0330340Y0081620D01*
X0325736Y0081620D01*
X0325736Y0083922D01*
X0326504Y0084690D01*
X0327271Y0084690D01*
X0328038Y0083922D01*
X0328038Y0081620D01*
X0328038Y0083922D02*
X0328806Y0084690D01*
X0329573Y0084690D01*
X0320498Y0083922D02*
X0320498Y0081620D01*
X0315894Y0081620D01*
X0315894Y0083922D01*
X0316661Y0084690D01*
X0317428Y0084690D01*
X0318196Y0083922D01*
X0318196Y0081620D01*
X0318196Y0083922D02*
X0318963Y0084690D01*
X0319730Y0084690D01*
X0320498Y0083922D01*
X0319730Y0086224D02*
X0316661Y0086224D01*
X0315894Y0086992D01*
X0315894Y0088526D01*
X0316661Y0089294D01*
X0319730Y0086224D01*
X0320498Y0086992D01*
X0320498Y0088526D01*
X0319730Y0089294D01*
X0316661Y0089294D01*
X0317428Y0075482D02*
X0320498Y0075482D01*
X0318196Y0075482D02*
X0318196Y0072412D01*
X0317428Y0072412D02*
X0315894Y0073947D01*
X0317428Y0075482D01*
X0317428Y0072412D02*
X0320498Y0072412D01*
X0319730Y0070878D02*
X0316661Y0070878D01*
X0315894Y0070111D01*
X0315894Y0067809D01*
X0320498Y0067809D01*
X0320498Y0070111D01*
X0319730Y0070878D01*
X0319730Y0066274D02*
X0320498Y0065507D01*
X0320498Y0063972D01*
X0319730Y0063205D01*
X0318196Y0063972D02*
X0317428Y0063205D01*
X0316661Y0063205D01*
X0315894Y0063972D01*
X0315894Y0065507D01*
X0316661Y0066274D01*
X0318196Y0065507D02*
X0318963Y0066274D01*
X0319730Y0066274D01*
X0318196Y0065507D02*
X0318196Y0063972D01*
X0325736Y0063972D02*
X0326504Y0063205D01*
X0327271Y0063205D01*
X0328038Y0063972D01*
X0328038Y0065507D01*
X0328806Y0066274D01*
X0329573Y0066274D01*
X0330340Y0065507D01*
X0330340Y0063972D01*
X0329573Y0063205D01*
X0325736Y0063972D02*
X0325736Y0065507D01*
X0326504Y0066274D01*
X0326504Y0067809D02*
X0329573Y0067809D01*
X0330340Y0068576D01*
X0330340Y0070111D01*
X0329573Y0070878D01*
X0330340Y0072412D02*
X0325736Y0072412D01*
X0326504Y0070878D02*
X0325736Y0070111D01*
X0325736Y0068576D01*
X0326504Y0067809D01*
X0330340Y0072412D02*
X0330340Y0075482D01*
X0336346Y0058601D02*
X0339415Y0055531D01*
X0340183Y0056299D01*
X0340183Y0057833D01*
X0339415Y0058601D01*
X0336346Y0058601D01*
X0335579Y0057833D01*
X0335579Y0056299D01*
X0336346Y0055531D01*
X0339415Y0055531D01*
X0339415Y0053997D02*
X0340183Y0053229D01*
X0340183Y0050928D01*
X0335579Y0050928D01*
X0335579Y0053229D01*
X0336346Y0053997D01*
X0337113Y0053997D01*
X0337881Y0053229D01*
X0337881Y0050928D01*
X0337881Y0053229D02*
X0338648Y0053997D01*
X0339415Y0053997D01*
X0345421Y0053229D02*
X0345421Y0051695D01*
X0346189Y0050928D01*
X0349258Y0050928D01*
X0346189Y0053997D01*
X0349258Y0053997D01*
X0350025Y0053229D01*
X0350025Y0051695D01*
X0349258Y0050928D01*
X0350025Y0049393D02*
X0346956Y0049393D01*
X0345421Y0047858D01*
X0346956Y0046324D01*
X0350025Y0046324D01*
X0347723Y0046324D02*
X0347723Y0049393D01*
X0345421Y0053229D02*
X0346189Y0053997D01*
X0355264Y0053229D02*
X0355264Y0051695D01*
X0356031Y0050928D01*
X0359100Y0050928D01*
X0356031Y0053997D01*
X0359100Y0053997D01*
X0359868Y0053229D01*
X0359868Y0051695D01*
X0359100Y0050928D01*
X0359868Y0049393D02*
X0356798Y0049393D01*
X0355264Y0047858D01*
X0356798Y0046324D01*
X0359868Y0046324D01*
X0357566Y0046324D02*
X0357566Y0049393D01*
X0355264Y0053229D02*
X0356031Y0053997D01*
X0340183Y0044789D02*
X0337881Y0042487D01*
X0338648Y0041720D02*
X0335579Y0044789D01*
X0335579Y0041720D02*
X0340183Y0041720D01*
X0340183Y0040185D02*
X0340183Y0037116D01*
X0335579Y0037116D01*
X0336346Y0035581D02*
X0335579Y0034814D01*
X0335579Y0033279D01*
X0336346Y0032512D01*
X0339415Y0032512D01*
X0340183Y0033279D01*
X0340183Y0034814D01*
X0339415Y0035581D01*
X0345421Y0035581D02*
X0345421Y0032512D01*
X0345421Y0034046D02*
X0350025Y0034046D01*
X0350025Y0037116D02*
X0346956Y0040185D01*
X0346956Y0037116D02*
X0350025Y0040185D01*
X0356798Y0040185D02*
X0359868Y0037116D01*
X0359868Y0035581D02*
X0358333Y0034046D01*
X0358333Y0034814D02*
X0358333Y0032512D01*
X0359868Y0032512D02*
X0355264Y0032512D01*
X0355264Y0034814D01*
X0356031Y0035581D01*
X0357566Y0035581D01*
X0358333Y0034814D01*
X0356798Y0037116D02*
X0359868Y0040185D01*
X0330340Y0039418D02*
X0330340Y0037883D01*
X0329573Y0037116D01*
X0326504Y0037116D01*
X0325736Y0037883D01*
X0325736Y0039418D01*
X0326504Y0040185D01*
X0329573Y0040185D01*
X0330340Y0039418D01*
X0330340Y0041720D02*
X0325736Y0041720D01*
X0327271Y0043254D01*
X0325736Y0044789D01*
X0330340Y0044789D01*
X0330340Y0046324D02*
X0330340Y0047858D01*
X0330340Y0047091D02*
X0325736Y0047091D01*
X0325736Y0046324D02*
X0325736Y0047858D01*
X0320498Y0047091D02*
X0320498Y0045556D01*
X0319730Y0044789D01*
X0316661Y0044789D01*
X0315894Y0045556D01*
X0315894Y0047091D01*
X0316661Y0047858D01*
X0319730Y0047858D01*
X0320498Y0047091D01*
X0320498Y0043254D02*
X0315894Y0043254D01*
X0317428Y0041720D01*
X0315894Y0040185D01*
X0320498Y0040185D01*
X0320498Y0038650D02*
X0320498Y0037116D01*
X0320498Y0037883D02*
X0315894Y0037883D01*
X0315894Y0037116D02*
X0315894Y0038650D01*
X0309671Y0038650D02*
X0305067Y0038650D01*
X0305067Y0037116D02*
X0305067Y0040185D01*
X0305067Y0041720D02*
X0309671Y0041720D01*
X0309671Y0044789D01*
X0307369Y0043254D02*
X0307369Y0041720D01*
X0305067Y0041720D02*
X0305067Y0044789D01*
X0305067Y0050928D02*
X0305067Y0053229D01*
X0305834Y0053997D01*
X0306602Y0053997D01*
X0307369Y0053229D01*
X0307369Y0050928D01*
X0307369Y0053229D02*
X0308136Y0053997D01*
X0308904Y0053997D01*
X0309671Y0053229D01*
X0309671Y0050928D01*
X0305067Y0050928D01*
X0305834Y0055531D02*
X0305067Y0056299D01*
X0305067Y0057833D01*
X0305834Y0058601D01*
X0308904Y0055531D01*
X0309671Y0056299D01*
X0309671Y0057833D01*
X0308904Y0058601D01*
X0305834Y0058601D01*
X0305834Y0055531D02*
X0308904Y0055531D01*
X0315894Y0057066D02*
X0320498Y0053997D01*
X0325736Y0057066D02*
X0330340Y0053997D01*
X0329573Y0035581D02*
X0330340Y0034814D01*
X0330340Y0033279D01*
X0329573Y0032512D01*
X0328038Y0033279D02*
X0328038Y0034814D01*
X0328806Y0035581D01*
X0329573Y0035581D01*
X0328038Y0033279D02*
X0327271Y0032512D01*
X0326504Y0032512D01*
X0325736Y0033279D01*
X0325736Y0034814D01*
X0326504Y0035581D01*
X0320498Y0034814D02*
X0320498Y0033279D01*
X0319730Y0032512D01*
X0318196Y0033279D02*
X0318196Y0034814D01*
X0318963Y0035581D01*
X0319730Y0035581D01*
X0320498Y0034814D01*
X0318196Y0033279D02*
X0317428Y0032512D01*
X0316661Y0032512D01*
X0315894Y0033279D01*
X0315894Y0034814D01*
X0316661Y0035581D01*
X0309671Y0034814D02*
X0309671Y0033279D01*
X0308904Y0032512D01*
X0307369Y0033279D02*
X0307369Y0034814D01*
X0308136Y0035581D01*
X0308904Y0035581D01*
X0309671Y0034814D01*
X0307369Y0033279D02*
X0306602Y0032512D01*
X0305834Y0032512D01*
X0305067Y0033279D01*
X0305067Y0034814D01*
X0305834Y0035581D01*
X0289986Y0034613D02*
X0289986Y0033846D01*
X0289219Y0033846D01*
X0289219Y0034613D01*
X0289986Y0034613D01*
X0289219Y0036148D02*
X0289986Y0036915D01*
X0289986Y0038450D01*
X0289219Y0039217D01*
X0288451Y0039217D01*
X0287684Y0038450D01*
X0287684Y0037682D01*
X0287684Y0038450D02*
X0286917Y0039217D01*
X0286149Y0039217D01*
X0285382Y0038450D01*
X0285382Y0036915D01*
X0286149Y0036148D01*
X0286149Y0032311D02*
X0286917Y0032311D01*
X0287684Y0031544D01*
X0288451Y0032311D01*
X0289219Y0032311D01*
X0289986Y0031544D01*
X0289986Y0030009D01*
X0289219Y0029242D01*
X0287684Y0030776D02*
X0287684Y0031544D01*
X0286149Y0032311D02*
X0285382Y0031544D01*
X0285382Y0030009D01*
X0286149Y0029242D01*
X0287684Y0027707D02*
X0287684Y0024638D01*
X0286149Y0026172D02*
X0289219Y0026172D01*
X0279159Y0030009D02*
X0279159Y0031544D01*
X0278392Y0032311D01*
X0276857Y0032311D01*
X0276090Y0031544D01*
X0276090Y0030776D01*
X0276857Y0029242D01*
X0274555Y0029242D01*
X0274555Y0032311D01*
X0274555Y0033846D02*
X0277624Y0033846D01*
X0279159Y0035380D01*
X0277624Y0036915D01*
X0274555Y0036915D01*
X0269317Y0036148D02*
X0269317Y0033846D01*
X0264713Y0033846D01*
X0264713Y0036148D01*
X0265480Y0036915D01*
X0268549Y0036915D01*
X0269317Y0036148D01*
X0269317Y0032311D02*
X0264713Y0032311D01*
X0264713Y0029242D02*
X0269317Y0032311D01*
X0269317Y0029242D02*
X0264713Y0029242D01*
X0265480Y0027707D02*
X0264713Y0026940D01*
X0264713Y0025405D01*
X0265480Y0024638D01*
X0268549Y0024638D01*
X0269317Y0025405D01*
X0269317Y0026940D01*
X0268549Y0027707D01*
X0267015Y0027707D01*
X0267015Y0026172D01*
X0275322Y0026172D02*
X0278392Y0026172D01*
X0276857Y0024638D02*
X0276857Y0027707D01*
X0278392Y0029242D02*
X0279159Y0030009D01*
X0285382Y0040752D02*
X0288451Y0040752D01*
X0289986Y0042286D01*
X0288451Y0043821D01*
X0285382Y0043821D01*
X0188234Y0047078D02*
X0183630Y0047078D01*
X0185932Y0044776D01*
X0185932Y0047845D01*
X0187467Y0049380D02*
X0188234Y0049380D01*
X0187467Y0049380D02*
X0184397Y0052449D01*
X0183630Y0052449D01*
X0183630Y0049380D01*
X0181187Y0051448D02*
X0181187Y0052983D01*
X0180419Y0053750D01*
X0180419Y0055285D02*
X0181187Y0056052D01*
X0181187Y0057587D01*
X0180419Y0058354D01*
X0179652Y0058354D01*
X0178885Y0057587D01*
X0178885Y0055285D01*
X0180419Y0055285D01*
X0178885Y0055285D02*
X0177350Y0056820D01*
X0176583Y0058354D01*
X0183630Y0056285D02*
X0184397Y0057053D01*
X0187467Y0053983D01*
X0188234Y0054751D01*
X0188234Y0056285D01*
X0187467Y0057053D01*
X0184397Y0057053D01*
X0183630Y0056285D02*
X0183630Y0054751D01*
X0184397Y0053983D01*
X0187467Y0053983D01*
X0181187Y0051448D02*
X0180419Y0050681D01*
X0177350Y0050681D01*
X0176583Y0051448D01*
X0176583Y0052983D01*
X0177350Y0053750D01*
X0185165Y0058587D02*
X0185165Y0060889D01*
X0185932Y0061657D01*
X0188234Y0061657D01*
X0188234Y0058587D02*
X0185165Y0058587D01*
X0159732Y0045738D02*
X0159732Y0044971D01*
X0158965Y0044204D01*
X0159732Y0043436D01*
X0159732Y0042669D01*
X0158965Y0041902D01*
X0157430Y0041902D01*
X0156663Y0042669D01*
X0155128Y0042669D02*
X0154361Y0041902D01*
X0152826Y0041902D01*
X0152059Y0042669D01*
X0152059Y0045738D01*
X0152826Y0046505D01*
X0154361Y0046505D01*
X0155128Y0045738D01*
X0156663Y0045738D02*
X0157430Y0046505D01*
X0158965Y0046505D01*
X0159732Y0045738D01*
X0158965Y0044204D02*
X0158198Y0044204D01*
X0151224Y0044046D02*
X0151224Y0041744D01*
X0151224Y0044046D02*
X0150456Y0044813D01*
X0148154Y0044813D01*
X0148154Y0041744D01*
X0146620Y0042511D02*
X0145852Y0041744D01*
X0144318Y0041744D01*
X0143550Y0042511D01*
X0146620Y0045581D01*
X0146620Y0042511D01*
X0143550Y0042511D02*
X0143550Y0045581D01*
X0144318Y0046348D01*
X0145852Y0046348D01*
X0146620Y0045581D01*
X0142016Y0045581D02*
X0138946Y0042511D01*
X0139714Y0041744D01*
X0141248Y0041744D01*
X0142016Y0042511D01*
X0142016Y0045581D01*
X0141248Y0046348D01*
X0139714Y0046348D01*
X0138946Y0045581D01*
X0138946Y0042511D01*
X0137412Y0041744D02*
X0134343Y0041744D01*
X0135877Y0041744D02*
X0135877Y0046348D01*
X0134343Y0044813D01*
X0143550Y0053989D02*
X0143550Y0058593D01*
X0145852Y0058593D01*
X0146620Y0057826D01*
X0146620Y0056291D01*
X0145852Y0055524D01*
X0143550Y0055524D01*
X0142016Y0055524D02*
X0138946Y0055524D01*
X0142016Y0058593D01*
X0142016Y0059360D01*
X0141248Y0060128D01*
X0139714Y0060128D01*
X0138946Y0059360D01*
X0139714Y0061587D02*
X0138946Y0062354D01*
X0139714Y0061587D02*
X0141248Y0061587D01*
X0142016Y0062354D01*
X0142016Y0063889D01*
X0141248Y0064656D01*
X0140481Y0064656D01*
X0138946Y0063889D01*
X0138946Y0066191D01*
X0142016Y0066191D01*
X0137412Y0065423D02*
X0136644Y0066191D01*
X0135110Y0066191D01*
X0134343Y0065423D01*
X0134343Y0062354D01*
X0135110Y0061587D01*
X0136644Y0061587D01*
X0137412Y0062354D01*
X0135877Y0060128D02*
X0135877Y0055524D01*
X0134343Y0055524D02*
X0137412Y0055524D01*
X0134343Y0058593D02*
X0135877Y0060128D01*
X0159243Y0031899D02*
X0157709Y0030365D01*
X0159243Y0031899D02*
X0159243Y0027295D01*
X0157709Y0027295D02*
X0160778Y0027295D01*
X0162313Y0028063D02*
X0165382Y0031132D01*
X0165382Y0028063D01*
X0164615Y0027295D01*
X0163080Y0027295D01*
X0162313Y0028063D01*
X0162313Y0031132D01*
X0163080Y0031899D01*
X0164615Y0031899D01*
X0165382Y0031132D01*
X0166917Y0030365D02*
X0166917Y0028063D01*
X0167684Y0027295D01*
X0169986Y0027295D01*
X0169986Y0030365D01*
X0171488Y0030443D02*
X0171488Y0027374D01*
X0172255Y0026606D01*
X0173790Y0026606D01*
X0174557Y0027374D01*
X0176092Y0027374D02*
X0176092Y0026606D01*
X0176092Y0027374D02*
X0179161Y0030443D01*
X0179161Y0031210D01*
X0176092Y0031210D01*
X0174557Y0030443D02*
X0173790Y0031210D01*
X0172255Y0031210D01*
X0171488Y0030443D01*
D12*
X0330690Y0097422D02*
X0331658Y0097422D01*
X0331174Y0097422D02*
X0331174Y0100325D01*
X0330690Y0100325D02*
X0331658Y0100325D01*
X0332655Y0099357D02*
X0334106Y0099357D01*
X0334589Y0098874D01*
X0334589Y0097422D01*
X0336085Y0097906D02*
X0336569Y0097422D01*
X0336085Y0097906D02*
X0336085Y0099841D01*
X0335601Y0099357D02*
X0336569Y0099357D01*
X0332655Y0099357D02*
X0332655Y0097422D01*
X0340512Y0097906D02*
X0340512Y0099841D01*
X0340996Y0100325D01*
X0341963Y0100325D01*
X0342447Y0099841D01*
X0343458Y0100325D02*
X0343458Y0097422D01*
X0345393Y0097422D01*
X0346405Y0097422D02*
X0346405Y0100325D01*
X0346889Y0098874D02*
X0348340Y0097422D01*
X0346405Y0098390D02*
X0348340Y0100325D01*
X0342447Y0097906D02*
X0341963Y0097422D01*
X0340996Y0097422D01*
X0340512Y0097906D01*
X0366123Y0098857D02*
X0366123Y0096922D01*
X0366607Y0096438D01*
X0367574Y0096438D01*
X0368058Y0096922D01*
X0369070Y0096438D02*
X0371005Y0096438D01*
X0372016Y0096438D02*
X0372016Y0099341D01*
X0372500Y0097889D02*
X0373951Y0096438D01*
X0372016Y0097406D02*
X0373951Y0099341D01*
X0369070Y0099341D02*
X0369070Y0096438D01*
X0368058Y0098857D02*
X0367574Y0099341D01*
X0366607Y0099341D01*
X0366123Y0098857D01*
X0366123Y0100375D02*
X0366123Y0103278D01*
X0367091Y0102310D01*
X0368058Y0103278D01*
X0368058Y0100375D01*
X0367591Y0118092D02*
X0367107Y0118575D01*
X0367591Y0118092D02*
X0368559Y0118092D01*
X0369042Y0118575D01*
X0369042Y0119059D01*
X0368559Y0119543D01*
X0367591Y0119543D01*
X0367107Y0120027D01*
X0367107Y0120510D01*
X0367591Y0120994D01*
X0368559Y0120994D01*
X0369042Y0120510D01*
X0370054Y0120510D02*
X0370538Y0120994D01*
X0371505Y0120994D01*
X0371989Y0120510D01*
X0370054Y0118575D01*
X0370538Y0118092D01*
X0371505Y0118092D01*
X0371989Y0118575D01*
X0371989Y0120510D01*
X0370054Y0120510D02*
X0370054Y0118575D01*
X0351266Y0119059D02*
X0349331Y0119059D01*
X0349331Y0118575D02*
X0349331Y0119543D01*
X0349814Y0120027D01*
X0350782Y0120027D01*
X0351266Y0119543D01*
X0351266Y0119059D01*
X0350782Y0118092D02*
X0349814Y0118092D01*
X0349331Y0118575D01*
X0348334Y0118092D02*
X0347366Y0118092D01*
X0347850Y0118092D02*
X0347850Y0120994D01*
X0347366Y0120994D01*
X0346355Y0119543D02*
X0345871Y0120027D01*
X0344420Y0120027D01*
X0344420Y0120994D02*
X0344420Y0118092D01*
X0345871Y0118092D01*
X0346355Y0118575D01*
X0346355Y0119543D01*
X0343408Y0119543D02*
X0343408Y0118092D01*
X0341957Y0118092D01*
X0341473Y0118575D01*
X0341957Y0119059D01*
X0343408Y0119059D01*
X0343408Y0119543D02*
X0342924Y0120027D01*
X0341957Y0120027D01*
X0340462Y0119543D02*
X0340462Y0118092D01*
X0340462Y0119543D02*
X0339978Y0120027D01*
X0338527Y0120027D01*
X0338527Y0118092D01*
X0337515Y0118092D02*
X0335580Y0118092D01*
X0335580Y0120994D01*
X0337515Y0120994D01*
X0336548Y0119543D02*
X0335580Y0119543D01*
X0331622Y0120027D02*
X0330171Y0120027D01*
X0329687Y0119543D01*
X0329687Y0118575D01*
X0330171Y0118092D01*
X0331622Y0118092D01*
X0331622Y0120994D01*
X0328676Y0119543D02*
X0328192Y0120027D01*
X0327224Y0120027D01*
X0327224Y0119059D02*
X0328676Y0119059D01*
X0328676Y0119543D02*
X0328676Y0118092D01*
X0327224Y0118092D01*
X0326741Y0118575D01*
X0327224Y0119059D01*
X0325729Y0119059D02*
X0323794Y0119059D01*
X0323794Y0118575D02*
X0323794Y0119543D01*
X0324278Y0120027D01*
X0325245Y0120027D01*
X0325729Y0119543D01*
X0325729Y0119059D01*
X0325245Y0118092D02*
X0324278Y0118092D01*
X0323794Y0118575D01*
X0322783Y0118092D02*
X0321815Y0119059D01*
X0322299Y0119059D02*
X0320848Y0119059D01*
X0320848Y0118092D02*
X0320848Y0120994D01*
X0322299Y0120994D01*
X0322783Y0120510D01*
X0322783Y0119543D01*
X0322299Y0119059D01*
X0338064Y0147619D02*
X0339031Y0147619D01*
X0339515Y0148103D01*
X0339515Y0149071D01*
X0338547Y0149071D01*
X0337580Y0150038D02*
X0337580Y0148103D01*
X0338064Y0147619D01*
X0340526Y0147619D02*
X0340526Y0150522D01*
X0342461Y0147619D01*
X0342461Y0150522D01*
X0343473Y0150522D02*
X0344924Y0150522D01*
X0345408Y0150038D01*
X0345408Y0148103D01*
X0344924Y0147619D01*
X0343473Y0147619D01*
X0343473Y0150522D01*
X0339515Y0150038D02*
X0339031Y0150522D01*
X0338064Y0150522D01*
X0337580Y0150038D01*
X0342985Y0157462D02*
X0342501Y0157946D01*
X0342985Y0157462D02*
X0343952Y0157462D01*
X0344436Y0157946D01*
X0344436Y0158429D01*
X0343952Y0158913D01*
X0342985Y0158913D01*
X0342501Y0159397D01*
X0342501Y0159881D01*
X0342985Y0160364D01*
X0343952Y0160364D01*
X0344436Y0159881D01*
X0345448Y0159397D02*
X0346415Y0160364D01*
X0346415Y0157462D01*
X0345448Y0157462D02*
X0347383Y0157462D01*
X0366123Y0149071D02*
X0368058Y0149071D01*
X0369070Y0149071D02*
X0370037Y0149554D01*
X0370521Y0149554D01*
X0371005Y0149071D01*
X0371005Y0148103D01*
X0370521Y0147619D01*
X0369553Y0147619D01*
X0369070Y0148103D01*
X0369070Y0149071D02*
X0369070Y0150522D01*
X0371005Y0150522D01*
X0372016Y0150522D02*
X0372016Y0148587D01*
X0372984Y0147619D01*
X0373951Y0148587D01*
X0373951Y0150522D01*
X0367091Y0150038D02*
X0367091Y0148103D01*
X0358186Y0173227D02*
X0358669Y0173710D01*
X0358669Y0176129D01*
X0357218Y0176129D01*
X0356734Y0175645D01*
X0356734Y0174678D01*
X0357218Y0174194D01*
X0358669Y0174194D01*
X0358186Y0173227D02*
X0357702Y0173227D01*
X0355737Y0174194D02*
X0354770Y0174194D01*
X0355254Y0174194D02*
X0355254Y0176129D01*
X0354770Y0176129D01*
X0353766Y0176129D02*
X0353282Y0176129D01*
X0352315Y0175162D01*
X0352315Y0176129D02*
X0352315Y0174194D01*
X0351318Y0174194D02*
X0350834Y0174678D01*
X0350834Y0176613D01*
X0350350Y0176129D02*
X0351318Y0176129D01*
X0349339Y0175645D02*
X0347404Y0175645D01*
X0346392Y0174678D02*
X0346392Y0176613D01*
X0345908Y0177097D01*
X0344457Y0177097D01*
X0344457Y0174194D01*
X0345908Y0174194D01*
X0346392Y0174678D01*
X0343446Y0177097D02*
X0341511Y0174194D01*
X0340499Y0174194D02*
X0340499Y0176129D01*
X0339532Y0177097D01*
X0338564Y0176129D01*
X0338564Y0174194D01*
X0338564Y0175645D02*
X0340499Y0175645D01*
X0355254Y0177097D02*
X0355254Y0177580D01*
X0224345Y0146585D02*
X0222410Y0146585D01*
X0223377Y0146585D02*
X0223377Y0143682D01*
X0221398Y0144166D02*
X0221398Y0144650D01*
X0220915Y0145134D01*
X0219947Y0145134D01*
X0219463Y0145617D01*
X0219463Y0146101D01*
X0219947Y0146585D01*
X0220915Y0146585D01*
X0221398Y0146101D01*
X0221398Y0144166D02*
X0220915Y0143682D01*
X0219947Y0143682D01*
X0219463Y0144166D01*
X0217484Y0143682D02*
X0217484Y0146585D01*
X0216517Y0146585D02*
X0218452Y0146585D01*
X0174148Y0146585D02*
X0172213Y0146585D01*
X0173181Y0146585D02*
X0173181Y0143682D01*
X0171202Y0144166D02*
X0170718Y0143682D01*
X0169750Y0143682D01*
X0169267Y0144166D01*
X0169750Y0145134D02*
X0170718Y0145134D01*
X0171202Y0144650D01*
X0171202Y0144166D01*
X0169750Y0145134D02*
X0169267Y0145617D01*
X0169267Y0146101D01*
X0169750Y0146585D01*
X0170718Y0146585D01*
X0171202Y0146101D01*
X0168255Y0146101D02*
X0167771Y0146585D01*
X0166320Y0146585D01*
X0166320Y0143682D01*
X0166320Y0144650D02*
X0167771Y0144650D01*
X0168255Y0145134D01*
X0168255Y0146101D01*
X0167288Y0144650D02*
X0168255Y0143682D01*
D13*
X0275941Y0130805D03*
X0276041Y0130905D03*
X0276141Y0131005D03*
X0276241Y0131105D03*
X0276341Y0131205D03*
X0296141Y0131305D03*
X0296241Y0131205D03*
X0296341Y0131105D03*
X0296441Y0131005D03*
X0296141Y0124105D03*
X0296141Y0123705D03*
X0296141Y0123605D03*
X0296241Y0123205D03*
X0296441Y0113105D03*
X0296341Y0113005D03*
X0296241Y0112905D03*
X0296141Y0112805D03*
X0286241Y0107305D03*
X0283841Y0107805D03*
X0276241Y0113005D03*
X0276141Y0113105D03*
X0276041Y0113205D03*
X0275941Y0113305D03*
D14*
X0277841Y0117505D03*
X0277841Y0117605D03*
X0277441Y0118505D03*
X0277441Y0118605D03*
X0277441Y0118705D03*
X0277341Y0118905D03*
X0277341Y0119005D03*
X0280941Y0125705D03*
X0280541Y0126005D03*
X0279741Y0129705D03*
X0279841Y0129805D03*
X0279241Y0133505D03*
X0286241Y0136705D03*
X0290241Y0131905D03*
X0290441Y0131805D03*
X0291741Y0130805D03*
X0291841Y0130705D03*
X0291941Y0130605D03*
X0286241Y0107405D03*
D15*
X0286291Y0107505D03*
X0286191Y0109605D03*
X0281491Y0113205D03*
X0279091Y0127905D03*
X0286291Y0136605D03*
D16*
X0286241Y0136505D03*
X0286241Y0107605D03*
D17*
X0286241Y0107705D03*
X0281341Y0114205D03*
X0286241Y0136405D03*
D18*
X0285691Y0135705D03*
X0286991Y0135605D03*
X0286991Y0135505D03*
X0287491Y0135505D03*
X0287491Y0135405D03*
X0287491Y0135305D03*
X0276791Y0126105D03*
X0278291Y0123705D03*
X0278991Y0123005D03*
X0278991Y0122905D03*
X0279091Y0120005D03*
X0279091Y0119805D03*
X0282691Y0116505D03*
X0284591Y0116605D03*
X0285091Y0113805D03*
X0287191Y0113805D03*
X0288591Y0113605D03*
X0290191Y0113505D03*
X0290691Y0113705D03*
X0291191Y0113605D03*
X0292491Y0110805D03*
X0292591Y0110705D03*
X0292991Y0110805D03*
X0291291Y0109705D03*
X0288291Y0108905D03*
X0288291Y0108805D03*
X0285891Y0107805D03*
X0284791Y0109205D03*
X0284791Y0109305D03*
X0283991Y0108605D03*
X0283591Y0108905D03*
X0283591Y0109005D03*
X0283691Y0109105D03*
X0283691Y0109205D03*
X0283691Y0109305D03*
X0282991Y0109405D03*
X0282391Y0108905D03*
X0281191Y0108905D03*
X0281191Y0109005D03*
X0280791Y0109605D03*
X0280791Y0109905D03*
X0279391Y0110605D03*
X0279291Y0111005D03*
X0278991Y0110505D03*
X0278391Y0111605D03*
X0278091Y0111905D03*
X0277991Y0111805D03*
X0277491Y0112305D03*
X0294491Y0117005D03*
X0285791Y0121105D03*
X0295191Y0112205D03*
X0295291Y0111905D03*
X0295791Y0111905D03*
X0295191Y0111105D03*
D19*
X0295691Y0111005D03*
X0295991Y0111205D03*
X0296691Y0112005D03*
X0295091Y0110505D03*
X0294991Y0110405D03*
X0294291Y0112305D03*
X0293091Y0111505D03*
X0292891Y0111405D03*
X0292791Y0111305D03*
X0292591Y0111205D03*
X0292391Y0111105D03*
X0292791Y0110505D03*
X0292291Y0109605D03*
X0290491Y0109505D03*
X0287391Y0108705D03*
X0287391Y0108605D03*
X0286591Y0107805D03*
X0284291Y0108305D03*
X0284391Y0108905D03*
X0283191Y0108705D03*
X0283191Y0108605D03*
X0283191Y0108505D03*
X0283091Y0108405D03*
X0283091Y0108305D03*
X0279791Y0109805D03*
X0279791Y0111305D03*
X0279291Y0111605D03*
X0277391Y0110505D03*
X0277291Y0110605D03*
X0277191Y0110705D03*
X0276991Y0110805D03*
X0276091Y0111705D03*
X0287191Y0114905D03*
X0288891Y0134905D03*
X0290091Y0135005D03*
X0286291Y0136205D03*
X0283891Y0135705D03*
D20*
X0279641Y0134405D03*
X0275641Y0130405D03*
X0275541Y0130305D03*
X0275441Y0130205D03*
X0276441Y0124605D03*
X0276241Y0123605D03*
X0280941Y0125305D03*
X0295741Y0125905D03*
X0295741Y0126005D03*
X0295841Y0125705D03*
X0295941Y0125405D03*
X0295941Y0125305D03*
X0296041Y0125005D03*
X0296141Y0124605D03*
X0296141Y0124505D03*
X0296141Y0124405D03*
X0296341Y0123105D03*
X0297141Y0130105D03*
X0297041Y0130305D03*
X0296941Y0130405D03*
X0296841Y0130505D03*
X0296741Y0130605D03*
X0297141Y0114005D03*
X0297041Y0113805D03*
X0296941Y0113705D03*
X0296841Y0113605D03*
X0296741Y0113505D03*
X0289341Y0109805D03*
X0288841Y0107805D03*
X0275641Y0113705D03*
X0275541Y0113805D03*
X0275441Y0113905D03*
D21*
X0275141Y0114305D03*
X0275041Y0114505D03*
X0274941Y0114605D03*
X0274841Y0114705D03*
X0274841Y0114805D03*
X0274741Y0114905D03*
X0274641Y0115105D03*
X0283241Y0107905D03*
X0289541Y0108005D03*
X0297441Y0114405D03*
X0297541Y0114505D03*
X0297641Y0114705D03*
X0297741Y0114805D03*
X0297841Y0115005D03*
X0296441Y0123005D03*
X0295641Y0126405D03*
X0295641Y0126505D03*
X0295141Y0127505D03*
X0297841Y0129105D03*
X0297741Y0129305D03*
X0297641Y0129405D03*
X0297541Y0129605D03*
X0297441Y0129705D03*
X0289141Y0134305D03*
X0290141Y0135905D03*
X0275041Y0129605D03*
X0274941Y0129505D03*
X0274841Y0129405D03*
X0274841Y0129305D03*
X0274741Y0129205D03*
X0274641Y0129005D03*
X0276241Y0124305D03*
D22*
X0277541Y0124905D03*
X0280441Y0124605D03*
X0283541Y0125405D03*
X0283641Y0125305D03*
X0283841Y0125205D03*
X0288341Y0125205D03*
X0288541Y0125305D03*
X0288641Y0125405D03*
X0289441Y0126005D03*
X0289541Y0126105D03*
X0289541Y0126205D03*
X0289641Y0126305D03*
X0285941Y0119205D03*
X0287141Y0114605D03*
X0287141Y0114505D03*
X0287341Y0114205D03*
X0287441Y0114005D03*
X0287541Y0113905D03*
X0287741Y0113605D03*
X0287841Y0113505D03*
X0293641Y0111105D03*
X0294141Y0111405D03*
X0294141Y0111505D03*
X0294441Y0111005D03*
X0294941Y0111305D03*
X0294841Y0111705D03*
X0294741Y0111805D03*
X0292941Y0110705D03*
X0291641Y0110005D03*
X0289641Y0108605D03*
X0288941Y0108705D03*
X0288841Y0108905D03*
X0288841Y0109005D03*
X0288741Y0109205D03*
X0286041Y0109005D03*
X0286041Y0108905D03*
X0286041Y0108805D03*
X0285941Y0108605D03*
X0285841Y0108405D03*
X0285841Y0108305D03*
X0285241Y0108105D03*
X0285241Y0108005D03*
X0285241Y0107905D03*
X0285341Y0108805D03*
X0285341Y0108905D03*
X0283041Y0109105D03*
X0282341Y0109205D03*
X0281341Y0109405D03*
X0281341Y0109905D03*
X0279341Y0110705D03*
X0279341Y0110805D03*
X0278741Y0111105D03*
X0278441Y0110605D03*
X0278041Y0111005D03*
X0277541Y0112005D03*
X0278941Y0110205D03*
X0278941Y0110105D03*
X0296041Y0119705D03*
X0287141Y0134905D03*
X0286441Y0135305D03*
X0286441Y0135405D03*
X0285241Y0136005D03*
X0284941Y0135205D03*
X0284941Y0135105D03*
X0284941Y0135005D03*
X0282741Y0134605D03*
X0282441Y0135405D03*
X0288041Y0135405D03*
X0288041Y0135505D03*
X0288041Y0135605D03*
X0288041Y0135705D03*
X0288041Y0135805D03*
X0288141Y0136005D03*
X0288741Y0135705D03*
X0288841Y0135805D03*
D23*
X0288791Y0135005D03*
X0286291Y0136005D03*
X0285791Y0134905D03*
X0284991Y0135505D03*
X0284991Y0135605D03*
X0284991Y0135705D03*
X0282391Y0135505D03*
X0281791Y0135005D03*
X0281791Y0134905D03*
X0281891Y0134605D03*
X0281891Y0134505D03*
X0290091Y0128505D03*
X0289191Y0125705D03*
X0287391Y0124805D03*
X0284791Y0124805D03*
X0286091Y0119105D03*
X0287191Y0116105D03*
X0287191Y0113005D03*
X0285091Y0113005D03*
X0284991Y0112905D03*
X0285991Y0109205D03*
X0286591Y0107905D03*
X0288391Y0108105D03*
X0290591Y0108605D03*
X0290591Y0108705D03*
X0290591Y0108805D03*
X0290591Y0108905D03*
X0290591Y0109005D03*
X0290591Y0109105D03*
X0290591Y0109205D03*
X0291591Y0109005D03*
X0293991Y0110405D03*
X0294391Y0112505D03*
X0294491Y0112605D03*
X0296691Y0111905D03*
X0290791Y0113505D03*
X0282291Y0109405D03*
X0281491Y0109105D03*
X0280491Y0109305D03*
X0278391Y0110705D03*
X0278691Y0111305D03*
X0278091Y0112505D03*
X0277991Y0112605D03*
X0277891Y0112705D03*
D24*
X0277491Y0112105D03*
X0281391Y0110005D03*
X0281391Y0109305D03*
X0281691Y0108905D03*
X0282291Y0109305D03*
X0281991Y0109605D03*
X0283091Y0109205D03*
X0284291Y0109105D03*
X0284491Y0108205D03*
X0285891Y0108505D03*
X0287491Y0108005D03*
X0287491Y0107905D03*
X0288391Y0108305D03*
X0288791Y0109105D03*
X0288691Y0109305D03*
X0289491Y0109305D03*
X0289691Y0108705D03*
X0291491Y0110205D03*
X0291591Y0110105D03*
X0291791Y0109905D03*
X0293291Y0110005D03*
X0293391Y0109905D03*
X0294591Y0110905D03*
X0294891Y0111405D03*
X0294691Y0111905D03*
X0288491Y0113505D03*
X0287291Y0112505D03*
X0286091Y0112505D03*
X0284991Y0112505D03*
X0287291Y0116205D03*
X0286091Y0118805D03*
X0286091Y0118905D03*
X0285891Y0119305D03*
X0285891Y0119405D03*
X0285791Y0119505D03*
X0286091Y0124505D03*
X0287991Y0125005D03*
X0288191Y0125105D03*
X0289291Y0125805D03*
X0289391Y0125905D03*
X0289991Y0127305D03*
X0284191Y0125005D03*
X0283991Y0125105D03*
X0277591Y0124805D03*
X0281891Y0134405D03*
X0281791Y0135105D03*
X0282791Y0134505D03*
X0284191Y0134705D03*
X0284191Y0134805D03*
X0285291Y0136105D03*
X0286391Y0135605D03*
X0286391Y0135505D03*
X0287091Y0134805D03*
X0287391Y0136105D03*
X0288691Y0135205D03*
X0289191Y0134705D03*
X0289391Y0135505D03*
D25*
X0289991Y0136005D03*
X0291191Y0135505D03*
X0292491Y0134805D03*
X0286091Y0134705D03*
X0282791Y0136105D03*
X0287591Y0128205D03*
X0295491Y0127105D03*
X0298591Y0127705D03*
X0298691Y0127505D03*
X0298791Y0127305D03*
X0298791Y0127205D03*
X0298891Y0127105D03*
X0298891Y0127005D03*
X0298891Y0126905D03*
X0298991Y0126805D03*
X0298991Y0126705D03*
X0299091Y0126505D03*
X0299091Y0126405D03*
X0299191Y0126205D03*
X0299191Y0117905D03*
X0299091Y0117605D03*
X0298991Y0117405D03*
X0298991Y0117305D03*
X0298891Y0117105D03*
X0298891Y0117005D03*
X0298791Y0116905D03*
X0298791Y0116805D03*
X0298691Y0116605D03*
X0298591Y0116405D03*
X0296391Y0112605D03*
X0293391Y0113905D03*
X0293291Y0113805D03*
X0286691Y0109305D03*
X0289391Y0107905D03*
X0273991Y0116305D03*
X0273891Y0116505D03*
X0273791Y0116705D03*
X0273791Y0116805D03*
X0273691Y0116905D03*
X0273691Y0117005D03*
X0273591Y0117205D03*
X0273591Y0117305D03*
X0273491Y0117505D03*
X0273391Y0117805D03*
X0273291Y0118105D03*
X0273291Y0126005D03*
X0273391Y0126305D03*
X0273491Y0126605D03*
X0273591Y0126805D03*
X0273591Y0126905D03*
X0273691Y0127105D03*
X0273691Y0127205D03*
X0273791Y0127305D03*
X0273791Y0127405D03*
X0273891Y0127605D03*
X0273991Y0127805D03*
D26*
X0276091Y0125205D03*
X0275991Y0124805D03*
X0279991Y0134905D03*
X0281791Y0135805D03*
X0290991Y0135705D03*
X0292391Y0135005D03*
X0296791Y0120905D03*
X0296791Y0120805D03*
X0296791Y0120705D03*
X0296191Y0118305D03*
X0296191Y0118205D03*
X0296191Y0118105D03*
X0295491Y0116605D03*
X0295491Y0116505D03*
X0295191Y0116105D03*
X0294391Y0114805D03*
X0294291Y0114705D03*
X0282591Y0108005D03*
X0276091Y0112505D03*
D27*
X0277041Y0111805D03*
X0277541Y0111905D03*
X0277841Y0111605D03*
X0277941Y0111705D03*
X0278141Y0112005D03*
X0278041Y0111105D03*
X0279341Y0110905D03*
X0280741Y0109805D03*
X0281141Y0108805D03*
X0282341Y0108805D03*
X0282341Y0108705D03*
X0283141Y0109005D03*
X0283541Y0108805D03*
X0283641Y0109405D03*
X0282541Y0109605D03*
X0282541Y0109705D03*
X0284741Y0109105D03*
X0284641Y0108705D03*
X0284641Y0108605D03*
X0284641Y0108105D03*
X0284641Y0108005D03*
X0285141Y0108405D03*
X0285841Y0108205D03*
X0285841Y0108105D03*
X0285841Y0108005D03*
X0286541Y0108505D03*
X0286541Y0108605D03*
X0286541Y0108705D03*
X0288341Y0108705D03*
X0289041Y0108405D03*
X0289141Y0108305D03*
X0289141Y0108205D03*
X0289541Y0109405D03*
X0291341Y0109505D03*
X0291341Y0109605D03*
X0292141Y0109305D03*
X0292241Y0109205D03*
X0293641Y0111205D03*
X0294141Y0111305D03*
X0294241Y0111605D03*
X0295341Y0112005D03*
X0290641Y0113605D03*
X0287341Y0116405D03*
X0286141Y0116405D03*
X0286141Y0116505D03*
X0286141Y0116605D03*
X0286141Y0116705D03*
X0286141Y0116805D03*
X0286141Y0116905D03*
X0286141Y0117005D03*
X0286141Y0117105D03*
X0286141Y0117205D03*
X0286141Y0117305D03*
X0286141Y0117405D03*
X0286141Y0117505D03*
X0286141Y0117605D03*
X0286141Y0117705D03*
X0286141Y0117805D03*
X0286141Y0117905D03*
X0286141Y0118005D03*
X0286141Y0118105D03*
X0286041Y0118205D03*
X0286041Y0118305D03*
X0286041Y0118405D03*
X0286041Y0118505D03*
X0286341Y0119205D03*
X0286441Y0119305D03*
X0286441Y0119405D03*
X0286541Y0119505D03*
X0286541Y0119605D03*
X0286641Y0119805D03*
X0286741Y0120005D03*
X0286841Y0120205D03*
X0286941Y0120405D03*
X0286941Y0120505D03*
X0287041Y0120605D03*
X0287041Y0120705D03*
X0287141Y0120805D03*
X0287141Y0120905D03*
X0287241Y0121005D03*
X0287241Y0121105D03*
X0287341Y0121305D03*
X0287441Y0121505D03*
X0287541Y0121705D03*
X0287641Y0121905D03*
X0287641Y0122005D03*
X0287741Y0122105D03*
X0287741Y0122205D03*
X0287841Y0122305D03*
X0287841Y0122405D03*
X0287941Y0122505D03*
X0287941Y0122605D03*
X0288041Y0122805D03*
X0288141Y0123005D03*
X0288241Y0123205D03*
X0288341Y0123405D03*
X0288341Y0123505D03*
X0288441Y0123605D03*
X0288441Y0123705D03*
X0288541Y0123805D03*
X0288541Y0123905D03*
X0288641Y0124005D03*
X0288641Y0124105D03*
X0288741Y0124305D03*
X0288841Y0124505D03*
X0288941Y0124705D03*
X0289041Y0124905D03*
X0289041Y0125005D03*
X0289141Y0125105D03*
X0289141Y0125205D03*
X0289241Y0125305D03*
X0289241Y0125405D03*
X0289341Y0125505D03*
X0289341Y0125605D03*
X0289741Y0126505D03*
X0289841Y0126705D03*
X0289941Y0126905D03*
X0290041Y0127005D03*
X0290141Y0127405D03*
X0290141Y0127505D03*
X0290241Y0127605D03*
X0290241Y0127705D03*
X0290241Y0127805D03*
X0290241Y0127905D03*
X0290241Y0128005D03*
X0290341Y0128105D03*
X0290341Y0128205D03*
X0290341Y0128305D03*
X0290341Y0128605D03*
X0290341Y0128705D03*
X0290341Y0128805D03*
X0290341Y0128905D03*
X0290741Y0128705D03*
X0291341Y0128005D03*
X0293341Y0127505D03*
X0285241Y0126205D03*
X0285241Y0126105D03*
X0285241Y0126005D03*
X0285241Y0125905D03*
X0285241Y0125805D03*
X0285241Y0125705D03*
X0285241Y0125605D03*
X0285241Y0125505D03*
X0285341Y0125405D03*
X0285341Y0125305D03*
X0285341Y0125205D03*
X0285341Y0125105D03*
X0285341Y0125005D03*
X0285341Y0124905D03*
X0285341Y0124805D03*
X0285441Y0124405D03*
X0285441Y0124305D03*
X0285441Y0124205D03*
X0285441Y0124105D03*
X0285441Y0124005D03*
X0285441Y0123905D03*
X0285441Y0123805D03*
X0285441Y0123705D03*
X0285541Y0123605D03*
X0285541Y0123505D03*
X0285541Y0123405D03*
X0285541Y0123305D03*
X0285541Y0123205D03*
X0285541Y0123105D03*
X0285541Y0123005D03*
X0285541Y0122905D03*
X0285641Y0122805D03*
X0285641Y0122705D03*
X0285641Y0122605D03*
X0285641Y0122505D03*
X0285641Y0122405D03*
X0285641Y0122305D03*
X0285641Y0122205D03*
X0285641Y0122105D03*
X0285641Y0122005D03*
X0285741Y0121905D03*
X0285741Y0121805D03*
X0285741Y0121705D03*
X0285741Y0121605D03*
X0285741Y0121505D03*
X0285741Y0121405D03*
X0285741Y0121305D03*
X0285741Y0121205D03*
X0285841Y0121005D03*
X0285841Y0120905D03*
X0285841Y0120805D03*
X0285841Y0120705D03*
X0285841Y0120605D03*
X0285841Y0120505D03*
X0285841Y0120405D03*
X0285841Y0120305D03*
X0285941Y0120205D03*
X0285941Y0120105D03*
X0285941Y0120005D03*
X0285941Y0119905D03*
X0285941Y0119805D03*
X0285941Y0119705D03*
X0285941Y0119605D03*
X0285641Y0119605D03*
X0285541Y0119705D03*
X0285541Y0119805D03*
X0285441Y0120005D03*
X0285341Y0120205D03*
X0285241Y0120405D03*
X0285241Y0120505D03*
X0285141Y0120605D03*
X0285141Y0120705D03*
X0285041Y0120805D03*
X0285041Y0120905D03*
X0284941Y0121005D03*
X0284941Y0121105D03*
X0284841Y0121305D03*
X0284741Y0121505D03*
X0284641Y0121705D03*
X0284641Y0121805D03*
X0284541Y0121905D03*
X0284541Y0122005D03*
X0284441Y0122105D03*
X0284441Y0122205D03*
X0284341Y0122305D03*
X0284341Y0122405D03*
X0284241Y0122505D03*
X0284241Y0122605D03*
X0284141Y0122805D03*
X0284041Y0123005D03*
X0283941Y0123205D03*
X0283941Y0123305D03*
X0283841Y0123405D03*
X0283841Y0123505D03*
X0283741Y0123605D03*
X0283741Y0123705D03*
X0283641Y0123905D03*
X0283541Y0124105D03*
X0283441Y0124305D03*
X0283341Y0124505D03*
X0283341Y0124605D03*
X0283241Y0124705D03*
X0283241Y0124805D03*
X0283141Y0124905D03*
X0283141Y0125005D03*
X0283041Y0125105D03*
X0283041Y0125205D03*
X0282941Y0125405D03*
X0285141Y0126305D03*
X0285141Y0126405D03*
X0285141Y0126505D03*
X0285141Y0126605D03*
X0285141Y0126705D03*
X0278941Y0122805D03*
X0278341Y0123605D03*
X0276741Y0126005D03*
X0282641Y0134905D03*
X0283741Y0135905D03*
X0284241Y0135805D03*
X0285741Y0135605D03*
X0285741Y0135505D03*
X0286541Y0134905D03*
X0286541Y0134805D03*
X0287041Y0135205D03*
X0287041Y0135305D03*
X0287041Y0135405D03*
X0287441Y0135605D03*
X0287441Y0135705D03*
X0288541Y0134705D03*
X0296041Y0119905D03*
X0296041Y0119805D03*
X0284141Y0116605D03*
D28*
X0286041Y0119005D03*
X0280641Y0117205D03*
X0285041Y0112605D03*
X0286141Y0112605D03*
X0287241Y0112605D03*
X0287141Y0114705D03*
X0293641Y0111005D03*
X0293641Y0110905D03*
X0293741Y0110805D03*
X0293841Y0110705D03*
X0293841Y0110605D03*
X0293941Y0110505D03*
X0293241Y0110105D03*
X0292941Y0110605D03*
X0292141Y0109505D03*
X0291541Y0109105D03*
X0289641Y0109105D03*
X0289641Y0109005D03*
X0289641Y0108905D03*
X0289641Y0108805D03*
X0289541Y0109205D03*
X0288641Y0109405D03*
X0288441Y0108205D03*
X0287441Y0108205D03*
X0287441Y0108105D03*
X0286541Y0108105D03*
X0286541Y0108005D03*
X0286041Y0109105D03*
X0281641Y0109005D03*
X0281441Y0109205D03*
X0278741Y0111205D03*
X0278441Y0111405D03*
X0278141Y0110905D03*
X0277141Y0111605D03*
X0284441Y0124905D03*
X0287741Y0124905D03*
X0288741Y0135105D03*
X0286341Y0135705D03*
X0286341Y0135805D03*
X0286341Y0135905D03*
X0285741Y0135105D03*
X0285741Y0135005D03*
X0284941Y0135305D03*
X0284941Y0135405D03*
X0285141Y0135905D03*
X0285241Y0136205D03*
X0283441Y0134805D03*
D29*
X0283641Y0134305D03*
X0281641Y0135705D03*
X0276141Y0125105D03*
X0294641Y0115205D03*
X0295541Y0116705D03*
X0295541Y0116805D03*
X0296441Y0112505D03*
X0286141Y0113205D03*
X0286141Y0113305D03*
X0286141Y0113405D03*
X0286141Y0113505D03*
X0286141Y0113605D03*
X0286141Y0113705D03*
X0283641Y0109805D03*
X0282341Y0108105D03*
X0276041Y0112605D03*
D30*
X0290241Y0108105D03*
X0291241Y0108505D03*
X0294141Y0114505D03*
X0294241Y0114605D03*
X0294641Y0115105D03*
X0294941Y0115605D03*
X0295241Y0116005D03*
X0295441Y0116305D03*
X0295441Y0116405D03*
X0295741Y0117005D03*
X0295841Y0117105D03*
X0296341Y0118405D03*
X0296441Y0118705D03*
X0296841Y0120605D03*
X0296841Y0121005D03*
X0296841Y0121105D03*
X0296841Y0121205D03*
X0296841Y0121305D03*
X0296841Y0121405D03*
X0296841Y0122105D03*
X0296841Y0122205D03*
X0296841Y0122305D03*
X0296841Y0122405D03*
X0296841Y0122505D03*
X0276041Y0124905D03*
X0289441Y0134205D03*
X0290741Y0135805D03*
D31*
X0292441Y0134905D03*
X0282541Y0136005D03*
X0279841Y0134705D03*
X0273641Y0127005D03*
X0273541Y0126705D03*
X0273441Y0126505D03*
X0273441Y0126405D03*
X0273341Y0126205D03*
X0273341Y0126105D03*
X0273241Y0125905D03*
X0273241Y0125805D03*
X0273241Y0125705D03*
X0273141Y0125605D03*
X0273141Y0125505D03*
X0273141Y0125405D03*
X0273041Y0125205D03*
X0273041Y0125105D03*
X0273041Y0125005D03*
X0272941Y0124705D03*
X0272941Y0124605D03*
X0272941Y0124505D03*
X0272841Y0124105D03*
X0272841Y0124005D03*
X0272741Y0123105D03*
X0272741Y0121005D03*
X0272841Y0120105D03*
X0272841Y0120005D03*
X0272941Y0119605D03*
X0272941Y0119505D03*
X0272941Y0119405D03*
X0273041Y0119105D03*
X0273041Y0119005D03*
X0273041Y0118905D03*
X0273141Y0118705D03*
X0273141Y0118605D03*
X0273141Y0118505D03*
X0273241Y0118405D03*
X0273241Y0118305D03*
X0273241Y0118205D03*
X0273341Y0118005D03*
X0273341Y0117905D03*
X0273441Y0117705D03*
X0273441Y0117605D03*
X0273541Y0117405D03*
X0273641Y0117105D03*
X0276041Y0112705D03*
X0282241Y0108205D03*
X0289641Y0109905D03*
X0294641Y0115405D03*
X0298941Y0117205D03*
X0299041Y0117505D03*
X0299141Y0117705D03*
X0299141Y0117805D03*
X0299241Y0118005D03*
X0299241Y0118105D03*
X0299241Y0118205D03*
X0299341Y0118305D03*
X0299341Y0118405D03*
X0299341Y0118505D03*
X0299341Y0118605D03*
X0299441Y0118705D03*
X0299441Y0118805D03*
X0299441Y0118905D03*
X0299541Y0119105D03*
X0299541Y0119205D03*
X0299541Y0119305D03*
X0299641Y0119705D03*
X0299641Y0119805D03*
X0299741Y0120405D03*
X0299741Y0120505D03*
X0299741Y0123605D03*
X0299741Y0123705D03*
X0299641Y0124305D03*
X0299641Y0124405D03*
X0299541Y0124805D03*
X0299541Y0124905D03*
X0299541Y0125005D03*
X0299441Y0125205D03*
X0299441Y0125305D03*
X0299441Y0125405D03*
X0299341Y0125505D03*
X0299341Y0125605D03*
X0299341Y0125705D03*
X0299341Y0125805D03*
X0299241Y0125905D03*
X0299241Y0126005D03*
X0299241Y0126105D03*
X0299141Y0126305D03*
X0299041Y0126605D03*
X0276241Y0125005D03*
D32*
X0278391Y0123505D03*
X0282991Y0125305D03*
X0283391Y0125505D03*
X0283391Y0124405D03*
X0283491Y0124205D03*
X0283591Y0124005D03*
X0283691Y0123805D03*
X0283991Y0123105D03*
X0284091Y0122905D03*
X0284191Y0122705D03*
X0284691Y0121605D03*
X0284791Y0121405D03*
X0284891Y0121205D03*
X0285291Y0120305D03*
X0285391Y0120105D03*
X0285491Y0119905D03*
X0286591Y0119705D03*
X0286691Y0119905D03*
X0286791Y0120105D03*
X0286891Y0120305D03*
X0287291Y0121205D03*
X0287391Y0121405D03*
X0287491Y0121605D03*
X0287991Y0122705D03*
X0288091Y0122905D03*
X0288191Y0123105D03*
X0288291Y0123305D03*
X0288691Y0124205D03*
X0288791Y0124405D03*
X0288891Y0124605D03*
X0288991Y0124805D03*
X0288791Y0125505D03*
X0288891Y0125605D03*
X0289691Y0126405D03*
X0289791Y0126605D03*
X0289891Y0126805D03*
X0289991Y0127105D03*
X0291391Y0128105D03*
X0285391Y0124505D03*
X0286091Y0118705D03*
X0286091Y0118605D03*
X0287291Y0116305D03*
X0287191Y0114405D03*
X0287291Y0114305D03*
X0287391Y0114105D03*
X0287591Y0113805D03*
X0287691Y0113705D03*
X0285291Y0109005D03*
X0285191Y0108305D03*
X0285191Y0108205D03*
X0284591Y0108805D03*
X0285991Y0108705D03*
X0288891Y0108805D03*
X0288991Y0108605D03*
X0288991Y0108505D03*
X0289591Y0108505D03*
X0291591Y0109205D03*
X0292091Y0109405D03*
X0295091Y0111205D03*
X0294891Y0111505D03*
X0294891Y0111605D03*
X0295291Y0112105D03*
X0295791Y0111805D03*
X0283091Y0109305D03*
X0282391Y0109105D03*
X0282391Y0109005D03*
X0282291Y0108605D03*
X0282191Y0108505D03*
X0281791Y0108805D03*
X0281291Y0109505D03*
X0281291Y0109605D03*
X0281291Y0109705D03*
X0281291Y0109805D03*
X0280691Y0109705D03*
X0280391Y0109405D03*
X0281991Y0109705D03*
X0278991Y0110305D03*
X0278991Y0110405D03*
X0278691Y0110905D03*
X0278791Y0111005D03*
X0278391Y0111505D03*
X0278391Y0110505D03*
X0278391Y0110405D03*
X0277091Y0111705D03*
X0277491Y0112205D03*
X0281891Y0134305D03*
X0282691Y0134705D03*
X0282691Y0134805D03*
X0282591Y0135005D03*
X0282591Y0135105D03*
X0282491Y0135205D03*
X0282491Y0135305D03*
X0281791Y0135205D03*
X0283791Y0135805D03*
X0284891Y0134905D03*
X0284891Y0134805D03*
X0286491Y0135005D03*
X0286491Y0135105D03*
X0286491Y0135205D03*
X0287091Y0135105D03*
X0287091Y0135005D03*
X0287391Y0135805D03*
X0287391Y0135905D03*
X0287391Y0136005D03*
X0288091Y0135905D03*
X0287991Y0135305D03*
X0287991Y0135205D03*
X0287991Y0135105D03*
X0287991Y0135005D03*
X0287991Y0134905D03*
X0287991Y0134805D03*
X0287891Y0134705D03*
X0288491Y0134605D03*
X0288691Y0135305D03*
X0288691Y0135405D03*
X0288691Y0135505D03*
X0288691Y0135605D03*
D33*
X0292191Y0135205D03*
X0280291Y0135205D03*
X0275991Y0125605D03*
X0296891Y0120505D03*
X0296791Y0119605D03*
X0296791Y0119505D03*
X0296191Y0117705D03*
X0296191Y0117605D03*
X0296091Y0117305D03*
X0294091Y0114305D03*
X0292191Y0108905D03*
X0290891Y0108305D03*
X0290691Y0108205D03*
X0281391Y0108405D03*
X0279091Y0109605D03*
D34*
X0279941Y0109105D03*
X0280741Y0110605D03*
X0281541Y0108305D03*
X0283241Y0109905D03*
X0276841Y0111405D03*
X0276041Y0112205D03*
X0296541Y0112305D03*
X0296141Y0117405D03*
X0296141Y0117505D03*
X0296741Y0119105D03*
X0296741Y0119205D03*
X0296741Y0119305D03*
X0296741Y0119405D03*
X0296941Y0120005D03*
X0296941Y0120105D03*
X0296941Y0120205D03*
X0288141Y0127005D03*
X0288841Y0128305D03*
X0283241Y0134205D03*
X0280441Y0135305D03*
X0292041Y0135305D03*
X0276041Y0125705D03*
D35*
X0280541Y0124705D03*
X0281841Y0134705D03*
X0281841Y0134805D03*
X0285041Y0135805D03*
X0285741Y0134805D03*
X0286341Y0136105D03*
X0287141Y0114805D03*
X0287241Y0112905D03*
X0287241Y0112805D03*
X0287241Y0112705D03*
X0286141Y0112705D03*
X0286141Y0112805D03*
X0286141Y0112905D03*
X0286141Y0113005D03*
X0285041Y0112805D03*
X0285041Y0112705D03*
X0279441Y0111505D03*
X0279141Y0111705D03*
X0279041Y0111805D03*
X0278841Y0111905D03*
X0278741Y0112005D03*
X0278441Y0112205D03*
X0278341Y0112305D03*
X0278241Y0112405D03*
X0278341Y0110805D03*
X0279741Y0109705D03*
X0282241Y0109505D03*
X0284441Y0109005D03*
X0284341Y0108505D03*
X0284341Y0108405D03*
X0287441Y0108405D03*
X0287441Y0108505D03*
X0287441Y0108305D03*
X0290541Y0109305D03*
X0290541Y0109405D03*
X0293241Y0111605D03*
X0293341Y0111705D03*
X0293541Y0111805D03*
X0293641Y0111905D03*
X0294341Y0112405D03*
X0295841Y0111105D03*
X0295641Y0110905D03*
X0296641Y0111805D03*
X0276241Y0111505D03*
X0276141Y0111605D03*
D36*
X0276041Y0112305D03*
X0279841Y0109205D03*
X0288741Y0113305D03*
X0294141Y0114405D03*
X0295441Y0116205D03*
X0296541Y0118905D03*
X0296941Y0121605D03*
X0296941Y0121705D03*
X0296941Y0121805D03*
X0276041Y0125405D03*
X0276041Y0125505D03*
X0280141Y0135105D03*
X0291141Y0108405D03*
D37*
X0291791Y0108605D03*
X0291991Y0108705D03*
X0293891Y0109805D03*
X0295191Y0110805D03*
X0294191Y0112005D03*
X0296591Y0112205D03*
X0286991Y0115605D03*
X0286991Y0115705D03*
X0280091Y0108905D03*
X0280691Y0108605D03*
X0280991Y0108505D03*
X0276891Y0111205D03*
X0288991Y0127105D03*
X0289691Y0128405D03*
D38*
X0290141Y0135305D03*
X0284741Y0116505D03*
X0276041Y0112105D03*
X0279141Y0109505D03*
X0280541Y0108705D03*
X0280641Y0110705D03*
X0282841Y0110005D03*
X0290141Y0110105D03*
X0294541Y0110305D03*
D39*
X0294541Y0110205D03*
X0293841Y0109705D03*
X0291041Y0110405D03*
X0290341Y0110205D03*
X0296141Y0111605D03*
X0296241Y0111705D03*
X0287041Y0115405D03*
X0287041Y0115505D03*
X0280541Y0110805D03*
X0281841Y0110305D03*
X0280241Y0108805D03*
X0278341Y0110005D03*
X0276041Y0112005D03*
X0297041Y0119705D03*
X0297041Y0119905D03*
X0280741Y0124805D03*
X0282941Y0134105D03*
X0283741Y0135005D03*
X0283741Y0135105D03*
D40*
X0290091Y0134405D03*
X0290191Y0134505D03*
X0290291Y0134805D03*
X0290291Y0134905D03*
X0276191Y0127105D03*
X0276091Y0126905D03*
X0276091Y0126805D03*
X0275891Y0126305D03*
X0287091Y0115205D03*
X0287091Y0115105D03*
X0280291Y0111005D03*
X0280291Y0110405D03*
X0279991Y0110105D03*
X0279491Y0111405D03*
X0278591Y0109705D03*
X0277891Y0110205D03*
X0276891Y0111005D03*
X0277291Y0111505D03*
X0287391Y0109005D03*
X0287391Y0108905D03*
X0287391Y0108805D03*
X0291391Y0110605D03*
X0292291Y0109705D03*
X0293291Y0109305D03*
X0293491Y0109405D03*
D41*
X0292091Y0108805D03*
X0290891Y0110305D03*
X0281991Y0110205D03*
X0279991Y0109005D03*
X0276891Y0111305D03*
X0296691Y0119005D03*
X0296991Y0120305D03*
X0296991Y0120405D03*
X0285491Y0128005D03*
X0280791Y0124905D03*
X0275991Y0125805D03*
X0275991Y0125905D03*
X0289691Y0134105D03*
X0280791Y0135505D03*
X0280591Y0135405D03*
D42*
X0283691Y0135405D03*
X0283691Y0135505D03*
X0283691Y0135305D03*
X0283691Y0135205D03*
X0283791Y0134905D03*
X0283291Y0127005D03*
X0276091Y0126605D03*
X0276091Y0126505D03*
X0275891Y0126105D03*
X0275891Y0126005D03*
X0297091Y0119805D03*
X0294191Y0112105D03*
X0295191Y0110705D03*
X0296091Y0111505D03*
X0292791Y0110205D03*
X0292691Y0110305D03*
X0293091Y0109205D03*
X0292891Y0109105D03*
X0292691Y0109005D03*
X0287391Y0109205D03*
X0281591Y0110405D03*
X0279191Y0109405D03*
X0278391Y0109905D03*
X0276891Y0111105D03*
D43*
X0276041Y0111905D03*
X0277841Y0110305D03*
X0278441Y0109805D03*
X0279241Y0109305D03*
X0280041Y0110205D03*
X0280141Y0110305D03*
X0280441Y0110905D03*
X0287341Y0109105D03*
X0291241Y0110505D03*
X0292241Y0109805D03*
X0292741Y0110405D03*
X0293641Y0109505D03*
X0293741Y0109605D03*
X0294441Y0110105D03*
X0295141Y0110605D03*
X0296041Y0111405D03*
X0296641Y0112105D03*
X0294241Y0112205D03*
X0288241Y0113405D03*
X0287041Y0115305D03*
X0289641Y0127205D03*
X0282741Y0128305D03*
X0276141Y0126705D03*
X0275941Y0126405D03*
X0275941Y0126205D03*
X0282641Y0134005D03*
X0283741Y0135605D03*
X0290041Y0135205D03*
X0289941Y0134005D03*
D44*
X0292791Y0134305D03*
X0295291Y0132105D03*
X0295391Y0132005D03*
X0295491Y0131905D03*
X0294691Y0127805D03*
X0296091Y0123305D03*
X0276591Y0120005D03*
X0276491Y0120205D03*
X0276891Y0131805D03*
X0276991Y0131905D03*
X0286291Y0109405D03*
D45*
X0286191Y0109505D03*
X0290791Y0112805D03*
X0278491Y0116905D03*
X0278391Y0117005D03*
X0292891Y0129105D03*
X0280091Y0133905D03*
D46*
X0288941Y0134805D03*
X0290041Y0135105D03*
X0290241Y0134705D03*
X0290241Y0134605D03*
X0290141Y0133905D03*
X0276141Y0127005D03*
X0285241Y0124705D03*
X0286941Y0124705D03*
X0287141Y0115005D03*
X0291841Y0110805D03*
X0292041Y0110905D03*
X0292241Y0111005D03*
X0291641Y0110705D03*
X0290441Y0109605D03*
X0294241Y0109905D03*
X0294441Y0110005D03*
X0296041Y0111305D03*
X0280141Y0111105D03*
X0279941Y0111205D03*
X0279941Y0110005D03*
X0279841Y0109905D03*
X0277941Y0110105D03*
X0277541Y0110405D03*
X0276941Y0110905D03*
X0276041Y0111805D03*
X0278541Y0112105D03*
D47*
X0286241Y0111005D03*
X0286941Y0109705D03*
X0286241Y0133105D03*
D48*
X0280091Y0135005D03*
X0281991Y0135905D03*
X0292291Y0135105D03*
X0283691Y0128205D03*
X0286091Y0124605D03*
X0276091Y0125305D03*
X0296891Y0122705D03*
X0296891Y0122605D03*
X0296891Y0122005D03*
X0296891Y0121905D03*
X0296891Y0121505D03*
X0296491Y0118805D03*
X0296391Y0118605D03*
X0296391Y0118505D03*
X0296191Y0118005D03*
X0296191Y0117905D03*
X0296191Y0117805D03*
X0295891Y0117205D03*
X0295191Y0115905D03*
X0295191Y0115805D03*
X0295091Y0115705D03*
X0294591Y0115005D03*
X0294491Y0114905D03*
X0296491Y0112405D03*
X0289891Y0110005D03*
X0282191Y0110105D03*
X0280891Y0110505D03*
X0276091Y0112405D03*
D49*
X0274691Y0115005D03*
X0274591Y0115205D03*
X0274491Y0115305D03*
X0274491Y0115405D03*
X0274391Y0115505D03*
X0274291Y0115705D03*
X0274191Y0115905D03*
X0286291Y0110405D03*
X0292891Y0113505D03*
X0292991Y0113605D03*
X0293091Y0113705D03*
X0297791Y0114905D03*
X0297891Y0115105D03*
X0297991Y0115205D03*
X0297991Y0115305D03*
X0298091Y0115405D03*
X0298191Y0115605D03*
X0298291Y0115805D03*
X0296491Y0122905D03*
X0295591Y0126605D03*
X0295591Y0126705D03*
X0295591Y0126805D03*
X0295291Y0127405D03*
X0297991Y0128805D03*
X0297991Y0128905D03*
X0297891Y0129005D03*
X0297791Y0129205D03*
X0298091Y0128705D03*
X0298191Y0128505D03*
X0298291Y0128305D03*
X0292591Y0134705D03*
X0286291Y0133705D03*
X0274691Y0129105D03*
X0274591Y0128905D03*
X0274491Y0128805D03*
X0274491Y0128705D03*
X0274391Y0128605D03*
X0274291Y0128405D03*
X0274191Y0128205D03*
X0276191Y0124205D03*
X0276191Y0124105D03*
X0276191Y0124005D03*
X0281091Y0125205D03*
D50*
X0280941Y0125505D03*
X0276641Y0123005D03*
X0276641Y0122905D03*
X0276641Y0122805D03*
X0276641Y0121905D03*
X0276841Y0119805D03*
X0281841Y0112305D03*
X0286241Y0110505D03*
X0292141Y0113405D03*
X0294541Y0132705D03*
X0294441Y0132805D03*
X0294241Y0132905D03*
X0292941Y0134005D03*
X0286241Y0133605D03*
X0286041Y0134605D03*
X0279541Y0134005D03*
X0278141Y0132805D03*
D51*
X0279641Y0133705D03*
X0286241Y0133505D03*
X0289541Y0132205D03*
X0292641Y0129605D03*
X0293241Y0128805D03*
X0285741Y0126905D03*
X0280241Y0126205D03*
X0280141Y0126305D03*
X0280041Y0126405D03*
X0279941Y0126505D03*
X0279841Y0126705D03*
X0279341Y0128905D03*
X0279441Y0129005D03*
X0279441Y0129105D03*
X0281641Y0112805D03*
X0286241Y0110605D03*
X0290741Y0112705D03*
D52*
X0290841Y0113105D03*
X0286241Y0110705D03*
X0278841Y0116705D03*
X0279041Y0127805D03*
X0286241Y0133405D03*
D53*
X0286291Y0133305D03*
X0281391Y0113705D03*
X0286291Y0110805D03*
D54*
X0286241Y0110905D03*
X0281341Y0114105D03*
X0286241Y0133205D03*
D55*
X0286291Y0133005D03*
X0286291Y0111105D03*
D56*
X0286241Y0111205D03*
X0281241Y0115205D03*
X0286241Y0132905D03*
D57*
X0286291Y0132805D03*
X0286291Y0111305D03*
D58*
X0286291Y0111405D03*
X0286291Y0132705D03*
D59*
X0286291Y0132605D03*
X0286291Y0111505D03*
D60*
X0286291Y0111605D03*
X0286291Y0132505D03*
D61*
X0286291Y0132405D03*
X0286291Y0111705D03*
D62*
X0286291Y0111805D03*
X0286291Y0132305D03*
D63*
X0286241Y0111905D03*
D64*
X0286241Y0112005D03*
D65*
X0286291Y0112105D03*
D66*
X0281891Y0112205D03*
X0292091Y0113305D03*
X0276691Y0120805D03*
X0276591Y0121105D03*
X0276591Y0121205D03*
X0276591Y0121305D03*
X0276591Y0121405D03*
X0276591Y0121505D03*
X0276591Y0121805D03*
X0276691Y0123105D03*
X0294291Y0128005D03*
X0294691Y0132605D03*
X0292891Y0134105D03*
X0277991Y0132705D03*
D67*
X0281241Y0114905D03*
X0288341Y0112205D03*
D68*
X0290591Y0112305D03*
X0277591Y0117705D03*
X0277591Y0117805D03*
X0277591Y0117905D03*
X0277091Y0119305D03*
X0277091Y0119405D03*
X0277091Y0119605D03*
X0276991Y0119705D03*
X0276791Y0122305D03*
X0276791Y0122405D03*
X0280191Y0130305D03*
X0280291Y0130405D03*
X0280391Y0130505D03*
X0282091Y0131905D03*
X0282291Y0132005D03*
X0278591Y0133105D03*
X0293791Y0133205D03*
D69*
X0293941Y0133105D03*
X0293041Y0133905D03*
X0294141Y0128105D03*
X0281941Y0131805D03*
X0281741Y0131705D03*
X0281441Y0131505D03*
X0280941Y0131105D03*
X0280841Y0131005D03*
X0280741Y0130905D03*
X0280641Y0130805D03*
X0280541Y0130705D03*
X0280441Y0130605D03*
X0278441Y0133005D03*
X0276741Y0122205D03*
X0276741Y0122105D03*
X0277141Y0119205D03*
X0277141Y0119105D03*
X0281741Y0112405D03*
D70*
X0281741Y0112505D03*
X0290641Y0112405D03*
X0277541Y0118005D03*
X0277541Y0118105D03*
X0277141Y0119505D03*
X0276841Y0122605D03*
X0276841Y0122705D03*
X0285641Y0128105D03*
X0280141Y0130205D03*
X0280041Y0130105D03*
X0278741Y0133205D03*
X0291041Y0131405D03*
X0293641Y0133305D03*
D71*
X0293291Y0133505D03*
X0293091Y0133605D03*
X0290091Y0132005D03*
X0291991Y0130505D03*
X0292091Y0130405D03*
X0292191Y0130305D03*
X0293491Y0128705D03*
X0282791Y0132205D03*
X0279691Y0129605D03*
X0279591Y0129405D03*
X0281691Y0112605D03*
X0290691Y0112505D03*
D72*
X0290691Y0112605D03*
X0293691Y0128305D03*
X0292591Y0129705D03*
X0292491Y0129805D03*
X0292491Y0129905D03*
X0292391Y0130005D03*
X0292891Y0133705D03*
X0279491Y0129205D03*
D73*
X0279541Y0129305D03*
X0279641Y0129505D03*
X0280341Y0126105D03*
X0289841Y0132105D03*
X0292241Y0130205D03*
X0292341Y0130105D03*
X0293541Y0128605D03*
X0293541Y0128505D03*
X0293641Y0128405D03*
X0293741Y0128205D03*
X0286241Y0134505D03*
X0279441Y0133605D03*
X0281641Y0112705D03*
D74*
X0276391Y0112805D03*
X0276291Y0112905D03*
X0276391Y0123505D03*
X0280791Y0125405D03*
X0276391Y0131305D03*
X0276491Y0131405D03*
X0276591Y0131505D03*
X0276691Y0131605D03*
X0279591Y0134305D03*
X0295991Y0131405D03*
X0294891Y0127605D03*
X0295991Y0112705D03*
D75*
X0281641Y0112905D03*
X0278341Y0117105D03*
X0279641Y0127005D03*
X0279241Y0128605D03*
X0292841Y0129205D03*
X0292841Y0129305D03*
D76*
X0292941Y0129005D03*
X0279141Y0128305D03*
X0281541Y0113005D03*
X0290841Y0112905D03*
D77*
X0290841Y0113005D03*
X0281541Y0113105D03*
X0278641Y0116805D03*
X0279041Y0128005D03*
X0279341Y0128505D03*
D78*
X0274341Y0128505D03*
X0274241Y0128305D03*
X0274141Y0128105D03*
X0274041Y0128005D03*
X0274041Y0127905D03*
X0273941Y0127705D03*
X0273841Y0127505D03*
X0281141Y0125105D03*
X0273841Y0116605D03*
X0273941Y0116405D03*
X0274041Y0116205D03*
X0274041Y0116105D03*
X0274141Y0116005D03*
X0274241Y0115805D03*
X0274341Y0115605D03*
X0286141Y0113105D03*
X0298141Y0115505D03*
X0298241Y0115705D03*
X0298341Y0115905D03*
X0298441Y0116005D03*
X0298441Y0116105D03*
X0298541Y0116205D03*
X0298541Y0116305D03*
X0298641Y0116505D03*
X0298741Y0116705D03*
X0296541Y0122805D03*
X0295541Y0126905D03*
X0295541Y0127005D03*
X0295441Y0127205D03*
X0295341Y0127305D03*
X0298141Y0128605D03*
X0298241Y0128405D03*
X0298341Y0128205D03*
X0298441Y0128105D03*
X0298441Y0128005D03*
X0298541Y0127905D03*
X0298541Y0127805D03*
X0298641Y0127605D03*
X0298741Y0127405D03*
X0279741Y0134605D03*
D79*
X0278991Y0127705D03*
X0278991Y0127605D03*
X0281491Y0113305D03*
X0290891Y0113205D03*
D80*
X0296491Y0113205D03*
X0296591Y0113305D03*
X0296691Y0113405D03*
X0296191Y0123805D03*
X0296191Y0123905D03*
X0296191Y0124005D03*
X0296091Y0124205D03*
X0296091Y0124305D03*
X0296691Y0130705D03*
X0296591Y0130805D03*
X0296491Y0130905D03*
X0292691Y0134505D03*
X0286291Y0136805D03*
X0275891Y0130705D03*
X0275791Y0130605D03*
X0275691Y0130505D03*
X0285591Y0126805D03*
X0276491Y0124505D03*
X0275691Y0113605D03*
X0275791Y0113505D03*
X0275891Y0113405D03*
D81*
X0281491Y0113405D03*
X0279091Y0116505D03*
X0280091Y0127105D03*
X0278991Y0127405D03*
X0278991Y0127505D03*
D82*
X0281441Y0113505D03*
D83*
X0281441Y0113605D03*
X0279041Y0127305D03*
D84*
X0281391Y0113805D03*
D85*
X0281391Y0113905D03*
D86*
X0284191Y0116405D03*
X0275391Y0114005D03*
X0275291Y0114105D03*
X0275191Y0114205D03*
X0275091Y0114405D03*
X0276191Y0123705D03*
X0276191Y0123805D03*
X0276191Y0123905D03*
X0276291Y0124405D03*
X0276391Y0124705D03*
X0275091Y0129705D03*
X0275191Y0129805D03*
X0275191Y0129905D03*
X0275291Y0130005D03*
X0275391Y0130105D03*
X0279691Y0134505D03*
X0283291Y0136205D03*
X0289491Y0136105D03*
X0292591Y0134605D03*
X0297091Y0130205D03*
X0297191Y0130005D03*
X0297291Y0129905D03*
X0297391Y0129805D03*
X0297591Y0129505D03*
X0295691Y0126305D03*
X0295691Y0126205D03*
X0295691Y0126105D03*
X0295791Y0125805D03*
X0295891Y0125605D03*
X0295891Y0125505D03*
X0295991Y0125205D03*
X0295991Y0125105D03*
X0296091Y0124905D03*
X0296091Y0124805D03*
X0296091Y0124705D03*
X0297591Y0114605D03*
X0297391Y0114305D03*
X0297291Y0114205D03*
X0297191Y0114105D03*
X0297091Y0113905D03*
D87*
X0281341Y0114005D03*
D88*
X0273091Y0118805D03*
X0272991Y0119205D03*
X0272991Y0119305D03*
X0272891Y0119705D03*
X0272891Y0119805D03*
X0272891Y0119905D03*
X0272791Y0120205D03*
X0272791Y0120305D03*
X0272791Y0120405D03*
X0272791Y0120505D03*
X0272791Y0120605D03*
X0272791Y0120705D03*
X0272791Y0120805D03*
X0272791Y0120905D03*
X0272691Y0121105D03*
X0272691Y0121205D03*
X0272691Y0121305D03*
X0272691Y0121405D03*
X0272691Y0121505D03*
X0272691Y0121605D03*
X0272691Y0121705D03*
X0272691Y0121805D03*
X0272691Y0121905D03*
X0272691Y0122005D03*
X0272691Y0122105D03*
X0272691Y0122205D03*
X0272691Y0122305D03*
X0272691Y0122405D03*
X0272691Y0122505D03*
X0272691Y0122605D03*
X0272691Y0122705D03*
X0272691Y0122805D03*
X0272691Y0122905D03*
X0272691Y0123005D03*
X0272791Y0123205D03*
X0272791Y0123305D03*
X0272791Y0123405D03*
X0272791Y0123505D03*
X0272791Y0123605D03*
X0272791Y0123705D03*
X0272791Y0123805D03*
X0272791Y0123905D03*
X0272891Y0124205D03*
X0272891Y0124305D03*
X0272891Y0124405D03*
X0272991Y0124805D03*
X0272991Y0124905D03*
X0273091Y0125305D03*
X0281091Y0125005D03*
X0295591Y0116905D03*
X0294791Y0115505D03*
X0294591Y0115305D03*
X0293791Y0114205D03*
X0293691Y0114105D03*
X0293591Y0114005D03*
X0299491Y0119005D03*
X0299591Y0119405D03*
X0299591Y0119505D03*
X0299591Y0119605D03*
X0299691Y0119905D03*
X0299691Y0120005D03*
X0299691Y0120105D03*
X0299691Y0120205D03*
X0299691Y0120305D03*
X0299791Y0120605D03*
X0299791Y0120705D03*
X0299791Y0120805D03*
X0299791Y0120905D03*
X0299791Y0121005D03*
X0299791Y0121105D03*
X0299791Y0121205D03*
X0299791Y0121305D03*
X0299791Y0121405D03*
X0299791Y0121505D03*
X0299791Y0121605D03*
X0299791Y0121705D03*
X0299791Y0121805D03*
X0299791Y0121905D03*
X0299791Y0122005D03*
X0299791Y0122105D03*
X0299791Y0122205D03*
X0299791Y0122305D03*
X0299791Y0122405D03*
X0299791Y0122505D03*
X0299791Y0122605D03*
X0299791Y0122705D03*
X0299791Y0122805D03*
X0299791Y0122905D03*
X0299791Y0123005D03*
X0299791Y0123105D03*
X0299791Y0123205D03*
X0299791Y0123305D03*
X0299791Y0123405D03*
X0299791Y0123505D03*
X0299691Y0123805D03*
X0299691Y0123905D03*
X0299691Y0124005D03*
X0299691Y0124105D03*
X0299691Y0124205D03*
X0299591Y0124505D03*
X0299591Y0124605D03*
X0299591Y0124705D03*
X0299491Y0125105D03*
X0279891Y0134805D03*
X0281491Y0135605D03*
X0291091Y0135605D03*
D89*
X0281291Y0114305D03*
D90*
X0281291Y0114405D03*
D91*
X0281291Y0114505D03*
D92*
X0281241Y0114605D03*
D93*
X0281291Y0114705D03*
X0286291Y0136305D03*
D94*
X0281241Y0114805D03*
D95*
X0281241Y0115005D03*
X0281241Y0115105D03*
D96*
X0281241Y0115305D03*
D97*
X0281191Y0115405D03*
D98*
X0281241Y0115505D03*
D99*
X0281241Y0115605D03*
X0281241Y0115705D03*
D100*
X0281891Y0116005D03*
X0281991Y0115805D03*
D101*
X0281941Y0115905D03*
D102*
X0281391Y0116105D03*
D103*
X0281191Y0116205D03*
D104*
X0281141Y0116305D03*
D105*
X0279191Y0116405D03*
X0285791Y0134405D03*
D106*
X0279541Y0128405D03*
X0278941Y0116605D03*
D107*
X0277891Y0117205D03*
X0277891Y0117305D03*
X0277891Y0117405D03*
X0277491Y0118205D03*
X0277491Y0118305D03*
X0277491Y0118405D03*
X0277391Y0118805D03*
X0276891Y0122505D03*
X0281091Y0125605D03*
X0280791Y0125805D03*
X0280691Y0125905D03*
X0279891Y0129905D03*
X0279991Y0130005D03*
X0282491Y0132105D03*
X0279091Y0133405D03*
X0278891Y0133305D03*
X0290591Y0131705D03*
X0290791Y0131605D03*
X0290891Y0131505D03*
X0291191Y0131305D03*
X0291291Y0131205D03*
X0291391Y0131105D03*
X0291491Y0131005D03*
X0291591Y0130905D03*
X0293491Y0133405D03*
D108*
X0295091Y0132305D03*
X0294491Y0127905D03*
X0277591Y0132405D03*
X0277491Y0132305D03*
X0276691Y0119905D03*
D109*
X0276541Y0120105D03*
X0276441Y0120305D03*
X0276441Y0120405D03*
X0276441Y0120505D03*
X0276441Y0120605D03*
X0276441Y0120705D03*
X0294741Y0127705D03*
X0295941Y0131505D03*
X0295841Y0131605D03*
X0295741Y0131705D03*
X0295641Y0131805D03*
X0292741Y0134405D03*
X0290941Y0135405D03*
X0288941Y0136205D03*
X0279541Y0134205D03*
X0276841Y0131705D03*
X0296141Y0123505D03*
X0296141Y0123405D03*
D110*
X0294941Y0132405D03*
X0294841Y0132505D03*
X0277841Y0132605D03*
X0277741Y0132505D03*
X0276641Y0123405D03*
X0276641Y0123305D03*
X0276641Y0123205D03*
X0276541Y0121705D03*
X0276541Y0121605D03*
X0276641Y0121005D03*
X0276641Y0120905D03*
D111*
X0276691Y0122005D03*
X0281091Y0131205D03*
X0281191Y0131305D03*
X0281291Y0131405D03*
X0281591Y0131605D03*
X0278291Y0132905D03*
X0294091Y0133005D03*
D112*
X0292691Y0133805D03*
X0292691Y0129505D03*
X0292791Y0129405D03*
X0293191Y0128905D03*
X0279891Y0126605D03*
X0279791Y0126805D03*
X0279691Y0126905D03*
X0279291Y0128705D03*
X0279291Y0128805D03*
X0279891Y0133805D03*
D113*
X0279241Y0127205D03*
D114*
X0279091Y0128105D03*
X0279091Y0128205D03*
D115*
X0277141Y0132005D03*
X0277241Y0132105D03*
X0277341Y0132205D03*
X0279541Y0134105D03*
X0292841Y0134205D03*
X0295141Y0132205D03*
D116*
X0288792Y0101599D02*
X0288792Y0097329D01*
X0289860Y0096261D01*
X0292022Y0096261D02*
X0292022Y0100532D01*
X0294157Y0100532D02*
X0295224Y0100532D01*
X0294157Y0100532D02*
X0292022Y0098397D01*
X0289860Y0100532D02*
X0287725Y0100532D01*
X0285549Y0100532D02*
X0282347Y0100532D01*
X0281279Y0099464D01*
X0281279Y0097329D01*
X0282347Y0096261D01*
X0285549Y0096261D01*
X0279104Y0098397D02*
X0279104Y0099464D01*
X0278036Y0100532D01*
X0275901Y0100532D01*
X0274834Y0099464D01*
X0274834Y0097329D01*
X0275901Y0096261D01*
X0278036Y0096261D01*
X0279104Y0098397D02*
X0274834Y0098397D01*
X0272658Y0099464D02*
X0271591Y0100532D01*
X0268388Y0100532D01*
X0268388Y0094126D01*
X0268388Y0096261D02*
X0271591Y0096261D01*
X0272658Y0097329D01*
X0272658Y0099464D01*
X0266213Y0098397D02*
X0266213Y0097329D01*
X0265145Y0096261D01*
X0263010Y0096261D01*
X0261943Y0097329D01*
X0265145Y0099464D02*
X0266213Y0098397D01*
X0265145Y0099464D02*
X0263010Y0099464D01*
X0261943Y0100532D01*
X0261943Y0101599D01*
X0263010Y0102667D01*
X0265145Y0102667D01*
X0266213Y0101599D01*
X0272658Y0092167D02*
X0272658Y0085761D01*
X0269456Y0085761D01*
X0268388Y0086829D01*
X0268388Y0088964D01*
X0269456Y0090032D01*
X0272658Y0090032D01*
X0275901Y0090032D02*
X0278036Y0090032D01*
X0279104Y0088964D01*
X0279104Y0085761D01*
X0275901Y0085761D01*
X0274834Y0086829D01*
X0275901Y0087897D01*
X0279104Y0087897D01*
X0281279Y0090032D02*
X0284482Y0090032D01*
X0285549Y0088964D01*
X0285549Y0086829D01*
X0284482Y0085761D01*
X0281279Y0085761D01*
X0281279Y0083626D02*
X0281279Y0090032D01*
X0287725Y0090032D02*
X0289860Y0090032D01*
X0288792Y0091099D02*
X0288792Y0086829D01*
X0289860Y0085761D01*
X0292022Y0086829D02*
X0292022Y0088964D01*
X0293089Y0090032D01*
X0295224Y0090032D01*
X0296292Y0088964D01*
X0296292Y0087897D01*
X0292022Y0087897D01*
X0292022Y0086829D02*
X0293089Y0085761D01*
X0295224Y0085761D01*
X0298467Y0085761D02*
X0298467Y0090032D01*
X0300602Y0090032D02*
X0301670Y0090032D01*
X0300602Y0090032D02*
X0298467Y0087897D01*
X0310284Y0090032D02*
X0312419Y0085761D01*
X0314554Y0090032D01*
X0316729Y0090032D02*
X0318864Y0092167D01*
X0318864Y0085761D01*
X0316729Y0085761D02*
X0321000Y0085761D01*
X0322094Y0096261D02*
X0321026Y0097329D01*
X0321026Y0099464D01*
X0322094Y0100532D01*
X0324229Y0100532D01*
X0325297Y0099464D01*
X0325297Y0098397D01*
X0321026Y0098397D01*
X0322094Y0096261D02*
X0324229Y0096261D01*
X0327472Y0096261D02*
X0327472Y0100532D01*
X0327472Y0098397D02*
X0329607Y0100532D01*
X0330674Y0100532D01*
X0318864Y0100532D02*
X0316729Y0100532D01*
X0317797Y0101599D02*
X0317797Y0097329D01*
X0318864Y0096261D01*
X0314554Y0098397D02*
X0310284Y0098397D01*
X0310284Y0099464D02*
X0310284Y0097329D01*
X0311351Y0096261D01*
X0313486Y0096261D01*
X0314554Y0098397D02*
X0314554Y0099464D01*
X0313486Y0100532D01*
X0311351Y0100532D01*
X0310284Y0099464D01*
X0308109Y0099464D02*
X0308109Y0096261D01*
X0305973Y0096261D02*
X0305973Y0099464D01*
X0307041Y0100532D01*
X0308109Y0099464D01*
X0305973Y0099464D02*
X0304906Y0100532D01*
X0303838Y0100532D01*
X0303838Y0096261D01*
X0301663Y0097329D02*
X0301663Y0099464D01*
X0300595Y0100532D01*
X0298460Y0100532D01*
X0297393Y0099464D01*
X0297393Y0097329D01*
X0298460Y0096261D01*
X0300595Y0096261D01*
X0301663Y0097329D01*
X0266213Y0088964D02*
X0266213Y0085761D01*
X0263010Y0085761D01*
X0261943Y0086829D01*
X0263010Y0087897D01*
X0266213Y0087897D01*
X0266213Y0088964D02*
X0265145Y0090032D01*
X0263010Y0090032D01*
X0153765Y0076166D02*
X0153765Y0069166D01*
X0152265Y0069166D01*
X0152265Y0076166D01*
X0152265Y0076666D01*
X0129229Y0076666D01*
X0129169Y0076664D01*
X0129108Y0076659D01*
X0129049Y0076650D01*
X0128990Y0076637D01*
X0128931Y0076621D01*
X0128874Y0076601D01*
X0128819Y0076578D01*
X0128764Y0076551D01*
X0128712Y0076522D01*
X0128661Y0076489D01*
X0128612Y0076453D01*
X0128566Y0076415D01*
X0128522Y0076373D01*
X0128480Y0076329D01*
X0128442Y0076283D01*
X0128406Y0076234D01*
X0128373Y0076183D01*
X0128344Y0076131D01*
X0128317Y0076076D01*
X0128294Y0076021D01*
X0128274Y0075964D01*
X0128258Y0075905D01*
X0128245Y0075846D01*
X0128236Y0075787D01*
X0128231Y0075726D01*
X0128229Y0075666D01*
X0128229Y0069666D01*
X0128231Y0069606D01*
X0128236Y0069545D01*
X0128245Y0069486D01*
X0128258Y0069427D01*
X0128274Y0069368D01*
X0128294Y0069311D01*
X0128317Y0069256D01*
X0128344Y0069201D01*
X0128373Y0069149D01*
X0128406Y0069098D01*
X0128442Y0069049D01*
X0128480Y0069003D01*
X0128522Y0068959D01*
X0128566Y0068917D01*
X0128612Y0068879D01*
X0128661Y0068843D01*
X0128712Y0068810D01*
X0128764Y0068781D01*
X0128819Y0068754D01*
X0128874Y0068731D01*
X0128931Y0068711D01*
X0128990Y0068695D01*
X0129049Y0068682D01*
X0129108Y0068673D01*
X0129169Y0068668D01*
X0129229Y0068666D01*
X0152265Y0068666D01*
X0152265Y0069166D01*
X0148934Y0072666D02*
X0146934Y0072666D01*
X0146934Y0070666D01*
X0145434Y0070666D02*
X0145434Y0074666D01*
X0143934Y0074666D01*
X0143934Y0070666D01*
X0145434Y0070666D01*
X0146934Y0072666D02*
X0146934Y0074666D01*
X0142434Y0074666D02*
X0142434Y0072666D01*
X0142434Y0070666D01*
X0142434Y0072666D02*
X0140434Y0072666D01*
X0152265Y0076166D02*
X0153765Y0076166D01*
X0106627Y0118733D02*
X0106627Y0128969D01*
X0106625Y0129038D01*
X0106619Y0129107D01*
X0106610Y0129176D01*
X0106597Y0129244D01*
X0106580Y0129311D01*
X0106560Y0129378D01*
X0106536Y0129443D01*
X0106509Y0129506D01*
X0106478Y0129569D01*
X0106444Y0129629D01*
X0106406Y0129687D01*
X0106366Y0129744D01*
X0106323Y0129798D01*
X0106276Y0129849D01*
X0106227Y0129898D01*
X0106176Y0129945D01*
X0106122Y0129988D01*
X0106065Y0130028D01*
X0106007Y0130066D01*
X0105947Y0130100D01*
X0105884Y0130131D01*
X0105821Y0130158D01*
X0105756Y0130182D01*
X0105689Y0130202D01*
X0105622Y0130219D01*
X0105554Y0130232D01*
X0105485Y0130241D01*
X0105416Y0130247D01*
X0105347Y0130249D01*
X0095111Y0130249D02*
X0095042Y0130247D01*
X0094973Y0130241D01*
X0094904Y0130232D01*
X0094836Y0130219D01*
X0094769Y0130202D01*
X0094702Y0130182D01*
X0094637Y0130158D01*
X0094574Y0130131D01*
X0094511Y0130100D01*
X0094451Y0130066D01*
X0094393Y0130028D01*
X0094336Y0129988D01*
X0094282Y0129945D01*
X0094231Y0129898D01*
X0094182Y0129849D01*
X0094135Y0129798D01*
X0094092Y0129744D01*
X0094052Y0129687D01*
X0094014Y0129629D01*
X0093980Y0129569D01*
X0093949Y0129506D01*
X0093922Y0129443D01*
X0093898Y0129378D01*
X0093878Y0129311D01*
X0093861Y0129244D01*
X0093848Y0129176D01*
X0093839Y0129107D01*
X0093833Y0129038D01*
X0093831Y0128969D01*
X0093831Y0118733D01*
X0093833Y0118664D01*
X0093839Y0118595D01*
X0093848Y0118526D01*
X0093861Y0118458D01*
X0093878Y0118391D01*
X0093898Y0118324D01*
X0093922Y0118259D01*
X0093949Y0118196D01*
X0093980Y0118133D01*
X0094014Y0118073D01*
X0094052Y0118015D01*
X0094092Y0117958D01*
X0094135Y0117904D01*
X0094182Y0117853D01*
X0094231Y0117804D01*
X0094282Y0117757D01*
X0094336Y0117714D01*
X0094393Y0117674D01*
X0094451Y0117636D01*
X0094511Y0117602D01*
X0094574Y0117571D01*
X0094637Y0117544D01*
X0094702Y0117520D01*
X0094769Y0117500D01*
X0094836Y0117483D01*
X0094904Y0117470D01*
X0094973Y0117461D01*
X0095042Y0117455D01*
X0095111Y0117453D01*
X0105347Y0117453D02*
X0105416Y0117455D01*
X0105485Y0117461D01*
X0105554Y0117470D01*
X0105622Y0117483D01*
X0105689Y0117500D01*
X0105756Y0117520D01*
X0105821Y0117544D01*
X0105884Y0117571D01*
X0105947Y0117602D01*
X0106007Y0117636D01*
X0106065Y0117674D01*
X0106122Y0117714D01*
X0106176Y0117757D01*
X0106227Y0117804D01*
X0106276Y0117853D01*
X0106323Y0117904D01*
X0106366Y0117958D01*
X0106406Y0118015D01*
X0106444Y0118073D01*
X0106478Y0118133D01*
X0106509Y0118196D01*
X0106536Y0118259D01*
X0106560Y0118324D01*
X0106580Y0118391D01*
X0106597Y0118458D01*
X0106610Y0118526D01*
X0106619Y0118595D01*
X0106625Y0118664D01*
X0106627Y0118733D01*
X0164713Y0156780D02*
X0167213Y0154280D01*
X0172213Y0154280D01*
X0174713Y0156780D01*
X0177213Y0154280D01*
X0182213Y0154280D01*
X0184713Y0156780D01*
X0187213Y0154280D01*
X0192213Y0154280D01*
X0194713Y0156780D01*
X0197213Y0154280D01*
X0202213Y0154280D01*
X0204713Y0156780D01*
X0207213Y0154280D01*
X0212213Y0154280D01*
X0214713Y0156780D01*
X0217213Y0154280D01*
X0222213Y0154280D01*
X0224713Y0156780D01*
X0224713Y0161780D01*
X0222213Y0164280D01*
X0217213Y0164280D01*
X0214713Y0161780D01*
X0212213Y0164280D01*
X0207213Y0164280D01*
X0204713Y0161780D01*
X0202213Y0164280D01*
X0197213Y0164280D01*
X0194713Y0161780D01*
X0192213Y0164280D01*
X0187213Y0164280D01*
X0184713Y0161780D01*
X0182213Y0164280D01*
X0177213Y0164280D01*
X0174713Y0161780D01*
X0172213Y0164280D01*
X0167213Y0164280D01*
X0164713Y0161780D01*
X0164713Y0156780D01*
X0265324Y0022548D02*
X0270324Y0022548D01*
X0272824Y0020048D01*
X0275324Y0022548D01*
X0280324Y0022548D01*
X0282824Y0020048D01*
X0285324Y0022548D01*
X0290324Y0022548D01*
X0292824Y0020048D01*
X0295324Y0022548D01*
X0300324Y0022548D01*
X0302824Y0020048D01*
X0305324Y0022548D01*
X0310324Y0022548D01*
X0312824Y0020048D01*
X0315324Y0022548D01*
X0320324Y0022548D01*
X0322824Y0020048D01*
X0325324Y0022548D01*
X0330324Y0022548D01*
X0332824Y0020048D01*
X0335324Y0022548D01*
X0340324Y0022548D01*
X0342824Y0020048D01*
X0345324Y0022548D01*
X0350324Y0022548D01*
X0352824Y0020048D01*
X0355324Y0022548D01*
X0360324Y0022548D01*
X0362824Y0020048D01*
X0362824Y0015048D01*
X0360324Y0012548D01*
X0355324Y0012548D01*
X0352824Y0015048D01*
X0350324Y0012548D01*
X0345324Y0012548D01*
X0342824Y0015048D01*
X0340324Y0012548D01*
X0335324Y0012548D01*
X0332824Y0015048D01*
X0330324Y0012548D01*
X0325324Y0012548D01*
X0322824Y0015048D01*
X0320324Y0012548D01*
X0315324Y0012548D01*
X0312824Y0015048D01*
X0310324Y0012548D01*
X0305324Y0012548D01*
X0302824Y0015048D01*
X0300324Y0012548D01*
X0295324Y0012548D01*
X0292824Y0015048D01*
X0290324Y0012548D01*
X0285324Y0012548D01*
X0282824Y0015048D01*
X0280324Y0012548D01*
X0275324Y0012548D01*
X0272824Y0015048D01*
X0270324Y0012548D01*
X0265324Y0012548D01*
X0262824Y0015048D01*
X0262824Y0020048D01*
X0265324Y0022548D01*
D117*
X0266720Y0010802D02*
X0268222Y0010802D01*
X0268972Y0010051D01*
X0265970Y0007049D01*
X0266720Y0006298D01*
X0268222Y0006298D01*
X0268972Y0007049D01*
X0268972Y0010051D01*
X0266720Y0010802D02*
X0265970Y0010051D01*
X0265970Y0007049D01*
X0264368Y0006298D02*
X0261366Y0006298D01*
X0262867Y0006298D02*
X0262867Y0010802D01*
X0261366Y0009301D01*
X0355470Y0024298D02*
X0358472Y0024298D01*
X0356971Y0024298D02*
X0356971Y0028802D01*
X0355470Y0027301D01*
X0222272Y0068729D02*
X0222272Y0115973D01*
X0175028Y0115973D01*
X0175028Y0068729D01*
X0222272Y0068729D01*
X0176410Y0113603D02*
X0176412Y0113669D01*
X0176418Y0113735D01*
X0176428Y0113801D01*
X0176441Y0113866D01*
X0176459Y0113930D01*
X0176480Y0113992D01*
X0176505Y0114054D01*
X0176533Y0114114D01*
X0176565Y0114172D01*
X0176601Y0114228D01*
X0176639Y0114281D01*
X0176681Y0114333D01*
X0176726Y0114382D01*
X0176773Y0114428D01*
X0176824Y0114471D01*
X0176876Y0114511D01*
X0176931Y0114548D01*
X0176988Y0114582D01*
X0177047Y0114612D01*
X0177108Y0114639D01*
X0177170Y0114662D01*
X0177233Y0114681D01*
X0177298Y0114697D01*
X0177363Y0114709D01*
X0177429Y0114717D01*
X0177495Y0114721D01*
X0177561Y0114721D01*
X0177627Y0114717D01*
X0177693Y0114709D01*
X0177758Y0114697D01*
X0177823Y0114681D01*
X0177886Y0114662D01*
X0177948Y0114639D01*
X0178009Y0114612D01*
X0178068Y0114582D01*
X0178125Y0114548D01*
X0178180Y0114511D01*
X0178232Y0114471D01*
X0178283Y0114428D01*
X0178330Y0114382D01*
X0178375Y0114333D01*
X0178417Y0114281D01*
X0178455Y0114228D01*
X0178491Y0114172D01*
X0178523Y0114114D01*
X0178551Y0114054D01*
X0178576Y0113992D01*
X0178597Y0113930D01*
X0178615Y0113866D01*
X0178628Y0113801D01*
X0178638Y0113735D01*
X0178644Y0113669D01*
X0178646Y0113603D01*
X0178644Y0113537D01*
X0178638Y0113471D01*
X0178628Y0113405D01*
X0178615Y0113340D01*
X0178597Y0113276D01*
X0178576Y0113214D01*
X0178551Y0113152D01*
X0178523Y0113092D01*
X0178491Y0113034D01*
X0178455Y0112978D01*
X0178417Y0112925D01*
X0178375Y0112873D01*
X0178330Y0112824D01*
X0178283Y0112778D01*
X0178232Y0112735D01*
X0178180Y0112695D01*
X0178125Y0112658D01*
X0178068Y0112624D01*
X0178009Y0112594D01*
X0177948Y0112567D01*
X0177886Y0112544D01*
X0177823Y0112525D01*
X0177758Y0112509D01*
X0177693Y0112497D01*
X0177627Y0112489D01*
X0177561Y0112485D01*
X0177495Y0112485D01*
X0177429Y0112489D01*
X0177363Y0112497D01*
X0177298Y0112509D01*
X0177233Y0112525D01*
X0177170Y0112544D01*
X0177108Y0112567D01*
X0177047Y0112594D01*
X0176988Y0112624D01*
X0176931Y0112658D01*
X0176876Y0112695D01*
X0176824Y0112735D01*
X0176773Y0112778D01*
X0176726Y0112824D01*
X0176681Y0112873D01*
X0176639Y0112925D01*
X0176601Y0112978D01*
X0176565Y0113034D01*
X0176533Y0113092D01*
X0176505Y0113152D01*
X0176480Y0113214D01*
X0176459Y0113276D01*
X0176441Y0113340D01*
X0176428Y0113405D01*
X0176418Y0113471D01*
X0176412Y0113537D01*
X0176410Y0113603D01*
X0176128Y0123605D02*
X0174627Y0123605D01*
X0173876Y0124356D01*
X0173876Y0125857D02*
X0175377Y0126608D01*
X0176128Y0126608D01*
X0176879Y0125857D01*
X0176879Y0124356D01*
X0176128Y0123605D01*
X0178480Y0123605D02*
X0181482Y0126608D01*
X0181482Y0127358D01*
X0180732Y0128109D01*
X0179231Y0128109D01*
X0178480Y0127358D01*
X0176879Y0128109D02*
X0173876Y0128109D01*
X0173876Y0125857D01*
X0172275Y0125857D02*
X0172275Y0124356D01*
X0171524Y0123605D01*
X0170023Y0123605D01*
X0169272Y0124356D01*
X0169272Y0125857D02*
X0170773Y0126608D01*
X0171524Y0126608D01*
X0172275Y0125857D01*
X0172275Y0128109D02*
X0169272Y0128109D01*
X0169272Y0125857D01*
X0167671Y0128109D02*
X0164668Y0128109D01*
X0164668Y0123605D01*
X0164668Y0125857D02*
X0166169Y0125857D01*
X0165714Y0130751D02*
X0167215Y0130751D01*
X0167966Y0131501D01*
X0167966Y0135255D01*
X0169567Y0134504D02*
X0170318Y0135255D01*
X0171819Y0135255D01*
X0172570Y0134504D01*
X0174171Y0134504D02*
X0174922Y0135255D01*
X0176423Y0135255D01*
X0177174Y0134504D01*
X0177174Y0133753D01*
X0176423Y0133003D01*
X0177174Y0132252D01*
X0177174Y0131501D01*
X0176423Y0130751D01*
X0174922Y0130751D01*
X0174171Y0131501D01*
X0172570Y0131501D02*
X0171819Y0130751D01*
X0170318Y0130751D01*
X0169567Y0131501D01*
X0170318Y0133003D02*
X0169567Y0133753D01*
X0169567Y0134504D01*
X0170318Y0133003D02*
X0171819Y0133003D01*
X0172570Y0132252D01*
X0172570Y0131501D01*
X0171069Y0130000D02*
X0171069Y0136005D01*
X0175673Y0133003D02*
X0176423Y0133003D01*
X0183084Y0128109D02*
X0186086Y0123605D01*
X0183084Y0123605D02*
X0186086Y0128109D01*
X0187688Y0125857D02*
X0190690Y0125857D01*
X0192292Y0125857D02*
X0195294Y0125857D01*
X0196896Y0125857D02*
X0199898Y0125857D01*
X0201500Y0125106D02*
X0203751Y0125106D01*
X0204502Y0125857D01*
X0204502Y0127358D01*
X0203751Y0128109D01*
X0201500Y0128109D01*
X0201500Y0123605D01*
X0206103Y0123605D02*
X0206103Y0128109D01*
X0209106Y0123605D01*
X0209106Y0128109D01*
X0210707Y0127358D02*
X0211458Y0128109D01*
X0212959Y0128109D01*
X0213710Y0127358D01*
X0213710Y0126608D01*
X0212959Y0125857D01*
X0211458Y0125857D01*
X0210707Y0126608D01*
X0210707Y0127358D01*
X0211458Y0125857D02*
X0210707Y0125106D01*
X0210707Y0124356D01*
X0211458Y0123605D01*
X0212959Y0123605D01*
X0213710Y0124356D01*
X0213710Y0125106D01*
X0212959Y0125857D01*
X0215311Y0124356D02*
X0218314Y0127358D01*
X0218314Y0124356D01*
X0217563Y0123605D01*
X0216062Y0123605D01*
X0215311Y0124356D01*
X0215311Y0127358D01*
X0216062Y0128109D01*
X0217563Y0128109D01*
X0218314Y0127358D01*
X0181482Y0123605D02*
X0178480Y0123605D01*
X0165714Y0130751D02*
X0164963Y0131501D01*
X0164963Y0135255D01*
X0168610Y0148030D02*
X0170111Y0148030D01*
X0170862Y0148781D01*
X0170862Y0149532D01*
X0170111Y0150282D01*
X0167859Y0150282D01*
X0167859Y0148781D01*
X0168610Y0148030D01*
X0167859Y0150282D02*
X0169361Y0151784D01*
X0170862Y0152534D01*
X0217859Y0166030D02*
X0220862Y0166030D01*
X0219361Y0166030D02*
X0219361Y0170534D01*
X0217859Y0169033D01*
X0123471Y0145291D02*
X0121219Y0143039D01*
X0121970Y0142288D02*
X0118967Y0145291D01*
X0118967Y0142288D02*
X0123471Y0142288D01*
X0122721Y0140687D02*
X0121219Y0140687D01*
X0121219Y0139186D01*
X0119718Y0140687D02*
X0118967Y0139936D01*
X0118967Y0138435D01*
X0119718Y0137685D01*
X0122721Y0137685D01*
X0123471Y0138435D01*
X0123471Y0139936D01*
X0122721Y0140687D01*
X0122721Y0136083D02*
X0119718Y0136083D01*
X0118967Y0135333D01*
X0118967Y0133081D01*
X0123471Y0133081D01*
X0123471Y0135333D01*
X0122721Y0136083D01*
X0122721Y0131479D02*
X0123471Y0130729D01*
X0123471Y0129227D01*
X0122721Y0128477D01*
X0122721Y0126875D02*
X0123471Y0126125D01*
X0123471Y0124623D01*
X0122721Y0123873D01*
X0122721Y0122271D02*
X0123471Y0121521D01*
X0123471Y0120020D01*
X0122721Y0119269D01*
X0123471Y0117668D02*
X0123471Y0114665D01*
X0120469Y0117668D01*
X0119718Y0117668D01*
X0118967Y0116917D01*
X0118967Y0115416D01*
X0119718Y0114665D01*
X0120469Y0113064D02*
X0123471Y0113064D01*
X0121219Y0113064D02*
X0121219Y0110061D01*
X0120469Y0110061D02*
X0123471Y0110061D01*
X0121219Y0108460D02*
X0119718Y0108460D01*
X0118967Y0107709D01*
X0118967Y0105457D01*
X0123471Y0105457D01*
X0121970Y0105457D02*
X0121970Y0107709D01*
X0121219Y0108460D01*
X0120469Y0110061D02*
X0118967Y0111562D01*
X0120469Y0113064D01*
X0119718Y0119269D02*
X0118967Y0120020D01*
X0118967Y0121521D01*
X0119718Y0122271D01*
X0120469Y0122271D01*
X0121219Y0121521D01*
X0121970Y0122271D01*
X0122721Y0122271D01*
X0121219Y0121521D02*
X0121219Y0120770D01*
X0119718Y0123873D02*
X0118967Y0124623D01*
X0118967Y0126125D01*
X0119718Y0126875D01*
X0120469Y0126875D01*
X0121219Y0126125D01*
X0121970Y0126875D01*
X0122721Y0126875D01*
X0121219Y0126125D02*
X0121219Y0125374D01*
X0119718Y0128477D02*
X0118967Y0129227D01*
X0118967Y0130729D01*
X0119718Y0131479D01*
X0120469Y0131479D01*
X0121219Y0130729D01*
X0121970Y0131479D01*
X0122721Y0131479D01*
X0121219Y0130729D02*
X0121219Y0129978D01*
X0112975Y0129493D02*
X0112975Y0132496D01*
X0112975Y0130995D02*
X0108471Y0130995D01*
X0109973Y0129493D01*
X0109222Y0127892D02*
X0108471Y0127141D01*
X0108471Y0125640D01*
X0109222Y0124889D01*
X0112225Y0124889D01*
X0112975Y0125640D01*
X0112975Y0127141D01*
X0112225Y0127892D01*
X0112975Y0123321D02*
X0112975Y0121820D01*
X0112975Y0122571D02*
X0108471Y0122571D01*
X0108471Y0123321D02*
X0108471Y0121820D01*
X0119718Y0103856D02*
X0118967Y0103105D01*
X0118967Y0101604D01*
X0119718Y0100853D01*
X0122721Y0100853D01*
X0123471Y0101604D01*
X0123471Y0103105D01*
X0122721Y0103856D01*
X0119718Y0103856D01*
X0117063Y0075164D02*
X0115562Y0075164D01*
X0114811Y0074413D01*
X0113210Y0074413D02*
X0113210Y0071411D01*
X0112459Y0070660D01*
X0110958Y0070660D01*
X0110207Y0071411D01*
X0110207Y0074413D01*
X0110958Y0075164D01*
X0112459Y0075164D01*
X0113210Y0074413D01*
X0111709Y0072162D02*
X0113210Y0070660D01*
X0114811Y0070660D02*
X0117814Y0073663D01*
X0117814Y0074413D01*
X0117063Y0075164D01*
X0117814Y0070660D02*
X0114811Y0070660D01*
X0115459Y0067172D02*
X0116961Y0067172D01*
X0117711Y0066421D01*
X0117711Y0065671D01*
X0116961Y0064920D01*
X0115459Y0064920D01*
X0114709Y0065671D01*
X0114709Y0066421D01*
X0115459Y0067172D01*
X0115459Y0064920D02*
X0114709Y0064169D01*
X0114709Y0063419D01*
X0115459Y0062668D01*
X0116961Y0062668D01*
X0117711Y0063419D01*
X0117711Y0064169D01*
X0116961Y0064920D01*
X0119313Y0064169D02*
X0121564Y0065671D01*
X0123149Y0064920D02*
X0126152Y0064920D01*
X0127753Y0065671D02*
X0130756Y0065671D01*
X0127753Y0062668D01*
X0130756Y0062668D01*
X0126152Y0062668D02*
X0126152Y0067172D01*
X0123149Y0067172D02*
X0123149Y0062668D01*
X0121564Y0062668D02*
X0119313Y0064169D01*
X0119313Y0062668D02*
X0119313Y0067172D01*
X0113107Y0067172D02*
X0111606Y0066421D01*
X0110105Y0064920D01*
X0112357Y0064920D01*
X0113107Y0064169D01*
X0113107Y0063419D01*
X0112357Y0062668D01*
X0110855Y0062668D01*
X0110105Y0063419D01*
X0110105Y0064920D01*
X0108503Y0066421D02*
X0105501Y0063419D01*
X0105501Y0062668D01*
X0103949Y0062668D02*
X0103199Y0062668D01*
X0103199Y0063419D01*
X0103949Y0063419D01*
X0103949Y0062668D01*
X0101597Y0062668D02*
X0098595Y0062668D01*
X0101597Y0065671D01*
X0101597Y0066421D01*
X0100847Y0067172D01*
X0099346Y0067172D01*
X0098595Y0066421D01*
X0096994Y0066421D02*
X0096994Y0065671D01*
X0096243Y0064920D01*
X0096994Y0064169D01*
X0096994Y0063419D01*
X0096243Y0062668D01*
X0094742Y0062668D01*
X0093991Y0063419D01*
X0095492Y0064920D02*
X0096243Y0064920D01*
X0096994Y0066421D02*
X0096243Y0067172D01*
X0094742Y0067172D01*
X0093991Y0066421D01*
X0105501Y0067172D02*
X0108503Y0067172D01*
X0108503Y0066421D01*
D118*
X0179930Y0066485D03*
X0181898Y0066485D03*
X0183867Y0066485D03*
X0185835Y0066485D03*
X0187804Y0066485D03*
X0189772Y0066485D03*
X0191741Y0066485D03*
X0193709Y0066485D03*
X0195678Y0066485D03*
X0197646Y0066485D03*
X0199615Y0066485D03*
X0201583Y0066485D03*
X0203552Y0066485D03*
X0205520Y0066485D03*
X0207489Y0066485D03*
X0209457Y0066485D03*
X0211426Y0066485D03*
X0213394Y0066485D03*
X0215363Y0066485D03*
X0217331Y0066485D03*
X0217331Y0118217D03*
X0215363Y0118217D03*
X0213394Y0118217D03*
X0211426Y0118217D03*
X0209457Y0118217D03*
X0207489Y0118217D03*
X0205520Y0118217D03*
X0203552Y0118217D03*
X0201583Y0118217D03*
X0199615Y0118217D03*
X0197646Y0118217D03*
X0195678Y0118217D03*
X0193709Y0118217D03*
X0191741Y0118217D03*
X0189772Y0118217D03*
X0187804Y0118217D03*
X0185835Y0118217D03*
X0183867Y0118217D03*
X0181898Y0118217D03*
X0179930Y0118217D03*
D119*
X0172784Y0111072D03*
X0172784Y0109103D03*
X0172784Y0107135D03*
X0172784Y0105166D03*
X0172784Y0103198D03*
X0172784Y0101229D03*
X0172784Y0099261D03*
X0172784Y0097292D03*
X0172784Y0095324D03*
X0172784Y0093355D03*
X0172784Y0091387D03*
X0172784Y0089418D03*
X0172784Y0087450D03*
X0172784Y0085481D03*
X0172784Y0083513D03*
X0172784Y0081544D03*
X0172784Y0079576D03*
X0172784Y0077607D03*
X0172784Y0075639D03*
X0172784Y0073670D03*
X0224517Y0073670D03*
X0224517Y0075639D03*
X0224517Y0077607D03*
X0224517Y0079576D03*
X0224517Y0081544D03*
X0224517Y0083513D03*
X0224517Y0085481D03*
X0224517Y0087450D03*
X0224517Y0089418D03*
X0224517Y0091387D03*
X0224517Y0093355D03*
X0224517Y0095324D03*
X0224517Y0097292D03*
X0224517Y0099261D03*
X0224517Y0101229D03*
X0224517Y0103198D03*
X0224517Y0105166D03*
X0224517Y0107135D03*
X0224517Y0109103D03*
X0224517Y0111072D03*
D120*
X0101979Y0126960D02*
X0101981Y0127048D01*
X0101987Y0127136D01*
X0101997Y0127224D01*
X0102011Y0127312D01*
X0102028Y0127398D01*
X0102050Y0127484D01*
X0102075Y0127568D01*
X0102105Y0127652D01*
X0102137Y0127734D01*
X0102174Y0127814D01*
X0102214Y0127893D01*
X0102258Y0127970D01*
X0102305Y0128045D01*
X0102355Y0128117D01*
X0102409Y0128188D01*
X0102465Y0128255D01*
X0102525Y0128321D01*
X0102587Y0128383D01*
X0102653Y0128443D01*
X0102720Y0128499D01*
X0102791Y0128553D01*
X0102863Y0128603D01*
X0102938Y0128650D01*
X0103015Y0128694D01*
X0103094Y0128734D01*
X0103174Y0128771D01*
X0103256Y0128803D01*
X0103340Y0128833D01*
X0103424Y0128858D01*
X0103510Y0128880D01*
X0103596Y0128897D01*
X0103684Y0128911D01*
X0103772Y0128921D01*
X0103860Y0128927D01*
X0103948Y0128929D01*
X0104036Y0128927D01*
X0104124Y0128921D01*
X0104212Y0128911D01*
X0104300Y0128897D01*
X0104386Y0128880D01*
X0104472Y0128858D01*
X0104556Y0128833D01*
X0104640Y0128803D01*
X0104722Y0128771D01*
X0104802Y0128734D01*
X0104881Y0128694D01*
X0104958Y0128650D01*
X0105033Y0128603D01*
X0105105Y0128553D01*
X0105176Y0128499D01*
X0105243Y0128443D01*
X0105309Y0128383D01*
X0105371Y0128321D01*
X0105431Y0128255D01*
X0105487Y0128188D01*
X0105541Y0128117D01*
X0105591Y0128045D01*
X0105638Y0127970D01*
X0105682Y0127893D01*
X0105722Y0127814D01*
X0105759Y0127734D01*
X0105791Y0127652D01*
X0105821Y0127568D01*
X0105846Y0127484D01*
X0105868Y0127398D01*
X0105885Y0127312D01*
X0105899Y0127224D01*
X0105909Y0127136D01*
X0105915Y0127048D01*
X0105917Y0126960D01*
X0105915Y0126872D01*
X0105909Y0126784D01*
X0105899Y0126696D01*
X0105885Y0126608D01*
X0105868Y0126522D01*
X0105846Y0126436D01*
X0105821Y0126352D01*
X0105791Y0126268D01*
X0105759Y0126186D01*
X0105722Y0126106D01*
X0105682Y0126027D01*
X0105638Y0125950D01*
X0105591Y0125875D01*
X0105541Y0125803D01*
X0105487Y0125732D01*
X0105431Y0125665D01*
X0105371Y0125599D01*
X0105309Y0125537D01*
X0105243Y0125477D01*
X0105176Y0125421D01*
X0105105Y0125367D01*
X0105033Y0125317D01*
X0104958Y0125270D01*
X0104881Y0125226D01*
X0104802Y0125186D01*
X0104722Y0125149D01*
X0104640Y0125117D01*
X0104556Y0125087D01*
X0104472Y0125062D01*
X0104386Y0125040D01*
X0104300Y0125023D01*
X0104212Y0125009D01*
X0104124Y0124999D01*
X0104036Y0124993D01*
X0103948Y0124991D01*
X0103860Y0124993D01*
X0103772Y0124999D01*
X0103684Y0125009D01*
X0103596Y0125023D01*
X0103510Y0125040D01*
X0103424Y0125062D01*
X0103340Y0125087D01*
X0103256Y0125117D01*
X0103174Y0125149D01*
X0103094Y0125186D01*
X0103015Y0125226D01*
X0102938Y0125270D01*
X0102863Y0125317D01*
X0102791Y0125367D01*
X0102720Y0125421D01*
X0102653Y0125477D01*
X0102587Y0125537D01*
X0102525Y0125599D01*
X0102465Y0125665D01*
X0102409Y0125732D01*
X0102355Y0125803D01*
X0102305Y0125875D01*
X0102258Y0125950D01*
X0102214Y0126027D01*
X0102174Y0126106D01*
X0102137Y0126186D01*
X0102105Y0126268D01*
X0102075Y0126352D01*
X0102050Y0126436D01*
X0102028Y0126522D01*
X0102011Y0126608D01*
X0101997Y0126696D01*
X0101987Y0126784D01*
X0101981Y0126872D01*
X0101979Y0126960D01*
M02*
