%
M48
M72
T01C0.02362
T02C0.03937
T03C0.04000
%
T01
X63808Y33296
X126800Y32312
X148454Y52981
X177981Y46091
X209477Y32312
X231131Y18532
X253769Y18532
X266564Y36249
X280343Y36249
X291170Y32312
X292154Y59871
X273454Y59871
X251800Y58887
X232115Y59871
X214398Y77587
X183887Y76603
X166170Y81524
X161249Y94320
X140580Y91367
X119910Y72666
X80540Y83493
X51013Y87430
X51013Y112036
X80540Y135658
X99241Y125816
X111052Y119910
X118926Y112036
X131721Y125816
X86446Y146485
X46091Y164202
X127784Y160265
X152391Y159280
X255737Y156328
X279359Y143532
X254753Y128769
X214398Y106131
X184871Y106131
X250816Y85461
X258690Y92351
X266564Y78572
X280343Y78572
X310855Y59871
X364989Y70698
X364989Y88414
X319713Y88414
X320698Y113020
X339398Y142548
X339398Y159280
T02
X41485Y23926
X51485Y23926
X61485Y23926
X71485Y23926
X81485Y23926
X81485Y13926
X71485Y13926
X61485Y13926
X51485Y13926
X41485Y13926
X351485Y98926
X361485Y98926
X361485Y108926
X351485Y108926
X351485Y118926
X361485Y118926
X361485Y128926
X351485Y128926
X351485Y138926
X361485Y138926
X361485Y148926
X351485Y148926
X351485Y158926
X361485Y158926
X361485Y168926
X351485Y168926
T03
X169713Y159280
X179713Y159280
X189713Y159280
X199713Y159280
X209713Y159280
X219713Y159280
X267824Y17548
X277824Y17548
X287824Y17548
X297824Y17548
X307824Y17548
X317824Y17548
X327824Y17548
X337824Y17548
X347824Y17548
X357824Y17548
M30
