G75*
%MOIN*%
%OFA0B0*%
%FSLAX25Y25*%
%IPPOS*%
%LPD*%
%AMOC8*
5,1,8,0,0,1.08239X$1,22.5*
%
%ADD10C,0.00000*%
%ADD11R,0.06600X0.06600*%
%ADD12C,0.06600*%
%ADD13R,0.01181X0.05315*%
%ADD14R,0.05315X0.01181*%
%ADD15C,0.06000*%
%ADD16R,0.01181X0.04724*%
%ADD17R,0.03937X0.04331*%
%ADD18R,0.04331X0.03937*%
%ADD19R,0.07677X0.05906*%
%ADD20R,0.05000X0.02500*%
%ADD21R,0.10000X0.05000*%
%ADD22C,0.01181*%
%ADD23C,0.01600*%
%ADD24C,0.03562*%
%ADD25C,0.01000*%
%ADD26C,0.01969*%
%ADD27C,0.01200*%
D10*
X0021485Y0001800D02*
X0021485Y0178965D01*
X0375186Y0178887D01*
X0375816Y0001800D01*
X0021485Y0001800D01*
D11*
X0041485Y0013926D03*
X0351485Y0148926D03*
X0351485Y0158926D03*
X0351485Y0168926D03*
D12*
X0361485Y0168926D03*
X0361485Y0158926D03*
X0361485Y0148926D03*
X0361485Y0138926D03*
X0351485Y0138926D03*
X0351485Y0128926D03*
X0361485Y0128926D03*
X0361485Y0118926D03*
X0351485Y0118926D03*
X0351485Y0108926D03*
X0361485Y0108926D03*
X0361485Y0098926D03*
X0351485Y0098926D03*
X0081485Y0023926D03*
X0071485Y0023926D03*
X0061485Y0023926D03*
X0051485Y0023926D03*
X0041485Y0023926D03*
X0051485Y0013926D03*
X0061485Y0013926D03*
X0071485Y0013926D03*
X0081485Y0013926D03*
D13*
X0179950Y0065481D03*
X0181918Y0065481D03*
X0183887Y0065481D03*
X0185855Y0065481D03*
X0187824Y0065481D03*
X0189792Y0065481D03*
X0191761Y0065481D03*
X0193729Y0065481D03*
X0195698Y0065481D03*
X0197666Y0065481D03*
X0199635Y0065481D03*
X0201603Y0065481D03*
X0203572Y0065481D03*
X0205540Y0065481D03*
X0207509Y0065481D03*
X0209477Y0065481D03*
X0211446Y0065481D03*
X0213414Y0065481D03*
X0215383Y0065481D03*
X0217351Y0065481D03*
X0217351Y0119221D03*
X0215383Y0119221D03*
X0213414Y0119221D03*
X0211446Y0119221D03*
X0209477Y0119221D03*
X0207509Y0119221D03*
X0205540Y0119221D03*
X0203572Y0119221D03*
X0201603Y0119221D03*
X0199635Y0119221D03*
X0197666Y0119221D03*
X0195698Y0119221D03*
X0193729Y0119221D03*
X0191761Y0119221D03*
X0189792Y0119221D03*
X0187824Y0119221D03*
X0185855Y0119221D03*
X0183887Y0119221D03*
X0181918Y0119221D03*
X0179950Y0119221D03*
D14*
X0171780Y0111052D03*
X0171780Y0109083D03*
X0171780Y0107115D03*
X0171780Y0105146D03*
X0171780Y0103178D03*
X0171780Y0101209D03*
X0171780Y0099241D03*
X0171780Y0097272D03*
X0171780Y0095304D03*
X0171780Y0093335D03*
X0171780Y0091367D03*
X0171780Y0089398D03*
X0171780Y0087430D03*
X0171780Y0085461D03*
X0171780Y0083493D03*
X0171780Y0081524D03*
X0171780Y0079556D03*
X0171780Y0077587D03*
X0171780Y0075619D03*
X0171780Y0073650D03*
X0225520Y0073650D03*
X0225520Y0075619D03*
X0225520Y0077587D03*
X0225520Y0079556D03*
X0225520Y0081524D03*
X0225520Y0083493D03*
X0225520Y0085461D03*
X0225520Y0087430D03*
X0225520Y0089398D03*
X0225520Y0091367D03*
X0225520Y0093335D03*
X0225520Y0095304D03*
X0225520Y0097272D03*
X0225520Y0099241D03*
X0225520Y0101209D03*
X0225520Y0103178D03*
X0225520Y0105146D03*
X0225520Y0107115D03*
X0225520Y0109083D03*
X0225520Y0111052D03*
D15*
X0219713Y0156280D02*
X0219713Y0162280D01*
X0209713Y0162280D02*
X0209713Y0156280D01*
X0199713Y0156280D02*
X0199713Y0162280D01*
X0189713Y0162280D02*
X0189713Y0156280D01*
X0179713Y0156280D02*
X0179713Y0162280D01*
X0169713Y0162280D02*
X0169713Y0156280D01*
X0267824Y0020548D02*
X0267824Y0014548D01*
X0277824Y0014548D02*
X0277824Y0020548D01*
X0287824Y0020548D02*
X0287824Y0014548D01*
X0297824Y0014548D02*
X0297824Y0020548D01*
X0307824Y0020548D02*
X0307824Y0014548D01*
X0317824Y0014548D02*
X0317824Y0020548D01*
X0327824Y0020548D02*
X0327824Y0014548D01*
X0337824Y0014548D02*
X0337824Y0020548D01*
X0347824Y0020548D02*
X0347824Y0014548D01*
X0357824Y0014548D02*
X0357824Y0020548D01*
D16*
X0104068Y0115532D03*
X0101509Y0115532D03*
X0098950Y0115532D03*
X0096391Y0115532D03*
X0096391Y0132166D03*
X0098950Y0132166D03*
X0101509Y0132166D03*
X0104068Y0132166D03*
D17*
X0085461Y0127194D03*
X0085461Y0120501D03*
X0071091Y0116957D03*
X0064398Y0116957D03*
X0081131Y0108099D03*
X0087824Y0108099D03*
X0087824Y0096288D03*
X0081131Y0096288D03*
X0071091Y0128769D03*
X0064398Y0128769D03*
X0064398Y0143532D03*
X0071091Y0143532D03*
X0071091Y0155343D03*
X0064398Y0155343D03*
X0092942Y0155343D03*
X0099635Y0155343D03*
X0099635Y0143532D03*
X0092942Y0143532D03*
X0240973Y0093729D03*
X0240973Y0087036D03*
X0172076Y0058296D03*
X0172076Y0051603D03*
X0305540Y0151406D03*
X0312233Y0151406D03*
X0325225Y0151406D03*
X0331918Y0151406D03*
X0331918Y0163217D03*
X0325225Y0163217D03*
X0312233Y0163217D03*
X0305540Y0163217D03*
D18*
X0214398Y0135068D03*
X0214398Y0128375D03*
X0154753Y0096288D03*
X0148060Y0096288D03*
X0148060Y0084477D03*
X0154753Y0084477D03*
X0154753Y0060855D03*
X0148060Y0060855D03*
X0155934Y0051013D03*
X0162627Y0051013D03*
X0100225Y0049635D03*
X0088414Y0049635D03*
X0076603Y0049635D03*
X0064792Y0049635D03*
X0052981Y0049635D03*
X0052981Y0056328D03*
X0064792Y0056328D03*
X0076603Y0056328D03*
X0088414Y0056328D03*
X0100225Y0056328D03*
X0041170Y0056328D03*
X0041170Y0049635D03*
D19*
X0163709Y0036249D03*
X0174536Y0036249D03*
D20*
X0157036Y0070816D03*
X0157036Y0074517D03*
D21*
X0134477Y0072666D03*
D22*
X0119910Y0072666D01*
X0100225Y0060855D02*
X0144517Y0105146D01*
X0171780Y0105146D01*
X0171780Y0107115D02*
X0142548Y0107115D01*
X0097272Y0061839D01*
X0088414Y0061839D01*
X0088414Y0056328D01*
X0076603Y0056328D02*
X0076603Y0061839D01*
X0080540Y0065776D01*
X0097272Y0065776D01*
X0140580Y0109083D01*
X0171780Y0109083D01*
X0171780Y0111052D02*
X0138611Y0111052D01*
X0096288Y0068729D01*
X0070698Y0068729D01*
X0064792Y0062824D01*
X0064792Y0056328D01*
X0052981Y0056328D02*
X0052981Y0062824D01*
X0061839Y0071682D01*
X0095304Y0071682D01*
X0142548Y0118926D01*
X0179654Y0118926D01*
X0179950Y0119221D01*
X0181918Y0119221D02*
X0181918Y0122863D01*
X0178965Y0125816D01*
X0145501Y0125816D01*
X0094320Y0074635D01*
X0052981Y0074635D01*
X0041170Y0062824D01*
X0041170Y0056328D01*
X0041170Y0049635D02*
X0041170Y0040186D01*
X0046583Y0034280D01*
X0046583Y0019517D01*
X0051013Y0015580D01*
X0051013Y0013611D01*
X0051328Y0013926D01*
X0051485Y0013926D01*
X0056426Y0019517D02*
X0056426Y0033296D01*
X0064792Y0041170D01*
X0064792Y0049635D01*
X0052981Y0049635D02*
X0052981Y0035265D01*
X0051485Y0033769D01*
X0051485Y0023926D01*
X0056426Y0019517D02*
X0061485Y0014950D01*
X0061485Y0013926D01*
X0071485Y0023650D02*
X0076603Y0018532D01*
X0076603Y0010658D01*
X0079556Y0007706D01*
X0089398Y0007706D01*
X0100225Y0018532D01*
X0100225Y0049635D01*
X0088414Y0049635D02*
X0088414Y0019517D01*
X0082824Y0013926D01*
X0081485Y0013926D01*
X0081485Y0023926D02*
X0081485Y0036288D01*
X0076603Y0041170D01*
X0076603Y0049635D01*
X0100225Y0056328D02*
X0100225Y0060855D01*
X0154753Y0060855D02*
X0157036Y0063139D01*
X0157036Y0070816D01*
X0157154Y0070698D01*
X0160265Y0070698D01*
X0162233Y0072666D01*
X0162233Y0083493D01*
X0166170Y0087430D01*
X0171780Y0087430D01*
X0171780Y0089398D02*
X0165186Y0089398D01*
X0160265Y0084477D01*
X0160265Y0075619D01*
X0159280Y0074635D01*
X0157154Y0074635D01*
X0157036Y0074517D01*
X0157312Y0074792D01*
X0157312Y0081524D01*
X0157036Y0082233D01*
X0157312Y0081524D02*
X0154753Y0084477D01*
X0164202Y0091367D02*
X0161249Y0094320D01*
X0159280Y0096288D01*
X0154753Y0096288D01*
X0164202Y0091367D02*
X0171780Y0091367D01*
X0177981Y0091367D01*
X0178965Y0090383D01*
X0178965Y0080540D01*
X0176013Y0077587D01*
X0171780Y0077587D01*
X0167154Y0077587D01*
X0167154Y0059871D01*
X0163217Y0055934D01*
X0163217Y0051013D01*
X0163217Y0036741D01*
X0163709Y0036249D01*
X0187824Y0024438D02*
X0187824Y0065481D01*
X0183887Y0065481D02*
X0183887Y0020501D01*
X0199635Y0004753D01*
X0364989Y0004753D01*
X0371879Y0011643D01*
X0371879Y0048060D01*
X0361485Y0058454D01*
X0361485Y0098926D01*
X0351485Y0098926D02*
X0351485Y0057627D01*
X0366957Y0042154D01*
X0366957Y0014595D01*
X0361052Y0008690D01*
X0219320Y0008690D01*
X0195698Y0032312D01*
X0195698Y0065481D01*
X0199635Y0065481D02*
X0199635Y0051997D01*
X0219320Y0032312D01*
X0271485Y0032312D01*
X0275422Y0036249D01*
X0280343Y0036249D01*
X0294123Y0042154D02*
X0307902Y0028375D01*
X0307902Y0017627D01*
X0307824Y0017548D01*
X0317745Y0017627D02*
X0317824Y0017548D01*
X0317745Y0017627D02*
X0317745Y0031328D01*
X0302981Y0046091D01*
X0219320Y0046091D01*
X0211446Y0053965D01*
X0211446Y0065481D01*
X0213414Y0065481D02*
X0213414Y0055934D01*
X0219320Y0050028D01*
X0314792Y0050028D01*
X0327587Y0037233D01*
X0327587Y0017784D01*
X0327824Y0017548D01*
X0337430Y0017942D02*
X0337430Y0042154D01*
X0325619Y0053965D01*
X0219320Y0053965D01*
X0215383Y0057902D01*
X0215383Y0065481D01*
X0217351Y0065481D02*
X0324930Y0065481D01*
X0347272Y0043139D01*
X0347272Y0018099D01*
X0347824Y0017548D01*
X0357824Y0017548D02*
X0358099Y0017824D01*
X0358099Y0044123D01*
X0328572Y0073650D01*
X0225520Y0073650D01*
X0214398Y0077587D02*
X0214398Y0089398D01*
X0225520Y0089398D01*
X0233099Y0089398D01*
X0235461Y0087036D01*
X0240973Y0087036D01*
X0235068Y0093335D02*
X0233099Y0091367D01*
X0225520Y0091367D01*
X0171780Y0091367D01*
X0171780Y0085461D02*
X0168139Y0085461D01*
X0166170Y0083493D01*
X0166170Y0081524D01*
X0171780Y0075619D02*
X0183887Y0075619D01*
X0172076Y0073355D02*
X0171780Y0073650D01*
X0172076Y0073355D02*
X0172076Y0058296D01*
X0163217Y0051013D02*
X0162627Y0051013D01*
X0201603Y0053965D02*
X0219320Y0036249D01*
X0266564Y0036249D01*
X0294123Y0042154D02*
X0219320Y0042154D01*
X0209477Y0051997D01*
X0209477Y0065481D01*
X0201603Y0065481D02*
X0201603Y0053965D01*
X0187824Y0024438D02*
X0205540Y0006721D01*
X0364005Y0006721D01*
X0369910Y0012627D01*
X0369910Y0044123D01*
X0356623Y0057410D01*
X0356623Y0112528D01*
X0351485Y0117666D01*
X0351485Y0118926D01*
X0305934Y0123847D02*
X0305934Y0151013D01*
X0305540Y0151406D01*
X0305934Y0151406D01*
X0312233Y0151406D02*
X0312233Y0157312D01*
X0325225Y0157312D01*
X0325225Y0163217D01*
X0331918Y0163217D02*
X0337627Y0168926D01*
X0351485Y0168926D01*
X0325225Y0157312D02*
X0325225Y0151406D01*
X0312233Y0157312D02*
X0312233Y0163217D01*
X0305934Y0163217D02*
X0305540Y0163217D01*
X0298060Y0163217D01*
X0295107Y0160265D01*
X0295107Y0126800D01*
X0266564Y0098257D01*
X0266564Y0078572D01*
X0280343Y0078572D02*
X0280343Y0098257D01*
X0305934Y0123847D01*
X0240973Y0093729D02*
X0240580Y0093335D01*
X0235068Y0093335D01*
X0213414Y0119221D02*
X0213414Y0127391D01*
X0214398Y0128375D01*
X0197666Y0130737D02*
X0220304Y0153375D01*
X0220304Y0158690D01*
X0219713Y0159280D01*
X0209713Y0159280D02*
X0209477Y0159044D01*
X0209477Y0148454D01*
X0195698Y0134674D01*
X0195698Y0119221D01*
X0197666Y0119221D02*
X0197666Y0130737D01*
X0189792Y0132706D02*
X0189792Y0119221D01*
X0187824Y0119221D02*
X0187824Y0128769D01*
X0170107Y0146485D01*
X0170107Y0158887D01*
X0169713Y0159280D01*
X0179713Y0159280D02*
X0179713Y0142784D01*
X0189792Y0132706D01*
X0191761Y0137627D02*
X0189792Y0139595D01*
X0189792Y0159202D01*
X0189713Y0159280D01*
X0199713Y0159280D02*
X0199713Y0143611D01*
X0193729Y0137627D01*
X0193729Y0119221D01*
X0191761Y0119221D02*
X0191761Y0137627D01*
X0185855Y0125816D02*
X0177981Y0133690D01*
X0125816Y0133690D01*
X0123847Y0131721D01*
X0112036Y0131721D01*
X0112036Y0153375D01*
X0104162Y0161249D01*
X0081524Y0161249D01*
X0075619Y0155343D01*
X0071091Y0155343D01*
X0099635Y0155343D02*
X0099635Y0143532D01*
X0099635Y0138020D01*
X0099241Y0137627D01*
X0099241Y0132457D01*
X0098950Y0132166D01*
X0101509Y0132166D02*
X0104068Y0132166D01*
X0104513Y0131721D01*
X0112036Y0131721D01*
X0126800Y0130737D02*
X0176997Y0130737D01*
X0183887Y0123847D01*
X0183887Y0119221D01*
X0185855Y0119221D02*
X0185855Y0125816D01*
X0126800Y0130737D02*
X0106131Y0110068D01*
X0104162Y0110068D01*
X0104162Y0096288D01*
X0097272Y0089398D01*
X0075619Y0089398D01*
X0071091Y0093926D01*
X0071091Y0116957D01*
X0085461Y0120501D02*
X0102587Y0120501D01*
X0104162Y0118926D01*
X0104162Y0115627D01*
X0104068Y0115532D01*
X0106674Y0115532D01*
X0111052Y0119910D01*
X0101509Y0115532D02*
X0098950Y0115532D01*
X0101509Y0115532D02*
X0101509Y0111737D01*
X0103178Y0110068D01*
X0104162Y0110068D01*
X0096391Y0115532D02*
X0095257Y0115532D01*
X0087824Y0108099D01*
X0087824Y0096288D01*
X0081131Y0096288D02*
X0076603Y0100816D01*
X0076603Y0125816D01*
X0073650Y0128769D01*
X0071091Y0128769D01*
X0071485Y0023926D02*
X0071485Y0023650D01*
X0041485Y0023926D02*
X0041485Y0024123D01*
X0337430Y0017942D02*
X0337824Y0017548D01*
D23*
X0342824Y0022588D02*
X0342402Y0023607D01*
X0340882Y0025126D01*
X0340420Y0025317D01*
X0340420Y0042749D01*
X0339965Y0043848D01*
X0328154Y0055659D01*
X0327313Y0056501D01*
X0326214Y0056956D01*
X0220558Y0056956D01*
X0218373Y0059141D01*
X0218373Y0060424D01*
X0218419Y0060424D01*
X0219301Y0060789D01*
X0219976Y0061464D01*
X0220342Y0062346D01*
X0220342Y0062491D01*
X0323691Y0062491D01*
X0344282Y0041900D01*
X0344282Y0024643D01*
X0343246Y0023607D01*
X0342824Y0022588D01*
X0343818Y0024179D02*
X0341829Y0024179D01*
X0340420Y0025778D02*
X0344282Y0025778D01*
X0344282Y0027376D02*
X0340420Y0027376D01*
X0340420Y0028975D02*
X0344282Y0028975D01*
X0344282Y0030573D02*
X0340420Y0030573D01*
X0340420Y0032172D02*
X0344282Y0032172D01*
X0344282Y0033770D02*
X0340420Y0033770D01*
X0340420Y0035369D02*
X0344282Y0035369D01*
X0344282Y0036967D02*
X0340420Y0036967D01*
X0340420Y0038566D02*
X0344282Y0038566D01*
X0344282Y0040164D02*
X0340420Y0040164D01*
X0340420Y0041763D02*
X0344282Y0041763D01*
X0342820Y0043361D02*
X0340167Y0043361D01*
X0341222Y0044960D02*
X0338854Y0044960D01*
X0339623Y0046558D02*
X0337255Y0046558D01*
X0338025Y0048157D02*
X0335657Y0048157D01*
X0336426Y0049755D02*
X0334058Y0049755D01*
X0334828Y0051354D02*
X0332460Y0051354D01*
X0333229Y0052952D02*
X0330861Y0052952D01*
X0331631Y0054551D02*
X0329263Y0054551D01*
X0330032Y0056149D02*
X0327664Y0056149D01*
X0328434Y0057748D02*
X0219766Y0057748D01*
X0218373Y0059346D02*
X0326835Y0059346D01*
X0325237Y0060945D02*
X0219457Y0060945D01*
X0220342Y0068472D02*
X0220342Y0068616D01*
X0219976Y0069498D01*
X0219301Y0070173D01*
X0218419Y0070539D01*
X0178882Y0070539D01*
X0178000Y0070173D01*
X0177324Y0069498D01*
X0176959Y0068616D01*
X0176959Y0062346D01*
X0177324Y0061464D01*
X0178000Y0060789D01*
X0178882Y0060424D01*
X0180896Y0060424D01*
X0180896Y0019906D01*
X0181351Y0018807D01*
X0195958Y0004200D01*
X0023885Y0004200D01*
X0023885Y0176565D01*
X0372794Y0176487D01*
X0373241Y0050927D01*
X0364476Y0059692D01*
X0364476Y0093995D01*
X0364714Y0094094D01*
X0366317Y0095697D01*
X0367185Y0097792D01*
X0367185Y0100060D01*
X0366317Y0102155D01*
X0364714Y0103758D01*
X0364309Y0103926D01*
X0364714Y0104094D01*
X0366317Y0105697D01*
X0367185Y0107792D01*
X0367185Y0110060D01*
X0366317Y0112155D01*
X0364714Y0113758D01*
X0363535Y0114247D01*
X0364158Y0114564D01*
X0364807Y0115036D01*
X0365375Y0115604D01*
X0365847Y0116253D01*
X0366211Y0116968D01*
X0366459Y0117732D01*
X0366585Y0118525D01*
X0366585Y0118742D01*
X0361669Y0118742D01*
X0361669Y0119110D01*
X0366585Y0119110D01*
X0366585Y0119327D01*
X0366459Y0120120D01*
X0366211Y0120884D01*
X0365847Y0121599D01*
X0365375Y0122248D01*
X0364807Y0122816D01*
X0364158Y0123288D01*
X0363535Y0123605D01*
X0364714Y0124094D01*
X0366317Y0125697D01*
X0367185Y0127792D01*
X0367185Y0130060D01*
X0366317Y0132155D01*
X0364714Y0133758D01*
X0364309Y0133926D01*
X0364714Y0134094D01*
X0366317Y0135697D01*
X0367185Y0137792D01*
X0367185Y0140060D01*
X0366317Y0142155D01*
X0364714Y0143758D01*
X0364309Y0143926D01*
X0364714Y0144094D01*
X0366317Y0145697D01*
X0367185Y0147792D01*
X0367185Y0150060D01*
X0366317Y0152155D01*
X0364714Y0153758D01*
X0364309Y0153926D01*
X0364714Y0154094D01*
X0366317Y0155697D01*
X0367185Y0157792D01*
X0367185Y0160060D01*
X0366317Y0162155D01*
X0364714Y0163758D01*
X0364309Y0163926D01*
X0364714Y0164094D01*
X0366317Y0165697D01*
X0367185Y0167792D01*
X0367185Y0170060D01*
X0366317Y0172155D01*
X0364714Y0173758D01*
X0362619Y0174626D01*
X0360351Y0174626D01*
X0358256Y0173758D01*
X0357185Y0172687D01*
X0357185Y0172703D01*
X0356820Y0173585D01*
X0356145Y0174261D01*
X0355262Y0174626D01*
X0347708Y0174626D01*
X0346826Y0174261D01*
X0346150Y0173585D01*
X0345785Y0172703D01*
X0345785Y0171917D01*
X0337032Y0171917D01*
X0335933Y0171461D01*
X0332254Y0167783D01*
X0329472Y0167783D01*
X0328590Y0167417D01*
X0328572Y0167399D01*
X0328553Y0167417D01*
X0327671Y0167783D01*
X0322779Y0167783D01*
X0321897Y0167417D01*
X0321222Y0166742D01*
X0320857Y0165860D01*
X0320857Y0160575D01*
X0320969Y0160302D01*
X0316489Y0160302D01*
X0316602Y0160575D01*
X0316602Y0165860D01*
X0316236Y0166742D01*
X0315561Y0167417D01*
X0314679Y0167783D01*
X0309787Y0167783D01*
X0308905Y0167417D01*
X0308887Y0167399D01*
X0308868Y0167417D01*
X0307986Y0167783D01*
X0303094Y0167783D01*
X0302212Y0167417D01*
X0301537Y0166742D01*
X0301316Y0166208D01*
X0297465Y0166208D01*
X0296366Y0165753D01*
X0293413Y0162800D01*
X0292572Y0161959D01*
X0292117Y0160859D01*
X0292117Y0128039D01*
X0264870Y0100792D01*
X0264029Y0099951D01*
X0263573Y0098852D01*
X0263573Y0081494D01*
X0263019Y0080940D01*
X0262383Y0079403D01*
X0262383Y0077740D01*
X0262838Y0076641D01*
X0230578Y0076641D01*
X0230578Y0088376D01*
X0233694Y0088376D01*
X0234793Y0088832D01*
X0236306Y0090345D01*
X0236912Y0090345D01*
X0236970Y0090204D01*
X0237317Y0089857D01*
X0237205Y0089439D01*
X0237205Y0087220D01*
X0240789Y0087220D01*
X0240789Y0086852D01*
X0241157Y0086852D01*
X0241157Y0083071D01*
X0243179Y0083071D01*
X0243637Y0083194D01*
X0244047Y0083430D01*
X0244382Y0083766D01*
X0244619Y0084176D01*
X0244742Y0084634D01*
X0244742Y0086852D01*
X0241158Y0086852D01*
X0241158Y0087220D01*
X0244742Y0087220D01*
X0244742Y0089439D01*
X0244629Y0089857D01*
X0244976Y0090204D01*
X0245279Y0090935D01*
X0254751Y0090935D01*
X0255145Y0089983D01*
X0256321Y0088807D01*
X0257858Y0088170D01*
X0259521Y0088170D01*
X0261058Y0088807D01*
X0262234Y0089983D01*
X0262871Y0091520D01*
X0262871Y0093183D01*
X0262234Y0094720D01*
X0261058Y0095896D01*
X0259521Y0096532D01*
X0259295Y0096532D01*
X0258638Y0097189D01*
X0257394Y0097704D01*
X0244526Y0097704D01*
X0244301Y0097929D01*
X0243419Y0098294D01*
X0238527Y0098294D01*
X0237645Y0097929D01*
X0236970Y0097254D01*
X0236605Y0096372D01*
X0236605Y0096326D01*
X0234473Y0096326D01*
X0233374Y0095871D01*
X0232532Y0095029D01*
X0231860Y0094357D01*
X0230578Y0094357D01*
X0230578Y0112120D01*
X0230213Y0113002D01*
X0229537Y0113677D01*
X0228655Y0114043D01*
X0222386Y0114043D01*
X0221503Y0113677D01*
X0220828Y0113002D01*
X0220463Y0112120D01*
X0220463Y0094357D01*
X0176838Y0094357D01*
X0176838Y0111403D01*
X0177244Y0112384D01*
X0177244Y0115398D01*
X0177324Y0115204D01*
X0178000Y0114529D01*
X0178882Y0114164D01*
X0202671Y0114164D01*
X0203553Y0114529D01*
X0203572Y0114548D01*
X0203590Y0114529D01*
X0204472Y0114164D01*
X0216451Y0114164D01*
X0217333Y0114529D01*
X0217567Y0114764D01*
X0218179Y0114764D01*
X0218637Y0114886D01*
X0219047Y0115123D01*
X0219382Y0115459D01*
X0219619Y0115869D01*
X0219742Y0116327D01*
X0219742Y0119221D01*
X0218373Y0119221D01*
X0218373Y0119221D01*
X0219742Y0119221D01*
X0219742Y0122116D01*
X0219619Y0122574D01*
X0219382Y0122984D01*
X0219047Y0123319D01*
X0218637Y0123556D01*
X0218179Y0123679D01*
X0217567Y0123679D01*
X0217333Y0123913D01*
X0217075Y0124020D01*
X0217923Y0124372D01*
X0218598Y0125047D01*
X0218964Y0125929D01*
X0218964Y0130821D01*
X0218598Y0131703D01*
X0218115Y0132186D01*
X0218241Y0132404D01*
X0218364Y0132862D01*
X0218364Y0134883D01*
X0214583Y0134883D01*
X0214583Y0135252D01*
X0218364Y0135252D01*
X0218364Y0137273D01*
X0218241Y0137731D01*
X0218004Y0138141D01*
X0217669Y0138477D01*
X0217259Y0138714D01*
X0216801Y0138836D01*
X0214583Y0138836D01*
X0214583Y0135252D01*
X0214214Y0135252D01*
X0214214Y0134883D01*
X0210433Y0134883D01*
X0210433Y0132862D01*
X0210556Y0132404D01*
X0210682Y0132186D01*
X0210198Y0131703D01*
X0209833Y0130821D01*
X0209833Y0125929D01*
X0210198Y0125047D01*
X0210424Y0124822D01*
X0210424Y0124279D01*
X0204472Y0124279D01*
X0203590Y0123913D01*
X0203572Y0123895D01*
X0203553Y0123913D01*
X0202671Y0124279D01*
X0200657Y0124279D01*
X0200657Y0129498D01*
X0221998Y0150840D01*
X0222839Y0151681D01*
X0222902Y0151832D01*
X0224291Y0153221D01*
X0225113Y0155206D01*
X0225113Y0163354D01*
X0224291Y0165339D01*
X0222772Y0166858D01*
X0220788Y0167680D01*
X0218639Y0167680D01*
X0216655Y0166858D01*
X0215135Y0165339D01*
X0214713Y0164320D01*
X0214291Y0165339D01*
X0212772Y0166858D01*
X0210788Y0167680D01*
X0208639Y0167680D01*
X0206655Y0166858D01*
X0205135Y0165339D01*
X0204713Y0164320D01*
X0204291Y0165339D01*
X0202772Y0166858D01*
X0200788Y0167680D01*
X0198639Y0167680D01*
X0196655Y0166858D01*
X0195135Y0165339D01*
X0194713Y0164320D01*
X0194291Y0165339D01*
X0192772Y0166858D01*
X0190788Y0167680D01*
X0188639Y0167680D01*
X0186655Y0166858D01*
X0185135Y0165339D01*
X0184713Y0164320D01*
X0184291Y0165339D01*
X0182772Y0166858D01*
X0180788Y0167680D01*
X0178639Y0167680D01*
X0176655Y0166858D01*
X0175135Y0165339D01*
X0174713Y0164320D01*
X0174291Y0165339D01*
X0172772Y0166858D01*
X0170788Y0167680D01*
X0168639Y0167680D01*
X0166655Y0166858D01*
X0165135Y0165339D01*
X0164313Y0163354D01*
X0164313Y0155206D01*
X0165135Y0153221D01*
X0166655Y0151702D01*
X0167117Y0151511D01*
X0167117Y0145890D01*
X0167572Y0144791D01*
X0168413Y0143950D01*
X0175683Y0136680D01*
X0125221Y0136680D01*
X0124122Y0136225D01*
X0122609Y0134712D01*
X0115027Y0134712D01*
X0115027Y0153970D01*
X0114571Y0155069D01*
X0113730Y0155910D01*
X0105856Y0163784D01*
X0104757Y0164239D01*
X0080930Y0164239D01*
X0079830Y0163784D01*
X0078989Y0162943D01*
X0075004Y0158958D01*
X0074419Y0159543D01*
X0073537Y0159909D01*
X0068645Y0159909D01*
X0067763Y0159543D01*
X0067745Y0159525D01*
X0067726Y0159543D01*
X0066844Y0159909D01*
X0061953Y0159909D01*
X0061070Y0159543D01*
X0060395Y0158868D01*
X0060030Y0157986D01*
X0060030Y0152701D01*
X0060056Y0152638D01*
X0037581Y0152638D01*
X0036405Y0152151D01*
X0035504Y0151250D01*
X0026646Y0142392D01*
X0026159Y0141216D01*
X0026159Y0017896D01*
X0026646Y0016720D01*
X0027546Y0015819D01*
X0032153Y0011213D01*
X0033329Y0010726D01*
X0035785Y0010726D01*
X0035785Y0010149D01*
X0036150Y0009266D01*
X0036826Y0008591D01*
X0037708Y0008226D01*
X0045262Y0008226D01*
X0046145Y0008591D01*
X0046820Y0009266D01*
X0047185Y0010149D01*
X0047185Y0010165D01*
X0048256Y0009094D01*
X0050351Y0008226D01*
X0052619Y0008226D01*
X0054714Y0009094D01*
X0056317Y0010697D01*
X0056485Y0011102D01*
X0056653Y0010697D01*
X0058256Y0009094D01*
X0060351Y0008226D01*
X0062619Y0008226D01*
X0064714Y0009094D01*
X0066317Y0010697D01*
X0066485Y0011102D01*
X0066653Y0010697D01*
X0068256Y0009094D01*
X0070351Y0008226D01*
X0072619Y0008226D01*
X0074166Y0008867D01*
X0077021Y0006011D01*
X0077862Y0005170D01*
X0078961Y0004715D01*
X0089993Y0004715D01*
X0091092Y0005170D01*
X0101919Y0015997D01*
X0102760Y0016838D01*
X0103216Y0017937D01*
X0103216Y0045410D01*
X0103750Y0045632D01*
X0104425Y0046307D01*
X0104791Y0047189D01*
X0104791Y0052081D01*
X0104425Y0052963D01*
X0104407Y0052981D01*
X0104425Y0053000D01*
X0104791Y0053882D01*
X0104791Y0058773D01*
X0104425Y0059656D01*
X0103840Y0060241D01*
X0145755Y0102156D01*
X0166723Y0102156D01*
X0166723Y0094357D01*
X0165440Y0094357D01*
X0165430Y0094368D01*
X0165430Y0095151D01*
X0164793Y0096688D01*
X0163617Y0097864D01*
X0162080Y0098501D01*
X0161297Y0098501D01*
X0160974Y0098823D01*
X0159875Y0099279D01*
X0159092Y0099279D01*
X0158953Y0099616D01*
X0158278Y0100291D01*
X0157395Y0100657D01*
X0152110Y0100657D01*
X0151228Y0100291D01*
X0150881Y0099944D01*
X0150462Y0100057D01*
X0148244Y0100057D01*
X0148244Y0096473D01*
X0147876Y0096473D01*
X0147876Y0100057D01*
X0145658Y0100057D01*
X0145200Y0099934D01*
X0144789Y0099697D01*
X0144454Y0099362D01*
X0144217Y0098951D01*
X0144094Y0098494D01*
X0144094Y0096472D01*
X0147876Y0096472D01*
X0147876Y0096104D01*
X0148244Y0096104D01*
X0148244Y0092520D01*
X0150462Y0092520D01*
X0150881Y0092632D01*
X0151228Y0092285D01*
X0152110Y0091920D01*
X0157395Y0091920D01*
X0157670Y0092033D01*
X0157704Y0091951D01*
X0158880Y0090775D01*
X0160417Y0090139D01*
X0161201Y0090139D01*
X0161449Y0089891D01*
X0159073Y0087515D01*
X0158953Y0087805D01*
X0158278Y0088480D01*
X0157395Y0088846D01*
X0152110Y0088846D01*
X0151228Y0088480D01*
X0150881Y0088133D01*
X0150462Y0088246D01*
X0148244Y0088246D01*
X0148244Y0084661D01*
X0147876Y0084661D01*
X0147876Y0084293D01*
X0148244Y0084293D01*
X0148244Y0080709D01*
X0150462Y0080709D01*
X0150881Y0080821D01*
X0151124Y0080578D01*
X0127189Y0080578D01*
X0126090Y0080123D01*
X0125249Y0079281D01*
X0124794Y0078182D01*
X0124794Y0067150D01*
X0125249Y0066051D01*
X0126090Y0065210D01*
X0127189Y0064754D01*
X0151124Y0064754D01*
X0150881Y0064511D01*
X0150462Y0064624D01*
X0148244Y0064624D01*
X0148244Y0061039D01*
X0147876Y0061039D01*
X0147876Y0060671D01*
X0148244Y0060671D01*
X0148244Y0057087D01*
X0150462Y0057087D01*
X0150881Y0057199D01*
X0151228Y0056852D01*
X0152110Y0056487D01*
X0157395Y0056487D01*
X0158278Y0056852D01*
X0158953Y0057527D01*
X0159318Y0058409D01*
X0159318Y0061191D01*
X0159571Y0061445D01*
X0160027Y0062544D01*
X0160027Y0067171D01*
X0160896Y0067531D01*
X0161222Y0067857D01*
X0161959Y0068162D01*
X0162800Y0069004D01*
X0164164Y0070368D01*
X0164164Y0061110D01*
X0160682Y0057628D01*
X0160227Y0056529D01*
X0160227Y0055381D01*
X0159984Y0055381D01*
X0159102Y0055016D01*
X0158755Y0054669D01*
X0158336Y0054781D01*
X0156118Y0054781D01*
X0156118Y0051197D01*
X0155750Y0051197D01*
X0155750Y0054781D01*
X0153532Y0054781D01*
X0153074Y0054658D01*
X0152663Y0054421D01*
X0152328Y0054086D01*
X0152091Y0053676D01*
X0151969Y0053218D01*
X0151969Y0051197D01*
X0155750Y0051197D01*
X0155750Y0050828D01*
X0156118Y0050828D01*
X0156118Y0047244D01*
X0158336Y0047244D01*
X0158755Y0047356D01*
X0159102Y0047009D01*
X0159984Y0046644D01*
X0160227Y0046644D01*
X0160227Y0041602D01*
X0159393Y0041602D01*
X0158511Y0041236D01*
X0157836Y0040561D01*
X0157471Y0039679D01*
X0157471Y0032819D01*
X0157836Y0031937D01*
X0158511Y0031261D01*
X0159393Y0030896D01*
X0168025Y0030896D01*
X0168908Y0031261D01*
X0169547Y0031901D01*
X0169592Y0031856D01*
X0170003Y0031619D01*
X0170461Y0031496D01*
X0173860Y0031496D01*
X0173860Y0035572D01*
X0175213Y0035572D01*
X0175213Y0036925D01*
X0180175Y0036925D01*
X0180175Y0039439D01*
X0180052Y0039896D01*
X0179815Y0040307D01*
X0179480Y0040642D01*
X0179070Y0040879D01*
X0178612Y0041002D01*
X0175213Y0041002D01*
X0175213Y0036925D01*
X0173860Y0036925D01*
X0173860Y0041002D01*
X0170461Y0041002D01*
X0170003Y0040879D01*
X0169592Y0040642D01*
X0169547Y0040597D01*
X0168908Y0041236D01*
X0168025Y0041602D01*
X0166208Y0041602D01*
X0166208Y0047066D01*
X0166827Y0047685D01*
X0167192Y0048567D01*
X0167192Y0053458D01*
X0166827Y0054341D01*
X0166340Y0054827D01*
X0167707Y0056194D01*
X0167707Y0055653D01*
X0168072Y0054771D01*
X0168419Y0054424D01*
X0168307Y0054005D01*
X0168307Y0051787D01*
X0171891Y0051787D01*
X0171891Y0051419D01*
X0168307Y0051419D01*
X0168307Y0049201D01*
X0168430Y0048743D01*
X0168667Y0048333D01*
X0169002Y0047997D01*
X0169412Y0047760D01*
X0169870Y0047638D01*
X0171891Y0047638D01*
X0171891Y0051419D01*
X0172260Y0051419D01*
X0172260Y0051787D01*
X0175844Y0051787D01*
X0175844Y0054005D01*
X0175732Y0054424D01*
X0176079Y0054771D01*
X0176444Y0055653D01*
X0176444Y0060939D01*
X0176079Y0061821D01*
X0175404Y0062496D01*
X0175066Y0062636D01*
X0175066Y0070722D01*
X0175797Y0071025D01*
X0176472Y0071700D01*
X0176838Y0072582D01*
X0176838Y0074692D01*
X0177707Y0075052D01*
X0178548Y0075893D01*
X0181501Y0078846D01*
X0181956Y0079945D01*
X0181956Y0088376D01*
X0220463Y0088376D01*
X0220463Y0072582D01*
X0220828Y0071700D01*
X0221503Y0071025D01*
X0222386Y0070660D01*
X0223994Y0070660D01*
X0223994Y0068472D01*
X0220342Y0068472D01*
X0220209Y0068937D02*
X0223994Y0068937D01*
X0223994Y0070536D02*
X0218425Y0070536D01*
X0220649Y0072134D02*
X0176652Y0072134D01*
X0176838Y0073733D02*
X0220463Y0073733D01*
X0220463Y0075332D02*
X0177986Y0075332D01*
X0179585Y0076930D02*
X0220463Y0076930D01*
X0220463Y0078529D02*
X0181183Y0078529D01*
X0181956Y0080127D02*
X0220463Y0080127D01*
X0220463Y0081726D02*
X0181956Y0081726D01*
X0181956Y0083324D02*
X0220463Y0083324D01*
X0220463Y0084923D02*
X0181956Y0084923D01*
X0181956Y0086521D02*
X0220463Y0086521D01*
X0220463Y0088120D02*
X0181956Y0088120D01*
X0176838Y0094514D02*
X0220463Y0094514D01*
X0220463Y0096112D02*
X0176838Y0096112D01*
X0176838Y0097711D02*
X0220463Y0097711D01*
X0220463Y0099309D02*
X0176838Y0099309D01*
X0176838Y0100908D02*
X0220463Y0100908D01*
X0220463Y0102506D02*
X0176838Y0102506D01*
X0176838Y0104105D02*
X0220463Y0104105D01*
X0220463Y0105703D02*
X0176838Y0105703D01*
X0176838Y0107302D02*
X0220463Y0107302D01*
X0220463Y0108900D02*
X0176838Y0108900D01*
X0176838Y0110499D02*
X0220463Y0110499D01*
X0220463Y0112097D02*
X0177125Y0112097D01*
X0177244Y0113696D02*
X0221549Y0113696D01*
X0219218Y0115294D02*
X0279372Y0115294D01*
X0277774Y0113696D02*
X0229492Y0113696D01*
X0230578Y0112097D02*
X0276175Y0112097D01*
X0274577Y0110499D02*
X0230578Y0110499D01*
X0230578Y0108900D02*
X0272978Y0108900D01*
X0271380Y0107302D02*
X0230578Y0107302D01*
X0230578Y0105703D02*
X0269781Y0105703D01*
X0268183Y0104105D02*
X0230578Y0104105D01*
X0230578Y0102506D02*
X0266584Y0102506D01*
X0264986Y0100908D02*
X0230578Y0100908D01*
X0230578Y0099309D02*
X0263763Y0099309D01*
X0263573Y0097711D02*
X0244520Y0097711D01*
X0237427Y0097711D02*
X0230578Y0097711D01*
X0230578Y0096112D02*
X0233957Y0096112D01*
X0232017Y0094514D02*
X0230578Y0094514D01*
X0235680Y0089718D02*
X0237280Y0089718D01*
X0237205Y0088120D02*
X0230578Y0088120D01*
X0230578Y0086521D02*
X0237205Y0086521D01*
X0237205Y0086852D02*
X0237205Y0084634D01*
X0237327Y0084176D01*
X0237564Y0083766D01*
X0237899Y0083430D01*
X0238310Y0083194D01*
X0238768Y0083071D01*
X0240789Y0083071D01*
X0240789Y0086852D01*
X0237205Y0086852D01*
X0237205Y0084923D02*
X0230578Y0084923D01*
X0230578Y0083324D02*
X0238084Y0083324D01*
X0240789Y0083324D02*
X0241157Y0083324D01*
X0241157Y0084923D02*
X0240789Y0084923D01*
X0240789Y0086521D02*
X0241157Y0086521D01*
X0244742Y0086521D02*
X0263573Y0086521D01*
X0263573Y0084923D02*
X0244742Y0084923D01*
X0243863Y0083324D02*
X0263573Y0083324D01*
X0263573Y0081726D02*
X0230578Y0081726D01*
X0230578Y0080127D02*
X0262682Y0080127D01*
X0262383Y0078529D02*
X0230578Y0078529D01*
X0230578Y0076930D02*
X0262718Y0076930D01*
X0263573Y0088120D02*
X0244742Y0088120D01*
X0244667Y0089718D02*
X0255410Y0089718D01*
X0261970Y0089718D02*
X0263573Y0089718D01*
X0263573Y0091317D02*
X0262787Y0091317D01*
X0262871Y0092915D02*
X0263573Y0092915D01*
X0263573Y0094514D02*
X0262320Y0094514D01*
X0263573Y0096112D02*
X0260536Y0096112D01*
X0283334Y0096112D02*
X0346481Y0096112D01*
X0346653Y0095697D02*
X0348256Y0094094D01*
X0348494Y0093995D01*
X0348494Y0057957D01*
X0331107Y0075344D01*
X0330266Y0076186D01*
X0329167Y0076641D01*
X0284069Y0076641D01*
X0284524Y0077740D01*
X0284524Y0079403D01*
X0283888Y0080940D01*
X0283334Y0081494D01*
X0283334Y0097018D01*
X0307628Y0121312D01*
X0308469Y0122153D01*
X0308924Y0123252D01*
X0308924Y0147198D01*
X0309787Y0146841D01*
X0314679Y0146841D01*
X0315561Y0147206D01*
X0316236Y0147881D01*
X0316602Y0148764D01*
X0316602Y0154049D01*
X0316489Y0154321D01*
X0320969Y0154321D01*
X0320857Y0154049D01*
X0320857Y0148764D01*
X0321222Y0147881D01*
X0321897Y0147206D01*
X0322779Y0146841D01*
X0327671Y0146841D01*
X0328553Y0147206D01*
X0329037Y0147690D01*
X0329255Y0147564D01*
X0329713Y0147441D01*
X0331734Y0147441D01*
X0331734Y0151222D01*
X0332102Y0151222D01*
X0332102Y0147441D01*
X0334124Y0147441D01*
X0334581Y0147564D01*
X0334992Y0147801D01*
X0335327Y0148136D01*
X0335564Y0148546D01*
X0335687Y0149004D01*
X0335687Y0151222D01*
X0332102Y0151222D01*
X0332102Y0151591D01*
X0331734Y0151591D01*
X0331734Y0155372D01*
X0329713Y0155372D01*
X0329255Y0155249D01*
X0329037Y0155123D01*
X0328553Y0155606D01*
X0328216Y0155746D01*
X0328216Y0158878D01*
X0328553Y0159017D01*
X0328572Y0159036D01*
X0328590Y0159017D01*
X0329472Y0158652D01*
X0334364Y0158652D01*
X0335246Y0159017D01*
X0335921Y0159692D01*
X0336287Y0160575D01*
X0336287Y0163357D01*
X0338866Y0165935D01*
X0345785Y0165935D01*
X0345785Y0165149D01*
X0346150Y0164266D01*
X0346826Y0163591D01*
X0346952Y0163539D01*
X0346745Y0163331D01*
X0346508Y0162921D01*
X0346385Y0162463D01*
X0346385Y0159110D01*
X0351301Y0159110D01*
X0351301Y0158742D01*
X0346385Y0158742D01*
X0346385Y0155389D01*
X0346508Y0154931D01*
X0346745Y0154521D01*
X0347080Y0154186D01*
X0347490Y0153949D01*
X0347575Y0153926D01*
X0347490Y0153903D01*
X0347080Y0153666D01*
X0346745Y0153331D01*
X0346508Y0152921D01*
X0346385Y0152463D01*
X0346385Y0149110D01*
X0351301Y0149110D01*
X0351301Y0148742D01*
X0346385Y0148742D01*
X0346385Y0145389D01*
X0346508Y0144931D01*
X0346745Y0144521D01*
X0347080Y0144186D01*
X0347490Y0143949D01*
X0347948Y0143826D01*
X0348420Y0143826D01*
X0348256Y0143758D01*
X0346653Y0142155D01*
X0345785Y0140060D01*
X0345785Y0137792D01*
X0346653Y0135697D01*
X0348256Y0134094D01*
X0348661Y0133926D01*
X0348256Y0133758D01*
X0346653Y0132155D01*
X0345785Y0130060D01*
X0345785Y0127792D01*
X0346653Y0125697D01*
X0348256Y0124094D01*
X0348661Y0123926D01*
X0348256Y0123758D01*
X0346653Y0122155D01*
X0345785Y0120060D01*
X0345785Y0117792D01*
X0346653Y0115697D01*
X0348256Y0114094D01*
X0348661Y0113926D01*
X0348256Y0113758D01*
X0346653Y0112155D01*
X0345785Y0110060D01*
X0345785Y0107792D01*
X0346653Y0105697D01*
X0348256Y0104094D01*
X0348661Y0103926D01*
X0348256Y0103758D01*
X0346653Y0102155D01*
X0345785Y0100060D01*
X0345785Y0097792D01*
X0346653Y0095697D01*
X0347836Y0094514D02*
X0283334Y0094514D01*
X0283334Y0092915D02*
X0348494Y0092915D01*
X0348494Y0091317D02*
X0283334Y0091317D01*
X0283334Y0089718D02*
X0348494Y0089718D01*
X0348494Y0088120D02*
X0283334Y0088120D01*
X0283334Y0086521D02*
X0348494Y0086521D01*
X0348494Y0084923D02*
X0283334Y0084923D01*
X0283334Y0083324D02*
X0348494Y0083324D01*
X0348494Y0081726D02*
X0283334Y0081726D01*
X0284225Y0080127D02*
X0348494Y0080127D01*
X0348494Y0078529D02*
X0284524Y0078529D01*
X0284189Y0076930D02*
X0348494Y0076930D01*
X0348494Y0075332D02*
X0331120Y0075332D01*
X0332718Y0073733D02*
X0348494Y0073733D01*
X0348494Y0072134D02*
X0334317Y0072134D01*
X0335915Y0070536D02*
X0348494Y0070536D01*
X0348494Y0068937D02*
X0337514Y0068937D01*
X0339112Y0067339D02*
X0348494Y0067339D01*
X0348494Y0065740D02*
X0340711Y0065740D01*
X0342309Y0064142D02*
X0348494Y0064142D01*
X0348494Y0062543D02*
X0343908Y0062543D01*
X0345506Y0060945D02*
X0348494Y0060945D01*
X0348494Y0059346D02*
X0347105Y0059346D01*
X0364476Y0060945D02*
X0373205Y0060945D01*
X0373200Y0062543D02*
X0364476Y0062543D01*
X0364476Y0064142D02*
X0373194Y0064142D01*
X0373188Y0065740D02*
X0364476Y0065740D01*
X0364476Y0067339D02*
X0373183Y0067339D01*
X0373177Y0068937D02*
X0364476Y0068937D01*
X0364476Y0070536D02*
X0373171Y0070536D01*
X0373166Y0072134D02*
X0364476Y0072134D01*
X0364476Y0073733D02*
X0373160Y0073733D01*
X0373154Y0075332D02*
X0364476Y0075332D01*
X0364476Y0076930D02*
X0373148Y0076930D01*
X0373143Y0078529D02*
X0364476Y0078529D01*
X0364476Y0080127D02*
X0373137Y0080127D01*
X0373131Y0081726D02*
X0364476Y0081726D01*
X0364476Y0083324D02*
X0373126Y0083324D01*
X0373120Y0084923D02*
X0364476Y0084923D01*
X0364476Y0086521D02*
X0373114Y0086521D01*
X0373109Y0088120D02*
X0364476Y0088120D01*
X0364476Y0089718D02*
X0373103Y0089718D01*
X0373097Y0091317D02*
X0364476Y0091317D01*
X0364476Y0092915D02*
X0373092Y0092915D01*
X0373086Y0094514D02*
X0365134Y0094514D01*
X0366489Y0096112D02*
X0373080Y0096112D01*
X0373075Y0097711D02*
X0367151Y0097711D01*
X0367185Y0099309D02*
X0373069Y0099309D01*
X0373063Y0100908D02*
X0366834Y0100908D01*
X0365966Y0102506D02*
X0373058Y0102506D01*
X0373052Y0104105D02*
X0364725Y0104105D01*
X0366320Y0105703D02*
X0373046Y0105703D01*
X0373040Y0107302D02*
X0366982Y0107302D01*
X0367185Y0108900D02*
X0373035Y0108900D01*
X0373029Y0110499D02*
X0367003Y0110499D01*
X0366341Y0112097D02*
X0373023Y0112097D01*
X0373018Y0113696D02*
X0364776Y0113696D01*
X0365066Y0115294D02*
X0373012Y0115294D01*
X0373006Y0116893D02*
X0366173Y0116893D01*
X0366580Y0118491D02*
X0373001Y0118491D01*
X0372995Y0120090D02*
X0366464Y0120090D01*
X0365782Y0121688D02*
X0372989Y0121688D01*
X0372984Y0123287D02*
X0364159Y0123287D01*
X0365505Y0124885D02*
X0372978Y0124885D01*
X0372972Y0126484D02*
X0366643Y0126484D01*
X0367185Y0128082D02*
X0372967Y0128082D01*
X0372961Y0129681D02*
X0367185Y0129681D01*
X0366680Y0131279D02*
X0372955Y0131279D01*
X0372949Y0132878D02*
X0365594Y0132878D01*
X0365097Y0134476D02*
X0372944Y0134476D01*
X0372938Y0136075D02*
X0366474Y0136075D01*
X0367136Y0137673D02*
X0372932Y0137673D01*
X0372927Y0139272D02*
X0367185Y0139272D01*
X0366849Y0140870D02*
X0372921Y0140870D01*
X0372915Y0142469D02*
X0366003Y0142469D01*
X0364650Y0144068D02*
X0372910Y0144068D01*
X0372904Y0145666D02*
X0366286Y0145666D01*
X0366966Y0147265D02*
X0372898Y0147265D01*
X0372893Y0148863D02*
X0367185Y0148863D01*
X0367019Y0150462D02*
X0372887Y0150462D01*
X0372881Y0152060D02*
X0366356Y0152060D01*
X0364813Y0153659D02*
X0372876Y0153659D01*
X0372870Y0155257D02*
X0365877Y0155257D01*
X0366797Y0156856D02*
X0372864Y0156856D01*
X0372858Y0158454D02*
X0367185Y0158454D01*
X0367185Y0160053D02*
X0372853Y0160053D01*
X0372847Y0161651D02*
X0366526Y0161651D01*
X0365222Y0163250D02*
X0372841Y0163250D01*
X0372836Y0164848D02*
X0365468Y0164848D01*
X0366628Y0166447D02*
X0372830Y0166447D01*
X0372824Y0168045D02*
X0367185Y0168045D01*
X0367185Y0169644D02*
X0372819Y0169644D01*
X0372813Y0171242D02*
X0366695Y0171242D01*
X0365631Y0172841D02*
X0372807Y0172841D01*
X0372802Y0174439D02*
X0363070Y0174439D01*
X0359900Y0174439D02*
X0355713Y0174439D01*
X0357128Y0172841D02*
X0357339Y0172841D01*
X0347257Y0174439D02*
X0023885Y0174439D01*
X0023885Y0172841D02*
X0345842Y0172841D01*
X0335714Y0171242D02*
X0023885Y0171242D01*
X0023885Y0169644D02*
X0334115Y0169644D01*
X0332517Y0168045D02*
X0023885Y0168045D01*
X0023885Y0166447D02*
X0166243Y0166447D01*
X0164932Y0164848D02*
X0023885Y0164848D01*
X0023885Y0163250D02*
X0079296Y0163250D01*
X0077697Y0161651D02*
X0023885Y0161651D01*
X0023885Y0160053D02*
X0076099Y0160053D01*
X0064398Y0155343D02*
X0064398Y0149438D01*
X0038217Y0149438D01*
X0029359Y0140580D01*
X0029359Y0018532D01*
X0033965Y0013926D01*
X0041485Y0013926D01*
X0035933Y0009793D02*
X0023885Y0009793D01*
X0023885Y0011391D02*
X0031975Y0011391D01*
X0030376Y0012990D02*
X0023885Y0012990D01*
X0023885Y0014588D02*
X0028778Y0014588D01*
X0027179Y0016187D02*
X0023885Y0016187D01*
X0023885Y0017785D02*
X0026205Y0017785D01*
X0026159Y0019384D02*
X0023885Y0019384D01*
X0023885Y0020982D02*
X0026159Y0020982D01*
X0026159Y0022581D02*
X0023885Y0022581D01*
X0023885Y0024179D02*
X0026159Y0024179D01*
X0026159Y0025778D02*
X0023885Y0025778D01*
X0023885Y0027376D02*
X0026159Y0027376D01*
X0026159Y0028975D02*
X0023885Y0028975D01*
X0023885Y0030573D02*
X0026159Y0030573D01*
X0026159Y0032172D02*
X0023885Y0032172D01*
X0023885Y0033770D02*
X0026159Y0033770D01*
X0026159Y0035369D02*
X0023885Y0035369D01*
X0023885Y0036967D02*
X0026159Y0036967D01*
X0026159Y0038566D02*
X0023885Y0038566D01*
X0023885Y0040164D02*
X0026159Y0040164D01*
X0026159Y0041763D02*
X0023885Y0041763D01*
X0023885Y0043361D02*
X0026159Y0043361D01*
X0026159Y0044960D02*
X0023885Y0044960D01*
X0023885Y0046558D02*
X0026159Y0046558D01*
X0026159Y0048157D02*
X0023885Y0048157D01*
X0023885Y0049755D02*
X0026159Y0049755D01*
X0026159Y0051354D02*
X0023885Y0051354D01*
X0023885Y0052952D02*
X0026159Y0052952D01*
X0026159Y0054551D02*
X0023885Y0054551D01*
X0023885Y0056149D02*
X0026159Y0056149D01*
X0026159Y0057748D02*
X0023885Y0057748D01*
X0023885Y0059346D02*
X0026159Y0059346D01*
X0026159Y0060945D02*
X0023885Y0060945D01*
X0023885Y0062543D02*
X0026159Y0062543D01*
X0026159Y0064142D02*
X0023885Y0064142D01*
X0023885Y0065740D02*
X0026159Y0065740D01*
X0026159Y0067339D02*
X0023885Y0067339D01*
X0023885Y0068937D02*
X0026159Y0068937D01*
X0026159Y0070536D02*
X0023885Y0070536D01*
X0023885Y0072134D02*
X0026159Y0072134D01*
X0026159Y0073733D02*
X0023885Y0073733D01*
X0023885Y0075332D02*
X0026159Y0075332D01*
X0026159Y0076930D02*
X0023885Y0076930D01*
X0023885Y0078529D02*
X0026159Y0078529D01*
X0026159Y0080127D02*
X0023885Y0080127D01*
X0023885Y0081726D02*
X0026159Y0081726D01*
X0026159Y0083324D02*
X0023885Y0083324D01*
X0023885Y0084923D02*
X0026159Y0084923D01*
X0026159Y0086521D02*
X0023885Y0086521D01*
X0023885Y0088120D02*
X0026159Y0088120D01*
X0026159Y0089718D02*
X0023885Y0089718D01*
X0023885Y0091317D02*
X0026159Y0091317D01*
X0026159Y0092915D02*
X0023885Y0092915D01*
X0023885Y0094514D02*
X0026159Y0094514D01*
X0026159Y0096112D02*
X0023885Y0096112D01*
X0023885Y0097711D02*
X0026159Y0097711D01*
X0026159Y0099309D02*
X0023885Y0099309D01*
X0023885Y0100908D02*
X0026159Y0100908D01*
X0026159Y0102506D02*
X0023885Y0102506D01*
X0023885Y0104105D02*
X0026159Y0104105D01*
X0026159Y0105703D02*
X0023885Y0105703D01*
X0023885Y0107302D02*
X0026159Y0107302D01*
X0026159Y0108900D02*
X0023885Y0108900D01*
X0023885Y0110499D02*
X0026159Y0110499D01*
X0026159Y0112097D02*
X0023885Y0112097D01*
X0023885Y0113696D02*
X0026159Y0113696D01*
X0026159Y0115294D02*
X0023885Y0115294D01*
X0023885Y0116893D02*
X0026159Y0116893D01*
X0026159Y0118491D02*
X0023885Y0118491D01*
X0023885Y0120090D02*
X0026159Y0120090D01*
X0026159Y0121688D02*
X0023885Y0121688D01*
X0023885Y0123287D02*
X0026159Y0123287D01*
X0026159Y0124885D02*
X0023885Y0124885D01*
X0023885Y0126484D02*
X0026159Y0126484D01*
X0026159Y0128082D02*
X0023885Y0128082D01*
X0023885Y0129681D02*
X0026159Y0129681D01*
X0026159Y0131279D02*
X0023885Y0131279D01*
X0023885Y0132878D02*
X0026159Y0132878D01*
X0026159Y0134476D02*
X0023885Y0134476D01*
X0023885Y0136075D02*
X0026159Y0136075D01*
X0026159Y0137673D02*
X0023885Y0137673D01*
X0023885Y0139272D02*
X0026159Y0139272D01*
X0026159Y0140870D02*
X0023885Y0140870D01*
X0023885Y0142469D02*
X0026723Y0142469D01*
X0028322Y0144068D02*
X0023885Y0144068D01*
X0023885Y0145666D02*
X0029920Y0145666D01*
X0031519Y0147265D02*
X0023885Y0147265D01*
X0023885Y0148863D02*
X0033117Y0148863D01*
X0034716Y0150462D02*
X0023885Y0150462D01*
X0023885Y0152060D02*
X0036314Y0152060D01*
X0023885Y0153659D02*
X0060030Y0153659D01*
X0060030Y0155257D02*
X0023885Y0155257D01*
X0023885Y0156856D02*
X0060030Y0156856D01*
X0060224Y0158454D02*
X0023885Y0158454D01*
X0038971Y0145666D02*
X0060030Y0145666D01*
X0060030Y0146175D02*
X0060030Y0140890D01*
X0060395Y0140007D01*
X0061070Y0139332D01*
X0061953Y0138967D01*
X0066844Y0138967D01*
X0067726Y0139332D01*
X0067745Y0139351D01*
X0067763Y0139332D01*
X0068645Y0138967D01*
X0073537Y0138967D01*
X0074419Y0139332D01*
X0075094Y0140007D01*
X0075329Y0140573D01*
X0076334Y0140989D01*
X0077178Y0141833D01*
X0087688Y0152343D01*
X0088721Y0152343D01*
X0088939Y0151818D01*
X0089614Y0151143D01*
X0090496Y0150778D01*
X0095388Y0150778D01*
X0096270Y0151143D01*
X0096288Y0151162D01*
X0096307Y0151143D01*
X0096644Y0151004D01*
X0096644Y0147872D01*
X0096307Y0147732D01*
X0095823Y0147249D01*
X0095605Y0147375D01*
X0095147Y0147498D01*
X0093126Y0147498D01*
X0093126Y0143717D01*
X0092757Y0143717D01*
X0092757Y0147498D01*
X0090736Y0147498D01*
X0090278Y0147375D01*
X0089868Y0147138D01*
X0089533Y0146803D01*
X0089296Y0146392D01*
X0089173Y0145935D01*
X0089173Y0143717D01*
X0092757Y0143717D01*
X0092757Y0143348D01*
X0089173Y0143348D01*
X0089173Y0141130D01*
X0089296Y0140672D01*
X0089533Y0140262D01*
X0089868Y0139927D01*
X0090278Y0139690D01*
X0090736Y0139567D01*
X0092757Y0139567D01*
X0092757Y0143348D01*
X0093126Y0143348D01*
X0093126Y0139567D01*
X0095147Y0139567D01*
X0095605Y0139690D01*
X0095823Y0139816D01*
X0096307Y0139332D01*
X0096644Y0139193D01*
X0096644Y0139172D01*
X0096250Y0138222D01*
X0096250Y0136328D01*
X0095563Y0136328D01*
X0095105Y0136206D01*
X0094695Y0135969D01*
X0094360Y0135634D01*
X0094123Y0135223D01*
X0094000Y0134765D01*
X0094000Y0132166D01*
X0094000Y0129567D01*
X0094123Y0129109D01*
X0094360Y0128699D01*
X0094695Y0128364D01*
X0095105Y0128127D01*
X0095563Y0128004D01*
X0096390Y0128004D01*
X0096390Y0128378D01*
X0096391Y0128378D01*
X0096391Y0128004D01*
X0096765Y0128004D01*
X0097000Y0127769D01*
X0097882Y0127404D01*
X0100018Y0127404D01*
X0100229Y0127492D01*
X0100441Y0127404D01*
X0102577Y0127404D01*
X0102788Y0127492D01*
X0103000Y0127404D01*
X0105136Y0127404D01*
X0106018Y0127769D01*
X0106693Y0128444D01*
X0106811Y0128731D01*
X0120564Y0128731D01*
X0114354Y0122521D01*
X0113420Y0123455D01*
X0111884Y0124091D01*
X0110220Y0124091D01*
X0108684Y0123455D01*
X0107507Y0122279D01*
X0106871Y0120742D01*
X0106871Y0120201D01*
X0106697Y0120620D01*
X0105856Y0121461D01*
X0104281Y0123036D01*
X0103182Y0123491D01*
X0089686Y0123491D01*
X0089465Y0124026D01*
X0089118Y0124372D01*
X0089230Y0124791D01*
X0089230Y0127009D01*
X0085646Y0127009D01*
X0085646Y0127378D01*
X0089230Y0127378D01*
X0089230Y0129596D01*
X0089107Y0130054D01*
X0088870Y0130464D01*
X0088535Y0130799D01*
X0088125Y0131036D01*
X0087667Y0131159D01*
X0085646Y0131159D01*
X0085646Y0127378D01*
X0085277Y0127378D01*
X0085277Y0127009D01*
X0081693Y0127009D01*
X0081693Y0124791D01*
X0081805Y0124372D01*
X0081458Y0124026D01*
X0081093Y0123144D01*
X0081093Y0117858D01*
X0081458Y0116976D01*
X0082133Y0116301D01*
X0083016Y0115935D01*
X0087907Y0115935D01*
X0088789Y0116301D01*
X0089465Y0116976D01*
X0089686Y0117510D01*
X0093005Y0117510D01*
X0088160Y0112665D01*
X0085378Y0112665D01*
X0084496Y0112299D01*
X0084012Y0111816D01*
X0083794Y0111942D01*
X0083336Y0112065D01*
X0081315Y0112065D01*
X0081315Y0108284D01*
X0080946Y0108284D01*
X0080946Y0112065D01*
X0079594Y0112065D01*
X0079594Y0126411D01*
X0079138Y0127510D01*
X0078297Y0128351D01*
X0075460Y0131188D01*
X0075460Y0131411D01*
X0075094Y0132293D01*
X0074419Y0132968D01*
X0073537Y0133334D01*
X0068645Y0133334D01*
X0067763Y0132968D01*
X0067745Y0132950D01*
X0067726Y0132968D01*
X0066844Y0133334D01*
X0061953Y0133334D01*
X0061070Y0132968D01*
X0060395Y0132293D01*
X0060030Y0131411D01*
X0060030Y0127047D01*
X0036597Y0127047D01*
X0035420Y0126560D01*
X0034520Y0125660D01*
X0032559Y0123699D01*
X0032559Y0139254D01*
X0039543Y0146238D01*
X0060056Y0146238D01*
X0060030Y0146175D01*
X0060030Y0144068D02*
X0037373Y0144068D01*
X0035774Y0142469D02*
X0060030Y0142469D01*
X0060038Y0140870D02*
X0034175Y0140870D01*
X0032577Y0139272D02*
X0061216Y0139272D01*
X0067581Y0139272D02*
X0067909Y0139272D01*
X0064398Y0143532D02*
X0064398Y0149438D01*
X0076048Y0140870D02*
X0089243Y0140870D01*
X0089173Y0142469D02*
X0077814Y0142469D01*
X0077178Y0141833D02*
X0077178Y0141833D01*
X0079413Y0144068D02*
X0089173Y0144068D01*
X0089173Y0145666D02*
X0081011Y0145666D01*
X0082610Y0147265D02*
X0090087Y0147265D01*
X0092757Y0147265D02*
X0093126Y0147265D01*
X0093126Y0145666D02*
X0092757Y0145666D01*
X0092757Y0144068D02*
X0093126Y0144068D01*
X0093126Y0142469D02*
X0092757Y0142469D01*
X0092757Y0140870D02*
X0093126Y0140870D01*
X0096452Y0139272D02*
X0074274Y0139272D01*
X0074510Y0132878D02*
X0094000Y0132878D01*
X0094000Y0132166D02*
X0095959Y0132166D01*
X0094000Y0132166D01*
X0094000Y0131279D02*
X0075460Y0131279D01*
X0076967Y0129681D02*
X0081716Y0129681D01*
X0081693Y0129596D02*
X0081693Y0127378D01*
X0085277Y0127378D01*
X0085277Y0131159D01*
X0083256Y0131159D01*
X0082798Y0131036D01*
X0082388Y0130799D01*
X0082053Y0130464D01*
X0081816Y0130054D01*
X0081693Y0129596D01*
X0081693Y0128082D02*
X0078566Y0128082D01*
X0079563Y0126484D02*
X0081693Y0126484D01*
X0081693Y0124885D02*
X0079594Y0124885D01*
X0079594Y0123287D02*
X0081152Y0123287D01*
X0081093Y0121688D02*
X0079594Y0121688D01*
X0079594Y0120090D02*
X0081093Y0120090D01*
X0081093Y0118491D02*
X0079594Y0118491D01*
X0079594Y0116893D02*
X0081541Y0116893D01*
X0079594Y0115294D02*
X0090789Y0115294D01*
X0089381Y0116893D02*
X0092388Y0116893D01*
X0089191Y0113696D02*
X0079594Y0113696D01*
X0079594Y0112097D02*
X0084294Y0112097D01*
X0081315Y0110499D02*
X0080946Y0110499D01*
X0080946Y0108900D02*
X0081315Y0108900D01*
X0081315Y0107915D02*
X0081315Y0104134D01*
X0083336Y0104134D01*
X0083794Y0104257D01*
X0084012Y0104383D01*
X0084496Y0103899D01*
X0084833Y0103759D01*
X0084833Y0100628D01*
X0084496Y0100488D01*
X0084477Y0100470D01*
X0084459Y0100488D01*
X0083577Y0100854D01*
X0080795Y0100854D01*
X0079594Y0102054D01*
X0079594Y0104134D01*
X0080946Y0104134D01*
X0080946Y0107915D01*
X0081315Y0107915D01*
X0081315Y0107302D02*
X0080946Y0107302D01*
X0080946Y0105703D02*
X0081315Y0105703D01*
X0079594Y0104105D02*
X0084290Y0104105D01*
X0084833Y0102506D02*
X0079594Y0102506D01*
X0080740Y0100908D02*
X0084833Y0100908D01*
X0068101Y0100908D02*
X0036496Y0100908D01*
X0036496Y0102506D02*
X0068101Y0102506D01*
X0068101Y0104105D02*
X0036496Y0104105D01*
X0036496Y0105703D02*
X0068101Y0105703D01*
X0068101Y0107302D02*
X0036496Y0107302D01*
X0036496Y0108900D02*
X0068101Y0108900D01*
X0068101Y0110499D02*
X0036496Y0110499D01*
X0036496Y0112097D02*
X0068101Y0112097D01*
X0068101Y0112618D02*
X0067763Y0112758D01*
X0067745Y0112776D01*
X0067726Y0112758D01*
X0066844Y0112392D01*
X0061953Y0112392D01*
X0061070Y0112758D01*
X0060395Y0113433D01*
X0060030Y0114315D01*
X0060030Y0119600D01*
X0060395Y0120482D01*
X0060560Y0120647D01*
X0038559Y0120647D01*
X0036496Y0118585D01*
X0036496Y0033637D01*
X0040507Y0029626D01*
X0042619Y0029626D01*
X0043593Y0029222D01*
X0043593Y0033117D01*
X0039010Y0038117D01*
X0038635Y0038492D01*
X0038609Y0038554D01*
X0038564Y0038604D01*
X0038382Y0039101D01*
X0038180Y0039591D01*
X0038180Y0039658D01*
X0038157Y0039721D01*
X0038180Y0040251D01*
X0038180Y0045410D01*
X0037645Y0045632D01*
X0036970Y0046307D01*
X0036605Y0047189D01*
X0036605Y0052081D01*
X0036970Y0052963D01*
X0036989Y0052981D01*
X0036970Y0053000D01*
X0036605Y0053882D01*
X0036605Y0058773D01*
X0036970Y0059656D01*
X0037645Y0060331D01*
X0038180Y0060552D01*
X0038180Y0063418D01*
X0038635Y0064518D01*
X0039476Y0065359D01*
X0051287Y0077170D01*
X0052386Y0077625D01*
X0093081Y0077625D01*
X0143202Y0127746D01*
X0128039Y0127746D01*
X0107825Y0107532D01*
X0107153Y0107254D01*
X0107153Y0095693D01*
X0106697Y0094594D01*
X0105856Y0093753D01*
X0098966Y0086863D01*
X0097867Y0086408D01*
X0075024Y0086408D01*
X0073925Y0086863D01*
X0073084Y0087704D01*
X0068556Y0092232D01*
X0068101Y0093331D01*
X0068101Y0112618D01*
X0064398Y0116957D02*
X0064398Y0123847D01*
X0037233Y0123847D01*
X0033296Y0119910D01*
X0033296Y0032312D01*
X0041485Y0024123D01*
X0039560Y0030573D02*
X0043593Y0030573D01*
X0043593Y0032172D02*
X0037962Y0032172D01*
X0036496Y0033770D02*
X0042994Y0033770D01*
X0041529Y0035369D02*
X0036496Y0035369D01*
X0036496Y0036967D02*
X0040064Y0036967D01*
X0038598Y0038566D02*
X0036496Y0038566D01*
X0036496Y0040164D02*
X0038176Y0040164D01*
X0038180Y0041763D02*
X0036496Y0041763D01*
X0036496Y0043361D02*
X0038180Y0043361D01*
X0038180Y0044960D02*
X0036496Y0044960D01*
X0036496Y0046558D02*
X0036866Y0046558D01*
X0036605Y0048157D02*
X0036496Y0048157D01*
X0036496Y0049755D02*
X0036605Y0049755D01*
X0036605Y0051354D02*
X0036496Y0051354D01*
X0036496Y0052952D02*
X0036966Y0052952D01*
X0036605Y0054551D02*
X0036496Y0054551D01*
X0036496Y0056149D02*
X0036605Y0056149D01*
X0036605Y0057748D02*
X0036496Y0057748D01*
X0036496Y0059346D02*
X0036842Y0059346D01*
X0036496Y0060945D02*
X0038180Y0060945D01*
X0038180Y0062543D02*
X0036496Y0062543D01*
X0036496Y0064142D02*
X0038479Y0064142D01*
X0039858Y0065740D02*
X0036496Y0065740D01*
X0036496Y0067339D02*
X0041456Y0067339D01*
X0043055Y0068937D02*
X0036496Y0068937D01*
X0036496Y0070536D02*
X0044653Y0070536D01*
X0046252Y0072134D02*
X0036496Y0072134D01*
X0036496Y0073733D02*
X0047850Y0073733D01*
X0049449Y0075332D02*
X0036496Y0075332D01*
X0036496Y0076930D02*
X0051047Y0076930D01*
X0036496Y0078529D02*
X0093984Y0078529D01*
X0095583Y0080127D02*
X0036496Y0080127D01*
X0036496Y0081726D02*
X0097181Y0081726D01*
X0098780Y0083324D02*
X0036496Y0083324D01*
X0036496Y0084923D02*
X0100378Y0084923D01*
X0101977Y0086521D02*
X0098141Y0086521D01*
X0100223Y0088120D02*
X0103575Y0088120D01*
X0105174Y0089718D02*
X0101821Y0089718D01*
X0103420Y0091317D02*
X0106772Y0091317D01*
X0108371Y0092915D02*
X0105018Y0092915D01*
X0106617Y0094514D02*
X0109969Y0094514D01*
X0111568Y0096112D02*
X0107153Y0096112D01*
X0107153Y0097711D02*
X0113166Y0097711D01*
X0114765Y0099309D02*
X0107153Y0099309D01*
X0107153Y0100908D02*
X0116363Y0100908D01*
X0117962Y0102506D02*
X0107153Y0102506D01*
X0107153Y0104105D02*
X0119560Y0104105D01*
X0121159Y0105703D02*
X0107153Y0105703D01*
X0107268Y0107302D02*
X0122758Y0107302D01*
X0124356Y0108900D02*
X0109193Y0108900D01*
X0110791Y0110499D02*
X0125955Y0110499D01*
X0127553Y0112097D02*
X0112390Y0112097D01*
X0113988Y0113696D02*
X0129152Y0113696D01*
X0130750Y0115294D02*
X0115587Y0115294D01*
X0117185Y0116893D02*
X0132349Y0116893D01*
X0133947Y0118491D02*
X0118784Y0118491D01*
X0120382Y0120090D02*
X0135546Y0120090D01*
X0137144Y0121688D02*
X0121981Y0121688D01*
X0123579Y0123287D02*
X0138743Y0123287D01*
X0140341Y0124885D02*
X0125178Y0124885D01*
X0126776Y0126484D02*
X0141940Y0126484D01*
X0123972Y0136075D02*
X0115027Y0136075D01*
X0115027Y0137673D02*
X0174689Y0137673D01*
X0173091Y0139272D02*
X0115027Y0139272D01*
X0115027Y0140870D02*
X0171492Y0140870D01*
X0169894Y0142469D02*
X0115027Y0142469D01*
X0115027Y0144068D02*
X0168295Y0144068D01*
X0168413Y0143950D02*
X0168413Y0143950D01*
X0167209Y0145666D02*
X0115027Y0145666D01*
X0115027Y0147265D02*
X0167117Y0147265D01*
X0167117Y0148863D02*
X0115027Y0148863D01*
X0115027Y0150462D02*
X0167117Y0150462D01*
X0166297Y0152060D02*
X0115027Y0152060D01*
X0115027Y0153659D02*
X0164954Y0153659D01*
X0164313Y0155257D02*
X0114383Y0155257D01*
X0112785Y0156856D02*
X0164313Y0156856D01*
X0164313Y0158454D02*
X0111186Y0158454D01*
X0109588Y0160053D02*
X0164313Y0160053D01*
X0164313Y0161651D02*
X0107989Y0161651D01*
X0106391Y0163250D02*
X0164313Y0163250D01*
X0173184Y0166447D02*
X0176243Y0166447D01*
X0174932Y0164848D02*
X0174495Y0164848D01*
X0183184Y0166447D02*
X0186243Y0166447D01*
X0184932Y0164848D02*
X0184495Y0164848D01*
X0193184Y0166447D02*
X0196243Y0166447D01*
X0194932Y0164848D02*
X0194495Y0164848D01*
X0203184Y0166447D02*
X0206243Y0166447D01*
X0204932Y0164848D02*
X0204495Y0164848D01*
X0213184Y0166447D02*
X0216243Y0166447D01*
X0214932Y0164848D02*
X0214495Y0164848D01*
X0223184Y0166447D02*
X0301415Y0166447D01*
X0295461Y0164848D02*
X0224495Y0164848D01*
X0225113Y0163250D02*
X0293863Y0163250D01*
X0292444Y0161651D02*
X0225113Y0161651D01*
X0225113Y0160053D02*
X0292117Y0160053D01*
X0292117Y0158454D02*
X0225113Y0158454D01*
X0225113Y0156856D02*
X0292117Y0156856D01*
X0292117Y0155257D02*
X0225113Y0155257D01*
X0224472Y0153659D02*
X0292117Y0153659D01*
X0292117Y0152060D02*
X0223130Y0152060D01*
X0221620Y0150462D02*
X0292117Y0150462D01*
X0292117Y0148863D02*
X0220021Y0148863D01*
X0218423Y0147265D02*
X0292117Y0147265D01*
X0292117Y0145666D02*
X0216824Y0145666D01*
X0215226Y0144068D02*
X0292117Y0144068D01*
X0292117Y0142469D02*
X0213627Y0142469D01*
X0212029Y0140870D02*
X0292117Y0140870D01*
X0292117Y0139272D02*
X0210430Y0139272D01*
X0211128Y0138477D02*
X0210793Y0138141D01*
X0210556Y0137731D01*
X0210433Y0137273D01*
X0210433Y0135252D01*
X0214214Y0135252D01*
X0214214Y0138836D01*
X0211996Y0138836D01*
X0211538Y0138714D01*
X0211128Y0138477D01*
X0210540Y0137673D02*
X0208832Y0137673D01*
X0207233Y0136075D02*
X0210433Y0136075D01*
X0210433Y0134476D02*
X0205635Y0134476D01*
X0204036Y0132878D02*
X0210433Y0132878D01*
X0210023Y0131279D02*
X0202438Y0131279D01*
X0200839Y0129681D02*
X0209833Y0129681D01*
X0209833Y0128082D02*
X0200657Y0128082D01*
X0200657Y0126484D02*
X0209833Y0126484D01*
X0210360Y0124885D02*
X0200657Y0124885D01*
X0218437Y0124885D02*
X0288963Y0124885D01*
X0287365Y0123287D02*
X0219079Y0123287D01*
X0219742Y0121688D02*
X0285766Y0121688D01*
X0284168Y0120090D02*
X0219742Y0120090D01*
X0219742Y0118491D02*
X0282569Y0118491D01*
X0280971Y0116893D02*
X0219742Y0116893D01*
X0218964Y0126484D02*
X0290562Y0126484D01*
X0292117Y0128082D02*
X0218964Y0128082D01*
X0218964Y0129681D02*
X0292117Y0129681D01*
X0292117Y0131279D02*
X0218774Y0131279D01*
X0218364Y0132878D02*
X0292117Y0132878D01*
X0292117Y0134476D02*
X0218364Y0134476D01*
X0218364Y0136075D02*
X0292117Y0136075D01*
X0292117Y0137673D02*
X0218257Y0137673D01*
X0214583Y0137673D02*
X0214214Y0137673D01*
X0214214Y0136075D02*
X0214583Y0136075D01*
X0177287Y0115294D02*
X0177244Y0115294D01*
X0166723Y0100908D02*
X0144507Y0100908D01*
X0144424Y0099309D02*
X0142909Y0099309D01*
X0144094Y0097711D02*
X0141310Y0097711D01*
X0139712Y0096112D02*
X0147876Y0096112D01*
X0147876Y0096104D02*
X0144094Y0096104D01*
X0144094Y0094083D01*
X0144217Y0093625D01*
X0144454Y0093214D01*
X0144789Y0092879D01*
X0145200Y0092642D01*
X0145658Y0092520D01*
X0147876Y0092520D01*
X0147876Y0096104D01*
X0147876Y0094514D02*
X0148244Y0094514D01*
X0148244Y0092915D02*
X0147876Y0092915D01*
X0144753Y0092915D02*
X0136514Y0092915D01*
X0134916Y0091317D02*
X0158339Y0091317D01*
X0161276Y0089718D02*
X0133317Y0089718D01*
X0131719Y0088120D02*
X0145194Y0088120D01*
X0145200Y0088123D02*
X0144789Y0087886D01*
X0144454Y0087551D01*
X0144217Y0087140D01*
X0144094Y0086683D01*
X0144094Y0084661D01*
X0147876Y0084661D01*
X0147876Y0088246D01*
X0145658Y0088246D01*
X0145200Y0088123D01*
X0144094Y0086521D02*
X0130120Y0086521D01*
X0128522Y0084923D02*
X0144094Y0084923D01*
X0144094Y0084293D02*
X0144094Y0082272D01*
X0144217Y0081814D01*
X0144454Y0081403D01*
X0144789Y0081068D01*
X0145200Y0080831D01*
X0145658Y0080709D01*
X0147876Y0080709D01*
X0147876Y0084293D01*
X0144094Y0084293D01*
X0144094Y0083324D02*
X0126923Y0083324D01*
X0125325Y0081726D02*
X0144268Y0081726D01*
X0147876Y0081726D02*
X0148244Y0081726D01*
X0148244Y0083324D02*
X0147876Y0083324D01*
X0147876Y0084923D02*
X0148244Y0084923D01*
X0148244Y0086521D02*
X0147876Y0086521D01*
X0147876Y0088120D02*
X0148244Y0088120D01*
X0158638Y0088120D02*
X0159678Y0088120D01*
X0165224Y0082254D02*
X0166723Y0083753D01*
X0166723Y0080578D01*
X0166559Y0080578D01*
X0165460Y0080123D01*
X0165224Y0079886D01*
X0165224Y0082254D01*
X0165224Y0081726D02*
X0166723Y0081726D01*
X0166723Y0083324D02*
X0166294Y0083324D01*
X0165471Y0080127D02*
X0165224Y0080127D01*
X0175066Y0070536D02*
X0178875Y0070536D01*
X0177092Y0068937D02*
X0175066Y0068937D01*
X0175066Y0067339D02*
X0176959Y0067339D01*
X0176959Y0065740D02*
X0175066Y0065740D01*
X0175066Y0064142D02*
X0176959Y0064142D01*
X0176959Y0062543D02*
X0175289Y0062543D01*
X0176442Y0060945D02*
X0177844Y0060945D01*
X0176444Y0059346D02*
X0180896Y0059346D01*
X0180896Y0057748D02*
X0176444Y0057748D01*
X0176444Y0056149D02*
X0180896Y0056149D01*
X0180896Y0054551D02*
X0175858Y0054551D01*
X0175844Y0052952D02*
X0180896Y0052952D01*
X0180896Y0051354D02*
X0175844Y0051354D01*
X0175844Y0051419D02*
X0172260Y0051419D01*
X0172260Y0047638D01*
X0174281Y0047638D01*
X0174739Y0047760D01*
X0175149Y0047997D01*
X0175484Y0048333D01*
X0175721Y0048743D01*
X0175844Y0049201D01*
X0175844Y0051419D01*
X0175844Y0049755D02*
X0180896Y0049755D01*
X0180896Y0048157D02*
X0175309Y0048157D01*
X0172260Y0048157D02*
X0171891Y0048157D01*
X0171891Y0049755D02*
X0172260Y0049755D01*
X0172260Y0051354D02*
X0171891Y0051354D01*
X0168307Y0051354D02*
X0167192Y0051354D01*
X0167192Y0052952D02*
X0168307Y0052952D01*
X0168293Y0054551D02*
X0166616Y0054551D01*
X0167662Y0056149D02*
X0167707Y0056149D01*
X0162401Y0059346D02*
X0159318Y0059346D01*
X0159318Y0060945D02*
X0163999Y0060945D01*
X0164164Y0062543D02*
X0160027Y0062543D01*
X0160027Y0064142D02*
X0164164Y0064142D01*
X0164164Y0065740D02*
X0160027Y0065740D01*
X0160432Y0067339D02*
X0164164Y0067339D01*
X0164164Y0068937D02*
X0162734Y0068937D01*
X0148244Y0064142D02*
X0147876Y0064142D01*
X0147876Y0064624D02*
X0145658Y0064624D01*
X0145200Y0064501D01*
X0144789Y0064264D01*
X0144454Y0063929D01*
X0144217Y0063518D01*
X0144094Y0063061D01*
X0144094Y0061039D01*
X0147876Y0061039D01*
X0147876Y0064624D01*
X0147876Y0062543D02*
X0148244Y0062543D01*
X0147876Y0060945D02*
X0104544Y0060945D01*
X0104553Y0059346D02*
X0144094Y0059346D01*
X0144094Y0058650D02*
X0144217Y0058192D01*
X0144454Y0057781D01*
X0144789Y0057446D01*
X0145200Y0057209D01*
X0145658Y0057087D01*
X0147876Y0057087D01*
X0147876Y0060671D01*
X0144094Y0060671D01*
X0144094Y0058650D01*
X0144488Y0057748D02*
X0104791Y0057748D01*
X0104791Y0056149D02*
X0160227Y0056149D01*
X0160802Y0057748D02*
X0159044Y0057748D01*
X0156118Y0054551D02*
X0155750Y0054551D01*
X0155750Y0052952D02*
X0156118Y0052952D01*
X0156118Y0051354D02*
X0155750Y0051354D01*
X0155750Y0050828D02*
X0151969Y0050828D01*
X0151969Y0048807D01*
X0152091Y0048349D01*
X0152328Y0047939D01*
X0152663Y0047604D01*
X0153074Y0047367D01*
X0153532Y0047244D01*
X0155750Y0047244D01*
X0155750Y0050828D01*
X0155750Y0049755D02*
X0156118Y0049755D01*
X0156118Y0048157D02*
X0155750Y0048157D01*
X0152202Y0048157D02*
X0104791Y0048157D01*
X0104791Y0049755D02*
X0151969Y0049755D01*
X0151969Y0051354D02*
X0104791Y0051354D01*
X0104429Y0052952D02*
X0151969Y0052952D01*
X0152887Y0054551D02*
X0104791Y0054551D01*
X0106143Y0062543D02*
X0144094Y0062543D01*
X0144667Y0064142D02*
X0107741Y0064142D01*
X0109340Y0065740D02*
X0125559Y0065740D01*
X0124794Y0067339D02*
X0110938Y0067339D01*
X0112537Y0068937D02*
X0124794Y0068937D01*
X0124794Y0070536D02*
X0114135Y0070536D01*
X0115734Y0072134D02*
X0124794Y0072134D01*
X0124794Y0073733D02*
X0117332Y0073733D01*
X0118931Y0075332D02*
X0124794Y0075332D01*
X0124794Y0076930D02*
X0120529Y0076930D01*
X0122128Y0078529D02*
X0124937Y0078529D01*
X0126101Y0080127D02*
X0123726Y0080127D01*
X0138113Y0094514D02*
X0144094Y0094514D01*
X0147876Y0097711D02*
X0148244Y0097711D01*
X0148244Y0099309D02*
X0147876Y0099309D01*
X0159080Y0099309D02*
X0166723Y0099309D01*
X0166723Y0097711D02*
X0163771Y0097711D01*
X0165032Y0096112D02*
X0166723Y0096112D01*
X0166723Y0094514D02*
X0165430Y0094514D01*
X0183887Y0076603D02*
X0183887Y0075619D01*
X0148244Y0059346D02*
X0147876Y0059346D01*
X0147876Y0057748D02*
X0148244Y0057748D01*
X0167192Y0049755D02*
X0168307Y0049755D01*
X0168842Y0048157D02*
X0167022Y0048157D01*
X0166208Y0046558D02*
X0180896Y0046558D01*
X0180896Y0044960D02*
X0166208Y0044960D01*
X0166208Y0043361D02*
X0180896Y0043361D01*
X0180896Y0041763D02*
X0166208Y0041763D01*
X0160227Y0041763D02*
X0103216Y0041763D01*
X0103216Y0043361D02*
X0160227Y0043361D01*
X0160227Y0044960D02*
X0103216Y0044960D01*
X0104529Y0046558D02*
X0160227Y0046558D01*
X0157672Y0040164D02*
X0103216Y0040164D01*
X0103216Y0038566D02*
X0157471Y0038566D01*
X0157471Y0036967D02*
X0103216Y0036967D01*
X0103216Y0035369D02*
X0157471Y0035369D01*
X0157471Y0033770D02*
X0103216Y0033770D01*
X0103216Y0032172D02*
X0157739Y0032172D01*
X0173860Y0032172D02*
X0175213Y0032172D01*
X0175213Y0031496D02*
X0178612Y0031496D01*
X0179070Y0031619D01*
X0179480Y0031856D01*
X0179815Y0032191D01*
X0180052Y0032601D01*
X0180175Y0033059D01*
X0180175Y0035572D01*
X0175213Y0035572D01*
X0175213Y0031496D01*
X0175213Y0033770D02*
X0173860Y0033770D01*
X0173860Y0035369D02*
X0175213Y0035369D01*
X0175213Y0036967D02*
X0173860Y0036967D01*
X0173860Y0038566D02*
X0175213Y0038566D01*
X0175213Y0040164D02*
X0173860Y0040164D01*
X0179897Y0040164D02*
X0180896Y0040164D01*
X0180896Y0038566D02*
X0180175Y0038566D01*
X0180175Y0036967D02*
X0180896Y0036967D01*
X0180896Y0035369D02*
X0180175Y0035369D01*
X0180175Y0033770D02*
X0180896Y0033770D01*
X0180896Y0032172D02*
X0179796Y0032172D01*
X0180896Y0030573D02*
X0103216Y0030573D01*
X0103216Y0028975D02*
X0180896Y0028975D01*
X0180896Y0027376D02*
X0103216Y0027376D01*
X0103216Y0025778D02*
X0180896Y0025778D01*
X0180896Y0024179D02*
X0103216Y0024179D01*
X0103216Y0022581D02*
X0180896Y0022581D01*
X0180896Y0020982D02*
X0103216Y0020982D01*
X0103216Y0019384D02*
X0181112Y0019384D01*
X0182373Y0017785D02*
X0103153Y0017785D01*
X0102109Y0016187D02*
X0183972Y0016187D01*
X0185570Y0014588D02*
X0100510Y0014588D01*
X0098912Y0012990D02*
X0187169Y0012990D01*
X0188767Y0011391D02*
X0097313Y0011391D01*
X0095715Y0009793D02*
X0190366Y0009793D01*
X0191964Y0008194D02*
X0094116Y0008194D01*
X0092518Y0006596D02*
X0193563Y0006596D01*
X0195161Y0004997D02*
X0090674Y0004997D01*
X0078280Y0004997D02*
X0023885Y0004997D01*
X0023885Y0006596D02*
X0076437Y0006596D01*
X0074838Y0008194D02*
X0023885Y0008194D01*
X0047038Y0009793D02*
X0047557Y0009793D01*
X0055413Y0009793D02*
X0057557Y0009793D01*
X0065413Y0009793D02*
X0067557Y0009793D01*
X0061669Y0024110D02*
X0061301Y0024110D01*
X0061301Y0029026D01*
X0061084Y0029026D01*
X0060291Y0028900D01*
X0059527Y0028652D01*
X0059417Y0028596D01*
X0059417Y0032004D01*
X0066443Y0038617D01*
X0066486Y0038635D01*
X0066875Y0039023D01*
X0067275Y0039400D01*
X0067294Y0039443D01*
X0067327Y0039476D01*
X0067538Y0039984D01*
X0067763Y0040485D01*
X0067765Y0040532D01*
X0067783Y0040575D01*
X0067783Y0041125D01*
X0067799Y0041674D01*
X0067783Y0041718D01*
X0067783Y0045410D01*
X0068317Y0045632D01*
X0068992Y0046307D01*
X0069357Y0047189D01*
X0069357Y0052081D01*
X0068992Y0052963D01*
X0068974Y0052981D01*
X0068992Y0053000D01*
X0069357Y0053882D01*
X0069357Y0058773D01*
X0068992Y0059656D01*
X0068317Y0060331D01*
X0067783Y0060552D01*
X0067783Y0061585D01*
X0071936Y0065739D01*
X0076273Y0065739D01*
X0074068Y0063533D01*
X0073613Y0062434D01*
X0073613Y0060552D01*
X0073078Y0060331D01*
X0072403Y0059656D01*
X0072038Y0058773D01*
X0072038Y0053882D01*
X0072403Y0053000D01*
X0072422Y0052981D01*
X0072403Y0052963D01*
X0072038Y0052081D01*
X0072038Y0047189D01*
X0072403Y0046307D01*
X0073078Y0045632D01*
X0073613Y0045410D01*
X0073613Y0040575D01*
X0074068Y0039476D01*
X0074909Y0038635D01*
X0078494Y0035049D01*
X0078494Y0028857D01*
X0078256Y0028758D01*
X0076653Y0027155D01*
X0076485Y0026750D01*
X0076317Y0027155D01*
X0074714Y0028758D01*
X0072619Y0029626D01*
X0070351Y0029626D01*
X0068256Y0028758D01*
X0066653Y0027155D01*
X0066164Y0025976D01*
X0065847Y0026599D01*
X0065375Y0027248D01*
X0064807Y0027816D01*
X0064158Y0028288D01*
X0063443Y0028652D01*
X0062679Y0028900D01*
X0061886Y0029026D01*
X0061669Y0029026D01*
X0061669Y0024110D01*
X0061669Y0024179D02*
X0061301Y0024179D01*
X0061301Y0025778D02*
X0061669Y0025778D01*
X0061669Y0027376D02*
X0061301Y0027376D01*
X0061301Y0028975D02*
X0061669Y0028975D01*
X0062210Y0028975D02*
X0068779Y0028975D01*
X0066874Y0027376D02*
X0065247Y0027376D01*
X0060760Y0028975D02*
X0059417Y0028975D01*
X0059417Y0030573D02*
X0078494Y0030573D01*
X0078494Y0028975D02*
X0074191Y0028975D01*
X0076096Y0027376D02*
X0076874Y0027376D01*
X0078494Y0032172D02*
X0059595Y0032172D01*
X0061293Y0033770D02*
X0078494Y0033770D01*
X0078175Y0035369D02*
X0062992Y0035369D01*
X0064690Y0036967D02*
X0076577Y0036967D01*
X0074978Y0038566D02*
X0066388Y0038566D01*
X0067619Y0040164D02*
X0073783Y0040164D01*
X0073613Y0041763D02*
X0067783Y0041763D01*
X0067783Y0043361D02*
X0073613Y0043361D01*
X0073613Y0044960D02*
X0067783Y0044960D01*
X0069096Y0046558D02*
X0072299Y0046558D01*
X0072038Y0048157D02*
X0069357Y0048157D01*
X0069357Y0049755D02*
X0072038Y0049755D01*
X0072038Y0051354D02*
X0069357Y0051354D01*
X0068996Y0052952D02*
X0072399Y0052952D01*
X0072038Y0054551D02*
X0069357Y0054551D01*
X0069357Y0056149D02*
X0072038Y0056149D01*
X0072038Y0057748D02*
X0069357Y0057748D01*
X0069120Y0059346D02*
X0072275Y0059346D01*
X0073613Y0060945D02*
X0067783Y0060945D01*
X0068741Y0062543D02*
X0073658Y0062543D01*
X0074676Y0064142D02*
X0070340Y0064142D01*
X0074751Y0086521D02*
X0036496Y0086521D01*
X0036496Y0088120D02*
X0072668Y0088120D01*
X0071070Y0089718D02*
X0036496Y0089718D01*
X0036496Y0091317D02*
X0069471Y0091317D01*
X0068273Y0092915D02*
X0036496Y0092915D01*
X0036496Y0094514D02*
X0068101Y0094514D01*
X0068101Y0096112D02*
X0036496Y0096112D01*
X0036496Y0097711D02*
X0068101Y0097711D01*
X0068101Y0099309D02*
X0036496Y0099309D01*
X0036496Y0113696D02*
X0060286Y0113696D01*
X0060030Y0115294D02*
X0036496Y0115294D01*
X0036496Y0116893D02*
X0060030Y0116893D01*
X0060030Y0118491D02*
X0036496Y0118491D01*
X0038001Y0120090D02*
X0060233Y0120090D01*
X0064398Y0123847D02*
X0064398Y0128769D01*
X0060030Y0128082D02*
X0032559Y0128082D01*
X0032559Y0126484D02*
X0035344Y0126484D01*
X0033746Y0124885D02*
X0032559Y0124885D01*
X0032559Y0129681D02*
X0060030Y0129681D01*
X0060030Y0131279D02*
X0032559Y0131279D01*
X0032559Y0132878D02*
X0060980Y0132878D01*
X0085277Y0129681D02*
X0085646Y0129681D01*
X0085646Y0128082D02*
X0085277Y0128082D01*
X0089230Y0128082D02*
X0095270Y0128082D01*
X0096390Y0128082D02*
X0096391Y0128082D01*
X0094000Y0129681D02*
X0089207Y0129681D01*
X0089230Y0126484D02*
X0118318Y0126484D01*
X0119916Y0128082D02*
X0106331Y0128082D01*
X0116719Y0124885D02*
X0089230Y0124885D01*
X0095959Y0132166D02*
X0095959Y0132166D01*
X0094000Y0134476D02*
X0032559Y0134476D01*
X0032559Y0136075D02*
X0094879Y0136075D01*
X0096250Y0137673D02*
X0032559Y0137673D01*
X0084208Y0148863D02*
X0096644Y0148863D01*
X0096644Y0150462D02*
X0085807Y0150462D01*
X0087405Y0152060D02*
X0088839Y0152060D01*
X0095796Y0147265D02*
X0095839Y0147265D01*
X0103676Y0123287D02*
X0108516Y0123287D01*
X0107263Y0121688D02*
X0105629Y0121688D01*
X0113588Y0123287D02*
X0115121Y0123287D01*
X0023885Y0176038D02*
X0372796Y0176038D01*
X0346698Y0163250D02*
X0336287Y0163250D01*
X0336287Y0161651D02*
X0346385Y0161651D01*
X0346385Y0160053D02*
X0336070Y0160053D01*
X0337778Y0164848D02*
X0345909Y0164848D01*
X0346385Y0158454D02*
X0328216Y0158454D01*
X0328216Y0156856D02*
X0346385Y0156856D01*
X0346420Y0155257D02*
X0334551Y0155257D01*
X0334581Y0155249D02*
X0334124Y0155372D01*
X0332102Y0155372D01*
X0332102Y0151591D01*
X0335687Y0151591D01*
X0335687Y0153809D01*
X0335564Y0154266D01*
X0335327Y0154677D01*
X0334992Y0155012D01*
X0334581Y0155249D01*
X0335687Y0153659D02*
X0347072Y0153659D01*
X0346385Y0152060D02*
X0335687Y0152060D01*
X0335687Y0150462D02*
X0346385Y0150462D01*
X0346385Y0147265D02*
X0328611Y0147265D01*
X0331734Y0148863D02*
X0332102Y0148863D01*
X0332102Y0150462D02*
X0331734Y0150462D01*
X0331734Y0152060D02*
X0332102Y0152060D01*
X0332102Y0153659D02*
X0331734Y0153659D01*
X0331734Y0155257D02*
X0332102Y0155257D01*
X0329285Y0155257D02*
X0328902Y0155257D01*
X0320857Y0153659D02*
X0316602Y0153659D01*
X0316602Y0152060D02*
X0320857Y0152060D01*
X0320857Y0150462D02*
X0316602Y0150462D01*
X0316602Y0148863D02*
X0320857Y0148863D01*
X0321839Y0147265D02*
X0315619Y0147265D01*
X0308924Y0145666D02*
X0346385Y0145666D01*
X0347284Y0144068D02*
X0308924Y0144068D01*
X0308924Y0142469D02*
X0346967Y0142469D01*
X0346121Y0140870D02*
X0308924Y0140870D01*
X0308924Y0139272D02*
X0345785Y0139272D01*
X0345834Y0137673D02*
X0308924Y0137673D01*
X0308924Y0136075D02*
X0346496Y0136075D01*
X0347874Y0134476D02*
X0308924Y0134476D01*
X0308924Y0132878D02*
X0347376Y0132878D01*
X0346290Y0131279D02*
X0308924Y0131279D01*
X0308924Y0129681D02*
X0345785Y0129681D01*
X0345785Y0128082D02*
X0308924Y0128082D01*
X0308924Y0126484D02*
X0346327Y0126484D01*
X0347465Y0124885D02*
X0308924Y0124885D01*
X0308924Y0123287D02*
X0347785Y0123287D01*
X0346460Y0121688D02*
X0308004Y0121688D01*
X0306406Y0120090D02*
X0345797Y0120090D01*
X0345785Y0118491D02*
X0304807Y0118491D01*
X0303209Y0116893D02*
X0346158Y0116893D01*
X0347056Y0115294D02*
X0301610Y0115294D01*
X0300012Y0113696D02*
X0348194Y0113696D01*
X0346629Y0112097D02*
X0298413Y0112097D01*
X0296815Y0110499D02*
X0345967Y0110499D01*
X0345785Y0108900D02*
X0295216Y0108900D01*
X0293618Y0107302D02*
X0345988Y0107302D01*
X0346650Y0105703D02*
X0292019Y0105703D01*
X0290421Y0104105D02*
X0348245Y0104105D01*
X0347004Y0102506D02*
X0288822Y0102506D01*
X0287224Y0100908D02*
X0346136Y0100908D01*
X0345785Y0099309D02*
X0285625Y0099309D01*
X0284027Y0097711D02*
X0345819Y0097711D01*
X0364821Y0059346D02*
X0373211Y0059346D01*
X0373217Y0057748D02*
X0366420Y0057748D01*
X0368018Y0056149D02*
X0373222Y0056149D01*
X0373228Y0054551D02*
X0369617Y0054551D01*
X0371215Y0052952D02*
X0373234Y0052952D01*
X0373239Y0051354D02*
X0372814Y0051354D01*
X0304912Y0027136D02*
X0304912Y0025187D01*
X0304765Y0025126D01*
X0303246Y0023607D01*
X0302824Y0022588D01*
X0302402Y0023607D01*
X0300882Y0025126D01*
X0298898Y0025948D01*
X0296749Y0025948D01*
X0294765Y0025126D01*
X0293246Y0023607D01*
X0292824Y0022588D01*
X0292402Y0023607D01*
X0290882Y0025126D01*
X0288898Y0025948D01*
X0286749Y0025948D01*
X0284765Y0025126D01*
X0283246Y0023607D01*
X0282824Y0022588D01*
X0282402Y0023607D01*
X0280882Y0025126D01*
X0278898Y0025948D01*
X0276749Y0025948D01*
X0274765Y0025126D01*
X0273246Y0023607D01*
X0272479Y0021755D01*
X0272272Y0022391D01*
X0271929Y0023064D01*
X0271485Y0023675D01*
X0270951Y0024209D01*
X0270339Y0024653D01*
X0269666Y0024996D01*
X0268948Y0025230D01*
X0268201Y0025348D01*
X0268024Y0025348D01*
X0268024Y0017748D01*
X0267624Y0017748D01*
X0267624Y0025348D01*
X0267446Y0025348D01*
X0266700Y0025230D01*
X0265981Y0024996D01*
X0265308Y0024653D01*
X0264697Y0024209D01*
X0264162Y0023675D01*
X0263718Y0023064D01*
X0263375Y0022391D01*
X0263142Y0021672D01*
X0263024Y0020926D01*
X0263024Y0017748D01*
X0267624Y0017748D01*
X0267624Y0017348D01*
X0263024Y0017348D01*
X0263024Y0014170D01*
X0263142Y0013424D01*
X0263375Y0012705D01*
X0263718Y0012032D01*
X0263974Y0011680D01*
X0220558Y0011680D01*
X0198688Y0033551D01*
X0198688Y0048714D01*
X0217626Y0029777D01*
X0218725Y0029321D01*
X0272080Y0029321D01*
X0273179Y0029777D01*
X0276661Y0033258D01*
X0277421Y0033258D01*
X0277975Y0032704D01*
X0279512Y0032068D01*
X0281175Y0032068D01*
X0282712Y0032704D01*
X0283888Y0033880D01*
X0284524Y0035417D01*
X0284524Y0037080D01*
X0283888Y0038617D01*
X0283341Y0039164D01*
X0292884Y0039164D01*
X0304912Y0027136D01*
X0304672Y0027376D02*
X0204863Y0027376D01*
X0206461Y0025778D02*
X0276338Y0025778D01*
X0279309Y0025778D02*
X0286338Y0025778D01*
X0289309Y0025778D02*
X0296338Y0025778D01*
X0299309Y0025778D02*
X0304912Y0025778D01*
X0303818Y0024179D02*
X0301829Y0024179D01*
X0293818Y0024179D02*
X0291829Y0024179D01*
X0283818Y0024179D02*
X0281829Y0024179D01*
X0273818Y0024179D02*
X0270981Y0024179D01*
X0272175Y0022581D02*
X0272821Y0022581D01*
X0268024Y0022581D02*
X0267624Y0022581D01*
X0267624Y0024179D02*
X0268024Y0024179D01*
X0268024Y0020982D02*
X0267624Y0020982D01*
X0267624Y0019384D02*
X0268024Y0019384D01*
X0268024Y0017785D02*
X0267624Y0017785D01*
X0263024Y0017785D02*
X0214454Y0017785D01*
X0216052Y0016187D02*
X0263024Y0016187D01*
X0263024Y0014588D02*
X0217651Y0014588D01*
X0219249Y0012990D02*
X0263283Y0012990D01*
X0263024Y0019384D02*
X0212855Y0019384D01*
X0211257Y0020982D02*
X0263033Y0020982D01*
X0263472Y0022581D02*
X0209658Y0022581D01*
X0208060Y0024179D02*
X0264667Y0024179D01*
X0273976Y0030573D02*
X0301475Y0030573D01*
X0303073Y0028975D02*
X0203264Y0028975D01*
X0201666Y0030573D02*
X0216829Y0030573D01*
X0215230Y0032172D02*
X0200067Y0032172D01*
X0198688Y0033770D02*
X0213632Y0033770D01*
X0212033Y0035369D02*
X0198688Y0035369D01*
X0198688Y0036967D02*
X0210435Y0036967D01*
X0208836Y0038566D02*
X0198688Y0038566D01*
X0198688Y0040164D02*
X0207238Y0040164D01*
X0205639Y0041763D02*
X0198688Y0041763D01*
X0198688Y0043361D02*
X0204041Y0043361D01*
X0202442Y0044960D02*
X0198688Y0044960D01*
X0198688Y0046558D02*
X0200844Y0046558D01*
X0199245Y0048157D02*
X0198688Y0048157D01*
X0275574Y0032172D02*
X0279261Y0032172D01*
X0281426Y0032172D02*
X0299876Y0032172D01*
X0298278Y0033770D02*
X0283778Y0033770D01*
X0284504Y0035369D02*
X0296679Y0035369D01*
X0295081Y0036967D02*
X0284524Y0036967D01*
X0283909Y0038566D02*
X0293482Y0038566D01*
X0335649Y0148863D02*
X0351301Y0148863D01*
X0351301Y0149110D02*
X0351301Y0158742D01*
X0351669Y0158742D01*
X0351669Y0154026D01*
X0351669Y0149110D01*
X0351301Y0149110D01*
X0351301Y0150462D02*
X0351669Y0150462D01*
X0351669Y0152060D02*
X0351301Y0152060D01*
X0351301Y0153659D02*
X0351669Y0153659D01*
X0351669Y0155257D02*
X0351301Y0155257D01*
X0351301Y0156856D02*
X0351669Y0156856D01*
X0351669Y0158454D02*
X0351301Y0158454D01*
X0321100Y0166447D02*
X0316359Y0166447D01*
X0316602Y0164848D02*
X0320857Y0164848D01*
X0320857Y0163250D02*
X0316602Y0163250D01*
X0316602Y0161651D02*
X0320857Y0161651D01*
D24*
X0339398Y0159280D03*
X0339398Y0142548D03*
X0320698Y0113020D03*
X0319713Y0088414D03*
X0280343Y0078572D03*
X0266564Y0078572D03*
X0250816Y0085461D03*
X0258690Y0092351D03*
X0214398Y0106131D03*
X0184871Y0106131D03*
X0161249Y0094320D03*
X0140580Y0091367D03*
X0166170Y0081524D03*
X0183887Y0076603D03*
X0214398Y0077587D03*
X0232115Y0059871D03*
X0251800Y0058887D03*
X0273454Y0059871D03*
X0292154Y0059871D03*
X0310855Y0059871D03*
X0280343Y0036249D03*
X0291170Y0032312D03*
X0266564Y0036249D03*
X0253769Y0018532D03*
X0231131Y0018532D03*
X0209477Y0032312D03*
X0177981Y0046091D03*
X0148454Y0052981D03*
X0119910Y0072666D03*
X0080540Y0083493D03*
X0051013Y0087430D03*
X0051013Y0112036D03*
X0080540Y0135658D03*
X0099241Y0125816D03*
X0111052Y0119910D03*
X0118926Y0112036D03*
X0131721Y0125816D03*
X0086446Y0146485D03*
X0046091Y0164202D03*
X0127784Y0160265D03*
X0152391Y0159280D03*
X0255737Y0156328D03*
X0279359Y0143532D03*
X0254753Y0128769D03*
X0364989Y0088414D03*
X0364989Y0070698D03*
X0126800Y0032312D03*
X0063808Y0033296D03*
D25*
X0203572Y0112036D02*
X0203572Y0119221D01*
X0217351Y0119221D02*
X0217351Y0113020D01*
D26*
X0240973Y0094320D02*
X0256721Y0094320D01*
X0258690Y0092351D01*
D27*
X0092942Y0155343D02*
X0086446Y0155343D01*
X0074635Y0143532D01*
X0071091Y0143532D01*
M02*
