G75*
%MOIN*%
%OFA0B0*%
%FSLAX25Y25*%
%IPPOS*%
%LPD*%
%AMOC8*
5,1,8,0,0,1.08239X$1,22.5*
%
%ADD10C,0.00000*%
%ADD11R,0.07000X0.07000*%
%ADD12C,0.07000*%
%ADD13R,0.01581X0.05715*%
%ADD14R,0.05715X0.01581*%
%ADD15C,0.06400*%
%ADD16R,0.01581X0.05124*%
%ADD17R,0.04337X0.04731*%
%ADD18R,0.04731X0.04337*%
%ADD19R,0.08077X0.06306*%
%ADD20R,0.05400X0.02900*%
%ADD21R,0.10400X0.05400*%
D10*
X0021485Y0001800D02*
X0021485Y0178965D01*
X0375186Y0178887D01*
X0375816Y0001800D01*
X0021485Y0001800D01*
D11*
X0041485Y0013926D03*
X0351485Y0148926D03*
X0351485Y0158926D03*
X0351485Y0168926D03*
D12*
X0361485Y0168926D03*
X0361485Y0158926D03*
X0361485Y0148926D03*
X0361485Y0138926D03*
X0351485Y0138926D03*
X0351485Y0128926D03*
X0361485Y0128926D03*
X0361485Y0118926D03*
X0351485Y0118926D03*
X0351485Y0108926D03*
X0361485Y0108926D03*
X0361485Y0098926D03*
X0351485Y0098926D03*
X0081485Y0023926D03*
X0071485Y0023926D03*
X0061485Y0023926D03*
X0051485Y0023926D03*
X0041485Y0023926D03*
X0051485Y0013926D03*
X0061485Y0013926D03*
X0071485Y0013926D03*
X0081485Y0013926D03*
D13*
X0179950Y0065481D03*
X0181918Y0065481D03*
X0183887Y0065481D03*
X0185855Y0065481D03*
X0187824Y0065481D03*
X0189792Y0065481D03*
X0191761Y0065481D03*
X0193729Y0065481D03*
X0195698Y0065481D03*
X0197666Y0065481D03*
X0199635Y0065481D03*
X0201603Y0065481D03*
X0203572Y0065481D03*
X0205540Y0065481D03*
X0207509Y0065481D03*
X0209477Y0065481D03*
X0211446Y0065481D03*
X0213414Y0065481D03*
X0215383Y0065481D03*
X0217351Y0065481D03*
X0217351Y0119221D03*
X0215383Y0119221D03*
X0213414Y0119221D03*
X0211446Y0119221D03*
X0209477Y0119221D03*
X0207509Y0119221D03*
X0205540Y0119221D03*
X0203572Y0119221D03*
X0201603Y0119221D03*
X0199635Y0119221D03*
X0197666Y0119221D03*
X0195698Y0119221D03*
X0193729Y0119221D03*
X0191761Y0119221D03*
X0189792Y0119221D03*
X0187824Y0119221D03*
X0185855Y0119221D03*
X0183887Y0119221D03*
X0181918Y0119221D03*
X0179950Y0119221D03*
D14*
X0171780Y0111052D03*
X0171780Y0109083D03*
X0171780Y0107115D03*
X0171780Y0105146D03*
X0171780Y0103178D03*
X0171780Y0101209D03*
X0171780Y0099241D03*
X0171780Y0097272D03*
X0171780Y0095304D03*
X0171780Y0093335D03*
X0171780Y0091367D03*
X0171780Y0089398D03*
X0171780Y0087430D03*
X0171780Y0085461D03*
X0171780Y0083493D03*
X0171780Y0081524D03*
X0171780Y0079556D03*
X0171780Y0077587D03*
X0171780Y0075619D03*
X0171780Y0073650D03*
X0225520Y0073650D03*
X0225520Y0075619D03*
X0225520Y0077587D03*
X0225520Y0079556D03*
X0225520Y0081524D03*
X0225520Y0083493D03*
X0225520Y0085461D03*
X0225520Y0087430D03*
X0225520Y0089398D03*
X0225520Y0091367D03*
X0225520Y0093335D03*
X0225520Y0095304D03*
X0225520Y0097272D03*
X0225520Y0099241D03*
X0225520Y0101209D03*
X0225520Y0103178D03*
X0225520Y0105146D03*
X0225520Y0107115D03*
X0225520Y0109083D03*
X0225520Y0111052D03*
D15*
X0219713Y0156280D02*
X0219713Y0162280D01*
X0209713Y0162280D02*
X0209713Y0156280D01*
X0199713Y0156280D02*
X0199713Y0162280D01*
X0189713Y0162280D02*
X0189713Y0156280D01*
X0179713Y0156280D02*
X0179713Y0162280D01*
X0169713Y0162280D02*
X0169713Y0156280D01*
X0267824Y0020548D02*
X0267824Y0014548D01*
X0277824Y0014548D02*
X0277824Y0020548D01*
X0287824Y0020548D02*
X0287824Y0014548D01*
X0297824Y0014548D02*
X0297824Y0020548D01*
X0307824Y0020548D02*
X0307824Y0014548D01*
X0317824Y0014548D02*
X0317824Y0020548D01*
X0327824Y0020548D02*
X0327824Y0014548D01*
X0337824Y0014548D02*
X0337824Y0020548D01*
X0347824Y0020548D02*
X0347824Y0014548D01*
X0357824Y0014548D02*
X0357824Y0020548D01*
D16*
X0104068Y0115532D03*
X0101509Y0115532D03*
X0098950Y0115532D03*
X0096391Y0115532D03*
X0096391Y0132166D03*
X0098950Y0132166D03*
X0101509Y0132166D03*
X0104068Y0132166D03*
D17*
X0085461Y0127194D03*
X0085461Y0120501D03*
X0071091Y0116957D03*
X0064398Y0116957D03*
X0081131Y0108099D03*
X0087824Y0108099D03*
X0087824Y0096288D03*
X0081131Y0096288D03*
X0071091Y0128769D03*
X0064398Y0128769D03*
X0064398Y0143532D03*
X0071091Y0143532D03*
X0071091Y0155343D03*
X0064398Y0155343D03*
X0092942Y0155343D03*
X0099635Y0155343D03*
X0099635Y0143532D03*
X0092942Y0143532D03*
X0240973Y0093729D03*
X0240973Y0087036D03*
X0172076Y0058296D03*
X0172076Y0051603D03*
X0305540Y0151406D03*
X0312233Y0151406D03*
X0325225Y0151406D03*
X0331918Y0151406D03*
X0331918Y0163217D03*
X0325225Y0163217D03*
X0312233Y0163217D03*
X0305540Y0163217D03*
D18*
X0214398Y0135068D03*
X0214398Y0128375D03*
X0154753Y0096288D03*
X0148060Y0096288D03*
X0148060Y0084477D03*
X0154753Y0084477D03*
X0154753Y0060855D03*
X0148060Y0060855D03*
X0155934Y0051013D03*
X0162627Y0051013D03*
X0100225Y0049635D03*
X0088414Y0049635D03*
X0076603Y0049635D03*
X0064792Y0049635D03*
X0052981Y0049635D03*
X0052981Y0056328D03*
X0064792Y0056328D03*
X0076603Y0056328D03*
X0088414Y0056328D03*
X0100225Y0056328D03*
X0041170Y0056328D03*
X0041170Y0049635D03*
D19*
X0163709Y0036249D03*
X0174536Y0036249D03*
D20*
X0157036Y0070816D03*
X0157036Y0074517D03*
D21*
X0134477Y0072666D03*
M02*
