G75*
%MOIN*%
%OFA0B0*%
%FSLAX25Y25*%
%IPPOS*%
%LPD*%
%AMOC8*
5,1,8,0,0,1.08239X$1,22.5*
%
%ADD10C,0.00000*%
%ADD11R,0.07000X0.07000*%
%ADD12C,0.07000*%
%ADD13C,0.06400*%
D10*
X0021485Y0001800D02*
X0021485Y0178965D01*
X0375186Y0178887D01*
X0375816Y0001800D01*
X0021485Y0001800D01*
D11*
X0041485Y0013926D03*
X0351485Y0148926D03*
X0351485Y0158926D03*
X0351485Y0168926D03*
D12*
X0361485Y0168926D03*
X0361485Y0158926D03*
X0361485Y0148926D03*
X0361485Y0138926D03*
X0351485Y0138926D03*
X0351485Y0128926D03*
X0361485Y0128926D03*
X0361485Y0118926D03*
X0351485Y0118926D03*
X0351485Y0108926D03*
X0361485Y0108926D03*
X0361485Y0098926D03*
X0351485Y0098926D03*
X0081485Y0023926D03*
X0071485Y0023926D03*
X0061485Y0023926D03*
X0051485Y0023926D03*
X0041485Y0023926D03*
X0051485Y0013926D03*
X0061485Y0013926D03*
X0071485Y0013926D03*
X0081485Y0013926D03*
D13*
X0267824Y0014548D02*
X0267824Y0020548D01*
X0277824Y0020548D02*
X0277824Y0014548D01*
X0287824Y0014548D02*
X0287824Y0020548D01*
X0297824Y0020548D02*
X0297824Y0014548D01*
X0307824Y0014548D02*
X0307824Y0020548D01*
X0317824Y0020548D02*
X0317824Y0014548D01*
X0327824Y0014548D02*
X0327824Y0020548D01*
X0337824Y0020548D02*
X0337824Y0014548D01*
X0347824Y0014548D02*
X0347824Y0020548D01*
X0357824Y0020548D02*
X0357824Y0014548D01*
X0219713Y0156280D02*
X0219713Y0162280D01*
X0209713Y0162280D02*
X0209713Y0156280D01*
X0199713Y0156280D02*
X0199713Y0162280D01*
X0189713Y0162280D02*
X0189713Y0156280D01*
X0179713Y0156280D02*
X0179713Y0162280D01*
X0169713Y0162280D02*
X0169713Y0156280D01*
M02*
