G75*
%MOIN*%
%OFA0B0*%
%FSLAX25Y25*%
%IPPOS*%
%LPD*%
%AMOC8*
5,1,8,0,0,1.08239X$1,22.5*
%
%ADD10C,0.00000*%
%ADD11C,0.05600*%
%ADD12OC8,0.06000*%
%ADD13OC8,0.05200*%
%ADD14C,0.05000*%
D10*
X0003500Y0003500D02*
X0003500Y0160980D01*
X0160980Y0160980D01*
X0160980Y0003500D01*
X0003500Y0003500D01*
D11*
X0023500Y0125700D02*
X0023500Y0131300D01*
X0033500Y0131300D02*
X0033500Y0125700D01*
D12*
X0058500Y0128500D03*
X0093500Y0128500D03*
X0128500Y0128500D03*
X0128500Y0068500D03*
X0093500Y0068500D03*
X0058500Y0068500D03*
D13*
X0058500Y0053500D03*
X0058500Y0043500D03*
X0093500Y0043500D03*
X0093500Y0053500D03*
X0128500Y0053500D03*
X0128500Y0043500D03*
D14*
X0134600Y0043500D01*
X0134600Y0046027D01*
X0132812Y0047815D01*
X0135568Y0050572D01*
X0135568Y0056428D01*
X0135468Y0056528D01*
X0135468Y0064906D01*
X0135968Y0065406D01*
X0135968Y0071594D01*
X0131594Y0075968D01*
X0125406Y0075968D01*
X0121031Y0071594D01*
X0121031Y0065406D01*
X0121531Y0064906D01*
X0121531Y0056528D01*
X0121431Y0056428D01*
X0121431Y0050572D01*
X0124188Y0047815D01*
X0122400Y0046027D01*
X0122400Y0043500D01*
X0128500Y0043500D01*
X0128500Y0043500D01*
X0128500Y0043500D01*
X0134600Y0043500D01*
X0134600Y0040973D01*
X0131027Y0037400D01*
X0128500Y0037400D01*
X0128500Y0043500D01*
X0128500Y0043500D01*
X0122400Y0043500D01*
X0122400Y0040973D01*
X0125973Y0037400D01*
X0128500Y0037400D01*
X0128500Y0043500D01*
X0128500Y0043488D02*
X0128500Y0043488D01*
X0128500Y0038490D02*
X0128500Y0038490D01*
X0124884Y0038490D02*
X0097116Y0038490D01*
X0096027Y0037400D02*
X0099600Y0040973D01*
X0099600Y0043500D01*
X0099600Y0046027D01*
X0097812Y0047815D01*
X0100568Y0050572D01*
X0100568Y0056428D01*
X0100468Y0056528D01*
X0100468Y0064906D01*
X0100968Y0065406D01*
X0100968Y0071594D01*
X0096594Y0075968D01*
X0090406Y0075968D01*
X0086031Y0071594D01*
X0086031Y0065406D01*
X0086531Y0064906D01*
X0086531Y0056528D01*
X0086431Y0056428D01*
X0086431Y0050572D01*
X0089188Y0047815D01*
X0087400Y0046027D01*
X0087400Y0043500D01*
X0093500Y0043500D01*
X0099600Y0043500D01*
X0093500Y0043500D01*
X0093500Y0043500D01*
X0093500Y0043500D01*
X0093500Y0037400D01*
X0096027Y0037400D01*
X0093500Y0037400D02*
X0093500Y0043500D01*
X0093500Y0043500D01*
X0087400Y0043500D01*
X0087400Y0040973D01*
X0090973Y0037400D01*
X0093500Y0037400D01*
X0093500Y0038490D02*
X0093500Y0038490D01*
X0089884Y0038490D02*
X0062116Y0038490D01*
X0061027Y0037400D02*
X0064600Y0040973D01*
X0064600Y0043500D01*
X0064600Y0046027D01*
X0062812Y0047815D01*
X0065568Y0050572D01*
X0065568Y0056428D01*
X0065468Y0056528D01*
X0065468Y0064906D01*
X0065968Y0065406D01*
X0065968Y0071594D01*
X0061594Y0075968D01*
X0055406Y0075968D01*
X0051031Y0071594D01*
X0051031Y0065406D01*
X0051531Y0064906D01*
X0051531Y0056528D01*
X0051431Y0056428D01*
X0051431Y0050572D01*
X0054188Y0047815D01*
X0052400Y0046027D01*
X0052400Y0043500D01*
X0058500Y0043500D01*
X0064600Y0043500D01*
X0058500Y0043500D01*
X0058500Y0043500D01*
X0058500Y0043500D01*
X0058500Y0037400D01*
X0061027Y0037400D01*
X0058500Y0037400D02*
X0058500Y0043500D01*
X0058500Y0043500D01*
X0052400Y0043500D01*
X0052400Y0040973D01*
X0055973Y0037400D01*
X0058500Y0037400D01*
X0058500Y0038490D02*
X0058500Y0038490D01*
X0054884Y0038490D02*
X0010000Y0038490D01*
X0010000Y0043488D02*
X0052400Y0043488D01*
X0053517Y0048487D02*
X0010000Y0048487D01*
X0010000Y0053485D02*
X0051431Y0053485D01*
X0051531Y0058484D02*
X0010000Y0058484D01*
X0010000Y0063482D02*
X0051531Y0063482D01*
X0051031Y0068481D02*
X0010000Y0068481D01*
X0010000Y0073479D02*
X0052917Y0073479D01*
X0058500Y0068500D02*
X0058500Y0053500D01*
X0063483Y0048487D02*
X0088517Y0048487D01*
X0087400Y0043488D02*
X0064600Y0043488D01*
X0058500Y0043488D02*
X0058500Y0043488D01*
X0065568Y0053485D02*
X0086431Y0053485D01*
X0086531Y0058484D02*
X0065468Y0058484D01*
X0065468Y0063482D02*
X0086531Y0063482D01*
X0086031Y0068481D02*
X0065968Y0068481D01*
X0064083Y0073479D02*
X0087917Y0073479D01*
X0093500Y0068500D02*
X0093500Y0053500D01*
X0098483Y0048487D02*
X0123517Y0048487D01*
X0122400Y0043488D02*
X0099600Y0043488D01*
X0093500Y0043488D02*
X0093500Y0043488D01*
X0100568Y0053485D02*
X0121431Y0053485D01*
X0121531Y0058484D02*
X0100468Y0058484D01*
X0100468Y0063482D02*
X0121531Y0063482D01*
X0121031Y0068481D02*
X0100968Y0068481D01*
X0099083Y0073479D02*
X0122917Y0073479D01*
X0128500Y0068500D02*
X0128500Y0053500D01*
X0133483Y0048487D02*
X0154480Y0048487D01*
X0154480Y0053485D02*
X0135568Y0053485D01*
X0135468Y0058484D02*
X0154480Y0058484D01*
X0154480Y0063482D02*
X0135468Y0063482D01*
X0135968Y0068481D02*
X0154480Y0068481D01*
X0154480Y0073479D02*
X0134083Y0073479D01*
X0154480Y0078478D02*
X0010000Y0078478D01*
X0010000Y0083476D02*
X0154480Y0083476D01*
X0154480Y0088475D02*
X0010000Y0088475D01*
X0010000Y0093473D02*
X0154480Y0093473D01*
X0154480Y0098472D02*
X0010000Y0098472D01*
X0010000Y0103470D02*
X0154480Y0103470D01*
X0154480Y0108469D02*
X0010000Y0108469D01*
X0010000Y0113467D02*
X0154480Y0113467D01*
X0154480Y0118466D02*
X0035029Y0118466D01*
X0034946Y0118431D02*
X0037617Y0119538D01*
X0039611Y0121531D01*
X0054906Y0121531D01*
X0055406Y0121031D01*
X0061594Y0121031D01*
X0062094Y0121531D01*
X0089906Y0121531D01*
X0090406Y0121031D01*
X0096594Y0121031D01*
X0097094Y0121531D01*
X0124906Y0121531D01*
X0125406Y0121031D01*
X0131594Y0121031D01*
X0135968Y0125406D01*
X0135968Y0131594D01*
X0131594Y0135968D01*
X0125406Y0135968D01*
X0124906Y0135468D01*
X0097094Y0135468D01*
X0096594Y0135968D01*
X0090406Y0135968D01*
X0089906Y0135468D01*
X0062094Y0135468D01*
X0061594Y0135968D01*
X0055406Y0135968D01*
X0054906Y0135468D01*
X0039611Y0135468D01*
X0037617Y0137462D01*
X0034946Y0138568D01*
X0032054Y0138568D01*
X0029383Y0137462D01*
X0027815Y0135894D01*
X0027604Y0136105D01*
X0026802Y0136688D01*
X0025918Y0137138D01*
X0024975Y0137445D01*
X0023996Y0137600D01*
X0023500Y0137600D01*
X0023500Y0128500D01*
X0023500Y0128500D01*
X0023500Y0119400D01*
X0023996Y0119400D01*
X0024975Y0119555D01*
X0025918Y0119862D01*
X0026802Y0120312D01*
X0027604Y0120895D01*
X0027815Y0121106D01*
X0029383Y0119538D01*
X0032054Y0118431D01*
X0034946Y0118431D01*
X0031971Y0118466D02*
X0010000Y0118466D01*
X0010000Y0123464D02*
X0017602Y0123464D01*
X0017662Y0123282D02*
X0018112Y0122398D01*
X0018695Y0121596D01*
X0019396Y0120895D01*
X0020198Y0120312D01*
X0021082Y0119862D01*
X0022025Y0119555D01*
X0023004Y0119400D01*
X0023500Y0119400D01*
X0023500Y0128500D01*
X0023500Y0128500D01*
X0023500Y0128500D01*
X0017200Y0128500D01*
X0017200Y0131796D01*
X0017355Y0132775D01*
X0017662Y0133718D01*
X0018112Y0134602D01*
X0018695Y0135404D01*
X0019396Y0136105D01*
X0020198Y0136688D01*
X0021082Y0137138D01*
X0022025Y0137445D01*
X0023004Y0137600D01*
X0023500Y0137600D01*
X0023500Y0128500D01*
X0017200Y0128500D01*
X0017200Y0125204D01*
X0017355Y0124225D01*
X0017662Y0123282D01*
X0017200Y0128463D02*
X0010000Y0128463D01*
X0010000Y0133461D02*
X0017578Y0133461D01*
X0023500Y0133461D02*
X0023500Y0133461D01*
X0023500Y0128463D02*
X0023500Y0128463D01*
X0023500Y0123464D02*
X0023500Y0123464D01*
X0033500Y0128500D02*
X0058500Y0128500D01*
X0093500Y0128500D01*
X0128500Y0128500D01*
X0134026Y0123464D02*
X0154480Y0123464D01*
X0154480Y0128463D02*
X0135968Y0128463D01*
X0134101Y0133461D02*
X0154480Y0133461D01*
X0154480Y0138460D02*
X0035208Y0138460D01*
X0031792Y0138460D02*
X0010000Y0138460D01*
X0010000Y0143458D02*
X0154480Y0143458D01*
X0154480Y0148457D02*
X0010000Y0148457D01*
X0010000Y0153455D02*
X0154480Y0153455D01*
X0154480Y0154480D02*
X0154480Y0010000D01*
X0010000Y0010000D01*
X0010000Y0154480D01*
X0154480Y0154480D01*
X0154480Y0043488D02*
X0134600Y0043488D01*
X0132116Y0038490D02*
X0154480Y0038490D01*
X0154480Y0033491D02*
X0010000Y0033491D01*
X0010000Y0028493D02*
X0154480Y0028493D01*
X0154480Y0023494D02*
X0010000Y0023494D01*
X0010000Y0018496D02*
X0154480Y0018496D01*
X0154480Y0013497D02*
X0010000Y0013497D01*
M02*
