G75*
%MOIN*%
%OFA0B0*%
%FSLAX25Y25*%
%IPPOS*%
%LPD*%
%AMOC8*
5,1,8,0,0,1.08239X$1,22.5*
%
%ADD10C,0.00000*%
%ADD11C,0.00600*%
%ADD12C,0.00300*%
%ADD13R,0.03400X0.00100*%
%ADD14R,0.04800X0.00100*%
%ADD15R,0.05900X0.00100*%
%ADD16R,0.06800X0.00100*%
%ADD17R,0.07600X0.00100*%
%ADD18R,0.00100X0.00100*%
%ADD19R,0.00900X0.00100*%
%ADD20R,0.03200X0.00100*%
%ADD21R,0.03000X0.00100*%
%ADD22R,0.00400X0.00100*%
%ADD23R,0.00700X0.00100*%
%ADD24R,0.00500X0.00100*%
%ADD25R,0.02700X0.00100*%
%ADD26R,0.02300X0.00100*%
%ADD27R,0.00200X0.00100*%
%ADD28R,0.00600X0.00100*%
%ADD29R,0.02400X0.00100*%
%ADD30R,0.02200X0.00100*%
%ADD31R,0.02600X0.00100*%
%ADD32R,0.00300X0.00100*%
%ADD33R,0.01900X0.00100*%
%ADD34R,0.01800X0.00100*%
%ADD35R,0.00800X0.00100*%
%ADD36R,0.02000X0.00100*%
%ADD37R,0.01500X0.00100*%
%ADD38R,0.01600X0.00100*%
%ADD39R,0.01400X0.00100*%
%ADD40R,0.01100X0.00100*%
%ADD41R,0.01700X0.00100*%
%ADD42R,0.01300X0.00100*%
%ADD43R,0.01200X0.00100*%
%ADD44R,0.03700X0.00100*%
%ADD45R,0.05500X0.00100*%
%ADD46R,0.01000X0.00100*%
%ADD47R,0.08000X0.00100*%
%ADD48R,0.02100X0.00100*%
%ADD49R,0.02900X0.00100*%
%ADD50R,0.04200X0.00100*%
%ADD51R,0.05200X0.00100*%
%ADD52R,0.06000X0.00100*%
%ADD53R,0.06700X0.00100*%
%ADD54R,0.07400X0.00100*%
%ADD55R,0.08500X0.00100*%
%ADD56R,0.09000X0.00100*%
%ADD57R,0.09500X0.00100*%
%ADD58R,0.09900X0.00100*%
%ADD59R,0.10300X0.00100*%
%ADD60R,0.10700X0.00100*%
%ADD61R,0.11100X0.00100*%
%ADD62R,0.11500X0.00100*%
%ADD63R,0.11800X0.00100*%
%ADD64R,0.12200X0.00100*%
%ADD65R,0.12500X0.00100*%
%ADD66R,0.04100X0.00100*%
%ADD67R,0.08600X0.00100*%
%ADD68R,0.04500X0.00100*%
%ADD69R,0.04400X0.00100*%
%ADD70R,0.04600X0.00100*%
%ADD71R,0.04900X0.00100*%
%ADD72R,0.05100X0.00100*%
%ADD73R,0.05000X0.00100*%
%ADD74R,0.03500X0.00100*%
%ADD75R,0.05400X0.00100*%
%ADD76R,0.05600X0.00100*%
%ADD77R,0.05800X0.00100*%
%ADD78R,0.02800X0.00100*%
%ADD79R,0.06100X0.00100*%
%ADD80R,0.03300X0.00100*%
%ADD81R,0.06300X0.00100*%
%ADD82R,0.06400X0.00100*%
%ADD83R,0.06600X0.00100*%
%ADD84R,0.06900X0.00100*%
%ADD85R,0.07100X0.00100*%
%ADD86R,0.03100X0.00100*%
%ADD87R,0.07200X0.00100*%
%ADD88R,0.02500X0.00100*%
%ADD89R,0.07700X0.00100*%
%ADD90R,0.07900X0.00100*%
%ADD91R,0.08100X0.00100*%
%ADD92R,0.08200X0.00100*%
%ADD93R,0.08300X0.00100*%
%ADD94R,0.08400X0.00100*%
%ADD95R,0.08800X0.00100*%
%ADD96R,0.09200X0.00100*%
%ADD97R,0.09300X0.00100*%
%ADD98R,0.09400X0.00100*%
%ADD99R,0.09600X0.00100*%
%ADD100R,0.11300X0.00100*%
%ADD101R,0.11400X0.00100*%
%ADD102R,0.10500X0.00100*%
%ADD103R,0.10100X0.00100*%
%ADD104R,0.10200X0.00100*%
%ADD105R,0.06500X0.00100*%
%ADD106R,0.06200X0.00100*%
%ADD107R,0.04700X0.00100*%
%ADD108R,0.03900X0.00100*%
%ADD109R,0.03600X0.00100*%
%ADD110R,0.04000X0.00100*%
%ADD111R,0.04300X0.00100*%
%ADD112R,0.05300X0.00100*%
%ADD113R,0.07000X0.00100*%
%ADD114R,0.05700X0.00100*%
%ADD115R,0.03800X0.00100*%
%ADD116C,0.00500*%
%ADD117R,0.03200X0.01600*%
%ADD118C,0.00800*%
%ADD119C,0.01000*%
D10*
X0003500Y0003500D02*
X0003500Y0160980D01*
X0160980Y0160980D01*
X0160980Y0003500D01*
X0003500Y0003500D01*
D11*
X0048500Y0048500D02*
X0048503Y0048745D01*
X0048512Y0048991D01*
X0048527Y0049236D01*
X0048548Y0049480D01*
X0048575Y0049724D01*
X0048608Y0049967D01*
X0048647Y0050210D01*
X0048692Y0050451D01*
X0048743Y0050691D01*
X0048800Y0050930D01*
X0048862Y0051167D01*
X0048931Y0051403D01*
X0049005Y0051637D01*
X0049085Y0051869D01*
X0049170Y0052099D01*
X0049261Y0052327D01*
X0049358Y0052552D01*
X0049460Y0052776D01*
X0049568Y0052996D01*
X0049681Y0053214D01*
X0049799Y0053429D01*
X0049923Y0053641D01*
X0050051Y0053850D01*
X0050185Y0054056D01*
X0050324Y0054258D01*
X0050468Y0054457D01*
X0050617Y0054652D01*
X0050770Y0054844D01*
X0050928Y0055032D01*
X0051090Y0055216D01*
X0051258Y0055395D01*
X0051429Y0055571D01*
X0051605Y0055742D01*
X0051784Y0055910D01*
X0051968Y0056072D01*
X0052156Y0056230D01*
X0052348Y0056383D01*
X0052543Y0056532D01*
X0052742Y0056676D01*
X0052944Y0056815D01*
X0053150Y0056949D01*
X0053359Y0057077D01*
X0053571Y0057201D01*
X0053786Y0057319D01*
X0054004Y0057432D01*
X0054224Y0057540D01*
X0054448Y0057642D01*
X0054673Y0057739D01*
X0054901Y0057830D01*
X0055131Y0057915D01*
X0055363Y0057995D01*
X0055597Y0058069D01*
X0055833Y0058138D01*
X0056070Y0058200D01*
X0056309Y0058257D01*
X0056549Y0058308D01*
X0056790Y0058353D01*
X0057033Y0058392D01*
X0057276Y0058425D01*
X0057520Y0058452D01*
X0057764Y0058473D01*
X0058009Y0058488D01*
X0058255Y0058497D01*
X0058500Y0058500D01*
X0058745Y0058497D01*
X0058991Y0058488D01*
X0059236Y0058473D01*
X0059480Y0058452D01*
X0059724Y0058425D01*
X0059967Y0058392D01*
X0060210Y0058353D01*
X0060451Y0058308D01*
X0060691Y0058257D01*
X0060930Y0058200D01*
X0061167Y0058138D01*
X0061403Y0058069D01*
X0061637Y0057995D01*
X0061869Y0057915D01*
X0062099Y0057830D01*
X0062327Y0057739D01*
X0062552Y0057642D01*
X0062776Y0057540D01*
X0062996Y0057432D01*
X0063214Y0057319D01*
X0063429Y0057201D01*
X0063641Y0057077D01*
X0063850Y0056949D01*
X0064056Y0056815D01*
X0064258Y0056676D01*
X0064457Y0056532D01*
X0064652Y0056383D01*
X0064844Y0056230D01*
X0065032Y0056072D01*
X0065216Y0055910D01*
X0065395Y0055742D01*
X0065571Y0055571D01*
X0065742Y0055395D01*
X0065910Y0055216D01*
X0066072Y0055032D01*
X0066230Y0054844D01*
X0066383Y0054652D01*
X0066532Y0054457D01*
X0066676Y0054258D01*
X0066815Y0054056D01*
X0066949Y0053850D01*
X0067077Y0053641D01*
X0067201Y0053429D01*
X0067319Y0053214D01*
X0067432Y0052996D01*
X0067540Y0052776D01*
X0067642Y0052552D01*
X0067739Y0052327D01*
X0067830Y0052099D01*
X0067915Y0051869D01*
X0067995Y0051637D01*
X0068069Y0051403D01*
X0068138Y0051167D01*
X0068200Y0050930D01*
X0068257Y0050691D01*
X0068308Y0050451D01*
X0068353Y0050210D01*
X0068392Y0049967D01*
X0068425Y0049724D01*
X0068452Y0049480D01*
X0068473Y0049236D01*
X0068488Y0048991D01*
X0068497Y0048745D01*
X0068500Y0048500D01*
X0068497Y0048255D01*
X0068488Y0048009D01*
X0068473Y0047764D01*
X0068452Y0047520D01*
X0068425Y0047276D01*
X0068392Y0047033D01*
X0068353Y0046790D01*
X0068308Y0046549D01*
X0068257Y0046309D01*
X0068200Y0046070D01*
X0068138Y0045833D01*
X0068069Y0045597D01*
X0067995Y0045363D01*
X0067915Y0045131D01*
X0067830Y0044901D01*
X0067739Y0044673D01*
X0067642Y0044448D01*
X0067540Y0044224D01*
X0067432Y0044004D01*
X0067319Y0043786D01*
X0067201Y0043571D01*
X0067077Y0043359D01*
X0066949Y0043150D01*
X0066815Y0042944D01*
X0066676Y0042742D01*
X0066532Y0042543D01*
X0066383Y0042348D01*
X0066230Y0042156D01*
X0066072Y0041968D01*
X0065910Y0041784D01*
X0065742Y0041605D01*
X0065571Y0041429D01*
X0065395Y0041258D01*
X0065216Y0041090D01*
X0065032Y0040928D01*
X0064844Y0040770D01*
X0064652Y0040617D01*
X0064457Y0040468D01*
X0064258Y0040324D01*
X0064056Y0040185D01*
X0063850Y0040051D01*
X0063641Y0039923D01*
X0063429Y0039799D01*
X0063214Y0039681D01*
X0062996Y0039568D01*
X0062776Y0039460D01*
X0062552Y0039358D01*
X0062327Y0039261D01*
X0062099Y0039170D01*
X0061869Y0039085D01*
X0061637Y0039005D01*
X0061403Y0038931D01*
X0061167Y0038862D01*
X0060930Y0038800D01*
X0060691Y0038743D01*
X0060451Y0038692D01*
X0060210Y0038647D01*
X0059967Y0038608D01*
X0059724Y0038575D01*
X0059480Y0038548D01*
X0059236Y0038527D01*
X0058991Y0038512D01*
X0058745Y0038503D01*
X0058500Y0038500D01*
X0058255Y0038503D01*
X0058009Y0038512D01*
X0057764Y0038527D01*
X0057520Y0038548D01*
X0057276Y0038575D01*
X0057033Y0038608D01*
X0056790Y0038647D01*
X0056549Y0038692D01*
X0056309Y0038743D01*
X0056070Y0038800D01*
X0055833Y0038862D01*
X0055597Y0038931D01*
X0055363Y0039005D01*
X0055131Y0039085D01*
X0054901Y0039170D01*
X0054673Y0039261D01*
X0054448Y0039358D01*
X0054224Y0039460D01*
X0054004Y0039568D01*
X0053786Y0039681D01*
X0053571Y0039799D01*
X0053359Y0039923D01*
X0053150Y0040051D01*
X0052944Y0040185D01*
X0052742Y0040324D01*
X0052543Y0040468D01*
X0052348Y0040617D01*
X0052156Y0040770D01*
X0051968Y0040928D01*
X0051784Y0041090D01*
X0051605Y0041258D01*
X0051429Y0041429D01*
X0051258Y0041605D01*
X0051090Y0041784D01*
X0050928Y0041968D01*
X0050770Y0042156D01*
X0050617Y0042348D01*
X0050468Y0042543D01*
X0050324Y0042742D01*
X0050185Y0042944D01*
X0050051Y0043150D01*
X0049923Y0043359D01*
X0049799Y0043571D01*
X0049681Y0043786D01*
X0049568Y0044004D01*
X0049460Y0044224D01*
X0049358Y0044448D01*
X0049261Y0044673D01*
X0049170Y0044901D01*
X0049085Y0045131D01*
X0049005Y0045363D01*
X0048931Y0045597D01*
X0048862Y0045833D01*
X0048800Y0046070D01*
X0048743Y0046309D01*
X0048692Y0046549D01*
X0048647Y0046790D01*
X0048608Y0047033D01*
X0048575Y0047276D01*
X0048548Y0047520D01*
X0048527Y0047764D01*
X0048512Y0048009D01*
X0048503Y0048255D01*
X0048500Y0048500D01*
X0051000Y0074500D02*
X0066000Y0074500D01*
X0066060Y0074502D01*
X0066121Y0074507D01*
X0066180Y0074516D01*
X0066239Y0074529D01*
X0066298Y0074545D01*
X0066355Y0074565D01*
X0066410Y0074588D01*
X0066465Y0074615D01*
X0066517Y0074644D01*
X0066568Y0074677D01*
X0066617Y0074713D01*
X0066663Y0074751D01*
X0066707Y0074793D01*
X0066749Y0074837D01*
X0066787Y0074883D01*
X0066823Y0074932D01*
X0066856Y0074983D01*
X0066885Y0075035D01*
X0066912Y0075090D01*
X0066935Y0075145D01*
X0066955Y0075202D01*
X0066971Y0075261D01*
X0066984Y0075320D01*
X0066993Y0075379D01*
X0066998Y0075440D01*
X0067000Y0075500D01*
X0067000Y0079000D01*
X0066500Y0079500D01*
X0066500Y0117500D01*
X0067000Y0118000D01*
X0067000Y0121500D01*
X0066998Y0121560D01*
X0066993Y0121621D01*
X0066984Y0121680D01*
X0066971Y0121739D01*
X0066955Y0121798D01*
X0066935Y0121855D01*
X0066912Y0121910D01*
X0066885Y0121965D01*
X0066856Y0122017D01*
X0066823Y0122068D01*
X0066787Y0122117D01*
X0066749Y0122163D01*
X0066707Y0122207D01*
X0066663Y0122249D01*
X0066617Y0122287D01*
X0066568Y0122323D01*
X0066517Y0122356D01*
X0066465Y0122385D01*
X0066410Y0122412D01*
X0066355Y0122435D01*
X0066298Y0122455D01*
X0066239Y0122471D01*
X0066180Y0122484D01*
X0066121Y0122493D01*
X0066060Y0122498D01*
X0066000Y0122500D01*
X0051000Y0122500D01*
X0050940Y0122498D01*
X0050879Y0122493D01*
X0050820Y0122484D01*
X0050761Y0122471D01*
X0050702Y0122455D01*
X0050645Y0122435D01*
X0050590Y0122412D01*
X0050535Y0122385D01*
X0050483Y0122356D01*
X0050432Y0122323D01*
X0050383Y0122287D01*
X0050337Y0122249D01*
X0050293Y0122207D01*
X0050251Y0122163D01*
X0050213Y0122117D01*
X0050177Y0122068D01*
X0050144Y0122017D01*
X0050115Y0121965D01*
X0050088Y0121910D01*
X0050065Y0121855D01*
X0050045Y0121798D01*
X0050029Y0121739D01*
X0050016Y0121680D01*
X0050007Y0121621D01*
X0050002Y0121560D01*
X0050000Y0121500D01*
X0050000Y0118000D01*
X0050500Y0117500D01*
X0050500Y0079500D01*
X0050000Y0079000D01*
X0050000Y0075500D01*
X0050002Y0075440D01*
X0050007Y0075379D01*
X0050016Y0075320D01*
X0050029Y0075261D01*
X0050045Y0075202D01*
X0050065Y0075145D01*
X0050088Y0075090D01*
X0050115Y0075035D01*
X0050144Y0074983D01*
X0050177Y0074932D01*
X0050213Y0074883D01*
X0050251Y0074837D01*
X0050293Y0074793D01*
X0050337Y0074751D01*
X0050383Y0074713D01*
X0050432Y0074677D01*
X0050483Y0074644D01*
X0050535Y0074615D01*
X0050590Y0074588D01*
X0050645Y0074565D01*
X0050702Y0074545D01*
X0050761Y0074529D01*
X0050820Y0074516D01*
X0050879Y0074507D01*
X0050940Y0074502D01*
X0051000Y0074500D01*
X0085000Y0075500D02*
X0085000Y0079000D01*
X0085500Y0079500D01*
X0085500Y0117500D01*
X0085000Y0118000D01*
X0085000Y0121500D01*
X0085002Y0121560D01*
X0085007Y0121621D01*
X0085016Y0121680D01*
X0085029Y0121739D01*
X0085045Y0121798D01*
X0085065Y0121855D01*
X0085088Y0121910D01*
X0085115Y0121965D01*
X0085144Y0122017D01*
X0085177Y0122068D01*
X0085213Y0122117D01*
X0085251Y0122163D01*
X0085293Y0122207D01*
X0085337Y0122249D01*
X0085383Y0122287D01*
X0085432Y0122323D01*
X0085483Y0122356D01*
X0085535Y0122385D01*
X0085590Y0122412D01*
X0085645Y0122435D01*
X0085702Y0122455D01*
X0085761Y0122471D01*
X0085820Y0122484D01*
X0085879Y0122493D01*
X0085940Y0122498D01*
X0086000Y0122500D01*
X0101000Y0122500D01*
X0101060Y0122498D01*
X0101121Y0122493D01*
X0101180Y0122484D01*
X0101239Y0122471D01*
X0101298Y0122455D01*
X0101355Y0122435D01*
X0101410Y0122412D01*
X0101465Y0122385D01*
X0101517Y0122356D01*
X0101568Y0122323D01*
X0101617Y0122287D01*
X0101663Y0122249D01*
X0101707Y0122207D01*
X0101749Y0122163D01*
X0101787Y0122117D01*
X0101823Y0122068D01*
X0101856Y0122017D01*
X0101885Y0121965D01*
X0101912Y0121910D01*
X0101935Y0121855D01*
X0101955Y0121798D01*
X0101971Y0121739D01*
X0101984Y0121680D01*
X0101993Y0121621D01*
X0101998Y0121560D01*
X0102000Y0121500D01*
X0102000Y0118000D01*
X0101500Y0117500D01*
X0101500Y0079500D01*
X0102000Y0079000D01*
X0102000Y0075500D01*
X0101998Y0075440D01*
X0101993Y0075379D01*
X0101984Y0075320D01*
X0101971Y0075261D01*
X0101955Y0075202D01*
X0101935Y0075145D01*
X0101912Y0075090D01*
X0101885Y0075035D01*
X0101856Y0074983D01*
X0101823Y0074932D01*
X0101787Y0074883D01*
X0101749Y0074837D01*
X0101707Y0074793D01*
X0101663Y0074751D01*
X0101617Y0074713D01*
X0101568Y0074677D01*
X0101517Y0074644D01*
X0101465Y0074615D01*
X0101410Y0074588D01*
X0101355Y0074565D01*
X0101298Y0074545D01*
X0101239Y0074529D01*
X0101180Y0074516D01*
X0101121Y0074507D01*
X0101060Y0074502D01*
X0101000Y0074500D01*
X0086000Y0074500D01*
X0085940Y0074502D01*
X0085879Y0074507D01*
X0085820Y0074516D01*
X0085761Y0074529D01*
X0085702Y0074545D01*
X0085645Y0074565D01*
X0085590Y0074588D01*
X0085535Y0074615D01*
X0085483Y0074644D01*
X0085432Y0074677D01*
X0085383Y0074713D01*
X0085337Y0074751D01*
X0085293Y0074793D01*
X0085251Y0074837D01*
X0085213Y0074883D01*
X0085177Y0074932D01*
X0085144Y0074983D01*
X0085115Y0075035D01*
X0085088Y0075090D01*
X0085065Y0075145D01*
X0085045Y0075202D01*
X0085029Y0075261D01*
X0085016Y0075320D01*
X0085007Y0075379D01*
X0085002Y0075440D01*
X0085000Y0075500D01*
X0083500Y0048500D02*
X0083503Y0048745D01*
X0083512Y0048991D01*
X0083527Y0049236D01*
X0083548Y0049480D01*
X0083575Y0049724D01*
X0083608Y0049967D01*
X0083647Y0050210D01*
X0083692Y0050451D01*
X0083743Y0050691D01*
X0083800Y0050930D01*
X0083862Y0051167D01*
X0083931Y0051403D01*
X0084005Y0051637D01*
X0084085Y0051869D01*
X0084170Y0052099D01*
X0084261Y0052327D01*
X0084358Y0052552D01*
X0084460Y0052776D01*
X0084568Y0052996D01*
X0084681Y0053214D01*
X0084799Y0053429D01*
X0084923Y0053641D01*
X0085051Y0053850D01*
X0085185Y0054056D01*
X0085324Y0054258D01*
X0085468Y0054457D01*
X0085617Y0054652D01*
X0085770Y0054844D01*
X0085928Y0055032D01*
X0086090Y0055216D01*
X0086258Y0055395D01*
X0086429Y0055571D01*
X0086605Y0055742D01*
X0086784Y0055910D01*
X0086968Y0056072D01*
X0087156Y0056230D01*
X0087348Y0056383D01*
X0087543Y0056532D01*
X0087742Y0056676D01*
X0087944Y0056815D01*
X0088150Y0056949D01*
X0088359Y0057077D01*
X0088571Y0057201D01*
X0088786Y0057319D01*
X0089004Y0057432D01*
X0089224Y0057540D01*
X0089448Y0057642D01*
X0089673Y0057739D01*
X0089901Y0057830D01*
X0090131Y0057915D01*
X0090363Y0057995D01*
X0090597Y0058069D01*
X0090833Y0058138D01*
X0091070Y0058200D01*
X0091309Y0058257D01*
X0091549Y0058308D01*
X0091790Y0058353D01*
X0092033Y0058392D01*
X0092276Y0058425D01*
X0092520Y0058452D01*
X0092764Y0058473D01*
X0093009Y0058488D01*
X0093255Y0058497D01*
X0093500Y0058500D01*
X0093745Y0058497D01*
X0093991Y0058488D01*
X0094236Y0058473D01*
X0094480Y0058452D01*
X0094724Y0058425D01*
X0094967Y0058392D01*
X0095210Y0058353D01*
X0095451Y0058308D01*
X0095691Y0058257D01*
X0095930Y0058200D01*
X0096167Y0058138D01*
X0096403Y0058069D01*
X0096637Y0057995D01*
X0096869Y0057915D01*
X0097099Y0057830D01*
X0097327Y0057739D01*
X0097552Y0057642D01*
X0097776Y0057540D01*
X0097996Y0057432D01*
X0098214Y0057319D01*
X0098429Y0057201D01*
X0098641Y0057077D01*
X0098850Y0056949D01*
X0099056Y0056815D01*
X0099258Y0056676D01*
X0099457Y0056532D01*
X0099652Y0056383D01*
X0099844Y0056230D01*
X0100032Y0056072D01*
X0100216Y0055910D01*
X0100395Y0055742D01*
X0100571Y0055571D01*
X0100742Y0055395D01*
X0100910Y0055216D01*
X0101072Y0055032D01*
X0101230Y0054844D01*
X0101383Y0054652D01*
X0101532Y0054457D01*
X0101676Y0054258D01*
X0101815Y0054056D01*
X0101949Y0053850D01*
X0102077Y0053641D01*
X0102201Y0053429D01*
X0102319Y0053214D01*
X0102432Y0052996D01*
X0102540Y0052776D01*
X0102642Y0052552D01*
X0102739Y0052327D01*
X0102830Y0052099D01*
X0102915Y0051869D01*
X0102995Y0051637D01*
X0103069Y0051403D01*
X0103138Y0051167D01*
X0103200Y0050930D01*
X0103257Y0050691D01*
X0103308Y0050451D01*
X0103353Y0050210D01*
X0103392Y0049967D01*
X0103425Y0049724D01*
X0103452Y0049480D01*
X0103473Y0049236D01*
X0103488Y0048991D01*
X0103497Y0048745D01*
X0103500Y0048500D01*
X0103497Y0048255D01*
X0103488Y0048009D01*
X0103473Y0047764D01*
X0103452Y0047520D01*
X0103425Y0047276D01*
X0103392Y0047033D01*
X0103353Y0046790D01*
X0103308Y0046549D01*
X0103257Y0046309D01*
X0103200Y0046070D01*
X0103138Y0045833D01*
X0103069Y0045597D01*
X0102995Y0045363D01*
X0102915Y0045131D01*
X0102830Y0044901D01*
X0102739Y0044673D01*
X0102642Y0044448D01*
X0102540Y0044224D01*
X0102432Y0044004D01*
X0102319Y0043786D01*
X0102201Y0043571D01*
X0102077Y0043359D01*
X0101949Y0043150D01*
X0101815Y0042944D01*
X0101676Y0042742D01*
X0101532Y0042543D01*
X0101383Y0042348D01*
X0101230Y0042156D01*
X0101072Y0041968D01*
X0100910Y0041784D01*
X0100742Y0041605D01*
X0100571Y0041429D01*
X0100395Y0041258D01*
X0100216Y0041090D01*
X0100032Y0040928D01*
X0099844Y0040770D01*
X0099652Y0040617D01*
X0099457Y0040468D01*
X0099258Y0040324D01*
X0099056Y0040185D01*
X0098850Y0040051D01*
X0098641Y0039923D01*
X0098429Y0039799D01*
X0098214Y0039681D01*
X0097996Y0039568D01*
X0097776Y0039460D01*
X0097552Y0039358D01*
X0097327Y0039261D01*
X0097099Y0039170D01*
X0096869Y0039085D01*
X0096637Y0039005D01*
X0096403Y0038931D01*
X0096167Y0038862D01*
X0095930Y0038800D01*
X0095691Y0038743D01*
X0095451Y0038692D01*
X0095210Y0038647D01*
X0094967Y0038608D01*
X0094724Y0038575D01*
X0094480Y0038548D01*
X0094236Y0038527D01*
X0093991Y0038512D01*
X0093745Y0038503D01*
X0093500Y0038500D01*
X0093255Y0038503D01*
X0093009Y0038512D01*
X0092764Y0038527D01*
X0092520Y0038548D01*
X0092276Y0038575D01*
X0092033Y0038608D01*
X0091790Y0038647D01*
X0091549Y0038692D01*
X0091309Y0038743D01*
X0091070Y0038800D01*
X0090833Y0038862D01*
X0090597Y0038931D01*
X0090363Y0039005D01*
X0090131Y0039085D01*
X0089901Y0039170D01*
X0089673Y0039261D01*
X0089448Y0039358D01*
X0089224Y0039460D01*
X0089004Y0039568D01*
X0088786Y0039681D01*
X0088571Y0039799D01*
X0088359Y0039923D01*
X0088150Y0040051D01*
X0087944Y0040185D01*
X0087742Y0040324D01*
X0087543Y0040468D01*
X0087348Y0040617D01*
X0087156Y0040770D01*
X0086968Y0040928D01*
X0086784Y0041090D01*
X0086605Y0041258D01*
X0086429Y0041429D01*
X0086258Y0041605D01*
X0086090Y0041784D01*
X0085928Y0041968D01*
X0085770Y0042156D01*
X0085617Y0042348D01*
X0085468Y0042543D01*
X0085324Y0042742D01*
X0085185Y0042944D01*
X0085051Y0043150D01*
X0084923Y0043359D01*
X0084799Y0043571D01*
X0084681Y0043786D01*
X0084568Y0044004D01*
X0084460Y0044224D01*
X0084358Y0044448D01*
X0084261Y0044673D01*
X0084170Y0044901D01*
X0084085Y0045131D01*
X0084005Y0045363D01*
X0083931Y0045597D01*
X0083862Y0045833D01*
X0083800Y0046070D01*
X0083743Y0046309D01*
X0083692Y0046549D01*
X0083647Y0046790D01*
X0083608Y0047033D01*
X0083575Y0047276D01*
X0083548Y0047520D01*
X0083527Y0047764D01*
X0083512Y0048009D01*
X0083503Y0048255D01*
X0083500Y0048500D01*
X0120000Y0075500D02*
X0120000Y0079000D01*
X0120500Y0079500D01*
X0120500Y0117500D01*
X0120000Y0118000D01*
X0120000Y0121500D01*
X0120002Y0121560D01*
X0120007Y0121621D01*
X0120016Y0121680D01*
X0120029Y0121739D01*
X0120045Y0121798D01*
X0120065Y0121855D01*
X0120088Y0121910D01*
X0120115Y0121965D01*
X0120144Y0122017D01*
X0120177Y0122068D01*
X0120213Y0122117D01*
X0120251Y0122163D01*
X0120293Y0122207D01*
X0120337Y0122249D01*
X0120383Y0122287D01*
X0120432Y0122323D01*
X0120483Y0122356D01*
X0120535Y0122385D01*
X0120590Y0122412D01*
X0120645Y0122435D01*
X0120702Y0122455D01*
X0120761Y0122471D01*
X0120820Y0122484D01*
X0120879Y0122493D01*
X0120940Y0122498D01*
X0121000Y0122500D01*
X0136000Y0122500D01*
X0136060Y0122498D01*
X0136121Y0122493D01*
X0136180Y0122484D01*
X0136239Y0122471D01*
X0136298Y0122455D01*
X0136355Y0122435D01*
X0136410Y0122412D01*
X0136465Y0122385D01*
X0136517Y0122356D01*
X0136568Y0122323D01*
X0136617Y0122287D01*
X0136663Y0122249D01*
X0136707Y0122207D01*
X0136749Y0122163D01*
X0136787Y0122117D01*
X0136823Y0122068D01*
X0136856Y0122017D01*
X0136885Y0121965D01*
X0136912Y0121910D01*
X0136935Y0121855D01*
X0136955Y0121798D01*
X0136971Y0121739D01*
X0136984Y0121680D01*
X0136993Y0121621D01*
X0136998Y0121560D01*
X0137000Y0121500D01*
X0137000Y0118000D01*
X0136500Y0117500D01*
X0136500Y0079500D01*
X0137000Y0079000D01*
X0137000Y0075500D01*
X0136998Y0075440D01*
X0136993Y0075379D01*
X0136984Y0075320D01*
X0136971Y0075261D01*
X0136955Y0075202D01*
X0136935Y0075145D01*
X0136912Y0075090D01*
X0136885Y0075035D01*
X0136856Y0074983D01*
X0136823Y0074932D01*
X0136787Y0074883D01*
X0136749Y0074837D01*
X0136707Y0074793D01*
X0136663Y0074751D01*
X0136617Y0074713D01*
X0136568Y0074677D01*
X0136517Y0074644D01*
X0136465Y0074615D01*
X0136410Y0074588D01*
X0136355Y0074565D01*
X0136298Y0074545D01*
X0136239Y0074529D01*
X0136180Y0074516D01*
X0136121Y0074507D01*
X0136060Y0074502D01*
X0136000Y0074500D01*
X0121000Y0074500D01*
X0120940Y0074502D01*
X0120879Y0074507D01*
X0120820Y0074516D01*
X0120761Y0074529D01*
X0120702Y0074545D01*
X0120645Y0074565D01*
X0120590Y0074588D01*
X0120535Y0074615D01*
X0120483Y0074644D01*
X0120432Y0074677D01*
X0120383Y0074713D01*
X0120337Y0074751D01*
X0120293Y0074793D01*
X0120251Y0074837D01*
X0120213Y0074883D01*
X0120177Y0074932D01*
X0120144Y0074983D01*
X0120115Y0075035D01*
X0120088Y0075090D01*
X0120065Y0075145D01*
X0120045Y0075202D01*
X0120029Y0075261D01*
X0120016Y0075320D01*
X0120007Y0075379D01*
X0120002Y0075440D01*
X0120000Y0075500D01*
X0118500Y0048500D02*
X0118503Y0048745D01*
X0118512Y0048991D01*
X0118527Y0049236D01*
X0118548Y0049480D01*
X0118575Y0049724D01*
X0118608Y0049967D01*
X0118647Y0050210D01*
X0118692Y0050451D01*
X0118743Y0050691D01*
X0118800Y0050930D01*
X0118862Y0051167D01*
X0118931Y0051403D01*
X0119005Y0051637D01*
X0119085Y0051869D01*
X0119170Y0052099D01*
X0119261Y0052327D01*
X0119358Y0052552D01*
X0119460Y0052776D01*
X0119568Y0052996D01*
X0119681Y0053214D01*
X0119799Y0053429D01*
X0119923Y0053641D01*
X0120051Y0053850D01*
X0120185Y0054056D01*
X0120324Y0054258D01*
X0120468Y0054457D01*
X0120617Y0054652D01*
X0120770Y0054844D01*
X0120928Y0055032D01*
X0121090Y0055216D01*
X0121258Y0055395D01*
X0121429Y0055571D01*
X0121605Y0055742D01*
X0121784Y0055910D01*
X0121968Y0056072D01*
X0122156Y0056230D01*
X0122348Y0056383D01*
X0122543Y0056532D01*
X0122742Y0056676D01*
X0122944Y0056815D01*
X0123150Y0056949D01*
X0123359Y0057077D01*
X0123571Y0057201D01*
X0123786Y0057319D01*
X0124004Y0057432D01*
X0124224Y0057540D01*
X0124448Y0057642D01*
X0124673Y0057739D01*
X0124901Y0057830D01*
X0125131Y0057915D01*
X0125363Y0057995D01*
X0125597Y0058069D01*
X0125833Y0058138D01*
X0126070Y0058200D01*
X0126309Y0058257D01*
X0126549Y0058308D01*
X0126790Y0058353D01*
X0127033Y0058392D01*
X0127276Y0058425D01*
X0127520Y0058452D01*
X0127764Y0058473D01*
X0128009Y0058488D01*
X0128255Y0058497D01*
X0128500Y0058500D01*
X0128745Y0058497D01*
X0128991Y0058488D01*
X0129236Y0058473D01*
X0129480Y0058452D01*
X0129724Y0058425D01*
X0129967Y0058392D01*
X0130210Y0058353D01*
X0130451Y0058308D01*
X0130691Y0058257D01*
X0130930Y0058200D01*
X0131167Y0058138D01*
X0131403Y0058069D01*
X0131637Y0057995D01*
X0131869Y0057915D01*
X0132099Y0057830D01*
X0132327Y0057739D01*
X0132552Y0057642D01*
X0132776Y0057540D01*
X0132996Y0057432D01*
X0133214Y0057319D01*
X0133429Y0057201D01*
X0133641Y0057077D01*
X0133850Y0056949D01*
X0134056Y0056815D01*
X0134258Y0056676D01*
X0134457Y0056532D01*
X0134652Y0056383D01*
X0134844Y0056230D01*
X0135032Y0056072D01*
X0135216Y0055910D01*
X0135395Y0055742D01*
X0135571Y0055571D01*
X0135742Y0055395D01*
X0135910Y0055216D01*
X0136072Y0055032D01*
X0136230Y0054844D01*
X0136383Y0054652D01*
X0136532Y0054457D01*
X0136676Y0054258D01*
X0136815Y0054056D01*
X0136949Y0053850D01*
X0137077Y0053641D01*
X0137201Y0053429D01*
X0137319Y0053214D01*
X0137432Y0052996D01*
X0137540Y0052776D01*
X0137642Y0052552D01*
X0137739Y0052327D01*
X0137830Y0052099D01*
X0137915Y0051869D01*
X0137995Y0051637D01*
X0138069Y0051403D01*
X0138138Y0051167D01*
X0138200Y0050930D01*
X0138257Y0050691D01*
X0138308Y0050451D01*
X0138353Y0050210D01*
X0138392Y0049967D01*
X0138425Y0049724D01*
X0138452Y0049480D01*
X0138473Y0049236D01*
X0138488Y0048991D01*
X0138497Y0048745D01*
X0138500Y0048500D01*
X0138497Y0048255D01*
X0138488Y0048009D01*
X0138473Y0047764D01*
X0138452Y0047520D01*
X0138425Y0047276D01*
X0138392Y0047033D01*
X0138353Y0046790D01*
X0138308Y0046549D01*
X0138257Y0046309D01*
X0138200Y0046070D01*
X0138138Y0045833D01*
X0138069Y0045597D01*
X0137995Y0045363D01*
X0137915Y0045131D01*
X0137830Y0044901D01*
X0137739Y0044673D01*
X0137642Y0044448D01*
X0137540Y0044224D01*
X0137432Y0044004D01*
X0137319Y0043786D01*
X0137201Y0043571D01*
X0137077Y0043359D01*
X0136949Y0043150D01*
X0136815Y0042944D01*
X0136676Y0042742D01*
X0136532Y0042543D01*
X0136383Y0042348D01*
X0136230Y0042156D01*
X0136072Y0041968D01*
X0135910Y0041784D01*
X0135742Y0041605D01*
X0135571Y0041429D01*
X0135395Y0041258D01*
X0135216Y0041090D01*
X0135032Y0040928D01*
X0134844Y0040770D01*
X0134652Y0040617D01*
X0134457Y0040468D01*
X0134258Y0040324D01*
X0134056Y0040185D01*
X0133850Y0040051D01*
X0133641Y0039923D01*
X0133429Y0039799D01*
X0133214Y0039681D01*
X0132996Y0039568D01*
X0132776Y0039460D01*
X0132552Y0039358D01*
X0132327Y0039261D01*
X0132099Y0039170D01*
X0131869Y0039085D01*
X0131637Y0039005D01*
X0131403Y0038931D01*
X0131167Y0038862D01*
X0130930Y0038800D01*
X0130691Y0038743D01*
X0130451Y0038692D01*
X0130210Y0038647D01*
X0129967Y0038608D01*
X0129724Y0038575D01*
X0129480Y0038548D01*
X0129236Y0038527D01*
X0128991Y0038512D01*
X0128745Y0038503D01*
X0128500Y0038500D01*
X0128255Y0038503D01*
X0128009Y0038512D01*
X0127764Y0038527D01*
X0127520Y0038548D01*
X0127276Y0038575D01*
X0127033Y0038608D01*
X0126790Y0038647D01*
X0126549Y0038692D01*
X0126309Y0038743D01*
X0126070Y0038800D01*
X0125833Y0038862D01*
X0125597Y0038931D01*
X0125363Y0039005D01*
X0125131Y0039085D01*
X0124901Y0039170D01*
X0124673Y0039261D01*
X0124448Y0039358D01*
X0124224Y0039460D01*
X0124004Y0039568D01*
X0123786Y0039681D01*
X0123571Y0039799D01*
X0123359Y0039923D01*
X0123150Y0040051D01*
X0122944Y0040185D01*
X0122742Y0040324D01*
X0122543Y0040468D01*
X0122348Y0040617D01*
X0122156Y0040770D01*
X0121968Y0040928D01*
X0121784Y0041090D01*
X0121605Y0041258D01*
X0121429Y0041429D01*
X0121258Y0041605D01*
X0121090Y0041784D01*
X0120928Y0041968D01*
X0120770Y0042156D01*
X0120617Y0042348D01*
X0120468Y0042543D01*
X0120324Y0042742D01*
X0120185Y0042944D01*
X0120051Y0043150D01*
X0119923Y0043359D01*
X0119799Y0043571D01*
X0119681Y0043786D01*
X0119568Y0044004D01*
X0119460Y0044224D01*
X0119358Y0044448D01*
X0119261Y0044673D01*
X0119170Y0044901D01*
X0119085Y0045131D01*
X0119005Y0045363D01*
X0118931Y0045597D01*
X0118862Y0045833D01*
X0118800Y0046070D01*
X0118743Y0046309D01*
X0118692Y0046549D01*
X0118647Y0046790D01*
X0118608Y0047033D01*
X0118575Y0047276D01*
X0118548Y0047520D01*
X0118527Y0047764D01*
X0118512Y0048009D01*
X0118503Y0048255D01*
X0118500Y0048500D01*
X0043435Y0127368D02*
X0043435Y0131638D01*
X0041300Y0129503D02*
X0045570Y0129503D01*
X0038500Y0132500D02*
X0038500Y0124500D01*
X0037500Y0123500D01*
X0029500Y0123500D01*
X0028500Y0124500D01*
X0027500Y0123500D01*
X0019500Y0123500D01*
X0018500Y0124500D01*
X0018500Y0132500D01*
X0019500Y0133500D01*
X0027500Y0133500D01*
X0028500Y0132500D01*
X0029500Y0133500D01*
X0037500Y0133500D01*
X0038500Y0132500D01*
X0036326Y0136300D02*
X0035259Y0137368D01*
X0035259Y0141638D01*
X0036326Y0140570D02*
X0034191Y0140570D01*
X0032016Y0139503D02*
X0032016Y0136300D01*
X0028813Y0136300D01*
X0027745Y0137368D01*
X0028813Y0138435D01*
X0032016Y0138435D01*
X0032016Y0139503D02*
X0030948Y0140570D01*
X0028813Y0140570D01*
X0025570Y0140570D02*
X0024503Y0139503D01*
X0021300Y0139503D01*
X0021300Y0142705D02*
X0021300Y0136300D01*
X0024503Y0136300D01*
X0025570Y0137368D01*
X0025570Y0138435D01*
X0024503Y0139503D01*
X0025570Y0140570D02*
X0025570Y0141638D01*
X0024503Y0142705D01*
X0021300Y0142705D01*
X0018070Y0129503D02*
X0013800Y0129503D01*
X0053800Y0144868D02*
X0054868Y0143800D01*
X0057003Y0143800D01*
X0058070Y0144868D01*
X0058070Y0149138D01*
X0057003Y0150205D01*
X0054868Y0150205D01*
X0053800Y0149138D01*
X0053800Y0144868D01*
X0060245Y0144868D02*
X0061313Y0143800D01*
X0064516Y0143800D01*
X0067759Y0144868D02*
X0068826Y0143800D01*
X0067759Y0144868D02*
X0067759Y0149138D01*
X0068826Y0148070D02*
X0066691Y0148070D01*
X0064516Y0148070D02*
X0061313Y0148070D01*
X0060245Y0147003D01*
X0060245Y0144868D01*
X0070988Y0144868D02*
X0072056Y0145935D01*
X0075258Y0145935D01*
X0075258Y0147003D02*
X0074191Y0148070D01*
X0072056Y0148070D01*
X0075258Y0147003D02*
X0075258Y0143800D01*
X0072056Y0143800D01*
X0070988Y0144868D01*
X0077433Y0143800D02*
X0077433Y0148070D01*
X0080636Y0148070D01*
X0081704Y0147003D01*
X0081704Y0143800D01*
X0083879Y0143800D02*
X0086014Y0143800D01*
X0084947Y0143800D02*
X0084947Y0148070D01*
X0083879Y0148070D01*
X0084947Y0150205D02*
X0084947Y0151273D01*
X0088176Y0147003D02*
X0089244Y0148070D01*
X0092446Y0148070D01*
X0091379Y0145935D02*
X0089244Y0145935D01*
X0088176Y0147003D01*
X0088176Y0143800D02*
X0091379Y0143800D01*
X0092446Y0144868D01*
X0091379Y0145935D01*
X0101067Y0143800D02*
X0105337Y0143800D01*
X0107512Y0143800D02*
X0111783Y0143800D01*
X0113958Y0143800D02*
X0117161Y0143800D01*
X0118228Y0144868D01*
X0118228Y0149138D01*
X0117161Y0150205D01*
X0113958Y0150205D01*
X0113958Y0143800D01*
X0109648Y0147003D02*
X0107512Y0147003D01*
X0107512Y0150205D02*
X0107512Y0143800D01*
X0107512Y0150205D02*
X0111783Y0150205D01*
X0101067Y0150205D02*
X0101067Y0143800D01*
X0126849Y0143800D02*
X0130052Y0143800D01*
X0131119Y0144868D01*
X0131119Y0147003D01*
X0130052Y0148070D01*
X0126849Y0148070D01*
X0126849Y0150205D02*
X0126849Y0143800D01*
X0133294Y0144868D02*
X0134362Y0143800D01*
X0136497Y0143800D01*
X0137565Y0144868D01*
X0137565Y0147003D01*
X0136497Y0148070D01*
X0134362Y0148070D01*
X0133294Y0147003D01*
X0133294Y0144868D01*
X0139740Y0144868D02*
X0140808Y0145935D01*
X0144010Y0145935D01*
X0144010Y0147003D02*
X0142943Y0148070D01*
X0140808Y0148070D01*
X0144010Y0147003D02*
X0144010Y0143800D01*
X0140808Y0143800D01*
X0139740Y0144868D01*
X0146185Y0145935D02*
X0148321Y0148070D01*
X0149388Y0148070D01*
X0151557Y0147003D02*
X0152624Y0148070D01*
X0155827Y0148070D01*
X0155827Y0150205D02*
X0155827Y0143800D01*
X0152624Y0143800D01*
X0151557Y0144868D01*
X0151557Y0147003D01*
X0146185Y0148070D02*
X0146185Y0143800D01*
D12*
X0028284Y0015236D02*
X0028284Y0014752D01*
X0028284Y0013785D02*
X0028284Y0011850D01*
X0027800Y0011850D02*
X0028768Y0011850D01*
X0029765Y0011850D02*
X0031216Y0011850D01*
X0031700Y0012334D01*
X0031216Y0012817D01*
X0030248Y0012817D01*
X0029765Y0013301D01*
X0030248Y0013785D01*
X0031700Y0013785D01*
X0032711Y0012334D02*
X0033195Y0012334D01*
X0033195Y0011850D01*
X0032711Y0011850D01*
X0032711Y0012334D01*
X0034185Y0012334D02*
X0034668Y0011850D01*
X0035636Y0011850D01*
X0036120Y0012334D01*
X0036120Y0013301D01*
X0035636Y0013785D01*
X0034668Y0013785D01*
X0034185Y0013301D01*
X0034185Y0012334D01*
X0037131Y0012817D02*
X0038099Y0013785D01*
X0038582Y0013785D01*
X0039586Y0013301D02*
X0040070Y0013785D01*
X0041521Y0013785D01*
X0041521Y0011366D01*
X0041038Y0010883D01*
X0040554Y0010883D01*
X0040070Y0011850D02*
X0041521Y0011850D01*
X0040070Y0011850D02*
X0039586Y0012334D01*
X0039586Y0013301D01*
X0037131Y0013785D02*
X0037131Y0011850D01*
X0028284Y0013785D02*
X0027800Y0013785D01*
X0026789Y0013301D02*
X0026789Y0011850D01*
X0026789Y0013301D02*
X0026305Y0013785D01*
X0024854Y0013785D01*
X0024854Y0011850D01*
X0023842Y0011850D02*
X0022391Y0011850D01*
X0021907Y0012334D01*
X0022391Y0012817D01*
X0023842Y0012817D01*
X0023842Y0013301D02*
X0023842Y0011850D01*
X0023842Y0013301D02*
X0023359Y0013785D01*
X0022391Y0013785D01*
X0020911Y0013785D02*
X0019943Y0013785D01*
X0020427Y0014269D02*
X0020427Y0012334D01*
X0020911Y0011850D01*
X0018931Y0011850D02*
X0017480Y0011850D01*
X0016997Y0012334D01*
X0016997Y0013301D01*
X0017480Y0013785D01*
X0018931Y0013785D01*
X0015985Y0013301D02*
X0015501Y0013785D01*
X0014534Y0013785D01*
X0014050Y0013301D01*
X0014050Y0012334D01*
X0014534Y0011850D01*
X0015501Y0011850D01*
X0015985Y0012334D01*
X0015985Y0013301D01*
D13*
X0018250Y0021600D03*
X0018150Y0021700D03*
X0018050Y0021800D03*
X0017950Y0021900D03*
X0025850Y0016400D03*
X0028250Y0015900D03*
X0038150Y0021400D03*
X0038250Y0021500D03*
X0038350Y0021600D03*
X0038450Y0021700D03*
X0038250Y0031800D03*
X0038150Y0032200D03*
X0038150Y0032300D03*
X0038150Y0032700D03*
X0038450Y0039600D03*
X0038350Y0039700D03*
X0038250Y0039800D03*
X0038150Y0039900D03*
X0018350Y0039800D03*
X0018250Y0039700D03*
X0018150Y0039600D03*
X0018050Y0039500D03*
X0017950Y0039400D03*
D14*
X0021250Y0042100D03*
X0021850Y0038400D03*
X0021750Y0038300D03*
X0022550Y0034600D03*
X0022950Y0034300D03*
X0019350Y0027600D03*
X0019350Y0027500D03*
X0019450Y0027300D03*
X0019450Y0027200D03*
X0019450Y0027100D03*
X0019850Y0026200D03*
X0019850Y0026100D03*
X0028250Y0016000D03*
X0033950Y0039200D03*
X0033850Y0039300D03*
X0033750Y0039400D03*
X0032450Y0040400D03*
X0032250Y0040500D03*
X0028250Y0045300D03*
D15*
X0028300Y0045200D03*
X0021100Y0036500D03*
X0023500Y0021800D03*
X0028200Y0018200D03*
X0028300Y0016100D03*
D16*
X0028250Y0016200D03*
X0028250Y0045100D03*
D17*
X0028250Y0045000D03*
X0023350Y0022800D03*
X0028250Y0016300D03*
D18*
X0027900Y0016400D03*
X0026800Y0017800D03*
X0026800Y0017900D03*
X0026000Y0017200D03*
X0025600Y0017500D03*
X0025600Y0017600D03*
X0025700Y0017700D03*
X0025700Y0017800D03*
X0025700Y0017900D03*
X0025000Y0018000D03*
X0024400Y0017500D03*
X0023200Y0017500D03*
X0023200Y0017600D03*
X0022800Y0018200D03*
X0022800Y0018500D03*
X0021400Y0019200D03*
X0021300Y0019600D03*
X0021000Y0019100D03*
X0020400Y0020200D03*
X0020100Y0020500D03*
X0020000Y0020400D03*
X0019500Y0020900D03*
X0024700Y0025100D03*
X0026600Y0025200D03*
X0027100Y0022400D03*
X0029200Y0022400D03*
X0030600Y0022200D03*
X0032200Y0022100D03*
X0032700Y0022300D03*
X0033200Y0022200D03*
X0034500Y0019400D03*
X0034600Y0019300D03*
X0035000Y0019400D03*
X0033300Y0018300D03*
X0030300Y0017500D03*
X0030300Y0017400D03*
X0037200Y0019700D03*
X0037300Y0020500D03*
X0037200Y0020800D03*
X0037800Y0020500D03*
X0036500Y0025600D03*
X0027800Y0029700D03*
X0021100Y0028600D03*
X0021100Y0028400D03*
X0021000Y0031500D03*
X0021000Y0031600D03*
X0020300Y0032300D03*
X0018800Y0034700D03*
X0027700Y0044300D03*
X0029000Y0044200D03*
X0029000Y0044100D03*
X0029500Y0044100D03*
X0029500Y0044000D03*
X0029500Y0043900D03*
D19*
X0030900Y0043500D03*
X0032100Y0043600D03*
X0028300Y0044800D03*
X0025900Y0044300D03*
X0029200Y0023500D03*
X0034400Y0019700D03*
X0034600Y0019800D03*
X0034800Y0019900D03*
X0034900Y0020000D03*
X0035100Y0020100D03*
X0034800Y0019100D03*
X0034300Y0018200D03*
X0032500Y0018100D03*
X0029400Y0017300D03*
X0029400Y0017200D03*
X0028600Y0016400D03*
X0026300Y0016900D03*
X0026400Y0017500D03*
X0025200Y0017300D03*
X0025200Y0017200D03*
X0025200Y0017100D03*
X0025100Y0017000D03*
X0025100Y0016900D03*
X0021800Y0018400D03*
X0021800Y0019900D03*
X0021300Y0020200D03*
X0019400Y0019100D03*
X0019300Y0019200D03*
X0019200Y0019300D03*
X0019000Y0019400D03*
X0018100Y0020300D03*
X0036300Y0020900D03*
X0037700Y0019600D03*
X0038000Y0019800D03*
X0038700Y0020600D03*
X0037100Y0019100D03*
X0037000Y0019000D03*
D20*
X0038750Y0022100D03*
X0038850Y0022200D03*
X0038950Y0022300D03*
X0039050Y0022400D03*
X0039150Y0022600D03*
X0031350Y0018400D03*
X0030850Y0016400D03*
X0017650Y0022300D03*
X0017550Y0022400D03*
X0017450Y0022500D03*
X0018250Y0032200D03*
X0018450Y0033200D03*
X0022950Y0033900D03*
X0017650Y0039000D03*
X0017550Y0038900D03*
X0017450Y0038800D03*
X0021650Y0043000D03*
X0037750Y0034600D03*
X0037750Y0034500D03*
X0037850Y0034300D03*
X0037950Y0034000D03*
X0037950Y0033900D03*
X0038050Y0033600D03*
X0038150Y0033200D03*
X0038150Y0033100D03*
X0038150Y0033000D03*
X0038350Y0031700D03*
X0039150Y0038700D03*
X0039050Y0038900D03*
X0038950Y0039000D03*
X0038850Y0039100D03*
X0038750Y0039200D03*
D21*
X0039450Y0038300D03*
X0039550Y0038200D03*
X0039650Y0038000D03*
X0039750Y0037900D03*
X0039850Y0037700D03*
X0037150Y0036100D03*
X0037650Y0035100D03*
X0037650Y0035000D03*
X0038450Y0031600D03*
X0039850Y0023600D03*
X0039750Y0023400D03*
X0039650Y0023300D03*
X0039550Y0023100D03*
X0039450Y0023000D03*
X0031550Y0016600D03*
X0025250Y0016500D03*
X0017150Y0022900D03*
X0017050Y0023100D03*
X0016950Y0023200D03*
X0016850Y0023300D03*
X0016850Y0023400D03*
X0016750Y0023500D03*
X0016650Y0023700D03*
X0018250Y0032900D03*
X0016650Y0037600D03*
X0016750Y0037800D03*
X0016850Y0037900D03*
X0016850Y0038000D03*
X0016950Y0038100D03*
X0017050Y0038200D03*
X0031150Y0042900D03*
X0032150Y0044500D03*
D22*
X0030850Y0044400D03*
X0030750Y0044300D03*
X0030150Y0044600D03*
X0030050Y0044400D03*
X0030050Y0044300D03*
X0030050Y0044200D03*
X0030050Y0044100D03*
X0030050Y0044000D03*
X0029150Y0043500D03*
X0028450Y0043900D03*
X0028450Y0044000D03*
X0027250Y0044600D03*
X0026950Y0043800D03*
X0026950Y0043700D03*
X0026950Y0043600D03*
X0024750Y0043200D03*
X0024450Y0044000D03*
X0025550Y0034000D03*
X0025650Y0033900D03*
X0025850Y0033800D03*
X0022450Y0033200D03*
X0019550Y0033500D03*
X0027950Y0027800D03*
X0029150Y0023200D03*
X0029150Y0023100D03*
X0029350Y0022800D03*
X0029450Y0022600D03*
X0029550Y0022500D03*
X0029750Y0022200D03*
X0029850Y0022100D03*
X0030750Y0017800D03*
X0030850Y0017600D03*
X0030850Y0017500D03*
X0030950Y0017300D03*
X0031650Y0017200D03*
X0033650Y0018600D03*
X0034950Y0019300D03*
X0035650Y0019700D03*
X0036150Y0020000D03*
X0036150Y0020100D03*
X0036450Y0019600D03*
X0036950Y0019900D03*
X0036850Y0020300D03*
X0036750Y0020400D03*
X0038050Y0028300D03*
X0031550Y0034700D03*
X0031550Y0034800D03*
X0031650Y0034900D03*
X0031450Y0034600D03*
X0030650Y0034000D03*
X0030550Y0033900D03*
X0030350Y0033800D03*
X0019550Y0020600D03*
X0020050Y0019600D03*
X0020450Y0019200D03*
X0020750Y0019700D03*
X0021350Y0019400D03*
X0021350Y0019300D03*
X0020950Y0018800D03*
X0020950Y0018700D03*
X0023350Y0018500D03*
X0023350Y0018000D03*
X0024350Y0017800D03*
X0025050Y0017700D03*
X0027350Y0017500D03*
X0027350Y0017400D03*
X0027950Y0017200D03*
X0028050Y0017400D03*
X0028050Y0017500D03*
X0028050Y0017600D03*
X0027850Y0017000D03*
X0027850Y0016900D03*
X0027250Y0016700D03*
X0027250Y0016600D03*
X0027250Y0016500D03*
D23*
X0028600Y0016500D03*
X0028000Y0017800D03*
X0030400Y0016700D03*
X0032600Y0017200D03*
X0032600Y0017300D03*
X0032600Y0017400D03*
X0032600Y0017500D03*
X0032600Y0017600D03*
X0032600Y0017700D03*
X0032600Y0017800D03*
X0033600Y0017600D03*
X0036000Y0019000D03*
X0036400Y0021100D03*
X0036500Y0021200D03*
X0038700Y0020500D03*
X0032800Y0022100D03*
X0029200Y0021600D03*
X0027100Y0021600D03*
X0027000Y0021500D03*
X0029200Y0024700D03*
X0028100Y0027700D03*
X0026800Y0033400D03*
X0029400Y0033400D03*
X0031200Y0034300D03*
X0032100Y0037100D03*
X0030800Y0043600D03*
X0028300Y0044600D03*
X0027800Y0043500D03*
X0027000Y0044100D03*
X0027000Y0044200D03*
X0027000Y0044300D03*
X0024400Y0044100D03*
X0023800Y0043600D03*
X0023800Y0043500D03*
X0023900Y0043200D03*
X0023900Y0043100D03*
X0019900Y0021300D03*
X0020000Y0021200D03*
X0020100Y0021100D03*
X0020700Y0019900D03*
X0020400Y0019300D03*
X0022500Y0017900D03*
X0023500Y0017700D03*
X0024300Y0018000D03*
D24*
X0024300Y0017900D03*
X0024000Y0018200D03*
X0023400Y0017900D03*
X0023700Y0017500D03*
X0023400Y0018600D03*
X0025100Y0017800D03*
X0026300Y0017700D03*
X0026500Y0016800D03*
X0027900Y0017100D03*
X0029500Y0016600D03*
X0029500Y0016500D03*
X0030400Y0016900D03*
X0030800Y0017700D03*
X0030700Y0017900D03*
X0031500Y0017900D03*
X0031700Y0017300D03*
X0033500Y0018800D03*
X0033600Y0018700D03*
X0033800Y0018500D03*
X0035300Y0018600D03*
X0035400Y0018500D03*
X0036600Y0019500D03*
X0036900Y0020000D03*
X0036700Y0020500D03*
X0030500Y0022100D03*
X0029300Y0021100D03*
X0028100Y0021100D03*
X0027000Y0021100D03*
X0029300Y0024800D03*
X0028100Y0027400D03*
X0028100Y0027500D03*
X0027900Y0027900D03*
X0027900Y0028000D03*
X0027800Y0028100D03*
X0028100Y0033100D03*
X0026200Y0033600D03*
X0026000Y0033700D03*
X0030000Y0033600D03*
X0030200Y0033700D03*
X0031300Y0034400D03*
X0031400Y0034500D03*
X0032000Y0035900D03*
X0031200Y0043300D03*
X0030700Y0043800D03*
X0031400Y0044100D03*
X0029400Y0044700D03*
X0028400Y0044200D03*
X0028400Y0044100D03*
X0029100Y0043400D03*
X0027300Y0044700D03*
X0026200Y0043400D03*
X0026200Y0043300D03*
X0024800Y0043100D03*
X0023900Y0043000D03*
X0023800Y0043700D03*
X0019600Y0033400D03*
X0019500Y0020700D03*
D25*
X0016000Y0024900D03*
X0015900Y0025100D03*
X0015800Y0025300D03*
X0015800Y0025400D03*
X0015700Y0025500D03*
X0015700Y0025600D03*
X0015600Y0025800D03*
X0015600Y0025900D03*
X0015500Y0026100D03*
X0015400Y0026400D03*
X0015300Y0026700D03*
X0015300Y0034600D03*
X0015400Y0034900D03*
X0015500Y0035200D03*
X0015600Y0035400D03*
X0015600Y0035500D03*
X0015700Y0035700D03*
X0015700Y0035800D03*
X0015800Y0035900D03*
X0015800Y0036000D03*
X0015900Y0036200D03*
X0016000Y0036400D03*
X0024800Y0044700D03*
X0028100Y0043300D03*
X0032000Y0044600D03*
X0033200Y0044100D03*
X0034500Y0043400D03*
X0029600Y0036800D03*
X0037500Y0035700D03*
X0040600Y0036300D03*
X0040700Y0036100D03*
X0040800Y0035900D03*
X0040800Y0035800D03*
X0040900Y0035700D03*
X0040900Y0035600D03*
X0040900Y0035500D03*
X0041000Y0035400D03*
X0041000Y0035300D03*
X0041100Y0035100D03*
X0041100Y0035000D03*
X0041200Y0034800D03*
X0041200Y0026500D03*
X0041100Y0026200D03*
X0041000Y0026000D03*
X0041000Y0025900D03*
X0040900Y0025700D03*
X0040900Y0025600D03*
X0040800Y0025500D03*
X0040800Y0025400D03*
X0040700Y0025200D03*
X0040600Y0025000D03*
X0038400Y0021200D03*
X0035400Y0022500D03*
X0035300Y0022400D03*
X0031400Y0016500D03*
X0028700Y0017900D03*
D26*
X0024600Y0016600D03*
X0018100Y0021100D03*
X0018000Y0033400D03*
X0018100Y0033800D03*
X0022000Y0043500D03*
X0023800Y0044400D03*
X0033000Y0044300D03*
X0034400Y0043600D03*
X0038800Y0029500D03*
X0038800Y0029400D03*
X0038800Y0029300D03*
X0038200Y0026900D03*
X0038200Y0026800D03*
X0038200Y0026700D03*
X0037500Y0025200D03*
X0037500Y0025100D03*
X0037200Y0024700D03*
X0036400Y0023400D03*
X0036300Y0023300D03*
D27*
X0037350Y0020600D03*
X0036250Y0020200D03*
X0036150Y0019900D03*
X0035650Y0019800D03*
X0034150Y0017900D03*
X0034250Y0017800D03*
X0033350Y0018100D03*
X0033350Y0018200D03*
X0031550Y0018000D03*
X0031050Y0017000D03*
X0031150Y0016900D03*
X0031150Y0016800D03*
X0030350Y0017300D03*
X0028550Y0017300D03*
X0028550Y0017200D03*
X0028550Y0017100D03*
X0027850Y0016800D03*
X0027850Y0016700D03*
X0027850Y0016600D03*
X0027150Y0017000D03*
X0026650Y0017200D03*
X0026650Y0017300D03*
X0026750Y0017700D03*
X0026650Y0016700D03*
X0026650Y0016600D03*
X0025550Y0017400D03*
X0025150Y0017600D03*
X0025650Y0018000D03*
X0024550Y0018200D03*
X0024550Y0018300D03*
X0024350Y0017400D03*
X0024350Y0017300D03*
X0023150Y0017400D03*
X0022750Y0018400D03*
X0021350Y0019500D03*
X0020050Y0019700D03*
X0019850Y0020200D03*
X0019950Y0020300D03*
X0020150Y0020600D03*
X0019550Y0020500D03*
X0019050Y0020400D03*
X0026150Y0025200D03*
X0028150Y0025200D03*
X0028150Y0025300D03*
X0028150Y0025400D03*
X0028150Y0025500D03*
X0028150Y0025600D03*
X0028150Y0025700D03*
X0028150Y0025800D03*
X0028150Y0025900D03*
X0028150Y0026000D03*
X0028150Y0026100D03*
X0028150Y0026200D03*
X0028150Y0026300D03*
X0028150Y0026400D03*
X0028150Y0026500D03*
X0028150Y0026600D03*
X0028150Y0026700D03*
X0028050Y0026800D03*
X0028050Y0026900D03*
X0028050Y0027000D03*
X0028050Y0027100D03*
X0028350Y0027800D03*
X0028450Y0027900D03*
X0028450Y0028000D03*
X0028550Y0028100D03*
X0028550Y0028200D03*
X0028650Y0028400D03*
X0028750Y0028600D03*
X0028850Y0028800D03*
X0028950Y0029000D03*
X0028950Y0029100D03*
X0029050Y0029200D03*
X0029050Y0029300D03*
X0029150Y0029400D03*
X0029150Y0029500D03*
X0029250Y0029600D03*
X0029250Y0029700D03*
X0029350Y0029900D03*
X0029450Y0030100D03*
X0029550Y0030300D03*
X0029650Y0030500D03*
X0029650Y0030600D03*
X0029750Y0030700D03*
X0029750Y0030800D03*
X0029850Y0030900D03*
X0029850Y0031000D03*
X0029950Y0031100D03*
X0029950Y0031200D03*
X0030050Y0031400D03*
X0030150Y0031600D03*
X0030250Y0031800D03*
X0030350Y0032000D03*
X0030350Y0032100D03*
X0030450Y0032200D03*
X0030450Y0032300D03*
X0030550Y0032400D03*
X0030550Y0032500D03*
X0030650Y0032600D03*
X0030650Y0032700D03*
X0030750Y0032900D03*
X0030850Y0033100D03*
X0030950Y0033300D03*
X0031050Y0033500D03*
X0031050Y0033600D03*
X0031150Y0033700D03*
X0031150Y0033800D03*
X0031250Y0033900D03*
X0031250Y0034000D03*
X0031350Y0034100D03*
X0031350Y0034200D03*
X0031750Y0035100D03*
X0031850Y0035300D03*
X0031950Y0035500D03*
X0032050Y0035600D03*
X0032150Y0036000D03*
X0032150Y0036100D03*
X0032250Y0036200D03*
X0032250Y0036300D03*
X0032250Y0036400D03*
X0032250Y0036500D03*
X0032250Y0036600D03*
X0032350Y0036700D03*
X0032350Y0036800D03*
X0032350Y0036900D03*
X0032350Y0037200D03*
X0032350Y0037300D03*
X0032350Y0037400D03*
X0032350Y0037500D03*
X0032750Y0037300D03*
X0033350Y0036600D03*
X0035350Y0036100D03*
X0038050Y0028500D03*
X0038050Y0028400D03*
X0032650Y0022200D03*
X0029350Y0025000D03*
X0028150Y0025000D03*
X0028150Y0025100D03*
X0027950Y0028200D03*
X0027950Y0028300D03*
X0027950Y0028400D03*
X0027950Y0028500D03*
X0027950Y0028600D03*
X0027950Y0028700D03*
X0027950Y0028800D03*
X0027850Y0028900D03*
X0027850Y0029000D03*
X0027850Y0029100D03*
X0027850Y0029200D03*
X0027850Y0029300D03*
X0027850Y0029400D03*
X0027850Y0029500D03*
X0027850Y0029600D03*
X0027750Y0029800D03*
X0027750Y0029900D03*
X0027750Y0030000D03*
X0027750Y0030100D03*
X0027750Y0030200D03*
X0027750Y0030300D03*
X0027750Y0030400D03*
X0027750Y0030500D03*
X0027650Y0030600D03*
X0027650Y0030700D03*
X0027650Y0030800D03*
X0027650Y0030900D03*
X0027650Y0031000D03*
X0027650Y0031100D03*
X0027650Y0031200D03*
X0027650Y0031300D03*
X0027650Y0031400D03*
X0027550Y0031500D03*
X0027550Y0031600D03*
X0027550Y0031700D03*
X0027550Y0031800D03*
X0027550Y0031900D03*
X0027550Y0032000D03*
X0027550Y0032100D03*
X0027550Y0032200D03*
X0027450Y0032300D03*
X0027450Y0032400D03*
X0027450Y0032500D03*
X0027450Y0032600D03*
X0027450Y0032700D03*
X0027450Y0032800D03*
X0027450Y0032900D03*
X0027450Y0033000D03*
X0027350Y0033400D03*
X0027350Y0033500D03*
X0027350Y0033600D03*
X0027350Y0033700D03*
X0027350Y0033800D03*
X0027350Y0033900D03*
X0027350Y0034000D03*
X0027250Y0034100D03*
X0027250Y0034200D03*
X0027250Y0034300D03*
X0027250Y0034400D03*
X0027250Y0034500D03*
X0027250Y0034600D03*
X0027250Y0034700D03*
X0027250Y0034800D03*
X0027150Y0034900D03*
X0027150Y0035000D03*
X0027150Y0035100D03*
X0027150Y0035200D03*
X0027150Y0035300D03*
X0025050Y0033800D03*
X0025050Y0033700D03*
X0025150Y0033600D03*
X0025150Y0033500D03*
X0025250Y0033400D03*
X0025250Y0033300D03*
X0025350Y0033200D03*
X0025350Y0033100D03*
X0025450Y0032900D03*
X0025550Y0032700D03*
X0025650Y0032500D03*
X0025750Y0032300D03*
X0025750Y0032200D03*
X0025850Y0032100D03*
X0025850Y0032000D03*
X0025950Y0031900D03*
X0025950Y0031800D03*
X0026050Y0031600D03*
X0026150Y0031400D03*
X0026250Y0031200D03*
X0026250Y0031100D03*
X0026350Y0031000D03*
X0026350Y0030900D03*
X0026450Y0030800D03*
X0026450Y0030700D03*
X0026550Y0030600D03*
X0026550Y0030500D03*
X0026650Y0030400D03*
X0026650Y0030300D03*
X0026750Y0030100D03*
X0026850Y0029900D03*
X0026950Y0029700D03*
X0026950Y0029600D03*
X0027050Y0029500D03*
X0027050Y0029400D03*
X0027150Y0029300D03*
X0027150Y0029200D03*
X0027250Y0029100D03*
X0027250Y0029000D03*
X0027350Y0028800D03*
X0027450Y0028600D03*
X0027550Y0028400D03*
X0027550Y0028300D03*
X0027650Y0028200D03*
X0024950Y0034000D03*
X0020950Y0031400D03*
X0020350Y0032200D03*
X0018750Y0034600D03*
X0024650Y0043500D03*
X0025750Y0044500D03*
X0026250Y0044400D03*
X0027750Y0044200D03*
X0027750Y0044100D03*
X0028550Y0043500D03*
X0028550Y0043400D03*
X0029050Y0043800D03*
X0029050Y0043900D03*
X0029050Y0044000D03*
X0029450Y0044200D03*
X0029450Y0044300D03*
X0030550Y0043300D03*
D28*
X0030750Y0043700D03*
X0028350Y0044300D03*
X0028350Y0044400D03*
X0028350Y0044500D03*
X0027750Y0043700D03*
X0027750Y0043600D03*
X0026950Y0043900D03*
X0026950Y0044000D03*
X0027150Y0044500D03*
X0027250Y0044800D03*
X0025450Y0043400D03*
X0026450Y0033500D03*
X0029750Y0033500D03*
X0028050Y0027600D03*
X0029150Y0023300D03*
X0029250Y0021200D03*
X0028150Y0021200D03*
X0027050Y0021200D03*
X0028050Y0017700D03*
X0028550Y0016700D03*
X0028550Y0016600D03*
X0029450Y0016700D03*
X0029450Y0016800D03*
X0030450Y0016800D03*
X0030650Y0018000D03*
X0031550Y0017800D03*
X0031650Y0017700D03*
X0031650Y0017600D03*
X0031650Y0017500D03*
X0031650Y0017400D03*
X0033550Y0017700D03*
X0034150Y0018100D03*
X0035250Y0018700D03*
X0034950Y0019200D03*
X0035650Y0019500D03*
X0035650Y0019600D03*
X0035750Y0019400D03*
X0035850Y0019300D03*
X0035850Y0019200D03*
X0035950Y0019100D03*
X0023650Y0017600D03*
X0023450Y0017800D03*
X0020750Y0019800D03*
X0020450Y0020000D03*
X0020150Y0019500D03*
X0019150Y0020200D03*
X0022650Y0025800D03*
D29*
X0018050Y0021200D03*
X0024350Y0016700D03*
X0025650Y0018400D03*
X0028150Y0021800D03*
X0028150Y0021900D03*
X0028150Y0022000D03*
X0028150Y0022100D03*
X0028150Y0022200D03*
X0028150Y0022300D03*
X0036650Y0023800D03*
X0037550Y0025300D03*
X0037550Y0025400D03*
X0038450Y0021100D03*
X0018150Y0033700D03*
X0025650Y0042900D03*
X0023650Y0044300D03*
D30*
X0031450Y0042800D03*
X0032750Y0044400D03*
X0038850Y0031100D03*
X0038850Y0031000D03*
X0038850Y0030900D03*
X0038850Y0030800D03*
X0038850Y0030700D03*
X0038850Y0030000D03*
X0038850Y0029900D03*
X0038850Y0029800D03*
X0038850Y0029700D03*
X0038850Y0029600D03*
X0038850Y0029200D03*
X0038450Y0027300D03*
X0038350Y0027000D03*
X0037850Y0025700D03*
X0037750Y0025600D03*
X0037450Y0025000D03*
X0037450Y0024900D03*
X0037250Y0024600D03*
X0036950Y0024200D03*
X0036650Y0023700D03*
X0036250Y0023200D03*
X0036150Y0023100D03*
X0033250Y0017100D03*
X0032250Y0016700D03*
X0018050Y0033500D03*
D31*
X0018250Y0033600D03*
X0015250Y0034300D03*
X0015250Y0034400D03*
X0015250Y0034500D03*
X0015350Y0034700D03*
X0015350Y0034800D03*
X0015450Y0035000D03*
X0015450Y0035100D03*
X0015550Y0035300D03*
X0015650Y0035600D03*
X0015150Y0034200D03*
X0015150Y0034100D03*
X0015150Y0034000D03*
X0015050Y0033800D03*
X0015050Y0033700D03*
X0015050Y0033600D03*
X0014950Y0033300D03*
X0014950Y0033200D03*
X0014950Y0033100D03*
X0014850Y0032700D03*
X0014850Y0032600D03*
X0014750Y0031700D03*
X0014750Y0029600D03*
X0014850Y0028700D03*
X0014850Y0028600D03*
X0014950Y0028200D03*
X0014950Y0028100D03*
X0014950Y0028000D03*
X0015050Y0027700D03*
X0015050Y0027600D03*
X0015050Y0027500D03*
X0015150Y0027300D03*
X0015150Y0027200D03*
X0015150Y0027100D03*
X0015250Y0027000D03*
X0015250Y0026900D03*
X0015250Y0026800D03*
X0015350Y0026600D03*
X0015350Y0026500D03*
X0015450Y0026300D03*
X0015450Y0026200D03*
X0015550Y0026000D03*
X0015650Y0025700D03*
X0018050Y0021300D03*
X0024250Y0016800D03*
X0031650Y0018500D03*
X0036650Y0024000D03*
X0040950Y0025800D03*
X0041050Y0026100D03*
X0041150Y0026300D03*
X0041150Y0026400D03*
X0041250Y0026600D03*
X0041250Y0026700D03*
X0041250Y0026800D03*
X0041350Y0026900D03*
X0041350Y0027000D03*
X0041350Y0027100D03*
X0041350Y0027200D03*
X0041450Y0027300D03*
X0041450Y0027400D03*
X0041450Y0027500D03*
X0041550Y0027700D03*
X0041550Y0027800D03*
X0041550Y0027900D03*
X0041650Y0028300D03*
X0041650Y0028400D03*
X0041750Y0029000D03*
X0041750Y0029100D03*
X0041750Y0032200D03*
X0041750Y0032300D03*
X0041650Y0032900D03*
X0041650Y0033000D03*
X0041550Y0033400D03*
X0041550Y0033500D03*
X0041550Y0033600D03*
X0041450Y0033800D03*
X0041450Y0033900D03*
X0041450Y0034000D03*
X0041350Y0034100D03*
X0041350Y0034200D03*
X0041350Y0034300D03*
X0041350Y0034400D03*
X0041250Y0034500D03*
X0041250Y0034600D03*
X0041250Y0034700D03*
X0041150Y0034900D03*
X0041050Y0035200D03*
X0034450Y0043500D03*
X0024550Y0044600D03*
X0021850Y0043300D03*
D32*
X0023800Y0043800D03*
X0024500Y0043800D03*
X0024500Y0043900D03*
X0024600Y0043700D03*
X0024600Y0043600D03*
X0024700Y0043400D03*
X0024700Y0043300D03*
X0023900Y0042900D03*
X0025800Y0044400D03*
X0026900Y0043500D03*
X0026900Y0043400D03*
X0028500Y0043600D03*
X0028500Y0043700D03*
X0028500Y0043800D03*
X0029100Y0043700D03*
X0029100Y0043600D03*
X0029400Y0044400D03*
X0029400Y0044500D03*
X0029400Y0044600D03*
X0030100Y0044500D03*
X0030000Y0043900D03*
X0030000Y0043800D03*
X0030000Y0043700D03*
X0030000Y0043600D03*
X0030000Y0043500D03*
X0030000Y0043400D03*
X0029900Y0043300D03*
X0030500Y0043200D03*
X0030700Y0043900D03*
X0030700Y0044000D03*
X0030700Y0044100D03*
X0030700Y0044200D03*
X0033400Y0036700D03*
X0032000Y0035700D03*
X0031900Y0035400D03*
X0031800Y0035200D03*
X0031700Y0035000D03*
X0030900Y0034200D03*
X0030800Y0034100D03*
X0031000Y0033400D03*
X0030900Y0033200D03*
X0030800Y0033000D03*
X0030700Y0032800D03*
X0030300Y0031900D03*
X0030200Y0031700D03*
X0030100Y0031500D03*
X0030000Y0031300D03*
X0029600Y0030400D03*
X0029500Y0030200D03*
X0029400Y0030000D03*
X0029300Y0029800D03*
X0028900Y0028900D03*
X0028800Y0028700D03*
X0028700Y0028500D03*
X0028600Y0028300D03*
X0027500Y0028500D03*
X0027400Y0028700D03*
X0027300Y0028900D03*
X0026900Y0029800D03*
X0026800Y0030000D03*
X0026700Y0030200D03*
X0026200Y0031300D03*
X0026100Y0031500D03*
X0026000Y0031700D03*
X0025700Y0032400D03*
X0025600Y0032600D03*
X0025500Y0032800D03*
X0025400Y0033000D03*
X0025000Y0033900D03*
X0025400Y0034100D03*
X0027400Y0033100D03*
X0028100Y0027300D03*
X0028100Y0027200D03*
X0029300Y0024900D03*
X0029200Y0023000D03*
X0029300Y0022900D03*
X0029400Y0022700D03*
X0029600Y0022400D03*
X0029700Y0022300D03*
X0030900Y0017400D03*
X0031000Y0017200D03*
X0031000Y0017100D03*
X0031600Y0017100D03*
X0033600Y0017800D03*
X0034100Y0018000D03*
X0037100Y0019800D03*
X0036900Y0020100D03*
X0036900Y0020200D03*
X0037300Y0020700D03*
X0037800Y0020400D03*
X0028000Y0017300D03*
X0027300Y0017600D03*
X0027200Y0016900D03*
X0027200Y0016800D03*
X0026600Y0017400D03*
X0025100Y0017900D03*
X0024400Y0017700D03*
X0024400Y0017600D03*
X0024300Y0017200D03*
X0024200Y0017100D03*
X0023800Y0017400D03*
X0023300Y0018100D03*
X0023300Y0018200D03*
X0023300Y0018300D03*
X0023300Y0018400D03*
X0022700Y0018300D03*
X0022400Y0018000D03*
X0024000Y0018300D03*
X0021000Y0018900D03*
X0021000Y0019000D03*
X0020700Y0019500D03*
X0020800Y0019600D03*
X0020400Y0019100D03*
X0020400Y0019000D03*
X0020400Y0020100D03*
X0019500Y0020800D03*
X0019100Y0020300D03*
X0020400Y0032100D03*
D33*
X0018000Y0034200D03*
X0022300Y0043800D03*
X0034200Y0043800D03*
X0038900Y0029100D03*
X0038800Y0028200D03*
X0038800Y0028100D03*
X0038200Y0026300D03*
X0038200Y0026200D03*
X0038100Y0025900D03*
X0036100Y0022900D03*
X0034200Y0017500D03*
X0032900Y0016900D03*
X0032700Y0016800D03*
X0023400Y0017000D03*
X0021100Y0018200D03*
D34*
X0021950Y0017700D03*
X0022750Y0019200D03*
X0023550Y0016900D03*
X0025250Y0018500D03*
X0018850Y0020000D03*
X0018050Y0020800D03*
X0018050Y0034300D03*
X0025250Y0042800D03*
X0022450Y0043900D03*
X0030850Y0036900D03*
X0030150Y0035600D03*
X0034050Y0043900D03*
X0038950Y0028800D03*
X0038950Y0028700D03*
X0038950Y0028600D03*
X0038750Y0028000D03*
X0038750Y0027900D03*
X0038750Y0027800D03*
X0038750Y0027700D03*
X0038150Y0026100D03*
X0038150Y0026000D03*
X0038550Y0020900D03*
D35*
X0038650Y0020400D03*
X0037850Y0019700D03*
X0037650Y0019500D03*
X0036350Y0021000D03*
X0035650Y0020500D03*
X0035550Y0020400D03*
X0035350Y0020300D03*
X0035250Y0020200D03*
X0032550Y0018000D03*
X0032550Y0017900D03*
X0029450Y0017100D03*
X0029450Y0017000D03*
X0029450Y0016900D03*
X0026450Y0017600D03*
X0026350Y0017100D03*
X0026350Y0017000D03*
X0024250Y0018100D03*
X0021750Y0018300D03*
X0020350Y0019400D03*
X0021150Y0020300D03*
X0021050Y0020400D03*
X0020850Y0020500D03*
X0020750Y0020600D03*
X0020450Y0020800D03*
X0020350Y0020900D03*
X0020250Y0021000D03*
X0021450Y0020100D03*
X0018250Y0020100D03*
X0018150Y0020200D03*
X0027050Y0021300D03*
X0027050Y0021400D03*
X0028150Y0021400D03*
X0028150Y0021500D03*
X0028150Y0021600D03*
X0028150Y0021300D03*
X0029250Y0021300D03*
X0029250Y0021400D03*
X0029250Y0021500D03*
X0029150Y0023400D03*
X0022550Y0033300D03*
X0023850Y0043300D03*
X0023850Y0043400D03*
X0027050Y0044400D03*
X0027750Y0043400D03*
X0028350Y0044700D03*
D36*
X0022150Y0043700D03*
X0018050Y0034100D03*
X0018050Y0034000D03*
X0018050Y0020900D03*
X0021850Y0017800D03*
X0030750Y0021900D03*
X0033150Y0017000D03*
X0036150Y0023000D03*
X0037450Y0024800D03*
X0038550Y0027500D03*
X0038950Y0030200D03*
X0038950Y0030300D03*
X0038950Y0030400D03*
D37*
X0031000Y0035700D03*
X0031700Y0037000D03*
X0029000Y0024300D03*
X0029000Y0024200D03*
X0036200Y0020600D03*
X0037200Y0019400D03*
X0035900Y0018400D03*
X0034000Y0017300D03*
X0033800Y0017200D03*
X0038600Y0020800D03*
X0023000Y0017100D03*
X0022700Y0017200D03*
X0022100Y0017500D03*
X0018900Y0019800D03*
D38*
X0018050Y0020700D03*
X0021150Y0018100D03*
X0022550Y0017300D03*
X0022650Y0019300D03*
X0024850Y0018600D03*
X0026750Y0025100D03*
X0032150Y0018700D03*
X0036550Y0018900D03*
X0032150Y0043900D03*
D39*
X0025750Y0043700D03*
X0025750Y0043600D03*
X0024950Y0042700D03*
X0022750Y0033400D03*
X0029050Y0024100D03*
X0029050Y0024000D03*
X0032350Y0018800D03*
X0033050Y0019000D03*
X0035850Y0018300D03*
X0036550Y0018800D03*
X0038150Y0020200D03*
X0038250Y0020300D03*
X0039050Y0028300D03*
X0039050Y0028500D03*
X0023850Y0018900D03*
X0022550Y0019400D03*
X0022250Y0017400D03*
X0020350Y0018600D03*
X0018050Y0020600D03*
D40*
X0018900Y0019600D03*
X0019300Y0020100D03*
X0019900Y0018800D03*
X0020600Y0018300D03*
X0022000Y0018700D03*
X0022300Y0019000D03*
X0022300Y0019600D03*
X0021500Y0020000D03*
X0029400Y0017600D03*
X0029400Y0017500D03*
X0029400Y0017400D03*
X0033400Y0019200D03*
X0034300Y0018300D03*
X0035300Y0017900D03*
X0035500Y0018000D03*
X0029100Y0023700D03*
X0029100Y0023800D03*
X0017900Y0034900D03*
X0018100Y0035400D03*
X0018100Y0035500D03*
X0018200Y0035700D03*
X0032100Y0043000D03*
X0032200Y0043100D03*
X0032300Y0043400D03*
X0032300Y0043500D03*
D41*
X0031700Y0042700D03*
X0027500Y0036600D03*
X0022800Y0033500D03*
X0018000Y0034400D03*
X0018000Y0034500D03*
X0022600Y0044000D03*
X0022800Y0044100D03*
X0039000Y0029000D03*
X0039000Y0028900D03*
X0038700Y0027600D03*
X0032900Y0018900D03*
X0034100Y0017400D03*
X0024000Y0018800D03*
X0022000Y0017600D03*
X0018900Y0019900D03*
D42*
X0018900Y0019700D03*
X0020400Y0018500D03*
X0021200Y0018000D03*
X0023600Y0019000D03*
X0029400Y0017800D03*
X0034700Y0017600D03*
X0034900Y0017700D03*
X0035100Y0017800D03*
X0034800Y0018800D03*
X0034700Y0018900D03*
X0036200Y0020700D03*
X0037200Y0019300D03*
X0038100Y0020100D03*
X0039100Y0028400D03*
X0025300Y0035600D03*
X0018100Y0035200D03*
X0018100Y0035100D03*
X0017900Y0034700D03*
X0017900Y0034600D03*
X0025800Y0043500D03*
X0025700Y0043800D03*
X0025700Y0043900D03*
X0025700Y0044000D03*
X0025700Y0044100D03*
D43*
X0025750Y0044200D03*
X0024650Y0042600D03*
X0024750Y0036900D03*
X0018150Y0035300D03*
X0017950Y0035000D03*
X0017950Y0034800D03*
X0029050Y0023900D03*
X0030250Y0022000D03*
X0033250Y0019100D03*
X0034250Y0018400D03*
X0034750Y0019000D03*
X0035650Y0018100D03*
X0035750Y0018200D03*
X0036450Y0018700D03*
X0037150Y0019200D03*
X0038050Y0020000D03*
X0038650Y0020700D03*
X0036250Y0020800D03*
X0029350Y0017700D03*
X0022450Y0019500D03*
X0022150Y0018900D03*
X0022050Y0018800D03*
X0021250Y0017900D03*
X0020450Y0018400D03*
X0019850Y0018900D03*
X0018050Y0020500D03*
X0031650Y0035800D03*
X0031950Y0042600D03*
X0032050Y0043800D03*
D44*
X0034800Y0042900D03*
X0037300Y0040700D03*
X0037400Y0040600D03*
X0037500Y0040500D03*
X0036700Y0036400D03*
X0038100Y0031900D03*
X0028300Y0018000D03*
X0018600Y0028600D03*
X0018500Y0028800D03*
X0018900Y0040400D03*
X0019000Y0040500D03*
D45*
X0022100Y0042500D03*
X0034900Y0037700D03*
X0020500Y0025500D03*
X0020400Y0025600D03*
X0028200Y0018100D03*
X0032800Y0021400D03*
D46*
X0033850Y0019400D03*
X0034050Y0019500D03*
X0034250Y0019600D03*
X0033650Y0019300D03*
X0032450Y0018200D03*
X0036250Y0018500D03*
X0036450Y0018600D03*
X0038050Y0019900D03*
X0029150Y0023600D03*
X0022150Y0019700D03*
X0021950Y0019800D03*
X0021950Y0018600D03*
X0021850Y0018500D03*
X0020550Y0020700D03*
X0019550Y0019000D03*
X0019950Y0018700D03*
X0018950Y0019500D03*
X0018050Y0020400D03*
X0027250Y0033300D03*
X0028950Y0033300D03*
X0032150Y0042500D03*
X0032250Y0043200D03*
X0032250Y0043300D03*
X0032050Y0043700D03*
X0030950Y0043400D03*
X0018150Y0035600D03*
D47*
X0028250Y0041700D03*
X0028250Y0019600D03*
X0028950Y0018300D03*
D48*
X0031900Y0018600D03*
X0036500Y0023500D03*
X0036600Y0023600D03*
X0037100Y0024300D03*
X0037200Y0024400D03*
X0037200Y0024500D03*
X0037900Y0025800D03*
X0038200Y0026400D03*
X0038200Y0026500D03*
X0038200Y0026600D03*
X0038400Y0027100D03*
X0038400Y0027200D03*
X0038500Y0027400D03*
X0038900Y0030100D03*
X0038900Y0030500D03*
X0038900Y0030600D03*
X0038900Y0031200D03*
X0038900Y0031300D03*
X0038500Y0021000D03*
X0028100Y0033200D03*
X0025700Y0036800D03*
X0022100Y0043600D03*
X0024000Y0044500D03*
X0034300Y0043700D03*
X0018100Y0033900D03*
X0018100Y0021000D03*
X0022900Y0019100D03*
X0024200Y0018700D03*
D49*
X0028300Y0019000D03*
X0034900Y0022100D03*
X0035000Y0022200D03*
X0035100Y0022300D03*
X0039800Y0023500D03*
X0039900Y0023700D03*
X0040000Y0023800D03*
X0040000Y0023900D03*
X0040100Y0024000D03*
X0040200Y0024200D03*
X0040300Y0024400D03*
X0038500Y0031500D03*
X0037600Y0035200D03*
X0037600Y0035300D03*
X0037600Y0035400D03*
X0037300Y0036000D03*
X0040000Y0037400D03*
X0040000Y0037500D03*
X0039900Y0037600D03*
X0039800Y0037800D03*
X0040100Y0037300D03*
X0040200Y0037100D03*
X0040300Y0036900D03*
X0034600Y0043300D03*
X0028300Y0042300D03*
X0023100Y0033800D03*
X0018200Y0032800D03*
X0018200Y0032700D03*
X0018200Y0032600D03*
X0016200Y0036800D03*
X0016300Y0037000D03*
X0016400Y0037200D03*
X0016500Y0037300D03*
X0016500Y0037400D03*
X0016600Y0037500D03*
X0016700Y0037700D03*
X0016200Y0024500D03*
X0016300Y0024300D03*
X0016400Y0024100D03*
X0016500Y0024000D03*
X0016500Y0023900D03*
X0016600Y0023800D03*
X0016700Y0023600D03*
D50*
X0018850Y0028400D03*
X0018650Y0030500D03*
X0018650Y0031400D03*
X0018650Y0031500D03*
X0018650Y0031600D03*
X0022950Y0034100D03*
X0020150Y0041400D03*
X0021550Y0042600D03*
X0028050Y0043200D03*
X0028250Y0042200D03*
X0034950Y0042600D03*
X0036250Y0041500D03*
X0036450Y0041400D03*
X0036550Y0041300D03*
X0034150Y0022000D03*
X0028250Y0019100D03*
X0023850Y0020900D03*
D51*
X0023650Y0021400D03*
X0028250Y0019200D03*
X0032750Y0021300D03*
X0022250Y0034800D03*
X0022150Y0034900D03*
X0022050Y0035000D03*
X0021950Y0035100D03*
X0021850Y0035300D03*
X0021350Y0037500D03*
X0021450Y0037600D03*
X0021450Y0037700D03*
X0021650Y0042300D03*
X0028250Y0042100D03*
X0031550Y0040800D03*
X0034650Y0038200D03*
X0035250Y0037400D03*
X0027750Y0035500D03*
D52*
X0028250Y0042000D03*
X0021050Y0036400D03*
X0020850Y0025300D03*
X0028250Y0019300D03*
X0032850Y0021700D03*
D53*
X0028300Y0019400D03*
X0023400Y0022300D03*
X0028300Y0041900D03*
D54*
X0028250Y0041800D03*
X0023350Y0022700D03*
X0028250Y0019500D03*
D55*
X0028300Y0019700D03*
X0028300Y0041600D03*
D56*
X0028250Y0041500D03*
X0023250Y0023800D03*
X0028250Y0019800D03*
D57*
X0028300Y0019900D03*
X0028300Y0041400D03*
D58*
X0028300Y0041300D03*
X0028300Y0020000D03*
D59*
X0028300Y0020100D03*
X0028300Y0041200D03*
D60*
X0028300Y0041100D03*
X0028300Y0020200D03*
D61*
X0028300Y0020300D03*
X0028300Y0041000D03*
D62*
X0028300Y0040900D03*
X0028300Y0020400D03*
D63*
X0028250Y0020500D03*
D64*
X0028250Y0020600D03*
D65*
X0028300Y0020700D03*
D66*
X0023900Y0020800D03*
X0018700Y0029400D03*
X0018600Y0029700D03*
X0018600Y0029800D03*
X0018600Y0029900D03*
X0018600Y0030000D03*
X0018600Y0030100D03*
X0018600Y0030400D03*
X0018700Y0031700D03*
X0020000Y0041300D03*
X0034900Y0042700D03*
X0036700Y0041200D03*
X0036300Y0036600D03*
X0034100Y0021900D03*
D67*
X0030350Y0020800D03*
X0023250Y0023500D03*
D68*
X0019600Y0026300D03*
X0019600Y0026400D03*
X0019600Y0026500D03*
X0019100Y0027900D03*
X0019100Y0028000D03*
X0019100Y0028200D03*
X0019000Y0028300D03*
X0018800Y0030900D03*
X0018800Y0031000D03*
X0022200Y0038900D03*
X0022300Y0039000D03*
X0022400Y0039100D03*
X0024100Y0040500D03*
X0024300Y0040600D03*
X0020600Y0041700D03*
X0035800Y0041800D03*
X0032600Y0020900D03*
D69*
X0023750Y0021000D03*
X0019150Y0027700D03*
X0019150Y0027800D03*
X0018750Y0030700D03*
X0018750Y0030800D03*
X0022450Y0039200D03*
X0022550Y0039300D03*
X0022650Y0039400D03*
X0022750Y0039500D03*
X0022850Y0039600D03*
X0022950Y0039700D03*
X0023450Y0040100D03*
X0023750Y0040300D03*
X0023950Y0040400D03*
X0020450Y0041600D03*
X0035050Y0042500D03*
X0035950Y0041700D03*
X0036150Y0036700D03*
D70*
X0033050Y0040000D03*
X0035650Y0041900D03*
X0027650Y0036700D03*
X0022150Y0038800D03*
X0022050Y0038700D03*
X0020750Y0041800D03*
X0018850Y0031300D03*
X0018850Y0031200D03*
X0019150Y0028100D03*
X0019550Y0026700D03*
X0019550Y0026600D03*
X0023750Y0021100D03*
X0032650Y0021000D03*
D71*
X0032700Y0021100D03*
X0023700Y0021200D03*
X0021600Y0038000D03*
X0021700Y0038200D03*
X0024800Y0040800D03*
X0032100Y0040600D03*
X0034000Y0039100D03*
X0034100Y0039000D03*
X0034200Y0038900D03*
X0035500Y0037300D03*
X0035300Y0042100D03*
X0035100Y0042200D03*
D72*
X0034900Y0042300D03*
X0034400Y0038600D03*
X0034500Y0038500D03*
X0034500Y0038400D03*
X0034600Y0038300D03*
X0035700Y0036900D03*
X0021500Y0037800D03*
X0032700Y0021200D03*
D73*
X0023650Y0021300D03*
X0022350Y0034700D03*
X0021550Y0037900D03*
X0021650Y0038100D03*
X0021450Y0042200D03*
X0028250Y0043100D03*
X0031850Y0040700D03*
X0034250Y0038800D03*
X0034350Y0038700D03*
X0035550Y0037200D03*
X0035550Y0037100D03*
X0035650Y0037000D03*
X0035750Y0036800D03*
D74*
X0036900Y0036200D03*
X0038000Y0040000D03*
X0022800Y0034000D03*
X0018400Y0032100D03*
X0018400Y0039900D03*
X0018500Y0040000D03*
X0018600Y0040100D03*
X0018700Y0040200D03*
X0021600Y0042900D03*
X0018300Y0021500D03*
X0018400Y0021400D03*
X0038000Y0021300D03*
D75*
X0023650Y0021500D03*
X0020350Y0025700D03*
X0021650Y0035600D03*
X0021250Y0037200D03*
X0034850Y0037800D03*
X0034850Y0037900D03*
D76*
X0034950Y0037600D03*
X0021150Y0036900D03*
X0023550Y0021600D03*
X0032850Y0021500D03*
D77*
X0032850Y0021600D03*
X0023550Y0021700D03*
X0020650Y0025400D03*
X0021050Y0036600D03*
X0021350Y0037100D03*
D78*
X0023150Y0033700D03*
X0016350Y0037100D03*
X0016250Y0036900D03*
X0016150Y0036700D03*
X0016050Y0036600D03*
X0016050Y0036500D03*
X0015950Y0036300D03*
X0015850Y0036100D03*
X0021750Y0043200D03*
X0037350Y0035900D03*
X0037450Y0035800D03*
X0037550Y0035600D03*
X0037550Y0035500D03*
X0040350Y0036800D03*
X0040450Y0036700D03*
X0040450Y0036600D03*
X0040550Y0036500D03*
X0040550Y0036400D03*
X0040650Y0036200D03*
X0040750Y0036000D03*
X0040250Y0037000D03*
X0040150Y0037200D03*
X0038550Y0031400D03*
X0040750Y0025300D03*
X0040650Y0025100D03*
X0040550Y0024900D03*
X0040550Y0024800D03*
X0040450Y0024700D03*
X0040450Y0024600D03*
X0040350Y0024500D03*
X0040250Y0024300D03*
X0040150Y0024100D03*
X0028150Y0021700D03*
X0016350Y0024200D03*
X0016250Y0024400D03*
X0016150Y0024600D03*
X0016050Y0024700D03*
X0016050Y0024800D03*
X0015950Y0025000D03*
X0015850Y0025200D03*
D79*
X0023500Y0021900D03*
X0032900Y0021800D03*
X0021000Y0036200D03*
X0021000Y0036300D03*
D80*
X0018500Y0033100D03*
X0017700Y0039100D03*
X0017800Y0039200D03*
X0017900Y0039300D03*
X0027600Y0035400D03*
X0034700Y0043100D03*
X0038500Y0039500D03*
X0038600Y0039400D03*
X0038700Y0039300D03*
X0038100Y0032900D03*
X0038100Y0032800D03*
X0038200Y0032600D03*
X0038200Y0032500D03*
X0038200Y0032400D03*
X0038700Y0022000D03*
X0038600Y0021900D03*
X0038500Y0021800D03*
X0017900Y0022000D03*
X0017800Y0022100D03*
X0017700Y0022200D03*
X0028300Y0045400D03*
D81*
X0022100Y0035700D03*
X0021000Y0036000D03*
X0021000Y0036100D03*
X0021100Y0025100D03*
X0023500Y0022000D03*
D82*
X0023450Y0022100D03*
D83*
X0023450Y0022200D03*
X0021050Y0035900D03*
D84*
X0023400Y0022400D03*
D85*
X0023400Y0022500D03*
D86*
X0026200Y0025000D03*
X0017400Y0022600D03*
X0017300Y0022700D03*
X0017200Y0022800D03*
X0017100Y0023000D03*
X0018200Y0032300D03*
X0018200Y0032400D03*
X0018200Y0032500D03*
X0018300Y0033000D03*
X0018400Y0033300D03*
X0017100Y0038300D03*
X0017200Y0038400D03*
X0017200Y0038500D03*
X0017300Y0038600D03*
X0017400Y0038700D03*
X0021700Y0043100D03*
X0025300Y0044800D03*
X0031500Y0044700D03*
X0034600Y0043200D03*
X0039100Y0038800D03*
X0039200Y0038600D03*
X0039300Y0038500D03*
X0039400Y0038400D03*
X0039600Y0038100D03*
X0037700Y0034900D03*
X0037700Y0034800D03*
X0037700Y0034700D03*
X0037800Y0034400D03*
X0037900Y0034200D03*
X0037900Y0034100D03*
X0038000Y0033800D03*
X0038000Y0033700D03*
X0038100Y0033500D03*
X0038100Y0033400D03*
X0038100Y0033300D03*
X0039600Y0023200D03*
X0039400Y0022900D03*
X0039300Y0022800D03*
X0039200Y0022700D03*
X0039100Y0022500D03*
D87*
X0023350Y0022600D03*
D88*
X0015100Y0027400D03*
X0015000Y0027800D03*
X0015000Y0027900D03*
X0014900Y0028300D03*
X0014900Y0028400D03*
X0014900Y0028500D03*
X0014800Y0028800D03*
X0014800Y0028900D03*
X0014800Y0029000D03*
X0014800Y0029100D03*
X0014800Y0029200D03*
X0014800Y0029300D03*
X0014800Y0029400D03*
X0014800Y0029500D03*
X0014700Y0029700D03*
X0014700Y0029800D03*
X0014700Y0029900D03*
X0014700Y0030000D03*
X0014700Y0030100D03*
X0014700Y0030200D03*
X0014700Y0030300D03*
X0014700Y0030400D03*
X0014700Y0030500D03*
X0014700Y0030600D03*
X0014700Y0030700D03*
X0014700Y0030800D03*
X0014700Y0030900D03*
X0014700Y0031000D03*
X0014700Y0031100D03*
X0014700Y0031200D03*
X0014700Y0031300D03*
X0014700Y0031400D03*
X0014700Y0031500D03*
X0014700Y0031600D03*
X0014800Y0031800D03*
X0014800Y0031900D03*
X0014800Y0032000D03*
X0014800Y0032100D03*
X0014800Y0032200D03*
X0014800Y0032300D03*
X0014800Y0032400D03*
X0014800Y0032500D03*
X0014900Y0032800D03*
X0014900Y0032900D03*
X0014900Y0033000D03*
X0015000Y0033400D03*
X0015000Y0033500D03*
X0015100Y0033900D03*
X0023100Y0033600D03*
X0021900Y0043400D03*
X0023500Y0044200D03*
X0033100Y0044200D03*
X0041500Y0033700D03*
X0041600Y0033300D03*
X0041600Y0033200D03*
X0041600Y0033100D03*
X0041700Y0032800D03*
X0041700Y0032700D03*
X0041700Y0032600D03*
X0041700Y0032500D03*
X0041700Y0032400D03*
X0041800Y0032100D03*
X0041800Y0032000D03*
X0041800Y0031900D03*
X0041800Y0031800D03*
X0041800Y0031700D03*
X0041800Y0031600D03*
X0041800Y0031500D03*
X0041800Y0031400D03*
X0041800Y0031300D03*
X0041800Y0031200D03*
X0041800Y0031100D03*
X0041800Y0031000D03*
X0041800Y0030900D03*
X0041800Y0030800D03*
X0041800Y0030700D03*
X0041800Y0030600D03*
X0041800Y0030500D03*
X0041800Y0030400D03*
X0041800Y0030300D03*
X0041800Y0030200D03*
X0041800Y0030100D03*
X0041800Y0030000D03*
X0041800Y0029900D03*
X0041800Y0029800D03*
X0041800Y0029700D03*
X0041800Y0029600D03*
X0041800Y0029500D03*
X0041800Y0029400D03*
X0041800Y0029300D03*
X0041800Y0029200D03*
X0041700Y0028900D03*
X0041700Y0028800D03*
X0041700Y0028700D03*
X0041700Y0028600D03*
X0041700Y0028500D03*
X0041600Y0028200D03*
X0041600Y0028100D03*
X0041600Y0028000D03*
X0041500Y0027600D03*
X0037600Y0025500D03*
X0036800Y0024100D03*
X0036600Y0023900D03*
X0035800Y0022800D03*
X0035700Y0022700D03*
X0035600Y0022600D03*
D89*
X0023300Y0022900D03*
D90*
X0023300Y0023000D03*
D91*
X0023300Y0023100D03*
D92*
X0023250Y0023200D03*
D93*
X0023300Y0023300D03*
X0028300Y0044900D03*
D94*
X0023250Y0023400D03*
D95*
X0023250Y0023600D03*
X0023250Y0023700D03*
D96*
X0023250Y0023900D03*
D97*
X0023200Y0024000D03*
D98*
X0023250Y0024100D03*
D99*
X0023250Y0024200D03*
X0023250Y0024300D03*
D100*
X0023900Y0024600D03*
X0024000Y0024400D03*
D101*
X0023950Y0024500D03*
D102*
X0023400Y0024700D03*
D103*
X0023200Y0024800D03*
D104*
X0023150Y0024900D03*
D105*
X0021200Y0025000D03*
X0027800Y0043000D03*
D106*
X0021550Y0037000D03*
X0020950Y0025200D03*
D107*
X0019900Y0025800D03*
X0019900Y0025900D03*
X0019900Y0026000D03*
X0019500Y0026800D03*
X0019500Y0026900D03*
X0019500Y0027000D03*
X0019400Y0027400D03*
X0018900Y0031100D03*
X0022700Y0034500D03*
X0022800Y0034400D03*
X0023100Y0034200D03*
X0021900Y0038500D03*
X0022000Y0038600D03*
X0024500Y0040700D03*
X0021100Y0042000D03*
X0020900Y0041900D03*
X0032600Y0040300D03*
X0032800Y0040200D03*
X0032900Y0040100D03*
X0033200Y0039900D03*
X0033300Y0039800D03*
X0033400Y0039700D03*
X0033500Y0039600D03*
X0033600Y0039500D03*
X0035500Y0042000D03*
D108*
X0037100Y0040900D03*
X0036500Y0036500D03*
X0019600Y0041000D03*
X0019500Y0040900D03*
X0018700Y0028500D03*
D109*
X0018550Y0028700D03*
X0018450Y0028900D03*
X0018450Y0029000D03*
X0018450Y0029100D03*
X0018450Y0029200D03*
X0018450Y0029300D03*
X0018850Y0040300D03*
X0021550Y0042800D03*
X0030950Y0044800D03*
X0032950Y0044000D03*
X0034750Y0043000D03*
X0037650Y0040400D03*
X0037750Y0040300D03*
X0037850Y0040200D03*
X0037950Y0040100D03*
X0036750Y0036300D03*
X0038150Y0032100D03*
X0038150Y0032000D03*
D110*
X0036950Y0041000D03*
X0036850Y0041100D03*
X0019850Y0041200D03*
X0019750Y0041100D03*
X0018650Y0032000D03*
X0018650Y0031900D03*
X0018650Y0031800D03*
X0018550Y0030300D03*
X0018550Y0030200D03*
X0018650Y0029600D03*
X0018650Y0029500D03*
D111*
X0018700Y0030600D03*
X0023100Y0039800D03*
X0023200Y0039900D03*
X0023300Y0040000D03*
X0023600Y0040200D03*
X0020300Y0041500D03*
X0036100Y0041600D03*
D112*
X0034700Y0042400D03*
X0034700Y0038100D03*
X0034800Y0038000D03*
X0035200Y0037500D03*
X0021900Y0035200D03*
X0021800Y0035400D03*
X0021700Y0035500D03*
X0021300Y0037300D03*
X0021300Y0037400D03*
X0021900Y0042400D03*
D113*
X0021250Y0035800D03*
D114*
X0021100Y0036700D03*
X0021100Y0036800D03*
D115*
X0019150Y0040600D03*
X0019250Y0040700D03*
X0019350Y0040800D03*
X0021550Y0042700D03*
X0034850Y0042800D03*
X0037150Y0040800D03*
D116*
X0060846Y0033147D02*
X0065350Y0033147D01*
X0065350Y0031646D02*
X0065350Y0034649D01*
X0062347Y0031646D02*
X0060846Y0033147D01*
X0061597Y0030045D02*
X0060846Y0029294D01*
X0060846Y0027042D01*
X0065350Y0027042D01*
X0065350Y0029294D01*
X0064599Y0030045D01*
X0061597Y0030045D01*
X0060846Y0025441D02*
X0060846Y0022438D01*
X0065350Y0022438D01*
X0065350Y0025441D01*
X0063098Y0023939D02*
X0063098Y0022438D01*
X0065350Y0020837D02*
X0065350Y0017834D01*
X0060846Y0017834D01*
X0095846Y0017834D02*
X0100350Y0017834D01*
X0100350Y0020837D01*
X0100350Y0022438D02*
X0100350Y0025441D01*
X0100350Y0027042D02*
X0100350Y0029294D01*
X0099599Y0030045D01*
X0096597Y0030045D01*
X0095846Y0029294D01*
X0095846Y0027042D01*
X0100350Y0027042D01*
X0098098Y0023939D02*
X0098098Y0022438D01*
X0095846Y0022438D02*
X0100350Y0022438D01*
X0095846Y0022438D02*
X0095846Y0025441D01*
X0096597Y0031646D02*
X0095846Y0032397D01*
X0095846Y0033898D01*
X0096597Y0034649D01*
X0097347Y0034649D01*
X0100350Y0031646D01*
X0100350Y0034649D01*
X0130846Y0033898D02*
X0130846Y0032397D01*
X0131597Y0031646D01*
X0131597Y0030045D02*
X0130846Y0029294D01*
X0130846Y0027042D01*
X0135350Y0027042D01*
X0135350Y0029294D01*
X0134599Y0030045D01*
X0131597Y0030045D01*
X0134599Y0031646D02*
X0135350Y0032397D01*
X0135350Y0033898D01*
X0134599Y0034649D01*
X0133849Y0034649D01*
X0133098Y0033898D01*
X0133098Y0033147D01*
X0133098Y0033898D02*
X0132347Y0034649D01*
X0131597Y0034649D01*
X0130846Y0033898D01*
X0130846Y0025441D02*
X0130846Y0022438D01*
X0135350Y0022438D01*
X0135350Y0025441D01*
X0133098Y0023939D02*
X0133098Y0022438D01*
X0135350Y0020837D02*
X0135350Y0017834D01*
X0130846Y0017834D01*
X0118150Y0074750D02*
X0113646Y0074750D01*
X0113646Y0077002D01*
X0114397Y0077753D01*
X0115898Y0077753D01*
X0116649Y0077002D01*
X0116649Y0074750D01*
X0116649Y0076251D02*
X0118150Y0077753D01*
X0117399Y0079354D02*
X0118150Y0080105D01*
X0118150Y0081606D01*
X0117399Y0082356D01*
X0116649Y0082356D01*
X0115898Y0081606D01*
X0115898Y0080855D01*
X0115898Y0081606D02*
X0115147Y0082356D01*
X0114397Y0082356D01*
X0113646Y0081606D01*
X0113646Y0080105D01*
X0114397Y0079354D01*
X0083150Y0079354D02*
X0080147Y0082356D01*
X0079397Y0082356D01*
X0078646Y0081606D01*
X0078646Y0080105D01*
X0079397Y0079354D01*
X0079397Y0077753D02*
X0080898Y0077753D01*
X0081649Y0077002D01*
X0081649Y0074750D01*
X0083150Y0074750D02*
X0078646Y0074750D01*
X0078646Y0077002D01*
X0079397Y0077753D01*
X0081649Y0076251D02*
X0083150Y0077753D01*
X0083150Y0079354D02*
X0083150Y0082356D01*
X0048150Y0082356D02*
X0048150Y0079354D01*
X0048150Y0080855D02*
X0043646Y0080855D01*
X0045147Y0079354D01*
X0044397Y0077753D02*
X0045898Y0077753D01*
X0046649Y0077002D01*
X0046649Y0074750D01*
X0048150Y0074750D02*
X0043646Y0074750D01*
X0043646Y0077002D01*
X0044397Y0077753D01*
X0046649Y0076251D02*
X0048150Y0077753D01*
D117*
X0058500Y0073700D03*
X0093500Y0073700D03*
X0128500Y0073700D03*
X0128500Y0123300D03*
X0093500Y0123300D03*
X0058500Y0123300D03*
D118*
X0051000Y0038500D02*
X0066000Y0038500D01*
X0086000Y0038500D02*
X0101000Y0038500D01*
X0121000Y0038500D02*
X0136000Y0038500D01*
D119*
X0136243Y0038687D01*
X0136481Y0038879D01*
X0136714Y0039078D01*
X0136942Y0039282D01*
X0137165Y0039491D01*
X0137383Y0039706D01*
X0137596Y0039926D01*
X0137803Y0040151D01*
X0138005Y0040382D01*
X0138201Y0040617D01*
X0138391Y0040857D01*
X0138575Y0041101D01*
X0138753Y0041350D01*
X0138925Y0041604D01*
X0139091Y0041861D01*
X0139251Y0042122D01*
X0139404Y0042387D01*
X0139550Y0042656D01*
X0139690Y0042929D01*
X0139823Y0043204D01*
X0139949Y0043483D01*
X0140069Y0043765D01*
X0140181Y0044050D01*
X0140286Y0044337D01*
X0140385Y0044627D01*
X0140476Y0044919D01*
X0140560Y0045214D01*
X0140637Y0045510D01*
X0140707Y0045808D01*
X0140769Y0046108D01*
X0140824Y0046409D01*
X0140871Y0046711D01*
X0140911Y0047015D01*
X0140944Y0047319D01*
X0140969Y0047624D01*
X0140987Y0047930D01*
X0140997Y0048236D01*
X0141000Y0048542D01*
X0140995Y0048848D01*
X0140983Y0049154D01*
X0140963Y0049460D01*
X0140936Y0049764D01*
X0140901Y0050069D01*
X0140859Y0050372D01*
X0140810Y0050674D01*
X0140753Y0050975D01*
X0140688Y0051274D01*
X0140617Y0051572D01*
X0140538Y0051867D01*
X0140452Y0052161D01*
X0140359Y0052453D01*
X0140258Y0052742D01*
X0140151Y0053029D01*
X0140036Y0053313D01*
X0139915Y0053594D01*
X0139787Y0053872D01*
X0139652Y0054147D01*
X0139510Y0054418D01*
X0139362Y0054686D01*
X0139207Y0054950D01*
X0139046Y0055210D01*
X0138879Y0055466D01*
X0138705Y0055719D01*
X0138525Y0055966D01*
X0138339Y0056210D01*
X0138148Y0056448D01*
X0137950Y0056682D01*
X0137747Y0056911D01*
X0137538Y0057135D01*
X0137324Y0057354D01*
X0137104Y0057567D01*
X0136880Y0057775D01*
X0136650Y0057978D01*
X0136416Y0058174D01*
X0136176Y0058365D01*
X0135933Y0058550D01*
X0135684Y0058729D01*
X0135432Y0058902D01*
X0135175Y0059069D01*
X0134914Y0059229D01*
X0134649Y0059383D01*
X0134381Y0059530D01*
X0134109Y0059671D01*
X0133834Y0059805D01*
X0133555Y0059932D01*
X0133274Y0060053D01*
X0132989Y0060166D01*
X0132702Y0060272D01*
X0132413Y0060372D01*
X0132121Y0060464D01*
X0131827Y0060549D01*
X0131531Y0060627D01*
X0131233Y0060698D01*
X0130933Y0060761D01*
X0130632Y0060817D01*
X0130330Y0060865D01*
X0130027Y0060906D01*
X0129723Y0060940D01*
X0129418Y0060966D01*
X0129112Y0060985D01*
X0128806Y0060996D01*
X0128500Y0061000D01*
X0128194Y0060996D01*
X0127888Y0060985D01*
X0127582Y0060966D01*
X0127277Y0060940D01*
X0126973Y0060906D01*
X0126670Y0060865D01*
X0126368Y0060817D01*
X0126067Y0060761D01*
X0125767Y0060698D01*
X0125469Y0060627D01*
X0125173Y0060549D01*
X0124879Y0060464D01*
X0124587Y0060372D01*
X0124298Y0060272D01*
X0124011Y0060166D01*
X0123726Y0060053D01*
X0123445Y0059932D01*
X0123166Y0059805D01*
X0122891Y0059671D01*
X0122619Y0059530D01*
X0122351Y0059383D01*
X0122086Y0059229D01*
X0121825Y0059069D01*
X0121568Y0058902D01*
X0121316Y0058729D01*
X0121067Y0058550D01*
X0120824Y0058365D01*
X0120584Y0058174D01*
X0120350Y0057978D01*
X0120120Y0057775D01*
X0119896Y0057567D01*
X0119676Y0057354D01*
X0119462Y0057135D01*
X0119253Y0056911D01*
X0119050Y0056682D01*
X0118852Y0056448D01*
X0118661Y0056210D01*
X0118475Y0055966D01*
X0118295Y0055719D01*
X0118121Y0055466D01*
X0117954Y0055210D01*
X0117793Y0054950D01*
X0117638Y0054686D01*
X0117490Y0054418D01*
X0117348Y0054147D01*
X0117213Y0053872D01*
X0117085Y0053594D01*
X0116964Y0053313D01*
X0116849Y0053029D01*
X0116742Y0052742D01*
X0116641Y0052453D01*
X0116548Y0052161D01*
X0116462Y0051867D01*
X0116383Y0051572D01*
X0116312Y0051274D01*
X0116247Y0050975D01*
X0116190Y0050674D01*
X0116141Y0050372D01*
X0116099Y0050069D01*
X0116064Y0049764D01*
X0116037Y0049460D01*
X0116017Y0049154D01*
X0116005Y0048848D01*
X0116000Y0048542D01*
X0116003Y0048236D01*
X0116013Y0047930D01*
X0116031Y0047624D01*
X0116056Y0047319D01*
X0116089Y0047015D01*
X0116129Y0046711D01*
X0116176Y0046409D01*
X0116231Y0046108D01*
X0116293Y0045808D01*
X0116363Y0045510D01*
X0116440Y0045214D01*
X0116524Y0044919D01*
X0116615Y0044627D01*
X0116714Y0044337D01*
X0116819Y0044050D01*
X0116931Y0043765D01*
X0117051Y0043483D01*
X0117177Y0043204D01*
X0117310Y0042929D01*
X0117450Y0042656D01*
X0117596Y0042387D01*
X0117749Y0042122D01*
X0117909Y0041861D01*
X0118075Y0041604D01*
X0118247Y0041350D01*
X0118425Y0041101D01*
X0118609Y0040857D01*
X0118799Y0040617D01*
X0118995Y0040382D01*
X0119197Y0040151D01*
X0119404Y0039926D01*
X0119617Y0039706D01*
X0119835Y0039491D01*
X0120058Y0039282D01*
X0120286Y0039078D01*
X0120519Y0038879D01*
X0120757Y0038687D01*
X0121000Y0038500D01*
X0101000Y0038500D02*
X0101243Y0038687D01*
X0101481Y0038879D01*
X0101714Y0039078D01*
X0101942Y0039282D01*
X0102165Y0039491D01*
X0102383Y0039706D01*
X0102596Y0039926D01*
X0102803Y0040151D01*
X0103005Y0040382D01*
X0103201Y0040617D01*
X0103391Y0040857D01*
X0103575Y0041101D01*
X0103753Y0041350D01*
X0103925Y0041604D01*
X0104091Y0041861D01*
X0104251Y0042122D01*
X0104404Y0042387D01*
X0104550Y0042656D01*
X0104690Y0042929D01*
X0104823Y0043204D01*
X0104949Y0043483D01*
X0105069Y0043765D01*
X0105181Y0044050D01*
X0105286Y0044337D01*
X0105385Y0044627D01*
X0105476Y0044919D01*
X0105560Y0045214D01*
X0105637Y0045510D01*
X0105707Y0045808D01*
X0105769Y0046108D01*
X0105824Y0046409D01*
X0105871Y0046711D01*
X0105911Y0047015D01*
X0105944Y0047319D01*
X0105969Y0047624D01*
X0105987Y0047930D01*
X0105997Y0048236D01*
X0106000Y0048542D01*
X0105995Y0048848D01*
X0105983Y0049154D01*
X0105963Y0049460D01*
X0105936Y0049764D01*
X0105901Y0050069D01*
X0105859Y0050372D01*
X0105810Y0050674D01*
X0105753Y0050975D01*
X0105688Y0051274D01*
X0105617Y0051572D01*
X0105538Y0051867D01*
X0105452Y0052161D01*
X0105359Y0052453D01*
X0105258Y0052742D01*
X0105151Y0053029D01*
X0105036Y0053313D01*
X0104915Y0053594D01*
X0104787Y0053872D01*
X0104652Y0054147D01*
X0104510Y0054418D01*
X0104362Y0054686D01*
X0104207Y0054950D01*
X0104046Y0055210D01*
X0103879Y0055466D01*
X0103705Y0055719D01*
X0103525Y0055966D01*
X0103339Y0056210D01*
X0103148Y0056448D01*
X0102950Y0056682D01*
X0102747Y0056911D01*
X0102538Y0057135D01*
X0102324Y0057354D01*
X0102104Y0057567D01*
X0101880Y0057775D01*
X0101650Y0057978D01*
X0101416Y0058174D01*
X0101176Y0058365D01*
X0100933Y0058550D01*
X0100684Y0058729D01*
X0100432Y0058902D01*
X0100175Y0059069D01*
X0099914Y0059229D01*
X0099649Y0059383D01*
X0099381Y0059530D01*
X0099109Y0059671D01*
X0098834Y0059805D01*
X0098555Y0059932D01*
X0098274Y0060053D01*
X0097989Y0060166D01*
X0097702Y0060272D01*
X0097413Y0060372D01*
X0097121Y0060464D01*
X0096827Y0060549D01*
X0096531Y0060627D01*
X0096233Y0060698D01*
X0095933Y0060761D01*
X0095632Y0060817D01*
X0095330Y0060865D01*
X0095027Y0060906D01*
X0094723Y0060940D01*
X0094418Y0060966D01*
X0094112Y0060985D01*
X0093806Y0060996D01*
X0093500Y0061000D01*
X0093194Y0060996D01*
X0092888Y0060985D01*
X0092582Y0060966D01*
X0092277Y0060940D01*
X0091973Y0060906D01*
X0091670Y0060865D01*
X0091368Y0060817D01*
X0091067Y0060761D01*
X0090767Y0060698D01*
X0090469Y0060627D01*
X0090173Y0060549D01*
X0089879Y0060464D01*
X0089587Y0060372D01*
X0089298Y0060272D01*
X0089011Y0060166D01*
X0088726Y0060053D01*
X0088445Y0059932D01*
X0088166Y0059805D01*
X0087891Y0059671D01*
X0087619Y0059530D01*
X0087351Y0059383D01*
X0087086Y0059229D01*
X0086825Y0059069D01*
X0086568Y0058902D01*
X0086316Y0058729D01*
X0086067Y0058550D01*
X0085824Y0058365D01*
X0085584Y0058174D01*
X0085350Y0057978D01*
X0085120Y0057775D01*
X0084896Y0057567D01*
X0084676Y0057354D01*
X0084462Y0057135D01*
X0084253Y0056911D01*
X0084050Y0056682D01*
X0083852Y0056448D01*
X0083661Y0056210D01*
X0083475Y0055966D01*
X0083295Y0055719D01*
X0083121Y0055466D01*
X0082954Y0055210D01*
X0082793Y0054950D01*
X0082638Y0054686D01*
X0082490Y0054418D01*
X0082348Y0054147D01*
X0082213Y0053872D01*
X0082085Y0053594D01*
X0081964Y0053313D01*
X0081849Y0053029D01*
X0081742Y0052742D01*
X0081641Y0052453D01*
X0081548Y0052161D01*
X0081462Y0051867D01*
X0081383Y0051572D01*
X0081312Y0051274D01*
X0081247Y0050975D01*
X0081190Y0050674D01*
X0081141Y0050372D01*
X0081099Y0050069D01*
X0081064Y0049764D01*
X0081037Y0049460D01*
X0081017Y0049154D01*
X0081005Y0048848D01*
X0081000Y0048542D01*
X0081003Y0048236D01*
X0081013Y0047930D01*
X0081031Y0047624D01*
X0081056Y0047319D01*
X0081089Y0047015D01*
X0081129Y0046711D01*
X0081176Y0046409D01*
X0081231Y0046108D01*
X0081293Y0045808D01*
X0081363Y0045510D01*
X0081440Y0045214D01*
X0081524Y0044919D01*
X0081615Y0044627D01*
X0081714Y0044337D01*
X0081819Y0044050D01*
X0081931Y0043765D01*
X0082051Y0043483D01*
X0082177Y0043204D01*
X0082310Y0042929D01*
X0082450Y0042656D01*
X0082596Y0042387D01*
X0082749Y0042122D01*
X0082909Y0041861D01*
X0083075Y0041604D01*
X0083247Y0041350D01*
X0083425Y0041101D01*
X0083609Y0040857D01*
X0083799Y0040617D01*
X0083995Y0040382D01*
X0084197Y0040151D01*
X0084404Y0039926D01*
X0084617Y0039706D01*
X0084835Y0039491D01*
X0085058Y0039282D01*
X0085286Y0039078D01*
X0085519Y0038879D01*
X0085757Y0038687D01*
X0086000Y0038500D01*
X0066000Y0038500D02*
X0066243Y0038687D01*
X0066481Y0038879D01*
X0066714Y0039078D01*
X0066942Y0039282D01*
X0067165Y0039491D01*
X0067383Y0039706D01*
X0067596Y0039926D01*
X0067803Y0040151D01*
X0068005Y0040382D01*
X0068201Y0040617D01*
X0068391Y0040857D01*
X0068575Y0041101D01*
X0068753Y0041350D01*
X0068925Y0041604D01*
X0069091Y0041861D01*
X0069251Y0042122D01*
X0069404Y0042387D01*
X0069550Y0042656D01*
X0069690Y0042929D01*
X0069823Y0043204D01*
X0069949Y0043483D01*
X0070069Y0043765D01*
X0070181Y0044050D01*
X0070286Y0044337D01*
X0070385Y0044627D01*
X0070476Y0044919D01*
X0070560Y0045214D01*
X0070637Y0045510D01*
X0070707Y0045808D01*
X0070769Y0046108D01*
X0070824Y0046409D01*
X0070871Y0046711D01*
X0070911Y0047015D01*
X0070944Y0047319D01*
X0070969Y0047624D01*
X0070987Y0047930D01*
X0070997Y0048236D01*
X0071000Y0048542D01*
X0070995Y0048848D01*
X0070983Y0049154D01*
X0070963Y0049460D01*
X0070936Y0049764D01*
X0070901Y0050069D01*
X0070859Y0050372D01*
X0070810Y0050674D01*
X0070753Y0050975D01*
X0070688Y0051274D01*
X0070617Y0051572D01*
X0070538Y0051867D01*
X0070452Y0052161D01*
X0070359Y0052453D01*
X0070258Y0052742D01*
X0070151Y0053029D01*
X0070036Y0053313D01*
X0069915Y0053594D01*
X0069787Y0053872D01*
X0069652Y0054147D01*
X0069510Y0054418D01*
X0069362Y0054686D01*
X0069207Y0054950D01*
X0069046Y0055210D01*
X0068879Y0055466D01*
X0068705Y0055719D01*
X0068525Y0055966D01*
X0068339Y0056210D01*
X0068148Y0056448D01*
X0067950Y0056682D01*
X0067747Y0056911D01*
X0067538Y0057135D01*
X0067324Y0057354D01*
X0067104Y0057567D01*
X0066880Y0057775D01*
X0066650Y0057978D01*
X0066416Y0058174D01*
X0066176Y0058365D01*
X0065933Y0058550D01*
X0065684Y0058729D01*
X0065432Y0058902D01*
X0065175Y0059069D01*
X0064914Y0059229D01*
X0064649Y0059383D01*
X0064381Y0059530D01*
X0064109Y0059671D01*
X0063834Y0059805D01*
X0063555Y0059932D01*
X0063274Y0060053D01*
X0062989Y0060166D01*
X0062702Y0060272D01*
X0062413Y0060372D01*
X0062121Y0060464D01*
X0061827Y0060549D01*
X0061531Y0060627D01*
X0061233Y0060698D01*
X0060933Y0060761D01*
X0060632Y0060817D01*
X0060330Y0060865D01*
X0060027Y0060906D01*
X0059723Y0060940D01*
X0059418Y0060966D01*
X0059112Y0060985D01*
X0058806Y0060996D01*
X0058500Y0061000D01*
X0058194Y0060996D01*
X0057888Y0060985D01*
X0057582Y0060966D01*
X0057277Y0060940D01*
X0056973Y0060906D01*
X0056670Y0060865D01*
X0056368Y0060817D01*
X0056067Y0060761D01*
X0055767Y0060698D01*
X0055469Y0060627D01*
X0055173Y0060549D01*
X0054879Y0060464D01*
X0054587Y0060372D01*
X0054298Y0060272D01*
X0054011Y0060166D01*
X0053726Y0060053D01*
X0053445Y0059932D01*
X0053166Y0059805D01*
X0052891Y0059671D01*
X0052619Y0059530D01*
X0052351Y0059383D01*
X0052086Y0059229D01*
X0051825Y0059069D01*
X0051568Y0058902D01*
X0051316Y0058729D01*
X0051067Y0058550D01*
X0050824Y0058365D01*
X0050584Y0058174D01*
X0050350Y0057978D01*
X0050120Y0057775D01*
X0049896Y0057567D01*
X0049676Y0057354D01*
X0049462Y0057135D01*
X0049253Y0056911D01*
X0049050Y0056682D01*
X0048852Y0056448D01*
X0048661Y0056210D01*
X0048475Y0055966D01*
X0048295Y0055719D01*
X0048121Y0055466D01*
X0047954Y0055210D01*
X0047793Y0054950D01*
X0047638Y0054686D01*
X0047490Y0054418D01*
X0047348Y0054147D01*
X0047213Y0053872D01*
X0047085Y0053594D01*
X0046964Y0053313D01*
X0046849Y0053029D01*
X0046742Y0052742D01*
X0046641Y0052453D01*
X0046548Y0052161D01*
X0046462Y0051867D01*
X0046383Y0051572D01*
X0046312Y0051274D01*
X0046247Y0050975D01*
X0046190Y0050674D01*
X0046141Y0050372D01*
X0046099Y0050069D01*
X0046064Y0049764D01*
X0046037Y0049460D01*
X0046017Y0049154D01*
X0046005Y0048848D01*
X0046000Y0048542D01*
X0046003Y0048236D01*
X0046013Y0047930D01*
X0046031Y0047624D01*
X0046056Y0047319D01*
X0046089Y0047015D01*
X0046129Y0046711D01*
X0046176Y0046409D01*
X0046231Y0046108D01*
X0046293Y0045808D01*
X0046363Y0045510D01*
X0046440Y0045214D01*
X0046524Y0044919D01*
X0046615Y0044627D01*
X0046714Y0044337D01*
X0046819Y0044050D01*
X0046931Y0043765D01*
X0047051Y0043483D01*
X0047177Y0043204D01*
X0047310Y0042929D01*
X0047450Y0042656D01*
X0047596Y0042387D01*
X0047749Y0042122D01*
X0047909Y0041861D01*
X0048075Y0041604D01*
X0048247Y0041350D01*
X0048425Y0041101D01*
X0048609Y0040857D01*
X0048799Y0040617D01*
X0048995Y0040382D01*
X0049197Y0040151D01*
X0049404Y0039926D01*
X0049617Y0039706D01*
X0049835Y0039491D01*
X0050058Y0039282D01*
X0050286Y0039078D01*
X0050519Y0038879D01*
X0050757Y0038687D01*
X0051000Y0038500D01*
M02*
