G75*
%MOIN*%
%OFA0B0*%
%FSLAX24Y24*%
%IPPOS*%
%LPD*%
%AMOC8*
5,1,8,0,0,1.08239X$1,22.5*
%
%ADD10C,0.0000*%
%ADD11C,0.0040*%
%ADD12C,0.0060*%
%ADD13C,0.0020*%
%ADD14C,0.0079*%
%ADD15C,0.0080*%
D10*
X000630Y000630D02*
X000630Y020126D01*
X025000Y020126D01*
X025000Y000630D01*
X000630Y000630D01*
D11*
X002400Y002400D02*
X002400Y002707D01*
X002400Y002553D02*
X002860Y002553D01*
X002707Y002400D01*
X002784Y002860D02*
X002477Y002860D01*
X002784Y003167D01*
X002477Y003167D01*
X002400Y003091D01*
X002400Y002937D01*
X002477Y002860D01*
X002784Y002860D02*
X002860Y002937D01*
X002860Y003091D01*
X002784Y003167D01*
X002784Y003321D02*
X002477Y003321D01*
X002784Y003628D01*
X002477Y003628D01*
X002400Y003551D01*
X002400Y003398D01*
X002477Y003321D01*
X002784Y003321D02*
X002860Y003398D01*
X002860Y003551D01*
X002784Y003628D01*
X002860Y003781D02*
X002400Y003781D01*
X002553Y003781D02*
X002707Y004011D01*
X002553Y003781D02*
X002400Y004011D01*
X002400Y004400D02*
X002400Y004707D01*
X002400Y004553D02*
X002860Y004553D01*
X002707Y004400D01*
X002784Y004860D02*
X002477Y004860D01*
X002784Y005167D01*
X002477Y005167D01*
X002400Y005091D01*
X002400Y004937D01*
X002477Y004860D01*
X002784Y004860D02*
X002860Y004937D01*
X002860Y005091D01*
X002784Y005167D01*
X002784Y005321D02*
X002477Y005321D01*
X002784Y005628D01*
X002477Y005628D01*
X002400Y005551D01*
X002400Y005398D01*
X002477Y005321D01*
X002784Y005321D02*
X002860Y005398D01*
X002860Y005551D01*
X002784Y005628D01*
X002860Y005781D02*
X002400Y005781D01*
X002553Y005781D02*
X002707Y006011D01*
X002553Y005781D02*
X002400Y006011D01*
X004400Y006011D02*
X004553Y005781D01*
X004707Y006011D01*
X004860Y005781D02*
X004400Y005781D01*
X004477Y005628D02*
X004400Y005551D01*
X004400Y005398D01*
X004477Y005321D01*
X004784Y005628D01*
X004477Y005628D01*
X004784Y005628D02*
X004860Y005551D01*
X004860Y005398D01*
X004784Y005321D01*
X004477Y005321D01*
X004477Y005167D02*
X004400Y005091D01*
X004400Y004937D01*
X004477Y004860D01*
X004784Y005167D01*
X004477Y005167D01*
X004784Y005167D02*
X004860Y005091D01*
X004860Y004937D01*
X004784Y004860D01*
X004477Y004860D01*
X004400Y004707D02*
X004400Y004400D01*
X004707Y004707D01*
X004784Y004707D01*
X004860Y004630D01*
X004860Y004477D01*
X004784Y004400D01*
X004707Y004011D02*
X004553Y003781D01*
X004400Y004011D01*
X004400Y003781D02*
X004860Y003781D01*
X004784Y003628D02*
X004477Y003628D01*
X004400Y003551D01*
X004400Y003398D01*
X004477Y003321D01*
X004784Y003628D01*
X004860Y003551D01*
X004860Y003398D01*
X004784Y003321D01*
X004477Y003321D01*
X004477Y003167D02*
X004400Y003091D01*
X004400Y002937D01*
X004477Y002860D01*
X004784Y003167D01*
X004477Y003167D01*
X004477Y002860D02*
X004784Y002860D01*
X004860Y002937D01*
X004860Y003091D01*
X004784Y003167D01*
X004784Y002707D02*
X004860Y002630D01*
X004860Y002477D01*
X004784Y002400D01*
X004707Y002707D02*
X004400Y002400D01*
X004400Y002707D01*
X004707Y002707D02*
X004784Y002707D01*
X008070Y006900D02*
X008070Y007360D01*
X007763Y007360D01*
X007917Y007130D02*
X008070Y007130D01*
X008224Y007130D02*
X008224Y006900D01*
X008224Y007130D02*
X008301Y007207D01*
X008531Y007207D01*
X008531Y006900D01*
X008684Y006977D02*
X008761Y006900D01*
X008914Y006900D01*
X008991Y006977D01*
X008684Y007284D01*
X008684Y006977D01*
X008684Y007284D02*
X008761Y007360D01*
X008914Y007360D01*
X008991Y007284D01*
X008991Y006977D01*
X009145Y006977D02*
X009145Y007284D01*
X009452Y006977D01*
X009375Y006900D01*
X009221Y006900D01*
X009145Y006977D01*
X009452Y006977D02*
X009452Y007284D01*
X009375Y007360D01*
X009221Y007360D01*
X009145Y007284D01*
X009605Y006900D02*
X009912Y006900D01*
X009759Y006900D02*
X009759Y007360D01*
X009912Y007207D01*
X010400Y007346D02*
X010400Y007499D01*
X010477Y007576D01*
X010784Y007576D01*
X010477Y007269D01*
X010400Y007346D01*
X010477Y007269D02*
X010784Y007269D01*
X010860Y007346D01*
X010860Y007499D01*
X010784Y007576D01*
X010707Y007729D02*
X010400Y007729D01*
X010400Y007883D02*
X010630Y007883D01*
X010707Y007959D01*
X010630Y008036D01*
X010400Y008036D01*
X010400Y008190D02*
X010860Y008190D01*
X010630Y008190D02*
X010630Y008497D01*
X010860Y008497D02*
X010400Y008497D01*
X010377Y009065D02*
X010684Y009065D01*
X010530Y009065D02*
X010530Y009526D01*
X010684Y009372D01*
X010223Y009449D02*
X010223Y009142D01*
X009917Y009449D01*
X009917Y009142D01*
X009993Y009065D01*
X010147Y009065D01*
X010223Y009142D01*
X010223Y009449D02*
X010147Y009526D01*
X009993Y009526D01*
X009917Y009449D01*
X009763Y009372D02*
X009763Y009142D01*
X009686Y009065D01*
X009456Y009065D01*
X009456Y009372D01*
X009303Y009296D02*
X009149Y009296D01*
X009303Y009526D02*
X009303Y009065D01*
X009303Y009526D02*
X008996Y009526D01*
X010630Y007883D02*
X010707Y007806D01*
X010707Y007729D01*
X010784Y007115D02*
X010477Y007115D01*
X010400Y007039D01*
X010400Y006885D01*
X010477Y006808D01*
X010784Y007115D01*
X010860Y007039D01*
X010860Y006885D01*
X010784Y006808D01*
X010477Y006808D01*
X010400Y006655D02*
X010400Y006348D01*
X010400Y006501D02*
X010860Y006501D01*
X010707Y006348D01*
X016900Y005011D02*
X017053Y004781D01*
X017207Y005011D01*
X017360Y004781D02*
X016900Y004781D01*
X017284Y004628D02*
X016977Y004321D01*
X016900Y004321D01*
X016900Y004091D02*
X017360Y004091D01*
X017130Y003860D01*
X017130Y004167D01*
X017360Y004321D02*
X017360Y004628D01*
X017284Y004628D01*
X018150Y004598D02*
X018150Y004905D01*
X018150Y004751D02*
X018610Y004751D01*
X018457Y004598D01*
X018534Y005058D02*
X018227Y005058D01*
X018534Y005365D01*
X018227Y005365D01*
X018150Y005289D01*
X018150Y005135D01*
X018227Y005058D01*
X018534Y005058D02*
X018610Y005135D01*
X018610Y005289D01*
X018534Y005365D01*
X018534Y005519D02*
X018227Y005519D01*
X018534Y005826D01*
X018227Y005826D01*
X018150Y005749D01*
X018150Y005596D01*
X018227Y005519D01*
X018534Y005519D02*
X018610Y005596D01*
X018610Y005749D01*
X018534Y005826D01*
X018457Y005979D02*
X018150Y005979D01*
X018457Y005979D02*
X018457Y006209D01*
X018380Y006286D01*
X018150Y006286D01*
X018150Y006440D02*
X018610Y006440D01*
X018610Y006747D01*
X018380Y006593D02*
X018380Y006440D01*
X019149Y006550D02*
X019379Y006703D01*
X019149Y006857D01*
X019379Y007010D02*
X019379Y006550D01*
X019532Y006627D02*
X019609Y006550D01*
X019762Y006550D01*
X019839Y006627D01*
X019532Y006934D01*
X019532Y006627D01*
X019532Y006934D02*
X019609Y007010D01*
X019762Y007010D01*
X019839Y006934D01*
X019839Y006627D01*
X019993Y006550D02*
X020300Y006550D01*
X019993Y006857D01*
X019993Y006934D01*
X020069Y007010D01*
X020223Y007010D01*
X020300Y006934D01*
X020453Y006934D02*
X020530Y007010D01*
X020683Y007010D01*
X020760Y006934D01*
X020760Y006857D01*
X020683Y006780D01*
X020453Y006780D01*
X020453Y006627D02*
X020453Y006934D01*
X020453Y006627D02*
X020530Y006550D01*
X020683Y006550D01*
X020760Y006627D01*
X021400Y006516D02*
X021860Y006516D01*
X021784Y006363D02*
X021477Y006363D01*
X021400Y006286D01*
X021400Y006133D01*
X021477Y006056D01*
X021784Y006363D01*
X021860Y006286D01*
X021860Y006133D01*
X021784Y006056D01*
X021477Y006056D01*
X021477Y005902D02*
X021553Y005902D01*
X021630Y005826D01*
X021630Y005596D01*
X021477Y005596D01*
X021400Y005672D01*
X021400Y005826D01*
X021477Y005902D01*
X021630Y005596D02*
X021784Y005749D01*
X021860Y005902D01*
X022365Y006130D02*
X022518Y006130D01*
X022672Y006130D02*
X022672Y005900D01*
X022518Y005900D02*
X022518Y006360D01*
X022212Y006360D01*
X022672Y006130D02*
X022749Y006207D01*
X022979Y006207D01*
X022979Y005900D01*
X023132Y005977D02*
X023209Y005900D01*
X023362Y005900D01*
X023439Y005977D01*
X023132Y006284D01*
X023132Y005977D01*
X023439Y005977D02*
X023439Y006284D01*
X023362Y006360D01*
X023209Y006360D01*
X023132Y006284D01*
X023593Y006284D02*
X023593Y005977D01*
X023669Y005900D01*
X023823Y005900D01*
X023900Y005977D01*
X023593Y006284D01*
X023669Y006360D01*
X023823Y006360D01*
X023900Y006284D01*
X023900Y005977D01*
X024053Y005900D02*
X024360Y005900D01*
X024207Y005900D02*
X024207Y006360D01*
X024360Y006207D01*
X024400Y006598D02*
X024400Y006905D01*
X024400Y006751D02*
X024860Y006751D01*
X024707Y006598D01*
X024784Y007058D02*
X024477Y007058D01*
X024784Y007365D01*
X024477Y007365D01*
X024400Y007289D01*
X024400Y007135D01*
X024477Y007058D01*
X024784Y007058D02*
X024860Y007135D01*
X024860Y007289D01*
X024784Y007365D01*
X024784Y007519D02*
X024477Y007519D01*
X024784Y007826D01*
X024477Y007826D01*
X024400Y007749D01*
X024400Y007596D01*
X024477Y007519D01*
X024784Y007519D02*
X024860Y007596D01*
X024860Y007749D01*
X024784Y007826D01*
X024707Y007979D02*
X024707Y008209D01*
X024630Y008286D01*
X024400Y008286D01*
X024400Y008440D02*
X024860Y008440D01*
X024860Y008747D01*
X024630Y008593D02*
X024630Y008440D01*
X024707Y007979D02*
X024400Y007979D01*
X021707Y006747D02*
X021553Y006516D01*
X021400Y006747D01*
X021477Y005442D02*
X021400Y005365D01*
X021400Y005212D01*
X021477Y005135D01*
X021630Y005135D02*
X021707Y005289D01*
X021707Y005365D01*
X021630Y005442D01*
X021477Y005442D01*
X021630Y005135D02*
X021860Y005135D01*
X021860Y005442D01*
X021801Y004610D02*
X021724Y004534D01*
X021724Y004457D01*
X021801Y004380D01*
X021724Y004303D01*
X021724Y004227D01*
X021801Y004150D01*
X021954Y004150D01*
X022031Y004227D01*
X022184Y004150D02*
X022414Y004303D01*
X022184Y004457D01*
X022031Y004534D02*
X021954Y004610D01*
X021801Y004610D01*
X021801Y004380D02*
X021877Y004380D01*
X021570Y004534D02*
X021494Y004610D01*
X021340Y004610D01*
X021263Y004534D01*
X021263Y004457D01*
X021570Y004150D01*
X021263Y004150D01*
X021400Y003747D02*
X021400Y003440D01*
X021707Y003747D01*
X021784Y003747D01*
X021860Y003670D01*
X021860Y003516D01*
X021784Y003440D01*
X021784Y003286D02*
X021477Y002979D01*
X021400Y003056D01*
X021400Y003209D01*
X021477Y003286D01*
X021784Y003286D01*
X021860Y003209D01*
X021860Y003056D01*
X021784Y002979D01*
X021477Y002979D01*
X021400Y002826D02*
X021553Y002596D01*
X021707Y002826D01*
X021860Y002596D02*
X021400Y002596D01*
X021400Y002365D02*
X021860Y002365D01*
X021630Y002135D01*
X021630Y002442D01*
X022462Y002360D02*
X022768Y002360D01*
X022768Y001900D01*
X022922Y001900D02*
X022922Y002130D01*
X022999Y002207D01*
X023229Y002207D01*
X023229Y001900D01*
X023382Y001977D02*
X023459Y001900D01*
X023612Y001900D01*
X023689Y001977D01*
X023382Y002284D01*
X023382Y001977D01*
X023689Y001977D02*
X023689Y002284D01*
X023612Y002360D01*
X023459Y002360D01*
X023382Y002284D01*
X023843Y002284D02*
X023843Y001977D01*
X023919Y001900D01*
X024073Y001900D01*
X024150Y001977D01*
X023843Y002284D01*
X023919Y002360D01*
X024073Y002360D01*
X024150Y002284D01*
X024150Y001977D01*
X024303Y001900D02*
X024610Y001900D01*
X024457Y001900D02*
X024457Y002360D01*
X024610Y002207D01*
X024525Y003025D02*
X024765Y003025D01*
X024885Y003145D01*
X024765Y003265D01*
X024525Y003265D01*
X024525Y003393D02*
X024525Y003573D01*
X024585Y003634D01*
X024825Y003634D01*
X024885Y003573D01*
X024885Y003393D01*
X024525Y003393D01*
X024705Y003265D02*
X024705Y003025D01*
X024645Y003762D02*
X024645Y003942D01*
X024705Y004002D01*
X024825Y004002D01*
X024885Y003942D01*
X024885Y003762D01*
X024525Y003762D01*
X024645Y003882D02*
X024525Y004002D01*
X024525Y004130D02*
X024525Y004370D01*
X024525Y004250D02*
X024885Y004250D01*
X024765Y004130D01*
X024825Y004498D02*
X024885Y004558D01*
X024885Y004678D01*
X024825Y004738D01*
X024765Y004738D01*
X024525Y004498D01*
X024525Y004738D01*
X024525Y004867D02*
X024585Y004867D01*
X024825Y005107D01*
X024885Y005107D01*
X024885Y004867D01*
X024885Y005235D02*
X024525Y005235D01*
X024525Y005415D01*
X024585Y005475D01*
X024645Y005475D01*
X024705Y005415D01*
X024705Y005235D01*
X024705Y005415D02*
X024765Y005475D01*
X024825Y005475D01*
X024885Y005415D01*
X024885Y005235D01*
X022875Y004534D02*
X022798Y004610D01*
X022645Y004610D01*
X022568Y004534D01*
X022568Y004457D01*
X022645Y004380D01*
X022568Y004303D01*
X022568Y004227D01*
X022645Y004150D01*
X022798Y004150D01*
X022875Y004227D01*
X022721Y004380D02*
X022645Y004380D01*
X022414Y004150D02*
X022414Y004610D01*
X019860Y002551D02*
X019784Y002628D01*
X019707Y002628D01*
X019630Y002551D01*
X019553Y002628D01*
X019477Y002628D01*
X019400Y002551D01*
X019400Y002398D01*
X019477Y002321D01*
X019477Y002167D02*
X019400Y002091D01*
X019400Y001937D01*
X019477Y001860D01*
X019477Y001707D02*
X019784Y001707D01*
X019860Y001630D01*
X019860Y001477D01*
X019784Y001400D01*
X019707Y001400D01*
X019630Y001477D01*
X019630Y001707D01*
X019477Y001707D02*
X019400Y001630D01*
X019400Y001477D01*
X019477Y001400D01*
X020013Y001360D02*
X020167Y001284D01*
X020320Y001130D01*
X020090Y001130D01*
X020013Y001053D01*
X020013Y000977D01*
X020090Y000900D01*
X020244Y000900D01*
X020320Y000977D01*
X020320Y001130D01*
X020474Y001207D02*
X020704Y001053D01*
X020474Y000900D01*
X020704Y000900D02*
X020704Y001360D01*
X020858Y001360D02*
X021011Y001284D01*
X021164Y001130D01*
X020934Y001130D01*
X020858Y001053D01*
X020858Y000977D01*
X020934Y000900D01*
X021088Y000900D01*
X021164Y000977D01*
X021164Y001130D01*
X021318Y001053D02*
X021318Y000977D01*
X021395Y000900D01*
X021548Y000900D01*
X021625Y000977D01*
X021625Y001053D01*
X021548Y001130D01*
X021395Y001130D01*
X021318Y001053D01*
X021395Y001130D02*
X021318Y001207D01*
X021318Y001284D01*
X021395Y001360D01*
X021548Y001360D01*
X021625Y001284D01*
X021625Y001207D01*
X021548Y001130D01*
X022615Y002130D02*
X022768Y002130D01*
X019860Y002167D02*
X019860Y001860D01*
X019630Y001860D01*
X019707Y002014D01*
X019707Y002091D01*
X019630Y002167D01*
X019477Y002167D01*
X019784Y002321D02*
X019860Y002398D01*
X019860Y002551D01*
X019630Y002551D02*
X019630Y002474D01*
X017360Y003553D02*
X016900Y003553D01*
X016900Y003400D02*
X016900Y003707D01*
X017207Y003400D02*
X017360Y003553D01*
X014207Y011900D02*
X014360Y012053D01*
X013900Y012053D01*
X013900Y011900D02*
X013900Y012207D01*
X013900Y012360D02*
X014360Y012360D01*
X014207Y012514D01*
X014360Y012667D01*
X013900Y012667D01*
X011860Y012667D02*
X011400Y012667D01*
X011400Y012360D02*
X011860Y012360D01*
X011707Y012514D01*
X011860Y012667D01*
X011400Y012207D02*
X011400Y011900D01*
X011400Y012053D02*
X011860Y012053D01*
X011707Y011900D01*
X010860Y013150D02*
X010553Y013150D01*
X010707Y013150D02*
X010707Y013610D01*
X010860Y013457D01*
X010400Y013534D02*
X010400Y013227D01*
X010093Y013534D01*
X010093Y013227D01*
X010169Y013150D01*
X010323Y013150D01*
X010400Y013227D01*
X010400Y013534D02*
X010323Y013610D01*
X010169Y013610D01*
X010093Y013534D01*
X009939Y013534D02*
X009939Y013227D01*
X009632Y013534D01*
X009632Y013227D01*
X009709Y013150D01*
X009862Y013150D01*
X009939Y013227D01*
X009939Y013534D02*
X009862Y013610D01*
X009709Y013610D01*
X009632Y013534D01*
X009479Y013457D02*
X009249Y013457D01*
X009172Y013380D01*
X009172Y013150D01*
X009018Y013150D02*
X009018Y013610D01*
X008712Y013610D01*
X008865Y013380D02*
X009018Y013380D01*
X009479Y013457D02*
X009479Y013150D01*
X009110Y012667D02*
X008650Y012667D01*
X008650Y012360D02*
X009110Y012360D01*
X008957Y012514D01*
X009110Y012667D01*
X008650Y012207D02*
X008650Y011900D01*
X008650Y012053D02*
X009110Y012053D01*
X008957Y011900D01*
X011407Y014900D02*
X011330Y014977D01*
X011330Y015284D01*
X011407Y015360D01*
X011637Y015360D01*
X011637Y014900D01*
X011407Y014900D01*
X011791Y014900D02*
X012098Y014900D01*
X011791Y015207D01*
X011791Y015284D01*
X011867Y015360D01*
X012021Y015360D01*
X012098Y015284D01*
X012251Y015284D02*
X012328Y015360D01*
X012481Y015360D01*
X012558Y015284D01*
X012712Y015284D02*
X013018Y014977D01*
X012942Y014900D01*
X012788Y014900D01*
X012712Y014977D01*
X012712Y015284D01*
X012788Y015360D01*
X012942Y015360D01*
X013018Y015284D01*
X013018Y014977D01*
X013172Y014900D02*
X013479Y014900D01*
X013172Y015207D01*
X013172Y015284D01*
X013249Y015360D01*
X013402Y015360D01*
X013479Y015284D01*
X013632Y015284D02*
X013709Y015360D01*
X013862Y015360D01*
X013939Y015284D01*
X013939Y015207D01*
X013862Y015130D01*
X013709Y015130D01*
X013632Y015053D01*
X013632Y014977D01*
X013709Y014900D01*
X013862Y014900D01*
X013939Y014977D01*
X014093Y015130D02*
X014169Y015053D01*
X014400Y015053D01*
X014400Y014900D02*
X014400Y015360D01*
X014169Y015360D01*
X014093Y015284D01*
X014093Y015130D01*
X014553Y015360D02*
X014860Y015360D01*
X014707Y015360D02*
X014707Y014900D01*
X012558Y014900D02*
X012251Y015207D01*
X012251Y015284D01*
X012251Y014900D02*
X012558Y014900D01*
X009378Y015235D02*
X009071Y015542D01*
X009071Y015618D01*
X009148Y015695D01*
X009301Y015695D01*
X009378Y015618D01*
X009378Y015235D02*
X009071Y015235D01*
X008917Y015235D02*
X008610Y015542D01*
X008610Y015618D01*
X008687Y015695D01*
X008841Y015695D01*
X008917Y015618D01*
X008917Y015235D02*
X008610Y015235D01*
X008457Y015311D02*
X008457Y015542D01*
X008457Y015311D02*
X008380Y015235D01*
X008150Y015235D01*
X008150Y015542D01*
X007997Y015465D02*
X007843Y015465D01*
X007997Y015695D02*
X007690Y015695D01*
X007997Y015695D02*
X007997Y015235D01*
X004860Y015130D02*
X004860Y014977D01*
X004784Y014900D01*
X004860Y015130D02*
X004784Y015207D01*
X004707Y015207D01*
X004400Y014900D01*
X004400Y015207D01*
X004477Y015360D02*
X004784Y015667D01*
X004477Y015667D01*
X004400Y015591D01*
X004400Y015437D01*
X004477Y015360D01*
X004784Y015360D01*
X004860Y015437D01*
X004860Y015591D01*
X004784Y015667D01*
X004784Y015821D02*
X004477Y015821D01*
X004784Y016128D01*
X004477Y016128D01*
X004400Y016051D01*
X004400Y015898D01*
X004477Y015821D01*
X004784Y015821D02*
X004860Y015898D01*
X004860Y016051D01*
X004784Y016128D01*
X004860Y016281D02*
X004400Y016281D01*
X004553Y016281D02*
X004707Y016511D01*
X004553Y016281D02*
X004400Y016511D01*
X004400Y016900D02*
X004707Y017207D01*
X004784Y017207D01*
X004860Y017130D01*
X004860Y016977D01*
X004784Y016900D01*
X004400Y016900D02*
X004400Y017207D01*
X004477Y017360D02*
X004784Y017667D01*
X004477Y017667D01*
X004400Y017591D01*
X004400Y017437D01*
X004477Y017360D01*
X004784Y017360D01*
X004860Y017437D01*
X004860Y017591D01*
X004784Y017667D01*
X004784Y017821D02*
X004860Y017898D01*
X004860Y018051D01*
X004784Y018128D01*
X004477Y017821D01*
X004400Y017898D01*
X004400Y018051D01*
X004477Y018128D01*
X004784Y018128D01*
X004860Y018281D02*
X004400Y018281D01*
X004553Y018281D02*
X004707Y018511D01*
X004553Y018281D02*
X004400Y018511D01*
X004477Y017821D02*
X004784Y017821D01*
X002860Y017898D02*
X002860Y018051D01*
X002784Y018128D01*
X002477Y017821D01*
X002400Y017898D01*
X002400Y018051D01*
X002477Y018128D01*
X002784Y018128D01*
X002860Y018281D02*
X002400Y018281D01*
X002553Y018281D02*
X002707Y018511D01*
X002553Y018281D02*
X002400Y018511D01*
X002860Y017898D02*
X002784Y017821D01*
X002477Y017821D01*
X002477Y017667D02*
X002400Y017591D01*
X002400Y017437D01*
X002477Y017360D01*
X002784Y017667D01*
X002477Y017667D01*
X002784Y017667D02*
X002860Y017591D01*
X002860Y017437D01*
X002784Y017360D01*
X002477Y017360D01*
X002400Y017207D02*
X002400Y016900D01*
X002400Y017053D02*
X002860Y017053D01*
X002707Y016900D01*
X002707Y016511D02*
X002553Y016281D01*
X002400Y016511D01*
X002400Y016281D02*
X002860Y016281D01*
X002784Y016128D02*
X002477Y015821D01*
X002400Y015898D01*
X002400Y016051D01*
X002477Y016128D01*
X002784Y016128D01*
X002860Y016051D01*
X002860Y015898D01*
X002784Y015821D01*
X002477Y015821D01*
X002477Y015667D02*
X002400Y015591D01*
X002400Y015437D01*
X002477Y015360D01*
X002784Y015667D01*
X002477Y015667D01*
X002784Y015667D02*
X002860Y015591D01*
X002860Y015437D01*
X002784Y015360D01*
X002477Y015360D01*
X002400Y015207D02*
X002400Y014900D01*
X002400Y015053D02*
X002860Y015053D01*
X002707Y014900D01*
D12*
X018990Y005142D02*
X018990Y004119D01*
X018992Y004099D01*
X018996Y004079D01*
X019004Y004061D01*
X019014Y004044D01*
X019027Y004028D01*
X019043Y004015D01*
X019060Y004005D01*
X019078Y003997D01*
X019098Y003993D01*
X019118Y003991D01*
X020141Y003991D02*
X020161Y003993D01*
X020181Y003997D01*
X020199Y004005D01*
X020216Y004015D01*
X020232Y004028D01*
X020245Y004044D01*
X020255Y004061D01*
X020263Y004079D01*
X020267Y004099D01*
X020269Y004119D01*
X020269Y005142D01*
X020267Y005162D01*
X020263Y005182D01*
X020255Y005200D01*
X020245Y005217D01*
X020232Y005233D01*
X020216Y005246D01*
X020199Y005256D01*
X020181Y005264D01*
X020161Y005268D01*
X020141Y005270D01*
X019118Y005270D02*
X019098Y005268D01*
X019078Y005264D01*
X019060Y005256D01*
X019043Y005246D01*
X019027Y005233D01*
X019014Y005217D01*
X019004Y005200D01*
X018996Y005182D01*
X018992Y005162D01*
X018990Y005142D01*
X021990Y007119D02*
X021990Y008142D01*
X021992Y008162D01*
X021996Y008182D01*
X022004Y008200D01*
X022014Y008217D01*
X022027Y008233D01*
X022043Y008246D01*
X022060Y008256D01*
X022078Y008264D01*
X022098Y008268D01*
X022118Y008270D01*
X023141Y008270D02*
X023161Y008268D01*
X023181Y008264D01*
X023199Y008256D01*
X023216Y008246D01*
X023232Y008233D01*
X023245Y008217D01*
X023255Y008200D01*
X023263Y008182D01*
X023267Y008162D01*
X023269Y008142D01*
X023269Y007119D01*
X023267Y007099D01*
X023263Y007079D01*
X023255Y007061D01*
X023245Y007044D01*
X023232Y007028D01*
X023216Y007015D01*
X023199Y007005D01*
X023181Y006997D01*
X023161Y006993D01*
X023141Y006991D01*
X022118Y006991D02*
X022098Y006993D01*
X022078Y006997D01*
X022060Y007005D01*
X022043Y007015D01*
X022027Y007028D01*
X022014Y007044D01*
X022004Y007061D01*
X021996Y007079D01*
X021992Y007099D01*
X021990Y007119D01*
X023070Y004437D02*
X023070Y003823D01*
X024190Y003823D02*
X024190Y004437D01*
D13*
X023457Y006890D02*
X023363Y006890D01*
X023340Y006913D01*
X023340Y006960D01*
X023363Y006983D01*
X023457Y006983D01*
X023480Y006960D01*
X023480Y006913D01*
X023457Y006890D01*
X023480Y007037D02*
X023480Y007107D01*
X023457Y007131D01*
X023410Y007131D01*
X023387Y007107D01*
X023387Y007037D01*
X023340Y007037D02*
X023480Y007037D01*
X023433Y007185D02*
X023480Y007231D01*
X023433Y007278D01*
X023340Y007278D01*
X023340Y007332D02*
X023433Y007425D01*
X023457Y007425D01*
X023480Y007402D01*
X023480Y007355D01*
X023457Y007332D01*
X023410Y007278D02*
X023410Y007185D01*
X023433Y007185D02*
X023340Y007185D01*
X023340Y007332D02*
X023340Y007425D01*
X023363Y007479D02*
X023340Y007503D01*
X023340Y007549D01*
X023363Y007573D01*
X023387Y007573D01*
X023410Y007549D01*
X023410Y007526D01*
X023410Y007549D02*
X023433Y007573D01*
X023457Y007573D01*
X023480Y007549D01*
X023480Y007503D01*
X023457Y007479D01*
X023457Y007627D02*
X023480Y007650D01*
X023480Y007697D01*
X023457Y007720D01*
X023433Y007720D01*
X023410Y007697D01*
X023387Y007720D01*
X023363Y007720D01*
X023340Y007697D01*
X023340Y007650D01*
X023363Y007627D01*
X023410Y007673D02*
X023410Y007697D01*
X023363Y007774D02*
X023340Y007797D01*
X023340Y007844D01*
X023363Y007867D01*
X023387Y007867D01*
X023410Y007844D01*
X023410Y007821D01*
X023410Y007844D02*
X023433Y007867D01*
X023457Y007867D01*
X023480Y007844D01*
X023480Y007797D01*
X023457Y007774D01*
X023480Y007921D02*
X023340Y007921D01*
X023340Y007991D01*
X023363Y008015D01*
X023457Y008015D01*
X023480Y007991D01*
X023480Y007921D01*
X023457Y008069D02*
X023363Y008069D01*
X023340Y008092D01*
X023340Y008139D01*
X023363Y008162D01*
X023410Y008162D01*
X023410Y008115D01*
X023457Y008069D02*
X023480Y008092D01*
X023480Y008139D01*
X023457Y008162D01*
X023480Y008216D02*
X023340Y008216D01*
X023387Y008216D02*
X023480Y008309D01*
X023410Y008239D02*
X023340Y008309D01*
X022061Y007941D02*
X022063Y007968D01*
X022069Y007995D01*
X022078Y008021D01*
X022091Y008045D01*
X022107Y008068D01*
X022126Y008087D01*
X022148Y008104D01*
X022172Y008118D01*
X022197Y008128D01*
X022224Y008135D01*
X022251Y008138D01*
X022279Y008137D01*
X022306Y008132D01*
X022332Y008124D01*
X022356Y008112D01*
X022379Y008096D01*
X022400Y008078D01*
X022417Y008057D01*
X022432Y008033D01*
X022443Y008008D01*
X022451Y007982D01*
X022455Y007955D01*
X022455Y007927D01*
X022451Y007900D01*
X022443Y007874D01*
X022432Y007849D01*
X022417Y007825D01*
X022400Y007804D01*
X022379Y007786D01*
X022357Y007770D01*
X022332Y007758D01*
X022306Y007750D01*
X022279Y007745D01*
X022251Y007744D01*
X022224Y007747D01*
X022197Y007754D01*
X022172Y007764D01*
X022148Y007778D01*
X022126Y007795D01*
X022107Y007814D01*
X022091Y007837D01*
X022078Y007861D01*
X022069Y007887D01*
X022063Y007914D01*
X022061Y007941D01*
X020480Y005309D02*
X020387Y005216D01*
X020410Y005239D02*
X020340Y005309D01*
X020340Y005216D02*
X020480Y005216D01*
X020457Y005162D02*
X020480Y005139D01*
X020480Y005092D01*
X020457Y005069D01*
X020363Y005069D01*
X020340Y005092D01*
X020340Y005139D01*
X020363Y005162D01*
X020410Y005162D01*
X020410Y005115D01*
X020363Y005015D02*
X020340Y004991D01*
X020340Y004921D01*
X020480Y004921D01*
X020480Y004991D01*
X020457Y005015D01*
X020363Y005015D01*
X020363Y004867D02*
X020340Y004844D01*
X020340Y004797D01*
X020363Y004774D01*
X020363Y004720D02*
X020340Y004697D01*
X020340Y004650D01*
X020363Y004627D01*
X020363Y004573D02*
X020340Y004549D01*
X020340Y004503D01*
X020363Y004479D01*
X020340Y004425D02*
X020340Y004332D01*
X020433Y004425D01*
X020457Y004425D01*
X020480Y004402D01*
X020480Y004355D01*
X020457Y004332D01*
X020433Y004278D02*
X020340Y004278D01*
X020410Y004278D02*
X020410Y004185D01*
X020433Y004185D02*
X020480Y004231D01*
X020433Y004278D01*
X020433Y004185D02*
X020340Y004185D01*
X020410Y004131D02*
X020387Y004107D01*
X020387Y004037D01*
X020340Y004037D02*
X020480Y004037D01*
X020480Y004107D01*
X020457Y004131D01*
X020410Y004131D01*
X020363Y003983D02*
X020340Y003960D01*
X020340Y003913D01*
X020363Y003890D01*
X020457Y003890D01*
X020480Y003913D01*
X020480Y003960D01*
X020457Y003983D01*
X020363Y003983D01*
X020457Y004479D02*
X020480Y004503D01*
X020480Y004549D01*
X020457Y004573D01*
X020433Y004573D01*
X020410Y004549D01*
X020387Y004573D01*
X020363Y004573D01*
X020410Y004549D02*
X020410Y004526D01*
X020457Y004627D02*
X020480Y004650D01*
X020480Y004697D01*
X020457Y004720D01*
X020433Y004720D01*
X020410Y004697D01*
X020387Y004720D01*
X020363Y004720D01*
X020410Y004697D02*
X020410Y004673D01*
X020457Y004774D02*
X020480Y004797D01*
X020480Y004844D01*
X020457Y004867D01*
X020433Y004867D01*
X020410Y004844D01*
X020387Y004867D01*
X020363Y004867D01*
X020410Y004844D02*
X020410Y004821D01*
X019061Y004941D02*
X019063Y004968D01*
X019069Y004995D01*
X019078Y005021D01*
X019091Y005045D01*
X019107Y005068D01*
X019126Y005087D01*
X019148Y005104D01*
X019172Y005118D01*
X019197Y005128D01*
X019224Y005135D01*
X019251Y005138D01*
X019279Y005137D01*
X019306Y005132D01*
X019332Y005124D01*
X019356Y005112D01*
X019379Y005096D01*
X019400Y005078D01*
X019417Y005057D01*
X019432Y005033D01*
X019443Y005008D01*
X019451Y004982D01*
X019455Y004955D01*
X019455Y004927D01*
X019451Y004900D01*
X019443Y004874D01*
X019432Y004849D01*
X019417Y004825D01*
X019400Y004804D01*
X019379Y004786D01*
X019357Y004770D01*
X019332Y004758D01*
X019306Y004750D01*
X019279Y004745D01*
X019251Y004744D01*
X019224Y004747D01*
X019197Y004754D01*
X019172Y004764D01*
X019148Y004778D01*
X019126Y004795D01*
X019107Y004814D01*
X019091Y004837D01*
X019078Y004861D01*
X019069Y004887D01*
X019063Y004914D01*
X019061Y004941D01*
X024620Y014140D02*
X024840Y014140D01*
X024620Y014287D01*
X024840Y014287D01*
X024730Y014361D02*
X024730Y014508D01*
X024730Y014582D02*
X024730Y014729D01*
X024730Y014803D02*
X024730Y014876D01*
X024840Y014803D02*
X024620Y014803D01*
X024620Y014950D01*
X024620Y015024D02*
X024840Y015171D01*
X024840Y015245D02*
X024620Y015245D01*
X024620Y015171D02*
X024840Y015024D01*
X024840Y014950D02*
X024840Y014803D01*
X024840Y014729D02*
X024620Y014729D01*
X024620Y014582D02*
X024840Y014582D01*
X024840Y015245D02*
X024840Y015392D01*
X024840Y015466D02*
X024620Y015466D01*
X024620Y015613D01*
X024730Y015539D02*
X024730Y015466D01*
X024840Y015466D02*
X024840Y015613D01*
X024840Y015687D02*
X024840Y015834D01*
X024840Y015760D02*
X024620Y015760D01*
X024730Y015908D02*
X024730Y016055D01*
X024803Y016129D02*
X024840Y016166D01*
X024840Y016239D01*
X024803Y016276D01*
X024767Y016276D01*
X024620Y016129D01*
X024620Y016276D01*
X024620Y016350D02*
X024620Y016460D01*
X024657Y016497D01*
X024803Y016497D01*
X024840Y016460D01*
X024840Y016350D01*
X024620Y016350D01*
X024583Y016571D02*
X024583Y016718D01*
X024657Y016792D02*
X024620Y016829D01*
X024620Y016902D01*
X024657Y016939D01*
X024693Y016939D01*
X024730Y016902D01*
X024730Y016829D01*
X024767Y016792D01*
X024803Y016792D01*
X024840Y016829D01*
X024840Y016902D01*
X024803Y016939D01*
X024803Y017013D02*
X024657Y017013D01*
X024620Y017050D01*
X024620Y017123D01*
X024657Y017160D01*
X024803Y017160D01*
X024840Y017123D01*
X024840Y017050D01*
X024803Y017013D01*
X024840Y017234D02*
X024840Y017381D01*
X024840Y017307D02*
X024620Y017307D01*
X024620Y017455D02*
X024767Y017602D01*
X024803Y017602D01*
X024840Y017565D01*
X024840Y017492D01*
X024803Y017455D01*
X024620Y017455D02*
X024620Y017602D01*
X024657Y017676D02*
X024620Y017713D01*
X024620Y017786D01*
X024657Y017823D01*
X024693Y017823D01*
X024730Y017786D01*
X024730Y017749D01*
X024730Y017786D02*
X024767Y017823D01*
X024803Y017823D01*
X024840Y017786D01*
X024840Y017713D01*
X024803Y017676D01*
X024803Y017897D02*
X024840Y017933D01*
X024840Y018007D01*
X024803Y018044D01*
X024767Y018044D01*
X024620Y017897D01*
X024620Y018044D01*
X024730Y018118D02*
X024730Y018265D01*
X024730Y015318D02*
X024730Y015245D01*
D14*
X024083Y003933D03*
D15*
X024420Y016430D02*
X021840Y016430D01*
X021840Y017830D01*
X024420Y017830D01*
X024420Y016430D01*
M02*
