G75*
%MOIN*%
%OFA0B0*%
%FSLAX25Y25*%
%IPPOS*%
%LPD*%
%AMOC8*
5,1,8,0,0,1.08239X$1,22.5*
%
%ADD10C,0.00000*%
%ADD11C,0.12211*%
%ADD12C,0.01581*%
%ADD13C,0.06400*%
%ADD14OC8,0.06400*%
%ADD15R,0.05000X0.06700*%
%ADD16R,0.00600X0.07200*%
%ADD17R,0.06400X0.06400*%
%ADD18C,0.06400*%
D10*
X0007378Y0003500D02*
X0007378Y0168500D01*
X0279878Y0168500D01*
X0279878Y0003500D01*
X0007378Y0003500D01*
X0050710Y0032156D02*
X0050712Y0032204D01*
X0050718Y0032252D01*
X0050728Y0032299D01*
X0050741Y0032345D01*
X0050759Y0032390D01*
X0050779Y0032434D01*
X0050804Y0032476D01*
X0050832Y0032515D01*
X0050862Y0032552D01*
X0050896Y0032586D01*
X0050933Y0032618D01*
X0050971Y0032647D01*
X0051012Y0032672D01*
X0051055Y0032694D01*
X0051100Y0032712D01*
X0051146Y0032726D01*
X0051193Y0032737D01*
X0051241Y0032744D01*
X0051289Y0032747D01*
X0051337Y0032746D01*
X0051385Y0032741D01*
X0051433Y0032732D01*
X0051479Y0032720D01*
X0051524Y0032703D01*
X0051568Y0032683D01*
X0051610Y0032660D01*
X0051650Y0032633D01*
X0051688Y0032603D01*
X0051723Y0032570D01*
X0051755Y0032534D01*
X0051785Y0032496D01*
X0051811Y0032455D01*
X0051833Y0032412D01*
X0051853Y0032368D01*
X0051868Y0032323D01*
X0051880Y0032276D01*
X0051888Y0032228D01*
X0051892Y0032180D01*
X0051892Y0032132D01*
X0051888Y0032084D01*
X0051880Y0032036D01*
X0051868Y0031989D01*
X0051853Y0031944D01*
X0051833Y0031900D01*
X0051811Y0031857D01*
X0051785Y0031816D01*
X0051755Y0031778D01*
X0051723Y0031742D01*
X0051688Y0031709D01*
X0051650Y0031679D01*
X0051610Y0031652D01*
X0051568Y0031629D01*
X0051524Y0031609D01*
X0051479Y0031592D01*
X0051433Y0031580D01*
X0051385Y0031571D01*
X0051337Y0031566D01*
X0051289Y0031565D01*
X0051241Y0031568D01*
X0051193Y0031575D01*
X0051146Y0031586D01*
X0051100Y0031600D01*
X0051055Y0031618D01*
X0051012Y0031640D01*
X0050971Y0031665D01*
X0050933Y0031694D01*
X0050896Y0031726D01*
X0050862Y0031760D01*
X0050832Y0031797D01*
X0050804Y0031836D01*
X0050779Y0031878D01*
X0050759Y0031922D01*
X0050741Y0031967D01*
X0050728Y0032013D01*
X0050718Y0032060D01*
X0050712Y0032108D01*
X0050710Y0032156D01*
X0053662Y0034125D02*
X0053664Y0034173D01*
X0053670Y0034221D01*
X0053680Y0034268D01*
X0053693Y0034314D01*
X0053711Y0034359D01*
X0053731Y0034403D01*
X0053756Y0034445D01*
X0053784Y0034484D01*
X0053814Y0034521D01*
X0053848Y0034555D01*
X0053885Y0034587D01*
X0053923Y0034616D01*
X0053964Y0034641D01*
X0054007Y0034663D01*
X0054052Y0034681D01*
X0054098Y0034695D01*
X0054145Y0034706D01*
X0054193Y0034713D01*
X0054241Y0034716D01*
X0054289Y0034715D01*
X0054337Y0034710D01*
X0054385Y0034701D01*
X0054431Y0034689D01*
X0054476Y0034672D01*
X0054520Y0034652D01*
X0054562Y0034629D01*
X0054602Y0034602D01*
X0054640Y0034572D01*
X0054675Y0034539D01*
X0054707Y0034503D01*
X0054737Y0034465D01*
X0054763Y0034424D01*
X0054785Y0034381D01*
X0054805Y0034337D01*
X0054820Y0034292D01*
X0054832Y0034245D01*
X0054840Y0034197D01*
X0054844Y0034149D01*
X0054844Y0034101D01*
X0054840Y0034053D01*
X0054832Y0034005D01*
X0054820Y0033958D01*
X0054805Y0033913D01*
X0054785Y0033869D01*
X0054763Y0033826D01*
X0054737Y0033785D01*
X0054707Y0033747D01*
X0054675Y0033711D01*
X0054640Y0033678D01*
X0054602Y0033648D01*
X0054562Y0033621D01*
X0054520Y0033598D01*
X0054476Y0033578D01*
X0054431Y0033561D01*
X0054385Y0033549D01*
X0054337Y0033540D01*
X0054289Y0033535D01*
X0054241Y0033534D01*
X0054193Y0033537D01*
X0054145Y0033544D01*
X0054098Y0033555D01*
X0054052Y0033569D01*
X0054007Y0033587D01*
X0053964Y0033609D01*
X0053923Y0033634D01*
X0053885Y0033663D01*
X0053848Y0033695D01*
X0053814Y0033729D01*
X0053784Y0033766D01*
X0053756Y0033805D01*
X0053731Y0033847D01*
X0053711Y0033891D01*
X0053693Y0033936D01*
X0053680Y0033982D01*
X0053670Y0034029D01*
X0053664Y0034077D01*
X0053662Y0034125D01*
X0050710Y0036094D02*
X0050712Y0036142D01*
X0050718Y0036190D01*
X0050728Y0036237D01*
X0050741Y0036283D01*
X0050759Y0036328D01*
X0050779Y0036372D01*
X0050804Y0036414D01*
X0050832Y0036453D01*
X0050862Y0036490D01*
X0050896Y0036524D01*
X0050933Y0036556D01*
X0050971Y0036585D01*
X0051012Y0036610D01*
X0051055Y0036632D01*
X0051100Y0036650D01*
X0051146Y0036664D01*
X0051193Y0036675D01*
X0051241Y0036682D01*
X0051289Y0036685D01*
X0051337Y0036684D01*
X0051385Y0036679D01*
X0051433Y0036670D01*
X0051479Y0036658D01*
X0051524Y0036641D01*
X0051568Y0036621D01*
X0051610Y0036598D01*
X0051650Y0036571D01*
X0051688Y0036541D01*
X0051723Y0036508D01*
X0051755Y0036472D01*
X0051785Y0036434D01*
X0051811Y0036393D01*
X0051833Y0036350D01*
X0051853Y0036306D01*
X0051868Y0036261D01*
X0051880Y0036214D01*
X0051888Y0036166D01*
X0051892Y0036118D01*
X0051892Y0036070D01*
X0051888Y0036022D01*
X0051880Y0035974D01*
X0051868Y0035927D01*
X0051853Y0035882D01*
X0051833Y0035838D01*
X0051811Y0035795D01*
X0051785Y0035754D01*
X0051755Y0035716D01*
X0051723Y0035680D01*
X0051688Y0035647D01*
X0051650Y0035617D01*
X0051610Y0035590D01*
X0051568Y0035567D01*
X0051524Y0035547D01*
X0051479Y0035530D01*
X0051433Y0035518D01*
X0051385Y0035509D01*
X0051337Y0035504D01*
X0051289Y0035503D01*
X0051241Y0035506D01*
X0051193Y0035513D01*
X0051146Y0035524D01*
X0051100Y0035538D01*
X0051055Y0035556D01*
X0051012Y0035578D01*
X0050971Y0035603D01*
X0050933Y0035632D01*
X0050896Y0035664D01*
X0050862Y0035698D01*
X0050832Y0035735D01*
X0050804Y0035774D01*
X0050779Y0035816D01*
X0050759Y0035860D01*
X0050741Y0035905D01*
X0050728Y0035951D01*
X0050718Y0035998D01*
X0050712Y0036046D01*
X0050710Y0036094D01*
X0056615Y0036094D02*
X0056617Y0036142D01*
X0056623Y0036190D01*
X0056633Y0036237D01*
X0056646Y0036283D01*
X0056664Y0036328D01*
X0056684Y0036372D01*
X0056709Y0036414D01*
X0056737Y0036453D01*
X0056767Y0036490D01*
X0056801Y0036524D01*
X0056838Y0036556D01*
X0056876Y0036585D01*
X0056917Y0036610D01*
X0056960Y0036632D01*
X0057005Y0036650D01*
X0057051Y0036664D01*
X0057098Y0036675D01*
X0057146Y0036682D01*
X0057194Y0036685D01*
X0057242Y0036684D01*
X0057290Y0036679D01*
X0057338Y0036670D01*
X0057384Y0036658D01*
X0057429Y0036641D01*
X0057473Y0036621D01*
X0057515Y0036598D01*
X0057555Y0036571D01*
X0057593Y0036541D01*
X0057628Y0036508D01*
X0057660Y0036472D01*
X0057690Y0036434D01*
X0057716Y0036393D01*
X0057738Y0036350D01*
X0057758Y0036306D01*
X0057773Y0036261D01*
X0057785Y0036214D01*
X0057793Y0036166D01*
X0057797Y0036118D01*
X0057797Y0036070D01*
X0057793Y0036022D01*
X0057785Y0035974D01*
X0057773Y0035927D01*
X0057758Y0035882D01*
X0057738Y0035838D01*
X0057716Y0035795D01*
X0057690Y0035754D01*
X0057660Y0035716D01*
X0057628Y0035680D01*
X0057593Y0035647D01*
X0057555Y0035617D01*
X0057515Y0035590D01*
X0057473Y0035567D01*
X0057429Y0035547D01*
X0057384Y0035530D01*
X0057338Y0035518D01*
X0057290Y0035509D01*
X0057242Y0035504D01*
X0057194Y0035503D01*
X0057146Y0035506D01*
X0057098Y0035513D01*
X0057051Y0035524D01*
X0057005Y0035538D01*
X0056960Y0035556D01*
X0056917Y0035578D01*
X0056876Y0035603D01*
X0056838Y0035632D01*
X0056801Y0035664D01*
X0056767Y0035698D01*
X0056737Y0035735D01*
X0056709Y0035774D01*
X0056684Y0035816D01*
X0056664Y0035860D01*
X0056646Y0035905D01*
X0056633Y0035951D01*
X0056623Y0035998D01*
X0056617Y0036046D01*
X0056615Y0036094D01*
X0056615Y0032156D02*
X0056617Y0032204D01*
X0056623Y0032252D01*
X0056633Y0032299D01*
X0056646Y0032345D01*
X0056664Y0032390D01*
X0056684Y0032434D01*
X0056709Y0032476D01*
X0056737Y0032515D01*
X0056767Y0032552D01*
X0056801Y0032586D01*
X0056838Y0032618D01*
X0056876Y0032647D01*
X0056917Y0032672D01*
X0056960Y0032694D01*
X0057005Y0032712D01*
X0057051Y0032726D01*
X0057098Y0032737D01*
X0057146Y0032744D01*
X0057194Y0032747D01*
X0057242Y0032746D01*
X0057290Y0032741D01*
X0057338Y0032732D01*
X0057384Y0032720D01*
X0057429Y0032703D01*
X0057473Y0032683D01*
X0057515Y0032660D01*
X0057555Y0032633D01*
X0057593Y0032603D01*
X0057628Y0032570D01*
X0057660Y0032534D01*
X0057690Y0032496D01*
X0057716Y0032455D01*
X0057738Y0032412D01*
X0057758Y0032368D01*
X0057773Y0032323D01*
X0057785Y0032276D01*
X0057793Y0032228D01*
X0057797Y0032180D01*
X0057797Y0032132D01*
X0057793Y0032084D01*
X0057785Y0032036D01*
X0057773Y0031989D01*
X0057758Y0031944D01*
X0057738Y0031900D01*
X0057716Y0031857D01*
X0057690Y0031816D01*
X0057660Y0031778D01*
X0057628Y0031742D01*
X0057593Y0031709D01*
X0057555Y0031679D01*
X0057515Y0031652D01*
X0057473Y0031629D01*
X0057429Y0031609D01*
X0057384Y0031592D01*
X0057338Y0031580D01*
X0057290Y0031571D01*
X0057242Y0031566D01*
X0057194Y0031565D01*
X0057146Y0031568D01*
X0057098Y0031575D01*
X0057051Y0031586D01*
X0057005Y0031600D01*
X0056960Y0031618D01*
X0056917Y0031640D01*
X0056876Y0031665D01*
X0056838Y0031694D01*
X0056801Y0031726D01*
X0056767Y0031760D01*
X0056737Y0031797D01*
X0056709Y0031836D01*
X0056684Y0031878D01*
X0056664Y0031922D01*
X0056646Y0031967D01*
X0056633Y0032013D01*
X0056623Y0032060D01*
X0056617Y0032108D01*
X0056615Y0032156D01*
X0028972Y0136000D02*
X0028974Y0136153D01*
X0028980Y0136307D01*
X0028990Y0136460D01*
X0029004Y0136612D01*
X0029022Y0136765D01*
X0029044Y0136916D01*
X0029069Y0137067D01*
X0029099Y0137218D01*
X0029133Y0137368D01*
X0029170Y0137516D01*
X0029211Y0137664D01*
X0029256Y0137810D01*
X0029305Y0137956D01*
X0029358Y0138100D01*
X0029414Y0138242D01*
X0029474Y0138383D01*
X0029538Y0138523D01*
X0029605Y0138661D01*
X0029676Y0138797D01*
X0029751Y0138931D01*
X0029828Y0139063D01*
X0029910Y0139193D01*
X0029994Y0139321D01*
X0030082Y0139447D01*
X0030173Y0139570D01*
X0030267Y0139691D01*
X0030365Y0139809D01*
X0030465Y0139925D01*
X0030569Y0140038D01*
X0030675Y0140149D01*
X0030784Y0140257D01*
X0030896Y0140362D01*
X0031010Y0140463D01*
X0031128Y0140562D01*
X0031247Y0140658D01*
X0031369Y0140751D01*
X0031494Y0140840D01*
X0031621Y0140927D01*
X0031750Y0141009D01*
X0031881Y0141089D01*
X0032014Y0141165D01*
X0032149Y0141238D01*
X0032286Y0141307D01*
X0032425Y0141372D01*
X0032565Y0141434D01*
X0032707Y0141492D01*
X0032850Y0141547D01*
X0032995Y0141598D01*
X0033141Y0141645D01*
X0033288Y0141688D01*
X0033436Y0141727D01*
X0033585Y0141763D01*
X0033735Y0141794D01*
X0033886Y0141822D01*
X0034037Y0141846D01*
X0034190Y0141866D01*
X0034342Y0141882D01*
X0034495Y0141894D01*
X0034648Y0141902D01*
X0034801Y0141906D01*
X0034955Y0141906D01*
X0035108Y0141902D01*
X0035261Y0141894D01*
X0035414Y0141882D01*
X0035566Y0141866D01*
X0035719Y0141846D01*
X0035870Y0141822D01*
X0036021Y0141794D01*
X0036171Y0141763D01*
X0036320Y0141727D01*
X0036468Y0141688D01*
X0036615Y0141645D01*
X0036761Y0141598D01*
X0036906Y0141547D01*
X0037049Y0141492D01*
X0037191Y0141434D01*
X0037331Y0141372D01*
X0037470Y0141307D01*
X0037607Y0141238D01*
X0037742Y0141165D01*
X0037875Y0141089D01*
X0038006Y0141009D01*
X0038135Y0140927D01*
X0038262Y0140840D01*
X0038387Y0140751D01*
X0038509Y0140658D01*
X0038628Y0140562D01*
X0038746Y0140463D01*
X0038860Y0140362D01*
X0038972Y0140257D01*
X0039081Y0140149D01*
X0039187Y0140038D01*
X0039291Y0139925D01*
X0039391Y0139809D01*
X0039489Y0139691D01*
X0039583Y0139570D01*
X0039674Y0139447D01*
X0039762Y0139321D01*
X0039846Y0139193D01*
X0039928Y0139063D01*
X0040005Y0138931D01*
X0040080Y0138797D01*
X0040151Y0138661D01*
X0040218Y0138523D01*
X0040282Y0138383D01*
X0040342Y0138242D01*
X0040398Y0138100D01*
X0040451Y0137956D01*
X0040500Y0137810D01*
X0040545Y0137664D01*
X0040586Y0137516D01*
X0040623Y0137368D01*
X0040657Y0137218D01*
X0040687Y0137067D01*
X0040712Y0136916D01*
X0040734Y0136765D01*
X0040752Y0136612D01*
X0040766Y0136460D01*
X0040776Y0136307D01*
X0040782Y0136153D01*
X0040784Y0136000D01*
X0040782Y0135847D01*
X0040776Y0135693D01*
X0040766Y0135540D01*
X0040752Y0135388D01*
X0040734Y0135235D01*
X0040712Y0135084D01*
X0040687Y0134933D01*
X0040657Y0134782D01*
X0040623Y0134632D01*
X0040586Y0134484D01*
X0040545Y0134336D01*
X0040500Y0134190D01*
X0040451Y0134044D01*
X0040398Y0133900D01*
X0040342Y0133758D01*
X0040282Y0133617D01*
X0040218Y0133477D01*
X0040151Y0133339D01*
X0040080Y0133203D01*
X0040005Y0133069D01*
X0039928Y0132937D01*
X0039846Y0132807D01*
X0039762Y0132679D01*
X0039674Y0132553D01*
X0039583Y0132430D01*
X0039489Y0132309D01*
X0039391Y0132191D01*
X0039291Y0132075D01*
X0039187Y0131962D01*
X0039081Y0131851D01*
X0038972Y0131743D01*
X0038860Y0131638D01*
X0038746Y0131537D01*
X0038628Y0131438D01*
X0038509Y0131342D01*
X0038387Y0131249D01*
X0038262Y0131160D01*
X0038135Y0131073D01*
X0038006Y0130991D01*
X0037875Y0130911D01*
X0037742Y0130835D01*
X0037607Y0130762D01*
X0037470Y0130693D01*
X0037331Y0130628D01*
X0037191Y0130566D01*
X0037049Y0130508D01*
X0036906Y0130453D01*
X0036761Y0130402D01*
X0036615Y0130355D01*
X0036468Y0130312D01*
X0036320Y0130273D01*
X0036171Y0130237D01*
X0036021Y0130206D01*
X0035870Y0130178D01*
X0035719Y0130154D01*
X0035566Y0130134D01*
X0035414Y0130118D01*
X0035261Y0130106D01*
X0035108Y0130098D01*
X0034955Y0130094D01*
X0034801Y0130094D01*
X0034648Y0130098D01*
X0034495Y0130106D01*
X0034342Y0130118D01*
X0034190Y0130134D01*
X0034037Y0130154D01*
X0033886Y0130178D01*
X0033735Y0130206D01*
X0033585Y0130237D01*
X0033436Y0130273D01*
X0033288Y0130312D01*
X0033141Y0130355D01*
X0032995Y0130402D01*
X0032850Y0130453D01*
X0032707Y0130508D01*
X0032565Y0130566D01*
X0032425Y0130628D01*
X0032286Y0130693D01*
X0032149Y0130762D01*
X0032014Y0130835D01*
X0031881Y0130911D01*
X0031750Y0130991D01*
X0031621Y0131073D01*
X0031494Y0131160D01*
X0031369Y0131249D01*
X0031247Y0131342D01*
X0031128Y0131438D01*
X0031010Y0131537D01*
X0030896Y0131638D01*
X0030784Y0131743D01*
X0030675Y0131851D01*
X0030569Y0131962D01*
X0030465Y0132075D01*
X0030365Y0132191D01*
X0030267Y0132309D01*
X0030173Y0132430D01*
X0030082Y0132553D01*
X0029994Y0132679D01*
X0029910Y0132807D01*
X0029828Y0132937D01*
X0029751Y0133069D01*
X0029676Y0133203D01*
X0029605Y0133339D01*
X0029538Y0133477D01*
X0029474Y0133617D01*
X0029414Y0133758D01*
X0029358Y0133900D01*
X0029305Y0134044D01*
X0029256Y0134190D01*
X0029211Y0134336D01*
X0029170Y0134484D01*
X0029133Y0134632D01*
X0029099Y0134782D01*
X0029069Y0134933D01*
X0029044Y0135084D01*
X0029022Y0135235D01*
X0029004Y0135388D01*
X0028990Y0135540D01*
X0028980Y0135693D01*
X0028974Y0135847D01*
X0028972Y0136000D01*
X0238972Y0136000D02*
X0238974Y0136153D01*
X0238980Y0136307D01*
X0238990Y0136460D01*
X0239004Y0136612D01*
X0239022Y0136765D01*
X0239044Y0136916D01*
X0239069Y0137067D01*
X0239099Y0137218D01*
X0239133Y0137368D01*
X0239170Y0137516D01*
X0239211Y0137664D01*
X0239256Y0137810D01*
X0239305Y0137956D01*
X0239358Y0138100D01*
X0239414Y0138242D01*
X0239474Y0138383D01*
X0239538Y0138523D01*
X0239605Y0138661D01*
X0239676Y0138797D01*
X0239751Y0138931D01*
X0239828Y0139063D01*
X0239910Y0139193D01*
X0239994Y0139321D01*
X0240082Y0139447D01*
X0240173Y0139570D01*
X0240267Y0139691D01*
X0240365Y0139809D01*
X0240465Y0139925D01*
X0240569Y0140038D01*
X0240675Y0140149D01*
X0240784Y0140257D01*
X0240896Y0140362D01*
X0241010Y0140463D01*
X0241128Y0140562D01*
X0241247Y0140658D01*
X0241369Y0140751D01*
X0241494Y0140840D01*
X0241621Y0140927D01*
X0241750Y0141009D01*
X0241881Y0141089D01*
X0242014Y0141165D01*
X0242149Y0141238D01*
X0242286Y0141307D01*
X0242425Y0141372D01*
X0242565Y0141434D01*
X0242707Y0141492D01*
X0242850Y0141547D01*
X0242995Y0141598D01*
X0243141Y0141645D01*
X0243288Y0141688D01*
X0243436Y0141727D01*
X0243585Y0141763D01*
X0243735Y0141794D01*
X0243886Y0141822D01*
X0244037Y0141846D01*
X0244190Y0141866D01*
X0244342Y0141882D01*
X0244495Y0141894D01*
X0244648Y0141902D01*
X0244801Y0141906D01*
X0244955Y0141906D01*
X0245108Y0141902D01*
X0245261Y0141894D01*
X0245414Y0141882D01*
X0245566Y0141866D01*
X0245719Y0141846D01*
X0245870Y0141822D01*
X0246021Y0141794D01*
X0246171Y0141763D01*
X0246320Y0141727D01*
X0246468Y0141688D01*
X0246615Y0141645D01*
X0246761Y0141598D01*
X0246906Y0141547D01*
X0247049Y0141492D01*
X0247191Y0141434D01*
X0247331Y0141372D01*
X0247470Y0141307D01*
X0247607Y0141238D01*
X0247742Y0141165D01*
X0247875Y0141089D01*
X0248006Y0141009D01*
X0248135Y0140927D01*
X0248262Y0140840D01*
X0248387Y0140751D01*
X0248509Y0140658D01*
X0248628Y0140562D01*
X0248746Y0140463D01*
X0248860Y0140362D01*
X0248972Y0140257D01*
X0249081Y0140149D01*
X0249187Y0140038D01*
X0249291Y0139925D01*
X0249391Y0139809D01*
X0249489Y0139691D01*
X0249583Y0139570D01*
X0249674Y0139447D01*
X0249762Y0139321D01*
X0249846Y0139193D01*
X0249928Y0139063D01*
X0250005Y0138931D01*
X0250080Y0138797D01*
X0250151Y0138661D01*
X0250218Y0138523D01*
X0250282Y0138383D01*
X0250342Y0138242D01*
X0250398Y0138100D01*
X0250451Y0137956D01*
X0250500Y0137810D01*
X0250545Y0137664D01*
X0250586Y0137516D01*
X0250623Y0137368D01*
X0250657Y0137218D01*
X0250687Y0137067D01*
X0250712Y0136916D01*
X0250734Y0136765D01*
X0250752Y0136612D01*
X0250766Y0136460D01*
X0250776Y0136307D01*
X0250782Y0136153D01*
X0250784Y0136000D01*
X0250782Y0135847D01*
X0250776Y0135693D01*
X0250766Y0135540D01*
X0250752Y0135388D01*
X0250734Y0135235D01*
X0250712Y0135084D01*
X0250687Y0134933D01*
X0250657Y0134782D01*
X0250623Y0134632D01*
X0250586Y0134484D01*
X0250545Y0134336D01*
X0250500Y0134190D01*
X0250451Y0134044D01*
X0250398Y0133900D01*
X0250342Y0133758D01*
X0250282Y0133617D01*
X0250218Y0133477D01*
X0250151Y0133339D01*
X0250080Y0133203D01*
X0250005Y0133069D01*
X0249928Y0132937D01*
X0249846Y0132807D01*
X0249762Y0132679D01*
X0249674Y0132553D01*
X0249583Y0132430D01*
X0249489Y0132309D01*
X0249391Y0132191D01*
X0249291Y0132075D01*
X0249187Y0131962D01*
X0249081Y0131851D01*
X0248972Y0131743D01*
X0248860Y0131638D01*
X0248746Y0131537D01*
X0248628Y0131438D01*
X0248509Y0131342D01*
X0248387Y0131249D01*
X0248262Y0131160D01*
X0248135Y0131073D01*
X0248006Y0130991D01*
X0247875Y0130911D01*
X0247742Y0130835D01*
X0247607Y0130762D01*
X0247470Y0130693D01*
X0247331Y0130628D01*
X0247191Y0130566D01*
X0247049Y0130508D01*
X0246906Y0130453D01*
X0246761Y0130402D01*
X0246615Y0130355D01*
X0246468Y0130312D01*
X0246320Y0130273D01*
X0246171Y0130237D01*
X0246021Y0130206D01*
X0245870Y0130178D01*
X0245719Y0130154D01*
X0245566Y0130134D01*
X0245414Y0130118D01*
X0245261Y0130106D01*
X0245108Y0130098D01*
X0244955Y0130094D01*
X0244801Y0130094D01*
X0244648Y0130098D01*
X0244495Y0130106D01*
X0244342Y0130118D01*
X0244190Y0130134D01*
X0244037Y0130154D01*
X0243886Y0130178D01*
X0243735Y0130206D01*
X0243585Y0130237D01*
X0243436Y0130273D01*
X0243288Y0130312D01*
X0243141Y0130355D01*
X0242995Y0130402D01*
X0242850Y0130453D01*
X0242707Y0130508D01*
X0242565Y0130566D01*
X0242425Y0130628D01*
X0242286Y0130693D01*
X0242149Y0130762D01*
X0242014Y0130835D01*
X0241881Y0130911D01*
X0241750Y0130991D01*
X0241621Y0131073D01*
X0241494Y0131160D01*
X0241369Y0131249D01*
X0241247Y0131342D01*
X0241128Y0131438D01*
X0241010Y0131537D01*
X0240896Y0131638D01*
X0240784Y0131743D01*
X0240675Y0131851D01*
X0240569Y0131962D01*
X0240465Y0132075D01*
X0240365Y0132191D01*
X0240267Y0132309D01*
X0240173Y0132430D01*
X0240082Y0132553D01*
X0239994Y0132679D01*
X0239910Y0132807D01*
X0239828Y0132937D01*
X0239751Y0133069D01*
X0239676Y0133203D01*
X0239605Y0133339D01*
X0239538Y0133477D01*
X0239474Y0133617D01*
X0239414Y0133758D01*
X0239358Y0133900D01*
X0239305Y0134044D01*
X0239256Y0134190D01*
X0239211Y0134336D01*
X0239170Y0134484D01*
X0239133Y0134632D01*
X0239099Y0134782D01*
X0239069Y0134933D01*
X0239044Y0135084D01*
X0239022Y0135235D01*
X0239004Y0135388D01*
X0238990Y0135540D01*
X0238980Y0135693D01*
X0238974Y0135847D01*
X0238972Y0136000D01*
D11*
X0244878Y0136000D03*
X0034878Y0136000D03*
D12*
X0051301Y0036094D03*
X0054253Y0034125D03*
X0051301Y0032156D03*
X0057206Y0032156D03*
X0057206Y0036094D03*
D13*
X0088978Y0013900D02*
X0088978Y0007900D01*
X0098978Y0007900D02*
X0098978Y0013900D01*
X0108978Y0013900D02*
X0108978Y0007900D01*
X0118978Y0007900D02*
X0118978Y0013900D01*
X0128978Y0013900D02*
X0128978Y0007900D01*
X0138978Y0007900D02*
X0138978Y0013900D01*
X0148978Y0013900D02*
X0148978Y0007900D01*
X0158978Y0007900D02*
X0158978Y0013900D01*
X0168978Y0014000D02*
X0168978Y0008000D01*
X0178978Y0008000D02*
X0178978Y0014000D01*
X0188978Y0014000D02*
X0188978Y0008000D01*
X0198978Y0008000D02*
X0198978Y0014000D01*
X0208978Y0014000D02*
X0208978Y0008000D01*
X0218978Y0008000D02*
X0218978Y0014000D01*
X0228978Y0014000D02*
X0228978Y0008000D01*
X0238978Y0008000D02*
X0238978Y0014000D01*
X0269378Y0053500D02*
X0275378Y0053500D01*
X0275378Y0063500D02*
X0269378Y0063500D01*
X0269378Y0073500D02*
X0275378Y0073500D01*
X0275378Y0083500D02*
X0269378Y0083500D01*
X0269378Y0093500D02*
X0275378Y0093500D01*
X0275378Y0103500D02*
X0269378Y0103500D01*
X0269378Y0113500D02*
X0275378Y0113500D01*
X0275378Y0123500D02*
X0269378Y0123500D01*
X0269378Y0133500D02*
X0275378Y0133500D01*
X0275378Y0143500D02*
X0269378Y0143500D01*
X0269378Y0153500D02*
X0275378Y0153500D01*
X0259878Y0158000D02*
X0259878Y0164000D01*
X0249878Y0164000D02*
X0249878Y0158000D01*
X0239878Y0158000D02*
X0239878Y0164000D01*
X0229878Y0164000D02*
X0229878Y0158000D01*
X0219878Y0158000D02*
X0219878Y0164000D01*
X0209878Y0164000D02*
X0209878Y0158000D01*
X0199878Y0158000D02*
X0199878Y0164000D01*
X0189878Y0164000D02*
X0189878Y0158000D01*
X0145678Y0157475D02*
X0145678Y0163475D01*
X0135678Y0163475D02*
X0135678Y0157475D01*
X0125678Y0157475D02*
X0125678Y0163475D01*
X0115678Y0163475D02*
X0115678Y0157475D01*
X0100503Y0142750D02*
X0100503Y0136750D01*
X0090503Y0136750D02*
X0090503Y0142750D01*
X0080503Y0142750D02*
X0080503Y0136750D01*
X0070503Y0136750D02*
X0070503Y0142750D01*
X0045678Y0157475D02*
X0045678Y0163475D01*
X0035678Y0163475D02*
X0035678Y0157475D01*
X0025678Y0157475D02*
X0025678Y0163475D01*
D14*
X0029478Y0091700D03*
X0019478Y0091700D03*
X0019478Y0081700D03*
X0029478Y0081700D03*
X0029553Y0071625D03*
X0019553Y0071625D03*
X0019553Y0061625D03*
X0029553Y0061625D03*
X0029553Y0051625D03*
X0019553Y0051625D03*
X0019553Y0041625D03*
X0029553Y0041625D03*
X0029553Y0031625D03*
X0019553Y0031625D03*
X0019553Y0021625D03*
X0029553Y0021625D03*
X0029553Y0011625D03*
X0019553Y0011625D03*
D15*
X0090678Y0028400D03*
X0096678Y0028400D03*
X0102678Y0028400D03*
X0016628Y0163500D03*
X0010628Y0163500D03*
D16*
X0013628Y0163500D03*
D17*
G36*
X0112953Y0083375D02*
X0117478Y0078850D01*
X0112953Y0074325D01*
X0108428Y0078850D01*
X0112953Y0083375D01*
G37*
D18*
X0118521Y0084418D03*
X0124089Y0089986D03*
X0129657Y0095553D03*
X0135224Y0101121D03*
X0140792Y0106689D03*
X0146360Y0112257D03*
M02*
