G75*
%MOIN*%
%OFA0B0*%
%FSLAX25Y25*%
%IPPOS*%
%LPD*%
%AMOC8*
5,1,8,0,0,1.08239X$1,22.5*
%
%ADD10C,0.00000*%
%ADD11C,0.12211*%
%ADD12R,0.04731X0.04337*%
%ADD13R,0.08077X0.06306*%
%ADD14R,0.08865X0.06699*%
%ADD15C,0.00015*%
%ADD16C,0.01581*%
%ADD17R,0.04200X0.13600*%
%ADD18R,0.04337X0.04731*%
%ADD19R,0.03550X0.03550*%
%ADD20R,0.01600X0.03000*%
%ADD21R,0.12600X0.04300*%
%ADD22C,0.06400*%
%ADD23R,0.01581X0.03550*%
%ADD24R,0.03550X0.01581*%
%ADD25R,0.03543X0.01575*%
%ADD26R,0.01575X0.03346*%
%ADD27R,0.09646X0.10433*%
%ADD28R,0.03156X0.03943*%
%ADD29R,0.05400X0.02900*%
%ADD30R,0.10400X0.05400*%
%ADD31R,0.09100X0.02800*%
%ADD32OC8,0.06400*%
%ADD33R,0.02369X0.01778*%
%ADD34R,0.01500X0.07000*%
%ADD35R,0.04731X0.07487*%
%ADD36R,0.06400X0.06400*%
%ADD37C,0.06400*%
%ADD38C,0.00050*%
D10*
X0007378Y0003500D02*
X0007378Y0168500D01*
X0279878Y0168500D01*
X0279878Y0003500D01*
X0007378Y0003500D01*
X0050710Y0032156D02*
X0050712Y0032204D01*
X0050718Y0032252D01*
X0050728Y0032299D01*
X0050741Y0032345D01*
X0050759Y0032390D01*
X0050779Y0032434D01*
X0050804Y0032476D01*
X0050832Y0032515D01*
X0050862Y0032552D01*
X0050896Y0032586D01*
X0050933Y0032618D01*
X0050971Y0032647D01*
X0051012Y0032672D01*
X0051055Y0032694D01*
X0051100Y0032712D01*
X0051146Y0032726D01*
X0051193Y0032737D01*
X0051241Y0032744D01*
X0051289Y0032747D01*
X0051337Y0032746D01*
X0051385Y0032741D01*
X0051433Y0032732D01*
X0051479Y0032720D01*
X0051524Y0032703D01*
X0051568Y0032683D01*
X0051610Y0032660D01*
X0051650Y0032633D01*
X0051688Y0032603D01*
X0051723Y0032570D01*
X0051755Y0032534D01*
X0051785Y0032496D01*
X0051811Y0032455D01*
X0051833Y0032412D01*
X0051853Y0032368D01*
X0051868Y0032323D01*
X0051880Y0032276D01*
X0051888Y0032228D01*
X0051892Y0032180D01*
X0051892Y0032132D01*
X0051888Y0032084D01*
X0051880Y0032036D01*
X0051868Y0031989D01*
X0051853Y0031944D01*
X0051833Y0031900D01*
X0051811Y0031857D01*
X0051785Y0031816D01*
X0051755Y0031778D01*
X0051723Y0031742D01*
X0051688Y0031709D01*
X0051650Y0031679D01*
X0051610Y0031652D01*
X0051568Y0031629D01*
X0051524Y0031609D01*
X0051479Y0031592D01*
X0051433Y0031580D01*
X0051385Y0031571D01*
X0051337Y0031566D01*
X0051289Y0031565D01*
X0051241Y0031568D01*
X0051193Y0031575D01*
X0051146Y0031586D01*
X0051100Y0031600D01*
X0051055Y0031618D01*
X0051012Y0031640D01*
X0050971Y0031665D01*
X0050933Y0031694D01*
X0050896Y0031726D01*
X0050862Y0031760D01*
X0050832Y0031797D01*
X0050804Y0031836D01*
X0050779Y0031878D01*
X0050759Y0031922D01*
X0050741Y0031967D01*
X0050728Y0032013D01*
X0050718Y0032060D01*
X0050712Y0032108D01*
X0050710Y0032156D01*
X0053662Y0034125D02*
X0053664Y0034173D01*
X0053670Y0034221D01*
X0053680Y0034268D01*
X0053693Y0034314D01*
X0053711Y0034359D01*
X0053731Y0034403D01*
X0053756Y0034445D01*
X0053784Y0034484D01*
X0053814Y0034521D01*
X0053848Y0034555D01*
X0053885Y0034587D01*
X0053923Y0034616D01*
X0053964Y0034641D01*
X0054007Y0034663D01*
X0054052Y0034681D01*
X0054098Y0034695D01*
X0054145Y0034706D01*
X0054193Y0034713D01*
X0054241Y0034716D01*
X0054289Y0034715D01*
X0054337Y0034710D01*
X0054385Y0034701D01*
X0054431Y0034689D01*
X0054476Y0034672D01*
X0054520Y0034652D01*
X0054562Y0034629D01*
X0054602Y0034602D01*
X0054640Y0034572D01*
X0054675Y0034539D01*
X0054707Y0034503D01*
X0054737Y0034465D01*
X0054763Y0034424D01*
X0054785Y0034381D01*
X0054805Y0034337D01*
X0054820Y0034292D01*
X0054832Y0034245D01*
X0054840Y0034197D01*
X0054844Y0034149D01*
X0054844Y0034101D01*
X0054840Y0034053D01*
X0054832Y0034005D01*
X0054820Y0033958D01*
X0054805Y0033913D01*
X0054785Y0033869D01*
X0054763Y0033826D01*
X0054737Y0033785D01*
X0054707Y0033747D01*
X0054675Y0033711D01*
X0054640Y0033678D01*
X0054602Y0033648D01*
X0054562Y0033621D01*
X0054520Y0033598D01*
X0054476Y0033578D01*
X0054431Y0033561D01*
X0054385Y0033549D01*
X0054337Y0033540D01*
X0054289Y0033535D01*
X0054241Y0033534D01*
X0054193Y0033537D01*
X0054145Y0033544D01*
X0054098Y0033555D01*
X0054052Y0033569D01*
X0054007Y0033587D01*
X0053964Y0033609D01*
X0053923Y0033634D01*
X0053885Y0033663D01*
X0053848Y0033695D01*
X0053814Y0033729D01*
X0053784Y0033766D01*
X0053756Y0033805D01*
X0053731Y0033847D01*
X0053711Y0033891D01*
X0053693Y0033936D01*
X0053680Y0033982D01*
X0053670Y0034029D01*
X0053664Y0034077D01*
X0053662Y0034125D01*
X0050710Y0036094D02*
X0050712Y0036142D01*
X0050718Y0036190D01*
X0050728Y0036237D01*
X0050741Y0036283D01*
X0050759Y0036328D01*
X0050779Y0036372D01*
X0050804Y0036414D01*
X0050832Y0036453D01*
X0050862Y0036490D01*
X0050896Y0036524D01*
X0050933Y0036556D01*
X0050971Y0036585D01*
X0051012Y0036610D01*
X0051055Y0036632D01*
X0051100Y0036650D01*
X0051146Y0036664D01*
X0051193Y0036675D01*
X0051241Y0036682D01*
X0051289Y0036685D01*
X0051337Y0036684D01*
X0051385Y0036679D01*
X0051433Y0036670D01*
X0051479Y0036658D01*
X0051524Y0036641D01*
X0051568Y0036621D01*
X0051610Y0036598D01*
X0051650Y0036571D01*
X0051688Y0036541D01*
X0051723Y0036508D01*
X0051755Y0036472D01*
X0051785Y0036434D01*
X0051811Y0036393D01*
X0051833Y0036350D01*
X0051853Y0036306D01*
X0051868Y0036261D01*
X0051880Y0036214D01*
X0051888Y0036166D01*
X0051892Y0036118D01*
X0051892Y0036070D01*
X0051888Y0036022D01*
X0051880Y0035974D01*
X0051868Y0035927D01*
X0051853Y0035882D01*
X0051833Y0035838D01*
X0051811Y0035795D01*
X0051785Y0035754D01*
X0051755Y0035716D01*
X0051723Y0035680D01*
X0051688Y0035647D01*
X0051650Y0035617D01*
X0051610Y0035590D01*
X0051568Y0035567D01*
X0051524Y0035547D01*
X0051479Y0035530D01*
X0051433Y0035518D01*
X0051385Y0035509D01*
X0051337Y0035504D01*
X0051289Y0035503D01*
X0051241Y0035506D01*
X0051193Y0035513D01*
X0051146Y0035524D01*
X0051100Y0035538D01*
X0051055Y0035556D01*
X0051012Y0035578D01*
X0050971Y0035603D01*
X0050933Y0035632D01*
X0050896Y0035664D01*
X0050862Y0035698D01*
X0050832Y0035735D01*
X0050804Y0035774D01*
X0050779Y0035816D01*
X0050759Y0035860D01*
X0050741Y0035905D01*
X0050728Y0035951D01*
X0050718Y0035998D01*
X0050712Y0036046D01*
X0050710Y0036094D01*
X0056615Y0036094D02*
X0056617Y0036142D01*
X0056623Y0036190D01*
X0056633Y0036237D01*
X0056646Y0036283D01*
X0056664Y0036328D01*
X0056684Y0036372D01*
X0056709Y0036414D01*
X0056737Y0036453D01*
X0056767Y0036490D01*
X0056801Y0036524D01*
X0056838Y0036556D01*
X0056876Y0036585D01*
X0056917Y0036610D01*
X0056960Y0036632D01*
X0057005Y0036650D01*
X0057051Y0036664D01*
X0057098Y0036675D01*
X0057146Y0036682D01*
X0057194Y0036685D01*
X0057242Y0036684D01*
X0057290Y0036679D01*
X0057338Y0036670D01*
X0057384Y0036658D01*
X0057429Y0036641D01*
X0057473Y0036621D01*
X0057515Y0036598D01*
X0057555Y0036571D01*
X0057593Y0036541D01*
X0057628Y0036508D01*
X0057660Y0036472D01*
X0057690Y0036434D01*
X0057716Y0036393D01*
X0057738Y0036350D01*
X0057758Y0036306D01*
X0057773Y0036261D01*
X0057785Y0036214D01*
X0057793Y0036166D01*
X0057797Y0036118D01*
X0057797Y0036070D01*
X0057793Y0036022D01*
X0057785Y0035974D01*
X0057773Y0035927D01*
X0057758Y0035882D01*
X0057738Y0035838D01*
X0057716Y0035795D01*
X0057690Y0035754D01*
X0057660Y0035716D01*
X0057628Y0035680D01*
X0057593Y0035647D01*
X0057555Y0035617D01*
X0057515Y0035590D01*
X0057473Y0035567D01*
X0057429Y0035547D01*
X0057384Y0035530D01*
X0057338Y0035518D01*
X0057290Y0035509D01*
X0057242Y0035504D01*
X0057194Y0035503D01*
X0057146Y0035506D01*
X0057098Y0035513D01*
X0057051Y0035524D01*
X0057005Y0035538D01*
X0056960Y0035556D01*
X0056917Y0035578D01*
X0056876Y0035603D01*
X0056838Y0035632D01*
X0056801Y0035664D01*
X0056767Y0035698D01*
X0056737Y0035735D01*
X0056709Y0035774D01*
X0056684Y0035816D01*
X0056664Y0035860D01*
X0056646Y0035905D01*
X0056633Y0035951D01*
X0056623Y0035998D01*
X0056617Y0036046D01*
X0056615Y0036094D01*
X0056615Y0032156D02*
X0056617Y0032204D01*
X0056623Y0032252D01*
X0056633Y0032299D01*
X0056646Y0032345D01*
X0056664Y0032390D01*
X0056684Y0032434D01*
X0056709Y0032476D01*
X0056737Y0032515D01*
X0056767Y0032552D01*
X0056801Y0032586D01*
X0056838Y0032618D01*
X0056876Y0032647D01*
X0056917Y0032672D01*
X0056960Y0032694D01*
X0057005Y0032712D01*
X0057051Y0032726D01*
X0057098Y0032737D01*
X0057146Y0032744D01*
X0057194Y0032747D01*
X0057242Y0032746D01*
X0057290Y0032741D01*
X0057338Y0032732D01*
X0057384Y0032720D01*
X0057429Y0032703D01*
X0057473Y0032683D01*
X0057515Y0032660D01*
X0057555Y0032633D01*
X0057593Y0032603D01*
X0057628Y0032570D01*
X0057660Y0032534D01*
X0057690Y0032496D01*
X0057716Y0032455D01*
X0057738Y0032412D01*
X0057758Y0032368D01*
X0057773Y0032323D01*
X0057785Y0032276D01*
X0057793Y0032228D01*
X0057797Y0032180D01*
X0057797Y0032132D01*
X0057793Y0032084D01*
X0057785Y0032036D01*
X0057773Y0031989D01*
X0057758Y0031944D01*
X0057738Y0031900D01*
X0057716Y0031857D01*
X0057690Y0031816D01*
X0057660Y0031778D01*
X0057628Y0031742D01*
X0057593Y0031709D01*
X0057555Y0031679D01*
X0057515Y0031652D01*
X0057473Y0031629D01*
X0057429Y0031609D01*
X0057384Y0031592D01*
X0057338Y0031580D01*
X0057290Y0031571D01*
X0057242Y0031566D01*
X0057194Y0031565D01*
X0057146Y0031568D01*
X0057098Y0031575D01*
X0057051Y0031586D01*
X0057005Y0031600D01*
X0056960Y0031618D01*
X0056917Y0031640D01*
X0056876Y0031665D01*
X0056838Y0031694D01*
X0056801Y0031726D01*
X0056767Y0031760D01*
X0056737Y0031797D01*
X0056709Y0031836D01*
X0056684Y0031878D01*
X0056664Y0031922D01*
X0056646Y0031967D01*
X0056633Y0032013D01*
X0056623Y0032060D01*
X0056617Y0032108D01*
X0056615Y0032156D01*
X0028972Y0136000D02*
X0028974Y0136153D01*
X0028980Y0136307D01*
X0028990Y0136460D01*
X0029004Y0136612D01*
X0029022Y0136765D01*
X0029044Y0136916D01*
X0029069Y0137067D01*
X0029099Y0137218D01*
X0029133Y0137368D01*
X0029170Y0137516D01*
X0029211Y0137664D01*
X0029256Y0137810D01*
X0029305Y0137956D01*
X0029358Y0138100D01*
X0029414Y0138242D01*
X0029474Y0138383D01*
X0029538Y0138523D01*
X0029605Y0138661D01*
X0029676Y0138797D01*
X0029751Y0138931D01*
X0029828Y0139063D01*
X0029910Y0139193D01*
X0029994Y0139321D01*
X0030082Y0139447D01*
X0030173Y0139570D01*
X0030267Y0139691D01*
X0030365Y0139809D01*
X0030465Y0139925D01*
X0030569Y0140038D01*
X0030675Y0140149D01*
X0030784Y0140257D01*
X0030896Y0140362D01*
X0031010Y0140463D01*
X0031128Y0140562D01*
X0031247Y0140658D01*
X0031369Y0140751D01*
X0031494Y0140840D01*
X0031621Y0140927D01*
X0031750Y0141009D01*
X0031881Y0141089D01*
X0032014Y0141165D01*
X0032149Y0141238D01*
X0032286Y0141307D01*
X0032425Y0141372D01*
X0032565Y0141434D01*
X0032707Y0141492D01*
X0032850Y0141547D01*
X0032995Y0141598D01*
X0033141Y0141645D01*
X0033288Y0141688D01*
X0033436Y0141727D01*
X0033585Y0141763D01*
X0033735Y0141794D01*
X0033886Y0141822D01*
X0034037Y0141846D01*
X0034190Y0141866D01*
X0034342Y0141882D01*
X0034495Y0141894D01*
X0034648Y0141902D01*
X0034801Y0141906D01*
X0034955Y0141906D01*
X0035108Y0141902D01*
X0035261Y0141894D01*
X0035414Y0141882D01*
X0035566Y0141866D01*
X0035719Y0141846D01*
X0035870Y0141822D01*
X0036021Y0141794D01*
X0036171Y0141763D01*
X0036320Y0141727D01*
X0036468Y0141688D01*
X0036615Y0141645D01*
X0036761Y0141598D01*
X0036906Y0141547D01*
X0037049Y0141492D01*
X0037191Y0141434D01*
X0037331Y0141372D01*
X0037470Y0141307D01*
X0037607Y0141238D01*
X0037742Y0141165D01*
X0037875Y0141089D01*
X0038006Y0141009D01*
X0038135Y0140927D01*
X0038262Y0140840D01*
X0038387Y0140751D01*
X0038509Y0140658D01*
X0038628Y0140562D01*
X0038746Y0140463D01*
X0038860Y0140362D01*
X0038972Y0140257D01*
X0039081Y0140149D01*
X0039187Y0140038D01*
X0039291Y0139925D01*
X0039391Y0139809D01*
X0039489Y0139691D01*
X0039583Y0139570D01*
X0039674Y0139447D01*
X0039762Y0139321D01*
X0039846Y0139193D01*
X0039928Y0139063D01*
X0040005Y0138931D01*
X0040080Y0138797D01*
X0040151Y0138661D01*
X0040218Y0138523D01*
X0040282Y0138383D01*
X0040342Y0138242D01*
X0040398Y0138100D01*
X0040451Y0137956D01*
X0040500Y0137810D01*
X0040545Y0137664D01*
X0040586Y0137516D01*
X0040623Y0137368D01*
X0040657Y0137218D01*
X0040687Y0137067D01*
X0040712Y0136916D01*
X0040734Y0136765D01*
X0040752Y0136612D01*
X0040766Y0136460D01*
X0040776Y0136307D01*
X0040782Y0136153D01*
X0040784Y0136000D01*
X0040782Y0135847D01*
X0040776Y0135693D01*
X0040766Y0135540D01*
X0040752Y0135388D01*
X0040734Y0135235D01*
X0040712Y0135084D01*
X0040687Y0134933D01*
X0040657Y0134782D01*
X0040623Y0134632D01*
X0040586Y0134484D01*
X0040545Y0134336D01*
X0040500Y0134190D01*
X0040451Y0134044D01*
X0040398Y0133900D01*
X0040342Y0133758D01*
X0040282Y0133617D01*
X0040218Y0133477D01*
X0040151Y0133339D01*
X0040080Y0133203D01*
X0040005Y0133069D01*
X0039928Y0132937D01*
X0039846Y0132807D01*
X0039762Y0132679D01*
X0039674Y0132553D01*
X0039583Y0132430D01*
X0039489Y0132309D01*
X0039391Y0132191D01*
X0039291Y0132075D01*
X0039187Y0131962D01*
X0039081Y0131851D01*
X0038972Y0131743D01*
X0038860Y0131638D01*
X0038746Y0131537D01*
X0038628Y0131438D01*
X0038509Y0131342D01*
X0038387Y0131249D01*
X0038262Y0131160D01*
X0038135Y0131073D01*
X0038006Y0130991D01*
X0037875Y0130911D01*
X0037742Y0130835D01*
X0037607Y0130762D01*
X0037470Y0130693D01*
X0037331Y0130628D01*
X0037191Y0130566D01*
X0037049Y0130508D01*
X0036906Y0130453D01*
X0036761Y0130402D01*
X0036615Y0130355D01*
X0036468Y0130312D01*
X0036320Y0130273D01*
X0036171Y0130237D01*
X0036021Y0130206D01*
X0035870Y0130178D01*
X0035719Y0130154D01*
X0035566Y0130134D01*
X0035414Y0130118D01*
X0035261Y0130106D01*
X0035108Y0130098D01*
X0034955Y0130094D01*
X0034801Y0130094D01*
X0034648Y0130098D01*
X0034495Y0130106D01*
X0034342Y0130118D01*
X0034190Y0130134D01*
X0034037Y0130154D01*
X0033886Y0130178D01*
X0033735Y0130206D01*
X0033585Y0130237D01*
X0033436Y0130273D01*
X0033288Y0130312D01*
X0033141Y0130355D01*
X0032995Y0130402D01*
X0032850Y0130453D01*
X0032707Y0130508D01*
X0032565Y0130566D01*
X0032425Y0130628D01*
X0032286Y0130693D01*
X0032149Y0130762D01*
X0032014Y0130835D01*
X0031881Y0130911D01*
X0031750Y0130991D01*
X0031621Y0131073D01*
X0031494Y0131160D01*
X0031369Y0131249D01*
X0031247Y0131342D01*
X0031128Y0131438D01*
X0031010Y0131537D01*
X0030896Y0131638D01*
X0030784Y0131743D01*
X0030675Y0131851D01*
X0030569Y0131962D01*
X0030465Y0132075D01*
X0030365Y0132191D01*
X0030267Y0132309D01*
X0030173Y0132430D01*
X0030082Y0132553D01*
X0029994Y0132679D01*
X0029910Y0132807D01*
X0029828Y0132937D01*
X0029751Y0133069D01*
X0029676Y0133203D01*
X0029605Y0133339D01*
X0029538Y0133477D01*
X0029474Y0133617D01*
X0029414Y0133758D01*
X0029358Y0133900D01*
X0029305Y0134044D01*
X0029256Y0134190D01*
X0029211Y0134336D01*
X0029170Y0134484D01*
X0029133Y0134632D01*
X0029099Y0134782D01*
X0029069Y0134933D01*
X0029044Y0135084D01*
X0029022Y0135235D01*
X0029004Y0135388D01*
X0028990Y0135540D01*
X0028980Y0135693D01*
X0028974Y0135847D01*
X0028972Y0136000D01*
X0238972Y0136000D02*
X0238974Y0136153D01*
X0238980Y0136307D01*
X0238990Y0136460D01*
X0239004Y0136612D01*
X0239022Y0136765D01*
X0239044Y0136916D01*
X0239069Y0137067D01*
X0239099Y0137218D01*
X0239133Y0137368D01*
X0239170Y0137516D01*
X0239211Y0137664D01*
X0239256Y0137810D01*
X0239305Y0137956D01*
X0239358Y0138100D01*
X0239414Y0138242D01*
X0239474Y0138383D01*
X0239538Y0138523D01*
X0239605Y0138661D01*
X0239676Y0138797D01*
X0239751Y0138931D01*
X0239828Y0139063D01*
X0239910Y0139193D01*
X0239994Y0139321D01*
X0240082Y0139447D01*
X0240173Y0139570D01*
X0240267Y0139691D01*
X0240365Y0139809D01*
X0240465Y0139925D01*
X0240569Y0140038D01*
X0240675Y0140149D01*
X0240784Y0140257D01*
X0240896Y0140362D01*
X0241010Y0140463D01*
X0241128Y0140562D01*
X0241247Y0140658D01*
X0241369Y0140751D01*
X0241494Y0140840D01*
X0241621Y0140927D01*
X0241750Y0141009D01*
X0241881Y0141089D01*
X0242014Y0141165D01*
X0242149Y0141238D01*
X0242286Y0141307D01*
X0242425Y0141372D01*
X0242565Y0141434D01*
X0242707Y0141492D01*
X0242850Y0141547D01*
X0242995Y0141598D01*
X0243141Y0141645D01*
X0243288Y0141688D01*
X0243436Y0141727D01*
X0243585Y0141763D01*
X0243735Y0141794D01*
X0243886Y0141822D01*
X0244037Y0141846D01*
X0244190Y0141866D01*
X0244342Y0141882D01*
X0244495Y0141894D01*
X0244648Y0141902D01*
X0244801Y0141906D01*
X0244955Y0141906D01*
X0245108Y0141902D01*
X0245261Y0141894D01*
X0245414Y0141882D01*
X0245566Y0141866D01*
X0245719Y0141846D01*
X0245870Y0141822D01*
X0246021Y0141794D01*
X0246171Y0141763D01*
X0246320Y0141727D01*
X0246468Y0141688D01*
X0246615Y0141645D01*
X0246761Y0141598D01*
X0246906Y0141547D01*
X0247049Y0141492D01*
X0247191Y0141434D01*
X0247331Y0141372D01*
X0247470Y0141307D01*
X0247607Y0141238D01*
X0247742Y0141165D01*
X0247875Y0141089D01*
X0248006Y0141009D01*
X0248135Y0140927D01*
X0248262Y0140840D01*
X0248387Y0140751D01*
X0248509Y0140658D01*
X0248628Y0140562D01*
X0248746Y0140463D01*
X0248860Y0140362D01*
X0248972Y0140257D01*
X0249081Y0140149D01*
X0249187Y0140038D01*
X0249291Y0139925D01*
X0249391Y0139809D01*
X0249489Y0139691D01*
X0249583Y0139570D01*
X0249674Y0139447D01*
X0249762Y0139321D01*
X0249846Y0139193D01*
X0249928Y0139063D01*
X0250005Y0138931D01*
X0250080Y0138797D01*
X0250151Y0138661D01*
X0250218Y0138523D01*
X0250282Y0138383D01*
X0250342Y0138242D01*
X0250398Y0138100D01*
X0250451Y0137956D01*
X0250500Y0137810D01*
X0250545Y0137664D01*
X0250586Y0137516D01*
X0250623Y0137368D01*
X0250657Y0137218D01*
X0250687Y0137067D01*
X0250712Y0136916D01*
X0250734Y0136765D01*
X0250752Y0136612D01*
X0250766Y0136460D01*
X0250776Y0136307D01*
X0250782Y0136153D01*
X0250784Y0136000D01*
X0250782Y0135847D01*
X0250776Y0135693D01*
X0250766Y0135540D01*
X0250752Y0135388D01*
X0250734Y0135235D01*
X0250712Y0135084D01*
X0250687Y0134933D01*
X0250657Y0134782D01*
X0250623Y0134632D01*
X0250586Y0134484D01*
X0250545Y0134336D01*
X0250500Y0134190D01*
X0250451Y0134044D01*
X0250398Y0133900D01*
X0250342Y0133758D01*
X0250282Y0133617D01*
X0250218Y0133477D01*
X0250151Y0133339D01*
X0250080Y0133203D01*
X0250005Y0133069D01*
X0249928Y0132937D01*
X0249846Y0132807D01*
X0249762Y0132679D01*
X0249674Y0132553D01*
X0249583Y0132430D01*
X0249489Y0132309D01*
X0249391Y0132191D01*
X0249291Y0132075D01*
X0249187Y0131962D01*
X0249081Y0131851D01*
X0248972Y0131743D01*
X0248860Y0131638D01*
X0248746Y0131537D01*
X0248628Y0131438D01*
X0248509Y0131342D01*
X0248387Y0131249D01*
X0248262Y0131160D01*
X0248135Y0131073D01*
X0248006Y0130991D01*
X0247875Y0130911D01*
X0247742Y0130835D01*
X0247607Y0130762D01*
X0247470Y0130693D01*
X0247331Y0130628D01*
X0247191Y0130566D01*
X0247049Y0130508D01*
X0246906Y0130453D01*
X0246761Y0130402D01*
X0246615Y0130355D01*
X0246468Y0130312D01*
X0246320Y0130273D01*
X0246171Y0130237D01*
X0246021Y0130206D01*
X0245870Y0130178D01*
X0245719Y0130154D01*
X0245566Y0130134D01*
X0245414Y0130118D01*
X0245261Y0130106D01*
X0245108Y0130098D01*
X0244955Y0130094D01*
X0244801Y0130094D01*
X0244648Y0130098D01*
X0244495Y0130106D01*
X0244342Y0130118D01*
X0244190Y0130134D01*
X0244037Y0130154D01*
X0243886Y0130178D01*
X0243735Y0130206D01*
X0243585Y0130237D01*
X0243436Y0130273D01*
X0243288Y0130312D01*
X0243141Y0130355D01*
X0242995Y0130402D01*
X0242850Y0130453D01*
X0242707Y0130508D01*
X0242565Y0130566D01*
X0242425Y0130628D01*
X0242286Y0130693D01*
X0242149Y0130762D01*
X0242014Y0130835D01*
X0241881Y0130911D01*
X0241750Y0130991D01*
X0241621Y0131073D01*
X0241494Y0131160D01*
X0241369Y0131249D01*
X0241247Y0131342D01*
X0241128Y0131438D01*
X0241010Y0131537D01*
X0240896Y0131638D01*
X0240784Y0131743D01*
X0240675Y0131851D01*
X0240569Y0131962D01*
X0240465Y0132075D01*
X0240365Y0132191D01*
X0240267Y0132309D01*
X0240173Y0132430D01*
X0240082Y0132553D01*
X0239994Y0132679D01*
X0239910Y0132807D01*
X0239828Y0132937D01*
X0239751Y0133069D01*
X0239676Y0133203D01*
X0239605Y0133339D01*
X0239538Y0133477D01*
X0239474Y0133617D01*
X0239414Y0133758D01*
X0239358Y0133900D01*
X0239305Y0134044D01*
X0239256Y0134190D01*
X0239211Y0134336D01*
X0239170Y0134484D01*
X0239133Y0134632D01*
X0239099Y0134782D01*
X0239069Y0134933D01*
X0239044Y0135084D01*
X0239022Y0135235D01*
X0239004Y0135388D01*
X0238990Y0135540D01*
X0238980Y0135693D01*
X0238974Y0135847D01*
X0238972Y0136000D01*
D11*
X0244878Y0136000D03*
X0034878Y0136000D03*
D12*
X0058503Y0125996D03*
X0058503Y0119304D03*
X0081932Y0090000D03*
X0088625Y0090000D03*
X0088625Y0083200D03*
X0081932Y0083200D03*
X0082132Y0075600D03*
X0088825Y0075600D03*
G36*
X0129251Y0054661D02*
X0125907Y0058005D01*
X0128973Y0061071D01*
X0132317Y0057727D01*
X0129251Y0054661D01*
G37*
G36*
X0133984Y0049929D02*
X0130640Y0053273D01*
X0133706Y0056339D01*
X0137050Y0052995D01*
X0133984Y0049929D01*
G37*
G36*
X0141584Y0062129D02*
X0138240Y0065473D01*
X0141306Y0068539D01*
X0144650Y0065195D01*
X0141584Y0062129D01*
G37*
G36*
X0136851Y0066861D02*
X0133507Y0070205D01*
X0136573Y0073271D01*
X0139917Y0069927D01*
X0136851Y0066861D01*
G37*
X0096825Y0028300D03*
X0090132Y0028300D03*
X0075078Y0014846D03*
X0067378Y0014921D03*
X0067378Y0008229D03*
X0075078Y0008154D03*
X0070100Y0040375D03*
X0063407Y0040375D03*
X0122757Y0146450D03*
X0129450Y0146450D03*
X0254782Y0038725D03*
X0261475Y0038725D03*
X0264175Y0008725D03*
X0257482Y0008725D03*
D13*
G36*
X0148131Y0063788D02*
X0142422Y0069497D01*
X0146881Y0073956D01*
X0152590Y0068247D01*
X0148131Y0063788D01*
G37*
G36*
X0143731Y0048988D02*
X0138022Y0054697D01*
X0142481Y0059156D01*
X0148190Y0053447D01*
X0143731Y0048988D01*
G37*
G36*
X0136075Y0056644D02*
X0130366Y0062353D01*
X0134825Y0066812D01*
X0140534Y0061103D01*
X0136075Y0056644D01*
G37*
G36*
X0140475Y0071444D02*
X0134766Y0077153D01*
X0139225Y0081612D01*
X0144934Y0075903D01*
X0140475Y0071444D01*
G37*
D14*
X0054253Y0034125D03*
D15*
X0054997Y0030184D02*
X0054997Y0026550D01*
X0053509Y0026550D01*
X0053509Y0030184D01*
X0054997Y0030184D01*
X0054997Y0026564D02*
X0053509Y0026564D01*
X0053509Y0026578D02*
X0054997Y0026578D01*
X0054997Y0026592D02*
X0053509Y0026592D01*
X0053509Y0026606D02*
X0054997Y0026606D01*
X0054997Y0026620D02*
X0053509Y0026620D01*
X0053509Y0026634D02*
X0054997Y0026634D01*
X0054997Y0026648D02*
X0053509Y0026648D01*
X0053509Y0026662D02*
X0054997Y0026662D01*
X0054997Y0026676D02*
X0053509Y0026676D01*
X0053509Y0026690D02*
X0054997Y0026690D01*
X0054997Y0026704D02*
X0053509Y0026704D01*
X0053509Y0026718D02*
X0054997Y0026718D01*
X0054997Y0026732D02*
X0053509Y0026732D01*
X0053509Y0026746D02*
X0054997Y0026746D01*
X0054997Y0026760D02*
X0053509Y0026760D01*
X0053509Y0026774D02*
X0054997Y0026774D01*
X0054997Y0026788D02*
X0053509Y0026788D01*
X0053509Y0026802D02*
X0054997Y0026802D01*
X0054997Y0026816D02*
X0053509Y0026816D01*
X0053509Y0026830D02*
X0054997Y0026830D01*
X0054997Y0026844D02*
X0053509Y0026844D01*
X0053509Y0026858D02*
X0054997Y0026858D01*
X0054997Y0026872D02*
X0053509Y0026872D01*
X0053509Y0026886D02*
X0054997Y0026886D01*
X0054997Y0026900D02*
X0053509Y0026900D01*
X0053509Y0026914D02*
X0054997Y0026914D01*
X0054997Y0026928D02*
X0053509Y0026928D01*
X0053509Y0026942D02*
X0054997Y0026942D01*
X0054997Y0026956D02*
X0053509Y0026956D01*
X0053509Y0026970D02*
X0054997Y0026970D01*
X0054997Y0026984D02*
X0053509Y0026984D01*
X0053509Y0026998D02*
X0054997Y0026998D01*
X0054997Y0027012D02*
X0053509Y0027012D01*
X0053509Y0027026D02*
X0054997Y0027026D01*
X0054997Y0027040D02*
X0053509Y0027040D01*
X0053509Y0027054D02*
X0054997Y0027054D01*
X0054997Y0027068D02*
X0053509Y0027068D01*
X0053509Y0027082D02*
X0054997Y0027082D01*
X0054997Y0027096D02*
X0053509Y0027096D01*
X0053509Y0027110D02*
X0054997Y0027110D01*
X0054997Y0027124D02*
X0053509Y0027124D01*
X0053509Y0027138D02*
X0054997Y0027138D01*
X0054997Y0027152D02*
X0053509Y0027152D01*
X0053509Y0027166D02*
X0054997Y0027166D01*
X0054997Y0027180D02*
X0053509Y0027180D01*
X0053509Y0027194D02*
X0054997Y0027194D01*
X0054997Y0027208D02*
X0053509Y0027208D01*
X0053509Y0027222D02*
X0054997Y0027222D01*
X0054997Y0027236D02*
X0053509Y0027236D01*
X0053509Y0027250D02*
X0054997Y0027250D01*
X0054997Y0027264D02*
X0053509Y0027264D01*
X0053509Y0027278D02*
X0054997Y0027278D01*
X0054997Y0027292D02*
X0053509Y0027292D01*
X0053509Y0027306D02*
X0054997Y0027306D01*
X0054997Y0027320D02*
X0053509Y0027320D01*
X0053509Y0027334D02*
X0054997Y0027334D01*
X0054997Y0027348D02*
X0053509Y0027348D01*
X0053509Y0027362D02*
X0054997Y0027362D01*
X0054997Y0027376D02*
X0053509Y0027376D01*
X0053509Y0027390D02*
X0054997Y0027390D01*
X0054997Y0027404D02*
X0053509Y0027404D01*
X0053509Y0027418D02*
X0054997Y0027418D01*
X0054997Y0027432D02*
X0053509Y0027432D01*
X0053509Y0027446D02*
X0054997Y0027446D01*
X0054997Y0027460D02*
X0053509Y0027460D01*
X0053509Y0027474D02*
X0054997Y0027474D01*
X0054997Y0027488D02*
X0053509Y0027488D01*
X0053509Y0027502D02*
X0054997Y0027502D01*
X0054997Y0027516D02*
X0053509Y0027516D01*
X0053509Y0027530D02*
X0054997Y0027530D01*
X0054997Y0027544D02*
X0053509Y0027544D01*
X0053509Y0027558D02*
X0054997Y0027558D01*
X0054997Y0027572D02*
X0053509Y0027572D01*
X0053509Y0027586D02*
X0054997Y0027586D01*
X0054997Y0027600D02*
X0053509Y0027600D01*
X0053509Y0027614D02*
X0054997Y0027614D01*
X0054997Y0027628D02*
X0053509Y0027628D01*
X0053509Y0027642D02*
X0054997Y0027642D01*
X0054997Y0027656D02*
X0053509Y0027656D01*
X0053509Y0027670D02*
X0054997Y0027670D01*
X0054997Y0027684D02*
X0053509Y0027684D01*
X0053509Y0027698D02*
X0054997Y0027698D01*
X0054997Y0027712D02*
X0053509Y0027712D01*
X0053509Y0027726D02*
X0054997Y0027726D01*
X0054997Y0027740D02*
X0053509Y0027740D01*
X0053509Y0027754D02*
X0054997Y0027754D01*
X0054997Y0027768D02*
X0053509Y0027768D01*
X0053509Y0027782D02*
X0054997Y0027782D01*
X0054997Y0027796D02*
X0053509Y0027796D01*
X0053509Y0027810D02*
X0054997Y0027810D01*
X0054997Y0027824D02*
X0053509Y0027824D01*
X0053509Y0027838D02*
X0054997Y0027838D01*
X0054997Y0027852D02*
X0053509Y0027852D01*
X0053509Y0027866D02*
X0054997Y0027866D01*
X0054997Y0027880D02*
X0053509Y0027880D01*
X0053509Y0027894D02*
X0054997Y0027894D01*
X0054997Y0027908D02*
X0053509Y0027908D01*
X0053509Y0027922D02*
X0054997Y0027922D01*
X0054997Y0027936D02*
X0053509Y0027936D01*
X0053509Y0027950D02*
X0054997Y0027950D01*
X0054997Y0027964D02*
X0053509Y0027964D01*
X0053509Y0027978D02*
X0054997Y0027978D01*
X0054997Y0027992D02*
X0053509Y0027992D01*
X0053509Y0028006D02*
X0054997Y0028006D01*
X0054997Y0028020D02*
X0053509Y0028020D01*
X0053509Y0028034D02*
X0054997Y0028034D01*
X0054997Y0028048D02*
X0053509Y0028048D01*
X0053509Y0028062D02*
X0054997Y0028062D01*
X0054997Y0028076D02*
X0053509Y0028076D01*
X0053509Y0028090D02*
X0054997Y0028090D01*
X0054997Y0028104D02*
X0053509Y0028104D01*
X0053509Y0028118D02*
X0054997Y0028118D01*
X0054997Y0028132D02*
X0053509Y0028132D01*
X0053509Y0028146D02*
X0054997Y0028146D01*
X0054997Y0028160D02*
X0053509Y0028160D01*
X0053509Y0028174D02*
X0054997Y0028174D01*
X0054997Y0028188D02*
X0053509Y0028188D01*
X0053509Y0028202D02*
X0054997Y0028202D01*
X0054997Y0028216D02*
X0053509Y0028216D01*
X0053509Y0028230D02*
X0054997Y0028230D01*
X0054997Y0028244D02*
X0053509Y0028244D01*
X0053509Y0028258D02*
X0054997Y0028258D01*
X0054997Y0028272D02*
X0053509Y0028272D01*
X0053509Y0028286D02*
X0054997Y0028286D01*
X0054997Y0028300D02*
X0053509Y0028300D01*
X0053509Y0028314D02*
X0054997Y0028314D01*
X0054997Y0028328D02*
X0053509Y0028328D01*
X0053509Y0028342D02*
X0054997Y0028342D01*
X0054997Y0028356D02*
X0053509Y0028356D01*
X0053509Y0028370D02*
X0054997Y0028370D01*
X0054997Y0028384D02*
X0053509Y0028384D01*
X0053509Y0028398D02*
X0054997Y0028398D01*
X0054997Y0028412D02*
X0053509Y0028412D01*
X0053509Y0028426D02*
X0054997Y0028426D01*
X0054997Y0028440D02*
X0053509Y0028440D01*
X0053509Y0028454D02*
X0054997Y0028454D01*
X0054997Y0028468D02*
X0053509Y0028468D01*
X0053509Y0028482D02*
X0054997Y0028482D01*
X0054997Y0028496D02*
X0053509Y0028496D01*
X0053509Y0028510D02*
X0054997Y0028510D01*
X0054997Y0028524D02*
X0053509Y0028524D01*
X0053509Y0028538D02*
X0054997Y0028538D01*
X0054997Y0028552D02*
X0053509Y0028552D01*
X0053509Y0028566D02*
X0054997Y0028566D01*
X0054997Y0028580D02*
X0053509Y0028580D01*
X0053509Y0028594D02*
X0054997Y0028594D01*
X0054997Y0028608D02*
X0053509Y0028608D01*
X0053509Y0028622D02*
X0054997Y0028622D01*
X0054997Y0028636D02*
X0053509Y0028636D01*
X0053509Y0028650D02*
X0054997Y0028650D01*
X0054997Y0028664D02*
X0053509Y0028664D01*
X0053509Y0028678D02*
X0054997Y0028678D01*
X0054997Y0028692D02*
X0053509Y0028692D01*
X0053509Y0028706D02*
X0054997Y0028706D01*
X0054997Y0028720D02*
X0053509Y0028720D01*
X0053509Y0028734D02*
X0054997Y0028734D01*
X0054997Y0028748D02*
X0053509Y0028748D01*
X0053509Y0028762D02*
X0054997Y0028762D01*
X0054997Y0028776D02*
X0053509Y0028776D01*
X0053509Y0028790D02*
X0054997Y0028790D01*
X0054997Y0028804D02*
X0053509Y0028804D01*
X0053509Y0028818D02*
X0054997Y0028818D01*
X0054997Y0028832D02*
X0053509Y0028832D01*
X0053509Y0028846D02*
X0054997Y0028846D01*
X0054997Y0028860D02*
X0053509Y0028860D01*
X0053509Y0028874D02*
X0054997Y0028874D01*
X0054997Y0028888D02*
X0053509Y0028888D01*
X0053509Y0028902D02*
X0054997Y0028902D01*
X0054997Y0028916D02*
X0053509Y0028916D01*
X0053509Y0028930D02*
X0054997Y0028930D01*
X0054997Y0028944D02*
X0053509Y0028944D01*
X0053509Y0028958D02*
X0054997Y0028958D01*
X0054997Y0028972D02*
X0053509Y0028972D01*
X0053509Y0028986D02*
X0054997Y0028986D01*
X0054997Y0029000D02*
X0053509Y0029000D01*
X0053509Y0029014D02*
X0054997Y0029014D01*
X0054997Y0029028D02*
X0053509Y0029028D01*
X0053509Y0029042D02*
X0054997Y0029042D01*
X0054997Y0029056D02*
X0053509Y0029056D01*
X0053509Y0029070D02*
X0054997Y0029070D01*
X0054997Y0029084D02*
X0053509Y0029084D01*
X0053509Y0029098D02*
X0054997Y0029098D01*
X0054997Y0029112D02*
X0053509Y0029112D01*
X0053509Y0029126D02*
X0054997Y0029126D01*
X0054997Y0029140D02*
X0053509Y0029140D01*
X0053509Y0029154D02*
X0054997Y0029154D01*
X0054997Y0029168D02*
X0053509Y0029168D01*
X0053509Y0029182D02*
X0054997Y0029182D01*
X0054997Y0029196D02*
X0053509Y0029196D01*
X0053509Y0029210D02*
X0054997Y0029210D01*
X0054997Y0029224D02*
X0053509Y0029224D01*
X0053509Y0029238D02*
X0054997Y0029238D01*
X0054997Y0029252D02*
X0053509Y0029252D01*
X0053509Y0029266D02*
X0054997Y0029266D01*
X0054997Y0029280D02*
X0053509Y0029280D01*
X0053509Y0029294D02*
X0054997Y0029294D01*
X0054997Y0029308D02*
X0053509Y0029308D01*
X0053509Y0029322D02*
X0054997Y0029322D01*
X0054997Y0029336D02*
X0053509Y0029336D01*
X0053509Y0029350D02*
X0054997Y0029350D01*
X0054997Y0029364D02*
X0053509Y0029364D01*
X0053509Y0029378D02*
X0054997Y0029378D01*
X0054997Y0029392D02*
X0053509Y0029392D01*
X0053509Y0029406D02*
X0054997Y0029406D01*
X0054997Y0029420D02*
X0053509Y0029420D01*
X0053509Y0029434D02*
X0054997Y0029434D01*
X0054997Y0029448D02*
X0053509Y0029448D01*
X0053509Y0029462D02*
X0054997Y0029462D01*
X0054997Y0029476D02*
X0053509Y0029476D01*
X0053509Y0029490D02*
X0054997Y0029490D01*
X0054997Y0029504D02*
X0053509Y0029504D01*
X0053509Y0029518D02*
X0054997Y0029518D01*
X0054997Y0029532D02*
X0053509Y0029532D01*
X0053509Y0029546D02*
X0054997Y0029546D01*
X0054997Y0029560D02*
X0053509Y0029560D01*
X0053509Y0029574D02*
X0054997Y0029574D01*
X0054997Y0029588D02*
X0053509Y0029588D01*
X0053509Y0029602D02*
X0054997Y0029602D01*
X0054997Y0029616D02*
X0053509Y0029616D01*
X0053509Y0029630D02*
X0054997Y0029630D01*
X0054997Y0029644D02*
X0053509Y0029644D01*
X0053509Y0029658D02*
X0054997Y0029658D01*
X0054997Y0029672D02*
X0053509Y0029672D01*
X0053509Y0029686D02*
X0054997Y0029686D01*
X0054997Y0029700D02*
X0053509Y0029700D01*
X0053509Y0029714D02*
X0054997Y0029714D01*
X0054997Y0029728D02*
X0053509Y0029728D01*
X0053509Y0029742D02*
X0054997Y0029742D01*
X0054997Y0029756D02*
X0053509Y0029756D01*
X0053509Y0029770D02*
X0054997Y0029770D01*
X0054997Y0029784D02*
X0053509Y0029784D01*
X0053509Y0029798D02*
X0054997Y0029798D01*
X0054997Y0029812D02*
X0053509Y0029812D01*
X0053509Y0029826D02*
X0054997Y0029826D01*
X0054997Y0029840D02*
X0053509Y0029840D01*
X0053509Y0029854D02*
X0054997Y0029854D01*
X0054997Y0029868D02*
X0053509Y0029868D01*
X0053509Y0029882D02*
X0054997Y0029882D01*
X0054997Y0029896D02*
X0053509Y0029896D01*
X0053509Y0029910D02*
X0054997Y0029910D01*
X0054997Y0029924D02*
X0053509Y0029924D01*
X0053509Y0029938D02*
X0054997Y0029938D01*
X0054997Y0029952D02*
X0053509Y0029952D01*
X0053509Y0029966D02*
X0054997Y0029966D01*
X0054997Y0029980D02*
X0053509Y0029980D01*
X0053509Y0029994D02*
X0054997Y0029994D01*
X0054997Y0030008D02*
X0053509Y0030008D01*
X0053509Y0030022D02*
X0054997Y0030022D01*
X0054997Y0030036D02*
X0053509Y0030036D01*
X0053509Y0030050D02*
X0054997Y0030050D01*
X0054997Y0030064D02*
X0053509Y0030064D01*
X0053509Y0030078D02*
X0054997Y0030078D01*
X0054997Y0030092D02*
X0053509Y0030092D01*
X0053509Y0030106D02*
X0054997Y0030106D01*
X0054997Y0030120D02*
X0053509Y0030120D01*
X0053509Y0030134D02*
X0054997Y0030134D01*
X0054997Y0030148D02*
X0053509Y0030148D01*
X0053509Y0030162D02*
X0054997Y0030162D01*
X0054997Y0030176D02*
X0053509Y0030176D01*
X0053029Y0030184D02*
X0053029Y0026550D01*
X0051541Y0026550D01*
X0051541Y0030184D01*
X0053029Y0030184D01*
X0053029Y0026564D02*
X0051541Y0026564D01*
X0051541Y0026578D02*
X0053029Y0026578D01*
X0053029Y0026592D02*
X0051541Y0026592D01*
X0051541Y0026606D02*
X0053029Y0026606D01*
X0053029Y0026620D02*
X0051541Y0026620D01*
X0051541Y0026634D02*
X0053029Y0026634D01*
X0053029Y0026648D02*
X0051541Y0026648D01*
X0051541Y0026662D02*
X0053029Y0026662D01*
X0053029Y0026676D02*
X0051541Y0026676D01*
X0051541Y0026690D02*
X0053029Y0026690D01*
X0053029Y0026704D02*
X0051541Y0026704D01*
X0051541Y0026718D02*
X0053029Y0026718D01*
X0053029Y0026732D02*
X0051541Y0026732D01*
X0051541Y0026746D02*
X0053029Y0026746D01*
X0053029Y0026760D02*
X0051541Y0026760D01*
X0051541Y0026774D02*
X0053029Y0026774D01*
X0053029Y0026788D02*
X0051541Y0026788D01*
X0051541Y0026802D02*
X0053029Y0026802D01*
X0053029Y0026816D02*
X0051541Y0026816D01*
X0051541Y0026830D02*
X0053029Y0026830D01*
X0053029Y0026844D02*
X0051541Y0026844D01*
X0051541Y0026858D02*
X0053029Y0026858D01*
X0053029Y0026872D02*
X0051541Y0026872D01*
X0051541Y0026886D02*
X0053029Y0026886D01*
X0053029Y0026900D02*
X0051541Y0026900D01*
X0051541Y0026914D02*
X0053029Y0026914D01*
X0053029Y0026928D02*
X0051541Y0026928D01*
X0051541Y0026942D02*
X0053029Y0026942D01*
X0053029Y0026956D02*
X0051541Y0026956D01*
X0051541Y0026970D02*
X0053029Y0026970D01*
X0053029Y0026984D02*
X0051541Y0026984D01*
X0051541Y0026998D02*
X0053029Y0026998D01*
X0053029Y0027012D02*
X0051541Y0027012D01*
X0051541Y0027026D02*
X0053029Y0027026D01*
X0053029Y0027040D02*
X0051541Y0027040D01*
X0051541Y0027054D02*
X0053029Y0027054D01*
X0053029Y0027068D02*
X0051541Y0027068D01*
X0051541Y0027082D02*
X0053029Y0027082D01*
X0053029Y0027096D02*
X0051541Y0027096D01*
X0051541Y0027110D02*
X0053029Y0027110D01*
X0053029Y0027124D02*
X0051541Y0027124D01*
X0051541Y0027138D02*
X0053029Y0027138D01*
X0053029Y0027152D02*
X0051541Y0027152D01*
X0051541Y0027166D02*
X0053029Y0027166D01*
X0053029Y0027180D02*
X0051541Y0027180D01*
X0051541Y0027194D02*
X0053029Y0027194D01*
X0053029Y0027208D02*
X0051541Y0027208D01*
X0051541Y0027222D02*
X0053029Y0027222D01*
X0053029Y0027236D02*
X0051541Y0027236D01*
X0051541Y0027250D02*
X0053029Y0027250D01*
X0053029Y0027264D02*
X0051541Y0027264D01*
X0051541Y0027278D02*
X0053029Y0027278D01*
X0053029Y0027292D02*
X0051541Y0027292D01*
X0051541Y0027306D02*
X0053029Y0027306D01*
X0053029Y0027320D02*
X0051541Y0027320D01*
X0051541Y0027334D02*
X0053029Y0027334D01*
X0053029Y0027348D02*
X0051541Y0027348D01*
X0051541Y0027362D02*
X0053029Y0027362D01*
X0053029Y0027376D02*
X0051541Y0027376D01*
X0051541Y0027390D02*
X0053029Y0027390D01*
X0053029Y0027404D02*
X0051541Y0027404D01*
X0051541Y0027418D02*
X0053029Y0027418D01*
X0053029Y0027432D02*
X0051541Y0027432D01*
X0051541Y0027446D02*
X0053029Y0027446D01*
X0053029Y0027460D02*
X0051541Y0027460D01*
X0051541Y0027474D02*
X0053029Y0027474D01*
X0053029Y0027488D02*
X0051541Y0027488D01*
X0051541Y0027502D02*
X0053029Y0027502D01*
X0053029Y0027516D02*
X0051541Y0027516D01*
X0051541Y0027530D02*
X0053029Y0027530D01*
X0053029Y0027544D02*
X0051541Y0027544D01*
X0051541Y0027558D02*
X0053029Y0027558D01*
X0053029Y0027572D02*
X0051541Y0027572D01*
X0051541Y0027586D02*
X0053029Y0027586D01*
X0053029Y0027600D02*
X0051541Y0027600D01*
X0051541Y0027614D02*
X0053029Y0027614D01*
X0053029Y0027628D02*
X0051541Y0027628D01*
X0051541Y0027642D02*
X0053029Y0027642D01*
X0053029Y0027656D02*
X0051541Y0027656D01*
X0051541Y0027670D02*
X0053029Y0027670D01*
X0053029Y0027684D02*
X0051541Y0027684D01*
X0051541Y0027698D02*
X0053029Y0027698D01*
X0053029Y0027712D02*
X0051541Y0027712D01*
X0051541Y0027726D02*
X0053029Y0027726D01*
X0053029Y0027740D02*
X0051541Y0027740D01*
X0051541Y0027754D02*
X0053029Y0027754D01*
X0053029Y0027768D02*
X0051541Y0027768D01*
X0051541Y0027782D02*
X0053029Y0027782D01*
X0053029Y0027796D02*
X0051541Y0027796D01*
X0051541Y0027810D02*
X0053029Y0027810D01*
X0053029Y0027824D02*
X0051541Y0027824D01*
X0051541Y0027838D02*
X0053029Y0027838D01*
X0053029Y0027852D02*
X0051541Y0027852D01*
X0051541Y0027866D02*
X0053029Y0027866D01*
X0053029Y0027880D02*
X0051541Y0027880D01*
X0051541Y0027894D02*
X0053029Y0027894D01*
X0053029Y0027908D02*
X0051541Y0027908D01*
X0051541Y0027922D02*
X0053029Y0027922D01*
X0053029Y0027936D02*
X0051541Y0027936D01*
X0051541Y0027950D02*
X0053029Y0027950D01*
X0053029Y0027964D02*
X0051541Y0027964D01*
X0051541Y0027978D02*
X0053029Y0027978D01*
X0053029Y0027992D02*
X0051541Y0027992D01*
X0051541Y0028006D02*
X0053029Y0028006D01*
X0053029Y0028020D02*
X0051541Y0028020D01*
X0051541Y0028034D02*
X0053029Y0028034D01*
X0053029Y0028048D02*
X0051541Y0028048D01*
X0051541Y0028062D02*
X0053029Y0028062D01*
X0053029Y0028076D02*
X0051541Y0028076D01*
X0051541Y0028090D02*
X0053029Y0028090D01*
X0053029Y0028104D02*
X0051541Y0028104D01*
X0051541Y0028118D02*
X0053029Y0028118D01*
X0053029Y0028132D02*
X0051541Y0028132D01*
X0051541Y0028146D02*
X0053029Y0028146D01*
X0053029Y0028160D02*
X0051541Y0028160D01*
X0051541Y0028174D02*
X0053029Y0028174D01*
X0053029Y0028188D02*
X0051541Y0028188D01*
X0051541Y0028202D02*
X0053029Y0028202D01*
X0053029Y0028216D02*
X0051541Y0028216D01*
X0051541Y0028230D02*
X0053029Y0028230D01*
X0053029Y0028244D02*
X0051541Y0028244D01*
X0051541Y0028258D02*
X0053029Y0028258D01*
X0053029Y0028272D02*
X0051541Y0028272D01*
X0051541Y0028286D02*
X0053029Y0028286D01*
X0053029Y0028300D02*
X0051541Y0028300D01*
X0051541Y0028314D02*
X0053029Y0028314D01*
X0053029Y0028328D02*
X0051541Y0028328D01*
X0051541Y0028342D02*
X0053029Y0028342D01*
X0053029Y0028356D02*
X0051541Y0028356D01*
X0051541Y0028370D02*
X0053029Y0028370D01*
X0053029Y0028384D02*
X0051541Y0028384D01*
X0051541Y0028398D02*
X0053029Y0028398D01*
X0053029Y0028412D02*
X0051541Y0028412D01*
X0051541Y0028426D02*
X0053029Y0028426D01*
X0053029Y0028440D02*
X0051541Y0028440D01*
X0051541Y0028454D02*
X0053029Y0028454D01*
X0053029Y0028468D02*
X0051541Y0028468D01*
X0051541Y0028482D02*
X0053029Y0028482D01*
X0053029Y0028496D02*
X0051541Y0028496D01*
X0051541Y0028510D02*
X0053029Y0028510D01*
X0053029Y0028524D02*
X0051541Y0028524D01*
X0051541Y0028538D02*
X0053029Y0028538D01*
X0053029Y0028552D02*
X0051541Y0028552D01*
X0051541Y0028566D02*
X0053029Y0028566D01*
X0053029Y0028580D02*
X0051541Y0028580D01*
X0051541Y0028594D02*
X0053029Y0028594D01*
X0053029Y0028608D02*
X0051541Y0028608D01*
X0051541Y0028622D02*
X0053029Y0028622D01*
X0053029Y0028636D02*
X0051541Y0028636D01*
X0051541Y0028650D02*
X0053029Y0028650D01*
X0053029Y0028664D02*
X0051541Y0028664D01*
X0051541Y0028678D02*
X0053029Y0028678D01*
X0053029Y0028692D02*
X0051541Y0028692D01*
X0051541Y0028706D02*
X0053029Y0028706D01*
X0053029Y0028720D02*
X0051541Y0028720D01*
X0051541Y0028734D02*
X0053029Y0028734D01*
X0053029Y0028748D02*
X0051541Y0028748D01*
X0051541Y0028762D02*
X0053029Y0028762D01*
X0053029Y0028776D02*
X0051541Y0028776D01*
X0051541Y0028790D02*
X0053029Y0028790D01*
X0053029Y0028804D02*
X0051541Y0028804D01*
X0051541Y0028818D02*
X0053029Y0028818D01*
X0053029Y0028832D02*
X0051541Y0028832D01*
X0051541Y0028846D02*
X0053029Y0028846D01*
X0053029Y0028860D02*
X0051541Y0028860D01*
X0051541Y0028874D02*
X0053029Y0028874D01*
X0053029Y0028888D02*
X0051541Y0028888D01*
X0051541Y0028902D02*
X0053029Y0028902D01*
X0053029Y0028916D02*
X0051541Y0028916D01*
X0051541Y0028930D02*
X0053029Y0028930D01*
X0053029Y0028944D02*
X0051541Y0028944D01*
X0051541Y0028958D02*
X0053029Y0028958D01*
X0053029Y0028972D02*
X0051541Y0028972D01*
X0051541Y0028986D02*
X0053029Y0028986D01*
X0053029Y0029000D02*
X0051541Y0029000D01*
X0051541Y0029014D02*
X0053029Y0029014D01*
X0053029Y0029028D02*
X0051541Y0029028D01*
X0051541Y0029042D02*
X0053029Y0029042D01*
X0053029Y0029056D02*
X0051541Y0029056D01*
X0051541Y0029070D02*
X0053029Y0029070D01*
X0053029Y0029084D02*
X0051541Y0029084D01*
X0051541Y0029098D02*
X0053029Y0029098D01*
X0053029Y0029112D02*
X0051541Y0029112D01*
X0051541Y0029126D02*
X0053029Y0029126D01*
X0053029Y0029140D02*
X0051541Y0029140D01*
X0051541Y0029154D02*
X0053029Y0029154D01*
X0053029Y0029168D02*
X0051541Y0029168D01*
X0051541Y0029182D02*
X0053029Y0029182D01*
X0053029Y0029196D02*
X0051541Y0029196D01*
X0051541Y0029210D02*
X0053029Y0029210D01*
X0053029Y0029224D02*
X0051541Y0029224D01*
X0051541Y0029238D02*
X0053029Y0029238D01*
X0053029Y0029252D02*
X0051541Y0029252D01*
X0051541Y0029266D02*
X0053029Y0029266D01*
X0053029Y0029280D02*
X0051541Y0029280D01*
X0051541Y0029294D02*
X0053029Y0029294D01*
X0053029Y0029308D02*
X0051541Y0029308D01*
X0051541Y0029322D02*
X0053029Y0029322D01*
X0053029Y0029336D02*
X0051541Y0029336D01*
X0051541Y0029350D02*
X0053029Y0029350D01*
X0053029Y0029364D02*
X0051541Y0029364D01*
X0051541Y0029378D02*
X0053029Y0029378D01*
X0053029Y0029392D02*
X0051541Y0029392D01*
X0051541Y0029406D02*
X0053029Y0029406D01*
X0053029Y0029420D02*
X0051541Y0029420D01*
X0051541Y0029434D02*
X0053029Y0029434D01*
X0053029Y0029448D02*
X0051541Y0029448D01*
X0051541Y0029462D02*
X0053029Y0029462D01*
X0053029Y0029476D02*
X0051541Y0029476D01*
X0051541Y0029490D02*
X0053029Y0029490D01*
X0053029Y0029504D02*
X0051541Y0029504D01*
X0051541Y0029518D02*
X0053029Y0029518D01*
X0053029Y0029532D02*
X0051541Y0029532D01*
X0051541Y0029546D02*
X0053029Y0029546D01*
X0053029Y0029560D02*
X0051541Y0029560D01*
X0051541Y0029574D02*
X0053029Y0029574D01*
X0053029Y0029588D02*
X0051541Y0029588D01*
X0051541Y0029602D02*
X0053029Y0029602D01*
X0053029Y0029616D02*
X0051541Y0029616D01*
X0051541Y0029630D02*
X0053029Y0029630D01*
X0053029Y0029644D02*
X0051541Y0029644D01*
X0051541Y0029658D02*
X0053029Y0029658D01*
X0053029Y0029672D02*
X0051541Y0029672D01*
X0051541Y0029686D02*
X0053029Y0029686D01*
X0053029Y0029700D02*
X0051541Y0029700D01*
X0051541Y0029714D02*
X0053029Y0029714D01*
X0053029Y0029728D02*
X0051541Y0029728D01*
X0051541Y0029742D02*
X0053029Y0029742D01*
X0053029Y0029756D02*
X0051541Y0029756D01*
X0051541Y0029770D02*
X0053029Y0029770D01*
X0053029Y0029784D02*
X0051541Y0029784D01*
X0051541Y0029798D02*
X0053029Y0029798D01*
X0053029Y0029812D02*
X0051541Y0029812D01*
X0051541Y0029826D02*
X0053029Y0029826D01*
X0053029Y0029840D02*
X0051541Y0029840D01*
X0051541Y0029854D02*
X0053029Y0029854D01*
X0053029Y0029868D02*
X0051541Y0029868D01*
X0051541Y0029882D02*
X0053029Y0029882D01*
X0053029Y0029896D02*
X0051541Y0029896D01*
X0051541Y0029910D02*
X0053029Y0029910D01*
X0053029Y0029924D02*
X0051541Y0029924D01*
X0051541Y0029938D02*
X0053029Y0029938D01*
X0053029Y0029952D02*
X0051541Y0029952D01*
X0051541Y0029966D02*
X0053029Y0029966D01*
X0053029Y0029980D02*
X0051541Y0029980D01*
X0051541Y0029994D02*
X0053029Y0029994D01*
X0053029Y0030008D02*
X0051541Y0030008D01*
X0051541Y0030022D02*
X0053029Y0030022D01*
X0053029Y0030036D02*
X0051541Y0030036D01*
X0051541Y0030050D02*
X0053029Y0030050D01*
X0053029Y0030064D02*
X0051541Y0030064D01*
X0051541Y0030078D02*
X0053029Y0030078D01*
X0053029Y0030092D02*
X0051541Y0030092D01*
X0051541Y0030106D02*
X0053029Y0030106D01*
X0053029Y0030120D02*
X0051541Y0030120D01*
X0051541Y0030134D02*
X0053029Y0030134D01*
X0053029Y0030148D02*
X0051541Y0030148D01*
X0051541Y0030162D02*
X0053029Y0030162D01*
X0053029Y0030176D02*
X0051541Y0030176D01*
X0051060Y0030184D02*
X0051060Y0026550D01*
X0049572Y0026550D01*
X0049572Y0030184D01*
X0051060Y0030184D01*
X0051060Y0026564D02*
X0049572Y0026564D01*
X0049572Y0026578D02*
X0051060Y0026578D01*
X0051060Y0026592D02*
X0049572Y0026592D01*
X0049572Y0026606D02*
X0051060Y0026606D01*
X0051060Y0026620D02*
X0049572Y0026620D01*
X0049572Y0026634D02*
X0051060Y0026634D01*
X0051060Y0026648D02*
X0049572Y0026648D01*
X0049572Y0026662D02*
X0051060Y0026662D01*
X0051060Y0026676D02*
X0049572Y0026676D01*
X0049572Y0026690D02*
X0051060Y0026690D01*
X0051060Y0026704D02*
X0049572Y0026704D01*
X0049572Y0026718D02*
X0051060Y0026718D01*
X0051060Y0026732D02*
X0049572Y0026732D01*
X0049572Y0026746D02*
X0051060Y0026746D01*
X0051060Y0026760D02*
X0049572Y0026760D01*
X0049572Y0026774D02*
X0051060Y0026774D01*
X0051060Y0026788D02*
X0049572Y0026788D01*
X0049572Y0026802D02*
X0051060Y0026802D01*
X0051060Y0026816D02*
X0049572Y0026816D01*
X0049572Y0026830D02*
X0051060Y0026830D01*
X0051060Y0026844D02*
X0049572Y0026844D01*
X0049572Y0026858D02*
X0051060Y0026858D01*
X0051060Y0026872D02*
X0049572Y0026872D01*
X0049572Y0026886D02*
X0051060Y0026886D01*
X0051060Y0026900D02*
X0049572Y0026900D01*
X0049572Y0026914D02*
X0051060Y0026914D01*
X0051060Y0026928D02*
X0049572Y0026928D01*
X0049572Y0026942D02*
X0051060Y0026942D01*
X0051060Y0026956D02*
X0049572Y0026956D01*
X0049572Y0026970D02*
X0051060Y0026970D01*
X0051060Y0026984D02*
X0049572Y0026984D01*
X0049572Y0026998D02*
X0051060Y0026998D01*
X0051060Y0027012D02*
X0049572Y0027012D01*
X0049572Y0027026D02*
X0051060Y0027026D01*
X0051060Y0027040D02*
X0049572Y0027040D01*
X0049572Y0027054D02*
X0051060Y0027054D01*
X0051060Y0027068D02*
X0049572Y0027068D01*
X0049572Y0027082D02*
X0051060Y0027082D01*
X0051060Y0027096D02*
X0049572Y0027096D01*
X0049572Y0027110D02*
X0051060Y0027110D01*
X0051060Y0027124D02*
X0049572Y0027124D01*
X0049572Y0027138D02*
X0051060Y0027138D01*
X0051060Y0027152D02*
X0049572Y0027152D01*
X0049572Y0027166D02*
X0051060Y0027166D01*
X0051060Y0027180D02*
X0049572Y0027180D01*
X0049572Y0027194D02*
X0051060Y0027194D01*
X0051060Y0027208D02*
X0049572Y0027208D01*
X0049572Y0027222D02*
X0051060Y0027222D01*
X0051060Y0027236D02*
X0049572Y0027236D01*
X0049572Y0027250D02*
X0051060Y0027250D01*
X0051060Y0027264D02*
X0049572Y0027264D01*
X0049572Y0027278D02*
X0051060Y0027278D01*
X0051060Y0027292D02*
X0049572Y0027292D01*
X0049572Y0027306D02*
X0051060Y0027306D01*
X0051060Y0027320D02*
X0049572Y0027320D01*
X0049572Y0027334D02*
X0051060Y0027334D01*
X0051060Y0027348D02*
X0049572Y0027348D01*
X0049572Y0027362D02*
X0051060Y0027362D01*
X0051060Y0027376D02*
X0049572Y0027376D01*
X0049572Y0027390D02*
X0051060Y0027390D01*
X0051060Y0027404D02*
X0049572Y0027404D01*
X0049572Y0027418D02*
X0051060Y0027418D01*
X0051060Y0027432D02*
X0049572Y0027432D01*
X0049572Y0027446D02*
X0051060Y0027446D01*
X0051060Y0027460D02*
X0049572Y0027460D01*
X0049572Y0027474D02*
X0051060Y0027474D01*
X0051060Y0027488D02*
X0049572Y0027488D01*
X0049572Y0027502D02*
X0051060Y0027502D01*
X0051060Y0027516D02*
X0049572Y0027516D01*
X0049572Y0027530D02*
X0051060Y0027530D01*
X0051060Y0027544D02*
X0049572Y0027544D01*
X0049572Y0027558D02*
X0051060Y0027558D01*
X0051060Y0027572D02*
X0049572Y0027572D01*
X0049572Y0027586D02*
X0051060Y0027586D01*
X0051060Y0027600D02*
X0049572Y0027600D01*
X0049572Y0027614D02*
X0051060Y0027614D01*
X0051060Y0027628D02*
X0049572Y0027628D01*
X0049572Y0027642D02*
X0051060Y0027642D01*
X0051060Y0027656D02*
X0049572Y0027656D01*
X0049572Y0027670D02*
X0051060Y0027670D01*
X0051060Y0027684D02*
X0049572Y0027684D01*
X0049572Y0027698D02*
X0051060Y0027698D01*
X0051060Y0027712D02*
X0049572Y0027712D01*
X0049572Y0027726D02*
X0051060Y0027726D01*
X0051060Y0027740D02*
X0049572Y0027740D01*
X0049572Y0027754D02*
X0051060Y0027754D01*
X0051060Y0027768D02*
X0049572Y0027768D01*
X0049572Y0027782D02*
X0051060Y0027782D01*
X0051060Y0027796D02*
X0049572Y0027796D01*
X0049572Y0027810D02*
X0051060Y0027810D01*
X0051060Y0027824D02*
X0049572Y0027824D01*
X0049572Y0027838D02*
X0051060Y0027838D01*
X0051060Y0027852D02*
X0049572Y0027852D01*
X0049572Y0027866D02*
X0051060Y0027866D01*
X0051060Y0027880D02*
X0049572Y0027880D01*
X0049572Y0027894D02*
X0051060Y0027894D01*
X0051060Y0027908D02*
X0049572Y0027908D01*
X0049572Y0027922D02*
X0051060Y0027922D01*
X0051060Y0027936D02*
X0049572Y0027936D01*
X0049572Y0027950D02*
X0051060Y0027950D01*
X0051060Y0027964D02*
X0049572Y0027964D01*
X0049572Y0027978D02*
X0051060Y0027978D01*
X0051060Y0027992D02*
X0049572Y0027992D01*
X0049572Y0028006D02*
X0051060Y0028006D01*
X0051060Y0028020D02*
X0049572Y0028020D01*
X0049572Y0028034D02*
X0051060Y0028034D01*
X0051060Y0028048D02*
X0049572Y0028048D01*
X0049572Y0028062D02*
X0051060Y0028062D01*
X0051060Y0028076D02*
X0049572Y0028076D01*
X0049572Y0028090D02*
X0051060Y0028090D01*
X0051060Y0028104D02*
X0049572Y0028104D01*
X0049572Y0028118D02*
X0051060Y0028118D01*
X0051060Y0028132D02*
X0049572Y0028132D01*
X0049572Y0028146D02*
X0051060Y0028146D01*
X0051060Y0028160D02*
X0049572Y0028160D01*
X0049572Y0028174D02*
X0051060Y0028174D01*
X0051060Y0028188D02*
X0049572Y0028188D01*
X0049572Y0028202D02*
X0051060Y0028202D01*
X0051060Y0028216D02*
X0049572Y0028216D01*
X0049572Y0028230D02*
X0051060Y0028230D01*
X0051060Y0028244D02*
X0049572Y0028244D01*
X0049572Y0028258D02*
X0051060Y0028258D01*
X0051060Y0028272D02*
X0049572Y0028272D01*
X0049572Y0028286D02*
X0051060Y0028286D01*
X0051060Y0028300D02*
X0049572Y0028300D01*
X0049572Y0028314D02*
X0051060Y0028314D01*
X0051060Y0028328D02*
X0049572Y0028328D01*
X0049572Y0028342D02*
X0051060Y0028342D01*
X0051060Y0028356D02*
X0049572Y0028356D01*
X0049572Y0028370D02*
X0051060Y0028370D01*
X0051060Y0028384D02*
X0049572Y0028384D01*
X0049572Y0028398D02*
X0051060Y0028398D01*
X0051060Y0028412D02*
X0049572Y0028412D01*
X0049572Y0028426D02*
X0051060Y0028426D01*
X0051060Y0028440D02*
X0049572Y0028440D01*
X0049572Y0028454D02*
X0051060Y0028454D01*
X0051060Y0028468D02*
X0049572Y0028468D01*
X0049572Y0028482D02*
X0051060Y0028482D01*
X0051060Y0028496D02*
X0049572Y0028496D01*
X0049572Y0028510D02*
X0051060Y0028510D01*
X0051060Y0028524D02*
X0049572Y0028524D01*
X0049572Y0028538D02*
X0051060Y0028538D01*
X0051060Y0028552D02*
X0049572Y0028552D01*
X0049572Y0028566D02*
X0051060Y0028566D01*
X0051060Y0028580D02*
X0049572Y0028580D01*
X0049572Y0028594D02*
X0051060Y0028594D01*
X0051060Y0028608D02*
X0049572Y0028608D01*
X0049572Y0028622D02*
X0051060Y0028622D01*
X0051060Y0028636D02*
X0049572Y0028636D01*
X0049572Y0028650D02*
X0051060Y0028650D01*
X0051060Y0028664D02*
X0049572Y0028664D01*
X0049572Y0028678D02*
X0051060Y0028678D01*
X0051060Y0028692D02*
X0049572Y0028692D01*
X0049572Y0028706D02*
X0051060Y0028706D01*
X0051060Y0028720D02*
X0049572Y0028720D01*
X0049572Y0028734D02*
X0051060Y0028734D01*
X0051060Y0028748D02*
X0049572Y0028748D01*
X0049572Y0028762D02*
X0051060Y0028762D01*
X0051060Y0028776D02*
X0049572Y0028776D01*
X0049572Y0028790D02*
X0051060Y0028790D01*
X0051060Y0028804D02*
X0049572Y0028804D01*
X0049572Y0028818D02*
X0051060Y0028818D01*
X0051060Y0028832D02*
X0049572Y0028832D01*
X0049572Y0028846D02*
X0051060Y0028846D01*
X0051060Y0028860D02*
X0049572Y0028860D01*
X0049572Y0028874D02*
X0051060Y0028874D01*
X0051060Y0028888D02*
X0049572Y0028888D01*
X0049572Y0028902D02*
X0051060Y0028902D01*
X0051060Y0028916D02*
X0049572Y0028916D01*
X0049572Y0028930D02*
X0051060Y0028930D01*
X0051060Y0028944D02*
X0049572Y0028944D01*
X0049572Y0028958D02*
X0051060Y0028958D01*
X0051060Y0028972D02*
X0049572Y0028972D01*
X0049572Y0028986D02*
X0051060Y0028986D01*
X0051060Y0029000D02*
X0049572Y0029000D01*
X0049572Y0029014D02*
X0051060Y0029014D01*
X0051060Y0029028D02*
X0049572Y0029028D01*
X0049572Y0029042D02*
X0051060Y0029042D01*
X0051060Y0029056D02*
X0049572Y0029056D01*
X0049572Y0029070D02*
X0051060Y0029070D01*
X0051060Y0029084D02*
X0049572Y0029084D01*
X0049572Y0029098D02*
X0051060Y0029098D01*
X0051060Y0029112D02*
X0049572Y0029112D01*
X0049572Y0029126D02*
X0051060Y0029126D01*
X0051060Y0029140D02*
X0049572Y0029140D01*
X0049572Y0029154D02*
X0051060Y0029154D01*
X0051060Y0029168D02*
X0049572Y0029168D01*
X0049572Y0029182D02*
X0051060Y0029182D01*
X0051060Y0029196D02*
X0049572Y0029196D01*
X0049572Y0029210D02*
X0051060Y0029210D01*
X0051060Y0029224D02*
X0049572Y0029224D01*
X0049572Y0029238D02*
X0051060Y0029238D01*
X0051060Y0029252D02*
X0049572Y0029252D01*
X0049572Y0029266D02*
X0051060Y0029266D01*
X0051060Y0029280D02*
X0049572Y0029280D01*
X0049572Y0029294D02*
X0051060Y0029294D01*
X0051060Y0029308D02*
X0049572Y0029308D01*
X0049572Y0029322D02*
X0051060Y0029322D01*
X0051060Y0029336D02*
X0049572Y0029336D01*
X0049572Y0029350D02*
X0051060Y0029350D01*
X0051060Y0029364D02*
X0049572Y0029364D01*
X0049572Y0029378D02*
X0051060Y0029378D01*
X0051060Y0029392D02*
X0049572Y0029392D01*
X0049572Y0029406D02*
X0051060Y0029406D01*
X0051060Y0029420D02*
X0049572Y0029420D01*
X0049572Y0029434D02*
X0051060Y0029434D01*
X0051060Y0029448D02*
X0049572Y0029448D01*
X0049572Y0029462D02*
X0051060Y0029462D01*
X0051060Y0029476D02*
X0049572Y0029476D01*
X0049572Y0029490D02*
X0051060Y0029490D01*
X0051060Y0029504D02*
X0049572Y0029504D01*
X0049572Y0029518D02*
X0051060Y0029518D01*
X0051060Y0029532D02*
X0049572Y0029532D01*
X0049572Y0029546D02*
X0051060Y0029546D01*
X0051060Y0029560D02*
X0049572Y0029560D01*
X0049572Y0029574D02*
X0051060Y0029574D01*
X0051060Y0029588D02*
X0049572Y0029588D01*
X0049572Y0029602D02*
X0051060Y0029602D01*
X0051060Y0029616D02*
X0049572Y0029616D01*
X0049572Y0029630D02*
X0051060Y0029630D01*
X0051060Y0029644D02*
X0049572Y0029644D01*
X0049572Y0029658D02*
X0051060Y0029658D01*
X0051060Y0029672D02*
X0049572Y0029672D01*
X0049572Y0029686D02*
X0051060Y0029686D01*
X0051060Y0029700D02*
X0049572Y0029700D01*
X0049572Y0029714D02*
X0051060Y0029714D01*
X0051060Y0029728D02*
X0049572Y0029728D01*
X0049572Y0029742D02*
X0051060Y0029742D01*
X0051060Y0029756D02*
X0049572Y0029756D01*
X0049572Y0029770D02*
X0051060Y0029770D01*
X0051060Y0029784D02*
X0049572Y0029784D01*
X0049572Y0029798D02*
X0051060Y0029798D01*
X0051060Y0029812D02*
X0049572Y0029812D01*
X0049572Y0029826D02*
X0051060Y0029826D01*
X0051060Y0029840D02*
X0049572Y0029840D01*
X0049572Y0029854D02*
X0051060Y0029854D01*
X0051060Y0029868D02*
X0049572Y0029868D01*
X0049572Y0029882D02*
X0051060Y0029882D01*
X0051060Y0029896D02*
X0049572Y0029896D01*
X0049572Y0029910D02*
X0051060Y0029910D01*
X0051060Y0029924D02*
X0049572Y0029924D01*
X0049572Y0029938D02*
X0051060Y0029938D01*
X0051060Y0029952D02*
X0049572Y0029952D01*
X0049572Y0029966D02*
X0051060Y0029966D01*
X0051060Y0029980D02*
X0049572Y0029980D01*
X0049572Y0029994D02*
X0051060Y0029994D01*
X0051060Y0030008D02*
X0049572Y0030008D01*
X0049572Y0030022D02*
X0051060Y0030022D01*
X0051060Y0030036D02*
X0049572Y0030036D01*
X0049572Y0030050D02*
X0051060Y0030050D01*
X0051060Y0030064D02*
X0049572Y0030064D01*
X0049572Y0030078D02*
X0051060Y0030078D01*
X0051060Y0030092D02*
X0049572Y0030092D01*
X0049572Y0030106D02*
X0051060Y0030106D01*
X0051060Y0030120D02*
X0049572Y0030120D01*
X0049572Y0030134D02*
X0051060Y0030134D01*
X0051060Y0030148D02*
X0049572Y0030148D01*
X0049572Y0030162D02*
X0051060Y0030162D01*
X0051060Y0030176D02*
X0049572Y0030176D01*
X0056966Y0030184D02*
X0056966Y0026550D01*
X0055478Y0026550D01*
X0055478Y0030184D01*
X0056966Y0030184D01*
X0056966Y0026564D02*
X0055478Y0026564D01*
X0055478Y0026578D02*
X0056966Y0026578D01*
X0056966Y0026592D02*
X0055478Y0026592D01*
X0055478Y0026606D02*
X0056966Y0026606D01*
X0056966Y0026620D02*
X0055478Y0026620D01*
X0055478Y0026634D02*
X0056966Y0026634D01*
X0056966Y0026648D02*
X0055478Y0026648D01*
X0055478Y0026662D02*
X0056966Y0026662D01*
X0056966Y0026676D02*
X0055478Y0026676D01*
X0055478Y0026690D02*
X0056966Y0026690D01*
X0056966Y0026704D02*
X0055478Y0026704D01*
X0055478Y0026718D02*
X0056966Y0026718D01*
X0056966Y0026732D02*
X0055478Y0026732D01*
X0055478Y0026746D02*
X0056966Y0026746D01*
X0056966Y0026760D02*
X0055478Y0026760D01*
X0055478Y0026774D02*
X0056966Y0026774D01*
X0056966Y0026788D02*
X0055478Y0026788D01*
X0055478Y0026802D02*
X0056966Y0026802D01*
X0056966Y0026816D02*
X0055478Y0026816D01*
X0055478Y0026830D02*
X0056966Y0026830D01*
X0056966Y0026844D02*
X0055478Y0026844D01*
X0055478Y0026858D02*
X0056966Y0026858D01*
X0056966Y0026872D02*
X0055478Y0026872D01*
X0055478Y0026886D02*
X0056966Y0026886D01*
X0056966Y0026900D02*
X0055478Y0026900D01*
X0055478Y0026914D02*
X0056966Y0026914D01*
X0056966Y0026928D02*
X0055478Y0026928D01*
X0055478Y0026942D02*
X0056966Y0026942D01*
X0056966Y0026956D02*
X0055478Y0026956D01*
X0055478Y0026970D02*
X0056966Y0026970D01*
X0056966Y0026984D02*
X0055478Y0026984D01*
X0055478Y0026998D02*
X0056966Y0026998D01*
X0056966Y0027012D02*
X0055478Y0027012D01*
X0055478Y0027026D02*
X0056966Y0027026D01*
X0056966Y0027040D02*
X0055478Y0027040D01*
X0055478Y0027054D02*
X0056966Y0027054D01*
X0056966Y0027068D02*
X0055478Y0027068D01*
X0055478Y0027082D02*
X0056966Y0027082D01*
X0056966Y0027096D02*
X0055478Y0027096D01*
X0055478Y0027110D02*
X0056966Y0027110D01*
X0056966Y0027124D02*
X0055478Y0027124D01*
X0055478Y0027138D02*
X0056966Y0027138D01*
X0056966Y0027152D02*
X0055478Y0027152D01*
X0055478Y0027166D02*
X0056966Y0027166D01*
X0056966Y0027180D02*
X0055478Y0027180D01*
X0055478Y0027194D02*
X0056966Y0027194D01*
X0056966Y0027208D02*
X0055478Y0027208D01*
X0055478Y0027222D02*
X0056966Y0027222D01*
X0056966Y0027236D02*
X0055478Y0027236D01*
X0055478Y0027250D02*
X0056966Y0027250D01*
X0056966Y0027264D02*
X0055478Y0027264D01*
X0055478Y0027278D02*
X0056966Y0027278D01*
X0056966Y0027292D02*
X0055478Y0027292D01*
X0055478Y0027306D02*
X0056966Y0027306D01*
X0056966Y0027320D02*
X0055478Y0027320D01*
X0055478Y0027334D02*
X0056966Y0027334D01*
X0056966Y0027348D02*
X0055478Y0027348D01*
X0055478Y0027362D02*
X0056966Y0027362D01*
X0056966Y0027376D02*
X0055478Y0027376D01*
X0055478Y0027390D02*
X0056966Y0027390D01*
X0056966Y0027404D02*
X0055478Y0027404D01*
X0055478Y0027418D02*
X0056966Y0027418D01*
X0056966Y0027432D02*
X0055478Y0027432D01*
X0055478Y0027446D02*
X0056966Y0027446D01*
X0056966Y0027460D02*
X0055478Y0027460D01*
X0055478Y0027474D02*
X0056966Y0027474D01*
X0056966Y0027488D02*
X0055478Y0027488D01*
X0055478Y0027502D02*
X0056966Y0027502D01*
X0056966Y0027516D02*
X0055478Y0027516D01*
X0055478Y0027530D02*
X0056966Y0027530D01*
X0056966Y0027544D02*
X0055478Y0027544D01*
X0055478Y0027558D02*
X0056966Y0027558D01*
X0056966Y0027572D02*
X0055478Y0027572D01*
X0055478Y0027586D02*
X0056966Y0027586D01*
X0056966Y0027600D02*
X0055478Y0027600D01*
X0055478Y0027614D02*
X0056966Y0027614D01*
X0056966Y0027628D02*
X0055478Y0027628D01*
X0055478Y0027642D02*
X0056966Y0027642D01*
X0056966Y0027656D02*
X0055478Y0027656D01*
X0055478Y0027670D02*
X0056966Y0027670D01*
X0056966Y0027684D02*
X0055478Y0027684D01*
X0055478Y0027698D02*
X0056966Y0027698D01*
X0056966Y0027712D02*
X0055478Y0027712D01*
X0055478Y0027726D02*
X0056966Y0027726D01*
X0056966Y0027740D02*
X0055478Y0027740D01*
X0055478Y0027754D02*
X0056966Y0027754D01*
X0056966Y0027768D02*
X0055478Y0027768D01*
X0055478Y0027782D02*
X0056966Y0027782D01*
X0056966Y0027796D02*
X0055478Y0027796D01*
X0055478Y0027810D02*
X0056966Y0027810D01*
X0056966Y0027824D02*
X0055478Y0027824D01*
X0055478Y0027838D02*
X0056966Y0027838D01*
X0056966Y0027852D02*
X0055478Y0027852D01*
X0055478Y0027866D02*
X0056966Y0027866D01*
X0056966Y0027880D02*
X0055478Y0027880D01*
X0055478Y0027894D02*
X0056966Y0027894D01*
X0056966Y0027908D02*
X0055478Y0027908D01*
X0055478Y0027922D02*
X0056966Y0027922D01*
X0056966Y0027936D02*
X0055478Y0027936D01*
X0055478Y0027950D02*
X0056966Y0027950D01*
X0056966Y0027964D02*
X0055478Y0027964D01*
X0055478Y0027978D02*
X0056966Y0027978D01*
X0056966Y0027992D02*
X0055478Y0027992D01*
X0055478Y0028006D02*
X0056966Y0028006D01*
X0056966Y0028020D02*
X0055478Y0028020D01*
X0055478Y0028034D02*
X0056966Y0028034D01*
X0056966Y0028048D02*
X0055478Y0028048D01*
X0055478Y0028062D02*
X0056966Y0028062D01*
X0056966Y0028076D02*
X0055478Y0028076D01*
X0055478Y0028090D02*
X0056966Y0028090D01*
X0056966Y0028104D02*
X0055478Y0028104D01*
X0055478Y0028118D02*
X0056966Y0028118D01*
X0056966Y0028132D02*
X0055478Y0028132D01*
X0055478Y0028146D02*
X0056966Y0028146D01*
X0056966Y0028160D02*
X0055478Y0028160D01*
X0055478Y0028174D02*
X0056966Y0028174D01*
X0056966Y0028188D02*
X0055478Y0028188D01*
X0055478Y0028202D02*
X0056966Y0028202D01*
X0056966Y0028216D02*
X0055478Y0028216D01*
X0055478Y0028230D02*
X0056966Y0028230D01*
X0056966Y0028244D02*
X0055478Y0028244D01*
X0055478Y0028258D02*
X0056966Y0028258D01*
X0056966Y0028272D02*
X0055478Y0028272D01*
X0055478Y0028286D02*
X0056966Y0028286D01*
X0056966Y0028300D02*
X0055478Y0028300D01*
X0055478Y0028314D02*
X0056966Y0028314D01*
X0056966Y0028328D02*
X0055478Y0028328D01*
X0055478Y0028342D02*
X0056966Y0028342D01*
X0056966Y0028356D02*
X0055478Y0028356D01*
X0055478Y0028370D02*
X0056966Y0028370D01*
X0056966Y0028384D02*
X0055478Y0028384D01*
X0055478Y0028398D02*
X0056966Y0028398D01*
X0056966Y0028412D02*
X0055478Y0028412D01*
X0055478Y0028426D02*
X0056966Y0028426D01*
X0056966Y0028440D02*
X0055478Y0028440D01*
X0055478Y0028454D02*
X0056966Y0028454D01*
X0056966Y0028468D02*
X0055478Y0028468D01*
X0055478Y0028482D02*
X0056966Y0028482D01*
X0056966Y0028496D02*
X0055478Y0028496D01*
X0055478Y0028510D02*
X0056966Y0028510D01*
X0056966Y0028524D02*
X0055478Y0028524D01*
X0055478Y0028538D02*
X0056966Y0028538D01*
X0056966Y0028552D02*
X0055478Y0028552D01*
X0055478Y0028566D02*
X0056966Y0028566D01*
X0056966Y0028580D02*
X0055478Y0028580D01*
X0055478Y0028594D02*
X0056966Y0028594D01*
X0056966Y0028608D02*
X0055478Y0028608D01*
X0055478Y0028622D02*
X0056966Y0028622D01*
X0056966Y0028636D02*
X0055478Y0028636D01*
X0055478Y0028650D02*
X0056966Y0028650D01*
X0056966Y0028664D02*
X0055478Y0028664D01*
X0055478Y0028678D02*
X0056966Y0028678D01*
X0056966Y0028692D02*
X0055478Y0028692D01*
X0055478Y0028706D02*
X0056966Y0028706D01*
X0056966Y0028720D02*
X0055478Y0028720D01*
X0055478Y0028734D02*
X0056966Y0028734D01*
X0056966Y0028748D02*
X0055478Y0028748D01*
X0055478Y0028762D02*
X0056966Y0028762D01*
X0056966Y0028776D02*
X0055478Y0028776D01*
X0055478Y0028790D02*
X0056966Y0028790D01*
X0056966Y0028804D02*
X0055478Y0028804D01*
X0055478Y0028818D02*
X0056966Y0028818D01*
X0056966Y0028832D02*
X0055478Y0028832D01*
X0055478Y0028846D02*
X0056966Y0028846D01*
X0056966Y0028860D02*
X0055478Y0028860D01*
X0055478Y0028874D02*
X0056966Y0028874D01*
X0056966Y0028888D02*
X0055478Y0028888D01*
X0055478Y0028902D02*
X0056966Y0028902D01*
X0056966Y0028916D02*
X0055478Y0028916D01*
X0055478Y0028930D02*
X0056966Y0028930D01*
X0056966Y0028944D02*
X0055478Y0028944D01*
X0055478Y0028958D02*
X0056966Y0028958D01*
X0056966Y0028972D02*
X0055478Y0028972D01*
X0055478Y0028986D02*
X0056966Y0028986D01*
X0056966Y0029000D02*
X0055478Y0029000D01*
X0055478Y0029014D02*
X0056966Y0029014D01*
X0056966Y0029028D02*
X0055478Y0029028D01*
X0055478Y0029042D02*
X0056966Y0029042D01*
X0056966Y0029056D02*
X0055478Y0029056D01*
X0055478Y0029070D02*
X0056966Y0029070D01*
X0056966Y0029084D02*
X0055478Y0029084D01*
X0055478Y0029098D02*
X0056966Y0029098D01*
X0056966Y0029112D02*
X0055478Y0029112D01*
X0055478Y0029126D02*
X0056966Y0029126D01*
X0056966Y0029140D02*
X0055478Y0029140D01*
X0055478Y0029154D02*
X0056966Y0029154D01*
X0056966Y0029168D02*
X0055478Y0029168D01*
X0055478Y0029182D02*
X0056966Y0029182D01*
X0056966Y0029196D02*
X0055478Y0029196D01*
X0055478Y0029210D02*
X0056966Y0029210D01*
X0056966Y0029224D02*
X0055478Y0029224D01*
X0055478Y0029238D02*
X0056966Y0029238D01*
X0056966Y0029252D02*
X0055478Y0029252D01*
X0055478Y0029266D02*
X0056966Y0029266D01*
X0056966Y0029280D02*
X0055478Y0029280D01*
X0055478Y0029294D02*
X0056966Y0029294D01*
X0056966Y0029308D02*
X0055478Y0029308D01*
X0055478Y0029322D02*
X0056966Y0029322D01*
X0056966Y0029336D02*
X0055478Y0029336D01*
X0055478Y0029350D02*
X0056966Y0029350D01*
X0056966Y0029364D02*
X0055478Y0029364D01*
X0055478Y0029378D02*
X0056966Y0029378D01*
X0056966Y0029392D02*
X0055478Y0029392D01*
X0055478Y0029406D02*
X0056966Y0029406D01*
X0056966Y0029420D02*
X0055478Y0029420D01*
X0055478Y0029434D02*
X0056966Y0029434D01*
X0056966Y0029448D02*
X0055478Y0029448D01*
X0055478Y0029462D02*
X0056966Y0029462D01*
X0056966Y0029476D02*
X0055478Y0029476D01*
X0055478Y0029490D02*
X0056966Y0029490D01*
X0056966Y0029504D02*
X0055478Y0029504D01*
X0055478Y0029518D02*
X0056966Y0029518D01*
X0056966Y0029532D02*
X0055478Y0029532D01*
X0055478Y0029546D02*
X0056966Y0029546D01*
X0056966Y0029560D02*
X0055478Y0029560D01*
X0055478Y0029574D02*
X0056966Y0029574D01*
X0056966Y0029588D02*
X0055478Y0029588D01*
X0055478Y0029602D02*
X0056966Y0029602D01*
X0056966Y0029616D02*
X0055478Y0029616D01*
X0055478Y0029630D02*
X0056966Y0029630D01*
X0056966Y0029644D02*
X0055478Y0029644D01*
X0055478Y0029658D02*
X0056966Y0029658D01*
X0056966Y0029672D02*
X0055478Y0029672D01*
X0055478Y0029686D02*
X0056966Y0029686D01*
X0056966Y0029700D02*
X0055478Y0029700D01*
X0055478Y0029714D02*
X0056966Y0029714D01*
X0056966Y0029728D02*
X0055478Y0029728D01*
X0055478Y0029742D02*
X0056966Y0029742D01*
X0056966Y0029756D02*
X0055478Y0029756D01*
X0055478Y0029770D02*
X0056966Y0029770D01*
X0056966Y0029784D02*
X0055478Y0029784D01*
X0055478Y0029798D02*
X0056966Y0029798D01*
X0056966Y0029812D02*
X0055478Y0029812D01*
X0055478Y0029826D02*
X0056966Y0029826D01*
X0056966Y0029840D02*
X0055478Y0029840D01*
X0055478Y0029854D02*
X0056966Y0029854D01*
X0056966Y0029868D02*
X0055478Y0029868D01*
X0055478Y0029882D02*
X0056966Y0029882D01*
X0056966Y0029896D02*
X0055478Y0029896D01*
X0055478Y0029910D02*
X0056966Y0029910D01*
X0056966Y0029924D02*
X0055478Y0029924D01*
X0055478Y0029938D02*
X0056966Y0029938D01*
X0056966Y0029952D02*
X0055478Y0029952D01*
X0055478Y0029966D02*
X0056966Y0029966D01*
X0056966Y0029980D02*
X0055478Y0029980D01*
X0055478Y0029994D02*
X0056966Y0029994D01*
X0056966Y0030008D02*
X0055478Y0030008D01*
X0055478Y0030022D02*
X0056966Y0030022D01*
X0056966Y0030036D02*
X0055478Y0030036D01*
X0055478Y0030050D02*
X0056966Y0030050D01*
X0056966Y0030064D02*
X0055478Y0030064D01*
X0055478Y0030078D02*
X0056966Y0030078D01*
X0056966Y0030092D02*
X0055478Y0030092D01*
X0055478Y0030106D02*
X0056966Y0030106D01*
X0056966Y0030120D02*
X0055478Y0030120D01*
X0055478Y0030134D02*
X0056966Y0030134D01*
X0056966Y0030148D02*
X0055478Y0030148D01*
X0055478Y0030162D02*
X0056966Y0030162D01*
X0056966Y0030176D02*
X0055478Y0030176D01*
X0058934Y0030184D02*
X0058934Y0026550D01*
X0057446Y0026550D01*
X0057446Y0030184D01*
X0058934Y0030184D01*
X0058934Y0026564D02*
X0057446Y0026564D01*
X0057446Y0026578D02*
X0058934Y0026578D01*
X0058934Y0026592D02*
X0057446Y0026592D01*
X0057446Y0026606D02*
X0058934Y0026606D01*
X0058934Y0026620D02*
X0057446Y0026620D01*
X0057446Y0026634D02*
X0058934Y0026634D01*
X0058934Y0026648D02*
X0057446Y0026648D01*
X0057446Y0026662D02*
X0058934Y0026662D01*
X0058934Y0026676D02*
X0057446Y0026676D01*
X0057446Y0026690D02*
X0058934Y0026690D01*
X0058934Y0026704D02*
X0057446Y0026704D01*
X0057446Y0026718D02*
X0058934Y0026718D01*
X0058934Y0026732D02*
X0057446Y0026732D01*
X0057446Y0026746D02*
X0058934Y0026746D01*
X0058934Y0026760D02*
X0057446Y0026760D01*
X0057446Y0026774D02*
X0058934Y0026774D01*
X0058934Y0026788D02*
X0057446Y0026788D01*
X0057446Y0026802D02*
X0058934Y0026802D01*
X0058934Y0026816D02*
X0057446Y0026816D01*
X0057446Y0026830D02*
X0058934Y0026830D01*
X0058934Y0026844D02*
X0057446Y0026844D01*
X0057446Y0026858D02*
X0058934Y0026858D01*
X0058934Y0026872D02*
X0057446Y0026872D01*
X0057446Y0026886D02*
X0058934Y0026886D01*
X0058934Y0026900D02*
X0057446Y0026900D01*
X0057446Y0026914D02*
X0058934Y0026914D01*
X0058934Y0026928D02*
X0057446Y0026928D01*
X0057446Y0026942D02*
X0058934Y0026942D01*
X0058934Y0026956D02*
X0057446Y0026956D01*
X0057446Y0026970D02*
X0058934Y0026970D01*
X0058934Y0026984D02*
X0057446Y0026984D01*
X0057446Y0026998D02*
X0058934Y0026998D01*
X0058934Y0027012D02*
X0057446Y0027012D01*
X0057446Y0027026D02*
X0058934Y0027026D01*
X0058934Y0027040D02*
X0057446Y0027040D01*
X0057446Y0027054D02*
X0058934Y0027054D01*
X0058934Y0027068D02*
X0057446Y0027068D01*
X0057446Y0027082D02*
X0058934Y0027082D01*
X0058934Y0027096D02*
X0057446Y0027096D01*
X0057446Y0027110D02*
X0058934Y0027110D01*
X0058934Y0027124D02*
X0057446Y0027124D01*
X0057446Y0027138D02*
X0058934Y0027138D01*
X0058934Y0027152D02*
X0057446Y0027152D01*
X0057446Y0027166D02*
X0058934Y0027166D01*
X0058934Y0027180D02*
X0057446Y0027180D01*
X0057446Y0027194D02*
X0058934Y0027194D01*
X0058934Y0027208D02*
X0057446Y0027208D01*
X0057446Y0027222D02*
X0058934Y0027222D01*
X0058934Y0027236D02*
X0057446Y0027236D01*
X0057446Y0027250D02*
X0058934Y0027250D01*
X0058934Y0027264D02*
X0057446Y0027264D01*
X0057446Y0027278D02*
X0058934Y0027278D01*
X0058934Y0027292D02*
X0057446Y0027292D01*
X0057446Y0027306D02*
X0058934Y0027306D01*
X0058934Y0027320D02*
X0057446Y0027320D01*
X0057446Y0027334D02*
X0058934Y0027334D01*
X0058934Y0027348D02*
X0057446Y0027348D01*
X0057446Y0027362D02*
X0058934Y0027362D01*
X0058934Y0027376D02*
X0057446Y0027376D01*
X0057446Y0027390D02*
X0058934Y0027390D01*
X0058934Y0027404D02*
X0057446Y0027404D01*
X0057446Y0027418D02*
X0058934Y0027418D01*
X0058934Y0027432D02*
X0057446Y0027432D01*
X0057446Y0027446D02*
X0058934Y0027446D01*
X0058934Y0027460D02*
X0057446Y0027460D01*
X0057446Y0027474D02*
X0058934Y0027474D01*
X0058934Y0027488D02*
X0057446Y0027488D01*
X0057446Y0027502D02*
X0058934Y0027502D01*
X0058934Y0027516D02*
X0057446Y0027516D01*
X0057446Y0027530D02*
X0058934Y0027530D01*
X0058934Y0027544D02*
X0057446Y0027544D01*
X0057446Y0027558D02*
X0058934Y0027558D01*
X0058934Y0027572D02*
X0057446Y0027572D01*
X0057446Y0027586D02*
X0058934Y0027586D01*
X0058934Y0027600D02*
X0057446Y0027600D01*
X0057446Y0027614D02*
X0058934Y0027614D01*
X0058934Y0027628D02*
X0057446Y0027628D01*
X0057446Y0027642D02*
X0058934Y0027642D01*
X0058934Y0027656D02*
X0057446Y0027656D01*
X0057446Y0027670D02*
X0058934Y0027670D01*
X0058934Y0027684D02*
X0057446Y0027684D01*
X0057446Y0027698D02*
X0058934Y0027698D01*
X0058934Y0027712D02*
X0057446Y0027712D01*
X0057446Y0027726D02*
X0058934Y0027726D01*
X0058934Y0027740D02*
X0057446Y0027740D01*
X0057446Y0027754D02*
X0058934Y0027754D01*
X0058934Y0027768D02*
X0057446Y0027768D01*
X0057446Y0027782D02*
X0058934Y0027782D01*
X0058934Y0027796D02*
X0057446Y0027796D01*
X0057446Y0027810D02*
X0058934Y0027810D01*
X0058934Y0027824D02*
X0057446Y0027824D01*
X0057446Y0027838D02*
X0058934Y0027838D01*
X0058934Y0027852D02*
X0057446Y0027852D01*
X0057446Y0027866D02*
X0058934Y0027866D01*
X0058934Y0027880D02*
X0057446Y0027880D01*
X0057446Y0027894D02*
X0058934Y0027894D01*
X0058934Y0027908D02*
X0057446Y0027908D01*
X0057446Y0027922D02*
X0058934Y0027922D01*
X0058934Y0027936D02*
X0057446Y0027936D01*
X0057446Y0027950D02*
X0058934Y0027950D01*
X0058934Y0027964D02*
X0057446Y0027964D01*
X0057446Y0027978D02*
X0058934Y0027978D01*
X0058934Y0027992D02*
X0057446Y0027992D01*
X0057446Y0028006D02*
X0058934Y0028006D01*
X0058934Y0028020D02*
X0057446Y0028020D01*
X0057446Y0028034D02*
X0058934Y0028034D01*
X0058934Y0028048D02*
X0057446Y0028048D01*
X0057446Y0028062D02*
X0058934Y0028062D01*
X0058934Y0028076D02*
X0057446Y0028076D01*
X0057446Y0028090D02*
X0058934Y0028090D01*
X0058934Y0028104D02*
X0057446Y0028104D01*
X0057446Y0028118D02*
X0058934Y0028118D01*
X0058934Y0028132D02*
X0057446Y0028132D01*
X0057446Y0028146D02*
X0058934Y0028146D01*
X0058934Y0028160D02*
X0057446Y0028160D01*
X0057446Y0028174D02*
X0058934Y0028174D01*
X0058934Y0028188D02*
X0057446Y0028188D01*
X0057446Y0028202D02*
X0058934Y0028202D01*
X0058934Y0028216D02*
X0057446Y0028216D01*
X0057446Y0028230D02*
X0058934Y0028230D01*
X0058934Y0028244D02*
X0057446Y0028244D01*
X0057446Y0028258D02*
X0058934Y0028258D01*
X0058934Y0028272D02*
X0057446Y0028272D01*
X0057446Y0028286D02*
X0058934Y0028286D01*
X0058934Y0028300D02*
X0057446Y0028300D01*
X0057446Y0028314D02*
X0058934Y0028314D01*
X0058934Y0028328D02*
X0057446Y0028328D01*
X0057446Y0028342D02*
X0058934Y0028342D01*
X0058934Y0028356D02*
X0057446Y0028356D01*
X0057446Y0028370D02*
X0058934Y0028370D01*
X0058934Y0028384D02*
X0057446Y0028384D01*
X0057446Y0028398D02*
X0058934Y0028398D01*
X0058934Y0028412D02*
X0057446Y0028412D01*
X0057446Y0028426D02*
X0058934Y0028426D01*
X0058934Y0028440D02*
X0057446Y0028440D01*
X0057446Y0028454D02*
X0058934Y0028454D01*
X0058934Y0028468D02*
X0057446Y0028468D01*
X0057446Y0028482D02*
X0058934Y0028482D01*
X0058934Y0028496D02*
X0057446Y0028496D01*
X0057446Y0028510D02*
X0058934Y0028510D01*
X0058934Y0028524D02*
X0057446Y0028524D01*
X0057446Y0028538D02*
X0058934Y0028538D01*
X0058934Y0028552D02*
X0057446Y0028552D01*
X0057446Y0028566D02*
X0058934Y0028566D01*
X0058934Y0028580D02*
X0057446Y0028580D01*
X0057446Y0028594D02*
X0058934Y0028594D01*
X0058934Y0028608D02*
X0057446Y0028608D01*
X0057446Y0028622D02*
X0058934Y0028622D01*
X0058934Y0028636D02*
X0057446Y0028636D01*
X0057446Y0028650D02*
X0058934Y0028650D01*
X0058934Y0028664D02*
X0057446Y0028664D01*
X0057446Y0028678D02*
X0058934Y0028678D01*
X0058934Y0028692D02*
X0057446Y0028692D01*
X0057446Y0028706D02*
X0058934Y0028706D01*
X0058934Y0028720D02*
X0057446Y0028720D01*
X0057446Y0028734D02*
X0058934Y0028734D01*
X0058934Y0028748D02*
X0057446Y0028748D01*
X0057446Y0028762D02*
X0058934Y0028762D01*
X0058934Y0028776D02*
X0057446Y0028776D01*
X0057446Y0028790D02*
X0058934Y0028790D01*
X0058934Y0028804D02*
X0057446Y0028804D01*
X0057446Y0028818D02*
X0058934Y0028818D01*
X0058934Y0028832D02*
X0057446Y0028832D01*
X0057446Y0028846D02*
X0058934Y0028846D01*
X0058934Y0028860D02*
X0057446Y0028860D01*
X0057446Y0028874D02*
X0058934Y0028874D01*
X0058934Y0028888D02*
X0057446Y0028888D01*
X0057446Y0028902D02*
X0058934Y0028902D01*
X0058934Y0028916D02*
X0057446Y0028916D01*
X0057446Y0028930D02*
X0058934Y0028930D01*
X0058934Y0028944D02*
X0057446Y0028944D01*
X0057446Y0028958D02*
X0058934Y0028958D01*
X0058934Y0028972D02*
X0057446Y0028972D01*
X0057446Y0028986D02*
X0058934Y0028986D01*
X0058934Y0029000D02*
X0057446Y0029000D01*
X0057446Y0029014D02*
X0058934Y0029014D01*
X0058934Y0029028D02*
X0057446Y0029028D01*
X0057446Y0029042D02*
X0058934Y0029042D01*
X0058934Y0029056D02*
X0057446Y0029056D01*
X0057446Y0029070D02*
X0058934Y0029070D01*
X0058934Y0029084D02*
X0057446Y0029084D01*
X0057446Y0029098D02*
X0058934Y0029098D01*
X0058934Y0029112D02*
X0057446Y0029112D01*
X0057446Y0029126D02*
X0058934Y0029126D01*
X0058934Y0029140D02*
X0057446Y0029140D01*
X0057446Y0029154D02*
X0058934Y0029154D01*
X0058934Y0029168D02*
X0057446Y0029168D01*
X0057446Y0029182D02*
X0058934Y0029182D01*
X0058934Y0029196D02*
X0057446Y0029196D01*
X0057446Y0029210D02*
X0058934Y0029210D01*
X0058934Y0029224D02*
X0057446Y0029224D01*
X0057446Y0029238D02*
X0058934Y0029238D01*
X0058934Y0029252D02*
X0057446Y0029252D01*
X0057446Y0029266D02*
X0058934Y0029266D01*
X0058934Y0029280D02*
X0057446Y0029280D01*
X0057446Y0029294D02*
X0058934Y0029294D01*
X0058934Y0029308D02*
X0057446Y0029308D01*
X0057446Y0029322D02*
X0058934Y0029322D01*
X0058934Y0029336D02*
X0057446Y0029336D01*
X0057446Y0029350D02*
X0058934Y0029350D01*
X0058934Y0029364D02*
X0057446Y0029364D01*
X0057446Y0029378D02*
X0058934Y0029378D01*
X0058934Y0029392D02*
X0057446Y0029392D01*
X0057446Y0029406D02*
X0058934Y0029406D01*
X0058934Y0029420D02*
X0057446Y0029420D01*
X0057446Y0029434D02*
X0058934Y0029434D01*
X0058934Y0029448D02*
X0057446Y0029448D01*
X0057446Y0029462D02*
X0058934Y0029462D01*
X0058934Y0029476D02*
X0057446Y0029476D01*
X0057446Y0029490D02*
X0058934Y0029490D01*
X0058934Y0029504D02*
X0057446Y0029504D01*
X0057446Y0029518D02*
X0058934Y0029518D01*
X0058934Y0029532D02*
X0057446Y0029532D01*
X0057446Y0029546D02*
X0058934Y0029546D01*
X0058934Y0029560D02*
X0057446Y0029560D01*
X0057446Y0029574D02*
X0058934Y0029574D01*
X0058934Y0029588D02*
X0057446Y0029588D01*
X0057446Y0029602D02*
X0058934Y0029602D01*
X0058934Y0029616D02*
X0057446Y0029616D01*
X0057446Y0029630D02*
X0058934Y0029630D01*
X0058934Y0029644D02*
X0057446Y0029644D01*
X0057446Y0029658D02*
X0058934Y0029658D01*
X0058934Y0029672D02*
X0057446Y0029672D01*
X0057446Y0029686D02*
X0058934Y0029686D01*
X0058934Y0029700D02*
X0057446Y0029700D01*
X0057446Y0029714D02*
X0058934Y0029714D01*
X0058934Y0029728D02*
X0057446Y0029728D01*
X0057446Y0029742D02*
X0058934Y0029742D01*
X0058934Y0029756D02*
X0057446Y0029756D01*
X0057446Y0029770D02*
X0058934Y0029770D01*
X0058934Y0029784D02*
X0057446Y0029784D01*
X0057446Y0029798D02*
X0058934Y0029798D01*
X0058934Y0029812D02*
X0057446Y0029812D01*
X0057446Y0029826D02*
X0058934Y0029826D01*
X0058934Y0029840D02*
X0057446Y0029840D01*
X0057446Y0029854D02*
X0058934Y0029854D01*
X0058934Y0029868D02*
X0057446Y0029868D01*
X0057446Y0029882D02*
X0058934Y0029882D01*
X0058934Y0029896D02*
X0057446Y0029896D01*
X0057446Y0029910D02*
X0058934Y0029910D01*
X0058934Y0029924D02*
X0057446Y0029924D01*
X0057446Y0029938D02*
X0058934Y0029938D01*
X0058934Y0029952D02*
X0057446Y0029952D01*
X0057446Y0029966D02*
X0058934Y0029966D01*
X0058934Y0029980D02*
X0057446Y0029980D01*
X0057446Y0029994D02*
X0058934Y0029994D01*
X0058934Y0030008D02*
X0057446Y0030008D01*
X0057446Y0030022D02*
X0058934Y0030022D01*
X0058934Y0030036D02*
X0057446Y0030036D01*
X0057446Y0030050D02*
X0058934Y0030050D01*
X0058934Y0030064D02*
X0057446Y0030064D01*
X0057446Y0030078D02*
X0058934Y0030078D01*
X0058934Y0030092D02*
X0057446Y0030092D01*
X0057446Y0030106D02*
X0058934Y0030106D01*
X0058934Y0030120D02*
X0057446Y0030120D01*
X0057446Y0030134D02*
X0058934Y0030134D01*
X0058934Y0030148D02*
X0057446Y0030148D01*
X0057446Y0030162D02*
X0058934Y0030162D01*
X0058934Y0030176D02*
X0057446Y0030176D01*
X0058934Y0038066D02*
X0058934Y0041700D01*
X0058934Y0038066D02*
X0057446Y0038066D01*
X0057446Y0041700D01*
X0058934Y0041700D01*
X0058934Y0038080D02*
X0057446Y0038080D01*
X0057446Y0038094D02*
X0058934Y0038094D01*
X0058934Y0038108D02*
X0057446Y0038108D01*
X0057446Y0038122D02*
X0058934Y0038122D01*
X0058934Y0038136D02*
X0057446Y0038136D01*
X0057446Y0038150D02*
X0058934Y0038150D01*
X0058934Y0038164D02*
X0057446Y0038164D01*
X0057446Y0038178D02*
X0058934Y0038178D01*
X0058934Y0038192D02*
X0057446Y0038192D01*
X0057446Y0038206D02*
X0058934Y0038206D01*
X0058934Y0038220D02*
X0057446Y0038220D01*
X0057446Y0038234D02*
X0058934Y0038234D01*
X0058934Y0038248D02*
X0057446Y0038248D01*
X0057446Y0038262D02*
X0058934Y0038262D01*
X0058934Y0038276D02*
X0057446Y0038276D01*
X0057446Y0038290D02*
X0058934Y0038290D01*
X0058934Y0038304D02*
X0057446Y0038304D01*
X0057446Y0038318D02*
X0058934Y0038318D01*
X0058934Y0038332D02*
X0057446Y0038332D01*
X0057446Y0038346D02*
X0058934Y0038346D01*
X0058934Y0038360D02*
X0057446Y0038360D01*
X0057446Y0038374D02*
X0058934Y0038374D01*
X0058934Y0038388D02*
X0057446Y0038388D01*
X0057446Y0038402D02*
X0058934Y0038402D01*
X0058934Y0038416D02*
X0057446Y0038416D01*
X0057446Y0038430D02*
X0058934Y0038430D01*
X0058934Y0038444D02*
X0057446Y0038444D01*
X0057446Y0038458D02*
X0058934Y0038458D01*
X0058934Y0038472D02*
X0057446Y0038472D01*
X0057446Y0038486D02*
X0058934Y0038486D01*
X0058934Y0038500D02*
X0057446Y0038500D01*
X0057446Y0038514D02*
X0058934Y0038514D01*
X0058934Y0038528D02*
X0057446Y0038528D01*
X0057446Y0038542D02*
X0058934Y0038542D01*
X0058934Y0038556D02*
X0057446Y0038556D01*
X0057446Y0038570D02*
X0058934Y0038570D01*
X0058934Y0038584D02*
X0057446Y0038584D01*
X0057446Y0038598D02*
X0058934Y0038598D01*
X0058934Y0038612D02*
X0057446Y0038612D01*
X0057446Y0038626D02*
X0058934Y0038626D01*
X0058934Y0038640D02*
X0057446Y0038640D01*
X0057446Y0038654D02*
X0058934Y0038654D01*
X0058934Y0038668D02*
X0057446Y0038668D01*
X0057446Y0038682D02*
X0058934Y0038682D01*
X0058934Y0038696D02*
X0057446Y0038696D01*
X0057446Y0038710D02*
X0058934Y0038710D01*
X0058934Y0038724D02*
X0057446Y0038724D01*
X0057446Y0038738D02*
X0058934Y0038738D01*
X0058934Y0038752D02*
X0057446Y0038752D01*
X0057446Y0038766D02*
X0058934Y0038766D01*
X0058934Y0038780D02*
X0057446Y0038780D01*
X0057446Y0038794D02*
X0058934Y0038794D01*
X0058934Y0038808D02*
X0057446Y0038808D01*
X0057446Y0038822D02*
X0058934Y0038822D01*
X0058934Y0038836D02*
X0057446Y0038836D01*
X0057446Y0038850D02*
X0058934Y0038850D01*
X0058934Y0038864D02*
X0057446Y0038864D01*
X0057446Y0038878D02*
X0058934Y0038878D01*
X0058934Y0038892D02*
X0057446Y0038892D01*
X0057446Y0038906D02*
X0058934Y0038906D01*
X0058934Y0038920D02*
X0057446Y0038920D01*
X0057446Y0038934D02*
X0058934Y0038934D01*
X0058934Y0038948D02*
X0057446Y0038948D01*
X0057446Y0038962D02*
X0058934Y0038962D01*
X0058934Y0038976D02*
X0057446Y0038976D01*
X0057446Y0038990D02*
X0058934Y0038990D01*
X0058934Y0039004D02*
X0057446Y0039004D01*
X0057446Y0039018D02*
X0058934Y0039018D01*
X0058934Y0039032D02*
X0057446Y0039032D01*
X0057446Y0039046D02*
X0058934Y0039046D01*
X0058934Y0039060D02*
X0057446Y0039060D01*
X0057446Y0039074D02*
X0058934Y0039074D01*
X0058934Y0039088D02*
X0057446Y0039088D01*
X0057446Y0039102D02*
X0058934Y0039102D01*
X0058934Y0039116D02*
X0057446Y0039116D01*
X0057446Y0039130D02*
X0058934Y0039130D01*
X0058934Y0039144D02*
X0057446Y0039144D01*
X0057446Y0039158D02*
X0058934Y0039158D01*
X0058934Y0039172D02*
X0057446Y0039172D01*
X0057446Y0039186D02*
X0058934Y0039186D01*
X0058934Y0039200D02*
X0057446Y0039200D01*
X0057446Y0039214D02*
X0058934Y0039214D01*
X0058934Y0039228D02*
X0057446Y0039228D01*
X0057446Y0039242D02*
X0058934Y0039242D01*
X0058934Y0039256D02*
X0057446Y0039256D01*
X0057446Y0039270D02*
X0058934Y0039270D01*
X0058934Y0039284D02*
X0057446Y0039284D01*
X0057446Y0039298D02*
X0058934Y0039298D01*
X0058934Y0039312D02*
X0057446Y0039312D01*
X0057446Y0039326D02*
X0058934Y0039326D01*
X0058934Y0039340D02*
X0057446Y0039340D01*
X0057446Y0039354D02*
X0058934Y0039354D01*
X0058934Y0039368D02*
X0057446Y0039368D01*
X0057446Y0039382D02*
X0058934Y0039382D01*
X0058934Y0039396D02*
X0057446Y0039396D01*
X0057446Y0039410D02*
X0058934Y0039410D01*
X0058934Y0039424D02*
X0057446Y0039424D01*
X0057446Y0039438D02*
X0058934Y0039438D01*
X0058934Y0039452D02*
X0057446Y0039452D01*
X0057446Y0039466D02*
X0058934Y0039466D01*
X0058934Y0039480D02*
X0057446Y0039480D01*
X0057446Y0039494D02*
X0058934Y0039494D01*
X0058934Y0039508D02*
X0057446Y0039508D01*
X0057446Y0039522D02*
X0058934Y0039522D01*
X0058934Y0039536D02*
X0057446Y0039536D01*
X0057446Y0039550D02*
X0058934Y0039550D01*
X0058934Y0039564D02*
X0057446Y0039564D01*
X0057446Y0039578D02*
X0058934Y0039578D01*
X0058934Y0039592D02*
X0057446Y0039592D01*
X0057446Y0039606D02*
X0058934Y0039606D01*
X0058934Y0039620D02*
X0057446Y0039620D01*
X0057446Y0039634D02*
X0058934Y0039634D01*
X0058934Y0039648D02*
X0057446Y0039648D01*
X0057446Y0039662D02*
X0058934Y0039662D01*
X0058934Y0039676D02*
X0057446Y0039676D01*
X0057446Y0039690D02*
X0058934Y0039690D01*
X0058934Y0039704D02*
X0057446Y0039704D01*
X0057446Y0039718D02*
X0058934Y0039718D01*
X0058934Y0039732D02*
X0057446Y0039732D01*
X0057446Y0039746D02*
X0058934Y0039746D01*
X0058934Y0039760D02*
X0057446Y0039760D01*
X0057446Y0039774D02*
X0058934Y0039774D01*
X0058934Y0039788D02*
X0057446Y0039788D01*
X0057446Y0039802D02*
X0058934Y0039802D01*
X0058934Y0039816D02*
X0057446Y0039816D01*
X0057446Y0039830D02*
X0058934Y0039830D01*
X0058934Y0039844D02*
X0057446Y0039844D01*
X0057446Y0039858D02*
X0058934Y0039858D01*
X0058934Y0039872D02*
X0057446Y0039872D01*
X0057446Y0039886D02*
X0058934Y0039886D01*
X0058934Y0039900D02*
X0057446Y0039900D01*
X0057446Y0039914D02*
X0058934Y0039914D01*
X0058934Y0039928D02*
X0057446Y0039928D01*
X0057446Y0039942D02*
X0058934Y0039942D01*
X0058934Y0039956D02*
X0057446Y0039956D01*
X0057446Y0039970D02*
X0058934Y0039970D01*
X0058934Y0039984D02*
X0057446Y0039984D01*
X0057446Y0039998D02*
X0058934Y0039998D01*
X0058934Y0040012D02*
X0057446Y0040012D01*
X0057446Y0040026D02*
X0058934Y0040026D01*
X0058934Y0040040D02*
X0057446Y0040040D01*
X0057446Y0040054D02*
X0058934Y0040054D01*
X0058934Y0040068D02*
X0057446Y0040068D01*
X0057446Y0040082D02*
X0058934Y0040082D01*
X0058934Y0040096D02*
X0057446Y0040096D01*
X0057446Y0040110D02*
X0058934Y0040110D01*
X0058934Y0040124D02*
X0057446Y0040124D01*
X0057446Y0040138D02*
X0058934Y0040138D01*
X0058934Y0040152D02*
X0057446Y0040152D01*
X0057446Y0040166D02*
X0058934Y0040166D01*
X0058934Y0040180D02*
X0057446Y0040180D01*
X0057446Y0040194D02*
X0058934Y0040194D01*
X0058934Y0040208D02*
X0057446Y0040208D01*
X0057446Y0040222D02*
X0058934Y0040222D01*
X0058934Y0040236D02*
X0057446Y0040236D01*
X0057446Y0040250D02*
X0058934Y0040250D01*
X0058934Y0040264D02*
X0057446Y0040264D01*
X0057446Y0040278D02*
X0058934Y0040278D01*
X0058934Y0040292D02*
X0057446Y0040292D01*
X0057446Y0040306D02*
X0058934Y0040306D01*
X0058934Y0040320D02*
X0057446Y0040320D01*
X0057446Y0040334D02*
X0058934Y0040334D01*
X0058934Y0040348D02*
X0057446Y0040348D01*
X0057446Y0040362D02*
X0058934Y0040362D01*
X0058934Y0040376D02*
X0057446Y0040376D01*
X0057446Y0040390D02*
X0058934Y0040390D01*
X0058934Y0040404D02*
X0057446Y0040404D01*
X0057446Y0040418D02*
X0058934Y0040418D01*
X0058934Y0040432D02*
X0057446Y0040432D01*
X0057446Y0040446D02*
X0058934Y0040446D01*
X0058934Y0040460D02*
X0057446Y0040460D01*
X0057446Y0040474D02*
X0058934Y0040474D01*
X0058934Y0040488D02*
X0057446Y0040488D01*
X0057446Y0040502D02*
X0058934Y0040502D01*
X0058934Y0040516D02*
X0057446Y0040516D01*
X0057446Y0040530D02*
X0058934Y0040530D01*
X0058934Y0040544D02*
X0057446Y0040544D01*
X0057446Y0040558D02*
X0058934Y0040558D01*
X0058934Y0040572D02*
X0057446Y0040572D01*
X0057446Y0040586D02*
X0058934Y0040586D01*
X0058934Y0040600D02*
X0057446Y0040600D01*
X0057446Y0040614D02*
X0058934Y0040614D01*
X0058934Y0040628D02*
X0057446Y0040628D01*
X0057446Y0040642D02*
X0058934Y0040642D01*
X0058934Y0040656D02*
X0057446Y0040656D01*
X0057446Y0040670D02*
X0058934Y0040670D01*
X0058934Y0040684D02*
X0057446Y0040684D01*
X0057446Y0040698D02*
X0058934Y0040698D01*
X0058934Y0040712D02*
X0057446Y0040712D01*
X0057446Y0040726D02*
X0058934Y0040726D01*
X0058934Y0040740D02*
X0057446Y0040740D01*
X0057446Y0040754D02*
X0058934Y0040754D01*
X0058934Y0040768D02*
X0057446Y0040768D01*
X0057446Y0040782D02*
X0058934Y0040782D01*
X0058934Y0040796D02*
X0057446Y0040796D01*
X0057446Y0040810D02*
X0058934Y0040810D01*
X0058934Y0040824D02*
X0057446Y0040824D01*
X0057446Y0040838D02*
X0058934Y0040838D01*
X0058934Y0040852D02*
X0057446Y0040852D01*
X0057446Y0040866D02*
X0058934Y0040866D01*
X0058934Y0040880D02*
X0057446Y0040880D01*
X0057446Y0040894D02*
X0058934Y0040894D01*
X0058934Y0040908D02*
X0057446Y0040908D01*
X0057446Y0040922D02*
X0058934Y0040922D01*
X0058934Y0040936D02*
X0057446Y0040936D01*
X0057446Y0040950D02*
X0058934Y0040950D01*
X0058934Y0040964D02*
X0057446Y0040964D01*
X0057446Y0040978D02*
X0058934Y0040978D01*
X0058934Y0040992D02*
X0057446Y0040992D01*
X0057446Y0041006D02*
X0058934Y0041006D01*
X0058934Y0041020D02*
X0057446Y0041020D01*
X0057446Y0041034D02*
X0058934Y0041034D01*
X0058934Y0041048D02*
X0057446Y0041048D01*
X0057446Y0041062D02*
X0058934Y0041062D01*
X0058934Y0041076D02*
X0057446Y0041076D01*
X0057446Y0041090D02*
X0058934Y0041090D01*
X0058934Y0041104D02*
X0057446Y0041104D01*
X0057446Y0041118D02*
X0058934Y0041118D01*
X0058934Y0041132D02*
X0057446Y0041132D01*
X0057446Y0041146D02*
X0058934Y0041146D01*
X0058934Y0041160D02*
X0057446Y0041160D01*
X0057446Y0041174D02*
X0058934Y0041174D01*
X0058934Y0041188D02*
X0057446Y0041188D01*
X0057446Y0041202D02*
X0058934Y0041202D01*
X0058934Y0041216D02*
X0057446Y0041216D01*
X0057446Y0041230D02*
X0058934Y0041230D01*
X0058934Y0041244D02*
X0057446Y0041244D01*
X0057446Y0041258D02*
X0058934Y0041258D01*
X0058934Y0041272D02*
X0057446Y0041272D01*
X0057446Y0041286D02*
X0058934Y0041286D01*
X0058934Y0041300D02*
X0057446Y0041300D01*
X0057446Y0041314D02*
X0058934Y0041314D01*
X0058934Y0041328D02*
X0057446Y0041328D01*
X0057446Y0041342D02*
X0058934Y0041342D01*
X0058934Y0041356D02*
X0057446Y0041356D01*
X0057446Y0041370D02*
X0058934Y0041370D01*
X0058934Y0041384D02*
X0057446Y0041384D01*
X0057446Y0041398D02*
X0058934Y0041398D01*
X0058934Y0041412D02*
X0057446Y0041412D01*
X0057446Y0041426D02*
X0058934Y0041426D01*
X0058934Y0041440D02*
X0057446Y0041440D01*
X0057446Y0041454D02*
X0058934Y0041454D01*
X0058934Y0041468D02*
X0057446Y0041468D01*
X0057446Y0041482D02*
X0058934Y0041482D01*
X0058934Y0041496D02*
X0057446Y0041496D01*
X0057446Y0041510D02*
X0058934Y0041510D01*
X0058934Y0041524D02*
X0057446Y0041524D01*
X0057446Y0041538D02*
X0058934Y0041538D01*
X0058934Y0041552D02*
X0057446Y0041552D01*
X0057446Y0041566D02*
X0058934Y0041566D01*
X0058934Y0041580D02*
X0057446Y0041580D01*
X0057446Y0041594D02*
X0058934Y0041594D01*
X0058934Y0041608D02*
X0057446Y0041608D01*
X0057446Y0041622D02*
X0058934Y0041622D01*
X0058934Y0041636D02*
X0057446Y0041636D01*
X0057446Y0041650D02*
X0058934Y0041650D01*
X0058934Y0041664D02*
X0057446Y0041664D01*
X0057446Y0041678D02*
X0058934Y0041678D01*
X0058934Y0041692D02*
X0057446Y0041692D01*
X0056966Y0041700D02*
X0056966Y0038066D01*
X0055478Y0038066D01*
X0055478Y0041700D01*
X0056966Y0041700D01*
X0056966Y0038080D02*
X0055478Y0038080D01*
X0055478Y0038094D02*
X0056966Y0038094D01*
X0056966Y0038108D02*
X0055478Y0038108D01*
X0055478Y0038122D02*
X0056966Y0038122D01*
X0056966Y0038136D02*
X0055478Y0038136D01*
X0055478Y0038150D02*
X0056966Y0038150D01*
X0056966Y0038164D02*
X0055478Y0038164D01*
X0055478Y0038178D02*
X0056966Y0038178D01*
X0056966Y0038192D02*
X0055478Y0038192D01*
X0055478Y0038206D02*
X0056966Y0038206D01*
X0056966Y0038220D02*
X0055478Y0038220D01*
X0055478Y0038234D02*
X0056966Y0038234D01*
X0056966Y0038248D02*
X0055478Y0038248D01*
X0055478Y0038262D02*
X0056966Y0038262D01*
X0056966Y0038276D02*
X0055478Y0038276D01*
X0055478Y0038290D02*
X0056966Y0038290D01*
X0056966Y0038304D02*
X0055478Y0038304D01*
X0055478Y0038318D02*
X0056966Y0038318D01*
X0056966Y0038332D02*
X0055478Y0038332D01*
X0055478Y0038346D02*
X0056966Y0038346D01*
X0056966Y0038360D02*
X0055478Y0038360D01*
X0055478Y0038374D02*
X0056966Y0038374D01*
X0056966Y0038388D02*
X0055478Y0038388D01*
X0055478Y0038402D02*
X0056966Y0038402D01*
X0056966Y0038416D02*
X0055478Y0038416D01*
X0055478Y0038430D02*
X0056966Y0038430D01*
X0056966Y0038444D02*
X0055478Y0038444D01*
X0055478Y0038458D02*
X0056966Y0038458D01*
X0056966Y0038472D02*
X0055478Y0038472D01*
X0055478Y0038486D02*
X0056966Y0038486D01*
X0056966Y0038500D02*
X0055478Y0038500D01*
X0055478Y0038514D02*
X0056966Y0038514D01*
X0056966Y0038528D02*
X0055478Y0038528D01*
X0055478Y0038542D02*
X0056966Y0038542D01*
X0056966Y0038556D02*
X0055478Y0038556D01*
X0055478Y0038570D02*
X0056966Y0038570D01*
X0056966Y0038584D02*
X0055478Y0038584D01*
X0055478Y0038598D02*
X0056966Y0038598D01*
X0056966Y0038612D02*
X0055478Y0038612D01*
X0055478Y0038626D02*
X0056966Y0038626D01*
X0056966Y0038640D02*
X0055478Y0038640D01*
X0055478Y0038654D02*
X0056966Y0038654D01*
X0056966Y0038668D02*
X0055478Y0038668D01*
X0055478Y0038682D02*
X0056966Y0038682D01*
X0056966Y0038696D02*
X0055478Y0038696D01*
X0055478Y0038710D02*
X0056966Y0038710D01*
X0056966Y0038724D02*
X0055478Y0038724D01*
X0055478Y0038738D02*
X0056966Y0038738D01*
X0056966Y0038752D02*
X0055478Y0038752D01*
X0055478Y0038766D02*
X0056966Y0038766D01*
X0056966Y0038780D02*
X0055478Y0038780D01*
X0055478Y0038794D02*
X0056966Y0038794D01*
X0056966Y0038808D02*
X0055478Y0038808D01*
X0055478Y0038822D02*
X0056966Y0038822D01*
X0056966Y0038836D02*
X0055478Y0038836D01*
X0055478Y0038850D02*
X0056966Y0038850D01*
X0056966Y0038864D02*
X0055478Y0038864D01*
X0055478Y0038878D02*
X0056966Y0038878D01*
X0056966Y0038892D02*
X0055478Y0038892D01*
X0055478Y0038906D02*
X0056966Y0038906D01*
X0056966Y0038920D02*
X0055478Y0038920D01*
X0055478Y0038934D02*
X0056966Y0038934D01*
X0056966Y0038948D02*
X0055478Y0038948D01*
X0055478Y0038962D02*
X0056966Y0038962D01*
X0056966Y0038976D02*
X0055478Y0038976D01*
X0055478Y0038990D02*
X0056966Y0038990D01*
X0056966Y0039004D02*
X0055478Y0039004D01*
X0055478Y0039018D02*
X0056966Y0039018D01*
X0056966Y0039032D02*
X0055478Y0039032D01*
X0055478Y0039046D02*
X0056966Y0039046D01*
X0056966Y0039060D02*
X0055478Y0039060D01*
X0055478Y0039074D02*
X0056966Y0039074D01*
X0056966Y0039088D02*
X0055478Y0039088D01*
X0055478Y0039102D02*
X0056966Y0039102D01*
X0056966Y0039116D02*
X0055478Y0039116D01*
X0055478Y0039130D02*
X0056966Y0039130D01*
X0056966Y0039144D02*
X0055478Y0039144D01*
X0055478Y0039158D02*
X0056966Y0039158D01*
X0056966Y0039172D02*
X0055478Y0039172D01*
X0055478Y0039186D02*
X0056966Y0039186D01*
X0056966Y0039200D02*
X0055478Y0039200D01*
X0055478Y0039214D02*
X0056966Y0039214D01*
X0056966Y0039228D02*
X0055478Y0039228D01*
X0055478Y0039242D02*
X0056966Y0039242D01*
X0056966Y0039256D02*
X0055478Y0039256D01*
X0055478Y0039270D02*
X0056966Y0039270D01*
X0056966Y0039284D02*
X0055478Y0039284D01*
X0055478Y0039298D02*
X0056966Y0039298D01*
X0056966Y0039312D02*
X0055478Y0039312D01*
X0055478Y0039326D02*
X0056966Y0039326D01*
X0056966Y0039340D02*
X0055478Y0039340D01*
X0055478Y0039354D02*
X0056966Y0039354D01*
X0056966Y0039368D02*
X0055478Y0039368D01*
X0055478Y0039382D02*
X0056966Y0039382D01*
X0056966Y0039396D02*
X0055478Y0039396D01*
X0055478Y0039410D02*
X0056966Y0039410D01*
X0056966Y0039424D02*
X0055478Y0039424D01*
X0055478Y0039438D02*
X0056966Y0039438D01*
X0056966Y0039452D02*
X0055478Y0039452D01*
X0055478Y0039466D02*
X0056966Y0039466D01*
X0056966Y0039480D02*
X0055478Y0039480D01*
X0055478Y0039494D02*
X0056966Y0039494D01*
X0056966Y0039508D02*
X0055478Y0039508D01*
X0055478Y0039522D02*
X0056966Y0039522D01*
X0056966Y0039536D02*
X0055478Y0039536D01*
X0055478Y0039550D02*
X0056966Y0039550D01*
X0056966Y0039564D02*
X0055478Y0039564D01*
X0055478Y0039578D02*
X0056966Y0039578D01*
X0056966Y0039592D02*
X0055478Y0039592D01*
X0055478Y0039606D02*
X0056966Y0039606D01*
X0056966Y0039620D02*
X0055478Y0039620D01*
X0055478Y0039634D02*
X0056966Y0039634D01*
X0056966Y0039648D02*
X0055478Y0039648D01*
X0055478Y0039662D02*
X0056966Y0039662D01*
X0056966Y0039676D02*
X0055478Y0039676D01*
X0055478Y0039690D02*
X0056966Y0039690D01*
X0056966Y0039704D02*
X0055478Y0039704D01*
X0055478Y0039718D02*
X0056966Y0039718D01*
X0056966Y0039732D02*
X0055478Y0039732D01*
X0055478Y0039746D02*
X0056966Y0039746D01*
X0056966Y0039760D02*
X0055478Y0039760D01*
X0055478Y0039774D02*
X0056966Y0039774D01*
X0056966Y0039788D02*
X0055478Y0039788D01*
X0055478Y0039802D02*
X0056966Y0039802D01*
X0056966Y0039816D02*
X0055478Y0039816D01*
X0055478Y0039830D02*
X0056966Y0039830D01*
X0056966Y0039844D02*
X0055478Y0039844D01*
X0055478Y0039858D02*
X0056966Y0039858D01*
X0056966Y0039872D02*
X0055478Y0039872D01*
X0055478Y0039886D02*
X0056966Y0039886D01*
X0056966Y0039900D02*
X0055478Y0039900D01*
X0055478Y0039914D02*
X0056966Y0039914D01*
X0056966Y0039928D02*
X0055478Y0039928D01*
X0055478Y0039942D02*
X0056966Y0039942D01*
X0056966Y0039956D02*
X0055478Y0039956D01*
X0055478Y0039970D02*
X0056966Y0039970D01*
X0056966Y0039984D02*
X0055478Y0039984D01*
X0055478Y0039998D02*
X0056966Y0039998D01*
X0056966Y0040012D02*
X0055478Y0040012D01*
X0055478Y0040026D02*
X0056966Y0040026D01*
X0056966Y0040040D02*
X0055478Y0040040D01*
X0055478Y0040054D02*
X0056966Y0040054D01*
X0056966Y0040068D02*
X0055478Y0040068D01*
X0055478Y0040082D02*
X0056966Y0040082D01*
X0056966Y0040096D02*
X0055478Y0040096D01*
X0055478Y0040110D02*
X0056966Y0040110D01*
X0056966Y0040124D02*
X0055478Y0040124D01*
X0055478Y0040138D02*
X0056966Y0040138D01*
X0056966Y0040152D02*
X0055478Y0040152D01*
X0055478Y0040166D02*
X0056966Y0040166D01*
X0056966Y0040180D02*
X0055478Y0040180D01*
X0055478Y0040194D02*
X0056966Y0040194D01*
X0056966Y0040208D02*
X0055478Y0040208D01*
X0055478Y0040222D02*
X0056966Y0040222D01*
X0056966Y0040236D02*
X0055478Y0040236D01*
X0055478Y0040250D02*
X0056966Y0040250D01*
X0056966Y0040264D02*
X0055478Y0040264D01*
X0055478Y0040278D02*
X0056966Y0040278D01*
X0056966Y0040292D02*
X0055478Y0040292D01*
X0055478Y0040306D02*
X0056966Y0040306D01*
X0056966Y0040320D02*
X0055478Y0040320D01*
X0055478Y0040334D02*
X0056966Y0040334D01*
X0056966Y0040348D02*
X0055478Y0040348D01*
X0055478Y0040362D02*
X0056966Y0040362D01*
X0056966Y0040376D02*
X0055478Y0040376D01*
X0055478Y0040390D02*
X0056966Y0040390D01*
X0056966Y0040404D02*
X0055478Y0040404D01*
X0055478Y0040418D02*
X0056966Y0040418D01*
X0056966Y0040432D02*
X0055478Y0040432D01*
X0055478Y0040446D02*
X0056966Y0040446D01*
X0056966Y0040460D02*
X0055478Y0040460D01*
X0055478Y0040474D02*
X0056966Y0040474D01*
X0056966Y0040488D02*
X0055478Y0040488D01*
X0055478Y0040502D02*
X0056966Y0040502D01*
X0056966Y0040516D02*
X0055478Y0040516D01*
X0055478Y0040530D02*
X0056966Y0040530D01*
X0056966Y0040544D02*
X0055478Y0040544D01*
X0055478Y0040558D02*
X0056966Y0040558D01*
X0056966Y0040572D02*
X0055478Y0040572D01*
X0055478Y0040586D02*
X0056966Y0040586D01*
X0056966Y0040600D02*
X0055478Y0040600D01*
X0055478Y0040614D02*
X0056966Y0040614D01*
X0056966Y0040628D02*
X0055478Y0040628D01*
X0055478Y0040642D02*
X0056966Y0040642D01*
X0056966Y0040656D02*
X0055478Y0040656D01*
X0055478Y0040670D02*
X0056966Y0040670D01*
X0056966Y0040684D02*
X0055478Y0040684D01*
X0055478Y0040698D02*
X0056966Y0040698D01*
X0056966Y0040712D02*
X0055478Y0040712D01*
X0055478Y0040726D02*
X0056966Y0040726D01*
X0056966Y0040740D02*
X0055478Y0040740D01*
X0055478Y0040754D02*
X0056966Y0040754D01*
X0056966Y0040768D02*
X0055478Y0040768D01*
X0055478Y0040782D02*
X0056966Y0040782D01*
X0056966Y0040796D02*
X0055478Y0040796D01*
X0055478Y0040810D02*
X0056966Y0040810D01*
X0056966Y0040824D02*
X0055478Y0040824D01*
X0055478Y0040838D02*
X0056966Y0040838D01*
X0056966Y0040852D02*
X0055478Y0040852D01*
X0055478Y0040866D02*
X0056966Y0040866D01*
X0056966Y0040880D02*
X0055478Y0040880D01*
X0055478Y0040894D02*
X0056966Y0040894D01*
X0056966Y0040908D02*
X0055478Y0040908D01*
X0055478Y0040922D02*
X0056966Y0040922D01*
X0056966Y0040936D02*
X0055478Y0040936D01*
X0055478Y0040950D02*
X0056966Y0040950D01*
X0056966Y0040964D02*
X0055478Y0040964D01*
X0055478Y0040978D02*
X0056966Y0040978D01*
X0056966Y0040992D02*
X0055478Y0040992D01*
X0055478Y0041006D02*
X0056966Y0041006D01*
X0056966Y0041020D02*
X0055478Y0041020D01*
X0055478Y0041034D02*
X0056966Y0041034D01*
X0056966Y0041048D02*
X0055478Y0041048D01*
X0055478Y0041062D02*
X0056966Y0041062D01*
X0056966Y0041076D02*
X0055478Y0041076D01*
X0055478Y0041090D02*
X0056966Y0041090D01*
X0056966Y0041104D02*
X0055478Y0041104D01*
X0055478Y0041118D02*
X0056966Y0041118D01*
X0056966Y0041132D02*
X0055478Y0041132D01*
X0055478Y0041146D02*
X0056966Y0041146D01*
X0056966Y0041160D02*
X0055478Y0041160D01*
X0055478Y0041174D02*
X0056966Y0041174D01*
X0056966Y0041188D02*
X0055478Y0041188D01*
X0055478Y0041202D02*
X0056966Y0041202D01*
X0056966Y0041216D02*
X0055478Y0041216D01*
X0055478Y0041230D02*
X0056966Y0041230D01*
X0056966Y0041244D02*
X0055478Y0041244D01*
X0055478Y0041258D02*
X0056966Y0041258D01*
X0056966Y0041272D02*
X0055478Y0041272D01*
X0055478Y0041286D02*
X0056966Y0041286D01*
X0056966Y0041300D02*
X0055478Y0041300D01*
X0055478Y0041314D02*
X0056966Y0041314D01*
X0056966Y0041328D02*
X0055478Y0041328D01*
X0055478Y0041342D02*
X0056966Y0041342D01*
X0056966Y0041356D02*
X0055478Y0041356D01*
X0055478Y0041370D02*
X0056966Y0041370D01*
X0056966Y0041384D02*
X0055478Y0041384D01*
X0055478Y0041398D02*
X0056966Y0041398D01*
X0056966Y0041412D02*
X0055478Y0041412D01*
X0055478Y0041426D02*
X0056966Y0041426D01*
X0056966Y0041440D02*
X0055478Y0041440D01*
X0055478Y0041454D02*
X0056966Y0041454D01*
X0056966Y0041468D02*
X0055478Y0041468D01*
X0055478Y0041482D02*
X0056966Y0041482D01*
X0056966Y0041496D02*
X0055478Y0041496D01*
X0055478Y0041510D02*
X0056966Y0041510D01*
X0056966Y0041524D02*
X0055478Y0041524D01*
X0055478Y0041538D02*
X0056966Y0041538D01*
X0056966Y0041552D02*
X0055478Y0041552D01*
X0055478Y0041566D02*
X0056966Y0041566D01*
X0056966Y0041580D02*
X0055478Y0041580D01*
X0055478Y0041594D02*
X0056966Y0041594D01*
X0056966Y0041608D02*
X0055478Y0041608D01*
X0055478Y0041622D02*
X0056966Y0041622D01*
X0056966Y0041636D02*
X0055478Y0041636D01*
X0055478Y0041650D02*
X0056966Y0041650D01*
X0056966Y0041664D02*
X0055478Y0041664D01*
X0055478Y0041678D02*
X0056966Y0041678D01*
X0056966Y0041692D02*
X0055478Y0041692D01*
X0054997Y0041700D02*
X0054997Y0038066D01*
X0053509Y0038066D01*
X0053509Y0041700D01*
X0054997Y0041700D01*
X0054997Y0038080D02*
X0053509Y0038080D01*
X0053509Y0038094D02*
X0054997Y0038094D01*
X0054997Y0038108D02*
X0053509Y0038108D01*
X0053509Y0038122D02*
X0054997Y0038122D01*
X0054997Y0038136D02*
X0053509Y0038136D01*
X0053509Y0038150D02*
X0054997Y0038150D01*
X0054997Y0038164D02*
X0053509Y0038164D01*
X0053509Y0038178D02*
X0054997Y0038178D01*
X0054997Y0038192D02*
X0053509Y0038192D01*
X0053509Y0038206D02*
X0054997Y0038206D01*
X0054997Y0038220D02*
X0053509Y0038220D01*
X0053509Y0038234D02*
X0054997Y0038234D01*
X0054997Y0038248D02*
X0053509Y0038248D01*
X0053509Y0038262D02*
X0054997Y0038262D01*
X0054997Y0038276D02*
X0053509Y0038276D01*
X0053509Y0038290D02*
X0054997Y0038290D01*
X0054997Y0038304D02*
X0053509Y0038304D01*
X0053509Y0038318D02*
X0054997Y0038318D01*
X0054997Y0038332D02*
X0053509Y0038332D01*
X0053509Y0038346D02*
X0054997Y0038346D01*
X0054997Y0038360D02*
X0053509Y0038360D01*
X0053509Y0038374D02*
X0054997Y0038374D01*
X0054997Y0038388D02*
X0053509Y0038388D01*
X0053509Y0038402D02*
X0054997Y0038402D01*
X0054997Y0038416D02*
X0053509Y0038416D01*
X0053509Y0038430D02*
X0054997Y0038430D01*
X0054997Y0038444D02*
X0053509Y0038444D01*
X0053509Y0038458D02*
X0054997Y0038458D01*
X0054997Y0038472D02*
X0053509Y0038472D01*
X0053509Y0038486D02*
X0054997Y0038486D01*
X0054997Y0038500D02*
X0053509Y0038500D01*
X0053509Y0038514D02*
X0054997Y0038514D01*
X0054997Y0038528D02*
X0053509Y0038528D01*
X0053509Y0038542D02*
X0054997Y0038542D01*
X0054997Y0038556D02*
X0053509Y0038556D01*
X0053509Y0038570D02*
X0054997Y0038570D01*
X0054997Y0038584D02*
X0053509Y0038584D01*
X0053509Y0038598D02*
X0054997Y0038598D01*
X0054997Y0038612D02*
X0053509Y0038612D01*
X0053509Y0038626D02*
X0054997Y0038626D01*
X0054997Y0038640D02*
X0053509Y0038640D01*
X0053509Y0038654D02*
X0054997Y0038654D01*
X0054997Y0038668D02*
X0053509Y0038668D01*
X0053509Y0038682D02*
X0054997Y0038682D01*
X0054997Y0038696D02*
X0053509Y0038696D01*
X0053509Y0038710D02*
X0054997Y0038710D01*
X0054997Y0038724D02*
X0053509Y0038724D01*
X0053509Y0038738D02*
X0054997Y0038738D01*
X0054997Y0038752D02*
X0053509Y0038752D01*
X0053509Y0038766D02*
X0054997Y0038766D01*
X0054997Y0038780D02*
X0053509Y0038780D01*
X0053509Y0038794D02*
X0054997Y0038794D01*
X0054997Y0038808D02*
X0053509Y0038808D01*
X0053509Y0038822D02*
X0054997Y0038822D01*
X0054997Y0038836D02*
X0053509Y0038836D01*
X0053509Y0038850D02*
X0054997Y0038850D01*
X0054997Y0038864D02*
X0053509Y0038864D01*
X0053509Y0038878D02*
X0054997Y0038878D01*
X0054997Y0038892D02*
X0053509Y0038892D01*
X0053509Y0038906D02*
X0054997Y0038906D01*
X0054997Y0038920D02*
X0053509Y0038920D01*
X0053509Y0038934D02*
X0054997Y0038934D01*
X0054997Y0038948D02*
X0053509Y0038948D01*
X0053509Y0038962D02*
X0054997Y0038962D01*
X0054997Y0038976D02*
X0053509Y0038976D01*
X0053509Y0038990D02*
X0054997Y0038990D01*
X0054997Y0039004D02*
X0053509Y0039004D01*
X0053509Y0039018D02*
X0054997Y0039018D01*
X0054997Y0039032D02*
X0053509Y0039032D01*
X0053509Y0039046D02*
X0054997Y0039046D01*
X0054997Y0039060D02*
X0053509Y0039060D01*
X0053509Y0039074D02*
X0054997Y0039074D01*
X0054997Y0039088D02*
X0053509Y0039088D01*
X0053509Y0039102D02*
X0054997Y0039102D01*
X0054997Y0039116D02*
X0053509Y0039116D01*
X0053509Y0039130D02*
X0054997Y0039130D01*
X0054997Y0039144D02*
X0053509Y0039144D01*
X0053509Y0039158D02*
X0054997Y0039158D01*
X0054997Y0039172D02*
X0053509Y0039172D01*
X0053509Y0039186D02*
X0054997Y0039186D01*
X0054997Y0039200D02*
X0053509Y0039200D01*
X0053509Y0039214D02*
X0054997Y0039214D01*
X0054997Y0039228D02*
X0053509Y0039228D01*
X0053509Y0039242D02*
X0054997Y0039242D01*
X0054997Y0039256D02*
X0053509Y0039256D01*
X0053509Y0039270D02*
X0054997Y0039270D01*
X0054997Y0039284D02*
X0053509Y0039284D01*
X0053509Y0039298D02*
X0054997Y0039298D01*
X0054997Y0039312D02*
X0053509Y0039312D01*
X0053509Y0039326D02*
X0054997Y0039326D01*
X0054997Y0039340D02*
X0053509Y0039340D01*
X0053509Y0039354D02*
X0054997Y0039354D01*
X0054997Y0039368D02*
X0053509Y0039368D01*
X0053509Y0039382D02*
X0054997Y0039382D01*
X0054997Y0039396D02*
X0053509Y0039396D01*
X0053509Y0039410D02*
X0054997Y0039410D01*
X0054997Y0039424D02*
X0053509Y0039424D01*
X0053509Y0039438D02*
X0054997Y0039438D01*
X0054997Y0039452D02*
X0053509Y0039452D01*
X0053509Y0039466D02*
X0054997Y0039466D01*
X0054997Y0039480D02*
X0053509Y0039480D01*
X0053509Y0039494D02*
X0054997Y0039494D01*
X0054997Y0039508D02*
X0053509Y0039508D01*
X0053509Y0039522D02*
X0054997Y0039522D01*
X0054997Y0039536D02*
X0053509Y0039536D01*
X0053509Y0039550D02*
X0054997Y0039550D01*
X0054997Y0039564D02*
X0053509Y0039564D01*
X0053509Y0039578D02*
X0054997Y0039578D01*
X0054997Y0039592D02*
X0053509Y0039592D01*
X0053509Y0039606D02*
X0054997Y0039606D01*
X0054997Y0039620D02*
X0053509Y0039620D01*
X0053509Y0039634D02*
X0054997Y0039634D01*
X0054997Y0039648D02*
X0053509Y0039648D01*
X0053509Y0039662D02*
X0054997Y0039662D01*
X0054997Y0039676D02*
X0053509Y0039676D01*
X0053509Y0039690D02*
X0054997Y0039690D01*
X0054997Y0039704D02*
X0053509Y0039704D01*
X0053509Y0039718D02*
X0054997Y0039718D01*
X0054997Y0039732D02*
X0053509Y0039732D01*
X0053509Y0039746D02*
X0054997Y0039746D01*
X0054997Y0039760D02*
X0053509Y0039760D01*
X0053509Y0039774D02*
X0054997Y0039774D01*
X0054997Y0039788D02*
X0053509Y0039788D01*
X0053509Y0039802D02*
X0054997Y0039802D01*
X0054997Y0039816D02*
X0053509Y0039816D01*
X0053509Y0039830D02*
X0054997Y0039830D01*
X0054997Y0039844D02*
X0053509Y0039844D01*
X0053509Y0039858D02*
X0054997Y0039858D01*
X0054997Y0039872D02*
X0053509Y0039872D01*
X0053509Y0039886D02*
X0054997Y0039886D01*
X0054997Y0039900D02*
X0053509Y0039900D01*
X0053509Y0039914D02*
X0054997Y0039914D01*
X0054997Y0039928D02*
X0053509Y0039928D01*
X0053509Y0039942D02*
X0054997Y0039942D01*
X0054997Y0039956D02*
X0053509Y0039956D01*
X0053509Y0039970D02*
X0054997Y0039970D01*
X0054997Y0039984D02*
X0053509Y0039984D01*
X0053509Y0039998D02*
X0054997Y0039998D01*
X0054997Y0040012D02*
X0053509Y0040012D01*
X0053509Y0040026D02*
X0054997Y0040026D01*
X0054997Y0040040D02*
X0053509Y0040040D01*
X0053509Y0040054D02*
X0054997Y0040054D01*
X0054997Y0040068D02*
X0053509Y0040068D01*
X0053509Y0040082D02*
X0054997Y0040082D01*
X0054997Y0040096D02*
X0053509Y0040096D01*
X0053509Y0040110D02*
X0054997Y0040110D01*
X0054997Y0040124D02*
X0053509Y0040124D01*
X0053509Y0040138D02*
X0054997Y0040138D01*
X0054997Y0040152D02*
X0053509Y0040152D01*
X0053509Y0040166D02*
X0054997Y0040166D01*
X0054997Y0040180D02*
X0053509Y0040180D01*
X0053509Y0040194D02*
X0054997Y0040194D01*
X0054997Y0040208D02*
X0053509Y0040208D01*
X0053509Y0040222D02*
X0054997Y0040222D01*
X0054997Y0040236D02*
X0053509Y0040236D01*
X0053509Y0040250D02*
X0054997Y0040250D01*
X0054997Y0040264D02*
X0053509Y0040264D01*
X0053509Y0040278D02*
X0054997Y0040278D01*
X0054997Y0040292D02*
X0053509Y0040292D01*
X0053509Y0040306D02*
X0054997Y0040306D01*
X0054997Y0040320D02*
X0053509Y0040320D01*
X0053509Y0040334D02*
X0054997Y0040334D01*
X0054997Y0040348D02*
X0053509Y0040348D01*
X0053509Y0040362D02*
X0054997Y0040362D01*
X0054997Y0040376D02*
X0053509Y0040376D01*
X0053509Y0040390D02*
X0054997Y0040390D01*
X0054997Y0040404D02*
X0053509Y0040404D01*
X0053509Y0040418D02*
X0054997Y0040418D01*
X0054997Y0040432D02*
X0053509Y0040432D01*
X0053509Y0040446D02*
X0054997Y0040446D01*
X0054997Y0040460D02*
X0053509Y0040460D01*
X0053509Y0040474D02*
X0054997Y0040474D01*
X0054997Y0040488D02*
X0053509Y0040488D01*
X0053509Y0040502D02*
X0054997Y0040502D01*
X0054997Y0040516D02*
X0053509Y0040516D01*
X0053509Y0040530D02*
X0054997Y0040530D01*
X0054997Y0040544D02*
X0053509Y0040544D01*
X0053509Y0040558D02*
X0054997Y0040558D01*
X0054997Y0040572D02*
X0053509Y0040572D01*
X0053509Y0040586D02*
X0054997Y0040586D01*
X0054997Y0040600D02*
X0053509Y0040600D01*
X0053509Y0040614D02*
X0054997Y0040614D01*
X0054997Y0040628D02*
X0053509Y0040628D01*
X0053509Y0040642D02*
X0054997Y0040642D01*
X0054997Y0040656D02*
X0053509Y0040656D01*
X0053509Y0040670D02*
X0054997Y0040670D01*
X0054997Y0040684D02*
X0053509Y0040684D01*
X0053509Y0040698D02*
X0054997Y0040698D01*
X0054997Y0040712D02*
X0053509Y0040712D01*
X0053509Y0040726D02*
X0054997Y0040726D01*
X0054997Y0040740D02*
X0053509Y0040740D01*
X0053509Y0040754D02*
X0054997Y0040754D01*
X0054997Y0040768D02*
X0053509Y0040768D01*
X0053509Y0040782D02*
X0054997Y0040782D01*
X0054997Y0040796D02*
X0053509Y0040796D01*
X0053509Y0040810D02*
X0054997Y0040810D01*
X0054997Y0040824D02*
X0053509Y0040824D01*
X0053509Y0040838D02*
X0054997Y0040838D01*
X0054997Y0040852D02*
X0053509Y0040852D01*
X0053509Y0040866D02*
X0054997Y0040866D01*
X0054997Y0040880D02*
X0053509Y0040880D01*
X0053509Y0040894D02*
X0054997Y0040894D01*
X0054997Y0040908D02*
X0053509Y0040908D01*
X0053509Y0040922D02*
X0054997Y0040922D01*
X0054997Y0040936D02*
X0053509Y0040936D01*
X0053509Y0040950D02*
X0054997Y0040950D01*
X0054997Y0040964D02*
X0053509Y0040964D01*
X0053509Y0040978D02*
X0054997Y0040978D01*
X0054997Y0040992D02*
X0053509Y0040992D01*
X0053509Y0041006D02*
X0054997Y0041006D01*
X0054997Y0041020D02*
X0053509Y0041020D01*
X0053509Y0041034D02*
X0054997Y0041034D01*
X0054997Y0041048D02*
X0053509Y0041048D01*
X0053509Y0041062D02*
X0054997Y0041062D01*
X0054997Y0041076D02*
X0053509Y0041076D01*
X0053509Y0041090D02*
X0054997Y0041090D01*
X0054997Y0041104D02*
X0053509Y0041104D01*
X0053509Y0041118D02*
X0054997Y0041118D01*
X0054997Y0041132D02*
X0053509Y0041132D01*
X0053509Y0041146D02*
X0054997Y0041146D01*
X0054997Y0041160D02*
X0053509Y0041160D01*
X0053509Y0041174D02*
X0054997Y0041174D01*
X0054997Y0041188D02*
X0053509Y0041188D01*
X0053509Y0041202D02*
X0054997Y0041202D01*
X0054997Y0041216D02*
X0053509Y0041216D01*
X0053509Y0041230D02*
X0054997Y0041230D01*
X0054997Y0041244D02*
X0053509Y0041244D01*
X0053509Y0041258D02*
X0054997Y0041258D01*
X0054997Y0041272D02*
X0053509Y0041272D01*
X0053509Y0041286D02*
X0054997Y0041286D01*
X0054997Y0041300D02*
X0053509Y0041300D01*
X0053509Y0041314D02*
X0054997Y0041314D01*
X0054997Y0041328D02*
X0053509Y0041328D01*
X0053509Y0041342D02*
X0054997Y0041342D01*
X0054997Y0041356D02*
X0053509Y0041356D01*
X0053509Y0041370D02*
X0054997Y0041370D01*
X0054997Y0041384D02*
X0053509Y0041384D01*
X0053509Y0041398D02*
X0054997Y0041398D01*
X0054997Y0041412D02*
X0053509Y0041412D01*
X0053509Y0041426D02*
X0054997Y0041426D01*
X0054997Y0041440D02*
X0053509Y0041440D01*
X0053509Y0041454D02*
X0054997Y0041454D01*
X0054997Y0041468D02*
X0053509Y0041468D01*
X0053509Y0041482D02*
X0054997Y0041482D01*
X0054997Y0041496D02*
X0053509Y0041496D01*
X0053509Y0041510D02*
X0054997Y0041510D01*
X0054997Y0041524D02*
X0053509Y0041524D01*
X0053509Y0041538D02*
X0054997Y0041538D01*
X0054997Y0041552D02*
X0053509Y0041552D01*
X0053509Y0041566D02*
X0054997Y0041566D01*
X0054997Y0041580D02*
X0053509Y0041580D01*
X0053509Y0041594D02*
X0054997Y0041594D01*
X0054997Y0041608D02*
X0053509Y0041608D01*
X0053509Y0041622D02*
X0054997Y0041622D01*
X0054997Y0041636D02*
X0053509Y0041636D01*
X0053509Y0041650D02*
X0054997Y0041650D01*
X0054997Y0041664D02*
X0053509Y0041664D01*
X0053509Y0041678D02*
X0054997Y0041678D01*
X0054997Y0041692D02*
X0053509Y0041692D01*
X0053029Y0041700D02*
X0053029Y0038066D01*
X0051541Y0038066D01*
X0051541Y0041700D01*
X0053029Y0041700D01*
X0053029Y0038080D02*
X0051541Y0038080D01*
X0051541Y0038094D02*
X0053029Y0038094D01*
X0053029Y0038108D02*
X0051541Y0038108D01*
X0051541Y0038122D02*
X0053029Y0038122D01*
X0053029Y0038136D02*
X0051541Y0038136D01*
X0051541Y0038150D02*
X0053029Y0038150D01*
X0053029Y0038164D02*
X0051541Y0038164D01*
X0051541Y0038178D02*
X0053029Y0038178D01*
X0053029Y0038192D02*
X0051541Y0038192D01*
X0051541Y0038206D02*
X0053029Y0038206D01*
X0053029Y0038220D02*
X0051541Y0038220D01*
X0051541Y0038234D02*
X0053029Y0038234D01*
X0053029Y0038248D02*
X0051541Y0038248D01*
X0051541Y0038262D02*
X0053029Y0038262D01*
X0053029Y0038276D02*
X0051541Y0038276D01*
X0051541Y0038290D02*
X0053029Y0038290D01*
X0053029Y0038304D02*
X0051541Y0038304D01*
X0051541Y0038318D02*
X0053029Y0038318D01*
X0053029Y0038332D02*
X0051541Y0038332D01*
X0051541Y0038346D02*
X0053029Y0038346D01*
X0053029Y0038360D02*
X0051541Y0038360D01*
X0051541Y0038374D02*
X0053029Y0038374D01*
X0053029Y0038388D02*
X0051541Y0038388D01*
X0051541Y0038402D02*
X0053029Y0038402D01*
X0053029Y0038416D02*
X0051541Y0038416D01*
X0051541Y0038430D02*
X0053029Y0038430D01*
X0053029Y0038444D02*
X0051541Y0038444D01*
X0051541Y0038458D02*
X0053029Y0038458D01*
X0053029Y0038472D02*
X0051541Y0038472D01*
X0051541Y0038486D02*
X0053029Y0038486D01*
X0053029Y0038500D02*
X0051541Y0038500D01*
X0051541Y0038514D02*
X0053029Y0038514D01*
X0053029Y0038528D02*
X0051541Y0038528D01*
X0051541Y0038542D02*
X0053029Y0038542D01*
X0053029Y0038556D02*
X0051541Y0038556D01*
X0051541Y0038570D02*
X0053029Y0038570D01*
X0053029Y0038584D02*
X0051541Y0038584D01*
X0051541Y0038598D02*
X0053029Y0038598D01*
X0053029Y0038612D02*
X0051541Y0038612D01*
X0051541Y0038626D02*
X0053029Y0038626D01*
X0053029Y0038640D02*
X0051541Y0038640D01*
X0051541Y0038654D02*
X0053029Y0038654D01*
X0053029Y0038668D02*
X0051541Y0038668D01*
X0051541Y0038682D02*
X0053029Y0038682D01*
X0053029Y0038696D02*
X0051541Y0038696D01*
X0051541Y0038710D02*
X0053029Y0038710D01*
X0053029Y0038724D02*
X0051541Y0038724D01*
X0051541Y0038738D02*
X0053029Y0038738D01*
X0053029Y0038752D02*
X0051541Y0038752D01*
X0051541Y0038766D02*
X0053029Y0038766D01*
X0053029Y0038780D02*
X0051541Y0038780D01*
X0051541Y0038794D02*
X0053029Y0038794D01*
X0053029Y0038808D02*
X0051541Y0038808D01*
X0051541Y0038822D02*
X0053029Y0038822D01*
X0053029Y0038836D02*
X0051541Y0038836D01*
X0051541Y0038850D02*
X0053029Y0038850D01*
X0053029Y0038864D02*
X0051541Y0038864D01*
X0051541Y0038878D02*
X0053029Y0038878D01*
X0053029Y0038892D02*
X0051541Y0038892D01*
X0051541Y0038906D02*
X0053029Y0038906D01*
X0053029Y0038920D02*
X0051541Y0038920D01*
X0051541Y0038934D02*
X0053029Y0038934D01*
X0053029Y0038948D02*
X0051541Y0038948D01*
X0051541Y0038962D02*
X0053029Y0038962D01*
X0053029Y0038976D02*
X0051541Y0038976D01*
X0051541Y0038990D02*
X0053029Y0038990D01*
X0053029Y0039004D02*
X0051541Y0039004D01*
X0051541Y0039018D02*
X0053029Y0039018D01*
X0053029Y0039032D02*
X0051541Y0039032D01*
X0051541Y0039046D02*
X0053029Y0039046D01*
X0053029Y0039060D02*
X0051541Y0039060D01*
X0051541Y0039074D02*
X0053029Y0039074D01*
X0053029Y0039088D02*
X0051541Y0039088D01*
X0051541Y0039102D02*
X0053029Y0039102D01*
X0053029Y0039116D02*
X0051541Y0039116D01*
X0051541Y0039130D02*
X0053029Y0039130D01*
X0053029Y0039144D02*
X0051541Y0039144D01*
X0051541Y0039158D02*
X0053029Y0039158D01*
X0053029Y0039172D02*
X0051541Y0039172D01*
X0051541Y0039186D02*
X0053029Y0039186D01*
X0053029Y0039200D02*
X0051541Y0039200D01*
X0051541Y0039214D02*
X0053029Y0039214D01*
X0053029Y0039228D02*
X0051541Y0039228D01*
X0051541Y0039242D02*
X0053029Y0039242D01*
X0053029Y0039256D02*
X0051541Y0039256D01*
X0051541Y0039270D02*
X0053029Y0039270D01*
X0053029Y0039284D02*
X0051541Y0039284D01*
X0051541Y0039298D02*
X0053029Y0039298D01*
X0053029Y0039312D02*
X0051541Y0039312D01*
X0051541Y0039326D02*
X0053029Y0039326D01*
X0053029Y0039340D02*
X0051541Y0039340D01*
X0051541Y0039354D02*
X0053029Y0039354D01*
X0053029Y0039368D02*
X0051541Y0039368D01*
X0051541Y0039382D02*
X0053029Y0039382D01*
X0053029Y0039396D02*
X0051541Y0039396D01*
X0051541Y0039410D02*
X0053029Y0039410D01*
X0053029Y0039424D02*
X0051541Y0039424D01*
X0051541Y0039438D02*
X0053029Y0039438D01*
X0053029Y0039452D02*
X0051541Y0039452D01*
X0051541Y0039466D02*
X0053029Y0039466D01*
X0053029Y0039480D02*
X0051541Y0039480D01*
X0051541Y0039494D02*
X0053029Y0039494D01*
X0053029Y0039508D02*
X0051541Y0039508D01*
X0051541Y0039522D02*
X0053029Y0039522D01*
X0053029Y0039536D02*
X0051541Y0039536D01*
X0051541Y0039550D02*
X0053029Y0039550D01*
X0053029Y0039564D02*
X0051541Y0039564D01*
X0051541Y0039578D02*
X0053029Y0039578D01*
X0053029Y0039592D02*
X0051541Y0039592D01*
X0051541Y0039606D02*
X0053029Y0039606D01*
X0053029Y0039620D02*
X0051541Y0039620D01*
X0051541Y0039634D02*
X0053029Y0039634D01*
X0053029Y0039648D02*
X0051541Y0039648D01*
X0051541Y0039662D02*
X0053029Y0039662D01*
X0053029Y0039676D02*
X0051541Y0039676D01*
X0051541Y0039690D02*
X0053029Y0039690D01*
X0053029Y0039704D02*
X0051541Y0039704D01*
X0051541Y0039718D02*
X0053029Y0039718D01*
X0053029Y0039732D02*
X0051541Y0039732D01*
X0051541Y0039746D02*
X0053029Y0039746D01*
X0053029Y0039760D02*
X0051541Y0039760D01*
X0051541Y0039774D02*
X0053029Y0039774D01*
X0053029Y0039788D02*
X0051541Y0039788D01*
X0051541Y0039802D02*
X0053029Y0039802D01*
X0053029Y0039816D02*
X0051541Y0039816D01*
X0051541Y0039830D02*
X0053029Y0039830D01*
X0053029Y0039844D02*
X0051541Y0039844D01*
X0051541Y0039858D02*
X0053029Y0039858D01*
X0053029Y0039872D02*
X0051541Y0039872D01*
X0051541Y0039886D02*
X0053029Y0039886D01*
X0053029Y0039900D02*
X0051541Y0039900D01*
X0051541Y0039914D02*
X0053029Y0039914D01*
X0053029Y0039928D02*
X0051541Y0039928D01*
X0051541Y0039942D02*
X0053029Y0039942D01*
X0053029Y0039956D02*
X0051541Y0039956D01*
X0051541Y0039970D02*
X0053029Y0039970D01*
X0053029Y0039984D02*
X0051541Y0039984D01*
X0051541Y0039998D02*
X0053029Y0039998D01*
X0053029Y0040012D02*
X0051541Y0040012D01*
X0051541Y0040026D02*
X0053029Y0040026D01*
X0053029Y0040040D02*
X0051541Y0040040D01*
X0051541Y0040054D02*
X0053029Y0040054D01*
X0053029Y0040068D02*
X0051541Y0040068D01*
X0051541Y0040082D02*
X0053029Y0040082D01*
X0053029Y0040096D02*
X0051541Y0040096D01*
X0051541Y0040110D02*
X0053029Y0040110D01*
X0053029Y0040124D02*
X0051541Y0040124D01*
X0051541Y0040138D02*
X0053029Y0040138D01*
X0053029Y0040152D02*
X0051541Y0040152D01*
X0051541Y0040166D02*
X0053029Y0040166D01*
X0053029Y0040180D02*
X0051541Y0040180D01*
X0051541Y0040194D02*
X0053029Y0040194D01*
X0053029Y0040208D02*
X0051541Y0040208D01*
X0051541Y0040222D02*
X0053029Y0040222D01*
X0053029Y0040236D02*
X0051541Y0040236D01*
X0051541Y0040250D02*
X0053029Y0040250D01*
X0053029Y0040264D02*
X0051541Y0040264D01*
X0051541Y0040278D02*
X0053029Y0040278D01*
X0053029Y0040292D02*
X0051541Y0040292D01*
X0051541Y0040306D02*
X0053029Y0040306D01*
X0053029Y0040320D02*
X0051541Y0040320D01*
X0051541Y0040334D02*
X0053029Y0040334D01*
X0053029Y0040348D02*
X0051541Y0040348D01*
X0051541Y0040362D02*
X0053029Y0040362D01*
X0053029Y0040376D02*
X0051541Y0040376D01*
X0051541Y0040390D02*
X0053029Y0040390D01*
X0053029Y0040404D02*
X0051541Y0040404D01*
X0051541Y0040418D02*
X0053029Y0040418D01*
X0053029Y0040432D02*
X0051541Y0040432D01*
X0051541Y0040446D02*
X0053029Y0040446D01*
X0053029Y0040460D02*
X0051541Y0040460D01*
X0051541Y0040474D02*
X0053029Y0040474D01*
X0053029Y0040488D02*
X0051541Y0040488D01*
X0051541Y0040502D02*
X0053029Y0040502D01*
X0053029Y0040516D02*
X0051541Y0040516D01*
X0051541Y0040530D02*
X0053029Y0040530D01*
X0053029Y0040544D02*
X0051541Y0040544D01*
X0051541Y0040558D02*
X0053029Y0040558D01*
X0053029Y0040572D02*
X0051541Y0040572D01*
X0051541Y0040586D02*
X0053029Y0040586D01*
X0053029Y0040600D02*
X0051541Y0040600D01*
X0051541Y0040614D02*
X0053029Y0040614D01*
X0053029Y0040628D02*
X0051541Y0040628D01*
X0051541Y0040642D02*
X0053029Y0040642D01*
X0053029Y0040656D02*
X0051541Y0040656D01*
X0051541Y0040670D02*
X0053029Y0040670D01*
X0053029Y0040684D02*
X0051541Y0040684D01*
X0051541Y0040698D02*
X0053029Y0040698D01*
X0053029Y0040712D02*
X0051541Y0040712D01*
X0051541Y0040726D02*
X0053029Y0040726D01*
X0053029Y0040740D02*
X0051541Y0040740D01*
X0051541Y0040754D02*
X0053029Y0040754D01*
X0053029Y0040768D02*
X0051541Y0040768D01*
X0051541Y0040782D02*
X0053029Y0040782D01*
X0053029Y0040796D02*
X0051541Y0040796D01*
X0051541Y0040810D02*
X0053029Y0040810D01*
X0053029Y0040824D02*
X0051541Y0040824D01*
X0051541Y0040838D02*
X0053029Y0040838D01*
X0053029Y0040852D02*
X0051541Y0040852D01*
X0051541Y0040866D02*
X0053029Y0040866D01*
X0053029Y0040880D02*
X0051541Y0040880D01*
X0051541Y0040894D02*
X0053029Y0040894D01*
X0053029Y0040908D02*
X0051541Y0040908D01*
X0051541Y0040922D02*
X0053029Y0040922D01*
X0053029Y0040936D02*
X0051541Y0040936D01*
X0051541Y0040950D02*
X0053029Y0040950D01*
X0053029Y0040964D02*
X0051541Y0040964D01*
X0051541Y0040978D02*
X0053029Y0040978D01*
X0053029Y0040992D02*
X0051541Y0040992D01*
X0051541Y0041006D02*
X0053029Y0041006D01*
X0053029Y0041020D02*
X0051541Y0041020D01*
X0051541Y0041034D02*
X0053029Y0041034D01*
X0053029Y0041048D02*
X0051541Y0041048D01*
X0051541Y0041062D02*
X0053029Y0041062D01*
X0053029Y0041076D02*
X0051541Y0041076D01*
X0051541Y0041090D02*
X0053029Y0041090D01*
X0053029Y0041104D02*
X0051541Y0041104D01*
X0051541Y0041118D02*
X0053029Y0041118D01*
X0053029Y0041132D02*
X0051541Y0041132D01*
X0051541Y0041146D02*
X0053029Y0041146D01*
X0053029Y0041160D02*
X0051541Y0041160D01*
X0051541Y0041174D02*
X0053029Y0041174D01*
X0053029Y0041188D02*
X0051541Y0041188D01*
X0051541Y0041202D02*
X0053029Y0041202D01*
X0053029Y0041216D02*
X0051541Y0041216D01*
X0051541Y0041230D02*
X0053029Y0041230D01*
X0053029Y0041244D02*
X0051541Y0041244D01*
X0051541Y0041258D02*
X0053029Y0041258D01*
X0053029Y0041272D02*
X0051541Y0041272D01*
X0051541Y0041286D02*
X0053029Y0041286D01*
X0053029Y0041300D02*
X0051541Y0041300D01*
X0051541Y0041314D02*
X0053029Y0041314D01*
X0053029Y0041328D02*
X0051541Y0041328D01*
X0051541Y0041342D02*
X0053029Y0041342D01*
X0053029Y0041356D02*
X0051541Y0041356D01*
X0051541Y0041370D02*
X0053029Y0041370D01*
X0053029Y0041384D02*
X0051541Y0041384D01*
X0051541Y0041398D02*
X0053029Y0041398D01*
X0053029Y0041412D02*
X0051541Y0041412D01*
X0051541Y0041426D02*
X0053029Y0041426D01*
X0053029Y0041440D02*
X0051541Y0041440D01*
X0051541Y0041454D02*
X0053029Y0041454D01*
X0053029Y0041468D02*
X0051541Y0041468D01*
X0051541Y0041482D02*
X0053029Y0041482D01*
X0053029Y0041496D02*
X0051541Y0041496D01*
X0051541Y0041510D02*
X0053029Y0041510D01*
X0053029Y0041524D02*
X0051541Y0041524D01*
X0051541Y0041538D02*
X0053029Y0041538D01*
X0053029Y0041552D02*
X0051541Y0041552D01*
X0051541Y0041566D02*
X0053029Y0041566D01*
X0053029Y0041580D02*
X0051541Y0041580D01*
X0051541Y0041594D02*
X0053029Y0041594D01*
X0053029Y0041608D02*
X0051541Y0041608D01*
X0051541Y0041622D02*
X0053029Y0041622D01*
X0053029Y0041636D02*
X0051541Y0041636D01*
X0051541Y0041650D02*
X0053029Y0041650D01*
X0053029Y0041664D02*
X0051541Y0041664D01*
X0051541Y0041678D02*
X0053029Y0041678D01*
X0053029Y0041692D02*
X0051541Y0041692D01*
X0051060Y0041700D02*
X0051060Y0038066D01*
X0049572Y0038066D01*
X0049572Y0041700D01*
X0051060Y0041700D01*
X0051060Y0038080D02*
X0049572Y0038080D01*
X0049572Y0038094D02*
X0051060Y0038094D01*
X0051060Y0038108D02*
X0049572Y0038108D01*
X0049572Y0038122D02*
X0051060Y0038122D01*
X0051060Y0038136D02*
X0049572Y0038136D01*
X0049572Y0038150D02*
X0051060Y0038150D01*
X0051060Y0038164D02*
X0049572Y0038164D01*
X0049572Y0038178D02*
X0051060Y0038178D01*
X0051060Y0038192D02*
X0049572Y0038192D01*
X0049572Y0038206D02*
X0051060Y0038206D01*
X0051060Y0038220D02*
X0049572Y0038220D01*
X0049572Y0038234D02*
X0051060Y0038234D01*
X0051060Y0038248D02*
X0049572Y0038248D01*
X0049572Y0038262D02*
X0051060Y0038262D01*
X0051060Y0038276D02*
X0049572Y0038276D01*
X0049572Y0038290D02*
X0051060Y0038290D01*
X0051060Y0038304D02*
X0049572Y0038304D01*
X0049572Y0038318D02*
X0051060Y0038318D01*
X0051060Y0038332D02*
X0049572Y0038332D01*
X0049572Y0038346D02*
X0051060Y0038346D01*
X0051060Y0038360D02*
X0049572Y0038360D01*
X0049572Y0038374D02*
X0051060Y0038374D01*
X0051060Y0038388D02*
X0049572Y0038388D01*
X0049572Y0038402D02*
X0051060Y0038402D01*
X0051060Y0038416D02*
X0049572Y0038416D01*
X0049572Y0038430D02*
X0051060Y0038430D01*
X0051060Y0038444D02*
X0049572Y0038444D01*
X0049572Y0038458D02*
X0051060Y0038458D01*
X0051060Y0038472D02*
X0049572Y0038472D01*
X0049572Y0038486D02*
X0051060Y0038486D01*
X0051060Y0038500D02*
X0049572Y0038500D01*
X0049572Y0038514D02*
X0051060Y0038514D01*
X0051060Y0038528D02*
X0049572Y0038528D01*
X0049572Y0038542D02*
X0051060Y0038542D01*
X0051060Y0038556D02*
X0049572Y0038556D01*
X0049572Y0038570D02*
X0051060Y0038570D01*
X0051060Y0038584D02*
X0049572Y0038584D01*
X0049572Y0038598D02*
X0051060Y0038598D01*
X0051060Y0038612D02*
X0049572Y0038612D01*
X0049572Y0038626D02*
X0051060Y0038626D01*
X0051060Y0038640D02*
X0049572Y0038640D01*
X0049572Y0038654D02*
X0051060Y0038654D01*
X0051060Y0038668D02*
X0049572Y0038668D01*
X0049572Y0038682D02*
X0051060Y0038682D01*
X0051060Y0038696D02*
X0049572Y0038696D01*
X0049572Y0038710D02*
X0051060Y0038710D01*
X0051060Y0038724D02*
X0049572Y0038724D01*
X0049572Y0038738D02*
X0051060Y0038738D01*
X0051060Y0038752D02*
X0049572Y0038752D01*
X0049572Y0038766D02*
X0051060Y0038766D01*
X0051060Y0038780D02*
X0049572Y0038780D01*
X0049572Y0038794D02*
X0051060Y0038794D01*
X0051060Y0038808D02*
X0049572Y0038808D01*
X0049572Y0038822D02*
X0051060Y0038822D01*
X0051060Y0038836D02*
X0049572Y0038836D01*
X0049572Y0038850D02*
X0051060Y0038850D01*
X0051060Y0038864D02*
X0049572Y0038864D01*
X0049572Y0038878D02*
X0051060Y0038878D01*
X0051060Y0038892D02*
X0049572Y0038892D01*
X0049572Y0038906D02*
X0051060Y0038906D01*
X0051060Y0038920D02*
X0049572Y0038920D01*
X0049572Y0038934D02*
X0051060Y0038934D01*
X0051060Y0038948D02*
X0049572Y0038948D01*
X0049572Y0038962D02*
X0051060Y0038962D01*
X0051060Y0038976D02*
X0049572Y0038976D01*
X0049572Y0038990D02*
X0051060Y0038990D01*
X0051060Y0039004D02*
X0049572Y0039004D01*
X0049572Y0039018D02*
X0051060Y0039018D01*
X0051060Y0039032D02*
X0049572Y0039032D01*
X0049572Y0039046D02*
X0051060Y0039046D01*
X0051060Y0039060D02*
X0049572Y0039060D01*
X0049572Y0039074D02*
X0051060Y0039074D01*
X0051060Y0039088D02*
X0049572Y0039088D01*
X0049572Y0039102D02*
X0051060Y0039102D01*
X0051060Y0039116D02*
X0049572Y0039116D01*
X0049572Y0039130D02*
X0051060Y0039130D01*
X0051060Y0039144D02*
X0049572Y0039144D01*
X0049572Y0039158D02*
X0051060Y0039158D01*
X0051060Y0039172D02*
X0049572Y0039172D01*
X0049572Y0039186D02*
X0051060Y0039186D01*
X0051060Y0039200D02*
X0049572Y0039200D01*
X0049572Y0039214D02*
X0051060Y0039214D01*
X0051060Y0039228D02*
X0049572Y0039228D01*
X0049572Y0039242D02*
X0051060Y0039242D01*
X0051060Y0039256D02*
X0049572Y0039256D01*
X0049572Y0039270D02*
X0051060Y0039270D01*
X0051060Y0039284D02*
X0049572Y0039284D01*
X0049572Y0039298D02*
X0051060Y0039298D01*
X0051060Y0039312D02*
X0049572Y0039312D01*
X0049572Y0039326D02*
X0051060Y0039326D01*
X0051060Y0039340D02*
X0049572Y0039340D01*
X0049572Y0039354D02*
X0051060Y0039354D01*
X0051060Y0039368D02*
X0049572Y0039368D01*
X0049572Y0039382D02*
X0051060Y0039382D01*
X0051060Y0039396D02*
X0049572Y0039396D01*
X0049572Y0039410D02*
X0051060Y0039410D01*
X0051060Y0039424D02*
X0049572Y0039424D01*
X0049572Y0039438D02*
X0051060Y0039438D01*
X0051060Y0039452D02*
X0049572Y0039452D01*
X0049572Y0039466D02*
X0051060Y0039466D01*
X0051060Y0039480D02*
X0049572Y0039480D01*
X0049572Y0039494D02*
X0051060Y0039494D01*
X0051060Y0039508D02*
X0049572Y0039508D01*
X0049572Y0039522D02*
X0051060Y0039522D01*
X0051060Y0039536D02*
X0049572Y0039536D01*
X0049572Y0039550D02*
X0051060Y0039550D01*
X0051060Y0039564D02*
X0049572Y0039564D01*
X0049572Y0039578D02*
X0051060Y0039578D01*
X0051060Y0039592D02*
X0049572Y0039592D01*
X0049572Y0039606D02*
X0051060Y0039606D01*
X0051060Y0039620D02*
X0049572Y0039620D01*
X0049572Y0039634D02*
X0051060Y0039634D01*
X0051060Y0039648D02*
X0049572Y0039648D01*
X0049572Y0039662D02*
X0051060Y0039662D01*
X0051060Y0039676D02*
X0049572Y0039676D01*
X0049572Y0039690D02*
X0051060Y0039690D01*
X0051060Y0039704D02*
X0049572Y0039704D01*
X0049572Y0039718D02*
X0051060Y0039718D01*
X0051060Y0039732D02*
X0049572Y0039732D01*
X0049572Y0039746D02*
X0051060Y0039746D01*
X0051060Y0039760D02*
X0049572Y0039760D01*
X0049572Y0039774D02*
X0051060Y0039774D01*
X0051060Y0039788D02*
X0049572Y0039788D01*
X0049572Y0039802D02*
X0051060Y0039802D01*
X0051060Y0039816D02*
X0049572Y0039816D01*
X0049572Y0039830D02*
X0051060Y0039830D01*
X0051060Y0039844D02*
X0049572Y0039844D01*
X0049572Y0039858D02*
X0051060Y0039858D01*
X0051060Y0039872D02*
X0049572Y0039872D01*
X0049572Y0039886D02*
X0051060Y0039886D01*
X0051060Y0039900D02*
X0049572Y0039900D01*
X0049572Y0039914D02*
X0051060Y0039914D01*
X0051060Y0039928D02*
X0049572Y0039928D01*
X0049572Y0039942D02*
X0051060Y0039942D01*
X0051060Y0039956D02*
X0049572Y0039956D01*
X0049572Y0039970D02*
X0051060Y0039970D01*
X0051060Y0039984D02*
X0049572Y0039984D01*
X0049572Y0039998D02*
X0051060Y0039998D01*
X0051060Y0040012D02*
X0049572Y0040012D01*
X0049572Y0040026D02*
X0051060Y0040026D01*
X0051060Y0040040D02*
X0049572Y0040040D01*
X0049572Y0040054D02*
X0051060Y0040054D01*
X0051060Y0040068D02*
X0049572Y0040068D01*
X0049572Y0040082D02*
X0051060Y0040082D01*
X0051060Y0040096D02*
X0049572Y0040096D01*
X0049572Y0040110D02*
X0051060Y0040110D01*
X0051060Y0040124D02*
X0049572Y0040124D01*
X0049572Y0040138D02*
X0051060Y0040138D01*
X0051060Y0040152D02*
X0049572Y0040152D01*
X0049572Y0040166D02*
X0051060Y0040166D01*
X0051060Y0040180D02*
X0049572Y0040180D01*
X0049572Y0040194D02*
X0051060Y0040194D01*
X0051060Y0040208D02*
X0049572Y0040208D01*
X0049572Y0040222D02*
X0051060Y0040222D01*
X0051060Y0040236D02*
X0049572Y0040236D01*
X0049572Y0040250D02*
X0051060Y0040250D01*
X0051060Y0040264D02*
X0049572Y0040264D01*
X0049572Y0040278D02*
X0051060Y0040278D01*
X0051060Y0040292D02*
X0049572Y0040292D01*
X0049572Y0040306D02*
X0051060Y0040306D01*
X0051060Y0040320D02*
X0049572Y0040320D01*
X0049572Y0040334D02*
X0051060Y0040334D01*
X0051060Y0040348D02*
X0049572Y0040348D01*
X0049572Y0040362D02*
X0051060Y0040362D01*
X0051060Y0040376D02*
X0049572Y0040376D01*
X0049572Y0040390D02*
X0051060Y0040390D01*
X0051060Y0040404D02*
X0049572Y0040404D01*
X0049572Y0040418D02*
X0051060Y0040418D01*
X0051060Y0040432D02*
X0049572Y0040432D01*
X0049572Y0040446D02*
X0051060Y0040446D01*
X0051060Y0040460D02*
X0049572Y0040460D01*
X0049572Y0040474D02*
X0051060Y0040474D01*
X0051060Y0040488D02*
X0049572Y0040488D01*
X0049572Y0040502D02*
X0051060Y0040502D01*
X0051060Y0040516D02*
X0049572Y0040516D01*
X0049572Y0040530D02*
X0051060Y0040530D01*
X0051060Y0040544D02*
X0049572Y0040544D01*
X0049572Y0040558D02*
X0051060Y0040558D01*
X0051060Y0040572D02*
X0049572Y0040572D01*
X0049572Y0040586D02*
X0051060Y0040586D01*
X0051060Y0040600D02*
X0049572Y0040600D01*
X0049572Y0040614D02*
X0051060Y0040614D01*
X0051060Y0040628D02*
X0049572Y0040628D01*
X0049572Y0040642D02*
X0051060Y0040642D01*
X0051060Y0040656D02*
X0049572Y0040656D01*
X0049572Y0040670D02*
X0051060Y0040670D01*
X0051060Y0040684D02*
X0049572Y0040684D01*
X0049572Y0040698D02*
X0051060Y0040698D01*
X0051060Y0040712D02*
X0049572Y0040712D01*
X0049572Y0040726D02*
X0051060Y0040726D01*
X0051060Y0040740D02*
X0049572Y0040740D01*
X0049572Y0040754D02*
X0051060Y0040754D01*
X0051060Y0040768D02*
X0049572Y0040768D01*
X0049572Y0040782D02*
X0051060Y0040782D01*
X0051060Y0040796D02*
X0049572Y0040796D01*
X0049572Y0040810D02*
X0051060Y0040810D01*
X0051060Y0040824D02*
X0049572Y0040824D01*
X0049572Y0040838D02*
X0051060Y0040838D01*
X0051060Y0040852D02*
X0049572Y0040852D01*
X0049572Y0040866D02*
X0051060Y0040866D01*
X0051060Y0040880D02*
X0049572Y0040880D01*
X0049572Y0040894D02*
X0051060Y0040894D01*
X0051060Y0040908D02*
X0049572Y0040908D01*
X0049572Y0040922D02*
X0051060Y0040922D01*
X0051060Y0040936D02*
X0049572Y0040936D01*
X0049572Y0040950D02*
X0051060Y0040950D01*
X0051060Y0040964D02*
X0049572Y0040964D01*
X0049572Y0040978D02*
X0051060Y0040978D01*
X0051060Y0040992D02*
X0049572Y0040992D01*
X0049572Y0041006D02*
X0051060Y0041006D01*
X0051060Y0041020D02*
X0049572Y0041020D01*
X0049572Y0041034D02*
X0051060Y0041034D01*
X0051060Y0041048D02*
X0049572Y0041048D01*
X0049572Y0041062D02*
X0051060Y0041062D01*
X0051060Y0041076D02*
X0049572Y0041076D01*
X0049572Y0041090D02*
X0051060Y0041090D01*
X0051060Y0041104D02*
X0049572Y0041104D01*
X0049572Y0041118D02*
X0051060Y0041118D01*
X0051060Y0041132D02*
X0049572Y0041132D01*
X0049572Y0041146D02*
X0051060Y0041146D01*
X0051060Y0041160D02*
X0049572Y0041160D01*
X0049572Y0041174D02*
X0051060Y0041174D01*
X0051060Y0041188D02*
X0049572Y0041188D01*
X0049572Y0041202D02*
X0051060Y0041202D01*
X0051060Y0041216D02*
X0049572Y0041216D01*
X0049572Y0041230D02*
X0051060Y0041230D01*
X0051060Y0041244D02*
X0049572Y0041244D01*
X0049572Y0041258D02*
X0051060Y0041258D01*
X0051060Y0041272D02*
X0049572Y0041272D01*
X0049572Y0041286D02*
X0051060Y0041286D01*
X0051060Y0041300D02*
X0049572Y0041300D01*
X0049572Y0041314D02*
X0051060Y0041314D01*
X0051060Y0041328D02*
X0049572Y0041328D01*
X0049572Y0041342D02*
X0051060Y0041342D01*
X0051060Y0041356D02*
X0049572Y0041356D01*
X0049572Y0041370D02*
X0051060Y0041370D01*
X0051060Y0041384D02*
X0049572Y0041384D01*
X0049572Y0041398D02*
X0051060Y0041398D01*
X0051060Y0041412D02*
X0049572Y0041412D01*
X0049572Y0041426D02*
X0051060Y0041426D01*
X0051060Y0041440D02*
X0049572Y0041440D01*
X0049572Y0041454D02*
X0051060Y0041454D01*
X0051060Y0041468D02*
X0049572Y0041468D01*
X0049572Y0041482D02*
X0051060Y0041482D01*
X0051060Y0041496D02*
X0049572Y0041496D01*
X0049572Y0041510D02*
X0051060Y0041510D01*
X0051060Y0041524D02*
X0049572Y0041524D01*
X0049572Y0041538D02*
X0051060Y0041538D01*
X0051060Y0041552D02*
X0049572Y0041552D01*
X0049572Y0041566D02*
X0051060Y0041566D01*
X0051060Y0041580D02*
X0049572Y0041580D01*
X0049572Y0041594D02*
X0051060Y0041594D01*
X0051060Y0041608D02*
X0049572Y0041608D01*
X0049572Y0041622D02*
X0051060Y0041622D01*
X0051060Y0041636D02*
X0049572Y0041636D01*
X0049572Y0041650D02*
X0051060Y0041650D01*
X0051060Y0041664D02*
X0049572Y0041664D01*
X0049572Y0041678D02*
X0051060Y0041678D01*
X0051060Y0041692D02*
X0049572Y0041692D01*
D16*
X0051301Y0036094D03*
X0054253Y0034125D03*
X0051301Y0032156D03*
X0057206Y0032156D03*
X0057206Y0036094D03*
D17*
X0048903Y0016625D03*
X0039603Y0016625D03*
D18*
X0044253Y0030779D03*
X0044253Y0037471D03*
X0045907Y0046625D03*
X0052600Y0046625D03*
X0066053Y0032471D03*
X0066053Y0025779D03*
X0072953Y0025779D03*
X0079253Y0025779D03*
X0079253Y0032471D03*
X0072953Y0032471D03*
X0106732Y0051200D03*
X0113425Y0051200D03*
X0124878Y0027246D03*
X0124878Y0020554D03*
X0165478Y0020554D03*
X0165478Y0027246D03*
X0205078Y0027246D03*
X0205078Y0020554D03*
X0269528Y0034779D03*
X0269528Y0041471D03*
X0193778Y0134054D03*
X0193778Y0140746D03*
X0055428Y0107646D03*
X0055428Y0100954D03*
X0053678Y0090796D03*
X0053678Y0084104D03*
X0023825Y0100900D03*
X0017132Y0100900D03*
X0017132Y0107600D03*
X0023825Y0107600D03*
X0023925Y0115100D03*
X0023825Y0121300D03*
X0017132Y0121300D03*
X0017232Y0115100D03*
D19*
X0033126Y0115800D03*
X0039031Y0115800D03*
X0039131Y0121300D03*
X0033226Y0121300D03*
X0094826Y0051800D03*
X0100731Y0051800D03*
X0059553Y0015103D03*
X0059553Y0009197D03*
D20*
X0102778Y0021800D03*
X0104678Y0021800D03*
X0106678Y0021800D03*
X0108678Y0021800D03*
X0110678Y0021800D03*
X0112578Y0021800D03*
X0112578Y0029800D03*
X0110678Y0029800D03*
X0108678Y0029800D03*
X0106678Y0029800D03*
X0104678Y0029800D03*
X0102778Y0029800D03*
X0142878Y0029800D03*
X0144778Y0029800D03*
X0146778Y0029800D03*
X0148778Y0029800D03*
X0150778Y0029800D03*
X0152678Y0029800D03*
X0152678Y0021800D03*
X0150778Y0021800D03*
X0148778Y0021800D03*
X0146778Y0021800D03*
X0144778Y0021800D03*
X0142878Y0021800D03*
X0182778Y0022000D03*
X0184678Y0022000D03*
X0186678Y0022000D03*
X0188678Y0022000D03*
X0190678Y0022000D03*
X0192578Y0022000D03*
X0192578Y0030000D03*
X0190678Y0030000D03*
X0188678Y0030000D03*
X0186678Y0030000D03*
X0184678Y0030000D03*
X0182778Y0030000D03*
X0222878Y0029900D03*
X0224778Y0029900D03*
X0226778Y0029900D03*
X0228778Y0029900D03*
X0230778Y0029900D03*
X0232678Y0029900D03*
X0232678Y0021900D03*
X0230778Y0021900D03*
X0228778Y0021900D03*
X0226778Y0021900D03*
X0224778Y0021900D03*
X0222878Y0021900D03*
D21*
X0227778Y0025900D03*
X0187678Y0026000D03*
X0147778Y0025800D03*
X0107678Y0025800D03*
D22*
X0108978Y0013900D02*
X0108978Y0007900D01*
X0098978Y0007900D02*
X0098978Y0013900D01*
X0088978Y0013900D02*
X0088978Y0007900D01*
X0118978Y0007900D02*
X0118978Y0013900D01*
X0128978Y0013900D02*
X0128978Y0007900D01*
X0138978Y0007900D02*
X0138978Y0013900D01*
X0148978Y0013900D02*
X0148978Y0007900D01*
X0158978Y0007900D02*
X0158978Y0013900D01*
X0168978Y0014000D02*
X0168978Y0008000D01*
X0178978Y0008000D02*
X0178978Y0014000D01*
X0188978Y0014000D02*
X0188978Y0008000D01*
X0198978Y0008000D02*
X0198978Y0014000D01*
X0208978Y0014000D02*
X0208978Y0008000D01*
X0218978Y0008000D02*
X0218978Y0014000D01*
X0228978Y0014000D02*
X0228978Y0008000D01*
X0238978Y0008000D02*
X0238978Y0014000D01*
X0269378Y0053500D02*
X0275378Y0053500D01*
X0275378Y0063500D02*
X0269378Y0063500D01*
X0269378Y0073500D02*
X0275378Y0073500D01*
X0275378Y0083500D02*
X0269378Y0083500D01*
X0269378Y0093500D02*
X0275378Y0093500D01*
X0275378Y0103500D02*
X0269378Y0103500D01*
X0269378Y0113500D02*
X0275378Y0113500D01*
X0275378Y0123500D02*
X0269378Y0123500D01*
X0269378Y0133500D02*
X0275378Y0133500D01*
X0275378Y0143500D02*
X0269378Y0143500D01*
X0269378Y0153500D02*
X0275378Y0153500D01*
X0259878Y0158000D02*
X0259878Y0164000D01*
X0249878Y0164000D02*
X0249878Y0158000D01*
X0239878Y0158000D02*
X0239878Y0164000D01*
X0229878Y0164000D02*
X0229878Y0158000D01*
X0219878Y0158000D02*
X0219878Y0164000D01*
X0209878Y0164000D02*
X0209878Y0158000D01*
X0199878Y0158000D02*
X0199878Y0164000D01*
X0189878Y0164000D02*
X0189878Y0158000D01*
X0145678Y0157475D02*
X0145678Y0163475D01*
X0135678Y0163475D02*
X0135678Y0157475D01*
X0125678Y0157475D02*
X0125678Y0163475D01*
X0115678Y0163475D02*
X0115678Y0157475D01*
X0100503Y0142750D02*
X0100503Y0136750D01*
X0090503Y0136750D02*
X0090503Y0142750D01*
X0080503Y0142750D02*
X0080503Y0136750D01*
X0070503Y0136750D02*
X0070503Y0142750D01*
X0045678Y0157475D02*
X0045678Y0163475D01*
X0035678Y0163475D02*
X0035678Y0157475D01*
X0025678Y0157475D02*
X0025678Y0163475D01*
D23*
X0258176Y0030231D03*
X0260144Y0030231D03*
X0262113Y0030231D03*
X0264081Y0030231D03*
X0264081Y0018419D03*
X0262113Y0018419D03*
X0260144Y0018419D03*
X0258176Y0018419D03*
D24*
X0255223Y0021372D03*
X0255223Y0023341D03*
X0255223Y0025309D03*
X0255223Y0027278D03*
X0267034Y0027278D03*
X0267034Y0025309D03*
X0267034Y0023341D03*
X0267034Y0021372D03*
D25*
X0075754Y0077379D03*
X0075754Y0079347D03*
X0075754Y0081316D03*
X0075754Y0083284D03*
X0075754Y0085253D03*
X0075754Y0087221D03*
X0060203Y0087221D03*
X0060203Y0085253D03*
X0060203Y0083284D03*
X0060203Y0081316D03*
X0060203Y0079347D03*
X0060203Y0077379D03*
D26*
X0063057Y0074426D03*
X0065026Y0074426D03*
X0066994Y0074426D03*
X0068963Y0074426D03*
X0070931Y0074426D03*
X0072900Y0074426D03*
X0072900Y0090174D03*
X0070931Y0090174D03*
X0068963Y0090174D03*
X0066994Y0090174D03*
X0065026Y0090174D03*
X0063057Y0090174D03*
D27*
X0067978Y0082300D03*
D28*
G36*
X0153346Y0122819D02*
X0155578Y0120587D01*
X0152792Y0117801D01*
X0150560Y0120033D01*
X0153346Y0122819D01*
G37*
G36*
X0157096Y0126569D02*
X0159328Y0124337D01*
X0156542Y0121551D01*
X0154310Y0123783D01*
X0157096Y0126569D01*
G37*
G36*
X0160715Y0122949D02*
X0162947Y0120717D01*
X0160161Y0117931D01*
X0157929Y0120163D01*
X0160715Y0122949D01*
G37*
G36*
X0156965Y0119199D02*
X0159197Y0116967D01*
X0156411Y0114181D01*
X0154179Y0116413D01*
X0156965Y0119199D01*
G37*
G36*
X0227792Y0072801D02*
X0225560Y0075033D01*
X0228346Y0077819D01*
X0230578Y0075587D01*
X0227792Y0072801D01*
G37*
G36*
X0231411Y0069181D02*
X0229179Y0071413D01*
X0231965Y0074199D01*
X0234197Y0071967D01*
X0231411Y0069181D01*
G37*
G36*
X0226965Y0069199D02*
X0229197Y0066967D01*
X0226411Y0064181D01*
X0224179Y0066413D01*
X0226965Y0069199D01*
G37*
G36*
X0223346Y0072819D02*
X0225578Y0070587D01*
X0222792Y0067801D01*
X0220560Y0070033D01*
X0223346Y0072819D01*
G37*
G36*
X0231542Y0076551D02*
X0229310Y0078783D01*
X0232096Y0081569D01*
X0234328Y0079337D01*
X0231542Y0076551D01*
G37*
G36*
X0235161Y0072931D02*
X0232929Y0075163D01*
X0235715Y0077949D01*
X0237947Y0075717D01*
X0235161Y0072931D01*
G37*
G36*
X0213346Y0062819D02*
X0215578Y0060587D01*
X0212792Y0057801D01*
X0210560Y0060033D01*
X0213346Y0062819D01*
G37*
G36*
X0216965Y0059199D02*
X0219197Y0056967D01*
X0216411Y0054181D01*
X0214179Y0056413D01*
X0216965Y0059199D01*
G37*
D29*
G36*
X0217120Y0061590D02*
X0213303Y0065407D01*
X0215354Y0067458D01*
X0219171Y0063641D01*
X0217120Y0061590D01*
G37*
G36*
X0219737Y0064207D02*
X0215920Y0068024D01*
X0217971Y0070075D01*
X0221788Y0066258D01*
X0219737Y0064207D01*
G37*
D30*
G36*
X0231730Y0055467D02*
X0239083Y0048114D01*
X0235264Y0044295D01*
X0227911Y0051648D01*
X0231730Y0055467D01*
G37*
D31*
X0103103Y0111200D03*
X0103103Y0116200D03*
X0103103Y0121200D03*
X0103103Y0126200D03*
X0071253Y0126200D03*
X0071253Y0121200D03*
X0071253Y0116200D03*
X0071253Y0111200D03*
D32*
X0029478Y0091700D03*
X0019478Y0091700D03*
X0019478Y0081700D03*
X0029478Y0081700D03*
X0029553Y0071625D03*
X0019553Y0071625D03*
X0019553Y0061625D03*
X0029553Y0061625D03*
X0029553Y0051625D03*
X0019553Y0051625D03*
X0019553Y0041625D03*
X0029553Y0041625D03*
X0029553Y0031625D03*
X0019553Y0031625D03*
X0019553Y0021625D03*
X0029553Y0021625D03*
X0029553Y0011625D03*
X0019553Y0011625D03*
D33*
X0040493Y0095661D03*
X0040493Y0098220D03*
X0040493Y0100780D03*
X0040493Y0103339D03*
X0048564Y0103339D03*
X0048564Y0100780D03*
X0048564Y0098220D03*
X0048564Y0095661D03*
D34*
G36*
X0143972Y0094969D02*
X0145033Y0096030D01*
X0149982Y0091081D01*
X0148921Y0090020D01*
X0143972Y0094969D01*
G37*
G36*
X0145316Y0096313D02*
X0146377Y0097374D01*
X0151326Y0092425D01*
X0150265Y0091364D01*
X0145316Y0096313D01*
G37*
G36*
X0146730Y0097727D02*
X0147791Y0098788D01*
X0152740Y0093839D01*
X0151679Y0092778D01*
X0146730Y0097727D01*
G37*
G36*
X0148144Y0099141D02*
X0149205Y0100202D01*
X0154154Y0095253D01*
X0153093Y0094192D01*
X0148144Y0099141D01*
G37*
G36*
X0149558Y0100556D02*
X0150619Y0101617D01*
X0155568Y0096668D01*
X0154507Y0095607D01*
X0149558Y0100556D01*
G37*
G36*
X0150902Y0101899D02*
X0151963Y0102960D01*
X0156912Y0098011D01*
X0155851Y0096950D01*
X0150902Y0101899D01*
G37*
G36*
X0152316Y0103313D02*
X0153377Y0104374D01*
X0158326Y0099425D01*
X0157265Y0098364D01*
X0152316Y0103313D01*
G37*
G36*
X0153730Y0104728D02*
X0154791Y0105789D01*
X0159740Y0100840D01*
X0158679Y0099779D01*
X0153730Y0104728D01*
G37*
G36*
X0155074Y0106071D02*
X0156135Y0107132D01*
X0161084Y0102183D01*
X0160023Y0101122D01*
X0155074Y0106071D01*
G37*
G36*
X0156488Y0107485D02*
X0157549Y0108546D01*
X0162498Y0103597D01*
X0161437Y0102536D01*
X0156488Y0107485D01*
G37*
G36*
X0157902Y0108899D02*
X0158963Y0109960D01*
X0163912Y0105011D01*
X0162851Y0103950D01*
X0157902Y0108899D01*
G37*
G36*
X0159246Y0110243D02*
X0160307Y0111304D01*
X0165256Y0106355D01*
X0164195Y0105294D01*
X0159246Y0110243D01*
G37*
G36*
X0160660Y0111657D02*
X0161721Y0112718D01*
X0166670Y0107769D01*
X0165609Y0106708D01*
X0160660Y0111657D01*
G37*
G36*
X0162074Y0113071D02*
X0163135Y0114132D01*
X0168084Y0109183D01*
X0167023Y0108122D01*
X0162074Y0113071D01*
G37*
G36*
X0163418Y0114415D02*
X0164479Y0115476D01*
X0169428Y0110527D01*
X0168367Y0109466D01*
X0163418Y0114415D01*
G37*
G36*
X0164832Y0115829D02*
X0165893Y0116890D01*
X0170842Y0111941D01*
X0169781Y0110880D01*
X0164832Y0115829D01*
G37*
G36*
X0166246Y0117243D02*
X0167307Y0118304D01*
X0172256Y0113355D01*
X0171195Y0112294D01*
X0166246Y0117243D01*
G37*
G36*
X0167590Y0118587D02*
X0168651Y0119648D01*
X0173600Y0114699D01*
X0172539Y0113638D01*
X0167590Y0118587D01*
G37*
G36*
X0169004Y0120001D02*
X0170065Y0121062D01*
X0175014Y0116113D01*
X0173953Y0115052D01*
X0169004Y0120001D01*
G37*
G36*
X0170418Y0121415D02*
X0171479Y0122476D01*
X0176428Y0117527D01*
X0175367Y0116466D01*
X0170418Y0121415D01*
G37*
G36*
X0171762Y0122759D02*
X0172823Y0123820D01*
X0177772Y0118871D01*
X0176711Y0117810D01*
X0171762Y0122759D01*
G37*
G36*
X0173176Y0124173D02*
X0174237Y0125234D01*
X0179186Y0120285D01*
X0178125Y0119224D01*
X0173176Y0124173D01*
G37*
G36*
X0174590Y0125587D02*
X0175651Y0126648D01*
X0180600Y0121699D01*
X0179539Y0120638D01*
X0174590Y0125587D01*
G37*
G36*
X0176004Y0127001D02*
X0177065Y0128062D01*
X0182014Y0123113D01*
X0180953Y0122052D01*
X0176004Y0127001D01*
G37*
G36*
X0177348Y0128345D02*
X0178409Y0129406D01*
X0183358Y0124457D01*
X0182297Y0123396D01*
X0177348Y0128345D01*
G37*
G36*
X0187460Y0123396D02*
X0186399Y0124457D01*
X0191348Y0129406D01*
X0192409Y0128345D01*
X0187460Y0123396D01*
G37*
G36*
X0188803Y0122052D02*
X0187742Y0123113D01*
X0192691Y0128062D01*
X0193752Y0127001D01*
X0188803Y0122052D01*
G37*
G36*
X0190217Y0120638D02*
X0189156Y0121699D01*
X0194105Y0126648D01*
X0195166Y0125587D01*
X0190217Y0120638D01*
G37*
G36*
X0191632Y0119224D02*
X0190571Y0120285D01*
X0195520Y0125234D01*
X0196581Y0124173D01*
X0191632Y0119224D01*
G37*
G36*
X0193046Y0117810D02*
X0191985Y0118871D01*
X0196934Y0123820D01*
X0197995Y0122759D01*
X0193046Y0117810D01*
G37*
G36*
X0194389Y0116466D02*
X0193328Y0117527D01*
X0198277Y0122476D01*
X0199338Y0121415D01*
X0194389Y0116466D01*
G37*
G36*
X0195804Y0115052D02*
X0194743Y0116113D01*
X0199692Y0121062D01*
X0200753Y0120001D01*
X0195804Y0115052D01*
G37*
G36*
X0197218Y0113638D02*
X0196157Y0114699D01*
X0201106Y0119648D01*
X0202167Y0118587D01*
X0197218Y0113638D01*
G37*
G36*
X0198561Y0112294D02*
X0197500Y0113355D01*
X0202449Y0118304D01*
X0203510Y0117243D01*
X0198561Y0112294D01*
G37*
G36*
X0199976Y0110880D02*
X0198915Y0111941D01*
X0203864Y0116890D01*
X0204925Y0115829D01*
X0199976Y0110880D01*
G37*
G36*
X0201390Y0109466D02*
X0200329Y0110527D01*
X0205278Y0115476D01*
X0206339Y0114415D01*
X0201390Y0109466D01*
G37*
G36*
X0202733Y0108122D02*
X0201672Y0109183D01*
X0206621Y0114132D01*
X0207682Y0113071D01*
X0202733Y0108122D01*
G37*
G36*
X0204147Y0106708D02*
X0203086Y0107769D01*
X0208035Y0112718D01*
X0209096Y0111657D01*
X0204147Y0106708D01*
G37*
G36*
X0205562Y0105294D02*
X0204501Y0106355D01*
X0209450Y0111304D01*
X0210511Y0110243D01*
X0205562Y0105294D01*
G37*
G36*
X0206905Y0103950D02*
X0205844Y0105011D01*
X0210793Y0109960D01*
X0211854Y0108899D01*
X0206905Y0103950D01*
G37*
G36*
X0208319Y0102536D02*
X0207258Y0103597D01*
X0212207Y0108546D01*
X0213268Y0107485D01*
X0208319Y0102536D01*
G37*
G36*
X0209734Y0101122D02*
X0208673Y0102183D01*
X0213622Y0107132D01*
X0214683Y0106071D01*
X0209734Y0101122D01*
G37*
G36*
X0211077Y0099779D02*
X0210016Y0100840D01*
X0214965Y0105789D01*
X0216026Y0104728D01*
X0211077Y0099779D01*
G37*
G36*
X0212491Y0098364D02*
X0211430Y0099425D01*
X0216379Y0104374D01*
X0217440Y0103313D01*
X0212491Y0098364D01*
G37*
G36*
X0213906Y0096950D02*
X0212845Y0098011D01*
X0217794Y0102960D01*
X0218855Y0101899D01*
X0213906Y0096950D01*
G37*
G36*
X0215249Y0095607D02*
X0214188Y0096668D01*
X0219137Y0101617D01*
X0220198Y0100556D01*
X0215249Y0095607D01*
G37*
G36*
X0216663Y0094192D02*
X0215602Y0095253D01*
X0220551Y0100202D01*
X0221612Y0099141D01*
X0216663Y0094192D01*
G37*
G36*
X0218077Y0092778D02*
X0217016Y0093839D01*
X0221965Y0098788D01*
X0223026Y0097727D01*
X0218077Y0092778D01*
G37*
G36*
X0219492Y0091364D02*
X0218431Y0092425D01*
X0223380Y0097374D01*
X0224441Y0096313D01*
X0219492Y0091364D01*
G37*
G36*
X0220835Y0090020D02*
X0219774Y0091081D01*
X0224723Y0096030D01*
X0225784Y0094969D01*
X0220835Y0090020D01*
G37*
G36*
X0219774Y0085919D02*
X0220835Y0086980D01*
X0225784Y0082031D01*
X0224723Y0080970D01*
X0219774Y0085919D01*
G37*
G36*
X0218431Y0084575D02*
X0219492Y0085636D01*
X0224441Y0080687D01*
X0223380Y0079626D01*
X0218431Y0084575D01*
G37*
G36*
X0217016Y0083161D02*
X0218077Y0084222D01*
X0223026Y0079273D01*
X0221965Y0078212D01*
X0217016Y0083161D01*
G37*
G36*
X0215602Y0081747D02*
X0216663Y0082808D01*
X0221612Y0077859D01*
X0220551Y0076798D01*
X0215602Y0081747D01*
G37*
G36*
X0214188Y0080332D02*
X0215249Y0081393D01*
X0220198Y0076444D01*
X0219137Y0075383D01*
X0214188Y0080332D01*
G37*
G36*
X0212845Y0078989D02*
X0213906Y0080050D01*
X0218855Y0075101D01*
X0217794Y0074040D01*
X0212845Y0078989D01*
G37*
G36*
X0211430Y0077575D02*
X0212491Y0078636D01*
X0217440Y0073687D01*
X0216379Y0072626D01*
X0211430Y0077575D01*
G37*
G36*
X0210016Y0076160D02*
X0211077Y0077221D01*
X0216026Y0072272D01*
X0214965Y0071211D01*
X0210016Y0076160D01*
G37*
G36*
X0208673Y0074817D02*
X0209734Y0075878D01*
X0214683Y0070929D01*
X0213622Y0069868D01*
X0208673Y0074817D01*
G37*
G36*
X0207258Y0073403D02*
X0208319Y0074464D01*
X0213268Y0069515D01*
X0212207Y0068454D01*
X0207258Y0073403D01*
G37*
G36*
X0205844Y0071989D02*
X0206905Y0073050D01*
X0211854Y0068101D01*
X0210793Y0067040D01*
X0205844Y0071989D01*
G37*
G36*
X0204501Y0070645D02*
X0205562Y0071706D01*
X0210511Y0066757D01*
X0209450Y0065696D01*
X0204501Y0070645D01*
G37*
G36*
X0203086Y0069231D02*
X0204147Y0070292D01*
X0209096Y0065343D01*
X0208035Y0064282D01*
X0203086Y0069231D01*
G37*
G36*
X0201672Y0067817D02*
X0202733Y0068878D01*
X0207682Y0063929D01*
X0206621Y0062868D01*
X0201672Y0067817D01*
G37*
G36*
X0200329Y0066473D02*
X0201390Y0067534D01*
X0206339Y0062585D01*
X0205278Y0061524D01*
X0200329Y0066473D01*
G37*
G36*
X0198915Y0065059D02*
X0199976Y0066120D01*
X0204925Y0061171D01*
X0203864Y0060110D01*
X0198915Y0065059D01*
G37*
G36*
X0197500Y0063645D02*
X0198561Y0064706D01*
X0203510Y0059757D01*
X0202449Y0058696D01*
X0197500Y0063645D01*
G37*
G36*
X0196157Y0062301D02*
X0197218Y0063362D01*
X0202167Y0058413D01*
X0201106Y0057352D01*
X0196157Y0062301D01*
G37*
G36*
X0194743Y0060887D02*
X0195804Y0061948D01*
X0200753Y0056999D01*
X0199692Y0055938D01*
X0194743Y0060887D01*
G37*
G36*
X0193328Y0059473D02*
X0194389Y0060534D01*
X0199338Y0055585D01*
X0198277Y0054524D01*
X0193328Y0059473D01*
G37*
G36*
X0191985Y0058129D02*
X0193046Y0059190D01*
X0197995Y0054241D01*
X0196934Y0053180D01*
X0191985Y0058129D01*
G37*
G36*
X0190571Y0056715D02*
X0191632Y0057776D01*
X0196581Y0052827D01*
X0195520Y0051766D01*
X0190571Y0056715D01*
G37*
G36*
X0189156Y0055301D02*
X0190217Y0056362D01*
X0195166Y0051413D01*
X0194105Y0050352D01*
X0189156Y0055301D01*
G37*
G36*
X0187742Y0053887D02*
X0188803Y0054948D01*
X0193752Y0049999D01*
X0192691Y0048938D01*
X0187742Y0053887D01*
G37*
G36*
X0186399Y0052543D02*
X0187460Y0053604D01*
X0192409Y0048655D01*
X0191348Y0047594D01*
X0186399Y0052543D01*
G37*
G36*
X0178409Y0047594D02*
X0177348Y0048655D01*
X0182297Y0053604D01*
X0183358Y0052543D01*
X0178409Y0047594D01*
G37*
G36*
X0177065Y0048938D02*
X0176004Y0049999D01*
X0180953Y0054948D01*
X0182014Y0053887D01*
X0177065Y0048938D01*
G37*
G36*
X0175651Y0050352D02*
X0174590Y0051413D01*
X0179539Y0056362D01*
X0180600Y0055301D01*
X0175651Y0050352D01*
G37*
G36*
X0174237Y0051766D02*
X0173176Y0052827D01*
X0178125Y0057776D01*
X0179186Y0056715D01*
X0174237Y0051766D01*
G37*
G36*
X0172823Y0053180D02*
X0171762Y0054241D01*
X0176711Y0059190D01*
X0177772Y0058129D01*
X0172823Y0053180D01*
G37*
G36*
X0171479Y0054524D02*
X0170418Y0055585D01*
X0175367Y0060534D01*
X0176428Y0059473D01*
X0171479Y0054524D01*
G37*
G36*
X0170065Y0055938D02*
X0169004Y0056999D01*
X0173953Y0061948D01*
X0175014Y0060887D01*
X0170065Y0055938D01*
G37*
G36*
X0168651Y0057352D02*
X0167590Y0058413D01*
X0172539Y0063362D01*
X0173600Y0062301D01*
X0168651Y0057352D01*
G37*
G36*
X0167307Y0058696D02*
X0166246Y0059757D01*
X0171195Y0064706D01*
X0172256Y0063645D01*
X0167307Y0058696D01*
G37*
G36*
X0165893Y0060110D02*
X0164832Y0061171D01*
X0169781Y0066120D01*
X0170842Y0065059D01*
X0165893Y0060110D01*
G37*
G36*
X0164479Y0061524D02*
X0163418Y0062585D01*
X0168367Y0067534D01*
X0169428Y0066473D01*
X0164479Y0061524D01*
G37*
G36*
X0163135Y0062868D02*
X0162074Y0063929D01*
X0167023Y0068878D01*
X0168084Y0067817D01*
X0163135Y0062868D01*
G37*
G36*
X0161721Y0064282D02*
X0160660Y0065343D01*
X0165609Y0070292D01*
X0166670Y0069231D01*
X0161721Y0064282D01*
G37*
G36*
X0160307Y0065696D02*
X0159246Y0066757D01*
X0164195Y0071706D01*
X0165256Y0070645D01*
X0160307Y0065696D01*
G37*
G36*
X0158963Y0067040D02*
X0157902Y0068101D01*
X0162851Y0073050D01*
X0163912Y0071989D01*
X0158963Y0067040D01*
G37*
G36*
X0157549Y0068454D02*
X0156488Y0069515D01*
X0161437Y0074464D01*
X0162498Y0073403D01*
X0157549Y0068454D01*
G37*
G36*
X0156135Y0069868D02*
X0155074Y0070929D01*
X0160023Y0075878D01*
X0161084Y0074817D01*
X0156135Y0069868D01*
G37*
G36*
X0154791Y0071211D02*
X0153730Y0072272D01*
X0158679Y0077221D01*
X0159740Y0076160D01*
X0154791Y0071211D01*
G37*
G36*
X0153377Y0072626D02*
X0152316Y0073687D01*
X0157265Y0078636D01*
X0158326Y0077575D01*
X0153377Y0072626D01*
G37*
G36*
X0151963Y0074040D02*
X0150902Y0075101D01*
X0155851Y0080050D01*
X0156912Y0078989D01*
X0151963Y0074040D01*
G37*
G36*
X0150619Y0075383D02*
X0149558Y0076444D01*
X0154507Y0081393D01*
X0155568Y0080332D01*
X0150619Y0075383D01*
G37*
G36*
X0149205Y0076798D02*
X0148144Y0077859D01*
X0153093Y0082808D01*
X0154154Y0081747D01*
X0149205Y0076798D01*
G37*
G36*
X0147791Y0078212D02*
X0146730Y0079273D01*
X0151679Y0084222D01*
X0152740Y0083161D01*
X0147791Y0078212D01*
G37*
G36*
X0146377Y0079626D02*
X0145316Y0080687D01*
X0150265Y0085636D01*
X0151326Y0084575D01*
X0146377Y0079626D01*
G37*
G36*
X0145033Y0080970D02*
X0143972Y0082031D01*
X0148921Y0086980D01*
X0149982Y0085919D01*
X0145033Y0080970D01*
G37*
D35*
G36*
X0151288Y0056797D02*
X0147943Y0060142D01*
X0153236Y0065435D01*
X0156581Y0062090D01*
X0151288Y0056797D01*
G37*
G36*
X0156521Y0051565D02*
X0153176Y0054910D01*
X0158469Y0060203D01*
X0161814Y0056858D01*
X0156521Y0051565D01*
G37*
D36*
G36*
X0112953Y0083375D02*
X0117478Y0078850D01*
X0112953Y0074325D01*
X0108428Y0078850D01*
X0112953Y0083375D01*
G37*
D37*
X0118521Y0084418D03*
X0124089Y0089986D03*
X0129657Y0095553D03*
X0135224Y0101121D03*
X0140792Y0106689D03*
X0146360Y0112257D03*
D38*
X0032753Y0061775D02*
X0031203Y0061775D01*
X0032753Y0061775D02*
X0032753Y0060825D01*
X0031203Y0060825D01*
X0031203Y0061775D01*
X0031203Y0060874D02*
X0032753Y0060874D01*
X0032753Y0060923D02*
X0031203Y0060923D01*
X0031203Y0060972D02*
X0032753Y0060972D01*
X0032753Y0061021D02*
X0031203Y0061021D01*
X0031203Y0061070D02*
X0032753Y0061070D01*
X0032753Y0061119D02*
X0031203Y0061119D01*
X0031203Y0061168D02*
X0032753Y0061168D01*
X0032753Y0061217D02*
X0031203Y0061217D01*
X0031203Y0061266D02*
X0032753Y0061266D01*
X0032753Y0061315D02*
X0031203Y0061315D01*
X0031203Y0061364D02*
X0032753Y0061364D01*
X0032753Y0061413D02*
X0031203Y0061413D01*
X0031203Y0061462D02*
X0032753Y0061462D01*
X0032753Y0061511D02*
X0031203Y0061511D01*
X0031203Y0061560D02*
X0032753Y0061560D01*
X0032753Y0061609D02*
X0031203Y0061609D01*
X0031203Y0061658D02*
X0032753Y0061658D01*
X0032753Y0061707D02*
X0031203Y0061707D01*
X0031203Y0061756D02*
X0032753Y0061756D01*
X0029003Y0062075D02*
X0029003Y0060525D01*
X0029003Y0062075D02*
X0029953Y0062075D01*
X0029953Y0060525D01*
X0029003Y0060525D01*
X0029003Y0060574D02*
X0029953Y0060574D01*
X0029953Y0060623D02*
X0029003Y0060623D01*
X0029003Y0060672D02*
X0029953Y0060672D01*
X0029953Y0060721D02*
X0029003Y0060721D01*
X0029003Y0060770D02*
X0029953Y0060770D01*
X0029953Y0060819D02*
X0029003Y0060819D01*
X0029003Y0060868D02*
X0029953Y0060868D01*
X0029953Y0060917D02*
X0029003Y0060917D01*
X0029003Y0060966D02*
X0029953Y0060966D01*
X0029953Y0061015D02*
X0029003Y0061015D01*
X0029003Y0061064D02*
X0029953Y0061064D01*
X0029953Y0061113D02*
X0029003Y0061113D01*
X0029003Y0061162D02*
X0029953Y0061162D01*
X0029953Y0061211D02*
X0029003Y0061211D01*
X0029003Y0061260D02*
X0029953Y0061260D01*
X0029953Y0061309D02*
X0029003Y0061309D01*
X0029003Y0061358D02*
X0029953Y0061358D01*
X0029953Y0061407D02*
X0029003Y0061407D01*
X0029003Y0061456D02*
X0029953Y0061456D01*
X0029953Y0061505D02*
X0029003Y0061505D01*
X0029003Y0061554D02*
X0029953Y0061554D01*
X0029953Y0061603D02*
X0029003Y0061603D01*
X0029003Y0061652D02*
X0029953Y0061652D01*
X0029953Y0061701D02*
X0029003Y0061701D01*
X0029003Y0061750D02*
X0029953Y0061750D01*
X0029953Y0061799D02*
X0029003Y0061799D01*
X0029003Y0061848D02*
X0029953Y0061848D01*
X0029953Y0061897D02*
X0029003Y0061897D01*
X0029003Y0061946D02*
X0029953Y0061946D01*
X0029953Y0061995D02*
X0029003Y0061995D01*
X0029003Y0062044D02*
X0029953Y0062044D01*
X0027753Y0061775D02*
X0026203Y0061775D01*
X0027753Y0061775D02*
X0027753Y0060825D01*
X0026203Y0060825D01*
X0026203Y0061775D01*
X0026203Y0060874D02*
X0027753Y0060874D01*
X0027753Y0060923D02*
X0026203Y0060923D01*
X0026203Y0060972D02*
X0027753Y0060972D01*
X0027753Y0061021D02*
X0026203Y0061021D01*
X0026203Y0061070D02*
X0027753Y0061070D01*
X0027753Y0061119D02*
X0026203Y0061119D01*
X0026203Y0061168D02*
X0027753Y0061168D01*
X0027753Y0061217D02*
X0026203Y0061217D01*
X0026203Y0061266D02*
X0027753Y0061266D01*
X0027753Y0061315D02*
X0026203Y0061315D01*
X0026203Y0061364D02*
X0027753Y0061364D01*
X0027753Y0061413D02*
X0026203Y0061413D01*
X0026203Y0061462D02*
X0027753Y0061462D01*
X0027753Y0061511D02*
X0026203Y0061511D01*
X0026203Y0061560D02*
X0027753Y0061560D01*
X0027753Y0061609D02*
X0026203Y0061609D01*
X0026203Y0061658D02*
X0027753Y0061658D01*
X0027753Y0061707D02*
X0026203Y0061707D01*
X0026203Y0061756D02*
X0027753Y0061756D01*
M02*
