G75*
%MOIN*%
%OFA0B0*%
%FSLAX25Y25*%
%IPPOS*%
%LPD*%
%AMOC8*
5,1,8,0,0,1.08239X$1,22.5*
%
%ADD10C,0.00000*%
%ADD11C,0.06000*%
%ADD12OC8,0.06000*%
%ADD13R,0.04600X0.06300*%
%ADD14R,0.06000X0.06000*%
%ADD15C,0.06000*%
%ADD16C,0.01200*%
%ADD17C,0.02381*%
%ADD18C,0.01000*%
%ADD19C,0.02400*%
%ADD20C,0.01600*%
%ADD21C,0.03562*%
D10*
X0007378Y0003500D02*
X0007378Y0168500D01*
X0279878Y0168500D01*
X0279878Y0003500D01*
X0007378Y0003500D01*
X0050710Y0032156D02*
X0050712Y0032204D01*
X0050718Y0032252D01*
X0050728Y0032299D01*
X0050741Y0032345D01*
X0050759Y0032390D01*
X0050779Y0032434D01*
X0050804Y0032476D01*
X0050832Y0032515D01*
X0050862Y0032552D01*
X0050896Y0032586D01*
X0050933Y0032618D01*
X0050971Y0032647D01*
X0051012Y0032672D01*
X0051055Y0032694D01*
X0051100Y0032712D01*
X0051146Y0032726D01*
X0051193Y0032737D01*
X0051241Y0032744D01*
X0051289Y0032747D01*
X0051337Y0032746D01*
X0051385Y0032741D01*
X0051433Y0032732D01*
X0051479Y0032720D01*
X0051524Y0032703D01*
X0051568Y0032683D01*
X0051610Y0032660D01*
X0051650Y0032633D01*
X0051688Y0032603D01*
X0051723Y0032570D01*
X0051755Y0032534D01*
X0051785Y0032496D01*
X0051811Y0032455D01*
X0051833Y0032412D01*
X0051853Y0032368D01*
X0051868Y0032323D01*
X0051880Y0032276D01*
X0051888Y0032228D01*
X0051892Y0032180D01*
X0051892Y0032132D01*
X0051888Y0032084D01*
X0051880Y0032036D01*
X0051868Y0031989D01*
X0051853Y0031944D01*
X0051833Y0031900D01*
X0051811Y0031857D01*
X0051785Y0031816D01*
X0051755Y0031778D01*
X0051723Y0031742D01*
X0051688Y0031709D01*
X0051650Y0031679D01*
X0051610Y0031652D01*
X0051568Y0031629D01*
X0051524Y0031609D01*
X0051479Y0031592D01*
X0051433Y0031580D01*
X0051385Y0031571D01*
X0051337Y0031566D01*
X0051289Y0031565D01*
X0051241Y0031568D01*
X0051193Y0031575D01*
X0051146Y0031586D01*
X0051100Y0031600D01*
X0051055Y0031618D01*
X0051012Y0031640D01*
X0050971Y0031665D01*
X0050933Y0031694D01*
X0050896Y0031726D01*
X0050862Y0031760D01*
X0050832Y0031797D01*
X0050804Y0031836D01*
X0050779Y0031878D01*
X0050759Y0031922D01*
X0050741Y0031967D01*
X0050728Y0032013D01*
X0050718Y0032060D01*
X0050712Y0032108D01*
X0050710Y0032156D01*
X0053662Y0034125D02*
X0053664Y0034173D01*
X0053670Y0034221D01*
X0053680Y0034268D01*
X0053693Y0034314D01*
X0053711Y0034359D01*
X0053731Y0034403D01*
X0053756Y0034445D01*
X0053784Y0034484D01*
X0053814Y0034521D01*
X0053848Y0034555D01*
X0053885Y0034587D01*
X0053923Y0034616D01*
X0053964Y0034641D01*
X0054007Y0034663D01*
X0054052Y0034681D01*
X0054098Y0034695D01*
X0054145Y0034706D01*
X0054193Y0034713D01*
X0054241Y0034716D01*
X0054289Y0034715D01*
X0054337Y0034710D01*
X0054385Y0034701D01*
X0054431Y0034689D01*
X0054476Y0034672D01*
X0054520Y0034652D01*
X0054562Y0034629D01*
X0054602Y0034602D01*
X0054640Y0034572D01*
X0054675Y0034539D01*
X0054707Y0034503D01*
X0054737Y0034465D01*
X0054763Y0034424D01*
X0054785Y0034381D01*
X0054805Y0034337D01*
X0054820Y0034292D01*
X0054832Y0034245D01*
X0054840Y0034197D01*
X0054844Y0034149D01*
X0054844Y0034101D01*
X0054840Y0034053D01*
X0054832Y0034005D01*
X0054820Y0033958D01*
X0054805Y0033913D01*
X0054785Y0033869D01*
X0054763Y0033826D01*
X0054737Y0033785D01*
X0054707Y0033747D01*
X0054675Y0033711D01*
X0054640Y0033678D01*
X0054602Y0033648D01*
X0054562Y0033621D01*
X0054520Y0033598D01*
X0054476Y0033578D01*
X0054431Y0033561D01*
X0054385Y0033549D01*
X0054337Y0033540D01*
X0054289Y0033535D01*
X0054241Y0033534D01*
X0054193Y0033537D01*
X0054145Y0033544D01*
X0054098Y0033555D01*
X0054052Y0033569D01*
X0054007Y0033587D01*
X0053964Y0033609D01*
X0053923Y0033634D01*
X0053885Y0033663D01*
X0053848Y0033695D01*
X0053814Y0033729D01*
X0053784Y0033766D01*
X0053756Y0033805D01*
X0053731Y0033847D01*
X0053711Y0033891D01*
X0053693Y0033936D01*
X0053680Y0033982D01*
X0053670Y0034029D01*
X0053664Y0034077D01*
X0053662Y0034125D01*
X0050710Y0036094D02*
X0050712Y0036142D01*
X0050718Y0036190D01*
X0050728Y0036237D01*
X0050741Y0036283D01*
X0050759Y0036328D01*
X0050779Y0036372D01*
X0050804Y0036414D01*
X0050832Y0036453D01*
X0050862Y0036490D01*
X0050896Y0036524D01*
X0050933Y0036556D01*
X0050971Y0036585D01*
X0051012Y0036610D01*
X0051055Y0036632D01*
X0051100Y0036650D01*
X0051146Y0036664D01*
X0051193Y0036675D01*
X0051241Y0036682D01*
X0051289Y0036685D01*
X0051337Y0036684D01*
X0051385Y0036679D01*
X0051433Y0036670D01*
X0051479Y0036658D01*
X0051524Y0036641D01*
X0051568Y0036621D01*
X0051610Y0036598D01*
X0051650Y0036571D01*
X0051688Y0036541D01*
X0051723Y0036508D01*
X0051755Y0036472D01*
X0051785Y0036434D01*
X0051811Y0036393D01*
X0051833Y0036350D01*
X0051853Y0036306D01*
X0051868Y0036261D01*
X0051880Y0036214D01*
X0051888Y0036166D01*
X0051892Y0036118D01*
X0051892Y0036070D01*
X0051888Y0036022D01*
X0051880Y0035974D01*
X0051868Y0035927D01*
X0051853Y0035882D01*
X0051833Y0035838D01*
X0051811Y0035795D01*
X0051785Y0035754D01*
X0051755Y0035716D01*
X0051723Y0035680D01*
X0051688Y0035647D01*
X0051650Y0035617D01*
X0051610Y0035590D01*
X0051568Y0035567D01*
X0051524Y0035547D01*
X0051479Y0035530D01*
X0051433Y0035518D01*
X0051385Y0035509D01*
X0051337Y0035504D01*
X0051289Y0035503D01*
X0051241Y0035506D01*
X0051193Y0035513D01*
X0051146Y0035524D01*
X0051100Y0035538D01*
X0051055Y0035556D01*
X0051012Y0035578D01*
X0050971Y0035603D01*
X0050933Y0035632D01*
X0050896Y0035664D01*
X0050862Y0035698D01*
X0050832Y0035735D01*
X0050804Y0035774D01*
X0050779Y0035816D01*
X0050759Y0035860D01*
X0050741Y0035905D01*
X0050728Y0035951D01*
X0050718Y0035998D01*
X0050712Y0036046D01*
X0050710Y0036094D01*
X0056615Y0036094D02*
X0056617Y0036142D01*
X0056623Y0036190D01*
X0056633Y0036237D01*
X0056646Y0036283D01*
X0056664Y0036328D01*
X0056684Y0036372D01*
X0056709Y0036414D01*
X0056737Y0036453D01*
X0056767Y0036490D01*
X0056801Y0036524D01*
X0056838Y0036556D01*
X0056876Y0036585D01*
X0056917Y0036610D01*
X0056960Y0036632D01*
X0057005Y0036650D01*
X0057051Y0036664D01*
X0057098Y0036675D01*
X0057146Y0036682D01*
X0057194Y0036685D01*
X0057242Y0036684D01*
X0057290Y0036679D01*
X0057338Y0036670D01*
X0057384Y0036658D01*
X0057429Y0036641D01*
X0057473Y0036621D01*
X0057515Y0036598D01*
X0057555Y0036571D01*
X0057593Y0036541D01*
X0057628Y0036508D01*
X0057660Y0036472D01*
X0057690Y0036434D01*
X0057716Y0036393D01*
X0057738Y0036350D01*
X0057758Y0036306D01*
X0057773Y0036261D01*
X0057785Y0036214D01*
X0057793Y0036166D01*
X0057797Y0036118D01*
X0057797Y0036070D01*
X0057793Y0036022D01*
X0057785Y0035974D01*
X0057773Y0035927D01*
X0057758Y0035882D01*
X0057738Y0035838D01*
X0057716Y0035795D01*
X0057690Y0035754D01*
X0057660Y0035716D01*
X0057628Y0035680D01*
X0057593Y0035647D01*
X0057555Y0035617D01*
X0057515Y0035590D01*
X0057473Y0035567D01*
X0057429Y0035547D01*
X0057384Y0035530D01*
X0057338Y0035518D01*
X0057290Y0035509D01*
X0057242Y0035504D01*
X0057194Y0035503D01*
X0057146Y0035506D01*
X0057098Y0035513D01*
X0057051Y0035524D01*
X0057005Y0035538D01*
X0056960Y0035556D01*
X0056917Y0035578D01*
X0056876Y0035603D01*
X0056838Y0035632D01*
X0056801Y0035664D01*
X0056767Y0035698D01*
X0056737Y0035735D01*
X0056709Y0035774D01*
X0056684Y0035816D01*
X0056664Y0035860D01*
X0056646Y0035905D01*
X0056633Y0035951D01*
X0056623Y0035998D01*
X0056617Y0036046D01*
X0056615Y0036094D01*
X0056615Y0032156D02*
X0056617Y0032204D01*
X0056623Y0032252D01*
X0056633Y0032299D01*
X0056646Y0032345D01*
X0056664Y0032390D01*
X0056684Y0032434D01*
X0056709Y0032476D01*
X0056737Y0032515D01*
X0056767Y0032552D01*
X0056801Y0032586D01*
X0056838Y0032618D01*
X0056876Y0032647D01*
X0056917Y0032672D01*
X0056960Y0032694D01*
X0057005Y0032712D01*
X0057051Y0032726D01*
X0057098Y0032737D01*
X0057146Y0032744D01*
X0057194Y0032747D01*
X0057242Y0032746D01*
X0057290Y0032741D01*
X0057338Y0032732D01*
X0057384Y0032720D01*
X0057429Y0032703D01*
X0057473Y0032683D01*
X0057515Y0032660D01*
X0057555Y0032633D01*
X0057593Y0032603D01*
X0057628Y0032570D01*
X0057660Y0032534D01*
X0057690Y0032496D01*
X0057716Y0032455D01*
X0057738Y0032412D01*
X0057758Y0032368D01*
X0057773Y0032323D01*
X0057785Y0032276D01*
X0057793Y0032228D01*
X0057797Y0032180D01*
X0057797Y0032132D01*
X0057793Y0032084D01*
X0057785Y0032036D01*
X0057773Y0031989D01*
X0057758Y0031944D01*
X0057738Y0031900D01*
X0057716Y0031857D01*
X0057690Y0031816D01*
X0057660Y0031778D01*
X0057628Y0031742D01*
X0057593Y0031709D01*
X0057555Y0031679D01*
X0057515Y0031652D01*
X0057473Y0031629D01*
X0057429Y0031609D01*
X0057384Y0031592D01*
X0057338Y0031580D01*
X0057290Y0031571D01*
X0057242Y0031566D01*
X0057194Y0031565D01*
X0057146Y0031568D01*
X0057098Y0031575D01*
X0057051Y0031586D01*
X0057005Y0031600D01*
X0056960Y0031618D01*
X0056917Y0031640D01*
X0056876Y0031665D01*
X0056838Y0031694D01*
X0056801Y0031726D01*
X0056767Y0031760D01*
X0056737Y0031797D01*
X0056709Y0031836D01*
X0056684Y0031878D01*
X0056664Y0031922D01*
X0056646Y0031967D01*
X0056633Y0032013D01*
X0056623Y0032060D01*
X0056617Y0032108D01*
X0056615Y0032156D01*
X0028972Y0136000D02*
X0028974Y0136153D01*
X0028980Y0136307D01*
X0028990Y0136460D01*
X0029004Y0136612D01*
X0029022Y0136765D01*
X0029044Y0136916D01*
X0029069Y0137067D01*
X0029099Y0137218D01*
X0029133Y0137368D01*
X0029170Y0137516D01*
X0029211Y0137664D01*
X0029256Y0137810D01*
X0029305Y0137956D01*
X0029358Y0138100D01*
X0029414Y0138242D01*
X0029474Y0138383D01*
X0029538Y0138523D01*
X0029605Y0138661D01*
X0029676Y0138797D01*
X0029751Y0138931D01*
X0029828Y0139063D01*
X0029910Y0139193D01*
X0029994Y0139321D01*
X0030082Y0139447D01*
X0030173Y0139570D01*
X0030267Y0139691D01*
X0030365Y0139809D01*
X0030465Y0139925D01*
X0030569Y0140038D01*
X0030675Y0140149D01*
X0030784Y0140257D01*
X0030896Y0140362D01*
X0031010Y0140463D01*
X0031128Y0140562D01*
X0031247Y0140658D01*
X0031369Y0140751D01*
X0031494Y0140840D01*
X0031621Y0140927D01*
X0031750Y0141009D01*
X0031881Y0141089D01*
X0032014Y0141165D01*
X0032149Y0141238D01*
X0032286Y0141307D01*
X0032425Y0141372D01*
X0032565Y0141434D01*
X0032707Y0141492D01*
X0032850Y0141547D01*
X0032995Y0141598D01*
X0033141Y0141645D01*
X0033288Y0141688D01*
X0033436Y0141727D01*
X0033585Y0141763D01*
X0033735Y0141794D01*
X0033886Y0141822D01*
X0034037Y0141846D01*
X0034190Y0141866D01*
X0034342Y0141882D01*
X0034495Y0141894D01*
X0034648Y0141902D01*
X0034801Y0141906D01*
X0034955Y0141906D01*
X0035108Y0141902D01*
X0035261Y0141894D01*
X0035414Y0141882D01*
X0035566Y0141866D01*
X0035719Y0141846D01*
X0035870Y0141822D01*
X0036021Y0141794D01*
X0036171Y0141763D01*
X0036320Y0141727D01*
X0036468Y0141688D01*
X0036615Y0141645D01*
X0036761Y0141598D01*
X0036906Y0141547D01*
X0037049Y0141492D01*
X0037191Y0141434D01*
X0037331Y0141372D01*
X0037470Y0141307D01*
X0037607Y0141238D01*
X0037742Y0141165D01*
X0037875Y0141089D01*
X0038006Y0141009D01*
X0038135Y0140927D01*
X0038262Y0140840D01*
X0038387Y0140751D01*
X0038509Y0140658D01*
X0038628Y0140562D01*
X0038746Y0140463D01*
X0038860Y0140362D01*
X0038972Y0140257D01*
X0039081Y0140149D01*
X0039187Y0140038D01*
X0039291Y0139925D01*
X0039391Y0139809D01*
X0039489Y0139691D01*
X0039583Y0139570D01*
X0039674Y0139447D01*
X0039762Y0139321D01*
X0039846Y0139193D01*
X0039928Y0139063D01*
X0040005Y0138931D01*
X0040080Y0138797D01*
X0040151Y0138661D01*
X0040218Y0138523D01*
X0040282Y0138383D01*
X0040342Y0138242D01*
X0040398Y0138100D01*
X0040451Y0137956D01*
X0040500Y0137810D01*
X0040545Y0137664D01*
X0040586Y0137516D01*
X0040623Y0137368D01*
X0040657Y0137218D01*
X0040687Y0137067D01*
X0040712Y0136916D01*
X0040734Y0136765D01*
X0040752Y0136612D01*
X0040766Y0136460D01*
X0040776Y0136307D01*
X0040782Y0136153D01*
X0040784Y0136000D01*
X0040782Y0135847D01*
X0040776Y0135693D01*
X0040766Y0135540D01*
X0040752Y0135388D01*
X0040734Y0135235D01*
X0040712Y0135084D01*
X0040687Y0134933D01*
X0040657Y0134782D01*
X0040623Y0134632D01*
X0040586Y0134484D01*
X0040545Y0134336D01*
X0040500Y0134190D01*
X0040451Y0134044D01*
X0040398Y0133900D01*
X0040342Y0133758D01*
X0040282Y0133617D01*
X0040218Y0133477D01*
X0040151Y0133339D01*
X0040080Y0133203D01*
X0040005Y0133069D01*
X0039928Y0132937D01*
X0039846Y0132807D01*
X0039762Y0132679D01*
X0039674Y0132553D01*
X0039583Y0132430D01*
X0039489Y0132309D01*
X0039391Y0132191D01*
X0039291Y0132075D01*
X0039187Y0131962D01*
X0039081Y0131851D01*
X0038972Y0131743D01*
X0038860Y0131638D01*
X0038746Y0131537D01*
X0038628Y0131438D01*
X0038509Y0131342D01*
X0038387Y0131249D01*
X0038262Y0131160D01*
X0038135Y0131073D01*
X0038006Y0130991D01*
X0037875Y0130911D01*
X0037742Y0130835D01*
X0037607Y0130762D01*
X0037470Y0130693D01*
X0037331Y0130628D01*
X0037191Y0130566D01*
X0037049Y0130508D01*
X0036906Y0130453D01*
X0036761Y0130402D01*
X0036615Y0130355D01*
X0036468Y0130312D01*
X0036320Y0130273D01*
X0036171Y0130237D01*
X0036021Y0130206D01*
X0035870Y0130178D01*
X0035719Y0130154D01*
X0035566Y0130134D01*
X0035414Y0130118D01*
X0035261Y0130106D01*
X0035108Y0130098D01*
X0034955Y0130094D01*
X0034801Y0130094D01*
X0034648Y0130098D01*
X0034495Y0130106D01*
X0034342Y0130118D01*
X0034190Y0130134D01*
X0034037Y0130154D01*
X0033886Y0130178D01*
X0033735Y0130206D01*
X0033585Y0130237D01*
X0033436Y0130273D01*
X0033288Y0130312D01*
X0033141Y0130355D01*
X0032995Y0130402D01*
X0032850Y0130453D01*
X0032707Y0130508D01*
X0032565Y0130566D01*
X0032425Y0130628D01*
X0032286Y0130693D01*
X0032149Y0130762D01*
X0032014Y0130835D01*
X0031881Y0130911D01*
X0031750Y0130991D01*
X0031621Y0131073D01*
X0031494Y0131160D01*
X0031369Y0131249D01*
X0031247Y0131342D01*
X0031128Y0131438D01*
X0031010Y0131537D01*
X0030896Y0131638D01*
X0030784Y0131743D01*
X0030675Y0131851D01*
X0030569Y0131962D01*
X0030465Y0132075D01*
X0030365Y0132191D01*
X0030267Y0132309D01*
X0030173Y0132430D01*
X0030082Y0132553D01*
X0029994Y0132679D01*
X0029910Y0132807D01*
X0029828Y0132937D01*
X0029751Y0133069D01*
X0029676Y0133203D01*
X0029605Y0133339D01*
X0029538Y0133477D01*
X0029474Y0133617D01*
X0029414Y0133758D01*
X0029358Y0133900D01*
X0029305Y0134044D01*
X0029256Y0134190D01*
X0029211Y0134336D01*
X0029170Y0134484D01*
X0029133Y0134632D01*
X0029099Y0134782D01*
X0029069Y0134933D01*
X0029044Y0135084D01*
X0029022Y0135235D01*
X0029004Y0135388D01*
X0028990Y0135540D01*
X0028980Y0135693D01*
X0028974Y0135847D01*
X0028972Y0136000D01*
X0238972Y0136000D02*
X0238974Y0136153D01*
X0238980Y0136307D01*
X0238990Y0136460D01*
X0239004Y0136612D01*
X0239022Y0136765D01*
X0239044Y0136916D01*
X0239069Y0137067D01*
X0239099Y0137218D01*
X0239133Y0137368D01*
X0239170Y0137516D01*
X0239211Y0137664D01*
X0239256Y0137810D01*
X0239305Y0137956D01*
X0239358Y0138100D01*
X0239414Y0138242D01*
X0239474Y0138383D01*
X0239538Y0138523D01*
X0239605Y0138661D01*
X0239676Y0138797D01*
X0239751Y0138931D01*
X0239828Y0139063D01*
X0239910Y0139193D01*
X0239994Y0139321D01*
X0240082Y0139447D01*
X0240173Y0139570D01*
X0240267Y0139691D01*
X0240365Y0139809D01*
X0240465Y0139925D01*
X0240569Y0140038D01*
X0240675Y0140149D01*
X0240784Y0140257D01*
X0240896Y0140362D01*
X0241010Y0140463D01*
X0241128Y0140562D01*
X0241247Y0140658D01*
X0241369Y0140751D01*
X0241494Y0140840D01*
X0241621Y0140927D01*
X0241750Y0141009D01*
X0241881Y0141089D01*
X0242014Y0141165D01*
X0242149Y0141238D01*
X0242286Y0141307D01*
X0242425Y0141372D01*
X0242565Y0141434D01*
X0242707Y0141492D01*
X0242850Y0141547D01*
X0242995Y0141598D01*
X0243141Y0141645D01*
X0243288Y0141688D01*
X0243436Y0141727D01*
X0243585Y0141763D01*
X0243735Y0141794D01*
X0243886Y0141822D01*
X0244037Y0141846D01*
X0244190Y0141866D01*
X0244342Y0141882D01*
X0244495Y0141894D01*
X0244648Y0141902D01*
X0244801Y0141906D01*
X0244955Y0141906D01*
X0245108Y0141902D01*
X0245261Y0141894D01*
X0245414Y0141882D01*
X0245566Y0141866D01*
X0245719Y0141846D01*
X0245870Y0141822D01*
X0246021Y0141794D01*
X0246171Y0141763D01*
X0246320Y0141727D01*
X0246468Y0141688D01*
X0246615Y0141645D01*
X0246761Y0141598D01*
X0246906Y0141547D01*
X0247049Y0141492D01*
X0247191Y0141434D01*
X0247331Y0141372D01*
X0247470Y0141307D01*
X0247607Y0141238D01*
X0247742Y0141165D01*
X0247875Y0141089D01*
X0248006Y0141009D01*
X0248135Y0140927D01*
X0248262Y0140840D01*
X0248387Y0140751D01*
X0248509Y0140658D01*
X0248628Y0140562D01*
X0248746Y0140463D01*
X0248860Y0140362D01*
X0248972Y0140257D01*
X0249081Y0140149D01*
X0249187Y0140038D01*
X0249291Y0139925D01*
X0249391Y0139809D01*
X0249489Y0139691D01*
X0249583Y0139570D01*
X0249674Y0139447D01*
X0249762Y0139321D01*
X0249846Y0139193D01*
X0249928Y0139063D01*
X0250005Y0138931D01*
X0250080Y0138797D01*
X0250151Y0138661D01*
X0250218Y0138523D01*
X0250282Y0138383D01*
X0250342Y0138242D01*
X0250398Y0138100D01*
X0250451Y0137956D01*
X0250500Y0137810D01*
X0250545Y0137664D01*
X0250586Y0137516D01*
X0250623Y0137368D01*
X0250657Y0137218D01*
X0250687Y0137067D01*
X0250712Y0136916D01*
X0250734Y0136765D01*
X0250752Y0136612D01*
X0250766Y0136460D01*
X0250776Y0136307D01*
X0250782Y0136153D01*
X0250784Y0136000D01*
X0250782Y0135847D01*
X0250776Y0135693D01*
X0250766Y0135540D01*
X0250752Y0135388D01*
X0250734Y0135235D01*
X0250712Y0135084D01*
X0250687Y0134933D01*
X0250657Y0134782D01*
X0250623Y0134632D01*
X0250586Y0134484D01*
X0250545Y0134336D01*
X0250500Y0134190D01*
X0250451Y0134044D01*
X0250398Y0133900D01*
X0250342Y0133758D01*
X0250282Y0133617D01*
X0250218Y0133477D01*
X0250151Y0133339D01*
X0250080Y0133203D01*
X0250005Y0133069D01*
X0249928Y0132937D01*
X0249846Y0132807D01*
X0249762Y0132679D01*
X0249674Y0132553D01*
X0249583Y0132430D01*
X0249489Y0132309D01*
X0249391Y0132191D01*
X0249291Y0132075D01*
X0249187Y0131962D01*
X0249081Y0131851D01*
X0248972Y0131743D01*
X0248860Y0131638D01*
X0248746Y0131537D01*
X0248628Y0131438D01*
X0248509Y0131342D01*
X0248387Y0131249D01*
X0248262Y0131160D01*
X0248135Y0131073D01*
X0248006Y0130991D01*
X0247875Y0130911D01*
X0247742Y0130835D01*
X0247607Y0130762D01*
X0247470Y0130693D01*
X0247331Y0130628D01*
X0247191Y0130566D01*
X0247049Y0130508D01*
X0246906Y0130453D01*
X0246761Y0130402D01*
X0246615Y0130355D01*
X0246468Y0130312D01*
X0246320Y0130273D01*
X0246171Y0130237D01*
X0246021Y0130206D01*
X0245870Y0130178D01*
X0245719Y0130154D01*
X0245566Y0130134D01*
X0245414Y0130118D01*
X0245261Y0130106D01*
X0245108Y0130098D01*
X0244955Y0130094D01*
X0244801Y0130094D01*
X0244648Y0130098D01*
X0244495Y0130106D01*
X0244342Y0130118D01*
X0244190Y0130134D01*
X0244037Y0130154D01*
X0243886Y0130178D01*
X0243735Y0130206D01*
X0243585Y0130237D01*
X0243436Y0130273D01*
X0243288Y0130312D01*
X0243141Y0130355D01*
X0242995Y0130402D01*
X0242850Y0130453D01*
X0242707Y0130508D01*
X0242565Y0130566D01*
X0242425Y0130628D01*
X0242286Y0130693D01*
X0242149Y0130762D01*
X0242014Y0130835D01*
X0241881Y0130911D01*
X0241750Y0130991D01*
X0241621Y0131073D01*
X0241494Y0131160D01*
X0241369Y0131249D01*
X0241247Y0131342D01*
X0241128Y0131438D01*
X0241010Y0131537D01*
X0240896Y0131638D01*
X0240784Y0131743D01*
X0240675Y0131851D01*
X0240569Y0131962D01*
X0240465Y0132075D01*
X0240365Y0132191D01*
X0240267Y0132309D01*
X0240173Y0132430D01*
X0240082Y0132553D01*
X0239994Y0132679D01*
X0239910Y0132807D01*
X0239828Y0132937D01*
X0239751Y0133069D01*
X0239676Y0133203D01*
X0239605Y0133339D01*
X0239538Y0133477D01*
X0239474Y0133617D01*
X0239414Y0133758D01*
X0239358Y0133900D01*
X0239305Y0134044D01*
X0239256Y0134190D01*
X0239211Y0134336D01*
X0239170Y0134484D01*
X0239133Y0134632D01*
X0239099Y0134782D01*
X0239069Y0134933D01*
X0239044Y0135084D01*
X0239022Y0135235D01*
X0239004Y0135388D01*
X0238990Y0135540D01*
X0238980Y0135693D01*
X0238974Y0135847D01*
X0238972Y0136000D01*
D11*
X0269378Y0133500D02*
X0275378Y0133500D01*
X0275378Y0123500D02*
X0269378Y0123500D01*
X0269378Y0113500D02*
X0275378Y0113500D01*
X0275378Y0103500D02*
X0269378Y0103500D01*
X0269378Y0093500D02*
X0275378Y0093500D01*
X0275378Y0083500D02*
X0269378Y0083500D01*
X0269378Y0073500D02*
X0275378Y0073500D01*
X0275378Y0063500D02*
X0269378Y0063500D01*
X0269378Y0053500D02*
X0275378Y0053500D01*
X0238978Y0014000D02*
X0238978Y0008000D01*
X0228978Y0008000D02*
X0228978Y0014000D01*
X0218978Y0014000D02*
X0218978Y0008000D01*
X0208978Y0008000D02*
X0208978Y0014000D01*
X0198978Y0014000D02*
X0198978Y0008000D01*
X0188978Y0008000D02*
X0188978Y0014000D01*
X0178978Y0014000D02*
X0178978Y0008000D01*
X0168978Y0008000D02*
X0168978Y0014000D01*
X0158978Y0013900D02*
X0158978Y0007900D01*
X0148978Y0007900D02*
X0148978Y0013900D01*
X0138978Y0013900D02*
X0138978Y0007900D01*
X0128978Y0007900D02*
X0128978Y0013900D01*
X0118978Y0013900D02*
X0118978Y0007900D01*
X0108978Y0007900D02*
X0108978Y0013900D01*
X0098978Y0013900D02*
X0098978Y0007900D01*
X0088978Y0007900D02*
X0088978Y0013900D01*
X0090503Y0136750D02*
X0090503Y0142750D01*
X0100503Y0142750D02*
X0100503Y0136750D01*
X0080503Y0136750D02*
X0080503Y0142750D01*
X0070503Y0142750D02*
X0070503Y0136750D01*
X0045678Y0157475D02*
X0045678Y0163475D01*
X0035678Y0163475D02*
X0035678Y0157475D01*
X0025678Y0157475D02*
X0025678Y0163475D01*
X0115678Y0163475D02*
X0115678Y0157475D01*
X0125678Y0157475D02*
X0125678Y0163475D01*
X0135678Y0163475D02*
X0135678Y0157475D01*
X0145678Y0157475D02*
X0145678Y0163475D01*
X0189878Y0164000D02*
X0189878Y0158000D01*
X0199878Y0158000D02*
X0199878Y0164000D01*
X0209878Y0164000D02*
X0209878Y0158000D01*
X0219878Y0158000D02*
X0219878Y0164000D01*
X0229878Y0164000D02*
X0229878Y0158000D01*
X0239878Y0158000D02*
X0239878Y0164000D01*
X0249878Y0164000D02*
X0249878Y0158000D01*
X0259878Y0158000D02*
X0259878Y0164000D01*
X0269378Y0153500D02*
X0275378Y0153500D01*
X0275378Y0143500D02*
X0269378Y0143500D01*
D12*
X0029478Y0091700D03*
X0019478Y0091700D03*
X0019478Y0081700D03*
X0029478Y0081700D03*
X0029553Y0071625D03*
X0019553Y0071625D03*
X0019553Y0061625D03*
X0029553Y0061625D03*
X0029553Y0051625D03*
X0019553Y0051625D03*
X0019553Y0041625D03*
X0029553Y0041625D03*
X0029553Y0031625D03*
X0019553Y0031625D03*
X0019553Y0021625D03*
X0029553Y0021625D03*
X0029553Y0011625D03*
X0019553Y0011625D03*
D13*
X0090678Y0028400D03*
X0096678Y0028400D03*
X0102678Y0028400D03*
X0016628Y0163500D03*
X0010628Y0163500D03*
D14*
G36*
X0112953Y0083092D02*
X0117195Y0078850D01*
X0112953Y0074608D01*
X0108711Y0078850D01*
X0112953Y0083092D01*
G37*
D15*
X0118521Y0084418D03*
X0124089Y0089986D03*
X0129657Y0095553D03*
X0135224Y0101121D03*
X0140792Y0106689D03*
X0146360Y0112257D03*
D16*
X0138579Y0118660D02*
X0135508Y0118660D01*
X0134310Y0117462D02*
X0137380Y0117462D01*
X0136182Y0116263D02*
X0133111Y0116263D01*
X0131913Y0115065D02*
X0134983Y0115065D01*
X0133785Y0113866D02*
X0130714Y0113866D01*
X0130169Y0113321D02*
X0130169Y0112945D01*
X0129744Y0111919D01*
X0128959Y0111134D01*
X0127933Y0110709D01*
X0126823Y0110709D01*
X0125798Y0111134D01*
X0125013Y0111919D01*
X0124588Y0112945D01*
X0124588Y0114055D01*
X0125013Y0115081D01*
X0125798Y0115866D01*
X0126823Y0116291D01*
X0127199Y0116291D01*
X0151508Y0140600D01*
X0171508Y0140600D01*
X0172088Y0141179D01*
X0172088Y0141555D01*
X0172513Y0142581D01*
X0173298Y0143366D01*
X0174323Y0143791D01*
X0175433Y0143791D01*
X0176459Y0143366D01*
X0177244Y0142581D01*
X0177669Y0141555D01*
X0177669Y0140445D01*
X0177609Y0140301D01*
X0178408Y0141100D01*
X0185348Y0141100D01*
X0186578Y0139870D01*
X0187378Y0139070D01*
X0187378Y0136846D01*
X0187698Y0137166D01*
X0188723Y0137591D01*
X0189833Y0137591D01*
X0190859Y0137166D01*
X0191025Y0137000D01*
X0192390Y0137000D01*
X0193678Y0135711D01*
X0203478Y0125911D01*
X0203478Y0124089D01*
X0202190Y0122800D01*
X0192469Y0113079D01*
X0192469Y0112245D01*
X0192044Y0111219D01*
X0191259Y0110434D01*
X0190233Y0110009D01*
X0189123Y0110009D01*
X0188098Y0110434D01*
X0187313Y0111219D01*
X0186888Y0112245D01*
X0186888Y0113355D01*
X0187078Y0113815D01*
X0187078Y0114111D01*
X0187288Y0114321D01*
X0187313Y0114381D01*
X0188098Y0115166D01*
X0188158Y0115191D01*
X0188367Y0115400D01*
X0188567Y0115400D01*
X0198167Y0125000D01*
X0190770Y0132397D01*
X0189833Y0132009D01*
X0188723Y0132009D01*
X0188539Y0132086D01*
X0189044Y0131581D01*
X0189469Y0130555D01*
X0189469Y0129445D01*
X0189044Y0128419D01*
X0188259Y0127634D01*
X0187233Y0127209D01*
X0186123Y0127209D01*
X0185098Y0127634D01*
X0184381Y0128351D01*
X0184244Y0128019D01*
X0183459Y0127234D01*
X0182433Y0126809D01*
X0182058Y0126809D01*
X0177978Y0122730D01*
X0177978Y0117270D01*
X0183978Y0111270D01*
X0183978Y0106330D01*
X0182748Y0105100D01*
X0174348Y0096700D01*
X0172338Y0096700D01*
X0171966Y0096529D01*
X0171503Y0096700D01*
X0171008Y0096700D01*
X0170719Y0096990D01*
X0154012Y0103164D01*
X0133148Y0082300D01*
X0131725Y0082300D01*
X0131459Y0082034D01*
X0130433Y0081609D01*
X0129323Y0081609D01*
X0128298Y0082034D01*
X0127513Y0082819D01*
X0127088Y0083845D01*
X0127088Y0084955D01*
X0127513Y0085981D01*
X0128298Y0086766D01*
X0129323Y0087191D01*
X0130433Y0087191D01*
X0131459Y0086766D01*
X0131567Y0086658D01*
X0138008Y0093100D01*
X0136408Y0093100D01*
X0136354Y0093052D01*
X0135548Y0093100D01*
X0134740Y0093100D01*
X0134689Y0093151D01*
X0133666Y0093212D01*
X0133556Y0092948D01*
X0132262Y0091654D01*
X0130572Y0090953D01*
X0128742Y0090953D01*
X0128651Y0090991D01*
X0128689Y0090901D01*
X0128689Y0089071D01*
X0127988Y0087380D01*
X0126695Y0086086D01*
X0125004Y0085386D01*
X0123174Y0085386D01*
X0123084Y0085423D01*
X0123121Y0085333D01*
X0123121Y0083503D01*
X0122421Y0081812D01*
X0121127Y0080518D01*
X0119436Y0079818D01*
X0118485Y0079818D01*
X0118687Y0079468D01*
X0118796Y0079061D01*
X0118796Y0078639D01*
X0118687Y0078232D01*
X0118476Y0077868D01*
X0116489Y0075880D01*
X0113519Y0078850D01*
X0112953Y0078284D01*
X0109983Y0075314D01*
X0111971Y0073327D01*
X0112336Y0073116D01*
X0112743Y0073007D01*
X0112939Y0073007D01*
X0112713Y0072781D01*
X0112288Y0071755D01*
X0112288Y0071521D01*
X0111069Y0070302D01*
X0111069Y0070555D01*
X0110644Y0071581D01*
X0109859Y0072366D01*
X0108833Y0072791D01*
X0107723Y0072791D01*
X0106780Y0072400D01*
X0100201Y0072400D01*
X0100264Y0072426D01*
X0107188Y0079350D01*
X0107111Y0079061D01*
X0107111Y0078639D01*
X0107220Y0078232D01*
X0107430Y0077868D01*
X0109418Y0075880D01*
X0112388Y0078850D01*
X0112953Y0078284D01*
X0115923Y0075314D01*
X0114599Y0073991D01*
X0115633Y0073991D01*
X0116659Y0073566D01*
X0117444Y0072781D01*
X0117869Y0071755D01*
X0117869Y0070645D01*
X0117444Y0069619D01*
X0116659Y0068834D01*
X0115633Y0068409D01*
X0115399Y0068409D01*
X0111090Y0064100D01*
X0095700Y0064100D01*
X0095534Y0063934D01*
X0094508Y0063509D01*
X0093398Y0063509D01*
X0092373Y0063934D01*
X0091588Y0064719D01*
X0091163Y0065745D01*
X0091163Y0066855D01*
X0091392Y0067409D01*
X0090548Y0067409D01*
X0089523Y0067834D01*
X0088738Y0068619D01*
X0088313Y0069645D01*
X0088313Y0070755D01*
X0088738Y0071781D01*
X0089523Y0072566D01*
X0090548Y0072991D01*
X0091658Y0072991D01*
X0092684Y0072566D01*
X0092850Y0072400D01*
X0097156Y0072400D01*
X0097092Y0072426D01*
X0096305Y0073214D01*
X0095878Y0074243D01*
X0095878Y0075357D01*
X0096305Y0076386D01*
X0143505Y0123586D01*
X0144292Y0124374D01*
X0145321Y0124800D01*
X0146305Y0124800D01*
X0145498Y0125134D01*
X0144713Y0125919D01*
X0144288Y0126945D01*
X0144288Y0127440D01*
X0130169Y0113321D01*
X0130054Y0112668D02*
X0132586Y0112668D01*
X0131387Y0111469D02*
X0129294Y0111469D01*
X0130189Y0110270D02*
X0061078Y0110270D01*
X0062276Y0109072D02*
X0128990Y0109072D01*
X0127792Y0107873D02*
X0063475Y0107873D01*
X0064673Y0106675D02*
X0126593Y0106675D01*
X0125395Y0105476D02*
X0066848Y0105476D01*
X0066459Y0105866D02*
X0067244Y0105081D01*
X0067669Y0104055D01*
X0067669Y0102945D01*
X0067244Y0101919D01*
X0066459Y0101134D01*
X0065433Y0100709D01*
X0064323Y0100709D01*
X0063298Y0101134D01*
X0062513Y0101919D01*
X0062088Y0102945D01*
X0062088Y0103321D01*
X0046617Y0118792D01*
X0046459Y0118634D01*
X0045433Y0118209D01*
X0044323Y0118209D01*
X0043298Y0118634D01*
X0042513Y0119419D01*
X0042088Y0120445D01*
X0042088Y0121555D01*
X0042513Y0122581D01*
X0043298Y0123366D01*
X0044323Y0123791D01*
X0045433Y0123791D01*
X0046459Y0123366D01*
X0046725Y0123100D01*
X0048248Y0123100D01*
X0049478Y0121870D01*
X0065058Y0106291D01*
X0065433Y0106291D01*
X0066459Y0105866D01*
X0067577Y0104278D02*
X0124196Y0104278D01*
X0122998Y0103079D02*
X0067669Y0103079D01*
X0067206Y0101881D02*
X0121799Y0101881D01*
X0120601Y0100682D02*
X0039142Y0100682D01*
X0039319Y0100255D02*
X0038894Y0101281D01*
X0038109Y0102066D01*
X0037083Y0102491D01*
X0035973Y0102491D01*
X0034948Y0102066D01*
X0034163Y0101281D01*
X0034118Y0101172D01*
X0030919Y0100024D01*
X0030033Y0100391D01*
X0028923Y0100391D01*
X0027898Y0099966D01*
X0027113Y0099181D01*
X0026688Y0098155D01*
X0026688Y0097045D01*
X0027113Y0096019D01*
X0027202Y0095929D01*
X0024878Y0093605D01*
X0024878Y0092100D01*
X0029078Y0092100D01*
X0029078Y0091300D01*
X0024878Y0091300D01*
X0024878Y0089795D01*
X0027573Y0087100D01*
X0029078Y0087100D01*
X0029078Y0091300D01*
X0029878Y0091300D01*
X0029878Y0087100D01*
X0031384Y0087100D01*
X0034078Y0089795D01*
X0034078Y0091300D01*
X0029878Y0091300D01*
X0029878Y0092100D01*
X0034078Y0092100D01*
X0034078Y0093605D01*
X0031961Y0095723D01*
X0035645Y0097045D01*
X0035973Y0096909D01*
X0037083Y0096909D01*
X0038109Y0097334D01*
X0038894Y0098119D01*
X0039319Y0099145D01*
X0039319Y0100255D01*
X0039319Y0099484D02*
X0119402Y0099484D01*
X0118204Y0098285D02*
X0038963Y0098285D01*
X0037512Y0097087D02*
X0117005Y0097087D01*
X0115807Y0095888D02*
X0032422Y0095888D01*
X0032994Y0094690D02*
X0114608Y0094690D01*
X0113410Y0093491D02*
X0034078Y0093491D01*
X0034078Y0092293D02*
X0112211Y0092293D01*
X0111013Y0091094D02*
X0034078Y0091094D01*
X0034078Y0089896D02*
X0109814Y0089896D01*
X0108616Y0088697D02*
X0032981Y0088697D01*
X0031782Y0087499D02*
X0107417Y0087499D01*
X0106219Y0086300D02*
X0015178Y0086300D01*
X0015178Y0085102D02*
X0016375Y0085102D01*
X0015178Y0083905D02*
X0015178Y0089495D01*
X0017573Y0087100D01*
X0021384Y0087100D01*
X0024078Y0089795D01*
X0024078Y0093605D01*
X0021384Y0096300D01*
X0017573Y0096300D01*
X0015178Y0093905D01*
X0015178Y0144877D01*
X0017876Y0147700D01*
X0050048Y0147700D01*
X0050217Y0147653D01*
X0050600Y0147700D01*
X0050985Y0147700D01*
X0051148Y0147767D01*
X0051323Y0147789D01*
X0051658Y0147979D01*
X0052014Y0148126D01*
X0052139Y0148251D01*
X0052292Y0148338D01*
X0052529Y0148641D01*
X0052802Y0148914D01*
X0052869Y0149077D01*
X0059994Y0158200D01*
X0099968Y0158200D01*
X0105669Y0152500D01*
X0059725Y0152500D01*
X0059459Y0152766D01*
X0058433Y0153191D01*
X0057323Y0153191D01*
X0056298Y0152766D01*
X0055513Y0151981D01*
X0055088Y0150955D01*
X0055088Y0149845D01*
X0055513Y0148819D01*
X0056298Y0148034D01*
X0057323Y0147609D01*
X0058433Y0147609D01*
X0059459Y0148034D01*
X0059725Y0148300D01*
X0105208Y0148300D01*
X0122888Y0130621D01*
X0122888Y0130245D01*
X0123089Y0129759D01*
X0119148Y0133700D01*
X0107725Y0133700D01*
X0107459Y0133966D01*
X0106433Y0134391D01*
X0105323Y0134391D01*
X0104298Y0133966D01*
X0103513Y0133181D01*
X0103088Y0132155D01*
X0103088Y0131045D01*
X0103513Y0130019D01*
X0104298Y0129234D01*
X0105323Y0128809D01*
X0106433Y0128809D01*
X0107459Y0129234D01*
X0107725Y0129500D01*
X0117408Y0129500D01*
X0120288Y0126621D01*
X0120288Y0126245D01*
X0120713Y0125219D01*
X0121498Y0124434D01*
X0122523Y0124009D01*
X0123633Y0124009D01*
X0124659Y0124434D01*
X0125444Y0125219D01*
X0125869Y0126245D01*
X0125869Y0127355D01*
X0125598Y0128009D01*
X0126233Y0128009D01*
X0127259Y0128434D01*
X0128044Y0129219D01*
X0128469Y0130245D01*
X0128469Y0131355D01*
X0128044Y0132381D01*
X0127259Y0133166D01*
X0126233Y0133591D01*
X0125858Y0133591D01*
X0111248Y0148200D01*
X0120435Y0148200D01*
X0121464Y0148626D01*
X0125713Y0152875D01*
X0126593Y0152875D01*
X0128284Y0153575D01*
X0129578Y0154869D01*
X0130278Y0156560D01*
X0130278Y0164390D01*
X0129578Y0166081D01*
X0128759Y0166900D01*
X0132598Y0166900D01*
X0132170Y0166472D01*
X0131744Y0165886D01*
X0131415Y0165241D01*
X0131192Y0164552D01*
X0131078Y0163837D01*
X0131078Y0160875D01*
X0135278Y0160875D01*
X0135278Y0160075D01*
X0131078Y0160075D01*
X0131078Y0157113D01*
X0131192Y0156398D01*
X0131415Y0155709D01*
X0131744Y0155064D01*
X0132170Y0154478D01*
X0132682Y0153966D01*
X0133267Y0153541D01*
X0133912Y0153212D01*
X0134601Y0152988D01*
X0135278Y0152881D01*
X0135278Y0160075D01*
X0136078Y0160075D01*
X0136078Y0152881D01*
X0136755Y0152988D01*
X0137444Y0153212D01*
X0138089Y0153541D01*
X0138675Y0153966D01*
X0139187Y0154478D01*
X0139613Y0155064D01*
X0139941Y0155709D01*
X0140165Y0156398D01*
X0140278Y0157113D01*
X0140278Y0160075D01*
X0136078Y0160075D01*
X0136078Y0160875D01*
X0140278Y0160875D01*
X0140278Y0163837D01*
X0140165Y0164552D01*
X0139941Y0165241D01*
X0139613Y0165886D01*
X0139187Y0166472D01*
X0138759Y0166900D01*
X0142598Y0166900D01*
X0141779Y0166081D01*
X0141078Y0164390D01*
X0141078Y0156560D01*
X0141779Y0154869D01*
X0143073Y0153575D01*
X0144763Y0152875D01*
X0146593Y0152875D01*
X0148284Y0153575D01*
X0149578Y0154869D01*
X0150278Y0156560D01*
X0150278Y0164390D01*
X0149578Y0166081D01*
X0148759Y0166900D01*
X0186273Y0166900D01*
X0185979Y0166606D01*
X0185278Y0164915D01*
X0185278Y0157085D01*
X0185979Y0155394D01*
X0187273Y0154100D01*
X0188963Y0153400D01*
X0190793Y0153400D01*
X0192484Y0154100D01*
X0193778Y0155394D01*
X0194478Y0157085D01*
X0194478Y0164915D01*
X0193778Y0166606D01*
X0193484Y0166900D01*
X0196273Y0166900D01*
X0195979Y0166606D01*
X0195278Y0164915D01*
X0195278Y0157085D01*
X0195979Y0155394D01*
X0197273Y0154100D01*
X0198963Y0153400D01*
X0200793Y0153400D01*
X0202484Y0154100D01*
X0203778Y0155394D01*
X0204478Y0157085D01*
X0204478Y0164915D01*
X0203778Y0166606D01*
X0203484Y0166900D01*
X0206273Y0166900D01*
X0205979Y0166606D01*
X0205278Y0164915D01*
X0205278Y0157085D01*
X0205979Y0155394D01*
X0207273Y0154100D01*
X0208963Y0153400D01*
X0210793Y0153400D01*
X0212484Y0154100D01*
X0213778Y0155394D01*
X0214478Y0157085D01*
X0214478Y0164915D01*
X0213778Y0166606D01*
X0213484Y0166900D01*
X0216273Y0166900D01*
X0215979Y0166606D01*
X0215278Y0164915D01*
X0215278Y0157085D01*
X0215979Y0155394D01*
X0217273Y0154100D01*
X0218963Y0153400D01*
X0220793Y0153400D01*
X0222484Y0154100D01*
X0223778Y0155394D01*
X0224478Y0157085D01*
X0224478Y0164915D01*
X0223778Y0166606D01*
X0223484Y0166900D01*
X0226273Y0166900D01*
X0225979Y0166606D01*
X0225278Y0164915D01*
X0225278Y0157085D01*
X0225979Y0155394D01*
X0227273Y0154100D01*
X0228963Y0153400D01*
X0230793Y0153400D01*
X0232484Y0154100D01*
X0233778Y0155394D01*
X0234478Y0157085D01*
X0234478Y0164915D01*
X0233778Y0166606D01*
X0233484Y0166900D01*
X0236273Y0166900D01*
X0235979Y0166606D01*
X0235278Y0164915D01*
X0235278Y0157085D01*
X0235979Y0155394D01*
X0237273Y0154100D01*
X0238963Y0153400D01*
X0240793Y0153400D01*
X0242484Y0154100D01*
X0243778Y0155394D01*
X0244478Y0157085D01*
X0244478Y0164915D01*
X0243778Y0166606D01*
X0243484Y0166900D01*
X0246273Y0166900D01*
X0245979Y0166606D01*
X0245278Y0164915D01*
X0245278Y0157085D01*
X0245979Y0155394D01*
X0247273Y0154100D01*
X0248963Y0153400D01*
X0250793Y0153400D01*
X0252484Y0154100D01*
X0253778Y0155394D01*
X0254478Y0157085D01*
X0254478Y0164915D01*
X0253778Y0166606D01*
X0253484Y0166900D01*
X0256273Y0166900D01*
X0255979Y0166606D01*
X0255278Y0164915D01*
X0255278Y0157085D01*
X0255979Y0155394D01*
X0257273Y0154100D01*
X0258963Y0153400D01*
X0260793Y0153400D01*
X0262484Y0154100D01*
X0263778Y0155394D01*
X0264478Y0157085D01*
X0264478Y0164915D01*
X0263778Y0166606D01*
X0263484Y0166900D01*
X0278278Y0166900D01*
X0278278Y0157105D01*
X0277984Y0157400D01*
X0276293Y0158100D01*
X0268463Y0158100D01*
X0266773Y0157400D01*
X0265479Y0156106D01*
X0264778Y0154415D01*
X0264778Y0152585D01*
X0265479Y0150894D01*
X0266773Y0149600D01*
X0268463Y0148900D01*
X0276293Y0148900D01*
X0277984Y0149600D01*
X0278278Y0149895D01*
X0278278Y0147105D01*
X0277984Y0147400D01*
X0276293Y0148100D01*
X0268463Y0148100D01*
X0266773Y0147400D01*
X0265479Y0146106D01*
X0264778Y0144415D01*
X0264778Y0142585D01*
X0265479Y0140894D01*
X0266773Y0139600D01*
X0268463Y0138900D01*
X0276293Y0138900D01*
X0277984Y0139600D01*
X0278278Y0139895D01*
X0278278Y0137105D01*
X0277984Y0137400D01*
X0276293Y0138100D01*
X0268463Y0138100D01*
X0266773Y0137400D01*
X0265479Y0136106D01*
X0264778Y0134415D01*
X0264778Y0132585D01*
X0265479Y0130894D01*
X0266773Y0129600D01*
X0268463Y0128900D01*
X0276293Y0128900D01*
X0277984Y0129600D01*
X0278278Y0129895D01*
X0278278Y0127105D01*
X0277984Y0127400D01*
X0276293Y0128100D01*
X0268463Y0128100D01*
X0266773Y0127400D01*
X0265479Y0126106D01*
X0264778Y0124415D01*
X0264778Y0122585D01*
X0265479Y0120894D01*
X0266773Y0119600D01*
X0268463Y0118900D01*
X0276293Y0118900D01*
X0277984Y0119600D01*
X0278278Y0119895D01*
X0278278Y0117105D01*
X0277984Y0117400D01*
X0276293Y0118100D01*
X0268463Y0118100D01*
X0266773Y0117400D01*
X0265479Y0116106D01*
X0264778Y0114415D01*
X0264778Y0112585D01*
X0265479Y0110894D01*
X0266773Y0109600D01*
X0268463Y0108900D01*
X0276293Y0108900D01*
X0277984Y0109600D01*
X0278278Y0109895D01*
X0278278Y0107105D01*
X0277984Y0107400D01*
X0276293Y0108100D01*
X0268463Y0108100D01*
X0266773Y0107400D01*
X0265479Y0106106D01*
X0264778Y0104415D01*
X0264778Y0102585D01*
X0265479Y0100894D01*
X0266773Y0099600D01*
X0268463Y0098900D01*
X0276293Y0098900D01*
X0277984Y0099600D01*
X0278278Y0099895D01*
X0278278Y0097105D01*
X0277984Y0097400D01*
X0276293Y0098100D01*
X0268463Y0098100D01*
X0266773Y0097400D01*
X0265479Y0096106D01*
X0264778Y0094415D01*
X0264778Y0092585D01*
X0265479Y0090894D01*
X0266773Y0089600D01*
X0268463Y0088900D01*
X0276293Y0088900D01*
X0277984Y0089600D01*
X0278278Y0089895D01*
X0278278Y0087105D01*
X0277984Y0087400D01*
X0276293Y0088100D01*
X0268463Y0088100D01*
X0266773Y0087400D01*
X0265479Y0086106D01*
X0264778Y0084415D01*
X0264778Y0082585D01*
X0265479Y0080894D01*
X0266773Y0079600D01*
X0268463Y0078900D01*
X0276293Y0078900D01*
X0277984Y0079600D01*
X0278278Y0079895D01*
X0278278Y0077105D01*
X0277984Y0077400D01*
X0276293Y0078100D01*
X0268463Y0078100D01*
X0266773Y0077400D01*
X0265479Y0076106D01*
X0264778Y0074415D01*
X0264778Y0072585D01*
X0265479Y0070894D01*
X0266773Y0069600D01*
X0268463Y0068900D01*
X0276293Y0068900D01*
X0277984Y0069600D01*
X0278278Y0069895D01*
X0278278Y0067105D01*
X0277984Y0067400D01*
X0276293Y0068100D01*
X0268463Y0068100D01*
X0266773Y0067400D01*
X0265479Y0066106D01*
X0264778Y0064415D01*
X0264778Y0062585D01*
X0265479Y0060894D01*
X0266773Y0059600D01*
X0268463Y0058900D01*
X0276293Y0058900D01*
X0277984Y0059600D01*
X0278278Y0059895D01*
X0278278Y0057105D01*
X0277984Y0057400D01*
X0276293Y0058100D01*
X0268463Y0058100D01*
X0266773Y0057400D01*
X0265479Y0056106D01*
X0264778Y0054415D01*
X0264778Y0052585D01*
X0265479Y0050894D01*
X0266773Y0049600D01*
X0268463Y0048900D01*
X0276293Y0048900D01*
X0277984Y0049600D01*
X0278278Y0049895D01*
X0278278Y0005100D01*
X0242584Y0005100D01*
X0242878Y0005394D01*
X0243578Y0007085D01*
X0243578Y0014915D01*
X0242878Y0016606D01*
X0241584Y0017900D01*
X0239893Y0018600D01*
X0238063Y0018600D01*
X0236373Y0017900D01*
X0235079Y0016606D01*
X0234378Y0014915D01*
X0234378Y0007085D01*
X0235079Y0005394D01*
X0235373Y0005100D01*
X0232584Y0005100D01*
X0232878Y0005394D01*
X0233578Y0007085D01*
X0233578Y0014915D01*
X0232878Y0016606D01*
X0231584Y0017900D01*
X0229893Y0018600D01*
X0228063Y0018600D01*
X0226373Y0017900D01*
X0225079Y0016606D01*
X0224378Y0014915D01*
X0224378Y0007085D01*
X0225079Y0005394D01*
X0225373Y0005100D01*
X0222584Y0005100D01*
X0222878Y0005394D01*
X0223578Y0007085D01*
X0223578Y0014915D01*
X0222878Y0016606D01*
X0221584Y0017900D01*
X0219893Y0018600D01*
X0218063Y0018600D01*
X0216373Y0017900D01*
X0215079Y0016606D01*
X0214378Y0014915D01*
X0214378Y0007085D01*
X0215079Y0005394D01*
X0215373Y0005100D01*
X0212584Y0005100D01*
X0212878Y0005394D01*
X0213578Y0007085D01*
X0213578Y0014915D01*
X0212878Y0016606D01*
X0211584Y0017900D01*
X0211488Y0017940D01*
X0212478Y0018930D01*
X0212478Y0019759D01*
X0213323Y0019409D01*
X0214433Y0019409D01*
X0215459Y0019834D01*
X0216244Y0020619D01*
X0216669Y0021645D01*
X0216669Y0022755D01*
X0216244Y0023781D01*
X0215459Y0024566D01*
X0214433Y0024991D01*
X0213323Y0024991D01*
X0212298Y0024566D01*
X0212032Y0024300D01*
X0209508Y0024300D01*
X0208278Y0023070D01*
X0208278Y0021900D01*
X0205438Y0021900D01*
X0205214Y0022124D01*
X0204185Y0022550D01*
X0181419Y0022550D01*
X0181419Y0022805D01*
X0180994Y0023831D01*
X0180209Y0024616D01*
X0179183Y0025041D01*
X0178073Y0025041D01*
X0177048Y0024616D01*
X0176263Y0023831D01*
X0175838Y0022805D01*
X0175838Y0022543D01*
X0139529Y0022450D01*
X0137377Y0022450D01*
X0137344Y0022531D01*
X0136559Y0023316D01*
X0135533Y0023741D01*
X0134423Y0023741D01*
X0133398Y0023316D01*
X0132613Y0022531D01*
X0132579Y0022450D01*
X0099930Y0022450D01*
X0099544Y0023381D01*
X0099478Y0023446D01*
X0099478Y0023650D01*
X0099641Y0023650D01*
X0099678Y0023687D01*
X0099716Y0023650D01*
X0105641Y0023650D01*
X0106578Y0024587D01*
X0106578Y0032213D01*
X0105641Y0033150D01*
X0104431Y0033150D01*
X0103722Y0036143D01*
X0103727Y0036183D01*
X0103594Y0036683D01*
X0103475Y0037187D01*
X0103451Y0037220D01*
X0103074Y0038631D01*
X0103259Y0039077D01*
X0103259Y0040423D01*
X0102745Y0041665D01*
X0101794Y0042616D01*
X0100551Y0043131D01*
X0099206Y0043131D01*
X0097963Y0042616D01*
X0097012Y0041665D01*
X0096497Y0040423D01*
X0096497Y0039077D01*
X0097012Y0037835D01*
X0097665Y0037181D01*
X0098163Y0035317D01*
X0098676Y0033150D01*
X0093716Y0033150D01*
X0093678Y0033113D01*
X0093641Y0033150D01*
X0089725Y0033150D01*
X0089744Y0033169D01*
X0090169Y0034195D01*
X0090169Y0035305D01*
X0089744Y0036331D01*
X0088959Y0037116D01*
X0087933Y0037541D01*
X0086823Y0037541D01*
X0085798Y0037116D01*
X0085013Y0036331D01*
X0084588Y0035305D01*
X0084588Y0034195D01*
X0085013Y0033169D01*
X0085278Y0032904D01*
X0085278Y0028880D01*
X0086508Y0027650D01*
X0086778Y0027650D01*
X0086778Y0026460D01*
X0085100Y0024781D01*
X0085006Y0024781D01*
X0083763Y0024266D01*
X0082812Y0023315D01*
X0082297Y0022073D01*
X0082297Y0020727D01*
X0082812Y0019485D01*
X0083763Y0018534D01*
X0085006Y0018019D01*
X0086351Y0018019D01*
X0087594Y0018534D01*
X0088545Y0019485D01*
X0089059Y0020727D01*
X0089059Y0020821D01*
X0091888Y0023650D01*
X0093641Y0023650D01*
X0093678Y0023687D01*
X0093716Y0023650D01*
X0093878Y0023650D01*
X0093878Y0019093D01*
X0094305Y0018064D01*
X0095092Y0017276D01*
X0095627Y0017055D01*
X0095079Y0016506D01*
X0094378Y0014815D01*
X0094378Y0006985D01*
X0095079Y0005294D01*
X0095273Y0005100D01*
X0092684Y0005100D01*
X0092878Y0005294D01*
X0093578Y0006985D01*
X0093578Y0014815D01*
X0092878Y0016506D01*
X0091584Y0017800D01*
X0089893Y0018500D01*
X0088063Y0018500D01*
X0086373Y0017800D01*
X0085079Y0016506D01*
X0084378Y0014815D01*
X0084378Y0006985D01*
X0085079Y0005294D01*
X0085273Y0005100D01*
X0008978Y0005100D01*
X0008978Y0158750D01*
X0010078Y0158750D01*
X0010078Y0162950D01*
X0011178Y0162950D01*
X0011178Y0158750D01*
X0013139Y0158750D01*
X0013546Y0158859D01*
X0013553Y0158863D01*
X0013666Y0158750D01*
X0017418Y0158750D01*
X0018067Y0158101D01*
X0019096Y0157675D01*
X0021078Y0157675D01*
X0021078Y0156560D01*
X0021779Y0154869D01*
X0023073Y0153575D01*
X0023737Y0153300D01*
X0017202Y0153300D01*
X0017171Y0153312D01*
X0016646Y0153300D01*
X0016121Y0153300D01*
X0016091Y0153287D01*
X0016058Y0153287D01*
X0015577Y0153075D01*
X0015092Y0152874D01*
X0015069Y0152850D01*
X0015039Y0152837D01*
X0014676Y0152457D01*
X0014305Y0152086D01*
X0014292Y0152056D01*
X0010376Y0147957D01*
X0010005Y0147586D01*
X0009992Y0147556D01*
X0009969Y0147532D01*
X0009779Y0147042D01*
X0009578Y0146557D01*
X0009578Y0146524D01*
X0009566Y0146493D01*
X0009578Y0145968D01*
X0009578Y0019015D01*
X0009563Y0018975D01*
X0009578Y0018459D01*
X0009578Y0017943D01*
X0009594Y0017904D01*
X0009596Y0017862D01*
X0009807Y0017391D01*
X0010005Y0016914D01*
X0010034Y0016884D01*
X0010052Y0016845D01*
X0010427Y0016491D01*
X0010792Y0016126D01*
X0010831Y0016110D01*
X0014953Y0012221D01*
X0014953Y0009720D01*
X0017648Y0007025D01*
X0021459Y0007025D01*
X0024153Y0009720D01*
X0024153Y0013530D01*
X0021459Y0016225D01*
X0018870Y0016225D01*
X0018022Y0017025D01*
X0019153Y0017025D01*
X0019153Y0021225D01*
X0019953Y0021225D01*
X0019953Y0017025D01*
X0021459Y0017025D01*
X0024153Y0019720D01*
X0024153Y0021225D01*
X0019953Y0021225D01*
X0019953Y0022025D01*
X0019153Y0022025D01*
X0019153Y0026225D01*
X0017648Y0026225D01*
X0015178Y0023755D01*
X0015178Y0029495D01*
X0017648Y0027025D01*
X0021459Y0027025D01*
X0024153Y0029720D01*
X0024153Y0033530D01*
X0021459Y0036225D01*
X0017648Y0036225D01*
X0015178Y0033755D01*
X0015178Y0039495D01*
X0017648Y0037025D01*
X0021459Y0037025D01*
X0024153Y0039720D01*
X0024153Y0043530D01*
X0021459Y0046225D01*
X0017648Y0046225D01*
X0015178Y0043755D01*
X0015178Y0049495D01*
X0017648Y0047025D01*
X0019153Y0047025D01*
X0019153Y0051225D01*
X0019953Y0051225D01*
X0019953Y0047025D01*
X0021459Y0047025D01*
X0024153Y0049720D01*
X0024153Y0051225D01*
X0019953Y0051225D01*
X0019953Y0052025D01*
X0019153Y0052025D01*
X0019153Y0056225D01*
X0017648Y0056225D01*
X0015178Y0053755D01*
X0015178Y0059495D01*
X0017648Y0057025D01*
X0019153Y0057025D01*
X0019153Y0061225D01*
X0019953Y0061225D01*
X0019953Y0057025D01*
X0021459Y0057025D01*
X0024153Y0059720D01*
X0024153Y0061225D01*
X0019953Y0061225D01*
X0019953Y0062025D01*
X0019153Y0062025D01*
X0019153Y0066225D01*
X0017648Y0066225D01*
X0015178Y0063755D01*
X0015178Y0069495D01*
X0017648Y0067025D01*
X0021459Y0067025D01*
X0024153Y0069720D01*
X0024153Y0073530D01*
X0021459Y0076225D01*
X0017648Y0076225D01*
X0015178Y0073755D01*
X0015178Y0079495D01*
X0017573Y0077100D01*
X0021384Y0077100D01*
X0024078Y0079795D01*
X0024078Y0083605D01*
X0021384Y0086300D01*
X0017573Y0086300D01*
X0015178Y0083905D01*
X0015178Y0087499D02*
X0017174Y0087499D01*
X0015976Y0088697D02*
X0015178Y0088697D01*
X0009578Y0088697D02*
X0008978Y0088697D01*
X0008978Y0087499D02*
X0009578Y0087499D01*
X0009578Y0086300D02*
X0008978Y0086300D01*
X0008978Y0085102D02*
X0009578Y0085102D01*
X0009578Y0083903D02*
X0008978Y0083903D01*
X0008978Y0082705D02*
X0009578Y0082705D01*
X0009578Y0081506D02*
X0008978Y0081506D01*
X0008978Y0080308D02*
X0009578Y0080308D01*
X0009578Y0079109D02*
X0008978Y0079109D01*
X0008978Y0077911D02*
X0009578Y0077911D01*
X0009578Y0076712D02*
X0008978Y0076712D01*
X0008978Y0075514D02*
X0009578Y0075514D01*
X0009578Y0074315D02*
X0008978Y0074315D01*
X0008978Y0073117D02*
X0009578Y0073117D01*
X0009578Y0071918D02*
X0008978Y0071918D01*
X0008978Y0070720D02*
X0009578Y0070720D01*
X0009578Y0069521D02*
X0008978Y0069521D01*
X0008978Y0068323D02*
X0009578Y0068323D01*
X0009578Y0067124D02*
X0008978Y0067124D01*
X0008978Y0065926D02*
X0009578Y0065926D01*
X0009578Y0064727D02*
X0008978Y0064727D01*
X0008978Y0063529D02*
X0009578Y0063529D01*
X0009578Y0062330D02*
X0008978Y0062330D01*
X0008978Y0061132D02*
X0009578Y0061132D01*
X0009578Y0059933D02*
X0008978Y0059933D01*
X0008978Y0058734D02*
X0009578Y0058734D01*
X0009578Y0057536D02*
X0008978Y0057536D01*
X0008978Y0056337D02*
X0009578Y0056337D01*
X0009578Y0055139D02*
X0008978Y0055139D01*
X0008978Y0053940D02*
X0009578Y0053940D01*
X0009578Y0052742D02*
X0008978Y0052742D01*
X0008978Y0051543D02*
X0009578Y0051543D01*
X0009578Y0050345D02*
X0008978Y0050345D01*
X0008978Y0049146D02*
X0009578Y0049146D01*
X0009578Y0047948D02*
X0008978Y0047948D01*
X0008978Y0046749D02*
X0009578Y0046749D01*
X0009578Y0045551D02*
X0008978Y0045551D01*
X0008978Y0044352D02*
X0009578Y0044352D01*
X0009578Y0043154D02*
X0008978Y0043154D01*
X0008978Y0041955D02*
X0009578Y0041955D01*
X0009578Y0040757D02*
X0008978Y0040757D01*
X0008978Y0039558D02*
X0009578Y0039558D01*
X0009578Y0038360D02*
X0008978Y0038360D01*
X0008978Y0037161D02*
X0009578Y0037161D01*
X0009578Y0035963D02*
X0008978Y0035963D01*
X0008978Y0034764D02*
X0009578Y0034764D01*
X0009578Y0033566D02*
X0008978Y0033566D01*
X0008978Y0032367D02*
X0009578Y0032367D01*
X0009578Y0031169D02*
X0008978Y0031169D01*
X0008978Y0029970D02*
X0009578Y0029970D01*
X0009578Y0028772D02*
X0008978Y0028772D01*
X0008978Y0027573D02*
X0009578Y0027573D01*
X0009578Y0026375D02*
X0008978Y0026375D01*
X0008978Y0025176D02*
X0009578Y0025176D01*
X0009578Y0023978D02*
X0008978Y0023978D01*
X0008978Y0022779D02*
X0009578Y0022779D01*
X0009578Y0021581D02*
X0008978Y0021581D01*
X0008978Y0020382D02*
X0009578Y0020382D01*
X0009578Y0019184D02*
X0008978Y0019184D01*
X0008978Y0017985D02*
X0009578Y0017985D01*
X0010114Y0016787D02*
X0008978Y0016787D01*
X0008978Y0015588D02*
X0011385Y0015588D01*
X0012655Y0014390D02*
X0008978Y0014390D01*
X0008978Y0013191D02*
X0013925Y0013191D01*
X0014953Y0011993D02*
X0008978Y0011993D01*
X0008978Y0010794D02*
X0014953Y0010794D01*
X0015077Y0009596D02*
X0008978Y0009596D01*
X0008978Y0008397D02*
X0016276Y0008397D01*
X0017474Y0007199D02*
X0008978Y0007199D01*
X0008978Y0006000D02*
X0084786Y0006000D01*
X0084378Y0007199D02*
X0031632Y0007199D01*
X0031459Y0007025D02*
X0034153Y0009720D01*
X0034153Y0013530D01*
X0031459Y0016225D01*
X0027648Y0016225D01*
X0024953Y0013530D01*
X0024953Y0009720D01*
X0027648Y0007025D01*
X0031459Y0007025D01*
X0032831Y0008397D02*
X0084378Y0008397D01*
X0084378Y0009596D02*
X0034029Y0009596D01*
X0034153Y0010794D02*
X0084378Y0010794D01*
X0084378Y0011993D02*
X0034153Y0011993D01*
X0034153Y0013191D02*
X0084378Y0013191D01*
X0084378Y0014390D02*
X0033294Y0014390D01*
X0032096Y0015588D02*
X0084699Y0015588D01*
X0085360Y0016787D02*
X0073611Y0016787D01*
X0073644Y0016819D02*
X0074069Y0017845D01*
X0074069Y0018955D01*
X0073644Y0019981D01*
X0073378Y0020246D01*
X0073378Y0029470D01*
X0072148Y0030700D01*
X0062525Y0030700D01*
X0062259Y0030966D01*
X0061233Y0031391D01*
X0060123Y0031391D01*
X0059124Y0030977D01*
X0059397Y0031249D01*
X0059397Y0033064D01*
X0058335Y0034125D01*
X0059397Y0035186D01*
X0059397Y0037001D01*
X0058113Y0038284D01*
X0056299Y0038284D01*
X0055015Y0037001D01*
X0055015Y0036316D01*
X0053491Y0036316D01*
X0053491Y0037001D01*
X0052208Y0038284D01*
X0050393Y0038284D01*
X0049110Y0037001D01*
X0049110Y0035186D01*
X0050171Y0034125D01*
X0049110Y0033064D01*
X0049110Y0031249D01*
X0050393Y0029966D01*
X0052208Y0029966D01*
X0053491Y0031249D01*
X0053491Y0031934D01*
X0055015Y0031934D01*
X0055015Y0031249D01*
X0056299Y0029966D01*
X0058113Y0029966D01*
X0058302Y0030154D01*
X0057888Y0029155D01*
X0057888Y0028045D01*
X0058313Y0027019D01*
X0059098Y0026234D01*
X0060123Y0025809D01*
X0061233Y0025809D01*
X0062259Y0026234D01*
X0062525Y0026500D01*
X0069178Y0026500D01*
X0069178Y0020246D01*
X0068913Y0019981D01*
X0068488Y0018955D01*
X0068488Y0017845D01*
X0068913Y0016819D01*
X0069698Y0016034D01*
X0070723Y0015609D01*
X0071833Y0015609D01*
X0072859Y0016034D01*
X0073644Y0016819D01*
X0074069Y0017985D02*
X0086820Y0017985D01*
X0088244Y0019184D02*
X0093878Y0019184D01*
X0093878Y0020382D02*
X0088916Y0020382D01*
X0089819Y0021581D02*
X0093878Y0021581D01*
X0093878Y0022779D02*
X0091017Y0022779D01*
X0091136Y0017985D02*
X0094383Y0017985D01*
X0095360Y0016787D02*
X0092597Y0016787D01*
X0093258Y0015588D02*
X0094699Y0015588D01*
X0094378Y0014390D02*
X0093578Y0014390D01*
X0093578Y0013191D02*
X0094378Y0013191D01*
X0094378Y0011993D02*
X0093578Y0011993D01*
X0093578Y0010794D02*
X0094378Y0010794D01*
X0094378Y0009596D02*
X0093578Y0009596D01*
X0093578Y0008397D02*
X0094378Y0008397D01*
X0094378Y0007199D02*
X0093578Y0007199D01*
X0093170Y0006000D02*
X0094786Y0006000D01*
X0097928Y0019650D02*
X0096378Y0021950D01*
X0097178Y0021800D02*
X0097178Y0027900D01*
X0096678Y0028400D01*
X0098577Y0033566D02*
X0089908Y0033566D01*
X0090169Y0034764D02*
X0098293Y0034764D01*
X0097990Y0035963D02*
X0089896Y0035963D01*
X0088849Y0037161D02*
X0097671Y0037161D01*
X0096794Y0038360D02*
X0032793Y0038360D01*
X0031595Y0037161D02*
X0049270Y0037161D01*
X0049110Y0035963D02*
X0031721Y0035963D01*
X0031459Y0036225D02*
X0027648Y0036225D01*
X0024953Y0033530D01*
X0024953Y0029720D01*
X0027648Y0027025D01*
X0031459Y0027025D01*
X0034153Y0029720D01*
X0034153Y0033530D01*
X0031459Y0036225D01*
X0031459Y0037025D02*
X0027648Y0037025D01*
X0024953Y0039720D01*
X0024953Y0043530D01*
X0027648Y0046225D01*
X0031459Y0046225D01*
X0034153Y0043530D01*
X0034153Y0039720D01*
X0031459Y0037025D01*
X0032919Y0034764D02*
X0049532Y0034764D01*
X0049612Y0033566D02*
X0034118Y0033566D01*
X0034153Y0032367D02*
X0049110Y0032367D01*
X0049190Y0031169D02*
X0034153Y0031169D01*
X0034153Y0029970D02*
X0050389Y0029970D01*
X0052212Y0029970D02*
X0056294Y0029970D01*
X0055096Y0031169D02*
X0053411Y0031169D01*
X0057888Y0028772D02*
X0033205Y0028772D01*
X0032007Y0027573D02*
X0058083Y0027573D01*
X0058957Y0026375D02*
X0015178Y0026375D01*
X0015178Y0027573D02*
X0017100Y0027573D01*
X0015901Y0028772D02*
X0015178Y0028772D01*
X0015178Y0025176D02*
X0016599Y0025176D01*
X0015401Y0023978D02*
X0015178Y0023978D01*
X0019153Y0023978D02*
X0019953Y0023978D01*
X0019953Y0025176D02*
X0019153Y0025176D01*
X0019953Y0026225D02*
X0019953Y0022025D01*
X0024153Y0022025D01*
X0024153Y0023530D01*
X0021459Y0026225D01*
X0019953Y0026225D01*
X0022007Y0027573D02*
X0027100Y0027573D01*
X0027648Y0026225D02*
X0024953Y0023530D01*
X0024953Y0022025D01*
X0029153Y0022025D01*
X0029153Y0021225D01*
X0024953Y0021225D01*
X0024953Y0019720D01*
X0027648Y0017025D01*
X0029153Y0017025D01*
X0029153Y0021225D01*
X0029953Y0021225D01*
X0029953Y0017025D01*
X0031459Y0017025D01*
X0034153Y0019720D01*
X0034153Y0021225D01*
X0029953Y0021225D01*
X0029953Y0022025D01*
X0029153Y0022025D01*
X0029153Y0026225D01*
X0027648Y0026225D01*
X0026599Y0025176D02*
X0022507Y0025176D01*
X0023706Y0023978D02*
X0025401Y0023978D01*
X0024953Y0022779D02*
X0024153Y0022779D01*
X0024153Y0020382D02*
X0024953Y0020382D01*
X0025489Y0019184D02*
X0023617Y0019184D01*
X0022419Y0017985D02*
X0026688Y0017985D01*
X0027011Y0015588D02*
X0022096Y0015588D01*
X0023294Y0014390D02*
X0025812Y0014390D01*
X0024953Y0013191D02*
X0024153Y0013191D01*
X0024153Y0011993D02*
X0024953Y0011993D01*
X0024953Y0010794D02*
X0024153Y0010794D01*
X0024029Y0009596D02*
X0025077Y0009596D01*
X0026276Y0008397D02*
X0022831Y0008397D01*
X0021632Y0007199D02*
X0027474Y0007199D01*
X0018275Y0016787D02*
X0068945Y0016787D01*
X0068488Y0017985D02*
X0032419Y0017985D01*
X0033617Y0019184D02*
X0068582Y0019184D01*
X0069178Y0020382D02*
X0034153Y0020382D01*
X0034153Y0022025D02*
X0029953Y0022025D01*
X0029953Y0026225D01*
X0031459Y0026225D01*
X0034153Y0023530D01*
X0034153Y0022025D01*
X0034153Y0022779D02*
X0069178Y0022779D01*
X0069178Y0021581D02*
X0029953Y0021581D01*
X0029153Y0021581D02*
X0019953Y0021581D01*
X0019953Y0022779D02*
X0019153Y0022779D01*
X0019153Y0020382D02*
X0019953Y0020382D01*
X0019953Y0019184D02*
X0019153Y0019184D01*
X0019153Y0017985D02*
X0019953Y0017985D01*
X0029153Y0017985D02*
X0029953Y0017985D01*
X0029953Y0019184D02*
X0029153Y0019184D01*
X0029153Y0020382D02*
X0029953Y0020382D01*
X0029953Y0022779D02*
X0029153Y0022779D01*
X0029153Y0023978D02*
X0029953Y0023978D01*
X0029953Y0025176D02*
X0029153Y0025176D01*
X0032507Y0025176D02*
X0069178Y0025176D01*
X0069178Y0023978D02*
X0033706Y0023978D01*
X0025901Y0028772D02*
X0023205Y0028772D01*
X0024153Y0029970D02*
X0024953Y0029970D01*
X0024953Y0031169D02*
X0024153Y0031169D01*
X0024153Y0032367D02*
X0024953Y0032367D01*
X0024989Y0033566D02*
X0024118Y0033566D01*
X0022919Y0034764D02*
X0026187Y0034764D01*
X0027386Y0035963D02*
X0021721Y0035963D01*
X0021595Y0037161D02*
X0027512Y0037161D01*
X0026313Y0038360D02*
X0022793Y0038360D01*
X0023992Y0039558D02*
X0025115Y0039558D01*
X0024953Y0040757D02*
X0024153Y0040757D01*
X0024153Y0041955D02*
X0024953Y0041955D01*
X0024953Y0043154D02*
X0024153Y0043154D01*
X0023331Y0044352D02*
X0025775Y0044352D01*
X0026974Y0045551D02*
X0022133Y0045551D01*
X0022382Y0047948D02*
X0026725Y0047948D01*
X0027648Y0047025D02*
X0024953Y0049720D01*
X0024953Y0051225D01*
X0029153Y0051225D01*
X0029153Y0052025D01*
X0024953Y0052025D01*
X0024953Y0053530D01*
X0027648Y0056225D01*
X0029153Y0056225D01*
X0029153Y0052025D01*
X0029953Y0052025D01*
X0029953Y0056225D01*
X0031459Y0056225D01*
X0034153Y0053530D01*
X0034153Y0052025D01*
X0029953Y0052025D01*
X0029953Y0051225D01*
X0029953Y0047025D01*
X0031459Y0047025D01*
X0034153Y0049720D01*
X0034153Y0051225D01*
X0029953Y0051225D01*
X0029153Y0051225D01*
X0029153Y0047025D01*
X0027648Y0047025D01*
X0029153Y0047948D02*
X0029953Y0047948D01*
X0029953Y0049146D02*
X0029153Y0049146D01*
X0029153Y0050345D02*
X0029953Y0050345D01*
X0029953Y0051543D02*
X0054772Y0051543D01*
X0054778Y0051824D02*
X0054759Y0050979D01*
X0054778Y0050959D01*
X0054778Y0049446D01*
X0054513Y0049181D01*
X0054088Y0048155D01*
X0054088Y0047045D01*
X0054513Y0046019D01*
X0055298Y0045234D01*
X0056323Y0044809D01*
X0057433Y0044809D01*
X0058459Y0045234D01*
X0059244Y0046019D01*
X0059669Y0047045D01*
X0059669Y0048155D01*
X0059244Y0049181D01*
X0058978Y0049446D01*
X0058978Y0049651D01*
X0063588Y0049543D01*
X0063898Y0049234D01*
X0064923Y0048809D01*
X0066033Y0048809D01*
X0067059Y0049234D01*
X0067844Y0050019D01*
X0068269Y0051045D01*
X0068269Y0052155D01*
X0067844Y0053181D01*
X0067059Y0053966D01*
X0066033Y0054391D01*
X0064923Y0054391D01*
X0063898Y0053966D01*
X0063674Y0053743D01*
X0057768Y0053880D01*
X0057748Y0053900D01*
X0056903Y0053900D01*
X0056057Y0053920D01*
X0056037Y0053900D01*
X0056008Y0053900D01*
X0055411Y0053302D01*
X0054799Y0052718D01*
X0054798Y0052690D01*
X0054778Y0052670D01*
X0054778Y0051824D01*
X0054824Y0052742D02*
X0034153Y0052742D01*
X0033743Y0053940D02*
X0063872Y0053940D01*
X0067084Y0053940D02*
X0150002Y0053940D01*
X0150123Y0053991D02*
X0149098Y0053566D01*
X0148313Y0052781D01*
X0147888Y0051755D01*
X0147888Y0051182D01*
X0145917Y0048900D01*
X0132525Y0048900D01*
X0132259Y0049166D01*
X0131233Y0049591D01*
X0130123Y0049591D01*
X0129098Y0049166D01*
X0128313Y0048381D01*
X0127888Y0047355D01*
X0127888Y0046245D01*
X0128313Y0045219D01*
X0129098Y0044434D01*
X0130123Y0044009D01*
X0131233Y0044009D01*
X0132259Y0044434D01*
X0132525Y0044700D01*
X0134180Y0044700D01*
X0134098Y0044666D01*
X0133313Y0043881D01*
X0132888Y0042855D01*
X0132888Y0041745D01*
X0133313Y0040719D01*
X0133378Y0040654D01*
X0133378Y0031746D01*
X0133113Y0031481D01*
X0132688Y0030455D01*
X0132688Y0029345D01*
X0133113Y0028319D01*
X0133898Y0027534D01*
X0134923Y0027109D01*
X0136033Y0027109D01*
X0137059Y0027534D01*
X0137844Y0028319D01*
X0138269Y0029345D01*
X0138269Y0030455D01*
X0137844Y0031481D01*
X0137578Y0031746D01*
X0137578Y0040254D01*
X0138044Y0040719D01*
X0138469Y0041745D01*
X0138469Y0042855D01*
X0138044Y0043881D01*
X0137259Y0044666D01*
X0137176Y0044700D01*
X0146097Y0044700D01*
X0146164Y0044642D01*
X0146955Y0044700D01*
X0147748Y0044700D01*
X0147811Y0044763D01*
X0147899Y0044769D01*
X0148417Y0045369D01*
X0148978Y0045930D01*
X0148978Y0046019D01*
X0151043Y0048409D01*
X0151233Y0048409D01*
X0152259Y0048834D01*
X0153044Y0049619D01*
X0153469Y0050645D01*
X0153469Y0051755D01*
X0153044Y0052781D01*
X0152259Y0053566D01*
X0151233Y0053991D01*
X0150123Y0053991D01*
X0151354Y0053940D02*
X0207568Y0053940D01*
X0208766Y0052742D02*
X0153060Y0052742D01*
X0153469Y0051543D02*
X0209965Y0051543D01*
X0211164Y0050345D02*
X0153345Y0050345D01*
X0152571Y0049146D02*
X0212126Y0049146D01*
X0212088Y0049055D02*
X0212088Y0047945D01*
X0212513Y0046919D01*
X0212778Y0046654D01*
X0212778Y0037846D01*
X0212513Y0037581D01*
X0212088Y0036555D01*
X0212088Y0035445D01*
X0212513Y0034419D01*
X0213298Y0033634D01*
X0214323Y0033209D01*
X0215433Y0033209D01*
X0216459Y0033634D01*
X0217244Y0034419D01*
X0217378Y0034744D01*
X0217513Y0034419D01*
X0218298Y0033634D01*
X0219323Y0033209D01*
X0220433Y0033209D01*
X0221459Y0033634D01*
X0222244Y0034419D01*
X0222669Y0035445D01*
X0222669Y0036555D01*
X0222244Y0037581D01*
X0221978Y0037846D01*
X0221978Y0039154D01*
X0222244Y0039419D01*
X0222669Y0040445D01*
X0222669Y0041555D01*
X0222244Y0042581D01*
X0221459Y0043366D01*
X0220433Y0043791D01*
X0219323Y0043791D01*
X0218298Y0043366D01*
X0217513Y0042581D01*
X0217088Y0041555D01*
X0217088Y0040445D01*
X0217513Y0039419D01*
X0217778Y0039154D01*
X0217778Y0037846D01*
X0217513Y0037581D01*
X0217378Y0037256D01*
X0217244Y0037581D01*
X0216978Y0037846D01*
X0216978Y0046654D01*
X0217244Y0046919D01*
X0217669Y0047945D01*
X0217669Y0048900D01*
X0218008Y0048900D01*
X0232888Y0034021D01*
X0232888Y0033645D01*
X0233313Y0032619D01*
X0234098Y0031834D01*
X0235123Y0031409D01*
X0236233Y0031409D01*
X0237259Y0031834D01*
X0238044Y0032619D01*
X0238469Y0033645D01*
X0238469Y0034755D01*
X0238267Y0035242D01*
X0238644Y0035619D01*
X0239069Y0036645D01*
X0239069Y0037755D01*
X0238644Y0038781D01*
X0237859Y0039566D01*
X0236833Y0039991D01*
X0236458Y0039991D01*
X0235298Y0041150D01*
X0235334Y0041150D01*
X0235978Y0041794D01*
X0242228Y0048044D01*
X0242228Y0048956D01*
X0241584Y0049600D01*
X0229728Y0061456D01*
X0229728Y0065512D01*
X0236467Y0065191D01*
X0236508Y0065150D01*
X0237328Y0065150D01*
X0238147Y0065111D01*
X0238190Y0065150D01*
X0238248Y0065150D01*
X0238828Y0065730D01*
X0239435Y0066281D01*
X0239437Y0066339D01*
X0243550Y0070452D01*
X0243575Y0070043D01*
X0243513Y0069981D01*
X0243088Y0068955D01*
X0243088Y0067845D01*
X0243513Y0066819D01*
X0244298Y0066034D01*
X0245323Y0065609D01*
X0246433Y0065609D01*
X0247459Y0066034D01*
X0248244Y0066819D01*
X0248669Y0067845D01*
X0248669Y0068955D01*
X0248244Y0069981D01*
X0247970Y0070255D01*
X0247678Y0075067D01*
X0247678Y0075911D01*
X0247624Y0075966D01*
X0247619Y0076043D01*
X0246987Y0076603D01*
X0223442Y0100147D01*
X0222814Y0100790D01*
X0222800Y0100790D01*
X0222790Y0100800D01*
X0221890Y0100800D01*
X0205444Y0100981D01*
X0205259Y0101166D01*
X0204233Y0101591D01*
X0203123Y0101591D01*
X0202098Y0101166D01*
X0201313Y0100381D01*
X0200888Y0099355D01*
X0200888Y0098245D01*
X0201313Y0097219D01*
X0202098Y0096434D01*
X0203123Y0096009D01*
X0204233Y0096009D01*
X0205259Y0096434D01*
X0205406Y0096581D01*
X0217358Y0096450D01*
X0200201Y0079293D01*
X0200121Y0079287D01*
X0199594Y0078686D01*
X0199028Y0078120D01*
X0199028Y0078039D01*
X0198975Y0077978D01*
X0199028Y0077180D01*
X0199028Y0076380D01*
X0199085Y0076323D01*
X0199091Y0076242D01*
X0199693Y0075716D01*
X0200258Y0075150D01*
X0200339Y0075150D01*
X0209655Y0066999D01*
X0210160Y0066444D01*
X0210297Y0066437D01*
X0210400Y0066347D01*
X0211148Y0066397D01*
X0211278Y0066390D01*
X0211278Y0062706D01*
X0209514Y0060941D01*
X0197669Y0072420D01*
X0197669Y0072755D01*
X0197244Y0073781D01*
X0196459Y0074566D01*
X0195433Y0074991D01*
X0194323Y0074991D01*
X0193298Y0074566D01*
X0192513Y0073781D01*
X0192088Y0072755D01*
X0192088Y0071645D01*
X0192193Y0071391D01*
X0191123Y0071391D01*
X0190098Y0070966D01*
X0189313Y0070181D01*
X0188888Y0069155D01*
X0188888Y0068045D01*
X0189313Y0067019D01*
X0190098Y0066234D01*
X0191123Y0065809D01*
X0191499Y0065809D01*
X0193608Y0063700D01*
X0197808Y0063700D01*
X0212195Y0049314D01*
X0212088Y0049055D01*
X0212088Y0047948D02*
X0150644Y0047948D01*
X0149609Y0046749D02*
X0212682Y0046749D01*
X0212778Y0045551D02*
X0148599Y0045551D01*
X0146130Y0049146D02*
X0132278Y0049146D01*
X0129078Y0049146D02*
X0066847Y0049146D01*
X0067979Y0050345D02*
X0147165Y0050345D01*
X0147888Y0051543D02*
X0068269Y0051543D01*
X0068026Y0052742D02*
X0148297Y0052742D01*
X0137572Y0044352D02*
X0212778Y0044352D01*
X0212778Y0043154D02*
X0138345Y0043154D01*
X0138469Y0041955D02*
X0212778Y0041955D01*
X0212778Y0040757D02*
X0138060Y0040757D01*
X0137578Y0039558D02*
X0212778Y0039558D01*
X0212778Y0038360D02*
X0137578Y0038360D01*
X0137578Y0037161D02*
X0212339Y0037161D01*
X0212088Y0035963D02*
X0137578Y0035963D01*
X0137578Y0034764D02*
X0212370Y0034764D01*
X0213463Y0033566D02*
X0137578Y0033566D01*
X0137578Y0032367D02*
X0177543Y0032367D01*
X0177298Y0032266D02*
X0176513Y0031481D01*
X0176088Y0030455D01*
X0176088Y0029345D01*
X0176513Y0028319D01*
X0177298Y0027534D01*
X0178323Y0027109D01*
X0179433Y0027109D01*
X0180459Y0027534D01*
X0180725Y0027800D01*
X0195232Y0027800D01*
X0195498Y0027534D01*
X0196523Y0027109D01*
X0197633Y0027109D01*
X0198659Y0027534D01*
X0199444Y0028319D01*
X0199869Y0029345D01*
X0199869Y0030455D01*
X0199444Y0031481D01*
X0198659Y0032266D01*
X0197633Y0032691D01*
X0196523Y0032691D01*
X0195498Y0032266D01*
X0195232Y0032000D01*
X0180725Y0032000D01*
X0180459Y0032266D01*
X0179433Y0032691D01*
X0178323Y0032691D01*
X0177298Y0032266D01*
X0176383Y0031169D02*
X0137973Y0031169D01*
X0138269Y0029970D02*
X0176088Y0029970D01*
X0176325Y0028772D02*
X0138031Y0028772D01*
X0137098Y0027573D02*
X0177259Y0027573D01*
X0180498Y0027573D02*
X0195459Y0027573D01*
X0198698Y0027573D02*
X0247838Y0027573D01*
X0247838Y0027580D02*
X0247838Y0026470D01*
X0248228Y0025527D01*
X0248228Y0015748D01*
X0248594Y0014866D01*
X0250394Y0013066D01*
X0250394Y0013066D01*
X0251069Y0012390D01*
X0251951Y0012025D01*
X0259130Y0012025D01*
X0260073Y0011634D01*
X0261383Y0011634D01*
X0262409Y0012059D01*
X0263194Y0012844D01*
X0263619Y0013870D01*
X0263619Y0014980D01*
X0263194Y0016006D01*
X0262700Y0016500D01*
X0267591Y0016500D01*
X0268528Y0017437D01*
X0268528Y0030563D01*
X0267591Y0031500D01*
X0254466Y0031500D01*
X0253528Y0030563D01*
X0253528Y0017437D01*
X0254141Y0016825D01*
X0253422Y0016825D01*
X0253028Y0017219D01*
X0253028Y0025527D01*
X0253419Y0026470D01*
X0253419Y0027580D01*
X0252994Y0028606D01*
X0252209Y0029391D01*
X0251183Y0029816D01*
X0250073Y0029816D01*
X0249048Y0029391D01*
X0248263Y0028606D01*
X0247838Y0027580D01*
X0247877Y0026375D02*
X0106578Y0026375D01*
X0106578Y0027573D02*
X0133859Y0027573D01*
X0132925Y0028772D02*
X0106578Y0028772D01*
X0106578Y0029970D02*
X0132688Y0029970D01*
X0132983Y0031169D02*
X0106578Y0031169D01*
X0106424Y0032367D02*
X0133378Y0032367D01*
X0133378Y0033566D02*
X0104332Y0033566D01*
X0104048Y0034764D02*
X0133378Y0034764D01*
X0133378Y0035963D02*
X0103765Y0035963D01*
X0103481Y0037161D02*
X0133378Y0037161D01*
X0133378Y0038360D02*
X0103147Y0038360D01*
X0103259Y0039558D02*
X0133378Y0039558D01*
X0133297Y0040757D02*
X0103121Y0040757D01*
X0102455Y0041955D02*
X0132888Y0041955D01*
X0133012Y0043154D02*
X0034153Y0043154D01*
X0034153Y0041955D02*
X0097302Y0041955D01*
X0096636Y0040757D02*
X0034153Y0040757D01*
X0033992Y0039558D02*
X0096497Y0039558D01*
X0085908Y0037161D02*
X0059236Y0037161D01*
X0059397Y0035963D02*
X0084860Y0035963D01*
X0084588Y0034764D02*
X0058975Y0034764D01*
X0058895Y0033566D02*
X0084848Y0033566D01*
X0085278Y0032367D02*
X0059397Y0032367D01*
X0059316Y0031169D02*
X0059588Y0031169D01*
X0058225Y0029970D02*
X0058118Y0029970D01*
X0061769Y0031169D02*
X0085278Y0031169D01*
X0085278Y0029970D02*
X0072878Y0029970D01*
X0073378Y0028772D02*
X0085387Y0028772D01*
X0086778Y0027573D02*
X0073378Y0027573D01*
X0073378Y0026375D02*
X0086693Y0026375D01*
X0085495Y0025176D02*
X0073378Y0025176D01*
X0073378Y0023978D02*
X0083474Y0023978D01*
X0082590Y0022779D02*
X0073378Y0022779D01*
X0073378Y0021581D02*
X0082297Y0021581D01*
X0082440Y0020382D02*
X0073378Y0020382D01*
X0073974Y0019184D02*
X0083113Y0019184D01*
X0069178Y0026375D02*
X0062399Y0026375D01*
X0055176Y0037161D02*
X0053331Y0037161D01*
X0054981Y0045551D02*
X0032133Y0045551D01*
X0033331Y0044352D02*
X0129295Y0044352D01*
X0128175Y0045551D02*
X0058776Y0045551D01*
X0059546Y0046749D02*
X0127888Y0046749D01*
X0128133Y0047948D02*
X0059669Y0047948D01*
X0059258Y0049146D02*
X0064110Y0049146D01*
X0054778Y0050345D02*
X0034153Y0050345D01*
X0033580Y0049146D02*
X0054498Y0049146D01*
X0054088Y0047948D02*
X0032382Y0047948D01*
X0029153Y0051543D02*
X0019953Y0051543D01*
X0019953Y0052025D02*
X0024153Y0052025D01*
X0024153Y0053530D01*
X0021459Y0056225D01*
X0019953Y0056225D01*
X0019953Y0052025D01*
X0019953Y0052742D02*
X0019153Y0052742D01*
X0019153Y0053940D02*
X0019953Y0053940D01*
X0019953Y0055139D02*
X0019153Y0055139D01*
X0016562Y0055139D02*
X0015178Y0055139D01*
X0015178Y0056337D02*
X0205171Y0056337D01*
X0206369Y0055139D02*
X0032545Y0055139D01*
X0031459Y0057025D02*
X0034153Y0059720D01*
X0034153Y0061225D01*
X0029953Y0061225D01*
X0029953Y0057025D01*
X0031459Y0057025D01*
X0031970Y0057536D02*
X0203972Y0057536D01*
X0202774Y0058734D02*
X0033168Y0058734D01*
X0034153Y0059933D02*
X0201575Y0059933D01*
X0200377Y0061132D02*
X0034153Y0061132D01*
X0034153Y0062025D02*
X0029953Y0062025D01*
X0029153Y0062025D01*
X0029153Y0061225D01*
X0024953Y0061225D01*
X0024953Y0059720D01*
X0027648Y0057025D01*
X0029153Y0057025D01*
X0029153Y0061225D01*
X0029953Y0061225D01*
X0029953Y0062025D01*
X0029953Y0066225D01*
X0031459Y0066225D01*
X0034153Y0063530D01*
X0034153Y0062025D01*
X0034153Y0062330D02*
X0126402Y0062330D01*
X0126698Y0062034D02*
X0127723Y0061609D01*
X0128833Y0061609D01*
X0129859Y0062034D01*
X0130025Y0062200D01*
X0156592Y0062200D01*
X0156610Y0062183D01*
X0157500Y0062200D01*
X0158390Y0062200D01*
X0158407Y0062218D01*
X0158433Y0062218D01*
X0159049Y0062860D01*
X0159678Y0063489D01*
X0159678Y0063514D01*
X0167847Y0072009D01*
X0168033Y0072009D01*
X0169059Y0072434D01*
X0169844Y0073219D01*
X0170269Y0074245D01*
X0170269Y0075355D01*
X0169844Y0076381D01*
X0169059Y0077166D01*
X0168033Y0077591D01*
X0166923Y0077591D01*
X0166489Y0077411D01*
X0166669Y0077845D01*
X0166669Y0078955D01*
X0166244Y0079981D01*
X0165459Y0080766D01*
X0164433Y0081191D01*
X0163323Y0081191D01*
X0162298Y0080766D01*
X0161513Y0079981D01*
X0161088Y0078955D01*
X0161088Y0078721D01*
X0152167Y0069800D01*
X0133225Y0069800D01*
X0133059Y0069966D01*
X0132033Y0070391D01*
X0130923Y0070391D01*
X0129898Y0069966D01*
X0129113Y0069181D01*
X0128688Y0068155D01*
X0128688Y0067191D01*
X0127723Y0067191D01*
X0126698Y0066766D01*
X0125913Y0065981D01*
X0125488Y0064955D01*
X0125488Y0063845D01*
X0125913Y0062819D01*
X0126698Y0062034D01*
X0125619Y0063529D02*
X0094554Y0063529D01*
X0093352Y0063529D02*
X0034153Y0063529D01*
X0032957Y0064727D02*
X0091584Y0064727D01*
X0091163Y0065926D02*
X0050550Y0065926D01*
X0050644Y0066019D02*
X0050740Y0066252D01*
X0054744Y0070255D01*
X0055372Y0070795D01*
X0055494Y0070900D01*
X0055590Y0070900D01*
X0056175Y0071486D01*
X0056803Y0072025D01*
X0056811Y0072121D01*
X0056878Y0072189D01*
X0056878Y0072654D01*
X0057044Y0072819D01*
X0057469Y0073845D01*
X0057469Y0074955D01*
X0057044Y0075981D01*
X0056259Y0076766D01*
X0055233Y0077191D01*
X0054123Y0077191D01*
X0053098Y0076766D01*
X0052313Y0075981D01*
X0051888Y0074955D01*
X0051888Y0073845D01*
X0051953Y0073687D01*
X0051750Y0073484D01*
X0048150Y0070391D01*
X0047723Y0070391D01*
X0046698Y0069966D01*
X0045913Y0069181D01*
X0045488Y0068155D01*
X0045488Y0067045D01*
X0045913Y0066019D01*
X0046698Y0065234D01*
X0047723Y0064809D01*
X0048833Y0064809D01*
X0049859Y0065234D01*
X0050644Y0066019D01*
X0051612Y0067124D02*
X0091274Y0067124D01*
X0089034Y0068323D02*
X0052811Y0068323D01*
X0054009Y0069521D02*
X0088364Y0069521D01*
X0088313Y0070720D02*
X0055284Y0070720D01*
X0055372Y0070795D02*
X0055372Y0070795D01*
X0056678Y0071918D02*
X0088875Y0071918D01*
X0091103Y0070200D02*
X0108078Y0070200D01*
X0108278Y0070000D01*
X0110307Y0071918D02*
X0112355Y0071918D01*
X0112335Y0073117D02*
X0100955Y0073117D01*
X0102153Y0074315D02*
X0110983Y0074315D01*
X0110183Y0075514D02*
X0103352Y0075514D01*
X0104550Y0076712D02*
X0108586Y0076712D01*
X0110250Y0076712D02*
X0111381Y0076712D01*
X0111448Y0077911D02*
X0112580Y0077911D01*
X0113327Y0077911D02*
X0114458Y0077911D01*
X0114525Y0076712D02*
X0115657Y0076712D01*
X0115724Y0075514D02*
X0157881Y0075514D01*
X0159079Y0076712D02*
X0117321Y0076712D01*
X0118501Y0077911D02*
X0160278Y0077911D01*
X0161152Y0079109D02*
X0118783Y0079109D01*
X0120619Y0080308D02*
X0161840Y0080308D01*
X0163878Y0078400D02*
X0153078Y0067600D01*
X0131478Y0067600D01*
X0129453Y0069521D02*
X0117346Y0069521D01*
X0117869Y0070720D02*
X0153087Y0070720D01*
X0154285Y0071918D02*
X0117801Y0071918D01*
X0117108Y0073117D02*
X0155484Y0073117D01*
X0156682Y0074315D02*
X0114924Y0074315D01*
X0115078Y0071200D02*
X0110178Y0066300D01*
X0093953Y0066300D01*
X0096402Y0073117D02*
X0057167Y0073117D01*
X0057469Y0074315D02*
X0095878Y0074315D01*
X0095943Y0075514D02*
X0057237Y0075514D01*
X0056313Y0076712D02*
X0096631Y0076712D01*
X0097829Y0077911D02*
X0032194Y0077911D01*
X0031384Y0077100D02*
X0034078Y0079795D01*
X0034078Y0083605D01*
X0031384Y0086300D01*
X0027573Y0086300D01*
X0024878Y0083605D01*
X0024878Y0079795D01*
X0027573Y0077100D01*
X0031384Y0077100D01*
X0031459Y0076225D02*
X0027648Y0076225D01*
X0024953Y0073530D01*
X0024953Y0069720D01*
X0027648Y0067025D01*
X0031459Y0067025D01*
X0034153Y0069720D01*
X0034153Y0073530D01*
X0031459Y0076225D01*
X0032170Y0075514D02*
X0052119Y0075514D01*
X0051888Y0074315D02*
X0033369Y0074315D01*
X0034153Y0073117D02*
X0051322Y0073117D01*
X0049928Y0071918D02*
X0034153Y0071918D01*
X0034153Y0070720D02*
X0048533Y0070720D01*
X0046253Y0069521D02*
X0033955Y0069521D01*
X0032756Y0068323D02*
X0045557Y0068323D01*
X0045488Y0067124D02*
X0031558Y0067124D01*
X0031758Y0065926D02*
X0046006Y0065926D01*
X0048278Y0067600D02*
X0048977Y0067600D01*
X0053247Y0071870D01*
X0048278Y0067600D01*
X0053247Y0071870D02*
X0054678Y0073100D01*
X0054678Y0074400D01*
X0053044Y0076712D02*
X0015178Y0076712D01*
X0015178Y0075514D02*
X0016937Y0075514D01*
X0015738Y0074315D02*
X0015178Y0074315D01*
X0015178Y0077911D02*
X0016762Y0077911D01*
X0015564Y0079109D02*
X0015178Y0079109D01*
X0022194Y0077911D02*
X0026762Y0077911D01*
X0025564Y0079109D02*
X0023393Y0079109D01*
X0024078Y0080308D02*
X0024878Y0080308D01*
X0024878Y0081506D02*
X0024078Y0081506D01*
X0024078Y0082705D02*
X0024878Y0082705D01*
X0025176Y0083903D02*
X0023780Y0083903D01*
X0022582Y0085102D02*
X0026375Y0085102D01*
X0027174Y0087499D02*
X0021782Y0087499D01*
X0022981Y0088697D02*
X0025976Y0088697D01*
X0024878Y0089896D02*
X0024078Y0089896D01*
X0024078Y0091094D02*
X0024878Y0091094D01*
X0024878Y0092293D02*
X0024078Y0092293D01*
X0024078Y0093491D02*
X0024878Y0093491D01*
X0025963Y0094690D02*
X0022994Y0094690D01*
X0021795Y0095888D02*
X0027161Y0095888D01*
X0026688Y0097087D02*
X0015178Y0097087D01*
X0015178Y0098285D02*
X0026742Y0098285D01*
X0027416Y0099484D02*
X0015178Y0099484D01*
X0015178Y0100682D02*
X0032754Y0100682D01*
X0034763Y0101881D02*
X0015178Y0101881D01*
X0015178Y0103079D02*
X0062088Y0103079D01*
X0062551Y0101881D02*
X0038294Y0101881D01*
X0036528Y0099700D02*
X0030678Y0097600D01*
X0029478Y0097600D01*
X0029078Y0091094D02*
X0029878Y0091094D01*
X0029878Y0089896D02*
X0029078Y0089896D01*
X0029078Y0088697D02*
X0029878Y0088697D01*
X0029878Y0087499D02*
X0029078Y0087499D01*
X0032582Y0085102D02*
X0105020Y0085102D01*
X0103822Y0083903D02*
X0033780Y0083903D01*
X0034078Y0082705D02*
X0102623Y0082705D01*
X0101425Y0081506D02*
X0034078Y0081506D01*
X0034078Y0080308D02*
X0100226Y0080308D01*
X0099028Y0079109D02*
X0033393Y0079109D01*
X0026937Y0075514D02*
X0022170Y0075514D01*
X0023369Y0074315D02*
X0025738Y0074315D01*
X0024953Y0073117D02*
X0024153Y0073117D01*
X0024153Y0071918D02*
X0024953Y0071918D01*
X0024953Y0070720D02*
X0024153Y0070720D01*
X0023955Y0069521D02*
X0025152Y0069521D01*
X0026350Y0068323D02*
X0022756Y0068323D01*
X0021558Y0067124D02*
X0027549Y0067124D01*
X0027648Y0066225D02*
X0024953Y0063530D01*
X0024953Y0062025D01*
X0029153Y0062025D01*
X0029153Y0066225D01*
X0027648Y0066225D01*
X0027348Y0065926D02*
X0021758Y0065926D01*
X0021459Y0066225D02*
X0019953Y0066225D01*
X0019953Y0062025D01*
X0024153Y0062025D01*
X0024153Y0063530D01*
X0021459Y0066225D01*
X0019953Y0065926D02*
X0019153Y0065926D01*
X0019153Y0064727D02*
X0019953Y0064727D01*
X0019953Y0063529D02*
X0019153Y0063529D01*
X0019153Y0062330D02*
X0019953Y0062330D01*
X0019953Y0061132D02*
X0019153Y0061132D01*
X0019153Y0059933D02*
X0019953Y0059933D01*
X0019953Y0058734D02*
X0019153Y0058734D01*
X0019153Y0057536D02*
X0019953Y0057536D01*
X0021970Y0057536D02*
X0027137Y0057536D01*
X0025938Y0058734D02*
X0023168Y0058734D01*
X0024153Y0059933D02*
X0024953Y0059933D01*
X0024953Y0061132D02*
X0024153Y0061132D01*
X0024153Y0062330D02*
X0024953Y0062330D01*
X0024953Y0063529D02*
X0024153Y0063529D01*
X0022957Y0064727D02*
X0026150Y0064727D01*
X0029153Y0064727D02*
X0029953Y0064727D01*
X0029953Y0063529D02*
X0029153Y0063529D01*
X0029153Y0062330D02*
X0029953Y0062330D01*
X0029953Y0061132D02*
X0029153Y0061132D01*
X0029153Y0059933D02*
X0029953Y0059933D01*
X0029953Y0058734D02*
X0029153Y0058734D01*
X0029153Y0057536D02*
X0029953Y0057536D01*
X0029953Y0055139D02*
X0029153Y0055139D01*
X0029153Y0053940D02*
X0029953Y0053940D01*
X0029953Y0052742D02*
X0029153Y0052742D01*
X0026562Y0055139D02*
X0022545Y0055139D01*
X0023743Y0053940D02*
X0025363Y0053940D01*
X0024953Y0052742D02*
X0024153Y0052742D01*
X0024153Y0050345D02*
X0024953Y0050345D01*
X0025526Y0049146D02*
X0023580Y0049146D01*
X0019953Y0049146D02*
X0019153Y0049146D01*
X0019153Y0047948D02*
X0019953Y0047948D01*
X0019953Y0050345D02*
X0019153Y0050345D01*
X0016725Y0047948D02*
X0015178Y0047948D01*
X0015178Y0049146D02*
X0015526Y0049146D01*
X0015178Y0046749D02*
X0054210Y0046749D01*
X0029953Y0065926D02*
X0029153Y0065926D01*
X0017549Y0067124D02*
X0015178Y0067124D01*
X0015178Y0065926D02*
X0017348Y0065926D01*
X0016150Y0064727D02*
X0015178Y0064727D01*
X0015178Y0068323D02*
X0016350Y0068323D01*
X0015938Y0058734D02*
X0015178Y0058734D01*
X0015178Y0057536D02*
X0017137Y0057536D01*
X0015363Y0053940D02*
X0015178Y0053940D01*
X0015178Y0045551D02*
X0016974Y0045551D01*
X0015775Y0044352D02*
X0015178Y0044352D01*
X0015178Y0038360D02*
X0016313Y0038360D01*
X0015178Y0037161D02*
X0017512Y0037161D01*
X0017386Y0035963D02*
X0015178Y0035963D01*
X0015178Y0034764D02*
X0016187Y0034764D01*
X0093878Y0075400D02*
X0094678Y0075400D01*
X0094878Y0075200D01*
X0105749Y0077911D02*
X0107405Y0077911D01*
X0107124Y0079109D02*
X0106947Y0079109D01*
X0093678Y0086400D02*
X0091878Y0087000D01*
X0111001Y0070720D02*
X0111487Y0070720D01*
X0114114Y0067124D02*
X0127563Y0067124D01*
X0128757Y0068323D02*
X0115312Y0068323D01*
X0112915Y0065926D02*
X0125890Y0065926D01*
X0125488Y0064727D02*
X0111717Y0064727D01*
X0114878Y0061000D02*
X0122378Y0058500D01*
X0128278Y0064400D02*
X0157478Y0064400D01*
X0167478Y0074800D01*
X0169513Y0076712D02*
X0199028Y0076712D01*
X0198980Y0077911D02*
X0166669Y0077911D01*
X0166605Y0079109D02*
X0199965Y0079109D01*
X0201216Y0080308D02*
X0165917Y0080308D01*
X0170203Y0075514D02*
X0199895Y0075514D01*
X0201293Y0074315D02*
X0196710Y0074315D01*
X0197519Y0073117D02*
X0202663Y0073117D01*
X0204033Y0071918D02*
X0198187Y0071918D01*
X0199424Y0070720D02*
X0205403Y0070720D01*
X0206772Y0069521D02*
X0200660Y0069521D01*
X0201897Y0068323D02*
X0208142Y0068323D01*
X0209512Y0067124D02*
X0203134Y0067124D01*
X0204371Y0065926D02*
X0211278Y0065926D01*
X0211278Y0064727D02*
X0205607Y0064727D01*
X0206844Y0063529D02*
X0211278Y0063529D01*
X0210903Y0062330D02*
X0208081Y0062330D01*
X0209318Y0061132D02*
X0209704Y0061132D01*
X0199178Y0062330D02*
X0158540Y0062330D01*
X0159692Y0063529D02*
X0197980Y0063529D01*
X0192581Y0064727D02*
X0160845Y0064727D01*
X0161997Y0065926D02*
X0190843Y0065926D01*
X0189269Y0067124D02*
X0163150Y0067124D01*
X0164302Y0068323D02*
X0188888Y0068323D01*
X0189039Y0069521D02*
X0165454Y0069521D01*
X0166607Y0070720D02*
X0189851Y0070720D01*
X0192088Y0071918D02*
X0167759Y0071918D01*
X0169741Y0073117D02*
X0192238Y0073117D01*
X0193047Y0074315D02*
X0170269Y0074315D01*
X0144339Y0093491D02*
X0214400Y0093491D01*
X0213201Y0092293D02*
X0143141Y0092293D01*
X0141942Y0091094D02*
X0212003Y0091094D01*
X0210804Y0089896D02*
X0140744Y0089896D01*
X0139545Y0088697D02*
X0209606Y0088697D01*
X0208407Y0087499D02*
X0138347Y0087499D01*
X0137148Y0086300D02*
X0207209Y0086300D01*
X0206010Y0085102D02*
X0135950Y0085102D01*
X0134751Y0083903D02*
X0204812Y0083903D01*
X0203613Y0082705D02*
X0133553Y0082705D01*
X0132407Y0087499D02*
X0128038Y0087499D01*
X0127832Y0086300D02*
X0126909Y0086300D01*
X0127148Y0085102D02*
X0123121Y0085102D01*
X0123121Y0083903D02*
X0127088Y0083903D01*
X0127627Y0082705D02*
X0122790Y0082705D01*
X0122115Y0081506D02*
X0202415Y0081506D01*
X0215598Y0094690D02*
X0145538Y0094690D01*
X0146736Y0095888D02*
X0216797Y0095888D01*
X0221878Y0098600D02*
X0203678Y0098800D01*
X0201614Y0100682D02*
X0178331Y0100682D01*
X0179529Y0101881D02*
X0265070Y0101881D01*
X0264778Y0103079D02*
X0180728Y0103079D01*
X0181926Y0104278D02*
X0264778Y0104278D01*
X0265218Y0105476D02*
X0183125Y0105476D01*
X0183978Y0106675D02*
X0266048Y0106675D01*
X0267916Y0107873D02*
X0183978Y0107873D01*
X0183978Y0109072D02*
X0268048Y0109072D01*
X0266102Y0110270D02*
X0190864Y0110270D01*
X0192147Y0111469D02*
X0265241Y0111469D01*
X0264778Y0112668D02*
X0192469Y0112668D01*
X0193256Y0113866D02*
X0264778Y0113866D01*
X0265047Y0115065D02*
X0194454Y0115065D01*
X0195653Y0116263D02*
X0265636Y0116263D01*
X0266922Y0117462D02*
X0196851Y0117462D01*
X0198050Y0118660D02*
X0278278Y0118660D01*
X0278278Y0117462D02*
X0277835Y0117462D01*
X0278242Y0119859D02*
X0278278Y0119859D01*
X0278278Y0128248D02*
X0201141Y0128248D01*
X0199943Y0129447D02*
X0241087Y0129447D01*
X0240627Y0129637D02*
X0243385Y0128494D01*
X0246371Y0128494D01*
X0249130Y0129637D01*
X0251241Y0131748D01*
X0252384Y0134507D01*
X0252384Y0137493D01*
X0251241Y0140252D01*
X0249130Y0142363D01*
X0246371Y0143505D01*
X0243385Y0143505D01*
X0240627Y0142363D01*
X0238515Y0140252D01*
X0237373Y0137493D01*
X0237373Y0134507D01*
X0238515Y0131748D01*
X0240627Y0129637D01*
X0239619Y0130645D02*
X0198744Y0130645D01*
X0197546Y0131844D02*
X0238476Y0131844D01*
X0237980Y0133042D02*
X0196347Y0133042D01*
X0195149Y0134241D02*
X0237483Y0134241D01*
X0237373Y0135439D02*
X0193950Y0135439D01*
X0192752Y0136638D02*
X0237373Y0136638D01*
X0237515Y0137836D02*
X0187378Y0137836D01*
X0187378Y0139035D02*
X0238011Y0139035D01*
X0238508Y0140233D02*
X0186215Y0140233D01*
X0189278Y0134800D02*
X0191478Y0134800D01*
X0201278Y0125000D01*
X0189478Y0113200D01*
X0189278Y0113200D01*
X0189678Y0112800D01*
X0188493Y0110270D02*
X0183978Y0110270D01*
X0183779Y0111469D02*
X0187209Y0111469D01*
X0186888Y0112668D02*
X0182581Y0112668D01*
X0181382Y0113866D02*
X0187078Y0113866D01*
X0187996Y0115065D02*
X0180184Y0115065D01*
X0178985Y0116263D02*
X0189430Y0116263D01*
X0190629Y0117462D02*
X0177978Y0117462D01*
X0177978Y0118660D02*
X0191827Y0118660D01*
X0193026Y0119859D02*
X0177978Y0119859D01*
X0177978Y0121057D02*
X0194224Y0121057D01*
X0195423Y0122256D02*
X0177978Y0122256D01*
X0178702Y0123454D02*
X0196621Y0123454D01*
X0197820Y0124653D02*
X0179901Y0124653D01*
X0181099Y0125851D02*
X0197316Y0125851D01*
X0196117Y0127050D02*
X0183013Y0127050D01*
X0184339Y0128248D02*
X0184484Y0128248D01*
X0188873Y0128248D02*
X0194919Y0128248D01*
X0193720Y0129447D02*
X0189469Y0129447D01*
X0189432Y0130645D02*
X0192522Y0130645D01*
X0191323Y0131844D02*
X0188781Y0131844D01*
X0202340Y0127050D02*
X0266423Y0127050D01*
X0265373Y0125851D02*
X0203478Y0125851D01*
X0203478Y0124653D02*
X0264877Y0124653D01*
X0264778Y0123454D02*
X0202844Y0123454D01*
X0201645Y0122256D02*
X0264915Y0122256D01*
X0265411Y0121057D02*
X0200447Y0121057D01*
X0199248Y0119859D02*
X0266514Y0119859D01*
X0267144Y0129447D02*
X0248670Y0129447D01*
X0250138Y0130645D02*
X0265728Y0130645D01*
X0265085Y0131844D02*
X0251281Y0131844D01*
X0251777Y0133042D02*
X0264778Y0133042D01*
X0264778Y0134241D02*
X0252273Y0134241D01*
X0252384Y0135439D02*
X0265203Y0135439D01*
X0266011Y0136638D02*
X0252384Y0136638D01*
X0252242Y0137836D02*
X0267827Y0137836D01*
X0268138Y0139035D02*
X0251745Y0139035D01*
X0251249Y0140233D02*
X0266140Y0140233D01*
X0265256Y0141432D02*
X0250061Y0141432D01*
X0248484Y0142630D02*
X0264778Y0142630D01*
X0264778Y0143829D02*
X0161654Y0143829D01*
X0161725Y0143900D02*
X0163248Y0143900D01*
X0164478Y0145130D01*
X0167558Y0148209D01*
X0167933Y0148209D01*
X0168959Y0148634D01*
X0169744Y0149419D01*
X0170169Y0150445D01*
X0170169Y0151555D01*
X0169744Y0152581D01*
X0168959Y0153366D01*
X0167933Y0153791D01*
X0166823Y0153791D01*
X0165798Y0153366D01*
X0165013Y0152581D01*
X0164588Y0151555D01*
X0164588Y0151179D01*
X0161617Y0148208D01*
X0161459Y0148366D01*
X0160433Y0148791D01*
X0159323Y0148791D01*
X0158298Y0148366D01*
X0157513Y0147581D01*
X0157088Y0146555D01*
X0157088Y0145445D01*
X0157513Y0144419D01*
X0158298Y0143634D01*
X0159323Y0143209D01*
X0160433Y0143209D01*
X0161459Y0143634D01*
X0161725Y0143900D01*
X0164375Y0145027D02*
X0265032Y0145027D01*
X0265599Y0146226D02*
X0165574Y0146226D01*
X0166772Y0147424D02*
X0266832Y0147424D01*
X0266552Y0149821D02*
X0169911Y0149821D01*
X0170169Y0151020D02*
X0265427Y0151020D01*
X0264930Y0152218D02*
X0169894Y0152218D01*
X0168835Y0153417D02*
X0188922Y0153417D01*
X0190834Y0153417D02*
X0198922Y0153417D01*
X0200834Y0153417D02*
X0208922Y0153417D01*
X0210834Y0153417D02*
X0218922Y0153417D01*
X0220834Y0153417D02*
X0228922Y0153417D01*
X0230834Y0153417D02*
X0238922Y0153417D01*
X0240834Y0153417D02*
X0248922Y0153417D01*
X0250834Y0153417D02*
X0258922Y0153417D01*
X0260834Y0153417D02*
X0264778Y0153417D01*
X0264861Y0154615D02*
X0262999Y0154615D01*
X0263952Y0155814D02*
X0265358Y0155814D01*
X0264448Y0157012D02*
X0266385Y0157012D01*
X0264478Y0158211D02*
X0278278Y0158211D01*
X0278278Y0159409D02*
X0264478Y0159409D01*
X0264478Y0160608D02*
X0278278Y0160608D01*
X0278278Y0161806D02*
X0264478Y0161806D01*
X0264478Y0163005D02*
X0278278Y0163005D01*
X0278278Y0164203D02*
X0264478Y0164203D01*
X0264277Y0165402D02*
X0278278Y0165402D01*
X0278278Y0166601D02*
X0263780Y0166601D01*
X0255976Y0166601D02*
X0253780Y0166601D01*
X0254277Y0165402D02*
X0255480Y0165402D01*
X0255278Y0164203D02*
X0254478Y0164203D01*
X0254478Y0163005D02*
X0255278Y0163005D01*
X0255278Y0161806D02*
X0254478Y0161806D01*
X0254478Y0160608D02*
X0255278Y0160608D01*
X0255278Y0159409D02*
X0254478Y0159409D01*
X0254478Y0158211D02*
X0255278Y0158211D01*
X0255308Y0157012D02*
X0254448Y0157012D01*
X0253952Y0155814D02*
X0255805Y0155814D01*
X0256757Y0154615D02*
X0252999Y0154615D01*
X0246757Y0154615D02*
X0242999Y0154615D01*
X0243952Y0155814D02*
X0245805Y0155814D01*
X0245308Y0157012D02*
X0244448Y0157012D01*
X0244478Y0158211D02*
X0245278Y0158211D01*
X0245278Y0159409D02*
X0244478Y0159409D01*
X0244478Y0160608D02*
X0245278Y0160608D01*
X0245278Y0161806D02*
X0244478Y0161806D01*
X0244478Y0163005D02*
X0245278Y0163005D01*
X0245278Y0164203D02*
X0244478Y0164203D01*
X0244277Y0165402D02*
X0245480Y0165402D01*
X0245976Y0166601D02*
X0243780Y0166601D01*
X0235976Y0166601D02*
X0233780Y0166601D01*
X0234277Y0165402D02*
X0235480Y0165402D01*
X0235278Y0164203D02*
X0234478Y0164203D01*
X0234478Y0163005D02*
X0235278Y0163005D01*
X0235278Y0161806D02*
X0234478Y0161806D01*
X0234478Y0160608D02*
X0235278Y0160608D01*
X0235278Y0159409D02*
X0234478Y0159409D01*
X0234478Y0158211D02*
X0235278Y0158211D01*
X0235308Y0157012D02*
X0234448Y0157012D01*
X0233952Y0155814D02*
X0235805Y0155814D01*
X0236757Y0154615D02*
X0232999Y0154615D01*
X0226757Y0154615D02*
X0222999Y0154615D01*
X0223952Y0155814D02*
X0225805Y0155814D01*
X0225308Y0157012D02*
X0224448Y0157012D01*
X0224478Y0158211D02*
X0225278Y0158211D01*
X0225278Y0159409D02*
X0224478Y0159409D01*
X0224478Y0160608D02*
X0225278Y0160608D01*
X0225278Y0161806D02*
X0224478Y0161806D01*
X0224478Y0163005D02*
X0225278Y0163005D01*
X0225278Y0164203D02*
X0224478Y0164203D01*
X0224277Y0165402D02*
X0225480Y0165402D01*
X0225976Y0166601D02*
X0223780Y0166601D01*
X0215976Y0166601D02*
X0213780Y0166601D01*
X0214277Y0165402D02*
X0215480Y0165402D01*
X0215278Y0164203D02*
X0214478Y0164203D01*
X0214478Y0163005D02*
X0215278Y0163005D01*
X0215278Y0161806D02*
X0214478Y0161806D01*
X0214478Y0160608D02*
X0215278Y0160608D01*
X0215278Y0159409D02*
X0214478Y0159409D01*
X0214478Y0158211D02*
X0215278Y0158211D01*
X0215308Y0157012D02*
X0214448Y0157012D01*
X0213952Y0155814D02*
X0215805Y0155814D01*
X0216757Y0154615D02*
X0212999Y0154615D01*
X0206757Y0154615D02*
X0202999Y0154615D01*
X0203952Y0155814D02*
X0205805Y0155814D01*
X0205308Y0157012D02*
X0204448Y0157012D01*
X0204478Y0158211D02*
X0205278Y0158211D01*
X0205278Y0159409D02*
X0204478Y0159409D01*
X0204478Y0160608D02*
X0205278Y0160608D01*
X0205278Y0161806D02*
X0204478Y0161806D01*
X0204478Y0163005D02*
X0205278Y0163005D01*
X0205278Y0164203D02*
X0204478Y0164203D01*
X0204277Y0165402D02*
X0205480Y0165402D01*
X0205976Y0166601D02*
X0203780Y0166601D01*
X0195976Y0166601D02*
X0193780Y0166601D01*
X0194277Y0165402D02*
X0195480Y0165402D01*
X0195278Y0164203D02*
X0194478Y0164203D01*
X0194478Y0163005D02*
X0195278Y0163005D01*
X0195278Y0161806D02*
X0194478Y0161806D01*
X0194478Y0160608D02*
X0195278Y0160608D01*
X0195278Y0159409D02*
X0194478Y0159409D01*
X0194478Y0158211D02*
X0195278Y0158211D01*
X0195308Y0157012D02*
X0194448Y0157012D01*
X0193952Y0155814D02*
X0195805Y0155814D01*
X0196757Y0154615D02*
X0192999Y0154615D01*
X0186757Y0154615D02*
X0149324Y0154615D01*
X0149969Y0155814D02*
X0185805Y0155814D01*
X0185308Y0157012D02*
X0150278Y0157012D01*
X0150278Y0158211D02*
X0185278Y0158211D01*
X0185278Y0159409D02*
X0150278Y0159409D01*
X0150278Y0160608D02*
X0185278Y0160608D01*
X0185278Y0161806D02*
X0150278Y0161806D01*
X0150278Y0163005D02*
X0185278Y0163005D01*
X0185278Y0164203D02*
X0150278Y0164203D01*
X0149859Y0165402D02*
X0185480Y0165402D01*
X0185976Y0166601D02*
X0149058Y0166601D01*
X0142298Y0166601D02*
X0139058Y0166601D01*
X0139859Y0165402D02*
X0141497Y0165402D01*
X0141078Y0164203D02*
X0140220Y0164203D01*
X0140278Y0163005D02*
X0141078Y0163005D01*
X0141078Y0161806D02*
X0140278Y0161806D01*
X0141078Y0160608D02*
X0136078Y0160608D01*
X0135278Y0160608D02*
X0130278Y0160608D01*
X0130278Y0161806D02*
X0131078Y0161806D01*
X0131078Y0163005D02*
X0130278Y0163005D01*
X0130278Y0164203D02*
X0131136Y0164203D01*
X0131497Y0165402D02*
X0129859Y0165402D01*
X0129058Y0166601D02*
X0132298Y0166601D01*
X0131078Y0159409D02*
X0130278Y0159409D01*
X0130278Y0158211D02*
X0131078Y0158211D01*
X0131094Y0157012D02*
X0130278Y0157012D01*
X0129969Y0155814D02*
X0131381Y0155814D01*
X0132070Y0154615D02*
X0129324Y0154615D01*
X0129323Y0153791D02*
X0128298Y0153366D01*
X0127513Y0152581D01*
X0127088Y0151555D01*
X0127088Y0150445D01*
X0127513Y0149419D01*
X0128298Y0148634D01*
X0129323Y0148209D01*
X0130433Y0148209D01*
X0131459Y0148634D01*
X0131617Y0148792D01*
X0134588Y0145821D01*
X0134588Y0145445D01*
X0135013Y0144419D01*
X0135798Y0143634D01*
X0136823Y0143209D01*
X0137933Y0143209D01*
X0138959Y0143634D01*
X0139744Y0144419D01*
X0140169Y0145445D01*
X0140169Y0146555D01*
X0139744Y0147581D01*
X0138959Y0148366D01*
X0137933Y0148791D01*
X0137558Y0148791D01*
X0134478Y0151870D01*
X0133248Y0153100D01*
X0131725Y0153100D01*
X0131459Y0153366D01*
X0130433Y0153791D01*
X0129323Y0153791D01*
X0128421Y0153417D02*
X0127902Y0153417D01*
X0127362Y0152218D02*
X0125056Y0152218D01*
X0123858Y0151020D02*
X0127088Y0151020D01*
X0127346Y0149821D02*
X0122659Y0149821D01*
X0121456Y0148623D02*
X0128325Y0148623D01*
X0131431Y0148623D02*
X0131786Y0148623D01*
X0132984Y0147424D02*
X0112024Y0147424D01*
X0113222Y0146226D02*
X0134183Y0146226D01*
X0134761Y0145027D02*
X0114421Y0145027D01*
X0115619Y0143829D02*
X0135603Y0143829D01*
X0139154Y0143829D02*
X0158103Y0143829D01*
X0157261Y0145027D02*
X0139996Y0145027D01*
X0140169Y0146226D02*
X0157088Y0146226D01*
X0157448Y0147424D02*
X0139809Y0147424D01*
X0138338Y0148623D02*
X0158918Y0148623D01*
X0160838Y0148623D02*
X0162031Y0148623D01*
X0163230Y0149821D02*
X0136527Y0149821D01*
X0135328Y0151020D02*
X0164428Y0151020D01*
X0164863Y0152218D02*
X0134130Y0152218D01*
X0133510Y0153417D02*
X0131335Y0153417D01*
X0135278Y0153417D02*
X0136078Y0153417D01*
X0136078Y0154615D02*
X0135278Y0154615D01*
X0135278Y0155814D02*
X0136078Y0155814D01*
X0136078Y0157012D02*
X0135278Y0157012D01*
X0135278Y0158211D02*
X0136078Y0158211D01*
X0136078Y0159409D02*
X0135278Y0159409D01*
X0140278Y0159409D02*
X0141078Y0159409D01*
X0141078Y0158211D02*
X0140278Y0158211D01*
X0140262Y0157012D02*
X0141078Y0157012D01*
X0141387Y0155814D02*
X0139975Y0155814D01*
X0139287Y0154615D02*
X0142032Y0154615D01*
X0143455Y0153417D02*
X0137846Y0153417D01*
X0147902Y0153417D02*
X0165921Y0153417D01*
X0168931Y0148623D02*
X0278278Y0148623D01*
X0278278Y0149821D02*
X0278205Y0149821D01*
X0278278Y0147424D02*
X0277924Y0147424D01*
X0278278Y0139035D02*
X0276619Y0139035D01*
X0276930Y0137836D02*
X0278278Y0137836D01*
X0278278Y0129447D02*
X0277613Y0129447D01*
X0278278Y0109072D02*
X0276708Y0109072D01*
X0276840Y0107873D02*
X0278278Y0107873D01*
X0278278Y0099484D02*
X0277703Y0099484D01*
X0278278Y0098285D02*
X0225304Y0098285D01*
X0226503Y0097087D02*
X0266460Y0097087D01*
X0265389Y0095888D02*
X0227701Y0095888D01*
X0228900Y0094690D02*
X0264892Y0094690D01*
X0264778Y0093491D02*
X0230098Y0093491D01*
X0231297Y0092293D02*
X0264899Y0092293D01*
X0265396Y0091094D02*
X0232495Y0091094D01*
X0233694Y0089896D02*
X0266477Y0089896D01*
X0267012Y0087499D02*
X0236091Y0087499D01*
X0237289Y0086300D02*
X0265673Y0086300D01*
X0265063Y0085102D02*
X0238488Y0085102D01*
X0239686Y0083903D02*
X0264778Y0083903D01*
X0264778Y0082705D02*
X0240885Y0082705D01*
X0242083Y0081506D02*
X0265225Y0081506D01*
X0266065Y0080308D02*
X0243282Y0080308D01*
X0244480Y0079109D02*
X0267958Y0079109D01*
X0268006Y0077911D02*
X0245679Y0077911D01*
X0246877Y0076712D02*
X0266085Y0076712D01*
X0265233Y0075514D02*
X0247678Y0075514D01*
X0247724Y0074315D02*
X0264778Y0074315D01*
X0264778Y0073117D02*
X0247796Y0073117D01*
X0247869Y0071918D02*
X0265055Y0071918D01*
X0265653Y0070720D02*
X0247942Y0070720D01*
X0248434Y0069521D02*
X0266964Y0069521D01*
X0266497Y0067124D02*
X0248370Y0067124D01*
X0248669Y0068323D02*
X0278278Y0068323D01*
X0278278Y0069521D02*
X0277793Y0069521D01*
X0278260Y0067124D02*
X0278278Y0067124D01*
X0278278Y0058734D02*
X0232449Y0058734D01*
X0233648Y0057536D02*
X0267102Y0057536D01*
X0265710Y0056337D02*
X0234846Y0056337D01*
X0236045Y0055139D02*
X0265078Y0055139D01*
X0264778Y0053940D02*
X0237243Y0053940D01*
X0238442Y0052742D02*
X0264778Y0052742D01*
X0265210Y0051543D02*
X0239640Y0051543D01*
X0240839Y0050345D02*
X0266028Y0050345D01*
X0267868Y0049146D02*
X0242037Y0049146D01*
X0242132Y0047948D02*
X0278278Y0047948D01*
X0278278Y0049146D02*
X0276888Y0049146D01*
X0278278Y0046749D02*
X0240933Y0046749D01*
X0239735Y0045551D02*
X0278278Y0045551D01*
X0278278Y0044352D02*
X0238536Y0044352D01*
X0237338Y0043154D02*
X0278278Y0043154D01*
X0278278Y0041955D02*
X0236139Y0041955D01*
X0235691Y0040757D02*
X0278278Y0040757D01*
X0278278Y0039558D02*
X0237866Y0039558D01*
X0238818Y0038360D02*
X0278278Y0038360D01*
X0278278Y0037161D02*
X0239069Y0037161D01*
X0238786Y0035963D02*
X0278278Y0035963D01*
X0278278Y0034764D02*
X0238465Y0034764D01*
X0238436Y0033566D02*
X0278278Y0033566D01*
X0278278Y0032367D02*
X0237792Y0032367D01*
X0233565Y0032367D02*
X0198414Y0032367D01*
X0199573Y0031169D02*
X0254134Y0031169D01*
X0253528Y0029970D02*
X0199869Y0029970D01*
X0199631Y0028772D02*
X0248429Y0028772D01*
X0248228Y0025176D02*
X0106578Y0025176D01*
X0105969Y0023978D02*
X0176410Y0023978D01*
X0175838Y0022779D02*
X0137096Y0022779D01*
X0134978Y0020950D02*
X0138278Y0019650D01*
X0132861Y0022779D02*
X0099793Y0022779D01*
X0132061Y0044352D02*
X0133784Y0044352D01*
X0124878Y0051000D02*
X0118628Y0051000D01*
X0128534Y0088697D02*
X0133606Y0088697D01*
X0134804Y0089896D02*
X0128689Y0089896D01*
X0130912Y0091094D02*
X0136003Y0091094D01*
X0137201Y0092293D02*
X0132901Y0092293D01*
X0147935Y0097087D02*
X0170456Y0097087D01*
X0167213Y0098285D02*
X0149133Y0098285D01*
X0150332Y0099484D02*
X0163970Y0099484D01*
X0160727Y0100682D02*
X0151531Y0100682D01*
X0152729Y0101881D02*
X0157484Y0101881D01*
X0154241Y0103079D02*
X0153928Y0103079D01*
X0174735Y0097087D02*
X0201445Y0097087D01*
X0200888Y0098285D02*
X0175934Y0098285D01*
X0177132Y0099484D02*
X0200941Y0099484D01*
X0221878Y0098600D02*
X0245478Y0075000D01*
X0245878Y0068400D01*
X0243322Y0069521D02*
X0242619Y0069521D01*
X0243088Y0068323D02*
X0241421Y0068323D01*
X0240222Y0067124D02*
X0243386Y0067124D01*
X0244560Y0065926D02*
X0239043Y0065926D01*
X0237478Y0070800D02*
X0236678Y0070800D01*
X0229728Y0064727D02*
X0264908Y0064727D01*
X0264778Y0063529D02*
X0229728Y0063529D01*
X0229728Y0062330D02*
X0264884Y0062330D01*
X0265380Y0061132D02*
X0230052Y0061132D01*
X0231251Y0059933D02*
X0266440Y0059933D01*
X0265404Y0065926D02*
X0247197Y0065926D01*
X0245478Y0054800D02*
X0241478Y0054800D01*
X0240878Y0054200D01*
X0223755Y0043154D02*
X0221671Y0043154D01*
X0222503Y0041955D02*
X0224953Y0041955D01*
X0226152Y0040757D02*
X0222669Y0040757D01*
X0222302Y0039558D02*
X0227350Y0039558D01*
X0228549Y0038360D02*
X0221978Y0038360D01*
X0222418Y0037161D02*
X0229747Y0037161D01*
X0230946Y0035963D02*
X0222669Y0035963D01*
X0222387Y0034764D02*
X0232144Y0034764D01*
X0232921Y0033566D02*
X0221294Y0033566D01*
X0218463Y0033566D02*
X0216294Y0033566D01*
X0216978Y0038360D02*
X0217778Y0038360D01*
X0217455Y0039558D02*
X0216978Y0039558D01*
X0216978Y0040757D02*
X0217088Y0040757D01*
X0216978Y0041955D02*
X0217254Y0041955D01*
X0216978Y0043154D02*
X0218086Y0043154D01*
X0216978Y0044352D02*
X0222556Y0044352D01*
X0221358Y0045551D02*
X0216978Y0045551D01*
X0217074Y0046749D02*
X0220159Y0046749D01*
X0218961Y0047948D02*
X0217669Y0047948D01*
X0195743Y0032367D02*
X0180214Y0032367D01*
X0180847Y0023978D02*
X0209186Y0023978D01*
X0208278Y0022779D02*
X0181419Y0022779D01*
X0178628Y0022250D02*
X0178628Y0019750D01*
X0211533Y0017985D02*
X0216579Y0017985D01*
X0215260Y0016787D02*
X0212697Y0016787D01*
X0213299Y0015588D02*
X0214657Y0015588D01*
X0214378Y0014390D02*
X0213578Y0014390D01*
X0213578Y0013191D02*
X0214378Y0013191D01*
X0214378Y0011993D02*
X0213578Y0011993D01*
X0213578Y0010794D02*
X0214378Y0010794D01*
X0214378Y0009596D02*
X0213578Y0009596D01*
X0213578Y0008397D02*
X0214378Y0008397D01*
X0214378Y0007199D02*
X0213578Y0007199D01*
X0213129Y0006000D02*
X0214828Y0006000D01*
X0223129Y0006000D02*
X0224828Y0006000D01*
X0224378Y0007199D02*
X0223578Y0007199D01*
X0223578Y0008397D02*
X0224378Y0008397D01*
X0224378Y0009596D02*
X0223578Y0009596D01*
X0223578Y0010794D02*
X0224378Y0010794D01*
X0224378Y0011993D02*
X0223578Y0011993D01*
X0223578Y0013191D02*
X0224378Y0013191D01*
X0224378Y0014390D02*
X0223578Y0014390D01*
X0223299Y0015588D02*
X0224657Y0015588D01*
X0225260Y0016787D02*
X0222697Y0016787D01*
X0221378Y0017985D02*
X0226579Y0017985D01*
X0231378Y0017985D02*
X0236579Y0017985D01*
X0235260Y0016787D02*
X0232697Y0016787D01*
X0233299Y0015588D02*
X0234657Y0015588D01*
X0234378Y0014390D02*
X0233578Y0014390D01*
X0233578Y0013191D02*
X0234378Y0013191D01*
X0234378Y0011993D02*
X0233578Y0011993D01*
X0233578Y0010794D02*
X0234378Y0010794D01*
X0234378Y0009596D02*
X0233578Y0009596D01*
X0233578Y0008397D02*
X0234378Y0008397D01*
X0234378Y0007199D02*
X0233578Y0007199D01*
X0233129Y0006000D02*
X0234828Y0006000D01*
X0243129Y0006000D02*
X0278278Y0006000D01*
X0278278Y0007199D02*
X0243578Y0007199D01*
X0243578Y0008397D02*
X0278278Y0008397D01*
X0278278Y0009596D02*
X0243578Y0009596D01*
X0243578Y0010794D02*
X0278278Y0010794D01*
X0278278Y0011993D02*
X0262248Y0011993D01*
X0263338Y0013191D02*
X0278278Y0013191D01*
X0278278Y0014390D02*
X0263619Y0014390D01*
X0263367Y0015588D02*
X0278278Y0015588D01*
X0278278Y0016787D02*
X0267878Y0016787D01*
X0268528Y0017985D02*
X0278278Y0017985D01*
X0278278Y0019184D02*
X0268528Y0019184D01*
X0268528Y0020382D02*
X0278278Y0020382D01*
X0278278Y0021581D02*
X0268528Y0021581D01*
X0268528Y0022779D02*
X0278278Y0022779D01*
X0278278Y0023978D02*
X0268528Y0023978D01*
X0268528Y0025176D02*
X0278278Y0025176D01*
X0278278Y0026375D02*
X0268528Y0026375D01*
X0268528Y0027573D02*
X0278278Y0027573D01*
X0278278Y0028772D02*
X0268528Y0028772D01*
X0268528Y0029970D02*
X0278278Y0029970D01*
X0278278Y0031169D02*
X0267922Y0031169D01*
X0261028Y0033625D02*
X0259628Y0033825D01*
X0260228Y0034225D01*
X0253528Y0028772D02*
X0252828Y0028772D01*
X0253419Y0027573D02*
X0253528Y0027573D01*
X0253528Y0026375D02*
X0253379Y0026375D01*
X0253528Y0025176D02*
X0253028Y0025176D01*
X0253028Y0023978D02*
X0253528Y0023978D01*
X0253528Y0022779D02*
X0253028Y0022779D01*
X0253028Y0021581D02*
X0253528Y0021581D01*
X0253528Y0020382D02*
X0253028Y0020382D01*
X0253028Y0019184D02*
X0253528Y0019184D01*
X0253528Y0017985D02*
X0253028Y0017985D01*
X0248228Y0017985D02*
X0241378Y0017985D01*
X0242697Y0016787D02*
X0248228Y0016787D01*
X0248294Y0015588D02*
X0243299Y0015588D01*
X0243578Y0014390D02*
X0249070Y0014390D01*
X0250268Y0013191D02*
X0243578Y0013191D01*
X0243578Y0011993D02*
X0259209Y0011993D01*
X0260628Y0014425D02*
X0260828Y0014425D01*
X0250028Y0010425D02*
X0250428Y0009425D01*
X0250828Y0008625D01*
X0248228Y0019184D02*
X0212478Y0019184D01*
X0216007Y0020382D02*
X0248228Y0020382D01*
X0248228Y0021581D02*
X0216642Y0021581D01*
X0216659Y0022779D02*
X0248228Y0022779D01*
X0248228Y0023978D02*
X0216047Y0023978D01*
X0277655Y0057536D02*
X0278278Y0057536D01*
X0278278Y0077911D02*
X0276750Y0077911D01*
X0276798Y0079109D02*
X0278278Y0079109D01*
X0278278Y0087499D02*
X0277745Y0087499D01*
X0278278Y0088697D02*
X0234892Y0088697D01*
X0224106Y0099484D02*
X0267054Y0099484D01*
X0265691Y0100682D02*
X0222919Y0100682D01*
X0239696Y0141432D02*
X0177669Y0141432D01*
X0177194Y0142630D02*
X0241272Y0142630D01*
X0172562Y0142630D02*
X0116818Y0142630D01*
X0118016Y0141432D02*
X0172088Y0141432D01*
X0151142Y0140233D02*
X0119215Y0140233D01*
X0120413Y0139035D02*
X0149943Y0139035D01*
X0148745Y0137836D02*
X0121612Y0137836D01*
X0122810Y0136638D02*
X0147546Y0136638D01*
X0146348Y0135439D02*
X0124009Y0135439D01*
X0125207Y0134241D02*
X0145149Y0134241D01*
X0143951Y0133042D02*
X0127382Y0133042D01*
X0128266Y0131844D02*
X0142752Y0131844D01*
X0141554Y0130645D02*
X0128469Y0130645D01*
X0128138Y0129447D02*
X0140355Y0129447D01*
X0139157Y0128248D02*
X0126810Y0128248D01*
X0125869Y0127050D02*
X0137958Y0127050D01*
X0136760Y0125851D02*
X0125706Y0125851D01*
X0124877Y0124653D02*
X0135561Y0124653D01*
X0134363Y0123454D02*
X0046246Y0123454D01*
X0043511Y0123454D02*
X0015178Y0123454D01*
X0015178Y0122256D02*
X0042378Y0122256D01*
X0042088Y0121057D02*
X0015178Y0121057D01*
X0015178Y0119859D02*
X0042331Y0119859D01*
X0043272Y0118660D02*
X0015178Y0118660D01*
X0015178Y0117462D02*
X0047947Y0117462D01*
X0046748Y0118660D02*
X0046485Y0118660D01*
X0049145Y0116263D02*
X0015178Y0116263D01*
X0015178Y0115065D02*
X0050344Y0115065D01*
X0051542Y0113866D02*
X0015178Y0113866D01*
X0015178Y0112668D02*
X0052741Y0112668D01*
X0053939Y0111469D02*
X0015178Y0111469D01*
X0015178Y0110270D02*
X0055138Y0110270D01*
X0056336Y0109072D02*
X0015178Y0109072D01*
X0015178Y0107873D02*
X0057535Y0107873D01*
X0058733Y0106675D02*
X0015178Y0106675D01*
X0015178Y0105476D02*
X0059932Y0105476D01*
X0061130Y0104278D02*
X0015178Y0104278D01*
X0009578Y0104278D02*
X0008978Y0104278D01*
X0008978Y0105476D02*
X0009578Y0105476D01*
X0009578Y0106675D02*
X0008978Y0106675D01*
X0008978Y0107873D02*
X0009578Y0107873D01*
X0009578Y0109072D02*
X0008978Y0109072D01*
X0008978Y0110270D02*
X0009578Y0110270D01*
X0009578Y0111469D02*
X0008978Y0111469D01*
X0008978Y0112668D02*
X0009578Y0112668D01*
X0009578Y0113866D02*
X0008978Y0113866D01*
X0008978Y0115065D02*
X0009578Y0115065D01*
X0009578Y0116263D02*
X0008978Y0116263D01*
X0008978Y0117462D02*
X0009578Y0117462D01*
X0009578Y0118660D02*
X0008978Y0118660D01*
X0008978Y0119859D02*
X0009578Y0119859D01*
X0009578Y0121057D02*
X0008978Y0121057D01*
X0008978Y0122256D02*
X0009578Y0122256D01*
X0009578Y0123454D02*
X0008978Y0123454D01*
X0008978Y0124653D02*
X0009578Y0124653D01*
X0009578Y0125851D02*
X0008978Y0125851D01*
X0008978Y0127050D02*
X0009578Y0127050D01*
X0009578Y0128248D02*
X0008978Y0128248D01*
X0008978Y0129447D02*
X0009578Y0129447D01*
X0009578Y0130645D02*
X0008978Y0130645D01*
X0008978Y0131844D02*
X0009578Y0131844D01*
X0009578Y0133042D02*
X0008978Y0133042D01*
X0008978Y0134241D02*
X0009578Y0134241D01*
X0009578Y0135439D02*
X0008978Y0135439D01*
X0008978Y0136638D02*
X0009578Y0136638D01*
X0009578Y0137836D02*
X0008978Y0137836D01*
X0008978Y0139035D02*
X0009578Y0139035D01*
X0009578Y0140233D02*
X0008978Y0140233D01*
X0008978Y0141432D02*
X0009578Y0141432D01*
X0009578Y0142630D02*
X0008978Y0142630D01*
X0008978Y0143829D02*
X0009578Y0143829D01*
X0009578Y0145027D02*
X0008978Y0145027D01*
X0008978Y0146226D02*
X0009572Y0146226D01*
X0009927Y0147424D02*
X0008978Y0147424D01*
X0008978Y0148623D02*
X0011012Y0148623D01*
X0012157Y0149821D02*
X0008978Y0149821D01*
X0008978Y0151020D02*
X0013302Y0151020D01*
X0014437Y0152218D02*
X0008978Y0152218D01*
X0008978Y0153417D02*
X0023455Y0153417D01*
X0022032Y0154615D02*
X0008978Y0154615D01*
X0008978Y0155814D02*
X0021387Y0155814D01*
X0021078Y0157012D02*
X0008978Y0157012D01*
X0008978Y0158211D02*
X0017958Y0158211D01*
X0011178Y0159409D02*
X0010078Y0159409D01*
X0010078Y0160608D02*
X0011178Y0160608D01*
X0011178Y0161806D02*
X0010078Y0161806D01*
X0017612Y0147424D02*
X0106084Y0147424D01*
X0107283Y0146226D02*
X0103533Y0146226D01*
X0103109Y0146650D02*
X0101418Y0147350D01*
X0099588Y0147350D01*
X0097898Y0146650D01*
X0096604Y0145356D01*
X0095903Y0143665D01*
X0095903Y0135835D01*
X0096604Y0134144D01*
X0097898Y0132850D01*
X0099588Y0132150D01*
X0101418Y0132150D01*
X0103109Y0132850D01*
X0104403Y0134144D01*
X0105103Y0135835D01*
X0105103Y0143665D01*
X0104403Y0145356D01*
X0103109Y0146650D01*
X0104539Y0145027D02*
X0108481Y0145027D01*
X0109680Y0143829D02*
X0105035Y0143829D01*
X0105103Y0142630D02*
X0110878Y0142630D01*
X0112077Y0141432D02*
X0105103Y0141432D01*
X0105103Y0140233D02*
X0113275Y0140233D01*
X0114474Y0139035D02*
X0105103Y0139035D01*
X0105103Y0137836D02*
X0115672Y0137836D01*
X0116871Y0136638D02*
X0105103Y0136638D01*
X0104939Y0135439D02*
X0118069Y0135439D01*
X0119268Y0134241D02*
X0106795Y0134241D01*
X0104962Y0134241D02*
X0104443Y0134241D01*
X0103455Y0133042D02*
X0103301Y0133042D01*
X0103088Y0131844D02*
X0041281Y0131844D01*
X0041241Y0131748D02*
X0042384Y0134507D01*
X0042384Y0137493D01*
X0041241Y0140252D01*
X0039130Y0142363D01*
X0036371Y0143505D01*
X0033385Y0143505D01*
X0030627Y0142363D01*
X0028515Y0140252D01*
X0027373Y0137493D01*
X0027373Y0134507D01*
X0028515Y0131748D01*
X0030627Y0129637D01*
X0033385Y0128494D01*
X0036371Y0128494D01*
X0039130Y0129637D01*
X0041241Y0131748D01*
X0041777Y0133042D02*
X0067706Y0133042D01*
X0067898Y0132850D02*
X0069588Y0132150D01*
X0071418Y0132150D01*
X0073109Y0132850D01*
X0074403Y0134144D01*
X0075103Y0135835D01*
X0075103Y0143665D01*
X0074403Y0145356D01*
X0073109Y0146650D01*
X0071418Y0147350D01*
X0069588Y0147350D01*
X0067898Y0146650D01*
X0066604Y0145356D01*
X0065903Y0143665D01*
X0065903Y0135835D01*
X0066604Y0134144D01*
X0067898Y0132850D01*
X0066564Y0134241D02*
X0042273Y0134241D01*
X0042384Y0135439D02*
X0066067Y0135439D01*
X0065903Y0136638D02*
X0042384Y0136638D01*
X0042242Y0137836D02*
X0065903Y0137836D01*
X0065903Y0139035D02*
X0041745Y0139035D01*
X0041249Y0140233D02*
X0065903Y0140233D01*
X0065903Y0141432D02*
X0040061Y0141432D01*
X0038484Y0142630D02*
X0065903Y0142630D01*
X0065971Y0143829D02*
X0015178Y0143829D01*
X0015178Y0142630D02*
X0031272Y0142630D01*
X0029696Y0141432D02*
X0015178Y0141432D01*
X0015178Y0140233D02*
X0028508Y0140233D01*
X0028011Y0139035D02*
X0015178Y0139035D01*
X0015178Y0137836D02*
X0027515Y0137836D01*
X0027373Y0136638D02*
X0015178Y0136638D01*
X0015178Y0135439D02*
X0027373Y0135439D01*
X0027483Y0134241D02*
X0015178Y0134241D01*
X0015178Y0133042D02*
X0027980Y0133042D01*
X0028476Y0131844D02*
X0015178Y0131844D01*
X0015178Y0130645D02*
X0029619Y0130645D01*
X0031087Y0129447D02*
X0015178Y0129447D01*
X0015178Y0128248D02*
X0118660Y0128248D01*
X0117462Y0129447D02*
X0107671Y0129447D01*
X0104085Y0129447D02*
X0038670Y0129447D01*
X0040138Y0130645D02*
X0103253Y0130645D01*
X0097706Y0133042D02*
X0093301Y0133042D01*
X0093109Y0132850D02*
X0094403Y0134144D01*
X0095103Y0135835D01*
X0095103Y0143665D01*
X0094403Y0145356D01*
X0093109Y0146650D01*
X0091418Y0147350D01*
X0089588Y0147350D01*
X0087898Y0146650D01*
X0086604Y0145356D01*
X0085903Y0143665D01*
X0085903Y0135835D01*
X0086604Y0134144D01*
X0087898Y0132850D01*
X0089588Y0132150D01*
X0091418Y0132150D01*
X0093109Y0132850D01*
X0094443Y0134241D02*
X0096564Y0134241D01*
X0096067Y0135439D02*
X0094939Y0135439D01*
X0095103Y0136638D02*
X0095903Y0136638D01*
X0095903Y0137836D02*
X0095103Y0137836D01*
X0095103Y0139035D02*
X0095903Y0139035D01*
X0095903Y0140233D02*
X0095103Y0140233D01*
X0095103Y0141432D02*
X0095903Y0141432D01*
X0095903Y0142630D02*
X0095103Y0142630D01*
X0095035Y0143829D02*
X0095971Y0143829D01*
X0096468Y0145027D02*
X0094539Y0145027D01*
X0093533Y0146226D02*
X0097474Y0146226D01*
X0087474Y0146226D02*
X0083533Y0146226D01*
X0083109Y0146650D02*
X0081418Y0147350D01*
X0079588Y0147350D01*
X0077898Y0146650D01*
X0076604Y0145356D01*
X0075903Y0143665D01*
X0075903Y0135835D01*
X0076604Y0134144D01*
X0077898Y0132850D01*
X0079588Y0132150D01*
X0081418Y0132150D01*
X0083109Y0132850D01*
X0084403Y0134144D01*
X0085103Y0135835D01*
X0085103Y0143665D01*
X0084403Y0145356D01*
X0083109Y0146650D01*
X0084539Y0145027D02*
X0086468Y0145027D01*
X0085971Y0143829D02*
X0085035Y0143829D01*
X0085103Y0142630D02*
X0085903Y0142630D01*
X0085903Y0141432D02*
X0085103Y0141432D01*
X0085103Y0140233D02*
X0085903Y0140233D01*
X0085903Y0139035D02*
X0085103Y0139035D01*
X0085103Y0137836D02*
X0085903Y0137836D01*
X0085903Y0136638D02*
X0085103Y0136638D01*
X0084939Y0135439D02*
X0086067Y0135439D01*
X0086564Y0134241D02*
X0084443Y0134241D01*
X0083301Y0133042D02*
X0087706Y0133042D01*
X0077706Y0133042D02*
X0073301Y0133042D01*
X0074443Y0134241D02*
X0076564Y0134241D01*
X0076067Y0135439D02*
X0074939Y0135439D01*
X0075103Y0136638D02*
X0075903Y0136638D01*
X0075903Y0137836D02*
X0075103Y0137836D01*
X0075103Y0139035D02*
X0075903Y0139035D01*
X0075903Y0140233D02*
X0075103Y0140233D01*
X0075103Y0141432D02*
X0075903Y0141432D01*
X0075903Y0142630D02*
X0075103Y0142630D01*
X0075035Y0143829D02*
X0075971Y0143829D01*
X0076468Y0145027D02*
X0074539Y0145027D01*
X0073533Y0146226D02*
X0077474Y0146226D01*
X0067474Y0146226D02*
X0016467Y0146226D01*
X0015322Y0145027D02*
X0066468Y0145027D01*
X0055709Y0148623D02*
X0052515Y0148623D01*
X0053451Y0149821D02*
X0055097Y0149821D01*
X0055115Y0151020D02*
X0054387Y0151020D01*
X0055323Y0152218D02*
X0055750Y0152218D01*
X0056259Y0153417D02*
X0104752Y0153417D01*
X0103553Y0154615D02*
X0057195Y0154615D01*
X0058131Y0155814D02*
X0102355Y0155814D01*
X0101156Y0157012D02*
X0059067Y0157012D01*
X0022378Y0127250D02*
X0018628Y0127250D01*
X0015178Y0127050D02*
X0119859Y0127050D01*
X0120451Y0125851D02*
X0015178Y0125851D01*
X0015178Y0124653D02*
X0121279Y0124653D01*
X0122203Y0130645D02*
X0122863Y0130645D01*
X0121665Y0131844D02*
X0121004Y0131844D01*
X0120466Y0133042D02*
X0119806Y0133042D01*
X0131966Y0121057D02*
X0050291Y0121057D01*
X0051490Y0119859D02*
X0130767Y0119859D01*
X0129569Y0118660D02*
X0052688Y0118660D01*
X0053887Y0117462D02*
X0128370Y0117462D01*
X0126757Y0116263D02*
X0055085Y0116263D01*
X0056284Y0115065D02*
X0125006Y0115065D01*
X0124588Y0113866D02*
X0057482Y0113866D01*
X0058681Y0112668D02*
X0124703Y0112668D01*
X0125463Y0111469D02*
X0059879Y0111469D01*
X0052128Y0107900D02*
X0051928Y0107900D01*
X0051328Y0107100D01*
X0058478Y0093400D02*
X0059478Y0093400D01*
X0044328Y0092100D02*
X0043928Y0092100D01*
X0043928Y0093100D01*
X0017161Y0095888D02*
X0015178Y0095888D01*
X0015178Y0094690D02*
X0015963Y0094690D01*
X0009578Y0094690D02*
X0008978Y0094690D01*
X0008978Y0095888D02*
X0009578Y0095888D01*
X0009578Y0097087D02*
X0008978Y0097087D01*
X0008978Y0098285D02*
X0009578Y0098285D01*
X0009578Y0099484D02*
X0008978Y0099484D01*
X0008978Y0100682D02*
X0009578Y0100682D01*
X0009578Y0101881D02*
X0008978Y0101881D01*
X0008978Y0103079D02*
X0009578Y0103079D01*
X0009578Y0093491D02*
X0008978Y0093491D01*
X0008978Y0092293D02*
X0009578Y0092293D01*
X0009578Y0091094D02*
X0008978Y0091094D01*
X0008978Y0089896D02*
X0009578Y0089896D01*
X0049093Y0122256D02*
X0133164Y0122256D01*
X0136707Y0119859D02*
X0139777Y0119859D01*
X0140976Y0121057D02*
X0137905Y0121057D01*
X0139104Y0122256D02*
X0142174Y0122256D01*
X0143373Y0123454D02*
X0140302Y0123454D01*
X0141501Y0124653D02*
X0144966Y0124653D01*
X0144781Y0125851D02*
X0142699Y0125851D01*
X0143898Y0127050D02*
X0144288Y0127050D01*
X0083478Y0114000D02*
X0083478Y0112800D01*
X0083478Y0114000D02*
X0081478Y0114000D01*
D17*
X0081478Y0114000D03*
X0064878Y0103500D03*
X0059478Y0093400D03*
X0043928Y0093100D03*
X0036528Y0099700D03*
X0029478Y0097600D03*
X0051328Y0107100D03*
X0044878Y0121000D03*
X0018628Y0127250D03*
X0057878Y0150400D03*
X0105878Y0131600D03*
X0123078Y0126800D03*
X0125678Y0130800D03*
X0147078Y0127500D03*
X0153478Y0129600D03*
X0159878Y0127250D03*
X0164878Y0122250D03*
X0181878Y0129600D03*
X0186678Y0130000D03*
X0189278Y0134800D03*
X0189478Y0141600D03*
X0181478Y0134800D03*
X0174878Y0141000D03*
X0167378Y0151000D03*
X0159878Y0146000D03*
X0137378Y0146000D03*
X0129878Y0151000D03*
X0116478Y0151000D03*
X0127378Y0113500D03*
X0093678Y0086400D03*
X0093878Y0075400D03*
X0098678Y0074800D03*
X0091103Y0070200D03*
X0093953Y0066300D03*
X0108278Y0070000D03*
X0115078Y0071200D03*
X0124878Y0076000D03*
X0131478Y0067600D03*
X0128278Y0064400D03*
X0122378Y0058500D03*
X0118628Y0051000D03*
X0130678Y0046800D03*
X0135678Y0042300D03*
X0150678Y0051200D03*
X0172678Y0070800D03*
X0167478Y0074800D03*
X0163878Y0078400D03*
X0191678Y0068600D03*
X0194878Y0072200D03*
X0203628Y0078500D03*
X0211128Y0084750D03*
X0203678Y0098800D03*
X0189678Y0112800D03*
X0184278Y0114000D03*
X0179078Y0108800D03*
X0173628Y0108500D03*
X0129878Y0084400D03*
X0065478Y0051600D03*
X0056878Y0047600D03*
X0067378Y0036000D03*
X0074878Y0036000D03*
X0087378Y0034750D03*
X0097178Y0021800D03*
X0117928Y0025900D03*
X0132028Y0025900D03*
X0135478Y0029900D03*
X0137528Y0025900D03*
X0134978Y0020950D03*
X0159528Y0025900D03*
X0172328Y0025900D03*
X0178628Y0022250D03*
X0178878Y0029900D03*
X0197078Y0029900D03*
X0199878Y0026000D03*
X0210328Y0026000D03*
X0213878Y0022200D03*
X0217628Y0026000D03*
X0219878Y0036000D03*
X0214878Y0036000D03*
X0219878Y0041000D03*
X0214878Y0048500D03*
X0236278Y0037200D03*
X0235678Y0034200D03*
X0237428Y0026200D03*
X0250628Y0027025D03*
X0260228Y0034225D03*
X0265428Y0033725D03*
X0249828Y0039225D03*
X0240878Y0054200D03*
X0245878Y0068400D03*
X0236678Y0070800D03*
X0260628Y0014425D03*
X0260828Y0014425D03*
X0250828Y0008625D03*
X0071278Y0018400D03*
X0063278Y0018800D03*
X0060678Y0028600D03*
X0043628Y0027250D03*
X0048278Y0067600D03*
X0054678Y0074400D03*
D18*
X0056878Y0051800D02*
X0056878Y0047600D01*
X0056878Y0051800D02*
X0065478Y0051600D01*
X0087378Y0034750D02*
X0087378Y0029750D01*
X0088878Y0029750D01*
X0090678Y0028400D01*
X0071278Y0028600D02*
X0071278Y0018400D01*
X0064078Y0019600D02*
X0063878Y0019600D01*
X0063278Y0018800D01*
X0060678Y0028600D02*
X0071278Y0028600D01*
X0130678Y0046800D02*
X0146878Y0046800D01*
X0150678Y0051200D01*
X0135678Y0042300D02*
X0135642Y0042280D01*
X0135608Y0042256D01*
X0135576Y0042230D01*
X0135547Y0042201D01*
X0135521Y0042169D01*
X0135498Y0042135D01*
X0135478Y0042099D01*
X0135461Y0042061D01*
X0135448Y0042022D01*
X0135438Y0041981D01*
X0135433Y0041941D01*
X0135431Y0041899D01*
X0135433Y0041858D01*
X0135439Y0041817D01*
X0135448Y0041777D01*
X0135461Y0041738D01*
X0135478Y0041700D01*
X0135478Y0029900D01*
X0178878Y0029900D02*
X0197078Y0029900D01*
X0210378Y0022200D02*
X0210378Y0019800D01*
X0203628Y0019800D01*
X0203628Y0019750D01*
X0210378Y0022200D02*
X0213878Y0022200D01*
X0214878Y0036000D02*
X0214878Y0048500D01*
X0213478Y0051000D02*
X0198678Y0065800D01*
X0194478Y0065800D01*
X0191678Y0068600D01*
X0194878Y0072200D02*
X0214278Y0053400D01*
X0220078Y0053400D01*
X0236278Y0037200D01*
X0235678Y0034200D02*
X0218878Y0051000D01*
X0213478Y0051000D01*
X0219878Y0041000D02*
X0219878Y0036000D01*
X0229628Y0067619D02*
X0229628Y0067664D01*
X0229042Y0068250D01*
X0223281Y0074011D01*
X0223248Y0074144D01*
X0222998Y0074294D01*
X0222792Y0074500D01*
X0222655Y0074500D01*
X0222538Y0074571D01*
X0222255Y0074500D01*
X0221964Y0074500D01*
X0221867Y0074403D01*
X0217685Y0073357D01*
X0212792Y0078250D01*
X0209464Y0078250D01*
X0208878Y0077664D01*
X0206378Y0075164D01*
X0206378Y0072656D01*
X0201128Y0077250D01*
X0219878Y0096000D01*
X0243628Y0073500D01*
X0237378Y0067250D01*
X0229628Y0067619D01*
X0229385Y0067908D02*
X0238036Y0067908D01*
X0239034Y0068906D02*
X0228386Y0068906D01*
X0227388Y0069905D02*
X0240033Y0069905D01*
X0241032Y0070903D02*
X0226389Y0070903D01*
X0225391Y0071902D02*
X0242030Y0071902D01*
X0243029Y0072900D02*
X0224392Y0072900D01*
X0223394Y0073899D02*
X0243207Y0073899D01*
X0242153Y0074897D02*
X0216145Y0074897D01*
X0217144Y0073899D02*
X0219850Y0073899D01*
X0215147Y0075896D02*
X0241099Y0075896D01*
X0240045Y0076894D02*
X0214148Y0076894D01*
X0213150Y0077893D02*
X0238991Y0077893D01*
X0237937Y0078891D02*
X0202770Y0078891D01*
X0203628Y0078500D02*
X0206128Y0078500D01*
X0208108Y0076894D02*
X0201535Y0076894D01*
X0201771Y0077893D02*
X0209107Y0077893D01*
X0207110Y0075896D02*
X0202676Y0075896D01*
X0203817Y0074897D02*
X0206378Y0074897D01*
X0206378Y0073899D02*
X0204958Y0073899D01*
X0206099Y0072900D02*
X0206378Y0072900D01*
X0203768Y0079890D02*
X0236883Y0079890D01*
X0235829Y0080888D02*
X0204767Y0080888D01*
X0205765Y0081887D02*
X0234775Y0081887D01*
X0233721Y0082885D02*
X0206764Y0082885D01*
X0207762Y0083884D02*
X0232668Y0083884D01*
X0231614Y0084882D02*
X0208761Y0084882D01*
X0209759Y0085881D02*
X0230560Y0085881D01*
X0229506Y0086879D02*
X0210758Y0086879D01*
X0211756Y0087878D02*
X0228452Y0087878D01*
X0227398Y0088876D02*
X0212755Y0088876D01*
X0213753Y0089875D02*
X0226344Y0089875D01*
X0225290Y0090873D02*
X0214752Y0090873D01*
X0215750Y0091872D02*
X0224236Y0091872D01*
X0223182Y0092870D02*
X0216749Y0092870D01*
X0217747Y0093869D02*
X0222128Y0093869D01*
X0221074Y0094868D02*
X0218746Y0094868D01*
X0219744Y0095866D02*
X0220020Y0095866D01*
X0184278Y0114000D02*
X0183478Y0114800D01*
X0184678Y0114800D01*
X0181878Y0110400D02*
X0175878Y0116400D01*
X0175878Y0123600D01*
X0181878Y0129600D01*
X0185278Y0131400D02*
X0185278Y0138200D01*
X0184478Y0139000D01*
X0179278Y0139000D01*
X0170078Y0129800D01*
X0168278Y0129800D01*
X0161678Y0136400D01*
X0153478Y0136400D01*
X0147078Y0127500D01*
X0151704Y0122826D02*
X0165552Y0122826D01*
X0164878Y0122250D02*
X0162378Y0124750D01*
X0161128Y0124750D01*
X0162557Y0125821D02*
X0154700Y0125821D01*
X0153701Y0124823D02*
X0163555Y0124823D01*
X0164554Y0123824D02*
X0152703Y0123824D01*
X0150706Y0121827D02*
X0166551Y0121827D01*
X0167549Y0120829D02*
X0149707Y0120829D01*
X0148709Y0119830D02*
X0168548Y0119830D01*
X0169547Y0118832D02*
X0147710Y0118832D01*
X0147378Y0118500D02*
X0158628Y0129750D01*
X0177378Y0111000D01*
X0171128Y0104750D01*
X0156128Y0111000D01*
X0147378Y0118500D01*
X0148156Y0117833D02*
X0170545Y0117833D01*
X0171544Y0116835D02*
X0149321Y0116835D01*
X0150486Y0115836D02*
X0172542Y0115836D01*
X0173541Y0114838D02*
X0151651Y0114838D01*
X0152816Y0113839D02*
X0174539Y0113839D01*
X0175538Y0112841D02*
X0153981Y0112841D01*
X0155146Y0111842D02*
X0176536Y0111842D01*
X0177222Y0110844D02*
X0156503Y0110844D01*
X0158900Y0109845D02*
X0176223Y0109845D01*
X0175225Y0108847D02*
X0161296Y0108847D01*
X0163693Y0107848D02*
X0174226Y0107848D01*
X0173228Y0106850D02*
X0166089Y0106850D01*
X0168486Y0105851D02*
X0172229Y0105851D01*
X0171231Y0104853D02*
X0170882Y0104853D01*
X0172278Y0102000D02*
X0153078Y0109600D01*
X0138678Y0095200D01*
X0135610Y0095200D01*
X0129657Y0095553D01*
X0129878Y0084400D02*
X0132278Y0084400D01*
X0153478Y0105600D01*
X0171878Y0098800D01*
X0173478Y0098800D01*
X0181878Y0107200D01*
X0181878Y0110400D01*
X0179078Y0108800D02*
X0172278Y0102000D01*
X0161558Y0126820D02*
X0155698Y0126820D01*
X0156697Y0127818D02*
X0160560Y0127818D01*
X0159561Y0128817D02*
X0157695Y0128817D01*
X0152378Y0138500D02*
X0127378Y0113500D01*
X0123078Y0126800D02*
X0118278Y0131600D01*
X0105878Y0131600D01*
X0106078Y0150400D02*
X0125678Y0130800D01*
X0137378Y0146000D02*
X0132378Y0151000D01*
X0129878Y0151000D01*
X0106078Y0150400D02*
X0057878Y0150400D01*
X0047378Y0121000D02*
X0044878Y0121000D01*
X0047378Y0121000D02*
X0064878Y0103500D01*
X0124878Y0076000D02*
X0124878Y0071000D01*
X0172678Y0070800D02*
X0174078Y0069400D01*
X0174078Y0069200D01*
X0186678Y0130000D02*
X0185278Y0131400D01*
X0174878Y0141000D02*
X0172378Y0138500D01*
X0152378Y0138500D01*
X0159878Y0146000D02*
X0162378Y0146000D01*
X0167378Y0151000D01*
X0186278Y0144000D02*
X0188678Y0141600D01*
X0189478Y0141600D01*
D19*
X0154278Y0119600D02*
X0151878Y0122000D01*
X0145878Y0122000D01*
X0098678Y0074800D01*
X0099878Y0039750D02*
X0100878Y0036000D01*
X0102678Y0028400D01*
X0096678Y0028400D02*
X0096678Y0019650D01*
X0097928Y0019650D01*
X0138278Y0019650D01*
X0139528Y0019650D01*
X0178628Y0019750D01*
X0203628Y0019750D01*
X0090678Y0026400D02*
X0090678Y0028400D01*
X0090678Y0026400D02*
X0085678Y0021400D01*
X0017678Y0013500D02*
X0012378Y0018500D01*
X0012378Y0146000D01*
X0016678Y0150500D01*
X0050428Y0150500D01*
X0058628Y0161000D01*
X0101128Y0161000D01*
X0111128Y0151000D01*
X0119878Y0151000D01*
X0125678Y0156800D01*
X0125678Y0160475D01*
X0025678Y0160475D02*
X0019653Y0160475D01*
X0016628Y0163500D01*
X0017678Y0013500D02*
X0017762Y0013498D01*
X0017846Y0013492D01*
X0017930Y0013483D01*
X0018013Y0013470D01*
X0018095Y0013453D01*
X0018177Y0013432D01*
X0018257Y0013408D01*
X0018337Y0013380D01*
X0018415Y0013349D01*
X0018492Y0013314D01*
X0018567Y0013276D01*
X0018640Y0013235D01*
X0018711Y0013190D01*
X0018780Y0013142D01*
X0018847Y0013091D01*
X0018912Y0013037D01*
X0018974Y0012980D01*
X0019033Y0012921D01*
X0019090Y0012859D01*
X0019144Y0012794D01*
X0019195Y0012727D01*
X0019243Y0012658D01*
X0019288Y0012587D01*
X0019329Y0012514D01*
X0019367Y0012439D01*
X0019402Y0012362D01*
X0019433Y0012284D01*
X0019461Y0012204D01*
X0019485Y0012124D01*
X0019506Y0012042D01*
X0019523Y0011960D01*
X0019536Y0011877D01*
X0019545Y0011793D01*
X0019551Y0011709D01*
X0019553Y0011625D01*
D20*
X0172378Y0109750D02*
X0173628Y0108500D01*
X0172678Y0126000D02*
X0168278Y0125200D01*
X0161078Y0132400D01*
X0157078Y0133200D01*
X0153478Y0129600D01*
X0159878Y0127250D02*
X0159878Y0126000D01*
X0161128Y0124750D01*
X0172678Y0126000D02*
X0181478Y0134800D01*
X0119878Y0150800D02*
X0116478Y0151000D01*
X0119878Y0151000D02*
X0119878Y0150800D01*
X0211128Y0084750D02*
X0211128Y0083500D01*
X0206128Y0078500D01*
X0250628Y0027025D02*
X0250628Y0016225D01*
X0252428Y0014425D01*
X0260828Y0014425D01*
D21*
X0099878Y0039750D03*
X0085678Y0021400D03*
M02*
