G75*
%MOIN*%
%OFA0B0*%
%FSLAX25Y25*%
%IPPOS*%
%LPD*%
%AMOC8*
5,1,8,0,0,1.08239X$1,22.5*
%
%ADD10C,0.00000*%
%ADD11C,0.00300*%
%ADD12R,0.03400X0.00100*%
%ADD13R,0.04800X0.00100*%
%ADD14R,0.05900X0.00100*%
%ADD15R,0.06800X0.00100*%
%ADD16R,0.07600X0.00100*%
%ADD17R,0.00100X0.00100*%
%ADD18R,0.00900X0.00100*%
%ADD19R,0.03200X0.00100*%
%ADD20R,0.03000X0.00100*%
%ADD21R,0.00400X0.00100*%
%ADD22R,0.00700X0.00100*%
%ADD23R,0.00500X0.00100*%
%ADD24R,0.02700X0.00100*%
%ADD25R,0.02300X0.00100*%
%ADD26R,0.00200X0.00100*%
%ADD27R,0.00600X0.00100*%
%ADD28R,0.02400X0.00100*%
%ADD29R,0.02200X0.00100*%
%ADD30R,0.02600X0.00100*%
%ADD31R,0.00300X0.00100*%
%ADD32R,0.01900X0.00100*%
%ADD33R,0.01800X0.00100*%
%ADD34R,0.00800X0.00100*%
%ADD35R,0.02000X0.00100*%
%ADD36R,0.01500X0.00100*%
%ADD37R,0.01600X0.00100*%
%ADD38R,0.01400X0.00100*%
%ADD39R,0.01100X0.00100*%
%ADD40R,0.01700X0.00100*%
%ADD41R,0.01300X0.00100*%
%ADD42R,0.01200X0.00100*%
%ADD43R,0.03700X0.00100*%
%ADD44R,0.05500X0.00100*%
%ADD45R,0.01000X0.00100*%
%ADD46R,0.08000X0.00100*%
%ADD47R,0.02100X0.00100*%
%ADD48R,0.02900X0.00100*%
%ADD49R,0.04200X0.00100*%
%ADD50R,0.05200X0.00100*%
%ADD51R,0.06000X0.00100*%
%ADD52R,0.06700X0.00100*%
%ADD53R,0.07400X0.00100*%
%ADD54R,0.08500X0.00100*%
%ADD55R,0.09000X0.00100*%
%ADD56R,0.09500X0.00100*%
%ADD57R,0.09900X0.00100*%
%ADD58R,0.10300X0.00100*%
%ADD59R,0.10700X0.00100*%
%ADD60R,0.11100X0.00100*%
%ADD61R,0.11500X0.00100*%
%ADD62R,0.11800X0.00100*%
%ADD63R,0.12200X0.00100*%
%ADD64R,0.12500X0.00100*%
%ADD65R,0.04100X0.00100*%
%ADD66R,0.08600X0.00100*%
%ADD67R,0.04500X0.00100*%
%ADD68R,0.04400X0.00100*%
%ADD69R,0.04600X0.00100*%
%ADD70R,0.04900X0.00100*%
%ADD71R,0.05100X0.00100*%
%ADD72R,0.05000X0.00100*%
%ADD73R,0.03500X0.00100*%
%ADD74R,0.05400X0.00100*%
%ADD75R,0.05600X0.00100*%
%ADD76R,0.05800X0.00100*%
%ADD77R,0.02800X0.00100*%
%ADD78R,0.06100X0.00100*%
%ADD79R,0.03300X0.00100*%
%ADD80R,0.06300X0.00100*%
%ADD81R,0.06400X0.00100*%
%ADD82R,0.06600X0.00100*%
%ADD83R,0.06900X0.00100*%
%ADD84R,0.07100X0.00100*%
%ADD85R,0.03100X0.00100*%
%ADD86R,0.07200X0.00100*%
%ADD87R,0.02500X0.00100*%
%ADD88R,0.07700X0.00100*%
%ADD89R,0.07900X0.00100*%
%ADD90R,0.08100X0.00100*%
%ADD91R,0.08200X0.00100*%
%ADD92R,0.08300X0.00100*%
%ADD93R,0.08400X0.00100*%
%ADD94R,0.08800X0.00100*%
%ADD95R,0.09200X0.00100*%
%ADD96R,0.09300X0.00100*%
%ADD97R,0.09400X0.00100*%
%ADD98R,0.09600X0.00100*%
%ADD99R,0.11300X0.00100*%
%ADD100R,0.11400X0.00100*%
%ADD101R,0.10500X0.00100*%
%ADD102R,0.10100X0.00100*%
%ADD103R,0.10200X0.00100*%
%ADD104R,0.06500X0.00100*%
%ADD105R,0.06200X0.00100*%
%ADD106R,0.04700X0.00100*%
%ADD107R,0.03900X0.00100*%
%ADD108R,0.03600X0.00100*%
%ADD109R,0.04000X0.00100*%
%ADD110R,0.04300X0.00100*%
%ADD111R,0.05300X0.00100*%
%ADD112R,0.07000X0.00100*%
%ADD113R,0.05700X0.00100*%
%ADD114R,0.03800X0.00100*%
%ADD115C,0.00500*%
%ADD116R,0.00984X0.00984*%
%ADD117C,0.00600*%
%ADD118C,0.00394*%
%ADD119C,0.00200*%
%ADD120C,0.00400*%
%ADD121C,0.00197*%
%ADD122C,0.00079*%
D10*
X0007378Y0003500D02*
X0007378Y0168500D01*
X0279878Y0168500D01*
X0279878Y0003500D01*
X0007378Y0003500D01*
X0050710Y0032156D02*
X0050712Y0032204D01*
X0050718Y0032252D01*
X0050728Y0032299D01*
X0050741Y0032345D01*
X0050759Y0032390D01*
X0050779Y0032434D01*
X0050804Y0032476D01*
X0050832Y0032515D01*
X0050862Y0032552D01*
X0050896Y0032586D01*
X0050933Y0032618D01*
X0050971Y0032647D01*
X0051012Y0032672D01*
X0051055Y0032694D01*
X0051100Y0032712D01*
X0051146Y0032726D01*
X0051193Y0032737D01*
X0051241Y0032744D01*
X0051289Y0032747D01*
X0051337Y0032746D01*
X0051385Y0032741D01*
X0051433Y0032732D01*
X0051479Y0032720D01*
X0051524Y0032703D01*
X0051568Y0032683D01*
X0051610Y0032660D01*
X0051650Y0032633D01*
X0051688Y0032603D01*
X0051723Y0032570D01*
X0051755Y0032534D01*
X0051785Y0032496D01*
X0051811Y0032455D01*
X0051833Y0032412D01*
X0051853Y0032368D01*
X0051868Y0032323D01*
X0051880Y0032276D01*
X0051888Y0032228D01*
X0051892Y0032180D01*
X0051892Y0032132D01*
X0051888Y0032084D01*
X0051880Y0032036D01*
X0051868Y0031989D01*
X0051853Y0031944D01*
X0051833Y0031900D01*
X0051811Y0031857D01*
X0051785Y0031816D01*
X0051755Y0031778D01*
X0051723Y0031742D01*
X0051688Y0031709D01*
X0051650Y0031679D01*
X0051610Y0031652D01*
X0051568Y0031629D01*
X0051524Y0031609D01*
X0051479Y0031592D01*
X0051433Y0031580D01*
X0051385Y0031571D01*
X0051337Y0031566D01*
X0051289Y0031565D01*
X0051241Y0031568D01*
X0051193Y0031575D01*
X0051146Y0031586D01*
X0051100Y0031600D01*
X0051055Y0031618D01*
X0051012Y0031640D01*
X0050971Y0031665D01*
X0050933Y0031694D01*
X0050896Y0031726D01*
X0050862Y0031760D01*
X0050832Y0031797D01*
X0050804Y0031836D01*
X0050779Y0031878D01*
X0050759Y0031922D01*
X0050741Y0031967D01*
X0050728Y0032013D01*
X0050718Y0032060D01*
X0050712Y0032108D01*
X0050710Y0032156D01*
X0053662Y0034125D02*
X0053664Y0034173D01*
X0053670Y0034221D01*
X0053680Y0034268D01*
X0053693Y0034314D01*
X0053711Y0034359D01*
X0053731Y0034403D01*
X0053756Y0034445D01*
X0053784Y0034484D01*
X0053814Y0034521D01*
X0053848Y0034555D01*
X0053885Y0034587D01*
X0053923Y0034616D01*
X0053964Y0034641D01*
X0054007Y0034663D01*
X0054052Y0034681D01*
X0054098Y0034695D01*
X0054145Y0034706D01*
X0054193Y0034713D01*
X0054241Y0034716D01*
X0054289Y0034715D01*
X0054337Y0034710D01*
X0054385Y0034701D01*
X0054431Y0034689D01*
X0054476Y0034672D01*
X0054520Y0034652D01*
X0054562Y0034629D01*
X0054602Y0034602D01*
X0054640Y0034572D01*
X0054675Y0034539D01*
X0054707Y0034503D01*
X0054737Y0034465D01*
X0054763Y0034424D01*
X0054785Y0034381D01*
X0054805Y0034337D01*
X0054820Y0034292D01*
X0054832Y0034245D01*
X0054840Y0034197D01*
X0054844Y0034149D01*
X0054844Y0034101D01*
X0054840Y0034053D01*
X0054832Y0034005D01*
X0054820Y0033958D01*
X0054805Y0033913D01*
X0054785Y0033869D01*
X0054763Y0033826D01*
X0054737Y0033785D01*
X0054707Y0033747D01*
X0054675Y0033711D01*
X0054640Y0033678D01*
X0054602Y0033648D01*
X0054562Y0033621D01*
X0054520Y0033598D01*
X0054476Y0033578D01*
X0054431Y0033561D01*
X0054385Y0033549D01*
X0054337Y0033540D01*
X0054289Y0033535D01*
X0054241Y0033534D01*
X0054193Y0033537D01*
X0054145Y0033544D01*
X0054098Y0033555D01*
X0054052Y0033569D01*
X0054007Y0033587D01*
X0053964Y0033609D01*
X0053923Y0033634D01*
X0053885Y0033663D01*
X0053848Y0033695D01*
X0053814Y0033729D01*
X0053784Y0033766D01*
X0053756Y0033805D01*
X0053731Y0033847D01*
X0053711Y0033891D01*
X0053693Y0033936D01*
X0053680Y0033982D01*
X0053670Y0034029D01*
X0053664Y0034077D01*
X0053662Y0034125D01*
X0050710Y0036094D02*
X0050712Y0036142D01*
X0050718Y0036190D01*
X0050728Y0036237D01*
X0050741Y0036283D01*
X0050759Y0036328D01*
X0050779Y0036372D01*
X0050804Y0036414D01*
X0050832Y0036453D01*
X0050862Y0036490D01*
X0050896Y0036524D01*
X0050933Y0036556D01*
X0050971Y0036585D01*
X0051012Y0036610D01*
X0051055Y0036632D01*
X0051100Y0036650D01*
X0051146Y0036664D01*
X0051193Y0036675D01*
X0051241Y0036682D01*
X0051289Y0036685D01*
X0051337Y0036684D01*
X0051385Y0036679D01*
X0051433Y0036670D01*
X0051479Y0036658D01*
X0051524Y0036641D01*
X0051568Y0036621D01*
X0051610Y0036598D01*
X0051650Y0036571D01*
X0051688Y0036541D01*
X0051723Y0036508D01*
X0051755Y0036472D01*
X0051785Y0036434D01*
X0051811Y0036393D01*
X0051833Y0036350D01*
X0051853Y0036306D01*
X0051868Y0036261D01*
X0051880Y0036214D01*
X0051888Y0036166D01*
X0051892Y0036118D01*
X0051892Y0036070D01*
X0051888Y0036022D01*
X0051880Y0035974D01*
X0051868Y0035927D01*
X0051853Y0035882D01*
X0051833Y0035838D01*
X0051811Y0035795D01*
X0051785Y0035754D01*
X0051755Y0035716D01*
X0051723Y0035680D01*
X0051688Y0035647D01*
X0051650Y0035617D01*
X0051610Y0035590D01*
X0051568Y0035567D01*
X0051524Y0035547D01*
X0051479Y0035530D01*
X0051433Y0035518D01*
X0051385Y0035509D01*
X0051337Y0035504D01*
X0051289Y0035503D01*
X0051241Y0035506D01*
X0051193Y0035513D01*
X0051146Y0035524D01*
X0051100Y0035538D01*
X0051055Y0035556D01*
X0051012Y0035578D01*
X0050971Y0035603D01*
X0050933Y0035632D01*
X0050896Y0035664D01*
X0050862Y0035698D01*
X0050832Y0035735D01*
X0050804Y0035774D01*
X0050779Y0035816D01*
X0050759Y0035860D01*
X0050741Y0035905D01*
X0050728Y0035951D01*
X0050718Y0035998D01*
X0050712Y0036046D01*
X0050710Y0036094D01*
X0056615Y0036094D02*
X0056617Y0036142D01*
X0056623Y0036190D01*
X0056633Y0036237D01*
X0056646Y0036283D01*
X0056664Y0036328D01*
X0056684Y0036372D01*
X0056709Y0036414D01*
X0056737Y0036453D01*
X0056767Y0036490D01*
X0056801Y0036524D01*
X0056838Y0036556D01*
X0056876Y0036585D01*
X0056917Y0036610D01*
X0056960Y0036632D01*
X0057005Y0036650D01*
X0057051Y0036664D01*
X0057098Y0036675D01*
X0057146Y0036682D01*
X0057194Y0036685D01*
X0057242Y0036684D01*
X0057290Y0036679D01*
X0057338Y0036670D01*
X0057384Y0036658D01*
X0057429Y0036641D01*
X0057473Y0036621D01*
X0057515Y0036598D01*
X0057555Y0036571D01*
X0057593Y0036541D01*
X0057628Y0036508D01*
X0057660Y0036472D01*
X0057690Y0036434D01*
X0057716Y0036393D01*
X0057738Y0036350D01*
X0057758Y0036306D01*
X0057773Y0036261D01*
X0057785Y0036214D01*
X0057793Y0036166D01*
X0057797Y0036118D01*
X0057797Y0036070D01*
X0057793Y0036022D01*
X0057785Y0035974D01*
X0057773Y0035927D01*
X0057758Y0035882D01*
X0057738Y0035838D01*
X0057716Y0035795D01*
X0057690Y0035754D01*
X0057660Y0035716D01*
X0057628Y0035680D01*
X0057593Y0035647D01*
X0057555Y0035617D01*
X0057515Y0035590D01*
X0057473Y0035567D01*
X0057429Y0035547D01*
X0057384Y0035530D01*
X0057338Y0035518D01*
X0057290Y0035509D01*
X0057242Y0035504D01*
X0057194Y0035503D01*
X0057146Y0035506D01*
X0057098Y0035513D01*
X0057051Y0035524D01*
X0057005Y0035538D01*
X0056960Y0035556D01*
X0056917Y0035578D01*
X0056876Y0035603D01*
X0056838Y0035632D01*
X0056801Y0035664D01*
X0056767Y0035698D01*
X0056737Y0035735D01*
X0056709Y0035774D01*
X0056684Y0035816D01*
X0056664Y0035860D01*
X0056646Y0035905D01*
X0056633Y0035951D01*
X0056623Y0035998D01*
X0056617Y0036046D01*
X0056615Y0036094D01*
X0056615Y0032156D02*
X0056617Y0032204D01*
X0056623Y0032252D01*
X0056633Y0032299D01*
X0056646Y0032345D01*
X0056664Y0032390D01*
X0056684Y0032434D01*
X0056709Y0032476D01*
X0056737Y0032515D01*
X0056767Y0032552D01*
X0056801Y0032586D01*
X0056838Y0032618D01*
X0056876Y0032647D01*
X0056917Y0032672D01*
X0056960Y0032694D01*
X0057005Y0032712D01*
X0057051Y0032726D01*
X0057098Y0032737D01*
X0057146Y0032744D01*
X0057194Y0032747D01*
X0057242Y0032746D01*
X0057290Y0032741D01*
X0057338Y0032732D01*
X0057384Y0032720D01*
X0057429Y0032703D01*
X0057473Y0032683D01*
X0057515Y0032660D01*
X0057555Y0032633D01*
X0057593Y0032603D01*
X0057628Y0032570D01*
X0057660Y0032534D01*
X0057690Y0032496D01*
X0057716Y0032455D01*
X0057738Y0032412D01*
X0057758Y0032368D01*
X0057773Y0032323D01*
X0057785Y0032276D01*
X0057793Y0032228D01*
X0057797Y0032180D01*
X0057797Y0032132D01*
X0057793Y0032084D01*
X0057785Y0032036D01*
X0057773Y0031989D01*
X0057758Y0031944D01*
X0057738Y0031900D01*
X0057716Y0031857D01*
X0057690Y0031816D01*
X0057660Y0031778D01*
X0057628Y0031742D01*
X0057593Y0031709D01*
X0057555Y0031679D01*
X0057515Y0031652D01*
X0057473Y0031629D01*
X0057429Y0031609D01*
X0057384Y0031592D01*
X0057338Y0031580D01*
X0057290Y0031571D01*
X0057242Y0031566D01*
X0057194Y0031565D01*
X0057146Y0031568D01*
X0057098Y0031575D01*
X0057051Y0031586D01*
X0057005Y0031600D01*
X0056960Y0031618D01*
X0056917Y0031640D01*
X0056876Y0031665D01*
X0056838Y0031694D01*
X0056801Y0031726D01*
X0056767Y0031760D01*
X0056737Y0031797D01*
X0056709Y0031836D01*
X0056684Y0031878D01*
X0056664Y0031922D01*
X0056646Y0031967D01*
X0056633Y0032013D01*
X0056623Y0032060D01*
X0056617Y0032108D01*
X0056615Y0032156D01*
X0028972Y0136000D02*
X0028974Y0136153D01*
X0028980Y0136307D01*
X0028990Y0136460D01*
X0029004Y0136612D01*
X0029022Y0136765D01*
X0029044Y0136916D01*
X0029069Y0137067D01*
X0029099Y0137218D01*
X0029133Y0137368D01*
X0029170Y0137516D01*
X0029211Y0137664D01*
X0029256Y0137810D01*
X0029305Y0137956D01*
X0029358Y0138100D01*
X0029414Y0138242D01*
X0029474Y0138383D01*
X0029538Y0138523D01*
X0029605Y0138661D01*
X0029676Y0138797D01*
X0029751Y0138931D01*
X0029828Y0139063D01*
X0029910Y0139193D01*
X0029994Y0139321D01*
X0030082Y0139447D01*
X0030173Y0139570D01*
X0030267Y0139691D01*
X0030365Y0139809D01*
X0030465Y0139925D01*
X0030569Y0140038D01*
X0030675Y0140149D01*
X0030784Y0140257D01*
X0030896Y0140362D01*
X0031010Y0140463D01*
X0031128Y0140562D01*
X0031247Y0140658D01*
X0031369Y0140751D01*
X0031494Y0140840D01*
X0031621Y0140927D01*
X0031750Y0141009D01*
X0031881Y0141089D01*
X0032014Y0141165D01*
X0032149Y0141238D01*
X0032286Y0141307D01*
X0032425Y0141372D01*
X0032565Y0141434D01*
X0032707Y0141492D01*
X0032850Y0141547D01*
X0032995Y0141598D01*
X0033141Y0141645D01*
X0033288Y0141688D01*
X0033436Y0141727D01*
X0033585Y0141763D01*
X0033735Y0141794D01*
X0033886Y0141822D01*
X0034037Y0141846D01*
X0034190Y0141866D01*
X0034342Y0141882D01*
X0034495Y0141894D01*
X0034648Y0141902D01*
X0034801Y0141906D01*
X0034955Y0141906D01*
X0035108Y0141902D01*
X0035261Y0141894D01*
X0035414Y0141882D01*
X0035566Y0141866D01*
X0035719Y0141846D01*
X0035870Y0141822D01*
X0036021Y0141794D01*
X0036171Y0141763D01*
X0036320Y0141727D01*
X0036468Y0141688D01*
X0036615Y0141645D01*
X0036761Y0141598D01*
X0036906Y0141547D01*
X0037049Y0141492D01*
X0037191Y0141434D01*
X0037331Y0141372D01*
X0037470Y0141307D01*
X0037607Y0141238D01*
X0037742Y0141165D01*
X0037875Y0141089D01*
X0038006Y0141009D01*
X0038135Y0140927D01*
X0038262Y0140840D01*
X0038387Y0140751D01*
X0038509Y0140658D01*
X0038628Y0140562D01*
X0038746Y0140463D01*
X0038860Y0140362D01*
X0038972Y0140257D01*
X0039081Y0140149D01*
X0039187Y0140038D01*
X0039291Y0139925D01*
X0039391Y0139809D01*
X0039489Y0139691D01*
X0039583Y0139570D01*
X0039674Y0139447D01*
X0039762Y0139321D01*
X0039846Y0139193D01*
X0039928Y0139063D01*
X0040005Y0138931D01*
X0040080Y0138797D01*
X0040151Y0138661D01*
X0040218Y0138523D01*
X0040282Y0138383D01*
X0040342Y0138242D01*
X0040398Y0138100D01*
X0040451Y0137956D01*
X0040500Y0137810D01*
X0040545Y0137664D01*
X0040586Y0137516D01*
X0040623Y0137368D01*
X0040657Y0137218D01*
X0040687Y0137067D01*
X0040712Y0136916D01*
X0040734Y0136765D01*
X0040752Y0136612D01*
X0040766Y0136460D01*
X0040776Y0136307D01*
X0040782Y0136153D01*
X0040784Y0136000D01*
X0040782Y0135847D01*
X0040776Y0135693D01*
X0040766Y0135540D01*
X0040752Y0135388D01*
X0040734Y0135235D01*
X0040712Y0135084D01*
X0040687Y0134933D01*
X0040657Y0134782D01*
X0040623Y0134632D01*
X0040586Y0134484D01*
X0040545Y0134336D01*
X0040500Y0134190D01*
X0040451Y0134044D01*
X0040398Y0133900D01*
X0040342Y0133758D01*
X0040282Y0133617D01*
X0040218Y0133477D01*
X0040151Y0133339D01*
X0040080Y0133203D01*
X0040005Y0133069D01*
X0039928Y0132937D01*
X0039846Y0132807D01*
X0039762Y0132679D01*
X0039674Y0132553D01*
X0039583Y0132430D01*
X0039489Y0132309D01*
X0039391Y0132191D01*
X0039291Y0132075D01*
X0039187Y0131962D01*
X0039081Y0131851D01*
X0038972Y0131743D01*
X0038860Y0131638D01*
X0038746Y0131537D01*
X0038628Y0131438D01*
X0038509Y0131342D01*
X0038387Y0131249D01*
X0038262Y0131160D01*
X0038135Y0131073D01*
X0038006Y0130991D01*
X0037875Y0130911D01*
X0037742Y0130835D01*
X0037607Y0130762D01*
X0037470Y0130693D01*
X0037331Y0130628D01*
X0037191Y0130566D01*
X0037049Y0130508D01*
X0036906Y0130453D01*
X0036761Y0130402D01*
X0036615Y0130355D01*
X0036468Y0130312D01*
X0036320Y0130273D01*
X0036171Y0130237D01*
X0036021Y0130206D01*
X0035870Y0130178D01*
X0035719Y0130154D01*
X0035566Y0130134D01*
X0035414Y0130118D01*
X0035261Y0130106D01*
X0035108Y0130098D01*
X0034955Y0130094D01*
X0034801Y0130094D01*
X0034648Y0130098D01*
X0034495Y0130106D01*
X0034342Y0130118D01*
X0034190Y0130134D01*
X0034037Y0130154D01*
X0033886Y0130178D01*
X0033735Y0130206D01*
X0033585Y0130237D01*
X0033436Y0130273D01*
X0033288Y0130312D01*
X0033141Y0130355D01*
X0032995Y0130402D01*
X0032850Y0130453D01*
X0032707Y0130508D01*
X0032565Y0130566D01*
X0032425Y0130628D01*
X0032286Y0130693D01*
X0032149Y0130762D01*
X0032014Y0130835D01*
X0031881Y0130911D01*
X0031750Y0130991D01*
X0031621Y0131073D01*
X0031494Y0131160D01*
X0031369Y0131249D01*
X0031247Y0131342D01*
X0031128Y0131438D01*
X0031010Y0131537D01*
X0030896Y0131638D01*
X0030784Y0131743D01*
X0030675Y0131851D01*
X0030569Y0131962D01*
X0030465Y0132075D01*
X0030365Y0132191D01*
X0030267Y0132309D01*
X0030173Y0132430D01*
X0030082Y0132553D01*
X0029994Y0132679D01*
X0029910Y0132807D01*
X0029828Y0132937D01*
X0029751Y0133069D01*
X0029676Y0133203D01*
X0029605Y0133339D01*
X0029538Y0133477D01*
X0029474Y0133617D01*
X0029414Y0133758D01*
X0029358Y0133900D01*
X0029305Y0134044D01*
X0029256Y0134190D01*
X0029211Y0134336D01*
X0029170Y0134484D01*
X0029133Y0134632D01*
X0029099Y0134782D01*
X0029069Y0134933D01*
X0029044Y0135084D01*
X0029022Y0135235D01*
X0029004Y0135388D01*
X0028990Y0135540D01*
X0028980Y0135693D01*
X0028974Y0135847D01*
X0028972Y0136000D01*
X0238972Y0136000D02*
X0238974Y0136153D01*
X0238980Y0136307D01*
X0238990Y0136460D01*
X0239004Y0136612D01*
X0239022Y0136765D01*
X0239044Y0136916D01*
X0239069Y0137067D01*
X0239099Y0137218D01*
X0239133Y0137368D01*
X0239170Y0137516D01*
X0239211Y0137664D01*
X0239256Y0137810D01*
X0239305Y0137956D01*
X0239358Y0138100D01*
X0239414Y0138242D01*
X0239474Y0138383D01*
X0239538Y0138523D01*
X0239605Y0138661D01*
X0239676Y0138797D01*
X0239751Y0138931D01*
X0239828Y0139063D01*
X0239910Y0139193D01*
X0239994Y0139321D01*
X0240082Y0139447D01*
X0240173Y0139570D01*
X0240267Y0139691D01*
X0240365Y0139809D01*
X0240465Y0139925D01*
X0240569Y0140038D01*
X0240675Y0140149D01*
X0240784Y0140257D01*
X0240896Y0140362D01*
X0241010Y0140463D01*
X0241128Y0140562D01*
X0241247Y0140658D01*
X0241369Y0140751D01*
X0241494Y0140840D01*
X0241621Y0140927D01*
X0241750Y0141009D01*
X0241881Y0141089D01*
X0242014Y0141165D01*
X0242149Y0141238D01*
X0242286Y0141307D01*
X0242425Y0141372D01*
X0242565Y0141434D01*
X0242707Y0141492D01*
X0242850Y0141547D01*
X0242995Y0141598D01*
X0243141Y0141645D01*
X0243288Y0141688D01*
X0243436Y0141727D01*
X0243585Y0141763D01*
X0243735Y0141794D01*
X0243886Y0141822D01*
X0244037Y0141846D01*
X0244190Y0141866D01*
X0244342Y0141882D01*
X0244495Y0141894D01*
X0244648Y0141902D01*
X0244801Y0141906D01*
X0244955Y0141906D01*
X0245108Y0141902D01*
X0245261Y0141894D01*
X0245414Y0141882D01*
X0245566Y0141866D01*
X0245719Y0141846D01*
X0245870Y0141822D01*
X0246021Y0141794D01*
X0246171Y0141763D01*
X0246320Y0141727D01*
X0246468Y0141688D01*
X0246615Y0141645D01*
X0246761Y0141598D01*
X0246906Y0141547D01*
X0247049Y0141492D01*
X0247191Y0141434D01*
X0247331Y0141372D01*
X0247470Y0141307D01*
X0247607Y0141238D01*
X0247742Y0141165D01*
X0247875Y0141089D01*
X0248006Y0141009D01*
X0248135Y0140927D01*
X0248262Y0140840D01*
X0248387Y0140751D01*
X0248509Y0140658D01*
X0248628Y0140562D01*
X0248746Y0140463D01*
X0248860Y0140362D01*
X0248972Y0140257D01*
X0249081Y0140149D01*
X0249187Y0140038D01*
X0249291Y0139925D01*
X0249391Y0139809D01*
X0249489Y0139691D01*
X0249583Y0139570D01*
X0249674Y0139447D01*
X0249762Y0139321D01*
X0249846Y0139193D01*
X0249928Y0139063D01*
X0250005Y0138931D01*
X0250080Y0138797D01*
X0250151Y0138661D01*
X0250218Y0138523D01*
X0250282Y0138383D01*
X0250342Y0138242D01*
X0250398Y0138100D01*
X0250451Y0137956D01*
X0250500Y0137810D01*
X0250545Y0137664D01*
X0250586Y0137516D01*
X0250623Y0137368D01*
X0250657Y0137218D01*
X0250687Y0137067D01*
X0250712Y0136916D01*
X0250734Y0136765D01*
X0250752Y0136612D01*
X0250766Y0136460D01*
X0250776Y0136307D01*
X0250782Y0136153D01*
X0250784Y0136000D01*
X0250782Y0135847D01*
X0250776Y0135693D01*
X0250766Y0135540D01*
X0250752Y0135388D01*
X0250734Y0135235D01*
X0250712Y0135084D01*
X0250687Y0134933D01*
X0250657Y0134782D01*
X0250623Y0134632D01*
X0250586Y0134484D01*
X0250545Y0134336D01*
X0250500Y0134190D01*
X0250451Y0134044D01*
X0250398Y0133900D01*
X0250342Y0133758D01*
X0250282Y0133617D01*
X0250218Y0133477D01*
X0250151Y0133339D01*
X0250080Y0133203D01*
X0250005Y0133069D01*
X0249928Y0132937D01*
X0249846Y0132807D01*
X0249762Y0132679D01*
X0249674Y0132553D01*
X0249583Y0132430D01*
X0249489Y0132309D01*
X0249391Y0132191D01*
X0249291Y0132075D01*
X0249187Y0131962D01*
X0249081Y0131851D01*
X0248972Y0131743D01*
X0248860Y0131638D01*
X0248746Y0131537D01*
X0248628Y0131438D01*
X0248509Y0131342D01*
X0248387Y0131249D01*
X0248262Y0131160D01*
X0248135Y0131073D01*
X0248006Y0130991D01*
X0247875Y0130911D01*
X0247742Y0130835D01*
X0247607Y0130762D01*
X0247470Y0130693D01*
X0247331Y0130628D01*
X0247191Y0130566D01*
X0247049Y0130508D01*
X0246906Y0130453D01*
X0246761Y0130402D01*
X0246615Y0130355D01*
X0246468Y0130312D01*
X0246320Y0130273D01*
X0246171Y0130237D01*
X0246021Y0130206D01*
X0245870Y0130178D01*
X0245719Y0130154D01*
X0245566Y0130134D01*
X0245414Y0130118D01*
X0245261Y0130106D01*
X0245108Y0130098D01*
X0244955Y0130094D01*
X0244801Y0130094D01*
X0244648Y0130098D01*
X0244495Y0130106D01*
X0244342Y0130118D01*
X0244190Y0130134D01*
X0244037Y0130154D01*
X0243886Y0130178D01*
X0243735Y0130206D01*
X0243585Y0130237D01*
X0243436Y0130273D01*
X0243288Y0130312D01*
X0243141Y0130355D01*
X0242995Y0130402D01*
X0242850Y0130453D01*
X0242707Y0130508D01*
X0242565Y0130566D01*
X0242425Y0130628D01*
X0242286Y0130693D01*
X0242149Y0130762D01*
X0242014Y0130835D01*
X0241881Y0130911D01*
X0241750Y0130991D01*
X0241621Y0131073D01*
X0241494Y0131160D01*
X0241369Y0131249D01*
X0241247Y0131342D01*
X0241128Y0131438D01*
X0241010Y0131537D01*
X0240896Y0131638D01*
X0240784Y0131743D01*
X0240675Y0131851D01*
X0240569Y0131962D01*
X0240465Y0132075D01*
X0240365Y0132191D01*
X0240267Y0132309D01*
X0240173Y0132430D01*
X0240082Y0132553D01*
X0239994Y0132679D01*
X0239910Y0132807D01*
X0239828Y0132937D01*
X0239751Y0133069D01*
X0239676Y0133203D01*
X0239605Y0133339D01*
X0239538Y0133477D01*
X0239474Y0133617D01*
X0239414Y0133758D01*
X0239358Y0133900D01*
X0239305Y0134044D01*
X0239256Y0134190D01*
X0239211Y0134336D01*
X0239170Y0134484D01*
X0239133Y0134632D01*
X0239099Y0134782D01*
X0239069Y0134933D01*
X0239044Y0135084D01*
X0239022Y0135235D01*
X0239004Y0135388D01*
X0238990Y0135540D01*
X0238980Y0135693D01*
X0238974Y0135847D01*
X0238972Y0136000D01*
D11*
X0223928Y0138760D02*
X0221460Y0139995D01*
X0220842Y0141209D02*
X0220225Y0141826D01*
X0220225Y0143061D01*
X0220842Y0143678D01*
X0223311Y0141209D01*
X0223928Y0141826D01*
X0223928Y0143061D01*
X0223311Y0143678D01*
X0220842Y0143678D01*
X0220842Y0141209D02*
X0223311Y0141209D01*
X0223928Y0138760D02*
X0221460Y0137526D01*
X0223928Y0132628D02*
X0223928Y0130160D01*
X0223928Y0131394D02*
X0220225Y0131394D01*
X0221460Y0130160D01*
X0221460Y0125262D02*
X0221460Y0123411D01*
X0222077Y0122793D01*
X0222694Y0123411D01*
X0222694Y0124645D01*
X0223311Y0125262D01*
X0223928Y0124645D01*
X0223928Y0122793D01*
X0223928Y0121572D02*
X0223928Y0120338D01*
X0223928Y0120955D02*
X0221460Y0120955D01*
X0221460Y0120338D01*
X0222077Y0119124D02*
X0223928Y0119124D01*
X0222077Y0119124D02*
X0221460Y0118506D01*
X0221460Y0116655D01*
X0223928Y0116655D01*
X0223928Y0115440D02*
X0223928Y0113589D01*
X0223311Y0112972D01*
X0222694Y0113589D01*
X0222694Y0115440D01*
X0222077Y0115440D02*
X0223928Y0115440D01*
X0222077Y0115440D02*
X0221460Y0114823D01*
X0221460Y0113589D01*
X0221460Y0111751D02*
X0221460Y0110516D01*
X0220842Y0111133D02*
X0223311Y0111133D01*
X0223928Y0111751D01*
X0223928Y0109302D02*
X0223928Y0107450D01*
X0223311Y0106833D01*
X0222077Y0106833D01*
X0221460Y0107450D01*
X0221460Y0109302D01*
X0220842Y0105619D02*
X0220225Y0105002D01*
X0220225Y0103767D01*
X0220842Y0103150D01*
X0223311Y0103150D01*
X0223928Y0103767D01*
X0223928Y0105002D01*
X0223311Y0105619D01*
X0220842Y0105619D01*
X0220225Y0120955D02*
X0219608Y0120955D01*
X0199328Y0129864D02*
X0199328Y0131799D01*
X0199328Y0130831D02*
X0196426Y0130831D01*
X0197393Y0129864D01*
X0196910Y0132810D02*
X0196426Y0133294D01*
X0196426Y0134262D01*
X0196910Y0134745D01*
X0198845Y0132810D01*
X0199328Y0133294D01*
X0199328Y0134262D01*
X0198845Y0134745D01*
X0196910Y0134745D01*
X0196910Y0135757D02*
X0196426Y0136241D01*
X0196426Y0137208D01*
X0196910Y0137692D01*
X0198845Y0135757D01*
X0199328Y0136241D01*
X0199328Y0137208D01*
X0198845Y0137692D01*
X0196910Y0137692D01*
X0197393Y0138703D02*
X0197393Y0140155D01*
X0197877Y0140638D01*
X0199328Y0140638D01*
X0199328Y0138703D02*
X0197393Y0138703D01*
X0196910Y0135757D02*
X0198845Y0135757D01*
X0198845Y0132810D02*
X0196910Y0132810D01*
X0220225Y0148585D02*
X0222077Y0146734D01*
X0222077Y0149203D01*
X0223928Y0148585D02*
X0220225Y0148585D01*
X0223311Y0145509D02*
X0223928Y0145509D01*
X0223928Y0144892D01*
X0223311Y0144892D01*
X0223311Y0145509D01*
X0265828Y0163150D02*
X0265828Y0165085D01*
X0266796Y0166052D01*
X0267763Y0165085D01*
X0267763Y0163150D01*
X0268775Y0163150D02*
X0268775Y0163634D01*
X0270710Y0165569D01*
X0270710Y0166052D01*
X0268775Y0166052D01*
X0267763Y0164601D02*
X0265828Y0164601D01*
X0271721Y0164601D02*
X0271721Y0165085D01*
X0272205Y0165085D01*
X0272205Y0164601D01*
X0271721Y0164601D01*
X0271721Y0163634D02*
X0271721Y0163150D01*
X0272205Y0163150D01*
X0272205Y0163634D01*
X0271721Y0163634D01*
X0273195Y0163150D02*
X0273195Y0165085D01*
X0274162Y0166052D01*
X0275130Y0165085D01*
X0275130Y0163150D01*
X0276141Y0163634D02*
X0278076Y0165569D01*
X0278076Y0163634D01*
X0277592Y0163150D01*
X0276625Y0163150D01*
X0276141Y0163634D01*
X0276141Y0165569D01*
X0276625Y0166052D01*
X0277592Y0166052D01*
X0278076Y0165569D01*
X0275130Y0164601D02*
X0273195Y0164601D01*
X0243562Y0092736D02*
X0243562Y0092252D01*
X0243562Y0091285D02*
X0243079Y0091285D01*
X0243562Y0091285D02*
X0243562Y0089350D01*
X0243079Y0089350D02*
X0244046Y0089350D01*
X0245043Y0089350D02*
X0246494Y0089350D01*
X0246978Y0089834D01*
X0246494Y0090317D01*
X0245527Y0090317D01*
X0245043Y0090801D01*
X0245527Y0091285D01*
X0246978Y0091285D01*
X0247990Y0089834D02*
X0248473Y0089834D01*
X0248473Y0089350D01*
X0247990Y0089350D01*
X0247990Y0089834D01*
X0249463Y0089834D02*
X0249463Y0090801D01*
X0249947Y0091285D01*
X0250914Y0091285D01*
X0251398Y0090801D01*
X0251398Y0089834D01*
X0250914Y0089350D01*
X0249947Y0089350D01*
X0249463Y0089834D01*
X0252409Y0090317D02*
X0253377Y0091285D01*
X0253861Y0091285D01*
X0254865Y0090801D02*
X0254865Y0089834D01*
X0255348Y0089350D01*
X0256800Y0089350D01*
X0256800Y0088866D02*
X0256800Y0091285D01*
X0255348Y0091285D01*
X0254865Y0090801D01*
X0252409Y0091285D02*
X0252409Y0089350D01*
X0255832Y0088383D02*
X0256316Y0088383D01*
X0256800Y0088866D01*
X0242067Y0089350D02*
X0242067Y0090801D01*
X0241583Y0091285D01*
X0240132Y0091285D01*
X0240132Y0089350D01*
X0239121Y0089350D02*
X0237669Y0089350D01*
X0237186Y0089834D01*
X0237669Y0090317D01*
X0239121Y0090317D01*
X0239121Y0090801D02*
X0239121Y0089350D01*
X0239121Y0090801D02*
X0238637Y0091285D01*
X0237669Y0091285D01*
X0236189Y0091285D02*
X0235221Y0091285D01*
X0235705Y0091769D02*
X0235705Y0089834D01*
X0236189Y0089350D01*
X0234210Y0089350D02*
X0232759Y0089350D01*
X0232275Y0089834D01*
X0232275Y0090801D01*
X0232759Y0091285D01*
X0234210Y0091285D01*
X0231263Y0090801D02*
X0231263Y0089834D01*
X0230780Y0089350D01*
X0229812Y0089350D01*
X0229328Y0089834D01*
X0229328Y0090801D01*
X0229812Y0091285D01*
X0230780Y0091285D01*
X0231263Y0090801D01*
X0238138Y0075283D02*
X0239506Y0075283D01*
X0237453Y0073230D01*
X0236769Y0073914D02*
X0238138Y0072546D01*
X0239195Y0072173D02*
X0241931Y0072173D01*
X0240563Y0070805D01*
X0239879Y0070805D01*
X0239195Y0071489D01*
X0239195Y0072173D01*
X0240563Y0073541D01*
X0241247Y0073541D01*
X0241931Y0072857D01*
X0241931Y0072173D01*
X0242647Y0071458D02*
X0243331Y0071458D01*
X0244015Y0070774D01*
X0244015Y0070089D01*
X0241278Y0070089D01*
X0241278Y0069405D01*
X0241963Y0068721D01*
X0242647Y0068721D01*
X0244015Y0070089D01*
X0244388Y0069032D02*
X0245414Y0068006D01*
X0245414Y0067322D01*
X0244388Y0066296D01*
X0243020Y0067664D02*
X0244388Y0069032D01*
X0242647Y0071458D02*
X0241278Y0070089D01*
X0231511Y0064471D02*
X0230827Y0065155D01*
X0230143Y0065155D01*
X0231511Y0064471D02*
X0231511Y0063787D01*
X0231169Y0063445D01*
X0228433Y0063445D01*
X0229801Y0062077D01*
X0230516Y0061361D02*
X0231542Y0060335D01*
X0232226Y0060335D01*
X0232910Y0061019D01*
X0232910Y0061703D01*
X0231884Y0062730D01*
X0229832Y0060677D01*
X0227717Y0064160D02*
X0226349Y0065528D01*
X0227033Y0064844D02*
X0229086Y0066897D01*
X0227717Y0066897D01*
X0219919Y0056246D02*
X0220603Y0055562D01*
X0220603Y0054878D01*
X0220261Y0054536D01*
X0219577Y0054536D01*
X0219577Y0053852D01*
X0219235Y0053510D01*
X0218551Y0053510D01*
X0217867Y0054194D01*
X0217867Y0054878D01*
X0219235Y0054878D02*
X0219577Y0054536D01*
X0219235Y0056246D02*
X0219919Y0056246D01*
X0221318Y0054163D02*
X0222002Y0054163D01*
X0222687Y0053479D01*
X0222687Y0052795D01*
X0222344Y0052453D01*
X0219608Y0052453D01*
X0220976Y0051084D01*
X0221692Y0050369D02*
X0222034Y0050027D01*
X0222376Y0050369D01*
X0222034Y0050711D01*
X0221692Y0050369D01*
X0222733Y0049327D02*
X0223075Y0049669D01*
X0225812Y0049669D01*
X0226154Y0050012D01*
X0224786Y0051380D01*
X0225843Y0048270D02*
X0226869Y0047244D01*
X0226869Y0046560D01*
X0226527Y0046218D01*
X0225843Y0046218D01*
X0225159Y0046902D01*
X0225159Y0047586D01*
X0225843Y0048270D01*
X0227211Y0048270D01*
X0228237Y0047928D01*
X0228611Y0046871D02*
X0228269Y0046529D01*
X0228268Y0045844D01*
X0228953Y0045160D01*
X0228953Y0044476D01*
X0228611Y0044134D01*
X0227926Y0044134D01*
X0227242Y0044818D01*
X0227242Y0045502D01*
X0227584Y0045844D01*
X0228268Y0045844D01*
X0228953Y0045160D02*
X0229637Y0045160D01*
X0229979Y0045502D01*
X0229979Y0046187D01*
X0229295Y0046871D01*
X0228611Y0046871D01*
X0231036Y0045129D02*
X0228984Y0043077D01*
X0229668Y0043761D02*
X0231378Y0043419D01*
X0231746Y0042367D02*
X0233114Y0040999D01*
X0234172Y0040625D02*
X0235540Y0039257D01*
X0232804Y0039257D01*
X0234172Y0037889D01*
X0232088Y0039972D02*
X0234141Y0042025D01*
X0232772Y0043393D02*
X0230720Y0041341D01*
X0230010Y0042051D02*
X0229668Y0043761D01*
X0214102Y0053928D02*
X0213418Y0053244D01*
X0212734Y0053244D01*
X0211708Y0054270D01*
X0211024Y0053586D02*
X0213076Y0055638D01*
X0214102Y0054612D01*
X0214102Y0053928D01*
X0212361Y0056354D02*
X0209624Y0056354D01*
X0210992Y0054985D01*
X0212361Y0056354D02*
X0212703Y0056696D01*
X0212703Y0057380D01*
X0212019Y0058064D01*
X0211335Y0058064D01*
X0210277Y0059805D02*
X0208225Y0057753D01*
X0207541Y0058437D02*
X0208909Y0057069D01*
X0208909Y0059805D02*
X0210277Y0059805D01*
X0208373Y0033052D02*
X0208856Y0032569D01*
X0206921Y0030634D01*
X0207405Y0030150D01*
X0208373Y0030150D01*
X0208856Y0030634D01*
X0208856Y0032569D01*
X0208373Y0033052D02*
X0207405Y0033052D01*
X0206921Y0032569D01*
X0206921Y0030634D01*
X0205910Y0032569D02*
X0203975Y0030634D01*
X0203975Y0030150D01*
X0202480Y0030150D02*
X0202480Y0033052D01*
X0201028Y0031601D01*
X0202963Y0031601D01*
X0203975Y0033052D02*
X0205910Y0033052D01*
X0205910Y0032569D01*
X0209868Y0032085D02*
X0209868Y0030150D01*
X0211803Y0030150D02*
X0211803Y0031601D01*
X0211319Y0032085D01*
X0209868Y0032085D01*
X0171903Y0031801D02*
X0171903Y0030350D01*
X0171903Y0031801D02*
X0171419Y0032285D01*
X0169968Y0032285D01*
X0169968Y0030350D01*
X0168956Y0030834D02*
X0168473Y0030350D01*
X0167505Y0030350D01*
X0167021Y0030834D01*
X0168956Y0032769D01*
X0168956Y0030834D01*
X0167021Y0030834D02*
X0167021Y0032769D01*
X0167505Y0033252D01*
X0168473Y0033252D01*
X0168956Y0032769D01*
X0166010Y0032769D02*
X0164075Y0030834D01*
X0164075Y0030350D01*
X0162580Y0030350D02*
X0162580Y0033252D01*
X0161128Y0031801D01*
X0163063Y0031801D01*
X0164075Y0033252D02*
X0166010Y0033252D01*
X0166010Y0032769D01*
X0146239Y0055435D02*
X0147607Y0056803D01*
X0146239Y0058171D02*
X0145213Y0057145D01*
X0145213Y0056461D01*
X0146239Y0055435D01*
X0144498Y0057860D02*
X0143814Y0057860D01*
X0143129Y0058544D01*
X0143129Y0059228D01*
X0145866Y0059228D01*
X0144498Y0057860D01*
X0145866Y0059228D02*
X0145866Y0059912D01*
X0145182Y0060597D01*
X0144498Y0060597D01*
X0143129Y0059228D01*
X0142072Y0059602D02*
X0140704Y0060970D01*
X0141388Y0060286D02*
X0143440Y0062338D01*
X0142072Y0062338D01*
X0154869Y0064335D02*
X0156921Y0066387D01*
X0154869Y0066387D01*
X0156237Y0065019D01*
X0156268Y0063620D02*
X0156610Y0063278D01*
X0156268Y0062936D01*
X0155926Y0063278D01*
X0156268Y0063620D01*
X0157310Y0062578D02*
X0156968Y0062236D01*
X0157310Y0062578D02*
X0160046Y0062578D01*
X0160388Y0062920D01*
X0159020Y0064288D01*
X0160419Y0061521D02*
X0159393Y0060494D01*
X0159393Y0059810D01*
X0160419Y0058784D01*
X0161788Y0060152D01*
X0162161Y0059095D02*
X0163529Y0057727D01*
X0164555Y0058753D02*
X0162503Y0056701D01*
X0161135Y0058069D02*
X0163187Y0060121D01*
X0136133Y0075760D02*
X0135106Y0076786D01*
X0134422Y0076786D01*
X0133396Y0075760D01*
X0134764Y0074392D01*
X0133707Y0074018D02*
X0133707Y0073334D01*
X0133023Y0072650D01*
X0132339Y0072650D01*
X0132339Y0075387D01*
X0133707Y0074018D01*
X0132339Y0072650D02*
X0130971Y0074018D01*
X0130971Y0074702D01*
X0131655Y0075387D01*
X0132339Y0075387D01*
X0132547Y0076200D02*
X0133915Y0077568D01*
X0133231Y0076884D02*
X0131178Y0078936D01*
X0131178Y0077568D01*
X0132920Y0079994D02*
X0132920Y0080678D01*
X0133604Y0081362D01*
X0134288Y0081362D01*
X0134288Y0078626D01*
X0134972Y0078626D01*
X0135656Y0079310D01*
X0135656Y0079994D01*
X0134288Y0081362D01*
X0135345Y0081735D02*
X0136371Y0080709D01*
X0137056Y0080709D01*
X0138082Y0081735D01*
X0136714Y0083103D01*
X0132920Y0079994D02*
X0134288Y0078626D01*
X0130255Y0073303D02*
X0130255Y0070567D01*
X0130939Y0070567D01*
X0131623Y0071251D01*
X0131624Y0071935D01*
X0130255Y0073303D01*
X0129571Y0073303D01*
X0128887Y0072619D01*
X0128887Y0071935D01*
X0130255Y0070567D01*
X0129882Y0069509D02*
X0128514Y0068141D01*
X0129198Y0068825D02*
X0127146Y0070878D01*
X0127146Y0069509D01*
X0126414Y0056785D02*
X0124362Y0054733D01*
X0123678Y0055417D02*
X0125046Y0054049D01*
X0126103Y0053676D02*
X0127472Y0055044D01*
X0128156Y0055044D01*
X0128840Y0054360D01*
X0128840Y0053676D01*
X0126103Y0053676D01*
X0126103Y0052992D01*
X0126788Y0052307D01*
X0127472Y0052307D01*
X0128840Y0053676D01*
X0129555Y0052960D02*
X0130239Y0052960D01*
X0130923Y0052276D01*
X0130923Y0051592D01*
X0128187Y0051592D01*
X0128187Y0050908D01*
X0128871Y0050224D01*
X0129555Y0050224D01*
X0130923Y0051592D01*
X0131297Y0050535D02*
X0132323Y0049509D01*
X0132323Y0048825D01*
X0131297Y0047798D01*
X0129928Y0049167D02*
X0131297Y0050535D01*
X0129555Y0052960D02*
X0128187Y0051592D01*
X0126414Y0056785D02*
X0125046Y0056785D01*
X0111024Y0047685D02*
X0109573Y0046717D01*
X0111024Y0045750D01*
X0109573Y0045750D02*
X0109573Y0048652D01*
X0107594Y0048652D02*
X0107594Y0045750D01*
X0108561Y0045750D02*
X0106626Y0045750D01*
X0106626Y0047685D02*
X0107594Y0048652D01*
X0105966Y0054450D02*
X0104514Y0055417D01*
X0105966Y0056385D01*
X0104514Y0057352D02*
X0104514Y0054450D01*
X0103503Y0054934D02*
X0103503Y0055901D01*
X0103019Y0056385D01*
X0102052Y0056385D01*
X0101568Y0055901D01*
X0101568Y0054934D01*
X0102052Y0054450D01*
X0103019Y0054450D01*
X0103503Y0054934D01*
X0100556Y0055901D02*
X0098621Y0055901D01*
X0097610Y0055417D02*
X0097610Y0057352D01*
X0097610Y0055417D02*
X0096642Y0054450D01*
X0095675Y0055417D01*
X0095675Y0057352D01*
X0094663Y0056869D02*
X0094663Y0056385D01*
X0094180Y0055901D01*
X0094663Y0055417D01*
X0094663Y0054934D01*
X0094180Y0054450D01*
X0093212Y0054450D01*
X0092728Y0054934D01*
X0093696Y0055901D02*
X0094180Y0055901D01*
X0094663Y0056869D02*
X0094180Y0057352D01*
X0093212Y0057352D01*
X0092728Y0056869D01*
X0082601Y0046336D02*
X0082601Y0044401D01*
X0085503Y0044401D01*
X0085503Y0043389D02*
X0083568Y0043389D01*
X0084052Y0044401D02*
X0084052Y0045368D01*
X0085503Y0043389D02*
X0085503Y0041938D01*
X0085020Y0041454D01*
X0083568Y0041454D01*
X0083568Y0040443D02*
X0083085Y0040443D01*
X0082601Y0039959D01*
X0082601Y0038991D01*
X0083085Y0038508D01*
X0083085Y0037496D02*
X0082601Y0037012D01*
X0082601Y0036045D01*
X0083085Y0035561D01*
X0083085Y0037496D02*
X0083568Y0037496D01*
X0085503Y0035561D01*
X0085503Y0037496D01*
X0085503Y0038508D02*
X0083568Y0040443D01*
X0085503Y0040443D02*
X0085503Y0038508D01*
X0090480Y0033952D02*
X0089028Y0032501D01*
X0090963Y0032501D01*
X0091975Y0031534D02*
X0091975Y0031050D01*
X0091975Y0031534D02*
X0093910Y0033469D01*
X0093910Y0033952D01*
X0091975Y0033952D01*
X0090480Y0033952D02*
X0090480Y0031050D01*
X0094921Y0031534D02*
X0094921Y0033469D01*
X0095405Y0033952D01*
X0096373Y0033952D01*
X0096856Y0033469D01*
X0094921Y0031534D01*
X0095405Y0031050D01*
X0096373Y0031050D01*
X0096856Y0031534D01*
X0096856Y0033469D01*
X0097868Y0032985D02*
X0099319Y0032985D01*
X0099803Y0032501D01*
X0099803Y0031050D01*
X0097868Y0031050D02*
X0097868Y0032985D01*
X0085503Y0031603D02*
X0083568Y0029668D01*
X0085503Y0029668D02*
X0083568Y0031603D01*
X0083568Y0025710D02*
X0084052Y0025226D01*
X0084536Y0025710D01*
X0085020Y0025710D01*
X0085503Y0025226D01*
X0085503Y0024259D01*
X0085020Y0023775D01*
X0084052Y0024742D02*
X0084052Y0025226D01*
X0083568Y0025710D02*
X0083085Y0025710D01*
X0082601Y0025226D01*
X0082601Y0024259D01*
X0083085Y0023775D01*
X0072728Y0013538D02*
X0069826Y0013538D01*
X0070793Y0012571D01*
X0069826Y0011603D01*
X0072728Y0011603D01*
X0072728Y0010592D02*
X0072728Y0008657D01*
X0072728Y0009624D02*
X0069826Y0009624D01*
X0070793Y0008657D01*
X0064828Y0008723D02*
X0064828Y0010658D01*
X0064828Y0009691D02*
X0061926Y0009691D01*
X0062893Y0008723D01*
X0061926Y0011670D02*
X0064828Y0011670D01*
X0063861Y0011670D02*
X0062893Y0013121D01*
X0063861Y0011670D02*
X0064828Y0013121D01*
X0057303Y0013482D02*
X0056820Y0012998D01*
X0055852Y0012998D01*
X0055368Y0013482D01*
X0055368Y0014449D01*
X0055852Y0014933D01*
X0056820Y0014933D01*
X0057303Y0014449D01*
X0057303Y0013482D01*
X0055852Y0011987D02*
X0055852Y0010052D01*
X0056336Y0009040D02*
X0054401Y0009040D01*
X0056336Y0009040D02*
X0057303Y0008073D01*
X0056336Y0007105D01*
X0054401Y0007105D01*
X0054401Y0006093D02*
X0054401Y0004159D01*
X0055852Y0004159D01*
X0055368Y0005126D01*
X0055368Y0005610D01*
X0055852Y0006093D01*
X0056820Y0006093D01*
X0057303Y0005610D01*
X0057303Y0004642D01*
X0056820Y0004159D01*
X0057303Y0015945D02*
X0054401Y0015945D01*
X0055368Y0017396D02*
X0056336Y0015945D01*
X0057303Y0017396D01*
X0056987Y0023405D02*
X0056503Y0023888D01*
X0056987Y0023405D02*
X0057954Y0023405D01*
X0058438Y0023888D01*
X0058438Y0024372D01*
X0057954Y0024856D01*
X0057470Y0024856D01*
X0057954Y0024856D02*
X0058438Y0025340D01*
X0058438Y0025823D01*
X0057954Y0026307D01*
X0056987Y0026307D01*
X0056503Y0025823D01*
X0055491Y0025823D02*
X0055007Y0026307D01*
X0054040Y0026307D01*
X0053556Y0025823D01*
X0055491Y0025823D02*
X0055491Y0025340D01*
X0053556Y0023405D01*
X0055491Y0023405D01*
X0052545Y0023405D02*
X0050610Y0023405D01*
X0051577Y0023405D02*
X0051577Y0026307D01*
X0050610Y0025340D01*
X0049598Y0026307D02*
X0048631Y0025823D01*
X0047663Y0024856D01*
X0049114Y0024856D01*
X0049598Y0024372D01*
X0049598Y0023888D01*
X0049114Y0023405D01*
X0048147Y0023405D01*
X0047663Y0023888D01*
X0047663Y0024856D01*
X0046652Y0024372D02*
X0046652Y0023888D01*
X0046168Y0023405D01*
X0045200Y0023405D01*
X0044717Y0023888D01*
X0045200Y0024856D02*
X0046168Y0024856D01*
X0046652Y0024372D01*
X0046652Y0025823D02*
X0046168Y0026307D01*
X0045200Y0026307D01*
X0044717Y0025823D01*
X0044717Y0025340D01*
X0045200Y0024856D01*
X0043705Y0024856D02*
X0043221Y0024372D01*
X0041770Y0024372D01*
X0041770Y0023405D02*
X0041770Y0026307D01*
X0043221Y0026307D01*
X0043705Y0025823D01*
X0043705Y0024856D01*
X0040759Y0026307D02*
X0038824Y0026307D01*
X0039791Y0026307D02*
X0039791Y0023405D01*
X0038759Y0029223D02*
X0038275Y0029707D01*
X0038275Y0030674D01*
X0038759Y0031158D01*
X0039242Y0031158D01*
X0041177Y0029223D01*
X0041177Y0031158D01*
X0041177Y0032170D02*
X0039242Y0034105D01*
X0038759Y0034105D01*
X0038275Y0033621D01*
X0038275Y0032653D01*
X0038759Y0032170D01*
X0041177Y0032170D02*
X0041177Y0034105D01*
X0040694Y0035116D02*
X0039242Y0035116D01*
X0040694Y0035116D02*
X0041177Y0035600D01*
X0041177Y0037051D01*
X0039242Y0037051D01*
X0039726Y0038063D02*
X0039726Y0039030D01*
X0038275Y0038063D02*
X0038275Y0039998D01*
X0038275Y0038063D02*
X0041177Y0038063D01*
X0046310Y0049675D02*
X0048245Y0049675D01*
X0047278Y0049675D02*
X0047278Y0052577D01*
X0046310Y0051610D01*
X0049257Y0052577D02*
X0049257Y0049675D01*
X0051192Y0049675D02*
X0051192Y0052577D01*
X0050224Y0051610D01*
X0049257Y0052577D01*
X0062503Y0044960D02*
X0063471Y0045927D01*
X0063471Y0043025D01*
X0064438Y0043025D02*
X0062503Y0043025D01*
X0065450Y0043509D02*
X0065450Y0045444D01*
X0065934Y0045927D01*
X0066901Y0045927D01*
X0067385Y0045444D01*
X0065450Y0043509D01*
X0065934Y0043025D01*
X0066901Y0043025D01*
X0067385Y0043509D01*
X0067385Y0045444D01*
X0068396Y0044960D02*
X0069848Y0044960D01*
X0070331Y0044476D01*
X0070331Y0043025D01*
X0071343Y0043025D02*
X0071343Y0045927D01*
X0073278Y0045927D01*
X0072310Y0044476D02*
X0071343Y0044476D01*
X0068396Y0044960D02*
X0068396Y0043025D01*
X0060901Y0026307D02*
X0059933Y0026307D01*
X0059449Y0025823D01*
X0060901Y0026307D02*
X0061384Y0025823D01*
X0061384Y0025340D01*
X0059449Y0023405D01*
X0061384Y0023405D01*
X0014028Y0023665D02*
X0011126Y0023665D01*
X0014028Y0025600D01*
X0011126Y0025600D01*
X0011126Y0026611D02*
X0011126Y0028063D01*
X0011610Y0028546D01*
X0013545Y0028546D01*
X0014028Y0028063D01*
X0014028Y0026611D01*
X0011126Y0026611D01*
X0011126Y0029558D02*
X0014028Y0029558D01*
X0013545Y0022653D02*
X0012577Y0022653D01*
X0012577Y0021686D01*
X0011610Y0022653D02*
X0011126Y0022169D01*
X0011126Y0021202D01*
X0011610Y0020718D01*
X0013545Y0020718D01*
X0014028Y0021202D01*
X0014028Y0022169D01*
X0013545Y0022653D01*
X0014028Y0019736D02*
X0011126Y0019736D01*
X0011126Y0012831D02*
X0013061Y0012831D01*
X0014028Y0011864D01*
X0013061Y0010897D01*
X0011126Y0010897D01*
X0011126Y0009885D02*
X0011126Y0007950D01*
X0012577Y0007950D01*
X0012093Y0008917D01*
X0012093Y0009401D01*
X0012577Y0009885D01*
X0013545Y0009885D01*
X0014028Y0009401D01*
X0014028Y0008434D01*
X0013545Y0007950D01*
X0013545Y0042326D02*
X0014028Y0042810D01*
X0014028Y0043777D01*
X0013545Y0044261D01*
X0013061Y0044261D01*
X0012577Y0043777D01*
X0012577Y0043294D01*
X0012577Y0043777D02*
X0012093Y0044261D01*
X0011610Y0044261D01*
X0011126Y0043777D01*
X0011126Y0042810D01*
X0011610Y0042326D01*
X0013545Y0045273D02*
X0013545Y0045756D01*
X0014028Y0045756D01*
X0014028Y0045273D01*
X0013545Y0045273D01*
X0013545Y0046746D02*
X0014028Y0047230D01*
X0014028Y0048197D01*
X0013545Y0048681D01*
X0013061Y0048681D01*
X0012577Y0048197D01*
X0012577Y0047713D01*
X0012577Y0048197D02*
X0012093Y0048681D01*
X0011610Y0048681D01*
X0011126Y0048197D01*
X0011126Y0047230D01*
X0011610Y0046746D01*
X0011126Y0049692D02*
X0013061Y0049692D01*
X0014028Y0050660D01*
X0013061Y0051627D01*
X0011126Y0051627D01*
X0011126Y0061478D02*
X0014028Y0061478D01*
X0013545Y0074247D02*
X0014028Y0074730D01*
X0014028Y0075698D01*
X0013545Y0076182D01*
X0012577Y0076182D01*
X0012577Y0075214D01*
X0011610Y0074247D02*
X0011126Y0074730D01*
X0011126Y0075698D01*
X0011610Y0076182D01*
X0011126Y0077193D02*
X0014028Y0079128D01*
X0011126Y0079128D01*
X0011126Y0080140D02*
X0011126Y0081591D01*
X0011610Y0082075D01*
X0013545Y0082075D01*
X0014028Y0081591D01*
X0014028Y0080140D01*
X0011126Y0080140D01*
X0011126Y0077193D02*
X0014028Y0077193D01*
X0013545Y0074247D02*
X0011610Y0074247D01*
X0035726Y0074148D02*
X0035726Y0073180D01*
X0036210Y0072697D01*
X0038145Y0072697D01*
X0038628Y0073180D01*
X0038628Y0074148D01*
X0038145Y0074631D01*
X0038628Y0075643D02*
X0035726Y0075643D01*
X0036210Y0074631D02*
X0035726Y0074148D01*
X0036210Y0071685D02*
X0035726Y0071201D01*
X0035726Y0070234D01*
X0036210Y0069750D01*
X0036693Y0069750D01*
X0037177Y0070234D01*
X0037177Y0071201D01*
X0037661Y0071685D01*
X0038145Y0071685D01*
X0038628Y0071201D01*
X0038628Y0070234D01*
X0038145Y0069750D01*
X0038628Y0075643D02*
X0038628Y0077578D01*
X0047926Y0082984D02*
X0048410Y0082500D01*
X0047926Y0082984D02*
X0047926Y0083951D01*
X0048410Y0084435D01*
X0048893Y0084435D01*
X0050828Y0082500D01*
X0050828Y0084435D01*
X0050828Y0085447D02*
X0050828Y0085930D01*
X0050345Y0085930D01*
X0050345Y0085447D01*
X0050828Y0085447D01*
X0050828Y0086920D02*
X0048893Y0088855D01*
X0048410Y0088855D01*
X0047926Y0088371D01*
X0047926Y0087404D01*
X0048410Y0086920D01*
X0050828Y0086920D02*
X0050828Y0088855D01*
X0050828Y0089866D02*
X0048893Y0089866D01*
X0048893Y0091318D01*
X0049377Y0091801D01*
X0050828Y0091801D01*
X0058276Y0099917D02*
X0059243Y0098950D01*
X0058276Y0099917D02*
X0061178Y0099917D01*
X0061178Y0098950D02*
X0061178Y0100885D01*
X0060695Y0101897D02*
X0058760Y0103831D01*
X0060695Y0103831D01*
X0061178Y0103348D01*
X0061178Y0102380D01*
X0060695Y0101897D01*
X0058760Y0101897D01*
X0058276Y0102380D01*
X0058276Y0103348D01*
X0058760Y0103831D01*
X0058760Y0104843D02*
X0058276Y0105327D01*
X0058276Y0106294D01*
X0058760Y0106778D01*
X0060695Y0104843D01*
X0061178Y0105327D01*
X0061178Y0106294D01*
X0060695Y0106778D01*
X0058760Y0106778D01*
X0059243Y0107790D02*
X0059243Y0109241D01*
X0059727Y0109725D01*
X0061178Y0109725D01*
X0061178Y0107790D02*
X0059243Y0107790D01*
X0058760Y0104843D02*
X0060695Y0104843D01*
X0049841Y0105873D02*
X0049357Y0105390D01*
X0048390Y0105390D01*
X0047906Y0105873D01*
X0049841Y0107808D01*
X0049841Y0105873D01*
X0047906Y0105873D02*
X0047906Y0107808D01*
X0048390Y0108292D01*
X0049357Y0108292D01*
X0049841Y0107808D01*
X0046895Y0107808D02*
X0046895Y0107325D01*
X0046411Y0106841D01*
X0045443Y0106841D01*
X0044960Y0107325D01*
X0044960Y0107808D01*
X0045443Y0108292D01*
X0046411Y0108292D01*
X0046895Y0107808D01*
X0046411Y0106841D02*
X0046895Y0106357D01*
X0046895Y0105873D01*
X0046411Y0105390D01*
X0045443Y0105390D01*
X0044960Y0105873D01*
X0044960Y0106357D01*
X0045443Y0106841D01*
X0043948Y0107325D02*
X0043948Y0107808D01*
X0043464Y0108292D01*
X0042497Y0108292D01*
X0042013Y0107808D01*
X0041002Y0108292D02*
X0039067Y0108292D01*
X0039067Y0105390D01*
X0041002Y0105390D01*
X0042013Y0105390D02*
X0043948Y0107325D01*
X0043948Y0105390D02*
X0042013Y0105390D01*
X0040034Y0106841D02*
X0039067Y0106841D01*
X0038055Y0108292D02*
X0038055Y0105390D01*
X0036120Y0105390D02*
X0036120Y0108292D01*
X0037088Y0107325D01*
X0038055Y0108292D01*
X0035109Y0107808D02*
X0035109Y0107325D01*
X0034625Y0106841D01*
X0033174Y0106841D01*
X0034625Y0106841D02*
X0035109Y0106357D01*
X0035109Y0105873D01*
X0034625Y0105390D01*
X0033174Y0105390D01*
X0033174Y0108292D01*
X0034625Y0108292D01*
X0035109Y0107808D01*
X0031674Y0108085D02*
X0030223Y0107117D01*
X0031674Y0106150D01*
X0030223Y0106150D02*
X0030223Y0109052D01*
X0029211Y0108569D02*
X0027276Y0106634D01*
X0027760Y0106150D01*
X0028728Y0106150D01*
X0029211Y0106634D01*
X0029211Y0108569D01*
X0028728Y0109052D01*
X0027760Y0109052D01*
X0027276Y0108569D01*
X0027276Y0106634D01*
X0026265Y0106150D02*
X0024330Y0106150D01*
X0025297Y0106150D02*
X0025297Y0109052D01*
X0024330Y0108085D01*
X0025547Y0102652D02*
X0025547Y0099750D01*
X0024580Y0099750D02*
X0026515Y0099750D01*
X0027526Y0100234D02*
X0029461Y0102169D01*
X0029461Y0100234D01*
X0028978Y0099750D01*
X0028010Y0099750D01*
X0027526Y0100234D01*
X0027526Y0102169D01*
X0028010Y0102652D01*
X0028978Y0102652D01*
X0029461Y0102169D01*
X0030473Y0102652D02*
X0030473Y0099750D01*
X0030473Y0100717D02*
X0031924Y0101685D01*
X0030473Y0100717D02*
X0031924Y0099750D01*
X0035726Y0100197D02*
X0035726Y0101649D01*
X0036210Y0102132D01*
X0038145Y0102132D01*
X0038628Y0101649D01*
X0038628Y0100197D01*
X0035726Y0100197D01*
X0035726Y0099186D02*
X0038628Y0099186D01*
X0035726Y0097251D01*
X0038628Y0097251D01*
X0038145Y0096239D02*
X0037177Y0096239D01*
X0037177Y0095272D01*
X0036210Y0096239D02*
X0035726Y0095756D01*
X0035726Y0094788D01*
X0036210Y0094304D01*
X0038145Y0094304D01*
X0038628Y0094788D01*
X0038628Y0095756D01*
X0038145Y0096239D01*
X0038628Y0090376D02*
X0035726Y0090376D01*
X0024580Y0101685D02*
X0025547Y0102652D01*
X0014028Y0108124D02*
X0013545Y0107641D01*
X0014028Y0108124D02*
X0014028Y0109092D01*
X0013545Y0109576D01*
X0013061Y0109576D01*
X0012577Y0109092D01*
X0012577Y0108124D01*
X0012093Y0107641D01*
X0011610Y0107641D01*
X0011126Y0108124D01*
X0011126Y0109092D01*
X0011610Y0109576D01*
X0011126Y0110587D02*
X0014028Y0110587D01*
X0014028Y0112038D01*
X0013545Y0112522D01*
X0011610Y0112522D01*
X0011126Y0112038D01*
X0011126Y0110587D01*
X0012093Y0113534D02*
X0011126Y0114501D01*
X0012093Y0115469D01*
X0014028Y0115469D01*
X0012577Y0115469D02*
X0012577Y0113534D01*
X0012093Y0113534D02*
X0014028Y0113534D01*
X0026228Y0114150D02*
X0028163Y0114150D01*
X0027196Y0114150D02*
X0027196Y0117052D01*
X0026228Y0116085D01*
X0029175Y0117052D02*
X0029175Y0114150D01*
X0029175Y0115117D02*
X0030626Y0114150D01*
X0029175Y0115117D02*
X0030626Y0116085D01*
X0030726Y0120150D02*
X0029275Y0121117D01*
X0030726Y0122085D01*
X0029275Y0123052D02*
X0029275Y0120150D01*
X0028263Y0120150D02*
X0026328Y0120150D01*
X0027296Y0120150D02*
X0027296Y0123052D01*
X0026328Y0122085D01*
X0040342Y0122850D02*
X0042277Y0122850D01*
X0043289Y0122850D02*
X0045224Y0122850D01*
X0046235Y0122850D02*
X0047686Y0122850D01*
X0048170Y0123334D01*
X0048170Y0125269D01*
X0047686Y0125752D01*
X0046235Y0125752D01*
X0046235Y0122850D01*
X0044256Y0124301D02*
X0043289Y0124301D01*
X0043289Y0125752D02*
X0043289Y0122850D01*
X0043289Y0125752D02*
X0045224Y0125752D01*
X0049182Y0124785D02*
X0050149Y0125752D01*
X0050149Y0122850D01*
X0049182Y0122850D02*
X0051117Y0122850D01*
X0050833Y0117052D02*
X0051317Y0116569D01*
X0049382Y0114634D01*
X0049866Y0114150D01*
X0050833Y0114150D01*
X0051317Y0114634D01*
X0051317Y0116569D01*
X0050833Y0117052D02*
X0049866Y0117052D01*
X0049382Y0116569D01*
X0049382Y0114634D01*
X0048370Y0114634D02*
X0048370Y0116569D01*
X0047886Y0117052D01*
X0046435Y0117052D01*
X0046435Y0114150D01*
X0047886Y0114150D01*
X0048370Y0114634D01*
X0045424Y0114150D02*
X0043489Y0114150D01*
X0043489Y0117052D01*
X0045424Y0117052D01*
X0044456Y0115601D02*
X0043489Y0115601D01*
X0042477Y0114150D02*
X0040542Y0114150D01*
X0040542Y0117052D01*
X0040342Y0122850D02*
X0040342Y0125752D01*
X0062051Y0123445D02*
X0064953Y0123445D01*
X0063986Y0123445D02*
X0063018Y0124896D01*
X0063986Y0123445D02*
X0064953Y0124896D01*
X0064470Y0122433D02*
X0062535Y0122433D01*
X0064470Y0120498D01*
X0064953Y0120982D01*
X0064953Y0121949D01*
X0064470Y0122433D01*
X0064470Y0120498D02*
X0062535Y0120498D01*
X0062051Y0120982D01*
X0062051Y0121949D01*
X0062535Y0122433D01*
X0064953Y0119487D02*
X0064953Y0117552D01*
X0064953Y0118519D02*
X0062051Y0118519D01*
X0063018Y0117552D01*
X0063228Y0129350D02*
X0063228Y0132252D01*
X0064196Y0131285D01*
X0065163Y0132252D01*
X0065163Y0129350D01*
X0066175Y0129350D02*
X0067142Y0129350D01*
X0066659Y0129350D02*
X0066659Y0132252D01*
X0067142Y0132252D02*
X0066175Y0132252D01*
X0068139Y0131769D02*
X0068139Y0131285D01*
X0068623Y0130801D01*
X0069590Y0130801D01*
X0070074Y0130317D01*
X0070074Y0129834D01*
X0069590Y0129350D01*
X0068623Y0129350D01*
X0068139Y0129834D01*
X0068139Y0131769D02*
X0068623Y0132252D01*
X0069590Y0132252D01*
X0070074Y0131769D01*
X0071086Y0131769D02*
X0071086Y0129834D01*
X0071569Y0129350D01*
X0072537Y0129350D01*
X0073021Y0129834D01*
X0073021Y0131769D01*
X0072537Y0132252D01*
X0071569Y0132252D01*
X0071086Y0131769D01*
X0076979Y0132252D02*
X0076979Y0129350D01*
X0078914Y0129350D02*
X0078914Y0132252D01*
X0077946Y0131285D01*
X0076979Y0132252D01*
X0079925Y0131769D02*
X0079925Y0129834D01*
X0080409Y0129350D01*
X0081376Y0129350D01*
X0081860Y0129834D01*
X0081860Y0131769D01*
X0081376Y0132252D01*
X0080409Y0132252D01*
X0079925Y0131769D01*
X0082872Y0131769D02*
X0082872Y0131285D01*
X0083355Y0130801D01*
X0084323Y0130801D01*
X0084807Y0130317D01*
X0084807Y0129834D01*
X0084323Y0129350D01*
X0083355Y0129350D01*
X0082872Y0129834D01*
X0082872Y0131769D02*
X0083355Y0132252D01*
X0084323Y0132252D01*
X0084807Y0131769D01*
X0085818Y0132252D02*
X0086786Y0132252D01*
X0086302Y0132252D02*
X0086302Y0129350D01*
X0085818Y0129350D02*
X0086786Y0129350D01*
X0090729Y0132252D02*
X0092664Y0132252D01*
X0091697Y0132252D02*
X0091697Y0129350D01*
X0093676Y0129350D02*
X0093676Y0132252D01*
X0095611Y0132252D01*
X0094643Y0130801D02*
X0093676Y0130801D01*
X0093676Y0129350D02*
X0095611Y0129350D01*
X0099569Y0129834D02*
X0100052Y0129350D01*
X0101020Y0129350D01*
X0101504Y0129834D01*
X0102515Y0129350D02*
X0104450Y0129350D01*
X0105462Y0129350D02*
X0105462Y0132252D01*
X0105945Y0130801D02*
X0107397Y0129350D01*
X0105462Y0130317D02*
X0107397Y0132252D01*
X0102515Y0132252D02*
X0102515Y0129350D01*
X0101504Y0131769D02*
X0101020Y0132252D01*
X0100052Y0132252D01*
X0099569Y0131769D01*
X0099569Y0129834D01*
X0120653Y0150000D02*
X0122588Y0150000D01*
X0121621Y0150000D02*
X0121621Y0152902D01*
X0120653Y0151935D01*
X0123600Y0152419D02*
X0123600Y0150484D01*
X0125535Y0152419D01*
X0125535Y0150484D01*
X0125051Y0150000D01*
X0124084Y0150000D01*
X0123600Y0150484D01*
X0123600Y0152419D02*
X0124084Y0152902D01*
X0125051Y0152902D01*
X0125535Y0152419D01*
X0126546Y0152419D02*
X0127030Y0152902D01*
X0127998Y0152902D01*
X0128481Y0152419D01*
X0126546Y0150484D01*
X0127030Y0150000D01*
X0127998Y0150000D01*
X0128481Y0150484D01*
X0128481Y0152419D01*
X0129493Y0151935D02*
X0130944Y0151935D01*
X0131428Y0151451D01*
X0131428Y0150000D01*
X0129493Y0150000D02*
X0129493Y0151935D01*
X0126546Y0152419D02*
X0126546Y0150484D01*
X0158676Y0130776D02*
X0160044Y0129408D01*
X0159360Y0130092D02*
X0161412Y0132144D01*
X0160044Y0132144D01*
X0162470Y0130403D02*
X0161101Y0129035D01*
X0163838Y0129035D01*
X0162470Y0127666D01*
X0161786Y0127666D01*
X0161101Y0128350D01*
X0161101Y0129035D01*
X0162470Y0130403D02*
X0163154Y0130403D01*
X0163838Y0129719D01*
X0163838Y0129035D01*
X0164553Y0128319D02*
X0165237Y0128319D01*
X0165921Y0127635D01*
X0165921Y0126951D01*
X0163185Y0126951D01*
X0163185Y0126267D01*
X0163869Y0125583D01*
X0164553Y0125583D01*
X0165921Y0126951D01*
X0166295Y0125894D02*
X0167321Y0124868D01*
X0167321Y0124183D01*
X0166295Y0123157D01*
X0164926Y0124525D02*
X0166295Y0125894D01*
X0164553Y0128319D02*
X0163185Y0126951D01*
X0151895Y0117363D02*
X0151895Y0116679D01*
X0149158Y0116679D01*
X0149158Y0115995D01*
X0149843Y0115311D01*
X0150527Y0115311D01*
X0151895Y0116679D01*
X0151895Y0117363D02*
X0151211Y0118048D01*
X0150527Y0118048D01*
X0149158Y0116679D01*
X0150900Y0114254D02*
X0152952Y0116306D01*
X0153978Y0115280D01*
X0153978Y0114596D01*
X0153294Y0113912D01*
X0152610Y0113912D01*
X0151584Y0114938D01*
X0152268Y0114254D02*
X0152268Y0112885D01*
X0101017Y0104944D02*
X0100533Y0105427D01*
X0099566Y0105427D01*
X0099082Y0104944D01*
X0099082Y0103009D01*
X0099566Y0102525D01*
X0100533Y0102525D01*
X0101017Y0103009D01*
X0098070Y0103976D02*
X0096135Y0103976D01*
X0097586Y0105427D01*
X0097586Y0102525D01*
X0095124Y0103009D02*
X0095124Y0103492D01*
X0094640Y0103976D01*
X0093189Y0103976D01*
X0093189Y0103009D01*
X0093672Y0102525D01*
X0094640Y0102525D01*
X0095124Y0103009D01*
X0094156Y0104944D02*
X0093189Y0103976D01*
X0094156Y0104944D02*
X0095124Y0105427D01*
X0092177Y0104944D02*
X0090242Y0103009D01*
X0090726Y0102525D01*
X0091693Y0102525D01*
X0092177Y0103009D01*
X0092177Y0104944D01*
X0091693Y0105427D01*
X0090726Y0105427D01*
X0090242Y0104944D01*
X0090242Y0103009D01*
X0088263Y0103976D02*
X0087296Y0103976D01*
X0086284Y0103492D02*
X0086284Y0105427D01*
X0087296Y0105427D02*
X0087296Y0102525D01*
X0086284Y0103492D02*
X0085317Y0102525D01*
X0084349Y0103492D01*
X0084349Y0105427D01*
X0083338Y0105427D02*
X0081403Y0105427D01*
X0081403Y0103976D01*
X0082370Y0104460D01*
X0082854Y0104460D01*
X0083338Y0103976D01*
X0083338Y0103009D01*
X0082854Y0102525D01*
X0081886Y0102525D01*
X0081403Y0103009D01*
X0080391Y0102525D02*
X0078456Y0102525D01*
X0080391Y0104460D01*
X0080391Y0104944D01*
X0079907Y0105427D01*
X0078940Y0105427D01*
X0078456Y0104944D01*
X0077445Y0105427D02*
X0075510Y0105427D01*
X0076477Y0105427D02*
X0076477Y0102525D01*
X0074498Y0103009D02*
X0074014Y0102525D01*
X0073047Y0102525D01*
X0072563Y0103009D01*
X0071552Y0103009D02*
X0071068Y0102525D01*
X0070100Y0102525D01*
X0069617Y0103009D01*
X0070100Y0103976D02*
X0071068Y0103976D01*
X0071552Y0103492D01*
X0071552Y0103009D01*
X0070100Y0103976D02*
X0069617Y0104460D01*
X0069617Y0104944D01*
X0070100Y0105427D01*
X0071068Y0105427D01*
X0071552Y0104944D01*
X0072563Y0104944D02*
X0072563Y0104460D01*
X0073047Y0103976D01*
X0074014Y0103976D01*
X0074498Y0103492D01*
X0074498Y0103009D01*
X0074498Y0104944D02*
X0074014Y0105427D01*
X0073047Y0105427D01*
X0072563Y0104944D01*
X0081796Y0095352D02*
X0080828Y0094385D01*
X0081796Y0095352D02*
X0081796Y0092450D01*
X0082763Y0092450D02*
X0080828Y0092450D01*
X0083775Y0092934D02*
X0083775Y0094869D01*
X0084259Y0095352D01*
X0085226Y0095352D01*
X0085710Y0094869D01*
X0083775Y0092934D01*
X0084259Y0092450D01*
X0085226Y0092450D01*
X0085710Y0092934D01*
X0085710Y0094869D01*
X0086721Y0094869D02*
X0087205Y0095352D01*
X0088173Y0095352D01*
X0088656Y0094869D01*
X0086721Y0092934D01*
X0087205Y0092450D01*
X0088173Y0092450D01*
X0088656Y0092934D01*
X0088656Y0094869D01*
X0089668Y0094385D02*
X0091119Y0094385D01*
X0091603Y0093901D01*
X0091603Y0092450D01*
X0089668Y0092450D02*
X0089668Y0094385D01*
X0086721Y0094869D02*
X0086721Y0092934D01*
X0087405Y0081052D02*
X0086921Y0080569D01*
X0086921Y0078634D01*
X0088856Y0080569D01*
X0088856Y0078634D01*
X0088373Y0078150D01*
X0087405Y0078150D01*
X0086921Y0078634D01*
X0085910Y0078634D02*
X0085426Y0078150D01*
X0084459Y0078150D01*
X0083975Y0078634D01*
X0085910Y0080569D01*
X0085910Y0078634D01*
X0085910Y0080569D02*
X0085426Y0081052D01*
X0084459Y0081052D01*
X0083975Y0080569D01*
X0083975Y0078634D01*
X0082963Y0078150D02*
X0081028Y0078150D01*
X0081996Y0078150D02*
X0081996Y0081052D01*
X0081028Y0080085D01*
X0087405Y0081052D02*
X0088373Y0081052D01*
X0088856Y0080569D01*
X0089868Y0080085D02*
X0091319Y0080085D01*
X0091803Y0079601D01*
X0091803Y0078150D01*
X0089868Y0078150D02*
X0089868Y0080085D01*
X0084886Y0073152D02*
X0083919Y0073152D01*
X0083435Y0072669D01*
X0083435Y0070734D01*
X0085370Y0072669D01*
X0085370Y0070734D01*
X0084886Y0070250D01*
X0083919Y0070250D01*
X0083435Y0070734D01*
X0082424Y0070250D02*
X0080489Y0070250D01*
X0081456Y0070250D02*
X0081456Y0073152D01*
X0080489Y0072185D01*
X0079595Y0071655D02*
X0077661Y0069720D01*
X0078144Y0069236D01*
X0079112Y0069236D01*
X0079595Y0069720D01*
X0079595Y0071655D01*
X0079112Y0072138D01*
X0078144Y0072138D01*
X0077661Y0071655D01*
X0077661Y0069720D01*
X0076649Y0069720D02*
X0076165Y0069236D01*
X0075198Y0069236D01*
X0074714Y0069720D01*
X0074714Y0070687D02*
X0075681Y0071171D01*
X0076165Y0071171D01*
X0076649Y0070687D01*
X0076649Y0069720D01*
X0074714Y0070687D02*
X0074714Y0072138D01*
X0076649Y0072138D01*
X0073702Y0071655D02*
X0073702Y0069720D01*
X0073219Y0069236D01*
X0072251Y0069236D01*
X0071767Y0069720D01*
X0073702Y0071655D01*
X0073219Y0072138D01*
X0072251Y0072138D01*
X0071767Y0071655D01*
X0071767Y0069720D01*
X0070756Y0069720D02*
X0070756Y0070203D01*
X0070272Y0070687D01*
X0068821Y0070687D01*
X0068821Y0069720D01*
X0069305Y0069236D01*
X0070272Y0069236D01*
X0070756Y0069720D01*
X0069788Y0071655D02*
X0068821Y0070687D01*
X0067809Y0070687D02*
X0065874Y0070687D01*
X0064863Y0069720D02*
X0064863Y0072138D01*
X0062928Y0072138D02*
X0062928Y0069720D01*
X0063412Y0069236D01*
X0064379Y0069236D01*
X0064863Y0069720D01*
X0061916Y0070687D02*
X0061916Y0071655D01*
X0061433Y0072138D01*
X0059981Y0072138D01*
X0059981Y0069236D01*
X0059981Y0070203D02*
X0061433Y0070203D01*
X0061916Y0070687D01*
X0058970Y0072138D02*
X0058970Y0069236D01*
X0057035Y0069236D02*
X0057035Y0072138D01*
X0058002Y0071171D01*
X0058970Y0072138D01*
X0069788Y0071655D02*
X0070756Y0072138D01*
X0084886Y0073152D02*
X0085370Y0072669D01*
X0086382Y0072185D02*
X0087833Y0072185D01*
X0088317Y0071701D01*
X0088317Y0070250D01*
X0086382Y0070250D02*
X0086382Y0072185D01*
X0087296Y0105427D02*
X0089231Y0105427D01*
X0064095Y0134518D02*
X0064578Y0135001D01*
X0064578Y0135969D01*
X0064095Y0136453D01*
X0063611Y0136453D01*
X0063127Y0135969D01*
X0063127Y0135001D01*
X0062643Y0134518D01*
X0062160Y0134518D01*
X0061676Y0135001D01*
X0061676Y0135969D01*
X0062160Y0136453D01*
X0061676Y0137464D02*
X0061676Y0138915D01*
X0062160Y0139399D01*
X0063127Y0139399D01*
X0063611Y0138915D01*
X0063611Y0137464D01*
X0064578Y0137464D02*
X0061676Y0137464D01*
X0061676Y0140411D02*
X0061676Y0141378D01*
X0061676Y0140894D02*
X0064578Y0140894D01*
X0064578Y0140411D02*
X0064578Y0141378D01*
X0014028Y0137582D02*
X0013061Y0138550D01*
X0011126Y0138550D01*
X0011126Y0136615D02*
X0013061Y0136615D01*
X0014028Y0137582D01*
X0013545Y0135603D02*
X0014028Y0135119D01*
X0014028Y0134152D01*
X0013545Y0133668D01*
X0013545Y0132679D02*
X0014028Y0132679D01*
X0014028Y0132195D01*
X0013545Y0132195D01*
X0013545Y0132679D01*
X0013545Y0131183D02*
X0014028Y0130700D01*
X0014028Y0129732D01*
X0013545Y0129248D01*
X0012577Y0130216D02*
X0012577Y0130700D01*
X0013061Y0131183D01*
X0013545Y0131183D01*
X0012577Y0130700D02*
X0012093Y0131183D01*
X0011610Y0131183D01*
X0011126Y0130700D01*
X0011126Y0129732D01*
X0011610Y0129248D01*
X0011126Y0125320D02*
X0014028Y0125320D01*
X0011610Y0133668D02*
X0011126Y0134152D01*
X0011126Y0135119D01*
X0011610Y0135603D01*
X0012093Y0135603D01*
X0012577Y0135119D01*
X0013061Y0135603D01*
X0013545Y0135603D01*
X0012577Y0135119D02*
X0012577Y0134636D01*
X0011126Y0094872D02*
X0014028Y0094872D01*
X0120728Y0031901D02*
X0122663Y0031901D01*
X0123675Y0030934D02*
X0123675Y0030450D01*
X0123675Y0030934D02*
X0125610Y0032869D01*
X0125610Y0033352D01*
X0123675Y0033352D01*
X0122180Y0033352D02*
X0120728Y0031901D01*
X0122180Y0030450D02*
X0122180Y0033352D01*
X0126621Y0032869D02*
X0126621Y0030934D01*
X0128556Y0032869D01*
X0128556Y0030934D01*
X0128073Y0030450D01*
X0127105Y0030450D01*
X0126621Y0030934D01*
X0126621Y0032869D02*
X0127105Y0033352D01*
X0128073Y0033352D01*
X0128556Y0032869D01*
X0129568Y0032385D02*
X0131019Y0032385D01*
X0131503Y0031901D01*
X0131503Y0030450D01*
X0129568Y0030450D02*
X0129568Y0032385D01*
X0248378Y0013510D02*
X0249346Y0014477D01*
X0249346Y0011575D01*
X0250313Y0011575D02*
X0248378Y0011575D01*
X0251325Y0012059D02*
X0251325Y0013994D01*
X0251809Y0014477D01*
X0252776Y0014477D01*
X0253260Y0013994D01*
X0251325Y0012059D01*
X0251809Y0011575D01*
X0252776Y0011575D01*
X0253260Y0012059D01*
X0253260Y0013994D01*
X0254271Y0013994D02*
X0254755Y0014477D01*
X0255723Y0014477D01*
X0256206Y0013994D01*
X0254271Y0012059D01*
X0254755Y0011575D01*
X0255723Y0011575D01*
X0256206Y0012059D01*
X0256206Y0013994D01*
X0257218Y0013510D02*
X0258669Y0013510D01*
X0259153Y0013026D01*
X0259153Y0011575D01*
X0257218Y0011575D02*
X0257218Y0013510D01*
X0254271Y0013994D02*
X0254271Y0012059D01*
X0270776Y0012680D02*
X0271260Y0012196D01*
X0273195Y0012196D01*
X0273678Y0012680D01*
X0273678Y0013647D01*
X0273195Y0014131D01*
X0273195Y0015142D02*
X0273678Y0015626D01*
X0273678Y0016594D01*
X0273195Y0017077D01*
X0272227Y0017077D01*
X0271743Y0016594D01*
X0271743Y0016110D01*
X0272227Y0015142D01*
X0270776Y0015142D01*
X0270776Y0017077D01*
X0271260Y0018089D02*
X0271743Y0018089D01*
X0272227Y0018573D01*
X0272227Y0019540D01*
X0272711Y0020024D01*
X0273195Y0020024D01*
X0273678Y0019540D01*
X0273678Y0018573D01*
X0273195Y0018089D01*
X0272711Y0018089D01*
X0272227Y0018573D01*
X0272227Y0019540D02*
X0271743Y0020024D01*
X0271260Y0020024D01*
X0270776Y0019540D01*
X0270776Y0018573D01*
X0271260Y0018089D01*
X0271260Y0021035D02*
X0271743Y0021035D01*
X0272227Y0021519D01*
X0272227Y0022487D01*
X0272711Y0022970D01*
X0273195Y0022970D01*
X0273678Y0022487D01*
X0273678Y0021519D01*
X0273195Y0021035D01*
X0272711Y0021035D01*
X0272227Y0021519D01*
X0272227Y0022487D02*
X0271743Y0022970D01*
X0271260Y0022970D01*
X0270776Y0022487D01*
X0270776Y0021519D01*
X0271260Y0021035D01*
X0271260Y0023982D02*
X0270776Y0024466D01*
X0270776Y0025433D01*
X0271260Y0025917D01*
X0271743Y0025917D01*
X0272227Y0025433D01*
X0272711Y0025917D01*
X0273195Y0025917D01*
X0273678Y0025433D01*
X0273678Y0024466D01*
X0273195Y0023982D01*
X0272227Y0024949D02*
X0272227Y0025433D01*
X0270776Y0026928D02*
X0273678Y0026928D01*
X0273678Y0028863D01*
X0272760Y0031589D02*
X0272276Y0032073D01*
X0272276Y0033040D01*
X0272760Y0033524D01*
X0273243Y0033524D01*
X0275178Y0031589D01*
X0275178Y0033524D01*
X0275178Y0034535D02*
X0273243Y0036470D01*
X0272760Y0036470D01*
X0272276Y0035987D01*
X0272276Y0035019D01*
X0272760Y0034535D01*
X0275178Y0034535D02*
X0275178Y0036470D01*
X0274695Y0037482D02*
X0272760Y0039417D01*
X0274695Y0039417D01*
X0275178Y0038933D01*
X0275178Y0037966D01*
X0274695Y0037482D01*
X0272760Y0037482D01*
X0272276Y0037966D01*
X0272276Y0038933D01*
X0272760Y0039417D01*
X0273243Y0040428D02*
X0273243Y0041880D01*
X0273727Y0042363D01*
X0275178Y0042363D01*
X0275178Y0040428D02*
X0273243Y0040428D01*
X0261667Y0041875D02*
X0261667Y0043810D01*
X0261667Y0041875D02*
X0260216Y0041875D01*
X0259732Y0042359D01*
X0259732Y0043810D01*
X0258720Y0044294D02*
X0256785Y0042359D01*
X0256785Y0041875D01*
X0255796Y0041875D02*
X0255312Y0041875D01*
X0255312Y0042359D01*
X0255796Y0042359D01*
X0255796Y0041875D01*
X0253817Y0041875D02*
X0253817Y0044777D01*
X0252365Y0043326D01*
X0254300Y0043326D01*
X0256785Y0044777D02*
X0258720Y0044777D01*
X0258720Y0044294D01*
X0261793Y0048944D02*
X0260826Y0049912D01*
X0261793Y0050879D01*
X0263728Y0050879D01*
X0263728Y0051891D02*
X0263728Y0053826D01*
X0263728Y0052858D02*
X0260826Y0052858D01*
X0261793Y0051891D01*
X0262277Y0050879D02*
X0262277Y0048944D01*
X0261793Y0048944D02*
X0263728Y0048944D01*
X0263245Y0054837D02*
X0262761Y0054837D01*
X0262277Y0055321D01*
X0262277Y0056288D01*
X0262761Y0056772D01*
X0263245Y0056772D01*
X0263728Y0056288D01*
X0263728Y0055321D01*
X0263245Y0054837D01*
X0262277Y0055321D02*
X0261793Y0054837D01*
X0261310Y0054837D01*
X0260826Y0055321D01*
X0260826Y0056288D01*
X0261310Y0056772D01*
X0261793Y0056772D01*
X0262277Y0056288D01*
X0262277Y0057784D02*
X0261793Y0057784D01*
X0261793Y0058267D01*
X0262277Y0058267D01*
X0262277Y0057784D01*
X0263245Y0057784D02*
X0263728Y0057784D01*
X0263728Y0058267D01*
X0263245Y0058267D01*
X0263245Y0057784D01*
X0263728Y0059257D02*
X0261793Y0059257D01*
X0260826Y0060224D01*
X0261793Y0061192D01*
X0263728Y0061192D01*
X0263245Y0062203D02*
X0262761Y0062203D01*
X0262277Y0062687D01*
X0262277Y0063655D01*
X0262761Y0064138D01*
X0263245Y0064138D01*
X0263728Y0063655D01*
X0263728Y0062687D01*
X0263245Y0062203D01*
X0262277Y0062687D02*
X0261793Y0062203D01*
X0261310Y0062203D01*
X0260826Y0062687D01*
X0260826Y0063655D01*
X0261310Y0064138D01*
X0261793Y0064138D01*
X0262277Y0063655D01*
X0262277Y0061192D02*
X0262277Y0059257D01*
X0271260Y0014131D02*
X0270776Y0013647D01*
X0270776Y0012680D01*
X0270776Y0011184D02*
X0273678Y0011184D01*
X0273678Y0009249D02*
X0270776Y0009249D01*
X0271743Y0010217D01*
X0270776Y0011184D01*
X0270776Y0008238D02*
X0273678Y0008238D01*
X0272227Y0008238D02*
X0272227Y0006303D01*
X0273678Y0006303D02*
X0270776Y0006303D01*
D12*
X0242928Y0095000D03*
X0240528Y0095500D03*
X0232928Y0100700D03*
X0232828Y0100800D03*
X0232728Y0100900D03*
X0232628Y0101000D03*
X0252828Y0100500D03*
X0252928Y0100600D03*
X0253028Y0100700D03*
X0253128Y0100800D03*
X0252928Y0110900D03*
X0252828Y0111300D03*
X0252828Y0111400D03*
X0252828Y0111800D03*
X0253128Y0118700D03*
X0253028Y0118800D03*
X0252928Y0118900D03*
X0252828Y0119000D03*
X0233028Y0118900D03*
X0232928Y0118800D03*
X0232828Y0118700D03*
X0232728Y0118600D03*
X0232628Y0118500D03*
D13*
X0236428Y0117400D03*
X0236528Y0117500D03*
X0235928Y0121200D03*
X0242928Y0124400D03*
X0246928Y0119600D03*
X0247128Y0119500D03*
X0248428Y0118500D03*
X0248528Y0118400D03*
X0248628Y0118300D03*
X0237628Y0113400D03*
X0237228Y0113700D03*
X0234028Y0106700D03*
X0234028Y0106600D03*
X0234128Y0106400D03*
X0234128Y0106300D03*
X0234128Y0106200D03*
X0234528Y0105300D03*
X0234528Y0105200D03*
X0242928Y0095100D03*
D14*
X0242978Y0095200D03*
X0242878Y0097300D03*
X0238178Y0100900D03*
X0235778Y0115600D03*
X0242978Y0124300D03*
D15*
X0242928Y0124200D03*
X0242928Y0095300D03*
D16*
X0242928Y0095400D03*
X0238028Y0101900D03*
X0242928Y0124100D03*
D17*
X0242378Y0123400D03*
X0243678Y0123300D03*
X0243678Y0123200D03*
X0244178Y0123200D03*
X0244178Y0123100D03*
X0244178Y0123000D03*
X0233478Y0113800D03*
X0234978Y0111400D03*
X0235678Y0110700D03*
X0235678Y0110600D03*
X0235778Y0107700D03*
X0235778Y0107500D03*
X0239378Y0104200D03*
X0241278Y0104300D03*
X0241778Y0101500D03*
X0243878Y0101500D03*
X0245278Y0101300D03*
X0246878Y0101200D03*
X0247378Y0101400D03*
X0247878Y0101300D03*
X0249178Y0098500D03*
X0249278Y0098400D03*
X0249678Y0098500D03*
X0247978Y0097400D03*
X0244978Y0096600D03*
X0244978Y0096500D03*
X0242578Y0095500D03*
X0241478Y0096900D03*
X0241478Y0097000D03*
X0240678Y0096300D03*
X0240278Y0096600D03*
X0240278Y0096700D03*
X0240378Y0096800D03*
X0240378Y0096900D03*
X0240378Y0097000D03*
X0239678Y0097100D03*
X0239078Y0096600D03*
X0237878Y0096600D03*
X0237878Y0096700D03*
X0237478Y0097300D03*
X0237478Y0097600D03*
X0236078Y0098300D03*
X0235678Y0098200D03*
X0235978Y0098700D03*
X0235078Y0099300D03*
X0234778Y0099600D03*
X0234678Y0099500D03*
X0234178Y0100000D03*
X0242478Y0108800D03*
X0251178Y0104700D03*
X0251878Y0099900D03*
X0251978Y0099600D03*
X0252478Y0099600D03*
X0251878Y0098800D03*
D18*
X0252378Y0098700D03*
X0252678Y0098900D03*
X0253378Y0099700D03*
X0251778Y0098200D03*
X0251678Y0098100D03*
X0250978Y0100000D03*
X0249778Y0099200D03*
X0249578Y0099100D03*
X0249478Y0099000D03*
X0249278Y0098900D03*
X0249078Y0098800D03*
X0249478Y0098200D03*
X0248978Y0097300D03*
X0247178Y0097200D03*
X0244078Y0096400D03*
X0244078Y0096300D03*
X0243278Y0095500D03*
X0240978Y0096000D03*
X0241078Y0096600D03*
X0239878Y0096400D03*
X0239878Y0096300D03*
X0239878Y0096200D03*
X0239778Y0096100D03*
X0239778Y0096000D03*
X0236478Y0097500D03*
X0236478Y0099000D03*
X0235978Y0099300D03*
X0234078Y0098200D03*
X0233978Y0098300D03*
X0233878Y0098400D03*
X0233678Y0098500D03*
X0232778Y0099400D03*
X0243878Y0102600D03*
X0245578Y0122600D03*
X0246778Y0122700D03*
X0242978Y0123900D03*
X0240578Y0123400D03*
D19*
X0236328Y0122100D03*
X0232328Y0118100D03*
X0232228Y0118000D03*
X0232128Y0117900D03*
X0233128Y0112300D03*
X0232928Y0111300D03*
X0237628Y0113000D03*
X0252428Y0113600D03*
X0252428Y0113700D03*
X0252528Y0113400D03*
X0252628Y0113100D03*
X0252628Y0113000D03*
X0252728Y0112700D03*
X0252828Y0112300D03*
X0252828Y0112200D03*
X0252828Y0112100D03*
X0253028Y0110800D03*
X0253828Y0117800D03*
X0253728Y0118000D03*
X0253628Y0118100D03*
X0253528Y0118200D03*
X0253428Y0118300D03*
X0253828Y0101700D03*
X0253728Y0101500D03*
X0253628Y0101400D03*
X0253528Y0101300D03*
X0253428Y0101200D03*
X0246028Y0097500D03*
X0245528Y0095500D03*
X0232328Y0101400D03*
X0232228Y0101500D03*
X0232128Y0101600D03*
D20*
X0231828Y0102000D03*
X0231728Y0102200D03*
X0231628Y0102300D03*
X0231528Y0102400D03*
X0231528Y0102500D03*
X0231428Y0102600D03*
X0231328Y0102800D03*
X0239928Y0095600D03*
X0246228Y0095700D03*
X0254128Y0102100D03*
X0254228Y0102200D03*
X0254328Y0102400D03*
X0254428Y0102500D03*
X0254528Y0102700D03*
X0253128Y0110700D03*
X0252328Y0114100D03*
X0252328Y0114200D03*
X0251828Y0115200D03*
X0254528Y0116800D03*
X0254428Y0117000D03*
X0254328Y0117100D03*
X0254228Y0117300D03*
X0254128Y0117400D03*
X0245828Y0122000D03*
X0246828Y0123600D03*
X0231728Y0117300D03*
X0231628Y0117200D03*
X0231528Y0117100D03*
X0231528Y0117000D03*
X0231428Y0116900D03*
X0231328Y0116700D03*
X0232928Y0112000D03*
D21*
X0234228Y0112600D03*
X0237128Y0112300D03*
X0240228Y0113100D03*
X0240328Y0113000D03*
X0240528Y0112900D03*
X0245028Y0112900D03*
X0245228Y0113000D03*
X0245328Y0113100D03*
X0246128Y0113700D03*
X0246228Y0113800D03*
X0246228Y0113900D03*
X0246328Y0114000D03*
X0252728Y0107400D03*
X0243828Y0102300D03*
X0243828Y0102200D03*
X0244028Y0101900D03*
X0244128Y0101700D03*
X0244228Y0101600D03*
X0244428Y0101300D03*
X0244528Y0101200D03*
X0245428Y0096900D03*
X0245528Y0096700D03*
X0245528Y0096600D03*
X0245628Y0096400D03*
X0246328Y0096300D03*
X0248328Y0097700D03*
X0249628Y0098400D03*
X0250328Y0098800D03*
X0250828Y0099100D03*
X0250828Y0099200D03*
X0251128Y0098700D03*
X0251628Y0099000D03*
X0251528Y0099400D03*
X0251428Y0099500D03*
X0242728Y0096700D03*
X0242728Y0096600D03*
X0242728Y0096500D03*
X0242628Y0096300D03*
X0242528Y0096100D03*
X0242528Y0096000D03*
X0241928Y0095800D03*
X0241928Y0095700D03*
X0241928Y0095600D03*
X0242028Y0096500D03*
X0242028Y0096600D03*
X0239728Y0096800D03*
X0239028Y0096900D03*
X0238028Y0097100D03*
X0238028Y0097600D03*
X0236028Y0098400D03*
X0236028Y0098500D03*
X0235428Y0098800D03*
X0235128Y0098300D03*
X0234728Y0098700D03*
X0234228Y0099700D03*
X0235628Y0097900D03*
X0235628Y0097800D03*
X0242628Y0106900D03*
X0239428Y0122300D03*
X0239128Y0123100D03*
X0241628Y0122900D03*
X0241628Y0122800D03*
X0241628Y0122700D03*
X0241928Y0123700D03*
X0243128Y0123100D03*
X0243128Y0123000D03*
X0243828Y0122600D03*
X0244728Y0123100D03*
X0244728Y0123200D03*
X0244728Y0123300D03*
X0244728Y0123400D03*
X0244728Y0123500D03*
X0244828Y0123700D03*
X0245428Y0123400D03*
X0245528Y0123500D03*
D22*
X0245478Y0122700D03*
X0242978Y0123700D03*
X0242478Y0122600D03*
X0241678Y0123200D03*
X0241678Y0123300D03*
X0241678Y0123400D03*
X0239078Y0123200D03*
X0238478Y0122700D03*
X0238478Y0122600D03*
X0238578Y0122300D03*
X0238578Y0122200D03*
X0246778Y0116200D03*
X0245878Y0113400D03*
X0244078Y0112500D03*
X0241478Y0112500D03*
X0242778Y0106800D03*
X0243878Y0103800D03*
X0243878Y0100700D03*
X0241778Y0100700D03*
X0241678Y0100600D03*
X0242678Y0096900D03*
X0243278Y0095600D03*
X0245078Y0095800D03*
X0247278Y0096300D03*
X0247278Y0096400D03*
X0247278Y0096500D03*
X0247278Y0096600D03*
X0247278Y0096700D03*
X0247278Y0096800D03*
X0247278Y0096900D03*
X0248278Y0096700D03*
X0250678Y0098100D03*
X0251078Y0100200D03*
X0251178Y0100300D03*
X0253378Y0099600D03*
X0247478Y0101200D03*
X0238978Y0097100D03*
X0238178Y0096800D03*
X0237178Y0097000D03*
X0235078Y0098400D03*
X0235378Y0099000D03*
X0234778Y0100200D03*
X0234678Y0100300D03*
X0234578Y0100400D03*
D23*
X0234178Y0099800D03*
X0238078Y0097700D03*
X0238078Y0097000D03*
X0238378Y0096600D03*
X0238978Y0097000D03*
X0238678Y0097300D03*
X0239778Y0096900D03*
X0240978Y0096800D03*
X0241178Y0095900D03*
X0242578Y0096200D03*
X0244178Y0095700D03*
X0244178Y0095600D03*
X0245078Y0096000D03*
X0245478Y0096800D03*
X0245378Y0097000D03*
X0246178Y0097000D03*
X0246378Y0096400D03*
X0248178Y0097900D03*
X0248278Y0097800D03*
X0248478Y0097600D03*
X0249978Y0097700D03*
X0250078Y0097600D03*
X0251278Y0098600D03*
X0251578Y0099100D03*
X0251378Y0099600D03*
X0245178Y0101200D03*
X0243978Y0100200D03*
X0242778Y0100200D03*
X0241678Y0100200D03*
X0243978Y0103900D03*
X0242778Y0106500D03*
X0242778Y0106600D03*
X0242578Y0107000D03*
X0242578Y0107100D03*
X0242478Y0107200D03*
X0242778Y0112200D03*
X0240878Y0112700D03*
X0240678Y0112800D03*
X0244678Y0112700D03*
X0244878Y0112800D03*
X0245978Y0113500D03*
X0246078Y0113600D03*
X0246678Y0115000D03*
X0245878Y0122400D03*
X0245378Y0122900D03*
X0246078Y0123200D03*
X0244078Y0123800D03*
X0243078Y0123300D03*
X0243078Y0123200D03*
X0243778Y0122500D03*
X0241978Y0123800D03*
X0240878Y0122500D03*
X0240878Y0122400D03*
X0239478Y0122200D03*
X0238578Y0122100D03*
X0238478Y0122800D03*
X0234278Y0112500D03*
D24*
X0230078Y0114000D03*
X0229978Y0113700D03*
X0230178Y0114300D03*
X0230278Y0114500D03*
X0230278Y0114600D03*
X0230378Y0114800D03*
X0230378Y0114900D03*
X0230478Y0115000D03*
X0230478Y0115100D03*
X0230578Y0115300D03*
X0230678Y0115500D03*
X0239478Y0123800D03*
X0242778Y0122400D03*
X0246678Y0123700D03*
X0247878Y0123200D03*
X0249178Y0122500D03*
X0244278Y0115900D03*
X0252178Y0114800D03*
X0255278Y0115400D03*
X0255378Y0115200D03*
X0255478Y0115000D03*
X0255478Y0114900D03*
X0255578Y0114800D03*
X0255578Y0114700D03*
X0255578Y0114600D03*
X0255678Y0114500D03*
X0255678Y0114400D03*
X0255778Y0114200D03*
X0255778Y0114100D03*
X0255878Y0113900D03*
X0255878Y0105600D03*
X0255778Y0105300D03*
X0255678Y0105100D03*
X0255678Y0105000D03*
X0255578Y0104800D03*
X0255578Y0104700D03*
X0255478Y0104600D03*
X0255478Y0104500D03*
X0255378Y0104300D03*
X0255278Y0104100D03*
X0253078Y0100300D03*
X0250078Y0101600D03*
X0249978Y0101500D03*
X0246078Y0095600D03*
X0243378Y0097000D03*
X0230678Y0104000D03*
X0230578Y0104200D03*
X0230478Y0104400D03*
X0230478Y0104500D03*
X0230378Y0104600D03*
X0230378Y0104700D03*
X0230278Y0104900D03*
X0230278Y0105000D03*
X0230178Y0105200D03*
X0230078Y0105500D03*
X0229978Y0105800D03*
D25*
X0232778Y0100200D03*
X0239278Y0095700D03*
X0250978Y0102400D03*
X0251078Y0102500D03*
X0251878Y0103800D03*
X0252178Y0104200D03*
X0252178Y0104300D03*
X0252878Y0105800D03*
X0252878Y0105900D03*
X0252878Y0106000D03*
X0253478Y0108400D03*
X0253478Y0108500D03*
X0253478Y0108600D03*
X0249078Y0122700D03*
X0247678Y0123400D03*
X0238478Y0123500D03*
X0236678Y0122600D03*
X0232778Y0112900D03*
X0232678Y0112500D03*
D26*
X0233428Y0113700D03*
X0235028Y0111300D03*
X0235628Y0110500D03*
X0239828Y0112600D03*
X0239828Y0112700D03*
X0239728Y0112800D03*
X0239728Y0112900D03*
X0239628Y0113100D03*
X0239928Y0112500D03*
X0239928Y0112400D03*
X0240028Y0112300D03*
X0240028Y0112200D03*
X0240128Y0112000D03*
X0240228Y0111800D03*
X0240328Y0111600D03*
X0240428Y0111400D03*
X0240428Y0111300D03*
X0240528Y0111200D03*
X0240528Y0111100D03*
X0240628Y0111000D03*
X0240628Y0110900D03*
X0240728Y0110700D03*
X0240828Y0110500D03*
X0240928Y0110300D03*
X0240928Y0110200D03*
X0241028Y0110100D03*
X0241028Y0110000D03*
X0241128Y0109900D03*
X0241128Y0109800D03*
X0241228Y0109700D03*
X0241228Y0109600D03*
X0241328Y0109500D03*
X0241328Y0109400D03*
X0241428Y0109200D03*
X0241528Y0109000D03*
X0241628Y0108800D03*
X0241628Y0108700D03*
X0241728Y0108600D03*
X0241728Y0108500D03*
X0241828Y0108400D03*
X0241828Y0108300D03*
X0241928Y0108200D03*
X0241928Y0108100D03*
X0242028Y0107900D03*
X0242128Y0107700D03*
X0242228Y0107500D03*
X0242228Y0107400D03*
X0242328Y0107300D03*
X0242628Y0107300D03*
X0242628Y0107400D03*
X0242628Y0107500D03*
X0242628Y0107600D03*
X0242628Y0107700D03*
X0242628Y0107800D03*
X0242628Y0107900D03*
X0242528Y0108000D03*
X0242528Y0108100D03*
X0242528Y0108200D03*
X0242528Y0108300D03*
X0242528Y0108400D03*
X0242528Y0108500D03*
X0242528Y0108600D03*
X0242528Y0108700D03*
X0242428Y0108900D03*
X0242428Y0109000D03*
X0242428Y0109100D03*
X0242428Y0109200D03*
X0242428Y0109300D03*
X0242428Y0109400D03*
X0242428Y0109500D03*
X0242428Y0109600D03*
X0242328Y0109700D03*
X0242328Y0109800D03*
X0242328Y0109900D03*
X0242328Y0110000D03*
X0242328Y0110100D03*
X0242328Y0110200D03*
X0242328Y0110300D03*
X0242328Y0110400D03*
X0242328Y0110500D03*
X0242228Y0110600D03*
X0242228Y0110700D03*
X0242228Y0110800D03*
X0242228Y0110900D03*
X0242228Y0111000D03*
X0242228Y0111100D03*
X0242228Y0111200D03*
X0242228Y0111300D03*
X0242128Y0111400D03*
X0242128Y0111500D03*
X0242128Y0111600D03*
X0242128Y0111700D03*
X0242128Y0111800D03*
X0242128Y0111900D03*
X0242128Y0112000D03*
X0242128Y0112100D03*
X0242028Y0112500D03*
X0242028Y0112600D03*
X0242028Y0112700D03*
X0242028Y0112800D03*
X0242028Y0112900D03*
X0242028Y0113000D03*
X0242028Y0113100D03*
X0241928Y0113200D03*
X0241928Y0113300D03*
X0241928Y0113400D03*
X0241928Y0113500D03*
X0241928Y0113600D03*
X0241928Y0113700D03*
X0241928Y0113800D03*
X0241928Y0113900D03*
X0241828Y0114000D03*
X0241828Y0114100D03*
X0241828Y0114200D03*
X0241828Y0114300D03*
X0241828Y0114400D03*
X0245728Y0112700D03*
X0245728Y0112600D03*
X0245628Y0112400D03*
X0245528Y0112200D03*
X0245428Y0112000D03*
X0245328Y0111800D03*
X0245328Y0111700D03*
X0245228Y0111600D03*
X0245228Y0111500D03*
X0245128Y0111400D03*
X0245128Y0111300D03*
X0245028Y0111200D03*
X0245028Y0111100D03*
X0244928Y0110900D03*
X0244828Y0110700D03*
X0244728Y0110500D03*
X0244628Y0110300D03*
X0244628Y0110200D03*
X0244528Y0110100D03*
X0244528Y0110000D03*
X0244428Y0109900D03*
X0244428Y0109800D03*
X0244328Y0109700D03*
X0244328Y0109600D03*
X0244228Y0109400D03*
X0244128Y0109200D03*
X0244028Y0109000D03*
X0243928Y0108800D03*
X0243928Y0108700D03*
X0243828Y0108600D03*
X0243828Y0108500D03*
X0243728Y0108400D03*
X0243728Y0108300D03*
X0243628Y0108200D03*
X0243628Y0108100D03*
X0243528Y0107900D03*
X0243428Y0107700D03*
X0243328Y0107500D03*
X0243228Y0107300D03*
X0243228Y0107200D03*
X0243128Y0107100D03*
X0243128Y0107000D03*
X0243028Y0106900D03*
X0242728Y0106200D03*
X0242728Y0106100D03*
X0242728Y0106000D03*
X0242728Y0105900D03*
X0242828Y0105800D03*
X0242828Y0105700D03*
X0242828Y0105600D03*
X0242828Y0105500D03*
X0242828Y0105400D03*
X0242828Y0105300D03*
X0242828Y0105200D03*
X0242828Y0105100D03*
X0242828Y0105000D03*
X0242828Y0104900D03*
X0242828Y0104800D03*
X0242828Y0104700D03*
X0242828Y0104600D03*
X0242828Y0104500D03*
X0242828Y0104400D03*
X0242828Y0104300D03*
X0242828Y0104200D03*
X0242828Y0104100D03*
X0244028Y0104100D03*
X0240828Y0104300D03*
X0247328Y0101300D03*
X0250328Y0098900D03*
X0250828Y0099000D03*
X0250928Y0099300D03*
X0252028Y0099700D03*
X0248928Y0096900D03*
X0248828Y0097000D03*
X0248028Y0097200D03*
X0248028Y0097300D03*
X0246228Y0097100D03*
X0245728Y0096100D03*
X0245828Y0096000D03*
X0245828Y0095900D03*
X0245028Y0096400D03*
X0243228Y0096400D03*
X0243228Y0096300D03*
X0243228Y0096200D03*
X0242528Y0095900D03*
X0242528Y0095800D03*
X0242528Y0095700D03*
X0241828Y0096100D03*
X0241328Y0096300D03*
X0241328Y0096400D03*
X0241428Y0096800D03*
X0241328Y0095800D03*
X0241328Y0095700D03*
X0240228Y0096500D03*
X0239828Y0096700D03*
X0240328Y0097100D03*
X0239228Y0097300D03*
X0239228Y0097400D03*
X0239028Y0096500D03*
X0239028Y0096400D03*
X0237828Y0096500D03*
X0237428Y0097500D03*
X0236028Y0098600D03*
X0234728Y0098800D03*
X0234528Y0099300D03*
X0234628Y0099400D03*
X0234828Y0099700D03*
X0234228Y0099600D03*
X0233728Y0099500D03*
X0245828Y0112800D03*
X0245828Y0112900D03*
X0245928Y0113000D03*
X0245928Y0113100D03*
X0246028Y0113200D03*
X0246028Y0113300D03*
X0246428Y0114200D03*
X0246528Y0114400D03*
X0246628Y0114600D03*
X0246728Y0114700D03*
X0246828Y0115100D03*
X0246828Y0115200D03*
X0246928Y0115300D03*
X0246928Y0115400D03*
X0246928Y0115500D03*
X0246928Y0115600D03*
X0246928Y0115700D03*
X0247028Y0115800D03*
X0247028Y0115900D03*
X0247028Y0116000D03*
X0247028Y0116300D03*
X0247028Y0116400D03*
X0247028Y0116500D03*
X0247028Y0116600D03*
X0247428Y0116400D03*
X0248028Y0115700D03*
X0250028Y0115200D03*
X0245228Y0122400D03*
X0244128Y0123300D03*
X0244128Y0123400D03*
X0243728Y0123100D03*
X0243728Y0123000D03*
X0243728Y0122900D03*
X0243228Y0122600D03*
X0243228Y0122500D03*
X0242428Y0123200D03*
X0242428Y0123300D03*
X0240928Y0123500D03*
X0240428Y0123600D03*
X0239328Y0122600D03*
X0252728Y0107600D03*
X0252728Y0107500D03*
D27*
X0244428Y0112600D03*
X0241128Y0112600D03*
X0242728Y0106700D03*
X0243828Y0102400D03*
X0243928Y0100300D03*
X0242828Y0100300D03*
X0241728Y0100300D03*
X0242728Y0096800D03*
X0243228Y0095800D03*
X0243228Y0095700D03*
X0244128Y0095800D03*
X0244128Y0095900D03*
X0245128Y0095900D03*
X0245328Y0097100D03*
X0246228Y0096900D03*
X0246328Y0096800D03*
X0246328Y0096700D03*
X0246328Y0096600D03*
X0246328Y0096500D03*
X0248228Y0096800D03*
X0248828Y0097200D03*
X0249928Y0097800D03*
X0249628Y0098300D03*
X0250328Y0098600D03*
X0250328Y0098700D03*
X0250428Y0098500D03*
X0250528Y0098400D03*
X0250528Y0098300D03*
X0250628Y0098200D03*
X0238328Y0096700D03*
X0238128Y0096900D03*
X0235428Y0098900D03*
X0235128Y0099100D03*
X0234828Y0098600D03*
X0233828Y0099300D03*
X0237328Y0104900D03*
X0240128Y0122500D03*
X0241628Y0123000D03*
X0241628Y0123100D03*
X0241828Y0123600D03*
X0241928Y0123900D03*
X0243028Y0123600D03*
X0243028Y0123500D03*
X0243028Y0123400D03*
X0242428Y0122800D03*
X0242428Y0122700D03*
X0245428Y0122800D03*
D28*
X0240328Y0122000D03*
X0238328Y0123400D03*
X0232828Y0112800D03*
X0232728Y0100300D03*
X0240328Y0097500D03*
X0239028Y0095800D03*
X0242828Y0100900D03*
X0242828Y0101000D03*
X0242828Y0101100D03*
X0242828Y0101200D03*
X0242828Y0101300D03*
X0242828Y0101400D03*
X0251328Y0102900D03*
X0252228Y0104400D03*
X0252228Y0104500D03*
X0253128Y0100200D03*
D29*
X0250928Y0102300D03*
X0250828Y0102200D03*
X0251328Y0102800D03*
X0251628Y0103300D03*
X0251928Y0103700D03*
X0252128Y0104000D03*
X0252128Y0104100D03*
X0252428Y0104700D03*
X0252528Y0104800D03*
X0253028Y0106100D03*
X0253128Y0106400D03*
X0253528Y0108300D03*
X0253528Y0108700D03*
X0253528Y0108800D03*
X0253528Y0108900D03*
X0253528Y0109000D03*
X0253528Y0109100D03*
X0253528Y0109800D03*
X0253528Y0109900D03*
X0253528Y0110000D03*
X0253528Y0110100D03*
X0253528Y0110200D03*
X0246128Y0121900D03*
X0247428Y0123500D03*
X0232728Y0112600D03*
X0247928Y0096200D03*
X0246928Y0095800D03*
D30*
X0246328Y0097600D03*
X0251328Y0103100D03*
X0255628Y0104900D03*
X0255728Y0105200D03*
X0255828Y0105400D03*
X0255828Y0105500D03*
X0255928Y0105700D03*
X0255928Y0105800D03*
X0255928Y0105900D03*
X0256028Y0106000D03*
X0256028Y0106100D03*
X0256028Y0106200D03*
X0256028Y0106300D03*
X0256128Y0106400D03*
X0256128Y0106500D03*
X0256128Y0106600D03*
X0256228Y0106800D03*
X0256228Y0106900D03*
X0256228Y0107000D03*
X0256328Y0107400D03*
X0256328Y0107500D03*
X0256428Y0108100D03*
X0256428Y0108200D03*
X0256428Y0111300D03*
X0256428Y0111400D03*
X0256328Y0112000D03*
X0256328Y0112100D03*
X0256228Y0112500D03*
X0256228Y0112600D03*
X0256228Y0112700D03*
X0256128Y0112900D03*
X0256128Y0113000D03*
X0256128Y0113100D03*
X0256028Y0113200D03*
X0256028Y0113300D03*
X0256028Y0113400D03*
X0256028Y0113500D03*
X0255928Y0113600D03*
X0255928Y0113700D03*
X0255928Y0113800D03*
X0255828Y0114000D03*
X0255728Y0114300D03*
X0249128Y0122600D03*
X0239228Y0123700D03*
X0236528Y0122400D03*
X0230328Y0114700D03*
X0230228Y0114400D03*
X0230128Y0114200D03*
X0230128Y0114100D03*
X0230028Y0113900D03*
X0230028Y0113800D03*
X0229928Y0113600D03*
X0229928Y0113500D03*
X0229928Y0113400D03*
X0229828Y0113300D03*
X0229828Y0113200D03*
X0229828Y0113100D03*
X0229728Y0112900D03*
X0229728Y0112800D03*
X0229728Y0112700D03*
X0229628Y0112400D03*
X0229628Y0112300D03*
X0229628Y0112200D03*
X0229528Y0111800D03*
X0229528Y0111700D03*
X0229428Y0110800D03*
X0229428Y0108700D03*
X0229528Y0107800D03*
X0229528Y0107700D03*
X0229628Y0107300D03*
X0229628Y0107200D03*
X0229628Y0107100D03*
X0229728Y0106800D03*
X0229728Y0106700D03*
X0229728Y0106600D03*
X0229828Y0106400D03*
X0229828Y0106300D03*
X0229828Y0106200D03*
X0229928Y0106100D03*
X0229928Y0106000D03*
X0229928Y0105900D03*
X0230028Y0105700D03*
X0230028Y0105600D03*
X0230128Y0105400D03*
X0230128Y0105300D03*
X0230228Y0105100D03*
X0230328Y0104800D03*
X0232728Y0100400D03*
X0238928Y0095900D03*
X0232928Y0112700D03*
D31*
X0235078Y0111200D03*
X0239678Y0113000D03*
X0240078Y0113200D03*
X0240078Y0112100D03*
X0240178Y0111900D03*
X0240278Y0111700D03*
X0240378Y0111500D03*
X0240678Y0110800D03*
X0240778Y0110600D03*
X0240878Y0110400D03*
X0241378Y0109300D03*
X0241478Y0109100D03*
X0241578Y0108900D03*
X0241978Y0108000D03*
X0242078Y0107800D03*
X0242178Y0107600D03*
X0243278Y0107400D03*
X0243378Y0107600D03*
X0243478Y0107800D03*
X0243578Y0108000D03*
X0243978Y0108900D03*
X0244078Y0109100D03*
X0244178Y0109300D03*
X0244278Y0109500D03*
X0244678Y0110400D03*
X0244778Y0110600D03*
X0244878Y0110800D03*
X0244978Y0111000D03*
X0245378Y0111900D03*
X0245478Y0112100D03*
X0245578Y0112300D03*
X0245678Y0112500D03*
X0245478Y0113200D03*
X0245578Y0113300D03*
X0246378Y0114100D03*
X0246478Y0114300D03*
X0246578Y0114500D03*
X0246678Y0114800D03*
X0248078Y0115800D03*
X0242078Y0112200D03*
X0242778Y0106400D03*
X0242778Y0106300D03*
X0243978Y0104000D03*
X0243878Y0102100D03*
X0243978Y0102000D03*
X0244078Y0101800D03*
X0244278Y0101500D03*
X0244378Y0101400D03*
X0245578Y0096500D03*
X0245678Y0096300D03*
X0245678Y0096200D03*
X0246278Y0096200D03*
X0248278Y0096900D03*
X0248778Y0097100D03*
X0251778Y0098900D03*
X0251578Y0099200D03*
X0251578Y0099300D03*
X0251978Y0099800D03*
X0252478Y0099500D03*
X0242678Y0096400D03*
X0241978Y0096700D03*
X0241878Y0096000D03*
X0241878Y0095900D03*
X0241278Y0096500D03*
X0239778Y0097000D03*
X0239078Y0096800D03*
X0239078Y0096700D03*
X0238978Y0096300D03*
X0238878Y0096200D03*
X0238478Y0096500D03*
X0237978Y0097200D03*
X0237978Y0097300D03*
X0237978Y0097400D03*
X0237978Y0097500D03*
X0237378Y0097400D03*
X0237078Y0097100D03*
X0238678Y0097400D03*
X0235678Y0098000D03*
X0235678Y0098100D03*
X0235378Y0098600D03*
X0235478Y0098700D03*
X0235078Y0099200D03*
X0235078Y0098200D03*
X0235078Y0098100D03*
X0233778Y0099400D03*
X0234178Y0099900D03*
X0238578Y0122000D03*
X0239378Y0122400D03*
X0239378Y0122500D03*
X0239278Y0122700D03*
X0239278Y0122800D03*
X0239178Y0122900D03*
X0239178Y0123000D03*
X0238478Y0122900D03*
X0240478Y0123500D03*
X0241578Y0122600D03*
X0241578Y0122500D03*
X0243178Y0122700D03*
X0243178Y0122800D03*
X0243178Y0122900D03*
X0243778Y0122800D03*
X0243778Y0122700D03*
X0244078Y0123500D03*
X0244078Y0123600D03*
X0244078Y0123700D03*
X0244778Y0123600D03*
X0244678Y0123000D03*
X0244678Y0122900D03*
X0244678Y0122800D03*
X0244678Y0122700D03*
X0244678Y0122600D03*
X0244678Y0122500D03*
X0244578Y0122400D03*
X0245178Y0122300D03*
X0245378Y0123000D03*
X0245378Y0123100D03*
X0245378Y0123200D03*
X0245378Y0123300D03*
D32*
X0248878Y0122900D03*
X0236978Y0122900D03*
X0232678Y0113300D03*
X0250778Y0102000D03*
X0252778Y0105000D03*
X0252878Y0105300D03*
X0252878Y0105400D03*
X0253478Y0107200D03*
X0253478Y0107300D03*
X0253578Y0108200D03*
X0248878Y0096600D03*
X0247578Y0096000D03*
X0247378Y0095900D03*
X0238078Y0096100D03*
X0235778Y0097300D03*
D33*
X0236628Y0096800D03*
X0237428Y0098300D03*
X0238228Y0096000D03*
X0239928Y0097600D03*
X0233528Y0099100D03*
X0232728Y0099900D03*
X0232728Y0113400D03*
X0239928Y0121900D03*
X0237128Y0123000D03*
X0245528Y0116000D03*
X0244828Y0114700D03*
X0253628Y0107900D03*
X0253628Y0107800D03*
X0253628Y0107700D03*
X0253428Y0107100D03*
X0253428Y0107000D03*
X0253428Y0106900D03*
X0253428Y0106800D03*
X0252828Y0105200D03*
X0252828Y0105100D03*
X0253228Y0100000D03*
X0248728Y0123000D03*
D34*
X0243028Y0123800D03*
X0241728Y0123500D03*
X0242428Y0122500D03*
X0238528Y0122500D03*
X0238528Y0122400D03*
X0237228Y0112400D03*
X0243828Y0102500D03*
X0243928Y0100600D03*
X0243928Y0100500D03*
X0243928Y0100400D03*
X0242828Y0100400D03*
X0242828Y0100500D03*
X0242828Y0100600D03*
X0242828Y0100700D03*
X0241728Y0100500D03*
X0241728Y0100400D03*
X0241128Y0096700D03*
X0241028Y0096200D03*
X0241028Y0096100D03*
X0238928Y0097200D03*
X0236428Y0097400D03*
X0235028Y0098500D03*
X0235828Y0099400D03*
X0235728Y0099500D03*
X0235528Y0099600D03*
X0235428Y0099700D03*
X0235128Y0099900D03*
X0235028Y0100000D03*
X0234928Y0100100D03*
X0236128Y0099200D03*
X0232928Y0099200D03*
X0232828Y0099300D03*
X0244128Y0096200D03*
X0244128Y0096100D03*
X0244128Y0096000D03*
X0247228Y0097000D03*
X0247228Y0097100D03*
X0249928Y0099300D03*
X0250028Y0099400D03*
X0250228Y0099500D03*
X0250328Y0099600D03*
X0251028Y0100100D03*
X0252328Y0098600D03*
X0252528Y0098800D03*
X0253328Y0099500D03*
D35*
X0250828Y0102100D03*
X0252128Y0103900D03*
X0253228Y0106600D03*
X0253628Y0109300D03*
X0253628Y0109400D03*
X0253628Y0109500D03*
X0245428Y0101000D03*
X0247828Y0096100D03*
X0236528Y0096900D03*
X0232728Y0100000D03*
X0232728Y0113100D03*
X0232728Y0113200D03*
X0236828Y0122800D03*
D36*
X0246378Y0116100D03*
X0245678Y0114800D03*
X0243678Y0103400D03*
X0243678Y0103300D03*
X0250878Y0099700D03*
X0251878Y0098500D03*
X0250578Y0097500D03*
X0248678Y0096400D03*
X0248478Y0096300D03*
X0253278Y0099900D03*
X0237678Y0096200D03*
X0237378Y0096300D03*
X0236778Y0096600D03*
X0233578Y0098900D03*
D37*
X0232728Y0099800D03*
X0237328Y0098400D03*
X0235828Y0097200D03*
X0237228Y0096400D03*
X0239528Y0097700D03*
X0246828Y0097800D03*
X0251228Y0098000D03*
X0241428Y0104200D03*
X0246828Y0123000D03*
D38*
X0240428Y0122800D03*
X0240428Y0122700D03*
X0239628Y0121800D03*
X0237428Y0112500D03*
X0243728Y0103200D03*
X0243728Y0103100D03*
X0247028Y0097900D03*
X0247728Y0098100D03*
X0250528Y0097400D03*
X0251228Y0097900D03*
X0252828Y0099300D03*
X0252928Y0099400D03*
X0253728Y0107400D03*
X0253728Y0107600D03*
X0238528Y0098000D03*
X0237228Y0098500D03*
X0236928Y0096500D03*
X0235028Y0097700D03*
X0232728Y0099700D03*
D39*
X0233578Y0098700D03*
X0233978Y0099200D03*
X0234578Y0097900D03*
X0235278Y0097400D03*
X0236678Y0097800D03*
X0236978Y0098100D03*
X0236978Y0098700D03*
X0236178Y0099100D03*
X0244078Y0096700D03*
X0244078Y0096600D03*
X0244078Y0096500D03*
X0248078Y0098300D03*
X0248978Y0097400D03*
X0249978Y0097000D03*
X0250178Y0097100D03*
X0243778Y0102800D03*
X0243778Y0102900D03*
X0232578Y0114000D03*
X0232778Y0114500D03*
X0232778Y0114600D03*
X0232878Y0114800D03*
X0246778Y0122100D03*
X0246878Y0122200D03*
X0246978Y0122500D03*
X0246978Y0122600D03*
D40*
X0246378Y0121800D03*
X0242178Y0115700D03*
X0237478Y0112600D03*
X0232678Y0113500D03*
X0232678Y0113600D03*
X0237278Y0123100D03*
X0237478Y0123200D03*
X0253678Y0108100D03*
X0253678Y0108000D03*
X0253378Y0106700D03*
X0247578Y0098000D03*
X0248778Y0096500D03*
X0238678Y0097900D03*
X0236678Y0096700D03*
X0233578Y0099000D03*
D41*
X0233578Y0098800D03*
X0235078Y0097600D03*
X0235878Y0097100D03*
X0238278Y0098100D03*
X0244078Y0096900D03*
X0249378Y0096700D03*
X0249578Y0096800D03*
X0249778Y0096900D03*
X0249478Y0097900D03*
X0249378Y0098000D03*
X0250878Y0099800D03*
X0251878Y0098400D03*
X0252778Y0099200D03*
X0253778Y0107500D03*
X0239978Y0114700D03*
X0232778Y0114300D03*
X0232778Y0114200D03*
X0232578Y0113800D03*
X0232578Y0113700D03*
X0240478Y0122600D03*
X0240378Y0122900D03*
X0240378Y0123000D03*
X0240378Y0123100D03*
X0240378Y0123200D03*
D42*
X0240428Y0123300D03*
X0239328Y0121700D03*
X0239428Y0116000D03*
X0232828Y0114400D03*
X0232628Y0114100D03*
X0232628Y0113900D03*
X0246328Y0114900D03*
X0246628Y0121700D03*
X0246728Y0122900D03*
X0243728Y0103000D03*
X0244928Y0101100D03*
X0247928Y0098200D03*
X0248928Y0097500D03*
X0249428Y0098100D03*
X0250328Y0097200D03*
X0250428Y0097300D03*
X0251128Y0097800D03*
X0251828Y0098300D03*
X0252728Y0099100D03*
X0253328Y0099800D03*
X0250928Y0099900D03*
X0244028Y0096800D03*
X0237128Y0098600D03*
X0236828Y0098000D03*
X0236728Y0097900D03*
X0235928Y0097000D03*
X0235128Y0097500D03*
X0234528Y0098000D03*
X0232728Y0099600D03*
D43*
X0242978Y0097100D03*
X0233278Y0107700D03*
X0233178Y0107900D03*
X0233578Y0119500D03*
X0233678Y0119600D03*
X0249478Y0122000D03*
X0251978Y0119800D03*
X0252078Y0119700D03*
X0252178Y0119600D03*
X0251378Y0115500D03*
X0252778Y0111000D03*
D44*
X0249578Y0116800D03*
X0236778Y0121600D03*
X0235078Y0104700D03*
X0235178Y0104600D03*
X0242878Y0097200D03*
X0247478Y0100500D03*
D45*
X0248528Y0098500D03*
X0248328Y0098400D03*
X0248728Y0098600D03*
X0248928Y0098700D03*
X0247128Y0097300D03*
X0250928Y0097600D03*
X0251128Y0097700D03*
X0252728Y0099000D03*
X0243828Y0102700D03*
X0236828Y0098800D03*
X0236628Y0098900D03*
X0236628Y0097700D03*
X0236528Y0097600D03*
X0234628Y0097800D03*
X0234228Y0098100D03*
X0233628Y0098600D03*
X0232728Y0099500D03*
X0235228Y0099800D03*
X0241928Y0112400D03*
X0243628Y0112400D03*
X0232828Y0114700D03*
X0245628Y0122500D03*
X0246728Y0122800D03*
X0246928Y0122400D03*
X0246928Y0122300D03*
X0246828Y0121600D03*
D46*
X0242928Y0120800D03*
X0242928Y0098700D03*
X0243628Y0097400D03*
D47*
X0246578Y0097700D03*
X0253178Y0100100D03*
X0251178Y0102600D03*
X0251278Y0102700D03*
X0251778Y0103400D03*
X0251878Y0103500D03*
X0251878Y0103600D03*
X0252578Y0104900D03*
X0252878Y0105500D03*
X0252878Y0105600D03*
X0252878Y0105700D03*
X0253078Y0106200D03*
X0253078Y0106300D03*
X0253178Y0106500D03*
X0253578Y0109200D03*
X0253578Y0109600D03*
X0253578Y0109700D03*
X0253578Y0110300D03*
X0253578Y0110400D03*
X0242778Y0112300D03*
X0240378Y0115900D03*
X0232778Y0113000D03*
X0236778Y0122700D03*
X0238678Y0123600D03*
X0248978Y0122800D03*
X0232778Y0100100D03*
X0237578Y0098200D03*
X0238878Y0097800D03*
D48*
X0242978Y0098100D03*
X0249578Y0101200D03*
X0249678Y0101300D03*
X0249778Y0101400D03*
X0254478Y0102600D03*
X0254578Y0102800D03*
X0254678Y0102900D03*
X0254678Y0103000D03*
X0254778Y0103100D03*
X0254878Y0103300D03*
X0254978Y0103500D03*
X0253178Y0110600D03*
X0252278Y0114300D03*
X0252278Y0114400D03*
X0252278Y0114500D03*
X0251978Y0115100D03*
X0254678Y0116500D03*
X0254678Y0116600D03*
X0254578Y0116700D03*
X0254478Y0116900D03*
X0254778Y0116400D03*
X0254878Y0116200D03*
X0254978Y0116000D03*
X0249278Y0122400D03*
X0242978Y0121400D03*
X0231378Y0116800D03*
X0231278Y0116600D03*
X0231178Y0116500D03*
X0231178Y0116400D03*
X0231078Y0116300D03*
X0230978Y0116100D03*
X0230878Y0115900D03*
X0232878Y0111900D03*
X0232878Y0111800D03*
X0232878Y0111700D03*
X0237778Y0112900D03*
X0230878Y0103600D03*
X0230978Y0103400D03*
X0231078Y0103200D03*
X0231178Y0103100D03*
X0231178Y0103000D03*
X0231278Y0102900D03*
X0231378Y0102700D03*
D49*
X0233528Y0107500D03*
X0233328Y0109600D03*
X0233328Y0110500D03*
X0233328Y0110600D03*
X0233328Y0110700D03*
X0237628Y0113200D03*
X0234828Y0120500D03*
X0236228Y0121700D03*
X0242728Y0122300D03*
X0242928Y0121300D03*
X0249628Y0121700D03*
X0250928Y0120600D03*
X0251128Y0120500D03*
X0251228Y0120400D03*
X0248828Y0101100D03*
X0242928Y0098200D03*
X0238528Y0100000D03*
D50*
X0238328Y0100500D03*
X0242928Y0098300D03*
X0247428Y0100400D03*
X0242428Y0114600D03*
X0236928Y0113900D03*
X0236828Y0114000D03*
X0236728Y0114100D03*
X0236628Y0114200D03*
X0236528Y0114400D03*
X0236028Y0116600D03*
X0236128Y0116700D03*
X0236128Y0116800D03*
X0236328Y0121400D03*
X0242928Y0121200D03*
X0246228Y0119900D03*
X0249328Y0117300D03*
X0249928Y0116500D03*
D51*
X0242928Y0121100D03*
X0235728Y0115500D03*
X0235528Y0104400D03*
X0242928Y0098400D03*
X0247528Y0100800D03*
D52*
X0242978Y0098500D03*
X0238078Y0101400D03*
X0242978Y0121000D03*
D53*
X0242928Y0120900D03*
X0238028Y0101800D03*
X0242928Y0098600D03*
D54*
X0242978Y0098800D03*
X0242978Y0120700D03*
D55*
X0242928Y0120600D03*
X0237928Y0102900D03*
X0242928Y0098900D03*
D56*
X0242978Y0099000D03*
X0242978Y0120500D03*
D57*
X0242978Y0120400D03*
X0242978Y0099100D03*
D58*
X0242978Y0099200D03*
X0242978Y0120300D03*
D59*
X0242978Y0120200D03*
X0242978Y0099300D03*
D60*
X0242978Y0099400D03*
X0242978Y0120100D03*
D61*
X0242978Y0120000D03*
X0242978Y0099500D03*
D62*
X0242928Y0099600D03*
D63*
X0242928Y0099700D03*
D64*
X0242978Y0099800D03*
D65*
X0238578Y0099900D03*
X0248778Y0101000D03*
X0233378Y0108500D03*
X0233278Y0108800D03*
X0233278Y0108900D03*
X0233278Y0109000D03*
X0233278Y0109100D03*
X0233278Y0109200D03*
X0233278Y0109500D03*
X0233378Y0110800D03*
X0234678Y0120400D03*
X0249578Y0121800D03*
X0251378Y0120300D03*
X0250978Y0115700D03*
D66*
X0237928Y0102600D03*
X0245028Y0099900D03*
D67*
X0247278Y0100000D03*
X0234278Y0105400D03*
X0234278Y0105500D03*
X0234278Y0105600D03*
X0233778Y0107000D03*
X0233778Y0107100D03*
X0233778Y0107300D03*
X0233678Y0107400D03*
X0233478Y0110000D03*
X0233478Y0110100D03*
X0236878Y0118000D03*
X0236978Y0118100D03*
X0237078Y0118200D03*
X0238778Y0119600D03*
X0238978Y0119700D03*
X0235278Y0120800D03*
X0250478Y0120900D03*
D68*
X0250628Y0120800D03*
X0249728Y0121600D03*
X0250828Y0115800D03*
X0238628Y0119500D03*
X0238428Y0119400D03*
X0238128Y0119200D03*
X0237628Y0118800D03*
X0237528Y0118700D03*
X0237428Y0118600D03*
X0237328Y0118500D03*
X0237228Y0118400D03*
X0237128Y0118300D03*
X0235128Y0120700D03*
X0233428Y0109900D03*
X0233428Y0109800D03*
X0233828Y0106900D03*
X0233828Y0106800D03*
X0238428Y0100100D03*
D69*
X0238428Y0100200D03*
X0234228Y0105700D03*
X0234228Y0105800D03*
X0233828Y0107200D03*
X0233528Y0110300D03*
X0233528Y0110400D03*
X0242328Y0115800D03*
X0236828Y0117900D03*
X0236728Y0117800D03*
X0235428Y0120900D03*
X0247728Y0119100D03*
X0250328Y0121000D03*
X0247328Y0100100D03*
D70*
X0247378Y0100200D03*
X0238378Y0100300D03*
X0250178Y0116400D03*
X0248878Y0118000D03*
X0248778Y0118100D03*
X0248678Y0118200D03*
X0246778Y0119700D03*
X0249778Y0121300D03*
X0249978Y0121200D03*
X0239478Y0119900D03*
X0236378Y0117300D03*
X0236278Y0117100D03*
D71*
X0236178Y0116900D03*
X0249078Y0117700D03*
X0249178Y0117600D03*
X0249178Y0117500D03*
X0249278Y0117400D03*
X0250378Y0116000D03*
X0249578Y0121400D03*
X0247378Y0100300D03*
D72*
X0238328Y0100400D03*
X0237028Y0113800D03*
X0236228Y0117000D03*
X0236328Y0117200D03*
X0236128Y0121300D03*
X0242928Y0122200D03*
X0246528Y0119800D03*
X0248928Y0117900D03*
X0249028Y0117800D03*
X0250228Y0116300D03*
X0250228Y0116200D03*
X0250328Y0116100D03*
X0250428Y0115900D03*
D73*
X0251578Y0115300D03*
X0252678Y0119100D03*
X0237478Y0113100D03*
X0233078Y0111200D03*
X0233078Y0119000D03*
X0233178Y0119100D03*
X0233278Y0119200D03*
X0233378Y0119300D03*
X0236278Y0122000D03*
X0232978Y0100600D03*
X0233078Y0100500D03*
X0252678Y0100400D03*
D74*
X0238328Y0100600D03*
X0235028Y0104800D03*
X0236328Y0114700D03*
X0235928Y0116300D03*
X0249528Y0116900D03*
X0249528Y0117000D03*
D75*
X0249628Y0116700D03*
X0235828Y0116000D03*
X0238228Y0100700D03*
X0247528Y0100600D03*
D76*
X0247528Y0100700D03*
X0238228Y0100800D03*
X0235328Y0104500D03*
X0235728Y0115700D03*
X0236028Y0116200D03*
D77*
X0237828Y0112800D03*
X0231028Y0116200D03*
X0230928Y0116000D03*
X0230828Y0115800D03*
X0230728Y0115700D03*
X0230728Y0115600D03*
X0230628Y0115400D03*
X0230528Y0115200D03*
X0236428Y0122300D03*
X0252028Y0115000D03*
X0252128Y0114900D03*
X0252228Y0114700D03*
X0252228Y0114600D03*
X0255028Y0115900D03*
X0255128Y0115800D03*
X0255128Y0115700D03*
X0255228Y0115600D03*
X0255228Y0115500D03*
X0255328Y0115300D03*
X0255428Y0115100D03*
X0254928Y0116100D03*
X0254828Y0116300D03*
X0253228Y0110500D03*
X0255428Y0104400D03*
X0255328Y0104200D03*
X0255228Y0104000D03*
X0255228Y0103900D03*
X0255128Y0103800D03*
X0255128Y0103700D03*
X0255028Y0103600D03*
X0254928Y0103400D03*
X0254828Y0103200D03*
X0242828Y0100800D03*
X0231028Y0103300D03*
X0230928Y0103500D03*
X0230828Y0103700D03*
X0230728Y0103800D03*
X0230728Y0103900D03*
X0230628Y0104100D03*
X0230528Y0104300D03*
D78*
X0238178Y0101000D03*
X0247578Y0100900D03*
X0235678Y0115300D03*
X0235678Y0115400D03*
D79*
X0232578Y0118400D03*
X0232478Y0118300D03*
X0232378Y0118200D03*
X0233178Y0112200D03*
X0242278Y0114500D03*
X0249378Y0122200D03*
X0253178Y0118600D03*
X0253278Y0118500D03*
X0253378Y0118400D03*
X0252778Y0112000D03*
X0252778Y0111900D03*
X0252878Y0111700D03*
X0252878Y0111600D03*
X0252878Y0111500D03*
X0253378Y0101100D03*
X0253278Y0101000D03*
X0253178Y0100900D03*
X0232578Y0101100D03*
X0232478Y0101200D03*
X0232378Y0101300D03*
X0242978Y0124500D03*
D80*
X0235678Y0115200D03*
X0235678Y0115100D03*
X0236778Y0114800D03*
X0235778Y0104200D03*
X0238178Y0101100D03*
D81*
X0238128Y0101200D03*
D82*
X0238128Y0101300D03*
X0235728Y0115000D03*
D83*
X0238078Y0101500D03*
D84*
X0238078Y0101600D03*
D85*
X0240878Y0104100D03*
X0232078Y0101700D03*
X0231978Y0101800D03*
X0231878Y0101900D03*
X0231778Y0102100D03*
X0232878Y0111400D03*
X0232878Y0111500D03*
X0232878Y0111600D03*
X0232978Y0112100D03*
X0233078Y0112400D03*
X0231778Y0117400D03*
X0231878Y0117500D03*
X0231878Y0117600D03*
X0231978Y0117700D03*
X0232078Y0117800D03*
X0236378Y0122200D03*
X0239978Y0123900D03*
X0246178Y0123800D03*
X0249278Y0122300D03*
X0253778Y0117900D03*
X0253878Y0117700D03*
X0253978Y0117600D03*
X0254078Y0117500D03*
X0254278Y0117200D03*
X0252378Y0114000D03*
X0252378Y0113900D03*
X0252378Y0113800D03*
X0252478Y0113500D03*
X0252578Y0113300D03*
X0252578Y0113200D03*
X0252678Y0112900D03*
X0252678Y0112800D03*
X0252778Y0112600D03*
X0252778Y0112500D03*
X0252778Y0112400D03*
X0254278Y0102300D03*
X0254078Y0102000D03*
X0253978Y0101900D03*
X0253878Y0101800D03*
X0253778Y0101600D03*
D86*
X0238028Y0101700D03*
D87*
X0229778Y0106500D03*
X0229678Y0106900D03*
X0229678Y0107000D03*
X0229578Y0107400D03*
X0229578Y0107500D03*
X0229578Y0107600D03*
X0229478Y0107900D03*
X0229478Y0108000D03*
X0229478Y0108100D03*
X0229478Y0108200D03*
X0229478Y0108300D03*
X0229478Y0108400D03*
X0229478Y0108500D03*
X0229478Y0108600D03*
X0229378Y0108800D03*
X0229378Y0108900D03*
X0229378Y0109000D03*
X0229378Y0109100D03*
X0229378Y0109200D03*
X0229378Y0109300D03*
X0229378Y0109400D03*
X0229378Y0109500D03*
X0229378Y0109600D03*
X0229378Y0109700D03*
X0229378Y0109800D03*
X0229378Y0109900D03*
X0229378Y0110000D03*
X0229378Y0110100D03*
X0229378Y0110200D03*
X0229378Y0110300D03*
X0229378Y0110400D03*
X0229378Y0110500D03*
X0229378Y0110600D03*
X0229378Y0110700D03*
X0229478Y0110900D03*
X0229478Y0111000D03*
X0229478Y0111100D03*
X0229478Y0111200D03*
X0229478Y0111300D03*
X0229478Y0111400D03*
X0229478Y0111500D03*
X0229478Y0111600D03*
X0229578Y0111900D03*
X0229578Y0112000D03*
X0229578Y0112100D03*
X0229678Y0112500D03*
X0229678Y0112600D03*
X0229778Y0113000D03*
X0237778Y0112700D03*
X0236578Y0122500D03*
X0238178Y0123300D03*
X0247778Y0123300D03*
X0256178Y0112800D03*
X0256278Y0112400D03*
X0256278Y0112300D03*
X0256278Y0112200D03*
X0256378Y0111900D03*
X0256378Y0111800D03*
X0256378Y0111700D03*
X0256378Y0111600D03*
X0256378Y0111500D03*
X0256478Y0111200D03*
X0256478Y0111100D03*
X0256478Y0111000D03*
X0256478Y0110900D03*
X0256478Y0110800D03*
X0256478Y0110700D03*
X0256478Y0110600D03*
X0256478Y0110500D03*
X0256478Y0110400D03*
X0256478Y0110300D03*
X0256478Y0110200D03*
X0256478Y0110100D03*
X0256478Y0110000D03*
X0256478Y0109900D03*
X0256478Y0109800D03*
X0256478Y0109700D03*
X0256478Y0109600D03*
X0256478Y0109500D03*
X0256478Y0109400D03*
X0256478Y0109300D03*
X0256478Y0109200D03*
X0256478Y0109100D03*
X0256478Y0109000D03*
X0256478Y0108900D03*
X0256478Y0108800D03*
X0256478Y0108700D03*
X0256478Y0108600D03*
X0256478Y0108500D03*
X0256478Y0108400D03*
X0256478Y0108300D03*
X0256378Y0108000D03*
X0256378Y0107900D03*
X0256378Y0107800D03*
X0256378Y0107700D03*
X0256378Y0107600D03*
X0256278Y0107300D03*
X0256278Y0107200D03*
X0256278Y0107100D03*
X0256178Y0106700D03*
X0252278Y0104600D03*
X0251478Y0103200D03*
X0251278Y0103000D03*
X0250478Y0101900D03*
X0250378Y0101800D03*
X0250278Y0101700D03*
D88*
X0237978Y0102000D03*
D89*
X0237978Y0102100D03*
D90*
X0237978Y0102200D03*
D91*
X0237928Y0102300D03*
D92*
X0237978Y0102400D03*
X0242978Y0124000D03*
D93*
X0237928Y0102500D03*
D94*
X0237928Y0102700D03*
X0237928Y0102800D03*
D95*
X0237928Y0103000D03*
D96*
X0237878Y0103100D03*
D97*
X0237928Y0103200D03*
D98*
X0237928Y0103300D03*
X0237928Y0103400D03*
D99*
X0238578Y0103700D03*
X0238678Y0103500D03*
D100*
X0238628Y0103600D03*
D101*
X0238078Y0103800D03*
D102*
X0237878Y0103900D03*
D103*
X0237828Y0104000D03*
D104*
X0235878Y0104100D03*
X0242478Y0122100D03*
D105*
X0236228Y0116100D03*
X0235628Y0104300D03*
D106*
X0234578Y0104900D03*
X0234578Y0105000D03*
X0234578Y0105100D03*
X0234178Y0105900D03*
X0234178Y0106000D03*
X0234178Y0106100D03*
X0234078Y0106500D03*
X0233578Y0110200D03*
X0237378Y0113600D03*
X0237478Y0113500D03*
X0237778Y0113300D03*
X0236578Y0117600D03*
X0236678Y0117700D03*
X0239178Y0119800D03*
X0235778Y0121100D03*
X0235578Y0121000D03*
X0247278Y0119400D03*
X0247478Y0119300D03*
X0247578Y0119200D03*
X0247878Y0119000D03*
X0247978Y0118900D03*
X0248078Y0118800D03*
X0248178Y0118700D03*
X0248278Y0118600D03*
X0250178Y0121100D03*
D107*
X0251778Y0120000D03*
X0251178Y0115600D03*
X0234278Y0120100D03*
X0234178Y0120000D03*
X0233378Y0107600D03*
D108*
X0233228Y0107800D03*
X0233128Y0108000D03*
X0233128Y0108100D03*
X0233128Y0108200D03*
X0233128Y0108300D03*
X0233128Y0108400D03*
X0233528Y0119400D03*
X0236228Y0121900D03*
X0245628Y0123900D03*
X0247628Y0123100D03*
X0249428Y0122100D03*
X0252328Y0119500D03*
X0252428Y0119400D03*
X0252528Y0119300D03*
X0252628Y0119200D03*
X0251428Y0115400D03*
X0252828Y0111200D03*
X0252828Y0111100D03*
D109*
X0251628Y0120100D03*
X0251528Y0120200D03*
X0234528Y0120300D03*
X0234428Y0120200D03*
X0233328Y0111100D03*
X0233328Y0111000D03*
X0233328Y0110900D03*
X0233228Y0109400D03*
X0233228Y0109300D03*
X0233328Y0108700D03*
X0233328Y0108600D03*
D110*
X0233378Y0109700D03*
X0237778Y0118900D03*
X0237878Y0119000D03*
X0237978Y0119100D03*
X0238278Y0119300D03*
X0234978Y0120600D03*
X0250778Y0120700D03*
D111*
X0249378Y0121500D03*
X0249378Y0117200D03*
X0249478Y0117100D03*
X0249878Y0116600D03*
X0236578Y0114300D03*
X0236478Y0114500D03*
X0236378Y0114600D03*
X0235978Y0116400D03*
X0235978Y0116500D03*
X0236578Y0121500D03*
D112*
X0235928Y0114900D03*
D113*
X0235778Y0115800D03*
X0235778Y0115900D03*
D114*
X0233828Y0119700D03*
X0233928Y0119800D03*
X0234028Y0119900D03*
X0236228Y0121800D03*
X0249528Y0121900D03*
X0251828Y0119900D03*
D115*
X0180678Y0150475D02*
X0010678Y0150475D01*
X0010678Y0190475D01*
X0180678Y0190475D01*
X0180678Y0150475D01*
X0138917Y0082136D02*
X0138919Y0082211D01*
X0138925Y0082285D01*
X0138935Y0082359D01*
X0138948Y0082432D01*
X0138966Y0082505D01*
X0138987Y0082576D01*
X0139012Y0082647D01*
X0139041Y0082716D01*
X0139074Y0082783D01*
X0139110Y0082848D01*
X0139149Y0082912D01*
X0139191Y0082973D01*
X0139237Y0083032D01*
X0139286Y0083089D01*
X0139338Y0083142D01*
X0139392Y0083193D01*
X0139449Y0083242D01*
X0139509Y0083286D01*
X0139571Y0083328D01*
X0139635Y0083367D01*
X0139701Y0083402D01*
X0139768Y0083433D01*
X0139838Y0083461D01*
X0139908Y0083485D01*
X0139980Y0083506D01*
X0140053Y0083522D01*
X0140126Y0083535D01*
X0140201Y0083544D01*
X0140275Y0083549D01*
X0140350Y0083550D01*
X0140424Y0083547D01*
X0140499Y0083540D01*
X0140572Y0083529D01*
X0140646Y0083515D01*
X0140718Y0083496D01*
X0140789Y0083474D01*
X0140859Y0083448D01*
X0140928Y0083418D01*
X0140994Y0083385D01*
X0141059Y0083348D01*
X0141122Y0083308D01*
X0141183Y0083264D01*
X0141241Y0083218D01*
X0141297Y0083168D01*
X0141350Y0083116D01*
X0141401Y0083061D01*
X0141448Y0083003D01*
X0141492Y0082943D01*
X0141533Y0082880D01*
X0141571Y0082816D01*
X0141605Y0082750D01*
X0141636Y0082681D01*
X0141663Y0082612D01*
X0141686Y0082541D01*
X0141705Y0082469D01*
X0141721Y0082396D01*
X0141733Y0082322D01*
X0141741Y0082248D01*
X0141745Y0082173D01*
X0141745Y0082099D01*
X0141741Y0082024D01*
X0141733Y0081950D01*
X0141721Y0081876D01*
X0141705Y0081803D01*
X0141686Y0081731D01*
X0141663Y0081660D01*
X0141636Y0081591D01*
X0141605Y0081522D01*
X0141571Y0081456D01*
X0141533Y0081392D01*
X0141492Y0081329D01*
X0141448Y0081269D01*
X0141401Y0081211D01*
X0141350Y0081156D01*
X0141297Y0081104D01*
X0141241Y0081054D01*
X0141183Y0081008D01*
X0141122Y0080964D01*
X0141059Y0080924D01*
X0140994Y0080887D01*
X0140928Y0080854D01*
X0140859Y0080824D01*
X0140789Y0080798D01*
X0140718Y0080776D01*
X0140646Y0080757D01*
X0140572Y0080743D01*
X0140499Y0080732D01*
X0140424Y0080725D01*
X0140350Y0080722D01*
X0140275Y0080723D01*
X0140201Y0080728D01*
X0140126Y0080737D01*
X0140053Y0080750D01*
X0139980Y0080766D01*
X0139908Y0080787D01*
X0139838Y0080811D01*
X0139768Y0080839D01*
X0139701Y0080870D01*
X0139635Y0080905D01*
X0139571Y0080944D01*
X0139509Y0080986D01*
X0139449Y0081030D01*
X0139392Y0081079D01*
X0139338Y0081130D01*
X0139286Y0081183D01*
X0139237Y0081240D01*
X0139191Y0081299D01*
X0139149Y0081360D01*
X0139110Y0081424D01*
X0139074Y0081489D01*
X0139041Y0081556D01*
X0139012Y0081625D01*
X0138987Y0081696D01*
X0138966Y0081767D01*
X0138948Y0081840D01*
X0138935Y0081913D01*
X0138925Y0081987D01*
X0138919Y0082061D01*
X0138917Y0082136D01*
X0153066Y0066587D02*
X0146791Y0060312D01*
X0156690Y0050413D01*
X0162966Y0056688D01*
X0153066Y0066587D01*
X0075852Y0074426D02*
X0074277Y0074426D01*
X0075852Y0074426D01*
X0075852Y0076001D01*
X0075852Y0074426D01*
X0061679Y0074426D02*
X0061482Y0074426D01*
X0060104Y0075804D01*
X0060104Y0076001D01*
X0060104Y0075804D01*
X0060104Y0088599D02*
X0060104Y0090174D01*
X0061679Y0090174D01*
X0060104Y0090174D01*
X0060104Y0088599D01*
X0074277Y0090174D02*
X0075852Y0090174D01*
X0075852Y0088599D01*
X0075852Y0090174D01*
X0074277Y0090174D01*
X0060159Y0040031D02*
X0059253Y0040031D01*
X0060159Y0040031D02*
X0060159Y0028219D01*
X0059253Y0028219D01*
X0052553Y0024925D02*
X0035953Y0024925D01*
X0035953Y0008325D01*
X0052553Y0008325D01*
X0052553Y0024925D01*
X0050710Y0029007D02*
X0050710Y0030188D01*
X0048348Y0030188D01*
X0048348Y0028219D01*
X0049253Y0028219D01*
X0048348Y0030188D02*
X0048348Y0040031D01*
X0049253Y0040031D01*
X0079728Y0011653D02*
X0081230Y0013154D01*
X0081230Y0008650D01*
X0082731Y0008650D02*
X0079728Y0008650D01*
X0119728Y0008650D02*
X0122731Y0008650D01*
X0121230Y0008650D02*
X0121230Y0013154D01*
X0119728Y0011653D01*
X0125228Y0010902D02*
X0128231Y0010902D01*
X0127480Y0008650D02*
X0127480Y0013154D01*
X0125228Y0010902D01*
X0159728Y0011753D02*
X0161230Y0013254D01*
X0161230Y0008750D01*
X0162731Y0008750D02*
X0159728Y0008750D01*
X0165228Y0010902D02*
X0167480Y0013154D01*
X0167480Y0008650D01*
X0168231Y0010902D02*
X0165228Y0010902D01*
X0199728Y0011753D02*
X0201230Y0013254D01*
X0201230Y0008750D01*
X0202731Y0008750D02*
X0199728Y0008750D01*
X0205228Y0011002D02*
X0208231Y0011002D01*
X0207480Y0008750D02*
X0207480Y0013254D01*
X0205228Y0011002D01*
X0245228Y0011002D02*
X0248231Y0011002D01*
X0247480Y0008750D02*
X0247480Y0013254D01*
X0245228Y0011002D01*
X0255223Y0018419D02*
X0255223Y0030231D01*
X0267034Y0030231D01*
X0267034Y0018419D01*
X0255223Y0018419D01*
D116*
X0098270Y0051800D03*
X0059553Y0011658D03*
X0035586Y0115800D03*
X0035686Y0121300D03*
D117*
X0065503Y0137250D02*
X0065503Y0142250D01*
X0068003Y0144750D01*
X0073003Y0144750D01*
X0075503Y0142250D01*
X0078003Y0144750D01*
X0083003Y0144750D01*
X0085503Y0142250D01*
X0088003Y0144750D01*
X0093003Y0144750D01*
X0095503Y0142250D01*
X0098003Y0144750D01*
X0103003Y0144750D01*
X0105503Y0142250D01*
X0105503Y0137250D01*
X0103003Y0134750D01*
X0098003Y0134750D01*
X0095503Y0137250D01*
X0093003Y0134750D01*
X0088003Y0134750D01*
X0085503Y0137250D01*
X0085503Y0142250D01*
X0085503Y0137250D02*
X0083003Y0134750D01*
X0078003Y0134750D01*
X0075503Y0137250D01*
X0073003Y0134750D01*
X0068003Y0134750D01*
X0065503Y0137250D01*
X0075503Y0137250D02*
X0075503Y0142250D01*
X0075705Y0130499D02*
X0097402Y0130499D01*
X0095503Y0137250D02*
X0095503Y0142250D01*
X0136616Y0108081D02*
X0139400Y0110865D01*
X0142184Y0110865D01*
X0142184Y0113649D01*
X0144968Y0116432D01*
X0147752Y0116432D01*
X0150536Y0113649D01*
X0150536Y0110865D01*
X0147752Y0108081D01*
X0144968Y0108081D01*
X0144968Y0105297D01*
X0142184Y0102513D01*
X0139400Y0102513D01*
X0139400Y0099729D01*
X0136616Y0096945D01*
X0133832Y0096945D01*
X0131049Y0099729D01*
X0131049Y0102513D01*
X0133832Y0105297D01*
X0136616Y0105297D01*
X0136616Y0108081D01*
X0136616Y0105297D02*
X0139400Y0102513D01*
X0133832Y0096945D02*
X0133832Y0094161D01*
X0131049Y0091377D01*
X0128265Y0091377D01*
X0125481Y0094161D01*
X0125481Y0096945D01*
X0128265Y0099729D01*
X0131049Y0099729D01*
X0125481Y0094161D02*
X0122697Y0094161D01*
X0119913Y0091377D01*
X0119913Y0088594D01*
X0122697Y0085810D01*
X0125481Y0085810D01*
X0128265Y0088594D01*
X0128265Y0091377D01*
X0122697Y0085810D02*
X0122697Y0083026D01*
X0119913Y0080242D01*
X0117129Y0080242D01*
X0114345Y0083026D01*
X0114345Y0085810D01*
X0117129Y0088594D01*
X0119913Y0088594D01*
X0114345Y0083026D02*
X0111561Y0083026D01*
X0108777Y0080242D01*
X0108777Y0077458D01*
X0111561Y0074674D01*
X0114345Y0074674D01*
X0117129Y0077458D01*
X0117129Y0080242D01*
X0097402Y0106901D02*
X0075705Y0106901D01*
X0034478Y0094200D02*
X0034478Y0089200D01*
X0031978Y0086700D01*
X0016978Y0086700D01*
X0014478Y0084200D01*
X0014478Y0079200D01*
X0016978Y0076700D01*
X0031978Y0076700D01*
X0034478Y0079200D01*
X0034478Y0084200D01*
X0031978Y0086700D01*
X0034478Y0094200D02*
X0031978Y0096700D01*
X0016978Y0096700D01*
X0014478Y0094200D01*
X0014478Y0089200D01*
X0016978Y0086700D01*
X0017053Y0076625D02*
X0032053Y0076625D01*
X0034553Y0074125D01*
X0034553Y0069125D01*
X0032053Y0066625D01*
X0017053Y0066625D01*
X0014553Y0064125D01*
X0014553Y0059125D01*
X0017053Y0056625D01*
X0032053Y0056625D01*
X0034553Y0054125D01*
X0034553Y0049125D01*
X0032053Y0046625D01*
X0017053Y0046625D01*
X0014553Y0044125D01*
X0014553Y0039125D01*
X0017053Y0036625D01*
X0032053Y0036625D01*
X0034553Y0034125D01*
X0034553Y0029125D01*
X0032053Y0026625D01*
X0017053Y0026625D01*
X0014553Y0024125D01*
X0014553Y0019125D01*
X0017053Y0016625D01*
X0014553Y0014125D01*
X0014553Y0009125D01*
X0017053Y0006625D01*
X0032053Y0006625D01*
X0034553Y0009125D01*
X0034553Y0014125D01*
X0032053Y0016625D01*
X0017053Y0016625D01*
X0017053Y0026625D02*
X0014553Y0029125D01*
X0014553Y0034125D01*
X0017053Y0036625D01*
X0017053Y0046625D02*
X0014553Y0049125D01*
X0014553Y0054125D01*
X0017053Y0056625D01*
X0017053Y0066625D02*
X0014553Y0069125D01*
X0014553Y0074125D01*
X0017053Y0076625D01*
X0032053Y0066625D02*
X0034553Y0064125D01*
X0034553Y0059125D01*
X0032053Y0056625D01*
X0032053Y0046625D02*
X0034553Y0044125D01*
X0034553Y0039125D01*
X0032053Y0036625D01*
X0032053Y0026625D02*
X0034553Y0024125D01*
X0034553Y0019125D01*
X0032053Y0016625D01*
X0083978Y0013400D02*
X0083978Y0008400D01*
X0086478Y0005900D01*
X0091478Y0005900D01*
X0093978Y0008400D01*
X0096478Y0005900D01*
X0101478Y0005900D01*
X0103978Y0008400D01*
X0106478Y0005900D01*
X0111478Y0005900D01*
X0113978Y0008400D01*
X0116478Y0005900D01*
X0121478Y0005900D01*
X0123978Y0008400D01*
X0126478Y0005900D01*
X0131478Y0005900D01*
X0133978Y0008400D01*
X0136478Y0005900D01*
X0141478Y0005900D01*
X0143978Y0008400D01*
X0146478Y0005900D01*
X0151478Y0005900D01*
X0153978Y0008400D01*
X0156478Y0005900D01*
X0161478Y0005900D01*
X0163978Y0008400D01*
X0163978Y0013400D01*
X0161478Y0015900D01*
X0156478Y0015900D01*
X0153978Y0013400D01*
X0151478Y0015900D01*
X0146478Y0015900D01*
X0143978Y0013400D01*
X0141478Y0015900D01*
X0136478Y0015900D01*
X0133978Y0013400D01*
X0131478Y0015900D01*
X0126478Y0015900D01*
X0123978Y0013400D01*
X0123978Y0008400D01*
X0123978Y0013400D01*
X0121478Y0015900D01*
X0116478Y0015900D01*
X0113978Y0013400D01*
X0111478Y0015900D01*
X0106478Y0015900D01*
X0103978Y0013400D01*
X0101478Y0015900D01*
X0096478Y0015900D01*
X0093978Y0013400D01*
X0091478Y0015900D01*
X0086478Y0015900D01*
X0083978Y0013400D01*
X0163978Y0013500D02*
X0163978Y0008500D01*
X0166478Y0006000D01*
X0171478Y0006000D01*
X0173978Y0008500D01*
X0176478Y0006000D01*
X0181478Y0006000D01*
X0183978Y0008500D01*
X0186478Y0006000D01*
X0191478Y0006000D01*
X0193978Y0008500D01*
X0196478Y0006000D01*
X0201478Y0006000D01*
X0203978Y0008500D01*
X0206478Y0006000D01*
X0211478Y0006000D01*
X0213978Y0008500D01*
X0216478Y0006000D01*
X0221478Y0006000D01*
X0223978Y0008500D01*
X0226478Y0006000D01*
X0231478Y0006000D01*
X0233978Y0008500D01*
X0236478Y0006000D01*
X0241478Y0006000D01*
X0243978Y0008500D01*
X0243978Y0013500D01*
X0241478Y0016000D01*
X0236478Y0016000D01*
X0233978Y0013500D01*
X0231478Y0016000D01*
X0226478Y0016000D01*
X0223978Y0013500D01*
X0221478Y0016000D01*
X0216478Y0016000D01*
X0213978Y0013500D01*
X0211478Y0016000D01*
X0206478Y0016000D01*
X0203978Y0013500D01*
X0203978Y0008500D01*
X0203978Y0013500D01*
X0201478Y0016000D01*
X0196478Y0016000D01*
X0193978Y0013500D01*
X0191478Y0016000D01*
X0186478Y0016000D01*
X0183978Y0013500D01*
X0181478Y0016000D01*
X0176478Y0016000D01*
X0173978Y0013500D01*
X0171478Y0016000D01*
X0166478Y0016000D01*
X0163978Y0013500D01*
X0224336Y0056214D02*
X0225396Y0055154D01*
X0228225Y0057982D01*
X0227164Y0059043D01*
X0224336Y0056214D01*
X0223275Y0057275D02*
X0224689Y0058689D01*
X0226103Y0060103D01*
X0224689Y0058689D02*
X0223275Y0060103D01*
X0218445Y0059984D02*
X0223395Y0064933D01*
X0223748Y0065287D01*
X0240037Y0048998D01*
X0240079Y0048954D01*
X0240117Y0048908D01*
X0240153Y0048859D01*
X0240186Y0048808D01*
X0240215Y0048756D01*
X0240242Y0048701D01*
X0240265Y0048646D01*
X0240285Y0048589D01*
X0240301Y0048530D01*
X0240314Y0048471D01*
X0240323Y0048412D01*
X0240328Y0048351D01*
X0240330Y0048291D01*
X0240328Y0048231D01*
X0240323Y0048170D01*
X0240314Y0048111D01*
X0240301Y0048052D01*
X0240285Y0047993D01*
X0240265Y0047936D01*
X0240242Y0047881D01*
X0240215Y0047826D01*
X0240186Y0047774D01*
X0240153Y0047723D01*
X0240117Y0047674D01*
X0240079Y0047628D01*
X0240037Y0047584D01*
X0235794Y0043342D01*
X0235750Y0043300D01*
X0235704Y0043262D01*
X0235655Y0043226D01*
X0235604Y0043193D01*
X0235552Y0043164D01*
X0235497Y0043137D01*
X0235442Y0043114D01*
X0235385Y0043094D01*
X0235326Y0043078D01*
X0235267Y0043065D01*
X0235208Y0043056D01*
X0235147Y0043051D01*
X0235087Y0043049D01*
X0235027Y0043051D01*
X0234966Y0043056D01*
X0234907Y0043065D01*
X0234848Y0043078D01*
X0234789Y0043094D01*
X0234732Y0043114D01*
X0234677Y0043137D01*
X0234622Y0043164D01*
X0234570Y0043193D01*
X0234519Y0043226D01*
X0234470Y0043262D01*
X0234424Y0043300D01*
X0234380Y0043342D01*
X0218091Y0059630D01*
X0218445Y0059984D01*
X0217384Y0061044D01*
X0222334Y0065994D01*
X0223395Y0064933D01*
X0229285Y0056921D02*
X0227871Y0055507D01*
X0229285Y0054093D01*
X0227871Y0055507D02*
X0226457Y0054093D01*
X0267378Y0056000D02*
X0267378Y0051000D01*
X0269878Y0048500D01*
X0274878Y0048500D01*
X0277378Y0051000D01*
X0277378Y0056000D01*
X0274878Y0058500D01*
X0269878Y0058500D01*
X0267378Y0056000D01*
X0269878Y0058500D02*
X0267378Y0061000D01*
X0267378Y0066000D01*
X0269878Y0068500D01*
X0267378Y0071000D01*
X0267378Y0076000D01*
X0269878Y0078500D01*
X0267378Y0081000D01*
X0267378Y0086000D01*
X0269878Y0088500D01*
X0267378Y0091000D01*
X0267378Y0096000D01*
X0269878Y0098500D01*
X0267378Y0101000D01*
X0267378Y0106000D01*
X0269878Y0108500D01*
X0267378Y0111000D01*
X0267378Y0116000D01*
X0269878Y0118500D01*
X0267378Y0121000D01*
X0267378Y0126000D01*
X0269878Y0128500D01*
X0267378Y0131000D01*
X0267378Y0136000D01*
X0269878Y0138500D01*
X0267378Y0141000D01*
X0267378Y0146000D01*
X0269878Y0148500D01*
X0267378Y0151000D01*
X0267378Y0156000D01*
X0269878Y0158500D01*
X0274878Y0158500D01*
X0277378Y0156000D01*
X0277378Y0151000D01*
X0274878Y0148500D01*
X0277378Y0146000D01*
X0277378Y0141000D01*
X0274878Y0138500D01*
X0269878Y0138500D01*
X0274878Y0138500D02*
X0277378Y0136000D01*
X0277378Y0131000D01*
X0274878Y0128500D01*
X0277378Y0126000D01*
X0277378Y0121000D01*
X0274878Y0118500D01*
X0277378Y0116000D01*
X0277378Y0111000D01*
X0274878Y0108500D01*
X0269878Y0108500D01*
X0274878Y0108500D02*
X0277378Y0106000D01*
X0277378Y0101000D01*
X0274878Y0098500D01*
X0277378Y0096000D01*
X0277378Y0091000D01*
X0274878Y0088500D01*
X0277378Y0086000D01*
X0277378Y0081000D01*
X0274878Y0078500D01*
X0269878Y0078500D01*
X0274878Y0078500D02*
X0277378Y0076000D01*
X0277378Y0071000D01*
X0274878Y0068500D01*
X0277378Y0066000D01*
X0277378Y0061000D01*
X0274878Y0058500D01*
X0274878Y0068500D02*
X0269878Y0068500D01*
X0269878Y0088500D02*
X0274878Y0088500D01*
X0274878Y0098500D02*
X0269878Y0098500D01*
X0269878Y0118500D02*
X0274878Y0118500D01*
X0274878Y0128500D02*
X0269878Y0128500D01*
X0269878Y0148500D02*
X0274878Y0148500D01*
X0264878Y0158500D02*
X0262378Y0156000D01*
X0257378Y0156000D01*
X0254878Y0158500D01*
X0252378Y0156000D01*
X0247378Y0156000D01*
X0244878Y0158500D01*
X0242378Y0156000D01*
X0237378Y0156000D01*
X0234878Y0158500D01*
X0232378Y0156000D01*
X0227378Y0156000D01*
X0224878Y0158500D01*
X0222378Y0156000D01*
X0217378Y0156000D01*
X0214878Y0158500D01*
X0212378Y0156000D01*
X0207378Y0156000D01*
X0204878Y0158500D01*
X0202378Y0156000D01*
X0197378Y0156000D01*
X0194878Y0158500D01*
X0192378Y0156000D01*
X0187378Y0156000D01*
X0184878Y0158500D01*
X0184878Y0163500D01*
X0187378Y0166000D01*
X0192378Y0166000D01*
X0194878Y0163500D01*
X0197378Y0166000D01*
X0202378Y0166000D01*
X0204878Y0163500D01*
X0204878Y0158500D01*
X0204878Y0163500D02*
X0207378Y0166000D01*
X0212378Y0166000D01*
X0214878Y0163500D01*
X0217378Y0166000D01*
X0222378Y0166000D01*
X0224878Y0163500D01*
X0227378Y0166000D01*
X0232378Y0166000D01*
X0234878Y0163500D01*
X0234878Y0158500D01*
X0234878Y0163500D02*
X0237378Y0166000D01*
X0242378Y0166000D01*
X0244878Y0163500D01*
X0247378Y0166000D01*
X0252378Y0166000D01*
X0254878Y0163500D01*
X0257378Y0166000D01*
X0262378Y0166000D01*
X0264878Y0163500D01*
X0264878Y0158500D01*
X0254878Y0158500D02*
X0254878Y0163500D01*
X0244878Y0163500D02*
X0244878Y0158500D01*
X0224878Y0158500D02*
X0224878Y0163500D01*
X0214878Y0163500D02*
X0214878Y0158500D01*
X0194878Y0158500D02*
X0194878Y0163500D01*
X0142184Y0110865D02*
X0144968Y0108081D01*
D118*
X0256207Y0019601D02*
X0256209Y0019628D01*
X0256215Y0019655D01*
X0256224Y0019681D01*
X0256237Y0019705D01*
X0256253Y0019728D01*
X0256272Y0019747D01*
X0256294Y0019764D01*
X0256318Y0019778D01*
X0256343Y0019788D01*
X0256370Y0019795D01*
X0256397Y0019798D01*
X0256425Y0019797D01*
X0256452Y0019792D01*
X0256478Y0019784D01*
X0256502Y0019772D01*
X0256525Y0019756D01*
X0256546Y0019738D01*
X0256563Y0019717D01*
X0256578Y0019693D01*
X0256589Y0019668D01*
X0256597Y0019642D01*
X0256601Y0019615D01*
X0256601Y0019587D01*
X0256597Y0019560D01*
X0256589Y0019534D01*
X0256578Y0019509D01*
X0256563Y0019485D01*
X0256546Y0019464D01*
X0256525Y0019446D01*
X0256503Y0019430D01*
X0256478Y0019418D01*
X0256452Y0019410D01*
X0256425Y0019405D01*
X0256397Y0019404D01*
X0256370Y0019407D01*
X0256343Y0019414D01*
X0256318Y0019424D01*
X0256294Y0019438D01*
X0256272Y0019455D01*
X0256253Y0019474D01*
X0256237Y0019497D01*
X0256224Y0019521D01*
X0256215Y0019547D01*
X0256209Y0019574D01*
X0256207Y0019601D01*
D119*
X0260212Y0041500D02*
X0260731Y0041500D01*
X0260212Y0041500D02*
X0259693Y0042019D01*
X0259693Y0042538D01*
X0260731Y0043576D01*
X0261250Y0043576D01*
X0261769Y0043057D01*
X0261769Y0042538D01*
X0260208Y0044100D02*
X0259948Y0043841D01*
X0259429Y0043841D01*
X0259170Y0044100D01*
X0259170Y0044619D01*
X0259429Y0044879D01*
X0259948Y0044879D01*
X0260208Y0044619D01*
X0260208Y0044100D01*
X0259164Y0045663D02*
X0256569Y0045144D01*
X0256044Y0045668D02*
X0256823Y0046447D01*
X0256823Y0046966D01*
X0256304Y0046966D01*
X0255525Y0046187D01*
X0255006Y0046706D02*
X0256044Y0047744D01*
X0256304Y0047485D01*
X0256304Y0046966D01*
X0255260Y0048010D02*
X0254741Y0047491D01*
X0254222Y0047491D01*
X0253444Y0048269D01*
X0252925Y0047750D02*
X0254482Y0049307D01*
X0255260Y0048529D01*
X0255260Y0048010D01*
X0253698Y0049572D02*
X0253698Y0050091D01*
X0252919Y0050870D01*
X0251362Y0049313D01*
X0251881Y0049832D02*
X0252660Y0049053D01*
X0253179Y0049053D01*
X0253698Y0049572D01*
X0250572Y0052697D02*
X0250053Y0052178D01*
X0249535Y0052178D01*
X0249016Y0052697D01*
X0249016Y0053216D01*
X0249535Y0053735D02*
X0250313Y0053476D01*
X0250572Y0053216D01*
X0250572Y0052697D01*
X0251351Y0053476D02*
X0250313Y0054514D01*
X0249535Y0053735D01*
X0249269Y0054520D02*
X0249529Y0054779D01*
X0249529Y0055298D01*
X0249010Y0055817D01*
X0248491Y0055817D01*
X0247707Y0056082D02*
X0246669Y0057120D01*
X0247707Y0057120D02*
X0246669Y0056082D01*
X0245631Y0056082D02*
X0246669Y0055044D01*
X0247193Y0054520D02*
X0249269Y0054520D01*
X0248231Y0053482D02*
X0247193Y0054520D01*
X0243543Y0058170D02*
X0243283Y0058430D01*
X0243543Y0058689D01*
X0243802Y0058430D01*
X0243543Y0058170D01*
X0242245Y0059468D02*
X0245100Y0059727D01*
X0244062Y0060765D02*
X0243802Y0060506D01*
X0243543Y0060765D01*
X0243802Y0061025D01*
X0244062Y0060765D01*
X0242758Y0062068D02*
X0241202Y0060511D01*
X0240683Y0061030D02*
X0241721Y0059992D01*
X0241721Y0062068D02*
X0242758Y0062068D01*
X0240420Y0061812D02*
X0240161Y0061552D01*
X0239901Y0061812D01*
X0240161Y0062071D01*
X0240420Y0061812D01*
X0239636Y0062596D02*
X0239117Y0062596D01*
X0238598Y0063115D01*
X0238598Y0063634D01*
X0240674Y0063634D01*
X0239636Y0062596D01*
X0238598Y0063634D02*
X0239636Y0064672D01*
X0240155Y0064672D01*
X0240674Y0064153D01*
X0240674Y0063634D01*
X0237290Y0066499D02*
X0235993Y0066758D01*
X0236252Y0065461D01*
X0235474Y0066239D02*
X0237031Y0067796D01*
X0235987Y0068840D02*
X0234430Y0067283D01*
X0233911Y0067802D02*
X0234949Y0066764D01*
X0234949Y0068840D02*
X0235987Y0068840D01*
X0234684Y0069624D02*
X0234684Y0070143D01*
X0234165Y0070662D01*
X0233646Y0070662D01*
X0233387Y0070402D01*
X0233387Y0069883D01*
X0234165Y0069105D01*
X0233646Y0068586D02*
X0234684Y0069624D01*
X0233646Y0068586D02*
X0233127Y0068586D01*
X0232608Y0069105D01*
X0232608Y0069624D01*
X0190547Y0092006D02*
X0189131Y0090590D01*
X0189131Y0093421D01*
X0188777Y0093775D01*
X0188070Y0093775D01*
X0187362Y0093067D01*
X0187362Y0092359D01*
X0186694Y0091691D02*
X0187048Y0091338D01*
X0187048Y0090630D01*
X0187755Y0090630D01*
X0188109Y0090276D01*
X0188109Y0089568D01*
X0187402Y0088861D01*
X0186694Y0088861D01*
X0185318Y0088900D02*
X0183903Y0087485D01*
X0183903Y0089608D01*
X0186026Y0087485D01*
X0183235Y0086817D02*
X0183235Y0086109D01*
X0182173Y0085047D01*
X0181505Y0084379D02*
X0181859Y0084025D01*
X0181859Y0083318D01*
X0181151Y0082610D01*
X0180443Y0082610D01*
X0180129Y0081588D02*
X0178006Y0083711D01*
X0178006Y0082296D01*
X0176591Y0082296D01*
X0178714Y0080173D01*
X0179382Y0083672D02*
X0180089Y0083672D01*
X0180797Y0084379D01*
X0181505Y0084379D01*
X0182881Y0084340D02*
X0180758Y0086463D01*
X0181819Y0087524D01*
X0182527Y0087524D01*
X0183235Y0086817D01*
X0180443Y0085441D02*
X0179736Y0085441D01*
X0179028Y0084733D01*
X0179028Y0084025D01*
X0179382Y0083672D01*
X0185278Y0090276D02*
X0185278Y0090984D01*
X0185986Y0091691D01*
X0186694Y0091691D01*
X0187048Y0090630D02*
X0186694Y0090276D01*
X0077503Y0125800D02*
X0077505Y0125875D01*
X0077511Y0125949D01*
X0077521Y0126023D01*
X0077535Y0126096D01*
X0077552Y0126168D01*
X0077574Y0126240D01*
X0077599Y0126310D01*
X0077628Y0126378D01*
X0077661Y0126446D01*
X0077697Y0126511D01*
X0077736Y0126574D01*
X0077779Y0126635D01*
X0077825Y0126694D01*
X0077874Y0126750D01*
X0077926Y0126803D01*
X0077981Y0126854D01*
X0078038Y0126901D01*
X0078098Y0126946D01*
X0078160Y0126987D01*
X0078225Y0127025D01*
X0078291Y0127059D01*
X0078359Y0127090D01*
X0078428Y0127117D01*
X0078499Y0127140D01*
X0078571Y0127160D01*
X0078644Y0127176D01*
X0078717Y0127188D01*
X0078791Y0127196D01*
X0078866Y0127200D01*
X0078940Y0127200D01*
X0079015Y0127196D01*
X0079089Y0127188D01*
X0079162Y0127176D01*
X0079235Y0127160D01*
X0079307Y0127140D01*
X0079378Y0127117D01*
X0079447Y0127090D01*
X0079515Y0127059D01*
X0079581Y0127025D01*
X0079646Y0126987D01*
X0079708Y0126946D01*
X0079768Y0126901D01*
X0079825Y0126854D01*
X0079880Y0126803D01*
X0079932Y0126750D01*
X0079981Y0126694D01*
X0080027Y0126635D01*
X0080070Y0126574D01*
X0080109Y0126511D01*
X0080145Y0126446D01*
X0080178Y0126378D01*
X0080207Y0126310D01*
X0080232Y0126240D01*
X0080254Y0126168D01*
X0080271Y0126096D01*
X0080285Y0126023D01*
X0080295Y0125949D01*
X0080301Y0125875D01*
X0080303Y0125800D01*
X0080301Y0125725D01*
X0080295Y0125651D01*
X0080285Y0125577D01*
X0080271Y0125504D01*
X0080254Y0125432D01*
X0080232Y0125360D01*
X0080207Y0125290D01*
X0080178Y0125222D01*
X0080145Y0125154D01*
X0080109Y0125089D01*
X0080070Y0125026D01*
X0080027Y0124965D01*
X0079981Y0124906D01*
X0079932Y0124850D01*
X0079880Y0124797D01*
X0079825Y0124746D01*
X0079768Y0124699D01*
X0079708Y0124654D01*
X0079646Y0124613D01*
X0079581Y0124575D01*
X0079515Y0124541D01*
X0079447Y0124510D01*
X0079378Y0124483D01*
X0079307Y0124460D01*
X0079235Y0124440D01*
X0079162Y0124424D01*
X0079089Y0124412D01*
X0079015Y0124404D01*
X0078940Y0124400D01*
X0078866Y0124400D01*
X0078791Y0124404D01*
X0078717Y0124412D01*
X0078644Y0124424D01*
X0078571Y0124440D01*
X0078499Y0124460D01*
X0078428Y0124483D01*
X0078359Y0124510D01*
X0078291Y0124541D01*
X0078225Y0124575D01*
X0078160Y0124613D01*
X0078098Y0124654D01*
X0078038Y0124699D01*
X0077981Y0124746D01*
X0077926Y0124797D01*
X0077874Y0124850D01*
X0077825Y0124906D01*
X0077779Y0124965D01*
X0077736Y0125026D01*
X0077697Y0125089D01*
X0077661Y0125154D01*
X0077628Y0125222D01*
X0077599Y0125290D01*
X0077574Y0125360D01*
X0077552Y0125432D01*
X0077535Y0125504D01*
X0077521Y0125577D01*
X0077511Y0125651D01*
X0077505Y0125725D01*
X0077503Y0125800D01*
D120*
X0078948Y0150675D02*
X0078948Y0155279D01*
X0080482Y0155279D02*
X0083551Y0150675D01*
X0085086Y0150675D02*
X0088155Y0150675D01*
X0086621Y0150675D02*
X0086621Y0155279D01*
X0085086Y0153744D01*
X0083551Y0155279D02*
X0080482Y0150675D01*
X0078948Y0152977D02*
X0075878Y0152977D01*
X0075878Y0150675D02*
X0075878Y0155279D01*
D121*
X0048859Y0104421D02*
X0040198Y0104421D01*
X0040198Y0104422D02*
X0040152Y0104420D01*
X0040106Y0104415D01*
X0040060Y0104406D01*
X0040015Y0104393D01*
X0039972Y0104377D01*
X0039930Y0104358D01*
X0039889Y0104335D01*
X0039851Y0104309D01*
X0039814Y0104280D01*
X0039780Y0104249D01*
X0039749Y0104215D01*
X0039720Y0104178D01*
X0039694Y0104140D01*
X0039671Y0104099D01*
X0039652Y0104057D01*
X0039636Y0104014D01*
X0039623Y0103969D01*
X0039614Y0103923D01*
X0039609Y0103877D01*
X0039607Y0103831D01*
X0039607Y0103634D01*
X0039607Y0095169D01*
X0039609Y0095123D01*
X0039614Y0095077D01*
X0039623Y0095031D01*
X0039636Y0094986D01*
X0039652Y0094943D01*
X0039671Y0094901D01*
X0039694Y0094860D01*
X0039720Y0094822D01*
X0039749Y0094785D01*
X0039780Y0094751D01*
X0039814Y0094720D01*
X0039851Y0094691D01*
X0039889Y0094665D01*
X0039930Y0094642D01*
X0039972Y0094623D01*
X0040015Y0094607D01*
X0040060Y0094594D01*
X0040106Y0094585D01*
X0040152Y0094580D01*
X0040198Y0094578D01*
X0040198Y0094579D02*
X0040394Y0094579D01*
X0048859Y0094579D01*
X0048859Y0094578D02*
X0048905Y0094580D01*
X0048951Y0094585D01*
X0048997Y0094594D01*
X0049042Y0094607D01*
X0049085Y0094623D01*
X0049127Y0094642D01*
X0049168Y0094665D01*
X0049206Y0094691D01*
X0049243Y0094720D01*
X0049277Y0094751D01*
X0049308Y0094785D01*
X0049337Y0094822D01*
X0049363Y0094860D01*
X0049386Y0094901D01*
X0049405Y0094943D01*
X0049421Y0094986D01*
X0049434Y0095031D01*
X0049443Y0095077D01*
X0049448Y0095123D01*
X0049450Y0095169D01*
X0049450Y0095366D01*
X0049450Y0103831D01*
X0049448Y0103877D01*
X0049443Y0103923D01*
X0049434Y0103969D01*
X0049421Y0104014D01*
X0049405Y0104057D01*
X0049386Y0104099D01*
X0049363Y0104140D01*
X0049337Y0104178D01*
X0049308Y0104215D01*
X0049277Y0104249D01*
X0049243Y0104280D01*
X0049206Y0104309D01*
X0049168Y0104335D01*
X0049127Y0104358D01*
X0049085Y0104377D01*
X0049042Y0104393D01*
X0048997Y0104406D01*
X0048951Y0104415D01*
X0048905Y0104420D01*
X0048859Y0104422D01*
X0042166Y0095760D02*
X0042168Y0095799D01*
X0042174Y0095838D01*
X0042184Y0095876D01*
X0042197Y0095913D01*
X0042214Y0095948D01*
X0042234Y0095982D01*
X0042258Y0096013D01*
X0042285Y0096042D01*
X0042314Y0096068D01*
X0042346Y0096091D01*
X0042380Y0096111D01*
X0042416Y0096127D01*
X0042453Y0096139D01*
X0042492Y0096148D01*
X0042531Y0096153D01*
X0042570Y0096154D01*
X0042609Y0096151D01*
X0042648Y0096144D01*
X0042685Y0096133D01*
X0042722Y0096119D01*
X0042757Y0096101D01*
X0042790Y0096080D01*
X0042821Y0096055D01*
X0042849Y0096028D01*
X0042874Y0095998D01*
X0042896Y0095965D01*
X0042915Y0095931D01*
X0042930Y0095895D01*
X0042942Y0095857D01*
X0042950Y0095819D01*
X0042954Y0095780D01*
X0042954Y0095740D01*
X0042950Y0095701D01*
X0042942Y0095663D01*
X0042930Y0095625D01*
X0042915Y0095589D01*
X0042896Y0095555D01*
X0042874Y0095522D01*
X0042849Y0095492D01*
X0042821Y0095465D01*
X0042790Y0095440D01*
X0042757Y0095419D01*
X0042722Y0095401D01*
X0042685Y0095387D01*
X0042648Y0095376D01*
X0042609Y0095369D01*
X0042570Y0095366D01*
X0042531Y0095367D01*
X0042492Y0095372D01*
X0042453Y0095381D01*
X0042416Y0095393D01*
X0042380Y0095409D01*
X0042346Y0095429D01*
X0042314Y0095452D01*
X0042285Y0095478D01*
X0042258Y0095507D01*
X0042234Y0095538D01*
X0042214Y0095572D01*
X0042197Y0095607D01*
X0042184Y0095644D01*
X0042174Y0095682D01*
X0042168Y0095721D01*
X0042166Y0095760D01*
D122*
X0040591Y0095169D02*
X0040552Y0095171D01*
X0040514Y0095177D01*
X0040477Y0095186D01*
X0040440Y0095199D01*
X0040405Y0095216D01*
X0040372Y0095235D01*
X0040341Y0095258D01*
X0040312Y0095284D01*
X0040286Y0095313D01*
X0040263Y0095344D01*
X0040244Y0095377D01*
X0040227Y0095412D01*
X0040214Y0095449D01*
X0040205Y0095486D01*
X0040199Y0095524D01*
X0040197Y0095563D01*
X0048465Y0095169D02*
X0048504Y0095171D01*
X0048542Y0095177D01*
X0048579Y0095186D01*
X0048616Y0095199D01*
X0048651Y0095216D01*
X0048684Y0095235D01*
X0048715Y0095258D01*
X0048744Y0095284D01*
X0048770Y0095313D01*
X0048793Y0095344D01*
X0048812Y0095377D01*
X0048829Y0095412D01*
X0048842Y0095449D01*
X0048851Y0095486D01*
X0048857Y0095524D01*
X0048859Y0095563D01*
X0048859Y0103437D02*
X0048857Y0103476D01*
X0048851Y0103514D01*
X0048842Y0103551D01*
X0048829Y0103588D01*
X0048812Y0103623D01*
X0048793Y0103656D01*
X0048770Y0103687D01*
X0048744Y0103716D01*
X0048715Y0103742D01*
X0048684Y0103765D01*
X0048651Y0103784D01*
X0048616Y0103801D01*
X0048579Y0103814D01*
X0048542Y0103823D01*
X0048504Y0103829D01*
X0048465Y0103831D01*
X0040591Y0103831D02*
X0040552Y0103829D01*
X0040514Y0103823D01*
X0040477Y0103814D01*
X0040440Y0103801D01*
X0040405Y0103784D01*
X0040372Y0103765D01*
X0040341Y0103742D01*
X0040312Y0103716D01*
X0040286Y0103687D01*
X0040263Y0103656D01*
X0040244Y0103623D01*
X0040227Y0103588D01*
X0040214Y0103551D01*
X0040205Y0103514D01*
X0040199Y0103476D01*
X0040197Y0103437D01*
M02*
