%
M48
M72
T01C0.01181
T02C0.02362
T03C0.04000
T04C0.11811
%
T01
X43628Y27250
X51301Y32156
X54253Y34125
X51301Y36094
X57206Y36094
X57206Y32156
X60678Y28600
X67378Y36000
X74878Y36000
X87378Y34750
X97178Y21800
X117928Y25900
X132028Y25900
X135478Y29900
X137528Y25900
X134978Y20950
X159528Y25900
X172328Y25900
X178628Y22250
X178878Y29900
X197078Y29900
X199878Y26000
X210328Y26000
X213878Y22200
X217628Y26000
X219878Y36000
X214878Y36000
X219878Y41000
X214878Y48500
X236278Y37200
X235678Y34200
X237428Y26200
X250628Y27025
X260228Y34225
X265428Y33725
X249828Y39225
X240878Y54200
X245878Y68400
X236678Y70800
X211128Y84750
X203628Y78500
X194878Y72200
X191678Y68600
X172678Y70800
X167478Y74800
X163878Y78400
X131478Y67600
X128278Y64400
X122378Y58500
X118628Y51000
X130678Y46800
X135678Y42300
X150678Y51200
X124878Y76000
X115078Y71200
X108278Y70000
X98678Y74800
X93878Y75400
X91103Y70200
X93953Y66300
X65478Y51600
X56878Y47600
X48278Y67600
X54678Y74400
X59478Y93400
X64878Y103500
X51328Y107100
X36528Y99700
X29478Y97600
X43928Y93100
X81478Y114000
X105878Y131600
X123078Y126800
X125678Y130800
X147078Y127500
X153478Y129600
X159878Y127250
X164878Y122250
X181878Y129600
X186678Y130000
X189278Y134800
X189478Y141600
X181478Y134800
X174878Y141000
X167378Y151000
X159878Y146000
X137378Y146000
X129878Y151000
X116478Y151000
X127378Y113500
X93678Y86400
X129878Y84400
X173628Y108500
X179078Y108800
X184278Y114000
X189678Y112800
X203678Y98800
X260628Y14425
X260828Y14425
X250828Y8625
X71278Y18400
X63278Y18800
X44878Y121000
X18628Y127250
X57878Y150400
T02
X99878Y39750
X85678Y21400
T03
X19553Y11625
X29553Y11625
X29553Y21625
X19553Y21625
X19553Y31625
X29553Y31625
X29553Y41625
X19553Y41625
X19553Y51625
X29553Y51625
X29553Y61625
X19553Y61625
X19553Y71625
X29553Y71625
X29478Y81700
X19478Y81700
X19478Y91700
X29478Y91700
X70503Y139750
X80503Y139750
X90503Y139750
X100503Y139750
X115678Y160475
X125678Y160475
X135678Y160475
X145678Y160475
X189878Y161000
X199878Y161000
X209878Y161000
X219878Y161000
X229878Y161000
X239878Y161000
X249878Y161000
X259878Y161000
X272378Y153500
X272378Y143500
X272378Y133500
X272378Y123500
X272378Y113500
X272378Y103500
X272378Y93500
X272378Y83500
X272378Y73500
X272378Y63500
X272378Y53500
X238978Y11000
X228978Y11000
X218978Y11000
X208978Y11000
X198978Y11000
X188978Y11000
X178978Y11000
X168978Y11000
X158978Y10900
X148978Y10900
X138978Y10900
X128978Y10900
X118978Y10900
X108978Y10900
X98978Y10900
X88978Y10900
X112953Y78850
X118521Y84418
X124089Y89986
X129657Y95553
X135224Y101121
X140792Y106689
X146360Y112257
X45678Y160475
X35678Y160475
X25678Y160475
T04
X34878Y136000
X244878Y136000
M30
