G75*
%MOIN*%
%OFA0B0*%
%FSLAX25Y25*%
%IPPOS*%
%LPD*%
%AMOC8*
5,1,8,0,0,1.08239X$1,22.5*
%
%ADD10C,0.00000*%
%ADD11C,0.12998*%
%ADD12C,0.03400*%
%ADD13C,0.03581*%
%ADD14C,0.03600*%
%ADD15R,0.01300X0.07400*%
%ADD16R,0.02800X0.01300*%
%ADD17R,0.01300X0.02800*%
%ADD18R,0.06306X0.05518*%
%ADD19R,0.04337X0.04731*%
%ADD20R,0.04200X0.13600*%
%ADD21C,0.03187*%
%ADD22R,0.04337X0.05912*%
%ADD23R,0.04731X0.04337*%
%ADD24C,0.06400*%
%ADD25OC8,0.06400*%
D10*
X0027103Y0012487D02*
X0027103Y0209337D01*
X0342063Y0209337D01*
X0342063Y0012487D01*
X0027103Y0012487D01*
X0119229Y0166030D02*
X0119231Y0166188D01*
X0119237Y0166346D01*
X0119247Y0166504D01*
X0119261Y0166662D01*
X0119279Y0166819D01*
X0119300Y0166976D01*
X0119326Y0167132D01*
X0119356Y0167288D01*
X0119389Y0167443D01*
X0119427Y0167596D01*
X0119468Y0167749D01*
X0119513Y0167901D01*
X0119562Y0168052D01*
X0119615Y0168201D01*
X0119671Y0168349D01*
X0119731Y0168495D01*
X0119795Y0168640D01*
X0119863Y0168783D01*
X0119934Y0168925D01*
X0120008Y0169065D01*
X0120086Y0169202D01*
X0120168Y0169338D01*
X0120252Y0169472D01*
X0120341Y0169603D01*
X0120432Y0169732D01*
X0120527Y0169859D01*
X0120624Y0169984D01*
X0120725Y0170106D01*
X0120829Y0170225D01*
X0120936Y0170342D01*
X0121046Y0170456D01*
X0121159Y0170567D01*
X0121274Y0170676D01*
X0121392Y0170781D01*
X0121513Y0170883D01*
X0121636Y0170983D01*
X0121762Y0171079D01*
X0121890Y0171172D01*
X0122020Y0171262D01*
X0122153Y0171348D01*
X0122288Y0171432D01*
X0122424Y0171511D01*
X0122563Y0171588D01*
X0122704Y0171660D01*
X0122846Y0171730D01*
X0122990Y0171795D01*
X0123136Y0171857D01*
X0123283Y0171915D01*
X0123432Y0171970D01*
X0123582Y0172021D01*
X0123733Y0172068D01*
X0123885Y0172111D01*
X0124038Y0172150D01*
X0124193Y0172186D01*
X0124348Y0172217D01*
X0124504Y0172245D01*
X0124660Y0172269D01*
X0124817Y0172289D01*
X0124975Y0172305D01*
X0125132Y0172317D01*
X0125291Y0172325D01*
X0125449Y0172329D01*
X0125607Y0172329D01*
X0125765Y0172325D01*
X0125924Y0172317D01*
X0126081Y0172305D01*
X0126239Y0172289D01*
X0126396Y0172269D01*
X0126552Y0172245D01*
X0126708Y0172217D01*
X0126863Y0172186D01*
X0127018Y0172150D01*
X0127171Y0172111D01*
X0127323Y0172068D01*
X0127474Y0172021D01*
X0127624Y0171970D01*
X0127773Y0171915D01*
X0127920Y0171857D01*
X0128066Y0171795D01*
X0128210Y0171730D01*
X0128352Y0171660D01*
X0128493Y0171588D01*
X0128632Y0171511D01*
X0128768Y0171432D01*
X0128903Y0171348D01*
X0129036Y0171262D01*
X0129166Y0171172D01*
X0129294Y0171079D01*
X0129420Y0170983D01*
X0129543Y0170883D01*
X0129664Y0170781D01*
X0129782Y0170676D01*
X0129897Y0170567D01*
X0130010Y0170456D01*
X0130120Y0170342D01*
X0130227Y0170225D01*
X0130331Y0170106D01*
X0130432Y0169984D01*
X0130529Y0169859D01*
X0130624Y0169732D01*
X0130715Y0169603D01*
X0130804Y0169472D01*
X0130888Y0169338D01*
X0130970Y0169202D01*
X0131048Y0169065D01*
X0131122Y0168925D01*
X0131193Y0168783D01*
X0131261Y0168640D01*
X0131325Y0168495D01*
X0131385Y0168349D01*
X0131441Y0168201D01*
X0131494Y0168052D01*
X0131543Y0167901D01*
X0131588Y0167749D01*
X0131629Y0167596D01*
X0131667Y0167443D01*
X0131700Y0167288D01*
X0131730Y0167132D01*
X0131756Y0166976D01*
X0131777Y0166819D01*
X0131795Y0166662D01*
X0131809Y0166504D01*
X0131819Y0166346D01*
X0131825Y0166188D01*
X0131827Y0166030D01*
X0131825Y0165872D01*
X0131819Y0165714D01*
X0131809Y0165556D01*
X0131795Y0165398D01*
X0131777Y0165241D01*
X0131756Y0165084D01*
X0131730Y0164928D01*
X0131700Y0164772D01*
X0131667Y0164617D01*
X0131629Y0164464D01*
X0131588Y0164311D01*
X0131543Y0164159D01*
X0131494Y0164008D01*
X0131441Y0163859D01*
X0131385Y0163711D01*
X0131325Y0163565D01*
X0131261Y0163420D01*
X0131193Y0163277D01*
X0131122Y0163135D01*
X0131048Y0162995D01*
X0130970Y0162858D01*
X0130888Y0162722D01*
X0130804Y0162588D01*
X0130715Y0162457D01*
X0130624Y0162328D01*
X0130529Y0162201D01*
X0130432Y0162076D01*
X0130331Y0161954D01*
X0130227Y0161835D01*
X0130120Y0161718D01*
X0130010Y0161604D01*
X0129897Y0161493D01*
X0129782Y0161384D01*
X0129664Y0161279D01*
X0129543Y0161177D01*
X0129420Y0161077D01*
X0129294Y0160981D01*
X0129166Y0160888D01*
X0129036Y0160798D01*
X0128903Y0160712D01*
X0128768Y0160628D01*
X0128632Y0160549D01*
X0128493Y0160472D01*
X0128352Y0160400D01*
X0128210Y0160330D01*
X0128066Y0160265D01*
X0127920Y0160203D01*
X0127773Y0160145D01*
X0127624Y0160090D01*
X0127474Y0160039D01*
X0127323Y0159992D01*
X0127171Y0159949D01*
X0127018Y0159910D01*
X0126863Y0159874D01*
X0126708Y0159843D01*
X0126552Y0159815D01*
X0126396Y0159791D01*
X0126239Y0159771D01*
X0126081Y0159755D01*
X0125924Y0159743D01*
X0125765Y0159735D01*
X0125607Y0159731D01*
X0125449Y0159731D01*
X0125291Y0159735D01*
X0125132Y0159743D01*
X0124975Y0159755D01*
X0124817Y0159771D01*
X0124660Y0159791D01*
X0124504Y0159815D01*
X0124348Y0159843D01*
X0124193Y0159874D01*
X0124038Y0159910D01*
X0123885Y0159949D01*
X0123733Y0159992D01*
X0123582Y0160039D01*
X0123432Y0160090D01*
X0123283Y0160145D01*
X0123136Y0160203D01*
X0122990Y0160265D01*
X0122846Y0160330D01*
X0122704Y0160400D01*
X0122563Y0160472D01*
X0122424Y0160549D01*
X0122288Y0160628D01*
X0122153Y0160712D01*
X0122020Y0160798D01*
X0121890Y0160888D01*
X0121762Y0160981D01*
X0121636Y0161077D01*
X0121513Y0161177D01*
X0121392Y0161279D01*
X0121274Y0161384D01*
X0121159Y0161493D01*
X0121046Y0161604D01*
X0120936Y0161718D01*
X0120829Y0161835D01*
X0120725Y0161954D01*
X0120624Y0162076D01*
X0120527Y0162201D01*
X0120432Y0162328D01*
X0120341Y0162457D01*
X0120252Y0162588D01*
X0120168Y0162722D01*
X0120086Y0162858D01*
X0120008Y0162995D01*
X0119934Y0163135D01*
X0119863Y0163277D01*
X0119795Y0163420D01*
X0119731Y0163565D01*
X0119671Y0163711D01*
X0119615Y0163859D01*
X0119562Y0164008D01*
X0119513Y0164159D01*
X0119468Y0164311D01*
X0119427Y0164464D01*
X0119389Y0164617D01*
X0119356Y0164772D01*
X0119326Y0164928D01*
X0119300Y0165084D01*
X0119279Y0165241D01*
X0119261Y0165398D01*
X0119247Y0165556D01*
X0119237Y0165714D01*
X0119231Y0165872D01*
X0119229Y0166030D01*
X0320016Y0028235D02*
X0320018Y0028393D01*
X0320024Y0028551D01*
X0320034Y0028709D01*
X0320048Y0028867D01*
X0320066Y0029024D01*
X0320087Y0029181D01*
X0320113Y0029337D01*
X0320143Y0029493D01*
X0320176Y0029648D01*
X0320214Y0029801D01*
X0320255Y0029954D01*
X0320300Y0030106D01*
X0320349Y0030257D01*
X0320402Y0030406D01*
X0320458Y0030554D01*
X0320518Y0030700D01*
X0320582Y0030845D01*
X0320650Y0030988D01*
X0320721Y0031130D01*
X0320795Y0031270D01*
X0320873Y0031407D01*
X0320955Y0031543D01*
X0321039Y0031677D01*
X0321128Y0031808D01*
X0321219Y0031937D01*
X0321314Y0032064D01*
X0321411Y0032189D01*
X0321512Y0032311D01*
X0321616Y0032430D01*
X0321723Y0032547D01*
X0321833Y0032661D01*
X0321946Y0032772D01*
X0322061Y0032881D01*
X0322179Y0032986D01*
X0322300Y0033088D01*
X0322423Y0033188D01*
X0322549Y0033284D01*
X0322677Y0033377D01*
X0322807Y0033467D01*
X0322940Y0033553D01*
X0323075Y0033637D01*
X0323211Y0033716D01*
X0323350Y0033793D01*
X0323491Y0033865D01*
X0323633Y0033935D01*
X0323777Y0034000D01*
X0323923Y0034062D01*
X0324070Y0034120D01*
X0324219Y0034175D01*
X0324369Y0034226D01*
X0324520Y0034273D01*
X0324672Y0034316D01*
X0324825Y0034355D01*
X0324980Y0034391D01*
X0325135Y0034422D01*
X0325291Y0034450D01*
X0325447Y0034474D01*
X0325604Y0034494D01*
X0325762Y0034510D01*
X0325919Y0034522D01*
X0326078Y0034530D01*
X0326236Y0034534D01*
X0326394Y0034534D01*
X0326552Y0034530D01*
X0326711Y0034522D01*
X0326868Y0034510D01*
X0327026Y0034494D01*
X0327183Y0034474D01*
X0327339Y0034450D01*
X0327495Y0034422D01*
X0327650Y0034391D01*
X0327805Y0034355D01*
X0327958Y0034316D01*
X0328110Y0034273D01*
X0328261Y0034226D01*
X0328411Y0034175D01*
X0328560Y0034120D01*
X0328707Y0034062D01*
X0328853Y0034000D01*
X0328997Y0033935D01*
X0329139Y0033865D01*
X0329280Y0033793D01*
X0329419Y0033716D01*
X0329555Y0033637D01*
X0329690Y0033553D01*
X0329823Y0033467D01*
X0329953Y0033377D01*
X0330081Y0033284D01*
X0330207Y0033188D01*
X0330330Y0033088D01*
X0330451Y0032986D01*
X0330569Y0032881D01*
X0330684Y0032772D01*
X0330797Y0032661D01*
X0330907Y0032547D01*
X0331014Y0032430D01*
X0331118Y0032311D01*
X0331219Y0032189D01*
X0331316Y0032064D01*
X0331411Y0031937D01*
X0331502Y0031808D01*
X0331591Y0031677D01*
X0331675Y0031543D01*
X0331757Y0031407D01*
X0331835Y0031270D01*
X0331909Y0031130D01*
X0331980Y0030988D01*
X0332048Y0030845D01*
X0332112Y0030700D01*
X0332172Y0030554D01*
X0332228Y0030406D01*
X0332281Y0030257D01*
X0332330Y0030106D01*
X0332375Y0029954D01*
X0332416Y0029801D01*
X0332454Y0029648D01*
X0332487Y0029493D01*
X0332517Y0029337D01*
X0332543Y0029181D01*
X0332564Y0029024D01*
X0332582Y0028867D01*
X0332596Y0028709D01*
X0332606Y0028551D01*
X0332612Y0028393D01*
X0332614Y0028235D01*
X0332612Y0028077D01*
X0332606Y0027919D01*
X0332596Y0027761D01*
X0332582Y0027603D01*
X0332564Y0027446D01*
X0332543Y0027289D01*
X0332517Y0027133D01*
X0332487Y0026977D01*
X0332454Y0026822D01*
X0332416Y0026669D01*
X0332375Y0026516D01*
X0332330Y0026364D01*
X0332281Y0026213D01*
X0332228Y0026064D01*
X0332172Y0025916D01*
X0332112Y0025770D01*
X0332048Y0025625D01*
X0331980Y0025482D01*
X0331909Y0025340D01*
X0331835Y0025200D01*
X0331757Y0025063D01*
X0331675Y0024927D01*
X0331591Y0024793D01*
X0331502Y0024662D01*
X0331411Y0024533D01*
X0331316Y0024406D01*
X0331219Y0024281D01*
X0331118Y0024159D01*
X0331014Y0024040D01*
X0330907Y0023923D01*
X0330797Y0023809D01*
X0330684Y0023698D01*
X0330569Y0023589D01*
X0330451Y0023484D01*
X0330330Y0023382D01*
X0330207Y0023282D01*
X0330081Y0023186D01*
X0329953Y0023093D01*
X0329823Y0023003D01*
X0329690Y0022917D01*
X0329555Y0022833D01*
X0329419Y0022754D01*
X0329280Y0022677D01*
X0329139Y0022605D01*
X0328997Y0022535D01*
X0328853Y0022470D01*
X0328707Y0022408D01*
X0328560Y0022350D01*
X0328411Y0022295D01*
X0328261Y0022244D01*
X0328110Y0022197D01*
X0327958Y0022154D01*
X0327805Y0022115D01*
X0327650Y0022079D01*
X0327495Y0022048D01*
X0327339Y0022020D01*
X0327183Y0021996D01*
X0327026Y0021976D01*
X0326868Y0021960D01*
X0326711Y0021948D01*
X0326552Y0021940D01*
X0326394Y0021936D01*
X0326236Y0021936D01*
X0326078Y0021940D01*
X0325919Y0021948D01*
X0325762Y0021960D01*
X0325604Y0021976D01*
X0325447Y0021996D01*
X0325291Y0022020D01*
X0325135Y0022048D01*
X0324980Y0022079D01*
X0324825Y0022115D01*
X0324672Y0022154D01*
X0324520Y0022197D01*
X0324369Y0022244D01*
X0324219Y0022295D01*
X0324070Y0022350D01*
X0323923Y0022408D01*
X0323777Y0022470D01*
X0323633Y0022535D01*
X0323491Y0022605D01*
X0323350Y0022677D01*
X0323211Y0022754D01*
X0323075Y0022833D01*
X0322940Y0022917D01*
X0322807Y0023003D01*
X0322677Y0023093D01*
X0322549Y0023186D01*
X0322423Y0023282D01*
X0322300Y0023382D01*
X0322179Y0023484D01*
X0322061Y0023589D01*
X0321946Y0023698D01*
X0321833Y0023809D01*
X0321723Y0023923D01*
X0321616Y0024040D01*
X0321512Y0024159D01*
X0321411Y0024281D01*
X0321314Y0024406D01*
X0321219Y0024533D01*
X0321128Y0024662D01*
X0321039Y0024793D01*
X0320955Y0024927D01*
X0320873Y0025063D01*
X0320795Y0025200D01*
X0320721Y0025340D01*
X0320650Y0025482D01*
X0320582Y0025625D01*
X0320518Y0025770D01*
X0320458Y0025916D01*
X0320402Y0026064D01*
X0320349Y0026213D01*
X0320300Y0026364D01*
X0320255Y0026516D01*
X0320214Y0026669D01*
X0320176Y0026822D01*
X0320143Y0026977D01*
X0320113Y0027133D01*
X0320087Y0027289D01*
X0320066Y0027446D01*
X0320048Y0027603D01*
X0320034Y0027761D01*
X0320024Y0027919D01*
X0320018Y0028077D01*
X0320016Y0028235D01*
D11*
X0326315Y0028235D03*
X0125528Y0166030D03*
D12*
X0082876Y0082039D03*
X0082876Y0078839D03*
X0079676Y0078839D03*
X0079676Y0082039D03*
D13*
X0225103Y0094487D03*
X0229103Y0094487D03*
X0227103Y0097487D03*
X0229103Y0100487D03*
D14*
X0225103Y0100487D03*
D15*
X0270174Y0135302D03*
X0272103Y0135302D03*
X0274032Y0135302D03*
D16*
X0277615Y0134534D03*
X0277615Y0136502D03*
X0277615Y0138471D03*
X0277615Y0140439D03*
X0266591Y0140439D03*
X0266591Y0138471D03*
X0266591Y0136502D03*
X0266591Y0134534D03*
D17*
X0270134Y0142014D03*
X0272103Y0142014D03*
X0274071Y0142014D03*
D18*
X0289071Y0138746D03*
X0298087Y0138746D03*
X0298087Y0146227D03*
X0289071Y0146227D03*
X0257103Y0146227D03*
X0257103Y0138746D03*
D19*
X0268756Y0149455D03*
X0275449Y0149455D03*
X0067536Y0097329D03*
X0060843Y0097329D03*
X0051158Y0097605D03*
X0044465Y0097605D03*
X0051000Y0085124D03*
X0051000Y0078432D03*
X0059780Y0080833D03*
X0059780Y0074140D03*
X0049544Y0123038D03*
X0042851Y0123038D03*
D20*
X0267453Y0120518D03*
X0276753Y0120518D03*
D21*
X0267024Y0057664D03*
X0263087Y0057664D03*
X0263087Y0053727D03*
X0267024Y0053727D03*
X0267024Y0049790D03*
X0263087Y0049790D03*
D22*
X0063914Y0113707D03*
X0056434Y0113707D03*
X0060174Y0105046D03*
D23*
X0048560Y0107014D03*
X0048560Y0113707D03*
D24*
X0079465Y0122802D02*
X0079465Y0128802D01*
X0089465Y0128802D02*
X0089465Y0122802D01*
X0041756Y0186660D02*
X0035756Y0186660D01*
X0035756Y0196660D02*
X0041756Y0196660D01*
X0040103Y0042487D02*
X0034103Y0042487D01*
X0034103Y0032487D02*
X0040103Y0032487D01*
X0178040Y0037487D02*
X0184040Y0037487D01*
X0184040Y0027487D02*
X0178040Y0027487D01*
D25*
X0322103Y0077487D03*
X0332103Y0077487D03*
X0332103Y0087487D03*
X0322103Y0087487D03*
X0322103Y0097487D03*
X0332103Y0097487D03*
X0332103Y0107487D03*
X0322103Y0107487D03*
X0322103Y0117487D03*
X0332103Y0117487D03*
X0332103Y0127487D03*
X0322103Y0127487D03*
X0322103Y0137487D03*
X0332103Y0137487D03*
X0332103Y0147487D03*
X0322103Y0147487D03*
X0087103Y0192487D03*
X0077103Y0192487D03*
X0067103Y0192487D03*
X0057103Y0192487D03*
X0057103Y0202487D03*
X0067103Y0202487D03*
X0077103Y0202487D03*
X0087103Y0202487D03*
M02*
