G75*
%MOIN*%
%OFA0B0*%
%FSLAX25Y25*%
%IPPOS*%
%LPD*%
%AMOC8*
5,1,8,0,0,1.08239X$1,22.5*
%
%ADD10C,0.00000*%
%ADD11R,0.03400X0.00100*%
%ADD12R,0.04800X0.00100*%
%ADD13R,0.05900X0.00100*%
%ADD14R,0.06800X0.00100*%
%ADD15R,0.07600X0.00100*%
%ADD16R,0.00100X0.00100*%
%ADD17R,0.00900X0.00100*%
%ADD18R,0.03200X0.00100*%
%ADD19R,0.03000X0.00100*%
%ADD20R,0.00400X0.00100*%
%ADD21R,0.00700X0.00100*%
%ADD22R,0.00500X0.00100*%
%ADD23R,0.02700X0.00100*%
%ADD24R,0.02300X0.00100*%
%ADD25R,0.00200X0.00100*%
%ADD26R,0.00600X0.00100*%
%ADD27R,0.02400X0.00100*%
%ADD28R,0.02200X0.00100*%
%ADD29R,0.02600X0.00100*%
%ADD30R,0.00300X0.00100*%
%ADD31R,0.01900X0.00100*%
%ADD32R,0.01800X0.00100*%
%ADD33R,0.00800X0.00100*%
%ADD34R,0.02000X0.00100*%
%ADD35R,0.01500X0.00100*%
%ADD36R,0.01600X0.00100*%
%ADD37R,0.01400X0.00100*%
%ADD38R,0.01100X0.00100*%
%ADD39R,0.01700X0.00100*%
%ADD40R,0.01300X0.00100*%
%ADD41R,0.01200X0.00100*%
%ADD42R,0.03700X0.00100*%
%ADD43R,0.05500X0.00100*%
%ADD44R,0.01000X0.00100*%
%ADD45R,0.08000X0.00100*%
%ADD46R,0.02100X0.00100*%
%ADD47R,0.02900X0.00100*%
%ADD48R,0.04200X0.00100*%
%ADD49R,0.05200X0.00100*%
%ADD50R,0.06000X0.00100*%
%ADD51R,0.06700X0.00100*%
%ADD52R,0.07400X0.00100*%
%ADD53R,0.08500X0.00100*%
%ADD54R,0.09000X0.00100*%
%ADD55R,0.09500X0.00100*%
%ADD56R,0.09900X0.00100*%
%ADD57R,0.10300X0.00100*%
%ADD58R,0.10700X0.00100*%
%ADD59R,0.11100X0.00100*%
%ADD60R,0.11500X0.00100*%
%ADD61R,0.11800X0.00100*%
%ADD62R,0.12200X0.00100*%
%ADD63R,0.12500X0.00100*%
%ADD64R,0.04100X0.00100*%
%ADD65R,0.08600X0.00100*%
%ADD66R,0.04500X0.00100*%
%ADD67R,0.04400X0.00100*%
%ADD68R,0.04600X0.00100*%
%ADD69R,0.04900X0.00100*%
%ADD70R,0.05100X0.00100*%
%ADD71R,0.05000X0.00100*%
%ADD72R,0.03500X0.00100*%
%ADD73R,0.05400X0.00100*%
%ADD74R,0.05600X0.00100*%
%ADD75R,0.05800X0.00100*%
%ADD76R,0.02800X0.00100*%
%ADD77R,0.06100X0.00100*%
%ADD78R,0.03300X0.00100*%
%ADD79R,0.06300X0.00100*%
%ADD80R,0.06400X0.00100*%
%ADD81R,0.06600X0.00100*%
%ADD82R,0.06900X0.00100*%
%ADD83R,0.07100X0.00100*%
%ADD84R,0.03100X0.00100*%
%ADD85R,0.07200X0.00100*%
%ADD86R,0.02500X0.00100*%
%ADD87R,0.07700X0.00100*%
%ADD88R,0.07900X0.00100*%
%ADD89R,0.08100X0.00100*%
%ADD90R,0.08200X0.00100*%
%ADD91R,0.08300X0.00100*%
%ADD92R,0.08400X0.00100*%
%ADD93R,0.08800X0.00100*%
%ADD94R,0.09200X0.00100*%
%ADD95R,0.09300X0.00100*%
%ADD96R,0.09400X0.00100*%
%ADD97R,0.09600X0.00100*%
%ADD98R,0.11300X0.00100*%
%ADD99R,0.11400X0.00100*%
%ADD100R,0.10500X0.00100*%
%ADD101R,0.10100X0.00100*%
%ADD102R,0.10200X0.00100*%
%ADD103R,0.06500X0.00100*%
%ADD104R,0.06200X0.00100*%
%ADD105R,0.04700X0.00100*%
%ADD106R,0.03900X0.00100*%
%ADD107R,0.03600X0.00100*%
%ADD108R,0.04000X0.00100*%
%ADD109R,0.04300X0.00100*%
%ADD110R,0.05300X0.00100*%
%ADD111R,0.07000X0.00100*%
%ADD112R,0.05700X0.00100*%
%ADD113R,0.03800X0.00100*%
%ADD114C,0.00600*%
%ADD115C,0.00400*%
%ADD116C,0.00300*%
%ADD117C,0.00500*%
D10*
X0027103Y0012487D02*
X0027103Y0209337D01*
X0342063Y0209337D01*
X0342063Y0012487D01*
X0027103Y0012487D01*
X0119229Y0166030D02*
X0119231Y0166188D01*
X0119237Y0166346D01*
X0119247Y0166504D01*
X0119261Y0166662D01*
X0119279Y0166819D01*
X0119300Y0166976D01*
X0119326Y0167132D01*
X0119356Y0167288D01*
X0119389Y0167443D01*
X0119427Y0167596D01*
X0119468Y0167749D01*
X0119513Y0167901D01*
X0119562Y0168052D01*
X0119615Y0168201D01*
X0119671Y0168349D01*
X0119731Y0168495D01*
X0119795Y0168640D01*
X0119863Y0168783D01*
X0119934Y0168925D01*
X0120008Y0169065D01*
X0120086Y0169202D01*
X0120168Y0169338D01*
X0120252Y0169472D01*
X0120341Y0169603D01*
X0120432Y0169732D01*
X0120527Y0169859D01*
X0120624Y0169984D01*
X0120725Y0170106D01*
X0120829Y0170225D01*
X0120936Y0170342D01*
X0121046Y0170456D01*
X0121159Y0170567D01*
X0121274Y0170676D01*
X0121392Y0170781D01*
X0121513Y0170883D01*
X0121636Y0170983D01*
X0121762Y0171079D01*
X0121890Y0171172D01*
X0122020Y0171262D01*
X0122153Y0171348D01*
X0122288Y0171432D01*
X0122424Y0171511D01*
X0122563Y0171588D01*
X0122704Y0171660D01*
X0122846Y0171730D01*
X0122990Y0171795D01*
X0123136Y0171857D01*
X0123283Y0171915D01*
X0123432Y0171970D01*
X0123582Y0172021D01*
X0123733Y0172068D01*
X0123885Y0172111D01*
X0124038Y0172150D01*
X0124193Y0172186D01*
X0124348Y0172217D01*
X0124504Y0172245D01*
X0124660Y0172269D01*
X0124817Y0172289D01*
X0124975Y0172305D01*
X0125132Y0172317D01*
X0125291Y0172325D01*
X0125449Y0172329D01*
X0125607Y0172329D01*
X0125765Y0172325D01*
X0125924Y0172317D01*
X0126081Y0172305D01*
X0126239Y0172289D01*
X0126396Y0172269D01*
X0126552Y0172245D01*
X0126708Y0172217D01*
X0126863Y0172186D01*
X0127018Y0172150D01*
X0127171Y0172111D01*
X0127323Y0172068D01*
X0127474Y0172021D01*
X0127624Y0171970D01*
X0127773Y0171915D01*
X0127920Y0171857D01*
X0128066Y0171795D01*
X0128210Y0171730D01*
X0128352Y0171660D01*
X0128493Y0171588D01*
X0128632Y0171511D01*
X0128768Y0171432D01*
X0128903Y0171348D01*
X0129036Y0171262D01*
X0129166Y0171172D01*
X0129294Y0171079D01*
X0129420Y0170983D01*
X0129543Y0170883D01*
X0129664Y0170781D01*
X0129782Y0170676D01*
X0129897Y0170567D01*
X0130010Y0170456D01*
X0130120Y0170342D01*
X0130227Y0170225D01*
X0130331Y0170106D01*
X0130432Y0169984D01*
X0130529Y0169859D01*
X0130624Y0169732D01*
X0130715Y0169603D01*
X0130804Y0169472D01*
X0130888Y0169338D01*
X0130970Y0169202D01*
X0131048Y0169065D01*
X0131122Y0168925D01*
X0131193Y0168783D01*
X0131261Y0168640D01*
X0131325Y0168495D01*
X0131385Y0168349D01*
X0131441Y0168201D01*
X0131494Y0168052D01*
X0131543Y0167901D01*
X0131588Y0167749D01*
X0131629Y0167596D01*
X0131667Y0167443D01*
X0131700Y0167288D01*
X0131730Y0167132D01*
X0131756Y0166976D01*
X0131777Y0166819D01*
X0131795Y0166662D01*
X0131809Y0166504D01*
X0131819Y0166346D01*
X0131825Y0166188D01*
X0131827Y0166030D01*
X0131825Y0165872D01*
X0131819Y0165714D01*
X0131809Y0165556D01*
X0131795Y0165398D01*
X0131777Y0165241D01*
X0131756Y0165084D01*
X0131730Y0164928D01*
X0131700Y0164772D01*
X0131667Y0164617D01*
X0131629Y0164464D01*
X0131588Y0164311D01*
X0131543Y0164159D01*
X0131494Y0164008D01*
X0131441Y0163859D01*
X0131385Y0163711D01*
X0131325Y0163565D01*
X0131261Y0163420D01*
X0131193Y0163277D01*
X0131122Y0163135D01*
X0131048Y0162995D01*
X0130970Y0162858D01*
X0130888Y0162722D01*
X0130804Y0162588D01*
X0130715Y0162457D01*
X0130624Y0162328D01*
X0130529Y0162201D01*
X0130432Y0162076D01*
X0130331Y0161954D01*
X0130227Y0161835D01*
X0130120Y0161718D01*
X0130010Y0161604D01*
X0129897Y0161493D01*
X0129782Y0161384D01*
X0129664Y0161279D01*
X0129543Y0161177D01*
X0129420Y0161077D01*
X0129294Y0160981D01*
X0129166Y0160888D01*
X0129036Y0160798D01*
X0128903Y0160712D01*
X0128768Y0160628D01*
X0128632Y0160549D01*
X0128493Y0160472D01*
X0128352Y0160400D01*
X0128210Y0160330D01*
X0128066Y0160265D01*
X0127920Y0160203D01*
X0127773Y0160145D01*
X0127624Y0160090D01*
X0127474Y0160039D01*
X0127323Y0159992D01*
X0127171Y0159949D01*
X0127018Y0159910D01*
X0126863Y0159874D01*
X0126708Y0159843D01*
X0126552Y0159815D01*
X0126396Y0159791D01*
X0126239Y0159771D01*
X0126081Y0159755D01*
X0125924Y0159743D01*
X0125765Y0159735D01*
X0125607Y0159731D01*
X0125449Y0159731D01*
X0125291Y0159735D01*
X0125132Y0159743D01*
X0124975Y0159755D01*
X0124817Y0159771D01*
X0124660Y0159791D01*
X0124504Y0159815D01*
X0124348Y0159843D01*
X0124193Y0159874D01*
X0124038Y0159910D01*
X0123885Y0159949D01*
X0123733Y0159992D01*
X0123582Y0160039D01*
X0123432Y0160090D01*
X0123283Y0160145D01*
X0123136Y0160203D01*
X0122990Y0160265D01*
X0122846Y0160330D01*
X0122704Y0160400D01*
X0122563Y0160472D01*
X0122424Y0160549D01*
X0122288Y0160628D01*
X0122153Y0160712D01*
X0122020Y0160798D01*
X0121890Y0160888D01*
X0121762Y0160981D01*
X0121636Y0161077D01*
X0121513Y0161177D01*
X0121392Y0161279D01*
X0121274Y0161384D01*
X0121159Y0161493D01*
X0121046Y0161604D01*
X0120936Y0161718D01*
X0120829Y0161835D01*
X0120725Y0161954D01*
X0120624Y0162076D01*
X0120527Y0162201D01*
X0120432Y0162328D01*
X0120341Y0162457D01*
X0120252Y0162588D01*
X0120168Y0162722D01*
X0120086Y0162858D01*
X0120008Y0162995D01*
X0119934Y0163135D01*
X0119863Y0163277D01*
X0119795Y0163420D01*
X0119731Y0163565D01*
X0119671Y0163711D01*
X0119615Y0163859D01*
X0119562Y0164008D01*
X0119513Y0164159D01*
X0119468Y0164311D01*
X0119427Y0164464D01*
X0119389Y0164617D01*
X0119356Y0164772D01*
X0119326Y0164928D01*
X0119300Y0165084D01*
X0119279Y0165241D01*
X0119261Y0165398D01*
X0119247Y0165556D01*
X0119237Y0165714D01*
X0119231Y0165872D01*
X0119229Y0166030D01*
X0320016Y0028235D02*
X0320018Y0028393D01*
X0320024Y0028551D01*
X0320034Y0028709D01*
X0320048Y0028867D01*
X0320066Y0029024D01*
X0320087Y0029181D01*
X0320113Y0029337D01*
X0320143Y0029493D01*
X0320176Y0029648D01*
X0320214Y0029801D01*
X0320255Y0029954D01*
X0320300Y0030106D01*
X0320349Y0030257D01*
X0320402Y0030406D01*
X0320458Y0030554D01*
X0320518Y0030700D01*
X0320582Y0030845D01*
X0320650Y0030988D01*
X0320721Y0031130D01*
X0320795Y0031270D01*
X0320873Y0031407D01*
X0320955Y0031543D01*
X0321039Y0031677D01*
X0321128Y0031808D01*
X0321219Y0031937D01*
X0321314Y0032064D01*
X0321411Y0032189D01*
X0321512Y0032311D01*
X0321616Y0032430D01*
X0321723Y0032547D01*
X0321833Y0032661D01*
X0321946Y0032772D01*
X0322061Y0032881D01*
X0322179Y0032986D01*
X0322300Y0033088D01*
X0322423Y0033188D01*
X0322549Y0033284D01*
X0322677Y0033377D01*
X0322807Y0033467D01*
X0322940Y0033553D01*
X0323075Y0033637D01*
X0323211Y0033716D01*
X0323350Y0033793D01*
X0323491Y0033865D01*
X0323633Y0033935D01*
X0323777Y0034000D01*
X0323923Y0034062D01*
X0324070Y0034120D01*
X0324219Y0034175D01*
X0324369Y0034226D01*
X0324520Y0034273D01*
X0324672Y0034316D01*
X0324825Y0034355D01*
X0324980Y0034391D01*
X0325135Y0034422D01*
X0325291Y0034450D01*
X0325447Y0034474D01*
X0325604Y0034494D01*
X0325762Y0034510D01*
X0325919Y0034522D01*
X0326078Y0034530D01*
X0326236Y0034534D01*
X0326394Y0034534D01*
X0326552Y0034530D01*
X0326711Y0034522D01*
X0326868Y0034510D01*
X0327026Y0034494D01*
X0327183Y0034474D01*
X0327339Y0034450D01*
X0327495Y0034422D01*
X0327650Y0034391D01*
X0327805Y0034355D01*
X0327958Y0034316D01*
X0328110Y0034273D01*
X0328261Y0034226D01*
X0328411Y0034175D01*
X0328560Y0034120D01*
X0328707Y0034062D01*
X0328853Y0034000D01*
X0328997Y0033935D01*
X0329139Y0033865D01*
X0329280Y0033793D01*
X0329419Y0033716D01*
X0329555Y0033637D01*
X0329690Y0033553D01*
X0329823Y0033467D01*
X0329953Y0033377D01*
X0330081Y0033284D01*
X0330207Y0033188D01*
X0330330Y0033088D01*
X0330451Y0032986D01*
X0330569Y0032881D01*
X0330684Y0032772D01*
X0330797Y0032661D01*
X0330907Y0032547D01*
X0331014Y0032430D01*
X0331118Y0032311D01*
X0331219Y0032189D01*
X0331316Y0032064D01*
X0331411Y0031937D01*
X0331502Y0031808D01*
X0331591Y0031677D01*
X0331675Y0031543D01*
X0331757Y0031407D01*
X0331835Y0031270D01*
X0331909Y0031130D01*
X0331980Y0030988D01*
X0332048Y0030845D01*
X0332112Y0030700D01*
X0332172Y0030554D01*
X0332228Y0030406D01*
X0332281Y0030257D01*
X0332330Y0030106D01*
X0332375Y0029954D01*
X0332416Y0029801D01*
X0332454Y0029648D01*
X0332487Y0029493D01*
X0332517Y0029337D01*
X0332543Y0029181D01*
X0332564Y0029024D01*
X0332582Y0028867D01*
X0332596Y0028709D01*
X0332606Y0028551D01*
X0332612Y0028393D01*
X0332614Y0028235D01*
X0332612Y0028077D01*
X0332606Y0027919D01*
X0332596Y0027761D01*
X0332582Y0027603D01*
X0332564Y0027446D01*
X0332543Y0027289D01*
X0332517Y0027133D01*
X0332487Y0026977D01*
X0332454Y0026822D01*
X0332416Y0026669D01*
X0332375Y0026516D01*
X0332330Y0026364D01*
X0332281Y0026213D01*
X0332228Y0026064D01*
X0332172Y0025916D01*
X0332112Y0025770D01*
X0332048Y0025625D01*
X0331980Y0025482D01*
X0331909Y0025340D01*
X0331835Y0025200D01*
X0331757Y0025063D01*
X0331675Y0024927D01*
X0331591Y0024793D01*
X0331502Y0024662D01*
X0331411Y0024533D01*
X0331316Y0024406D01*
X0331219Y0024281D01*
X0331118Y0024159D01*
X0331014Y0024040D01*
X0330907Y0023923D01*
X0330797Y0023809D01*
X0330684Y0023698D01*
X0330569Y0023589D01*
X0330451Y0023484D01*
X0330330Y0023382D01*
X0330207Y0023282D01*
X0330081Y0023186D01*
X0329953Y0023093D01*
X0329823Y0023003D01*
X0329690Y0022917D01*
X0329555Y0022833D01*
X0329419Y0022754D01*
X0329280Y0022677D01*
X0329139Y0022605D01*
X0328997Y0022535D01*
X0328853Y0022470D01*
X0328707Y0022408D01*
X0328560Y0022350D01*
X0328411Y0022295D01*
X0328261Y0022244D01*
X0328110Y0022197D01*
X0327958Y0022154D01*
X0327805Y0022115D01*
X0327650Y0022079D01*
X0327495Y0022048D01*
X0327339Y0022020D01*
X0327183Y0021996D01*
X0327026Y0021976D01*
X0326868Y0021960D01*
X0326711Y0021948D01*
X0326552Y0021940D01*
X0326394Y0021936D01*
X0326236Y0021936D01*
X0326078Y0021940D01*
X0325919Y0021948D01*
X0325762Y0021960D01*
X0325604Y0021976D01*
X0325447Y0021996D01*
X0325291Y0022020D01*
X0325135Y0022048D01*
X0324980Y0022079D01*
X0324825Y0022115D01*
X0324672Y0022154D01*
X0324520Y0022197D01*
X0324369Y0022244D01*
X0324219Y0022295D01*
X0324070Y0022350D01*
X0323923Y0022408D01*
X0323777Y0022470D01*
X0323633Y0022535D01*
X0323491Y0022605D01*
X0323350Y0022677D01*
X0323211Y0022754D01*
X0323075Y0022833D01*
X0322940Y0022917D01*
X0322807Y0023003D01*
X0322677Y0023093D01*
X0322549Y0023186D01*
X0322423Y0023282D01*
X0322300Y0023382D01*
X0322179Y0023484D01*
X0322061Y0023589D01*
X0321946Y0023698D01*
X0321833Y0023809D01*
X0321723Y0023923D01*
X0321616Y0024040D01*
X0321512Y0024159D01*
X0321411Y0024281D01*
X0321314Y0024406D01*
X0321219Y0024533D01*
X0321128Y0024662D01*
X0321039Y0024793D01*
X0320955Y0024927D01*
X0320873Y0025063D01*
X0320795Y0025200D01*
X0320721Y0025340D01*
X0320650Y0025482D01*
X0320582Y0025625D01*
X0320518Y0025770D01*
X0320458Y0025916D01*
X0320402Y0026064D01*
X0320349Y0026213D01*
X0320300Y0026364D01*
X0320255Y0026516D01*
X0320214Y0026669D01*
X0320176Y0026822D01*
X0320143Y0026977D01*
X0320113Y0027133D01*
X0320087Y0027289D01*
X0320066Y0027446D01*
X0320048Y0027603D01*
X0320034Y0027761D01*
X0320024Y0027919D01*
X0320018Y0028077D01*
X0320016Y0028235D01*
D11*
X0112436Y0034835D03*
X0112336Y0034735D03*
X0112236Y0034635D03*
X0112136Y0034535D03*
X0104536Y0029335D03*
X0102136Y0028835D03*
X0092236Y0034335D03*
X0092136Y0034435D03*
X0092036Y0034535D03*
X0091936Y0034635D03*
X0092136Y0044735D03*
X0092236Y0045135D03*
X0092236Y0045235D03*
X0092236Y0045635D03*
X0091936Y0052535D03*
X0092036Y0052635D03*
X0092136Y0052735D03*
X0092236Y0052835D03*
X0112036Y0052735D03*
X0112136Y0052635D03*
X0112236Y0052535D03*
X0112336Y0052435D03*
X0112436Y0052335D03*
D12*
X0108636Y0051235D03*
X0108536Y0051335D03*
X0107836Y0047535D03*
X0107436Y0047235D03*
X0111036Y0040535D03*
X0111036Y0040435D03*
X0110936Y0040235D03*
X0110936Y0040135D03*
X0110936Y0040035D03*
X0110536Y0039135D03*
X0110536Y0039035D03*
X0102136Y0028935D03*
X0096436Y0052135D03*
X0096536Y0052235D03*
X0096636Y0052335D03*
X0097936Y0053335D03*
X0098136Y0053435D03*
X0102136Y0058235D03*
X0109136Y0055035D03*
D13*
X0102086Y0058135D03*
X0109286Y0049435D03*
X0106886Y0034735D03*
X0102186Y0031135D03*
X0102086Y0029035D03*
D14*
X0102136Y0029135D03*
X0102136Y0058035D03*
D15*
X0102136Y0057935D03*
X0107036Y0035735D03*
X0102136Y0029235D03*
D16*
X0102486Y0029335D03*
X0103586Y0030735D03*
X0103586Y0030835D03*
X0104386Y0030135D03*
X0104786Y0030435D03*
X0104786Y0030535D03*
X0104686Y0030635D03*
X0104686Y0030735D03*
X0104686Y0030835D03*
X0105386Y0030935D03*
X0105986Y0030435D03*
X0107186Y0030435D03*
X0107186Y0030535D03*
X0107586Y0031135D03*
X0107586Y0031435D03*
X0108986Y0032135D03*
X0109086Y0032535D03*
X0109386Y0032035D03*
X0109986Y0033135D03*
X0110286Y0033435D03*
X0110386Y0033335D03*
X0110886Y0033835D03*
X0105686Y0038035D03*
X0103786Y0038135D03*
X0103286Y0035335D03*
X0101186Y0035335D03*
X0099786Y0035135D03*
X0098186Y0035035D03*
X0097686Y0035235D03*
X0097186Y0035135D03*
X0093186Y0033735D03*
X0093086Y0033435D03*
X0092586Y0033435D03*
X0093186Y0032635D03*
X0095386Y0032335D03*
X0095786Y0032235D03*
X0095886Y0032335D03*
X0097086Y0031235D03*
X0100086Y0030435D03*
X0100086Y0030335D03*
X0093886Y0038535D03*
X0102586Y0042635D03*
X0109286Y0041535D03*
X0109286Y0041335D03*
X0109386Y0044435D03*
X0109386Y0044535D03*
X0110086Y0045235D03*
X0111586Y0047635D03*
X0102686Y0057235D03*
X0101386Y0057135D03*
X0101386Y0057035D03*
X0100886Y0057035D03*
X0100886Y0056935D03*
X0100886Y0056835D03*
D17*
X0099486Y0056435D03*
X0098286Y0056535D03*
X0102086Y0057735D03*
X0104486Y0057235D03*
X0101186Y0036435D03*
X0097886Y0031035D03*
X0096086Y0031135D03*
X0095586Y0032035D03*
X0095986Y0032635D03*
X0095786Y0032735D03*
X0095586Y0032835D03*
X0095486Y0032935D03*
X0095286Y0033035D03*
X0094086Y0033835D03*
X0092686Y0032535D03*
X0092386Y0032735D03*
X0091686Y0033535D03*
X0093286Y0032035D03*
X0093386Y0031935D03*
X0100986Y0030235D03*
X0100986Y0030135D03*
X0101786Y0029335D03*
X0104086Y0029835D03*
X0103986Y0030435D03*
X0105186Y0030235D03*
X0105186Y0030135D03*
X0105186Y0030035D03*
X0105286Y0029935D03*
X0105286Y0029835D03*
X0108586Y0031335D03*
X0108586Y0032835D03*
X0109086Y0033135D03*
X0110986Y0032035D03*
X0111086Y0032135D03*
X0111186Y0032235D03*
X0111386Y0032335D03*
X0112286Y0033235D03*
D18*
X0112736Y0035235D03*
X0112836Y0035335D03*
X0112936Y0035435D03*
X0112136Y0045135D03*
X0111936Y0046135D03*
X0107436Y0046835D03*
X0112836Y0051835D03*
X0112936Y0051735D03*
X0112736Y0051935D03*
X0108736Y0055935D03*
X0091636Y0052135D03*
X0091536Y0052035D03*
X0091436Y0051935D03*
X0091336Y0051835D03*
X0091236Y0051635D03*
X0092636Y0047535D03*
X0092636Y0047435D03*
X0092536Y0047235D03*
X0092436Y0046935D03*
X0092436Y0046835D03*
X0092336Y0046535D03*
X0092236Y0046135D03*
X0092236Y0046035D03*
X0092236Y0045935D03*
X0092036Y0044635D03*
X0091236Y0035535D03*
X0091336Y0035335D03*
X0091436Y0035235D03*
X0091536Y0035135D03*
X0091636Y0035035D03*
X0099036Y0031335D03*
X0099536Y0029335D03*
D19*
X0098836Y0029535D03*
X0105136Y0029435D03*
X0113236Y0035835D03*
X0113336Y0036035D03*
X0113436Y0036135D03*
X0113536Y0036235D03*
X0113536Y0036335D03*
X0113636Y0036435D03*
X0113736Y0036635D03*
X0112136Y0045835D03*
X0113736Y0050535D03*
X0113636Y0050735D03*
X0113536Y0050835D03*
X0113536Y0050935D03*
X0113436Y0051035D03*
X0113336Y0051135D03*
X0099236Y0055835D03*
X0098236Y0057435D03*
X0090936Y0051235D03*
X0090836Y0051135D03*
X0090736Y0050935D03*
X0090636Y0050835D03*
X0090536Y0050635D03*
X0093236Y0049035D03*
X0092736Y0048035D03*
X0092736Y0047935D03*
X0091936Y0044535D03*
X0090536Y0036535D03*
X0090636Y0036335D03*
X0090736Y0036235D03*
X0090836Y0036035D03*
X0090936Y0035935D03*
D20*
X0093636Y0033335D03*
X0093536Y0033235D03*
X0093436Y0032835D03*
X0093936Y0032535D03*
X0094236Y0032935D03*
X0094236Y0033035D03*
X0094736Y0032635D03*
X0095436Y0032235D03*
X0096736Y0031535D03*
X0098736Y0030135D03*
X0099436Y0030235D03*
X0099536Y0030435D03*
X0099536Y0030535D03*
X0099636Y0030735D03*
X0102336Y0030535D03*
X0102336Y0030435D03*
X0102336Y0030335D03*
X0102436Y0030135D03*
X0102536Y0029935D03*
X0102536Y0029835D03*
X0103136Y0029635D03*
X0103136Y0029535D03*
X0103136Y0029435D03*
X0103036Y0030335D03*
X0103036Y0030435D03*
X0105336Y0030635D03*
X0106036Y0030735D03*
X0107036Y0030935D03*
X0107036Y0031435D03*
X0109036Y0032235D03*
X0109036Y0032335D03*
X0109636Y0032635D03*
X0109936Y0032135D03*
X0110336Y0032535D03*
X0110836Y0033535D03*
X0109436Y0031735D03*
X0109436Y0031635D03*
X0101236Y0036035D03*
X0101236Y0036135D03*
X0101036Y0035735D03*
X0100936Y0035535D03*
X0100836Y0035435D03*
X0100636Y0035135D03*
X0100536Y0035035D03*
X0102436Y0040735D03*
X0104536Y0046735D03*
X0104736Y0046835D03*
X0104836Y0046935D03*
X0107936Y0046135D03*
X0110836Y0046435D03*
X0100036Y0046735D03*
X0099836Y0046835D03*
X0099736Y0046935D03*
X0098936Y0047535D03*
X0098836Y0047635D03*
X0098836Y0047735D03*
X0098736Y0047835D03*
X0092336Y0041235D03*
X0105636Y0056135D03*
X0105936Y0056935D03*
X0103436Y0056735D03*
X0103436Y0056635D03*
X0103436Y0056535D03*
X0103136Y0057535D03*
X0101936Y0056935D03*
X0101936Y0056835D03*
X0101236Y0056435D03*
X0100336Y0056935D03*
X0100336Y0057035D03*
X0100336Y0057135D03*
X0100336Y0057235D03*
X0100336Y0057335D03*
X0100236Y0057535D03*
X0099636Y0057235D03*
X0099536Y0057335D03*
D21*
X0099586Y0056535D03*
X0102086Y0057535D03*
X0102586Y0056435D03*
X0103386Y0057035D03*
X0103386Y0057135D03*
X0103386Y0057235D03*
X0105986Y0057035D03*
X0106586Y0056535D03*
X0106586Y0056435D03*
X0106486Y0056135D03*
X0106486Y0056035D03*
X0098286Y0050035D03*
X0099186Y0047235D03*
X0100986Y0046335D03*
X0103586Y0046335D03*
X0102286Y0040635D03*
X0101186Y0037635D03*
X0097586Y0035035D03*
X0101186Y0034535D03*
X0103286Y0034535D03*
X0103386Y0034435D03*
X0102386Y0030735D03*
X0101786Y0029435D03*
X0099986Y0029635D03*
X0097786Y0030135D03*
X0097786Y0030235D03*
X0097786Y0030335D03*
X0097786Y0030435D03*
X0097786Y0030535D03*
X0097786Y0030635D03*
X0097786Y0030735D03*
X0096786Y0030535D03*
X0094386Y0031935D03*
X0093986Y0034035D03*
X0093886Y0034135D03*
X0091686Y0033435D03*
X0106086Y0030935D03*
X0106886Y0030635D03*
X0107886Y0030835D03*
X0109986Y0032235D03*
X0109686Y0032835D03*
X0110286Y0034035D03*
X0110386Y0034135D03*
X0110486Y0034235D03*
D22*
X0110886Y0033635D03*
X0106986Y0031535D03*
X0106986Y0030835D03*
X0106686Y0030435D03*
X0106086Y0030835D03*
X0106386Y0031135D03*
X0105286Y0030735D03*
X0104086Y0030635D03*
X0103886Y0029735D03*
X0102486Y0030035D03*
X0100886Y0029535D03*
X0100886Y0029435D03*
X0099986Y0029835D03*
X0099586Y0030635D03*
X0099686Y0030835D03*
X0098886Y0030835D03*
X0098686Y0030235D03*
X0096886Y0031735D03*
X0096786Y0031635D03*
X0096586Y0031435D03*
X0095086Y0031535D03*
X0094986Y0031435D03*
X0093786Y0032435D03*
X0093486Y0032935D03*
X0093686Y0033435D03*
X0099886Y0035035D03*
X0101086Y0034035D03*
X0102286Y0034035D03*
X0103386Y0034035D03*
X0101086Y0037735D03*
X0102286Y0040335D03*
X0102286Y0040435D03*
X0102486Y0040835D03*
X0102486Y0040935D03*
X0102586Y0041035D03*
X0102286Y0046035D03*
X0104186Y0046535D03*
X0104386Y0046635D03*
X0100386Y0046535D03*
X0100186Y0046635D03*
X0099086Y0047335D03*
X0098986Y0047435D03*
X0098386Y0048835D03*
X0105586Y0056035D03*
X0106486Y0055935D03*
X0106586Y0056635D03*
X0104186Y0056335D03*
X0104186Y0056235D03*
X0103086Y0057635D03*
X0101986Y0057135D03*
X0101986Y0057035D03*
X0101286Y0056335D03*
X0100986Y0057635D03*
X0099686Y0056735D03*
X0099186Y0056235D03*
X0098986Y0057035D03*
X0110786Y0046335D03*
D23*
X0114986Y0047835D03*
X0114886Y0048135D03*
X0114786Y0048335D03*
X0114786Y0048435D03*
X0114686Y0048635D03*
X0114686Y0048735D03*
X0114586Y0048835D03*
X0114586Y0048935D03*
X0114486Y0049135D03*
X0114386Y0049335D03*
X0115086Y0047535D03*
X0115086Y0039635D03*
X0114986Y0039335D03*
X0114886Y0039035D03*
X0114786Y0038835D03*
X0114786Y0038735D03*
X0114686Y0038535D03*
X0114686Y0038435D03*
X0114586Y0038335D03*
X0114586Y0038235D03*
X0114486Y0038035D03*
X0114386Y0037835D03*
X0101686Y0030835D03*
X0098986Y0029435D03*
X0091986Y0034135D03*
X0094986Y0035435D03*
X0095086Y0035335D03*
X0089786Y0037935D03*
X0089686Y0038135D03*
X0089586Y0038335D03*
X0089586Y0038435D03*
X0089486Y0038535D03*
X0089486Y0038635D03*
X0089386Y0038835D03*
X0089386Y0038935D03*
X0089286Y0039135D03*
X0089186Y0039435D03*
X0089186Y0047735D03*
X0089286Y0047935D03*
X0089286Y0048035D03*
X0089386Y0048235D03*
X0089386Y0048335D03*
X0089486Y0048435D03*
X0089486Y0048535D03*
X0089486Y0048635D03*
X0089586Y0048735D03*
X0089586Y0048835D03*
X0089686Y0049035D03*
X0089786Y0049235D03*
X0092886Y0048635D03*
X0100786Y0049735D03*
X0102286Y0056235D03*
X0105586Y0057635D03*
X0098386Y0057535D03*
X0097186Y0057035D03*
X0095886Y0056335D03*
D24*
X0095986Y0056535D03*
X0097386Y0057235D03*
X0106586Y0057335D03*
X0108386Y0056435D03*
X0112286Y0046735D03*
X0112386Y0046335D03*
X0094086Y0036235D03*
X0093986Y0036335D03*
X0093186Y0037635D03*
X0092886Y0038035D03*
X0092886Y0038135D03*
X0092186Y0039635D03*
X0092186Y0039735D03*
X0092186Y0039835D03*
X0091586Y0042235D03*
X0091586Y0042335D03*
X0091586Y0042435D03*
X0105786Y0029535D03*
X0112286Y0034035D03*
D25*
X0111336Y0033335D03*
X0110836Y0033435D03*
X0110536Y0033135D03*
X0110436Y0033235D03*
X0110236Y0033535D03*
X0110336Y0032635D03*
X0109036Y0032435D03*
X0107636Y0031335D03*
X0107236Y0030335D03*
X0106036Y0030335D03*
X0106036Y0030235D03*
X0105236Y0030535D03*
X0104836Y0030335D03*
X0104736Y0030935D03*
X0105836Y0031135D03*
X0105836Y0031235D03*
X0103636Y0030635D03*
X0103736Y0030235D03*
X0103736Y0030135D03*
X0103736Y0029635D03*
X0103736Y0029535D03*
X0103236Y0029935D03*
X0102536Y0029735D03*
X0102536Y0029635D03*
X0102536Y0029535D03*
X0101836Y0030035D03*
X0101836Y0030135D03*
X0101836Y0030235D03*
X0100036Y0030235D03*
X0099336Y0029935D03*
X0099236Y0029835D03*
X0099236Y0029735D03*
X0098836Y0030935D03*
X0097036Y0031035D03*
X0097036Y0031135D03*
X0096236Y0030835D03*
X0096136Y0030735D03*
X0094736Y0032735D03*
X0094236Y0032835D03*
X0094136Y0033135D03*
X0093036Y0033535D03*
X0097736Y0035135D03*
X0101036Y0037935D03*
X0102236Y0037935D03*
X0102236Y0038035D03*
X0102236Y0038135D03*
X0102236Y0038235D03*
X0102236Y0038335D03*
X0102236Y0038435D03*
X0102236Y0038535D03*
X0102236Y0038635D03*
X0102236Y0038735D03*
X0102236Y0038835D03*
X0102236Y0038935D03*
X0102236Y0039035D03*
X0102236Y0039135D03*
X0102236Y0039235D03*
X0102236Y0039335D03*
X0102236Y0039435D03*
X0102236Y0039535D03*
X0102236Y0039635D03*
X0102336Y0039735D03*
X0102336Y0039835D03*
X0102336Y0039935D03*
X0102336Y0040035D03*
X0102036Y0040735D03*
X0101936Y0040835D03*
X0101936Y0040935D03*
X0101836Y0041035D03*
X0101836Y0041135D03*
X0101736Y0041335D03*
X0101636Y0041535D03*
X0101536Y0041735D03*
X0101436Y0041935D03*
X0101436Y0042035D03*
X0101336Y0042135D03*
X0101336Y0042235D03*
X0101236Y0042335D03*
X0101236Y0042435D03*
X0101136Y0042535D03*
X0101136Y0042635D03*
X0101036Y0042835D03*
X0100936Y0043035D03*
X0100836Y0043235D03*
X0100736Y0043435D03*
X0100736Y0043535D03*
X0100636Y0043635D03*
X0100636Y0043735D03*
X0100536Y0043835D03*
X0100536Y0043935D03*
X0100436Y0044035D03*
X0100436Y0044135D03*
X0100336Y0044335D03*
X0100236Y0044535D03*
X0100136Y0044735D03*
X0100036Y0044935D03*
X0100036Y0045035D03*
X0099936Y0045135D03*
X0099936Y0045235D03*
X0099836Y0045335D03*
X0099836Y0045435D03*
X0099736Y0045535D03*
X0099736Y0045635D03*
X0099636Y0045835D03*
X0099536Y0046035D03*
X0099436Y0046235D03*
X0099336Y0046435D03*
X0099336Y0046535D03*
X0099236Y0046635D03*
X0099236Y0046735D03*
X0099136Y0046835D03*
X0099136Y0046935D03*
X0099036Y0047035D03*
X0099036Y0047135D03*
X0098636Y0048035D03*
X0098536Y0048235D03*
X0098436Y0048435D03*
X0098336Y0048535D03*
X0098236Y0048935D03*
X0098236Y0049035D03*
X0098136Y0049135D03*
X0098136Y0049235D03*
X0098136Y0049335D03*
X0098136Y0049435D03*
X0098136Y0049535D03*
X0098036Y0049635D03*
X0098036Y0049735D03*
X0098036Y0049835D03*
X0098036Y0050135D03*
X0098036Y0050235D03*
X0098036Y0050335D03*
X0098036Y0050435D03*
X0097636Y0050235D03*
X0097036Y0049535D03*
X0095036Y0049035D03*
X0103036Y0046935D03*
X0103036Y0046835D03*
X0103036Y0046735D03*
X0103036Y0046635D03*
X0103036Y0046535D03*
X0103036Y0046435D03*
X0103036Y0046335D03*
X0102936Y0045935D03*
X0102936Y0045835D03*
X0102936Y0045735D03*
X0102936Y0045635D03*
X0102936Y0045535D03*
X0102936Y0045435D03*
X0102936Y0045335D03*
X0102936Y0045235D03*
X0102836Y0045135D03*
X0102836Y0045035D03*
X0102836Y0044935D03*
X0102836Y0044835D03*
X0102836Y0044735D03*
X0102836Y0044635D03*
X0102836Y0044535D03*
X0102836Y0044435D03*
X0102736Y0044335D03*
X0102736Y0044235D03*
X0102736Y0044135D03*
X0102736Y0044035D03*
X0102736Y0043935D03*
X0102736Y0043835D03*
X0102736Y0043735D03*
X0102736Y0043635D03*
X0102736Y0043535D03*
X0102636Y0043435D03*
X0102636Y0043335D03*
X0102636Y0043235D03*
X0102636Y0043135D03*
X0102636Y0043035D03*
X0102636Y0042935D03*
X0102636Y0042835D03*
X0102636Y0042735D03*
X0102536Y0042535D03*
X0102536Y0042435D03*
X0102536Y0042335D03*
X0102536Y0042235D03*
X0102536Y0042135D03*
X0102536Y0042035D03*
X0102536Y0041935D03*
X0102536Y0041835D03*
X0102436Y0041735D03*
X0102436Y0041635D03*
X0102436Y0041535D03*
X0102436Y0041435D03*
X0102436Y0041335D03*
X0102436Y0041235D03*
X0102436Y0041135D03*
X0102736Y0041135D03*
X0102836Y0041235D03*
X0102836Y0041335D03*
X0102936Y0041535D03*
X0103036Y0041735D03*
X0103136Y0041935D03*
X0103136Y0042035D03*
X0103236Y0042135D03*
X0103236Y0042235D03*
X0103336Y0042335D03*
X0103336Y0042435D03*
X0103436Y0042535D03*
X0103436Y0042635D03*
X0103536Y0042835D03*
X0103636Y0043035D03*
X0103736Y0043235D03*
X0103736Y0043335D03*
X0103836Y0043435D03*
X0103836Y0043535D03*
X0103936Y0043635D03*
X0103936Y0043735D03*
X0104036Y0043835D03*
X0104036Y0043935D03*
X0104136Y0044035D03*
X0104136Y0044135D03*
X0104236Y0044335D03*
X0104336Y0044535D03*
X0104436Y0044735D03*
X0104436Y0044835D03*
X0104536Y0044935D03*
X0104536Y0045035D03*
X0104636Y0045135D03*
X0104636Y0045235D03*
X0104736Y0045435D03*
X0104836Y0045635D03*
X0104936Y0045835D03*
X0105036Y0046035D03*
X0105036Y0046135D03*
X0105136Y0046235D03*
X0105136Y0046335D03*
X0105236Y0046435D03*
X0105236Y0046535D03*
X0105336Y0046635D03*
X0105336Y0046735D03*
X0105436Y0046935D03*
X0103136Y0047035D03*
X0103136Y0047135D03*
X0103136Y0047235D03*
X0103136Y0047335D03*
X0103136Y0047435D03*
X0103136Y0047535D03*
X0103136Y0047635D03*
X0103136Y0047735D03*
X0103236Y0047835D03*
X0103236Y0047935D03*
X0103236Y0048035D03*
X0103236Y0048135D03*
X0103236Y0048235D03*
X0109436Y0044335D03*
X0110036Y0045135D03*
X0111636Y0047535D03*
X0105736Y0056435D03*
X0104636Y0057435D03*
X0104136Y0057335D03*
X0102636Y0057135D03*
X0102636Y0057035D03*
X0101836Y0056435D03*
X0101836Y0056335D03*
X0101336Y0056735D03*
X0101336Y0056835D03*
X0101336Y0056935D03*
X0100936Y0057135D03*
X0100936Y0057235D03*
X0099836Y0056235D03*
X0092336Y0041435D03*
X0092336Y0041335D03*
X0104236Y0038135D03*
D26*
X0102336Y0040535D03*
X0101236Y0036235D03*
X0101136Y0034135D03*
X0102236Y0034135D03*
X0103336Y0034135D03*
X0102336Y0030635D03*
X0101836Y0029635D03*
X0101836Y0029535D03*
X0100936Y0029635D03*
X0100936Y0029735D03*
X0099936Y0029735D03*
X0099736Y0030935D03*
X0098836Y0030735D03*
X0098736Y0030635D03*
X0098736Y0030535D03*
X0098736Y0030435D03*
X0098736Y0030335D03*
X0096836Y0030635D03*
X0096236Y0031035D03*
X0095136Y0031635D03*
X0095436Y0032135D03*
X0094736Y0032435D03*
X0094736Y0032535D03*
X0094636Y0032335D03*
X0094536Y0032235D03*
X0094536Y0032135D03*
X0094436Y0032035D03*
X0106736Y0030535D03*
X0106936Y0030735D03*
X0109636Y0032735D03*
X0109936Y0032935D03*
X0110236Y0032435D03*
X0111236Y0033135D03*
X0107736Y0038735D03*
X0103936Y0046435D03*
X0100636Y0046435D03*
X0099636Y0056635D03*
X0102036Y0057235D03*
X0102036Y0057335D03*
X0102036Y0057435D03*
X0102636Y0056635D03*
X0102636Y0056535D03*
X0103436Y0056835D03*
X0103436Y0056935D03*
X0103236Y0057435D03*
X0103136Y0057735D03*
X0104936Y0056335D03*
D27*
X0104736Y0055835D03*
X0106736Y0057235D03*
X0112236Y0046635D03*
X0102236Y0035235D03*
X0102236Y0035135D03*
X0102236Y0035035D03*
X0102236Y0034935D03*
X0102236Y0034835D03*
X0102236Y0034735D03*
X0104736Y0031335D03*
X0106036Y0029635D03*
X0112336Y0034135D03*
X0093736Y0036735D03*
X0092836Y0038235D03*
X0092836Y0038335D03*
X0091936Y0034035D03*
D28*
X0094136Y0036135D03*
X0094236Y0036035D03*
X0093736Y0036635D03*
X0093436Y0037135D03*
X0093136Y0037535D03*
X0092936Y0037835D03*
X0092936Y0037935D03*
X0092636Y0038535D03*
X0092536Y0038635D03*
X0092036Y0039935D03*
X0091936Y0040235D03*
X0091536Y0042135D03*
X0091536Y0042535D03*
X0091536Y0042635D03*
X0091536Y0042735D03*
X0091536Y0042835D03*
X0091536Y0042935D03*
X0091536Y0043635D03*
X0091536Y0043735D03*
X0091536Y0043835D03*
X0091536Y0043935D03*
X0091536Y0044035D03*
X0098936Y0055735D03*
X0097636Y0057335D03*
X0112336Y0046435D03*
X0098136Y0029635D03*
X0097136Y0030035D03*
D29*
X0098736Y0031435D03*
X0106136Y0029735D03*
X0112336Y0034235D03*
X0114736Y0038635D03*
X0114836Y0038935D03*
X0114936Y0039135D03*
X0114936Y0039235D03*
X0115036Y0039435D03*
X0115036Y0039535D03*
X0115136Y0039735D03*
X0115136Y0039835D03*
X0115136Y0039935D03*
X0115236Y0040035D03*
X0115236Y0040135D03*
X0115236Y0040235D03*
X0115336Y0040435D03*
X0115336Y0040535D03*
X0115336Y0040635D03*
X0115436Y0040935D03*
X0115436Y0041035D03*
X0115436Y0041135D03*
X0115536Y0041535D03*
X0115536Y0041635D03*
X0115636Y0042535D03*
X0115636Y0044635D03*
X0115536Y0045535D03*
X0115536Y0045635D03*
X0115436Y0046035D03*
X0115436Y0046135D03*
X0115436Y0046235D03*
X0115336Y0046535D03*
X0115336Y0046635D03*
X0115336Y0046735D03*
X0115236Y0046935D03*
X0115236Y0047035D03*
X0115236Y0047135D03*
X0115136Y0047235D03*
X0115136Y0047335D03*
X0115136Y0047435D03*
X0115036Y0047635D03*
X0115036Y0047735D03*
X0114936Y0047935D03*
X0114936Y0048035D03*
X0114836Y0048235D03*
X0114736Y0048535D03*
X0112136Y0046535D03*
X0108536Y0056235D03*
X0105836Y0057535D03*
X0095936Y0056435D03*
X0089336Y0048135D03*
X0089236Y0047835D03*
X0089136Y0047635D03*
X0089136Y0047535D03*
X0089136Y0047435D03*
X0089036Y0047335D03*
X0089036Y0047235D03*
X0089036Y0047135D03*
X0089036Y0047035D03*
X0088936Y0046935D03*
X0088936Y0046835D03*
X0088936Y0046735D03*
X0088836Y0046535D03*
X0088836Y0046435D03*
X0088836Y0046335D03*
X0088736Y0045935D03*
X0088736Y0045835D03*
X0088636Y0045235D03*
X0088636Y0045135D03*
X0088636Y0042035D03*
X0088636Y0041935D03*
X0088736Y0041335D03*
X0088736Y0041235D03*
X0088836Y0040835D03*
X0088836Y0040735D03*
X0088836Y0040635D03*
X0088936Y0040435D03*
X0088936Y0040335D03*
X0088936Y0040235D03*
X0089036Y0040135D03*
X0089036Y0040035D03*
X0089036Y0039935D03*
X0089036Y0039835D03*
X0089136Y0039735D03*
X0089136Y0039635D03*
X0089136Y0039535D03*
X0089236Y0039335D03*
X0089236Y0039235D03*
X0089336Y0039035D03*
X0089436Y0038735D03*
X0093736Y0036935D03*
D30*
X0093086Y0033635D03*
X0092586Y0033335D03*
X0093486Y0033135D03*
X0093486Y0033035D03*
X0093286Y0032735D03*
X0096286Y0030935D03*
X0096786Y0030735D03*
X0098786Y0030035D03*
X0099386Y0030035D03*
X0099386Y0030135D03*
X0099486Y0030335D03*
X0102386Y0030235D03*
X0103086Y0030535D03*
X0103186Y0029835D03*
X0103186Y0029735D03*
X0103786Y0030335D03*
X0105286Y0030835D03*
X0105986Y0030635D03*
X0105986Y0030535D03*
X0106086Y0030135D03*
X0106186Y0030035D03*
X0106586Y0030335D03*
X0107086Y0031035D03*
X0107086Y0031135D03*
X0107086Y0031235D03*
X0107086Y0031335D03*
X0107686Y0031235D03*
X0107986Y0030935D03*
X0106386Y0031235D03*
X0109386Y0031835D03*
X0109386Y0031935D03*
X0109686Y0032435D03*
X0109586Y0032535D03*
X0109986Y0033035D03*
X0109986Y0032035D03*
X0109986Y0031935D03*
X0111286Y0033235D03*
X0110886Y0033735D03*
X0101186Y0035935D03*
X0101086Y0035835D03*
X0100986Y0035635D03*
X0100786Y0035335D03*
X0100686Y0035235D03*
X0101086Y0037835D03*
X0102286Y0040135D03*
X0102286Y0040235D03*
X0101786Y0041235D03*
X0101686Y0041435D03*
X0101586Y0041635D03*
X0101486Y0041835D03*
X0101086Y0042735D03*
X0100986Y0042935D03*
X0100886Y0043135D03*
X0100786Y0043335D03*
X0100386Y0044235D03*
X0100286Y0044435D03*
X0100186Y0044635D03*
X0100086Y0044835D03*
X0099686Y0045735D03*
X0099586Y0045935D03*
X0099486Y0046135D03*
X0099386Y0046335D03*
X0099586Y0047035D03*
X0099486Y0047135D03*
X0098686Y0047935D03*
X0098586Y0048135D03*
X0098486Y0048335D03*
X0098386Y0048635D03*
X0096986Y0049635D03*
X0102986Y0046035D03*
X0104686Y0045335D03*
X0104786Y0045535D03*
X0104886Y0045735D03*
X0104986Y0045935D03*
X0105386Y0046835D03*
X0104986Y0047035D03*
X0104386Y0044635D03*
X0104286Y0044435D03*
X0104186Y0044235D03*
X0103686Y0043135D03*
X0103586Y0042935D03*
X0103486Y0042735D03*
X0103086Y0041835D03*
X0102986Y0041635D03*
X0102886Y0041435D03*
X0109986Y0045035D03*
X0106486Y0055835D03*
X0105686Y0056235D03*
X0105686Y0056335D03*
X0105786Y0056535D03*
X0105786Y0056635D03*
X0105886Y0056735D03*
X0105886Y0056835D03*
X0106586Y0056735D03*
X0104586Y0057335D03*
X0103486Y0056435D03*
X0103486Y0056335D03*
X0101886Y0056535D03*
X0101886Y0056635D03*
X0101886Y0056735D03*
X0101286Y0056635D03*
X0101286Y0056535D03*
X0100986Y0057335D03*
X0100986Y0057435D03*
X0100986Y0057535D03*
X0100286Y0057435D03*
X0100386Y0056835D03*
X0100386Y0056735D03*
X0100386Y0056635D03*
X0100386Y0056535D03*
X0100386Y0056435D03*
X0100386Y0056335D03*
X0100486Y0056235D03*
X0099886Y0056135D03*
X0099686Y0056835D03*
X0099686Y0056935D03*
X0099686Y0057035D03*
X0099686Y0057135D03*
D31*
X0096186Y0056735D03*
X0108086Y0056735D03*
X0112386Y0047135D03*
X0094286Y0035835D03*
X0092286Y0038835D03*
X0092186Y0039135D03*
X0092186Y0039235D03*
X0091586Y0041035D03*
X0091586Y0041135D03*
X0091486Y0042035D03*
X0096186Y0030435D03*
X0097486Y0029835D03*
X0097686Y0029735D03*
X0106986Y0029935D03*
X0109286Y0031135D03*
D32*
X0108436Y0030635D03*
X0107636Y0032135D03*
X0106836Y0029835D03*
X0105136Y0031435D03*
X0111536Y0032935D03*
X0112336Y0033735D03*
X0112336Y0047235D03*
X0100236Y0048535D03*
X0099536Y0049835D03*
X0105136Y0055735D03*
X0107936Y0056835D03*
X0096336Y0056835D03*
X0091436Y0041735D03*
X0091436Y0041635D03*
X0091436Y0041535D03*
X0091636Y0040935D03*
X0091636Y0040835D03*
X0091636Y0040735D03*
X0091636Y0040635D03*
X0092236Y0039035D03*
X0092236Y0038935D03*
X0091836Y0033835D03*
D33*
X0091736Y0033335D03*
X0092536Y0032635D03*
X0092736Y0032435D03*
X0094036Y0033935D03*
X0094736Y0033435D03*
X0094836Y0033335D03*
X0095036Y0033235D03*
X0095136Y0033135D03*
X0097836Y0030935D03*
X0097836Y0030835D03*
X0100936Y0030035D03*
X0100936Y0029935D03*
X0100936Y0029835D03*
X0103936Y0030535D03*
X0104036Y0030035D03*
X0104036Y0029935D03*
X0106136Y0031035D03*
X0108636Y0031235D03*
X0110036Y0032335D03*
X0109236Y0033235D03*
X0109336Y0033335D03*
X0109536Y0033435D03*
X0109636Y0033535D03*
X0109936Y0033735D03*
X0110036Y0033835D03*
X0110136Y0033935D03*
X0108936Y0033035D03*
X0112136Y0033035D03*
X0112236Y0033135D03*
X0103336Y0034235D03*
X0103336Y0034335D03*
X0102236Y0034335D03*
X0102236Y0034435D03*
X0102236Y0034535D03*
X0102236Y0034235D03*
X0101136Y0034235D03*
X0101136Y0034335D03*
X0101136Y0034435D03*
X0101236Y0036335D03*
X0107836Y0046235D03*
X0106536Y0056235D03*
X0106536Y0056335D03*
X0103336Y0057335D03*
X0102636Y0056335D03*
X0102036Y0057635D03*
D34*
X0108236Y0056635D03*
X0112336Y0047035D03*
X0112336Y0046935D03*
X0099636Y0034835D03*
X0094236Y0035935D03*
X0092936Y0037735D03*
X0091836Y0040435D03*
X0091436Y0043135D03*
X0091436Y0043235D03*
X0091436Y0043335D03*
X0108536Y0030735D03*
X0112336Y0033835D03*
X0097236Y0029935D03*
D35*
X0096586Y0030135D03*
X0096386Y0030235D03*
X0094486Y0031335D03*
X0093186Y0032335D03*
X0094186Y0033535D03*
X0091786Y0033735D03*
X0101386Y0037135D03*
X0101386Y0037235D03*
X0108286Y0030435D03*
X0107686Y0030135D03*
X0107386Y0030035D03*
X0111486Y0032735D03*
X0099386Y0048635D03*
X0098686Y0049935D03*
D36*
X0098236Y0056835D03*
X0103636Y0038035D03*
X0112336Y0033635D03*
X0109236Y0031035D03*
X0107836Y0030235D03*
X0107736Y0032235D03*
X0105536Y0031535D03*
X0098236Y0031635D03*
X0093836Y0031835D03*
D37*
X0093836Y0031735D03*
X0094536Y0031235D03*
X0097336Y0031935D03*
X0098036Y0031735D03*
X0092236Y0033135D03*
X0092136Y0033235D03*
X0101336Y0036935D03*
X0101336Y0037035D03*
X0106536Y0031835D03*
X0107836Y0032335D03*
X0108136Y0030335D03*
X0110036Y0031535D03*
X0112336Y0033535D03*
X0107636Y0046335D03*
X0105436Y0055635D03*
X0104636Y0056535D03*
X0104636Y0056635D03*
X0091336Y0041435D03*
X0091336Y0041235D03*
D38*
X0101286Y0036735D03*
X0101286Y0036635D03*
X0100986Y0030535D03*
X0100986Y0030435D03*
X0100986Y0030335D03*
X0096986Y0032135D03*
X0096086Y0031235D03*
X0095086Y0030835D03*
X0094886Y0030935D03*
X0108086Y0031935D03*
X0108386Y0031635D03*
X0108086Y0032535D03*
X0108886Y0032935D03*
X0109786Y0031235D03*
X0110486Y0031735D03*
X0111486Y0032535D03*
X0111086Y0033035D03*
X0112486Y0047835D03*
X0112286Y0048335D03*
X0112286Y0048435D03*
X0112186Y0048635D03*
X0098286Y0055935D03*
X0098186Y0056035D03*
X0098086Y0056335D03*
X0098086Y0056435D03*
D39*
X0098686Y0055635D03*
X0102886Y0049535D03*
X0107586Y0046435D03*
X0112386Y0047335D03*
X0112386Y0047435D03*
X0107786Y0056935D03*
X0107586Y0057035D03*
X0091386Y0041935D03*
X0091386Y0041835D03*
X0091686Y0040535D03*
X0097486Y0031835D03*
X0096286Y0030335D03*
X0106386Y0031735D03*
X0108386Y0030535D03*
X0111486Y0032835D03*
D40*
X0111486Y0032635D03*
X0109986Y0031435D03*
X0109186Y0030935D03*
X0106786Y0031935D03*
X0100986Y0030735D03*
X0095686Y0030535D03*
X0095486Y0030635D03*
X0095286Y0030735D03*
X0095586Y0031735D03*
X0095686Y0031835D03*
X0094186Y0033635D03*
X0093186Y0032235D03*
X0092286Y0033035D03*
X0091286Y0041335D03*
X0105086Y0048535D03*
X0112286Y0048135D03*
X0112286Y0048035D03*
X0112486Y0047635D03*
X0112486Y0047535D03*
X0104586Y0056435D03*
X0104686Y0056735D03*
X0104686Y0056835D03*
X0104686Y0056935D03*
X0104686Y0057035D03*
D41*
X0104636Y0057135D03*
X0105736Y0055535D03*
X0105636Y0049835D03*
X0112236Y0048235D03*
X0112436Y0047935D03*
X0112436Y0047735D03*
X0098736Y0048735D03*
X0098436Y0055535D03*
X0098336Y0056735D03*
X0101336Y0036835D03*
X0100136Y0034935D03*
X0097136Y0032035D03*
X0096136Y0031335D03*
X0095636Y0031935D03*
X0094736Y0031035D03*
X0094636Y0031135D03*
X0093936Y0031635D03*
X0093236Y0032135D03*
X0092336Y0032935D03*
X0091736Y0033635D03*
X0094136Y0033735D03*
X0101036Y0030635D03*
X0107936Y0032435D03*
X0108236Y0031835D03*
X0108336Y0031735D03*
X0109136Y0030835D03*
X0109936Y0031335D03*
X0110536Y0031835D03*
X0112336Y0033435D03*
D42*
X0102086Y0030935D03*
X0111786Y0041535D03*
X0111886Y0041735D03*
X0111486Y0053335D03*
X0111386Y0053435D03*
X0095586Y0055835D03*
X0093086Y0053635D03*
X0092986Y0053535D03*
X0092886Y0053435D03*
X0093686Y0049335D03*
X0092286Y0044835D03*
D43*
X0095486Y0050635D03*
X0108286Y0055435D03*
X0109986Y0038535D03*
X0109886Y0038435D03*
X0102186Y0031035D03*
X0097586Y0034335D03*
D44*
X0096536Y0032335D03*
X0096736Y0032235D03*
X0096336Y0032435D03*
X0096136Y0032535D03*
X0097936Y0031135D03*
X0094136Y0031435D03*
X0093936Y0031535D03*
X0092336Y0032835D03*
X0101236Y0036535D03*
X0108236Y0032635D03*
X0108436Y0032735D03*
X0108436Y0031535D03*
X0108536Y0031435D03*
X0110436Y0031635D03*
X0110836Y0031935D03*
X0111436Y0032435D03*
X0112336Y0033335D03*
X0109836Y0033635D03*
X0103136Y0046235D03*
X0101436Y0046235D03*
X0112236Y0048535D03*
X0099436Y0056335D03*
X0098336Y0056635D03*
X0098136Y0056235D03*
X0098136Y0056135D03*
X0098236Y0055435D03*
D45*
X0102136Y0054635D03*
X0102136Y0032535D03*
X0101436Y0031235D03*
D46*
X0098486Y0031535D03*
X0093886Y0036435D03*
X0093786Y0036535D03*
X0093286Y0037235D03*
X0093186Y0037335D03*
X0093186Y0037435D03*
X0092486Y0038735D03*
X0092186Y0039335D03*
X0092186Y0039435D03*
X0092186Y0039535D03*
X0091986Y0040035D03*
X0091986Y0040135D03*
X0091886Y0040335D03*
X0091486Y0043035D03*
X0091486Y0043435D03*
X0091486Y0043535D03*
X0091486Y0044135D03*
X0091486Y0044235D03*
X0102286Y0046135D03*
X0104686Y0049735D03*
X0112286Y0046835D03*
X0108286Y0056535D03*
X0106386Y0057435D03*
X0096086Y0056635D03*
X0091886Y0033935D03*
X0106186Y0031635D03*
X0107486Y0032035D03*
X0112286Y0033935D03*
D47*
X0113686Y0036535D03*
X0113786Y0036735D03*
X0113886Y0036835D03*
X0113886Y0036935D03*
X0113986Y0037035D03*
X0114086Y0037235D03*
X0114186Y0037435D03*
X0112186Y0045535D03*
X0112186Y0045635D03*
X0112186Y0045735D03*
X0107286Y0046735D03*
X0113886Y0050235D03*
X0113886Y0050335D03*
X0113786Y0050435D03*
X0113686Y0050635D03*
X0113986Y0050135D03*
X0114086Y0049935D03*
X0114186Y0049735D03*
X0102086Y0055235D03*
X0095786Y0056235D03*
X0090586Y0050735D03*
X0090486Y0050535D03*
X0090386Y0050435D03*
X0090386Y0050335D03*
X0090286Y0050235D03*
X0090186Y0050035D03*
X0090086Y0049835D03*
X0092786Y0048335D03*
X0092786Y0048235D03*
X0092786Y0048135D03*
X0093086Y0048935D03*
X0091886Y0044435D03*
X0090086Y0037335D03*
X0090186Y0037135D03*
X0090286Y0036935D03*
X0090386Y0036835D03*
X0090386Y0036735D03*
X0090486Y0036635D03*
X0090586Y0036435D03*
X0095286Y0035235D03*
X0095386Y0035135D03*
X0095486Y0035035D03*
X0102086Y0031935D03*
D48*
X0102136Y0032035D03*
X0106536Y0033835D03*
X0096236Y0034935D03*
X0111536Y0041335D03*
X0111736Y0043435D03*
X0111736Y0044335D03*
X0111736Y0044435D03*
X0111736Y0044535D03*
X0107436Y0047035D03*
X0110236Y0054335D03*
X0108836Y0055535D03*
X0102336Y0056135D03*
X0102136Y0055135D03*
X0095436Y0055535D03*
X0094136Y0054435D03*
X0093936Y0054335D03*
X0093836Y0054235D03*
D49*
X0098836Y0053735D03*
X0102136Y0055035D03*
X0108736Y0055235D03*
X0108936Y0050635D03*
X0108936Y0050535D03*
X0109036Y0050435D03*
X0108536Y0048235D03*
X0108436Y0048035D03*
X0108336Y0047935D03*
X0108236Y0047835D03*
X0108136Y0047735D03*
X0102636Y0048435D03*
X0095736Y0051135D03*
X0095136Y0050335D03*
X0097636Y0034235D03*
X0102136Y0032135D03*
X0106736Y0034335D03*
D50*
X0109536Y0038235D03*
X0102136Y0032235D03*
X0097536Y0034635D03*
X0109336Y0049335D03*
X0102136Y0054935D03*
D51*
X0102086Y0054835D03*
X0106986Y0035235D03*
X0102086Y0032335D03*
D52*
X0102136Y0032435D03*
X0107036Y0035635D03*
X0102136Y0054735D03*
D53*
X0102086Y0054535D03*
X0102086Y0032635D03*
D54*
X0102136Y0032735D03*
X0107136Y0036735D03*
X0102136Y0054435D03*
D55*
X0102086Y0054335D03*
X0102086Y0032835D03*
D56*
X0102086Y0032935D03*
X0102086Y0054235D03*
D57*
X0102086Y0054135D03*
X0102086Y0033035D03*
D58*
X0102086Y0033135D03*
X0102086Y0054035D03*
D59*
X0102086Y0053935D03*
X0102086Y0033235D03*
D60*
X0102086Y0033335D03*
X0102086Y0053835D03*
D61*
X0102136Y0033435D03*
D62*
X0102136Y0033535D03*
D63*
X0102086Y0033635D03*
D64*
X0106486Y0033735D03*
X0096286Y0034835D03*
X0111686Y0042335D03*
X0111786Y0042635D03*
X0111786Y0042735D03*
X0111786Y0042835D03*
X0111786Y0042935D03*
X0111786Y0043035D03*
X0111786Y0043335D03*
X0111686Y0044635D03*
X0110386Y0054235D03*
X0095486Y0055635D03*
X0093686Y0054135D03*
X0094086Y0049535D03*
D65*
X0107136Y0036435D03*
X0100036Y0033735D03*
D66*
X0097786Y0033835D03*
X0110786Y0039235D03*
X0110786Y0039335D03*
X0110786Y0039435D03*
X0111286Y0040835D03*
X0111286Y0040935D03*
X0111286Y0041135D03*
X0111386Y0041235D03*
X0111586Y0043835D03*
X0111586Y0043935D03*
X0108186Y0051835D03*
X0108086Y0051935D03*
X0107986Y0052035D03*
X0106286Y0053435D03*
X0106086Y0053535D03*
X0109786Y0054635D03*
X0094586Y0054735D03*
D67*
X0094436Y0054635D03*
X0095336Y0055435D03*
X0094236Y0049635D03*
X0106436Y0053335D03*
X0106636Y0053235D03*
X0106936Y0053035D03*
X0107436Y0052635D03*
X0107536Y0052535D03*
X0107636Y0052435D03*
X0107736Y0052335D03*
X0107836Y0052235D03*
X0107936Y0052135D03*
X0109936Y0054535D03*
X0111636Y0043735D03*
X0111636Y0043635D03*
X0111236Y0040735D03*
X0111236Y0040635D03*
X0106636Y0033935D03*
D68*
X0106636Y0034035D03*
X0110836Y0039535D03*
X0110836Y0039635D03*
X0111236Y0041035D03*
X0111536Y0044135D03*
X0111536Y0044235D03*
X0108336Y0051635D03*
X0108236Y0051735D03*
X0109636Y0054735D03*
X0102736Y0049635D03*
X0097336Y0052935D03*
X0094736Y0054835D03*
X0097736Y0033935D03*
D69*
X0097686Y0034035D03*
X0106686Y0034135D03*
X0108786Y0050935D03*
X0108686Y0051135D03*
X0105586Y0053735D03*
X0098286Y0053535D03*
X0096386Y0052035D03*
X0096286Y0051935D03*
X0096186Y0051835D03*
X0094886Y0050235D03*
X0095086Y0055035D03*
X0095286Y0055135D03*
D70*
X0095486Y0055235D03*
X0095986Y0051535D03*
X0095886Y0051435D03*
X0095886Y0051335D03*
X0095786Y0051235D03*
X0094686Y0049835D03*
X0108886Y0050735D03*
X0097686Y0034135D03*
D71*
X0106736Y0034235D03*
X0108036Y0047635D03*
X0108836Y0050835D03*
X0108736Y0051035D03*
X0108936Y0055135D03*
X0102136Y0056035D03*
X0098536Y0053635D03*
X0096136Y0051735D03*
X0096036Y0051635D03*
X0094836Y0050135D03*
X0094836Y0050035D03*
X0094736Y0049935D03*
X0094636Y0049735D03*
D72*
X0093486Y0049135D03*
X0092386Y0052935D03*
X0107586Y0046935D03*
X0111986Y0045035D03*
X0111986Y0052835D03*
X0111886Y0052935D03*
X0111786Y0053035D03*
X0111686Y0053135D03*
X0108786Y0055835D03*
X0112086Y0034435D03*
X0111986Y0034335D03*
X0092386Y0034235D03*
D73*
X0106736Y0034435D03*
X0110036Y0038635D03*
X0108736Y0048535D03*
X0109136Y0050135D03*
X0095536Y0050735D03*
X0095536Y0050835D03*
D74*
X0095436Y0050535D03*
X0109236Y0049835D03*
X0106836Y0034535D03*
X0097536Y0034435D03*
D75*
X0097536Y0034535D03*
X0106836Y0034635D03*
X0109736Y0038335D03*
X0109336Y0049535D03*
X0109036Y0050035D03*
D76*
X0107236Y0046635D03*
X0114036Y0050035D03*
X0114136Y0049835D03*
X0114236Y0049635D03*
X0114336Y0049535D03*
X0114336Y0049435D03*
X0114436Y0049235D03*
X0114536Y0049035D03*
X0108636Y0056135D03*
X0093036Y0048835D03*
X0092936Y0048735D03*
X0092836Y0048535D03*
X0092836Y0048435D03*
X0090036Y0049735D03*
X0089936Y0049635D03*
X0089936Y0049535D03*
X0089836Y0049435D03*
X0089836Y0049335D03*
X0089736Y0049135D03*
X0089636Y0048935D03*
X0090136Y0049935D03*
X0090236Y0050135D03*
X0091836Y0044335D03*
X0089636Y0038235D03*
X0089736Y0038035D03*
X0089836Y0037835D03*
X0089836Y0037735D03*
X0089936Y0037635D03*
X0089936Y0037535D03*
X0090036Y0037435D03*
X0090136Y0037235D03*
X0090236Y0037035D03*
X0102236Y0034635D03*
X0114036Y0037135D03*
X0114136Y0037335D03*
X0114236Y0037535D03*
X0114336Y0037635D03*
X0114336Y0037735D03*
X0114436Y0037935D03*
X0114536Y0038135D03*
D77*
X0106886Y0034835D03*
X0097486Y0034735D03*
X0109386Y0049135D03*
X0109386Y0049235D03*
D78*
X0111886Y0046035D03*
X0112686Y0052035D03*
X0112586Y0052135D03*
X0112486Y0052235D03*
X0102786Y0048335D03*
X0095686Y0056035D03*
X0091886Y0052435D03*
X0091786Y0052335D03*
X0091686Y0052235D03*
X0092286Y0045835D03*
X0092286Y0045735D03*
X0092186Y0045535D03*
X0092186Y0045435D03*
X0092186Y0045335D03*
X0091686Y0034935D03*
X0091786Y0034835D03*
X0091886Y0034735D03*
X0112486Y0034935D03*
X0112586Y0035035D03*
X0112686Y0035135D03*
X0102086Y0058335D03*
D79*
X0108286Y0048635D03*
X0109386Y0048935D03*
X0109386Y0049035D03*
X0109286Y0038035D03*
X0106886Y0034935D03*
D80*
X0106936Y0035035D03*
D81*
X0106936Y0035135D03*
X0109336Y0048835D03*
D82*
X0106986Y0035335D03*
D83*
X0106986Y0035435D03*
D84*
X0104186Y0037935D03*
X0112986Y0035535D03*
X0113086Y0035635D03*
X0113186Y0035735D03*
X0113286Y0035935D03*
X0112186Y0045235D03*
X0112186Y0045335D03*
X0112186Y0045435D03*
X0112086Y0045935D03*
X0111986Y0046235D03*
X0113286Y0051235D03*
X0113186Y0051335D03*
X0113186Y0051435D03*
X0113086Y0051535D03*
X0112986Y0051635D03*
X0108686Y0056035D03*
X0105086Y0057735D03*
X0098886Y0057635D03*
X0095786Y0056135D03*
X0091286Y0051735D03*
X0091186Y0051535D03*
X0091086Y0051435D03*
X0090986Y0051335D03*
X0090786Y0051035D03*
X0092686Y0047835D03*
X0092686Y0047735D03*
X0092686Y0047635D03*
X0092586Y0047335D03*
X0092486Y0047135D03*
X0092486Y0047035D03*
X0092386Y0046735D03*
X0092386Y0046635D03*
X0092286Y0046435D03*
X0092286Y0046335D03*
X0092286Y0046235D03*
X0090786Y0036135D03*
X0090986Y0035835D03*
X0091086Y0035735D03*
X0091186Y0035635D03*
X0091286Y0035435D03*
D85*
X0107036Y0035535D03*
D86*
X0115286Y0040335D03*
X0115386Y0040735D03*
X0115386Y0040835D03*
X0115486Y0041235D03*
X0115486Y0041335D03*
X0115486Y0041435D03*
X0115586Y0041735D03*
X0115586Y0041835D03*
X0115586Y0041935D03*
X0115586Y0042035D03*
X0115586Y0042135D03*
X0115586Y0042235D03*
X0115586Y0042335D03*
X0115586Y0042435D03*
X0115686Y0042635D03*
X0115686Y0042735D03*
X0115686Y0042835D03*
X0115686Y0042935D03*
X0115686Y0043035D03*
X0115686Y0043135D03*
X0115686Y0043235D03*
X0115686Y0043335D03*
X0115686Y0043435D03*
X0115686Y0043535D03*
X0115686Y0043635D03*
X0115686Y0043735D03*
X0115686Y0043835D03*
X0115686Y0043935D03*
X0115686Y0044035D03*
X0115686Y0044135D03*
X0115686Y0044235D03*
X0115686Y0044335D03*
X0115686Y0044435D03*
X0115686Y0044535D03*
X0115586Y0044735D03*
X0115586Y0044835D03*
X0115586Y0044935D03*
X0115586Y0045035D03*
X0115586Y0045135D03*
X0115586Y0045235D03*
X0115586Y0045335D03*
X0115586Y0045435D03*
X0115486Y0045735D03*
X0115486Y0045835D03*
X0115486Y0045935D03*
X0115386Y0046335D03*
X0115386Y0046435D03*
X0115286Y0046835D03*
X0107286Y0046535D03*
X0093786Y0036835D03*
X0093586Y0037035D03*
X0092786Y0038435D03*
X0094586Y0035735D03*
X0094686Y0035635D03*
X0094786Y0035535D03*
X0088886Y0040535D03*
X0088786Y0040935D03*
X0088786Y0041035D03*
X0088786Y0041135D03*
X0088686Y0041435D03*
X0088686Y0041535D03*
X0088686Y0041635D03*
X0088686Y0041735D03*
X0088686Y0041835D03*
X0088586Y0042135D03*
X0088586Y0042235D03*
X0088586Y0042335D03*
X0088586Y0042435D03*
X0088586Y0042535D03*
X0088586Y0042635D03*
X0088586Y0042735D03*
X0088586Y0042835D03*
X0088586Y0042935D03*
X0088586Y0043035D03*
X0088586Y0043135D03*
X0088586Y0043235D03*
X0088586Y0043335D03*
X0088586Y0043435D03*
X0088586Y0043535D03*
X0088586Y0043635D03*
X0088586Y0043735D03*
X0088586Y0043835D03*
X0088586Y0043935D03*
X0088586Y0044035D03*
X0088586Y0044135D03*
X0088586Y0044235D03*
X0088586Y0044335D03*
X0088586Y0044435D03*
X0088586Y0044535D03*
X0088586Y0044635D03*
X0088586Y0044735D03*
X0088586Y0044835D03*
X0088586Y0044935D03*
X0088586Y0045035D03*
X0088686Y0045335D03*
X0088686Y0045435D03*
X0088686Y0045535D03*
X0088686Y0045635D03*
X0088686Y0045735D03*
X0088786Y0046035D03*
X0088786Y0046135D03*
X0088786Y0046235D03*
X0088886Y0046635D03*
X0097286Y0057135D03*
X0106886Y0057135D03*
X0108486Y0056335D03*
D87*
X0107086Y0035835D03*
D88*
X0107086Y0035935D03*
D89*
X0107086Y0036035D03*
D90*
X0107136Y0036135D03*
D91*
X0107086Y0036235D03*
X0102086Y0057835D03*
D92*
X0107136Y0036335D03*
D93*
X0107136Y0036535D03*
X0107136Y0036635D03*
D94*
X0107136Y0036835D03*
D95*
X0107186Y0036935D03*
D96*
X0107136Y0037035D03*
D97*
X0107136Y0037135D03*
X0107136Y0037235D03*
D98*
X0106486Y0037535D03*
X0106386Y0037335D03*
D99*
X0106436Y0037435D03*
D100*
X0106986Y0037635D03*
D101*
X0107186Y0037735D03*
D102*
X0107236Y0037835D03*
D103*
X0109186Y0037935D03*
X0102586Y0055935D03*
D104*
X0108836Y0049935D03*
X0109436Y0038135D03*
D105*
X0110486Y0038735D03*
X0110486Y0038835D03*
X0110486Y0038935D03*
X0110886Y0039735D03*
X0110886Y0039835D03*
X0110886Y0039935D03*
X0110986Y0040335D03*
X0111486Y0044035D03*
X0107686Y0047435D03*
X0107586Y0047335D03*
X0107286Y0047135D03*
X0108486Y0051435D03*
X0108386Y0051535D03*
X0105886Y0053635D03*
X0109286Y0054935D03*
X0109486Y0054835D03*
X0097786Y0053235D03*
X0097586Y0053135D03*
X0097486Y0053035D03*
X0097186Y0052835D03*
X0097086Y0052735D03*
X0096986Y0052635D03*
X0096886Y0052535D03*
X0096786Y0052435D03*
X0094886Y0054935D03*
D106*
X0093286Y0053835D03*
X0093886Y0049435D03*
X0110786Y0053935D03*
X0110886Y0053835D03*
X0111686Y0041435D03*
D107*
X0111836Y0041635D03*
X0111936Y0041835D03*
X0111936Y0041935D03*
X0111936Y0042035D03*
X0111936Y0042135D03*
X0111936Y0042235D03*
X0111536Y0053235D03*
X0108836Y0055735D03*
X0099436Y0057735D03*
X0097436Y0056935D03*
X0095636Y0055935D03*
X0092736Y0053335D03*
X0092636Y0053235D03*
X0092536Y0053135D03*
X0092436Y0053035D03*
X0093636Y0049235D03*
X0092236Y0045035D03*
X0092236Y0044935D03*
D108*
X0093436Y0053935D03*
X0093536Y0054035D03*
X0110536Y0054135D03*
X0110636Y0054035D03*
X0111736Y0044935D03*
X0111736Y0044835D03*
X0111736Y0044735D03*
X0111836Y0043235D03*
X0111836Y0043135D03*
X0111736Y0042535D03*
X0111736Y0042435D03*
D109*
X0111686Y0043535D03*
X0107286Y0052735D03*
X0107186Y0052835D03*
X0107086Y0052935D03*
X0106786Y0053135D03*
X0110086Y0054435D03*
X0094286Y0054535D03*
D110*
X0095686Y0055335D03*
X0095686Y0051035D03*
X0095586Y0050935D03*
X0095186Y0050435D03*
X0108486Y0048135D03*
X0108586Y0048335D03*
X0108686Y0048435D03*
X0109086Y0050235D03*
X0109086Y0050335D03*
X0108486Y0055335D03*
D111*
X0109136Y0048735D03*
D112*
X0109286Y0049635D03*
X0109286Y0049735D03*
D113*
X0111236Y0053535D03*
X0111136Y0053635D03*
X0111036Y0053735D03*
X0108836Y0055635D03*
X0095536Y0055735D03*
X0093236Y0053735D03*
D114*
X0089589Y0025963D02*
X0086837Y0025963D01*
X0085239Y0025963D02*
X0083175Y0025963D01*
X0082487Y0025275D01*
X0082487Y0023899D01*
X0083175Y0023211D01*
X0085239Y0023211D01*
X0085239Y0021835D02*
X0085239Y0025963D01*
X0088213Y0023899D02*
X0089589Y0023899D01*
X0089589Y0025963D02*
X0089589Y0021835D01*
X0086837Y0021835D01*
X0080889Y0022523D02*
X0080201Y0021835D01*
X0078825Y0021835D01*
X0078137Y0022523D01*
X0078137Y0023211D01*
X0078825Y0023899D01*
X0080201Y0023899D01*
X0080889Y0024587D01*
X0080889Y0025275D01*
X0080201Y0025963D01*
X0078825Y0025963D01*
X0078137Y0025275D01*
X0072189Y0024587D02*
X0070813Y0021835D01*
X0069437Y0024587D01*
X0067839Y0025275D02*
X0067839Y0022523D01*
X0065087Y0025275D01*
X0065087Y0022523D01*
X0065775Y0021835D01*
X0067151Y0021835D01*
X0067839Y0022523D01*
X0067839Y0025275D02*
X0067151Y0025963D01*
X0065775Y0025963D01*
X0065087Y0025275D01*
X0063488Y0022523D02*
X0062800Y0022523D01*
X0062800Y0021835D01*
X0063488Y0021835D01*
X0063488Y0022523D01*
X0061313Y0022523D02*
X0060625Y0021835D01*
X0059249Y0021835D01*
X0058561Y0022523D01*
X0058561Y0023899D01*
X0059249Y0024587D01*
X0059937Y0024587D01*
X0061313Y0023899D01*
X0061313Y0025963D01*
X0058561Y0025963D01*
X0095538Y0021835D02*
X0098290Y0021835D01*
X0096914Y0021835D02*
X0096914Y0025963D01*
X0098290Y0024587D01*
X0099888Y0021147D02*
X0102640Y0021147D01*
X0104238Y0022523D02*
X0104926Y0023211D01*
X0106302Y0023211D01*
X0106990Y0023899D01*
X0106302Y0024587D01*
X0104238Y0024587D01*
X0104238Y0022523D02*
X0104926Y0021835D01*
X0106990Y0021835D01*
X0108514Y0021835D02*
X0109890Y0021835D01*
X0109202Y0021835D02*
X0109202Y0024587D01*
X0109890Y0024587D01*
X0109202Y0025963D02*
X0109202Y0026651D01*
X0111488Y0023899D02*
X0111488Y0021835D01*
X0111488Y0023899D02*
X0112176Y0024587D01*
X0114240Y0024587D01*
X0114240Y0021835D01*
X0115839Y0021835D02*
X0117903Y0021835D01*
X0118591Y0022523D01*
X0117903Y0023211D01*
X0115839Y0023211D01*
X0115839Y0023899D02*
X0115839Y0021835D01*
X0115839Y0023899D02*
X0116527Y0024587D01*
X0117903Y0024587D01*
X0120115Y0024587D02*
X0121491Y0024587D01*
X0120803Y0025275D02*
X0120803Y0022523D01*
X0120115Y0021835D01*
X0123089Y0021835D02*
X0125153Y0021835D01*
X0125841Y0022523D01*
X0125841Y0023899D01*
X0125153Y0024587D01*
X0123089Y0024587D01*
X0127439Y0025275D02*
X0127439Y0022523D01*
X0128127Y0021835D01*
X0129503Y0021835D01*
X0130191Y0022523D01*
X0130191Y0025275D01*
X0129503Y0025963D01*
X0128127Y0025963D01*
X0127439Y0025275D01*
X0277396Y0129987D02*
X0277398Y0130040D01*
X0277404Y0130092D01*
X0277414Y0130144D01*
X0277427Y0130195D01*
X0277445Y0130245D01*
X0277466Y0130294D01*
X0277491Y0130341D01*
X0277519Y0130385D01*
X0277550Y0130428D01*
X0277585Y0130468D01*
X0277622Y0130505D01*
X0277662Y0130540D01*
X0277705Y0130571D01*
X0277750Y0130599D01*
X0277796Y0130624D01*
X0277845Y0130645D01*
X0277895Y0130663D01*
X0277946Y0130676D01*
X0277998Y0130686D01*
X0278050Y0130692D01*
X0278103Y0130694D01*
X0278156Y0130692D01*
X0278208Y0130686D01*
X0278260Y0130676D01*
X0278311Y0130663D01*
X0278361Y0130645D01*
X0278410Y0130624D01*
X0278457Y0130599D01*
X0278501Y0130571D01*
X0278544Y0130540D01*
X0278584Y0130505D01*
X0278621Y0130468D01*
X0278656Y0130428D01*
X0278687Y0130385D01*
X0278715Y0130340D01*
X0278740Y0130294D01*
X0278761Y0130245D01*
X0278779Y0130195D01*
X0278792Y0130144D01*
X0278802Y0130092D01*
X0278808Y0130040D01*
X0278810Y0129987D01*
X0278808Y0129934D01*
X0278802Y0129882D01*
X0278792Y0129830D01*
X0278779Y0129779D01*
X0278761Y0129729D01*
X0278740Y0129680D01*
X0278715Y0129633D01*
X0278687Y0129589D01*
X0278656Y0129546D01*
X0278621Y0129506D01*
X0278584Y0129469D01*
X0278544Y0129434D01*
X0278501Y0129403D01*
X0278456Y0129375D01*
X0278410Y0129350D01*
X0278361Y0129329D01*
X0278311Y0129311D01*
X0278260Y0129298D01*
X0278208Y0129288D01*
X0278156Y0129282D01*
X0278103Y0129280D01*
X0278050Y0129282D01*
X0277998Y0129288D01*
X0277946Y0129298D01*
X0277895Y0129311D01*
X0277845Y0129329D01*
X0277796Y0129350D01*
X0277749Y0129375D01*
X0277705Y0129403D01*
X0277662Y0129434D01*
X0277622Y0129469D01*
X0277585Y0129506D01*
X0277550Y0129546D01*
X0277519Y0129589D01*
X0277491Y0129634D01*
X0277466Y0129680D01*
X0277445Y0129729D01*
X0277427Y0129779D01*
X0277414Y0129830D01*
X0277404Y0129882D01*
X0277398Y0129934D01*
X0277396Y0129987D01*
X0278203Y0132387D02*
X0278203Y0142587D01*
X0266003Y0142587D01*
X0266003Y0132387D01*
X0278203Y0132387D01*
D115*
X0288130Y0132247D02*
X0288130Y0129945D01*
X0288897Y0129178D01*
X0291199Y0129178D01*
X0291199Y0127643D02*
X0291966Y0127643D01*
X0292734Y0126876D01*
X0292734Y0125341D01*
X0291966Y0124574D01*
X0291966Y0123039D02*
X0292734Y0122272D01*
X0292734Y0120737D01*
X0291966Y0119970D01*
X0291966Y0123039D02*
X0291199Y0123039D01*
X0288130Y0119970D01*
X0288130Y0123039D01*
X0288130Y0124574D02*
X0291199Y0127643D01*
X0288130Y0127643D02*
X0288130Y0124574D01*
X0296161Y0124691D02*
X0296161Y0121621D01*
X0299230Y0124691D01*
X0299998Y0124691D01*
X0300765Y0123923D01*
X0300765Y0122389D01*
X0299998Y0121621D01*
X0299998Y0120087D02*
X0300765Y0119319D01*
X0300765Y0117785D01*
X0299998Y0117017D01*
X0299998Y0120087D02*
X0299230Y0120087D01*
X0296161Y0117017D01*
X0296161Y0120087D01*
X0296928Y0126225D02*
X0296161Y0126993D01*
X0296161Y0129294D01*
X0299230Y0129294D01*
X0298463Y0130829D02*
X0298463Y0132364D01*
X0300765Y0130829D02*
X0300765Y0133898D01*
X0300765Y0130829D02*
X0296161Y0130829D01*
X0292734Y0133782D02*
X0292734Y0136851D01*
X0290432Y0135317D02*
X0290432Y0133782D01*
X0291199Y0132247D02*
X0288130Y0132247D01*
X0288130Y0133782D02*
X0292734Y0133782D01*
X0296928Y0126225D02*
X0299230Y0126225D01*
X0279856Y0109534D02*
X0279856Y0105206D01*
X0276970Y0105206D01*
X0275505Y0105206D02*
X0272620Y0105206D01*
X0274063Y0105206D02*
X0274063Y0109534D01*
X0275505Y0108092D01*
X0271155Y0108813D02*
X0271155Y0105928D01*
X0268270Y0108813D01*
X0268270Y0105928D01*
X0268991Y0105206D01*
X0270434Y0105206D01*
X0271155Y0105928D01*
X0271155Y0108813D02*
X0270434Y0109534D01*
X0268991Y0109534D01*
X0268270Y0108813D01*
X0266805Y0108813D02*
X0266805Y0105928D01*
X0263920Y0108813D01*
X0263920Y0105928D01*
X0264641Y0105206D01*
X0266084Y0105206D01*
X0266805Y0105928D01*
X0266805Y0108813D02*
X0266084Y0109534D01*
X0264641Y0109534D01*
X0263920Y0108813D01*
X0250372Y0137687D02*
X0251907Y0139221D01*
X0247303Y0139221D01*
X0247303Y0137687D02*
X0247303Y0140756D01*
X0248070Y0142291D02*
X0247303Y0143058D01*
X0247303Y0144593D01*
X0248070Y0145360D01*
X0251139Y0145360D01*
X0248070Y0142291D01*
X0251139Y0142291D01*
X0251907Y0143058D01*
X0251907Y0144593D01*
X0251139Y0145360D01*
X0250372Y0146895D02*
X0248070Y0146895D01*
X0247303Y0147662D01*
X0247303Y0149964D01*
X0250372Y0149964D01*
X0249605Y0151498D02*
X0249605Y0153033D01*
X0251907Y0151498D02*
X0251907Y0154568D01*
X0254429Y0155086D02*
X0254429Y0158155D01*
X0254429Y0156620D02*
X0259033Y0156620D01*
X0257498Y0155086D01*
X0258265Y0153551D02*
X0259033Y0152784D01*
X0259033Y0151249D01*
X0258265Y0150482D01*
X0255196Y0150482D01*
X0254429Y0151249D01*
X0254429Y0152784D01*
X0255196Y0153551D01*
X0251907Y0151498D02*
X0247303Y0151498D01*
X0255196Y0159690D02*
X0258265Y0162759D01*
X0255196Y0162759D01*
X0254429Y0161992D01*
X0254429Y0160457D01*
X0255196Y0159690D01*
X0258265Y0159690D01*
X0259033Y0160457D01*
X0259033Y0161992D01*
X0258265Y0162759D01*
X0256731Y0164294D02*
X0256731Y0167363D01*
X0254429Y0166596D02*
X0259033Y0166596D01*
X0256731Y0164294D01*
X0264352Y0158413D02*
X0266654Y0156111D01*
X0263585Y0156111D01*
X0264352Y0153809D02*
X0264352Y0158413D01*
X0268189Y0157645D02*
X0271258Y0154576D01*
X0270491Y0153809D01*
X0268956Y0153809D01*
X0268189Y0154576D01*
X0268189Y0157645D01*
X0268956Y0158413D01*
X0270491Y0158413D01*
X0271258Y0157645D01*
X0271258Y0154576D01*
X0272793Y0153809D02*
X0275862Y0153809D01*
X0277397Y0153809D02*
X0278931Y0155343D01*
X0278164Y0155343D02*
X0280466Y0155343D01*
X0280466Y0153809D02*
X0280466Y0158413D01*
X0278164Y0158413D01*
X0277397Y0157645D01*
X0277397Y0156111D01*
X0278164Y0155343D01*
X0275862Y0156878D02*
X0274327Y0158413D01*
X0274327Y0153809D01*
X0273890Y0160029D02*
X0273890Y0164633D01*
X0275425Y0163098D01*
X0276960Y0164633D01*
X0276960Y0160029D01*
X0278494Y0160029D02*
X0281563Y0160029D01*
X0280029Y0160029D02*
X0280029Y0164633D01*
X0281563Y0163098D01*
X0287382Y0161992D02*
X0287382Y0160457D01*
X0288149Y0159690D01*
X0291218Y0162759D01*
X0288149Y0162759D01*
X0287382Y0161992D01*
X0288149Y0159690D02*
X0291218Y0159690D01*
X0291986Y0160457D01*
X0291986Y0161992D01*
X0291218Y0162759D01*
X0291218Y0164294D02*
X0291986Y0165061D01*
X0291986Y0166596D01*
X0291218Y0167363D01*
X0290451Y0167363D01*
X0289684Y0166596D01*
X0288916Y0167363D01*
X0288149Y0167363D01*
X0287382Y0166596D01*
X0287382Y0165061D01*
X0288149Y0164294D01*
X0289684Y0165828D02*
X0289684Y0166596D01*
X0295413Y0167363D02*
X0295413Y0164294D01*
X0298482Y0167363D01*
X0299250Y0167363D01*
X0300017Y0166596D01*
X0300017Y0165061D01*
X0299250Y0164294D01*
X0299250Y0162759D02*
X0296180Y0162759D01*
X0295413Y0161992D01*
X0295413Y0160457D01*
X0296180Y0159690D01*
X0299250Y0162759D01*
X0300017Y0161992D01*
X0300017Y0160457D01*
X0299250Y0159690D01*
X0296180Y0159690D01*
X0295413Y0158155D02*
X0295413Y0155086D01*
X0295413Y0156620D02*
X0300017Y0156620D01*
X0298482Y0155086D01*
X0299250Y0153551D02*
X0300017Y0152784D01*
X0300017Y0151249D01*
X0299250Y0150482D01*
X0296180Y0150482D01*
X0295413Y0151249D01*
X0295413Y0152784D01*
X0296180Y0153551D01*
X0291986Y0152784D02*
X0291986Y0151249D01*
X0291218Y0150482D01*
X0288149Y0150482D01*
X0287382Y0151249D01*
X0287382Y0152784D01*
X0288149Y0153551D01*
X0287382Y0155086D02*
X0287382Y0158155D01*
X0287382Y0156620D02*
X0291986Y0156620D01*
X0290451Y0155086D01*
X0291218Y0153551D02*
X0291986Y0152784D01*
X0095845Y0106917D02*
X0095845Y0102313D01*
X0093543Y0102313D01*
X0092776Y0103080D01*
X0092776Y0103847D01*
X0093543Y0104615D01*
X0095845Y0104615D01*
X0095845Y0106917D02*
X0093543Y0106917D01*
X0092776Y0106149D01*
X0092776Y0105382D01*
X0093543Y0104615D01*
X0091241Y0105382D02*
X0091241Y0106149D01*
X0090474Y0106917D01*
X0088939Y0106917D01*
X0088172Y0106149D01*
X0086637Y0106149D02*
X0086637Y0105382D01*
X0085870Y0104615D01*
X0084336Y0104615D01*
X0083568Y0103847D01*
X0083568Y0103080D01*
X0084336Y0102313D01*
X0085870Y0102313D01*
X0086637Y0103080D01*
X0088172Y0103080D02*
X0088939Y0102313D01*
X0090474Y0102313D01*
X0091241Y0103080D01*
X0090474Y0104615D02*
X0088939Y0104615D01*
X0088172Y0103847D01*
X0088172Y0103080D01*
X0090474Y0104615D02*
X0091241Y0105382D01*
X0086637Y0106149D02*
X0085870Y0106917D01*
X0084336Y0106917D01*
X0083568Y0106149D01*
X0082034Y0105382D02*
X0080499Y0106917D01*
X0080499Y0102313D01*
X0082034Y0102313D02*
X0078964Y0102313D01*
X0077430Y0102313D02*
X0074360Y0105382D01*
X0074360Y0106149D01*
X0075128Y0106917D01*
X0076662Y0106917D01*
X0077430Y0106149D01*
X0076662Y0109872D02*
X0075128Y0109872D01*
X0074360Y0110639D01*
X0074360Y0113708D01*
X0077430Y0110639D01*
X0076662Y0109872D01*
X0077430Y0110639D02*
X0077430Y0113708D01*
X0076662Y0114476D01*
X0075128Y0114476D01*
X0074360Y0113708D01*
X0072826Y0113708D02*
X0072058Y0114476D01*
X0070524Y0114476D01*
X0069756Y0113708D01*
X0072826Y0110639D01*
X0072058Y0109872D01*
X0070524Y0109872D01*
X0069756Y0110639D01*
X0069756Y0113708D01*
X0072826Y0113708D02*
X0072826Y0110639D01*
X0078964Y0109872D02*
X0082034Y0109872D01*
X0083568Y0109872D02*
X0085103Y0111406D01*
X0085870Y0109872D02*
X0086637Y0110639D01*
X0086637Y0113708D01*
X0085870Y0114476D01*
X0084336Y0114476D01*
X0083568Y0113708D01*
X0083568Y0110639D01*
X0084336Y0109872D01*
X0085870Y0109872D01*
X0080499Y0109872D02*
X0080499Y0114476D01*
X0082034Y0112941D01*
X0072826Y0106149D02*
X0072058Y0106917D01*
X0070524Y0106917D01*
X0069756Y0106149D01*
X0069756Y0105382D01*
X0070524Y0104615D01*
X0069756Y0103847D01*
X0069756Y0103080D01*
X0070524Y0102313D01*
X0072058Y0102313D01*
X0072826Y0103080D01*
X0074360Y0102313D02*
X0077430Y0102313D01*
X0071291Y0104615D02*
X0070524Y0104615D01*
X0069442Y0093806D02*
X0067140Y0093806D01*
X0066373Y0093039D01*
X0066373Y0091504D01*
X0067140Y0090737D01*
X0069442Y0090737D01*
X0067908Y0090737D02*
X0066373Y0089202D01*
X0064838Y0089202D02*
X0061769Y0089202D01*
X0063304Y0089202D02*
X0063304Y0093806D01*
X0064838Y0092272D01*
X0060234Y0093039D02*
X0060234Y0089970D01*
X0057165Y0093039D01*
X0057165Y0089970D01*
X0057932Y0089202D01*
X0059467Y0089202D01*
X0060234Y0089970D01*
X0055630Y0089970D02*
X0052561Y0093039D01*
X0052561Y0089970D01*
X0053328Y0089202D01*
X0054863Y0089202D01*
X0055630Y0089970D01*
X0055630Y0093039D01*
X0054863Y0093806D01*
X0053328Y0093806D01*
X0052561Y0093039D01*
X0051096Y0094082D02*
X0048794Y0094082D01*
X0048026Y0093315D01*
X0048026Y0091780D01*
X0048794Y0091013D01*
X0051096Y0091013D01*
X0049561Y0091013D02*
X0048026Y0089478D01*
X0046492Y0089478D02*
X0043423Y0089478D01*
X0044957Y0089478D02*
X0044957Y0094082D01*
X0046492Y0092547D01*
X0041888Y0093315D02*
X0041888Y0090245D01*
X0038819Y0093315D01*
X0038819Y0090245D01*
X0039586Y0089478D01*
X0041121Y0089478D01*
X0041888Y0090245D01*
X0041888Y0093315D02*
X0041121Y0094082D01*
X0039586Y0094082D01*
X0038819Y0093315D01*
X0037284Y0092547D02*
X0035749Y0094082D01*
X0035749Y0089478D01*
X0034215Y0089478D02*
X0037284Y0089478D01*
X0037323Y0097598D02*
X0041926Y0097598D01*
X0041926Y0099900D01*
X0041159Y0100667D01*
X0039624Y0100667D01*
X0038857Y0099900D01*
X0038857Y0097598D01*
X0038857Y0099132D02*
X0037323Y0100667D01*
X0037323Y0102202D02*
X0037323Y0105271D01*
X0037323Y0103736D02*
X0041926Y0103736D01*
X0040392Y0102202D01*
X0041159Y0106806D02*
X0041926Y0107573D01*
X0041926Y0109107D01*
X0041159Y0109875D01*
X0038090Y0106806D01*
X0037323Y0107573D01*
X0037323Y0109107D01*
X0038090Y0109875D01*
X0041159Y0109875D01*
X0041159Y0111409D02*
X0041926Y0112177D01*
X0041926Y0113711D01*
X0041159Y0114479D01*
X0040392Y0114479D01*
X0037323Y0111409D01*
X0037323Y0114479D01*
X0036178Y0114479D02*
X0031574Y0114479D01*
X0031574Y0111409D02*
X0036178Y0111409D01*
X0034644Y0112944D01*
X0036178Y0114479D01*
X0036178Y0108340D02*
X0031574Y0108340D01*
X0031574Y0106806D02*
X0031574Y0109875D01*
X0034644Y0106806D02*
X0036178Y0108340D01*
X0038090Y0106806D02*
X0041159Y0106806D01*
X0051096Y0094082D02*
X0051096Y0089478D01*
X0057165Y0093039D02*
X0057932Y0093806D01*
X0059467Y0093806D01*
X0060234Y0093039D01*
X0069442Y0093806D02*
X0069442Y0089202D01*
X0047320Y0077472D02*
X0042716Y0077472D01*
X0042716Y0079006D02*
X0042716Y0075937D01*
X0043484Y0074402D02*
X0042716Y0073635D01*
X0042716Y0072100D01*
X0043484Y0071333D01*
X0046553Y0074402D01*
X0043484Y0074402D01*
X0045786Y0075937D02*
X0047320Y0077472D01*
X0046553Y0074402D02*
X0047320Y0073635D01*
X0047320Y0072100D01*
X0046553Y0071333D01*
X0043484Y0071333D01*
X0042716Y0069798D02*
X0042716Y0066729D01*
X0042716Y0068264D02*
X0047320Y0068264D01*
X0045786Y0066729D01*
X0046553Y0065195D02*
X0047320Y0064427D01*
X0047320Y0062893D01*
X0046553Y0062125D01*
X0043484Y0062125D01*
X0042716Y0062893D01*
X0042716Y0064427D01*
X0043484Y0065195D01*
X0040588Y0068264D02*
X0035984Y0068264D01*
X0035984Y0069798D02*
X0035984Y0066729D01*
X0039053Y0066729D02*
X0040588Y0068264D01*
X0039053Y0071333D02*
X0036751Y0071333D01*
X0035984Y0072100D01*
X0035984Y0074402D01*
X0039053Y0074402D01*
X0038286Y0075937D02*
X0038286Y0077472D01*
X0040588Y0075937D02*
X0040588Y0079006D01*
X0040588Y0075937D02*
X0035984Y0075937D01*
X0050669Y0066724D02*
X0055273Y0066724D01*
X0055273Y0069794D01*
X0057401Y0069026D02*
X0058169Y0069794D01*
X0061238Y0069794D01*
X0058169Y0066724D01*
X0057401Y0067492D01*
X0057401Y0069026D01*
X0058169Y0066724D02*
X0061238Y0066724D01*
X0062005Y0067492D01*
X0062005Y0069026D01*
X0061238Y0069794D01*
X0061238Y0065190D02*
X0058169Y0065190D01*
X0057401Y0064422D01*
X0057401Y0062888D01*
X0058169Y0062120D01*
X0061238Y0065190D01*
X0062005Y0064422D01*
X0062005Y0062888D01*
X0061238Y0062120D01*
X0058169Y0062120D01*
X0057401Y0060586D02*
X0057401Y0057517D01*
X0057401Y0059051D02*
X0062005Y0059051D01*
X0060471Y0057517D01*
X0061238Y0055982D02*
X0062005Y0055215D01*
X0062005Y0053680D01*
X0061238Y0052913D01*
X0058169Y0052913D01*
X0057401Y0053680D01*
X0057401Y0055215D01*
X0058169Y0055982D01*
X0055273Y0055215D02*
X0054506Y0055982D01*
X0051436Y0052913D01*
X0050669Y0053680D01*
X0050669Y0055215D01*
X0051436Y0055982D01*
X0054506Y0055982D01*
X0055273Y0055215D02*
X0055273Y0053680D01*
X0054506Y0052913D01*
X0051436Y0052913D01*
X0050669Y0051378D02*
X0050669Y0048309D01*
X0050669Y0049843D02*
X0055273Y0049843D01*
X0053738Y0048309D01*
X0054506Y0057517D02*
X0051436Y0057517D01*
X0054506Y0060586D01*
X0051436Y0060586D01*
X0050669Y0059819D01*
X0050669Y0058284D01*
X0051436Y0057517D01*
X0054506Y0057517D02*
X0055273Y0058284D01*
X0055273Y0059819D01*
X0054506Y0060586D01*
X0053738Y0062120D02*
X0053738Y0064422D01*
X0052971Y0065190D01*
X0050669Y0065190D01*
X0052971Y0066724D02*
X0052971Y0068259D01*
X0053738Y0062120D02*
X0050669Y0062120D01*
X0050102Y0126565D02*
X0050102Y0131169D01*
X0047800Y0131169D01*
X0047033Y0130401D01*
X0047033Y0128867D01*
X0047800Y0128099D01*
X0050102Y0128099D01*
X0048567Y0128099D02*
X0047033Y0126565D01*
X0045498Y0126565D02*
X0042429Y0126565D01*
X0043963Y0126565D02*
X0043963Y0131169D01*
X0045498Y0129634D01*
X0040894Y0130401D02*
X0040894Y0127332D01*
X0037825Y0130401D01*
X0037825Y0127332D01*
X0038592Y0126565D01*
X0040127Y0126565D01*
X0040894Y0127332D01*
X0036290Y0127332D02*
X0035523Y0126565D01*
X0033988Y0126565D01*
X0033221Y0127332D01*
X0033221Y0128099D01*
X0033988Y0128867D01*
X0034756Y0128867D01*
X0033988Y0128867D02*
X0033221Y0129634D01*
X0033221Y0130401D01*
X0033988Y0131169D01*
X0035523Y0131169D01*
X0036290Y0130401D01*
X0037825Y0130401D02*
X0038592Y0131169D01*
X0040127Y0131169D01*
X0040894Y0130401D01*
X0051922Y0131326D02*
X0051922Y0126722D01*
X0054991Y0126722D02*
X0054991Y0131326D01*
X0053456Y0129791D01*
X0051922Y0131326D01*
X0058060Y0131326D02*
X0058060Y0126722D01*
X0056526Y0126722D02*
X0059595Y0126722D01*
X0059595Y0129791D02*
X0058060Y0131326D01*
D116*
X0280580Y0135979D02*
X0280580Y0137547D01*
X0281364Y0138331D01*
X0285284Y0138331D01*
X0283716Y0139799D02*
X0285284Y0141367D01*
X0280580Y0141367D01*
X0280580Y0139799D02*
X0280580Y0142935D01*
X0281364Y0144403D02*
X0284500Y0147539D01*
X0281364Y0147539D01*
X0280580Y0146755D01*
X0280580Y0145187D01*
X0281364Y0144403D01*
X0284500Y0144403D01*
X0285284Y0145187D01*
X0285284Y0146755D01*
X0284500Y0147539D01*
X0284500Y0149007D02*
X0285284Y0149791D01*
X0285284Y0151359D01*
X0284500Y0152143D01*
X0281364Y0149007D01*
X0280580Y0149791D01*
X0280580Y0151359D01*
X0281364Y0152143D01*
X0284500Y0152143D01*
X0284500Y0149007D02*
X0281364Y0149007D01*
X0280580Y0135979D02*
X0281364Y0135195D01*
X0285284Y0135195D01*
D117*
X0280403Y0128818D02*
X0280403Y0112218D01*
X0263803Y0112218D01*
X0263803Y0128818D01*
X0280403Y0128818D01*
M02*
