%
M48
M72
T01C0.00787
T02C0.01000
T03C0.01181
T04C0.01200
T05C0.04000
T06C0.12598
%
T01
X263087Y49790
X263087Y53727
X267024Y53727
X267024Y49790
X267024Y57664
X263087Y57664
T02
X82876Y78839
X79676Y78839
X79676Y82039
X82876Y82039
T03
X92063Y84337
X79268Y91227
X71394Y92211
X70410Y84337
X67457Y81384
X64504Y78432
X50725Y73510
X35961Y82369
X40882Y84337
X46788Y84337
X65489Y67605
X70410Y67605
X74347Y67605
X103874Y76463
X112733Y76463
X119623Y84337
X124544Y84337
X129465Y84337
X154071Y73510
X151119Y67605
X164898Y65636
X172772Y61699
X195410Y65636
X199347Y64652
X210174Y67605
X223953Y67605
X214111Y83353
X226906Y88274
X225103Y94487
X229103Y94487
X227103Y97487
X229103Y100487
X213126Y102054
X202300Y110912
X202300Y116817
X200331Y122723
X175725Y116817
X163914Y130597
X165882Y134534
X165882Y138471
X185567Y147329
X194426Y147329
X200331Y147329
X215095Y144376
X226906Y144376
X250528Y157172
X261355Y166030
X267260Y166030
X284977Y154219
X290882Y170951
X290882Y175872
X290882Y180794
X282024Y186699
X265292Y193589
X249544Y181778
X238717Y181778
X228874Y181778
X219032Y181778
X209189Y181778
X195410Y181778
X193441Y186699
X187536Y182762
X165882Y167014
X156040Y166298
X165882Y151266
X136355Y138471
X132418Y141424
X127497Y141424
X113717Y138471
X100922Y125676
X88126Y134534
X62536Y134534
X50725Y138471
X35961Y135518
X35961Y120754
X43835Y108943
X56630Y119770
X119623Y108943
X123560Y112880
X124544Y105991
X129465Y104022
X140292Y115833
X157024Y112880
X197378Y95164
X188520Y86306
X148166Y54809
X137339Y54809
X239701Y29219
X244623Y29219
X266276Y29219
X266276Y39061
X271197Y39061
X276119Y39061
X265292Y69573
X266276Y75479
X246591Y84337
X280056Y89258
X285961Y89258
X291867Y89258
X297772Y89258
X299741Y113865
X294819Y113865
X289898Y113865
X283993Y113865
X259386Y113865
X255449Y113865
X238717Y116817
X256434Y132565
X297772Y133550
X311552Y170951
X311552Y175872
X311552Y180794
X321394Y186699
X332221Y180794
X332221Y175872
X332221Y170951
X301709Y186699
X161945Y198510
X161540Y193298
X141540Y189798
X136040Y185298
X129465Y191621
X126512Y188668
X132418Y194573
X107812Y183746
X105843Y186699
X71103Y183487
X66473Y183746
T04
X225103Y100487
T05
X37103Y32487
X37103Y42487
X79465Y125802
X89465Y125802
X38756Y186660
X38756Y196660
X57103Y192487
X67103Y192487
X77103Y192487
X87103Y192487
X87103Y202487
X77103Y202487
X67103Y202487
X57103Y202487
X181040Y37487
X181040Y27487
X322103Y77487
X332103Y77487
X332103Y87487
X322103Y87487
X322103Y97487
X332103Y97487
X332103Y107487
X322103Y107487
X322103Y117487
X332103Y117487
X332103Y127487
X322103Y127487
X322103Y137487
X332103Y137487
X332103Y147487
X322103Y147487
T06
X326315Y28235
X125528Y166030
M30
