G75*
%MOIN*%
%OFA0B0*%
%FSLAX25Y25*%
%IPPOS*%
%LPD*%
%AMOC8*
5,1,8,0,0,1.08239X$1,22.5*
%
%ADD10C,0.01378*%
%ADD11C,0.35433*%
%ADD12R,0.11811X0.15748*%
%ADD13R,0.07874X0.05709*%
%ADD14R,0.05906X0.03150*%
%ADD15R,0.03937X0.04331*%
D10*
X0080920Y0090920D02*
X0093322Y0090920D01*
X0080920Y0090920D02*
X0080920Y0103322D01*
X0093322Y0103322D01*
X0093322Y0090920D01*
X0093322Y0092297D02*
X0080920Y0092297D01*
X0080920Y0093674D02*
X0093322Y0093674D01*
X0093322Y0095051D02*
X0080920Y0095051D01*
X0080920Y0096428D02*
X0093322Y0096428D01*
X0093322Y0097805D02*
X0080920Y0097805D01*
X0080920Y0099182D02*
X0093322Y0099182D01*
X0093322Y0100559D02*
X0080920Y0100559D01*
X0080920Y0101936D02*
X0093322Y0101936D01*
X0093322Y0103313D02*
X0080920Y0103313D01*
X0221078Y0090920D02*
X0233480Y0090920D01*
X0221078Y0090920D02*
X0221078Y0103322D01*
X0233480Y0103322D01*
X0233480Y0090920D01*
X0233480Y0092297D02*
X0221078Y0092297D01*
X0221078Y0093674D02*
X0233480Y0093674D01*
X0233480Y0095051D02*
X0221078Y0095051D01*
X0221078Y0096428D02*
X0233480Y0096428D01*
X0233480Y0097805D02*
X0221078Y0097805D01*
X0221078Y0099182D02*
X0233480Y0099182D01*
X0233480Y0100559D02*
X0221078Y0100559D01*
X0221078Y0101936D02*
X0233480Y0101936D01*
X0233480Y0103313D02*
X0221078Y0103313D01*
X0221078Y0231078D02*
X0233480Y0231078D01*
X0221078Y0231078D02*
X0221078Y0243480D01*
X0233480Y0243480D01*
X0233480Y0231078D01*
X0233480Y0232455D02*
X0221078Y0232455D01*
X0221078Y0233832D02*
X0233480Y0233832D01*
X0233480Y0235209D02*
X0221078Y0235209D01*
X0221078Y0236586D02*
X0233480Y0236586D01*
X0233480Y0237963D02*
X0221078Y0237963D01*
X0221078Y0239340D02*
X0233480Y0239340D01*
X0233480Y0240717D02*
X0221078Y0240717D01*
X0221078Y0242094D02*
X0233480Y0242094D01*
X0233480Y0243471D02*
X0221078Y0243471D01*
X0093322Y0231078D02*
X0080920Y0231078D01*
X0080920Y0243480D01*
X0093322Y0243480D01*
X0093322Y0231078D01*
X0093322Y0232455D02*
X0080920Y0232455D01*
X0080920Y0233832D02*
X0093322Y0233832D01*
X0093322Y0235209D02*
X0080920Y0235209D01*
X0080920Y0236586D02*
X0093322Y0236586D01*
X0093322Y0237963D02*
X0080920Y0237963D01*
X0080920Y0239340D02*
X0093322Y0239340D01*
X0093322Y0240717D02*
X0080920Y0240717D01*
X0080920Y0242094D02*
X0093322Y0242094D01*
X0093322Y0243471D02*
X0080920Y0243471D01*
D11*
X0272200Y0277200D03*
D12*
X0301728Y0277200D03*
X0242672Y0277200D03*
D13*
X0277200Y0087200D03*
X0309877Y0087200D03*
X0309877Y0033066D03*
X0277200Y0033066D03*
D14*
X0287436Y0047515D03*
X0287436Y0051846D03*
X0287436Y0056176D03*
X0287436Y0060507D03*
X0287436Y0064838D03*
X0287436Y0069169D03*
X0287436Y0073499D03*
X0287436Y0077830D03*
D15*
X0257200Y0098854D03*
X0257200Y0105546D03*
X0057200Y0236354D03*
X0057200Y0243046D03*
M02*
