G75*
%MOIN*%
%OFA0B0*%
%FSLAX25Y25*%
%IPPOS*%
%LPD*%
%AMOC8*
5,1,8,0,0,1.08239X$1,22.5*
%
%ADD10C,0.00000*%
%ADD11C,0.06000*%
%ADD12OC8,0.06000*%
%ADD13C,0.01378*%
%ADD14C,0.03969*%
%ADD15C,0.35433*%
%ADD16R,0.11811X0.15748*%
%ADD17R,0.07874X0.05709*%
%ADD18R,0.05906X0.03150*%
%ADD19R,0.03937X0.04331*%
%ADD20C,0.01000*%
%ADD21C,0.03962*%
%ADD22C,0.02400*%
%ADD23C,0.01600*%
%ADD24C,0.04000*%
%ADD25C,0.03200*%
D10*
X0002200Y0007200D02*
X0002200Y0302161D01*
X0395901Y0302161D01*
X0395901Y0007200D01*
X0002200Y0007200D01*
X0016294Y0282200D02*
X0016296Y0282353D01*
X0016302Y0282507D01*
X0016312Y0282660D01*
X0016326Y0282812D01*
X0016344Y0282965D01*
X0016366Y0283116D01*
X0016391Y0283267D01*
X0016421Y0283418D01*
X0016455Y0283568D01*
X0016492Y0283716D01*
X0016533Y0283864D01*
X0016578Y0284010D01*
X0016627Y0284156D01*
X0016680Y0284300D01*
X0016736Y0284442D01*
X0016796Y0284583D01*
X0016860Y0284723D01*
X0016927Y0284861D01*
X0016998Y0284997D01*
X0017073Y0285131D01*
X0017150Y0285263D01*
X0017232Y0285393D01*
X0017316Y0285521D01*
X0017404Y0285647D01*
X0017495Y0285770D01*
X0017589Y0285891D01*
X0017687Y0286009D01*
X0017787Y0286125D01*
X0017891Y0286238D01*
X0017997Y0286349D01*
X0018106Y0286457D01*
X0018218Y0286562D01*
X0018332Y0286663D01*
X0018450Y0286762D01*
X0018569Y0286858D01*
X0018691Y0286951D01*
X0018816Y0287040D01*
X0018943Y0287127D01*
X0019072Y0287209D01*
X0019203Y0287289D01*
X0019336Y0287365D01*
X0019471Y0287438D01*
X0019608Y0287507D01*
X0019747Y0287572D01*
X0019887Y0287634D01*
X0020029Y0287692D01*
X0020172Y0287747D01*
X0020317Y0287798D01*
X0020463Y0287845D01*
X0020610Y0287888D01*
X0020758Y0287927D01*
X0020907Y0287963D01*
X0021057Y0287994D01*
X0021208Y0288022D01*
X0021359Y0288046D01*
X0021512Y0288066D01*
X0021664Y0288082D01*
X0021817Y0288094D01*
X0021970Y0288102D01*
X0022123Y0288106D01*
X0022277Y0288106D01*
X0022430Y0288102D01*
X0022583Y0288094D01*
X0022736Y0288082D01*
X0022888Y0288066D01*
X0023041Y0288046D01*
X0023192Y0288022D01*
X0023343Y0287994D01*
X0023493Y0287963D01*
X0023642Y0287927D01*
X0023790Y0287888D01*
X0023937Y0287845D01*
X0024083Y0287798D01*
X0024228Y0287747D01*
X0024371Y0287692D01*
X0024513Y0287634D01*
X0024653Y0287572D01*
X0024792Y0287507D01*
X0024929Y0287438D01*
X0025064Y0287365D01*
X0025197Y0287289D01*
X0025328Y0287209D01*
X0025457Y0287127D01*
X0025584Y0287040D01*
X0025709Y0286951D01*
X0025831Y0286858D01*
X0025950Y0286762D01*
X0026068Y0286663D01*
X0026182Y0286562D01*
X0026294Y0286457D01*
X0026403Y0286349D01*
X0026509Y0286238D01*
X0026613Y0286125D01*
X0026713Y0286009D01*
X0026811Y0285891D01*
X0026905Y0285770D01*
X0026996Y0285647D01*
X0027084Y0285521D01*
X0027168Y0285393D01*
X0027250Y0285263D01*
X0027327Y0285131D01*
X0027402Y0284997D01*
X0027473Y0284861D01*
X0027540Y0284723D01*
X0027604Y0284583D01*
X0027664Y0284442D01*
X0027720Y0284300D01*
X0027773Y0284156D01*
X0027822Y0284010D01*
X0027867Y0283864D01*
X0027908Y0283716D01*
X0027945Y0283568D01*
X0027979Y0283418D01*
X0028009Y0283267D01*
X0028034Y0283116D01*
X0028056Y0282965D01*
X0028074Y0282812D01*
X0028088Y0282660D01*
X0028098Y0282507D01*
X0028104Y0282353D01*
X0028106Y0282200D01*
X0028104Y0282047D01*
X0028098Y0281893D01*
X0028088Y0281740D01*
X0028074Y0281588D01*
X0028056Y0281435D01*
X0028034Y0281284D01*
X0028009Y0281133D01*
X0027979Y0280982D01*
X0027945Y0280832D01*
X0027908Y0280684D01*
X0027867Y0280536D01*
X0027822Y0280390D01*
X0027773Y0280244D01*
X0027720Y0280100D01*
X0027664Y0279958D01*
X0027604Y0279817D01*
X0027540Y0279677D01*
X0027473Y0279539D01*
X0027402Y0279403D01*
X0027327Y0279269D01*
X0027250Y0279137D01*
X0027168Y0279007D01*
X0027084Y0278879D01*
X0026996Y0278753D01*
X0026905Y0278630D01*
X0026811Y0278509D01*
X0026713Y0278391D01*
X0026613Y0278275D01*
X0026509Y0278162D01*
X0026403Y0278051D01*
X0026294Y0277943D01*
X0026182Y0277838D01*
X0026068Y0277737D01*
X0025950Y0277638D01*
X0025831Y0277542D01*
X0025709Y0277449D01*
X0025584Y0277360D01*
X0025457Y0277273D01*
X0025328Y0277191D01*
X0025197Y0277111D01*
X0025064Y0277035D01*
X0024929Y0276962D01*
X0024792Y0276893D01*
X0024653Y0276828D01*
X0024513Y0276766D01*
X0024371Y0276708D01*
X0024228Y0276653D01*
X0024083Y0276602D01*
X0023937Y0276555D01*
X0023790Y0276512D01*
X0023642Y0276473D01*
X0023493Y0276437D01*
X0023343Y0276406D01*
X0023192Y0276378D01*
X0023041Y0276354D01*
X0022888Y0276334D01*
X0022736Y0276318D01*
X0022583Y0276306D01*
X0022430Y0276298D01*
X0022277Y0276294D01*
X0022123Y0276294D01*
X0021970Y0276298D01*
X0021817Y0276306D01*
X0021664Y0276318D01*
X0021512Y0276334D01*
X0021359Y0276354D01*
X0021208Y0276378D01*
X0021057Y0276406D01*
X0020907Y0276437D01*
X0020758Y0276473D01*
X0020610Y0276512D01*
X0020463Y0276555D01*
X0020317Y0276602D01*
X0020172Y0276653D01*
X0020029Y0276708D01*
X0019887Y0276766D01*
X0019747Y0276828D01*
X0019608Y0276893D01*
X0019471Y0276962D01*
X0019336Y0277035D01*
X0019203Y0277111D01*
X0019072Y0277191D01*
X0018943Y0277273D01*
X0018816Y0277360D01*
X0018691Y0277449D01*
X0018569Y0277542D01*
X0018450Y0277638D01*
X0018332Y0277737D01*
X0018218Y0277838D01*
X0018106Y0277943D01*
X0017997Y0278051D01*
X0017891Y0278162D01*
X0017787Y0278275D01*
X0017687Y0278391D01*
X0017589Y0278509D01*
X0017495Y0278630D01*
X0017404Y0278753D01*
X0017316Y0278879D01*
X0017232Y0279007D01*
X0017150Y0279137D01*
X0017073Y0279269D01*
X0016998Y0279403D01*
X0016927Y0279539D01*
X0016860Y0279677D01*
X0016796Y0279817D01*
X0016736Y0279958D01*
X0016680Y0280100D01*
X0016627Y0280244D01*
X0016578Y0280390D01*
X0016533Y0280536D01*
X0016492Y0280684D01*
X0016455Y0280832D01*
X0016421Y0280982D01*
X0016391Y0281133D01*
X0016366Y0281284D01*
X0016344Y0281435D01*
X0016326Y0281588D01*
X0016312Y0281740D01*
X0016302Y0281893D01*
X0016296Y0282047D01*
X0016294Y0282200D01*
X0366294Y0282200D02*
X0366296Y0282353D01*
X0366302Y0282507D01*
X0366312Y0282660D01*
X0366326Y0282812D01*
X0366344Y0282965D01*
X0366366Y0283116D01*
X0366391Y0283267D01*
X0366421Y0283418D01*
X0366455Y0283568D01*
X0366492Y0283716D01*
X0366533Y0283864D01*
X0366578Y0284010D01*
X0366627Y0284156D01*
X0366680Y0284300D01*
X0366736Y0284442D01*
X0366796Y0284583D01*
X0366860Y0284723D01*
X0366927Y0284861D01*
X0366998Y0284997D01*
X0367073Y0285131D01*
X0367150Y0285263D01*
X0367232Y0285393D01*
X0367316Y0285521D01*
X0367404Y0285647D01*
X0367495Y0285770D01*
X0367589Y0285891D01*
X0367687Y0286009D01*
X0367787Y0286125D01*
X0367891Y0286238D01*
X0367997Y0286349D01*
X0368106Y0286457D01*
X0368218Y0286562D01*
X0368332Y0286663D01*
X0368450Y0286762D01*
X0368569Y0286858D01*
X0368691Y0286951D01*
X0368816Y0287040D01*
X0368943Y0287127D01*
X0369072Y0287209D01*
X0369203Y0287289D01*
X0369336Y0287365D01*
X0369471Y0287438D01*
X0369608Y0287507D01*
X0369747Y0287572D01*
X0369887Y0287634D01*
X0370029Y0287692D01*
X0370172Y0287747D01*
X0370317Y0287798D01*
X0370463Y0287845D01*
X0370610Y0287888D01*
X0370758Y0287927D01*
X0370907Y0287963D01*
X0371057Y0287994D01*
X0371208Y0288022D01*
X0371359Y0288046D01*
X0371512Y0288066D01*
X0371664Y0288082D01*
X0371817Y0288094D01*
X0371970Y0288102D01*
X0372123Y0288106D01*
X0372277Y0288106D01*
X0372430Y0288102D01*
X0372583Y0288094D01*
X0372736Y0288082D01*
X0372888Y0288066D01*
X0373041Y0288046D01*
X0373192Y0288022D01*
X0373343Y0287994D01*
X0373493Y0287963D01*
X0373642Y0287927D01*
X0373790Y0287888D01*
X0373937Y0287845D01*
X0374083Y0287798D01*
X0374228Y0287747D01*
X0374371Y0287692D01*
X0374513Y0287634D01*
X0374653Y0287572D01*
X0374792Y0287507D01*
X0374929Y0287438D01*
X0375064Y0287365D01*
X0375197Y0287289D01*
X0375328Y0287209D01*
X0375457Y0287127D01*
X0375584Y0287040D01*
X0375709Y0286951D01*
X0375831Y0286858D01*
X0375950Y0286762D01*
X0376068Y0286663D01*
X0376182Y0286562D01*
X0376294Y0286457D01*
X0376403Y0286349D01*
X0376509Y0286238D01*
X0376613Y0286125D01*
X0376713Y0286009D01*
X0376811Y0285891D01*
X0376905Y0285770D01*
X0376996Y0285647D01*
X0377084Y0285521D01*
X0377168Y0285393D01*
X0377250Y0285263D01*
X0377327Y0285131D01*
X0377402Y0284997D01*
X0377473Y0284861D01*
X0377540Y0284723D01*
X0377604Y0284583D01*
X0377664Y0284442D01*
X0377720Y0284300D01*
X0377773Y0284156D01*
X0377822Y0284010D01*
X0377867Y0283864D01*
X0377908Y0283716D01*
X0377945Y0283568D01*
X0377979Y0283418D01*
X0378009Y0283267D01*
X0378034Y0283116D01*
X0378056Y0282965D01*
X0378074Y0282812D01*
X0378088Y0282660D01*
X0378098Y0282507D01*
X0378104Y0282353D01*
X0378106Y0282200D01*
X0378104Y0282047D01*
X0378098Y0281893D01*
X0378088Y0281740D01*
X0378074Y0281588D01*
X0378056Y0281435D01*
X0378034Y0281284D01*
X0378009Y0281133D01*
X0377979Y0280982D01*
X0377945Y0280832D01*
X0377908Y0280684D01*
X0377867Y0280536D01*
X0377822Y0280390D01*
X0377773Y0280244D01*
X0377720Y0280100D01*
X0377664Y0279958D01*
X0377604Y0279817D01*
X0377540Y0279677D01*
X0377473Y0279539D01*
X0377402Y0279403D01*
X0377327Y0279269D01*
X0377250Y0279137D01*
X0377168Y0279007D01*
X0377084Y0278879D01*
X0376996Y0278753D01*
X0376905Y0278630D01*
X0376811Y0278509D01*
X0376713Y0278391D01*
X0376613Y0278275D01*
X0376509Y0278162D01*
X0376403Y0278051D01*
X0376294Y0277943D01*
X0376182Y0277838D01*
X0376068Y0277737D01*
X0375950Y0277638D01*
X0375831Y0277542D01*
X0375709Y0277449D01*
X0375584Y0277360D01*
X0375457Y0277273D01*
X0375328Y0277191D01*
X0375197Y0277111D01*
X0375064Y0277035D01*
X0374929Y0276962D01*
X0374792Y0276893D01*
X0374653Y0276828D01*
X0374513Y0276766D01*
X0374371Y0276708D01*
X0374228Y0276653D01*
X0374083Y0276602D01*
X0373937Y0276555D01*
X0373790Y0276512D01*
X0373642Y0276473D01*
X0373493Y0276437D01*
X0373343Y0276406D01*
X0373192Y0276378D01*
X0373041Y0276354D01*
X0372888Y0276334D01*
X0372736Y0276318D01*
X0372583Y0276306D01*
X0372430Y0276298D01*
X0372277Y0276294D01*
X0372123Y0276294D01*
X0371970Y0276298D01*
X0371817Y0276306D01*
X0371664Y0276318D01*
X0371512Y0276334D01*
X0371359Y0276354D01*
X0371208Y0276378D01*
X0371057Y0276406D01*
X0370907Y0276437D01*
X0370758Y0276473D01*
X0370610Y0276512D01*
X0370463Y0276555D01*
X0370317Y0276602D01*
X0370172Y0276653D01*
X0370029Y0276708D01*
X0369887Y0276766D01*
X0369747Y0276828D01*
X0369608Y0276893D01*
X0369471Y0276962D01*
X0369336Y0277035D01*
X0369203Y0277111D01*
X0369072Y0277191D01*
X0368943Y0277273D01*
X0368816Y0277360D01*
X0368691Y0277449D01*
X0368569Y0277542D01*
X0368450Y0277638D01*
X0368332Y0277737D01*
X0368218Y0277838D01*
X0368106Y0277943D01*
X0367997Y0278051D01*
X0367891Y0278162D01*
X0367787Y0278275D01*
X0367687Y0278391D01*
X0367589Y0278509D01*
X0367495Y0278630D01*
X0367404Y0278753D01*
X0367316Y0278879D01*
X0367232Y0279007D01*
X0367150Y0279137D01*
X0367073Y0279269D01*
X0366998Y0279403D01*
X0366927Y0279539D01*
X0366860Y0279677D01*
X0366796Y0279817D01*
X0366736Y0279958D01*
X0366680Y0280100D01*
X0366627Y0280244D01*
X0366578Y0280390D01*
X0366533Y0280536D01*
X0366492Y0280684D01*
X0366455Y0280832D01*
X0366421Y0280982D01*
X0366391Y0281133D01*
X0366366Y0281284D01*
X0366344Y0281435D01*
X0366326Y0281588D01*
X0366312Y0281740D01*
X0366302Y0281893D01*
X0366296Y0282047D01*
X0366294Y0282200D01*
X0366294Y0022200D02*
X0366296Y0022353D01*
X0366302Y0022507D01*
X0366312Y0022660D01*
X0366326Y0022812D01*
X0366344Y0022965D01*
X0366366Y0023116D01*
X0366391Y0023267D01*
X0366421Y0023418D01*
X0366455Y0023568D01*
X0366492Y0023716D01*
X0366533Y0023864D01*
X0366578Y0024010D01*
X0366627Y0024156D01*
X0366680Y0024300D01*
X0366736Y0024442D01*
X0366796Y0024583D01*
X0366860Y0024723D01*
X0366927Y0024861D01*
X0366998Y0024997D01*
X0367073Y0025131D01*
X0367150Y0025263D01*
X0367232Y0025393D01*
X0367316Y0025521D01*
X0367404Y0025647D01*
X0367495Y0025770D01*
X0367589Y0025891D01*
X0367687Y0026009D01*
X0367787Y0026125D01*
X0367891Y0026238D01*
X0367997Y0026349D01*
X0368106Y0026457D01*
X0368218Y0026562D01*
X0368332Y0026663D01*
X0368450Y0026762D01*
X0368569Y0026858D01*
X0368691Y0026951D01*
X0368816Y0027040D01*
X0368943Y0027127D01*
X0369072Y0027209D01*
X0369203Y0027289D01*
X0369336Y0027365D01*
X0369471Y0027438D01*
X0369608Y0027507D01*
X0369747Y0027572D01*
X0369887Y0027634D01*
X0370029Y0027692D01*
X0370172Y0027747D01*
X0370317Y0027798D01*
X0370463Y0027845D01*
X0370610Y0027888D01*
X0370758Y0027927D01*
X0370907Y0027963D01*
X0371057Y0027994D01*
X0371208Y0028022D01*
X0371359Y0028046D01*
X0371512Y0028066D01*
X0371664Y0028082D01*
X0371817Y0028094D01*
X0371970Y0028102D01*
X0372123Y0028106D01*
X0372277Y0028106D01*
X0372430Y0028102D01*
X0372583Y0028094D01*
X0372736Y0028082D01*
X0372888Y0028066D01*
X0373041Y0028046D01*
X0373192Y0028022D01*
X0373343Y0027994D01*
X0373493Y0027963D01*
X0373642Y0027927D01*
X0373790Y0027888D01*
X0373937Y0027845D01*
X0374083Y0027798D01*
X0374228Y0027747D01*
X0374371Y0027692D01*
X0374513Y0027634D01*
X0374653Y0027572D01*
X0374792Y0027507D01*
X0374929Y0027438D01*
X0375064Y0027365D01*
X0375197Y0027289D01*
X0375328Y0027209D01*
X0375457Y0027127D01*
X0375584Y0027040D01*
X0375709Y0026951D01*
X0375831Y0026858D01*
X0375950Y0026762D01*
X0376068Y0026663D01*
X0376182Y0026562D01*
X0376294Y0026457D01*
X0376403Y0026349D01*
X0376509Y0026238D01*
X0376613Y0026125D01*
X0376713Y0026009D01*
X0376811Y0025891D01*
X0376905Y0025770D01*
X0376996Y0025647D01*
X0377084Y0025521D01*
X0377168Y0025393D01*
X0377250Y0025263D01*
X0377327Y0025131D01*
X0377402Y0024997D01*
X0377473Y0024861D01*
X0377540Y0024723D01*
X0377604Y0024583D01*
X0377664Y0024442D01*
X0377720Y0024300D01*
X0377773Y0024156D01*
X0377822Y0024010D01*
X0377867Y0023864D01*
X0377908Y0023716D01*
X0377945Y0023568D01*
X0377979Y0023418D01*
X0378009Y0023267D01*
X0378034Y0023116D01*
X0378056Y0022965D01*
X0378074Y0022812D01*
X0378088Y0022660D01*
X0378098Y0022507D01*
X0378104Y0022353D01*
X0378106Y0022200D01*
X0378104Y0022047D01*
X0378098Y0021893D01*
X0378088Y0021740D01*
X0378074Y0021588D01*
X0378056Y0021435D01*
X0378034Y0021284D01*
X0378009Y0021133D01*
X0377979Y0020982D01*
X0377945Y0020832D01*
X0377908Y0020684D01*
X0377867Y0020536D01*
X0377822Y0020390D01*
X0377773Y0020244D01*
X0377720Y0020100D01*
X0377664Y0019958D01*
X0377604Y0019817D01*
X0377540Y0019677D01*
X0377473Y0019539D01*
X0377402Y0019403D01*
X0377327Y0019269D01*
X0377250Y0019137D01*
X0377168Y0019007D01*
X0377084Y0018879D01*
X0376996Y0018753D01*
X0376905Y0018630D01*
X0376811Y0018509D01*
X0376713Y0018391D01*
X0376613Y0018275D01*
X0376509Y0018162D01*
X0376403Y0018051D01*
X0376294Y0017943D01*
X0376182Y0017838D01*
X0376068Y0017737D01*
X0375950Y0017638D01*
X0375831Y0017542D01*
X0375709Y0017449D01*
X0375584Y0017360D01*
X0375457Y0017273D01*
X0375328Y0017191D01*
X0375197Y0017111D01*
X0375064Y0017035D01*
X0374929Y0016962D01*
X0374792Y0016893D01*
X0374653Y0016828D01*
X0374513Y0016766D01*
X0374371Y0016708D01*
X0374228Y0016653D01*
X0374083Y0016602D01*
X0373937Y0016555D01*
X0373790Y0016512D01*
X0373642Y0016473D01*
X0373493Y0016437D01*
X0373343Y0016406D01*
X0373192Y0016378D01*
X0373041Y0016354D01*
X0372888Y0016334D01*
X0372736Y0016318D01*
X0372583Y0016306D01*
X0372430Y0016298D01*
X0372277Y0016294D01*
X0372123Y0016294D01*
X0371970Y0016298D01*
X0371817Y0016306D01*
X0371664Y0016318D01*
X0371512Y0016334D01*
X0371359Y0016354D01*
X0371208Y0016378D01*
X0371057Y0016406D01*
X0370907Y0016437D01*
X0370758Y0016473D01*
X0370610Y0016512D01*
X0370463Y0016555D01*
X0370317Y0016602D01*
X0370172Y0016653D01*
X0370029Y0016708D01*
X0369887Y0016766D01*
X0369747Y0016828D01*
X0369608Y0016893D01*
X0369471Y0016962D01*
X0369336Y0017035D01*
X0369203Y0017111D01*
X0369072Y0017191D01*
X0368943Y0017273D01*
X0368816Y0017360D01*
X0368691Y0017449D01*
X0368569Y0017542D01*
X0368450Y0017638D01*
X0368332Y0017737D01*
X0368218Y0017838D01*
X0368106Y0017943D01*
X0367997Y0018051D01*
X0367891Y0018162D01*
X0367787Y0018275D01*
X0367687Y0018391D01*
X0367589Y0018509D01*
X0367495Y0018630D01*
X0367404Y0018753D01*
X0367316Y0018879D01*
X0367232Y0019007D01*
X0367150Y0019137D01*
X0367073Y0019269D01*
X0366998Y0019403D01*
X0366927Y0019539D01*
X0366860Y0019677D01*
X0366796Y0019817D01*
X0366736Y0019958D01*
X0366680Y0020100D01*
X0366627Y0020244D01*
X0366578Y0020390D01*
X0366533Y0020536D01*
X0366492Y0020684D01*
X0366455Y0020832D01*
X0366421Y0020982D01*
X0366391Y0021133D01*
X0366366Y0021284D01*
X0366344Y0021435D01*
X0366326Y0021588D01*
X0366312Y0021740D01*
X0366302Y0021893D01*
X0366296Y0022047D01*
X0366294Y0022200D01*
D11*
X0335200Y0112200D02*
X0329200Y0112200D01*
X0329200Y0122200D02*
X0335200Y0122200D01*
X0335200Y0132200D02*
X0329200Y0132200D01*
X0329200Y0142200D02*
X0335200Y0142200D01*
X0335200Y0152200D02*
X0329200Y0152200D01*
X0329200Y0162200D02*
X0335200Y0162200D01*
X0335200Y0192200D02*
X0329200Y0192200D01*
X0329200Y0202200D02*
X0335200Y0202200D01*
X0335200Y0212200D02*
X0329200Y0212200D01*
X0329200Y0222200D02*
X0335200Y0222200D01*
X0354200Y0222200D02*
X0360200Y0222200D01*
X0360200Y0212200D02*
X0354200Y0212200D01*
X0354200Y0202200D02*
X0360200Y0202200D01*
X0360200Y0192200D02*
X0354200Y0192200D01*
X0379200Y0192200D02*
X0385200Y0192200D01*
X0385200Y0202200D02*
X0379200Y0202200D01*
X0379200Y0212200D02*
X0385200Y0212200D01*
X0385200Y0222200D02*
X0379200Y0222200D01*
X0162200Y0025200D02*
X0162200Y0019200D01*
X0152200Y0019200D02*
X0152200Y0025200D01*
X0142200Y0025200D02*
X0142200Y0019200D01*
X0030200Y0022200D02*
X0024200Y0022200D01*
X0024200Y0032200D02*
X0030200Y0032200D01*
X0030200Y0042200D02*
X0024200Y0042200D01*
X0024200Y0052200D02*
X0030200Y0052200D01*
X0030200Y0062200D02*
X0024200Y0062200D01*
X0024200Y0072200D02*
X0030200Y0072200D01*
X0030200Y0082200D02*
X0024200Y0082200D01*
X0024200Y0092200D02*
X0030200Y0092200D01*
D12*
X0027200Y0112200D03*
X0027200Y0122200D03*
X0027200Y0132200D03*
X0027200Y0142200D03*
X0027200Y0152200D03*
X0027200Y0162200D03*
X0027200Y0172200D03*
X0037200Y0172200D03*
X0037200Y0162200D03*
X0037200Y0152200D03*
X0037200Y0142200D03*
X0037200Y0132200D03*
X0037200Y0122200D03*
X0037200Y0112200D03*
X0102200Y0052200D03*
X0102200Y0042200D03*
X0112200Y0042200D03*
X0122200Y0042200D03*
X0122200Y0052200D03*
X0112200Y0052200D03*
X0132200Y0052200D03*
X0142200Y0052200D03*
X0142200Y0042200D03*
X0132200Y0042200D03*
X0152200Y0042200D03*
X0162200Y0042200D03*
X0162200Y0052200D03*
X0152200Y0052200D03*
X0172200Y0052200D03*
X0182200Y0052200D03*
X0182200Y0042200D03*
X0172200Y0042200D03*
X0192200Y0042200D03*
X0202200Y0042200D03*
X0202200Y0052200D03*
X0192200Y0052200D03*
X0212200Y0052200D03*
X0212200Y0042200D03*
X0277200Y0112200D03*
X0287200Y0112200D03*
X0287200Y0122200D03*
X0277200Y0122200D03*
X0277200Y0132200D03*
X0287200Y0132200D03*
X0287200Y0142200D03*
X0277200Y0142200D03*
X0277200Y0152200D03*
X0287200Y0152200D03*
X0287200Y0162200D03*
X0277200Y0162200D03*
X0277200Y0172200D03*
X0287200Y0172200D03*
X0287200Y0182200D03*
X0277200Y0182200D03*
X0277200Y0192200D03*
X0287200Y0192200D03*
X0287200Y0202200D03*
X0277200Y0202200D03*
X0277200Y0212200D03*
X0287200Y0212200D03*
X0287200Y0222200D03*
X0277200Y0222200D03*
X0212200Y0277200D03*
X0212200Y0287200D03*
X0202200Y0287200D03*
X0192200Y0287200D03*
X0192200Y0277200D03*
X0202200Y0277200D03*
X0182200Y0277200D03*
X0172200Y0277200D03*
X0172200Y0287200D03*
X0182200Y0287200D03*
X0162200Y0287200D03*
X0152200Y0287200D03*
X0152200Y0277200D03*
X0162200Y0277200D03*
X0142200Y0277200D03*
X0132200Y0277200D03*
X0132200Y0287200D03*
X0142200Y0287200D03*
X0122200Y0287200D03*
X0112200Y0287200D03*
X0112200Y0277200D03*
X0122200Y0277200D03*
X0102200Y0277200D03*
X0102200Y0287200D03*
X0037200Y0222200D03*
X0037200Y0212200D03*
X0037200Y0202200D03*
X0037200Y0192200D03*
X0037200Y0182200D03*
X0027200Y0182200D03*
X0027200Y0192200D03*
X0027200Y0202200D03*
X0027200Y0212200D03*
X0027200Y0222200D03*
D13*
X0080920Y0231078D02*
X0093322Y0231078D01*
X0080920Y0231078D02*
X0080920Y0243480D01*
X0093322Y0243480D01*
X0093322Y0231078D01*
X0093322Y0232455D02*
X0080920Y0232455D01*
X0080920Y0233832D02*
X0093322Y0233832D01*
X0093322Y0235209D02*
X0080920Y0235209D01*
X0080920Y0236586D02*
X0093322Y0236586D01*
X0093322Y0237963D02*
X0080920Y0237963D01*
X0080920Y0239340D02*
X0093322Y0239340D01*
X0093322Y0240717D02*
X0080920Y0240717D01*
X0080920Y0242094D02*
X0093322Y0242094D01*
X0093322Y0243471D02*
X0080920Y0243471D01*
X0221078Y0231078D02*
X0233480Y0231078D01*
X0221078Y0231078D02*
X0221078Y0243480D01*
X0233480Y0243480D01*
X0233480Y0231078D01*
X0233480Y0232455D02*
X0221078Y0232455D01*
X0221078Y0233832D02*
X0233480Y0233832D01*
X0233480Y0235209D02*
X0221078Y0235209D01*
X0221078Y0236586D02*
X0233480Y0236586D01*
X0233480Y0237963D02*
X0221078Y0237963D01*
X0221078Y0239340D02*
X0233480Y0239340D01*
X0233480Y0240717D02*
X0221078Y0240717D01*
X0221078Y0242094D02*
X0233480Y0242094D01*
X0233480Y0243471D02*
X0221078Y0243471D01*
X0221078Y0090920D02*
X0233480Y0090920D01*
X0221078Y0090920D02*
X0221078Y0103322D01*
X0233480Y0103322D01*
X0233480Y0090920D01*
X0233480Y0092297D02*
X0221078Y0092297D01*
X0221078Y0093674D02*
X0233480Y0093674D01*
X0233480Y0095051D02*
X0221078Y0095051D01*
X0221078Y0096428D02*
X0233480Y0096428D01*
X0233480Y0097805D02*
X0221078Y0097805D01*
X0221078Y0099182D02*
X0233480Y0099182D01*
X0233480Y0100559D02*
X0221078Y0100559D01*
X0221078Y0101936D02*
X0233480Y0101936D01*
X0233480Y0103313D02*
X0221078Y0103313D01*
X0093322Y0090920D02*
X0080920Y0090920D01*
X0080920Y0103322D01*
X0093322Y0103322D01*
X0093322Y0090920D01*
X0093322Y0092297D02*
X0080920Y0092297D01*
X0080920Y0093674D02*
X0093322Y0093674D01*
X0093322Y0095051D02*
X0080920Y0095051D01*
X0080920Y0096428D02*
X0093322Y0096428D01*
X0093322Y0097805D02*
X0080920Y0097805D01*
X0080920Y0099182D02*
X0093322Y0099182D01*
X0093322Y0100559D02*
X0080920Y0100559D01*
X0080920Y0101936D02*
X0093322Y0101936D01*
X0093322Y0103313D02*
X0080920Y0103313D01*
D14*
X0082200Y0109700D02*
X0078231Y0109700D01*
X0078231Y0114700D02*
X0082200Y0114700D01*
X0082200Y0119700D02*
X0078231Y0119700D01*
X0078231Y0124700D02*
X0082200Y0124700D01*
X0082200Y0129700D02*
X0078231Y0129700D01*
X0078231Y0134700D02*
X0082200Y0134700D01*
X0082200Y0139700D02*
X0078231Y0139700D01*
X0078231Y0144700D02*
X0082200Y0144700D01*
X0082200Y0149700D02*
X0078231Y0149700D01*
X0078231Y0154700D02*
X0082200Y0154700D01*
X0082200Y0159700D02*
X0078231Y0159700D01*
X0078231Y0164700D02*
X0082200Y0164700D01*
X0082200Y0169700D02*
X0078231Y0169700D01*
X0078231Y0174700D02*
X0082200Y0174700D01*
X0082200Y0179700D02*
X0078231Y0179700D01*
X0078231Y0184700D02*
X0082200Y0184700D01*
X0082200Y0189700D02*
X0078231Y0189700D01*
X0078231Y0194700D02*
X0082200Y0194700D01*
X0082200Y0199700D02*
X0078231Y0199700D01*
X0078231Y0204700D02*
X0082200Y0204700D01*
X0082200Y0209700D02*
X0078231Y0209700D01*
X0078231Y0214700D02*
X0082200Y0214700D01*
X0082200Y0219700D02*
X0078231Y0219700D01*
X0078231Y0224700D02*
X0082200Y0224700D01*
X0099700Y0242200D02*
X0099700Y0246169D01*
X0104700Y0246169D02*
X0104700Y0242200D01*
X0109700Y0242200D02*
X0109700Y0246169D01*
X0114700Y0246169D02*
X0114700Y0242200D01*
X0119700Y0242200D02*
X0119700Y0246169D01*
X0124700Y0246169D02*
X0124700Y0242200D01*
X0129700Y0242200D02*
X0129700Y0246169D01*
X0134700Y0246169D02*
X0134700Y0242200D01*
X0139700Y0242200D02*
X0139700Y0246169D01*
X0144700Y0246169D02*
X0144700Y0242200D01*
X0149700Y0242200D02*
X0149700Y0246169D01*
X0154700Y0246169D02*
X0154700Y0242200D01*
X0159700Y0242200D02*
X0159700Y0246169D01*
X0164700Y0246169D02*
X0164700Y0242200D01*
X0169700Y0242200D02*
X0169700Y0246169D01*
X0174700Y0246169D02*
X0174700Y0242200D01*
X0179700Y0242200D02*
X0179700Y0246169D01*
X0184700Y0246169D02*
X0184700Y0242200D01*
X0189700Y0242200D02*
X0189700Y0246169D01*
X0194700Y0246169D02*
X0194700Y0242200D01*
X0199700Y0242200D02*
X0199700Y0246169D01*
X0204700Y0246169D02*
X0204700Y0242200D01*
X0209700Y0242200D02*
X0209700Y0246169D01*
X0214700Y0246169D02*
X0214700Y0242200D01*
X0232200Y0224700D02*
X0236169Y0224700D01*
X0236169Y0219700D02*
X0232200Y0219700D01*
X0232200Y0214700D02*
X0236169Y0214700D01*
X0236169Y0209700D02*
X0232200Y0209700D01*
X0232200Y0204700D02*
X0236169Y0204700D01*
X0236169Y0199700D02*
X0232200Y0199700D01*
X0232200Y0194700D02*
X0236169Y0194700D01*
X0236169Y0189700D02*
X0232200Y0189700D01*
X0232200Y0184700D02*
X0236169Y0184700D01*
X0236169Y0179700D02*
X0232200Y0179700D01*
X0232200Y0174700D02*
X0236169Y0174700D01*
X0236169Y0169700D02*
X0232200Y0169700D01*
X0232200Y0164700D02*
X0236169Y0164700D01*
X0236169Y0159700D02*
X0232200Y0159700D01*
X0232200Y0154700D02*
X0236169Y0154700D01*
X0236169Y0149700D02*
X0232200Y0149700D01*
X0232200Y0144700D02*
X0236169Y0144700D01*
X0236169Y0139700D02*
X0232200Y0139700D01*
X0232200Y0134700D02*
X0236169Y0134700D01*
X0236169Y0129700D02*
X0232200Y0129700D01*
X0232200Y0124700D02*
X0236169Y0124700D01*
X0236169Y0119700D02*
X0232200Y0119700D01*
X0232200Y0114700D02*
X0236169Y0114700D01*
X0236169Y0109700D02*
X0232200Y0109700D01*
X0214700Y0092200D02*
X0214700Y0088231D01*
X0209700Y0088231D02*
X0209700Y0092200D01*
X0204700Y0092200D02*
X0204700Y0088231D01*
X0199700Y0088231D02*
X0199700Y0092200D01*
X0194700Y0092200D02*
X0194700Y0088231D01*
X0189700Y0088231D02*
X0189700Y0092200D01*
X0184700Y0092200D02*
X0184700Y0088231D01*
X0179700Y0088231D02*
X0179700Y0092200D01*
X0174700Y0092200D02*
X0174700Y0088231D01*
X0169700Y0088231D02*
X0169700Y0092200D01*
X0164700Y0092200D02*
X0164700Y0088231D01*
X0159700Y0088231D02*
X0159700Y0092200D01*
X0154700Y0092200D02*
X0154700Y0088231D01*
X0149700Y0088231D02*
X0149700Y0092200D01*
X0144700Y0092200D02*
X0144700Y0088231D01*
X0139700Y0088231D02*
X0139700Y0092200D01*
X0134700Y0092200D02*
X0134700Y0088231D01*
X0129700Y0088231D02*
X0129700Y0092200D01*
X0124700Y0092200D02*
X0124700Y0088231D01*
X0119700Y0088231D02*
X0119700Y0092200D01*
X0114700Y0092200D02*
X0114700Y0088231D01*
X0109700Y0088231D02*
X0109700Y0092200D01*
X0104700Y0092200D02*
X0104700Y0088231D01*
X0099700Y0088231D02*
X0099700Y0092200D01*
D15*
X0272200Y0277200D03*
D16*
X0301728Y0277200D03*
X0242672Y0277200D03*
D17*
X0277200Y0087200D03*
X0309877Y0087200D03*
X0309877Y0033066D03*
X0277200Y0033066D03*
D18*
X0287436Y0047515D03*
X0287436Y0051846D03*
X0287436Y0056176D03*
X0287436Y0060507D03*
X0287436Y0064838D03*
X0287436Y0069169D03*
X0287436Y0073499D03*
X0287436Y0077830D03*
D19*
X0257200Y0098854D03*
X0257200Y0105546D03*
X0057200Y0236354D03*
X0057200Y0243046D03*
D20*
X0037200Y0222200D02*
X0039700Y0219700D01*
X0082200Y0219700D01*
X0082200Y0214700D02*
X0042200Y0214700D01*
X0039700Y0217200D01*
X0032200Y0217200D01*
X0027200Y0212200D01*
X0032200Y0207200D02*
X0027200Y0202200D01*
X0032200Y0197200D02*
X0027200Y0192200D01*
X0032200Y0187200D02*
X0027200Y0182200D01*
X0032200Y0177200D02*
X0027200Y0172200D01*
X0032200Y0177200D02*
X0039700Y0177200D01*
X0042200Y0174700D01*
X0082200Y0174700D01*
X0082200Y0169700D02*
X0039700Y0169700D01*
X0037200Y0172200D01*
X0039700Y0167200D02*
X0032200Y0167200D01*
X0027200Y0162200D01*
X0032200Y0157200D02*
X0027200Y0152200D01*
X0032200Y0157200D02*
X0039700Y0157200D01*
X0042200Y0154700D01*
X0082200Y0154700D01*
X0082200Y0149700D02*
X0039700Y0149700D01*
X0037200Y0152200D01*
X0039700Y0159700D02*
X0037200Y0162200D01*
X0039700Y0159700D02*
X0082200Y0159700D01*
X0082200Y0164700D02*
X0042200Y0164700D01*
X0039700Y0167200D01*
X0039700Y0179700D02*
X0037200Y0182200D01*
X0039700Y0179700D02*
X0082200Y0179700D01*
X0082200Y0184700D02*
X0042200Y0184700D01*
X0039700Y0187200D01*
X0032200Y0187200D01*
X0037200Y0192200D02*
X0039700Y0189700D01*
X0082200Y0189700D01*
X0082200Y0194700D02*
X0042200Y0194700D01*
X0039700Y0197200D01*
X0032200Y0197200D01*
X0037200Y0202200D02*
X0039700Y0199700D01*
X0082200Y0199700D01*
X0082200Y0204700D02*
X0042200Y0204700D01*
X0039700Y0207200D01*
X0032200Y0207200D01*
X0037200Y0212200D02*
X0039700Y0209700D01*
X0082200Y0209700D01*
X0104700Y0242200D02*
X0104700Y0272200D01*
X0107200Y0274700D01*
X0107200Y0287200D01*
X0102200Y0287200D01*
X0112200Y0287200D02*
X0117200Y0287200D01*
X0117200Y0274700D01*
X0114700Y0272200D01*
X0114700Y0242200D01*
X0109700Y0242200D02*
X0109700Y0277200D01*
X0112200Y0277200D01*
X0119700Y0277200D02*
X0122200Y0277200D01*
X0119700Y0277200D02*
X0119700Y0242200D01*
X0124700Y0242200D02*
X0124700Y0272200D01*
X0127200Y0274700D01*
X0127200Y0287200D01*
X0122200Y0287200D01*
X0132200Y0287200D02*
X0137200Y0287200D01*
X0137200Y0274700D01*
X0134700Y0272200D01*
X0134700Y0242200D01*
X0129700Y0242200D02*
X0129700Y0277200D01*
X0132200Y0277200D01*
X0139700Y0277200D02*
X0142200Y0277200D01*
X0139700Y0277200D02*
X0139700Y0242200D01*
X0144700Y0242200D02*
X0144700Y0272200D01*
X0147200Y0274700D01*
X0147200Y0287200D01*
X0142200Y0287200D01*
X0152200Y0287200D02*
X0157200Y0287200D01*
X0157200Y0274700D01*
X0154700Y0272200D01*
X0154700Y0242200D01*
X0149700Y0242200D02*
X0149700Y0277200D01*
X0152200Y0277200D01*
X0159700Y0277200D02*
X0162200Y0277200D01*
X0159700Y0277200D02*
X0159700Y0242200D01*
X0164700Y0242200D02*
X0164700Y0272200D01*
X0167200Y0274700D01*
X0167200Y0287200D01*
X0162200Y0287200D01*
X0172200Y0287200D02*
X0177200Y0287200D01*
X0177200Y0274700D01*
X0174700Y0272200D01*
X0174700Y0242200D01*
X0169700Y0242200D02*
X0169700Y0277200D01*
X0172200Y0277200D01*
X0179700Y0277200D02*
X0182200Y0277200D01*
X0179700Y0277200D02*
X0179700Y0242200D01*
X0184700Y0242200D02*
X0184700Y0272200D01*
X0187200Y0274700D01*
X0187200Y0287200D01*
X0182200Y0287200D01*
X0192200Y0287200D02*
X0197200Y0287200D01*
X0197200Y0274700D01*
X0194700Y0272200D01*
X0194700Y0242200D01*
X0189700Y0242200D02*
X0189700Y0277200D01*
X0192200Y0277200D01*
X0199700Y0277200D02*
X0202200Y0277200D01*
X0199700Y0277200D02*
X0199700Y0242200D01*
X0204700Y0242200D02*
X0204700Y0272200D01*
X0207200Y0274700D01*
X0207200Y0287200D01*
X0202200Y0287200D01*
X0207200Y0292200D02*
X0089700Y0292200D01*
X0019700Y0222200D01*
X0019700Y0087200D01*
X0022200Y0087200D01*
X0019700Y0084700D01*
X0019700Y0027200D01*
X0027200Y0032200D02*
X0057200Y0032200D01*
X0057200Y0094700D01*
X0077200Y0114700D01*
X0082200Y0114700D01*
X0082200Y0109700D02*
X0099700Y0109700D01*
X0099700Y0092200D01*
X0099700Y0057200D01*
X0072200Y0029700D01*
X0034700Y0029700D01*
X0032200Y0027200D01*
X0027200Y0042200D02*
X0054700Y0042200D01*
X0054700Y0097200D01*
X0077200Y0119700D01*
X0082200Y0119700D01*
X0082200Y0124700D02*
X0077200Y0124700D01*
X0052200Y0099700D01*
X0052200Y0052200D01*
X0027200Y0052200D01*
X0027200Y0062200D02*
X0049700Y0062200D01*
X0049700Y0114700D01*
X0064700Y0129700D01*
X0082200Y0129700D01*
X0082200Y0134700D02*
X0064700Y0134700D01*
X0047200Y0117200D01*
X0047200Y0072200D01*
X0027200Y0072200D01*
X0027200Y0082200D02*
X0044700Y0082200D01*
X0044700Y0119700D01*
X0064700Y0139700D01*
X0082200Y0139700D01*
X0082200Y0144700D02*
X0064700Y0144700D01*
X0042200Y0122200D01*
X0042200Y0117200D01*
X0034700Y0117200D01*
X0032200Y0114700D01*
X0032200Y0092200D01*
X0027200Y0092200D01*
X0022200Y0087200D02*
X0037200Y0087200D01*
X0037200Y0112200D01*
X0104700Y0092200D02*
X0104700Y0052200D01*
X0102200Y0052200D01*
X0107200Y0054700D02*
X0107200Y0042200D01*
X0112200Y0042200D01*
X0117200Y0042200D02*
X0122200Y0042200D01*
X0117200Y0042200D02*
X0117200Y0054700D01*
X0119700Y0057200D01*
X0119700Y0092200D01*
X0114700Y0092200D02*
X0114700Y0052200D01*
X0112200Y0052200D01*
X0107200Y0054700D02*
X0109700Y0057200D01*
X0109700Y0092200D01*
X0124700Y0092200D02*
X0124700Y0052200D01*
X0122200Y0052200D01*
X0127200Y0054700D02*
X0127200Y0042200D01*
X0132200Y0042200D01*
X0137200Y0042200D02*
X0142200Y0042200D01*
X0137200Y0042200D02*
X0137200Y0054700D01*
X0139700Y0057200D01*
X0139700Y0092200D01*
X0134700Y0092200D02*
X0134700Y0052200D01*
X0132200Y0052200D01*
X0127200Y0054700D02*
X0129700Y0057200D01*
X0129700Y0092200D01*
X0144700Y0092200D02*
X0144700Y0052200D01*
X0142200Y0052200D01*
X0147200Y0054700D02*
X0147200Y0042200D01*
X0147200Y0037200D01*
X0142200Y0032200D01*
X0142200Y0022200D01*
X0152200Y0022200D02*
X0152200Y0037200D01*
X0154700Y0037200D01*
X0157200Y0039700D01*
X0157200Y0044700D01*
X0154700Y0047200D01*
X0154700Y0052200D01*
X0152200Y0052200D01*
X0154700Y0052200D02*
X0154700Y0092200D01*
X0149700Y0092200D02*
X0149700Y0057200D01*
X0147200Y0054700D01*
X0157200Y0054700D02*
X0157200Y0049700D01*
X0162200Y0044700D01*
X0162200Y0042200D01*
X0167200Y0042200D02*
X0172200Y0042200D01*
X0177200Y0039700D02*
X0177200Y0069700D01*
X0194700Y0087200D01*
X0194700Y0092200D01*
X0199700Y0092200D02*
X0199700Y0087200D01*
X0187200Y0074700D01*
X0187200Y0039700D01*
X0192200Y0034700D01*
X0254700Y0034700D01*
X0267515Y0047515D01*
X0287436Y0047515D01*
X0287436Y0051846D02*
X0266846Y0051846D01*
X0252200Y0037200D01*
X0199700Y0037200D01*
X0197200Y0039700D01*
X0197200Y0079700D01*
X0204700Y0087200D01*
X0204700Y0092200D01*
X0209700Y0092200D02*
X0209700Y0057200D01*
X0207200Y0054700D01*
X0207200Y0042200D01*
X0212200Y0042200D01*
X0184700Y0032200D02*
X0257200Y0032200D01*
X0267200Y0042200D01*
X0292200Y0042200D01*
X0297200Y0047200D01*
X0297200Y0072200D01*
X0291570Y0077830D01*
X0287436Y0077830D01*
X0287200Y0074075D02*
X0287436Y0073839D01*
X0287436Y0073499D01*
X0280901Y0073499D01*
X0277200Y0077200D01*
X0285325Y0074075D02*
X0287200Y0074075D01*
X0288450Y0074075D01*
X0289700Y0072825D01*
X0287436Y0064838D02*
X0274562Y0064838D01*
X0272200Y0067200D01*
X0267200Y0067200D01*
X0272200Y0114700D02*
X0232200Y0114700D01*
X0232200Y0119700D02*
X0267200Y0119700D01*
X0274700Y0127200D01*
X0317200Y0127200D01*
X0332200Y0142200D01*
X0332200Y0132200D02*
X0327200Y0132200D01*
X0312200Y0117200D01*
X0274700Y0117200D01*
X0272200Y0114700D01*
X0262200Y0124700D02*
X0274700Y0137200D01*
X0317200Y0137200D01*
X0332200Y0152200D01*
X0287200Y0182200D02*
X0282200Y0177200D01*
X0274700Y0177200D01*
X0272200Y0179700D01*
X0232200Y0179700D01*
X0232200Y0184700D02*
X0274700Y0184700D01*
X0277200Y0182200D01*
X0274700Y0187200D02*
X0282200Y0187200D01*
X0287200Y0192200D01*
X0282200Y0197200D02*
X0287200Y0202200D01*
X0282200Y0207200D02*
X0287200Y0212200D01*
X0282200Y0207200D02*
X0274700Y0207200D01*
X0272200Y0209700D01*
X0232200Y0209700D01*
X0232200Y0204700D02*
X0274700Y0204700D01*
X0277200Y0202200D01*
X0274700Y0197200D02*
X0272200Y0199700D01*
X0232200Y0199700D01*
X0232200Y0194700D02*
X0274700Y0194700D01*
X0277200Y0192200D01*
X0274700Y0187200D02*
X0272200Y0189700D01*
X0232200Y0189700D01*
X0232200Y0174700D02*
X0274700Y0174700D01*
X0277200Y0172200D01*
X0274700Y0197200D02*
X0282200Y0197200D01*
X0277200Y0212200D02*
X0274700Y0214700D01*
X0232200Y0214700D01*
X0232200Y0219700D02*
X0272200Y0219700D01*
X0274700Y0217200D01*
X0282200Y0217200D01*
X0287200Y0222200D01*
X0277200Y0222200D02*
X0274700Y0224700D01*
X0232200Y0224700D01*
X0209700Y0242200D02*
X0209700Y0277200D01*
X0212200Y0277200D01*
X0212200Y0287200D02*
X0262200Y0287200D01*
X0272200Y0277200D01*
X0262200Y0124700D02*
X0232200Y0124700D01*
X0174700Y0092200D02*
X0174700Y0052200D01*
X0172200Y0052200D01*
X0167200Y0054700D02*
X0169700Y0057200D01*
X0169700Y0092200D01*
X0164700Y0092200D02*
X0164700Y0052200D01*
X0162200Y0052200D01*
X0157200Y0054700D02*
X0159700Y0057200D01*
X0159700Y0092200D01*
X0167200Y0054700D02*
X0167200Y0042200D01*
X0177200Y0039700D02*
X0184700Y0032200D01*
X0152200Y0042200D02*
X0147200Y0042200D01*
X0154700Y0014700D02*
X0129700Y0014700D01*
X0102200Y0042200D02*
X0089700Y0029700D01*
X0072200Y0029700D01*
D21*
X0062200Y0022200D03*
X0152200Y0122200D03*
X0132200Y0142200D03*
X0112200Y0162200D03*
X0162200Y0212200D03*
X0182200Y0192200D03*
X0202200Y0172200D03*
X0259700Y0169700D03*
X0297200Y0237200D03*
X0342200Y0262200D03*
X0362200Y0252200D03*
X0382200Y0252200D03*
X0342200Y0282200D03*
X0382200Y0162200D03*
X0362200Y0152200D03*
X0362200Y0132200D03*
X0362200Y0112200D03*
X0279700Y0069700D03*
X0277200Y0077200D03*
X0267200Y0067200D03*
X0262200Y0054700D03*
X0252200Y0092200D03*
X0212200Y0022200D03*
X0342200Y0022200D03*
X0032200Y0252200D03*
X0012200Y0252200D03*
X0052200Y0272200D03*
X0072200Y0292200D03*
D22*
X0095631Y0277419D02*
X0094900Y0275655D01*
X0094900Y0246602D01*
X0094016Y0246968D01*
X0080226Y0246968D01*
X0078944Y0246437D01*
X0077963Y0245456D01*
X0077431Y0244174D01*
X0077431Y0230384D01*
X0077798Y0229500D01*
X0071688Y0229500D01*
X0066269Y0234919D01*
X0064919Y0236269D01*
X0063155Y0237000D01*
X0061968Y0237000D01*
X0061968Y0239076D01*
X0061542Y0240105D01*
X0061302Y0240345D01*
X0061368Y0240591D01*
X0061368Y0243046D01*
X0057200Y0243046D01*
X0053031Y0243046D01*
X0053031Y0240591D01*
X0053098Y0240345D01*
X0052858Y0240105D01*
X0052431Y0239076D01*
X0052431Y0237000D01*
X0036245Y0237000D01*
X0034481Y0236269D01*
X0026212Y0228000D01*
X0024798Y0228000D01*
X0021400Y0224602D01*
X0021400Y0219798D01*
X0023998Y0217200D01*
X0021400Y0214602D01*
X0021400Y0209798D01*
X0023998Y0207200D01*
X0021400Y0204602D01*
X0021400Y0199798D01*
X0023998Y0197200D01*
X0021400Y0194602D01*
X0021400Y0189798D01*
X0023998Y0187200D01*
X0021400Y0184602D01*
X0021400Y0179798D01*
X0023998Y0177200D01*
X0021400Y0174602D01*
X0021400Y0169798D01*
X0023998Y0167200D01*
X0021400Y0164602D01*
X0021400Y0159798D01*
X0023998Y0157200D01*
X0021400Y0154602D01*
X0021400Y0149798D01*
X0023998Y0147200D01*
X0021400Y0144602D01*
X0021400Y0139798D01*
X0023998Y0137200D01*
X0021400Y0134602D01*
X0021400Y0129798D01*
X0023998Y0127200D01*
X0021400Y0124602D01*
X0021400Y0119798D01*
X0023998Y0117200D01*
X0021400Y0114602D01*
X0021400Y0109798D01*
X0024798Y0106400D01*
X0028900Y0106400D01*
X0028900Y0098000D01*
X0023046Y0098000D01*
X0020915Y0097117D01*
X0019283Y0095485D01*
X0018400Y0093354D01*
X0018400Y0091046D01*
X0019283Y0088915D01*
X0020915Y0087283D01*
X0021115Y0087200D01*
X0020915Y0087117D01*
X0019283Y0085485D01*
X0018400Y0083354D01*
X0018400Y0081046D01*
X0019283Y0078915D01*
X0020915Y0077283D01*
X0021115Y0077200D01*
X0020915Y0077117D01*
X0019283Y0075485D01*
X0018400Y0073354D01*
X0018400Y0071046D01*
X0019283Y0068915D01*
X0020915Y0067283D01*
X0021115Y0067200D01*
X0020915Y0067117D01*
X0019283Y0065485D01*
X0018400Y0063354D01*
X0018400Y0061046D01*
X0019283Y0058915D01*
X0020915Y0057283D01*
X0021115Y0057200D01*
X0020915Y0057117D01*
X0019283Y0055485D01*
X0018400Y0053354D01*
X0018400Y0051046D01*
X0019283Y0048915D01*
X0020915Y0047283D01*
X0021115Y0047200D01*
X0020915Y0047117D01*
X0019283Y0045485D01*
X0018400Y0043354D01*
X0018400Y0041046D01*
X0019283Y0038915D01*
X0020915Y0037283D01*
X0021115Y0037200D01*
X0020915Y0037117D01*
X0019283Y0035485D01*
X0018400Y0033354D01*
X0018400Y0031046D01*
X0019283Y0028915D01*
X0020915Y0027283D01*
X0021912Y0026870D01*
X0021475Y0026647D01*
X0020812Y0026166D01*
X0020234Y0025588D01*
X0019753Y0024925D01*
X0019381Y0024196D01*
X0019128Y0023418D01*
X0019000Y0022609D01*
X0019000Y0022200D01*
X0027200Y0022200D01*
X0035400Y0022200D01*
X0035400Y0022609D01*
X0035272Y0023418D01*
X0035019Y0024196D01*
X0034647Y0024925D01*
X0034166Y0025588D01*
X0033588Y0026166D01*
X0032925Y0026647D01*
X0032488Y0026870D01*
X0033485Y0027283D01*
X0035102Y0028900D01*
X0057856Y0028900D01*
X0059069Y0029402D01*
X0059998Y0030331D01*
X0060500Y0031544D01*
X0060500Y0093333D01*
X0074662Y0107495D01*
X0075040Y0106974D01*
X0075506Y0106508D01*
X0076038Y0106121D01*
X0076625Y0105822D01*
X0077252Y0105619D01*
X0077902Y0105516D01*
X0078180Y0105516D01*
X0077963Y0105298D01*
X0077431Y0104016D01*
X0077431Y0090226D01*
X0077963Y0088944D01*
X0078944Y0087963D01*
X0080226Y0087431D01*
X0094016Y0087431D01*
X0095298Y0087963D01*
X0095516Y0088180D01*
X0095516Y0087902D01*
X0095619Y0087252D01*
X0095822Y0086625D01*
X0096121Y0086038D01*
X0096508Y0085506D01*
X0096974Y0085040D01*
X0097507Y0084653D01*
X0098094Y0084354D01*
X0098720Y0084150D01*
X0099371Y0084047D01*
X0099700Y0084047D01*
X0100029Y0084047D01*
X0100680Y0084150D01*
X0101306Y0084354D01*
X0101400Y0084402D01*
X0101400Y0058000D01*
X0099798Y0058000D01*
X0096400Y0054602D01*
X0096400Y0049798D01*
X0099422Y0046776D01*
X0097000Y0044354D01*
X0097000Y0042200D01*
X0102200Y0042200D01*
X0102200Y0037000D01*
X0104354Y0037000D01*
X0106339Y0038985D01*
X0106544Y0038900D01*
X0107298Y0038900D01*
X0109798Y0036400D01*
X0114602Y0036400D01*
X0117102Y0038900D01*
X0117298Y0038900D01*
X0119798Y0036400D01*
X0124602Y0036400D01*
X0127102Y0038900D01*
X0127298Y0038900D01*
X0129798Y0036400D01*
X0134602Y0036400D01*
X0137102Y0038900D01*
X0137298Y0038900D01*
X0139798Y0036400D01*
X0141733Y0036400D01*
X0139402Y0034069D01*
X0138900Y0032856D01*
X0138900Y0030102D01*
X0137283Y0028485D01*
X0136400Y0026354D01*
X0136400Y0018046D01*
X0137283Y0015915D01*
X0138915Y0014283D01*
X0141046Y0013400D01*
X0143354Y0013400D01*
X0145485Y0014283D01*
X0147117Y0015915D01*
X0147200Y0016115D01*
X0147283Y0015915D01*
X0148915Y0014283D01*
X0151046Y0013400D01*
X0153354Y0013400D01*
X0155485Y0014283D01*
X0157117Y0015915D01*
X0157530Y0016912D01*
X0157753Y0016475D01*
X0158234Y0015812D01*
X0158812Y0015234D01*
X0159475Y0014753D01*
X0160204Y0014381D01*
X0160982Y0014128D01*
X0161791Y0014000D01*
X0162200Y0014000D01*
X0162609Y0014000D01*
X0163418Y0014128D01*
X0164196Y0014381D01*
X0164925Y0014753D01*
X0165588Y0015234D01*
X0166166Y0015812D01*
X0166647Y0016475D01*
X0167019Y0017204D01*
X0167272Y0017982D01*
X0167400Y0018791D01*
X0167400Y0022200D01*
X0167400Y0025609D01*
X0167272Y0026418D01*
X0167019Y0027196D01*
X0166647Y0027925D01*
X0166166Y0028588D01*
X0165588Y0029166D01*
X0164925Y0029647D01*
X0164196Y0030019D01*
X0163418Y0030272D01*
X0162609Y0030400D01*
X0162200Y0030400D01*
X0162200Y0022200D01*
X0167400Y0022200D01*
X0162200Y0022200D01*
X0162200Y0022200D01*
X0162200Y0022200D01*
X0162200Y0014000D01*
X0162200Y0022200D01*
X0162200Y0022200D01*
X0162200Y0030400D01*
X0161791Y0030400D01*
X0160982Y0030272D01*
X0160204Y0030019D01*
X0159475Y0029647D01*
X0158812Y0029166D01*
X0158234Y0028588D01*
X0157753Y0027925D01*
X0157530Y0027488D01*
X0157117Y0028485D01*
X0155500Y0030102D01*
X0155500Y0033959D01*
X0156569Y0034402D01*
X0157498Y0035331D01*
X0159069Y0036902D01*
X0159069Y0036902D01*
X0159182Y0037015D01*
X0159798Y0036400D01*
X0164602Y0036400D01*
X0167102Y0038900D01*
X0167298Y0038900D01*
X0169798Y0036400D01*
X0174602Y0036400D01*
X0175218Y0037015D01*
X0175331Y0036902D01*
X0182831Y0029402D01*
X0184044Y0028900D01*
X0257856Y0028900D01*
X0259069Y0029402D01*
X0268567Y0038900D01*
X0292856Y0038900D01*
X0294069Y0039402D01*
X0299069Y0044402D01*
X0299998Y0045331D01*
X0300500Y0046544D01*
X0300500Y0072856D01*
X0299998Y0074069D01*
X0294368Y0079699D01*
X0293439Y0080628D01*
X0292804Y0080891D01*
X0292763Y0080991D01*
X0291975Y0081778D01*
X0290946Y0082205D01*
X0283927Y0082205D01*
X0282897Y0081778D01*
X0282110Y0080991D01*
X0281683Y0079962D01*
X0281683Y0078870D01*
X0281253Y0079908D01*
X0279908Y0081253D01*
X0278151Y0081981D01*
X0276249Y0081981D01*
X0274492Y0081253D01*
X0273147Y0079908D01*
X0272419Y0078151D01*
X0272419Y0076249D01*
X0273147Y0074492D01*
X0274492Y0073147D01*
X0276249Y0072419D01*
X0277314Y0072419D01*
X0279031Y0070702D01*
X0280244Y0070199D01*
X0282249Y0070199D01*
X0282283Y0070165D01*
X0282283Y0069169D01*
X0283820Y0069169D01*
X0283820Y0069168D01*
X0282283Y0069168D01*
X0282283Y0068172D01*
X0282249Y0068138D01*
X0275929Y0068138D01*
X0274069Y0069998D01*
X0272856Y0070500D01*
X0270661Y0070500D01*
X0269908Y0071253D01*
X0268151Y0071981D01*
X0266249Y0071981D01*
X0264492Y0071253D01*
X0263147Y0069908D01*
X0262419Y0068151D01*
X0262419Y0066249D01*
X0262975Y0064907D01*
X0219500Y0064907D01*
X0219500Y0087798D01*
X0220384Y0087431D01*
X0234174Y0087431D01*
X0235456Y0087963D01*
X0236437Y0088944D01*
X0236968Y0090226D01*
X0236968Y0104016D01*
X0236602Y0104900D01*
X0252431Y0104900D01*
X0252431Y0102824D01*
X0252858Y0101795D01*
X0253098Y0101555D01*
X0253031Y0101309D01*
X0253031Y0098854D01*
X0257200Y0098854D01*
X0261368Y0098854D01*
X0261368Y0101309D01*
X0261302Y0101555D01*
X0261542Y0101795D01*
X0261968Y0102824D01*
X0261968Y0104900D01*
X0262712Y0104900D01*
X0268131Y0099481D01*
X0269481Y0098131D01*
X0271245Y0097400D01*
X0278155Y0097400D01*
X0279919Y0098131D01*
X0288188Y0106400D01*
X0289602Y0106400D01*
X0290602Y0107400D01*
X0318155Y0107400D01*
X0319919Y0108131D01*
X0321269Y0109481D01*
X0324000Y0112212D01*
X0324000Y0112200D01*
X0332200Y0112200D01*
X0340400Y0112200D01*
X0340400Y0112609D01*
X0340272Y0113418D01*
X0340019Y0114196D01*
X0339647Y0114925D01*
X0339166Y0115588D01*
X0338588Y0116166D01*
X0337925Y0116647D01*
X0337488Y0116870D01*
X0338485Y0117283D01*
X0340117Y0118915D01*
X0341000Y0121046D01*
X0341000Y0123354D01*
X0340117Y0125485D01*
X0338485Y0127117D01*
X0338285Y0127200D01*
X0338485Y0127283D01*
X0340117Y0128915D01*
X0341000Y0131046D01*
X0341000Y0133354D01*
X0340117Y0135485D01*
X0338485Y0137117D01*
X0338285Y0137200D01*
X0338485Y0137283D01*
X0340117Y0138915D01*
X0390701Y0138915D01*
X0390701Y0136517D02*
X0339086Y0136517D01*
X0340117Y0138915D02*
X0341000Y0141046D01*
X0341000Y0143354D01*
X0340117Y0145485D01*
X0338485Y0147117D01*
X0338285Y0147200D01*
X0338485Y0147283D01*
X0340117Y0148915D01*
X0341000Y0151046D01*
X0341000Y0153354D01*
X0340117Y0155485D01*
X0338485Y0157117D01*
X0338285Y0157200D01*
X0338485Y0157283D01*
X0340117Y0158915D01*
X0341000Y0161046D01*
X0341000Y0163354D01*
X0340117Y0165485D01*
X0338485Y0167117D01*
X0336354Y0168000D01*
X0328046Y0168000D01*
X0325915Y0167117D01*
X0324998Y0166200D01*
X0316200Y0166200D01*
X0316200Y0252996D01*
X0315591Y0254466D01*
X0306200Y0263857D01*
X0306200Y0266526D01*
X0308190Y0266526D01*
X0309219Y0266952D01*
X0310007Y0267740D01*
X0310433Y0268769D01*
X0310433Y0285631D01*
X0310007Y0286660D01*
X0309219Y0287448D01*
X0308190Y0287874D01*
X0295265Y0287874D01*
X0294236Y0287448D01*
X0293448Y0286660D01*
X0293022Y0285631D01*
X0293022Y0268769D01*
X0293448Y0267740D01*
X0294236Y0266952D01*
X0295265Y0266526D01*
X0298200Y0266526D01*
X0298200Y0263857D01*
X0290543Y0256200D01*
X0253857Y0256200D01*
X0246200Y0263857D01*
X0246200Y0266526D01*
X0249135Y0266526D01*
X0250164Y0266952D01*
X0250952Y0267740D01*
X0251378Y0268769D01*
X0251378Y0285631D01*
X0250952Y0286660D01*
X0250164Y0287448D01*
X0249135Y0287874D01*
X0236210Y0287874D01*
X0235181Y0287448D01*
X0234393Y0286660D01*
X0233967Y0285631D01*
X0233967Y0268769D01*
X0234393Y0267740D01*
X0235181Y0266952D01*
X0236210Y0266526D01*
X0238200Y0266526D01*
X0238200Y0261404D01*
X0238809Y0259934D01*
X0248809Y0249934D01*
X0249934Y0248809D01*
X0251404Y0248200D01*
X0292996Y0248200D01*
X0294466Y0248809D01*
X0302200Y0256543D01*
X0308200Y0250543D01*
X0308200Y0163857D01*
X0295543Y0151200D01*
X0293000Y0151200D01*
X0293000Y0154602D01*
X0290402Y0157200D01*
X0293000Y0159798D01*
X0293000Y0164602D01*
X0290402Y0167200D01*
X0293000Y0169798D01*
X0293000Y0174602D01*
X0290402Y0177200D01*
X0293000Y0179798D01*
X0293000Y0184602D01*
X0290402Y0187200D01*
X0293000Y0189798D01*
X0293000Y0194602D01*
X0290402Y0197200D01*
X0293000Y0199798D01*
X0293000Y0204602D01*
X0290402Y0207200D01*
X0293000Y0209798D01*
X0293000Y0214602D01*
X0290402Y0217200D01*
X0293000Y0219798D01*
X0293000Y0224602D01*
X0289602Y0228000D01*
X0284798Y0228000D01*
X0281776Y0224978D01*
X0279354Y0227400D01*
X0277200Y0227400D01*
X0277200Y0222200D01*
X0277200Y0222200D01*
X0277200Y0227400D01*
X0275046Y0227400D01*
X0272000Y0224354D01*
X0272000Y0223000D01*
X0239998Y0223000D01*
X0240046Y0223094D01*
X0240250Y0223720D01*
X0240353Y0224371D01*
X0240353Y0224700D01*
X0240353Y0225029D01*
X0240250Y0225680D01*
X0240046Y0226306D01*
X0239747Y0226893D01*
X0239360Y0227426D01*
X0238894Y0227892D01*
X0238362Y0228279D01*
X0237775Y0228578D01*
X0237148Y0228781D01*
X0236498Y0228884D01*
X0236220Y0228884D01*
X0236437Y0229102D01*
X0236968Y0230384D01*
X0236968Y0244174D01*
X0236437Y0245456D01*
X0235456Y0246437D01*
X0234174Y0246968D01*
X0220384Y0246968D01*
X0219102Y0246437D01*
X0218884Y0246220D01*
X0218884Y0246498D01*
X0218781Y0247148D01*
X0218578Y0247775D01*
X0218279Y0248362D01*
X0217892Y0248894D01*
X0217426Y0249360D01*
X0216893Y0249747D01*
X0216306Y0250046D01*
X0215680Y0250250D01*
X0215029Y0250353D01*
X0214700Y0250353D01*
X0214371Y0250353D01*
X0213720Y0250250D01*
X0213094Y0250046D01*
X0213000Y0249998D01*
X0213000Y0271400D01*
X0214602Y0271400D01*
X0218000Y0274798D01*
X0218000Y0279602D01*
X0214978Y0282624D01*
X0217400Y0285046D01*
X0217400Y0287200D01*
X0217400Y0289354D01*
X0214354Y0292400D01*
X0212200Y0292400D01*
X0212200Y0287200D01*
X0212200Y0287200D01*
X0217400Y0287200D01*
X0212200Y0287200D01*
X0212200Y0287200D01*
X0212200Y0292400D01*
X0210046Y0292400D01*
X0208061Y0290415D01*
X0207856Y0290500D01*
X0207102Y0290500D01*
X0204602Y0293000D01*
X0199798Y0293000D01*
X0197298Y0290500D01*
X0197102Y0290500D01*
X0194602Y0293000D01*
X0189798Y0293000D01*
X0187298Y0290500D01*
X0187102Y0290500D01*
X0184602Y0293000D01*
X0179798Y0293000D01*
X0177298Y0290500D01*
X0177102Y0290500D01*
X0174602Y0293000D01*
X0169798Y0293000D01*
X0167298Y0290500D01*
X0167102Y0290500D01*
X0164602Y0293000D01*
X0159798Y0293000D01*
X0157298Y0290500D01*
X0157102Y0290500D01*
X0154602Y0293000D01*
X0149798Y0293000D01*
X0147298Y0290500D01*
X0147102Y0290500D01*
X0144602Y0293000D01*
X0139798Y0293000D01*
X0137298Y0290500D01*
X0137102Y0290500D01*
X0134602Y0293000D01*
X0129798Y0293000D01*
X0127298Y0290500D01*
X0127102Y0290500D01*
X0124602Y0293000D01*
X0119798Y0293000D01*
X0117298Y0290500D01*
X0117102Y0290500D01*
X0114602Y0293000D01*
X0109798Y0293000D01*
X0107298Y0290500D01*
X0107102Y0290500D01*
X0104602Y0293000D01*
X0099798Y0293000D01*
X0096400Y0289602D01*
X0096400Y0284798D01*
X0098998Y0282200D01*
X0096400Y0279602D01*
X0096400Y0278188D01*
X0095631Y0277419D01*
X0096241Y0278029D02*
X0032580Y0278029D01*
X0032549Y0277913D02*
X0033305Y0280738D01*
X0033305Y0283662D01*
X0032549Y0286487D01*
X0031087Y0289019D01*
X0029019Y0291087D01*
X0026487Y0292549D01*
X0023662Y0293305D01*
X0020738Y0293305D01*
X0017913Y0292549D01*
X0015381Y0291087D01*
X0013313Y0289019D01*
X0011851Y0286487D01*
X0011094Y0283662D01*
X0011094Y0280738D01*
X0011851Y0277913D01*
X0013313Y0275381D01*
X0015381Y0273313D01*
X0017913Y0271851D01*
X0020738Y0271094D01*
X0023662Y0271094D01*
X0026487Y0271851D01*
X0029019Y0273313D01*
X0031087Y0275381D01*
X0032549Y0277913D01*
X0033222Y0280427D02*
X0097225Y0280427D01*
X0098372Y0282826D02*
X0033305Y0282826D01*
X0032887Y0285224D02*
X0096400Y0285224D01*
X0096400Y0287623D02*
X0031893Y0287623D01*
X0030084Y0290021D02*
X0096819Y0290021D01*
X0099217Y0292420D02*
X0026710Y0292420D01*
X0017690Y0292420D02*
X0007400Y0292420D01*
X0007400Y0294818D02*
X0262883Y0294818D01*
X0262995Y0294883D02*
X0261489Y0294013D01*
X0260064Y0293016D01*
X0258732Y0291898D01*
X0257502Y0290668D01*
X0256384Y0289336D01*
X0255387Y0287911D01*
X0254517Y0286405D01*
X0253782Y0284829D01*
X0253187Y0283195D01*
X0252737Y0281515D01*
X0252435Y0279802D01*
X0252312Y0278400D01*
X0271000Y0278400D01*
X0271000Y0276000D01*
X0273400Y0276000D01*
X0273400Y0278400D01*
X0292088Y0278400D01*
X0291965Y0279802D01*
X0291663Y0281515D01*
X0291213Y0283195D01*
X0290618Y0284829D01*
X0289883Y0286405D01*
X0289013Y0287911D01*
X0288016Y0289336D01*
X0286898Y0290668D01*
X0285668Y0291898D01*
X0284336Y0293016D01*
X0282911Y0294013D01*
X0281405Y0294883D01*
X0279829Y0295618D01*
X0278195Y0296213D01*
X0276515Y0296663D01*
X0274827Y0296961D01*
X0390701Y0296961D01*
X0390701Y0224076D01*
X0390117Y0225485D01*
X0388485Y0227117D01*
X0386354Y0228000D01*
X0378046Y0228000D01*
X0375915Y0227117D01*
X0374283Y0225485D01*
X0373400Y0223354D01*
X0373400Y0221046D01*
X0374283Y0218915D01*
X0375915Y0217283D01*
X0376115Y0217200D01*
X0375915Y0217117D01*
X0374283Y0215485D01*
X0373400Y0213354D01*
X0373400Y0211046D01*
X0374283Y0208915D01*
X0375915Y0207283D01*
X0376115Y0207200D01*
X0375915Y0207117D01*
X0374283Y0205485D01*
X0373400Y0203354D01*
X0373400Y0201046D01*
X0374283Y0198915D01*
X0375915Y0197283D01*
X0376912Y0196870D01*
X0376475Y0196647D01*
X0375812Y0196166D01*
X0375234Y0195588D01*
X0374753Y0194925D01*
X0374381Y0194196D01*
X0374128Y0193418D01*
X0374000Y0192609D01*
X0374000Y0192200D01*
X0382200Y0192200D01*
X0390400Y0192200D01*
X0390400Y0192609D01*
X0390272Y0193418D01*
X0390019Y0194196D01*
X0389647Y0194925D01*
X0389166Y0195588D01*
X0388588Y0196166D01*
X0387925Y0196647D01*
X0387488Y0196870D01*
X0388485Y0197283D01*
X0390117Y0198915D01*
X0390701Y0200324D01*
X0390701Y0012400D01*
X0377437Y0012400D01*
X0379019Y0013313D01*
X0381087Y0015381D01*
X0382549Y0017913D01*
X0383305Y0020738D01*
X0383305Y0023662D01*
X0382549Y0026487D01*
X0381087Y0029019D01*
X0379019Y0031087D01*
X0376487Y0032549D01*
X0373662Y0033305D01*
X0370738Y0033305D01*
X0367913Y0032549D01*
X0365381Y0031087D01*
X0363313Y0029019D01*
X0361851Y0026487D01*
X0361094Y0023662D01*
X0361094Y0020738D01*
X0361851Y0017913D01*
X0363313Y0015381D01*
X0365381Y0013313D01*
X0366963Y0012400D01*
X0007400Y0012400D01*
X0007400Y0296961D01*
X0269573Y0296961D01*
X0267885Y0296663D01*
X0266205Y0296213D01*
X0264571Y0295618D01*
X0262995Y0294883D01*
X0259354Y0292420D02*
X0205183Y0292420D01*
X0199217Y0292420D02*
X0195183Y0292420D01*
X0189217Y0292420D02*
X0185183Y0292420D01*
X0179217Y0292420D02*
X0175183Y0292420D01*
X0169217Y0292420D02*
X0165183Y0292420D01*
X0159217Y0292420D02*
X0155183Y0292420D01*
X0149217Y0292420D02*
X0145183Y0292420D01*
X0139217Y0292420D02*
X0135183Y0292420D01*
X0129217Y0292420D02*
X0125183Y0292420D01*
X0119217Y0292420D02*
X0115183Y0292420D01*
X0109217Y0292420D02*
X0105183Y0292420D01*
X0094900Y0275630D02*
X0031231Y0275630D01*
X0028878Y0273232D02*
X0094900Y0273232D01*
X0094900Y0270833D02*
X0007400Y0270833D01*
X0007400Y0268435D02*
X0094900Y0268435D01*
X0094900Y0266036D02*
X0007400Y0266036D01*
X0007400Y0263638D02*
X0094900Y0263638D01*
X0094900Y0261239D02*
X0007400Y0261239D01*
X0007400Y0258841D02*
X0094900Y0258841D01*
X0094900Y0256442D02*
X0007400Y0256442D01*
X0007400Y0254044D02*
X0094900Y0254044D01*
X0094900Y0251645D02*
X0007400Y0251645D01*
X0007400Y0249247D02*
X0094900Y0249247D01*
X0094900Y0246848D02*
X0094307Y0246848D01*
X0104500Y0237416D02*
X0105652Y0237416D01*
X0107200Y0238057D01*
X0108748Y0237416D01*
X0110652Y0237416D01*
X0112200Y0238057D01*
X0113748Y0237416D01*
X0115652Y0237416D01*
X0117200Y0238057D01*
X0118748Y0237416D01*
X0120652Y0237416D01*
X0122200Y0238057D01*
X0123748Y0237416D01*
X0125652Y0237416D01*
X0127200Y0238057D01*
X0128748Y0237416D01*
X0130652Y0237416D01*
X0132200Y0238057D01*
X0133748Y0237416D01*
X0135652Y0237416D01*
X0137200Y0238057D01*
X0138748Y0237416D01*
X0140652Y0237416D01*
X0142200Y0238057D01*
X0143748Y0237416D01*
X0145652Y0237416D01*
X0147200Y0238057D01*
X0148748Y0237416D01*
X0150652Y0237416D01*
X0152200Y0238057D01*
X0153748Y0237416D01*
X0155652Y0237416D01*
X0157200Y0238057D01*
X0158748Y0237416D01*
X0160652Y0237416D01*
X0162200Y0238057D01*
X0163748Y0237416D01*
X0165652Y0237416D01*
X0167200Y0238057D01*
X0168748Y0237416D01*
X0170652Y0237416D01*
X0172200Y0238057D01*
X0173748Y0237416D01*
X0175652Y0237416D01*
X0177200Y0238057D01*
X0178748Y0237416D01*
X0180652Y0237416D01*
X0182200Y0238057D01*
X0183748Y0237416D01*
X0185652Y0237416D01*
X0187200Y0238057D01*
X0188748Y0237416D01*
X0190652Y0237416D01*
X0192200Y0238057D01*
X0193748Y0237416D01*
X0195652Y0237416D01*
X0197200Y0238057D01*
X0198748Y0237416D01*
X0200652Y0237416D01*
X0202200Y0238057D01*
X0203748Y0237416D01*
X0205652Y0237416D01*
X0207200Y0238057D01*
X0208748Y0237416D01*
X0210652Y0237416D01*
X0212410Y0238144D01*
X0212759Y0238493D01*
X0213094Y0238322D01*
X0213720Y0238119D01*
X0214371Y0238016D01*
X0214700Y0238016D01*
X0215029Y0238016D01*
X0215680Y0238119D01*
X0216306Y0238322D01*
X0216893Y0238621D01*
X0217426Y0239008D01*
X0217589Y0239172D01*
X0217589Y0230384D01*
X0218120Y0229102D01*
X0219102Y0228120D01*
X0220384Y0227589D01*
X0229172Y0227589D01*
X0229008Y0227426D01*
X0228621Y0226893D01*
X0228322Y0226306D01*
X0228119Y0225680D01*
X0228016Y0225029D01*
X0228016Y0224700D01*
X0228016Y0224371D01*
X0228119Y0223720D01*
X0228322Y0223094D01*
X0228493Y0222759D01*
X0228144Y0222410D01*
X0227416Y0220652D01*
X0227416Y0218748D01*
X0228057Y0217200D01*
X0227416Y0215652D01*
X0227416Y0213748D01*
X0228057Y0212200D01*
X0227416Y0210652D01*
X0227416Y0208748D01*
X0228057Y0207200D01*
X0227416Y0205652D01*
X0227416Y0203748D01*
X0228057Y0202200D01*
X0227416Y0200652D01*
X0227416Y0198748D01*
X0228057Y0197200D01*
X0227416Y0195652D01*
X0227416Y0193748D01*
X0228057Y0192200D01*
X0227416Y0190652D01*
X0227416Y0188748D01*
X0228057Y0187200D01*
X0227416Y0185652D01*
X0227416Y0183748D01*
X0228057Y0182200D01*
X0227416Y0180652D01*
X0227416Y0178748D01*
X0228057Y0177200D01*
X0227416Y0175652D01*
X0227416Y0173748D01*
X0228057Y0172200D01*
X0227416Y0170652D01*
X0227416Y0168748D01*
X0228057Y0167200D01*
X0227416Y0165652D01*
X0227416Y0163748D01*
X0228144Y0161990D01*
X0228493Y0161641D01*
X0228322Y0161306D01*
X0228119Y0160680D01*
X0228016Y0160029D01*
X0228016Y0159700D01*
X0228016Y0159371D01*
X0228119Y0158720D01*
X0228322Y0158094D01*
X0228493Y0157759D01*
X0228144Y0157410D01*
X0227416Y0155652D01*
X0227416Y0153748D01*
X0228057Y0152200D01*
X0227416Y0150652D01*
X0227416Y0148748D01*
X0228144Y0146990D01*
X0228493Y0146641D01*
X0228322Y0146306D01*
X0228119Y0145680D01*
X0228016Y0145029D01*
X0228016Y0144700D01*
X0228016Y0144371D01*
X0228119Y0143720D01*
X0228322Y0143094D01*
X0228493Y0142759D01*
X0228144Y0142410D01*
X0227416Y0140652D01*
X0227416Y0138748D01*
X0228057Y0137200D01*
X0227416Y0135652D01*
X0227416Y0133748D01*
X0228057Y0132200D01*
X0227416Y0130652D01*
X0227416Y0128748D01*
X0228057Y0127200D01*
X0227416Y0125652D01*
X0227416Y0123748D01*
X0228057Y0122200D01*
X0227416Y0120652D01*
X0227416Y0118748D01*
X0228057Y0117200D01*
X0227416Y0115652D01*
X0227416Y0114500D01*
X0221245Y0114500D01*
X0219481Y0113769D01*
X0218450Y0112738D01*
X0103898Y0227291D01*
X0104500Y0228745D01*
X0104500Y0237416D01*
X0104500Y0237254D02*
X0217589Y0237254D01*
X0217589Y0234856D02*
X0104500Y0234856D01*
X0104500Y0232457D02*
X0217589Y0232457D01*
X0217724Y0230059D02*
X0104500Y0230059D01*
X0104050Y0227660D02*
X0220212Y0227660D01*
X0228053Y0225262D02*
X0105927Y0225262D01*
X0108325Y0222863D02*
X0228440Y0222863D01*
X0228016Y0224700D02*
X0232200Y0224700D01*
X0240353Y0224700D01*
X0232200Y0224700D01*
X0232200Y0224700D01*
X0232200Y0224700D01*
X0228016Y0224700D01*
X0227416Y0220465D02*
X0110724Y0220465D01*
X0113122Y0218066D02*
X0227698Y0218066D01*
X0227422Y0215668D02*
X0115521Y0215668D01*
X0117919Y0213269D02*
X0227614Y0213269D01*
X0227506Y0210870D02*
X0120318Y0210870D01*
X0122716Y0208472D02*
X0227530Y0208472D01*
X0227590Y0206073D02*
X0125115Y0206073D01*
X0127513Y0203675D02*
X0227446Y0203675D01*
X0227675Y0201276D02*
X0129912Y0201276D01*
X0132310Y0198878D02*
X0227416Y0198878D01*
X0227759Y0196479D02*
X0134709Y0196479D01*
X0137107Y0194081D02*
X0227416Y0194081D01*
X0227843Y0191682D02*
X0139506Y0191682D01*
X0141904Y0189284D02*
X0227416Y0189284D01*
X0227927Y0186885D02*
X0144303Y0186885D01*
X0146701Y0184487D02*
X0227416Y0184487D01*
X0228011Y0182088D02*
X0149100Y0182088D01*
X0151498Y0179690D02*
X0227416Y0179690D01*
X0228019Y0177291D02*
X0153897Y0177291D01*
X0156295Y0174893D02*
X0227416Y0174893D01*
X0227935Y0172494D02*
X0158694Y0172494D01*
X0161092Y0170096D02*
X0227416Y0170096D01*
X0227851Y0167697D02*
X0163491Y0167697D01*
X0165889Y0165299D02*
X0227416Y0165299D01*
X0227767Y0162900D02*
X0168288Y0162900D01*
X0170686Y0160502D02*
X0228091Y0160502D01*
X0228016Y0159700D02*
X0232200Y0159700D01*
X0240353Y0159700D01*
X0240353Y0160029D01*
X0240250Y0160680D01*
X0240046Y0161306D01*
X0239876Y0161641D01*
X0240224Y0161990D01*
X0240953Y0163748D01*
X0240953Y0165652D01*
X0240767Y0166100D01*
X0256538Y0166100D01*
X0256992Y0165647D01*
X0258749Y0164919D01*
X0260651Y0164919D01*
X0262408Y0165647D01*
X0263753Y0166992D01*
X0264481Y0168749D01*
X0264481Y0170651D01*
X0264171Y0171400D01*
X0271400Y0171400D01*
X0271400Y0169798D01*
X0273998Y0167200D01*
X0271400Y0164602D01*
X0271400Y0159798D01*
X0273998Y0157200D01*
X0271400Y0154602D01*
X0271400Y0151200D01*
X0268904Y0151200D01*
X0267434Y0150591D01*
X0266309Y0149466D01*
X0250543Y0133700D01*
X0240933Y0133700D01*
X0240953Y0133748D01*
X0240953Y0135652D01*
X0240311Y0137200D01*
X0240953Y0138748D01*
X0240953Y0140652D01*
X0240224Y0142410D01*
X0239876Y0142759D01*
X0240046Y0143094D01*
X0240250Y0143720D01*
X0240353Y0144371D01*
X0240353Y0144700D01*
X0240353Y0145029D01*
X0240250Y0145680D01*
X0240046Y0146306D01*
X0239876Y0146641D01*
X0240224Y0146990D01*
X0240953Y0148748D01*
X0240953Y0150652D01*
X0240311Y0152200D01*
X0240953Y0153748D01*
X0240953Y0155652D01*
X0240224Y0157410D01*
X0239876Y0157759D01*
X0240046Y0158094D01*
X0240250Y0158720D01*
X0240353Y0159371D01*
X0240353Y0159700D01*
X0232200Y0159700D01*
X0232200Y0159700D01*
X0232200Y0159700D01*
X0228016Y0159700D01*
X0228319Y0158103D02*
X0173085Y0158103D01*
X0175483Y0155705D02*
X0227438Y0155705D01*
X0227599Y0153306D02*
X0177882Y0153306D01*
X0180280Y0150908D02*
X0227522Y0150908D01*
X0227515Y0148509D02*
X0182679Y0148509D01*
X0185078Y0146111D02*
X0228259Y0146111D01*
X0228016Y0144700D02*
X0232200Y0144700D01*
X0240353Y0144700D01*
X0232200Y0144700D01*
X0232200Y0144700D01*
X0232200Y0144700D01*
X0228016Y0144700D01*
X0228121Y0143712D02*
X0187476Y0143712D01*
X0189875Y0141314D02*
X0227690Y0141314D01*
X0227416Y0138915D02*
X0192273Y0138915D01*
X0194672Y0136517D02*
X0227774Y0136517D01*
X0227416Y0134118D02*
X0197070Y0134118D01*
X0199469Y0131720D02*
X0227858Y0131720D01*
X0227416Y0129321D02*
X0201867Y0129321D01*
X0204266Y0126923D02*
X0227942Y0126923D01*
X0227416Y0124524D02*
X0206664Y0124524D01*
X0209063Y0122126D02*
X0228026Y0122126D01*
X0227416Y0119727D02*
X0211461Y0119727D01*
X0213860Y0117329D02*
X0228004Y0117329D01*
X0227416Y0114930D02*
X0216258Y0114930D01*
X0209877Y0107734D02*
X0085895Y0107734D01*
X0085779Y0107507D02*
X0086078Y0108094D01*
X0086281Y0108720D01*
X0086384Y0109371D01*
X0086384Y0109700D01*
X0082200Y0109700D01*
X0086384Y0109700D01*
X0086384Y0110029D01*
X0086281Y0110680D01*
X0086078Y0111306D01*
X0085907Y0111641D01*
X0086256Y0111990D01*
X0086984Y0113748D01*
X0086984Y0115652D01*
X0086343Y0117200D01*
X0086984Y0118748D01*
X0086984Y0120652D01*
X0086343Y0122200D01*
X0086984Y0123748D01*
X0086984Y0125652D01*
X0086343Y0127200D01*
X0086984Y0128748D01*
X0086984Y0130652D01*
X0086343Y0132200D01*
X0086984Y0133748D01*
X0086984Y0135652D01*
X0086343Y0137200D01*
X0086984Y0138748D01*
X0086984Y0140652D01*
X0086343Y0142200D01*
X0086984Y0143748D01*
X0086984Y0145652D01*
X0086343Y0147200D01*
X0086984Y0148748D01*
X0086984Y0150652D01*
X0086343Y0152200D01*
X0086984Y0153748D01*
X0086984Y0155652D01*
X0086343Y0157200D01*
X0086984Y0158748D01*
X0086984Y0160652D01*
X0086343Y0162200D01*
X0086984Y0163748D01*
X0086984Y0165652D01*
X0086343Y0167200D01*
X0086984Y0168748D01*
X0086984Y0170652D01*
X0086343Y0172200D01*
X0086984Y0173748D01*
X0086984Y0175652D01*
X0086343Y0177200D01*
X0086984Y0178748D01*
X0086984Y0180652D01*
X0086343Y0182200D01*
X0086984Y0183748D01*
X0086984Y0185652D01*
X0086343Y0187200D01*
X0086984Y0188748D01*
X0086984Y0190652D01*
X0086343Y0192200D01*
X0086984Y0193748D01*
X0086984Y0195652D01*
X0086343Y0197200D01*
X0086984Y0198748D01*
X0086984Y0200652D01*
X0086343Y0202200D01*
X0086984Y0203748D01*
X0086984Y0205652D01*
X0086343Y0207200D01*
X0086984Y0208748D01*
X0086984Y0210652D01*
X0086343Y0212200D01*
X0086984Y0213748D01*
X0086984Y0215652D01*
X0086343Y0217200D01*
X0086984Y0218748D01*
X0086984Y0219900D01*
X0095655Y0219900D01*
X0097109Y0220502D01*
X0211662Y0105950D01*
X0210631Y0104919D01*
X0209900Y0103155D01*
X0209900Y0096984D01*
X0208748Y0096984D01*
X0207200Y0096343D01*
X0205652Y0096984D01*
X0203748Y0096984D01*
X0202200Y0096343D01*
X0200652Y0096984D01*
X0198748Y0096984D01*
X0197200Y0096343D01*
X0195652Y0096984D01*
X0193748Y0096984D01*
X0192200Y0096343D01*
X0190652Y0096984D01*
X0188748Y0096984D01*
X0187200Y0096343D01*
X0185652Y0096984D01*
X0183748Y0096984D01*
X0182200Y0096343D01*
X0180652Y0096984D01*
X0178748Y0096984D01*
X0177200Y0096343D01*
X0175652Y0096984D01*
X0173748Y0096984D01*
X0172200Y0096343D01*
X0170652Y0096984D01*
X0168748Y0096984D01*
X0167200Y0096343D01*
X0165652Y0096984D01*
X0163748Y0096984D01*
X0162200Y0096343D01*
X0160652Y0096984D01*
X0158748Y0096984D01*
X0157200Y0096343D01*
X0155652Y0096984D01*
X0153748Y0096984D01*
X0152200Y0096343D01*
X0150652Y0096984D01*
X0148748Y0096984D01*
X0147200Y0096343D01*
X0145652Y0096984D01*
X0143748Y0096984D01*
X0142200Y0096343D01*
X0140652Y0096984D01*
X0138748Y0096984D01*
X0137200Y0096343D01*
X0135652Y0096984D01*
X0133748Y0096984D01*
X0132200Y0096343D01*
X0130652Y0096984D01*
X0128748Y0096984D01*
X0127200Y0096343D01*
X0125652Y0096984D01*
X0123748Y0096984D01*
X0122200Y0096343D01*
X0120652Y0096984D01*
X0118748Y0096984D01*
X0117200Y0096343D01*
X0115652Y0096984D01*
X0113748Y0096984D01*
X0112200Y0096343D01*
X0110652Y0096984D01*
X0108748Y0096984D01*
X0107200Y0096343D01*
X0105652Y0096984D01*
X0103748Y0096984D01*
X0101990Y0096256D01*
X0101641Y0095907D01*
X0101306Y0096078D01*
X0100680Y0096281D01*
X0100029Y0096384D01*
X0099700Y0096384D01*
X0099700Y0092200D01*
X0099700Y0092200D01*
X0099700Y0084047D01*
X0099700Y0092200D01*
X0099700Y0092200D01*
X0099700Y0096384D01*
X0099371Y0096384D01*
X0098720Y0096281D01*
X0098094Y0096078D01*
X0097507Y0095779D01*
X0096974Y0095392D01*
X0096811Y0095228D01*
X0096811Y0104016D01*
X0096280Y0105298D01*
X0095298Y0106280D01*
X0094016Y0106811D01*
X0085228Y0106811D01*
X0085392Y0106974D01*
X0085779Y0107507D01*
X0086368Y0110133D02*
X0207479Y0110133D01*
X0205080Y0112532D02*
X0086480Y0112532D01*
X0086984Y0114930D02*
X0202682Y0114930D01*
X0200283Y0117329D02*
X0086396Y0117329D01*
X0086984Y0119727D02*
X0197885Y0119727D01*
X0195486Y0122126D02*
X0086374Y0122126D01*
X0086984Y0124524D02*
X0193088Y0124524D01*
X0190689Y0126923D02*
X0086458Y0126923D01*
X0086984Y0129321D02*
X0188291Y0129321D01*
X0185892Y0131720D02*
X0086542Y0131720D01*
X0086984Y0134118D02*
X0183494Y0134118D01*
X0181095Y0136517D02*
X0086626Y0136517D01*
X0086984Y0138915D02*
X0178697Y0138915D01*
X0176298Y0141314D02*
X0086710Y0141314D01*
X0086969Y0143712D02*
X0173900Y0143712D01*
X0171501Y0146111D02*
X0086794Y0146111D01*
X0086885Y0148509D02*
X0169103Y0148509D01*
X0166704Y0150908D02*
X0086878Y0150908D01*
X0086801Y0153306D02*
X0164306Y0153306D01*
X0161907Y0155705D02*
X0086962Y0155705D01*
X0086717Y0158103D02*
X0159509Y0158103D01*
X0157110Y0160502D02*
X0086984Y0160502D01*
X0086633Y0162900D02*
X0154712Y0162900D01*
X0152313Y0165299D02*
X0086984Y0165299D01*
X0086549Y0167697D02*
X0149914Y0167697D01*
X0147516Y0170096D02*
X0086984Y0170096D01*
X0086465Y0172494D02*
X0145117Y0172494D01*
X0142719Y0174893D02*
X0086984Y0174893D01*
X0086381Y0177291D02*
X0140320Y0177291D01*
X0137922Y0179690D02*
X0086984Y0179690D01*
X0086389Y0182088D02*
X0135523Y0182088D01*
X0133125Y0184487D02*
X0086984Y0184487D01*
X0086473Y0186885D02*
X0130726Y0186885D01*
X0128328Y0189284D02*
X0086984Y0189284D01*
X0086557Y0191682D02*
X0125929Y0191682D01*
X0123531Y0194081D02*
X0086984Y0194081D01*
X0086641Y0196479D02*
X0121132Y0196479D01*
X0118734Y0198878D02*
X0086984Y0198878D01*
X0086725Y0201276D02*
X0116335Y0201276D01*
X0113937Y0203675D02*
X0086954Y0203675D01*
X0086810Y0206073D02*
X0111538Y0206073D01*
X0109140Y0208472D02*
X0086870Y0208472D01*
X0086894Y0210870D02*
X0106741Y0210870D01*
X0104343Y0213269D02*
X0086786Y0213269D01*
X0086978Y0215668D02*
X0101944Y0215668D01*
X0099546Y0218066D02*
X0086702Y0218066D01*
X0097018Y0220465D02*
X0097147Y0220465D01*
X0077566Y0230059D02*
X0071130Y0230059D01*
X0068731Y0232457D02*
X0077431Y0232457D01*
X0077431Y0234856D02*
X0066333Y0234856D01*
X0061968Y0237254D02*
X0077431Y0237254D01*
X0077431Y0239653D02*
X0061730Y0239653D01*
X0061368Y0242051D02*
X0077431Y0242051D01*
X0077546Y0244450D02*
X0061368Y0244450D01*
X0061368Y0245501D02*
X0061219Y0246061D01*
X0060929Y0246563D01*
X0060519Y0246972D01*
X0060018Y0247262D01*
X0059458Y0247412D01*
X0057200Y0247412D01*
X0057200Y0243047D01*
X0057200Y0247412D01*
X0054942Y0247412D01*
X0054382Y0247262D01*
X0053881Y0246972D01*
X0053471Y0246563D01*
X0053181Y0246061D01*
X0053031Y0245501D01*
X0053031Y0243047D01*
X0057200Y0243047D01*
X0057200Y0243047D01*
X0057200Y0243046D01*
X0057200Y0243047D01*
X0061368Y0243047D01*
X0061368Y0245501D01*
X0060643Y0246848D02*
X0079936Y0246848D01*
X0057200Y0246848D02*
X0057200Y0246848D01*
X0057200Y0244450D02*
X0057200Y0244450D01*
X0053031Y0244450D02*
X0007400Y0244450D01*
X0007400Y0246848D02*
X0053757Y0246848D01*
X0053031Y0242051D02*
X0007400Y0242051D01*
X0007400Y0239653D02*
X0052670Y0239653D01*
X0052431Y0237254D02*
X0007400Y0237254D01*
X0007400Y0234856D02*
X0033067Y0234856D01*
X0030669Y0232457D02*
X0007400Y0232457D01*
X0007400Y0230059D02*
X0028270Y0230059D01*
X0024458Y0227660D02*
X0007400Y0227660D01*
X0007400Y0225262D02*
X0022059Y0225262D01*
X0021400Y0222863D02*
X0007400Y0222863D01*
X0007400Y0220465D02*
X0021400Y0220465D01*
X0023132Y0218066D02*
X0007400Y0218066D01*
X0007400Y0215668D02*
X0022465Y0215668D01*
X0021400Y0213269D02*
X0007400Y0213269D01*
X0007400Y0210870D02*
X0021400Y0210870D01*
X0022726Y0208472D02*
X0007400Y0208472D01*
X0007400Y0206073D02*
X0022871Y0206073D01*
X0021400Y0203675D02*
X0007400Y0203675D01*
X0007400Y0201276D02*
X0021400Y0201276D01*
X0022320Y0198878D02*
X0007400Y0198878D01*
X0007400Y0196479D02*
X0023277Y0196479D01*
X0021400Y0194081D02*
X0007400Y0194081D01*
X0007400Y0191682D02*
X0021400Y0191682D01*
X0021914Y0189284D02*
X0007400Y0189284D01*
X0007400Y0186885D02*
X0023683Y0186885D01*
X0021400Y0184487D02*
X0007400Y0184487D01*
X0007400Y0182088D02*
X0021400Y0182088D01*
X0021508Y0179690D02*
X0007400Y0179690D01*
X0007400Y0177291D02*
X0023906Y0177291D01*
X0021690Y0174893D02*
X0007400Y0174893D01*
X0007400Y0172494D02*
X0021400Y0172494D01*
X0021400Y0170096D02*
X0007400Y0170096D01*
X0007400Y0167697D02*
X0023500Y0167697D01*
X0022096Y0165299D02*
X0007400Y0165299D01*
X0007400Y0162900D02*
X0021400Y0162900D01*
X0021400Y0160502D02*
X0007400Y0160502D01*
X0007400Y0158103D02*
X0023094Y0158103D01*
X0022502Y0155705D02*
X0007400Y0155705D01*
X0007400Y0153306D02*
X0021400Y0153306D01*
X0021400Y0150908D02*
X0007400Y0150908D01*
X0007400Y0148509D02*
X0022688Y0148509D01*
X0022908Y0146111D02*
X0007400Y0146111D01*
X0007400Y0143712D02*
X0021400Y0143712D01*
X0021400Y0141314D02*
X0007400Y0141314D01*
X0007400Y0138915D02*
X0022282Y0138915D01*
X0023314Y0136517D02*
X0007400Y0136517D01*
X0007400Y0134118D02*
X0021400Y0134118D01*
X0021400Y0131720D02*
X0007400Y0131720D01*
X0007400Y0129321D02*
X0021876Y0129321D01*
X0023720Y0126923D02*
X0007400Y0126923D01*
X0007400Y0124524D02*
X0021400Y0124524D01*
X0021400Y0122126D02*
X0007400Y0122126D01*
X0007400Y0119727D02*
X0021471Y0119727D01*
X0023869Y0117329D02*
X0007400Y0117329D01*
X0007400Y0114930D02*
X0021728Y0114930D01*
X0021400Y0112532D02*
X0007400Y0112532D01*
X0007400Y0110133D02*
X0021400Y0110133D01*
X0023463Y0107734D02*
X0007400Y0107734D01*
X0007400Y0105336D02*
X0028900Y0105336D01*
X0028900Y0102937D02*
X0007400Y0102937D01*
X0007400Y0100539D02*
X0028900Y0100539D01*
X0028900Y0098140D02*
X0007400Y0098140D01*
X0007400Y0095742D02*
X0019540Y0095742D01*
X0018400Y0093343D02*
X0007400Y0093343D01*
X0007400Y0090945D02*
X0018442Y0090945D01*
X0019651Y0088546D02*
X0007400Y0088546D01*
X0007400Y0086148D02*
X0019945Y0086148D01*
X0018564Y0083749D02*
X0007400Y0083749D01*
X0007400Y0081351D02*
X0018400Y0081351D01*
X0019267Y0078952D02*
X0007400Y0078952D01*
X0007400Y0076554D02*
X0020351Y0076554D01*
X0018732Y0074155D02*
X0007400Y0074155D01*
X0007400Y0071757D02*
X0018400Y0071757D01*
X0019099Y0069358D02*
X0007400Y0069358D01*
X0007400Y0066960D02*
X0020757Y0066960D01*
X0018900Y0064561D02*
X0007400Y0064561D01*
X0007400Y0062163D02*
X0018400Y0062163D01*
X0018931Y0059764D02*
X0007400Y0059764D01*
X0007400Y0057366D02*
X0020832Y0057366D01*
X0019068Y0054967D02*
X0007400Y0054967D01*
X0007400Y0052569D02*
X0018400Y0052569D01*
X0018763Y0050170D02*
X0007400Y0050170D01*
X0007400Y0047772D02*
X0020426Y0047772D01*
X0019237Y0045373D02*
X0007400Y0045373D01*
X0007400Y0042975D02*
X0018400Y0042975D01*
X0018595Y0040576D02*
X0007400Y0040576D01*
X0007400Y0038178D02*
X0020020Y0038178D01*
X0019577Y0035779D02*
X0007400Y0035779D01*
X0007400Y0033381D02*
X0018411Y0033381D01*
X0018427Y0030982D02*
X0007400Y0030982D01*
X0007400Y0028584D02*
X0019614Y0028584D01*
X0020838Y0026185D02*
X0007400Y0026185D01*
X0007400Y0023787D02*
X0019248Y0023787D01*
X0019000Y0022200D02*
X0019000Y0021791D01*
X0019128Y0020982D01*
X0019381Y0020204D01*
X0019753Y0019475D01*
X0020234Y0018812D01*
X0020812Y0018234D01*
X0021475Y0017753D01*
X0022204Y0017381D01*
X0022982Y0017128D01*
X0023791Y0017000D01*
X0027200Y0017000D01*
X0030609Y0017000D01*
X0031418Y0017128D01*
X0032196Y0017381D01*
X0032925Y0017753D01*
X0033588Y0018234D01*
X0034166Y0018812D01*
X0034647Y0019475D01*
X0035019Y0020204D01*
X0035272Y0020982D01*
X0035400Y0021791D01*
X0035400Y0022200D01*
X0027200Y0022200D01*
X0027200Y0022200D01*
X0027200Y0017000D01*
X0027200Y0022200D01*
X0027200Y0022200D01*
X0027200Y0022200D01*
X0019000Y0022200D01*
X0019064Y0021388D02*
X0007400Y0021388D01*
X0007400Y0018990D02*
X0020105Y0018990D01*
X0027200Y0018990D02*
X0027200Y0018990D01*
X0027200Y0021388D02*
X0027200Y0021388D01*
X0034295Y0018990D02*
X0136400Y0018990D01*
X0136400Y0021388D02*
X0035336Y0021388D01*
X0035152Y0023787D02*
X0136400Y0023787D01*
X0136400Y0026185D02*
X0033562Y0026185D01*
X0034786Y0028584D02*
X0137381Y0028584D01*
X0138900Y0030982D02*
X0060267Y0030982D01*
X0060500Y0033381D02*
X0139117Y0033381D01*
X0141112Y0035779D02*
X0060500Y0035779D01*
X0060500Y0038178D02*
X0098868Y0038178D01*
X0100046Y0037000D02*
X0097000Y0040046D01*
X0097000Y0042200D01*
X0102200Y0042200D01*
X0102200Y0042200D01*
X0102200Y0042200D01*
X0102200Y0037000D01*
X0100046Y0037000D01*
X0102200Y0038178D02*
X0102200Y0038178D01*
X0102200Y0040576D02*
X0102200Y0040576D01*
X0105532Y0038178D02*
X0108020Y0038178D01*
X0116380Y0038178D02*
X0118020Y0038178D01*
X0126380Y0038178D02*
X0128020Y0038178D01*
X0136380Y0038178D02*
X0138020Y0038178D01*
X0155500Y0033381D02*
X0178852Y0033381D01*
X0176454Y0035779D02*
X0157946Y0035779D01*
X0157498Y0035331D02*
X0157498Y0035331D01*
X0155500Y0030982D02*
X0181251Y0030982D01*
X0168020Y0038178D02*
X0166380Y0038178D01*
X0166169Y0028584D02*
X0271780Y0028584D01*
X0271912Y0028451D02*
X0272414Y0028162D01*
X0272973Y0028012D01*
X0276973Y0028012D01*
X0276973Y0032839D01*
X0277427Y0032839D01*
X0277427Y0028012D01*
X0281427Y0028012D01*
X0281986Y0028162D01*
X0282488Y0028451D01*
X0282897Y0028861D01*
X0283187Y0029363D01*
X0283337Y0029922D01*
X0283337Y0032839D01*
X0277427Y0032839D01*
X0277427Y0033293D01*
X0283337Y0033293D01*
X0283337Y0036210D01*
X0283187Y0036770D01*
X0282897Y0037271D01*
X0282488Y0037681D01*
X0281986Y0037971D01*
X0281427Y0038120D01*
X0277427Y0038120D01*
X0277427Y0033293D01*
X0276973Y0033293D01*
X0276973Y0032839D01*
X0271063Y0032839D01*
X0271063Y0029922D01*
X0271213Y0029363D01*
X0271503Y0028861D01*
X0271912Y0028451D01*
X0271063Y0030982D02*
X0260649Y0030982D01*
X0263048Y0033381D02*
X0271063Y0033381D01*
X0271063Y0033293D02*
X0276973Y0033293D01*
X0276973Y0038120D01*
X0272973Y0038120D01*
X0272414Y0037971D01*
X0271912Y0037681D01*
X0271503Y0037271D01*
X0271213Y0036770D01*
X0271063Y0036210D01*
X0271063Y0033293D01*
X0271063Y0035779D02*
X0265446Y0035779D01*
X0267845Y0038178D02*
X0390701Y0038178D01*
X0390701Y0040576D02*
X0295243Y0040576D01*
X0297642Y0042975D02*
X0390701Y0042975D01*
X0390701Y0045373D02*
X0300015Y0045373D01*
X0300500Y0047772D02*
X0390701Y0047772D01*
X0390701Y0050170D02*
X0300500Y0050170D01*
X0300500Y0052569D02*
X0390701Y0052569D01*
X0390701Y0054967D02*
X0300500Y0054967D01*
X0300500Y0057366D02*
X0390701Y0057366D01*
X0390701Y0059764D02*
X0300500Y0059764D01*
X0300500Y0062163D02*
X0390701Y0062163D01*
X0390701Y0064561D02*
X0300500Y0064561D01*
X0300500Y0066960D02*
X0390701Y0066960D01*
X0390701Y0069358D02*
X0300500Y0069358D01*
X0300500Y0071757D02*
X0390701Y0071757D01*
X0390701Y0074155D02*
X0299912Y0074155D01*
X0297513Y0076554D02*
X0390701Y0076554D01*
X0390701Y0078952D02*
X0295115Y0078952D01*
X0292403Y0081351D02*
X0390701Y0081351D01*
X0390701Y0083749D02*
X0315932Y0083749D01*
X0315864Y0083496D02*
X0316014Y0084056D01*
X0316014Y0086973D01*
X0310104Y0086973D01*
X0310104Y0082146D01*
X0314104Y0082146D01*
X0314663Y0082296D01*
X0315165Y0082585D01*
X0315575Y0082995D01*
X0315864Y0083496D01*
X0316014Y0086148D02*
X0390701Y0086148D01*
X0390701Y0088546D02*
X0316014Y0088546D01*
X0316014Y0087427D02*
X0316014Y0090344D01*
X0315864Y0090903D01*
X0315575Y0091405D01*
X0315165Y0091815D01*
X0314663Y0092104D01*
X0314104Y0092254D01*
X0310104Y0092254D01*
X0310104Y0087427D01*
X0309650Y0087427D01*
X0309650Y0086973D01*
X0303740Y0086973D01*
X0303740Y0084056D01*
X0303890Y0083496D01*
X0304180Y0082995D01*
X0304589Y0082585D01*
X0305091Y0082296D01*
X0305651Y0082146D01*
X0309650Y0082146D01*
X0309650Y0086973D01*
X0310104Y0086973D01*
X0310104Y0087427D01*
X0316014Y0087427D01*
X0315840Y0090945D02*
X0390701Y0090945D01*
X0390701Y0093343D02*
X0236968Y0093343D01*
X0236968Y0090945D02*
X0271237Y0090945D01*
X0271213Y0090903D02*
X0271063Y0090344D01*
X0271063Y0087427D01*
X0276973Y0087427D01*
X0276973Y0086973D01*
X0277427Y0086973D01*
X0277427Y0082146D01*
X0281427Y0082146D01*
X0281986Y0082296D01*
X0282488Y0082585D01*
X0282897Y0082995D01*
X0283187Y0083496D01*
X0283337Y0084056D01*
X0283337Y0086973D01*
X0277427Y0086973D01*
X0277427Y0087427D01*
X0276973Y0087427D01*
X0276973Y0092254D01*
X0272973Y0092254D01*
X0272414Y0092104D01*
X0271912Y0091815D01*
X0271503Y0091405D01*
X0271213Y0090903D01*
X0271063Y0088546D02*
X0236040Y0088546D01*
X0236968Y0095742D02*
X0253237Y0095742D01*
X0253181Y0095839D02*
X0253471Y0095337D01*
X0253881Y0094928D01*
X0254382Y0094638D01*
X0254942Y0094488D01*
X0257200Y0094488D01*
X0259458Y0094488D01*
X0260018Y0094638D01*
X0260519Y0094928D01*
X0260929Y0095337D01*
X0261219Y0095839D01*
X0261368Y0096399D01*
X0261368Y0098853D01*
X0257200Y0098853D01*
X0257200Y0094488D01*
X0257200Y0098853D01*
X0257200Y0098853D01*
X0257200Y0098854D01*
X0257200Y0098853D01*
X0253031Y0098853D01*
X0253031Y0096399D01*
X0253181Y0095839D01*
X0253031Y0098140D02*
X0236968Y0098140D01*
X0236968Y0100539D02*
X0253031Y0100539D01*
X0252431Y0102937D02*
X0236968Y0102937D01*
X0257200Y0098140D02*
X0257200Y0098140D01*
X0257200Y0095742D02*
X0257200Y0095742D01*
X0261163Y0095742D02*
X0390701Y0095742D01*
X0390701Y0098140D02*
X0279929Y0098140D01*
X0282327Y0100539D02*
X0390701Y0100539D01*
X0390701Y0102937D02*
X0284726Y0102937D01*
X0287124Y0105336D02*
X0390701Y0105336D01*
X0390701Y0107734D02*
X0337890Y0107734D01*
X0337925Y0107753D02*
X0338588Y0108234D01*
X0339166Y0108812D01*
X0339647Y0109475D01*
X0340019Y0110204D01*
X0340272Y0110982D01*
X0340400Y0111791D01*
X0340400Y0112200D01*
X0332200Y0112200D01*
X0332200Y0112200D01*
X0332200Y0107000D01*
X0335609Y0107000D01*
X0336418Y0107128D01*
X0337196Y0107381D01*
X0337925Y0107753D01*
X0339983Y0110133D02*
X0390701Y0110133D01*
X0390701Y0112532D02*
X0340400Y0112532D01*
X0339644Y0114930D02*
X0390701Y0114930D01*
X0390701Y0117329D02*
X0338531Y0117329D01*
X0340454Y0119727D02*
X0390701Y0119727D01*
X0390701Y0122126D02*
X0341000Y0122126D01*
X0340515Y0124524D02*
X0390701Y0124524D01*
X0390701Y0126923D02*
X0338680Y0126923D01*
X0340285Y0129321D02*
X0390701Y0129321D01*
X0390701Y0131720D02*
X0341000Y0131720D01*
X0340683Y0134118D02*
X0390701Y0134118D01*
X0390701Y0141314D02*
X0341000Y0141314D01*
X0340852Y0143712D02*
X0390701Y0143712D01*
X0390701Y0146111D02*
X0339492Y0146111D01*
X0339712Y0148509D02*
X0390701Y0148509D01*
X0390701Y0150908D02*
X0340943Y0150908D01*
X0341000Y0153306D02*
X0390701Y0153306D01*
X0390701Y0155705D02*
X0339898Y0155705D01*
X0339306Y0158103D02*
X0390701Y0158103D01*
X0390701Y0160502D02*
X0340774Y0160502D01*
X0341000Y0162900D02*
X0390701Y0162900D01*
X0390701Y0165299D02*
X0340194Y0165299D01*
X0337084Y0167697D02*
X0390701Y0167697D01*
X0390701Y0170096D02*
X0316200Y0170096D01*
X0316200Y0172494D02*
X0390701Y0172494D01*
X0390701Y0174893D02*
X0316200Y0174893D01*
X0316200Y0177291D02*
X0390701Y0177291D01*
X0390701Y0179690D02*
X0316200Y0179690D01*
X0316200Y0182088D02*
X0390701Y0182088D01*
X0390701Y0184487D02*
X0316200Y0184487D01*
X0316200Y0186885D02*
X0390701Y0186885D01*
X0390701Y0189284D02*
X0389509Y0189284D01*
X0389647Y0189475D02*
X0390019Y0190204D01*
X0390272Y0190982D01*
X0390400Y0191791D01*
X0390400Y0192200D01*
X0382200Y0192200D01*
X0382200Y0192200D01*
X0382200Y0187000D01*
X0385609Y0187000D01*
X0386418Y0187128D01*
X0387196Y0187381D01*
X0387925Y0187753D01*
X0388588Y0188234D01*
X0389166Y0188812D01*
X0389647Y0189475D01*
X0390383Y0191682D02*
X0390701Y0191682D01*
X0390701Y0194081D02*
X0390056Y0194081D01*
X0390701Y0196479D02*
X0388157Y0196479D01*
X0390080Y0198878D02*
X0390701Y0198878D01*
X0382200Y0192200D02*
X0382200Y0192200D01*
X0382200Y0192200D01*
X0382200Y0187000D01*
X0378791Y0187000D01*
X0377982Y0187128D01*
X0377204Y0187381D01*
X0376475Y0187753D01*
X0375812Y0188234D01*
X0375234Y0188812D01*
X0374753Y0189475D01*
X0374381Y0190204D01*
X0374128Y0190982D01*
X0374000Y0191791D01*
X0374000Y0192200D01*
X0382200Y0192200D01*
X0382200Y0191682D02*
X0382200Y0191682D01*
X0382200Y0189284D02*
X0382200Y0189284D01*
X0374891Y0189284D02*
X0364509Y0189284D01*
X0364647Y0189475D02*
X0365019Y0190204D01*
X0365272Y0190982D01*
X0365400Y0191791D01*
X0365400Y0192200D01*
X0365400Y0192609D01*
X0365272Y0193418D01*
X0365019Y0194196D01*
X0364647Y0194925D01*
X0364166Y0195588D01*
X0363588Y0196166D01*
X0362925Y0196647D01*
X0362488Y0196870D01*
X0363485Y0197283D01*
X0365117Y0198915D01*
X0366000Y0201046D01*
X0366000Y0203354D01*
X0365117Y0205485D01*
X0363485Y0207117D01*
X0363285Y0207200D01*
X0363485Y0207283D01*
X0365117Y0208915D01*
X0366000Y0211046D01*
X0366000Y0213354D01*
X0365117Y0215485D01*
X0363485Y0217117D01*
X0363285Y0217200D01*
X0363485Y0217283D01*
X0365117Y0218915D01*
X0366000Y0221046D01*
X0366000Y0223354D01*
X0365117Y0225485D01*
X0363485Y0227117D01*
X0361354Y0228000D01*
X0353046Y0228000D01*
X0350915Y0227117D01*
X0349283Y0225485D01*
X0348400Y0223354D01*
X0348400Y0221046D01*
X0349283Y0218915D01*
X0350915Y0217283D01*
X0351115Y0217200D01*
X0350915Y0217117D01*
X0349283Y0215485D01*
X0348400Y0213354D01*
X0348400Y0211046D01*
X0349283Y0208915D01*
X0350915Y0207283D01*
X0351115Y0207200D01*
X0350915Y0207117D01*
X0349283Y0205485D01*
X0348400Y0203354D01*
X0348400Y0201046D01*
X0349283Y0198915D01*
X0350915Y0197283D01*
X0351912Y0196870D01*
X0351475Y0196647D01*
X0350812Y0196166D01*
X0350234Y0195588D01*
X0349753Y0194925D01*
X0349381Y0194196D01*
X0349128Y0193418D01*
X0349000Y0192609D01*
X0349000Y0192200D01*
X0357200Y0192200D01*
X0365400Y0192200D01*
X0357200Y0192200D01*
X0357200Y0192200D01*
X0357200Y0187000D01*
X0360609Y0187000D01*
X0361418Y0187128D01*
X0362196Y0187381D01*
X0362925Y0187753D01*
X0363588Y0188234D01*
X0364166Y0188812D01*
X0364647Y0189475D01*
X0365383Y0191682D02*
X0374017Y0191682D01*
X0374344Y0194081D02*
X0365056Y0194081D01*
X0363157Y0196479D02*
X0376243Y0196479D01*
X0374320Y0198878D02*
X0365080Y0198878D01*
X0366000Y0201276D02*
X0373400Y0201276D01*
X0373533Y0203675D02*
X0365867Y0203675D01*
X0364529Y0206073D02*
X0374871Y0206073D01*
X0374726Y0208472D02*
X0364674Y0208472D01*
X0365927Y0210870D02*
X0373473Y0210870D01*
X0373400Y0213269D02*
X0366000Y0213269D01*
X0364935Y0215668D02*
X0374465Y0215668D01*
X0375132Y0218066D02*
X0364268Y0218066D01*
X0365759Y0220465D02*
X0373641Y0220465D01*
X0373400Y0222863D02*
X0366000Y0222863D01*
X0365210Y0225262D02*
X0374190Y0225262D01*
X0377226Y0227660D02*
X0362174Y0227660D01*
X0352226Y0227660D02*
X0337174Y0227660D01*
X0336354Y0228000D02*
X0328046Y0228000D01*
X0325915Y0227117D01*
X0324283Y0225485D01*
X0323400Y0223354D01*
X0323400Y0221046D01*
X0324283Y0218915D01*
X0325915Y0217283D01*
X0326115Y0217200D01*
X0325915Y0217117D01*
X0324283Y0215485D01*
X0323400Y0213354D01*
X0323400Y0211046D01*
X0324283Y0208915D01*
X0325915Y0207283D01*
X0326115Y0207200D01*
X0325915Y0207117D01*
X0324283Y0205485D01*
X0323400Y0203354D01*
X0323400Y0201046D01*
X0324283Y0198915D01*
X0325915Y0197283D01*
X0326912Y0196870D01*
X0326475Y0196647D01*
X0325812Y0196166D01*
X0325234Y0195588D01*
X0324753Y0194925D01*
X0324381Y0194196D01*
X0324128Y0193418D01*
X0324000Y0192609D01*
X0324000Y0192200D01*
X0332200Y0192200D01*
X0340400Y0192200D01*
X0340400Y0192609D01*
X0340272Y0193418D01*
X0340019Y0194196D01*
X0339647Y0194925D01*
X0339166Y0195588D01*
X0338588Y0196166D01*
X0337925Y0196647D01*
X0337488Y0196870D01*
X0338485Y0197283D01*
X0340117Y0198915D01*
X0341000Y0201046D01*
X0341000Y0203354D01*
X0340117Y0205485D01*
X0338485Y0207117D01*
X0338285Y0207200D01*
X0338485Y0207283D01*
X0340117Y0208915D01*
X0341000Y0211046D01*
X0341000Y0213354D01*
X0340117Y0215485D01*
X0338485Y0217117D01*
X0338285Y0217200D01*
X0338485Y0217283D01*
X0340117Y0218915D01*
X0341000Y0221046D01*
X0341000Y0223354D01*
X0340117Y0225485D01*
X0338485Y0227117D01*
X0336354Y0228000D01*
X0340210Y0225262D02*
X0349190Y0225262D01*
X0348400Y0222863D02*
X0341000Y0222863D01*
X0340759Y0220465D02*
X0348641Y0220465D01*
X0350132Y0218066D02*
X0339268Y0218066D01*
X0339935Y0215668D02*
X0349465Y0215668D01*
X0348400Y0213269D02*
X0341000Y0213269D01*
X0340927Y0210870D02*
X0348473Y0210870D01*
X0349726Y0208472D02*
X0339674Y0208472D01*
X0339529Y0206073D02*
X0349871Y0206073D01*
X0348533Y0203675D02*
X0340867Y0203675D01*
X0341000Y0201276D02*
X0348400Y0201276D01*
X0349320Y0198878D02*
X0340080Y0198878D01*
X0338157Y0196479D02*
X0351243Y0196479D01*
X0349344Y0194081D02*
X0340056Y0194081D01*
X0340400Y0192200D02*
X0332200Y0192200D01*
X0332200Y0192200D01*
X0332200Y0187000D01*
X0335609Y0187000D01*
X0336418Y0187128D01*
X0337196Y0187381D01*
X0337925Y0187753D01*
X0338588Y0188234D01*
X0339166Y0188812D01*
X0339647Y0189475D01*
X0340019Y0190204D01*
X0340272Y0190982D01*
X0340400Y0191791D01*
X0340400Y0192200D01*
X0340383Y0191682D02*
X0349017Y0191682D01*
X0349000Y0191791D02*
X0349128Y0190982D01*
X0349381Y0190204D01*
X0349753Y0189475D01*
X0350234Y0188812D01*
X0350812Y0188234D01*
X0351475Y0187753D01*
X0352204Y0187381D01*
X0352982Y0187128D01*
X0353791Y0187000D01*
X0357200Y0187000D01*
X0357200Y0192200D01*
X0357200Y0192200D01*
X0357200Y0192200D01*
X0349000Y0192200D01*
X0349000Y0191791D01*
X0349891Y0189284D02*
X0339509Y0189284D01*
X0332200Y0189284D02*
X0332200Y0189284D01*
X0332200Y0187000D02*
X0328791Y0187000D01*
X0327982Y0187128D01*
X0327204Y0187381D01*
X0326475Y0187753D01*
X0325812Y0188234D01*
X0325234Y0188812D01*
X0324753Y0189475D01*
X0324381Y0190204D01*
X0324128Y0190982D01*
X0324000Y0191791D01*
X0324000Y0192200D01*
X0332200Y0192200D01*
X0332200Y0192200D01*
X0332200Y0192200D01*
X0332200Y0187000D01*
X0332200Y0191682D02*
X0332200Y0191682D01*
X0326243Y0196479D02*
X0316200Y0196479D01*
X0316200Y0194081D02*
X0324344Y0194081D01*
X0324017Y0191682D02*
X0316200Y0191682D01*
X0316200Y0189284D02*
X0324891Y0189284D01*
X0324320Y0198878D02*
X0316200Y0198878D01*
X0316200Y0201276D02*
X0323400Y0201276D01*
X0323533Y0203675D02*
X0316200Y0203675D01*
X0316200Y0206073D02*
X0324871Y0206073D01*
X0324726Y0208472D02*
X0316200Y0208472D01*
X0316200Y0210870D02*
X0323473Y0210870D01*
X0323400Y0213269D02*
X0316200Y0213269D01*
X0316200Y0215668D02*
X0324465Y0215668D01*
X0325132Y0218066D02*
X0316200Y0218066D01*
X0316200Y0220465D02*
X0323641Y0220465D01*
X0323400Y0222863D02*
X0316200Y0222863D01*
X0316200Y0225262D02*
X0324190Y0225262D01*
X0327226Y0227660D02*
X0316200Y0227660D01*
X0316200Y0230059D02*
X0390701Y0230059D01*
X0390701Y0232457D02*
X0316200Y0232457D01*
X0316200Y0234856D02*
X0390701Y0234856D01*
X0390701Y0237254D02*
X0316200Y0237254D01*
X0316200Y0239653D02*
X0390701Y0239653D01*
X0390701Y0242051D02*
X0316200Y0242051D01*
X0316200Y0244450D02*
X0390701Y0244450D01*
X0390701Y0246848D02*
X0316200Y0246848D01*
X0316200Y0249247D02*
X0390701Y0249247D01*
X0390701Y0251645D02*
X0316200Y0251645D01*
X0315766Y0254044D02*
X0390701Y0254044D01*
X0390701Y0256442D02*
X0313615Y0256442D01*
X0311216Y0258841D02*
X0390701Y0258841D01*
X0390701Y0261239D02*
X0308818Y0261239D01*
X0306419Y0263638D02*
X0390701Y0263638D01*
X0390701Y0266036D02*
X0306200Y0266036D01*
X0310295Y0268435D02*
X0390701Y0268435D01*
X0390701Y0270833D02*
X0310433Y0270833D01*
X0310433Y0273232D02*
X0365522Y0273232D01*
X0365381Y0273313D02*
X0367913Y0271851D01*
X0370738Y0271094D01*
X0373662Y0271094D01*
X0376487Y0271851D01*
X0379019Y0273313D01*
X0381087Y0275381D01*
X0382549Y0277913D01*
X0383305Y0280738D01*
X0383305Y0283662D01*
X0382549Y0286487D01*
X0381087Y0289019D01*
X0379019Y0291087D01*
X0376487Y0292549D01*
X0373662Y0293305D01*
X0370738Y0293305D01*
X0367913Y0292549D01*
X0365381Y0291087D01*
X0363313Y0289019D01*
X0361851Y0286487D01*
X0361094Y0283662D01*
X0361094Y0280738D01*
X0361851Y0277913D01*
X0363313Y0275381D01*
X0365381Y0273313D01*
X0363169Y0275630D02*
X0310433Y0275630D01*
X0310433Y0278029D02*
X0361820Y0278029D01*
X0361178Y0280427D02*
X0310433Y0280427D01*
X0310433Y0282826D02*
X0361094Y0282826D01*
X0361513Y0285224D02*
X0310433Y0285224D01*
X0308796Y0287623D02*
X0362507Y0287623D01*
X0364316Y0290021D02*
X0287441Y0290021D01*
X0289180Y0287623D02*
X0294659Y0287623D01*
X0293022Y0285224D02*
X0290434Y0285224D01*
X0291312Y0282826D02*
X0293022Y0282826D01*
X0293022Y0280427D02*
X0291855Y0280427D01*
X0293022Y0278029D02*
X0273400Y0278029D01*
X0273400Y0276000D02*
X0292088Y0276000D01*
X0291965Y0274598D01*
X0291663Y0272885D01*
X0291213Y0271205D01*
X0290618Y0269571D01*
X0289883Y0267995D01*
X0289013Y0266489D01*
X0288016Y0265064D01*
X0286898Y0263732D01*
X0285668Y0262502D01*
X0284336Y0261384D01*
X0282911Y0260387D01*
X0281405Y0259517D01*
X0279829Y0258782D01*
X0278195Y0258187D01*
X0276515Y0257737D01*
X0274802Y0257435D01*
X0273400Y0257312D01*
X0273400Y0276000D01*
X0273400Y0275630D02*
X0271000Y0275630D01*
X0271000Y0276000D02*
X0271000Y0257312D01*
X0269598Y0257435D01*
X0267885Y0257737D01*
X0266205Y0258187D01*
X0264571Y0258782D01*
X0262995Y0259517D01*
X0261489Y0260387D01*
X0260064Y0261384D01*
X0258732Y0262502D01*
X0257502Y0263732D01*
X0256384Y0265064D01*
X0255387Y0266489D01*
X0254517Y0267995D01*
X0253782Y0269571D01*
X0253187Y0271205D01*
X0252737Y0272885D01*
X0252435Y0274598D01*
X0252312Y0276000D01*
X0271000Y0276000D01*
X0271000Y0278029D02*
X0251378Y0278029D01*
X0251378Y0280427D02*
X0252545Y0280427D01*
X0253088Y0282826D02*
X0251378Y0282826D01*
X0251378Y0285224D02*
X0253966Y0285224D01*
X0255220Y0287623D02*
X0249741Y0287623D01*
X0256959Y0290021D02*
X0216733Y0290021D01*
X0217400Y0287623D02*
X0235604Y0287623D01*
X0233967Y0285224D02*
X0217400Y0285224D01*
X0215180Y0282826D02*
X0233967Y0282826D01*
X0233967Y0280427D02*
X0217175Y0280427D01*
X0218000Y0278029D02*
X0233967Y0278029D01*
X0233967Y0275630D02*
X0218000Y0275630D01*
X0216434Y0273232D02*
X0233967Y0273232D01*
X0233967Y0270833D02*
X0213000Y0270833D01*
X0213000Y0268435D02*
X0234105Y0268435D01*
X0238200Y0266036D02*
X0213000Y0266036D01*
X0213000Y0263638D02*
X0238200Y0263638D01*
X0238268Y0261239D02*
X0213000Y0261239D01*
X0213000Y0258841D02*
X0239902Y0258841D01*
X0242301Y0256442D02*
X0213000Y0256442D01*
X0213000Y0254044D02*
X0244699Y0254044D01*
X0247098Y0251645D02*
X0213000Y0251645D01*
X0214700Y0250353D02*
X0214700Y0242200D01*
X0214700Y0242200D01*
X0214700Y0250353D01*
X0214700Y0249247D02*
X0214700Y0249247D01*
X0214700Y0246848D02*
X0214700Y0246848D01*
X0214700Y0244450D02*
X0214700Y0244450D01*
X0214700Y0242200D02*
X0214700Y0238016D01*
X0214700Y0242200D01*
X0214700Y0242200D01*
X0214700Y0242051D02*
X0214700Y0242051D01*
X0214700Y0239653D02*
X0214700Y0239653D01*
X0218829Y0246848D02*
X0220093Y0246848D01*
X0217539Y0249247D02*
X0249496Y0249247D01*
X0252200Y0252200D02*
X0292200Y0252200D01*
X0302200Y0262200D01*
X0312200Y0252200D01*
X0312200Y0162200D01*
X0332200Y0162200D01*
X0327316Y0167697D02*
X0316200Y0167697D01*
X0312200Y0162200D02*
X0297200Y0147200D01*
X0269700Y0147200D01*
X0252200Y0129700D01*
X0232200Y0129700D01*
X0240953Y0134118D02*
X0250961Y0134118D01*
X0253360Y0136517D02*
X0240594Y0136517D01*
X0240953Y0138915D02*
X0255758Y0138915D01*
X0258157Y0141314D02*
X0240679Y0141314D01*
X0240247Y0143712D02*
X0260555Y0143712D01*
X0262954Y0146111D02*
X0240110Y0146111D01*
X0240854Y0148509D02*
X0265352Y0148509D01*
X0268199Y0150908D02*
X0240847Y0150908D01*
X0240770Y0153306D02*
X0271400Y0153306D01*
X0272502Y0155705D02*
X0240931Y0155705D01*
X0240049Y0158103D02*
X0273094Y0158103D01*
X0271400Y0160502D02*
X0240278Y0160502D01*
X0240601Y0162900D02*
X0271400Y0162900D01*
X0272096Y0165299D02*
X0261568Y0165299D01*
X0264045Y0167697D02*
X0273500Y0167697D01*
X0271400Y0170096D02*
X0264481Y0170096D01*
X0257832Y0165299D02*
X0240953Y0165299D01*
X0290900Y0167697D02*
X0308200Y0167697D01*
X0308200Y0165299D02*
X0292304Y0165299D01*
X0293000Y0162900D02*
X0307243Y0162900D01*
X0304845Y0160502D02*
X0293000Y0160502D01*
X0291306Y0158103D02*
X0302446Y0158103D01*
X0300048Y0155705D02*
X0291898Y0155705D01*
X0293000Y0153306D02*
X0297649Y0153306D01*
X0293000Y0170096D02*
X0308200Y0170096D01*
X0308200Y0172494D02*
X0293000Y0172494D01*
X0292710Y0174893D02*
X0308200Y0174893D01*
X0308200Y0177291D02*
X0290494Y0177291D01*
X0292892Y0179690D02*
X0308200Y0179690D01*
X0308200Y0182088D02*
X0293000Y0182088D01*
X0293000Y0184487D02*
X0308200Y0184487D01*
X0308200Y0186885D02*
X0290717Y0186885D01*
X0292486Y0189284D02*
X0308200Y0189284D01*
X0308200Y0191682D02*
X0293000Y0191682D01*
X0293000Y0194081D02*
X0308200Y0194081D01*
X0308200Y0196479D02*
X0291123Y0196479D01*
X0292080Y0198878D02*
X0308200Y0198878D01*
X0308200Y0201276D02*
X0293000Y0201276D01*
X0293000Y0203675D02*
X0308200Y0203675D01*
X0308200Y0206073D02*
X0291529Y0206073D01*
X0291674Y0208472D02*
X0308200Y0208472D01*
X0308200Y0210870D02*
X0293000Y0210870D01*
X0293000Y0213269D02*
X0308200Y0213269D01*
X0308200Y0215668D02*
X0291935Y0215668D01*
X0291268Y0218066D02*
X0308200Y0218066D01*
X0308200Y0220465D02*
X0293000Y0220465D01*
X0293000Y0222863D02*
X0308200Y0222863D01*
X0308200Y0225262D02*
X0292341Y0225262D01*
X0289942Y0227660D02*
X0308200Y0227660D01*
X0308200Y0230059D02*
X0236834Y0230059D01*
X0236968Y0232457D02*
X0308200Y0232457D01*
X0308200Y0234856D02*
X0236968Y0234856D01*
X0236968Y0237254D02*
X0308200Y0237254D01*
X0308200Y0239653D02*
X0236968Y0239653D01*
X0236968Y0242051D02*
X0308200Y0242051D01*
X0308200Y0244450D02*
X0236854Y0244450D01*
X0234464Y0246848D02*
X0308200Y0246848D01*
X0308200Y0249247D02*
X0294904Y0249247D01*
X0297302Y0251645D02*
X0307098Y0251645D01*
X0304699Y0254044D02*
X0299701Y0254044D01*
X0302099Y0256442D02*
X0302301Y0256442D01*
X0295582Y0261239D02*
X0284129Y0261239D01*
X0286804Y0263638D02*
X0297981Y0263638D01*
X0298200Y0266036D02*
X0288697Y0266036D01*
X0290088Y0268435D02*
X0293160Y0268435D01*
X0293022Y0270833D02*
X0291077Y0270833D01*
X0291724Y0273232D02*
X0293022Y0273232D01*
X0293022Y0275630D02*
X0292055Y0275630D01*
X0301728Y0277200D02*
X0302200Y0276728D01*
X0302200Y0262200D01*
X0293184Y0258841D02*
X0279955Y0258841D01*
X0273400Y0258841D02*
X0271000Y0258841D01*
X0271000Y0261239D02*
X0273400Y0261239D01*
X0273400Y0263638D02*
X0271000Y0263638D01*
X0271000Y0266036D02*
X0273400Y0266036D01*
X0273400Y0268435D02*
X0271000Y0268435D01*
X0271000Y0270833D02*
X0273400Y0270833D01*
X0273400Y0273232D02*
X0271000Y0273232D01*
X0257596Y0263638D02*
X0246419Y0263638D01*
X0246200Y0266036D02*
X0255703Y0266036D01*
X0254312Y0268435D02*
X0251239Y0268435D01*
X0251378Y0270833D02*
X0253323Y0270833D01*
X0252676Y0273232D02*
X0251378Y0273232D01*
X0251378Y0275630D02*
X0252345Y0275630D01*
X0242672Y0277200D02*
X0242200Y0276728D01*
X0242200Y0262200D01*
X0252200Y0252200D01*
X0253615Y0256442D02*
X0290785Y0256442D01*
X0264445Y0258841D02*
X0251216Y0258841D01*
X0248818Y0261239D02*
X0260271Y0261239D01*
X0239126Y0227660D02*
X0284458Y0227660D01*
X0282059Y0225262D02*
X0281492Y0225262D01*
X0277200Y0225262D02*
X0277200Y0225262D01*
X0277200Y0222863D02*
X0277200Y0222863D01*
X0272908Y0225262D02*
X0240316Y0225262D01*
X0212200Y0287623D02*
X0212200Y0287623D01*
X0212200Y0290021D02*
X0212200Y0290021D01*
X0281517Y0294818D02*
X0390701Y0294818D01*
X0390701Y0292420D02*
X0376710Y0292420D01*
X0380084Y0290021D02*
X0390701Y0290021D01*
X0390701Y0287623D02*
X0381893Y0287623D01*
X0382887Y0285224D02*
X0390701Y0285224D01*
X0390701Y0282826D02*
X0383305Y0282826D01*
X0383222Y0280427D02*
X0390701Y0280427D01*
X0390701Y0278029D02*
X0382580Y0278029D01*
X0381231Y0275630D02*
X0390701Y0275630D01*
X0390701Y0273232D02*
X0378878Y0273232D01*
X0367690Y0292420D02*
X0285046Y0292420D01*
X0387174Y0227660D02*
X0390701Y0227660D01*
X0390701Y0225262D02*
X0390210Y0225262D01*
X0357200Y0191682D02*
X0357200Y0191682D01*
X0357200Y0189284D02*
X0357200Y0189284D01*
X0332200Y0112200D02*
X0332200Y0112200D01*
X0332200Y0112200D01*
X0332200Y0107000D01*
X0328791Y0107000D01*
X0327982Y0107128D01*
X0327204Y0107381D01*
X0326475Y0107753D01*
X0325812Y0108234D01*
X0325234Y0108812D01*
X0324753Y0109475D01*
X0324381Y0110204D01*
X0324128Y0110982D01*
X0324000Y0111791D01*
X0324000Y0112200D01*
X0332200Y0112200D01*
X0332200Y0110133D02*
X0332200Y0110133D01*
X0332200Y0107734D02*
X0332200Y0107734D01*
X0326510Y0107734D02*
X0318962Y0107734D01*
X0321921Y0110133D02*
X0324417Y0110133D01*
X0309650Y0092254D02*
X0305651Y0092254D01*
X0305091Y0092104D01*
X0304589Y0091815D01*
X0304180Y0091405D01*
X0303890Y0090903D01*
X0303740Y0090344D01*
X0303740Y0087427D01*
X0309650Y0087427D01*
X0309650Y0092254D01*
X0309650Y0090945D02*
X0310104Y0090945D01*
X0310104Y0088546D02*
X0309650Y0088546D01*
X0309650Y0086148D02*
X0310104Y0086148D01*
X0310104Y0083749D02*
X0309650Y0083749D01*
X0303822Y0083749D02*
X0283255Y0083749D01*
X0283337Y0086148D02*
X0303740Y0086148D01*
X0303740Y0088546D02*
X0283337Y0088546D01*
X0283337Y0087427D02*
X0283337Y0090344D01*
X0283187Y0090903D01*
X0282897Y0091405D01*
X0282488Y0091815D01*
X0281986Y0092104D01*
X0281427Y0092254D01*
X0277427Y0092254D01*
X0277427Y0087427D01*
X0283337Y0087427D01*
X0283163Y0090945D02*
X0303914Y0090945D01*
X0282470Y0081351D02*
X0279673Y0081351D01*
X0276973Y0082146D02*
X0276973Y0086973D01*
X0271063Y0086973D01*
X0271063Y0084056D01*
X0271213Y0083496D01*
X0271503Y0082995D01*
X0271912Y0082585D01*
X0272414Y0082296D01*
X0272973Y0082146D01*
X0276973Y0082146D01*
X0276973Y0083749D02*
X0277427Y0083749D01*
X0277427Y0086148D02*
X0276973Y0086148D01*
X0276973Y0088546D02*
X0277427Y0088546D01*
X0277427Y0090945D02*
X0276973Y0090945D01*
X0271063Y0086148D02*
X0219500Y0086148D01*
X0219500Y0083749D02*
X0271145Y0083749D01*
X0274727Y0081351D02*
X0219500Y0081351D01*
X0219500Y0078952D02*
X0272751Y0078952D01*
X0272419Y0076554D02*
X0219500Y0076554D01*
X0219500Y0074155D02*
X0273483Y0074155D01*
X0277976Y0071757D02*
X0268692Y0071757D01*
X0265708Y0071757D02*
X0219500Y0071757D01*
X0219500Y0069358D02*
X0262919Y0069358D01*
X0262419Y0066960D02*
X0219500Y0066960D01*
X0214700Y0062200D02*
X0214700Y0060507D01*
X0209900Y0098140D02*
X0096811Y0098140D01*
X0096811Y0095742D02*
X0097456Y0095742D01*
X0099700Y0095742D02*
X0099700Y0095742D01*
X0099700Y0093343D02*
X0099700Y0093343D01*
X0099700Y0090945D02*
X0099700Y0090945D01*
X0099700Y0088546D02*
X0099700Y0088546D01*
X0099700Y0086148D02*
X0099700Y0086148D01*
X0101400Y0083749D02*
X0060500Y0083749D01*
X0060500Y0081351D02*
X0101400Y0081351D01*
X0101400Y0078952D02*
X0060500Y0078952D01*
X0060500Y0076554D02*
X0101400Y0076554D01*
X0101400Y0074155D02*
X0060500Y0074155D01*
X0060500Y0071757D02*
X0101400Y0071757D01*
X0101400Y0069358D02*
X0060500Y0069358D01*
X0060500Y0066960D02*
X0101400Y0066960D01*
X0101400Y0064561D02*
X0060500Y0064561D01*
X0060500Y0062163D02*
X0101400Y0062163D01*
X0101400Y0059764D02*
X0060500Y0059764D01*
X0060500Y0057366D02*
X0099163Y0057366D01*
X0096765Y0054967D02*
X0060500Y0054967D01*
X0060500Y0052569D02*
X0096400Y0052569D01*
X0096400Y0050170D02*
X0060500Y0050170D01*
X0060500Y0047772D02*
X0098426Y0047772D01*
X0098019Y0045373D02*
X0060500Y0045373D01*
X0060500Y0042975D02*
X0097000Y0042975D01*
X0097000Y0040576D02*
X0060500Y0040576D01*
X0060500Y0086148D02*
X0096066Y0086148D01*
X0096811Y0100539D02*
X0209900Y0100539D01*
X0209900Y0102937D02*
X0096811Y0102937D01*
X0096242Y0105336D02*
X0211048Y0105336D01*
X0261368Y0100539D02*
X0267073Y0100539D01*
X0269471Y0098140D02*
X0261368Y0098140D01*
X0261968Y0102937D02*
X0264674Y0102937D01*
X0281649Y0078952D02*
X0281683Y0078952D01*
X0282283Y0069358D02*
X0274709Y0069358D01*
X0283820Y0069168D02*
X0283820Y0069168D01*
X0283337Y0035779D02*
X0303740Y0035779D01*
X0303740Y0036210D02*
X0303740Y0033293D01*
X0309650Y0033293D01*
X0309650Y0032839D01*
X0303740Y0032839D01*
X0303740Y0029922D01*
X0303890Y0029363D01*
X0304180Y0028861D01*
X0304589Y0028451D01*
X0305091Y0028162D01*
X0305651Y0028012D01*
X0309650Y0028012D01*
X0309650Y0032839D01*
X0310104Y0032839D01*
X0310104Y0028012D01*
X0314104Y0028012D01*
X0314663Y0028162D01*
X0315165Y0028451D01*
X0315575Y0028861D01*
X0315864Y0029363D01*
X0316014Y0029922D01*
X0316014Y0032839D01*
X0310104Y0032839D01*
X0310104Y0033293D01*
X0309650Y0033293D01*
X0309650Y0038120D01*
X0305651Y0038120D01*
X0305091Y0037971D01*
X0304589Y0037681D01*
X0304180Y0037271D01*
X0303890Y0036770D01*
X0303740Y0036210D01*
X0303740Y0033381D02*
X0283337Y0033381D01*
X0283337Y0030982D02*
X0303740Y0030982D01*
X0304457Y0028584D02*
X0282620Y0028584D01*
X0277427Y0028584D02*
X0276973Y0028584D01*
X0276973Y0030982D02*
X0277427Y0030982D01*
X0277427Y0033381D02*
X0276973Y0033381D01*
X0276973Y0035779D02*
X0277427Y0035779D01*
X0309650Y0035779D02*
X0310104Y0035779D01*
X0310104Y0038120D02*
X0310104Y0033293D01*
X0316014Y0033293D01*
X0316014Y0036210D01*
X0315864Y0036770D01*
X0315575Y0037271D01*
X0315165Y0037681D01*
X0314663Y0037971D01*
X0314104Y0038120D01*
X0310104Y0038120D01*
X0310104Y0033381D02*
X0309650Y0033381D01*
X0309650Y0030982D02*
X0310104Y0030982D01*
X0310104Y0028584D02*
X0309650Y0028584D01*
X0315297Y0028584D02*
X0363062Y0028584D01*
X0361771Y0026185D02*
X0167309Y0026185D01*
X0167400Y0023787D02*
X0361128Y0023787D01*
X0361094Y0021388D02*
X0167400Y0021388D01*
X0167400Y0018990D02*
X0361563Y0018990D01*
X0362615Y0016591D02*
X0166707Y0016591D01*
X0163616Y0014193D02*
X0364502Y0014193D01*
X0379898Y0014193D02*
X0390701Y0014193D01*
X0390701Y0016591D02*
X0381785Y0016591D01*
X0382837Y0018990D02*
X0390701Y0018990D01*
X0390701Y0021388D02*
X0383305Y0021388D01*
X0383272Y0023787D02*
X0390701Y0023787D01*
X0390701Y0026185D02*
X0382629Y0026185D01*
X0381338Y0028584D02*
X0390701Y0028584D01*
X0390701Y0030982D02*
X0379123Y0030982D01*
X0390701Y0033381D02*
X0316014Y0033381D01*
X0316014Y0035779D02*
X0390701Y0035779D01*
X0365277Y0030982D02*
X0316014Y0030982D01*
X0162200Y0028584D02*
X0162200Y0028584D01*
X0162200Y0026185D02*
X0162200Y0026185D01*
X0162200Y0023787D02*
X0162200Y0023787D01*
X0162200Y0021388D02*
X0162200Y0021388D01*
X0162200Y0018990D02*
X0162200Y0018990D01*
X0162200Y0016591D02*
X0162200Y0016591D01*
X0162200Y0014193D02*
X0162200Y0014193D01*
X0160784Y0014193D02*
X0155267Y0014193D01*
X0157397Y0016591D02*
X0157693Y0016591D01*
X0149133Y0014193D02*
X0145267Y0014193D01*
X0139133Y0014193D02*
X0007400Y0014193D01*
X0007400Y0016591D02*
X0137003Y0016591D01*
X0157019Y0028584D02*
X0158231Y0028584D01*
X0078360Y0088546D02*
X0060500Y0088546D01*
X0060500Y0090945D02*
X0077431Y0090945D01*
X0077431Y0093343D02*
X0060510Y0093343D01*
X0062909Y0095742D02*
X0077431Y0095742D01*
X0077431Y0098140D02*
X0065307Y0098140D01*
X0067706Y0100539D02*
X0077431Y0100539D01*
X0077431Y0102937D02*
X0070104Y0102937D01*
X0072503Y0105336D02*
X0078000Y0105336D01*
X0082200Y0109700D02*
X0082200Y0109700D01*
X0041400Y0109046D02*
X0041400Y0085500D01*
X0035102Y0085500D01*
X0033485Y0087117D01*
X0033285Y0087200D01*
X0033485Y0087283D01*
X0035117Y0088915D01*
X0036000Y0091046D01*
X0036000Y0093354D01*
X0035500Y0094561D01*
X0035500Y0107000D01*
X0037200Y0107000D01*
X0039354Y0107000D01*
X0041400Y0109046D01*
X0041400Y0107734D02*
X0040088Y0107734D01*
X0041400Y0105336D02*
X0035500Y0105336D01*
X0037200Y0107000D02*
X0037200Y0112200D01*
X0037200Y0107000D01*
X0037200Y0107734D02*
X0037200Y0107734D01*
X0037200Y0110133D02*
X0037200Y0110133D01*
X0037200Y0112200D02*
X0037200Y0112200D01*
X0035500Y0102937D02*
X0041400Y0102937D01*
X0041400Y0100539D02*
X0035500Y0100539D01*
X0035500Y0098140D02*
X0041400Y0098140D01*
X0041400Y0095742D02*
X0035500Y0095742D01*
X0036000Y0093343D02*
X0041400Y0093343D01*
X0041400Y0090945D02*
X0035958Y0090945D01*
X0034749Y0088546D02*
X0041400Y0088546D01*
X0041400Y0086148D02*
X0034455Y0086148D01*
X0015522Y0273232D02*
X0007400Y0273232D01*
X0007400Y0275630D02*
X0013169Y0275630D01*
X0011820Y0278029D02*
X0007400Y0278029D01*
X0007400Y0280427D02*
X0011178Y0280427D01*
X0011094Y0282826D02*
X0007400Y0282826D01*
X0007400Y0285224D02*
X0011513Y0285224D01*
X0012507Y0287623D02*
X0007400Y0287623D01*
X0007400Y0290021D02*
X0014316Y0290021D01*
D23*
X0232200Y0169700D02*
X0259700Y0169700D01*
X0263676Y0056176D02*
X0262200Y0054700D01*
X0263676Y0056176D02*
X0287436Y0056176D01*
D24*
X0277200Y0102200D02*
X0272200Y0102200D01*
X0264700Y0109700D01*
X0257200Y0109700D01*
X0232200Y0109700D01*
X0222200Y0109700D01*
X0218450Y0105950D01*
X0097200Y0227200D01*
X0099700Y0229700D01*
X0099700Y0242200D01*
X0099700Y0274700D01*
X0102200Y0277200D01*
X0062200Y0232200D02*
X0057200Y0232200D01*
X0037200Y0232200D01*
X0027200Y0222200D01*
X0062200Y0232200D02*
X0069700Y0224700D01*
X0082200Y0224700D01*
X0094700Y0224700D01*
X0097200Y0227200D01*
X0218450Y0105950D02*
X0214700Y0102200D01*
X0214700Y0092200D01*
X0214700Y0062200D01*
X0214700Y0059700D01*
X0214700Y0054700D01*
X0212200Y0052200D01*
X0277200Y0102200D02*
X0287200Y0112200D01*
X0317200Y0112200D01*
X0327200Y0122200D01*
X0332200Y0122200D01*
D25*
X0257200Y0109700D02*
X0257200Y0105546D01*
X0287436Y0060507D02*
X0214700Y0060507D01*
X0214759Y0059759D02*
X0214700Y0059700D01*
X0057200Y0232200D02*
X0057200Y0236354D01*
M02*
