G75*
%MOIN*%
%OFA0B0*%
%FSLAX25Y25*%
%IPPOS*%
%LPD*%
%AMOC8*
5,1,8,0,0,1.08239X$1,22.5*
%
%ADD10C,0.00000*%
%ADD11R,0.03400X0.00100*%
%ADD12R,0.04800X0.00100*%
%ADD13R,0.05900X0.00100*%
%ADD14R,0.06800X0.00100*%
%ADD15R,0.07600X0.00100*%
%ADD16R,0.00100X0.00100*%
%ADD17R,0.00900X0.00100*%
%ADD18R,0.03200X0.00100*%
%ADD19R,0.03000X0.00100*%
%ADD20R,0.00400X0.00100*%
%ADD21R,0.00700X0.00100*%
%ADD22R,0.00500X0.00100*%
%ADD23R,0.02700X0.00100*%
%ADD24R,0.02300X0.00100*%
%ADD25R,0.00200X0.00100*%
%ADD26R,0.00600X0.00100*%
%ADD27R,0.02400X0.00100*%
%ADD28R,0.02200X0.00100*%
%ADD29R,0.02600X0.00100*%
%ADD30R,0.00300X0.00100*%
%ADD31R,0.01900X0.00100*%
%ADD32R,0.01800X0.00100*%
%ADD33R,0.00800X0.00100*%
%ADD34R,0.02000X0.00100*%
%ADD35R,0.01500X0.00100*%
%ADD36R,0.01600X0.00100*%
%ADD37R,0.01400X0.00100*%
%ADD38R,0.01100X0.00100*%
%ADD39R,0.01700X0.00100*%
%ADD40R,0.01300X0.00100*%
%ADD41R,0.01200X0.00100*%
%ADD42R,0.03700X0.00100*%
%ADD43R,0.05500X0.00100*%
%ADD44R,0.01000X0.00100*%
%ADD45R,0.08000X0.00100*%
%ADD46R,0.02100X0.00100*%
%ADD47R,0.02900X0.00100*%
%ADD48R,0.04200X0.00100*%
%ADD49R,0.05200X0.00100*%
%ADD50R,0.06000X0.00100*%
%ADD51R,0.06700X0.00100*%
%ADD52R,0.07400X0.00100*%
%ADD53R,0.08500X0.00100*%
%ADD54R,0.09000X0.00100*%
%ADD55R,0.09500X0.00100*%
%ADD56R,0.09900X0.00100*%
%ADD57R,0.10300X0.00100*%
%ADD58R,0.10700X0.00100*%
%ADD59R,0.11100X0.00100*%
%ADD60R,0.11500X0.00100*%
%ADD61R,0.11800X0.00100*%
%ADD62R,0.12200X0.00100*%
%ADD63R,0.12500X0.00100*%
%ADD64R,0.04100X0.00100*%
%ADD65R,0.08600X0.00100*%
%ADD66R,0.04500X0.00100*%
%ADD67R,0.04400X0.00100*%
%ADD68R,0.04600X0.00100*%
%ADD69R,0.04900X0.00100*%
%ADD70R,0.05100X0.00100*%
%ADD71R,0.05000X0.00100*%
%ADD72R,0.03500X0.00100*%
%ADD73R,0.05400X0.00100*%
%ADD74R,0.05600X0.00100*%
%ADD75R,0.05800X0.00100*%
%ADD76R,0.02800X0.00100*%
%ADD77R,0.06100X0.00100*%
%ADD78R,0.03300X0.00100*%
%ADD79R,0.06300X0.00100*%
%ADD80R,0.06400X0.00100*%
%ADD81R,0.06600X0.00100*%
%ADD82R,0.06900X0.00100*%
%ADD83R,0.07100X0.00100*%
%ADD84R,0.03100X0.00100*%
%ADD85R,0.07200X0.00100*%
%ADD86R,0.02500X0.00100*%
%ADD87R,0.07700X0.00100*%
%ADD88R,0.07900X0.00100*%
%ADD89R,0.08100X0.00100*%
%ADD90R,0.08200X0.00100*%
%ADD91R,0.08300X0.00100*%
%ADD92R,0.08400X0.00100*%
%ADD93R,0.08800X0.00100*%
%ADD94R,0.09200X0.00100*%
%ADD95R,0.09300X0.00100*%
%ADD96R,0.09400X0.00100*%
%ADD97R,0.09600X0.00100*%
%ADD98R,0.11300X0.00100*%
%ADD99R,0.11400X0.00100*%
%ADD100R,0.10500X0.00100*%
%ADD101R,0.10100X0.00100*%
%ADD102R,0.10200X0.00100*%
%ADD103R,0.06500X0.00100*%
%ADD104R,0.06200X0.00100*%
%ADD105R,0.04700X0.00100*%
%ADD106R,0.03900X0.00100*%
%ADD107R,0.03600X0.00100*%
%ADD108R,0.04000X0.00100*%
%ADD109R,0.04300X0.00100*%
%ADD110R,0.05300X0.00100*%
%ADD111R,0.07000X0.00100*%
%ADD112R,0.05700X0.00100*%
%ADD113R,0.03800X0.00100*%
%ADD114C,0.00300*%
%ADD115C,0.00600*%
%ADD116C,0.00500*%
%ADD117C,0.02400*%
%ADD118C,0.00800*%
%ADD119C,0.00400*%
D10*
X0002200Y0007200D02*
X0002200Y0302161D01*
X0395901Y0302161D01*
X0395901Y0007200D01*
X0002200Y0007200D01*
X0016294Y0282200D02*
X0016296Y0282353D01*
X0016302Y0282507D01*
X0016312Y0282660D01*
X0016326Y0282812D01*
X0016344Y0282965D01*
X0016366Y0283116D01*
X0016391Y0283267D01*
X0016421Y0283418D01*
X0016455Y0283568D01*
X0016492Y0283716D01*
X0016533Y0283864D01*
X0016578Y0284010D01*
X0016627Y0284156D01*
X0016680Y0284300D01*
X0016736Y0284442D01*
X0016796Y0284583D01*
X0016860Y0284723D01*
X0016927Y0284861D01*
X0016998Y0284997D01*
X0017073Y0285131D01*
X0017150Y0285263D01*
X0017232Y0285393D01*
X0017316Y0285521D01*
X0017404Y0285647D01*
X0017495Y0285770D01*
X0017589Y0285891D01*
X0017687Y0286009D01*
X0017787Y0286125D01*
X0017891Y0286238D01*
X0017997Y0286349D01*
X0018106Y0286457D01*
X0018218Y0286562D01*
X0018332Y0286663D01*
X0018450Y0286762D01*
X0018569Y0286858D01*
X0018691Y0286951D01*
X0018816Y0287040D01*
X0018943Y0287127D01*
X0019072Y0287209D01*
X0019203Y0287289D01*
X0019336Y0287365D01*
X0019471Y0287438D01*
X0019608Y0287507D01*
X0019747Y0287572D01*
X0019887Y0287634D01*
X0020029Y0287692D01*
X0020172Y0287747D01*
X0020317Y0287798D01*
X0020463Y0287845D01*
X0020610Y0287888D01*
X0020758Y0287927D01*
X0020907Y0287963D01*
X0021057Y0287994D01*
X0021208Y0288022D01*
X0021359Y0288046D01*
X0021512Y0288066D01*
X0021664Y0288082D01*
X0021817Y0288094D01*
X0021970Y0288102D01*
X0022123Y0288106D01*
X0022277Y0288106D01*
X0022430Y0288102D01*
X0022583Y0288094D01*
X0022736Y0288082D01*
X0022888Y0288066D01*
X0023041Y0288046D01*
X0023192Y0288022D01*
X0023343Y0287994D01*
X0023493Y0287963D01*
X0023642Y0287927D01*
X0023790Y0287888D01*
X0023937Y0287845D01*
X0024083Y0287798D01*
X0024228Y0287747D01*
X0024371Y0287692D01*
X0024513Y0287634D01*
X0024653Y0287572D01*
X0024792Y0287507D01*
X0024929Y0287438D01*
X0025064Y0287365D01*
X0025197Y0287289D01*
X0025328Y0287209D01*
X0025457Y0287127D01*
X0025584Y0287040D01*
X0025709Y0286951D01*
X0025831Y0286858D01*
X0025950Y0286762D01*
X0026068Y0286663D01*
X0026182Y0286562D01*
X0026294Y0286457D01*
X0026403Y0286349D01*
X0026509Y0286238D01*
X0026613Y0286125D01*
X0026713Y0286009D01*
X0026811Y0285891D01*
X0026905Y0285770D01*
X0026996Y0285647D01*
X0027084Y0285521D01*
X0027168Y0285393D01*
X0027250Y0285263D01*
X0027327Y0285131D01*
X0027402Y0284997D01*
X0027473Y0284861D01*
X0027540Y0284723D01*
X0027604Y0284583D01*
X0027664Y0284442D01*
X0027720Y0284300D01*
X0027773Y0284156D01*
X0027822Y0284010D01*
X0027867Y0283864D01*
X0027908Y0283716D01*
X0027945Y0283568D01*
X0027979Y0283418D01*
X0028009Y0283267D01*
X0028034Y0283116D01*
X0028056Y0282965D01*
X0028074Y0282812D01*
X0028088Y0282660D01*
X0028098Y0282507D01*
X0028104Y0282353D01*
X0028106Y0282200D01*
X0028104Y0282047D01*
X0028098Y0281893D01*
X0028088Y0281740D01*
X0028074Y0281588D01*
X0028056Y0281435D01*
X0028034Y0281284D01*
X0028009Y0281133D01*
X0027979Y0280982D01*
X0027945Y0280832D01*
X0027908Y0280684D01*
X0027867Y0280536D01*
X0027822Y0280390D01*
X0027773Y0280244D01*
X0027720Y0280100D01*
X0027664Y0279958D01*
X0027604Y0279817D01*
X0027540Y0279677D01*
X0027473Y0279539D01*
X0027402Y0279403D01*
X0027327Y0279269D01*
X0027250Y0279137D01*
X0027168Y0279007D01*
X0027084Y0278879D01*
X0026996Y0278753D01*
X0026905Y0278630D01*
X0026811Y0278509D01*
X0026713Y0278391D01*
X0026613Y0278275D01*
X0026509Y0278162D01*
X0026403Y0278051D01*
X0026294Y0277943D01*
X0026182Y0277838D01*
X0026068Y0277737D01*
X0025950Y0277638D01*
X0025831Y0277542D01*
X0025709Y0277449D01*
X0025584Y0277360D01*
X0025457Y0277273D01*
X0025328Y0277191D01*
X0025197Y0277111D01*
X0025064Y0277035D01*
X0024929Y0276962D01*
X0024792Y0276893D01*
X0024653Y0276828D01*
X0024513Y0276766D01*
X0024371Y0276708D01*
X0024228Y0276653D01*
X0024083Y0276602D01*
X0023937Y0276555D01*
X0023790Y0276512D01*
X0023642Y0276473D01*
X0023493Y0276437D01*
X0023343Y0276406D01*
X0023192Y0276378D01*
X0023041Y0276354D01*
X0022888Y0276334D01*
X0022736Y0276318D01*
X0022583Y0276306D01*
X0022430Y0276298D01*
X0022277Y0276294D01*
X0022123Y0276294D01*
X0021970Y0276298D01*
X0021817Y0276306D01*
X0021664Y0276318D01*
X0021512Y0276334D01*
X0021359Y0276354D01*
X0021208Y0276378D01*
X0021057Y0276406D01*
X0020907Y0276437D01*
X0020758Y0276473D01*
X0020610Y0276512D01*
X0020463Y0276555D01*
X0020317Y0276602D01*
X0020172Y0276653D01*
X0020029Y0276708D01*
X0019887Y0276766D01*
X0019747Y0276828D01*
X0019608Y0276893D01*
X0019471Y0276962D01*
X0019336Y0277035D01*
X0019203Y0277111D01*
X0019072Y0277191D01*
X0018943Y0277273D01*
X0018816Y0277360D01*
X0018691Y0277449D01*
X0018569Y0277542D01*
X0018450Y0277638D01*
X0018332Y0277737D01*
X0018218Y0277838D01*
X0018106Y0277943D01*
X0017997Y0278051D01*
X0017891Y0278162D01*
X0017787Y0278275D01*
X0017687Y0278391D01*
X0017589Y0278509D01*
X0017495Y0278630D01*
X0017404Y0278753D01*
X0017316Y0278879D01*
X0017232Y0279007D01*
X0017150Y0279137D01*
X0017073Y0279269D01*
X0016998Y0279403D01*
X0016927Y0279539D01*
X0016860Y0279677D01*
X0016796Y0279817D01*
X0016736Y0279958D01*
X0016680Y0280100D01*
X0016627Y0280244D01*
X0016578Y0280390D01*
X0016533Y0280536D01*
X0016492Y0280684D01*
X0016455Y0280832D01*
X0016421Y0280982D01*
X0016391Y0281133D01*
X0016366Y0281284D01*
X0016344Y0281435D01*
X0016326Y0281588D01*
X0016312Y0281740D01*
X0016302Y0281893D01*
X0016296Y0282047D01*
X0016294Y0282200D01*
X0366294Y0282200D02*
X0366296Y0282353D01*
X0366302Y0282507D01*
X0366312Y0282660D01*
X0366326Y0282812D01*
X0366344Y0282965D01*
X0366366Y0283116D01*
X0366391Y0283267D01*
X0366421Y0283418D01*
X0366455Y0283568D01*
X0366492Y0283716D01*
X0366533Y0283864D01*
X0366578Y0284010D01*
X0366627Y0284156D01*
X0366680Y0284300D01*
X0366736Y0284442D01*
X0366796Y0284583D01*
X0366860Y0284723D01*
X0366927Y0284861D01*
X0366998Y0284997D01*
X0367073Y0285131D01*
X0367150Y0285263D01*
X0367232Y0285393D01*
X0367316Y0285521D01*
X0367404Y0285647D01*
X0367495Y0285770D01*
X0367589Y0285891D01*
X0367687Y0286009D01*
X0367787Y0286125D01*
X0367891Y0286238D01*
X0367997Y0286349D01*
X0368106Y0286457D01*
X0368218Y0286562D01*
X0368332Y0286663D01*
X0368450Y0286762D01*
X0368569Y0286858D01*
X0368691Y0286951D01*
X0368816Y0287040D01*
X0368943Y0287127D01*
X0369072Y0287209D01*
X0369203Y0287289D01*
X0369336Y0287365D01*
X0369471Y0287438D01*
X0369608Y0287507D01*
X0369747Y0287572D01*
X0369887Y0287634D01*
X0370029Y0287692D01*
X0370172Y0287747D01*
X0370317Y0287798D01*
X0370463Y0287845D01*
X0370610Y0287888D01*
X0370758Y0287927D01*
X0370907Y0287963D01*
X0371057Y0287994D01*
X0371208Y0288022D01*
X0371359Y0288046D01*
X0371512Y0288066D01*
X0371664Y0288082D01*
X0371817Y0288094D01*
X0371970Y0288102D01*
X0372123Y0288106D01*
X0372277Y0288106D01*
X0372430Y0288102D01*
X0372583Y0288094D01*
X0372736Y0288082D01*
X0372888Y0288066D01*
X0373041Y0288046D01*
X0373192Y0288022D01*
X0373343Y0287994D01*
X0373493Y0287963D01*
X0373642Y0287927D01*
X0373790Y0287888D01*
X0373937Y0287845D01*
X0374083Y0287798D01*
X0374228Y0287747D01*
X0374371Y0287692D01*
X0374513Y0287634D01*
X0374653Y0287572D01*
X0374792Y0287507D01*
X0374929Y0287438D01*
X0375064Y0287365D01*
X0375197Y0287289D01*
X0375328Y0287209D01*
X0375457Y0287127D01*
X0375584Y0287040D01*
X0375709Y0286951D01*
X0375831Y0286858D01*
X0375950Y0286762D01*
X0376068Y0286663D01*
X0376182Y0286562D01*
X0376294Y0286457D01*
X0376403Y0286349D01*
X0376509Y0286238D01*
X0376613Y0286125D01*
X0376713Y0286009D01*
X0376811Y0285891D01*
X0376905Y0285770D01*
X0376996Y0285647D01*
X0377084Y0285521D01*
X0377168Y0285393D01*
X0377250Y0285263D01*
X0377327Y0285131D01*
X0377402Y0284997D01*
X0377473Y0284861D01*
X0377540Y0284723D01*
X0377604Y0284583D01*
X0377664Y0284442D01*
X0377720Y0284300D01*
X0377773Y0284156D01*
X0377822Y0284010D01*
X0377867Y0283864D01*
X0377908Y0283716D01*
X0377945Y0283568D01*
X0377979Y0283418D01*
X0378009Y0283267D01*
X0378034Y0283116D01*
X0378056Y0282965D01*
X0378074Y0282812D01*
X0378088Y0282660D01*
X0378098Y0282507D01*
X0378104Y0282353D01*
X0378106Y0282200D01*
X0378104Y0282047D01*
X0378098Y0281893D01*
X0378088Y0281740D01*
X0378074Y0281588D01*
X0378056Y0281435D01*
X0378034Y0281284D01*
X0378009Y0281133D01*
X0377979Y0280982D01*
X0377945Y0280832D01*
X0377908Y0280684D01*
X0377867Y0280536D01*
X0377822Y0280390D01*
X0377773Y0280244D01*
X0377720Y0280100D01*
X0377664Y0279958D01*
X0377604Y0279817D01*
X0377540Y0279677D01*
X0377473Y0279539D01*
X0377402Y0279403D01*
X0377327Y0279269D01*
X0377250Y0279137D01*
X0377168Y0279007D01*
X0377084Y0278879D01*
X0376996Y0278753D01*
X0376905Y0278630D01*
X0376811Y0278509D01*
X0376713Y0278391D01*
X0376613Y0278275D01*
X0376509Y0278162D01*
X0376403Y0278051D01*
X0376294Y0277943D01*
X0376182Y0277838D01*
X0376068Y0277737D01*
X0375950Y0277638D01*
X0375831Y0277542D01*
X0375709Y0277449D01*
X0375584Y0277360D01*
X0375457Y0277273D01*
X0375328Y0277191D01*
X0375197Y0277111D01*
X0375064Y0277035D01*
X0374929Y0276962D01*
X0374792Y0276893D01*
X0374653Y0276828D01*
X0374513Y0276766D01*
X0374371Y0276708D01*
X0374228Y0276653D01*
X0374083Y0276602D01*
X0373937Y0276555D01*
X0373790Y0276512D01*
X0373642Y0276473D01*
X0373493Y0276437D01*
X0373343Y0276406D01*
X0373192Y0276378D01*
X0373041Y0276354D01*
X0372888Y0276334D01*
X0372736Y0276318D01*
X0372583Y0276306D01*
X0372430Y0276298D01*
X0372277Y0276294D01*
X0372123Y0276294D01*
X0371970Y0276298D01*
X0371817Y0276306D01*
X0371664Y0276318D01*
X0371512Y0276334D01*
X0371359Y0276354D01*
X0371208Y0276378D01*
X0371057Y0276406D01*
X0370907Y0276437D01*
X0370758Y0276473D01*
X0370610Y0276512D01*
X0370463Y0276555D01*
X0370317Y0276602D01*
X0370172Y0276653D01*
X0370029Y0276708D01*
X0369887Y0276766D01*
X0369747Y0276828D01*
X0369608Y0276893D01*
X0369471Y0276962D01*
X0369336Y0277035D01*
X0369203Y0277111D01*
X0369072Y0277191D01*
X0368943Y0277273D01*
X0368816Y0277360D01*
X0368691Y0277449D01*
X0368569Y0277542D01*
X0368450Y0277638D01*
X0368332Y0277737D01*
X0368218Y0277838D01*
X0368106Y0277943D01*
X0367997Y0278051D01*
X0367891Y0278162D01*
X0367787Y0278275D01*
X0367687Y0278391D01*
X0367589Y0278509D01*
X0367495Y0278630D01*
X0367404Y0278753D01*
X0367316Y0278879D01*
X0367232Y0279007D01*
X0367150Y0279137D01*
X0367073Y0279269D01*
X0366998Y0279403D01*
X0366927Y0279539D01*
X0366860Y0279677D01*
X0366796Y0279817D01*
X0366736Y0279958D01*
X0366680Y0280100D01*
X0366627Y0280244D01*
X0366578Y0280390D01*
X0366533Y0280536D01*
X0366492Y0280684D01*
X0366455Y0280832D01*
X0366421Y0280982D01*
X0366391Y0281133D01*
X0366366Y0281284D01*
X0366344Y0281435D01*
X0366326Y0281588D01*
X0366312Y0281740D01*
X0366302Y0281893D01*
X0366296Y0282047D01*
X0366294Y0282200D01*
X0366294Y0022200D02*
X0366296Y0022353D01*
X0366302Y0022507D01*
X0366312Y0022660D01*
X0366326Y0022812D01*
X0366344Y0022965D01*
X0366366Y0023116D01*
X0366391Y0023267D01*
X0366421Y0023418D01*
X0366455Y0023568D01*
X0366492Y0023716D01*
X0366533Y0023864D01*
X0366578Y0024010D01*
X0366627Y0024156D01*
X0366680Y0024300D01*
X0366736Y0024442D01*
X0366796Y0024583D01*
X0366860Y0024723D01*
X0366927Y0024861D01*
X0366998Y0024997D01*
X0367073Y0025131D01*
X0367150Y0025263D01*
X0367232Y0025393D01*
X0367316Y0025521D01*
X0367404Y0025647D01*
X0367495Y0025770D01*
X0367589Y0025891D01*
X0367687Y0026009D01*
X0367787Y0026125D01*
X0367891Y0026238D01*
X0367997Y0026349D01*
X0368106Y0026457D01*
X0368218Y0026562D01*
X0368332Y0026663D01*
X0368450Y0026762D01*
X0368569Y0026858D01*
X0368691Y0026951D01*
X0368816Y0027040D01*
X0368943Y0027127D01*
X0369072Y0027209D01*
X0369203Y0027289D01*
X0369336Y0027365D01*
X0369471Y0027438D01*
X0369608Y0027507D01*
X0369747Y0027572D01*
X0369887Y0027634D01*
X0370029Y0027692D01*
X0370172Y0027747D01*
X0370317Y0027798D01*
X0370463Y0027845D01*
X0370610Y0027888D01*
X0370758Y0027927D01*
X0370907Y0027963D01*
X0371057Y0027994D01*
X0371208Y0028022D01*
X0371359Y0028046D01*
X0371512Y0028066D01*
X0371664Y0028082D01*
X0371817Y0028094D01*
X0371970Y0028102D01*
X0372123Y0028106D01*
X0372277Y0028106D01*
X0372430Y0028102D01*
X0372583Y0028094D01*
X0372736Y0028082D01*
X0372888Y0028066D01*
X0373041Y0028046D01*
X0373192Y0028022D01*
X0373343Y0027994D01*
X0373493Y0027963D01*
X0373642Y0027927D01*
X0373790Y0027888D01*
X0373937Y0027845D01*
X0374083Y0027798D01*
X0374228Y0027747D01*
X0374371Y0027692D01*
X0374513Y0027634D01*
X0374653Y0027572D01*
X0374792Y0027507D01*
X0374929Y0027438D01*
X0375064Y0027365D01*
X0375197Y0027289D01*
X0375328Y0027209D01*
X0375457Y0027127D01*
X0375584Y0027040D01*
X0375709Y0026951D01*
X0375831Y0026858D01*
X0375950Y0026762D01*
X0376068Y0026663D01*
X0376182Y0026562D01*
X0376294Y0026457D01*
X0376403Y0026349D01*
X0376509Y0026238D01*
X0376613Y0026125D01*
X0376713Y0026009D01*
X0376811Y0025891D01*
X0376905Y0025770D01*
X0376996Y0025647D01*
X0377084Y0025521D01*
X0377168Y0025393D01*
X0377250Y0025263D01*
X0377327Y0025131D01*
X0377402Y0024997D01*
X0377473Y0024861D01*
X0377540Y0024723D01*
X0377604Y0024583D01*
X0377664Y0024442D01*
X0377720Y0024300D01*
X0377773Y0024156D01*
X0377822Y0024010D01*
X0377867Y0023864D01*
X0377908Y0023716D01*
X0377945Y0023568D01*
X0377979Y0023418D01*
X0378009Y0023267D01*
X0378034Y0023116D01*
X0378056Y0022965D01*
X0378074Y0022812D01*
X0378088Y0022660D01*
X0378098Y0022507D01*
X0378104Y0022353D01*
X0378106Y0022200D01*
X0378104Y0022047D01*
X0378098Y0021893D01*
X0378088Y0021740D01*
X0378074Y0021588D01*
X0378056Y0021435D01*
X0378034Y0021284D01*
X0378009Y0021133D01*
X0377979Y0020982D01*
X0377945Y0020832D01*
X0377908Y0020684D01*
X0377867Y0020536D01*
X0377822Y0020390D01*
X0377773Y0020244D01*
X0377720Y0020100D01*
X0377664Y0019958D01*
X0377604Y0019817D01*
X0377540Y0019677D01*
X0377473Y0019539D01*
X0377402Y0019403D01*
X0377327Y0019269D01*
X0377250Y0019137D01*
X0377168Y0019007D01*
X0377084Y0018879D01*
X0376996Y0018753D01*
X0376905Y0018630D01*
X0376811Y0018509D01*
X0376713Y0018391D01*
X0376613Y0018275D01*
X0376509Y0018162D01*
X0376403Y0018051D01*
X0376294Y0017943D01*
X0376182Y0017838D01*
X0376068Y0017737D01*
X0375950Y0017638D01*
X0375831Y0017542D01*
X0375709Y0017449D01*
X0375584Y0017360D01*
X0375457Y0017273D01*
X0375328Y0017191D01*
X0375197Y0017111D01*
X0375064Y0017035D01*
X0374929Y0016962D01*
X0374792Y0016893D01*
X0374653Y0016828D01*
X0374513Y0016766D01*
X0374371Y0016708D01*
X0374228Y0016653D01*
X0374083Y0016602D01*
X0373937Y0016555D01*
X0373790Y0016512D01*
X0373642Y0016473D01*
X0373493Y0016437D01*
X0373343Y0016406D01*
X0373192Y0016378D01*
X0373041Y0016354D01*
X0372888Y0016334D01*
X0372736Y0016318D01*
X0372583Y0016306D01*
X0372430Y0016298D01*
X0372277Y0016294D01*
X0372123Y0016294D01*
X0371970Y0016298D01*
X0371817Y0016306D01*
X0371664Y0016318D01*
X0371512Y0016334D01*
X0371359Y0016354D01*
X0371208Y0016378D01*
X0371057Y0016406D01*
X0370907Y0016437D01*
X0370758Y0016473D01*
X0370610Y0016512D01*
X0370463Y0016555D01*
X0370317Y0016602D01*
X0370172Y0016653D01*
X0370029Y0016708D01*
X0369887Y0016766D01*
X0369747Y0016828D01*
X0369608Y0016893D01*
X0369471Y0016962D01*
X0369336Y0017035D01*
X0369203Y0017111D01*
X0369072Y0017191D01*
X0368943Y0017273D01*
X0368816Y0017360D01*
X0368691Y0017449D01*
X0368569Y0017542D01*
X0368450Y0017638D01*
X0368332Y0017737D01*
X0368218Y0017838D01*
X0368106Y0017943D01*
X0367997Y0018051D01*
X0367891Y0018162D01*
X0367787Y0018275D01*
X0367687Y0018391D01*
X0367589Y0018509D01*
X0367495Y0018630D01*
X0367404Y0018753D01*
X0367316Y0018879D01*
X0367232Y0019007D01*
X0367150Y0019137D01*
X0367073Y0019269D01*
X0366998Y0019403D01*
X0366927Y0019539D01*
X0366860Y0019677D01*
X0366796Y0019817D01*
X0366736Y0019958D01*
X0366680Y0020100D01*
X0366627Y0020244D01*
X0366578Y0020390D01*
X0366533Y0020536D01*
X0366492Y0020684D01*
X0366455Y0020832D01*
X0366421Y0020982D01*
X0366391Y0021133D01*
X0366366Y0021284D01*
X0366344Y0021435D01*
X0366326Y0021588D01*
X0366312Y0021740D01*
X0366302Y0021893D01*
X0366296Y0022047D01*
X0366294Y0022200D01*
D11*
X0360050Y0050600D03*
X0357650Y0051100D03*
X0350050Y0056300D03*
X0349950Y0056400D03*
X0349850Y0056500D03*
X0349750Y0056600D03*
X0369950Y0056100D03*
X0370050Y0056200D03*
X0370150Y0056300D03*
X0370250Y0056400D03*
X0370050Y0066500D03*
X0369950Y0066900D03*
X0369950Y0067000D03*
X0369950Y0067400D03*
X0370250Y0074300D03*
X0370150Y0074400D03*
X0370050Y0074500D03*
X0369950Y0074600D03*
X0350150Y0074500D03*
X0350050Y0074400D03*
X0349950Y0074300D03*
X0349850Y0074200D03*
X0349750Y0074100D03*
D12*
X0353550Y0073000D03*
X0353650Y0073100D03*
X0354350Y0069300D03*
X0354750Y0069000D03*
X0351150Y0062300D03*
X0351150Y0062200D03*
X0351250Y0062000D03*
X0351250Y0061900D03*
X0351250Y0061800D03*
X0351650Y0060900D03*
X0351650Y0060800D03*
X0360050Y0050700D03*
X0365750Y0073900D03*
X0365650Y0074000D03*
X0365550Y0074100D03*
X0364250Y0075100D03*
X0364050Y0075200D03*
X0360050Y0080000D03*
X0353050Y0076800D03*
D13*
X0352900Y0071200D03*
X0360100Y0079900D03*
X0355300Y0056500D03*
X0360000Y0052900D03*
X0360100Y0050800D03*
D14*
X0360050Y0050900D03*
X0360050Y0079800D03*
D15*
X0360050Y0079700D03*
X0355150Y0057500D03*
X0360050Y0051000D03*
D16*
X0359700Y0051100D03*
X0358600Y0052500D03*
X0358600Y0052600D03*
X0357800Y0051900D03*
X0357400Y0052200D03*
X0357400Y0052300D03*
X0357500Y0052400D03*
X0357500Y0052500D03*
X0357500Y0052600D03*
X0356800Y0052700D03*
X0356200Y0052200D03*
X0355000Y0052200D03*
X0355000Y0052300D03*
X0354600Y0052900D03*
X0354600Y0053200D03*
X0353200Y0053900D03*
X0352800Y0053800D03*
X0353100Y0054300D03*
X0352200Y0054900D03*
X0351900Y0055200D03*
X0351800Y0055100D03*
X0351300Y0055600D03*
X0356500Y0059800D03*
X0358400Y0059900D03*
X0358900Y0057100D03*
X0361000Y0057100D03*
X0362400Y0056900D03*
X0364000Y0056800D03*
X0364500Y0057000D03*
X0365000Y0056900D03*
X0366300Y0054100D03*
X0366400Y0054000D03*
X0366800Y0054100D03*
X0365100Y0053000D03*
X0362100Y0052200D03*
X0362100Y0052100D03*
X0369000Y0054400D03*
X0369100Y0055200D03*
X0369000Y0055500D03*
X0369600Y0055200D03*
X0368300Y0060300D03*
X0359600Y0064400D03*
X0352900Y0063300D03*
X0352900Y0063100D03*
X0352800Y0066200D03*
X0352800Y0066300D03*
X0352100Y0067000D03*
X0350600Y0069400D03*
X0359500Y0079000D03*
X0360800Y0078900D03*
X0360800Y0078800D03*
X0361300Y0078800D03*
X0361300Y0078700D03*
X0361300Y0078600D03*
D17*
X0362700Y0078200D03*
X0363900Y0078300D03*
X0360100Y0079500D03*
X0357700Y0079000D03*
X0361000Y0058200D03*
X0366200Y0054400D03*
X0366400Y0054500D03*
X0366600Y0054600D03*
X0366700Y0054700D03*
X0366900Y0054800D03*
X0366600Y0053800D03*
X0366100Y0052900D03*
X0364300Y0052800D03*
X0361200Y0052000D03*
X0361200Y0051900D03*
X0360400Y0051100D03*
X0358100Y0051600D03*
X0358200Y0052200D03*
X0357000Y0052000D03*
X0357000Y0051900D03*
X0357000Y0051800D03*
X0356900Y0051700D03*
X0356900Y0051600D03*
X0353600Y0053100D03*
X0353600Y0054600D03*
X0353100Y0054900D03*
X0351200Y0053800D03*
X0351100Y0053900D03*
X0351000Y0054000D03*
X0350800Y0054100D03*
X0349900Y0055000D03*
X0368100Y0055600D03*
X0369500Y0054300D03*
X0369800Y0054500D03*
X0370500Y0055300D03*
X0368900Y0053800D03*
X0368800Y0053700D03*
D18*
X0370550Y0056800D03*
X0370650Y0056900D03*
X0370750Y0057000D03*
X0370850Y0057100D03*
X0370950Y0057300D03*
X0363150Y0053100D03*
X0362650Y0051100D03*
X0349450Y0057000D03*
X0349350Y0057100D03*
X0349250Y0057200D03*
X0350050Y0066900D03*
X0350250Y0067900D03*
X0354750Y0068600D03*
X0349450Y0073700D03*
X0349350Y0073600D03*
X0349250Y0073500D03*
X0353450Y0077700D03*
X0370550Y0073900D03*
X0370650Y0073800D03*
X0370750Y0073700D03*
X0370850Y0073600D03*
X0370950Y0073400D03*
X0369550Y0069300D03*
X0369550Y0069200D03*
X0369650Y0069000D03*
X0369750Y0068700D03*
X0369750Y0068600D03*
X0369850Y0068300D03*
X0369950Y0067900D03*
X0369950Y0067800D03*
X0369950Y0067700D03*
X0370150Y0066400D03*
D19*
X0370250Y0066300D03*
X0369450Y0069700D03*
X0369450Y0069800D03*
X0368950Y0070800D03*
X0371650Y0072400D03*
X0371550Y0072600D03*
X0371450Y0072700D03*
X0371350Y0072900D03*
X0371250Y0073000D03*
X0362950Y0077600D03*
X0363950Y0079200D03*
X0348850Y0072900D03*
X0348750Y0072800D03*
X0348650Y0072700D03*
X0348650Y0072600D03*
X0348550Y0072500D03*
X0348450Y0072300D03*
X0350050Y0067600D03*
X0348450Y0058400D03*
X0348550Y0058200D03*
X0348650Y0058100D03*
X0348650Y0058000D03*
X0348750Y0057900D03*
X0348850Y0057800D03*
X0348950Y0057600D03*
X0357050Y0051200D03*
X0363350Y0051300D03*
X0371250Y0057700D03*
X0371350Y0057800D03*
X0371450Y0058000D03*
X0371550Y0058100D03*
X0371650Y0058300D03*
D20*
X0368550Y0055100D03*
X0368650Y0055000D03*
X0368750Y0054600D03*
X0368250Y0054300D03*
X0367950Y0054700D03*
X0367950Y0054800D03*
X0367450Y0054400D03*
X0366750Y0054000D03*
X0365450Y0053300D03*
X0363450Y0051900D03*
X0362750Y0052000D03*
X0362650Y0052200D03*
X0362650Y0052300D03*
X0362550Y0052500D03*
X0359850Y0052300D03*
X0359850Y0052200D03*
X0359850Y0052100D03*
X0359750Y0051900D03*
X0359650Y0051700D03*
X0359650Y0051600D03*
X0359050Y0051400D03*
X0359050Y0051300D03*
X0359050Y0051200D03*
X0359150Y0052100D03*
X0359150Y0052200D03*
X0356850Y0052400D03*
X0356150Y0052500D03*
X0355150Y0052700D03*
X0355150Y0053200D03*
X0353150Y0054000D03*
X0353150Y0054100D03*
X0352550Y0054400D03*
X0352250Y0053900D03*
X0351850Y0054300D03*
X0351350Y0055300D03*
X0352750Y0053500D03*
X0352750Y0053400D03*
X0360950Y0057800D03*
X0360950Y0057900D03*
X0361150Y0057500D03*
X0361250Y0057300D03*
X0361350Y0057200D03*
X0361550Y0056900D03*
X0361650Y0056800D03*
X0359750Y0062500D03*
X0357650Y0068500D03*
X0357450Y0068600D03*
X0357350Y0068700D03*
X0354250Y0067900D03*
X0351350Y0068200D03*
X0362150Y0068500D03*
X0362350Y0068600D03*
X0362450Y0068700D03*
X0363250Y0069300D03*
X0363350Y0069400D03*
X0363350Y0069500D03*
X0363450Y0069600D03*
X0369850Y0063000D03*
X0362550Y0079000D03*
X0362650Y0079100D03*
X0361950Y0079300D03*
X0361850Y0079100D03*
X0361850Y0079000D03*
X0361850Y0078900D03*
X0361850Y0078800D03*
X0361850Y0078700D03*
X0360950Y0078200D03*
X0360250Y0078600D03*
X0360250Y0078700D03*
X0359050Y0079300D03*
X0358750Y0078500D03*
X0358750Y0078400D03*
X0358750Y0078300D03*
X0356550Y0077900D03*
X0356250Y0078700D03*
D21*
X0356200Y0078800D03*
X0355600Y0078300D03*
X0355600Y0078200D03*
X0355700Y0077900D03*
X0355700Y0077800D03*
X0358800Y0078800D03*
X0358800Y0078900D03*
X0358800Y0079000D03*
X0359600Y0078200D03*
X0360100Y0079300D03*
X0362600Y0078300D03*
X0363900Y0071800D03*
X0363000Y0069000D03*
X0361200Y0068100D03*
X0358600Y0068100D03*
X0359900Y0062400D03*
X0361000Y0059400D03*
X0361000Y0056300D03*
X0358900Y0056300D03*
X0358800Y0056200D03*
X0359800Y0052500D03*
X0360400Y0051200D03*
X0362200Y0051400D03*
X0364400Y0051900D03*
X0364400Y0052000D03*
X0364400Y0052100D03*
X0364400Y0052200D03*
X0364400Y0052300D03*
X0364400Y0052400D03*
X0364400Y0052500D03*
X0365400Y0052300D03*
X0367800Y0053700D03*
X0368200Y0055800D03*
X0368300Y0055900D03*
X0370500Y0055200D03*
X0364600Y0056800D03*
X0356100Y0052700D03*
X0355300Y0052400D03*
X0354300Y0052600D03*
X0352200Y0054000D03*
X0352500Y0054600D03*
X0351900Y0055800D03*
X0351800Y0055900D03*
X0351700Y0056000D03*
D22*
X0351300Y0055400D03*
X0355200Y0053300D03*
X0355200Y0052600D03*
X0355500Y0052200D03*
X0356100Y0052600D03*
X0355800Y0052900D03*
X0356900Y0052500D03*
X0358100Y0052400D03*
X0358300Y0051500D03*
X0359700Y0051800D03*
X0361300Y0051300D03*
X0361300Y0051200D03*
X0362200Y0051600D03*
X0362600Y0052400D03*
X0362500Y0052600D03*
X0363300Y0052600D03*
X0363500Y0052000D03*
X0365300Y0053500D03*
X0365400Y0053400D03*
X0365600Y0053200D03*
X0367100Y0053300D03*
X0367200Y0053200D03*
X0368400Y0054200D03*
X0368700Y0054700D03*
X0368500Y0055200D03*
X0362300Y0056800D03*
X0361100Y0055800D03*
X0359900Y0055800D03*
X0358800Y0055800D03*
X0361100Y0059500D03*
X0359900Y0062100D03*
X0359900Y0062200D03*
X0359700Y0062600D03*
X0359700Y0062700D03*
X0359600Y0062800D03*
X0359900Y0067800D03*
X0361800Y0068300D03*
X0362000Y0068400D03*
X0363100Y0069100D03*
X0363200Y0069200D03*
X0363800Y0070600D03*
X0358000Y0068300D03*
X0357800Y0068400D03*
X0351400Y0068100D03*
X0355700Y0077700D03*
X0355600Y0078400D03*
X0356600Y0077800D03*
X0358000Y0078000D03*
X0358000Y0078100D03*
X0359100Y0079400D03*
X0360200Y0078900D03*
X0360200Y0078800D03*
X0360900Y0078100D03*
X0361200Y0079400D03*
X0362500Y0078500D03*
X0363000Y0078000D03*
X0363200Y0078800D03*
D23*
X0363800Y0079300D03*
X0365000Y0078800D03*
X0366300Y0078100D03*
X0359900Y0078000D03*
X0356600Y0079400D03*
X0361400Y0071500D03*
X0369300Y0070400D03*
X0372400Y0071000D03*
X0372500Y0070800D03*
X0372600Y0070600D03*
X0372600Y0070500D03*
X0372700Y0070400D03*
X0372700Y0070300D03*
X0372700Y0070200D03*
X0372800Y0070100D03*
X0372800Y0070000D03*
X0372900Y0069800D03*
X0372900Y0069700D03*
X0373000Y0069500D03*
X0373000Y0061200D03*
X0372900Y0060900D03*
X0372800Y0060700D03*
X0372800Y0060600D03*
X0372700Y0060400D03*
X0372700Y0060300D03*
X0372600Y0060200D03*
X0372600Y0060100D03*
X0372500Y0059900D03*
X0372400Y0059700D03*
X0370200Y0055900D03*
X0367200Y0057200D03*
X0367100Y0057100D03*
X0363200Y0051200D03*
X0360500Y0052600D03*
X0347800Y0059600D03*
X0347700Y0059800D03*
X0347600Y0060000D03*
X0347600Y0060100D03*
X0347500Y0060200D03*
X0347500Y0060300D03*
X0347400Y0060500D03*
X0347400Y0060600D03*
X0347300Y0060800D03*
X0347200Y0061100D03*
X0347100Y0061400D03*
X0347100Y0069300D03*
X0347200Y0069600D03*
X0347300Y0069900D03*
X0347400Y0070100D03*
X0347400Y0070200D03*
X0347500Y0070400D03*
X0347500Y0070500D03*
X0347600Y0070600D03*
X0347600Y0070700D03*
X0347700Y0070900D03*
X0347800Y0071100D03*
D24*
X0349900Y0068500D03*
X0349800Y0068100D03*
X0353800Y0078200D03*
X0355600Y0079100D03*
X0364800Y0079000D03*
X0366200Y0078300D03*
X0370600Y0064200D03*
X0370600Y0064100D03*
X0370600Y0064000D03*
X0370000Y0061600D03*
X0370000Y0061500D03*
X0370000Y0061400D03*
X0369300Y0059900D03*
X0369300Y0059800D03*
X0369000Y0059400D03*
X0368200Y0058100D03*
X0368100Y0058000D03*
X0356400Y0051300D03*
X0349900Y0055800D03*
D25*
X0350850Y0055100D03*
X0351350Y0055200D03*
X0351650Y0054900D03*
X0351750Y0055000D03*
X0351950Y0055300D03*
X0351850Y0054400D03*
X0353150Y0054200D03*
X0354550Y0053100D03*
X0354950Y0052100D03*
X0356150Y0052100D03*
X0356150Y0052000D03*
X0356950Y0052300D03*
X0357350Y0052100D03*
X0357450Y0052700D03*
X0356350Y0052900D03*
X0356350Y0053000D03*
X0358550Y0052400D03*
X0358450Y0052000D03*
X0358450Y0051900D03*
X0358450Y0051400D03*
X0358450Y0051300D03*
X0358950Y0051700D03*
X0359650Y0051500D03*
X0359650Y0051400D03*
X0359650Y0051300D03*
X0360350Y0051800D03*
X0360350Y0051900D03*
X0360350Y0052000D03*
X0362150Y0052000D03*
X0362850Y0051700D03*
X0362950Y0051600D03*
X0362950Y0051500D03*
X0363350Y0052700D03*
X0365150Y0052800D03*
X0365150Y0052900D03*
X0365950Y0052600D03*
X0366050Y0052500D03*
X0367450Y0054500D03*
X0367950Y0054600D03*
X0368050Y0054900D03*
X0369150Y0055300D03*
X0364450Y0056900D03*
X0361150Y0059700D03*
X0359950Y0059700D03*
X0359950Y0059800D03*
X0359950Y0059900D03*
X0359950Y0060000D03*
X0359950Y0060100D03*
X0359950Y0060200D03*
X0359950Y0060300D03*
X0359950Y0060400D03*
X0359950Y0060500D03*
X0359950Y0060600D03*
X0359950Y0060700D03*
X0359950Y0060800D03*
X0359950Y0060900D03*
X0359950Y0061000D03*
X0359950Y0061100D03*
X0359950Y0061200D03*
X0359950Y0061300D03*
X0359950Y0061400D03*
X0359850Y0061500D03*
X0359850Y0061600D03*
X0359850Y0061700D03*
X0359850Y0061800D03*
X0360150Y0062500D03*
X0360250Y0062600D03*
X0360250Y0062700D03*
X0360350Y0062800D03*
X0360350Y0062900D03*
X0360450Y0063100D03*
X0360550Y0063300D03*
X0360650Y0063500D03*
X0360750Y0063700D03*
X0360750Y0063800D03*
X0360850Y0063900D03*
X0360850Y0064000D03*
X0360950Y0064100D03*
X0360950Y0064200D03*
X0361050Y0064300D03*
X0361050Y0064400D03*
X0361150Y0064600D03*
X0361250Y0064800D03*
X0361350Y0065000D03*
X0361450Y0065200D03*
X0361450Y0065300D03*
X0361550Y0065400D03*
X0361550Y0065500D03*
X0361650Y0065600D03*
X0361650Y0065700D03*
X0361750Y0065800D03*
X0361750Y0065900D03*
X0361850Y0066100D03*
X0361950Y0066300D03*
X0362050Y0066500D03*
X0362150Y0066700D03*
X0362150Y0066800D03*
X0362250Y0066900D03*
X0362250Y0067000D03*
X0362350Y0067100D03*
X0362350Y0067200D03*
X0362450Y0067300D03*
X0362450Y0067400D03*
X0362550Y0067600D03*
X0362650Y0067800D03*
X0362750Y0068000D03*
X0362850Y0068200D03*
X0362850Y0068300D03*
X0362950Y0068400D03*
X0362950Y0068500D03*
X0363050Y0068600D03*
X0363050Y0068700D03*
X0363150Y0068800D03*
X0363150Y0068900D03*
X0363550Y0069800D03*
X0363650Y0070000D03*
X0363750Y0070200D03*
X0363850Y0070300D03*
X0363950Y0070700D03*
X0363950Y0070800D03*
X0364050Y0070900D03*
X0364050Y0071000D03*
X0364050Y0071100D03*
X0364050Y0071200D03*
X0364050Y0071300D03*
X0364150Y0071400D03*
X0364150Y0071500D03*
X0364150Y0071600D03*
X0364150Y0071900D03*
X0364150Y0072000D03*
X0364150Y0072100D03*
X0364150Y0072200D03*
X0364550Y0072000D03*
X0365150Y0071300D03*
X0367150Y0070800D03*
X0359050Y0069500D03*
X0359050Y0069400D03*
X0359050Y0069300D03*
X0359050Y0069200D03*
X0359050Y0069100D03*
X0359050Y0069000D03*
X0359050Y0068900D03*
X0359050Y0068800D03*
X0359150Y0068700D03*
X0359150Y0068600D03*
X0359150Y0068500D03*
X0359150Y0068400D03*
X0359150Y0068300D03*
X0359150Y0068200D03*
X0359150Y0068100D03*
X0359250Y0067700D03*
X0359250Y0067600D03*
X0359250Y0067500D03*
X0359250Y0067400D03*
X0359250Y0067300D03*
X0359250Y0067200D03*
X0359250Y0067100D03*
X0359250Y0067000D03*
X0359350Y0066900D03*
X0359350Y0066800D03*
X0359350Y0066700D03*
X0359350Y0066600D03*
X0359350Y0066500D03*
X0359350Y0066400D03*
X0359350Y0066300D03*
X0359350Y0066200D03*
X0359450Y0066100D03*
X0359450Y0066000D03*
X0359450Y0065900D03*
X0359450Y0065800D03*
X0359450Y0065700D03*
X0359450Y0065600D03*
X0359450Y0065500D03*
X0359450Y0065400D03*
X0359450Y0065300D03*
X0359550Y0065200D03*
X0359550Y0065100D03*
X0359550Y0065000D03*
X0359550Y0064900D03*
X0359550Y0064800D03*
X0359550Y0064700D03*
X0359550Y0064600D03*
X0359550Y0064500D03*
X0359650Y0064300D03*
X0359650Y0064200D03*
X0359650Y0064100D03*
X0359650Y0064000D03*
X0359650Y0063900D03*
X0359650Y0063800D03*
X0359650Y0063700D03*
X0359650Y0063600D03*
X0359750Y0063500D03*
X0359750Y0063400D03*
X0359750Y0063300D03*
X0359750Y0063200D03*
X0359750Y0063100D03*
X0359750Y0063000D03*
X0359750Y0062900D03*
X0359450Y0062900D03*
X0359350Y0063000D03*
X0359350Y0063100D03*
X0359250Y0063300D03*
X0359150Y0063500D03*
X0359050Y0063700D03*
X0359050Y0063800D03*
X0358950Y0063900D03*
X0358950Y0064000D03*
X0358850Y0064100D03*
X0358850Y0064200D03*
X0358750Y0064300D03*
X0358750Y0064400D03*
X0358650Y0064600D03*
X0358550Y0064800D03*
X0358450Y0065000D03*
X0358450Y0065100D03*
X0358350Y0065200D03*
X0358350Y0065300D03*
X0358250Y0065400D03*
X0358250Y0065500D03*
X0358150Y0065600D03*
X0358150Y0065700D03*
X0358050Y0065800D03*
X0358050Y0065900D03*
X0357950Y0066100D03*
X0357850Y0066300D03*
X0357750Y0066500D03*
X0357750Y0066600D03*
X0357650Y0066700D03*
X0357650Y0066800D03*
X0357550Y0066900D03*
X0357550Y0067000D03*
X0357450Y0067200D03*
X0357350Y0067400D03*
X0357250Y0067600D03*
X0357150Y0067800D03*
X0357150Y0067900D03*
X0357050Y0068000D03*
X0357050Y0068100D03*
X0356950Y0068200D03*
X0356950Y0068300D03*
X0356850Y0068400D03*
X0356850Y0068500D03*
X0356750Y0068700D03*
X0358950Y0069600D03*
X0358950Y0069700D03*
X0358950Y0069800D03*
X0358950Y0069900D03*
X0358950Y0070000D03*
X0352750Y0066100D03*
X0352150Y0066900D03*
X0350550Y0069300D03*
X0356450Y0078200D03*
X0357550Y0079200D03*
X0358050Y0079100D03*
X0359550Y0078900D03*
X0359550Y0078800D03*
X0360350Y0078200D03*
X0360350Y0078100D03*
X0360850Y0078500D03*
X0360850Y0078600D03*
X0360850Y0078700D03*
X0361250Y0078900D03*
X0361250Y0079000D03*
X0362350Y0078000D03*
X0369850Y0063200D03*
X0369850Y0063100D03*
X0357950Y0059900D03*
D26*
X0359850Y0062300D03*
X0360950Y0058000D03*
X0361050Y0055900D03*
X0359950Y0055900D03*
X0358850Y0055900D03*
X0359850Y0052400D03*
X0360350Y0051400D03*
X0360350Y0051300D03*
X0361250Y0051400D03*
X0361250Y0051500D03*
X0362250Y0051500D03*
X0362450Y0052700D03*
X0363350Y0052500D03*
X0363450Y0052400D03*
X0363450Y0052300D03*
X0363450Y0052200D03*
X0363450Y0052100D03*
X0365350Y0052400D03*
X0365950Y0052800D03*
X0367050Y0053400D03*
X0366750Y0053900D03*
X0367450Y0054200D03*
X0367450Y0054300D03*
X0367550Y0054100D03*
X0367650Y0054000D03*
X0367650Y0053900D03*
X0367750Y0053800D03*
X0355450Y0052300D03*
X0355250Y0052500D03*
X0352550Y0054500D03*
X0352250Y0054700D03*
X0351950Y0054200D03*
X0350950Y0054900D03*
X0354450Y0060500D03*
X0358250Y0068200D03*
X0361550Y0068200D03*
X0362550Y0078400D03*
X0360150Y0079000D03*
X0360150Y0079100D03*
X0360150Y0079200D03*
X0359550Y0078400D03*
X0359550Y0078300D03*
X0358750Y0078600D03*
X0358750Y0078700D03*
X0358950Y0079200D03*
X0359050Y0079500D03*
X0357250Y0078100D03*
D27*
X0357450Y0077600D03*
X0355450Y0079000D03*
X0349950Y0068400D03*
X0349850Y0055900D03*
X0356150Y0051400D03*
X0357450Y0053100D03*
X0359950Y0056500D03*
X0359950Y0056600D03*
X0359950Y0056700D03*
X0359950Y0056800D03*
X0359950Y0056900D03*
X0359950Y0057000D03*
X0368450Y0058500D03*
X0369350Y0060000D03*
X0369350Y0060100D03*
X0370250Y0055800D03*
D28*
X0368050Y0057900D03*
X0367950Y0057800D03*
X0368450Y0058400D03*
X0368750Y0058900D03*
X0369050Y0059300D03*
X0369250Y0059600D03*
X0369250Y0059700D03*
X0369550Y0060300D03*
X0369650Y0060400D03*
X0370150Y0061700D03*
X0370250Y0062000D03*
X0370650Y0063900D03*
X0370650Y0064300D03*
X0370650Y0064400D03*
X0370650Y0064500D03*
X0370650Y0064600D03*
X0370650Y0064700D03*
X0370650Y0065400D03*
X0370650Y0065500D03*
X0370650Y0065600D03*
X0370650Y0065700D03*
X0370650Y0065800D03*
X0363250Y0077500D03*
X0364550Y0079100D03*
X0349850Y0068200D03*
X0364050Y0051400D03*
X0365050Y0051800D03*
D29*
X0363450Y0053200D03*
X0356050Y0051500D03*
X0349850Y0056000D03*
X0347450Y0060400D03*
X0347350Y0060700D03*
X0347250Y0060900D03*
X0347250Y0061000D03*
X0347150Y0061200D03*
X0347150Y0061300D03*
X0347050Y0061500D03*
X0347050Y0061600D03*
X0347050Y0061700D03*
X0346950Y0061800D03*
X0346950Y0061900D03*
X0346950Y0062000D03*
X0346850Y0062200D03*
X0346850Y0062300D03*
X0346850Y0062400D03*
X0346750Y0062700D03*
X0346750Y0062800D03*
X0346750Y0062900D03*
X0346650Y0063300D03*
X0346650Y0063400D03*
X0346550Y0064300D03*
X0346550Y0066400D03*
X0346650Y0067300D03*
X0346650Y0067400D03*
X0346750Y0067800D03*
X0346750Y0067900D03*
X0346750Y0068000D03*
X0346850Y0068300D03*
X0346850Y0068400D03*
X0346850Y0068500D03*
X0346950Y0068700D03*
X0346950Y0068800D03*
X0346950Y0068900D03*
X0347050Y0069000D03*
X0347050Y0069100D03*
X0347050Y0069200D03*
X0347150Y0069400D03*
X0347150Y0069500D03*
X0347250Y0069700D03*
X0347250Y0069800D03*
X0347350Y0070000D03*
X0347450Y0070300D03*
X0350050Y0068300D03*
X0353650Y0078000D03*
X0356350Y0079300D03*
X0366250Y0078200D03*
X0372850Y0069900D03*
X0372950Y0069600D03*
X0373050Y0069400D03*
X0373050Y0069300D03*
X0373050Y0069200D03*
X0373150Y0069100D03*
X0373150Y0069000D03*
X0373150Y0068900D03*
X0373150Y0068800D03*
X0373250Y0068700D03*
X0373250Y0068600D03*
X0373250Y0068500D03*
X0373350Y0068300D03*
X0373350Y0068200D03*
X0373350Y0068100D03*
X0373450Y0067700D03*
X0373450Y0067600D03*
X0373550Y0067000D03*
X0373550Y0066900D03*
X0373550Y0063800D03*
X0373550Y0063700D03*
X0373450Y0063100D03*
X0373450Y0063000D03*
X0373350Y0062600D03*
X0373350Y0062500D03*
X0373350Y0062400D03*
X0373250Y0062200D03*
X0373250Y0062100D03*
X0373250Y0062000D03*
X0373150Y0061900D03*
X0373150Y0061800D03*
X0373150Y0061700D03*
X0373150Y0061600D03*
X0373050Y0061500D03*
X0373050Y0061400D03*
X0373050Y0061300D03*
X0372950Y0061100D03*
X0372950Y0061000D03*
X0372850Y0060800D03*
X0372750Y0060500D03*
X0368450Y0058700D03*
D30*
X0369100Y0055400D03*
X0369600Y0055100D03*
X0368700Y0054900D03*
X0368700Y0054800D03*
X0368900Y0054500D03*
X0365900Y0052700D03*
X0365400Y0052500D03*
X0363400Y0051800D03*
X0362800Y0051800D03*
X0362800Y0051900D03*
X0362700Y0052100D03*
X0359800Y0052000D03*
X0359100Y0052300D03*
X0359000Y0051600D03*
X0359000Y0051500D03*
X0358400Y0052100D03*
X0356900Y0052600D03*
X0356200Y0052400D03*
X0356200Y0052300D03*
X0356100Y0051900D03*
X0356000Y0051800D03*
X0355600Y0052100D03*
X0355100Y0052800D03*
X0355100Y0052900D03*
X0355100Y0053000D03*
X0355100Y0053100D03*
X0354500Y0053000D03*
X0354200Y0052700D03*
X0355800Y0053000D03*
X0352800Y0053600D03*
X0352800Y0053700D03*
X0352500Y0054200D03*
X0352600Y0054300D03*
X0352200Y0054800D03*
X0352200Y0053800D03*
X0352200Y0053700D03*
X0350900Y0055000D03*
X0351300Y0055500D03*
X0359300Y0063200D03*
X0359200Y0063400D03*
X0359100Y0063600D03*
X0358700Y0064500D03*
X0358600Y0064700D03*
X0358500Y0064900D03*
X0358000Y0066000D03*
X0357900Y0066200D03*
X0357800Y0066400D03*
X0357500Y0067100D03*
X0357400Y0067300D03*
X0357300Y0067500D03*
X0357200Y0067700D03*
X0356800Y0068600D03*
X0357200Y0068800D03*
X0359200Y0067800D03*
X0362000Y0066400D03*
X0362100Y0066600D03*
X0361900Y0066200D03*
X0361800Y0066000D03*
X0361400Y0065100D03*
X0361300Y0064900D03*
X0361200Y0064700D03*
X0361100Y0064500D03*
X0360700Y0063600D03*
X0360600Y0063400D03*
X0360500Y0063200D03*
X0360400Y0063000D03*
X0359900Y0062000D03*
X0359900Y0061900D03*
X0361100Y0059600D03*
X0361000Y0057700D03*
X0361100Y0057600D03*
X0361200Y0057400D03*
X0361400Y0057100D03*
X0361500Y0057000D03*
X0352200Y0066800D03*
X0362500Y0067500D03*
X0362600Y0067700D03*
X0362700Y0067900D03*
X0362800Y0068100D03*
X0362600Y0068800D03*
X0362700Y0068900D03*
X0363500Y0069700D03*
X0363600Y0069900D03*
X0363700Y0070100D03*
X0363800Y0070400D03*
X0365200Y0071400D03*
X0362300Y0077900D03*
X0361800Y0078100D03*
X0361800Y0078200D03*
X0361800Y0078300D03*
X0361800Y0078400D03*
X0361800Y0078500D03*
X0361800Y0078600D03*
X0361900Y0079200D03*
X0362500Y0078900D03*
X0362500Y0078800D03*
X0362500Y0078700D03*
X0362500Y0078600D03*
X0361700Y0078000D03*
X0360900Y0078300D03*
X0360900Y0078400D03*
X0360300Y0078400D03*
X0360300Y0078500D03*
X0360300Y0078300D03*
X0361200Y0079100D03*
X0361200Y0079200D03*
X0361200Y0079300D03*
X0358700Y0078200D03*
X0358700Y0078100D03*
X0357600Y0079100D03*
X0356400Y0078400D03*
X0356400Y0078300D03*
X0356300Y0078500D03*
X0356300Y0078600D03*
X0356500Y0078100D03*
X0356500Y0078000D03*
X0355700Y0077600D03*
X0355600Y0078500D03*
D31*
X0354100Y0078500D03*
X0349800Y0068900D03*
X0366000Y0078500D03*
X0370700Y0063800D03*
X0370600Y0062900D03*
X0370600Y0062800D03*
X0370000Y0061000D03*
X0370000Y0060900D03*
X0369900Y0060600D03*
X0367900Y0057600D03*
X0366000Y0052200D03*
X0364700Y0051600D03*
X0364500Y0051500D03*
X0355200Y0051700D03*
X0352900Y0052900D03*
D32*
X0353750Y0052400D03*
X0354550Y0053900D03*
X0355350Y0051600D03*
X0357050Y0053200D03*
X0350650Y0054700D03*
X0349850Y0055500D03*
X0349850Y0069000D03*
X0354250Y0078600D03*
X0357050Y0077500D03*
X0362650Y0071600D03*
X0361950Y0070300D03*
X0365850Y0078600D03*
X0370750Y0063500D03*
X0370750Y0063400D03*
X0370750Y0063300D03*
X0370550Y0062700D03*
X0370550Y0062600D03*
X0370550Y0062500D03*
X0370550Y0062400D03*
X0369950Y0060800D03*
X0369950Y0060700D03*
X0370350Y0055600D03*
D33*
X0370450Y0055100D03*
X0369650Y0054400D03*
X0369450Y0054200D03*
X0368150Y0055700D03*
X0367450Y0055200D03*
X0367350Y0055100D03*
X0367150Y0055000D03*
X0367050Y0054900D03*
X0364350Y0052700D03*
X0364350Y0052600D03*
X0361250Y0051800D03*
X0361250Y0051700D03*
X0361250Y0051600D03*
X0358250Y0052300D03*
X0358150Y0051800D03*
X0358150Y0051700D03*
X0356050Y0052800D03*
X0353550Y0053000D03*
X0352150Y0054100D03*
X0352950Y0055000D03*
X0352850Y0055100D03*
X0352650Y0055200D03*
X0352550Y0055300D03*
X0352250Y0055500D03*
X0352150Y0055600D03*
X0352050Y0055700D03*
X0353250Y0054800D03*
X0350050Y0054800D03*
X0349950Y0054900D03*
X0358850Y0056000D03*
X0358850Y0056100D03*
X0359950Y0056100D03*
X0359950Y0056200D03*
X0359950Y0056300D03*
X0359950Y0056000D03*
X0361050Y0056000D03*
X0361050Y0056100D03*
X0361050Y0056200D03*
X0360950Y0058100D03*
X0354350Y0068000D03*
X0355650Y0078000D03*
X0355650Y0078100D03*
X0358850Y0079100D03*
X0359550Y0078100D03*
X0360150Y0079400D03*
D34*
X0353950Y0078400D03*
X0349850Y0068800D03*
X0349850Y0068700D03*
X0349850Y0055600D03*
X0353650Y0052500D03*
X0362550Y0056600D03*
X0364950Y0051700D03*
X0367950Y0057700D03*
X0369250Y0059500D03*
X0370350Y0062200D03*
X0370750Y0064900D03*
X0370750Y0065000D03*
X0370750Y0065100D03*
D35*
X0362800Y0070400D03*
X0363500Y0071700D03*
X0360800Y0059000D03*
X0360800Y0058900D03*
X0368000Y0055300D03*
X0369000Y0054100D03*
X0367700Y0053100D03*
X0365800Y0052000D03*
X0365600Y0051900D03*
X0370400Y0055500D03*
X0354800Y0051800D03*
X0354500Y0051900D03*
X0353900Y0052200D03*
X0350700Y0054500D03*
D36*
X0349850Y0055400D03*
X0352950Y0052800D03*
X0354350Y0052000D03*
X0354450Y0054000D03*
X0356650Y0053300D03*
X0358550Y0059800D03*
X0363950Y0053400D03*
X0368350Y0053600D03*
X0363950Y0078600D03*
D37*
X0357550Y0078400D03*
X0357550Y0078300D03*
X0356750Y0077400D03*
X0354550Y0068100D03*
X0360850Y0058800D03*
X0360850Y0058700D03*
X0364150Y0053500D03*
X0364850Y0053700D03*
X0367650Y0053000D03*
X0368350Y0053500D03*
X0369950Y0054900D03*
X0370050Y0055000D03*
X0370850Y0063000D03*
X0370850Y0063200D03*
X0355650Y0053600D03*
X0354350Y0054100D03*
X0354050Y0052100D03*
X0352150Y0053300D03*
X0349850Y0055300D03*
D38*
X0350700Y0054300D03*
X0351100Y0054800D03*
X0351700Y0053500D03*
X0352400Y0053000D03*
X0353800Y0053400D03*
X0354100Y0053700D03*
X0354100Y0054300D03*
X0353300Y0054700D03*
X0361200Y0052300D03*
X0361200Y0052200D03*
X0361200Y0052100D03*
X0365200Y0053900D03*
X0366100Y0053000D03*
X0367100Y0052600D03*
X0367300Y0052700D03*
X0360900Y0058400D03*
X0360900Y0058500D03*
X0349700Y0069600D03*
X0349900Y0070100D03*
X0349900Y0070200D03*
X0350000Y0070400D03*
X0363900Y0077700D03*
X0364000Y0077800D03*
X0364100Y0078100D03*
X0364100Y0078200D03*
D39*
X0363500Y0077400D03*
X0359300Y0071300D03*
X0354600Y0068200D03*
X0349800Y0069100D03*
X0349800Y0069200D03*
X0354400Y0078700D03*
X0354600Y0078800D03*
X0370800Y0063700D03*
X0370800Y0063600D03*
X0370500Y0062300D03*
X0364700Y0053600D03*
X0365900Y0052100D03*
X0355800Y0053500D03*
X0353800Y0052300D03*
X0350700Y0054600D03*
D40*
X0350700Y0054400D03*
X0352200Y0053200D03*
X0353000Y0052700D03*
X0355400Y0053700D03*
X0361200Y0052500D03*
X0366500Y0052300D03*
X0366700Y0052400D03*
X0366900Y0052500D03*
X0366600Y0053500D03*
X0366500Y0053600D03*
X0368000Y0055400D03*
X0369000Y0054000D03*
X0369900Y0054800D03*
X0370900Y0063100D03*
X0357100Y0070300D03*
X0349900Y0069900D03*
X0349900Y0069800D03*
X0349700Y0069400D03*
X0349700Y0069300D03*
X0357600Y0078200D03*
X0357500Y0078500D03*
X0357500Y0078600D03*
X0357500Y0078700D03*
X0357500Y0078800D03*
D41*
X0357550Y0078900D03*
X0356450Y0077300D03*
X0356550Y0071600D03*
X0363450Y0070500D03*
X0363750Y0077300D03*
X0363850Y0078500D03*
X0349950Y0070000D03*
X0349750Y0069700D03*
X0349750Y0069500D03*
X0360850Y0058600D03*
X0362050Y0056700D03*
X0365050Y0053800D03*
X0366050Y0053100D03*
X0366550Y0053700D03*
X0367450Y0052800D03*
X0367550Y0052900D03*
X0368250Y0053400D03*
X0368950Y0053900D03*
X0369850Y0054700D03*
X0370450Y0055400D03*
X0368050Y0055500D03*
X0361150Y0052400D03*
X0354250Y0054200D03*
X0353950Y0053600D03*
X0353850Y0053500D03*
X0353050Y0052600D03*
X0352250Y0053100D03*
X0351650Y0053600D03*
X0349850Y0055200D03*
D42*
X0350400Y0063300D03*
X0350300Y0063500D03*
X0360100Y0052700D03*
X0369900Y0066600D03*
X0368500Y0071100D03*
X0369300Y0075200D03*
X0369200Y0075300D03*
X0369100Y0075400D03*
X0366600Y0077600D03*
X0350800Y0075200D03*
X0350700Y0075100D03*
D43*
X0353900Y0077200D03*
X0366700Y0072400D03*
X0352300Y0060200D03*
X0352200Y0060300D03*
X0360000Y0052800D03*
X0364600Y0056100D03*
D44*
X0365650Y0054100D03*
X0365850Y0054200D03*
X0366050Y0054300D03*
X0365450Y0054000D03*
X0364250Y0052900D03*
X0368050Y0053200D03*
X0368250Y0053300D03*
X0369850Y0054600D03*
X0360950Y0058300D03*
X0353950Y0054400D03*
X0353750Y0054500D03*
X0353750Y0053300D03*
X0353650Y0053200D03*
X0351750Y0053400D03*
X0351350Y0053700D03*
X0350750Y0054200D03*
X0349850Y0055100D03*
X0352350Y0055400D03*
X0359050Y0068000D03*
X0360750Y0068000D03*
X0363950Y0077200D03*
X0364050Y0077900D03*
X0364050Y0078000D03*
X0363850Y0078400D03*
X0362750Y0078100D03*
X0349950Y0070300D03*
D45*
X0360050Y0076400D03*
X0360050Y0054300D03*
X0360750Y0053000D03*
D46*
X0363700Y0053300D03*
X0370300Y0055700D03*
X0368300Y0058200D03*
X0368400Y0058300D03*
X0368900Y0059000D03*
X0369000Y0059100D03*
X0369000Y0059200D03*
X0369700Y0060500D03*
X0370000Y0061100D03*
X0370000Y0061200D03*
X0370000Y0061300D03*
X0370200Y0061800D03*
X0370200Y0061900D03*
X0370300Y0062100D03*
X0370700Y0064800D03*
X0370700Y0065200D03*
X0370700Y0065300D03*
X0370700Y0065900D03*
X0370700Y0066000D03*
X0359900Y0067900D03*
X0357500Y0071500D03*
X0353900Y0078300D03*
X0355800Y0079200D03*
X0366100Y0078400D03*
X0349900Y0068600D03*
X0349900Y0055700D03*
X0354700Y0053800D03*
X0356000Y0053400D03*
D47*
X0360100Y0053700D03*
X0366700Y0056800D03*
X0366800Y0056900D03*
X0366900Y0057000D03*
X0371600Y0058200D03*
X0371700Y0058400D03*
X0371800Y0058500D03*
X0371800Y0058600D03*
X0371900Y0058700D03*
X0372000Y0058900D03*
X0372100Y0059100D03*
X0370300Y0066200D03*
X0369400Y0069900D03*
X0369400Y0070000D03*
X0369400Y0070100D03*
X0369100Y0070700D03*
X0371800Y0072100D03*
X0371800Y0072200D03*
X0371700Y0072300D03*
X0371600Y0072500D03*
X0371900Y0072000D03*
X0372000Y0071800D03*
X0372100Y0071600D03*
X0366400Y0078000D03*
X0360100Y0077000D03*
X0354900Y0068500D03*
X0350000Y0067500D03*
X0350000Y0067400D03*
X0350000Y0067300D03*
X0348000Y0071500D03*
X0348100Y0071700D03*
X0348200Y0071900D03*
X0348300Y0072000D03*
X0348300Y0072100D03*
X0348400Y0072200D03*
X0348500Y0072400D03*
X0348000Y0059200D03*
X0348100Y0059000D03*
X0348200Y0058800D03*
X0348300Y0058700D03*
X0348300Y0058600D03*
X0348400Y0058500D03*
X0348500Y0058300D03*
D48*
X0350650Y0063100D03*
X0350450Y0065200D03*
X0350450Y0066100D03*
X0350450Y0066200D03*
X0350450Y0066300D03*
X0354750Y0068800D03*
X0351950Y0076100D03*
X0353350Y0077300D03*
X0359850Y0077900D03*
X0360050Y0076900D03*
X0366750Y0077300D03*
X0368050Y0076200D03*
X0368250Y0076100D03*
X0368350Y0076000D03*
X0365950Y0056700D03*
X0360050Y0053800D03*
X0355650Y0055600D03*
D49*
X0355450Y0056100D03*
X0360050Y0053900D03*
X0364550Y0056000D03*
X0359550Y0070200D03*
X0366450Y0072900D03*
X0367050Y0072100D03*
X0363350Y0075500D03*
X0360050Y0076800D03*
X0353450Y0077000D03*
X0353250Y0072400D03*
X0353250Y0072300D03*
X0353150Y0072200D03*
X0353650Y0070000D03*
X0353750Y0069800D03*
X0353850Y0069700D03*
X0353950Y0069600D03*
X0354050Y0069500D03*
D50*
X0352850Y0071100D03*
X0360050Y0076700D03*
X0352650Y0060000D03*
X0360050Y0054000D03*
X0364650Y0056400D03*
D51*
X0360100Y0054100D03*
X0355200Y0057000D03*
X0360100Y0076600D03*
D52*
X0360050Y0076500D03*
X0355150Y0057400D03*
X0360050Y0054200D03*
D53*
X0360100Y0054400D03*
X0360100Y0076300D03*
D54*
X0360050Y0076200D03*
X0355050Y0058500D03*
X0360050Y0054500D03*
D55*
X0360100Y0054600D03*
X0360100Y0076100D03*
D56*
X0360100Y0076000D03*
X0360100Y0054700D03*
D57*
X0360100Y0054800D03*
X0360100Y0075900D03*
D58*
X0360100Y0075800D03*
X0360100Y0054900D03*
D59*
X0360100Y0055000D03*
X0360100Y0075700D03*
D60*
X0360100Y0075600D03*
X0360100Y0055100D03*
D61*
X0360050Y0055200D03*
D62*
X0360050Y0055300D03*
D63*
X0360100Y0055400D03*
D64*
X0355700Y0055500D03*
X0365900Y0056600D03*
X0350500Y0064100D03*
X0350400Y0064400D03*
X0350400Y0064500D03*
X0350400Y0064600D03*
X0350400Y0064700D03*
X0350400Y0064800D03*
X0350400Y0065100D03*
X0350500Y0066400D03*
X0351800Y0076000D03*
X0366700Y0077400D03*
X0368500Y0075900D03*
X0368100Y0071300D03*
D65*
X0355050Y0058200D03*
X0362150Y0055500D03*
D66*
X0364400Y0055600D03*
X0351400Y0061000D03*
X0351400Y0061100D03*
X0351400Y0061200D03*
X0350900Y0062600D03*
X0350900Y0062700D03*
X0350900Y0062900D03*
X0350800Y0063000D03*
X0350600Y0065600D03*
X0350600Y0065700D03*
X0354000Y0073600D03*
X0354100Y0073700D03*
X0354200Y0073800D03*
X0355900Y0075200D03*
X0356100Y0075300D03*
X0352400Y0076400D03*
X0367600Y0076500D03*
D67*
X0367750Y0076400D03*
X0366850Y0077200D03*
X0367950Y0071400D03*
X0355750Y0075100D03*
X0355550Y0075000D03*
X0355250Y0074800D03*
X0354750Y0074400D03*
X0354650Y0074300D03*
X0354550Y0074200D03*
X0354450Y0074100D03*
X0354350Y0074000D03*
X0354250Y0073900D03*
X0352250Y0076300D03*
X0350550Y0065500D03*
X0350550Y0065400D03*
X0350950Y0062500D03*
X0350950Y0062400D03*
X0355550Y0055700D03*
D68*
X0355550Y0055800D03*
X0351350Y0061300D03*
X0351350Y0061400D03*
X0350950Y0062800D03*
X0350650Y0065900D03*
X0350650Y0066000D03*
X0353850Y0073400D03*
X0353950Y0073500D03*
X0352550Y0076500D03*
X0359450Y0071400D03*
X0364850Y0074700D03*
X0367450Y0076600D03*
X0364450Y0055700D03*
D69*
X0364500Y0055800D03*
X0355500Y0055900D03*
X0353400Y0072700D03*
X0353500Y0072900D03*
X0356600Y0075500D03*
X0363900Y0075300D03*
X0365800Y0073800D03*
X0365900Y0073700D03*
X0366000Y0073600D03*
X0367300Y0072000D03*
X0367100Y0076800D03*
X0366900Y0076900D03*
D70*
X0366700Y0077000D03*
X0366200Y0073300D03*
X0366300Y0073200D03*
X0366300Y0073100D03*
X0366400Y0073000D03*
X0367500Y0071600D03*
X0353300Y0072500D03*
X0364500Y0055900D03*
D71*
X0355450Y0056000D03*
X0354150Y0069400D03*
X0353350Y0072600D03*
X0353450Y0072800D03*
X0353250Y0076900D03*
X0360050Y0077800D03*
X0363650Y0075400D03*
X0366050Y0073500D03*
X0366150Y0073400D03*
X0367350Y0071900D03*
X0367350Y0071800D03*
X0367450Y0071700D03*
X0367550Y0071500D03*
D72*
X0368700Y0070900D03*
X0369800Y0074700D03*
X0354600Y0068700D03*
X0350200Y0066800D03*
X0350200Y0074600D03*
X0350300Y0074700D03*
X0350400Y0074800D03*
X0350500Y0074900D03*
X0353400Y0077600D03*
X0350100Y0056200D03*
X0350200Y0056100D03*
X0369800Y0056000D03*
D73*
X0355450Y0056200D03*
X0352150Y0060400D03*
X0353450Y0070300D03*
X0353050Y0071900D03*
X0366650Y0072500D03*
X0366650Y0072600D03*
D74*
X0366750Y0072300D03*
X0352950Y0071600D03*
X0355350Y0056300D03*
X0364650Y0056200D03*
D75*
X0364650Y0056300D03*
X0355350Y0056400D03*
X0352450Y0060100D03*
X0352850Y0071300D03*
X0353150Y0071800D03*
D76*
X0354950Y0068400D03*
X0348150Y0071800D03*
X0348050Y0071600D03*
X0347950Y0071400D03*
X0347850Y0071300D03*
X0347850Y0071200D03*
X0347750Y0071000D03*
X0347650Y0070800D03*
X0353550Y0077900D03*
X0369150Y0070600D03*
X0369250Y0070500D03*
X0369350Y0070300D03*
X0369350Y0070200D03*
X0372150Y0071500D03*
X0372250Y0071400D03*
X0372250Y0071300D03*
X0372350Y0071200D03*
X0372350Y0071100D03*
X0372450Y0070900D03*
X0372550Y0070700D03*
X0372050Y0071700D03*
X0371950Y0071900D03*
X0370350Y0066100D03*
X0372550Y0060000D03*
X0372450Y0059800D03*
X0372350Y0059600D03*
X0372350Y0059500D03*
X0372250Y0059400D03*
X0372250Y0059300D03*
X0372150Y0059200D03*
X0372050Y0059000D03*
X0371950Y0058800D03*
X0359950Y0056400D03*
X0348150Y0058900D03*
X0348050Y0059100D03*
X0347950Y0059300D03*
X0347850Y0059400D03*
X0347850Y0059500D03*
X0347750Y0059700D03*
X0347650Y0059900D03*
D77*
X0355300Y0056600D03*
X0364700Y0056500D03*
X0352800Y0070900D03*
X0352800Y0071000D03*
D78*
X0350300Y0067800D03*
X0349500Y0073800D03*
X0349600Y0073900D03*
X0349700Y0074000D03*
X0359400Y0070100D03*
X0366500Y0077800D03*
X0370300Y0074200D03*
X0370400Y0074100D03*
X0370500Y0074000D03*
X0369900Y0067600D03*
X0369900Y0067500D03*
X0370000Y0067300D03*
X0370000Y0067200D03*
X0370000Y0067100D03*
X0370500Y0056700D03*
X0370400Y0056600D03*
X0370300Y0056500D03*
X0349700Y0056700D03*
X0349600Y0056800D03*
X0349500Y0056900D03*
X0360100Y0080100D03*
D79*
X0353900Y0070400D03*
X0352800Y0070700D03*
X0352800Y0070800D03*
X0352900Y0059800D03*
X0355300Y0056700D03*
D80*
X0355250Y0056800D03*
D81*
X0355250Y0056900D03*
X0352850Y0070600D03*
D82*
X0355200Y0057100D03*
D83*
X0355200Y0057200D03*
D84*
X0358000Y0059700D03*
X0349200Y0057300D03*
X0349100Y0057400D03*
X0349000Y0057500D03*
X0348900Y0057700D03*
X0350000Y0067000D03*
X0350000Y0067100D03*
X0350000Y0067200D03*
X0350100Y0067700D03*
X0350200Y0068000D03*
X0348900Y0073000D03*
X0349000Y0073100D03*
X0349000Y0073200D03*
X0349100Y0073300D03*
X0349200Y0073400D03*
X0353500Y0077800D03*
X0357100Y0079500D03*
X0363300Y0079400D03*
X0366400Y0077900D03*
X0370900Y0073500D03*
X0371000Y0073300D03*
X0371100Y0073200D03*
X0371200Y0073100D03*
X0371400Y0072800D03*
X0369500Y0069600D03*
X0369500Y0069500D03*
X0369500Y0069400D03*
X0369600Y0069100D03*
X0369700Y0068900D03*
X0369700Y0068800D03*
X0369800Y0068500D03*
X0369800Y0068400D03*
X0369900Y0068200D03*
X0369900Y0068100D03*
X0369900Y0068000D03*
X0371400Y0057900D03*
X0371200Y0057600D03*
X0371100Y0057500D03*
X0371000Y0057400D03*
X0370900Y0057200D03*
D85*
X0355150Y0057300D03*
D86*
X0346900Y0062100D03*
X0346800Y0062500D03*
X0346800Y0062600D03*
X0346700Y0063000D03*
X0346700Y0063100D03*
X0346700Y0063200D03*
X0346600Y0063500D03*
X0346600Y0063600D03*
X0346600Y0063700D03*
X0346600Y0063800D03*
X0346600Y0063900D03*
X0346600Y0064000D03*
X0346600Y0064100D03*
X0346600Y0064200D03*
X0346500Y0064400D03*
X0346500Y0064500D03*
X0346500Y0064600D03*
X0346500Y0064700D03*
X0346500Y0064800D03*
X0346500Y0064900D03*
X0346500Y0065000D03*
X0346500Y0065100D03*
X0346500Y0065200D03*
X0346500Y0065300D03*
X0346500Y0065400D03*
X0346500Y0065500D03*
X0346500Y0065600D03*
X0346500Y0065700D03*
X0346500Y0065800D03*
X0346500Y0065900D03*
X0346500Y0066000D03*
X0346500Y0066100D03*
X0346500Y0066200D03*
X0346500Y0066300D03*
X0346600Y0066500D03*
X0346600Y0066600D03*
X0346600Y0066700D03*
X0346600Y0066800D03*
X0346600Y0066900D03*
X0346600Y0067000D03*
X0346600Y0067100D03*
X0346600Y0067200D03*
X0346700Y0067500D03*
X0346700Y0067600D03*
X0346700Y0067700D03*
X0346800Y0068100D03*
X0346800Y0068200D03*
X0346900Y0068600D03*
X0354900Y0068300D03*
X0353700Y0078100D03*
X0355300Y0078900D03*
X0364900Y0078900D03*
X0373300Y0068400D03*
X0373400Y0068000D03*
X0373400Y0067900D03*
X0373400Y0067800D03*
X0373500Y0067500D03*
X0373500Y0067400D03*
X0373500Y0067300D03*
X0373500Y0067200D03*
X0373500Y0067100D03*
X0373600Y0066800D03*
X0373600Y0066700D03*
X0373600Y0066600D03*
X0373600Y0066500D03*
X0373600Y0066400D03*
X0373600Y0066300D03*
X0373600Y0066200D03*
X0373600Y0066100D03*
X0373600Y0066000D03*
X0373600Y0065900D03*
X0373600Y0065800D03*
X0373600Y0065700D03*
X0373600Y0065600D03*
X0373600Y0065500D03*
X0373600Y0065400D03*
X0373600Y0065300D03*
X0373600Y0065200D03*
X0373600Y0065100D03*
X0373600Y0065000D03*
X0373600Y0064900D03*
X0373600Y0064800D03*
X0373600Y0064700D03*
X0373600Y0064600D03*
X0373600Y0064500D03*
X0373600Y0064400D03*
X0373600Y0064300D03*
X0373600Y0064200D03*
X0373600Y0064100D03*
X0373600Y0064000D03*
X0373600Y0063900D03*
X0373500Y0063600D03*
X0373500Y0063500D03*
X0373500Y0063400D03*
X0373500Y0063300D03*
X0373500Y0063200D03*
X0373400Y0062900D03*
X0373400Y0062800D03*
X0373400Y0062700D03*
X0373300Y0062300D03*
X0369400Y0060200D03*
X0368600Y0058800D03*
X0368400Y0058600D03*
X0367600Y0057500D03*
X0367500Y0057400D03*
X0367400Y0057300D03*
D87*
X0355100Y0057600D03*
D88*
X0355100Y0057700D03*
D89*
X0355100Y0057800D03*
D90*
X0355050Y0057900D03*
D91*
X0355100Y0058000D03*
X0360100Y0079600D03*
D92*
X0355050Y0058100D03*
D93*
X0355050Y0058300D03*
X0355050Y0058400D03*
D94*
X0355050Y0058600D03*
D95*
X0355000Y0058700D03*
D96*
X0355050Y0058800D03*
D97*
X0355050Y0058900D03*
X0355050Y0059000D03*
D98*
X0355700Y0059300D03*
X0355800Y0059100D03*
D99*
X0355750Y0059200D03*
D100*
X0355200Y0059400D03*
D101*
X0355000Y0059500D03*
D102*
X0354950Y0059600D03*
D103*
X0353000Y0059700D03*
X0359600Y0077700D03*
D104*
X0353350Y0071700D03*
X0352750Y0059900D03*
D105*
X0351700Y0060500D03*
X0351700Y0060600D03*
X0351700Y0060700D03*
X0351300Y0061500D03*
X0351300Y0061600D03*
X0351300Y0061700D03*
X0351200Y0062100D03*
X0350700Y0065800D03*
X0354500Y0069200D03*
X0354600Y0069100D03*
X0354900Y0068900D03*
X0353700Y0073200D03*
X0353800Y0073300D03*
X0356300Y0075400D03*
X0352900Y0076700D03*
X0352700Y0076600D03*
X0364400Y0075000D03*
X0364600Y0074900D03*
X0364700Y0074800D03*
X0365000Y0074600D03*
X0365100Y0074500D03*
X0365200Y0074400D03*
X0365300Y0074300D03*
X0365400Y0074200D03*
X0367300Y0076700D03*
D106*
X0368900Y0075600D03*
X0368300Y0071200D03*
X0351400Y0075700D03*
X0351300Y0075600D03*
X0350500Y0063200D03*
D107*
X0350350Y0063400D03*
X0350250Y0063600D03*
X0350250Y0063700D03*
X0350250Y0063800D03*
X0350250Y0063900D03*
X0350250Y0064000D03*
X0350650Y0075000D03*
X0353350Y0077500D03*
X0362750Y0079500D03*
X0364750Y0078700D03*
X0366550Y0077700D03*
X0369450Y0075100D03*
X0369550Y0075000D03*
X0369650Y0074900D03*
X0369750Y0074800D03*
X0368550Y0071000D03*
X0369950Y0066800D03*
X0369950Y0066700D03*
D108*
X0368750Y0075700D03*
X0368650Y0075800D03*
X0351650Y0075900D03*
X0351550Y0075800D03*
X0350450Y0066700D03*
X0350450Y0066600D03*
X0350450Y0066500D03*
X0350350Y0065000D03*
X0350350Y0064900D03*
X0350450Y0064300D03*
X0350450Y0064200D03*
D109*
X0350500Y0065300D03*
X0354900Y0074500D03*
X0355000Y0074600D03*
X0355100Y0074700D03*
X0355400Y0074900D03*
X0352100Y0076200D03*
X0367900Y0076300D03*
D110*
X0366500Y0077100D03*
X0366500Y0072800D03*
X0366600Y0072700D03*
X0367000Y0072200D03*
X0353700Y0069900D03*
X0353600Y0070100D03*
X0353500Y0070200D03*
X0353100Y0072000D03*
X0353100Y0072100D03*
X0353700Y0077100D03*
D111*
X0353050Y0070500D03*
D112*
X0352900Y0071400D03*
X0352900Y0071500D03*
D113*
X0350950Y0075300D03*
X0351050Y0075400D03*
X0351150Y0075500D03*
X0353350Y0077400D03*
X0366650Y0077500D03*
X0368950Y0075500D03*
D114*
X0368011Y0083950D02*
X0367043Y0083950D01*
X0366560Y0084434D01*
X0366560Y0085401D01*
X0367043Y0085885D01*
X0368011Y0085885D01*
X0368495Y0085401D01*
X0368495Y0084434D01*
X0368011Y0083950D01*
X0369506Y0084434D02*
X0369990Y0083950D01*
X0371441Y0083950D01*
X0371441Y0085885D01*
X0372453Y0085885D02*
X0373420Y0085885D01*
X0372937Y0086369D02*
X0372937Y0084434D01*
X0373420Y0083950D01*
X0369506Y0084434D02*
X0369506Y0085885D01*
X0365556Y0085885D02*
X0364104Y0084917D01*
X0365556Y0083950D01*
X0364104Y0083950D02*
X0364104Y0086852D01*
X0363093Y0085401D02*
X0363093Y0083950D01*
X0361642Y0083950D01*
X0361158Y0084434D01*
X0361642Y0084917D01*
X0363093Y0084917D01*
X0363093Y0085401D02*
X0362609Y0085885D01*
X0361642Y0085885D01*
X0360146Y0085401D02*
X0360146Y0084917D01*
X0358211Y0084917D01*
X0358211Y0084434D02*
X0358211Y0085401D01*
X0358695Y0085885D01*
X0359662Y0085885D01*
X0360146Y0085401D01*
X0359662Y0083950D02*
X0358695Y0083950D01*
X0358211Y0084434D01*
X0357207Y0085885D02*
X0356723Y0085885D01*
X0355756Y0084917D01*
X0355756Y0083950D02*
X0355756Y0085885D01*
X0354744Y0085885D02*
X0354744Y0086369D01*
X0354261Y0086852D01*
X0352809Y0086852D01*
X0352809Y0083950D01*
X0354261Y0083950D01*
X0354744Y0084434D01*
X0354744Y0084917D01*
X0354261Y0085401D01*
X0352809Y0085401D01*
X0354261Y0085401D02*
X0354744Y0085885D01*
X0348851Y0085401D02*
X0348851Y0083950D01*
X0347400Y0083950D01*
X0346916Y0084434D01*
X0347400Y0084917D01*
X0348851Y0084917D01*
X0348851Y0085401D02*
X0348368Y0085885D01*
X0347400Y0085885D01*
X0345436Y0085885D02*
X0345436Y0083950D01*
X0345919Y0083950D02*
X0344952Y0083950D01*
X0344952Y0085885D02*
X0345436Y0085885D01*
X0345436Y0086852D02*
X0345436Y0087336D01*
X0343948Y0085885D02*
X0343464Y0085885D01*
X0342497Y0084917D01*
X0342497Y0083950D02*
X0342497Y0085885D01*
X0341485Y0085885D02*
X0341485Y0083950D01*
X0341485Y0085401D02*
X0339550Y0085401D01*
X0339550Y0085885D02*
X0340517Y0086852D01*
X0341485Y0085885D01*
X0339550Y0085885D02*
X0339550Y0083950D01*
X0377364Y0085885D02*
X0378331Y0083950D01*
X0379299Y0085885D01*
X0380310Y0085885D02*
X0381278Y0086852D01*
X0381278Y0083950D01*
X0382245Y0083950D02*
X0380310Y0083950D01*
X0373938Y0045085D02*
X0372487Y0045085D01*
X0372003Y0044601D01*
X0372003Y0043634D01*
X0372487Y0043150D01*
X0373938Y0043150D01*
X0373938Y0042666D02*
X0373938Y0045085D01*
X0373938Y0042666D02*
X0373455Y0042183D01*
X0372971Y0042183D01*
X0370999Y0045085D02*
X0370516Y0045085D01*
X0369548Y0044117D01*
X0369548Y0043150D02*
X0369548Y0045085D01*
X0368537Y0044601D02*
X0368053Y0045085D01*
X0367085Y0045085D01*
X0366602Y0044601D01*
X0366602Y0043634D01*
X0367085Y0043150D01*
X0368053Y0043150D01*
X0368537Y0043634D01*
X0368537Y0044601D01*
X0365612Y0043634D02*
X0365612Y0043150D01*
X0365128Y0043150D01*
X0365128Y0043634D01*
X0365612Y0043634D01*
X0364117Y0043634D02*
X0363633Y0044117D01*
X0362665Y0044117D01*
X0362182Y0044601D01*
X0362665Y0045085D01*
X0364117Y0045085D01*
X0364117Y0043634D02*
X0363633Y0043150D01*
X0362182Y0043150D01*
X0361185Y0043150D02*
X0360217Y0043150D01*
X0360701Y0043150D02*
X0360701Y0045085D01*
X0360217Y0045085D01*
X0360701Y0046052D02*
X0360701Y0046536D01*
X0359206Y0044601D02*
X0359206Y0043150D01*
X0359206Y0044601D02*
X0358722Y0045085D01*
X0357271Y0045085D01*
X0357271Y0043150D01*
X0356259Y0043150D02*
X0354808Y0043150D01*
X0354324Y0043634D01*
X0354808Y0044117D01*
X0356259Y0044117D01*
X0356259Y0044601D02*
X0356259Y0043150D01*
X0356259Y0044601D02*
X0355776Y0045085D01*
X0354808Y0045085D01*
X0353328Y0045085D02*
X0352360Y0045085D01*
X0352844Y0045569D02*
X0352844Y0043634D01*
X0353328Y0043150D01*
X0351348Y0043150D02*
X0349897Y0043150D01*
X0349414Y0043634D01*
X0349414Y0044601D01*
X0349897Y0045085D01*
X0351348Y0045085D01*
X0348402Y0044601D02*
X0347918Y0045085D01*
X0346951Y0045085D01*
X0346467Y0044601D01*
X0346467Y0043634D01*
X0346951Y0043150D01*
X0347918Y0043150D01*
X0348402Y0043634D01*
X0348402Y0044601D01*
D115*
X0334700Y0107200D02*
X0329700Y0107200D01*
X0327200Y0109700D01*
X0327200Y0114700D01*
X0329700Y0117200D01*
X0327200Y0119700D01*
X0327200Y0124700D01*
X0329700Y0127200D01*
X0327200Y0129700D01*
X0327200Y0134700D01*
X0329700Y0137200D01*
X0327200Y0139700D01*
X0327200Y0144700D01*
X0329700Y0147200D01*
X0327200Y0149700D01*
X0327200Y0154700D01*
X0329700Y0157200D01*
X0327200Y0159700D01*
X0327200Y0164700D01*
X0329700Y0167200D01*
X0334700Y0167200D01*
X0337200Y0164700D01*
X0337200Y0159700D01*
X0334700Y0157200D01*
X0337200Y0154700D01*
X0337200Y0149700D01*
X0334700Y0147200D01*
X0337200Y0144700D01*
X0337200Y0139700D01*
X0334700Y0137200D01*
X0337200Y0134700D01*
X0337200Y0129700D01*
X0334700Y0127200D01*
X0337200Y0124700D01*
X0337200Y0119700D01*
X0334700Y0117200D01*
X0337200Y0114700D01*
X0337200Y0109700D01*
X0334700Y0107200D01*
X0292200Y0109700D02*
X0289700Y0107200D01*
X0274700Y0107200D01*
X0272200Y0109700D01*
X0272200Y0114700D01*
X0274700Y0117200D01*
X0272200Y0119700D01*
X0272200Y0124700D01*
X0274700Y0127200D01*
X0272200Y0129700D01*
X0272200Y0134700D01*
X0274700Y0137200D01*
X0272200Y0139700D01*
X0272200Y0144700D01*
X0274700Y0147200D01*
X0272200Y0149700D01*
X0272200Y0154700D01*
X0274700Y0157200D01*
X0272200Y0159700D01*
X0272200Y0164700D01*
X0274700Y0167200D01*
X0272200Y0169700D01*
X0272200Y0174700D01*
X0274700Y0177200D01*
X0272200Y0179700D01*
X0272200Y0184700D01*
X0274700Y0187200D01*
X0272200Y0189700D01*
X0272200Y0194700D01*
X0274700Y0197200D01*
X0272200Y0199700D01*
X0272200Y0204700D01*
X0274700Y0207200D01*
X0272200Y0209700D01*
X0272200Y0214700D01*
X0274700Y0217200D01*
X0272200Y0219700D01*
X0272200Y0224700D01*
X0274700Y0227200D01*
X0289700Y0227200D01*
X0292200Y0224700D01*
X0292200Y0219700D01*
X0289700Y0217200D01*
X0292200Y0214700D01*
X0292200Y0209700D01*
X0289700Y0207200D01*
X0292200Y0204700D01*
X0292200Y0199700D01*
X0289700Y0197200D01*
X0292200Y0194700D01*
X0292200Y0189700D01*
X0289700Y0187200D01*
X0292200Y0184700D01*
X0292200Y0179700D01*
X0289700Y0177200D01*
X0292200Y0174700D01*
X0292200Y0169700D01*
X0289700Y0167200D01*
X0292200Y0164700D01*
X0292200Y0159700D01*
X0289700Y0157200D01*
X0292200Y0154700D01*
X0292200Y0149700D01*
X0289700Y0147200D01*
X0292200Y0144700D01*
X0292200Y0139700D01*
X0289700Y0137200D01*
X0292200Y0134700D01*
X0292200Y0129700D01*
X0289700Y0127200D01*
X0292200Y0124700D01*
X0292200Y0119700D01*
X0289700Y0117200D01*
X0292200Y0114700D01*
X0292200Y0109700D01*
X0217200Y0054700D02*
X0214700Y0057200D01*
X0209700Y0057200D01*
X0207200Y0054700D01*
X0204700Y0057200D01*
X0199700Y0057200D01*
X0197200Y0054700D01*
X0194700Y0057200D01*
X0189700Y0057200D01*
X0187200Y0054700D01*
X0184700Y0057200D01*
X0179700Y0057200D01*
X0177200Y0054700D01*
X0174700Y0057200D01*
X0169700Y0057200D01*
X0167200Y0054700D01*
X0164700Y0057200D01*
X0159700Y0057200D01*
X0157200Y0054700D01*
X0154700Y0057200D01*
X0149700Y0057200D01*
X0147200Y0054700D01*
X0144700Y0057200D01*
X0139700Y0057200D01*
X0137200Y0054700D01*
X0134700Y0057200D01*
X0129700Y0057200D01*
X0127200Y0054700D01*
X0124700Y0057200D01*
X0119700Y0057200D01*
X0117200Y0054700D01*
X0114700Y0057200D01*
X0109700Y0057200D01*
X0107200Y0054700D01*
X0104700Y0057200D01*
X0099700Y0057200D01*
X0097200Y0054700D01*
X0097200Y0039700D01*
X0099700Y0037200D01*
X0104700Y0037200D01*
X0107200Y0039700D01*
X0109700Y0037200D01*
X0114700Y0037200D01*
X0117200Y0039700D01*
X0119700Y0037200D01*
X0124700Y0037200D01*
X0127200Y0039700D01*
X0129700Y0037200D01*
X0134700Y0037200D01*
X0137200Y0039700D01*
X0139700Y0037200D01*
X0144700Y0037200D01*
X0147200Y0039700D01*
X0149700Y0037200D01*
X0154700Y0037200D01*
X0157200Y0039700D01*
X0159700Y0037200D01*
X0164700Y0037200D01*
X0167200Y0039700D01*
X0169700Y0037200D01*
X0174700Y0037200D01*
X0177200Y0039700D01*
X0179700Y0037200D01*
X0184700Y0037200D01*
X0187200Y0039700D01*
X0189700Y0037200D01*
X0194700Y0037200D01*
X0197200Y0039700D01*
X0199700Y0037200D01*
X0204700Y0037200D01*
X0207200Y0039700D01*
X0209700Y0037200D01*
X0214700Y0037200D01*
X0217200Y0039700D01*
X0217200Y0054700D01*
X0167200Y0024700D02*
X0167200Y0019700D01*
X0164700Y0017200D01*
X0159700Y0017200D01*
X0157200Y0019700D01*
X0154700Y0017200D01*
X0149700Y0017200D01*
X0147200Y0019700D01*
X0144700Y0017200D01*
X0139700Y0017200D01*
X0137200Y0019700D01*
X0137200Y0024700D01*
X0139700Y0027200D01*
X0144700Y0027200D01*
X0147200Y0024700D01*
X0149700Y0027200D01*
X0154700Y0027200D01*
X0157200Y0024700D01*
X0159700Y0027200D01*
X0164700Y0027200D01*
X0167200Y0024700D01*
X0042200Y0109700D02*
X0042200Y0114700D01*
X0039700Y0117200D01*
X0042200Y0119700D01*
X0042200Y0124700D01*
X0039700Y0127200D01*
X0042200Y0129700D01*
X0042200Y0134700D01*
X0039700Y0137200D01*
X0042200Y0139700D01*
X0042200Y0144700D01*
X0039700Y0147200D01*
X0042200Y0149700D01*
X0042200Y0154700D01*
X0039700Y0157200D01*
X0042200Y0159700D01*
X0042200Y0164700D01*
X0039700Y0167200D01*
X0042200Y0169700D01*
X0042200Y0174700D01*
X0039700Y0177200D01*
X0042200Y0179700D01*
X0042200Y0184700D01*
X0039700Y0187200D01*
X0042200Y0189700D01*
X0042200Y0194700D01*
X0039700Y0197200D01*
X0042200Y0199700D01*
X0042200Y0204700D01*
X0039700Y0207200D01*
X0042200Y0209700D01*
X0042200Y0214700D01*
X0039700Y0217200D01*
X0042200Y0219700D01*
X0042200Y0224700D01*
X0039700Y0227200D01*
X0024700Y0227200D01*
X0022200Y0224700D01*
X0022200Y0219700D01*
X0024700Y0217200D01*
X0022200Y0214700D01*
X0022200Y0209700D01*
X0024700Y0207200D01*
X0022200Y0204700D01*
X0022200Y0199700D01*
X0024700Y0197200D01*
X0022200Y0194700D01*
X0022200Y0189700D01*
X0024700Y0187200D01*
X0022200Y0184700D01*
X0022200Y0179700D01*
X0024700Y0177200D01*
X0022200Y0174700D01*
X0022200Y0169700D01*
X0024700Y0167200D01*
X0022200Y0164700D01*
X0022200Y0159700D01*
X0024700Y0157200D01*
X0022200Y0154700D01*
X0022200Y0149700D01*
X0024700Y0147200D01*
X0022200Y0144700D01*
X0022200Y0139700D01*
X0024700Y0137200D01*
X0022200Y0134700D01*
X0022200Y0129700D01*
X0024700Y0127200D01*
X0022200Y0124700D01*
X0022200Y0119700D01*
X0024700Y0117200D01*
X0022200Y0114700D01*
X0022200Y0109700D01*
X0024700Y0107200D01*
X0039700Y0107200D01*
X0042200Y0109700D01*
X0029700Y0097200D02*
X0024700Y0097200D01*
X0022200Y0094700D01*
X0022200Y0089700D01*
X0024700Y0087200D01*
X0022200Y0084700D01*
X0022200Y0079700D01*
X0024700Y0077200D01*
X0022200Y0074700D01*
X0022200Y0069700D01*
X0024700Y0067200D01*
X0022200Y0064700D01*
X0022200Y0059700D01*
X0024700Y0057200D01*
X0022200Y0054700D01*
X0022200Y0049700D01*
X0024700Y0047200D01*
X0022200Y0044700D01*
X0022200Y0039700D01*
X0024700Y0037200D01*
X0022200Y0034700D01*
X0022200Y0029700D01*
X0024700Y0027200D01*
X0022200Y0024700D01*
X0022200Y0019700D01*
X0024700Y0017200D01*
X0029700Y0017200D01*
X0032200Y0019700D01*
X0032200Y0024700D01*
X0029700Y0027200D01*
X0032200Y0029700D01*
X0032200Y0034700D01*
X0029700Y0037200D01*
X0032200Y0039700D01*
X0032200Y0044700D01*
X0029700Y0047200D01*
X0032200Y0049700D01*
X0032200Y0054700D01*
X0029700Y0057200D01*
X0032200Y0059700D01*
X0032200Y0064700D01*
X0029700Y0067200D01*
X0032200Y0069700D01*
X0032200Y0074700D01*
X0029700Y0077200D01*
X0032200Y0079700D01*
X0032200Y0084700D01*
X0029700Y0087200D01*
X0032200Y0089700D01*
X0032200Y0094700D01*
X0029700Y0097200D01*
X0099700Y0272200D02*
X0104700Y0272200D01*
X0107200Y0274700D01*
X0109700Y0272200D01*
X0114700Y0272200D01*
X0117200Y0274700D01*
X0119700Y0272200D01*
X0124700Y0272200D01*
X0127200Y0274700D01*
X0129700Y0272200D01*
X0134700Y0272200D01*
X0137200Y0274700D01*
X0139700Y0272200D01*
X0144700Y0272200D01*
X0147200Y0274700D01*
X0149700Y0272200D01*
X0154700Y0272200D01*
X0157200Y0274700D01*
X0159700Y0272200D01*
X0164700Y0272200D01*
X0167200Y0274700D01*
X0169700Y0272200D01*
X0174700Y0272200D01*
X0177200Y0274700D01*
X0179700Y0272200D01*
X0184700Y0272200D01*
X0187200Y0274700D01*
X0189700Y0272200D01*
X0194700Y0272200D01*
X0197200Y0274700D01*
X0199700Y0272200D01*
X0204700Y0272200D01*
X0207200Y0274700D01*
X0209700Y0272200D01*
X0214700Y0272200D01*
X0217200Y0274700D01*
X0217200Y0289700D01*
X0214700Y0292200D01*
X0209700Y0292200D01*
X0207200Y0289700D01*
X0204700Y0292200D01*
X0199700Y0292200D01*
X0197200Y0289700D01*
X0194700Y0292200D01*
X0189700Y0292200D01*
X0187200Y0289700D01*
X0184700Y0292200D01*
X0179700Y0292200D01*
X0177200Y0289700D01*
X0174700Y0292200D01*
X0169700Y0292200D01*
X0167200Y0289700D01*
X0164700Y0292200D01*
X0159700Y0292200D01*
X0157200Y0289700D01*
X0154700Y0292200D01*
X0149700Y0292200D01*
X0147200Y0289700D01*
X0144700Y0292200D01*
X0139700Y0292200D01*
X0137200Y0289700D01*
X0134700Y0292200D01*
X0129700Y0292200D01*
X0127200Y0289700D01*
X0124700Y0292200D01*
X0119700Y0292200D01*
X0117200Y0289700D01*
X0114700Y0292200D01*
X0109700Y0292200D01*
X0107200Y0289700D01*
X0104700Y0292200D01*
X0099700Y0292200D01*
X0097200Y0289700D01*
X0097200Y0274700D01*
X0099700Y0272200D01*
X0327200Y0224700D02*
X0327200Y0219700D01*
X0329700Y0217200D01*
X0327200Y0214700D01*
X0327200Y0209700D01*
X0329700Y0207200D01*
X0327200Y0204700D01*
X0327200Y0199700D01*
X0329700Y0197200D01*
X0327200Y0194700D01*
X0327200Y0189700D01*
X0329700Y0187200D01*
X0334700Y0187200D01*
X0337200Y0189700D01*
X0337200Y0194700D01*
X0334700Y0197200D01*
X0337200Y0199700D01*
X0337200Y0204700D01*
X0334700Y0207200D01*
X0337200Y0209700D01*
X0337200Y0214700D01*
X0334700Y0217200D01*
X0337200Y0219700D01*
X0337200Y0224700D01*
X0334700Y0227200D01*
X0329700Y0227200D01*
X0327200Y0224700D01*
X0352200Y0224700D02*
X0352200Y0219700D01*
X0354700Y0217200D01*
X0352200Y0214700D01*
X0352200Y0209700D01*
X0354700Y0207200D01*
X0352200Y0204700D01*
X0352200Y0199700D01*
X0354700Y0197200D01*
X0352200Y0194700D01*
X0352200Y0189700D01*
X0354700Y0187200D01*
X0359700Y0187200D01*
X0362200Y0189700D01*
X0362200Y0194700D01*
X0359700Y0197200D01*
X0362200Y0199700D01*
X0362200Y0204700D01*
X0359700Y0207200D01*
X0362200Y0209700D01*
X0362200Y0214700D01*
X0359700Y0217200D01*
X0362200Y0219700D01*
X0362200Y0224700D01*
X0359700Y0227200D01*
X0354700Y0227200D01*
X0352200Y0224700D01*
X0377200Y0224700D02*
X0377200Y0219700D01*
X0379700Y0217200D01*
X0377200Y0214700D01*
X0377200Y0209700D01*
X0379700Y0207200D01*
X0377200Y0204700D01*
X0377200Y0199700D01*
X0379700Y0197200D01*
X0377200Y0194700D01*
X0377200Y0189700D01*
X0379700Y0187200D01*
X0384700Y0187200D01*
X0387200Y0189700D01*
X0387200Y0194700D01*
X0384700Y0197200D01*
X0387200Y0199700D01*
X0387200Y0204700D01*
X0384700Y0207200D01*
X0387200Y0209700D01*
X0387200Y0214700D01*
X0384700Y0217200D01*
X0387200Y0219700D01*
X0387200Y0224700D01*
X0384700Y0227200D01*
X0379700Y0227200D01*
X0377200Y0224700D01*
D116*
X0379946Y0228847D02*
X0384450Y0228847D01*
X0384450Y0227346D02*
X0384450Y0230349D01*
X0381447Y0227346D02*
X0379946Y0228847D01*
X0359450Y0228847D02*
X0354946Y0228847D01*
X0356447Y0227346D01*
X0359450Y0227346D02*
X0359450Y0230349D01*
X0334450Y0230349D02*
X0334450Y0227346D01*
X0334450Y0228847D02*
X0329946Y0228847D01*
X0331447Y0227346D01*
X0332198Y0184849D02*
X0332198Y0181846D01*
X0329946Y0184098D01*
X0334450Y0184098D01*
X0354946Y0184098D02*
X0357198Y0181846D01*
X0357198Y0184849D01*
X0359450Y0184098D02*
X0354946Y0184098D01*
X0379946Y0184098D02*
X0382198Y0181846D01*
X0382198Y0184849D01*
X0384450Y0184098D02*
X0379946Y0184098D01*
X0325450Y0163349D02*
X0325450Y0160346D01*
X0325450Y0161847D02*
X0320946Y0161847D01*
X0322447Y0160346D01*
X0298450Y0115098D02*
X0293946Y0115098D01*
X0296198Y0112846D01*
X0296198Y0115849D01*
X0295447Y0111245D02*
X0294697Y0111245D01*
X0293946Y0110494D01*
X0293946Y0108993D01*
X0294697Y0108242D01*
X0295447Y0111245D02*
X0298450Y0108242D01*
X0298450Y0111245D01*
X0324247Y0086905D02*
X0267161Y0086905D01*
X0267161Y0033361D01*
X0324247Y0033361D01*
X0324247Y0086905D01*
X0341198Y0110346D02*
X0341198Y0112598D01*
X0341949Y0113349D01*
X0342699Y0113349D01*
X0343450Y0112598D01*
X0343450Y0111097D01*
X0342699Y0110346D01*
X0341198Y0110346D01*
X0339697Y0111847D01*
X0338946Y0113349D01*
X0212349Y0058950D02*
X0209346Y0058950D01*
X0210847Y0058950D02*
X0210847Y0063454D01*
X0209346Y0061953D01*
X0133951Y0024454D02*
X0133951Y0019950D01*
X0132450Y0019950D02*
X0135453Y0019950D01*
X0132450Y0022953D02*
X0133951Y0024454D01*
X0105849Y0033202D02*
X0102846Y0033202D01*
X0105098Y0035454D01*
X0105098Y0030950D01*
X0101245Y0030950D02*
X0098242Y0030950D01*
X0101245Y0033953D01*
X0101245Y0034703D01*
X0100494Y0035454D01*
X0098993Y0035454D01*
X0098242Y0034703D01*
X0038450Y0023453D02*
X0038450Y0020450D01*
X0038450Y0021951D02*
X0033946Y0021951D01*
X0035447Y0020450D01*
X0019699Y0089950D02*
X0018949Y0089950D01*
X0018198Y0090701D01*
X0018198Y0092202D01*
X0018949Y0092953D01*
X0019699Y0092953D01*
X0020450Y0092202D01*
X0020450Y0090701D01*
X0019699Y0089950D01*
X0018198Y0090701D02*
X0017447Y0089950D01*
X0016697Y0089950D01*
X0015946Y0090701D01*
X0015946Y0092202D01*
X0016697Y0092953D01*
X0017447Y0092953D01*
X0018198Y0092202D01*
X0043946Y0112451D02*
X0048450Y0112451D01*
X0048450Y0110950D02*
X0048450Y0113953D01*
X0045447Y0110950D02*
X0043946Y0112451D01*
X0020450Y0217450D02*
X0017447Y0220453D01*
X0016697Y0220453D01*
X0015946Y0219702D01*
X0015946Y0218201D01*
X0016697Y0217450D01*
X0020450Y0217450D02*
X0020450Y0220453D01*
X0018198Y0222054D02*
X0018198Y0225056D01*
X0015946Y0224306D02*
X0018198Y0222054D01*
X0020450Y0224306D02*
X0015946Y0224306D01*
X0100950Y0265950D02*
X0103953Y0265950D01*
X0102451Y0265950D02*
X0102451Y0270454D01*
X0100950Y0268953D01*
X0207450Y0293950D02*
X0210453Y0296953D01*
X0210453Y0297703D01*
X0209702Y0298454D01*
X0208201Y0298454D01*
X0207450Y0297703D01*
X0207450Y0293950D02*
X0210453Y0293950D01*
X0212054Y0296202D02*
X0214306Y0298454D01*
X0214306Y0293950D01*
X0215056Y0296202D02*
X0212054Y0296202D01*
X0265946Y0220847D02*
X0270450Y0220847D01*
X0270450Y0219346D02*
X0270450Y0222349D01*
X0267447Y0219346D02*
X0265946Y0220847D01*
D117*
X0235940Y0230192D02*
X0235940Y0245940D01*
X0220192Y0245940D01*
X0097200Y0222200D02*
X0097202Y0222341D01*
X0097208Y0222482D01*
X0097218Y0222622D01*
X0097232Y0222762D01*
X0097250Y0222902D01*
X0097271Y0223041D01*
X0097297Y0223180D01*
X0097326Y0223318D01*
X0097360Y0223454D01*
X0097397Y0223590D01*
X0097438Y0223725D01*
X0097483Y0223859D01*
X0097532Y0223991D01*
X0097584Y0224122D01*
X0097640Y0224251D01*
X0097700Y0224378D01*
X0097763Y0224504D01*
X0097829Y0224628D01*
X0097900Y0224751D01*
X0097973Y0224871D01*
X0098050Y0224989D01*
X0098130Y0225105D01*
X0098214Y0225218D01*
X0098300Y0225329D01*
X0098390Y0225438D01*
X0098483Y0225544D01*
X0098578Y0225647D01*
X0098677Y0225748D01*
X0098778Y0225846D01*
X0098882Y0225941D01*
X0098989Y0226033D01*
X0099098Y0226122D01*
X0099210Y0226207D01*
X0099324Y0226290D01*
X0099440Y0226370D01*
X0099559Y0226446D01*
X0099680Y0226518D01*
X0099802Y0226588D01*
X0099927Y0226653D01*
X0100053Y0226716D01*
X0100181Y0226774D01*
X0100311Y0226829D01*
X0100442Y0226881D01*
X0100575Y0226928D01*
X0100709Y0226972D01*
X0100844Y0227013D01*
X0100980Y0227049D01*
X0101117Y0227081D01*
X0101255Y0227110D01*
X0101393Y0227135D01*
X0101533Y0227155D01*
X0101673Y0227172D01*
X0101813Y0227185D01*
X0101954Y0227194D01*
X0102094Y0227199D01*
X0102235Y0227200D01*
X0102376Y0227197D01*
X0102517Y0227190D01*
X0102657Y0227179D01*
X0102797Y0227164D01*
X0102937Y0227145D01*
X0103076Y0227123D01*
X0103214Y0227096D01*
X0103352Y0227066D01*
X0103488Y0227031D01*
X0103624Y0226993D01*
X0103758Y0226951D01*
X0103892Y0226905D01*
X0104024Y0226856D01*
X0104154Y0226802D01*
X0104283Y0226745D01*
X0104410Y0226685D01*
X0104536Y0226621D01*
X0104659Y0226553D01*
X0104781Y0226482D01*
X0104901Y0226408D01*
X0105018Y0226330D01*
X0105133Y0226249D01*
X0105246Y0226165D01*
X0105357Y0226078D01*
X0105465Y0225987D01*
X0105570Y0225894D01*
X0105673Y0225797D01*
X0105773Y0225698D01*
X0105870Y0225596D01*
X0105964Y0225491D01*
X0106055Y0225384D01*
X0106143Y0225274D01*
X0106228Y0225162D01*
X0106310Y0225047D01*
X0106389Y0224930D01*
X0106464Y0224811D01*
X0106536Y0224690D01*
X0106604Y0224567D01*
X0106669Y0224442D01*
X0106731Y0224315D01*
X0106788Y0224186D01*
X0106843Y0224056D01*
X0106893Y0223925D01*
X0106940Y0223792D01*
X0106983Y0223658D01*
X0107022Y0223522D01*
X0107057Y0223386D01*
X0107089Y0223249D01*
X0107116Y0223111D01*
X0107140Y0222972D01*
X0107160Y0222832D01*
X0107176Y0222692D01*
X0107188Y0222552D01*
X0107196Y0222411D01*
X0107200Y0222270D01*
X0107200Y0222130D01*
X0107196Y0221989D01*
X0107188Y0221848D01*
X0107176Y0221708D01*
X0107160Y0221568D01*
X0107140Y0221428D01*
X0107116Y0221289D01*
X0107089Y0221151D01*
X0107057Y0221014D01*
X0107022Y0220878D01*
X0106983Y0220742D01*
X0106940Y0220608D01*
X0106893Y0220475D01*
X0106843Y0220344D01*
X0106788Y0220214D01*
X0106731Y0220085D01*
X0106669Y0219958D01*
X0106604Y0219833D01*
X0106536Y0219710D01*
X0106464Y0219589D01*
X0106389Y0219470D01*
X0106310Y0219353D01*
X0106228Y0219238D01*
X0106143Y0219126D01*
X0106055Y0219016D01*
X0105964Y0218909D01*
X0105870Y0218804D01*
X0105773Y0218702D01*
X0105673Y0218603D01*
X0105570Y0218506D01*
X0105465Y0218413D01*
X0105357Y0218322D01*
X0105246Y0218235D01*
X0105133Y0218151D01*
X0105018Y0218070D01*
X0104901Y0217992D01*
X0104781Y0217918D01*
X0104659Y0217847D01*
X0104536Y0217779D01*
X0104410Y0217715D01*
X0104283Y0217655D01*
X0104154Y0217598D01*
X0104024Y0217544D01*
X0103892Y0217495D01*
X0103758Y0217449D01*
X0103624Y0217407D01*
X0103488Y0217369D01*
X0103352Y0217334D01*
X0103214Y0217304D01*
X0103076Y0217277D01*
X0102937Y0217255D01*
X0102797Y0217236D01*
X0102657Y0217221D01*
X0102517Y0217210D01*
X0102376Y0217203D01*
X0102235Y0217200D01*
X0102094Y0217201D01*
X0101954Y0217206D01*
X0101813Y0217215D01*
X0101673Y0217228D01*
X0101533Y0217245D01*
X0101393Y0217265D01*
X0101255Y0217290D01*
X0101117Y0217319D01*
X0100980Y0217351D01*
X0100844Y0217387D01*
X0100709Y0217428D01*
X0100575Y0217472D01*
X0100442Y0217519D01*
X0100311Y0217571D01*
X0100181Y0217626D01*
X0100053Y0217684D01*
X0099927Y0217747D01*
X0099802Y0217812D01*
X0099680Y0217882D01*
X0099559Y0217954D01*
X0099440Y0218030D01*
X0099324Y0218110D01*
X0099210Y0218193D01*
X0099098Y0218278D01*
X0098989Y0218367D01*
X0098882Y0218459D01*
X0098778Y0218554D01*
X0098677Y0218652D01*
X0098578Y0218753D01*
X0098483Y0218856D01*
X0098390Y0218962D01*
X0098300Y0219071D01*
X0098214Y0219182D01*
X0098130Y0219295D01*
X0098050Y0219411D01*
X0097973Y0219529D01*
X0097900Y0219649D01*
X0097829Y0219772D01*
X0097763Y0219896D01*
X0097700Y0220022D01*
X0097640Y0220149D01*
X0097584Y0220278D01*
X0097532Y0220409D01*
X0097483Y0220541D01*
X0097438Y0220675D01*
X0097397Y0220810D01*
X0097360Y0220946D01*
X0097326Y0221082D01*
X0097297Y0221220D01*
X0097271Y0221359D01*
X0097250Y0221498D01*
X0097232Y0221638D01*
X0097218Y0221778D01*
X0097208Y0221918D01*
X0097202Y0222059D01*
X0097200Y0222200D01*
X0078460Y0230192D02*
X0078460Y0245940D01*
X0094208Y0245940D01*
X0078460Y0104208D02*
X0078460Y0088460D01*
X0094208Y0088460D01*
X0220192Y0088460D02*
X0235940Y0088460D01*
X0235940Y0104208D01*
D118*
X0117501Y0077204D02*
X0117501Y0075669D01*
X0111362Y0075669D01*
X0111362Y0074135D02*
X0111362Y0077204D01*
X0112897Y0078739D01*
X0115966Y0078739D01*
X0117501Y0077204D01*
X0115966Y0072600D02*
X0112897Y0072600D01*
X0111362Y0074135D01*
X0108293Y0072600D02*
X0108293Y0078739D01*
X0102154Y0078739D02*
X0102154Y0074135D01*
X0103689Y0072600D01*
X0108293Y0072600D01*
X0099085Y0072600D02*
X0096016Y0072600D01*
X0097550Y0072600D02*
X0097550Y0081808D01*
X0096016Y0081808D01*
X0092946Y0077204D02*
X0092946Y0072600D01*
X0088342Y0072600D01*
X0086808Y0074135D01*
X0088342Y0075669D01*
X0092946Y0075669D01*
X0092946Y0077204D02*
X0091412Y0078739D01*
X0088342Y0078739D01*
X0083739Y0078739D02*
X0080669Y0072600D01*
X0077600Y0078739D01*
D119*
X0249896Y0088019D02*
X0254500Y0088019D01*
X0254500Y0086484D02*
X0254500Y0089554D01*
X0253733Y0091088D02*
X0250663Y0094157D01*
X0253733Y0094157D01*
X0254500Y0093390D01*
X0254500Y0091855D01*
X0253733Y0091088D01*
X0250663Y0091088D01*
X0249896Y0091855D01*
X0249896Y0093390D01*
X0250663Y0094157D01*
X0250663Y0095692D02*
X0249896Y0096459D01*
X0249896Y0097994D01*
X0250663Y0098761D01*
X0253733Y0095692D01*
X0254500Y0096459D01*
X0254500Y0097994D01*
X0253733Y0098761D01*
X0250663Y0098761D01*
X0251431Y0100296D02*
X0251431Y0102598D01*
X0252198Y0103365D01*
X0254500Y0103365D01*
X0254500Y0100296D02*
X0251431Y0100296D01*
X0250663Y0095692D02*
X0253733Y0095692D01*
X0249896Y0088019D02*
X0251431Y0086484D01*
X0064500Y0237400D02*
X0064500Y0240469D01*
X0064500Y0238935D02*
X0059896Y0238935D01*
X0061431Y0237400D01*
X0060663Y0242004D02*
X0059896Y0242771D01*
X0059896Y0244306D01*
X0060663Y0245073D01*
X0063733Y0242004D01*
X0064500Y0242771D01*
X0064500Y0244306D01*
X0063733Y0245073D01*
X0060663Y0245073D01*
X0060663Y0246608D02*
X0059896Y0247375D01*
X0059896Y0248910D01*
X0060663Y0249677D01*
X0063733Y0246608D01*
X0064500Y0247375D01*
X0064500Y0248910D01*
X0063733Y0249677D01*
X0060663Y0249677D01*
X0061431Y0251212D02*
X0061431Y0253514D01*
X0062198Y0254281D01*
X0064500Y0254281D01*
X0064500Y0251212D02*
X0061431Y0251212D01*
X0060663Y0246608D02*
X0063733Y0246608D01*
X0063733Y0242004D02*
X0060663Y0242004D01*
M02*
