%
M48
M72
T01C0.01969
T02C0.02362
T03C0.04000
T04C0.11811
%
T01
X99700Y92200
X104700Y92200
X109700Y92200
X114700Y92200
X119700Y92200
X124700Y92200
X129700Y92200
X134700Y92200
X139700Y92200
X144700Y92200
X149700Y92200
X154700Y92200
X159700Y92200
X164700Y92200
X169700Y92200
X174700Y92200
X179700Y92200
X184700Y92200
X189700Y92200
X194700Y92200
X199700Y92200
X204700Y92200
X209700Y92200
X214700Y92200
X232200Y109700
X232200Y114700
X232200Y119700
X232200Y124700
X232200Y129700
X232200Y134700
X232200Y139700
X232200Y144700
X232200Y149700
X232200Y154700
X232200Y159700
X232200Y164700
X232200Y169700
X232200Y174700
X232200Y179700
X232200Y184700
X232200Y189700
X232200Y194700
X232200Y199700
X232200Y204700
X232200Y209700
X232200Y214700
X232200Y219700
X232200Y224700
X214700Y242200
X209700Y242200
X204700Y242200
X199700Y242200
X194700Y242200
X189700Y242200
X184700Y242200
X179700Y242200
X174700Y242200
X169700Y242200
X164700Y242200
X159700Y242200
X154700Y242200
X149700Y242200
X144700Y242200
X139700Y242200
X134700Y242200
X129700Y242200
X124700Y242200
X119700Y242200
X114700Y242200
X109700Y242200
X104700Y242200
X99700Y242200
X82200Y224700
X82200Y219700
X82200Y214700
X82200Y209700
X82200Y204700
X82200Y199700
X82200Y194700
X82200Y189700
X82200Y184700
X82200Y179700
X82200Y174700
X82200Y169700
X82200Y164700
X82200Y159700
X82200Y154700
X82200Y149700
X82200Y144700
X82200Y139700
X82200Y134700
X82200Y129700
X82200Y124700
X82200Y119700
X82200Y114700
X82200Y109700
T02
X132200Y142200
X112200Y162200
X152200Y122200
X202200Y172200
X182200Y192200
X162200Y212200
X259700Y169700
X297200Y237200
X342200Y262200
X362200Y252200
X382200Y252200
X342200Y282200
X382200Y162200
X362200Y152200
X362200Y132200
X362200Y112200
X279700Y69700
X277200Y77200
X267200Y67200
X262200Y54700
X252200Y92200
X212200Y22200
X342200Y22200
X62200Y22200
X32200Y252200
X12200Y252200
X52200Y272200
X72200Y292200
T03
X27200Y22200
X27200Y32200
X27200Y42200
X27200Y52200
X27200Y62200
X27200Y72200
X27200Y82200
X27200Y92200
X27200Y112200
X27200Y122200
X27200Y132200
X27200Y142200
X27200Y152200
X27200Y162200
X27200Y172200
X37200Y172200
X37200Y162200
X37200Y152200
X37200Y142200
X37200Y132200
X37200Y122200
X37200Y112200
X102200Y52200
X102200Y42200
X112200Y42200
X122200Y42200
X122200Y52200
X112200Y52200
X132200Y52200
X142200Y52200
X142200Y42200
X132200Y42200
X152200Y42200
X162200Y42200
X162200Y52200
X152200Y52200
X172200Y52200
X182200Y52200
X182200Y42200
X172200Y42200
X192200Y42200
X202200Y42200
X202200Y52200
X192200Y52200
X212200Y52200
X212200Y42200
X162200Y22200
X152200Y22200
X142200Y22200
X277200Y112200
X287200Y112200
X287200Y122200
X277200Y122200
X277200Y132200
X287200Y132200
X287200Y142200
X277200Y142200
X277200Y152200
X287200Y152200
X287200Y162200
X277200Y162200
X277200Y172200
X287200Y172200
X287200Y182200
X277200Y182200
X277200Y192200
X287200Y192200
X287200Y202200
X277200Y202200
X277200Y212200
X287200Y212200
X287200Y222200
X277200Y222200
X332200Y222200
X332200Y212200
X332200Y202200
X332200Y192200
X357200Y192200
X357200Y202200
X357200Y212200
X357200Y222200
X382200Y222200
X382200Y212200
X382200Y202200
X382200Y192200
X332200Y162200
X332200Y152200
X332200Y142200
X332200Y132200
X332200Y122200
X332200Y112200
X212200Y277200
X212200Y287200
X202200Y287200
X192200Y287200
X192200Y277200
X202200Y277200
X182200Y277200
X172200Y277200
X172200Y287200
X182200Y287200
X162200Y287200
X152200Y287200
X152200Y277200
X162200Y277200
X142200Y277200
X132200Y277200
X132200Y287200
X142200Y287200
X122200Y287200
X112200Y287200
X112200Y277200
X122200Y277200
X102200Y277200
X102200Y287200
X37200Y222200
X37200Y212200
X37200Y202200
X37200Y192200
X37200Y182200
X27200Y182200
X27200Y192200
X27200Y202200
X27200Y212200
X27200Y222200
T04
X22200Y282200
X372200Y282200
X372200Y22200
M30
