%
M48
M72
T01C0.01200
T02C0.01969
T03C0.02362
T04C0.03600
T05C0.04000
%
T01
X43220Y28800
X60720Y23800
X116220Y31300
X119020Y61300
X99179Y79958
X102620Y86800
X96365Y94243
X84298Y95650
X80601Y93318
X76220Y92300
X80698Y98168
X91320Y107300
X96365Y105500
X102697Y110424
X106620Y111000
X97068Y112535
X91440Y113239
X92847Y124495
X99179Y121681
X83701Y123088
X80887Y125199
X83701Y132234
X94958Y139270
X100120Y139500
X93220Y146300
X92847Y146305
X97520Y158200
X88020Y167900
X77420Y178900
X72520Y175400
X75420Y149900
X109420Y145000
X112720Y134200
X125720Y121300
X142792Y123972
X148520Y122900
X161420Y113600
X165720Y121300
X173220Y126300
X178220Y123800
X193220Y126300
X181720Y146300
X165720Y138800
X145020Y136900
X139120Y137400
X134220Y137600
X131820Y152100
X136020Y152200
X123220Y156300
X145720Y173800
X149720Y185300
X162220Y186300
X166220Y184600
X168120Y187400
X175720Y188800
X188220Y178800
X185720Y173300
X200720Y181300
X230287Y180237
X242787Y182737
X252287Y174637
X257087Y173437
X264287Y174637
X272687Y174637
X283487Y174637
X282787Y200237
X269087Y205837
X245787Y199337
X242687Y205837
X230287Y201300
X201220Y209300
X201220Y212300
X198220Y212300
X198220Y209300
X185720Y215800
X172820Y207400
X167520Y205300
X165920Y225900
X163220Y228800
X160420Y226200
X183720Y227300
X198720Y235300
X201720Y235300
X201720Y238300
X198720Y238300
X136420Y196300
X120520Y193800
X120720Y218800
X112520Y233600
X95720Y226300
X85720Y233800
X92420Y243600
X94220Y250700
X134620Y239800
X85720Y218800
X77369Y214549
X153220Y161300
X164720Y170300
X230287Y165237
X240287Y159037
X247787Y144637
X254687Y137437
X240287Y130237
X240287Y115237
X247787Y100237
X240287Y90237
X240287Y75237
X247787Y65237
X240287Y57737
X240287Y42737
X260287Y37737
X262787Y50237
X277787Y30237
X329027Y42737
X329027Y57737
X336527Y65237
X329027Y75237
X329027Y90237
X336527Y100237
X347027Y89437
X349027Y80237
X359027Y92737
X362627Y105037
X374027Y115237
X376527Y130237
X349427Y112237
X329027Y115237
X329027Y130237
X343427Y137437
X336527Y144637
X319427Y142937
X329027Y159037
X319027Y165237
X319027Y180237
X331527Y182737
X341027Y174637
X345827Y173437
X353027Y174637
X361427Y174637
X372227Y174637
X371527Y200237
X357827Y205837
X334527Y199337
X331427Y205837
X319027Y201300
X230687Y142937
X260687Y112237
X273887Y105037
X285287Y115237
X287787Y130237
X270287Y92737
X258287Y89437
X260287Y80237
X285287Y87737
X349027Y37737
X351527Y50237
X366527Y30237
X374027Y87737
X195720Y100300
X155520Y100400
X155620Y95400
X151945Y90904
X154459Y81290
X148220Y66300
X148220Y61300
X174458Y45698
X168126Y40774
X168126Y33738
X115720Y83800
X138577Y108331
X145720Y101300
X75720Y78600
X68320Y78800
X51527Y71819
T02
X66720Y222600
X72520Y229000
T03
X95720Y196300
X65720Y176300
X60720Y194300
X50720Y93800
X88220Y63800
X93220Y63800
X93220Y58800
X88220Y58800
X88220Y53800
X94720Y42700
X94720Y37800
X85720Y11300
X80720Y11300
X75720Y11300
X70720Y11300
X132120Y49800
X141920Y61400
X180720Y88100
X185720Y86300
X190720Y86300
X190720Y81300
X185720Y81300
X190720Y91300
X197820Y123700
T04
X197120Y130800
X187120Y130800
X187120Y140800
X197120Y140800
X197120Y150800
X187120Y150800
X187120Y160800
X197120Y160800
X127020Y250400
X117020Y250400
X121120Y23300
X131120Y23300
T05
X124020Y53900
X114020Y53900
X190720Y68900
X230917Y18111
X240917Y18111
X250917Y18111
X260917Y18111
X270917Y18111
X280917Y18111
X290917Y18111
X319657Y18111
X329657Y18111
X339657Y18111
X349657Y18111
X359657Y18111
X369657Y18111
X379657Y18111
X129420Y215200
X141420Y250600
X35720Y196300
X35720Y186300
X25720Y186300
X25720Y196300
X25720Y176300
X35720Y176300
X35720Y166300
X35720Y156300
X35720Y146300
X25720Y146300
X25720Y156300
X25720Y166300
X25720Y136300
X35720Y136300
X35720Y126300
X35720Y116300
X25720Y116300
X25720Y126300
X25720Y106300
X35720Y106300
X35720Y96300
X35720Y86300
X25720Y86300
X25720Y96300
X100720Y166300
M30
