G75*
%MOIN*%
%OFA0B0*%
%FSLAX25Y25*%
%IPPOS*%
%LPD*%
%AMOC8*
5,1,8,0,0,1.08239X$1,22.5*
%
%ADD10R,0.04331X0.03937*%
%ADD11R,0.04724X0.01181*%
%ADD12R,0.03937X0.04331*%
%ADD13R,0.05906X0.07677*%
%ADD14R,0.02756X0.03543*%
%ADD15R,0.07677X0.05906*%
%ADD16R,0.08661X0.02362*%
%ADD17R,0.08799X0.04799*%
%ADD18R,0.08661X0.14173*%
%ADD19R,0.02953X0.01181*%
D10*
X0064874Y0096300D03*
X0071566Y0096300D03*
X0088220Y0095454D03*
X0088220Y0102146D03*
X0088220Y0122954D03*
X0088220Y0129646D03*
X0088220Y0147954D03*
X0088220Y0154646D03*
X0147374Y0178800D03*
X0154066Y0178800D03*
X0149220Y0194454D03*
X0149220Y0201146D03*
X0137866Y0233600D03*
X0131174Y0233600D03*
X0190974Y0245200D03*
X0197666Y0245200D03*
X0190720Y0209646D03*
X0190720Y0202954D03*
D11*
X0174035Y0200135D03*
X0174035Y0197576D03*
X0174035Y0195017D03*
X0174035Y0192457D03*
X0157401Y0192457D03*
X0157401Y0195017D03*
X0157401Y0197576D03*
X0157401Y0200135D03*
D12*
X0032374Y0031300D03*
X0039066Y0031300D03*
X0047374Y0031300D03*
X0054066Y0031300D03*
X0054066Y0041300D03*
X0047374Y0041300D03*
X0039066Y0041300D03*
X0032374Y0041300D03*
X0135720Y0082954D03*
X0135720Y0089646D03*
X0157374Y0041300D03*
X0164066Y0041300D03*
X0172374Y0041300D03*
X0179066Y0041300D03*
X0179066Y0031300D03*
X0172374Y0031300D03*
X0164066Y0031300D03*
X0157374Y0031300D03*
X0167574Y0176300D03*
X0174266Y0176300D03*
X0189974Y0188800D03*
X0196666Y0188800D03*
X0184066Y0221300D03*
X0177374Y0221300D03*
X0164066Y0221300D03*
X0157374Y0221300D03*
X0154066Y0211300D03*
X0147374Y0211300D03*
X0151320Y0235754D03*
X0151320Y0242446D03*
X0107866Y0243300D03*
X0101174Y0243300D03*
X0101174Y0251300D03*
X0107866Y0251300D03*
D13*
X0125720Y0091713D03*
X0125720Y0080887D03*
D14*
X0133161Y0101300D03*
X0138279Y0101300D03*
D15*
X0076133Y0086300D03*
X0065307Y0086300D03*
D16*
X0070956Y0103800D03*
X0070956Y0108800D03*
X0070956Y0113800D03*
X0070956Y0118800D03*
X0070956Y0128800D03*
X0070956Y0133800D03*
X0070956Y0138800D03*
X0070956Y0143800D03*
X0070956Y0153800D03*
X0070956Y0158800D03*
X0070956Y0163800D03*
X0070956Y0168800D03*
X0050484Y0168800D03*
X0050484Y0163800D03*
X0050484Y0158800D03*
X0050484Y0153800D03*
X0050484Y0143800D03*
X0050484Y0138800D03*
X0050484Y0133800D03*
X0050484Y0128800D03*
X0050484Y0118800D03*
X0050484Y0113800D03*
X0050484Y0108800D03*
X0050484Y0103800D03*
X0160784Y0237600D03*
X0160784Y0242600D03*
X0160784Y0247600D03*
X0160784Y0252600D03*
X0181256Y0252600D03*
X0181256Y0247600D03*
X0181256Y0242600D03*
X0181256Y0237600D03*
D17*
X0028519Y0240398D03*
X0028519Y0231300D03*
X0028519Y0222202D03*
D18*
X0052921Y0231300D03*
D19*
X0130680Y0227459D03*
X0130680Y0222341D03*
X0138160Y0222341D03*
X0138160Y0224900D03*
X0138160Y0227459D03*
M02*
