G75*
%MOIN*%
%OFA0B0*%
%FSLAX25Y25*%
%IPPOS*%
%LPD*%
%AMOC8*
5,1,8,0,0,1.08239X$1,22.5*
%
%ADD10C,0.00000*%
%ADD11C,0.03000*%
%ADD12C,0.03181*%
%ADD13C,0.03200*%
%ADD14R,0.00900X0.07000*%
%ADD15R,0.02400X0.00900*%
%ADD16R,0.00900X0.02400*%
%ADD17R,0.05906X0.05118*%
%ADD18R,0.03937X0.04331*%
%ADD19R,0.03800X0.13200*%
%ADD20C,0.02787*%
%ADD21R,0.03937X0.05512*%
%ADD22R,0.04331X0.03937*%
%ADD23C,0.06000*%
%ADD24OC8,0.06000*%
%ADD25R,0.02362X0.08661*%
%ADD26C,0.01181*%
%ADD27C,0.02381*%
%ADD28C,0.00984*%
%ADD29C,0.03937*%
%ADD30C,0.01969*%
%ADD31C,0.02953*%
%ADD32C,0.02400*%
%ADD33C,0.02400*%
%ADD34C,0.01600*%
D10*
X0027103Y0012487D02*
X0027103Y0209337D01*
X0342063Y0209337D01*
X0342063Y0150282D01*
X0347969Y0150282D01*
X0346985Y0150282D01*
X0347969Y0150282D02*
X0398166Y0150282D01*
X0398166Y0012487D01*
X0342063Y0012487D01*
X0027103Y0012487D01*
X0119229Y0166030D02*
X0119231Y0166188D01*
X0119237Y0166346D01*
X0119247Y0166504D01*
X0119261Y0166662D01*
X0119279Y0166819D01*
X0119300Y0166976D01*
X0119326Y0167132D01*
X0119356Y0167288D01*
X0119389Y0167443D01*
X0119427Y0167596D01*
X0119468Y0167749D01*
X0119513Y0167901D01*
X0119562Y0168052D01*
X0119615Y0168201D01*
X0119671Y0168349D01*
X0119731Y0168495D01*
X0119795Y0168640D01*
X0119863Y0168783D01*
X0119934Y0168925D01*
X0120008Y0169065D01*
X0120086Y0169202D01*
X0120168Y0169338D01*
X0120252Y0169472D01*
X0120341Y0169603D01*
X0120432Y0169732D01*
X0120527Y0169859D01*
X0120624Y0169984D01*
X0120725Y0170106D01*
X0120829Y0170225D01*
X0120936Y0170342D01*
X0121046Y0170456D01*
X0121159Y0170567D01*
X0121274Y0170676D01*
X0121392Y0170781D01*
X0121513Y0170883D01*
X0121636Y0170983D01*
X0121762Y0171079D01*
X0121890Y0171172D01*
X0122020Y0171262D01*
X0122153Y0171348D01*
X0122288Y0171432D01*
X0122424Y0171511D01*
X0122563Y0171588D01*
X0122704Y0171660D01*
X0122846Y0171730D01*
X0122990Y0171795D01*
X0123136Y0171857D01*
X0123283Y0171915D01*
X0123432Y0171970D01*
X0123582Y0172021D01*
X0123733Y0172068D01*
X0123885Y0172111D01*
X0124038Y0172150D01*
X0124193Y0172186D01*
X0124348Y0172217D01*
X0124504Y0172245D01*
X0124660Y0172269D01*
X0124817Y0172289D01*
X0124975Y0172305D01*
X0125132Y0172317D01*
X0125291Y0172325D01*
X0125449Y0172329D01*
X0125607Y0172329D01*
X0125765Y0172325D01*
X0125924Y0172317D01*
X0126081Y0172305D01*
X0126239Y0172289D01*
X0126396Y0172269D01*
X0126552Y0172245D01*
X0126708Y0172217D01*
X0126863Y0172186D01*
X0127018Y0172150D01*
X0127171Y0172111D01*
X0127323Y0172068D01*
X0127474Y0172021D01*
X0127624Y0171970D01*
X0127773Y0171915D01*
X0127920Y0171857D01*
X0128066Y0171795D01*
X0128210Y0171730D01*
X0128352Y0171660D01*
X0128493Y0171588D01*
X0128632Y0171511D01*
X0128768Y0171432D01*
X0128903Y0171348D01*
X0129036Y0171262D01*
X0129166Y0171172D01*
X0129294Y0171079D01*
X0129420Y0170983D01*
X0129543Y0170883D01*
X0129664Y0170781D01*
X0129782Y0170676D01*
X0129897Y0170567D01*
X0130010Y0170456D01*
X0130120Y0170342D01*
X0130227Y0170225D01*
X0130331Y0170106D01*
X0130432Y0169984D01*
X0130529Y0169859D01*
X0130624Y0169732D01*
X0130715Y0169603D01*
X0130804Y0169472D01*
X0130888Y0169338D01*
X0130970Y0169202D01*
X0131048Y0169065D01*
X0131122Y0168925D01*
X0131193Y0168783D01*
X0131261Y0168640D01*
X0131325Y0168495D01*
X0131385Y0168349D01*
X0131441Y0168201D01*
X0131494Y0168052D01*
X0131543Y0167901D01*
X0131588Y0167749D01*
X0131629Y0167596D01*
X0131667Y0167443D01*
X0131700Y0167288D01*
X0131730Y0167132D01*
X0131756Y0166976D01*
X0131777Y0166819D01*
X0131795Y0166662D01*
X0131809Y0166504D01*
X0131819Y0166346D01*
X0131825Y0166188D01*
X0131827Y0166030D01*
X0131825Y0165872D01*
X0131819Y0165714D01*
X0131809Y0165556D01*
X0131795Y0165398D01*
X0131777Y0165241D01*
X0131756Y0165084D01*
X0131730Y0164928D01*
X0131700Y0164772D01*
X0131667Y0164617D01*
X0131629Y0164464D01*
X0131588Y0164311D01*
X0131543Y0164159D01*
X0131494Y0164008D01*
X0131441Y0163859D01*
X0131385Y0163711D01*
X0131325Y0163565D01*
X0131261Y0163420D01*
X0131193Y0163277D01*
X0131122Y0163135D01*
X0131048Y0162995D01*
X0130970Y0162858D01*
X0130888Y0162722D01*
X0130804Y0162588D01*
X0130715Y0162457D01*
X0130624Y0162328D01*
X0130529Y0162201D01*
X0130432Y0162076D01*
X0130331Y0161954D01*
X0130227Y0161835D01*
X0130120Y0161718D01*
X0130010Y0161604D01*
X0129897Y0161493D01*
X0129782Y0161384D01*
X0129664Y0161279D01*
X0129543Y0161177D01*
X0129420Y0161077D01*
X0129294Y0160981D01*
X0129166Y0160888D01*
X0129036Y0160798D01*
X0128903Y0160712D01*
X0128768Y0160628D01*
X0128632Y0160549D01*
X0128493Y0160472D01*
X0128352Y0160400D01*
X0128210Y0160330D01*
X0128066Y0160265D01*
X0127920Y0160203D01*
X0127773Y0160145D01*
X0127624Y0160090D01*
X0127474Y0160039D01*
X0127323Y0159992D01*
X0127171Y0159949D01*
X0127018Y0159910D01*
X0126863Y0159874D01*
X0126708Y0159843D01*
X0126552Y0159815D01*
X0126396Y0159791D01*
X0126239Y0159771D01*
X0126081Y0159755D01*
X0125924Y0159743D01*
X0125765Y0159735D01*
X0125607Y0159731D01*
X0125449Y0159731D01*
X0125291Y0159735D01*
X0125132Y0159743D01*
X0124975Y0159755D01*
X0124817Y0159771D01*
X0124660Y0159791D01*
X0124504Y0159815D01*
X0124348Y0159843D01*
X0124193Y0159874D01*
X0124038Y0159910D01*
X0123885Y0159949D01*
X0123733Y0159992D01*
X0123582Y0160039D01*
X0123432Y0160090D01*
X0123283Y0160145D01*
X0123136Y0160203D01*
X0122990Y0160265D01*
X0122846Y0160330D01*
X0122704Y0160400D01*
X0122563Y0160472D01*
X0122424Y0160549D01*
X0122288Y0160628D01*
X0122153Y0160712D01*
X0122020Y0160798D01*
X0121890Y0160888D01*
X0121762Y0160981D01*
X0121636Y0161077D01*
X0121513Y0161177D01*
X0121392Y0161279D01*
X0121274Y0161384D01*
X0121159Y0161493D01*
X0121046Y0161604D01*
X0120936Y0161718D01*
X0120829Y0161835D01*
X0120725Y0161954D01*
X0120624Y0162076D01*
X0120527Y0162201D01*
X0120432Y0162328D01*
X0120341Y0162457D01*
X0120252Y0162588D01*
X0120168Y0162722D01*
X0120086Y0162858D01*
X0120008Y0162995D01*
X0119934Y0163135D01*
X0119863Y0163277D01*
X0119795Y0163420D01*
X0119731Y0163565D01*
X0119671Y0163711D01*
X0119615Y0163859D01*
X0119562Y0164008D01*
X0119513Y0164159D01*
X0119468Y0164311D01*
X0119427Y0164464D01*
X0119389Y0164617D01*
X0119356Y0164772D01*
X0119326Y0164928D01*
X0119300Y0165084D01*
X0119279Y0165241D01*
X0119261Y0165398D01*
X0119247Y0165556D01*
X0119237Y0165714D01*
X0119231Y0165872D01*
X0119229Y0166030D01*
X0355252Y0134534D02*
X0355254Y0134682D01*
X0355260Y0134830D01*
X0355270Y0134978D01*
X0355284Y0135125D01*
X0355302Y0135272D01*
X0355323Y0135418D01*
X0355349Y0135564D01*
X0355379Y0135709D01*
X0355412Y0135853D01*
X0355450Y0135996D01*
X0355491Y0136138D01*
X0355536Y0136279D01*
X0355584Y0136419D01*
X0355637Y0136558D01*
X0355693Y0136695D01*
X0355753Y0136830D01*
X0355816Y0136964D01*
X0355883Y0137096D01*
X0355954Y0137226D01*
X0356028Y0137354D01*
X0356105Y0137480D01*
X0356186Y0137604D01*
X0356270Y0137726D01*
X0356357Y0137845D01*
X0356448Y0137962D01*
X0356542Y0138077D01*
X0356638Y0138189D01*
X0356738Y0138299D01*
X0356840Y0138405D01*
X0356946Y0138509D01*
X0357054Y0138610D01*
X0357165Y0138708D01*
X0357278Y0138804D01*
X0357394Y0138896D01*
X0357512Y0138985D01*
X0357633Y0139070D01*
X0357756Y0139153D01*
X0357881Y0139232D01*
X0358008Y0139308D01*
X0358137Y0139380D01*
X0358268Y0139449D01*
X0358401Y0139514D01*
X0358536Y0139575D01*
X0358672Y0139633D01*
X0358809Y0139688D01*
X0358948Y0139738D01*
X0359089Y0139785D01*
X0359230Y0139828D01*
X0359373Y0139868D01*
X0359517Y0139903D01*
X0359661Y0139935D01*
X0359807Y0139962D01*
X0359953Y0139986D01*
X0360100Y0140006D01*
X0360247Y0140022D01*
X0360394Y0140034D01*
X0360542Y0140042D01*
X0360690Y0140046D01*
X0360838Y0140046D01*
X0360986Y0140042D01*
X0361134Y0140034D01*
X0361281Y0140022D01*
X0361428Y0140006D01*
X0361575Y0139986D01*
X0361721Y0139962D01*
X0361867Y0139935D01*
X0362011Y0139903D01*
X0362155Y0139868D01*
X0362298Y0139828D01*
X0362439Y0139785D01*
X0362580Y0139738D01*
X0362719Y0139688D01*
X0362856Y0139633D01*
X0362992Y0139575D01*
X0363127Y0139514D01*
X0363260Y0139449D01*
X0363391Y0139380D01*
X0363520Y0139308D01*
X0363647Y0139232D01*
X0363772Y0139153D01*
X0363895Y0139070D01*
X0364016Y0138985D01*
X0364134Y0138896D01*
X0364250Y0138804D01*
X0364363Y0138708D01*
X0364474Y0138610D01*
X0364582Y0138509D01*
X0364688Y0138405D01*
X0364790Y0138299D01*
X0364890Y0138189D01*
X0364986Y0138077D01*
X0365080Y0137962D01*
X0365171Y0137845D01*
X0365258Y0137726D01*
X0365342Y0137604D01*
X0365423Y0137480D01*
X0365500Y0137354D01*
X0365574Y0137226D01*
X0365645Y0137096D01*
X0365712Y0136964D01*
X0365775Y0136830D01*
X0365835Y0136695D01*
X0365891Y0136558D01*
X0365944Y0136419D01*
X0365992Y0136279D01*
X0366037Y0136138D01*
X0366078Y0135996D01*
X0366116Y0135853D01*
X0366149Y0135709D01*
X0366179Y0135564D01*
X0366205Y0135418D01*
X0366226Y0135272D01*
X0366244Y0135125D01*
X0366258Y0134978D01*
X0366268Y0134830D01*
X0366274Y0134682D01*
X0366276Y0134534D01*
X0366274Y0134386D01*
X0366268Y0134238D01*
X0366258Y0134090D01*
X0366244Y0133943D01*
X0366226Y0133796D01*
X0366205Y0133650D01*
X0366179Y0133504D01*
X0366149Y0133359D01*
X0366116Y0133215D01*
X0366078Y0133072D01*
X0366037Y0132930D01*
X0365992Y0132789D01*
X0365944Y0132649D01*
X0365891Y0132510D01*
X0365835Y0132373D01*
X0365775Y0132238D01*
X0365712Y0132104D01*
X0365645Y0131972D01*
X0365574Y0131842D01*
X0365500Y0131714D01*
X0365423Y0131588D01*
X0365342Y0131464D01*
X0365258Y0131342D01*
X0365171Y0131223D01*
X0365080Y0131106D01*
X0364986Y0130991D01*
X0364890Y0130879D01*
X0364790Y0130769D01*
X0364688Y0130663D01*
X0364582Y0130559D01*
X0364474Y0130458D01*
X0364363Y0130360D01*
X0364250Y0130264D01*
X0364134Y0130172D01*
X0364016Y0130083D01*
X0363895Y0129998D01*
X0363772Y0129915D01*
X0363647Y0129836D01*
X0363520Y0129760D01*
X0363391Y0129688D01*
X0363260Y0129619D01*
X0363127Y0129554D01*
X0362992Y0129493D01*
X0362856Y0129435D01*
X0362719Y0129380D01*
X0362580Y0129330D01*
X0362439Y0129283D01*
X0362298Y0129240D01*
X0362155Y0129200D01*
X0362011Y0129165D01*
X0361867Y0129133D01*
X0361721Y0129106D01*
X0361575Y0129082D01*
X0361428Y0129062D01*
X0361281Y0129046D01*
X0361134Y0129034D01*
X0360986Y0129026D01*
X0360838Y0129022D01*
X0360690Y0129022D01*
X0360542Y0129026D01*
X0360394Y0129034D01*
X0360247Y0129046D01*
X0360100Y0129062D01*
X0359953Y0129082D01*
X0359807Y0129106D01*
X0359661Y0129133D01*
X0359517Y0129165D01*
X0359373Y0129200D01*
X0359230Y0129240D01*
X0359089Y0129283D01*
X0358948Y0129330D01*
X0358809Y0129380D01*
X0358672Y0129435D01*
X0358536Y0129493D01*
X0358401Y0129554D01*
X0358268Y0129619D01*
X0358137Y0129688D01*
X0358008Y0129760D01*
X0357881Y0129836D01*
X0357756Y0129915D01*
X0357633Y0129998D01*
X0357512Y0130083D01*
X0357394Y0130172D01*
X0357278Y0130264D01*
X0357165Y0130360D01*
X0357054Y0130458D01*
X0356946Y0130559D01*
X0356840Y0130663D01*
X0356738Y0130769D01*
X0356638Y0130879D01*
X0356542Y0130991D01*
X0356448Y0131106D01*
X0356357Y0131223D01*
X0356270Y0131342D01*
X0356186Y0131464D01*
X0356105Y0131588D01*
X0356028Y0131714D01*
X0355954Y0131842D01*
X0355883Y0131972D01*
X0355816Y0132104D01*
X0355753Y0132238D01*
X0355693Y0132373D01*
X0355637Y0132510D01*
X0355584Y0132649D01*
X0355536Y0132789D01*
X0355491Y0132930D01*
X0355450Y0133072D01*
X0355412Y0133215D01*
X0355379Y0133359D01*
X0355349Y0133504D01*
X0355323Y0133650D01*
X0355302Y0133796D01*
X0355284Y0133943D01*
X0355270Y0134090D01*
X0355260Y0134238D01*
X0355254Y0134386D01*
X0355252Y0134534D01*
X0378874Y0134534D02*
X0378876Y0134682D01*
X0378882Y0134830D01*
X0378892Y0134978D01*
X0378906Y0135125D01*
X0378924Y0135272D01*
X0378945Y0135418D01*
X0378971Y0135564D01*
X0379001Y0135709D01*
X0379034Y0135853D01*
X0379072Y0135996D01*
X0379113Y0136138D01*
X0379158Y0136279D01*
X0379206Y0136419D01*
X0379259Y0136558D01*
X0379315Y0136695D01*
X0379375Y0136830D01*
X0379438Y0136964D01*
X0379505Y0137096D01*
X0379576Y0137226D01*
X0379650Y0137354D01*
X0379727Y0137480D01*
X0379808Y0137604D01*
X0379892Y0137726D01*
X0379979Y0137845D01*
X0380070Y0137962D01*
X0380164Y0138077D01*
X0380260Y0138189D01*
X0380360Y0138299D01*
X0380462Y0138405D01*
X0380568Y0138509D01*
X0380676Y0138610D01*
X0380787Y0138708D01*
X0380900Y0138804D01*
X0381016Y0138896D01*
X0381134Y0138985D01*
X0381255Y0139070D01*
X0381378Y0139153D01*
X0381503Y0139232D01*
X0381630Y0139308D01*
X0381759Y0139380D01*
X0381890Y0139449D01*
X0382023Y0139514D01*
X0382158Y0139575D01*
X0382294Y0139633D01*
X0382431Y0139688D01*
X0382570Y0139738D01*
X0382711Y0139785D01*
X0382852Y0139828D01*
X0382995Y0139868D01*
X0383139Y0139903D01*
X0383283Y0139935D01*
X0383429Y0139962D01*
X0383575Y0139986D01*
X0383722Y0140006D01*
X0383869Y0140022D01*
X0384016Y0140034D01*
X0384164Y0140042D01*
X0384312Y0140046D01*
X0384460Y0140046D01*
X0384608Y0140042D01*
X0384756Y0140034D01*
X0384903Y0140022D01*
X0385050Y0140006D01*
X0385197Y0139986D01*
X0385343Y0139962D01*
X0385489Y0139935D01*
X0385633Y0139903D01*
X0385777Y0139868D01*
X0385920Y0139828D01*
X0386061Y0139785D01*
X0386202Y0139738D01*
X0386341Y0139688D01*
X0386478Y0139633D01*
X0386614Y0139575D01*
X0386749Y0139514D01*
X0386882Y0139449D01*
X0387013Y0139380D01*
X0387142Y0139308D01*
X0387269Y0139232D01*
X0387394Y0139153D01*
X0387517Y0139070D01*
X0387638Y0138985D01*
X0387756Y0138896D01*
X0387872Y0138804D01*
X0387985Y0138708D01*
X0388096Y0138610D01*
X0388204Y0138509D01*
X0388310Y0138405D01*
X0388412Y0138299D01*
X0388512Y0138189D01*
X0388608Y0138077D01*
X0388702Y0137962D01*
X0388793Y0137845D01*
X0388880Y0137726D01*
X0388964Y0137604D01*
X0389045Y0137480D01*
X0389122Y0137354D01*
X0389196Y0137226D01*
X0389267Y0137096D01*
X0389334Y0136964D01*
X0389397Y0136830D01*
X0389457Y0136695D01*
X0389513Y0136558D01*
X0389566Y0136419D01*
X0389614Y0136279D01*
X0389659Y0136138D01*
X0389700Y0135996D01*
X0389738Y0135853D01*
X0389771Y0135709D01*
X0389801Y0135564D01*
X0389827Y0135418D01*
X0389848Y0135272D01*
X0389866Y0135125D01*
X0389880Y0134978D01*
X0389890Y0134830D01*
X0389896Y0134682D01*
X0389898Y0134534D01*
X0389896Y0134386D01*
X0389890Y0134238D01*
X0389880Y0134090D01*
X0389866Y0133943D01*
X0389848Y0133796D01*
X0389827Y0133650D01*
X0389801Y0133504D01*
X0389771Y0133359D01*
X0389738Y0133215D01*
X0389700Y0133072D01*
X0389659Y0132930D01*
X0389614Y0132789D01*
X0389566Y0132649D01*
X0389513Y0132510D01*
X0389457Y0132373D01*
X0389397Y0132238D01*
X0389334Y0132104D01*
X0389267Y0131972D01*
X0389196Y0131842D01*
X0389122Y0131714D01*
X0389045Y0131588D01*
X0388964Y0131464D01*
X0388880Y0131342D01*
X0388793Y0131223D01*
X0388702Y0131106D01*
X0388608Y0130991D01*
X0388512Y0130879D01*
X0388412Y0130769D01*
X0388310Y0130663D01*
X0388204Y0130559D01*
X0388096Y0130458D01*
X0387985Y0130360D01*
X0387872Y0130264D01*
X0387756Y0130172D01*
X0387638Y0130083D01*
X0387517Y0129998D01*
X0387394Y0129915D01*
X0387269Y0129836D01*
X0387142Y0129760D01*
X0387013Y0129688D01*
X0386882Y0129619D01*
X0386749Y0129554D01*
X0386614Y0129493D01*
X0386478Y0129435D01*
X0386341Y0129380D01*
X0386202Y0129330D01*
X0386061Y0129283D01*
X0385920Y0129240D01*
X0385777Y0129200D01*
X0385633Y0129165D01*
X0385489Y0129133D01*
X0385343Y0129106D01*
X0385197Y0129082D01*
X0385050Y0129062D01*
X0384903Y0129046D01*
X0384756Y0129034D01*
X0384608Y0129026D01*
X0384460Y0129022D01*
X0384312Y0129022D01*
X0384164Y0129026D01*
X0384016Y0129034D01*
X0383869Y0129046D01*
X0383722Y0129062D01*
X0383575Y0129082D01*
X0383429Y0129106D01*
X0383283Y0129133D01*
X0383139Y0129165D01*
X0382995Y0129200D01*
X0382852Y0129240D01*
X0382711Y0129283D01*
X0382570Y0129330D01*
X0382431Y0129380D01*
X0382294Y0129435D01*
X0382158Y0129493D01*
X0382023Y0129554D01*
X0381890Y0129619D01*
X0381759Y0129688D01*
X0381630Y0129760D01*
X0381503Y0129836D01*
X0381378Y0129915D01*
X0381255Y0129998D01*
X0381134Y0130083D01*
X0381016Y0130172D01*
X0380900Y0130264D01*
X0380787Y0130360D01*
X0380676Y0130458D01*
X0380568Y0130559D01*
X0380462Y0130663D01*
X0380360Y0130769D01*
X0380260Y0130879D01*
X0380164Y0130991D01*
X0380070Y0131106D01*
X0379979Y0131223D01*
X0379892Y0131342D01*
X0379808Y0131464D01*
X0379727Y0131588D01*
X0379650Y0131714D01*
X0379576Y0131842D01*
X0379505Y0131972D01*
X0379438Y0132104D01*
X0379375Y0132238D01*
X0379315Y0132373D01*
X0379259Y0132510D01*
X0379206Y0132649D01*
X0379158Y0132789D01*
X0379113Y0132930D01*
X0379072Y0133072D01*
X0379034Y0133215D01*
X0379001Y0133359D01*
X0378971Y0133504D01*
X0378945Y0133650D01*
X0378924Y0133796D01*
X0378906Y0133943D01*
X0378892Y0134090D01*
X0378882Y0134238D01*
X0378876Y0134386D01*
X0378874Y0134534D01*
X0378874Y0032172D02*
X0378876Y0032320D01*
X0378882Y0032468D01*
X0378892Y0032616D01*
X0378906Y0032763D01*
X0378924Y0032910D01*
X0378945Y0033056D01*
X0378971Y0033202D01*
X0379001Y0033347D01*
X0379034Y0033491D01*
X0379072Y0033634D01*
X0379113Y0033776D01*
X0379158Y0033917D01*
X0379206Y0034057D01*
X0379259Y0034196D01*
X0379315Y0034333D01*
X0379375Y0034468D01*
X0379438Y0034602D01*
X0379505Y0034734D01*
X0379576Y0034864D01*
X0379650Y0034992D01*
X0379727Y0035118D01*
X0379808Y0035242D01*
X0379892Y0035364D01*
X0379979Y0035483D01*
X0380070Y0035600D01*
X0380164Y0035715D01*
X0380260Y0035827D01*
X0380360Y0035937D01*
X0380462Y0036043D01*
X0380568Y0036147D01*
X0380676Y0036248D01*
X0380787Y0036346D01*
X0380900Y0036442D01*
X0381016Y0036534D01*
X0381134Y0036623D01*
X0381255Y0036708D01*
X0381378Y0036791D01*
X0381503Y0036870D01*
X0381630Y0036946D01*
X0381759Y0037018D01*
X0381890Y0037087D01*
X0382023Y0037152D01*
X0382158Y0037213D01*
X0382294Y0037271D01*
X0382431Y0037326D01*
X0382570Y0037376D01*
X0382711Y0037423D01*
X0382852Y0037466D01*
X0382995Y0037506D01*
X0383139Y0037541D01*
X0383283Y0037573D01*
X0383429Y0037600D01*
X0383575Y0037624D01*
X0383722Y0037644D01*
X0383869Y0037660D01*
X0384016Y0037672D01*
X0384164Y0037680D01*
X0384312Y0037684D01*
X0384460Y0037684D01*
X0384608Y0037680D01*
X0384756Y0037672D01*
X0384903Y0037660D01*
X0385050Y0037644D01*
X0385197Y0037624D01*
X0385343Y0037600D01*
X0385489Y0037573D01*
X0385633Y0037541D01*
X0385777Y0037506D01*
X0385920Y0037466D01*
X0386061Y0037423D01*
X0386202Y0037376D01*
X0386341Y0037326D01*
X0386478Y0037271D01*
X0386614Y0037213D01*
X0386749Y0037152D01*
X0386882Y0037087D01*
X0387013Y0037018D01*
X0387142Y0036946D01*
X0387269Y0036870D01*
X0387394Y0036791D01*
X0387517Y0036708D01*
X0387638Y0036623D01*
X0387756Y0036534D01*
X0387872Y0036442D01*
X0387985Y0036346D01*
X0388096Y0036248D01*
X0388204Y0036147D01*
X0388310Y0036043D01*
X0388412Y0035937D01*
X0388512Y0035827D01*
X0388608Y0035715D01*
X0388702Y0035600D01*
X0388793Y0035483D01*
X0388880Y0035364D01*
X0388964Y0035242D01*
X0389045Y0035118D01*
X0389122Y0034992D01*
X0389196Y0034864D01*
X0389267Y0034734D01*
X0389334Y0034602D01*
X0389397Y0034468D01*
X0389457Y0034333D01*
X0389513Y0034196D01*
X0389566Y0034057D01*
X0389614Y0033917D01*
X0389659Y0033776D01*
X0389700Y0033634D01*
X0389738Y0033491D01*
X0389771Y0033347D01*
X0389801Y0033202D01*
X0389827Y0033056D01*
X0389848Y0032910D01*
X0389866Y0032763D01*
X0389880Y0032616D01*
X0389890Y0032468D01*
X0389896Y0032320D01*
X0389898Y0032172D01*
X0389896Y0032024D01*
X0389890Y0031876D01*
X0389880Y0031728D01*
X0389866Y0031581D01*
X0389848Y0031434D01*
X0389827Y0031288D01*
X0389801Y0031142D01*
X0389771Y0030997D01*
X0389738Y0030853D01*
X0389700Y0030710D01*
X0389659Y0030568D01*
X0389614Y0030427D01*
X0389566Y0030287D01*
X0389513Y0030148D01*
X0389457Y0030011D01*
X0389397Y0029876D01*
X0389334Y0029742D01*
X0389267Y0029610D01*
X0389196Y0029480D01*
X0389122Y0029352D01*
X0389045Y0029226D01*
X0388964Y0029102D01*
X0388880Y0028980D01*
X0388793Y0028861D01*
X0388702Y0028744D01*
X0388608Y0028629D01*
X0388512Y0028517D01*
X0388412Y0028407D01*
X0388310Y0028301D01*
X0388204Y0028197D01*
X0388096Y0028096D01*
X0387985Y0027998D01*
X0387872Y0027902D01*
X0387756Y0027810D01*
X0387638Y0027721D01*
X0387517Y0027636D01*
X0387394Y0027553D01*
X0387269Y0027474D01*
X0387142Y0027398D01*
X0387013Y0027326D01*
X0386882Y0027257D01*
X0386749Y0027192D01*
X0386614Y0027131D01*
X0386478Y0027073D01*
X0386341Y0027018D01*
X0386202Y0026968D01*
X0386061Y0026921D01*
X0385920Y0026878D01*
X0385777Y0026838D01*
X0385633Y0026803D01*
X0385489Y0026771D01*
X0385343Y0026744D01*
X0385197Y0026720D01*
X0385050Y0026700D01*
X0384903Y0026684D01*
X0384756Y0026672D01*
X0384608Y0026664D01*
X0384460Y0026660D01*
X0384312Y0026660D01*
X0384164Y0026664D01*
X0384016Y0026672D01*
X0383869Y0026684D01*
X0383722Y0026700D01*
X0383575Y0026720D01*
X0383429Y0026744D01*
X0383283Y0026771D01*
X0383139Y0026803D01*
X0382995Y0026838D01*
X0382852Y0026878D01*
X0382711Y0026921D01*
X0382570Y0026968D01*
X0382431Y0027018D01*
X0382294Y0027073D01*
X0382158Y0027131D01*
X0382023Y0027192D01*
X0381890Y0027257D01*
X0381759Y0027326D01*
X0381630Y0027398D01*
X0381503Y0027474D01*
X0381378Y0027553D01*
X0381255Y0027636D01*
X0381134Y0027721D01*
X0381016Y0027810D01*
X0380900Y0027902D01*
X0380787Y0027998D01*
X0380676Y0028096D01*
X0380568Y0028197D01*
X0380462Y0028301D01*
X0380360Y0028407D01*
X0380260Y0028517D01*
X0380164Y0028629D01*
X0380070Y0028744D01*
X0379979Y0028861D01*
X0379892Y0028980D01*
X0379808Y0029102D01*
X0379727Y0029226D01*
X0379650Y0029352D01*
X0379576Y0029480D01*
X0379505Y0029610D01*
X0379438Y0029742D01*
X0379375Y0029876D01*
X0379315Y0030011D01*
X0379259Y0030148D01*
X0379206Y0030287D01*
X0379158Y0030427D01*
X0379113Y0030568D01*
X0379072Y0030710D01*
X0379034Y0030853D01*
X0379001Y0030997D01*
X0378971Y0031142D01*
X0378945Y0031288D01*
X0378924Y0031434D01*
X0378906Y0031581D01*
X0378892Y0031728D01*
X0378882Y0031876D01*
X0378876Y0032024D01*
X0378874Y0032172D01*
X0355252Y0032172D02*
X0355254Y0032320D01*
X0355260Y0032468D01*
X0355270Y0032616D01*
X0355284Y0032763D01*
X0355302Y0032910D01*
X0355323Y0033056D01*
X0355349Y0033202D01*
X0355379Y0033347D01*
X0355412Y0033491D01*
X0355450Y0033634D01*
X0355491Y0033776D01*
X0355536Y0033917D01*
X0355584Y0034057D01*
X0355637Y0034196D01*
X0355693Y0034333D01*
X0355753Y0034468D01*
X0355816Y0034602D01*
X0355883Y0034734D01*
X0355954Y0034864D01*
X0356028Y0034992D01*
X0356105Y0035118D01*
X0356186Y0035242D01*
X0356270Y0035364D01*
X0356357Y0035483D01*
X0356448Y0035600D01*
X0356542Y0035715D01*
X0356638Y0035827D01*
X0356738Y0035937D01*
X0356840Y0036043D01*
X0356946Y0036147D01*
X0357054Y0036248D01*
X0357165Y0036346D01*
X0357278Y0036442D01*
X0357394Y0036534D01*
X0357512Y0036623D01*
X0357633Y0036708D01*
X0357756Y0036791D01*
X0357881Y0036870D01*
X0358008Y0036946D01*
X0358137Y0037018D01*
X0358268Y0037087D01*
X0358401Y0037152D01*
X0358536Y0037213D01*
X0358672Y0037271D01*
X0358809Y0037326D01*
X0358948Y0037376D01*
X0359089Y0037423D01*
X0359230Y0037466D01*
X0359373Y0037506D01*
X0359517Y0037541D01*
X0359661Y0037573D01*
X0359807Y0037600D01*
X0359953Y0037624D01*
X0360100Y0037644D01*
X0360247Y0037660D01*
X0360394Y0037672D01*
X0360542Y0037680D01*
X0360690Y0037684D01*
X0360838Y0037684D01*
X0360986Y0037680D01*
X0361134Y0037672D01*
X0361281Y0037660D01*
X0361428Y0037644D01*
X0361575Y0037624D01*
X0361721Y0037600D01*
X0361867Y0037573D01*
X0362011Y0037541D01*
X0362155Y0037506D01*
X0362298Y0037466D01*
X0362439Y0037423D01*
X0362580Y0037376D01*
X0362719Y0037326D01*
X0362856Y0037271D01*
X0362992Y0037213D01*
X0363127Y0037152D01*
X0363260Y0037087D01*
X0363391Y0037018D01*
X0363520Y0036946D01*
X0363647Y0036870D01*
X0363772Y0036791D01*
X0363895Y0036708D01*
X0364016Y0036623D01*
X0364134Y0036534D01*
X0364250Y0036442D01*
X0364363Y0036346D01*
X0364474Y0036248D01*
X0364582Y0036147D01*
X0364688Y0036043D01*
X0364790Y0035937D01*
X0364890Y0035827D01*
X0364986Y0035715D01*
X0365080Y0035600D01*
X0365171Y0035483D01*
X0365258Y0035364D01*
X0365342Y0035242D01*
X0365423Y0035118D01*
X0365500Y0034992D01*
X0365574Y0034864D01*
X0365645Y0034734D01*
X0365712Y0034602D01*
X0365775Y0034468D01*
X0365835Y0034333D01*
X0365891Y0034196D01*
X0365944Y0034057D01*
X0365992Y0033917D01*
X0366037Y0033776D01*
X0366078Y0033634D01*
X0366116Y0033491D01*
X0366149Y0033347D01*
X0366179Y0033202D01*
X0366205Y0033056D01*
X0366226Y0032910D01*
X0366244Y0032763D01*
X0366258Y0032616D01*
X0366268Y0032468D01*
X0366274Y0032320D01*
X0366276Y0032172D01*
X0366274Y0032024D01*
X0366268Y0031876D01*
X0366258Y0031728D01*
X0366244Y0031581D01*
X0366226Y0031434D01*
X0366205Y0031288D01*
X0366179Y0031142D01*
X0366149Y0030997D01*
X0366116Y0030853D01*
X0366078Y0030710D01*
X0366037Y0030568D01*
X0365992Y0030427D01*
X0365944Y0030287D01*
X0365891Y0030148D01*
X0365835Y0030011D01*
X0365775Y0029876D01*
X0365712Y0029742D01*
X0365645Y0029610D01*
X0365574Y0029480D01*
X0365500Y0029352D01*
X0365423Y0029226D01*
X0365342Y0029102D01*
X0365258Y0028980D01*
X0365171Y0028861D01*
X0365080Y0028744D01*
X0364986Y0028629D01*
X0364890Y0028517D01*
X0364790Y0028407D01*
X0364688Y0028301D01*
X0364582Y0028197D01*
X0364474Y0028096D01*
X0364363Y0027998D01*
X0364250Y0027902D01*
X0364134Y0027810D01*
X0364016Y0027721D01*
X0363895Y0027636D01*
X0363772Y0027553D01*
X0363647Y0027474D01*
X0363520Y0027398D01*
X0363391Y0027326D01*
X0363260Y0027257D01*
X0363127Y0027192D01*
X0362992Y0027131D01*
X0362856Y0027073D01*
X0362719Y0027018D01*
X0362580Y0026968D01*
X0362439Y0026921D01*
X0362298Y0026878D01*
X0362155Y0026838D01*
X0362011Y0026803D01*
X0361867Y0026771D01*
X0361721Y0026744D01*
X0361575Y0026720D01*
X0361428Y0026700D01*
X0361281Y0026684D01*
X0361134Y0026672D01*
X0360986Y0026664D01*
X0360838Y0026660D01*
X0360690Y0026660D01*
X0360542Y0026664D01*
X0360394Y0026672D01*
X0360247Y0026684D01*
X0360100Y0026700D01*
X0359953Y0026720D01*
X0359807Y0026744D01*
X0359661Y0026771D01*
X0359517Y0026803D01*
X0359373Y0026838D01*
X0359230Y0026878D01*
X0359089Y0026921D01*
X0358948Y0026968D01*
X0358809Y0027018D01*
X0358672Y0027073D01*
X0358536Y0027131D01*
X0358401Y0027192D01*
X0358268Y0027257D01*
X0358137Y0027326D01*
X0358008Y0027398D01*
X0357881Y0027474D01*
X0357756Y0027553D01*
X0357633Y0027636D01*
X0357512Y0027721D01*
X0357394Y0027810D01*
X0357278Y0027902D01*
X0357165Y0027998D01*
X0357054Y0028096D01*
X0356946Y0028197D01*
X0356840Y0028301D01*
X0356738Y0028407D01*
X0356638Y0028517D01*
X0356542Y0028629D01*
X0356448Y0028744D01*
X0356357Y0028861D01*
X0356270Y0028980D01*
X0356186Y0029102D01*
X0356105Y0029226D01*
X0356028Y0029352D01*
X0355954Y0029480D01*
X0355883Y0029610D01*
X0355816Y0029742D01*
X0355753Y0029876D01*
X0355693Y0030011D01*
X0355637Y0030148D01*
X0355584Y0030287D01*
X0355536Y0030427D01*
X0355491Y0030568D01*
X0355450Y0030710D01*
X0355412Y0030853D01*
X0355379Y0030997D01*
X0355349Y0031142D01*
X0355323Y0031288D01*
X0355302Y0031434D01*
X0355284Y0031581D01*
X0355270Y0031728D01*
X0355260Y0031876D01*
X0355254Y0032024D01*
X0355252Y0032172D01*
X0320016Y0028235D02*
X0320018Y0028393D01*
X0320024Y0028551D01*
X0320034Y0028709D01*
X0320048Y0028867D01*
X0320066Y0029024D01*
X0320087Y0029181D01*
X0320113Y0029337D01*
X0320143Y0029493D01*
X0320176Y0029648D01*
X0320214Y0029801D01*
X0320255Y0029954D01*
X0320300Y0030106D01*
X0320349Y0030257D01*
X0320402Y0030406D01*
X0320458Y0030554D01*
X0320518Y0030700D01*
X0320582Y0030845D01*
X0320650Y0030988D01*
X0320721Y0031130D01*
X0320795Y0031270D01*
X0320873Y0031407D01*
X0320955Y0031543D01*
X0321039Y0031677D01*
X0321128Y0031808D01*
X0321219Y0031937D01*
X0321314Y0032064D01*
X0321411Y0032189D01*
X0321512Y0032311D01*
X0321616Y0032430D01*
X0321723Y0032547D01*
X0321833Y0032661D01*
X0321946Y0032772D01*
X0322061Y0032881D01*
X0322179Y0032986D01*
X0322300Y0033088D01*
X0322423Y0033188D01*
X0322549Y0033284D01*
X0322677Y0033377D01*
X0322807Y0033467D01*
X0322940Y0033553D01*
X0323075Y0033637D01*
X0323211Y0033716D01*
X0323350Y0033793D01*
X0323491Y0033865D01*
X0323633Y0033935D01*
X0323777Y0034000D01*
X0323923Y0034062D01*
X0324070Y0034120D01*
X0324219Y0034175D01*
X0324369Y0034226D01*
X0324520Y0034273D01*
X0324672Y0034316D01*
X0324825Y0034355D01*
X0324980Y0034391D01*
X0325135Y0034422D01*
X0325291Y0034450D01*
X0325447Y0034474D01*
X0325604Y0034494D01*
X0325762Y0034510D01*
X0325919Y0034522D01*
X0326078Y0034530D01*
X0326236Y0034534D01*
X0326394Y0034534D01*
X0326552Y0034530D01*
X0326711Y0034522D01*
X0326868Y0034510D01*
X0327026Y0034494D01*
X0327183Y0034474D01*
X0327339Y0034450D01*
X0327495Y0034422D01*
X0327650Y0034391D01*
X0327805Y0034355D01*
X0327958Y0034316D01*
X0328110Y0034273D01*
X0328261Y0034226D01*
X0328411Y0034175D01*
X0328560Y0034120D01*
X0328707Y0034062D01*
X0328853Y0034000D01*
X0328997Y0033935D01*
X0329139Y0033865D01*
X0329280Y0033793D01*
X0329419Y0033716D01*
X0329555Y0033637D01*
X0329690Y0033553D01*
X0329823Y0033467D01*
X0329953Y0033377D01*
X0330081Y0033284D01*
X0330207Y0033188D01*
X0330330Y0033088D01*
X0330451Y0032986D01*
X0330569Y0032881D01*
X0330684Y0032772D01*
X0330797Y0032661D01*
X0330907Y0032547D01*
X0331014Y0032430D01*
X0331118Y0032311D01*
X0331219Y0032189D01*
X0331316Y0032064D01*
X0331411Y0031937D01*
X0331502Y0031808D01*
X0331591Y0031677D01*
X0331675Y0031543D01*
X0331757Y0031407D01*
X0331835Y0031270D01*
X0331909Y0031130D01*
X0331980Y0030988D01*
X0332048Y0030845D01*
X0332112Y0030700D01*
X0332172Y0030554D01*
X0332228Y0030406D01*
X0332281Y0030257D01*
X0332330Y0030106D01*
X0332375Y0029954D01*
X0332416Y0029801D01*
X0332454Y0029648D01*
X0332487Y0029493D01*
X0332517Y0029337D01*
X0332543Y0029181D01*
X0332564Y0029024D01*
X0332582Y0028867D01*
X0332596Y0028709D01*
X0332606Y0028551D01*
X0332612Y0028393D01*
X0332614Y0028235D01*
X0332612Y0028077D01*
X0332606Y0027919D01*
X0332596Y0027761D01*
X0332582Y0027603D01*
X0332564Y0027446D01*
X0332543Y0027289D01*
X0332517Y0027133D01*
X0332487Y0026977D01*
X0332454Y0026822D01*
X0332416Y0026669D01*
X0332375Y0026516D01*
X0332330Y0026364D01*
X0332281Y0026213D01*
X0332228Y0026064D01*
X0332172Y0025916D01*
X0332112Y0025770D01*
X0332048Y0025625D01*
X0331980Y0025482D01*
X0331909Y0025340D01*
X0331835Y0025200D01*
X0331757Y0025063D01*
X0331675Y0024927D01*
X0331591Y0024793D01*
X0331502Y0024662D01*
X0331411Y0024533D01*
X0331316Y0024406D01*
X0331219Y0024281D01*
X0331118Y0024159D01*
X0331014Y0024040D01*
X0330907Y0023923D01*
X0330797Y0023809D01*
X0330684Y0023698D01*
X0330569Y0023589D01*
X0330451Y0023484D01*
X0330330Y0023382D01*
X0330207Y0023282D01*
X0330081Y0023186D01*
X0329953Y0023093D01*
X0329823Y0023003D01*
X0329690Y0022917D01*
X0329555Y0022833D01*
X0329419Y0022754D01*
X0329280Y0022677D01*
X0329139Y0022605D01*
X0328997Y0022535D01*
X0328853Y0022470D01*
X0328707Y0022408D01*
X0328560Y0022350D01*
X0328411Y0022295D01*
X0328261Y0022244D01*
X0328110Y0022197D01*
X0327958Y0022154D01*
X0327805Y0022115D01*
X0327650Y0022079D01*
X0327495Y0022048D01*
X0327339Y0022020D01*
X0327183Y0021996D01*
X0327026Y0021976D01*
X0326868Y0021960D01*
X0326711Y0021948D01*
X0326552Y0021940D01*
X0326394Y0021936D01*
X0326236Y0021936D01*
X0326078Y0021940D01*
X0325919Y0021948D01*
X0325762Y0021960D01*
X0325604Y0021976D01*
X0325447Y0021996D01*
X0325291Y0022020D01*
X0325135Y0022048D01*
X0324980Y0022079D01*
X0324825Y0022115D01*
X0324672Y0022154D01*
X0324520Y0022197D01*
X0324369Y0022244D01*
X0324219Y0022295D01*
X0324070Y0022350D01*
X0323923Y0022408D01*
X0323777Y0022470D01*
X0323633Y0022535D01*
X0323491Y0022605D01*
X0323350Y0022677D01*
X0323211Y0022754D01*
X0323075Y0022833D01*
X0322940Y0022917D01*
X0322807Y0023003D01*
X0322677Y0023093D01*
X0322549Y0023186D01*
X0322423Y0023282D01*
X0322300Y0023382D01*
X0322179Y0023484D01*
X0322061Y0023589D01*
X0321946Y0023698D01*
X0321833Y0023809D01*
X0321723Y0023923D01*
X0321616Y0024040D01*
X0321512Y0024159D01*
X0321411Y0024281D01*
X0321314Y0024406D01*
X0321219Y0024533D01*
X0321128Y0024662D01*
X0321039Y0024793D01*
X0320955Y0024927D01*
X0320873Y0025063D01*
X0320795Y0025200D01*
X0320721Y0025340D01*
X0320650Y0025482D01*
X0320582Y0025625D01*
X0320518Y0025770D01*
X0320458Y0025916D01*
X0320402Y0026064D01*
X0320349Y0026213D01*
X0320300Y0026364D01*
X0320255Y0026516D01*
X0320214Y0026669D01*
X0320176Y0026822D01*
X0320143Y0026977D01*
X0320113Y0027133D01*
X0320087Y0027289D01*
X0320066Y0027446D01*
X0320048Y0027603D01*
X0320034Y0027761D01*
X0320024Y0027919D01*
X0320018Y0028077D01*
X0320016Y0028235D01*
D11*
X0082876Y0078839D03*
X0079676Y0078839D03*
X0079676Y0082039D03*
X0082876Y0082039D03*
D12*
X0225103Y0094487D03*
X0229103Y0094487D03*
X0227103Y0097487D03*
X0229103Y0100487D03*
D13*
X0225103Y0100487D03*
D14*
X0270174Y0135302D03*
X0272103Y0135302D03*
X0274032Y0135302D03*
D15*
X0277615Y0134534D03*
X0277615Y0136502D03*
X0277615Y0138471D03*
X0277615Y0140439D03*
X0266591Y0140439D03*
X0266591Y0138471D03*
X0266591Y0136502D03*
X0266591Y0134534D03*
D16*
X0270134Y0142014D03*
X0272103Y0142014D03*
X0274071Y0142014D03*
D17*
X0289071Y0138746D03*
X0298087Y0138746D03*
X0298087Y0146227D03*
X0289071Y0146227D03*
X0257103Y0146227D03*
X0257103Y0138746D03*
D18*
X0268756Y0149455D03*
X0275449Y0149455D03*
X0363871Y0116602D03*
X0370795Y0116602D03*
X0370795Y0109909D03*
X0363871Y0109909D03*
X0067536Y0097329D03*
X0060843Y0097329D03*
X0051158Y0097605D03*
X0044465Y0097605D03*
X0051000Y0085124D03*
X0059780Y0080833D03*
X0051000Y0078432D03*
X0059780Y0074140D03*
X0049544Y0123038D03*
X0042851Y0123038D03*
D19*
X0267453Y0120518D03*
X0276753Y0120518D03*
D20*
X0267024Y0057664D03*
X0263087Y0057664D03*
X0263087Y0053727D03*
X0267024Y0053727D03*
X0267024Y0049790D03*
X0263087Y0049790D03*
D21*
X0063914Y0113707D03*
X0056434Y0113707D03*
X0060174Y0105046D03*
D22*
X0048560Y0107014D03*
X0048560Y0113707D03*
D23*
X0079465Y0122802D02*
X0079465Y0128802D01*
X0089465Y0128802D02*
X0089465Y0122802D01*
X0041756Y0186660D02*
X0035756Y0186660D01*
X0035756Y0196660D02*
X0041756Y0196660D01*
X0040103Y0042487D02*
X0034103Y0042487D01*
X0034103Y0032487D02*
X0040103Y0032487D01*
X0178040Y0037487D02*
X0184040Y0037487D01*
X0184040Y0027487D02*
X0178040Y0027487D01*
D24*
X0322103Y0077487D03*
X0332103Y0077487D03*
X0332103Y0087487D03*
X0322103Y0087487D03*
X0322103Y0097487D03*
X0332103Y0097487D03*
X0332103Y0107487D03*
X0322103Y0107487D03*
X0322103Y0117487D03*
X0332103Y0117487D03*
X0332103Y0127487D03*
X0322103Y0127487D03*
X0322103Y0137487D03*
X0332103Y0137487D03*
X0332103Y0147487D03*
X0322103Y0147487D03*
X0359240Y0065055D03*
X0369240Y0065055D03*
X0379240Y0065055D03*
X0389240Y0065055D03*
X0389240Y0055055D03*
X0379240Y0055055D03*
X0369240Y0055055D03*
X0359240Y0055055D03*
X0087103Y0192487D03*
X0077103Y0192487D03*
X0067103Y0192487D03*
X0057103Y0192487D03*
X0057103Y0202487D03*
X0067103Y0202487D03*
X0077103Y0202487D03*
X0087103Y0202487D03*
D25*
X0364823Y0099573D03*
X0369823Y0099573D03*
X0374823Y0099573D03*
X0379823Y0099573D03*
X0379823Y0079101D03*
X0374823Y0079101D03*
X0369823Y0079101D03*
X0364823Y0079101D03*
D26*
X0342063Y0078545D02*
X0341482Y0078545D01*
X0341482Y0077365D02*
X0342063Y0077365D01*
X0342063Y0076186D02*
X0341482Y0076186D01*
X0341482Y0075332D02*
X0341482Y0148691D01*
X0342063Y0148691D01*
X0342063Y0014077D01*
X0028693Y0014077D01*
X0028693Y0207746D01*
X0340473Y0207746D01*
X0340473Y0198683D01*
X0340439Y0198717D01*
X0331974Y0207181D01*
X0276365Y0207181D01*
X0275322Y0206138D01*
X0265154Y0195970D01*
X0264306Y0195970D01*
X0262911Y0194575D01*
X0262911Y0192603D01*
X0264306Y0191208D01*
X0266278Y0191208D01*
X0267673Y0192603D01*
X0267673Y0193451D01*
X0277841Y0203619D01*
X0330499Y0203619D01*
X0337920Y0196198D01*
X0337920Y0076807D01*
X0334436Y0073323D01*
X0334431Y0073323D01*
X0336693Y0075585D01*
X0336693Y0077077D01*
X0332512Y0077077D01*
X0332512Y0077896D01*
X0331693Y0077896D01*
X0331693Y0077077D01*
X0327512Y0077077D01*
X0327512Y0075585D01*
X0329775Y0073323D01*
X0326069Y0073323D01*
X0324967Y0074425D01*
X0326293Y0075751D01*
X0326293Y0079222D01*
X0323839Y0081677D01*
X0320367Y0081677D01*
X0317912Y0079222D01*
X0317912Y0075751D01*
X0320367Y0073296D01*
X0321058Y0073296D01*
X0321641Y0072713D01*
X0324593Y0069761D01*
X0335911Y0069761D01*
X0336955Y0070804D01*
X0341482Y0075332D01*
X0341157Y0075006D02*
X0342063Y0075006D01*
X0342063Y0073827D02*
X0339977Y0073827D01*
X0338798Y0072647D02*
X0342063Y0072647D01*
X0342063Y0071467D02*
X0337618Y0071467D01*
X0336439Y0070288D02*
X0342063Y0070288D01*
X0342063Y0069108D02*
X0225817Y0069108D01*
X0226334Y0068591D02*
X0224940Y0069986D01*
X0222967Y0069986D01*
X0222367Y0069386D01*
X0211760Y0069386D01*
X0211160Y0069986D01*
X0209187Y0069986D01*
X0207793Y0068591D01*
X0207793Y0066618D01*
X0209187Y0065224D01*
X0211160Y0065224D01*
X0211760Y0065824D01*
X0222367Y0065824D01*
X0222967Y0065224D01*
X0224940Y0065224D01*
X0226334Y0066618D01*
X0226334Y0068591D01*
X0226334Y0067928D02*
X0342063Y0067928D01*
X0342063Y0066749D02*
X0226334Y0066749D01*
X0225285Y0065569D02*
X0342063Y0065569D01*
X0342063Y0064390D02*
X0197531Y0064390D01*
X0197791Y0064650D02*
X0197791Y0066623D01*
X0196396Y0068017D01*
X0194424Y0068017D01*
X0194217Y0067811D01*
X0166091Y0067811D01*
X0165884Y0068017D01*
X0163912Y0068017D01*
X0162517Y0066623D01*
X0162517Y0064650D01*
X0163912Y0063255D01*
X0165884Y0063255D01*
X0166091Y0063461D01*
X0194217Y0063461D01*
X0194424Y0063255D01*
X0196396Y0063255D01*
X0197791Y0064650D01*
X0197791Y0065569D02*
X0208842Y0065569D01*
X0207793Y0066749D02*
X0197665Y0066749D01*
X0196485Y0067928D02*
X0207793Y0067928D01*
X0208310Y0069108D02*
X0152983Y0069108D01*
X0153500Y0068591D02*
X0152105Y0069986D01*
X0150132Y0069986D01*
X0148737Y0068591D01*
X0148737Y0067743D01*
X0146385Y0065390D01*
X0146385Y0056396D01*
X0145785Y0055796D01*
X0145785Y0053823D01*
X0147180Y0052428D01*
X0149152Y0052428D01*
X0150547Y0053823D01*
X0150547Y0055796D01*
X0149947Y0056396D01*
X0149947Y0063914D01*
X0151256Y0065224D01*
X0152105Y0065224D01*
X0153500Y0066618D01*
X0153500Y0068591D01*
X0153500Y0067928D02*
X0163823Y0067928D01*
X0162643Y0066749D02*
X0153500Y0066749D01*
X0152450Y0065569D02*
X0162517Y0065569D01*
X0162777Y0064390D02*
X0150422Y0064390D01*
X0149947Y0063210D02*
X0342063Y0063210D01*
X0342063Y0062030D02*
X0149947Y0062030D01*
X0149947Y0060851D02*
X0342063Y0060851D01*
X0342063Y0059671D02*
X0269237Y0059671D01*
X0269342Y0059566D02*
X0268926Y0059982D01*
X0268438Y0060308D01*
X0267895Y0060533D01*
X0267318Y0060648D01*
X0267024Y0060648D01*
X0266730Y0060648D01*
X0266154Y0060533D01*
X0265611Y0060308D01*
X0265122Y0059982D01*
X0265056Y0059916D01*
X0264989Y0059982D01*
X0264501Y0060308D01*
X0263958Y0060533D01*
X0263381Y0060648D01*
X0263087Y0060648D01*
X0262793Y0060648D01*
X0262217Y0060533D01*
X0261674Y0060308D01*
X0261185Y0059982D01*
X0260769Y0059566D01*
X0260442Y0059077D01*
X0260218Y0058534D01*
X0260103Y0057958D01*
X0260103Y0057664D01*
X0263087Y0057664D01*
X0263087Y0060648D01*
X0263087Y0057664D01*
X0263087Y0057664D01*
X0263087Y0057664D01*
X0260103Y0057664D01*
X0260103Y0057370D01*
X0260218Y0056793D01*
X0260442Y0056250D01*
X0260769Y0055761D01*
X0260835Y0055695D01*
X0260769Y0055629D01*
X0260442Y0055140D01*
X0260218Y0054597D01*
X0260103Y0054021D01*
X0260103Y0053727D01*
X0263087Y0053727D01*
X0263087Y0057664D01*
X0267024Y0057664D01*
X0267024Y0060648D01*
X0267024Y0057664D01*
X0267024Y0057664D01*
X0267024Y0057664D01*
X0270008Y0057664D01*
X0270008Y0057958D01*
X0269894Y0058534D01*
X0269669Y0059077D01*
X0269342Y0059566D01*
X0269902Y0058492D02*
X0342063Y0058492D01*
X0342063Y0057312D02*
X0269997Y0057312D01*
X0270008Y0057370D02*
X0270008Y0057664D01*
X0267024Y0057664D01*
X0267024Y0057664D01*
X0264040Y0057664D01*
X0263087Y0057664D01*
X0263087Y0057664D01*
X0263087Y0057664D01*
X0263087Y0054680D01*
X0263087Y0053727D01*
X0263087Y0053727D01*
X0263087Y0053727D01*
X0267024Y0053727D01*
X0267024Y0056711D01*
X0267024Y0057664D01*
X0267024Y0057664D01*
X0267024Y0053727D01*
X0267024Y0053727D01*
X0267024Y0053727D01*
X0270008Y0053727D01*
X0270008Y0054021D01*
X0269894Y0054597D01*
X0269669Y0055140D01*
X0269342Y0055629D01*
X0269276Y0055695D01*
X0269342Y0055761D01*
X0269669Y0056250D01*
X0269894Y0056793D01*
X0270008Y0057370D01*
X0269590Y0056132D02*
X0342063Y0056132D01*
X0342063Y0054953D02*
X0269746Y0054953D01*
X0270008Y0053773D02*
X0342063Y0053773D01*
X0342063Y0052594D02*
X0269785Y0052594D01*
X0269894Y0052856D02*
X0270008Y0053433D01*
X0270008Y0053727D01*
X0267024Y0053727D01*
X0267024Y0053727D01*
X0264040Y0053727D01*
X0263087Y0053727D01*
X0263087Y0053727D01*
X0260103Y0053727D01*
X0260103Y0053433D01*
X0260218Y0052856D01*
X0260442Y0052313D01*
X0260769Y0051824D01*
X0260835Y0051758D01*
X0260769Y0051692D01*
X0260442Y0051203D01*
X0260218Y0050660D01*
X0260103Y0050084D01*
X0260103Y0049790D01*
X0263087Y0049790D01*
X0263087Y0052774D01*
X0263087Y0053727D01*
X0263087Y0053727D01*
X0263087Y0049790D01*
X0263087Y0049790D01*
X0263087Y0049790D01*
X0267024Y0049790D01*
X0267024Y0052774D01*
X0267024Y0053727D01*
X0267024Y0053727D01*
X0267024Y0049790D01*
X0267024Y0049790D01*
X0267024Y0049790D01*
X0270008Y0049790D01*
X0270008Y0050084D01*
X0269894Y0050660D01*
X0269669Y0051203D01*
X0269342Y0051692D01*
X0269276Y0051758D01*
X0269342Y0051824D01*
X0269669Y0052313D01*
X0269894Y0052856D01*
X0269528Y0051414D02*
X0342063Y0051414D01*
X0342063Y0050234D02*
X0269978Y0050234D01*
X0270008Y0049790D02*
X0267024Y0049790D01*
X0267024Y0049790D01*
X0264040Y0049790D01*
X0263087Y0049790D01*
X0263087Y0049790D01*
X0260103Y0049790D01*
X0260103Y0049496D01*
X0260218Y0048919D01*
X0260442Y0048376D01*
X0260769Y0047887D01*
X0261185Y0047472D01*
X0261674Y0047145D01*
X0262217Y0046920D01*
X0262793Y0046806D01*
X0263087Y0046806D01*
X0263087Y0049790D01*
X0263087Y0049790D01*
X0263087Y0046806D01*
X0263381Y0046806D01*
X0263958Y0046920D01*
X0264501Y0047145D01*
X0264989Y0047472D01*
X0265056Y0047538D01*
X0265122Y0047472D01*
X0265611Y0047145D01*
X0266154Y0046920D01*
X0266730Y0046806D01*
X0267024Y0046806D01*
X0267024Y0049790D01*
X0267024Y0049790D01*
X0267024Y0046806D01*
X0267318Y0046806D01*
X0267895Y0046920D01*
X0268438Y0047145D01*
X0268926Y0047472D01*
X0269342Y0047887D01*
X0269669Y0048376D01*
X0269894Y0048919D01*
X0270008Y0049496D01*
X0270008Y0049790D01*
X0269921Y0049055D02*
X0342063Y0049055D01*
X0342063Y0047875D02*
X0269330Y0047875D01*
X0267024Y0047875D02*
X0267024Y0047875D01*
X0267024Y0049055D02*
X0267024Y0049055D01*
X0267024Y0050234D02*
X0267024Y0050234D01*
X0267024Y0051414D02*
X0267024Y0051414D01*
X0267024Y0052594D02*
X0267024Y0052594D01*
X0267024Y0053773D02*
X0267024Y0053773D01*
X0267024Y0054953D02*
X0267024Y0054953D01*
X0267024Y0056132D02*
X0267024Y0056132D01*
X0267024Y0057312D02*
X0267024Y0057312D01*
X0267024Y0058492D02*
X0267024Y0058492D01*
X0267024Y0059671D02*
X0267024Y0059671D01*
X0263087Y0059671D02*
X0263087Y0059671D01*
X0263087Y0058492D02*
X0263087Y0058492D01*
X0263087Y0057312D02*
X0263087Y0057312D01*
X0263087Y0056132D02*
X0263087Y0056132D01*
X0263087Y0054953D02*
X0263087Y0054953D01*
X0263087Y0053773D02*
X0263087Y0053773D01*
X0263087Y0052594D02*
X0263087Y0052594D01*
X0263087Y0051414D02*
X0263087Y0051414D01*
X0263087Y0050234D02*
X0263087Y0050234D01*
X0263087Y0049055D02*
X0263087Y0049055D01*
X0263087Y0047875D02*
X0263087Y0047875D01*
X0260781Y0047875D02*
X0028693Y0047875D01*
X0028693Y0046695D02*
X0342063Y0046695D01*
X0342063Y0045516D02*
X0043000Y0045516D01*
X0042477Y0046039D02*
X0040936Y0046677D01*
X0033269Y0046677D01*
X0031729Y0046039D01*
X0030550Y0044860D01*
X0029912Y0043320D01*
X0029912Y0041653D01*
X0030550Y0040113D01*
X0031729Y0038934D01*
X0033269Y0038296D01*
X0040936Y0038296D01*
X0042477Y0038934D01*
X0043655Y0040113D01*
X0044293Y0041653D01*
X0044293Y0043320D01*
X0043655Y0044860D01*
X0042477Y0046039D01*
X0043873Y0044336D02*
X0342063Y0044336D01*
X0342063Y0043157D02*
X0044293Y0043157D01*
X0044293Y0041977D02*
X0342063Y0041977D01*
X0342063Y0040797D02*
X0186655Y0040797D01*
X0186414Y0041039D02*
X0184873Y0041677D01*
X0177206Y0041677D01*
X0175666Y0041039D01*
X0174487Y0039860D01*
X0173849Y0038320D01*
X0173849Y0036653D01*
X0174487Y0035113D01*
X0175666Y0033934D01*
X0177206Y0033296D01*
X0184873Y0033296D01*
X0186414Y0033934D01*
X0187592Y0035113D01*
X0188230Y0036653D01*
X0188230Y0038320D01*
X0187592Y0039860D01*
X0186414Y0041039D01*
X0187693Y0039618D02*
X0342063Y0039618D01*
X0342063Y0038438D02*
X0188182Y0038438D01*
X0188230Y0037259D02*
X0342063Y0037259D01*
X0342063Y0036079D02*
X0327995Y0036079D01*
X0327885Y0036124D02*
X0324746Y0036124D01*
X0321846Y0034923D01*
X0319627Y0032704D01*
X0318426Y0029804D01*
X0318426Y0026665D01*
X0319627Y0023765D01*
X0321846Y0021546D01*
X0324746Y0020345D01*
X0327885Y0020345D01*
X0330785Y0021546D01*
X0333004Y0023765D01*
X0334205Y0026665D01*
X0334205Y0029804D01*
X0333004Y0032704D01*
X0330785Y0034923D01*
X0327885Y0036124D01*
X0330809Y0034899D02*
X0342063Y0034899D01*
X0342063Y0033720D02*
X0331988Y0033720D01*
X0333072Y0032540D02*
X0342063Y0032540D01*
X0342063Y0031360D02*
X0333561Y0031360D01*
X0334049Y0030181D02*
X0342063Y0030181D01*
X0342063Y0029001D02*
X0334205Y0029001D01*
X0334205Y0027822D02*
X0342063Y0027822D01*
X0342063Y0026642D02*
X0334196Y0026642D01*
X0333707Y0025462D02*
X0342063Y0025462D01*
X0342063Y0024283D02*
X0333218Y0024283D01*
X0332342Y0023103D02*
X0342063Y0023103D01*
X0342063Y0021924D02*
X0331162Y0021924D01*
X0328848Y0020744D02*
X0342063Y0020744D01*
X0342063Y0019564D02*
X0028693Y0019564D01*
X0028693Y0018385D02*
X0342063Y0018385D01*
X0342063Y0017205D02*
X0028693Y0017205D01*
X0028693Y0016025D02*
X0342063Y0016025D01*
X0342063Y0014846D02*
X0028693Y0014846D01*
X0028693Y0020744D02*
X0323783Y0020744D01*
X0321469Y0021924D02*
X0028693Y0021924D01*
X0028693Y0023103D02*
X0176675Y0023103D01*
X0176965Y0023009D02*
X0177679Y0022896D01*
X0180630Y0022896D01*
X0180630Y0027077D01*
X0173457Y0027077D01*
X0173562Y0026412D01*
X0173786Y0025724D01*
X0174114Y0025081D01*
X0174538Y0024496D01*
X0175049Y0023985D01*
X0175634Y0023560D01*
X0176278Y0023232D01*
X0176965Y0023009D01*
X0174752Y0024283D02*
X0028693Y0024283D01*
X0028693Y0025462D02*
X0173919Y0025462D01*
X0173526Y0026642D02*
X0028693Y0026642D01*
X0028693Y0027822D02*
X0180630Y0027822D01*
X0180630Y0027896D02*
X0180630Y0027077D01*
X0181449Y0027077D01*
X0181449Y0022896D01*
X0184401Y0022896D01*
X0185115Y0023009D01*
X0185802Y0023232D01*
X0186446Y0023560D01*
X0187030Y0023985D01*
X0187541Y0024496D01*
X0187966Y0025081D01*
X0188294Y0025724D01*
X0188517Y0026412D01*
X0188623Y0027077D01*
X0181449Y0027077D01*
X0181449Y0027896D01*
X0180630Y0027896D01*
X0173457Y0027896D01*
X0173562Y0028562D01*
X0173786Y0029249D01*
X0174114Y0029893D01*
X0174538Y0030477D01*
X0175049Y0030988D01*
X0175634Y0031413D01*
X0176278Y0031741D01*
X0176965Y0031964D01*
X0177679Y0032077D01*
X0180630Y0032077D01*
X0180630Y0027896D01*
X0181449Y0027896D02*
X0181449Y0032077D01*
X0184401Y0032077D01*
X0185115Y0031964D01*
X0185802Y0031741D01*
X0186446Y0031413D01*
X0187030Y0030988D01*
X0187541Y0030477D01*
X0187966Y0029893D01*
X0188294Y0029249D01*
X0188517Y0028562D01*
X0188623Y0027896D01*
X0181449Y0027896D01*
X0181449Y0027822D02*
X0318426Y0027822D01*
X0318426Y0029001D02*
X0188375Y0029001D01*
X0187757Y0030181D02*
X0318582Y0030181D01*
X0319070Y0031360D02*
X0186518Y0031360D01*
X0185896Y0033720D02*
X0320643Y0033720D01*
X0319559Y0032540D02*
X0037512Y0032540D01*
X0037512Y0032896D02*
X0044686Y0032896D01*
X0044580Y0033562D01*
X0044357Y0034249D01*
X0044029Y0034893D01*
X0043604Y0035477D01*
X0043093Y0035988D01*
X0042509Y0036413D01*
X0041865Y0036741D01*
X0041178Y0036964D01*
X0040464Y0037077D01*
X0037512Y0037077D01*
X0037512Y0032896D01*
X0036693Y0032896D01*
X0036693Y0032077D01*
X0029520Y0032077D01*
X0029625Y0031412D01*
X0029849Y0030724D01*
X0030177Y0030081D01*
X0030601Y0029496D01*
X0031112Y0028985D01*
X0031697Y0028560D01*
X0032341Y0028232D01*
X0033028Y0028009D01*
X0033742Y0027896D01*
X0036693Y0027896D01*
X0036693Y0032077D01*
X0037512Y0032077D01*
X0037512Y0027896D01*
X0040464Y0027896D01*
X0041178Y0028009D01*
X0041865Y0028232D01*
X0042509Y0028560D01*
X0043093Y0028985D01*
X0043604Y0029496D01*
X0044029Y0030081D01*
X0044357Y0030724D01*
X0044580Y0031412D01*
X0044686Y0032077D01*
X0037512Y0032077D01*
X0037512Y0032896D01*
X0036693Y0032896D02*
X0036693Y0037077D01*
X0033742Y0037077D01*
X0033028Y0036964D01*
X0032341Y0036741D01*
X0031697Y0036413D01*
X0031112Y0035988D01*
X0030601Y0035477D01*
X0030177Y0034893D01*
X0029849Y0034249D01*
X0029625Y0033562D01*
X0029520Y0032896D01*
X0036693Y0032896D01*
X0036693Y0032540D02*
X0028693Y0032540D01*
X0028693Y0031360D02*
X0029642Y0031360D01*
X0030126Y0030181D02*
X0028693Y0030181D01*
X0028693Y0029001D02*
X0031096Y0029001D01*
X0029677Y0033720D02*
X0028693Y0033720D01*
X0028693Y0034899D02*
X0030182Y0034899D01*
X0031237Y0036079D02*
X0028693Y0036079D01*
X0028693Y0037259D02*
X0173849Y0037259D01*
X0173898Y0038438D02*
X0041279Y0038438D01*
X0043160Y0039618D02*
X0174387Y0039618D01*
X0175424Y0040797D02*
X0043939Y0040797D01*
X0042968Y0036079D02*
X0174087Y0036079D01*
X0174701Y0034899D02*
X0044024Y0034899D01*
X0044529Y0033720D02*
X0176184Y0033720D01*
X0175562Y0031360D02*
X0044564Y0031360D01*
X0044080Y0030181D02*
X0174323Y0030181D01*
X0173705Y0029001D02*
X0043109Y0029001D01*
X0037512Y0029001D02*
X0036693Y0029001D01*
X0036693Y0030181D02*
X0037512Y0030181D01*
X0037512Y0031360D02*
X0036693Y0031360D01*
X0036693Y0033720D02*
X0037512Y0033720D01*
X0037512Y0034899D02*
X0036693Y0034899D01*
X0036693Y0036079D02*
X0037512Y0036079D01*
X0032926Y0038438D02*
X0028693Y0038438D01*
X0028693Y0039618D02*
X0031045Y0039618D01*
X0030267Y0040797D02*
X0028693Y0040797D01*
X0028693Y0041977D02*
X0029912Y0041977D01*
X0029912Y0043157D02*
X0028693Y0043157D01*
X0028693Y0044336D02*
X0030333Y0044336D01*
X0031206Y0045516D02*
X0028693Y0045516D01*
X0028693Y0049055D02*
X0260191Y0049055D01*
X0260133Y0050234D02*
X0028693Y0050234D01*
X0028693Y0051414D02*
X0260583Y0051414D01*
X0260326Y0052594D02*
X0149317Y0052594D01*
X0150497Y0053773D02*
X0260103Y0053773D01*
X0260365Y0054953D02*
X0150547Y0054953D01*
X0150210Y0056132D02*
X0260521Y0056132D01*
X0260114Y0057312D02*
X0149947Y0057312D01*
X0149947Y0058492D02*
X0260209Y0058492D01*
X0260874Y0059671D02*
X0149947Y0059671D01*
X0146385Y0059671D02*
X0139120Y0059671D01*
X0139120Y0058492D02*
X0146385Y0058492D01*
X0146385Y0057312D02*
X0139120Y0057312D01*
X0139120Y0056396D02*
X0139120Y0062930D01*
X0147919Y0071729D01*
X0152485Y0071729D01*
X0153085Y0071129D01*
X0155058Y0071129D01*
X0156452Y0072524D01*
X0156452Y0074497D01*
X0155058Y0075891D01*
X0153085Y0075891D01*
X0152485Y0075291D01*
X0146444Y0075291D01*
X0136601Y0065449D01*
X0135558Y0064405D01*
X0135558Y0056396D01*
X0134958Y0055796D01*
X0134958Y0053823D01*
X0136353Y0052428D01*
X0138325Y0052428D01*
X0139720Y0053823D01*
X0139720Y0055796D01*
X0139120Y0056396D01*
X0139384Y0056132D02*
X0146121Y0056132D01*
X0145785Y0054953D02*
X0139720Y0054953D01*
X0139670Y0053773D02*
X0145835Y0053773D01*
X0147014Y0052594D02*
X0138490Y0052594D01*
X0136188Y0052594D02*
X0028693Y0052594D01*
X0028693Y0053773D02*
X0135008Y0053773D01*
X0134958Y0054953D02*
X0028693Y0054953D01*
X0028693Y0056132D02*
X0135295Y0056132D01*
X0135558Y0057312D02*
X0028693Y0057312D01*
X0028693Y0058492D02*
X0135558Y0058492D01*
X0135558Y0059671D02*
X0028693Y0059671D01*
X0028693Y0060851D02*
X0135558Y0060851D01*
X0135558Y0062030D02*
X0028693Y0062030D01*
X0028693Y0063210D02*
X0135558Y0063210D01*
X0135558Y0064390D02*
X0028693Y0064390D01*
X0028693Y0065569D02*
X0064157Y0065569D01*
X0064502Y0065224D02*
X0066475Y0065224D01*
X0067870Y0066618D01*
X0067870Y0067765D01*
X0068029Y0067606D01*
X0068029Y0066618D01*
X0069424Y0065224D01*
X0071396Y0065224D01*
X0072378Y0066206D01*
X0073361Y0065224D01*
X0075333Y0065224D01*
X0076728Y0066618D01*
X0076728Y0068591D01*
X0075333Y0069986D01*
X0074485Y0069986D01*
X0072191Y0072280D01*
X0072191Y0082751D01*
X0072791Y0083351D01*
X0072791Y0085323D01*
X0071396Y0086718D01*
X0069424Y0086718D01*
X0068029Y0085323D01*
X0068029Y0083765D01*
X0066471Y0083765D01*
X0065871Y0083165D01*
X0062939Y0083165D01*
X0062939Y0083492D01*
X0062242Y0084189D01*
X0057318Y0084189D01*
X0056621Y0083492D01*
X0056621Y0078175D01*
X0057309Y0077487D01*
X0056621Y0076799D01*
X0056621Y0075921D01*
X0054523Y0075921D01*
X0054560Y0076057D01*
X0054560Y0078038D01*
X0051394Y0078038D01*
X0051394Y0078825D01*
X0054560Y0078825D01*
X0054560Y0080806D01*
X0054451Y0081211D01*
X0054242Y0081573D01*
X0053946Y0081870D01*
X0053703Y0082010D01*
X0054160Y0082466D01*
X0054160Y0087783D01*
X0053462Y0088480D01*
X0048539Y0088480D01*
X0047841Y0087783D01*
X0047841Y0086906D01*
X0046838Y0086906D01*
X0046650Y0086718D01*
X0045802Y0086718D01*
X0044407Y0085323D01*
X0044407Y0083351D01*
X0045802Y0081956D01*
X0047774Y0081956D01*
X0048063Y0082245D01*
X0048298Y0082010D01*
X0048055Y0081870D01*
X0047759Y0081573D01*
X0047550Y0081211D01*
X0047441Y0080806D01*
X0047441Y0078825D01*
X0050607Y0078825D01*
X0050607Y0078038D01*
X0047441Y0078038D01*
X0047441Y0076057D01*
X0047550Y0075652D01*
X0047759Y0075290D01*
X0048055Y0074993D01*
X0048418Y0074784D01*
X0048586Y0074739D01*
X0048344Y0074497D01*
X0048344Y0072524D01*
X0049739Y0071129D01*
X0051711Y0071129D01*
X0052941Y0072359D01*
X0056621Y0072359D01*
X0056621Y0071482D01*
X0057318Y0070784D01*
X0062242Y0070784D01*
X0062939Y0071482D01*
X0062939Y0076630D01*
X0063518Y0076050D01*
X0063806Y0076050D01*
X0063806Y0069289D01*
X0063108Y0068591D01*
X0063108Y0066618D01*
X0064502Y0065224D01*
X0063108Y0066749D02*
X0028693Y0066749D01*
X0028693Y0067928D02*
X0063108Y0067928D01*
X0063625Y0069108D02*
X0028693Y0069108D01*
X0028693Y0070288D02*
X0063806Y0070288D01*
X0063806Y0071467D02*
X0062925Y0071467D01*
X0062939Y0072647D02*
X0063806Y0072647D01*
X0063806Y0073827D02*
X0062939Y0073827D01*
X0062939Y0075006D02*
X0063806Y0075006D01*
X0063383Y0076186D02*
X0062939Y0076186D01*
X0059780Y0074140D02*
X0051355Y0074140D01*
X0050725Y0073510D01*
X0048344Y0073827D02*
X0028693Y0073827D01*
X0028693Y0075006D02*
X0048043Y0075006D01*
X0047441Y0076186D02*
X0028693Y0076186D01*
X0028693Y0077365D02*
X0047441Y0077365D01*
X0047441Y0079725D02*
X0028693Y0079725D01*
X0028693Y0080904D02*
X0047468Y0080904D01*
X0047902Y0082084D02*
X0048224Y0082084D01*
X0045674Y0082084D02*
X0028693Y0082084D01*
X0028693Y0083263D02*
X0044494Y0083263D01*
X0044407Y0084443D02*
X0028693Y0084443D01*
X0028693Y0085623D02*
X0044706Y0085623D01*
X0046734Y0086802D02*
X0028693Y0086802D01*
X0028693Y0087982D02*
X0048040Y0087982D01*
X0047575Y0085124D02*
X0046788Y0084337D01*
X0047575Y0085124D02*
X0051000Y0085124D01*
X0054160Y0085623D02*
X0068328Y0085623D01*
X0068029Y0084443D02*
X0054160Y0084443D01*
X0054160Y0083263D02*
X0056621Y0083263D01*
X0056621Y0082084D02*
X0053777Y0082084D01*
X0054533Y0080904D02*
X0056621Y0080904D01*
X0056621Y0079725D02*
X0054560Y0079725D01*
X0054560Y0077365D02*
X0057188Y0077365D01*
X0056621Y0076186D02*
X0054560Y0076186D01*
X0056621Y0078545D02*
X0051394Y0078545D01*
X0050607Y0078545D02*
X0028693Y0078545D01*
X0028693Y0072647D02*
X0048344Y0072647D01*
X0049400Y0071467D02*
X0028693Y0071467D01*
X0052049Y0071467D02*
X0056635Y0071467D01*
X0066821Y0065569D02*
X0069078Y0065569D01*
X0068029Y0066749D02*
X0067870Y0066749D01*
X0071742Y0065569D02*
X0073015Y0065569D01*
X0074347Y0067605D02*
X0070410Y0071542D01*
X0070410Y0084337D01*
X0072791Y0084443D02*
X0077711Y0084443D01*
X0077706Y0084440D02*
X0077275Y0084010D01*
X0076937Y0083503D01*
X0076704Y0082941D01*
X0076586Y0082344D01*
X0076586Y0082039D01*
X0076586Y0081735D01*
X0076704Y0081138D01*
X0076937Y0080575D01*
X0077028Y0080439D01*
X0076937Y0080303D01*
X0076704Y0079741D01*
X0076586Y0079144D01*
X0076586Y0078839D01*
X0076586Y0078535D01*
X0076704Y0077938D01*
X0076937Y0077375D01*
X0077275Y0076869D01*
X0077706Y0076439D01*
X0078212Y0076101D01*
X0078775Y0075868D01*
X0079372Y0075749D01*
X0079676Y0075749D01*
X0079676Y0078839D01*
X0079676Y0078839D01*
X0079676Y0075749D01*
X0079980Y0075749D01*
X0080578Y0075868D01*
X0081140Y0076101D01*
X0081276Y0076192D01*
X0081412Y0076101D01*
X0081975Y0075868D01*
X0082572Y0075749D01*
X0082876Y0075749D01*
X0082876Y0078839D01*
X0082876Y0078839D01*
X0082876Y0075749D01*
X0083180Y0075749D01*
X0083778Y0075868D01*
X0084340Y0076101D01*
X0084846Y0076439D01*
X0085277Y0076869D01*
X0085615Y0077375D01*
X0085848Y0077938D01*
X0085967Y0078535D01*
X0085967Y0078839D01*
X0082876Y0078839D01*
X0079676Y0078839D01*
X0076586Y0078839D01*
X0079676Y0078839D01*
X0079676Y0078839D01*
X0079676Y0078839D01*
X0082767Y0078839D01*
X0082876Y0078839D01*
X0082876Y0078839D01*
X0082876Y0078839D01*
X0085967Y0078839D01*
X0085967Y0079144D01*
X0085848Y0079741D01*
X0085615Y0080303D01*
X0085524Y0080439D01*
X0085615Y0080575D01*
X0085848Y0081138D01*
X0085967Y0081735D01*
X0085967Y0082039D01*
X0082876Y0082039D01*
X0082876Y0082039D01*
X0082876Y0078840D01*
X0082876Y0078840D01*
X0082876Y0078949D01*
X0082876Y0082039D01*
X0079676Y0082039D01*
X0079676Y0082039D01*
X0079676Y0078840D01*
X0079676Y0078840D01*
X0079676Y0078949D01*
X0079676Y0082039D01*
X0076586Y0082039D01*
X0079676Y0082039D01*
X0079676Y0082039D01*
X0079676Y0082039D01*
X0082767Y0082039D01*
X0082876Y0082039D01*
X0082876Y0082039D01*
X0082876Y0082039D01*
X0085967Y0082039D01*
X0085967Y0082344D01*
X0085848Y0082941D01*
X0085615Y0083503D01*
X0085277Y0084010D01*
X0084846Y0084440D01*
X0084340Y0084778D01*
X0083778Y0085011D01*
X0083180Y0085130D01*
X0082876Y0085130D01*
X0082572Y0085130D01*
X0081975Y0085011D01*
X0081412Y0084778D01*
X0081276Y0084687D01*
X0081140Y0084778D01*
X0080578Y0085011D01*
X0079980Y0085130D01*
X0079676Y0085130D01*
X0079372Y0085130D01*
X0078775Y0085011D01*
X0078212Y0084778D01*
X0077706Y0084440D01*
X0076838Y0083263D02*
X0072704Y0083263D01*
X0072191Y0082084D02*
X0076586Y0082084D01*
X0076801Y0080904D02*
X0072191Y0080904D01*
X0072191Y0079725D02*
X0076701Y0079725D01*
X0076586Y0078545D02*
X0072191Y0078545D01*
X0072191Y0077365D02*
X0076944Y0077365D01*
X0078085Y0076186D02*
X0072191Y0076186D01*
X0072191Y0075006D02*
X0146159Y0075006D01*
X0144979Y0073827D02*
X0072191Y0073827D01*
X0072191Y0072647D02*
X0143799Y0072647D01*
X0142620Y0071467D02*
X0073003Y0071467D01*
X0074183Y0070288D02*
X0141440Y0070288D01*
X0140261Y0069108D02*
X0076211Y0069108D01*
X0076728Y0067928D02*
X0139081Y0067928D01*
X0137901Y0066749D02*
X0076728Y0066749D01*
X0075679Y0065569D02*
X0136722Y0065569D01*
X0137339Y0063668D02*
X0137339Y0054809D01*
X0139120Y0060851D02*
X0146385Y0060851D01*
X0146385Y0062030D02*
X0139120Y0062030D01*
X0139400Y0063210D02*
X0146385Y0063210D01*
X0146385Y0064390D02*
X0140580Y0064390D01*
X0141759Y0065569D02*
X0146564Y0065569D01*
X0147744Y0066749D02*
X0142939Y0066749D01*
X0144119Y0067928D02*
X0148737Y0067928D01*
X0149255Y0069108D02*
X0145298Y0069108D01*
X0146478Y0070288D02*
X0324066Y0070288D01*
X0322887Y0071467D02*
X0155396Y0071467D01*
X0156452Y0072647D02*
X0321707Y0072647D01*
X0322378Y0074495D02*
X0322378Y0077211D01*
X0322103Y0077487D01*
X0322378Y0074495D02*
X0325331Y0071542D01*
X0335174Y0071542D01*
X0339701Y0076069D01*
X0339701Y0196935D01*
X0331237Y0205400D01*
X0277103Y0205400D01*
X0265292Y0193589D01*
X0263662Y0195327D02*
X0197191Y0195327D01*
X0197191Y0196506D02*
X0265690Y0196506D01*
X0266870Y0197686D02*
X0197191Y0197686D01*
X0197191Y0198866D02*
X0268050Y0198866D01*
X0269229Y0200045D02*
X0196394Y0200045D01*
X0196148Y0200291D02*
X0197191Y0199248D01*
X0197191Y0190390D01*
X0198175Y0189405D01*
X0198175Y0182024D01*
X0197791Y0181640D01*
X0197791Y0180792D01*
X0196396Y0179397D01*
X0194424Y0179397D01*
X0193029Y0180792D01*
X0193029Y0182764D01*
X0194424Y0184159D01*
X0194613Y0184159D01*
X0194613Y0184504D01*
X0194428Y0184318D01*
X0192455Y0184318D01*
X0191060Y0185713D01*
X0191060Y0187686D01*
X0191660Y0188286D01*
X0191660Y0196788D01*
X0188767Y0199682D01*
X0164141Y0199682D01*
X0164326Y0199497D01*
X0164326Y0197524D01*
X0162932Y0196129D01*
X0160959Y0196129D01*
X0160359Y0196729D01*
X0140045Y0196729D01*
X0136108Y0192792D01*
X0134004Y0192792D01*
X0133404Y0192192D01*
X0131846Y0192192D01*
X0131846Y0190634D01*
X0130451Y0189239D01*
X0128893Y0189239D01*
X0128893Y0187681D01*
X0127499Y0186287D01*
X0125526Y0186287D01*
X0124131Y0187681D01*
X0124131Y0189654D01*
X0124731Y0190254D01*
X0124731Y0197280D01*
X0131621Y0204169D01*
X0132664Y0205213D01*
X0191226Y0205213D01*
X0196148Y0200291D01*
X0195214Y0201225D02*
X0270409Y0201225D01*
X0271588Y0202404D02*
X0194035Y0202404D01*
X0192855Y0203584D02*
X0272768Y0203584D01*
X0273948Y0204764D02*
X0191675Y0204764D01*
X0190489Y0203432D02*
X0195410Y0198510D01*
X0195410Y0189652D01*
X0196394Y0188668D01*
X0196394Y0182762D01*
X0195410Y0181778D01*
X0193795Y0183531D02*
X0110193Y0183531D01*
X0110193Y0182760D02*
X0110193Y0184733D01*
X0108798Y0186128D01*
X0108224Y0186128D01*
X0108224Y0187686D01*
X0106829Y0189080D01*
X0104857Y0189080D01*
X0104257Y0188480D01*
X0089023Y0188480D01*
X0091293Y0190751D01*
X0091293Y0194222D01*
X0088839Y0196677D01*
X0085367Y0196677D01*
X0082912Y0194222D01*
X0082912Y0190751D01*
X0085183Y0188480D01*
X0079023Y0188480D01*
X0081293Y0190751D01*
X0081293Y0194222D01*
X0078839Y0196677D01*
X0075367Y0196677D01*
X0072912Y0194222D01*
X0072912Y0190751D01*
X0075183Y0188480D01*
X0069023Y0188480D01*
X0071293Y0190751D01*
X0071293Y0194222D01*
X0068839Y0196677D01*
X0065367Y0196677D01*
X0062912Y0194222D01*
X0062912Y0190751D01*
X0065367Y0188296D01*
X0067519Y0188296D01*
X0066660Y0187437D01*
X0066129Y0186906D01*
X0065086Y0185862D01*
X0065086Y0185726D01*
X0064092Y0184733D01*
X0064092Y0182760D01*
X0065487Y0181365D01*
X0067459Y0181365D01*
X0068722Y0182628D01*
X0068722Y0182500D01*
X0070117Y0181106D01*
X0072089Y0181106D01*
X0072689Y0181706D01*
X0106036Y0181706D01*
X0106209Y0181592D01*
X0106531Y0181660D01*
X0106825Y0181365D01*
X0108798Y0181365D01*
X0110193Y0182760D01*
X0109783Y0182351D02*
X0193029Y0182351D01*
X0193029Y0181171D02*
X0072155Y0181171D01*
X0070051Y0181171D02*
X0028693Y0181171D01*
X0028693Y0179992D02*
X0193829Y0179992D01*
X0196991Y0179992D02*
X0337920Y0179992D01*
X0337920Y0181171D02*
X0197791Y0181171D01*
X0198175Y0182351D02*
X0337920Y0182351D01*
X0337920Y0183531D02*
X0198175Y0183531D01*
X0198175Y0184710D02*
X0337920Y0184710D01*
X0337920Y0185890D02*
X0198175Y0185890D01*
X0198175Y0187069D02*
X0337920Y0187069D01*
X0337920Y0188249D02*
X0198175Y0188249D01*
X0198152Y0189429D02*
X0337920Y0189429D01*
X0337920Y0190608D02*
X0197191Y0190608D01*
X0197191Y0191788D02*
X0263726Y0191788D01*
X0262911Y0192968D02*
X0197191Y0192968D01*
X0197191Y0194147D02*
X0262911Y0194147D01*
X0266858Y0191788D02*
X0337920Y0191788D01*
X0337920Y0192968D02*
X0267673Y0192968D01*
X0268369Y0194147D02*
X0337920Y0194147D01*
X0337920Y0195327D02*
X0269548Y0195327D01*
X0270728Y0196506D02*
X0337611Y0196506D01*
X0336432Y0197686D02*
X0271908Y0197686D01*
X0273087Y0198866D02*
X0335252Y0198866D01*
X0334073Y0200045D02*
X0274267Y0200045D01*
X0275446Y0201225D02*
X0332893Y0201225D01*
X0331713Y0202404D02*
X0276626Y0202404D01*
X0277806Y0203584D02*
X0330534Y0203584D01*
X0333212Y0205943D02*
X0340473Y0205943D01*
X0340473Y0204764D02*
X0334392Y0204764D01*
X0335572Y0203584D02*
X0340473Y0203584D01*
X0340473Y0202404D02*
X0336751Y0202404D01*
X0337931Y0201225D02*
X0340473Y0201225D01*
X0340473Y0200045D02*
X0339110Y0200045D01*
X0340290Y0198866D02*
X0340473Y0198866D01*
X0340473Y0207123D02*
X0332033Y0207123D01*
X0337920Y0178812D02*
X0028693Y0178812D01*
X0028693Y0177633D02*
X0337920Y0177633D01*
X0337920Y0176453D02*
X0028693Y0176453D01*
X0028693Y0175273D02*
X0337920Y0175273D01*
X0337920Y0174094D02*
X0028693Y0174094D01*
X0028693Y0172914D02*
X0121531Y0172914D01*
X0121059Y0172719D02*
X0123959Y0173920D01*
X0127097Y0173920D01*
X0129997Y0172719D01*
X0132217Y0170499D01*
X0133418Y0167599D01*
X0133418Y0164461D01*
X0132217Y0161561D01*
X0129997Y0159341D01*
X0127097Y0158140D01*
X0123959Y0158140D01*
X0121059Y0159341D01*
X0118839Y0161561D01*
X0117638Y0164461D01*
X0117638Y0167599D01*
X0118839Y0170499D01*
X0121059Y0172719D01*
X0120075Y0171734D02*
X0028693Y0171734D01*
X0028693Y0170555D02*
X0118895Y0170555D01*
X0118374Y0169375D02*
X0028693Y0169375D01*
X0028693Y0168196D02*
X0117885Y0168196D01*
X0117638Y0167016D02*
X0028693Y0167016D01*
X0028693Y0165836D02*
X0117638Y0165836D01*
X0117638Y0164657D02*
X0028693Y0164657D01*
X0028693Y0163477D02*
X0118046Y0163477D01*
X0118534Y0162298D02*
X0028693Y0162298D01*
X0028693Y0161118D02*
X0119282Y0161118D01*
X0120462Y0159938D02*
X0028693Y0159938D01*
X0028693Y0158759D02*
X0122465Y0158759D01*
X0128591Y0158759D02*
X0163708Y0158759D01*
X0163708Y0159938D02*
X0130594Y0159938D01*
X0131774Y0161118D02*
X0163708Y0161118D01*
X0163708Y0162298D02*
X0132522Y0162298D01*
X0133010Y0163477D02*
X0163708Y0163477D01*
X0163708Y0164657D02*
X0133418Y0164657D01*
X0133418Y0165836D02*
X0163693Y0165836D01*
X0163708Y0165822D02*
X0163708Y0152459D01*
X0163501Y0152252D01*
X0163501Y0150280D01*
X0164896Y0148885D01*
X0166869Y0148885D01*
X0168263Y0150280D01*
X0168263Y0152252D01*
X0168057Y0152459D01*
X0168057Y0165822D01*
X0168263Y0166028D01*
X0168263Y0168000D01*
X0166869Y0169395D01*
X0164896Y0169395D01*
X0163501Y0168000D01*
X0163501Y0166028D01*
X0163708Y0165822D01*
X0163501Y0167016D02*
X0133418Y0167016D01*
X0133171Y0168196D02*
X0163696Y0168196D01*
X0164876Y0169375D02*
X0132682Y0169375D01*
X0132161Y0170555D02*
X0337920Y0170555D01*
X0337920Y0171734D02*
X0130981Y0171734D01*
X0129525Y0172914D02*
X0337920Y0172914D01*
X0337920Y0169375D02*
X0166889Y0169375D01*
X0168068Y0168196D02*
X0260153Y0168196D01*
X0260369Y0168411D02*
X0258974Y0167016D01*
X0168263Y0167016D01*
X0168072Y0165836D02*
X0258642Y0165836D01*
X0258974Y0166168D02*
X0251937Y0159131D01*
X0251514Y0159553D01*
X0249542Y0159553D01*
X0248147Y0158158D01*
X0248147Y0156185D01*
X0249542Y0154791D01*
X0251514Y0154791D01*
X0252114Y0155391D01*
X0253234Y0155391D01*
X0261493Y0163649D01*
X0262341Y0163649D01*
X0263736Y0165044D01*
X0263736Y0167016D01*
X0264879Y0167016D01*
X0264879Y0165044D01*
X0265479Y0164444D01*
X0265479Y0150578D01*
X0265336Y0150160D01*
X0265479Y0149869D01*
X0265479Y0149544D01*
X0265597Y0149426D01*
X0265597Y0146797D01*
X0266295Y0146099D01*
X0268452Y0146099D01*
X0268452Y0141913D01*
X0268284Y0142080D01*
X0267330Y0142080D01*
X0267288Y0142122D01*
X0260923Y0142122D01*
X0260790Y0142255D01*
X0261032Y0142395D01*
X0261328Y0142691D01*
X0261538Y0143054D01*
X0261646Y0143458D01*
X0261646Y0145636D01*
X0257693Y0145636D01*
X0257693Y0146817D01*
X0256512Y0146817D01*
X0256512Y0145636D01*
X0252560Y0145636D01*
X0252560Y0143458D01*
X0252668Y0143054D01*
X0252877Y0142691D01*
X0253173Y0142395D01*
X0253416Y0142255D01*
X0252960Y0141799D01*
X0252960Y0135694D01*
X0253657Y0134997D01*
X0253944Y0134997D01*
X0253944Y0134543D01*
X0239377Y0119976D01*
X0238089Y0119976D01*
X0236928Y0119495D01*
X0236039Y0118607D01*
X0235558Y0117446D01*
X0235558Y0116189D01*
X0236039Y0115028D01*
X0236928Y0114139D01*
X0238089Y0113658D01*
X0239377Y0113658D01*
X0248739Y0104297D01*
X0249900Y0103816D01*
X0303322Y0103816D01*
X0304483Y0104297D01*
X0305372Y0105185D01*
X0317183Y0116996D01*
X0317663Y0118157D01*
X0317663Y0149958D01*
X0319750Y0152044D01*
X0327960Y0152044D01*
X0328944Y0151060D01*
X0328944Y0150254D01*
X0327912Y0149222D01*
X0327912Y0145751D01*
X0328944Y0144719D01*
X0328944Y0140254D01*
X0327912Y0139222D01*
X0327912Y0135751D01*
X0328944Y0134719D01*
X0328944Y0130254D01*
X0327912Y0129222D01*
X0327912Y0125751D01*
X0330367Y0123296D01*
X0333839Y0123296D01*
X0336293Y0125751D01*
X0336293Y0129222D01*
X0335262Y0130254D01*
X0335262Y0134719D01*
X0336293Y0135751D01*
X0336293Y0139222D01*
X0335262Y0140254D01*
X0335262Y0144719D01*
X0336293Y0145751D01*
X0336293Y0149222D01*
X0335262Y0150254D01*
X0335262Y0152997D01*
X0334781Y0154158D01*
X0331946Y0156993D01*
X0331058Y0157881D01*
X0329897Y0158362D01*
X0317813Y0158362D01*
X0316652Y0157881D01*
X0312715Y0153944D01*
X0311826Y0153056D01*
X0311345Y0151895D01*
X0311345Y0120094D01*
X0301385Y0110134D01*
X0251837Y0110134D01*
X0245153Y0116817D01*
X0259112Y0130776D01*
X0259781Y0131445D01*
X0260262Y0132606D01*
X0260262Y0133208D01*
X0260618Y0132851D01*
X0267288Y0132851D01*
X0267330Y0132893D01*
X0268284Y0132893D01*
X0268393Y0133002D01*
X0268393Y0128343D01*
X0268359Y0128309D01*
X0265060Y0128309D01*
X0264362Y0127611D01*
X0264362Y0113425D01*
X0265060Y0112728D01*
X0269846Y0112728D01*
X0270543Y0113425D01*
X0270543Y0125456D01*
X0271955Y0126867D01*
X0271955Y0130211D01*
X0272103Y0130211D01*
X0272251Y0130211D01*
X0272251Y0127025D01*
X0273662Y0125613D01*
X0273662Y0113425D01*
X0274360Y0112728D01*
X0279146Y0112728D01*
X0279843Y0113425D01*
X0279843Y0127611D01*
X0279146Y0128309D01*
X0276004Y0128309D01*
X0275813Y0128500D01*
X0275813Y0133002D01*
X0275921Y0132893D01*
X0276876Y0132893D01*
X0276918Y0132851D01*
X0285556Y0132851D01*
X0287524Y0134820D01*
X0287701Y0134997D01*
X0292517Y0134997D01*
X0293108Y0135587D01*
X0294051Y0135587D01*
X0294613Y0135025D01*
X0294613Y0132921D01*
X0295094Y0131760D01*
X0295983Y0130872D01*
X0297144Y0130391D01*
X0298401Y0130391D01*
X0299562Y0130872D01*
X0300450Y0131760D01*
X0300931Y0132921D01*
X0300931Y0134997D01*
X0301533Y0134997D01*
X0302230Y0135694D01*
X0302230Y0141799D01*
X0301774Y0142255D01*
X0302016Y0142395D01*
X0302313Y0142691D01*
X0302522Y0143054D01*
X0302630Y0143458D01*
X0302630Y0145636D01*
X0298678Y0145636D01*
X0298678Y0146817D01*
X0302630Y0146817D01*
X0302630Y0148995D01*
X0302522Y0149400D01*
X0302313Y0149762D01*
X0302016Y0150059D01*
X0301654Y0150268D01*
X0301249Y0150376D01*
X0298678Y0150376D01*
X0298678Y0146817D01*
X0297497Y0146817D01*
X0297497Y0150376D01*
X0294925Y0150376D01*
X0294520Y0150268D01*
X0294158Y0150059D01*
X0293862Y0149762D01*
X0293652Y0149400D01*
X0293579Y0149127D01*
X0293506Y0149400D01*
X0293297Y0149762D01*
X0293001Y0150059D01*
X0292638Y0150268D01*
X0292234Y0150376D01*
X0289662Y0150376D01*
X0289662Y0146817D01*
X0297496Y0146817D01*
X0297496Y0145636D01*
X0293544Y0145636D01*
X0289662Y0145636D01*
X0289662Y0146817D01*
X0288481Y0146817D01*
X0288481Y0150376D01*
X0285909Y0150376D01*
X0285774Y0150340D01*
X0285774Y0151830D01*
X0285778Y0151838D01*
X0285963Y0151838D01*
X0287358Y0153233D01*
X0287358Y0155205D01*
X0285963Y0156600D01*
X0283991Y0156600D01*
X0282596Y0155205D01*
X0282596Y0153439D01*
X0282529Y0153305D01*
X0282212Y0152988D01*
X0282212Y0152671D01*
X0282070Y0152387D01*
X0282212Y0151961D01*
X0282212Y0142122D01*
X0276918Y0142122D01*
X0276876Y0142080D01*
X0276112Y0142080D01*
X0276112Y0143424D01*
X0282212Y0143424D01*
X0282212Y0144603D02*
X0275296Y0144603D01*
X0275135Y0144696D02*
X0274731Y0144805D01*
X0274071Y0144805D01*
X0273412Y0144805D01*
X0273087Y0144718D01*
X0272762Y0144805D01*
X0272103Y0144805D01*
X0272103Y0143693D01*
X0272103Y0143692D01*
X0272103Y0144805D01*
X0271817Y0144805D01*
X0271817Y0146698D01*
X0271915Y0146797D01*
X0271915Y0146986D01*
X0271999Y0146676D01*
X0272208Y0146313D01*
X0272504Y0146017D01*
X0272867Y0145808D01*
X0273271Y0145699D01*
X0275056Y0145699D01*
X0275056Y0149061D01*
X0275843Y0149061D01*
X0275843Y0145699D01*
X0277627Y0145699D01*
X0278032Y0145808D01*
X0278394Y0146017D01*
X0278691Y0146313D01*
X0278900Y0146676D01*
X0279008Y0147080D01*
X0279008Y0149061D01*
X0275843Y0149061D01*
X0275843Y0149849D01*
X0275056Y0149849D01*
X0275056Y0153211D01*
X0273271Y0153211D01*
X0272867Y0153103D01*
X0272504Y0152893D01*
X0272208Y0152597D01*
X0271999Y0152234D01*
X0271915Y0151924D01*
X0271915Y0152114D01*
X0271218Y0152811D01*
X0269041Y0152811D01*
X0269041Y0164444D01*
X0269641Y0165044D01*
X0269641Y0167016D01*
X0337920Y0167016D01*
X0337920Y0165836D02*
X0269641Y0165836D01*
X0269641Y0167016D02*
X0268247Y0168411D01*
X0266274Y0168411D01*
X0264879Y0167016D01*
X0263736Y0167016D02*
X0262341Y0168411D01*
X0260369Y0168411D01*
X0258974Y0167016D02*
X0258974Y0166168D01*
X0257463Y0164657D02*
X0168057Y0164657D01*
X0168057Y0163477D02*
X0256283Y0163477D01*
X0255104Y0162298D02*
X0168057Y0162298D01*
X0168057Y0161118D02*
X0253924Y0161118D01*
X0252744Y0159938D02*
X0168057Y0159938D01*
X0168057Y0158759D02*
X0248748Y0158759D01*
X0248147Y0157579D02*
X0168057Y0157579D01*
X0168057Y0156400D02*
X0248147Y0156400D01*
X0249112Y0155220D02*
X0168057Y0155220D01*
X0168057Y0154040D02*
X0265479Y0154040D01*
X0265479Y0152861D02*
X0168057Y0152861D01*
X0168263Y0151681D02*
X0265479Y0151681D01*
X0265453Y0150501D02*
X0168263Y0150501D01*
X0167305Y0149322D02*
X0198956Y0149322D01*
X0199345Y0149710D02*
X0197950Y0148315D01*
X0197950Y0146343D01*
X0198550Y0145743D01*
X0198550Y0124309D01*
X0197950Y0123709D01*
X0197950Y0121737D01*
X0199345Y0120342D01*
X0201317Y0120342D01*
X0202712Y0121737D01*
X0202712Y0123709D01*
X0202112Y0124309D01*
X0202112Y0145743D01*
X0202712Y0146343D01*
X0202712Y0148315D01*
X0201317Y0149710D01*
X0199345Y0149710D01*
X0197950Y0148142D02*
X0028693Y0148142D01*
X0028693Y0146963D02*
X0197950Y0146963D01*
X0198510Y0145783D02*
X0028693Y0145783D01*
X0028693Y0144603D02*
X0198550Y0144603D01*
X0198550Y0143424D02*
X0133785Y0143424D01*
X0133404Y0143805D02*
X0131432Y0143805D01*
X0130037Y0142410D01*
X0130037Y0140437D01*
X0130637Y0139837D01*
X0130637Y0136749D01*
X0131680Y0135706D01*
X0134633Y0132753D01*
X0162702Y0132753D01*
X0162328Y0132378D01*
X0134140Y0132378D01*
X0129278Y0137240D01*
X0129278Y0139837D01*
X0129878Y0140437D01*
X0129878Y0142410D01*
X0128483Y0143805D01*
X0126510Y0143805D01*
X0125115Y0142410D01*
X0125115Y0140437D01*
X0125715Y0139837D01*
X0125715Y0135765D01*
X0126759Y0134721D01*
X0131621Y0129859D01*
X0132664Y0128816D01*
X0162328Y0128816D01*
X0162928Y0128216D01*
X0164900Y0128216D01*
X0166295Y0129611D01*
X0166295Y0131583D01*
X0165725Y0132153D01*
X0166869Y0132153D01*
X0168263Y0133548D01*
X0168263Y0135520D01*
X0167483Y0136300D01*
X0168143Y0136960D01*
X0168549Y0137940D01*
X0168549Y0139001D01*
X0168143Y0139982D01*
X0167393Y0140732D01*
X0166413Y0141138D01*
X0135824Y0141138D01*
X0134844Y0140732D01*
X0134799Y0140687D01*
X0134799Y0142410D01*
X0133404Y0143805D01*
X0134799Y0142244D02*
X0198550Y0142244D01*
X0198550Y0141065D02*
X0166590Y0141065D01*
X0168183Y0139885D02*
X0198550Y0139885D01*
X0198550Y0138705D02*
X0168549Y0138705D01*
X0168378Y0137526D02*
X0198550Y0137526D01*
X0198550Y0136346D02*
X0167529Y0136346D01*
X0168263Y0135166D02*
X0198550Y0135166D01*
X0198550Y0133987D02*
X0168263Y0133987D01*
X0167523Y0132807D02*
X0198550Y0132807D01*
X0198550Y0131628D02*
X0166250Y0131628D01*
X0166295Y0130448D02*
X0198550Y0130448D01*
X0198550Y0129268D02*
X0165953Y0129268D01*
X0163914Y0130597D02*
X0133402Y0130597D01*
X0127497Y0136502D01*
X0127497Y0141424D01*
X0129325Y0139885D02*
X0130589Y0139885D01*
X0130637Y0138705D02*
X0129278Y0138705D01*
X0129278Y0137526D02*
X0130637Y0137526D01*
X0131040Y0136346D02*
X0130172Y0136346D01*
X0131351Y0135166D02*
X0132219Y0135166D01*
X0132531Y0133987D02*
X0133399Y0133987D01*
X0133711Y0132807D02*
X0134578Y0132807D01*
X0135371Y0134534D02*
X0132418Y0137487D01*
X0132418Y0141424D01*
X0134799Y0141065D02*
X0135647Y0141065D01*
X0131051Y0143424D02*
X0128864Y0143424D01*
X0129878Y0142244D02*
X0130037Y0142244D01*
X0130037Y0141065D02*
X0129878Y0141065D01*
X0125668Y0139885D02*
X0115670Y0139885D01*
X0116098Y0139457D02*
X0114703Y0140852D01*
X0112731Y0140852D01*
X0112702Y0140823D01*
X0110500Y0140823D01*
X0110497Y0140826D01*
X0109598Y0140823D01*
X0108702Y0140823D01*
X0108699Y0140820D01*
X0051914Y0140649D01*
X0051711Y0140852D01*
X0049739Y0140852D01*
X0048344Y0139457D01*
X0048344Y0137485D01*
X0049739Y0136090D01*
X0051711Y0136090D01*
X0051921Y0136300D01*
X0109607Y0136473D01*
X0112347Y0136473D01*
X0112731Y0136090D01*
X0114703Y0136090D01*
X0116098Y0137485D01*
X0116098Y0139457D01*
X0116098Y0138705D02*
X0125715Y0138705D01*
X0125715Y0137526D02*
X0116098Y0137526D01*
X0114960Y0136346D02*
X0125715Y0136346D01*
X0126314Y0135166D02*
X0028693Y0135166D01*
X0028693Y0133987D02*
X0127493Y0133987D01*
X0126759Y0134721D02*
X0126759Y0134721D01*
X0128673Y0132807D02*
X0090745Y0132807D01*
X0090299Y0132992D02*
X0088631Y0132992D01*
X0087091Y0132354D01*
X0085912Y0131175D01*
X0085274Y0129635D01*
X0085274Y0121968D01*
X0085912Y0120428D01*
X0087091Y0119249D01*
X0088631Y0118611D01*
X0090299Y0118611D01*
X0091839Y0119249D01*
X0093018Y0120428D01*
X0093656Y0121968D01*
X0093656Y0129635D01*
X0093018Y0131175D01*
X0091839Y0132354D01*
X0090299Y0132992D01*
X0088185Y0132807D02*
X0080745Y0132807D01*
X0080299Y0132992D02*
X0078631Y0132992D01*
X0077091Y0132354D01*
X0075912Y0131175D01*
X0075274Y0129635D01*
X0075274Y0121968D01*
X0075912Y0120428D01*
X0077091Y0119249D01*
X0078631Y0118611D01*
X0080299Y0118611D01*
X0081839Y0119249D01*
X0083018Y0120428D01*
X0083656Y0121968D01*
X0083656Y0129635D01*
X0083018Y0131175D01*
X0081839Y0132354D01*
X0080299Y0132992D01*
X0078185Y0132807D02*
X0028693Y0132807D01*
X0028693Y0131628D02*
X0076365Y0131628D01*
X0075611Y0130448D02*
X0028693Y0130448D01*
X0028693Y0129268D02*
X0075274Y0129268D01*
X0075274Y0128089D02*
X0028693Y0128089D01*
X0028693Y0126909D02*
X0075274Y0126909D01*
X0075274Y0125730D02*
X0052670Y0125730D01*
X0052703Y0125696D02*
X0052005Y0126394D01*
X0047082Y0126394D01*
X0046385Y0125696D01*
X0046385Y0125507D01*
X0046302Y0125817D01*
X0046092Y0126180D01*
X0045796Y0126476D01*
X0045433Y0126685D01*
X0045029Y0126794D01*
X0043245Y0126794D01*
X0043245Y0123432D01*
X0042457Y0123432D01*
X0042457Y0126794D01*
X0040673Y0126794D01*
X0040268Y0126685D01*
X0039906Y0126476D01*
X0039610Y0126180D01*
X0039400Y0125817D01*
X0039292Y0125413D01*
X0039292Y0123432D01*
X0042457Y0123432D01*
X0042457Y0122644D01*
X0039292Y0122644D01*
X0039292Y0120663D01*
X0039400Y0120259D01*
X0039610Y0119896D01*
X0039906Y0119600D01*
X0040268Y0119390D01*
X0040673Y0119282D01*
X0042457Y0119282D01*
X0042457Y0122644D01*
X0043245Y0122644D01*
X0043245Y0119282D01*
X0045029Y0119282D01*
X0045433Y0119390D01*
X0045796Y0119600D01*
X0046092Y0119896D01*
X0046302Y0120259D01*
X0046385Y0120569D01*
X0046385Y0120379D01*
X0047082Y0119682D01*
X0047763Y0119682D01*
X0047763Y0116866D01*
X0045901Y0116866D01*
X0045204Y0116169D01*
X0045204Y0111245D01*
X0045725Y0110724D01*
X0045421Y0110724D01*
X0044821Y0111324D01*
X0042849Y0111324D01*
X0041454Y0109930D01*
X0041454Y0107957D01*
X0042849Y0106562D01*
X0044821Y0106562D01*
X0045204Y0106944D01*
X0045204Y0105941D01*
X0044082Y0104819D01*
X0043038Y0103776D01*
X0043038Y0100961D01*
X0042003Y0100961D01*
X0041306Y0100263D01*
X0041306Y0094946D01*
X0042003Y0094249D01*
X0046927Y0094249D01*
X0047624Y0094946D01*
X0047624Y0100263D01*
X0046927Y0100961D01*
X0046600Y0100961D01*
X0046600Y0102300D01*
X0048156Y0103855D01*
X0051218Y0103855D01*
X0051915Y0104553D01*
X0051915Y0109476D01*
X0051218Y0110173D01*
X0047919Y0110173D01*
X0047545Y0110548D01*
X0051218Y0110548D01*
X0051915Y0111245D01*
X0051915Y0111926D01*
X0053274Y0111926D01*
X0053274Y0110458D01*
X0053972Y0109761D01*
X0058895Y0109761D01*
X0059593Y0110458D01*
X0059593Y0116956D01*
X0058895Y0117654D01*
X0058411Y0117654D01*
X0058411Y0118184D01*
X0059011Y0118784D01*
X0059011Y0120756D01*
X0057617Y0122151D01*
X0055644Y0122151D01*
X0054249Y0120756D01*
X0054249Y0118784D01*
X0054849Y0118184D01*
X0054849Y0117654D01*
X0053972Y0117654D01*
X0053274Y0116956D01*
X0053274Y0115488D01*
X0051915Y0115488D01*
X0051915Y0116169D01*
X0051325Y0116759D01*
X0051325Y0119682D01*
X0052005Y0119682D01*
X0052703Y0120379D01*
X0052703Y0125696D01*
X0052703Y0124550D02*
X0075274Y0124550D01*
X0075274Y0123370D02*
X0052703Y0123370D01*
X0052703Y0122191D02*
X0075274Y0122191D01*
X0075671Y0121011D02*
X0058757Y0121011D01*
X0059011Y0119831D02*
X0076509Y0119831D01*
X0078533Y0118652D02*
X0058880Y0118652D01*
X0059076Y0117472D02*
X0060705Y0117472D01*
X0060673Y0117440D02*
X0060463Y0117077D01*
X0060355Y0116672D01*
X0060355Y0114101D01*
X0063520Y0114101D01*
X0063520Y0118054D01*
X0061736Y0118054D01*
X0061331Y0117945D01*
X0060969Y0117736D01*
X0060673Y0117440D01*
X0060355Y0116293D02*
X0059593Y0116293D01*
X0059593Y0115113D02*
X0060355Y0115113D01*
X0059593Y0113933D02*
X0063520Y0113933D01*
X0063520Y0114101D02*
X0063520Y0113313D01*
X0064308Y0113313D01*
X0064308Y0114101D01*
X0067473Y0114101D01*
X0067473Y0116672D01*
X0067365Y0117077D01*
X0067155Y0117440D01*
X0066859Y0117736D01*
X0066496Y0117945D01*
X0066092Y0118054D01*
X0064308Y0118054D01*
X0064308Y0114101D01*
X0063520Y0114101D01*
X0063520Y0113313D02*
X0060355Y0113313D01*
X0060355Y0110742D01*
X0060463Y0110337D01*
X0060673Y0109975D01*
X0060969Y0109678D01*
X0061331Y0109469D01*
X0061736Y0109361D01*
X0063520Y0109361D01*
X0063520Y0113313D01*
X0063520Y0112754D02*
X0064308Y0112754D01*
X0064308Y0113313D02*
X0064308Y0109361D01*
X0066092Y0109361D01*
X0066496Y0109469D01*
X0066859Y0109678D01*
X0067155Y0109975D01*
X0067365Y0110337D01*
X0067473Y0110742D01*
X0067473Y0113313D01*
X0064308Y0113313D01*
X0064308Y0113933D02*
X0121245Y0113933D01*
X0121178Y0113867D02*
X0121178Y0111894D01*
X0122573Y0110499D01*
X0124546Y0110499D01*
X0125146Y0111099D01*
X0155438Y0111099D01*
X0156038Y0110499D01*
X0158010Y0110499D01*
X0159405Y0111894D01*
X0159405Y0113867D01*
X0158010Y0115261D01*
X0156038Y0115261D01*
X0155438Y0114661D01*
X0125146Y0114661D01*
X0124546Y0115261D01*
X0122573Y0115261D01*
X0121178Y0113867D01*
X0121178Y0112754D02*
X0067473Y0112754D01*
X0067473Y0111574D02*
X0121498Y0111574D01*
X0120609Y0111324D02*
X0118636Y0111324D01*
X0117241Y0109930D01*
X0117241Y0107957D01*
X0117841Y0107357D01*
X0117841Y0085923D01*
X0117241Y0085323D01*
X0117241Y0083351D01*
X0118636Y0081956D01*
X0120609Y0081956D01*
X0122004Y0083351D01*
X0122004Y0085323D01*
X0121404Y0085923D01*
X0121404Y0107357D01*
X0122004Y0107957D01*
X0122004Y0109930D01*
X0120609Y0111324D01*
X0121539Y0110395D02*
X0242641Y0110395D01*
X0241461Y0111574D02*
X0159085Y0111574D01*
X0159405Y0112754D02*
X0240281Y0112754D01*
X0237424Y0113933D02*
X0159338Y0113933D01*
X0158159Y0115113D02*
X0236004Y0115113D01*
X0235558Y0116293D02*
X0067473Y0116293D01*
X0067473Y0115113D02*
X0122425Y0115113D01*
X0124694Y0115113D02*
X0155889Y0115113D01*
X0157024Y0112880D02*
X0123560Y0112880D01*
X0117706Y0110395D02*
X0067380Y0110395D01*
X0064308Y0110395D02*
X0063520Y0110395D01*
X0063520Y0111574D02*
X0064308Y0111574D01*
X0062635Y0108992D02*
X0057712Y0108992D01*
X0057015Y0108295D01*
X0057015Y0101797D01*
X0057712Y0101099D01*
X0058393Y0101099D01*
X0058393Y0100685D01*
X0058381Y0100685D01*
X0057684Y0099988D01*
X0057684Y0099386D01*
X0054317Y0099386D01*
X0054317Y0100263D01*
X0053620Y0100961D01*
X0048696Y0100961D01*
X0047999Y0100263D01*
X0047999Y0094946D01*
X0048696Y0094249D01*
X0053620Y0094249D01*
X0054317Y0094946D01*
X0054317Y0095824D01*
X0057684Y0095824D01*
X0057684Y0094671D01*
X0058381Y0093973D01*
X0059062Y0093973D01*
X0059062Y0093166D01*
X0060755Y0091473D01*
X0061798Y0090430D01*
X0069808Y0090430D01*
X0070408Y0089830D01*
X0072380Y0089830D01*
X0073775Y0091225D01*
X0073775Y0093197D01*
X0072380Y0094592D01*
X0070998Y0094592D01*
X0071095Y0094954D01*
X0071095Y0096935D01*
X0067930Y0096935D01*
X0067930Y0097723D01*
X0071095Y0097723D01*
X0071095Y0099704D01*
X0070987Y0100108D01*
X0070777Y0100471D01*
X0070481Y0100767D01*
X0070118Y0100977D01*
X0069714Y0101085D01*
X0067930Y0101085D01*
X0067930Y0097723D01*
X0067142Y0097723D01*
X0067142Y0101085D01*
X0065358Y0101085D01*
X0064953Y0100977D01*
X0064591Y0100767D01*
X0064295Y0100471D01*
X0064085Y0100108D01*
X0064002Y0099798D01*
X0064002Y0099988D01*
X0063305Y0100685D01*
X0061955Y0100685D01*
X0061955Y0101099D01*
X0062635Y0101099D01*
X0063333Y0101797D01*
X0063333Y0108295D01*
X0062635Y0108992D01*
X0063333Y0108035D02*
X0117241Y0108035D01*
X0117241Y0109215D02*
X0051915Y0109215D01*
X0051915Y0108035D02*
X0057015Y0108035D01*
X0057015Y0106856D02*
X0051915Y0106856D01*
X0051915Y0105676D02*
X0057015Y0105676D01*
X0057015Y0104497D02*
X0051859Y0104497D01*
X0048560Y0106778D02*
X0044819Y0103038D01*
X0044819Y0097959D01*
X0044465Y0097605D01*
X0041306Y0097419D02*
X0028693Y0097419D01*
X0028693Y0098598D02*
X0041306Y0098598D01*
X0041306Y0099778D02*
X0028693Y0099778D01*
X0028693Y0100958D02*
X0042000Y0100958D01*
X0043038Y0102137D02*
X0028693Y0102137D01*
X0028693Y0103317D02*
X0043038Y0103317D01*
X0043759Y0104497D02*
X0028693Y0104497D01*
X0028693Y0105676D02*
X0044939Y0105676D01*
X0045115Y0106856D02*
X0045204Y0106856D01*
X0043835Y0108943D02*
X0046630Y0108943D01*
X0048560Y0107014D01*
X0048560Y0106778D01*
X0047617Y0103317D02*
X0057015Y0103317D01*
X0057015Y0102137D02*
X0046600Y0102137D01*
X0046930Y0100958D02*
X0048693Y0100958D01*
X0047999Y0099778D02*
X0047624Y0099778D01*
X0047624Y0098598D02*
X0047999Y0098598D01*
X0047999Y0097419D02*
X0047624Y0097419D01*
X0047624Y0096239D02*
X0047999Y0096239D01*
X0047999Y0095060D02*
X0047624Y0095060D01*
X0051158Y0097605D02*
X0060567Y0097605D01*
X0060843Y0097329D01*
X0060843Y0093904D01*
X0062536Y0092211D01*
X0071394Y0092211D01*
X0073093Y0093880D02*
X0117841Y0093880D01*
X0117841Y0092700D02*
X0073775Y0092700D01*
X0073775Y0091521D02*
X0117841Y0091521D01*
X0117841Y0090341D02*
X0072892Y0090341D01*
X0069897Y0090341D02*
X0028693Y0090341D01*
X0028693Y0089162D02*
X0117841Y0089162D01*
X0117841Y0087982D02*
X0053961Y0087982D01*
X0054160Y0086802D02*
X0117841Y0086802D01*
X0117541Y0085623D02*
X0072492Y0085623D01*
X0079676Y0085130D02*
X0079676Y0082040D01*
X0079676Y0082040D01*
X0079676Y0085130D01*
X0079676Y0084443D02*
X0079676Y0084443D01*
X0079676Y0083263D02*
X0079676Y0083263D01*
X0079676Y0082084D02*
X0079676Y0082084D01*
X0079676Y0080904D02*
X0079676Y0080904D01*
X0079676Y0079725D02*
X0079676Y0079725D01*
X0079676Y0078545D02*
X0079676Y0078545D01*
X0079676Y0077365D02*
X0079676Y0077365D01*
X0079676Y0076186D02*
X0079676Y0076186D01*
X0081267Y0076186D02*
X0081285Y0076186D01*
X0082876Y0076186D02*
X0082876Y0076186D01*
X0082876Y0077365D02*
X0082876Y0077365D01*
X0082876Y0078545D02*
X0082876Y0078545D01*
X0082876Y0079725D02*
X0082876Y0079725D01*
X0082876Y0080904D02*
X0082876Y0080904D01*
X0082876Y0082040D02*
X0082876Y0085130D01*
X0082876Y0082040D01*
X0082876Y0082040D01*
X0082876Y0082084D02*
X0082876Y0082084D01*
X0082876Y0083263D02*
X0082876Y0083263D01*
X0082876Y0084443D02*
X0082876Y0084443D01*
X0084842Y0084443D02*
X0117241Y0084443D01*
X0117329Y0083263D02*
X0085714Y0083263D01*
X0085967Y0082084D02*
X0118508Y0082084D01*
X0120737Y0082084D02*
X0123430Y0082084D01*
X0123557Y0081956D02*
X0125530Y0081956D01*
X0126925Y0083351D01*
X0126925Y0085323D01*
X0126325Y0085923D01*
X0126325Y0104404D01*
X0126925Y0105004D01*
X0126925Y0106977D01*
X0125530Y0108372D01*
X0123557Y0108372D01*
X0122163Y0106977D01*
X0122163Y0105004D01*
X0122763Y0104404D01*
X0122763Y0085923D01*
X0122163Y0085323D01*
X0122163Y0083351D01*
X0123557Y0081956D01*
X0122250Y0083263D02*
X0121916Y0083263D01*
X0122004Y0084443D02*
X0122163Y0084443D01*
X0122462Y0085623D02*
X0121704Y0085623D01*
X0121404Y0086802D02*
X0122763Y0086802D01*
X0122763Y0087982D02*
X0121404Y0087982D01*
X0121404Y0089162D02*
X0122763Y0089162D01*
X0122763Y0090341D02*
X0121404Y0090341D01*
X0121404Y0091521D02*
X0122763Y0091521D01*
X0122763Y0092700D02*
X0121404Y0092700D01*
X0121404Y0093880D02*
X0122763Y0093880D01*
X0122763Y0095060D02*
X0121404Y0095060D01*
X0121404Y0096239D02*
X0122763Y0096239D01*
X0122763Y0097419D02*
X0121404Y0097419D01*
X0121404Y0098598D02*
X0122763Y0098598D01*
X0122763Y0099778D02*
X0121404Y0099778D01*
X0121404Y0100958D02*
X0122763Y0100958D01*
X0122763Y0102137D02*
X0121404Y0102137D01*
X0121404Y0103317D02*
X0122763Y0103317D01*
X0122670Y0104497D02*
X0121404Y0104497D01*
X0121404Y0105676D02*
X0122163Y0105676D01*
X0122163Y0106856D02*
X0121404Y0106856D01*
X0122004Y0108035D02*
X0123221Y0108035D01*
X0122004Y0109215D02*
X0243820Y0109215D01*
X0245000Y0108035D02*
X0125866Y0108035D01*
X0126925Y0106856D02*
X0246180Y0106856D01*
X0247359Y0105676D02*
X0131178Y0105676D01*
X0131846Y0105008D02*
X0130451Y0106403D01*
X0128479Y0106403D01*
X0127084Y0105008D01*
X0127084Y0103036D01*
X0127684Y0102436D01*
X0127684Y0085923D01*
X0127084Y0085323D01*
X0127084Y0083351D01*
X0128479Y0081956D01*
X0130451Y0081956D01*
X0131846Y0083351D01*
X0131846Y0085323D01*
X0131246Y0085923D01*
X0131246Y0102436D01*
X0131846Y0103036D01*
X0131846Y0105008D01*
X0131846Y0104497D02*
X0248539Y0104497D01*
X0251576Y0110395D02*
X0301646Y0110395D01*
X0302825Y0111574D02*
X0250396Y0111574D01*
X0249217Y0112754D02*
X0265033Y0112754D01*
X0264362Y0113933D02*
X0248037Y0113933D01*
X0246857Y0115113D02*
X0264362Y0115113D01*
X0264362Y0116293D02*
X0245678Y0116293D01*
X0245808Y0117472D02*
X0264362Y0117472D01*
X0264362Y0118652D02*
X0246988Y0118652D01*
X0248167Y0119831D02*
X0264362Y0119831D01*
X0264362Y0121011D02*
X0249347Y0121011D01*
X0250526Y0122191D02*
X0264362Y0122191D01*
X0264362Y0123370D02*
X0251706Y0123370D01*
X0252886Y0124550D02*
X0264362Y0124550D01*
X0264362Y0125730D02*
X0254065Y0125730D01*
X0255245Y0126909D02*
X0264362Y0126909D01*
X0264840Y0128089D02*
X0256425Y0128089D01*
X0257604Y0129268D02*
X0268393Y0129268D01*
X0268393Y0130448D02*
X0258784Y0130448D01*
X0259857Y0131628D02*
X0268393Y0131628D01*
X0268393Y0132807D02*
X0260262Y0132807D01*
X0253387Y0133987D02*
X0202112Y0133987D01*
X0202112Y0135166D02*
X0253487Y0135166D01*
X0252960Y0136346D02*
X0202112Y0136346D01*
X0202112Y0137526D02*
X0252960Y0137526D01*
X0252960Y0138705D02*
X0202112Y0138705D01*
X0202112Y0139885D02*
X0252960Y0139885D01*
X0252960Y0141065D02*
X0202112Y0141065D01*
X0202112Y0142244D02*
X0213860Y0142244D01*
X0214109Y0141995D02*
X0216081Y0141995D01*
X0216681Y0142595D01*
X0225320Y0142595D01*
X0225920Y0141995D01*
X0227892Y0141995D01*
X0229287Y0143390D01*
X0229287Y0145363D01*
X0227892Y0146758D01*
X0225920Y0146758D01*
X0225320Y0146158D01*
X0216681Y0146158D01*
X0216081Y0146758D01*
X0214109Y0146758D01*
X0212714Y0145363D01*
X0212714Y0143390D01*
X0214109Y0141995D01*
X0212714Y0143424D02*
X0202112Y0143424D01*
X0202112Y0144603D02*
X0212714Y0144603D01*
X0213134Y0145783D02*
X0202152Y0145783D01*
X0202712Y0146963D02*
X0252560Y0146963D01*
X0252560Y0146817D02*
X0252560Y0148995D01*
X0252668Y0149400D01*
X0252877Y0149762D01*
X0253173Y0150059D01*
X0253536Y0150268D01*
X0253941Y0150376D01*
X0256512Y0150376D01*
X0256512Y0146817D01*
X0252560Y0146817D01*
X0252560Y0148142D02*
X0202712Y0148142D01*
X0201706Y0149322D02*
X0252647Y0149322D01*
X0256512Y0149322D02*
X0257693Y0149322D01*
X0257693Y0150376D02*
X0257693Y0146817D01*
X0261646Y0146817D01*
X0261646Y0148995D01*
X0261538Y0149400D01*
X0261328Y0149762D01*
X0261032Y0150059D01*
X0260670Y0150268D01*
X0260265Y0150376D01*
X0257693Y0150376D01*
X0257693Y0148142D02*
X0256512Y0148142D01*
X0256512Y0146963D02*
X0257693Y0146963D01*
X0257693Y0145783D02*
X0268452Y0145783D01*
X0268452Y0144603D02*
X0261646Y0144603D01*
X0261637Y0143424D02*
X0268452Y0143424D01*
X0268452Y0142244D02*
X0260801Y0142244D01*
X0256512Y0145783D02*
X0228867Y0145783D01*
X0229287Y0144603D02*
X0252560Y0144603D01*
X0252569Y0143424D02*
X0229287Y0143424D01*
X0228141Y0142244D02*
X0253405Y0142244D01*
X0261646Y0146963D02*
X0265597Y0146963D01*
X0265597Y0148142D02*
X0261646Y0148142D01*
X0261559Y0149322D02*
X0265597Y0149322D01*
X0267260Y0150282D02*
X0267260Y0166030D01*
X0264879Y0165836D02*
X0263736Y0165836D01*
X0263349Y0164657D02*
X0265266Y0164657D01*
X0265479Y0163477D02*
X0261321Y0163477D01*
X0260141Y0162298D02*
X0265479Y0162298D01*
X0265479Y0161118D02*
X0258962Y0161118D01*
X0257782Y0159938D02*
X0265479Y0159938D01*
X0265479Y0158759D02*
X0256602Y0158759D01*
X0255423Y0157579D02*
X0265479Y0157579D01*
X0265479Y0156400D02*
X0254243Y0156400D01*
X0252497Y0157172D02*
X0261355Y0166030D01*
X0262556Y0168196D02*
X0266059Y0168196D01*
X0268462Y0168196D02*
X0337920Y0168196D01*
X0337920Y0164657D02*
X0269255Y0164657D01*
X0269041Y0163477D02*
X0337920Y0163477D01*
X0337920Y0162298D02*
X0269041Y0162298D01*
X0269041Y0161118D02*
X0337920Y0161118D01*
X0337920Y0159938D02*
X0269041Y0159938D01*
X0269041Y0158759D02*
X0337920Y0158759D01*
X0337920Y0157579D02*
X0331360Y0157579D01*
X0332539Y0156400D02*
X0337920Y0156400D01*
X0337920Y0155220D02*
X0333719Y0155220D01*
X0334830Y0154040D02*
X0337920Y0154040D01*
X0337920Y0152861D02*
X0335262Y0152861D01*
X0335262Y0151681D02*
X0337920Y0151681D01*
X0337920Y0150501D02*
X0335262Y0150501D01*
X0336194Y0149322D02*
X0337920Y0149322D01*
X0337920Y0148142D02*
X0336293Y0148142D01*
X0336293Y0146963D02*
X0337920Y0146963D01*
X0337920Y0145783D02*
X0336293Y0145783D01*
X0335262Y0144603D02*
X0337920Y0144603D01*
X0337920Y0143424D02*
X0335262Y0143424D01*
X0335262Y0142244D02*
X0337920Y0142244D01*
X0337920Y0141065D02*
X0335262Y0141065D01*
X0335631Y0139885D02*
X0337920Y0139885D01*
X0337920Y0138705D02*
X0336293Y0138705D01*
X0336293Y0137526D02*
X0337920Y0137526D01*
X0337920Y0136346D02*
X0336293Y0136346D01*
X0335709Y0135166D02*
X0337920Y0135166D01*
X0337920Y0133987D02*
X0335262Y0133987D01*
X0335262Y0132807D02*
X0337920Y0132807D01*
X0337920Y0131628D02*
X0335262Y0131628D01*
X0335262Y0130448D02*
X0337920Y0130448D01*
X0337920Y0129268D02*
X0336247Y0129268D01*
X0336293Y0128089D02*
X0337920Y0128089D01*
X0337920Y0126909D02*
X0336293Y0126909D01*
X0336272Y0125730D02*
X0337920Y0125730D01*
X0337920Y0124550D02*
X0335092Y0124550D01*
X0333913Y0123370D02*
X0337920Y0123370D01*
X0337920Y0122191D02*
X0317663Y0122191D01*
X0317663Y0123370D02*
X0320293Y0123370D01*
X0320367Y0123296D02*
X0323839Y0123296D01*
X0326293Y0125751D01*
X0326293Y0129222D01*
X0323839Y0131677D01*
X0320367Y0131677D01*
X0317912Y0129222D01*
X0317912Y0125751D01*
X0320367Y0123296D01*
X0320367Y0121677D02*
X0317912Y0119222D01*
X0317912Y0115751D01*
X0320367Y0113296D01*
X0323839Y0113296D01*
X0326293Y0115751D01*
X0326293Y0119222D01*
X0323839Y0121677D01*
X0320367Y0121677D01*
X0319701Y0121011D02*
X0317663Y0121011D01*
X0317663Y0119831D02*
X0318521Y0119831D01*
X0317912Y0118652D02*
X0317663Y0118652D01*
X0317912Y0117472D02*
X0317380Y0117472D01*
X0317912Y0116293D02*
X0316479Y0116293D01*
X0315299Y0115113D02*
X0318550Y0115113D01*
X0319730Y0113933D02*
X0314120Y0113933D01*
X0312940Y0112754D02*
X0337920Y0112754D01*
X0337920Y0113933D02*
X0335042Y0113933D01*
X0334004Y0112896D02*
X0336693Y0115585D01*
X0336693Y0117077D01*
X0332512Y0117077D01*
X0332512Y0112896D01*
X0334004Y0112896D01*
X0334004Y0112077D02*
X0332512Y0112077D01*
X0332512Y0107896D01*
X0331693Y0107896D01*
X0331693Y0107077D01*
X0327512Y0107077D01*
X0327512Y0105585D01*
X0330201Y0102896D01*
X0331693Y0102896D01*
X0331693Y0107077D01*
X0332512Y0107077D01*
X0332512Y0102896D01*
X0334004Y0102896D01*
X0336693Y0105585D01*
X0336693Y0107077D01*
X0332512Y0107077D01*
X0332512Y0107896D01*
X0336693Y0107896D01*
X0336693Y0109388D01*
X0334004Y0112077D01*
X0334507Y0111574D02*
X0337920Y0111574D01*
X0337920Y0110395D02*
X0335687Y0110395D01*
X0336693Y0109215D02*
X0337920Y0109215D01*
X0337920Y0108035D02*
X0336693Y0108035D01*
X0336693Y0106856D02*
X0337920Y0106856D01*
X0337920Y0105676D02*
X0336693Y0105676D01*
X0335605Y0104497D02*
X0337920Y0104497D01*
X0337920Y0103317D02*
X0334425Y0103317D01*
X0334004Y0102077D02*
X0332512Y0102077D01*
X0332512Y0097896D01*
X0331693Y0097896D01*
X0331693Y0097077D01*
X0327512Y0097077D01*
X0327512Y0095585D01*
X0330201Y0092896D01*
X0331693Y0092896D01*
X0331693Y0097077D01*
X0332512Y0097077D01*
X0332512Y0092896D01*
X0334004Y0092896D01*
X0336693Y0095585D01*
X0336693Y0097077D01*
X0332512Y0097077D01*
X0332512Y0097896D01*
X0336693Y0097896D01*
X0336693Y0099388D01*
X0334004Y0102077D01*
X0335124Y0100958D02*
X0337920Y0100958D01*
X0337920Y0102137D02*
X0231826Y0102137D01*
X0231922Y0101993D02*
X0231574Y0102514D01*
X0231131Y0102958D01*
X0230610Y0103306D01*
X0230031Y0103545D01*
X0229416Y0103668D01*
X0229103Y0103668D01*
X0229103Y0100487D01*
X0229103Y0100487D01*
X0232284Y0100487D01*
X0232284Y0100800D01*
X0232162Y0101415D01*
X0231922Y0101993D01*
X0232253Y0100958D02*
X0319648Y0100958D01*
X0320367Y0101677D02*
X0317912Y0099222D01*
X0317912Y0095751D01*
X0320367Y0093296D01*
X0323839Y0093296D01*
X0326293Y0095751D01*
X0326293Y0099222D01*
X0323839Y0101677D01*
X0320367Y0101677D01*
X0320367Y0103296D02*
X0323839Y0103296D01*
X0326293Y0105751D01*
X0326293Y0109222D01*
X0323839Y0111677D01*
X0320367Y0111677D01*
X0317912Y0109222D01*
X0317912Y0105751D01*
X0320367Y0103296D01*
X0320346Y0103317D02*
X0230583Y0103317D01*
X0229103Y0103317D02*
X0229103Y0103317D01*
X0229103Y0103668D02*
X0228790Y0103668D01*
X0228175Y0103545D01*
X0227596Y0103306D01*
X0227111Y0102982D01*
X0226614Y0103314D01*
X0226033Y0103555D01*
X0225417Y0103677D01*
X0225103Y0103677D01*
X0225103Y0100487D01*
X0225103Y0100487D01*
X0225103Y0103677D01*
X0224789Y0103677D01*
X0224172Y0103555D01*
X0223592Y0103314D01*
X0223069Y0102965D01*
X0222625Y0102520D01*
X0222275Y0101998D01*
X0222035Y0101417D01*
X0221912Y0100801D01*
X0221912Y0100487D01*
X0225103Y0100487D01*
X0225103Y0100487D01*
X0221912Y0100487D01*
X0221912Y0100172D01*
X0222035Y0099556D01*
X0222275Y0098975D01*
X0222625Y0098453D01*
X0223069Y0098008D01*
X0223592Y0097659D01*
X0223922Y0097522D01*
X0223922Y0097487D01*
X0224008Y0097487D01*
X0224008Y0097487D01*
X0223922Y0097487D01*
X0223922Y0097441D01*
X0223596Y0097306D01*
X0223075Y0096958D01*
X0222632Y0096514D01*
X0222284Y0095993D01*
X0222044Y0095415D01*
X0221922Y0094800D01*
X0221922Y0094487D01*
X0225103Y0094487D01*
X0225103Y0094487D01*
X0225103Y0091306D01*
X0225416Y0091306D01*
X0226031Y0091428D01*
X0226610Y0091668D01*
X0227103Y0091997D01*
X0227596Y0091668D01*
X0228175Y0091428D01*
X0228790Y0091306D01*
X0229103Y0091306D01*
X0229416Y0091306D01*
X0230031Y0091428D01*
X0230610Y0091668D01*
X0231131Y0092016D01*
X0231574Y0092459D01*
X0231922Y0092980D01*
X0232162Y0093559D01*
X0232284Y0094173D01*
X0232284Y0094487D01*
X0232284Y0094800D01*
X0232162Y0095415D01*
X0231922Y0095993D01*
X0231574Y0096514D01*
X0231131Y0096958D01*
X0230610Y0097306D01*
X0230284Y0097441D01*
X0230284Y0097487D01*
X0230284Y0097533D01*
X0230610Y0097668D01*
X0231131Y0098016D01*
X0231574Y0098459D01*
X0231922Y0098980D01*
X0232162Y0099559D01*
X0232284Y0100173D01*
X0232284Y0100487D01*
X0229103Y0100487D01*
X0229103Y0100487D01*
X0229103Y0103668D01*
X0227623Y0103317D02*
X0226607Y0103317D01*
X0225103Y0103317D02*
X0225103Y0103317D01*
X0225103Y0102137D02*
X0225103Y0102137D01*
X0225103Y0100958D02*
X0225103Y0100958D01*
X0223598Y0103317D02*
X0215231Y0103317D01*
X0215508Y0103040D02*
X0214113Y0104435D01*
X0212140Y0104435D01*
X0211540Y0103835D01*
X0210420Y0103835D01*
X0194672Y0088087D01*
X0190106Y0088087D01*
X0189506Y0088687D01*
X0187534Y0088687D01*
X0186139Y0087292D01*
X0186139Y0085319D01*
X0187534Y0083924D01*
X0189506Y0083924D01*
X0190106Y0084524D01*
X0196148Y0084524D01*
X0197191Y0085568D01*
X0211718Y0100095D01*
X0212140Y0099672D01*
X0214113Y0099672D01*
X0215508Y0101067D01*
X0215508Y0103040D01*
X0215508Y0102137D02*
X0222369Y0102137D01*
X0221943Y0100958D02*
X0215398Y0100958D01*
X0214218Y0099778D02*
X0221991Y0099778D01*
X0222527Y0098598D02*
X0210222Y0098598D01*
X0209042Y0097419D02*
X0223869Y0097419D01*
X0222448Y0096239D02*
X0207862Y0096239D01*
X0206683Y0095060D02*
X0221973Y0095060D01*
X0221922Y0094487D02*
X0221922Y0094173D01*
X0222044Y0093559D01*
X0222284Y0092980D01*
X0222632Y0092459D01*
X0223075Y0092016D01*
X0223596Y0091668D01*
X0224175Y0091428D01*
X0224790Y0091306D01*
X0225103Y0091306D01*
X0225103Y0094487D01*
X0225103Y0094487D01*
X0221922Y0094487D01*
X0221980Y0093880D02*
X0205503Y0093880D01*
X0204324Y0092700D02*
X0222470Y0092700D01*
X0223950Y0091521D02*
X0203144Y0091521D01*
X0201964Y0090341D02*
X0319031Y0090341D01*
X0317912Y0089222D02*
X0317912Y0085751D01*
X0320367Y0083296D01*
X0323839Y0083296D01*
X0326293Y0085751D01*
X0326293Y0089222D01*
X0323839Y0091677D01*
X0320367Y0091677D01*
X0317912Y0089222D01*
X0317912Y0089162D02*
X0200785Y0089162D01*
X0199605Y0087982D02*
X0317912Y0087982D01*
X0317912Y0086802D02*
X0198426Y0086802D01*
X0197246Y0085623D02*
X0318040Y0085623D01*
X0319220Y0084443D02*
X0190025Y0084443D01*
X0188520Y0086306D02*
X0195410Y0086306D01*
X0211158Y0102054D01*
X0213126Y0102054D01*
X0212035Y0099778D02*
X0211401Y0099778D01*
X0208723Y0102137D02*
X0131246Y0102137D01*
X0131246Y0100958D02*
X0207543Y0100958D01*
X0206364Y0099778D02*
X0131246Y0099778D01*
X0131246Y0098598D02*
X0205184Y0098598D01*
X0204004Y0097419D02*
X0131246Y0097419D01*
X0131246Y0096239D02*
X0202825Y0096239D01*
X0201645Y0095060D02*
X0131246Y0095060D01*
X0131246Y0093880D02*
X0200466Y0093880D01*
X0199286Y0092700D02*
X0131246Y0092700D01*
X0131246Y0091521D02*
X0198106Y0091521D01*
X0196927Y0090341D02*
X0131246Y0090341D01*
X0131246Y0089162D02*
X0195747Y0089162D01*
X0186829Y0087982D02*
X0131246Y0087982D01*
X0131246Y0086802D02*
X0186139Y0086802D01*
X0186139Y0085623D02*
X0131547Y0085623D01*
X0131846Y0084443D02*
X0187015Y0084443D01*
X0156452Y0073827D02*
X0319837Y0073827D01*
X0318657Y0075006D02*
X0155943Y0075006D01*
X0154071Y0073510D02*
X0147182Y0073510D01*
X0137339Y0063668D01*
X0148166Y0064652D02*
X0151119Y0067605D01*
X0148166Y0064652D02*
X0148166Y0054809D01*
X0165973Y0067928D02*
X0194335Y0067928D01*
X0210174Y0067605D02*
X0223953Y0067605D01*
X0222621Y0065569D02*
X0211506Y0065569D01*
X0225103Y0091521D02*
X0225103Y0091521D01*
X0226255Y0091521D02*
X0227950Y0091521D01*
X0229103Y0091521D02*
X0229103Y0091521D01*
X0229103Y0091306D02*
X0229103Y0094487D01*
X0232284Y0094487D01*
X0229103Y0094487D01*
X0229103Y0094487D01*
X0229103Y0094487D01*
X0229103Y0091306D01*
X0230255Y0091521D02*
X0320211Y0091521D01*
X0319783Y0093880D02*
X0232226Y0093880D01*
X0232232Y0095060D02*
X0318604Y0095060D01*
X0317912Y0096239D02*
X0231758Y0096239D01*
X0230337Y0097419D02*
X0317912Y0097419D01*
X0317912Y0098598D02*
X0231667Y0098598D01*
X0232205Y0099778D02*
X0318468Y0099778D01*
X0323859Y0103317D02*
X0329781Y0103317D01*
X0330201Y0102077D02*
X0327512Y0099388D01*
X0327512Y0097896D01*
X0331693Y0097896D01*
X0331693Y0102077D01*
X0330201Y0102077D01*
X0329082Y0100958D02*
X0324558Y0100958D01*
X0325738Y0099778D02*
X0327902Y0099778D01*
X0327512Y0098598D02*
X0326293Y0098598D01*
X0326293Y0097419D02*
X0331693Y0097419D01*
X0332512Y0097419D02*
X0337920Y0097419D01*
X0337920Y0098598D02*
X0336693Y0098598D01*
X0336303Y0099778D02*
X0337920Y0099778D01*
X0341482Y0099778D02*
X0342063Y0099778D01*
X0342063Y0098598D02*
X0341482Y0098598D01*
X0341482Y0097419D02*
X0342063Y0097419D01*
X0342063Y0096239D02*
X0341482Y0096239D01*
X0341482Y0095060D02*
X0342063Y0095060D01*
X0342063Y0093880D02*
X0341482Y0093880D01*
X0341482Y0092700D02*
X0342063Y0092700D01*
X0342063Y0091521D02*
X0341482Y0091521D01*
X0341482Y0090341D02*
X0342063Y0090341D01*
X0342063Y0089162D02*
X0341482Y0089162D01*
X0341482Y0087982D02*
X0342063Y0087982D01*
X0342063Y0086802D02*
X0341482Y0086802D01*
X0341482Y0085623D02*
X0342063Y0085623D01*
X0342063Y0084443D02*
X0341482Y0084443D01*
X0341482Y0083263D02*
X0342063Y0083263D01*
X0342063Y0082084D02*
X0341482Y0082084D01*
X0341482Y0080904D02*
X0342063Y0080904D01*
X0342063Y0079725D02*
X0341482Y0079725D01*
X0337920Y0079725D02*
X0336357Y0079725D01*
X0336693Y0079388D02*
X0334004Y0082077D01*
X0332512Y0082077D01*
X0332512Y0077896D01*
X0336693Y0077896D01*
X0336693Y0079388D01*
X0336693Y0078545D02*
X0337920Y0078545D01*
X0337920Y0077365D02*
X0332512Y0077365D01*
X0331693Y0077365D02*
X0326293Y0077365D01*
X0326293Y0076186D02*
X0327512Y0076186D01*
X0328091Y0075006D02*
X0325549Y0075006D01*
X0325565Y0073827D02*
X0329271Y0073827D01*
X0334935Y0073827D02*
X0334940Y0073827D01*
X0336114Y0075006D02*
X0336119Y0075006D01*
X0336693Y0076186D02*
X0337299Y0076186D01*
X0332512Y0078545D02*
X0331693Y0078545D01*
X0331693Y0077896D02*
X0331693Y0082077D01*
X0330201Y0082077D01*
X0327512Y0079388D01*
X0327512Y0077896D01*
X0331693Y0077896D01*
X0331693Y0079725D02*
X0332512Y0079725D01*
X0332512Y0080904D02*
X0331693Y0080904D01*
X0331693Y0082896D02*
X0331693Y0087077D01*
X0327512Y0087077D01*
X0327512Y0085585D01*
X0330201Y0082896D01*
X0331693Y0082896D01*
X0331693Y0083263D02*
X0332512Y0083263D01*
X0332512Y0082896D02*
X0334004Y0082896D01*
X0336693Y0085585D01*
X0336693Y0087077D01*
X0332512Y0087077D01*
X0332512Y0082896D01*
X0332512Y0084443D02*
X0331693Y0084443D01*
X0331693Y0085623D02*
X0332512Y0085623D01*
X0332512Y0086802D02*
X0331693Y0086802D01*
X0331693Y0087077D02*
X0332512Y0087077D01*
X0332512Y0087896D01*
X0331693Y0087896D01*
X0331693Y0087077D01*
X0331693Y0087896D02*
X0327512Y0087896D01*
X0327512Y0089388D01*
X0330201Y0092077D01*
X0331693Y0092077D01*
X0331693Y0087896D01*
X0331693Y0087982D02*
X0332512Y0087982D01*
X0332512Y0087896D02*
X0332512Y0092077D01*
X0334004Y0092077D01*
X0336693Y0089388D01*
X0336693Y0087896D01*
X0332512Y0087896D01*
X0332512Y0089162D02*
X0331693Y0089162D01*
X0331693Y0090341D02*
X0332512Y0090341D01*
X0332512Y0091521D02*
X0331693Y0091521D01*
X0329645Y0091521D02*
X0323995Y0091521D01*
X0325175Y0090341D02*
X0328465Y0090341D01*
X0327512Y0089162D02*
X0326293Y0089162D01*
X0326293Y0087982D02*
X0327512Y0087982D01*
X0327512Y0086802D02*
X0326293Y0086802D01*
X0326165Y0085623D02*
X0327512Y0085623D01*
X0328654Y0084443D02*
X0324986Y0084443D01*
X0329834Y0083263D02*
X0131759Y0083263D01*
X0130579Y0082084D02*
X0337920Y0082084D01*
X0337920Y0083263D02*
X0334372Y0083263D01*
X0335551Y0084443D02*
X0337920Y0084443D01*
X0337920Y0085623D02*
X0336693Y0085623D01*
X0336693Y0086802D02*
X0337920Y0086802D01*
X0337920Y0087982D02*
X0336693Y0087982D01*
X0336693Y0089162D02*
X0337920Y0089162D01*
X0337920Y0090341D02*
X0335740Y0090341D01*
X0334561Y0091521D02*
X0337920Y0091521D01*
X0337920Y0092700D02*
X0231735Y0092700D01*
X0229103Y0092700D02*
X0229103Y0092700D01*
X0229103Y0093880D02*
X0229103Y0093880D01*
X0225103Y0093880D02*
X0225103Y0093880D01*
X0225103Y0092700D02*
X0225103Y0092700D01*
X0230173Y0097487D02*
X0230173Y0097487D01*
X0230284Y0097487D01*
X0230173Y0097487D01*
X0230173Y0097487D01*
X0229103Y0100958D02*
X0229103Y0100958D01*
X0229103Y0102137D02*
X0229103Y0102137D01*
X0209902Y0103317D02*
X0131846Y0103317D01*
X0129465Y0104022D02*
X0129465Y0084337D01*
X0127084Y0084443D02*
X0126925Y0084443D01*
X0126838Y0083263D02*
X0127171Y0083263D01*
X0128351Y0082084D02*
X0125658Y0082084D01*
X0124544Y0084337D02*
X0124544Y0105991D01*
X0126417Y0104497D02*
X0127084Y0104497D01*
X0127084Y0103317D02*
X0126325Y0103317D01*
X0126325Y0102137D02*
X0127684Y0102137D01*
X0127684Y0100958D02*
X0126325Y0100958D01*
X0126325Y0099778D02*
X0127684Y0099778D01*
X0127684Y0098598D02*
X0126325Y0098598D01*
X0126325Y0097419D02*
X0127684Y0097419D01*
X0127684Y0096239D02*
X0126325Y0096239D01*
X0126325Y0095060D02*
X0127684Y0095060D01*
X0127684Y0093880D02*
X0126325Y0093880D01*
X0126325Y0092700D02*
X0127684Y0092700D01*
X0127684Y0091521D02*
X0126325Y0091521D01*
X0126325Y0090341D02*
X0127684Y0090341D01*
X0127684Y0089162D02*
X0126325Y0089162D01*
X0126325Y0087982D02*
X0127684Y0087982D01*
X0127684Y0086802D02*
X0126325Y0086802D01*
X0126626Y0085623D02*
X0127383Y0085623D01*
X0119623Y0084337D02*
X0119623Y0108943D01*
X0117841Y0106856D02*
X0063333Y0106856D01*
X0063333Y0105676D02*
X0117841Y0105676D01*
X0117841Y0104497D02*
X0063333Y0104497D01*
X0063333Y0103317D02*
X0117841Y0103317D01*
X0117841Y0102137D02*
X0063333Y0102137D01*
X0061955Y0100958D02*
X0064921Y0100958D01*
X0067142Y0100958D02*
X0067930Y0100958D01*
X0067930Y0099778D02*
X0067142Y0099778D01*
X0067142Y0098598D02*
X0067930Y0098598D01*
X0067930Y0097419D02*
X0117841Y0097419D01*
X0117841Y0098598D02*
X0071095Y0098598D01*
X0071075Y0099778D02*
X0117841Y0099778D01*
X0117841Y0100958D02*
X0070151Y0100958D01*
X0071095Y0096239D02*
X0117841Y0096239D01*
X0117841Y0095060D02*
X0071095Y0095060D01*
X0060843Y0097329D02*
X0060174Y0097998D01*
X0060174Y0105046D01*
X0058393Y0100958D02*
X0053623Y0100958D01*
X0054317Y0099778D02*
X0057684Y0099778D01*
X0057684Y0095060D02*
X0054317Y0095060D01*
X0059062Y0093880D02*
X0028693Y0093880D01*
X0028693Y0092700D02*
X0059528Y0092700D01*
X0060707Y0091521D02*
X0028693Y0091521D01*
X0028693Y0095060D02*
X0041306Y0095060D01*
X0041306Y0096239D02*
X0028693Y0096239D01*
X0028693Y0106856D02*
X0042555Y0106856D01*
X0041454Y0108035D02*
X0028693Y0108035D01*
X0028693Y0109215D02*
X0041454Y0109215D01*
X0041919Y0110395D02*
X0028693Y0110395D01*
X0028693Y0111574D02*
X0045204Y0111574D01*
X0045204Y0112754D02*
X0028693Y0112754D01*
X0028693Y0113933D02*
X0045204Y0113933D01*
X0045204Y0115113D02*
X0028693Y0115113D01*
X0028693Y0116293D02*
X0045328Y0116293D01*
X0047763Y0117472D02*
X0028693Y0117472D01*
X0028693Y0118652D02*
X0047763Y0118652D01*
X0046933Y0119831D02*
X0046028Y0119831D01*
X0043245Y0119831D02*
X0042457Y0119831D01*
X0042457Y0121011D02*
X0043245Y0121011D01*
X0043245Y0122191D02*
X0042457Y0122191D01*
X0042457Y0123370D02*
X0028693Y0123370D01*
X0028693Y0122191D02*
X0039292Y0122191D01*
X0039292Y0121011D02*
X0028693Y0121011D01*
X0028693Y0119831D02*
X0039674Y0119831D01*
X0039292Y0124550D02*
X0028693Y0124550D01*
X0028693Y0125730D02*
X0039377Y0125730D01*
X0042457Y0125730D02*
X0043245Y0125730D01*
X0043245Y0124550D02*
X0042457Y0124550D01*
X0046325Y0125730D02*
X0046418Y0125730D01*
X0049544Y0123038D02*
X0049544Y0114691D01*
X0048560Y0113707D01*
X0056434Y0113707D01*
X0056630Y0113904D01*
X0056630Y0119770D01*
X0054249Y0119831D02*
X0052155Y0119831D01*
X0052703Y0121011D02*
X0054504Y0121011D01*
X0054381Y0118652D02*
X0051325Y0118652D01*
X0051325Y0117472D02*
X0053791Y0117472D01*
X0053274Y0116293D02*
X0051792Y0116293D01*
X0051915Y0111574D02*
X0053274Y0111574D01*
X0053338Y0110395D02*
X0047698Y0110395D01*
X0059529Y0110395D02*
X0060448Y0110395D01*
X0060355Y0111574D02*
X0059593Y0111574D01*
X0059593Y0112754D02*
X0060355Y0112754D01*
X0063520Y0115113D02*
X0064308Y0115113D01*
X0064308Y0116293D02*
X0063520Y0116293D01*
X0063520Y0117472D02*
X0064308Y0117472D01*
X0067122Y0117472D02*
X0235569Y0117472D01*
X0236084Y0118652D02*
X0090397Y0118652D01*
X0088533Y0118652D02*
X0080397Y0118652D01*
X0082421Y0119831D02*
X0086509Y0119831D01*
X0085671Y0121011D02*
X0083259Y0121011D01*
X0083656Y0122191D02*
X0085274Y0122191D01*
X0085274Y0123370D02*
X0083656Y0123370D01*
X0083656Y0124550D02*
X0085274Y0124550D01*
X0085274Y0125730D02*
X0083656Y0125730D01*
X0083656Y0126909D02*
X0085274Y0126909D01*
X0085274Y0128089D02*
X0083656Y0128089D01*
X0083656Y0129268D02*
X0085274Y0129268D01*
X0085611Y0130448D02*
X0083319Y0130448D01*
X0082565Y0131628D02*
X0086365Y0131628D01*
X0092565Y0131628D02*
X0129852Y0131628D01*
X0131032Y0130448D02*
X0093319Y0130448D01*
X0093656Y0129268D02*
X0132212Y0129268D01*
X0131621Y0129859D02*
X0131621Y0129859D01*
X0135371Y0134534D02*
X0165882Y0134534D01*
X0164459Y0149322D02*
X0028693Y0149322D01*
X0028693Y0150501D02*
X0163501Y0150501D01*
X0163501Y0151681D02*
X0028693Y0151681D01*
X0028693Y0152861D02*
X0163708Y0152861D01*
X0163708Y0154040D02*
X0028693Y0154040D01*
X0028693Y0155220D02*
X0163708Y0155220D01*
X0163708Y0156400D02*
X0028693Y0156400D01*
X0028693Y0157579D02*
X0163708Y0157579D01*
X0158040Y0165798D02*
X0157540Y0166298D01*
X0156040Y0166298D01*
X0136040Y0185298D02*
X0135040Y0185298D01*
X0134040Y0186298D01*
X0130641Y0189429D02*
X0191660Y0189429D01*
X0191660Y0190608D02*
X0131820Y0190608D01*
X0131846Y0191788D02*
X0191660Y0191788D01*
X0191660Y0192968D02*
X0136284Y0192968D01*
X0137463Y0194147D02*
X0191660Y0194147D01*
X0191660Y0195327D02*
X0138643Y0195327D01*
X0139823Y0196506D02*
X0160582Y0196506D01*
X0161945Y0198510D02*
X0139308Y0198510D01*
X0135371Y0194573D01*
X0132418Y0194573D01*
X0129465Y0196542D02*
X0134386Y0201463D01*
X0189504Y0201463D01*
X0193441Y0197526D01*
X0193441Y0186699D01*
X0191624Y0188249D02*
X0128893Y0188249D01*
X0128281Y0187069D02*
X0191060Y0187069D01*
X0191060Y0185890D02*
X0109036Y0185890D01*
X0108224Y0187069D02*
X0124743Y0187069D01*
X0124131Y0188249D02*
X0107661Y0188249D01*
X0105843Y0186699D02*
X0068441Y0186699D01*
X0066867Y0185124D01*
X0066867Y0184140D01*
X0066473Y0183746D01*
X0064092Y0183531D02*
X0044553Y0183531D01*
X0044130Y0183107D02*
X0045309Y0184286D01*
X0045947Y0185826D01*
X0045947Y0187493D01*
X0045309Y0189034D01*
X0044130Y0190212D01*
X0042590Y0190850D01*
X0034923Y0190850D01*
X0033383Y0190212D01*
X0032204Y0189034D01*
X0031566Y0187493D01*
X0031566Y0185826D01*
X0032204Y0184286D01*
X0033383Y0183107D01*
X0034923Y0182469D01*
X0042590Y0182469D01*
X0044130Y0183107D01*
X0045485Y0184710D02*
X0064092Y0184710D01*
X0065113Y0185890D02*
X0045947Y0185890D01*
X0045947Y0187069D02*
X0066293Y0187069D01*
X0066129Y0186906D02*
X0066129Y0186906D01*
X0066660Y0187437D02*
X0066660Y0187437D01*
X0067472Y0188249D02*
X0045634Y0188249D01*
X0044914Y0189429D02*
X0054234Y0189429D01*
X0055367Y0188296D02*
X0058839Y0188296D01*
X0061293Y0190751D01*
X0061293Y0194222D01*
X0058839Y0196677D01*
X0055367Y0196677D01*
X0052912Y0194222D01*
X0052912Y0190751D01*
X0055367Y0188296D01*
X0053055Y0190608D02*
X0043174Y0190608D01*
X0042590Y0192469D02*
X0044130Y0193107D01*
X0045309Y0194286D01*
X0045947Y0195826D01*
X0045947Y0197493D01*
X0045309Y0199034D01*
X0044130Y0200212D01*
X0042590Y0200850D01*
X0034923Y0200850D01*
X0033383Y0200212D01*
X0032204Y0199034D01*
X0031566Y0197493D01*
X0031566Y0195826D01*
X0032204Y0194286D01*
X0033383Y0193107D01*
X0034923Y0192469D01*
X0042590Y0192469D01*
X0043793Y0192968D02*
X0052912Y0192968D01*
X0052912Y0194147D02*
X0045170Y0194147D01*
X0045740Y0195327D02*
X0054017Y0195327D01*
X0055196Y0196506D02*
X0045947Y0196506D01*
X0045867Y0197686D02*
X0125138Y0197686D01*
X0124731Y0196506D02*
X0089009Y0196506D01*
X0089004Y0197896D02*
X0087512Y0197896D01*
X0087512Y0202077D01*
X0086693Y0202077D01*
X0082512Y0202077D01*
X0082512Y0200585D01*
X0085201Y0197896D01*
X0086693Y0197896D01*
X0086693Y0202077D01*
X0086693Y0202896D01*
X0082512Y0202896D01*
X0082512Y0204388D01*
X0085201Y0207077D01*
X0086693Y0207077D01*
X0086693Y0202896D01*
X0087512Y0202896D01*
X0087512Y0207077D01*
X0089004Y0207077D01*
X0091693Y0204388D01*
X0091693Y0202896D01*
X0087512Y0202896D01*
X0087512Y0202077D01*
X0091693Y0202077D01*
X0091693Y0200585D01*
X0089004Y0197896D01*
X0089974Y0198866D02*
X0126317Y0198866D01*
X0127497Y0200045D02*
X0091153Y0200045D01*
X0091693Y0201225D02*
X0128677Y0201225D01*
X0129856Y0202404D02*
X0087512Y0202404D01*
X0086693Y0202404D02*
X0077512Y0202404D01*
X0077512Y0202077D02*
X0077512Y0202896D01*
X0076693Y0202896D01*
X0076693Y0202077D01*
X0072512Y0202077D01*
X0072512Y0200585D01*
X0075201Y0197896D01*
X0076693Y0197896D01*
X0076693Y0202077D01*
X0077512Y0202077D01*
X0077512Y0197896D01*
X0079004Y0197896D01*
X0081693Y0200585D01*
X0081693Y0202077D01*
X0077512Y0202077D01*
X0077512Y0202896D02*
X0081693Y0202896D01*
X0081693Y0204388D01*
X0079004Y0207077D01*
X0077512Y0207077D01*
X0077512Y0202896D01*
X0077512Y0203584D02*
X0076693Y0203584D01*
X0076693Y0202896D02*
X0076693Y0207077D01*
X0075201Y0207077D01*
X0072512Y0204388D01*
X0072512Y0202896D01*
X0076693Y0202896D01*
X0076693Y0202404D02*
X0067512Y0202404D01*
X0067512Y0202077D02*
X0067512Y0202896D01*
X0066693Y0202896D01*
X0066693Y0202077D01*
X0062512Y0202077D01*
X0062512Y0200585D01*
X0065201Y0197896D01*
X0066693Y0197896D01*
X0066693Y0202077D01*
X0067512Y0202077D01*
X0067512Y0197896D01*
X0069004Y0197896D01*
X0071693Y0200585D01*
X0071693Y0202077D01*
X0067512Y0202077D01*
X0067512Y0202896D02*
X0071693Y0202896D01*
X0071693Y0204388D01*
X0069004Y0207077D01*
X0067512Y0207077D01*
X0067512Y0202896D01*
X0067512Y0203584D02*
X0066693Y0203584D01*
X0066693Y0202896D02*
X0066693Y0207077D01*
X0065201Y0207077D01*
X0062512Y0204388D01*
X0062512Y0202896D01*
X0066693Y0202896D01*
X0066693Y0202404D02*
X0057512Y0202404D01*
X0057512Y0202077D02*
X0057512Y0202896D01*
X0056693Y0202896D01*
X0056693Y0202077D01*
X0052512Y0202077D01*
X0052512Y0200585D01*
X0055201Y0197896D01*
X0056693Y0197896D01*
X0056693Y0202077D01*
X0057512Y0202077D01*
X0057512Y0197896D01*
X0059004Y0197896D01*
X0061693Y0200585D01*
X0061693Y0202077D01*
X0057512Y0202077D01*
X0057512Y0202896D02*
X0061693Y0202896D01*
X0061693Y0204388D01*
X0059004Y0207077D01*
X0057512Y0207077D01*
X0057512Y0202896D01*
X0057512Y0203584D02*
X0056693Y0203584D01*
X0056693Y0202896D02*
X0056693Y0207077D01*
X0055201Y0207077D01*
X0052512Y0204388D01*
X0052512Y0202896D01*
X0056693Y0202896D01*
X0056693Y0202404D02*
X0028693Y0202404D01*
X0028693Y0201225D02*
X0052512Y0201225D01*
X0053052Y0200045D02*
X0044297Y0200045D01*
X0045379Y0198866D02*
X0054232Y0198866D01*
X0056693Y0198866D02*
X0057512Y0198866D01*
X0057512Y0200045D02*
X0056693Y0200045D01*
X0056693Y0201225D02*
X0057512Y0201225D01*
X0059974Y0198866D02*
X0064232Y0198866D01*
X0063052Y0200045D02*
X0061153Y0200045D01*
X0061693Y0201225D02*
X0062512Y0201225D01*
X0062512Y0203584D02*
X0061693Y0203584D01*
X0061318Y0204764D02*
X0062888Y0204764D01*
X0064067Y0205943D02*
X0060138Y0205943D01*
X0057512Y0205943D02*
X0056693Y0205943D01*
X0056693Y0204764D02*
X0057512Y0204764D01*
X0054067Y0205943D02*
X0028693Y0205943D01*
X0028693Y0204764D02*
X0052888Y0204764D01*
X0052512Y0203584D02*
X0028693Y0203584D01*
X0028693Y0207123D02*
X0276307Y0207123D01*
X0275127Y0205943D02*
X0090138Y0205943D01*
X0091318Y0204764D02*
X0132215Y0204764D01*
X0131036Y0203584D02*
X0091693Y0203584D01*
X0087512Y0203584D02*
X0086693Y0203584D01*
X0086693Y0204764D02*
X0087512Y0204764D01*
X0087512Y0205943D02*
X0086693Y0205943D01*
X0084067Y0205943D02*
X0080138Y0205943D01*
X0081318Y0204764D02*
X0082888Y0204764D01*
X0082512Y0203584D02*
X0081693Y0203584D01*
X0081693Y0201225D02*
X0082512Y0201225D01*
X0083052Y0200045D02*
X0081153Y0200045D01*
X0079974Y0198866D02*
X0084232Y0198866D01*
X0086693Y0198866D02*
X0087512Y0198866D01*
X0087512Y0200045D02*
X0086693Y0200045D01*
X0086693Y0201225D02*
X0087512Y0201225D01*
X0077512Y0201225D02*
X0076693Y0201225D01*
X0076693Y0200045D02*
X0077512Y0200045D01*
X0077512Y0198866D02*
X0076693Y0198866D01*
X0074232Y0198866D02*
X0069974Y0198866D01*
X0071153Y0200045D02*
X0073052Y0200045D01*
X0072512Y0201225D02*
X0071693Y0201225D01*
X0071693Y0203584D02*
X0072512Y0203584D01*
X0072888Y0204764D02*
X0071318Y0204764D01*
X0070138Y0205943D02*
X0074067Y0205943D01*
X0076693Y0205943D02*
X0077512Y0205943D01*
X0077512Y0204764D02*
X0076693Y0204764D01*
X0067512Y0204764D02*
X0066693Y0204764D01*
X0066693Y0205943D02*
X0067512Y0205943D01*
X0067512Y0201225D02*
X0066693Y0201225D01*
X0066693Y0200045D02*
X0067512Y0200045D01*
X0067512Y0198866D02*
X0066693Y0198866D01*
X0065196Y0196506D02*
X0059009Y0196506D01*
X0060189Y0195327D02*
X0064017Y0195327D01*
X0062912Y0194147D02*
X0061293Y0194147D01*
X0061293Y0192968D02*
X0062912Y0192968D01*
X0062912Y0191788D02*
X0061293Y0191788D01*
X0061151Y0190608D02*
X0063055Y0190608D01*
X0064234Y0189429D02*
X0059971Y0189429D01*
X0052912Y0191788D02*
X0028693Y0191788D01*
X0028693Y0192968D02*
X0033720Y0192968D01*
X0032343Y0194147D02*
X0028693Y0194147D01*
X0028693Y0195327D02*
X0031773Y0195327D01*
X0031566Y0196506D02*
X0028693Y0196506D01*
X0028693Y0197686D02*
X0031646Y0197686D01*
X0032134Y0198866D02*
X0028693Y0198866D01*
X0028693Y0200045D02*
X0033215Y0200045D01*
X0034338Y0190608D02*
X0028693Y0190608D01*
X0028693Y0189429D02*
X0032599Y0189429D01*
X0031879Y0188249D02*
X0028693Y0188249D01*
X0028693Y0187069D02*
X0031566Y0187069D01*
X0031566Y0185890D02*
X0028693Y0185890D01*
X0028693Y0184710D02*
X0032028Y0184710D01*
X0032959Y0183531D02*
X0028693Y0183531D01*
X0028693Y0182351D02*
X0064501Y0182351D01*
X0068445Y0182351D02*
X0068871Y0182351D01*
X0071103Y0183487D02*
X0106567Y0183487D01*
X0107812Y0183746D01*
X0110193Y0184710D02*
X0192063Y0184710D01*
X0191660Y0196506D02*
X0163309Y0196506D01*
X0164326Y0197686D02*
X0190763Y0197686D01*
X0189583Y0198866D02*
X0164326Y0198866D01*
X0161540Y0193298D02*
X0160540Y0193298D01*
X0160040Y0193798D01*
X0143040Y0188298D02*
X0141540Y0189798D01*
X0129465Y0191621D02*
X0129465Y0196542D01*
X0126512Y0196542D02*
X0133402Y0203432D01*
X0190489Y0203432D01*
X0126512Y0196542D02*
X0126512Y0188668D01*
X0124131Y0189429D02*
X0089971Y0189429D01*
X0091151Y0190608D02*
X0124731Y0190608D01*
X0124731Y0191788D02*
X0091293Y0191788D01*
X0091293Y0192968D02*
X0124731Y0192968D01*
X0124731Y0194147D02*
X0091293Y0194147D01*
X0090189Y0195327D02*
X0124731Y0195327D01*
X0085196Y0196506D02*
X0079009Y0196506D01*
X0080189Y0195327D02*
X0084017Y0195327D01*
X0082912Y0194147D02*
X0081293Y0194147D01*
X0081293Y0192968D02*
X0082912Y0192968D01*
X0082912Y0191788D02*
X0081293Y0191788D01*
X0081151Y0190608D02*
X0083055Y0190608D01*
X0084234Y0189429D02*
X0079971Y0189429D01*
X0074234Y0189429D02*
X0069971Y0189429D01*
X0071151Y0190608D02*
X0073055Y0190608D01*
X0072912Y0191788D02*
X0071293Y0191788D01*
X0071293Y0192968D02*
X0072912Y0192968D01*
X0072912Y0194147D02*
X0071293Y0194147D01*
X0070189Y0195327D02*
X0074017Y0195327D01*
X0075196Y0196506D02*
X0069009Y0196506D01*
X0028693Y0143424D02*
X0126129Y0143424D01*
X0125115Y0142244D02*
X0028693Y0142244D01*
X0028693Y0141065D02*
X0125115Y0141065D01*
X0113717Y0138471D02*
X0113540Y0138648D01*
X0112474Y0136346D02*
X0067343Y0136346D01*
X0049482Y0136346D02*
X0028693Y0136346D01*
X0028693Y0137526D02*
X0048344Y0137526D01*
X0048344Y0138705D02*
X0028693Y0138705D01*
X0028693Y0139885D02*
X0048772Y0139885D01*
X0093656Y0128089D02*
X0198550Y0128089D01*
X0198550Y0126909D02*
X0093656Y0126909D01*
X0093656Y0125730D02*
X0198550Y0125730D01*
X0198550Y0124550D02*
X0093656Y0124550D01*
X0093656Y0123370D02*
X0197950Y0123370D01*
X0197950Y0122191D02*
X0093656Y0122191D01*
X0093259Y0121011D02*
X0198676Y0121011D01*
X0200331Y0122723D02*
X0200331Y0147329D01*
X0215095Y0144376D02*
X0226906Y0144376D01*
X0225671Y0142244D02*
X0216330Y0142244D01*
X0202112Y0132807D02*
X0252208Y0132807D01*
X0251028Y0131628D02*
X0202112Y0131628D01*
X0202112Y0130448D02*
X0249849Y0130448D01*
X0248669Y0129268D02*
X0202112Y0129268D01*
X0202112Y0128089D02*
X0247489Y0128089D01*
X0246310Y0126909D02*
X0202112Y0126909D01*
X0202112Y0125730D02*
X0245130Y0125730D01*
X0243951Y0124550D02*
X0202112Y0124550D01*
X0202712Y0123370D02*
X0242771Y0123370D01*
X0241591Y0122191D02*
X0202712Y0122191D01*
X0201987Y0121011D02*
X0240412Y0121011D01*
X0237739Y0119831D02*
X0092421Y0119831D01*
X0126925Y0105676D02*
X0127752Y0105676D01*
X0085751Y0080904D02*
X0319594Y0080904D01*
X0318414Y0079725D02*
X0085851Y0079725D01*
X0085967Y0078545D02*
X0317912Y0078545D01*
X0317912Y0077365D02*
X0085608Y0077365D01*
X0084467Y0076186D02*
X0317912Y0076186D01*
X0324612Y0080904D02*
X0329028Y0080904D01*
X0327849Y0079725D02*
X0325791Y0079725D01*
X0326293Y0078545D02*
X0327512Y0078545D01*
X0335177Y0080904D02*
X0337920Y0080904D01*
X0337920Y0093880D02*
X0334988Y0093880D01*
X0336168Y0095060D02*
X0337920Y0095060D01*
X0337920Y0096239D02*
X0336693Y0096239D01*
X0332512Y0096239D02*
X0331693Y0096239D01*
X0331693Y0095060D02*
X0332512Y0095060D01*
X0332512Y0093880D02*
X0331693Y0093880D01*
X0329217Y0093880D02*
X0324423Y0093880D01*
X0325602Y0095060D02*
X0328038Y0095060D01*
X0327512Y0096239D02*
X0326293Y0096239D01*
X0331693Y0098598D02*
X0332512Y0098598D01*
X0332512Y0099778D02*
X0331693Y0099778D01*
X0331693Y0100958D02*
X0332512Y0100958D01*
X0332512Y0103317D02*
X0331693Y0103317D01*
X0331693Y0104497D02*
X0332512Y0104497D01*
X0332512Y0105676D02*
X0331693Y0105676D01*
X0331693Y0106856D02*
X0332512Y0106856D01*
X0332512Y0108035D02*
X0331693Y0108035D01*
X0331693Y0107896D02*
X0331693Y0112077D01*
X0330201Y0112077D01*
X0327512Y0109388D01*
X0327512Y0107896D01*
X0331693Y0107896D01*
X0331693Y0109215D02*
X0332512Y0109215D01*
X0332512Y0110395D02*
X0331693Y0110395D01*
X0331693Y0111574D02*
X0332512Y0111574D01*
X0331693Y0112896D02*
X0331693Y0117077D01*
X0327512Y0117077D01*
X0327512Y0115585D01*
X0330201Y0112896D01*
X0331693Y0112896D01*
X0331693Y0113933D02*
X0332512Y0113933D01*
X0332512Y0115113D02*
X0331693Y0115113D01*
X0331693Y0116293D02*
X0332512Y0116293D01*
X0332512Y0117077D02*
X0331693Y0117077D01*
X0331693Y0117896D01*
X0327512Y0117896D01*
X0327512Y0119388D01*
X0330201Y0122077D01*
X0331693Y0122077D01*
X0331693Y0117896D01*
X0332512Y0117896D01*
X0332512Y0122077D01*
X0334004Y0122077D01*
X0336693Y0119388D01*
X0336693Y0117896D01*
X0332512Y0117896D01*
X0332512Y0117077D01*
X0332512Y0117472D02*
X0337920Y0117472D01*
X0337920Y0116293D02*
X0336693Y0116293D01*
X0336221Y0115113D02*
X0337920Y0115113D01*
X0337920Y0118652D02*
X0336693Y0118652D01*
X0336250Y0119831D02*
X0337920Y0119831D01*
X0337920Y0121011D02*
X0335070Y0121011D01*
X0332512Y0121011D02*
X0331693Y0121011D01*
X0331693Y0119831D02*
X0332512Y0119831D01*
X0332512Y0118652D02*
X0331693Y0118652D01*
X0331693Y0117472D02*
X0326293Y0117472D01*
X0326293Y0116293D02*
X0327512Y0116293D01*
X0327984Y0115113D02*
X0325656Y0115113D01*
X0324476Y0113933D02*
X0329164Y0113933D01*
X0329698Y0111574D02*
X0323942Y0111574D01*
X0325121Y0110395D02*
X0328519Y0110395D01*
X0327512Y0109215D02*
X0326293Y0109215D01*
X0326293Y0108035D02*
X0327512Y0108035D01*
X0327512Y0106856D02*
X0326293Y0106856D01*
X0326219Y0105676D02*
X0327512Y0105676D01*
X0328601Y0104497D02*
X0325039Y0104497D01*
X0319167Y0104497D02*
X0304683Y0104497D01*
X0305862Y0105676D02*
X0317987Y0105676D01*
X0317912Y0106856D02*
X0307042Y0106856D01*
X0308221Y0108035D02*
X0317912Y0108035D01*
X0317912Y0109215D02*
X0309401Y0109215D01*
X0310581Y0110395D02*
X0319084Y0110395D01*
X0320264Y0111574D02*
X0311760Y0111574D01*
X0305184Y0113933D02*
X0279843Y0113933D01*
X0279843Y0115113D02*
X0306364Y0115113D01*
X0307544Y0116293D02*
X0279843Y0116293D01*
X0279843Y0117472D02*
X0308723Y0117472D01*
X0309903Y0118652D02*
X0279843Y0118652D01*
X0279843Y0119831D02*
X0311082Y0119831D01*
X0311345Y0121011D02*
X0279843Y0121011D01*
X0279843Y0122191D02*
X0311345Y0122191D01*
X0311345Y0123370D02*
X0279843Y0123370D01*
X0279843Y0124550D02*
X0311345Y0124550D01*
X0311345Y0125730D02*
X0279843Y0125730D01*
X0279843Y0126909D02*
X0311345Y0126909D01*
X0311345Y0128089D02*
X0279366Y0128089D01*
X0275813Y0129268D02*
X0311345Y0129268D01*
X0311345Y0130448D02*
X0298539Y0130448D01*
X0297005Y0130448D02*
X0275813Y0130448D01*
X0275813Y0131628D02*
X0295227Y0131628D01*
X0294660Y0132807D02*
X0275813Y0132807D01*
X0274032Y0135302D02*
X0274032Y0127762D01*
X0277103Y0124691D01*
X0277103Y0120868D01*
X0276753Y0120518D01*
X0273662Y0121011D02*
X0270543Y0121011D01*
X0270543Y0119831D02*
X0273662Y0119831D01*
X0273662Y0118652D02*
X0270543Y0118652D01*
X0270543Y0117472D02*
X0273662Y0117472D01*
X0273662Y0116293D02*
X0270543Y0116293D01*
X0270543Y0115113D02*
X0273662Y0115113D01*
X0273662Y0113933D02*
X0270543Y0113933D01*
X0269872Y0112754D02*
X0274333Y0112754D01*
X0279172Y0112754D02*
X0304005Y0112754D01*
X0317663Y0124550D02*
X0319113Y0124550D01*
X0317934Y0125730D02*
X0317663Y0125730D01*
X0317663Y0126909D02*
X0317912Y0126909D01*
X0317912Y0128089D02*
X0317663Y0128089D01*
X0317663Y0129268D02*
X0317958Y0129268D01*
X0317663Y0130448D02*
X0319138Y0130448D01*
X0320317Y0131628D02*
X0317663Y0131628D01*
X0317663Y0132807D02*
X0328944Y0132807D01*
X0328944Y0131628D02*
X0323888Y0131628D01*
X0325068Y0130448D02*
X0328944Y0130448D01*
X0327958Y0129268D02*
X0326247Y0129268D01*
X0326293Y0128089D02*
X0327912Y0128089D01*
X0327912Y0126909D02*
X0326293Y0126909D01*
X0326272Y0125730D02*
X0327934Y0125730D01*
X0329113Y0124550D02*
X0325092Y0124550D01*
X0323913Y0123370D02*
X0330293Y0123370D01*
X0329135Y0121011D02*
X0324505Y0121011D01*
X0325684Y0119831D02*
X0327956Y0119831D01*
X0327512Y0118652D02*
X0326293Y0118652D01*
X0341482Y0118652D02*
X0342063Y0118652D01*
X0342063Y0119831D02*
X0341482Y0119831D01*
X0341482Y0121011D02*
X0342063Y0121011D01*
X0342063Y0122191D02*
X0341482Y0122191D01*
X0341482Y0123370D02*
X0342063Y0123370D01*
X0342063Y0124550D02*
X0341482Y0124550D01*
X0341482Y0125730D02*
X0342063Y0125730D01*
X0342063Y0126909D02*
X0341482Y0126909D01*
X0341482Y0128089D02*
X0342063Y0128089D01*
X0342063Y0129268D02*
X0341482Y0129268D01*
X0341482Y0130448D02*
X0342063Y0130448D01*
X0342063Y0131628D02*
X0341482Y0131628D01*
X0341482Y0132807D02*
X0342063Y0132807D01*
X0342063Y0133987D02*
X0341482Y0133987D01*
X0341482Y0135166D02*
X0342063Y0135166D01*
X0342063Y0136346D02*
X0341482Y0136346D01*
X0341482Y0137526D02*
X0342063Y0137526D01*
X0342063Y0138705D02*
X0341482Y0138705D01*
X0341482Y0139885D02*
X0342063Y0139885D01*
X0342063Y0141065D02*
X0341482Y0141065D01*
X0341482Y0142244D02*
X0342063Y0142244D01*
X0342063Y0143424D02*
X0341482Y0143424D01*
X0341482Y0144603D02*
X0342063Y0144603D01*
X0342063Y0145783D02*
X0341482Y0145783D01*
X0341482Y0146963D02*
X0342063Y0146963D01*
X0342063Y0148142D02*
X0341482Y0148142D01*
X0328944Y0150501D02*
X0325014Y0150501D01*
X0323839Y0151677D02*
X0326293Y0149222D01*
X0326293Y0145751D01*
X0323839Y0143296D01*
X0320367Y0143296D01*
X0317912Y0145751D01*
X0317912Y0149222D01*
X0320367Y0151677D01*
X0323839Y0151677D01*
X0326194Y0149322D02*
X0328012Y0149322D01*
X0327912Y0148142D02*
X0326293Y0148142D01*
X0326293Y0146963D02*
X0327912Y0146963D01*
X0327912Y0145783D02*
X0326293Y0145783D01*
X0325146Y0144603D02*
X0328944Y0144603D01*
X0328944Y0143424D02*
X0323966Y0143424D01*
X0323839Y0141677D02*
X0320367Y0141677D01*
X0317912Y0139222D01*
X0317912Y0135751D01*
X0320367Y0133296D01*
X0323839Y0133296D01*
X0326293Y0135751D01*
X0326293Y0139222D01*
X0323839Y0141677D01*
X0324451Y0141065D02*
X0328944Y0141065D01*
X0328944Y0142244D02*
X0317663Y0142244D01*
X0317663Y0141065D02*
X0319754Y0141065D01*
X0318575Y0139885D02*
X0317663Y0139885D01*
X0317663Y0138705D02*
X0317912Y0138705D01*
X0317912Y0137526D02*
X0317663Y0137526D01*
X0317663Y0136346D02*
X0317912Y0136346D01*
X0317663Y0135166D02*
X0318497Y0135166D01*
X0317663Y0133987D02*
X0319676Y0133987D01*
X0324529Y0133987D02*
X0328944Y0133987D01*
X0328497Y0135166D02*
X0325709Y0135166D01*
X0326293Y0136346D02*
X0327912Y0136346D01*
X0327912Y0137526D02*
X0326293Y0137526D01*
X0326293Y0138705D02*
X0327912Y0138705D01*
X0328575Y0139885D02*
X0325631Y0139885D01*
X0320239Y0143424D02*
X0317663Y0143424D01*
X0317663Y0144603D02*
X0319060Y0144603D01*
X0317912Y0145783D02*
X0317663Y0145783D01*
X0317663Y0146963D02*
X0317912Y0146963D01*
X0317912Y0148142D02*
X0317663Y0148142D01*
X0317663Y0149322D02*
X0318012Y0149322D01*
X0318207Y0150501D02*
X0319191Y0150501D01*
X0319387Y0151681D02*
X0328323Y0151681D01*
X0316350Y0157579D02*
X0269041Y0157579D01*
X0269041Y0156400D02*
X0283790Y0156400D01*
X0282610Y0155220D02*
X0269041Y0155220D01*
X0269041Y0154040D02*
X0282596Y0154040D01*
X0282212Y0152861D02*
X0278427Y0152861D01*
X0278394Y0152893D02*
X0278032Y0153103D01*
X0277627Y0153211D01*
X0275843Y0153211D01*
X0275843Y0149849D01*
X0279008Y0149849D01*
X0279008Y0151830D01*
X0278900Y0152234D01*
X0278691Y0152597D01*
X0278394Y0152893D01*
X0279008Y0151681D02*
X0282212Y0151681D01*
X0282212Y0150501D02*
X0279008Y0150501D01*
X0279008Y0148142D02*
X0282212Y0148142D01*
X0282212Y0146963D02*
X0278977Y0146963D01*
X0277940Y0145783D02*
X0282212Y0145783D01*
X0282212Y0142244D02*
X0276112Y0142244D01*
X0276112Y0143424D02*
X0276003Y0143828D01*
X0275794Y0144191D01*
X0275498Y0144487D01*
X0275135Y0144696D01*
X0274071Y0144603D02*
X0274071Y0144603D01*
X0274071Y0144805D02*
X0274071Y0143692D01*
X0274071Y0143693D01*
X0274071Y0144805D01*
X0275056Y0145783D02*
X0275843Y0145783D01*
X0275843Y0146963D02*
X0275056Y0146963D01*
X0275056Y0148142D02*
X0275843Y0148142D01*
X0275843Y0149322D02*
X0282212Y0149322D01*
X0283993Y0152250D02*
X0284977Y0154219D01*
X0283993Y0152250D02*
X0283993Y0140439D01*
X0289662Y0145783D02*
X0297496Y0145783D01*
X0297497Y0146963D02*
X0298678Y0146963D01*
X0298678Y0148142D02*
X0297497Y0148142D01*
X0297497Y0149322D02*
X0298678Y0149322D01*
X0302543Y0149322D02*
X0311345Y0149322D01*
X0311345Y0150501D02*
X0285774Y0150501D01*
X0285774Y0151681D02*
X0311345Y0151681D01*
X0311746Y0152861D02*
X0286986Y0152861D01*
X0287358Y0154040D02*
X0312811Y0154040D01*
X0313991Y0155220D02*
X0287343Y0155220D01*
X0286164Y0156400D02*
X0315170Y0156400D01*
X0311345Y0148142D02*
X0302630Y0148142D01*
X0302630Y0146963D02*
X0311345Y0146963D01*
X0311345Y0145783D02*
X0298678Y0145783D01*
X0302630Y0144603D02*
X0311345Y0144603D01*
X0311345Y0143424D02*
X0302621Y0143424D01*
X0301785Y0142244D02*
X0311345Y0142244D01*
X0311345Y0141065D02*
X0302230Y0141065D01*
X0302230Y0139885D02*
X0311345Y0139885D01*
X0311345Y0138705D02*
X0302230Y0138705D01*
X0302230Y0137526D02*
X0311345Y0137526D01*
X0311345Y0136346D02*
X0302230Y0136346D01*
X0301703Y0135166D02*
X0311345Y0135166D01*
X0311345Y0133987D02*
X0300931Y0133987D01*
X0300884Y0132807D02*
X0311345Y0132807D01*
X0311345Y0131628D02*
X0300318Y0131628D01*
X0294613Y0133987D02*
X0286691Y0133987D01*
X0292687Y0135166D02*
X0294472Y0135166D01*
X0274071Y0142014D02*
X0272103Y0142014D01*
X0272103Y0142014D01*
X0274071Y0142014D01*
X0274071Y0142014D01*
X0272103Y0144603D02*
X0272103Y0144603D01*
X0271817Y0145783D02*
X0272959Y0145783D01*
X0271922Y0146963D02*
X0271915Y0146963D01*
X0268756Y0149455D02*
X0268756Y0149770D01*
X0267260Y0150282D01*
X0269041Y0152861D02*
X0272472Y0152861D01*
X0275056Y0152861D02*
X0275843Y0152861D01*
X0275843Y0151681D02*
X0275056Y0151681D01*
X0275056Y0150501D02*
X0275843Y0150501D01*
X0265479Y0155220D02*
X0251944Y0155220D01*
X0252497Y0157172D02*
X0250528Y0157172D01*
X0270174Y0135302D02*
X0270174Y0127605D01*
X0268245Y0125676D01*
X0268245Y0121310D01*
X0267453Y0120518D01*
X0270543Y0122191D02*
X0273662Y0122191D01*
X0273662Y0123370D02*
X0270543Y0123370D01*
X0270543Y0124550D02*
X0273662Y0124550D01*
X0273546Y0125730D02*
X0270817Y0125730D01*
X0271955Y0126909D02*
X0272366Y0126909D01*
X0272251Y0128089D02*
X0271955Y0128089D01*
X0271955Y0129268D02*
X0272251Y0129268D01*
X0272103Y0130211D02*
X0272103Y0135302D01*
X0272103Y0135302D01*
X0272103Y0130211D01*
X0272103Y0130448D02*
X0272103Y0130448D01*
X0272103Y0131628D02*
X0272103Y0131628D01*
X0272103Y0132807D02*
X0272103Y0132807D01*
X0272103Y0133987D02*
X0272103Y0133987D01*
X0272103Y0135166D02*
X0272103Y0135166D01*
X0288481Y0146963D02*
X0289662Y0146963D01*
X0289662Y0148142D02*
X0288481Y0148142D01*
X0288481Y0149322D02*
X0289662Y0149322D01*
X0293527Y0149322D02*
X0293631Y0149322D01*
X0341482Y0117472D02*
X0342063Y0117472D01*
X0342063Y0116293D02*
X0341482Y0116293D01*
X0341482Y0115113D02*
X0342063Y0115113D01*
X0342063Y0113933D02*
X0341482Y0113933D01*
X0341482Y0112754D02*
X0342063Y0112754D01*
X0342063Y0111574D02*
X0341482Y0111574D01*
X0341482Y0110395D02*
X0342063Y0110395D01*
X0342063Y0109215D02*
X0341482Y0109215D01*
X0341482Y0108035D02*
X0342063Y0108035D01*
X0342063Y0106856D02*
X0341482Y0106856D01*
X0341482Y0105676D02*
X0342063Y0105676D01*
X0342063Y0104497D02*
X0341482Y0104497D01*
X0341482Y0103317D02*
X0342063Y0103317D01*
X0342063Y0102137D02*
X0341482Y0102137D01*
X0341482Y0100958D02*
X0342063Y0100958D01*
X0324636Y0036079D02*
X0187993Y0036079D01*
X0187379Y0034899D02*
X0321822Y0034899D01*
X0318435Y0026642D02*
X0188554Y0026642D01*
X0188161Y0025462D02*
X0318924Y0025462D01*
X0319413Y0024283D02*
X0187328Y0024283D01*
X0185404Y0023103D02*
X0320289Y0023103D01*
X0181449Y0023103D02*
X0180630Y0023103D01*
X0180630Y0024283D02*
X0181449Y0024283D01*
X0181449Y0025462D02*
X0180630Y0025462D01*
X0180630Y0026642D02*
X0181449Y0026642D01*
X0181449Y0029001D02*
X0180630Y0029001D01*
X0180630Y0030181D02*
X0181449Y0030181D01*
X0181449Y0031360D02*
X0180630Y0031360D01*
X0152747Y0071467D02*
X0147657Y0071467D01*
X0067457Y0081384D02*
X0060331Y0081384D01*
X0059780Y0080833D01*
X0062939Y0083263D02*
X0065969Y0083263D01*
D27*
X0067457Y0081384D03*
X0064504Y0078432D03*
X0070410Y0084337D03*
X0071394Y0092211D03*
X0079268Y0091227D03*
X0092063Y0084337D03*
X0103874Y0076463D03*
X0112733Y0076463D03*
X0119623Y0084337D03*
X0124544Y0084337D03*
X0129465Y0084337D03*
X0154071Y0073510D03*
X0151119Y0067605D03*
X0164898Y0065636D03*
X0172772Y0061699D03*
X0195410Y0065636D03*
X0199347Y0064652D03*
X0210174Y0067605D03*
X0223953Y0067605D03*
X0214111Y0083353D03*
X0226906Y0088274D03*
X0246591Y0084337D03*
X0266276Y0075479D03*
X0265292Y0069573D03*
X0280056Y0089258D03*
X0285961Y0089258D03*
X0291867Y0089258D03*
X0297772Y0089258D03*
X0299741Y0113865D03*
X0294819Y0113865D03*
X0289898Y0113865D03*
X0283993Y0113865D03*
X0259386Y0113865D03*
X0255449Y0113865D03*
X0238717Y0116817D03*
X0256434Y0132565D03*
X0226906Y0144376D03*
X0215095Y0144376D03*
X0200331Y0147329D03*
X0194426Y0147329D03*
X0185567Y0147329D03*
X0165882Y0151266D03*
X0165882Y0138471D03*
X0165882Y0134534D03*
X0163914Y0130597D03*
X0175725Y0116817D03*
X0157024Y0112880D03*
X0140292Y0115833D03*
X0124544Y0105991D03*
X0129465Y0104022D03*
X0119623Y0108943D03*
X0123560Y0112880D03*
X0100922Y0125676D03*
X0088126Y0134534D03*
X0113717Y0138471D03*
X0127497Y0141424D03*
X0132418Y0141424D03*
X0136355Y0138471D03*
X0156040Y0166298D03*
X0165882Y0167014D03*
X0187536Y0182762D03*
X0193441Y0186699D03*
X0195410Y0181778D03*
X0209189Y0181778D03*
X0219032Y0181778D03*
X0228874Y0181778D03*
X0238717Y0181778D03*
X0249544Y0181778D03*
X0265292Y0193589D03*
X0282024Y0186699D03*
X0290882Y0180794D03*
X0290882Y0175872D03*
X0290882Y0170951D03*
X0311552Y0170951D03*
X0311552Y0175872D03*
X0311552Y0180794D03*
X0321394Y0186699D03*
X0332221Y0180794D03*
X0332221Y0175872D03*
X0332221Y0170951D03*
X0301709Y0186699D03*
X0267260Y0166030D03*
X0261355Y0166030D03*
X0250528Y0157172D03*
X0284977Y0154219D03*
X0297772Y0133550D03*
X0213126Y0102054D03*
X0202300Y0110912D03*
X0202300Y0116817D03*
X0200331Y0122723D03*
X0197378Y0095164D03*
X0188520Y0086306D03*
X0148166Y0054809D03*
X0137339Y0054809D03*
X0074347Y0067605D03*
X0070410Y0067605D03*
X0065489Y0067605D03*
X0050725Y0073510D03*
X0035961Y0082369D03*
X0040882Y0084337D03*
X0046788Y0084337D03*
X0043835Y0108943D03*
X0035961Y0120754D03*
X0056630Y0119770D03*
X0062536Y0134534D03*
X0050725Y0138471D03*
X0035961Y0135518D03*
X0071103Y0183487D03*
X0066473Y0183746D03*
X0105843Y0186699D03*
X0107812Y0183746D03*
X0126512Y0188668D03*
X0129465Y0191621D03*
X0132418Y0194573D03*
X0141540Y0189798D03*
X0136040Y0185298D03*
X0161540Y0193298D03*
X0161945Y0198510D03*
X0356335Y0086306D03*
X0276119Y0039061D03*
X0271197Y0039061D03*
X0266276Y0039061D03*
X0266276Y0029219D03*
X0244623Y0029219D03*
X0239701Y0029219D03*
D28*
X0070410Y0067605D02*
X0067457Y0070558D01*
X0067457Y0081384D01*
X0064504Y0078432D02*
X0065489Y0077447D01*
X0065489Y0067605D01*
X0257103Y0138746D02*
X0259347Y0136502D01*
X0266591Y0136502D01*
X0266591Y0134534D02*
X0261315Y0134534D01*
X0257103Y0138746D01*
X0257378Y0138471D01*
X0266591Y0138471D01*
X0266591Y0140439D02*
X0258796Y0140439D01*
X0257103Y0138746D01*
X0270134Y0142014D02*
X0270134Y0148077D01*
X0268756Y0149455D01*
X0274071Y0148077D02*
X0275449Y0149455D01*
X0274071Y0148077D02*
X0274071Y0142014D01*
X0272103Y0142014D01*
X0272103Y0135302D01*
X0277615Y0134534D02*
X0284859Y0134534D01*
X0289071Y0138746D01*
X0287378Y0140439D01*
X0283993Y0140439D01*
X0277615Y0140439D01*
X0277615Y0138471D02*
X0286827Y0138471D01*
X0289071Y0138746D01*
X0286827Y0136502D01*
X0277615Y0136502D01*
D29*
X0289071Y0138746D02*
X0298087Y0138746D01*
X0297772Y0138746D01*
X0297772Y0133550D01*
X0314504Y0118786D02*
X0302693Y0106975D01*
X0250528Y0106975D01*
X0240686Y0116817D01*
X0238717Y0116817D01*
X0240686Y0116817D02*
X0256434Y0132565D01*
X0257103Y0133235D01*
X0257103Y0138746D01*
X0314504Y0151266D02*
X0314504Y0118786D01*
X0332103Y0127487D02*
X0332103Y0137487D01*
X0332103Y0147487D01*
X0332103Y0152369D01*
X0329268Y0155203D01*
X0318441Y0155203D01*
X0314504Y0151266D01*
D30*
X0165882Y0151266D02*
X0165882Y0167014D01*
X0113540Y0138648D02*
X0109603Y0138648D01*
X0050725Y0138471D01*
X0164898Y0065636D02*
X0195410Y0065636D01*
D31*
X0165882Y0138471D02*
X0136355Y0138471D01*
D32*
X0353835Y0117349D03*
X0356740Y0112155D03*
X0356335Y0100085D03*
X0359780Y0097624D03*
X0356335Y0095164D03*
X0386847Y0112880D03*
X0381926Y0115833D03*
X0377497Y0118786D03*
X0391276Y0109435D03*
X0391768Y0100085D03*
X0391768Y0079416D03*
X0364209Y0048904D03*
X0353382Y0049396D03*
D33*
X0356644Y0050863D02*
X0346985Y0050863D01*
X0346985Y0053261D02*
X0354440Y0053261D01*
X0354440Y0053067D02*
X0357252Y0050255D01*
X0361228Y0050255D01*
X0364040Y0053067D01*
X0364040Y0057043D01*
X0361228Y0059855D01*
X0357252Y0059855D01*
X0354440Y0057043D01*
X0354440Y0053067D01*
X0354440Y0055660D02*
X0346985Y0055660D01*
X0346985Y0058058D02*
X0355455Y0058058D01*
X0357252Y0060255D02*
X0361228Y0060255D01*
X0364040Y0063067D01*
X0364040Y0066178D01*
X0364440Y0066578D01*
X0364440Y0063067D01*
X0367252Y0060255D01*
X0371228Y0060255D01*
X0374040Y0063067D01*
X0374040Y0066578D01*
X0374440Y0066178D01*
X0374440Y0063067D01*
X0377252Y0060255D01*
X0381228Y0060255D01*
X0384040Y0063067D01*
X0384040Y0066578D01*
X0384440Y0066178D01*
X0384440Y0063067D01*
X0387252Y0060255D01*
X0391228Y0060255D01*
X0394040Y0063067D01*
X0394040Y0067043D01*
X0391228Y0069855D01*
X0388117Y0069855D01*
X0382804Y0075168D01*
X0382804Y0084177D01*
X0381750Y0085232D01*
X0377897Y0085232D01*
X0377323Y0084658D01*
X0376750Y0085232D01*
X0372897Y0085232D01*
X0372323Y0084658D01*
X0371750Y0085232D01*
X0367897Y0085232D01*
X0367323Y0084658D01*
X0366750Y0085232D01*
X0362897Y0085232D01*
X0361842Y0084177D01*
X0361842Y0074025D01*
X0362223Y0073643D01*
X0362223Y0071716D01*
X0360363Y0069855D01*
X0357252Y0069855D01*
X0354440Y0067043D01*
X0354440Y0063067D01*
X0357252Y0060255D01*
X0357050Y0060457D02*
X0346985Y0060457D01*
X0346985Y0062855D02*
X0354651Y0062855D01*
X0354440Y0065254D02*
X0346985Y0065254D01*
X0346985Y0067652D02*
X0355049Y0067652D01*
X0360559Y0070051D02*
X0346985Y0070051D01*
X0346985Y0072449D02*
X0362223Y0072449D01*
X0361842Y0074848D02*
X0346985Y0074848D01*
X0346985Y0077246D02*
X0361842Y0077246D01*
X0361842Y0079645D02*
X0346985Y0079645D01*
X0346985Y0082043D02*
X0361842Y0082043D01*
X0358870Y0084612D02*
X0358029Y0083770D01*
X0356930Y0083315D01*
X0355740Y0083315D01*
X0354641Y0083770D01*
X0353800Y0084612D01*
X0353345Y0085711D01*
X0353345Y0086900D01*
X0353800Y0088000D01*
X0354641Y0088841D01*
X0355584Y0089231D01*
X0357412Y0091059D01*
X0358368Y0091455D01*
X0359402Y0091455D01*
X0365323Y0091455D01*
X0370111Y0091455D01*
X0372223Y0093568D01*
X0372223Y0093916D01*
X0371750Y0093443D01*
X0367897Y0093443D01*
X0367323Y0094016D01*
X0366750Y0093443D01*
X0362897Y0093443D01*
X0361842Y0094497D01*
X0361842Y0098931D01*
X0361823Y0098977D01*
X0361823Y0105943D01*
X0361157Y0105943D01*
X0360192Y0106909D01*
X0358990Y0106909D01*
X0358957Y0106928D01*
X0358371Y0106928D01*
X0357268Y0107384D01*
X0355040Y0109612D01*
X0355040Y0109612D01*
X0354197Y0110456D01*
X0353740Y0111558D01*
X0353740Y0112752D01*
X0354197Y0113855D01*
X0355040Y0114698D01*
X0356143Y0115155D01*
X0357337Y0115155D01*
X0358439Y0114698D01*
X0359283Y0113855D01*
X0359283Y0113855D01*
X0360210Y0112928D01*
X0360211Y0112928D01*
X0360256Y0112972D01*
X0360142Y0113085D01*
X0359853Y0113587D01*
X0359703Y0114147D01*
X0359703Y0116602D01*
X0363871Y0116602D01*
X0363871Y0116602D01*
X0359703Y0116602D01*
X0359703Y0119057D01*
X0359817Y0119484D01*
X0356067Y0120078D01*
X0356067Y0120078D01*
X0351830Y0122237D01*
X0348467Y0125600D01*
X0348467Y0125600D01*
X0346985Y0128509D01*
X0346985Y0038197D01*
X0348467Y0041106D01*
X0348467Y0041106D01*
X0351830Y0044469D01*
X0351830Y0044469D01*
X0356067Y0046628D01*
X0360764Y0047372D01*
X0365461Y0046628D01*
X0365461Y0046628D01*
X0369699Y0044469D01*
X0369699Y0044469D01*
X0372575Y0041592D01*
X0375452Y0044469D01*
X0375452Y0044469D01*
X0379689Y0046628D01*
X0379689Y0046628D01*
X0384386Y0047372D01*
X0384386Y0047372D01*
X0389083Y0046628D01*
X0389083Y0046628D01*
X0393321Y0044469D01*
X0393321Y0044469D01*
X0395966Y0041824D01*
X0395966Y0124882D01*
X0393321Y0122237D01*
X0393321Y0122237D01*
X0389083Y0120078D01*
X0389083Y0120078D01*
X0384386Y0119334D01*
X0384386Y0119334D01*
X0379689Y0120078D01*
X0379689Y0120078D01*
X0375452Y0122237D01*
X0375452Y0122237D01*
X0372575Y0125114D01*
X0369699Y0122237D01*
X0369699Y0122237D01*
X0366794Y0120757D01*
X0367191Y0120527D01*
X0367333Y0120385D01*
X0367476Y0120527D01*
X0367977Y0120817D01*
X0368537Y0120967D01*
X0370795Y0120967D01*
X0370795Y0116602D01*
X0370795Y0116602D01*
X0370795Y0120967D01*
X0373053Y0120967D01*
X0373613Y0120817D01*
X0374114Y0120527D01*
X0374524Y0120118D01*
X0374814Y0119616D01*
X0374963Y0119057D01*
X0374963Y0116602D01*
X0370795Y0116602D01*
X0370795Y0116602D01*
X0370795Y0116602D01*
X0368040Y0116602D01*
X0363871Y0116602D01*
X0363871Y0116602D01*
X0370795Y0116602D01*
X0374963Y0116602D01*
X0374963Y0114147D01*
X0374814Y0113587D01*
X0374524Y0113085D01*
X0374411Y0112972D01*
X0374563Y0112820D01*
X0374563Y0106998D01*
X0373509Y0105943D01*
X0372823Y0105943D01*
X0372823Y0105631D01*
X0372897Y0105704D01*
X0376750Y0105704D01*
X0377040Y0105413D01*
X0377291Y0105664D01*
X0377793Y0105954D01*
X0378353Y0106104D01*
X0379823Y0106104D01*
X0379823Y0099573D01*
X0379823Y0099573D01*
X0379823Y0093043D01*
X0378353Y0093043D01*
X0377793Y0093192D01*
X0377423Y0093406D01*
X0377423Y0091973D01*
X0377027Y0091018D01*
X0373303Y0087293D01*
X0372572Y0086562D01*
X0371616Y0086166D01*
X0370582Y0086166D01*
X0370367Y0086255D01*
X0359962Y0086255D01*
X0359261Y0085554D01*
X0358870Y0084612D01*
X0358701Y0084442D02*
X0362107Y0084442D01*
X0355592Y0089239D02*
X0346985Y0089239D01*
X0346985Y0086841D02*
X0353345Y0086841D01*
X0353969Y0084442D02*
X0346985Y0084442D01*
X0346985Y0091638D02*
X0370293Y0091638D01*
X0375249Y0089239D02*
X0395966Y0089239D01*
X0395966Y0086841D02*
X0372850Y0086841D01*
X0377284Y0091638D02*
X0395966Y0091638D01*
X0395966Y0094036D02*
X0382848Y0094036D01*
X0382765Y0093892D02*
X0383054Y0094393D01*
X0383204Y0094953D01*
X0383204Y0099573D01*
X0379823Y0099573D01*
X0379823Y0093043D01*
X0381294Y0093043D01*
X0381854Y0093192D01*
X0382355Y0093482D01*
X0382765Y0093892D01*
X0383204Y0096435D02*
X0395966Y0096435D01*
X0395966Y0098833D02*
X0383204Y0098833D01*
X0383204Y0099573D02*
X0379823Y0099573D01*
X0379823Y0099573D01*
X0379823Y0099573D01*
X0379823Y0106104D01*
X0381294Y0106104D01*
X0381854Y0105954D01*
X0382355Y0105664D01*
X0382765Y0105255D01*
X0383054Y0104753D01*
X0383204Y0104194D01*
X0383204Y0099573D01*
X0383204Y0101232D02*
X0395966Y0101232D01*
X0395966Y0103630D02*
X0383204Y0103630D01*
X0379823Y0103630D02*
X0379823Y0103630D01*
X0379823Y0101232D02*
X0379823Y0101232D01*
X0379823Y0098833D02*
X0379823Y0098833D01*
X0379823Y0096435D02*
X0379823Y0096435D01*
X0379823Y0094036D02*
X0379823Y0094036D01*
X0369823Y0099573D02*
X0369823Y0109909D01*
X0370795Y0109909D01*
X0369823Y0109909D01*
X0363871Y0109909D01*
X0359799Y0109909D01*
X0359792Y0109910D01*
X0359786Y0109915D01*
X0359781Y0109921D01*
X0359780Y0109928D01*
X0358967Y0109928D01*
X0356740Y0112155D01*
X0353935Y0113224D02*
X0346985Y0113224D01*
X0346985Y0110826D02*
X0354043Y0110826D01*
X0356225Y0108427D02*
X0346985Y0108427D01*
X0346985Y0106029D02*
X0361072Y0106029D01*
X0364823Y0108957D02*
X0364821Y0109017D01*
X0364815Y0109076D01*
X0364806Y0109135D01*
X0364793Y0109194D01*
X0364776Y0109251D01*
X0364756Y0109307D01*
X0364732Y0109362D01*
X0364705Y0109416D01*
X0364675Y0109467D01*
X0364641Y0109517D01*
X0364605Y0109564D01*
X0364565Y0109609D01*
X0364523Y0109651D01*
X0364478Y0109691D01*
X0364431Y0109727D01*
X0364381Y0109761D01*
X0364330Y0109791D01*
X0364276Y0109818D01*
X0364221Y0109842D01*
X0364165Y0109862D01*
X0364108Y0109879D01*
X0364049Y0109892D01*
X0363990Y0109901D01*
X0363931Y0109907D01*
X0363871Y0109909D01*
X0364823Y0108957D02*
X0364823Y0099573D01*
X0361842Y0098833D02*
X0346985Y0098833D01*
X0346985Y0096435D02*
X0361842Y0096435D01*
X0362303Y0094036D02*
X0346985Y0094036D01*
X0346985Y0101232D02*
X0361823Y0101232D01*
X0361823Y0103630D02*
X0346985Y0103630D01*
X0359914Y0113224D02*
X0360062Y0113224D01*
X0359703Y0115623D02*
X0346985Y0115623D01*
X0346985Y0118021D02*
X0359703Y0118021D01*
X0355396Y0120420D02*
X0346985Y0120420D01*
X0346985Y0122818D02*
X0351249Y0122818D01*
X0348850Y0125217D02*
X0346985Y0125217D01*
X0346985Y0127615D02*
X0347440Y0127615D01*
X0367298Y0120420D02*
X0367368Y0120420D01*
X0370795Y0120420D02*
X0370795Y0120420D01*
X0370795Y0118021D02*
X0370795Y0118021D01*
X0374963Y0118021D02*
X0395966Y0118021D01*
X0395966Y0115623D02*
X0374963Y0115623D01*
X0374604Y0113224D02*
X0395966Y0113224D01*
X0395966Y0110826D02*
X0374563Y0110826D01*
X0374563Y0108427D02*
X0395966Y0108427D01*
X0395966Y0106029D02*
X0381575Y0106029D01*
X0379823Y0106029D02*
X0379823Y0106029D01*
X0378071Y0106029D02*
X0373594Y0106029D01*
X0374222Y0120420D02*
X0379018Y0120420D01*
X0374871Y0122818D02*
X0370280Y0122818D01*
X0389754Y0120420D02*
X0395966Y0120420D01*
X0395966Y0122818D02*
X0393902Y0122818D01*
X0395966Y0084442D02*
X0382540Y0084442D01*
X0382804Y0082043D02*
X0395966Y0082043D01*
X0395966Y0079645D02*
X0382804Y0079645D01*
X0382804Y0077246D02*
X0395966Y0077246D01*
X0395966Y0074848D02*
X0383124Y0074848D01*
X0385523Y0072449D02*
X0395966Y0072449D01*
X0395966Y0070051D02*
X0387921Y0070051D01*
X0384440Y0065254D02*
X0384040Y0065254D01*
X0383828Y0062855D02*
X0384651Y0062855D01*
X0387050Y0060457D02*
X0381430Y0060457D01*
X0381394Y0060255D02*
X0379240Y0060255D01*
X0379240Y0055055D01*
X0379240Y0055055D01*
X0384040Y0055055D01*
X0389240Y0055055D01*
X0389240Y0055055D01*
X0394440Y0055055D01*
X0394440Y0052901D01*
X0391394Y0049855D01*
X0389240Y0049855D01*
X0389240Y0055055D01*
X0389240Y0055055D01*
X0394440Y0055055D01*
X0394440Y0057209D01*
X0391394Y0060255D01*
X0389240Y0060255D01*
X0389240Y0055055D01*
X0389240Y0049855D01*
X0387086Y0049855D01*
X0384240Y0052701D01*
X0381394Y0049855D01*
X0379240Y0049855D01*
X0379240Y0055055D01*
X0379240Y0055055D01*
X0389240Y0055055D01*
X0389240Y0055055D01*
X0389240Y0055055D01*
X0389240Y0060255D01*
X0387086Y0060255D01*
X0384240Y0057409D01*
X0381394Y0060255D01*
X0379240Y0060255D02*
X0377086Y0060255D01*
X0374040Y0057209D01*
X0374040Y0055055D01*
X0374040Y0052901D01*
X0377086Y0049855D01*
X0379240Y0049855D01*
X0379240Y0055055D01*
X0374040Y0055055D01*
X0379240Y0055055D01*
X0379240Y0055055D01*
X0379240Y0055055D01*
X0379240Y0060255D01*
X0379240Y0058058D02*
X0379240Y0058058D01*
X0379240Y0055660D02*
X0379240Y0055660D01*
X0379240Y0053261D02*
X0379240Y0053261D01*
X0379240Y0050863D02*
X0379240Y0050863D01*
X0382401Y0050863D02*
X0386078Y0050863D01*
X0389240Y0050863D02*
X0389240Y0050863D01*
X0389240Y0053261D02*
X0389240Y0053261D01*
X0389240Y0055660D02*
X0389240Y0055660D01*
X0389240Y0058058D02*
X0389240Y0058058D01*
X0391430Y0060457D02*
X0395966Y0060457D01*
X0395966Y0058058D02*
X0393591Y0058058D01*
X0394440Y0055660D02*
X0395966Y0055660D01*
X0395966Y0053261D02*
X0394440Y0053261D01*
X0395966Y0050863D02*
X0392401Y0050863D01*
X0395966Y0048464D02*
X0346985Y0048464D01*
X0346985Y0046066D02*
X0354964Y0046066D01*
X0351028Y0043667D02*
X0346985Y0043667D01*
X0346985Y0041269D02*
X0348630Y0041269D01*
X0347328Y0038870D02*
X0346985Y0038870D01*
X0366564Y0046066D02*
X0378586Y0046066D01*
X0374651Y0043667D02*
X0370500Y0043667D01*
X0371228Y0050255D02*
X0367252Y0050255D01*
X0364440Y0053067D01*
X0364440Y0057043D01*
X0367252Y0059855D01*
X0371228Y0059855D01*
X0374040Y0057043D01*
X0374040Y0053067D01*
X0371228Y0050255D01*
X0371836Y0050863D02*
X0376078Y0050863D01*
X0374040Y0053261D02*
X0374040Y0053261D01*
X0374040Y0055660D02*
X0374040Y0055660D01*
X0374889Y0058058D02*
X0373025Y0058058D01*
X0371430Y0060457D02*
X0377050Y0060457D01*
X0383591Y0058058D02*
X0384889Y0058058D01*
X0393828Y0062855D02*
X0395966Y0062855D01*
X0395966Y0065254D02*
X0394040Y0065254D01*
X0393431Y0067652D02*
X0395966Y0067652D01*
X0374440Y0065254D02*
X0374040Y0065254D01*
X0373828Y0062855D02*
X0374651Y0062855D01*
X0367050Y0060457D02*
X0361430Y0060457D01*
X0363025Y0058058D02*
X0365455Y0058058D01*
X0364440Y0055660D02*
X0364040Y0055660D01*
X0364040Y0053261D02*
X0364440Y0053261D01*
X0366644Y0050863D02*
X0361836Y0050863D01*
X0363828Y0062855D02*
X0364651Y0062855D01*
X0364440Y0065254D02*
X0364040Y0065254D01*
X0390186Y0046066D02*
X0395966Y0046066D01*
X0395966Y0043667D02*
X0394122Y0043667D01*
D34*
X0389240Y0065055D02*
X0379823Y0074472D01*
X0379823Y0079101D01*
X0374823Y0079101D02*
X0374823Y0069472D01*
X0379240Y0065055D01*
X0378656Y0065639D01*
X0369823Y0065639D02*
X0369240Y0065055D01*
X0369823Y0065639D02*
X0369823Y0079101D01*
X0364823Y0079101D02*
X0364823Y0070639D01*
X0359240Y0065055D01*
X0356335Y0086306D02*
X0358885Y0088855D01*
X0365840Y0088855D01*
X0371099Y0088855D01*
X0371099Y0088766D01*
X0374823Y0092491D01*
X0374823Y0099573D01*
M02*
