G75*
%MOIN*%
%OFA0B0*%
%FSLAX25Y25*%
%IPPOS*%
%LPD*%
%AMOC8*
5,1,8,0,0,1.08239X$1,22.5*
%
%ADD10R,0.00900X0.07000*%
%ADD11R,0.02400X0.00900*%
%ADD12R,0.00900X0.02400*%
%ADD13R,0.05906X0.05118*%
%ADD14R,0.03937X0.04331*%
%ADD15R,0.03800X0.13200*%
%ADD16R,0.03937X0.05512*%
%ADD17R,0.04331X0.03937*%
%ADD18R,0.02362X0.08661*%
D10*
X0270174Y0135302D03*
X0272103Y0135302D03*
X0274032Y0135302D03*
D11*
X0277615Y0134534D03*
X0277615Y0136502D03*
X0277615Y0138471D03*
X0277615Y0140439D03*
X0266591Y0140439D03*
X0266591Y0138471D03*
X0266591Y0136502D03*
X0266591Y0134534D03*
D12*
X0270134Y0142014D03*
X0272103Y0142014D03*
X0274071Y0142014D03*
D13*
X0289071Y0138746D03*
X0298087Y0138746D03*
X0298087Y0146227D03*
X0289071Y0146227D03*
X0257103Y0146227D03*
X0257103Y0138746D03*
D14*
X0059780Y0074140D03*
X0051000Y0078432D03*
X0059780Y0080833D03*
X0051000Y0085124D03*
X0051158Y0097605D03*
X0044465Y0097605D03*
X0060843Y0097329D03*
X0067536Y0097329D03*
X0049544Y0123038D03*
X0042851Y0123038D03*
X0268756Y0149455D03*
X0275449Y0149455D03*
X0363871Y0116602D03*
X0370795Y0116602D03*
X0370795Y0109909D03*
X0363871Y0109909D03*
D15*
X0276753Y0120518D03*
X0267453Y0120518D03*
D16*
X0063914Y0113707D03*
X0056434Y0113707D03*
X0060174Y0105046D03*
D17*
X0048560Y0107014D03*
X0048560Y0113707D03*
D18*
X0364823Y0099573D03*
X0369823Y0099573D03*
X0374823Y0099573D03*
X0379823Y0099573D03*
X0379823Y0079101D03*
X0374823Y0079101D03*
X0369823Y0079101D03*
X0364823Y0079101D03*
M02*
