G75*
%MOIN*%
%OFA0B0*%
%FSLAX25Y25*%
%IPPOS*%
%LPD*%
%AMOC8*
5,1,8,0,0,1.08239X$1,22.5*
%
%ADD10C,0.00000*%
%ADD11C,0.12998*%
%ADD12R,0.01778X0.04337*%
%ADD13R,0.09061X0.02762*%
%ADD14R,0.01500X0.03500*%
%ADD15R,0.03500X0.01500*%
%ADD16R,0.08800X0.08800*%
%ADD17C,0.03400*%
%ADD18R,0.07400X0.01300*%
%ADD19R,0.01300X0.02800*%
%ADD20R,0.02800X0.01300*%
%ADD21R,0.05518X0.06306*%
%ADD22R,0.06306X0.05518*%
%ADD23R,0.04731X0.04337*%
%ADD24R,0.06699X0.08865*%
%ADD25C,0.00015*%
%ADD26C,0.03581*%
%ADD27C,0.03600*%
%ADD28R,0.13600X0.04200*%
%ADD29R,0.04337X0.04731*%
%ADD30R,0.03550X0.03550*%
%ADD31R,0.06700X0.05000*%
%ADD32R,0.07200X0.00600*%
%ADD33R,0.01300X0.07400*%
%ADD34R,0.04200X0.13600*%
%ADD35R,0.05124X0.01581*%
%ADD36R,0.01772X0.03543*%
%ADD37R,0.07200X0.04730*%
%ADD38R,0.08077X0.06306*%
%ADD39R,0.03156X0.03943*%
%ADD40R,0.05400X0.02900*%
%ADD41R,0.10400X0.05400*%
%ADD42R,0.01502X0.03746*%
%ADD43R,0.03746X0.01502*%
%ADD44R,0.08471X0.12408*%
%ADD45R,0.01306X0.04928*%
%ADD46R,0.03471X0.15557*%
%ADD47C,0.03187*%
%ADD48R,0.15557X0.22054*%
%ADD49R,0.02600X0.02400*%
%ADD50R,0.08000X0.13400*%
%ADD51R,0.02400X0.02600*%
%ADD52R,0.13400X0.08000*%
%ADD53R,0.05000X0.06700*%
%ADD54R,0.00600X0.07200*%
%ADD55R,0.11030X0.06699*%
%ADD56R,0.04337X0.05912*%
%ADD57R,0.07498X0.06699*%
%ADD58C,0.06400*%
%ADD59OC8,0.06400*%
%ADD60R,0.01654X0.03346*%
%ADD61R,0.03346X0.01654*%
%ADD62R,0.09449X0.09449*%
%ADD63C,0.11424*%
D10*
X0027103Y0012487D02*
X0027103Y0209337D01*
X0342063Y0209337D01*
X0342063Y0150282D01*
X0347969Y0150282D01*
X0346985Y0150282D01*
X0347969Y0150282D02*
X0398166Y0150282D01*
X0398166Y0012487D01*
X0342063Y0012487D01*
X0027103Y0012487D01*
X0119229Y0166030D02*
X0119231Y0166188D01*
X0119237Y0166346D01*
X0119247Y0166504D01*
X0119261Y0166662D01*
X0119279Y0166819D01*
X0119300Y0166976D01*
X0119326Y0167132D01*
X0119356Y0167288D01*
X0119389Y0167443D01*
X0119427Y0167596D01*
X0119468Y0167749D01*
X0119513Y0167901D01*
X0119562Y0168052D01*
X0119615Y0168201D01*
X0119671Y0168349D01*
X0119731Y0168495D01*
X0119795Y0168640D01*
X0119863Y0168783D01*
X0119934Y0168925D01*
X0120008Y0169065D01*
X0120086Y0169202D01*
X0120168Y0169338D01*
X0120252Y0169472D01*
X0120341Y0169603D01*
X0120432Y0169732D01*
X0120527Y0169859D01*
X0120624Y0169984D01*
X0120725Y0170106D01*
X0120829Y0170225D01*
X0120936Y0170342D01*
X0121046Y0170456D01*
X0121159Y0170567D01*
X0121274Y0170676D01*
X0121392Y0170781D01*
X0121513Y0170883D01*
X0121636Y0170983D01*
X0121762Y0171079D01*
X0121890Y0171172D01*
X0122020Y0171262D01*
X0122153Y0171348D01*
X0122288Y0171432D01*
X0122424Y0171511D01*
X0122563Y0171588D01*
X0122704Y0171660D01*
X0122846Y0171730D01*
X0122990Y0171795D01*
X0123136Y0171857D01*
X0123283Y0171915D01*
X0123432Y0171970D01*
X0123582Y0172021D01*
X0123733Y0172068D01*
X0123885Y0172111D01*
X0124038Y0172150D01*
X0124193Y0172186D01*
X0124348Y0172217D01*
X0124504Y0172245D01*
X0124660Y0172269D01*
X0124817Y0172289D01*
X0124975Y0172305D01*
X0125132Y0172317D01*
X0125291Y0172325D01*
X0125449Y0172329D01*
X0125607Y0172329D01*
X0125765Y0172325D01*
X0125924Y0172317D01*
X0126081Y0172305D01*
X0126239Y0172289D01*
X0126396Y0172269D01*
X0126552Y0172245D01*
X0126708Y0172217D01*
X0126863Y0172186D01*
X0127018Y0172150D01*
X0127171Y0172111D01*
X0127323Y0172068D01*
X0127474Y0172021D01*
X0127624Y0171970D01*
X0127773Y0171915D01*
X0127920Y0171857D01*
X0128066Y0171795D01*
X0128210Y0171730D01*
X0128352Y0171660D01*
X0128493Y0171588D01*
X0128632Y0171511D01*
X0128768Y0171432D01*
X0128903Y0171348D01*
X0129036Y0171262D01*
X0129166Y0171172D01*
X0129294Y0171079D01*
X0129420Y0170983D01*
X0129543Y0170883D01*
X0129664Y0170781D01*
X0129782Y0170676D01*
X0129897Y0170567D01*
X0130010Y0170456D01*
X0130120Y0170342D01*
X0130227Y0170225D01*
X0130331Y0170106D01*
X0130432Y0169984D01*
X0130529Y0169859D01*
X0130624Y0169732D01*
X0130715Y0169603D01*
X0130804Y0169472D01*
X0130888Y0169338D01*
X0130970Y0169202D01*
X0131048Y0169065D01*
X0131122Y0168925D01*
X0131193Y0168783D01*
X0131261Y0168640D01*
X0131325Y0168495D01*
X0131385Y0168349D01*
X0131441Y0168201D01*
X0131494Y0168052D01*
X0131543Y0167901D01*
X0131588Y0167749D01*
X0131629Y0167596D01*
X0131667Y0167443D01*
X0131700Y0167288D01*
X0131730Y0167132D01*
X0131756Y0166976D01*
X0131777Y0166819D01*
X0131795Y0166662D01*
X0131809Y0166504D01*
X0131819Y0166346D01*
X0131825Y0166188D01*
X0131827Y0166030D01*
X0131825Y0165872D01*
X0131819Y0165714D01*
X0131809Y0165556D01*
X0131795Y0165398D01*
X0131777Y0165241D01*
X0131756Y0165084D01*
X0131730Y0164928D01*
X0131700Y0164772D01*
X0131667Y0164617D01*
X0131629Y0164464D01*
X0131588Y0164311D01*
X0131543Y0164159D01*
X0131494Y0164008D01*
X0131441Y0163859D01*
X0131385Y0163711D01*
X0131325Y0163565D01*
X0131261Y0163420D01*
X0131193Y0163277D01*
X0131122Y0163135D01*
X0131048Y0162995D01*
X0130970Y0162858D01*
X0130888Y0162722D01*
X0130804Y0162588D01*
X0130715Y0162457D01*
X0130624Y0162328D01*
X0130529Y0162201D01*
X0130432Y0162076D01*
X0130331Y0161954D01*
X0130227Y0161835D01*
X0130120Y0161718D01*
X0130010Y0161604D01*
X0129897Y0161493D01*
X0129782Y0161384D01*
X0129664Y0161279D01*
X0129543Y0161177D01*
X0129420Y0161077D01*
X0129294Y0160981D01*
X0129166Y0160888D01*
X0129036Y0160798D01*
X0128903Y0160712D01*
X0128768Y0160628D01*
X0128632Y0160549D01*
X0128493Y0160472D01*
X0128352Y0160400D01*
X0128210Y0160330D01*
X0128066Y0160265D01*
X0127920Y0160203D01*
X0127773Y0160145D01*
X0127624Y0160090D01*
X0127474Y0160039D01*
X0127323Y0159992D01*
X0127171Y0159949D01*
X0127018Y0159910D01*
X0126863Y0159874D01*
X0126708Y0159843D01*
X0126552Y0159815D01*
X0126396Y0159791D01*
X0126239Y0159771D01*
X0126081Y0159755D01*
X0125924Y0159743D01*
X0125765Y0159735D01*
X0125607Y0159731D01*
X0125449Y0159731D01*
X0125291Y0159735D01*
X0125132Y0159743D01*
X0124975Y0159755D01*
X0124817Y0159771D01*
X0124660Y0159791D01*
X0124504Y0159815D01*
X0124348Y0159843D01*
X0124193Y0159874D01*
X0124038Y0159910D01*
X0123885Y0159949D01*
X0123733Y0159992D01*
X0123582Y0160039D01*
X0123432Y0160090D01*
X0123283Y0160145D01*
X0123136Y0160203D01*
X0122990Y0160265D01*
X0122846Y0160330D01*
X0122704Y0160400D01*
X0122563Y0160472D01*
X0122424Y0160549D01*
X0122288Y0160628D01*
X0122153Y0160712D01*
X0122020Y0160798D01*
X0121890Y0160888D01*
X0121762Y0160981D01*
X0121636Y0161077D01*
X0121513Y0161177D01*
X0121392Y0161279D01*
X0121274Y0161384D01*
X0121159Y0161493D01*
X0121046Y0161604D01*
X0120936Y0161718D01*
X0120829Y0161835D01*
X0120725Y0161954D01*
X0120624Y0162076D01*
X0120527Y0162201D01*
X0120432Y0162328D01*
X0120341Y0162457D01*
X0120252Y0162588D01*
X0120168Y0162722D01*
X0120086Y0162858D01*
X0120008Y0162995D01*
X0119934Y0163135D01*
X0119863Y0163277D01*
X0119795Y0163420D01*
X0119731Y0163565D01*
X0119671Y0163711D01*
X0119615Y0163859D01*
X0119562Y0164008D01*
X0119513Y0164159D01*
X0119468Y0164311D01*
X0119427Y0164464D01*
X0119389Y0164617D01*
X0119356Y0164772D01*
X0119326Y0164928D01*
X0119300Y0165084D01*
X0119279Y0165241D01*
X0119261Y0165398D01*
X0119247Y0165556D01*
X0119237Y0165714D01*
X0119231Y0165872D01*
X0119229Y0166030D01*
X0355252Y0134534D02*
X0355254Y0134682D01*
X0355260Y0134830D01*
X0355270Y0134978D01*
X0355284Y0135125D01*
X0355302Y0135272D01*
X0355323Y0135418D01*
X0355349Y0135564D01*
X0355379Y0135709D01*
X0355412Y0135853D01*
X0355450Y0135996D01*
X0355491Y0136138D01*
X0355536Y0136279D01*
X0355584Y0136419D01*
X0355637Y0136558D01*
X0355693Y0136695D01*
X0355753Y0136830D01*
X0355816Y0136964D01*
X0355883Y0137096D01*
X0355954Y0137226D01*
X0356028Y0137354D01*
X0356105Y0137480D01*
X0356186Y0137604D01*
X0356270Y0137726D01*
X0356357Y0137845D01*
X0356448Y0137962D01*
X0356542Y0138077D01*
X0356638Y0138189D01*
X0356738Y0138299D01*
X0356840Y0138405D01*
X0356946Y0138509D01*
X0357054Y0138610D01*
X0357165Y0138708D01*
X0357278Y0138804D01*
X0357394Y0138896D01*
X0357512Y0138985D01*
X0357633Y0139070D01*
X0357756Y0139153D01*
X0357881Y0139232D01*
X0358008Y0139308D01*
X0358137Y0139380D01*
X0358268Y0139449D01*
X0358401Y0139514D01*
X0358536Y0139575D01*
X0358672Y0139633D01*
X0358809Y0139688D01*
X0358948Y0139738D01*
X0359089Y0139785D01*
X0359230Y0139828D01*
X0359373Y0139868D01*
X0359517Y0139903D01*
X0359661Y0139935D01*
X0359807Y0139962D01*
X0359953Y0139986D01*
X0360100Y0140006D01*
X0360247Y0140022D01*
X0360394Y0140034D01*
X0360542Y0140042D01*
X0360690Y0140046D01*
X0360838Y0140046D01*
X0360986Y0140042D01*
X0361134Y0140034D01*
X0361281Y0140022D01*
X0361428Y0140006D01*
X0361575Y0139986D01*
X0361721Y0139962D01*
X0361867Y0139935D01*
X0362011Y0139903D01*
X0362155Y0139868D01*
X0362298Y0139828D01*
X0362439Y0139785D01*
X0362580Y0139738D01*
X0362719Y0139688D01*
X0362856Y0139633D01*
X0362992Y0139575D01*
X0363127Y0139514D01*
X0363260Y0139449D01*
X0363391Y0139380D01*
X0363520Y0139308D01*
X0363647Y0139232D01*
X0363772Y0139153D01*
X0363895Y0139070D01*
X0364016Y0138985D01*
X0364134Y0138896D01*
X0364250Y0138804D01*
X0364363Y0138708D01*
X0364474Y0138610D01*
X0364582Y0138509D01*
X0364688Y0138405D01*
X0364790Y0138299D01*
X0364890Y0138189D01*
X0364986Y0138077D01*
X0365080Y0137962D01*
X0365171Y0137845D01*
X0365258Y0137726D01*
X0365342Y0137604D01*
X0365423Y0137480D01*
X0365500Y0137354D01*
X0365574Y0137226D01*
X0365645Y0137096D01*
X0365712Y0136964D01*
X0365775Y0136830D01*
X0365835Y0136695D01*
X0365891Y0136558D01*
X0365944Y0136419D01*
X0365992Y0136279D01*
X0366037Y0136138D01*
X0366078Y0135996D01*
X0366116Y0135853D01*
X0366149Y0135709D01*
X0366179Y0135564D01*
X0366205Y0135418D01*
X0366226Y0135272D01*
X0366244Y0135125D01*
X0366258Y0134978D01*
X0366268Y0134830D01*
X0366274Y0134682D01*
X0366276Y0134534D01*
X0366274Y0134386D01*
X0366268Y0134238D01*
X0366258Y0134090D01*
X0366244Y0133943D01*
X0366226Y0133796D01*
X0366205Y0133650D01*
X0366179Y0133504D01*
X0366149Y0133359D01*
X0366116Y0133215D01*
X0366078Y0133072D01*
X0366037Y0132930D01*
X0365992Y0132789D01*
X0365944Y0132649D01*
X0365891Y0132510D01*
X0365835Y0132373D01*
X0365775Y0132238D01*
X0365712Y0132104D01*
X0365645Y0131972D01*
X0365574Y0131842D01*
X0365500Y0131714D01*
X0365423Y0131588D01*
X0365342Y0131464D01*
X0365258Y0131342D01*
X0365171Y0131223D01*
X0365080Y0131106D01*
X0364986Y0130991D01*
X0364890Y0130879D01*
X0364790Y0130769D01*
X0364688Y0130663D01*
X0364582Y0130559D01*
X0364474Y0130458D01*
X0364363Y0130360D01*
X0364250Y0130264D01*
X0364134Y0130172D01*
X0364016Y0130083D01*
X0363895Y0129998D01*
X0363772Y0129915D01*
X0363647Y0129836D01*
X0363520Y0129760D01*
X0363391Y0129688D01*
X0363260Y0129619D01*
X0363127Y0129554D01*
X0362992Y0129493D01*
X0362856Y0129435D01*
X0362719Y0129380D01*
X0362580Y0129330D01*
X0362439Y0129283D01*
X0362298Y0129240D01*
X0362155Y0129200D01*
X0362011Y0129165D01*
X0361867Y0129133D01*
X0361721Y0129106D01*
X0361575Y0129082D01*
X0361428Y0129062D01*
X0361281Y0129046D01*
X0361134Y0129034D01*
X0360986Y0129026D01*
X0360838Y0129022D01*
X0360690Y0129022D01*
X0360542Y0129026D01*
X0360394Y0129034D01*
X0360247Y0129046D01*
X0360100Y0129062D01*
X0359953Y0129082D01*
X0359807Y0129106D01*
X0359661Y0129133D01*
X0359517Y0129165D01*
X0359373Y0129200D01*
X0359230Y0129240D01*
X0359089Y0129283D01*
X0358948Y0129330D01*
X0358809Y0129380D01*
X0358672Y0129435D01*
X0358536Y0129493D01*
X0358401Y0129554D01*
X0358268Y0129619D01*
X0358137Y0129688D01*
X0358008Y0129760D01*
X0357881Y0129836D01*
X0357756Y0129915D01*
X0357633Y0129998D01*
X0357512Y0130083D01*
X0357394Y0130172D01*
X0357278Y0130264D01*
X0357165Y0130360D01*
X0357054Y0130458D01*
X0356946Y0130559D01*
X0356840Y0130663D01*
X0356738Y0130769D01*
X0356638Y0130879D01*
X0356542Y0130991D01*
X0356448Y0131106D01*
X0356357Y0131223D01*
X0356270Y0131342D01*
X0356186Y0131464D01*
X0356105Y0131588D01*
X0356028Y0131714D01*
X0355954Y0131842D01*
X0355883Y0131972D01*
X0355816Y0132104D01*
X0355753Y0132238D01*
X0355693Y0132373D01*
X0355637Y0132510D01*
X0355584Y0132649D01*
X0355536Y0132789D01*
X0355491Y0132930D01*
X0355450Y0133072D01*
X0355412Y0133215D01*
X0355379Y0133359D01*
X0355349Y0133504D01*
X0355323Y0133650D01*
X0355302Y0133796D01*
X0355284Y0133943D01*
X0355270Y0134090D01*
X0355260Y0134238D01*
X0355254Y0134386D01*
X0355252Y0134534D01*
X0378874Y0134534D02*
X0378876Y0134682D01*
X0378882Y0134830D01*
X0378892Y0134978D01*
X0378906Y0135125D01*
X0378924Y0135272D01*
X0378945Y0135418D01*
X0378971Y0135564D01*
X0379001Y0135709D01*
X0379034Y0135853D01*
X0379072Y0135996D01*
X0379113Y0136138D01*
X0379158Y0136279D01*
X0379206Y0136419D01*
X0379259Y0136558D01*
X0379315Y0136695D01*
X0379375Y0136830D01*
X0379438Y0136964D01*
X0379505Y0137096D01*
X0379576Y0137226D01*
X0379650Y0137354D01*
X0379727Y0137480D01*
X0379808Y0137604D01*
X0379892Y0137726D01*
X0379979Y0137845D01*
X0380070Y0137962D01*
X0380164Y0138077D01*
X0380260Y0138189D01*
X0380360Y0138299D01*
X0380462Y0138405D01*
X0380568Y0138509D01*
X0380676Y0138610D01*
X0380787Y0138708D01*
X0380900Y0138804D01*
X0381016Y0138896D01*
X0381134Y0138985D01*
X0381255Y0139070D01*
X0381378Y0139153D01*
X0381503Y0139232D01*
X0381630Y0139308D01*
X0381759Y0139380D01*
X0381890Y0139449D01*
X0382023Y0139514D01*
X0382158Y0139575D01*
X0382294Y0139633D01*
X0382431Y0139688D01*
X0382570Y0139738D01*
X0382711Y0139785D01*
X0382852Y0139828D01*
X0382995Y0139868D01*
X0383139Y0139903D01*
X0383283Y0139935D01*
X0383429Y0139962D01*
X0383575Y0139986D01*
X0383722Y0140006D01*
X0383869Y0140022D01*
X0384016Y0140034D01*
X0384164Y0140042D01*
X0384312Y0140046D01*
X0384460Y0140046D01*
X0384608Y0140042D01*
X0384756Y0140034D01*
X0384903Y0140022D01*
X0385050Y0140006D01*
X0385197Y0139986D01*
X0385343Y0139962D01*
X0385489Y0139935D01*
X0385633Y0139903D01*
X0385777Y0139868D01*
X0385920Y0139828D01*
X0386061Y0139785D01*
X0386202Y0139738D01*
X0386341Y0139688D01*
X0386478Y0139633D01*
X0386614Y0139575D01*
X0386749Y0139514D01*
X0386882Y0139449D01*
X0387013Y0139380D01*
X0387142Y0139308D01*
X0387269Y0139232D01*
X0387394Y0139153D01*
X0387517Y0139070D01*
X0387638Y0138985D01*
X0387756Y0138896D01*
X0387872Y0138804D01*
X0387985Y0138708D01*
X0388096Y0138610D01*
X0388204Y0138509D01*
X0388310Y0138405D01*
X0388412Y0138299D01*
X0388512Y0138189D01*
X0388608Y0138077D01*
X0388702Y0137962D01*
X0388793Y0137845D01*
X0388880Y0137726D01*
X0388964Y0137604D01*
X0389045Y0137480D01*
X0389122Y0137354D01*
X0389196Y0137226D01*
X0389267Y0137096D01*
X0389334Y0136964D01*
X0389397Y0136830D01*
X0389457Y0136695D01*
X0389513Y0136558D01*
X0389566Y0136419D01*
X0389614Y0136279D01*
X0389659Y0136138D01*
X0389700Y0135996D01*
X0389738Y0135853D01*
X0389771Y0135709D01*
X0389801Y0135564D01*
X0389827Y0135418D01*
X0389848Y0135272D01*
X0389866Y0135125D01*
X0389880Y0134978D01*
X0389890Y0134830D01*
X0389896Y0134682D01*
X0389898Y0134534D01*
X0389896Y0134386D01*
X0389890Y0134238D01*
X0389880Y0134090D01*
X0389866Y0133943D01*
X0389848Y0133796D01*
X0389827Y0133650D01*
X0389801Y0133504D01*
X0389771Y0133359D01*
X0389738Y0133215D01*
X0389700Y0133072D01*
X0389659Y0132930D01*
X0389614Y0132789D01*
X0389566Y0132649D01*
X0389513Y0132510D01*
X0389457Y0132373D01*
X0389397Y0132238D01*
X0389334Y0132104D01*
X0389267Y0131972D01*
X0389196Y0131842D01*
X0389122Y0131714D01*
X0389045Y0131588D01*
X0388964Y0131464D01*
X0388880Y0131342D01*
X0388793Y0131223D01*
X0388702Y0131106D01*
X0388608Y0130991D01*
X0388512Y0130879D01*
X0388412Y0130769D01*
X0388310Y0130663D01*
X0388204Y0130559D01*
X0388096Y0130458D01*
X0387985Y0130360D01*
X0387872Y0130264D01*
X0387756Y0130172D01*
X0387638Y0130083D01*
X0387517Y0129998D01*
X0387394Y0129915D01*
X0387269Y0129836D01*
X0387142Y0129760D01*
X0387013Y0129688D01*
X0386882Y0129619D01*
X0386749Y0129554D01*
X0386614Y0129493D01*
X0386478Y0129435D01*
X0386341Y0129380D01*
X0386202Y0129330D01*
X0386061Y0129283D01*
X0385920Y0129240D01*
X0385777Y0129200D01*
X0385633Y0129165D01*
X0385489Y0129133D01*
X0385343Y0129106D01*
X0385197Y0129082D01*
X0385050Y0129062D01*
X0384903Y0129046D01*
X0384756Y0129034D01*
X0384608Y0129026D01*
X0384460Y0129022D01*
X0384312Y0129022D01*
X0384164Y0129026D01*
X0384016Y0129034D01*
X0383869Y0129046D01*
X0383722Y0129062D01*
X0383575Y0129082D01*
X0383429Y0129106D01*
X0383283Y0129133D01*
X0383139Y0129165D01*
X0382995Y0129200D01*
X0382852Y0129240D01*
X0382711Y0129283D01*
X0382570Y0129330D01*
X0382431Y0129380D01*
X0382294Y0129435D01*
X0382158Y0129493D01*
X0382023Y0129554D01*
X0381890Y0129619D01*
X0381759Y0129688D01*
X0381630Y0129760D01*
X0381503Y0129836D01*
X0381378Y0129915D01*
X0381255Y0129998D01*
X0381134Y0130083D01*
X0381016Y0130172D01*
X0380900Y0130264D01*
X0380787Y0130360D01*
X0380676Y0130458D01*
X0380568Y0130559D01*
X0380462Y0130663D01*
X0380360Y0130769D01*
X0380260Y0130879D01*
X0380164Y0130991D01*
X0380070Y0131106D01*
X0379979Y0131223D01*
X0379892Y0131342D01*
X0379808Y0131464D01*
X0379727Y0131588D01*
X0379650Y0131714D01*
X0379576Y0131842D01*
X0379505Y0131972D01*
X0379438Y0132104D01*
X0379375Y0132238D01*
X0379315Y0132373D01*
X0379259Y0132510D01*
X0379206Y0132649D01*
X0379158Y0132789D01*
X0379113Y0132930D01*
X0379072Y0133072D01*
X0379034Y0133215D01*
X0379001Y0133359D01*
X0378971Y0133504D01*
X0378945Y0133650D01*
X0378924Y0133796D01*
X0378906Y0133943D01*
X0378892Y0134090D01*
X0378882Y0134238D01*
X0378876Y0134386D01*
X0378874Y0134534D01*
X0378874Y0032172D02*
X0378876Y0032320D01*
X0378882Y0032468D01*
X0378892Y0032616D01*
X0378906Y0032763D01*
X0378924Y0032910D01*
X0378945Y0033056D01*
X0378971Y0033202D01*
X0379001Y0033347D01*
X0379034Y0033491D01*
X0379072Y0033634D01*
X0379113Y0033776D01*
X0379158Y0033917D01*
X0379206Y0034057D01*
X0379259Y0034196D01*
X0379315Y0034333D01*
X0379375Y0034468D01*
X0379438Y0034602D01*
X0379505Y0034734D01*
X0379576Y0034864D01*
X0379650Y0034992D01*
X0379727Y0035118D01*
X0379808Y0035242D01*
X0379892Y0035364D01*
X0379979Y0035483D01*
X0380070Y0035600D01*
X0380164Y0035715D01*
X0380260Y0035827D01*
X0380360Y0035937D01*
X0380462Y0036043D01*
X0380568Y0036147D01*
X0380676Y0036248D01*
X0380787Y0036346D01*
X0380900Y0036442D01*
X0381016Y0036534D01*
X0381134Y0036623D01*
X0381255Y0036708D01*
X0381378Y0036791D01*
X0381503Y0036870D01*
X0381630Y0036946D01*
X0381759Y0037018D01*
X0381890Y0037087D01*
X0382023Y0037152D01*
X0382158Y0037213D01*
X0382294Y0037271D01*
X0382431Y0037326D01*
X0382570Y0037376D01*
X0382711Y0037423D01*
X0382852Y0037466D01*
X0382995Y0037506D01*
X0383139Y0037541D01*
X0383283Y0037573D01*
X0383429Y0037600D01*
X0383575Y0037624D01*
X0383722Y0037644D01*
X0383869Y0037660D01*
X0384016Y0037672D01*
X0384164Y0037680D01*
X0384312Y0037684D01*
X0384460Y0037684D01*
X0384608Y0037680D01*
X0384756Y0037672D01*
X0384903Y0037660D01*
X0385050Y0037644D01*
X0385197Y0037624D01*
X0385343Y0037600D01*
X0385489Y0037573D01*
X0385633Y0037541D01*
X0385777Y0037506D01*
X0385920Y0037466D01*
X0386061Y0037423D01*
X0386202Y0037376D01*
X0386341Y0037326D01*
X0386478Y0037271D01*
X0386614Y0037213D01*
X0386749Y0037152D01*
X0386882Y0037087D01*
X0387013Y0037018D01*
X0387142Y0036946D01*
X0387269Y0036870D01*
X0387394Y0036791D01*
X0387517Y0036708D01*
X0387638Y0036623D01*
X0387756Y0036534D01*
X0387872Y0036442D01*
X0387985Y0036346D01*
X0388096Y0036248D01*
X0388204Y0036147D01*
X0388310Y0036043D01*
X0388412Y0035937D01*
X0388512Y0035827D01*
X0388608Y0035715D01*
X0388702Y0035600D01*
X0388793Y0035483D01*
X0388880Y0035364D01*
X0388964Y0035242D01*
X0389045Y0035118D01*
X0389122Y0034992D01*
X0389196Y0034864D01*
X0389267Y0034734D01*
X0389334Y0034602D01*
X0389397Y0034468D01*
X0389457Y0034333D01*
X0389513Y0034196D01*
X0389566Y0034057D01*
X0389614Y0033917D01*
X0389659Y0033776D01*
X0389700Y0033634D01*
X0389738Y0033491D01*
X0389771Y0033347D01*
X0389801Y0033202D01*
X0389827Y0033056D01*
X0389848Y0032910D01*
X0389866Y0032763D01*
X0389880Y0032616D01*
X0389890Y0032468D01*
X0389896Y0032320D01*
X0389898Y0032172D01*
X0389896Y0032024D01*
X0389890Y0031876D01*
X0389880Y0031728D01*
X0389866Y0031581D01*
X0389848Y0031434D01*
X0389827Y0031288D01*
X0389801Y0031142D01*
X0389771Y0030997D01*
X0389738Y0030853D01*
X0389700Y0030710D01*
X0389659Y0030568D01*
X0389614Y0030427D01*
X0389566Y0030287D01*
X0389513Y0030148D01*
X0389457Y0030011D01*
X0389397Y0029876D01*
X0389334Y0029742D01*
X0389267Y0029610D01*
X0389196Y0029480D01*
X0389122Y0029352D01*
X0389045Y0029226D01*
X0388964Y0029102D01*
X0388880Y0028980D01*
X0388793Y0028861D01*
X0388702Y0028744D01*
X0388608Y0028629D01*
X0388512Y0028517D01*
X0388412Y0028407D01*
X0388310Y0028301D01*
X0388204Y0028197D01*
X0388096Y0028096D01*
X0387985Y0027998D01*
X0387872Y0027902D01*
X0387756Y0027810D01*
X0387638Y0027721D01*
X0387517Y0027636D01*
X0387394Y0027553D01*
X0387269Y0027474D01*
X0387142Y0027398D01*
X0387013Y0027326D01*
X0386882Y0027257D01*
X0386749Y0027192D01*
X0386614Y0027131D01*
X0386478Y0027073D01*
X0386341Y0027018D01*
X0386202Y0026968D01*
X0386061Y0026921D01*
X0385920Y0026878D01*
X0385777Y0026838D01*
X0385633Y0026803D01*
X0385489Y0026771D01*
X0385343Y0026744D01*
X0385197Y0026720D01*
X0385050Y0026700D01*
X0384903Y0026684D01*
X0384756Y0026672D01*
X0384608Y0026664D01*
X0384460Y0026660D01*
X0384312Y0026660D01*
X0384164Y0026664D01*
X0384016Y0026672D01*
X0383869Y0026684D01*
X0383722Y0026700D01*
X0383575Y0026720D01*
X0383429Y0026744D01*
X0383283Y0026771D01*
X0383139Y0026803D01*
X0382995Y0026838D01*
X0382852Y0026878D01*
X0382711Y0026921D01*
X0382570Y0026968D01*
X0382431Y0027018D01*
X0382294Y0027073D01*
X0382158Y0027131D01*
X0382023Y0027192D01*
X0381890Y0027257D01*
X0381759Y0027326D01*
X0381630Y0027398D01*
X0381503Y0027474D01*
X0381378Y0027553D01*
X0381255Y0027636D01*
X0381134Y0027721D01*
X0381016Y0027810D01*
X0380900Y0027902D01*
X0380787Y0027998D01*
X0380676Y0028096D01*
X0380568Y0028197D01*
X0380462Y0028301D01*
X0380360Y0028407D01*
X0380260Y0028517D01*
X0380164Y0028629D01*
X0380070Y0028744D01*
X0379979Y0028861D01*
X0379892Y0028980D01*
X0379808Y0029102D01*
X0379727Y0029226D01*
X0379650Y0029352D01*
X0379576Y0029480D01*
X0379505Y0029610D01*
X0379438Y0029742D01*
X0379375Y0029876D01*
X0379315Y0030011D01*
X0379259Y0030148D01*
X0379206Y0030287D01*
X0379158Y0030427D01*
X0379113Y0030568D01*
X0379072Y0030710D01*
X0379034Y0030853D01*
X0379001Y0030997D01*
X0378971Y0031142D01*
X0378945Y0031288D01*
X0378924Y0031434D01*
X0378906Y0031581D01*
X0378892Y0031728D01*
X0378882Y0031876D01*
X0378876Y0032024D01*
X0378874Y0032172D01*
X0355252Y0032172D02*
X0355254Y0032320D01*
X0355260Y0032468D01*
X0355270Y0032616D01*
X0355284Y0032763D01*
X0355302Y0032910D01*
X0355323Y0033056D01*
X0355349Y0033202D01*
X0355379Y0033347D01*
X0355412Y0033491D01*
X0355450Y0033634D01*
X0355491Y0033776D01*
X0355536Y0033917D01*
X0355584Y0034057D01*
X0355637Y0034196D01*
X0355693Y0034333D01*
X0355753Y0034468D01*
X0355816Y0034602D01*
X0355883Y0034734D01*
X0355954Y0034864D01*
X0356028Y0034992D01*
X0356105Y0035118D01*
X0356186Y0035242D01*
X0356270Y0035364D01*
X0356357Y0035483D01*
X0356448Y0035600D01*
X0356542Y0035715D01*
X0356638Y0035827D01*
X0356738Y0035937D01*
X0356840Y0036043D01*
X0356946Y0036147D01*
X0357054Y0036248D01*
X0357165Y0036346D01*
X0357278Y0036442D01*
X0357394Y0036534D01*
X0357512Y0036623D01*
X0357633Y0036708D01*
X0357756Y0036791D01*
X0357881Y0036870D01*
X0358008Y0036946D01*
X0358137Y0037018D01*
X0358268Y0037087D01*
X0358401Y0037152D01*
X0358536Y0037213D01*
X0358672Y0037271D01*
X0358809Y0037326D01*
X0358948Y0037376D01*
X0359089Y0037423D01*
X0359230Y0037466D01*
X0359373Y0037506D01*
X0359517Y0037541D01*
X0359661Y0037573D01*
X0359807Y0037600D01*
X0359953Y0037624D01*
X0360100Y0037644D01*
X0360247Y0037660D01*
X0360394Y0037672D01*
X0360542Y0037680D01*
X0360690Y0037684D01*
X0360838Y0037684D01*
X0360986Y0037680D01*
X0361134Y0037672D01*
X0361281Y0037660D01*
X0361428Y0037644D01*
X0361575Y0037624D01*
X0361721Y0037600D01*
X0361867Y0037573D01*
X0362011Y0037541D01*
X0362155Y0037506D01*
X0362298Y0037466D01*
X0362439Y0037423D01*
X0362580Y0037376D01*
X0362719Y0037326D01*
X0362856Y0037271D01*
X0362992Y0037213D01*
X0363127Y0037152D01*
X0363260Y0037087D01*
X0363391Y0037018D01*
X0363520Y0036946D01*
X0363647Y0036870D01*
X0363772Y0036791D01*
X0363895Y0036708D01*
X0364016Y0036623D01*
X0364134Y0036534D01*
X0364250Y0036442D01*
X0364363Y0036346D01*
X0364474Y0036248D01*
X0364582Y0036147D01*
X0364688Y0036043D01*
X0364790Y0035937D01*
X0364890Y0035827D01*
X0364986Y0035715D01*
X0365080Y0035600D01*
X0365171Y0035483D01*
X0365258Y0035364D01*
X0365342Y0035242D01*
X0365423Y0035118D01*
X0365500Y0034992D01*
X0365574Y0034864D01*
X0365645Y0034734D01*
X0365712Y0034602D01*
X0365775Y0034468D01*
X0365835Y0034333D01*
X0365891Y0034196D01*
X0365944Y0034057D01*
X0365992Y0033917D01*
X0366037Y0033776D01*
X0366078Y0033634D01*
X0366116Y0033491D01*
X0366149Y0033347D01*
X0366179Y0033202D01*
X0366205Y0033056D01*
X0366226Y0032910D01*
X0366244Y0032763D01*
X0366258Y0032616D01*
X0366268Y0032468D01*
X0366274Y0032320D01*
X0366276Y0032172D01*
X0366274Y0032024D01*
X0366268Y0031876D01*
X0366258Y0031728D01*
X0366244Y0031581D01*
X0366226Y0031434D01*
X0366205Y0031288D01*
X0366179Y0031142D01*
X0366149Y0030997D01*
X0366116Y0030853D01*
X0366078Y0030710D01*
X0366037Y0030568D01*
X0365992Y0030427D01*
X0365944Y0030287D01*
X0365891Y0030148D01*
X0365835Y0030011D01*
X0365775Y0029876D01*
X0365712Y0029742D01*
X0365645Y0029610D01*
X0365574Y0029480D01*
X0365500Y0029352D01*
X0365423Y0029226D01*
X0365342Y0029102D01*
X0365258Y0028980D01*
X0365171Y0028861D01*
X0365080Y0028744D01*
X0364986Y0028629D01*
X0364890Y0028517D01*
X0364790Y0028407D01*
X0364688Y0028301D01*
X0364582Y0028197D01*
X0364474Y0028096D01*
X0364363Y0027998D01*
X0364250Y0027902D01*
X0364134Y0027810D01*
X0364016Y0027721D01*
X0363895Y0027636D01*
X0363772Y0027553D01*
X0363647Y0027474D01*
X0363520Y0027398D01*
X0363391Y0027326D01*
X0363260Y0027257D01*
X0363127Y0027192D01*
X0362992Y0027131D01*
X0362856Y0027073D01*
X0362719Y0027018D01*
X0362580Y0026968D01*
X0362439Y0026921D01*
X0362298Y0026878D01*
X0362155Y0026838D01*
X0362011Y0026803D01*
X0361867Y0026771D01*
X0361721Y0026744D01*
X0361575Y0026720D01*
X0361428Y0026700D01*
X0361281Y0026684D01*
X0361134Y0026672D01*
X0360986Y0026664D01*
X0360838Y0026660D01*
X0360690Y0026660D01*
X0360542Y0026664D01*
X0360394Y0026672D01*
X0360247Y0026684D01*
X0360100Y0026700D01*
X0359953Y0026720D01*
X0359807Y0026744D01*
X0359661Y0026771D01*
X0359517Y0026803D01*
X0359373Y0026838D01*
X0359230Y0026878D01*
X0359089Y0026921D01*
X0358948Y0026968D01*
X0358809Y0027018D01*
X0358672Y0027073D01*
X0358536Y0027131D01*
X0358401Y0027192D01*
X0358268Y0027257D01*
X0358137Y0027326D01*
X0358008Y0027398D01*
X0357881Y0027474D01*
X0357756Y0027553D01*
X0357633Y0027636D01*
X0357512Y0027721D01*
X0357394Y0027810D01*
X0357278Y0027902D01*
X0357165Y0027998D01*
X0357054Y0028096D01*
X0356946Y0028197D01*
X0356840Y0028301D01*
X0356738Y0028407D01*
X0356638Y0028517D01*
X0356542Y0028629D01*
X0356448Y0028744D01*
X0356357Y0028861D01*
X0356270Y0028980D01*
X0356186Y0029102D01*
X0356105Y0029226D01*
X0356028Y0029352D01*
X0355954Y0029480D01*
X0355883Y0029610D01*
X0355816Y0029742D01*
X0355753Y0029876D01*
X0355693Y0030011D01*
X0355637Y0030148D01*
X0355584Y0030287D01*
X0355536Y0030427D01*
X0355491Y0030568D01*
X0355450Y0030710D01*
X0355412Y0030853D01*
X0355379Y0030997D01*
X0355349Y0031142D01*
X0355323Y0031288D01*
X0355302Y0031434D01*
X0355284Y0031581D01*
X0355270Y0031728D01*
X0355260Y0031876D01*
X0355254Y0032024D01*
X0355252Y0032172D01*
X0320016Y0028235D02*
X0320018Y0028393D01*
X0320024Y0028551D01*
X0320034Y0028709D01*
X0320048Y0028867D01*
X0320066Y0029024D01*
X0320087Y0029181D01*
X0320113Y0029337D01*
X0320143Y0029493D01*
X0320176Y0029648D01*
X0320214Y0029801D01*
X0320255Y0029954D01*
X0320300Y0030106D01*
X0320349Y0030257D01*
X0320402Y0030406D01*
X0320458Y0030554D01*
X0320518Y0030700D01*
X0320582Y0030845D01*
X0320650Y0030988D01*
X0320721Y0031130D01*
X0320795Y0031270D01*
X0320873Y0031407D01*
X0320955Y0031543D01*
X0321039Y0031677D01*
X0321128Y0031808D01*
X0321219Y0031937D01*
X0321314Y0032064D01*
X0321411Y0032189D01*
X0321512Y0032311D01*
X0321616Y0032430D01*
X0321723Y0032547D01*
X0321833Y0032661D01*
X0321946Y0032772D01*
X0322061Y0032881D01*
X0322179Y0032986D01*
X0322300Y0033088D01*
X0322423Y0033188D01*
X0322549Y0033284D01*
X0322677Y0033377D01*
X0322807Y0033467D01*
X0322940Y0033553D01*
X0323075Y0033637D01*
X0323211Y0033716D01*
X0323350Y0033793D01*
X0323491Y0033865D01*
X0323633Y0033935D01*
X0323777Y0034000D01*
X0323923Y0034062D01*
X0324070Y0034120D01*
X0324219Y0034175D01*
X0324369Y0034226D01*
X0324520Y0034273D01*
X0324672Y0034316D01*
X0324825Y0034355D01*
X0324980Y0034391D01*
X0325135Y0034422D01*
X0325291Y0034450D01*
X0325447Y0034474D01*
X0325604Y0034494D01*
X0325762Y0034510D01*
X0325919Y0034522D01*
X0326078Y0034530D01*
X0326236Y0034534D01*
X0326394Y0034534D01*
X0326552Y0034530D01*
X0326711Y0034522D01*
X0326868Y0034510D01*
X0327026Y0034494D01*
X0327183Y0034474D01*
X0327339Y0034450D01*
X0327495Y0034422D01*
X0327650Y0034391D01*
X0327805Y0034355D01*
X0327958Y0034316D01*
X0328110Y0034273D01*
X0328261Y0034226D01*
X0328411Y0034175D01*
X0328560Y0034120D01*
X0328707Y0034062D01*
X0328853Y0034000D01*
X0328997Y0033935D01*
X0329139Y0033865D01*
X0329280Y0033793D01*
X0329419Y0033716D01*
X0329555Y0033637D01*
X0329690Y0033553D01*
X0329823Y0033467D01*
X0329953Y0033377D01*
X0330081Y0033284D01*
X0330207Y0033188D01*
X0330330Y0033088D01*
X0330451Y0032986D01*
X0330569Y0032881D01*
X0330684Y0032772D01*
X0330797Y0032661D01*
X0330907Y0032547D01*
X0331014Y0032430D01*
X0331118Y0032311D01*
X0331219Y0032189D01*
X0331316Y0032064D01*
X0331411Y0031937D01*
X0331502Y0031808D01*
X0331591Y0031677D01*
X0331675Y0031543D01*
X0331757Y0031407D01*
X0331835Y0031270D01*
X0331909Y0031130D01*
X0331980Y0030988D01*
X0332048Y0030845D01*
X0332112Y0030700D01*
X0332172Y0030554D01*
X0332228Y0030406D01*
X0332281Y0030257D01*
X0332330Y0030106D01*
X0332375Y0029954D01*
X0332416Y0029801D01*
X0332454Y0029648D01*
X0332487Y0029493D01*
X0332517Y0029337D01*
X0332543Y0029181D01*
X0332564Y0029024D01*
X0332582Y0028867D01*
X0332596Y0028709D01*
X0332606Y0028551D01*
X0332612Y0028393D01*
X0332614Y0028235D01*
X0332612Y0028077D01*
X0332606Y0027919D01*
X0332596Y0027761D01*
X0332582Y0027603D01*
X0332564Y0027446D01*
X0332543Y0027289D01*
X0332517Y0027133D01*
X0332487Y0026977D01*
X0332454Y0026822D01*
X0332416Y0026669D01*
X0332375Y0026516D01*
X0332330Y0026364D01*
X0332281Y0026213D01*
X0332228Y0026064D01*
X0332172Y0025916D01*
X0332112Y0025770D01*
X0332048Y0025625D01*
X0331980Y0025482D01*
X0331909Y0025340D01*
X0331835Y0025200D01*
X0331757Y0025063D01*
X0331675Y0024927D01*
X0331591Y0024793D01*
X0331502Y0024662D01*
X0331411Y0024533D01*
X0331316Y0024406D01*
X0331219Y0024281D01*
X0331118Y0024159D01*
X0331014Y0024040D01*
X0330907Y0023923D01*
X0330797Y0023809D01*
X0330684Y0023698D01*
X0330569Y0023589D01*
X0330451Y0023484D01*
X0330330Y0023382D01*
X0330207Y0023282D01*
X0330081Y0023186D01*
X0329953Y0023093D01*
X0329823Y0023003D01*
X0329690Y0022917D01*
X0329555Y0022833D01*
X0329419Y0022754D01*
X0329280Y0022677D01*
X0329139Y0022605D01*
X0328997Y0022535D01*
X0328853Y0022470D01*
X0328707Y0022408D01*
X0328560Y0022350D01*
X0328411Y0022295D01*
X0328261Y0022244D01*
X0328110Y0022197D01*
X0327958Y0022154D01*
X0327805Y0022115D01*
X0327650Y0022079D01*
X0327495Y0022048D01*
X0327339Y0022020D01*
X0327183Y0021996D01*
X0327026Y0021976D01*
X0326868Y0021960D01*
X0326711Y0021948D01*
X0326552Y0021940D01*
X0326394Y0021936D01*
X0326236Y0021936D01*
X0326078Y0021940D01*
X0325919Y0021948D01*
X0325762Y0021960D01*
X0325604Y0021976D01*
X0325447Y0021996D01*
X0325291Y0022020D01*
X0325135Y0022048D01*
X0324980Y0022079D01*
X0324825Y0022115D01*
X0324672Y0022154D01*
X0324520Y0022197D01*
X0324369Y0022244D01*
X0324219Y0022295D01*
X0324070Y0022350D01*
X0323923Y0022408D01*
X0323777Y0022470D01*
X0323633Y0022535D01*
X0323491Y0022605D01*
X0323350Y0022677D01*
X0323211Y0022754D01*
X0323075Y0022833D01*
X0322940Y0022917D01*
X0322807Y0023003D01*
X0322677Y0023093D01*
X0322549Y0023186D01*
X0322423Y0023282D01*
X0322300Y0023382D01*
X0322179Y0023484D01*
X0322061Y0023589D01*
X0321946Y0023698D01*
X0321833Y0023809D01*
X0321723Y0023923D01*
X0321616Y0024040D01*
X0321512Y0024159D01*
X0321411Y0024281D01*
X0321314Y0024406D01*
X0321219Y0024533D01*
X0321128Y0024662D01*
X0321039Y0024793D01*
X0320955Y0024927D01*
X0320873Y0025063D01*
X0320795Y0025200D01*
X0320721Y0025340D01*
X0320650Y0025482D01*
X0320582Y0025625D01*
X0320518Y0025770D01*
X0320458Y0025916D01*
X0320402Y0026064D01*
X0320349Y0026213D01*
X0320300Y0026364D01*
X0320255Y0026516D01*
X0320214Y0026669D01*
X0320176Y0026822D01*
X0320143Y0026977D01*
X0320113Y0027133D01*
X0320087Y0027289D01*
X0320066Y0027446D01*
X0320048Y0027603D01*
X0320034Y0027761D01*
X0320024Y0027919D01*
X0320018Y0028077D01*
X0320016Y0028235D01*
D11*
X0326315Y0028235D03*
X0125528Y0166030D03*
D12*
X0100134Y0177644D03*
X0097575Y0177644D03*
X0095016Y0177644D03*
X0092457Y0177644D03*
X0089898Y0177644D03*
X0087339Y0177644D03*
X0084780Y0177644D03*
X0082221Y0177644D03*
X0079662Y0177644D03*
X0077103Y0177644D03*
X0074544Y0177644D03*
X0071985Y0177644D03*
X0069426Y0177644D03*
X0066867Y0177644D03*
X0064308Y0177644D03*
X0061749Y0177644D03*
X0059189Y0177644D03*
X0056630Y0177644D03*
X0054071Y0177644D03*
X0054071Y0147329D03*
X0056630Y0147329D03*
X0059189Y0147329D03*
X0061749Y0147329D03*
X0064308Y0147329D03*
X0066867Y0147329D03*
X0069426Y0147329D03*
X0071985Y0147329D03*
X0074544Y0147329D03*
X0077103Y0147329D03*
X0079662Y0147329D03*
X0082221Y0147329D03*
X0084780Y0147329D03*
X0087339Y0147329D03*
X0089898Y0147329D03*
X0092457Y0147329D03*
X0095016Y0147329D03*
X0097575Y0147329D03*
X0100134Y0147329D03*
D13*
X0215764Y0138806D03*
X0215764Y0133806D03*
X0215764Y0128806D03*
X0215764Y0123806D03*
X0236237Y0123806D03*
X0236237Y0128806D03*
X0236237Y0133806D03*
X0236237Y0138806D03*
D14*
X0084229Y0087329D03*
X0082260Y0087329D03*
X0080292Y0087329D03*
X0078323Y0087329D03*
X0078323Y0073550D03*
X0080292Y0073550D03*
X0082260Y0073550D03*
X0084229Y0073550D03*
D15*
X0088166Y0077486D03*
X0088166Y0079455D03*
X0088166Y0081424D03*
X0088166Y0083393D03*
X0074386Y0083393D03*
X0074386Y0081424D03*
X0074386Y0079455D03*
X0074386Y0077486D03*
D16*
X0081276Y0080439D03*
D17*
X0079676Y0078839D03*
X0082876Y0078839D03*
X0082876Y0082039D03*
X0079676Y0082039D03*
D18*
X0188855Y0114495D03*
X0188855Y0116424D03*
X0188855Y0118353D03*
D19*
X0188087Y0121935D03*
X0190056Y0121935D03*
X0192024Y0121935D03*
X0193993Y0121935D03*
X0193993Y0110912D03*
X0192024Y0110912D03*
X0190056Y0110912D03*
X0188087Y0110912D03*
X0270134Y0122959D03*
X0272103Y0122959D03*
X0274071Y0122959D03*
D20*
X0277615Y0124534D03*
X0277615Y0126502D03*
X0277615Y0128471D03*
X0277615Y0130439D03*
X0266591Y0130439D03*
X0266591Y0128471D03*
X0266591Y0126502D03*
X0266591Y0124534D03*
X0195567Y0118392D03*
X0195567Y0116424D03*
X0195567Y0114455D03*
D21*
X0199150Y0102408D03*
X0191670Y0102408D03*
D22*
X0195567Y0132762D03*
X0185646Y0132762D03*
X0185646Y0140243D03*
X0195567Y0140243D03*
X0257103Y0126463D03*
X0257103Y0118983D03*
X0287103Y0118746D03*
X0297103Y0118746D03*
X0297103Y0126227D03*
X0287103Y0126227D03*
X0272103Y0096227D03*
X0262103Y0096227D03*
X0262103Y0088746D03*
X0272103Y0088746D03*
X0252103Y0088746D03*
X0252103Y0096227D03*
X0289150Y0052132D03*
X0298166Y0052132D03*
X0307182Y0052132D03*
X0307182Y0044652D03*
X0298166Y0044652D03*
X0289150Y0044652D03*
X0232103Y0036227D03*
X0232103Y0028746D03*
X0159977Y0031227D03*
X0148914Y0031227D03*
X0148914Y0023746D03*
X0159977Y0023746D03*
X0047103Y0033746D03*
X0047103Y0041227D03*
X0037103Y0054140D03*
X0037103Y0060833D03*
D23*
X0079308Y0095518D03*
X0086000Y0095518D03*
X0127497Y0119376D03*
X0127497Y0126069D03*
X0153087Y0126069D03*
X0153087Y0119376D03*
X0145882Y0146935D03*
X0145882Y0153628D03*
X0177040Y0153825D03*
X0177040Y0160518D03*
X0188083Y0170558D03*
X0179540Y0170951D03*
X0179540Y0177644D03*
X0188083Y0177250D03*
X0179540Y0187451D03*
X0179540Y0194144D03*
X0167886Y0187298D03*
X0161193Y0187298D03*
X0149540Y0187644D03*
X0149540Y0194180D03*
X0149540Y0200872D03*
X0149540Y0180951D03*
X0204150Y0177959D03*
X0204150Y0171266D03*
X0214150Y0171266D03*
X0224150Y0171266D03*
X0224150Y0177959D03*
X0214150Y0177959D03*
X0234150Y0177959D03*
X0244150Y0177959D03*
X0244150Y0171266D03*
X0234150Y0171266D03*
X0254150Y0171266D03*
X0254150Y0177959D03*
X0276473Y0186817D03*
X0286473Y0186817D03*
X0286473Y0193510D03*
X0276473Y0193510D03*
X0296473Y0193510D03*
X0306473Y0193510D03*
X0306473Y0186817D03*
X0296473Y0186817D03*
X0316473Y0186817D03*
X0326473Y0186817D03*
X0326473Y0193510D03*
X0316473Y0193510D03*
X0205922Y0128904D03*
X0205922Y0122211D03*
X0223756Y0107487D03*
X0230449Y0107487D03*
X0241119Y0105912D03*
X0241119Y0099219D03*
X0213166Y0096109D03*
X0213166Y0089416D03*
X0252103Y0062880D03*
X0252103Y0056187D03*
X0272103Y0069140D03*
X0272103Y0075833D03*
X0302103Y0075833D03*
X0302103Y0069140D03*
X0359878Y0105991D03*
X0366571Y0105991D03*
X0373166Y0106483D03*
X0379859Y0106483D03*
X0143638Y0066621D03*
X0136945Y0066621D03*
X0095410Y0139471D03*
X0088717Y0139471D03*
X0061945Y0138471D03*
X0055252Y0138471D03*
D24*
X0227103Y0097487D03*
D25*
X0223162Y0098231D02*
X0219528Y0098231D01*
X0223162Y0098231D02*
X0223162Y0096743D01*
X0219528Y0096743D01*
X0219528Y0098231D01*
X0219528Y0096757D02*
X0223162Y0096757D01*
X0223162Y0096771D02*
X0219528Y0096771D01*
X0219528Y0096785D02*
X0223162Y0096785D01*
X0223162Y0096799D02*
X0219528Y0096799D01*
X0219528Y0096813D02*
X0223162Y0096813D01*
X0223162Y0096827D02*
X0219528Y0096827D01*
X0219528Y0096841D02*
X0223162Y0096841D01*
X0223162Y0096855D02*
X0219528Y0096855D01*
X0219528Y0096869D02*
X0223162Y0096869D01*
X0223162Y0096883D02*
X0219528Y0096883D01*
X0219528Y0096897D02*
X0223162Y0096897D01*
X0223162Y0096911D02*
X0219528Y0096911D01*
X0219528Y0096925D02*
X0223162Y0096925D01*
X0223162Y0096939D02*
X0219528Y0096939D01*
X0219528Y0096953D02*
X0223162Y0096953D01*
X0223162Y0096967D02*
X0219528Y0096967D01*
X0219528Y0096981D02*
X0223162Y0096981D01*
X0223162Y0096995D02*
X0219528Y0096995D01*
X0219528Y0097009D02*
X0223162Y0097009D01*
X0223162Y0097023D02*
X0219528Y0097023D01*
X0219528Y0097037D02*
X0223162Y0097037D01*
X0223162Y0097051D02*
X0219528Y0097051D01*
X0219528Y0097065D02*
X0223162Y0097065D01*
X0223162Y0097079D02*
X0219528Y0097079D01*
X0219528Y0097093D02*
X0223162Y0097093D01*
X0223162Y0097107D02*
X0219528Y0097107D01*
X0219528Y0097121D02*
X0223162Y0097121D01*
X0223162Y0097135D02*
X0219528Y0097135D01*
X0219528Y0097149D02*
X0223162Y0097149D01*
X0223162Y0097163D02*
X0219528Y0097163D01*
X0219528Y0097177D02*
X0223162Y0097177D01*
X0223162Y0097191D02*
X0219528Y0097191D01*
X0219528Y0097205D02*
X0223162Y0097205D01*
X0223162Y0097219D02*
X0219528Y0097219D01*
X0219528Y0097233D02*
X0223162Y0097233D01*
X0223162Y0097247D02*
X0219528Y0097247D01*
X0219528Y0097261D02*
X0223162Y0097261D01*
X0223162Y0097275D02*
X0219528Y0097275D01*
X0219528Y0097289D02*
X0223162Y0097289D01*
X0223162Y0097303D02*
X0219528Y0097303D01*
X0219528Y0097317D02*
X0223162Y0097317D01*
X0223162Y0097331D02*
X0219528Y0097331D01*
X0219528Y0097345D02*
X0223162Y0097345D01*
X0223162Y0097359D02*
X0219528Y0097359D01*
X0219528Y0097373D02*
X0223162Y0097373D01*
X0223162Y0097387D02*
X0219528Y0097387D01*
X0219528Y0097401D02*
X0223162Y0097401D01*
X0223162Y0097415D02*
X0219528Y0097415D01*
X0219528Y0097429D02*
X0223162Y0097429D01*
X0223162Y0097443D02*
X0219528Y0097443D01*
X0219528Y0097457D02*
X0223162Y0097457D01*
X0223162Y0097471D02*
X0219528Y0097471D01*
X0219528Y0097485D02*
X0223162Y0097485D01*
X0223162Y0097499D02*
X0219528Y0097499D01*
X0219528Y0097513D02*
X0223162Y0097513D01*
X0223162Y0097527D02*
X0219528Y0097527D01*
X0219528Y0097541D02*
X0223162Y0097541D01*
X0223162Y0097555D02*
X0219528Y0097555D01*
X0219528Y0097569D02*
X0223162Y0097569D01*
X0223162Y0097583D02*
X0219528Y0097583D01*
X0219528Y0097597D02*
X0223162Y0097597D01*
X0223162Y0097611D02*
X0219528Y0097611D01*
X0219528Y0097625D02*
X0223162Y0097625D01*
X0223162Y0097639D02*
X0219528Y0097639D01*
X0219528Y0097653D02*
X0223162Y0097653D01*
X0223162Y0097667D02*
X0219528Y0097667D01*
X0219528Y0097681D02*
X0223162Y0097681D01*
X0223162Y0097695D02*
X0219528Y0097695D01*
X0219528Y0097709D02*
X0223162Y0097709D01*
X0223162Y0097723D02*
X0219528Y0097723D01*
X0219528Y0097737D02*
X0223162Y0097737D01*
X0223162Y0097751D02*
X0219528Y0097751D01*
X0219528Y0097765D02*
X0223162Y0097765D01*
X0223162Y0097779D02*
X0219528Y0097779D01*
X0219528Y0097793D02*
X0223162Y0097793D01*
X0223162Y0097807D02*
X0219528Y0097807D01*
X0219528Y0097821D02*
X0223162Y0097821D01*
X0223162Y0097835D02*
X0219528Y0097835D01*
X0219528Y0097849D02*
X0223162Y0097849D01*
X0223162Y0097863D02*
X0219528Y0097863D01*
X0219528Y0097877D02*
X0223162Y0097877D01*
X0223162Y0097891D02*
X0219528Y0097891D01*
X0219528Y0097905D02*
X0223162Y0097905D01*
X0223162Y0097919D02*
X0219528Y0097919D01*
X0219528Y0097933D02*
X0223162Y0097933D01*
X0223162Y0097947D02*
X0219528Y0097947D01*
X0219528Y0097961D02*
X0223162Y0097961D01*
X0223162Y0097975D02*
X0219528Y0097975D01*
X0219528Y0097989D02*
X0223162Y0097989D01*
X0223162Y0098003D02*
X0219528Y0098003D01*
X0219528Y0098017D02*
X0223162Y0098017D01*
X0223162Y0098031D02*
X0219528Y0098031D01*
X0219528Y0098045D02*
X0223162Y0098045D01*
X0223162Y0098059D02*
X0219528Y0098059D01*
X0219528Y0098073D02*
X0223162Y0098073D01*
X0223162Y0098087D02*
X0219528Y0098087D01*
X0219528Y0098101D02*
X0223162Y0098101D01*
X0223162Y0098115D02*
X0219528Y0098115D01*
X0219528Y0098129D02*
X0223162Y0098129D01*
X0223162Y0098143D02*
X0219528Y0098143D01*
X0219528Y0098157D02*
X0223162Y0098157D01*
X0223162Y0098171D02*
X0219528Y0098171D01*
X0219528Y0098185D02*
X0223162Y0098185D01*
X0223162Y0098199D02*
X0219528Y0098199D01*
X0219528Y0098213D02*
X0223162Y0098213D01*
X0223162Y0098227D02*
X0219528Y0098227D01*
X0219528Y0100199D02*
X0223162Y0100199D01*
X0223162Y0098711D01*
X0219528Y0098711D01*
X0219528Y0100199D01*
X0219528Y0098725D02*
X0223162Y0098725D01*
X0223162Y0098739D02*
X0219528Y0098739D01*
X0219528Y0098753D02*
X0223162Y0098753D01*
X0223162Y0098767D02*
X0219528Y0098767D01*
X0219528Y0098781D02*
X0223162Y0098781D01*
X0223162Y0098795D02*
X0219528Y0098795D01*
X0219528Y0098809D02*
X0223162Y0098809D01*
X0223162Y0098823D02*
X0219528Y0098823D01*
X0219528Y0098837D02*
X0223162Y0098837D01*
X0223162Y0098851D02*
X0219528Y0098851D01*
X0219528Y0098865D02*
X0223162Y0098865D01*
X0223162Y0098879D02*
X0219528Y0098879D01*
X0219528Y0098893D02*
X0223162Y0098893D01*
X0223162Y0098907D02*
X0219528Y0098907D01*
X0219528Y0098921D02*
X0223162Y0098921D01*
X0223162Y0098935D02*
X0219528Y0098935D01*
X0219528Y0098949D02*
X0223162Y0098949D01*
X0223162Y0098963D02*
X0219528Y0098963D01*
X0219528Y0098977D02*
X0223162Y0098977D01*
X0223162Y0098991D02*
X0219528Y0098991D01*
X0219528Y0099005D02*
X0223162Y0099005D01*
X0223162Y0099019D02*
X0219528Y0099019D01*
X0219528Y0099033D02*
X0223162Y0099033D01*
X0223162Y0099047D02*
X0219528Y0099047D01*
X0219528Y0099061D02*
X0223162Y0099061D01*
X0223162Y0099075D02*
X0219528Y0099075D01*
X0219528Y0099089D02*
X0223162Y0099089D01*
X0223162Y0099103D02*
X0219528Y0099103D01*
X0219528Y0099117D02*
X0223162Y0099117D01*
X0223162Y0099131D02*
X0219528Y0099131D01*
X0219528Y0099145D02*
X0223162Y0099145D01*
X0223162Y0099159D02*
X0219528Y0099159D01*
X0219528Y0099173D02*
X0223162Y0099173D01*
X0223162Y0099187D02*
X0219528Y0099187D01*
X0219528Y0099201D02*
X0223162Y0099201D01*
X0223162Y0099215D02*
X0219528Y0099215D01*
X0219528Y0099229D02*
X0223162Y0099229D01*
X0223162Y0099243D02*
X0219528Y0099243D01*
X0219528Y0099257D02*
X0223162Y0099257D01*
X0223162Y0099271D02*
X0219528Y0099271D01*
X0219528Y0099285D02*
X0223162Y0099285D01*
X0223162Y0099299D02*
X0219528Y0099299D01*
X0219528Y0099313D02*
X0223162Y0099313D01*
X0223162Y0099327D02*
X0219528Y0099327D01*
X0219528Y0099341D02*
X0223162Y0099341D01*
X0223162Y0099355D02*
X0219528Y0099355D01*
X0219528Y0099369D02*
X0223162Y0099369D01*
X0223162Y0099383D02*
X0219528Y0099383D01*
X0219528Y0099397D02*
X0223162Y0099397D01*
X0223162Y0099411D02*
X0219528Y0099411D01*
X0219528Y0099425D02*
X0223162Y0099425D01*
X0223162Y0099439D02*
X0219528Y0099439D01*
X0219528Y0099453D02*
X0223162Y0099453D01*
X0223162Y0099467D02*
X0219528Y0099467D01*
X0219528Y0099481D02*
X0223162Y0099481D01*
X0223162Y0099495D02*
X0219528Y0099495D01*
X0219528Y0099509D02*
X0223162Y0099509D01*
X0223162Y0099523D02*
X0219528Y0099523D01*
X0219528Y0099537D02*
X0223162Y0099537D01*
X0223162Y0099551D02*
X0219528Y0099551D01*
X0219528Y0099565D02*
X0223162Y0099565D01*
X0223162Y0099579D02*
X0219528Y0099579D01*
X0219528Y0099593D02*
X0223162Y0099593D01*
X0223162Y0099607D02*
X0219528Y0099607D01*
X0219528Y0099621D02*
X0223162Y0099621D01*
X0223162Y0099635D02*
X0219528Y0099635D01*
X0219528Y0099649D02*
X0223162Y0099649D01*
X0223162Y0099663D02*
X0219528Y0099663D01*
X0219528Y0099677D02*
X0223162Y0099677D01*
X0223162Y0099691D02*
X0219528Y0099691D01*
X0219528Y0099705D02*
X0223162Y0099705D01*
X0223162Y0099719D02*
X0219528Y0099719D01*
X0219528Y0099733D02*
X0223162Y0099733D01*
X0223162Y0099747D02*
X0219528Y0099747D01*
X0219528Y0099761D02*
X0223162Y0099761D01*
X0223162Y0099775D02*
X0219528Y0099775D01*
X0219528Y0099789D02*
X0223162Y0099789D01*
X0223162Y0099803D02*
X0219528Y0099803D01*
X0219528Y0099817D02*
X0223162Y0099817D01*
X0223162Y0099831D02*
X0219528Y0099831D01*
X0219528Y0099845D02*
X0223162Y0099845D01*
X0223162Y0099859D02*
X0219528Y0099859D01*
X0219528Y0099873D02*
X0223162Y0099873D01*
X0223162Y0099887D02*
X0219528Y0099887D01*
X0219528Y0099901D02*
X0223162Y0099901D01*
X0223162Y0099915D02*
X0219528Y0099915D01*
X0219528Y0099929D02*
X0223162Y0099929D01*
X0223162Y0099943D02*
X0219528Y0099943D01*
X0219528Y0099957D02*
X0223162Y0099957D01*
X0223162Y0099971D02*
X0219528Y0099971D01*
X0219528Y0099985D02*
X0223162Y0099985D01*
X0223162Y0099999D02*
X0219528Y0099999D01*
X0219528Y0100013D02*
X0223162Y0100013D01*
X0223162Y0100027D02*
X0219528Y0100027D01*
X0219528Y0100041D02*
X0223162Y0100041D01*
X0223162Y0100055D02*
X0219528Y0100055D01*
X0219528Y0100069D02*
X0223162Y0100069D01*
X0223162Y0100083D02*
X0219528Y0100083D01*
X0219528Y0100097D02*
X0223162Y0100097D01*
X0223162Y0100111D02*
X0219528Y0100111D01*
X0219528Y0100125D02*
X0223162Y0100125D01*
X0223162Y0100139D02*
X0219528Y0100139D01*
X0219528Y0100153D02*
X0223162Y0100153D01*
X0223162Y0100167D02*
X0219528Y0100167D01*
X0219528Y0100181D02*
X0223162Y0100181D01*
X0223162Y0100195D02*
X0219528Y0100195D01*
X0219528Y0102168D02*
X0223162Y0102168D01*
X0223162Y0100680D01*
X0219528Y0100680D01*
X0219528Y0102168D01*
X0219528Y0100694D02*
X0223162Y0100694D01*
X0223162Y0100708D02*
X0219528Y0100708D01*
X0219528Y0100722D02*
X0223162Y0100722D01*
X0223162Y0100736D02*
X0219528Y0100736D01*
X0219528Y0100750D02*
X0223162Y0100750D01*
X0223162Y0100764D02*
X0219528Y0100764D01*
X0219528Y0100778D02*
X0223162Y0100778D01*
X0223162Y0100792D02*
X0219528Y0100792D01*
X0219528Y0100806D02*
X0223162Y0100806D01*
X0223162Y0100820D02*
X0219528Y0100820D01*
X0219528Y0100834D02*
X0223162Y0100834D01*
X0223162Y0100848D02*
X0219528Y0100848D01*
X0219528Y0100862D02*
X0223162Y0100862D01*
X0223162Y0100876D02*
X0219528Y0100876D01*
X0219528Y0100890D02*
X0223162Y0100890D01*
X0223162Y0100904D02*
X0219528Y0100904D01*
X0219528Y0100918D02*
X0223162Y0100918D01*
X0223162Y0100932D02*
X0219528Y0100932D01*
X0219528Y0100946D02*
X0223162Y0100946D01*
X0223162Y0100960D02*
X0219528Y0100960D01*
X0219528Y0100974D02*
X0223162Y0100974D01*
X0223162Y0100988D02*
X0219528Y0100988D01*
X0219528Y0101002D02*
X0223162Y0101002D01*
X0223162Y0101016D02*
X0219528Y0101016D01*
X0219528Y0101030D02*
X0223162Y0101030D01*
X0223162Y0101044D02*
X0219528Y0101044D01*
X0219528Y0101058D02*
X0223162Y0101058D01*
X0223162Y0101072D02*
X0219528Y0101072D01*
X0219528Y0101086D02*
X0223162Y0101086D01*
X0223162Y0101100D02*
X0219528Y0101100D01*
X0219528Y0101114D02*
X0223162Y0101114D01*
X0223162Y0101128D02*
X0219528Y0101128D01*
X0219528Y0101142D02*
X0223162Y0101142D01*
X0223162Y0101156D02*
X0219528Y0101156D01*
X0219528Y0101170D02*
X0223162Y0101170D01*
X0223162Y0101184D02*
X0219528Y0101184D01*
X0219528Y0101198D02*
X0223162Y0101198D01*
X0223162Y0101212D02*
X0219528Y0101212D01*
X0219528Y0101226D02*
X0223162Y0101226D01*
X0223162Y0101240D02*
X0219528Y0101240D01*
X0219528Y0101254D02*
X0223162Y0101254D01*
X0223162Y0101268D02*
X0219528Y0101268D01*
X0219528Y0101282D02*
X0223162Y0101282D01*
X0223162Y0101296D02*
X0219528Y0101296D01*
X0219528Y0101310D02*
X0223162Y0101310D01*
X0223162Y0101324D02*
X0219528Y0101324D01*
X0219528Y0101338D02*
X0223162Y0101338D01*
X0223162Y0101352D02*
X0219528Y0101352D01*
X0219528Y0101366D02*
X0223162Y0101366D01*
X0223162Y0101380D02*
X0219528Y0101380D01*
X0219528Y0101394D02*
X0223162Y0101394D01*
X0223162Y0101408D02*
X0219528Y0101408D01*
X0219528Y0101422D02*
X0223162Y0101422D01*
X0223162Y0101436D02*
X0219528Y0101436D01*
X0219528Y0101450D02*
X0223162Y0101450D01*
X0223162Y0101464D02*
X0219528Y0101464D01*
X0219528Y0101478D02*
X0223162Y0101478D01*
X0223162Y0101492D02*
X0219528Y0101492D01*
X0219528Y0101506D02*
X0223162Y0101506D01*
X0223162Y0101520D02*
X0219528Y0101520D01*
X0219528Y0101534D02*
X0223162Y0101534D01*
X0223162Y0101548D02*
X0219528Y0101548D01*
X0219528Y0101562D02*
X0223162Y0101562D01*
X0223162Y0101576D02*
X0219528Y0101576D01*
X0219528Y0101590D02*
X0223162Y0101590D01*
X0223162Y0101604D02*
X0219528Y0101604D01*
X0219528Y0101618D02*
X0223162Y0101618D01*
X0223162Y0101632D02*
X0219528Y0101632D01*
X0219528Y0101646D02*
X0223162Y0101646D01*
X0223162Y0101660D02*
X0219528Y0101660D01*
X0219528Y0101674D02*
X0223162Y0101674D01*
X0223162Y0101688D02*
X0219528Y0101688D01*
X0219528Y0101702D02*
X0223162Y0101702D01*
X0223162Y0101716D02*
X0219528Y0101716D01*
X0219528Y0101730D02*
X0223162Y0101730D01*
X0223162Y0101744D02*
X0219528Y0101744D01*
X0219528Y0101758D02*
X0223162Y0101758D01*
X0223162Y0101772D02*
X0219528Y0101772D01*
X0219528Y0101786D02*
X0223162Y0101786D01*
X0223162Y0101800D02*
X0219528Y0101800D01*
X0219528Y0101814D02*
X0223162Y0101814D01*
X0223162Y0101828D02*
X0219528Y0101828D01*
X0219528Y0101842D02*
X0223162Y0101842D01*
X0223162Y0101856D02*
X0219528Y0101856D01*
X0219528Y0101870D02*
X0223162Y0101870D01*
X0223162Y0101884D02*
X0219528Y0101884D01*
X0219528Y0101898D02*
X0223162Y0101898D01*
X0223162Y0101912D02*
X0219528Y0101912D01*
X0219528Y0101926D02*
X0223162Y0101926D01*
X0223162Y0101940D02*
X0219528Y0101940D01*
X0219528Y0101954D02*
X0223162Y0101954D01*
X0223162Y0101968D02*
X0219528Y0101968D01*
X0219528Y0101982D02*
X0223162Y0101982D01*
X0223162Y0101996D02*
X0219528Y0101996D01*
X0219528Y0102010D02*
X0223162Y0102010D01*
X0223162Y0102024D02*
X0219528Y0102024D01*
X0219528Y0102038D02*
X0223162Y0102038D01*
X0223162Y0102052D02*
X0219528Y0102052D01*
X0219528Y0102066D02*
X0223162Y0102066D01*
X0223162Y0102080D02*
X0219528Y0102080D01*
X0219528Y0102094D02*
X0223162Y0102094D01*
X0223162Y0102108D02*
X0219528Y0102108D01*
X0219528Y0102122D02*
X0223162Y0102122D01*
X0223162Y0102136D02*
X0219528Y0102136D01*
X0219528Y0102150D02*
X0223162Y0102150D01*
X0223162Y0102164D02*
X0219528Y0102164D01*
X0219528Y0096262D02*
X0223162Y0096262D01*
X0223162Y0094774D01*
X0219528Y0094774D01*
X0219528Y0096262D01*
X0219528Y0094788D02*
X0223162Y0094788D01*
X0223162Y0094802D02*
X0219528Y0094802D01*
X0219528Y0094816D02*
X0223162Y0094816D01*
X0223162Y0094830D02*
X0219528Y0094830D01*
X0219528Y0094844D02*
X0223162Y0094844D01*
X0223162Y0094858D02*
X0219528Y0094858D01*
X0219528Y0094872D02*
X0223162Y0094872D01*
X0223162Y0094886D02*
X0219528Y0094886D01*
X0219528Y0094900D02*
X0223162Y0094900D01*
X0223162Y0094914D02*
X0219528Y0094914D01*
X0219528Y0094928D02*
X0223162Y0094928D01*
X0223162Y0094942D02*
X0219528Y0094942D01*
X0219528Y0094956D02*
X0223162Y0094956D01*
X0223162Y0094970D02*
X0219528Y0094970D01*
X0219528Y0094984D02*
X0223162Y0094984D01*
X0223162Y0094998D02*
X0219528Y0094998D01*
X0219528Y0095012D02*
X0223162Y0095012D01*
X0223162Y0095026D02*
X0219528Y0095026D01*
X0219528Y0095040D02*
X0223162Y0095040D01*
X0223162Y0095054D02*
X0219528Y0095054D01*
X0219528Y0095068D02*
X0223162Y0095068D01*
X0223162Y0095082D02*
X0219528Y0095082D01*
X0219528Y0095096D02*
X0223162Y0095096D01*
X0223162Y0095110D02*
X0219528Y0095110D01*
X0219528Y0095124D02*
X0223162Y0095124D01*
X0223162Y0095138D02*
X0219528Y0095138D01*
X0219528Y0095152D02*
X0223162Y0095152D01*
X0223162Y0095166D02*
X0219528Y0095166D01*
X0219528Y0095180D02*
X0223162Y0095180D01*
X0223162Y0095194D02*
X0219528Y0095194D01*
X0219528Y0095208D02*
X0223162Y0095208D01*
X0223162Y0095222D02*
X0219528Y0095222D01*
X0219528Y0095236D02*
X0223162Y0095236D01*
X0223162Y0095250D02*
X0219528Y0095250D01*
X0219528Y0095264D02*
X0223162Y0095264D01*
X0223162Y0095278D02*
X0219528Y0095278D01*
X0219528Y0095292D02*
X0223162Y0095292D01*
X0223162Y0095306D02*
X0219528Y0095306D01*
X0219528Y0095320D02*
X0223162Y0095320D01*
X0223162Y0095334D02*
X0219528Y0095334D01*
X0219528Y0095348D02*
X0223162Y0095348D01*
X0223162Y0095362D02*
X0219528Y0095362D01*
X0219528Y0095376D02*
X0223162Y0095376D01*
X0223162Y0095390D02*
X0219528Y0095390D01*
X0219528Y0095404D02*
X0223162Y0095404D01*
X0223162Y0095418D02*
X0219528Y0095418D01*
X0219528Y0095432D02*
X0223162Y0095432D01*
X0223162Y0095446D02*
X0219528Y0095446D01*
X0219528Y0095460D02*
X0223162Y0095460D01*
X0223162Y0095474D02*
X0219528Y0095474D01*
X0219528Y0095488D02*
X0223162Y0095488D01*
X0223162Y0095502D02*
X0219528Y0095502D01*
X0219528Y0095516D02*
X0223162Y0095516D01*
X0223162Y0095530D02*
X0219528Y0095530D01*
X0219528Y0095544D02*
X0223162Y0095544D01*
X0223162Y0095558D02*
X0219528Y0095558D01*
X0219528Y0095572D02*
X0223162Y0095572D01*
X0223162Y0095586D02*
X0219528Y0095586D01*
X0219528Y0095600D02*
X0223162Y0095600D01*
X0223162Y0095614D02*
X0219528Y0095614D01*
X0219528Y0095628D02*
X0223162Y0095628D01*
X0223162Y0095642D02*
X0219528Y0095642D01*
X0219528Y0095656D02*
X0223162Y0095656D01*
X0223162Y0095670D02*
X0219528Y0095670D01*
X0219528Y0095684D02*
X0223162Y0095684D01*
X0223162Y0095698D02*
X0219528Y0095698D01*
X0219528Y0095712D02*
X0223162Y0095712D01*
X0223162Y0095726D02*
X0219528Y0095726D01*
X0219528Y0095740D02*
X0223162Y0095740D01*
X0223162Y0095754D02*
X0219528Y0095754D01*
X0219528Y0095768D02*
X0223162Y0095768D01*
X0223162Y0095782D02*
X0219528Y0095782D01*
X0219528Y0095796D02*
X0223162Y0095796D01*
X0223162Y0095810D02*
X0219528Y0095810D01*
X0219528Y0095824D02*
X0223162Y0095824D01*
X0223162Y0095838D02*
X0219528Y0095838D01*
X0219528Y0095852D02*
X0223162Y0095852D01*
X0223162Y0095866D02*
X0219528Y0095866D01*
X0219528Y0095880D02*
X0223162Y0095880D01*
X0223162Y0095894D02*
X0219528Y0095894D01*
X0219528Y0095908D02*
X0223162Y0095908D01*
X0223162Y0095922D02*
X0219528Y0095922D01*
X0219528Y0095936D02*
X0223162Y0095936D01*
X0223162Y0095950D02*
X0219528Y0095950D01*
X0219528Y0095964D02*
X0223162Y0095964D01*
X0223162Y0095978D02*
X0219528Y0095978D01*
X0219528Y0095992D02*
X0223162Y0095992D01*
X0223162Y0096006D02*
X0219528Y0096006D01*
X0219528Y0096020D02*
X0223162Y0096020D01*
X0223162Y0096034D02*
X0219528Y0096034D01*
X0219528Y0096048D02*
X0223162Y0096048D01*
X0223162Y0096062D02*
X0219528Y0096062D01*
X0219528Y0096076D02*
X0223162Y0096076D01*
X0223162Y0096090D02*
X0219528Y0096090D01*
X0219528Y0096104D02*
X0223162Y0096104D01*
X0223162Y0096118D02*
X0219528Y0096118D01*
X0219528Y0096132D02*
X0223162Y0096132D01*
X0223162Y0096146D02*
X0219528Y0096146D01*
X0219528Y0096160D02*
X0223162Y0096160D01*
X0223162Y0096174D02*
X0219528Y0096174D01*
X0219528Y0096188D02*
X0223162Y0096188D01*
X0223162Y0096202D02*
X0219528Y0096202D01*
X0219528Y0096216D02*
X0223162Y0096216D01*
X0223162Y0096230D02*
X0219528Y0096230D01*
X0219528Y0096244D02*
X0223162Y0096244D01*
X0223162Y0096258D02*
X0219528Y0096258D01*
X0219528Y0094294D02*
X0223162Y0094294D01*
X0223162Y0092806D01*
X0219528Y0092806D01*
X0219528Y0094294D01*
X0219528Y0092820D02*
X0223162Y0092820D01*
X0223162Y0092834D02*
X0219528Y0092834D01*
X0219528Y0092848D02*
X0223162Y0092848D01*
X0223162Y0092862D02*
X0219528Y0092862D01*
X0219528Y0092876D02*
X0223162Y0092876D01*
X0223162Y0092890D02*
X0219528Y0092890D01*
X0219528Y0092904D02*
X0223162Y0092904D01*
X0223162Y0092918D02*
X0219528Y0092918D01*
X0219528Y0092932D02*
X0223162Y0092932D01*
X0223162Y0092946D02*
X0219528Y0092946D01*
X0219528Y0092960D02*
X0223162Y0092960D01*
X0223162Y0092974D02*
X0219528Y0092974D01*
X0219528Y0092988D02*
X0223162Y0092988D01*
X0223162Y0093002D02*
X0219528Y0093002D01*
X0219528Y0093016D02*
X0223162Y0093016D01*
X0223162Y0093030D02*
X0219528Y0093030D01*
X0219528Y0093044D02*
X0223162Y0093044D01*
X0223162Y0093058D02*
X0219528Y0093058D01*
X0219528Y0093072D02*
X0223162Y0093072D01*
X0223162Y0093086D02*
X0219528Y0093086D01*
X0219528Y0093100D02*
X0223162Y0093100D01*
X0223162Y0093114D02*
X0219528Y0093114D01*
X0219528Y0093128D02*
X0223162Y0093128D01*
X0223162Y0093142D02*
X0219528Y0093142D01*
X0219528Y0093156D02*
X0223162Y0093156D01*
X0223162Y0093170D02*
X0219528Y0093170D01*
X0219528Y0093184D02*
X0223162Y0093184D01*
X0223162Y0093198D02*
X0219528Y0093198D01*
X0219528Y0093212D02*
X0223162Y0093212D01*
X0223162Y0093226D02*
X0219528Y0093226D01*
X0219528Y0093240D02*
X0223162Y0093240D01*
X0223162Y0093254D02*
X0219528Y0093254D01*
X0219528Y0093268D02*
X0223162Y0093268D01*
X0223162Y0093282D02*
X0219528Y0093282D01*
X0219528Y0093296D02*
X0223162Y0093296D01*
X0223162Y0093310D02*
X0219528Y0093310D01*
X0219528Y0093324D02*
X0223162Y0093324D01*
X0223162Y0093338D02*
X0219528Y0093338D01*
X0219528Y0093352D02*
X0223162Y0093352D01*
X0223162Y0093366D02*
X0219528Y0093366D01*
X0219528Y0093380D02*
X0223162Y0093380D01*
X0223162Y0093394D02*
X0219528Y0093394D01*
X0219528Y0093408D02*
X0223162Y0093408D01*
X0223162Y0093422D02*
X0219528Y0093422D01*
X0219528Y0093436D02*
X0223162Y0093436D01*
X0223162Y0093450D02*
X0219528Y0093450D01*
X0219528Y0093464D02*
X0223162Y0093464D01*
X0223162Y0093478D02*
X0219528Y0093478D01*
X0219528Y0093492D02*
X0223162Y0093492D01*
X0223162Y0093506D02*
X0219528Y0093506D01*
X0219528Y0093520D02*
X0223162Y0093520D01*
X0223162Y0093534D02*
X0219528Y0093534D01*
X0219528Y0093548D02*
X0223162Y0093548D01*
X0223162Y0093562D02*
X0219528Y0093562D01*
X0219528Y0093576D02*
X0223162Y0093576D01*
X0223162Y0093590D02*
X0219528Y0093590D01*
X0219528Y0093604D02*
X0223162Y0093604D01*
X0223162Y0093618D02*
X0219528Y0093618D01*
X0219528Y0093632D02*
X0223162Y0093632D01*
X0223162Y0093646D02*
X0219528Y0093646D01*
X0219528Y0093660D02*
X0223162Y0093660D01*
X0223162Y0093674D02*
X0219528Y0093674D01*
X0219528Y0093688D02*
X0223162Y0093688D01*
X0223162Y0093702D02*
X0219528Y0093702D01*
X0219528Y0093716D02*
X0223162Y0093716D01*
X0223162Y0093730D02*
X0219528Y0093730D01*
X0219528Y0093744D02*
X0223162Y0093744D01*
X0223162Y0093758D02*
X0219528Y0093758D01*
X0219528Y0093772D02*
X0223162Y0093772D01*
X0223162Y0093786D02*
X0219528Y0093786D01*
X0219528Y0093800D02*
X0223162Y0093800D01*
X0223162Y0093814D02*
X0219528Y0093814D01*
X0219528Y0093828D02*
X0223162Y0093828D01*
X0223162Y0093842D02*
X0219528Y0093842D01*
X0219528Y0093856D02*
X0223162Y0093856D01*
X0223162Y0093870D02*
X0219528Y0093870D01*
X0219528Y0093884D02*
X0223162Y0093884D01*
X0223162Y0093898D02*
X0219528Y0093898D01*
X0219528Y0093912D02*
X0223162Y0093912D01*
X0223162Y0093926D02*
X0219528Y0093926D01*
X0219528Y0093940D02*
X0223162Y0093940D01*
X0223162Y0093954D02*
X0219528Y0093954D01*
X0219528Y0093968D02*
X0223162Y0093968D01*
X0223162Y0093982D02*
X0219528Y0093982D01*
X0219528Y0093996D02*
X0223162Y0093996D01*
X0223162Y0094010D02*
X0219528Y0094010D01*
X0219528Y0094024D02*
X0223162Y0094024D01*
X0223162Y0094038D02*
X0219528Y0094038D01*
X0219528Y0094052D02*
X0223162Y0094052D01*
X0223162Y0094066D02*
X0219528Y0094066D01*
X0219528Y0094080D02*
X0223162Y0094080D01*
X0223162Y0094094D02*
X0219528Y0094094D01*
X0219528Y0094108D02*
X0223162Y0094108D01*
X0223162Y0094122D02*
X0219528Y0094122D01*
X0219528Y0094136D02*
X0223162Y0094136D01*
X0223162Y0094150D02*
X0219528Y0094150D01*
X0219528Y0094164D02*
X0223162Y0094164D01*
X0223162Y0094178D02*
X0219528Y0094178D01*
X0219528Y0094192D02*
X0223162Y0094192D01*
X0223162Y0094206D02*
X0219528Y0094206D01*
X0219528Y0094220D02*
X0223162Y0094220D01*
X0223162Y0094234D02*
X0219528Y0094234D01*
X0219528Y0094248D02*
X0223162Y0094248D01*
X0223162Y0094262D02*
X0219528Y0094262D01*
X0219528Y0094276D02*
X0223162Y0094276D01*
X0223162Y0094290D02*
X0219528Y0094290D01*
X0231044Y0094294D02*
X0234678Y0094294D01*
X0234678Y0092806D01*
X0231044Y0092806D01*
X0231044Y0094294D01*
X0231044Y0092820D02*
X0234678Y0092820D01*
X0234678Y0092834D02*
X0231044Y0092834D01*
X0231044Y0092848D02*
X0234678Y0092848D01*
X0234678Y0092862D02*
X0231044Y0092862D01*
X0231044Y0092876D02*
X0234678Y0092876D01*
X0234678Y0092890D02*
X0231044Y0092890D01*
X0231044Y0092904D02*
X0234678Y0092904D01*
X0234678Y0092918D02*
X0231044Y0092918D01*
X0231044Y0092932D02*
X0234678Y0092932D01*
X0234678Y0092946D02*
X0231044Y0092946D01*
X0231044Y0092960D02*
X0234678Y0092960D01*
X0234678Y0092974D02*
X0231044Y0092974D01*
X0231044Y0092988D02*
X0234678Y0092988D01*
X0234678Y0093002D02*
X0231044Y0093002D01*
X0231044Y0093016D02*
X0234678Y0093016D01*
X0234678Y0093030D02*
X0231044Y0093030D01*
X0231044Y0093044D02*
X0234678Y0093044D01*
X0234678Y0093058D02*
X0231044Y0093058D01*
X0231044Y0093072D02*
X0234678Y0093072D01*
X0234678Y0093086D02*
X0231044Y0093086D01*
X0231044Y0093100D02*
X0234678Y0093100D01*
X0234678Y0093114D02*
X0231044Y0093114D01*
X0231044Y0093128D02*
X0234678Y0093128D01*
X0234678Y0093142D02*
X0231044Y0093142D01*
X0231044Y0093156D02*
X0234678Y0093156D01*
X0234678Y0093170D02*
X0231044Y0093170D01*
X0231044Y0093184D02*
X0234678Y0093184D01*
X0234678Y0093198D02*
X0231044Y0093198D01*
X0231044Y0093212D02*
X0234678Y0093212D01*
X0234678Y0093226D02*
X0231044Y0093226D01*
X0231044Y0093240D02*
X0234678Y0093240D01*
X0234678Y0093254D02*
X0231044Y0093254D01*
X0231044Y0093268D02*
X0234678Y0093268D01*
X0234678Y0093282D02*
X0231044Y0093282D01*
X0231044Y0093296D02*
X0234678Y0093296D01*
X0234678Y0093310D02*
X0231044Y0093310D01*
X0231044Y0093324D02*
X0234678Y0093324D01*
X0234678Y0093338D02*
X0231044Y0093338D01*
X0231044Y0093352D02*
X0234678Y0093352D01*
X0234678Y0093366D02*
X0231044Y0093366D01*
X0231044Y0093380D02*
X0234678Y0093380D01*
X0234678Y0093394D02*
X0231044Y0093394D01*
X0231044Y0093408D02*
X0234678Y0093408D01*
X0234678Y0093422D02*
X0231044Y0093422D01*
X0231044Y0093436D02*
X0234678Y0093436D01*
X0234678Y0093450D02*
X0231044Y0093450D01*
X0231044Y0093464D02*
X0234678Y0093464D01*
X0234678Y0093478D02*
X0231044Y0093478D01*
X0231044Y0093492D02*
X0234678Y0093492D01*
X0234678Y0093506D02*
X0231044Y0093506D01*
X0231044Y0093520D02*
X0234678Y0093520D01*
X0234678Y0093534D02*
X0231044Y0093534D01*
X0231044Y0093548D02*
X0234678Y0093548D01*
X0234678Y0093562D02*
X0231044Y0093562D01*
X0231044Y0093576D02*
X0234678Y0093576D01*
X0234678Y0093590D02*
X0231044Y0093590D01*
X0231044Y0093604D02*
X0234678Y0093604D01*
X0234678Y0093618D02*
X0231044Y0093618D01*
X0231044Y0093632D02*
X0234678Y0093632D01*
X0234678Y0093646D02*
X0231044Y0093646D01*
X0231044Y0093660D02*
X0234678Y0093660D01*
X0234678Y0093674D02*
X0231044Y0093674D01*
X0231044Y0093688D02*
X0234678Y0093688D01*
X0234678Y0093702D02*
X0231044Y0093702D01*
X0231044Y0093716D02*
X0234678Y0093716D01*
X0234678Y0093730D02*
X0231044Y0093730D01*
X0231044Y0093744D02*
X0234678Y0093744D01*
X0234678Y0093758D02*
X0231044Y0093758D01*
X0231044Y0093772D02*
X0234678Y0093772D01*
X0234678Y0093786D02*
X0231044Y0093786D01*
X0231044Y0093800D02*
X0234678Y0093800D01*
X0234678Y0093814D02*
X0231044Y0093814D01*
X0231044Y0093828D02*
X0234678Y0093828D01*
X0234678Y0093842D02*
X0231044Y0093842D01*
X0231044Y0093856D02*
X0234678Y0093856D01*
X0234678Y0093870D02*
X0231044Y0093870D01*
X0231044Y0093884D02*
X0234678Y0093884D01*
X0234678Y0093898D02*
X0231044Y0093898D01*
X0231044Y0093912D02*
X0234678Y0093912D01*
X0234678Y0093926D02*
X0231044Y0093926D01*
X0231044Y0093940D02*
X0234678Y0093940D01*
X0234678Y0093954D02*
X0231044Y0093954D01*
X0231044Y0093968D02*
X0234678Y0093968D01*
X0234678Y0093982D02*
X0231044Y0093982D01*
X0231044Y0093996D02*
X0234678Y0093996D01*
X0234678Y0094010D02*
X0231044Y0094010D01*
X0231044Y0094024D02*
X0234678Y0094024D01*
X0234678Y0094038D02*
X0231044Y0094038D01*
X0231044Y0094052D02*
X0234678Y0094052D01*
X0234678Y0094066D02*
X0231044Y0094066D01*
X0231044Y0094080D02*
X0234678Y0094080D01*
X0234678Y0094094D02*
X0231044Y0094094D01*
X0231044Y0094108D02*
X0234678Y0094108D01*
X0234678Y0094122D02*
X0231044Y0094122D01*
X0231044Y0094136D02*
X0234678Y0094136D01*
X0234678Y0094150D02*
X0231044Y0094150D01*
X0231044Y0094164D02*
X0234678Y0094164D01*
X0234678Y0094178D02*
X0231044Y0094178D01*
X0231044Y0094192D02*
X0234678Y0094192D01*
X0234678Y0094206D02*
X0231044Y0094206D01*
X0231044Y0094220D02*
X0234678Y0094220D01*
X0234678Y0094234D02*
X0231044Y0094234D01*
X0231044Y0094248D02*
X0234678Y0094248D01*
X0234678Y0094262D02*
X0231044Y0094262D01*
X0231044Y0094276D02*
X0234678Y0094276D01*
X0234678Y0094290D02*
X0231044Y0094290D01*
X0231044Y0096262D02*
X0234678Y0096262D01*
X0234678Y0094774D01*
X0231044Y0094774D01*
X0231044Y0096262D01*
X0231044Y0094788D02*
X0234678Y0094788D01*
X0234678Y0094802D02*
X0231044Y0094802D01*
X0231044Y0094816D02*
X0234678Y0094816D01*
X0234678Y0094830D02*
X0231044Y0094830D01*
X0231044Y0094844D02*
X0234678Y0094844D01*
X0234678Y0094858D02*
X0231044Y0094858D01*
X0231044Y0094872D02*
X0234678Y0094872D01*
X0234678Y0094886D02*
X0231044Y0094886D01*
X0231044Y0094900D02*
X0234678Y0094900D01*
X0234678Y0094914D02*
X0231044Y0094914D01*
X0231044Y0094928D02*
X0234678Y0094928D01*
X0234678Y0094942D02*
X0231044Y0094942D01*
X0231044Y0094956D02*
X0234678Y0094956D01*
X0234678Y0094970D02*
X0231044Y0094970D01*
X0231044Y0094984D02*
X0234678Y0094984D01*
X0234678Y0094998D02*
X0231044Y0094998D01*
X0231044Y0095012D02*
X0234678Y0095012D01*
X0234678Y0095026D02*
X0231044Y0095026D01*
X0231044Y0095040D02*
X0234678Y0095040D01*
X0234678Y0095054D02*
X0231044Y0095054D01*
X0231044Y0095068D02*
X0234678Y0095068D01*
X0234678Y0095082D02*
X0231044Y0095082D01*
X0231044Y0095096D02*
X0234678Y0095096D01*
X0234678Y0095110D02*
X0231044Y0095110D01*
X0231044Y0095124D02*
X0234678Y0095124D01*
X0234678Y0095138D02*
X0231044Y0095138D01*
X0231044Y0095152D02*
X0234678Y0095152D01*
X0234678Y0095166D02*
X0231044Y0095166D01*
X0231044Y0095180D02*
X0234678Y0095180D01*
X0234678Y0095194D02*
X0231044Y0095194D01*
X0231044Y0095208D02*
X0234678Y0095208D01*
X0234678Y0095222D02*
X0231044Y0095222D01*
X0231044Y0095236D02*
X0234678Y0095236D01*
X0234678Y0095250D02*
X0231044Y0095250D01*
X0231044Y0095264D02*
X0234678Y0095264D01*
X0234678Y0095278D02*
X0231044Y0095278D01*
X0231044Y0095292D02*
X0234678Y0095292D01*
X0234678Y0095306D02*
X0231044Y0095306D01*
X0231044Y0095320D02*
X0234678Y0095320D01*
X0234678Y0095334D02*
X0231044Y0095334D01*
X0231044Y0095348D02*
X0234678Y0095348D01*
X0234678Y0095362D02*
X0231044Y0095362D01*
X0231044Y0095376D02*
X0234678Y0095376D01*
X0234678Y0095390D02*
X0231044Y0095390D01*
X0231044Y0095404D02*
X0234678Y0095404D01*
X0234678Y0095418D02*
X0231044Y0095418D01*
X0231044Y0095432D02*
X0234678Y0095432D01*
X0234678Y0095446D02*
X0231044Y0095446D01*
X0231044Y0095460D02*
X0234678Y0095460D01*
X0234678Y0095474D02*
X0231044Y0095474D01*
X0231044Y0095488D02*
X0234678Y0095488D01*
X0234678Y0095502D02*
X0231044Y0095502D01*
X0231044Y0095516D02*
X0234678Y0095516D01*
X0234678Y0095530D02*
X0231044Y0095530D01*
X0231044Y0095544D02*
X0234678Y0095544D01*
X0234678Y0095558D02*
X0231044Y0095558D01*
X0231044Y0095572D02*
X0234678Y0095572D01*
X0234678Y0095586D02*
X0231044Y0095586D01*
X0231044Y0095600D02*
X0234678Y0095600D01*
X0234678Y0095614D02*
X0231044Y0095614D01*
X0231044Y0095628D02*
X0234678Y0095628D01*
X0234678Y0095642D02*
X0231044Y0095642D01*
X0231044Y0095656D02*
X0234678Y0095656D01*
X0234678Y0095670D02*
X0231044Y0095670D01*
X0231044Y0095684D02*
X0234678Y0095684D01*
X0234678Y0095698D02*
X0231044Y0095698D01*
X0231044Y0095712D02*
X0234678Y0095712D01*
X0234678Y0095726D02*
X0231044Y0095726D01*
X0231044Y0095740D02*
X0234678Y0095740D01*
X0234678Y0095754D02*
X0231044Y0095754D01*
X0231044Y0095768D02*
X0234678Y0095768D01*
X0234678Y0095782D02*
X0231044Y0095782D01*
X0231044Y0095796D02*
X0234678Y0095796D01*
X0234678Y0095810D02*
X0231044Y0095810D01*
X0231044Y0095824D02*
X0234678Y0095824D01*
X0234678Y0095838D02*
X0231044Y0095838D01*
X0231044Y0095852D02*
X0234678Y0095852D01*
X0234678Y0095866D02*
X0231044Y0095866D01*
X0231044Y0095880D02*
X0234678Y0095880D01*
X0234678Y0095894D02*
X0231044Y0095894D01*
X0231044Y0095908D02*
X0234678Y0095908D01*
X0234678Y0095922D02*
X0231044Y0095922D01*
X0231044Y0095936D02*
X0234678Y0095936D01*
X0234678Y0095950D02*
X0231044Y0095950D01*
X0231044Y0095964D02*
X0234678Y0095964D01*
X0234678Y0095978D02*
X0231044Y0095978D01*
X0231044Y0095992D02*
X0234678Y0095992D01*
X0234678Y0096006D02*
X0231044Y0096006D01*
X0231044Y0096020D02*
X0234678Y0096020D01*
X0234678Y0096034D02*
X0231044Y0096034D01*
X0231044Y0096048D02*
X0234678Y0096048D01*
X0234678Y0096062D02*
X0231044Y0096062D01*
X0231044Y0096076D02*
X0234678Y0096076D01*
X0234678Y0096090D02*
X0231044Y0096090D01*
X0231044Y0096104D02*
X0234678Y0096104D01*
X0234678Y0096118D02*
X0231044Y0096118D01*
X0231044Y0096132D02*
X0234678Y0096132D01*
X0234678Y0096146D02*
X0231044Y0096146D01*
X0231044Y0096160D02*
X0234678Y0096160D01*
X0234678Y0096174D02*
X0231044Y0096174D01*
X0231044Y0096188D02*
X0234678Y0096188D01*
X0234678Y0096202D02*
X0231044Y0096202D01*
X0231044Y0096216D02*
X0234678Y0096216D01*
X0234678Y0096230D02*
X0231044Y0096230D01*
X0231044Y0096244D02*
X0234678Y0096244D01*
X0234678Y0096258D02*
X0231044Y0096258D01*
X0231044Y0098231D02*
X0234678Y0098231D01*
X0234678Y0096743D01*
X0231044Y0096743D01*
X0231044Y0098231D01*
X0231044Y0096757D02*
X0234678Y0096757D01*
X0234678Y0096771D02*
X0231044Y0096771D01*
X0231044Y0096785D02*
X0234678Y0096785D01*
X0234678Y0096799D02*
X0231044Y0096799D01*
X0231044Y0096813D02*
X0234678Y0096813D01*
X0234678Y0096827D02*
X0231044Y0096827D01*
X0231044Y0096841D02*
X0234678Y0096841D01*
X0234678Y0096855D02*
X0231044Y0096855D01*
X0231044Y0096869D02*
X0234678Y0096869D01*
X0234678Y0096883D02*
X0231044Y0096883D01*
X0231044Y0096897D02*
X0234678Y0096897D01*
X0234678Y0096911D02*
X0231044Y0096911D01*
X0231044Y0096925D02*
X0234678Y0096925D01*
X0234678Y0096939D02*
X0231044Y0096939D01*
X0231044Y0096953D02*
X0234678Y0096953D01*
X0234678Y0096967D02*
X0231044Y0096967D01*
X0231044Y0096981D02*
X0234678Y0096981D01*
X0234678Y0096995D02*
X0231044Y0096995D01*
X0231044Y0097009D02*
X0234678Y0097009D01*
X0234678Y0097023D02*
X0231044Y0097023D01*
X0231044Y0097037D02*
X0234678Y0097037D01*
X0234678Y0097051D02*
X0231044Y0097051D01*
X0231044Y0097065D02*
X0234678Y0097065D01*
X0234678Y0097079D02*
X0231044Y0097079D01*
X0231044Y0097093D02*
X0234678Y0097093D01*
X0234678Y0097107D02*
X0231044Y0097107D01*
X0231044Y0097121D02*
X0234678Y0097121D01*
X0234678Y0097135D02*
X0231044Y0097135D01*
X0231044Y0097149D02*
X0234678Y0097149D01*
X0234678Y0097163D02*
X0231044Y0097163D01*
X0231044Y0097177D02*
X0234678Y0097177D01*
X0234678Y0097191D02*
X0231044Y0097191D01*
X0231044Y0097205D02*
X0234678Y0097205D01*
X0234678Y0097219D02*
X0231044Y0097219D01*
X0231044Y0097233D02*
X0234678Y0097233D01*
X0234678Y0097247D02*
X0231044Y0097247D01*
X0231044Y0097261D02*
X0234678Y0097261D01*
X0234678Y0097275D02*
X0231044Y0097275D01*
X0231044Y0097289D02*
X0234678Y0097289D01*
X0234678Y0097303D02*
X0231044Y0097303D01*
X0231044Y0097317D02*
X0234678Y0097317D01*
X0234678Y0097331D02*
X0231044Y0097331D01*
X0231044Y0097345D02*
X0234678Y0097345D01*
X0234678Y0097359D02*
X0231044Y0097359D01*
X0231044Y0097373D02*
X0234678Y0097373D01*
X0234678Y0097387D02*
X0231044Y0097387D01*
X0231044Y0097401D02*
X0234678Y0097401D01*
X0234678Y0097415D02*
X0231044Y0097415D01*
X0231044Y0097429D02*
X0234678Y0097429D01*
X0234678Y0097443D02*
X0231044Y0097443D01*
X0231044Y0097457D02*
X0234678Y0097457D01*
X0234678Y0097471D02*
X0231044Y0097471D01*
X0231044Y0097485D02*
X0234678Y0097485D01*
X0234678Y0097499D02*
X0231044Y0097499D01*
X0231044Y0097513D02*
X0234678Y0097513D01*
X0234678Y0097527D02*
X0231044Y0097527D01*
X0231044Y0097541D02*
X0234678Y0097541D01*
X0234678Y0097555D02*
X0231044Y0097555D01*
X0231044Y0097569D02*
X0234678Y0097569D01*
X0234678Y0097583D02*
X0231044Y0097583D01*
X0231044Y0097597D02*
X0234678Y0097597D01*
X0234678Y0097611D02*
X0231044Y0097611D01*
X0231044Y0097625D02*
X0234678Y0097625D01*
X0234678Y0097639D02*
X0231044Y0097639D01*
X0231044Y0097653D02*
X0234678Y0097653D01*
X0234678Y0097667D02*
X0231044Y0097667D01*
X0231044Y0097681D02*
X0234678Y0097681D01*
X0234678Y0097695D02*
X0231044Y0097695D01*
X0231044Y0097709D02*
X0234678Y0097709D01*
X0234678Y0097723D02*
X0231044Y0097723D01*
X0231044Y0097737D02*
X0234678Y0097737D01*
X0234678Y0097751D02*
X0231044Y0097751D01*
X0231044Y0097765D02*
X0234678Y0097765D01*
X0234678Y0097779D02*
X0231044Y0097779D01*
X0231044Y0097793D02*
X0234678Y0097793D01*
X0234678Y0097807D02*
X0231044Y0097807D01*
X0231044Y0097821D02*
X0234678Y0097821D01*
X0234678Y0097835D02*
X0231044Y0097835D01*
X0231044Y0097849D02*
X0234678Y0097849D01*
X0234678Y0097863D02*
X0231044Y0097863D01*
X0231044Y0097877D02*
X0234678Y0097877D01*
X0234678Y0097891D02*
X0231044Y0097891D01*
X0231044Y0097905D02*
X0234678Y0097905D01*
X0234678Y0097919D02*
X0231044Y0097919D01*
X0231044Y0097933D02*
X0234678Y0097933D01*
X0234678Y0097947D02*
X0231044Y0097947D01*
X0231044Y0097961D02*
X0234678Y0097961D01*
X0234678Y0097975D02*
X0231044Y0097975D01*
X0231044Y0097989D02*
X0234678Y0097989D01*
X0234678Y0098003D02*
X0231044Y0098003D01*
X0231044Y0098017D02*
X0234678Y0098017D01*
X0234678Y0098031D02*
X0231044Y0098031D01*
X0231044Y0098045D02*
X0234678Y0098045D01*
X0234678Y0098059D02*
X0231044Y0098059D01*
X0231044Y0098073D02*
X0234678Y0098073D01*
X0234678Y0098087D02*
X0231044Y0098087D01*
X0231044Y0098101D02*
X0234678Y0098101D01*
X0234678Y0098115D02*
X0231044Y0098115D01*
X0231044Y0098129D02*
X0234678Y0098129D01*
X0234678Y0098143D02*
X0231044Y0098143D01*
X0231044Y0098157D02*
X0234678Y0098157D01*
X0234678Y0098171D02*
X0231044Y0098171D01*
X0231044Y0098185D02*
X0234678Y0098185D01*
X0234678Y0098199D02*
X0231044Y0098199D01*
X0231044Y0098213D02*
X0234678Y0098213D01*
X0234678Y0098227D02*
X0231044Y0098227D01*
X0231044Y0100199D02*
X0234678Y0100199D01*
X0234678Y0098711D01*
X0231044Y0098711D01*
X0231044Y0100199D01*
X0231044Y0098725D02*
X0234678Y0098725D01*
X0234678Y0098739D02*
X0231044Y0098739D01*
X0231044Y0098753D02*
X0234678Y0098753D01*
X0234678Y0098767D02*
X0231044Y0098767D01*
X0231044Y0098781D02*
X0234678Y0098781D01*
X0234678Y0098795D02*
X0231044Y0098795D01*
X0231044Y0098809D02*
X0234678Y0098809D01*
X0234678Y0098823D02*
X0231044Y0098823D01*
X0231044Y0098837D02*
X0234678Y0098837D01*
X0234678Y0098851D02*
X0231044Y0098851D01*
X0231044Y0098865D02*
X0234678Y0098865D01*
X0234678Y0098879D02*
X0231044Y0098879D01*
X0231044Y0098893D02*
X0234678Y0098893D01*
X0234678Y0098907D02*
X0231044Y0098907D01*
X0231044Y0098921D02*
X0234678Y0098921D01*
X0234678Y0098935D02*
X0231044Y0098935D01*
X0231044Y0098949D02*
X0234678Y0098949D01*
X0234678Y0098963D02*
X0231044Y0098963D01*
X0231044Y0098977D02*
X0234678Y0098977D01*
X0234678Y0098991D02*
X0231044Y0098991D01*
X0231044Y0099005D02*
X0234678Y0099005D01*
X0234678Y0099019D02*
X0231044Y0099019D01*
X0231044Y0099033D02*
X0234678Y0099033D01*
X0234678Y0099047D02*
X0231044Y0099047D01*
X0231044Y0099061D02*
X0234678Y0099061D01*
X0234678Y0099075D02*
X0231044Y0099075D01*
X0231044Y0099089D02*
X0234678Y0099089D01*
X0234678Y0099103D02*
X0231044Y0099103D01*
X0231044Y0099117D02*
X0234678Y0099117D01*
X0234678Y0099131D02*
X0231044Y0099131D01*
X0231044Y0099145D02*
X0234678Y0099145D01*
X0234678Y0099159D02*
X0231044Y0099159D01*
X0231044Y0099173D02*
X0234678Y0099173D01*
X0234678Y0099187D02*
X0231044Y0099187D01*
X0231044Y0099201D02*
X0234678Y0099201D01*
X0234678Y0099215D02*
X0231044Y0099215D01*
X0231044Y0099229D02*
X0234678Y0099229D01*
X0234678Y0099243D02*
X0231044Y0099243D01*
X0231044Y0099257D02*
X0234678Y0099257D01*
X0234678Y0099271D02*
X0231044Y0099271D01*
X0231044Y0099285D02*
X0234678Y0099285D01*
X0234678Y0099299D02*
X0231044Y0099299D01*
X0231044Y0099313D02*
X0234678Y0099313D01*
X0234678Y0099327D02*
X0231044Y0099327D01*
X0231044Y0099341D02*
X0234678Y0099341D01*
X0234678Y0099355D02*
X0231044Y0099355D01*
X0231044Y0099369D02*
X0234678Y0099369D01*
X0234678Y0099383D02*
X0231044Y0099383D01*
X0231044Y0099397D02*
X0234678Y0099397D01*
X0234678Y0099411D02*
X0231044Y0099411D01*
X0231044Y0099425D02*
X0234678Y0099425D01*
X0234678Y0099439D02*
X0231044Y0099439D01*
X0231044Y0099453D02*
X0234678Y0099453D01*
X0234678Y0099467D02*
X0231044Y0099467D01*
X0231044Y0099481D02*
X0234678Y0099481D01*
X0234678Y0099495D02*
X0231044Y0099495D01*
X0231044Y0099509D02*
X0234678Y0099509D01*
X0234678Y0099523D02*
X0231044Y0099523D01*
X0231044Y0099537D02*
X0234678Y0099537D01*
X0234678Y0099551D02*
X0231044Y0099551D01*
X0231044Y0099565D02*
X0234678Y0099565D01*
X0234678Y0099579D02*
X0231044Y0099579D01*
X0231044Y0099593D02*
X0234678Y0099593D01*
X0234678Y0099607D02*
X0231044Y0099607D01*
X0231044Y0099621D02*
X0234678Y0099621D01*
X0234678Y0099635D02*
X0231044Y0099635D01*
X0231044Y0099649D02*
X0234678Y0099649D01*
X0234678Y0099663D02*
X0231044Y0099663D01*
X0231044Y0099677D02*
X0234678Y0099677D01*
X0234678Y0099691D02*
X0231044Y0099691D01*
X0231044Y0099705D02*
X0234678Y0099705D01*
X0234678Y0099719D02*
X0231044Y0099719D01*
X0231044Y0099733D02*
X0234678Y0099733D01*
X0234678Y0099747D02*
X0231044Y0099747D01*
X0231044Y0099761D02*
X0234678Y0099761D01*
X0234678Y0099775D02*
X0231044Y0099775D01*
X0231044Y0099789D02*
X0234678Y0099789D01*
X0234678Y0099803D02*
X0231044Y0099803D01*
X0231044Y0099817D02*
X0234678Y0099817D01*
X0234678Y0099831D02*
X0231044Y0099831D01*
X0231044Y0099845D02*
X0234678Y0099845D01*
X0234678Y0099859D02*
X0231044Y0099859D01*
X0231044Y0099873D02*
X0234678Y0099873D01*
X0234678Y0099887D02*
X0231044Y0099887D01*
X0231044Y0099901D02*
X0234678Y0099901D01*
X0234678Y0099915D02*
X0231044Y0099915D01*
X0231044Y0099929D02*
X0234678Y0099929D01*
X0234678Y0099943D02*
X0231044Y0099943D01*
X0231044Y0099957D02*
X0234678Y0099957D01*
X0234678Y0099971D02*
X0231044Y0099971D01*
X0231044Y0099985D02*
X0234678Y0099985D01*
X0234678Y0099999D02*
X0231044Y0099999D01*
X0231044Y0100013D02*
X0234678Y0100013D01*
X0234678Y0100027D02*
X0231044Y0100027D01*
X0231044Y0100041D02*
X0234678Y0100041D01*
X0234678Y0100055D02*
X0231044Y0100055D01*
X0231044Y0100069D02*
X0234678Y0100069D01*
X0234678Y0100083D02*
X0231044Y0100083D01*
X0231044Y0100097D02*
X0234678Y0100097D01*
X0234678Y0100111D02*
X0231044Y0100111D01*
X0231044Y0100125D02*
X0234678Y0100125D01*
X0234678Y0100139D02*
X0231044Y0100139D01*
X0231044Y0100153D02*
X0234678Y0100153D01*
X0234678Y0100167D02*
X0231044Y0100167D01*
X0231044Y0100181D02*
X0234678Y0100181D01*
X0234678Y0100195D02*
X0231044Y0100195D01*
X0231044Y0102168D02*
X0234678Y0102168D01*
X0234678Y0100680D01*
X0231044Y0100680D01*
X0231044Y0102168D01*
X0231044Y0100694D02*
X0234678Y0100694D01*
X0234678Y0100708D02*
X0231044Y0100708D01*
X0231044Y0100722D02*
X0234678Y0100722D01*
X0234678Y0100736D02*
X0231044Y0100736D01*
X0231044Y0100750D02*
X0234678Y0100750D01*
X0234678Y0100764D02*
X0231044Y0100764D01*
X0231044Y0100778D02*
X0234678Y0100778D01*
X0234678Y0100792D02*
X0231044Y0100792D01*
X0231044Y0100806D02*
X0234678Y0100806D01*
X0234678Y0100820D02*
X0231044Y0100820D01*
X0231044Y0100834D02*
X0234678Y0100834D01*
X0234678Y0100848D02*
X0231044Y0100848D01*
X0231044Y0100862D02*
X0234678Y0100862D01*
X0234678Y0100876D02*
X0231044Y0100876D01*
X0231044Y0100890D02*
X0234678Y0100890D01*
X0234678Y0100904D02*
X0231044Y0100904D01*
X0231044Y0100918D02*
X0234678Y0100918D01*
X0234678Y0100932D02*
X0231044Y0100932D01*
X0231044Y0100946D02*
X0234678Y0100946D01*
X0234678Y0100960D02*
X0231044Y0100960D01*
X0231044Y0100974D02*
X0234678Y0100974D01*
X0234678Y0100988D02*
X0231044Y0100988D01*
X0231044Y0101002D02*
X0234678Y0101002D01*
X0234678Y0101016D02*
X0231044Y0101016D01*
X0231044Y0101030D02*
X0234678Y0101030D01*
X0234678Y0101044D02*
X0231044Y0101044D01*
X0231044Y0101058D02*
X0234678Y0101058D01*
X0234678Y0101072D02*
X0231044Y0101072D01*
X0231044Y0101086D02*
X0234678Y0101086D01*
X0234678Y0101100D02*
X0231044Y0101100D01*
X0231044Y0101114D02*
X0234678Y0101114D01*
X0234678Y0101128D02*
X0231044Y0101128D01*
X0231044Y0101142D02*
X0234678Y0101142D01*
X0234678Y0101156D02*
X0231044Y0101156D01*
X0231044Y0101170D02*
X0234678Y0101170D01*
X0234678Y0101184D02*
X0231044Y0101184D01*
X0231044Y0101198D02*
X0234678Y0101198D01*
X0234678Y0101212D02*
X0231044Y0101212D01*
X0231044Y0101226D02*
X0234678Y0101226D01*
X0234678Y0101240D02*
X0231044Y0101240D01*
X0231044Y0101254D02*
X0234678Y0101254D01*
X0234678Y0101268D02*
X0231044Y0101268D01*
X0231044Y0101282D02*
X0234678Y0101282D01*
X0234678Y0101296D02*
X0231044Y0101296D01*
X0231044Y0101310D02*
X0234678Y0101310D01*
X0234678Y0101324D02*
X0231044Y0101324D01*
X0231044Y0101338D02*
X0234678Y0101338D01*
X0234678Y0101352D02*
X0231044Y0101352D01*
X0231044Y0101366D02*
X0234678Y0101366D01*
X0234678Y0101380D02*
X0231044Y0101380D01*
X0231044Y0101394D02*
X0234678Y0101394D01*
X0234678Y0101408D02*
X0231044Y0101408D01*
X0231044Y0101422D02*
X0234678Y0101422D01*
X0234678Y0101436D02*
X0231044Y0101436D01*
X0231044Y0101450D02*
X0234678Y0101450D01*
X0234678Y0101464D02*
X0231044Y0101464D01*
X0231044Y0101478D02*
X0234678Y0101478D01*
X0234678Y0101492D02*
X0231044Y0101492D01*
X0231044Y0101506D02*
X0234678Y0101506D01*
X0234678Y0101520D02*
X0231044Y0101520D01*
X0231044Y0101534D02*
X0234678Y0101534D01*
X0234678Y0101548D02*
X0231044Y0101548D01*
X0231044Y0101562D02*
X0234678Y0101562D01*
X0234678Y0101576D02*
X0231044Y0101576D01*
X0231044Y0101590D02*
X0234678Y0101590D01*
X0234678Y0101604D02*
X0231044Y0101604D01*
X0231044Y0101618D02*
X0234678Y0101618D01*
X0234678Y0101632D02*
X0231044Y0101632D01*
X0231044Y0101646D02*
X0234678Y0101646D01*
X0234678Y0101660D02*
X0231044Y0101660D01*
X0231044Y0101674D02*
X0234678Y0101674D01*
X0234678Y0101688D02*
X0231044Y0101688D01*
X0231044Y0101702D02*
X0234678Y0101702D01*
X0234678Y0101716D02*
X0231044Y0101716D01*
X0231044Y0101730D02*
X0234678Y0101730D01*
X0234678Y0101744D02*
X0231044Y0101744D01*
X0231044Y0101758D02*
X0234678Y0101758D01*
X0234678Y0101772D02*
X0231044Y0101772D01*
X0231044Y0101786D02*
X0234678Y0101786D01*
X0234678Y0101800D02*
X0231044Y0101800D01*
X0231044Y0101814D02*
X0234678Y0101814D01*
X0234678Y0101828D02*
X0231044Y0101828D01*
X0231044Y0101842D02*
X0234678Y0101842D01*
X0234678Y0101856D02*
X0231044Y0101856D01*
X0231044Y0101870D02*
X0234678Y0101870D01*
X0234678Y0101884D02*
X0231044Y0101884D01*
X0231044Y0101898D02*
X0234678Y0101898D01*
X0234678Y0101912D02*
X0231044Y0101912D01*
X0231044Y0101926D02*
X0234678Y0101926D01*
X0234678Y0101940D02*
X0231044Y0101940D01*
X0231044Y0101954D02*
X0234678Y0101954D01*
X0234678Y0101968D02*
X0231044Y0101968D01*
X0231044Y0101982D02*
X0234678Y0101982D01*
X0234678Y0101996D02*
X0231044Y0101996D01*
X0231044Y0102010D02*
X0234678Y0102010D01*
X0234678Y0102024D02*
X0231044Y0102024D01*
X0231044Y0102038D02*
X0234678Y0102038D01*
X0234678Y0102052D02*
X0231044Y0102052D01*
X0231044Y0102066D02*
X0234678Y0102066D01*
X0234678Y0102080D02*
X0231044Y0102080D01*
X0231044Y0102094D02*
X0234678Y0102094D01*
X0234678Y0102108D02*
X0231044Y0102108D01*
X0231044Y0102122D02*
X0234678Y0102122D01*
X0234678Y0102136D02*
X0231044Y0102136D01*
X0231044Y0102150D02*
X0234678Y0102150D01*
X0234678Y0102164D02*
X0231044Y0102164D01*
D26*
X0229103Y0100487D03*
X0227103Y0097487D03*
X0229103Y0094487D03*
X0225103Y0094487D03*
D27*
X0225103Y0100487D03*
D28*
X0237103Y0087137D03*
X0237103Y0077837D03*
X0175056Y0111774D03*
X0175056Y0121074D03*
D29*
X0145213Y0119376D03*
X0145213Y0126069D03*
X0135371Y0126069D03*
X0135371Y0119376D03*
X0136945Y0084337D03*
X0143638Y0084337D03*
X0143638Y0075479D03*
X0136945Y0075479D03*
X0112142Y0082369D03*
X0105449Y0082369D03*
X0097024Y0084101D03*
X0097024Y0077408D03*
X0044937Y0077447D03*
X0037103Y0075833D03*
X0037103Y0069140D03*
X0044937Y0070754D03*
X0040449Y0092487D03*
X0033756Y0092487D03*
X0033756Y0102487D03*
X0040449Y0102487D03*
X0144520Y0161498D03*
X0151213Y0161498D03*
X0161193Y0161798D03*
X0167886Y0161798D03*
X0142886Y0179298D03*
X0136193Y0179298D03*
X0141276Y0194180D03*
X0141276Y0200872D03*
X0187540Y0194144D03*
X0187540Y0187451D03*
X0268756Y0116502D03*
X0275449Y0116502D03*
X0222103Y0085833D03*
X0222103Y0079140D03*
X0260056Y0075833D03*
X0260056Y0069140D03*
X0282103Y0069140D03*
X0292103Y0069140D03*
X0292103Y0075833D03*
X0282103Y0075833D03*
X0283756Y0062487D03*
X0290449Y0062487D03*
X0300804Y0062408D03*
X0307497Y0062408D03*
X0280134Y0052723D03*
X0280134Y0046030D03*
X0260134Y0035833D03*
X0252103Y0035833D03*
X0252103Y0029140D03*
X0260134Y0029140D03*
X0252103Y0044061D03*
X0252103Y0050754D03*
X0363849Y0074455D03*
X0370541Y0074455D03*
X0372969Y0112388D03*
X0366276Y0112388D03*
X0042260Y0165872D03*
X0035567Y0165872D03*
D30*
X0046197Y0102487D03*
X0052103Y0102487D03*
X0052103Y0092487D03*
X0046197Y0092487D03*
X0204150Y0157644D03*
X0204150Y0163550D03*
X0214150Y0163550D03*
X0224150Y0163550D03*
X0224150Y0157644D03*
X0214150Y0157644D03*
X0234150Y0157644D03*
X0244150Y0157644D03*
X0244150Y0163550D03*
X0234150Y0163550D03*
X0254150Y0163550D03*
X0254150Y0157644D03*
D31*
X0254150Y0186613D03*
X0254150Y0192613D03*
X0244150Y0192613D03*
X0234150Y0192613D03*
X0234150Y0186613D03*
X0244150Y0186613D03*
X0224150Y0186613D03*
X0214150Y0186613D03*
X0214150Y0192613D03*
X0224150Y0192613D03*
X0204150Y0192613D03*
X0204150Y0186613D03*
D32*
X0204150Y0189613D03*
X0214150Y0189613D03*
X0224150Y0189613D03*
X0234150Y0189613D03*
X0244150Y0189613D03*
X0254150Y0189613D03*
D33*
X0270174Y0129672D03*
X0272103Y0129672D03*
X0274032Y0129672D03*
D34*
X0276753Y0144455D03*
X0267453Y0144455D03*
X0241753Y0052487D03*
X0232453Y0052487D03*
D35*
X0172855Y0170463D03*
X0172855Y0173022D03*
X0172855Y0175581D03*
X0172855Y0178140D03*
X0156221Y0178140D03*
X0156221Y0175581D03*
X0156221Y0173022D03*
X0156221Y0170463D03*
D36*
X0164465Y0061227D03*
X0167024Y0061227D03*
X0169583Y0061227D03*
X0169583Y0053746D03*
X0167024Y0053746D03*
X0164465Y0053746D03*
X0195449Y0053746D03*
X0198008Y0053746D03*
X0200567Y0053746D03*
X0200567Y0061227D03*
X0198008Y0061227D03*
X0195449Y0061227D03*
D37*
X0191040Y0047997D03*
X0191040Y0042487D03*
X0201870Y0042487D03*
X0201870Y0047997D03*
X0170886Y0047997D03*
X0170886Y0042487D03*
X0160056Y0042487D03*
X0160056Y0047997D03*
X0147933Y0047997D03*
X0137103Y0047997D03*
X0137103Y0042487D03*
X0147933Y0042487D03*
D38*
X0111178Y0131187D03*
X0100351Y0131187D03*
D39*
X0102575Y0138550D03*
X0107693Y0138550D03*
D40*
X0062024Y0129888D03*
X0062024Y0126187D03*
D41*
X0039465Y0128038D03*
D42*
X0262103Y0062487D03*
X0268008Y0062487D03*
X0268008Y0044967D03*
X0262103Y0044967D03*
D43*
X0258264Y0046837D03*
X0258264Y0048806D03*
X0258264Y0050774D03*
X0258264Y0052743D03*
X0258264Y0054711D03*
X0258264Y0056680D03*
X0258264Y0058648D03*
X0258264Y0060617D03*
X0271847Y0060617D03*
X0271847Y0058648D03*
X0271847Y0056680D03*
X0271847Y0054711D03*
X0271847Y0052743D03*
X0271847Y0050774D03*
X0271847Y0048806D03*
X0271847Y0046837D03*
D44*
X0265056Y0053727D03*
D45*
X0266138Y0045558D03*
X0263973Y0045558D03*
X0263973Y0061896D03*
X0266138Y0061896D03*
D46*
X0265056Y0053727D03*
D47*
X0267024Y0053727D03*
X0263087Y0053727D03*
X0263087Y0049790D03*
X0267024Y0049790D03*
X0267024Y0057664D03*
X0263087Y0057664D03*
D48*
X0121689Y0042487D03*
X0082516Y0042487D03*
D49*
X0067772Y0046601D03*
X0067772Y0049160D03*
X0067772Y0051719D03*
X0067772Y0054278D03*
X0056197Y0054278D03*
X0056197Y0051719D03*
X0056197Y0049160D03*
X0056197Y0046601D03*
D50*
X0060785Y0050439D03*
D51*
X0060823Y0036227D03*
X0058264Y0036227D03*
X0063382Y0036227D03*
X0065941Y0036227D03*
X0065941Y0024652D03*
X0063382Y0024652D03*
X0060823Y0024652D03*
X0058264Y0024652D03*
X0277634Y0169376D03*
X0280193Y0169376D03*
X0282752Y0169376D03*
X0285312Y0169376D03*
X0297634Y0169376D03*
X0300193Y0169376D03*
X0302752Y0169376D03*
X0305312Y0169376D03*
X0317634Y0169376D03*
X0320193Y0169376D03*
X0322752Y0169376D03*
X0325312Y0169376D03*
X0325312Y0180951D03*
X0322752Y0180951D03*
X0320193Y0180951D03*
X0317634Y0180951D03*
X0305312Y0180951D03*
X0302752Y0180951D03*
X0300193Y0180951D03*
X0297634Y0180951D03*
X0285312Y0180951D03*
X0282752Y0180951D03*
X0280193Y0180951D03*
X0277634Y0180951D03*
D52*
X0281473Y0173964D03*
X0301473Y0173964D03*
X0321473Y0173964D03*
X0062103Y0031639D03*
D53*
X0059182Y0092487D03*
X0065182Y0092487D03*
X0065182Y0102487D03*
X0059182Y0102487D03*
D54*
X0062182Y0102487D03*
X0062182Y0092487D03*
D55*
X0217103Y0037998D03*
X0217103Y0026975D03*
D56*
X0059111Y0084180D03*
X0051630Y0084180D03*
X0055371Y0075518D03*
D57*
X0046434Y0064384D03*
X0046434Y0053187D03*
D58*
X0040103Y0042487D02*
X0034103Y0042487D01*
X0034103Y0032487D02*
X0040103Y0032487D01*
X0178040Y0037487D02*
X0184040Y0037487D01*
X0184040Y0027487D02*
X0178040Y0027487D01*
X0089465Y0122802D02*
X0089465Y0128802D01*
X0079465Y0128802D02*
X0079465Y0122802D01*
X0041756Y0186660D02*
X0035756Y0186660D01*
X0035756Y0196660D02*
X0041756Y0196660D01*
D59*
X0057103Y0192487D03*
X0067103Y0192487D03*
X0077103Y0192487D03*
X0087103Y0192487D03*
X0087103Y0202487D03*
X0077103Y0202487D03*
X0067103Y0202487D03*
X0057103Y0202487D03*
X0322103Y0147487D03*
X0332103Y0147487D03*
X0332103Y0137487D03*
X0322103Y0137487D03*
X0322103Y0127487D03*
X0332103Y0127487D03*
X0332103Y0117487D03*
X0322103Y0117487D03*
X0322103Y0107487D03*
X0332103Y0107487D03*
X0332103Y0097487D03*
X0322103Y0097487D03*
X0322103Y0087487D03*
X0332103Y0087487D03*
X0332103Y0077487D03*
X0322103Y0077487D03*
X0359240Y0065055D03*
X0369240Y0065055D03*
X0379240Y0065055D03*
X0389240Y0065055D03*
X0389240Y0055055D03*
X0379240Y0055055D03*
X0369240Y0055055D03*
X0359240Y0055055D03*
D60*
X0368737Y0081876D03*
X0371296Y0081876D03*
X0373855Y0081876D03*
X0376414Y0081876D03*
X0376414Y0096640D03*
X0373855Y0096640D03*
X0371296Y0096640D03*
X0368737Y0096640D03*
D61*
X0365193Y0093097D03*
X0365193Y0090538D03*
X0365193Y0087979D03*
X0365193Y0085420D03*
X0379957Y0085420D03*
X0379957Y0087979D03*
X0379957Y0090538D03*
X0379957Y0093097D03*
D62*
X0372575Y0089258D03*
D63*
X0360764Y0134534D03*
X0384386Y0134534D03*
X0384386Y0032172D03*
X0360764Y0032172D03*
M02*
