G75*
%MOIN*%
%OFA0B0*%
%FSLAX25Y25*%
%IPPOS*%
%LPD*%
%AMOC8*
5,1,8,0,0,1.08239X$1,22.5*
%
%ADD10R,0.03937X0.04331*%
%ADD11R,0.02800X0.01600*%
%ADD12R,0.05900X0.09400*%
%ADD13R,0.04331X0.03937*%
%ADD14R,0.03543X0.01200*%
%ADD15R,0.01575X0.01575*%
%ADD16R,0.09252X0.09252*%
%ADD17R,0.02953X0.01181*%
%ADD18R,0.01181X0.02953*%
%ADD19R,0.13780X0.07480*%
%ADD20R,0.02657X0.00984*%
%ADD21R,0.00984X0.02657*%
%ADD22R,0.05512X0.02756*%
%ADD23R,0.06299X0.05512*%
%ADD24R,0.05906X0.05118*%
%ADD25R,0.02165X0.04724*%
%ADD26C,0.00276*%
%ADD27R,0.03150X0.03150*%
D10*
X0063128Y0050989D03*
X0069820Y0050989D03*
X0085274Y0044335D03*
X0085274Y0037643D03*
X0090174Y0024335D03*
X0090174Y0017643D03*
X0115813Y0006305D03*
X0122506Y0006305D03*
X0110874Y0039243D03*
X0110874Y0045935D03*
X0113348Y0073106D03*
X0113348Y0079798D03*
X0127074Y0089231D03*
X0135474Y0089231D03*
X0135474Y0095924D03*
X0127074Y0095924D03*
X0111474Y0107231D03*
X0111474Y0113924D03*
X0077874Y0094535D03*
X0077874Y0087843D03*
X0074528Y0076789D03*
X0081220Y0076789D03*
D11*
X0052674Y0043689D03*
X0052674Y0039789D03*
X0052674Y0035889D03*
X0041274Y0035889D03*
X0041274Y0039789D03*
X0041274Y0043689D03*
D12*
X0046974Y0039789D03*
D13*
X0024628Y0011789D03*
X0031320Y0011789D03*
X0045428Y0021589D03*
X0052120Y0021589D03*
X0050728Y0029789D03*
X0057420Y0029789D03*
X0039220Y0073789D03*
X0032528Y0073789D03*
X0032528Y0080389D03*
X0039220Y0080389D03*
X0050528Y0076789D03*
X0057220Y0076789D03*
X0039220Y0088789D03*
X0032528Y0088789D03*
X0032528Y0097189D03*
X0039220Y0097189D03*
X0077874Y0101043D03*
X0077874Y0107735D03*
X0118674Y0095924D03*
X0118674Y0089231D03*
D14*
X0101046Y0041935D03*
X0101046Y0038194D03*
X0101046Y0034651D03*
X0091597Y0034651D03*
X0091597Y0038194D03*
X0091597Y0041935D03*
D15*
X0095969Y0027794D03*
X0095969Y0023857D03*
X0095969Y0019920D03*
X0095969Y0015983D03*
X0099906Y0015983D03*
X0103843Y0015983D03*
X0107780Y0015983D03*
X0107780Y0019920D03*
X0107780Y0023857D03*
X0107780Y0027794D03*
X0103843Y0027794D03*
X0099906Y0027794D03*
D16*
X0102369Y0092011D03*
D17*
X0110243Y0090731D03*
X0110243Y0088172D03*
X0110243Y0093291D03*
X0110243Y0095850D03*
X0094494Y0095850D03*
X0094494Y0093291D03*
X0094494Y0090731D03*
X0094494Y0088172D03*
D18*
X0098530Y0084137D03*
X0101089Y0084137D03*
X0103648Y0084137D03*
X0106207Y0084137D03*
X0106207Y0099885D03*
X0103648Y0099885D03*
X0101089Y0099885D03*
X0098530Y0099885D03*
D19*
X0146471Y0113444D03*
X0146471Y0071712D03*
D20*
X0069538Y0087639D03*
X0069538Y0089608D03*
X0069538Y0091576D03*
X0069538Y0093545D03*
X0069538Y0095513D03*
X0069538Y0097482D03*
X0069538Y0099450D03*
X0069538Y0101419D03*
X0069538Y0103387D03*
X0069538Y0105356D03*
X0056437Y0105356D03*
X0056437Y0103387D03*
X0056437Y0101419D03*
X0056437Y0099450D03*
X0056437Y0097482D03*
X0056437Y0095513D03*
X0056437Y0093545D03*
X0056437Y0091576D03*
X0056437Y0089608D03*
X0056437Y0087639D03*
D21*
X0060030Y0087196D03*
X0061998Y0087196D03*
X0063967Y0087196D03*
X0065935Y0087196D03*
X0065935Y0105799D03*
X0063967Y0105799D03*
X0061998Y0105799D03*
X0060030Y0105799D03*
D22*
X0048417Y0096518D03*
X0048417Y0089825D03*
D23*
X0081674Y0025301D03*
X0081674Y0014277D03*
D24*
X0065274Y0014543D03*
X0065274Y0021235D03*
D25*
X0070534Y0033870D03*
X0078014Y0033870D03*
X0078014Y0044107D03*
X0074274Y0044107D03*
X0070534Y0044107D03*
D26*
X0041070Y0027779D02*
X0039378Y0027779D01*
X0041070Y0027779D02*
X0041070Y0026677D01*
X0039378Y0026677D01*
X0039378Y0027779D01*
X0039378Y0026952D02*
X0041070Y0026952D01*
X0041070Y0027227D02*
X0039378Y0027227D01*
X0039378Y0027502D02*
X0041070Y0027502D01*
X0041070Y0027777D02*
X0039378Y0027777D01*
X0039378Y0025220D02*
X0041070Y0025220D01*
X0041070Y0024118D01*
X0039378Y0024118D01*
X0039378Y0025220D01*
X0039378Y0024393D02*
X0041070Y0024393D01*
X0041070Y0024668D02*
X0039378Y0024668D01*
X0039378Y0024943D02*
X0041070Y0024943D01*
X0041070Y0025218D02*
X0039378Y0025218D01*
X0039378Y0022660D02*
X0041070Y0022660D01*
X0041070Y0021558D01*
X0039378Y0021558D01*
X0039378Y0022660D01*
X0039378Y0021833D02*
X0041070Y0021833D01*
X0041070Y0022108D02*
X0039378Y0022108D01*
X0039378Y0022383D02*
X0041070Y0022383D01*
X0041070Y0022658D02*
X0039378Y0022658D01*
X0039378Y0020101D02*
X0041070Y0020101D01*
X0041070Y0018999D01*
X0039378Y0018999D01*
X0039378Y0020101D01*
X0039378Y0019274D02*
X0041070Y0019274D01*
X0041070Y0019549D02*
X0039378Y0019549D01*
X0039378Y0019824D02*
X0041070Y0019824D01*
X0041070Y0020099D02*
X0039378Y0020099D01*
X0034770Y0020101D02*
X0033078Y0020101D01*
X0034770Y0020101D02*
X0034770Y0018999D01*
X0033078Y0018999D01*
X0033078Y0020101D01*
X0033078Y0019274D02*
X0034770Y0019274D01*
X0034770Y0019549D02*
X0033078Y0019549D01*
X0033078Y0019824D02*
X0034770Y0019824D01*
X0034770Y0020099D02*
X0033078Y0020099D01*
X0033078Y0022660D02*
X0034770Y0022660D01*
X0034770Y0021558D01*
X0033078Y0021558D01*
X0033078Y0022660D01*
X0033078Y0021833D02*
X0034770Y0021833D01*
X0034770Y0022108D02*
X0033078Y0022108D01*
X0033078Y0022383D02*
X0034770Y0022383D01*
X0034770Y0022658D02*
X0033078Y0022658D01*
X0033078Y0025220D02*
X0034770Y0025220D01*
X0034770Y0024118D01*
X0033078Y0024118D01*
X0033078Y0025220D01*
X0033078Y0024393D02*
X0034770Y0024393D01*
X0034770Y0024668D02*
X0033078Y0024668D01*
X0033078Y0024943D02*
X0034770Y0024943D01*
X0034770Y0025218D02*
X0033078Y0025218D01*
X0033078Y0027779D02*
X0034770Y0027779D01*
X0034770Y0026677D01*
X0033078Y0026677D01*
X0033078Y0027779D01*
X0033078Y0026952D02*
X0034770Y0026952D01*
X0034770Y0027227D02*
X0033078Y0027227D01*
X0033078Y0027502D02*
X0034770Y0027502D01*
X0034770Y0027777D02*
X0033078Y0027777D01*
D27*
X0138421Y0019789D03*
X0144327Y0019789D03*
M02*
