G75*
%MOIN*%
%OFA0B0*%
%FSLAX25Y25*%
%IPPOS*%
%LPD*%
%AMOC8*
5,1,8,0,0,1.08239X$1,22.5*
%
%ADD10C,0.00000*%
%ADD11C,0.00300*%
%ADD12R,0.03400X0.00100*%
%ADD13R,0.04800X0.00100*%
%ADD14R,0.05900X0.00100*%
%ADD15R,0.06800X0.00100*%
%ADD16R,0.07600X0.00100*%
%ADD17R,0.00100X0.00100*%
%ADD18R,0.00900X0.00100*%
%ADD19R,0.03200X0.00100*%
%ADD20R,0.03000X0.00100*%
%ADD21R,0.00400X0.00100*%
%ADD22R,0.00700X0.00100*%
%ADD23R,0.00500X0.00100*%
%ADD24R,0.02700X0.00100*%
%ADD25R,0.02300X0.00100*%
%ADD26R,0.00200X0.00100*%
%ADD27R,0.00600X0.00100*%
%ADD28R,0.02400X0.00100*%
%ADD29R,0.02200X0.00100*%
%ADD30R,0.02600X0.00100*%
%ADD31R,0.00300X0.00100*%
%ADD32R,0.01900X0.00100*%
%ADD33R,0.01800X0.00100*%
%ADD34R,0.00800X0.00100*%
%ADD35R,0.02000X0.00100*%
%ADD36R,0.01500X0.00100*%
%ADD37R,0.01600X0.00100*%
%ADD38R,0.01400X0.00100*%
%ADD39R,0.01100X0.00100*%
%ADD40R,0.01700X0.00100*%
%ADD41R,0.01300X0.00100*%
%ADD42R,0.01200X0.00100*%
%ADD43R,0.03700X0.00100*%
%ADD44R,0.05500X0.00100*%
%ADD45R,0.01000X0.00100*%
%ADD46R,0.08000X0.00100*%
%ADD47R,0.02100X0.00100*%
%ADD48R,0.02900X0.00100*%
%ADD49R,0.04200X0.00100*%
%ADD50R,0.05200X0.00100*%
%ADD51R,0.06000X0.00100*%
%ADD52R,0.06700X0.00100*%
%ADD53R,0.07400X0.00100*%
%ADD54R,0.08500X0.00100*%
%ADD55R,0.09000X0.00100*%
%ADD56R,0.09500X0.00100*%
%ADD57R,0.09900X0.00100*%
%ADD58R,0.10300X0.00100*%
%ADD59R,0.10700X0.00100*%
%ADD60R,0.11100X0.00100*%
%ADD61R,0.11500X0.00100*%
%ADD62R,0.11800X0.00100*%
%ADD63R,0.12200X0.00100*%
%ADD64R,0.12500X0.00100*%
%ADD65R,0.04100X0.00100*%
%ADD66R,0.08600X0.00100*%
%ADD67R,0.04500X0.00100*%
%ADD68R,0.04400X0.00100*%
%ADD69R,0.04600X0.00100*%
%ADD70R,0.04900X0.00100*%
%ADD71R,0.05100X0.00100*%
%ADD72R,0.05000X0.00100*%
%ADD73R,0.03500X0.00100*%
%ADD74R,0.05400X0.00100*%
%ADD75R,0.05600X0.00100*%
%ADD76R,0.05800X0.00100*%
%ADD77R,0.02800X0.00100*%
%ADD78R,0.06100X0.00100*%
%ADD79R,0.03300X0.00100*%
%ADD80R,0.06300X0.00100*%
%ADD81R,0.06400X0.00100*%
%ADD82R,0.06600X0.00100*%
%ADD83R,0.06900X0.00100*%
%ADD84R,0.07100X0.00100*%
%ADD85R,0.03100X0.00100*%
%ADD86R,0.07200X0.00100*%
%ADD87R,0.02500X0.00100*%
%ADD88R,0.07700X0.00100*%
%ADD89R,0.07900X0.00100*%
%ADD90R,0.08100X0.00100*%
%ADD91R,0.08200X0.00100*%
%ADD92R,0.08300X0.00100*%
%ADD93R,0.08400X0.00100*%
%ADD94R,0.08800X0.00100*%
%ADD95R,0.09200X0.00100*%
%ADD96R,0.09300X0.00100*%
%ADD97R,0.09400X0.00100*%
%ADD98R,0.09600X0.00100*%
%ADD99R,0.11300X0.00100*%
%ADD100R,0.11400X0.00100*%
%ADD101R,0.10500X0.00100*%
%ADD102R,0.10100X0.00100*%
%ADD103R,0.10200X0.00100*%
%ADD104R,0.06500X0.00100*%
%ADD105R,0.06200X0.00100*%
%ADD106R,0.04700X0.00100*%
%ADD107R,0.03900X0.00100*%
%ADD108R,0.03600X0.00100*%
%ADD109R,0.04000X0.00100*%
%ADD110R,0.04300X0.00100*%
%ADD111R,0.05300X0.00100*%
%ADD112R,0.07000X0.00100*%
%ADD113R,0.05700X0.00100*%
%ADD114R,0.03800X0.00100*%
%ADD115C,0.02200*%
%ADD116C,0.00600*%
%ADD117C,0.00500*%
%ADD118C,0.00100*%
%ADD119C,0.01600*%
%ADD120C,0.00800*%
%ADD121C,0.00400*%
%ADD122C,0.01378*%
%ADD123R,0.00984X0.00984*%
D10*
X0001600Y0001600D02*
X0001600Y0119710D01*
X0159080Y0119710D01*
X0159080Y0001600D01*
X0001600Y0001600D01*
X0005537Y0111836D02*
X0005539Y0111961D01*
X0005545Y0112086D01*
X0005555Y0112210D01*
X0005569Y0112334D01*
X0005586Y0112458D01*
X0005608Y0112581D01*
X0005634Y0112703D01*
X0005663Y0112825D01*
X0005696Y0112945D01*
X0005734Y0113064D01*
X0005774Y0113183D01*
X0005819Y0113299D01*
X0005867Y0113414D01*
X0005919Y0113528D01*
X0005975Y0113640D01*
X0006034Y0113750D01*
X0006096Y0113858D01*
X0006162Y0113965D01*
X0006231Y0114069D01*
X0006304Y0114170D01*
X0006379Y0114270D01*
X0006458Y0114367D01*
X0006540Y0114461D01*
X0006625Y0114553D01*
X0006712Y0114642D01*
X0006803Y0114728D01*
X0006896Y0114811D01*
X0006992Y0114892D01*
X0007090Y0114969D01*
X0007190Y0115043D01*
X0007293Y0115114D01*
X0007398Y0115181D01*
X0007506Y0115246D01*
X0007615Y0115306D01*
X0007726Y0115364D01*
X0007839Y0115417D01*
X0007953Y0115467D01*
X0008069Y0115514D01*
X0008186Y0115556D01*
X0008305Y0115595D01*
X0008425Y0115631D01*
X0008546Y0115662D01*
X0008668Y0115690D01*
X0008790Y0115713D01*
X0008914Y0115733D01*
X0009038Y0115749D01*
X0009162Y0115761D01*
X0009287Y0115769D01*
X0009412Y0115773D01*
X0009536Y0115773D01*
X0009661Y0115769D01*
X0009786Y0115761D01*
X0009910Y0115749D01*
X0010034Y0115733D01*
X0010158Y0115713D01*
X0010280Y0115690D01*
X0010402Y0115662D01*
X0010523Y0115631D01*
X0010643Y0115595D01*
X0010762Y0115556D01*
X0010879Y0115514D01*
X0010995Y0115467D01*
X0011109Y0115417D01*
X0011222Y0115364D01*
X0011333Y0115306D01*
X0011443Y0115246D01*
X0011550Y0115181D01*
X0011655Y0115114D01*
X0011758Y0115043D01*
X0011858Y0114969D01*
X0011956Y0114892D01*
X0012052Y0114811D01*
X0012145Y0114728D01*
X0012236Y0114642D01*
X0012323Y0114553D01*
X0012408Y0114461D01*
X0012490Y0114367D01*
X0012569Y0114270D01*
X0012644Y0114170D01*
X0012717Y0114069D01*
X0012786Y0113965D01*
X0012852Y0113858D01*
X0012914Y0113750D01*
X0012973Y0113640D01*
X0013029Y0113528D01*
X0013081Y0113414D01*
X0013129Y0113299D01*
X0013174Y0113183D01*
X0013214Y0113064D01*
X0013252Y0112945D01*
X0013285Y0112825D01*
X0013314Y0112703D01*
X0013340Y0112581D01*
X0013362Y0112458D01*
X0013379Y0112334D01*
X0013393Y0112210D01*
X0013403Y0112086D01*
X0013409Y0111961D01*
X0013411Y0111836D01*
X0013409Y0111711D01*
X0013403Y0111586D01*
X0013393Y0111462D01*
X0013379Y0111338D01*
X0013362Y0111214D01*
X0013340Y0111091D01*
X0013314Y0110969D01*
X0013285Y0110847D01*
X0013252Y0110727D01*
X0013214Y0110608D01*
X0013174Y0110489D01*
X0013129Y0110373D01*
X0013081Y0110258D01*
X0013029Y0110144D01*
X0012973Y0110032D01*
X0012914Y0109922D01*
X0012852Y0109814D01*
X0012786Y0109707D01*
X0012717Y0109603D01*
X0012644Y0109502D01*
X0012569Y0109402D01*
X0012490Y0109305D01*
X0012408Y0109211D01*
X0012323Y0109119D01*
X0012236Y0109030D01*
X0012145Y0108944D01*
X0012052Y0108861D01*
X0011956Y0108780D01*
X0011858Y0108703D01*
X0011758Y0108629D01*
X0011655Y0108558D01*
X0011550Y0108491D01*
X0011442Y0108426D01*
X0011333Y0108366D01*
X0011222Y0108308D01*
X0011109Y0108255D01*
X0010995Y0108205D01*
X0010879Y0108158D01*
X0010762Y0108116D01*
X0010643Y0108077D01*
X0010523Y0108041D01*
X0010402Y0108010D01*
X0010280Y0107982D01*
X0010158Y0107959D01*
X0010034Y0107939D01*
X0009910Y0107923D01*
X0009786Y0107911D01*
X0009661Y0107903D01*
X0009536Y0107899D01*
X0009412Y0107899D01*
X0009287Y0107903D01*
X0009162Y0107911D01*
X0009038Y0107923D01*
X0008914Y0107939D01*
X0008790Y0107959D01*
X0008668Y0107982D01*
X0008546Y0108010D01*
X0008425Y0108041D01*
X0008305Y0108077D01*
X0008186Y0108116D01*
X0008069Y0108158D01*
X0007953Y0108205D01*
X0007839Y0108255D01*
X0007726Y0108308D01*
X0007615Y0108366D01*
X0007505Y0108426D01*
X0007398Y0108491D01*
X0007293Y0108558D01*
X0007190Y0108629D01*
X0007090Y0108703D01*
X0006992Y0108780D01*
X0006896Y0108861D01*
X0006803Y0108944D01*
X0006712Y0109030D01*
X0006625Y0109119D01*
X0006540Y0109211D01*
X0006458Y0109305D01*
X0006379Y0109402D01*
X0006304Y0109502D01*
X0006231Y0109603D01*
X0006162Y0109707D01*
X0006096Y0109814D01*
X0006034Y0109922D01*
X0005975Y0110032D01*
X0005919Y0110144D01*
X0005867Y0110258D01*
X0005819Y0110373D01*
X0005774Y0110489D01*
X0005734Y0110608D01*
X0005696Y0110727D01*
X0005663Y0110847D01*
X0005634Y0110969D01*
X0005608Y0111091D01*
X0005586Y0111214D01*
X0005569Y0111338D01*
X0005555Y0111462D01*
X0005545Y0111586D01*
X0005539Y0111711D01*
X0005537Y0111836D01*
X0147269Y0009474D02*
X0147271Y0009599D01*
X0147277Y0009724D01*
X0147287Y0009848D01*
X0147301Y0009972D01*
X0147318Y0010096D01*
X0147340Y0010219D01*
X0147366Y0010341D01*
X0147395Y0010463D01*
X0147428Y0010583D01*
X0147466Y0010702D01*
X0147506Y0010821D01*
X0147551Y0010937D01*
X0147599Y0011052D01*
X0147651Y0011166D01*
X0147707Y0011278D01*
X0147766Y0011388D01*
X0147828Y0011496D01*
X0147894Y0011603D01*
X0147963Y0011707D01*
X0148036Y0011808D01*
X0148111Y0011908D01*
X0148190Y0012005D01*
X0148272Y0012099D01*
X0148357Y0012191D01*
X0148444Y0012280D01*
X0148535Y0012366D01*
X0148628Y0012449D01*
X0148724Y0012530D01*
X0148822Y0012607D01*
X0148922Y0012681D01*
X0149025Y0012752D01*
X0149130Y0012819D01*
X0149238Y0012884D01*
X0149347Y0012944D01*
X0149458Y0013002D01*
X0149571Y0013055D01*
X0149685Y0013105D01*
X0149801Y0013152D01*
X0149918Y0013194D01*
X0150037Y0013233D01*
X0150157Y0013269D01*
X0150278Y0013300D01*
X0150400Y0013328D01*
X0150522Y0013351D01*
X0150646Y0013371D01*
X0150770Y0013387D01*
X0150894Y0013399D01*
X0151019Y0013407D01*
X0151144Y0013411D01*
X0151268Y0013411D01*
X0151393Y0013407D01*
X0151518Y0013399D01*
X0151642Y0013387D01*
X0151766Y0013371D01*
X0151890Y0013351D01*
X0152012Y0013328D01*
X0152134Y0013300D01*
X0152255Y0013269D01*
X0152375Y0013233D01*
X0152494Y0013194D01*
X0152611Y0013152D01*
X0152727Y0013105D01*
X0152841Y0013055D01*
X0152954Y0013002D01*
X0153065Y0012944D01*
X0153175Y0012884D01*
X0153282Y0012819D01*
X0153387Y0012752D01*
X0153490Y0012681D01*
X0153590Y0012607D01*
X0153688Y0012530D01*
X0153784Y0012449D01*
X0153877Y0012366D01*
X0153968Y0012280D01*
X0154055Y0012191D01*
X0154140Y0012099D01*
X0154222Y0012005D01*
X0154301Y0011908D01*
X0154376Y0011808D01*
X0154449Y0011707D01*
X0154518Y0011603D01*
X0154584Y0011496D01*
X0154646Y0011388D01*
X0154705Y0011278D01*
X0154761Y0011166D01*
X0154813Y0011052D01*
X0154861Y0010937D01*
X0154906Y0010821D01*
X0154946Y0010702D01*
X0154984Y0010583D01*
X0155017Y0010463D01*
X0155046Y0010341D01*
X0155072Y0010219D01*
X0155094Y0010096D01*
X0155111Y0009972D01*
X0155125Y0009848D01*
X0155135Y0009724D01*
X0155141Y0009599D01*
X0155143Y0009474D01*
X0155141Y0009349D01*
X0155135Y0009224D01*
X0155125Y0009100D01*
X0155111Y0008976D01*
X0155094Y0008852D01*
X0155072Y0008729D01*
X0155046Y0008607D01*
X0155017Y0008485D01*
X0154984Y0008365D01*
X0154946Y0008246D01*
X0154906Y0008127D01*
X0154861Y0008011D01*
X0154813Y0007896D01*
X0154761Y0007782D01*
X0154705Y0007670D01*
X0154646Y0007560D01*
X0154584Y0007452D01*
X0154518Y0007345D01*
X0154449Y0007241D01*
X0154376Y0007140D01*
X0154301Y0007040D01*
X0154222Y0006943D01*
X0154140Y0006849D01*
X0154055Y0006757D01*
X0153968Y0006668D01*
X0153877Y0006582D01*
X0153784Y0006499D01*
X0153688Y0006418D01*
X0153590Y0006341D01*
X0153490Y0006267D01*
X0153387Y0006196D01*
X0153282Y0006129D01*
X0153174Y0006064D01*
X0153065Y0006004D01*
X0152954Y0005946D01*
X0152841Y0005893D01*
X0152727Y0005843D01*
X0152611Y0005796D01*
X0152494Y0005754D01*
X0152375Y0005715D01*
X0152255Y0005679D01*
X0152134Y0005648D01*
X0152012Y0005620D01*
X0151890Y0005597D01*
X0151766Y0005577D01*
X0151642Y0005561D01*
X0151518Y0005549D01*
X0151393Y0005541D01*
X0151268Y0005537D01*
X0151144Y0005537D01*
X0151019Y0005541D01*
X0150894Y0005549D01*
X0150770Y0005561D01*
X0150646Y0005577D01*
X0150522Y0005597D01*
X0150400Y0005620D01*
X0150278Y0005648D01*
X0150157Y0005679D01*
X0150037Y0005715D01*
X0149918Y0005754D01*
X0149801Y0005796D01*
X0149685Y0005843D01*
X0149571Y0005893D01*
X0149458Y0005946D01*
X0149347Y0006004D01*
X0149237Y0006064D01*
X0149130Y0006129D01*
X0149025Y0006196D01*
X0148922Y0006267D01*
X0148822Y0006341D01*
X0148724Y0006418D01*
X0148628Y0006499D01*
X0148535Y0006582D01*
X0148444Y0006668D01*
X0148357Y0006757D01*
X0148272Y0006849D01*
X0148190Y0006943D01*
X0148111Y0007040D01*
X0148036Y0007140D01*
X0147963Y0007241D01*
X0147894Y0007345D01*
X0147828Y0007452D01*
X0147766Y0007560D01*
X0147707Y0007670D01*
X0147651Y0007782D01*
X0147599Y0007896D01*
X0147551Y0008011D01*
X0147506Y0008127D01*
X0147466Y0008246D01*
X0147428Y0008365D01*
X0147395Y0008485D01*
X0147366Y0008607D01*
X0147340Y0008729D01*
X0147318Y0008852D01*
X0147301Y0008976D01*
X0147287Y0009100D01*
X0147277Y0009224D01*
X0147271Y0009349D01*
X0147269Y0009474D01*
D11*
X0123798Y0009155D02*
X0121863Y0009155D01*
X0122830Y0009155D02*
X0122830Y0012057D01*
X0121863Y0011090D01*
X0120851Y0011573D02*
X0118916Y0009638D01*
X0119400Y0009155D01*
X0120367Y0009155D01*
X0120851Y0009638D01*
X0120851Y0011573D01*
X0120367Y0012057D01*
X0119400Y0012057D01*
X0118916Y0011573D01*
X0118916Y0009638D01*
X0117904Y0009155D02*
X0115970Y0009155D01*
X0116937Y0009155D02*
X0116937Y0012057D01*
X0115970Y0011090D01*
X0114958Y0011573D02*
X0114958Y0010606D01*
X0114474Y0010122D01*
X0113023Y0010122D01*
X0113023Y0009155D02*
X0113023Y0012057D01*
X0114474Y0012057D01*
X0114958Y0011573D01*
X0113990Y0010122D02*
X0114958Y0009155D01*
X0112110Y0006774D02*
X0111627Y0006774D01*
X0110659Y0005806D01*
X0110659Y0004839D02*
X0110659Y0006774D01*
X0109648Y0006290D02*
X0109164Y0006774D01*
X0108196Y0006774D01*
X0107713Y0006290D01*
X0107713Y0005323D01*
X0108196Y0004839D01*
X0109164Y0004839D01*
X0109648Y0005323D01*
X0109648Y0006290D01*
X0106701Y0006774D02*
X0105250Y0006774D01*
X0104766Y0006290D01*
X0105250Y0005806D01*
X0106217Y0005806D01*
X0106701Y0005323D01*
X0106217Y0004839D01*
X0104766Y0004839D01*
X0103755Y0004839D02*
X0103755Y0006290D01*
X0103271Y0006774D01*
X0101820Y0006774D01*
X0101820Y0004839D01*
X0100808Y0005806D02*
X0098873Y0005806D01*
X0098873Y0005323D02*
X0098873Y0006290D01*
X0099357Y0006774D01*
X0100324Y0006774D01*
X0100808Y0006290D01*
X0100808Y0005806D01*
X0100324Y0004839D02*
X0099357Y0004839D01*
X0098873Y0005323D01*
X0097862Y0005323D02*
X0097378Y0004839D01*
X0095927Y0004839D01*
X0096410Y0005806D02*
X0095927Y0006290D01*
X0096410Y0006774D01*
X0097862Y0006774D01*
X0097378Y0005806D02*
X0096410Y0005806D01*
X0097378Y0005806D02*
X0097862Y0005323D01*
X0091969Y0005806D02*
X0091969Y0007741D01*
X0090034Y0007741D02*
X0090034Y0005806D01*
X0091001Y0004839D01*
X0091969Y0005806D01*
X0089022Y0005323D02*
X0089022Y0007741D01*
X0087087Y0007741D02*
X0087087Y0005323D01*
X0087571Y0004839D01*
X0088538Y0004839D01*
X0089022Y0005323D01*
X0075924Y0015623D02*
X0075924Y0016590D01*
X0075440Y0017074D01*
X0075924Y0018085D02*
X0075924Y0020020D01*
X0075924Y0019053D02*
X0073022Y0019053D01*
X0073989Y0018085D01*
X0073505Y0017074D02*
X0073022Y0016590D01*
X0073022Y0015623D01*
X0073505Y0015139D01*
X0075440Y0015139D01*
X0075924Y0015623D01*
X0075440Y0021032D02*
X0074473Y0021032D01*
X0074473Y0022483D01*
X0074957Y0022967D01*
X0075440Y0022967D01*
X0075924Y0022483D01*
X0075924Y0021516D01*
X0075440Y0021032D01*
X0074473Y0021032D02*
X0073505Y0021999D01*
X0073022Y0022967D01*
X0067862Y0025539D02*
X0065927Y0025539D01*
X0066895Y0025539D02*
X0066895Y0028441D01*
X0065927Y0027474D01*
X0064916Y0025539D02*
X0062981Y0025539D01*
X0062981Y0028441D01*
X0063561Y0029939D02*
X0063077Y0030423D01*
X0063561Y0029939D02*
X0064529Y0029939D01*
X0065012Y0030423D01*
X0065012Y0030906D01*
X0064529Y0031390D01*
X0064045Y0031390D01*
X0064529Y0031390D02*
X0065012Y0031874D01*
X0065012Y0032358D01*
X0064529Y0032841D01*
X0063561Y0032841D01*
X0063077Y0032358D01*
X0062066Y0032358D02*
X0061582Y0032841D01*
X0060615Y0032841D01*
X0060131Y0032358D01*
X0060131Y0030423D01*
X0060615Y0029939D01*
X0061582Y0029939D01*
X0062066Y0030423D01*
X0064322Y0034946D02*
X0066740Y0034946D01*
X0067224Y0035430D01*
X0067224Y0036397D01*
X0066740Y0036881D01*
X0064322Y0036881D01*
X0064322Y0037892D02*
X0065773Y0037892D01*
X0065289Y0038860D01*
X0065289Y0039344D01*
X0065773Y0039827D01*
X0066740Y0039827D01*
X0067224Y0039344D01*
X0067224Y0038376D01*
X0066740Y0037892D01*
X0064322Y0037892D02*
X0064322Y0039827D01*
X0057017Y0047071D02*
X0056534Y0047071D01*
X0057017Y0047071D02*
X0057501Y0047555D01*
X0057501Y0049974D01*
X0055566Y0049974D02*
X0055566Y0048523D01*
X0056050Y0048039D01*
X0057501Y0048039D01*
X0054569Y0048039D02*
X0054086Y0048523D01*
X0054086Y0050458D01*
X0054569Y0049974D02*
X0053602Y0049974D01*
X0052121Y0049974D02*
X0052121Y0048039D01*
X0051637Y0048039D02*
X0052605Y0048039D01*
X0050626Y0048039D02*
X0050626Y0050941D01*
X0050626Y0049974D02*
X0049175Y0049974D01*
X0048691Y0049490D01*
X0048691Y0048523D01*
X0049175Y0048039D01*
X0050626Y0048039D01*
X0047694Y0048039D02*
X0046727Y0048039D01*
X0047210Y0048039D02*
X0047210Y0049974D01*
X0046727Y0049974D01*
X0047210Y0050941D02*
X0047210Y0051425D01*
X0045715Y0049490D02*
X0045231Y0049974D01*
X0044748Y0049490D01*
X0044748Y0048039D01*
X0045715Y0048039D02*
X0045715Y0049490D01*
X0044748Y0049490D02*
X0044264Y0049974D01*
X0043780Y0049974D01*
X0043780Y0048039D01*
X0042769Y0048039D02*
X0042769Y0049974D01*
X0042769Y0048039D02*
X0041317Y0048039D01*
X0040834Y0048523D01*
X0040834Y0049974D01*
X0039822Y0049490D02*
X0037887Y0049490D01*
X0037887Y0048039D02*
X0037887Y0050941D01*
X0039822Y0050941D02*
X0039822Y0048039D01*
X0038124Y0039820D02*
X0038124Y0037885D01*
X0036189Y0039820D01*
X0035705Y0039820D01*
X0035222Y0039337D01*
X0035222Y0038369D01*
X0035705Y0037885D01*
X0035222Y0036874D02*
X0037640Y0036874D01*
X0038124Y0036390D01*
X0038124Y0035423D01*
X0037640Y0034939D01*
X0035222Y0034939D01*
X0047408Y0018241D02*
X0046924Y0017758D01*
X0046924Y0015823D01*
X0047408Y0015339D01*
X0048375Y0015339D01*
X0048859Y0015823D01*
X0049871Y0015339D02*
X0051806Y0017274D01*
X0051806Y0017758D01*
X0051322Y0018241D01*
X0050354Y0018241D01*
X0049871Y0017758D01*
X0048859Y0017758D02*
X0048375Y0018241D01*
X0047408Y0018241D01*
X0049871Y0015339D02*
X0051806Y0015339D01*
X0049982Y0007374D02*
X0050465Y0006890D01*
X0050465Y0006406D01*
X0048530Y0006406D01*
X0048530Y0005923D02*
X0048530Y0006890D01*
X0049014Y0007374D01*
X0049982Y0007374D01*
X0047526Y0007374D02*
X0047043Y0007374D01*
X0046075Y0006406D01*
X0046075Y0005439D02*
X0046075Y0007374D01*
X0045063Y0007374D02*
X0045063Y0005439D01*
X0043612Y0005439D01*
X0043129Y0005923D01*
X0043129Y0007374D01*
X0042117Y0007374D02*
X0040666Y0007374D01*
X0040182Y0006890D01*
X0040666Y0006406D01*
X0041633Y0006406D01*
X0042117Y0005923D01*
X0041633Y0005439D01*
X0040182Y0005439D01*
X0039170Y0005923D02*
X0038687Y0006406D01*
X0037719Y0006406D01*
X0037235Y0006890D01*
X0037719Y0007374D01*
X0039170Y0007374D01*
X0036224Y0006890D02*
X0036224Y0006406D01*
X0034289Y0006406D01*
X0034289Y0005923D02*
X0034289Y0006890D01*
X0034773Y0007374D01*
X0035740Y0007374D01*
X0036224Y0006890D01*
X0035740Y0005439D02*
X0034773Y0005439D01*
X0034289Y0005923D01*
X0032801Y0007374D02*
X0031834Y0006406D01*
X0031834Y0005439D02*
X0031834Y0007374D01*
X0032801Y0007374D02*
X0033285Y0007374D01*
X0030822Y0007858D02*
X0030822Y0006890D01*
X0030338Y0006406D01*
X0028887Y0006406D01*
X0028887Y0005439D02*
X0028887Y0008341D01*
X0030338Y0008341D01*
X0030822Y0007858D01*
X0037235Y0005439D02*
X0038687Y0005439D01*
X0039170Y0005923D01*
X0048530Y0005923D02*
X0049014Y0005439D01*
X0049982Y0005439D01*
X0040141Y0014439D02*
X0038206Y0014439D01*
X0039174Y0014439D02*
X0039174Y0017341D01*
X0038206Y0016374D01*
X0037195Y0016858D02*
X0036711Y0017341D01*
X0035743Y0017341D01*
X0035260Y0016858D01*
X0035260Y0014923D01*
X0035743Y0014439D01*
X0036711Y0014439D01*
X0037195Y0014923D01*
X0034263Y0014439D02*
X0033295Y0014439D01*
X0033779Y0014439D02*
X0033779Y0017341D01*
X0033295Y0017341D02*
X0034263Y0017341D01*
X0029538Y0017341D02*
X0029538Y0014439D01*
X0028571Y0014439D02*
X0030506Y0014439D01*
X0028571Y0016374D02*
X0029538Y0017341D01*
X0027559Y0016858D02*
X0027075Y0017341D01*
X0026108Y0017341D01*
X0025624Y0016858D01*
X0025624Y0014923D01*
X0026108Y0014439D01*
X0027075Y0014439D01*
X0027559Y0014923D01*
X0008724Y0015508D02*
X0008240Y0015024D01*
X0008724Y0015508D02*
X0008724Y0016475D01*
X0008240Y0016959D01*
X0007757Y0016959D01*
X0007273Y0016475D01*
X0007273Y0015991D01*
X0007273Y0016475D02*
X0006789Y0016959D01*
X0006305Y0016959D01*
X0005822Y0016475D01*
X0005822Y0015508D01*
X0006305Y0015024D01*
X0005822Y0017971D02*
X0007757Y0017971D01*
X0008724Y0018938D01*
X0007757Y0019906D01*
X0005822Y0019906D01*
X0006305Y0020917D02*
X0005822Y0021401D01*
X0005822Y0022368D01*
X0006305Y0022852D01*
X0006789Y0022852D01*
X0007273Y0022368D01*
X0007757Y0022852D01*
X0008240Y0022852D01*
X0008724Y0022368D01*
X0008724Y0021401D01*
X0008240Y0020917D01*
X0007273Y0021885D02*
X0007273Y0022368D01*
X0009208Y0023864D02*
X0009208Y0025799D01*
X0008240Y0026810D02*
X0008724Y0027294D01*
X0008724Y0028261D01*
X0008240Y0028745D01*
X0007273Y0028745D01*
X0007273Y0027778D01*
X0006305Y0028745D02*
X0005822Y0028261D01*
X0005822Y0027294D01*
X0006305Y0026810D01*
X0008240Y0026810D01*
X0008724Y0029757D02*
X0005822Y0029757D01*
X0008724Y0031692D01*
X0005822Y0031692D01*
X0005822Y0032703D02*
X0005822Y0034154D01*
X0006305Y0034638D01*
X0008240Y0034638D01*
X0008724Y0034154D01*
X0008724Y0032703D01*
X0005822Y0032703D01*
X0009208Y0035650D02*
X0009208Y0037585D01*
X0008240Y0038596D02*
X0008724Y0039080D01*
X0008724Y0040047D01*
X0008240Y0040531D01*
X0007757Y0040531D01*
X0007273Y0040047D01*
X0007273Y0039080D01*
X0006789Y0038596D01*
X0006305Y0038596D01*
X0005822Y0039080D01*
X0005822Y0040047D01*
X0006305Y0040531D01*
X0005822Y0041543D02*
X0005822Y0042994D01*
X0006305Y0043478D01*
X0008240Y0043478D01*
X0008724Y0042994D01*
X0008724Y0041543D01*
X0005822Y0041543D01*
X0006789Y0044489D02*
X0005822Y0045457D01*
X0006789Y0046424D01*
X0008724Y0046424D01*
X0009208Y0047436D02*
X0009208Y0049371D01*
X0008240Y0050382D02*
X0008724Y0050866D01*
X0008724Y0051833D01*
X0008240Y0052317D01*
X0007757Y0052317D01*
X0007273Y0051833D01*
X0007273Y0050866D01*
X0006789Y0050382D01*
X0006305Y0050382D01*
X0005822Y0050866D01*
X0005822Y0051833D01*
X0006305Y0052317D01*
X0006305Y0053329D02*
X0008240Y0053329D01*
X0008724Y0053812D01*
X0008724Y0054780D01*
X0008240Y0055264D01*
X0008724Y0056275D02*
X0008724Y0058210D01*
X0009208Y0059222D02*
X0009208Y0061157D01*
X0008240Y0062168D02*
X0008724Y0062652D01*
X0008724Y0063620D01*
X0008240Y0064103D01*
X0005822Y0064103D01*
X0005822Y0065115D02*
X0007757Y0065115D01*
X0008724Y0066082D01*
X0007757Y0067050D01*
X0005822Y0067050D01*
X0009208Y0068061D02*
X0009208Y0069996D01*
X0008724Y0071008D02*
X0008724Y0072943D01*
X0008724Y0073954D02*
X0008724Y0074922D01*
X0008724Y0074438D02*
X0005822Y0074438D01*
X0005822Y0073954D02*
X0005822Y0074922D01*
X0006305Y0075919D02*
X0008240Y0075919D01*
X0008724Y0076402D01*
X0008724Y0077370D01*
X0008240Y0077854D01*
X0007273Y0077854D01*
X0007273Y0076886D01*
X0006305Y0075919D02*
X0005822Y0076402D01*
X0005822Y0077370D01*
X0006305Y0077854D01*
X0009208Y0078865D02*
X0009208Y0080800D01*
X0008724Y0081812D02*
X0006789Y0081812D01*
X0005822Y0082779D01*
X0006789Y0083747D01*
X0008724Y0083747D01*
X0008240Y0084758D02*
X0008724Y0085242D01*
X0008724Y0086210D01*
X0008240Y0086693D01*
X0008240Y0087705D02*
X0008724Y0088189D01*
X0008724Y0089156D01*
X0008240Y0089640D01*
X0009208Y0090651D02*
X0009208Y0092586D01*
X0008240Y0093598D02*
X0008724Y0094082D01*
X0008724Y0095049D01*
X0008240Y0095533D01*
X0007273Y0095533D01*
X0007273Y0094565D01*
X0008240Y0093598D02*
X0006305Y0093598D01*
X0005822Y0094082D01*
X0005822Y0095049D01*
X0006305Y0095533D01*
X0005822Y0096544D02*
X0008724Y0098479D01*
X0005822Y0098479D01*
X0005822Y0099491D02*
X0005822Y0100942D01*
X0006305Y0101426D01*
X0008240Y0101426D01*
X0008724Y0100942D01*
X0008724Y0099491D01*
X0005822Y0099491D01*
X0005822Y0096544D02*
X0008724Y0096544D01*
X0006305Y0089640D02*
X0005822Y0089156D01*
X0005822Y0088189D01*
X0006305Y0087705D01*
X0008240Y0087705D01*
X0006305Y0086693D02*
X0005822Y0086210D01*
X0005822Y0085242D01*
X0006305Y0084758D01*
X0008240Y0084758D01*
X0007273Y0083747D02*
X0007273Y0081812D01*
X0020924Y0081258D02*
X0020924Y0079323D01*
X0021408Y0078839D01*
X0022375Y0078839D01*
X0022859Y0079323D01*
X0023871Y0079323D02*
X0024354Y0078839D01*
X0025322Y0078839D01*
X0025806Y0079323D01*
X0025806Y0081258D01*
X0025322Y0081741D01*
X0024354Y0081741D01*
X0023871Y0081258D01*
X0023871Y0080774D01*
X0024354Y0080290D01*
X0025806Y0080290D01*
X0026817Y0080290D02*
X0028268Y0080290D01*
X0028752Y0079806D01*
X0028752Y0079323D01*
X0028268Y0078839D01*
X0026817Y0078839D01*
X0026817Y0081741D01*
X0028268Y0081741D01*
X0028752Y0081258D01*
X0028752Y0080774D01*
X0028268Y0080290D01*
X0030168Y0083239D02*
X0031136Y0083239D01*
X0031619Y0083723D01*
X0032631Y0083239D02*
X0034566Y0083239D01*
X0033598Y0083239D02*
X0033598Y0086141D01*
X0032631Y0085174D01*
X0031619Y0085658D02*
X0031136Y0086141D01*
X0030168Y0086141D01*
X0029684Y0085658D01*
X0029684Y0083723D01*
X0030168Y0083239D01*
X0035577Y0083723D02*
X0037512Y0085658D01*
X0037512Y0083723D01*
X0037029Y0083239D01*
X0036061Y0083239D01*
X0035577Y0083723D01*
X0035577Y0085658D01*
X0036061Y0086141D01*
X0037029Y0086141D01*
X0037512Y0085658D01*
X0037512Y0091639D02*
X0035577Y0091639D01*
X0036545Y0091639D02*
X0036545Y0094541D01*
X0035577Y0093574D01*
X0033598Y0094541D02*
X0033598Y0091639D01*
X0032631Y0091639D02*
X0034566Y0091639D01*
X0032631Y0093574D02*
X0033598Y0094541D01*
X0031619Y0094058D02*
X0031136Y0094541D01*
X0030168Y0094541D01*
X0029684Y0094058D01*
X0029684Y0092123D01*
X0030168Y0091639D01*
X0031136Y0091639D01*
X0031619Y0092123D01*
X0022375Y0081741D02*
X0021408Y0081741D01*
X0020924Y0081258D01*
X0022375Y0081741D02*
X0022859Y0081258D01*
X0022636Y0074841D02*
X0021668Y0074841D01*
X0021184Y0074358D01*
X0021184Y0072423D01*
X0021668Y0071939D01*
X0022636Y0071939D01*
X0023119Y0072423D01*
X0024131Y0072423D02*
X0024615Y0071939D01*
X0025582Y0071939D01*
X0026066Y0072423D01*
X0026066Y0074358D01*
X0025582Y0074841D01*
X0024615Y0074841D01*
X0024131Y0074358D01*
X0024131Y0073874D01*
X0024615Y0073390D01*
X0026066Y0073390D01*
X0027077Y0073390D02*
X0029012Y0073390D01*
X0029012Y0073874D02*
X0029012Y0071939D01*
X0027077Y0071939D02*
X0027077Y0073874D01*
X0028045Y0074841D01*
X0029012Y0073874D01*
X0023119Y0074358D02*
X0022636Y0074841D01*
X0033624Y0065558D02*
X0033624Y0063623D01*
X0034108Y0063139D01*
X0035075Y0063139D01*
X0035559Y0063623D01*
X0035559Y0065558D01*
X0035075Y0066041D01*
X0034108Y0066041D01*
X0033624Y0065558D01*
X0036571Y0064590D02*
X0036571Y0063623D01*
X0037054Y0063139D01*
X0038506Y0063139D01*
X0040001Y0063623D02*
X0040485Y0063139D01*
X0040001Y0063623D02*
X0040001Y0065558D01*
X0039517Y0065074D02*
X0040485Y0065074D01*
X0041965Y0065074D02*
X0042933Y0065074D01*
X0043416Y0064590D01*
X0043416Y0063139D01*
X0041965Y0063139D01*
X0041481Y0063623D01*
X0041965Y0064106D01*
X0043416Y0064106D01*
X0044428Y0063139D02*
X0044428Y0065074D01*
X0045879Y0065074D01*
X0046363Y0064590D01*
X0046363Y0063139D01*
X0047374Y0063139D02*
X0048342Y0063139D01*
X0047858Y0063139D02*
X0047858Y0065074D01*
X0047374Y0065074D01*
X0047858Y0066041D02*
X0047858Y0066525D01*
X0049339Y0064590D02*
X0049823Y0065074D01*
X0051274Y0065074D01*
X0050790Y0064106D02*
X0049823Y0064106D01*
X0049339Y0064590D01*
X0049339Y0063139D02*
X0050790Y0063139D01*
X0051274Y0063623D01*
X0050790Y0064106D01*
X0050314Y0060758D02*
X0050314Y0058823D01*
X0050797Y0058339D01*
X0051794Y0058823D02*
X0052278Y0059306D01*
X0053729Y0059306D01*
X0053729Y0059790D02*
X0053729Y0058339D01*
X0052278Y0058339D01*
X0051794Y0058823D01*
X0052278Y0060274D02*
X0053245Y0060274D01*
X0053729Y0059790D01*
X0054741Y0060274D02*
X0054741Y0058339D01*
X0056676Y0058339D02*
X0056676Y0059790D01*
X0056192Y0060274D01*
X0054741Y0060274D01*
X0057687Y0060274D02*
X0058171Y0060274D01*
X0058171Y0058339D01*
X0057687Y0058339D02*
X0058655Y0058339D01*
X0059652Y0058339D02*
X0061103Y0058339D01*
X0061587Y0058823D01*
X0061103Y0059306D01*
X0060135Y0059306D01*
X0059652Y0059790D01*
X0060135Y0060274D01*
X0061587Y0060274D01*
X0062598Y0058823D02*
X0063082Y0058823D01*
X0063082Y0058339D01*
X0062598Y0058339D01*
X0062598Y0058823D01*
X0064071Y0058823D02*
X0064071Y0059790D01*
X0064555Y0060274D01*
X0065523Y0060274D01*
X0066006Y0059790D01*
X0066006Y0058823D01*
X0065523Y0058339D01*
X0064555Y0058339D01*
X0064071Y0058823D01*
X0067018Y0059306D02*
X0067985Y0060274D01*
X0068469Y0060274D01*
X0069473Y0059790D02*
X0069473Y0058823D01*
X0069957Y0058339D01*
X0071408Y0058339D01*
X0071408Y0057855D02*
X0071408Y0060274D01*
X0069957Y0060274D01*
X0069473Y0059790D01*
X0067018Y0060274D02*
X0067018Y0058339D01*
X0070441Y0057371D02*
X0070925Y0057371D01*
X0071408Y0057855D01*
X0070932Y0063139D02*
X0070448Y0063623D01*
X0070448Y0065558D01*
X0069964Y0065074D02*
X0070932Y0065074D01*
X0071929Y0064590D02*
X0072412Y0065074D01*
X0073380Y0065074D01*
X0073864Y0064590D01*
X0073864Y0063139D01*
X0074875Y0063623D02*
X0074875Y0064590D01*
X0075359Y0065074D01*
X0076327Y0065074D01*
X0076810Y0064590D01*
X0076810Y0064106D01*
X0074875Y0064106D01*
X0074875Y0063623D02*
X0075359Y0063139D01*
X0076327Y0063139D01*
X0077822Y0063139D02*
X0077822Y0065074D01*
X0078789Y0065074D02*
X0077822Y0064106D01*
X0078789Y0065074D02*
X0079273Y0065074D01*
X0083224Y0065074D02*
X0084675Y0065074D01*
X0085159Y0064590D01*
X0085159Y0063623D01*
X0084675Y0063139D01*
X0083224Y0063139D01*
X0083224Y0066041D01*
X0086170Y0064590D02*
X0086170Y0063623D01*
X0086654Y0063139D01*
X0087621Y0063139D01*
X0088105Y0063623D01*
X0088105Y0064590D01*
X0087621Y0065074D01*
X0086654Y0065074D01*
X0086170Y0064590D01*
X0089117Y0063623D02*
X0089601Y0064106D01*
X0091052Y0064106D01*
X0091052Y0064590D02*
X0091052Y0063139D01*
X0089601Y0063139D01*
X0089117Y0063623D01*
X0089601Y0065074D02*
X0090568Y0065074D01*
X0091052Y0064590D01*
X0092063Y0064106D02*
X0093031Y0065074D01*
X0093515Y0065074D01*
X0094519Y0064590D02*
X0095002Y0065074D01*
X0096454Y0065074D01*
X0096454Y0066041D02*
X0096454Y0063139D01*
X0095002Y0063139D01*
X0094519Y0063623D01*
X0094519Y0064590D01*
X0092063Y0065074D02*
X0092063Y0063139D01*
X0100412Y0065074D02*
X0101379Y0063139D01*
X0102347Y0065074D01*
X0103358Y0065558D02*
X0103842Y0066041D01*
X0104809Y0066041D01*
X0105293Y0065558D01*
X0105293Y0065074D01*
X0104809Y0064590D01*
X0105293Y0064106D01*
X0105293Y0063623D01*
X0104809Y0063139D01*
X0103842Y0063139D01*
X0103358Y0063623D01*
X0104326Y0064590D02*
X0104809Y0064590D01*
X0108279Y0074102D02*
X0107796Y0074586D01*
X0107796Y0075553D01*
X0108279Y0076037D01*
X0108763Y0077048D02*
X0107796Y0078016D01*
X0110698Y0078016D01*
X0110698Y0078983D02*
X0110698Y0077048D01*
X0110214Y0076037D02*
X0110698Y0075553D01*
X0110698Y0074586D01*
X0110214Y0074102D01*
X0108279Y0074102D01*
X0108279Y0079995D02*
X0107796Y0080479D01*
X0107796Y0081446D01*
X0108279Y0081930D01*
X0108763Y0081930D01*
X0109247Y0081446D01*
X0109731Y0081930D01*
X0110214Y0081930D01*
X0110698Y0081446D01*
X0110698Y0080479D01*
X0110214Y0079995D01*
X0109247Y0080962D02*
X0109247Y0081446D01*
X0130224Y0066041D02*
X0130224Y0063139D01*
X0132159Y0063139D01*
X0133171Y0063139D02*
X0134138Y0063139D01*
X0133654Y0063139D02*
X0133654Y0065074D01*
X0133171Y0065074D01*
X0133654Y0066041D02*
X0133654Y0066525D01*
X0135135Y0064590D02*
X0135135Y0063623D01*
X0135619Y0063139D01*
X0137070Y0063139D01*
X0137070Y0062655D02*
X0137070Y0065074D01*
X0135619Y0065074D01*
X0135135Y0064590D01*
X0136102Y0062171D02*
X0136586Y0062171D01*
X0137070Y0062655D01*
X0138081Y0063139D02*
X0138081Y0066041D01*
X0138565Y0065074D02*
X0139533Y0065074D01*
X0140016Y0064590D01*
X0140016Y0063139D01*
X0141512Y0063623D02*
X0141995Y0063139D01*
X0141512Y0063623D02*
X0141512Y0065558D01*
X0141995Y0065074D02*
X0141028Y0065074D01*
X0142992Y0065074D02*
X0142992Y0063139D01*
X0142992Y0065074D02*
X0144443Y0065074D01*
X0144927Y0064590D01*
X0144927Y0063139D01*
X0145939Y0063139D02*
X0146906Y0063139D01*
X0146423Y0063139D02*
X0146423Y0065074D01*
X0145939Y0065074D01*
X0146423Y0066041D02*
X0146423Y0066525D01*
X0147903Y0065074D02*
X0149354Y0065074D01*
X0149838Y0064590D01*
X0149838Y0063139D01*
X0150850Y0063623D02*
X0150850Y0064590D01*
X0151333Y0065074D01*
X0152785Y0065074D01*
X0152785Y0062655D01*
X0152301Y0062171D01*
X0151817Y0062171D01*
X0151333Y0063139D02*
X0152785Y0063139D01*
X0151333Y0063139D02*
X0150850Y0063623D01*
X0147903Y0063139D02*
X0147903Y0065074D01*
X0138565Y0065074D02*
X0138081Y0064590D01*
X0107724Y0043637D02*
X0107724Y0042669D01*
X0107240Y0042185D01*
X0106273Y0042185D02*
X0105789Y0043153D01*
X0105789Y0043637D01*
X0106273Y0044120D01*
X0107240Y0044120D01*
X0107724Y0043637D01*
X0106273Y0042185D02*
X0104822Y0042185D01*
X0104822Y0044120D01*
X0105305Y0041174D02*
X0104822Y0040690D01*
X0104822Y0039723D01*
X0105305Y0039239D01*
X0107240Y0039239D01*
X0107724Y0039723D01*
X0107724Y0040690D01*
X0107240Y0041174D01*
X0097485Y0045039D02*
X0097485Y0047941D01*
X0096034Y0046490D01*
X0097969Y0046490D01*
X0095022Y0045523D02*
X0095022Y0047941D01*
X0093087Y0047941D02*
X0093087Y0045523D01*
X0093571Y0045039D01*
X0094538Y0045039D01*
X0095022Y0045523D01*
X0087212Y0052023D02*
X0087212Y0052506D01*
X0086729Y0052990D01*
X0085277Y0052990D01*
X0085277Y0052023D01*
X0085761Y0051539D01*
X0086729Y0051539D01*
X0087212Y0052023D01*
X0086245Y0053958D02*
X0085277Y0052990D01*
X0086245Y0053958D02*
X0087212Y0054441D01*
X0084266Y0053958D02*
X0083782Y0054441D01*
X0082815Y0054441D01*
X0082331Y0053958D01*
X0082331Y0052023D01*
X0082815Y0051539D01*
X0083782Y0051539D01*
X0084266Y0052023D01*
X0077512Y0048639D02*
X0075577Y0048639D01*
X0076545Y0048639D02*
X0076545Y0051541D01*
X0075577Y0050574D01*
X0074566Y0051058D02*
X0074566Y0050090D01*
X0074082Y0049606D01*
X0072631Y0049606D01*
X0072631Y0048639D02*
X0072631Y0051541D01*
X0074082Y0051541D01*
X0074566Y0051058D01*
X0073598Y0049606D02*
X0074566Y0048639D01*
X0058171Y0061241D02*
X0058171Y0061725D01*
X0057167Y0063139D02*
X0055232Y0063139D01*
X0056199Y0063139D02*
X0056199Y0066041D01*
X0055232Y0065074D01*
X0061125Y0065074D02*
X0061125Y0063623D01*
X0061609Y0063139D01*
X0062092Y0063623D01*
X0062576Y0063139D01*
X0063060Y0063623D01*
X0063060Y0065074D01*
X0064071Y0064590D02*
X0064071Y0063623D01*
X0064555Y0063139D01*
X0065523Y0063139D01*
X0066006Y0064106D02*
X0064071Y0064106D01*
X0064071Y0064590D02*
X0064555Y0065074D01*
X0065523Y0065074D01*
X0066006Y0064590D01*
X0066006Y0064106D01*
X0067018Y0063623D02*
X0067502Y0064106D01*
X0068953Y0064106D01*
X0068953Y0064590D02*
X0068953Y0063139D01*
X0067502Y0063139D01*
X0067018Y0063623D01*
X0067502Y0065074D02*
X0068469Y0065074D01*
X0068953Y0064590D01*
X0071929Y0066041D02*
X0071929Y0063139D01*
X0074424Y0070939D02*
X0074424Y0073841D01*
X0075875Y0073841D01*
X0076359Y0073358D01*
X0076359Y0072390D01*
X0075875Y0071906D01*
X0074424Y0071906D01*
X0075391Y0071906D02*
X0076359Y0070939D01*
X0077371Y0071423D02*
X0077854Y0070939D01*
X0078822Y0070939D01*
X0079306Y0071423D01*
X0079306Y0071906D01*
X0078822Y0072390D01*
X0078338Y0072390D01*
X0078822Y0072390D02*
X0079306Y0072874D01*
X0079306Y0073358D01*
X0078822Y0073841D01*
X0077854Y0073841D01*
X0077371Y0073358D01*
X0070252Y0073358D02*
X0070252Y0072390D01*
X0069768Y0071906D01*
X0068317Y0071906D01*
X0068317Y0070939D02*
X0068317Y0073841D01*
X0069768Y0073841D01*
X0070252Y0073358D01*
X0067306Y0070939D02*
X0065371Y0070939D01*
X0065371Y0073841D01*
X0064359Y0073358D02*
X0064359Y0072874D01*
X0063875Y0072390D01*
X0062424Y0072390D01*
X0062424Y0070939D02*
X0063875Y0070939D01*
X0064359Y0071423D01*
X0064359Y0071906D01*
X0063875Y0072390D01*
X0064359Y0073358D02*
X0063875Y0073841D01*
X0062424Y0073841D01*
X0062424Y0070939D01*
X0055306Y0071423D02*
X0054822Y0070939D01*
X0053854Y0070939D01*
X0053371Y0071423D01*
X0053371Y0071906D01*
X0053854Y0072390D01*
X0054822Y0072390D01*
X0055306Y0071906D01*
X0055306Y0071423D01*
X0054822Y0072390D02*
X0055306Y0072874D01*
X0055306Y0073358D01*
X0054822Y0073841D01*
X0053854Y0073841D01*
X0053371Y0073358D01*
X0053371Y0072874D01*
X0053854Y0072390D01*
X0052359Y0071423D02*
X0051875Y0070939D01*
X0050908Y0070939D01*
X0050424Y0071423D01*
X0050424Y0073358D01*
X0050908Y0073841D01*
X0051875Y0073841D01*
X0052359Y0073358D01*
X0038506Y0065074D02*
X0037054Y0065074D01*
X0036571Y0064590D01*
X0036571Y0060274D02*
X0036571Y0058823D01*
X0037054Y0058339D01*
X0037538Y0058823D01*
X0038022Y0058339D01*
X0038506Y0058823D01*
X0038506Y0060274D01*
X0039517Y0060274D02*
X0039517Y0058823D01*
X0040001Y0058339D01*
X0040485Y0058823D01*
X0040968Y0058339D01*
X0041452Y0058823D01*
X0041452Y0060274D01*
X0042464Y0058823D02*
X0042947Y0058823D01*
X0042947Y0058339D01*
X0042464Y0058339D01*
X0042464Y0058823D01*
X0043937Y0058823D02*
X0043937Y0059790D01*
X0044421Y0060274D01*
X0045388Y0060274D01*
X0045872Y0059790D01*
X0045872Y0058823D01*
X0045388Y0058339D01*
X0044421Y0058339D01*
X0043937Y0058823D01*
X0046883Y0058823D02*
X0047367Y0058339D01*
X0048818Y0058339D01*
X0048818Y0060274D02*
X0047367Y0060274D01*
X0046883Y0059790D01*
X0046883Y0058823D01*
X0049830Y0060274D02*
X0050797Y0060274D01*
X0052121Y0051425D02*
X0052121Y0050941D01*
X0052121Y0049974D02*
X0051637Y0049974D01*
X0035559Y0058823D02*
X0035559Y0060274D01*
X0035559Y0058823D02*
X0035075Y0058339D01*
X0034591Y0058823D01*
X0034108Y0058339D01*
X0033624Y0058823D01*
X0033624Y0060274D01*
X0008724Y0056275D02*
X0005822Y0056275D01*
X0006305Y0055264D02*
X0005822Y0054780D01*
X0005822Y0053812D01*
X0006305Y0053329D01*
X0007273Y0046424D02*
X0007273Y0044489D01*
X0006789Y0044489D02*
X0008724Y0044489D01*
X0008240Y0062168D02*
X0005822Y0062168D01*
X0005822Y0071008D02*
X0008724Y0071008D01*
X0045022Y0100930D02*
X0045505Y0100446D01*
X0047440Y0100446D01*
X0047924Y0100930D01*
X0047924Y0101897D01*
X0047440Y0102381D01*
X0045505Y0102381D01*
X0045022Y0101897D01*
X0045022Y0100930D01*
X0046957Y0101413D02*
X0047924Y0102381D01*
X0047924Y0103392D02*
X0047924Y0105327D01*
X0047924Y0104360D02*
X0045022Y0104360D01*
X0045989Y0103392D01*
X0046022Y0111039D02*
X0046989Y0111039D01*
X0046505Y0111039D02*
X0046505Y0112974D01*
X0046022Y0112974D01*
X0045025Y0112974D02*
X0044057Y0112974D01*
X0044541Y0113458D02*
X0044541Y0111523D01*
X0045025Y0111039D01*
X0043046Y0111039D02*
X0043046Y0112490D01*
X0042562Y0112974D01*
X0041594Y0112974D01*
X0041594Y0112006D02*
X0043046Y0112006D01*
X0043046Y0111039D02*
X0041594Y0111039D01*
X0041111Y0111523D01*
X0041594Y0112006D01*
X0040114Y0111039D02*
X0039630Y0111523D01*
X0039630Y0113458D01*
X0039146Y0112974D02*
X0040114Y0112974D01*
X0038135Y0112490D02*
X0038135Y0111039D01*
X0038135Y0112490D02*
X0037651Y0112974D01*
X0036200Y0112974D01*
X0036200Y0111039D01*
X0035188Y0112006D02*
X0033253Y0112006D01*
X0033253Y0111523D02*
X0033253Y0112490D01*
X0033737Y0112974D01*
X0034705Y0112974D01*
X0035188Y0112490D01*
X0035188Y0112006D01*
X0034705Y0111039D02*
X0033737Y0111039D01*
X0033253Y0111523D01*
X0032256Y0111039D02*
X0031289Y0111039D01*
X0031773Y0111039D02*
X0031773Y0112974D01*
X0031289Y0112974D01*
X0030285Y0112974D02*
X0029801Y0112974D01*
X0028834Y0112006D01*
X0028834Y0111039D02*
X0028834Y0112974D01*
X0027822Y0113458D02*
X0027338Y0113941D01*
X0026371Y0113941D01*
X0025887Y0113458D01*
X0025887Y0111523D01*
X0026371Y0111039D01*
X0027338Y0111039D01*
X0027822Y0111523D01*
X0027822Y0113458D01*
X0031773Y0113941D02*
X0031773Y0114425D01*
X0046505Y0114425D02*
X0046505Y0113941D01*
X0047986Y0112490D02*
X0047986Y0111523D01*
X0048470Y0111039D01*
X0049437Y0111039D01*
X0049921Y0111523D01*
X0049921Y0112490D01*
X0049437Y0112974D01*
X0048470Y0112974D01*
X0047986Y0112490D01*
X0050932Y0112974D02*
X0050932Y0111039D01*
X0052867Y0111039D02*
X0052867Y0112490D01*
X0052384Y0112974D01*
X0050932Y0112974D01*
X0063624Y0113441D02*
X0063624Y0111023D01*
X0064108Y0110539D01*
X0065075Y0110539D01*
X0065559Y0111023D01*
X0065559Y0113441D01*
X0066571Y0111990D02*
X0068022Y0111990D01*
X0068506Y0111506D01*
X0068506Y0111023D01*
X0068022Y0110539D01*
X0067054Y0110539D01*
X0066571Y0111023D01*
X0066571Y0111990D01*
X0067538Y0112958D01*
X0068506Y0113441D01*
X0081622Y0105444D02*
X0081622Y0104476D01*
X0082105Y0103992D01*
X0082105Y0102981D02*
X0081622Y0102497D01*
X0081622Y0101046D01*
X0084524Y0101046D01*
X0083557Y0101046D02*
X0083557Y0102497D01*
X0083073Y0102981D01*
X0082105Y0102981D01*
X0083557Y0102013D02*
X0084524Y0102981D01*
X0084524Y0103992D02*
X0082589Y0105927D01*
X0082105Y0105927D01*
X0081622Y0105444D01*
X0084524Y0105927D02*
X0084524Y0103992D01*
X0073640Y0091885D02*
X0071705Y0093820D01*
X0071222Y0093820D01*
X0071222Y0091885D01*
X0071705Y0090874D02*
X0071222Y0090390D01*
X0071222Y0089423D01*
X0071705Y0088939D01*
X0073640Y0088939D01*
X0074124Y0089423D01*
X0074124Y0090390D01*
X0073640Y0090874D01*
X0073640Y0091885D02*
X0074124Y0091885D01*
X0099624Y0104012D02*
X0100108Y0103528D01*
X0101075Y0103528D01*
X0101559Y0104012D01*
X0101559Y0106430D01*
X0102571Y0106430D02*
X0104506Y0106430D01*
X0104506Y0105947D01*
X0102571Y0104012D01*
X0102571Y0103528D01*
X0099624Y0104012D02*
X0099624Y0106430D01*
X0114122Y0105840D02*
X0114122Y0104872D01*
X0114605Y0104388D01*
X0116540Y0104388D01*
X0117024Y0104872D01*
X0117024Y0105840D01*
X0116540Y0106323D01*
X0117024Y0107335D02*
X0117024Y0109270D01*
X0117024Y0108302D02*
X0114122Y0108302D01*
X0115089Y0107335D01*
X0114605Y0106323D02*
X0114122Y0105840D01*
X0114605Y0110281D02*
X0114122Y0110765D01*
X0114122Y0111733D01*
X0114605Y0112216D01*
X0115089Y0112216D01*
X0117024Y0110281D01*
X0117024Y0112216D01*
X0126122Y0105733D02*
X0127573Y0104281D01*
X0127573Y0106216D01*
X0129024Y0105733D02*
X0126122Y0105733D01*
X0129024Y0103270D02*
X0129024Y0101335D01*
X0129024Y0102302D02*
X0126122Y0102302D01*
X0127089Y0101335D01*
X0126605Y0100323D02*
X0126122Y0099840D01*
X0126122Y0098872D01*
X0126605Y0098388D01*
X0128540Y0098388D01*
X0129024Y0098872D01*
X0129024Y0099840D01*
X0128540Y0100323D01*
X0134522Y0099840D02*
X0134522Y0098872D01*
X0135005Y0098388D01*
X0136940Y0098388D01*
X0137424Y0098872D01*
X0137424Y0099840D01*
X0136940Y0100323D01*
X0137424Y0101335D02*
X0137424Y0103270D01*
X0137424Y0102302D02*
X0134522Y0102302D01*
X0135489Y0101335D01*
X0135005Y0100323D02*
X0134522Y0099840D01*
X0134522Y0104281D02*
X0135973Y0104281D01*
X0135489Y0105249D01*
X0135489Y0105733D01*
X0135973Y0106216D01*
X0136940Y0106216D01*
X0137424Y0105733D01*
X0137424Y0104765D01*
X0136940Y0104281D01*
X0134522Y0104281D02*
X0134522Y0106216D01*
X0133807Y0111383D02*
X0135742Y0111383D01*
X0136753Y0111383D02*
X0138688Y0113318D01*
X0138688Y0113802D01*
X0138204Y0114286D01*
X0137237Y0114286D01*
X0136753Y0113802D01*
X0136753Y0111383D02*
X0138688Y0111383D01*
X0133807Y0111383D02*
X0133807Y0114286D01*
X0119373Y0103509D02*
X0119373Y0101574D01*
X0117922Y0103026D01*
X0120824Y0103026D01*
X0120824Y0100563D02*
X0119857Y0099595D01*
X0119857Y0100079D02*
X0119857Y0098628D01*
X0120824Y0098628D02*
X0117922Y0098628D01*
X0117922Y0100079D01*
X0118405Y0100563D01*
X0119373Y0100563D01*
X0119857Y0100079D01*
X0090885Y0031141D02*
X0091369Y0030658D01*
X0091369Y0030174D01*
X0090885Y0029690D01*
X0091369Y0029206D01*
X0091369Y0028723D01*
X0090885Y0028239D01*
X0089917Y0028239D01*
X0089434Y0028723D01*
X0088422Y0028723D02*
X0088422Y0031141D01*
X0089434Y0030658D02*
X0089917Y0031141D01*
X0090885Y0031141D01*
X0090885Y0029690D02*
X0090401Y0029690D01*
X0088422Y0028723D02*
X0087938Y0028239D01*
X0086971Y0028239D01*
X0086487Y0028723D01*
X0086487Y0031141D01*
X0093622Y0023244D02*
X0095073Y0021792D01*
X0095073Y0023727D01*
X0096524Y0023244D02*
X0093622Y0023244D01*
X0094105Y0020781D02*
X0093622Y0020297D01*
X0093622Y0019330D01*
X0094105Y0018846D01*
X0096040Y0018846D01*
X0096524Y0019330D01*
X0096524Y0020297D01*
X0096040Y0020781D01*
D12*
X0130842Y0030928D03*
X0130942Y0030828D03*
X0131042Y0030728D03*
X0131142Y0030628D03*
X0138742Y0025428D03*
X0141142Y0024928D03*
X0151042Y0030428D03*
X0151142Y0030528D03*
X0151242Y0030628D03*
X0151342Y0030728D03*
X0151142Y0040828D03*
X0151042Y0041228D03*
X0151042Y0041328D03*
X0151042Y0041728D03*
X0151342Y0048628D03*
X0151242Y0048728D03*
X0151142Y0048828D03*
X0151042Y0048928D03*
X0131242Y0048828D03*
X0131142Y0048728D03*
X0131042Y0048628D03*
X0130942Y0048528D03*
X0130842Y0048428D03*
D13*
X0134642Y0047328D03*
X0134742Y0047428D03*
X0134142Y0051128D03*
X0141142Y0054328D03*
X0145142Y0049528D03*
X0145342Y0049428D03*
X0146642Y0048428D03*
X0146742Y0048328D03*
X0146842Y0048228D03*
X0135842Y0043328D03*
X0135442Y0043628D03*
X0132242Y0036628D03*
X0132242Y0036528D03*
X0132342Y0036328D03*
X0132342Y0036228D03*
X0132342Y0036128D03*
X0132742Y0035228D03*
X0132742Y0035128D03*
X0141142Y0025028D03*
D14*
X0141192Y0025128D03*
X0141092Y0027228D03*
X0136392Y0030828D03*
X0133992Y0045528D03*
X0141192Y0054228D03*
D15*
X0141142Y0054128D03*
X0141142Y0025228D03*
D16*
X0141142Y0025328D03*
X0136242Y0031828D03*
X0141142Y0054028D03*
D17*
X0140592Y0053328D03*
X0141892Y0053228D03*
X0141892Y0053128D03*
X0142392Y0053128D03*
X0142392Y0053028D03*
X0142392Y0052928D03*
X0131692Y0043728D03*
X0133192Y0041328D03*
X0133892Y0040628D03*
X0133892Y0040528D03*
X0133992Y0037628D03*
X0133992Y0037428D03*
X0137592Y0034128D03*
X0139492Y0034228D03*
X0139992Y0031428D03*
X0142092Y0031428D03*
X0143492Y0031228D03*
X0145092Y0031128D03*
X0145592Y0031328D03*
X0146092Y0031228D03*
X0147392Y0028428D03*
X0147492Y0028328D03*
X0147892Y0028428D03*
X0146192Y0027328D03*
X0143192Y0026528D03*
X0143192Y0026428D03*
X0140792Y0025428D03*
X0138892Y0026228D03*
X0138492Y0026528D03*
X0138492Y0026628D03*
X0138592Y0026728D03*
X0138592Y0026828D03*
X0138592Y0026928D03*
X0137892Y0027028D03*
X0137292Y0026528D03*
X0136092Y0026528D03*
X0136092Y0026628D03*
X0135692Y0027228D03*
X0135692Y0027528D03*
X0134292Y0028228D03*
X0134192Y0028628D03*
X0133892Y0028128D03*
X0133292Y0029228D03*
X0132992Y0029528D03*
X0132892Y0029428D03*
X0132392Y0029928D03*
X0139692Y0026928D03*
X0139692Y0026828D03*
X0150092Y0028728D03*
X0150192Y0029528D03*
X0150092Y0029828D03*
X0150692Y0029528D03*
X0149392Y0034628D03*
X0140692Y0038728D03*
D18*
X0142092Y0032528D03*
X0145392Y0027128D03*
X0147192Y0027228D03*
X0147692Y0028128D03*
X0147292Y0028728D03*
X0147492Y0028828D03*
X0147692Y0028928D03*
X0147792Y0029028D03*
X0147992Y0029128D03*
X0149192Y0029928D03*
X0150592Y0028628D03*
X0150892Y0028828D03*
X0151592Y0029628D03*
X0149992Y0028128D03*
X0149892Y0028028D03*
X0142292Y0026328D03*
X0142292Y0026228D03*
X0141492Y0025428D03*
X0139192Y0025928D03*
X0139292Y0026528D03*
X0138092Y0026328D03*
X0138092Y0026228D03*
X0138092Y0026128D03*
X0137992Y0026028D03*
X0137992Y0025928D03*
X0134692Y0027428D03*
X0134692Y0028928D03*
X0134192Y0029228D03*
X0132292Y0028128D03*
X0132192Y0028228D03*
X0132092Y0028328D03*
X0131892Y0028428D03*
X0130992Y0029328D03*
X0138792Y0053328D03*
X0141192Y0053828D03*
X0143792Y0052528D03*
X0144992Y0052628D03*
D19*
X0151642Y0048228D03*
X0151742Y0048128D03*
X0151842Y0048028D03*
X0151942Y0047928D03*
X0152042Y0047728D03*
X0150642Y0043628D03*
X0150642Y0043528D03*
X0150742Y0043328D03*
X0150842Y0043028D03*
X0150842Y0042928D03*
X0150942Y0042628D03*
X0151042Y0042228D03*
X0151042Y0042128D03*
X0151042Y0042028D03*
X0151242Y0040728D03*
X0152042Y0031628D03*
X0151942Y0031428D03*
X0151842Y0031328D03*
X0151742Y0031228D03*
X0151642Y0031128D03*
X0144242Y0027428D03*
X0143742Y0025428D03*
X0130542Y0031328D03*
X0130442Y0031428D03*
X0130342Y0031528D03*
X0131142Y0041228D03*
X0131342Y0042228D03*
X0135842Y0042928D03*
X0130542Y0048028D03*
X0130442Y0047928D03*
X0130342Y0047828D03*
X0134542Y0052028D03*
D20*
X0129942Y0047228D03*
X0129842Y0047128D03*
X0129742Y0047028D03*
X0129742Y0046928D03*
X0129642Y0046828D03*
X0129542Y0046628D03*
X0131142Y0041928D03*
X0129542Y0032728D03*
X0129642Y0032528D03*
X0129742Y0032428D03*
X0129742Y0032328D03*
X0129842Y0032228D03*
X0129942Y0032128D03*
X0130042Y0031928D03*
X0138142Y0025528D03*
X0144442Y0025628D03*
X0152342Y0032028D03*
X0152442Y0032128D03*
X0152542Y0032328D03*
X0152642Y0032428D03*
X0152742Y0032628D03*
X0151342Y0040628D03*
X0150542Y0044028D03*
X0150542Y0044128D03*
X0150042Y0045128D03*
X0152742Y0046728D03*
X0152642Y0046928D03*
X0152542Y0047028D03*
X0152442Y0047228D03*
X0152342Y0047328D03*
X0144042Y0051928D03*
X0145042Y0053528D03*
D21*
X0143742Y0053428D03*
X0143642Y0053328D03*
X0143042Y0053628D03*
X0142942Y0053428D03*
X0142942Y0053328D03*
X0142942Y0053228D03*
X0142942Y0053128D03*
X0142942Y0053028D03*
X0142042Y0052528D03*
X0141342Y0052928D03*
X0141342Y0053028D03*
X0140142Y0053628D03*
X0139842Y0052828D03*
X0139842Y0052728D03*
X0139842Y0052628D03*
X0137642Y0052228D03*
X0137342Y0053028D03*
X0144542Y0043928D03*
X0144442Y0043828D03*
X0144442Y0043728D03*
X0144342Y0043628D03*
X0143542Y0043028D03*
X0143442Y0042928D03*
X0143242Y0042828D03*
X0138742Y0042828D03*
X0138542Y0042928D03*
X0138442Y0043028D03*
X0135342Y0042228D03*
X0132442Y0042528D03*
X0140842Y0036828D03*
X0142042Y0032228D03*
X0142042Y0032128D03*
X0142242Y0031828D03*
X0142342Y0031628D03*
X0142442Y0031528D03*
X0142642Y0031228D03*
X0142742Y0031128D03*
X0143642Y0026828D03*
X0143742Y0026628D03*
X0143742Y0026528D03*
X0143842Y0026328D03*
X0144542Y0026228D03*
X0146542Y0027628D03*
X0147842Y0028328D03*
X0148542Y0028728D03*
X0149042Y0029028D03*
X0149042Y0029128D03*
X0149342Y0028628D03*
X0149842Y0028928D03*
X0149742Y0029328D03*
X0149642Y0029428D03*
X0140942Y0026628D03*
X0140942Y0026528D03*
X0140942Y0026428D03*
X0140842Y0026228D03*
X0140742Y0026028D03*
X0140742Y0025928D03*
X0140142Y0025728D03*
X0140142Y0025628D03*
X0140142Y0025528D03*
X0140242Y0026428D03*
X0140242Y0026528D03*
X0137942Y0026728D03*
X0137242Y0026828D03*
X0136242Y0027028D03*
X0136242Y0027528D03*
X0134242Y0028328D03*
X0134242Y0028428D03*
X0133642Y0028728D03*
X0133342Y0028228D03*
X0132942Y0028628D03*
X0132442Y0029628D03*
X0133842Y0027828D03*
X0133842Y0027728D03*
X0150942Y0037328D03*
D22*
X0145692Y0031128D03*
X0149292Y0030128D03*
X0149392Y0030228D03*
X0148892Y0028028D03*
X0151592Y0029528D03*
X0146492Y0026628D03*
X0145492Y0026628D03*
X0145492Y0026728D03*
X0145492Y0026828D03*
X0145492Y0026528D03*
X0145492Y0026428D03*
X0145492Y0026328D03*
X0145492Y0026228D03*
X0143292Y0025728D03*
X0141492Y0025528D03*
X0140892Y0026828D03*
X0137192Y0027028D03*
X0136392Y0026728D03*
X0135392Y0026928D03*
X0133292Y0028328D03*
X0133592Y0028928D03*
X0132992Y0030128D03*
X0132892Y0030228D03*
X0132792Y0030328D03*
X0139892Y0030528D03*
X0139992Y0030628D03*
X0142092Y0030628D03*
X0142092Y0033728D03*
X0140992Y0036728D03*
X0139692Y0042428D03*
X0142292Y0042428D03*
X0144092Y0043328D03*
X0144992Y0046128D03*
X0143692Y0052628D03*
X0141192Y0053628D03*
X0140692Y0052528D03*
X0139892Y0053128D03*
X0139892Y0053228D03*
X0139892Y0053328D03*
X0137292Y0053128D03*
X0136692Y0052628D03*
X0136692Y0052528D03*
X0136792Y0052228D03*
X0136792Y0052128D03*
D23*
X0136792Y0052028D03*
X0136692Y0052728D03*
X0137692Y0052128D03*
X0139092Y0052328D03*
X0139092Y0052428D03*
X0140192Y0053728D03*
X0141292Y0053228D03*
X0141292Y0053128D03*
X0141992Y0052428D03*
X0142292Y0053728D03*
X0143592Y0052828D03*
X0144092Y0052328D03*
X0144292Y0053128D03*
X0144892Y0044928D03*
X0144292Y0043528D03*
X0144192Y0043428D03*
X0143092Y0042728D03*
X0142892Y0042628D03*
X0140992Y0042128D03*
X0139092Y0042628D03*
X0138892Y0042728D03*
X0132492Y0042428D03*
X0140692Y0037128D03*
X0140792Y0037028D03*
X0140792Y0036928D03*
X0140992Y0036528D03*
X0140992Y0036428D03*
X0142192Y0033828D03*
X0143392Y0031128D03*
X0142192Y0030128D03*
X0140992Y0030128D03*
X0139892Y0030128D03*
X0139192Y0026728D03*
X0139392Y0025828D03*
X0140792Y0026128D03*
X0142392Y0025628D03*
X0142392Y0025528D03*
X0143292Y0025928D03*
X0143692Y0026728D03*
X0143592Y0026928D03*
X0144392Y0026928D03*
X0144592Y0026328D03*
X0146392Y0027828D03*
X0146492Y0027728D03*
X0146692Y0027528D03*
X0148192Y0027628D03*
X0148292Y0027528D03*
X0149492Y0028528D03*
X0149792Y0029028D03*
X0149592Y0029528D03*
X0137992Y0026828D03*
X0137192Y0026928D03*
X0136892Y0027228D03*
X0136292Y0026928D03*
X0136592Y0026528D03*
X0136292Y0027628D03*
X0132392Y0029728D03*
D24*
X0128892Y0033928D03*
X0128792Y0034128D03*
X0128692Y0034328D03*
X0128692Y0034428D03*
X0128592Y0034528D03*
X0128592Y0034628D03*
X0128492Y0034828D03*
X0128492Y0034928D03*
X0128392Y0035128D03*
X0128292Y0035428D03*
X0128192Y0035728D03*
X0128192Y0043628D03*
X0128292Y0043928D03*
X0128392Y0044228D03*
X0128492Y0044428D03*
X0128492Y0044528D03*
X0128592Y0044728D03*
X0128592Y0044828D03*
X0128692Y0044928D03*
X0128692Y0045028D03*
X0128792Y0045228D03*
X0128892Y0045428D03*
X0137692Y0053728D03*
X0140992Y0052328D03*
X0144892Y0053628D03*
X0146092Y0053128D03*
X0147392Y0052428D03*
X0142492Y0045828D03*
X0150392Y0044728D03*
X0153492Y0045328D03*
X0153592Y0045128D03*
X0153692Y0044928D03*
X0153692Y0044828D03*
X0153792Y0044728D03*
X0153792Y0044628D03*
X0153792Y0044528D03*
X0153892Y0044428D03*
X0153892Y0044328D03*
X0153992Y0044128D03*
X0153992Y0044028D03*
X0154092Y0043828D03*
X0154092Y0035528D03*
X0153992Y0035228D03*
X0153892Y0035028D03*
X0153892Y0034928D03*
X0153792Y0034728D03*
X0153792Y0034628D03*
X0153692Y0034528D03*
X0153692Y0034428D03*
X0153592Y0034228D03*
X0153492Y0034028D03*
X0148292Y0031528D03*
X0148192Y0031428D03*
X0151292Y0030228D03*
X0144292Y0025528D03*
X0141592Y0026928D03*
D25*
X0137492Y0025628D03*
X0130992Y0030128D03*
X0130892Y0042428D03*
X0130992Y0042828D03*
X0134892Y0052528D03*
X0136692Y0053428D03*
X0145892Y0053328D03*
X0147292Y0052628D03*
X0151692Y0038528D03*
X0151692Y0038428D03*
X0151692Y0038328D03*
X0151092Y0035928D03*
X0151092Y0035828D03*
X0151092Y0035728D03*
X0150392Y0034228D03*
X0150392Y0034128D03*
X0150092Y0033728D03*
X0149292Y0032428D03*
X0149192Y0032328D03*
D26*
X0150242Y0029628D03*
X0149142Y0029228D03*
X0149042Y0028928D03*
X0148542Y0028828D03*
X0147042Y0026928D03*
X0147142Y0026828D03*
X0146242Y0027128D03*
X0146242Y0027228D03*
X0144442Y0027028D03*
X0143942Y0026028D03*
X0144042Y0025928D03*
X0144042Y0025828D03*
X0143242Y0026328D03*
X0141442Y0026328D03*
X0141442Y0026228D03*
X0141442Y0026128D03*
X0140742Y0025828D03*
X0140742Y0025728D03*
X0140742Y0025628D03*
X0140042Y0026028D03*
X0139542Y0026228D03*
X0139542Y0026328D03*
X0139642Y0026728D03*
X0139542Y0025728D03*
X0139542Y0025628D03*
X0138442Y0026428D03*
X0138042Y0026628D03*
X0138542Y0027028D03*
X0137442Y0027228D03*
X0137442Y0027328D03*
X0137242Y0026428D03*
X0137242Y0026328D03*
X0136042Y0026428D03*
X0135642Y0027428D03*
X0134242Y0028528D03*
X0132942Y0028728D03*
X0132742Y0029228D03*
X0132842Y0029328D03*
X0133042Y0029628D03*
X0132442Y0029528D03*
X0131942Y0029428D03*
X0139042Y0034228D03*
X0141042Y0034228D03*
X0141042Y0034328D03*
X0141042Y0034428D03*
X0141042Y0034528D03*
X0141042Y0034628D03*
X0141042Y0034728D03*
X0141042Y0034828D03*
X0141042Y0034928D03*
X0141042Y0035028D03*
X0141042Y0035128D03*
X0141042Y0035228D03*
X0141042Y0035328D03*
X0141042Y0035428D03*
X0141042Y0035528D03*
X0141042Y0035628D03*
X0141042Y0035728D03*
X0140942Y0035828D03*
X0140942Y0035928D03*
X0140942Y0036028D03*
X0140942Y0036128D03*
X0141242Y0036828D03*
X0141342Y0036928D03*
X0141342Y0037028D03*
X0141442Y0037128D03*
X0141442Y0037228D03*
X0141542Y0037428D03*
X0141642Y0037628D03*
X0141742Y0037828D03*
X0141842Y0038028D03*
X0141842Y0038128D03*
X0141942Y0038228D03*
X0141942Y0038328D03*
X0142042Y0038428D03*
X0142042Y0038528D03*
X0142142Y0038628D03*
X0142142Y0038728D03*
X0142242Y0038928D03*
X0142342Y0039128D03*
X0142442Y0039328D03*
X0142542Y0039528D03*
X0142542Y0039628D03*
X0142642Y0039728D03*
X0142642Y0039828D03*
X0142742Y0039928D03*
X0142742Y0040028D03*
X0142842Y0040128D03*
X0142842Y0040228D03*
X0142942Y0040428D03*
X0143042Y0040628D03*
X0143142Y0040828D03*
X0143242Y0041028D03*
X0143242Y0041128D03*
X0143342Y0041228D03*
X0143342Y0041328D03*
X0143442Y0041428D03*
X0143442Y0041528D03*
X0143542Y0041628D03*
X0143542Y0041728D03*
X0143642Y0041928D03*
X0143742Y0042128D03*
X0143842Y0042328D03*
X0143942Y0042528D03*
X0143942Y0042628D03*
X0144042Y0042728D03*
X0144042Y0042828D03*
X0144142Y0042928D03*
X0144142Y0043028D03*
X0144242Y0043128D03*
X0144242Y0043228D03*
X0144642Y0044128D03*
X0144742Y0044328D03*
X0144842Y0044528D03*
X0144942Y0044628D03*
X0145042Y0045028D03*
X0145042Y0045128D03*
X0145142Y0045228D03*
X0145142Y0045328D03*
X0145142Y0045428D03*
X0145142Y0045528D03*
X0145142Y0045628D03*
X0145242Y0045728D03*
X0145242Y0045828D03*
X0145242Y0045928D03*
X0145242Y0046228D03*
X0145242Y0046328D03*
X0145242Y0046428D03*
X0145242Y0046528D03*
X0145642Y0046328D03*
X0146242Y0045628D03*
X0148242Y0045128D03*
X0140542Y0040428D03*
X0140542Y0040328D03*
X0140542Y0040228D03*
X0140542Y0040128D03*
X0140542Y0040028D03*
X0140542Y0039928D03*
X0140542Y0039828D03*
X0140542Y0039728D03*
X0140542Y0039628D03*
X0140642Y0039528D03*
X0140642Y0039428D03*
X0140642Y0039328D03*
X0140642Y0039228D03*
X0140642Y0039128D03*
X0140642Y0039028D03*
X0140642Y0038928D03*
X0140642Y0038828D03*
X0140742Y0038628D03*
X0140742Y0038528D03*
X0140742Y0038428D03*
X0140742Y0038328D03*
X0140742Y0038228D03*
X0140742Y0038128D03*
X0140742Y0038028D03*
X0140742Y0037928D03*
X0140842Y0037828D03*
X0140842Y0037728D03*
X0140842Y0037628D03*
X0140842Y0037528D03*
X0140842Y0037428D03*
X0140842Y0037328D03*
X0140842Y0037228D03*
X0140542Y0037228D03*
X0140442Y0037328D03*
X0140442Y0037428D03*
X0140342Y0037628D03*
X0140242Y0037828D03*
X0140142Y0038028D03*
X0140142Y0038128D03*
X0140042Y0038228D03*
X0140042Y0038328D03*
X0139942Y0038428D03*
X0139942Y0038528D03*
X0139842Y0038628D03*
X0139842Y0038728D03*
X0139742Y0038928D03*
X0139642Y0039128D03*
X0139542Y0039328D03*
X0139542Y0039428D03*
X0139442Y0039528D03*
X0139442Y0039628D03*
X0139342Y0039728D03*
X0139342Y0039828D03*
X0139242Y0039928D03*
X0139242Y0040028D03*
X0139142Y0040128D03*
X0139142Y0040228D03*
X0139042Y0040428D03*
X0138942Y0040628D03*
X0138842Y0040828D03*
X0138842Y0040928D03*
X0138742Y0041028D03*
X0138742Y0041128D03*
X0138642Y0041228D03*
X0138642Y0041328D03*
X0138542Y0041528D03*
X0138442Y0041728D03*
X0138342Y0041928D03*
X0138242Y0042128D03*
X0138242Y0042228D03*
X0138142Y0042328D03*
X0138142Y0042428D03*
X0138042Y0042528D03*
X0138042Y0042628D03*
X0137942Y0042728D03*
X0137942Y0042828D03*
X0137842Y0043028D03*
X0140142Y0043128D03*
X0140142Y0043228D03*
X0140142Y0043328D03*
X0140142Y0043428D03*
X0140142Y0043528D03*
X0140142Y0043628D03*
X0140142Y0043728D03*
X0140142Y0043828D03*
X0140042Y0043928D03*
X0140042Y0044028D03*
X0140042Y0044128D03*
X0140042Y0044228D03*
X0140042Y0044328D03*
X0140242Y0043028D03*
X0140242Y0042928D03*
X0140242Y0042828D03*
X0140242Y0042728D03*
X0140242Y0042628D03*
X0140242Y0042528D03*
X0140242Y0042428D03*
X0140342Y0042028D03*
X0140342Y0041928D03*
X0140342Y0041828D03*
X0140342Y0041728D03*
X0140342Y0041628D03*
X0140342Y0041528D03*
X0140342Y0041428D03*
X0140342Y0041328D03*
X0140442Y0041228D03*
X0140442Y0041128D03*
X0140442Y0041028D03*
X0140442Y0040928D03*
X0140442Y0040828D03*
X0140442Y0040728D03*
X0140442Y0040628D03*
X0140442Y0040528D03*
X0133842Y0040428D03*
X0133242Y0041228D03*
X0131642Y0043628D03*
X0141042Y0034128D03*
X0141042Y0034028D03*
X0142242Y0034028D03*
X0145542Y0031228D03*
X0150942Y0037428D03*
X0150942Y0037528D03*
X0143442Y0052328D03*
X0142342Y0053228D03*
X0142342Y0053328D03*
X0141942Y0053028D03*
X0141942Y0052928D03*
X0141942Y0052828D03*
X0141442Y0052528D03*
X0141442Y0052428D03*
X0140642Y0053128D03*
X0140642Y0053228D03*
X0139142Y0053428D03*
X0138642Y0053528D03*
X0137542Y0052528D03*
D27*
X0138342Y0052428D03*
X0139842Y0052928D03*
X0139842Y0053028D03*
X0140042Y0053528D03*
X0140142Y0053828D03*
X0141242Y0053528D03*
X0141242Y0053428D03*
X0141242Y0053328D03*
X0140642Y0052728D03*
X0140642Y0052628D03*
X0143642Y0052728D03*
X0142642Y0042528D03*
X0139342Y0042528D03*
X0140942Y0036628D03*
X0142042Y0032328D03*
X0142142Y0030228D03*
X0141042Y0030228D03*
X0139942Y0030228D03*
X0140942Y0026728D03*
X0141442Y0025728D03*
X0141442Y0025628D03*
X0142342Y0025728D03*
X0142342Y0025828D03*
X0143342Y0025828D03*
X0143542Y0027028D03*
X0144442Y0026828D03*
X0144542Y0026728D03*
X0144542Y0026628D03*
X0144542Y0026528D03*
X0144542Y0026428D03*
X0146442Y0026728D03*
X0147042Y0027128D03*
X0148142Y0027728D03*
X0147842Y0028228D03*
X0148542Y0028528D03*
X0148542Y0028628D03*
X0148642Y0028428D03*
X0148742Y0028328D03*
X0148742Y0028228D03*
X0148842Y0028128D03*
X0136542Y0026628D03*
X0136342Y0026828D03*
X0133642Y0028828D03*
X0133342Y0029028D03*
X0133042Y0028528D03*
X0132042Y0029228D03*
X0135542Y0034828D03*
D28*
X0130942Y0030228D03*
X0137242Y0025728D03*
X0138542Y0027428D03*
X0141042Y0030828D03*
X0141042Y0030928D03*
X0141042Y0031028D03*
X0141042Y0031128D03*
X0141042Y0031228D03*
X0141042Y0031328D03*
X0149542Y0032828D03*
X0150442Y0034328D03*
X0150442Y0034428D03*
X0151342Y0030128D03*
X0131042Y0042728D03*
X0138542Y0051928D03*
X0136542Y0053328D03*
D29*
X0144342Y0051828D03*
X0145642Y0053428D03*
X0130942Y0042528D03*
X0149042Y0032128D03*
X0149142Y0032228D03*
X0149542Y0032728D03*
X0149842Y0033228D03*
X0150142Y0033628D03*
X0150342Y0033928D03*
X0150342Y0034028D03*
X0150642Y0034628D03*
X0150742Y0034728D03*
X0151242Y0036028D03*
X0151342Y0036328D03*
X0151742Y0038228D03*
X0151742Y0038628D03*
X0151742Y0038728D03*
X0151742Y0038828D03*
X0151742Y0038928D03*
X0151742Y0039028D03*
X0151742Y0039728D03*
X0151742Y0039828D03*
X0151742Y0039928D03*
X0151742Y0040028D03*
X0151742Y0040128D03*
X0146142Y0026128D03*
X0145142Y0025728D03*
D30*
X0144542Y0027528D03*
X0149542Y0033028D03*
X0153842Y0034828D03*
X0153942Y0035128D03*
X0154042Y0035328D03*
X0154042Y0035428D03*
X0154142Y0035628D03*
X0154142Y0035728D03*
X0154142Y0035828D03*
X0154242Y0035928D03*
X0154242Y0036028D03*
X0154242Y0036128D03*
X0154242Y0036228D03*
X0154342Y0036328D03*
X0154342Y0036428D03*
X0154342Y0036528D03*
X0154442Y0036728D03*
X0154442Y0036828D03*
X0154442Y0036928D03*
X0154542Y0037328D03*
X0154542Y0037428D03*
X0154642Y0038028D03*
X0154642Y0038128D03*
X0154642Y0041228D03*
X0154642Y0041328D03*
X0154542Y0041928D03*
X0154542Y0042028D03*
X0154442Y0042428D03*
X0154442Y0042528D03*
X0154442Y0042628D03*
X0154342Y0042828D03*
X0154342Y0042928D03*
X0154342Y0043028D03*
X0154242Y0043128D03*
X0154242Y0043228D03*
X0154242Y0043328D03*
X0154242Y0043428D03*
X0154142Y0043528D03*
X0154142Y0043628D03*
X0154142Y0043728D03*
X0154042Y0043928D03*
X0153942Y0044228D03*
X0147342Y0052528D03*
X0137442Y0053628D03*
X0134742Y0052328D03*
X0128542Y0044628D03*
X0128442Y0044328D03*
X0128342Y0044128D03*
X0128342Y0044028D03*
X0128242Y0043828D03*
X0128242Y0043728D03*
X0128142Y0043528D03*
X0128142Y0043428D03*
X0128142Y0043328D03*
X0128042Y0043228D03*
X0128042Y0043128D03*
X0128042Y0043028D03*
X0127942Y0042828D03*
X0127942Y0042728D03*
X0127942Y0042628D03*
X0127842Y0042328D03*
X0127842Y0042228D03*
X0127842Y0042128D03*
X0127742Y0041728D03*
X0127742Y0041628D03*
X0127642Y0040728D03*
X0127642Y0038628D03*
X0127742Y0037728D03*
X0127742Y0037628D03*
X0127842Y0037228D03*
X0127842Y0037128D03*
X0127842Y0037028D03*
X0127942Y0036728D03*
X0127942Y0036628D03*
X0127942Y0036528D03*
X0128042Y0036328D03*
X0128042Y0036228D03*
X0128042Y0036128D03*
X0128142Y0036028D03*
X0128142Y0035928D03*
X0128142Y0035828D03*
X0128242Y0035628D03*
X0128242Y0035528D03*
X0128342Y0035328D03*
X0128342Y0035228D03*
X0128442Y0035028D03*
X0128542Y0034728D03*
X0130942Y0030328D03*
X0137142Y0025828D03*
X0131142Y0042628D03*
D31*
X0133292Y0041128D03*
X0137892Y0042928D03*
X0138292Y0043128D03*
X0138292Y0042028D03*
X0138392Y0041828D03*
X0138492Y0041628D03*
X0138592Y0041428D03*
X0138892Y0040728D03*
X0138992Y0040528D03*
X0139092Y0040328D03*
X0139592Y0039228D03*
X0139692Y0039028D03*
X0139792Y0038828D03*
X0140192Y0037928D03*
X0140292Y0037728D03*
X0140392Y0037528D03*
X0141492Y0037328D03*
X0141592Y0037528D03*
X0141692Y0037728D03*
X0141792Y0037928D03*
X0142192Y0038828D03*
X0142292Y0039028D03*
X0142392Y0039228D03*
X0142492Y0039428D03*
X0142892Y0040328D03*
X0142992Y0040528D03*
X0143092Y0040728D03*
X0143192Y0040928D03*
X0143592Y0041828D03*
X0143692Y0042028D03*
X0143792Y0042228D03*
X0143892Y0042428D03*
X0143692Y0043128D03*
X0143792Y0043228D03*
X0144592Y0044028D03*
X0144692Y0044228D03*
X0144792Y0044428D03*
X0144892Y0044728D03*
X0146292Y0045728D03*
X0140292Y0042128D03*
X0140992Y0036328D03*
X0140992Y0036228D03*
X0142192Y0033928D03*
X0142092Y0032028D03*
X0142192Y0031928D03*
X0142292Y0031728D03*
X0142492Y0031428D03*
X0142592Y0031328D03*
X0146492Y0026828D03*
X0146992Y0027028D03*
X0144492Y0026128D03*
X0143892Y0026128D03*
X0143892Y0026228D03*
X0143792Y0026428D03*
X0140892Y0026328D03*
X0140192Y0026628D03*
X0140092Y0025928D03*
X0140092Y0025828D03*
X0139492Y0026428D03*
X0137992Y0026928D03*
X0137292Y0026728D03*
X0137292Y0026628D03*
X0137192Y0026228D03*
X0137092Y0026128D03*
X0136692Y0026428D03*
X0136192Y0027128D03*
X0136192Y0027228D03*
X0136192Y0027328D03*
X0136192Y0027428D03*
X0135592Y0027328D03*
X0135292Y0027028D03*
X0136892Y0027328D03*
X0133892Y0027928D03*
X0133892Y0028028D03*
X0133592Y0028528D03*
X0133692Y0028628D03*
X0133292Y0029128D03*
X0133292Y0028128D03*
X0133292Y0028028D03*
X0131992Y0029328D03*
X0132392Y0029828D03*
X0149792Y0029228D03*
X0149792Y0029128D03*
X0149992Y0028828D03*
X0150192Y0029728D03*
X0150692Y0029428D03*
X0136792Y0051928D03*
X0137592Y0052328D03*
X0137592Y0052428D03*
X0137492Y0052628D03*
X0137492Y0052728D03*
X0137392Y0052828D03*
X0137392Y0052928D03*
X0136692Y0052828D03*
X0138692Y0053428D03*
X0139792Y0052528D03*
X0139792Y0052428D03*
X0141392Y0052628D03*
X0141392Y0052728D03*
X0141392Y0052828D03*
X0141992Y0052728D03*
X0141992Y0052628D03*
X0142292Y0053428D03*
X0142292Y0053528D03*
X0142292Y0053628D03*
X0142992Y0053528D03*
X0142892Y0052928D03*
X0142892Y0052828D03*
X0142892Y0052728D03*
X0142892Y0052628D03*
X0142892Y0052528D03*
X0142892Y0052428D03*
X0142792Y0052328D03*
X0143392Y0052228D03*
X0143592Y0052928D03*
X0143592Y0053028D03*
X0143592Y0053128D03*
X0143592Y0053228D03*
D32*
X0147092Y0052828D03*
X0135192Y0052828D03*
X0130892Y0043228D03*
X0148992Y0031928D03*
X0150992Y0034928D03*
X0151092Y0035228D03*
X0151092Y0035328D03*
X0151692Y0037128D03*
X0151692Y0037228D03*
X0151792Y0038128D03*
X0147092Y0026528D03*
X0145792Y0025928D03*
X0145592Y0025828D03*
X0136292Y0026028D03*
X0133992Y0027228D03*
D33*
X0134842Y0026728D03*
X0135642Y0028228D03*
X0138142Y0027528D03*
X0136442Y0025928D03*
X0131742Y0029028D03*
X0130942Y0029828D03*
X0130942Y0043328D03*
X0138142Y0051828D03*
X0135342Y0052928D03*
X0143742Y0045928D03*
X0143042Y0044628D03*
X0151842Y0037828D03*
X0151842Y0037728D03*
X0151842Y0037628D03*
X0151642Y0037028D03*
X0151642Y0036928D03*
X0151642Y0036828D03*
X0151642Y0036728D03*
X0151042Y0035128D03*
X0151042Y0035028D03*
X0151442Y0029928D03*
X0146942Y0052928D03*
D34*
X0141242Y0053728D03*
X0139942Y0053428D03*
X0140642Y0052428D03*
X0136742Y0052428D03*
X0136742Y0052328D03*
X0135442Y0042328D03*
X0142042Y0032428D03*
X0142142Y0030528D03*
X0142142Y0030428D03*
X0142142Y0030328D03*
X0141042Y0030328D03*
X0141042Y0030428D03*
X0141042Y0030528D03*
X0141042Y0030628D03*
X0139942Y0030428D03*
X0139942Y0030328D03*
X0137142Y0027128D03*
X0134642Y0027328D03*
X0133242Y0028428D03*
X0134042Y0029328D03*
X0133942Y0029428D03*
X0133742Y0029528D03*
X0133642Y0029628D03*
X0133342Y0029828D03*
X0133242Y0029928D03*
X0133142Y0030028D03*
X0134342Y0029128D03*
X0131142Y0029128D03*
X0131042Y0029228D03*
X0139342Y0026628D03*
X0139242Y0026128D03*
X0139242Y0026028D03*
X0142342Y0026028D03*
X0142342Y0026128D03*
X0142342Y0025928D03*
X0145442Y0026928D03*
X0145442Y0027028D03*
X0148142Y0029228D03*
X0148242Y0029328D03*
X0148442Y0029428D03*
X0148542Y0029528D03*
X0149242Y0030028D03*
X0150742Y0028728D03*
X0150542Y0028528D03*
X0151542Y0029428D03*
D35*
X0149042Y0032028D03*
X0150342Y0033828D03*
X0151442Y0036528D03*
X0151842Y0039228D03*
X0151842Y0039328D03*
X0151842Y0039428D03*
X0143642Y0030928D03*
X0146042Y0026028D03*
X0134742Y0026828D03*
X0130942Y0029928D03*
X0130942Y0043028D03*
X0130942Y0043128D03*
X0135042Y0052728D03*
D36*
X0144592Y0046028D03*
X0143892Y0044728D03*
X0141892Y0033328D03*
X0141892Y0033228D03*
X0149092Y0029628D03*
X0150092Y0028428D03*
X0148792Y0027428D03*
X0146892Y0026328D03*
X0146692Y0026228D03*
X0151492Y0029828D03*
X0135892Y0026128D03*
X0135592Y0026228D03*
X0134992Y0026528D03*
X0131792Y0028828D03*
D37*
X0130942Y0029728D03*
X0134042Y0027128D03*
X0135442Y0026328D03*
X0135542Y0028328D03*
X0137742Y0027628D03*
X0145042Y0027728D03*
X0149442Y0027928D03*
X0139642Y0034128D03*
X0145042Y0052928D03*
D38*
X0138642Y0052728D03*
X0138642Y0052628D03*
X0137842Y0051728D03*
X0135642Y0042428D03*
X0141942Y0033128D03*
X0141942Y0033028D03*
X0145942Y0028028D03*
X0145242Y0027828D03*
X0148742Y0027328D03*
X0149442Y0027828D03*
X0151042Y0029228D03*
X0151142Y0029328D03*
X0151942Y0037328D03*
X0151942Y0037528D03*
X0136742Y0027928D03*
X0135442Y0028428D03*
X0133242Y0027628D03*
X0135142Y0026428D03*
X0130942Y0029628D03*
D39*
X0131792Y0028628D03*
X0132192Y0029128D03*
X0132792Y0027828D03*
X0133492Y0027328D03*
X0134892Y0027728D03*
X0135192Y0028028D03*
X0135192Y0028628D03*
X0134392Y0029028D03*
X0141992Y0032728D03*
X0141992Y0032828D03*
X0146292Y0028228D03*
X0147192Y0027328D03*
X0148192Y0026928D03*
X0148392Y0027028D03*
X0142292Y0026628D03*
X0142292Y0026528D03*
X0142292Y0026428D03*
X0130792Y0043928D03*
X0130992Y0044428D03*
X0130992Y0044528D03*
X0131092Y0044728D03*
X0144992Y0052028D03*
X0145092Y0052128D03*
X0145192Y0052428D03*
X0145192Y0052528D03*
D40*
X0144592Y0051728D03*
X0140392Y0045628D03*
X0135692Y0042528D03*
X0130892Y0043428D03*
X0130892Y0043528D03*
X0135492Y0053028D03*
X0135692Y0053128D03*
X0151892Y0038028D03*
X0151892Y0037928D03*
X0151592Y0036628D03*
X0145792Y0027928D03*
X0146992Y0026428D03*
X0136892Y0027828D03*
X0134892Y0026628D03*
X0131792Y0028928D03*
D41*
X0131792Y0028728D03*
X0133292Y0027528D03*
X0134092Y0027028D03*
X0136492Y0028028D03*
X0142292Y0026828D03*
X0147592Y0026628D03*
X0147792Y0026728D03*
X0147992Y0026828D03*
X0147692Y0027828D03*
X0147592Y0027928D03*
X0149092Y0029728D03*
X0150092Y0028328D03*
X0150992Y0029128D03*
X0151992Y0037428D03*
X0138192Y0044628D03*
X0130992Y0044228D03*
X0130992Y0044128D03*
X0130792Y0043728D03*
X0130792Y0043628D03*
X0138692Y0052528D03*
X0138592Y0052828D03*
X0138592Y0052928D03*
X0138592Y0053028D03*
X0138592Y0053128D03*
D42*
X0138642Y0053228D03*
X0137542Y0051628D03*
X0144842Y0051628D03*
X0144942Y0052828D03*
X0137642Y0045928D03*
X0131042Y0044328D03*
X0130842Y0044028D03*
X0130842Y0043828D03*
X0144542Y0044828D03*
X0141942Y0032928D03*
X0143142Y0031028D03*
X0146142Y0028128D03*
X0147142Y0027428D03*
X0147642Y0028028D03*
X0148542Y0027128D03*
X0148642Y0027228D03*
X0149342Y0027728D03*
X0150042Y0028228D03*
X0150942Y0029028D03*
X0151542Y0029728D03*
X0149142Y0029828D03*
X0142242Y0026728D03*
X0135342Y0028528D03*
X0135042Y0027928D03*
X0134942Y0027828D03*
X0134142Y0026928D03*
X0133342Y0027428D03*
X0132742Y0027928D03*
X0130942Y0029528D03*
D43*
X0141192Y0027028D03*
X0131492Y0037628D03*
X0131392Y0037828D03*
X0131792Y0049428D03*
X0131892Y0049528D03*
X0147692Y0051928D03*
X0150192Y0049728D03*
X0150292Y0049628D03*
X0150392Y0049528D03*
X0149592Y0045428D03*
X0150992Y0040928D03*
D44*
X0147792Y0046728D03*
X0134992Y0051528D03*
X0133292Y0034628D03*
X0133392Y0034528D03*
X0141092Y0027128D03*
X0145692Y0030428D03*
D45*
X0146742Y0028428D03*
X0146942Y0028528D03*
X0147142Y0028628D03*
X0146542Y0028328D03*
X0145342Y0027228D03*
X0149142Y0027528D03*
X0149342Y0027628D03*
X0150942Y0028928D03*
X0142042Y0032628D03*
X0135042Y0028728D03*
X0134842Y0028828D03*
X0134842Y0027628D03*
X0134742Y0027528D03*
X0132842Y0027728D03*
X0132442Y0028028D03*
X0131842Y0028528D03*
X0130942Y0029428D03*
X0133442Y0029728D03*
X0140142Y0042328D03*
X0141842Y0042328D03*
X0131042Y0044628D03*
X0143842Y0052428D03*
X0144942Y0052728D03*
X0145142Y0052328D03*
X0145142Y0052228D03*
X0145042Y0051528D03*
D46*
X0141142Y0050728D03*
X0141142Y0028628D03*
X0141842Y0027328D03*
D47*
X0144792Y0027628D03*
X0149392Y0032528D03*
X0149492Y0032628D03*
X0149992Y0033328D03*
X0150092Y0033428D03*
X0150092Y0033528D03*
X0150792Y0034828D03*
X0151092Y0035428D03*
X0151092Y0035528D03*
X0151092Y0035628D03*
X0151292Y0036128D03*
X0151292Y0036228D03*
X0151392Y0036428D03*
X0151792Y0039128D03*
X0151792Y0039528D03*
X0151792Y0039628D03*
X0151792Y0040228D03*
X0151792Y0040328D03*
X0140992Y0042228D03*
X0138592Y0045828D03*
X0130992Y0042928D03*
X0134992Y0052628D03*
X0136892Y0053528D03*
X0147192Y0052728D03*
X0151392Y0030028D03*
X0137092Y0027728D03*
X0135792Y0028128D03*
X0130992Y0030028D03*
D48*
X0129592Y0032628D03*
X0129492Y0032828D03*
X0129392Y0032928D03*
X0129392Y0033028D03*
X0129292Y0033128D03*
X0129192Y0033328D03*
X0129092Y0033528D03*
X0131092Y0041628D03*
X0131092Y0041728D03*
X0131092Y0041828D03*
X0129092Y0045828D03*
X0129192Y0046028D03*
X0129292Y0046228D03*
X0129392Y0046328D03*
X0129392Y0046428D03*
X0129492Y0046528D03*
X0129592Y0046728D03*
X0135992Y0042828D03*
X0141192Y0051328D03*
X0147492Y0052328D03*
X0152692Y0046828D03*
X0152792Y0046628D03*
X0152892Y0046528D03*
X0152892Y0046428D03*
X0152992Y0046328D03*
X0153092Y0046128D03*
X0153192Y0045928D03*
X0150492Y0044428D03*
X0150492Y0044328D03*
X0150492Y0044228D03*
X0150192Y0045028D03*
X0151392Y0040528D03*
X0153192Y0033428D03*
X0153092Y0033228D03*
X0152992Y0033028D03*
X0152892Y0032928D03*
X0152892Y0032828D03*
X0152792Y0032728D03*
X0152692Y0032528D03*
X0147992Y0031328D03*
X0147892Y0031228D03*
X0147792Y0031128D03*
X0141192Y0028028D03*
D49*
X0141142Y0028128D03*
X0136742Y0029928D03*
X0131742Y0037428D03*
X0131542Y0039528D03*
X0131542Y0040428D03*
X0131542Y0040528D03*
X0131542Y0040628D03*
X0135842Y0043128D03*
X0133042Y0050428D03*
X0134442Y0051628D03*
X0140942Y0052228D03*
X0141142Y0051228D03*
X0147842Y0051628D03*
X0149142Y0050528D03*
X0149342Y0050428D03*
X0149442Y0050328D03*
X0147042Y0031028D03*
D50*
X0145642Y0030328D03*
X0141142Y0028228D03*
X0136542Y0030428D03*
X0135142Y0043828D03*
X0135042Y0043928D03*
X0134942Y0044028D03*
X0134842Y0044128D03*
X0134742Y0044328D03*
X0134242Y0046528D03*
X0134342Y0046628D03*
X0134342Y0046728D03*
X0134542Y0051328D03*
X0141142Y0051128D03*
X0144442Y0049828D03*
X0147542Y0047228D03*
X0148142Y0046428D03*
X0140642Y0044528D03*
D51*
X0133942Y0045428D03*
X0141142Y0051028D03*
X0133742Y0034328D03*
X0141142Y0028328D03*
X0145742Y0030728D03*
D52*
X0141192Y0028428D03*
X0136292Y0031328D03*
X0141192Y0050928D03*
D53*
X0141142Y0050828D03*
X0136242Y0031728D03*
X0141142Y0028528D03*
D54*
X0141192Y0028728D03*
X0141192Y0050628D03*
D55*
X0141142Y0050528D03*
X0136142Y0032828D03*
X0141142Y0028828D03*
D56*
X0141192Y0028928D03*
X0141192Y0050428D03*
D57*
X0141192Y0050328D03*
X0141192Y0029028D03*
D58*
X0141192Y0029128D03*
X0141192Y0050228D03*
D59*
X0141192Y0050128D03*
X0141192Y0029228D03*
D60*
X0141192Y0029328D03*
X0141192Y0050028D03*
D61*
X0141192Y0049928D03*
X0141192Y0029428D03*
D62*
X0141142Y0029528D03*
D63*
X0141142Y0029628D03*
D64*
X0141192Y0029728D03*
D65*
X0136792Y0029828D03*
X0146992Y0030928D03*
X0131592Y0038428D03*
X0131492Y0038728D03*
X0131492Y0038828D03*
X0131492Y0038928D03*
X0131492Y0039028D03*
X0131492Y0039128D03*
X0131492Y0039428D03*
X0131592Y0040728D03*
X0132892Y0050328D03*
X0147792Y0051728D03*
X0149592Y0050228D03*
X0149192Y0045628D03*
D66*
X0136142Y0032528D03*
X0143242Y0029828D03*
D67*
X0145492Y0029928D03*
X0132492Y0035328D03*
X0132492Y0035428D03*
X0132492Y0035528D03*
X0131992Y0036928D03*
X0131992Y0037028D03*
X0131992Y0037228D03*
X0131892Y0037328D03*
X0131692Y0039928D03*
X0131692Y0040028D03*
X0135092Y0047928D03*
X0135192Y0048028D03*
X0135292Y0048128D03*
X0136992Y0049528D03*
X0137192Y0049628D03*
X0133492Y0050728D03*
X0148692Y0050828D03*
D68*
X0148842Y0050728D03*
X0147942Y0051528D03*
X0149042Y0045728D03*
X0136842Y0049428D03*
X0136642Y0049328D03*
X0136342Y0049128D03*
X0135842Y0048728D03*
X0135742Y0048628D03*
X0135642Y0048528D03*
X0135542Y0048428D03*
X0135442Y0048328D03*
X0135342Y0048228D03*
X0133342Y0050628D03*
X0131642Y0039828D03*
X0131642Y0039728D03*
X0132042Y0036828D03*
X0132042Y0036728D03*
X0136642Y0030028D03*
D69*
X0136642Y0030128D03*
X0132442Y0035628D03*
X0132442Y0035728D03*
X0132042Y0037128D03*
X0131742Y0040228D03*
X0131742Y0040328D03*
X0134942Y0047728D03*
X0135042Y0047828D03*
X0133642Y0050828D03*
X0140542Y0045728D03*
X0145942Y0049028D03*
X0148542Y0050928D03*
X0145542Y0030028D03*
D70*
X0145592Y0030128D03*
X0136592Y0030228D03*
X0134492Y0047028D03*
X0134592Y0047228D03*
X0137692Y0049828D03*
X0144992Y0049628D03*
X0146892Y0048128D03*
X0146992Y0048028D03*
X0147092Y0047928D03*
X0148392Y0046328D03*
X0148192Y0051128D03*
X0147992Y0051228D03*
D71*
X0147792Y0051328D03*
X0147292Y0047628D03*
X0147392Y0047528D03*
X0147392Y0047428D03*
X0147492Y0047328D03*
X0148592Y0045928D03*
X0134392Y0046828D03*
X0145592Y0030228D03*
D72*
X0136542Y0030328D03*
X0135242Y0043728D03*
X0134442Y0046928D03*
X0134542Y0047128D03*
X0134342Y0051228D03*
X0141142Y0052128D03*
X0144742Y0049728D03*
X0147142Y0047828D03*
X0147242Y0047728D03*
X0148442Y0046228D03*
X0148442Y0046128D03*
X0148542Y0046028D03*
X0148642Y0045828D03*
D73*
X0149792Y0045228D03*
X0150892Y0049028D03*
X0135692Y0043028D03*
X0131292Y0041128D03*
X0131292Y0048928D03*
X0131392Y0049028D03*
X0131492Y0049128D03*
X0131592Y0049228D03*
X0134492Y0051928D03*
X0131192Y0030528D03*
X0131292Y0030428D03*
X0150892Y0030328D03*
D74*
X0136542Y0030528D03*
X0133242Y0034728D03*
X0134542Y0044628D03*
X0134142Y0046228D03*
X0147742Y0046828D03*
X0147742Y0046928D03*
D75*
X0147842Y0046628D03*
X0134042Y0045928D03*
X0136442Y0030628D03*
X0145742Y0030528D03*
D76*
X0145742Y0030628D03*
X0136442Y0030728D03*
X0133542Y0034428D03*
X0133942Y0045628D03*
X0134242Y0046128D03*
D77*
X0136042Y0042728D03*
X0129242Y0046128D03*
X0129142Y0045928D03*
X0129042Y0045728D03*
X0128942Y0045628D03*
X0128942Y0045528D03*
X0128842Y0045328D03*
X0128742Y0045128D03*
X0134642Y0052228D03*
X0150242Y0044928D03*
X0150342Y0044828D03*
X0150442Y0044628D03*
X0150442Y0044528D03*
X0153242Y0045828D03*
X0153342Y0045728D03*
X0153342Y0045628D03*
X0153442Y0045528D03*
X0153442Y0045428D03*
X0153542Y0045228D03*
X0153642Y0045028D03*
X0153142Y0046028D03*
X0153042Y0046228D03*
X0151442Y0040428D03*
X0153642Y0034328D03*
X0153542Y0034128D03*
X0153442Y0033928D03*
X0153442Y0033828D03*
X0153342Y0033728D03*
X0153342Y0033628D03*
X0153242Y0033528D03*
X0153142Y0033328D03*
X0153042Y0033128D03*
X0141042Y0030728D03*
X0129242Y0033228D03*
X0129142Y0033428D03*
X0129042Y0033628D03*
X0128942Y0033728D03*
X0128942Y0033828D03*
X0128842Y0034028D03*
X0128742Y0034228D03*
D78*
X0136392Y0030928D03*
X0145792Y0030828D03*
X0133892Y0045228D03*
X0133892Y0045328D03*
D79*
X0130792Y0048328D03*
X0130692Y0048228D03*
X0130592Y0048128D03*
X0131392Y0042128D03*
X0140492Y0044428D03*
X0147592Y0052128D03*
X0151392Y0048528D03*
X0151492Y0048428D03*
X0151592Y0048328D03*
X0150992Y0041928D03*
X0150992Y0041828D03*
X0151092Y0041628D03*
X0151092Y0041528D03*
X0151092Y0041428D03*
X0151592Y0031028D03*
X0151492Y0030928D03*
X0151392Y0030828D03*
X0130792Y0031028D03*
X0130692Y0031128D03*
X0130592Y0031228D03*
X0141192Y0054428D03*
D80*
X0133892Y0045128D03*
X0133892Y0045028D03*
X0134992Y0044728D03*
X0133992Y0034128D03*
X0136392Y0031028D03*
D81*
X0136342Y0031128D03*
D82*
X0136342Y0031228D03*
X0133942Y0044928D03*
D83*
X0136292Y0031428D03*
D84*
X0136292Y0031528D03*
D85*
X0139092Y0034028D03*
X0130292Y0031628D03*
X0130192Y0031728D03*
X0130092Y0031828D03*
X0129992Y0032028D03*
X0131092Y0041328D03*
X0131092Y0041428D03*
X0131092Y0041528D03*
X0131192Y0042028D03*
X0131292Y0042328D03*
X0129992Y0047328D03*
X0130092Y0047428D03*
X0130092Y0047528D03*
X0130192Y0047628D03*
X0130292Y0047728D03*
X0134592Y0052128D03*
X0138192Y0053828D03*
X0144392Y0053728D03*
X0147492Y0052228D03*
X0151992Y0047828D03*
X0152092Y0047628D03*
X0152192Y0047528D03*
X0152292Y0047428D03*
X0152492Y0047128D03*
X0150592Y0043928D03*
X0150592Y0043828D03*
X0150592Y0043728D03*
X0150692Y0043428D03*
X0150792Y0043228D03*
X0150792Y0043128D03*
X0150892Y0042828D03*
X0150892Y0042728D03*
X0150992Y0042528D03*
X0150992Y0042428D03*
X0150992Y0042328D03*
X0152492Y0032228D03*
X0152292Y0031928D03*
X0152192Y0031828D03*
X0152092Y0031728D03*
X0151992Y0031528D03*
D86*
X0136242Y0031628D03*
D87*
X0127992Y0036428D03*
X0127892Y0036828D03*
X0127892Y0036928D03*
X0127792Y0037328D03*
X0127792Y0037428D03*
X0127792Y0037528D03*
X0127692Y0037828D03*
X0127692Y0037928D03*
X0127692Y0038028D03*
X0127692Y0038128D03*
X0127692Y0038228D03*
X0127692Y0038328D03*
X0127692Y0038428D03*
X0127692Y0038528D03*
X0127592Y0038728D03*
X0127592Y0038828D03*
X0127592Y0038928D03*
X0127592Y0039028D03*
X0127592Y0039128D03*
X0127592Y0039228D03*
X0127592Y0039328D03*
X0127592Y0039428D03*
X0127592Y0039528D03*
X0127592Y0039628D03*
X0127592Y0039728D03*
X0127592Y0039828D03*
X0127592Y0039928D03*
X0127592Y0040028D03*
X0127592Y0040128D03*
X0127592Y0040228D03*
X0127592Y0040328D03*
X0127592Y0040428D03*
X0127592Y0040528D03*
X0127592Y0040628D03*
X0127692Y0040828D03*
X0127692Y0040928D03*
X0127692Y0041028D03*
X0127692Y0041128D03*
X0127692Y0041228D03*
X0127692Y0041328D03*
X0127692Y0041428D03*
X0127692Y0041528D03*
X0127792Y0041828D03*
X0127792Y0041928D03*
X0127792Y0042028D03*
X0127892Y0042428D03*
X0127892Y0042528D03*
X0127992Y0042928D03*
X0135992Y0042628D03*
X0134792Y0052428D03*
X0136392Y0053228D03*
X0145992Y0053228D03*
X0154392Y0042728D03*
X0154492Y0042328D03*
X0154492Y0042228D03*
X0154492Y0042128D03*
X0154592Y0041828D03*
X0154592Y0041728D03*
X0154592Y0041628D03*
X0154592Y0041528D03*
X0154592Y0041428D03*
X0154692Y0041128D03*
X0154692Y0041028D03*
X0154692Y0040928D03*
X0154692Y0040828D03*
X0154692Y0040728D03*
X0154692Y0040628D03*
X0154692Y0040528D03*
X0154692Y0040428D03*
X0154692Y0040328D03*
X0154692Y0040228D03*
X0154692Y0040128D03*
X0154692Y0040028D03*
X0154692Y0039928D03*
X0154692Y0039828D03*
X0154692Y0039728D03*
X0154692Y0039628D03*
X0154692Y0039528D03*
X0154692Y0039428D03*
X0154692Y0039328D03*
X0154692Y0039228D03*
X0154692Y0039128D03*
X0154692Y0039028D03*
X0154692Y0038928D03*
X0154692Y0038828D03*
X0154692Y0038728D03*
X0154692Y0038628D03*
X0154692Y0038528D03*
X0154692Y0038428D03*
X0154692Y0038328D03*
X0154692Y0038228D03*
X0154592Y0037928D03*
X0154592Y0037828D03*
X0154592Y0037728D03*
X0154592Y0037628D03*
X0154592Y0037528D03*
X0154492Y0037228D03*
X0154492Y0037128D03*
X0154492Y0037028D03*
X0154392Y0036628D03*
X0150492Y0034528D03*
X0149692Y0033128D03*
X0149492Y0032928D03*
X0148692Y0031828D03*
X0148592Y0031728D03*
X0148492Y0031628D03*
D88*
X0136192Y0031928D03*
D89*
X0136192Y0032028D03*
D90*
X0136192Y0032128D03*
D91*
X0136142Y0032228D03*
D92*
X0136192Y0032328D03*
X0141192Y0053928D03*
D93*
X0136142Y0032428D03*
D94*
X0136142Y0032628D03*
X0136142Y0032728D03*
D95*
X0136142Y0032928D03*
D96*
X0136092Y0033028D03*
D97*
X0136142Y0033128D03*
D98*
X0136142Y0033228D03*
X0136142Y0033328D03*
D99*
X0136792Y0033628D03*
X0136892Y0033428D03*
D100*
X0136842Y0033528D03*
D101*
X0136292Y0033728D03*
D102*
X0136092Y0033828D03*
D103*
X0136042Y0033928D03*
D104*
X0134092Y0034028D03*
X0140692Y0052028D03*
D105*
X0134442Y0046028D03*
X0133842Y0034228D03*
D106*
X0132792Y0034828D03*
X0132792Y0034928D03*
X0132792Y0035028D03*
X0132392Y0035828D03*
X0132392Y0035928D03*
X0132392Y0036028D03*
X0132292Y0036428D03*
X0131792Y0040128D03*
X0135592Y0043528D03*
X0135692Y0043428D03*
X0135992Y0043228D03*
X0134792Y0047528D03*
X0134892Y0047628D03*
X0137392Y0049728D03*
X0133992Y0051028D03*
X0133792Y0050928D03*
X0145492Y0049328D03*
X0145692Y0049228D03*
X0145792Y0049128D03*
X0146092Y0048928D03*
X0146192Y0048828D03*
X0146292Y0048728D03*
X0146392Y0048628D03*
X0146492Y0048528D03*
X0148392Y0051028D03*
D107*
X0149992Y0049928D03*
X0149392Y0045528D03*
X0132492Y0050028D03*
X0132392Y0049928D03*
X0131592Y0037528D03*
D108*
X0131442Y0037728D03*
X0131342Y0037928D03*
X0131342Y0038028D03*
X0131342Y0038128D03*
X0131342Y0038228D03*
X0131342Y0038328D03*
X0131742Y0049328D03*
X0134442Y0051828D03*
X0143842Y0053828D03*
X0145842Y0053028D03*
X0147642Y0052028D03*
X0150542Y0049428D03*
X0150642Y0049328D03*
X0150742Y0049228D03*
X0150842Y0049128D03*
X0149642Y0045328D03*
X0151042Y0041128D03*
X0151042Y0041028D03*
D109*
X0149842Y0050028D03*
X0149742Y0050128D03*
X0132742Y0050228D03*
X0132642Y0050128D03*
X0131542Y0041028D03*
X0131542Y0040928D03*
X0131542Y0040828D03*
X0131442Y0039328D03*
X0131442Y0039228D03*
X0131542Y0038628D03*
X0131542Y0038528D03*
D110*
X0131592Y0039628D03*
X0135992Y0048828D03*
X0136092Y0048928D03*
X0136192Y0049028D03*
X0136492Y0049228D03*
X0133192Y0050528D03*
X0148992Y0050628D03*
D111*
X0147592Y0051428D03*
X0147592Y0047128D03*
X0147692Y0047028D03*
X0148092Y0046528D03*
X0134792Y0044228D03*
X0134692Y0044428D03*
X0134592Y0044528D03*
X0134192Y0046328D03*
X0134192Y0046428D03*
X0134792Y0051428D03*
D112*
X0134142Y0044828D03*
D113*
X0133992Y0045728D03*
X0133992Y0045828D03*
D114*
X0132042Y0049628D03*
X0132142Y0049728D03*
X0132242Y0049828D03*
X0134442Y0051728D03*
X0147742Y0051828D03*
X0150042Y0049828D03*
D115*
X0110994Y0042589D02*
X0110754Y0042589D01*
X0090294Y0020989D02*
X0090054Y0020989D01*
D116*
X0038274Y0043689D02*
X0038272Y0043745D01*
X0038266Y0043800D01*
X0038257Y0043855D01*
X0038243Y0043910D01*
X0038226Y0043963D01*
X0038205Y0044014D01*
X0038180Y0044065D01*
X0038152Y0044113D01*
X0038121Y0044159D01*
X0038087Y0044203D01*
X0038049Y0044245D01*
X0038009Y0044284D01*
X0037967Y0044319D01*
X0037921Y0044352D01*
X0037874Y0044382D01*
X0037825Y0044408D01*
X0037774Y0044431D01*
X0037721Y0044450D01*
X0037668Y0044465D01*
X0037613Y0044477D01*
X0037558Y0044485D01*
X0037502Y0044489D01*
X0037446Y0044489D01*
X0037390Y0044485D01*
X0037335Y0044477D01*
X0037280Y0044465D01*
X0037227Y0044450D01*
X0037174Y0044431D01*
X0037123Y0044408D01*
X0037074Y0044382D01*
X0037027Y0044352D01*
X0036981Y0044319D01*
X0036939Y0044284D01*
X0036899Y0044245D01*
X0036861Y0044203D01*
X0036827Y0044159D01*
X0036796Y0044113D01*
X0036768Y0044065D01*
X0036743Y0044014D01*
X0036722Y0043963D01*
X0036705Y0043910D01*
X0036691Y0043855D01*
X0036682Y0043800D01*
X0036676Y0043745D01*
X0036674Y0043689D01*
X0036676Y0043633D01*
X0036682Y0043578D01*
X0036691Y0043523D01*
X0036705Y0043468D01*
X0036722Y0043415D01*
X0036743Y0043364D01*
X0036768Y0043313D01*
X0036796Y0043265D01*
X0036827Y0043219D01*
X0036861Y0043175D01*
X0036899Y0043133D01*
X0036939Y0043094D01*
X0036981Y0043059D01*
X0037027Y0043026D01*
X0037074Y0042996D01*
X0037123Y0042970D01*
X0037174Y0042947D01*
X0037227Y0042928D01*
X0037280Y0042913D01*
X0037335Y0042901D01*
X0037390Y0042893D01*
X0037446Y0042889D01*
X0037502Y0042889D01*
X0037558Y0042893D01*
X0037613Y0042901D01*
X0037668Y0042913D01*
X0037721Y0042928D01*
X0037774Y0042947D01*
X0037825Y0042970D01*
X0037874Y0042996D01*
X0037921Y0043026D01*
X0037967Y0043059D01*
X0038009Y0043094D01*
X0038049Y0043133D01*
X0038087Y0043175D01*
X0038121Y0043219D01*
X0038152Y0043265D01*
X0038180Y0043313D01*
X0038205Y0043364D01*
X0038226Y0043415D01*
X0038243Y0043468D01*
X0038257Y0043523D01*
X0038266Y0043578D01*
X0038272Y0043633D01*
X0038274Y0043689D01*
X0022274Y0045089D02*
X0022274Y0040089D01*
X0019774Y0037589D01*
X0022274Y0035089D01*
X0022274Y0030089D01*
X0019774Y0027589D01*
X0022274Y0025089D01*
X0022274Y0020089D01*
X0019774Y0017589D01*
X0014774Y0017589D01*
X0012274Y0020089D01*
X0012274Y0025089D01*
X0014774Y0027589D01*
X0012274Y0030089D01*
X0012274Y0035089D01*
X0014774Y0037589D01*
X0019774Y0037589D01*
X0014774Y0037589D02*
X0012274Y0040089D01*
X0012274Y0045089D01*
X0014774Y0047589D01*
X0012274Y0050089D01*
X0012274Y0055089D01*
X0014774Y0057589D01*
X0012274Y0060089D01*
X0012274Y0065089D01*
X0014774Y0067589D01*
X0019774Y0067589D01*
X0022274Y0065089D01*
X0022274Y0060089D01*
X0019774Y0057589D01*
X0022274Y0055089D01*
X0022274Y0050089D01*
X0019774Y0047589D01*
X0022274Y0045089D01*
X0019774Y0047589D02*
X0014774Y0047589D01*
X0014774Y0057589D02*
X0019774Y0057589D01*
X0019774Y0067589D02*
X0022274Y0070089D01*
X0022274Y0075089D01*
X0019774Y0077589D01*
X0022274Y0080089D01*
X0022274Y0085089D01*
X0019774Y0087589D01*
X0022274Y0090089D01*
X0022274Y0095089D01*
X0019774Y0097589D01*
X0014774Y0097589D01*
X0012274Y0095089D01*
X0012274Y0090089D01*
X0014774Y0087589D01*
X0019774Y0087589D01*
X0014774Y0087589D02*
X0012274Y0085089D01*
X0012274Y0080089D01*
X0014774Y0077589D01*
X0019774Y0077589D01*
X0014774Y0077589D02*
X0012274Y0075089D01*
X0012274Y0070089D01*
X0014774Y0067589D01*
X0014774Y0027589D02*
X0019774Y0027589D01*
D117*
X0033137Y0028310D02*
X0033137Y0018468D01*
X0041011Y0018468D01*
X0041011Y0028310D01*
X0033137Y0028310D01*
X0035499Y0019550D02*
X0035501Y0019589D01*
X0035507Y0019628D01*
X0035517Y0019666D01*
X0035530Y0019703D01*
X0035547Y0019738D01*
X0035567Y0019772D01*
X0035591Y0019803D01*
X0035618Y0019832D01*
X0035647Y0019858D01*
X0035679Y0019881D01*
X0035713Y0019901D01*
X0035749Y0019917D01*
X0035786Y0019929D01*
X0035825Y0019938D01*
X0035864Y0019943D01*
X0035903Y0019944D01*
X0035942Y0019941D01*
X0035981Y0019934D01*
X0036018Y0019923D01*
X0036055Y0019909D01*
X0036090Y0019891D01*
X0036123Y0019870D01*
X0036154Y0019845D01*
X0036182Y0019818D01*
X0036207Y0019788D01*
X0036229Y0019755D01*
X0036248Y0019721D01*
X0036263Y0019685D01*
X0036275Y0019647D01*
X0036283Y0019609D01*
X0036287Y0019570D01*
X0036287Y0019530D01*
X0036283Y0019491D01*
X0036275Y0019453D01*
X0036263Y0019415D01*
X0036248Y0019379D01*
X0036229Y0019345D01*
X0036207Y0019312D01*
X0036182Y0019282D01*
X0036154Y0019255D01*
X0036123Y0019230D01*
X0036090Y0019209D01*
X0036055Y0019191D01*
X0036018Y0019177D01*
X0035981Y0019166D01*
X0035942Y0019159D01*
X0035903Y0019156D01*
X0035864Y0019157D01*
X0035825Y0019162D01*
X0035786Y0019171D01*
X0035749Y0019183D01*
X0035713Y0019199D01*
X0035679Y0019219D01*
X0035647Y0019242D01*
X0035618Y0019268D01*
X0035591Y0019297D01*
X0035567Y0019328D01*
X0035547Y0019362D01*
X0035530Y0019397D01*
X0035517Y0019434D01*
X0035507Y0019472D01*
X0035501Y0019511D01*
X0035499Y0019550D01*
X0077674Y0021289D02*
X0085674Y0021289D01*
X0093369Y0032289D02*
X0093369Y0043509D01*
X0093369Y0043706D02*
X0099274Y0043706D01*
X0099274Y0032289D01*
X0093369Y0032289D01*
X0139581Y0069350D02*
X0153361Y0069350D01*
X0153361Y0115806D01*
X0139581Y0115806D01*
X0139581Y0069350D01*
X0070463Y0086261D02*
X0055502Y0086261D01*
X0055502Y0106734D01*
X0070463Y0106734D01*
X0070463Y0086261D01*
X0058413Y0090592D02*
X0058415Y0090667D01*
X0058421Y0090742D01*
X0058431Y0090816D01*
X0058445Y0090890D01*
X0058462Y0090963D01*
X0058484Y0091034D01*
X0058509Y0091105D01*
X0058538Y0091174D01*
X0058570Y0091242D01*
X0058606Y0091307D01*
X0058646Y0091371D01*
X0058689Y0091433D01*
X0058735Y0091492D01*
X0058784Y0091549D01*
X0058836Y0091603D01*
X0058890Y0091654D01*
X0058948Y0091702D01*
X0059007Y0091747D01*
X0059070Y0091789D01*
X0059134Y0091828D01*
X0059200Y0091863D01*
X0059268Y0091895D01*
X0059338Y0091923D01*
X0059408Y0091947D01*
X0059481Y0091968D01*
X0059554Y0091984D01*
X0059628Y0091997D01*
X0059702Y0092006D01*
X0059777Y0092011D01*
X0059852Y0092012D01*
X0059927Y0092009D01*
X0060001Y0092002D01*
X0060075Y0091991D01*
X0060149Y0091976D01*
X0060222Y0091958D01*
X0060293Y0091935D01*
X0060363Y0091909D01*
X0060432Y0091879D01*
X0060499Y0091846D01*
X0060565Y0091809D01*
X0060628Y0091769D01*
X0060689Y0091725D01*
X0060747Y0091678D01*
X0060803Y0091629D01*
X0060857Y0091576D01*
X0060907Y0091521D01*
X0060955Y0091463D01*
X0060999Y0091402D01*
X0061040Y0091340D01*
X0061078Y0091275D01*
X0061112Y0091208D01*
X0061143Y0091140D01*
X0061170Y0091070D01*
X0061194Y0090999D01*
X0061213Y0090926D01*
X0061229Y0090853D01*
X0061241Y0090779D01*
X0061249Y0090704D01*
X0061253Y0090629D01*
X0061253Y0090555D01*
X0061249Y0090480D01*
X0061241Y0090405D01*
X0061229Y0090331D01*
X0061213Y0090258D01*
X0061194Y0090185D01*
X0061170Y0090114D01*
X0061143Y0090044D01*
X0061112Y0089976D01*
X0061078Y0089909D01*
X0061040Y0089844D01*
X0060999Y0089782D01*
X0060955Y0089721D01*
X0060907Y0089663D01*
X0060857Y0089608D01*
X0060803Y0089555D01*
X0060747Y0089506D01*
X0060689Y0089459D01*
X0060628Y0089415D01*
X0060565Y0089375D01*
X0060499Y0089338D01*
X0060432Y0089305D01*
X0060363Y0089275D01*
X0060293Y0089249D01*
X0060222Y0089226D01*
X0060149Y0089208D01*
X0060075Y0089193D01*
X0060001Y0089182D01*
X0059927Y0089175D01*
X0059852Y0089172D01*
X0059777Y0089173D01*
X0059702Y0089178D01*
X0059628Y0089187D01*
X0059554Y0089200D01*
X0059481Y0089216D01*
X0059408Y0089237D01*
X0059338Y0089261D01*
X0059268Y0089289D01*
X0059200Y0089321D01*
X0059134Y0089356D01*
X0059070Y0089395D01*
X0059007Y0089437D01*
X0058948Y0089482D01*
X0058890Y0089530D01*
X0058836Y0089581D01*
X0058784Y0089635D01*
X0058735Y0089692D01*
X0058689Y0089751D01*
X0058646Y0089813D01*
X0058606Y0089877D01*
X0058570Y0089942D01*
X0058538Y0090010D01*
X0058509Y0090079D01*
X0058484Y0090150D01*
X0058462Y0090221D01*
X0058445Y0090294D01*
X0058431Y0090368D01*
X0058421Y0090442D01*
X0058415Y0090517D01*
X0058413Y0090592D01*
D118*
X0097431Y0033719D02*
X0097433Y0033763D01*
X0097439Y0033807D01*
X0097449Y0033850D01*
X0097462Y0033892D01*
X0097479Y0033933D01*
X0097500Y0033972D01*
X0097524Y0034009D01*
X0097551Y0034044D01*
X0097581Y0034076D01*
X0097614Y0034106D01*
X0097650Y0034132D01*
X0097687Y0034156D01*
X0097727Y0034175D01*
X0097768Y0034192D01*
X0097811Y0034204D01*
X0097854Y0034213D01*
X0097898Y0034218D01*
X0097942Y0034219D01*
X0097986Y0034216D01*
X0098030Y0034209D01*
X0098073Y0034198D01*
X0098115Y0034184D01*
X0098155Y0034166D01*
X0098194Y0034144D01*
X0098230Y0034120D01*
X0098264Y0034092D01*
X0098296Y0034061D01*
X0098325Y0034027D01*
X0098351Y0033991D01*
X0098373Y0033953D01*
X0098392Y0033913D01*
X0098407Y0033871D01*
X0098419Y0033829D01*
X0098427Y0033785D01*
X0098431Y0033741D01*
X0098431Y0033697D01*
X0098427Y0033653D01*
X0098419Y0033609D01*
X0098407Y0033567D01*
X0098392Y0033525D01*
X0098373Y0033485D01*
X0098351Y0033447D01*
X0098325Y0033411D01*
X0098296Y0033377D01*
X0098264Y0033346D01*
X0098230Y0033318D01*
X0098194Y0033294D01*
X0098155Y0033272D01*
X0098115Y0033254D01*
X0098073Y0033240D01*
X0098030Y0033229D01*
X0097986Y0033222D01*
X0097942Y0033219D01*
X0097898Y0033220D01*
X0097854Y0033225D01*
X0097811Y0033234D01*
X0097768Y0033246D01*
X0097727Y0033263D01*
X0097687Y0033282D01*
X0097650Y0033306D01*
X0097614Y0033332D01*
X0097581Y0033362D01*
X0097551Y0033394D01*
X0097524Y0033429D01*
X0097500Y0033466D01*
X0097479Y0033505D01*
X0097462Y0033546D01*
X0097449Y0033588D01*
X0097439Y0033631D01*
X0097433Y0033675D01*
X0097431Y0033719D01*
D119*
X0110732Y0012755D02*
X0110734Y0012788D01*
X0110740Y0012820D01*
X0110749Y0012851D01*
X0110762Y0012881D01*
X0110779Y0012909D01*
X0110799Y0012935D01*
X0110822Y0012959D01*
X0110847Y0012979D01*
X0110875Y0012997D01*
X0110904Y0013011D01*
X0110935Y0013021D01*
X0110967Y0013028D01*
X0111000Y0013031D01*
X0111033Y0013030D01*
X0111065Y0013025D01*
X0111096Y0013016D01*
X0111127Y0013004D01*
X0111155Y0012988D01*
X0111182Y0012969D01*
X0111206Y0012947D01*
X0111227Y0012922D01*
X0111246Y0012895D01*
X0111261Y0012866D01*
X0111272Y0012836D01*
X0111280Y0012804D01*
X0111284Y0012771D01*
X0111284Y0012739D01*
X0111280Y0012706D01*
X0111272Y0012674D01*
X0111261Y0012644D01*
X0111246Y0012615D01*
X0111227Y0012588D01*
X0111206Y0012563D01*
X0111182Y0012541D01*
X0111155Y0012522D01*
X0111127Y0012506D01*
X0111096Y0012494D01*
X0111065Y0012485D01*
X0111033Y0012480D01*
X0111000Y0012479D01*
X0110967Y0012482D01*
X0110935Y0012489D01*
X0110904Y0012499D01*
X0110875Y0012513D01*
X0110847Y0012531D01*
X0110822Y0012551D01*
X0110799Y0012575D01*
X0110779Y0012601D01*
X0110762Y0012629D01*
X0110749Y0012659D01*
X0110740Y0012690D01*
X0110734Y0012722D01*
X0110732Y0012755D01*
D120*
X0102661Y0014409D02*
X0101087Y0014409D01*
X0094000Y0021102D02*
X0094000Y0022676D01*
X0086398Y0023726D02*
X0086398Y0028057D01*
X0084824Y0029631D01*
X0078524Y0029631D01*
X0076950Y0028057D01*
X0076950Y0023726D01*
X0076950Y0015852D02*
X0076950Y0009946D01*
X0086398Y0009946D01*
X0086398Y0015852D01*
X0101087Y0029369D02*
X0102661Y0029369D01*
X0109748Y0022676D02*
X0109748Y0021102D01*
X0079874Y0037298D02*
X0079874Y0040680D01*
X0075331Y0035798D02*
X0073217Y0035798D01*
X0068674Y0037298D02*
X0068674Y0040680D01*
D121*
X0094691Y0084432D02*
X0110046Y0084432D01*
X0110046Y0099688D02*
X0094691Y0099688D01*
D122*
X0048417Y0093172D03*
D123*
X0141866Y0019789D03*
M02*
