G75*
%MOIN*%
%OFA0B0*%
%FSLAX25Y25*%
%IPPOS*%
%LPD*%
%AMOC8*
5,1,8,0,0,1.08239X$1,22.5*
%
%ADD10C,0.00000*%
%ADD11C,0.00600*%
D10*
X0001600Y0001600D02*
X0001600Y0119710D01*
X0159080Y0119710D01*
X0159080Y0001600D01*
X0001600Y0001600D01*
X0005537Y0111836D02*
X0005539Y0111961D01*
X0005545Y0112086D01*
X0005555Y0112210D01*
X0005569Y0112334D01*
X0005586Y0112458D01*
X0005608Y0112581D01*
X0005634Y0112703D01*
X0005663Y0112825D01*
X0005696Y0112945D01*
X0005734Y0113064D01*
X0005774Y0113183D01*
X0005819Y0113299D01*
X0005867Y0113414D01*
X0005919Y0113528D01*
X0005975Y0113640D01*
X0006034Y0113750D01*
X0006096Y0113858D01*
X0006162Y0113965D01*
X0006231Y0114069D01*
X0006304Y0114170D01*
X0006379Y0114270D01*
X0006458Y0114367D01*
X0006540Y0114461D01*
X0006625Y0114553D01*
X0006712Y0114642D01*
X0006803Y0114728D01*
X0006896Y0114811D01*
X0006992Y0114892D01*
X0007090Y0114969D01*
X0007190Y0115043D01*
X0007293Y0115114D01*
X0007398Y0115181D01*
X0007506Y0115246D01*
X0007615Y0115306D01*
X0007726Y0115364D01*
X0007839Y0115417D01*
X0007953Y0115467D01*
X0008069Y0115514D01*
X0008186Y0115556D01*
X0008305Y0115595D01*
X0008425Y0115631D01*
X0008546Y0115662D01*
X0008668Y0115690D01*
X0008790Y0115713D01*
X0008914Y0115733D01*
X0009038Y0115749D01*
X0009162Y0115761D01*
X0009287Y0115769D01*
X0009412Y0115773D01*
X0009536Y0115773D01*
X0009661Y0115769D01*
X0009786Y0115761D01*
X0009910Y0115749D01*
X0010034Y0115733D01*
X0010158Y0115713D01*
X0010280Y0115690D01*
X0010402Y0115662D01*
X0010523Y0115631D01*
X0010643Y0115595D01*
X0010762Y0115556D01*
X0010879Y0115514D01*
X0010995Y0115467D01*
X0011109Y0115417D01*
X0011222Y0115364D01*
X0011333Y0115306D01*
X0011443Y0115246D01*
X0011550Y0115181D01*
X0011655Y0115114D01*
X0011758Y0115043D01*
X0011858Y0114969D01*
X0011956Y0114892D01*
X0012052Y0114811D01*
X0012145Y0114728D01*
X0012236Y0114642D01*
X0012323Y0114553D01*
X0012408Y0114461D01*
X0012490Y0114367D01*
X0012569Y0114270D01*
X0012644Y0114170D01*
X0012717Y0114069D01*
X0012786Y0113965D01*
X0012852Y0113858D01*
X0012914Y0113750D01*
X0012973Y0113640D01*
X0013029Y0113528D01*
X0013081Y0113414D01*
X0013129Y0113299D01*
X0013174Y0113183D01*
X0013214Y0113064D01*
X0013252Y0112945D01*
X0013285Y0112825D01*
X0013314Y0112703D01*
X0013340Y0112581D01*
X0013362Y0112458D01*
X0013379Y0112334D01*
X0013393Y0112210D01*
X0013403Y0112086D01*
X0013409Y0111961D01*
X0013411Y0111836D01*
X0013409Y0111711D01*
X0013403Y0111586D01*
X0013393Y0111462D01*
X0013379Y0111338D01*
X0013362Y0111214D01*
X0013340Y0111091D01*
X0013314Y0110969D01*
X0013285Y0110847D01*
X0013252Y0110727D01*
X0013214Y0110608D01*
X0013174Y0110489D01*
X0013129Y0110373D01*
X0013081Y0110258D01*
X0013029Y0110144D01*
X0012973Y0110032D01*
X0012914Y0109922D01*
X0012852Y0109814D01*
X0012786Y0109707D01*
X0012717Y0109603D01*
X0012644Y0109502D01*
X0012569Y0109402D01*
X0012490Y0109305D01*
X0012408Y0109211D01*
X0012323Y0109119D01*
X0012236Y0109030D01*
X0012145Y0108944D01*
X0012052Y0108861D01*
X0011956Y0108780D01*
X0011858Y0108703D01*
X0011758Y0108629D01*
X0011655Y0108558D01*
X0011550Y0108491D01*
X0011442Y0108426D01*
X0011333Y0108366D01*
X0011222Y0108308D01*
X0011109Y0108255D01*
X0010995Y0108205D01*
X0010879Y0108158D01*
X0010762Y0108116D01*
X0010643Y0108077D01*
X0010523Y0108041D01*
X0010402Y0108010D01*
X0010280Y0107982D01*
X0010158Y0107959D01*
X0010034Y0107939D01*
X0009910Y0107923D01*
X0009786Y0107911D01*
X0009661Y0107903D01*
X0009536Y0107899D01*
X0009412Y0107899D01*
X0009287Y0107903D01*
X0009162Y0107911D01*
X0009038Y0107923D01*
X0008914Y0107939D01*
X0008790Y0107959D01*
X0008668Y0107982D01*
X0008546Y0108010D01*
X0008425Y0108041D01*
X0008305Y0108077D01*
X0008186Y0108116D01*
X0008069Y0108158D01*
X0007953Y0108205D01*
X0007839Y0108255D01*
X0007726Y0108308D01*
X0007615Y0108366D01*
X0007505Y0108426D01*
X0007398Y0108491D01*
X0007293Y0108558D01*
X0007190Y0108629D01*
X0007090Y0108703D01*
X0006992Y0108780D01*
X0006896Y0108861D01*
X0006803Y0108944D01*
X0006712Y0109030D01*
X0006625Y0109119D01*
X0006540Y0109211D01*
X0006458Y0109305D01*
X0006379Y0109402D01*
X0006304Y0109502D01*
X0006231Y0109603D01*
X0006162Y0109707D01*
X0006096Y0109814D01*
X0006034Y0109922D01*
X0005975Y0110032D01*
X0005919Y0110144D01*
X0005867Y0110258D01*
X0005819Y0110373D01*
X0005774Y0110489D01*
X0005734Y0110608D01*
X0005696Y0110727D01*
X0005663Y0110847D01*
X0005634Y0110969D01*
X0005608Y0111091D01*
X0005586Y0111214D01*
X0005569Y0111338D01*
X0005555Y0111462D01*
X0005545Y0111586D01*
X0005539Y0111711D01*
X0005537Y0111836D01*
X0147269Y0009474D02*
X0147271Y0009599D01*
X0147277Y0009724D01*
X0147287Y0009848D01*
X0147301Y0009972D01*
X0147318Y0010096D01*
X0147340Y0010219D01*
X0147366Y0010341D01*
X0147395Y0010463D01*
X0147428Y0010583D01*
X0147466Y0010702D01*
X0147506Y0010821D01*
X0147551Y0010937D01*
X0147599Y0011052D01*
X0147651Y0011166D01*
X0147707Y0011278D01*
X0147766Y0011388D01*
X0147828Y0011496D01*
X0147894Y0011603D01*
X0147963Y0011707D01*
X0148036Y0011808D01*
X0148111Y0011908D01*
X0148190Y0012005D01*
X0148272Y0012099D01*
X0148357Y0012191D01*
X0148444Y0012280D01*
X0148535Y0012366D01*
X0148628Y0012449D01*
X0148724Y0012530D01*
X0148822Y0012607D01*
X0148922Y0012681D01*
X0149025Y0012752D01*
X0149130Y0012819D01*
X0149238Y0012884D01*
X0149347Y0012944D01*
X0149458Y0013002D01*
X0149571Y0013055D01*
X0149685Y0013105D01*
X0149801Y0013152D01*
X0149918Y0013194D01*
X0150037Y0013233D01*
X0150157Y0013269D01*
X0150278Y0013300D01*
X0150400Y0013328D01*
X0150522Y0013351D01*
X0150646Y0013371D01*
X0150770Y0013387D01*
X0150894Y0013399D01*
X0151019Y0013407D01*
X0151144Y0013411D01*
X0151268Y0013411D01*
X0151393Y0013407D01*
X0151518Y0013399D01*
X0151642Y0013387D01*
X0151766Y0013371D01*
X0151890Y0013351D01*
X0152012Y0013328D01*
X0152134Y0013300D01*
X0152255Y0013269D01*
X0152375Y0013233D01*
X0152494Y0013194D01*
X0152611Y0013152D01*
X0152727Y0013105D01*
X0152841Y0013055D01*
X0152954Y0013002D01*
X0153065Y0012944D01*
X0153175Y0012884D01*
X0153282Y0012819D01*
X0153387Y0012752D01*
X0153490Y0012681D01*
X0153590Y0012607D01*
X0153688Y0012530D01*
X0153784Y0012449D01*
X0153877Y0012366D01*
X0153968Y0012280D01*
X0154055Y0012191D01*
X0154140Y0012099D01*
X0154222Y0012005D01*
X0154301Y0011908D01*
X0154376Y0011808D01*
X0154449Y0011707D01*
X0154518Y0011603D01*
X0154584Y0011496D01*
X0154646Y0011388D01*
X0154705Y0011278D01*
X0154761Y0011166D01*
X0154813Y0011052D01*
X0154861Y0010937D01*
X0154906Y0010821D01*
X0154946Y0010702D01*
X0154984Y0010583D01*
X0155017Y0010463D01*
X0155046Y0010341D01*
X0155072Y0010219D01*
X0155094Y0010096D01*
X0155111Y0009972D01*
X0155125Y0009848D01*
X0155135Y0009724D01*
X0155141Y0009599D01*
X0155143Y0009474D01*
X0155141Y0009349D01*
X0155135Y0009224D01*
X0155125Y0009100D01*
X0155111Y0008976D01*
X0155094Y0008852D01*
X0155072Y0008729D01*
X0155046Y0008607D01*
X0155017Y0008485D01*
X0154984Y0008365D01*
X0154946Y0008246D01*
X0154906Y0008127D01*
X0154861Y0008011D01*
X0154813Y0007896D01*
X0154761Y0007782D01*
X0154705Y0007670D01*
X0154646Y0007560D01*
X0154584Y0007452D01*
X0154518Y0007345D01*
X0154449Y0007241D01*
X0154376Y0007140D01*
X0154301Y0007040D01*
X0154222Y0006943D01*
X0154140Y0006849D01*
X0154055Y0006757D01*
X0153968Y0006668D01*
X0153877Y0006582D01*
X0153784Y0006499D01*
X0153688Y0006418D01*
X0153590Y0006341D01*
X0153490Y0006267D01*
X0153387Y0006196D01*
X0153282Y0006129D01*
X0153174Y0006064D01*
X0153065Y0006004D01*
X0152954Y0005946D01*
X0152841Y0005893D01*
X0152727Y0005843D01*
X0152611Y0005796D01*
X0152494Y0005754D01*
X0152375Y0005715D01*
X0152255Y0005679D01*
X0152134Y0005648D01*
X0152012Y0005620D01*
X0151890Y0005597D01*
X0151766Y0005577D01*
X0151642Y0005561D01*
X0151518Y0005549D01*
X0151393Y0005541D01*
X0151268Y0005537D01*
X0151144Y0005537D01*
X0151019Y0005541D01*
X0150894Y0005549D01*
X0150770Y0005561D01*
X0150646Y0005577D01*
X0150522Y0005597D01*
X0150400Y0005620D01*
X0150278Y0005648D01*
X0150157Y0005679D01*
X0150037Y0005715D01*
X0149918Y0005754D01*
X0149801Y0005796D01*
X0149685Y0005843D01*
X0149571Y0005893D01*
X0149458Y0005946D01*
X0149347Y0006004D01*
X0149237Y0006064D01*
X0149130Y0006129D01*
X0149025Y0006196D01*
X0148922Y0006267D01*
X0148822Y0006341D01*
X0148724Y0006418D01*
X0148628Y0006499D01*
X0148535Y0006582D01*
X0148444Y0006668D01*
X0148357Y0006757D01*
X0148272Y0006849D01*
X0148190Y0006943D01*
X0148111Y0007040D01*
X0148036Y0007140D01*
X0147963Y0007241D01*
X0147894Y0007345D01*
X0147828Y0007452D01*
X0147766Y0007560D01*
X0147707Y0007670D01*
X0147651Y0007782D01*
X0147599Y0007896D01*
X0147551Y0008011D01*
X0147506Y0008127D01*
X0147466Y0008246D01*
X0147428Y0008365D01*
X0147395Y0008485D01*
X0147366Y0008607D01*
X0147340Y0008729D01*
X0147318Y0008852D01*
X0147301Y0008976D01*
X0147287Y0009100D01*
X0147277Y0009224D01*
X0147271Y0009349D01*
X0147269Y0009474D01*
D11*
X0132037Y0010407D02*
X0132037Y0004407D01*
X0132035Y0004347D01*
X0132030Y0004286D01*
X0132021Y0004227D01*
X0132008Y0004168D01*
X0131992Y0004109D01*
X0131972Y0004052D01*
X0131949Y0003997D01*
X0131922Y0003942D01*
X0131893Y0003890D01*
X0131860Y0003839D01*
X0131824Y0003790D01*
X0131786Y0003744D01*
X0131744Y0003700D01*
X0131700Y0003658D01*
X0131654Y0003620D01*
X0131605Y0003584D01*
X0131554Y0003551D01*
X0131502Y0003522D01*
X0131447Y0003495D01*
X0131392Y0003472D01*
X0131335Y0003452D01*
X0131276Y0003436D01*
X0131217Y0003423D01*
X0131158Y0003414D01*
X0131097Y0003409D01*
X0131037Y0003407D01*
X0120037Y0003407D01*
X0119977Y0003409D01*
X0119916Y0003414D01*
X0119857Y0003423D01*
X0119798Y0003436D01*
X0119739Y0003452D01*
X0119682Y0003472D01*
X0119627Y0003495D01*
X0119572Y0003522D01*
X0119520Y0003551D01*
X0119469Y0003584D01*
X0119420Y0003620D01*
X0119374Y0003658D01*
X0119330Y0003700D01*
X0119288Y0003744D01*
X0119250Y0003790D01*
X0119214Y0003839D01*
X0119181Y0003890D01*
X0119152Y0003942D01*
X0119125Y0003997D01*
X0119102Y0004052D01*
X0119082Y0004109D01*
X0119066Y0004168D01*
X0119053Y0004227D01*
X0119044Y0004286D01*
X0119039Y0004347D01*
X0119037Y0004407D01*
X0119037Y0010407D01*
X0119039Y0010467D01*
X0119044Y0010528D01*
X0119053Y0010587D01*
X0119066Y0010646D01*
X0119082Y0010705D01*
X0119102Y0010762D01*
X0119125Y0010817D01*
X0119152Y0010872D01*
X0119181Y0010924D01*
X0119214Y0010975D01*
X0119250Y0011024D01*
X0119288Y0011070D01*
X0119330Y0011114D01*
X0119374Y0011156D01*
X0119420Y0011194D01*
X0119469Y0011230D01*
X0119520Y0011263D01*
X0119572Y0011292D01*
X0119627Y0011319D01*
X0119682Y0011342D01*
X0119739Y0011362D01*
X0119798Y0011378D01*
X0119857Y0011391D01*
X0119916Y0011400D01*
X0119977Y0011405D01*
X0120037Y0011407D01*
X0131037Y0011407D01*
X0131097Y0011405D01*
X0131158Y0011400D01*
X0131217Y0011391D01*
X0131276Y0011378D01*
X0131335Y0011362D01*
X0131392Y0011342D01*
X0131447Y0011319D01*
X0131502Y0011292D01*
X0131554Y0011263D01*
X0131605Y0011230D01*
X0131654Y0011194D01*
X0131700Y0011156D01*
X0131744Y0011114D01*
X0131786Y0011070D01*
X0131824Y0011024D01*
X0131860Y0010975D01*
X0131893Y0010924D01*
X0131922Y0010872D01*
X0131949Y0010817D01*
X0131972Y0010762D01*
X0131992Y0010705D01*
X0132008Y0010646D01*
X0132021Y0010587D01*
X0132030Y0010528D01*
X0132035Y0010467D01*
X0132037Y0010407D01*
M02*
