%
M48
M72
T01C0.01200
T02C0.04000
T03C0.07874
%
T01
X7874Y7489
X7874Y13489
X36674Y11089
X41474Y15889
X53474Y15889
X44674Y30889
X37474Y30889
X35024Y41739
X41974Y52189
X56974Y52189
X58474Y42289
X61774Y38989
X85274Y49789
X94274Y49789
X104874Y49789
X105574Y42289
X106074Y36589
X96474Y34789
X116974Y29789
X116974Y19789
X134374Y7289
X89274Y12289
X73874Y13789
X94474Y60389
X106974Y60389
X116974Y59789
X106974Y72989
X96974Y74789
X89474Y74789
X80274Y61789
X45474Y76689
X36974Y67289
X28174Y76689
X28074Y84589
X28074Y92889
X43674Y93589
X39974Y106689
X31574Y106689
X25074Y109189
X20374Y104889
X6674Y102289
X31074Y115189
X50274Y105589
X57474Y112489
X68674Y109389
X79474Y114789
X89474Y114789
X99474Y114789
X94374Y103278
X83874Y98989
X88674Y95389
X82674Y90589
X65274Y95389
X112174Y101478
X118674Y105778
X116974Y114789
X118674Y82978
T02
X17274Y82589
X17274Y92589
X17274Y72589
X17274Y62589
X17274Y52589
X17274Y42589
X17274Y32589
X17274Y22589
T03
X9474Y111836
X151206Y9474
M30
