%
M48
M72
T01C0.01200
T02C0.01969
T03C0.02362
T04C0.03600
T05C0.04000
%
T01
X43220Y28800
X60720Y23800
X116220Y31300
X119020Y61300
X99179Y79958
X102620Y86800
X96365Y94243
X96365Y105500
X91320Y107300
X91440Y113239
X97068Y112535
X102697Y110424
X106620Y111000
X99179Y121681
X92847Y124495
X83701Y123088
X80887Y125199
X83701Y132234
X94958Y139270
X100120Y139500
X109420Y145000
X112720Y134200
X125720Y121300
X142792Y123972
X148520Y122900
X161420Y113600
X165720Y121300
X173220Y126300
X178220Y123800
X193220Y126300
X181720Y146300
X165720Y138800
X145020Y136900
X139120Y137400
X134220Y137600
X131820Y152100
X136020Y152200
X123220Y156300
X145720Y173800
X149720Y185300
X162220Y186300
X166220Y184600
X168120Y187400
X175720Y188800
X188220Y178800
X185720Y173300
X200720Y181300
X220287Y180237
X232787Y182737
X242287Y174637
X247087Y173437
X254287Y174637
X262687Y174637
X273487Y174637
X299027Y180237
X311527Y182737
X321027Y174637
X325827Y173437
X333027Y174637
X341427Y174637
X352227Y174637
X351527Y200237
X337827Y205837
X314527Y199337
X311427Y205837
X299027Y201300
X272787Y200237
X259087Y205837
X235787Y199337
X232687Y205837
X220287Y201300
X201220Y209300
X201220Y212300
X198220Y212300
X198220Y209300
X185720Y215800
X183720Y227300
X198720Y235300
X201720Y235300
X201720Y238300
X198720Y238300
X165920Y225900
X163220Y228800
X160420Y226200
X172820Y207400
X167520Y205300
X136420Y196300
X120520Y193800
X120720Y218800
X112520Y233600
X95720Y226300
X85720Y233800
X92420Y243600
X94220Y250700
X85720Y218800
X77369Y214549
X77420Y178900
X72520Y175400
X88020Y167900
X97520Y158200
X93220Y146300
X92847Y146305
X75420Y149900
X80698Y98168
X84298Y95650
X80601Y93318
X76220Y92300
X75720Y78600
X68320Y78800
X51527Y71819
X115720Y83800
X138577Y108331
X145720Y101300
X155520Y100400
X155620Y95400
X151945Y90904
X154459Y81290
X148220Y66300
X148220Y61300
X168126Y40774
X168126Y33738
X174458Y45698
X230287Y42737
X230287Y57737
X237787Y65237
X230287Y75237
X230287Y90237
X237787Y100237
X248287Y89437
X250287Y80237
X260287Y92737
X263887Y105037
X275287Y115237
X277787Y130237
X299427Y142937
X316527Y144637
X323427Y137437
X309027Y130237
X309027Y115237
X316527Y100237
X309027Y90237
X309027Y75237
X316527Y65237
X309027Y57737
X309027Y42737
X329027Y37737
X331527Y50237
X346527Y30237
X329027Y80237
X327027Y89437
X339027Y92737
X342627Y105037
X329427Y112237
X354027Y115237
X356527Y130237
X309027Y159037
X299027Y165237
X244687Y137437
X237787Y144637
X230287Y130237
X230287Y115237
X250687Y112237
X275287Y87737
X252787Y50237
X250287Y37737
X267787Y30237
X195720Y100300
X220687Y142937
X230287Y159037
X220287Y165237
X164720Y170300
X153220Y161300
X134620Y239800
X354027Y87737
T02
X290759Y88300
X290759Y92300
X290759Y96300
X290759Y100300
X290759Y104300
X290759Y108300
X290759Y112300
X290759Y116300
X290759Y120300
X290759Y124300
X290759Y128300
X290759Y132300
X290759Y136300
X290759Y140300
X290759Y144300
X290759Y148300
X290759Y152300
X290759Y156300
X290759Y160300
X290759Y164300
X290759Y168300
X290759Y172300
X290759Y176300
X290759Y180300
X290759Y184300
X290759Y188300
X290759Y192300
X290759Y196300
X290759Y200300
X290759Y204300
X290759Y208300
X290759Y212300
X290759Y216300
X290759Y220300
X290759Y224300
X290759Y228300
X290759Y232300
X290759Y236300
X290759Y240300
X210759Y240300
X210759Y236300
X210759Y232300
X210759Y228300
X210759Y224300
X210759Y220300
X210759Y216300
X210759Y212300
X210759Y208300
X210759Y204300
X210759Y200300
X210759Y196300
X210759Y192300
X210759Y188300
X210759Y184300
X210759Y180300
X210759Y176300
X210759Y172300
X210759Y168300
X210759Y164300
X210759Y160300
X210759Y156300
X210759Y152300
X210759Y148300
X210759Y144300
X210759Y140300
X210759Y136300
X210759Y132300
X210759Y128300
X210759Y124300
X210759Y120300
X210759Y116300
X210759Y112300
X210759Y108300
X210759Y104300
X210759Y100300
X210759Y96300
X210759Y92300
X210759Y88300
X210759Y84300
X210759Y80300
X210759Y76300
X210759Y72300
X210759Y68300
X210759Y64300
X210759Y60300
X210759Y56300
X210759Y52300
X210759Y48300
X210759Y44300
X210759Y40300
X210759Y36300
X210759Y32300
X210759Y28300
X210759Y24300
X210759Y20300
X210759Y16300
X210759Y12300
X210759Y8300
X290759Y8300
X290759Y12300
X290759Y16300
X290759Y20300
X290759Y24300
X290759Y28300
X290759Y32300
X290759Y36300
X290759Y40300
X290759Y44300
X290759Y48300
X290759Y52300
X290759Y56300
X290759Y60300
X290759Y64300
X290759Y68300
X290759Y72300
X290759Y76300
X290759Y80300
X290759Y84300
X72520Y229000
X66720Y222600
T03
X95720Y196300
X65720Y176300
X60720Y194300
X50720Y93800
X88220Y63800
X88220Y58800
X93220Y58800
X93220Y63800
X88220Y53800
X94720Y42700
X94720Y37800
X85720Y11300
X80720Y11300
X75720Y11300
X70720Y11300
X132120Y49800
X141920Y61400
X180720Y88100
X185720Y86300
X190720Y86300
X190720Y81300
X185720Y81300
X190720Y91300
X197820Y123700
T04
X197120Y130800
X197120Y140800
X197120Y150800
X197120Y160800
X187120Y160800
X187120Y150800
X187120Y140800
X187120Y130800
X131120Y23300
X121120Y23300
X117020Y250400
X127020Y250400
T05
X141420Y250600
X129420Y215200
X100720Y166300
X35720Y166300
X35720Y156300
X35720Y146300
X25720Y146300
X25720Y156300
X25720Y166300
X25720Y176300
X35720Y176300
X35720Y186300
X35720Y196300
X25720Y196300
X25720Y186300
X25720Y136300
X35720Y136300
X35720Y126300
X35720Y116300
X25720Y116300
X25720Y126300
X25720Y106300
X35720Y106300
X35720Y96300
X35720Y86300
X25720Y86300
X25720Y96300
X114020Y53900
X124020Y53900
X190720Y68900
X220917Y18111
X230917Y18111
X240917Y18111
X250917Y18111
X260917Y18111
X270917Y18111
X280917Y18111
X299657Y18111
X309657Y18111
X319657Y18111
X329657Y18111
X339657Y18111
X349657Y18111
X359657Y18111
M30
