G75*
%MOIN*%
%OFA0B0*%
%FSLAX25Y25*%
%IPPOS*%
%LPD*%
%AMOC8*
5,1,8,0,0,1.08239X$1,22.5*
%
%ADD10C,0.00000*%
%ADD11C,0.11811*%
%ADD12R,0.04331X0.03937*%
%ADD13R,0.07677X0.05906*%
%ADD14R,0.03150X0.03150*%
%ADD15R,0.02600X0.01200*%
%ADD16R,0.03900X0.12200*%
%ADD17R,0.02756X0.03543*%
%ADD18R,0.05000X0.02500*%
%ADD19R,0.10000X0.05000*%
%ADD20R,0.03937X0.04331*%
%ADD21R,0.08700X0.02400*%
%ADD22R,0.01969X0.01378*%
%ADD23R,0.01100X0.06600*%
%ADD24R,0.04331X0.07087*%
%ADD25C,0.00030*%
%ADD26R,0.00984X0.02657*%
%ADD27R,0.02657X0.00984*%
%ADD28R,0.02756X0.05512*%
%ADD29OC8,0.06000*%
%ADD30C,0.05000*%
%ADD31R,0.03543X0.01772*%
%ADD32R,0.06800X0.04330*%
%ADD33R,0.06000X0.06000*%
%ADD34R,0.03937X0.05512*%
%ADD35C,0.03000*%
%ADD36R,0.09500X0.20000*%
%ADD37C,0.02362*%
%ADD38C,0.01380*%
%ADD39R,0.02362X0.01181*%
%ADD40R,0.09646X0.06693*%
%ADD41R,0.01378X0.02992*%
%ADD42R,0.02953X0.06693*%
%ADD43R,0.05315X0.03543*%
%ADD44R,0.06299X0.05118*%
%ADD45R,0.13000X0.04000*%
%ADD46R,0.03100X0.03500*%
%ADD47R,0.03500X0.03100*%
%ADD48C,0.05906*%
D10*
X0005163Y0012652D02*
X0005163Y0209502D01*
X0327998Y0209502D01*
X0327998Y0012652D01*
X0005163Y0012652D01*
X0083903Y0055959D02*
X0083905Y0056112D01*
X0083911Y0056266D01*
X0083921Y0056419D01*
X0083935Y0056571D01*
X0083953Y0056724D01*
X0083975Y0056875D01*
X0084000Y0057026D01*
X0084030Y0057177D01*
X0084064Y0057327D01*
X0084101Y0057475D01*
X0084142Y0057623D01*
X0084187Y0057769D01*
X0084236Y0057915D01*
X0084289Y0058059D01*
X0084345Y0058201D01*
X0084405Y0058342D01*
X0084469Y0058482D01*
X0084536Y0058620D01*
X0084607Y0058756D01*
X0084682Y0058890D01*
X0084759Y0059022D01*
X0084841Y0059152D01*
X0084925Y0059280D01*
X0085013Y0059406D01*
X0085104Y0059529D01*
X0085198Y0059650D01*
X0085296Y0059768D01*
X0085396Y0059884D01*
X0085500Y0059997D01*
X0085606Y0060108D01*
X0085715Y0060216D01*
X0085827Y0060321D01*
X0085941Y0060422D01*
X0086059Y0060521D01*
X0086178Y0060617D01*
X0086300Y0060710D01*
X0086425Y0060799D01*
X0086552Y0060886D01*
X0086681Y0060968D01*
X0086812Y0061048D01*
X0086945Y0061124D01*
X0087080Y0061197D01*
X0087217Y0061266D01*
X0087356Y0061331D01*
X0087496Y0061393D01*
X0087638Y0061451D01*
X0087781Y0061506D01*
X0087926Y0061557D01*
X0088072Y0061604D01*
X0088219Y0061647D01*
X0088367Y0061686D01*
X0088516Y0061722D01*
X0088666Y0061753D01*
X0088817Y0061781D01*
X0088968Y0061805D01*
X0089121Y0061825D01*
X0089273Y0061841D01*
X0089426Y0061853D01*
X0089579Y0061861D01*
X0089732Y0061865D01*
X0089886Y0061865D01*
X0090039Y0061861D01*
X0090192Y0061853D01*
X0090345Y0061841D01*
X0090497Y0061825D01*
X0090650Y0061805D01*
X0090801Y0061781D01*
X0090952Y0061753D01*
X0091102Y0061722D01*
X0091251Y0061686D01*
X0091399Y0061647D01*
X0091546Y0061604D01*
X0091692Y0061557D01*
X0091837Y0061506D01*
X0091980Y0061451D01*
X0092122Y0061393D01*
X0092262Y0061331D01*
X0092401Y0061266D01*
X0092538Y0061197D01*
X0092673Y0061124D01*
X0092806Y0061048D01*
X0092937Y0060968D01*
X0093066Y0060886D01*
X0093193Y0060799D01*
X0093318Y0060710D01*
X0093440Y0060617D01*
X0093559Y0060521D01*
X0093677Y0060422D01*
X0093791Y0060321D01*
X0093903Y0060216D01*
X0094012Y0060108D01*
X0094118Y0059997D01*
X0094222Y0059884D01*
X0094322Y0059768D01*
X0094420Y0059650D01*
X0094514Y0059529D01*
X0094605Y0059406D01*
X0094693Y0059280D01*
X0094777Y0059152D01*
X0094859Y0059022D01*
X0094936Y0058890D01*
X0095011Y0058756D01*
X0095082Y0058620D01*
X0095149Y0058482D01*
X0095213Y0058342D01*
X0095273Y0058201D01*
X0095329Y0058059D01*
X0095382Y0057915D01*
X0095431Y0057769D01*
X0095476Y0057623D01*
X0095517Y0057475D01*
X0095554Y0057327D01*
X0095588Y0057177D01*
X0095618Y0057026D01*
X0095643Y0056875D01*
X0095665Y0056724D01*
X0095683Y0056571D01*
X0095697Y0056419D01*
X0095707Y0056266D01*
X0095713Y0056112D01*
X0095715Y0055959D01*
X0095713Y0055806D01*
X0095707Y0055652D01*
X0095697Y0055499D01*
X0095683Y0055347D01*
X0095665Y0055194D01*
X0095643Y0055043D01*
X0095618Y0054892D01*
X0095588Y0054741D01*
X0095554Y0054591D01*
X0095517Y0054443D01*
X0095476Y0054295D01*
X0095431Y0054149D01*
X0095382Y0054003D01*
X0095329Y0053859D01*
X0095273Y0053717D01*
X0095213Y0053576D01*
X0095149Y0053436D01*
X0095082Y0053298D01*
X0095011Y0053162D01*
X0094936Y0053028D01*
X0094859Y0052896D01*
X0094777Y0052766D01*
X0094693Y0052638D01*
X0094605Y0052512D01*
X0094514Y0052389D01*
X0094420Y0052268D01*
X0094322Y0052150D01*
X0094222Y0052034D01*
X0094118Y0051921D01*
X0094012Y0051810D01*
X0093903Y0051702D01*
X0093791Y0051597D01*
X0093677Y0051496D01*
X0093559Y0051397D01*
X0093440Y0051301D01*
X0093318Y0051208D01*
X0093193Y0051119D01*
X0093066Y0051032D01*
X0092937Y0050950D01*
X0092806Y0050870D01*
X0092673Y0050794D01*
X0092538Y0050721D01*
X0092401Y0050652D01*
X0092262Y0050587D01*
X0092122Y0050525D01*
X0091980Y0050467D01*
X0091837Y0050412D01*
X0091692Y0050361D01*
X0091546Y0050314D01*
X0091399Y0050271D01*
X0091251Y0050232D01*
X0091102Y0050196D01*
X0090952Y0050165D01*
X0090801Y0050137D01*
X0090650Y0050113D01*
X0090497Y0050093D01*
X0090345Y0050077D01*
X0090192Y0050065D01*
X0090039Y0050057D01*
X0089886Y0050053D01*
X0089732Y0050053D01*
X0089579Y0050057D01*
X0089426Y0050065D01*
X0089273Y0050077D01*
X0089121Y0050093D01*
X0088968Y0050113D01*
X0088817Y0050137D01*
X0088666Y0050165D01*
X0088516Y0050196D01*
X0088367Y0050232D01*
X0088219Y0050271D01*
X0088072Y0050314D01*
X0087926Y0050361D01*
X0087781Y0050412D01*
X0087638Y0050467D01*
X0087496Y0050525D01*
X0087356Y0050587D01*
X0087217Y0050652D01*
X0087080Y0050721D01*
X0086945Y0050794D01*
X0086812Y0050870D01*
X0086681Y0050950D01*
X0086552Y0051032D01*
X0086425Y0051119D01*
X0086300Y0051208D01*
X0086178Y0051301D01*
X0086059Y0051397D01*
X0085941Y0051496D01*
X0085827Y0051597D01*
X0085715Y0051702D01*
X0085606Y0051810D01*
X0085500Y0051921D01*
X0085396Y0052034D01*
X0085296Y0052150D01*
X0085198Y0052268D01*
X0085104Y0052389D01*
X0085013Y0052512D01*
X0084925Y0052638D01*
X0084841Y0052766D01*
X0084759Y0052896D01*
X0084682Y0053028D01*
X0084607Y0053162D01*
X0084536Y0053298D01*
X0084469Y0053436D01*
X0084405Y0053576D01*
X0084345Y0053717D01*
X0084289Y0053859D01*
X0084236Y0054003D01*
X0084187Y0054149D01*
X0084142Y0054295D01*
X0084101Y0054443D01*
X0084064Y0054591D01*
X0084030Y0054741D01*
X0084000Y0054892D01*
X0083975Y0055043D01*
X0083953Y0055194D01*
X0083935Y0055347D01*
X0083921Y0055499D01*
X0083911Y0055652D01*
X0083905Y0055806D01*
X0083903Y0055959D01*
X0276816Y0138636D02*
X0276818Y0138789D01*
X0276824Y0138943D01*
X0276834Y0139096D01*
X0276848Y0139248D01*
X0276866Y0139401D01*
X0276888Y0139552D01*
X0276913Y0139703D01*
X0276943Y0139854D01*
X0276977Y0140004D01*
X0277014Y0140152D01*
X0277055Y0140300D01*
X0277100Y0140446D01*
X0277149Y0140592D01*
X0277202Y0140736D01*
X0277258Y0140878D01*
X0277318Y0141019D01*
X0277382Y0141159D01*
X0277449Y0141297D01*
X0277520Y0141433D01*
X0277595Y0141567D01*
X0277672Y0141699D01*
X0277754Y0141829D01*
X0277838Y0141957D01*
X0277926Y0142083D01*
X0278017Y0142206D01*
X0278111Y0142327D01*
X0278209Y0142445D01*
X0278309Y0142561D01*
X0278413Y0142674D01*
X0278519Y0142785D01*
X0278628Y0142893D01*
X0278740Y0142998D01*
X0278854Y0143099D01*
X0278972Y0143198D01*
X0279091Y0143294D01*
X0279213Y0143387D01*
X0279338Y0143476D01*
X0279465Y0143563D01*
X0279594Y0143645D01*
X0279725Y0143725D01*
X0279858Y0143801D01*
X0279993Y0143874D01*
X0280130Y0143943D01*
X0280269Y0144008D01*
X0280409Y0144070D01*
X0280551Y0144128D01*
X0280694Y0144183D01*
X0280839Y0144234D01*
X0280985Y0144281D01*
X0281132Y0144324D01*
X0281280Y0144363D01*
X0281429Y0144399D01*
X0281579Y0144430D01*
X0281730Y0144458D01*
X0281881Y0144482D01*
X0282034Y0144502D01*
X0282186Y0144518D01*
X0282339Y0144530D01*
X0282492Y0144538D01*
X0282645Y0144542D01*
X0282799Y0144542D01*
X0282952Y0144538D01*
X0283105Y0144530D01*
X0283258Y0144518D01*
X0283410Y0144502D01*
X0283563Y0144482D01*
X0283714Y0144458D01*
X0283865Y0144430D01*
X0284015Y0144399D01*
X0284164Y0144363D01*
X0284312Y0144324D01*
X0284459Y0144281D01*
X0284605Y0144234D01*
X0284750Y0144183D01*
X0284893Y0144128D01*
X0285035Y0144070D01*
X0285175Y0144008D01*
X0285314Y0143943D01*
X0285451Y0143874D01*
X0285586Y0143801D01*
X0285719Y0143725D01*
X0285850Y0143645D01*
X0285979Y0143563D01*
X0286106Y0143476D01*
X0286231Y0143387D01*
X0286353Y0143294D01*
X0286472Y0143198D01*
X0286590Y0143099D01*
X0286704Y0142998D01*
X0286816Y0142893D01*
X0286925Y0142785D01*
X0287031Y0142674D01*
X0287135Y0142561D01*
X0287235Y0142445D01*
X0287333Y0142327D01*
X0287427Y0142206D01*
X0287518Y0142083D01*
X0287606Y0141957D01*
X0287690Y0141829D01*
X0287772Y0141699D01*
X0287849Y0141567D01*
X0287924Y0141433D01*
X0287995Y0141297D01*
X0288062Y0141159D01*
X0288126Y0141019D01*
X0288186Y0140878D01*
X0288242Y0140736D01*
X0288295Y0140592D01*
X0288344Y0140446D01*
X0288389Y0140300D01*
X0288430Y0140152D01*
X0288467Y0140004D01*
X0288501Y0139854D01*
X0288531Y0139703D01*
X0288556Y0139552D01*
X0288578Y0139401D01*
X0288596Y0139248D01*
X0288610Y0139096D01*
X0288620Y0138943D01*
X0288626Y0138789D01*
X0288628Y0138636D01*
X0288626Y0138483D01*
X0288620Y0138329D01*
X0288610Y0138176D01*
X0288596Y0138024D01*
X0288578Y0137871D01*
X0288556Y0137720D01*
X0288531Y0137569D01*
X0288501Y0137418D01*
X0288467Y0137268D01*
X0288430Y0137120D01*
X0288389Y0136972D01*
X0288344Y0136826D01*
X0288295Y0136680D01*
X0288242Y0136536D01*
X0288186Y0136394D01*
X0288126Y0136253D01*
X0288062Y0136113D01*
X0287995Y0135975D01*
X0287924Y0135839D01*
X0287849Y0135705D01*
X0287772Y0135573D01*
X0287690Y0135443D01*
X0287606Y0135315D01*
X0287518Y0135189D01*
X0287427Y0135066D01*
X0287333Y0134945D01*
X0287235Y0134827D01*
X0287135Y0134711D01*
X0287031Y0134598D01*
X0286925Y0134487D01*
X0286816Y0134379D01*
X0286704Y0134274D01*
X0286590Y0134173D01*
X0286472Y0134074D01*
X0286353Y0133978D01*
X0286231Y0133885D01*
X0286106Y0133796D01*
X0285979Y0133709D01*
X0285850Y0133627D01*
X0285719Y0133547D01*
X0285586Y0133471D01*
X0285451Y0133398D01*
X0285314Y0133329D01*
X0285175Y0133264D01*
X0285035Y0133202D01*
X0284893Y0133144D01*
X0284750Y0133089D01*
X0284605Y0133038D01*
X0284459Y0132991D01*
X0284312Y0132948D01*
X0284164Y0132909D01*
X0284015Y0132873D01*
X0283865Y0132842D01*
X0283714Y0132814D01*
X0283563Y0132790D01*
X0283410Y0132770D01*
X0283258Y0132754D01*
X0283105Y0132742D01*
X0282952Y0132734D01*
X0282799Y0132730D01*
X0282645Y0132730D01*
X0282492Y0132734D01*
X0282339Y0132742D01*
X0282186Y0132754D01*
X0282034Y0132770D01*
X0281881Y0132790D01*
X0281730Y0132814D01*
X0281579Y0132842D01*
X0281429Y0132873D01*
X0281280Y0132909D01*
X0281132Y0132948D01*
X0280985Y0132991D01*
X0280839Y0133038D01*
X0280694Y0133089D01*
X0280551Y0133144D01*
X0280409Y0133202D01*
X0280269Y0133264D01*
X0280130Y0133329D01*
X0279993Y0133398D01*
X0279858Y0133471D01*
X0279725Y0133547D01*
X0279594Y0133627D01*
X0279465Y0133709D01*
X0279338Y0133796D01*
X0279213Y0133885D01*
X0279091Y0133978D01*
X0278972Y0134074D01*
X0278854Y0134173D01*
X0278740Y0134274D01*
X0278628Y0134379D01*
X0278519Y0134487D01*
X0278413Y0134598D01*
X0278309Y0134711D01*
X0278209Y0134827D01*
X0278111Y0134945D01*
X0278017Y0135066D01*
X0277926Y0135189D01*
X0277838Y0135315D01*
X0277754Y0135443D01*
X0277672Y0135573D01*
X0277595Y0135705D01*
X0277520Y0135839D01*
X0277449Y0135975D01*
X0277382Y0136113D01*
X0277318Y0136253D01*
X0277258Y0136394D01*
X0277202Y0136536D01*
X0277149Y0136680D01*
X0277100Y0136826D01*
X0277055Y0136972D01*
X0277014Y0137120D01*
X0276977Y0137268D01*
X0276943Y0137418D01*
X0276913Y0137569D01*
X0276888Y0137720D01*
X0276866Y0137871D01*
X0276848Y0138024D01*
X0276834Y0138176D01*
X0276824Y0138329D01*
X0276818Y0138483D01*
X0276816Y0138636D01*
D11*
X0282722Y0138636D03*
X0089809Y0055959D03*
D12*
X0110331Y0046861D03*
X0110331Y0040169D03*
G36*
X0124942Y0067043D02*
X0121881Y0070104D01*
X0124664Y0072887D01*
X0127725Y0069826D01*
X0124942Y0067043D01*
G37*
G36*
X0120210Y0071776D02*
X0117149Y0074837D01*
X0119932Y0077620D01*
X0122993Y0074559D01*
X0120210Y0071776D01*
G37*
G36*
X0134010Y0077376D02*
X0130949Y0080437D01*
X0133732Y0083220D01*
X0136793Y0080159D01*
X0134010Y0077376D01*
G37*
G36*
X0138742Y0072643D02*
X0135681Y0075704D01*
X0138464Y0078487D01*
X0141525Y0075426D01*
X0138742Y0072643D01*
G37*
G36*
X0074220Y0124620D02*
X0071159Y0121559D01*
X0068376Y0124342D01*
X0071437Y0127403D01*
X0074220Y0124620D01*
G37*
G36*
X0069487Y0119888D02*
X0066426Y0116827D01*
X0063643Y0119610D01*
X0066704Y0122671D01*
X0069487Y0119888D01*
G37*
X0053731Y0133569D03*
X0053731Y0140261D03*
X0033092Y0146352D03*
X0026399Y0146352D03*
X0031185Y0166915D03*
X0037878Y0166915D03*
X0056985Y0166915D03*
X0063678Y0166915D03*
G36*
X0198738Y0148289D02*
X0201799Y0151350D01*
X0204582Y0148567D01*
X0201521Y0145506D01*
X0198738Y0148289D01*
G37*
G36*
X0203470Y0153022D02*
X0206531Y0156083D01*
X0209314Y0153300D01*
X0206253Y0150239D01*
X0203470Y0153022D01*
G37*
X0257985Y0104715D03*
X0264678Y0104715D03*
X0276985Y0111915D03*
X0283678Y0111915D03*
X0296291Y0111531D03*
X0302983Y0111531D03*
X0264878Y0093315D03*
X0258185Y0093315D03*
X0252531Y0094861D03*
X0252531Y0088169D03*
X0246531Y0085861D03*
X0246531Y0079169D03*
X0264185Y0070315D03*
X0270878Y0070315D03*
X0270878Y0028515D03*
X0264185Y0028515D03*
X0295769Y0150220D03*
X0302461Y0150220D03*
X0279601Y0187498D03*
X0279601Y0194191D03*
D13*
G36*
X0140034Y0078958D02*
X0134608Y0084384D01*
X0138784Y0088560D01*
X0144210Y0083134D01*
X0140034Y0078958D01*
G37*
G36*
X0147690Y0071303D02*
X0142264Y0076729D01*
X0146440Y0080905D01*
X0151866Y0075479D01*
X0147690Y0071303D01*
G37*
G36*
X0138384Y0062486D02*
X0132958Y0067912D01*
X0137134Y0072088D01*
X0142560Y0066662D01*
X0138384Y0062486D01*
G37*
G36*
X0130729Y0070142D02*
X0125303Y0075568D01*
X0129479Y0079744D01*
X0134905Y0074318D01*
X0130729Y0070142D01*
G37*
D14*
X0061684Y0065715D03*
X0061684Y0060915D03*
X0055779Y0060915D03*
X0055779Y0065715D03*
X0092084Y0156631D03*
X0091984Y0162331D03*
X0097890Y0162331D03*
X0097990Y0156631D03*
D15*
X0263531Y0085615D03*
X0263531Y0083715D03*
X0263531Y0081715D03*
X0263531Y0079715D03*
X0263531Y0077715D03*
X0263531Y0075815D03*
X0271531Y0075815D03*
X0271531Y0077715D03*
X0271531Y0079715D03*
X0271531Y0081715D03*
X0271531Y0083715D03*
X0271531Y0085615D03*
X0295615Y0117320D03*
X0295615Y0119220D03*
X0295615Y0121220D03*
X0295615Y0123220D03*
X0295615Y0125220D03*
X0295615Y0127120D03*
X0303615Y0127120D03*
X0303615Y0125220D03*
X0303615Y0123220D03*
X0303615Y0121220D03*
X0303615Y0119220D03*
X0303615Y0117320D03*
X0303615Y0157420D03*
X0303615Y0159320D03*
X0303615Y0161320D03*
X0303615Y0163320D03*
X0303615Y0165320D03*
X0303615Y0167220D03*
X0295615Y0167220D03*
X0295615Y0165320D03*
X0295615Y0163320D03*
X0295615Y0161320D03*
X0295615Y0159320D03*
X0295615Y0157420D03*
X0271531Y0043615D03*
X0271531Y0041715D03*
X0271531Y0039715D03*
X0271531Y0037715D03*
X0271531Y0035715D03*
X0271531Y0033815D03*
X0263531Y0033815D03*
X0263531Y0035715D03*
X0263531Y0037715D03*
X0263531Y0039715D03*
X0263531Y0041715D03*
X0263531Y0043615D03*
D16*
X0267531Y0038715D03*
X0267531Y0080715D03*
X0299615Y0122220D03*
X0299615Y0162320D03*
D17*
G36*
X0236782Y0092447D02*
X0234833Y0094396D01*
X0237336Y0096899D01*
X0239285Y0094950D01*
X0236782Y0092447D01*
G37*
G36*
X0233150Y0088915D02*
X0231201Y0090864D01*
X0233704Y0093367D01*
X0235653Y0091418D01*
X0233150Y0088915D01*
G37*
G36*
X0231304Y0088167D02*
X0233253Y0086218D01*
X0230750Y0083715D01*
X0228801Y0085664D01*
X0231304Y0088167D01*
G37*
G36*
X0236770Y0085296D02*
X0234821Y0087245D01*
X0237324Y0089748D01*
X0239273Y0087799D01*
X0236770Y0085296D01*
G37*
G36*
X0234924Y0084548D02*
X0236873Y0082599D01*
X0234370Y0080096D01*
X0232421Y0082045D01*
X0234924Y0084548D01*
G37*
G36*
X0240401Y0088827D02*
X0238452Y0090776D01*
X0240955Y0093279D01*
X0242904Y0091330D01*
X0240401Y0088827D01*
G37*
G36*
X0221304Y0078167D02*
X0223253Y0076218D01*
X0220750Y0073715D01*
X0218801Y0075664D01*
X0221304Y0078167D01*
G37*
G36*
X0224924Y0074548D02*
X0226873Y0072599D01*
X0224370Y0070096D01*
X0222421Y0072045D01*
X0224924Y0074548D01*
G37*
G36*
X0160124Y0139348D02*
X0162073Y0137399D01*
X0159570Y0134896D01*
X0157621Y0136845D01*
X0160124Y0139348D01*
G37*
G36*
X0163874Y0143098D02*
X0165823Y0141149D01*
X0163320Y0138646D01*
X0161371Y0140595D01*
X0163874Y0143098D01*
G37*
G36*
X0160254Y0146717D02*
X0162203Y0144768D01*
X0159700Y0142265D01*
X0157751Y0144214D01*
X0160254Y0146717D01*
G37*
G36*
X0156504Y0142967D02*
X0158453Y0141018D01*
X0155950Y0138515D01*
X0154001Y0140464D01*
X0156504Y0142967D01*
G37*
D18*
G36*
X0222896Y0084922D02*
X0219362Y0088456D01*
X0221130Y0090224D01*
X0224664Y0086690D01*
X0222896Y0084922D01*
G37*
G36*
X0220279Y0082305D02*
X0216745Y0085839D01*
X0218513Y0087607D01*
X0222047Y0084073D01*
X0220279Y0082305D01*
G37*
D19*
G36*
X0234889Y0075615D02*
X0241959Y0068545D01*
X0238423Y0065009D01*
X0231353Y0072079D01*
X0234889Y0075615D01*
G37*
D20*
X0246531Y0091369D03*
X0246531Y0098061D03*
X0258385Y0098715D03*
X0265078Y0098715D03*
X0284331Y0099661D03*
X0283785Y0106115D03*
X0290478Y0106115D03*
X0284331Y0092969D03*
X0284331Y0078061D03*
X0284331Y0071369D03*
X0284331Y0056461D03*
X0284331Y0049769D03*
X0284331Y0034861D03*
X0284331Y0028169D03*
X0254931Y0030661D03*
X0254931Y0023969D03*
X0259731Y0057569D03*
X0259731Y0064261D03*
X0207787Y0055278D03*
X0207787Y0048585D03*
G36*
X0078576Y0134820D02*
X0081359Y0137603D01*
X0084420Y0134542D01*
X0081637Y0131759D01*
X0078576Y0134820D01*
G37*
G36*
X0073843Y0130088D02*
X0076626Y0132871D01*
X0079687Y0129810D01*
X0076904Y0127027D01*
X0073843Y0130088D01*
G37*
X0046531Y0133569D03*
X0046531Y0140261D03*
X0037492Y0139352D03*
X0030799Y0139352D03*
X0026078Y0131115D03*
X0019385Y0131115D03*
X0019385Y0123915D03*
X0026078Y0123915D03*
X0023931Y0154169D03*
X0031131Y0154169D03*
X0031131Y0160861D03*
X0023931Y0160861D03*
X0074585Y0162315D03*
X0074585Y0156315D03*
X0081278Y0156315D03*
X0081278Y0162315D03*
X0081278Y0168315D03*
X0074585Y0168315D03*
X0227131Y0178417D03*
X0227131Y0185109D03*
X0073331Y0037061D03*
X0073331Y0030369D03*
X0068078Y0020715D03*
X0061385Y0020715D03*
X0054878Y0020715D03*
X0048185Y0020715D03*
D21*
X0237548Y0179750D03*
X0237548Y0184750D03*
X0237548Y0189750D03*
X0237548Y0194750D03*
X0269398Y0194750D03*
X0269398Y0189750D03*
X0269398Y0184750D03*
X0269398Y0179750D03*
D22*
X0200522Y0056170D03*
X0200522Y0053611D03*
X0200522Y0051052D03*
X0200522Y0048493D03*
X0192452Y0048493D03*
X0192452Y0051052D03*
X0192452Y0053611D03*
X0192452Y0056170D03*
D23*
G36*
X0189840Y0072975D02*
X0190618Y0073753D01*
X0195284Y0069087D01*
X0194506Y0068309D01*
X0189840Y0072975D01*
G37*
G36*
X0191184Y0074318D02*
X0191962Y0075096D01*
X0196628Y0070430D01*
X0195850Y0069652D01*
X0191184Y0074318D01*
G37*
G36*
X0192598Y0075732D02*
X0193376Y0076510D01*
X0198042Y0071844D01*
X0197264Y0071066D01*
X0192598Y0075732D01*
G37*
G36*
X0194012Y0077146D02*
X0194790Y0077924D01*
X0199456Y0073258D01*
X0198678Y0072480D01*
X0194012Y0077146D01*
G37*
G36*
X0195427Y0078561D02*
X0196205Y0079339D01*
X0200871Y0074673D01*
X0200093Y0073895D01*
X0195427Y0078561D01*
G37*
G36*
X0196770Y0079904D02*
X0197548Y0080682D01*
X0202214Y0076016D01*
X0201436Y0075238D01*
X0196770Y0079904D01*
G37*
G36*
X0198184Y0081318D02*
X0198962Y0082096D01*
X0203628Y0077430D01*
X0202850Y0076652D01*
X0198184Y0081318D01*
G37*
G36*
X0199599Y0082733D02*
X0200377Y0083511D01*
X0205043Y0078845D01*
X0204265Y0078067D01*
X0199599Y0082733D01*
G37*
G36*
X0200942Y0084076D02*
X0201720Y0084854D01*
X0206386Y0080188D01*
X0205608Y0079410D01*
X0200942Y0084076D01*
G37*
G36*
X0202356Y0085490D02*
X0203134Y0086268D01*
X0207800Y0081602D01*
X0207022Y0080824D01*
X0202356Y0085490D01*
G37*
G36*
X0203770Y0086905D02*
X0204548Y0087683D01*
X0209214Y0083017D01*
X0208436Y0082239D01*
X0203770Y0086905D01*
G37*
G36*
X0205114Y0088248D02*
X0205892Y0089026D01*
X0210558Y0084360D01*
X0209780Y0083582D01*
X0205114Y0088248D01*
G37*
G36*
X0206528Y0089662D02*
X0207306Y0090440D01*
X0211972Y0085774D01*
X0211194Y0084996D01*
X0206528Y0089662D01*
G37*
G36*
X0207942Y0091077D02*
X0208720Y0091855D01*
X0213386Y0087189D01*
X0212608Y0086411D01*
X0207942Y0091077D01*
G37*
G36*
X0209286Y0092420D02*
X0210064Y0093198D01*
X0214730Y0088532D01*
X0213952Y0087754D01*
X0209286Y0092420D01*
G37*
G36*
X0210700Y0093834D02*
X0211478Y0094612D01*
X0216144Y0089946D01*
X0215366Y0089168D01*
X0210700Y0093834D01*
G37*
G36*
X0212114Y0095248D02*
X0212892Y0096026D01*
X0217558Y0091360D01*
X0216780Y0090582D01*
X0212114Y0095248D01*
G37*
G36*
X0213458Y0096592D02*
X0214236Y0097370D01*
X0218902Y0092704D01*
X0218124Y0091926D01*
X0213458Y0096592D01*
G37*
G36*
X0214872Y0098006D02*
X0215650Y0098784D01*
X0220316Y0094118D01*
X0219538Y0093340D01*
X0214872Y0098006D01*
G37*
G36*
X0216286Y0099420D02*
X0217064Y0100198D01*
X0221730Y0095532D01*
X0220952Y0094754D01*
X0216286Y0099420D01*
G37*
G36*
X0217630Y0100764D02*
X0218408Y0101542D01*
X0223074Y0096876D01*
X0222296Y0096098D01*
X0217630Y0100764D01*
G37*
G36*
X0219044Y0102178D02*
X0219822Y0102956D01*
X0224488Y0098290D01*
X0223710Y0097512D01*
X0219044Y0102178D01*
G37*
G36*
X0220458Y0103592D02*
X0221236Y0104370D01*
X0225902Y0099704D01*
X0225124Y0098926D01*
X0220458Y0103592D01*
G37*
G36*
X0221872Y0105006D02*
X0222650Y0105784D01*
X0227316Y0101118D01*
X0226538Y0100340D01*
X0221872Y0105006D01*
G37*
G36*
X0223216Y0106350D02*
X0223994Y0107128D01*
X0228660Y0102462D01*
X0227882Y0101684D01*
X0223216Y0106350D01*
G37*
G36*
X0223994Y0110735D02*
X0223216Y0111513D01*
X0227882Y0116179D01*
X0228660Y0115401D01*
X0223994Y0110735D01*
G37*
G36*
X0222650Y0112078D02*
X0221872Y0112856D01*
X0226538Y0117522D01*
X0227316Y0116744D01*
X0222650Y0112078D01*
G37*
G36*
X0221236Y0113493D02*
X0220458Y0114271D01*
X0225124Y0118937D01*
X0225902Y0118159D01*
X0221236Y0113493D01*
G37*
G36*
X0219822Y0114907D02*
X0219044Y0115685D01*
X0223710Y0120351D01*
X0224488Y0119573D01*
X0219822Y0114907D01*
G37*
G36*
X0218408Y0116321D02*
X0217630Y0117099D01*
X0222296Y0121765D01*
X0223074Y0120987D01*
X0218408Y0116321D01*
G37*
G36*
X0217064Y0117665D02*
X0216286Y0118443D01*
X0220952Y0123109D01*
X0221730Y0122331D01*
X0217064Y0117665D01*
G37*
G36*
X0215650Y0119079D02*
X0214872Y0119857D01*
X0219538Y0124523D01*
X0220316Y0123745D01*
X0215650Y0119079D01*
G37*
G36*
X0214236Y0120493D02*
X0213458Y0121271D01*
X0218124Y0125937D01*
X0218902Y0125159D01*
X0214236Y0120493D01*
G37*
G36*
X0212892Y0121837D02*
X0212114Y0122615D01*
X0216780Y0127281D01*
X0217558Y0126503D01*
X0212892Y0121837D01*
G37*
G36*
X0211478Y0123251D02*
X0210700Y0124029D01*
X0215366Y0128695D01*
X0216144Y0127917D01*
X0211478Y0123251D01*
G37*
G36*
X0210064Y0124665D02*
X0209286Y0125443D01*
X0213952Y0130109D01*
X0214730Y0129331D01*
X0210064Y0124665D01*
G37*
G36*
X0208720Y0126008D02*
X0207942Y0126786D01*
X0212608Y0131452D01*
X0213386Y0130674D01*
X0208720Y0126008D01*
G37*
G36*
X0207306Y0127423D02*
X0206528Y0128201D01*
X0211194Y0132867D01*
X0211972Y0132089D01*
X0207306Y0127423D01*
G37*
G36*
X0205892Y0128837D02*
X0205114Y0129615D01*
X0209780Y0134281D01*
X0210558Y0133503D01*
X0205892Y0128837D01*
G37*
G36*
X0204548Y0130180D02*
X0203770Y0130958D01*
X0208436Y0135624D01*
X0209214Y0134846D01*
X0204548Y0130180D01*
G37*
G36*
X0203134Y0131595D02*
X0202356Y0132373D01*
X0207022Y0137039D01*
X0207800Y0136261D01*
X0203134Y0131595D01*
G37*
G36*
X0201720Y0133009D02*
X0200942Y0133787D01*
X0205608Y0138453D01*
X0206386Y0137675D01*
X0201720Y0133009D01*
G37*
G36*
X0200377Y0134352D02*
X0199599Y0135130D01*
X0204265Y0139796D01*
X0205043Y0139018D01*
X0200377Y0134352D01*
G37*
G36*
X0198962Y0135767D02*
X0198184Y0136545D01*
X0202850Y0141211D01*
X0203628Y0140433D01*
X0198962Y0135767D01*
G37*
G36*
X0197548Y0137181D02*
X0196770Y0137959D01*
X0201436Y0142625D01*
X0202214Y0141847D01*
X0197548Y0137181D01*
G37*
G36*
X0196205Y0138524D02*
X0195427Y0139302D01*
X0200093Y0143968D01*
X0200871Y0143190D01*
X0196205Y0138524D01*
G37*
G36*
X0194790Y0139938D02*
X0194012Y0140716D01*
X0198678Y0145382D01*
X0199456Y0144604D01*
X0194790Y0139938D01*
G37*
G36*
X0193376Y0141353D02*
X0192598Y0142131D01*
X0197264Y0146797D01*
X0198042Y0146019D01*
X0193376Y0141353D01*
G37*
G36*
X0191962Y0142767D02*
X0191184Y0143545D01*
X0195850Y0148211D01*
X0196628Y0147433D01*
X0191962Y0142767D01*
G37*
G36*
X0190618Y0144110D02*
X0189840Y0144888D01*
X0194506Y0149554D01*
X0195284Y0148776D01*
X0190618Y0144110D01*
G37*
G36*
X0180790Y0148776D02*
X0181568Y0149554D01*
X0186234Y0144888D01*
X0185456Y0144110D01*
X0180790Y0148776D01*
G37*
G36*
X0179446Y0147433D02*
X0180224Y0148211D01*
X0184890Y0143545D01*
X0184112Y0142767D01*
X0179446Y0147433D01*
G37*
G36*
X0178032Y0146019D02*
X0178810Y0146797D01*
X0183476Y0142131D01*
X0182698Y0141353D01*
X0178032Y0146019D01*
G37*
G36*
X0176618Y0144604D02*
X0177396Y0145382D01*
X0182062Y0140716D01*
X0181284Y0139938D01*
X0176618Y0144604D01*
G37*
G36*
X0175203Y0143190D02*
X0175981Y0143968D01*
X0180647Y0139302D01*
X0179869Y0138524D01*
X0175203Y0143190D01*
G37*
G36*
X0173860Y0141847D02*
X0174638Y0142625D01*
X0179304Y0137959D01*
X0178526Y0137181D01*
X0173860Y0141847D01*
G37*
G36*
X0172446Y0140433D02*
X0173224Y0141211D01*
X0177890Y0136545D01*
X0177112Y0135767D01*
X0172446Y0140433D01*
G37*
G36*
X0171031Y0139018D02*
X0171809Y0139796D01*
X0176475Y0135130D01*
X0175697Y0134352D01*
X0171031Y0139018D01*
G37*
G36*
X0169688Y0137675D02*
X0170466Y0138453D01*
X0175132Y0133787D01*
X0174354Y0133009D01*
X0169688Y0137675D01*
G37*
G36*
X0168274Y0136261D02*
X0169052Y0137039D01*
X0173718Y0132373D01*
X0172940Y0131595D01*
X0168274Y0136261D01*
G37*
G36*
X0166860Y0134846D02*
X0167638Y0135624D01*
X0172304Y0130958D01*
X0171526Y0130180D01*
X0166860Y0134846D01*
G37*
G36*
X0165516Y0133503D02*
X0166294Y0134281D01*
X0170960Y0129615D01*
X0170182Y0128837D01*
X0165516Y0133503D01*
G37*
G36*
X0164102Y0132089D02*
X0164880Y0132867D01*
X0169546Y0128201D01*
X0168768Y0127423D01*
X0164102Y0132089D01*
G37*
G36*
X0162688Y0130674D02*
X0163466Y0131452D01*
X0168132Y0126786D01*
X0167354Y0126008D01*
X0162688Y0130674D01*
G37*
G36*
X0161344Y0129331D02*
X0162122Y0130109D01*
X0166788Y0125443D01*
X0166010Y0124665D01*
X0161344Y0129331D01*
G37*
G36*
X0159930Y0127917D02*
X0160708Y0128695D01*
X0165374Y0124029D01*
X0164596Y0123251D01*
X0159930Y0127917D01*
G37*
G36*
X0158516Y0126503D02*
X0159294Y0127281D01*
X0163960Y0122615D01*
X0163182Y0121837D01*
X0158516Y0126503D01*
G37*
G36*
X0157172Y0125159D02*
X0157950Y0125937D01*
X0162616Y0121271D01*
X0161838Y0120493D01*
X0157172Y0125159D01*
G37*
G36*
X0155758Y0123745D02*
X0156536Y0124523D01*
X0161202Y0119857D01*
X0160424Y0119079D01*
X0155758Y0123745D01*
G37*
G36*
X0154344Y0122331D02*
X0155122Y0123109D01*
X0159788Y0118443D01*
X0159010Y0117665D01*
X0154344Y0122331D01*
G37*
G36*
X0153000Y0120987D02*
X0153778Y0121765D01*
X0158444Y0117099D01*
X0157666Y0116321D01*
X0153000Y0120987D01*
G37*
G36*
X0151586Y0119573D02*
X0152364Y0120351D01*
X0157030Y0115685D01*
X0156252Y0114907D01*
X0151586Y0119573D01*
G37*
G36*
X0150172Y0118159D02*
X0150950Y0118937D01*
X0155616Y0114271D01*
X0154838Y0113493D01*
X0150172Y0118159D01*
G37*
G36*
X0148758Y0116744D02*
X0149536Y0117522D01*
X0154202Y0112856D01*
X0153424Y0112078D01*
X0148758Y0116744D01*
G37*
G36*
X0147414Y0115401D02*
X0148192Y0116179D01*
X0152858Y0111513D01*
X0152080Y0110735D01*
X0147414Y0115401D01*
G37*
G36*
X0148192Y0101684D02*
X0147414Y0102462D01*
X0152080Y0107128D01*
X0152858Y0106350D01*
X0148192Y0101684D01*
G37*
G36*
X0149536Y0100340D02*
X0148758Y0101118D01*
X0153424Y0105784D01*
X0154202Y0105006D01*
X0149536Y0100340D01*
G37*
G36*
X0150950Y0098926D02*
X0150172Y0099704D01*
X0154838Y0104370D01*
X0155616Y0103592D01*
X0150950Y0098926D01*
G37*
G36*
X0152364Y0097512D02*
X0151586Y0098290D01*
X0156252Y0102956D01*
X0157030Y0102178D01*
X0152364Y0097512D01*
G37*
G36*
X0153778Y0096098D02*
X0153000Y0096876D01*
X0157666Y0101542D01*
X0158444Y0100764D01*
X0153778Y0096098D01*
G37*
G36*
X0155122Y0094754D02*
X0154344Y0095532D01*
X0159010Y0100198D01*
X0159788Y0099420D01*
X0155122Y0094754D01*
G37*
G36*
X0156536Y0093340D02*
X0155758Y0094118D01*
X0160424Y0098784D01*
X0161202Y0098006D01*
X0156536Y0093340D01*
G37*
G36*
X0157950Y0091926D02*
X0157172Y0092704D01*
X0161838Y0097370D01*
X0162616Y0096592D01*
X0157950Y0091926D01*
G37*
G36*
X0159294Y0090582D02*
X0158516Y0091360D01*
X0163182Y0096026D01*
X0163960Y0095248D01*
X0159294Y0090582D01*
G37*
G36*
X0160708Y0089168D02*
X0159930Y0089946D01*
X0164596Y0094612D01*
X0165374Y0093834D01*
X0160708Y0089168D01*
G37*
G36*
X0162122Y0087754D02*
X0161344Y0088532D01*
X0166010Y0093198D01*
X0166788Y0092420D01*
X0162122Y0087754D01*
G37*
G36*
X0163466Y0086411D02*
X0162688Y0087189D01*
X0167354Y0091855D01*
X0168132Y0091077D01*
X0163466Y0086411D01*
G37*
G36*
X0164880Y0084996D02*
X0164102Y0085774D01*
X0168768Y0090440D01*
X0169546Y0089662D01*
X0164880Y0084996D01*
G37*
G36*
X0166294Y0083582D02*
X0165516Y0084360D01*
X0170182Y0089026D01*
X0170960Y0088248D01*
X0166294Y0083582D01*
G37*
G36*
X0167638Y0082239D02*
X0166860Y0083017D01*
X0171526Y0087683D01*
X0172304Y0086905D01*
X0167638Y0082239D01*
G37*
G36*
X0169052Y0080824D02*
X0168274Y0081602D01*
X0172940Y0086268D01*
X0173718Y0085490D01*
X0169052Y0080824D01*
G37*
G36*
X0170466Y0079410D02*
X0169688Y0080188D01*
X0174354Y0084854D01*
X0175132Y0084076D01*
X0170466Y0079410D01*
G37*
G36*
X0171809Y0078067D02*
X0171031Y0078845D01*
X0175697Y0083511D01*
X0176475Y0082733D01*
X0171809Y0078067D01*
G37*
G36*
X0173224Y0076652D02*
X0172446Y0077430D01*
X0177112Y0082096D01*
X0177890Y0081318D01*
X0173224Y0076652D01*
G37*
G36*
X0174638Y0075238D02*
X0173860Y0076016D01*
X0178526Y0080682D01*
X0179304Y0079904D01*
X0174638Y0075238D01*
G37*
G36*
X0175981Y0073895D02*
X0175203Y0074673D01*
X0179869Y0079339D01*
X0180647Y0078561D01*
X0175981Y0073895D01*
G37*
G36*
X0177396Y0072480D02*
X0176618Y0073258D01*
X0181284Y0077924D01*
X0182062Y0077146D01*
X0177396Y0072480D01*
G37*
G36*
X0178810Y0071066D02*
X0178032Y0071844D01*
X0182698Y0076510D01*
X0183476Y0075732D01*
X0178810Y0071066D01*
G37*
G36*
X0180224Y0069652D02*
X0179446Y0070430D01*
X0184112Y0075096D01*
X0184890Y0074318D01*
X0180224Y0069652D01*
G37*
G36*
X0181568Y0068309D02*
X0180790Y0069087D01*
X0185456Y0073753D01*
X0186234Y0072975D01*
X0181568Y0068309D01*
G37*
D24*
G36*
X0159279Y0071879D02*
X0156217Y0074941D01*
X0161227Y0079951D01*
X0164289Y0076889D01*
X0159279Y0071879D01*
G37*
G36*
X0154047Y0077112D02*
X0150985Y0080174D01*
X0155995Y0085184D01*
X0159057Y0082122D01*
X0154047Y0077112D01*
G37*
D25*
X0070111Y0094713D02*
X0068941Y0094713D01*
X0068941Y0095283D01*
X0070111Y0095283D01*
X0070111Y0094713D01*
X0070111Y0094742D02*
X0068941Y0094742D01*
X0068941Y0094771D02*
X0070111Y0094771D01*
X0070111Y0094800D02*
X0068941Y0094800D01*
X0068941Y0094829D02*
X0070111Y0094829D01*
X0070111Y0094858D02*
X0068941Y0094858D01*
X0068941Y0094887D02*
X0070111Y0094887D01*
X0070111Y0094916D02*
X0068941Y0094916D01*
X0068941Y0094945D02*
X0070111Y0094945D01*
X0070111Y0094974D02*
X0068941Y0094974D01*
X0068941Y0095003D02*
X0070111Y0095003D01*
X0070111Y0095032D02*
X0068941Y0095032D01*
X0068941Y0095061D02*
X0070111Y0095061D01*
X0070111Y0095090D02*
X0068941Y0095090D01*
X0068941Y0095119D02*
X0070111Y0095119D01*
X0070111Y0095148D02*
X0068941Y0095148D01*
X0068941Y0095177D02*
X0070111Y0095177D01*
X0070111Y0095206D02*
X0068941Y0095206D01*
X0068941Y0095235D02*
X0070111Y0095235D01*
X0070111Y0095264D02*
X0068941Y0095264D01*
X0067311Y0095583D02*
X0067311Y0094413D01*
X0066741Y0094413D01*
X0066741Y0095583D01*
X0067311Y0095583D01*
X0067311Y0094442D02*
X0066741Y0094442D01*
X0066741Y0094471D02*
X0067311Y0094471D01*
X0067311Y0094500D02*
X0066741Y0094500D01*
X0066741Y0094529D02*
X0067311Y0094529D01*
X0067311Y0094558D02*
X0066741Y0094558D01*
X0066741Y0094587D02*
X0067311Y0094587D01*
X0067311Y0094616D02*
X0066741Y0094616D01*
X0066741Y0094645D02*
X0067311Y0094645D01*
X0067311Y0094674D02*
X0066741Y0094674D01*
X0066741Y0094703D02*
X0067311Y0094703D01*
X0067311Y0094732D02*
X0066741Y0094732D01*
X0066741Y0094761D02*
X0067311Y0094761D01*
X0067311Y0094790D02*
X0066741Y0094790D01*
X0066741Y0094819D02*
X0067311Y0094819D01*
X0067311Y0094848D02*
X0066741Y0094848D01*
X0066741Y0094877D02*
X0067311Y0094877D01*
X0067311Y0094906D02*
X0066741Y0094906D01*
X0066741Y0094935D02*
X0067311Y0094935D01*
X0067311Y0094964D02*
X0066741Y0094964D01*
X0066741Y0094993D02*
X0067311Y0094993D01*
X0067311Y0095022D02*
X0066741Y0095022D01*
X0066741Y0095051D02*
X0067311Y0095051D01*
X0067311Y0095080D02*
X0066741Y0095080D01*
X0066741Y0095109D02*
X0067311Y0095109D01*
X0067311Y0095138D02*
X0066741Y0095138D01*
X0066741Y0095167D02*
X0067311Y0095167D01*
X0067311Y0095196D02*
X0066741Y0095196D01*
X0066741Y0095225D02*
X0067311Y0095225D01*
X0067311Y0095254D02*
X0066741Y0095254D01*
X0066741Y0095283D02*
X0067311Y0095283D01*
X0067311Y0095312D02*
X0066741Y0095312D01*
X0066741Y0095341D02*
X0067311Y0095341D01*
X0067311Y0095370D02*
X0066741Y0095370D01*
X0066741Y0095399D02*
X0067311Y0095399D01*
X0067311Y0095428D02*
X0066741Y0095428D01*
X0066741Y0095457D02*
X0067311Y0095457D01*
X0067311Y0095486D02*
X0066741Y0095486D01*
X0066741Y0095515D02*
X0067311Y0095515D01*
X0067311Y0095544D02*
X0066741Y0095544D01*
X0066741Y0095573D02*
X0067311Y0095573D01*
X0065111Y0094713D02*
X0063941Y0094713D01*
X0063941Y0095283D01*
X0065111Y0095283D01*
X0065111Y0094713D01*
X0065111Y0094742D02*
X0063941Y0094742D01*
X0063941Y0094771D02*
X0065111Y0094771D01*
X0065111Y0094800D02*
X0063941Y0094800D01*
X0063941Y0094829D02*
X0065111Y0094829D01*
X0065111Y0094858D02*
X0063941Y0094858D01*
X0063941Y0094887D02*
X0065111Y0094887D01*
X0065111Y0094916D02*
X0063941Y0094916D01*
X0063941Y0094945D02*
X0065111Y0094945D01*
X0065111Y0094974D02*
X0063941Y0094974D01*
X0063941Y0095003D02*
X0065111Y0095003D01*
X0065111Y0095032D02*
X0063941Y0095032D01*
X0063941Y0095061D02*
X0065111Y0095061D01*
X0065111Y0095090D02*
X0063941Y0095090D01*
X0063941Y0095119D02*
X0065111Y0095119D01*
X0065111Y0095148D02*
X0063941Y0095148D01*
X0063941Y0095177D02*
X0065111Y0095177D01*
X0065111Y0095206D02*
X0063941Y0095206D01*
X0063941Y0095235D02*
X0065111Y0095235D01*
X0065111Y0095264D02*
X0063941Y0095264D01*
D26*
X0060004Y0145297D03*
X0058035Y0145297D03*
X0056067Y0145297D03*
X0054098Y0145297D03*
X0052130Y0145297D03*
X0050161Y0145297D03*
X0048193Y0145297D03*
X0046224Y0145297D03*
X0044256Y0145297D03*
X0042287Y0145297D03*
X0042287Y0158397D03*
X0044256Y0158397D03*
X0046224Y0158397D03*
X0048193Y0158397D03*
X0050161Y0158397D03*
X0052130Y0158397D03*
X0054098Y0158397D03*
X0056067Y0158397D03*
X0058035Y0158397D03*
X0060004Y0158397D03*
D27*
X0060447Y0154805D03*
X0060447Y0152836D03*
X0060447Y0150868D03*
X0060447Y0148899D03*
X0041844Y0148899D03*
X0041844Y0150868D03*
X0041844Y0152836D03*
X0041844Y0154805D03*
D28*
X0044099Y0166852D03*
X0050792Y0166852D03*
D29*
X0097131Y0183263D03*
X0107131Y0183263D03*
X0117131Y0183263D03*
X0127131Y0183263D03*
X0137131Y0183263D03*
X0147131Y0183263D03*
X0157131Y0183263D03*
X0167131Y0183263D03*
X0177131Y0183263D03*
X0187131Y0183263D03*
X0197131Y0183263D03*
X0207131Y0183263D03*
X0217131Y0183263D03*
X0217131Y0193263D03*
X0207131Y0193263D03*
X0197131Y0193263D03*
X0187131Y0193263D03*
X0177131Y0193263D03*
X0167131Y0193263D03*
X0157131Y0193263D03*
X0147131Y0193263D03*
X0137131Y0193263D03*
X0127131Y0193263D03*
X0117131Y0193263D03*
X0107131Y0193263D03*
X0097131Y0193263D03*
X0232131Y0167715D03*
X0242131Y0167715D03*
X0252131Y0167715D03*
X0262131Y0167715D03*
X0272131Y0167715D03*
X0272131Y0157715D03*
X0262131Y0157715D03*
X0252131Y0157715D03*
X0242131Y0157715D03*
X0232131Y0157715D03*
X0304418Y0195554D03*
X0312331Y0173915D03*
X0312331Y0163915D03*
X0312331Y0153915D03*
X0312331Y0133915D03*
X0312331Y0123915D03*
X0312331Y0113915D03*
X0312331Y0093715D03*
X0312331Y0083715D03*
X0312331Y0073715D03*
X0312331Y0053715D03*
X0312331Y0043715D03*
X0312331Y0033715D03*
X0243931Y0027515D03*
X0223931Y0027515D03*
X0213931Y0027515D03*
X0203931Y0027515D03*
X0203931Y0027515D03*
X0193931Y0027515D03*
X0183931Y0027515D03*
X0173931Y0027515D03*
X0163931Y0027515D03*
X0153931Y0027515D03*
X0143931Y0027515D03*
X0143931Y0037515D03*
X0133931Y0037515D03*
X0123931Y0027915D03*
X0113931Y0027915D03*
X0103931Y0027915D03*
X0153931Y0037515D03*
X0163931Y0037515D03*
X0173931Y0037515D03*
X0183931Y0037515D03*
X0193931Y0037515D03*
X0203931Y0037515D03*
X0031931Y0037715D03*
X0021931Y0037715D03*
X0021931Y0027715D03*
X0031931Y0027715D03*
X0031931Y0017715D03*
X0021931Y0017715D03*
X0031931Y0047715D03*
D30*
X0039446Y0132352D03*
X0059946Y0136952D03*
D31*
X0290191Y0101274D03*
X0290191Y0098715D03*
X0290191Y0096156D03*
X0297672Y0096156D03*
X0297672Y0098715D03*
X0297672Y0101274D03*
X0297672Y0079674D03*
X0297672Y0077115D03*
X0297672Y0074556D03*
X0290191Y0074556D03*
X0290191Y0077115D03*
X0290191Y0079674D03*
X0290191Y0058074D03*
X0290191Y0055515D03*
X0290191Y0052956D03*
X0297672Y0052956D03*
X0297672Y0055515D03*
X0297672Y0058074D03*
X0297672Y0036474D03*
X0297672Y0033915D03*
X0297672Y0031356D03*
X0290191Y0031356D03*
X0290191Y0033915D03*
X0290191Y0036474D03*
D32*
X0291531Y0042315D03*
X0291531Y0047825D03*
X0302361Y0047825D03*
X0302361Y0042315D03*
X0302361Y0026225D03*
X0302361Y0020715D03*
X0291531Y0020715D03*
X0291531Y0026225D03*
X0291531Y0063915D03*
X0291531Y0069425D03*
X0302361Y0069425D03*
X0302361Y0063915D03*
X0302361Y0085515D03*
X0302361Y0091025D03*
X0291531Y0091025D03*
X0291531Y0085515D03*
D33*
X0312331Y0103915D03*
X0312331Y0143915D03*
X0314418Y0195554D03*
X0312331Y0063715D03*
X0312331Y0023715D03*
X0233931Y0027515D03*
X0233931Y0027515D03*
X0133931Y0027915D03*
X0021931Y0047715D03*
D34*
X0274591Y0016784D03*
X0282072Y0016784D03*
X0278331Y0025446D03*
D35*
X0107612Y0127362D02*
X0101249Y0133725D01*
X0107612Y0127362D02*
X0105491Y0125241D01*
X0099128Y0131604D01*
X0101249Y0133725D01*
X0102492Y0128240D02*
X0106734Y0128240D01*
X0103735Y0131239D02*
X0099493Y0131239D01*
X0094973Y0128865D02*
X0088610Y0135228D01*
X0094973Y0128865D02*
X0092852Y0126744D01*
X0086489Y0133107D01*
X0088610Y0135228D01*
X0089853Y0129743D02*
X0094095Y0129743D01*
X0091096Y0132742D02*
X0086854Y0132742D01*
X0077475Y0124092D02*
X0083838Y0117729D01*
X0081717Y0115608D01*
X0075354Y0121971D01*
X0077475Y0124092D01*
X0078718Y0118607D02*
X0082960Y0118607D01*
X0079961Y0121606D02*
X0075719Y0121606D01*
X0066339Y0112957D02*
X0072702Y0106594D01*
X0070581Y0104473D01*
X0064218Y0110836D01*
X0066339Y0112957D01*
X0067582Y0107472D02*
X0071824Y0107472D01*
X0068825Y0110471D02*
X0064583Y0110471D01*
X0078978Y0111454D02*
X0085341Y0105091D01*
X0083220Y0102970D01*
X0076857Y0109333D01*
X0078978Y0111454D01*
X0080221Y0105969D02*
X0084463Y0105969D01*
X0081464Y0108968D02*
X0077222Y0108968D01*
X0090114Y0122589D02*
X0096477Y0116226D01*
X0094356Y0114105D01*
X0087993Y0120468D01*
X0090114Y0122589D01*
X0091357Y0117104D02*
X0095599Y0117104D01*
X0092600Y0120103D02*
X0088358Y0120103D01*
X0067843Y0100318D02*
X0074206Y0093955D01*
X0072085Y0091834D01*
X0065722Y0098197D01*
X0067843Y0100318D01*
X0069086Y0094833D02*
X0073328Y0094833D01*
X0070329Y0097832D02*
X0066087Y0097832D01*
D36*
X0064631Y0199415D03*
X0029631Y0199415D03*
D37*
X0254731Y0034915D03*
X0259131Y0071115D03*
X0259131Y0074715D03*
D38*
X0064769Y0038302D03*
X0062800Y0038302D03*
X0060831Y0038302D03*
X0058863Y0038302D03*
X0056894Y0038302D03*
X0056894Y0029128D03*
X0058863Y0029128D03*
X0060831Y0029128D03*
X0062800Y0029128D03*
X0064769Y0029128D03*
D39*
X0067229Y0032632D03*
X0067229Y0034798D03*
X0054434Y0034798D03*
X0054434Y0032632D03*
D40*
X0060831Y0033715D03*
D41*
X0060831Y0027632D03*
X0058863Y0027632D03*
X0056894Y0027632D03*
X0062800Y0027632D03*
X0064769Y0027632D03*
X0064769Y0039798D03*
X0062800Y0039798D03*
X0060831Y0039798D03*
X0058863Y0039798D03*
X0056894Y0039798D03*
D42*
X0061232Y0050515D03*
X0048831Y0050515D03*
D43*
X0050012Y0055633D03*
X0060051Y0055633D03*
X0060051Y0045397D03*
X0050012Y0045397D03*
D44*
X0048331Y0037652D03*
X0048331Y0029778D03*
X0080831Y0029778D03*
X0080831Y0037652D03*
X0090831Y0037652D03*
X0090831Y0029778D03*
D45*
X0040331Y0063915D03*
X0040331Y0073915D03*
X0040331Y0083915D03*
X0040331Y0093915D03*
X0040331Y0103915D03*
X0040331Y0113915D03*
X0020331Y0113915D03*
X0020331Y0103915D03*
X0020331Y0093915D03*
X0020331Y0083915D03*
X0020331Y0073915D03*
X0020331Y0063915D03*
D46*
X0116031Y0039515D03*
X0123631Y0039515D03*
X0119831Y0047515D03*
X0127231Y0047915D03*
X0123431Y0055915D03*
X0131031Y0055915D03*
D47*
X0158731Y0153615D03*
X0158731Y0161215D03*
X0163531Y0166815D03*
X0155531Y0170615D03*
X0163531Y0174415D03*
X0150731Y0157415D03*
D48*
X0104331Y0168915D03*
M02*
