%
M48
M72
T01C0.01181
T02C0.01200
T03C0.01969
T04C0.02362
T05C0.04000
T06C0.11811
%
T01
X170637Y95231
X168637Y98031
X163037Y147681
X241437Y87231
X263587Y88731
X267587Y88731
X263331Y55515
T02
X263331Y49515
X271731Y47115
X278331Y53115
X284331Y60915
X278331Y67515
X271731Y64515
X279531Y74715
X284331Y82515
X285531Y88515
X275931Y91515
X272331Y89115
X269331Y93115
X269331Y97515
X269331Y100915
X275931Y102715
X279731Y107715
X289131Y114315
X285531Y117320
X291531Y110715
X293931Y101115
X304931Y97515
X304731Y107115
X297531Y132315
X297531Y138315
X291531Y131115
X297531Y144315
X303531Y145515
X299631Y171215
X294631Y176215
X294631Y183715
X294631Y191215
X294631Y198715
X260531Y194663
X256131Y188263
X222931Y175663
X213131Y177063
X196331Y172115
X188331Y168263
X186931Y165063
X177931Y155915
X158331Y157515
X153037Y146431
X176187Y130931
X182331Y137263
X184731Y133863
X187131Y131115
X186331Y126663
X192731Y134463
X194731Y150863
X198131Y153863
X203331Y156163
X206331Y162115
X164331Y170715
X123531Y174315
X110331Y165915
X117531Y156663
X120131Y153663
X111531Y155115
X106731Y155115
X95931Y145515
X98931Y142515
X112131Y133463
X121931Y136863
X118131Y119715
X126331Y112063
X128731Y108863
X131931Y105663
X134931Y88837
X131237Y86031
X127931Y82715
X117131Y71315
X110331Y62115
X106731Y63315
X119931Y56715
X128331Y43515
X109131Y32715
X75531Y65115
X65931Y60315
X62931Y73515
X58731Y100515
X41331Y99315
X35931Y109115
X26031Y109115
X38331Y119115
X34731Y122115
X45931Y128515
X41746Y140652
X45931Y151915
X38646Y156852
X26131Y166915
X27131Y178715
X32131Y178715
X22131Y178715
X17131Y181215
X17131Y186215
X17131Y191215
X17131Y196215
X17131Y201215
X17131Y206215
X42131Y178715
X52131Y178715
X62131Y178715
X69631Y178715
X74631Y178715
X79631Y181215
X79631Y186215
X79631Y191215
X79631Y196215
X79631Y201215
X79631Y206215
X93531Y169515
X86931Y167715
X70331Y162063
X63331Y162715
X63931Y155515
X68931Y152115
X64946Y149352
X56331Y152115
X55146Y162452
X25131Y141915
X26331Y138315
X21846Y148452
X9531Y133515
X9531Y120915
X9531Y103515
X9531Y81315
X62931Y116715
X106731Y87915
X110931Y87915
X156731Y108663
X158931Y106063
X161131Y111263
X176131Y116463
X173437Y91631
X189331Y84515
X193731Y85315
X192131Y80315
X189931Y77915
X188731Y62115
X192331Y61515
X196531Y61515
X203687Y58331
X205131Y63915
X211131Y77315
X214731Y85515
X242531Y98715
X250531Y109515
X237531Y112715
X251331Y81915
X247731Y74715
X242537Y64431
X234531Y63015
X229331Y54715
X224731Y61115
X215731Y49315
X229331Y39315
X260587Y27131
X264187Y29531
X277531Y31515
X279931Y34315
X284931Y39315
X285531Y45315
X293931Y35915
X283531Y23915
X277731Y18315
X293931Y57515
X293931Y79115
X195887Y44531
X184731Y61315
T03
X269931Y15915
T04
X270531Y24315
X268131Y51915
X210531Y100515
X206931Y96915
X197931Y113115
X194331Y116715
X173931Y125115
X163731Y105315
X122931Y96915
X56331Y93915
X38931Y58515
X30531Y59115
X20331Y59115
X11331Y59115
X40731Y35115
X40731Y23115
X74331Y22515
X79731Y22515
X85131Y22515
X90531Y22515
T05
X21931Y17715
X31931Y17715
X31931Y27715
X21931Y27715
X21931Y37715
X31931Y37715
X31931Y47715
X21931Y47715
X103931Y27915
X113931Y27915
X123931Y27915
X133931Y27915
X143931Y27515
X153931Y27515
X163931Y27515
X173931Y27515
X183931Y27515
X193931Y27515
X203931Y27515
X203931Y27515
X213931Y27515
X223931Y27515
X233931Y27515
X233931Y27515
X243931Y27515
X203931Y37515
X193931Y37515
X183931Y37515
X173931Y37515
X163931Y37515
X153931Y37515
X143931Y37515
X133931Y37515
X232131Y157715
X242131Y157715
X252131Y157715
X262131Y157715
X272131Y157715
X272131Y167715
X262131Y167715
X252131Y167715
X242131Y167715
X232131Y167715
X217131Y183263
X207131Y183263
X197131Y183263
X187131Y183263
X177131Y183263
X167131Y183263
X157131Y183263
X147131Y183263
X137131Y183263
X127131Y183263
X117131Y183263
X107131Y183263
X97131Y183263
X97131Y193263
X107131Y193263
X117131Y193263
X127131Y193263
X137131Y193263
X147131Y193263
X157131Y193263
X167131Y193263
X177131Y193263
X187131Y193263
X197131Y193263
X207131Y193263
X217131Y193263
X304418Y195554
X314418Y195554
X312331Y173915
X312331Y163915
X312331Y153915
X312331Y143915
X312331Y133915
X312331Y123915
X312331Y113915
X312331Y103915
X312331Y93715
X312331Y83715
X312331Y73715
X312331Y63715
X312331Y53715
X312331Y43715
X312331Y33715
X312331Y23715
T06
X282722Y138636
X89809Y55959
M30
