G75*
%MOIN*%
%OFA0B0*%
%FSLAX25Y25*%
%IPPOS*%
%LPD*%
%AMOC8*
5,1,8,0,0,1.08239X$1,22.5*
%
%ADD10C,0.00000*%
%ADD11C,0.00200*%
%ADD12C,0.00600*%
%ADD13C,0.00300*%
%ADD14C,0.00500*%
D10*
X0007131Y0012652D02*
X0007131Y0201628D01*
X0322092Y0201628D01*
X0322092Y0012652D01*
X0007131Y0012652D01*
X0229164Y0164079D02*
X0229166Y0164232D01*
X0229172Y0164386D01*
X0229182Y0164539D01*
X0229196Y0164691D01*
X0229214Y0164844D01*
X0229236Y0164995D01*
X0229261Y0165146D01*
X0229291Y0165297D01*
X0229325Y0165447D01*
X0229362Y0165595D01*
X0229403Y0165743D01*
X0229448Y0165889D01*
X0229497Y0166035D01*
X0229550Y0166179D01*
X0229606Y0166321D01*
X0229666Y0166462D01*
X0229730Y0166602D01*
X0229797Y0166740D01*
X0229868Y0166876D01*
X0229943Y0167010D01*
X0230020Y0167142D01*
X0230102Y0167272D01*
X0230186Y0167400D01*
X0230274Y0167526D01*
X0230365Y0167649D01*
X0230459Y0167770D01*
X0230557Y0167888D01*
X0230657Y0168004D01*
X0230761Y0168117D01*
X0230867Y0168228D01*
X0230976Y0168336D01*
X0231088Y0168441D01*
X0231202Y0168542D01*
X0231320Y0168641D01*
X0231439Y0168737D01*
X0231561Y0168830D01*
X0231686Y0168919D01*
X0231813Y0169006D01*
X0231942Y0169088D01*
X0232073Y0169168D01*
X0232206Y0169244D01*
X0232341Y0169317D01*
X0232478Y0169386D01*
X0232617Y0169451D01*
X0232757Y0169513D01*
X0232899Y0169571D01*
X0233042Y0169626D01*
X0233187Y0169677D01*
X0233333Y0169724D01*
X0233480Y0169767D01*
X0233628Y0169806D01*
X0233777Y0169842D01*
X0233927Y0169873D01*
X0234078Y0169901D01*
X0234229Y0169925D01*
X0234382Y0169945D01*
X0234534Y0169961D01*
X0234687Y0169973D01*
X0234840Y0169981D01*
X0234993Y0169985D01*
X0235147Y0169985D01*
X0235300Y0169981D01*
X0235453Y0169973D01*
X0235606Y0169961D01*
X0235758Y0169945D01*
X0235911Y0169925D01*
X0236062Y0169901D01*
X0236213Y0169873D01*
X0236363Y0169842D01*
X0236512Y0169806D01*
X0236660Y0169767D01*
X0236807Y0169724D01*
X0236953Y0169677D01*
X0237098Y0169626D01*
X0237241Y0169571D01*
X0237383Y0169513D01*
X0237523Y0169451D01*
X0237662Y0169386D01*
X0237799Y0169317D01*
X0237934Y0169244D01*
X0238067Y0169168D01*
X0238198Y0169088D01*
X0238327Y0169006D01*
X0238454Y0168919D01*
X0238579Y0168830D01*
X0238701Y0168737D01*
X0238820Y0168641D01*
X0238938Y0168542D01*
X0239052Y0168441D01*
X0239164Y0168336D01*
X0239273Y0168228D01*
X0239379Y0168117D01*
X0239483Y0168004D01*
X0239583Y0167888D01*
X0239681Y0167770D01*
X0239775Y0167649D01*
X0239866Y0167526D01*
X0239954Y0167400D01*
X0240038Y0167272D01*
X0240120Y0167142D01*
X0240197Y0167010D01*
X0240272Y0166876D01*
X0240343Y0166740D01*
X0240410Y0166602D01*
X0240474Y0166462D01*
X0240534Y0166321D01*
X0240590Y0166179D01*
X0240643Y0166035D01*
X0240692Y0165889D01*
X0240737Y0165743D01*
X0240778Y0165595D01*
X0240815Y0165447D01*
X0240849Y0165297D01*
X0240879Y0165146D01*
X0240904Y0164995D01*
X0240926Y0164844D01*
X0240944Y0164691D01*
X0240958Y0164539D01*
X0240968Y0164386D01*
X0240974Y0164232D01*
X0240976Y0164079D01*
X0240974Y0163926D01*
X0240968Y0163772D01*
X0240958Y0163619D01*
X0240944Y0163467D01*
X0240926Y0163314D01*
X0240904Y0163163D01*
X0240879Y0163012D01*
X0240849Y0162861D01*
X0240815Y0162711D01*
X0240778Y0162563D01*
X0240737Y0162415D01*
X0240692Y0162269D01*
X0240643Y0162123D01*
X0240590Y0161979D01*
X0240534Y0161837D01*
X0240474Y0161696D01*
X0240410Y0161556D01*
X0240343Y0161418D01*
X0240272Y0161282D01*
X0240197Y0161148D01*
X0240120Y0161016D01*
X0240038Y0160886D01*
X0239954Y0160758D01*
X0239866Y0160632D01*
X0239775Y0160509D01*
X0239681Y0160388D01*
X0239583Y0160270D01*
X0239483Y0160154D01*
X0239379Y0160041D01*
X0239273Y0159930D01*
X0239164Y0159822D01*
X0239052Y0159717D01*
X0238938Y0159616D01*
X0238820Y0159517D01*
X0238701Y0159421D01*
X0238579Y0159328D01*
X0238454Y0159239D01*
X0238327Y0159152D01*
X0238198Y0159070D01*
X0238067Y0158990D01*
X0237934Y0158914D01*
X0237799Y0158841D01*
X0237662Y0158772D01*
X0237523Y0158707D01*
X0237383Y0158645D01*
X0237241Y0158587D01*
X0237098Y0158532D01*
X0236953Y0158481D01*
X0236807Y0158434D01*
X0236660Y0158391D01*
X0236512Y0158352D01*
X0236363Y0158316D01*
X0236213Y0158285D01*
X0236062Y0158257D01*
X0235911Y0158233D01*
X0235758Y0158213D01*
X0235606Y0158197D01*
X0235453Y0158185D01*
X0235300Y0158177D01*
X0235147Y0158173D01*
X0234993Y0158173D01*
X0234840Y0158177D01*
X0234687Y0158185D01*
X0234534Y0158197D01*
X0234382Y0158213D01*
X0234229Y0158233D01*
X0234078Y0158257D01*
X0233927Y0158285D01*
X0233777Y0158316D01*
X0233628Y0158352D01*
X0233480Y0158391D01*
X0233333Y0158434D01*
X0233187Y0158481D01*
X0233042Y0158532D01*
X0232899Y0158587D01*
X0232757Y0158645D01*
X0232617Y0158707D01*
X0232478Y0158772D01*
X0232341Y0158841D01*
X0232206Y0158914D01*
X0232073Y0158990D01*
X0231942Y0159070D01*
X0231813Y0159152D01*
X0231686Y0159239D01*
X0231561Y0159328D01*
X0231439Y0159421D01*
X0231320Y0159517D01*
X0231202Y0159616D01*
X0231088Y0159717D01*
X0230976Y0159822D01*
X0230867Y0159930D01*
X0230761Y0160041D01*
X0230657Y0160154D01*
X0230557Y0160270D01*
X0230459Y0160388D01*
X0230365Y0160509D01*
X0230274Y0160632D01*
X0230186Y0160758D01*
X0230102Y0160886D01*
X0230020Y0161016D01*
X0229943Y0161148D01*
X0229868Y0161282D01*
X0229797Y0161418D01*
X0229730Y0161556D01*
X0229666Y0161696D01*
X0229606Y0161837D01*
X0229550Y0161979D01*
X0229497Y0162123D01*
X0229448Y0162269D01*
X0229403Y0162415D01*
X0229362Y0162563D01*
X0229325Y0162711D01*
X0229291Y0162861D01*
X0229261Y0163012D01*
X0229236Y0163163D01*
X0229214Y0163314D01*
X0229196Y0163467D01*
X0229182Y0163619D01*
X0229172Y0163772D01*
X0229166Y0163926D01*
X0229164Y0164079D01*
X0278785Y0148479D02*
X0278787Y0148632D01*
X0278793Y0148786D01*
X0278803Y0148939D01*
X0278817Y0149091D01*
X0278835Y0149244D01*
X0278857Y0149395D01*
X0278882Y0149546D01*
X0278912Y0149697D01*
X0278946Y0149847D01*
X0278983Y0149995D01*
X0279024Y0150143D01*
X0279069Y0150289D01*
X0279118Y0150435D01*
X0279171Y0150579D01*
X0279227Y0150721D01*
X0279287Y0150862D01*
X0279351Y0151002D01*
X0279418Y0151140D01*
X0279489Y0151276D01*
X0279564Y0151410D01*
X0279641Y0151542D01*
X0279723Y0151672D01*
X0279807Y0151800D01*
X0279895Y0151926D01*
X0279986Y0152049D01*
X0280080Y0152170D01*
X0280178Y0152288D01*
X0280278Y0152404D01*
X0280382Y0152517D01*
X0280488Y0152628D01*
X0280597Y0152736D01*
X0280709Y0152841D01*
X0280823Y0152942D01*
X0280941Y0153041D01*
X0281060Y0153137D01*
X0281182Y0153230D01*
X0281307Y0153319D01*
X0281434Y0153406D01*
X0281563Y0153488D01*
X0281694Y0153568D01*
X0281827Y0153644D01*
X0281962Y0153717D01*
X0282099Y0153786D01*
X0282238Y0153851D01*
X0282378Y0153913D01*
X0282520Y0153971D01*
X0282663Y0154026D01*
X0282808Y0154077D01*
X0282954Y0154124D01*
X0283101Y0154167D01*
X0283249Y0154206D01*
X0283398Y0154242D01*
X0283548Y0154273D01*
X0283699Y0154301D01*
X0283850Y0154325D01*
X0284003Y0154345D01*
X0284155Y0154361D01*
X0284308Y0154373D01*
X0284461Y0154381D01*
X0284614Y0154385D01*
X0284768Y0154385D01*
X0284921Y0154381D01*
X0285074Y0154373D01*
X0285227Y0154361D01*
X0285379Y0154345D01*
X0285532Y0154325D01*
X0285683Y0154301D01*
X0285834Y0154273D01*
X0285984Y0154242D01*
X0286133Y0154206D01*
X0286281Y0154167D01*
X0286428Y0154124D01*
X0286574Y0154077D01*
X0286719Y0154026D01*
X0286862Y0153971D01*
X0287004Y0153913D01*
X0287144Y0153851D01*
X0287283Y0153786D01*
X0287420Y0153717D01*
X0287555Y0153644D01*
X0287688Y0153568D01*
X0287819Y0153488D01*
X0287948Y0153406D01*
X0288075Y0153319D01*
X0288200Y0153230D01*
X0288322Y0153137D01*
X0288441Y0153041D01*
X0288559Y0152942D01*
X0288673Y0152841D01*
X0288785Y0152736D01*
X0288894Y0152628D01*
X0289000Y0152517D01*
X0289104Y0152404D01*
X0289204Y0152288D01*
X0289302Y0152170D01*
X0289396Y0152049D01*
X0289487Y0151926D01*
X0289575Y0151800D01*
X0289659Y0151672D01*
X0289741Y0151542D01*
X0289818Y0151410D01*
X0289893Y0151276D01*
X0289964Y0151140D01*
X0290031Y0151002D01*
X0290095Y0150862D01*
X0290155Y0150721D01*
X0290211Y0150579D01*
X0290264Y0150435D01*
X0290313Y0150289D01*
X0290358Y0150143D01*
X0290399Y0149995D01*
X0290436Y0149847D01*
X0290470Y0149697D01*
X0290500Y0149546D01*
X0290525Y0149395D01*
X0290547Y0149244D01*
X0290565Y0149091D01*
X0290579Y0148939D01*
X0290589Y0148786D01*
X0290595Y0148632D01*
X0290597Y0148479D01*
X0290595Y0148326D01*
X0290589Y0148172D01*
X0290579Y0148019D01*
X0290565Y0147867D01*
X0290547Y0147714D01*
X0290525Y0147563D01*
X0290500Y0147412D01*
X0290470Y0147261D01*
X0290436Y0147111D01*
X0290399Y0146963D01*
X0290358Y0146815D01*
X0290313Y0146669D01*
X0290264Y0146523D01*
X0290211Y0146379D01*
X0290155Y0146237D01*
X0290095Y0146096D01*
X0290031Y0145956D01*
X0289964Y0145818D01*
X0289893Y0145682D01*
X0289818Y0145548D01*
X0289741Y0145416D01*
X0289659Y0145286D01*
X0289575Y0145158D01*
X0289487Y0145032D01*
X0289396Y0144909D01*
X0289302Y0144788D01*
X0289204Y0144670D01*
X0289104Y0144554D01*
X0289000Y0144441D01*
X0288894Y0144330D01*
X0288785Y0144222D01*
X0288673Y0144117D01*
X0288559Y0144016D01*
X0288441Y0143917D01*
X0288322Y0143821D01*
X0288200Y0143728D01*
X0288075Y0143639D01*
X0287948Y0143552D01*
X0287819Y0143470D01*
X0287688Y0143390D01*
X0287555Y0143314D01*
X0287420Y0143241D01*
X0287283Y0143172D01*
X0287144Y0143107D01*
X0287004Y0143045D01*
X0286862Y0142987D01*
X0286719Y0142932D01*
X0286574Y0142881D01*
X0286428Y0142834D01*
X0286281Y0142791D01*
X0286133Y0142752D01*
X0285984Y0142716D01*
X0285834Y0142685D01*
X0285683Y0142657D01*
X0285532Y0142633D01*
X0285379Y0142613D01*
X0285227Y0142597D01*
X0285074Y0142585D01*
X0284921Y0142577D01*
X0284768Y0142573D01*
X0284614Y0142573D01*
X0284461Y0142577D01*
X0284308Y0142585D01*
X0284155Y0142597D01*
X0284003Y0142613D01*
X0283850Y0142633D01*
X0283699Y0142657D01*
X0283548Y0142685D01*
X0283398Y0142716D01*
X0283249Y0142752D01*
X0283101Y0142791D01*
X0282954Y0142834D01*
X0282808Y0142881D01*
X0282663Y0142932D01*
X0282520Y0142987D01*
X0282378Y0143045D01*
X0282238Y0143107D01*
X0282099Y0143172D01*
X0281962Y0143241D01*
X0281827Y0143314D01*
X0281694Y0143390D01*
X0281563Y0143470D01*
X0281434Y0143552D01*
X0281307Y0143639D01*
X0281182Y0143728D01*
X0281060Y0143821D01*
X0280941Y0143917D01*
X0280823Y0144016D01*
X0280709Y0144117D01*
X0280597Y0144222D01*
X0280488Y0144330D01*
X0280382Y0144441D01*
X0280278Y0144554D01*
X0280178Y0144670D01*
X0280080Y0144788D01*
X0279986Y0144909D01*
X0279895Y0145032D01*
X0279807Y0145158D01*
X0279723Y0145286D01*
X0279641Y0145416D01*
X0279564Y0145548D01*
X0279489Y0145682D01*
X0279418Y0145818D01*
X0279351Y0145956D01*
X0279287Y0146096D01*
X0279227Y0146237D01*
X0279171Y0146379D01*
X0279118Y0146523D01*
X0279069Y0146669D01*
X0279024Y0146815D01*
X0278983Y0146963D01*
X0278946Y0147111D01*
X0278912Y0147261D01*
X0278882Y0147412D01*
X0278857Y0147563D01*
X0278835Y0147714D01*
X0278817Y0147867D01*
X0278803Y0148019D01*
X0278793Y0148172D01*
X0278787Y0148326D01*
X0278785Y0148479D01*
D11*
X0110515Y0053611D02*
X0110515Y0052877D01*
X0110148Y0052510D01*
X0110515Y0051769D02*
X0109047Y0051769D01*
X0108313Y0051035D01*
X0109047Y0050301D01*
X0110515Y0050301D01*
X0110148Y0049559D02*
X0109781Y0049559D01*
X0109414Y0049192D01*
X0109047Y0049559D01*
X0108680Y0049559D01*
X0108313Y0049192D01*
X0108313Y0048458D01*
X0108680Y0048091D01*
X0109414Y0048825D02*
X0109414Y0049192D01*
X0110148Y0049559D02*
X0110515Y0049192D01*
X0110515Y0048458D01*
X0110148Y0048091D01*
X0108680Y0052510D02*
X0108313Y0052877D01*
X0108313Y0053611D01*
X0108680Y0053978D01*
X0109047Y0053978D01*
X0109414Y0053611D01*
X0109414Y0053244D01*
X0109414Y0053611D02*
X0109781Y0053978D01*
X0110148Y0053978D01*
X0110515Y0053611D01*
X0109781Y0042932D02*
X0109781Y0042198D01*
X0110148Y0042565D02*
X0108680Y0042565D01*
X0108313Y0042932D01*
X0108680Y0041456D02*
X0109414Y0041456D01*
X0109781Y0041089D01*
X0109781Y0040355D01*
X0109414Y0039988D01*
X0108680Y0039988D01*
X0108313Y0040355D01*
X0108313Y0041089D01*
X0108680Y0041456D01*
X0108313Y0039246D02*
X0109414Y0039246D01*
X0109781Y0038879D01*
X0109414Y0038512D01*
X0108313Y0038512D01*
X0108313Y0037778D02*
X0109781Y0037778D01*
X0109781Y0038145D01*
X0109414Y0038512D01*
X0107946Y0037036D02*
X0107946Y0035568D01*
X0109047Y0034826D02*
X0108313Y0034092D01*
X0109047Y0033358D01*
X0110515Y0033358D01*
X0110515Y0034826D02*
X0109047Y0034826D01*
X0109047Y0030406D02*
X0108313Y0029672D01*
X0109047Y0028938D01*
X0110515Y0028938D01*
X0110515Y0028196D02*
X0110515Y0026729D01*
X0109414Y0026729D01*
X0109781Y0027463D01*
X0109781Y0027829D01*
X0109414Y0028196D01*
X0108680Y0028196D01*
X0108313Y0027829D01*
X0108313Y0027096D01*
X0108680Y0026729D01*
X0109047Y0030406D02*
X0110515Y0030406D01*
X0222677Y0017935D02*
X0222677Y0016467D01*
X0223411Y0015733D01*
X0224145Y0016467D01*
X0224145Y0017935D01*
X0224887Y0017935D02*
X0226355Y0017935D01*
X0226355Y0016834D01*
X0225621Y0017201D01*
X0225254Y0017201D01*
X0224887Y0016834D01*
X0224887Y0016100D01*
X0225254Y0015733D01*
X0225988Y0015733D01*
X0226355Y0016100D01*
X0231514Y0015733D02*
X0231881Y0016100D01*
X0231881Y0017568D01*
X0232248Y0017201D02*
X0231514Y0017201D01*
X0232990Y0016834D02*
X0233357Y0017201D01*
X0234091Y0017201D01*
X0234458Y0016834D01*
X0234458Y0016100D01*
X0234091Y0015733D01*
X0233357Y0015733D01*
X0232990Y0016100D01*
X0232990Y0016834D01*
X0235200Y0016834D02*
X0235567Y0017201D01*
X0235934Y0016834D01*
X0235934Y0015733D01*
X0236668Y0015733D02*
X0236668Y0017201D01*
X0236301Y0017201D01*
X0235934Y0016834D01*
X0235200Y0016834D02*
X0235200Y0015733D01*
X0237410Y0015366D02*
X0238878Y0015366D01*
X0239620Y0016467D02*
X0239620Y0017935D01*
X0239620Y0016467D02*
X0240354Y0015733D01*
X0241088Y0016467D01*
X0241088Y0017935D01*
X0246249Y0017568D02*
X0246249Y0017201D01*
X0246616Y0016834D01*
X0246249Y0016467D01*
X0246249Y0016100D01*
X0246616Y0015733D01*
X0247350Y0015733D01*
X0247717Y0016100D01*
X0248459Y0016467D02*
X0248459Y0017935D01*
X0247717Y0017568D02*
X0247350Y0017935D01*
X0246616Y0017935D01*
X0246249Y0017568D01*
X0246616Y0016834D02*
X0246983Y0016834D01*
X0248459Y0016467D02*
X0249193Y0015733D01*
X0249927Y0016467D01*
X0249927Y0017935D01*
X0250669Y0017568D02*
X0250669Y0017201D01*
X0251036Y0016834D01*
X0250669Y0016467D01*
X0250669Y0016100D01*
X0251036Y0015733D01*
X0251770Y0015733D01*
X0252137Y0016100D01*
X0251403Y0016834D02*
X0251036Y0016834D01*
X0250669Y0017568D02*
X0251036Y0017935D01*
X0251770Y0017935D01*
X0252137Y0017568D01*
D12*
X0255031Y0020115D02*
X0255031Y0014115D01*
X0255033Y0014055D01*
X0255038Y0013994D01*
X0255047Y0013935D01*
X0255060Y0013876D01*
X0255076Y0013817D01*
X0255096Y0013760D01*
X0255119Y0013705D01*
X0255146Y0013650D01*
X0255175Y0013598D01*
X0255208Y0013547D01*
X0255244Y0013498D01*
X0255282Y0013452D01*
X0255324Y0013408D01*
X0255368Y0013366D01*
X0255414Y0013328D01*
X0255463Y0013292D01*
X0255514Y0013259D01*
X0255566Y0013230D01*
X0255621Y0013203D01*
X0255676Y0013180D01*
X0255733Y0013160D01*
X0255792Y0013144D01*
X0255851Y0013131D01*
X0255910Y0013122D01*
X0255971Y0013117D01*
X0256031Y0013115D01*
X0273031Y0013115D01*
X0273091Y0013117D01*
X0273152Y0013122D01*
X0273211Y0013131D01*
X0273270Y0013144D01*
X0273329Y0013160D01*
X0273386Y0013180D01*
X0273441Y0013203D01*
X0273496Y0013230D01*
X0273548Y0013259D01*
X0273599Y0013292D01*
X0273648Y0013328D01*
X0273694Y0013366D01*
X0273738Y0013408D01*
X0273780Y0013452D01*
X0273818Y0013498D01*
X0273854Y0013547D01*
X0273887Y0013598D01*
X0273916Y0013650D01*
X0273943Y0013705D01*
X0273966Y0013760D01*
X0273986Y0013817D01*
X0274002Y0013876D01*
X0274015Y0013935D01*
X0274024Y0013994D01*
X0274029Y0014055D01*
X0274031Y0014115D01*
X0274031Y0020115D01*
X0274029Y0020175D01*
X0274024Y0020236D01*
X0274015Y0020295D01*
X0274002Y0020354D01*
X0273986Y0020413D01*
X0273966Y0020470D01*
X0273943Y0020525D01*
X0273916Y0020580D01*
X0273887Y0020632D01*
X0273854Y0020683D01*
X0273818Y0020732D01*
X0273780Y0020778D01*
X0273738Y0020822D01*
X0273694Y0020864D01*
X0273648Y0020902D01*
X0273599Y0020938D01*
X0273548Y0020971D01*
X0273496Y0021000D01*
X0273441Y0021027D01*
X0273386Y0021050D01*
X0273329Y0021070D01*
X0273270Y0021086D01*
X0273211Y0021099D01*
X0273152Y0021108D01*
X0273091Y0021113D01*
X0273031Y0021115D01*
X0256031Y0021115D01*
X0255971Y0021113D01*
X0255910Y0021108D01*
X0255851Y0021099D01*
X0255792Y0021086D01*
X0255733Y0021070D01*
X0255676Y0021050D01*
X0255621Y0021027D01*
X0255566Y0021000D01*
X0255514Y0020971D01*
X0255463Y0020938D01*
X0255414Y0020902D01*
X0255368Y0020864D01*
X0255324Y0020822D01*
X0255282Y0020778D01*
X0255244Y0020732D01*
X0255208Y0020683D01*
X0255175Y0020632D01*
X0255146Y0020580D01*
X0255119Y0020525D01*
X0255096Y0020470D01*
X0255076Y0020413D01*
X0255060Y0020354D01*
X0255047Y0020295D01*
X0255038Y0020236D01*
X0255033Y0020175D01*
X0255031Y0020115D01*
X0102215Y0033320D02*
X0102215Y0050320D01*
X0102213Y0050380D01*
X0102208Y0050441D01*
X0102199Y0050500D01*
X0102186Y0050559D01*
X0102170Y0050618D01*
X0102150Y0050675D01*
X0102127Y0050730D01*
X0102100Y0050785D01*
X0102071Y0050837D01*
X0102038Y0050888D01*
X0102002Y0050937D01*
X0101964Y0050983D01*
X0101922Y0051027D01*
X0101878Y0051069D01*
X0101832Y0051107D01*
X0101783Y0051143D01*
X0101732Y0051176D01*
X0101680Y0051205D01*
X0101625Y0051232D01*
X0101570Y0051255D01*
X0101513Y0051275D01*
X0101454Y0051291D01*
X0101395Y0051304D01*
X0101336Y0051313D01*
X0101275Y0051318D01*
X0101215Y0051320D01*
X0095215Y0051320D01*
X0095155Y0051318D01*
X0095094Y0051313D01*
X0095035Y0051304D01*
X0094976Y0051291D01*
X0094917Y0051275D01*
X0094860Y0051255D01*
X0094805Y0051232D01*
X0094750Y0051205D01*
X0094698Y0051176D01*
X0094647Y0051143D01*
X0094598Y0051107D01*
X0094552Y0051069D01*
X0094508Y0051027D01*
X0094466Y0050983D01*
X0094428Y0050937D01*
X0094392Y0050888D01*
X0094359Y0050837D01*
X0094330Y0050785D01*
X0094303Y0050730D01*
X0094280Y0050675D01*
X0094260Y0050618D01*
X0094244Y0050559D01*
X0094231Y0050500D01*
X0094222Y0050441D01*
X0094217Y0050380D01*
X0094215Y0050320D01*
X0094215Y0033320D01*
X0094217Y0033260D01*
X0094222Y0033199D01*
X0094231Y0033140D01*
X0094244Y0033081D01*
X0094260Y0033022D01*
X0094280Y0032965D01*
X0094303Y0032910D01*
X0094330Y0032855D01*
X0094359Y0032803D01*
X0094392Y0032752D01*
X0094428Y0032703D01*
X0094466Y0032657D01*
X0094508Y0032613D01*
X0094552Y0032571D01*
X0094598Y0032533D01*
X0094647Y0032497D01*
X0094698Y0032464D01*
X0094750Y0032435D01*
X0094805Y0032408D01*
X0094860Y0032385D01*
X0094917Y0032365D01*
X0094976Y0032349D01*
X0095035Y0032336D01*
X0095094Y0032327D01*
X0095155Y0032322D01*
X0095215Y0032320D01*
X0101215Y0032320D01*
X0101275Y0032322D01*
X0101336Y0032327D01*
X0101395Y0032336D01*
X0101454Y0032349D01*
X0101513Y0032365D01*
X0101570Y0032385D01*
X0101625Y0032408D01*
X0101680Y0032435D01*
X0101732Y0032464D01*
X0101783Y0032497D01*
X0101832Y0032533D01*
X0101878Y0032571D01*
X0101922Y0032613D01*
X0101964Y0032657D01*
X0102002Y0032703D01*
X0102038Y0032752D01*
X0102071Y0032803D01*
X0102100Y0032855D01*
X0102127Y0032910D01*
X0102150Y0032965D01*
X0102170Y0033022D01*
X0102186Y0033081D01*
X0102199Y0033140D01*
X0102208Y0033199D01*
X0102213Y0033260D01*
X0102215Y0033320D01*
X0089198Y0029778D02*
X0089198Y0023778D01*
X0089196Y0023718D01*
X0089191Y0023657D01*
X0089182Y0023598D01*
X0089169Y0023539D01*
X0089153Y0023480D01*
X0089133Y0023423D01*
X0089110Y0023368D01*
X0089083Y0023313D01*
X0089054Y0023261D01*
X0089021Y0023210D01*
X0088985Y0023161D01*
X0088947Y0023115D01*
X0088905Y0023071D01*
X0088861Y0023029D01*
X0088815Y0022991D01*
X0088766Y0022955D01*
X0088715Y0022922D01*
X0088663Y0022893D01*
X0088608Y0022866D01*
X0088553Y0022843D01*
X0088496Y0022823D01*
X0088437Y0022807D01*
X0088378Y0022794D01*
X0088319Y0022785D01*
X0088258Y0022780D01*
X0088198Y0022778D01*
X0077198Y0022778D01*
X0077138Y0022780D01*
X0077077Y0022785D01*
X0077018Y0022794D01*
X0076959Y0022807D01*
X0076900Y0022823D01*
X0076843Y0022843D01*
X0076788Y0022866D01*
X0076733Y0022893D01*
X0076681Y0022922D01*
X0076630Y0022955D01*
X0076581Y0022991D01*
X0076535Y0023029D01*
X0076491Y0023071D01*
X0076449Y0023115D01*
X0076411Y0023161D01*
X0076375Y0023210D01*
X0076342Y0023261D01*
X0076313Y0023313D01*
X0076286Y0023368D01*
X0076263Y0023423D01*
X0076243Y0023480D01*
X0076227Y0023539D01*
X0076214Y0023598D01*
X0076205Y0023657D01*
X0076200Y0023718D01*
X0076198Y0023778D01*
X0076198Y0029778D01*
X0076200Y0029838D01*
X0076205Y0029899D01*
X0076214Y0029958D01*
X0076227Y0030017D01*
X0076243Y0030076D01*
X0076263Y0030133D01*
X0076286Y0030188D01*
X0076313Y0030243D01*
X0076342Y0030295D01*
X0076375Y0030346D01*
X0076411Y0030395D01*
X0076449Y0030441D01*
X0076491Y0030485D01*
X0076535Y0030527D01*
X0076581Y0030565D01*
X0076630Y0030601D01*
X0076681Y0030634D01*
X0076733Y0030663D01*
X0076788Y0030690D01*
X0076843Y0030713D01*
X0076900Y0030733D01*
X0076959Y0030749D01*
X0077018Y0030762D01*
X0077077Y0030771D01*
X0077138Y0030776D01*
X0077198Y0030778D01*
X0088198Y0030778D01*
X0088258Y0030776D01*
X0088319Y0030771D01*
X0088378Y0030762D01*
X0088437Y0030749D01*
X0088496Y0030733D01*
X0088553Y0030713D01*
X0088608Y0030690D01*
X0088663Y0030663D01*
X0088715Y0030634D01*
X0088766Y0030601D01*
X0088815Y0030565D01*
X0088861Y0030527D01*
X0088905Y0030485D01*
X0088947Y0030441D01*
X0088985Y0030395D01*
X0089021Y0030346D01*
X0089054Y0030295D01*
X0089083Y0030243D01*
X0089110Y0030188D01*
X0089133Y0030133D01*
X0089153Y0030076D01*
X0089169Y0030017D01*
X0089182Y0029958D01*
X0089191Y0029899D01*
X0089196Y0029838D01*
X0089198Y0029778D01*
X0091631Y0059715D02*
X0102631Y0059715D01*
X0102691Y0059717D01*
X0102752Y0059722D01*
X0102811Y0059731D01*
X0102870Y0059744D01*
X0102929Y0059760D01*
X0102986Y0059780D01*
X0103041Y0059803D01*
X0103096Y0059830D01*
X0103148Y0059859D01*
X0103199Y0059892D01*
X0103248Y0059928D01*
X0103294Y0059966D01*
X0103338Y0060008D01*
X0103380Y0060052D01*
X0103418Y0060098D01*
X0103454Y0060147D01*
X0103487Y0060198D01*
X0103516Y0060250D01*
X0103543Y0060305D01*
X0103566Y0060360D01*
X0103586Y0060417D01*
X0103602Y0060476D01*
X0103615Y0060535D01*
X0103624Y0060594D01*
X0103629Y0060655D01*
X0103631Y0060715D01*
X0103631Y0066715D01*
X0103629Y0066775D01*
X0103624Y0066836D01*
X0103615Y0066895D01*
X0103602Y0066954D01*
X0103586Y0067013D01*
X0103566Y0067070D01*
X0103543Y0067125D01*
X0103516Y0067180D01*
X0103487Y0067232D01*
X0103454Y0067283D01*
X0103418Y0067332D01*
X0103380Y0067378D01*
X0103338Y0067422D01*
X0103294Y0067464D01*
X0103248Y0067502D01*
X0103199Y0067538D01*
X0103148Y0067571D01*
X0103096Y0067600D01*
X0103041Y0067627D01*
X0102986Y0067650D01*
X0102929Y0067670D01*
X0102870Y0067686D01*
X0102811Y0067699D01*
X0102752Y0067708D01*
X0102691Y0067713D01*
X0102631Y0067715D01*
X0091631Y0067715D01*
X0091571Y0067713D01*
X0091510Y0067708D01*
X0091451Y0067699D01*
X0091392Y0067686D01*
X0091333Y0067670D01*
X0091276Y0067650D01*
X0091221Y0067627D01*
X0091166Y0067600D01*
X0091114Y0067571D01*
X0091063Y0067538D01*
X0091014Y0067502D01*
X0090968Y0067464D01*
X0090924Y0067422D01*
X0090882Y0067378D01*
X0090844Y0067332D01*
X0090808Y0067283D01*
X0090775Y0067232D01*
X0090746Y0067180D01*
X0090719Y0067125D01*
X0090696Y0067070D01*
X0090676Y0067013D01*
X0090660Y0066954D01*
X0090647Y0066895D01*
X0090638Y0066836D01*
X0090633Y0066775D01*
X0090631Y0066715D01*
X0090631Y0060715D01*
X0090633Y0060655D01*
X0090638Y0060594D01*
X0090647Y0060535D01*
X0090660Y0060476D01*
X0090676Y0060417D01*
X0090696Y0060360D01*
X0090719Y0060305D01*
X0090746Y0060250D01*
X0090775Y0060198D01*
X0090808Y0060147D01*
X0090844Y0060098D01*
X0090882Y0060052D01*
X0090924Y0060008D01*
X0090968Y0059966D01*
X0091014Y0059928D01*
X0091063Y0059892D01*
X0091114Y0059859D01*
X0091166Y0059830D01*
X0091221Y0059803D01*
X0091276Y0059780D01*
X0091333Y0059760D01*
X0091392Y0059744D01*
X0091451Y0059731D01*
X0091510Y0059722D01*
X0091571Y0059717D01*
X0091631Y0059715D01*
D13*
X0090732Y0056051D02*
X0091216Y0055567D01*
X0091216Y0055083D01*
X0090732Y0054600D01*
X0089764Y0054600D01*
X0089281Y0054116D01*
X0089281Y0053632D01*
X0089764Y0053148D01*
X0090732Y0053148D01*
X0091216Y0053632D01*
X0092227Y0052665D02*
X0094162Y0052665D01*
X0096141Y0053148D02*
X0096141Y0056051D01*
X0095174Y0056051D02*
X0097109Y0056051D01*
X0098120Y0055567D02*
X0098604Y0056051D01*
X0099571Y0056051D01*
X0100055Y0055567D01*
X0100055Y0053632D01*
X0099571Y0053148D01*
X0098604Y0053148D01*
X0098120Y0053632D01*
X0098120Y0055567D01*
X0101067Y0056051D02*
X0101067Y0053148D01*
X0103002Y0053148D02*
X0103002Y0056051D01*
X0102034Y0055083D01*
X0101067Y0056051D01*
X0104013Y0056051D02*
X0104013Y0054116D01*
X0104981Y0053148D01*
X0105948Y0054116D01*
X0105948Y0056051D01*
X0090732Y0056051D02*
X0089764Y0056051D01*
X0089281Y0055567D01*
X0088269Y0056051D02*
X0088269Y0053148D01*
X0086334Y0053148D01*
X0085323Y0053148D02*
X0085323Y0056051D01*
X0086334Y0056051D02*
X0088269Y0056051D01*
X0088269Y0054600D02*
X0087302Y0054600D01*
X0085323Y0053148D02*
X0083388Y0053148D01*
X0088835Y0069765D02*
X0088351Y0070249D01*
X0088351Y0072667D01*
X0088835Y0072667D02*
X0087867Y0072667D01*
X0089802Y0070249D02*
X0089319Y0069765D01*
X0088835Y0069765D01*
X0090814Y0069281D02*
X0092749Y0069281D01*
X0093760Y0070249D02*
X0094244Y0069765D01*
X0095212Y0069765D01*
X0095695Y0070249D01*
X0096707Y0070249D02*
X0097191Y0069765D01*
X0098158Y0069765D01*
X0098642Y0070249D01*
X0099653Y0070249D02*
X0100137Y0069765D01*
X0101588Y0069765D01*
X0101588Y0072667D01*
X0100137Y0072667D01*
X0099653Y0072184D01*
X0099653Y0070249D01*
X0098642Y0072184D02*
X0098158Y0072667D01*
X0097191Y0072667D01*
X0096707Y0072184D01*
X0096707Y0071700D01*
X0097191Y0071216D01*
X0096707Y0070732D01*
X0096707Y0070249D01*
X0097191Y0071216D02*
X0097674Y0071216D01*
X0095695Y0072184D02*
X0095212Y0072667D01*
X0094244Y0072667D01*
X0093760Y0072184D01*
X0093760Y0071700D01*
X0094244Y0071216D01*
X0093760Y0070732D01*
X0093760Y0070249D01*
X0094244Y0071216D02*
X0094728Y0071216D01*
X0102600Y0069765D02*
X0104535Y0069765D01*
X0104535Y0072667D01*
X0102600Y0072667D01*
X0103567Y0071216D02*
X0104535Y0071216D01*
X0105547Y0069765D02*
X0107481Y0069765D01*
X0107481Y0072667D01*
X0093128Y0021530D02*
X0093128Y0018628D01*
X0091193Y0018628D01*
X0090181Y0018628D02*
X0088246Y0018628D01*
X0087234Y0018628D02*
X0085783Y0018628D01*
X0085300Y0019112D01*
X0085300Y0021047D01*
X0085783Y0021530D01*
X0087234Y0021530D01*
X0087234Y0018628D01*
X0089214Y0020079D02*
X0090181Y0020079D01*
X0090181Y0021530D02*
X0090181Y0018628D01*
X0090181Y0021530D02*
X0088246Y0021530D01*
X0084288Y0021530D02*
X0084288Y0020079D01*
X0083320Y0020563D01*
X0082837Y0020563D01*
X0082353Y0020079D01*
X0082353Y0019112D01*
X0082837Y0018628D01*
X0083804Y0018628D01*
X0084288Y0019112D01*
X0084288Y0021530D02*
X0082353Y0021530D01*
X0078395Y0019112D02*
X0077911Y0018628D01*
X0077427Y0018628D01*
X0076944Y0019112D01*
X0076944Y0021530D01*
X0077427Y0021530D02*
X0076460Y0021530D01*
X0079406Y0018144D02*
X0081341Y0018144D01*
X0275974Y0018084D02*
X0276458Y0018567D01*
X0277426Y0018567D01*
X0277909Y0018084D01*
X0275974Y0018084D02*
X0275974Y0017600D01*
X0277909Y0015665D01*
X0275974Y0015665D01*
X0278921Y0015665D02*
X0280856Y0015665D01*
X0280856Y0018567D01*
X0281867Y0018567D02*
X0283802Y0018567D01*
X0283802Y0015665D01*
X0281867Y0015665D01*
X0282835Y0017116D02*
X0283802Y0017116D01*
X0284814Y0016632D02*
X0285298Y0017116D01*
X0286265Y0017116D01*
X0286749Y0017600D01*
X0286749Y0018084D01*
X0286265Y0018567D01*
X0285298Y0018567D01*
X0284814Y0018084D01*
X0284814Y0016632D02*
X0284814Y0016149D01*
X0285298Y0015665D01*
X0286265Y0015665D01*
X0286749Y0016149D01*
X0287760Y0015181D02*
X0289695Y0015181D01*
X0291674Y0015665D02*
X0291674Y0018567D01*
X0290707Y0018567D02*
X0292642Y0018567D01*
X0293653Y0018084D02*
X0293653Y0016149D01*
X0294137Y0015665D01*
X0295105Y0015665D01*
X0295588Y0016149D01*
X0295588Y0018084D01*
X0295105Y0018567D01*
X0294137Y0018567D01*
X0293653Y0018084D01*
X0296600Y0018567D02*
X0296600Y0015665D01*
X0298535Y0015665D02*
X0298535Y0018567D01*
X0297567Y0017600D01*
X0296600Y0018567D01*
X0299547Y0018567D02*
X0299547Y0016632D01*
X0300514Y0015665D01*
X0301481Y0016632D01*
X0301481Y0018567D01*
D14*
X0087131Y0083715D02*
X0017053Y0083715D01*
X0017053Y0188715D02*
X0087131Y0188715D01*
M02*
