%
M48
M72
T01C0.01181
T02C0.01200
T03C0.01969
T04C0.02362
T05C0.04000
T06C0.11811
%
T01
X48387Y41681
X56012Y46556
X59012Y48556
X62012Y46556
X56012Y50556
X72137Y50431
X80237Y52231
X84437Y52231
X127487Y42731
X134387Y42331
X141487Y42331
X167131Y43715
X167131Y38715
X171931Y35115
X171331Y46715
X195487Y38331
X203287Y50731
X242837Y74031
X263331Y59715
X263331Y55515
X262987Y29531
X263587Y88731
X267587Y88731
X241437Y87231
X206787Y98931
X173437Y91631
X170637Y95231
X168637Y98031
X176187Y130931
X163037Y147681
X156637Y150031
T02
X177931Y155915
X182131Y157263
X188331Y163663
X188331Y168263
X203331Y156163
X198131Y153863
X194731Y150863
X182331Y137263
X184731Y133863
X187131Y131115
X186331Y126663
X183857Y119989
X176131Y116463
X161131Y111263
X156731Y108663
X158931Y106063
X169531Y101663
X186131Y91315
X191531Y82315
X195531Y81915
X189931Y77915
X186731Y79515
X187931Y74715
X187931Y67515
X190731Y63515
X194731Y62715
X196331Y65915
X184331Y64715
X170731Y75915
X153531Y69915
X147531Y59915
X147931Y45115
X122331Y58715
X116731Y53115
X108931Y51515
X105331Y48515
X106168Y37351
X87531Y27315
X66331Y32715
X65131Y40515
X62012Y50556
X89215Y61883
X62931Y73515
X58731Y100515
X45531Y108315
X38331Y119115
X34731Y122115
X45931Y128515
X41746Y140652
X45931Y151915
X37446Y156852
X26131Y166915
X22446Y154352
X25131Y141915
X26331Y138315
X9531Y140115
X9531Y120915
X23331Y108315
X9531Y103515
X9531Y81315
X62931Y116715
X79131Y99915
X91731Y102915
X118131Y119715
X126331Y112063
X128731Y108863
X131931Y105663
X134331Y97663
X130331Y92715
X133131Y89115
X131237Y86031
X127931Y82715
X117131Y73715
X155931Y89115
X172731Y51915
X234531Y53715
X238131Y53715
X256931Y44915
X259731Y47715
X251531Y42315
X259131Y34515
X271731Y47115
X278331Y53115
X284331Y60915
X278331Y67515
X271731Y64515
X279531Y74715
X284331Y82515
X285531Y88515
X275931Y91515
X272331Y89115
X269331Y93115
X269331Y97515
X269331Y100915
X275931Y102715
X279731Y107715
X293931Y101115
X304931Y97515
X293931Y79115
X293931Y57515
X285531Y45315
X284931Y39315
X279931Y34315
X277531Y31515
X283531Y23915
X293931Y35915
X247731Y74715
X251331Y81915
X242531Y98715
X250531Y109515
X237531Y112715
X192731Y134463
X220531Y172063
X213131Y177063
X256131Y188263
X260531Y194663
X120131Y153663
X117531Y156663
X111531Y155115
X106731Y155115
X95931Y145515
X98931Y142515
X112131Y133463
X121931Y136863
X86931Y167715
X93531Y169515
X70331Y162063
X63331Y162715
X63931Y155515
X68931Y152115
X64946Y149352
X56331Y152115
X55146Y162452
T03
X144311Y35155
T04
X92331Y48315
X89931Y35915
X61131Y21915
X56331Y93915
X45531Y103515
X122931Y96915
X163731Y105315
X173931Y125115
X197931Y99915
X268131Y51915
X270531Y24315
X270531Y15915
T05
X22131Y17563
X32131Y17563
X32131Y27563
X22131Y27563
X22131Y37563
X32131Y37563
X32131Y47563
X22131Y47563
X22131Y57563
X32131Y57563
X32131Y67563
X22131Y67563
X22131Y77563
X32131Y77563
X98131Y27515
X108131Y27515
X118131Y27515
X128131Y27515
X138131Y27515
X148131Y27515
X158131Y27515
X168131Y27515
X178131Y27515
X188131Y27515
X198131Y27515
X208131Y27515
X218131Y27515
X228131Y27515
X238131Y27515
X248131Y27515
X312331Y23715
X312331Y33715
X312331Y43715
X312331Y53715
X312331Y63715
X312331Y73715
X312331Y83715
X312331Y93715
X315731Y105463
X305731Y105463
X305731Y115463
X315731Y115463
X315731Y125463
X305731Y125463
X305731Y135463
X315731Y135463
X315731Y145463
X305731Y145463
X305731Y155463
X315731Y155463
X315731Y165463
X305731Y165463
X305731Y175463
X315731Y175463
X315731Y185463
X305731Y185463
X305731Y195463
X315731Y195463
X217131Y193263
X207131Y193263
X197131Y193263
X187131Y193263
X177131Y193263
X167131Y193263
X157131Y193263
X147131Y193263
X137131Y193263
X127131Y193263
X117131Y193263
X107131Y193263
X97131Y193263
X97131Y183263
X107131Y183263
X117131Y183263
X127131Y183263
X137131Y183263
X147131Y183263
X157131Y183263
X167131Y183263
X177131Y183263
X187131Y183263
X197131Y183263
X207131Y183263
X217131Y183263
X100131Y168915
X57131Y196215
X47131Y196215
T06
X235070Y164079
X284691Y148479
M30
