G75*
%MOIN*%
%OFA0B0*%
%FSLAX24Y24*%
%IPPOS*%
%LPD*%
%AMOC8*
5,1,8,0,0,1.08239X$1,22.5*
%
%ADD10C,0.0000*%
%ADD11C,0.0030*%
D10*
X000559Y000331D02*
X000559Y012142D01*
X037929Y012142D01*
X037929Y000331D01*
X000559Y000331D01*
D11*
X005769Y009526D02*
X005914Y009623D01*
X005769Y009719D01*
X005914Y009816D02*
X005914Y009526D01*
X006015Y009526D02*
X006209Y009526D01*
X006112Y009526D02*
X006112Y009816D01*
X006209Y009719D01*
X003937Y010835D02*
X003743Y011029D01*
X003743Y010835D01*
X003791Y010787D01*
X003888Y010787D01*
X003937Y010835D01*
X003937Y011029D01*
X003888Y011077D01*
X003791Y011077D01*
X003743Y011029D01*
X003495Y011029D02*
X003446Y011077D01*
X003350Y011077D01*
X003301Y011029D01*
X003495Y010835D01*
X003446Y010787D01*
X003350Y010787D01*
X003301Y010835D01*
X003301Y011029D01*
X003200Y010980D02*
X003103Y011077D01*
X003103Y010787D01*
X003200Y010787D02*
X003006Y010787D01*
X003495Y010835D02*
X003495Y011029D01*
X003594Y010835D02*
X003594Y010787D01*
X003642Y010787D01*
X003642Y010835D01*
X003594Y010835D01*
X005339Y011136D02*
X005484Y011233D01*
X005339Y011329D01*
X005484Y011426D02*
X005484Y011136D01*
X005585Y011136D02*
X005779Y011136D01*
X005682Y011136D02*
X005682Y011426D01*
X005779Y011329D01*
M02*
