G75*
%MOIN*%
%OFA0B0*%
%FSLAX24Y24*%
%IPPOS*%
%LPD*%
%AMOC8*
5,1,8,0,0,1.08239X$1,22.5*
%
%ADD10C,0.0000*%
%ADD11R,0.0120X0.0260*%
%ADD12R,0.0990X0.0370*%
%ADD13C,0.0220*%
%ADD14R,0.0709X0.0630*%
%ADD15R,0.0315X0.0315*%
%ADD16C,0.0480*%
%ADD17R,0.0630X0.0710*%
%ADD18C,0.0600*%
%ADD19R,0.0080X0.0330*%
%ADD20R,0.0770X0.0960*%
%ADD21C,0.0060*%
%ADD22R,0.0394X0.0433*%
%ADD23R,0.0433X0.0394*%
%ADD24R,0.0591X0.0768*%
%ADD25R,0.0118X0.0531*%
%ADD26R,0.0531X0.0118*%
%ADD27OC8,0.0480*%
%ADD28R,0.0650X0.1220*%
%ADD29C,0.0055*%
%ADD30C,0.0270*%
%ADD31R,0.0380X0.1320*%
%ADD32C,0.0591*%
%ADD33R,0.1220X0.0390*%
%ADD34R,0.0590X0.0790*%
%ADD35R,0.1500X0.0790*%
%ADD36R,0.0551X0.0276*%
%ADD37R,0.0236X0.0197*%
%ADD38R,0.0197X0.0236*%
%ADD39R,0.0315X0.0118*%
%ADD40R,0.0118X0.0315*%
%ADD41R,0.0315X0.0138*%
%ADD42R,0.0138X0.0335*%
%ADD43R,0.1102X0.1024*%
%ADD44C,0.0160*%
%ADD45C,0.0120*%
%ADD46C,0.0320*%
%ADD47C,0.0240*%
%ADD48C,0.0100*%
%ADD49C,0.0080*%
%ADD50C,0.0356*%
%ADD51C,0.0360*%
%ADD52C,0.0317*%
%ADD53C,0.0240*%
D10*
X000559Y000331D02*
X000559Y012142D01*
X037929Y012142D01*
X037929Y000331D01*
X000559Y000331D01*
D11*
X009669Y002171D03*
X009859Y002171D03*
X010059Y002171D03*
X010259Y002171D03*
X010459Y002171D03*
X010649Y002171D03*
X010649Y002971D03*
X010459Y002971D03*
X010259Y002971D03*
X010059Y002971D03*
X009859Y002971D03*
X009669Y002971D03*
X013769Y002971D03*
X013959Y002971D03*
X014159Y002971D03*
X014359Y002971D03*
X014559Y002971D03*
X014749Y002971D03*
X014749Y002171D03*
X014559Y002171D03*
X014359Y002171D03*
X014159Y002171D03*
X013959Y002171D03*
X013769Y002171D03*
X017849Y002181D03*
X018039Y002181D03*
X018239Y002181D03*
X018439Y002181D03*
X018639Y002181D03*
X018829Y002181D03*
X018829Y002981D03*
X018639Y002981D03*
X018439Y002981D03*
X018239Y002981D03*
X018039Y002981D03*
X017849Y002981D03*
X021949Y002971D03*
X022139Y002971D03*
X022339Y002971D03*
X022539Y002971D03*
X022739Y002971D03*
X022929Y002971D03*
X022929Y002171D03*
X022739Y002171D03*
X022539Y002171D03*
X022339Y002171D03*
X022139Y002171D03*
X021949Y002171D03*
X006672Y008209D03*
X006482Y008209D03*
X006282Y008209D03*
X006082Y008209D03*
X005892Y008209D03*
X005892Y009009D03*
X006082Y009009D03*
X006282Y009009D03*
X006482Y009009D03*
X006672Y009009D03*
D12*
X006282Y008609D03*
D13*
X006282Y008609D03*
X006592Y008609D03*
X005972Y008609D03*
X009267Y008720D03*
X009587Y008720D03*
X009587Y009030D03*
X009267Y009030D03*
X009267Y009340D03*
X009587Y009340D03*
D14*
X003809Y010625D03*
X003809Y011727D03*
X003809Y006727D03*
X003809Y005625D03*
D15*
X006699Y002416D03*
X006699Y001826D03*
X007149Y009400D03*
X007149Y009991D03*
X006414Y010416D03*
X005823Y010416D03*
D16*
X007528Y010653D02*
X008008Y010653D01*
X008008Y011653D02*
X007528Y011653D01*
X002069Y009176D02*
X001589Y009176D01*
X001589Y008176D02*
X002069Y008176D01*
D17*
X003749Y007676D03*
X004868Y007676D03*
X005029Y006156D03*
X006148Y006156D03*
X004388Y009336D03*
X003269Y009336D03*
D18*
X002129Y010596D02*
X001529Y010596D01*
X001529Y011596D02*
X002129Y011596D01*
X013559Y011631D02*
X013559Y011031D01*
X014559Y011031D02*
X014559Y011631D01*
X015559Y011631D02*
X015559Y011031D01*
X016559Y011031D02*
X016559Y011631D01*
X017559Y011631D02*
X017559Y011031D01*
X018559Y011031D02*
X018559Y011631D01*
X019809Y011631D02*
X019809Y011031D01*
X020809Y011031D02*
X020809Y011631D01*
X023309Y011631D02*
X023309Y011031D01*
X024309Y011031D02*
X024309Y011631D01*
X025309Y011631D02*
X025309Y011031D01*
X026309Y011031D02*
X026309Y011631D01*
X027309Y011631D02*
X027309Y011031D01*
X028309Y011031D02*
X028309Y011631D01*
X029809Y011631D02*
X029809Y011031D01*
X030809Y011031D02*
X030809Y011631D01*
X031809Y011631D02*
X031809Y011031D01*
X032809Y011031D02*
X032809Y011631D01*
X033809Y011631D02*
X033809Y011031D01*
X034809Y011031D02*
X034809Y011631D01*
X035809Y011631D02*
X035809Y011031D01*
X036809Y011031D02*
X036809Y011631D01*
X037109Y010081D02*
X036509Y010081D01*
X036509Y009081D02*
X037109Y009081D01*
X037109Y008081D02*
X036509Y008081D01*
X036509Y007081D02*
X037109Y007081D01*
X037109Y005831D02*
X036509Y005831D01*
X036509Y004831D02*
X037109Y004831D01*
X023559Y001381D02*
X023559Y000781D01*
X022559Y000781D02*
X022559Y001381D01*
X021559Y001381D02*
X021559Y000781D01*
X020559Y000781D02*
X020559Y001381D01*
X019469Y001381D02*
X019469Y000781D01*
X018469Y000781D02*
X018469Y001381D01*
X017469Y001381D02*
X017469Y000781D01*
X016469Y000781D02*
X016469Y001381D01*
X015379Y001381D02*
X015379Y000781D01*
X014379Y000781D02*
X014379Y001381D01*
X013379Y001381D02*
X013379Y000781D01*
X012379Y000781D02*
X012379Y001381D01*
X011289Y001381D02*
X011289Y000781D01*
X010289Y000781D02*
X010289Y001381D01*
X009289Y001381D02*
X009289Y000781D01*
X008289Y000781D02*
X008289Y001381D01*
X002609Y005676D02*
X002009Y005676D01*
X002009Y006676D02*
X002609Y006676D01*
D19*
X009037Y008250D03*
X009187Y008250D03*
X009347Y008250D03*
X009507Y008250D03*
X009667Y008250D03*
X009817Y008250D03*
X009817Y009810D03*
X009667Y009810D03*
X009507Y009810D03*
X009347Y009810D03*
X009187Y009810D03*
X009037Y009810D03*
D20*
X009427Y009030D03*
D21*
X009807Y009410D02*
X009807Y009510D01*
X010077Y009510D01*
X010077Y009410D01*
X009807Y009410D01*
X009047Y009410D02*
X009047Y009510D01*
X008777Y009510D01*
X008777Y009410D01*
X009047Y009410D01*
X009047Y008650D02*
X009047Y008550D01*
X008777Y008550D01*
X008777Y008650D01*
X009047Y008650D01*
X009807Y008650D02*
X009807Y008550D01*
X010077Y008550D01*
X010077Y008650D01*
X009807Y008650D01*
D22*
X007919Y008346D03*
X007919Y007676D03*
X009984Y007051D03*
X010653Y007051D03*
X011599Y007386D03*
X011599Y006716D03*
X013999Y005786D03*
X013999Y005116D03*
X008159Y002936D03*
X007309Y002936D03*
X007309Y002266D03*
X008159Y002266D03*
X004919Y003754D03*
X004919Y004423D03*
X003795Y001468D03*
X003795Y000799D03*
X024309Y007246D03*
X024309Y007916D03*
X036809Y003916D03*
X036809Y003246D03*
X032109Y001686D03*
X032109Y001016D03*
X034309Y000996D03*
X035309Y000996D03*
X036309Y000996D03*
X036309Y001666D03*
X035309Y001666D03*
X034309Y001666D03*
X027809Y001666D03*
X027809Y000996D03*
X027809Y002496D03*
X027809Y003166D03*
X009533Y010891D03*
X008864Y010891D03*
X010464Y011691D03*
X011133Y011691D03*
X005853Y011771D03*
X005184Y011771D03*
D23*
X008864Y011691D03*
X009533Y011691D03*
X011663Y011773D03*
X012332Y011773D03*
X012332Y010893D03*
X011663Y010893D03*
X011133Y010891D03*
X010464Y010891D03*
X008079Y009946D03*
X008079Y009276D03*
X010784Y009291D03*
X011453Y009291D03*
X011453Y008491D03*
X010784Y008491D03*
X013199Y007706D03*
X014134Y007581D03*
X014803Y007581D03*
X013199Y007036D03*
X014144Y006891D03*
X014813Y006891D03*
X010694Y005804D03*
X010025Y005804D03*
X007149Y004596D03*
X006009Y004446D03*
X007149Y003926D03*
X006009Y003776D03*
X006859Y001356D03*
X006859Y000686D03*
X016024Y004931D03*
X016693Y004931D03*
X025559Y007246D03*
X026559Y007246D03*
X026559Y007916D03*
X025559Y007916D03*
X022059Y010996D03*
X022059Y011666D03*
X015773Y008571D03*
X015104Y008571D03*
X027224Y004331D03*
X027893Y004331D03*
D24*
X031059Y002122D03*
X031059Y001040D03*
X013119Y004830D03*
X013119Y005912D03*
D25*
X017828Y004534D03*
X018025Y004534D03*
X018222Y004534D03*
X018419Y004534D03*
X018616Y004534D03*
X018813Y004534D03*
X019010Y004534D03*
X019206Y004534D03*
X019403Y004534D03*
X019600Y004534D03*
X019797Y004534D03*
X019994Y004534D03*
X020191Y004534D03*
X020388Y004534D03*
X020584Y004534D03*
X020781Y004534D03*
X020978Y004534D03*
X021175Y004534D03*
X021372Y004534D03*
X021569Y004534D03*
X021569Y009908D03*
X021372Y009908D03*
X021175Y009908D03*
X020978Y009908D03*
X020781Y009908D03*
X020584Y009908D03*
X020388Y009908D03*
X020191Y009908D03*
X019994Y009908D03*
X019797Y009908D03*
X019600Y009908D03*
X019403Y009908D03*
X019206Y009908D03*
X019010Y009908D03*
X018813Y009908D03*
X018616Y009908D03*
X018419Y009908D03*
X018222Y009908D03*
X018025Y009908D03*
X017828Y009908D03*
D26*
X017012Y009091D03*
X017012Y008894D03*
X017012Y008697D03*
X017012Y008500D03*
X017012Y008304D03*
X017012Y008107D03*
X017012Y007910D03*
X017012Y007713D03*
X017012Y007516D03*
X017012Y007319D03*
X017012Y007123D03*
X017012Y006926D03*
X017012Y006729D03*
X017012Y006532D03*
X017012Y006335D03*
X017012Y006138D03*
X017012Y005941D03*
X017012Y005745D03*
X017012Y005548D03*
X017012Y005351D03*
X022386Y005351D03*
X022386Y005548D03*
X022386Y005745D03*
X022386Y005941D03*
X022386Y006138D03*
X022386Y006335D03*
X022386Y006532D03*
X022386Y006729D03*
X022386Y006926D03*
X022386Y007123D03*
X022386Y007319D03*
X022386Y007516D03*
X022386Y007713D03*
X022386Y007910D03*
X022386Y008107D03*
X022386Y008304D03*
X022386Y008500D03*
X022386Y008697D03*
X022386Y008894D03*
X022386Y009091D03*
D27*
X004093Y003707D03*
X003343Y003207D03*
X003343Y004207D03*
X001789Y001951D03*
X002289Y001201D03*
X001289Y001201D03*
D28*
X005431Y002821D03*
D29*
X005872Y002849D02*
X006152Y002849D01*
X006152Y002793D01*
X005872Y002793D01*
X005872Y002849D01*
X005872Y002847D02*
X006152Y002847D01*
X006152Y003046D02*
X005872Y003046D01*
X006152Y003046D02*
X006152Y002990D01*
X005872Y002990D01*
X005872Y003046D01*
X005872Y003044D02*
X006152Y003044D01*
X006152Y003243D02*
X005872Y003243D01*
X006152Y003243D02*
X006152Y003187D01*
X005872Y003187D01*
X005872Y003243D01*
X005872Y003241D02*
X006152Y003241D01*
X004990Y003187D02*
X004710Y003187D01*
X004710Y003243D01*
X004990Y003243D01*
X004990Y003187D01*
X004990Y003241D02*
X004710Y003241D01*
X004710Y002990D02*
X004990Y002990D01*
X004710Y002990D02*
X004710Y003046D01*
X004990Y003046D01*
X004990Y002990D01*
X004990Y003044D02*
X004710Y003044D01*
X004710Y002793D02*
X004990Y002793D01*
X004710Y002793D02*
X004710Y002849D01*
X004990Y002849D01*
X004990Y002793D01*
X004990Y002847D02*
X004710Y002847D01*
X004710Y002596D02*
X004990Y002596D01*
X004710Y002596D02*
X004710Y002652D01*
X004990Y002652D01*
X004990Y002596D01*
X004990Y002650D02*
X004710Y002650D01*
X004710Y002399D02*
X004990Y002399D01*
X004710Y002399D02*
X004710Y002455D01*
X004990Y002455D01*
X004990Y002399D01*
X004990Y002453D02*
X004710Y002453D01*
X005872Y002455D02*
X006152Y002455D01*
X006152Y002399D01*
X005872Y002399D01*
X005872Y002455D01*
X005872Y002453D02*
X006152Y002453D01*
X006152Y002652D02*
X005872Y002652D01*
X006152Y002652D02*
X006152Y002596D01*
X005872Y002596D01*
X005872Y002652D01*
X005872Y002650D02*
X006152Y002650D01*
D30*
X005601Y002521D03*
X005261Y002521D03*
X005431Y002821D03*
X005261Y003121D03*
X005601Y003121D03*
D31*
X005821Y001231D03*
X004891Y001231D03*
D32*
X002429Y002981D02*
X001838Y002981D01*
X001838Y003981D02*
X002429Y003981D01*
D33*
X010159Y002571D03*
X014259Y002571D03*
X018339Y002581D03*
X022439Y002571D03*
D34*
X009209Y006931D03*
X008309Y006931D03*
X007409Y006931D03*
D35*
X008319Y004451D03*
D36*
X016019Y006916D03*
X016019Y007586D03*
D37*
X030598Y004242D03*
X031189Y004242D03*
X031779Y004242D03*
X031779Y003100D03*
X031189Y003100D03*
X030598Y003100D03*
D38*
X030598Y003671D03*
D39*
X027059Y003246D03*
X027059Y003049D03*
X027059Y002853D03*
X027059Y002656D03*
X025878Y002656D03*
X025878Y002853D03*
X025878Y003049D03*
X025878Y003246D03*
D40*
X026173Y003541D03*
X026370Y003541D03*
X026567Y003541D03*
X026764Y003541D03*
X026764Y002360D03*
X026567Y002360D03*
X026370Y002360D03*
X026173Y002360D03*
D41*
X034051Y002989D03*
X034051Y003186D03*
X034051Y003383D03*
X034051Y003579D03*
X034051Y003776D03*
X034051Y003973D03*
X035626Y003973D03*
X035626Y003776D03*
X035626Y003579D03*
X035626Y003383D03*
X035626Y003186D03*
X035626Y002989D03*
D42*
X035331Y002703D03*
X035134Y002703D03*
X034937Y002703D03*
X034740Y002703D03*
X034543Y002703D03*
X034346Y002703D03*
X034346Y004259D03*
X034543Y004259D03*
X034740Y004259D03*
X034937Y004259D03*
X035134Y004259D03*
X035331Y004259D03*
D43*
X034839Y003481D03*
D44*
X021879Y002091D02*
X019979Y002091D01*
X017759Y002091D02*
X017359Y002091D01*
X013699Y002091D02*
X013189Y002091D01*
X009569Y002101D02*
X009519Y002091D01*
X009039Y002091D01*
X009039Y002891D01*
X008179Y002971D02*
X008159Y002936D01*
X008179Y002971D02*
X008179Y003371D01*
X007159Y003371D02*
X007159Y003871D01*
X007149Y003926D01*
X006719Y002921D02*
X006719Y002496D01*
X006699Y002416D01*
X006149Y002921D02*
X005922Y002921D01*
X004809Y002331D02*
X004809Y001411D01*
X004879Y001411D01*
X004879Y001231D01*
X004891Y001231D01*
X004809Y001411D02*
X003799Y001411D01*
X003795Y001468D01*
X003739Y001411D01*
X003499Y001411D01*
X002839Y000751D01*
X002799Y000611D01*
X006148Y006156D02*
X006179Y006146D01*
X005809Y006796D01*
X007919Y007676D02*
X008309Y007286D01*
X008309Y006931D01*
X003729Y007736D02*
X003323Y007736D01*
X003119Y007531D01*
X008048Y009955D02*
X008079Y009946D01*
X008048Y009955D02*
X007768Y010653D01*
X007846Y010891D01*
X008864Y010891D01*
X009533Y010891D02*
X009533Y011691D01*
X008864Y011691D02*
X007889Y011691D01*
X007768Y011653D01*
X006799Y011371D02*
X006799Y010891D01*
X005919Y010800D02*
X005919Y011051D01*
X005919Y010800D02*
X005823Y010416D01*
X006282Y010284D02*
X006284Y010305D01*
X006288Y010325D01*
X006296Y010344D01*
X006307Y010362D01*
X006321Y010377D01*
X006336Y010391D01*
X006354Y010402D01*
X006373Y010410D01*
X006393Y010414D01*
X006414Y010416D01*
X005179Y010411D02*
X005151Y010398D01*
X003809Y010406D02*
X003809Y010625D01*
X003809Y010656D01*
X004319Y011211D02*
X002804Y011211D01*
X001829Y010596D01*
X004319Y011211D02*
X004704Y011596D01*
X005184Y011771D01*
X005853Y011771D02*
X006399Y011771D01*
X006799Y011371D01*
D45*
X003809Y011676D02*
X003809Y011727D01*
X004929Y009836D02*
X004848Y009676D01*
X004388Y009336D01*
X005759Y009131D02*
X005839Y009131D01*
X005839Y008986D01*
X005839Y008971D01*
X005839Y008986D02*
X005889Y009036D01*
X005892Y009009D01*
X005839Y008251D02*
X005519Y008251D01*
X005759Y008091D02*
X005839Y008171D01*
X005839Y008251D01*
X005892Y008209D02*
X005774Y008091D01*
X005759Y008091D01*
X006289Y008156D02*
X006282Y008209D01*
X006672Y008209D02*
X006689Y008156D01*
X005108Y007436D02*
X004868Y007676D01*
X003809Y007656D02*
X003749Y007676D01*
X003729Y007736D01*
X003809Y006727D02*
X003809Y006716D01*
X002369Y006716D01*
X003809Y005676D02*
X003809Y005625D01*
X003809Y005596D01*
X009569Y002101D02*
X009669Y002171D01*
X009859Y002171D02*
X009859Y001891D01*
X009399Y001851D01*
X008239Y001611D01*
X008879Y001771D01*
X008079Y001291D01*
X008719Y001611D01*
X008399Y001291D01*
X008159Y001311D02*
X008079Y001451D01*
X008159Y001311D02*
X009179Y001831D01*
X009399Y001851D02*
X008899Y001771D01*
X008289Y001081D01*
X009289Y001081D02*
X009359Y001451D01*
X009879Y001671D01*
X009359Y001611D01*
X009359Y001451D01*
X009359Y001291D01*
X009879Y001671D01*
X010019Y001751D01*
X010059Y001831D01*
X010059Y002171D01*
X010259Y002171D02*
X010259Y001931D01*
X010239Y001691D01*
X010289Y001081D01*
X010919Y001671D02*
X011289Y001081D01*
X011039Y001531D02*
X010499Y001931D01*
X011279Y001611D01*
X010919Y001671D01*
X010319Y001771D02*
X010319Y001451D01*
X010479Y001451D01*
X010259Y001931D01*
X010319Y001771D01*
X010239Y001691D01*
X010159Y001451D01*
X010259Y001451D01*
X010259Y001931D01*
X010459Y001971D02*
X010459Y002171D01*
X010459Y001971D02*
X011039Y001531D01*
X012179Y001411D02*
X012259Y001271D01*
X013279Y001791D01*
X013499Y001811D02*
X012999Y001731D01*
X012389Y001041D01*
X012379Y001081D02*
X012459Y001711D01*
X013959Y001851D01*
X013499Y001811D01*
X012339Y001571D01*
X012979Y001731D01*
X012179Y001251D01*
X012819Y001571D01*
X012499Y001251D01*
X013379Y001081D02*
X013459Y001351D01*
X014099Y001691D01*
X014159Y001811D01*
X014159Y002171D01*
X014159Y002131D02*
X014159Y001791D01*
X014119Y001711D01*
X013979Y001631D01*
X013459Y001411D01*
X013389Y001041D01*
X013459Y001251D02*
X013459Y001411D01*
X013459Y001571D01*
X013979Y001631D01*
X013459Y001251D01*
X014259Y001411D02*
X014339Y001651D01*
X014389Y001041D01*
X014379Y001011D02*
X014379Y001081D01*
X014379Y001011D02*
X014359Y002171D01*
X014359Y002131D02*
X014359Y001891D01*
X014339Y001651D01*
X014419Y001731D01*
X014419Y001411D01*
X014579Y001411D01*
X014359Y001891D01*
X014419Y001731D01*
X014359Y001891D02*
X014359Y001411D01*
X014259Y001411D01*
X014599Y001891D02*
X015139Y001491D01*
X014559Y001931D01*
X014559Y002131D01*
X014559Y002171D02*
X014559Y001931D01*
X014599Y001891D01*
X015379Y001571D01*
X015019Y001631D01*
X015389Y001041D01*
X015379Y001081D02*
X015339Y001451D01*
X014599Y001891D01*
X013959Y001851D02*
X013959Y002131D01*
X013959Y002171D02*
X013959Y001851D01*
X013699Y002091D02*
X013699Y002171D01*
X013769Y002171D01*
X016259Y001431D02*
X016339Y001291D01*
X017359Y001811D01*
X017179Y001771D02*
X016459Y001411D01*
X016469Y001081D01*
X016469Y001061D02*
X017079Y001751D01*
X017579Y001831D01*
X016419Y001591D01*
X017059Y001751D01*
X016259Y001271D01*
X016899Y001591D01*
X016579Y001271D01*
X017469Y001081D02*
X017599Y001431D01*
X018179Y001711D01*
X018239Y001791D01*
X018239Y002181D01*
X018239Y002151D02*
X018239Y001811D01*
X018199Y001731D01*
X018059Y001651D01*
X017539Y001431D01*
X017469Y001061D01*
X017539Y001271D02*
X017539Y001431D01*
X017539Y001591D01*
X018059Y001651D01*
X017539Y001271D01*
X018339Y001431D02*
X018419Y001671D01*
X018469Y001061D01*
X018469Y001081D02*
X018439Y002181D01*
X018439Y002151D02*
X018439Y001911D01*
X018419Y001671D01*
X018499Y001751D01*
X018499Y001431D01*
X018659Y001431D01*
X018439Y001911D01*
X018499Y001751D01*
X018439Y001911D02*
X018439Y001431D01*
X018339Y001431D01*
X018679Y001911D02*
X019219Y001511D01*
X018639Y001951D01*
X018639Y002151D01*
X018639Y002181D02*
X018639Y001951D01*
X019459Y001411D01*
X019469Y001081D01*
X019469Y001061D02*
X019099Y001651D01*
X019459Y001591D01*
X018679Y001911D01*
X018039Y001871D02*
X018039Y002151D01*
X018039Y002181D02*
X018039Y001871D01*
X017579Y001831D01*
X017179Y001771D02*
X018039Y001871D01*
X017759Y002091D02*
X017759Y002181D01*
X017849Y002181D01*
X020359Y001431D02*
X020439Y001291D01*
X021359Y001781D01*
X020739Y001511D01*
X020559Y001081D01*
X020569Y001061D02*
X021179Y001751D01*
X021679Y001831D01*
X020519Y001591D01*
X021159Y001751D01*
X020359Y001271D01*
X020999Y001591D01*
X020679Y001271D01*
X021559Y001081D02*
X022059Y001571D01*
X022339Y001791D01*
X022339Y002171D01*
X022339Y002151D02*
X022339Y001811D01*
X022299Y001731D01*
X022159Y001651D01*
X021639Y001431D01*
X021569Y001061D01*
X021639Y001271D02*
X021639Y001431D01*
X021639Y001591D01*
X022159Y001651D01*
X021639Y001271D01*
X022439Y001431D02*
X022519Y001671D01*
X022569Y001061D01*
X022559Y001081D02*
X022539Y002171D01*
X022539Y002151D02*
X022539Y001911D01*
X022519Y001671D01*
X022599Y001751D01*
X022599Y001431D01*
X022759Y001431D01*
X022539Y001911D01*
X022599Y001751D01*
X022539Y001911D02*
X022539Y001431D01*
X022439Y001431D01*
X022779Y001911D02*
X023319Y001511D01*
X022739Y001951D01*
X022739Y002151D01*
X022739Y002171D02*
X022739Y001951D01*
X023599Y001391D01*
X023559Y001081D01*
X023569Y001061D02*
X023199Y001651D01*
X023559Y001591D01*
X022779Y001911D01*
X022139Y001891D02*
X021359Y001781D01*
X021679Y001831D02*
X022139Y001871D01*
X022139Y002131D01*
X022139Y002171D02*
X022139Y001891D01*
X021879Y002091D02*
X021879Y002171D01*
X021949Y002171D01*
X010173Y009931D02*
X010159Y009931D01*
D46*
X005759Y009131D02*
X005151Y010398D01*
X004799Y011131D01*
X003809Y011727D02*
X003757Y011676D01*
X001829Y011596D01*
X000889Y011676D01*
X000889Y004891D01*
X004079Y004891D01*
X004719Y005211D01*
X006679Y005291D01*
X007409Y006931D01*
X005614Y008156D02*
X005559Y008156D01*
X005309Y008406D01*
X003193Y008406D01*
X002479Y007691D01*
X002479Y006846D01*
X002599Y006727D02*
X002269Y006727D01*
X002599Y006727D02*
X003809Y006727D01*
X003809Y005676D02*
X002309Y005676D01*
X000889Y004891D02*
X000869Y001681D01*
X001289Y001201D01*
X001819Y000611D01*
X002799Y000611D01*
X002479Y001211D02*
X002479Y002641D01*
X003343Y002641D01*
X003343Y003207D01*
X002479Y002641D02*
X002133Y002981D01*
X006719Y002921D02*
X006704Y003371D01*
X007159Y003371D01*
X008179Y003371D01*
X009039Y003371D01*
X009039Y002891D01*
X007309Y002936D02*
X006704Y003371D01*
X002479Y001211D02*
X002289Y001201D01*
X005614Y008156D02*
X005519Y008251D01*
D47*
X005809Y007756D03*
X006169Y007716D03*
X007519Y008371D03*
X008559Y008331D03*
X009039Y007851D03*
X009669Y007851D03*
X010039Y008301D03*
X011119Y007621D03*
X010319Y007531D03*
X012219Y007731D03*
X012559Y008071D03*
X013699Y007791D03*
X013699Y007471D03*
X015399Y007851D03*
X016219Y007931D03*
X017479Y008371D03*
X017479Y008691D03*
X017699Y008931D03*
X016539Y009011D03*
X015499Y009111D03*
X015119Y008971D03*
X014679Y008651D03*
X014339Y008991D03*
X014279Y008111D03*
X013939Y008111D03*
X011479Y008911D03*
X010319Y009391D03*
X010159Y009931D03*
X010999Y010151D03*
X008539Y009551D03*
X005969Y009596D03*
X004929Y009836D03*
X003379Y009931D03*
X009199Y011271D03*
X010039Y011671D03*
X012319Y011371D03*
X017299Y009931D03*
X017779Y010411D03*
X020179Y009451D03*
X021479Y009271D03*
X021759Y009051D03*
X020879Y008811D03*
X021359Y008571D03*
X020859Y008331D03*
X020879Y008011D03*
X019899Y008171D03*
X020299Y008571D03*
X017719Y008151D03*
X018119Y007531D03*
X017479Y007171D03*
X017639Y006871D03*
X017479Y006571D03*
X016339Y006551D03*
X015619Y006031D03*
X016519Y005731D03*
X017479Y005491D03*
X017679Y006091D03*
X019539Y006091D03*
X020479Y006331D03*
X020639Y006031D03*
X021279Y006371D03*
X021519Y006591D03*
X021519Y006911D03*
X021519Y007271D03*
X021919Y007271D03*
X021739Y007551D03*
X022859Y007351D03*
X023319Y007611D03*
X023919Y007591D03*
X022859Y007831D03*
X023319Y008091D03*
X023559Y008331D03*
X023079Y008571D03*
X023959Y008831D03*
X023719Y009051D03*
X024019Y009211D03*
X024979Y009111D03*
X025319Y009451D03*
X025559Y009691D03*
X026079Y009751D03*
X026079Y009431D03*
X027059Y009191D03*
X027239Y009471D03*
X028079Y009511D03*
X028079Y009831D03*
X027839Y010051D03*
X028079Y010331D03*
X028559Y010351D03*
X028759Y010091D03*
X028559Y009831D03*
X028559Y009511D03*
X028559Y009191D03*
X028079Y009191D03*
X029139Y008951D03*
X028079Y008531D03*
X027559Y008351D03*
X025999Y007691D03*
X025019Y007671D03*
X025999Y007111D03*
X025519Y006831D03*
X025539Y006511D03*
X026019Y006491D03*
X026179Y006151D03*
X025539Y006151D03*
X026699Y006151D03*
X027179Y006371D03*
X027839Y006611D03*
X028079Y006851D03*
X028559Y006851D03*
X029159Y006611D03*
X028239Y006371D03*
X028579Y006031D03*
X026699Y005551D03*
X026179Y005511D03*
X025539Y005471D03*
X025539Y005131D03*
X026179Y005191D03*
X026179Y004871D03*
X026699Y004911D03*
X027179Y004971D03*
X027399Y004731D03*
X026699Y004591D03*
X026179Y004391D03*
X025699Y004591D03*
X025459Y004811D03*
X026699Y005231D03*
X027759Y005211D03*
X028339Y004351D03*
X027019Y003931D03*
X026539Y003991D03*
X026719Y002971D03*
X027079Y002371D03*
X027379Y002371D03*
X027379Y001891D03*
X028219Y000991D03*
X031579Y001051D03*
X034819Y000991D03*
X034939Y002011D03*
X035359Y002311D03*
X037219Y003271D03*
X035659Y004231D03*
X034359Y004631D03*
X034779Y005051D03*
X034159Y005791D03*
X035059Y006691D03*
X030029Y008451D03*
X028569Y007521D03*
X028079Y007351D03*
X027179Y007351D03*
X027179Y006831D03*
X023839Y005911D03*
X022859Y005811D03*
X021919Y006051D03*
X021759Y006351D03*
X021619Y005891D03*
X021759Y005571D03*
X020639Y005331D03*
X020599Y005011D03*
X022099Y005071D03*
X022039Y004511D03*
X021679Y003091D03*
X023239Y002491D03*
X019679Y002491D03*
X019179Y002661D03*
X017599Y002971D03*
X015079Y002491D03*
X013219Y003031D03*
X012259Y002791D03*
X011719Y002491D03*
X011009Y002511D03*
X009039Y002891D03*
X009859Y003311D03*
X007649Y003791D03*
X005479Y004471D03*
X008719Y005931D03*
X009259Y006331D03*
X010199Y006321D03*
X011119Y005791D03*
X011719Y005531D03*
X012299Y006011D03*
X013619Y006311D03*
X012919Y006631D03*
X012019Y006751D03*
X014479Y005391D03*
X014959Y005371D03*
X013579Y005371D03*
X012679Y005371D03*
X013639Y004771D03*
X014119Y004411D03*
X015919Y004531D03*
X014119Y003511D03*
X012259Y003871D03*
X007759Y002251D03*
X006439Y000691D03*
X003379Y000811D03*
X020479Y006671D03*
X019839Y006971D03*
X019359Y007451D03*
X015639Y007251D03*
X023079Y009051D03*
X024319Y008351D03*
X024659Y008351D03*
X024699Y009691D03*
X023959Y009811D03*
X024439Y009951D03*
X025559Y010291D03*
X026079Y010291D03*
X027059Y010351D03*
X027219Y010051D03*
X027059Y009751D03*
X029779Y010071D03*
X031579Y009851D03*
X032059Y010331D03*
X033579Y009851D03*
X034059Y010331D03*
X035839Y009671D03*
X023839Y010531D03*
X023079Y010511D03*
X023079Y010191D03*
X022759Y010171D03*
X022419Y010171D03*
X021859Y009931D03*
X021499Y010391D03*
X022459Y011671D03*
X005809Y006796D03*
X030319Y003691D03*
D48*
X017012Y006138D02*
X015619Y006138D01*
X015619Y006031D01*
X013639Y005071D02*
X013639Y004771D01*
X013159Y004831D02*
X013119Y004830D01*
X013159Y004831D02*
X013159Y005071D01*
X015919Y004951D02*
X015919Y004531D01*
X010025Y005804D02*
X009898Y005931D01*
X009898Y006965D01*
X009984Y007051D01*
X010639Y007051D02*
X010653Y007051D01*
X010639Y007051D02*
X010639Y007851D01*
X010319Y007851D01*
X010319Y008651D01*
X010784Y009116D01*
X010784Y009291D01*
X010784Y008491D02*
X010784Y008186D01*
X011119Y007851D01*
X011119Y007621D01*
X011119Y007560D01*
X011293Y007386D01*
X011599Y007386D01*
X010319Y007531D02*
X009359Y007531D01*
X008879Y007531D01*
X008289Y008121D01*
X008289Y008601D01*
X008139Y008751D01*
X007279Y008751D01*
X007219Y008691D01*
X007219Y008011D01*
X007409Y007821D01*
X007409Y006931D01*
X006689Y007126D02*
X004369Y007126D01*
X003809Y007656D01*
X005108Y007436D02*
X006482Y007436D01*
X006482Y008209D01*
X006289Y008156D02*
X006289Y007836D01*
X006169Y007716D01*
X006082Y008029D02*
X005809Y007756D01*
X006082Y008029D02*
X006082Y008209D01*
X006689Y008156D02*
X006689Y007126D01*
X009669Y007851D02*
X010319Y007851D01*
X009359Y008238D02*
X009347Y008250D01*
X008559Y008331D02*
X008559Y008651D01*
X008079Y009131D01*
X008079Y009276D01*
X007149Y009400D02*
X007063Y009400D01*
X006672Y009009D01*
X006482Y009009D02*
X006482Y009314D01*
X006589Y009421D01*
X006082Y009596D02*
X006082Y009009D01*
X006282Y009009D02*
X006282Y010284D01*
X006799Y009991D02*
X006799Y009771D01*
X006799Y009991D02*
X007149Y009991D01*
X006082Y009596D02*
X005969Y009596D01*
X009507Y010864D02*
X009533Y010891D01*
X011133Y011691D02*
X011581Y011691D01*
X011663Y011773D01*
X009898Y005931D02*
X008719Y005931D01*
X006012Y003018D02*
X006012Y002821D01*
X006199Y002921D01*
X006012Y002921D02*
X006012Y002821D01*
X006012Y002921D02*
X005922Y002921D01*
X004850Y002624D02*
X004402Y002624D01*
X004349Y002571D01*
X004809Y002331D02*
X004850Y002331D01*
X004850Y002427D01*
D49*
X005261Y002521D02*
X005279Y002531D01*
X005599Y002531D01*
X005431Y002821D01*
X005419Y002851D01*
X004850Y003018D02*
X004819Y003031D01*
X004499Y003031D01*
X004499Y004661D01*
X004819Y004891D01*
X006569Y004891D01*
X006569Y003921D01*
X006019Y003931D01*
X006009Y003776D01*
X004919Y003754D02*
X004879Y003751D01*
X004879Y003211D01*
X004850Y003215D01*
X006012Y002624D02*
X006019Y002611D01*
X006019Y002431D01*
X006012Y002427D01*
X005959Y002431D01*
X005899Y002371D01*
X005899Y001291D01*
X005839Y001231D01*
X005821Y001231D01*
X006859Y001356D02*
X006859Y001651D01*
X006739Y001771D01*
X006699Y001826D01*
X007309Y002266D02*
X007339Y002251D01*
X007759Y002251D01*
X008119Y002251D01*
X008159Y002266D01*
X010159Y002551D02*
X010159Y002571D01*
X010159Y002551D02*
X010639Y002551D01*
X010639Y002191D01*
X010649Y002171D01*
X010699Y002191D01*
X011009Y002511D01*
X011299Y002791D02*
X011299Y003031D01*
X010649Y003031D01*
X010649Y002971D01*
X010459Y002971D02*
X010459Y003271D01*
X013219Y003271D01*
X013219Y003031D01*
X013519Y002791D02*
X013759Y003031D01*
X013769Y002971D01*
X013769Y003781D01*
X017479Y003781D01*
X017479Y004351D01*
X017809Y004351D01*
X017809Y004534D01*
X017828Y004534D01*
X018019Y004534D02*
X018019Y005011D01*
X017599Y005011D01*
X017599Y004561D01*
X017299Y004561D01*
X017299Y003961D01*
X013219Y003961D01*
X013219Y003481D01*
X010259Y003481D01*
X010259Y002971D01*
X010079Y002991D02*
X010079Y003191D01*
X010099Y003211D01*
X010099Y003551D01*
X011879Y005331D01*
X011879Y005351D01*
X011899Y005371D01*
X012679Y005371D01*
X013579Y005371D01*
X013639Y005371D01*
X013639Y005071D02*
X013159Y005071D01*
X013639Y005071D02*
X013999Y005071D01*
X013999Y005116D01*
X014119Y004411D02*
X014719Y005011D01*
X014719Y005611D01*
X016039Y005611D01*
X016039Y005971D01*
X017012Y005971D01*
X017012Y005941D01*
X016999Y005971D01*
X017012Y005745D02*
X017099Y005731D01*
X017439Y005731D01*
X017439Y006191D01*
X017879Y006631D01*
X017879Y007631D01*
X018419Y008171D01*
X019899Y008171D01*
X020139Y008071D02*
X019599Y007531D01*
X019599Y006371D01*
X020639Y005331D01*
X020879Y005211D02*
X020879Y008011D01*
X021039Y007831D02*
X021119Y007911D01*
X021119Y009251D01*
X021379Y009511D01*
X021859Y009511D01*
X021859Y009591D01*
X022419Y010151D01*
X022419Y010171D01*
X022759Y010171D02*
X021999Y009411D01*
X021999Y008491D01*
X022299Y008491D01*
X022386Y008500D01*
X022339Y008491D01*
X022399Y008671D02*
X022386Y008697D01*
X022419Y008691D01*
X023079Y008691D01*
X023079Y008571D01*
X023479Y008411D02*
X023479Y010511D01*
X024299Y011331D01*
X024309Y011331D01*
X023319Y011331D02*
X023309Y011331D01*
X023319Y011331D02*
X023319Y008091D01*
X023219Y007851D02*
X023079Y007991D01*
X023079Y008311D01*
X022439Y008311D01*
X022386Y008304D01*
X022399Y008311D01*
X022359Y008111D02*
X022386Y008107D01*
X022399Y008071D01*
X022359Y008111D02*
X022079Y008111D01*
X021759Y008431D01*
X021759Y009051D01*
X021599Y008831D02*
X021479Y008951D01*
X021479Y009271D01*
X022379Y009131D02*
X022386Y009091D01*
X022399Y009091D01*
X022379Y009131D02*
X023079Y009831D01*
X023079Y010191D01*
X023719Y009911D02*
X023859Y010051D01*
X024439Y010051D01*
X024439Y009951D01*
X024239Y009811D02*
X024359Y009691D01*
X024699Y009691D01*
X025079Y009651D02*
X025079Y009351D01*
X025219Y009211D01*
X026079Y009211D01*
X026079Y009431D01*
X026079Y009691D02*
X025559Y009691D01*
X026079Y009691D02*
X026079Y009751D01*
X025319Y009451D02*
X025319Y011331D01*
X025309Y011331D01*
X026309Y011331D02*
X026319Y011331D01*
X026319Y008831D01*
X023959Y008831D01*
X024219Y008591D02*
X028079Y008591D01*
X028079Y008531D01*
X027559Y008351D02*
X024659Y008351D01*
X024319Y008351D02*
X024319Y007931D01*
X024309Y007916D01*
X023979Y007851D02*
X023979Y008351D01*
X024219Y008591D01*
X023559Y008331D02*
X023479Y008411D01*
X023219Y007851D02*
X023979Y007851D01*
X023919Y007591D02*
X023319Y007591D01*
X023319Y007611D01*
X023079Y007611D02*
X023079Y007471D01*
X023099Y007451D01*
X023099Y007111D01*
X022419Y007111D01*
X022386Y007123D01*
X022339Y007111D01*
X022339Y006931D02*
X022386Y006926D01*
X022299Y006931D01*
X021919Y006931D01*
X021519Y007271D01*
X021919Y007271D02*
X021999Y007351D01*
X021999Y007431D01*
X022099Y007531D01*
X022299Y007531D01*
X022386Y007516D01*
X022339Y007531D01*
X022419Y007331D02*
X022386Y007319D01*
X022399Y007291D01*
X022419Y007331D02*
X022859Y007331D01*
X022859Y007351D01*
X023099Y007111D02*
X024279Y007111D01*
X024279Y007231D01*
X024309Y007246D01*
X024319Y007251D01*
X024479Y007411D01*
X024479Y007471D01*
X024919Y007911D01*
X025559Y007911D01*
X025559Y007916D01*
X025579Y007931D01*
X026559Y007931D01*
X026559Y007916D01*
X026579Y007891D01*
X026939Y007531D01*
X026939Y004251D01*
X026959Y004231D01*
X026779Y004051D01*
X026779Y003571D01*
X026764Y003541D01*
X026779Y003511D01*
X028039Y003511D01*
X028159Y003391D01*
X028159Y002851D01*
X031099Y002851D01*
X031099Y003031D01*
X031159Y003091D01*
X031189Y003100D01*
X031219Y003091D01*
X031759Y003091D01*
X031779Y003100D01*
X031099Y002851D02*
X031099Y002131D01*
X031059Y002122D01*
X031099Y002071D01*
X031099Y001711D01*
X032059Y001711D01*
X032109Y001686D01*
X032119Y001651D01*
X034279Y001651D01*
X034309Y001666D01*
X034339Y001711D01*
X034519Y001891D01*
X034519Y002011D01*
X034939Y002011D01*
X035299Y002011D02*
X035299Y001711D01*
X035309Y001666D01*
X035299Y002011D02*
X034939Y002371D01*
X034939Y002671D01*
X034937Y002703D01*
X034759Y002731D02*
X034740Y002703D01*
X034759Y002731D02*
X034759Y003991D01*
X034839Y003481D01*
X035119Y003991D01*
X035119Y002731D01*
X035134Y002703D01*
X035359Y002311D02*
X035839Y002791D01*
X035659Y002971D01*
X035626Y002989D01*
X035839Y002791D02*
X036259Y002371D01*
X036259Y001711D01*
X036309Y001666D01*
X036309Y000996D02*
X036259Y000991D01*
X035359Y000991D01*
X035309Y000996D01*
X035299Y000991D01*
X034819Y000991D01*
X034339Y000991D01*
X034309Y000996D01*
X032109Y001016D02*
X032059Y001051D01*
X031579Y001051D01*
X031099Y001051D01*
X031059Y001040D01*
X028219Y000991D02*
X027859Y000991D01*
X027809Y000996D01*
X027809Y001666D02*
X027799Y001711D01*
X027799Y001891D01*
X027379Y001891D01*
X027799Y002131D02*
X026959Y002131D01*
X026779Y002311D01*
X026764Y002360D01*
X027079Y002371D02*
X027079Y002611D01*
X027059Y002656D01*
X027079Y002851D02*
X027059Y002853D01*
X027079Y002851D02*
X027379Y002851D01*
X027379Y002371D01*
X027799Y002491D02*
X027799Y002131D01*
X027799Y002491D02*
X027809Y002496D01*
X027059Y003049D02*
X027019Y003031D01*
X026719Y003031D01*
X026719Y002971D01*
X026479Y003031D02*
X026479Y003091D01*
X026779Y003391D01*
X026779Y003511D01*
X027059Y003246D02*
X027079Y003211D01*
X027799Y003211D01*
X027809Y003166D01*
X026479Y003031D02*
X025879Y003031D01*
X025878Y003049D01*
X025819Y003031D01*
X025639Y003031D01*
X025579Y002971D01*
X025579Y002671D01*
X025819Y002671D01*
X025878Y002656D01*
X025878Y003246D02*
X025879Y003271D01*
X025939Y003331D01*
X025939Y004631D01*
X026279Y004631D01*
X026319Y004591D01*
X026699Y004591D01*
X027019Y004291D02*
X026959Y004231D01*
X027019Y004291D02*
X027199Y004291D01*
X027224Y004331D01*
X027893Y004331D02*
X027919Y004351D01*
X028339Y004351D01*
X028579Y004231D02*
X028279Y003931D01*
X027019Y003931D01*
X026539Y003991D02*
X026419Y003991D01*
X026399Y004011D01*
X026399Y004171D01*
X026179Y004391D01*
X025779Y004671D02*
X025699Y004591D01*
X025779Y004671D02*
X025779Y006611D01*
X025759Y006631D01*
X025759Y007031D01*
X025559Y007231D01*
X025559Y007246D01*
X025539Y007271D01*
X025379Y007431D01*
X025379Y007451D01*
X025159Y007671D01*
X025019Y007671D01*
X025999Y007691D02*
X025999Y007111D01*
X025939Y006611D02*
X026559Y007231D01*
X026559Y007246D01*
X027179Y007351D02*
X028079Y007351D01*
X028569Y007521D02*
X029099Y007521D01*
X030029Y008451D01*
X030519Y008551D02*
X035759Y008551D01*
X035759Y009591D01*
X035839Y009671D01*
X036079Y009571D02*
X036079Y010611D01*
X036799Y011331D01*
X036809Y011331D01*
X035809Y011331D02*
X035799Y011331D01*
X035259Y010791D01*
X035259Y008711D01*
X029039Y008711D01*
X028559Y009191D01*
X028079Y009191D02*
X027059Y009191D01*
X027239Y009471D02*
X028079Y009471D01*
X028079Y009511D01*
X028079Y009751D02*
X027059Y009751D01*
X027219Y010051D02*
X027839Y010051D01*
X028079Y009831D02*
X028079Y009751D01*
X028559Y009831D02*
X031579Y009831D01*
X031579Y009851D01*
X031459Y010071D02*
X031459Y010991D01*
X031799Y011331D01*
X031809Y011331D01*
X030809Y011331D02*
X030799Y011331D01*
X030799Y010611D01*
X029279Y010611D01*
X028759Y010091D01*
X028779Y010351D02*
X029759Y011331D01*
X029809Y011331D01*
X028319Y011331D02*
X028309Y011331D01*
X028319Y011331D02*
X028319Y006611D01*
X027839Y006611D01*
X027739Y006831D02*
X027179Y006831D01*
X027739Y006831D02*
X027759Y006851D01*
X028079Y006851D01*
X028559Y006851D02*
X028819Y006851D01*
X030519Y008551D01*
X029139Y008951D02*
X033819Y008951D01*
X033819Y011331D01*
X033809Y011331D01*
X032809Y011331D02*
X032799Y011331D01*
X032799Y011071D01*
X032059Y010331D01*
X031459Y010071D02*
X029779Y010071D01*
X028779Y010351D02*
X028559Y010351D01*
X028079Y010331D02*
X028079Y010351D01*
X027059Y010351D01*
X026079Y010291D02*
X025559Y010291D01*
X025079Y009651D02*
X024539Y010191D01*
X024539Y010531D01*
X023839Y010531D01*
X023079Y010511D02*
X022419Y010511D01*
X022299Y010391D01*
X021499Y010391D01*
X021259Y010291D02*
X021199Y010231D01*
X021199Y009931D01*
X021175Y009908D01*
X021569Y009908D02*
X021619Y009931D01*
X021859Y009931D01*
X021259Y010291D02*
X021259Y010951D01*
X022039Y010951D01*
X022059Y010996D01*
X020809Y011331D02*
X020779Y011371D01*
X019579Y010171D01*
X019579Y009931D01*
X019600Y009908D01*
X020179Y009871D02*
X020191Y009908D01*
X020179Y009871D02*
X020179Y009451D01*
X020879Y008811D02*
X020479Y008411D01*
X020479Y006671D01*
X020479Y006331D02*
X019839Y006971D01*
X019359Y007451D02*
X019359Y007531D01*
X018119Y007531D01*
X017719Y007271D02*
X017719Y006951D01*
X017639Y006871D01*
X017479Y007171D02*
X017439Y007211D01*
X017439Y007311D01*
X017019Y007311D01*
X017012Y007319D01*
X017012Y007516D02*
X016999Y007531D01*
X016619Y007531D01*
X016619Y008331D01*
X014559Y010391D01*
X014559Y011331D01*
X015559Y011311D02*
X015559Y011331D01*
X015559Y011311D02*
X016299Y010571D01*
X016299Y008911D01*
X016679Y008531D01*
X016679Y008511D01*
X016999Y008511D01*
X017012Y008500D01*
X017019Y008691D02*
X017012Y008697D01*
X017019Y008691D02*
X017479Y008691D01*
X017359Y008911D02*
X017019Y008911D01*
X017012Y008894D01*
X017012Y009091D02*
X017019Y009111D01*
X017299Y009391D01*
X017299Y009931D01*
X018616Y009908D02*
X018619Y009931D01*
X018619Y010231D01*
X019759Y011371D01*
X019809Y011331D01*
X018559Y011331D02*
X018559Y011191D01*
X017779Y010411D01*
X017539Y011291D02*
X017559Y011331D01*
X017539Y011311D01*
X017539Y011291D02*
X017539Y009111D01*
X017359Y008931D01*
X017359Y008911D01*
X017699Y008931D02*
X017719Y008911D01*
X017719Y008151D01*
X017439Y008091D02*
X017439Y007551D01*
X017719Y007271D01*
X017012Y007123D02*
X016999Y007131D01*
X016699Y007131D01*
X016459Y007371D01*
X016459Y008031D01*
X016299Y008191D01*
X015779Y008191D01*
X015759Y008211D01*
X015759Y008571D01*
X015773Y008571D01*
X015759Y008211D02*
X015399Y007851D01*
X015159Y007931D02*
X015159Y007731D01*
X015639Y007251D01*
X016039Y007551D02*
X016019Y007586D01*
X016019Y007731D01*
X016219Y007931D01*
X017012Y008107D02*
X017019Y008091D01*
X017439Y008091D01*
X017479Y008311D02*
X017019Y008311D01*
X017012Y008304D01*
X017479Y008311D02*
X017479Y008371D01*
X016559Y009031D02*
X016559Y011331D01*
X016579Y011311D01*
X013559Y011331D02*
X013559Y009771D01*
X014339Y008991D01*
X014439Y008751D02*
X014899Y009211D01*
X015499Y009211D01*
X015499Y009111D01*
X015119Y008971D02*
X015119Y008571D01*
X015104Y008571D01*
X014679Y008651D02*
X014679Y008411D01*
X015159Y007931D01*
X014799Y007591D02*
X014519Y007871D01*
X014519Y008471D01*
X014439Y008551D01*
X014439Y008751D01*
X014279Y008111D02*
X013399Y008991D01*
X013399Y010151D01*
X010999Y010151D01*
X010899Y010391D02*
X010459Y009951D01*
X010219Y009951D01*
X010159Y009931D01*
X009999Y010091D01*
X009839Y010091D01*
X009817Y010069D01*
X009817Y009810D01*
X009667Y009810D02*
X009669Y009878D01*
X009669Y010211D01*
X009699Y010231D01*
X009739Y010231D01*
X010379Y010871D01*
X010439Y010871D01*
X010464Y010891D01*
X010479Y010891D01*
X011119Y011531D01*
X011119Y011651D01*
X011133Y011691D01*
X010464Y011691D02*
X010459Y011671D01*
X010039Y011671D01*
X009199Y011271D02*
X009199Y010631D01*
X009219Y010611D01*
X009219Y010351D01*
X009347Y010223D01*
X009347Y009810D01*
X009507Y009810D02*
X009507Y010864D01*
X010899Y010671D02*
X010899Y010391D01*
X010899Y010671D02*
X011099Y010871D01*
X011133Y010891D01*
X011659Y010891D01*
X011663Y010893D01*
X012332Y010893D02*
X012339Y010911D01*
X012339Y011351D01*
X012319Y011371D01*
X012319Y011731D01*
X012332Y011773D01*
X009187Y010023D02*
X009079Y010131D01*
X009039Y010111D01*
X008539Y010111D01*
X008539Y009551D01*
X009187Y009810D02*
X009187Y010023D01*
X010319Y009391D02*
X010439Y009511D01*
X010439Y009531D01*
X010519Y009611D01*
X012319Y009611D01*
X012319Y007971D01*
X012919Y007371D01*
X013459Y007371D01*
X013799Y007031D01*
X013799Y006651D01*
X013899Y006551D01*
X016339Y006551D01*
X016499Y006731D02*
X016359Y006871D01*
X016039Y006871D01*
X016019Y006916D01*
X016019Y006891D01*
X014813Y006891D01*
X014144Y006891D02*
X014139Y006891D01*
X014139Y007571D01*
X014134Y007581D01*
X014119Y007471D01*
X013699Y007471D01*
X013699Y007711D02*
X013199Y007711D01*
X013199Y007706D01*
X013699Y007711D02*
X013699Y007791D01*
X014799Y007591D02*
X014803Y007581D01*
X013939Y008111D02*
X012559Y008111D01*
X012559Y008071D01*
X012219Y007731D02*
X012419Y007531D01*
X012419Y006721D01*
X012019Y006321D01*
X010199Y006321D01*
X009259Y006331D02*
X009259Y006931D01*
X009209Y006931D01*
X009359Y007531D02*
X009359Y008238D01*
X009347Y008250D02*
X009507Y008250D01*
X009507Y008183D01*
X009667Y008238D02*
X009667Y008250D01*
X009669Y008238D02*
X009667Y008238D01*
X009669Y008238D02*
X009669Y007851D01*
X009187Y007999D02*
X009039Y007851D01*
X009187Y007999D02*
X009187Y008250D01*
X009037Y008250D02*
X008559Y008250D01*
X008559Y008331D01*
X007919Y008346D02*
X007879Y008371D01*
X007519Y008371D01*
X006979Y008891D02*
X006979Y007441D01*
X006919Y007441D01*
X006919Y006701D01*
X006779Y006561D01*
X005029Y006156D02*
X004999Y006151D01*
X003919Y006151D01*
X003919Y005791D01*
X003809Y005625D01*
X006569Y004891D02*
X007099Y004891D01*
X007099Y004651D01*
X007149Y004596D01*
X006009Y004446D02*
X005959Y004531D01*
X005959Y004471D01*
X005479Y004471D01*
X004939Y004471D01*
X004919Y004423D01*
X007649Y003791D02*
X009999Y003791D01*
X010019Y003811D01*
X010019Y003831D01*
X011719Y005531D01*
X011359Y005571D02*
X011179Y005391D01*
X011129Y005291D01*
X011359Y005571D02*
X011359Y005771D01*
X013139Y005771D01*
X013119Y005912D01*
X013159Y006011D01*
X013159Y006991D01*
X013199Y007031D01*
X013199Y007036D01*
X012919Y006631D02*
X012299Y006011D01*
X013119Y005912D02*
X013159Y005911D01*
X013159Y005791D01*
X013999Y005791D01*
X013999Y005786D01*
X014019Y005751D01*
X014119Y005751D01*
X014479Y005391D01*
X014959Y005371D02*
X016159Y005371D01*
X016519Y005731D01*
X016999Y005731D01*
X017012Y005745D01*
X017059Y005731D01*
X017059Y005551D02*
X017012Y005548D01*
X017059Y005551D02*
X017479Y005551D01*
X017479Y005491D01*
X017012Y005351D02*
X016693Y005351D01*
X016693Y004931D01*
X016024Y004931D02*
X015919Y004951D01*
X017119Y004741D02*
X017119Y004141D01*
X012259Y004141D01*
X012259Y003871D01*
X014119Y003511D02*
X014159Y003471D01*
X014159Y002971D01*
X014359Y002971D02*
X014359Y003601D01*
X017659Y003601D01*
X017659Y004141D01*
X018409Y004141D01*
X018409Y004534D01*
X018419Y004534D01*
X018229Y004534D02*
X018229Y005221D01*
X017419Y005221D01*
X017419Y004741D01*
X017119Y004741D01*
X018019Y004534D02*
X018025Y004534D01*
X018222Y004534D02*
X018229Y004534D01*
X018616Y004534D02*
X018616Y003961D01*
X017839Y003961D01*
X017839Y003421D01*
X014559Y003421D01*
X014559Y002971D01*
X014749Y002971D02*
X014749Y003241D01*
X018019Y003241D01*
X018019Y003781D01*
X018813Y003781D01*
X018813Y004534D01*
X019010Y004534D02*
X019010Y003601D01*
X018229Y003601D01*
X018229Y002981D01*
X018239Y002981D01*
X018439Y002981D02*
X018439Y003421D01*
X019206Y003421D01*
X019206Y004534D01*
X019403Y004534D02*
X019403Y003241D01*
X018649Y003241D01*
X018649Y002981D01*
X018639Y002981D01*
X018829Y002981D02*
X019569Y002981D01*
X019577Y002984D01*
X019587Y002985D01*
X019595Y002983D01*
X019603Y002978D01*
X019609Y002971D01*
X019609Y004512D01*
X019603Y004516D01*
X019600Y004521D01*
X019599Y004527D01*
X019600Y004533D01*
X019797Y004534D02*
X019797Y003331D01*
X022339Y003331D01*
X022339Y002971D01*
X022539Y002971D02*
X022539Y003491D01*
X022537Y003499D01*
X022533Y003505D01*
X022527Y003509D01*
X022519Y003511D01*
X019994Y003511D01*
X019994Y004534D01*
X020179Y004522D02*
X020179Y003691D01*
X022699Y003691D01*
X022709Y003690D01*
X022719Y003686D01*
X022727Y003679D01*
X022734Y003671D01*
X022738Y003661D01*
X022739Y003651D01*
X022739Y002971D01*
X022929Y002971D02*
X022929Y003821D01*
X022927Y003834D01*
X022922Y003846D01*
X022914Y003856D01*
X022904Y003864D01*
X022892Y003869D01*
X022879Y003871D01*
X020388Y003871D01*
X020388Y004534D01*
X020584Y004534D02*
X020599Y004591D01*
X020599Y005011D01*
X020779Y004831D02*
X021019Y005071D01*
X020879Y005211D01*
X021519Y005471D02*
X021519Y005791D01*
X021619Y005891D01*
X021919Y006051D02*
X021999Y005971D01*
X021999Y005171D01*
X022099Y005071D01*
X022119Y005091D01*
X025539Y005091D01*
X025539Y005131D01*
X025419Y005351D02*
X025539Y005471D01*
X025419Y005351D02*
X022419Y005351D01*
X022386Y005351D01*
X022399Y005371D01*
X021799Y005531D02*
X021759Y005571D01*
X021799Y005531D02*
X021799Y004111D01*
X021079Y004111D01*
X020959Y004231D01*
X020959Y004531D01*
X020978Y004534D01*
X020781Y004534D02*
X020779Y004591D01*
X020779Y004831D01*
X021179Y004611D02*
X021175Y004534D01*
X021199Y004591D01*
X021179Y004611D02*
X021179Y006131D01*
X021039Y006271D01*
X021039Y007831D01*
X020719Y007831D02*
X020639Y007911D01*
X020639Y008111D01*
X020859Y008331D01*
X021359Y008271D02*
X021359Y008571D01*
X021599Y008351D02*
X021599Y008831D01*
X022386Y008894D02*
X022439Y008911D01*
X023079Y008911D01*
X023079Y009051D01*
X023719Y009051D02*
X023719Y009911D01*
X023959Y009811D02*
X024239Y009811D01*
X024019Y009211D02*
X024979Y009211D01*
X024979Y009111D01*
X022399Y008911D02*
X022386Y008894D01*
X021599Y008351D02*
X021959Y007991D01*
X021959Y007911D01*
X022359Y007911D01*
X022386Y007910D01*
X022399Y007891D01*
X022386Y007713D02*
X022359Y007711D01*
X021919Y007711D01*
X021359Y008271D01*
X020719Y007831D02*
X020719Y006111D01*
X020639Y006031D01*
X021359Y006111D02*
X021519Y006271D01*
X021519Y006591D01*
X021679Y006851D02*
X021999Y006531D01*
X022319Y006531D01*
X022386Y006532D01*
X022419Y006531D01*
X022699Y006531D01*
X022719Y006511D01*
X025539Y006511D01*
X025939Y006491D02*
X025939Y006611D01*
X025939Y006491D02*
X026019Y006491D01*
X025939Y006491D02*
X025939Y004631D01*
X026179Y004871D02*
X026699Y004871D01*
X026699Y004911D01*
X027179Y004971D02*
X029999Y007791D01*
X035919Y007791D01*
X035919Y009411D01*
X036079Y009571D01*
X036809Y009081D02*
X036079Y008351D01*
X036079Y007711D01*
X035059Y006691D01*
X034819Y006611D02*
X034819Y006591D01*
X034959Y006451D01*
X036079Y006451D01*
X036079Y007351D01*
X036809Y008081D01*
X036809Y007081D02*
X036799Y007071D01*
X036799Y006931D01*
X036099Y006231D01*
X036099Y006031D01*
X028579Y006031D01*
X028339Y005791D02*
X034159Y005791D01*
X034779Y005051D02*
X036019Y005051D01*
X036799Y005831D01*
X036809Y005831D01*
X034819Y006611D02*
X029159Y006611D01*
X028239Y006371D02*
X027179Y006371D01*
X026699Y006151D02*
X026179Y006151D01*
X025539Y006151D02*
X022439Y006151D01*
X022386Y006138D01*
X022399Y006151D01*
X022399Y006331D02*
X022386Y006335D01*
X022299Y006331D01*
X022299Y006351D01*
X021759Y006351D01*
X022339Y006331D02*
X022386Y006335D01*
X022339Y006511D02*
X022386Y006532D01*
X022386Y006729D02*
X022419Y006731D01*
X025419Y006731D01*
X025519Y006831D01*
X023839Y005911D02*
X023839Y005811D01*
X022859Y005811D01*
X021559Y005431D02*
X021519Y005471D01*
X021559Y005431D02*
X021559Y004691D01*
X021619Y004631D01*
X021569Y004534D01*
X021619Y004591D01*
X021379Y004591D02*
X021372Y004534D01*
X021379Y004631D01*
X021359Y004651D01*
X021359Y006111D01*
X021279Y006371D02*
X021279Y007551D01*
X021739Y007551D01*
X022386Y007713D02*
X022399Y007711D01*
X022859Y007831D02*
X023079Y007611D01*
X021679Y006911D02*
X021519Y006911D01*
X021679Y006911D02*
X021679Y006851D01*
X022386Y006729D02*
X022399Y006751D01*
X019539Y006091D02*
X017679Y006091D01*
X017012Y006335D02*
X016999Y006331D01*
X016459Y006331D01*
X016439Y006311D01*
X013619Y006311D01*
X013159Y005971D02*
X013119Y005912D01*
X011119Y005791D02*
X010699Y005791D01*
X010694Y005804D01*
X011599Y006716D02*
X011599Y006751D01*
X012019Y006751D01*
X016039Y007551D02*
X016539Y007051D01*
X016539Y006931D01*
X016999Y006931D01*
X017012Y006926D01*
X016999Y006731D02*
X016499Y006731D01*
X016999Y006731D02*
X017012Y006729D01*
X017479Y006571D02*
X017479Y006531D01*
X017019Y006531D01*
X017012Y006532D01*
X020139Y008071D02*
X020139Y008411D01*
X020299Y008571D01*
X016559Y009031D02*
X016539Y009011D01*
X011479Y008911D02*
X011479Y008491D01*
X011453Y008491D01*
X011479Y008911D02*
X011479Y009271D01*
X011453Y009291D01*
X010039Y008301D02*
X009988Y008250D01*
X009817Y008250D01*
X010069Y008250D01*
X003799Y010351D02*
X003809Y010625D01*
X003799Y010351D02*
X003379Y009931D01*
X003319Y009871D01*
X003319Y009391D01*
X003269Y009336D01*
X002479Y006846D02*
X002599Y006751D01*
X002309Y006676D01*
X002599Y006727D02*
X002599Y006751D01*
X009859Y003311D02*
X009859Y002971D01*
X009669Y002971D01*
X010059Y002971D02*
X010079Y002991D01*
X011299Y002791D02*
X012259Y002791D01*
X011719Y002491D02*
X013519Y002491D01*
X013519Y002791D01*
X013769Y002971D02*
X013959Y002971D01*
X014259Y002571D02*
X014299Y002551D01*
X014719Y002551D01*
X014719Y002191D01*
X014749Y002171D01*
X014779Y002191D01*
X015079Y002491D01*
X017599Y002971D02*
X017839Y002971D01*
X017849Y002981D01*
X017899Y003031D01*
X018019Y003031D01*
X018039Y002981D01*
X018339Y002581D02*
X018379Y002551D01*
X018799Y002551D01*
X018799Y002191D01*
X018829Y002181D01*
X018859Y002191D01*
X019159Y002191D01*
X019679Y002491D01*
X019189Y002661D02*
X019179Y002661D01*
X019189Y002661D02*
X019189Y002731D01*
X021679Y002731D01*
X021679Y002971D01*
X021679Y003091D01*
X021679Y002971D02*
X021949Y002971D01*
X022139Y002971D01*
X022439Y002571D02*
X022459Y002551D01*
X023239Y002551D01*
X023239Y002491D01*
X022939Y002191D01*
X022929Y002171D01*
X026173Y003541D02*
X026179Y003611D01*
X026179Y003751D01*
X026419Y003991D01*
X026179Y003571D02*
X026173Y003541D01*
X028579Y004231D02*
X030559Y004231D01*
X030598Y004242D01*
X030659Y004291D01*
X030939Y004011D01*
X033759Y004011D01*
X033759Y004091D01*
X033999Y004331D01*
X034259Y004331D01*
X034279Y004351D01*
X034339Y004291D01*
X034346Y004259D01*
X034299Y004371D01*
X034299Y004571D01*
X034359Y004631D01*
X034539Y004471D02*
X034599Y004531D01*
X034599Y004551D01*
X034619Y004551D01*
X034899Y004831D01*
X036809Y004831D01*
X036179Y004551D02*
X036779Y003951D01*
X036809Y003916D01*
X036799Y003931D01*
X035659Y003991D02*
X035659Y004231D01*
X035134Y004259D02*
X035139Y004311D01*
X035139Y004491D01*
X035199Y004551D01*
X036179Y004551D01*
X035134Y004259D02*
X035119Y004291D01*
X035119Y003991D02*
X034819Y003991D01*
X034839Y003481D01*
X034819Y003511D01*
X034819Y003991D01*
X034759Y003991D01*
X034099Y003991D01*
X034051Y003973D01*
X034519Y004291D02*
X034543Y004259D01*
X034539Y004311D01*
X034539Y004471D01*
X034599Y004551D02*
X034599Y004871D01*
X031839Y004871D01*
X031259Y004291D01*
X031189Y004242D01*
X031119Y004291D01*
X030679Y004731D01*
X027399Y004731D01*
X027759Y005211D02*
X028339Y005791D01*
X026699Y005551D02*
X026699Y005511D01*
X026179Y005511D01*
X026179Y005191D02*
X026699Y005191D01*
X026699Y005231D01*
X025459Y004811D02*
X025459Y004511D01*
X022039Y004511D01*
X021859Y004111D02*
X021799Y004111D01*
X020191Y004534D02*
X020186Y004533D01*
X020183Y004530D01*
X020180Y004527D01*
X020179Y004522D01*
X030319Y003691D02*
X030559Y003691D01*
X030598Y003671D01*
X030598Y004242D02*
X030619Y004291D01*
X031159Y004291D02*
X031189Y004242D01*
X031219Y004291D01*
X035119Y003991D02*
X035599Y003991D01*
X035626Y003973D01*
X035659Y003991D01*
X036809Y003246D02*
X036859Y003271D01*
X037219Y003271D01*
X034543Y002703D02*
X034519Y002671D01*
X034519Y002011D01*
X033579Y009371D02*
X031699Y009371D01*
X031559Y009511D01*
X028559Y009511D01*
X033579Y009371D02*
X033579Y009851D01*
X034059Y010331D02*
X034799Y011071D01*
X034799Y011331D01*
X034809Y011331D01*
X022459Y011671D02*
X022099Y011671D01*
X022059Y011666D01*
X005599Y002531D02*
X005601Y002521D01*
X003795Y000799D02*
X003739Y000811D01*
X003379Y000811D01*
X006439Y000691D02*
X006859Y000691D01*
X006859Y000686D01*
D50*
X004799Y011131D03*
D51*
X005179Y010411D03*
D52*
X006799Y010891D03*
X005919Y011051D03*
X006799Y009771D03*
X006589Y009421D03*
X006979Y008891D03*
X003119Y007531D03*
X006779Y006561D03*
X004349Y002571D03*
X013189Y002091D03*
X017359Y002091D03*
X019979Y002091D03*
D53*
X011129Y005291D02*
X008079Y005291D01*
X008079Y006931D01*
X008309Y006931D01*
X006719Y002921D02*
X006199Y002921D01*
M02*
