G75*
%MOIN*%
%OFA0B0*%
%FSLAX24Y24*%
%IPPOS*%
%LPD*%
%AMOC8*
5,1,8,0,0,1.08239X$1,22.5*
%
%ADD10C,0.0000*%
%ADD11R,0.0160X0.0300*%
%ADD12R,0.1030X0.0410*%
%ADD13C,0.0260*%
%ADD14C,0.0060*%
%ADD15R,0.0749X0.0670*%
%ADD16R,0.0355X0.0355*%
%ADD17C,0.0520*%
%ADD18R,0.0670X0.0750*%
%ADD19C,0.0640*%
%ADD20R,0.0120X0.0370*%
%ADD21R,0.0810X0.1000*%
%ADD22R,0.0434X0.0473*%
%ADD23R,0.0473X0.0434*%
%ADD24R,0.0631X0.0808*%
%ADD25R,0.0158X0.0571*%
%ADD26R,0.0571X0.0158*%
%ADD27OC8,0.0520*%
%ADD28R,0.0690X0.1260*%
%ADD29C,0.0075*%
%ADD30R,0.0420X0.1360*%
%ADD31C,0.0631*%
%ADD32R,0.1260X0.0430*%
%ADD33R,0.0630X0.0830*%
%ADD34R,0.1540X0.0830*%
%ADD35R,0.0591X0.0316*%
%ADD36R,0.0276X0.0237*%
%ADD37R,0.0237X0.0276*%
%ADD38R,0.0355X0.0158*%
%ADD39R,0.0158X0.0355*%
%ADD40R,0.0157X0.0354*%
%ADD41R,0.0335X0.0157*%
%ADD42R,0.1043X0.0965*%
D10*
X000559Y000331D02*
X000559Y012142D01*
X037929Y012142D01*
X037929Y000331D01*
X000559Y000331D01*
D11*
X009669Y002171D03*
X009859Y002171D03*
X010059Y002171D03*
X010259Y002171D03*
X010459Y002171D03*
X010649Y002171D03*
X010649Y002971D03*
X010459Y002971D03*
X010259Y002971D03*
X010059Y002971D03*
X009859Y002971D03*
X009669Y002971D03*
X013769Y002971D03*
X013959Y002971D03*
X014159Y002971D03*
X014359Y002971D03*
X014559Y002971D03*
X014749Y002971D03*
X014749Y002171D03*
X014559Y002171D03*
X014359Y002171D03*
X014159Y002171D03*
X013959Y002171D03*
X013769Y002171D03*
X017849Y002181D03*
X018039Y002181D03*
X018239Y002181D03*
X018439Y002181D03*
X018639Y002181D03*
X018829Y002181D03*
X018829Y002981D03*
X018639Y002981D03*
X018439Y002981D03*
X018239Y002981D03*
X018039Y002981D03*
X017849Y002981D03*
X021949Y002971D03*
X022139Y002971D03*
X022339Y002971D03*
X022539Y002971D03*
X022739Y002971D03*
X022929Y002971D03*
X022929Y002171D03*
X022739Y002171D03*
X022539Y002171D03*
X022339Y002171D03*
X022139Y002171D03*
X021949Y002171D03*
X006672Y008209D03*
X006482Y008209D03*
X006282Y008209D03*
X006082Y008209D03*
X005892Y008209D03*
X005892Y009009D03*
X006082Y009009D03*
X006282Y009009D03*
X006482Y009009D03*
X006672Y009009D03*
D12*
X006282Y008609D03*
D13*
X006282Y008609D03*
X006592Y008609D03*
X005972Y008609D03*
X009267Y008720D03*
X009587Y008720D03*
X009587Y009030D03*
X009267Y009030D03*
X009267Y009340D03*
X009587Y009340D03*
D14*
X009807Y009410D02*
X009807Y009510D01*
X010077Y009510D01*
X010077Y009410D01*
X009807Y009410D01*
X009837Y009420D02*
X009017Y009420D01*
X009017Y009540D01*
X009197Y009540D01*
X009657Y009540D01*
X009837Y009540D01*
X009837Y009420D01*
X009837Y009260D01*
X009017Y009260D01*
X009017Y009420D01*
X009047Y009410D02*
X009047Y009510D01*
X008777Y009510D01*
X008777Y009410D01*
X009047Y009410D01*
X009017Y009260D02*
X009017Y009110D01*
X009837Y009110D01*
X009837Y009260D01*
X009837Y009110D02*
X009837Y008950D01*
X009017Y008950D01*
X009017Y009110D01*
X009017Y008950D02*
X009017Y008800D01*
X009837Y008800D01*
X009837Y008950D01*
X009837Y008800D02*
X009837Y008640D01*
X009837Y008520D01*
X009657Y008520D01*
X009197Y008520D01*
X009017Y008520D01*
X009017Y008640D01*
X009837Y008640D01*
X009807Y008650D02*
X009807Y008550D01*
X010077Y008550D01*
X010077Y008650D01*
X009807Y008650D01*
X009657Y008520D02*
X009657Y009540D01*
X009597Y009620D02*
X009597Y010000D01*
X009727Y010000D01*
X009727Y009620D01*
X009597Y009620D01*
X009577Y009620D02*
X009577Y010000D01*
X009437Y010000D01*
X009437Y009620D01*
X009577Y009620D01*
X009507Y009540D02*
X009507Y008520D01*
X009347Y008520D01*
X009347Y009540D01*
X009507Y009540D01*
X009417Y009620D02*
X009417Y010000D01*
X009277Y010000D01*
X009277Y009620D01*
X009417Y009620D01*
X009257Y009620D02*
X009257Y010000D01*
X009127Y010000D01*
X009127Y009620D01*
X009257Y009620D01*
X009197Y009540D02*
X009197Y008520D01*
X009257Y008440D02*
X009127Y008440D01*
X009127Y008060D01*
X009257Y008060D01*
X009257Y008440D01*
X009277Y008440D02*
X009277Y008060D01*
X009417Y008060D01*
X009417Y008440D01*
X009277Y008440D01*
X009437Y008440D02*
X009437Y008060D01*
X009577Y008060D01*
X009577Y008440D01*
X009437Y008440D01*
X009597Y008440D02*
X009597Y008060D01*
X009727Y008060D01*
X009727Y008440D01*
X009597Y008440D01*
X009757Y008440D02*
X009757Y008060D01*
X009887Y008060D01*
X009887Y008440D01*
X009757Y008440D01*
X009097Y008440D02*
X008967Y008440D01*
X008967Y008060D01*
X009097Y008060D01*
X009097Y008440D01*
X009047Y008550D02*
X009047Y008650D01*
X008777Y008650D01*
X008777Y008550D01*
X009047Y008550D01*
X009017Y008640D02*
X009017Y008800D01*
X006802Y008819D02*
X006802Y008689D01*
X005762Y008689D01*
X005762Y008819D01*
X005892Y008819D01*
X006672Y008819D01*
X006802Y008819D01*
X006802Y008689D02*
X006802Y008529D01*
X006802Y008399D01*
X006672Y008399D01*
X005892Y008399D01*
X005762Y008399D01*
X005762Y008529D01*
X006802Y008529D01*
X006672Y008399D02*
X006672Y008819D01*
X006512Y008819D02*
X006512Y008399D01*
X006362Y008399D01*
X006362Y008819D01*
X006512Y008819D01*
X006202Y008819D02*
X006202Y008399D01*
X006052Y008399D01*
X006052Y008819D01*
X006202Y008819D01*
X005892Y008819D02*
X005892Y008399D01*
X005762Y008529D02*
X005762Y008689D01*
X008967Y009620D02*
X008967Y010000D01*
X009097Y010000D01*
X009097Y009620D01*
X008967Y009620D01*
X009757Y009620D02*
X009757Y010000D01*
X009887Y010000D01*
X009887Y009620D01*
X009757Y009620D01*
D15*
X003809Y010625D03*
X003809Y011727D03*
X003809Y006727D03*
X003809Y005625D03*
D16*
X006699Y002416D03*
X006699Y001826D03*
X007149Y009400D03*
X007149Y009991D03*
X006414Y010416D03*
X005823Y010416D03*
D17*
X007528Y010653D02*
X008008Y010653D01*
X008008Y011653D02*
X007528Y011653D01*
X002069Y009176D02*
X001589Y009176D01*
X001589Y008176D02*
X002069Y008176D01*
D18*
X003749Y007676D03*
X004868Y007676D03*
X005029Y006156D03*
X006148Y006156D03*
X004388Y009336D03*
X003269Y009336D03*
D19*
X002129Y010596D02*
X001529Y010596D01*
X001529Y011596D02*
X002129Y011596D01*
X013559Y011631D02*
X013559Y011031D01*
X014559Y011031D02*
X014559Y011631D01*
X015559Y011631D02*
X015559Y011031D01*
X016559Y011031D02*
X016559Y011631D01*
X017559Y011631D02*
X017559Y011031D01*
X018559Y011031D02*
X018559Y011631D01*
X019809Y011631D02*
X019809Y011031D01*
X020809Y011031D02*
X020809Y011631D01*
X023309Y011631D02*
X023309Y011031D01*
X024309Y011031D02*
X024309Y011631D01*
X025309Y011631D02*
X025309Y011031D01*
X026309Y011031D02*
X026309Y011631D01*
X027309Y011631D02*
X027309Y011031D01*
X028309Y011031D02*
X028309Y011631D01*
X029809Y011631D02*
X029809Y011031D01*
X030809Y011031D02*
X030809Y011631D01*
X031809Y011631D02*
X031809Y011031D01*
X032809Y011031D02*
X032809Y011631D01*
X033809Y011631D02*
X033809Y011031D01*
X034809Y011031D02*
X034809Y011631D01*
X035809Y011631D02*
X035809Y011031D01*
X036809Y011031D02*
X036809Y011631D01*
X037109Y010081D02*
X036509Y010081D01*
X036509Y009081D02*
X037109Y009081D01*
X037109Y008081D02*
X036509Y008081D01*
X036509Y007081D02*
X037109Y007081D01*
X037109Y005831D02*
X036509Y005831D01*
X036509Y004831D02*
X037109Y004831D01*
X023559Y001381D02*
X023559Y000781D01*
X022559Y000781D02*
X022559Y001381D01*
X021559Y001381D02*
X021559Y000781D01*
X020559Y000781D02*
X020559Y001381D01*
X019469Y001381D02*
X019469Y000781D01*
X018469Y000781D02*
X018469Y001381D01*
X017469Y001381D02*
X017469Y000781D01*
X016469Y000781D02*
X016469Y001381D01*
X015379Y001381D02*
X015379Y000781D01*
X014379Y000781D02*
X014379Y001381D01*
X013379Y001381D02*
X013379Y000781D01*
X012379Y000781D02*
X012379Y001381D01*
X011289Y001381D02*
X011289Y000781D01*
X010289Y000781D02*
X010289Y001381D01*
X009289Y001381D02*
X009289Y000781D01*
X008289Y000781D02*
X008289Y001381D01*
X002609Y005676D02*
X002009Y005676D01*
X002009Y006676D02*
X002609Y006676D01*
D20*
X009037Y008250D03*
X009187Y008250D03*
X009347Y008250D03*
X009507Y008250D03*
X009667Y008250D03*
X009817Y008250D03*
X009817Y009810D03*
X009667Y009810D03*
X009507Y009810D03*
X009347Y009810D03*
X009187Y009810D03*
X009037Y009810D03*
D21*
X009427Y009030D03*
D22*
X007919Y008346D03*
X007919Y007676D03*
X009984Y007051D03*
X010653Y007051D03*
X011599Y007386D03*
X011599Y006716D03*
X013999Y005786D03*
X013999Y005116D03*
X008159Y002936D03*
X007309Y002936D03*
X007309Y002266D03*
X008159Y002266D03*
X004919Y003754D03*
X004919Y004423D03*
X003795Y001468D03*
X003795Y000799D03*
X024309Y007246D03*
X024309Y007916D03*
X036809Y003916D03*
X036809Y003246D03*
X032109Y001686D03*
X032109Y001016D03*
X034309Y000996D03*
X035309Y000996D03*
X036309Y000996D03*
X036309Y001666D03*
X035309Y001666D03*
X034309Y001666D03*
X027809Y001666D03*
X027809Y000996D03*
X027809Y002496D03*
X027809Y003166D03*
X009533Y010891D03*
X008864Y010891D03*
X010464Y011691D03*
X011133Y011691D03*
X005853Y011771D03*
X005184Y011771D03*
D23*
X008864Y011691D03*
X009533Y011691D03*
X011663Y011773D03*
X012332Y011773D03*
X012332Y010893D03*
X011663Y010893D03*
X011133Y010891D03*
X010464Y010891D03*
X008079Y009946D03*
X008079Y009276D03*
X010784Y009291D03*
X011453Y009291D03*
X011453Y008491D03*
X010784Y008491D03*
X013199Y007706D03*
X014134Y007581D03*
X014803Y007581D03*
X013199Y007036D03*
X014144Y006891D03*
X014813Y006891D03*
X010694Y005804D03*
X010025Y005804D03*
X007149Y004596D03*
X006009Y004446D03*
X007149Y003926D03*
X006009Y003776D03*
X006859Y001356D03*
X006859Y000686D03*
X016024Y004931D03*
X016693Y004931D03*
X025559Y007246D03*
X026559Y007246D03*
X026559Y007916D03*
X025559Y007916D03*
X022059Y010996D03*
X022059Y011666D03*
X015773Y008571D03*
X015104Y008571D03*
X027224Y004331D03*
X027893Y004331D03*
D24*
X031059Y002122D03*
X031059Y001040D03*
X013119Y004830D03*
X013119Y005912D03*
D25*
X017828Y004534D03*
X018025Y004534D03*
X018222Y004534D03*
X018419Y004534D03*
X018616Y004534D03*
X018813Y004534D03*
X019010Y004534D03*
X019206Y004534D03*
X019403Y004534D03*
X019600Y004534D03*
X019797Y004534D03*
X019994Y004534D03*
X020191Y004534D03*
X020388Y004534D03*
X020584Y004534D03*
X020781Y004534D03*
X020978Y004534D03*
X021175Y004534D03*
X021372Y004534D03*
X021569Y004534D03*
X021569Y009908D03*
X021372Y009908D03*
X021175Y009908D03*
X020978Y009908D03*
X020781Y009908D03*
X020584Y009908D03*
X020388Y009908D03*
X020191Y009908D03*
X019994Y009908D03*
X019797Y009908D03*
X019600Y009908D03*
X019403Y009908D03*
X019206Y009908D03*
X019010Y009908D03*
X018813Y009908D03*
X018616Y009908D03*
X018419Y009908D03*
X018222Y009908D03*
X018025Y009908D03*
X017828Y009908D03*
D26*
X017012Y009091D03*
X017012Y008894D03*
X017012Y008697D03*
X017012Y008500D03*
X017012Y008304D03*
X017012Y008107D03*
X017012Y007910D03*
X017012Y007713D03*
X017012Y007516D03*
X017012Y007319D03*
X017012Y007123D03*
X017012Y006926D03*
X017012Y006729D03*
X017012Y006532D03*
X017012Y006335D03*
X017012Y006138D03*
X017012Y005941D03*
X017012Y005745D03*
X017012Y005548D03*
X017012Y005351D03*
X022386Y005351D03*
X022386Y005548D03*
X022386Y005745D03*
X022386Y005941D03*
X022386Y006138D03*
X022386Y006335D03*
X022386Y006532D03*
X022386Y006729D03*
X022386Y006926D03*
X022386Y007123D03*
X022386Y007319D03*
X022386Y007516D03*
X022386Y007713D03*
X022386Y007910D03*
X022386Y008107D03*
X022386Y008304D03*
X022386Y008500D03*
X022386Y008697D03*
X022386Y008894D03*
X022386Y009091D03*
D27*
X004093Y003707D03*
X003343Y003207D03*
X003343Y004207D03*
X001789Y001951D03*
X002289Y001201D03*
X001289Y001201D03*
D28*
X005431Y002821D03*
D29*
X005862Y002859D02*
X006162Y002859D01*
X006162Y002783D01*
X005862Y002783D01*
X005862Y002859D01*
X005862Y002857D02*
X006162Y002857D01*
X006162Y003056D02*
X005862Y003056D01*
X006162Y003056D02*
X006162Y002980D01*
X005862Y002980D01*
X005862Y003056D01*
X005862Y003054D02*
X006162Y003054D01*
X006162Y003253D02*
X005862Y003253D01*
X006162Y003253D02*
X006162Y003177D01*
X005862Y003177D01*
X005862Y003253D01*
X005862Y003251D02*
X006162Y003251D01*
X005000Y003177D02*
X004700Y003177D01*
X004700Y003253D01*
X005000Y003253D01*
X005000Y003177D01*
X005000Y003251D02*
X004700Y003251D01*
X004700Y002980D02*
X005000Y002980D01*
X004700Y002980D02*
X004700Y003056D01*
X005000Y003056D01*
X005000Y002980D01*
X005000Y003054D02*
X004700Y003054D01*
X004700Y002783D02*
X005000Y002783D01*
X004700Y002783D02*
X004700Y002859D01*
X005000Y002859D01*
X005000Y002783D01*
X005000Y002857D02*
X004700Y002857D01*
X004700Y002586D02*
X005000Y002586D01*
X004700Y002586D02*
X004700Y002662D01*
X005000Y002662D01*
X005000Y002586D01*
X005000Y002660D02*
X004700Y002660D01*
X004700Y002389D02*
X005000Y002389D01*
X004700Y002389D02*
X004700Y002465D01*
X005000Y002465D01*
X005000Y002389D01*
X005000Y002463D02*
X004700Y002463D01*
X005862Y002465D02*
X006162Y002465D01*
X006162Y002389D01*
X005862Y002389D01*
X005862Y002465D01*
X005862Y002463D02*
X006162Y002463D01*
X006162Y002662D02*
X005862Y002662D01*
X006162Y002662D02*
X006162Y002586D01*
X005862Y002586D01*
X005862Y002662D01*
X005862Y002660D02*
X006162Y002660D01*
D30*
X005821Y001231D03*
X004891Y001231D03*
D31*
X002429Y002981D02*
X001838Y002981D01*
X001838Y003981D02*
X002429Y003981D01*
D32*
X010159Y002571D03*
X014259Y002571D03*
X018339Y002581D03*
X022439Y002571D03*
D33*
X009209Y006931D03*
X008309Y006931D03*
X007409Y006931D03*
D34*
X008319Y004451D03*
D35*
X016019Y006916D03*
X016019Y007586D03*
D36*
X030598Y004242D03*
X031189Y004242D03*
X031779Y004242D03*
X031779Y003100D03*
X031189Y003100D03*
X030598Y003100D03*
D37*
X030598Y003671D03*
D38*
X027059Y003246D03*
X027059Y003049D03*
X027059Y002853D03*
X027059Y002656D03*
X025878Y002656D03*
X025878Y002853D03*
X025878Y003049D03*
X025878Y003246D03*
D39*
X026173Y003541D03*
X026370Y003541D03*
X026567Y003541D03*
X026764Y003541D03*
X026764Y002360D03*
X026567Y002360D03*
X026370Y002360D03*
X026173Y002360D03*
D40*
X034346Y002703D03*
X034543Y002703D03*
X034740Y002703D03*
X034937Y002703D03*
X035134Y002703D03*
X035331Y002703D03*
X035331Y004259D03*
X035134Y004259D03*
X034937Y004259D03*
X034740Y004259D03*
X034543Y004259D03*
X034346Y004259D03*
D41*
X034051Y003973D03*
X034051Y003776D03*
X034051Y003579D03*
X034051Y003383D03*
X034051Y003186D03*
X034051Y002989D03*
X035626Y002989D03*
X035626Y003186D03*
X035626Y003383D03*
X035626Y003579D03*
X035626Y003776D03*
X035626Y003973D03*
D42*
X034839Y003481D03*
M02*
