G75*
%MOIN*%
%OFA0B0*%
%FSLAX25Y25*%
%IPPOS*%
%LPD*%
%AMOC8*
5,1,8,0,0,1.08239X$1,22.5*
%
%ADD10C,0.00000*%
%ADD11C,0.02200*%
%ADD12C,0.02381*%
%ADD13C,0.02400*%
%ADD14R,0.06300X0.04600*%
%ADD15C,0.01987*%
%ADD16R,0.04600X0.06300*%
%ADD17C,0.06000*%
%ADD18OC8,0.07000*%
%ADD19OC8,0.06000*%
%ADD20C,0.01181*%
%ADD21C,0.01600*%
%ADD22C,0.01000*%
%ADD23C,0.01200*%
%ADD24C,0.00984*%
%ADD25C,0.04000*%
%ADD26C,0.03562*%
%ADD27C,0.03200*%
%ADD28C,0.02953*%
%ADD29C,0.01969*%
%ADD30C,0.02000*%
D10*
X0021985Y0025808D02*
X0021985Y0222658D01*
X0396000Y0222658D01*
X0396000Y0025808D01*
X0021985Y0025808D01*
X0102300Y0139981D02*
X0102302Y0140139D01*
X0102308Y0140297D01*
X0102318Y0140455D01*
X0102332Y0140613D01*
X0102350Y0140770D01*
X0102371Y0140927D01*
X0102397Y0141083D01*
X0102427Y0141239D01*
X0102460Y0141394D01*
X0102498Y0141547D01*
X0102539Y0141700D01*
X0102584Y0141852D01*
X0102633Y0142003D01*
X0102686Y0142152D01*
X0102742Y0142300D01*
X0102802Y0142446D01*
X0102866Y0142591D01*
X0102934Y0142734D01*
X0103005Y0142876D01*
X0103079Y0143016D01*
X0103157Y0143153D01*
X0103239Y0143289D01*
X0103323Y0143423D01*
X0103412Y0143554D01*
X0103503Y0143683D01*
X0103598Y0143810D01*
X0103695Y0143935D01*
X0103796Y0144057D01*
X0103900Y0144176D01*
X0104007Y0144293D01*
X0104117Y0144407D01*
X0104230Y0144518D01*
X0104345Y0144627D01*
X0104463Y0144732D01*
X0104584Y0144834D01*
X0104707Y0144934D01*
X0104833Y0145030D01*
X0104961Y0145123D01*
X0105091Y0145213D01*
X0105224Y0145299D01*
X0105359Y0145383D01*
X0105495Y0145462D01*
X0105634Y0145539D01*
X0105775Y0145611D01*
X0105917Y0145681D01*
X0106061Y0145746D01*
X0106207Y0145808D01*
X0106354Y0145866D01*
X0106503Y0145921D01*
X0106653Y0145972D01*
X0106804Y0146019D01*
X0106956Y0146062D01*
X0107109Y0146101D01*
X0107264Y0146137D01*
X0107419Y0146168D01*
X0107575Y0146196D01*
X0107731Y0146220D01*
X0107888Y0146240D01*
X0108046Y0146256D01*
X0108203Y0146268D01*
X0108362Y0146276D01*
X0108520Y0146280D01*
X0108678Y0146280D01*
X0108836Y0146276D01*
X0108995Y0146268D01*
X0109152Y0146256D01*
X0109310Y0146240D01*
X0109467Y0146220D01*
X0109623Y0146196D01*
X0109779Y0146168D01*
X0109934Y0146137D01*
X0110089Y0146101D01*
X0110242Y0146062D01*
X0110394Y0146019D01*
X0110545Y0145972D01*
X0110695Y0145921D01*
X0110844Y0145866D01*
X0110991Y0145808D01*
X0111137Y0145746D01*
X0111281Y0145681D01*
X0111423Y0145611D01*
X0111564Y0145539D01*
X0111703Y0145462D01*
X0111839Y0145383D01*
X0111974Y0145299D01*
X0112107Y0145213D01*
X0112237Y0145123D01*
X0112365Y0145030D01*
X0112491Y0144934D01*
X0112614Y0144834D01*
X0112735Y0144732D01*
X0112853Y0144627D01*
X0112968Y0144518D01*
X0113081Y0144407D01*
X0113191Y0144293D01*
X0113298Y0144176D01*
X0113402Y0144057D01*
X0113503Y0143935D01*
X0113600Y0143810D01*
X0113695Y0143683D01*
X0113786Y0143554D01*
X0113875Y0143423D01*
X0113959Y0143289D01*
X0114041Y0143153D01*
X0114119Y0143016D01*
X0114193Y0142876D01*
X0114264Y0142734D01*
X0114332Y0142591D01*
X0114396Y0142446D01*
X0114456Y0142300D01*
X0114512Y0142152D01*
X0114565Y0142003D01*
X0114614Y0141852D01*
X0114659Y0141700D01*
X0114700Y0141547D01*
X0114738Y0141394D01*
X0114771Y0141239D01*
X0114801Y0141083D01*
X0114827Y0140927D01*
X0114848Y0140770D01*
X0114866Y0140613D01*
X0114880Y0140455D01*
X0114890Y0140297D01*
X0114896Y0140139D01*
X0114898Y0139981D01*
X0114896Y0139823D01*
X0114890Y0139665D01*
X0114880Y0139507D01*
X0114866Y0139349D01*
X0114848Y0139192D01*
X0114827Y0139035D01*
X0114801Y0138879D01*
X0114771Y0138723D01*
X0114738Y0138568D01*
X0114700Y0138415D01*
X0114659Y0138262D01*
X0114614Y0138110D01*
X0114565Y0137959D01*
X0114512Y0137810D01*
X0114456Y0137662D01*
X0114396Y0137516D01*
X0114332Y0137371D01*
X0114264Y0137228D01*
X0114193Y0137086D01*
X0114119Y0136946D01*
X0114041Y0136809D01*
X0113959Y0136673D01*
X0113875Y0136539D01*
X0113786Y0136408D01*
X0113695Y0136279D01*
X0113600Y0136152D01*
X0113503Y0136027D01*
X0113402Y0135905D01*
X0113298Y0135786D01*
X0113191Y0135669D01*
X0113081Y0135555D01*
X0112968Y0135444D01*
X0112853Y0135335D01*
X0112735Y0135230D01*
X0112614Y0135128D01*
X0112491Y0135028D01*
X0112365Y0134932D01*
X0112237Y0134839D01*
X0112107Y0134749D01*
X0111974Y0134663D01*
X0111839Y0134579D01*
X0111703Y0134500D01*
X0111564Y0134423D01*
X0111423Y0134351D01*
X0111281Y0134281D01*
X0111137Y0134216D01*
X0110991Y0134154D01*
X0110844Y0134096D01*
X0110695Y0134041D01*
X0110545Y0133990D01*
X0110394Y0133943D01*
X0110242Y0133900D01*
X0110089Y0133861D01*
X0109934Y0133825D01*
X0109779Y0133794D01*
X0109623Y0133766D01*
X0109467Y0133742D01*
X0109310Y0133722D01*
X0109152Y0133706D01*
X0108995Y0133694D01*
X0108836Y0133686D01*
X0108678Y0133682D01*
X0108520Y0133682D01*
X0108362Y0133686D01*
X0108203Y0133694D01*
X0108046Y0133706D01*
X0107888Y0133722D01*
X0107731Y0133742D01*
X0107575Y0133766D01*
X0107419Y0133794D01*
X0107264Y0133825D01*
X0107109Y0133861D01*
X0106956Y0133900D01*
X0106804Y0133943D01*
X0106653Y0133990D01*
X0106503Y0134041D01*
X0106354Y0134096D01*
X0106207Y0134154D01*
X0106061Y0134216D01*
X0105917Y0134281D01*
X0105775Y0134351D01*
X0105634Y0134423D01*
X0105495Y0134500D01*
X0105359Y0134579D01*
X0105224Y0134663D01*
X0105091Y0134749D01*
X0104961Y0134839D01*
X0104833Y0134932D01*
X0104707Y0135028D01*
X0104584Y0135128D01*
X0104463Y0135230D01*
X0104345Y0135335D01*
X0104230Y0135444D01*
X0104117Y0135555D01*
X0104007Y0135669D01*
X0103900Y0135786D01*
X0103796Y0135905D01*
X0103695Y0136027D01*
X0103598Y0136152D01*
X0103503Y0136279D01*
X0103412Y0136408D01*
X0103323Y0136539D01*
X0103239Y0136673D01*
X0103157Y0136809D01*
X0103079Y0136946D01*
X0103005Y0137086D01*
X0102934Y0137228D01*
X0102866Y0137371D01*
X0102802Y0137516D01*
X0102742Y0137662D01*
X0102686Y0137810D01*
X0102633Y0137959D01*
X0102584Y0138110D01*
X0102539Y0138262D01*
X0102498Y0138415D01*
X0102460Y0138568D01*
X0102427Y0138723D01*
X0102397Y0138879D01*
X0102371Y0139035D01*
X0102350Y0139192D01*
X0102332Y0139349D01*
X0102318Y0139507D01*
X0102308Y0139665D01*
X0102302Y0139823D01*
X0102300Y0139981D01*
X0377890Y0037619D02*
X0377892Y0037777D01*
X0377898Y0037935D01*
X0377908Y0038093D01*
X0377922Y0038251D01*
X0377940Y0038408D01*
X0377961Y0038565D01*
X0377987Y0038721D01*
X0378017Y0038877D01*
X0378050Y0039032D01*
X0378088Y0039185D01*
X0378129Y0039338D01*
X0378174Y0039490D01*
X0378223Y0039641D01*
X0378276Y0039790D01*
X0378332Y0039938D01*
X0378392Y0040084D01*
X0378456Y0040229D01*
X0378524Y0040372D01*
X0378595Y0040514D01*
X0378669Y0040654D01*
X0378747Y0040791D01*
X0378829Y0040927D01*
X0378913Y0041061D01*
X0379002Y0041192D01*
X0379093Y0041321D01*
X0379188Y0041448D01*
X0379285Y0041573D01*
X0379386Y0041695D01*
X0379490Y0041814D01*
X0379597Y0041931D01*
X0379707Y0042045D01*
X0379820Y0042156D01*
X0379935Y0042265D01*
X0380053Y0042370D01*
X0380174Y0042472D01*
X0380297Y0042572D01*
X0380423Y0042668D01*
X0380551Y0042761D01*
X0380681Y0042851D01*
X0380814Y0042937D01*
X0380949Y0043021D01*
X0381085Y0043100D01*
X0381224Y0043177D01*
X0381365Y0043249D01*
X0381507Y0043319D01*
X0381651Y0043384D01*
X0381797Y0043446D01*
X0381944Y0043504D01*
X0382093Y0043559D01*
X0382243Y0043610D01*
X0382394Y0043657D01*
X0382546Y0043700D01*
X0382699Y0043739D01*
X0382854Y0043775D01*
X0383009Y0043806D01*
X0383165Y0043834D01*
X0383321Y0043858D01*
X0383478Y0043878D01*
X0383636Y0043894D01*
X0383793Y0043906D01*
X0383952Y0043914D01*
X0384110Y0043918D01*
X0384268Y0043918D01*
X0384426Y0043914D01*
X0384585Y0043906D01*
X0384742Y0043894D01*
X0384900Y0043878D01*
X0385057Y0043858D01*
X0385213Y0043834D01*
X0385369Y0043806D01*
X0385524Y0043775D01*
X0385679Y0043739D01*
X0385832Y0043700D01*
X0385984Y0043657D01*
X0386135Y0043610D01*
X0386285Y0043559D01*
X0386434Y0043504D01*
X0386581Y0043446D01*
X0386727Y0043384D01*
X0386871Y0043319D01*
X0387013Y0043249D01*
X0387154Y0043177D01*
X0387293Y0043100D01*
X0387429Y0043021D01*
X0387564Y0042937D01*
X0387697Y0042851D01*
X0387827Y0042761D01*
X0387955Y0042668D01*
X0388081Y0042572D01*
X0388204Y0042472D01*
X0388325Y0042370D01*
X0388443Y0042265D01*
X0388558Y0042156D01*
X0388671Y0042045D01*
X0388781Y0041931D01*
X0388888Y0041814D01*
X0388992Y0041695D01*
X0389093Y0041573D01*
X0389190Y0041448D01*
X0389285Y0041321D01*
X0389376Y0041192D01*
X0389465Y0041061D01*
X0389549Y0040927D01*
X0389631Y0040791D01*
X0389709Y0040654D01*
X0389783Y0040514D01*
X0389854Y0040372D01*
X0389922Y0040229D01*
X0389986Y0040084D01*
X0390046Y0039938D01*
X0390102Y0039790D01*
X0390155Y0039641D01*
X0390204Y0039490D01*
X0390249Y0039338D01*
X0390290Y0039185D01*
X0390328Y0039032D01*
X0390361Y0038877D01*
X0390391Y0038721D01*
X0390417Y0038565D01*
X0390438Y0038408D01*
X0390456Y0038251D01*
X0390470Y0038093D01*
X0390480Y0037935D01*
X0390486Y0037777D01*
X0390488Y0037619D01*
X0390486Y0037461D01*
X0390480Y0037303D01*
X0390470Y0037145D01*
X0390456Y0036987D01*
X0390438Y0036830D01*
X0390417Y0036673D01*
X0390391Y0036517D01*
X0390361Y0036361D01*
X0390328Y0036206D01*
X0390290Y0036053D01*
X0390249Y0035900D01*
X0390204Y0035748D01*
X0390155Y0035597D01*
X0390102Y0035448D01*
X0390046Y0035300D01*
X0389986Y0035154D01*
X0389922Y0035009D01*
X0389854Y0034866D01*
X0389783Y0034724D01*
X0389709Y0034584D01*
X0389631Y0034447D01*
X0389549Y0034311D01*
X0389465Y0034177D01*
X0389376Y0034046D01*
X0389285Y0033917D01*
X0389190Y0033790D01*
X0389093Y0033665D01*
X0388992Y0033543D01*
X0388888Y0033424D01*
X0388781Y0033307D01*
X0388671Y0033193D01*
X0388558Y0033082D01*
X0388443Y0032973D01*
X0388325Y0032868D01*
X0388204Y0032766D01*
X0388081Y0032666D01*
X0387955Y0032570D01*
X0387827Y0032477D01*
X0387697Y0032387D01*
X0387564Y0032301D01*
X0387429Y0032217D01*
X0387293Y0032138D01*
X0387154Y0032061D01*
X0387013Y0031989D01*
X0386871Y0031919D01*
X0386727Y0031854D01*
X0386581Y0031792D01*
X0386434Y0031734D01*
X0386285Y0031679D01*
X0386135Y0031628D01*
X0385984Y0031581D01*
X0385832Y0031538D01*
X0385679Y0031499D01*
X0385524Y0031463D01*
X0385369Y0031432D01*
X0385213Y0031404D01*
X0385057Y0031380D01*
X0384900Y0031360D01*
X0384742Y0031344D01*
X0384585Y0031332D01*
X0384426Y0031324D01*
X0384268Y0031320D01*
X0384110Y0031320D01*
X0383952Y0031324D01*
X0383793Y0031332D01*
X0383636Y0031344D01*
X0383478Y0031360D01*
X0383321Y0031380D01*
X0383165Y0031404D01*
X0383009Y0031432D01*
X0382854Y0031463D01*
X0382699Y0031499D01*
X0382546Y0031538D01*
X0382394Y0031581D01*
X0382243Y0031628D01*
X0382093Y0031679D01*
X0381944Y0031734D01*
X0381797Y0031792D01*
X0381651Y0031854D01*
X0381507Y0031919D01*
X0381365Y0031989D01*
X0381224Y0032061D01*
X0381085Y0032138D01*
X0380949Y0032217D01*
X0380814Y0032301D01*
X0380681Y0032387D01*
X0380551Y0032477D01*
X0380423Y0032570D01*
X0380297Y0032666D01*
X0380174Y0032766D01*
X0380053Y0032868D01*
X0379935Y0032973D01*
X0379820Y0033082D01*
X0379707Y0033193D01*
X0379597Y0033307D01*
X0379490Y0033424D01*
X0379386Y0033543D01*
X0379285Y0033665D01*
X0379188Y0033790D01*
X0379093Y0033917D01*
X0379002Y0034046D01*
X0378913Y0034177D01*
X0378829Y0034311D01*
X0378747Y0034447D01*
X0378669Y0034584D01*
X0378595Y0034724D01*
X0378524Y0034866D01*
X0378456Y0035009D01*
X0378392Y0035154D01*
X0378332Y0035300D01*
X0378276Y0035448D01*
X0378223Y0035597D01*
X0378174Y0035748D01*
X0378129Y0035900D01*
X0378088Y0036053D01*
X0378050Y0036206D01*
X0378017Y0036361D01*
X0377987Y0036517D01*
X0377961Y0036673D01*
X0377940Y0036830D01*
X0377922Y0036987D01*
X0377908Y0037145D01*
X0377898Y0037303D01*
X0377892Y0037461D01*
X0377890Y0037619D01*
D11*
X0077758Y0092160D03*
X0074558Y0092160D03*
X0074558Y0095360D03*
X0077758Y0095360D03*
D12*
X0086945Y0098258D03*
X0096385Y0103208D03*
X0114504Y0102458D03*
X0118226Y0102458D03*
X0112585Y0091808D03*
X0095785Y0088208D03*
X0081985Y0084608D03*
X0088585Y0078008D03*
X0073585Y0082208D03*
X0071985Y0078308D03*
X0065892Y0079726D03*
X0062771Y0077326D03*
X0064485Y0068308D03*
X0051985Y0050808D03*
X0046985Y0050808D03*
X0046985Y0045808D03*
X0051985Y0045808D03*
X0049485Y0040808D03*
X0048285Y0032408D03*
X0046385Y0029108D03*
X0050585Y0029308D03*
X0025585Y0066008D03*
X0025585Y0080408D03*
X0029485Y0093308D03*
X0034485Y0093308D03*
X0044485Y0095808D03*
X0049485Y0098308D03*
X0041985Y0100808D03*
X0041785Y0108008D03*
X0057985Y0119408D03*
X0071785Y0115208D03*
X0073476Y0118664D03*
X0069385Y0109208D03*
X0074150Y0104548D03*
X0068785Y0103208D03*
X0065292Y0097658D03*
X0061179Y0094745D03*
X0059986Y0089352D03*
X0111385Y0077408D03*
X0158085Y0042308D03*
X0158085Y0030308D03*
X0134685Y0035108D03*
X0128685Y0035108D03*
X0128685Y0041108D03*
X0134685Y0041108D03*
X0121485Y0041108D03*
X0171785Y0065508D03*
X0185985Y0060208D03*
X0185985Y0056408D03*
X0191585Y0056408D03*
X0191585Y0060408D03*
X0191985Y0068308D03*
X0191985Y0073308D03*
X0216285Y0061108D03*
X0216285Y0056908D03*
X0223485Y0059408D03*
X0210385Y0048408D03*
X0204185Y0048608D03*
X0197985Y0048608D03*
X0236985Y0073308D03*
X0236985Y0078308D03*
X0246998Y0077120D03*
X0256985Y0078308D03*
X0256985Y0073308D03*
X0246985Y0068308D03*
X0246985Y0063308D03*
X0246985Y0055808D03*
X0246985Y0050808D03*
X0266985Y0050808D03*
X0266985Y0055808D03*
X0266985Y0063308D03*
X0266985Y0068308D03*
X0276985Y0073308D03*
X0276985Y0078308D03*
X0266683Y0077120D03*
X0286985Y0078308D03*
X0286985Y0073308D03*
X0286985Y0068308D03*
X0286985Y0060808D03*
X0286985Y0055808D03*
X0321985Y0035808D03*
X0321985Y0030808D03*
X0326985Y0030808D03*
X0331985Y0030808D03*
X0339485Y0030808D03*
X0344485Y0030808D03*
X0349485Y0030808D03*
X0354485Y0030808D03*
X0354485Y0035808D03*
X0349485Y0035808D03*
X0344485Y0035808D03*
X0344485Y0040808D03*
X0349485Y0040808D03*
X0354485Y0040808D03*
X0354485Y0045808D03*
X0349485Y0045808D03*
X0344485Y0045808D03*
X0360255Y0047282D03*
X0366985Y0043308D03*
X0371985Y0043308D03*
X0371985Y0038308D03*
X0366985Y0038308D03*
X0366985Y0033308D03*
X0371985Y0033308D03*
X0353055Y0054482D03*
X0329255Y0089782D03*
X0319655Y0100582D03*
X0360567Y0112422D03*
X0350185Y0125408D03*
X0350185Y0132608D03*
X0357800Y0140308D03*
X0359055Y0151082D03*
X0350655Y0158282D03*
X0359055Y0160682D03*
X0359055Y0170282D03*
X0349455Y0173882D03*
X0350655Y0181082D03*
X0357855Y0181082D03*
X0356985Y0190808D03*
X0336985Y0190808D03*
X0336985Y0180808D03*
X0336985Y0170808D03*
X0320655Y0181082D03*
X0313455Y0181082D03*
X0307455Y0181082D03*
X0305055Y0173882D03*
X0314655Y0170282D03*
X0314655Y0160682D03*
X0305055Y0158282D03*
X0314655Y0151082D03*
X0297985Y0142208D03*
X0297985Y0136208D03*
X0305185Y0132608D03*
X0305185Y0125408D03*
X0312385Y0125408D03*
X0312800Y0140308D03*
X0274485Y0138308D03*
X0269485Y0138308D03*
X0264485Y0138308D03*
X0264485Y0130434D03*
X0236985Y0138308D03*
X0231985Y0138308D03*
X0226985Y0138308D03*
X0221985Y0138308D03*
X0226985Y0148308D03*
X0231985Y0148308D03*
X0236985Y0148308D03*
X0232185Y0157908D03*
X0225555Y0159482D03*
X0225555Y0167882D03*
X0225555Y0176282D03*
X0231985Y0190808D03*
X0256985Y0190808D03*
X0271985Y0190808D03*
X0291985Y0190808D03*
X0316985Y0190808D03*
X0263055Y0176282D03*
X0263055Y0167882D03*
X0263055Y0159482D03*
X0269485Y0157908D03*
X0269485Y0148308D03*
X0274485Y0148308D03*
X0264485Y0148308D03*
X0226709Y0128170D03*
X0199150Y0136044D03*
X0191276Y0136044D03*
X0183402Y0136044D03*
X0183402Y0143918D03*
X0183402Y0151792D03*
X0183255Y0159482D03*
X0188055Y0159482D03*
X0188055Y0164482D03*
X0183055Y0164482D03*
X0196485Y0157908D03*
X0176385Y0173808D03*
X0160764Y0180335D03*
X0150985Y0179408D03*
X0137585Y0185108D03*
X0130585Y0185208D03*
X0117985Y0186008D03*
X0104985Y0193808D03*
X0103185Y0190808D03*
X0100785Y0187808D03*
X0092385Y0188408D03*
X0089985Y0190808D03*
X0088185Y0193808D03*
X0082785Y0198008D03*
X0067043Y0184475D03*
X0052785Y0195608D03*
X0047985Y0193808D03*
X0067043Y0174275D03*
X0067043Y0169475D03*
X0055785Y0168308D03*
X0055785Y0163308D03*
X0056985Y0159608D03*
X0053985Y0155408D03*
X0063585Y0158408D03*
X0065985Y0155408D03*
X0074985Y0159008D03*
X0086385Y0159008D03*
X0092985Y0163208D03*
X0115985Y0155408D03*
X0115937Y0151792D03*
X0129985Y0155408D03*
X0133952Y0147855D03*
X0136185Y0145208D03*
X0142585Y0156008D03*
X0141385Y0160808D03*
X0155385Y0156008D03*
X0160764Y0151792D03*
X0160764Y0147855D03*
X0161196Y0143918D03*
X0183402Y0128170D03*
X0191276Y0128170D03*
X0153706Y0122601D03*
X0134785Y0132608D03*
X0128185Y0120008D03*
X0118226Y0115712D03*
X0114504Y0118664D03*
X0073485Y0128808D03*
X0069885Y0132408D03*
X0066585Y0135008D03*
X0059185Y0129008D03*
X0045885Y0138408D03*
X0053885Y0141408D03*
X0027885Y0124908D03*
X0093985Y0145808D03*
X0118295Y0168918D03*
X0150985Y0171608D03*
X0186985Y0187208D03*
X0186985Y0196208D03*
X0182785Y0196208D03*
X0177985Y0196208D03*
X0186985Y0204008D03*
X0196985Y0200808D03*
X0196985Y0185808D03*
X0161785Y0204608D03*
X0155785Y0204608D03*
X0131785Y0203408D03*
X0132385Y0196808D03*
X0124585Y0203408D03*
X0107185Y0201008D03*
X0218585Y0215208D03*
X0224585Y0215208D03*
X0230585Y0215208D03*
X0381985Y0190808D03*
D13*
X0382300Y0212208D03*
X0362300Y0212208D03*
X0342300Y0212208D03*
X0322300Y0212208D03*
X0302300Y0212208D03*
X0282300Y0212208D03*
X0262300Y0212208D03*
X0242300Y0212208D03*
X0206985Y0185808D03*
X0186985Y0168308D03*
X0161985Y0158308D03*
X0159485Y0155808D03*
X0136985Y0165808D03*
X0095985Y0128308D03*
X0092785Y0125408D03*
X0138385Y0119408D03*
X0141985Y0119408D03*
X0141985Y0113408D03*
X0153985Y0114608D03*
X0164785Y0115808D03*
X0165985Y0119408D03*
X0155185Y0096608D03*
X0141985Y0091808D03*
X0135985Y0084608D03*
X0129985Y0089408D03*
X0143185Y0078608D03*
X0135985Y0077408D03*
X0139585Y0073808D03*
X0143185Y0069008D03*
X0150385Y0079808D03*
X0165985Y0073308D03*
X0184485Y0080808D03*
X0174485Y0088308D03*
X0176985Y0090808D03*
X0169485Y0088308D03*
X0200685Y0082108D03*
X0214985Y0080808D03*
X0316800Y0140308D03*
X0314800Y0143308D03*
X0316800Y0146308D03*
X0312800Y0146308D03*
X0320785Y0150608D03*
X0331585Y0150608D03*
X0343585Y0162608D03*
X0350785Y0166208D03*
X0366385Y0150608D03*
X0361800Y0146308D03*
X0359800Y0143308D03*
X0357800Y0146308D03*
X0361800Y0140308D03*
X0375985Y0149408D03*
X0322185Y0118108D03*
X0321985Y0113308D03*
X0333985Y0106208D03*
X0330685Y0103308D03*
X0324485Y0103308D03*
X0332785Y0096608D03*
X0381985Y0105808D03*
X0381985Y0110808D03*
X0299185Y0162608D03*
X0305185Y0166208D03*
X0234485Y0180808D03*
X0186985Y0210808D03*
X0184485Y0214508D03*
X0184485Y0218308D03*
X0056985Y0178708D03*
X0054485Y0181208D03*
X0025585Y0161408D03*
X0053185Y0150608D03*
X0027585Y0137408D03*
X0026185Y0133308D03*
D14*
X0237300Y0212208D03*
X0237300Y0218208D03*
X0257300Y0218208D03*
X0257300Y0212208D03*
X0277300Y0212208D03*
X0277300Y0218208D03*
X0297300Y0218208D03*
X0297300Y0212208D03*
X0317300Y0212208D03*
X0317300Y0218208D03*
X0337300Y0218208D03*
X0337300Y0212208D03*
X0357300Y0212208D03*
X0357300Y0218208D03*
X0377300Y0218208D03*
X0377300Y0212208D03*
D15*
X0344576Y0064259D03*
X0340639Y0064259D03*
X0340639Y0060322D03*
X0344576Y0060322D03*
X0344576Y0056385D03*
X0340639Y0056385D03*
D16*
X0214985Y0080808D03*
X0208985Y0080808D03*
X0197485Y0080808D03*
X0191485Y0080808D03*
X0067906Y0115608D03*
X0061906Y0115608D03*
X0061906Y0124808D03*
X0067906Y0124808D03*
D17*
X0049985Y0165808D02*
X0043985Y0165808D01*
X0043985Y0175808D02*
X0049985Y0175808D01*
X0049531Y0205834D02*
X0043531Y0205834D01*
X0043531Y0215834D02*
X0049531Y0215834D01*
X0237300Y0203808D02*
X0237300Y0197808D01*
X0247300Y0197808D02*
X0247300Y0203808D01*
X0257300Y0203808D02*
X0257300Y0197808D01*
X0267300Y0197808D02*
X0267300Y0203808D01*
X0277300Y0203808D02*
X0277300Y0197808D01*
X0287300Y0197808D02*
X0287300Y0203808D01*
X0297300Y0203808D02*
X0297300Y0197808D01*
X0307300Y0197808D02*
X0307300Y0203808D01*
X0317300Y0203808D02*
X0317300Y0197808D01*
X0327300Y0197808D02*
X0327300Y0203808D01*
X0337300Y0203808D02*
X0337300Y0197808D01*
X0347300Y0197808D02*
X0347300Y0203808D01*
X0357300Y0203808D02*
X0357300Y0197808D01*
X0367300Y0197808D02*
X0367300Y0203808D01*
X0377300Y0203808D02*
X0377300Y0197808D01*
X0387300Y0197808D02*
X0387300Y0203808D01*
X0284485Y0037608D02*
X0284485Y0031608D01*
X0274485Y0031608D02*
X0274485Y0037608D01*
X0264485Y0037608D02*
X0264485Y0031608D01*
X0254485Y0031608D02*
X0254485Y0037608D01*
X0244485Y0037608D02*
X0244485Y0031608D01*
X0234485Y0031608D02*
X0234485Y0037608D01*
X0174485Y0037608D02*
X0174485Y0031608D01*
X0164485Y0031608D02*
X0164485Y0037608D01*
X0151985Y0037608D02*
X0151985Y0031608D01*
X0141985Y0031608D02*
X0141985Y0037608D01*
X0041985Y0037608D02*
X0041985Y0031608D01*
X0031985Y0031608D02*
X0031985Y0037608D01*
D18*
X0031985Y0145808D03*
X0031985Y0155808D03*
X0031985Y0165808D03*
X0031985Y0175808D03*
X0031985Y0185808D03*
X0031985Y0195808D03*
D19*
X0060185Y0206208D03*
X0070185Y0206208D03*
X0080185Y0206208D03*
X0090185Y0206208D03*
X0100185Y0206208D03*
X0110185Y0206208D03*
X0110185Y0216208D03*
X0100185Y0216208D03*
X0090185Y0216208D03*
X0080185Y0216208D03*
X0070185Y0216208D03*
X0060185Y0216208D03*
D20*
X0042039Y0210834D02*
X0040591Y0210235D01*
X0039131Y0208775D01*
X0038341Y0206867D01*
X0038341Y0204802D01*
X0039131Y0202894D01*
X0040591Y0201434D01*
X0042499Y0200644D01*
X0045302Y0200644D01*
X0045302Y0195906D01*
X0045118Y0195723D01*
X0044604Y0194480D01*
X0044604Y0193135D01*
X0045118Y0191892D01*
X0046069Y0190941D01*
X0047312Y0190426D01*
X0048657Y0190426D01*
X0049900Y0190941D01*
X0050851Y0191892D01*
X0051154Y0192623D01*
X0052112Y0192226D01*
X0053457Y0192226D01*
X0054700Y0192741D01*
X0055651Y0193692D01*
X0056166Y0194935D01*
X0056166Y0196280D01*
X0055651Y0197523D01*
X0055467Y0197706D01*
X0055467Y0199296D01*
X0055504Y0199333D01*
X0056259Y0200088D01*
X0056667Y0201074D01*
X0056667Y0202384D01*
X0058035Y0201017D01*
X0059679Y0201017D01*
X0066983Y0193419D01*
X0066953Y0193086D01*
X0067002Y0192928D01*
X0067154Y0183898D01*
X0056589Y0183898D01*
X0056405Y0184082D01*
X0055159Y0184598D01*
X0053810Y0184598D01*
X0052564Y0184082D01*
X0051610Y0183128D01*
X0051094Y0181882D01*
X0051094Y0180966D01*
X0051017Y0180998D01*
X0042952Y0180998D01*
X0041045Y0180208D01*
X0039584Y0178748D01*
X0038794Y0176840D01*
X0038794Y0174775D01*
X0039584Y0172867D01*
X0041045Y0171407D01*
X0042492Y0170808D01*
X0041045Y0170208D01*
X0039584Y0168748D01*
X0038794Y0166840D01*
X0038794Y0164775D01*
X0039584Y0162867D01*
X0041045Y0161407D01*
X0042952Y0160617D01*
X0051017Y0160617D01*
X0052925Y0161407D01*
X0054385Y0162867D01*
X0055175Y0164775D01*
X0055175Y0166840D01*
X0054385Y0168748D01*
X0052925Y0170208D01*
X0051477Y0170808D01*
X0052925Y0171407D01*
X0054385Y0172867D01*
X0055175Y0174775D01*
X0055175Y0175787D01*
X0056310Y0175317D01*
X0057659Y0175317D01*
X0058905Y0175833D01*
X0059089Y0176017D01*
X0067057Y0176017D01*
X0067291Y0175807D01*
X0067294Y0175615D01*
X0067294Y0158525D01*
X0066966Y0158661D01*
X0066966Y0159080D01*
X0066451Y0160323D01*
X0065500Y0161274D01*
X0064257Y0161789D01*
X0062912Y0161789D01*
X0061669Y0161274D01*
X0061584Y0161189D01*
X0059989Y0161189D01*
X0059851Y0161523D01*
X0058900Y0162474D01*
X0057657Y0162989D01*
X0056312Y0162989D01*
X0055069Y0162474D01*
X0054118Y0161523D01*
X0053604Y0160280D01*
X0053604Y0158935D01*
X0053664Y0158789D01*
X0053312Y0158789D01*
X0052069Y0158274D01*
X0051118Y0157323D01*
X0050604Y0156080D01*
X0050604Y0154735D01*
X0051118Y0153492D01*
X0051196Y0153414D01*
X0050310Y0152528D01*
X0049794Y0151282D01*
X0049794Y0149933D01*
X0050310Y0148687D01*
X0051264Y0147733D01*
X0052510Y0147217D01*
X0053859Y0147217D01*
X0054213Y0147363D01*
X0062746Y0147363D01*
X0063594Y0146515D01*
X0063594Y0136623D01*
X0063204Y0135680D01*
X0063204Y0134335D01*
X0063718Y0133092D01*
X0064669Y0132141D01*
X0065912Y0131626D01*
X0067257Y0131626D01*
X0068500Y0132141D01*
X0069451Y0133092D01*
X0069757Y0133830D01*
X0078504Y0125083D01*
X0079261Y0124327D01*
X0080250Y0123917D01*
X0084161Y0123917D01*
X0089809Y0118753D01*
X0090115Y0118443D01*
X0090304Y0117988D01*
X0090503Y0117499D01*
X0090508Y0117494D01*
X0090510Y0117488D01*
X0090882Y0117116D01*
X0091254Y0116741D01*
X0091260Y0116738D01*
X0091265Y0116733D01*
X0091751Y0116532D01*
X0092238Y0116328D01*
X0092245Y0116327D01*
X0092251Y0116325D01*
X0092778Y0116325D01*
X0093305Y0116322D01*
X0093312Y0116325D01*
X0111723Y0116325D01*
X0111723Y0104458D01*
X0111638Y0104373D01*
X0111123Y0103130D01*
X0111123Y0101785D01*
X0111638Y0100543D01*
X0111802Y0100379D01*
X0111802Y0095143D01*
X0110669Y0094674D01*
X0109718Y0093723D01*
X0109204Y0092480D01*
X0109204Y0091135D01*
X0109718Y0089892D01*
X0109804Y0089807D01*
X0109804Y0080412D01*
X0109469Y0080274D01*
X0108518Y0079323D01*
X0108004Y0078080D01*
X0108004Y0076735D01*
X0108518Y0075492D01*
X0109469Y0074541D01*
X0110712Y0074026D01*
X0112057Y0074026D01*
X0113300Y0074541D01*
X0114251Y0075492D01*
X0114766Y0076735D01*
X0114766Y0076856D01*
X0114942Y0077032D01*
X0115366Y0078054D01*
X0115366Y0078125D01*
X0132612Y0078125D01*
X0132594Y0078082D01*
X0132594Y0076733D01*
X0133110Y0075487D01*
X0134064Y0074533D01*
X0135310Y0074017D01*
X0136194Y0074017D01*
X0136194Y0073133D01*
X0136710Y0071887D01*
X0136802Y0071795D01*
X0136802Y0052774D01*
X0137210Y0051788D01*
X0137965Y0051033D01*
X0138951Y0050625D01*
X0140647Y0050625D01*
X0141390Y0050317D01*
X0142580Y0050317D01*
X0143323Y0050625D01*
X0148147Y0050625D01*
X0148890Y0050317D01*
X0150080Y0050317D01*
X0150823Y0050625D01*
X0153147Y0050625D01*
X0153890Y0050317D01*
X0155080Y0050317D01*
X0155823Y0050625D01*
X0160647Y0050625D01*
X0161390Y0050317D01*
X0162580Y0050317D01*
X0163323Y0050625D01*
X0165018Y0050625D01*
X0166004Y0051033D01*
X0166759Y0051788D01*
X0167167Y0052774D01*
X0167167Y0070128D01*
X0167905Y0070433D01*
X0168859Y0071387D01*
X0169375Y0072633D01*
X0169375Y0073982D01*
X0168859Y0075228D01*
X0168775Y0075312D01*
X0168775Y0084932D01*
X0168810Y0084917D01*
X0170159Y0084917D01*
X0171405Y0085433D01*
X0171985Y0086013D01*
X0172564Y0085433D01*
X0173810Y0084917D01*
X0175159Y0084917D01*
X0176405Y0085433D01*
X0177359Y0086387D01*
X0177812Y0087480D01*
X0178905Y0087933D01*
X0179859Y0088887D01*
X0180375Y0090133D01*
X0180375Y0091482D01*
X0179859Y0092728D01*
X0178905Y0093682D01*
X0177659Y0094198D01*
X0177399Y0094198D01*
X0177175Y0094422D01*
X0177175Y0159693D01*
X0184040Y0166558D01*
X0184110Y0166387D01*
X0185064Y0165433D01*
X0186310Y0164917D01*
X0187659Y0164917D01*
X0188905Y0165433D01*
X0189089Y0165617D01*
X0190020Y0165617D01*
X0191009Y0166027D01*
X0207399Y0182417D01*
X0207659Y0182417D01*
X0208905Y0182933D01*
X0209859Y0183887D01*
X0210375Y0185133D01*
X0210375Y0186482D01*
X0209859Y0187728D01*
X0208905Y0188682D01*
X0207659Y0189198D01*
X0206310Y0189198D01*
X0205064Y0188682D01*
X0204110Y0187728D01*
X0203594Y0186482D01*
X0203594Y0186222D01*
X0196843Y0179471D01*
X0197175Y0180272D01*
X0197175Y0213843D01*
X0196766Y0214832D01*
X0191766Y0219832D01*
X0191530Y0220067D01*
X0232559Y0220067D01*
X0232559Y0218767D01*
X0236740Y0218767D01*
X0236740Y0217648D01*
X0232559Y0217648D01*
X0232559Y0216015D01*
X0231959Y0215415D01*
X0231959Y0209000D01*
X0233242Y0207717D01*
X0234871Y0207717D01*
X0234309Y0207309D01*
X0233798Y0206798D01*
X0233373Y0206214D01*
X0233045Y0205570D01*
X0232822Y0204883D01*
X0232709Y0204169D01*
X0232709Y0201217D01*
X0236890Y0201217D01*
X0236890Y0200398D01*
X0232709Y0200398D01*
X0232709Y0197446D01*
X0232822Y0196733D01*
X0233045Y0196045D01*
X0233373Y0195402D01*
X0233798Y0194817D01*
X0234309Y0194306D01*
X0234894Y0193881D01*
X0235538Y0193553D01*
X0236225Y0193330D01*
X0236890Y0193225D01*
X0236890Y0200398D01*
X0237709Y0200398D01*
X0237709Y0193225D01*
X0238375Y0193330D01*
X0239062Y0193553D01*
X0239706Y0193881D01*
X0240290Y0194306D01*
X0240801Y0194817D01*
X0241226Y0195402D01*
X0241554Y0196045D01*
X0241777Y0196733D01*
X0241890Y0197446D01*
X0241890Y0200398D01*
X0237709Y0200398D01*
X0237709Y0201217D01*
X0241890Y0201217D01*
X0241890Y0204169D01*
X0241777Y0204883D01*
X0241554Y0205570D01*
X0241226Y0206214D01*
X0240801Y0206798D01*
X0240290Y0207309D01*
X0239729Y0207717D01*
X0241357Y0207717D01*
X0242457Y0208817D01*
X0242974Y0208817D01*
X0244220Y0209333D01*
X0245174Y0210287D01*
X0245690Y0211533D01*
X0245690Y0212882D01*
X0245174Y0214128D01*
X0244220Y0215082D01*
X0242974Y0215598D01*
X0242457Y0215598D01*
X0242040Y0216015D01*
X0242040Y0217648D01*
X0237859Y0217648D01*
X0237859Y0218767D01*
X0242040Y0218767D01*
X0242040Y0220067D01*
X0252559Y0220067D01*
X0252559Y0218767D01*
X0256740Y0218767D01*
X0256740Y0217648D01*
X0252559Y0217648D01*
X0252559Y0216015D01*
X0251959Y0215415D01*
X0251959Y0209000D01*
X0253242Y0207717D01*
X0254871Y0207717D01*
X0254309Y0207309D01*
X0253798Y0206798D01*
X0253373Y0206214D01*
X0253045Y0205570D01*
X0252822Y0204883D01*
X0252709Y0204169D01*
X0252709Y0201217D01*
X0256890Y0201217D01*
X0256890Y0200398D01*
X0252709Y0200398D01*
X0252709Y0197446D01*
X0252822Y0196733D01*
X0253045Y0196045D01*
X0253373Y0195402D01*
X0253798Y0194817D01*
X0254309Y0194306D01*
X0254894Y0193881D01*
X0255538Y0193553D01*
X0256225Y0193330D01*
X0256890Y0193225D01*
X0256890Y0200398D01*
X0257709Y0200398D01*
X0257709Y0193225D01*
X0258375Y0193330D01*
X0259062Y0193553D01*
X0259706Y0193881D01*
X0260290Y0194306D01*
X0260801Y0194817D01*
X0261226Y0195402D01*
X0261554Y0196045D01*
X0261777Y0196733D01*
X0261890Y0197446D01*
X0261890Y0200398D01*
X0257709Y0200398D01*
X0257709Y0201217D01*
X0261890Y0201217D01*
X0261890Y0204169D01*
X0261777Y0204883D01*
X0261554Y0205570D01*
X0261226Y0206214D01*
X0260801Y0206798D01*
X0260290Y0207309D01*
X0259729Y0207717D01*
X0261357Y0207717D01*
X0262457Y0208817D01*
X0262974Y0208817D01*
X0264220Y0209333D01*
X0265174Y0210287D01*
X0265690Y0211533D01*
X0265690Y0212882D01*
X0265174Y0214128D01*
X0264220Y0215082D01*
X0262974Y0215598D01*
X0262457Y0215598D01*
X0262040Y0216015D01*
X0262040Y0217648D01*
X0257859Y0217648D01*
X0257859Y0218767D01*
X0262040Y0218767D01*
X0262040Y0220067D01*
X0272559Y0220067D01*
X0272559Y0218767D01*
X0276740Y0218767D01*
X0276740Y0217648D01*
X0272559Y0217648D01*
X0272559Y0216015D01*
X0271959Y0215415D01*
X0271959Y0209000D01*
X0273242Y0207717D01*
X0274871Y0207717D01*
X0274309Y0207309D01*
X0273798Y0206798D01*
X0273373Y0206214D01*
X0273045Y0205570D01*
X0272822Y0204883D01*
X0272709Y0204169D01*
X0272709Y0201217D01*
X0276890Y0201217D01*
X0276890Y0200398D01*
X0272709Y0200398D01*
X0272709Y0197446D01*
X0272822Y0196733D01*
X0273045Y0196045D01*
X0273373Y0195402D01*
X0273798Y0194817D01*
X0274309Y0194306D01*
X0274894Y0193881D01*
X0275538Y0193553D01*
X0276225Y0193330D01*
X0276890Y0193225D01*
X0276890Y0200398D01*
X0277709Y0200398D01*
X0277709Y0193225D01*
X0278375Y0193330D01*
X0279062Y0193553D01*
X0279706Y0193881D01*
X0280290Y0194306D01*
X0280801Y0194817D01*
X0281226Y0195402D01*
X0281554Y0196045D01*
X0281777Y0196733D01*
X0281890Y0197446D01*
X0281890Y0200398D01*
X0277709Y0200398D01*
X0277709Y0201217D01*
X0281890Y0201217D01*
X0281890Y0204169D01*
X0281777Y0204883D01*
X0281554Y0205570D01*
X0281226Y0206214D01*
X0280801Y0206798D01*
X0280290Y0207309D01*
X0279729Y0207717D01*
X0281357Y0207717D01*
X0282457Y0208817D01*
X0282974Y0208817D01*
X0284220Y0209333D01*
X0285174Y0210287D01*
X0285690Y0211533D01*
X0285690Y0212882D01*
X0285174Y0214128D01*
X0284220Y0215082D01*
X0282974Y0215598D01*
X0282457Y0215598D01*
X0282040Y0216015D01*
X0282040Y0217648D01*
X0277859Y0217648D01*
X0277859Y0218767D01*
X0282040Y0218767D01*
X0282040Y0220067D01*
X0292559Y0220067D01*
X0292559Y0218767D01*
X0296740Y0218767D01*
X0296740Y0217648D01*
X0292559Y0217648D01*
X0292559Y0216015D01*
X0291959Y0215415D01*
X0291959Y0209000D01*
X0293242Y0207717D01*
X0294871Y0207717D01*
X0294309Y0207309D01*
X0293798Y0206798D01*
X0293373Y0206214D01*
X0293045Y0205570D01*
X0292822Y0204883D01*
X0292709Y0204169D01*
X0292709Y0201217D01*
X0296890Y0201217D01*
X0296890Y0200398D01*
X0292709Y0200398D01*
X0292709Y0197446D01*
X0292822Y0196733D01*
X0293045Y0196045D01*
X0293373Y0195402D01*
X0293798Y0194817D01*
X0294309Y0194306D01*
X0294894Y0193881D01*
X0295538Y0193553D01*
X0296225Y0193330D01*
X0296890Y0193225D01*
X0296890Y0200398D01*
X0297709Y0200398D01*
X0297709Y0193225D01*
X0298375Y0193330D01*
X0299062Y0193553D01*
X0299706Y0193881D01*
X0300290Y0194306D01*
X0300801Y0194817D01*
X0301226Y0195402D01*
X0301554Y0196045D01*
X0301777Y0196733D01*
X0301890Y0197446D01*
X0301890Y0200398D01*
X0297709Y0200398D01*
X0297709Y0201217D01*
X0301890Y0201217D01*
X0301890Y0204169D01*
X0301777Y0204883D01*
X0301554Y0205570D01*
X0301226Y0206214D01*
X0300801Y0206798D01*
X0300290Y0207309D01*
X0299729Y0207717D01*
X0301357Y0207717D01*
X0302457Y0208817D01*
X0302974Y0208817D01*
X0304220Y0209333D01*
X0305174Y0210287D01*
X0305690Y0211533D01*
X0305690Y0212882D01*
X0305174Y0214128D01*
X0304220Y0215082D01*
X0302974Y0215598D01*
X0302457Y0215598D01*
X0302040Y0216015D01*
X0302040Y0217648D01*
X0297859Y0217648D01*
X0297859Y0218767D01*
X0302040Y0218767D01*
X0302040Y0220067D01*
X0312559Y0220067D01*
X0312559Y0218767D01*
X0316740Y0218767D01*
X0316740Y0217648D01*
X0312559Y0217648D01*
X0312559Y0216015D01*
X0311959Y0215415D01*
X0311959Y0209000D01*
X0313242Y0207717D01*
X0314871Y0207717D01*
X0314309Y0207309D01*
X0313798Y0206798D01*
X0313373Y0206214D01*
X0313045Y0205570D01*
X0312822Y0204883D01*
X0312709Y0204169D01*
X0312709Y0201217D01*
X0316890Y0201217D01*
X0316890Y0200398D01*
X0312709Y0200398D01*
X0312709Y0197446D01*
X0312822Y0196733D01*
X0313045Y0196045D01*
X0313373Y0195402D01*
X0313798Y0194817D01*
X0314309Y0194306D01*
X0314894Y0193881D01*
X0315538Y0193553D01*
X0316225Y0193330D01*
X0316890Y0193225D01*
X0316890Y0200398D01*
X0317709Y0200398D01*
X0317709Y0193225D01*
X0318375Y0193330D01*
X0319062Y0193553D01*
X0319706Y0193881D01*
X0320290Y0194306D01*
X0320801Y0194817D01*
X0321226Y0195402D01*
X0321554Y0196045D01*
X0321777Y0196733D01*
X0321890Y0197446D01*
X0321890Y0200398D01*
X0317709Y0200398D01*
X0317709Y0201217D01*
X0321890Y0201217D01*
X0321890Y0204169D01*
X0321777Y0204883D01*
X0321554Y0205570D01*
X0321226Y0206214D01*
X0320801Y0206798D01*
X0320290Y0207309D01*
X0319729Y0207717D01*
X0321357Y0207717D01*
X0322457Y0208817D01*
X0322974Y0208817D01*
X0324220Y0209333D01*
X0325174Y0210287D01*
X0325690Y0211533D01*
X0325690Y0212882D01*
X0325174Y0214128D01*
X0324220Y0215082D01*
X0322974Y0215598D01*
X0322457Y0215598D01*
X0322040Y0216015D01*
X0322040Y0217648D01*
X0317859Y0217648D01*
X0317859Y0218767D01*
X0322040Y0218767D01*
X0322040Y0220067D01*
X0332559Y0220067D01*
X0332559Y0218767D01*
X0336740Y0218767D01*
X0336740Y0217648D01*
X0332559Y0217648D01*
X0332559Y0216015D01*
X0331959Y0215415D01*
X0331959Y0209000D01*
X0333242Y0207717D01*
X0334871Y0207717D01*
X0334309Y0207309D01*
X0333798Y0206798D01*
X0333373Y0206214D01*
X0333045Y0205570D01*
X0332822Y0204883D01*
X0332709Y0204169D01*
X0332709Y0201217D01*
X0336890Y0201217D01*
X0336890Y0200398D01*
X0332709Y0200398D01*
X0332709Y0197446D01*
X0332822Y0196733D01*
X0333045Y0196045D01*
X0333373Y0195402D01*
X0333798Y0194817D01*
X0334309Y0194306D01*
X0334894Y0193881D01*
X0335538Y0193553D01*
X0336225Y0193330D01*
X0336890Y0193225D01*
X0336890Y0200398D01*
X0337709Y0200398D01*
X0337709Y0193225D01*
X0338375Y0193330D01*
X0339062Y0193553D01*
X0339706Y0193881D01*
X0340290Y0194306D01*
X0340801Y0194817D01*
X0341226Y0195402D01*
X0341554Y0196045D01*
X0341777Y0196733D01*
X0341890Y0197446D01*
X0341890Y0200398D01*
X0337709Y0200398D01*
X0337709Y0201217D01*
X0341890Y0201217D01*
X0341890Y0204169D01*
X0341777Y0204883D01*
X0341554Y0205570D01*
X0341226Y0206214D01*
X0340801Y0206798D01*
X0340290Y0207309D01*
X0339729Y0207717D01*
X0341357Y0207717D01*
X0342457Y0208817D01*
X0342974Y0208817D01*
X0344220Y0209333D01*
X0345174Y0210287D01*
X0345690Y0211533D01*
X0345690Y0212882D01*
X0345174Y0214128D01*
X0344220Y0215082D01*
X0342974Y0215598D01*
X0342457Y0215598D01*
X0342040Y0216015D01*
X0342040Y0217648D01*
X0337859Y0217648D01*
X0337859Y0218767D01*
X0342040Y0218767D01*
X0342040Y0220067D01*
X0352559Y0220067D01*
X0352559Y0218767D01*
X0356740Y0218767D01*
X0356740Y0217648D01*
X0352559Y0217648D01*
X0352559Y0216015D01*
X0351959Y0215415D01*
X0351959Y0209000D01*
X0353242Y0207717D01*
X0354871Y0207717D01*
X0354309Y0207309D01*
X0353798Y0206798D01*
X0353373Y0206214D01*
X0353045Y0205570D01*
X0352822Y0204883D01*
X0352709Y0204169D01*
X0352709Y0201217D01*
X0356890Y0201217D01*
X0356890Y0200398D01*
X0352709Y0200398D01*
X0352709Y0197446D01*
X0352822Y0196733D01*
X0353045Y0196045D01*
X0353373Y0195402D01*
X0353798Y0194817D01*
X0354309Y0194306D01*
X0354894Y0193881D01*
X0355538Y0193553D01*
X0356225Y0193330D01*
X0356890Y0193225D01*
X0356890Y0200398D01*
X0357709Y0200398D01*
X0357709Y0193225D01*
X0358375Y0193330D01*
X0359062Y0193553D01*
X0359706Y0193881D01*
X0360290Y0194306D01*
X0360801Y0194817D01*
X0361226Y0195402D01*
X0361554Y0196045D01*
X0361777Y0196733D01*
X0361890Y0197446D01*
X0361890Y0200398D01*
X0357709Y0200398D01*
X0357709Y0201217D01*
X0361890Y0201217D01*
X0361890Y0204169D01*
X0361777Y0204883D01*
X0361554Y0205570D01*
X0361226Y0206214D01*
X0360801Y0206798D01*
X0360290Y0207309D01*
X0359729Y0207717D01*
X0361357Y0207717D01*
X0362457Y0208817D01*
X0362974Y0208817D01*
X0364220Y0209333D01*
X0365174Y0210287D01*
X0365690Y0211533D01*
X0365690Y0212882D01*
X0365174Y0214128D01*
X0364220Y0215082D01*
X0362974Y0215598D01*
X0362457Y0215598D01*
X0362040Y0216015D01*
X0362040Y0217648D01*
X0357859Y0217648D01*
X0357859Y0218767D01*
X0362040Y0218767D01*
X0362040Y0220067D01*
X0372559Y0220067D01*
X0372559Y0218767D01*
X0376740Y0218767D01*
X0376740Y0217648D01*
X0372559Y0217648D01*
X0372559Y0216015D01*
X0371959Y0215415D01*
X0371959Y0209000D01*
X0373242Y0207717D01*
X0374871Y0207717D01*
X0374309Y0207309D01*
X0373798Y0206798D01*
X0373373Y0206214D01*
X0373045Y0205570D01*
X0372822Y0204883D01*
X0372709Y0204169D01*
X0372709Y0201217D01*
X0376890Y0201217D01*
X0376890Y0200398D01*
X0372709Y0200398D01*
X0372709Y0197446D01*
X0372822Y0196733D01*
X0373045Y0196045D01*
X0373373Y0195402D01*
X0373798Y0194817D01*
X0374309Y0194306D01*
X0374894Y0193881D01*
X0375538Y0193553D01*
X0376225Y0193330D01*
X0376890Y0193225D01*
X0376890Y0200398D01*
X0377709Y0200398D01*
X0377709Y0193225D01*
X0378375Y0193330D01*
X0379062Y0193553D01*
X0379706Y0193881D01*
X0380290Y0194306D01*
X0380801Y0194817D01*
X0381226Y0195402D01*
X0381554Y0196045D01*
X0381777Y0196733D01*
X0381890Y0197446D01*
X0381890Y0200398D01*
X0377709Y0200398D01*
X0377709Y0201217D01*
X0381890Y0201217D01*
X0381890Y0204169D01*
X0381777Y0204883D01*
X0381554Y0205570D01*
X0381226Y0206214D01*
X0380801Y0206798D01*
X0380290Y0207309D01*
X0379729Y0207717D01*
X0381357Y0207717D01*
X0382457Y0208817D01*
X0382974Y0208817D01*
X0384220Y0209333D01*
X0385174Y0210287D01*
X0385690Y0211533D01*
X0385690Y0212882D01*
X0385174Y0214128D01*
X0384220Y0215082D01*
X0382974Y0215598D01*
X0382457Y0215598D01*
X0382040Y0216015D01*
X0382040Y0217648D01*
X0377859Y0217648D01*
X0377859Y0218767D01*
X0382040Y0218767D01*
X0382040Y0220067D01*
X0393410Y0220067D01*
X0393410Y0200097D01*
X0393037Y0200996D01*
X0392490Y0201543D01*
X0392490Y0204840D01*
X0391700Y0206748D01*
X0390240Y0208208D01*
X0388332Y0208998D01*
X0386267Y0208998D01*
X0384359Y0208208D01*
X0382899Y0206748D01*
X0382109Y0204840D01*
X0382109Y0196775D01*
X0382899Y0194867D01*
X0384359Y0193407D01*
X0385294Y0193020D01*
X0385294Y0119643D01*
X0384611Y0119360D01*
X0382111Y0116860D01*
X0380932Y0115681D01*
X0380545Y0114747D01*
X0379611Y0114360D01*
X0378432Y0113181D01*
X0377794Y0111641D01*
X0377794Y0104974D01*
X0378432Y0103434D01*
X0379611Y0102255D01*
X0381151Y0101617D01*
X0385318Y0101617D01*
X0385689Y0101770D01*
X0385856Y0101687D01*
X0386009Y0101676D01*
X0386151Y0101617D01*
X0386836Y0101617D01*
X0387519Y0101568D01*
X0387665Y0101617D01*
X0387818Y0101617D01*
X0388451Y0101879D01*
X0389101Y0102096D01*
X0389217Y0102196D01*
X0389358Y0102255D01*
X0389843Y0102739D01*
X0390360Y0103188D01*
X0390429Y0103325D01*
X0390537Y0103434D01*
X0390799Y0104067D01*
X0392929Y0108325D01*
X0393037Y0108434D01*
X0393299Y0109067D01*
X0393410Y0109288D01*
X0393410Y0028398D01*
X0288616Y0028398D01*
X0288885Y0028667D01*
X0289675Y0030575D01*
X0289675Y0038640D01*
X0288885Y0040548D01*
X0288675Y0040758D01*
X0288675Y0044141D01*
X0288037Y0045681D01*
X0286858Y0046860D01*
X0284358Y0049360D01*
X0282818Y0049998D01*
X0246151Y0049998D01*
X0244611Y0049360D01*
X0243432Y0048181D01*
X0240932Y0045681D01*
X0240294Y0044141D01*
X0240294Y0040758D01*
X0240084Y0040548D01*
X0239485Y0039100D01*
X0238885Y0040548D01*
X0237425Y0042008D01*
X0235517Y0042798D01*
X0233452Y0042798D01*
X0231545Y0042008D01*
X0230084Y0040548D01*
X0229294Y0038640D01*
X0229294Y0030575D01*
X0230084Y0028667D01*
X0230354Y0028398D01*
X0178616Y0028398D01*
X0178885Y0028667D01*
X0179675Y0030575D01*
X0179675Y0038640D01*
X0178885Y0040548D01*
X0177425Y0042008D01*
X0175517Y0042798D01*
X0173452Y0042798D01*
X0171545Y0042008D01*
X0170084Y0040548D01*
X0169294Y0038640D01*
X0169294Y0030575D01*
X0170084Y0028667D01*
X0170354Y0028398D01*
X0167767Y0028398D01*
X0167986Y0028617D01*
X0168411Y0029202D01*
X0168739Y0029845D01*
X0168962Y0030533D01*
X0169075Y0031246D01*
X0169075Y0034198D01*
X0164894Y0034198D01*
X0164894Y0035017D01*
X0164075Y0035017D01*
X0164075Y0034198D01*
X0159894Y0034198D01*
X0159894Y0031246D01*
X0160007Y0030533D01*
X0160230Y0029845D01*
X0160559Y0029202D01*
X0160983Y0028617D01*
X0161202Y0028398D01*
X0155267Y0028398D01*
X0155486Y0028617D01*
X0155911Y0029202D01*
X0156239Y0029845D01*
X0156462Y0030533D01*
X0156575Y0031246D01*
X0156575Y0034198D01*
X0152394Y0034198D01*
X0152394Y0035017D01*
X0151575Y0035017D01*
X0151575Y0034198D01*
X0147394Y0034198D01*
X0147394Y0031246D01*
X0147507Y0030533D01*
X0147730Y0029845D01*
X0148059Y0029202D01*
X0148483Y0028617D01*
X0148702Y0028398D01*
X0146116Y0028398D01*
X0146385Y0028667D01*
X0147175Y0030575D01*
X0147175Y0038640D01*
X0146385Y0040548D01*
X0144925Y0042008D01*
X0143017Y0042798D01*
X0140952Y0042798D01*
X0139045Y0042008D01*
X0137584Y0040548D01*
X0136794Y0038640D01*
X0136794Y0030575D01*
X0137584Y0028667D01*
X0137854Y0028398D01*
X0045267Y0028398D01*
X0045486Y0028617D01*
X0045911Y0029202D01*
X0046239Y0029845D01*
X0046462Y0030533D01*
X0046575Y0031246D01*
X0046575Y0034198D01*
X0042394Y0034198D01*
X0042394Y0035017D01*
X0041575Y0035017D01*
X0041575Y0034198D01*
X0037394Y0034198D01*
X0037394Y0031246D01*
X0037507Y0030533D01*
X0037730Y0029845D01*
X0038059Y0029202D01*
X0038483Y0028617D01*
X0038702Y0028398D01*
X0036116Y0028398D01*
X0036385Y0028667D01*
X0037175Y0030575D01*
X0037175Y0038640D01*
X0036385Y0040548D01*
X0034925Y0042008D01*
X0033017Y0042798D01*
X0030952Y0042798D01*
X0029045Y0042008D01*
X0027584Y0040548D01*
X0026794Y0038640D01*
X0026794Y0030575D01*
X0027584Y0028667D01*
X0027854Y0028398D01*
X0024575Y0028398D01*
X0024575Y0062766D01*
X0024912Y0062626D01*
X0026257Y0062626D01*
X0027500Y0063141D01*
X0028451Y0064092D01*
X0028966Y0065335D01*
X0028966Y0066680D01*
X0028575Y0067623D01*
X0028575Y0078792D01*
X0028966Y0079735D01*
X0028966Y0081080D01*
X0028451Y0082323D01*
X0027500Y0083274D01*
X0026257Y0083789D01*
X0024912Y0083789D01*
X0024575Y0083649D01*
X0024575Y0124062D01*
X0025018Y0122992D01*
X0025969Y0122041D01*
X0027212Y0121526D01*
X0028557Y0121526D01*
X0029800Y0122041D01*
X0030751Y0122992D01*
X0031266Y0124235D01*
X0031266Y0125580D01*
X0030751Y0126823D01*
X0029800Y0127774D01*
X0028966Y0128119D01*
X0028966Y0131294D01*
X0029059Y0131387D01*
X0029575Y0132633D01*
X0029575Y0133982D01*
X0029370Y0134477D01*
X0029505Y0134533D01*
X0030459Y0135487D01*
X0030975Y0136733D01*
X0030975Y0138082D01*
X0030459Y0139328D01*
X0029670Y0140117D01*
X0034342Y0140117D01*
X0037675Y0143450D01*
X0037675Y0148165D01*
X0035032Y0150808D01*
X0037675Y0153450D01*
X0037675Y0158165D01*
X0035032Y0160808D01*
X0037675Y0163450D01*
X0037675Y0168165D01*
X0035032Y0170808D01*
X0037675Y0173450D01*
X0037675Y0178165D01*
X0035032Y0180808D01*
X0037675Y0183450D01*
X0037675Y0188165D01*
X0035032Y0190808D01*
X0037675Y0193450D01*
X0037675Y0198165D01*
X0034342Y0201498D01*
X0029628Y0201498D01*
X0026294Y0198165D01*
X0026294Y0193450D01*
X0028937Y0190808D01*
X0026294Y0188165D01*
X0026294Y0183450D01*
X0028937Y0180808D01*
X0026294Y0178165D01*
X0026294Y0173450D01*
X0028937Y0170808D01*
X0026294Y0168165D01*
X0026294Y0164784D01*
X0026259Y0164798D01*
X0024910Y0164798D01*
X0024575Y0164659D01*
X0024575Y0220067D01*
X0040424Y0220067D01*
X0039131Y0218775D01*
X0038341Y0216867D01*
X0038341Y0214802D01*
X0039131Y0212894D01*
X0040591Y0211434D01*
X0042039Y0210834D01*
X0041622Y0211007D02*
X0024575Y0211007D01*
X0024575Y0212187D02*
X0039838Y0212187D01*
X0038935Y0213366D02*
X0024575Y0213366D01*
X0024575Y0214546D02*
X0038447Y0214546D01*
X0038341Y0215725D02*
X0024575Y0215725D01*
X0024575Y0216905D02*
X0038356Y0216905D01*
X0038845Y0218085D02*
X0024575Y0218085D01*
X0024575Y0219264D02*
X0039621Y0219264D01*
X0040184Y0209827D02*
X0024575Y0209827D01*
X0024575Y0208648D02*
X0039078Y0208648D01*
X0038590Y0207468D02*
X0024575Y0207468D01*
X0024575Y0206288D02*
X0038341Y0206288D01*
X0038341Y0205109D02*
X0024575Y0205109D01*
X0024575Y0203929D02*
X0038702Y0203929D01*
X0039275Y0202750D02*
X0024575Y0202750D01*
X0024575Y0201570D02*
X0040455Y0201570D01*
X0036629Y0199211D02*
X0045302Y0199211D01*
X0045302Y0200390D02*
X0035450Y0200390D01*
X0037675Y0198031D02*
X0045302Y0198031D01*
X0045302Y0196852D02*
X0037675Y0196852D01*
X0037675Y0195672D02*
X0045097Y0195672D01*
X0044609Y0194492D02*
X0037675Y0194492D01*
X0037538Y0193313D02*
X0044604Y0193313D01*
X0045019Y0192133D02*
X0036358Y0192133D01*
X0035178Y0190953D02*
X0046057Y0190953D01*
X0049912Y0190953D02*
X0067035Y0190953D01*
X0067055Y0189774D02*
X0036066Y0189774D01*
X0037246Y0188594D02*
X0067075Y0188594D01*
X0067095Y0187415D02*
X0037675Y0187415D01*
X0037675Y0186235D02*
X0067115Y0186235D01*
X0067135Y0185055D02*
X0037675Y0185055D01*
X0037675Y0183876D02*
X0052358Y0183876D01*
X0051431Y0182696D02*
X0036921Y0182696D01*
X0035741Y0181517D02*
X0051094Y0181517D01*
X0055175Y0175619D02*
X0055582Y0175619D01*
X0055036Y0174439D02*
X0067294Y0174439D01*
X0067294Y0175619D02*
X0058387Y0175619D01*
X0054547Y0173259D02*
X0067294Y0173259D01*
X0067294Y0172080D02*
X0053597Y0172080D01*
X0051700Y0170900D02*
X0067294Y0170900D01*
X0067294Y0169720D02*
X0053412Y0169720D01*
X0054471Y0168541D02*
X0067294Y0168541D01*
X0067294Y0167361D02*
X0054959Y0167361D01*
X0055175Y0166182D02*
X0067294Y0166182D01*
X0067294Y0165002D02*
X0055175Y0165002D01*
X0054781Y0163822D02*
X0067294Y0163822D01*
X0067294Y0162643D02*
X0058492Y0162643D01*
X0059876Y0161463D02*
X0062126Y0161463D01*
X0065043Y0161463D02*
X0067294Y0161463D01*
X0067294Y0160284D02*
X0066467Y0160284D01*
X0066956Y0159104D02*
X0067294Y0159104D01*
X0063585Y0158408D02*
X0058185Y0158408D01*
X0056985Y0159608D01*
X0053604Y0159104D02*
X0036736Y0159104D01*
X0037675Y0157924D02*
X0051720Y0157924D01*
X0050879Y0156745D02*
X0037675Y0156745D01*
X0037675Y0155565D02*
X0050604Y0155565D01*
X0050748Y0154385D02*
X0037675Y0154385D01*
X0037431Y0153206D02*
X0050988Y0153206D01*
X0050102Y0152026D02*
X0036251Y0152026D01*
X0035071Y0150847D02*
X0049794Y0150847D01*
X0049904Y0149667D02*
X0036173Y0149667D01*
X0037353Y0148487D02*
X0050510Y0148487D01*
X0052291Y0147308D02*
X0037675Y0147308D01*
X0037675Y0146128D02*
X0063594Y0146128D01*
X0063594Y0144949D02*
X0037675Y0144949D01*
X0037675Y0143769D02*
X0063594Y0143769D01*
X0063594Y0142589D02*
X0036814Y0142589D01*
X0035635Y0141410D02*
X0063594Y0141410D01*
X0063594Y0140230D02*
X0034455Y0140230D01*
X0030574Y0139050D02*
X0063594Y0139050D01*
X0063594Y0137871D02*
X0030975Y0137871D01*
X0030958Y0136691D02*
X0063594Y0136691D01*
X0063204Y0135512D02*
X0030469Y0135512D01*
X0029430Y0134332D02*
X0063205Y0134332D01*
X0063693Y0133152D02*
X0029575Y0133152D01*
X0029302Y0131973D02*
X0057508Y0131973D01*
X0057269Y0131874D02*
X0058512Y0132389D01*
X0059857Y0132389D01*
X0061100Y0131874D01*
X0062051Y0130923D01*
X0062372Y0130148D01*
X0071113Y0130148D01*
X0072397Y0128865D01*
X0072397Y0123658D01*
X0074019Y0122045D01*
X0074149Y0122045D01*
X0075391Y0121531D01*
X0076342Y0120579D01*
X0076857Y0119337D01*
X0076857Y0117992D01*
X0076342Y0116749D01*
X0075391Y0115798D01*
X0075166Y0115705D01*
X0075166Y0114535D01*
X0074651Y0113292D01*
X0073700Y0112341D01*
X0072457Y0111826D01*
X0072397Y0111826D01*
X0072397Y0111550D01*
X0071113Y0110267D01*
X0058699Y0110267D01*
X0057415Y0111550D01*
X0057415Y0116026D01*
X0057312Y0116026D01*
X0056069Y0116541D01*
X0055118Y0117492D01*
X0054604Y0118735D01*
X0054604Y0120080D01*
X0055118Y0121323D01*
X0056069Y0122274D01*
X0057312Y0122789D01*
X0057415Y0122789D01*
X0057415Y0126081D01*
X0057269Y0126141D01*
X0056318Y0127092D01*
X0055804Y0128335D01*
X0055804Y0129680D01*
X0056318Y0130923D01*
X0057269Y0131874D01*
X0056265Y0130793D02*
X0028966Y0130793D01*
X0028966Y0129614D02*
X0055804Y0129614D01*
X0055804Y0128434D02*
X0028966Y0128434D01*
X0030320Y0127254D02*
X0056251Y0127254D01*
X0057415Y0126075D02*
X0031061Y0126075D01*
X0031266Y0124895D02*
X0057415Y0124895D01*
X0057415Y0123716D02*
X0031051Y0123716D01*
X0030295Y0122536D02*
X0056702Y0122536D01*
X0055152Y0121356D02*
X0024575Y0121356D01*
X0024575Y0120177D02*
X0054644Y0120177D01*
X0054604Y0118997D02*
X0024575Y0118997D01*
X0024575Y0117817D02*
X0054984Y0117817D01*
X0055973Y0116638D02*
X0024575Y0116638D01*
X0024575Y0115458D02*
X0057415Y0115458D01*
X0057415Y0114279D02*
X0024575Y0114279D01*
X0024575Y0113099D02*
X0057415Y0113099D01*
X0057415Y0111919D02*
X0024575Y0111919D01*
X0024575Y0110740D02*
X0058226Y0110740D01*
X0061785Y0115608D02*
X0059185Y0118208D01*
X0057985Y0119408D01*
X0061785Y0115608D02*
X0061906Y0115608D01*
X0067906Y0115608D02*
X0070506Y0114608D01*
X0071785Y0115208D01*
X0075166Y0115458D02*
X0111723Y0115458D01*
X0111723Y0114279D02*
X0075060Y0114279D01*
X0074458Y0113099D02*
X0111723Y0113099D01*
X0111723Y0111919D02*
X0072682Y0111919D01*
X0071586Y0110740D02*
X0111723Y0110740D01*
X0111723Y0109560D02*
X0024575Y0109560D01*
X0024575Y0108381D02*
X0111723Y0108381D01*
X0111723Y0107201D02*
X0024575Y0107201D01*
X0024575Y0106021D02*
X0066817Y0106021D01*
X0066869Y0106074D02*
X0065918Y0105123D01*
X0065404Y0103880D01*
X0065404Y0102535D01*
X0065918Y0101292D01*
X0066004Y0101207D01*
X0066004Y0101023D01*
X0065964Y0101039D01*
X0064619Y0101039D01*
X0063377Y0100524D01*
X0062425Y0099573D01*
X0061911Y0098330D01*
X0061911Y0098101D01*
X0061851Y0098126D01*
X0060506Y0098126D01*
X0059263Y0097611D01*
X0058312Y0096660D01*
X0057798Y0095417D01*
X0057798Y0094072D01*
X0058312Y0092830D01*
X0058674Y0092468D01*
X0058071Y0092219D01*
X0057120Y0091268D01*
X0056605Y0090025D01*
X0056605Y0088680D01*
X0057120Y0087437D01*
X0057304Y0087254D01*
X0057304Y0080840D01*
X0057265Y0080439D01*
X0057304Y0080310D01*
X0057304Y0080176D01*
X0057458Y0079804D01*
X0057576Y0079418D01*
X0057661Y0079314D01*
X0057712Y0079190D01*
X0057997Y0078905D01*
X0059389Y0077213D01*
X0059389Y0076653D01*
X0059904Y0075410D01*
X0060855Y0074459D01*
X0062098Y0073945D01*
X0063443Y0073945D01*
X0064686Y0074459D01*
X0065637Y0075410D01*
X0066024Y0076345D01*
X0066564Y0076345D01*
X0067807Y0076859D01*
X0068604Y0077656D01*
X0068604Y0077635D01*
X0069118Y0076392D01*
X0070069Y0075441D01*
X0071312Y0074926D01*
X0072657Y0074926D01*
X0073900Y0075441D01*
X0074851Y0076392D01*
X0075366Y0077635D01*
X0075366Y0078980D01*
X0075258Y0079241D01*
X0075500Y0079341D01*
X0076451Y0080292D01*
X0076966Y0081535D01*
X0076966Y0082880D01*
X0076451Y0084123D01*
X0075500Y0085074D01*
X0074257Y0085589D01*
X0072937Y0085589D01*
X0070366Y0088160D01*
X0070366Y0094256D01*
X0071142Y0095032D01*
X0071566Y0096054D01*
X0071566Y0101207D01*
X0071651Y0101292D01*
X0072166Y0102535D01*
X0072166Y0103880D01*
X0071651Y0105123D01*
X0070700Y0106074D01*
X0069457Y0106589D01*
X0068112Y0106589D01*
X0066869Y0106074D01*
X0065802Y0104842D02*
X0024575Y0104842D01*
X0024575Y0103662D02*
X0065404Y0103662D01*
X0065425Y0102482D02*
X0024575Y0102482D01*
X0024575Y0101303D02*
X0065914Y0101303D01*
X0062975Y0100123D02*
X0024575Y0100123D01*
X0024575Y0098944D02*
X0062165Y0098944D01*
X0059632Y0097764D02*
X0024575Y0097764D01*
X0024575Y0096584D02*
X0058281Y0096584D01*
X0057798Y0095405D02*
X0024575Y0095405D01*
X0024575Y0094225D02*
X0057798Y0094225D01*
X0058223Y0093046D02*
X0024575Y0093046D01*
X0024575Y0091866D02*
X0057718Y0091866D01*
X0056879Y0090686D02*
X0024575Y0090686D01*
X0024575Y0089507D02*
X0056605Y0089507D01*
X0056751Y0088327D02*
X0024575Y0088327D01*
X0024575Y0087147D02*
X0057304Y0087147D01*
X0057304Y0085968D02*
X0024575Y0085968D01*
X0024575Y0084788D02*
X0057304Y0084788D01*
X0057304Y0083609D02*
X0026692Y0083609D01*
X0028345Y0082429D02*
X0057304Y0082429D01*
X0057304Y0081249D02*
X0028896Y0081249D01*
X0028966Y0080070D02*
X0057348Y0080070D01*
X0058010Y0078890D02*
X0028616Y0078890D01*
X0028575Y0077711D02*
X0058980Y0077711D01*
X0059440Y0076531D02*
X0028575Y0076531D01*
X0028575Y0075351D02*
X0059963Y0075351D01*
X0061550Y0074172D02*
X0028575Y0074172D01*
X0028575Y0072992D02*
X0136253Y0072992D01*
X0136785Y0071813D02*
X0028575Y0071813D01*
X0028575Y0070633D02*
X0136802Y0070633D01*
X0136802Y0069453D02*
X0028575Y0069453D01*
X0028575Y0068274D02*
X0136802Y0068274D01*
X0136802Y0067094D02*
X0028794Y0067094D01*
X0028966Y0065914D02*
X0136802Y0065914D01*
X0136802Y0064735D02*
X0028717Y0064735D01*
X0027914Y0063555D02*
X0136802Y0063555D01*
X0136802Y0062376D02*
X0024575Y0062376D01*
X0024575Y0061196D02*
X0136802Y0061196D01*
X0136802Y0060016D02*
X0024575Y0060016D01*
X0024575Y0058837D02*
X0136802Y0058837D01*
X0136802Y0057657D02*
X0024575Y0057657D01*
X0024575Y0056478D02*
X0136802Y0056478D01*
X0136802Y0055298D02*
X0024575Y0055298D01*
X0024575Y0054118D02*
X0136802Y0054118D01*
X0136802Y0052939D02*
X0024575Y0052939D01*
X0024575Y0051759D02*
X0137239Y0051759D01*
X0140756Y0050579D02*
X0024575Y0050579D01*
X0024575Y0049400D02*
X0244707Y0049400D01*
X0243471Y0048220D02*
X0024575Y0048220D01*
X0024575Y0047041D02*
X0242291Y0047041D01*
X0241112Y0045861D02*
X0024575Y0045861D01*
X0024575Y0044681D02*
X0240518Y0044681D01*
X0240294Y0043502D02*
X0024575Y0043502D01*
X0024575Y0042322D02*
X0029803Y0042322D01*
X0028179Y0041143D02*
X0024575Y0041143D01*
X0024575Y0039963D02*
X0027342Y0039963D01*
X0026854Y0038783D02*
X0024575Y0038783D01*
X0024575Y0037604D02*
X0026794Y0037604D01*
X0026794Y0036424D02*
X0024575Y0036424D01*
X0024575Y0035244D02*
X0026794Y0035244D01*
X0026794Y0034065D02*
X0024575Y0034065D01*
X0024575Y0032885D02*
X0026794Y0032885D01*
X0026794Y0031706D02*
X0024575Y0031706D01*
X0024575Y0030526D02*
X0026814Y0030526D01*
X0027303Y0029346D02*
X0024575Y0029346D01*
X0036666Y0029346D02*
X0037985Y0029346D01*
X0037509Y0030526D02*
X0037155Y0030526D01*
X0037175Y0031706D02*
X0037394Y0031706D01*
X0037394Y0032885D02*
X0037175Y0032885D01*
X0037175Y0034065D02*
X0037394Y0034065D01*
X0037394Y0035017D02*
X0041575Y0035017D01*
X0041575Y0042190D01*
X0040910Y0042085D01*
X0040223Y0041862D01*
X0039579Y0041534D01*
X0038994Y0041109D01*
X0038483Y0040598D01*
X0038059Y0040014D01*
X0037730Y0039370D01*
X0037507Y0038683D01*
X0037394Y0037969D01*
X0037394Y0035017D01*
X0037394Y0035244D02*
X0037175Y0035244D01*
X0037175Y0036424D02*
X0037394Y0036424D01*
X0037394Y0037604D02*
X0037175Y0037604D01*
X0037116Y0038783D02*
X0037540Y0038783D01*
X0038033Y0039963D02*
X0036627Y0039963D01*
X0035790Y0041143D02*
X0039040Y0041143D01*
X0041575Y0041143D02*
X0042394Y0041143D01*
X0042394Y0042190D02*
X0042394Y0035017D01*
X0046575Y0035017D01*
X0046575Y0037969D01*
X0046462Y0038683D01*
X0046239Y0039370D01*
X0045911Y0040014D01*
X0045486Y0040598D01*
X0044975Y0041109D01*
X0044391Y0041534D01*
X0043747Y0041862D01*
X0043060Y0042085D01*
X0042394Y0042190D01*
X0042394Y0039963D02*
X0041575Y0039963D01*
X0041575Y0038783D02*
X0042394Y0038783D01*
X0042394Y0037604D02*
X0041575Y0037604D01*
X0041575Y0036424D02*
X0042394Y0036424D01*
X0042394Y0035244D02*
X0041575Y0035244D01*
X0046575Y0035244D02*
X0136794Y0035244D01*
X0136794Y0034065D02*
X0046575Y0034065D01*
X0046575Y0032885D02*
X0136794Y0032885D01*
X0136794Y0031706D02*
X0046575Y0031706D01*
X0046460Y0030526D02*
X0136814Y0030526D01*
X0137303Y0029346D02*
X0045985Y0029346D01*
X0046575Y0036424D02*
X0136794Y0036424D01*
X0136794Y0037604D02*
X0046575Y0037604D01*
X0046429Y0038783D02*
X0136854Y0038783D01*
X0137342Y0039963D02*
X0045937Y0039963D01*
X0044929Y0041143D02*
X0138179Y0041143D01*
X0139803Y0042322D02*
X0034166Y0042322D01*
X0061985Y0068308D02*
X0064485Y0068308D01*
X0063991Y0074172D02*
X0110361Y0074172D01*
X0112408Y0074172D02*
X0134937Y0074172D01*
X0133246Y0075351D02*
X0114110Y0075351D01*
X0114681Y0076531D02*
X0132678Y0076531D01*
X0132594Y0077711D02*
X0115223Y0077711D01*
X0112585Y0078608D02*
X0111385Y0077408D01*
X0112585Y0078608D02*
X0112585Y0091808D01*
X0110221Y0094225D02*
X0080200Y0094225D01*
X0080142Y0094086D02*
X0080345Y0094576D01*
X0080448Y0095095D01*
X0080448Y0095360D01*
X0077758Y0095360D01*
X0077758Y0092670D01*
X0077758Y0092160D01*
X0077758Y0089470D01*
X0078023Y0089470D01*
X0078543Y0089573D01*
X0079032Y0089776D01*
X0079473Y0090070D01*
X0079848Y0090445D01*
X0080142Y0090886D01*
X0080345Y0091376D01*
X0080448Y0091895D01*
X0080448Y0092160D01*
X0077758Y0092160D01*
X0077758Y0092160D01*
X0077758Y0089470D01*
X0077493Y0089470D01*
X0076973Y0089573D01*
X0076484Y0089776D01*
X0076158Y0089994D01*
X0075832Y0089776D01*
X0075343Y0089573D01*
X0074823Y0089470D01*
X0074558Y0089470D01*
X0074558Y0092160D01*
X0074558Y0092160D01*
X0074558Y0089470D01*
X0074293Y0089470D01*
X0073773Y0089573D01*
X0073284Y0089776D01*
X0072843Y0090070D01*
X0072468Y0090445D01*
X0072174Y0090886D01*
X0071971Y0091376D01*
X0071867Y0091895D01*
X0071867Y0092160D01*
X0074558Y0092160D01*
X0074558Y0092160D01*
X0077758Y0092160D01*
X0077758Y0092160D01*
X0077758Y0092160D01*
X0080448Y0092160D01*
X0080448Y0092425D01*
X0080345Y0092945D01*
X0080142Y0093435D01*
X0079925Y0093760D01*
X0080142Y0094086D01*
X0080304Y0093046D02*
X0109438Y0093046D01*
X0109204Y0091866D02*
X0080443Y0091866D01*
X0080009Y0090686D02*
X0109389Y0090686D01*
X0109804Y0089507D02*
X0078209Y0089507D01*
X0077758Y0089507D02*
X0077758Y0089507D01*
X0077307Y0089507D02*
X0075009Y0089507D01*
X0074558Y0089507D02*
X0074558Y0089507D01*
X0074107Y0089507D02*
X0070366Y0089507D01*
X0070366Y0090686D02*
X0072307Y0090686D01*
X0071873Y0091866D02*
X0070366Y0091866D01*
X0070366Y0093046D02*
X0072012Y0093046D01*
X0071971Y0092945D02*
X0071867Y0092425D01*
X0071867Y0092160D01*
X0074558Y0092160D01*
X0074558Y0092160D01*
X0077248Y0092160D01*
X0077758Y0092160D01*
X0077758Y0092160D01*
X0077758Y0095360D01*
X0077758Y0095360D01*
X0077758Y0095360D01*
X0074558Y0095360D01*
X0074558Y0092670D01*
X0074558Y0092160D01*
X0074558Y0092160D01*
X0074558Y0095360D01*
X0074558Y0095360D01*
X0074558Y0095360D01*
X0071867Y0095360D01*
X0071867Y0095095D01*
X0071971Y0094576D01*
X0072174Y0094086D01*
X0072391Y0093760D01*
X0072174Y0093435D01*
X0071971Y0092945D01*
X0072116Y0094225D02*
X0070366Y0094225D01*
X0071297Y0095405D02*
X0071867Y0095405D01*
X0071867Y0095360D02*
X0074558Y0095360D01*
X0074558Y0095360D01*
X0077248Y0095360D01*
X0077758Y0095360D01*
X0077758Y0095360D01*
X0080448Y0095360D01*
X0080448Y0095625D01*
X0080345Y0096145D01*
X0080142Y0096635D01*
X0079848Y0097075D01*
X0079473Y0097450D01*
X0079032Y0097745D01*
X0078543Y0097947D01*
X0078023Y0098051D01*
X0077758Y0098051D01*
X0077758Y0095360D01*
X0077758Y0095360D01*
X0077758Y0098051D01*
X0077493Y0098051D01*
X0076973Y0097947D01*
X0076484Y0097745D01*
X0076158Y0097527D01*
X0075832Y0097745D01*
X0075343Y0097947D01*
X0074823Y0098051D01*
X0074558Y0098051D01*
X0074558Y0095360D01*
X0074558Y0095360D01*
X0074558Y0098051D01*
X0074293Y0098051D01*
X0073773Y0097947D01*
X0073284Y0097745D01*
X0072843Y0097450D01*
X0072468Y0097075D01*
X0072174Y0096635D01*
X0071971Y0096145D01*
X0071867Y0095625D01*
X0071867Y0095360D01*
X0072153Y0096584D02*
X0071566Y0096584D01*
X0071566Y0097764D02*
X0073330Y0097764D01*
X0074558Y0097764D02*
X0074558Y0097764D01*
X0074558Y0096584D02*
X0074558Y0096584D01*
X0074558Y0095405D02*
X0074558Y0095405D01*
X0074558Y0094225D02*
X0074558Y0094225D01*
X0074558Y0093046D02*
X0074558Y0093046D01*
X0074558Y0091866D02*
X0074558Y0091866D01*
X0074558Y0090686D02*
X0074558Y0090686D01*
X0077758Y0090686D02*
X0077758Y0090686D01*
X0077758Y0091866D02*
X0077758Y0091866D01*
X0077758Y0093046D02*
X0077758Y0093046D01*
X0077758Y0094225D02*
X0077758Y0094225D01*
X0077758Y0095405D02*
X0077758Y0095405D01*
X0077758Y0096584D02*
X0077758Y0096584D01*
X0077758Y0097764D02*
X0077758Y0097764D01*
X0078986Y0097764D02*
X0111802Y0097764D01*
X0111802Y0098944D02*
X0071566Y0098944D01*
X0071566Y0100123D02*
X0111802Y0100123D01*
X0111323Y0101303D02*
X0071655Y0101303D01*
X0072144Y0102482D02*
X0111123Y0102482D01*
X0111344Y0103662D02*
X0072166Y0103662D01*
X0071768Y0104842D02*
X0111723Y0104842D01*
X0111723Y0106021D02*
X0070753Y0106021D01*
X0068785Y0103208D02*
X0068785Y0096608D01*
X0067585Y0095408D01*
X0067585Y0087008D01*
X0072385Y0082208D01*
X0073585Y0082208D01*
X0076664Y0083609D02*
X0078739Y0083609D01*
X0078604Y0083935D02*
X0079118Y0082692D01*
X0080069Y0081741D01*
X0081312Y0081226D01*
X0081433Y0081226D01*
X0085027Y0077632D01*
X0085204Y0077456D01*
X0085204Y0077335D01*
X0085718Y0076092D01*
X0086669Y0075141D01*
X0087912Y0074626D01*
X0089257Y0074626D01*
X0090500Y0075141D01*
X0091451Y0076092D01*
X0091966Y0077335D01*
X0091966Y0078680D01*
X0091451Y0079923D01*
X0090500Y0080874D01*
X0089257Y0081389D01*
X0089137Y0081389D01*
X0088960Y0081565D01*
X0085366Y0085160D01*
X0085366Y0085280D01*
X0084851Y0086523D01*
X0083900Y0087474D01*
X0082657Y0087989D01*
X0081312Y0087989D01*
X0080069Y0087474D01*
X0079118Y0086523D01*
X0078604Y0085280D01*
X0078604Y0083935D01*
X0078604Y0084788D02*
X0075786Y0084788D01*
X0076966Y0082429D02*
X0079382Y0082429D01*
X0081257Y0081249D02*
X0076848Y0081249D01*
X0076229Y0080070D02*
X0082589Y0080070D01*
X0083769Y0078890D02*
X0075366Y0078890D01*
X0075366Y0077711D02*
X0084949Y0077711D01*
X0085537Y0076531D02*
X0074909Y0076531D01*
X0073683Y0075351D02*
X0086459Y0075351D01*
X0088585Y0078008D02*
X0087385Y0079208D01*
X0081985Y0084608D01*
X0085081Y0085968D02*
X0109804Y0085968D01*
X0109804Y0087147D02*
X0084226Y0087147D01*
X0085737Y0084788D02*
X0109804Y0084788D01*
X0109804Y0083609D02*
X0086917Y0083609D01*
X0088096Y0082429D02*
X0109804Y0082429D01*
X0109804Y0081249D02*
X0089593Y0081249D01*
X0091304Y0080070D02*
X0109265Y0080070D01*
X0108339Y0078890D02*
X0091879Y0078890D01*
X0091966Y0077711D02*
X0108004Y0077711D01*
X0108088Y0076531D02*
X0091633Y0076531D01*
X0090710Y0075351D02*
X0108659Y0075351D01*
X0109804Y0088327D02*
X0070366Y0088327D01*
X0071378Y0087147D02*
X0079743Y0087147D01*
X0078889Y0085968D02*
X0072557Y0085968D01*
X0065292Y0084863D02*
X0071985Y0078308D01*
X0070286Y0075351D02*
X0065578Y0075351D01*
X0067014Y0076531D02*
X0069061Y0076531D01*
X0062785Y0083408D02*
X0062785Y0093139D01*
X0061179Y0094745D01*
X0065292Y0097658D02*
X0065292Y0084863D01*
X0080448Y0095405D02*
X0111802Y0095405D01*
X0111802Y0096584D02*
X0080163Y0096584D01*
X0076530Y0097764D02*
X0075786Y0097764D01*
X0076231Y0116638D02*
X0091496Y0116638D01*
X0090373Y0117817D02*
X0076785Y0117817D01*
X0076857Y0118997D02*
X0089542Y0118997D01*
X0088252Y0120177D02*
X0076509Y0120177D01*
X0075566Y0121356D02*
X0086962Y0121356D01*
X0085672Y0122536D02*
X0073525Y0122536D01*
X0072397Y0123716D02*
X0084382Y0123716D01*
X0078692Y0124895D02*
X0072397Y0124895D01*
X0072397Y0126075D02*
X0077513Y0126075D01*
X0076333Y0127254D02*
X0072397Y0127254D01*
X0072397Y0128434D02*
X0075153Y0128434D01*
X0073974Y0129614D02*
X0071648Y0129614D01*
X0072794Y0130793D02*
X0062105Y0130793D01*
X0060861Y0131973D02*
X0065076Y0131973D01*
X0068093Y0131973D02*
X0071614Y0131973D01*
X0070435Y0133152D02*
X0069476Y0133152D01*
X0061906Y0126286D02*
X0059185Y0129008D01*
X0061906Y0126286D02*
X0061906Y0124808D01*
X0067906Y0124808D02*
X0069249Y0122864D01*
X0073476Y0118664D01*
X0114504Y0118664D02*
X0114504Y0102458D01*
X0118226Y0102458D02*
X0118226Y0115712D01*
X0136185Y0145208D02*
X0156985Y0145208D01*
X0158274Y0143918D01*
X0161196Y0143918D01*
X0160764Y0147855D02*
X0133952Y0147855D01*
X0129985Y0155408D02*
X0115985Y0155408D01*
X0118295Y0168918D02*
X0118295Y0185697D01*
X0117985Y0186008D01*
X0104985Y0193808D02*
X0088185Y0193808D01*
X0089985Y0190808D02*
X0103185Y0190808D01*
X0100785Y0187808D02*
X0092985Y0187808D01*
X0092385Y0188408D01*
X0091785Y0181208D02*
X0082785Y0190208D01*
X0082785Y0198008D01*
X0066973Y0193313D02*
X0055271Y0193313D01*
X0055982Y0194492D02*
X0065951Y0194492D01*
X0064817Y0195672D02*
X0056166Y0195672D01*
X0055929Y0196852D02*
X0063683Y0196852D01*
X0062549Y0198031D02*
X0055467Y0198031D01*
X0055467Y0199211D02*
X0061415Y0199211D01*
X0060281Y0200390D02*
X0056384Y0200390D01*
X0056667Y0201570D02*
X0057482Y0201570D01*
X0050951Y0192133D02*
X0067015Y0192133D01*
X0091785Y0181208D02*
X0091785Y0164408D01*
X0092985Y0163208D01*
X0065985Y0155408D02*
X0053985Y0155408D01*
X0053605Y0160284D02*
X0035556Y0160284D01*
X0035688Y0161463D02*
X0040989Y0161463D01*
X0039809Y0162643D02*
X0036868Y0162643D01*
X0037675Y0163822D02*
X0039189Y0163822D01*
X0038794Y0165002D02*
X0037675Y0165002D01*
X0037675Y0166182D02*
X0038794Y0166182D01*
X0039010Y0167361D02*
X0037675Y0167361D01*
X0037299Y0168541D02*
X0039499Y0168541D01*
X0040557Y0169720D02*
X0036119Y0169720D01*
X0035125Y0170900D02*
X0042269Y0170900D01*
X0040372Y0172080D02*
X0036304Y0172080D01*
X0037484Y0173259D02*
X0039422Y0173259D01*
X0038933Y0174439D02*
X0037675Y0174439D01*
X0037675Y0175619D02*
X0038794Y0175619D01*
X0038794Y0176798D02*
X0037675Y0176798D01*
X0037675Y0177978D02*
X0039265Y0177978D01*
X0039994Y0179157D02*
X0036683Y0179157D01*
X0035503Y0180337D02*
X0041356Y0180337D01*
X0028466Y0180337D02*
X0024575Y0180337D01*
X0024575Y0181517D02*
X0028228Y0181517D01*
X0027048Y0182696D02*
X0024575Y0182696D01*
X0024575Y0183876D02*
X0026294Y0183876D01*
X0026294Y0185055D02*
X0024575Y0185055D01*
X0024575Y0186235D02*
X0026294Y0186235D01*
X0026294Y0187415D02*
X0024575Y0187415D01*
X0024575Y0188594D02*
X0026724Y0188594D01*
X0027903Y0189774D02*
X0024575Y0189774D01*
X0024575Y0190953D02*
X0028791Y0190953D01*
X0027612Y0192133D02*
X0024575Y0192133D01*
X0024575Y0193313D02*
X0026432Y0193313D01*
X0026294Y0194492D02*
X0024575Y0194492D01*
X0024575Y0195672D02*
X0026294Y0195672D01*
X0026294Y0196852D02*
X0024575Y0196852D01*
X0024575Y0198031D02*
X0026294Y0198031D01*
X0027340Y0199211D02*
X0024575Y0199211D01*
X0024575Y0200390D02*
X0028520Y0200390D01*
X0027287Y0179157D02*
X0024575Y0179157D01*
X0024575Y0177978D02*
X0026294Y0177978D01*
X0026294Y0176798D02*
X0024575Y0176798D01*
X0024575Y0175619D02*
X0026294Y0175619D01*
X0026294Y0174439D02*
X0024575Y0174439D01*
X0024575Y0173259D02*
X0026485Y0173259D01*
X0027665Y0172080D02*
X0024575Y0172080D01*
X0024575Y0170900D02*
X0028845Y0170900D01*
X0027850Y0169720D02*
X0024575Y0169720D01*
X0024575Y0168541D02*
X0026670Y0168541D01*
X0026294Y0167361D02*
X0024575Y0167361D01*
X0024575Y0166182D02*
X0026294Y0166182D01*
X0026294Y0165002D02*
X0024575Y0165002D01*
X0052981Y0161463D02*
X0054094Y0161463D01*
X0054160Y0162643D02*
X0055477Y0162643D01*
X0054078Y0147308D02*
X0062802Y0147308D01*
X0026185Y0133308D02*
X0026185Y0130808D01*
X0026185Y0126608D01*
X0026785Y0126008D01*
X0027885Y0124908D01*
X0025475Y0122536D02*
X0024575Y0122536D01*
X0024575Y0123716D02*
X0024719Y0123716D01*
X0142585Y0156008D02*
X0155385Y0156008D01*
X0177175Y0155565D02*
X0385294Y0155565D01*
X0385294Y0154385D02*
X0177175Y0154385D01*
X0177175Y0153206D02*
X0318588Y0153206D01*
X0318864Y0153482D02*
X0317910Y0152528D01*
X0317394Y0151282D01*
X0317394Y0149933D01*
X0317820Y0148905D01*
X0317614Y0148991D01*
X0317075Y0149098D01*
X0316800Y0149098D01*
X0316800Y0146308D01*
X0316800Y0146308D01*
X0319590Y0146308D01*
X0319590Y0146582D01*
X0319483Y0147122D01*
X0319305Y0147550D01*
X0320110Y0147217D01*
X0321459Y0147217D01*
X0322705Y0147733D01*
X0322889Y0147917D01*
X0329480Y0147917D01*
X0329664Y0147733D01*
X0330910Y0147217D01*
X0332259Y0147217D01*
X0333505Y0147733D01*
X0334459Y0148687D01*
X0334975Y0149933D01*
X0334975Y0151282D01*
X0334459Y0152528D01*
X0333505Y0153482D01*
X0332259Y0153998D01*
X0330910Y0153998D01*
X0329664Y0153482D01*
X0329480Y0153298D01*
X0322889Y0153298D01*
X0322705Y0153482D01*
X0321459Y0153998D01*
X0320110Y0153998D01*
X0318864Y0153482D01*
X0317702Y0152026D02*
X0177175Y0152026D01*
X0177175Y0150847D02*
X0317394Y0150847D01*
X0317504Y0149667D02*
X0177175Y0149667D01*
X0177175Y0148487D02*
X0311039Y0148487D01*
X0311021Y0148475D02*
X0310632Y0148086D01*
X0310327Y0147629D01*
X0310116Y0147122D01*
X0310009Y0146582D01*
X0310009Y0146308D01*
X0312800Y0146308D01*
X0312800Y0146308D01*
X0312800Y0149098D01*
X0313075Y0149098D01*
X0313614Y0148991D01*
X0314122Y0148781D01*
X0314579Y0148475D01*
X0314800Y0148254D01*
X0315021Y0148475D01*
X0315478Y0148781D01*
X0315986Y0148991D01*
X0316525Y0149098D01*
X0316800Y0149098D01*
X0316800Y0146308D01*
X0316800Y0146307D01*
X0319590Y0146307D01*
X0319590Y0146033D01*
X0319483Y0145494D01*
X0319273Y0144986D01*
X0318967Y0144529D01*
X0318579Y0144140D01*
X0318122Y0143835D01*
X0317614Y0143624D01*
X0317583Y0143618D01*
X0317590Y0143582D01*
X0317590Y0143308D01*
X0314800Y0143308D01*
X0314800Y0143307D01*
X0317590Y0143307D01*
X0317590Y0143033D01*
X0317583Y0142997D01*
X0317614Y0142991D01*
X0318122Y0142781D01*
X0318579Y0142475D01*
X0318967Y0142086D01*
X0319273Y0141629D01*
X0319483Y0141122D01*
X0319590Y0140582D01*
X0319590Y0140308D01*
X0316800Y0140308D01*
X0316800Y0140307D01*
X0316800Y0137517D01*
X0317075Y0137517D01*
X0317614Y0137624D01*
X0318122Y0137835D01*
X0318579Y0138140D01*
X0318967Y0138529D01*
X0319273Y0138986D01*
X0319483Y0139494D01*
X0319590Y0140033D01*
X0319590Y0140307D01*
X0316800Y0140307D01*
X0316800Y0140307D01*
X0316800Y0137517D01*
X0316525Y0137517D01*
X0315986Y0137624D01*
X0315478Y0137835D01*
X0315021Y0138140D01*
X0314793Y0138368D01*
X0314573Y0138147D01*
X0314117Y0137843D01*
X0313611Y0137633D01*
X0313074Y0137526D01*
X0312800Y0137526D01*
X0312800Y0140307D01*
X0312800Y0140307D01*
X0312800Y0140308D01*
X0316800Y0140308D01*
X0316800Y0140307D01*
X0315581Y0140307D01*
X0312800Y0140307D01*
X0312800Y0137526D01*
X0312526Y0137526D01*
X0311988Y0137633D01*
X0311482Y0137843D01*
X0311027Y0138147D01*
X0310639Y0138535D01*
X0310335Y0138990D01*
X0310125Y0139496D01*
X0310019Y0140034D01*
X0310019Y0140307D01*
X0312800Y0140307D01*
X0312800Y0140308D01*
X0310019Y0140308D01*
X0310019Y0140581D01*
X0310125Y0141119D01*
X0310335Y0141625D01*
X0310639Y0142080D01*
X0311027Y0142468D01*
X0311482Y0142772D01*
X0311988Y0142982D01*
X0312018Y0142988D01*
X0312009Y0143033D01*
X0312009Y0143307D01*
X0314800Y0143307D01*
X0314800Y0143308D01*
X0312009Y0143308D01*
X0312009Y0143582D01*
X0312016Y0143618D01*
X0311986Y0143624D01*
X0311478Y0143835D01*
X0311021Y0144140D01*
X0310632Y0144529D01*
X0310327Y0144986D01*
X0310116Y0145494D01*
X0310009Y0146033D01*
X0310009Y0146307D01*
X0312800Y0146307D01*
X0312800Y0146308D01*
X0316800Y0146308D01*
X0316800Y0146307D01*
X0315590Y0146307D01*
X0312800Y0146307D01*
X0312800Y0146308D01*
X0312800Y0149098D01*
X0312525Y0149098D01*
X0311986Y0148991D01*
X0311478Y0148781D01*
X0311021Y0148475D01*
X0310194Y0147308D02*
X0177175Y0147308D01*
X0177175Y0146128D02*
X0310009Y0146128D01*
X0310352Y0144949D02*
X0177175Y0144949D01*
X0177175Y0143769D02*
X0311636Y0143769D01*
X0311209Y0142589D02*
X0177175Y0142589D01*
X0177175Y0141410D02*
X0310246Y0141410D01*
X0310019Y0140230D02*
X0177175Y0140230D01*
X0177175Y0139050D02*
X0310310Y0139050D01*
X0311441Y0137871D02*
X0177175Y0137871D01*
X0177175Y0136691D02*
X0385294Y0136691D01*
X0385294Y0135512D02*
X0177175Y0135512D01*
X0177175Y0134332D02*
X0385294Y0134332D01*
X0385294Y0133152D02*
X0177175Y0133152D01*
X0177175Y0131973D02*
X0385294Y0131973D01*
X0385294Y0130793D02*
X0278465Y0130793D01*
X0277775Y0131079D02*
X0276195Y0131079D01*
X0274735Y0130475D01*
X0273618Y0129357D01*
X0273013Y0127898D01*
X0273013Y0126318D01*
X0273194Y0125880D01*
X0273194Y0109535D01*
X0273013Y0109098D01*
X0273013Y0107518D01*
X0273618Y0106058D01*
X0274735Y0104941D01*
X0276195Y0104336D01*
X0277775Y0104336D01*
X0279234Y0104941D01*
X0280352Y0106058D01*
X0280956Y0107518D01*
X0280956Y0109098D01*
X0280775Y0109535D01*
X0280775Y0125880D01*
X0280956Y0126318D01*
X0280956Y0127898D01*
X0280352Y0129357D01*
X0279234Y0130475D01*
X0277775Y0131079D01*
X0275504Y0130793D02*
X0240965Y0130793D01*
X0240275Y0131079D02*
X0241734Y0130475D01*
X0242852Y0129357D01*
X0243456Y0127898D01*
X0243456Y0126318D01*
X0243275Y0125880D01*
X0243275Y0107035D01*
X0243456Y0106598D01*
X0243456Y0105018D01*
X0242852Y0103558D01*
X0241734Y0102441D01*
X0240275Y0101836D01*
X0238695Y0101836D01*
X0237235Y0102441D01*
X0236118Y0103558D01*
X0235513Y0105018D01*
X0235513Y0106598D01*
X0235694Y0107035D01*
X0235694Y0125880D01*
X0235513Y0126318D01*
X0235513Y0127898D01*
X0236118Y0129357D01*
X0237235Y0130475D01*
X0238695Y0131079D01*
X0240275Y0131079D01*
X0238004Y0130793D02*
X0201648Y0130793D01*
X0201934Y0130675D02*
X0200475Y0131279D01*
X0198895Y0131279D01*
X0197435Y0130675D01*
X0196318Y0129557D01*
X0195713Y0128098D01*
X0195713Y0126518D01*
X0195768Y0126385D01*
X0195715Y0124411D01*
X0195694Y0124362D01*
X0195694Y0123659D01*
X0195675Y0122956D01*
X0195694Y0122907D01*
X0195694Y0107035D01*
X0195513Y0106598D01*
X0195513Y0105018D01*
X0196118Y0103558D01*
X0197235Y0102441D01*
X0198695Y0101836D01*
X0200275Y0101836D01*
X0201734Y0102441D01*
X0202852Y0103558D01*
X0203456Y0105018D01*
X0203456Y0106598D01*
X0203275Y0107035D01*
X0203275Y0123556D01*
X0203334Y0125740D01*
X0203656Y0126518D01*
X0203656Y0128098D01*
X0203052Y0129557D01*
X0201934Y0130675D01*
X0202995Y0129614D02*
X0236374Y0129614D01*
X0235735Y0128434D02*
X0203517Y0128434D01*
X0203656Y0127254D02*
X0235513Y0127254D01*
X0235614Y0126075D02*
X0203473Y0126075D01*
X0203311Y0124895D02*
X0235694Y0124895D01*
X0235694Y0123716D02*
X0203280Y0123716D01*
X0203275Y0122536D02*
X0235694Y0122536D01*
X0235694Y0121356D02*
X0203275Y0121356D01*
X0203275Y0120177D02*
X0235694Y0120177D01*
X0235694Y0118997D02*
X0203275Y0118997D01*
X0203275Y0117817D02*
X0235694Y0117817D01*
X0235694Y0116638D02*
X0203275Y0116638D01*
X0203275Y0115458D02*
X0235694Y0115458D01*
X0235694Y0114279D02*
X0203275Y0114279D01*
X0203275Y0113099D02*
X0235694Y0113099D01*
X0235694Y0111919D02*
X0203275Y0111919D01*
X0203275Y0110740D02*
X0235694Y0110740D01*
X0235694Y0109560D02*
X0203275Y0109560D01*
X0203275Y0108381D02*
X0235694Y0108381D01*
X0235694Y0107201D02*
X0203275Y0107201D01*
X0203456Y0106021D02*
X0235513Y0106021D01*
X0235586Y0104842D02*
X0203384Y0104842D01*
X0202895Y0103662D02*
X0236075Y0103662D01*
X0237193Y0102482D02*
X0201776Y0102482D01*
X0197193Y0102482D02*
X0177175Y0102482D01*
X0177175Y0101303D02*
X0321694Y0101303D01*
X0321610Y0101387D02*
X0322564Y0100433D01*
X0323810Y0099917D01*
X0325159Y0099917D01*
X0326405Y0100433D01*
X0327359Y0101387D01*
X0327585Y0101932D01*
X0327810Y0101387D01*
X0328764Y0100433D01*
X0330010Y0099917D01*
X0330094Y0099917D01*
X0330094Y0098712D01*
X0329910Y0098528D01*
X0329394Y0097282D01*
X0329394Y0095933D01*
X0329910Y0094687D01*
X0330864Y0093733D01*
X0332110Y0093217D01*
X0333459Y0093217D01*
X0334705Y0093733D01*
X0335659Y0094687D01*
X0336175Y0095933D01*
X0336175Y0097282D01*
X0335659Y0098528D01*
X0335475Y0098712D01*
X0335475Y0099093D01*
X0335509Y0099127D01*
X0336266Y0099883D01*
X0336675Y0100872D01*
X0336675Y0104103D01*
X0336859Y0104287D01*
X0337375Y0105533D01*
X0337375Y0106882D01*
X0336859Y0108128D01*
X0335905Y0109082D01*
X0334659Y0109598D01*
X0333375Y0109598D01*
X0333375Y0110143D01*
X0332966Y0111132D01*
X0325575Y0118522D01*
X0325575Y0118782D01*
X0325059Y0120028D01*
X0324105Y0120982D01*
X0322859Y0121498D01*
X0321510Y0121498D01*
X0320775Y0121194D01*
X0320775Y0123380D01*
X0320956Y0123818D01*
X0320956Y0125398D01*
X0320352Y0126857D01*
X0319234Y0127975D01*
X0317775Y0128579D01*
X0316195Y0128579D01*
X0314735Y0127975D01*
X0313618Y0126857D01*
X0313013Y0125398D01*
X0313013Y0123818D01*
X0313194Y0123380D01*
X0313194Y0110735D01*
X0313013Y0110298D01*
X0313013Y0108718D01*
X0313618Y0107258D01*
X0314735Y0106141D01*
X0316195Y0105536D01*
X0317775Y0105536D01*
X0319234Y0106141D01*
X0320352Y0107258D01*
X0320956Y0108718D01*
X0320956Y0110064D01*
X0321310Y0109917D01*
X0321570Y0109917D01*
X0321794Y0109693D01*
X0321794Y0105412D01*
X0321610Y0105228D01*
X0321094Y0103982D01*
X0321094Y0102633D01*
X0321610Y0101387D01*
X0321157Y0102482D02*
X0241776Y0102482D01*
X0242895Y0103662D02*
X0321094Y0103662D01*
X0321450Y0104842D02*
X0278996Y0104842D01*
X0280315Y0106021D02*
X0315023Y0106021D01*
X0313675Y0107201D02*
X0280825Y0107201D01*
X0280956Y0108381D02*
X0313153Y0108381D01*
X0313013Y0109560D02*
X0280775Y0109560D01*
X0280775Y0110740D02*
X0313194Y0110740D01*
X0313194Y0111919D02*
X0280775Y0111919D01*
X0280775Y0113099D02*
X0313194Y0113099D01*
X0313194Y0114279D02*
X0280775Y0114279D01*
X0280775Y0115458D02*
X0313194Y0115458D01*
X0313194Y0116638D02*
X0280775Y0116638D01*
X0280775Y0117817D02*
X0313194Y0117817D01*
X0313194Y0118997D02*
X0280775Y0118997D01*
X0280775Y0120177D02*
X0313194Y0120177D01*
X0313194Y0121356D02*
X0280775Y0121356D01*
X0280775Y0122536D02*
X0313194Y0122536D01*
X0313055Y0123716D02*
X0280775Y0123716D01*
X0280775Y0124895D02*
X0313013Y0124895D01*
X0313294Y0126075D02*
X0280856Y0126075D01*
X0280956Y0127254D02*
X0314015Y0127254D01*
X0315844Y0128434D02*
X0280734Y0128434D01*
X0280095Y0129614D02*
X0385294Y0129614D01*
X0385294Y0128434D02*
X0318125Y0128434D01*
X0319955Y0127254D02*
X0385294Y0127254D01*
X0385294Y0126075D02*
X0320676Y0126075D01*
X0320956Y0124895D02*
X0385294Y0124895D01*
X0385294Y0123716D02*
X0320914Y0123716D01*
X0320775Y0122536D02*
X0385294Y0122536D01*
X0385294Y0121356D02*
X0323202Y0121356D01*
X0321168Y0121356D02*
X0320775Y0121356D01*
X0324911Y0120177D02*
X0385294Y0120177D01*
X0384248Y0118997D02*
X0325486Y0118997D01*
X0326280Y0117817D02*
X0383068Y0117817D01*
X0381889Y0116638D02*
X0327459Y0116638D01*
X0328639Y0115458D02*
X0380840Y0115458D01*
X0379529Y0114279D02*
X0329819Y0114279D01*
X0330998Y0113099D02*
X0378398Y0113099D01*
X0377909Y0111919D02*
X0332178Y0111919D01*
X0333128Y0110740D02*
X0377794Y0110740D01*
X0377794Y0109560D02*
X0334751Y0109560D01*
X0336607Y0108381D02*
X0377794Y0108381D01*
X0377794Y0107201D02*
X0337243Y0107201D01*
X0337375Y0106021D02*
X0377794Y0106021D01*
X0377849Y0104842D02*
X0337089Y0104842D01*
X0336675Y0103662D02*
X0378338Y0103662D01*
X0379384Y0102482D02*
X0336675Y0102482D01*
X0336675Y0101303D02*
X0393410Y0101303D01*
X0393410Y0102482D02*
X0389586Y0102482D01*
X0390632Y0103662D02*
X0393410Y0103662D01*
X0393410Y0104842D02*
X0391187Y0104842D01*
X0391777Y0106021D02*
X0393410Y0106021D01*
X0393410Y0107201D02*
X0392367Y0107201D01*
X0392984Y0108381D02*
X0393410Y0108381D01*
X0393410Y0100123D02*
X0336365Y0100123D01*
X0335475Y0098944D02*
X0393410Y0098944D01*
X0393410Y0097764D02*
X0335976Y0097764D01*
X0336175Y0096584D02*
X0393410Y0096584D01*
X0393410Y0095405D02*
X0335956Y0095405D01*
X0335197Y0094225D02*
X0393410Y0094225D01*
X0393410Y0093046D02*
X0179542Y0093046D01*
X0180216Y0091866D02*
X0393410Y0091866D01*
X0393410Y0090686D02*
X0180375Y0090686D01*
X0180116Y0089507D02*
X0393410Y0089507D01*
X0393410Y0088327D02*
X0179299Y0088327D01*
X0177674Y0087147D02*
X0393410Y0087147D01*
X0393410Y0085968D02*
X0218372Y0085968D01*
X0218192Y0086148D02*
X0211777Y0086148D01*
X0211177Y0085548D01*
X0209544Y0085548D01*
X0209544Y0081367D01*
X0208425Y0081367D01*
X0208425Y0080248D01*
X0205094Y0080248D01*
X0205094Y0077448D01*
X0205203Y0077044D01*
X0205412Y0076681D01*
X0205708Y0076385D01*
X0206071Y0076175D01*
X0206475Y0076067D01*
X0208425Y0076067D01*
X0208425Y0080248D01*
X0209544Y0080248D01*
X0209544Y0076067D01*
X0211177Y0076067D01*
X0211777Y0075467D01*
X0218192Y0075467D01*
X0219475Y0076750D01*
X0219475Y0084865D01*
X0218192Y0086148D01*
X0219475Y0084788D02*
X0393410Y0084788D01*
X0393410Y0083609D02*
X0219475Y0083609D01*
X0219475Y0082429D02*
X0393410Y0082429D01*
X0393410Y0081249D02*
X0219475Y0081249D01*
X0219475Y0080070D02*
X0393410Y0080070D01*
X0393410Y0078890D02*
X0219475Y0078890D01*
X0219475Y0077711D02*
X0393410Y0077711D01*
X0393410Y0076531D02*
X0219256Y0076531D01*
X0209544Y0076531D02*
X0208425Y0076531D01*
X0208425Y0077711D02*
X0209544Y0077711D01*
X0209544Y0078890D02*
X0208425Y0078890D01*
X0208425Y0080070D02*
X0209544Y0080070D01*
X0208425Y0081249D02*
X0203999Y0081249D01*
X0204075Y0081433D02*
X0204075Y0082782D01*
X0203559Y0084028D01*
X0202605Y0084982D01*
X0201359Y0085498D01*
X0201342Y0085498D01*
X0200692Y0086148D01*
X0194277Y0086148D01*
X0188277Y0086148D01*
X0186994Y0084865D01*
X0186994Y0083798D01*
X0186125Y0083798D01*
X0185159Y0084198D01*
X0183810Y0084198D01*
X0182564Y0083682D01*
X0181610Y0082728D01*
X0181094Y0081482D01*
X0181094Y0080133D01*
X0181610Y0078887D01*
X0182564Y0077933D01*
X0183810Y0077417D01*
X0185159Y0077417D01*
X0186125Y0077817D01*
X0186994Y0077817D01*
X0186994Y0076750D01*
X0188277Y0075467D01*
X0200692Y0075467D01*
X0201975Y0076750D01*
X0201975Y0078972D01*
X0202605Y0079233D01*
X0203559Y0080187D01*
X0204075Y0081433D01*
X0204075Y0082429D02*
X0205094Y0082429D01*
X0205094Y0081367D02*
X0205094Y0084167D01*
X0205203Y0084571D01*
X0205412Y0084934D01*
X0205708Y0085230D01*
X0206071Y0085440D01*
X0206475Y0085548D01*
X0208425Y0085548D01*
X0208425Y0081367D01*
X0205094Y0081367D01*
X0205094Y0080070D02*
X0203442Y0080070D01*
X0201975Y0078890D02*
X0205094Y0078890D01*
X0205094Y0077711D02*
X0201975Y0077711D01*
X0201756Y0076531D02*
X0205562Y0076531D01*
X0208425Y0082429D02*
X0209544Y0082429D01*
X0209544Y0083609D02*
X0208425Y0083609D01*
X0208425Y0084788D02*
X0209544Y0084788D01*
X0211597Y0085968D02*
X0200872Y0085968D01*
X0202799Y0084788D02*
X0205328Y0084788D01*
X0205094Y0083609D02*
X0203733Y0083609D01*
X0188097Y0085968D02*
X0176940Y0085968D01*
X0181486Y0082429D02*
X0168775Y0082429D01*
X0168775Y0081249D02*
X0181094Y0081249D01*
X0181120Y0080070D02*
X0168775Y0080070D01*
X0168775Y0078890D02*
X0181609Y0078890D01*
X0183102Y0077711D02*
X0168775Y0077711D01*
X0168775Y0076531D02*
X0187213Y0076531D01*
X0186994Y0077711D02*
X0185868Y0077711D01*
X0182491Y0083609D02*
X0168775Y0083609D01*
X0168775Y0084788D02*
X0186994Y0084788D01*
X0177372Y0094225D02*
X0330372Y0094225D01*
X0329613Y0095405D02*
X0177175Y0095405D01*
X0177175Y0096584D02*
X0329394Y0096584D01*
X0329594Y0097764D02*
X0177175Y0097764D01*
X0177175Y0098944D02*
X0330094Y0098944D01*
X0329512Y0100123D02*
X0325657Y0100123D01*
X0327275Y0101303D02*
X0327894Y0101303D01*
X0323312Y0100123D02*
X0177175Y0100123D01*
X0177175Y0103662D02*
X0196075Y0103662D01*
X0195586Y0104842D02*
X0177175Y0104842D01*
X0177175Y0106021D02*
X0195513Y0106021D01*
X0195694Y0107201D02*
X0177175Y0107201D01*
X0177175Y0108381D02*
X0195694Y0108381D01*
X0195694Y0109560D02*
X0177175Y0109560D01*
X0177175Y0110740D02*
X0195694Y0110740D01*
X0195694Y0111919D02*
X0177175Y0111919D01*
X0177175Y0113099D02*
X0195694Y0113099D01*
X0195694Y0114279D02*
X0177175Y0114279D01*
X0177175Y0115458D02*
X0195694Y0115458D01*
X0195694Y0116638D02*
X0177175Y0116638D01*
X0177175Y0117817D02*
X0195694Y0117817D01*
X0195694Y0118997D02*
X0177175Y0118997D01*
X0177175Y0120177D02*
X0195694Y0120177D01*
X0195694Y0121356D02*
X0177175Y0121356D01*
X0177175Y0122536D02*
X0195694Y0122536D01*
X0195694Y0123716D02*
X0177175Y0123716D01*
X0177175Y0124895D02*
X0195728Y0124895D01*
X0195759Y0126075D02*
X0177175Y0126075D01*
X0177175Y0127254D02*
X0195713Y0127254D01*
X0195852Y0128434D02*
X0177175Y0128434D01*
X0177175Y0129614D02*
X0196374Y0129614D01*
X0197721Y0130793D02*
X0177175Y0130793D01*
X0177175Y0156745D02*
X0385294Y0156745D01*
X0385294Y0157924D02*
X0177175Y0157924D01*
X0177175Y0159104D02*
X0385294Y0159104D01*
X0385294Y0160284D02*
X0346056Y0160284D01*
X0346459Y0160687D02*
X0346975Y0161933D01*
X0346975Y0162193D01*
X0348299Y0163517D01*
X0348680Y0163517D01*
X0348864Y0163333D01*
X0350110Y0162817D01*
X0351459Y0162817D01*
X0352705Y0163333D01*
X0353659Y0164287D01*
X0354175Y0165533D01*
X0354175Y0166882D01*
X0353659Y0168128D01*
X0352705Y0169082D01*
X0351459Y0169598D01*
X0350110Y0169598D01*
X0348864Y0169082D01*
X0348680Y0168898D01*
X0346650Y0168898D01*
X0345661Y0168488D01*
X0343170Y0165998D01*
X0342910Y0165998D01*
X0341664Y0165482D01*
X0340710Y0164528D01*
X0340194Y0163282D01*
X0340194Y0161933D01*
X0340710Y0160687D01*
X0341664Y0159733D01*
X0342910Y0159217D01*
X0344259Y0159217D01*
X0345505Y0159733D01*
X0346459Y0160687D01*
X0346781Y0161463D02*
X0385294Y0161463D01*
X0385294Y0162643D02*
X0347425Y0162643D01*
X0343354Y0166182D02*
X0308575Y0166182D01*
X0308575Y0165533D02*
X0308059Y0164287D01*
X0307105Y0163333D01*
X0305859Y0162817D01*
X0304510Y0162817D01*
X0303583Y0163201D01*
X0302575Y0162193D01*
X0302575Y0161933D01*
X0302059Y0160687D01*
X0301105Y0159733D01*
X0299859Y0159217D01*
X0298510Y0159217D01*
X0297264Y0159733D01*
X0296310Y0160687D01*
X0295794Y0161933D01*
X0295794Y0163282D01*
X0296310Y0164528D01*
X0297264Y0165482D01*
X0298510Y0165998D01*
X0298770Y0165998D01*
X0301261Y0168488D01*
X0302250Y0168898D01*
X0303080Y0168898D01*
X0303264Y0169082D01*
X0304510Y0169598D01*
X0305859Y0169598D01*
X0307105Y0169082D01*
X0308059Y0168128D01*
X0308575Y0166882D01*
X0308575Y0165533D01*
X0308355Y0165002D02*
X0341184Y0165002D01*
X0340418Y0163822D02*
X0307594Y0163822D01*
X0308377Y0167361D02*
X0344533Y0167361D01*
X0345787Y0168541D02*
X0307646Y0168541D01*
X0301387Y0168541D02*
X0193523Y0168541D01*
X0194703Y0169720D02*
X0385294Y0169720D01*
X0385294Y0168541D02*
X0353246Y0168541D01*
X0353977Y0167361D02*
X0385294Y0167361D01*
X0385294Y0166182D02*
X0354175Y0166182D01*
X0353955Y0165002D02*
X0385294Y0165002D01*
X0385294Y0163822D02*
X0353194Y0163822D01*
X0341114Y0160284D02*
X0301656Y0160284D01*
X0302381Y0161463D02*
X0340389Y0161463D01*
X0340194Y0162643D02*
X0303025Y0162643D01*
X0298954Y0166182D02*
X0191164Y0166182D01*
X0192343Y0167361D02*
X0300133Y0167361D01*
X0296784Y0165002D02*
X0187864Y0165002D01*
X0186105Y0165002D02*
X0182484Y0165002D01*
X0181305Y0163822D02*
X0296018Y0163822D01*
X0295794Y0162643D02*
X0180125Y0162643D01*
X0178945Y0161463D02*
X0295989Y0161463D01*
X0296714Y0160284D02*
X0177766Y0160284D01*
X0183664Y0166182D02*
X0184316Y0166182D01*
X0195882Y0170900D02*
X0385294Y0170900D01*
X0385294Y0172080D02*
X0197062Y0172080D01*
X0198241Y0173259D02*
X0385294Y0173259D01*
X0385294Y0174439D02*
X0199421Y0174439D01*
X0200601Y0175619D02*
X0385294Y0175619D01*
X0385294Y0176798D02*
X0201780Y0176798D01*
X0202960Y0177978D02*
X0231954Y0177978D01*
X0232338Y0177594D02*
X0233731Y0177017D01*
X0235239Y0177017D01*
X0236632Y0177594D01*
X0249447Y0190409D01*
X0250513Y0191475D01*
X0251090Y0192869D01*
X0251090Y0194258D01*
X0251700Y0194867D01*
X0252490Y0196775D01*
X0252490Y0204840D01*
X0251700Y0206748D01*
X0250240Y0208208D01*
X0248332Y0208998D01*
X0246267Y0208998D01*
X0244359Y0208208D01*
X0242899Y0206748D01*
X0242109Y0204840D01*
X0242109Y0196775D01*
X0242899Y0194867D01*
X0243042Y0194725D01*
X0231271Y0182955D01*
X0230694Y0181562D01*
X0230694Y0180054D01*
X0231271Y0178660D01*
X0232338Y0177594D01*
X0231065Y0179157D02*
X0204140Y0179157D01*
X0205319Y0180337D02*
X0230694Y0180337D01*
X0230694Y0181517D02*
X0206499Y0181517D01*
X0208333Y0182696D02*
X0231164Y0182696D01*
X0232192Y0183876D02*
X0209848Y0183876D01*
X0210343Y0185055D02*
X0233372Y0185055D01*
X0234552Y0186235D02*
X0210375Y0186235D01*
X0209989Y0187415D02*
X0235731Y0187415D01*
X0236911Y0188594D02*
X0208993Y0188594D01*
X0204976Y0188594D02*
X0197175Y0188594D01*
X0197175Y0187415D02*
X0203980Y0187415D01*
X0203594Y0186235D02*
X0197175Y0186235D01*
X0197175Y0185055D02*
X0202428Y0185055D01*
X0201248Y0183876D02*
X0197175Y0183876D01*
X0197175Y0182696D02*
X0200068Y0182696D01*
X0198889Y0181517D02*
X0197175Y0181517D01*
X0197175Y0180337D02*
X0197709Y0180337D01*
X0197175Y0189774D02*
X0238090Y0189774D01*
X0239270Y0190953D02*
X0197175Y0190953D01*
X0197175Y0192133D02*
X0240450Y0192133D01*
X0241629Y0193313D02*
X0238265Y0193313D01*
X0237709Y0193313D02*
X0236890Y0193313D01*
X0236334Y0193313D02*
X0197175Y0193313D01*
X0197175Y0194492D02*
X0234123Y0194492D01*
X0233236Y0195672D02*
X0197175Y0195672D01*
X0197175Y0196852D02*
X0232803Y0196852D01*
X0232709Y0198031D02*
X0197175Y0198031D01*
X0197175Y0199211D02*
X0232709Y0199211D01*
X0232709Y0200390D02*
X0197175Y0200390D01*
X0197175Y0201570D02*
X0232709Y0201570D01*
X0232709Y0202750D02*
X0197175Y0202750D01*
X0197175Y0203929D02*
X0232709Y0203929D01*
X0232896Y0205109D02*
X0197175Y0205109D01*
X0197175Y0206288D02*
X0233428Y0206288D01*
X0234528Y0207468D02*
X0197175Y0207468D01*
X0197175Y0208648D02*
X0232312Y0208648D01*
X0231959Y0209827D02*
X0197175Y0209827D01*
X0197175Y0211007D02*
X0231959Y0211007D01*
X0231959Y0212187D02*
X0197175Y0212187D01*
X0197175Y0213366D02*
X0231959Y0213366D01*
X0231959Y0214546D02*
X0196884Y0214546D01*
X0195872Y0215725D02*
X0232270Y0215725D01*
X0232559Y0216905D02*
X0194692Y0216905D01*
X0193513Y0218085D02*
X0236740Y0218085D01*
X0237859Y0218085D02*
X0256740Y0218085D01*
X0257859Y0218085D02*
X0276740Y0218085D01*
X0277859Y0218085D02*
X0296740Y0218085D01*
X0297859Y0218085D02*
X0316740Y0218085D01*
X0317859Y0218085D02*
X0336740Y0218085D01*
X0337859Y0218085D02*
X0356740Y0218085D01*
X0357859Y0218085D02*
X0376740Y0218085D01*
X0377859Y0218085D02*
X0393410Y0218085D01*
X0393410Y0219264D02*
X0382040Y0219264D01*
X0382040Y0216905D02*
X0393410Y0216905D01*
X0393410Y0215725D02*
X0382330Y0215725D01*
X0384756Y0214546D02*
X0393410Y0214546D01*
X0393410Y0213366D02*
X0385490Y0213366D01*
X0385690Y0212187D02*
X0393410Y0212187D01*
X0393410Y0211007D02*
X0385472Y0211007D01*
X0384714Y0209827D02*
X0393410Y0209827D01*
X0393410Y0208648D02*
X0389178Y0208648D01*
X0390980Y0207468D02*
X0393410Y0207468D01*
X0393410Y0206288D02*
X0391890Y0206288D01*
X0392379Y0205109D02*
X0393410Y0205109D01*
X0393410Y0203929D02*
X0392490Y0203929D01*
X0392490Y0202750D02*
X0393410Y0202750D01*
X0393410Y0201570D02*
X0392490Y0201570D01*
X0393288Y0200390D02*
X0393410Y0200390D01*
X0382109Y0200390D02*
X0381890Y0200390D01*
X0381890Y0199211D02*
X0382109Y0199211D01*
X0382109Y0198031D02*
X0381890Y0198031D01*
X0381796Y0196852D02*
X0382109Y0196852D01*
X0382566Y0195672D02*
X0381364Y0195672D01*
X0380476Y0194492D02*
X0383274Y0194492D01*
X0384588Y0193313D02*
X0378265Y0193313D01*
X0377709Y0193313D02*
X0376890Y0193313D01*
X0376334Y0193313D02*
X0370012Y0193313D01*
X0370240Y0193407D02*
X0371700Y0194867D01*
X0372490Y0196775D01*
X0372490Y0204840D01*
X0371700Y0206748D01*
X0370240Y0208208D01*
X0368332Y0208998D01*
X0366267Y0208998D01*
X0364359Y0208208D01*
X0362899Y0206748D01*
X0362109Y0204840D01*
X0362109Y0196775D01*
X0362899Y0194867D01*
X0364359Y0193407D01*
X0366267Y0192617D01*
X0368332Y0192617D01*
X0370240Y0193407D01*
X0371325Y0194492D02*
X0374123Y0194492D01*
X0373236Y0195672D02*
X0372033Y0195672D01*
X0372490Y0196852D02*
X0372803Y0196852D01*
X0372709Y0198031D02*
X0372490Y0198031D01*
X0372490Y0199211D02*
X0372709Y0199211D01*
X0372709Y0200390D02*
X0372490Y0200390D01*
X0372490Y0201570D02*
X0372709Y0201570D01*
X0372709Y0202750D02*
X0372490Y0202750D01*
X0372490Y0203929D02*
X0372709Y0203929D01*
X0372896Y0205109D02*
X0372379Y0205109D01*
X0371890Y0206288D02*
X0373428Y0206288D01*
X0374528Y0207468D02*
X0370980Y0207468D01*
X0372312Y0208648D02*
X0369178Y0208648D01*
X0371959Y0209827D02*
X0364714Y0209827D01*
X0365421Y0208648D02*
X0362288Y0208648D01*
X0363620Y0207468D02*
X0360071Y0207468D01*
X0361171Y0206288D02*
X0362709Y0206288D01*
X0362220Y0205109D02*
X0361704Y0205109D01*
X0361890Y0203929D02*
X0362109Y0203929D01*
X0362109Y0202750D02*
X0361890Y0202750D01*
X0361890Y0201570D02*
X0362109Y0201570D01*
X0362109Y0200390D02*
X0361890Y0200390D01*
X0361890Y0199211D02*
X0362109Y0199211D01*
X0362109Y0198031D02*
X0361890Y0198031D01*
X0361796Y0196852D02*
X0362109Y0196852D01*
X0362566Y0195672D02*
X0361364Y0195672D01*
X0360476Y0194492D02*
X0363274Y0194492D01*
X0364588Y0193313D02*
X0358265Y0193313D01*
X0357709Y0193313D02*
X0356890Y0193313D01*
X0356334Y0193313D02*
X0350012Y0193313D01*
X0350240Y0193407D02*
X0351700Y0194867D01*
X0352490Y0196775D01*
X0352490Y0204840D01*
X0351700Y0206748D01*
X0350240Y0208208D01*
X0348332Y0208998D01*
X0346267Y0208998D01*
X0344359Y0208208D01*
X0342899Y0206748D01*
X0342109Y0204840D01*
X0342109Y0196775D01*
X0342899Y0194867D01*
X0344359Y0193407D01*
X0346267Y0192617D01*
X0348332Y0192617D01*
X0350240Y0193407D01*
X0351325Y0194492D02*
X0354123Y0194492D01*
X0353236Y0195672D02*
X0352033Y0195672D01*
X0352490Y0196852D02*
X0352803Y0196852D01*
X0352709Y0198031D02*
X0352490Y0198031D01*
X0352490Y0199211D02*
X0352709Y0199211D01*
X0352709Y0200390D02*
X0352490Y0200390D01*
X0352490Y0201570D02*
X0352709Y0201570D01*
X0352709Y0202750D02*
X0352490Y0202750D01*
X0352490Y0203929D02*
X0352709Y0203929D01*
X0352896Y0205109D02*
X0352379Y0205109D01*
X0351890Y0206288D02*
X0353428Y0206288D01*
X0354528Y0207468D02*
X0350980Y0207468D01*
X0352312Y0208648D02*
X0349178Y0208648D01*
X0351959Y0209827D02*
X0344714Y0209827D01*
X0345421Y0208648D02*
X0342288Y0208648D01*
X0343620Y0207468D02*
X0340071Y0207468D01*
X0341171Y0206288D02*
X0342709Y0206288D01*
X0342220Y0205109D02*
X0341704Y0205109D01*
X0341890Y0203929D02*
X0342109Y0203929D01*
X0342109Y0202750D02*
X0341890Y0202750D01*
X0341890Y0201570D02*
X0342109Y0201570D01*
X0342109Y0200390D02*
X0341890Y0200390D01*
X0341890Y0199211D02*
X0342109Y0199211D01*
X0342109Y0198031D02*
X0341890Y0198031D01*
X0341796Y0196852D02*
X0342109Y0196852D01*
X0342566Y0195672D02*
X0341364Y0195672D01*
X0340476Y0194492D02*
X0343274Y0194492D01*
X0344588Y0193313D02*
X0338265Y0193313D01*
X0337709Y0193313D02*
X0336890Y0193313D01*
X0336334Y0193313D02*
X0330012Y0193313D01*
X0330240Y0193407D02*
X0331700Y0194867D01*
X0332490Y0196775D01*
X0332490Y0204840D01*
X0331700Y0206748D01*
X0330240Y0208208D01*
X0328332Y0208998D01*
X0326267Y0208998D01*
X0324359Y0208208D01*
X0322899Y0206748D01*
X0322109Y0204840D01*
X0322109Y0196775D01*
X0322899Y0194867D01*
X0324359Y0193407D01*
X0326267Y0192617D01*
X0328332Y0192617D01*
X0330240Y0193407D01*
X0331325Y0194492D02*
X0334123Y0194492D01*
X0333236Y0195672D02*
X0332033Y0195672D01*
X0332490Y0196852D02*
X0332803Y0196852D01*
X0332709Y0198031D02*
X0332490Y0198031D01*
X0332490Y0199211D02*
X0332709Y0199211D01*
X0332709Y0200390D02*
X0332490Y0200390D01*
X0332490Y0201570D02*
X0332709Y0201570D01*
X0332709Y0202750D02*
X0332490Y0202750D01*
X0332490Y0203929D02*
X0332709Y0203929D01*
X0332896Y0205109D02*
X0332379Y0205109D01*
X0331890Y0206288D02*
X0333428Y0206288D01*
X0334528Y0207468D02*
X0330980Y0207468D01*
X0332312Y0208648D02*
X0329178Y0208648D01*
X0331959Y0209827D02*
X0324714Y0209827D01*
X0325421Y0208648D02*
X0322288Y0208648D01*
X0323620Y0207468D02*
X0320071Y0207468D01*
X0321171Y0206288D02*
X0322709Y0206288D01*
X0322220Y0205109D02*
X0321704Y0205109D01*
X0321890Y0203929D02*
X0322109Y0203929D01*
X0322109Y0202750D02*
X0321890Y0202750D01*
X0321890Y0201570D02*
X0322109Y0201570D01*
X0322109Y0200390D02*
X0321890Y0200390D01*
X0321890Y0199211D02*
X0322109Y0199211D01*
X0322109Y0198031D02*
X0321890Y0198031D01*
X0321796Y0196852D02*
X0322109Y0196852D01*
X0322566Y0195672D02*
X0321364Y0195672D01*
X0320476Y0194492D02*
X0323274Y0194492D01*
X0324588Y0193313D02*
X0318265Y0193313D01*
X0317709Y0193313D02*
X0316890Y0193313D01*
X0316334Y0193313D02*
X0310012Y0193313D01*
X0310240Y0193407D02*
X0311700Y0194867D01*
X0312490Y0196775D01*
X0312490Y0204840D01*
X0311700Y0206748D01*
X0310240Y0208208D01*
X0308332Y0208998D01*
X0306267Y0208998D01*
X0304359Y0208208D01*
X0302899Y0206748D01*
X0302109Y0204840D01*
X0302109Y0196775D01*
X0302899Y0194867D01*
X0304359Y0193407D01*
X0306267Y0192617D01*
X0308332Y0192617D01*
X0310240Y0193407D01*
X0311325Y0194492D02*
X0314123Y0194492D01*
X0313236Y0195672D02*
X0312033Y0195672D01*
X0312490Y0196852D02*
X0312803Y0196852D01*
X0312709Y0198031D02*
X0312490Y0198031D01*
X0312490Y0199211D02*
X0312709Y0199211D01*
X0312709Y0200390D02*
X0312490Y0200390D01*
X0312490Y0201570D02*
X0312709Y0201570D01*
X0312709Y0202750D02*
X0312490Y0202750D01*
X0312490Y0203929D02*
X0312709Y0203929D01*
X0312896Y0205109D02*
X0312379Y0205109D01*
X0311890Y0206288D02*
X0313428Y0206288D01*
X0314528Y0207468D02*
X0310980Y0207468D01*
X0312312Y0208648D02*
X0309178Y0208648D01*
X0311959Y0209827D02*
X0304714Y0209827D01*
X0305421Y0208648D02*
X0302288Y0208648D01*
X0303620Y0207468D02*
X0300071Y0207468D01*
X0301171Y0206288D02*
X0302709Y0206288D01*
X0302220Y0205109D02*
X0301704Y0205109D01*
X0301890Y0203929D02*
X0302109Y0203929D01*
X0302109Y0202750D02*
X0301890Y0202750D01*
X0301890Y0201570D02*
X0302109Y0201570D01*
X0302109Y0200390D02*
X0301890Y0200390D01*
X0301890Y0199211D02*
X0302109Y0199211D01*
X0302109Y0198031D02*
X0301890Y0198031D01*
X0301796Y0196852D02*
X0302109Y0196852D01*
X0302566Y0195672D02*
X0301364Y0195672D01*
X0300476Y0194492D02*
X0303274Y0194492D01*
X0304588Y0193313D02*
X0298265Y0193313D01*
X0297709Y0193313D02*
X0296890Y0193313D01*
X0296334Y0193313D02*
X0290012Y0193313D01*
X0290240Y0193407D02*
X0291700Y0194867D01*
X0292490Y0196775D01*
X0292490Y0204840D01*
X0291700Y0206748D01*
X0290240Y0208208D01*
X0288332Y0208998D01*
X0286267Y0208998D01*
X0284359Y0208208D01*
X0282899Y0206748D01*
X0282109Y0204840D01*
X0282109Y0196775D01*
X0282899Y0194867D01*
X0284359Y0193407D01*
X0286267Y0192617D01*
X0288332Y0192617D01*
X0290240Y0193407D01*
X0291325Y0194492D02*
X0294123Y0194492D01*
X0293236Y0195672D02*
X0292033Y0195672D01*
X0292490Y0196852D02*
X0292803Y0196852D01*
X0292709Y0198031D02*
X0292490Y0198031D01*
X0292490Y0199211D02*
X0292709Y0199211D01*
X0292709Y0200390D02*
X0292490Y0200390D01*
X0292490Y0201570D02*
X0292709Y0201570D01*
X0292709Y0202750D02*
X0292490Y0202750D01*
X0292490Y0203929D02*
X0292709Y0203929D01*
X0292896Y0205109D02*
X0292379Y0205109D01*
X0291890Y0206288D02*
X0293428Y0206288D01*
X0294528Y0207468D02*
X0290980Y0207468D01*
X0292312Y0208648D02*
X0289178Y0208648D01*
X0291959Y0209827D02*
X0284714Y0209827D01*
X0285421Y0208648D02*
X0282288Y0208648D01*
X0283620Y0207468D02*
X0280071Y0207468D01*
X0281171Y0206288D02*
X0282709Y0206288D01*
X0282220Y0205109D02*
X0281704Y0205109D01*
X0281890Y0203929D02*
X0282109Y0203929D01*
X0282109Y0202750D02*
X0281890Y0202750D01*
X0281890Y0201570D02*
X0282109Y0201570D01*
X0282109Y0200390D02*
X0281890Y0200390D01*
X0281890Y0199211D02*
X0282109Y0199211D01*
X0282109Y0198031D02*
X0281890Y0198031D01*
X0281796Y0196852D02*
X0282109Y0196852D01*
X0282566Y0195672D02*
X0281364Y0195672D01*
X0280476Y0194492D02*
X0283274Y0194492D01*
X0284588Y0193313D02*
X0278265Y0193313D01*
X0277709Y0193313D02*
X0276890Y0193313D01*
X0276334Y0193313D02*
X0270012Y0193313D01*
X0270240Y0193407D02*
X0271700Y0194867D01*
X0272490Y0196775D01*
X0272490Y0204840D01*
X0271700Y0206748D01*
X0270240Y0208208D01*
X0268332Y0208998D01*
X0266267Y0208998D01*
X0264359Y0208208D01*
X0262899Y0206748D01*
X0262109Y0204840D01*
X0262109Y0196775D01*
X0262899Y0194867D01*
X0264359Y0193407D01*
X0266267Y0192617D01*
X0268332Y0192617D01*
X0270240Y0193407D01*
X0271325Y0194492D02*
X0274123Y0194492D01*
X0273236Y0195672D02*
X0272033Y0195672D01*
X0272490Y0196852D02*
X0272803Y0196852D01*
X0272709Y0198031D02*
X0272490Y0198031D01*
X0272490Y0199211D02*
X0272709Y0199211D01*
X0272709Y0200390D02*
X0272490Y0200390D01*
X0272490Y0201570D02*
X0272709Y0201570D01*
X0272709Y0202750D02*
X0272490Y0202750D01*
X0272490Y0203929D02*
X0272709Y0203929D01*
X0272896Y0205109D02*
X0272379Y0205109D01*
X0271890Y0206288D02*
X0273428Y0206288D01*
X0274528Y0207468D02*
X0270980Y0207468D01*
X0272312Y0208648D02*
X0269178Y0208648D01*
X0271959Y0209827D02*
X0264714Y0209827D01*
X0265421Y0208648D02*
X0262288Y0208648D01*
X0263620Y0207468D02*
X0260071Y0207468D01*
X0261171Y0206288D02*
X0262709Y0206288D01*
X0262220Y0205109D02*
X0261704Y0205109D01*
X0261890Y0203929D02*
X0262109Y0203929D01*
X0262109Y0202750D02*
X0261890Y0202750D01*
X0261890Y0201570D02*
X0262109Y0201570D01*
X0262109Y0200390D02*
X0261890Y0200390D01*
X0261890Y0199211D02*
X0262109Y0199211D01*
X0262109Y0198031D02*
X0261890Y0198031D01*
X0261796Y0196852D02*
X0262109Y0196852D01*
X0262566Y0195672D02*
X0261364Y0195672D01*
X0260476Y0194492D02*
X0263274Y0194492D01*
X0264588Y0193313D02*
X0258265Y0193313D01*
X0257709Y0193313D02*
X0256890Y0193313D01*
X0256334Y0193313D02*
X0251090Y0193313D01*
X0251325Y0194492D02*
X0254123Y0194492D01*
X0253236Y0195672D02*
X0252033Y0195672D01*
X0252490Y0196852D02*
X0252803Y0196852D01*
X0252709Y0198031D02*
X0252490Y0198031D01*
X0252490Y0199211D02*
X0252709Y0199211D01*
X0252709Y0200390D02*
X0252490Y0200390D01*
X0252490Y0201570D02*
X0252709Y0201570D01*
X0252709Y0202750D02*
X0252490Y0202750D01*
X0252490Y0203929D02*
X0252709Y0203929D01*
X0252896Y0205109D02*
X0252379Y0205109D01*
X0251890Y0206288D02*
X0253428Y0206288D01*
X0254528Y0207468D02*
X0250980Y0207468D01*
X0252312Y0208648D02*
X0249178Y0208648D01*
X0251959Y0209827D02*
X0244714Y0209827D01*
X0245421Y0208648D02*
X0242288Y0208648D01*
X0243620Y0207468D02*
X0240071Y0207468D01*
X0241171Y0206288D02*
X0242709Y0206288D01*
X0242220Y0205109D02*
X0241704Y0205109D01*
X0241890Y0203929D02*
X0242109Y0203929D01*
X0242109Y0202750D02*
X0241890Y0202750D01*
X0241890Y0201570D02*
X0242109Y0201570D01*
X0242109Y0200390D02*
X0241890Y0200390D01*
X0241890Y0199211D02*
X0242109Y0199211D01*
X0242109Y0198031D02*
X0241890Y0198031D01*
X0241796Y0196852D02*
X0242109Y0196852D01*
X0242566Y0195672D02*
X0241364Y0195672D01*
X0240476Y0194492D02*
X0242809Y0194492D01*
X0237709Y0194492D02*
X0236890Y0194492D01*
X0236890Y0195672D02*
X0237709Y0195672D01*
X0237709Y0196852D02*
X0236890Y0196852D01*
X0236890Y0198031D02*
X0237709Y0198031D01*
X0237709Y0199211D02*
X0236890Y0199211D01*
X0236890Y0200390D02*
X0237709Y0200390D01*
X0250786Y0192133D02*
X0385294Y0192133D01*
X0385294Y0190953D02*
X0249991Y0190953D01*
X0248812Y0189774D02*
X0385294Y0189774D01*
X0385294Y0188594D02*
X0247632Y0188594D01*
X0246452Y0187415D02*
X0385294Y0187415D01*
X0385294Y0186235D02*
X0245273Y0186235D01*
X0244093Y0185055D02*
X0385294Y0185055D01*
X0385294Y0183876D02*
X0242914Y0183876D01*
X0241734Y0182696D02*
X0385294Y0182696D01*
X0385294Y0181517D02*
X0240554Y0181517D01*
X0239375Y0180337D02*
X0385294Y0180337D01*
X0385294Y0179157D02*
X0238195Y0179157D01*
X0237016Y0177978D02*
X0385294Y0177978D01*
X0377709Y0194492D02*
X0376890Y0194492D01*
X0376890Y0195672D02*
X0377709Y0195672D01*
X0377709Y0196852D02*
X0376890Y0196852D01*
X0376890Y0198031D02*
X0377709Y0198031D01*
X0377709Y0199211D02*
X0376890Y0199211D01*
X0376890Y0200390D02*
X0377709Y0200390D01*
X0381890Y0201570D02*
X0382109Y0201570D01*
X0382109Y0202750D02*
X0381890Y0202750D01*
X0381890Y0203929D02*
X0382109Y0203929D01*
X0382220Y0205109D02*
X0381704Y0205109D01*
X0381171Y0206288D02*
X0382709Y0206288D01*
X0383620Y0207468D02*
X0380071Y0207468D01*
X0382288Y0208648D02*
X0385421Y0208648D01*
X0371959Y0211007D02*
X0365472Y0211007D01*
X0365690Y0212187D02*
X0371959Y0212187D01*
X0371959Y0213366D02*
X0365490Y0213366D01*
X0364756Y0214546D02*
X0371959Y0214546D01*
X0372270Y0215725D02*
X0362330Y0215725D01*
X0362040Y0216905D02*
X0372559Y0216905D01*
X0372559Y0219264D02*
X0362040Y0219264D01*
X0352559Y0219264D02*
X0342040Y0219264D01*
X0342040Y0216905D02*
X0352559Y0216905D01*
X0352270Y0215725D02*
X0342330Y0215725D01*
X0344756Y0214546D02*
X0351959Y0214546D01*
X0351959Y0213366D02*
X0345490Y0213366D01*
X0345690Y0212187D02*
X0351959Y0212187D01*
X0351959Y0211007D02*
X0345472Y0211007D01*
X0331959Y0211007D02*
X0325472Y0211007D01*
X0325690Y0212187D02*
X0331959Y0212187D01*
X0331959Y0213366D02*
X0325490Y0213366D01*
X0324756Y0214546D02*
X0331959Y0214546D01*
X0332270Y0215725D02*
X0322330Y0215725D01*
X0322040Y0216905D02*
X0332559Y0216905D01*
X0332559Y0219264D02*
X0322040Y0219264D01*
X0312559Y0219264D02*
X0302040Y0219264D01*
X0302040Y0216905D02*
X0312559Y0216905D01*
X0312270Y0215725D02*
X0302330Y0215725D01*
X0304756Y0214546D02*
X0311959Y0214546D01*
X0311959Y0213366D02*
X0305490Y0213366D01*
X0305690Y0212187D02*
X0311959Y0212187D01*
X0311959Y0211007D02*
X0305472Y0211007D01*
X0291959Y0211007D02*
X0285472Y0211007D01*
X0285690Y0212187D02*
X0291959Y0212187D01*
X0291959Y0213366D02*
X0285490Y0213366D01*
X0284756Y0214546D02*
X0291959Y0214546D01*
X0292270Y0215725D02*
X0282330Y0215725D01*
X0282040Y0216905D02*
X0292559Y0216905D01*
X0292559Y0219264D02*
X0282040Y0219264D01*
X0272559Y0219264D02*
X0262040Y0219264D01*
X0262040Y0216905D02*
X0272559Y0216905D01*
X0272270Y0215725D02*
X0262330Y0215725D01*
X0264756Y0214546D02*
X0271959Y0214546D01*
X0271959Y0213366D02*
X0265490Y0213366D01*
X0265690Y0212187D02*
X0271959Y0212187D01*
X0271959Y0211007D02*
X0265472Y0211007D01*
X0251959Y0211007D02*
X0245472Y0211007D01*
X0245690Y0212187D02*
X0251959Y0212187D01*
X0251959Y0213366D02*
X0245490Y0213366D01*
X0244756Y0214546D02*
X0251959Y0214546D01*
X0252270Y0215725D02*
X0242330Y0215725D01*
X0242040Y0216905D02*
X0252559Y0216905D01*
X0252559Y0219264D02*
X0242040Y0219264D01*
X0232559Y0219264D02*
X0192333Y0219264D01*
X0191766Y0219832D02*
X0191766Y0219832D01*
X0131785Y0203408D02*
X0127585Y0203408D01*
X0124585Y0203408D01*
X0242595Y0129614D02*
X0273874Y0129614D01*
X0273235Y0128434D02*
X0243234Y0128434D01*
X0243456Y0127254D02*
X0273013Y0127254D01*
X0273114Y0126075D02*
X0243356Y0126075D01*
X0243275Y0124895D02*
X0273194Y0124895D01*
X0273194Y0123716D02*
X0243275Y0123716D01*
X0243275Y0122536D02*
X0273194Y0122536D01*
X0273194Y0121356D02*
X0243275Y0121356D01*
X0243275Y0120177D02*
X0273194Y0120177D01*
X0273194Y0118997D02*
X0243275Y0118997D01*
X0243275Y0117817D02*
X0273194Y0117817D01*
X0273194Y0116638D02*
X0243275Y0116638D01*
X0243275Y0115458D02*
X0273194Y0115458D01*
X0273194Y0114279D02*
X0243275Y0114279D01*
X0243275Y0113099D02*
X0273194Y0113099D01*
X0273194Y0111919D02*
X0243275Y0111919D01*
X0243275Y0110740D02*
X0273194Y0110740D01*
X0273194Y0109560D02*
X0243275Y0109560D01*
X0243275Y0108381D02*
X0273013Y0108381D01*
X0273144Y0107201D02*
X0243275Y0107201D01*
X0243456Y0106021D02*
X0273654Y0106021D01*
X0274974Y0104842D02*
X0243384Y0104842D01*
X0312800Y0137871D02*
X0312800Y0137871D01*
X0312800Y0139050D02*
X0312800Y0139050D01*
X0312800Y0140230D02*
X0312800Y0140230D01*
X0314159Y0137871D02*
X0315424Y0137871D01*
X0316800Y0137871D02*
X0316800Y0137871D01*
X0316800Y0139050D02*
X0316800Y0139050D01*
X0316800Y0140230D02*
X0316800Y0140230D01*
X0318176Y0137871D02*
X0356441Y0137871D01*
X0356482Y0137843D02*
X0356027Y0138147D01*
X0355639Y0138535D01*
X0355335Y0138990D01*
X0355125Y0139496D01*
X0355019Y0140034D01*
X0355019Y0140307D01*
X0357800Y0140307D01*
X0357800Y0137526D01*
X0358074Y0137526D01*
X0358611Y0137633D01*
X0359117Y0137843D01*
X0359573Y0138147D01*
X0359793Y0138368D01*
X0360021Y0138140D01*
X0360478Y0137835D01*
X0360986Y0137624D01*
X0361525Y0137517D01*
X0361800Y0137517D01*
X0362075Y0137517D01*
X0362614Y0137624D01*
X0363122Y0137835D01*
X0363579Y0138140D01*
X0363967Y0138529D01*
X0364273Y0138986D01*
X0364483Y0139494D01*
X0364590Y0140033D01*
X0364590Y0140307D01*
X0361800Y0140307D01*
X0361800Y0137517D01*
X0361800Y0140307D01*
X0361800Y0140307D01*
X0361800Y0140308D01*
X0364590Y0140308D01*
X0364590Y0140582D01*
X0364483Y0141122D01*
X0364273Y0141629D01*
X0363967Y0142086D01*
X0363579Y0142475D01*
X0363122Y0142781D01*
X0362614Y0142991D01*
X0362583Y0142997D01*
X0362590Y0143033D01*
X0362590Y0143307D01*
X0359800Y0143307D01*
X0359800Y0143308D01*
X0362590Y0143308D01*
X0362590Y0143582D01*
X0362583Y0143618D01*
X0362614Y0143624D01*
X0363122Y0143835D01*
X0363579Y0144140D01*
X0363967Y0144529D01*
X0364273Y0144986D01*
X0364483Y0145494D01*
X0364590Y0146033D01*
X0364590Y0146307D01*
X0361800Y0146307D01*
X0361800Y0146308D01*
X0361800Y0146308D01*
X0361800Y0149098D01*
X0362075Y0149098D01*
X0362614Y0148991D01*
X0363122Y0148781D01*
X0363579Y0148475D01*
X0363967Y0148086D01*
X0364273Y0147629D01*
X0364483Y0147122D01*
X0364590Y0146582D01*
X0364590Y0146308D01*
X0361800Y0146308D01*
X0361800Y0149098D01*
X0361525Y0149098D01*
X0360986Y0148991D01*
X0360478Y0148781D01*
X0360021Y0148475D01*
X0359800Y0148254D01*
X0359579Y0148475D01*
X0359122Y0148781D01*
X0358614Y0148991D01*
X0358075Y0149098D01*
X0357800Y0149098D01*
X0357800Y0146308D01*
X0357800Y0146308D01*
X0361800Y0146308D01*
X0361800Y0146307D01*
X0360590Y0146307D01*
X0357800Y0146307D01*
X0357800Y0146308D01*
X0357800Y0149098D01*
X0357525Y0149098D01*
X0356986Y0148991D01*
X0356478Y0148781D01*
X0356021Y0148475D01*
X0355632Y0148086D01*
X0355327Y0147629D01*
X0355116Y0147122D01*
X0355009Y0146582D01*
X0355009Y0146308D01*
X0357800Y0146308D01*
X0357800Y0146307D01*
X0355009Y0146307D01*
X0355009Y0146033D01*
X0355116Y0145494D01*
X0355327Y0144986D01*
X0355632Y0144529D01*
X0356021Y0144140D01*
X0356478Y0143835D01*
X0356986Y0143624D01*
X0357016Y0143618D01*
X0357009Y0143582D01*
X0357009Y0143308D01*
X0359800Y0143308D01*
X0359800Y0143307D01*
X0357009Y0143307D01*
X0357009Y0143033D01*
X0357018Y0142988D01*
X0356988Y0142982D01*
X0356482Y0142772D01*
X0356027Y0142468D01*
X0355639Y0142080D01*
X0355335Y0141625D01*
X0355125Y0141119D01*
X0355019Y0140581D01*
X0355019Y0140308D01*
X0357800Y0140308D01*
X0361800Y0140308D01*
X0361800Y0140307D01*
X0359009Y0140307D01*
X0357800Y0140307D01*
X0357800Y0140307D01*
X0357800Y0140308D01*
X0357800Y0140307D01*
X0357800Y0137526D01*
X0357526Y0137526D01*
X0356988Y0137633D01*
X0356482Y0137843D01*
X0357800Y0137871D02*
X0357800Y0137871D01*
X0357800Y0139050D02*
X0357800Y0139050D01*
X0357800Y0140230D02*
X0357800Y0140230D01*
X0359159Y0137871D02*
X0360424Y0137871D01*
X0361800Y0137871D02*
X0361800Y0137871D01*
X0361800Y0139050D02*
X0361800Y0139050D01*
X0361800Y0140230D02*
X0361800Y0140230D01*
X0363176Y0137871D02*
X0385294Y0137871D01*
X0385294Y0139050D02*
X0364299Y0139050D01*
X0364590Y0140230D02*
X0385294Y0140230D01*
X0385294Y0141410D02*
X0364364Y0141410D01*
X0363408Y0142589D02*
X0385294Y0142589D01*
X0385294Y0143769D02*
X0362963Y0143769D01*
X0364248Y0144949D02*
X0385294Y0144949D01*
X0385294Y0146128D02*
X0376927Y0146128D01*
X0376659Y0146017D02*
X0377905Y0146533D01*
X0378859Y0147487D01*
X0379375Y0148733D01*
X0379375Y0150082D01*
X0378859Y0151328D01*
X0377905Y0152282D01*
X0376659Y0152798D01*
X0376399Y0152798D01*
X0376309Y0152888D01*
X0375320Y0153298D01*
X0368489Y0153298D01*
X0368305Y0153482D01*
X0367059Y0153998D01*
X0365710Y0153998D01*
X0364464Y0153482D01*
X0363510Y0152528D01*
X0362994Y0151282D01*
X0362994Y0149933D01*
X0363510Y0148687D01*
X0364464Y0147733D01*
X0365710Y0147217D01*
X0367059Y0147217D01*
X0368305Y0147733D01*
X0368489Y0147917D01*
X0372932Y0147917D01*
X0373110Y0147487D01*
X0374064Y0146533D01*
X0375310Y0146017D01*
X0376659Y0146017D01*
X0375042Y0146128D02*
X0364590Y0146128D01*
X0364406Y0147308D02*
X0365491Y0147308D01*
X0367278Y0147308D02*
X0373290Y0147308D01*
X0378680Y0147308D02*
X0385294Y0147308D01*
X0385294Y0148487D02*
X0379273Y0148487D01*
X0379375Y0149667D02*
X0385294Y0149667D01*
X0385294Y0150847D02*
X0379059Y0150847D01*
X0378161Y0152026D02*
X0385294Y0152026D01*
X0385294Y0153206D02*
X0375543Y0153206D01*
X0364188Y0153206D02*
X0333781Y0153206D01*
X0334667Y0152026D02*
X0363302Y0152026D01*
X0362994Y0150847D02*
X0334975Y0150847D01*
X0334865Y0149667D02*
X0363104Y0149667D01*
X0363560Y0148487D02*
X0363710Y0148487D01*
X0361800Y0148487D02*
X0361800Y0148487D01*
X0361800Y0147308D02*
X0361800Y0147308D01*
X0360039Y0148487D02*
X0359560Y0148487D01*
X0357800Y0148487D02*
X0357800Y0148487D01*
X0357800Y0147308D02*
X0357800Y0147308D01*
X0356039Y0148487D02*
X0334260Y0148487D01*
X0332478Y0147308D02*
X0355194Y0147308D01*
X0355009Y0146128D02*
X0319590Y0146128D01*
X0319406Y0147308D02*
X0319891Y0147308D01*
X0321678Y0147308D02*
X0330691Y0147308D01*
X0319248Y0144949D02*
X0355352Y0144949D01*
X0356636Y0143769D02*
X0317963Y0143769D01*
X0318408Y0142589D02*
X0356209Y0142589D01*
X0355246Y0141410D02*
X0319364Y0141410D01*
X0319590Y0140230D02*
X0355019Y0140230D01*
X0355310Y0139050D02*
X0319299Y0139050D01*
X0316800Y0147308D02*
X0316800Y0147308D01*
X0316800Y0148487D02*
X0316800Y0148487D01*
X0315039Y0148487D02*
X0314560Y0148487D01*
X0312800Y0148487D02*
X0312800Y0148487D01*
X0312800Y0147308D02*
X0312800Y0147308D01*
X0320956Y0109560D02*
X0321794Y0109560D01*
X0321794Y0108381D02*
X0320817Y0108381D01*
X0320295Y0107201D02*
X0321794Y0107201D01*
X0321794Y0106021D02*
X0318947Y0106021D01*
X0339415Y0066549D02*
X0338992Y0066266D01*
X0338632Y0065906D01*
X0338349Y0065483D01*
X0338154Y0065013D01*
X0338055Y0064513D01*
X0338055Y0064259D01*
X0340639Y0064259D01*
X0340639Y0066843D01*
X0340385Y0066843D01*
X0339885Y0066744D01*
X0339415Y0066549D01*
X0338640Y0065914D02*
X0167167Y0065914D01*
X0167167Y0064735D02*
X0338099Y0064735D01*
X0338055Y0064259D02*
X0338055Y0064004D01*
X0338154Y0063505D01*
X0338349Y0063035D01*
X0338632Y0062611D01*
X0338953Y0062290D01*
X0338632Y0061969D01*
X0338349Y0061546D01*
X0338154Y0061076D01*
X0338055Y0060576D01*
X0338055Y0060322D01*
X0340639Y0060322D01*
X0340639Y0064259D01*
X0340639Y0064259D01*
X0340639Y0066843D01*
X0340894Y0066843D01*
X0341393Y0066744D01*
X0341863Y0066549D01*
X0342286Y0066266D01*
X0342608Y0065945D01*
X0342929Y0066266D01*
X0343352Y0066549D01*
X0343822Y0066744D01*
X0344322Y0066843D01*
X0344576Y0066843D01*
X0344576Y0064259D01*
X0344576Y0064259D01*
X0344576Y0066843D01*
X0344831Y0066843D01*
X0345330Y0066744D01*
X0345800Y0066549D01*
X0346223Y0066266D01*
X0346583Y0065906D01*
X0346866Y0065483D01*
X0347061Y0065013D01*
X0347160Y0064513D01*
X0347160Y0064259D01*
X0344576Y0064259D01*
X0344576Y0064259D01*
X0340639Y0064259D01*
X0340639Y0064259D01*
X0340639Y0064259D01*
X0338055Y0064259D01*
X0338144Y0063555D02*
X0167167Y0063555D01*
X0167167Y0062376D02*
X0338868Y0062376D01*
X0338204Y0061196D02*
X0167167Y0061196D01*
X0167167Y0060016D02*
X0338065Y0060016D01*
X0338055Y0060067D02*
X0338154Y0059568D01*
X0338349Y0059098D01*
X0338632Y0058674D01*
X0338953Y0058353D01*
X0338632Y0058032D01*
X0338349Y0057609D01*
X0338154Y0057139D01*
X0338055Y0056639D01*
X0338055Y0056385D01*
X0340639Y0056385D01*
X0340639Y0058969D01*
X0340639Y0060322D01*
X0340639Y0060322D01*
X0340639Y0061674D01*
X0340639Y0064259D01*
X0341992Y0064259D01*
X0344576Y0064259D01*
X0344576Y0064259D01*
X0347160Y0064259D01*
X0347160Y0064004D01*
X0347061Y0063505D01*
X0346866Y0063035D01*
X0346583Y0062611D01*
X0346262Y0062290D01*
X0346583Y0061969D01*
X0346866Y0061546D01*
X0347061Y0061076D01*
X0347160Y0060576D01*
X0347160Y0060322D01*
X0344576Y0060322D01*
X0344576Y0062906D01*
X0344576Y0064259D01*
X0344576Y0064259D01*
X0344576Y0060322D01*
X0344576Y0060322D01*
X0344576Y0060322D01*
X0340639Y0060322D01*
X0340639Y0060322D01*
X0340639Y0060322D01*
X0338055Y0060322D01*
X0338055Y0060067D01*
X0338523Y0058837D02*
X0167167Y0058837D01*
X0167167Y0057657D02*
X0338381Y0057657D01*
X0338055Y0056478D02*
X0167167Y0056478D01*
X0167167Y0055298D02*
X0338292Y0055298D01*
X0338349Y0055161D02*
X0338632Y0054737D01*
X0338992Y0054377D01*
X0339415Y0054095D01*
X0339885Y0053900D01*
X0340385Y0053800D01*
X0340639Y0053800D01*
X0340639Y0056385D01*
X0340639Y0056385D01*
X0340639Y0060322D01*
X0341992Y0060322D01*
X0344576Y0060322D01*
X0344576Y0060322D01*
X0347160Y0060322D01*
X0347160Y0060067D01*
X0347061Y0059568D01*
X0346866Y0059098D01*
X0346583Y0058674D01*
X0346262Y0058353D01*
X0346583Y0058032D01*
X0346866Y0057609D01*
X0347061Y0057139D01*
X0347160Y0056639D01*
X0347160Y0056385D01*
X0344576Y0056385D01*
X0344576Y0057737D01*
X0344576Y0060322D01*
X0344576Y0060322D01*
X0344576Y0056385D01*
X0344576Y0056385D01*
X0344576Y0056385D01*
X0340639Y0056385D01*
X0340639Y0056385D01*
X0340639Y0056385D01*
X0338055Y0056385D01*
X0338055Y0056130D01*
X0338154Y0055631D01*
X0338349Y0055161D01*
X0339379Y0054118D02*
X0167167Y0054118D01*
X0167167Y0052939D02*
X0350034Y0052939D01*
X0350188Y0052566D02*
X0351140Y0051615D01*
X0352382Y0051100D01*
X0352503Y0051100D01*
X0356874Y0046730D01*
X0356874Y0046609D01*
X0357388Y0045366D01*
X0358340Y0044415D01*
X0359582Y0043900D01*
X0360927Y0043900D01*
X0362170Y0044415D01*
X0363121Y0045366D01*
X0363636Y0046609D01*
X0363636Y0047954D01*
X0363121Y0049197D01*
X0362170Y0050148D01*
X0360927Y0050663D01*
X0360807Y0050663D01*
X0356436Y0055034D01*
X0356436Y0055154D01*
X0355921Y0056397D01*
X0354970Y0057348D01*
X0353727Y0057863D01*
X0352382Y0057863D01*
X0351140Y0057348D01*
X0350188Y0056397D01*
X0349674Y0055154D01*
X0349674Y0053809D01*
X0350188Y0052566D01*
X0350996Y0051759D02*
X0166730Y0051759D01*
X0163213Y0050579D02*
X0353024Y0050579D01*
X0354203Y0049400D02*
X0284263Y0049400D01*
X0285498Y0048220D02*
X0355383Y0048220D01*
X0356563Y0047041D02*
X0286678Y0047041D01*
X0287858Y0045861D02*
X0357184Y0045861D01*
X0358073Y0044681D02*
X0288451Y0044681D01*
X0288675Y0043502D02*
X0377501Y0043502D01*
X0376653Y0042654D02*
X0375300Y0039387D01*
X0375300Y0035850D01*
X0376653Y0032583D01*
X0379154Y0030082D01*
X0382421Y0028729D01*
X0385958Y0028729D01*
X0389225Y0030082D01*
X0391726Y0032583D01*
X0393079Y0035850D01*
X0393079Y0039387D01*
X0391726Y0042654D01*
X0389225Y0045155D01*
X0385958Y0046508D01*
X0382421Y0046508D01*
X0379154Y0045155D01*
X0376653Y0042654D01*
X0376516Y0042322D02*
X0288675Y0042322D01*
X0288675Y0041143D02*
X0376027Y0041143D01*
X0375538Y0039963D02*
X0289127Y0039963D01*
X0289616Y0038783D02*
X0375300Y0038783D01*
X0375300Y0037604D02*
X0289675Y0037604D01*
X0289675Y0036424D02*
X0375300Y0036424D01*
X0375551Y0035244D02*
X0289675Y0035244D01*
X0289675Y0034065D02*
X0376039Y0034065D01*
X0376528Y0032885D02*
X0289675Y0032885D01*
X0289675Y0031706D02*
X0377530Y0031706D01*
X0378710Y0030526D02*
X0289655Y0030526D01*
X0289166Y0029346D02*
X0380930Y0029346D01*
X0387449Y0029346D02*
X0393410Y0029346D01*
X0393410Y0030526D02*
X0389669Y0030526D01*
X0390849Y0031706D02*
X0393410Y0031706D01*
X0393410Y0032885D02*
X0391851Y0032885D01*
X0392340Y0034065D02*
X0393410Y0034065D01*
X0393410Y0035244D02*
X0392828Y0035244D01*
X0393079Y0036424D02*
X0393410Y0036424D01*
X0393410Y0037604D02*
X0393079Y0037604D01*
X0393079Y0038783D02*
X0393410Y0038783D01*
X0393410Y0039963D02*
X0392841Y0039963D01*
X0392352Y0041143D02*
X0393410Y0041143D01*
X0393410Y0042322D02*
X0391863Y0042322D01*
X0390878Y0043502D02*
X0393410Y0043502D01*
X0393410Y0044681D02*
X0389699Y0044681D01*
X0387521Y0045861D02*
X0393410Y0045861D01*
X0393410Y0047041D02*
X0363636Y0047041D01*
X0363526Y0048220D02*
X0393410Y0048220D01*
X0393410Y0049400D02*
X0362918Y0049400D01*
X0361128Y0050579D02*
X0393410Y0050579D01*
X0393410Y0051759D02*
X0359710Y0051759D01*
X0358531Y0052939D02*
X0393410Y0052939D01*
X0393410Y0054118D02*
X0357351Y0054118D01*
X0356376Y0055298D02*
X0393410Y0055298D01*
X0393410Y0056478D02*
X0355840Y0056478D01*
X0354224Y0057657D02*
X0393410Y0057657D01*
X0393410Y0058837D02*
X0346692Y0058837D01*
X0346834Y0057657D02*
X0351886Y0057657D01*
X0350269Y0056478D02*
X0347160Y0056478D01*
X0347160Y0056385D02*
X0344576Y0056385D01*
X0344576Y0056385D01*
X0341992Y0056385D01*
X0340639Y0056385D01*
X0340639Y0056385D01*
X0340639Y0053800D01*
X0340894Y0053800D01*
X0341393Y0053900D01*
X0341863Y0054095D01*
X0342286Y0054377D01*
X0342608Y0054699D01*
X0342929Y0054377D01*
X0343352Y0054095D01*
X0343822Y0053900D01*
X0344322Y0053800D01*
X0344576Y0053800D01*
X0344576Y0056385D01*
X0344576Y0056385D01*
X0344576Y0053800D01*
X0344831Y0053800D01*
X0345330Y0053900D01*
X0345800Y0054095D01*
X0346223Y0054377D01*
X0346583Y0054737D01*
X0346866Y0055161D01*
X0347061Y0055631D01*
X0347160Y0056130D01*
X0347160Y0056385D01*
X0346923Y0055298D02*
X0349733Y0055298D01*
X0349674Y0054118D02*
X0345836Y0054118D01*
X0344576Y0054118D02*
X0344576Y0054118D01*
X0344576Y0055298D02*
X0344576Y0055298D01*
X0344576Y0056478D02*
X0344576Y0056478D01*
X0344576Y0057657D02*
X0344576Y0057657D01*
X0344576Y0058837D02*
X0344576Y0058837D01*
X0344576Y0060016D02*
X0344576Y0060016D01*
X0344576Y0061196D02*
X0344576Y0061196D01*
X0344576Y0062376D02*
X0344576Y0062376D01*
X0344576Y0063555D02*
X0344576Y0063555D01*
X0344576Y0064735D02*
X0344576Y0064735D01*
X0344576Y0065914D02*
X0344576Y0065914D01*
X0346575Y0065914D02*
X0393410Y0065914D01*
X0393410Y0064735D02*
X0347116Y0064735D01*
X0347071Y0063555D02*
X0393410Y0063555D01*
X0393410Y0062376D02*
X0346348Y0062376D01*
X0347011Y0061196D02*
X0393410Y0061196D01*
X0393410Y0060016D02*
X0347150Y0060016D01*
X0340639Y0060016D02*
X0340639Y0060016D01*
X0340639Y0060322D02*
X0340639Y0060322D01*
X0340639Y0061196D02*
X0340639Y0061196D01*
X0340639Y0062376D02*
X0340639Y0062376D01*
X0340639Y0063555D02*
X0340639Y0063555D01*
X0340639Y0064259D02*
X0340639Y0064259D01*
X0340639Y0064735D02*
X0340639Y0064735D01*
X0340639Y0065914D02*
X0340639Y0065914D01*
X0340639Y0058837D02*
X0340639Y0058837D01*
X0340639Y0057657D02*
X0340639Y0057657D01*
X0340639Y0056478D02*
X0340639Y0056478D01*
X0340639Y0055298D02*
X0340639Y0055298D01*
X0340639Y0054118D02*
X0340639Y0054118D01*
X0341899Y0054118D02*
X0343316Y0054118D01*
X0353055Y0054482D02*
X0360255Y0047282D01*
X0363326Y0045861D02*
X0380858Y0045861D01*
X0378680Y0044681D02*
X0362436Y0044681D01*
X0393410Y0067094D02*
X0167167Y0067094D01*
X0167167Y0068274D02*
X0393410Y0068274D01*
X0393410Y0069453D02*
X0167167Y0069453D01*
X0168105Y0070633D02*
X0393410Y0070633D01*
X0393410Y0071813D02*
X0169035Y0071813D01*
X0169375Y0072992D02*
X0393410Y0072992D01*
X0393410Y0074172D02*
X0169297Y0074172D01*
X0168775Y0075351D02*
X0393410Y0075351D01*
X0240294Y0042322D02*
X0236666Y0042322D01*
X0238290Y0041143D02*
X0240294Y0041143D01*
X0239842Y0039963D02*
X0239127Y0039963D01*
X0232303Y0042322D02*
X0176666Y0042322D01*
X0178290Y0041143D02*
X0230679Y0041143D01*
X0229842Y0039963D02*
X0179127Y0039963D01*
X0179616Y0038783D02*
X0229354Y0038783D01*
X0229294Y0037604D02*
X0179675Y0037604D01*
X0179675Y0036424D02*
X0229294Y0036424D01*
X0229294Y0035244D02*
X0179675Y0035244D01*
X0179675Y0034065D02*
X0229294Y0034065D01*
X0229294Y0032885D02*
X0179675Y0032885D01*
X0179675Y0031706D02*
X0229294Y0031706D01*
X0229314Y0030526D02*
X0179655Y0030526D01*
X0179166Y0029346D02*
X0229803Y0029346D01*
X0172303Y0042322D02*
X0144166Y0042322D01*
X0145790Y0041143D02*
X0149040Y0041143D01*
X0148994Y0041109D02*
X0148483Y0040598D01*
X0148059Y0040014D01*
X0147730Y0039370D01*
X0147507Y0038683D01*
X0147394Y0037969D01*
X0147394Y0035017D01*
X0151575Y0035017D01*
X0151575Y0042190D01*
X0150910Y0042085D01*
X0150223Y0041862D01*
X0149579Y0041534D01*
X0148994Y0041109D01*
X0148033Y0039963D02*
X0146627Y0039963D01*
X0147116Y0038783D02*
X0147540Y0038783D01*
X0147394Y0037604D02*
X0147175Y0037604D01*
X0147175Y0036424D02*
X0147394Y0036424D01*
X0147394Y0035244D02*
X0147175Y0035244D01*
X0147175Y0034065D02*
X0147394Y0034065D01*
X0147394Y0032885D02*
X0147175Y0032885D01*
X0147175Y0031706D02*
X0147394Y0031706D01*
X0147509Y0030526D02*
X0147155Y0030526D01*
X0146666Y0029346D02*
X0147985Y0029346D01*
X0151575Y0035244D02*
X0152394Y0035244D01*
X0152394Y0035017D02*
X0152394Y0042190D01*
X0153060Y0042085D01*
X0153747Y0041862D01*
X0154391Y0041534D01*
X0154975Y0041109D01*
X0155486Y0040598D01*
X0155911Y0040014D01*
X0156239Y0039370D01*
X0156462Y0038683D01*
X0156575Y0037969D01*
X0156575Y0035017D01*
X0152394Y0035017D01*
X0152394Y0036424D02*
X0151575Y0036424D01*
X0151575Y0037604D02*
X0152394Y0037604D01*
X0152394Y0038783D02*
X0151575Y0038783D01*
X0151575Y0039963D02*
X0152394Y0039963D01*
X0152394Y0041143D02*
X0151575Y0041143D01*
X0154929Y0041143D02*
X0161540Y0041143D01*
X0161494Y0041109D02*
X0160983Y0040598D01*
X0160559Y0040014D01*
X0160230Y0039370D01*
X0160007Y0038683D01*
X0159894Y0037969D01*
X0159894Y0035017D01*
X0164075Y0035017D01*
X0164075Y0042190D01*
X0163410Y0042085D01*
X0162723Y0041862D01*
X0162079Y0041534D01*
X0161494Y0041109D01*
X0160533Y0039963D02*
X0155937Y0039963D01*
X0156429Y0038783D02*
X0160040Y0038783D01*
X0159894Y0037604D02*
X0156575Y0037604D01*
X0156575Y0036424D02*
X0159894Y0036424D01*
X0159894Y0035244D02*
X0156575Y0035244D01*
X0156575Y0034065D02*
X0159894Y0034065D01*
X0159894Y0032885D02*
X0156575Y0032885D01*
X0156575Y0031706D02*
X0159894Y0031706D01*
X0160009Y0030526D02*
X0156460Y0030526D01*
X0155985Y0029346D02*
X0160485Y0029346D01*
X0164075Y0035244D02*
X0164894Y0035244D01*
X0164894Y0035017D02*
X0164894Y0042190D01*
X0165560Y0042085D01*
X0166247Y0041862D01*
X0166891Y0041534D01*
X0167475Y0041109D01*
X0167986Y0040598D01*
X0168411Y0040014D01*
X0168739Y0039370D01*
X0168962Y0038683D01*
X0169075Y0037969D01*
X0169075Y0035017D01*
X0164894Y0035017D01*
X0164894Y0036424D02*
X0164075Y0036424D01*
X0164075Y0037604D02*
X0164894Y0037604D01*
X0164894Y0038783D02*
X0164075Y0038783D01*
X0164075Y0039963D02*
X0164894Y0039963D01*
X0164894Y0041143D02*
X0164075Y0041143D01*
X0167429Y0041143D02*
X0170679Y0041143D01*
X0169842Y0039963D02*
X0168437Y0039963D01*
X0168929Y0038783D02*
X0169354Y0038783D01*
X0169294Y0037604D02*
X0169075Y0037604D01*
X0169075Y0036424D02*
X0169294Y0036424D01*
X0169294Y0035244D02*
X0169075Y0035244D01*
X0169075Y0034065D02*
X0169294Y0034065D01*
X0169294Y0032885D02*
X0169075Y0032885D01*
X0169075Y0031706D02*
X0169294Y0031706D01*
X0169314Y0030526D02*
X0168960Y0030526D01*
X0168485Y0029346D02*
X0169803Y0029346D01*
X0160756Y0050579D02*
X0155713Y0050579D01*
X0153256Y0050579D02*
X0150713Y0050579D01*
X0148256Y0050579D02*
X0143213Y0050579D01*
X0171940Y0085968D02*
X0172029Y0085968D01*
X0256890Y0194492D02*
X0257709Y0194492D01*
X0257709Y0195672D02*
X0256890Y0195672D01*
X0256890Y0196852D02*
X0257709Y0196852D01*
X0257709Y0198031D02*
X0256890Y0198031D01*
X0256890Y0199211D02*
X0257709Y0199211D01*
X0257709Y0200390D02*
X0256890Y0200390D01*
X0276890Y0200390D02*
X0277709Y0200390D01*
X0277709Y0199211D02*
X0276890Y0199211D01*
X0276890Y0198031D02*
X0277709Y0198031D01*
X0277709Y0196852D02*
X0276890Y0196852D01*
X0276890Y0195672D02*
X0277709Y0195672D01*
X0277709Y0194492D02*
X0276890Y0194492D01*
X0296890Y0194492D02*
X0297709Y0194492D01*
X0297709Y0195672D02*
X0296890Y0195672D01*
X0296890Y0196852D02*
X0297709Y0196852D01*
X0297709Y0198031D02*
X0296890Y0198031D01*
X0296890Y0199211D02*
X0297709Y0199211D01*
X0297709Y0200390D02*
X0296890Y0200390D01*
X0316890Y0200390D02*
X0317709Y0200390D01*
X0317709Y0199211D02*
X0316890Y0199211D01*
X0316890Y0198031D02*
X0317709Y0198031D01*
X0317709Y0196852D02*
X0316890Y0196852D01*
X0316890Y0195672D02*
X0317709Y0195672D01*
X0317709Y0194492D02*
X0316890Y0194492D01*
X0336890Y0194492D02*
X0337709Y0194492D01*
X0337709Y0195672D02*
X0336890Y0195672D01*
X0336890Y0196852D02*
X0337709Y0196852D01*
X0337709Y0198031D02*
X0336890Y0198031D01*
X0336890Y0199211D02*
X0337709Y0199211D01*
X0337709Y0200390D02*
X0336890Y0200390D01*
X0356890Y0200390D02*
X0357709Y0200390D01*
X0357709Y0199211D02*
X0356890Y0199211D01*
X0356890Y0198031D02*
X0357709Y0198031D01*
X0357709Y0196852D02*
X0356890Y0196852D01*
X0356890Y0195672D02*
X0357709Y0195672D01*
X0357709Y0194492D02*
X0356890Y0194492D01*
D21*
X0200685Y0082108D02*
X0199485Y0082808D01*
X0197485Y0080808D01*
X0191485Y0080808D02*
X0184485Y0080808D01*
X0162985Y0079808D02*
X0162385Y0080408D01*
X0162985Y0079808D02*
X0162985Y0078608D01*
X0141985Y0058308D02*
X0141985Y0055808D01*
X0141985Y0053308D01*
X0141985Y0045808D01*
X0149485Y0045808D02*
X0149485Y0053308D01*
X0149485Y0055808D01*
X0154485Y0055808D02*
X0154485Y0053308D01*
X0154485Y0045808D01*
X0161985Y0045808D02*
X0161985Y0053308D01*
X0161985Y0055808D01*
X0214485Y0080808D02*
X0214985Y0080308D01*
X0214985Y0080808D01*
X0153985Y0114608D02*
X0143185Y0114608D01*
X0141985Y0113408D01*
X0131378Y0122601D02*
X0128185Y0120008D01*
X0131378Y0122601D02*
X0153706Y0122601D01*
X0135385Y0129608D02*
X0134785Y0132608D01*
X0091976Y0132908D02*
X0080437Y0132908D01*
X0078839Y0134506D02*
X0091988Y0134506D01*
X0092000Y0136105D02*
X0077240Y0136105D01*
X0075642Y0137703D02*
X0092013Y0137703D01*
X0092025Y0139302D02*
X0074285Y0139302D01*
X0074285Y0139060D02*
X0074285Y0179260D01*
X0072937Y0180608D01*
X0070154Y0183391D01*
X0069985Y0193408D01*
X0070085Y0194508D01*
X0062825Y0202060D01*
X0064985Y0204219D01*
X0064985Y0208196D01*
X0062173Y0211008D01*
X0058197Y0211008D01*
X0056277Y0209088D01*
X0056277Y0209330D01*
X0055185Y0210422D01*
X0055185Y0217208D01*
X0054680Y0219858D01*
X0057047Y0219858D01*
X0055385Y0218196D01*
X0055385Y0216408D01*
X0059985Y0216408D01*
X0059985Y0216008D01*
X0055385Y0216008D01*
X0055385Y0214219D01*
X0058197Y0211408D01*
X0059985Y0211408D01*
X0059985Y0216007D01*
X0060385Y0216007D01*
X0060385Y0211408D01*
X0062173Y0211408D01*
X0064985Y0214219D01*
X0064985Y0216008D01*
X0060385Y0216008D01*
X0060385Y0216408D01*
X0064985Y0216408D01*
X0064985Y0218196D01*
X0063323Y0219858D01*
X0067047Y0219858D01*
X0065385Y0218196D01*
X0065385Y0216408D01*
X0069985Y0216408D01*
X0069985Y0216008D01*
X0065385Y0216008D01*
X0065385Y0214219D01*
X0068197Y0211408D01*
X0069985Y0211408D01*
X0069985Y0216007D01*
X0070385Y0216007D01*
X0070385Y0211408D01*
X0072173Y0211408D01*
X0074985Y0214219D01*
X0074985Y0216008D01*
X0070385Y0216008D01*
X0070385Y0216408D01*
X0074985Y0216408D01*
X0074985Y0218196D01*
X0073323Y0219858D01*
X0077047Y0219858D01*
X0075385Y0218196D01*
X0075385Y0216408D01*
X0079985Y0216408D01*
X0079985Y0216008D01*
X0075385Y0216008D01*
X0075385Y0214219D01*
X0078197Y0211408D01*
X0079985Y0211408D01*
X0079985Y0216007D01*
X0080385Y0216007D01*
X0080385Y0211408D01*
X0082173Y0211408D01*
X0084985Y0214219D01*
X0084985Y0216008D01*
X0080385Y0216008D01*
X0080385Y0216408D01*
X0084985Y0216408D01*
X0084985Y0218196D01*
X0083323Y0219858D01*
X0087047Y0219858D01*
X0085385Y0218196D01*
X0085385Y0216408D01*
X0089985Y0216408D01*
X0089985Y0216008D01*
X0085385Y0216008D01*
X0085385Y0214219D01*
X0088197Y0211408D01*
X0089985Y0211408D01*
X0089985Y0216007D01*
X0090385Y0216007D01*
X0090385Y0211408D01*
X0092173Y0211408D01*
X0094985Y0214219D01*
X0094985Y0216008D01*
X0090385Y0216008D01*
X0090385Y0216408D01*
X0094985Y0216408D01*
X0094985Y0218196D01*
X0093323Y0219858D01*
X0097047Y0219858D01*
X0095385Y0218196D01*
X0095385Y0216408D01*
X0099985Y0216408D01*
X0099985Y0216008D01*
X0095385Y0216008D01*
X0095385Y0214219D01*
X0098197Y0211408D01*
X0099985Y0211408D01*
X0099985Y0216007D01*
X0100385Y0216007D01*
X0100385Y0211408D01*
X0102173Y0211408D01*
X0104985Y0214219D01*
X0104985Y0216008D01*
X0100385Y0216008D01*
X0100385Y0216408D01*
X0104985Y0216408D01*
X0104985Y0218196D01*
X0103323Y0219858D01*
X0106585Y0219858D01*
X0106585Y0219396D01*
X0105385Y0218196D01*
X0105385Y0216408D01*
X0106585Y0216408D01*
X0106585Y0216008D01*
X0105385Y0216008D01*
X0105385Y0214219D01*
X0106585Y0213019D01*
X0106585Y0209396D01*
X0105385Y0208196D01*
X0105385Y0204219D01*
X0105399Y0204205D01*
X0104730Y0203300D01*
X0104065Y0203300D01*
X0104985Y0204219D01*
X0104985Y0208196D01*
X0102173Y0211008D01*
X0098197Y0211008D01*
X0095385Y0208196D01*
X0095385Y0204219D01*
X0096304Y0203300D01*
X0094065Y0203300D01*
X0094985Y0204219D01*
X0094985Y0208196D01*
X0092173Y0211008D01*
X0088197Y0211008D01*
X0085385Y0208196D01*
X0085385Y0204219D01*
X0086304Y0203300D01*
X0084065Y0203300D01*
X0084985Y0204219D01*
X0084985Y0208196D01*
X0082173Y0211008D01*
X0078197Y0211008D01*
X0075385Y0208196D01*
X0075385Y0204219D01*
X0078197Y0201408D01*
X0080543Y0201408D01*
X0080493Y0201357D01*
X0080493Y0199945D01*
X0080249Y0199702D01*
X0079794Y0198602D01*
X0079794Y0197413D01*
X0080249Y0196314D01*
X0080394Y0196169D01*
X0080394Y0189732D01*
X0080758Y0188853D01*
X0089394Y0180217D01*
X0089394Y0163932D01*
X0089758Y0163053D01*
X0089994Y0162817D01*
X0089994Y0162613D01*
X0090449Y0161514D01*
X0091291Y0160672D01*
X0092185Y0160302D01*
X0091959Y0130608D01*
X0082737Y0130608D01*
X0074285Y0139060D01*
X0074285Y0140900D02*
X0092037Y0140900D01*
X0092049Y0142499D02*
X0074285Y0142499D01*
X0074285Y0144097D02*
X0092061Y0144097D01*
X0092073Y0145696D02*
X0074285Y0145696D01*
X0074285Y0147294D02*
X0092086Y0147294D01*
X0092098Y0148893D02*
X0074285Y0148893D01*
X0074285Y0150491D02*
X0092110Y0150491D01*
X0092122Y0152090D02*
X0074285Y0152090D01*
X0074285Y0153688D02*
X0092134Y0153688D01*
X0092146Y0155287D02*
X0074285Y0155287D01*
X0074285Y0156885D02*
X0092159Y0156885D01*
X0092171Y0158484D02*
X0074285Y0158484D01*
X0074285Y0160083D02*
X0092183Y0160083D01*
X0090380Y0161681D02*
X0074285Y0161681D01*
X0074285Y0163280D02*
X0089664Y0163280D01*
X0089394Y0164878D02*
X0074285Y0164878D01*
X0074285Y0166477D02*
X0089394Y0166477D01*
X0089394Y0168075D02*
X0074285Y0168075D01*
X0074285Y0169674D02*
X0089394Y0169674D01*
X0089394Y0171272D02*
X0074285Y0171272D01*
X0074285Y0172871D02*
X0089394Y0172871D01*
X0089394Y0174469D02*
X0074285Y0174469D01*
X0074285Y0176068D02*
X0089394Y0176068D01*
X0089394Y0177666D02*
X0074285Y0177666D01*
X0074280Y0179265D02*
X0089394Y0179265D01*
X0088748Y0180863D02*
X0072682Y0180863D01*
X0071083Y0182462D02*
X0087150Y0182462D01*
X0085551Y0184060D02*
X0070143Y0184060D01*
X0070116Y0185659D02*
X0083953Y0185659D01*
X0082354Y0187257D02*
X0070089Y0187257D01*
X0070062Y0188856D02*
X0080757Y0188856D01*
X0080394Y0190454D02*
X0070035Y0190454D01*
X0070008Y0192053D02*
X0080394Y0192053D01*
X0080394Y0193651D02*
X0070007Y0193651D01*
X0069371Y0195250D02*
X0080394Y0195250D01*
X0080028Y0196848D02*
X0067835Y0196848D01*
X0066298Y0198447D02*
X0079794Y0198447D01*
X0080493Y0200045D02*
X0064761Y0200045D01*
X0063225Y0201644D02*
X0067960Y0201644D01*
X0068197Y0201408D02*
X0072173Y0201408D01*
X0074985Y0204219D01*
X0074985Y0208196D01*
X0072173Y0211008D01*
X0068197Y0211008D01*
X0065385Y0208196D01*
X0065385Y0204219D01*
X0068197Y0201408D01*
X0066362Y0203242D02*
X0064008Y0203242D01*
X0064985Y0204841D02*
X0065385Y0204841D01*
X0065385Y0206439D02*
X0064985Y0206439D01*
X0064985Y0208038D02*
X0065385Y0208038D01*
X0066825Y0209636D02*
X0063544Y0209636D01*
X0063599Y0212833D02*
X0066771Y0212833D01*
X0065385Y0214432D02*
X0064985Y0214432D01*
X0064985Y0217629D02*
X0065385Y0217629D01*
X0066416Y0219227D02*
X0063953Y0219227D01*
X0060385Y0216030D02*
X0069985Y0216030D01*
X0070385Y0216030D02*
X0079985Y0216030D01*
X0080385Y0216030D02*
X0089985Y0216030D01*
X0090385Y0216030D02*
X0099985Y0216030D01*
X0100385Y0216030D02*
X0106585Y0216030D01*
X0105385Y0214432D02*
X0104985Y0214432D01*
X0103599Y0212833D02*
X0106585Y0212833D01*
X0106585Y0211235D02*
X0055185Y0211235D01*
X0055185Y0212833D02*
X0056771Y0212833D01*
X0055385Y0214432D02*
X0055185Y0214432D01*
X0055185Y0216030D02*
X0059985Y0216030D01*
X0059985Y0214432D02*
X0060385Y0214432D01*
X0060385Y0212833D02*
X0059985Y0212833D01*
X0056825Y0209636D02*
X0055971Y0209636D01*
X0055385Y0217629D02*
X0055104Y0217629D01*
X0054800Y0219227D02*
X0056416Y0219227D01*
X0069985Y0214432D02*
X0070385Y0214432D01*
X0070385Y0212833D02*
X0069985Y0212833D01*
X0073599Y0212833D02*
X0076771Y0212833D01*
X0075385Y0214432D02*
X0074985Y0214432D01*
X0074985Y0217629D02*
X0075385Y0217629D01*
X0076416Y0219227D02*
X0073953Y0219227D01*
X0079985Y0214432D02*
X0080385Y0214432D01*
X0080385Y0212833D02*
X0079985Y0212833D01*
X0083599Y0212833D02*
X0086771Y0212833D01*
X0085385Y0214432D02*
X0084985Y0214432D01*
X0084985Y0217629D02*
X0085385Y0217629D01*
X0086416Y0219227D02*
X0083953Y0219227D01*
X0089985Y0214432D02*
X0090385Y0214432D01*
X0090385Y0212833D02*
X0089985Y0212833D01*
X0093599Y0212833D02*
X0096771Y0212833D01*
X0095385Y0214432D02*
X0094985Y0214432D01*
X0094985Y0217629D02*
X0095385Y0217629D01*
X0096416Y0219227D02*
X0093953Y0219227D01*
X0099985Y0214432D02*
X0100385Y0214432D01*
X0100385Y0212833D02*
X0099985Y0212833D01*
X0096825Y0209636D02*
X0093544Y0209636D01*
X0094985Y0208038D02*
X0095385Y0208038D01*
X0095385Y0206439D02*
X0094985Y0206439D01*
X0094985Y0204841D02*
X0095385Y0204841D01*
X0103544Y0209636D02*
X0106585Y0209636D01*
X0105385Y0208038D02*
X0104985Y0208038D01*
X0104985Y0206439D02*
X0105385Y0206439D01*
X0105385Y0204841D02*
X0104985Y0204841D01*
X0086825Y0209636D02*
X0083544Y0209636D01*
X0084985Y0208038D02*
X0085385Y0208038D01*
X0085385Y0206439D02*
X0084985Y0206439D01*
X0084985Y0204841D02*
X0085385Y0204841D01*
X0077960Y0201644D02*
X0072409Y0201644D01*
X0074008Y0203242D02*
X0076362Y0203242D01*
X0075385Y0204841D02*
X0074985Y0204841D01*
X0074985Y0206439D02*
X0075385Y0206439D01*
X0075385Y0208038D02*
X0074985Y0208038D01*
X0073544Y0209636D02*
X0076825Y0209636D01*
X0103953Y0219227D02*
X0106416Y0219227D01*
X0105385Y0217629D02*
X0104985Y0217629D01*
X0130585Y0185208D02*
X0135385Y0183008D01*
X0135985Y0182408D01*
X0066585Y0147754D02*
X0063985Y0150354D01*
X0061785Y0150354D01*
X0053438Y0150354D01*
X0053185Y0150608D01*
X0052785Y0141608D02*
X0053885Y0141408D01*
X0066585Y0147754D02*
X0066585Y0135008D01*
X0082036Y0131309D02*
X0091964Y0131309D01*
X0041785Y0108008D02*
X0041785Y0105008D01*
X0025585Y0080408D02*
X0025585Y0066008D01*
D22*
X0090385Y0126608D02*
X0092785Y0125408D01*
X0090385Y0126608D02*
X0080785Y0126608D01*
X0069985Y0137408D01*
X0069985Y0177008D01*
X0068085Y0178708D01*
X0066785Y0178708D01*
X0056985Y0178708D01*
X0054485Y0181208D02*
X0066985Y0181208D01*
X0069085Y0181208D01*
X0071985Y0178308D01*
X0071985Y0138108D01*
X0081785Y0128308D01*
X0095985Y0128308D01*
X0063985Y0150354D02*
X0061785Y0150354D01*
X0027585Y0137408D02*
X0024585Y0139808D01*
X0024785Y0159008D01*
X0025585Y0160208D01*
X0025585Y0161408D01*
X0026185Y0133308D02*
X0026185Y0130808D01*
X0138385Y0119408D02*
X0140785Y0117008D01*
X0163585Y0117008D01*
X0164785Y0115808D01*
X0165985Y0119408D02*
X0141985Y0119408D01*
X0171985Y0100808D02*
X0171985Y0160808D01*
X0191985Y0180808D01*
X0191985Y0210808D01*
X0188285Y0214508D01*
X0184485Y0214508D01*
X0184485Y0218308D02*
X0189485Y0218308D01*
X0194485Y0213308D01*
X0194485Y0210808D01*
X0194485Y0180808D01*
X0174485Y0160808D01*
X0174485Y0100808D01*
X0174485Y0093308D01*
X0176985Y0090808D01*
X0174485Y0088308D02*
X0171985Y0090808D01*
X0171985Y0100808D01*
X0169485Y0095808D02*
X0169485Y0150808D01*
X0169485Y0160808D01*
X0189485Y0180808D01*
X0189485Y0208308D01*
X0186985Y0210808D01*
X0206985Y0185808D02*
X0189485Y0168308D01*
X0186985Y0168308D01*
X0161985Y0158308D02*
X0159485Y0160808D01*
X0156985Y0160808D01*
X0141385Y0160808D01*
X0139485Y0158308D02*
X0154485Y0158308D01*
X0156985Y0158308D01*
X0159485Y0155808D01*
X0139485Y0158308D02*
X0136985Y0160808D01*
X0136985Y0165808D01*
X0236485Y0212208D02*
X0236985Y0212708D01*
X0237300Y0212208D02*
X0236485Y0212208D01*
X0237300Y0212208D02*
X0242300Y0212208D01*
X0256485Y0212208D02*
X0256985Y0212708D01*
X0257300Y0212208D02*
X0256485Y0212208D01*
X0257300Y0212208D02*
X0262300Y0212208D01*
X0276485Y0212208D02*
X0276985Y0212708D01*
X0277300Y0212708D01*
X0277300Y0212208D01*
X0276485Y0212208D01*
X0277300Y0212208D02*
X0282300Y0212208D01*
X0296485Y0212208D02*
X0296985Y0212708D01*
X0297300Y0212208D02*
X0302300Y0212208D01*
X0297300Y0212208D01*
X0296485Y0212208D01*
X0316485Y0212208D02*
X0316985Y0212708D01*
X0317300Y0212208D02*
X0322300Y0212208D01*
X0317300Y0212208D01*
X0316485Y0212208D01*
X0336485Y0212208D02*
X0336985Y0212708D01*
X0337300Y0212208D02*
X0339485Y0212208D01*
X0337300Y0212208D01*
X0336485Y0212208D01*
X0339485Y0212208D02*
X0342300Y0212208D01*
X0356985Y0212708D02*
X0358985Y0212208D01*
X0359485Y0212208D01*
X0357300Y0211861D01*
X0357300Y0212208D01*
X0359485Y0212208D02*
X0362300Y0212208D01*
X0376985Y0212708D02*
X0378985Y0212208D01*
X0382300Y0212208D01*
X0377300Y0212208D01*
X0350785Y0166208D02*
X0347185Y0166208D01*
X0343585Y0162608D01*
X0331585Y0150608D02*
X0320785Y0150608D01*
X0302785Y0166208D02*
X0299185Y0162608D01*
X0302785Y0166208D02*
X0305185Y0166208D01*
X0366385Y0150608D02*
X0374785Y0150608D01*
X0375985Y0149408D01*
X0330685Y0109608D02*
X0322185Y0118108D01*
X0321985Y0113308D02*
X0324485Y0110808D01*
X0324485Y0103308D01*
X0330685Y0103308D02*
X0330685Y0109608D01*
X0333985Y0106208D02*
X0333985Y0101408D01*
X0332785Y0100208D01*
X0332785Y0097808D01*
X0332785Y0096608D01*
X0169485Y0095808D02*
X0169485Y0088308D01*
D23*
X0165985Y0094208D02*
X0165985Y0073308D01*
X0150385Y0079808D02*
X0139585Y0089408D01*
X0129985Y0089408D01*
X0135985Y0084608D02*
X0135985Y0081008D01*
X0135985Y0077408D01*
X0139585Y0073808D02*
X0143185Y0078608D01*
X0143185Y0069008D02*
X0141985Y0067808D01*
X0141985Y0091808D02*
X0143185Y0093008D01*
X0155185Y0096608D02*
X0163585Y0096608D01*
X0165985Y0094208D01*
X0237300Y0211861D02*
X0237300Y0212208D01*
X0257300Y0212208D02*
X0257300Y0211861D01*
D24*
X0187893Y0207648D02*
X0187893Y0181508D01*
X0186200Y0179774D01*
X0179077Y0172651D01*
X0179077Y0174343D01*
X0178667Y0175333D01*
X0177910Y0176090D01*
X0176920Y0176500D01*
X0175849Y0176500D01*
X0174860Y0176090D01*
X0174102Y0175333D01*
X0173693Y0174343D01*
X0173693Y0173823D01*
X0165460Y0165590D01*
X0164161Y0164291D01*
X0164060Y0164191D01*
X0162856Y0165395D01*
X0162856Y0165454D01*
X0162841Y0165469D01*
X0162841Y0179183D01*
X0163047Y0179390D01*
X0163047Y0181281D01*
X0161710Y0182618D01*
X0159819Y0182618D01*
X0158482Y0181281D01*
X0158482Y0179390D01*
X0158688Y0179183D01*
X0158688Y0165469D01*
X0158672Y0165454D01*
X0158672Y0163661D01*
X0159934Y0162400D01*
X0143021Y0162400D01*
X0142330Y0163090D01*
X0140439Y0163090D01*
X0139102Y0161753D01*
X0139102Y0160942D01*
X0138577Y0161467D01*
X0138577Y0164158D01*
X0139277Y0164858D01*
X0139277Y0166757D01*
X0137934Y0168100D01*
X0136035Y0168100D01*
X0134693Y0166757D01*
X0134693Y0164858D01*
X0135393Y0164158D01*
X0135393Y0160148D01*
X0137893Y0157648D01*
X0138825Y0156715D01*
X0140302Y0156715D01*
X0140302Y0156608D01*
X0132013Y0156608D01*
X0130930Y0157690D01*
X0129039Y0157690D01*
X0128439Y0157090D01*
X0117530Y0157090D01*
X0116930Y0157690D01*
X0115039Y0157690D01*
X0113957Y0156608D01*
X0090585Y0156608D01*
X0092385Y0159608D01*
X0089985Y0162008D01*
X0088273Y0182339D01*
X0090102Y0180511D01*
X0090102Y0163711D01*
X0090702Y0163111D01*
X0090702Y0162262D01*
X0092039Y0160925D01*
X0093930Y0160925D01*
X0095267Y0162262D01*
X0095267Y0164153D01*
X0093930Y0165490D01*
X0093467Y0165490D01*
X0093467Y0181905D01*
X0092482Y0182890D01*
X0087836Y0187536D01*
X0087500Y0191525D01*
X0087702Y0191525D01*
X0087702Y0189862D01*
X0089039Y0188525D01*
X0090102Y0188525D01*
X0090102Y0187462D01*
X0091439Y0186125D01*
X0099239Y0186125D01*
X0099839Y0185525D01*
X0101730Y0185525D01*
X0103067Y0186862D01*
X0103067Y0188525D01*
X0104130Y0188525D01*
X0105467Y0189862D01*
X0105467Y0191525D01*
X0105930Y0191525D01*
X0107267Y0192862D01*
X0107267Y0194753D01*
X0105930Y0196090D01*
X0104039Y0196090D01*
X0103439Y0195490D01*
X0089730Y0195490D01*
X0089130Y0196090D01*
X0087239Y0196090D01*
X0087125Y0195976D01*
X0086835Y0199423D01*
X0105541Y0199423D01*
X0106239Y0198725D01*
X0108130Y0198725D01*
X0109467Y0200062D01*
X0109467Y0201953D01*
X0109305Y0202115D01*
X0111880Y0202115D01*
X0114277Y0204513D01*
X0114277Y0207903D01*
X0111880Y0210300D01*
X0108490Y0210300D01*
X0106093Y0207903D01*
X0106093Y0204513D01*
X0107315Y0203290D01*
X0106239Y0203290D01*
X0105541Y0202592D01*
X0102356Y0202592D01*
X0104277Y0204513D01*
X0104277Y0207903D01*
X0101880Y0210300D01*
X0098490Y0210300D01*
X0096093Y0207903D01*
X0096093Y0204513D01*
X0098013Y0202592D01*
X0092356Y0202592D01*
X0094277Y0204513D01*
X0094277Y0207903D01*
X0091880Y0210300D01*
X0088490Y0210300D01*
X0086119Y0207929D01*
X0085089Y0220166D01*
X0087790Y0220166D01*
X0085693Y0218068D01*
X0085693Y0216700D01*
X0089693Y0216700D01*
X0089693Y0215715D01*
X0090677Y0215715D01*
X0090677Y0211715D01*
X0092045Y0211715D01*
X0094677Y0214347D01*
X0094677Y0215715D01*
X0090677Y0215715D01*
X0090677Y0216700D01*
X0094677Y0216700D01*
X0094677Y0218068D01*
X0092579Y0220166D01*
X0097790Y0220166D01*
X0095693Y0218068D01*
X0095693Y0216700D01*
X0099693Y0216700D01*
X0099693Y0215715D01*
X0100677Y0215715D01*
X0100677Y0211715D01*
X0102045Y0211715D01*
X0104677Y0214347D01*
X0104677Y0215715D01*
X0100677Y0215715D01*
X0100677Y0216700D01*
X0104677Y0216700D01*
X0104677Y0218068D01*
X0102579Y0220166D01*
X0107790Y0220166D01*
X0105693Y0218068D01*
X0105693Y0216700D01*
X0109693Y0216700D01*
X0109693Y0215715D01*
X0110677Y0215715D01*
X0110677Y0211715D01*
X0112045Y0211715D01*
X0114677Y0214347D01*
X0114677Y0215715D01*
X0110677Y0215715D01*
X0110677Y0216700D01*
X0114677Y0216700D01*
X0114677Y0218068D01*
X0112579Y0220166D01*
X0183101Y0220166D01*
X0182193Y0219257D01*
X0182193Y0217358D01*
X0183143Y0216408D01*
X0182193Y0215457D01*
X0182193Y0213558D01*
X0183535Y0212215D01*
X0185151Y0212215D01*
X0184693Y0211757D01*
X0184693Y0209858D01*
X0186035Y0208515D01*
X0187025Y0208515D01*
X0187893Y0207648D01*
X0187893Y0207619D02*
X0114277Y0207619D01*
X0114277Y0206636D02*
X0187893Y0206636D01*
X0187893Y0205653D02*
X0132767Y0205653D01*
X0132730Y0205690D02*
X0130839Y0205690D01*
X0130239Y0205090D01*
X0126130Y0205090D01*
X0125530Y0205690D01*
X0123639Y0205690D01*
X0122302Y0204353D01*
X0122302Y0202462D01*
X0123639Y0201125D01*
X0125530Y0201125D01*
X0126130Y0201725D01*
X0130239Y0201725D01*
X0130839Y0201125D01*
X0132730Y0201125D01*
X0134067Y0202462D01*
X0134067Y0204353D01*
X0132730Y0205690D01*
X0133750Y0204670D02*
X0187893Y0204670D01*
X0187893Y0203688D02*
X0134067Y0203688D01*
X0134067Y0202705D02*
X0187893Y0202705D01*
X0187893Y0201722D02*
X0133328Y0201722D01*
X0130242Y0201722D02*
X0126128Y0201722D01*
X0123042Y0201722D02*
X0109467Y0201722D01*
X0109467Y0200739D02*
X0187893Y0200739D01*
X0187893Y0199757D02*
X0109162Y0199757D01*
X0108179Y0198774D02*
X0187893Y0198774D01*
X0187893Y0197791D02*
X0086973Y0197791D01*
X0087055Y0196808D02*
X0187893Y0196808D01*
X0187893Y0195826D02*
X0106195Y0195826D01*
X0107178Y0194843D02*
X0187893Y0194843D01*
X0187893Y0193860D02*
X0107267Y0193860D01*
X0107267Y0192877D02*
X0187893Y0192877D01*
X0187893Y0191895D02*
X0106300Y0191895D01*
X0105467Y0190912D02*
X0187893Y0190912D01*
X0187893Y0189929D02*
X0105467Y0189929D01*
X0104552Y0188946D02*
X0187893Y0188946D01*
X0187893Y0187964D02*
X0119257Y0187964D01*
X0118930Y0188290D02*
X0117039Y0188290D01*
X0115702Y0186953D01*
X0115702Y0185062D01*
X0116612Y0184152D01*
X0116612Y0170463D01*
X0116012Y0169863D01*
X0116012Y0167972D01*
X0117349Y0166635D01*
X0119240Y0166635D01*
X0120578Y0167972D01*
X0120578Y0169863D01*
X0119978Y0170463D01*
X0119978Y0184772D01*
X0120267Y0185062D01*
X0120267Y0186953D01*
X0118930Y0188290D01*
X0120240Y0186981D02*
X0187893Y0186981D01*
X0187893Y0185998D02*
X0120267Y0185998D01*
X0120221Y0185015D02*
X0187893Y0185015D01*
X0187893Y0184032D02*
X0119978Y0184032D01*
X0119978Y0183050D02*
X0187893Y0183050D01*
X0187893Y0182067D02*
X0162261Y0182067D01*
X0163047Y0181084D02*
X0187479Y0181084D01*
X0186519Y0180101D02*
X0163047Y0180101D01*
X0162841Y0179119D02*
X0185544Y0179119D01*
X0184561Y0178136D02*
X0162841Y0178136D01*
X0162841Y0177153D02*
X0183579Y0177153D01*
X0182596Y0176170D02*
X0177715Y0176170D01*
X0178727Y0175188D02*
X0181613Y0175188D01*
X0180630Y0174205D02*
X0179077Y0174205D01*
X0179077Y0173222D02*
X0179648Y0173222D01*
X0175054Y0176170D02*
X0162841Y0176170D01*
X0162841Y0175188D02*
X0174042Y0175188D01*
X0173693Y0174205D02*
X0162841Y0174205D01*
X0162841Y0173222D02*
X0173092Y0173222D01*
X0172109Y0172239D02*
X0162841Y0172239D01*
X0162841Y0171257D02*
X0171126Y0171257D01*
X0170144Y0170274D02*
X0162841Y0170274D01*
X0162841Y0169291D02*
X0169161Y0169291D01*
X0168178Y0168308D02*
X0162841Y0168308D01*
X0162841Y0167325D02*
X0167195Y0167325D01*
X0166213Y0166343D02*
X0162841Y0166343D01*
X0162891Y0165360D02*
X0165230Y0165360D01*
X0164247Y0164377D02*
X0163874Y0164377D01*
X0159922Y0162412D02*
X0143009Y0162412D01*
X0139761Y0162412D02*
X0138577Y0162412D01*
X0138577Y0163394D02*
X0158939Y0163394D01*
X0158672Y0164377D02*
X0138796Y0164377D01*
X0139277Y0165360D02*
X0158672Y0165360D01*
X0158688Y0166343D02*
X0139277Y0166343D01*
X0138708Y0167325D02*
X0158688Y0167325D01*
X0158688Y0168308D02*
X0120578Y0168308D01*
X0120578Y0169291D02*
X0158688Y0169291D01*
X0158688Y0170274D02*
X0120167Y0170274D01*
X0119978Y0171257D02*
X0158688Y0171257D01*
X0158688Y0172239D02*
X0119978Y0172239D01*
X0119978Y0173222D02*
X0158688Y0173222D01*
X0158688Y0174205D02*
X0119978Y0174205D01*
X0119978Y0175188D02*
X0158688Y0175188D01*
X0158688Y0176170D02*
X0119978Y0176170D01*
X0119978Y0177153D02*
X0158688Y0177153D01*
X0158688Y0178136D02*
X0119978Y0178136D01*
X0119978Y0179119D02*
X0158688Y0179119D01*
X0158482Y0180101D02*
X0119978Y0180101D01*
X0119978Y0181084D02*
X0158482Y0181084D01*
X0159268Y0182067D02*
X0119978Y0182067D01*
X0116612Y0182067D02*
X0093305Y0182067D01*
X0093467Y0181084D02*
X0116612Y0181084D01*
X0116612Y0180101D02*
X0093467Y0180101D01*
X0093467Y0179119D02*
X0116612Y0179119D01*
X0116612Y0178136D02*
X0093467Y0178136D01*
X0093467Y0177153D02*
X0116612Y0177153D01*
X0116612Y0176170D02*
X0093467Y0176170D01*
X0093467Y0175188D02*
X0116612Y0175188D01*
X0116612Y0174205D02*
X0093467Y0174205D01*
X0093467Y0173222D02*
X0116612Y0173222D01*
X0116612Y0172239D02*
X0093467Y0172239D01*
X0093467Y0171257D02*
X0116612Y0171257D01*
X0116423Y0170274D02*
X0093467Y0170274D01*
X0093467Y0169291D02*
X0116012Y0169291D01*
X0116012Y0168308D02*
X0093467Y0168308D01*
X0093467Y0167325D02*
X0116659Y0167325D01*
X0119931Y0167325D02*
X0135261Y0167325D01*
X0134693Y0166343D02*
X0093467Y0166343D01*
X0094061Y0165360D02*
X0134693Y0165360D01*
X0135174Y0164377D02*
X0095043Y0164377D01*
X0095267Y0163394D02*
X0135393Y0163394D01*
X0135393Y0162412D02*
X0095267Y0162412D01*
X0094434Y0161429D02*
X0135393Y0161429D01*
X0135393Y0161343D02*
X0135393Y0160148D01*
X0137893Y0157648D01*
X0138825Y0156715D01*
X0140302Y0156715D01*
X0140302Y0155062D01*
X0141004Y0154360D01*
X0132166Y0154360D01*
X0132267Y0154462D01*
X0132267Y0156353D01*
X0130930Y0157690D01*
X0129039Y0157690D01*
X0128439Y0157090D01*
X0117530Y0157090D01*
X0116930Y0157690D01*
X0115039Y0157690D01*
X0113702Y0156353D01*
X0113702Y0154462D01*
X0114338Y0153826D01*
X0113759Y0153247D01*
X0113368Y0152303D01*
X0113368Y0151281D01*
X0113759Y0150337D01*
X0114482Y0149614D01*
X0115426Y0149223D01*
X0132093Y0149223D01*
X0131670Y0148800D01*
X0131670Y0146909D01*
X0133007Y0145572D01*
X0133902Y0145572D01*
X0133902Y0144262D01*
X0135239Y0142925D01*
X0137130Y0142925D01*
X0137730Y0143525D01*
X0156288Y0143525D01*
X0156592Y0143221D01*
X0157577Y0142235D01*
X0159650Y0142235D01*
X0160250Y0141635D01*
X0162141Y0141635D01*
X0163478Y0142972D01*
X0163478Y0144863D01*
X0162240Y0146102D01*
X0163047Y0146909D01*
X0163047Y0148800D01*
X0162281Y0149566D01*
X0164485Y0151178D01*
X0164485Y0121149D01*
X0164335Y0121000D01*
X0155333Y0121000D01*
X0155989Y0121656D01*
X0155989Y0123547D01*
X0154652Y0124884D01*
X0152760Y0124884D01*
X0152370Y0124493D01*
X0131476Y0124493D01*
X0130794Y0124564D01*
X0130707Y0124493D01*
X0130595Y0124493D01*
X0130110Y0124008D01*
X0127994Y0122290D01*
X0127239Y0122290D01*
X0125902Y0120953D01*
X0125902Y0119062D01*
X0127239Y0117725D01*
X0129130Y0117725D01*
X0130467Y0119062D01*
X0130467Y0119424D01*
X0132050Y0120709D01*
X0136445Y0120709D01*
X0136093Y0120357D01*
X0136093Y0118458D01*
X0137435Y0117115D01*
X0138425Y0117115D01*
X0139193Y0116348D01*
X0140125Y0115415D01*
X0140751Y0115415D01*
X0139693Y0114357D01*
X0139693Y0112458D01*
X0141035Y0111115D01*
X0142934Y0111115D01*
X0144277Y0112458D01*
X0144277Y0112715D01*
X0152635Y0112715D01*
X0153035Y0112315D01*
X0154934Y0112315D01*
X0156277Y0113658D01*
X0156277Y0115415D01*
X0162493Y0115415D01*
X0162493Y0114858D01*
X0163835Y0113515D01*
X0164485Y0113515D01*
X0164485Y0098101D01*
X0164286Y0098300D01*
X0156734Y0098300D01*
X0156134Y0098900D01*
X0154235Y0098900D01*
X0152893Y0097557D01*
X0152893Y0095658D01*
X0154235Y0094315D01*
X0156134Y0094315D01*
X0156734Y0094915D01*
X0162884Y0094915D01*
X0164293Y0093507D01*
X0164293Y0074857D01*
X0163693Y0074257D01*
X0163693Y0072358D01*
X0164485Y0071566D01*
X0164485Y0053308D01*
X0163877Y0053308D01*
X0163877Y0054091D01*
X0162768Y0055200D01*
X0161201Y0055200D01*
X0160093Y0054091D01*
X0160093Y0053308D01*
X0156377Y0053308D01*
X0156377Y0054091D01*
X0155268Y0055200D01*
X0153701Y0055200D01*
X0152593Y0054091D01*
X0152593Y0053308D01*
X0151377Y0053308D01*
X0151377Y0054091D01*
X0150268Y0055200D01*
X0148701Y0055200D01*
X0147593Y0054091D01*
X0147593Y0053308D01*
X0143877Y0053308D01*
X0143877Y0054091D01*
X0142768Y0055200D01*
X0141201Y0055200D01*
X0140093Y0054091D01*
X0140093Y0053308D01*
X0139485Y0053308D01*
X0139485Y0071515D01*
X0140534Y0071515D01*
X0141877Y0072858D01*
X0141877Y0074044D01*
X0143581Y0076315D01*
X0144134Y0076315D01*
X0145477Y0077658D01*
X0145477Y0079557D01*
X0144134Y0080900D01*
X0142235Y0080900D01*
X0140893Y0079557D01*
X0140893Y0078372D01*
X0139485Y0076494D01*
X0139485Y0080808D01*
X0137677Y0080808D01*
X0137677Y0083058D01*
X0138277Y0083658D01*
X0138277Y0085557D01*
X0136934Y0086900D01*
X0135035Y0086900D01*
X0133693Y0085557D01*
X0133693Y0083658D01*
X0134293Y0083058D01*
X0134293Y0080808D01*
X0114485Y0080808D01*
X0114485Y0090479D01*
X0114867Y0090862D01*
X0114867Y0092753D01*
X0114485Y0093136D01*
X0114485Y0100175D01*
X0115450Y0100175D01*
X0116365Y0101090D01*
X0117280Y0100175D01*
X0119171Y0100175D01*
X0120508Y0101512D01*
X0120508Y0103403D01*
X0119908Y0104003D01*
X0119908Y0114166D01*
X0120508Y0114766D01*
X0120508Y0116657D01*
X0119171Y0117994D01*
X0117280Y0117994D01*
X0116187Y0116901D01*
X0116187Y0117119D01*
X0116787Y0117719D01*
X0116787Y0119610D01*
X0115450Y0120947D01*
X0113559Y0120947D01*
X0112222Y0119610D01*
X0112222Y0119008D01*
X0092785Y0119008D01*
X0092805Y0123115D01*
X0093734Y0123115D01*
X0095077Y0124458D01*
X0095077Y0126015D01*
X0096934Y0126015D01*
X0098277Y0127358D01*
X0098277Y0129257D01*
X0096934Y0130600D01*
X0095035Y0130600D01*
X0094335Y0129900D01*
X0092838Y0129900D01*
X0092985Y0160208D01*
X0118585Y0160208D01*
X0135393Y0161343D01*
X0135393Y0160446D02*
X0091546Y0160446D01*
X0091535Y0161429D02*
X0090563Y0161429D01*
X0090702Y0162412D02*
X0089951Y0162412D01*
X0089868Y0163394D02*
X0090418Y0163394D01*
X0090102Y0164377D02*
X0089785Y0164377D01*
X0089703Y0165360D02*
X0090102Y0165360D01*
X0090102Y0166343D02*
X0089620Y0166343D01*
X0089537Y0167325D02*
X0090102Y0167325D01*
X0090102Y0168308D02*
X0089454Y0168308D01*
X0089372Y0169291D02*
X0090102Y0169291D01*
X0090102Y0170274D02*
X0089289Y0170274D01*
X0089206Y0171257D02*
X0090102Y0171257D01*
X0090102Y0172239D02*
X0089123Y0172239D01*
X0089041Y0173222D02*
X0090102Y0173222D01*
X0090102Y0174205D02*
X0088958Y0174205D01*
X0088875Y0175188D02*
X0090102Y0175188D01*
X0090102Y0176170D02*
X0088793Y0176170D01*
X0088710Y0177153D02*
X0090102Y0177153D01*
X0090102Y0178136D02*
X0088627Y0178136D01*
X0088544Y0179119D02*
X0090102Y0179119D01*
X0090102Y0180101D02*
X0088462Y0180101D01*
X0088379Y0181084D02*
X0089528Y0181084D01*
X0088546Y0182067D02*
X0088296Y0182067D01*
X0090357Y0185015D02*
X0115749Y0185015D01*
X0115702Y0185998D02*
X0102203Y0185998D01*
X0103067Y0186981D02*
X0115730Y0186981D01*
X0116712Y0187964D02*
X0103067Y0187964D01*
X0099366Y0185998D02*
X0089374Y0185998D01*
X0088391Y0186981D02*
X0090583Y0186981D01*
X0090102Y0187964D02*
X0087800Y0187964D01*
X0087717Y0188946D02*
X0088618Y0188946D01*
X0087702Y0189929D02*
X0087634Y0189929D01*
X0087702Y0190912D02*
X0087552Y0190912D01*
X0089395Y0195826D02*
X0103775Y0195826D01*
X0106190Y0198774D02*
X0086890Y0198774D01*
X0083385Y0201008D02*
X0082785Y0200408D01*
X0082785Y0198008D01*
X0083385Y0201008D02*
X0107385Y0201008D01*
X0107185Y0201008D01*
X0105654Y0202705D02*
X0102469Y0202705D01*
X0103452Y0203688D02*
X0106917Y0203688D01*
X0106093Y0204670D02*
X0104277Y0204670D01*
X0104277Y0205653D02*
X0106093Y0205653D01*
X0106093Y0206636D02*
X0104277Y0206636D01*
X0104277Y0207619D02*
X0106093Y0207619D01*
X0106792Y0208602D02*
X0103578Y0208602D01*
X0102595Y0209584D02*
X0107774Y0209584D01*
X0108324Y0211715D02*
X0109693Y0211715D01*
X0109693Y0215715D01*
X0105693Y0215715D01*
X0105693Y0214347D01*
X0108324Y0211715D01*
X0107507Y0212533D02*
X0102863Y0212533D01*
X0103845Y0213515D02*
X0106524Y0213515D01*
X0105693Y0214498D02*
X0104677Y0214498D01*
X0104677Y0215481D02*
X0105693Y0215481D01*
X0105693Y0217446D02*
X0104677Y0217446D01*
X0104316Y0218429D02*
X0106054Y0218429D01*
X0107036Y0219412D02*
X0103333Y0219412D01*
X0100677Y0216464D02*
X0109693Y0216464D01*
X0109693Y0215481D02*
X0110677Y0215481D01*
X0110677Y0216464D02*
X0183087Y0216464D01*
X0182216Y0215481D02*
X0114677Y0215481D01*
X0114677Y0214498D02*
X0182193Y0214498D01*
X0182235Y0213515D02*
X0113845Y0213515D01*
X0112863Y0212533D02*
X0183218Y0212533D01*
X0184693Y0211550D02*
X0085815Y0211550D01*
X0085732Y0212533D02*
X0087507Y0212533D01*
X0088324Y0211715D02*
X0089693Y0211715D01*
X0089693Y0215715D01*
X0085693Y0215715D01*
X0085693Y0214347D01*
X0088324Y0211715D01*
X0089693Y0212533D02*
X0090677Y0212533D01*
X0090677Y0213515D02*
X0089693Y0213515D01*
X0089693Y0214498D02*
X0090677Y0214498D01*
X0090677Y0215481D02*
X0089693Y0215481D01*
X0089693Y0216464D02*
X0085401Y0216464D01*
X0085318Y0217446D02*
X0085693Y0217446D01*
X0086054Y0218429D02*
X0085235Y0218429D01*
X0085153Y0219412D02*
X0087036Y0219412D01*
X0090677Y0216464D02*
X0099693Y0216464D01*
X0099693Y0215715D02*
X0095693Y0215715D01*
X0095693Y0214347D01*
X0098324Y0211715D01*
X0099693Y0211715D01*
X0099693Y0215715D01*
X0099693Y0215481D02*
X0100677Y0215481D01*
X0100677Y0214498D02*
X0099693Y0214498D01*
X0099693Y0213515D02*
X0100677Y0213515D01*
X0100677Y0212533D02*
X0099693Y0212533D01*
X0097507Y0212533D02*
X0092863Y0212533D01*
X0093845Y0213515D02*
X0096524Y0213515D01*
X0095693Y0214498D02*
X0094677Y0214498D01*
X0094677Y0215481D02*
X0095693Y0215481D01*
X0095693Y0217446D02*
X0094677Y0217446D01*
X0094316Y0218429D02*
X0096054Y0218429D01*
X0097036Y0219412D02*
X0093333Y0219412D01*
X0085693Y0215481D02*
X0085484Y0215481D01*
X0085566Y0214498D02*
X0085693Y0214498D01*
X0085649Y0213515D02*
X0086524Y0213515D01*
X0085897Y0210567D02*
X0184693Y0210567D01*
X0184966Y0209584D02*
X0112595Y0209584D01*
X0113578Y0208602D02*
X0185949Y0208602D01*
X0182193Y0217446D02*
X0114677Y0217446D01*
X0114316Y0218429D02*
X0182193Y0218429D01*
X0182348Y0219412D02*
X0113333Y0219412D01*
X0110677Y0214498D02*
X0109693Y0214498D01*
X0109693Y0213515D02*
X0110677Y0213515D01*
X0110677Y0212533D02*
X0109693Y0212533D01*
X0114277Y0205653D02*
X0123602Y0205653D01*
X0122619Y0204670D02*
X0114277Y0204670D01*
X0113452Y0203688D02*
X0122302Y0203688D01*
X0122302Y0202705D02*
X0112469Y0202705D01*
X0125567Y0205653D02*
X0130802Y0205653D01*
X0097900Y0202705D02*
X0092469Y0202705D01*
X0093452Y0203688D02*
X0096917Y0203688D01*
X0096093Y0204670D02*
X0094277Y0204670D01*
X0094277Y0205653D02*
X0096093Y0205653D01*
X0096093Y0206636D02*
X0094277Y0206636D01*
X0094277Y0207619D02*
X0096093Y0207619D01*
X0096792Y0208602D02*
X0093578Y0208602D01*
X0092595Y0209584D02*
X0097774Y0209584D01*
X0087774Y0209584D02*
X0085980Y0209584D01*
X0086063Y0208602D02*
X0086792Y0208602D01*
X0053985Y0208381D02*
X0053985Y0201608D01*
X0052785Y0200408D01*
X0052785Y0195608D01*
X0047985Y0193808D02*
X0047985Y0204381D01*
X0046531Y0205834D01*
X0053985Y0208381D02*
X0046531Y0215834D01*
X0091339Y0184032D02*
X0116612Y0184032D01*
X0116612Y0183050D02*
X0092322Y0183050D01*
X0122117Y0160446D02*
X0135393Y0160446D01*
X0136077Y0159463D02*
X0092298Y0159463D01*
X0092981Y0159463D02*
X0136077Y0159463D01*
X0137060Y0158481D02*
X0091709Y0158481D01*
X0091119Y0157498D02*
X0114847Y0157498D01*
X0092972Y0157498D01*
X0092976Y0158481D02*
X0137060Y0158481D01*
X0138043Y0157498D02*
X0131123Y0157498D01*
X0138043Y0157498D01*
X0140302Y0156515D02*
X0132105Y0156515D01*
X0132267Y0155532D02*
X0140302Y0155532D01*
X0140815Y0154550D02*
X0132267Y0154550D01*
X0128847Y0157498D02*
X0117123Y0157498D01*
X0128847Y0157498D01*
X0138615Y0161429D02*
X0139102Y0161429D01*
X0131670Y0148653D02*
X0110635Y0148653D01*
X0110348Y0148772D02*
X0113579Y0147434D01*
X0116052Y0144961D01*
X0117390Y0141730D01*
X0117390Y0138232D01*
X0116052Y0135001D01*
X0113579Y0132528D01*
X0110348Y0131189D01*
X0106850Y0131189D01*
X0103619Y0132528D01*
X0101146Y0135001D01*
X0099808Y0138232D01*
X0099808Y0141730D01*
X0101146Y0144961D01*
X0103619Y0147434D01*
X0106850Y0148772D01*
X0110348Y0148772D01*
X0113008Y0147670D02*
X0131670Y0147670D01*
X0131892Y0146687D02*
X0114325Y0146687D01*
X0115308Y0145705D02*
X0132874Y0145705D01*
X0133902Y0144722D02*
X0116151Y0144722D01*
X0116558Y0143739D02*
X0134425Y0143739D01*
X0117372Y0141774D02*
X0160112Y0141774D01*
X0162280Y0141774D02*
X0164485Y0141774D01*
X0164485Y0142756D02*
X0163263Y0142756D01*
X0163478Y0143739D02*
X0164485Y0143739D01*
X0164485Y0144722D02*
X0163478Y0144722D01*
X0162637Y0145705D02*
X0164485Y0145705D01*
X0164485Y0146687D02*
X0162825Y0146687D01*
X0163047Y0147670D02*
X0164485Y0147670D01*
X0164485Y0148653D02*
X0163047Y0148653D01*
X0162377Y0149636D02*
X0164485Y0149636D01*
X0164485Y0150619D02*
X0163720Y0150619D01*
X0164485Y0140791D02*
X0117390Y0140791D01*
X0117390Y0139808D02*
X0164485Y0139808D01*
X0164485Y0138825D02*
X0117390Y0138825D01*
X0117229Y0137843D02*
X0164485Y0137843D01*
X0164485Y0136860D02*
X0116822Y0136860D01*
X0116415Y0135877D02*
X0164485Y0135877D01*
X0164485Y0134894D02*
X0115945Y0134894D01*
X0114962Y0133912D02*
X0164485Y0133912D01*
X0164485Y0132929D02*
X0113980Y0132929D01*
X0112174Y0131946D02*
X0164485Y0131946D01*
X0164485Y0130963D02*
X0092843Y0130963D01*
X0092838Y0129980D02*
X0094416Y0129980D01*
X0092848Y0131946D02*
X0105024Y0131946D01*
X0103218Y0132929D02*
X0092852Y0132929D01*
X0092857Y0133912D02*
X0102235Y0133912D01*
X0101253Y0134894D02*
X0092862Y0134894D01*
X0092867Y0135877D02*
X0100783Y0135877D01*
X0100376Y0136860D02*
X0092871Y0136860D01*
X0092876Y0137843D02*
X0099969Y0137843D01*
X0099808Y0138825D02*
X0092881Y0138825D01*
X0092886Y0139808D02*
X0099808Y0139808D01*
X0099808Y0140791D02*
X0092890Y0140791D01*
X0092895Y0141774D02*
X0099826Y0141774D01*
X0100233Y0142756D02*
X0092900Y0142756D01*
X0092905Y0143739D02*
X0100640Y0143739D01*
X0101047Y0144722D02*
X0092910Y0144722D01*
X0092914Y0145705D02*
X0101890Y0145705D01*
X0102873Y0146687D02*
X0092919Y0146687D01*
X0092924Y0147670D02*
X0104190Y0147670D01*
X0106563Y0148653D02*
X0092929Y0148653D01*
X0092933Y0149636D02*
X0114460Y0149636D01*
X0113643Y0150619D02*
X0092938Y0150619D01*
X0092943Y0151601D02*
X0113368Y0151601D01*
X0113485Y0152584D02*
X0092948Y0152584D01*
X0092952Y0153567D02*
X0114079Y0153567D01*
X0113702Y0154550D02*
X0092957Y0154550D01*
X0092962Y0155532D02*
X0113702Y0155532D01*
X0113864Y0156515D02*
X0092967Y0156515D01*
X0086385Y0159008D02*
X0076785Y0159008D01*
X0074985Y0159008D01*
X0116965Y0142756D02*
X0157056Y0142756D01*
X0164485Y0129980D02*
X0097553Y0129980D01*
X0098277Y0128998D02*
X0164485Y0128998D01*
X0164485Y0128015D02*
X0098277Y0128015D01*
X0097951Y0127032D02*
X0164485Y0127032D01*
X0164485Y0126049D02*
X0096968Y0126049D01*
X0095077Y0125067D02*
X0164485Y0125067D01*
X0164485Y0124084D02*
X0155452Y0124084D01*
X0155989Y0123101D02*
X0164485Y0123101D01*
X0164485Y0122118D02*
X0155989Y0122118D01*
X0155469Y0121136D02*
X0164471Y0121136D01*
X0162493Y0115239D02*
X0156277Y0115239D01*
X0156277Y0114256D02*
X0163094Y0114256D01*
X0164485Y0113273D02*
X0155892Y0113273D01*
X0164485Y0112291D02*
X0144109Y0112291D01*
X0143127Y0111308D02*
X0164485Y0111308D01*
X0164485Y0110325D02*
X0119908Y0110325D01*
X0119908Y0109342D02*
X0164485Y0109342D01*
X0164485Y0108360D02*
X0119908Y0108360D01*
X0119908Y0107377D02*
X0164485Y0107377D01*
X0164485Y0106394D02*
X0119908Y0106394D01*
X0119908Y0105411D02*
X0164485Y0105411D01*
X0164485Y0104429D02*
X0119908Y0104429D01*
X0120466Y0103446D02*
X0164485Y0103446D01*
X0164485Y0102463D02*
X0120508Y0102463D01*
X0120476Y0101480D02*
X0164485Y0101480D01*
X0164485Y0100498D02*
X0119493Y0100498D01*
X0116958Y0100498D02*
X0115772Y0100498D01*
X0114485Y0099515D02*
X0164485Y0099515D01*
X0164485Y0098532D02*
X0156502Y0098532D01*
X0153868Y0098532D02*
X0114485Y0098532D01*
X0114485Y0097549D02*
X0152893Y0097549D01*
X0152893Y0096567D02*
X0114485Y0096567D01*
X0114485Y0095584D02*
X0152967Y0095584D01*
X0153950Y0094601D02*
X0114485Y0094601D01*
X0114485Y0093618D02*
X0164181Y0093618D01*
X0164293Y0092635D02*
X0114867Y0092635D01*
X0114867Y0091653D02*
X0128988Y0091653D01*
X0129035Y0091700D02*
X0127693Y0090357D01*
X0127693Y0088458D01*
X0129035Y0087115D01*
X0130934Y0087115D01*
X0131534Y0087715D01*
X0138941Y0087715D01*
X0148093Y0079581D01*
X0148093Y0078858D01*
X0149435Y0077515D01*
X0151334Y0077515D01*
X0152677Y0078858D01*
X0152677Y0080757D01*
X0151334Y0082100D01*
X0150353Y0082100D01*
X0140746Y0090639D01*
X0140286Y0091100D01*
X0140228Y0091100D01*
X0140185Y0091138D01*
X0139535Y0091100D01*
X0131534Y0091100D01*
X0130934Y0091700D01*
X0129035Y0091700D01*
X0128006Y0090670D02*
X0114675Y0090670D01*
X0114485Y0089687D02*
X0127693Y0089687D01*
X0127693Y0088704D02*
X0114485Y0088704D01*
X0114485Y0087722D02*
X0128429Y0087722D01*
X0130981Y0091653D02*
X0164293Y0091653D01*
X0164293Y0090670D02*
X0140715Y0090670D01*
X0141817Y0089687D02*
X0164293Y0089687D01*
X0164293Y0088704D02*
X0142923Y0088704D01*
X0144028Y0087722D02*
X0164293Y0087722D01*
X0164293Y0086739D02*
X0145134Y0086739D01*
X0146240Y0085756D02*
X0164293Y0085756D01*
X0164293Y0084773D02*
X0147345Y0084773D01*
X0148451Y0083791D02*
X0164293Y0083791D01*
X0164293Y0082808D02*
X0149556Y0082808D01*
X0151609Y0081825D02*
X0164293Y0081825D01*
X0164293Y0080842D02*
X0152592Y0080842D01*
X0152677Y0079860D02*
X0164293Y0079860D01*
X0164293Y0078877D02*
X0152677Y0078877D01*
X0151713Y0077894D02*
X0164293Y0077894D01*
X0164293Y0076911D02*
X0144730Y0076911D01*
X0145477Y0077894D02*
X0149057Y0077894D01*
X0148093Y0078877D02*
X0145477Y0078877D01*
X0145174Y0079860D02*
X0147779Y0079860D01*
X0146674Y0080842D02*
X0144192Y0080842D01*
X0145568Y0081825D02*
X0137677Y0081825D01*
X0137677Y0080842D02*
X0142178Y0080842D01*
X0141195Y0079860D02*
X0139485Y0079860D01*
X0139485Y0078877D02*
X0140893Y0078877D01*
X0140534Y0077894D02*
X0139485Y0077894D01*
X0139485Y0076911D02*
X0139797Y0076911D01*
X0142553Y0074946D02*
X0164293Y0074946D01*
X0164293Y0075928D02*
X0143291Y0075928D01*
X0141877Y0073963D02*
X0163693Y0073963D01*
X0163693Y0072980D02*
X0141877Y0072980D01*
X0141016Y0071997D02*
X0164053Y0071997D01*
X0164485Y0071015D02*
X0139485Y0071015D01*
X0139485Y0070032D02*
X0164485Y0070032D01*
X0164485Y0069049D02*
X0139485Y0069049D01*
X0139485Y0068066D02*
X0164485Y0068066D01*
X0164485Y0067084D02*
X0139485Y0067084D01*
X0139485Y0066101D02*
X0164485Y0066101D01*
X0164485Y0065118D02*
X0139485Y0065118D01*
X0139485Y0064135D02*
X0164485Y0064135D01*
X0164485Y0063153D02*
X0139485Y0063153D01*
X0139485Y0062170D02*
X0164485Y0062170D01*
X0164485Y0061187D02*
X0139485Y0061187D01*
X0139485Y0060204D02*
X0164485Y0060204D01*
X0164485Y0059222D02*
X0139485Y0059222D01*
X0139485Y0058239D02*
X0164485Y0058239D01*
X0164485Y0057256D02*
X0139485Y0057256D01*
X0139485Y0056273D02*
X0164485Y0056273D01*
X0164485Y0055290D02*
X0139485Y0055290D01*
X0139485Y0054308D02*
X0140309Y0054308D01*
X0140093Y0053325D02*
X0139485Y0053325D01*
X0143660Y0054308D02*
X0147809Y0054308D01*
X0147593Y0053325D02*
X0143877Y0053325D01*
X0151160Y0054308D02*
X0152809Y0054308D01*
X0152593Y0053325D02*
X0151377Y0053325D01*
X0156160Y0054308D02*
X0160309Y0054308D01*
X0160093Y0053325D02*
X0156377Y0053325D01*
X0163660Y0054308D02*
X0164485Y0054308D01*
X0164485Y0053325D02*
X0163877Y0053325D01*
X0134293Y0080842D02*
X0114485Y0080842D01*
X0114485Y0081825D02*
X0134293Y0081825D01*
X0134293Y0082808D02*
X0114485Y0082808D01*
X0114485Y0083791D02*
X0133693Y0083791D01*
X0133693Y0084773D02*
X0114485Y0084773D01*
X0114485Y0085756D02*
X0133892Y0085756D01*
X0134875Y0086739D02*
X0114485Y0086739D01*
X0137095Y0086739D02*
X0140040Y0086739D01*
X0141146Y0085756D02*
X0138078Y0085756D01*
X0138277Y0084773D02*
X0142251Y0084773D01*
X0143357Y0083791D02*
X0138277Y0083791D01*
X0137677Y0082808D02*
X0144462Y0082808D01*
X0156420Y0094601D02*
X0163198Y0094601D01*
X0140843Y0111308D02*
X0119908Y0111308D01*
X0119908Y0112291D02*
X0139860Y0112291D01*
X0139693Y0113273D02*
X0119908Y0113273D01*
X0119999Y0114256D02*
X0139693Y0114256D01*
X0140575Y0115239D02*
X0120508Y0115239D01*
X0120508Y0116222D02*
X0139319Y0116222D01*
X0137346Y0117205D02*
X0119961Y0117205D01*
X0116787Y0118187D02*
X0126777Y0118187D01*
X0125902Y0119170D02*
X0116787Y0119170D01*
X0116244Y0120153D02*
X0125902Y0120153D01*
X0126085Y0121136D02*
X0092795Y0121136D01*
X0092800Y0122118D02*
X0127067Y0122118D01*
X0128993Y0123101D02*
X0092805Y0123101D01*
X0094703Y0124084D02*
X0130185Y0124084D01*
X0131365Y0120153D02*
X0136093Y0120153D01*
X0136093Y0119170D02*
X0130467Y0119170D01*
X0129593Y0118187D02*
X0136363Y0118187D01*
X0116491Y0117205D02*
X0116273Y0117205D01*
X0112222Y0119170D02*
X0092786Y0119170D01*
X0092790Y0120153D02*
X0112765Y0120153D01*
X0061585Y0094339D02*
X0061179Y0094745D01*
X0059986Y0089352D02*
X0059986Y0080710D01*
X0062771Y0077326D01*
X0065892Y0079726D02*
X0065267Y0080926D01*
X0063385Y0082808D01*
X0062785Y0083408D01*
D25*
X0244485Y0043308D02*
X0244485Y0034608D01*
X0244485Y0043308D02*
X0246985Y0045808D01*
X0266985Y0045808D01*
X0281985Y0045808D01*
X0284485Y0043308D01*
X0284485Y0034608D01*
X0266985Y0045808D02*
X0264485Y0043308D01*
X0264485Y0034608D01*
X0381985Y0105808D02*
X0384485Y0105808D01*
X0384485Y0113308D01*
X0386985Y0115808D01*
X0386985Y0105808D01*
X0389485Y0110808D01*
X0389485Y0118308D01*
X0389485Y0198623D01*
X0387300Y0200808D01*
X0381985Y0110808D02*
X0381985Y0105808D01*
D26*
X0316985Y0109508D03*
X0316985Y0124608D03*
X0276985Y0127108D03*
X0276985Y0108308D03*
X0239485Y0105808D03*
X0239485Y0127108D03*
X0199685Y0127308D03*
X0199485Y0105808D03*
D27*
X0199485Y0123608D01*
X0199585Y0127308D01*
X0199685Y0127308D01*
X0239485Y0127108D02*
X0239485Y0105808D01*
X0276985Y0108308D02*
X0276985Y0127108D01*
X0316985Y0124608D02*
X0316985Y0109508D01*
X0234485Y0180808D02*
X0247300Y0193623D01*
X0247300Y0200808D01*
X0176385Y0173808D02*
X0176385Y0172708D01*
X0166985Y0163308D01*
X0165686Y0162008D01*
X0165686Y0158308D01*
X0165686Y0155392D01*
X0160764Y0151792D01*
D28*
X0154485Y0151792D01*
X0115937Y0151792D01*
D29*
X0160764Y0164587D02*
X0160764Y0180335D01*
D30*
X0160764Y0164587D02*
X0160764Y0164528D01*
X0164485Y0160808D01*
X0165686Y0158308D01*
M02*
