G75*
%MOIN*%
%OFA0B0*%
%FSLAX25Y25*%
%IPPOS*%
%LPD*%
%AMOC8*
5,1,8,0,0,1.08239X$1,22.5*
%
%ADD10C,0.00000*%
%ADD11C,0.00700*%
%ADD12R,0.00300X0.00100*%
%ADD13R,0.00900X0.00100*%
%ADD14R,0.00800X0.00100*%
%ADD15R,0.01000X0.00100*%
%ADD16R,0.00400X0.00100*%
%ADD17R,0.00700X0.00100*%
%ADD18R,0.00600X0.00100*%
%ADD19R,0.01100X0.00100*%
%ADD20R,0.01200X0.00100*%
%ADD21R,0.01300X0.00100*%
%ADD22R,0.00500X0.00100*%
%ADD23R,0.01600X0.00100*%
%ADD24R,0.00100X0.00100*%
%ADD25R,0.00200X0.00100*%
%ADD26R,0.01700X0.00100*%
%ADD27R,0.01500X0.00100*%
%ADD28R,0.01400X0.00100*%
%ADD29R,0.01800X0.00100*%
%ADD30R,0.02100X0.00100*%
%ADD31R,0.01900X0.00100*%
%ADD32R,0.02500X0.00100*%
%ADD33R,0.03100X0.00100*%
%ADD34R,0.02200X0.00100*%
%ADD35R,0.02900X0.00100*%
%ADD36R,0.03400X0.00100*%
%ADD37R,0.02000X0.00100*%
%ADD38R,0.02400X0.00100*%
%ADD39R,0.03200X0.00100*%
%ADD40R,0.03300X0.00100*%
%ADD41R,0.03700X0.00100*%
%ADD42R,0.02800X0.00100*%
%ADD43R,0.03500X0.00100*%
%ADD44R,0.02300X0.00100*%
%ADD45R,0.04400X0.00100*%
%ADD46R,0.03800X0.00100*%
%ADD47R,0.03900X0.00100*%
%ADD48R,0.04500X0.00100*%
%ADD49R,0.04100X0.00100*%
%ADD50R,0.04000X0.00100*%
%ADD51R,0.04600X0.00100*%
%ADD52R,0.04300X0.00100*%
%ADD53R,0.04700X0.00100*%
%ADD54R,0.04200X0.00100*%
%ADD55R,0.04800X0.00100*%
%ADD56R,0.02700X0.00100*%
%ADD57R,0.03000X0.00100*%
%ADD58R,0.02600X0.00100*%
%ADD59R,0.04900X0.00100*%
%ADD60R,0.03600X0.00100*%
%ADD61C,0.00300*%
%ADD62C,0.00600*%
D10*
X0021985Y0025808D02*
X0021985Y0222658D01*
X0396000Y0222658D01*
X0396000Y0025808D01*
X0021985Y0025808D01*
X0102300Y0139981D02*
X0102302Y0140139D01*
X0102308Y0140297D01*
X0102318Y0140455D01*
X0102332Y0140613D01*
X0102350Y0140770D01*
X0102371Y0140927D01*
X0102397Y0141083D01*
X0102427Y0141239D01*
X0102460Y0141394D01*
X0102498Y0141547D01*
X0102539Y0141700D01*
X0102584Y0141852D01*
X0102633Y0142003D01*
X0102686Y0142152D01*
X0102742Y0142300D01*
X0102802Y0142446D01*
X0102866Y0142591D01*
X0102934Y0142734D01*
X0103005Y0142876D01*
X0103079Y0143016D01*
X0103157Y0143153D01*
X0103239Y0143289D01*
X0103323Y0143423D01*
X0103412Y0143554D01*
X0103503Y0143683D01*
X0103598Y0143810D01*
X0103695Y0143935D01*
X0103796Y0144057D01*
X0103900Y0144176D01*
X0104007Y0144293D01*
X0104117Y0144407D01*
X0104230Y0144518D01*
X0104345Y0144627D01*
X0104463Y0144732D01*
X0104584Y0144834D01*
X0104707Y0144934D01*
X0104833Y0145030D01*
X0104961Y0145123D01*
X0105091Y0145213D01*
X0105224Y0145299D01*
X0105359Y0145383D01*
X0105495Y0145462D01*
X0105634Y0145539D01*
X0105775Y0145611D01*
X0105917Y0145681D01*
X0106061Y0145746D01*
X0106207Y0145808D01*
X0106354Y0145866D01*
X0106503Y0145921D01*
X0106653Y0145972D01*
X0106804Y0146019D01*
X0106956Y0146062D01*
X0107109Y0146101D01*
X0107264Y0146137D01*
X0107419Y0146168D01*
X0107575Y0146196D01*
X0107731Y0146220D01*
X0107888Y0146240D01*
X0108046Y0146256D01*
X0108203Y0146268D01*
X0108362Y0146276D01*
X0108520Y0146280D01*
X0108678Y0146280D01*
X0108836Y0146276D01*
X0108995Y0146268D01*
X0109152Y0146256D01*
X0109310Y0146240D01*
X0109467Y0146220D01*
X0109623Y0146196D01*
X0109779Y0146168D01*
X0109934Y0146137D01*
X0110089Y0146101D01*
X0110242Y0146062D01*
X0110394Y0146019D01*
X0110545Y0145972D01*
X0110695Y0145921D01*
X0110844Y0145866D01*
X0110991Y0145808D01*
X0111137Y0145746D01*
X0111281Y0145681D01*
X0111423Y0145611D01*
X0111564Y0145539D01*
X0111703Y0145462D01*
X0111839Y0145383D01*
X0111974Y0145299D01*
X0112107Y0145213D01*
X0112237Y0145123D01*
X0112365Y0145030D01*
X0112491Y0144934D01*
X0112614Y0144834D01*
X0112735Y0144732D01*
X0112853Y0144627D01*
X0112968Y0144518D01*
X0113081Y0144407D01*
X0113191Y0144293D01*
X0113298Y0144176D01*
X0113402Y0144057D01*
X0113503Y0143935D01*
X0113600Y0143810D01*
X0113695Y0143683D01*
X0113786Y0143554D01*
X0113875Y0143423D01*
X0113959Y0143289D01*
X0114041Y0143153D01*
X0114119Y0143016D01*
X0114193Y0142876D01*
X0114264Y0142734D01*
X0114332Y0142591D01*
X0114396Y0142446D01*
X0114456Y0142300D01*
X0114512Y0142152D01*
X0114565Y0142003D01*
X0114614Y0141852D01*
X0114659Y0141700D01*
X0114700Y0141547D01*
X0114738Y0141394D01*
X0114771Y0141239D01*
X0114801Y0141083D01*
X0114827Y0140927D01*
X0114848Y0140770D01*
X0114866Y0140613D01*
X0114880Y0140455D01*
X0114890Y0140297D01*
X0114896Y0140139D01*
X0114898Y0139981D01*
X0114896Y0139823D01*
X0114890Y0139665D01*
X0114880Y0139507D01*
X0114866Y0139349D01*
X0114848Y0139192D01*
X0114827Y0139035D01*
X0114801Y0138879D01*
X0114771Y0138723D01*
X0114738Y0138568D01*
X0114700Y0138415D01*
X0114659Y0138262D01*
X0114614Y0138110D01*
X0114565Y0137959D01*
X0114512Y0137810D01*
X0114456Y0137662D01*
X0114396Y0137516D01*
X0114332Y0137371D01*
X0114264Y0137228D01*
X0114193Y0137086D01*
X0114119Y0136946D01*
X0114041Y0136809D01*
X0113959Y0136673D01*
X0113875Y0136539D01*
X0113786Y0136408D01*
X0113695Y0136279D01*
X0113600Y0136152D01*
X0113503Y0136027D01*
X0113402Y0135905D01*
X0113298Y0135786D01*
X0113191Y0135669D01*
X0113081Y0135555D01*
X0112968Y0135444D01*
X0112853Y0135335D01*
X0112735Y0135230D01*
X0112614Y0135128D01*
X0112491Y0135028D01*
X0112365Y0134932D01*
X0112237Y0134839D01*
X0112107Y0134749D01*
X0111974Y0134663D01*
X0111839Y0134579D01*
X0111703Y0134500D01*
X0111564Y0134423D01*
X0111423Y0134351D01*
X0111281Y0134281D01*
X0111137Y0134216D01*
X0110991Y0134154D01*
X0110844Y0134096D01*
X0110695Y0134041D01*
X0110545Y0133990D01*
X0110394Y0133943D01*
X0110242Y0133900D01*
X0110089Y0133861D01*
X0109934Y0133825D01*
X0109779Y0133794D01*
X0109623Y0133766D01*
X0109467Y0133742D01*
X0109310Y0133722D01*
X0109152Y0133706D01*
X0108995Y0133694D01*
X0108836Y0133686D01*
X0108678Y0133682D01*
X0108520Y0133682D01*
X0108362Y0133686D01*
X0108203Y0133694D01*
X0108046Y0133706D01*
X0107888Y0133722D01*
X0107731Y0133742D01*
X0107575Y0133766D01*
X0107419Y0133794D01*
X0107264Y0133825D01*
X0107109Y0133861D01*
X0106956Y0133900D01*
X0106804Y0133943D01*
X0106653Y0133990D01*
X0106503Y0134041D01*
X0106354Y0134096D01*
X0106207Y0134154D01*
X0106061Y0134216D01*
X0105917Y0134281D01*
X0105775Y0134351D01*
X0105634Y0134423D01*
X0105495Y0134500D01*
X0105359Y0134579D01*
X0105224Y0134663D01*
X0105091Y0134749D01*
X0104961Y0134839D01*
X0104833Y0134932D01*
X0104707Y0135028D01*
X0104584Y0135128D01*
X0104463Y0135230D01*
X0104345Y0135335D01*
X0104230Y0135444D01*
X0104117Y0135555D01*
X0104007Y0135669D01*
X0103900Y0135786D01*
X0103796Y0135905D01*
X0103695Y0136027D01*
X0103598Y0136152D01*
X0103503Y0136279D01*
X0103412Y0136408D01*
X0103323Y0136539D01*
X0103239Y0136673D01*
X0103157Y0136809D01*
X0103079Y0136946D01*
X0103005Y0137086D01*
X0102934Y0137228D01*
X0102866Y0137371D01*
X0102802Y0137516D01*
X0102742Y0137662D01*
X0102686Y0137810D01*
X0102633Y0137959D01*
X0102584Y0138110D01*
X0102539Y0138262D01*
X0102498Y0138415D01*
X0102460Y0138568D01*
X0102427Y0138723D01*
X0102397Y0138879D01*
X0102371Y0139035D01*
X0102350Y0139192D01*
X0102332Y0139349D01*
X0102318Y0139507D01*
X0102308Y0139665D01*
X0102302Y0139823D01*
X0102300Y0139981D01*
X0377890Y0037619D02*
X0377892Y0037777D01*
X0377898Y0037935D01*
X0377908Y0038093D01*
X0377922Y0038251D01*
X0377940Y0038408D01*
X0377961Y0038565D01*
X0377987Y0038721D01*
X0378017Y0038877D01*
X0378050Y0039032D01*
X0378088Y0039185D01*
X0378129Y0039338D01*
X0378174Y0039490D01*
X0378223Y0039641D01*
X0378276Y0039790D01*
X0378332Y0039938D01*
X0378392Y0040084D01*
X0378456Y0040229D01*
X0378524Y0040372D01*
X0378595Y0040514D01*
X0378669Y0040654D01*
X0378747Y0040791D01*
X0378829Y0040927D01*
X0378913Y0041061D01*
X0379002Y0041192D01*
X0379093Y0041321D01*
X0379188Y0041448D01*
X0379285Y0041573D01*
X0379386Y0041695D01*
X0379490Y0041814D01*
X0379597Y0041931D01*
X0379707Y0042045D01*
X0379820Y0042156D01*
X0379935Y0042265D01*
X0380053Y0042370D01*
X0380174Y0042472D01*
X0380297Y0042572D01*
X0380423Y0042668D01*
X0380551Y0042761D01*
X0380681Y0042851D01*
X0380814Y0042937D01*
X0380949Y0043021D01*
X0381085Y0043100D01*
X0381224Y0043177D01*
X0381365Y0043249D01*
X0381507Y0043319D01*
X0381651Y0043384D01*
X0381797Y0043446D01*
X0381944Y0043504D01*
X0382093Y0043559D01*
X0382243Y0043610D01*
X0382394Y0043657D01*
X0382546Y0043700D01*
X0382699Y0043739D01*
X0382854Y0043775D01*
X0383009Y0043806D01*
X0383165Y0043834D01*
X0383321Y0043858D01*
X0383478Y0043878D01*
X0383636Y0043894D01*
X0383793Y0043906D01*
X0383952Y0043914D01*
X0384110Y0043918D01*
X0384268Y0043918D01*
X0384426Y0043914D01*
X0384585Y0043906D01*
X0384742Y0043894D01*
X0384900Y0043878D01*
X0385057Y0043858D01*
X0385213Y0043834D01*
X0385369Y0043806D01*
X0385524Y0043775D01*
X0385679Y0043739D01*
X0385832Y0043700D01*
X0385984Y0043657D01*
X0386135Y0043610D01*
X0386285Y0043559D01*
X0386434Y0043504D01*
X0386581Y0043446D01*
X0386727Y0043384D01*
X0386871Y0043319D01*
X0387013Y0043249D01*
X0387154Y0043177D01*
X0387293Y0043100D01*
X0387429Y0043021D01*
X0387564Y0042937D01*
X0387697Y0042851D01*
X0387827Y0042761D01*
X0387955Y0042668D01*
X0388081Y0042572D01*
X0388204Y0042472D01*
X0388325Y0042370D01*
X0388443Y0042265D01*
X0388558Y0042156D01*
X0388671Y0042045D01*
X0388781Y0041931D01*
X0388888Y0041814D01*
X0388992Y0041695D01*
X0389093Y0041573D01*
X0389190Y0041448D01*
X0389285Y0041321D01*
X0389376Y0041192D01*
X0389465Y0041061D01*
X0389549Y0040927D01*
X0389631Y0040791D01*
X0389709Y0040654D01*
X0389783Y0040514D01*
X0389854Y0040372D01*
X0389922Y0040229D01*
X0389986Y0040084D01*
X0390046Y0039938D01*
X0390102Y0039790D01*
X0390155Y0039641D01*
X0390204Y0039490D01*
X0390249Y0039338D01*
X0390290Y0039185D01*
X0390328Y0039032D01*
X0390361Y0038877D01*
X0390391Y0038721D01*
X0390417Y0038565D01*
X0390438Y0038408D01*
X0390456Y0038251D01*
X0390470Y0038093D01*
X0390480Y0037935D01*
X0390486Y0037777D01*
X0390488Y0037619D01*
X0390486Y0037461D01*
X0390480Y0037303D01*
X0390470Y0037145D01*
X0390456Y0036987D01*
X0390438Y0036830D01*
X0390417Y0036673D01*
X0390391Y0036517D01*
X0390361Y0036361D01*
X0390328Y0036206D01*
X0390290Y0036053D01*
X0390249Y0035900D01*
X0390204Y0035748D01*
X0390155Y0035597D01*
X0390102Y0035448D01*
X0390046Y0035300D01*
X0389986Y0035154D01*
X0389922Y0035009D01*
X0389854Y0034866D01*
X0389783Y0034724D01*
X0389709Y0034584D01*
X0389631Y0034447D01*
X0389549Y0034311D01*
X0389465Y0034177D01*
X0389376Y0034046D01*
X0389285Y0033917D01*
X0389190Y0033790D01*
X0389093Y0033665D01*
X0388992Y0033543D01*
X0388888Y0033424D01*
X0388781Y0033307D01*
X0388671Y0033193D01*
X0388558Y0033082D01*
X0388443Y0032973D01*
X0388325Y0032868D01*
X0388204Y0032766D01*
X0388081Y0032666D01*
X0387955Y0032570D01*
X0387827Y0032477D01*
X0387697Y0032387D01*
X0387564Y0032301D01*
X0387429Y0032217D01*
X0387293Y0032138D01*
X0387154Y0032061D01*
X0387013Y0031989D01*
X0386871Y0031919D01*
X0386727Y0031854D01*
X0386581Y0031792D01*
X0386434Y0031734D01*
X0386285Y0031679D01*
X0386135Y0031628D01*
X0385984Y0031581D01*
X0385832Y0031538D01*
X0385679Y0031499D01*
X0385524Y0031463D01*
X0385369Y0031432D01*
X0385213Y0031404D01*
X0385057Y0031380D01*
X0384900Y0031360D01*
X0384742Y0031344D01*
X0384585Y0031332D01*
X0384426Y0031324D01*
X0384268Y0031320D01*
X0384110Y0031320D01*
X0383952Y0031324D01*
X0383793Y0031332D01*
X0383636Y0031344D01*
X0383478Y0031360D01*
X0383321Y0031380D01*
X0383165Y0031404D01*
X0383009Y0031432D01*
X0382854Y0031463D01*
X0382699Y0031499D01*
X0382546Y0031538D01*
X0382394Y0031581D01*
X0382243Y0031628D01*
X0382093Y0031679D01*
X0381944Y0031734D01*
X0381797Y0031792D01*
X0381651Y0031854D01*
X0381507Y0031919D01*
X0381365Y0031989D01*
X0381224Y0032061D01*
X0381085Y0032138D01*
X0380949Y0032217D01*
X0380814Y0032301D01*
X0380681Y0032387D01*
X0380551Y0032477D01*
X0380423Y0032570D01*
X0380297Y0032666D01*
X0380174Y0032766D01*
X0380053Y0032868D01*
X0379935Y0032973D01*
X0379820Y0033082D01*
X0379707Y0033193D01*
X0379597Y0033307D01*
X0379490Y0033424D01*
X0379386Y0033543D01*
X0379285Y0033665D01*
X0379188Y0033790D01*
X0379093Y0033917D01*
X0379002Y0034046D01*
X0378913Y0034177D01*
X0378829Y0034311D01*
X0378747Y0034447D01*
X0378669Y0034584D01*
X0378595Y0034724D01*
X0378524Y0034866D01*
X0378456Y0035009D01*
X0378392Y0035154D01*
X0378332Y0035300D01*
X0378276Y0035448D01*
X0378223Y0035597D01*
X0378174Y0035748D01*
X0378129Y0035900D01*
X0378088Y0036053D01*
X0378050Y0036206D01*
X0378017Y0036361D01*
X0377987Y0036517D01*
X0377961Y0036673D01*
X0377940Y0036830D01*
X0377922Y0036987D01*
X0377908Y0037145D01*
X0377898Y0037303D01*
X0377892Y0037461D01*
X0377890Y0037619D01*
D11*
X0378640Y0168658D02*
X0376488Y0168658D01*
X0376488Y0170809D01*
X0377206Y0171527D01*
X0378640Y0171527D01*
X0378640Y0170092D02*
X0376488Y0170092D01*
X0378640Y0170092D02*
X0379358Y0169375D01*
X0378640Y0168658D01*
X0380992Y0168658D02*
X0381710Y0169375D01*
X0381710Y0172244D01*
X0382427Y0171527D02*
X0380992Y0171527D01*
X0384162Y0171527D02*
X0386314Y0171527D01*
X0387031Y0170809D01*
X0387031Y0169375D01*
X0386314Y0168658D01*
X0384162Y0168658D01*
X0388766Y0169375D02*
X0388766Y0172244D01*
X0389483Y0172961D01*
X0390917Y0172961D01*
X0391635Y0172244D01*
X0391635Y0169375D01*
X0390917Y0168658D01*
X0389483Y0168658D01*
X0388766Y0169375D01*
X0388766Y0176158D02*
X0391635Y0176158D01*
X0391635Y0180461D01*
X0388766Y0180461D01*
X0387031Y0180461D02*
X0386314Y0180461D01*
X0386314Y0176158D01*
X0387031Y0176158D02*
X0385596Y0176158D01*
X0383962Y0176875D02*
X0383962Y0178309D01*
X0383244Y0179027D01*
X0381810Y0179027D01*
X0381092Y0178309D01*
X0381092Y0177592D01*
X0383962Y0177592D01*
X0383962Y0176875D02*
X0383244Y0176158D01*
X0381810Y0176158D01*
X0379358Y0176875D02*
X0379358Y0178309D01*
X0378640Y0179027D01*
X0376488Y0179027D01*
X0374754Y0179027D02*
X0373319Y0179027D01*
X0374036Y0179744D02*
X0374036Y0176875D01*
X0373319Y0176158D01*
X0371684Y0176158D02*
X0371684Y0179027D01*
X0370250Y0179027D02*
X0369533Y0179027D01*
X0370250Y0179027D02*
X0371684Y0177592D01*
X0367848Y0176158D02*
X0366413Y0176158D01*
X0367131Y0176158D02*
X0367131Y0179027D01*
X0367848Y0179027D01*
X0367131Y0180461D02*
X0367131Y0181179D01*
X0364779Y0178309D02*
X0364061Y0179027D01*
X0361909Y0179027D01*
X0359457Y0179027D02*
X0358023Y0179027D01*
X0357305Y0178309D01*
X0357305Y0176158D01*
X0359457Y0176158D01*
X0360175Y0176875D01*
X0359457Y0177592D01*
X0357305Y0177592D01*
X0355571Y0176158D02*
X0354136Y0176158D01*
X0354853Y0176158D02*
X0354853Y0180461D01*
X0355571Y0180461D01*
X0361909Y0176158D02*
X0364061Y0176158D01*
X0364779Y0176875D01*
X0364779Y0178309D01*
X0369432Y0173679D02*
X0369432Y0172961D01*
X0369432Y0171527D02*
X0369432Y0168658D01*
X0368715Y0168658D02*
X0370150Y0168658D01*
X0371885Y0168658D02*
X0371885Y0170809D01*
X0372602Y0171527D01*
X0374754Y0171527D01*
X0374754Y0168658D01*
X0370150Y0171527D02*
X0369432Y0171527D01*
X0367080Y0170809D02*
X0366363Y0171527D01*
X0364211Y0171527D01*
X0364929Y0170092D02*
X0364211Y0169375D01*
X0364929Y0168658D01*
X0367080Y0168658D01*
X0366363Y0170092D02*
X0367080Y0170809D01*
X0366363Y0170092D02*
X0364929Y0170092D01*
X0357873Y0170092D02*
X0355721Y0170092D01*
X0355004Y0170809D01*
X0355004Y0172244D01*
X0355721Y0172961D01*
X0357873Y0172961D01*
X0357873Y0168658D01*
X0356438Y0170092D02*
X0355004Y0168658D01*
X0353269Y0169375D02*
X0352551Y0168658D01*
X0351117Y0168658D01*
X0350400Y0169375D01*
X0350400Y0170809D01*
X0351117Y0171527D01*
X0352551Y0171527D01*
X0353269Y0170809D01*
X0353269Y0169375D01*
X0348665Y0171527D02*
X0347230Y0168658D01*
X0345796Y0171527D01*
X0344061Y0170809D02*
X0344061Y0169375D01*
X0343344Y0168658D01*
X0341909Y0168658D01*
X0341192Y0170092D02*
X0344061Y0170092D01*
X0344061Y0170809D02*
X0343344Y0171527D01*
X0341909Y0171527D01*
X0341192Y0170809D01*
X0341192Y0170092D01*
X0339457Y0170092D02*
X0338022Y0171527D01*
X0337305Y0171527D01*
X0339457Y0171527D02*
X0339457Y0168658D01*
X0331016Y0168658D02*
X0331016Y0172961D01*
X0328147Y0172961D01*
X0326412Y0172961D02*
X0324261Y0172961D01*
X0323543Y0172244D01*
X0323543Y0170809D01*
X0324261Y0170092D01*
X0326412Y0170092D01*
X0326412Y0168658D02*
X0326412Y0172961D01*
X0329582Y0170809D02*
X0331016Y0170809D01*
X0331016Y0168658D02*
X0328147Y0168658D01*
X0321809Y0169375D02*
X0321091Y0168658D01*
X0319657Y0168658D01*
X0318939Y0169375D01*
X0318939Y0170092D01*
X0319657Y0170809D01*
X0321091Y0170809D01*
X0321809Y0171527D01*
X0321809Y0172244D01*
X0321091Y0172961D01*
X0319657Y0172961D01*
X0318939Y0172244D01*
X0318889Y0176158D02*
X0320324Y0176158D01*
X0321041Y0176875D01*
X0320324Y0178309D02*
X0318889Y0178309D01*
X0318172Y0177592D01*
X0318172Y0176875D01*
X0318889Y0176158D01*
X0316437Y0176875D02*
X0315720Y0176158D01*
X0313568Y0176158D01*
X0313568Y0179027D01*
X0311833Y0179027D02*
X0309682Y0179027D01*
X0308964Y0178309D01*
X0308964Y0176875D01*
X0309682Y0176158D01*
X0311833Y0176158D01*
X0311833Y0180461D01*
X0316437Y0179027D02*
X0316437Y0176875D01*
X0320324Y0178309D02*
X0321041Y0179027D01*
X0321041Y0179744D01*
X0320324Y0180461D01*
X0318889Y0180461D01*
X0318172Y0179744D01*
X0327330Y0179027D02*
X0328047Y0179027D01*
X0329482Y0177592D01*
X0329482Y0176158D02*
X0329482Y0179027D01*
X0331217Y0178309D02*
X0331217Y0177592D01*
X0334086Y0177592D01*
X0334086Y0176875D02*
X0334086Y0178309D01*
X0333368Y0179027D01*
X0331934Y0179027D01*
X0331217Y0178309D01*
X0331934Y0176158D02*
X0333368Y0176158D01*
X0334086Y0176875D01*
X0335821Y0176875D02*
X0335821Y0179027D01*
X0335821Y0176875D02*
X0336538Y0176158D01*
X0337255Y0176875D01*
X0337972Y0176158D01*
X0338690Y0176875D01*
X0338690Y0179027D01*
X0340424Y0178309D02*
X0340424Y0176875D01*
X0341142Y0176158D01*
X0342576Y0176158D01*
X0343294Y0176875D01*
X0343294Y0178309D01*
X0342576Y0179027D01*
X0341142Y0179027D01*
X0340424Y0178309D01*
X0345028Y0178309D02*
X0345028Y0179744D01*
X0345746Y0180461D01*
X0347897Y0180461D01*
X0347897Y0176158D01*
X0347897Y0177592D02*
X0345746Y0177592D01*
X0345028Y0178309D01*
X0376488Y0176158D02*
X0378640Y0176158D01*
X0379358Y0176875D01*
X0390200Y0178309D02*
X0391635Y0178309D01*
X0312601Y0171527D02*
X0311166Y0168658D01*
X0309732Y0171527D01*
X0307997Y0172244D02*
X0307280Y0172961D01*
X0305845Y0172961D01*
X0305128Y0172244D01*
X0305128Y0171527D01*
X0307997Y0168658D01*
X0305128Y0168658D01*
X0303393Y0168658D02*
X0302676Y0168658D01*
X0302676Y0169375D01*
X0303393Y0169375D01*
X0303393Y0168658D01*
X0301091Y0169375D02*
X0298222Y0172244D01*
X0298222Y0169375D01*
X0298939Y0168658D01*
X0300374Y0168658D01*
X0301091Y0169375D01*
X0301091Y0172244D01*
X0300374Y0172961D01*
X0298939Y0172961D01*
X0298222Y0172244D01*
X0300474Y0174723D02*
X0301191Y0174723D01*
X0300474Y0174723D02*
X0299756Y0175440D01*
X0299756Y0179027D01*
X0298022Y0178309D02*
X0297304Y0179027D01*
X0295153Y0179027D01*
X0295870Y0177592D02*
X0297304Y0177592D01*
X0298022Y0178309D01*
X0298022Y0176158D02*
X0295870Y0176158D01*
X0295153Y0176875D01*
X0295870Y0177592D01*
X0293418Y0179027D02*
X0291983Y0179027D01*
X0292700Y0179744D02*
X0292700Y0176875D01*
X0291983Y0176158D01*
X0290348Y0176875D02*
X0290348Y0178309D01*
X0289631Y0179027D01*
X0288197Y0179027D01*
X0287479Y0178309D01*
X0287479Y0177592D01*
X0290348Y0177592D01*
X0290348Y0176875D02*
X0289631Y0176158D01*
X0288197Y0176158D01*
X0285744Y0176158D02*
X0285744Y0179027D01*
X0285027Y0179027D01*
X0284310Y0178309D01*
X0283593Y0179027D01*
X0282875Y0178309D01*
X0282875Y0176158D01*
X0284310Y0176158D02*
X0284310Y0178309D01*
X0299756Y0176158D02*
X0301908Y0176158D01*
X0302626Y0176875D01*
X0302626Y0179027D01*
X0304360Y0179027D02*
X0306512Y0179027D01*
X0307229Y0178309D01*
X0306512Y0177592D01*
X0305078Y0177592D01*
X0304360Y0176875D01*
X0305078Y0176158D01*
X0307229Y0176158D01*
X0076107Y0036527D02*
X0076107Y0035809D01*
X0076107Y0034375D02*
X0076107Y0031506D01*
X0076824Y0031506D02*
X0075390Y0031506D01*
X0073755Y0031506D02*
X0071603Y0031506D01*
X0070886Y0032223D01*
X0071603Y0032940D01*
X0073038Y0032940D01*
X0073755Y0033657D01*
X0073038Y0034375D01*
X0070886Y0034375D01*
X0069151Y0032223D02*
X0068434Y0032223D01*
X0068434Y0031506D01*
X0069151Y0031506D01*
X0069151Y0032223D01*
X0066849Y0032223D02*
X0066132Y0031506D01*
X0064697Y0031506D01*
X0063980Y0032223D01*
X0063980Y0033657D01*
X0064697Y0034375D01*
X0066132Y0034375D01*
X0066849Y0033657D01*
X0066849Y0032223D01*
X0062245Y0032940D02*
X0060811Y0034375D01*
X0060093Y0034375D01*
X0058409Y0033657D02*
X0057691Y0034375D01*
X0055539Y0034375D01*
X0055539Y0030788D01*
X0056257Y0030071D01*
X0056974Y0030071D01*
X0057691Y0031506D02*
X0055539Y0031506D01*
X0057691Y0031506D02*
X0058409Y0032223D01*
X0058409Y0033657D01*
X0062245Y0034375D02*
X0062245Y0031506D01*
X0076107Y0034375D02*
X0076824Y0034375D01*
X0078559Y0033657D02*
X0078559Y0031506D01*
X0078559Y0033657D02*
X0079276Y0034375D01*
X0081428Y0034375D01*
X0081428Y0031506D01*
X0083163Y0031506D02*
X0083163Y0033657D01*
X0083880Y0034375D01*
X0085315Y0034375D01*
X0085315Y0032940D02*
X0083163Y0032940D01*
X0083163Y0031506D02*
X0085315Y0031506D01*
X0086032Y0032223D01*
X0085315Y0032940D01*
X0087667Y0031506D02*
X0088384Y0032223D01*
X0088384Y0035092D01*
X0089101Y0034375D02*
X0087667Y0034375D01*
X0090836Y0034375D02*
X0092988Y0034375D01*
X0093705Y0033657D01*
X0093705Y0032223D01*
X0092988Y0031506D01*
X0090836Y0031506D01*
X0095440Y0032223D02*
X0095440Y0033657D01*
X0096157Y0034375D01*
X0097592Y0034375D01*
X0098309Y0033657D01*
X0098309Y0032223D01*
X0097592Y0031506D01*
X0096157Y0031506D01*
X0095440Y0032223D01*
X0099894Y0032223D02*
X0099894Y0031506D01*
X0100611Y0031506D01*
X0100611Y0032223D01*
X0099894Y0032223D01*
X0102346Y0032223D02*
X0102346Y0034375D01*
X0102346Y0032223D02*
X0103063Y0031506D01*
X0103781Y0032223D01*
X0104498Y0031506D01*
X0105215Y0032223D01*
X0105215Y0034375D01*
X0106950Y0034375D02*
X0106950Y0032223D01*
X0107667Y0031506D01*
X0108384Y0032223D01*
X0109102Y0031506D01*
X0109819Y0032223D01*
X0109819Y0034375D01*
X0111554Y0034375D02*
X0111554Y0032223D01*
X0112271Y0031506D01*
X0112988Y0032223D01*
X0113706Y0031506D01*
X0114423Y0032223D01*
X0114423Y0034375D01*
D12*
X0100585Y0039808D03*
X0100585Y0039908D03*
X0100585Y0040008D03*
X0100585Y0040108D03*
X0099185Y0040108D03*
X0099185Y0040008D03*
X0099185Y0039908D03*
X0099185Y0039808D03*
X0098485Y0039808D03*
X0098485Y0039908D03*
X0098485Y0040008D03*
X0098485Y0040108D03*
X0098485Y0040708D03*
X0098485Y0040808D03*
X0098485Y0039308D03*
X0098485Y0039208D03*
X0098485Y0039108D03*
X0098485Y0039008D03*
X0098485Y0038908D03*
X0098485Y0038808D03*
X0098485Y0038708D03*
X0098485Y0038608D03*
X0098485Y0038508D03*
X0097085Y0039908D03*
X0097085Y0040008D03*
X0097085Y0040108D03*
X0096485Y0040208D03*
X0096485Y0040308D03*
X0096485Y0039808D03*
X0096485Y0039708D03*
X0094585Y0040708D03*
X0094585Y0040808D03*
X0093485Y0040308D03*
X0091985Y0040308D03*
X0091985Y0040408D03*
X0091985Y0040508D03*
X0091985Y0040608D03*
X0091985Y0040708D03*
X0091985Y0040808D03*
X0091985Y0041208D03*
X0091985Y0041508D03*
X0091185Y0040808D03*
X0091185Y0040708D03*
X0091985Y0040208D03*
X0091985Y0040108D03*
X0091985Y0040008D03*
X0091985Y0039908D03*
X0091985Y0039808D03*
X0091985Y0039708D03*
X0091985Y0039608D03*
X0091985Y0039508D03*
X0091985Y0039408D03*
X0091985Y0039308D03*
X0091985Y0039208D03*
X0090085Y0040408D03*
X0089385Y0040108D03*
X0089385Y0040008D03*
X0089385Y0039908D03*
X0088285Y0040508D03*
X0087585Y0040808D03*
X0084385Y0039708D03*
X0083785Y0039708D03*
X0083785Y0039608D03*
X0082685Y0039608D03*
X0082685Y0039708D03*
X0082685Y0039808D03*
X0082685Y0039908D03*
X0082685Y0040208D03*
X0082685Y0040308D03*
X0081885Y0040308D03*
X0081885Y0040408D03*
X0081885Y0040508D03*
X0081885Y0040208D03*
X0081885Y0040108D03*
X0081885Y0040008D03*
X0081885Y0039908D03*
X0081885Y0039808D03*
X0081885Y0039708D03*
X0080985Y0039808D03*
X0080985Y0039908D03*
X0080985Y0040008D03*
X0080985Y0040108D03*
X0081885Y0040908D03*
X0081885Y0041008D03*
X0081885Y0041108D03*
X0081885Y0041208D03*
X0081885Y0041308D03*
X0082685Y0039208D03*
X0079585Y0039808D03*
X0079585Y0039908D03*
X0079585Y0040008D03*
X0079585Y0040108D03*
X0078885Y0040108D03*
X0078885Y0040208D03*
X0078885Y0040008D03*
X0078885Y0039908D03*
X0078885Y0039808D03*
X0078885Y0039708D03*
X0078885Y0039608D03*
X0078885Y0039508D03*
X0078885Y0039408D03*
X0078885Y0039308D03*
X0078885Y0039208D03*
X0078885Y0040708D03*
X0078885Y0040808D03*
X0087185Y0052008D03*
X0113985Y0045108D03*
D13*
X0099885Y0039208D03*
X0097685Y0040708D03*
X0088685Y0039208D03*
X0081785Y0040808D03*
X0080285Y0039208D03*
X0078585Y0040608D03*
D14*
X0084935Y0039208D03*
X0090435Y0040708D03*
X0093835Y0040708D03*
X0097735Y0039208D03*
X0098235Y0039408D03*
X0114035Y0043508D03*
X0094835Y0053408D03*
X0086935Y0052108D03*
X0073935Y0054208D03*
X0073935Y0055508D03*
X0069835Y0053408D03*
D15*
X0071335Y0049008D03*
X0081835Y0040708D03*
X0081835Y0040608D03*
X0083035Y0040108D03*
X0084935Y0040708D03*
X0084935Y0039308D03*
X0095835Y0039208D03*
X0095835Y0040708D03*
X0097735Y0039308D03*
X0107635Y0044008D03*
X0114035Y0045008D03*
X0107635Y0057108D03*
X0090435Y0055408D03*
X0086835Y0052208D03*
D16*
X0093235Y0052108D03*
X0085735Y0041508D03*
X0085735Y0041408D03*
X0085735Y0041308D03*
X0085735Y0041208D03*
X0085735Y0041108D03*
X0085735Y0041008D03*
X0085735Y0040908D03*
X0085735Y0040808D03*
X0085735Y0040708D03*
X0085735Y0040208D03*
X0085735Y0040108D03*
X0085735Y0040008D03*
X0085735Y0039908D03*
X0085735Y0039808D03*
X0085735Y0039708D03*
X0085735Y0039308D03*
X0085735Y0039208D03*
X0086535Y0039208D03*
X0086535Y0039608D03*
X0086535Y0039708D03*
X0086535Y0039808D03*
X0086535Y0039908D03*
X0086535Y0040008D03*
X0086535Y0040108D03*
X0086535Y0040208D03*
X0086535Y0040308D03*
X0086535Y0040408D03*
X0086535Y0040508D03*
X0086535Y0040608D03*
X0086535Y0040708D03*
X0086535Y0040808D03*
X0087635Y0040708D03*
X0087635Y0040608D03*
X0087635Y0040508D03*
X0087635Y0040408D03*
X0087635Y0040308D03*
X0087635Y0040208D03*
X0087635Y0040108D03*
X0087635Y0040008D03*
X0087635Y0039908D03*
X0087635Y0039808D03*
X0087635Y0039708D03*
X0087635Y0039608D03*
X0087535Y0039508D03*
X0089235Y0039608D03*
X0089335Y0039708D03*
X0089335Y0039808D03*
X0089335Y0040208D03*
X0089335Y0040308D03*
X0089235Y0040408D03*
X0090035Y0040308D03*
X0090035Y0040208D03*
X0090035Y0040108D03*
X0090035Y0040008D03*
X0090035Y0039908D03*
X0090035Y0039808D03*
X0090035Y0039708D03*
X0090035Y0039608D03*
X0090035Y0039508D03*
X0090035Y0039408D03*
X0090035Y0039308D03*
X0090035Y0039208D03*
X0091135Y0039208D03*
X0091135Y0039308D03*
X0091135Y0039408D03*
X0091135Y0039508D03*
X0091135Y0039608D03*
X0091135Y0039708D03*
X0091135Y0039808D03*
X0091135Y0039908D03*
X0091135Y0040008D03*
X0091135Y0040108D03*
X0091135Y0040208D03*
X0091135Y0040308D03*
X0090135Y0040508D03*
X0093435Y0040208D03*
X0093435Y0040108D03*
X0093435Y0040008D03*
X0093435Y0039908D03*
X0093435Y0039808D03*
X0093435Y0039708D03*
X0093435Y0039608D03*
X0093435Y0039508D03*
X0093435Y0039408D03*
X0093435Y0039308D03*
X0093435Y0039208D03*
X0094535Y0039208D03*
X0094535Y0039308D03*
X0094535Y0039408D03*
X0094535Y0039508D03*
X0094535Y0039608D03*
X0094535Y0039708D03*
X0094535Y0039808D03*
X0094535Y0039908D03*
X0094535Y0040008D03*
X0094535Y0040108D03*
X0094535Y0040208D03*
X0094535Y0040308D03*
X0095235Y0040308D03*
X0095235Y0040208D03*
X0095335Y0040408D03*
X0096335Y0040508D03*
X0096435Y0040408D03*
X0097135Y0040308D03*
X0097135Y0040208D03*
X0097235Y0040408D03*
X0097135Y0039808D03*
X0097135Y0039708D03*
X0096435Y0039608D03*
X0096335Y0039508D03*
X0098435Y0039608D03*
X0098435Y0039708D03*
X0098435Y0040208D03*
X0098435Y0040308D03*
X0099235Y0040308D03*
X0099235Y0040208D03*
X0099335Y0040408D03*
X0099235Y0039708D03*
X0099235Y0039608D03*
X0100535Y0039708D03*
X0100535Y0040208D03*
X0100535Y0040308D03*
X0100435Y0040408D03*
X0093535Y0040408D03*
X0093535Y0040508D03*
X0084435Y0040408D03*
X0084435Y0040308D03*
X0084335Y0040208D03*
X0084335Y0040108D03*
X0084335Y0040008D03*
X0084335Y0039908D03*
X0084335Y0039808D03*
X0084435Y0039608D03*
X0083735Y0039508D03*
X0083735Y0039808D03*
X0082735Y0039508D03*
X0082735Y0040408D03*
X0082835Y0040508D03*
X0081835Y0039608D03*
X0081835Y0039508D03*
X0080935Y0039608D03*
X0080935Y0039708D03*
X0080935Y0040208D03*
X0080935Y0040308D03*
X0080835Y0040408D03*
X0079735Y0040408D03*
X0079635Y0040308D03*
X0079635Y0040208D03*
X0079635Y0039708D03*
X0078835Y0040308D03*
X0078835Y0040408D03*
X0078335Y0040808D03*
X0073935Y0055608D03*
X0107435Y0042308D03*
D17*
X0099885Y0040808D03*
X0088685Y0040808D03*
X0087185Y0039208D03*
X0086685Y0039408D03*
X0085585Y0040508D03*
X0083285Y0040808D03*
X0083385Y0039208D03*
X0080285Y0040808D03*
X0071485Y0049108D03*
X0085185Y0053408D03*
X0101485Y0053408D03*
X0107585Y0055608D03*
X0108585Y0055608D03*
X0108685Y0055508D03*
X0108985Y0055308D03*
X0109085Y0055208D03*
X0109285Y0055108D03*
X0109485Y0054908D03*
X0109785Y0054708D03*
X0109985Y0054508D03*
X0110285Y0054308D03*
X0110385Y0054208D03*
X0110485Y0054108D03*
X0110685Y0054008D03*
X0110785Y0053908D03*
X0110985Y0053808D03*
X0111185Y0053608D03*
X0111585Y0053308D03*
X0111685Y0053208D03*
X0111785Y0053108D03*
X0111985Y0053008D03*
X0112085Y0052908D03*
X0112185Y0052808D03*
D18*
X0111435Y0053408D03*
X0111335Y0053508D03*
X0111035Y0053708D03*
X0110135Y0054408D03*
X0109935Y0054608D03*
X0109635Y0054808D03*
X0109435Y0055008D03*
X0108835Y0055408D03*
X0112735Y0051108D03*
X0100235Y0039408D03*
X0099535Y0039408D03*
X0098335Y0039508D03*
X0097435Y0039408D03*
X0096235Y0039408D03*
X0095835Y0040808D03*
X0094435Y0040508D03*
X0097735Y0040808D03*
X0098335Y0040508D03*
X0091035Y0040508D03*
X0089035Y0039408D03*
X0088335Y0039408D03*
X0087435Y0039408D03*
X0085635Y0039508D03*
X0084935Y0040808D03*
X0083635Y0039908D03*
X0082835Y0039408D03*
X0081635Y0039308D03*
X0081635Y0039208D03*
X0080635Y0039408D03*
X0079935Y0039408D03*
X0078735Y0040508D03*
X0093335Y0052208D03*
X0078335Y0053408D03*
D19*
X0073985Y0054308D03*
X0073985Y0055408D03*
X0080285Y0040708D03*
X0080285Y0039308D03*
X0083285Y0040708D03*
X0088685Y0040708D03*
X0088685Y0039308D03*
X0099885Y0039308D03*
X0099885Y0040708D03*
X0107385Y0042508D03*
X0114085Y0043608D03*
X0113085Y0051208D03*
X0107585Y0057008D03*
D20*
X0113235Y0051308D03*
X0114035Y0044908D03*
X0114035Y0043708D03*
X0107535Y0043908D03*
X0107435Y0042608D03*
X0095835Y0040608D03*
X0095835Y0039308D03*
X0083235Y0040608D03*
X0083335Y0048008D03*
X0080635Y0053208D03*
X0080635Y0053308D03*
X0073935Y0053208D03*
X0073935Y0054408D03*
X0073935Y0055308D03*
X0068435Y0052308D03*
X0093635Y0052308D03*
D21*
X0090585Y0052108D03*
X0090585Y0052008D03*
X0090585Y0051908D03*
X0090585Y0051808D03*
X0090585Y0051708D03*
X0090585Y0051608D03*
X0090585Y0051508D03*
X0090585Y0051408D03*
X0090585Y0051308D03*
X0090585Y0051208D03*
X0090585Y0051108D03*
X0090585Y0051008D03*
X0090585Y0050908D03*
X0090585Y0050808D03*
X0090585Y0050708D03*
X0090585Y0050608D03*
X0090585Y0050508D03*
X0090585Y0050408D03*
X0090585Y0050308D03*
X0090585Y0050208D03*
X0090585Y0050108D03*
X0090585Y0050008D03*
X0096985Y0050108D03*
X0097085Y0050508D03*
X0097085Y0050608D03*
X0097085Y0050708D03*
X0096985Y0051108D03*
X0096985Y0051208D03*
X0099385Y0051008D03*
X0099385Y0050908D03*
X0099385Y0050808D03*
X0099385Y0050708D03*
X0099385Y0050608D03*
X0099385Y0050508D03*
X0099385Y0050408D03*
X0099385Y0050308D03*
X0099385Y0050208D03*
X0099485Y0049708D03*
X0099585Y0051808D03*
X0103485Y0051508D03*
X0103585Y0051308D03*
X0103585Y0051208D03*
X0103585Y0051108D03*
X0103585Y0051008D03*
X0103585Y0050908D03*
X0103585Y0050808D03*
X0103585Y0050708D03*
X0103585Y0050608D03*
X0103585Y0050508D03*
X0103585Y0050408D03*
X0103585Y0050308D03*
X0103585Y0050208D03*
X0103585Y0050108D03*
X0103585Y0050008D03*
X0103485Y0049808D03*
X0103485Y0049708D03*
X0107485Y0043808D03*
X0099885Y0040608D03*
X0088685Y0040608D03*
X0086985Y0039308D03*
X0083185Y0039308D03*
X0083185Y0040008D03*
X0080285Y0040608D03*
X0080585Y0048008D03*
X0083385Y0048108D03*
X0083385Y0048208D03*
X0083385Y0050008D03*
X0083385Y0051308D03*
X0083385Y0051408D03*
X0083385Y0051508D03*
X0083385Y0051608D03*
X0080585Y0053008D03*
X0080585Y0053108D03*
X0076885Y0051808D03*
X0076885Y0051708D03*
X0076885Y0051608D03*
X0076885Y0051508D03*
X0076885Y0051408D03*
X0076885Y0051308D03*
X0076885Y0051208D03*
X0076885Y0051108D03*
X0076885Y0051008D03*
X0076885Y0050908D03*
X0076885Y0050808D03*
X0076885Y0050708D03*
X0076885Y0050608D03*
X0076885Y0050508D03*
X0076885Y0050408D03*
X0076885Y0050308D03*
X0076885Y0050208D03*
X0076885Y0050108D03*
X0076885Y0050008D03*
X0076885Y0049908D03*
X0076885Y0049808D03*
X0076885Y0049708D03*
X0076885Y0049608D03*
X0076885Y0049508D03*
X0076885Y0049408D03*
X0076885Y0049308D03*
X0076885Y0049208D03*
X0076885Y0049108D03*
X0076885Y0049008D03*
X0076885Y0048908D03*
X0076885Y0048808D03*
X0076885Y0048708D03*
X0076885Y0048608D03*
X0076885Y0048508D03*
X0076885Y0048408D03*
X0076885Y0048308D03*
X0076885Y0048208D03*
X0076885Y0048108D03*
X0076885Y0048008D03*
X0073985Y0048608D03*
X0073985Y0048708D03*
X0073985Y0048808D03*
X0073985Y0048908D03*
X0073985Y0049008D03*
X0073985Y0049108D03*
X0073985Y0049208D03*
X0073985Y0049308D03*
X0073985Y0049408D03*
X0073985Y0049508D03*
X0073985Y0049608D03*
X0073985Y0049708D03*
X0073985Y0049808D03*
X0073985Y0049908D03*
X0073985Y0050008D03*
X0073985Y0050108D03*
X0073985Y0050208D03*
X0073985Y0050308D03*
X0073985Y0050408D03*
X0073985Y0050508D03*
X0073985Y0050608D03*
X0073985Y0050708D03*
X0073985Y0050808D03*
X0073985Y0050908D03*
X0073985Y0051008D03*
X0073985Y0051108D03*
X0073985Y0051208D03*
X0073985Y0051308D03*
X0073985Y0051408D03*
X0073985Y0051508D03*
X0073985Y0051608D03*
X0073985Y0051708D03*
X0073985Y0051808D03*
X0073985Y0051908D03*
X0073985Y0052008D03*
X0073985Y0052108D03*
X0073985Y0052208D03*
X0073985Y0052308D03*
X0073985Y0052408D03*
X0073985Y0052508D03*
X0073985Y0052608D03*
X0073985Y0052708D03*
X0073985Y0052808D03*
X0073985Y0052908D03*
X0073985Y0053008D03*
X0073985Y0053108D03*
X0073985Y0054508D03*
X0071185Y0052208D03*
X0071185Y0052108D03*
X0071185Y0051908D03*
X0071185Y0051808D03*
X0071185Y0051708D03*
X0073885Y0048408D03*
X0073885Y0048308D03*
X0073885Y0048208D03*
X0073885Y0048008D03*
X0090585Y0053508D03*
X0090585Y0053608D03*
X0090585Y0053708D03*
X0090585Y0053808D03*
X0090585Y0053908D03*
X0090585Y0054008D03*
X0090585Y0054108D03*
X0090585Y0054208D03*
X0090585Y0054308D03*
X0090585Y0054408D03*
X0090585Y0054508D03*
X0090585Y0054608D03*
X0090585Y0054708D03*
X0090585Y0054808D03*
X0090585Y0054908D03*
X0090585Y0055008D03*
X0090585Y0055108D03*
X0090585Y0055308D03*
X0113285Y0051408D03*
D22*
X0112685Y0051008D03*
X0112585Y0050908D03*
X0112485Y0050808D03*
X0112385Y0050708D03*
X0112385Y0050608D03*
X0112285Y0050508D03*
X0112185Y0050408D03*
X0112185Y0050308D03*
X0112085Y0050208D03*
X0112085Y0050108D03*
X0111985Y0050008D03*
X0111885Y0049908D03*
X0111885Y0049808D03*
X0111785Y0049708D03*
X0111685Y0049608D03*
X0111685Y0049508D03*
X0111585Y0049408D03*
X0111485Y0049308D03*
X0111385Y0049208D03*
X0111385Y0049108D03*
X0111285Y0049008D03*
X0111185Y0048908D03*
X0111185Y0048808D03*
X0111085Y0048708D03*
X0111085Y0048608D03*
X0110985Y0048508D03*
X0110885Y0048408D03*
X0110885Y0048308D03*
X0110785Y0048208D03*
X0110685Y0048108D03*
X0110585Y0048008D03*
X0110585Y0047908D03*
X0110485Y0047808D03*
X0110385Y0047708D03*
X0110385Y0047608D03*
X0110285Y0047508D03*
X0110185Y0047408D03*
X0110185Y0047308D03*
X0110085Y0047208D03*
X0110085Y0047108D03*
X0109885Y0047008D03*
X0109885Y0046908D03*
X0109885Y0046808D03*
X0109685Y0046708D03*
X0109685Y0046608D03*
X0109585Y0046508D03*
X0109585Y0046408D03*
X0109485Y0046308D03*
X0109385Y0046208D03*
X0109385Y0046108D03*
X0109285Y0046008D03*
X0109185Y0045908D03*
X0109185Y0045808D03*
X0109085Y0045708D03*
X0109085Y0045608D03*
X0108885Y0045508D03*
X0108885Y0045408D03*
X0108885Y0045308D03*
X0108685Y0045208D03*
X0108685Y0045108D03*
X0108585Y0045008D03*
X0108585Y0044908D03*
X0108485Y0044808D03*
X0108385Y0044708D03*
X0108385Y0044608D03*
X0108285Y0044508D03*
X0108185Y0044408D03*
X0108185Y0044308D03*
X0108085Y0044208D03*
X0107985Y0044108D03*
X0107385Y0042408D03*
X0100385Y0040508D03*
X0100485Y0039608D03*
X0100385Y0039508D03*
X0099385Y0039508D03*
X0099385Y0040508D03*
X0098385Y0040408D03*
X0097285Y0040508D03*
X0097185Y0039608D03*
X0097285Y0039508D03*
X0095385Y0039408D03*
X0095385Y0040508D03*
X0094485Y0040408D03*
X0093885Y0040808D03*
X0091985Y0041308D03*
X0091985Y0041408D03*
X0091085Y0040408D03*
X0090485Y0040808D03*
X0089185Y0040508D03*
X0089185Y0039508D03*
X0086585Y0039508D03*
X0085685Y0039608D03*
X0085685Y0040308D03*
X0085685Y0040408D03*
X0084585Y0040508D03*
X0084485Y0039508D03*
X0083685Y0039408D03*
X0081785Y0039408D03*
X0080785Y0039508D03*
X0080785Y0040508D03*
X0079785Y0040508D03*
X0079685Y0039608D03*
X0079785Y0039508D03*
X0078385Y0040708D03*
X0093385Y0049008D03*
X0107585Y0057208D03*
X0113285Y0052808D03*
X0073585Y0053308D03*
D23*
X0073935Y0054808D03*
X0073935Y0054908D03*
X0071035Y0052308D03*
X0071035Y0051508D03*
X0068335Y0049708D03*
X0080435Y0051908D03*
X0083635Y0052208D03*
X0083535Y0049308D03*
X0086735Y0050108D03*
X0086835Y0050008D03*
X0096735Y0049308D03*
X0096735Y0052008D03*
X0096635Y0052108D03*
X0099835Y0052208D03*
X0099835Y0049108D03*
X0103135Y0049108D03*
X0103135Y0052208D03*
X0107635Y0056008D03*
X0107635Y0056708D03*
X0113335Y0051608D03*
X0114035Y0044608D03*
X0114035Y0043908D03*
X0107435Y0043508D03*
X0107435Y0043408D03*
X0107435Y0042908D03*
X0085135Y0040608D03*
X0085135Y0039408D03*
D24*
X0088185Y0039608D03*
X0088185Y0040408D03*
X0081385Y0039408D03*
X0078185Y0040508D03*
X0068085Y0052208D03*
D25*
X0073935Y0054108D03*
X0093335Y0049108D03*
X0095335Y0039508D03*
X0088235Y0039508D03*
X0083735Y0040508D03*
X0107635Y0055508D03*
D26*
X0107785Y0055808D03*
X0107685Y0055908D03*
X0107585Y0056108D03*
X0107585Y0056208D03*
X0107585Y0056308D03*
X0107585Y0056408D03*
X0107585Y0056508D03*
X0107585Y0056608D03*
X0112885Y0052708D03*
X0112985Y0052608D03*
X0113185Y0052508D03*
X0113185Y0052408D03*
X0113285Y0052308D03*
X0113285Y0052208D03*
X0113285Y0052108D03*
X0113285Y0052008D03*
X0113285Y0051908D03*
X0113285Y0051808D03*
X0113285Y0051708D03*
X0103085Y0049008D03*
X0099885Y0049008D03*
X0099785Y0052108D03*
X0096585Y0052208D03*
X0096585Y0049108D03*
X0107385Y0043308D03*
X0107385Y0043008D03*
X0113985Y0044008D03*
X0095885Y0040108D03*
X0095885Y0040008D03*
X0095885Y0039908D03*
X0083585Y0049208D03*
X0080385Y0052008D03*
X0077185Y0052308D03*
X0068485Y0049808D03*
D27*
X0068285Y0049608D03*
X0068285Y0049108D03*
X0068285Y0049008D03*
X0073985Y0054608D03*
X0073985Y0054708D03*
X0073985Y0055008D03*
X0073985Y0055108D03*
X0076985Y0052108D03*
X0076985Y0052008D03*
X0077085Y0052208D03*
X0080485Y0051808D03*
X0080485Y0051708D03*
X0080485Y0051608D03*
X0083485Y0051908D03*
X0083485Y0052008D03*
X0083585Y0052108D03*
X0083485Y0049608D03*
X0083485Y0049508D03*
X0083485Y0049408D03*
X0085585Y0047908D03*
X0086885Y0049008D03*
X0086985Y0049708D03*
X0086485Y0052308D03*
X0090385Y0049108D03*
X0089385Y0047908D03*
X0096685Y0049208D03*
X0096785Y0049408D03*
X0096885Y0049508D03*
X0096885Y0051808D03*
X0096785Y0051908D03*
X0099685Y0052008D03*
X0099685Y0049308D03*
X0099685Y0049208D03*
X0103185Y0049208D03*
X0103385Y0049408D03*
X0103385Y0051808D03*
X0103285Y0052008D03*
X0103185Y0052108D03*
X0107585Y0056808D03*
X0107385Y0043708D03*
X0107385Y0043608D03*
X0107385Y0042808D03*
X0107385Y0042708D03*
X0114085Y0043808D03*
X0114085Y0044708D03*
X0097885Y0040608D03*
D28*
X0094035Y0040608D03*
X0090635Y0040608D03*
X0080535Y0048108D03*
X0080535Y0048208D03*
X0080535Y0048308D03*
X0080535Y0048408D03*
X0080535Y0048508D03*
X0080535Y0048608D03*
X0080535Y0048708D03*
X0080535Y0048808D03*
X0080535Y0048908D03*
X0080535Y0049008D03*
X0080535Y0049108D03*
X0080535Y0049208D03*
X0080535Y0049308D03*
X0080535Y0049408D03*
X0080535Y0049508D03*
X0080535Y0049608D03*
X0080535Y0049708D03*
X0080535Y0049808D03*
X0080535Y0049908D03*
X0080535Y0050008D03*
X0080535Y0050108D03*
X0080535Y0050208D03*
X0080535Y0050308D03*
X0080535Y0050408D03*
X0080535Y0050508D03*
X0080535Y0050608D03*
X0080535Y0050708D03*
X0080535Y0050808D03*
X0080535Y0050908D03*
X0080535Y0051008D03*
X0080535Y0051108D03*
X0080535Y0051208D03*
X0080535Y0051308D03*
X0080535Y0051408D03*
X0080535Y0051508D03*
X0083435Y0051708D03*
X0083435Y0051808D03*
X0083435Y0050108D03*
X0083435Y0049908D03*
X0083435Y0049808D03*
X0083435Y0049708D03*
X0086935Y0049808D03*
X0086935Y0049908D03*
X0087035Y0049608D03*
X0087035Y0049508D03*
X0087035Y0049408D03*
X0086935Y0049308D03*
X0086935Y0049208D03*
X0086935Y0049108D03*
X0090335Y0049008D03*
X0090435Y0049208D03*
X0090435Y0049308D03*
X0090435Y0049408D03*
X0090535Y0049508D03*
X0090535Y0049608D03*
X0090535Y0049708D03*
X0090535Y0049808D03*
X0090535Y0049908D03*
X0090535Y0052208D03*
X0090535Y0053408D03*
X0090535Y0055208D03*
X0096935Y0051708D03*
X0096935Y0051608D03*
X0096935Y0051508D03*
X0096935Y0051408D03*
X0096935Y0051308D03*
X0097035Y0051008D03*
X0097035Y0050908D03*
X0097035Y0050808D03*
X0097035Y0050408D03*
X0097035Y0050308D03*
X0097035Y0050208D03*
X0096935Y0050008D03*
X0096935Y0049908D03*
X0096935Y0049808D03*
X0096935Y0049708D03*
X0096935Y0049608D03*
X0099435Y0049808D03*
X0099435Y0049908D03*
X0099435Y0050008D03*
X0099435Y0050108D03*
X0099535Y0049608D03*
X0099535Y0049508D03*
X0099635Y0049408D03*
X0099435Y0051108D03*
X0099435Y0051208D03*
X0099435Y0051308D03*
X0099435Y0051408D03*
X0099435Y0051508D03*
X0099535Y0051608D03*
X0099535Y0051708D03*
X0099635Y0051908D03*
X0103335Y0051908D03*
X0103435Y0051708D03*
X0103435Y0051608D03*
X0103535Y0051408D03*
X0103535Y0049908D03*
X0103435Y0049608D03*
X0103435Y0049508D03*
X0103335Y0049308D03*
X0113335Y0051508D03*
X0107635Y0056908D03*
X0114035Y0044808D03*
X0076935Y0051908D03*
X0073935Y0055208D03*
X0071235Y0052008D03*
X0071135Y0051608D03*
X0068235Y0049508D03*
X0068235Y0049408D03*
X0068235Y0049308D03*
X0068235Y0049208D03*
X0073835Y0048108D03*
X0073935Y0048508D03*
D29*
X0070935Y0051408D03*
X0080335Y0052108D03*
X0083835Y0052308D03*
X0083635Y0049108D03*
X0101535Y0047908D03*
X0107435Y0043208D03*
X0107435Y0043108D03*
X0114035Y0044108D03*
X0114035Y0044208D03*
X0114035Y0044308D03*
X0114035Y0044408D03*
X0114035Y0044508D03*
X0107935Y0055708D03*
D30*
X0101485Y0053308D03*
X0096385Y0052308D03*
X0094785Y0047908D03*
X0085185Y0053308D03*
D31*
X0080285Y0052208D03*
X0078285Y0053308D03*
X0069785Y0047908D03*
X0068585Y0049908D03*
X0089385Y0048008D03*
X0096485Y0049008D03*
X0100085Y0052308D03*
X0102885Y0052308D03*
D32*
X0101485Y0048008D03*
X0089785Y0048808D03*
X0089785Y0048908D03*
X0089685Y0048608D03*
X0069685Y0053308D03*
D33*
X0069585Y0053208D03*
X0069685Y0050608D03*
X0069585Y0050508D03*
X0085285Y0053108D03*
X0094685Y0048008D03*
X0101485Y0053108D03*
D34*
X0089535Y0048208D03*
X0085635Y0048008D03*
X0068835Y0050008D03*
D35*
X0069385Y0050408D03*
X0069885Y0048008D03*
X0101485Y0048108D03*
D36*
X0094735Y0048108D03*
D37*
X0089435Y0048108D03*
X0083735Y0049008D03*
X0070835Y0051308D03*
D38*
X0070535Y0051208D03*
X0068935Y0050108D03*
X0078235Y0053208D03*
X0085635Y0048108D03*
X0089635Y0048508D03*
X0089735Y0048708D03*
D39*
X0069935Y0048108D03*
D40*
X0069685Y0053108D03*
X0094885Y0053108D03*
X0101485Y0048208D03*
D41*
X0094885Y0048208D03*
X0094885Y0048308D03*
X0090385Y0052308D03*
X0085285Y0053008D03*
X0084585Y0051108D03*
X0069985Y0048208D03*
X0101485Y0052908D03*
D42*
X0085235Y0053208D03*
X0085635Y0048208D03*
X0070235Y0051008D03*
D43*
X0069785Y0052908D03*
X0069785Y0053008D03*
X0084485Y0051208D03*
X0101485Y0053008D03*
X0101485Y0048308D03*
D44*
X0094885Y0053308D03*
X0089585Y0048408D03*
X0089585Y0048308D03*
X0080085Y0052308D03*
D45*
X0084935Y0048308D03*
D46*
X0090435Y0052408D03*
X0090435Y0052508D03*
X0090435Y0052608D03*
X0090435Y0052708D03*
X0090535Y0053008D03*
X0090535Y0053108D03*
X0090535Y0053208D03*
X0095035Y0052908D03*
X0095035Y0052808D03*
X0069835Y0052708D03*
X0069835Y0052608D03*
X0069935Y0048308D03*
D47*
X0069885Y0048408D03*
X0069885Y0052408D03*
X0069885Y0052508D03*
X0085285Y0052908D03*
X0090485Y0052908D03*
X0090485Y0052808D03*
X0094985Y0048408D03*
X0101485Y0048408D03*
D48*
X0101485Y0048708D03*
X0101485Y0048808D03*
X0101485Y0052508D03*
X0084985Y0050708D03*
X0084985Y0050608D03*
X0084985Y0048408D03*
D49*
X0085185Y0052708D03*
X0095085Y0052708D03*
X0095085Y0052608D03*
X0095185Y0048808D03*
X0095085Y0048608D03*
X0101485Y0048508D03*
X0101485Y0052708D03*
X0069785Y0048708D03*
D50*
X0069835Y0048608D03*
X0069835Y0048508D03*
X0084735Y0051008D03*
X0085235Y0052808D03*
X0095035Y0048508D03*
X0101435Y0052808D03*
D51*
X0085035Y0048508D03*
X0078935Y0052908D03*
D52*
X0085085Y0052408D03*
X0084885Y0050808D03*
X0095185Y0052408D03*
X0101485Y0052608D03*
X0101485Y0048608D03*
D53*
X0101485Y0048908D03*
X0101485Y0052408D03*
X0085085Y0050508D03*
X0085085Y0050408D03*
X0085085Y0048708D03*
X0085085Y0048608D03*
X0078885Y0052708D03*
X0078885Y0052808D03*
D54*
X0084835Y0050908D03*
X0085135Y0052508D03*
X0085135Y0052608D03*
X0095135Y0052508D03*
X0095235Y0048908D03*
X0095135Y0048708D03*
X0069735Y0048808D03*
X0069735Y0048908D03*
D55*
X0078835Y0052508D03*
X0078835Y0052608D03*
X0085135Y0050308D03*
X0085135Y0050208D03*
X0085135Y0048908D03*
X0085135Y0048808D03*
D56*
X0069185Y0050208D03*
X0101485Y0053208D03*
D57*
X0094935Y0053208D03*
X0078235Y0053008D03*
X0070035Y0050908D03*
X0070035Y0050808D03*
X0069835Y0050708D03*
X0069335Y0050308D03*
D58*
X0070435Y0051108D03*
X0078235Y0053108D03*
D59*
X0078785Y0052408D03*
D60*
X0069835Y0052808D03*
X0090535Y0053308D03*
X0094935Y0053008D03*
D61*
X0131455Y0046360D02*
X0133390Y0046360D01*
X0132423Y0046360D02*
X0132423Y0043458D01*
X0134402Y0043458D02*
X0134402Y0045393D01*
X0135369Y0046360D01*
X0136337Y0045393D01*
X0136337Y0043458D01*
X0137348Y0043941D02*
X0137832Y0043458D01*
X0139283Y0043458D01*
X0139283Y0046360D01*
X0137832Y0046360D01*
X0137348Y0045876D01*
X0137348Y0045393D01*
X0137832Y0044909D01*
X0139283Y0044909D01*
X0137832Y0044909D02*
X0137348Y0044425D01*
X0137348Y0043941D01*
X0136337Y0044909D02*
X0134402Y0044909D01*
X0140295Y0046360D02*
X0142230Y0046360D01*
X0141263Y0046360D02*
X0141263Y0043458D01*
X0143242Y0043458D02*
X0144209Y0044425D01*
X0143725Y0044425D02*
X0145177Y0044425D01*
X0145177Y0043458D02*
X0145177Y0046360D01*
X0143725Y0046360D01*
X0143242Y0045876D01*
X0143242Y0044909D01*
X0143725Y0044425D01*
X0152081Y0043941D02*
X0152565Y0043458D01*
X0153532Y0043458D01*
X0154016Y0043941D01*
X0154016Y0045876D01*
X0153532Y0046360D01*
X0152565Y0046360D01*
X0152081Y0045876D01*
X0152081Y0044909D02*
X0153049Y0044909D01*
X0152081Y0044909D02*
X0152081Y0043941D01*
X0163867Y0043941D02*
X0163867Y0044909D01*
X0164835Y0044909D01*
X0165802Y0045876D02*
X0165802Y0043941D01*
X0165318Y0043458D01*
X0164351Y0043458D01*
X0163867Y0043941D01*
X0163867Y0045876D02*
X0164351Y0046360D01*
X0165318Y0046360D01*
X0165802Y0045876D01*
X0172707Y0046360D02*
X0174642Y0046360D01*
X0173674Y0046360D02*
X0173674Y0043458D01*
X0175653Y0043458D02*
X0175653Y0045393D01*
X0176621Y0046360D01*
X0177588Y0045393D01*
X0177588Y0043458D01*
X0178600Y0043941D02*
X0179084Y0043458D01*
X0180535Y0043458D01*
X0180535Y0046360D01*
X0179084Y0046360D01*
X0178600Y0045876D01*
X0178600Y0045393D01*
X0179084Y0044909D01*
X0180535Y0044909D01*
X0179084Y0044909D02*
X0178600Y0044425D01*
X0178600Y0043941D01*
X0177588Y0044909D02*
X0175653Y0044909D01*
X0231416Y0043458D02*
X0233351Y0043458D01*
X0232383Y0043458D02*
X0232383Y0046360D01*
X0233351Y0045393D01*
X0234362Y0044909D02*
X0236297Y0044909D01*
X0236297Y0043458D02*
X0236297Y0046360D01*
X0234362Y0046360D02*
X0234362Y0043458D01*
X0241223Y0043458D02*
X0241223Y0046360D01*
X0242190Y0046360D02*
X0240255Y0046360D01*
X0243202Y0045393D02*
X0243202Y0043458D01*
X0243202Y0044909D02*
X0245137Y0044909D01*
X0245137Y0045393D02*
X0244169Y0046360D01*
X0243202Y0045393D01*
X0245137Y0045393D02*
X0245137Y0043458D01*
X0246148Y0043941D02*
X0246632Y0043458D01*
X0248083Y0043458D01*
X0248083Y0046360D01*
X0246632Y0046360D01*
X0246148Y0045876D01*
X0246148Y0045393D01*
X0246632Y0044909D01*
X0248083Y0044909D01*
X0246632Y0044909D02*
X0246148Y0044425D01*
X0246148Y0043941D01*
X0252042Y0043458D02*
X0253977Y0043458D01*
X0252042Y0045393D01*
X0252042Y0045876D01*
X0252525Y0046360D01*
X0253493Y0046360D01*
X0253977Y0045876D01*
X0254988Y0046360D02*
X0254988Y0043458D01*
X0254988Y0044909D02*
X0256923Y0044909D01*
X0256923Y0043458D02*
X0256923Y0046360D01*
X0260881Y0046360D02*
X0262816Y0046360D01*
X0261849Y0046360D02*
X0261849Y0043458D01*
X0263828Y0043458D02*
X0263828Y0045393D01*
X0264795Y0046360D01*
X0265763Y0045393D01*
X0265763Y0043458D01*
X0266774Y0043941D02*
X0267258Y0043458D01*
X0268709Y0043458D01*
X0268709Y0046360D01*
X0267258Y0046360D01*
X0266774Y0045876D01*
X0266774Y0045393D01*
X0267258Y0044909D01*
X0268709Y0044909D01*
X0267258Y0044909D02*
X0266774Y0044425D01*
X0266774Y0043941D01*
X0265763Y0044909D02*
X0263828Y0044909D01*
X0272667Y0045393D02*
X0273151Y0044909D01*
X0272667Y0044425D01*
X0272667Y0043941D01*
X0273151Y0043458D01*
X0274118Y0043458D01*
X0274602Y0043941D01*
X0275614Y0043458D02*
X0275614Y0046360D01*
X0274602Y0045876D02*
X0274118Y0046360D01*
X0273151Y0046360D01*
X0272667Y0045876D01*
X0272667Y0045393D01*
X0273151Y0044909D02*
X0273635Y0044909D01*
X0275614Y0044909D02*
X0277549Y0044909D01*
X0277549Y0043458D02*
X0277549Y0046360D01*
X0281507Y0046360D02*
X0283442Y0046360D01*
X0282474Y0046360D02*
X0282474Y0043458D01*
X0284453Y0043458D02*
X0284453Y0045393D01*
X0285421Y0046360D01*
X0286388Y0045393D01*
X0286388Y0043458D01*
X0287400Y0043941D02*
X0287884Y0043458D01*
X0289335Y0043458D01*
X0289335Y0046360D01*
X0287884Y0046360D01*
X0287400Y0045876D01*
X0287400Y0045393D01*
X0287884Y0044909D01*
X0289335Y0044909D01*
X0287884Y0044909D02*
X0287400Y0044425D01*
X0287400Y0043941D01*
X0286388Y0044909D02*
X0284453Y0044909D01*
X0051835Y0158941D02*
X0051351Y0158458D01*
X0050384Y0158458D01*
X0049900Y0158941D01*
X0049900Y0159425D01*
X0050384Y0159909D01*
X0051351Y0159909D01*
X0051835Y0160393D01*
X0051835Y0160876D01*
X0051351Y0161360D01*
X0050384Y0161360D01*
X0049900Y0160876D01*
X0048888Y0160876D02*
X0048888Y0158941D01*
X0048404Y0158458D01*
X0047437Y0158458D01*
X0046953Y0158941D01*
X0045942Y0158458D02*
X0044007Y0158458D01*
X0045942Y0158458D02*
X0045942Y0161360D01*
X0046953Y0160876D02*
X0047437Y0161360D01*
X0048404Y0161360D01*
X0048888Y0160876D01*
X0048888Y0180958D02*
X0047437Y0180958D01*
X0046953Y0181441D01*
X0046953Y0183376D01*
X0047437Y0183860D01*
X0048888Y0183860D01*
X0048888Y0180958D01*
X0049900Y0181441D02*
X0049900Y0181925D01*
X0050384Y0182409D01*
X0051351Y0182409D01*
X0051835Y0182893D01*
X0051835Y0183376D01*
X0051351Y0183860D01*
X0050384Y0183860D01*
X0049900Y0183376D01*
X0049900Y0181441D02*
X0050384Y0180958D01*
X0051351Y0180958D01*
X0051835Y0181441D01*
X0045942Y0180958D02*
X0045942Y0182893D01*
X0044974Y0183860D01*
X0044007Y0182893D01*
X0044007Y0180958D01*
X0044007Y0182409D02*
X0045942Y0182409D01*
X0036835Y0203458D02*
X0036835Y0206360D01*
X0035384Y0206360D01*
X0034900Y0205876D01*
X0034900Y0204909D01*
X0035384Y0204425D01*
X0036835Y0204425D01*
X0035867Y0204425D02*
X0034900Y0203458D01*
X0033888Y0203941D02*
X0033404Y0203458D01*
X0032437Y0203458D01*
X0031953Y0203941D01*
X0031953Y0204425D01*
X0032437Y0204909D01*
X0033404Y0204909D01*
X0033888Y0205393D01*
X0033888Y0205876D01*
X0033404Y0206360D01*
X0032437Y0206360D01*
X0031953Y0205876D01*
X0030942Y0206360D02*
X0029007Y0206360D01*
X0029974Y0206360D02*
X0029974Y0203458D01*
X0029974Y0215958D02*
X0029974Y0218860D01*
X0029007Y0218860D02*
X0030942Y0218860D01*
X0031953Y0218376D02*
X0032437Y0218860D01*
X0033404Y0218860D01*
X0033888Y0218376D01*
X0033888Y0217893D01*
X0033404Y0217409D01*
X0032437Y0217409D01*
X0031953Y0216925D01*
X0031953Y0216441D01*
X0032437Y0215958D01*
X0033404Y0215958D01*
X0033888Y0216441D01*
X0035867Y0215958D02*
X0035867Y0218860D01*
X0034900Y0218860D02*
X0036835Y0218860D01*
X0234716Y0190876D02*
X0235200Y0191360D01*
X0236168Y0191360D01*
X0236651Y0190876D01*
X0236651Y0188941D01*
X0236168Y0188458D01*
X0235200Y0188458D01*
X0234716Y0188941D01*
X0234716Y0189909D01*
X0235684Y0189909D01*
X0243556Y0190876D02*
X0244040Y0191360D01*
X0245007Y0191360D01*
X0245491Y0190876D01*
X0245491Y0188941D01*
X0245007Y0188458D01*
X0244040Y0188458D01*
X0243556Y0188941D01*
X0246503Y0188941D02*
X0246986Y0188458D01*
X0247954Y0188458D01*
X0248438Y0188941D01*
X0248438Y0190876D01*
X0247954Y0191360D01*
X0246986Y0191360D01*
X0246503Y0190876D01*
X0249449Y0191360D02*
X0249449Y0189425D01*
X0250417Y0188458D01*
X0251384Y0189425D01*
X0251384Y0191360D01*
X0255342Y0190876D02*
X0255826Y0191360D01*
X0256793Y0191360D01*
X0257277Y0190876D01*
X0257277Y0188941D01*
X0256793Y0188458D01*
X0255826Y0188458D01*
X0255342Y0188941D01*
X0255342Y0189909D01*
X0256310Y0189909D01*
X0264182Y0191360D02*
X0264182Y0188458D01*
X0266117Y0188458D02*
X0266117Y0191360D01*
X0265149Y0190393D01*
X0264182Y0191360D01*
X0267128Y0190876D02*
X0267128Y0190393D01*
X0267612Y0189909D01*
X0267128Y0189425D01*
X0267128Y0188941D01*
X0267612Y0188458D01*
X0268579Y0188458D01*
X0269063Y0188941D01*
X0268096Y0189909D02*
X0267612Y0189909D01*
X0267128Y0190876D02*
X0267612Y0191360D01*
X0268579Y0191360D01*
X0269063Y0190876D01*
X0275968Y0190876D02*
X0276451Y0191360D01*
X0277419Y0191360D01*
X0277903Y0190876D01*
X0277903Y0188941D01*
X0277419Y0188458D01*
X0276451Y0188458D01*
X0275968Y0188941D01*
X0275968Y0189909D01*
X0276935Y0189909D01*
X0284807Y0188458D02*
X0286742Y0188458D01*
X0285775Y0188458D02*
X0285775Y0191360D01*
X0286742Y0190393D01*
X0287732Y0188941D02*
X0287732Y0188458D01*
X0288216Y0188458D01*
X0288216Y0188941D01*
X0287732Y0188941D01*
X0289227Y0188941D02*
X0289711Y0188458D01*
X0290678Y0188458D01*
X0291162Y0188941D01*
X0290195Y0189909D02*
X0289711Y0189909D01*
X0289227Y0189425D01*
X0289227Y0188941D01*
X0289711Y0189909D02*
X0289227Y0190393D01*
X0289227Y0190876D01*
X0289711Y0191360D01*
X0290678Y0191360D01*
X0291162Y0190876D01*
X0295120Y0190876D02*
X0295604Y0191360D01*
X0296571Y0191360D01*
X0297055Y0190876D01*
X0297055Y0188941D01*
X0296571Y0188458D01*
X0295604Y0188458D01*
X0295120Y0188941D01*
X0295120Y0189909D01*
X0296088Y0189909D01*
X0303960Y0190393D02*
X0305895Y0188458D01*
X0303960Y0188458D01*
X0303960Y0190393D02*
X0303960Y0190876D01*
X0304443Y0191360D01*
X0305411Y0191360D01*
X0305895Y0190876D01*
X0306884Y0188941D02*
X0306884Y0188458D01*
X0307368Y0188458D01*
X0307368Y0188941D01*
X0306884Y0188941D01*
X0308379Y0188941D02*
X0308379Y0189425D01*
X0308863Y0189909D01*
X0309347Y0189909D01*
X0308863Y0189909D02*
X0308379Y0190393D01*
X0308379Y0190876D01*
X0308863Y0191360D01*
X0309831Y0191360D01*
X0310314Y0190876D01*
X0310314Y0188941D02*
X0309831Y0188458D01*
X0308863Y0188458D01*
X0308379Y0188941D01*
X0317219Y0188941D02*
X0317219Y0189909D01*
X0318186Y0189909D01*
X0317219Y0190876D02*
X0317703Y0191360D01*
X0318670Y0191360D01*
X0319154Y0190876D01*
X0319154Y0188941D01*
X0318670Y0188458D01*
X0317703Y0188458D01*
X0317219Y0188941D01*
X0323112Y0188458D02*
X0325047Y0188458D01*
X0324080Y0188458D02*
X0324080Y0191360D01*
X0325047Y0190393D01*
X0326037Y0188941D02*
X0326037Y0188458D01*
X0326520Y0188458D01*
X0326520Y0188941D01*
X0326037Y0188941D01*
X0327532Y0188941D02*
X0328016Y0188458D01*
X0328983Y0188458D01*
X0329467Y0188941D01*
X0329467Y0189909D02*
X0328499Y0190393D01*
X0328016Y0190393D01*
X0327532Y0189909D01*
X0327532Y0188941D01*
X0329467Y0189909D02*
X0329467Y0191360D01*
X0327532Y0191360D01*
X0336371Y0190876D02*
X0336855Y0191360D01*
X0337823Y0191360D01*
X0338306Y0190876D01*
X0338306Y0188941D01*
X0337823Y0188458D01*
X0336855Y0188458D01*
X0336371Y0188941D01*
X0336371Y0189909D01*
X0337339Y0189909D01*
X0342264Y0190393D02*
X0342264Y0190876D01*
X0342748Y0191360D01*
X0343716Y0191360D01*
X0344199Y0190876D01*
X0342264Y0190393D02*
X0344199Y0188458D01*
X0342264Y0188458D01*
X0345189Y0188458D02*
X0345673Y0188458D01*
X0345673Y0188941D01*
X0345189Y0188941D01*
X0345189Y0188458D01*
X0346684Y0188941D02*
X0347168Y0188458D01*
X0348135Y0188458D01*
X0348619Y0188941D01*
X0348619Y0189909D02*
X0347652Y0190393D01*
X0347168Y0190393D01*
X0346684Y0189909D01*
X0346684Y0188941D01*
X0348619Y0189909D02*
X0348619Y0191360D01*
X0346684Y0191360D01*
X0355524Y0190876D02*
X0356007Y0191360D01*
X0356975Y0191360D01*
X0357459Y0190876D01*
X0357459Y0188941D01*
X0356975Y0188458D01*
X0356007Y0188458D01*
X0355524Y0188941D01*
X0355524Y0189909D01*
X0356491Y0189909D01*
X0364363Y0188458D02*
X0366298Y0188458D01*
X0365331Y0188458D02*
X0365331Y0191360D01*
X0366298Y0190393D01*
X0367310Y0188458D02*
X0369245Y0188458D01*
X0368277Y0188458D02*
X0368277Y0191360D01*
X0369245Y0190393D01*
X0376149Y0190876D02*
X0376633Y0191360D01*
X0377601Y0191360D01*
X0378084Y0190876D01*
X0378084Y0188941D01*
X0377601Y0188458D01*
X0376633Y0188458D01*
X0376149Y0188941D01*
X0376149Y0189909D01*
X0377117Y0189909D01*
X0384989Y0189909D02*
X0385473Y0189425D01*
X0386924Y0189425D01*
X0386924Y0188458D02*
X0386924Y0191360D01*
X0385473Y0191360D01*
X0384989Y0190876D01*
X0384989Y0189909D01*
X0385956Y0189425D02*
X0384989Y0188458D01*
X0387921Y0188458D02*
X0388888Y0188458D01*
X0388404Y0188458D02*
X0388404Y0191360D01*
X0387921Y0191360D02*
X0388888Y0191360D01*
X0389900Y0190876D02*
X0389900Y0188941D01*
X0390384Y0188458D01*
X0391835Y0188458D01*
X0391835Y0191360D01*
X0390384Y0191360D01*
X0389900Y0190876D01*
X0044335Y0045876D02*
X0044335Y0043941D01*
X0043851Y0043458D01*
X0042884Y0043458D01*
X0042400Y0043941D01*
X0042400Y0044909D01*
X0043367Y0044909D01*
X0042400Y0045876D02*
X0042884Y0046360D01*
X0043851Y0046360D01*
X0044335Y0045876D01*
X0035495Y0045876D02*
X0035495Y0045393D01*
X0035011Y0044909D01*
X0034044Y0044909D01*
X0033560Y0044425D01*
X0033560Y0043941D01*
X0034044Y0043458D01*
X0035011Y0043458D01*
X0035495Y0043941D01*
X0035495Y0045876D02*
X0035011Y0046360D01*
X0034044Y0046360D01*
X0033560Y0045876D01*
X0032549Y0045876D02*
X0032065Y0046360D01*
X0031097Y0046360D01*
X0030614Y0045876D01*
X0029602Y0044909D02*
X0027667Y0044909D01*
X0028635Y0045876D02*
X0028635Y0043941D01*
X0030614Y0043941D02*
X0031097Y0043458D01*
X0032065Y0043458D01*
X0032549Y0043941D01*
X0032549Y0045876D01*
D62*
X0059406Y0111608D02*
X0070406Y0111608D01*
X0070466Y0111610D01*
X0070527Y0111615D01*
X0070586Y0111624D01*
X0070645Y0111637D01*
X0070704Y0111653D01*
X0070761Y0111673D01*
X0070816Y0111696D01*
X0070871Y0111723D01*
X0070923Y0111752D01*
X0070974Y0111785D01*
X0071023Y0111821D01*
X0071069Y0111859D01*
X0071113Y0111901D01*
X0071155Y0111945D01*
X0071193Y0111991D01*
X0071229Y0112040D01*
X0071262Y0112091D01*
X0071291Y0112143D01*
X0071318Y0112198D01*
X0071341Y0112253D01*
X0071361Y0112310D01*
X0071377Y0112369D01*
X0071390Y0112428D01*
X0071399Y0112487D01*
X0071404Y0112548D01*
X0071406Y0112608D01*
X0071406Y0118608D01*
X0071404Y0118668D01*
X0071399Y0118729D01*
X0071390Y0118788D01*
X0071377Y0118847D01*
X0071361Y0118906D01*
X0071341Y0118963D01*
X0071318Y0119018D01*
X0071291Y0119073D01*
X0071262Y0119125D01*
X0071229Y0119176D01*
X0071193Y0119225D01*
X0071155Y0119271D01*
X0071113Y0119315D01*
X0071069Y0119357D01*
X0071023Y0119395D01*
X0070974Y0119431D01*
X0070923Y0119464D01*
X0070871Y0119493D01*
X0070816Y0119520D01*
X0070761Y0119543D01*
X0070704Y0119563D01*
X0070645Y0119579D01*
X0070586Y0119592D01*
X0070527Y0119601D01*
X0070466Y0119606D01*
X0070406Y0119608D01*
X0059406Y0119608D01*
X0059346Y0119606D01*
X0059285Y0119601D01*
X0059226Y0119592D01*
X0059167Y0119579D01*
X0059108Y0119563D01*
X0059051Y0119543D01*
X0058996Y0119520D01*
X0058941Y0119493D01*
X0058889Y0119464D01*
X0058838Y0119431D01*
X0058789Y0119395D01*
X0058743Y0119357D01*
X0058699Y0119315D01*
X0058657Y0119271D01*
X0058619Y0119225D01*
X0058583Y0119176D01*
X0058550Y0119125D01*
X0058521Y0119073D01*
X0058494Y0119018D01*
X0058471Y0118963D01*
X0058451Y0118906D01*
X0058435Y0118847D01*
X0058422Y0118788D01*
X0058413Y0118729D01*
X0058408Y0118668D01*
X0058406Y0118608D01*
X0058406Y0112608D01*
X0058408Y0112548D01*
X0058413Y0112487D01*
X0058422Y0112428D01*
X0058435Y0112369D01*
X0058451Y0112310D01*
X0058471Y0112253D01*
X0058494Y0112198D01*
X0058521Y0112143D01*
X0058550Y0112091D01*
X0058583Y0112040D01*
X0058619Y0111991D01*
X0058657Y0111945D01*
X0058699Y0111901D01*
X0058743Y0111859D01*
X0058789Y0111821D01*
X0058838Y0111785D01*
X0058889Y0111752D01*
X0058941Y0111723D01*
X0058996Y0111696D01*
X0059051Y0111673D01*
X0059108Y0111653D01*
X0059167Y0111637D01*
X0059226Y0111624D01*
X0059285Y0111615D01*
X0059346Y0111610D01*
X0059406Y0111608D01*
X0059406Y0120808D02*
X0070406Y0120808D01*
X0070466Y0120810D01*
X0070527Y0120815D01*
X0070586Y0120824D01*
X0070645Y0120837D01*
X0070704Y0120853D01*
X0070761Y0120873D01*
X0070816Y0120896D01*
X0070871Y0120923D01*
X0070923Y0120952D01*
X0070974Y0120985D01*
X0071023Y0121021D01*
X0071069Y0121059D01*
X0071113Y0121101D01*
X0071155Y0121145D01*
X0071193Y0121191D01*
X0071229Y0121240D01*
X0071262Y0121291D01*
X0071291Y0121343D01*
X0071318Y0121398D01*
X0071341Y0121453D01*
X0071361Y0121510D01*
X0071377Y0121569D01*
X0071390Y0121628D01*
X0071399Y0121687D01*
X0071404Y0121748D01*
X0071406Y0121808D01*
X0071406Y0127808D01*
X0071404Y0127868D01*
X0071399Y0127929D01*
X0071390Y0127988D01*
X0071377Y0128047D01*
X0071361Y0128106D01*
X0071341Y0128163D01*
X0071318Y0128218D01*
X0071291Y0128273D01*
X0071262Y0128325D01*
X0071229Y0128376D01*
X0071193Y0128425D01*
X0071155Y0128471D01*
X0071113Y0128515D01*
X0071069Y0128557D01*
X0071023Y0128595D01*
X0070974Y0128631D01*
X0070923Y0128664D01*
X0070871Y0128693D01*
X0070816Y0128720D01*
X0070761Y0128743D01*
X0070704Y0128763D01*
X0070645Y0128779D01*
X0070586Y0128792D01*
X0070527Y0128801D01*
X0070466Y0128806D01*
X0070406Y0128808D01*
X0059406Y0128808D01*
X0059346Y0128806D01*
X0059285Y0128801D01*
X0059226Y0128792D01*
X0059167Y0128779D01*
X0059108Y0128763D01*
X0059051Y0128743D01*
X0058996Y0128720D01*
X0058941Y0128693D01*
X0058889Y0128664D01*
X0058838Y0128631D01*
X0058789Y0128595D01*
X0058743Y0128557D01*
X0058699Y0128515D01*
X0058657Y0128471D01*
X0058619Y0128425D01*
X0058583Y0128376D01*
X0058550Y0128325D01*
X0058521Y0128273D01*
X0058494Y0128218D01*
X0058471Y0128163D01*
X0058451Y0128106D01*
X0058435Y0128047D01*
X0058422Y0127988D01*
X0058413Y0127929D01*
X0058408Y0127868D01*
X0058406Y0127808D01*
X0058406Y0121808D01*
X0058408Y0121748D01*
X0058413Y0121687D01*
X0058422Y0121628D01*
X0058435Y0121569D01*
X0058451Y0121510D01*
X0058471Y0121453D01*
X0058494Y0121398D01*
X0058521Y0121343D01*
X0058550Y0121291D01*
X0058583Y0121240D01*
X0058619Y0121191D01*
X0058657Y0121145D01*
X0058699Y0121101D01*
X0058743Y0121059D01*
X0058789Y0121021D01*
X0058838Y0120985D01*
X0058889Y0120952D01*
X0058941Y0120923D01*
X0058996Y0120896D01*
X0059051Y0120873D01*
X0059108Y0120853D01*
X0059167Y0120837D01*
X0059226Y0120824D01*
X0059285Y0120815D01*
X0059346Y0120810D01*
X0059406Y0120808D01*
X0187985Y0083808D02*
X0187985Y0077808D01*
X0187987Y0077748D01*
X0187992Y0077687D01*
X0188001Y0077628D01*
X0188014Y0077569D01*
X0188030Y0077510D01*
X0188050Y0077453D01*
X0188073Y0077398D01*
X0188100Y0077343D01*
X0188129Y0077291D01*
X0188162Y0077240D01*
X0188198Y0077191D01*
X0188236Y0077145D01*
X0188278Y0077101D01*
X0188322Y0077059D01*
X0188368Y0077021D01*
X0188417Y0076985D01*
X0188468Y0076952D01*
X0188520Y0076923D01*
X0188575Y0076896D01*
X0188630Y0076873D01*
X0188687Y0076853D01*
X0188746Y0076837D01*
X0188805Y0076824D01*
X0188864Y0076815D01*
X0188925Y0076810D01*
X0188985Y0076808D01*
X0199985Y0076808D01*
X0200045Y0076810D01*
X0200106Y0076815D01*
X0200165Y0076824D01*
X0200224Y0076837D01*
X0200283Y0076853D01*
X0200340Y0076873D01*
X0200395Y0076896D01*
X0200450Y0076923D01*
X0200502Y0076952D01*
X0200553Y0076985D01*
X0200602Y0077021D01*
X0200648Y0077059D01*
X0200692Y0077101D01*
X0200734Y0077145D01*
X0200772Y0077191D01*
X0200808Y0077240D01*
X0200841Y0077291D01*
X0200870Y0077343D01*
X0200897Y0077398D01*
X0200920Y0077453D01*
X0200940Y0077510D01*
X0200956Y0077569D01*
X0200969Y0077628D01*
X0200978Y0077687D01*
X0200983Y0077748D01*
X0200985Y0077808D01*
X0200985Y0083808D01*
X0200983Y0083868D01*
X0200978Y0083929D01*
X0200969Y0083988D01*
X0200956Y0084047D01*
X0200940Y0084106D01*
X0200920Y0084163D01*
X0200897Y0084218D01*
X0200870Y0084273D01*
X0200841Y0084325D01*
X0200808Y0084376D01*
X0200772Y0084425D01*
X0200734Y0084471D01*
X0200692Y0084515D01*
X0200648Y0084557D01*
X0200602Y0084595D01*
X0200553Y0084631D01*
X0200502Y0084664D01*
X0200450Y0084693D01*
X0200395Y0084720D01*
X0200340Y0084743D01*
X0200283Y0084763D01*
X0200224Y0084779D01*
X0200165Y0084792D01*
X0200106Y0084801D01*
X0200045Y0084806D01*
X0199985Y0084808D01*
X0188985Y0084808D01*
X0188925Y0084806D01*
X0188864Y0084801D01*
X0188805Y0084792D01*
X0188746Y0084779D01*
X0188687Y0084763D01*
X0188630Y0084743D01*
X0188575Y0084720D01*
X0188520Y0084693D01*
X0188468Y0084664D01*
X0188417Y0084631D01*
X0188368Y0084595D01*
X0188322Y0084557D01*
X0188278Y0084515D01*
X0188236Y0084471D01*
X0188198Y0084425D01*
X0188162Y0084376D01*
X0188129Y0084325D01*
X0188100Y0084273D01*
X0188073Y0084218D01*
X0188050Y0084163D01*
X0188030Y0084106D01*
X0188014Y0084047D01*
X0188001Y0083988D01*
X0187992Y0083929D01*
X0187987Y0083868D01*
X0187985Y0083808D01*
X0205485Y0083808D02*
X0205485Y0077808D01*
X0205487Y0077748D01*
X0205492Y0077687D01*
X0205501Y0077628D01*
X0205514Y0077569D01*
X0205530Y0077510D01*
X0205550Y0077453D01*
X0205573Y0077398D01*
X0205600Y0077343D01*
X0205629Y0077291D01*
X0205662Y0077240D01*
X0205698Y0077191D01*
X0205736Y0077145D01*
X0205778Y0077101D01*
X0205822Y0077059D01*
X0205868Y0077021D01*
X0205917Y0076985D01*
X0205968Y0076952D01*
X0206020Y0076923D01*
X0206075Y0076896D01*
X0206130Y0076873D01*
X0206187Y0076853D01*
X0206246Y0076837D01*
X0206305Y0076824D01*
X0206364Y0076815D01*
X0206425Y0076810D01*
X0206485Y0076808D01*
X0217485Y0076808D01*
X0217545Y0076810D01*
X0217606Y0076815D01*
X0217665Y0076824D01*
X0217724Y0076837D01*
X0217783Y0076853D01*
X0217840Y0076873D01*
X0217895Y0076896D01*
X0217950Y0076923D01*
X0218002Y0076952D01*
X0218053Y0076985D01*
X0218102Y0077021D01*
X0218148Y0077059D01*
X0218192Y0077101D01*
X0218234Y0077145D01*
X0218272Y0077191D01*
X0218308Y0077240D01*
X0218341Y0077291D01*
X0218370Y0077343D01*
X0218397Y0077398D01*
X0218420Y0077453D01*
X0218440Y0077510D01*
X0218456Y0077569D01*
X0218469Y0077628D01*
X0218478Y0077687D01*
X0218483Y0077748D01*
X0218485Y0077808D01*
X0218485Y0083808D01*
X0218483Y0083868D01*
X0218478Y0083929D01*
X0218469Y0083988D01*
X0218456Y0084047D01*
X0218440Y0084106D01*
X0218420Y0084163D01*
X0218397Y0084218D01*
X0218370Y0084273D01*
X0218341Y0084325D01*
X0218308Y0084376D01*
X0218272Y0084425D01*
X0218234Y0084471D01*
X0218192Y0084515D01*
X0218148Y0084557D01*
X0218102Y0084595D01*
X0218053Y0084631D01*
X0218002Y0084664D01*
X0217950Y0084693D01*
X0217895Y0084720D01*
X0217840Y0084743D01*
X0217783Y0084763D01*
X0217724Y0084779D01*
X0217665Y0084792D01*
X0217606Y0084801D01*
X0217545Y0084806D01*
X0217485Y0084808D01*
X0206485Y0084808D01*
X0206425Y0084806D01*
X0206364Y0084801D01*
X0206305Y0084792D01*
X0206246Y0084779D01*
X0206187Y0084763D01*
X0206130Y0084743D01*
X0206075Y0084720D01*
X0206020Y0084693D01*
X0205968Y0084664D01*
X0205917Y0084631D01*
X0205868Y0084595D01*
X0205822Y0084557D01*
X0205778Y0084515D01*
X0205736Y0084471D01*
X0205698Y0084425D01*
X0205662Y0084376D01*
X0205629Y0084325D01*
X0205600Y0084273D01*
X0205573Y0084218D01*
X0205550Y0084163D01*
X0205530Y0084106D01*
X0205514Y0084047D01*
X0205501Y0083988D01*
X0205492Y0083929D01*
X0205487Y0083868D01*
X0205485Y0083808D01*
X0234300Y0208708D02*
X0240300Y0208708D01*
X0240360Y0208710D01*
X0240421Y0208715D01*
X0240480Y0208724D01*
X0240539Y0208737D01*
X0240598Y0208753D01*
X0240655Y0208773D01*
X0240710Y0208796D01*
X0240765Y0208823D01*
X0240817Y0208852D01*
X0240868Y0208885D01*
X0240917Y0208921D01*
X0240963Y0208959D01*
X0241007Y0209001D01*
X0241049Y0209045D01*
X0241087Y0209091D01*
X0241123Y0209140D01*
X0241156Y0209191D01*
X0241185Y0209243D01*
X0241212Y0209298D01*
X0241235Y0209353D01*
X0241255Y0209410D01*
X0241271Y0209469D01*
X0241284Y0209528D01*
X0241293Y0209587D01*
X0241298Y0209648D01*
X0241300Y0209708D01*
X0241300Y0220708D01*
X0241298Y0220768D01*
X0241293Y0220829D01*
X0241284Y0220888D01*
X0241271Y0220947D01*
X0241255Y0221006D01*
X0241235Y0221063D01*
X0241212Y0221118D01*
X0241185Y0221173D01*
X0241156Y0221225D01*
X0241123Y0221276D01*
X0241087Y0221325D01*
X0241049Y0221371D01*
X0241007Y0221415D01*
X0240963Y0221457D01*
X0240917Y0221495D01*
X0240868Y0221531D01*
X0240817Y0221564D01*
X0240765Y0221593D01*
X0240710Y0221620D01*
X0240655Y0221643D01*
X0240598Y0221663D01*
X0240539Y0221679D01*
X0240480Y0221692D01*
X0240421Y0221701D01*
X0240360Y0221706D01*
X0240300Y0221708D01*
X0234300Y0221708D01*
X0234240Y0221706D01*
X0234179Y0221701D01*
X0234120Y0221692D01*
X0234061Y0221679D01*
X0234002Y0221663D01*
X0233945Y0221643D01*
X0233890Y0221620D01*
X0233835Y0221593D01*
X0233783Y0221564D01*
X0233732Y0221531D01*
X0233683Y0221495D01*
X0233637Y0221457D01*
X0233593Y0221415D01*
X0233551Y0221371D01*
X0233513Y0221325D01*
X0233477Y0221276D01*
X0233444Y0221225D01*
X0233415Y0221173D01*
X0233388Y0221118D01*
X0233365Y0221063D01*
X0233345Y0221006D01*
X0233329Y0220947D01*
X0233316Y0220888D01*
X0233307Y0220829D01*
X0233302Y0220768D01*
X0233300Y0220708D01*
X0233300Y0209708D01*
X0233302Y0209648D01*
X0233307Y0209587D01*
X0233316Y0209528D01*
X0233329Y0209469D01*
X0233345Y0209410D01*
X0233365Y0209353D01*
X0233388Y0209298D01*
X0233415Y0209243D01*
X0233444Y0209191D01*
X0233477Y0209140D01*
X0233513Y0209091D01*
X0233551Y0209045D01*
X0233593Y0209001D01*
X0233637Y0208959D01*
X0233683Y0208921D01*
X0233732Y0208885D01*
X0233783Y0208852D01*
X0233835Y0208823D01*
X0233890Y0208796D01*
X0233945Y0208773D01*
X0234002Y0208753D01*
X0234061Y0208737D01*
X0234120Y0208724D01*
X0234179Y0208715D01*
X0234240Y0208710D01*
X0234300Y0208708D01*
X0253300Y0209708D02*
X0253300Y0220708D01*
X0253302Y0220768D01*
X0253307Y0220829D01*
X0253316Y0220888D01*
X0253329Y0220947D01*
X0253345Y0221006D01*
X0253365Y0221063D01*
X0253388Y0221118D01*
X0253415Y0221173D01*
X0253444Y0221225D01*
X0253477Y0221276D01*
X0253513Y0221325D01*
X0253551Y0221371D01*
X0253593Y0221415D01*
X0253637Y0221457D01*
X0253683Y0221495D01*
X0253732Y0221531D01*
X0253783Y0221564D01*
X0253835Y0221593D01*
X0253890Y0221620D01*
X0253945Y0221643D01*
X0254002Y0221663D01*
X0254061Y0221679D01*
X0254120Y0221692D01*
X0254179Y0221701D01*
X0254240Y0221706D01*
X0254300Y0221708D01*
X0260300Y0221708D01*
X0260360Y0221706D01*
X0260421Y0221701D01*
X0260480Y0221692D01*
X0260539Y0221679D01*
X0260598Y0221663D01*
X0260655Y0221643D01*
X0260710Y0221620D01*
X0260765Y0221593D01*
X0260817Y0221564D01*
X0260868Y0221531D01*
X0260917Y0221495D01*
X0260963Y0221457D01*
X0261007Y0221415D01*
X0261049Y0221371D01*
X0261087Y0221325D01*
X0261123Y0221276D01*
X0261156Y0221225D01*
X0261185Y0221173D01*
X0261212Y0221118D01*
X0261235Y0221063D01*
X0261255Y0221006D01*
X0261271Y0220947D01*
X0261284Y0220888D01*
X0261293Y0220829D01*
X0261298Y0220768D01*
X0261300Y0220708D01*
X0261300Y0209708D01*
X0261298Y0209648D01*
X0261293Y0209587D01*
X0261284Y0209528D01*
X0261271Y0209469D01*
X0261255Y0209410D01*
X0261235Y0209353D01*
X0261212Y0209298D01*
X0261185Y0209243D01*
X0261156Y0209191D01*
X0261123Y0209140D01*
X0261087Y0209091D01*
X0261049Y0209045D01*
X0261007Y0209001D01*
X0260963Y0208959D01*
X0260917Y0208921D01*
X0260868Y0208885D01*
X0260817Y0208852D01*
X0260765Y0208823D01*
X0260710Y0208796D01*
X0260655Y0208773D01*
X0260598Y0208753D01*
X0260539Y0208737D01*
X0260480Y0208724D01*
X0260421Y0208715D01*
X0260360Y0208710D01*
X0260300Y0208708D01*
X0254300Y0208708D01*
X0254240Y0208710D01*
X0254179Y0208715D01*
X0254120Y0208724D01*
X0254061Y0208737D01*
X0254002Y0208753D01*
X0253945Y0208773D01*
X0253890Y0208796D01*
X0253835Y0208823D01*
X0253783Y0208852D01*
X0253732Y0208885D01*
X0253683Y0208921D01*
X0253637Y0208959D01*
X0253593Y0209001D01*
X0253551Y0209045D01*
X0253513Y0209091D01*
X0253477Y0209140D01*
X0253444Y0209191D01*
X0253415Y0209243D01*
X0253388Y0209298D01*
X0253365Y0209353D01*
X0253345Y0209410D01*
X0253329Y0209469D01*
X0253316Y0209528D01*
X0253307Y0209587D01*
X0253302Y0209648D01*
X0253300Y0209708D01*
X0273300Y0209708D02*
X0273300Y0220708D01*
X0273302Y0220768D01*
X0273307Y0220829D01*
X0273316Y0220888D01*
X0273329Y0220947D01*
X0273345Y0221006D01*
X0273365Y0221063D01*
X0273388Y0221118D01*
X0273415Y0221173D01*
X0273444Y0221225D01*
X0273477Y0221276D01*
X0273513Y0221325D01*
X0273551Y0221371D01*
X0273593Y0221415D01*
X0273637Y0221457D01*
X0273683Y0221495D01*
X0273732Y0221531D01*
X0273783Y0221564D01*
X0273835Y0221593D01*
X0273890Y0221620D01*
X0273945Y0221643D01*
X0274002Y0221663D01*
X0274061Y0221679D01*
X0274120Y0221692D01*
X0274179Y0221701D01*
X0274240Y0221706D01*
X0274300Y0221708D01*
X0280300Y0221708D01*
X0280360Y0221706D01*
X0280421Y0221701D01*
X0280480Y0221692D01*
X0280539Y0221679D01*
X0280598Y0221663D01*
X0280655Y0221643D01*
X0280710Y0221620D01*
X0280765Y0221593D01*
X0280817Y0221564D01*
X0280868Y0221531D01*
X0280917Y0221495D01*
X0280963Y0221457D01*
X0281007Y0221415D01*
X0281049Y0221371D01*
X0281087Y0221325D01*
X0281123Y0221276D01*
X0281156Y0221225D01*
X0281185Y0221173D01*
X0281212Y0221118D01*
X0281235Y0221063D01*
X0281255Y0221006D01*
X0281271Y0220947D01*
X0281284Y0220888D01*
X0281293Y0220829D01*
X0281298Y0220768D01*
X0281300Y0220708D01*
X0281300Y0209708D01*
X0281298Y0209648D01*
X0281293Y0209587D01*
X0281284Y0209528D01*
X0281271Y0209469D01*
X0281255Y0209410D01*
X0281235Y0209353D01*
X0281212Y0209298D01*
X0281185Y0209243D01*
X0281156Y0209191D01*
X0281123Y0209140D01*
X0281087Y0209091D01*
X0281049Y0209045D01*
X0281007Y0209001D01*
X0280963Y0208959D01*
X0280917Y0208921D01*
X0280868Y0208885D01*
X0280817Y0208852D01*
X0280765Y0208823D01*
X0280710Y0208796D01*
X0280655Y0208773D01*
X0280598Y0208753D01*
X0280539Y0208737D01*
X0280480Y0208724D01*
X0280421Y0208715D01*
X0280360Y0208710D01*
X0280300Y0208708D01*
X0274300Y0208708D01*
X0274240Y0208710D01*
X0274179Y0208715D01*
X0274120Y0208724D01*
X0274061Y0208737D01*
X0274002Y0208753D01*
X0273945Y0208773D01*
X0273890Y0208796D01*
X0273835Y0208823D01*
X0273783Y0208852D01*
X0273732Y0208885D01*
X0273683Y0208921D01*
X0273637Y0208959D01*
X0273593Y0209001D01*
X0273551Y0209045D01*
X0273513Y0209091D01*
X0273477Y0209140D01*
X0273444Y0209191D01*
X0273415Y0209243D01*
X0273388Y0209298D01*
X0273365Y0209353D01*
X0273345Y0209410D01*
X0273329Y0209469D01*
X0273316Y0209528D01*
X0273307Y0209587D01*
X0273302Y0209648D01*
X0273300Y0209708D01*
X0293300Y0209708D02*
X0293300Y0220708D01*
X0293302Y0220768D01*
X0293307Y0220829D01*
X0293316Y0220888D01*
X0293329Y0220947D01*
X0293345Y0221006D01*
X0293365Y0221063D01*
X0293388Y0221118D01*
X0293415Y0221173D01*
X0293444Y0221225D01*
X0293477Y0221276D01*
X0293513Y0221325D01*
X0293551Y0221371D01*
X0293593Y0221415D01*
X0293637Y0221457D01*
X0293683Y0221495D01*
X0293732Y0221531D01*
X0293783Y0221564D01*
X0293835Y0221593D01*
X0293890Y0221620D01*
X0293945Y0221643D01*
X0294002Y0221663D01*
X0294061Y0221679D01*
X0294120Y0221692D01*
X0294179Y0221701D01*
X0294240Y0221706D01*
X0294300Y0221708D01*
X0300300Y0221708D01*
X0300360Y0221706D01*
X0300421Y0221701D01*
X0300480Y0221692D01*
X0300539Y0221679D01*
X0300598Y0221663D01*
X0300655Y0221643D01*
X0300710Y0221620D01*
X0300765Y0221593D01*
X0300817Y0221564D01*
X0300868Y0221531D01*
X0300917Y0221495D01*
X0300963Y0221457D01*
X0301007Y0221415D01*
X0301049Y0221371D01*
X0301087Y0221325D01*
X0301123Y0221276D01*
X0301156Y0221225D01*
X0301185Y0221173D01*
X0301212Y0221118D01*
X0301235Y0221063D01*
X0301255Y0221006D01*
X0301271Y0220947D01*
X0301284Y0220888D01*
X0301293Y0220829D01*
X0301298Y0220768D01*
X0301300Y0220708D01*
X0301300Y0209708D01*
X0301298Y0209648D01*
X0301293Y0209587D01*
X0301284Y0209528D01*
X0301271Y0209469D01*
X0301255Y0209410D01*
X0301235Y0209353D01*
X0301212Y0209298D01*
X0301185Y0209243D01*
X0301156Y0209191D01*
X0301123Y0209140D01*
X0301087Y0209091D01*
X0301049Y0209045D01*
X0301007Y0209001D01*
X0300963Y0208959D01*
X0300917Y0208921D01*
X0300868Y0208885D01*
X0300817Y0208852D01*
X0300765Y0208823D01*
X0300710Y0208796D01*
X0300655Y0208773D01*
X0300598Y0208753D01*
X0300539Y0208737D01*
X0300480Y0208724D01*
X0300421Y0208715D01*
X0300360Y0208710D01*
X0300300Y0208708D01*
X0294300Y0208708D01*
X0294240Y0208710D01*
X0294179Y0208715D01*
X0294120Y0208724D01*
X0294061Y0208737D01*
X0294002Y0208753D01*
X0293945Y0208773D01*
X0293890Y0208796D01*
X0293835Y0208823D01*
X0293783Y0208852D01*
X0293732Y0208885D01*
X0293683Y0208921D01*
X0293637Y0208959D01*
X0293593Y0209001D01*
X0293551Y0209045D01*
X0293513Y0209091D01*
X0293477Y0209140D01*
X0293444Y0209191D01*
X0293415Y0209243D01*
X0293388Y0209298D01*
X0293365Y0209353D01*
X0293345Y0209410D01*
X0293329Y0209469D01*
X0293316Y0209528D01*
X0293307Y0209587D01*
X0293302Y0209648D01*
X0293300Y0209708D01*
X0313300Y0209708D02*
X0313300Y0220708D01*
X0313302Y0220768D01*
X0313307Y0220829D01*
X0313316Y0220888D01*
X0313329Y0220947D01*
X0313345Y0221006D01*
X0313365Y0221063D01*
X0313388Y0221118D01*
X0313415Y0221173D01*
X0313444Y0221225D01*
X0313477Y0221276D01*
X0313513Y0221325D01*
X0313551Y0221371D01*
X0313593Y0221415D01*
X0313637Y0221457D01*
X0313683Y0221495D01*
X0313732Y0221531D01*
X0313783Y0221564D01*
X0313835Y0221593D01*
X0313890Y0221620D01*
X0313945Y0221643D01*
X0314002Y0221663D01*
X0314061Y0221679D01*
X0314120Y0221692D01*
X0314179Y0221701D01*
X0314240Y0221706D01*
X0314300Y0221708D01*
X0320300Y0221708D01*
X0320360Y0221706D01*
X0320421Y0221701D01*
X0320480Y0221692D01*
X0320539Y0221679D01*
X0320598Y0221663D01*
X0320655Y0221643D01*
X0320710Y0221620D01*
X0320765Y0221593D01*
X0320817Y0221564D01*
X0320868Y0221531D01*
X0320917Y0221495D01*
X0320963Y0221457D01*
X0321007Y0221415D01*
X0321049Y0221371D01*
X0321087Y0221325D01*
X0321123Y0221276D01*
X0321156Y0221225D01*
X0321185Y0221173D01*
X0321212Y0221118D01*
X0321235Y0221063D01*
X0321255Y0221006D01*
X0321271Y0220947D01*
X0321284Y0220888D01*
X0321293Y0220829D01*
X0321298Y0220768D01*
X0321300Y0220708D01*
X0321300Y0209708D01*
X0321298Y0209648D01*
X0321293Y0209587D01*
X0321284Y0209528D01*
X0321271Y0209469D01*
X0321255Y0209410D01*
X0321235Y0209353D01*
X0321212Y0209298D01*
X0321185Y0209243D01*
X0321156Y0209191D01*
X0321123Y0209140D01*
X0321087Y0209091D01*
X0321049Y0209045D01*
X0321007Y0209001D01*
X0320963Y0208959D01*
X0320917Y0208921D01*
X0320868Y0208885D01*
X0320817Y0208852D01*
X0320765Y0208823D01*
X0320710Y0208796D01*
X0320655Y0208773D01*
X0320598Y0208753D01*
X0320539Y0208737D01*
X0320480Y0208724D01*
X0320421Y0208715D01*
X0320360Y0208710D01*
X0320300Y0208708D01*
X0314300Y0208708D01*
X0314240Y0208710D01*
X0314179Y0208715D01*
X0314120Y0208724D01*
X0314061Y0208737D01*
X0314002Y0208753D01*
X0313945Y0208773D01*
X0313890Y0208796D01*
X0313835Y0208823D01*
X0313783Y0208852D01*
X0313732Y0208885D01*
X0313683Y0208921D01*
X0313637Y0208959D01*
X0313593Y0209001D01*
X0313551Y0209045D01*
X0313513Y0209091D01*
X0313477Y0209140D01*
X0313444Y0209191D01*
X0313415Y0209243D01*
X0313388Y0209298D01*
X0313365Y0209353D01*
X0313345Y0209410D01*
X0313329Y0209469D01*
X0313316Y0209528D01*
X0313307Y0209587D01*
X0313302Y0209648D01*
X0313300Y0209708D01*
X0333300Y0209708D02*
X0333300Y0220708D01*
X0333302Y0220768D01*
X0333307Y0220829D01*
X0333316Y0220888D01*
X0333329Y0220947D01*
X0333345Y0221006D01*
X0333365Y0221063D01*
X0333388Y0221118D01*
X0333415Y0221173D01*
X0333444Y0221225D01*
X0333477Y0221276D01*
X0333513Y0221325D01*
X0333551Y0221371D01*
X0333593Y0221415D01*
X0333637Y0221457D01*
X0333683Y0221495D01*
X0333732Y0221531D01*
X0333783Y0221564D01*
X0333835Y0221593D01*
X0333890Y0221620D01*
X0333945Y0221643D01*
X0334002Y0221663D01*
X0334061Y0221679D01*
X0334120Y0221692D01*
X0334179Y0221701D01*
X0334240Y0221706D01*
X0334300Y0221708D01*
X0340300Y0221708D01*
X0340360Y0221706D01*
X0340421Y0221701D01*
X0340480Y0221692D01*
X0340539Y0221679D01*
X0340598Y0221663D01*
X0340655Y0221643D01*
X0340710Y0221620D01*
X0340765Y0221593D01*
X0340817Y0221564D01*
X0340868Y0221531D01*
X0340917Y0221495D01*
X0340963Y0221457D01*
X0341007Y0221415D01*
X0341049Y0221371D01*
X0341087Y0221325D01*
X0341123Y0221276D01*
X0341156Y0221225D01*
X0341185Y0221173D01*
X0341212Y0221118D01*
X0341235Y0221063D01*
X0341255Y0221006D01*
X0341271Y0220947D01*
X0341284Y0220888D01*
X0341293Y0220829D01*
X0341298Y0220768D01*
X0341300Y0220708D01*
X0341300Y0209708D01*
X0341298Y0209648D01*
X0341293Y0209587D01*
X0341284Y0209528D01*
X0341271Y0209469D01*
X0341255Y0209410D01*
X0341235Y0209353D01*
X0341212Y0209298D01*
X0341185Y0209243D01*
X0341156Y0209191D01*
X0341123Y0209140D01*
X0341087Y0209091D01*
X0341049Y0209045D01*
X0341007Y0209001D01*
X0340963Y0208959D01*
X0340917Y0208921D01*
X0340868Y0208885D01*
X0340817Y0208852D01*
X0340765Y0208823D01*
X0340710Y0208796D01*
X0340655Y0208773D01*
X0340598Y0208753D01*
X0340539Y0208737D01*
X0340480Y0208724D01*
X0340421Y0208715D01*
X0340360Y0208710D01*
X0340300Y0208708D01*
X0334300Y0208708D01*
X0334240Y0208710D01*
X0334179Y0208715D01*
X0334120Y0208724D01*
X0334061Y0208737D01*
X0334002Y0208753D01*
X0333945Y0208773D01*
X0333890Y0208796D01*
X0333835Y0208823D01*
X0333783Y0208852D01*
X0333732Y0208885D01*
X0333683Y0208921D01*
X0333637Y0208959D01*
X0333593Y0209001D01*
X0333551Y0209045D01*
X0333513Y0209091D01*
X0333477Y0209140D01*
X0333444Y0209191D01*
X0333415Y0209243D01*
X0333388Y0209298D01*
X0333365Y0209353D01*
X0333345Y0209410D01*
X0333329Y0209469D01*
X0333316Y0209528D01*
X0333307Y0209587D01*
X0333302Y0209648D01*
X0333300Y0209708D01*
X0353300Y0209708D02*
X0353300Y0220708D01*
X0353302Y0220768D01*
X0353307Y0220829D01*
X0353316Y0220888D01*
X0353329Y0220947D01*
X0353345Y0221006D01*
X0353365Y0221063D01*
X0353388Y0221118D01*
X0353415Y0221173D01*
X0353444Y0221225D01*
X0353477Y0221276D01*
X0353513Y0221325D01*
X0353551Y0221371D01*
X0353593Y0221415D01*
X0353637Y0221457D01*
X0353683Y0221495D01*
X0353732Y0221531D01*
X0353783Y0221564D01*
X0353835Y0221593D01*
X0353890Y0221620D01*
X0353945Y0221643D01*
X0354002Y0221663D01*
X0354061Y0221679D01*
X0354120Y0221692D01*
X0354179Y0221701D01*
X0354240Y0221706D01*
X0354300Y0221708D01*
X0360300Y0221708D01*
X0360360Y0221706D01*
X0360421Y0221701D01*
X0360480Y0221692D01*
X0360539Y0221679D01*
X0360598Y0221663D01*
X0360655Y0221643D01*
X0360710Y0221620D01*
X0360765Y0221593D01*
X0360817Y0221564D01*
X0360868Y0221531D01*
X0360917Y0221495D01*
X0360963Y0221457D01*
X0361007Y0221415D01*
X0361049Y0221371D01*
X0361087Y0221325D01*
X0361123Y0221276D01*
X0361156Y0221225D01*
X0361185Y0221173D01*
X0361212Y0221118D01*
X0361235Y0221063D01*
X0361255Y0221006D01*
X0361271Y0220947D01*
X0361284Y0220888D01*
X0361293Y0220829D01*
X0361298Y0220768D01*
X0361300Y0220708D01*
X0361300Y0209708D01*
X0361298Y0209648D01*
X0361293Y0209587D01*
X0361284Y0209528D01*
X0361271Y0209469D01*
X0361255Y0209410D01*
X0361235Y0209353D01*
X0361212Y0209298D01*
X0361185Y0209243D01*
X0361156Y0209191D01*
X0361123Y0209140D01*
X0361087Y0209091D01*
X0361049Y0209045D01*
X0361007Y0209001D01*
X0360963Y0208959D01*
X0360917Y0208921D01*
X0360868Y0208885D01*
X0360817Y0208852D01*
X0360765Y0208823D01*
X0360710Y0208796D01*
X0360655Y0208773D01*
X0360598Y0208753D01*
X0360539Y0208737D01*
X0360480Y0208724D01*
X0360421Y0208715D01*
X0360360Y0208710D01*
X0360300Y0208708D01*
X0354300Y0208708D01*
X0354240Y0208710D01*
X0354179Y0208715D01*
X0354120Y0208724D01*
X0354061Y0208737D01*
X0354002Y0208753D01*
X0353945Y0208773D01*
X0353890Y0208796D01*
X0353835Y0208823D01*
X0353783Y0208852D01*
X0353732Y0208885D01*
X0353683Y0208921D01*
X0353637Y0208959D01*
X0353593Y0209001D01*
X0353551Y0209045D01*
X0353513Y0209091D01*
X0353477Y0209140D01*
X0353444Y0209191D01*
X0353415Y0209243D01*
X0353388Y0209298D01*
X0353365Y0209353D01*
X0353345Y0209410D01*
X0353329Y0209469D01*
X0353316Y0209528D01*
X0353307Y0209587D01*
X0353302Y0209648D01*
X0353300Y0209708D01*
X0373300Y0209708D02*
X0373300Y0220708D01*
X0373302Y0220768D01*
X0373307Y0220829D01*
X0373316Y0220888D01*
X0373329Y0220947D01*
X0373345Y0221006D01*
X0373365Y0221063D01*
X0373388Y0221118D01*
X0373415Y0221173D01*
X0373444Y0221225D01*
X0373477Y0221276D01*
X0373513Y0221325D01*
X0373551Y0221371D01*
X0373593Y0221415D01*
X0373637Y0221457D01*
X0373683Y0221495D01*
X0373732Y0221531D01*
X0373783Y0221564D01*
X0373835Y0221593D01*
X0373890Y0221620D01*
X0373945Y0221643D01*
X0374002Y0221663D01*
X0374061Y0221679D01*
X0374120Y0221692D01*
X0374179Y0221701D01*
X0374240Y0221706D01*
X0374300Y0221708D01*
X0380300Y0221708D01*
X0380360Y0221706D01*
X0380421Y0221701D01*
X0380480Y0221692D01*
X0380539Y0221679D01*
X0380598Y0221663D01*
X0380655Y0221643D01*
X0380710Y0221620D01*
X0380765Y0221593D01*
X0380817Y0221564D01*
X0380868Y0221531D01*
X0380917Y0221495D01*
X0380963Y0221457D01*
X0381007Y0221415D01*
X0381049Y0221371D01*
X0381087Y0221325D01*
X0381123Y0221276D01*
X0381156Y0221225D01*
X0381185Y0221173D01*
X0381212Y0221118D01*
X0381235Y0221063D01*
X0381255Y0221006D01*
X0381271Y0220947D01*
X0381284Y0220888D01*
X0381293Y0220829D01*
X0381298Y0220768D01*
X0381300Y0220708D01*
X0381300Y0209708D01*
X0381298Y0209648D01*
X0381293Y0209587D01*
X0381284Y0209528D01*
X0381271Y0209469D01*
X0381255Y0209410D01*
X0381235Y0209353D01*
X0381212Y0209298D01*
X0381185Y0209243D01*
X0381156Y0209191D01*
X0381123Y0209140D01*
X0381087Y0209091D01*
X0381049Y0209045D01*
X0381007Y0209001D01*
X0380963Y0208959D01*
X0380917Y0208921D01*
X0380868Y0208885D01*
X0380817Y0208852D01*
X0380765Y0208823D01*
X0380710Y0208796D01*
X0380655Y0208773D01*
X0380598Y0208753D01*
X0380539Y0208737D01*
X0380480Y0208724D01*
X0380421Y0208715D01*
X0380360Y0208710D01*
X0380300Y0208708D01*
X0374300Y0208708D01*
X0374240Y0208710D01*
X0374179Y0208715D01*
X0374120Y0208724D01*
X0374061Y0208737D01*
X0374002Y0208753D01*
X0373945Y0208773D01*
X0373890Y0208796D01*
X0373835Y0208823D01*
X0373783Y0208852D01*
X0373732Y0208885D01*
X0373683Y0208921D01*
X0373637Y0208959D01*
X0373593Y0209001D01*
X0373551Y0209045D01*
X0373513Y0209091D01*
X0373477Y0209140D01*
X0373444Y0209191D01*
X0373415Y0209243D01*
X0373388Y0209298D01*
X0373365Y0209353D01*
X0373345Y0209410D01*
X0373329Y0209469D01*
X0373316Y0209528D01*
X0373307Y0209587D01*
X0373302Y0209648D01*
X0373300Y0209708D01*
M02*
