G75*
%MOIN*%
%OFA0B0*%
%FSLAX25Y25*%
%IPPOS*%
%LPD*%
%AMOC8*
5,1,8,0,0,1.08239X$1,22.5*
%
%ADD10C,0.00000*%
%ADD11C,0.00600*%
D10*
X0009878Y0004550D02*
X0009878Y0169550D01*
X0307378Y0169550D01*
X0307378Y0004550D01*
X0009878Y0004550D01*
X0050710Y0033206D02*
X0050712Y0033254D01*
X0050718Y0033302D01*
X0050728Y0033349D01*
X0050741Y0033395D01*
X0050759Y0033440D01*
X0050779Y0033484D01*
X0050804Y0033526D01*
X0050832Y0033565D01*
X0050862Y0033602D01*
X0050896Y0033636D01*
X0050933Y0033668D01*
X0050971Y0033697D01*
X0051012Y0033722D01*
X0051055Y0033744D01*
X0051100Y0033762D01*
X0051146Y0033776D01*
X0051193Y0033787D01*
X0051241Y0033794D01*
X0051289Y0033797D01*
X0051337Y0033796D01*
X0051385Y0033791D01*
X0051433Y0033782D01*
X0051479Y0033770D01*
X0051524Y0033753D01*
X0051568Y0033733D01*
X0051610Y0033710D01*
X0051650Y0033683D01*
X0051688Y0033653D01*
X0051723Y0033620D01*
X0051755Y0033584D01*
X0051785Y0033546D01*
X0051811Y0033505D01*
X0051833Y0033462D01*
X0051853Y0033418D01*
X0051868Y0033373D01*
X0051880Y0033326D01*
X0051888Y0033278D01*
X0051892Y0033230D01*
X0051892Y0033182D01*
X0051888Y0033134D01*
X0051880Y0033086D01*
X0051868Y0033039D01*
X0051853Y0032994D01*
X0051833Y0032950D01*
X0051811Y0032907D01*
X0051785Y0032866D01*
X0051755Y0032828D01*
X0051723Y0032792D01*
X0051688Y0032759D01*
X0051650Y0032729D01*
X0051610Y0032702D01*
X0051568Y0032679D01*
X0051524Y0032659D01*
X0051479Y0032642D01*
X0051433Y0032630D01*
X0051385Y0032621D01*
X0051337Y0032616D01*
X0051289Y0032615D01*
X0051241Y0032618D01*
X0051193Y0032625D01*
X0051146Y0032636D01*
X0051100Y0032650D01*
X0051055Y0032668D01*
X0051012Y0032690D01*
X0050971Y0032715D01*
X0050933Y0032744D01*
X0050896Y0032776D01*
X0050862Y0032810D01*
X0050832Y0032847D01*
X0050804Y0032886D01*
X0050779Y0032928D01*
X0050759Y0032972D01*
X0050741Y0033017D01*
X0050728Y0033063D01*
X0050718Y0033110D01*
X0050712Y0033158D01*
X0050710Y0033206D01*
X0053662Y0035175D02*
X0053664Y0035223D01*
X0053670Y0035271D01*
X0053680Y0035318D01*
X0053693Y0035364D01*
X0053711Y0035409D01*
X0053731Y0035453D01*
X0053756Y0035495D01*
X0053784Y0035534D01*
X0053814Y0035571D01*
X0053848Y0035605D01*
X0053885Y0035637D01*
X0053923Y0035666D01*
X0053964Y0035691D01*
X0054007Y0035713D01*
X0054052Y0035731D01*
X0054098Y0035745D01*
X0054145Y0035756D01*
X0054193Y0035763D01*
X0054241Y0035766D01*
X0054289Y0035765D01*
X0054337Y0035760D01*
X0054385Y0035751D01*
X0054431Y0035739D01*
X0054476Y0035722D01*
X0054520Y0035702D01*
X0054562Y0035679D01*
X0054602Y0035652D01*
X0054640Y0035622D01*
X0054675Y0035589D01*
X0054707Y0035553D01*
X0054737Y0035515D01*
X0054763Y0035474D01*
X0054785Y0035431D01*
X0054805Y0035387D01*
X0054820Y0035342D01*
X0054832Y0035295D01*
X0054840Y0035247D01*
X0054844Y0035199D01*
X0054844Y0035151D01*
X0054840Y0035103D01*
X0054832Y0035055D01*
X0054820Y0035008D01*
X0054805Y0034963D01*
X0054785Y0034919D01*
X0054763Y0034876D01*
X0054737Y0034835D01*
X0054707Y0034797D01*
X0054675Y0034761D01*
X0054640Y0034728D01*
X0054602Y0034698D01*
X0054562Y0034671D01*
X0054520Y0034648D01*
X0054476Y0034628D01*
X0054431Y0034611D01*
X0054385Y0034599D01*
X0054337Y0034590D01*
X0054289Y0034585D01*
X0054241Y0034584D01*
X0054193Y0034587D01*
X0054145Y0034594D01*
X0054098Y0034605D01*
X0054052Y0034619D01*
X0054007Y0034637D01*
X0053964Y0034659D01*
X0053923Y0034684D01*
X0053885Y0034713D01*
X0053848Y0034745D01*
X0053814Y0034779D01*
X0053784Y0034816D01*
X0053756Y0034855D01*
X0053731Y0034897D01*
X0053711Y0034941D01*
X0053693Y0034986D01*
X0053680Y0035032D01*
X0053670Y0035079D01*
X0053664Y0035127D01*
X0053662Y0035175D01*
X0050710Y0037144D02*
X0050712Y0037192D01*
X0050718Y0037240D01*
X0050728Y0037287D01*
X0050741Y0037333D01*
X0050759Y0037378D01*
X0050779Y0037422D01*
X0050804Y0037464D01*
X0050832Y0037503D01*
X0050862Y0037540D01*
X0050896Y0037574D01*
X0050933Y0037606D01*
X0050971Y0037635D01*
X0051012Y0037660D01*
X0051055Y0037682D01*
X0051100Y0037700D01*
X0051146Y0037714D01*
X0051193Y0037725D01*
X0051241Y0037732D01*
X0051289Y0037735D01*
X0051337Y0037734D01*
X0051385Y0037729D01*
X0051433Y0037720D01*
X0051479Y0037708D01*
X0051524Y0037691D01*
X0051568Y0037671D01*
X0051610Y0037648D01*
X0051650Y0037621D01*
X0051688Y0037591D01*
X0051723Y0037558D01*
X0051755Y0037522D01*
X0051785Y0037484D01*
X0051811Y0037443D01*
X0051833Y0037400D01*
X0051853Y0037356D01*
X0051868Y0037311D01*
X0051880Y0037264D01*
X0051888Y0037216D01*
X0051892Y0037168D01*
X0051892Y0037120D01*
X0051888Y0037072D01*
X0051880Y0037024D01*
X0051868Y0036977D01*
X0051853Y0036932D01*
X0051833Y0036888D01*
X0051811Y0036845D01*
X0051785Y0036804D01*
X0051755Y0036766D01*
X0051723Y0036730D01*
X0051688Y0036697D01*
X0051650Y0036667D01*
X0051610Y0036640D01*
X0051568Y0036617D01*
X0051524Y0036597D01*
X0051479Y0036580D01*
X0051433Y0036568D01*
X0051385Y0036559D01*
X0051337Y0036554D01*
X0051289Y0036553D01*
X0051241Y0036556D01*
X0051193Y0036563D01*
X0051146Y0036574D01*
X0051100Y0036588D01*
X0051055Y0036606D01*
X0051012Y0036628D01*
X0050971Y0036653D01*
X0050933Y0036682D01*
X0050896Y0036714D01*
X0050862Y0036748D01*
X0050832Y0036785D01*
X0050804Y0036824D01*
X0050779Y0036866D01*
X0050759Y0036910D01*
X0050741Y0036955D01*
X0050728Y0037001D01*
X0050718Y0037048D01*
X0050712Y0037096D01*
X0050710Y0037144D01*
X0056615Y0037144D02*
X0056617Y0037192D01*
X0056623Y0037240D01*
X0056633Y0037287D01*
X0056646Y0037333D01*
X0056664Y0037378D01*
X0056684Y0037422D01*
X0056709Y0037464D01*
X0056737Y0037503D01*
X0056767Y0037540D01*
X0056801Y0037574D01*
X0056838Y0037606D01*
X0056876Y0037635D01*
X0056917Y0037660D01*
X0056960Y0037682D01*
X0057005Y0037700D01*
X0057051Y0037714D01*
X0057098Y0037725D01*
X0057146Y0037732D01*
X0057194Y0037735D01*
X0057242Y0037734D01*
X0057290Y0037729D01*
X0057338Y0037720D01*
X0057384Y0037708D01*
X0057429Y0037691D01*
X0057473Y0037671D01*
X0057515Y0037648D01*
X0057555Y0037621D01*
X0057593Y0037591D01*
X0057628Y0037558D01*
X0057660Y0037522D01*
X0057690Y0037484D01*
X0057716Y0037443D01*
X0057738Y0037400D01*
X0057758Y0037356D01*
X0057773Y0037311D01*
X0057785Y0037264D01*
X0057793Y0037216D01*
X0057797Y0037168D01*
X0057797Y0037120D01*
X0057793Y0037072D01*
X0057785Y0037024D01*
X0057773Y0036977D01*
X0057758Y0036932D01*
X0057738Y0036888D01*
X0057716Y0036845D01*
X0057690Y0036804D01*
X0057660Y0036766D01*
X0057628Y0036730D01*
X0057593Y0036697D01*
X0057555Y0036667D01*
X0057515Y0036640D01*
X0057473Y0036617D01*
X0057429Y0036597D01*
X0057384Y0036580D01*
X0057338Y0036568D01*
X0057290Y0036559D01*
X0057242Y0036554D01*
X0057194Y0036553D01*
X0057146Y0036556D01*
X0057098Y0036563D01*
X0057051Y0036574D01*
X0057005Y0036588D01*
X0056960Y0036606D01*
X0056917Y0036628D01*
X0056876Y0036653D01*
X0056838Y0036682D01*
X0056801Y0036714D01*
X0056767Y0036748D01*
X0056737Y0036785D01*
X0056709Y0036824D01*
X0056684Y0036866D01*
X0056664Y0036910D01*
X0056646Y0036955D01*
X0056633Y0037001D01*
X0056623Y0037048D01*
X0056617Y0037096D01*
X0056615Y0037144D01*
X0056615Y0033206D02*
X0056617Y0033254D01*
X0056623Y0033302D01*
X0056633Y0033349D01*
X0056646Y0033395D01*
X0056664Y0033440D01*
X0056684Y0033484D01*
X0056709Y0033526D01*
X0056737Y0033565D01*
X0056767Y0033602D01*
X0056801Y0033636D01*
X0056838Y0033668D01*
X0056876Y0033697D01*
X0056917Y0033722D01*
X0056960Y0033744D01*
X0057005Y0033762D01*
X0057051Y0033776D01*
X0057098Y0033787D01*
X0057146Y0033794D01*
X0057194Y0033797D01*
X0057242Y0033796D01*
X0057290Y0033791D01*
X0057338Y0033782D01*
X0057384Y0033770D01*
X0057429Y0033753D01*
X0057473Y0033733D01*
X0057515Y0033710D01*
X0057555Y0033683D01*
X0057593Y0033653D01*
X0057628Y0033620D01*
X0057660Y0033584D01*
X0057690Y0033546D01*
X0057716Y0033505D01*
X0057738Y0033462D01*
X0057758Y0033418D01*
X0057773Y0033373D01*
X0057785Y0033326D01*
X0057793Y0033278D01*
X0057797Y0033230D01*
X0057797Y0033182D01*
X0057793Y0033134D01*
X0057785Y0033086D01*
X0057773Y0033039D01*
X0057758Y0032994D01*
X0057738Y0032950D01*
X0057716Y0032907D01*
X0057690Y0032866D01*
X0057660Y0032828D01*
X0057628Y0032792D01*
X0057593Y0032759D01*
X0057555Y0032729D01*
X0057515Y0032702D01*
X0057473Y0032679D01*
X0057429Y0032659D01*
X0057384Y0032642D01*
X0057338Y0032630D01*
X0057290Y0032621D01*
X0057242Y0032616D01*
X0057194Y0032615D01*
X0057146Y0032618D01*
X0057098Y0032625D01*
X0057051Y0032636D01*
X0057005Y0032650D01*
X0056960Y0032668D01*
X0056917Y0032690D01*
X0056876Y0032715D01*
X0056838Y0032744D01*
X0056801Y0032776D01*
X0056767Y0032810D01*
X0056737Y0032847D01*
X0056709Y0032886D01*
X0056684Y0032928D01*
X0056664Y0032972D01*
X0056646Y0033017D01*
X0056633Y0033063D01*
X0056623Y0033110D01*
X0056617Y0033158D01*
X0056615Y0033206D01*
X0053972Y0142050D02*
X0053974Y0142203D01*
X0053980Y0142357D01*
X0053990Y0142510D01*
X0054004Y0142662D01*
X0054022Y0142815D01*
X0054044Y0142966D01*
X0054069Y0143117D01*
X0054099Y0143268D01*
X0054133Y0143418D01*
X0054170Y0143566D01*
X0054211Y0143714D01*
X0054256Y0143860D01*
X0054305Y0144006D01*
X0054358Y0144150D01*
X0054414Y0144292D01*
X0054474Y0144433D01*
X0054538Y0144573D01*
X0054605Y0144711D01*
X0054676Y0144847D01*
X0054751Y0144981D01*
X0054828Y0145113D01*
X0054910Y0145243D01*
X0054994Y0145371D01*
X0055082Y0145497D01*
X0055173Y0145620D01*
X0055267Y0145741D01*
X0055365Y0145859D01*
X0055465Y0145975D01*
X0055569Y0146088D01*
X0055675Y0146199D01*
X0055784Y0146307D01*
X0055896Y0146412D01*
X0056010Y0146513D01*
X0056128Y0146612D01*
X0056247Y0146708D01*
X0056369Y0146801D01*
X0056494Y0146890D01*
X0056621Y0146977D01*
X0056750Y0147059D01*
X0056881Y0147139D01*
X0057014Y0147215D01*
X0057149Y0147288D01*
X0057286Y0147357D01*
X0057425Y0147422D01*
X0057565Y0147484D01*
X0057707Y0147542D01*
X0057850Y0147597D01*
X0057995Y0147648D01*
X0058141Y0147695D01*
X0058288Y0147738D01*
X0058436Y0147777D01*
X0058585Y0147813D01*
X0058735Y0147844D01*
X0058886Y0147872D01*
X0059037Y0147896D01*
X0059190Y0147916D01*
X0059342Y0147932D01*
X0059495Y0147944D01*
X0059648Y0147952D01*
X0059801Y0147956D01*
X0059955Y0147956D01*
X0060108Y0147952D01*
X0060261Y0147944D01*
X0060414Y0147932D01*
X0060566Y0147916D01*
X0060719Y0147896D01*
X0060870Y0147872D01*
X0061021Y0147844D01*
X0061171Y0147813D01*
X0061320Y0147777D01*
X0061468Y0147738D01*
X0061615Y0147695D01*
X0061761Y0147648D01*
X0061906Y0147597D01*
X0062049Y0147542D01*
X0062191Y0147484D01*
X0062331Y0147422D01*
X0062470Y0147357D01*
X0062607Y0147288D01*
X0062742Y0147215D01*
X0062875Y0147139D01*
X0063006Y0147059D01*
X0063135Y0146977D01*
X0063262Y0146890D01*
X0063387Y0146801D01*
X0063509Y0146708D01*
X0063628Y0146612D01*
X0063746Y0146513D01*
X0063860Y0146412D01*
X0063972Y0146307D01*
X0064081Y0146199D01*
X0064187Y0146088D01*
X0064291Y0145975D01*
X0064391Y0145859D01*
X0064489Y0145741D01*
X0064583Y0145620D01*
X0064674Y0145497D01*
X0064762Y0145371D01*
X0064846Y0145243D01*
X0064928Y0145113D01*
X0065005Y0144981D01*
X0065080Y0144847D01*
X0065151Y0144711D01*
X0065218Y0144573D01*
X0065282Y0144433D01*
X0065342Y0144292D01*
X0065398Y0144150D01*
X0065451Y0144006D01*
X0065500Y0143860D01*
X0065545Y0143714D01*
X0065586Y0143566D01*
X0065623Y0143418D01*
X0065657Y0143268D01*
X0065687Y0143117D01*
X0065712Y0142966D01*
X0065734Y0142815D01*
X0065752Y0142662D01*
X0065766Y0142510D01*
X0065776Y0142357D01*
X0065782Y0142203D01*
X0065784Y0142050D01*
X0065782Y0141897D01*
X0065776Y0141743D01*
X0065766Y0141590D01*
X0065752Y0141438D01*
X0065734Y0141285D01*
X0065712Y0141134D01*
X0065687Y0140983D01*
X0065657Y0140832D01*
X0065623Y0140682D01*
X0065586Y0140534D01*
X0065545Y0140386D01*
X0065500Y0140240D01*
X0065451Y0140094D01*
X0065398Y0139950D01*
X0065342Y0139808D01*
X0065282Y0139667D01*
X0065218Y0139527D01*
X0065151Y0139389D01*
X0065080Y0139253D01*
X0065005Y0139119D01*
X0064928Y0138987D01*
X0064846Y0138857D01*
X0064762Y0138729D01*
X0064674Y0138603D01*
X0064583Y0138480D01*
X0064489Y0138359D01*
X0064391Y0138241D01*
X0064291Y0138125D01*
X0064187Y0138012D01*
X0064081Y0137901D01*
X0063972Y0137793D01*
X0063860Y0137688D01*
X0063746Y0137587D01*
X0063628Y0137488D01*
X0063509Y0137392D01*
X0063387Y0137299D01*
X0063262Y0137210D01*
X0063135Y0137123D01*
X0063006Y0137041D01*
X0062875Y0136961D01*
X0062742Y0136885D01*
X0062607Y0136812D01*
X0062470Y0136743D01*
X0062331Y0136678D01*
X0062191Y0136616D01*
X0062049Y0136558D01*
X0061906Y0136503D01*
X0061761Y0136452D01*
X0061615Y0136405D01*
X0061468Y0136362D01*
X0061320Y0136323D01*
X0061171Y0136287D01*
X0061021Y0136256D01*
X0060870Y0136228D01*
X0060719Y0136204D01*
X0060566Y0136184D01*
X0060414Y0136168D01*
X0060261Y0136156D01*
X0060108Y0136148D01*
X0059955Y0136144D01*
X0059801Y0136144D01*
X0059648Y0136148D01*
X0059495Y0136156D01*
X0059342Y0136168D01*
X0059190Y0136184D01*
X0059037Y0136204D01*
X0058886Y0136228D01*
X0058735Y0136256D01*
X0058585Y0136287D01*
X0058436Y0136323D01*
X0058288Y0136362D01*
X0058141Y0136405D01*
X0057995Y0136452D01*
X0057850Y0136503D01*
X0057707Y0136558D01*
X0057565Y0136616D01*
X0057425Y0136678D01*
X0057286Y0136743D01*
X0057149Y0136812D01*
X0057014Y0136885D01*
X0056881Y0136961D01*
X0056750Y0137041D01*
X0056621Y0137123D01*
X0056494Y0137210D01*
X0056369Y0137299D01*
X0056247Y0137392D01*
X0056128Y0137488D01*
X0056010Y0137587D01*
X0055896Y0137688D01*
X0055784Y0137793D01*
X0055675Y0137901D01*
X0055569Y0138012D01*
X0055465Y0138125D01*
X0055365Y0138241D01*
X0055267Y0138359D01*
X0055173Y0138480D01*
X0055082Y0138603D01*
X0054994Y0138729D01*
X0054910Y0138857D01*
X0054828Y0138987D01*
X0054751Y0139119D01*
X0054676Y0139253D01*
X0054605Y0139389D01*
X0054538Y0139527D01*
X0054474Y0139667D01*
X0054414Y0139808D01*
X0054358Y0139950D01*
X0054305Y0140094D01*
X0054256Y0140240D01*
X0054211Y0140386D01*
X0054170Y0140534D01*
X0054133Y0140682D01*
X0054099Y0140832D01*
X0054069Y0140983D01*
X0054044Y0141134D01*
X0054022Y0141285D01*
X0054004Y0141438D01*
X0053990Y0141590D01*
X0053980Y0141743D01*
X0053974Y0141897D01*
X0053972Y0142050D01*
X0243972Y0142050D02*
X0243974Y0142203D01*
X0243980Y0142357D01*
X0243990Y0142510D01*
X0244004Y0142662D01*
X0244022Y0142815D01*
X0244044Y0142966D01*
X0244069Y0143117D01*
X0244099Y0143268D01*
X0244133Y0143418D01*
X0244170Y0143566D01*
X0244211Y0143714D01*
X0244256Y0143860D01*
X0244305Y0144006D01*
X0244358Y0144150D01*
X0244414Y0144292D01*
X0244474Y0144433D01*
X0244538Y0144573D01*
X0244605Y0144711D01*
X0244676Y0144847D01*
X0244751Y0144981D01*
X0244828Y0145113D01*
X0244910Y0145243D01*
X0244994Y0145371D01*
X0245082Y0145497D01*
X0245173Y0145620D01*
X0245267Y0145741D01*
X0245365Y0145859D01*
X0245465Y0145975D01*
X0245569Y0146088D01*
X0245675Y0146199D01*
X0245784Y0146307D01*
X0245896Y0146412D01*
X0246010Y0146513D01*
X0246128Y0146612D01*
X0246247Y0146708D01*
X0246369Y0146801D01*
X0246494Y0146890D01*
X0246621Y0146977D01*
X0246750Y0147059D01*
X0246881Y0147139D01*
X0247014Y0147215D01*
X0247149Y0147288D01*
X0247286Y0147357D01*
X0247425Y0147422D01*
X0247565Y0147484D01*
X0247707Y0147542D01*
X0247850Y0147597D01*
X0247995Y0147648D01*
X0248141Y0147695D01*
X0248288Y0147738D01*
X0248436Y0147777D01*
X0248585Y0147813D01*
X0248735Y0147844D01*
X0248886Y0147872D01*
X0249037Y0147896D01*
X0249190Y0147916D01*
X0249342Y0147932D01*
X0249495Y0147944D01*
X0249648Y0147952D01*
X0249801Y0147956D01*
X0249955Y0147956D01*
X0250108Y0147952D01*
X0250261Y0147944D01*
X0250414Y0147932D01*
X0250566Y0147916D01*
X0250719Y0147896D01*
X0250870Y0147872D01*
X0251021Y0147844D01*
X0251171Y0147813D01*
X0251320Y0147777D01*
X0251468Y0147738D01*
X0251615Y0147695D01*
X0251761Y0147648D01*
X0251906Y0147597D01*
X0252049Y0147542D01*
X0252191Y0147484D01*
X0252331Y0147422D01*
X0252470Y0147357D01*
X0252607Y0147288D01*
X0252742Y0147215D01*
X0252875Y0147139D01*
X0253006Y0147059D01*
X0253135Y0146977D01*
X0253262Y0146890D01*
X0253387Y0146801D01*
X0253509Y0146708D01*
X0253628Y0146612D01*
X0253746Y0146513D01*
X0253860Y0146412D01*
X0253972Y0146307D01*
X0254081Y0146199D01*
X0254187Y0146088D01*
X0254291Y0145975D01*
X0254391Y0145859D01*
X0254489Y0145741D01*
X0254583Y0145620D01*
X0254674Y0145497D01*
X0254762Y0145371D01*
X0254846Y0145243D01*
X0254928Y0145113D01*
X0255005Y0144981D01*
X0255080Y0144847D01*
X0255151Y0144711D01*
X0255218Y0144573D01*
X0255282Y0144433D01*
X0255342Y0144292D01*
X0255398Y0144150D01*
X0255451Y0144006D01*
X0255500Y0143860D01*
X0255545Y0143714D01*
X0255586Y0143566D01*
X0255623Y0143418D01*
X0255657Y0143268D01*
X0255687Y0143117D01*
X0255712Y0142966D01*
X0255734Y0142815D01*
X0255752Y0142662D01*
X0255766Y0142510D01*
X0255776Y0142357D01*
X0255782Y0142203D01*
X0255784Y0142050D01*
X0255782Y0141897D01*
X0255776Y0141743D01*
X0255766Y0141590D01*
X0255752Y0141438D01*
X0255734Y0141285D01*
X0255712Y0141134D01*
X0255687Y0140983D01*
X0255657Y0140832D01*
X0255623Y0140682D01*
X0255586Y0140534D01*
X0255545Y0140386D01*
X0255500Y0140240D01*
X0255451Y0140094D01*
X0255398Y0139950D01*
X0255342Y0139808D01*
X0255282Y0139667D01*
X0255218Y0139527D01*
X0255151Y0139389D01*
X0255080Y0139253D01*
X0255005Y0139119D01*
X0254928Y0138987D01*
X0254846Y0138857D01*
X0254762Y0138729D01*
X0254674Y0138603D01*
X0254583Y0138480D01*
X0254489Y0138359D01*
X0254391Y0138241D01*
X0254291Y0138125D01*
X0254187Y0138012D01*
X0254081Y0137901D01*
X0253972Y0137793D01*
X0253860Y0137688D01*
X0253746Y0137587D01*
X0253628Y0137488D01*
X0253509Y0137392D01*
X0253387Y0137299D01*
X0253262Y0137210D01*
X0253135Y0137123D01*
X0253006Y0137041D01*
X0252875Y0136961D01*
X0252742Y0136885D01*
X0252607Y0136812D01*
X0252470Y0136743D01*
X0252331Y0136678D01*
X0252191Y0136616D01*
X0252049Y0136558D01*
X0251906Y0136503D01*
X0251761Y0136452D01*
X0251615Y0136405D01*
X0251468Y0136362D01*
X0251320Y0136323D01*
X0251171Y0136287D01*
X0251021Y0136256D01*
X0250870Y0136228D01*
X0250719Y0136204D01*
X0250566Y0136184D01*
X0250414Y0136168D01*
X0250261Y0136156D01*
X0250108Y0136148D01*
X0249955Y0136144D01*
X0249801Y0136144D01*
X0249648Y0136148D01*
X0249495Y0136156D01*
X0249342Y0136168D01*
X0249190Y0136184D01*
X0249037Y0136204D01*
X0248886Y0136228D01*
X0248735Y0136256D01*
X0248585Y0136287D01*
X0248436Y0136323D01*
X0248288Y0136362D01*
X0248141Y0136405D01*
X0247995Y0136452D01*
X0247850Y0136503D01*
X0247707Y0136558D01*
X0247565Y0136616D01*
X0247425Y0136678D01*
X0247286Y0136743D01*
X0247149Y0136812D01*
X0247014Y0136885D01*
X0246881Y0136961D01*
X0246750Y0137041D01*
X0246621Y0137123D01*
X0246494Y0137210D01*
X0246369Y0137299D01*
X0246247Y0137392D01*
X0246128Y0137488D01*
X0246010Y0137587D01*
X0245896Y0137688D01*
X0245784Y0137793D01*
X0245675Y0137901D01*
X0245569Y0138012D01*
X0245465Y0138125D01*
X0245365Y0138241D01*
X0245267Y0138359D01*
X0245173Y0138480D01*
X0245082Y0138603D01*
X0244994Y0138729D01*
X0244910Y0138857D01*
X0244828Y0138987D01*
X0244751Y0139119D01*
X0244676Y0139253D01*
X0244605Y0139389D01*
X0244538Y0139527D01*
X0244474Y0139667D01*
X0244414Y0139808D01*
X0244358Y0139950D01*
X0244305Y0140094D01*
X0244256Y0140240D01*
X0244211Y0140386D01*
X0244170Y0140534D01*
X0244133Y0140682D01*
X0244099Y0140832D01*
X0244069Y0140983D01*
X0244044Y0141134D01*
X0244022Y0141285D01*
X0244004Y0141438D01*
X0243990Y0141590D01*
X0243980Y0141743D01*
X0243974Y0141897D01*
X0243972Y0142050D01*
X0243972Y0037050D02*
X0243974Y0037203D01*
X0243980Y0037357D01*
X0243990Y0037510D01*
X0244004Y0037662D01*
X0244022Y0037815D01*
X0244044Y0037966D01*
X0244069Y0038117D01*
X0244099Y0038268D01*
X0244133Y0038418D01*
X0244170Y0038566D01*
X0244211Y0038714D01*
X0244256Y0038860D01*
X0244305Y0039006D01*
X0244358Y0039150D01*
X0244414Y0039292D01*
X0244474Y0039433D01*
X0244538Y0039573D01*
X0244605Y0039711D01*
X0244676Y0039847D01*
X0244751Y0039981D01*
X0244828Y0040113D01*
X0244910Y0040243D01*
X0244994Y0040371D01*
X0245082Y0040497D01*
X0245173Y0040620D01*
X0245267Y0040741D01*
X0245365Y0040859D01*
X0245465Y0040975D01*
X0245569Y0041088D01*
X0245675Y0041199D01*
X0245784Y0041307D01*
X0245896Y0041412D01*
X0246010Y0041513D01*
X0246128Y0041612D01*
X0246247Y0041708D01*
X0246369Y0041801D01*
X0246494Y0041890D01*
X0246621Y0041977D01*
X0246750Y0042059D01*
X0246881Y0042139D01*
X0247014Y0042215D01*
X0247149Y0042288D01*
X0247286Y0042357D01*
X0247425Y0042422D01*
X0247565Y0042484D01*
X0247707Y0042542D01*
X0247850Y0042597D01*
X0247995Y0042648D01*
X0248141Y0042695D01*
X0248288Y0042738D01*
X0248436Y0042777D01*
X0248585Y0042813D01*
X0248735Y0042844D01*
X0248886Y0042872D01*
X0249037Y0042896D01*
X0249190Y0042916D01*
X0249342Y0042932D01*
X0249495Y0042944D01*
X0249648Y0042952D01*
X0249801Y0042956D01*
X0249955Y0042956D01*
X0250108Y0042952D01*
X0250261Y0042944D01*
X0250414Y0042932D01*
X0250566Y0042916D01*
X0250719Y0042896D01*
X0250870Y0042872D01*
X0251021Y0042844D01*
X0251171Y0042813D01*
X0251320Y0042777D01*
X0251468Y0042738D01*
X0251615Y0042695D01*
X0251761Y0042648D01*
X0251906Y0042597D01*
X0252049Y0042542D01*
X0252191Y0042484D01*
X0252331Y0042422D01*
X0252470Y0042357D01*
X0252607Y0042288D01*
X0252742Y0042215D01*
X0252875Y0042139D01*
X0253006Y0042059D01*
X0253135Y0041977D01*
X0253262Y0041890D01*
X0253387Y0041801D01*
X0253509Y0041708D01*
X0253628Y0041612D01*
X0253746Y0041513D01*
X0253860Y0041412D01*
X0253972Y0041307D01*
X0254081Y0041199D01*
X0254187Y0041088D01*
X0254291Y0040975D01*
X0254391Y0040859D01*
X0254489Y0040741D01*
X0254583Y0040620D01*
X0254674Y0040497D01*
X0254762Y0040371D01*
X0254846Y0040243D01*
X0254928Y0040113D01*
X0255005Y0039981D01*
X0255080Y0039847D01*
X0255151Y0039711D01*
X0255218Y0039573D01*
X0255282Y0039433D01*
X0255342Y0039292D01*
X0255398Y0039150D01*
X0255451Y0039006D01*
X0255500Y0038860D01*
X0255545Y0038714D01*
X0255586Y0038566D01*
X0255623Y0038418D01*
X0255657Y0038268D01*
X0255687Y0038117D01*
X0255712Y0037966D01*
X0255734Y0037815D01*
X0255752Y0037662D01*
X0255766Y0037510D01*
X0255776Y0037357D01*
X0255782Y0037203D01*
X0255784Y0037050D01*
X0255782Y0036897D01*
X0255776Y0036743D01*
X0255766Y0036590D01*
X0255752Y0036438D01*
X0255734Y0036285D01*
X0255712Y0036134D01*
X0255687Y0035983D01*
X0255657Y0035832D01*
X0255623Y0035682D01*
X0255586Y0035534D01*
X0255545Y0035386D01*
X0255500Y0035240D01*
X0255451Y0035094D01*
X0255398Y0034950D01*
X0255342Y0034808D01*
X0255282Y0034667D01*
X0255218Y0034527D01*
X0255151Y0034389D01*
X0255080Y0034253D01*
X0255005Y0034119D01*
X0254928Y0033987D01*
X0254846Y0033857D01*
X0254762Y0033729D01*
X0254674Y0033603D01*
X0254583Y0033480D01*
X0254489Y0033359D01*
X0254391Y0033241D01*
X0254291Y0033125D01*
X0254187Y0033012D01*
X0254081Y0032901D01*
X0253972Y0032793D01*
X0253860Y0032688D01*
X0253746Y0032587D01*
X0253628Y0032488D01*
X0253509Y0032392D01*
X0253387Y0032299D01*
X0253262Y0032210D01*
X0253135Y0032123D01*
X0253006Y0032041D01*
X0252875Y0031961D01*
X0252742Y0031885D01*
X0252607Y0031812D01*
X0252470Y0031743D01*
X0252331Y0031678D01*
X0252191Y0031616D01*
X0252049Y0031558D01*
X0251906Y0031503D01*
X0251761Y0031452D01*
X0251615Y0031405D01*
X0251468Y0031362D01*
X0251320Y0031323D01*
X0251171Y0031287D01*
X0251021Y0031256D01*
X0250870Y0031228D01*
X0250719Y0031204D01*
X0250566Y0031184D01*
X0250414Y0031168D01*
X0250261Y0031156D01*
X0250108Y0031148D01*
X0249955Y0031144D01*
X0249801Y0031144D01*
X0249648Y0031148D01*
X0249495Y0031156D01*
X0249342Y0031168D01*
X0249190Y0031184D01*
X0249037Y0031204D01*
X0248886Y0031228D01*
X0248735Y0031256D01*
X0248585Y0031287D01*
X0248436Y0031323D01*
X0248288Y0031362D01*
X0248141Y0031405D01*
X0247995Y0031452D01*
X0247850Y0031503D01*
X0247707Y0031558D01*
X0247565Y0031616D01*
X0247425Y0031678D01*
X0247286Y0031743D01*
X0247149Y0031812D01*
X0247014Y0031885D01*
X0246881Y0031961D01*
X0246750Y0032041D01*
X0246621Y0032123D01*
X0246494Y0032210D01*
X0246369Y0032299D01*
X0246247Y0032392D01*
X0246128Y0032488D01*
X0246010Y0032587D01*
X0245896Y0032688D01*
X0245784Y0032793D01*
X0245675Y0032901D01*
X0245569Y0033012D01*
X0245465Y0033125D01*
X0245365Y0033241D01*
X0245267Y0033359D01*
X0245173Y0033480D01*
X0245082Y0033603D01*
X0244994Y0033729D01*
X0244910Y0033857D01*
X0244828Y0033987D01*
X0244751Y0034119D01*
X0244676Y0034253D01*
X0244605Y0034389D01*
X0244538Y0034527D01*
X0244474Y0034667D01*
X0244414Y0034808D01*
X0244358Y0034950D01*
X0244305Y0035094D01*
X0244256Y0035240D01*
X0244211Y0035386D01*
X0244170Y0035534D01*
X0244133Y0035682D01*
X0244099Y0035832D01*
X0244069Y0035983D01*
X0244044Y0036134D01*
X0244022Y0036285D01*
X0244004Y0036438D01*
X0243990Y0036590D01*
X0243980Y0036743D01*
X0243974Y0036897D01*
X0243972Y0037050D01*
D11*
X0106178Y0034950D02*
X0106178Y0028950D01*
X0106176Y0028890D01*
X0106171Y0028829D01*
X0106162Y0028770D01*
X0106149Y0028711D01*
X0106133Y0028652D01*
X0106113Y0028595D01*
X0106090Y0028540D01*
X0106063Y0028485D01*
X0106034Y0028433D01*
X0106001Y0028382D01*
X0105965Y0028333D01*
X0105927Y0028287D01*
X0105885Y0028243D01*
X0105841Y0028201D01*
X0105795Y0028163D01*
X0105746Y0028127D01*
X0105695Y0028094D01*
X0105643Y0028065D01*
X0105588Y0028038D01*
X0105533Y0028015D01*
X0105476Y0027995D01*
X0105417Y0027979D01*
X0105358Y0027966D01*
X0105299Y0027957D01*
X0105238Y0027952D01*
X0105178Y0027950D01*
X0088178Y0027950D01*
X0088118Y0027952D01*
X0088057Y0027957D01*
X0087998Y0027966D01*
X0087939Y0027979D01*
X0087880Y0027995D01*
X0087823Y0028015D01*
X0087768Y0028038D01*
X0087713Y0028065D01*
X0087661Y0028094D01*
X0087610Y0028127D01*
X0087561Y0028163D01*
X0087515Y0028201D01*
X0087471Y0028243D01*
X0087429Y0028287D01*
X0087391Y0028333D01*
X0087355Y0028382D01*
X0087322Y0028433D01*
X0087293Y0028485D01*
X0087266Y0028540D01*
X0087243Y0028595D01*
X0087223Y0028652D01*
X0087207Y0028711D01*
X0087194Y0028770D01*
X0087185Y0028829D01*
X0087180Y0028890D01*
X0087178Y0028950D01*
X0087178Y0034950D01*
X0087180Y0035010D01*
X0087185Y0035071D01*
X0087194Y0035130D01*
X0087207Y0035189D01*
X0087223Y0035248D01*
X0087243Y0035305D01*
X0087266Y0035360D01*
X0087293Y0035415D01*
X0087322Y0035467D01*
X0087355Y0035518D01*
X0087391Y0035567D01*
X0087429Y0035613D01*
X0087471Y0035657D01*
X0087515Y0035699D01*
X0087561Y0035737D01*
X0087610Y0035773D01*
X0087661Y0035806D01*
X0087713Y0035835D01*
X0087768Y0035862D01*
X0087823Y0035885D01*
X0087880Y0035905D01*
X0087939Y0035921D01*
X0087998Y0035934D01*
X0088057Y0035943D01*
X0088118Y0035948D01*
X0088178Y0035950D01*
X0105178Y0035950D01*
X0105238Y0035948D01*
X0105299Y0035943D01*
X0105358Y0035934D01*
X0105417Y0035921D01*
X0105476Y0035905D01*
X0105533Y0035885D01*
X0105588Y0035862D01*
X0105643Y0035835D01*
X0105695Y0035806D01*
X0105746Y0035773D01*
X0105795Y0035737D01*
X0105841Y0035699D01*
X0105885Y0035657D01*
X0105927Y0035613D01*
X0105965Y0035567D01*
X0106001Y0035518D01*
X0106034Y0035467D01*
X0106063Y0035415D01*
X0106090Y0035360D01*
X0106113Y0035305D01*
X0106133Y0035248D01*
X0106149Y0035189D01*
X0106162Y0035130D01*
X0106171Y0035071D01*
X0106176Y0035010D01*
X0106178Y0034950D01*
X0048578Y0055050D02*
X0048578Y0061050D01*
X0048576Y0061110D01*
X0048571Y0061171D01*
X0048562Y0061230D01*
X0048549Y0061289D01*
X0048533Y0061348D01*
X0048513Y0061405D01*
X0048490Y0061460D01*
X0048463Y0061515D01*
X0048434Y0061567D01*
X0048401Y0061618D01*
X0048365Y0061667D01*
X0048327Y0061713D01*
X0048285Y0061757D01*
X0048241Y0061799D01*
X0048195Y0061837D01*
X0048146Y0061873D01*
X0048095Y0061906D01*
X0048043Y0061935D01*
X0047988Y0061962D01*
X0047933Y0061985D01*
X0047876Y0062005D01*
X0047817Y0062021D01*
X0047758Y0062034D01*
X0047699Y0062043D01*
X0047638Y0062048D01*
X0047578Y0062050D01*
X0036578Y0062050D01*
X0036518Y0062048D01*
X0036457Y0062043D01*
X0036398Y0062034D01*
X0036339Y0062021D01*
X0036280Y0062005D01*
X0036223Y0061985D01*
X0036168Y0061962D01*
X0036113Y0061935D01*
X0036061Y0061906D01*
X0036010Y0061873D01*
X0035961Y0061837D01*
X0035915Y0061799D01*
X0035871Y0061757D01*
X0035829Y0061713D01*
X0035791Y0061667D01*
X0035755Y0061618D01*
X0035722Y0061567D01*
X0035693Y0061515D01*
X0035666Y0061460D01*
X0035643Y0061405D01*
X0035623Y0061348D01*
X0035607Y0061289D01*
X0035594Y0061230D01*
X0035585Y0061171D01*
X0035580Y0061110D01*
X0035578Y0061050D01*
X0035578Y0055050D01*
X0035580Y0054990D01*
X0035585Y0054929D01*
X0035594Y0054870D01*
X0035607Y0054811D01*
X0035623Y0054752D01*
X0035643Y0054695D01*
X0035666Y0054640D01*
X0035693Y0054585D01*
X0035722Y0054533D01*
X0035755Y0054482D01*
X0035791Y0054433D01*
X0035829Y0054387D01*
X0035871Y0054343D01*
X0035915Y0054301D01*
X0035961Y0054263D01*
X0036010Y0054227D01*
X0036061Y0054194D01*
X0036113Y0054165D01*
X0036168Y0054138D01*
X0036223Y0054115D01*
X0036280Y0054095D01*
X0036339Y0054079D01*
X0036398Y0054066D01*
X0036457Y0054057D01*
X0036518Y0054052D01*
X0036578Y0054050D01*
X0047578Y0054050D01*
X0047638Y0054052D01*
X0047699Y0054057D01*
X0047758Y0054066D01*
X0047817Y0054079D01*
X0047876Y0054095D01*
X0047933Y0054115D01*
X0047988Y0054138D01*
X0048043Y0054165D01*
X0048095Y0054194D01*
X0048146Y0054227D01*
X0048195Y0054263D01*
X0048241Y0054301D01*
X0048285Y0054343D01*
X0048327Y0054387D01*
X0048365Y0054433D01*
X0048401Y0054482D01*
X0048434Y0054533D01*
X0048463Y0054585D01*
X0048490Y0054640D01*
X0048513Y0054695D01*
X0048533Y0054752D01*
X0048549Y0054811D01*
X0048562Y0054870D01*
X0048571Y0054929D01*
X0048576Y0054990D01*
X0048578Y0055050D01*
M02*
