G75*
%MOIN*%
%OFA0B0*%
%FSLAX25Y25*%
%IPPOS*%
%LPD*%
%AMOC8*
5,1,8,0,0,1.08239X$1,22.5*
%
%ADD10C,0.00000*%
%ADD11C,0.12211*%
%ADD12R,0.04731X0.04337*%
%ADD13R,0.04337X0.04731*%
%ADD14R,0.06306X0.08077*%
%ADD15R,0.08865X0.06699*%
%ADD16C,0.00015*%
%ADD17C,0.01581*%
%ADD18R,0.04200X0.13600*%
%ADD19R,0.03550X0.03550*%
%ADD20R,0.01600X0.03000*%
%ADD21R,0.12600X0.04300*%
%ADD22C,0.06400*%
%ADD23R,0.01581X0.03550*%
%ADD24R,0.03550X0.01581*%
%ADD25R,0.03543X0.01575*%
%ADD26R,0.01575X0.03346*%
%ADD27R,0.09646X0.10433*%
%ADD28R,0.05912X0.01581*%
%ADD29R,0.01581X0.05912*%
%ADD30R,0.03156X0.03943*%
%ADD31R,0.05400X0.02900*%
%ADD32R,0.10400X0.05400*%
%ADD33R,0.02800X0.09100*%
%ADD34OC8,0.06400*%
%ADD35R,0.02369X0.01778*%
D10*
X0009878Y0004550D02*
X0009878Y0169550D01*
X0307378Y0169550D01*
X0307378Y0004550D01*
X0009878Y0004550D01*
X0050710Y0033206D02*
X0050712Y0033254D01*
X0050718Y0033302D01*
X0050728Y0033349D01*
X0050741Y0033395D01*
X0050759Y0033440D01*
X0050779Y0033484D01*
X0050804Y0033526D01*
X0050832Y0033565D01*
X0050862Y0033602D01*
X0050896Y0033636D01*
X0050933Y0033668D01*
X0050971Y0033697D01*
X0051012Y0033722D01*
X0051055Y0033744D01*
X0051100Y0033762D01*
X0051146Y0033776D01*
X0051193Y0033787D01*
X0051241Y0033794D01*
X0051289Y0033797D01*
X0051337Y0033796D01*
X0051385Y0033791D01*
X0051433Y0033782D01*
X0051479Y0033770D01*
X0051524Y0033753D01*
X0051568Y0033733D01*
X0051610Y0033710D01*
X0051650Y0033683D01*
X0051688Y0033653D01*
X0051723Y0033620D01*
X0051755Y0033584D01*
X0051785Y0033546D01*
X0051811Y0033505D01*
X0051833Y0033462D01*
X0051853Y0033418D01*
X0051868Y0033373D01*
X0051880Y0033326D01*
X0051888Y0033278D01*
X0051892Y0033230D01*
X0051892Y0033182D01*
X0051888Y0033134D01*
X0051880Y0033086D01*
X0051868Y0033039D01*
X0051853Y0032994D01*
X0051833Y0032950D01*
X0051811Y0032907D01*
X0051785Y0032866D01*
X0051755Y0032828D01*
X0051723Y0032792D01*
X0051688Y0032759D01*
X0051650Y0032729D01*
X0051610Y0032702D01*
X0051568Y0032679D01*
X0051524Y0032659D01*
X0051479Y0032642D01*
X0051433Y0032630D01*
X0051385Y0032621D01*
X0051337Y0032616D01*
X0051289Y0032615D01*
X0051241Y0032618D01*
X0051193Y0032625D01*
X0051146Y0032636D01*
X0051100Y0032650D01*
X0051055Y0032668D01*
X0051012Y0032690D01*
X0050971Y0032715D01*
X0050933Y0032744D01*
X0050896Y0032776D01*
X0050862Y0032810D01*
X0050832Y0032847D01*
X0050804Y0032886D01*
X0050779Y0032928D01*
X0050759Y0032972D01*
X0050741Y0033017D01*
X0050728Y0033063D01*
X0050718Y0033110D01*
X0050712Y0033158D01*
X0050710Y0033206D01*
X0053662Y0035175D02*
X0053664Y0035223D01*
X0053670Y0035271D01*
X0053680Y0035318D01*
X0053693Y0035364D01*
X0053711Y0035409D01*
X0053731Y0035453D01*
X0053756Y0035495D01*
X0053784Y0035534D01*
X0053814Y0035571D01*
X0053848Y0035605D01*
X0053885Y0035637D01*
X0053923Y0035666D01*
X0053964Y0035691D01*
X0054007Y0035713D01*
X0054052Y0035731D01*
X0054098Y0035745D01*
X0054145Y0035756D01*
X0054193Y0035763D01*
X0054241Y0035766D01*
X0054289Y0035765D01*
X0054337Y0035760D01*
X0054385Y0035751D01*
X0054431Y0035739D01*
X0054476Y0035722D01*
X0054520Y0035702D01*
X0054562Y0035679D01*
X0054602Y0035652D01*
X0054640Y0035622D01*
X0054675Y0035589D01*
X0054707Y0035553D01*
X0054737Y0035515D01*
X0054763Y0035474D01*
X0054785Y0035431D01*
X0054805Y0035387D01*
X0054820Y0035342D01*
X0054832Y0035295D01*
X0054840Y0035247D01*
X0054844Y0035199D01*
X0054844Y0035151D01*
X0054840Y0035103D01*
X0054832Y0035055D01*
X0054820Y0035008D01*
X0054805Y0034963D01*
X0054785Y0034919D01*
X0054763Y0034876D01*
X0054737Y0034835D01*
X0054707Y0034797D01*
X0054675Y0034761D01*
X0054640Y0034728D01*
X0054602Y0034698D01*
X0054562Y0034671D01*
X0054520Y0034648D01*
X0054476Y0034628D01*
X0054431Y0034611D01*
X0054385Y0034599D01*
X0054337Y0034590D01*
X0054289Y0034585D01*
X0054241Y0034584D01*
X0054193Y0034587D01*
X0054145Y0034594D01*
X0054098Y0034605D01*
X0054052Y0034619D01*
X0054007Y0034637D01*
X0053964Y0034659D01*
X0053923Y0034684D01*
X0053885Y0034713D01*
X0053848Y0034745D01*
X0053814Y0034779D01*
X0053784Y0034816D01*
X0053756Y0034855D01*
X0053731Y0034897D01*
X0053711Y0034941D01*
X0053693Y0034986D01*
X0053680Y0035032D01*
X0053670Y0035079D01*
X0053664Y0035127D01*
X0053662Y0035175D01*
X0050710Y0037144D02*
X0050712Y0037192D01*
X0050718Y0037240D01*
X0050728Y0037287D01*
X0050741Y0037333D01*
X0050759Y0037378D01*
X0050779Y0037422D01*
X0050804Y0037464D01*
X0050832Y0037503D01*
X0050862Y0037540D01*
X0050896Y0037574D01*
X0050933Y0037606D01*
X0050971Y0037635D01*
X0051012Y0037660D01*
X0051055Y0037682D01*
X0051100Y0037700D01*
X0051146Y0037714D01*
X0051193Y0037725D01*
X0051241Y0037732D01*
X0051289Y0037735D01*
X0051337Y0037734D01*
X0051385Y0037729D01*
X0051433Y0037720D01*
X0051479Y0037708D01*
X0051524Y0037691D01*
X0051568Y0037671D01*
X0051610Y0037648D01*
X0051650Y0037621D01*
X0051688Y0037591D01*
X0051723Y0037558D01*
X0051755Y0037522D01*
X0051785Y0037484D01*
X0051811Y0037443D01*
X0051833Y0037400D01*
X0051853Y0037356D01*
X0051868Y0037311D01*
X0051880Y0037264D01*
X0051888Y0037216D01*
X0051892Y0037168D01*
X0051892Y0037120D01*
X0051888Y0037072D01*
X0051880Y0037024D01*
X0051868Y0036977D01*
X0051853Y0036932D01*
X0051833Y0036888D01*
X0051811Y0036845D01*
X0051785Y0036804D01*
X0051755Y0036766D01*
X0051723Y0036730D01*
X0051688Y0036697D01*
X0051650Y0036667D01*
X0051610Y0036640D01*
X0051568Y0036617D01*
X0051524Y0036597D01*
X0051479Y0036580D01*
X0051433Y0036568D01*
X0051385Y0036559D01*
X0051337Y0036554D01*
X0051289Y0036553D01*
X0051241Y0036556D01*
X0051193Y0036563D01*
X0051146Y0036574D01*
X0051100Y0036588D01*
X0051055Y0036606D01*
X0051012Y0036628D01*
X0050971Y0036653D01*
X0050933Y0036682D01*
X0050896Y0036714D01*
X0050862Y0036748D01*
X0050832Y0036785D01*
X0050804Y0036824D01*
X0050779Y0036866D01*
X0050759Y0036910D01*
X0050741Y0036955D01*
X0050728Y0037001D01*
X0050718Y0037048D01*
X0050712Y0037096D01*
X0050710Y0037144D01*
X0056615Y0037144D02*
X0056617Y0037192D01*
X0056623Y0037240D01*
X0056633Y0037287D01*
X0056646Y0037333D01*
X0056664Y0037378D01*
X0056684Y0037422D01*
X0056709Y0037464D01*
X0056737Y0037503D01*
X0056767Y0037540D01*
X0056801Y0037574D01*
X0056838Y0037606D01*
X0056876Y0037635D01*
X0056917Y0037660D01*
X0056960Y0037682D01*
X0057005Y0037700D01*
X0057051Y0037714D01*
X0057098Y0037725D01*
X0057146Y0037732D01*
X0057194Y0037735D01*
X0057242Y0037734D01*
X0057290Y0037729D01*
X0057338Y0037720D01*
X0057384Y0037708D01*
X0057429Y0037691D01*
X0057473Y0037671D01*
X0057515Y0037648D01*
X0057555Y0037621D01*
X0057593Y0037591D01*
X0057628Y0037558D01*
X0057660Y0037522D01*
X0057690Y0037484D01*
X0057716Y0037443D01*
X0057738Y0037400D01*
X0057758Y0037356D01*
X0057773Y0037311D01*
X0057785Y0037264D01*
X0057793Y0037216D01*
X0057797Y0037168D01*
X0057797Y0037120D01*
X0057793Y0037072D01*
X0057785Y0037024D01*
X0057773Y0036977D01*
X0057758Y0036932D01*
X0057738Y0036888D01*
X0057716Y0036845D01*
X0057690Y0036804D01*
X0057660Y0036766D01*
X0057628Y0036730D01*
X0057593Y0036697D01*
X0057555Y0036667D01*
X0057515Y0036640D01*
X0057473Y0036617D01*
X0057429Y0036597D01*
X0057384Y0036580D01*
X0057338Y0036568D01*
X0057290Y0036559D01*
X0057242Y0036554D01*
X0057194Y0036553D01*
X0057146Y0036556D01*
X0057098Y0036563D01*
X0057051Y0036574D01*
X0057005Y0036588D01*
X0056960Y0036606D01*
X0056917Y0036628D01*
X0056876Y0036653D01*
X0056838Y0036682D01*
X0056801Y0036714D01*
X0056767Y0036748D01*
X0056737Y0036785D01*
X0056709Y0036824D01*
X0056684Y0036866D01*
X0056664Y0036910D01*
X0056646Y0036955D01*
X0056633Y0037001D01*
X0056623Y0037048D01*
X0056617Y0037096D01*
X0056615Y0037144D01*
X0056615Y0033206D02*
X0056617Y0033254D01*
X0056623Y0033302D01*
X0056633Y0033349D01*
X0056646Y0033395D01*
X0056664Y0033440D01*
X0056684Y0033484D01*
X0056709Y0033526D01*
X0056737Y0033565D01*
X0056767Y0033602D01*
X0056801Y0033636D01*
X0056838Y0033668D01*
X0056876Y0033697D01*
X0056917Y0033722D01*
X0056960Y0033744D01*
X0057005Y0033762D01*
X0057051Y0033776D01*
X0057098Y0033787D01*
X0057146Y0033794D01*
X0057194Y0033797D01*
X0057242Y0033796D01*
X0057290Y0033791D01*
X0057338Y0033782D01*
X0057384Y0033770D01*
X0057429Y0033753D01*
X0057473Y0033733D01*
X0057515Y0033710D01*
X0057555Y0033683D01*
X0057593Y0033653D01*
X0057628Y0033620D01*
X0057660Y0033584D01*
X0057690Y0033546D01*
X0057716Y0033505D01*
X0057738Y0033462D01*
X0057758Y0033418D01*
X0057773Y0033373D01*
X0057785Y0033326D01*
X0057793Y0033278D01*
X0057797Y0033230D01*
X0057797Y0033182D01*
X0057793Y0033134D01*
X0057785Y0033086D01*
X0057773Y0033039D01*
X0057758Y0032994D01*
X0057738Y0032950D01*
X0057716Y0032907D01*
X0057690Y0032866D01*
X0057660Y0032828D01*
X0057628Y0032792D01*
X0057593Y0032759D01*
X0057555Y0032729D01*
X0057515Y0032702D01*
X0057473Y0032679D01*
X0057429Y0032659D01*
X0057384Y0032642D01*
X0057338Y0032630D01*
X0057290Y0032621D01*
X0057242Y0032616D01*
X0057194Y0032615D01*
X0057146Y0032618D01*
X0057098Y0032625D01*
X0057051Y0032636D01*
X0057005Y0032650D01*
X0056960Y0032668D01*
X0056917Y0032690D01*
X0056876Y0032715D01*
X0056838Y0032744D01*
X0056801Y0032776D01*
X0056767Y0032810D01*
X0056737Y0032847D01*
X0056709Y0032886D01*
X0056684Y0032928D01*
X0056664Y0032972D01*
X0056646Y0033017D01*
X0056633Y0033063D01*
X0056623Y0033110D01*
X0056617Y0033158D01*
X0056615Y0033206D01*
X0053972Y0142050D02*
X0053974Y0142203D01*
X0053980Y0142357D01*
X0053990Y0142510D01*
X0054004Y0142662D01*
X0054022Y0142815D01*
X0054044Y0142966D01*
X0054069Y0143117D01*
X0054099Y0143268D01*
X0054133Y0143418D01*
X0054170Y0143566D01*
X0054211Y0143714D01*
X0054256Y0143860D01*
X0054305Y0144006D01*
X0054358Y0144150D01*
X0054414Y0144292D01*
X0054474Y0144433D01*
X0054538Y0144573D01*
X0054605Y0144711D01*
X0054676Y0144847D01*
X0054751Y0144981D01*
X0054828Y0145113D01*
X0054910Y0145243D01*
X0054994Y0145371D01*
X0055082Y0145497D01*
X0055173Y0145620D01*
X0055267Y0145741D01*
X0055365Y0145859D01*
X0055465Y0145975D01*
X0055569Y0146088D01*
X0055675Y0146199D01*
X0055784Y0146307D01*
X0055896Y0146412D01*
X0056010Y0146513D01*
X0056128Y0146612D01*
X0056247Y0146708D01*
X0056369Y0146801D01*
X0056494Y0146890D01*
X0056621Y0146977D01*
X0056750Y0147059D01*
X0056881Y0147139D01*
X0057014Y0147215D01*
X0057149Y0147288D01*
X0057286Y0147357D01*
X0057425Y0147422D01*
X0057565Y0147484D01*
X0057707Y0147542D01*
X0057850Y0147597D01*
X0057995Y0147648D01*
X0058141Y0147695D01*
X0058288Y0147738D01*
X0058436Y0147777D01*
X0058585Y0147813D01*
X0058735Y0147844D01*
X0058886Y0147872D01*
X0059037Y0147896D01*
X0059190Y0147916D01*
X0059342Y0147932D01*
X0059495Y0147944D01*
X0059648Y0147952D01*
X0059801Y0147956D01*
X0059955Y0147956D01*
X0060108Y0147952D01*
X0060261Y0147944D01*
X0060414Y0147932D01*
X0060566Y0147916D01*
X0060719Y0147896D01*
X0060870Y0147872D01*
X0061021Y0147844D01*
X0061171Y0147813D01*
X0061320Y0147777D01*
X0061468Y0147738D01*
X0061615Y0147695D01*
X0061761Y0147648D01*
X0061906Y0147597D01*
X0062049Y0147542D01*
X0062191Y0147484D01*
X0062331Y0147422D01*
X0062470Y0147357D01*
X0062607Y0147288D01*
X0062742Y0147215D01*
X0062875Y0147139D01*
X0063006Y0147059D01*
X0063135Y0146977D01*
X0063262Y0146890D01*
X0063387Y0146801D01*
X0063509Y0146708D01*
X0063628Y0146612D01*
X0063746Y0146513D01*
X0063860Y0146412D01*
X0063972Y0146307D01*
X0064081Y0146199D01*
X0064187Y0146088D01*
X0064291Y0145975D01*
X0064391Y0145859D01*
X0064489Y0145741D01*
X0064583Y0145620D01*
X0064674Y0145497D01*
X0064762Y0145371D01*
X0064846Y0145243D01*
X0064928Y0145113D01*
X0065005Y0144981D01*
X0065080Y0144847D01*
X0065151Y0144711D01*
X0065218Y0144573D01*
X0065282Y0144433D01*
X0065342Y0144292D01*
X0065398Y0144150D01*
X0065451Y0144006D01*
X0065500Y0143860D01*
X0065545Y0143714D01*
X0065586Y0143566D01*
X0065623Y0143418D01*
X0065657Y0143268D01*
X0065687Y0143117D01*
X0065712Y0142966D01*
X0065734Y0142815D01*
X0065752Y0142662D01*
X0065766Y0142510D01*
X0065776Y0142357D01*
X0065782Y0142203D01*
X0065784Y0142050D01*
X0065782Y0141897D01*
X0065776Y0141743D01*
X0065766Y0141590D01*
X0065752Y0141438D01*
X0065734Y0141285D01*
X0065712Y0141134D01*
X0065687Y0140983D01*
X0065657Y0140832D01*
X0065623Y0140682D01*
X0065586Y0140534D01*
X0065545Y0140386D01*
X0065500Y0140240D01*
X0065451Y0140094D01*
X0065398Y0139950D01*
X0065342Y0139808D01*
X0065282Y0139667D01*
X0065218Y0139527D01*
X0065151Y0139389D01*
X0065080Y0139253D01*
X0065005Y0139119D01*
X0064928Y0138987D01*
X0064846Y0138857D01*
X0064762Y0138729D01*
X0064674Y0138603D01*
X0064583Y0138480D01*
X0064489Y0138359D01*
X0064391Y0138241D01*
X0064291Y0138125D01*
X0064187Y0138012D01*
X0064081Y0137901D01*
X0063972Y0137793D01*
X0063860Y0137688D01*
X0063746Y0137587D01*
X0063628Y0137488D01*
X0063509Y0137392D01*
X0063387Y0137299D01*
X0063262Y0137210D01*
X0063135Y0137123D01*
X0063006Y0137041D01*
X0062875Y0136961D01*
X0062742Y0136885D01*
X0062607Y0136812D01*
X0062470Y0136743D01*
X0062331Y0136678D01*
X0062191Y0136616D01*
X0062049Y0136558D01*
X0061906Y0136503D01*
X0061761Y0136452D01*
X0061615Y0136405D01*
X0061468Y0136362D01*
X0061320Y0136323D01*
X0061171Y0136287D01*
X0061021Y0136256D01*
X0060870Y0136228D01*
X0060719Y0136204D01*
X0060566Y0136184D01*
X0060414Y0136168D01*
X0060261Y0136156D01*
X0060108Y0136148D01*
X0059955Y0136144D01*
X0059801Y0136144D01*
X0059648Y0136148D01*
X0059495Y0136156D01*
X0059342Y0136168D01*
X0059190Y0136184D01*
X0059037Y0136204D01*
X0058886Y0136228D01*
X0058735Y0136256D01*
X0058585Y0136287D01*
X0058436Y0136323D01*
X0058288Y0136362D01*
X0058141Y0136405D01*
X0057995Y0136452D01*
X0057850Y0136503D01*
X0057707Y0136558D01*
X0057565Y0136616D01*
X0057425Y0136678D01*
X0057286Y0136743D01*
X0057149Y0136812D01*
X0057014Y0136885D01*
X0056881Y0136961D01*
X0056750Y0137041D01*
X0056621Y0137123D01*
X0056494Y0137210D01*
X0056369Y0137299D01*
X0056247Y0137392D01*
X0056128Y0137488D01*
X0056010Y0137587D01*
X0055896Y0137688D01*
X0055784Y0137793D01*
X0055675Y0137901D01*
X0055569Y0138012D01*
X0055465Y0138125D01*
X0055365Y0138241D01*
X0055267Y0138359D01*
X0055173Y0138480D01*
X0055082Y0138603D01*
X0054994Y0138729D01*
X0054910Y0138857D01*
X0054828Y0138987D01*
X0054751Y0139119D01*
X0054676Y0139253D01*
X0054605Y0139389D01*
X0054538Y0139527D01*
X0054474Y0139667D01*
X0054414Y0139808D01*
X0054358Y0139950D01*
X0054305Y0140094D01*
X0054256Y0140240D01*
X0054211Y0140386D01*
X0054170Y0140534D01*
X0054133Y0140682D01*
X0054099Y0140832D01*
X0054069Y0140983D01*
X0054044Y0141134D01*
X0054022Y0141285D01*
X0054004Y0141438D01*
X0053990Y0141590D01*
X0053980Y0141743D01*
X0053974Y0141897D01*
X0053972Y0142050D01*
X0243972Y0142050D02*
X0243974Y0142203D01*
X0243980Y0142357D01*
X0243990Y0142510D01*
X0244004Y0142662D01*
X0244022Y0142815D01*
X0244044Y0142966D01*
X0244069Y0143117D01*
X0244099Y0143268D01*
X0244133Y0143418D01*
X0244170Y0143566D01*
X0244211Y0143714D01*
X0244256Y0143860D01*
X0244305Y0144006D01*
X0244358Y0144150D01*
X0244414Y0144292D01*
X0244474Y0144433D01*
X0244538Y0144573D01*
X0244605Y0144711D01*
X0244676Y0144847D01*
X0244751Y0144981D01*
X0244828Y0145113D01*
X0244910Y0145243D01*
X0244994Y0145371D01*
X0245082Y0145497D01*
X0245173Y0145620D01*
X0245267Y0145741D01*
X0245365Y0145859D01*
X0245465Y0145975D01*
X0245569Y0146088D01*
X0245675Y0146199D01*
X0245784Y0146307D01*
X0245896Y0146412D01*
X0246010Y0146513D01*
X0246128Y0146612D01*
X0246247Y0146708D01*
X0246369Y0146801D01*
X0246494Y0146890D01*
X0246621Y0146977D01*
X0246750Y0147059D01*
X0246881Y0147139D01*
X0247014Y0147215D01*
X0247149Y0147288D01*
X0247286Y0147357D01*
X0247425Y0147422D01*
X0247565Y0147484D01*
X0247707Y0147542D01*
X0247850Y0147597D01*
X0247995Y0147648D01*
X0248141Y0147695D01*
X0248288Y0147738D01*
X0248436Y0147777D01*
X0248585Y0147813D01*
X0248735Y0147844D01*
X0248886Y0147872D01*
X0249037Y0147896D01*
X0249190Y0147916D01*
X0249342Y0147932D01*
X0249495Y0147944D01*
X0249648Y0147952D01*
X0249801Y0147956D01*
X0249955Y0147956D01*
X0250108Y0147952D01*
X0250261Y0147944D01*
X0250414Y0147932D01*
X0250566Y0147916D01*
X0250719Y0147896D01*
X0250870Y0147872D01*
X0251021Y0147844D01*
X0251171Y0147813D01*
X0251320Y0147777D01*
X0251468Y0147738D01*
X0251615Y0147695D01*
X0251761Y0147648D01*
X0251906Y0147597D01*
X0252049Y0147542D01*
X0252191Y0147484D01*
X0252331Y0147422D01*
X0252470Y0147357D01*
X0252607Y0147288D01*
X0252742Y0147215D01*
X0252875Y0147139D01*
X0253006Y0147059D01*
X0253135Y0146977D01*
X0253262Y0146890D01*
X0253387Y0146801D01*
X0253509Y0146708D01*
X0253628Y0146612D01*
X0253746Y0146513D01*
X0253860Y0146412D01*
X0253972Y0146307D01*
X0254081Y0146199D01*
X0254187Y0146088D01*
X0254291Y0145975D01*
X0254391Y0145859D01*
X0254489Y0145741D01*
X0254583Y0145620D01*
X0254674Y0145497D01*
X0254762Y0145371D01*
X0254846Y0145243D01*
X0254928Y0145113D01*
X0255005Y0144981D01*
X0255080Y0144847D01*
X0255151Y0144711D01*
X0255218Y0144573D01*
X0255282Y0144433D01*
X0255342Y0144292D01*
X0255398Y0144150D01*
X0255451Y0144006D01*
X0255500Y0143860D01*
X0255545Y0143714D01*
X0255586Y0143566D01*
X0255623Y0143418D01*
X0255657Y0143268D01*
X0255687Y0143117D01*
X0255712Y0142966D01*
X0255734Y0142815D01*
X0255752Y0142662D01*
X0255766Y0142510D01*
X0255776Y0142357D01*
X0255782Y0142203D01*
X0255784Y0142050D01*
X0255782Y0141897D01*
X0255776Y0141743D01*
X0255766Y0141590D01*
X0255752Y0141438D01*
X0255734Y0141285D01*
X0255712Y0141134D01*
X0255687Y0140983D01*
X0255657Y0140832D01*
X0255623Y0140682D01*
X0255586Y0140534D01*
X0255545Y0140386D01*
X0255500Y0140240D01*
X0255451Y0140094D01*
X0255398Y0139950D01*
X0255342Y0139808D01*
X0255282Y0139667D01*
X0255218Y0139527D01*
X0255151Y0139389D01*
X0255080Y0139253D01*
X0255005Y0139119D01*
X0254928Y0138987D01*
X0254846Y0138857D01*
X0254762Y0138729D01*
X0254674Y0138603D01*
X0254583Y0138480D01*
X0254489Y0138359D01*
X0254391Y0138241D01*
X0254291Y0138125D01*
X0254187Y0138012D01*
X0254081Y0137901D01*
X0253972Y0137793D01*
X0253860Y0137688D01*
X0253746Y0137587D01*
X0253628Y0137488D01*
X0253509Y0137392D01*
X0253387Y0137299D01*
X0253262Y0137210D01*
X0253135Y0137123D01*
X0253006Y0137041D01*
X0252875Y0136961D01*
X0252742Y0136885D01*
X0252607Y0136812D01*
X0252470Y0136743D01*
X0252331Y0136678D01*
X0252191Y0136616D01*
X0252049Y0136558D01*
X0251906Y0136503D01*
X0251761Y0136452D01*
X0251615Y0136405D01*
X0251468Y0136362D01*
X0251320Y0136323D01*
X0251171Y0136287D01*
X0251021Y0136256D01*
X0250870Y0136228D01*
X0250719Y0136204D01*
X0250566Y0136184D01*
X0250414Y0136168D01*
X0250261Y0136156D01*
X0250108Y0136148D01*
X0249955Y0136144D01*
X0249801Y0136144D01*
X0249648Y0136148D01*
X0249495Y0136156D01*
X0249342Y0136168D01*
X0249190Y0136184D01*
X0249037Y0136204D01*
X0248886Y0136228D01*
X0248735Y0136256D01*
X0248585Y0136287D01*
X0248436Y0136323D01*
X0248288Y0136362D01*
X0248141Y0136405D01*
X0247995Y0136452D01*
X0247850Y0136503D01*
X0247707Y0136558D01*
X0247565Y0136616D01*
X0247425Y0136678D01*
X0247286Y0136743D01*
X0247149Y0136812D01*
X0247014Y0136885D01*
X0246881Y0136961D01*
X0246750Y0137041D01*
X0246621Y0137123D01*
X0246494Y0137210D01*
X0246369Y0137299D01*
X0246247Y0137392D01*
X0246128Y0137488D01*
X0246010Y0137587D01*
X0245896Y0137688D01*
X0245784Y0137793D01*
X0245675Y0137901D01*
X0245569Y0138012D01*
X0245465Y0138125D01*
X0245365Y0138241D01*
X0245267Y0138359D01*
X0245173Y0138480D01*
X0245082Y0138603D01*
X0244994Y0138729D01*
X0244910Y0138857D01*
X0244828Y0138987D01*
X0244751Y0139119D01*
X0244676Y0139253D01*
X0244605Y0139389D01*
X0244538Y0139527D01*
X0244474Y0139667D01*
X0244414Y0139808D01*
X0244358Y0139950D01*
X0244305Y0140094D01*
X0244256Y0140240D01*
X0244211Y0140386D01*
X0244170Y0140534D01*
X0244133Y0140682D01*
X0244099Y0140832D01*
X0244069Y0140983D01*
X0244044Y0141134D01*
X0244022Y0141285D01*
X0244004Y0141438D01*
X0243990Y0141590D01*
X0243980Y0141743D01*
X0243974Y0141897D01*
X0243972Y0142050D01*
X0243972Y0037050D02*
X0243974Y0037203D01*
X0243980Y0037357D01*
X0243990Y0037510D01*
X0244004Y0037662D01*
X0244022Y0037815D01*
X0244044Y0037966D01*
X0244069Y0038117D01*
X0244099Y0038268D01*
X0244133Y0038418D01*
X0244170Y0038566D01*
X0244211Y0038714D01*
X0244256Y0038860D01*
X0244305Y0039006D01*
X0244358Y0039150D01*
X0244414Y0039292D01*
X0244474Y0039433D01*
X0244538Y0039573D01*
X0244605Y0039711D01*
X0244676Y0039847D01*
X0244751Y0039981D01*
X0244828Y0040113D01*
X0244910Y0040243D01*
X0244994Y0040371D01*
X0245082Y0040497D01*
X0245173Y0040620D01*
X0245267Y0040741D01*
X0245365Y0040859D01*
X0245465Y0040975D01*
X0245569Y0041088D01*
X0245675Y0041199D01*
X0245784Y0041307D01*
X0245896Y0041412D01*
X0246010Y0041513D01*
X0246128Y0041612D01*
X0246247Y0041708D01*
X0246369Y0041801D01*
X0246494Y0041890D01*
X0246621Y0041977D01*
X0246750Y0042059D01*
X0246881Y0042139D01*
X0247014Y0042215D01*
X0247149Y0042288D01*
X0247286Y0042357D01*
X0247425Y0042422D01*
X0247565Y0042484D01*
X0247707Y0042542D01*
X0247850Y0042597D01*
X0247995Y0042648D01*
X0248141Y0042695D01*
X0248288Y0042738D01*
X0248436Y0042777D01*
X0248585Y0042813D01*
X0248735Y0042844D01*
X0248886Y0042872D01*
X0249037Y0042896D01*
X0249190Y0042916D01*
X0249342Y0042932D01*
X0249495Y0042944D01*
X0249648Y0042952D01*
X0249801Y0042956D01*
X0249955Y0042956D01*
X0250108Y0042952D01*
X0250261Y0042944D01*
X0250414Y0042932D01*
X0250566Y0042916D01*
X0250719Y0042896D01*
X0250870Y0042872D01*
X0251021Y0042844D01*
X0251171Y0042813D01*
X0251320Y0042777D01*
X0251468Y0042738D01*
X0251615Y0042695D01*
X0251761Y0042648D01*
X0251906Y0042597D01*
X0252049Y0042542D01*
X0252191Y0042484D01*
X0252331Y0042422D01*
X0252470Y0042357D01*
X0252607Y0042288D01*
X0252742Y0042215D01*
X0252875Y0042139D01*
X0253006Y0042059D01*
X0253135Y0041977D01*
X0253262Y0041890D01*
X0253387Y0041801D01*
X0253509Y0041708D01*
X0253628Y0041612D01*
X0253746Y0041513D01*
X0253860Y0041412D01*
X0253972Y0041307D01*
X0254081Y0041199D01*
X0254187Y0041088D01*
X0254291Y0040975D01*
X0254391Y0040859D01*
X0254489Y0040741D01*
X0254583Y0040620D01*
X0254674Y0040497D01*
X0254762Y0040371D01*
X0254846Y0040243D01*
X0254928Y0040113D01*
X0255005Y0039981D01*
X0255080Y0039847D01*
X0255151Y0039711D01*
X0255218Y0039573D01*
X0255282Y0039433D01*
X0255342Y0039292D01*
X0255398Y0039150D01*
X0255451Y0039006D01*
X0255500Y0038860D01*
X0255545Y0038714D01*
X0255586Y0038566D01*
X0255623Y0038418D01*
X0255657Y0038268D01*
X0255687Y0038117D01*
X0255712Y0037966D01*
X0255734Y0037815D01*
X0255752Y0037662D01*
X0255766Y0037510D01*
X0255776Y0037357D01*
X0255782Y0037203D01*
X0255784Y0037050D01*
X0255782Y0036897D01*
X0255776Y0036743D01*
X0255766Y0036590D01*
X0255752Y0036438D01*
X0255734Y0036285D01*
X0255712Y0036134D01*
X0255687Y0035983D01*
X0255657Y0035832D01*
X0255623Y0035682D01*
X0255586Y0035534D01*
X0255545Y0035386D01*
X0255500Y0035240D01*
X0255451Y0035094D01*
X0255398Y0034950D01*
X0255342Y0034808D01*
X0255282Y0034667D01*
X0255218Y0034527D01*
X0255151Y0034389D01*
X0255080Y0034253D01*
X0255005Y0034119D01*
X0254928Y0033987D01*
X0254846Y0033857D01*
X0254762Y0033729D01*
X0254674Y0033603D01*
X0254583Y0033480D01*
X0254489Y0033359D01*
X0254391Y0033241D01*
X0254291Y0033125D01*
X0254187Y0033012D01*
X0254081Y0032901D01*
X0253972Y0032793D01*
X0253860Y0032688D01*
X0253746Y0032587D01*
X0253628Y0032488D01*
X0253509Y0032392D01*
X0253387Y0032299D01*
X0253262Y0032210D01*
X0253135Y0032123D01*
X0253006Y0032041D01*
X0252875Y0031961D01*
X0252742Y0031885D01*
X0252607Y0031812D01*
X0252470Y0031743D01*
X0252331Y0031678D01*
X0252191Y0031616D01*
X0252049Y0031558D01*
X0251906Y0031503D01*
X0251761Y0031452D01*
X0251615Y0031405D01*
X0251468Y0031362D01*
X0251320Y0031323D01*
X0251171Y0031287D01*
X0251021Y0031256D01*
X0250870Y0031228D01*
X0250719Y0031204D01*
X0250566Y0031184D01*
X0250414Y0031168D01*
X0250261Y0031156D01*
X0250108Y0031148D01*
X0249955Y0031144D01*
X0249801Y0031144D01*
X0249648Y0031148D01*
X0249495Y0031156D01*
X0249342Y0031168D01*
X0249190Y0031184D01*
X0249037Y0031204D01*
X0248886Y0031228D01*
X0248735Y0031256D01*
X0248585Y0031287D01*
X0248436Y0031323D01*
X0248288Y0031362D01*
X0248141Y0031405D01*
X0247995Y0031452D01*
X0247850Y0031503D01*
X0247707Y0031558D01*
X0247565Y0031616D01*
X0247425Y0031678D01*
X0247286Y0031743D01*
X0247149Y0031812D01*
X0247014Y0031885D01*
X0246881Y0031961D01*
X0246750Y0032041D01*
X0246621Y0032123D01*
X0246494Y0032210D01*
X0246369Y0032299D01*
X0246247Y0032392D01*
X0246128Y0032488D01*
X0246010Y0032587D01*
X0245896Y0032688D01*
X0245784Y0032793D01*
X0245675Y0032901D01*
X0245569Y0033012D01*
X0245465Y0033125D01*
X0245365Y0033241D01*
X0245267Y0033359D01*
X0245173Y0033480D01*
X0245082Y0033603D01*
X0244994Y0033729D01*
X0244910Y0033857D01*
X0244828Y0033987D01*
X0244751Y0034119D01*
X0244676Y0034253D01*
X0244605Y0034389D01*
X0244538Y0034527D01*
X0244474Y0034667D01*
X0244414Y0034808D01*
X0244358Y0034950D01*
X0244305Y0035094D01*
X0244256Y0035240D01*
X0244211Y0035386D01*
X0244170Y0035534D01*
X0244133Y0035682D01*
X0244099Y0035832D01*
X0244069Y0035983D01*
X0244044Y0036134D01*
X0244022Y0036285D01*
X0244004Y0036438D01*
X0243990Y0036590D01*
X0243980Y0036743D01*
X0243974Y0036897D01*
X0243972Y0037050D01*
D11*
X0249878Y0037050D03*
X0249878Y0142050D03*
X0059878Y0142050D03*
D12*
X0037825Y0126950D03*
X0031132Y0126950D03*
X0028432Y0156950D03*
X0035125Y0156950D03*
X0136778Y0141096D03*
X0142978Y0141196D03*
X0142978Y0134504D03*
X0136778Y0134404D03*
X0088625Y0091050D03*
X0081932Y0091050D03*
X0081932Y0084250D03*
X0088625Y0084250D03*
X0088825Y0076650D03*
X0082132Y0076650D03*
X0070100Y0041425D03*
X0063407Y0041425D03*
X0090132Y0031850D03*
X0096825Y0031850D03*
X0075078Y0015896D03*
X0075078Y0009204D03*
X0067378Y0009279D03*
X0067378Y0015971D03*
X0166482Y0046000D03*
X0173175Y0046000D03*
X0209832Y0079750D03*
X0216525Y0079750D03*
X0216525Y0086650D03*
X0209832Y0086650D03*
D13*
X0171178Y0120904D03*
X0171178Y0127596D03*
X0256132Y0122450D03*
X0262825Y0122450D03*
X0128278Y0063396D03*
X0128278Y0056704D03*
X0113425Y0052250D03*
X0106732Y0052250D03*
X0079253Y0033521D03*
X0072953Y0033521D03*
X0066053Y0033521D03*
X0066053Y0026829D03*
X0072953Y0026829D03*
X0079253Y0026829D03*
X0052600Y0047675D03*
X0045907Y0047675D03*
X0044253Y0038521D03*
X0044253Y0031829D03*
X0124878Y0030796D03*
X0124878Y0024104D03*
X0165478Y0024104D03*
X0165478Y0030796D03*
X0205078Y0030796D03*
X0205078Y0024104D03*
X0258178Y0023496D03*
X0258178Y0016804D03*
X0064178Y0109504D03*
X0064178Y0116196D03*
X0053678Y0093096D03*
X0053678Y0086404D03*
X0023825Y0099450D03*
X0017132Y0099450D03*
X0017132Y0108650D03*
X0023825Y0108650D03*
X0043178Y0153004D03*
X0043178Y0159696D03*
D14*
X0120878Y0063863D03*
X0120878Y0053037D03*
D15*
X0054253Y0035175D03*
D16*
X0054997Y0031234D02*
X0054997Y0027600D01*
X0053509Y0027600D01*
X0053509Y0031234D01*
X0054997Y0031234D01*
X0054997Y0027614D02*
X0053509Y0027614D01*
X0053509Y0027628D02*
X0054997Y0027628D01*
X0054997Y0027642D02*
X0053509Y0027642D01*
X0053509Y0027656D02*
X0054997Y0027656D01*
X0054997Y0027670D02*
X0053509Y0027670D01*
X0053509Y0027684D02*
X0054997Y0027684D01*
X0054997Y0027698D02*
X0053509Y0027698D01*
X0053509Y0027712D02*
X0054997Y0027712D01*
X0054997Y0027726D02*
X0053509Y0027726D01*
X0053509Y0027740D02*
X0054997Y0027740D01*
X0054997Y0027754D02*
X0053509Y0027754D01*
X0053509Y0027768D02*
X0054997Y0027768D01*
X0054997Y0027782D02*
X0053509Y0027782D01*
X0053509Y0027796D02*
X0054997Y0027796D01*
X0054997Y0027810D02*
X0053509Y0027810D01*
X0053509Y0027824D02*
X0054997Y0027824D01*
X0054997Y0027838D02*
X0053509Y0027838D01*
X0053509Y0027852D02*
X0054997Y0027852D01*
X0054997Y0027866D02*
X0053509Y0027866D01*
X0053509Y0027880D02*
X0054997Y0027880D01*
X0054997Y0027894D02*
X0053509Y0027894D01*
X0053509Y0027908D02*
X0054997Y0027908D01*
X0054997Y0027922D02*
X0053509Y0027922D01*
X0053509Y0027936D02*
X0054997Y0027936D01*
X0054997Y0027950D02*
X0053509Y0027950D01*
X0053509Y0027964D02*
X0054997Y0027964D01*
X0054997Y0027978D02*
X0053509Y0027978D01*
X0053509Y0027992D02*
X0054997Y0027992D01*
X0054997Y0028006D02*
X0053509Y0028006D01*
X0053509Y0028020D02*
X0054997Y0028020D01*
X0054997Y0028034D02*
X0053509Y0028034D01*
X0053509Y0028048D02*
X0054997Y0028048D01*
X0054997Y0028062D02*
X0053509Y0028062D01*
X0053509Y0028076D02*
X0054997Y0028076D01*
X0054997Y0028090D02*
X0053509Y0028090D01*
X0053509Y0028104D02*
X0054997Y0028104D01*
X0054997Y0028118D02*
X0053509Y0028118D01*
X0053509Y0028132D02*
X0054997Y0028132D01*
X0054997Y0028146D02*
X0053509Y0028146D01*
X0053509Y0028160D02*
X0054997Y0028160D01*
X0054997Y0028174D02*
X0053509Y0028174D01*
X0053509Y0028188D02*
X0054997Y0028188D01*
X0054997Y0028202D02*
X0053509Y0028202D01*
X0053509Y0028216D02*
X0054997Y0028216D01*
X0054997Y0028230D02*
X0053509Y0028230D01*
X0053509Y0028244D02*
X0054997Y0028244D01*
X0054997Y0028258D02*
X0053509Y0028258D01*
X0053509Y0028272D02*
X0054997Y0028272D01*
X0054997Y0028286D02*
X0053509Y0028286D01*
X0053509Y0028300D02*
X0054997Y0028300D01*
X0054997Y0028314D02*
X0053509Y0028314D01*
X0053509Y0028328D02*
X0054997Y0028328D01*
X0054997Y0028342D02*
X0053509Y0028342D01*
X0053509Y0028356D02*
X0054997Y0028356D01*
X0054997Y0028370D02*
X0053509Y0028370D01*
X0053509Y0028384D02*
X0054997Y0028384D01*
X0054997Y0028398D02*
X0053509Y0028398D01*
X0053509Y0028412D02*
X0054997Y0028412D01*
X0054997Y0028426D02*
X0053509Y0028426D01*
X0053509Y0028440D02*
X0054997Y0028440D01*
X0054997Y0028454D02*
X0053509Y0028454D01*
X0053509Y0028468D02*
X0054997Y0028468D01*
X0054997Y0028482D02*
X0053509Y0028482D01*
X0053509Y0028496D02*
X0054997Y0028496D01*
X0054997Y0028510D02*
X0053509Y0028510D01*
X0053509Y0028524D02*
X0054997Y0028524D01*
X0054997Y0028538D02*
X0053509Y0028538D01*
X0053509Y0028552D02*
X0054997Y0028552D01*
X0054997Y0028566D02*
X0053509Y0028566D01*
X0053509Y0028580D02*
X0054997Y0028580D01*
X0054997Y0028594D02*
X0053509Y0028594D01*
X0053509Y0028608D02*
X0054997Y0028608D01*
X0054997Y0028622D02*
X0053509Y0028622D01*
X0053509Y0028636D02*
X0054997Y0028636D01*
X0054997Y0028650D02*
X0053509Y0028650D01*
X0053509Y0028664D02*
X0054997Y0028664D01*
X0054997Y0028678D02*
X0053509Y0028678D01*
X0053509Y0028692D02*
X0054997Y0028692D01*
X0054997Y0028706D02*
X0053509Y0028706D01*
X0053509Y0028720D02*
X0054997Y0028720D01*
X0054997Y0028734D02*
X0053509Y0028734D01*
X0053509Y0028748D02*
X0054997Y0028748D01*
X0054997Y0028762D02*
X0053509Y0028762D01*
X0053509Y0028776D02*
X0054997Y0028776D01*
X0054997Y0028790D02*
X0053509Y0028790D01*
X0053509Y0028804D02*
X0054997Y0028804D01*
X0054997Y0028818D02*
X0053509Y0028818D01*
X0053509Y0028832D02*
X0054997Y0028832D01*
X0054997Y0028846D02*
X0053509Y0028846D01*
X0053509Y0028860D02*
X0054997Y0028860D01*
X0054997Y0028874D02*
X0053509Y0028874D01*
X0053509Y0028888D02*
X0054997Y0028888D01*
X0054997Y0028902D02*
X0053509Y0028902D01*
X0053509Y0028916D02*
X0054997Y0028916D01*
X0054997Y0028930D02*
X0053509Y0028930D01*
X0053509Y0028944D02*
X0054997Y0028944D01*
X0054997Y0028958D02*
X0053509Y0028958D01*
X0053509Y0028972D02*
X0054997Y0028972D01*
X0054997Y0028986D02*
X0053509Y0028986D01*
X0053509Y0029000D02*
X0054997Y0029000D01*
X0054997Y0029014D02*
X0053509Y0029014D01*
X0053509Y0029028D02*
X0054997Y0029028D01*
X0054997Y0029042D02*
X0053509Y0029042D01*
X0053509Y0029056D02*
X0054997Y0029056D01*
X0054997Y0029070D02*
X0053509Y0029070D01*
X0053509Y0029084D02*
X0054997Y0029084D01*
X0054997Y0029098D02*
X0053509Y0029098D01*
X0053509Y0029112D02*
X0054997Y0029112D01*
X0054997Y0029126D02*
X0053509Y0029126D01*
X0053509Y0029140D02*
X0054997Y0029140D01*
X0054997Y0029154D02*
X0053509Y0029154D01*
X0053509Y0029168D02*
X0054997Y0029168D01*
X0054997Y0029182D02*
X0053509Y0029182D01*
X0053509Y0029196D02*
X0054997Y0029196D01*
X0054997Y0029210D02*
X0053509Y0029210D01*
X0053509Y0029224D02*
X0054997Y0029224D01*
X0054997Y0029238D02*
X0053509Y0029238D01*
X0053509Y0029252D02*
X0054997Y0029252D01*
X0054997Y0029266D02*
X0053509Y0029266D01*
X0053509Y0029280D02*
X0054997Y0029280D01*
X0054997Y0029294D02*
X0053509Y0029294D01*
X0053509Y0029308D02*
X0054997Y0029308D01*
X0054997Y0029322D02*
X0053509Y0029322D01*
X0053509Y0029336D02*
X0054997Y0029336D01*
X0054997Y0029350D02*
X0053509Y0029350D01*
X0053509Y0029364D02*
X0054997Y0029364D01*
X0054997Y0029378D02*
X0053509Y0029378D01*
X0053509Y0029392D02*
X0054997Y0029392D01*
X0054997Y0029406D02*
X0053509Y0029406D01*
X0053509Y0029420D02*
X0054997Y0029420D01*
X0054997Y0029434D02*
X0053509Y0029434D01*
X0053509Y0029448D02*
X0054997Y0029448D01*
X0054997Y0029462D02*
X0053509Y0029462D01*
X0053509Y0029476D02*
X0054997Y0029476D01*
X0054997Y0029490D02*
X0053509Y0029490D01*
X0053509Y0029504D02*
X0054997Y0029504D01*
X0054997Y0029518D02*
X0053509Y0029518D01*
X0053509Y0029532D02*
X0054997Y0029532D01*
X0054997Y0029546D02*
X0053509Y0029546D01*
X0053509Y0029560D02*
X0054997Y0029560D01*
X0054997Y0029574D02*
X0053509Y0029574D01*
X0053509Y0029588D02*
X0054997Y0029588D01*
X0054997Y0029602D02*
X0053509Y0029602D01*
X0053509Y0029616D02*
X0054997Y0029616D01*
X0054997Y0029630D02*
X0053509Y0029630D01*
X0053509Y0029644D02*
X0054997Y0029644D01*
X0054997Y0029658D02*
X0053509Y0029658D01*
X0053509Y0029672D02*
X0054997Y0029672D01*
X0054997Y0029686D02*
X0053509Y0029686D01*
X0053509Y0029700D02*
X0054997Y0029700D01*
X0054997Y0029714D02*
X0053509Y0029714D01*
X0053509Y0029728D02*
X0054997Y0029728D01*
X0054997Y0029742D02*
X0053509Y0029742D01*
X0053509Y0029756D02*
X0054997Y0029756D01*
X0054997Y0029770D02*
X0053509Y0029770D01*
X0053509Y0029784D02*
X0054997Y0029784D01*
X0054997Y0029798D02*
X0053509Y0029798D01*
X0053509Y0029812D02*
X0054997Y0029812D01*
X0054997Y0029826D02*
X0053509Y0029826D01*
X0053509Y0029840D02*
X0054997Y0029840D01*
X0054997Y0029854D02*
X0053509Y0029854D01*
X0053509Y0029868D02*
X0054997Y0029868D01*
X0054997Y0029882D02*
X0053509Y0029882D01*
X0053509Y0029896D02*
X0054997Y0029896D01*
X0054997Y0029910D02*
X0053509Y0029910D01*
X0053509Y0029924D02*
X0054997Y0029924D01*
X0054997Y0029938D02*
X0053509Y0029938D01*
X0053509Y0029952D02*
X0054997Y0029952D01*
X0054997Y0029966D02*
X0053509Y0029966D01*
X0053509Y0029980D02*
X0054997Y0029980D01*
X0054997Y0029994D02*
X0053509Y0029994D01*
X0053509Y0030008D02*
X0054997Y0030008D01*
X0054997Y0030022D02*
X0053509Y0030022D01*
X0053509Y0030036D02*
X0054997Y0030036D01*
X0054997Y0030050D02*
X0053509Y0030050D01*
X0053509Y0030064D02*
X0054997Y0030064D01*
X0054997Y0030078D02*
X0053509Y0030078D01*
X0053509Y0030092D02*
X0054997Y0030092D01*
X0054997Y0030106D02*
X0053509Y0030106D01*
X0053509Y0030120D02*
X0054997Y0030120D01*
X0054997Y0030134D02*
X0053509Y0030134D01*
X0053509Y0030148D02*
X0054997Y0030148D01*
X0054997Y0030162D02*
X0053509Y0030162D01*
X0053509Y0030176D02*
X0054997Y0030176D01*
X0054997Y0030190D02*
X0053509Y0030190D01*
X0053509Y0030204D02*
X0054997Y0030204D01*
X0054997Y0030218D02*
X0053509Y0030218D01*
X0053509Y0030232D02*
X0054997Y0030232D01*
X0054997Y0030246D02*
X0053509Y0030246D01*
X0053509Y0030260D02*
X0054997Y0030260D01*
X0054997Y0030274D02*
X0053509Y0030274D01*
X0053509Y0030288D02*
X0054997Y0030288D01*
X0054997Y0030302D02*
X0053509Y0030302D01*
X0053509Y0030316D02*
X0054997Y0030316D01*
X0054997Y0030330D02*
X0053509Y0030330D01*
X0053509Y0030344D02*
X0054997Y0030344D01*
X0054997Y0030358D02*
X0053509Y0030358D01*
X0053509Y0030372D02*
X0054997Y0030372D01*
X0054997Y0030386D02*
X0053509Y0030386D01*
X0053509Y0030400D02*
X0054997Y0030400D01*
X0054997Y0030414D02*
X0053509Y0030414D01*
X0053509Y0030428D02*
X0054997Y0030428D01*
X0054997Y0030442D02*
X0053509Y0030442D01*
X0053509Y0030456D02*
X0054997Y0030456D01*
X0054997Y0030470D02*
X0053509Y0030470D01*
X0053509Y0030484D02*
X0054997Y0030484D01*
X0054997Y0030498D02*
X0053509Y0030498D01*
X0053509Y0030512D02*
X0054997Y0030512D01*
X0054997Y0030526D02*
X0053509Y0030526D01*
X0053509Y0030540D02*
X0054997Y0030540D01*
X0054997Y0030554D02*
X0053509Y0030554D01*
X0053509Y0030568D02*
X0054997Y0030568D01*
X0054997Y0030582D02*
X0053509Y0030582D01*
X0053509Y0030596D02*
X0054997Y0030596D01*
X0054997Y0030610D02*
X0053509Y0030610D01*
X0053509Y0030624D02*
X0054997Y0030624D01*
X0054997Y0030638D02*
X0053509Y0030638D01*
X0053509Y0030652D02*
X0054997Y0030652D01*
X0054997Y0030666D02*
X0053509Y0030666D01*
X0053509Y0030680D02*
X0054997Y0030680D01*
X0054997Y0030694D02*
X0053509Y0030694D01*
X0053509Y0030708D02*
X0054997Y0030708D01*
X0054997Y0030722D02*
X0053509Y0030722D01*
X0053509Y0030736D02*
X0054997Y0030736D01*
X0054997Y0030750D02*
X0053509Y0030750D01*
X0053509Y0030764D02*
X0054997Y0030764D01*
X0054997Y0030778D02*
X0053509Y0030778D01*
X0053509Y0030792D02*
X0054997Y0030792D01*
X0054997Y0030806D02*
X0053509Y0030806D01*
X0053509Y0030820D02*
X0054997Y0030820D01*
X0054997Y0030834D02*
X0053509Y0030834D01*
X0053509Y0030848D02*
X0054997Y0030848D01*
X0054997Y0030862D02*
X0053509Y0030862D01*
X0053509Y0030876D02*
X0054997Y0030876D01*
X0054997Y0030890D02*
X0053509Y0030890D01*
X0053509Y0030904D02*
X0054997Y0030904D01*
X0054997Y0030918D02*
X0053509Y0030918D01*
X0053509Y0030932D02*
X0054997Y0030932D01*
X0054997Y0030946D02*
X0053509Y0030946D01*
X0053509Y0030960D02*
X0054997Y0030960D01*
X0054997Y0030974D02*
X0053509Y0030974D01*
X0053509Y0030988D02*
X0054997Y0030988D01*
X0054997Y0031002D02*
X0053509Y0031002D01*
X0053509Y0031016D02*
X0054997Y0031016D01*
X0054997Y0031030D02*
X0053509Y0031030D01*
X0053509Y0031044D02*
X0054997Y0031044D01*
X0054997Y0031058D02*
X0053509Y0031058D01*
X0053509Y0031072D02*
X0054997Y0031072D01*
X0054997Y0031086D02*
X0053509Y0031086D01*
X0053509Y0031100D02*
X0054997Y0031100D01*
X0054997Y0031114D02*
X0053509Y0031114D01*
X0053509Y0031128D02*
X0054997Y0031128D01*
X0054997Y0031142D02*
X0053509Y0031142D01*
X0053509Y0031156D02*
X0054997Y0031156D01*
X0054997Y0031170D02*
X0053509Y0031170D01*
X0053509Y0031184D02*
X0054997Y0031184D01*
X0054997Y0031198D02*
X0053509Y0031198D01*
X0053509Y0031212D02*
X0054997Y0031212D01*
X0054997Y0031226D02*
X0053509Y0031226D01*
X0053029Y0031234D02*
X0053029Y0027600D01*
X0051541Y0027600D01*
X0051541Y0031234D01*
X0053029Y0031234D01*
X0053029Y0027614D02*
X0051541Y0027614D01*
X0051541Y0027628D02*
X0053029Y0027628D01*
X0053029Y0027642D02*
X0051541Y0027642D01*
X0051541Y0027656D02*
X0053029Y0027656D01*
X0053029Y0027670D02*
X0051541Y0027670D01*
X0051541Y0027684D02*
X0053029Y0027684D01*
X0053029Y0027698D02*
X0051541Y0027698D01*
X0051541Y0027712D02*
X0053029Y0027712D01*
X0053029Y0027726D02*
X0051541Y0027726D01*
X0051541Y0027740D02*
X0053029Y0027740D01*
X0053029Y0027754D02*
X0051541Y0027754D01*
X0051541Y0027768D02*
X0053029Y0027768D01*
X0053029Y0027782D02*
X0051541Y0027782D01*
X0051541Y0027796D02*
X0053029Y0027796D01*
X0053029Y0027810D02*
X0051541Y0027810D01*
X0051541Y0027824D02*
X0053029Y0027824D01*
X0053029Y0027838D02*
X0051541Y0027838D01*
X0051541Y0027852D02*
X0053029Y0027852D01*
X0053029Y0027866D02*
X0051541Y0027866D01*
X0051541Y0027880D02*
X0053029Y0027880D01*
X0053029Y0027894D02*
X0051541Y0027894D01*
X0051541Y0027908D02*
X0053029Y0027908D01*
X0053029Y0027922D02*
X0051541Y0027922D01*
X0051541Y0027936D02*
X0053029Y0027936D01*
X0053029Y0027950D02*
X0051541Y0027950D01*
X0051541Y0027964D02*
X0053029Y0027964D01*
X0053029Y0027978D02*
X0051541Y0027978D01*
X0051541Y0027992D02*
X0053029Y0027992D01*
X0053029Y0028006D02*
X0051541Y0028006D01*
X0051541Y0028020D02*
X0053029Y0028020D01*
X0053029Y0028034D02*
X0051541Y0028034D01*
X0051541Y0028048D02*
X0053029Y0028048D01*
X0053029Y0028062D02*
X0051541Y0028062D01*
X0051541Y0028076D02*
X0053029Y0028076D01*
X0053029Y0028090D02*
X0051541Y0028090D01*
X0051541Y0028104D02*
X0053029Y0028104D01*
X0053029Y0028118D02*
X0051541Y0028118D01*
X0051541Y0028132D02*
X0053029Y0028132D01*
X0053029Y0028146D02*
X0051541Y0028146D01*
X0051541Y0028160D02*
X0053029Y0028160D01*
X0053029Y0028174D02*
X0051541Y0028174D01*
X0051541Y0028188D02*
X0053029Y0028188D01*
X0053029Y0028202D02*
X0051541Y0028202D01*
X0051541Y0028216D02*
X0053029Y0028216D01*
X0053029Y0028230D02*
X0051541Y0028230D01*
X0051541Y0028244D02*
X0053029Y0028244D01*
X0053029Y0028258D02*
X0051541Y0028258D01*
X0051541Y0028272D02*
X0053029Y0028272D01*
X0053029Y0028286D02*
X0051541Y0028286D01*
X0051541Y0028300D02*
X0053029Y0028300D01*
X0053029Y0028314D02*
X0051541Y0028314D01*
X0051541Y0028328D02*
X0053029Y0028328D01*
X0053029Y0028342D02*
X0051541Y0028342D01*
X0051541Y0028356D02*
X0053029Y0028356D01*
X0053029Y0028370D02*
X0051541Y0028370D01*
X0051541Y0028384D02*
X0053029Y0028384D01*
X0053029Y0028398D02*
X0051541Y0028398D01*
X0051541Y0028412D02*
X0053029Y0028412D01*
X0053029Y0028426D02*
X0051541Y0028426D01*
X0051541Y0028440D02*
X0053029Y0028440D01*
X0053029Y0028454D02*
X0051541Y0028454D01*
X0051541Y0028468D02*
X0053029Y0028468D01*
X0053029Y0028482D02*
X0051541Y0028482D01*
X0051541Y0028496D02*
X0053029Y0028496D01*
X0053029Y0028510D02*
X0051541Y0028510D01*
X0051541Y0028524D02*
X0053029Y0028524D01*
X0053029Y0028538D02*
X0051541Y0028538D01*
X0051541Y0028552D02*
X0053029Y0028552D01*
X0053029Y0028566D02*
X0051541Y0028566D01*
X0051541Y0028580D02*
X0053029Y0028580D01*
X0053029Y0028594D02*
X0051541Y0028594D01*
X0051541Y0028608D02*
X0053029Y0028608D01*
X0053029Y0028622D02*
X0051541Y0028622D01*
X0051541Y0028636D02*
X0053029Y0028636D01*
X0053029Y0028650D02*
X0051541Y0028650D01*
X0051541Y0028664D02*
X0053029Y0028664D01*
X0053029Y0028678D02*
X0051541Y0028678D01*
X0051541Y0028692D02*
X0053029Y0028692D01*
X0053029Y0028706D02*
X0051541Y0028706D01*
X0051541Y0028720D02*
X0053029Y0028720D01*
X0053029Y0028734D02*
X0051541Y0028734D01*
X0051541Y0028748D02*
X0053029Y0028748D01*
X0053029Y0028762D02*
X0051541Y0028762D01*
X0051541Y0028776D02*
X0053029Y0028776D01*
X0053029Y0028790D02*
X0051541Y0028790D01*
X0051541Y0028804D02*
X0053029Y0028804D01*
X0053029Y0028818D02*
X0051541Y0028818D01*
X0051541Y0028832D02*
X0053029Y0028832D01*
X0053029Y0028846D02*
X0051541Y0028846D01*
X0051541Y0028860D02*
X0053029Y0028860D01*
X0053029Y0028874D02*
X0051541Y0028874D01*
X0051541Y0028888D02*
X0053029Y0028888D01*
X0053029Y0028902D02*
X0051541Y0028902D01*
X0051541Y0028916D02*
X0053029Y0028916D01*
X0053029Y0028930D02*
X0051541Y0028930D01*
X0051541Y0028944D02*
X0053029Y0028944D01*
X0053029Y0028958D02*
X0051541Y0028958D01*
X0051541Y0028972D02*
X0053029Y0028972D01*
X0053029Y0028986D02*
X0051541Y0028986D01*
X0051541Y0029000D02*
X0053029Y0029000D01*
X0053029Y0029014D02*
X0051541Y0029014D01*
X0051541Y0029028D02*
X0053029Y0029028D01*
X0053029Y0029042D02*
X0051541Y0029042D01*
X0051541Y0029056D02*
X0053029Y0029056D01*
X0053029Y0029070D02*
X0051541Y0029070D01*
X0051541Y0029084D02*
X0053029Y0029084D01*
X0053029Y0029098D02*
X0051541Y0029098D01*
X0051541Y0029112D02*
X0053029Y0029112D01*
X0053029Y0029126D02*
X0051541Y0029126D01*
X0051541Y0029140D02*
X0053029Y0029140D01*
X0053029Y0029154D02*
X0051541Y0029154D01*
X0051541Y0029168D02*
X0053029Y0029168D01*
X0053029Y0029182D02*
X0051541Y0029182D01*
X0051541Y0029196D02*
X0053029Y0029196D01*
X0053029Y0029210D02*
X0051541Y0029210D01*
X0051541Y0029224D02*
X0053029Y0029224D01*
X0053029Y0029238D02*
X0051541Y0029238D01*
X0051541Y0029252D02*
X0053029Y0029252D01*
X0053029Y0029266D02*
X0051541Y0029266D01*
X0051541Y0029280D02*
X0053029Y0029280D01*
X0053029Y0029294D02*
X0051541Y0029294D01*
X0051541Y0029308D02*
X0053029Y0029308D01*
X0053029Y0029322D02*
X0051541Y0029322D01*
X0051541Y0029336D02*
X0053029Y0029336D01*
X0053029Y0029350D02*
X0051541Y0029350D01*
X0051541Y0029364D02*
X0053029Y0029364D01*
X0053029Y0029378D02*
X0051541Y0029378D01*
X0051541Y0029392D02*
X0053029Y0029392D01*
X0053029Y0029406D02*
X0051541Y0029406D01*
X0051541Y0029420D02*
X0053029Y0029420D01*
X0053029Y0029434D02*
X0051541Y0029434D01*
X0051541Y0029448D02*
X0053029Y0029448D01*
X0053029Y0029462D02*
X0051541Y0029462D01*
X0051541Y0029476D02*
X0053029Y0029476D01*
X0053029Y0029490D02*
X0051541Y0029490D01*
X0051541Y0029504D02*
X0053029Y0029504D01*
X0053029Y0029518D02*
X0051541Y0029518D01*
X0051541Y0029532D02*
X0053029Y0029532D01*
X0053029Y0029546D02*
X0051541Y0029546D01*
X0051541Y0029560D02*
X0053029Y0029560D01*
X0053029Y0029574D02*
X0051541Y0029574D01*
X0051541Y0029588D02*
X0053029Y0029588D01*
X0053029Y0029602D02*
X0051541Y0029602D01*
X0051541Y0029616D02*
X0053029Y0029616D01*
X0053029Y0029630D02*
X0051541Y0029630D01*
X0051541Y0029644D02*
X0053029Y0029644D01*
X0053029Y0029658D02*
X0051541Y0029658D01*
X0051541Y0029672D02*
X0053029Y0029672D01*
X0053029Y0029686D02*
X0051541Y0029686D01*
X0051541Y0029700D02*
X0053029Y0029700D01*
X0053029Y0029714D02*
X0051541Y0029714D01*
X0051541Y0029728D02*
X0053029Y0029728D01*
X0053029Y0029742D02*
X0051541Y0029742D01*
X0051541Y0029756D02*
X0053029Y0029756D01*
X0053029Y0029770D02*
X0051541Y0029770D01*
X0051541Y0029784D02*
X0053029Y0029784D01*
X0053029Y0029798D02*
X0051541Y0029798D01*
X0051541Y0029812D02*
X0053029Y0029812D01*
X0053029Y0029826D02*
X0051541Y0029826D01*
X0051541Y0029840D02*
X0053029Y0029840D01*
X0053029Y0029854D02*
X0051541Y0029854D01*
X0051541Y0029868D02*
X0053029Y0029868D01*
X0053029Y0029882D02*
X0051541Y0029882D01*
X0051541Y0029896D02*
X0053029Y0029896D01*
X0053029Y0029910D02*
X0051541Y0029910D01*
X0051541Y0029924D02*
X0053029Y0029924D01*
X0053029Y0029938D02*
X0051541Y0029938D01*
X0051541Y0029952D02*
X0053029Y0029952D01*
X0053029Y0029966D02*
X0051541Y0029966D01*
X0051541Y0029980D02*
X0053029Y0029980D01*
X0053029Y0029994D02*
X0051541Y0029994D01*
X0051541Y0030008D02*
X0053029Y0030008D01*
X0053029Y0030022D02*
X0051541Y0030022D01*
X0051541Y0030036D02*
X0053029Y0030036D01*
X0053029Y0030050D02*
X0051541Y0030050D01*
X0051541Y0030064D02*
X0053029Y0030064D01*
X0053029Y0030078D02*
X0051541Y0030078D01*
X0051541Y0030092D02*
X0053029Y0030092D01*
X0053029Y0030106D02*
X0051541Y0030106D01*
X0051541Y0030120D02*
X0053029Y0030120D01*
X0053029Y0030134D02*
X0051541Y0030134D01*
X0051541Y0030148D02*
X0053029Y0030148D01*
X0053029Y0030162D02*
X0051541Y0030162D01*
X0051541Y0030176D02*
X0053029Y0030176D01*
X0053029Y0030190D02*
X0051541Y0030190D01*
X0051541Y0030204D02*
X0053029Y0030204D01*
X0053029Y0030218D02*
X0051541Y0030218D01*
X0051541Y0030232D02*
X0053029Y0030232D01*
X0053029Y0030246D02*
X0051541Y0030246D01*
X0051541Y0030260D02*
X0053029Y0030260D01*
X0053029Y0030274D02*
X0051541Y0030274D01*
X0051541Y0030288D02*
X0053029Y0030288D01*
X0053029Y0030302D02*
X0051541Y0030302D01*
X0051541Y0030316D02*
X0053029Y0030316D01*
X0053029Y0030330D02*
X0051541Y0030330D01*
X0051541Y0030344D02*
X0053029Y0030344D01*
X0053029Y0030358D02*
X0051541Y0030358D01*
X0051541Y0030372D02*
X0053029Y0030372D01*
X0053029Y0030386D02*
X0051541Y0030386D01*
X0051541Y0030400D02*
X0053029Y0030400D01*
X0053029Y0030414D02*
X0051541Y0030414D01*
X0051541Y0030428D02*
X0053029Y0030428D01*
X0053029Y0030442D02*
X0051541Y0030442D01*
X0051541Y0030456D02*
X0053029Y0030456D01*
X0053029Y0030470D02*
X0051541Y0030470D01*
X0051541Y0030484D02*
X0053029Y0030484D01*
X0053029Y0030498D02*
X0051541Y0030498D01*
X0051541Y0030512D02*
X0053029Y0030512D01*
X0053029Y0030526D02*
X0051541Y0030526D01*
X0051541Y0030540D02*
X0053029Y0030540D01*
X0053029Y0030554D02*
X0051541Y0030554D01*
X0051541Y0030568D02*
X0053029Y0030568D01*
X0053029Y0030582D02*
X0051541Y0030582D01*
X0051541Y0030596D02*
X0053029Y0030596D01*
X0053029Y0030610D02*
X0051541Y0030610D01*
X0051541Y0030624D02*
X0053029Y0030624D01*
X0053029Y0030638D02*
X0051541Y0030638D01*
X0051541Y0030652D02*
X0053029Y0030652D01*
X0053029Y0030666D02*
X0051541Y0030666D01*
X0051541Y0030680D02*
X0053029Y0030680D01*
X0053029Y0030694D02*
X0051541Y0030694D01*
X0051541Y0030708D02*
X0053029Y0030708D01*
X0053029Y0030722D02*
X0051541Y0030722D01*
X0051541Y0030736D02*
X0053029Y0030736D01*
X0053029Y0030750D02*
X0051541Y0030750D01*
X0051541Y0030764D02*
X0053029Y0030764D01*
X0053029Y0030778D02*
X0051541Y0030778D01*
X0051541Y0030792D02*
X0053029Y0030792D01*
X0053029Y0030806D02*
X0051541Y0030806D01*
X0051541Y0030820D02*
X0053029Y0030820D01*
X0053029Y0030834D02*
X0051541Y0030834D01*
X0051541Y0030848D02*
X0053029Y0030848D01*
X0053029Y0030862D02*
X0051541Y0030862D01*
X0051541Y0030876D02*
X0053029Y0030876D01*
X0053029Y0030890D02*
X0051541Y0030890D01*
X0051541Y0030904D02*
X0053029Y0030904D01*
X0053029Y0030918D02*
X0051541Y0030918D01*
X0051541Y0030932D02*
X0053029Y0030932D01*
X0053029Y0030946D02*
X0051541Y0030946D01*
X0051541Y0030960D02*
X0053029Y0030960D01*
X0053029Y0030974D02*
X0051541Y0030974D01*
X0051541Y0030988D02*
X0053029Y0030988D01*
X0053029Y0031002D02*
X0051541Y0031002D01*
X0051541Y0031016D02*
X0053029Y0031016D01*
X0053029Y0031030D02*
X0051541Y0031030D01*
X0051541Y0031044D02*
X0053029Y0031044D01*
X0053029Y0031058D02*
X0051541Y0031058D01*
X0051541Y0031072D02*
X0053029Y0031072D01*
X0053029Y0031086D02*
X0051541Y0031086D01*
X0051541Y0031100D02*
X0053029Y0031100D01*
X0053029Y0031114D02*
X0051541Y0031114D01*
X0051541Y0031128D02*
X0053029Y0031128D01*
X0053029Y0031142D02*
X0051541Y0031142D01*
X0051541Y0031156D02*
X0053029Y0031156D01*
X0053029Y0031170D02*
X0051541Y0031170D01*
X0051541Y0031184D02*
X0053029Y0031184D01*
X0053029Y0031198D02*
X0051541Y0031198D01*
X0051541Y0031212D02*
X0053029Y0031212D01*
X0053029Y0031226D02*
X0051541Y0031226D01*
X0051060Y0031234D02*
X0051060Y0027600D01*
X0049572Y0027600D01*
X0049572Y0031234D01*
X0051060Y0031234D01*
X0051060Y0027614D02*
X0049572Y0027614D01*
X0049572Y0027628D02*
X0051060Y0027628D01*
X0051060Y0027642D02*
X0049572Y0027642D01*
X0049572Y0027656D02*
X0051060Y0027656D01*
X0051060Y0027670D02*
X0049572Y0027670D01*
X0049572Y0027684D02*
X0051060Y0027684D01*
X0051060Y0027698D02*
X0049572Y0027698D01*
X0049572Y0027712D02*
X0051060Y0027712D01*
X0051060Y0027726D02*
X0049572Y0027726D01*
X0049572Y0027740D02*
X0051060Y0027740D01*
X0051060Y0027754D02*
X0049572Y0027754D01*
X0049572Y0027768D02*
X0051060Y0027768D01*
X0051060Y0027782D02*
X0049572Y0027782D01*
X0049572Y0027796D02*
X0051060Y0027796D01*
X0051060Y0027810D02*
X0049572Y0027810D01*
X0049572Y0027824D02*
X0051060Y0027824D01*
X0051060Y0027838D02*
X0049572Y0027838D01*
X0049572Y0027852D02*
X0051060Y0027852D01*
X0051060Y0027866D02*
X0049572Y0027866D01*
X0049572Y0027880D02*
X0051060Y0027880D01*
X0051060Y0027894D02*
X0049572Y0027894D01*
X0049572Y0027908D02*
X0051060Y0027908D01*
X0051060Y0027922D02*
X0049572Y0027922D01*
X0049572Y0027936D02*
X0051060Y0027936D01*
X0051060Y0027950D02*
X0049572Y0027950D01*
X0049572Y0027964D02*
X0051060Y0027964D01*
X0051060Y0027978D02*
X0049572Y0027978D01*
X0049572Y0027992D02*
X0051060Y0027992D01*
X0051060Y0028006D02*
X0049572Y0028006D01*
X0049572Y0028020D02*
X0051060Y0028020D01*
X0051060Y0028034D02*
X0049572Y0028034D01*
X0049572Y0028048D02*
X0051060Y0028048D01*
X0051060Y0028062D02*
X0049572Y0028062D01*
X0049572Y0028076D02*
X0051060Y0028076D01*
X0051060Y0028090D02*
X0049572Y0028090D01*
X0049572Y0028104D02*
X0051060Y0028104D01*
X0051060Y0028118D02*
X0049572Y0028118D01*
X0049572Y0028132D02*
X0051060Y0028132D01*
X0051060Y0028146D02*
X0049572Y0028146D01*
X0049572Y0028160D02*
X0051060Y0028160D01*
X0051060Y0028174D02*
X0049572Y0028174D01*
X0049572Y0028188D02*
X0051060Y0028188D01*
X0051060Y0028202D02*
X0049572Y0028202D01*
X0049572Y0028216D02*
X0051060Y0028216D01*
X0051060Y0028230D02*
X0049572Y0028230D01*
X0049572Y0028244D02*
X0051060Y0028244D01*
X0051060Y0028258D02*
X0049572Y0028258D01*
X0049572Y0028272D02*
X0051060Y0028272D01*
X0051060Y0028286D02*
X0049572Y0028286D01*
X0049572Y0028300D02*
X0051060Y0028300D01*
X0051060Y0028314D02*
X0049572Y0028314D01*
X0049572Y0028328D02*
X0051060Y0028328D01*
X0051060Y0028342D02*
X0049572Y0028342D01*
X0049572Y0028356D02*
X0051060Y0028356D01*
X0051060Y0028370D02*
X0049572Y0028370D01*
X0049572Y0028384D02*
X0051060Y0028384D01*
X0051060Y0028398D02*
X0049572Y0028398D01*
X0049572Y0028412D02*
X0051060Y0028412D01*
X0051060Y0028426D02*
X0049572Y0028426D01*
X0049572Y0028440D02*
X0051060Y0028440D01*
X0051060Y0028454D02*
X0049572Y0028454D01*
X0049572Y0028468D02*
X0051060Y0028468D01*
X0051060Y0028482D02*
X0049572Y0028482D01*
X0049572Y0028496D02*
X0051060Y0028496D01*
X0051060Y0028510D02*
X0049572Y0028510D01*
X0049572Y0028524D02*
X0051060Y0028524D01*
X0051060Y0028538D02*
X0049572Y0028538D01*
X0049572Y0028552D02*
X0051060Y0028552D01*
X0051060Y0028566D02*
X0049572Y0028566D01*
X0049572Y0028580D02*
X0051060Y0028580D01*
X0051060Y0028594D02*
X0049572Y0028594D01*
X0049572Y0028608D02*
X0051060Y0028608D01*
X0051060Y0028622D02*
X0049572Y0028622D01*
X0049572Y0028636D02*
X0051060Y0028636D01*
X0051060Y0028650D02*
X0049572Y0028650D01*
X0049572Y0028664D02*
X0051060Y0028664D01*
X0051060Y0028678D02*
X0049572Y0028678D01*
X0049572Y0028692D02*
X0051060Y0028692D01*
X0051060Y0028706D02*
X0049572Y0028706D01*
X0049572Y0028720D02*
X0051060Y0028720D01*
X0051060Y0028734D02*
X0049572Y0028734D01*
X0049572Y0028748D02*
X0051060Y0028748D01*
X0051060Y0028762D02*
X0049572Y0028762D01*
X0049572Y0028776D02*
X0051060Y0028776D01*
X0051060Y0028790D02*
X0049572Y0028790D01*
X0049572Y0028804D02*
X0051060Y0028804D01*
X0051060Y0028818D02*
X0049572Y0028818D01*
X0049572Y0028832D02*
X0051060Y0028832D01*
X0051060Y0028846D02*
X0049572Y0028846D01*
X0049572Y0028860D02*
X0051060Y0028860D01*
X0051060Y0028874D02*
X0049572Y0028874D01*
X0049572Y0028888D02*
X0051060Y0028888D01*
X0051060Y0028902D02*
X0049572Y0028902D01*
X0049572Y0028916D02*
X0051060Y0028916D01*
X0051060Y0028930D02*
X0049572Y0028930D01*
X0049572Y0028944D02*
X0051060Y0028944D01*
X0051060Y0028958D02*
X0049572Y0028958D01*
X0049572Y0028972D02*
X0051060Y0028972D01*
X0051060Y0028986D02*
X0049572Y0028986D01*
X0049572Y0029000D02*
X0051060Y0029000D01*
X0051060Y0029014D02*
X0049572Y0029014D01*
X0049572Y0029028D02*
X0051060Y0029028D01*
X0051060Y0029042D02*
X0049572Y0029042D01*
X0049572Y0029056D02*
X0051060Y0029056D01*
X0051060Y0029070D02*
X0049572Y0029070D01*
X0049572Y0029084D02*
X0051060Y0029084D01*
X0051060Y0029098D02*
X0049572Y0029098D01*
X0049572Y0029112D02*
X0051060Y0029112D01*
X0051060Y0029126D02*
X0049572Y0029126D01*
X0049572Y0029140D02*
X0051060Y0029140D01*
X0051060Y0029154D02*
X0049572Y0029154D01*
X0049572Y0029168D02*
X0051060Y0029168D01*
X0051060Y0029182D02*
X0049572Y0029182D01*
X0049572Y0029196D02*
X0051060Y0029196D01*
X0051060Y0029210D02*
X0049572Y0029210D01*
X0049572Y0029224D02*
X0051060Y0029224D01*
X0051060Y0029238D02*
X0049572Y0029238D01*
X0049572Y0029252D02*
X0051060Y0029252D01*
X0051060Y0029266D02*
X0049572Y0029266D01*
X0049572Y0029280D02*
X0051060Y0029280D01*
X0051060Y0029294D02*
X0049572Y0029294D01*
X0049572Y0029308D02*
X0051060Y0029308D01*
X0051060Y0029322D02*
X0049572Y0029322D01*
X0049572Y0029336D02*
X0051060Y0029336D01*
X0051060Y0029350D02*
X0049572Y0029350D01*
X0049572Y0029364D02*
X0051060Y0029364D01*
X0051060Y0029378D02*
X0049572Y0029378D01*
X0049572Y0029392D02*
X0051060Y0029392D01*
X0051060Y0029406D02*
X0049572Y0029406D01*
X0049572Y0029420D02*
X0051060Y0029420D01*
X0051060Y0029434D02*
X0049572Y0029434D01*
X0049572Y0029448D02*
X0051060Y0029448D01*
X0051060Y0029462D02*
X0049572Y0029462D01*
X0049572Y0029476D02*
X0051060Y0029476D01*
X0051060Y0029490D02*
X0049572Y0029490D01*
X0049572Y0029504D02*
X0051060Y0029504D01*
X0051060Y0029518D02*
X0049572Y0029518D01*
X0049572Y0029532D02*
X0051060Y0029532D01*
X0051060Y0029546D02*
X0049572Y0029546D01*
X0049572Y0029560D02*
X0051060Y0029560D01*
X0051060Y0029574D02*
X0049572Y0029574D01*
X0049572Y0029588D02*
X0051060Y0029588D01*
X0051060Y0029602D02*
X0049572Y0029602D01*
X0049572Y0029616D02*
X0051060Y0029616D01*
X0051060Y0029630D02*
X0049572Y0029630D01*
X0049572Y0029644D02*
X0051060Y0029644D01*
X0051060Y0029658D02*
X0049572Y0029658D01*
X0049572Y0029672D02*
X0051060Y0029672D01*
X0051060Y0029686D02*
X0049572Y0029686D01*
X0049572Y0029700D02*
X0051060Y0029700D01*
X0051060Y0029714D02*
X0049572Y0029714D01*
X0049572Y0029728D02*
X0051060Y0029728D01*
X0051060Y0029742D02*
X0049572Y0029742D01*
X0049572Y0029756D02*
X0051060Y0029756D01*
X0051060Y0029770D02*
X0049572Y0029770D01*
X0049572Y0029784D02*
X0051060Y0029784D01*
X0051060Y0029798D02*
X0049572Y0029798D01*
X0049572Y0029812D02*
X0051060Y0029812D01*
X0051060Y0029826D02*
X0049572Y0029826D01*
X0049572Y0029840D02*
X0051060Y0029840D01*
X0051060Y0029854D02*
X0049572Y0029854D01*
X0049572Y0029868D02*
X0051060Y0029868D01*
X0051060Y0029882D02*
X0049572Y0029882D01*
X0049572Y0029896D02*
X0051060Y0029896D01*
X0051060Y0029910D02*
X0049572Y0029910D01*
X0049572Y0029924D02*
X0051060Y0029924D01*
X0051060Y0029938D02*
X0049572Y0029938D01*
X0049572Y0029952D02*
X0051060Y0029952D01*
X0051060Y0029966D02*
X0049572Y0029966D01*
X0049572Y0029980D02*
X0051060Y0029980D01*
X0051060Y0029994D02*
X0049572Y0029994D01*
X0049572Y0030008D02*
X0051060Y0030008D01*
X0051060Y0030022D02*
X0049572Y0030022D01*
X0049572Y0030036D02*
X0051060Y0030036D01*
X0051060Y0030050D02*
X0049572Y0030050D01*
X0049572Y0030064D02*
X0051060Y0030064D01*
X0051060Y0030078D02*
X0049572Y0030078D01*
X0049572Y0030092D02*
X0051060Y0030092D01*
X0051060Y0030106D02*
X0049572Y0030106D01*
X0049572Y0030120D02*
X0051060Y0030120D01*
X0051060Y0030134D02*
X0049572Y0030134D01*
X0049572Y0030148D02*
X0051060Y0030148D01*
X0051060Y0030162D02*
X0049572Y0030162D01*
X0049572Y0030176D02*
X0051060Y0030176D01*
X0051060Y0030190D02*
X0049572Y0030190D01*
X0049572Y0030204D02*
X0051060Y0030204D01*
X0051060Y0030218D02*
X0049572Y0030218D01*
X0049572Y0030232D02*
X0051060Y0030232D01*
X0051060Y0030246D02*
X0049572Y0030246D01*
X0049572Y0030260D02*
X0051060Y0030260D01*
X0051060Y0030274D02*
X0049572Y0030274D01*
X0049572Y0030288D02*
X0051060Y0030288D01*
X0051060Y0030302D02*
X0049572Y0030302D01*
X0049572Y0030316D02*
X0051060Y0030316D01*
X0051060Y0030330D02*
X0049572Y0030330D01*
X0049572Y0030344D02*
X0051060Y0030344D01*
X0051060Y0030358D02*
X0049572Y0030358D01*
X0049572Y0030372D02*
X0051060Y0030372D01*
X0051060Y0030386D02*
X0049572Y0030386D01*
X0049572Y0030400D02*
X0051060Y0030400D01*
X0051060Y0030414D02*
X0049572Y0030414D01*
X0049572Y0030428D02*
X0051060Y0030428D01*
X0051060Y0030442D02*
X0049572Y0030442D01*
X0049572Y0030456D02*
X0051060Y0030456D01*
X0051060Y0030470D02*
X0049572Y0030470D01*
X0049572Y0030484D02*
X0051060Y0030484D01*
X0051060Y0030498D02*
X0049572Y0030498D01*
X0049572Y0030512D02*
X0051060Y0030512D01*
X0051060Y0030526D02*
X0049572Y0030526D01*
X0049572Y0030540D02*
X0051060Y0030540D01*
X0051060Y0030554D02*
X0049572Y0030554D01*
X0049572Y0030568D02*
X0051060Y0030568D01*
X0051060Y0030582D02*
X0049572Y0030582D01*
X0049572Y0030596D02*
X0051060Y0030596D01*
X0051060Y0030610D02*
X0049572Y0030610D01*
X0049572Y0030624D02*
X0051060Y0030624D01*
X0051060Y0030638D02*
X0049572Y0030638D01*
X0049572Y0030652D02*
X0051060Y0030652D01*
X0051060Y0030666D02*
X0049572Y0030666D01*
X0049572Y0030680D02*
X0051060Y0030680D01*
X0051060Y0030694D02*
X0049572Y0030694D01*
X0049572Y0030708D02*
X0051060Y0030708D01*
X0051060Y0030722D02*
X0049572Y0030722D01*
X0049572Y0030736D02*
X0051060Y0030736D01*
X0051060Y0030750D02*
X0049572Y0030750D01*
X0049572Y0030764D02*
X0051060Y0030764D01*
X0051060Y0030778D02*
X0049572Y0030778D01*
X0049572Y0030792D02*
X0051060Y0030792D01*
X0051060Y0030806D02*
X0049572Y0030806D01*
X0049572Y0030820D02*
X0051060Y0030820D01*
X0051060Y0030834D02*
X0049572Y0030834D01*
X0049572Y0030848D02*
X0051060Y0030848D01*
X0051060Y0030862D02*
X0049572Y0030862D01*
X0049572Y0030876D02*
X0051060Y0030876D01*
X0051060Y0030890D02*
X0049572Y0030890D01*
X0049572Y0030904D02*
X0051060Y0030904D01*
X0051060Y0030918D02*
X0049572Y0030918D01*
X0049572Y0030932D02*
X0051060Y0030932D01*
X0051060Y0030946D02*
X0049572Y0030946D01*
X0049572Y0030960D02*
X0051060Y0030960D01*
X0051060Y0030974D02*
X0049572Y0030974D01*
X0049572Y0030988D02*
X0051060Y0030988D01*
X0051060Y0031002D02*
X0049572Y0031002D01*
X0049572Y0031016D02*
X0051060Y0031016D01*
X0051060Y0031030D02*
X0049572Y0031030D01*
X0049572Y0031044D02*
X0051060Y0031044D01*
X0051060Y0031058D02*
X0049572Y0031058D01*
X0049572Y0031072D02*
X0051060Y0031072D01*
X0051060Y0031086D02*
X0049572Y0031086D01*
X0049572Y0031100D02*
X0051060Y0031100D01*
X0051060Y0031114D02*
X0049572Y0031114D01*
X0049572Y0031128D02*
X0051060Y0031128D01*
X0051060Y0031142D02*
X0049572Y0031142D01*
X0049572Y0031156D02*
X0051060Y0031156D01*
X0051060Y0031170D02*
X0049572Y0031170D01*
X0049572Y0031184D02*
X0051060Y0031184D01*
X0051060Y0031198D02*
X0049572Y0031198D01*
X0049572Y0031212D02*
X0051060Y0031212D01*
X0051060Y0031226D02*
X0049572Y0031226D01*
X0056966Y0031234D02*
X0056966Y0027600D01*
X0055478Y0027600D01*
X0055478Y0031234D01*
X0056966Y0031234D01*
X0056966Y0027614D02*
X0055478Y0027614D01*
X0055478Y0027628D02*
X0056966Y0027628D01*
X0056966Y0027642D02*
X0055478Y0027642D01*
X0055478Y0027656D02*
X0056966Y0027656D01*
X0056966Y0027670D02*
X0055478Y0027670D01*
X0055478Y0027684D02*
X0056966Y0027684D01*
X0056966Y0027698D02*
X0055478Y0027698D01*
X0055478Y0027712D02*
X0056966Y0027712D01*
X0056966Y0027726D02*
X0055478Y0027726D01*
X0055478Y0027740D02*
X0056966Y0027740D01*
X0056966Y0027754D02*
X0055478Y0027754D01*
X0055478Y0027768D02*
X0056966Y0027768D01*
X0056966Y0027782D02*
X0055478Y0027782D01*
X0055478Y0027796D02*
X0056966Y0027796D01*
X0056966Y0027810D02*
X0055478Y0027810D01*
X0055478Y0027824D02*
X0056966Y0027824D01*
X0056966Y0027838D02*
X0055478Y0027838D01*
X0055478Y0027852D02*
X0056966Y0027852D01*
X0056966Y0027866D02*
X0055478Y0027866D01*
X0055478Y0027880D02*
X0056966Y0027880D01*
X0056966Y0027894D02*
X0055478Y0027894D01*
X0055478Y0027908D02*
X0056966Y0027908D01*
X0056966Y0027922D02*
X0055478Y0027922D01*
X0055478Y0027936D02*
X0056966Y0027936D01*
X0056966Y0027950D02*
X0055478Y0027950D01*
X0055478Y0027964D02*
X0056966Y0027964D01*
X0056966Y0027978D02*
X0055478Y0027978D01*
X0055478Y0027992D02*
X0056966Y0027992D01*
X0056966Y0028006D02*
X0055478Y0028006D01*
X0055478Y0028020D02*
X0056966Y0028020D01*
X0056966Y0028034D02*
X0055478Y0028034D01*
X0055478Y0028048D02*
X0056966Y0028048D01*
X0056966Y0028062D02*
X0055478Y0028062D01*
X0055478Y0028076D02*
X0056966Y0028076D01*
X0056966Y0028090D02*
X0055478Y0028090D01*
X0055478Y0028104D02*
X0056966Y0028104D01*
X0056966Y0028118D02*
X0055478Y0028118D01*
X0055478Y0028132D02*
X0056966Y0028132D01*
X0056966Y0028146D02*
X0055478Y0028146D01*
X0055478Y0028160D02*
X0056966Y0028160D01*
X0056966Y0028174D02*
X0055478Y0028174D01*
X0055478Y0028188D02*
X0056966Y0028188D01*
X0056966Y0028202D02*
X0055478Y0028202D01*
X0055478Y0028216D02*
X0056966Y0028216D01*
X0056966Y0028230D02*
X0055478Y0028230D01*
X0055478Y0028244D02*
X0056966Y0028244D01*
X0056966Y0028258D02*
X0055478Y0028258D01*
X0055478Y0028272D02*
X0056966Y0028272D01*
X0056966Y0028286D02*
X0055478Y0028286D01*
X0055478Y0028300D02*
X0056966Y0028300D01*
X0056966Y0028314D02*
X0055478Y0028314D01*
X0055478Y0028328D02*
X0056966Y0028328D01*
X0056966Y0028342D02*
X0055478Y0028342D01*
X0055478Y0028356D02*
X0056966Y0028356D01*
X0056966Y0028370D02*
X0055478Y0028370D01*
X0055478Y0028384D02*
X0056966Y0028384D01*
X0056966Y0028398D02*
X0055478Y0028398D01*
X0055478Y0028412D02*
X0056966Y0028412D01*
X0056966Y0028426D02*
X0055478Y0028426D01*
X0055478Y0028440D02*
X0056966Y0028440D01*
X0056966Y0028454D02*
X0055478Y0028454D01*
X0055478Y0028468D02*
X0056966Y0028468D01*
X0056966Y0028482D02*
X0055478Y0028482D01*
X0055478Y0028496D02*
X0056966Y0028496D01*
X0056966Y0028510D02*
X0055478Y0028510D01*
X0055478Y0028524D02*
X0056966Y0028524D01*
X0056966Y0028538D02*
X0055478Y0028538D01*
X0055478Y0028552D02*
X0056966Y0028552D01*
X0056966Y0028566D02*
X0055478Y0028566D01*
X0055478Y0028580D02*
X0056966Y0028580D01*
X0056966Y0028594D02*
X0055478Y0028594D01*
X0055478Y0028608D02*
X0056966Y0028608D01*
X0056966Y0028622D02*
X0055478Y0028622D01*
X0055478Y0028636D02*
X0056966Y0028636D01*
X0056966Y0028650D02*
X0055478Y0028650D01*
X0055478Y0028664D02*
X0056966Y0028664D01*
X0056966Y0028678D02*
X0055478Y0028678D01*
X0055478Y0028692D02*
X0056966Y0028692D01*
X0056966Y0028706D02*
X0055478Y0028706D01*
X0055478Y0028720D02*
X0056966Y0028720D01*
X0056966Y0028734D02*
X0055478Y0028734D01*
X0055478Y0028748D02*
X0056966Y0028748D01*
X0056966Y0028762D02*
X0055478Y0028762D01*
X0055478Y0028776D02*
X0056966Y0028776D01*
X0056966Y0028790D02*
X0055478Y0028790D01*
X0055478Y0028804D02*
X0056966Y0028804D01*
X0056966Y0028818D02*
X0055478Y0028818D01*
X0055478Y0028832D02*
X0056966Y0028832D01*
X0056966Y0028846D02*
X0055478Y0028846D01*
X0055478Y0028860D02*
X0056966Y0028860D01*
X0056966Y0028874D02*
X0055478Y0028874D01*
X0055478Y0028888D02*
X0056966Y0028888D01*
X0056966Y0028902D02*
X0055478Y0028902D01*
X0055478Y0028916D02*
X0056966Y0028916D01*
X0056966Y0028930D02*
X0055478Y0028930D01*
X0055478Y0028944D02*
X0056966Y0028944D01*
X0056966Y0028958D02*
X0055478Y0028958D01*
X0055478Y0028972D02*
X0056966Y0028972D01*
X0056966Y0028986D02*
X0055478Y0028986D01*
X0055478Y0029000D02*
X0056966Y0029000D01*
X0056966Y0029014D02*
X0055478Y0029014D01*
X0055478Y0029028D02*
X0056966Y0029028D01*
X0056966Y0029042D02*
X0055478Y0029042D01*
X0055478Y0029056D02*
X0056966Y0029056D01*
X0056966Y0029070D02*
X0055478Y0029070D01*
X0055478Y0029084D02*
X0056966Y0029084D01*
X0056966Y0029098D02*
X0055478Y0029098D01*
X0055478Y0029112D02*
X0056966Y0029112D01*
X0056966Y0029126D02*
X0055478Y0029126D01*
X0055478Y0029140D02*
X0056966Y0029140D01*
X0056966Y0029154D02*
X0055478Y0029154D01*
X0055478Y0029168D02*
X0056966Y0029168D01*
X0056966Y0029182D02*
X0055478Y0029182D01*
X0055478Y0029196D02*
X0056966Y0029196D01*
X0056966Y0029210D02*
X0055478Y0029210D01*
X0055478Y0029224D02*
X0056966Y0029224D01*
X0056966Y0029238D02*
X0055478Y0029238D01*
X0055478Y0029252D02*
X0056966Y0029252D01*
X0056966Y0029266D02*
X0055478Y0029266D01*
X0055478Y0029280D02*
X0056966Y0029280D01*
X0056966Y0029294D02*
X0055478Y0029294D01*
X0055478Y0029308D02*
X0056966Y0029308D01*
X0056966Y0029322D02*
X0055478Y0029322D01*
X0055478Y0029336D02*
X0056966Y0029336D01*
X0056966Y0029350D02*
X0055478Y0029350D01*
X0055478Y0029364D02*
X0056966Y0029364D01*
X0056966Y0029378D02*
X0055478Y0029378D01*
X0055478Y0029392D02*
X0056966Y0029392D01*
X0056966Y0029406D02*
X0055478Y0029406D01*
X0055478Y0029420D02*
X0056966Y0029420D01*
X0056966Y0029434D02*
X0055478Y0029434D01*
X0055478Y0029448D02*
X0056966Y0029448D01*
X0056966Y0029462D02*
X0055478Y0029462D01*
X0055478Y0029476D02*
X0056966Y0029476D01*
X0056966Y0029490D02*
X0055478Y0029490D01*
X0055478Y0029504D02*
X0056966Y0029504D01*
X0056966Y0029518D02*
X0055478Y0029518D01*
X0055478Y0029532D02*
X0056966Y0029532D01*
X0056966Y0029546D02*
X0055478Y0029546D01*
X0055478Y0029560D02*
X0056966Y0029560D01*
X0056966Y0029574D02*
X0055478Y0029574D01*
X0055478Y0029588D02*
X0056966Y0029588D01*
X0056966Y0029602D02*
X0055478Y0029602D01*
X0055478Y0029616D02*
X0056966Y0029616D01*
X0056966Y0029630D02*
X0055478Y0029630D01*
X0055478Y0029644D02*
X0056966Y0029644D01*
X0056966Y0029658D02*
X0055478Y0029658D01*
X0055478Y0029672D02*
X0056966Y0029672D01*
X0056966Y0029686D02*
X0055478Y0029686D01*
X0055478Y0029700D02*
X0056966Y0029700D01*
X0056966Y0029714D02*
X0055478Y0029714D01*
X0055478Y0029728D02*
X0056966Y0029728D01*
X0056966Y0029742D02*
X0055478Y0029742D01*
X0055478Y0029756D02*
X0056966Y0029756D01*
X0056966Y0029770D02*
X0055478Y0029770D01*
X0055478Y0029784D02*
X0056966Y0029784D01*
X0056966Y0029798D02*
X0055478Y0029798D01*
X0055478Y0029812D02*
X0056966Y0029812D01*
X0056966Y0029826D02*
X0055478Y0029826D01*
X0055478Y0029840D02*
X0056966Y0029840D01*
X0056966Y0029854D02*
X0055478Y0029854D01*
X0055478Y0029868D02*
X0056966Y0029868D01*
X0056966Y0029882D02*
X0055478Y0029882D01*
X0055478Y0029896D02*
X0056966Y0029896D01*
X0056966Y0029910D02*
X0055478Y0029910D01*
X0055478Y0029924D02*
X0056966Y0029924D01*
X0056966Y0029938D02*
X0055478Y0029938D01*
X0055478Y0029952D02*
X0056966Y0029952D01*
X0056966Y0029966D02*
X0055478Y0029966D01*
X0055478Y0029980D02*
X0056966Y0029980D01*
X0056966Y0029994D02*
X0055478Y0029994D01*
X0055478Y0030008D02*
X0056966Y0030008D01*
X0056966Y0030022D02*
X0055478Y0030022D01*
X0055478Y0030036D02*
X0056966Y0030036D01*
X0056966Y0030050D02*
X0055478Y0030050D01*
X0055478Y0030064D02*
X0056966Y0030064D01*
X0056966Y0030078D02*
X0055478Y0030078D01*
X0055478Y0030092D02*
X0056966Y0030092D01*
X0056966Y0030106D02*
X0055478Y0030106D01*
X0055478Y0030120D02*
X0056966Y0030120D01*
X0056966Y0030134D02*
X0055478Y0030134D01*
X0055478Y0030148D02*
X0056966Y0030148D01*
X0056966Y0030162D02*
X0055478Y0030162D01*
X0055478Y0030176D02*
X0056966Y0030176D01*
X0056966Y0030190D02*
X0055478Y0030190D01*
X0055478Y0030204D02*
X0056966Y0030204D01*
X0056966Y0030218D02*
X0055478Y0030218D01*
X0055478Y0030232D02*
X0056966Y0030232D01*
X0056966Y0030246D02*
X0055478Y0030246D01*
X0055478Y0030260D02*
X0056966Y0030260D01*
X0056966Y0030274D02*
X0055478Y0030274D01*
X0055478Y0030288D02*
X0056966Y0030288D01*
X0056966Y0030302D02*
X0055478Y0030302D01*
X0055478Y0030316D02*
X0056966Y0030316D01*
X0056966Y0030330D02*
X0055478Y0030330D01*
X0055478Y0030344D02*
X0056966Y0030344D01*
X0056966Y0030358D02*
X0055478Y0030358D01*
X0055478Y0030372D02*
X0056966Y0030372D01*
X0056966Y0030386D02*
X0055478Y0030386D01*
X0055478Y0030400D02*
X0056966Y0030400D01*
X0056966Y0030414D02*
X0055478Y0030414D01*
X0055478Y0030428D02*
X0056966Y0030428D01*
X0056966Y0030442D02*
X0055478Y0030442D01*
X0055478Y0030456D02*
X0056966Y0030456D01*
X0056966Y0030470D02*
X0055478Y0030470D01*
X0055478Y0030484D02*
X0056966Y0030484D01*
X0056966Y0030498D02*
X0055478Y0030498D01*
X0055478Y0030512D02*
X0056966Y0030512D01*
X0056966Y0030526D02*
X0055478Y0030526D01*
X0055478Y0030540D02*
X0056966Y0030540D01*
X0056966Y0030554D02*
X0055478Y0030554D01*
X0055478Y0030568D02*
X0056966Y0030568D01*
X0056966Y0030582D02*
X0055478Y0030582D01*
X0055478Y0030596D02*
X0056966Y0030596D01*
X0056966Y0030610D02*
X0055478Y0030610D01*
X0055478Y0030624D02*
X0056966Y0030624D01*
X0056966Y0030638D02*
X0055478Y0030638D01*
X0055478Y0030652D02*
X0056966Y0030652D01*
X0056966Y0030666D02*
X0055478Y0030666D01*
X0055478Y0030680D02*
X0056966Y0030680D01*
X0056966Y0030694D02*
X0055478Y0030694D01*
X0055478Y0030708D02*
X0056966Y0030708D01*
X0056966Y0030722D02*
X0055478Y0030722D01*
X0055478Y0030736D02*
X0056966Y0030736D01*
X0056966Y0030750D02*
X0055478Y0030750D01*
X0055478Y0030764D02*
X0056966Y0030764D01*
X0056966Y0030778D02*
X0055478Y0030778D01*
X0055478Y0030792D02*
X0056966Y0030792D01*
X0056966Y0030806D02*
X0055478Y0030806D01*
X0055478Y0030820D02*
X0056966Y0030820D01*
X0056966Y0030834D02*
X0055478Y0030834D01*
X0055478Y0030848D02*
X0056966Y0030848D01*
X0056966Y0030862D02*
X0055478Y0030862D01*
X0055478Y0030876D02*
X0056966Y0030876D01*
X0056966Y0030890D02*
X0055478Y0030890D01*
X0055478Y0030904D02*
X0056966Y0030904D01*
X0056966Y0030918D02*
X0055478Y0030918D01*
X0055478Y0030932D02*
X0056966Y0030932D01*
X0056966Y0030946D02*
X0055478Y0030946D01*
X0055478Y0030960D02*
X0056966Y0030960D01*
X0056966Y0030974D02*
X0055478Y0030974D01*
X0055478Y0030988D02*
X0056966Y0030988D01*
X0056966Y0031002D02*
X0055478Y0031002D01*
X0055478Y0031016D02*
X0056966Y0031016D01*
X0056966Y0031030D02*
X0055478Y0031030D01*
X0055478Y0031044D02*
X0056966Y0031044D01*
X0056966Y0031058D02*
X0055478Y0031058D01*
X0055478Y0031072D02*
X0056966Y0031072D01*
X0056966Y0031086D02*
X0055478Y0031086D01*
X0055478Y0031100D02*
X0056966Y0031100D01*
X0056966Y0031114D02*
X0055478Y0031114D01*
X0055478Y0031128D02*
X0056966Y0031128D01*
X0056966Y0031142D02*
X0055478Y0031142D01*
X0055478Y0031156D02*
X0056966Y0031156D01*
X0056966Y0031170D02*
X0055478Y0031170D01*
X0055478Y0031184D02*
X0056966Y0031184D01*
X0056966Y0031198D02*
X0055478Y0031198D01*
X0055478Y0031212D02*
X0056966Y0031212D01*
X0056966Y0031226D02*
X0055478Y0031226D01*
X0058934Y0031234D02*
X0058934Y0027600D01*
X0057446Y0027600D01*
X0057446Y0031234D01*
X0058934Y0031234D01*
X0058934Y0027614D02*
X0057446Y0027614D01*
X0057446Y0027628D02*
X0058934Y0027628D01*
X0058934Y0027642D02*
X0057446Y0027642D01*
X0057446Y0027656D02*
X0058934Y0027656D01*
X0058934Y0027670D02*
X0057446Y0027670D01*
X0057446Y0027684D02*
X0058934Y0027684D01*
X0058934Y0027698D02*
X0057446Y0027698D01*
X0057446Y0027712D02*
X0058934Y0027712D01*
X0058934Y0027726D02*
X0057446Y0027726D01*
X0057446Y0027740D02*
X0058934Y0027740D01*
X0058934Y0027754D02*
X0057446Y0027754D01*
X0057446Y0027768D02*
X0058934Y0027768D01*
X0058934Y0027782D02*
X0057446Y0027782D01*
X0057446Y0027796D02*
X0058934Y0027796D01*
X0058934Y0027810D02*
X0057446Y0027810D01*
X0057446Y0027824D02*
X0058934Y0027824D01*
X0058934Y0027838D02*
X0057446Y0027838D01*
X0057446Y0027852D02*
X0058934Y0027852D01*
X0058934Y0027866D02*
X0057446Y0027866D01*
X0057446Y0027880D02*
X0058934Y0027880D01*
X0058934Y0027894D02*
X0057446Y0027894D01*
X0057446Y0027908D02*
X0058934Y0027908D01*
X0058934Y0027922D02*
X0057446Y0027922D01*
X0057446Y0027936D02*
X0058934Y0027936D01*
X0058934Y0027950D02*
X0057446Y0027950D01*
X0057446Y0027964D02*
X0058934Y0027964D01*
X0058934Y0027978D02*
X0057446Y0027978D01*
X0057446Y0027992D02*
X0058934Y0027992D01*
X0058934Y0028006D02*
X0057446Y0028006D01*
X0057446Y0028020D02*
X0058934Y0028020D01*
X0058934Y0028034D02*
X0057446Y0028034D01*
X0057446Y0028048D02*
X0058934Y0028048D01*
X0058934Y0028062D02*
X0057446Y0028062D01*
X0057446Y0028076D02*
X0058934Y0028076D01*
X0058934Y0028090D02*
X0057446Y0028090D01*
X0057446Y0028104D02*
X0058934Y0028104D01*
X0058934Y0028118D02*
X0057446Y0028118D01*
X0057446Y0028132D02*
X0058934Y0028132D01*
X0058934Y0028146D02*
X0057446Y0028146D01*
X0057446Y0028160D02*
X0058934Y0028160D01*
X0058934Y0028174D02*
X0057446Y0028174D01*
X0057446Y0028188D02*
X0058934Y0028188D01*
X0058934Y0028202D02*
X0057446Y0028202D01*
X0057446Y0028216D02*
X0058934Y0028216D01*
X0058934Y0028230D02*
X0057446Y0028230D01*
X0057446Y0028244D02*
X0058934Y0028244D01*
X0058934Y0028258D02*
X0057446Y0028258D01*
X0057446Y0028272D02*
X0058934Y0028272D01*
X0058934Y0028286D02*
X0057446Y0028286D01*
X0057446Y0028300D02*
X0058934Y0028300D01*
X0058934Y0028314D02*
X0057446Y0028314D01*
X0057446Y0028328D02*
X0058934Y0028328D01*
X0058934Y0028342D02*
X0057446Y0028342D01*
X0057446Y0028356D02*
X0058934Y0028356D01*
X0058934Y0028370D02*
X0057446Y0028370D01*
X0057446Y0028384D02*
X0058934Y0028384D01*
X0058934Y0028398D02*
X0057446Y0028398D01*
X0057446Y0028412D02*
X0058934Y0028412D01*
X0058934Y0028426D02*
X0057446Y0028426D01*
X0057446Y0028440D02*
X0058934Y0028440D01*
X0058934Y0028454D02*
X0057446Y0028454D01*
X0057446Y0028468D02*
X0058934Y0028468D01*
X0058934Y0028482D02*
X0057446Y0028482D01*
X0057446Y0028496D02*
X0058934Y0028496D01*
X0058934Y0028510D02*
X0057446Y0028510D01*
X0057446Y0028524D02*
X0058934Y0028524D01*
X0058934Y0028538D02*
X0057446Y0028538D01*
X0057446Y0028552D02*
X0058934Y0028552D01*
X0058934Y0028566D02*
X0057446Y0028566D01*
X0057446Y0028580D02*
X0058934Y0028580D01*
X0058934Y0028594D02*
X0057446Y0028594D01*
X0057446Y0028608D02*
X0058934Y0028608D01*
X0058934Y0028622D02*
X0057446Y0028622D01*
X0057446Y0028636D02*
X0058934Y0028636D01*
X0058934Y0028650D02*
X0057446Y0028650D01*
X0057446Y0028664D02*
X0058934Y0028664D01*
X0058934Y0028678D02*
X0057446Y0028678D01*
X0057446Y0028692D02*
X0058934Y0028692D01*
X0058934Y0028706D02*
X0057446Y0028706D01*
X0057446Y0028720D02*
X0058934Y0028720D01*
X0058934Y0028734D02*
X0057446Y0028734D01*
X0057446Y0028748D02*
X0058934Y0028748D01*
X0058934Y0028762D02*
X0057446Y0028762D01*
X0057446Y0028776D02*
X0058934Y0028776D01*
X0058934Y0028790D02*
X0057446Y0028790D01*
X0057446Y0028804D02*
X0058934Y0028804D01*
X0058934Y0028818D02*
X0057446Y0028818D01*
X0057446Y0028832D02*
X0058934Y0028832D01*
X0058934Y0028846D02*
X0057446Y0028846D01*
X0057446Y0028860D02*
X0058934Y0028860D01*
X0058934Y0028874D02*
X0057446Y0028874D01*
X0057446Y0028888D02*
X0058934Y0028888D01*
X0058934Y0028902D02*
X0057446Y0028902D01*
X0057446Y0028916D02*
X0058934Y0028916D01*
X0058934Y0028930D02*
X0057446Y0028930D01*
X0057446Y0028944D02*
X0058934Y0028944D01*
X0058934Y0028958D02*
X0057446Y0028958D01*
X0057446Y0028972D02*
X0058934Y0028972D01*
X0058934Y0028986D02*
X0057446Y0028986D01*
X0057446Y0029000D02*
X0058934Y0029000D01*
X0058934Y0029014D02*
X0057446Y0029014D01*
X0057446Y0029028D02*
X0058934Y0029028D01*
X0058934Y0029042D02*
X0057446Y0029042D01*
X0057446Y0029056D02*
X0058934Y0029056D01*
X0058934Y0029070D02*
X0057446Y0029070D01*
X0057446Y0029084D02*
X0058934Y0029084D01*
X0058934Y0029098D02*
X0057446Y0029098D01*
X0057446Y0029112D02*
X0058934Y0029112D01*
X0058934Y0029126D02*
X0057446Y0029126D01*
X0057446Y0029140D02*
X0058934Y0029140D01*
X0058934Y0029154D02*
X0057446Y0029154D01*
X0057446Y0029168D02*
X0058934Y0029168D01*
X0058934Y0029182D02*
X0057446Y0029182D01*
X0057446Y0029196D02*
X0058934Y0029196D01*
X0058934Y0029210D02*
X0057446Y0029210D01*
X0057446Y0029224D02*
X0058934Y0029224D01*
X0058934Y0029238D02*
X0057446Y0029238D01*
X0057446Y0029252D02*
X0058934Y0029252D01*
X0058934Y0029266D02*
X0057446Y0029266D01*
X0057446Y0029280D02*
X0058934Y0029280D01*
X0058934Y0029294D02*
X0057446Y0029294D01*
X0057446Y0029308D02*
X0058934Y0029308D01*
X0058934Y0029322D02*
X0057446Y0029322D01*
X0057446Y0029336D02*
X0058934Y0029336D01*
X0058934Y0029350D02*
X0057446Y0029350D01*
X0057446Y0029364D02*
X0058934Y0029364D01*
X0058934Y0029378D02*
X0057446Y0029378D01*
X0057446Y0029392D02*
X0058934Y0029392D01*
X0058934Y0029406D02*
X0057446Y0029406D01*
X0057446Y0029420D02*
X0058934Y0029420D01*
X0058934Y0029434D02*
X0057446Y0029434D01*
X0057446Y0029448D02*
X0058934Y0029448D01*
X0058934Y0029462D02*
X0057446Y0029462D01*
X0057446Y0029476D02*
X0058934Y0029476D01*
X0058934Y0029490D02*
X0057446Y0029490D01*
X0057446Y0029504D02*
X0058934Y0029504D01*
X0058934Y0029518D02*
X0057446Y0029518D01*
X0057446Y0029532D02*
X0058934Y0029532D01*
X0058934Y0029546D02*
X0057446Y0029546D01*
X0057446Y0029560D02*
X0058934Y0029560D01*
X0058934Y0029574D02*
X0057446Y0029574D01*
X0057446Y0029588D02*
X0058934Y0029588D01*
X0058934Y0029602D02*
X0057446Y0029602D01*
X0057446Y0029616D02*
X0058934Y0029616D01*
X0058934Y0029630D02*
X0057446Y0029630D01*
X0057446Y0029644D02*
X0058934Y0029644D01*
X0058934Y0029658D02*
X0057446Y0029658D01*
X0057446Y0029672D02*
X0058934Y0029672D01*
X0058934Y0029686D02*
X0057446Y0029686D01*
X0057446Y0029700D02*
X0058934Y0029700D01*
X0058934Y0029714D02*
X0057446Y0029714D01*
X0057446Y0029728D02*
X0058934Y0029728D01*
X0058934Y0029742D02*
X0057446Y0029742D01*
X0057446Y0029756D02*
X0058934Y0029756D01*
X0058934Y0029770D02*
X0057446Y0029770D01*
X0057446Y0029784D02*
X0058934Y0029784D01*
X0058934Y0029798D02*
X0057446Y0029798D01*
X0057446Y0029812D02*
X0058934Y0029812D01*
X0058934Y0029826D02*
X0057446Y0029826D01*
X0057446Y0029840D02*
X0058934Y0029840D01*
X0058934Y0029854D02*
X0057446Y0029854D01*
X0057446Y0029868D02*
X0058934Y0029868D01*
X0058934Y0029882D02*
X0057446Y0029882D01*
X0057446Y0029896D02*
X0058934Y0029896D01*
X0058934Y0029910D02*
X0057446Y0029910D01*
X0057446Y0029924D02*
X0058934Y0029924D01*
X0058934Y0029938D02*
X0057446Y0029938D01*
X0057446Y0029952D02*
X0058934Y0029952D01*
X0058934Y0029966D02*
X0057446Y0029966D01*
X0057446Y0029980D02*
X0058934Y0029980D01*
X0058934Y0029994D02*
X0057446Y0029994D01*
X0057446Y0030008D02*
X0058934Y0030008D01*
X0058934Y0030022D02*
X0057446Y0030022D01*
X0057446Y0030036D02*
X0058934Y0030036D01*
X0058934Y0030050D02*
X0057446Y0030050D01*
X0057446Y0030064D02*
X0058934Y0030064D01*
X0058934Y0030078D02*
X0057446Y0030078D01*
X0057446Y0030092D02*
X0058934Y0030092D01*
X0058934Y0030106D02*
X0057446Y0030106D01*
X0057446Y0030120D02*
X0058934Y0030120D01*
X0058934Y0030134D02*
X0057446Y0030134D01*
X0057446Y0030148D02*
X0058934Y0030148D01*
X0058934Y0030162D02*
X0057446Y0030162D01*
X0057446Y0030176D02*
X0058934Y0030176D01*
X0058934Y0030190D02*
X0057446Y0030190D01*
X0057446Y0030204D02*
X0058934Y0030204D01*
X0058934Y0030218D02*
X0057446Y0030218D01*
X0057446Y0030232D02*
X0058934Y0030232D01*
X0058934Y0030246D02*
X0057446Y0030246D01*
X0057446Y0030260D02*
X0058934Y0030260D01*
X0058934Y0030274D02*
X0057446Y0030274D01*
X0057446Y0030288D02*
X0058934Y0030288D01*
X0058934Y0030302D02*
X0057446Y0030302D01*
X0057446Y0030316D02*
X0058934Y0030316D01*
X0058934Y0030330D02*
X0057446Y0030330D01*
X0057446Y0030344D02*
X0058934Y0030344D01*
X0058934Y0030358D02*
X0057446Y0030358D01*
X0057446Y0030372D02*
X0058934Y0030372D01*
X0058934Y0030386D02*
X0057446Y0030386D01*
X0057446Y0030400D02*
X0058934Y0030400D01*
X0058934Y0030414D02*
X0057446Y0030414D01*
X0057446Y0030428D02*
X0058934Y0030428D01*
X0058934Y0030442D02*
X0057446Y0030442D01*
X0057446Y0030456D02*
X0058934Y0030456D01*
X0058934Y0030470D02*
X0057446Y0030470D01*
X0057446Y0030484D02*
X0058934Y0030484D01*
X0058934Y0030498D02*
X0057446Y0030498D01*
X0057446Y0030512D02*
X0058934Y0030512D01*
X0058934Y0030526D02*
X0057446Y0030526D01*
X0057446Y0030540D02*
X0058934Y0030540D01*
X0058934Y0030554D02*
X0057446Y0030554D01*
X0057446Y0030568D02*
X0058934Y0030568D01*
X0058934Y0030582D02*
X0057446Y0030582D01*
X0057446Y0030596D02*
X0058934Y0030596D01*
X0058934Y0030610D02*
X0057446Y0030610D01*
X0057446Y0030624D02*
X0058934Y0030624D01*
X0058934Y0030638D02*
X0057446Y0030638D01*
X0057446Y0030652D02*
X0058934Y0030652D01*
X0058934Y0030666D02*
X0057446Y0030666D01*
X0057446Y0030680D02*
X0058934Y0030680D01*
X0058934Y0030694D02*
X0057446Y0030694D01*
X0057446Y0030708D02*
X0058934Y0030708D01*
X0058934Y0030722D02*
X0057446Y0030722D01*
X0057446Y0030736D02*
X0058934Y0030736D01*
X0058934Y0030750D02*
X0057446Y0030750D01*
X0057446Y0030764D02*
X0058934Y0030764D01*
X0058934Y0030778D02*
X0057446Y0030778D01*
X0057446Y0030792D02*
X0058934Y0030792D01*
X0058934Y0030806D02*
X0057446Y0030806D01*
X0057446Y0030820D02*
X0058934Y0030820D01*
X0058934Y0030834D02*
X0057446Y0030834D01*
X0057446Y0030848D02*
X0058934Y0030848D01*
X0058934Y0030862D02*
X0057446Y0030862D01*
X0057446Y0030876D02*
X0058934Y0030876D01*
X0058934Y0030890D02*
X0057446Y0030890D01*
X0057446Y0030904D02*
X0058934Y0030904D01*
X0058934Y0030918D02*
X0057446Y0030918D01*
X0057446Y0030932D02*
X0058934Y0030932D01*
X0058934Y0030946D02*
X0057446Y0030946D01*
X0057446Y0030960D02*
X0058934Y0030960D01*
X0058934Y0030974D02*
X0057446Y0030974D01*
X0057446Y0030988D02*
X0058934Y0030988D01*
X0058934Y0031002D02*
X0057446Y0031002D01*
X0057446Y0031016D02*
X0058934Y0031016D01*
X0058934Y0031030D02*
X0057446Y0031030D01*
X0057446Y0031044D02*
X0058934Y0031044D01*
X0058934Y0031058D02*
X0057446Y0031058D01*
X0057446Y0031072D02*
X0058934Y0031072D01*
X0058934Y0031086D02*
X0057446Y0031086D01*
X0057446Y0031100D02*
X0058934Y0031100D01*
X0058934Y0031114D02*
X0057446Y0031114D01*
X0057446Y0031128D02*
X0058934Y0031128D01*
X0058934Y0031142D02*
X0057446Y0031142D01*
X0057446Y0031156D02*
X0058934Y0031156D01*
X0058934Y0031170D02*
X0057446Y0031170D01*
X0057446Y0031184D02*
X0058934Y0031184D01*
X0058934Y0031198D02*
X0057446Y0031198D01*
X0057446Y0031212D02*
X0058934Y0031212D01*
X0058934Y0031226D02*
X0057446Y0031226D01*
X0058934Y0039116D02*
X0058934Y0042750D01*
X0058934Y0039116D02*
X0057446Y0039116D01*
X0057446Y0042750D01*
X0058934Y0042750D01*
X0058934Y0039130D02*
X0057446Y0039130D01*
X0057446Y0039144D02*
X0058934Y0039144D01*
X0058934Y0039158D02*
X0057446Y0039158D01*
X0057446Y0039172D02*
X0058934Y0039172D01*
X0058934Y0039186D02*
X0057446Y0039186D01*
X0057446Y0039200D02*
X0058934Y0039200D01*
X0058934Y0039214D02*
X0057446Y0039214D01*
X0057446Y0039228D02*
X0058934Y0039228D01*
X0058934Y0039242D02*
X0057446Y0039242D01*
X0057446Y0039256D02*
X0058934Y0039256D01*
X0058934Y0039270D02*
X0057446Y0039270D01*
X0057446Y0039284D02*
X0058934Y0039284D01*
X0058934Y0039298D02*
X0057446Y0039298D01*
X0057446Y0039312D02*
X0058934Y0039312D01*
X0058934Y0039326D02*
X0057446Y0039326D01*
X0057446Y0039340D02*
X0058934Y0039340D01*
X0058934Y0039354D02*
X0057446Y0039354D01*
X0057446Y0039368D02*
X0058934Y0039368D01*
X0058934Y0039382D02*
X0057446Y0039382D01*
X0057446Y0039396D02*
X0058934Y0039396D01*
X0058934Y0039410D02*
X0057446Y0039410D01*
X0057446Y0039424D02*
X0058934Y0039424D01*
X0058934Y0039438D02*
X0057446Y0039438D01*
X0057446Y0039452D02*
X0058934Y0039452D01*
X0058934Y0039466D02*
X0057446Y0039466D01*
X0057446Y0039480D02*
X0058934Y0039480D01*
X0058934Y0039494D02*
X0057446Y0039494D01*
X0057446Y0039508D02*
X0058934Y0039508D01*
X0058934Y0039522D02*
X0057446Y0039522D01*
X0057446Y0039536D02*
X0058934Y0039536D01*
X0058934Y0039550D02*
X0057446Y0039550D01*
X0057446Y0039564D02*
X0058934Y0039564D01*
X0058934Y0039578D02*
X0057446Y0039578D01*
X0057446Y0039592D02*
X0058934Y0039592D01*
X0058934Y0039606D02*
X0057446Y0039606D01*
X0057446Y0039620D02*
X0058934Y0039620D01*
X0058934Y0039634D02*
X0057446Y0039634D01*
X0057446Y0039648D02*
X0058934Y0039648D01*
X0058934Y0039662D02*
X0057446Y0039662D01*
X0057446Y0039676D02*
X0058934Y0039676D01*
X0058934Y0039690D02*
X0057446Y0039690D01*
X0057446Y0039704D02*
X0058934Y0039704D01*
X0058934Y0039718D02*
X0057446Y0039718D01*
X0057446Y0039732D02*
X0058934Y0039732D01*
X0058934Y0039746D02*
X0057446Y0039746D01*
X0057446Y0039760D02*
X0058934Y0039760D01*
X0058934Y0039774D02*
X0057446Y0039774D01*
X0057446Y0039788D02*
X0058934Y0039788D01*
X0058934Y0039802D02*
X0057446Y0039802D01*
X0057446Y0039816D02*
X0058934Y0039816D01*
X0058934Y0039830D02*
X0057446Y0039830D01*
X0057446Y0039844D02*
X0058934Y0039844D01*
X0058934Y0039858D02*
X0057446Y0039858D01*
X0057446Y0039872D02*
X0058934Y0039872D01*
X0058934Y0039886D02*
X0057446Y0039886D01*
X0057446Y0039900D02*
X0058934Y0039900D01*
X0058934Y0039914D02*
X0057446Y0039914D01*
X0057446Y0039928D02*
X0058934Y0039928D01*
X0058934Y0039942D02*
X0057446Y0039942D01*
X0057446Y0039956D02*
X0058934Y0039956D01*
X0058934Y0039970D02*
X0057446Y0039970D01*
X0057446Y0039984D02*
X0058934Y0039984D01*
X0058934Y0039998D02*
X0057446Y0039998D01*
X0057446Y0040012D02*
X0058934Y0040012D01*
X0058934Y0040026D02*
X0057446Y0040026D01*
X0057446Y0040040D02*
X0058934Y0040040D01*
X0058934Y0040054D02*
X0057446Y0040054D01*
X0057446Y0040068D02*
X0058934Y0040068D01*
X0058934Y0040082D02*
X0057446Y0040082D01*
X0057446Y0040096D02*
X0058934Y0040096D01*
X0058934Y0040110D02*
X0057446Y0040110D01*
X0057446Y0040124D02*
X0058934Y0040124D01*
X0058934Y0040138D02*
X0057446Y0040138D01*
X0057446Y0040152D02*
X0058934Y0040152D01*
X0058934Y0040166D02*
X0057446Y0040166D01*
X0057446Y0040180D02*
X0058934Y0040180D01*
X0058934Y0040194D02*
X0057446Y0040194D01*
X0057446Y0040208D02*
X0058934Y0040208D01*
X0058934Y0040222D02*
X0057446Y0040222D01*
X0057446Y0040236D02*
X0058934Y0040236D01*
X0058934Y0040250D02*
X0057446Y0040250D01*
X0057446Y0040264D02*
X0058934Y0040264D01*
X0058934Y0040278D02*
X0057446Y0040278D01*
X0057446Y0040292D02*
X0058934Y0040292D01*
X0058934Y0040306D02*
X0057446Y0040306D01*
X0057446Y0040320D02*
X0058934Y0040320D01*
X0058934Y0040334D02*
X0057446Y0040334D01*
X0057446Y0040348D02*
X0058934Y0040348D01*
X0058934Y0040362D02*
X0057446Y0040362D01*
X0057446Y0040376D02*
X0058934Y0040376D01*
X0058934Y0040390D02*
X0057446Y0040390D01*
X0057446Y0040404D02*
X0058934Y0040404D01*
X0058934Y0040418D02*
X0057446Y0040418D01*
X0057446Y0040432D02*
X0058934Y0040432D01*
X0058934Y0040446D02*
X0057446Y0040446D01*
X0057446Y0040460D02*
X0058934Y0040460D01*
X0058934Y0040474D02*
X0057446Y0040474D01*
X0057446Y0040488D02*
X0058934Y0040488D01*
X0058934Y0040502D02*
X0057446Y0040502D01*
X0057446Y0040516D02*
X0058934Y0040516D01*
X0058934Y0040530D02*
X0057446Y0040530D01*
X0057446Y0040544D02*
X0058934Y0040544D01*
X0058934Y0040558D02*
X0057446Y0040558D01*
X0057446Y0040572D02*
X0058934Y0040572D01*
X0058934Y0040586D02*
X0057446Y0040586D01*
X0057446Y0040600D02*
X0058934Y0040600D01*
X0058934Y0040614D02*
X0057446Y0040614D01*
X0057446Y0040628D02*
X0058934Y0040628D01*
X0058934Y0040642D02*
X0057446Y0040642D01*
X0057446Y0040656D02*
X0058934Y0040656D01*
X0058934Y0040670D02*
X0057446Y0040670D01*
X0057446Y0040684D02*
X0058934Y0040684D01*
X0058934Y0040698D02*
X0057446Y0040698D01*
X0057446Y0040712D02*
X0058934Y0040712D01*
X0058934Y0040726D02*
X0057446Y0040726D01*
X0057446Y0040740D02*
X0058934Y0040740D01*
X0058934Y0040754D02*
X0057446Y0040754D01*
X0057446Y0040768D02*
X0058934Y0040768D01*
X0058934Y0040782D02*
X0057446Y0040782D01*
X0057446Y0040796D02*
X0058934Y0040796D01*
X0058934Y0040810D02*
X0057446Y0040810D01*
X0057446Y0040824D02*
X0058934Y0040824D01*
X0058934Y0040838D02*
X0057446Y0040838D01*
X0057446Y0040852D02*
X0058934Y0040852D01*
X0058934Y0040866D02*
X0057446Y0040866D01*
X0057446Y0040880D02*
X0058934Y0040880D01*
X0058934Y0040894D02*
X0057446Y0040894D01*
X0057446Y0040908D02*
X0058934Y0040908D01*
X0058934Y0040922D02*
X0057446Y0040922D01*
X0057446Y0040936D02*
X0058934Y0040936D01*
X0058934Y0040950D02*
X0057446Y0040950D01*
X0057446Y0040964D02*
X0058934Y0040964D01*
X0058934Y0040978D02*
X0057446Y0040978D01*
X0057446Y0040992D02*
X0058934Y0040992D01*
X0058934Y0041006D02*
X0057446Y0041006D01*
X0057446Y0041020D02*
X0058934Y0041020D01*
X0058934Y0041034D02*
X0057446Y0041034D01*
X0057446Y0041048D02*
X0058934Y0041048D01*
X0058934Y0041062D02*
X0057446Y0041062D01*
X0057446Y0041076D02*
X0058934Y0041076D01*
X0058934Y0041090D02*
X0057446Y0041090D01*
X0057446Y0041104D02*
X0058934Y0041104D01*
X0058934Y0041118D02*
X0057446Y0041118D01*
X0057446Y0041132D02*
X0058934Y0041132D01*
X0058934Y0041146D02*
X0057446Y0041146D01*
X0057446Y0041160D02*
X0058934Y0041160D01*
X0058934Y0041174D02*
X0057446Y0041174D01*
X0057446Y0041188D02*
X0058934Y0041188D01*
X0058934Y0041202D02*
X0057446Y0041202D01*
X0057446Y0041216D02*
X0058934Y0041216D01*
X0058934Y0041230D02*
X0057446Y0041230D01*
X0057446Y0041244D02*
X0058934Y0041244D01*
X0058934Y0041258D02*
X0057446Y0041258D01*
X0057446Y0041272D02*
X0058934Y0041272D01*
X0058934Y0041286D02*
X0057446Y0041286D01*
X0057446Y0041300D02*
X0058934Y0041300D01*
X0058934Y0041314D02*
X0057446Y0041314D01*
X0057446Y0041328D02*
X0058934Y0041328D01*
X0058934Y0041342D02*
X0057446Y0041342D01*
X0057446Y0041356D02*
X0058934Y0041356D01*
X0058934Y0041370D02*
X0057446Y0041370D01*
X0057446Y0041384D02*
X0058934Y0041384D01*
X0058934Y0041398D02*
X0057446Y0041398D01*
X0057446Y0041412D02*
X0058934Y0041412D01*
X0058934Y0041426D02*
X0057446Y0041426D01*
X0057446Y0041440D02*
X0058934Y0041440D01*
X0058934Y0041454D02*
X0057446Y0041454D01*
X0057446Y0041468D02*
X0058934Y0041468D01*
X0058934Y0041482D02*
X0057446Y0041482D01*
X0057446Y0041496D02*
X0058934Y0041496D01*
X0058934Y0041510D02*
X0057446Y0041510D01*
X0057446Y0041524D02*
X0058934Y0041524D01*
X0058934Y0041538D02*
X0057446Y0041538D01*
X0057446Y0041552D02*
X0058934Y0041552D01*
X0058934Y0041566D02*
X0057446Y0041566D01*
X0057446Y0041580D02*
X0058934Y0041580D01*
X0058934Y0041594D02*
X0057446Y0041594D01*
X0057446Y0041608D02*
X0058934Y0041608D01*
X0058934Y0041622D02*
X0057446Y0041622D01*
X0057446Y0041636D02*
X0058934Y0041636D01*
X0058934Y0041650D02*
X0057446Y0041650D01*
X0057446Y0041664D02*
X0058934Y0041664D01*
X0058934Y0041678D02*
X0057446Y0041678D01*
X0057446Y0041692D02*
X0058934Y0041692D01*
X0058934Y0041706D02*
X0057446Y0041706D01*
X0057446Y0041720D02*
X0058934Y0041720D01*
X0058934Y0041734D02*
X0057446Y0041734D01*
X0057446Y0041748D02*
X0058934Y0041748D01*
X0058934Y0041762D02*
X0057446Y0041762D01*
X0057446Y0041776D02*
X0058934Y0041776D01*
X0058934Y0041790D02*
X0057446Y0041790D01*
X0057446Y0041804D02*
X0058934Y0041804D01*
X0058934Y0041818D02*
X0057446Y0041818D01*
X0057446Y0041832D02*
X0058934Y0041832D01*
X0058934Y0041846D02*
X0057446Y0041846D01*
X0057446Y0041860D02*
X0058934Y0041860D01*
X0058934Y0041874D02*
X0057446Y0041874D01*
X0057446Y0041888D02*
X0058934Y0041888D01*
X0058934Y0041902D02*
X0057446Y0041902D01*
X0057446Y0041916D02*
X0058934Y0041916D01*
X0058934Y0041930D02*
X0057446Y0041930D01*
X0057446Y0041944D02*
X0058934Y0041944D01*
X0058934Y0041958D02*
X0057446Y0041958D01*
X0057446Y0041972D02*
X0058934Y0041972D01*
X0058934Y0041986D02*
X0057446Y0041986D01*
X0057446Y0042000D02*
X0058934Y0042000D01*
X0058934Y0042014D02*
X0057446Y0042014D01*
X0057446Y0042028D02*
X0058934Y0042028D01*
X0058934Y0042042D02*
X0057446Y0042042D01*
X0057446Y0042056D02*
X0058934Y0042056D01*
X0058934Y0042070D02*
X0057446Y0042070D01*
X0057446Y0042084D02*
X0058934Y0042084D01*
X0058934Y0042098D02*
X0057446Y0042098D01*
X0057446Y0042112D02*
X0058934Y0042112D01*
X0058934Y0042126D02*
X0057446Y0042126D01*
X0057446Y0042140D02*
X0058934Y0042140D01*
X0058934Y0042154D02*
X0057446Y0042154D01*
X0057446Y0042168D02*
X0058934Y0042168D01*
X0058934Y0042182D02*
X0057446Y0042182D01*
X0057446Y0042196D02*
X0058934Y0042196D01*
X0058934Y0042210D02*
X0057446Y0042210D01*
X0057446Y0042224D02*
X0058934Y0042224D01*
X0058934Y0042238D02*
X0057446Y0042238D01*
X0057446Y0042252D02*
X0058934Y0042252D01*
X0058934Y0042266D02*
X0057446Y0042266D01*
X0057446Y0042280D02*
X0058934Y0042280D01*
X0058934Y0042294D02*
X0057446Y0042294D01*
X0057446Y0042308D02*
X0058934Y0042308D01*
X0058934Y0042322D02*
X0057446Y0042322D01*
X0057446Y0042336D02*
X0058934Y0042336D01*
X0058934Y0042350D02*
X0057446Y0042350D01*
X0057446Y0042364D02*
X0058934Y0042364D01*
X0058934Y0042378D02*
X0057446Y0042378D01*
X0057446Y0042392D02*
X0058934Y0042392D01*
X0058934Y0042406D02*
X0057446Y0042406D01*
X0057446Y0042420D02*
X0058934Y0042420D01*
X0058934Y0042434D02*
X0057446Y0042434D01*
X0057446Y0042448D02*
X0058934Y0042448D01*
X0058934Y0042462D02*
X0057446Y0042462D01*
X0057446Y0042476D02*
X0058934Y0042476D01*
X0058934Y0042490D02*
X0057446Y0042490D01*
X0057446Y0042504D02*
X0058934Y0042504D01*
X0058934Y0042518D02*
X0057446Y0042518D01*
X0057446Y0042532D02*
X0058934Y0042532D01*
X0058934Y0042546D02*
X0057446Y0042546D01*
X0057446Y0042560D02*
X0058934Y0042560D01*
X0058934Y0042574D02*
X0057446Y0042574D01*
X0057446Y0042588D02*
X0058934Y0042588D01*
X0058934Y0042602D02*
X0057446Y0042602D01*
X0057446Y0042616D02*
X0058934Y0042616D01*
X0058934Y0042630D02*
X0057446Y0042630D01*
X0057446Y0042644D02*
X0058934Y0042644D01*
X0058934Y0042658D02*
X0057446Y0042658D01*
X0057446Y0042672D02*
X0058934Y0042672D01*
X0058934Y0042686D02*
X0057446Y0042686D01*
X0057446Y0042700D02*
X0058934Y0042700D01*
X0058934Y0042714D02*
X0057446Y0042714D01*
X0057446Y0042728D02*
X0058934Y0042728D01*
X0058934Y0042742D02*
X0057446Y0042742D01*
X0056966Y0042750D02*
X0056966Y0039116D01*
X0055478Y0039116D01*
X0055478Y0042750D01*
X0056966Y0042750D01*
X0056966Y0039130D02*
X0055478Y0039130D01*
X0055478Y0039144D02*
X0056966Y0039144D01*
X0056966Y0039158D02*
X0055478Y0039158D01*
X0055478Y0039172D02*
X0056966Y0039172D01*
X0056966Y0039186D02*
X0055478Y0039186D01*
X0055478Y0039200D02*
X0056966Y0039200D01*
X0056966Y0039214D02*
X0055478Y0039214D01*
X0055478Y0039228D02*
X0056966Y0039228D01*
X0056966Y0039242D02*
X0055478Y0039242D01*
X0055478Y0039256D02*
X0056966Y0039256D01*
X0056966Y0039270D02*
X0055478Y0039270D01*
X0055478Y0039284D02*
X0056966Y0039284D01*
X0056966Y0039298D02*
X0055478Y0039298D01*
X0055478Y0039312D02*
X0056966Y0039312D01*
X0056966Y0039326D02*
X0055478Y0039326D01*
X0055478Y0039340D02*
X0056966Y0039340D01*
X0056966Y0039354D02*
X0055478Y0039354D01*
X0055478Y0039368D02*
X0056966Y0039368D01*
X0056966Y0039382D02*
X0055478Y0039382D01*
X0055478Y0039396D02*
X0056966Y0039396D01*
X0056966Y0039410D02*
X0055478Y0039410D01*
X0055478Y0039424D02*
X0056966Y0039424D01*
X0056966Y0039438D02*
X0055478Y0039438D01*
X0055478Y0039452D02*
X0056966Y0039452D01*
X0056966Y0039466D02*
X0055478Y0039466D01*
X0055478Y0039480D02*
X0056966Y0039480D01*
X0056966Y0039494D02*
X0055478Y0039494D01*
X0055478Y0039508D02*
X0056966Y0039508D01*
X0056966Y0039522D02*
X0055478Y0039522D01*
X0055478Y0039536D02*
X0056966Y0039536D01*
X0056966Y0039550D02*
X0055478Y0039550D01*
X0055478Y0039564D02*
X0056966Y0039564D01*
X0056966Y0039578D02*
X0055478Y0039578D01*
X0055478Y0039592D02*
X0056966Y0039592D01*
X0056966Y0039606D02*
X0055478Y0039606D01*
X0055478Y0039620D02*
X0056966Y0039620D01*
X0056966Y0039634D02*
X0055478Y0039634D01*
X0055478Y0039648D02*
X0056966Y0039648D01*
X0056966Y0039662D02*
X0055478Y0039662D01*
X0055478Y0039676D02*
X0056966Y0039676D01*
X0056966Y0039690D02*
X0055478Y0039690D01*
X0055478Y0039704D02*
X0056966Y0039704D01*
X0056966Y0039718D02*
X0055478Y0039718D01*
X0055478Y0039732D02*
X0056966Y0039732D01*
X0056966Y0039746D02*
X0055478Y0039746D01*
X0055478Y0039760D02*
X0056966Y0039760D01*
X0056966Y0039774D02*
X0055478Y0039774D01*
X0055478Y0039788D02*
X0056966Y0039788D01*
X0056966Y0039802D02*
X0055478Y0039802D01*
X0055478Y0039816D02*
X0056966Y0039816D01*
X0056966Y0039830D02*
X0055478Y0039830D01*
X0055478Y0039844D02*
X0056966Y0039844D01*
X0056966Y0039858D02*
X0055478Y0039858D01*
X0055478Y0039872D02*
X0056966Y0039872D01*
X0056966Y0039886D02*
X0055478Y0039886D01*
X0055478Y0039900D02*
X0056966Y0039900D01*
X0056966Y0039914D02*
X0055478Y0039914D01*
X0055478Y0039928D02*
X0056966Y0039928D01*
X0056966Y0039942D02*
X0055478Y0039942D01*
X0055478Y0039956D02*
X0056966Y0039956D01*
X0056966Y0039970D02*
X0055478Y0039970D01*
X0055478Y0039984D02*
X0056966Y0039984D01*
X0056966Y0039998D02*
X0055478Y0039998D01*
X0055478Y0040012D02*
X0056966Y0040012D01*
X0056966Y0040026D02*
X0055478Y0040026D01*
X0055478Y0040040D02*
X0056966Y0040040D01*
X0056966Y0040054D02*
X0055478Y0040054D01*
X0055478Y0040068D02*
X0056966Y0040068D01*
X0056966Y0040082D02*
X0055478Y0040082D01*
X0055478Y0040096D02*
X0056966Y0040096D01*
X0056966Y0040110D02*
X0055478Y0040110D01*
X0055478Y0040124D02*
X0056966Y0040124D01*
X0056966Y0040138D02*
X0055478Y0040138D01*
X0055478Y0040152D02*
X0056966Y0040152D01*
X0056966Y0040166D02*
X0055478Y0040166D01*
X0055478Y0040180D02*
X0056966Y0040180D01*
X0056966Y0040194D02*
X0055478Y0040194D01*
X0055478Y0040208D02*
X0056966Y0040208D01*
X0056966Y0040222D02*
X0055478Y0040222D01*
X0055478Y0040236D02*
X0056966Y0040236D01*
X0056966Y0040250D02*
X0055478Y0040250D01*
X0055478Y0040264D02*
X0056966Y0040264D01*
X0056966Y0040278D02*
X0055478Y0040278D01*
X0055478Y0040292D02*
X0056966Y0040292D01*
X0056966Y0040306D02*
X0055478Y0040306D01*
X0055478Y0040320D02*
X0056966Y0040320D01*
X0056966Y0040334D02*
X0055478Y0040334D01*
X0055478Y0040348D02*
X0056966Y0040348D01*
X0056966Y0040362D02*
X0055478Y0040362D01*
X0055478Y0040376D02*
X0056966Y0040376D01*
X0056966Y0040390D02*
X0055478Y0040390D01*
X0055478Y0040404D02*
X0056966Y0040404D01*
X0056966Y0040418D02*
X0055478Y0040418D01*
X0055478Y0040432D02*
X0056966Y0040432D01*
X0056966Y0040446D02*
X0055478Y0040446D01*
X0055478Y0040460D02*
X0056966Y0040460D01*
X0056966Y0040474D02*
X0055478Y0040474D01*
X0055478Y0040488D02*
X0056966Y0040488D01*
X0056966Y0040502D02*
X0055478Y0040502D01*
X0055478Y0040516D02*
X0056966Y0040516D01*
X0056966Y0040530D02*
X0055478Y0040530D01*
X0055478Y0040544D02*
X0056966Y0040544D01*
X0056966Y0040558D02*
X0055478Y0040558D01*
X0055478Y0040572D02*
X0056966Y0040572D01*
X0056966Y0040586D02*
X0055478Y0040586D01*
X0055478Y0040600D02*
X0056966Y0040600D01*
X0056966Y0040614D02*
X0055478Y0040614D01*
X0055478Y0040628D02*
X0056966Y0040628D01*
X0056966Y0040642D02*
X0055478Y0040642D01*
X0055478Y0040656D02*
X0056966Y0040656D01*
X0056966Y0040670D02*
X0055478Y0040670D01*
X0055478Y0040684D02*
X0056966Y0040684D01*
X0056966Y0040698D02*
X0055478Y0040698D01*
X0055478Y0040712D02*
X0056966Y0040712D01*
X0056966Y0040726D02*
X0055478Y0040726D01*
X0055478Y0040740D02*
X0056966Y0040740D01*
X0056966Y0040754D02*
X0055478Y0040754D01*
X0055478Y0040768D02*
X0056966Y0040768D01*
X0056966Y0040782D02*
X0055478Y0040782D01*
X0055478Y0040796D02*
X0056966Y0040796D01*
X0056966Y0040810D02*
X0055478Y0040810D01*
X0055478Y0040824D02*
X0056966Y0040824D01*
X0056966Y0040838D02*
X0055478Y0040838D01*
X0055478Y0040852D02*
X0056966Y0040852D01*
X0056966Y0040866D02*
X0055478Y0040866D01*
X0055478Y0040880D02*
X0056966Y0040880D01*
X0056966Y0040894D02*
X0055478Y0040894D01*
X0055478Y0040908D02*
X0056966Y0040908D01*
X0056966Y0040922D02*
X0055478Y0040922D01*
X0055478Y0040936D02*
X0056966Y0040936D01*
X0056966Y0040950D02*
X0055478Y0040950D01*
X0055478Y0040964D02*
X0056966Y0040964D01*
X0056966Y0040978D02*
X0055478Y0040978D01*
X0055478Y0040992D02*
X0056966Y0040992D01*
X0056966Y0041006D02*
X0055478Y0041006D01*
X0055478Y0041020D02*
X0056966Y0041020D01*
X0056966Y0041034D02*
X0055478Y0041034D01*
X0055478Y0041048D02*
X0056966Y0041048D01*
X0056966Y0041062D02*
X0055478Y0041062D01*
X0055478Y0041076D02*
X0056966Y0041076D01*
X0056966Y0041090D02*
X0055478Y0041090D01*
X0055478Y0041104D02*
X0056966Y0041104D01*
X0056966Y0041118D02*
X0055478Y0041118D01*
X0055478Y0041132D02*
X0056966Y0041132D01*
X0056966Y0041146D02*
X0055478Y0041146D01*
X0055478Y0041160D02*
X0056966Y0041160D01*
X0056966Y0041174D02*
X0055478Y0041174D01*
X0055478Y0041188D02*
X0056966Y0041188D01*
X0056966Y0041202D02*
X0055478Y0041202D01*
X0055478Y0041216D02*
X0056966Y0041216D01*
X0056966Y0041230D02*
X0055478Y0041230D01*
X0055478Y0041244D02*
X0056966Y0041244D01*
X0056966Y0041258D02*
X0055478Y0041258D01*
X0055478Y0041272D02*
X0056966Y0041272D01*
X0056966Y0041286D02*
X0055478Y0041286D01*
X0055478Y0041300D02*
X0056966Y0041300D01*
X0056966Y0041314D02*
X0055478Y0041314D01*
X0055478Y0041328D02*
X0056966Y0041328D01*
X0056966Y0041342D02*
X0055478Y0041342D01*
X0055478Y0041356D02*
X0056966Y0041356D01*
X0056966Y0041370D02*
X0055478Y0041370D01*
X0055478Y0041384D02*
X0056966Y0041384D01*
X0056966Y0041398D02*
X0055478Y0041398D01*
X0055478Y0041412D02*
X0056966Y0041412D01*
X0056966Y0041426D02*
X0055478Y0041426D01*
X0055478Y0041440D02*
X0056966Y0041440D01*
X0056966Y0041454D02*
X0055478Y0041454D01*
X0055478Y0041468D02*
X0056966Y0041468D01*
X0056966Y0041482D02*
X0055478Y0041482D01*
X0055478Y0041496D02*
X0056966Y0041496D01*
X0056966Y0041510D02*
X0055478Y0041510D01*
X0055478Y0041524D02*
X0056966Y0041524D01*
X0056966Y0041538D02*
X0055478Y0041538D01*
X0055478Y0041552D02*
X0056966Y0041552D01*
X0056966Y0041566D02*
X0055478Y0041566D01*
X0055478Y0041580D02*
X0056966Y0041580D01*
X0056966Y0041594D02*
X0055478Y0041594D01*
X0055478Y0041608D02*
X0056966Y0041608D01*
X0056966Y0041622D02*
X0055478Y0041622D01*
X0055478Y0041636D02*
X0056966Y0041636D01*
X0056966Y0041650D02*
X0055478Y0041650D01*
X0055478Y0041664D02*
X0056966Y0041664D01*
X0056966Y0041678D02*
X0055478Y0041678D01*
X0055478Y0041692D02*
X0056966Y0041692D01*
X0056966Y0041706D02*
X0055478Y0041706D01*
X0055478Y0041720D02*
X0056966Y0041720D01*
X0056966Y0041734D02*
X0055478Y0041734D01*
X0055478Y0041748D02*
X0056966Y0041748D01*
X0056966Y0041762D02*
X0055478Y0041762D01*
X0055478Y0041776D02*
X0056966Y0041776D01*
X0056966Y0041790D02*
X0055478Y0041790D01*
X0055478Y0041804D02*
X0056966Y0041804D01*
X0056966Y0041818D02*
X0055478Y0041818D01*
X0055478Y0041832D02*
X0056966Y0041832D01*
X0056966Y0041846D02*
X0055478Y0041846D01*
X0055478Y0041860D02*
X0056966Y0041860D01*
X0056966Y0041874D02*
X0055478Y0041874D01*
X0055478Y0041888D02*
X0056966Y0041888D01*
X0056966Y0041902D02*
X0055478Y0041902D01*
X0055478Y0041916D02*
X0056966Y0041916D01*
X0056966Y0041930D02*
X0055478Y0041930D01*
X0055478Y0041944D02*
X0056966Y0041944D01*
X0056966Y0041958D02*
X0055478Y0041958D01*
X0055478Y0041972D02*
X0056966Y0041972D01*
X0056966Y0041986D02*
X0055478Y0041986D01*
X0055478Y0042000D02*
X0056966Y0042000D01*
X0056966Y0042014D02*
X0055478Y0042014D01*
X0055478Y0042028D02*
X0056966Y0042028D01*
X0056966Y0042042D02*
X0055478Y0042042D01*
X0055478Y0042056D02*
X0056966Y0042056D01*
X0056966Y0042070D02*
X0055478Y0042070D01*
X0055478Y0042084D02*
X0056966Y0042084D01*
X0056966Y0042098D02*
X0055478Y0042098D01*
X0055478Y0042112D02*
X0056966Y0042112D01*
X0056966Y0042126D02*
X0055478Y0042126D01*
X0055478Y0042140D02*
X0056966Y0042140D01*
X0056966Y0042154D02*
X0055478Y0042154D01*
X0055478Y0042168D02*
X0056966Y0042168D01*
X0056966Y0042182D02*
X0055478Y0042182D01*
X0055478Y0042196D02*
X0056966Y0042196D01*
X0056966Y0042210D02*
X0055478Y0042210D01*
X0055478Y0042224D02*
X0056966Y0042224D01*
X0056966Y0042238D02*
X0055478Y0042238D01*
X0055478Y0042252D02*
X0056966Y0042252D01*
X0056966Y0042266D02*
X0055478Y0042266D01*
X0055478Y0042280D02*
X0056966Y0042280D01*
X0056966Y0042294D02*
X0055478Y0042294D01*
X0055478Y0042308D02*
X0056966Y0042308D01*
X0056966Y0042322D02*
X0055478Y0042322D01*
X0055478Y0042336D02*
X0056966Y0042336D01*
X0056966Y0042350D02*
X0055478Y0042350D01*
X0055478Y0042364D02*
X0056966Y0042364D01*
X0056966Y0042378D02*
X0055478Y0042378D01*
X0055478Y0042392D02*
X0056966Y0042392D01*
X0056966Y0042406D02*
X0055478Y0042406D01*
X0055478Y0042420D02*
X0056966Y0042420D01*
X0056966Y0042434D02*
X0055478Y0042434D01*
X0055478Y0042448D02*
X0056966Y0042448D01*
X0056966Y0042462D02*
X0055478Y0042462D01*
X0055478Y0042476D02*
X0056966Y0042476D01*
X0056966Y0042490D02*
X0055478Y0042490D01*
X0055478Y0042504D02*
X0056966Y0042504D01*
X0056966Y0042518D02*
X0055478Y0042518D01*
X0055478Y0042532D02*
X0056966Y0042532D01*
X0056966Y0042546D02*
X0055478Y0042546D01*
X0055478Y0042560D02*
X0056966Y0042560D01*
X0056966Y0042574D02*
X0055478Y0042574D01*
X0055478Y0042588D02*
X0056966Y0042588D01*
X0056966Y0042602D02*
X0055478Y0042602D01*
X0055478Y0042616D02*
X0056966Y0042616D01*
X0056966Y0042630D02*
X0055478Y0042630D01*
X0055478Y0042644D02*
X0056966Y0042644D01*
X0056966Y0042658D02*
X0055478Y0042658D01*
X0055478Y0042672D02*
X0056966Y0042672D01*
X0056966Y0042686D02*
X0055478Y0042686D01*
X0055478Y0042700D02*
X0056966Y0042700D01*
X0056966Y0042714D02*
X0055478Y0042714D01*
X0055478Y0042728D02*
X0056966Y0042728D01*
X0056966Y0042742D02*
X0055478Y0042742D01*
X0054997Y0042750D02*
X0054997Y0039116D01*
X0053509Y0039116D01*
X0053509Y0042750D01*
X0054997Y0042750D01*
X0054997Y0039130D02*
X0053509Y0039130D01*
X0053509Y0039144D02*
X0054997Y0039144D01*
X0054997Y0039158D02*
X0053509Y0039158D01*
X0053509Y0039172D02*
X0054997Y0039172D01*
X0054997Y0039186D02*
X0053509Y0039186D01*
X0053509Y0039200D02*
X0054997Y0039200D01*
X0054997Y0039214D02*
X0053509Y0039214D01*
X0053509Y0039228D02*
X0054997Y0039228D01*
X0054997Y0039242D02*
X0053509Y0039242D01*
X0053509Y0039256D02*
X0054997Y0039256D01*
X0054997Y0039270D02*
X0053509Y0039270D01*
X0053509Y0039284D02*
X0054997Y0039284D01*
X0054997Y0039298D02*
X0053509Y0039298D01*
X0053509Y0039312D02*
X0054997Y0039312D01*
X0054997Y0039326D02*
X0053509Y0039326D01*
X0053509Y0039340D02*
X0054997Y0039340D01*
X0054997Y0039354D02*
X0053509Y0039354D01*
X0053509Y0039368D02*
X0054997Y0039368D01*
X0054997Y0039382D02*
X0053509Y0039382D01*
X0053509Y0039396D02*
X0054997Y0039396D01*
X0054997Y0039410D02*
X0053509Y0039410D01*
X0053509Y0039424D02*
X0054997Y0039424D01*
X0054997Y0039438D02*
X0053509Y0039438D01*
X0053509Y0039452D02*
X0054997Y0039452D01*
X0054997Y0039466D02*
X0053509Y0039466D01*
X0053509Y0039480D02*
X0054997Y0039480D01*
X0054997Y0039494D02*
X0053509Y0039494D01*
X0053509Y0039508D02*
X0054997Y0039508D01*
X0054997Y0039522D02*
X0053509Y0039522D01*
X0053509Y0039536D02*
X0054997Y0039536D01*
X0054997Y0039550D02*
X0053509Y0039550D01*
X0053509Y0039564D02*
X0054997Y0039564D01*
X0054997Y0039578D02*
X0053509Y0039578D01*
X0053509Y0039592D02*
X0054997Y0039592D01*
X0054997Y0039606D02*
X0053509Y0039606D01*
X0053509Y0039620D02*
X0054997Y0039620D01*
X0054997Y0039634D02*
X0053509Y0039634D01*
X0053509Y0039648D02*
X0054997Y0039648D01*
X0054997Y0039662D02*
X0053509Y0039662D01*
X0053509Y0039676D02*
X0054997Y0039676D01*
X0054997Y0039690D02*
X0053509Y0039690D01*
X0053509Y0039704D02*
X0054997Y0039704D01*
X0054997Y0039718D02*
X0053509Y0039718D01*
X0053509Y0039732D02*
X0054997Y0039732D01*
X0054997Y0039746D02*
X0053509Y0039746D01*
X0053509Y0039760D02*
X0054997Y0039760D01*
X0054997Y0039774D02*
X0053509Y0039774D01*
X0053509Y0039788D02*
X0054997Y0039788D01*
X0054997Y0039802D02*
X0053509Y0039802D01*
X0053509Y0039816D02*
X0054997Y0039816D01*
X0054997Y0039830D02*
X0053509Y0039830D01*
X0053509Y0039844D02*
X0054997Y0039844D01*
X0054997Y0039858D02*
X0053509Y0039858D01*
X0053509Y0039872D02*
X0054997Y0039872D01*
X0054997Y0039886D02*
X0053509Y0039886D01*
X0053509Y0039900D02*
X0054997Y0039900D01*
X0054997Y0039914D02*
X0053509Y0039914D01*
X0053509Y0039928D02*
X0054997Y0039928D01*
X0054997Y0039942D02*
X0053509Y0039942D01*
X0053509Y0039956D02*
X0054997Y0039956D01*
X0054997Y0039970D02*
X0053509Y0039970D01*
X0053509Y0039984D02*
X0054997Y0039984D01*
X0054997Y0039998D02*
X0053509Y0039998D01*
X0053509Y0040012D02*
X0054997Y0040012D01*
X0054997Y0040026D02*
X0053509Y0040026D01*
X0053509Y0040040D02*
X0054997Y0040040D01*
X0054997Y0040054D02*
X0053509Y0040054D01*
X0053509Y0040068D02*
X0054997Y0040068D01*
X0054997Y0040082D02*
X0053509Y0040082D01*
X0053509Y0040096D02*
X0054997Y0040096D01*
X0054997Y0040110D02*
X0053509Y0040110D01*
X0053509Y0040124D02*
X0054997Y0040124D01*
X0054997Y0040138D02*
X0053509Y0040138D01*
X0053509Y0040152D02*
X0054997Y0040152D01*
X0054997Y0040166D02*
X0053509Y0040166D01*
X0053509Y0040180D02*
X0054997Y0040180D01*
X0054997Y0040194D02*
X0053509Y0040194D01*
X0053509Y0040208D02*
X0054997Y0040208D01*
X0054997Y0040222D02*
X0053509Y0040222D01*
X0053509Y0040236D02*
X0054997Y0040236D01*
X0054997Y0040250D02*
X0053509Y0040250D01*
X0053509Y0040264D02*
X0054997Y0040264D01*
X0054997Y0040278D02*
X0053509Y0040278D01*
X0053509Y0040292D02*
X0054997Y0040292D01*
X0054997Y0040306D02*
X0053509Y0040306D01*
X0053509Y0040320D02*
X0054997Y0040320D01*
X0054997Y0040334D02*
X0053509Y0040334D01*
X0053509Y0040348D02*
X0054997Y0040348D01*
X0054997Y0040362D02*
X0053509Y0040362D01*
X0053509Y0040376D02*
X0054997Y0040376D01*
X0054997Y0040390D02*
X0053509Y0040390D01*
X0053509Y0040404D02*
X0054997Y0040404D01*
X0054997Y0040418D02*
X0053509Y0040418D01*
X0053509Y0040432D02*
X0054997Y0040432D01*
X0054997Y0040446D02*
X0053509Y0040446D01*
X0053509Y0040460D02*
X0054997Y0040460D01*
X0054997Y0040474D02*
X0053509Y0040474D01*
X0053509Y0040488D02*
X0054997Y0040488D01*
X0054997Y0040502D02*
X0053509Y0040502D01*
X0053509Y0040516D02*
X0054997Y0040516D01*
X0054997Y0040530D02*
X0053509Y0040530D01*
X0053509Y0040544D02*
X0054997Y0040544D01*
X0054997Y0040558D02*
X0053509Y0040558D01*
X0053509Y0040572D02*
X0054997Y0040572D01*
X0054997Y0040586D02*
X0053509Y0040586D01*
X0053509Y0040600D02*
X0054997Y0040600D01*
X0054997Y0040614D02*
X0053509Y0040614D01*
X0053509Y0040628D02*
X0054997Y0040628D01*
X0054997Y0040642D02*
X0053509Y0040642D01*
X0053509Y0040656D02*
X0054997Y0040656D01*
X0054997Y0040670D02*
X0053509Y0040670D01*
X0053509Y0040684D02*
X0054997Y0040684D01*
X0054997Y0040698D02*
X0053509Y0040698D01*
X0053509Y0040712D02*
X0054997Y0040712D01*
X0054997Y0040726D02*
X0053509Y0040726D01*
X0053509Y0040740D02*
X0054997Y0040740D01*
X0054997Y0040754D02*
X0053509Y0040754D01*
X0053509Y0040768D02*
X0054997Y0040768D01*
X0054997Y0040782D02*
X0053509Y0040782D01*
X0053509Y0040796D02*
X0054997Y0040796D01*
X0054997Y0040810D02*
X0053509Y0040810D01*
X0053509Y0040824D02*
X0054997Y0040824D01*
X0054997Y0040838D02*
X0053509Y0040838D01*
X0053509Y0040852D02*
X0054997Y0040852D01*
X0054997Y0040866D02*
X0053509Y0040866D01*
X0053509Y0040880D02*
X0054997Y0040880D01*
X0054997Y0040894D02*
X0053509Y0040894D01*
X0053509Y0040908D02*
X0054997Y0040908D01*
X0054997Y0040922D02*
X0053509Y0040922D01*
X0053509Y0040936D02*
X0054997Y0040936D01*
X0054997Y0040950D02*
X0053509Y0040950D01*
X0053509Y0040964D02*
X0054997Y0040964D01*
X0054997Y0040978D02*
X0053509Y0040978D01*
X0053509Y0040992D02*
X0054997Y0040992D01*
X0054997Y0041006D02*
X0053509Y0041006D01*
X0053509Y0041020D02*
X0054997Y0041020D01*
X0054997Y0041034D02*
X0053509Y0041034D01*
X0053509Y0041048D02*
X0054997Y0041048D01*
X0054997Y0041062D02*
X0053509Y0041062D01*
X0053509Y0041076D02*
X0054997Y0041076D01*
X0054997Y0041090D02*
X0053509Y0041090D01*
X0053509Y0041104D02*
X0054997Y0041104D01*
X0054997Y0041118D02*
X0053509Y0041118D01*
X0053509Y0041132D02*
X0054997Y0041132D01*
X0054997Y0041146D02*
X0053509Y0041146D01*
X0053509Y0041160D02*
X0054997Y0041160D01*
X0054997Y0041174D02*
X0053509Y0041174D01*
X0053509Y0041188D02*
X0054997Y0041188D01*
X0054997Y0041202D02*
X0053509Y0041202D01*
X0053509Y0041216D02*
X0054997Y0041216D01*
X0054997Y0041230D02*
X0053509Y0041230D01*
X0053509Y0041244D02*
X0054997Y0041244D01*
X0054997Y0041258D02*
X0053509Y0041258D01*
X0053509Y0041272D02*
X0054997Y0041272D01*
X0054997Y0041286D02*
X0053509Y0041286D01*
X0053509Y0041300D02*
X0054997Y0041300D01*
X0054997Y0041314D02*
X0053509Y0041314D01*
X0053509Y0041328D02*
X0054997Y0041328D01*
X0054997Y0041342D02*
X0053509Y0041342D01*
X0053509Y0041356D02*
X0054997Y0041356D01*
X0054997Y0041370D02*
X0053509Y0041370D01*
X0053509Y0041384D02*
X0054997Y0041384D01*
X0054997Y0041398D02*
X0053509Y0041398D01*
X0053509Y0041412D02*
X0054997Y0041412D01*
X0054997Y0041426D02*
X0053509Y0041426D01*
X0053509Y0041440D02*
X0054997Y0041440D01*
X0054997Y0041454D02*
X0053509Y0041454D01*
X0053509Y0041468D02*
X0054997Y0041468D01*
X0054997Y0041482D02*
X0053509Y0041482D01*
X0053509Y0041496D02*
X0054997Y0041496D01*
X0054997Y0041510D02*
X0053509Y0041510D01*
X0053509Y0041524D02*
X0054997Y0041524D01*
X0054997Y0041538D02*
X0053509Y0041538D01*
X0053509Y0041552D02*
X0054997Y0041552D01*
X0054997Y0041566D02*
X0053509Y0041566D01*
X0053509Y0041580D02*
X0054997Y0041580D01*
X0054997Y0041594D02*
X0053509Y0041594D01*
X0053509Y0041608D02*
X0054997Y0041608D01*
X0054997Y0041622D02*
X0053509Y0041622D01*
X0053509Y0041636D02*
X0054997Y0041636D01*
X0054997Y0041650D02*
X0053509Y0041650D01*
X0053509Y0041664D02*
X0054997Y0041664D01*
X0054997Y0041678D02*
X0053509Y0041678D01*
X0053509Y0041692D02*
X0054997Y0041692D01*
X0054997Y0041706D02*
X0053509Y0041706D01*
X0053509Y0041720D02*
X0054997Y0041720D01*
X0054997Y0041734D02*
X0053509Y0041734D01*
X0053509Y0041748D02*
X0054997Y0041748D01*
X0054997Y0041762D02*
X0053509Y0041762D01*
X0053509Y0041776D02*
X0054997Y0041776D01*
X0054997Y0041790D02*
X0053509Y0041790D01*
X0053509Y0041804D02*
X0054997Y0041804D01*
X0054997Y0041818D02*
X0053509Y0041818D01*
X0053509Y0041832D02*
X0054997Y0041832D01*
X0054997Y0041846D02*
X0053509Y0041846D01*
X0053509Y0041860D02*
X0054997Y0041860D01*
X0054997Y0041874D02*
X0053509Y0041874D01*
X0053509Y0041888D02*
X0054997Y0041888D01*
X0054997Y0041902D02*
X0053509Y0041902D01*
X0053509Y0041916D02*
X0054997Y0041916D01*
X0054997Y0041930D02*
X0053509Y0041930D01*
X0053509Y0041944D02*
X0054997Y0041944D01*
X0054997Y0041958D02*
X0053509Y0041958D01*
X0053509Y0041972D02*
X0054997Y0041972D01*
X0054997Y0041986D02*
X0053509Y0041986D01*
X0053509Y0042000D02*
X0054997Y0042000D01*
X0054997Y0042014D02*
X0053509Y0042014D01*
X0053509Y0042028D02*
X0054997Y0042028D01*
X0054997Y0042042D02*
X0053509Y0042042D01*
X0053509Y0042056D02*
X0054997Y0042056D01*
X0054997Y0042070D02*
X0053509Y0042070D01*
X0053509Y0042084D02*
X0054997Y0042084D01*
X0054997Y0042098D02*
X0053509Y0042098D01*
X0053509Y0042112D02*
X0054997Y0042112D01*
X0054997Y0042126D02*
X0053509Y0042126D01*
X0053509Y0042140D02*
X0054997Y0042140D01*
X0054997Y0042154D02*
X0053509Y0042154D01*
X0053509Y0042168D02*
X0054997Y0042168D01*
X0054997Y0042182D02*
X0053509Y0042182D01*
X0053509Y0042196D02*
X0054997Y0042196D01*
X0054997Y0042210D02*
X0053509Y0042210D01*
X0053509Y0042224D02*
X0054997Y0042224D01*
X0054997Y0042238D02*
X0053509Y0042238D01*
X0053509Y0042252D02*
X0054997Y0042252D01*
X0054997Y0042266D02*
X0053509Y0042266D01*
X0053509Y0042280D02*
X0054997Y0042280D01*
X0054997Y0042294D02*
X0053509Y0042294D01*
X0053509Y0042308D02*
X0054997Y0042308D01*
X0054997Y0042322D02*
X0053509Y0042322D01*
X0053509Y0042336D02*
X0054997Y0042336D01*
X0054997Y0042350D02*
X0053509Y0042350D01*
X0053509Y0042364D02*
X0054997Y0042364D01*
X0054997Y0042378D02*
X0053509Y0042378D01*
X0053509Y0042392D02*
X0054997Y0042392D01*
X0054997Y0042406D02*
X0053509Y0042406D01*
X0053509Y0042420D02*
X0054997Y0042420D01*
X0054997Y0042434D02*
X0053509Y0042434D01*
X0053509Y0042448D02*
X0054997Y0042448D01*
X0054997Y0042462D02*
X0053509Y0042462D01*
X0053509Y0042476D02*
X0054997Y0042476D01*
X0054997Y0042490D02*
X0053509Y0042490D01*
X0053509Y0042504D02*
X0054997Y0042504D01*
X0054997Y0042518D02*
X0053509Y0042518D01*
X0053509Y0042532D02*
X0054997Y0042532D01*
X0054997Y0042546D02*
X0053509Y0042546D01*
X0053509Y0042560D02*
X0054997Y0042560D01*
X0054997Y0042574D02*
X0053509Y0042574D01*
X0053509Y0042588D02*
X0054997Y0042588D01*
X0054997Y0042602D02*
X0053509Y0042602D01*
X0053509Y0042616D02*
X0054997Y0042616D01*
X0054997Y0042630D02*
X0053509Y0042630D01*
X0053509Y0042644D02*
X0054997Y0042644D01*
X0054997Y0042658D02*
X0053509Y0042658D01*
X0053509Y0042672D02*
X0054997Y0042672D01*
X0054997Y0042686D02*
X0053509Y0042686D01*
X0053509Y0042700D02*
X0054997Y0042700D01*
X0054997Y0042714D02*
X0053509Y0042714D01*
X0053509Y0042728D02*
X0054997Y0042728D01*
X0054997Y0042742D02*
X0053509Y0042742D01*
X0053029Y0042750D02*
X0053029Y0039116D01*
X0051541Y0039116D01*
X0051541Y0042750D01*
X0053029Y0042750D01*
X0053029Y0039130D02*
X0051541Y0039130D01*
X0051541Y0039144D02*
X0053029Y0039144D01*
X0053029Y0039158D02*
X0051541Y0039158D01*
X0051541Y0039172D02*
X0053029Y0039172D01*
X0053029Y0039186D02*
X0051541Y0039186D01*
X0051541Y0039200D02*
X0053029Y0039200D01*
X0053029Y0039214D02*
X0051541Y0039214D01*
X0051541Y0039228D02*
X0053029Y0039228D01*
X0053029Y0039242D02*
X0051541Y0039242D01*
X0051541Y0039256D02*
X0053029Y0039256D01*
X0053029Y0039270D02*
X0051541Y0039270D01*
X0051541Y0039284D02*
X0053029Y0039284D01*
X0053029Y0039298D02*
X0051541Y0039298D01*
X0051541Y0039312D02*
X0053029Y0039312D01*
X0053029Y0039326D02*
X0051541Y0039326D01*
X0051541Y0039340D02*
X0053029Y0039340D01*
X0053029Y0039354D02*
X0051541Y0039354D01*
X0051541Y0039368D02*
X0053029Y0039368D01*
X0053029Y0039382D02*
X0051541Y0039382D01*
X0051541Y0039396D02*
X0053029Y0039396D01*
X0053029Y0039410D02*
X0051541Y0039410D01*
X0051541Y0039424D02*
X0053029Y0039424D01*
X0053029Y0039438D02*
X0051541Y0039438D01*
X0051541Y0039452D02*
X0053029Y0039452D01*
X0053029Y0039466D02*
X0051541Y0039466D01*
X0051541Y0039480D02*
X0053029Y0039480D01*
X0053029Y0039494D02*
X0051541Y0039494D01*
X0051541Y0039508D02*
X0053029Y0039508D01*
X0053029Y0039522D02*
X0051541Y0039522D01*
X0051541Y0039536D02*
X0053029Y0039536D01*
X0053029Y0039550D02*
X0051541Y0039550D01*
X0051541Y0039564D02*
X0053029Y0039564D01*
X0053029Y0039578D02*
X0051541Y0039578D01*
X0051541Y0039592D02*
X0053029Y0039592D01*
X0053029Y0039606D02*
X0051541Y0039606D01*
X0051541Y0039620D02*
X0053029Y0039620D01*
X0053029Y0039634D02*
X0051541Y0039634D01*
X0051541Y0039648D02*
X0053029Y0039648D01*
X0053029Y0039662D02*
X0051541Y0039662D01*
X0051541Y0039676D02*
X0053029Y0039676D01*
X0053029Y0039690D02*
X0051541Y0039690D01*
X0051541Y0039704D02*
X0053029Y0039704D01*
X0053029Y0039718D02*
X0051541Y0039718D01*
X0051541Y0039732D02*
X0053029Y0039732D01*
X0053029Y0039746D02*
X0051541Y0039746D01*
X0051541Y0039760D02*
X0053029Y0039760D01*
X0053029Y0039774D02*
X0051541Y0039774D01*
X0051541Y0039788D02*
X0053029Y0039788D01*
X0053029Y0039802D02*
X0051541Y0039802D01*
X0051541Y0039816D02*
X0053029Y0039816D01*
X0053029Y0039830D02*
X0051541Y0039830D01*
X0051541Y0039844D02*
X0053029Y0039844D01*
X0053029Y0039858D02*
X0051541Y0039858D01*
X0051541Y0039872D02*
X0053029Y0039872D01*
X0053029Y0039886D02*
X0051541Y0039886D01*
X0051541Y0039900D02*
X0053029Y0039900D01*
X0053029Y0039914D02*
X0051541Y0039914D01*
X0051541Y0039928D02*
X0053029Y0039928D01*
X0053029Y0039942D02*
X0051541Y0039942D01*
X0051541Y0039956D02*
X0053029Y0039956D01*
X0053029Y0039970D02*
X0051541Y0039970D01*
X0051541Y0039984D02*
X0053029Y0039984D01*
X0053029Y0039998D02*
X0051541Y0039998D01*
X0051541Y0040012D02*
X0053029Y0040012D01*
X0053029Y0040026D02*
X0051541Y0040026D01*
X0051541Y0040040D02*
X0053029Y0040040D01*
X0053029Y0040054D02*
X0051541Y0040054D01*
X0051541Y0040068D02*
X0053029Y0040068D01*
X0053029Y0040082D02*
X0051541Y0040082D01*
X0051541Y0040096D02*
X0053029Y0040096D01*
X0053029Y0040110D02*
X0051541Y0040110D01*
X0051541Y0040124D02*
X0053029Y0040124D01*
X0053029Y0040138D02*
X0051541Y0040138D01*
X0051541Y0040152D02*
X0053029Y0040152D01*
X0053029Y0040166D02*
X0051541Y0040166D01*
X0051541Y0040180D02*
X0053029Y0040180D01*
X0053029Y0040194D02*
X0051541Y0040194D01*
X0051541Y0040208D02*
X0053029Y0040208D01*
X0053029Y0040222D02*
X0051541Y0040222D01*
X0051541Y0040236D02*
X0053029Y0040236D01*
X0053029Y0040250D02*
X0051541Y0040250D01*
X0051541Y0040264D02*
X0053029Y0040264D01*
X0053029Y0040278D02*
X0051541Y0040278D01*
X0051541Y0040292D02*
X0053029Y0040292D01*
X0053029Y0040306D02*
X0051541Y0040306D01*
X0051541Y0040320D02*
X0053029Y0040320D01*
X0053029Y0040334D02*
X0051541Y0040334D01*
X0051541Y0040348D02*
X0053029Y0040348D01*
X0053029Y0040362D02*
X0051541Y0040362D01*
X0051541Y0040376D02*
X0053029Y0040376D01*
X0053029Y0040390D02*
X0051541Y0040390D01*
X0051541Y0040404D02*
X0053029Y0040404D01*
X0053029Y0040418D02*
X0051541Y0040418D01*
X0051541Y0040432D02*
X0053029Y0040432D01*
X0053029Y0040446D02*
X0051541Y0040446D01*
X0051541Y0040460D02*
X0053029Y0040460D01*
X0053029Y0040474D02*
X0051541Y0040474D01*
X0051541Y0040488D02*
X0053029Y0040488D01*
X0053029Y0040502D02*
X0051541Y0040502D01*
X0051541Y0040516D02*
X0053029Y0040516D01*
X0053029Y0040530D02*
X0051541Y0040530D01*
X0051541Y0040544D02*
X0053029Y0040544D01*
X0053029Y0040558D02*
X0051541Y0040558D01*
X0051541Y0040572D02*
X0053029Y0040572D01*
X0053029Y0040586D02*
X0051541Y0040586D01*
X0051541Y0040600D02*
X0053029Y0040600D01*
X0053029Y0040614D02*
X0051541Y0040614D01*
X0051541Y0040628D02*
X0053029Y0040628D01*
X0053029Y0040642D02*
X0051541Y0040642D01*
X0051541Y0040656D02*
X0053029Y0040656D01*
X0053029Y0040670D02*
X0051541Y0040670D01*
X0051541Y0040684D02*
X0053029Y0040684D01*
X0053029Y0040698D02*
X0051541Y0040698D01*
X0051541Y0040712D02*
X0053029Y0040712D01*
X0053029Y0040726D02*
X0051541Y0040726D01*
X0051541Y0040740D02*
X0053029Y0040740D01*
X0053029Y0040754D02*
X0051541Y0040754D01*
X0051541Y0040768D02*
X0053029Y0040768D01*
X0053029Y0040782D02*
X0051541Y0040782D01*
X0051541Y0040796D02*
X0053029Y0040796D01*
X0053029Y0040810D02*
X0051541Y0040810D01*
X0051541Y0040824D02*
X0053029Y0040824D01*
X0053029Y0040838D02*
X0051541Y0040838D01*
X0051541Y0040852D02*
X0053029Y0040852D01*
X0053029Y0040866D02*
X0051541Y0040866D01*
X0051541Y0040880D02*
X0053029Y0040880D01*
X0053029Y0040894D02*
X0051541Y0040894D01*
X0051541Y0040908D02*
X0053029Y0040908D01*
X0053029Y0040922D02*
X0051541Y0040922D01*
X0051541Y0040936D02*
X0053029Y0040936D01*
X0053029Y0040950D02*
X0051541Y0040950D01*
X0051541Y0040964D02*
X0053029Y0040964D01*
X0053029Y0040978D02*
X0051541Y0040978D01*
X0051541Y0040992D02*
X0053029Y0040992D01*
X0053029Y0041006D02*
X0051541Y0041006D01*
X0051541Y0041020D02*
X0053029Y0041020D01*
X0053029Y0041034D02*
X0051541Y0041034D01*
X0051541Y0041048D02*
X0053029Y0041048D01*
X0053029Y0041062D02*
X0051541Y0041062D01*
X0051541Y0041076D02*
X0053029Y0041076D01*
X0053029Y0041090D02*
X0051541Y0041090D01*
X0051541Y0041104D02*
X0053029Y0041104D01*
X0053029Y0041118D02*
X0051541Y0041118D01*
X0051541Y0041132D02*
X0053029Y0041132D01*
X0053029Y0041146D02*
X0051541Y0041146D01*
X0051541Y0041160D02*
X0053029Y0041160D01*
X0053029Y0041174D02*
X0051541Y0041174D01*
X0051541Y0041188D02*
X0053029Y0041188D01*
X0053029Y0041202D02*
X0051541Y0041202D01*
X0051541Y0041216D02*
X0053029Y0041216D01*
X0053029Y0041230D02*
X0051541Y0041230D01*
X0051541Y0041244D02*
X0053029Y0041244D01*
X0053029Y0041258D02*
X0051541Y0041258D01*
X0051541Y0041272D02*
X0053029Y0041272D01*
X0053029Y0041286D02*
X0051541Y0041286D01*
X0051541Y0041300D02*
X0053029Y0041300D01*
X0053029Y0041314D02*
X0051541Y0041314D01*
X0051541Y0041328D02*
X0053029Y0041328D01*
X0053029Y0041342D02*
X0051541Y0041342D01*
X0051541Y0041356D02*
X0053029Y0041356D01*
X0053029Y0041370D02*
X0051541Y0041370D01*
X0051541Y0041384D02*
X0053029Y0041384D01*
X0053029Y0041398D02*
X0051541Y0041398D01*
X0051541Y0041412D02*
X0053029Y0041412D01*
X0053029Y0041426D02*
X0051541Y0041426D01*
X0051541Y0041440D02*
X0053029Y0041440D01*
X0053029Y0041454D02*
X0051541Y0041454D01*
X0051541Y0041468D02*
X0053029Y0041468D01*
X0053029Y0041482D02*
X0051541Y0041482D01*
X0051541Y0041496D02*
X0053029Y0041496D01*
X0053029Y0041510D02*
X0051541Y0041510D01*
X0051541Y0041524D02*
X0053029Y0041524D01*
X0053029Y0041538D02*
X0051541Y0041538D01*
X0051541Y0041552D02*
X0053029Y0041552D01*
X0053029Y0041566D02*
X0051541Y0041566D01*
X0051541Y0041580D02*
X0053029Y0041580D01*
X0053029Y0041594D02*
X0051541Y0041594D01*
X0051541Y0041608D02*
X0053029Y0041608D01*
X0053029Y0041622D02*
X0051541Y0041622D01*
X0051541Y0041636D02*
X0053029Y0041636D01*
X0053029Y0041650D02*
X0051541Y0041650D01*
X0051541Y0041664D02*
X0053029Y0041664D01*
X0053029Y0041678D02*
X0051541Y0041678D01*
X0051541Y0041692D02*
X0053029Y0041692D01*
X0053029Y0041706D02*
X0051541Y0041706D01*
X0051541Y0041720D02*
X0053029Y0041720D01*
X0053029Y0041734D02*
X0051541Y0041734D01*
X0051541Y0041748D02*
X0053029Y0041748D01*
X0053029Y0041762D02*
X0051541Y0041762D01*
X0051541Y0041776D02*
X0053029Y0041776D01*
X0053029Y0041790D02*
X0051541Y0041790D01*
X0051541Y0041804D02*
X0053029Y0041804D01*
X0053029Y0041818D02*
X0051541Y0041818D01*
X0051541Y0041832D02*
X0053029Y0041832D01*
X0053029Y0041846D02*
X0051541Y0041846D01*
X0051541Y0041860D02*
X0053029Y0041860D01*
X0053029Y0041874D02*
X0051541Y0041874D01*
X0051541Y0041888D02*
X0053029Y0041888D01*
X0053029Y0041902D02*
X0051541Y0041902D01*
X0051541Y0041916D02*
X0053029Y0041916D01*
X0053029Y0041930D02*
X0051541Y0041930D01*
X0051541Y0041944D02*
X0053029Y0041944D01*
X0053029Y0041958D02*
X0051541Y0041958D01*
X0051541Y0041972D02*
X0053029Y0041972D01*
X0053029Y0041986D02*
X0051541Y0041986D01*
X0051541Y0042000D02*
X0053029Y0042000D01*
X0053029Y0042014D02*
X0051541Y0042014D01*
X0051541Y0042028D02*
X0053029Y0042028D01*
X0053029Y0042042D02*
X0051541Y0042042D01*
X0051541Y0042056D02*
X0053029Y0042056D01*
X0053029Y0042070D02*
X0051541Y0042070D01*
X0051541Y0042084D02*
X0053029Y0042084D01*
X0053029Y0042098D02*
X0051541Y0042098D01*
X0051541Y0042112D02*
X0053029Y0042112D01*
X0053029Y0042126D02*
X0051541Y0042126D01*
X0051541Y0042140D02*
X0053029Y0042140D01*
X0053029Y0042154D02*
X0051541Y0042154D01*
X0051541Y0042168D02*
X0053029Y0042168D01*
X0053029Y0042182D02*
X0051541Y0042182D01*
X0051541Y0042196D02*
X0053029Y0042196D01*
X0053029Y0042210D02*
X0051541Y0042210D01*
X0051541Y0042224D02*
X0053029Y0042224D01*
X0053029Y0042238D02*
X0051541Y0042238D01*
X0051541Y0042252D02*
X0053029Y0042252D01*
X0053029Y0042266D02*
X0051541Y0042266D01*
X0051541Y0042280D02*
X0053029Y0042280D01*
X0053029Y0042294D02*
X0051541Y0042294D01*
X0051541Y0042308D02*
X0053029Y0042308D01*
X0053029Y0042322D02*
X0051541Y0042322D01*
X0051541Y0042336D02*
X0053029Y0042336D01*
X0053029Y0042350D02*
X0051541Y0042350D01*
X0051541Y0042364D02*
X0053029Y0042364D01*
X0053029Y0042378D02*
X0051541Y0042378D01*
X0051541Y0042392D02*
X0053029Y0042392D01*
X0053029Y0042406D02*
X0051541Y0042406D01*
X0051541Y0042420D02*
X0053029Y0042420D01*
X0053029Y0042434D02*
X0051541Y0042434D01*
X0051541Y0042448D02*
X0053029Y0042448D01*
X0053029Y0042462D02*
X0051541Y0042462D01*
X0051541Y0042476D02*
X0053029Y0042476D01*
X0053029Y0042490D02*
X0051541Y0042490D01*
X0051541Y0042504D02*
X0053029Y0042504D01*
X0053029Y0042518D02*
X0051541Y0042518D01*
X0051541Y0042532D02*
X0053029Y0042532D01*
X0053029Y0042546D02*
X0051541Y0042546D01*
X0051541Y0042560D02*
X0053029Y0042560D01*
X0053029Y0042574D02*
X0051541Y0042574D01*
X0051541Y0042588D02*
X0053029Y0042588D01*
X0053029Y0042602D02*
X0051541Y0042602D01*
X0051541Y0042616D02*
X0053029Y0042616D01*
X0053029Y0042630D02*
X0051541Y0042630D01*
X0051541Y0042644D02*
X0053029Y0042644D01*
X0053029Y0042658D02*
X0051541Y0042658D01*
X0051541Y0042672D02*
X0053029Y0042672D01*
X0053029Y0042686D02*
X0051541Y0042686D01*
X0051541Y0042700D02*
X0053029Y0042700D01*
X0053029Y0042714D02*
X0051541Y0042714D01*
X0051541Y0042728D02*
X0053029Y0042728D01*
X0053029Y0042742D02*
X0051541Y0042742D01*
X0051060Y0042750D02*
X0051060Y0039116D01*
X0049572Y0039116D01*
X0049572Y0042750D01*
X0051060Y0042750D01*
X0051060Y0039130D02*
X0049572Y0039130D01*
X0049572Y0039144D02*
X0051060Y0039144D01*
X0051060Y0039158D02*
X0049572Y0039158D01*
X0049572Y0039172D02*
X0051060Y0039172D01*
X0051060Y0039186D02*
X0049572Y0039186D01*
X0049572Y0039200D02*
X0051060Y0039200D01*
X0051060Y0039214D02*
X0049572Y0039214D01*
X0049572Y0039228D02*
X0051060Y0039228D01*
X0051060Y0039242D02*
X0049572Y0039242D01*
X0049572Y0039256D02*
X0051060Y0039256D01*
X0051060Y0039270D02*
X0049572Y0039270D01*
X0049572Y0039284D02*
X0051060Y0039284D01*
X0051060Y0039298D02*
X0049572Y0039298D01*
X0049572Y0039312D02*
X0051060Y0039312D01*
X0051060Y0039326D02*
X0049572Y0039326D01*
X0049572Y0039340D02*
X0051060Y0039340D01*
X0051060Y0039354D02*
X0049572Y0039354D01*
X0049572Y0039368D02*
X0051060Y0039368D01*
X0051060Y0039382D02*
X0049572Y0039382D01*
X0049572Y0039396D02*
X0051060Y0039396D01*
X0051060Y0039410D02*
X0049572Y0039410D01*
X0049572Y0039424D02*
X0051060Y0039424D01*
X0051060Y0039438D02*
X0049572Y0039438D01*
X0049572Y0039452D02*
X0051060Y0039452D01*
X0051060Y0039466D02*
X0049572Y0039466D01*
X0049572Y0039480D02*
X0051060Y0039480D01*
X0051060Y0039494D02*
X0049572Y0039494D01*
X0049572Y0039508D02*
X0051060Y0039508D01*
X0051060Y0039522D02*
X0049572Y0039522D01*
X0049572Y0039536D02*
X0051060Y0039536D01*
X0051060Y0039550D02*
X0049572Y0039550D01*
X0049572Y0039564D02*
X0051060Y0039564D01*
X0051060Y0039578D02*
X0049572Y0039578D01*
X0049572Y0039592D02*
X0051060Y0039592D01*
X0051060Y0039606D02*
X0049572Y0039606D01*
X0049572Y0039620D02*
X0051060Y0039620D01*
X0051060Y0039634D02*
X0049572Y0039634D01*
X0049572Y0039648D02*
X0051060Y0039648D01*
X0051060Y0039662D02*
X0049572Y0039662D01*
X0049572Y0039676D02*
X0051060Y0039676D01*
X0051060Y0039690D02*
X0049572Y0039690D01*
X0049572Y0039704D02*
X0051060Y0039704D01*
X0051060Y0039718D02*
X0049572Y0039718D01*
X0049572Y0039732D02*
X0051060Y0039732D01*
X0051060Y0039746D02*
X0049572Y0039746D01*
X0049572Y0039760D02*
X0051060Y0039760D01*
X0051060Y0039774D02*
X0049572Y0039774D01*
X0049572Y0039788D02*
X0051060Y0039788D01*
X0051060Y0039802D02*
X0049572Y0039802D01*
X0049572Y0039816D02*
X0051060Y0039816D01*
X0051060Y0039830D02*
X0049572Y0039830D01*
X0049572Y0039844D02*
X0051060Y0039844D01*
X0051060Y0039858D02*
X0049572Y0039858D01*
X0049572Y0039872D02*
X0051060Y0039872D01*
X0051060Y0039886D02*
X0049572Y0039886D01*
X0049572Y0039900D02*
X0051060Y0039900D01*
X0051060Y0039914D02*
X0049572Y0039914D01*
X0049572Y0039928D02*
X0051060Y0039928D01*
X0051060Y0039942D02*
X0049572Y0039942D01*
X0049572Y0039956D02*
X0051060Y0039956D01*
X0051060Y0039970D02*
X0049572Y0039970D01*
X0049572Y0039984D02*
X0051060Y0039984D01*
X0051060Y0039998D02*
X0049572Y0039998D01*
X0049572Y0040012D02*
X0051060Y0040012D01*
X0051060Y0040026D02*
X0049572Y0040026D01*
X0049572Y0040040D02*
X0051060Y0040040D01*
X0051060Y0040054D02*
X0049572Y0040054D01*
X0049572Y0040068D02*
X0051060Y0040068D01*
X0051060Y0040082D02*
X0049572Y0040082D01*
X0049572Y0040096D02*
X0051060Y0040096D01*
X0051060Y0040110D02*
X0049572Y0040110D01*
X0049572Y0040124D02*
X0051060Y0040124D01*
X0051060Y0040138D02*
X0049572Y0040138D01*
X0049572Y0040152D02*
X0051060Y0040152D01*
X0051060Y0040166D02*
X0049572Y0040166D01*
X0049572Y0040180D02*
X0051060Y0040180D01*
X0051060Y0040194D02*
X0049572Y0040194D01*
X0049572Y0040208D02*
X0051060Y0040208D01*
X0051060Y0040222D02*
X0049572Y0040222D01*
X0049572Y0040236D02*
X0051060Y0040236D01*
X0051060Y0040250D02*
X0049572Y0040250D01*
X0049572Y0040264D02*
X0051060Y0040264D01*
X0051060Y0040278D02*
X0049572Y0040278D01*
X0049572Y0040292D02*
X0051060Y0040292D01*
X0051060Y0040306D02*
X0049572Y0040306D01*
X0049572Y0040320D02*
X0051060Y0040320D01*
X0051060Y0040334D02*
X0049572Y0040334D01*
X0049572Y0040348D02*
X0051060Y0040348D01*
X0051060Y0040362D02*
X0049572Y0040362D01*
X0049572Y0040376D02*
X0051060Y0040376D01*
X0051060Y0040390D02*
X0049572Y0040390D01*
X0049572Y0040404D02*
X0051060Y0040404D01*
X0051060Y0040418D02*
X0049572Y0040418D01*
X0049572Y0040432D02*
X0051060Y0040432D01*
X0051060Y0040446D02*
X0049572Y0040446D01*
X0049572Y0040460D02*
X0051060Y0040460D01*
X0051060Y0040474D02*
X0049572Y0040474D01*
X0049572Y0040488D02*
X0051060Y0040488D01*
X0051060Y0040502D02*
X0049572Y0040502D01*
X0049572Y0040516D02*
X0051060Y0040516D01*
X0051060Y0040530D02*
X0049572Y0040530D01*
X0049572Y0040544D02*
X0051060Y0040544D01*
X0051060Y0040558D02*
X0049572Y0040558D01*
X0049572Y0040572D02*
X0051060Y0040572D01*
X0051060Y0040586D02*
X0049572Y0040586D01*
X0049572Y0040600D02*
X0051060Y0040600D01*
X0051060Y0040614D02*
X0049572Y0040614D01*
X0049572Y0040628D02*
X0051060Y0040628D01*
X0051060Y0040642D02*
X0049572Y0040642D01*
X0049572Y0040656D02*
X0051060Y0040656D01*
X0051060Y0040670D02*
X0049572Y0040670D01*
X0049572Y0040684D02*
X0051060Y0040684D01*
X0051060Y0040698D02*
X0049572Y0040698D01*
X0049572Y0040712D02*
X0051060Y0040712D01*
X0051060Y0040726D02*
X0049572Y0040726D01*
X0049572Y0040740D02*
X0051060Y0040740D01*
X0051060Y0040754D02*
X0049572Y0040754D01*
X0049572Y0040768D02*
X0051060Y0040768D01*
X0051060Y0040782D02*
X0049572Y0040782D01*
X0049572Y0040796D02*
X0051060Y0040796D01*
X0051060Y0040810D02*
X0049572Y0040810D01*
X0049572Y0040824D02*
X0051060Y0040824D01*
X0051060Y0040838D02*
X0049572Y0040838D01*
X0049572Y0040852D02*
X0051060Y0040852D01*
X0051060Y0040866D02*
X0049572Y0040866D01*
X0049572Y0040880D02*
X0051060Y0040880D01*
X0051060Y0040894D02*
X0049572Y0040894D01*
X0049572Y0040908D02*
X0051060Y0040908D01*
X0051060Y0040922D02*
X0049572Y0040922D01*
X0049572Y0040936D02*
X0051060Y0040936D01*
X0051060Y0040950D02*
X0049572Y0040950D01*
X0049572Y0040964D02*
X0051060Y0040964D01*
X0051060Y0040978D02*
X0049572Y0040978D01*
X0049572Y0040992D02*
X0051060Y0040992D01*
X0051060Y0041006D02*
X0049572Y0041006D01*
X0049572Y0041020D02*
X0051060Y0041020D01*
X0051060Y0041034D02*
X0049572Y0041034D01*
X0049572Y0041048D02*
X0051060Y0041048D01*
X0051060Y0041062D02*
X0049572Y0041062D01*
X0049572Y0041076D02*
X0051060Y0041076D01*
X0051060Y0041090D02*
X0049572Y0041090D01*
X0049572Y0041104D02*
X0051060Y0041104D01*
X0051060Y0041118D02*
X0049572Y0041118D01*
X0049572Y0041132D02*
X0051060Y0041132D01*
X0051060Y0041146D02*
X0049572Y0041146D01*
X0049572Y0041160D02*
X0051060Y0041160D01*
X0051060Y0041174D02*
X0049572Y0041174D01*
X0049572Y0041188D02*
X0051060Y0041188D01*
X0051060Y0041202D02*
X0049572Y0041202D01*
X0049572Y0041216D02*
X0051060Y0041216D01*
X0051060Y0041230D02*
X0049572Y0041230D01*
X0049572Y0041244D02*
X0051060Y0041244D01*
X0051060Y0041258D02*
X0049572Y0041258D01*
X0049572Y0041272D02*
X0051060Y0041272D01*
X0051060Y0041286D02*
X0049572Y0041286D01*
X0049572Y0041300D02*
X0051060Y0041300D01*
X0051060Y0041314D02*
X0049572Y0041314D01*
X0049572Y0041328D02*
X0051060Y0041328D01*
X0051060Y0041342D02*
X0049572Y0041342D01*
X0049572Y0041356D02*
X0051060Y0041356D01*
X0051060Y0041370D02*
X0049572Y0041370D01*
X0049572Y0041384D02*
X0051060Y0041384D01*
X0051060Y0041398D02*
X0049572Y0041398D01*
X0049572Y0041412D02*
X0051060Y0041412D01*
X0051060Y0041426D02*
X0049572Y0041426D01*
X0049572Y0041440D02*
X0051060Y0041440D01*
X0051060Y0041454D02*
X0049572Y0041454D01*
X0049572Y0041468D02*
X0051060Y0041468D01*
X0051060Y0041482D02*
X0049572Y0041482D01*
X0049572Y0041496D02*
X0051060Y0041496D01*
X0051060Y0041510D02*
X0049572Y0041510D01*
X0049572Y0041524D02*
X0051060Y0041524D01*
X0051060Y0041538D02*
X0049572Y0041538D01*
X0049572Y0041552D02*
X0051060Y0041552D01*
X0051060Y0041566D02*
X0049572Y0041566D01*
X0049572Y0041580D02*
X0051060Y0041580D01*
X0051060Y0041594D02*
X0049572Y0041594D01*
X0049572Y0041608D02*
X0051060Y0041608D01*
X0051060Y0041622D02*
X0049572Y0041622D01*
X0049572Y0041636D02*
X0051060Y0041636D01*
X0051060Y0041650D02*
X0049572Y0041650D01*
X0049572Y0041664D02*
X0051060Y0041664D01*
X0051060Y0041678D02*
X0049572Y0041678D01*
X0049572Y0041692D02*
X0051060Y0041692D01*
X0051060Y0041706D02*
X0049572Y0041706D01*
X0049572Y0041720D02*
X0051060Y0041720D01*
X0051060Y0041734D02*
X0049572Y0041734D01*
X0049572Y0041748D02*
X0051060Y0041748D01*
X0051060Y0041762D02*
X0049572Y0041762D01*
X0049572Y0041776D02*
X0051060Y0041776D01*
X0051060Y0041790D02*
X0049572Y0041790D01*
X0049572Y0041804D02*
X0051060Y0041804D01*
X0051060Y0041818D02*
X0049572Y0041818D01*
X0049572Y0041832D02*
X0051060Y0041832D01*
X0051060Y0041846D02*
X0049572Y0041846D01*
X0049572Y0041860D02*
X0051060Y0041860D01*
X0051060Y0041874D02*
X0049572Y0041874D01*
X0049572Y0041888D02*
X0051060Y0041888D01*
X0051060Y0041902D02*
X0049572Y0041902D01*
X0049572Y0041916D02*
X0051060Y0041916D01*
X0051060Y0041930D02*
X0049572Y0041930D01*
X0049572Y0041944D02*
X0051060Y0041944D01*
X0051060Y0041958D02*
X0049572Y0041958D01*
X0049572Y0041972D02*
X0051060Y0041972D01*
X0051060Y0041986D02*
X0049572Y0041986D01*
X0049572Y0042000D02*
X0051060Y0042000D01*
X0051060Y0042014D02*
X0049572Y0042014D01*
X0049572Y0042028D02*
X0051060Y0042028D01*
X0051060Y0042042D02*
X0049572Y0042042D01*
X0049572Y0042056D02*
X0051060Y0042056D01*
X0051060Y0042070D02*
X0049572Y0042070D01*
X0049572Y0042084D02*
X0051060Y0042084D01*
X0051060Y0042098D02*
X0049572Y0042098D01*
X0049572Y0042112D02*
X0051060Y0042112D01*
X0051060Y0042126D02*
X0049572Y0042126D01*
X0049572Y0042140D02*
X0051060Y0042140D01*
X0051060Y0042154D02*
X0049572Y0042154D01*
X0049572Y0042168D02*
X0051060Y0042168D01*
X0051060Y0042182D02*
X0049572Y0042182D01*
X0049572Y0042196D02*
X0051060Y0042196D01*
X0051060Y0042210D02*
X0049572Y0042210D01*
X0049572Y0042224D02*
X0051060Y0042224D01*
X0051060Y0042238D02*
X0049572Y0042238D01*
X0049572Y0042252D02*
X0051060Y0042252D01*
X0051060Y0042266D02*
X0049572Y0042266D01*
X0049572Y0042280D02*
X0051060Y0042280D01*
X0051060Y0042294D02*
X0049572Y0042294D01*
X0049572Y0042308D02*
X0051060Y0042308D01*
X0051060Y0042322D02*
X0049572Y0042322D01*
X0049572Y0042336D02*
X0051060Y0042336D01*
X0051060Y0042350D02*
X0049572Y0042350D01*
X0049572Y0042364D02*
X0051060Y0042364D01*
X0051060Y0042378D02*
X0049572Y0042378D01*
X0049572Y0042392D02*
X0051060Y0042392D01*
X0051060Y0042406D02*
X0049572Y0042406D01*
X0049572Y0042420D02*
X0051060Y0042420D01*
X0051060Y0042434D02*
X0049572Y0042434D01*
X0049572Y0042448D02*
X0051060Y0042448D01*
X0051060Y0042462D02*
X0049572Y0042462D01*
X0049572Y0042476D02*
X0051060Y0042476D01*
X0051060Y0042490D02*
X0049572Y0042490D01*
X0049572Y0042504D02*
X0051060Y0042504D01*
X0051060Y0042518D02*
X0049572Y0042518D01*
X0049572Y0042532D02*
X0051060Y0042532D01*
X0051060Y0042546D02*
X0049572Y0042546D01*
X0049572Y0042560D02*
X0051060Y0042560D01*
X0051060Y0042574D02*
X0049572Y0042574D01*
X0049572Y0042588D02*
X0051060Y0042588D01*
X0051060Y0042602D02*
X0049572Y0042602D01*
X0049572Y0042616D02*
X0051060Y0042616D01*
X0051060Y0042630D02*
X0049572Y0042630D01*
X0049572Y0042644D02*
X0051060Y0042644D01*
X0051060Y0042658D02*
X0049572Y0042658D01*
X0049572Y0042672D02*
X0051060Y0042672D01*
X0051060Y0042686D02*
X0049572Y0042686D01*
X0049572Y0042700D02*
X0051060Y0042700D01*
X0051060Y0042714D02*
X0049572Y0042714D01*
X0049572Y0042728D02*
X0051060Y0042728D01*
X0051060Y0042742D02*
X0049572Y0042742D01*
D17*
X0051301Y0037144D03*
X0054253Y0035175D03*
X0051301Y0033206D03*
X0057206Y0033206D03*
X0057206Y0037144D03*
D18*
X0048903Y0017675D03*
X0039603Y0017675D03*
D19*
X0059553Y0016153D03*
X0059553Y0010247D03*
X0094826Y0052850D03*
X0100731Y0052850D03*
X0137478Y0119297D03*
X0142978Y0119197D03*
X0142978Y0125103D03*
X0137478Y0125203D03*
D20*
X0142878Y0033350D03*
X0144778Y0033350D03*
X0146778Y0033350D03*
X0148778Y0033350D03*
X0150778Y0033350D03*
X0152678Y0033350D03*
X0152678Y0025350D03*
X0150778Y0025350D03*
X0148778Y0025350D03*
X0146778Y0025350D03*
X0144778Y0025350D03*
X0142878Y0025350D03*
X0112578Y0025350D03*
X0110678Y0025350D03*
X0108678Y0025350D03*
X0106678Y0025350D03*
X0104678Y0025350D03*
X0102778Y0025350D03*
X0102778Y0033350D03*
X0104678Y0033350D03*
X0106678Y0033350D03*
X0108678Y0033350D03*
X0110678Y0033350D03*
X0112578Y0033350D03*
X0182778Y0033550D03*
X0184678Y0033550D03*
X0186678Y0033550D03*
X0188678Y0033550D03*
X0190678Y0033550D03*
X0192578Y0033550D03*
X0192578Y0025550D03*
X0190678Y0025550D03*
X0188678Y0025550D03*
X0186678Y0025550D03*
X0184678Y0025550D03*
X0182778Y0025550D03*
X0222878Y0025450D03*
X0224778Y0025450D03*
X0226778Y0025450D03*
X0228778Y0025450D03*
X0230778Y0025450D03*
X0232678Y0025450D03*
X0232678Y0033450D03*
X0230778Y0033450D03*
X0228778Y0033450D03*
X0226778Y0033450D03*
X0224778Y0033450D03*
X0222878Y0033450D03*
D21*
X0227778Y0029450D03*
X0187678Y0029550D03*
X0147778Y0029350D03*
X0107678Y0029350D03*
D22*
X0108978Y0017450D02*
X0108978Y0011450D01*
X0118978Y0011450D02*
X0118978Y0017450D01*
X0128978Y0017450D02*
X0128978Y0011450D01*
X0138978Y0011450D02*
X0138978Y0017450D01*
X0148978Y0017450D02*
X0148978Y0011450D01*
X0158978Y0011450D02*
X0158978Y0017450D01*
X0168978Y0017550D02*
X0168978Y0011550D01*
X0178978Y0011550D02*
X0178978Y0017550D01*
X0188978Y0017550D02*
X0188978Y0011550D01*
X0198978Y0011550D02*
X0198978Y0017550D01*
X0208978Y0017550D02*
X0208978Y0011550D01*
X0218978Y0011550D02*
X0218978Y0017550D01*
X0228978Y0017550D02*
X0228978Y0011550D01*
X0238978Y0011550D02*
X0238978Y0017550D01*
X0274478Y0036250D02*
X0280478Y0036250D01*
X0280478Y0046250D02*
X0274478Y0046250D01*
X0274478Y0056250D02*
X0280478Y0056250D01*
X0280478Y0066250D02*
X0274478Y0066250D01*
X0232478Y0083050D02*
X0226478Y0083050D01*
X0226478Y0093050D02*
X0232478Y0093050D01*
X0232478Y0103050D02*
X0226478Y0103050D01*
X0226478Y0113050D02*
X0232478Y0113050D01*
X0274478Y0136250D02*
X0280478Y0136250D01*
X0280478Y0146250D02*
X0274478Y0146250D01*
X0274478Y0156250D02*
X0280478Y0156250D01*
X0262078Y0158050D02*
X0262078Y0164050D01*
X0252078Y0164050D02*
X0252078Y0158050D01*
X0242078Y0158050D02*
X0242078Y0164050D01*
X0232078Y0164050D02*
X0232078Y0158050D01*
X0222078Y0158050D02*
X0222078Y0164050D01*
X0212078Y0164050D02*
X0212078Y0158050D01*
X0202078Y0158050D02*
X0202078Y0164050D01*
X0192078Y0164050D02*
X0192078Y0158050D01*
X0182078Y0158050D02*
X0182078Y0164050D01*
X0172078Y0164050D02*
X0172078Y0158050D01*
X0162078Y0158050D02*
X0162078Y0164050D01*
X0151978Y0164050D02*
X0151978Y0158050D01*
X0141978Y0158050D02*
X0141978Y0164050D01*
X0131978Y0164050D02*
X0131978Y0158050D01*
X0121978Y0158050D02*
X0121978Y0164050D01*
X0111978Y0164050D02*
X0111978Y0158050D01*
X0101978Y0158050D02*
X0101978Y0164050D01*
X0091978Y0164050D02*
X0091978Y0158050D01*
X0081978Y0158050D02*
X0081978Y0164050D01*
X0162678Y0145250D02*
X0168678Y0145250D01*
X0168678Y0135250D02*
X0162678Y0135250D01*
X0213978Y0062750D02*
X0219978Y0062750D01*
X0219978Y0052750D02*
X0213978Y0052750D01*
X0098978Y0017450D02*
X0098978Y0011450D01*
X0088978Y0011450D02*
X0088978Y0017450D01*
D23*
X0037731Y0136644D03*
X0035763Y0136644D03*
X0033794Y0136644D03*
X0031826Y0136644D03*
X0031826Y0148456D03*
X0033794Y0148456D03*
X0035763Y0148456D03*
X0037731Y0148456D03*
D24*
X0040684Y0145503D03*
X0040684Y0143534D03*
X0040684Y0141566D03*
X0040684Y0139597D03*
X0028873Y0139597D03*
X0028873Y0141566D03*
X0028873Y0143534D03*
X0028873Y0145503D03*
D25*
X0060203Y0088271D03*
X0060203Y0086303D03*
X0060203Y0084334D03*
X0060203Y0082366D03*
X0060203Y0080397D03*
X0060203Y0078429D03*
X0075754Y0078429D03*
X0075754Y0080397D03*
X0075754Y0082366D03*
X0075754Y0084334D03*
X0075754Y0086303D03*
X0075754Y0088271D03*
D26*
X0072900Y0091224D03*
X0070931Y0091224D03*
X0068963Y0091224D03*
X0066994Y0091224D03*
X0065026Y0091224D03*
X0063057Y0091224D03*
X0063057Y0075476D03*
X0065026Y0075476D03*
X0066994Y0075476D03*
X0068963Y0075476D03*
X0070931Y0075476D03*
X0072900Y0075476D03*
D27*
X0067978Y0083350D03*
D28*
X0140170Y0083150D03*
X0140170Y0081181D03*
X0140170Y0079213D03*
X0140170Y0077244D03*
X0140170Y0075276D03*
X0140170Y0073307D03*
X0140170Y0071339D03*
X0140170Y0069370D03*
X0140170Y0067402D03*
X0140170Y0065433D03*
X0140170Y0063465D03*
X0140170Y0061496D03*
X0140170Y0059528D03*
X0140170Y0085119D03*
X0140170Y0087087D03*
X0140170Y0089056D03*
X0140170Y0091024D03*
X0140170Y0092993D03*
X0140170Y0094961D03*
X0140170Y0096930D03*
X0140170Y0098898D03*
X0140170Y0100867D03*
X0140170Y0102835D03*
X0140170Y0104804D03*
X0140170Y0106772D03*
X0201587Y0106772D03*
X0201587Y0104804D03*
X0201587Y0102835D03*
X0201587Y0100867D03*
X0201587Y0098898D03*
X0201587Y0096930D03*
X0201587Y0094961D03*
X0201587Y0092993D03*
X0201587Y0091024D03*
X0201587Y0089056D03*
X0201587Y0087087D03*
X0201587Y0085119D03*
X0201587Y0083150D03*
X0201587Y0081181D03*
X0201587Y0079213D03*
X0201587Y0077244D03*
X0201587Y0075276D03*
X0201587Y0073307D03*
X0201587Y0071339D03*
X0201587Y0069370D03*
X0201587Y0067402D03*
X0201587Y0065433D03*
X0201587Y0063465D03*
X0201587Y0061496D03*
X0201587Y0059528D03*
D29*
X0194500Y0052441D03*
X0192532Y0052441D03*
X0190563Y0052441D03*
X0188595Y0052441D03*
X0186626Y0052441D03*
X0184658Y0052441D03*
X0182689Y0052441D03*
X0180721Y0052441D03*
X0178752Y0052441D03*
X0176784Y0052441D03*
X0174815Y0052441D03*
X0172847Y0052441D03*
X0170878Y0052441D03*
X0168910Y0052441D03*
X0166941Y0052441D03*
X0164973Y0052441D03*
X0163004Y0052441D03*
X0161036Y0052441D03*
X0159067Y0052441D03*
X0157099Y0052441D03*
X0155130Y0052441D03*
X0153162Y0052441D03*
X0151193Y0052441D03*
X0149225Y0052441D03*
X0147256Y0052441D03*
X0147256Y0113859D03*
X0149225Y0113859D03*
X0151193Y0113859D03*
X0153162Y0113859D03*
X0155130Y0113859D03*
X0157099Y0113859D03*
X0159067Y0113859D03*
X0161036Y0113859D03*
X0163004Y0113859D03*
X0164973Y0113859D03*
X0166941Y0113859D03*
X0168910Y0113859D03*
X0170878Y0113859D03*
X0172847Y0113859D03*
X0174815Y0113859D03*
X0176784Y0113859D03*
X0178752Y0113859D03*
X0180721Y0113859D03*
X0182689Y0113859D03*
X0184658Y0113859D03*
X0186626Y0113859D03*
X0188595Y0113859D03*
X0190563Y0113859D03*
X0192532Y0113859D03*
X0194500Y0113859D03*
D30*
X0127837Y0088850D03*
X0122719Y0088850D03*
X0122319Y0097050D03*
X0127437Y0097050D03*
X0127437Y0102050D03*
X0122319Y0102050D03*
X0122719Y0075250D03*
X0127837Y0075250D03*
D31*
X0128619Y0080300D03*
X0128619Y0084000D03*
D32*
X0106060Y0082150D03*
D33*
X0242578Y0079450D03*
X0247578Y0079450D03*
X0252578Y0079450D03*
X0257578Y0079450D03*
X0257578Y0111300D03*
X0252578Y0111300D03*
X0247578Y0111300D03*
X0242578Y0111300D03*
D34*
X0029478Y0090250D03*
X0019478Y0090250D03*
X0019478Y0080250D03*
X0029478Y0080250D03*
X0029553Y0070175D03*
X0019553Y0070175D03*
X0019553Y0060175D03*
X0029553Y0060175D03*
X0029553Y0050175D03*
X0019553Y0050175D03*
X0019553Y0040175D03*
X0029553Y0040175D03*
X0029553Y0030175D03*
X0019553Y0030175D03*
X0019553Y0020175D03*
X0029553Y0020175D03*
X0029553Y0010175D03*
X0019553Y0010175D03*
D35*
X0049243Y0104211D03*
X0049243Y0106770D03*
X0049243Y0109330D03*
X0049243Y0111889D03*
X0057314Y0111889D03*
X0057314Y0109330D03*
X0057314Y0106770D03*
X0057314Y0104211D03*
M02*
