G75*
%MOIN*%
%OFA0B0*%
%FSLAX25Y25*%
%IPPOS*%
%LPD*%
%AMOC8*
5,1,8,0,0,1.08239X$1,22.5*
%
%ADD10C,0.00000*%
%ADD11C,0.00300*%
%ADD12R,0.03400X0.00100*%
%ADD13R,0.04800X0.00100*%
%ADD14R,0.05900X0.00100*%
%ADD15R,0.06800X0.00100*%
%ADD16R,0.07600X0.00100*%
%ADD17R,0.00100X0.00100*%
%ADD18R,0.00900X0.00100*%
%ADD19R,0.03200X0.00100*%
%ADD20R,0.03000X0.00100*%
%ADD21R,0.00400X0.00100*%
%ADD22R,0.00700X0.00100*%
%ADD23R,0.00500X0.00100*%
%ADD24R,0.02700X0.00100*%
%ADD25R,0.02300X0.00100*%
%ADD26R,0.00200X0.00100*%
%ADD27R,0.00600X0.00100*%
%ADD28R,0.02400X0.00100*%
%ADD29R,0.02200X0.00100*%
%ADD30R,0.02600X0.00100*%
%ADD31R,0.00300X0.00100*%
%ADD32R,0.01900X0.00100*%
%ADD33R,0.01800X0.00100*%
%ADD34R,0.00800X0.00100*%
%ADD35R,0.02000X0.00100*%
%ADD36R,0.01500X0.00100*%
%ADD37R,0.01600X0.00100*%
%ADD38R,0.01400X0.00100*%
%ADD39R,0.01100X0.00100*%
%ADD40R,0.01700X0.00100*%
%ADD41R,0.01300X0.00100*%
%ADD42R,0.01200X0.00100*%
%ADD43R,0.03700X0.00100*%
%ADD44R,0.05500X0.00100*%
%ADD45R,0.01000X0.00100*%
%ADD46R,0.08000X0.00100*%
%ADD47R,0.02100X0.00100*%
%ADD48R,0.02900X0.00100*%
%ADD49R,0.04200X0.00100*%
%ADD50R,0.05200X0.00100*%
%ADD51R,0.06000X0.00100*%
%ADD52R,0.06700X0.00100*%
%ADD53R,0.07400X0.00100*%
%ADD54R,0.08500X0.00100*%
%ADD55R,0.09000X0.00100*%
%ADD56R,0.09500X0.00100*%
%ADD57R,0.09900X0.00100*%
%ADD58R,0.10300X0.00100*%
%ADD59R,0.10700X0.00100*%
%ADD60R,0.11100X0.00100*%
%ADD61R,0.11500X0.00100*%
%ADD62R,0.11800X0.00100*%
%ADD63R,0.12200X0.00100*%
%ADD64R,0.12500X0.00100*%
%ADD65R,0.04100X0.00100*%
%ADD66R,0.08600X0.00100*%
%ADD67R,0.04500X0.00100*%
%ADD68R,0.04400X0.00100*%
%ADD69R,0.04600X0.00100*%
%ADD70R,0.04900X0.00100*%
%ADD71R,0.05100X0.00100*%
%ADD72R,0.05000X0.00100*%
%ADD73R,0.03500X0.00100*%
%ADD74R,0.05400X0.00100*%
%ADD75R,0.05600X0.00100*%
%ADD76R,0.05800X0.00100*%
%ADD77R,0.02800X0.00100*%
%ADD78R,0.06100X0.00100*%
%ADD79R,0.03300X0.00100*%
%ADD80R,0.06300X0.00100*%
%ADD81R,0.06400X0.00100*%
%ADD82R,0.06600X0.00100*%
%ADD83R,0.06900X0.00100*%
%ADD84R,0.07100X0.00100*%
%ADD85R,0.03100X0.00100*%
%ADD86R,0.07200X0.00100*%
%ADD87R,0.02500X0.00100*%
%ADD88R,0.07700X0.00100*%
%ADD89R,0.07900X0.00100*%
%ADD90R,0.08100X0.00100*%
%ADD91R,0.08200X0.00100*%
%ADD92R,0.08300X0.00100*%
%ADD93R,0.08400X0.00100*%
%ADD94R,0.08800X0.00100*%
%ADD95R,0.09200X0.00100*%
%ADD96R,0.09300X0.00100*%
%ADD97R,0.09400X0.00100*%
%ADD98R,0.09600X0.00100*%
%ADD99R,0.11300X0.00100*%
%ADD100R,0.11400X0.00100*%
%ADD101R,0.10500X0.00100*%
%ADD102R,0.10100X0.00100*%
%ADD103R,0.10200X0.00100*%
%ADD104R,0.06500X0.00100*%
%ADD105R,0.06200X0.00100*%
%ADD106R,0.04700X0.00100*%
%ADD107R,0.03900X0.00100*%
%ADD108R,0.03600X0.00100*%
%ADD109R,0.04000X0.00100*%
%ADD110R,0.04300X0.00100*%
%ADD111R,0.05300X0.00100*%
%ADD112R,0.07000X0.00100*%
%ADD113R,0.05700X0.00100*%
%ADD114R,0.03800X0.00100*%
%ADD115C,0.00500*%
%ADD116R,0.00984X0.00984*%
%ADD117C,0.00600*%
%ADD118C,0.00394*%
%ADD119C,0.00400*%
%ADD120C,0.00200*%
%ADD121C,0.00197*%
%ADD122C,0.00079*%
%ADD123C,0.00100*%
D10*
X0009878Y0004550D02*
X0009878Y0169550D01*
X0307378Y0169550D01*
X0307378Y0004550D01*
X0009878Y0004550D01*
X0050710Y0033206D02*
X0050712Y0033254D01*
X0050718Y0033302D01*
X0050728Y0033349D01*
X0050741Y0033395D01*
X0050759Y0033440D01*
X0050779Y0033484D01*
X0050804Y0033526D01*
X0050832Y0033565D01*
X0050862Y0033602D01*
X0050896Y0033636D01*
X0050933Y0033668D01*
X0050971Y0033697D01*
X0051012Y0033722D01*
X0051055Y0033744D01*
X0051100Y0033762D01*
X0051146Y0033776D01*
X0051193Y0033787D01*
X0051241Y0033794D01*
X0051289Y0033797D01*
X0051337Y0033796D01*
X0051385Y0033791D01*
X0051433Y0033782D01*
X0051479Y0033770D01*
X0051524Y0033753D01*
X0051568Y0033733D01*
X0051610Y0033710D01*
X0051650Y0033683D01*
X0051688Y0033653D01*
X0051723Y0033620D01*
X0051755Y0033584D01*
X0051785Y0033546D01*
X0051811Y0033505D01*
X0051833Y0033462D01*
X0051853Y0033418D01*
X0051868Y0033373D01*
X0051880Y0033326D01*
X0051888Y0033278D01*
X0051892Y0033230D01*
X0051892Y0033182D01*
X0051888Y0033134D01*
X0051880Y0033086D01*
X0051868Y0033039D01*
X0051853Y0032994D01*
X0051833Y0032950D01*
X0051811Y0032907D01*
X0051785Y0032866D01*
X0051755Y0032828D01*
X0051723Y0032792D01*
X0051688Y0032759D01*
X0051650Y0032729D01*
X0051610Y0032702D01*
X0051568Y0032679D01*
X0051524Y0032659D01*
X0051479Y0032642D01*
X0051433Y0032630D01*
X0051385Y0032621D01*
X0051337Y0032616D01*
X0051289Y0032615D01*
X0051241Y0032618D01*
X0051193Y0032625D01*
X0051146Y0032636D01*
X0051100Y0032650D01*
X0051055Y0032668D01*
X0051012Y0032690D01*
X0050971Y0032715D01*
X0050933Y0032744D01*
X0050896Y0032776D01*
X0050862Y0032810D01*
X0050832Y0032847D01*
X0050804Y0032886D01*
X0050779Y0032928D01*
X0050759Y0032972D01*
X0050741Y0033017D01*
X0050728Y0033063D01*
X0050718Y0033110D01*
X0050712Y0033158D01*
X0050710Y0033206D01*
X0053662Y0035175D02*
X0053664Y0035223D01*
X0053670Y0035271D01*
X0053680Y0035318D01*
X0053693Y0035364D01*
X0053711Y0035409D01*
X0053731Y0035453D01*
X0053756Y0035495D01*
X0053784Y0035534D01*
X0053814Y0035571D01*
X0053848Y0035605D01*
X0053885Y0035637D01*
X0053923Y0035666D01*
X0053964Y0035691D01*
X0054007Y0035713D01*
X0054052Y0035731D01*
X0054098Y0035745D01*
X0054145Y0035756D01*
X0054193Y0035763D01*
X0054241Y0035766D01*
X0054289Y0035765D01*
X0054337Y0035760D01*
X0054385Y0035751D01*
X0054431Y0035739D01*
X0054476Y0035722D01*
X0054520Y0035702D01*
X0054562Y0035679D01*
X0054602Y0035652D01*
X0054640Y0035622D01*
X0054675Y0035589D01*
X0054707Y0035553D01*
X0054737Y0035515D01*
X0054763Y0035474D01*
X0054785Y0035431D01*
X0054805Y0035387D01*
X0054820Y0035342D01*
X0054832Y0035295D01*
X0054840Y0035247D01*
X0054844Y0035199D01*
X0054844Y0035151D01*
X0054840Y0035103D01*
X0054832Y0035055D01*
X0054820Y0035008D01*
X0054805Y0034963D01*
X0054785Y0034919D01*
X0054763Y0034876D01*
X0054737Y0034835D01*
X0054707Y0034797D01*
X0054675Y0034761D01*
X0054640Y0034728D01*
X0054602Y0034698D01*
X0054562Y0034671D01*
X0054520Y0034648D01*
X0054476Y0034628D01*
X0054431Y0034611D01*
X0054385Y0034599D01*
X0054337Y0034590D01*
X0054289Y0034585D01*
X0054241Y0034584D01*
X0054193Y0034587D01*
X0054145Y0034594D01*
X0054098Y0034605D01*
X0054052Y0034619D01*
X0054007Y0034637D01*
X0053964Y0034659D01*
X0053923Y0034684D01*
X0053885Y0034713D01*
X0053848Y0034745D01*
X0053814Y0034779D01*
X0053784Y0034816D01*
X0053756Y0034855D01*
X0053731Y0034897D01*
X0053711Y0034941D01*
X0053693Y0034986D01*
X0053680Y0035032D01*
X0053670Y0035079D01*
X0053664Y0035127D01*
X0053662Y0035175D01*
X0050710Y0037144D02*
X0050712Y0037192D01*
X0050718Y0037240D01*
X0050728Y0037287D01*
X0050741Y0037333D01*
X0050759Y0037378D01*
X0050779Y0037422D01*
X0050804Y0037464D01*
X0050832Y0037503D01*
X0050862Y0037540D01*
X0050896Y0037574D01*
X0050933Y0037606D01*
X0050971Y0037635D01*
X0051012Y0037660D01*
X0051055Y0037682D01*
X0051100Y0037700D01*
X0051146Y0037714D01*
X0051193Y0037725D01*
X0051241Y0037732D01*
X0051289Y0037735D01*
X0051337Y0037734D01*
X0051385Y0037729D01*
X0051433Y0037720D01*
X0051479Y0037708D01*
X0051524Y0037691D01*
X0051568Y0037671D01*
X0051610Y0037648D01*
X0051650Y0037621D01*
X0051688Y0037591D01*
X0051723Y0037558D01*
X0051755Y0037522D01*
X0051785Y0037484D01*
X0051811Y0037443D01*
X0051833Y0037400D01*
X0051853Y0037356D01*
X0051868Y0037311D01*
X0051880Y0037264D01*
X0051888Y0037216D01*
X0051892Y0037168D01*
X0051892Y0037120D01*
X0051888Y0037072D01*
X0051880Y0037024D01*
X0051868Y0036977D01*
X0051853Y0036932D01*
X0051833Y0036888D01*
X0051811Y0036845D01*
X0051785Y0036804D01*
X0051755Y0036766D01*
X0051723Y0036730D01*
X0051688Y0036697D01*
X0051650Y0036667D01*
X0051610Y0036640D01*
X0051568Y0036617D01*
X0051524Y0036597D01*
X0051479Y0036580D01*
X0051433Y0036568D01*
X0051385Y0036559D01*
X0051337Y0036554D01*
X0051289Y0036553D01*
X0051241Y0036556D01*
X0051193Y0036563D01*
X0051146Y0036574D01*
X0051100Y0036588D01*
X0051055Y0036606D01*
X0051012Y0036628D01*
X0050971Y0036653D01*
X0050933Y0036682D01*
X0050896Y0036714D01*
X0050862Y0036748D01*
X0050832Y0036785D01*
X0050804Y0036824D01*
X0050779Y0036866D01*
X0050759Y0036910D01*
X0050741Y0036955D01*
X0050728Y0037001D01*
X0050718Y0037048D01*
X0050712Y0037096D01*
X0050710Y0037144D01*
X0056615Y0037144D02*
X0056617Y0037192D01*
X0056623Y0037240D01*
X0056633Y0037287D01*
X0056646Y0037333D01*
X0056664Y0037378D01*
X0056684Y0037422D01*
X0056709Y0037464D01*
X0056737Y0037503D01*
X0056767Y0037540D01*
X0056801Y0037574D01*
X0056838Y0037606D01*
X0056876Y0037635D01*
X0056917Y0037660D01*
X0056960Y0037682D01*
X0057005Y0037700D01*
X0057051Y0037714D01*
X0057098Y0037725D01*
X0057146Y0037732D01*
X0057194Y0037735D01*
X0057242Y0037734D01*
X0057290Y0037729D01*
X0057338Y0037720D01*
X0057384Y0037708D01*
X0057429Y0037691D01*
X0057473Y0037671D01*
X0057515Y0037648D01*
X0057555Y0037621D01*
X0057593Y0037591D01*
X0057628Y0037558D01*
X0057660Y0037522D01*
X0057690Y0037484D01*
X0057716Y0037443D01*
X0057738Y0037400D01*
X0057758Y0037356D01*
X0057773Y0037311D01*
X0057785Y0037264D01*
X0057793Y0037216D01*
X0057797Y0037168D01*
X0057797Y0037120D01*
X0057793Y0037072D01*
X0057785Y0037024D01*
X0057773Y0036977D01*
X0057758Y0036932D01*
X0057738Y0036888D01*
X0057716Y0036845D01*
X0057690Y0036804D01*
X0057660Y0036766D01*
X0057628Y0036730D01*
X0057593Y0036697D01*
X0057555Y0036667D01*
X0057515Y0036640D01*
X0057473Y0036617D01*
X0057429Y0036597D01*
X0057384Y0036580D01*
X0057338Y0036568D01*
X0057290Y0036559D01*
X0057242Y0036554D01*
X0057194Y0036553D01*
X0057146Y0036556D01*
X0057098Y0036563D01*
X0057051Y0036574D01*
X0057005Y0036588D01*
X0056960Y0036606D01*
X0056917Y0036628D01*
X0056876Y0036653D01*
X0056838Y0036682D01*
X0056801Y0036714D01*
X0056767Y0036748D01*
X0056737Y0036785D01*
X0056709Y0036824D01*
X0056684Y0036866D01*
X0056664Y0036910D01*
X0056646Y0036955D01*
X0056633Y0037001D01*
X0056623Y0037048D01*
X0056617Y0037096D01*
X0056615Y0037144D01*
X0056615Y0033206D02*
X0056617Y0033254D01*
X0056623Y0033302D01*
X0056633Y0033349D01*
X0056646Y0033395D01*
X0056664Y0033440D01*
X0056684Y0033484D01*
X0056709Y0033526D01*
X0056737Y0033565D01*
X0056767Y0033602D01*
X0056801Y0033636D01*
X0056838Y0033668D01*
X0056876Y0033697D01*
X0056917Y0033722D01*
X0056960Y0033744D01*
X0057005Y0033762D01*
X0057051Y0033776D01*
X0057098Y0033787D01*
X0057146Y0033794D01*
X0057194Y0033797D01*
X0057242Y0033796D01*
X0057290Y0033791D01*
X0057338Y0033782D01*
X0057384Y0033770D01*
X0057429Y0033753D01*
X0057473Y0033733D01*
X0057515Y0033710D01*
X0057555Y0033683D01*
X0057593Y0033653D01*
X0057628Y0033620D01*
X0057660Y0033584D01*
X0057690Y0033546D01*
X0057716Y0033505D01*
X0057738Y0033462D01*
X0057758Y0033418D01*
X0057773Y0033373D01*
X0057785Y0033326D01*
X0057793Y0033278D01*
X0057797Y0033230D01*
X0057797Y0033182D01*
X0057793Y0033134D01*
X0057785Y0033086D01*
X0057773Y0033039D01*
X0057758Y0032994D01*
X0057738Y0032950D01*
X0057716Y0032907D01*
X0057690Y0032866D01*
X0057660Y0032828D01*
X0057628Y0032792D01*
X0057593Y0032759D01*
X0057555Y0032729D01*
X0057515Y0032702D01*
X0057473Y0032679D01*
X0057429Y0032659D01*
X0057384Y0032642D01*
X0057338Y0032630D01*
X0057290Y0032621D01*
X0057242Y0032616D01*
X0057194Y0032615D01*
X0057146Y0032618D01*
X0057098Y0032625D01*
X0057051Y0032636D01*
X0057005Y0032650D01*
X0056960Y0032668D01*
X0056917Y0032690D01*
X0056876Y0032715D01*
X0056838Y0032744D01*
X0056801Y0032776D01*
X0056767Y0032810D01*
X0056737Y0032847D01*
X0056709Y0032886D01*
X0056684Y0032928D01*
X0056664Y0032972D01*
X0056646Y0033017D01*
X0056633Y0033063D01*
X0056623Y0033110D01*
X0056617Y0033158D01*
X0056615Y0033206D01*
X0053972Y0142050D02*
X0053974Y0142203D01*
X0053980Y0142357D01*
X0053990Y0142510D01*
X0054004Y0142662D01*
X0054022Y0142815D01*
X0054044Y0142966D01*
X0054069Y0143117D01*
X0054099Y0143268D01*
X0054133Y0143418D01*
X0054170Y0143566D01*
X0054211Y0143714D01*
X0054256Y0143860D01*
X0054305Y0144006D01*
X0054358Y0144150D01*
X0054414Y0144292D01*
X0054474Y0144433D01*
X0054538Y0144573D01*
X0054605Y0144711D01*
X0054676Y0144847D01*
X0054751Y0144981D01*
X0054828Y0145113D01*
X0054910Y0145243D01*
X0054994Y0145371D01*
X0055082Y0145497D01*
X0055173Y0145620D01*
X0055267Y0145741D01*
X0055365Y0145859D01*
X0055465Y0145975D01*
X0055569Y0146088D01*
X0055675Y0146199D01*
X0055784Y0146307D01*
X0055896Y0146412D01*
X0056010Y0146513D01*
X0056128Y0146612D01*
X0056247Y0146708D01*
X0056369Y0146801D01*
X0056494Y0146890D01*
X0056621Y0146977D01*
X0056750Y0147059D01*
X0056881Y0147139D01*
X0057014Y0147215D01*
X0057149Y0147288D01*
X0057286Y0147357D01*
X0057425Y0147422D01*
X0057565Y0147484D01*
X0057707Y0147542D01*
X0057850Y0147597D01*
X0057995Y0147648D01*
X0058141Y0147695D01*
X0058288Y0147738D01*
X0058436Y0147777D01*
X0058585Y0147813D01*
X0058735Y0147844D01*
X0058886Y0147872D01*
X0059037Y0147896D01*
X0059190Y0147916D01*
X0059342Y0147932D01*
X0059495Y0147944D01*
X0059648Y0147952D01*
X0059801Y0147956D01*
X0059955Y0147956D01*
X0060108Y0147952D01*
X0060261Y0147944D01*
X0060414Y0147932D01*
X0060566Y0147916D01*
X0060719Y0147896D01*
X0060870Y0147872D01*
X0061021Y0147844D01*
X0061171Y0147813D01*
X0061320Y0147777D01*
X0061468Y0147738D01*
X0061615Y0147695D01*
X0061761Y0147648D01*
X0061906Y0147597D01*
X0062049Y0147542D01*
X0062191Y0147484D01*
X0062331Y0147422D01*
X0062470Y0147357D01*
X0062607Y0147288D01*
X0062742Y0147215D01*
X0062875Y0147139D01*
X0063006Y0147059D01*
X0063135Y0146977D01*
X0063262Y0146890D01*
X0063387Y0146801D01*
X0063509Y0146708D01*
X0063628Y0146612D01*
X0063746Y0146513D01*
X0063860Y0146412D01*
X0063972Y0146307D01*
X0064081Y0146199D01*
X0064187Y0146088D01*
X0064291Y0145975D01*
X0064391Y0145859D01*
X0064489Y0145741D01*
X0064583Y0145620D01*
X0064674Y0145497D01*
X0064762Y0145371D01*
X0064846Y0145243D01*
X0064928Y0145113D01*
X0065005Y0144981D01*
X0065080Y0144847D01*
X0065151Y0144711D01*
X0065218Y0144573D01*
X0065282Y0144433D01*
X0065342Y0144292D01*
X0065398Y0144150D01*
X0065451Y0144006D01*
X0065500Y0143860D01*
X0065545Y0143714D01*
X0065586Y0143566D01*
X0065623Y0143418D01*
X0065657Y0143268D01*
X0065687Y0143117D01*
X0065712Y0142966D01*
X0065734Y0142815D01*
X0065752Y0142662D01*
X0065766Y0142510D01*
X0065776Y0142357D01*
X0065782Y0142203D01*
X0065784Y0142050D01*
X0065782Y0141897D01*
X0065776Y0141743D01*
X0065766Y0141590D01*
X0065752Y0141438D01*
X0065734Y0141285D01*
X0065712Y0141134D01*
X0065687Y0140983D01*
X0065657Y0140832D01*
X0065623Y0140682D01*
X0065586Y0140534D01*
X0065545Y0140386D01*
X0065500Y0140240D01*
X0065451Y0140094D01*
X0065398Y0139950D01*
X0065342Y0139808D01*
X0065282Y0139667D01*
X0065218Y0139527D01*
X0065151Y0139389D01*
X0065080Y0139253D01*
X0065005Y0139119D01*
X0064928Y0138987D01*
X0064846Y0138857D01*
X0064762Y0138729D01*
X0064674Y0138603D01*
X0064583Y0138480D01*
X0064489Y0138359D01*
X0064391Y0138241D01*
X0064291Y0138125D01*
X0064187Y0138012D01*
X0064081Y0137901D01*
X0063972Y0137793D01*
X0063860Y0137688D01*
X0063746Y0137587D01*
X0063628Y0137488D01*
X0063509Y0137392D01*
X0063387Y0137299D01*
X0063262Y0137210D01*
X0063135Y0137123D01*
X0063006Y0137041D01*
X0062875Y0136961D01*
X0062742Y0136885D01*
X0062607Y0136812D01*
X0062470Y0136743D01*
X0062331Y0136678D01*
X0062191Y0136616D01*
X0062049Y0136558D01*
X0061906Y0136503D01*
X0061761Y0136452D01*
X0061615Y0136405D01*
X0061468Y0136362D01*
X0061320Y0136323D01*
X0061171Y0136287D01*
X0061021Y0136256D01*
X0060870Y0136228D01*
X0060719Y0136204D01*
X0060566Y0136184D01*
X0060414Y0136168D01*
X0060261Y0136156D01*
X0060108Y0136148D01*
X0059955Y0136144D01*
X0059801Y0136144D01*
X0059648Y0136148D01*
X0059495Y0136156D01*
X0059342Y0136168D01*
X0059190Y0136184D01*
X0059037Y0136204D01*
X0058886Y0136228D01*
X0058735Y0136256D01*
X0058585Y0136287D01*
X0058436Y0136323D01*
X0058288Y0136362D01*
X0058141Y0136405D01*
X0057995Y0136452D01*
X0057850Y0136503D01*
X0057707Y0136558D01*
X0057565Y0136616D01*
X0057425Y0136678D01*
X0057286Y0136743D01*
X0057149Y0136812D01*
X0057014Y0136885D01*
X0056881Y0136961D01*
X0056750Y0137041D01*
X0056621Y0137123D01*
X0056494Y0137210D01*
X0056369Y0137299D01*
X0056247Y0137392D01*
X0056128Y0137488D01*
X0056010Y0137587D01*
X0055896Y0137688D01*
X0055784Y0137793D01*
X0055675Y0137901D01*
X0055569Y0138012D01*
X0055465Y0138125D01*
X0055365Y0138241D01*
X0055267Y0138359D01*
X0055173Y0138480D01*
X0055082Y0138603D01*
X0054994Y0138729D01*
X0054910Y0138857D01*
X0054828Y0138987D01*
X0054751Y0139119D01*
X0054676Y0139253D01*
X0054605Y0139389D01*
X0054538Y0139527D01*
X0054474Y0139667D01*
X0054414Y0139808D01*
X0054358Y0139950D01*
X0054305Y0140094D01*
X0054256Y0140240D01*
X0054211Y0140386D01*
X0054170Y0140534D01*
X0054133Y0140682D01*
X0054099Y0140832D01*
X0054069Y0140983D01*
X0054044Y0141134D01*
X0054022Y0141285D01*
X0054004Y0141438D01*
X0053990Y0141590D01*
X0053980Y0141743D01*
X0053974Y0141897D01*
X0053972Y0142050D01*
X0243972Y0142050D02*
X0243974Y0142203D01*
X0243980Y0142357D01*
X0243990Y0142510D01*
X0244004Y0142662D01*
X0244022Y0142815D01*
X0244044Y0142966D01*
X0244069Y0143117D01*
X0244099Y0143268D01*
X0244133Y0143418D01*
X0244170Y0143566D01*
X0244211Y0143714D01*
X0244256Y0143860D01*
X0244305Y0144006D01*
X0244358Y0144150D01*
X0244414Y0144292D01*
X0244474Y0144433D01*
X0244538Y0144573D01*
X0244605Y0144711D01*
X0244676Y0144847D01*
X0244751Y0144981D01*
X0244828Y0145113D01*
X0244910Y0145243D01*
X0244994Y0145371D01*
X0245082Y0145497D01*
X0245173Y0145620D01*
X0245267Y0145741D01*
X0245365Y0145859D01*
X0245465Y0145975D01*
X0245569Y0146088D01*
X0245675Y0146199D01*
X0245784Y0146307D01*
X0245896Y0146412D01*
X0246010Y0146513D01*
X0246128Y0146612D01*
X0246247Y0146708D01*
X0246369Y0146801D01*
X0246494Y0146890D01*
X0246621Y0146977D01*
X0246750Y0147059D01*
X0246881Y0147139D01*
X0247014Y0147215D01*
X0247149Y0147288D01*
X0247286Y0147357D01*
X0247425Y0147422D01*
X0247565Y0147484D01*
X0247707Y0147542D01*
X0247850Y0147597D01*
X0247995Y0147648D01*
X0248141Y0147695D01*
X0248288Y0147738D01*
X0248436Y0147777D01*
X0248585Y0147813D01*
X0248735Y0147844D01*
X0248886Y0147872D01*
X0249037Y0147896D01*
X0249190Y0147916D01*
X0249342Y0147932D01*
X0249495Y0147944D01*
X0249648Y0147952D01*
X0249801Y0147956D01*
X0249955Y0147956D01*
X0250108Y0147952D01*
X0250261Y0147944D01*
X0250414Y0147932D01*
X0250566Y0147916D01*
X0250719Y0147896D01*
X0250870Y0147872D01*
X0251021Y0147844D01*
X0251171Y0147813D01*
X0251320Y0147777D01*
X0251468Y0147738D01*
X0251615Y0147695D01*
X0251761Y0147648D01*
X0251906Y0147597D01*
X0252049Y0147542D01*
X0252191Y0147484D01*
X0252331Y0147422D01*
X0252470Y0147357D01*
X0252607Y0147288D01*
X0252742Y0147215D01*
X0252875Y0147139D01*
X0253006Y0147059D01*
X0253135Y0146977D01*
X0253262Y0146890D01*
X0253387Y0146801D01*
X0253509Y0146708D01*
X0253628Y0146612D01*
X0253746Y0146513D01*
X0253860Y0146412D01*
X0253972Y0146307D01*
X0254081Y0146199D01*
X0254187Y0146088D01*
X0254291Y0145975D01*
X0254391Y0145859D01*
X0254489Y0145741D01*
X0254583Y0145620D01*
X0254674Y0145497D01*
X0254762Y0145371D01*
X0254846Y0145243D01*
X0254928Y0145113D01*
X0255005Y0144981D01*
X0255080Y0144847D01*
X0255151Y0144711D01*
X0255218Y0144573D01*
X0255282Y0144433D01*
X0255342Y0144292D01*
X0255398Y0144150D01*
X0255451Y0144006D01*
X0255500Y0143860D01*
X0255545Y0143714D01*
X0255586Y0143566D01*
X0255623Y0143418D01*
X0255657Y0143268D01*
X0255687Y0143117D01*
X0255712Y0142966D01*
X0255734Y0142815D01*
X0255752Y0142662D01*
X0255766Y0142510D01*
X0255776Y0142357D01*
X0255782Y0142203D01*
X0255784Y0142050D01*
X0255782Y0141897D01*
X0255776Y0141743D01*
X0255766Y0141590D01*
X0255752Y0141438D01*
X0255734Y0141285D01*
X0255712Y0141134D01*
X0255687Y0140983D01*
X0255657Y0140832D01*
X0255623Y0140682D01*
X0255586Y0140534D01*
X0255545Y0140386D01*
X0255500Y0140240D01*
X0255451Y0140094D01*
X0255398Y0139950D01*
X0255342Y0139808D01*
X0255282Y0139667D01*
X0255218Y0139527D01*
X0255151Y0139389D01*
X0255080Y0139253D01*
X0255005Y0139119D01*
X0254928Y0138987D01*
X0254846Y0138857D01*
X0254762Y0138729D01*
X0254674Y0138603D01*
X0254583Y0138480D01*
X0254489Y0138359D01*
X0254391Y0138241D01*
X0254291Y0138125D01*
X0254187Y0138012D01*
X0254081Y0137901D01*
X0253972Y0137793D01*
X0253860Y0137688D01*
X0253746Y0137587D01*
X0253628Y0137488D01*
X0253509Y0137392D01*
X0253387Y0137299D01*
X0253262Y0137210D01*
X0253135Y0137123D01*
X0253006Y0137041D01*
X0252875Y0136961D01*
X0252742Y0136885D01*
X0252607Y0136812D01*
X0252470Y0136743D01*
X0252331Y0136678D01*
X0252191Y0136616D01*
X0252049Y0136558D01*
X0251906Y0136503D01*
X0251761Y0136452D01*
X0251615Y0136405D01*
X0251468Y0136362D01*
X0251320Y0136323D01*
X0251171Y0136287D01*
X0251021Y0136256D01*
X0250870Y0136228D01*
X0250719Y0136204D01*
X0250566Y0136184D01*
X0250414Y0136168D01*
X0250261Y0136156D01*
X0250108Y0136148D01*
X0249955Y0136144D01*
X0249801Y0136144D01*
X0249648Y0136148D01*
X0249495Y0136156D01*
X0249342Y0136168D01*
X0249190Y0136184D01*
X0249037Y0136204D01*
X0248886Y0136228D01*
X0248735Y0136256D01*
X0248585Y0136287D01*
X0248436Y0136323D01*
X0248288Y0136362D01*
X0248141Y0136405D01*
X0247995Y0136452D01*
X0247850Y0136503D01*
X0247707Y0136558D01*
X0247565Y0136616D01*
X0247425Y0136678D01*
X0247286Y0136743D01*
X0247149Y0136812D01*
X0247014Y0136885D01*
X0246881Y0136961D01*
X0246750Y0137041D01*
X0246621Y0137123D01*
X0246494Y0137210D01*
X0246369Y0137299D01*
X0246247Y0137392D01*
X0246128Y0137488D01*
X0246010Y0137587D01*
X0245896Y0137688D01*
X0245784Y0137793D01*
X0245675Y0137901D01*
X0245569Y0138012D01*
X0245465Y0138125D01*
X0245365Y0138241D01*
X0245267Y0138359D01*
X0245173Y0138480D01*
X0245082Y0138603D01*
X0244994Y0138729D01*
X0244910Y0138857D01*
X0244828Y0138987D01*
X0244751Y0139119D01*
X0244676Y0139253D01*
X0244605Y0139389D01*
X0244538Y0139527D01*
X0244474Y0139667D01*
X0244414Y0139808D01*
X0244358Y0139950D01*
X0244305Y0140094D01*
X0244256Y0140240D01*
X0244211Y0140386D01*
X0244170Y0140534D01*
X0244133Y0140682D01*
X0244099Y0140832D01*
X0244069Y0140983D01*
X0244044Y0141134D01*
X0244022Y0141285D01*
X0244004Y0141438D01*
X0243990Y0141590D01*
X0243980Y0141743D01*
X0243974Y0141897D01*
X0243972Y0142050D01*
X0243972Y0037050D02*
X0243974Y0037203D01*
X0243980Y0037357D01*
X0243990Y0037510D01*
X0244004Y0037662D01*
X0244022Y0037815D01*
X0244044Y0037966D01*
X0244069Y0038117D01*
X0244099Y0038268D01*
X0244133Y0038418D01*
X0244170Y0038566D01*
X0244211Y0038714D01*
X0244256Y0038860D01*
X0244305Y0039006D01*
X0244358Y0039150D01*
X0244414Y0039292D01*
X0244474Y0039433D01*
X0244538Y0039573D01*
X0244605Y0039711D01*
X0244676Y0039847D01*
X0244751Y0039981D01*
X0244828Y0040113D01*
X0244910Y0040243D01*
X0244994Y0040371D01*
X0245082Y0040497D01*
X0245173Y0040620D01*
X0245267Y0040741D01*
X0245365Y0040859D01*
X0245465Y0040975D01*
X0245569Y0041088D01*
X0245675Y0041199D01*
X0245784Y0041307D01*
X0245896Y0041412D01*
X0246010Y0041513D01*
X0246128Y0041612D01*
X0246247Y0041708D01*
X0246369Y0041801D01*
X0246494Y0041890D01*
X0246621Y0041977D01*
X0246750Y0042059D01*
X0246881Y0042139D01*
X0247014Y0042215D01*
X0247149Y0042288D01*
X0247286Y0042357D01*
X0247425Y0042422D01*
X0247565Y0042484D01*
X0247707Y0042542D01*
X0247850Y0042597D01*
X0247995Y0042648D01*
X0248141Y0042695D01*
X0248288Y0042738D01*
X0248436Y0042777D01*
X0248585Y0042813D01*
X0248735Y0042844D01*
X0248886Y0042872D01*
X0249037Y0042896D01*
X0249190Y0042916D01*
X0249342Y0042932D01*
X0249495Y0042944D01*
X0249648Y0042952D01*
X0249801Y0042956D01*
X0249955Y0042956D01*
X0250108Y0042952D01*
X0250261Y0042944D01*
X0250414Y0042932D01*
X0250566Y0042916D01*
X0250719Y0042896D01*
X0250870Y0042872D01*
X0251021Y0042844D01*
X0251171Y0042813D01*
X0251320Y0042777D01*
X0251468Y0042738D01*
X0251615Y0042695D01*
X0251761Y0042648D01*
X0251906Y0042597D01*
X0252049Y0042542D01*
X0252191Y0042484D01*
X0252331Y0042422D01*
X0252470Y0042357D01*
X0252607Y0042288D01*
X0252742Y0042215D01*
X0252875Y0042139D01*
X0253006Y0042059D01*
X0253135Y0041977D01*
X0253262Y0041890D01*
X0253387Y0041801D01*
X0253509Y0041708D01*
X0253628Y0041612D01*
X0253746Y0041513D01*
X0253860Y0041412D01*
X0253972Y0041307D01*
X0254081Y0041199D01*
X0254187Y0041088D01*
X0254291Y0040975D01*
X0254391Y0040859D01*
X0254489Y0040741D01*
X0254583Y0040620D01*
X0254674Y0040497D01*
X0254762Y0040371D01*
X0254846Y0040243D01*
X0254928Y0040113D01*
X0255005Y0039981D01*
X0255080Y0039847D01*
X0255151Y0039711D01*
X0255218Y0039573D01*
X0255282Y0039433D01*
X0255342Y0039292D01*
X0255398Y0039150D01*
X0255451Y0039006D01*
X0255500Y0038860D01*
X0255545Y0038714D01*
X0255586Y0038566D01*
X0255623Y0038418D01*
X0255657Y0038268D01*
X0255687Y0038117D01*
X0255712Y0037966D01*
X0255734Y0037815D01*
X0255752Y0037662D01*
X0255766Y0037510D01*
X0255776Y0037357D01*
X0255782Y0037203D01*
X0255784Y0037050D01*
X0255782Y0036897D01*
X0255776Y0036743D01*
X0255766Y0036590D01*
X0255752Y0036438D01*
X0255734Y0036285D01*
X0255712Y0036134D01*
X0255687Y0035983D01*
X0255657Y0035832D01*
X0255623Y0035682D01*
X0255586Y0035534D01*
X0255545Y0035386D01*
X0255500Y0035240D01*
X0255451Y0035094D01*
X0255398Y0034950D01*
X0255342Y0034808D01*
X0255282Y0034667D01*
X0255218Y0034527D01*
X0255151Y0034389D01*
X0255080Y0034253D01*
X0255005Y0034119D01*
X0254928Y0033987D01*
X0254846Y0033857D01*
X0254762Y0033729D01*
X0254674Y0033603D01*
X0254583Y0033480D01*
X0254489Y0033359D01*
X0254391Y0033241D01*
X0254291Y0033125D01*
X0254187Y0033012D01*
X0254081Y0032901D01*
X0253972Y0032793D01*
X0253860Y0032688D01*
X0253746Y0032587D01*
X0253628Y0032488D01*
X0253509Y0032392D01*
X0253387Y0032299D01*
X0253262Y0032210D01*
X0253135Y0032123D01*
X0253006Y0032041D01*
X0252875Y0031961D01*
X0252742Y0031885D01*
X0252607Y0031812D01*
X0252470Y0031743D01*
X0252331Y0031678D01*
X0252191Y0031616D01*
X0252049Y0031558D01*
X0251906Y0031503D01*
X0251761Y0031452D01*
X0251615Y0031405D01*
X0251468Y0031362D01*
X0251320Y0031323D01*
X0251171Y0031287D01*
X0251021Y0031256D01*
X0250870Y0031228D01*
X0250719Y0031204D01*
X0250566Y0031184D01*
X0250414Y0031168D01*
X0250261Y0031156D01*
X0250108Y0031148D01*
X0249955Y0031144D01*
X0249801Y0031144D01*
X0249648Y0031148D01*
X0249495Y0031156D01*
X0249342Y0031168D01*
X0249190Y0031184D01*
X0249037Y0031204D01*
X0248886Y0031228D01*
X0248735Y0031256D01*
X0248585Y0031287D01*
X0248436Y0031323D01*
X0248288Y0031362D01*
X0248141Y0031405D01*
X0247995Y0031452D01*
X0247850Y0031503D01*
X0247707Y0031558D01*
X0247565Y0031616D01*
X0247425Y0031678D01*
X0247286Y0031743D01*
X0247149Y0031812D01*
X0247014Y0031885D01*
X0246881Y0031961D01*
X0246750Y0032041D01*
X0246621Y0032123D01*
X0246494Y0032210D01*
X0246369Y0032299D01*
X0246247Y0032392D01*
X0246128Y0032488D01*
X0246010Y0032587D01*
X0245896Y0032688D01*
X0245784Y0032793D01*
X0245675Y0032901D01*
X0245569Y0033012D01*
X0245465Y0033125D01*
X0245365Y0033241D01*
X0245267Y0033359D01*
X0245173Y0033480D01*
X0245082Y0033603D01*
X0244994Y0033729D01*
X0244910Y0033857D01*
X0244828Y0033987D01*
X0244751Y0034119D01*
X0244676Y0034253D01*
X0244605Y0034389D01*
X0244538Y0034527D01*
X0244474Y0034667D01*
X0244414Y0034808D01*
X0244358Y0034950D01*
X0244305Y0035094D01*
X0244256Y0035240D01*
X0244211Y0035386D01*
X0244170Y0035534D01*
X0244133Y0035682D01*
X0244099Y0035832D01*
X0244069Y0035983D01*
X0244044Y0036134D01*
X0244022Y0036285D01*
X0244004Y0036438D01*
X0243990Y0036590D01*
X0243980Y0036743D01*
X0243974Y0036897D01*
X0243972Y0037050D01*
D11*
X0253177Y0025475D02*
X0254628Y0025475D01*
X0253177Y0025475D02*
X0252693Y0024991D01*
X0252693Y0023540D01*
X0254628Y0023540D01*
X0254145Y0022528D02*
X0254628Y0022044D01*
X0254628Y0021077D01*
X0254145Y0020593D01*
X0252210Y0022528D01*
X0254145Y0022528D01*
X0254145Y0020593D02*
X0252210Y0020593D01*
X0251726Y0021077D01*
X0251726Y0022044D01*
X0252210Y0022528D01*
X0252210Y0019581D02*
X0251726Y0019098D01*
X0251726Y0018130D01*
X0252210Y0017647D01*
X0254145Y0017647D01*
X0252210Y0019581D01*
X0254145Y0019581D01*
X0254628Y0019098D01*
X0254628Y0018130D01*
X0254145Y0017647D01*
X0254628Y0016635D02*
X0254628Y0014700D01*
X0254628Y0015667D02*
X0251726Y0015667D01*
X0252693Y0014700D01*
X0211803Y0033700D02*
X0211803Y0035151D01*
X0211319Y0035635D01*
X0209868Y0035635D01*
X0209868Y0033700D01*
X0208856Y0034184D02*
X0208373Y0033700D01*
X0207405Y0033700D01*
X0206921Y0034184D01*
X0208856Y0036119D01*
X0208856Y0034184D01*
X0206921Y0034184D02*
X0206921Y0036119D01*
X0207405Y0036602D01*
X0208373Y0036602D01*
X0208856Y0036119D01*
X0205910Y0036119D02*
X0203975Y0034184D01*
X0203975Y0033700D01*
X0202480Y0033700D02*
X0202480Y0036602D01*
X0201028Y0035151D01*
X0202963Y0035151D01*
X0203975Y0036602D02*
X0205910Y0036602D01*
X0205910Y0036119D01*
X0173467Y0040450D02*
X0173467Y0041901D01*
X0172983Y0042385D01*
X0171532Y0042385D01*
X0171532Y0040450D01*
X0170520Y0040934D02*
X0170036Y0040450D01*
X0169069Y0040450D01*
X0168585Y0040934D01*
X0170520Y0042869D01*
X0170520Y0040934D01*
X0168585Y0040934D02*
X0168585Y0042869D01*
X0169069Y0043352D01*
X0170036Y0043352D01*
X0170520Y0042869D01*
X0167574Y0042869D02*
X0165639Y0040934D01*
X0166122Y0040450D01*
X0167090Y0040450D01*
X0167574Y0040934D01*
X0167574Y0042869D01*
X0167090Y0043352D01*
X0166122Y0043352D01*
X0165639Y0042869D01*
X0165639Y0040934D01*
X0164627Y0040450D02*
X0162692Y0040450D01*
X0163660Y0040450D02*
X0163660Y0043352D01*
X0162692Y0042385D01*
X0162580Y0036802D02*
X0161128Y0035351D01*
X0163063Y0035351D01*
X0164075Y0034384D02*
X0164075Y0033900D01*
X0164075Y0034384D02*
X0166010Y0036319D01*
X0166010Y0036802D01*
X0164075Y0036802D01*
X0162580Y0036802D02*
X0162580Y0033900D01*
X0167021Y0034384D02*
X0167021Y0036319D01*
X0167505Y0036802D01*
X0168473Y0036802D01*
X0168956Y0036319D01*
X0167021Y0034384D01*
X0167505Y0033900D01*
X0168473Y0033900D01*
X0168956Y0034384D01*
X0168956Y0036319D01*
X0169968Y0035835D02*
X0171419Y0035835D01*
X0171903Y0035351D01*
X0171903Y0033900D01*
X0169968Y0033900D02*
X0169968Y0035835D01*
X0131503Y0035451D02*
X0131503Y0034000D01*
X0131503Y0035451D02*
X0131019Y0035935D01*
X0129568Y0035935D01*
X0129568Y0034000D01*
X0128556Y0034484D02*
X0128073Y0034000D01*
X0127105Y0034000D01*
X0126621Y0034484D01*
X0128556Y0036419D01*
X0128556Y0034484D01*
X0126621Y0034484D02*
X0126621Y0036419D01*
X0127105Y0036902D01*
X0128073Y0036902D01*
X0128556Y0036419D01*
X0125610Y0036419D02*
X0123675Y0034484D01*
X0123675Y0034000D01*
X0122180Y0034000D02*
X0122180Y0036902D01*
X0120728Y0035451D01*
X0122663Y0035451D01*
X0123675Y0036902D02*
X0125610Y0036902D01*
X0125610Y0036419D01*
X0111024Y0046800D02*
X0109573Y0047767D01*
X0111024Y0048735D01*
X0109573Y0049702D02*
X0109573Y0046800D01*
X0108561Y0046800D02*
X0106626Y0046800D01*
X0107594Y0046800D02*
X0107594Y0049702D01*
X0106626Y0048735D01*
X0105966Y0055500D02*
X0104514Y0056467D01*
X0105966Y0057435D01*
X0104514Y0058402D02*
X0104514Y0055500D01*
X0103503Y0055984D02*
X0103503Y0056951D01*
X0103019Y0057435D01*
X0102052Y0057435D01*
X0101568Y0056951D01*
X0101568Y0055984D01*
X0102052Y0055500D01*
X0103019Y0055500D01*
X0103503Y0055984D01*
X0100556Y0056951D02*
X0098621Y0056951D01*
X0097610Y0056467D02*
X0097610Y0058402D01*
X0097610Y0056467D02*
X0096642Y0055500D01*
X0095675Y0056467D01*
X0095675Y0058402D01*
X0094663Y0057919D02*
X0094663Y0057435D01*
X0094180Y0056951D01*
X0094663Y0056467D01*
X0094663Y0055984D01*
X0094180Y0055500D01*
X0093212Y0055500D01*
X0092728Y0055984D01*
X0093696Y0056951D02*
X0094180Y0056951D01*
X0094663Y0057919D02*
X0094180Y0058402D01*
X0093212Y0058402D01*
X0092728Y0057919D01*
X0073278Y0046977D02*
X0071343Y0046977D01*
X0071343Y0044075D01*
X0070331Y0044075D02*
X0070331Y0045526D01*
X0069848Y0046010D01*
X0068396Y0046010D01*
X0068396Y0044075D01*
X0067385Y0044559D02*
X0066901Y0044075D01*
X0065934Y0044075D01*
X0065450Y0044559D01*
X0067385Y0046494D01*
X0067385Y0044559D01*
X0065450Y0044559D02*
X0065450Y0046494D01*
X0065934Y0046977D01*
X0066901Y0046977D01*
X0067385Y0046494D01*
X0063471Y0046977D02*
X0062503Y0046010D01*
X0063471Y0046977D02*
X0063471Y0044075D01*
X0064438Y0044075D02*
X0062503Y0044075D01*
X0071343Y0045526D02*
X0072310Y0045526D01*
X0082601Y0044886D02*
X0082601Y0042951D01*
X0085503Y0042951D01*
X0085503Y0041939D02*
X0083568Y0041939D01*
X0084052Y0042951D02*
X0084052Y0043918D01*
X0085503Y0041939D02*
X0085503Y0040488D01*
X0085020Y0040004D01*
X0083568Y0040004D01*
X0083568Y0038993D02*
X0083085Y0038993D01*
X0082601Y0038509D01*
X0082601Y0037541D01*
X0083085Y0037058D01*
X0083085Y0036046D02*
X0082601Y0035562D01*
X0082601Y0034595D01*
X0083085Y0034111D01*
X0083085Y0036046D02*
X0083568Y0036046D01*
X0085503Y0034111D01*
X0085503Y0036046D01*
X0085503Y0037058D02*
X0083568Y0038993D01*
X0085503Y0038993D02*
X0085503Y0037058D01*
X0089028Y0035851D02*
X0090963Y0035851D01*
X0091975Y0034884D02*
X0091975Y0034400D01*
X0091975Y0034884D02*
X0093910Y0036819D01*
X0093910Y0037302D01*
X0091975Y0037302D01*
X0090480Y0037302D02*
X0089028Y0035851D01*
X0090480Y0034400D02*
X0090480Y0037302D01*
X0094921Y0036819D02*
X0094921Y0034884D01*
X0096856Y0036819D01*
X0096856Y0034884D01*
X0096373Y0034400D01*
X0095405Y0034400D01*
X0094921Y0034884D01*
X0094921Y0036819D02*
X0095405Y0037302D01*
X0096373Y0037302D01*
X0096856Y0036819D01*
X0097868Y0036335D02*
X0099319Y0036335D01*
X0099803Y0035851D01*
X0099803Y0034400D01*
X0097868Y0034400D02*
X0097868Y0036335D01*
X0085503Y0030153D02*
X0083568Y0028218D01*
X0085503Y0028218D02*
X0083568Y0030153D01*
X0083568Y0024260D02*
X0084052Y0023776D01*
X0084536Y0024260D01*
X0085020Y0024260D01*
X0085503Y0023776D01*
X0085503Y0022809D01*
X0085020Y0022325D01*
X0084052Y0023292D02*
X0084052Y0023776D01*
X0083568Y0024260D02*
X0083085Y0024260D01*
X0082601Y0023776D01*
X0082601Y0022809D01*
X0083085Y0022325D01*
X0072728Y0014588D02*
X0069826Y0014588D01*
X0070793Y0013621D01*
X0069826Y0012653D01*
X0072728Y0012653D01*
X0072728Y0011642D02*
X0072728Y0009707D01*
X0072728Y0010674D02*
X0069826Y0010674D01*
X0070793Y0009707D01*
X0064828Y0009773D02*
X0064828Y0011708D01*
X0064828Y0010741D02*
X0061926Y0010741D01*
X0062893Y0009773D01*
X0061926Y0012720D02*
X0064828Y0012720D01*
X0063861Y0012720D02*
X0062893Y0014171D01*
X0063861Y0012720D02*
X0064828Y0014171D01*
X0057303Y0014532D02*
X0056820Y0014048D01*
X0055852Y0014048D01*
X0055368Y0014532D01*
X0055368Y0015499D01*
X0055852Y0015983D01*
X0056820Y0015983D01*
X0057303Y0015499D01*
X0057303Y0014532D01*
X0055852Y0013037D02*
X0055852Y0011102D01*
X0056336Y0010090D02*
X0054401Y0010090D01*
X0056336Y0010090D02*
X0057303Y0009123D01*
X0056336Y0008155D01*
X0054401Y0008155D01*
X0054401Y0007143D02*
X0054401Y0005209D01*
X0055852Y0005209D01*
X0055368Y0006176D01*
X0055368Y0006660D01*
X0055852Y0007143D01*
X0056820Y0007143D01*
X0057303Y0006660D01*
X0057303Y0005692D01*
X0056820Y0005209D01*
X0057303Y0016995D02*
X0054401Y0016995D01*
X0055368Y0018446D02*
X0056336Y0016995D01*
X0057303Y0018446D01*
X0056987Y0024455D02*
X0056503Y0024938D01*
X0056987Y0024455D02*
X0057954Y0024455D01*
X0058438Y0024938D01*
X0058438Y0025422D01*
X0057954Y0025906D01*
X0057470Y0025906D01*
X0057954Y0025906D02*
X0058438Y0026390D01*
X0058438Y0026873D01*
X0057954Y0027357D01*
X0056987Y0027357D01*
X0056503Y0026873D01*
X0055491Y0026873D02*
X0055491Y0026390D01*
X0053556Y0024455D01*
X0055491Y0024455D01*
X0052545Y0024455D02*
X0050610Y0024455D01*
X0051577Y0024455D02*
X0051577Y0027357D01*
X0050610Y0026390D01*
X0049598Y0027357D02*
X0048631Y0026873D01*
X0047663Y0025906D01*
X0049114Y0025906D01*
X0049598Y0025422D01*
X0049598Y0024938D01*
X0049114Y0024455D01*
X0048147Y0024455D01*
X0047663Y0024938D01*
X0047663Y0025906D01*
X0046652Y0025422D02*
X0046652Y0024938D01*
X0046168Y0024455D01*
X0045200Y0024455D01*
X0044717Y0024938D01*
X0045200Y0025906D02*
X0046168Y0025906D01*
X0046652Y0025422D01*
X0046652Y0026873D02*
X0046168Y0027357D01*
X0045200Y0027357D01*
X0044717Y0026873D01*
X0044717Y0026390D01*
X0045200Y0025906D01*
X0043705Y0025906D02*
X0043221Y0025422D01*
X0041770Y0025422D01*
X0041770Y0024455D02*
X0041770Y0027357D01*
X0043221Y0027357D01*
X0043705Y0026873D01*
X0043705Y0025906D01*
X0040759Y0027357D02*
X0038824Y0027357D01*
X0039791Y0027357D02*
X0039791Y0024455D01*
X0038759Y0030273D02*
X0038275Y0030757D01*
X0038275Y0031724D01*
X0038759Y0032208D01*
X0039242Y0032208D01*
X0041177Y0030273D01*
X0041177Y0032208D01*
X0041177Y0033220D02*
X0039242Y0035155D01*
X0038759Y0035155D01*
X0038275Y0034671D01*
X0038275Y0033703D01*
X0038759Y0033220D01*
X0041177Y0033220D02*
X0041177Y0035155D01*
X0040694Y0036166D02*
X0039242Y0036166D01*
X0040694Y0036166D02*
X0041177Y0036650D01*
X0041177Y0038101D01*
X0039242Y0038101D01*
X0039726Y0039113D02*
X0039726Y0040080D01*
X0038275Y0039113D02*
X0038275Y0041048D01*
X0038275Y0039113D02*
X0041177Y0039113D01*
X0053556Y0026873D02*
X0054040Y0027357D01*
X0055007Y0027357D01*
X0055491Y0026873D01*
X0059449Y0026873D02*
X0059933Y0027357D01*
X0060901Y0027357D01*
X0061384Y0026873D01*
X0061384Y0026390D01*
X0059449Y0024455D01*
X0061384Y0024455D01*
X0051192Y0050725D02*
X0051192Y0053627D01*
X0050224Y0052660D01*
X0049257Y0053627D01*
X0049257Y0050725D01*
X0048245Y0050725D02*
X0046310Y0050725D01*
X0047278Y0050725D02*
X0047278Y0053627D01*
X0046310Y0052660D01*
X0038145Y0070800D02*
X0038628Y0071284D01*
X0038628Y0072251D01*
X0038145Y0072735D01*
X0037661Y0072735D01*
X0037177Y0072251D01*
X0037177Y0071284D01*
X0036693Y0070800D01*
X0036210Y0070800D01*
X0035726Y0071284D01*
X0035726Y0072251D01*
X0036210Y0072735D01*
X0036210Y0073747D02*
X0038145Y0073747D01*
X0038628Y0074230D01*
X0038628Y0075198D01*
X0038145Y0075681D01*
X0038628Y0076693D02*
X0038628Y0078628D01*
X0038628Y0076693D02*
X0035726Y0076693D01*
X0036210Y0075681D02*
X0035726Y0075198D01*
X0035726Y0074230D01*
X0036210Y0073747D01*
X0047926Y0085284D02*
X0048410Y0084800D01*
X0047926Y0085284D02*
X0047926Y0086251D01*
X0048410Y0086735D01*
X0048893Y0086735D01*
X0050828Y0084800D01*
X0050828Y0086735D01*
X0050828Y0087747D02*
X0050828Y0088230D01*
X0050345Y0088230D01*
X0050345Y0087747D01*
X0050828Y0087747D01*
X0050828Y0089220D02*
X0048893Y0091155D01*
X0048410Y0091155D01*
X0047926Y0090671D01*
X0047926Y0089704D01*
X0048410Y0089220D01*
X0050828Y0089220D02*
X0050828Y0091155D01*
X0050828Y0092166D02*
X0048893Y0092166D01*
X0048893Y0093618D01*
X0049377Y0094101D01*
X0050828Y0094101D01*
X0038628Y0095838D02*
X0038628Y0096806D01*
X0038145Y0097289D01*
X0037177Y0097289D01*
X0037177Y0096322D01*
X0036210Y0097289D02*
X0035726Y0096806D01*
X0035726Y0095838D01*
X0036210Y0095354D01*
X0038145Y0095354D01*
X0038628Y0095838D01*
X0038628Y0098301D02*
X0035726Y0098301D01*
X0038628Y0100236D01*
X0035726Y0100236D01*
X0035726Y0101247D02*
X0035726Y0102699D01*
X0036210Y0103182D01*
X0038145Y0103182D01*
X0038628Y0102699D01*
X0038628Y0101247D01*
X0035726Y0101247D01*
X0023124Y0102100D02*
X0021673Y0103067D01*
X0023124Y0104035D01*
X0021673Y0105002D02*
X0021673Y0102100D01*
X0020661Y0102584D02*
X0020178Y0102100D01*
X0019210Y0102100D01*
X0018726Y0102584D01*
X0020661Y0104519D01*
X0020661Y0102584D01*
X0018726Y0102584D02*
X0018726Y0104519D01*
X0019210Y0105002D01*
X0020178Y0105002D01*
X0020661Y0104519D01*
X0017715Y0102100D02*
X0015780Y0102100D01*
X0016747Y0102100D02*
X0016747Y0105002D01*
X0015780Y0104035D01*
X0013545Y0106191D02*
X0014028Y0106674D01*
X0014028Y0107642D01*
X0013545Y0108126D01*
X0013061Y0108126D01*
X0012577Y0107642D01*
X0012577Y0106674D01*
X0012093Y0106191D01*
X0011610Y0106191D01*
X0011126Y0106674D01*
X0011126Y0107642D01*
X0011610Y0108126D01*
X0011126Y0109137D02*
X0011126Y0110588D01*
X0011610Y0111072D01*
X0013545Y0111072D01*
X0014028Y0110588D01*
X0014028Y0109137D01*
X0011126Y0109137D01*
X0012093Y0112084D02*
X0011126Y0113051D01*
X0012093Y0114019D01*
X0014028Y0114019D01*
X0012577Y0114019D02*
X0012577Y0112084D01*
X0012093Y0112084D02*
X0014028Y0112084D01*
X0015780Y0111400D02*
X0017715Y0111400D01*
X0016747Y0111400D02*
X0016747Y0114302D01*
X0015780Y0113335D01*
X0018726Y0113819D02*
X0018726Y0111884D01*
X0020661Y0113819D01*
X0020661Y0111884D01*
X0020178Y0111400D01*
X0019210Y0111400D01*
X0018726Y0111884D01*
X0018726Y0113819D02*
X0019210Y0114302D01*
X0020178Y0114302D01*
X0020661Y0113819D01*
X0021673Y0114302D02*
X0021673Y0111400D01*
X0021673Y0112367D02*
X0023124Y0113335D01*
X0021673Y0112367D02*
X0023124Y0111400D01*
X0034628Y0121200D02*
X0036563Y0121200D01*
X0035596Y0121200D02*
X0035596Y0124102D01*
X0034628Y0123135D01*
X0037575Y0123619D02*
X0037575Y0121684D01*
X0039510Y0123619D01*
X0039510Y0121684D01*
X0039026Y0121200D01*
X0038059Y0121200D01*
X0037575Y0121684D01*
X0037575Y0123619D02*
X0038059Y0124102D01*
X0039026Y0124102D01*
X0039510Y0123619D01*
X0040521Y0123619D02*
X0040521Y0121684D01*
X0042456Y0123619D01*
X0042456Y0121684D01*
X0041973Y0121200D01*
X0041005Y0121200D01*
X0040521Y0121684D01*
X0040521Y0123619D02*
X0041005Y0124102D01*
X0041973Y0124102D01*
X0042456Y0123619D01*
X0043468Y0123135D02*
X0044919Y0123135D01*
X0045403Y0122651D01*
X0045403Y0121200D01*
X0043468Y0121200D02*
X0043468Y0123135D01*
X0046226Y0125528D02*
X0049128Y0125528D01*
X0047677Y0125528D02*
X0047677Y0127463D01*
X0046226Y0127463D02*
X0049128Y0127463D01*
X0049128Y0128474D02*
X0046226Y0128474D01*
X0047193Y0129442D01*
X0046226Y0130409D01*
X0049128Y0130409D01*
X0048645Y0131421D02*
X0049128Y0131905D01*
X0049128Y0132872D01*
X0048645Y0133356D01*
X0048645Y0134367D02*
X0049128Y0134851D01*
X0049128Y0135819D01*
X0048645Y0136302D01*
X0047677Y0136302D01*
X0047193Y0135819D01*
X0047193Y0135335D01*
X0047677Y0134367D01*
X0046226Y0134367D01*
X0046226Y0136302D01*
X0046710Y0137314D02*
X0046226Y0137798D01*
X0046226Y0138765D01*
X0046710Y0139249D01*
X0047193Y0139249D01*
X0047677Y0138765D01*
X0047677Y0137798D01*
X0047193Y0137314D01*
X0046710Y0137314D01*
X0047677Y0137798D02*
X0048161Y0137314D01*
X0048645Y0137314D01*
X0049128Y0137798D01*
X0049128Y0138765D01*
X0048645Y0139249D01*
X0048161Y0139249D01*
X0047677Y0138765D01*
X0047193Y0140260D02*
X0046710Y0140260D01*
X0046226Y0140744D01*
X0046226Y0141712D01*
X0046710Y0142195D01*
X0047193Y0142195D01*
X0047677Y0141712D01*
X0047677Y0140744D01*
X0047193Y0140260D01*
X0047677Y0140744D02*
X0048161Y0140260D01*
X0048645Y0140260D01*
X0049128Y0140744D01*
X0049128Y0141712D01*
X0048645Y0142195D01*
X0048161Y0142195D01*
X0047677Y0141712D01*
X0046710Y0143207D02*
X0046226Y0143691D01*
X0046226Y0144658D01*
X0046710Y0145142D01*
X0047193Y0145142D01*
X0047677Y0144658D01*
X0048161Y0145142D01*
X0048645Y0145142D01*
X0049128Y0144658D01*
X0049128Y0143691D01*
X0048645Y0143207D01*
X0047677Y0144174D02*
X0047677Y0144658D01*
X0046226Y0146153D02*
X0049128Y0146153D01*
X0049128Y0148088D01*
X0048828Y0149814D02*
X0046893Y0151749D01*
X0046410Y0151749D01*
X0045926Y0151265D01*
X0045926Y0150298D01*
X0046410Y0149814D01*
X0048828Y0149814D02*
X0048828Y0151749D01*
X0048828Y0152760D02*
X0046893Y0154695D01*
X0046410Y0154695D01*
X0045926Y0154212D01*
X0045926Y0153244D01*
X0046410Y0152760D01*
X0048828Y0152760D02*
X0048828Y0154695D01*
X0048345Y0155707D02*
X0046410Y0155707D01*
X0045926Y0156191D01*
X0045926Y0157158D01*
X0046410Y0157642D01*
X0048345Y0155707D01*
X0048828Y0156191D01*
X0048828Y0157158D01*
X0048345Y0157642D01*
X0046410Y0157642D01*
X0046893Y0158653D02*
X0046893Y0160105D01*
X0047377Y0160588D01*
X0048828Y0160588D01*
X0048828Y0158653D02*
X0046893Y0158653D01*
X0035317Y0160100D02*
X0035317Y0162035D01*
X0035317Y0160100D02*
X0033866Y0160100D01*
X0033382Y0160584D01*
X0033382Y0162035D01*
X0032370Y0162519D02*
X0030435Y0160584D01*
X0030435Y0160100D01*
X0029446Y0160100D02*
X0028962Y0160100D01*
X0028962Y0160584D01*
X0029446Y0160584D01*
X0029446Y0160100D01*
X0027467Y0160100D02*
X0027467Y0163002D01*
X0026015Y0161551D01*
X0027950Y0161551D01*
X0030435Y0163002D02*
X0032370Y0163002D01*
X0032370Y0162519D01*
X0072726Y0161081D02*
X0072726Y0159147D01*
X0073693Y0158135D02*
X0075628Y0158135D01*
X0075628Y0159147D02*
X0075145Y0159147D01*
X0073210Y0161081D01*
X0072726Y0161081D01*
X0073693Y0162093D02*
X0074177Y0162093D01*
X0074177Y0162577D01*
X0073693Y0162577D01*
X0073693Y0162093D01*
X0075145Y0162093D02*
X0075145Y0162577D01*
X0075628Y0162577D01*
X0075628Y0162093D01*
X0075145Y0162093D01*
X0075628Y0163566D02*
X0073693Y0163566D01*
X0072726Y0164534D01*
X0073693Y0165501D01*
X0075628Y0165501D01*
X0075145Y0166513D02*
X0073210Y0166513D01*
X0072726Y0166997D01*
X0072726Y0167964D01*
X0073210Y0168448D01*
X0075145Y0166513D01*
X0075628Y0166997D01*
X0075628Y0167964D01*
X0075145Y0168448D01*
X0073210Y0168448D01*
X0074177Y0165501D02*
X0074177Y0163566D01*
X0074177Y0158135D02*
X0074177Y0156200D01*
X0073693Y0156200D02*
X0072726Y0157167D01*
X0073693Y0158135D01*
X0073693Y0156200D02*
X0075628Y0156200D01*
X0075845Y0148903D02*
X0075228Y0148286D01*
X0075228Y0145817D01*
X0075845Y0145200D01*
X0077080Y0145200D01*
X0077697Y0145817D01*
X0077697Y0148286D01*
X0077080Y0148903D01*
X0075845Y0148903D01*
X0078911Y0147052D02*
X0078911Y0145817D01*
X0079529Y0145200D01*
X0081380Y0145200D01*
X0083212Y0145817D02*
X0083829Y0145200D01*
X0083212Y0145817D02*
X0083212Y0148286D01*
X0082595Y0147669D02*
X0083829Y0147669D01*
X0085667Y0147669D02*
X0086902Y0147669D01*
X0087519Y0147052D01*
X0087519Y0145200D01*
X0085667Y0145200D01*
X0085050Y0145817D01*
X0085667Y0146434D01*
X0087519Y0146434D01*
X0088733Y0145200D02*
X0088733Y0147669D01*
X0090585Y0147669D01*
X0091202Y0147052D01*
X0091202Y0145200D01*
X0092416Y0145200D02*
X0093651Y0145200D01*
X0093033Y0145200D02*
X0093033Y0147669D01*
X0092416Y0147669D01*
X0093033Y0148903D02*
X0093033Y0149520D01*
X0095489Y0147669D02*
X0097340Y0147669D01*
X0096723Y0146434D02*
X0095489Y0146434D01*
X0094872Y0147052D01*
X0095489Y0147669D01*
X0096723Y0146434D02*
X0097340Y0145817D01*
X0096723Y0145200D01*
X0094872Y0145200D01*
X0102238Y0145200D02*
X0104707Y0145200D01*
X0103472Y0145200D02*
X0103472Y0148903D01*
X0102238Y0147669D01*
X0109604Y0147669D02*
X0110839Y0145200D01*
X0112073Y0147669D01*
X0113287Y0148286D02*
X0113287Y0145817D01*
X0115756Y0148286D01*
X0115756Y0145817D01*
X0115139Y0145200D01*
X0113905Y0145200D01*
X0113287Y0145817D01*
X0116971Y0145817D02*
X0117588Y0145817D01*
X0117588Y0145200D01*
X0116971Y0145200D01*
X0116971Y0145817D01*
X0118812Y0145817D02*
X0119429Y0145200D01*
X0120664Y0145200D01*
X0121281Y0145817D01*
X0121281Y0146434D01*
X0120664Y0147052D01*
X0120047Y0147052D01*
X0120664Y0147052D02*
X0121281Y0147669D01*
X0121281Y0148286D01*
X0120664Y0148903D01*
X0119429Y0148903D01*
X0118812Y0148286D01*
X0115756Y0148286D02*
X0115139Y0148903D01*
X0113905Y0148903D01*
X0113287Y0148286D01*
X0131793Y0138796D02*
X0132761Y0137345D01*
X0133728Y0138796D01*
X0133728Y0137345D02*
X0130826Y0137345D01*
X0130826Y0135366D02*
X0133728Y0135366D01*
X0133728Y0136333D02*
X0133728Y0134398D01*
X0131793Y0134398D02*
X0130826Y0135366D01*
X0132510Y0127675D02*
X0134445Y0125740D01*
X0134928Y0126223D01*
X0134928Y0127191D01*
X0134445Y0127675D01*
X0132510Y0127675D01*
X0132026Y0127191D01*
X0132026Y0126223D01*
X0132510Y0125740D01*
X0134445Y0125740D01*
X0134445Y0124728D02*
X0132510Y0124728D01*
X0132026Y0124244D01*
X0132026Y0122793D01*
X0134928Y0122793D01*
X0134928Y0124244D01*
X0134445Y0124728D01*
X0134928Y0121781D02*
X0134928Y0119847D01*
X0132026Y0119847D01*
X0132026Y0121781D01*
X0133477Y0120814D02*
X0133477Y0119847D01*
X0134928Y0118835D02*
X0134928Y0116900D01*
X0132026Y0116900D01*
X0145526Y0116900D02*
X0148428Y0116900D01*
X0148428Y0118835D01*
X0148428Y0119847D02*
X0145526Y0119847D01*
X0145526Y0121781D01*
X0145526Y0122793D02*
X0145526Y0124244D01*
X0146010Y0124728D01*
X0147945Y0124728D01*
X0148428Y0124244D01*
X0148428Y0122793D01*
X0145526Y0122793D01*
X0146977Y0120814D02*
X0146977Y0119847D01*
X0148428Y0119847D02*
X0148428Y0121781D01*
X0148428Y0125740D02*
X0148428Y0127675D01*
X0148428Y0126707D02*
X0145526Y0126707D01*
X0146493Y0125740D01*
X0155426Y0129174D02*
X0155426Y0130626D01*
X0155910Y0131109D01*
X0156877Y0131109D01*
X0157361Y0130626D01*
X0157361Y0129174D01*
X0158328Y0129174D02*
X0155426Y0129174D01*
X0157361Y0130142D02*
X0158328Y0131109D01*
X0157845Y0132121D02*
X0158328Y0132605D01*
X0158328Y0133572D01*
X0157845Y0134056D01*
X0157361Y0134056D01*
X0156877Y0133572D01*
X0156877Y0132605D01*
X0156393Y0132121D01*
X0155910Y0132121D01*
X0155426Y0132605D01*
X0155426Y0133572D01*
X0155910Y0134056D01*
X0155426Y0135067D02*
X0155426Y0137002D01*
X0155426Y0136035D02*
X0158328Y0136035D01*
X0155426Y0140960D02*
X0155426Y0142895D01*
X0155426Y0141928D02*
X0158328Y0141928D01*
X0157845Y0143907D02*
X0158328Y0144391D01*
X0158328Y0145358D01*
X0157845Y0145842D01*
X0157361Y0145842D01*
X0156877Y0145358D01*
X0156877Y0144391D01*
X0156393Y0143907D01*
X0155910Y0143907D01*
X0155426Y0144391D01*
X0155426Y0145358D01*
X0155910Y0145842D01*
X0155426Y0146853D02*
X0155426Y0148788D01*
X0155426Y0147821D02*
X0158328Y0147821D01*
X0149128Y0139096D02*
X0148161Y0137645D01*
X0147193Y0139096D01*
X0146226Y0137645D02*
X0149128Y0137645D01*
X0149128Y0136633D02*
X0149128Y0134698D01*
X0149128Y0135666D02*
X0146226Y0135666D01*
X0147193Y0134698D01*
X0174026Y0126344D02*
X0174510Y0126828D01*
X0176445Y0124893D01*
X0176928Y0125377D01*
X0176928Y0126344D01*
X0176445Y0126828D01*
X0174510Y0126828D01*
X0174026Y0126344D02*
X0174026Y0125377D01*
X0174510Y0124893D01*
X0176445Y0124893D01*
X0176445Y0123881D02*
X0176928Y0123398D01*
X0176928Y0122430D01*
X0176445Y0121947D01*
X0174510Y0123881D01*
X0176445Y0123881D01*
X0176445Y0121947D02*
X0174510Y0121947D01*
X0174026Y0122430D01*
X0174026Y0123398D01*
X0174510Y0123881D01*
X0176928Y0120935D02*
X0176928Y0119000D01*
X0176928Y0119967D02*
X0174026Y0119967D01*
X0174993Y0119000D01*
X0174993Y0127840D02*
X0174993Y0129291D01*
X0175477Y0129775D01*
X0176928Y0129775D01*
X0176928Y0127840D02*
X0174993Y0127840D01*
X0185128Y0150900D02*
X0186580Y0150900D01*
X0187063Y0151384D01*
X0187063Y0153319D01*
X0186580Y0153802D01*
X0185128Y0153802D01*
X0185128Y0150900D01*
X0188075Y0150900D02*
X0189042Y0150900D01*
X0188559Y0150900D02*
X0188559Y0153802D01*
X0189042Y0153802D02*
X0188075Y0153802D01*
X0190039Y0153319D02*
X0190039Y0151384D01*
X0190523Y0150900D01*
X0191490Y0150900D01*
X0191974Y0151384D01*
X0191974Y0152351D01*
X0191007Y0152351D01*
X0191974Y0153319D02*
X0191490Y0153802D01*
X0190523Y0153802D01*
X0190039Y0153319D01*
X0192986Y0153802D02*
X0193953Y0153802D01*
X0193469Y0153802D02*
X0193469Y0150900D01*
X0192986Y0150900D02*
X0193953Y0150900D01*
X0195917Y0150900D02*
X0195917Y0153802D01*
X0194950Y0153802D02*
X0196885Y0153802D01*
X0197897Y0152835D02*
X0198864Y0153802D01*
X0199832Y0152835D01*
X0199832Y0150900D01*
X0200843Y0150900D02*
X0202778Y0150900D01*
X0200843Y0150900D02*
X0200843Y0153802D01*
X0199832Y0152351D02*
X0197897Y0152351D01*
X0197897Y0152835D02*
X0197897Y0150900D01*
X0206736Y0150900D02*
X0207704Y0150900D01*
X0207220Y0150900D02*
X0207220Y0153802D01*
X0206736Y0153802D02*
X0207704Y0153802D01*
X0210635Y0153802D02*
X0208700Y0150900D01*
X0211647Y0151384D02*
X0211647Y0153319D01*
X0212131Y0153802D01*
X0213098Y0153802D01*
X0213582Y0153319D01*
X0213582Y0151384D01*
X0213098Y0150900D01*
X0212131Y0150900D01*
X0211647Y0151384D01*
X0256528Y0127935D02*
X0257496Y0128902D01*
X0257496Y0126000D01*
X0258463Y0126000D02*
X0256528Y0126000D01*
X0259475Y0126484D02*
X0259475Y0128419D01*
X0259959Y0128902D01*
X0260926Y0128902D01*
X0261410Y0128419D01*
X0259475Y0126484D01*
X0259959Y0126000D01*
X0260926Y0126000D01*
X0261410Y0126484D01*
X0261410Y0128419D01*
X0262421Y0128902D02*
X0262421Y0126000D01*
X0262421Y0126967D02*
X0263873Y0126000D01*
X0262421Y0126967D02*
X0263873Y0127935D01*
X0262835Y0097352D02*
X0261868Y0096869D01*
X0260900Y0095901D01*
X0262352Y0095901D01*
X0262835Y0095417D01*
X0262835Y0094934D01*
X0262352Y0094450D01*
X0261384Y0094450D01*
X0260900Y0094934D01*
X0260900Y0095901D01*
X0259889Y0094934D02*
X0259405Y0094450D01*
X0258438Y0094450D01*
X0257954Y0094934D01*
X0259889Y0096869D01*
X0259889Y0094934D01*
X0259889Y0096869D02*
X0259405Y0097352D01*
X0258438Y0097352D01*
X0257954Y0096869D01*
X0257954Y0094934D01*
X0255975Y0095901D02*
X0255007Y0095901D01*
X0253996Y0095417D02*
X0253028Y0094450D01*
X0252061Y0095417D01*
X0252061Y0097352D01*
X0251049Y0097352D02*
X0249114Y0097352D01*
X0249114Y0095901D01*
X0250082Y0096385D01*
X0250566Y0096385D01*
X0251049Y0095901D01*
X0251049Y0094934D01*
X0250566Y0094450D01*
X0249598Y0094450D01*
X0249114Y0094934D01*
X0248103Y0094450D02*
X0246168Y0094450D01*
X0248103Y0096385D01*
X0248103Y0096869D01*
X0247619Y0097352D01*
X0246652Y0097352D01*
X0246168Y0096869D01*
X0245156Y0097352D02*
X0243221Y0097352D01*
X0244189Y0097352D02*
X0244189Y0094450D01*
X0242210Y0094934D02*
X0241726Y0094450D01*
X0240759Y0094450D01*
X0240275Y0094934D01*
X0239263Y0094934D02*
X0238780Y0094450D01*
X0237812Y0094450D01*
X0237328Y0094934D01*
X0237812Y0095901D02*
X0238780Y0095901D01*
X0239263Y0095417D01*
X0239263Y0094934D01*
X0237812Y0095901D02*
X0237328Y0096385D01*
X0237328Y0096869D01*
X0237812Y0097352D01*
X0238780Y0097352D01*
X0239263Y0096869D01*
X0240275Y0096869D02*
X0240275Y0096385D01*
X0240759Y0095901D01*
X0241726Y0095901D01*
X0242210Y0095417D01*
X0242210Y0094934D01*
X0242210Y0096869D02*
X0241726Y0097352D01*
X0240759Y0097352D01*
X0240275Y0096869D01*
X0253996Y0097352D02*
X0253996Y0095417D01*
X0255007Y0094450D02*
X0255007Y0097352D01*
X0256942Y0097352D01*
X0263847Y0095901D02*
X0265782Y0095901D01*
X0266793Y0094934D02*
X0267277Y0094450D01*
X0268245Y0094450D01*
X0268728Y0094934D01*
X0266793Y0094934D02*
X0266793Y0096869D01*
X0267277Y0097352D01*
X0268245Y0097352D01*
X0268728Y0096869D01*
X0265298Y0097352D02*
X0263847Y0095901D01*
X0265298Y0094450D02*
X0265298Y0097352D01*
X0219003Y0075051D02*
X0219003Y0073600D01*
X0219003Y0075051D02*
X0218519Y0075535D01*
X0217068Y0075535D01*
X0217068Y0073600D01*
X0216056Y0074084D02*
X0215573Y0073600D01*
X0214605Y0073600D01*
X0214121Y0074084D01*
X0216056Y0076019D01*
X0216056Y0074084D01*
X0214121Y0074084D02*
X0214121Y0076019D01*
X0214605Y0076502D01*
X0215573Y0076502D01*
X0216056Y0076019D01*
X0213110Y0076019D02*
X0213110Y0074084D01*
X0212626Y0073600D01*
X0211659Y0073600D01*
X0211175Y0074084D01*
X0213110Y0076019D01*
X0212626Y0076502D01*
X0211659Y0076502D01*
X0211175Y0076019D01*
X0211175Y0074084D01*
X0210163Y0073600D02*
X0208228Y0073600D01*
X0209196Y0073600D02*
X0209196Y0076502D01*
X0208228Y0075535D01*
X0190196Y0081541D02*
X0190196Y0083476D01*
X0189229Y0084443D01*
X0188261Y0083476D01*
X0188261Y0081541D01*
X0187250Y0082025D02*
X0186766Y0081541D01*
X0185798Y0081541D01*
X0185315Y0082025D01*
X0185315Y0082508D01*
X0185798Y0082992D01*
X0186766Y0082992D01*
X0187250Y0082508D01*
X0187250Y0082025D01*
X0186766Y0082992D02*
X0187250Y0083476D01*
X0187250Y0083960D01*
X0186766Y0084443D01*
X0185798Y0084443D01*
X0185315Y0083960D01*
X0185315Y0083476D01*
X0185798Y0082992D01*
X0184303Y0082508D02*
X0184303Y0082025D01*
X0183819Y0081541D01*
X0182852Y0081541D01*
X0182368Y0082025D01*
X0183336Y0082992D02*
X0183819Y0082992D01*
X0184303Y0082508D01*
X0183819Y0082992D02*
X0184303Y0083476D01*
X0184303Y0083960D01*
X0183819Y0084443D01*
X0182852Y0084443D01*
X0182368Y0083960D01*
X0181357Y0082992D02*
X0179422Y0082992D01*
X0180873Y0084443D01*
X0180873Y0081541D01*
X0178410Y0082025D02*
X0178410Y0082992D01*
X0177926Y0083476D01*
X0177443Y0083476D01*
X0176475Y0082992D01*
X0176475Y0084443D01*
X0178410Y0084443D01*
X0175464Y0084443D02*
X0173529Y0084443D01*
X0173529Y0081541D01*
X0172517Y0082025D02*
X0172033Y0081541D01*
X0171066Y0081541D01*
X0170582Y0082025D01*
X0172517Y0083960D01*
X0172517Y0082025D01*
X0173529Y0082992D02*
X0174496Y0082992D01*
X0172517Y0083960D02*
X0172033Y0084443D01*
X0171066Y0084443D01*
X0170582Y0083960D01*
X0170582Y0082025D01*
X0169571Y0082025D02*
X0169087Y0081541D01*
X0168119Y0081541D01*
X0167636Y0082025D01*
X0168603Y0082992D02*
X0169087Y0082992D01*
X0169571Y0082508D01*
X0169571Y0082025D01*
X0169087Y0082992D02*
X0169571Y0083476D01*
X0169571Y0083960D01*
X0169087Y0084443D01*
X0168119Y0084443D01*
X0167636Y0083960D01*
X0166624Y0082992D02*
X0164689Y0082992D01*
X0166140Y0084443D01*
X0166140Y0081541D01*
X0163678Y0082992D02*
X0163194Y0082508D01*
X0161743Y0082508D01*
X0161743Y0081541D02*
X0161743Y0084443D01*
X0163194Y0084443D01*
X0163678Y0083960D01*
X0163678Y0082992D01*
X0160731Y0082508D02*
X0160731Y0082025D01*
X0160247Y0081541D01*
X0159280Y0081541D01*
X0158796Y0082025D01*
X0159280Y0082992D02*
X0160247Y0082992D01*
X0160731Y0082508D01*
X0160731Y0083960D02*
X0160247Y0084443D01*
X0159280Y0084443D01*
X0158796Y0083960D01*
X0158796Y0083476D01*
X0159280Y0082992D01*
X0157785Y0084443D02*
X0157785Y0081541D01*
X0155850Y0081541D02*
X0155850Y0084443D01*
X0156817Y0083476D01*
X0157785Y0084443D01*
X0176475Y0082025D02*
X0176959Y0081541D01*
X0177926Y0081541D01*
X0178410Y0082025D01*
X0188261Y0082992D02*
X0190196Y0082992D01*
X0206342Y0091351D02*
X0208277Y0091351D01*
X0209289Y0090384D02*
X0209289Y0089900D01*
X0209289Y0090384D02*
X0211224Y0092319D01*
X0211224Y0092802D01*
X0209289Y0092802D01*
X0207793Y0092802D02*
X0206342Y0091351D01*
X0207793Y0089900D02*
X0207793Y0092802D01*
X0212235Y0092319D02*
X0212235Y0090384D01*
X0214170Y0092319D01*
X0214170Y0090384D01*
X0213686Y0089900D01*
X0212719Y0089900D01*
X0212235Y0090384D01*
X0212235Y0092319D02*
X0212719Y0092802D01*
X0213686Y0092802D01*
X0214170Y0092319D01*
X0215182Y0091835D02*
X0215182Y0089900D01*
X0217117Y0089900D02*
X0217117Y0091351D01*
X0216633Y0091835D01*
X0215182Y0091835D01*
X0132256Y0091384D02*
X0131773Y0090900D01*
X0130321Y0090900D01*
X0130321Y0089933D02*
X0130321Y0092835D01*
X0131773Y0092835D01*
X0132256Y0092351D01*
X0132256Y0091384D01*
X0129310Y0090900D02*
X0127375Y0090900D01*
X0129310Y0092835D01*
X0129310Y0093319D01*
X0128826Y0093802D01*
X0127859Y0093802D01*
X0127375Y0093319D01*
X0125396Y0093802D02*
X0125396Y0090900D01*
X0126363Y0090900D02*
X0124428Y0090900D01*
X0124428Y0092835D02*
X0125396Y0093802D01*
X0119617Y0095900D02*
X0119617Y0097351D01*
X0119133Y0097835D01*
X0117682Y0097835D01*
X0117682Y0095900D01*
X0116670Y0096384D02*
X0116186Y0095900D01*
X0115219Y0095900D01*
X0114735Y0096384D01*
X0116670Y0098319D01*
X0116670Y0096384D01*
X0116670Y0098319D02*
X0116186Y0098802D01*
X0115219Y0098802D01*
X0114735Y0098319D01*
X0114735Y0096384D01*
X0113724Y0096384D02*
X0113240Y0095900D01*
X0112272Y0095900D01*
X0111789Y0096384D01*
X0113724Y0098319D01*
X0113724Y0096384D01*
X0113724Y0098319D02*
X0113240Y0098802D01*
X0112272Y0098802D01*
X0111789Y0098319D01*
X0111789Y0096384D01*
X0110777Y0095900D02*
X0108842Y0095900D01*
X0109810Y0095900D02*
X0109810Y0098802D01*
X0108842Y0097835D01*
X0108640Y0090155D02*
X0107672Y0089671D01*
X0106705Y0088704D01*
X0108156Y0088704D01*
X0108640Y0088220D01*
X0108640Y0087736D01*
X0108156Y0087253D01*
X0107189Y0087253D01*
X0106705Y0087736D01*
X0106705Y0088704D01*
X0105693Y0089671D02*
X0103758Y0087736D01*
X0103758Y0087253D01*
X0102769Y0087253D02*
X0102285Y0087253D01*
X0102285Y0087736D01*
X0102769Y0087736D01*
X0102769Y0087253D01*
X0101274Y0087253D02*
X0099339Y0087253D01*
X0101274Y0089188D01*
X0101274Y0089671D01*
X0100790Y0090155D01*
X0099822Y0090155D01*
X0099339Y0089671D01*
X0098327Y0089671D02*
X0098327Y0089188D01*
X0097843Y0088704D01*
X0098327Y0088220D01*
X0098327Y0087736D01*
X0097843Y0087253D01*
X0096876Y0087253D01*
X0096392Y0087736D01*
X0097360Y0088704D02*
X0097843Y0088704D01*
X0098327Y0089671D02*
X0097843Y0090155D01*
X0096876Y0090155D01*
X0096392Y0089671D01*
X0091603Y0093500D02*
X0091603Y0094951D01*
X0091119Y0095435D01*
X0089668Y0095435D01*
X0089668Y0093500D01*
X0088656Y0093984D02*
X0088173Y0093500D01*
X0087205Y0093500D01*
X0086721Y0093984D01*
X0088656Y0095919D01*
X0088656Y0093984D01*
X0086721Y0093984D02*
X0086721Y0095919D01*
X0087205Y0096402D01*
X0088173Y0096402D01*
X0088656Y0095919D01*
X0085710Y0095919D02*
X0085710Y0093984D01*
X0085226Y0093500D01*
X0084259Y0093500D01*
X0083775Y0093984D01*
X0085710Y0095919D01*
X0085226Y0096402D01*
X0084259Y0096402D01*
X0083775Y0095919D01*
X0083775Y0093984D01*
X0082763Y0093500D02*
X0080828Y0093500D01*
X0081796Y0093500D02*
X0081796Y0096402D01*
X0080828Y0095435D01*
X0081996Y0082102D02*
X0081996Y0079200D01*
X0082963Y0079200D02*
X0081028Y0079200D01*
X0081028Y0081135D02*
X0081996Y0082102D01*
X0083975Y0081619D02*
X0084459Y0082102D01*
X0085426Y0082102D01*
X0085910Y0081619D01*
X0083975Y0079684D01*
X0084459Y0079200D01*
X0085426Y0079200D01*
X0085910Y0079684D01*
X0085910Y0081619D01*
X0086921Y0081619D02*
X0087405Y0082102D01*
X0088373Y0082102D01*
X0088856Y0081619D01*
X0086921Y0079684D01*
X0087405Y0079200D01*
X0088373Y0079200D01*
X0088856Y0079684D01*
X0088856Y0081619D01*
X0089868Y0081135D02*
X0091319Y0081135D01*
X0091803Y0080651D01*
X0091803Y0079200D01*
X0089868Y0079200D02*
X0089868Y0081135D01*
X0086921Y0081619D02*
X0086921Y0079684D01*
X0083975Y0079684D02*
X0083975Y0081619D01*
X0083919Y0074202D02*
X0084886Y0074202D01*
X0085370Y0073719D01*
X0083435Y0071784D01*
X0083919Y0071300D01*
X0084886Y0071300D01*
X0085370Y0071784D01*
X0085370Y0073719D01*
X0086382Y0073235D02*
X0087833Y0073235D01*
X0088317Y0072751D01*
X0088317Y0071300D01*
X0086382Y0071300D02*
X0086382Y0073235D01*
X0083919Y0074202D02*
X0083435Y0073719D01*
X0083435Y0071784D01*
X0082424Y0071300D02*
X0080489Y0071300D01*
X0081456Y0071300D02*
X0081456Y0074202D01*
X0080489Y0073235D01*
X0079595Y0072705D02*
X0079112Y0073188D01*
X0078144Y0073188D01*
X0077661Y0072705D01*
X0077661Y0070770D01*
X0079595Y0072705D01*
X0079595Y0070770D01*
X0079112Y0070286D01*
X0078144Y0070286D01*
X0077661Y0070770D01*
X0076649Y0070770D02*
X0076165Y0070286D01*
X0075198Y0070286D01*
X0074714Y0070770D01*
X0074714Y0071737D02*
X0075681Y0072221D01*
X0076165Y0072221D01*
X0076649Y0071737D01*
X0076649Y0070770D01*
X0074714Y0071737D02*
X0074714Y0073188D01*
X0076649Y0073188D01*
X0073702Y0072705D02*
X0071767Y0070770D01*
X0072251Y0070286D01*
X0073219Y0070286D01*
X0073702Y0070770D01*
X0073702Y0072705D01*
X0073219Y0073188D01*
X0072251Y0073188D01*
X0071767Y0072705D01*
X0071767Y0070770D01*
X0070756Y0070770D02*
X0070756Y0071253D01*
X0070272Y0071737D01*
X0068821Y0071737D01*
X0068821Y0070770D01*
X0069305Y0070286D01*
X0070272Y0070286D01*
X0070756Y0070770D01*
X0069788Y0072705D02*
X0068821Y0071737D01*
X0067809Y0071737D02*
X0065874Y0071737D01*
X0064863Y0070770D02*
X0064863Y0073188D01*
X0062928Y0073188D02*
X0062928Y0070770D01*
X0063412Y0070286D01*
X0064379Y0070286D01*
X0064863Y0070770D01*
X0061916Y0071737D02*
X0061433Y0071253D01*
X0059981Y0071253D01*
X0059981Y0070286D02*
X0059981Y0073188D01*
X0061433Y0073188D01*
X0061916Y0072705D01*
X0061916Y0071737D01*
X0058970Y0073188D02*
X0058970Y0070286D01*
X0057035Y0070286D02*
X0057035Y0073188D01*
X0058002Y0072221D01*
X0058970Y0073188D01*
X0069788Y0072705D02*
X0070756Y0073188D01*
X0038628Y0091426D02*
X0035726Y0091426D01*
X0014028Y0093422D02*
X0011126Y0093422D01*
X0011610Y0080625D02*
X0011126Y0080141D01*
X0011126Y0078690D01*
X0014028Y0078690D01*
X0014028Y0080141D01*
X0013545Y0080625D01*
X0011610Y0080625D01*
X0011126Y0077678D02*
X0014028Y0077678D01*
X0011126Y0075743D01*
X0014028Y0075743D01*
X0013545Y0074732D02*
X0012577Y0074732D01*
X0012577Y0073764D01*
X0011610Y0072797D02*
X0013545Y0072797D01*
X0014028Y0073280D01*
X0014028Y0074248D01*
X0013545Y0074732D01*
X0011610Y0074732D02*
X0011126Y0074248D01*
X0011126Y0073280D01*
X0011610Y0072797D01*
X0011126Y0060028D02*
X0014028Y0060028D01*
X0013061Y0050177D02*
X0011126Y0050177D01*
X0011126Y0048242D02*
X0013061Y0048242D01*
X0014028Y0049210D01*
X0013061Y0050177D01*
X0013061Y0047231D02*
X0013545Y0047231D01*
X0014028Y0046747D01*
X0014028Y0045780D01*
X0013545Y0045296D01*
X0013545Y0044306D02*
X0014028Y0044306D01*
X0014028Y0043823D01*
X0013545Y0043823D01*
X0013545Y0044306D01*
X0013545Y0042811D02*
X0014028Y0042327D01*
X0014028Y0041360D01*
X0013545Y0040876D01*
X0012577Y0041844D02*
X0012577Y0042327D01*
X0013061Y0042811D01*
X0013545Y0042811D01*
X0012577Y0042327D02*
X0012093Y0042811D01*
X0011610Y0042811D01*
X0011126Y0042327D01*
X0011126Y0041360D01*
X0011610Y0040876D01*
X0011610Y0045296D02*
X0011126Y0045780D01*
X0011126Y0046747D01*
X0011610Y0047231D01*
X0012093Y0047231D01*
X0012577Y0046747D01*
X0013061Y0047231D01*
X0012577Y0046747D02*
X0012577Y0046263D01*
X0011126Y0028108D02*
X0014028Y0028108D01*
X0013545Y0027096D02*
X0011610Y0027096D01*
X0011126Y0026613D01*
X0011126Y0025161D01*
X0014028Y0025161D01*
X0014028Y0026613D01*
X0013545Y0027096D01*
X0014028Y0024150D02*
X0011126Y0024150D01*
X0011126Y0022215D02*
X0014028Y0024150D01*
X0014028Y0022215D02*
X0011126Y0022215D01*
X0011610Y0021203D02*
X0011126Y0020719D01*
X0011126Y0019752D01*
X0011610Y0019268D01*
X0013545Y0019268D01*
X0014028Y0019752D01*
X0014028Y0020719D01*
X0013545Y0021203D01*
X0012577Y0021203D01*
X0012577Y0020236D01*
X0011126Y0018286D02*
X0014028Y0018286D01*
X0013061Y0011381D02*
X0011126Y0011381D01*
X0011126Y0009447D02*
X0013061Y0009447D01*
X0014028Y0010414D01*
X0013061Y0011381D01*
X0013545Y0008435D02*
X0014028Y0007951D01*
X0014028Y0006984D01*
X0013545Y0006500D01*
X0012577Y0006500D02*
X0012093Y0007467D01*
X0012093Y0007951D01*
X0012577Y0008435D01*
X0013545Y0008435D01*
X0012577Y0006500D02*
X0011126Y0006500D01*
X0011126Y0008435D01*
X0114579Y0056990D02*
X0117482Y0056990D01*
X0117482Y0056023D02*
X0117482Y0057958D01*
X0116998Y0058969D02*
X0115063Y0060904D01*
X0116998Y0060904D01*
X0117482Y0060421D01*
X0117482Y0059453D01*
X0116998Y0058969D01*
X0115063Y0058969D01*
X0114579Y0059453D01*
X0114579Y0060421D01*
X0115063Y0060904D01*
X0115547Y0061916D02*
X0116998Y0061916D01*
X0117482Y0062400D01*
X0117482Y0063851D01*
X0115547Y0063851D01*
X0114579Y0056990D02*
X0115547Y0056023D01*
X0130526Y0056267D02*
X0133428Y0056267D01*
X0133428Y0055300D02*
X0133428Y0057235D01*
X0132945Y0058247D02*
X0131010Y0060181D01*
X0132945Y0060181D01*
X0133428Y0059698D01*
X0133428Y0058730D01*
X0132945Y0058247D01*
X0131010Y0058247D01*
X0130526Y0058730D01*
X0130526Y0059698D01*
X0131010Y0060181D01*
X0131010Y0061193D02*
X0130526Y0061677D01*
X0130526Y0062644D01*
X0131010Y0063128D01*
X0132945Y0061193D01*
X0133428Y0061677D01*
X0133428Y0062644D01*
X0132945Y0063128D01*
X0131010Y0063128D01*
X0131493Y0064140D02*
X0131493Y0065591D01*
X0131977Y0066075D01*
X0133428Y0066075D01*
X0130521Y0069333D02*
X0130521Y0072235D01*
X0131973Y0072235D01*
X0132456Y0071751D01*
X0132456Y0070784D01*
X0131973Y0070300D01*
X0130521Y0070300D01*
X0129510Y0070300D02*
X0127575Y0070300D01*
X0129510Y0072235D01*
X0129510Y0072719D01*
X0129026Y0073202D01*
X0128059Y0073202D01*
X0127575Y0072719D01*
X0125596Y0073202D02*
X0125596Y0070300D01*
X0126563Y0070300D02*
X0124628Y0070300D01*
X0124628Y0072235D02*
X0125596Y0073202D01*
X0131493Y0064140D02*
X0133428Y0064140D01*
X0132945Y0061193D02*
X0131010Y0061193D01*
X0130526Y0056267D02*
X0131493Y0055300D01*
X0119935Y0087253D02*
X0118000Y0087253D01*
X0119935Y0089188D01*
X0118000Y0089188D01*
X0116988Y0088704D02*
X0115053Y0088704D01*
X0114049Y0089188D02*
X0112598Y0088220D01*
X0114049Y0087253D01*
X0115053Y0087253D02*
X0115053Y0090155D01*
X0116988Y0090155D02*
X0116988Y0087253D01*
X0112598Y0087253D02*
X0112598Y0090155D01*
X0111586Y0089671D02*
X0111586Y0089188D01*
X0111103Y0088704D01*
X0110135Y0088704D01*
X0109651Y0089188D01*
X0109651Y0089671D01*
X0110135Y0090155D01*
X0111103Y0090155D01*
X0111586Y0089671D01*
X0111103Y0088704D02*
X0111586Y0088220D01*
X0111586Y0087736D01*
X0111103Y0087253D01*
X0110135Y0087253D01*
X0109651Y0087736D01*
X0109651Y0088220D01*
X0110135Y0088704D01*
X0105693Y0089671D02*
X0105693Y0090155D01*
X0103758Y0090155D01*
X0121335Y0104884D02*
X0123270Y0106819D01*
X0123270Y0104884D01*
X0122786Y0104400D01*
X0121819Y0104400D01*
X0121335Y0104884D01*
X0121335Y0106819D01*
X0121819Y0107302D01*
X0122786Y0107302D01*
X0123270Y0106819D01*
X0124282Y0107302D02*
X0124282Y0104400D01*
X0124282Y0105367D02*
X0125733Y0105367D01*
X0126217Y0105851D01*
X0126217Y0106819D01*
X0125733Y0107302D01*
X0124282Y0107302D01*
X0125249Y0105367D02*
X0126217Y0104400D01*
X0112000Y0109116D02*
X0112000Y0111535D01*
X0110548Y0111535D01*
X0110065Y0111051D01*
X0110065Y0110084D01*
X0110548Y0109600D01*
X0112000Y0109600D01*
X0112000Y0109116D02*
X0111516Y0108633D01*
X0111032Y0108633D01*
X0107609Y0109600D02*
X0107609Y0111535D01*
X0107609Y0110567D02*
X0108577Y0111535D01*
X0109061Y0111535D01*
X0106598Y0111051D02*
X0106598Y0110084D01*
X0106114Y0109600D01*
X0105147Y0109600D01*
X0104663Y0110084D01*
X0104663Y0111051D01*
X0105147Y0111535D01*
X0106114Y0111535D01*
X0106598Y0111051D01*
X0103673Y0110084D02*
X0103673Y0109600D01*
X0103190Y0109600D01*
X0103190Y0110084D01*
X0103673Y0110084D01*
X0102178Y0110084D02*
X0101694Y0110567D01*
X0100727Y0110567D01*
X0100243Y0111051D01*
X0100727Y0111535D01*
X0102178Y0111535D01*
X0102178Y0110084D02*
X0101694Y0109600D01*
X0100243Y0109600D01*
X0099246Y0109600D02*
X0098279Y0109600D01*
X0098762Y0109600D02*
X0098762Y0111535D01*
X0098279Y0111535D01*
X0098762Y0112502D02*
X0098762Y0112986D01*
X0097267Y0111051D02*
X0097267Y0109600D01*
X0097267Y0111051D02*
X0096783Y0111535D01*
X0095332Y0111535D01*
X0095332Y0109600D01*
X0094321Y0109600D02*
X0092869Y0109600D01*
X0092386Y0110084D01*
X0092869Y0110567D01*
X0094321Y0110567D01*
X0094321Y0111051D02*
X0094321Y0109600D01*
X0094321Y0111051D02*
X0093837Y0111535D01*
X0092869Y0111535D01*
X0091389Y0111535D02*
X0090421Y0111535D01*
X0090905Y0112019D02*
X0090905Y0110084D01*
X0091389Y0109600D01*
X0089410Y0109600D02*
X0087959Y0109600D01*
X0087475Y0110084D01*
X0087475Y0111051D01*
X0087959Y0111535D01*
X0089410Y0111535D01*
X0086463Y0111051D02*
X0086463Y0110084D01*
X0085980Y0109600D01*
X0085012Y0109600D01*
X0084528Y0110084D01*
X0084528Y0111051D01*
X0085012Y0111535D01*
X0085980Y0111535D01*
X0086463Y0111051D01*
X0069928Y0110930D02*
X0069445Y0110447D01*
X0067510Y0112381D01*
X0069445Y0112381D01*
X0069928Y0111898D01*
X0069928Y0110930D01*
X0069445Y0110447D02*
X0067510Y0110447D01*
X0067026Y0110930D01*
X0067026Y0111898D01*
X0067510Y0112381D01*
X0067510Y0113393D02*
X0067026Y0113877D01*
X0067026Y0114844D01*
X0067510Y0115328D01*
X0069445Y0113393D01*
X0069928Y0113877D01*
X0069928Y0114844D01*
X0069445Y0115328D01*
X0067510Y0115328D01*
X0067993Y0116340D02*
X0067993Y0117791D01*
X0068477Y0118275D01*
X0069928Y0118275D01*
X0069928Y0116340D02*
X0067993Y0116340D01*
X0067510Y0113393D02*
X0069445Y0113393D01*
X0069928Y0109435D02*
X0069928Y0107500D01*
X0069928Y0108467D02*
X0067026Y0108467D01*
X0067993Y0107500D01*
X0048645Y0131421D02*
X0046710Y0131421D01*
X0046226Y0131905D01*
X0046226Y0132872D01*
X0046710Y0133356D01*
X0078911Y0147052D02*
X0079529Y0147669D01*
X0081380Y0147669D01*
X0014028Y0136132D02*
X0013061Y0135165D01*
X0011126Y0135165D01*
X0011610Y0134153D02*
X0012093Y0134153D01*
X0012577Y0133669D01*
X0013061Y0134153D01*
X0013545Y0134153D01*
X0014028Y0133669D01*
X0014028Y0132702D01*
X0013545Y0132218D01*
X0013545Y0131229D02*
X0014028Y0131229D01*
X0014028Y0130745D01*
X0013545Y0130745D01*
X0013545Y0131229D01*
X0013545Y0129733D02*
X0014028Y0129250D01*
X0014028Y0128282D01*
X0013545Y0127798D01*
X0012577Y0128766D02*
X0012577Y0129250D01*
X0013061Y0129733D01*
X0013545Y0129733D01*
X0012577Y0129250D02*
X0012093Y0129733D01*
X0011610Y0129733D01*
X0011126Y0129250D01*
X0011126Y0128282D01*
X0011610Y0127798D01*
X0011126Y0123870D02*
X0014028Y0123870D01*
X0011610Y0132218D02*
X0011126Y0132702D01*
X0011126Y0133669D01*
X0011610Y0134153D01*
X0012577Y0133669D02*
X0012577Y0133186D01*
X0014028Y0136132D02*
X0013061Y0137100D01*
X0011126Y0137100D01*
D12*
X0088428Y0137150D03*
X0088528Y0137250D03*
X0088628Y0137350D03*
X0088728Y0137450D03*
X0088828Y0137550D03*
X0108628Y0137650D03*
X0108728Y0137550D03*
X0108828Y0137450D03*
X0108928Y0137350D03*
X0108628Y0130450D03*
X0108628Y0130050D03*
X0108628Y0129950D03*
X0108728Y0129550D03*
X0108928Y0119450D03*
X0108828Y0119350D03*
X0108728Y0119250D03*
X0108628Y0119150D03*
X0098728Y0113650D03*
X0096328Y0114150D03*
X0088728Y0119350D03*
X0088628Y0119450D03*
X0088528Y0119550D03*
X0088428Y0119650D03*
D13*
X0090328Y0123850D03*
X0090328Y0123950D03*
X0089928Y0124850D03*
X0089928Y0124950D03*
X0089928Y0125050D03*
X0089828Y0125250D03*
X0089828Y0125350D03*
X0093428Y0132050D03*
X0093028Y0132350D03*
X0092228Y0136050D03*
X0092328Y0136150D03*
X0091728Y0139850D03*
X0098728Y0143050D03*
X0102728Y0138250D03*
X0102928Y0138150D03*
X0104228Y0137150D03*
X0104328Y0137050D03*
X0104428Y0136950D03*
X0098728Y0113750D03*
D14*
X0098778Y0113850D03*
X0098678Y0115950D03*
X0093978Y0119550D03*
X0091578Y0134250D03*
X0098778Y0142950D03*
D15*
X0098728Y0142850D03*
X0098728Y0113950D03*
D16*
X0098728Y0114050D03*
X0093828Y0120550D03*
X0098728Y0142750D03*
D17*
X0098178Y0142050D03*
X0099478Y0141950D03*
X0099478Y0141850D03*
X0099978Y0141850D03*
X0099978Y0141750D03*
X0099978Y0141650D03*
X0089278Y0132450D03*
X0090778Y0130050D03*
X0091478Y0129350D03*
X0091478Y0129250D03*
X0091578Y0126350D03*
X0091578Y0126150D03*
X0095178Y0122850D03*
X0097078Y0122950D03*
X0097578Y0120150D03*
X0099678Y0120150D03*
X0101078Y0119950D03*
X0102678Y0119850D03*
X0103178Y0120050D03*
X0103678Y0119950D03*
X0107678Y0118550D03*
X0107778Y0118250D03*
X0108278Y0118250D03*
X0107678Y0117450D03*
X0105478Y0117150D03*
X0105078Y0117050D03*
X0104978Y0117150D03*
X0103778Y0116050D03*
X0100778Y0115250D03*
X0100778Y0115150D03*
X0098378Y0114150D03*
X0097278Y0115550D03*
X0097278Y0115650D03*
X0096478Y0114950D03*
X0096078Y0115250D03*
X0096078Y0115350D03*
X0096178Y0115450D03*
X0096178Y0115550D03*
X0096178Y0115650D03*
X0095478Y0115750D03*
X0094878Y0115250D03*
X0093678Y0115250D03*
X0093678Y0115350D03*
X0093278Y0115950D03*
X0093278Y0116250D03*
X0091878Y0116950D03*
X0091478Y0116850D03*
X0091778Y0117350D03*
X0090878Y0117950D03*
X0090578Y0118250D03*
X0090478Y0118150D03*
X0089978Y0118650D03*
X0098278Y0127450D03*
X0106978Y0123350D03*
D18*
X0099678Y0121250D03*
X0105578Y0117850D03*
X0105378Y0117750D03*
X0105278Y0117650D03*
X0105078Y0117550D03*
X0104878Y0117450D03*
X0105278Y0116850D03*
X0104778Y0115950D03*
X0102978Y0115850D03*
X0099878Y0115050D03*
X0099878Y0114950D03*
X0099078Y0114150D03*
X0096778Y0114650D03*
X0096878Y0115250D03*
X0095678Y0115050D03*
X0095678Y0114950D03*
X0095678Y0114850D03*
X0095578Y0114750D03*
X0095578Y0114650D03*
X0092278Y0116150D03*
X0092278Y0117650D03*
X0091778Y0117950D03*
X0089878Y0116850D03*
X0089778Y0116950D03*
X0089678Y0117050D03*
X0089478Y0117150D03*
X0088578Y0118050D03*
X0106778Y0118650D03*
X0108178Y0117350D03*
X0108478Y0117550D03*
X0109178Y0118350D03*
X0107578Y0116850D03*
X0107478Y0116750D03*
X0102578Y0141350D03*
X0101378Y0141250D03*
X0098778Y0142550D03*
X0096378Y0142050D03*
D19*
X0092128Y0140750D03*
X0088128Y0136750D03*
X0088028Y0136650D03*
X0087928Y0136550D03*
X0088928Y0130950D03*
X0088728Y0129950D03*
X0093428Y0131650D03*
X0108228Y0132250D03*
X0108228Y0132350D03*
X0108328Y0132050D03*
X0108428Y0131750D03*
X0108428Y0131650D03*
X0108528Y0131350D03*
X0108628Y0130950D03*
X0108628Y0130850D03*
X0108628Y0130750D03*
X0108828Y0129450D03*
X0109628Y0136450D03*
X0109528Y0136650D03*
X0109428Y0136750D03*
X0109328Y0136850D03*
X0109228Y0136950D03*
X0109628Y0120350D03*
X0109528Y0120150D03*
X0109428Y0120050D03*
X0109328Y0119950D03*
X0109228Y0119850D03*
X0101828Y0116150D03*
X0101328Y0114150D03*
X0088128Y0120050D03*
X0088028Y0120150D03*
X0087928Y0120250D03*
D20*
X0087628Y0120650D03*
X0087528Y0120850D03*
X0087428Y0120950D03*
X0087328Y0121050D03*
X0087328Y0121150D03*
X0087228Y0121250D03*
X0087128Y0121450D03*
X0095728Y0114250D03*
X0102028Y0114350D03*
X0109928Y0120750D03*
X0110028Y0120850D03*
X0110128Y0121050D03*
X0110228Y0121150D03*
X0110328Y0121350D03*
X0108928Y0129350D03*
X0108128Y0132750D03*
X0108128Y0132850D03*
X0107628Y0133850D03*
X0110328Y0135450D03*
X0110228Y0135650D03*
X0110128Y0135750D03*
X0110028Y0135950D03*
X0109928Y0136050D03*
X0101628Y0140650D03*
X0102628Y0142250D03*
X0087528Y0135950D03*
X0087428Y0135850D03*
X0087328Y0135750D03*
X0087328Y0135650D03*
X0087228Y0135550D03*
X0087128Y0135350D03*
X0088728Y0130650D03*
D21*
X0090028Y0131250D03*
X0092928Y0130950D03*
X0096028Y0131750D03*
X0096128Y0131650D03*
X0096328Y0131550D03*
X0100828Y0131550D03*
X0101028Y0131650D03*
X0101128Y0131750D03*
X0101928Y0132350D03*
X0102028Y0132450D03*
X0102028Y0132550D03*
X0102128Y0132650D03*
X0098428Y0125550D03*
X0099628Y0120950D03*
X0099628Y0120850D03*
X0099828Y0120550D03*
X0099928Y0120350D03*
X0100028Y0120250D03*
X0100228Y0119950D03*
X0100328Y0119850D03*
X0104128Y0116350D03*
X0105428Y0117050D03*
X0106128Y0117450D03*
X0106628Y0117750D03*
X0106628Y0117850D03*
X0106928Y0117350D03*
X0107428Y0117650D03*
X0107328Y0118050D03*
X0107228Y0118150D03*
X0102128Y0114950D03*
X0101428Y0115050D03*
X0101328Y0115250D03*
X0101328Y0115350D03*
X0101228Y0115550D03*
X0098528Y0115350D03*
X0098528Y0115250D03*
X0098528Y0115150D03*
X0098428Y0114950D03*
X0098328Y0114750D03*
X0098328Y0114650D03*
X0097728Y0114450D03*
X0097728Y0114350D03*
X0097728Y0114250D03*
X0097828Y0115150D03*
X0097828Y0115250D03*
X0095528Y0115450D03*
X0094828Y0115550D03*
X0093828Y0115750D03*
X0093828Y0116250D03*
X0091828Y0117050D03*
X0091828Y0117150D03*
X0091228Y0117450D03*
X0090928Y0116950D03*
X0090528Y0117350D03*
X0090028Y0118350D03*
X0091428Y0116550D03*
X0091428Y0116450D03*
X0108528Y0126050D03*
X0101228Y0142050D03*
X0101328Y0142150D03*
X0100628Y0142350D03*
X0100528Y0142150D03*
X0100528Y0142050D03*
X0100528Y0141950D03*
X0100528Y0141850D03*
X0100528Y0141750D03*
X0099628Y0141250D03*
X0098928Y0141650D03*
X0098928Y0141750D03*
X0097728Y0142350D03*
X0097428Y0141550D03*
X0097428Y0141450D03*
X0097428Y0141350D03*
X0095228Y0140950D03*
X0094928Y0141750D03*
D22*
X0094878Y0141850D03*
X0094278Y0141350D03*
X0094278Y0141250D03*
X0094378Y0140950D03*
X0094378Y0140850D03*
X0097478Y0141850D03*
X0097478Y0141950D03*
X0097478Y0142050D03*
X0098278Y0141250D03*
X0098778Y0142350D03*
X0101278Y0141350D03*
X0102578Y0134850D03*
X0101678Y0132050D03*
X0099878Y0131150D03*
X0097278Y0131150D03*
X0098578Y0125450D03*
X0099678Y0122450D03*
X0103278Y0119850D03*
X0099678Y0119350D03*
X0097578Y0119350D03*
X0097478Y0119250D03*
X0098478Y0115550D03*
X0099078Y0114250D03*
X0100878Y0114450D03*
X0103078Y0114950D03*
X0103078Y0115050D03*
X0103078Y0115150D03*
X0103078Y0115250D03*
X0103078Y0115350D03*
X0103078Y0115450D03*
X0103078Y0115550D03*
X0104078Y0115350D03*
X0106478Y0116750D03*
X0106878Y0118850D03*
X0106978Y0118950D03*
X0109178Y0118250D03*
X0094778Y0115750D03*
X0093978Y0115450D03*
X0092978Y0115650D03*
X0090878Y0117050D03*
X0091178Y0117650D03*
X0090578Y0118850D03*
X0090478Y0118950D03*
X0090378Y0119050D03*
D23*
X0089978Y0118450D03*
X0093878Y0116350D03*
X0093878Y0115650D03*
X0094178Y0115250D03*
X0094778Y0115650D03*
X0094478Y0115950D03*
X0095578Y0115550D03*
X0096778Y0115450D03*
X0096978Y0114550D03*
X0098378Y0114850D03*
X0099978Y0114350D03*
X0099978Y0114250D03*
X0100878Y0114650D03*
X0101278Y0115450D03*
X0101178Y0115650D03*
X0101978Y0115650D03*
X0102178Y0115050D03*
X0103978Y0116550D03*
X0104078Y0116450D03*
X0104278Y0116250D03*
X0105778Y0116350D03*
X0105878Y0116250D03*
X0107078Y0117250D03*
X0107378Y0117750D03*
X0107178Y0118250D03*
X0100978Y0119850D03*
X0099778Y0118850D03*
X0098578Y0118850D03*
X0097478Y0118850D03*
X0099778Y0122550D03*
X0098578Y0125150D03*
X0098578Y0125250D03*
X0098378Y0125650D03*
X0098378Y0125750D03*
X0098278Y0125850D03*
X0098578Y0130850D03*
X0096678Y0131350D03*
X0096478Y0131450D03*
X0100478Y0131350D03*
X0100678Y0131450D03*
X0101778Y0132150D03*
X0101878Y0132250D03*
X0102478Y0133650D03*
X0095278Y0140850D03*
X0094378Y0140750D03*
X0094278Y0141450D03*
X0096678Y0141150D03*
X0096678Y0141050D03*
X0097778Y0142450D03*
X0098878Y0141950D03*
X0098878Y0141850D03*
X0099578Y0141150D03*
X0099878Y0142450D03*
X0101178Y0141550D03*
X0101678Y0141050D03*
X0101878Y0141850D03*
X0090078Y0131150D03*
D24*
X0085878Y0132650D03*
X0085778Y0132350D03*
X0085978Y0132950D03*
X0086078Y0133150D03*
X0086078Y0133250D03*
X0086178Y0133450D03*
X0086178Y0133550D03*
X0086278Y0133650D03*
X0086278Y0133750D03*
X0086378Y0133950D03*
X0086478Y0134150D03*
X0095278Y0142450D03*
X0098578Y0141050D03*
X0102478Y0142350D03*
X0103678Y0141850D03*
X0104978Y0141150D03*
X0100078Y0134550D03*
X0107978Y0133450D03*
X0111078Y0134050D03*
X0111178Y0133850D03*
X0111278Y0133650D03*
X0111278Y0133550D03*
X0111378Y0133450D03*
X0111378Y0133350D03*
X0111378Y0133250D03*
X0111478Y0133150D03*
X0111478Y0133050D03*
X0111578Y0132850D03*
X0111578Y0132750D03*
X0111678Y0132550D03*
X0111678Y0124250D03*
X0111578Y0123950D03*
X0111478Y0123750D03*
X0111478Y0123650D03*
X0111378Y0123450D03*
X0111378Y0123350D03*
X0111278Y0123250D03*
X0111278Y0123150D03*
X0111178Y0122950D03*
X0111078Y0122750D03*
X0105878Y0120250D03*
X0105778Y0120150D03*
X0108878Y0118950D03*
X0101878Y0114250D03*
X0099178Y0115650D03*
X0086478Y0122650D03*
X0086378Y0122850D03*
X0086278Y0123050D03*
X0086278Y0123150D03*
X0086178Y0123250D03*
X0086178Y0123350D03*
X0086078Y0123550D03*
X0086078Y0123650D03*
X0085978Y0123850D03*
X0085878Y0124150D03*
X0085778Y0124450D03*
D25*
X0088578Y0118850D03*
X0095078Y0114350D03*
X0106778Y0121050D03*
X0106878Y0121150D03*
X0107678Y0122450D03*
X0107978Y0122850D03*
X0107978Y0122950D03*
X0108678Y0124450D03*
X0108678Y0124550D03*
X0108678Y0124650D03*
X0109278Y0127050D03*
X0109278Y0127150D03*
X0109278Y0127250D03*
X0088578Y0131550D03*
X0088478Y0131150D03*
X0092478Y0141250D03*
X0094278Y0142150D03*
X0103478Y0142050D03*
X0104878Y0141350D03*
D26*
X0101028Y0141050D03*
X0099928Y0141950D03*
X0099928Y0142050D03*
X0099528Y0141750D03*
X0099528Y0141650D03*
X0099528Y0141550D03*
X0099028Y0141250D03*
X0099028Y0141150D03*
X0098228Y0141850D03*
X0098228Y0141950D03*
X0096728Y0142150D03*
X0096228Y0142250D03*
X0095128Y0141250D03*
X0102828Y0135250D03*
X0102828Y0135150D03*
X0102828Y0135050D03*
X0102828Y0134950D03*
X0102828Y0134650D03*
X0102828Y0134550D03*
X0102828Y0134450D03*
X0102728Y0134350D03*
X0102728Y0134250D03*
X0102728Y0134150D03*
X0102728Y0134050D03*
X0102728Y0133950D03*
X0102628Y0133850D03*
X0102628Y0133750D03*
X0102528Y0133350D03*
X0102428Y0133250D03*
X0102328Y0133050D03*
X0102228Y0132850D03*
X0101828Y0131950D03*
X0101828Y0131850D03*
X0101728Y0131750D03*
X0101728Y0131650D03*
X0101628Y0131550D03*
X0101628Y0131450D03*
X0101528Y0131350D03*
X0101528Y0131250D03*
X0101428Y0131050D03*
X0101328Y0130850D03*
X0101228Y0130650D03*
X0101128Y0130450D03*
X0101128Y0130350D03*
X0101028Y0130250D03*
X0101028Y0130150D03*
X0100928Y0130050D03*
X0100928Y0129950D03*
X0100828Y0129850D03*
X0100828Y0129750D03*
X0100728Y0129550D03*
X0100628Y0129350D03*
X0100528Y0129150D03*
X0100428Y0128950D03*
X0100428Y0128850D03*
X0100328Y0128750D03*
X0100328Y0128650D03*
X0100228Y0128550D03*
X0100228Y0128450D03*
X0100128Y0128350D03*
X0100128Y0128250D03*
X0100028Y0128050D03*
X0099928Y0127850D03*
X0099828Y0127650D03*
X0099728Y0127450D03*
X0099728Y0127350D03*
X0099628Y0127250D03*
X0099628Y0127150D03*
X0099528Y0127050D03*
X0099528Y0126950D03*
X0099428Y0126850D03*
X0099428Y0126750D03*
X0099328Y0126550D03*
X0099228Y0126350D03*
X0099128Y0126150D03*
X0099028Y0125950D03*
X0099028Y0125850D03*
X0098928Y0125750D03*
X0098928Y0125650D03*
X0098828Y0125550D03*
X0098428Y0125950D03*
X0098428Y0126050D03*
X0098428Y0126150D03*
X0098428Y0126250D03*
X0098428Y0126350D03*
X0098428Y0126450D03*
X0098428Y0126550D03*
X0098328Y0126650D03*
X0098328Y0126750D03*
X0098328Y0126850D03*
X0098328Y0126950D03*
X0098328Y0127050D03*
X0098328Y0127150D03*
X0098328Y0127250D03*
X0098328Y0127350D03*
X0098228Y0127550D03*
X0098228Y0127650D03*
X0098228Y0127750D03*
X0098228Y0127850D03*
X0098228Y0127950D03*
X0098228Y0128050D03*
X0098228Y0128150D03*
X0098228Y0128250D03*
X0098128Y0128350D03*
X0098128Y0128450D03*
X0098128Y0128550D03*
X0098128Y0128650D03*
X0098128Y0128750D03*
X0098128Y0128850D03*
X0098128Y0128950D03*
X0098128Y0129050D03*
X0098128Y0129150D03*
X0098028Y0129250D03*
X0098028Y0129350D03*
X0098028Y0129450D03*
X0098028Y0129550D03*
X0098028Y0129650D03*
X0098028Y0129750D03*
X0098028Y0129850D03*
X0098028Y0129950D03*
X0097928Y0130050D03*
X0097928Y0130150D03*
X0097928Y0130250D03*
X0097928Y0130350D03*
X0097928Y0130450D03*
X0097928Y0130550D03*
X0097928Y0130650D03*
X0097928Y0130750D03*
X0097828Y0131150D03*
X0097828Y0131250D03*
X0097828Y0131350D03*
X0097828Y0131450D03*
X0097828Y0131550D03*
X0097828Y0131650D03*
X0097828Y0131750D03*
X0097728Y0131850D03*
X0097728Y0131950D03*
X0097728Y0132050D03*
X0097728Y0132150D03*
X0097728Y0132250D03*
X0097728Y0132350D03*
X0097728Y0132450D03*
X0097728Y0132550D03*
X0097628Y0132650D03*
X0097628Y0132750D03*
X0097628Y0132850D03*
X0097628Y0132950D03*
X0097628Y0133050D03*
X0095428Y0131750D03*
X0095528Y0131550D03*
X0095528Y0131450D03*
X0095628Y0131350D03*
X0095628Y0131250D03*
X0095728Y0131150D03*
X0095728Y0131050D03*
X0095828Y0130950D03*
X0095828Y0130850D03*
X0095928Y0130650D03*
X0096028Y0130450D03*
X0096128Y0130250D03*
X0096228Y0130050D03*
X0096228Y0129950D03*
X0096328Y0129850D03*
X0096328Y0129750D03*
X0096428Y0129650D03*
X0096428Y0129550D03*
X0096528Y0129350D03*
X0096628Y0129150D03*
X0096728Y0128950D03*
X0096728Y0128850D03*
X0096828Y0128750D03*
X0096828Y0128650D03*
X0096928Y0128550D03*
X0096928Y0128450D03*
X0097028Y0128350D03*
X0097028Y0128250D03*
X0097128Y0128150D03*
X0097128Y0128050D03*
X0097228Y0127850D03*
X0097328Y0127650D03*
X0097428Y0127450D03*
X0097428Y0127350D03*
X0097528Y0127250D03*
X0097528Y0127150D03*
X0097628Y0127050D03*
X0097628Y0126950D03*
X0097728Y0126850D03*
X0097728Y0126750D03*
X0097828Y0126550D03*
X0097928Y0126350D03*
X0098028Y0126150D03*
X0098028Y0126050D03*
X0098128Y0125950D03*
X0098528Y0124850D03*
X0098528Y0124750D03*
X0098528Y0124650D03*
X0098528Y0124550D03*
X0098628Y0124450D03*
X0098628Y0124350D03*
X0098628Y0124250D03*
X0098628Y0124150D03*
X0098628Y0124050D03*
X0098628Y0123950D03*
X0098628Y0123850D03*
X0098628Y0123750D03*
X0098628Y0123650D03*
X0098628Y0123550D03*
X0098628Y0123450D03*
X0098628Y0123350D03*
X0098628Y0123250D03*
X0098628Y0123150D03*
X0098628Y0123050D03*
X0098628Y0122950D03*
X0098628Y0122850D03*
X0098628Y0122750D03*
X0099828Y0122750D03*
X0096628Y0122950D03*
X0103128Y0119950D03*
X0106728Y0117950D03*
X0106628Y0117650D03*
X0106128Y0117550D03*
X0107828Y0118350D03*
X0104728Y0115550D03*
X0104628Y0115650D03*
X0103828Y0115850D03*
X0103828Y0115950D03*
X0102028Y0115750D03*
X0101528Y0114750D03*
X0101628Y0114650D03*
X0101628Y0114550D03*
X0100828Y0115050D03*
X0099028Y0115050D03*
X0099028Y0114950D03*
X0099028Y0114850D03*
X0098328Y0114550D03*
X0098328Y0114450D03*
X0098328Y0114350D03*
X0097628Y0114750D03*
X0097128Y0114950D03*
X0097128Y0115050D03*
X0097228Y0115450D03*
X0097128Y0114450D03*
X0097128Y0114350D03*
X0096028Y0115150D03*
X0095628Y0115350D03*
X0096128Y0115750D03*
X0095028Y0115950D03*
X0095028Y0116050D03*
X0094828Y0115150D03*
X0094828Y0115050D03*
X0093628Y0115150D03*
X0093228Y0116150D03*
X0091828Y0117250D03*
X0090528Y0117450D03*
X0090328Y0117950D03*
X0090428Y0118050D03*
X0090628Y0118350D03*
X0090028Y0118250D03*
X0089528Y0118150D03*
X0091428Y0129150D03*
X0090828Y0129950D03*
X0089228Y0132350D03*
X0103228Y0135050D03*
X0103828Y0134350D03*
X0105828Y0133850D03*
X0108528Y0126250D03*
X0108528Y0126150D03*
D27*
X0100228Y0131250D03*
X0096928Y0131250D03*
X0098528Y0125350D03*
X0093128Y0123550D03*
X0097528Y0118950D03*
X0098628Y0118950D03*
X0099728Y0118950D03*
X0099628Y0121050D03*
X0105428Y0116950D03*
X0105728Y0116450D03*
X0106328Y0116950D03*
X0106328Y0117050D03*
X0106228Y0117150D03*
X0106128Y0117250D03*
X0106128Y0117350D03*
X0106428Y0116850D03*
X0104628Y0115850D03*
X0104028Y0115450D03*
X0102128Y0115450D03*
X0102128Y0115350D03*
X0102128Y0115250D03*
X0102128Y0115150D03*
X0102028Y0115550D03*
X0101128Y0115750D03*
X0100928Y0114550D03*
X0099928Y0114550D03*
X0099928Y0114450D03*
X0099028Y0114450D03*
X0099028Y0114350D03*
X0098528Y0115450D03*
X0094128Y0115350D03*
X0093928Y0115550D03*
X0091228Y0117550D03*
X0090928Y0117750D03*
X0090628Y0117250D03*
X0089628Y0117950D03*
X0095928Y0141150D03*
X0097428Y0141650D03*
X0097428Y0141750D03*
X0097628Y0142250D03*
X0097728Y0142550D03*
X0098828Y0142250D03*
X0098828Y0142150D03*
X0098828Y0142050D03*
X0098228Y0141450D03*
X0098228Y0141350D03*
X0101228Y0141450D03*
D28*
X0096128Y0140650D03*
X0094128Y0142050D03*
X0088628Y0131450D03*
X0098628Y0120050D03*
X0098628Y0119950D03*
X0098628Y0119850D03*
X0098628Y0119750D03*
X0098628Y0119650D03*
X0098628Y0119550D03*
X0096128Y0116150D03*
X0094828Y0114450D03*
X0088528Y0118950D03*
X0107128Y0121550D03*
X0108028Y0123050D03*
X0108028Y0123150D03*
X0108928Y0118850D03*
D29*
X0106728Y0120950D03*
X0106628Y0120850D03*
X0107128Y0121450D03*
X0107428Y0121950D03*
X0107728Y0122350D03*
X0107928Y0122650D03*
X0107928Y0122750D03*
X0108228Y0123350D03*
X0108328Y0123450D03*
X0108828Y0124750D03*
X0108928Y0125050D03*
X0109328Y0126950D03*
X0109328Y0127350D03*
X0109328Y0127450D03*
X0109328Y0127550D03*
X0109328Y0127650D03*
X0109328Y0127750D03*
X0109328Y0128450D03*
X0109328Y0128550D03*
X0109328Y0128650D03*
X0109328Y0128750D03*
X0109328Y0128850D03*
X0101928Y0140550D03*
X0103228Y0142150D03*
X0088528Y0131250D03*
X0102728Y0114450D03*
X0103728Y0114850D03*
D30*
X0102128Y0116250D03*
X0094728Y0114550D03*
X0088528Y0119050D03*
X0086128Y0123450D03*
X0086028Y0123750D03*
X0085928Y0123950D03*
X0085928Y0124050D03*
X0085828Y0124250D03*
X0085828Y0124350D03*
X0085728Y0124550D03*
X0085728Y0124650D03*
X0085728Y0124750D03*
X0085628Y0124850D03*
X0085628Y0124950D03*
X0085628Y0125050D03*
X0085528Y0125250D03*
X0085528Y0125350D03*
X0085528Y0125450D03*
X0085428Y0125750D03*
X0085428Y0125850D03*
X0085428Y0125950D03*
X0085328Y0126350D03*
X0085328Y0126450D03*
X0085228Y0127350D03*
X0085228Y0129450D03*
X0085328Y0130350D03*
X0085328Y0130450D03*
X0085428Y0130850D03*
X0085428Y0130950D03*
X0085428Y0131050D03*
X0085528Y0131350D03*
X0085528Y0131450D03*
X0085528Y0131550D03*
X0085628Y0131750D03*
X0085628Y0131850D03*
X0085628Y0131950D03*
X0085728Y0132050D03*
X0085728Y0132150D03*
X0085728Y0132250D03*
X0085828Y0132450D03*
X0085828Y0132550D03*
X0085928Y0132750D03*
X0085928Y0132850D03*
X0086028Y0133050D03*
X0086128Y0133350D03*
X0088728Y0131350D03*
X0092328Y0141050D03*
X0095028Y0142350D03*
X0104928Y0141250D03*
X0111528Y0132950D03*
X0111628Y0132650D03*
X0111728Y0132450D03*
X0111728Y0132350D03*
X0111728Y0132250D03*
X0111828Y0132150D03*
X0111828Y0132050D03*
X0111828Y0131950D03*
X0111828Y0131850D03*
X0111928Y0131750D03*
X0111928Y0131650D03*
X0111928Y0131550D03*
X0112028Y0131350D03*
X0112028Y0131250D03*
X0112028Y0131150D03*
X0112128Y0130750D03*
X0112128Y0130650D03*
X0112228Y0130050D03*
X0112228Y0129950D03*
X0112228Y0126850D03*
X0112228Y0126750D03*
X0112128Y0126150D03*
X0112128Y0126050D03*
X0112028Y0125650D03*
X0112028Y0125550D03*
X0112028Y0125450D03*
X0111928Y0125250D03*
X0111928Y0125150D03*
X0111928Y0125050D03*
X0111828Y0124950D03*
X0111828Y0124850D03*
X0111828Y0124750D03*
X0111828Y0124650D03*
X0111728Y0124550D03*
X0111728Y0124450D03*
X0111728Y0124350D03*
X0111628Y0124150D03*
X0111628Y0124050D03*
X0111528Y0123850D03*
X0111428Y0123550D03*
X0107128Y0121750D03*
D31*
X0107778Y0118450D03*
X0108278Y0118150D03*
X0107378Y0117950D03*
X0107378Y0117850D03*
X0107578Y0117550D03*
X0104578Y0115750D03*
X0104078Y0115550D03*
X0102078Y0114850D03*
X0101478Y0114850D03*
X0101478Y0114950D03*
X0101378Y0115150D03*
X0098478Y0115050D03*
X0097778Y0115350D03*
X0097678Y0114650D03*
X0097678Y0114550D03*
X0097078Y0115150D03*
X0095578Y0115650D03*
X0094878Y0115450D03*
X0094878Y0115350D03*
X0094778Y0114950D03*
X0094678Y0114850D03*
X0094278Y0115150D03*
X0093778Y0115850D03*
X0093778Y0115950D03*
X0093778Y0116050D03*
X0093778Y0116150D03*
X0093178Y0116050D03*
X0092878Y0115750D03*
X0094478Y0116050D03*
X0091478Y0116650D03*
X0091478Y0116750D03*
X0091178Y0117250D03*
X0091278Y0117350D03*
X0090878Y0116850D03*
X0090878Y0116750D03*
X0090878Y0117850D03*
X0089978Y0118550D03*
X0089578Y0118050D03*
X0099678Y0120750D03*
X0099778Y0120650D03*
X0099878Y0120450D03*
X0100078Y0120150D03*
X0100178Y0120050D03*
X0099778Y0122650D03*
X0098578Y0124950D03*
X0098578Y0125050D03*
X0099078Y0126050D03*
X0099178Y0126250D03*
X0099278Y0126450D03*
X0099378Y0126650D03*
X0099778Y0127550D03*
X0099878Y0127750D03*
X0099978Y0127950D03*
X0100078Y0128150D03*
X0100478Y0129050D03*
X0100578Y0129250D03*
X0100678Y0129450D03*
X0100778Y0129650D03*
X0101178Y0130550D03*
X0101278Y0130750D03*
X0101378Y0130950D03*
X0101478Y0131150D03*
X0101278Y0131850D03*
X0101378Y0131950D03*
X0102178Y0132750D03*
X0102278Y0132950D03*
X0102378Y0133150D03*
X0102478Y0133450D03*
X0103878Y0134450D03*
X0097878Y0130850D03*
X0096178Y0130150D03*
X0096078Y0130350D03*
X0095978Y0130550D03*
X0095878Y0130750D03*
X0095478Y0131650D03*
X0095878Y0131850D03*
X0096478Y0129450D03*
X0096578Y0129250D03*
X0096678Y0129050D03*
X0097178Y0127950D03*
X0097278Y0127750D03*
X0097378Y0127550D03*
X0097778Y0126650D03*
X0097878Y0126450D03*
X0097978Y0126250D03*
X0090878Y0129850D03*
X0094378Y0140650D03*
X0095178Y0141050D03*
X0095178Y0141150D03*
X0095078Y0141350D03*
X0095078Y0141450D03*
X0094978Y0141550D03*
X0094978Y0141650D03*
X0094278Y0141550D03*
X0096278Y0142150D03*
X0097378Y0141250D03*
X0097378Y0141150D03*
X0098978Y0141350D03*
X0098978Y0141450D03*
X0098978Y0141550D03*
X0099578Y0141450D03*
X0099578Y0141350D03*
X0099878Y0142150D03*
X0099878Y0142250D03*
X0099878Y0142350D03*
X0100578Y0142250D03*
X0100478Y0141650D03*
X0100478Y0141550D03*
X0100478Y0141450D03*
X0100478Y0141350D03*
X0100478Y0141250D03*
X0100478Y0141150D03*
X0100378Y0141050D03*
X0100978Y0140950D03*
X0101178Y0141650D03*
X0101178Y0141750D03*
X0101178Y0141850D03*
X0101178Y0141950D03*
D32*
X0104678Y0141550D03*
X0092778Y0141550D03*
X0088478Y0131950D03*
X0106578Y0120650D03*
X0108578Y0123650D03*
X0108678Y0123950D03*
X0108678Y0124050D03*
X0109278Y0125850D03*
X0109278Y0125950D03*
X0109378Y0126850D03*
X0104678Y0115250D03*
X0103378Y0114650D03*
X0103178Y0114550D03*
X0093878Y0114750D03*
X0091578Y0115950D03*
D33*
X0092428Y0115450D03*
X0093228Y0116950D03*
X0094028Y0114650D03*
X0095728Y0116250D03*
X0089328Y0117750D03*
X0088528Y0118550D03*
X0108628Y0123750D03*
X0108628Y0123850D03*
X0109228Y0125450D03*
X0109228Y0125550D03*
X0109228Y0125650D03*
X0109228Y0125750D03*
X0109428Y0126350D03*
X0109428Y0126450D03*
X0109428Y0126550D03*
X0109028Y0118650D03*
X0100628Y0133350D03*
X0101328Y0134650D03*
X0095728Y0140550D03*
X0092928Y0141650D03*
X0104528Y0141650D03*
X0088528Y0132050D03*
D34*
X0093028Y0131050D03*
X0094328Y0141050D03*
X0094328Y0141150D03*
X0097528Y0142150D03*
X0098228Y0141150D03*
X0098828Y0142450D03*
X0099628Y0121150D03*
X0099728Y0119250D03*
X0099728Y0119150D03*
X0099728Y0119050D03*
X0098628Y0119050D03*
X0098628Y0119150D03*
X0098628Y0119250D03*
X0098628Y0119350D03*
X0097528Y0119150D03*
X0097528Y0119050D03*
X0096928Y0115350D03*
X0096828Y0114850D03*
X0096828Y0114750D03*
X0094728Y0115850D03*
X0092228Y0116050D03*
X0090828Y0117150D03*
X0091628Y0118050D03*
X0091528Y0118150D03*
X0091328Y0118250D03*
X0091228Y0118350D03*
X0090928Y0118550D03*
X0090828Y0118650D03*
X0090728Y0118750D03*
X0091928Y0117850D03*
X0088728Y0117850D03*
X0088628Y0117950D03*
X0099928Y0114850D03*
X0099928Y0114750D03*
X0099928Y0114650D03*
X0103028Y0115650D03*
X0103028Y0115750D03*
X0108128Y0117250D03*
X0108328Y0117450D03*
X0109128Y0118150D03*
X0106828Y0118750D03*
X0106128Y0118250D03*
X0106028Y0118150D03*
X0105828Y0118050D03*
X0105728Y0117950D03*
D35*
X0106628Y0120750D03*
X0107928Y0122550D03*
X0109028Y0125250D03*
X0109428Y0127950D03*
X0109428Y0128050D03*
X0109428Y0128150D03*
X0101228Y0119650D03*
X0103628Y0114750D03*
X0092328Y0115550D03*
X0088528Y0118650D03*
X0088528Y0131750D03*
X0088528Y0131850D03*
X0092628Y0141450D03*
D36*
X0102178Y0134750D03*
X0101478Y0133450D03*
X0099478Y0122050D03*
X0099478Y0121950D03*
X0106678Y0118350D03*
X0107678Y0117150D03*
X0106378Y0116150D03*
X0104478Y0115050D03*
X0104278Y0114950D03*
X0109078Y0118550D03*
X0093478Y0114850D03*
X0093178Y0114950D03*
X0092578Y0115250D03*
X0089378Y0117550D03*
D37*
X0088528Y0118450D03*
X0093128Y0117050D03*
X0091628Y0115850D03*
X0093028Y0115050D03*
X0095328Y0116350D03*
X0097228Y0122850D03*
X0102628Y0116450D03*
X0107028Y0116650D03*
X0102628Y0141650D03*
D38*
X0096228Y0141450D03*
X0096228Y0141350D03*
X0095428Y0140450D03*
X0093228Y0131150D03*
X0099528Y0121850D03*
X0099528Y0121750D03*
X0108628Y0117950D03*
X0108728Y0118050D03*
X0107028Y0116550D03*
X0106328Y0116050D03*
X0103528Y0116750D03*
X0102828Y0116550D03*
X0094328Y0116650D03*
X0093028Y0117150D03*
X0092728Y0115150D03*
X0090828Y0116350D03*
X0088528Y0118350D03*
X0109528Y0126050D03*
X0109528Y0126250D03*
D39*
X0099578Y0121550D03*
X0099578Y0121450D03*
X0103878Y0116950D03*
X0104778Y0116050D03*
X0105778Y0115650D03*
X0105978Y0115750D03*
X0099878Y0115350D03*
X0099878Y0115250D03*
X0099878Y0115150D03*
X0092778Y0116750D03*
X0092478Y0116450D03*
X0092778Y0117350D03*
X0091978Y0117750D03*
X0091078Y0116050D03*
X0090378Y0116550D03*
X0089378Y0117350D03*
X0089778Y0117850D03*
X0088378Y0132650D03*
X0088578Y0133150D03*
X0088578Y0133250D03*
X0088678Y0133450D03*
X0102578Y0140750D03*
X0102678Y0140850D03*
X0102778Y0141150D03*
X0102778Y0141250D03*
D40*
X0102178Y0140450D03*
X0093278Y0141850D03*
X0093078Y0141750D03*
X0097978Y0134350D03*
X0093278Y0131250D03*
X0088478Y0132150D03*
X0088478Y0132250D03*
X0109478Y0126750D03*
X0109478Y0126650D03*
X0109178Y0125350D03*
X0103378Y0116650D03*
X0104578Y0115150D03*
X0094478Y0116550D03*
X0092478Y0115350D03*
X0089378Y0117650D03*
D41*
X0089378Y0117450D03*
X0090878Y0116250D03*
X0091678Y0115750D03*
X0094078Y0116750D03*
X0099878Y0115550D03*
X0105178Y0115350D03*
X0105378Y0115450D03*
X0105578Y0115550D03*
X0105278Y0116550D03*
X0105178Y0116650D03*
X0106678Y0118450D03*
X0107678Y0117050D03*
X0108578Y0117850D03*
X0109578Y0126150D03*
X0095778Y0133350D03*
X0088578Y0132950D03*
X0088578Y0132850D03*
X0088378Y0132450D03*
X0088378Y0132350D03*
X0096278Y0141250D03*
X0096178Y0141550D03*
X0096178Y0141650D03*
X0096178Y0141750D03*
X0096178Y0141850D03*
D42*
X0096228Y0141950D03*
X0095128Y0140350D03*
X0102428Y0140350D03*
X0102528Y0141550D03*
X0095228Y0134650D03*
X0088628Y0133050D03*
X0088428Y0132750D03*
X0088428Y0132550D03*
X0102128Y0133550D03*
X0099528Y0121650D03*
X0100728Y0119750D03*
X0103728Y0116850D03*
X0104728Y0116150D03*
X0105228Y0116750D03*
X0106128Y0115850D03*
X0106228Y0115950D03*
X0106928Y0116450D03*
X0107628Y0116950D03*
X0108528Y0117750D03*
X0109128Y0118450D03*
X0106728Y0118550D03*
X0099828Y0115450D03*
X0092928Y0117250D03*
X0092628Y0116650D03*
X0092528Y0116550D03*
X0091728Y0115650D03*
X0090928Y0116150D03*
X0090328Y0116650D03*
X0088528Y0118250D03*
D43*
X0098778Y0115750D03*
X0089078Y0126350D03*
X0088978Y0126550D03*
X0107178Y0134150D03*
X0107978Y0138250D03*
X0107878Y0138350D03*
X0107778Y0138450D03*
X0105278Y0140650D03*
X0089478Y0138250D03*
X0089378Y0138150D03*
X0108578Y0129650D03*
D44*
X0105378Y0135450D03*
X0092578Y0140250D03*
X0090878Y0123350D03*
X0090978Y0123250D03*
X0103278Y0119150D03*
X0098678Y0115850D03*
D45*
X0102928Y0115950D03*
X0104128Y0117050D03*
X0104328Y0117150D03*
X0104528Y0117250D03*
X0104728Y0117350D03*
X0106728Y0116250D03*
X0106928Y0116350D03*
X0108528Y0117650D03*
X0099628Y0121350D03*
X0092628Y0117450D03*
X0092428Y0117550D03*
X0092428Y0116350D03*
X0092328Y0116250D03*
X0090428Y0116450D03*
X0090028Y0116750D03*
X0089428Y0117250D03*
X0088528Y0118150D03*
X0091028Y0118450D03*
X0097728Y0131050D03*
X0099428Y0131050D03*
X0088628Y0133350D03*
X0101428Y0141150D03*
X0102528Y0141450D03*
X0102728Y0141050D03*
X0102728Y0140950D03*
X0102628Y0140250D03*
D46*
X0098728Y0139450D03*
X0098728Y0117350D03*
X0099428Y0116050D03*
D47*
X0102378Y0116350D03*
X0106978Y0121250D03*
X0107078Y0121350D03*
X0107578Y0122050D03*
X0107678Y0122150D03*
X0107678Y0122250D03*
X0108378Y0123550D03*
X0108678Y0124150D03*
X0108678Y0124250D03*
X0108678Y0124350D03*
X0108878Y0124850D03*
X0108878Y0124950D03*
X0108978Y0125150D03*
X0109378Y0127850D03*
X0109378Y0128250D03*
X0109378Y0128350D03*
X0109378Y0128950D03*
X0109378Y0129050D03*
X0098578Y0130950D03*
X0096178Y0134550D03*
X0088578Y0131650D03*
X0092578Y0141350D03*
X0094478Y0142250D03*
X0104778Y0141450D03*
X0108978Y0118750D03*
X0094678Y0116450D03*
X0093378Y0116850D03*
X0088578Y0118750D03*
D48*
X0087178Y0121350D03*
X0087078Y0121550D03*
X0086978Y0121650D03*
X0086978Y0121750D03*
X0086878Y0121850D03*
X0086778Y0122050D03*
X0086678Y0122250D03*
X0098778Y0116750D03*
X0105378Y0119850D03*
X0105478Y0119950D03*
X0105578Y0120050D03*
X0110278Y0121250D03*
X0110378Y0121450D03*
X0110478Y0121550D03*
X0110478Y0121650D03*
X0110578Y0121750D03*
X0110678Y0121950D03*
X0110778Y0122150D03*
X0108978Y0129250D03*
X0108078Y0132950D03*
X0108078Y0133050D03*
X0108078Y0133150D03*
X0107778Y0133750D03*
X0110478Y0135150D03*
X0110478Y0135250D03*
X0110378Y0135350D03*
X0110278Y0135550D03*
X0110578Y0135050D03*
X0110678Y0134850D03*
X0110778Y0134650D03*
X0105078Y0141050D03*
X0098778Y0140050D03*
X0087178Y0135450D03*
X0087078Y0135250D03*
X0086978Y0135150D03*
X0086978Y0135050D03*
X0086878Y0134950D03*
X0086778Y0134750D03*
X0086678Y0134550D03*
X0088678Y0130550D03*
X0088678Y0130450D03*
X0088678Y0130350D03*
X0093578Y0131550D03*
D49*
X0093428Y0131850D03*
X0089128Y0129350D03*
X0089128Y0129250D03*
X0089128Y0129150D03*
X0089128Y0128250D03*
X0089328Y0126150D03*
X0094328Y0118650D03*
X0098728Y0116850D03*
X0104628Y0119750D03*
X0107028Y0139050D03*
X0106928Y0139150D03*
X0106728Y0139250D03*
X0105428Y0140350D03*
X0098728Y0139950D03*
X0098528Y0140950D03*
X0092028Y0140350D03*
X0090628Y0139150D03*
D50*
X0092128Y0140050D03*
X0098728Y0139850D03*
X0102028Y0138550D03*
X0105128Y0135950D03*
X0105728Y0135150D03*
X0098228Y0133250D03*
X0092728Y0132550D03*
X0092628Y0132650D03*
X0092528Y0132750D03*
X0092428Y0132850D03*
X0092328Y0133050D03*
X0091828Y0135250D03*
X0091928Y0135350D03*
X0091928Y0135450D03*
X0094128Y0119150D03*
X0098728Y0116950D03*
X0103228Y0119050D03*
D51*
X0103328Y0119450D03*
X0098728Y0117050D03*
X0091328Y0123050D03*
X0091528Y0134150D03*
X0098728Y0139750D03*
D52*
X0098778Y0139650D03*
X0093878Y0120050D03*
X0098778Y0117150D03*
D53*
X0098728Y0117250D03*
X0093828Y0120450D03*
X0098728Y0139550D03*
D54*
X0098778Y0139350D03*
X0098778Y0117450D03*
D55*
X0098728Y0117550D03*
X0093728Y0121550D03*
X0098728Y0139250D03*
D56*
X0098778Y0139150D03*
X0098778Y0117650D03*
D57*
X0098778Y0117750D03*
X0098778Y0139050D03*
D58*
X0098778Y0138950D03*
X0098778Y0117850D03*
D59*
X0098778Y0117950D03*
X0098778Y0138850D03*
D60*
X0098778Y0138750D03*
X0098778Y0118050D03*
D61*
X0098778Y0118150D03*
X0098778Y0138650D03*
D62*
X0098728Y0118250D03*
D63*
X0098728Y0118350D03*
D64*
X0098778Y0118450D03*
D65*
X0094378Y0118550D03*
X0104578Y0119650D03*
X0089178Y0127150D03*
X0089078Y0127450D03*
X0089078Y0127550D03*
X0089078Y0127650D03*
X0089078Y0127750D03*
X0089078Y0127850D03*
X0089078Y0128150D03*
X0089178Y0129450D03*
X0090478Y0139050D03*
X0105378Y0140450D03*
X0107178Y0138950D03*
X0106778Y0134350D03*
D66*
X0093728Y0121250D03*
X0100828Y0118550D03*
D67*
X0103078Y0118650D03*
X0090078Y0124050D03*
X0090078Y0124150D03*
X0090078Y0124250D03*
X0089578Y0125650D03*
X0089578Y0125750D03*
X0089578Y0125950D03*
X0089478Y0126050D03*
X0089278Y0128650D03*
X0089278Y0128750D03*
X0092678Y0136650D03*
X0092778Y0136750D03*
X0092878Y0136850D03*
X0094578Y0138250D03*
X0094778Y0138350D03*
X0091078Y0139450D03*
X0106278Y0139550D03*
D68*
X0106428Y0139450D03*
X0105528Y0140250D03*
X0106628Y0134450D03*
X0094428Y0138150D03*
X0094228Y0138050D03*
X0093928Y0137850D03*
X0093428Y0137450D03*
X0093328Y0137350D03*
X0093228Y0137250D03*
X0093128Y0137150D03*
X0093028Y0137050D03*
X0092928Y0136950D03*
X0090928Y0139350D03*
X0089228Y0128550D03*
X0089228Y0128450D03*
X0089628Y0125550D03*
X0089628Y0125450D03*
X0094228Y0118750D03*
D69*
X0094228Y0118850D03*
X0090028Y0124350D03*
X0090028Y0124450D03*
X0089628Y0125850D03*
X0089328Y0128950D03*
X0089328Y0129050D03*
X0098128Y0134450D03*
X0092628Y0136550D03*
X0092528Y0136450D03*
X0091228Y0139550D03*
X0103528Y0137750D03*
X0106128Y0139650D03*
X0103128Y0118750D03*
D70*
X0103178Y0118850D03*
X0094178Y0118950D03*
X0105978Y0135050D03*
X0104678Y0136650D03*
X0104578Y0136750D03*
X0104478Y0136850D03*
X0102578Y0138350D03*
X0105578Y0139950D03*
X0105778Y0139850D03*
X0095278Y0138550D03*
X0092178Y0135950D03*
X0092078Y0135750D03*
D71*
X0091978Y0135550D03*
X0104878Y0136350D03*
X0104978Y0136250D03*
X0104978Y0136150D03*
X0105078Y0136050D03*
X0106178Y0134650D03*
X0105378Y0140050D03*
X0103178Y0118950D03*
D72*
X0094128Y0119050D03*
X0092828Y0132450D03*
X0092028Y0135650D03*
X0092128Y0135850D03*
X0091928Y0139950D03*
X0098728Y0140850D03*
X0102328Y0138450D03*
X0104728Y0136550D03*
X0104828Y0136450D03*
X0106028Y0134950D03*
X0106028Y0134850D03*
X0106128Y0134750D03*
X0106228Y0134550D03*
D73*
X0107378Y0133950D03*
X0108478Y0137750D03*
X0093278Y0131750D03*
X0088878Y0129850D03*
X0088878Y0137650D03*
X0088978Y0137750D03*
X0089078Y0137850D03*
X0089178Y0137950D03*
X0092078Y0140650D03*
X0088778Y0119250D03*
X0088878Y0119150D03*
X0108478Y0119050D03*
D74*
X0094128Y0119250D03*
X0090828Y0123450D03*
X0092128Y0133350D03*
X0091728Y0134950D03*
X0105328Y0135550D03*
X0105328Y0135650D03*
D75*
X0105428Y0135350D03*
X0091628Y0134650D03*
X0094028Y0119350D03*
X0103328Y0119250D03*
D76*
X0103328Y0119350D03*
X0094028Y0119450D03*
X0091128Y0123150D03*
X0091528Y0134350D03*
X0091828Y0134850D03*
D77*
X0093628Y0131450D03*
X0086828Y0134850D03*
X0086728Y0134650D03*
X0086628Y0134450D03*
X0086528Y0134350D03*
X0086528Y0134250D03*
X0086428Y0134050D03*
X0086328Y0133850D03*
X0092228Y0140950D03*
X0107828Y0133650D03*
X0107928Y0133550D03*
X0108028Y0133350D03*
X0108028Y0133250D03*
X0110828Y0134550D03*
X0110928Y0134450D03*
X0110928Y0134350D03*
X0111028Y0134250D03*
X0111028Y0134150D03*
X0111128Y0133950D03*
X0111228Y0133750D03*
X0110728Y0134750D03*
X0110628Y0134950D03*
X0109028Y0129150D03*
X0111228Y0123050D03*
X0111128Y0122850D03*
X0111028Y0122650D03*
X0111028Y0122550D03*
X0110928Y0122450D03*
X0110928Y0122350D03*
X0110828Y0122250D03*
X0110728Y0122050D03*
X0110628Y0121850D03*
X0098628Y0119450D03*
X0086828Y0121950D03*
X0086728Y0122150D03*
X0086628Y0122350D03*
X0086528Y0122450D03*
X0086528Y0122550D03*
X0086428Y0122750D03*
X0086328Y0122950D03*
D78*
X0093978Y0119650D03*
X0103378Y0119550D03*
X0091478Y0133950D03*
X0091478Y0134050D03*
D79*
X0088378Y0137050D03*
X0088278Y0136950D03*
X0088178Y0136850D03*
X0088978Y0130850D03*
X0098078Y0133150D03*
X0108578Y0130650D03*
X0108578Y0130550D03*
X0108678Y0130350D03*
X0108678Y0130250D03*
X0108678Y0130150D03*
X0109178Y0137050D03*
X0109078Y0137150D03*
X0108978Y0137250D03*
X0105178Y0140850D03*
X0098778Y0143150D03*
X0088178Y0119950D03*
X0088278Y0119850D03*
X0088378Y0119750D03*
X0108978Y0119550D03*
X0109078Y0119650D03*
X0109178Y0119750D03*
D80*
X0093978Y0119750D03*
X0091578Y0122850D03*
X0092578Y0133450D03*
X0091478Y0133750D03*
X0091478Y0133850D03*
D81*
X0093928Y0119850D03*
D82*
X0093928Y0119950D03*
X0091528Y0133650D03*
D83*
X0093878Y0120150D03*
D84*
X0093878Y0120250D03*
D85*
X0096678Y0122750D03*
X0087878Y0120350D03*
X0087778Y0120450D03*
X0087678Y0120550D03*
X0087578Y0120750D03*
X0088678Y0130050D03*
X0088678Y0130150D03*
X0088678Y0130250D03*
X0088778Y0130750D03*
X0088878Y0131050D03*
X0087578Y0136050D03*
X0087678Y0136150D03*
X0087678Y0136250D03*
X0087778Y0136350D03*
X0087878Y0136450D03*
X0092178Y0140850D03*
X0095778Y0142550D03*
X0101978Y0142450D03*
X0105078Y0140950D03*
X0109578Y0136550D03*
X0109678Y0136350D03*
X0109778Y0136250D03*
X0109878Y0136150D03*
X0110078Y0135850D03*
X0108178Y0132650D03*
X0108178Y0132550D03*
X0108178Y0132450D03*
X0108278Y0132150D03*
X0108378Y0131950D03*
X0108378Y0131850D03*
X0108478Y0131550D03*
X0108478Y0131450D03*
X0108578Y0131250D03*
X0108578Y0131150D03*
X0108578Y0131050D03*
X0110078Y0120950D03*
X0109878Y0120650D03*
X0109778Y0120550D03*
X0109678Y0120450D03*
X0109578Y0120250D03*
D86*
X0093828Y0120350D03*
D87*
X0085578Y0125150D03*
X0085478Y0125550D03*
X0085478Y0125650D03*
X0085378Y0126050D03*
X0085378Y0126150D03*
X0085378Y0126250D03*
X0085278Y0126550D03*
X0085278Y0126650D03*
X0085278Y0126750D03*
X0085278Y0126850D03*
X0085278Y0126950D03*
X0085278Y0127050D03*
X0085278Y0127150D03*
X0085278Y0127250D03*
X0085178Y0127450D03*
X0085178Y0127550D03*
X0085178Y0127650D03*
X0085178Y0127750D03*
X0085178Y0127850D03*
X0085178Y0127950D03*
X0085178Y0128050D03*
X0085178Y0128150D03*
X0085178Y0128250D03*
X0085178Y0128350D03*
X0085178Y0128450D03*
X0085178Y0128550D03*
X0085178Y0128650D03*
X0085178Y0128750D03*
X0085178Y0128850D03*
X0085178Y0128950D03*
X0085178Y0129050D03*
X0085178Y0129150D03*
X0085178Y0129250D03*
X0085178Y0129350D03*
X0085278Y0129550D03*
X0085278Y0129650D03*
X0085278Y0129750D03*
X0085278Y0129850D03*
X0085278Y0129950D03*
X0085278Y0130050D03*
X0085278Y0130150D03*
X0085278Y0130250D03*
X0085378Y0130550D03*
X0085378Y0130650D03*
X0085378Y0130750D03*
X0085478Y0131150D03*
X0085478Y0131250D03*
X0085578Y0131650D03*
X0093578Y0131350D03*
X0108078Y0123250D03*
X0107278Y0121850D03*
X0107078Y0121650D03*
X0106278Y0120550D03*
X0106178Y0120450D03*
X0106078Y0120350D03*
X0111978Y0125350D03*
X0112078Y0125750D03*
X0112078Y0125850D03*
X0112078Y0125950D03*
X0112178Y0126250D03*
X0112178Y0126350D03*
X0112178Y0126450D03*
X0112178Y0126550D03*
X0112178Y0126650D03*
X0112278Y0126950D03*
X0112278Y0127050D03*
X0112278Y0127150D03*
X0112278Y0127250D03*
X0112278Y0127350D03*
X0112278Y0127450D03*
X0112278Y0127550D03*
X0112278Y0127650D03*
X0112278Y0127750D03*
X0112278Y0127850D03*
X0112278Y0127950D03*
X0112278Y0128050D03*
X0112278Y0128150D03*
X0112278Y0128250D03*
X0112278Y0128350D03*
X0112278Y0128450D03*
X0112278Y0128550D03*
X0112278Y0128650D03*
X0112278Y0128750D03*
X0112278Y0128850D03*
X0112278Y0128950D03*
X0112278Y0129050D03*
X0112278Y0129150D03*
X0112278Y0129250D03*
X0112278Y0129350D03*
X0112278Y0129450D03*
X0112278Y0129550D03*
X0112278Y0129650D03*
X0112278Y0129750D03*
X0112278Y0129850D03*
X0112178Y0130150D03*
X0112178Y0130250D03*
X0112178Y0130350D03*
X0112178Y0130450D03*
X0112178Y0130550D03*
X0112078Y0130850D03*
X0112078Y0130950D03*
X0112078Y0131050D03*
X0111978Y0131450D03*
X0103578Y0141950D03*
X0093978Y0141950D03*
X0092378Y0141150D03*
D88*
X0093778Y0120650D03*
D89*
X0093778Y0120750D03*
D90*
X0093778Y0120850D03*
D91*
X0093728Y0120950D03*
D92*
X0093778Y0121050D03*
X0098778Y0142650D03*
D93*
X0093728Y0121150D03*
D94*
X0093728Y0121350D03*
X0093728Y0121450D03*
D95*
X0093728Y0121650D03*
D96*
X0093678Y0121750D03*
D97*
X0093728Y0121850D03*
D98*
X0093728Y0121950D03*
X0093728Y0122050D03*
D99*
X0094378Y0122350D03*
X0094478Y0122150D03*
D100*
X0094428Y0122250D03*
D101*
X0093878Y0122450D03*
D102*
X0093678Y0122550D03*
D103*
X0093628Y0122650D03*
D104*
X0091678Y0122750D03*
X0098278Y0140750D03*
D105*
X0092028Y0134750D03*
X0091428Y0122950D03*
D106*
X0090378Y0123550D03*
X0090378Y0123650D03*
X0090378Y0123750D03*
X0089978Y0124550D03*
X0089978Y0124650D03*
X0089978Y0124750D03*
X0089878Y0125150D03*
X0089378Y0128850D03*
X0093178Y0132250D03*
X0093278Y0132150D03*
X0093578Y0131950D03*
X0092378Y0136250D03*
X0092478Y0136350D03*
X0094978Y0138450D03*
X0091578Y0139750D03*
X0091378Y0139650D03*
X0103078Y0138050D03*
X0103278Y0137950D03*
X0103378Y0137850D03*
X0103678Y0137650D03*
X0103778Y0137550D03*
X0103878Y0137450D03*
X0103978Y0137350D03*
X0104078Y0137250D03*
X0105978Y0139750D03*
D107*
X0107578Y0138650D03*
X0106978Y0134250D03*
X0090078Y0138750D03*
X0089978Y0138650D03*
X0089178Y0126250D03*
D108*
X0089028Y0126450D03*
X0088928Y0126650D03*
X0088928Y0126750D03*
X0088928Y0126850D03*
X0088928Y0126950D03*
X0088928Y0127050D03*
X0089328Y0138050D03*
X0092028Y0140550D03*
X0101428Y0142550D03*
X0103428Y0141750D03*
X0105228Y0140750D03*
X0108128Y0138150D03*
X0108228Y0138050D03*
X0108328Y0137950D03*
X0108428Y0137850D03*
X0107228Y0134050D03*
X0108628Y0129850D03*
X0108628Y0129750D03*
D109*
X0107428Y0138750D03*
X0107328Y0138850D03*
X0090328Y0138950D03*
X0090228Y0138850D03*
X0089128Y0129750D03*
X0089128Y0129650D03*
X0089128Y0129550D03*
X0089028Y0128050D03*
X0089028Y0127950D03*
X0089128Y0127350D03*
X0089128Y0127250D03*
D110*
X0089178Y0128350D03*
X0093578Y0137550D03*
X0093678Y0137650D03*
X0093778Y0137750D03*
X0094078Y0137950D03*
X0090778Y0139250D03*
X0106578Y0139350D03*
D111*
X0105178Y0140150D03*
X0105178Y0135850D03*
X0105278Y0135750D03*
X0105678Y0135250D03*
X0092378Y0132950D03*
X0092278Y0133150D03*
X0092178Y0133250D03*
X0091778Y0135050D03*
X0091778Y0135150D03*
X0092378Y0140150D03*
D112*
X0091728Y0133550D03*
D113*
X0091578Y0134450D03*
X0091578Y0134550D03*
D114*
X0089628Y0138350D03*
X0089728Y0138450D03*
X0089828Y0138550D03*
X0092028Y0140450D03*
X0105328Y0140550D03*
X0107628Y0138550D03*
D115*
X0143300Y0110709D02*
X0143300Y0055591D01*
X0198418Y0055591D01*
X0198418Y0110709D01*
X0143300Y0110709D01*
X0144682Y0108339D02*
X0144684Y0108405D01*
X0144690Y0108471D01*
X0144700Y0108537D01*
X0144713Y0108602D01*
X0144731Y0108666D01*
X0144752Y0108728D01*
X0144777Y0108790D01*
X0144805Y0108850D01*
X0144837Y0108908D01*
X0144873Y0108964D01*
X0144911Y0109017D01*
X0144953Y0109069D01*
X0144998Y0109118D01*
X0145045Y0109164D01*
X0145096Y0109207D01*
X0145148Y0109247D01*
X0145203Y0109284D01*
X0145260Y0109318D01*
X0145319Y0109348D01*
X0145380Y0109375D01*
X0145442Y0109398D01*
X0145505Y0109417D01*
X0145570Y0109433D01*
X0145635Y0109445D01*
X0145701Y0109453D01*
X0145767Y0109457D01*
X0145833Y0109457D01*
X0145899Y0109453D01*
X0145965Y0109445D01*
X0146030Y0109433D01*
X0146095Y0109417D01*
X0146158Y0109398D01*
X0146220Y0109375D01*
X0146281Y0109348D01*
X0146340Y0109318D01*
X0146397Y0109284D01*
X0146452Y0109247D01*
X0146504Y0109207D01*
X0146555Y0109164D01*
X0146602Y0109118D01*
X0146647Y0109069D01*
X0146689Y0109017D01*
X0146727Y0108964D01*
X0146763Y0108908D01*
X0146795Y0108850D01*
X0146823Y0108790D01*
X0146848Y0108728D01*
X0146869Y0108666D01*
X0146887Y0108602D01*
X0146900Y0108537D01*
X0146910Y0108471D01*
X0146916Y0108405D01*
X0146918Y0108339D01*
X0146916Y0108273D01*
X0146910Y0108207D01*
X0146900Y0108141D01*
X0146887Y0108076D01*
X0146869Y0108012D01*
X0146848Y0107950D01*
X0146823Y0107888D01*
X0146795Y0107828D01*
X0146763Y0107770D01*
X0146727Y0107714D01*
X0146689Y0107661D01*
X0146647Y0107609D01*
X0146602Y0107560D01*
X0146555Y0107514D01*
X0146504Y0107471D01*
X0146452Y0107431D01*
X0146397Y0107394D01*
X0146340Y0107360D01*
X0146281Y0107330D01*
X0146220Y0107303D01*
X0146158Y0107280D01*
X0146095Y0107261D01*
X0146030Y0107245D01*
X0145965Y0107233D01*
X0145899Y0107225D01*
X0145833Y0107221D01*
X0145767Y0107221D01*
X0145701Y0107225D01*
X0145635Y0107233D01*
X0145570Y0107245D01*
X0145505Y0107261D01*
X0145442Y0107280D01*
X0145380Y0107303D01*
X0145319Y0107330D01*
X0145260Y0107360D01*
X0145203Y0107394D01*
X0145148Y0107431D01*
X0145096Y0107471D01*
X0145045Y0107514D01*
X0144998Y0107560D01*
X0144953Y0107609D01*
X0144911Y0107661D01*
X0144873Y0107714D01*
X0144837Y0107770D01*
X0144805Y0107828D01*
X0144777Y0107888D01*
X0144752Y0107950D01*
X0144731Y0108012D01*
X0144713Y0108076D01*
X0144700Y0108141D01*
X0144690Y0108207D01*
X0144684Y0108273D01*
X0144682Y0108339D01*
X0075852Y0091224D02*
X0075852Y0089649D01*
X0075852Y0091224D01*
X0074277Y0091224D01*
X0075852Y0091224D01*
X0061679Y0091224D02*
X0060104Y0091224D01*
X0060104Y0089649D01*
X0060104Y0091224D01*
X0061679Y0091224D01*
X0060104Y0077051D02*
X0060104Y0076854D01*
X0061482Y0075476D01*
X0061679Y0075476D01*
X0060104Y0076854D02*
X0060104Y0077051D01*
X0074277Y0075476D02*
X0075852Y0075476D01*
X0075852Y0077051D01*
X0075852Y0075476D01*
X0074277Y0075476D01*
X0060159Y0041081D02*
X0059253Y0041081D01*
X0060159Y0041081D02*
X0060159Y0029269D01*
X0059253Y0029269D01*
X0052553Y0025975D02*
X0035953Y0025975D01*
X0035953Y0009375D01*
X0052553Y0009375D01*
X0052553Y0025975D01*
X0050710Y0030057D02*
X0050710Y0031238D01*
X0048348Y0031238D01*
X0048348Y0029269D01*
X0049253Y0029269D01*
X0048348Y0031238D02*
X0048348Y0041081D01*
X0049253Y0041081D01*
X0079728Y0015203D02*
X0081230Y0016704D01*
X0081230Y0012200D01*
X0082731Y0012200D02*
X0079728Y0012200D01*
X0119728Y0012200D02*
X0122731Y0012200D01*
X0121230Y0012200D02*
X0121230Y0016704D01*
X0119728Y0015203D01*
X0125228Y0014452D02*
X0128231Y0014452D01*
X0127480Y0016704D02*
X0125228Y0014452D01*
X0127480Y0012200D02*
X0127480Y0016704D01*
X0159728Y0015303D02*
X0161230Y0016804D01*
X0161230Y0012300D01*
X0162731Y0012300D02*
X0159728Y0012300D01*
X0165228Y0014452D02*
X0168231Y0014452D01*
X0167480Y0016704D02*
X0165228Y0014452D01*
X0167480Y0012200D02*
X0167480Y0016704D01*
X0199728Y0015303D02*
X0201230Y0016804D01*
X0201230Y0012300D01*
X0202731Y0012300D02*
X0199728Y0012300D01*
X0205228Y0014552D02*
X0208231Y0014552D01*
X0207480Y0016804D02*
X0205228Y0014552D01*
X0207480Y0012300D02*
X0207480Y0016804D01*
X0245228Y0014552D02*
X0248231Y0014552D01*
X0247480Y0016804D02*
X0245228Y0014552D01*
X0247480Y0012300D02*
X0247480Y0016804D01*
X0267478Y0001250D02*
X0267478Y0171250D01*
X0307478Y0171250D01*
X0307478Y0001250D01*
X0267478Y0001250D01*
X0040684Y0136644D02*
X0040684Y0148456D01*
X0028873Y0148456D01*
X0028873Y0136644D01*
X0040684Y0136644D01*
D116*
X0137478Y0122742D03*
X0142978Y0122642D03*
X0098270Y0052850D03*
X0059553Y0012708D03*
D117*
X0083978Y0011950D02*
X0086478Y0009450D01*
X0091478Y0009450D01*
X0093978Y0011950D01*
X0096478Y0009450D01*
X0101478Y0009450D01*
X0103978Y0011950D01*
X0106478Y0009450D01*
X0111478Y0009450D01*
X0113978Y0011950D01*
X0116478Y0009450D01*
X0121478Y0009450D01*
X0123978Y0011950D01*
X0126478Y0009450D01*
X0131478Y0009450D01*
X0133978Y0011950D01*
X0136478Y0009450D01*
X0141478Y0009450D01*
X0143978Y0011950D01*
X0146478Y0009450D01*
X0151478Y0009450D01*
X0153978Y0011950D01*
X0156478Y0009450D01*
X0161478Y0009450D01*
X0163978Y0011950D01*
X0163978Y0016950D01*
X0161478Y0019450D01*
X0156478Y0019450D01*
X0153978Y0016950D01*
X0151478Y0019450D01*
X0146478Y0019450D01*
X0143978Y0016950D01*
X0141478Y0019450D01*
X0136478Y0019450D01*
X0133978Y0016950D01*
X0131478Y0019450D01*
X0126478Y0019450D01*
X0123978Y0016950D01*
X0123978Y0011950D01*
X0123978Y0016950D01*
X0121478Y0019450D01*
X0116478Y0019450D01*
X0113978Y0016950D01*
X0111478Y0019450D01*
X0106478Y0019450D01*
X0103978Y0016950D01*
X0101478Y0019450D01*
X0096478Y0019450D01*
X0093978Y0016950D01*
X0091478Y0019450D01*
X0086478Y0019450D01*
X0083978Y0016950D01*
X0083978Y0011950D01*
X0034553Y0012675D02*
X0034553Y0007675D01*
X0032053Y0005175D01*
X0017053Y0005175D01*
X0014553Y0007675D01*
X0014553Y0012675D01*
X0017053Y0015175D01*
X0032053Y0015175D01*
X0034553Y0012675D01*
X0032053Y0015175D02*
X0034553Y0017675D01*
X0034553Y0022675D01*
X0032053Y0025175D01*
X0017053Y0025175D01*
X0014553Y0022675D01*
X0014553Y0017675D01*
X0017053Y0015175D01*
X0017053Y0025175D02*
X0014553Y0027675D01*
X0014553Y0032675D01*
X0017053Y0035175D01*
X0032053Y0035175D01*
X0034553Y0032675D01*
X0034553Y0027675D01*
X0032053Y0025175D01*
X0032053Y0035175D02*
X0034553Y0037675D01*
X0034553Y0042675D01*
X0032053Y0045175D01*
X0017053Y0045175D01*
X0014553Y0042675D01*
X0014553Y0037675D01*
X0017053Y0035175D01*
X0017053Y0045175D02*
X0014553Y0047675D01*
X0014553Y0052675D01*
X0017053Y0055175D01*
X0032053Y0055175D01*
X0034553Y0052675D01*
X0034553Y0047675D01*
X0032053Y0045175D01*
X0032053Y0055175D02*
X0034553Y0057675D01*
X0034553Y0062675D01*
X0032053Y0065175D01*
X0017053Y0065175D01*
X0014553Y0062675D01*
X0014553Y0057675D01*
X0017053Y0055175D01*
X0017053Y0065175D02*
X0014553Y0067675D01*
X0014553Y0072675D01*
X0017053Y0075175D01*
X0032053Y0075175D01*
X0034553Y0072675D01*
X0034553Y0067675D01*
X0032053Y0065175D01*
X0031978Y0075250D02*
X0016978Y0075250D01*
X0014478Y0077750D01*
X0014478Y0082750D01*
X0016978Y0085250D01*
X0031978Y0085250D01*
X0034478Y0082750D01*
X0034478Y0077750D01*
X0031978Y0075250D01*
X0031978Y0085250D02*
X0034478Y0087750D01*
X0034478Y0092750D01*
X0031978Y0095250D01*
X0016978Y0095250D01*
X0014478Y0092750D01*
X0014478Y0087750D01*
X0016978Y0085250D01*
X0099812Y0085150D02*
X0099812Y0079150D01*
X0099814Y0079090D01*
X0099819Y0079029D01*
X0099828Y0078970D01*
X0099841Y0078911D01*
X0099857Y0078852D01*
X0099877Y0078795D01*
X0099900Y0078740D01*
X0099927Y0078685D01*
X0099956Y0078633D01*
X0099989Y0078582D01*
X0100025Y0078533D01*
X0100063Y0078487D01*
X0100105Y0078443D01*
X0100149Y0078401D01*
X0100195Y0078363D01*
X0100244Y0078327D01*
X0100295Y0078294D01*
X0100347Y0078265D01*
X0100402Y0078238D01*
X0100457Y0078215D01*
X0100514Y0078195D01*
X0100573Y0078179D01*
X0100632Y0078166D01*
X0100691Y0078157D01*
X0100752Y0078152D01*
X0100812Y0078150D01*
X0123848Y0078150D01*
X0123848Y0078650D01*
X0123848Y0085650D01*
X0123848Y0086150D01*
X0100812Y0086150D01*
X0100752Y0086148D01*
X0100691Y0086143D01*
X0100632Y0086134D01*
X0100573Y0086121D01*
X0100514Y0086105D01*
X0100457Y0086085D01*
X0100402Y0086062D01*
X0100347Y0086035D01*
X0100295Y0086006D01*
X0100244Y0085973D01*
X0100195Y0085937D01*
X0100149Y0085899D01*
X0100105Y0085857D01*
X0100063Y0085813D01*
X0100025Y0085767D01*
X0099989Y0085718D01*
X0099956Y0085667D01*
X0099927Y0085615D01*
X0099900Y0085560D01*
X0099877Y0085505D01*
X0099857Y0085448D01*
X0099841Y0085389D01*
X0099828Y0085330D01*
X0099819Y0085271D01*
X0099814Y0085210D01*
X0099812Y0085150D01*
X0112017Y0082150D02*
X0114017Y0082150D01*
X0114017Y0080150D01*
X0115517Y0080150D02*
X0117017Y0080150D01*
X0117017Y0084150D01*
X0115517Y0084150D01*
X0115517Y0080150D01*
X0118517Y0080150D02*
X0118517Y0082150D01*
X0120517Y0082150D01*
X0118517Y0082150D02*
X0118517Y0084150D01*
X0123848Y0085650D02*
X0125348Y0085650D01*
X0125348Y0078650D01*
X0123848Y0078650D01*
X0114017Y0082150D02*
X0114017Y0084150D01*
X0160678Y0132750D02*
X0163178Y0130250D01*
X0168178Y0130250D01*
X0170678Y0132750D01*
X0170678Y0137750D01*
X0168178Y0140250D01*
X0163178Y0140250D01*
X0160678Y0137750D01*
X0160678Y0132750D01*
X0163178Y0140250D02*
X0160678Y0142750D01*
X0160678Y0147750D01*
X0163178Y0150250D01*
X0168178Y0150250D01*
X0170678Y0147750D01*
X0170678Y0142750D01*
X0168178Y0140250D01*
X0169578Y0156050D02*
X0167078Y0158550D01*
X0164578Y0156050D01*
X0159578Y0156050D01*
X0157078Y0158550D01*
X0157078Y0163550D01*
X0159578Y0166050D01*
X0164578Y0166050D01*
X0167078Y0163550D01*
X0169578Y0166050D01*
X0174578Y0166050D01*
X0177078Y0163550D01*
X0177078Y0158550D01*
X0174578Y0156050D01*
X0169578Y0156050D01*
X0167078Y0158550D02*
X0167078Y0163550D01*
X0177078Y0163550D02*
X0179578Y0166050D01*
X0184578Y0166050D01*
X0187078Y0163550D01*
X0189578Y0166050D01*
X0194578Y0166050D01*
X0197078Y0163550D01*
X0199578Y0166050D01*
X0204578Y0166050D01*
X0207078Y0163550D01*
X0207078Y0158550D01*
X0204578Y0156050D01*
X0199578Y0156050D01*
X0197078Y0158550D01*
X0194578Y0156050D01*
X0189578Y0156050D01*
X0187078Y0158550D01*
X0184578Y0156050D01*
X0179578Y0156050D01*
X0177078Y0158550D01*
X0187078Y0158550D02*
X0187078Y0163550D01*
X0197078Y0163550D02*
X0197078Y0158550D01*
X0207078Y0158550D02*
X0209578Y0156050D01*
X0214578Y0156050D01*
X0217078Y0158550D01*
X0219578Y0156050D01*
X0224578Y0156050D01*
X0227078Y0158550D01*
X0229578Y0156050D01*
X0234578Y0156050D01*
X0237078Y0158550D01*
X0237078Y0163550D01*
X0234578Y0166050D01*
X0229578Y0166050D01*
X0227078Y0163550D01*
X0227078Y0158550D01*
X0227078Y0163550D02*
X0224578Y0166050D01*
X0219578Y0166050D01*
X0217078Y0163550D01*
X0217078Y0158550D01*
X0217078Y0163550D02*
X0214578Y0166050D01*
X0209578Y0166050D01*
X0207078Y0163550D01*
X0237078Y0163550D02*
X0239578Y0166050D01*
X0244578Y0166050D01*
X0247078Y0163550D01*
X0249578Y0166050D01*
X0254578Y0166050D01*
X0257078Y0163550D01*
X0259578Y0166050D01*
X0264578Y0166050D01*
X0267078Y0163550D01*
X0267078Y0158550D01*
X0264578Y0156050D01*
X0259578Y0156050D01*
X0257078Y0158550D01*
X0254578Y0156050D01*
X0249578Y0156050D01*
X0247078Y0158550D01*
X0244578Y0156050D01*
X0239578Y0156050D01*
X0237078Y0158550D01*
X0247078Y0158550D02*
X0247078Y0163550D01*
X0257078Y0163550D02*
X0257078Y0158550D01*
X0231978Y0118050D02*
X0226978Y0118050D01*
X0224478Y0115550D01*
X0224478Y0110550D01*
X0226978Y0108050D01*
X0231978Y0108050D01*
X0234478Y0110550D01*
X0234478Y0115550D01*
X0231978Y0118050D01*
X0231978Y0108050D02*
X0234478Y0105550D01*
X0234478Y0100550D01*
X0231978Y0098050D01*
X0234478Y0095550D01*
X0234478Y0090550D01*
X0231978Y0088050D01*
X0234478Y0085550D01*
X0234478Y0080550D01*
X0231978Y0078050D01*
X0226978Y0078050D01*
X0224478Y0080550D01*
X0224478Y0085550D01*
X0226978Y0088050D01*
X0224478Y0090550D01*
X0224478Y0095550D01*
X0226978Y0098050D01*
X0231978Y0098050D01*
X0226978Y0098050D02*
X0224478Y0100550D01*
X0224478Y0105550D01*
X0226978Y0108050D01*
X0238279Y0106848D02*
X0238279Y0085152D01*
X0231978Y0088050D02*
X0226978Y0088050D01*
X0261877Y0085152D02*
X0261877Y0106848D01*
X0221978Y0065250D02*
X0219478Y0067750D01*
X0214478Y0067750D01*
X0211978Y0065250D01*
X0211978Y0060250D01*
X0214478Y0057750D01*
X0211978Y0055250D01*
X0211978Y0050250D01*
X0214478Y0047750D01*
X0219478Y0047750D01*
X0221978Y0050250D01*
X0221978Y0055250D01*
X0219478Y0057750D01*
X0214478Y0057750D01*
X0219478Y0057750D02*
X0221978Y0060250D01*
X0221978Y0065250D01*
X0221478Y0019550D02*
X0216478Y0019550D01*
X0213978Y0017050D01*
X0211478Y0019550D01*
X0206478Y0019550D01*
X0203978Y0017050D01*
X0203978Y0012050D01*
X0206478Y0009550D01*
X0211478Y0009550D01*
X0213978Y0012050D01*
X0216478Y0009550D01*
X0221478Y0009550D01*
X0223978Y0012050D01*
X0226478Y0009550D01*
X0231478Y0009550D01*
X0233978Y0012050D01*
X0236478Y0009550D01*
X0241478Y0009550D01*
X0243978Y0012050D01*
X0243978Y0017050D01*
X0241478Y0019550D01*
X0236478Y0019550D01*
X0233978Y0017050D01*
X0231478Y0019550D01*
X0226478Y0019550D01*
X0223978Y0017050D01*
X0221478Y0019550D01*
X0203978Y0017050D02*
X0203978Y0012050D01*
X0201478Y0009550D01*
X0196478Y0009550D01*
X0193978Y0012050D01*
X0191478Y0009550D01*
X0186478Y0009550D01*
X0183978Y0012050D01*
X0181478Y0009550D01*
X0176478Y0009550D01*
X0173978Y0012050D01*
X0171478Y0009550D01*
X0166478Y0009550D01*
X0163978Y0012050D01*
X0163978Y0017050D01*
X0166478Y0019550D01*
X0171478Y0019550D01*
X0173978Y0017050D01*
X0176478Y0019550D01*
X0181478Y0019550D01*
X0183978Y0017050D01*
X0186478Y0019550D01*
X0191478Y0019550D01*
X0193978Y0017050D01*
X0196478Y0019550D01*
X0201478Y0019550D01*
X0203978Y0017050D01*
X0154478Y0156050D02*
X0149478Y0156050D01*
X0146978Y0158550D01*
X0144478Y0156050D01*
X0139478Y0156050D01*
X0136978Y0158550D01*
X0134478Y0156050D01*
X0129478Y0156050D01*
X0126978Y0158550D01*
X0124478Y0156050D01*
X0119478Y0156050D01*
X0116978Y0158550D01*
X0114478Y0156050D01*
X0109478Y0156050D01*
X0106978Y0158550D01*
X0104478Y0156050D01*
X0099478Y0156050D01*
X0096978Y0158550D01*
X0094478Y0156050D01*
X0089478Y0156050D01*
X0086978Y0158550D01*
X0084478Y0156050D01*
X0079478Y0156050D01*
X0076978Y0158550D01*
X0076978Y0163550D01*
X0079478Y0166050D01*
X0084478Y0166050D01*
X0086978Y0163550D01*
X0089478Y0166050D01*
X0094478Y0166050D01*
X0096978Y0163550D01*
X0096978Y0158550D01*
X0096978Y0163550D02*
X0099478Y0166050D01*
X0104478Y0166050D01*
X0106978Y0163550D01*
X0109478Y0166050D01*
X0114478Y0166050D01*
X0116978Y0163550D01*
X0119478Y0166050D01*
X0124478Y0166050D01*
X0126978Y0163550D01*
X0126978Y0158550D01*
X0126978Y0163550D02*
X0129478Y0166050D01*
X0134478Y0166050D01*
X0136978Y0163550D01*
X0139478Y0166050D01*
X0144478Y0166050D01*
X0146978Y0163550D01*
X0149478Y0166050D01*
X0154478Y0166050D01*
X0156978Y0163550D01*
X0156978Y0158550D01*
X0154478Y0156050D01*
X0146978Y0158550D02*
X0146978Y0163550D01*
X0136978Y0163550D02*
X0136978Y0158550D01*
X0116978Y0158550D02*
X0116978Y0163550D01*
X0106978Y0163550D02*
X0106978Y0158550D01*
X0086978Y0158550D02*
X0086978Y0163550D01*
D118*
X0029857Y0137826D02*
X0029859Y0137853D01*
X0029865Y0137880D01*
X0029874Y0137906D01*
X0029887Y0137930D01*
X0029903Y0137953D01*
X0029922Y0137972D01*
X0029944Y0137989D01*
X0029968Y0138003D01*
X0029993Y0138013D01*
X0030020Y0138020D01*
X0030047Y0138023D01*
X0030075Y0138022D01*
X0030102Y0138017D01*
X0030128Y0138009D01*
X0030152Y0137997D01*
X0030175Y0137981D01*
X0030196Y0137963D01*
X0030213Y0137942D01*
X0030228Y0137918D01*
X0030239Y0137893D01*
X0030247Y0137867D01*
X0030251Y0137840D01*
X0030251Y0137812D01*
X0030247Y0137785D01*
X0030239Y0137759D01*
X0030228Y0137734D01*
X0030213Y0137710D01*
X0030196Y0137689D01*
X0030175Y0137671D01*
X0030153Y0137655D01*
X0030128Y0137643D01*
X0030102Y0137635D01*
X0030075Y0137630D01*
X0030047Y0137629D01*
X0030020Y0137632D01*
X0029993Y0137639D01*
X0029968Y0137649D01*
X0029944Y0137663D01*
X0029922Y0137680D01*
X0029903Y0137699D01*
X0029887Y0137722D01*
X0029874Y0137746D01*
X0029865Y0137772D01*
X0029859Y0137799D01*
X0029857Y0137826D01*
D119*
X0218074Y0104392D02*
X0218074Y0102858D01*
X0218074Y0103625D02*
X0222678Y0103625D01*
X0222678Y0102858D02*
X0222678Y0104392D01*
X0220376Y0101323D02*
X0221144Y0100556D01*
X0221144Y0098254D01*
X0222678Y0098254D02*
X0218074Y0098254D01*
X0218074Y0100556D01*
X0218842Y0101323D01*
X0220376Y0101323D01*
X0221144Y0096719D02*
X0221911Y0096719D01*
X0222678Y0095952D01*
X0222678Y0094417D01*
X0221911Y0093650D01*
X0220376Y0094417D02*
X0220376Y0095952D01*
X0221144Y0096719D01*
X0218842Y0096719D02*
X0218074Y0095952D01*
X0218074Y0094417D01*
X0218842Y0093650D01*
X0219609Y0093650D01*
X0220376Y0094417D01*
X0225974Y0066015D02*
X0230578Y0062946D01*
X0230578Y0061411D02*
X0229044Y0059877D01*
X0229044Y0060644D02*
X0229044Y0058342D01*
X0230578Y0058342D02*
X0225974Y0058342D01*
X0225974Y0060644D01*
X0226742Y0061411D01*
X0228276Y0061411D01*
X0229044Y0060644D01*
X0225974Y0062946D02*
X0230578Y0066015D01*
X0230578Y0052204D02*
X0225974Y0049134D01*
X0225974Y0047600D02*
X0225974Y0044530D01*
X0225974Y0046065D02*
X0230578Y0046065D01*
X0230578Y0049134D02*
X0225974Y0052204D01*
X0267674Y0092638D02*
X0272278Y0092638D01*
X0269976Y0092638D02*
X0269976Y0095707D01*
X0267674Y0095707D02*
X0272278Y0095707D01*
X0272278Y0097242D02*
X0267674Y0100311D01*
X0269209Y0101846D02*
X0267674Y0103381D01*
X0272278Y0103381D01*
X0272278Y0104915D02*
X0272278Y0101846D01*
X0272278Y0100311D02*
X0267674Y0097242D01*
D120*
X0255778Y0103650D02*
X0255780Y0103725D01*
X0255786Y0103799D01*
X0255796Y0103873D01*
X0255810Y0103946D01*
X0255827Y0104018D01*
X0255849Y0104090D01*
X0255874Y0104160D01*
X0255903Y0104228D01*
X0255936Y0104296D01*
X0255972Y0104361D01*
X0256011Y0104424D01*
X0256054Y0104485D01*
X0256100Y0104544D01*
X0256149Y0104600D01*
X0256201Y0104653D01*
X0256256Y0104704D01*
X0256313Y0104751D01*
X0256373Y0104796D01*
X0256435Y0104837D01*
X0256500Y0104875D01*
X0256566Y0104909D01*
X0256634Y0104940D01*
X0256703Y0104967D01*
X0256774Y0104990D01*
X0256846Y0105010D01*
X0256919Y0105026D01*
X0256992Y0105038D01*
X0257066Y0105046D01*
X0257141Y0105050D01*
X0257215Y0105050D01*
X0257290Y0105046D01*
X0257364Y0105038D01*
X0257437Y0105026D01*
X0257510Y0105010D01*
X0257582Y0104990D01*
X0257653Y0104967D01*
X0257722Y0104940D01*
X0257790Y0104909D01*
X0257856Y0104875D01*
X0257921Y0104837D01*
X0257983Y0104796D01*
X0258043Y0104751D01*
X0258100Y0104704D01*
X0258155Y0104653D01*
X0258207Y0104600D01*
X0258256Y0104544D01*
X0258302Y0104485D01*
X0258345Y0104424D01*
X0258384Y0104361D01*
X0258420Y0104296D01*
X0258453Y0104228D01*
X0258482Y0104160D01*
X0258507Y0104090D01*
X0258529Y0104018D01*
X0258546Y0103946D01*
X0258560Y0103873D01*
X0258570Y0103799D01*
X0258576Y0103725D01*
X0258578Y0103650D01*
X0258576Y0103575D01*
X0258570Y0103501D01*
X0258560Y0103427D01*
X0258546Y0103354D01*
X0258529Y0103282D01*
X0258507Y0103210D01*
X0258482Y0103140D01*
X0258453Y0103072D01*
X0258420Y0103004D01*
X0258384Y0102939D01*
X0258345Y0102876D01*
X0258302Y0102815D01*
X0258256Y0102756D01*
X0258207Y0102700D01*
X0258155Y0102647D01*
X0258100Y0102596D01*
X0258043Y0102549D01*
X0257983Y0102504D01*
X0257921Y0102463D01*
X0257856Y0102425D01*
X0257790Y0102391D01*
X0257722Y0102360D01*
X0257653Y0102333D01*
X0257582Y0102310D01*
X0257510Y0102290D01*
X0257437Y0102274D01*
X0257364Y0102262D01*
X0257290Y0102254D01*
X0257215Y0102250D01*
X0257141Y0102250D01*
X0257066Y0102254D01*
X0256992Y0102262D01*
X0256919Y0102274D01*
X0256846Y0102290D01*
X0256774Y0102310D01*
X0256703Y0102333D01*
X0256634Y0102360D01*
X0256566Y0102391D01*
X0256500Y0102425D01*
X0256435Y0102463D01*
X0256373Y0102504D01*
X0256313Y0102549D01*
X0256256Y0102596D01*
X0256201Y0102647D01*
X0256149Y0102700D01*
X0256100Y0102756D01*
X0256054Y0102815D01*
X0256011Y0102876D01*
X0255972Y0102939D01*
X0255936Y0103004D01*
X0255903Y0103072D01*
X0255874Y0103140D01*
X0255849Y0103210D01*
X0255827Y0103282D01*
X0255810Y0103354D01*
X0255796Y0103427D01*
X0255786Y0103501D01*
X0255780Y0103575D01*
X0255778Y0103650D01*
D121*
X0058200Y0103916D02*
X0058200Y0103719D01*
X0058200Y0103916D02*
X0058200Y0112381D01*
X0058198Y0112427D01*
X0058193Y0112473D01*
X0058184Y0112519D01*
X0058171Y0112564D01*
X0058155Y0112607D01*
X0058136Y0112649D01*
X0058113Y0112690D01*
X0058087Y0112728D01*
X0058058Y0112765D01*
X0058027Y0112799D01*
X0057993Y0112830D01*
X0057956Y0112859D01*
X0057918Y0112885D01*
X0057877Y0112908D01*
X0057835Y0112927D01*
X0057792Y0112943D01*
X0057747Y0112956D01*
X0057701Y0112965D01*
X0057655Y0112970D01*
X0057609Y0112972D01*
X0057609Y0112971D02*
X0048948Y0112971D01*
X0048948Y0112972D02*
X0048902Y0112970D01*
X0048856Y0112965D01*
X0048810Y0112956D01*
X0048765Y0112943D01*
X0048722Y0112927D01*
X0048680Y0112908D01*
X0048639Y0112885D01*
X0048601Y0112859D01*
X0048564Y0112830D01*
X0048530Y0112799D01*
X0048499Y0112765D01*
X0048470Y0112728D01*
X0048444Y0112690D01*
X0048421Y0112649D01*
X0048402Y0112607D01*
X0048386Y0112564D01*
X0048373Y0112519D01*
X0048364Y0112473D01*
X0048359Y0112427D01*
X0048357Y0112381D01*
X0048357Y0112184D01*
X0048357Y0103719D01*
X0048359Y0103673D01*
X0048364Y0103627D01*
X0048373Y0103581D01*
X0048386Y0103536D01*
X0048402Y0103493D01*
X0048421Y0103451D01*
X0048444Y0103410D01*
X0048470Y0103372D01*
X0048499Y0103335D01*
X0048530Y0103301D01*
X0048564Y0103270D01*
X0048601Y0103241D01*
X0048639Y0103215D01*
X0048680Y0103192D01*
X0048722Y0103173D01*
X0048765Y0103157D01*
X0048810Y0103144D01*
X0048856Y0103135D01*
X0048902Y0103130D01*
X0048948Y0103128D01*
X0048948Y0103129D02*
X0049144Y0103129D01*
X0057609Y0103129D01*
X0057609Y0103128D02*
X0057655Y0103130D01*
X0057701Y0103135D01*
X0057747Y0103144D01*
X0057792Y0103157D01*
X0057835Y0103173D01*
X0057877Y0103192D01*
X0057918Y0103215D01*
X0057956Y0103241D01*
X0057993Y0103270D01*
X0058027Y0103301D01*
X0058058Y0103335D01*
X0058087Y0103372D01*
X0058113Y0103410D01*
X0058136Y0103451D01*
X0058155Y0103493D01*
X0058171Y0103536D01*
X0058184Y0103581D01*
X0058193Y0103627D01*
X0058198Y0103673D01*
X0058200Y0103719D01*
X0050916Y0104310D02*
X0050918Y0104349D01*
X0050924Y0104388D01*
X0050934Y0104426D01*
X0050947Y0104463D01*
X0050964Y0104498D01*
X0050984Y0104532D01*
X0051008Y0104563D01*
X0051035Y0104592D01*
X0051064Y0104618D01*
X0051096Y0104641D01*
X0051130Y0104661D01*
X0051166Y0104677D01*
X0051203Y0104689D01*
X0051242Y0104698D01*
X0051281Y0104703D01*
X0051320Y0104704D01*
X0051359Y0104701D01*
X0051398Y0104694D01*
X0051435Y0104683D01*
X0051472Y0104669D01*
X0051507Y0104651D01*
X0051540Y0104630D01*
X0051571Y0104605D01*
X0051599Y0104578D01*
X0051624Y0104548D01*
X0051646Y0104515D01*
X0051665Y0104481D01*
X0051680Y0104445D01*
X0051692Y0104407D01*
X0051700Y0104369D01*
X0051704Y0104330D01*
X0051704Y0104290D01*
X0051700Y0104251D01*
X0051692Y0104213D01*
X0051680Y0104175D01*
X0051665Y0104139D01*
X0051646Y0104105D01*
X0051624Y0104072D01*
X0051599Y0104042D01*
X0051571Y0104015D01*
X0051540Y0103990D01*
X0051507Y0103969D01*
X0051472Y0103951D01*
X0051435Y0103937D01*
X0051398Y0103926D01*
X0051359Y0103919D01*
X0051320Y0103916D01*
X0051281Y0103917D01*
X0051242Y0103922D01*
X0051203Y0103931D01*
X0051166Y0103943D01*
X0051130Y0103959D01*
X0051096Y0103979D01*
X0051064Y0104002D01*
X0051035Y0104028D01*
X0051008Y0104057D01*
X0050984Y0104088D01*
X0050964Y0104122D01*
X0050947Y0104157D01*
X0050934Y0104194D01*
X0050924Y0104232D01*
X0050918Y0104271D01*
X0050916Y0104310D01*
D122*
X0049341Y0103719D02*
X0049302Y0103721D01*
X0049264Y0103727D01*
X0049227Y0103736D01*
X0049190Y0103749D01*
X0049155Y0103766D01*
X0049122Y0103785D01*
X0049091Y0103808D01*
X0049062Y0103834D01*
X0049036Y0103863D01*
X0049013Y0103894D01*
X0048994Y0103927D01*
X0048977Y0103962D01*
X0048964Y0103999D01*
X0048955Y0104036D01*
X0048949Y0104074D01*
X0048947Y0104113D01*
X0057215Y0103719D02*
X0057254Y0103721D01*
X0057292Y0103727D01*
X0057329Y0103736D01*
X0057366Y0103749D01*
X0057401Y0103766D01*
X0057434Y0103785D01*
X0057465Y0103808D01*
X0057494Y0103834D01*
X0057520Y0103863D01*
X0057543Y0103894D01*
X0057562Y0103927D01*
X0057579Y0103962D01*
X0057592Y0103999D01*
X0057601Y0104036D01*
X0057607Y0104074D01*
X0057609Y0104113D01*
X0057609Y0111987D02*
X0057607Y0112026D01*
X0057601Y0112064D01*
X0057592Y0112101D01*
X0057579Y0112138D01*
X0057562Y0112173D01*
X0057543Y0112206D01*
X0057520Y0112237D01*
X0057494Y0112266D01*
X0057465Y0112292D01*
X0057434Y0112315D01*
X0057401Y0112334D01*
X0057366Y0112351D01*
X0057329Y0112364D01*
X0057292Y0112373D01*
X0057254Y0112379D01*
X0057215Y0112381D01*
X0049341Y0112381D02*
X0049302Y0112379D01*
X0049264Y0112373D01*
X0049227Y0112364D01*
X0049190Y0112351D01*
X0049155Y0112334D01*
X0049122Y0112315D01*
X0049091Y0112292D01*
X0049062Y0112266D01*
X0049036Y0112237D01*
X0049013Y0112206D01*
X0048994Y0112173D01*
X0048977Y0112138D01*
X0048964Y0112101D01*
X0048955Y0112064D01*
X0048949Y0112026D01*
X0048947Y0111987D01*
D123*
X0047939Y0112102D02*
X0047939Y0111601D01*
X0047688Y0111351D01*
X0046687Y0112352D01*
X0047688Y0112352D01*
X0047939Y0112102D01*
X0047688Y0111351D02*
X0046687Y0111351D01*
X0046437Y0111601D01*
X0046437Y0112102D01*
X0046687Y0112352D01*
X0046687Y0110879D02*
X0046938Y0110879D01*
X0047188Y0110629D01*
X0047188Y0110128D01*
X0046938Y0109878D01*
X0046687Y0109878D01*
X0046437Y0110128D01*
X0046437Y0110629D01*
X0046687Y0110879D01*
X0047188Y0110629D02*
X0047438Y0110879D01*
X0047688Y0110879D01*
X0047939Y0110629D01*
X0047939Y0110128D01*
X0047688Y0109878D01*
X0047438Y0109878D01*
X0047188Y0110128D01*
X0046938Y0109405D02*
X0046687Y0109405D01*
X0046437Y0109155D01*
X0046437Y0108655D01*
X0046687Y0108405D01*
X0046437Y0107932D02*
X0046437Y0106931D01*
X0047939Y0106931D01*
X0047939Y0107932D01*
X0047939Y0108405D02*
X0046938Y0109405D01*
X0047939Y0109405D02*
X0047939Y0108405D01*
X0047188Y0107432D02*
X0047188Y0106931D01*
X0046437Y0106459D02*
X0047939Y0106459D01*
X0047939Y0105458D02*
X0046437Y0105458D01*
X0046938Y0105959D01*
X0046437Y0106459D01*
X0046687Y0104986D02*
X0046437Y0104735D01*
X0046437Y0103985D01*
X0047939Y0103985D01*
X0047939Y0104735D01*
X0047688Y0104986D01*
X0047438Y0104986D01*
X0047188Y0104735D01*
X0047188Y0103985D01*
X0047188Y0104735D02*
X0046938Y0104986D01*
X0046687Y0104986D01*
M02*
