G75*
%MOIN*%
%OFA0B0*%
%FSLAX25Y25*%
%IPPOS*%
%LPD*%
%AMOC8*
5,1,8,0,0,1.08239X$1,22.5*
%
%ADD10C,0.00000*%
%ADD11R,0.04331X0.03937*%
%ADD12R,0.03937X0.04331*%
%ADD13R,0.05906X0.07677*%
%ADD14R,0.08465X0.06299*%
%ADD15C,0.00011*%
%ADD16R,0.03800X0.13200*%
%ADD17R,0.03150X0.03150*%
%ADD18R,0.01200X0.02600*%
%ADD19R,0.12200X0.03900*%
%ADD20C,0.06000*%
%ADD21R,0.01181X0.03150*%
%ADD22R,0.03150X0.01181*%
%ADD23R,0.01378X0.03150*%
%ADD24R,0.03346X0.01378*%
%ADD25R,0.10236X0.11024*%
%ADD26R,0.05512X0.01181*%
%ADD27R,0.01181X0.05512*%
%ADD28R,0.02756X0.03543*%
%ADD29R,0.05000X0.02500*%
%ADD30R,0.10000X0.05000*%
%ADD31R,0.02400X0.08700*%
%ADD32OC8,0.06000*%
%ADD33R,0.01969X0.01378*%
%ADD34C,0.00800*%
%ADD35C,0.03200*%
%ADD36C,0.01000*%
%ADD37C,0.01200*%
%ADD38C,0.02381*%
%ADD39C,0.02400*%
%ADD40C,0.03562*%
%ADD41C,0.04000*%
%ADD42C,0.03169*%
%ADD43C,0.01600*%
%ADD44C,0.05600*%
D10*
X0009878Y0004550D02*
X0009878Y0169550D01*
X0307378Y0169550D01*
X0307378Y0004550D01*
X0009878Y0004550D01*
X0050710Y0033206D02*
X0050712Y0033254D01*
X0050718Y0033302D01*
X0050728Y0033349D01*
X0050741Y0033395D01*
X0050759Y0033440D01*
X0050779Y0033484D01*
X0050804Y0033526D01*
X0050832Y0033565D01*
X0050862Y0033602D01*
X0050896Y0033636D01*
X0050933Y0033668D01*
X0050971Y0033697D01*
X0051012Y0033722D01*
X0051055Y0033744D01*
X0051100Y0033762D01*
X0051146Y0033776D01*
X0051193Y0033787D01*
X0051241Y0033794D01*
X0051289Y0033797D01*
X0051337Y0033796D01*
X0051385Y0033791D01*
X0051433Y0033782D01*
X0051479Y0033770D01*
X0051524Y0033753D01*
X0051568Y0033733D01*
X0051610Y0033710D01*
X0051650Y0033683D01*
X0051688Y0033653D01*
X0051723Y0033620D01*
X0051755Y0033584D01*
X0051785Y0033546D01*
X0051811Y0033505D01*
X0051833Y0033462D01*
X0051853Y0033418D01*
X0051868Y0033373D01*
X0051880Y0033326D01*
X0051888Y0033278D01*
X0051892Y0033230D01*
X0051892Y0033182D01*
X0051888Y0033134D01*
X0051880Y0033086D01*
X0051868Y0033039D01*
X0051853Y0032994D01*
X0051833Y0032950D01*
X0051811Y0032907D01*
X0051785Y0032866D01*
X0051755Y0032828D01*
X0051723Y0032792D01*
X0051688Y0032759D01*
X0051650Y0032729D01*
X0051610Y0032702D01*
X0051568Y0032679D01*
X0051524Y0032659D01*
X0051479Y0032642D01*
X0051433Y0032630D01*
X0051385Y0032621D01*
X0051337Y0032616D01*
X0051289Y0032615D01*
X0051241Y0032618D01*
X0051193Y0032625D01*
X0051146Y0032636D01*
X0051100Y0032650D01*
X0051055Y0032668D01*
X0051012Y0032690D01*
X0050971Y0032715D01*
X0050933Y0032744D01*
X0050896Y0032776D01*
X0050862Y0032810D01*
X0050832Y0032847D01*
X0050804Y0032886D01*
X0050779Y0032928D01*
X0050759Y0032972D01*
X0050741Y0033017D01*
X0050728Y0033063D01*
X0050718Y0033110D01*
X0050712Y0033158D01*
X0050710Y0033206D01*
X0053662Y0035175D02*
X0053664Y0035223D01*
X0053670Y0035271D01*
X0053680Y0035318D01*
X0053693Y0035364D01*
X0053711Y0035409D01*
X0053731Y0035453D01*
X0053756Y0035495D01*
X0053784Y0035534D01*
X0053814Y0035571D01*
X0053848Y0035605D01*
X0053885Y0035637D01*
X0053923Y0035666D01*
X0053964Y0035691D01*
X0054007Y0035713D01*
X0054052Y0035731D01*
X0054098Y0035745D01*
X0054145Y0035756D01*
X0054193Y0035763D01*
X0054241Y0035766D01*
X0054289Y0035765D01*
X0054337Y0035760D01*
X0054385Y0035751D01*
X0054431Y0035739D01*
X0054476Y0035722D01*
X0054520Y0035702D01*
X0054562Y0035679D01*
X0054602Y0035652D01*
X0054640Y0035622D01*
X0054675Y0035589D01*
X0054707Y0035553D01*
X0054737Y0035515D01*
X0054763Y0035474D01*
X0054785Y0035431D01*
X0054805Y0035387D01*
X0054820Y0035342D01*
X0054832Y0035295D01*
X0054840Y0035247D01*
X0054844Y0035199D01*
X0054844Y0035151D01*
X0054840Y0035103D01*
X0054832Y0035055D01*
X0054820Y0035008D01*
X0054805Y0034963D01*
X0054785Y0034919D01*
X0054763Y0034876D01*
X0054737Y0034835D01*
X0054707Y0034797D01*
X0054675Y0034761D01*
X0054640Y0034728D01*
X0054602Y0034698D01*
X0054562Y0034671D01*
X0054520Y0034648D01*
X0054476Y0034628D01*
X0054431Y0034611D01*
X0054385Y0034599D01*
X0054337Y0034590D01*
X0054289Y0034585D01*
X0054241Y0034584D01*
X0054193Y0034587D01*
X0054145Y0034594D01*
X0054098Y0034605D01*
X0054052Y0034619D01*
X0054007Y0034637D01*
X0053964Y0034659D01*
X0053923Y0034684D01*
X0053885Y0034713D01*
X0053848Y0034745D01*
X0053814Y0034779D01*
X0053784Y0034816D01*
X0053756Y0034855D01*
X0053731Y0034897D01*
X0053711Y0034941D01*
X0053693Y0034986D01*
X0053680Y0035032D01*
X0053670Y0035079D01*
X0053664Y0035127D01*
X0053662Y0035175D01*
X0050710Y0037144D02*
X0050712Y0037192D01*
X0050718Y0037240D01*
X0050728Y0037287D01*
X0050741Y0037333D01*
X0050759Y0037378D01*
X0050779Y0037422D01*
X0050804Y0037464D01*
X0050832Y0037503D01*
X0050862Y0037540D01*
X0050896Y0037574D01*
X0050933Y0037606D01*
X0050971Y0037635D01*
X0051012Y0037660D01*
X0051055Y0037682D01*
X0051100Y0037700D01*
X0051146Y0037714D01*
X0051193Y0037725D01*
X0051241Y0037732D01*
X0051289Y0037735D01*
X0051337Y0037734D01*
X0051385Y0037729D01*
X0051433Y0037720D01*
X0051479Y0037708D01*
X0051524Y0037691D01*
X0051568Y0037671D01*
X0051610Y0037648D01*
X0051650Y0037621D01*
X0051688Y0037591D01*
X0051723Y0037558D01*
X0051755Y0037522D01*
X0051785Y0037484D01*
X0051811Y0037443D01*
X0051833Y0037400D01*
X0051853Y0037356D01*
X0051868Y0037311D01*
X0051880Y0037264D01*
X0051888Y0037216D01*
X0051892Y0037168D01*
X0051892Y0037120D01*
X0051888Y0037072D01*
X0051880Y0037024D01*
X0051868Y0036977D01*
X0051853Y0036932D01*
X0051833Y0036888D01*
X0051811Y0036845D01*
X0051785Y0036804D01*
X0051755Y0036766D01*
X0051723Y0036730D01*
X0051688Y0036697D01*
X0051650Y0036667D01*
X0051610Y0036640D01*
X0051568Y0036617D01*
X0051524Y0036597D01*
X0051479Y0036580D01*
X0051433Y0036568D01*
X0051385Y0036559D01*
X0051337Y0036554D01*
X0051289Y0036553D01*
X0051241Y0036556D01*
X0051193Y0036563D01*
X0051146Y0036574D01*
X0051100Y0036588D01*
X0051055Y0036606D01*
X0051012Y0036628D01*
X0050971Y0036653D01*
X0050933Y0036682D01*
X0050896Y0036714D01*
X0050862Y0036748D01*
X0050832Y0036785D01*
X0050804Y0036824D01*
X0050779Y0036866D01*
X0050759Y0036910D01*
X0050741Y0036955D01*
X0050728Y0037001D01*
X0050718Y0037048D01*
X0050712Y0037096D01*
X0050710Y0037144D01*
X0056615Y0037144D02*
X0056617Y0037192D01*
X0056623Y0037240D01*
X0056633Y0037287D01*
X0056646Y0037333D01*
X0056664Y0037378D01*
X0056684Y0037422D01*
X0056709Y0037464D01*
X0056737Y0037503D01*
X0056767Y0037540D01*
X0056801Y0037574D01*
X0056838Y0037606D01*
X0056876Y0037635D01*
X0056917Y0037660D01*
X0056960Y0037682D01*
X0057005Y0037700D01*
X0057051Y0037714D01*
X0057098Y0037725D01*
X0057146Y0037732D01*
X0057194Y0037735D01*
X0057242Y0037734D01*
X0057290Y0037729D01*
X0057338Y0037720D01*
X0057384Y0037708D01*
X0057429Y0037691D01*
X0057473Y0037671D01*
X0057515Y0037648D01*
X0057555Y0037621D01*
X0057593Y0037591D01*
X0057628Y0037558D01*
X0057660Y0037522D01*
X0057690Y0037484D01*
X0057716Y0037443D01*
X0057738Y0037400D01*
X0057758Y0037356D01*
X0057773Y0037311D01*
X0057785Y0037264D01*
X0057793Y0037216D01*
X0057797Y0037168D01*
X0057797Y0037120D01*
X0057793Y0037072D01*
X0057785Y0037024D01*
X0057773Y0036977D01*
X0057758Y0036932D01*
X0057738Y0036888D01*
X0057716Y0036845D01*
X0057690Y0036804D01*
X0057660Y0036766D01*
X0057628Y0036730D01*
X0057593Y0036697D01*
X0057555Y0036667D01*
X0057515Y0036640D01*
X0057473Y0036617D01*
X0057429Y0036597D01*
X0057384Y0036580D01*
X0057338Y0036568D01*
X0057290Y0036559D01*
X0057242Y0036554D01*
X0057194Y0036553D01*
X0057146Y0036556D01*
X0057098Y0036563D01*
X0057051Y0036574D01*
X0057005Y0036588D01*
X0056960Y0036606D01*
X0056917Y0036628D01*
X0056876Y0036653D01*
X0056838Y0036682D01*
X0056801Y0036714D01*
X0056767Y0036748D01*
X0056737Y0036785D01*
X0056709Y0036824D01*
X0056684Y0036866D01*
X0056664Y0036910D01*
X0056646Y0036955D01*
X0056633Y0037001D01*
X0056623Y0037048D01*
X0056617Y0037096D01*
X0056615Y0037144D01*
X0056615Y0033206D02*
X0056617Y0033254D01*
X0056623Y0033302D01*
X0056633Y0033349D01*
X0056646Y0033395D01*
X0056664Y0033440D01*
X0056684Y0033484D01*
X0056709Y0033526D01*
X0056737Y0033565D01*
X0056767Y0033602D01*
X0056801Y0033636D01*
X0056838Y0033668D01*
X0056876Y0033697D01*
X0056917Y0033722D01*
X0056960Y0033744D01*
X0057005Y0033762D01*
X0057051Y0033776D01*
X0057098Y0033787D01*
X0057146Y0033794D01*
X0057194Y0033797D01*
X0057242Y0033796D01*
X0057290Y0033791D01*
X0057338Y0033782D01*
X0057384Y0033770D01*
X0057429Y0033753D01*
X0057473Y0033733D01*
X0057515Y0033710D01*
X0057555Y0033683D01*
X0057593Y0033653D01*
X0057628Y0033620D01*
X0057660Y0033584D01*
X0057690Y0033546D01*
X0057716Y0033505D01*
X0057738Y0033462D01*
X0057758Y0033418D01*
X0057773Y0033373D01*
X0057785Y0033326D01*
X0057793Y0033278D01*
X0057797Y0033230D01*
X0057797Y0033182D01*
X0057793Y0033134D01*
X0057785Y0033086D01*
X0057773Y0033039D01*
X0057758Y0032994D01*
X0057738Y0032950D01*
X0057716Y0032907D01*
X0057690Y0032866D01*
X0057660Y0032828D01*
X0057628Y0032792D01*
X0057593Y0032759D01*
X0057555Y0032729D01*
X0057515Y0032702D01*
X0057473Y0032679D01*
X0057429Y0032659D01*
X0057384Y0032642D01*
X0057338Y0032630D01*
X0057290Y0032621D01*
X0057242Y0032616D01*
X0057194Y0032615D01*
X0057146Y0032618D01*
X0057098Y0032625D01*
X0057051Y0032636D01*
X0057005Y0032650D01*
X0056960Y0032668D01*
X0056917Y0032690D01*
X0056876Y0032715D01*
X0056838Y0032744D01*
X0056801Y0032776D01*
X0056767Y0032810D01*
X0056737Y0032847D01*
X0056709Y0032886D01*
X0056684Y0032928D01*
X0056664Y0032972D01*
X0056646Y0033017D01*
X0056633Y0033063D01*
X0056623Y0033110D01*
X0056617Y0033158D01*
X0056615Y0033206D01*
D11*
X0063407Y0041425D03*
X0070100Y0041425D03*
X0090132Y0031850D03*
X0096825Y0031850D03*
X0075078Y0015896D03*
X0075078Y0009204D03*
X0067378Y0009279D03*
X0067378Y0015971D03*
X0166482Y0046000D03*
X0173175Y0046000D03*
X0209832Y0079750D03*
X0216525Y0079750D03*
X0216525Y0086650D03*
X0209832Y0086650D03*
X0142978Y0134504D03*
X0136778Y0134404D03*
X0136778Y0141096D03*
X0142978Y0141196D03*
X0088625Y0091050D03*
X0081932Y0091050D03*
X0081932Y0084250D03*
X0088625Y0084250D03*
X0088825Y0076650D03*
X0082132Y0076650D03*
X0037825Y0126950D03*
X0031132Y0126950D03*
X0028432Y0156950D03*
X0035125Y0156950D03*
D12*
X0043178Y0159696D03*
X0043178Y0153004D03*
X0064178Y0116196D03*
X0064178Y0109504D03*
X0053678Y0093096D03*
X0053678Y0086404D03*
X0023825Y0099450D03*
X0017132Y0099450D03*
X0017132Y0108650D03*
X0023825Y0108650D03*
X0106732Y0052250D03*
X0113425Y0052250D03*
X0128278Y0056704D03*
X0128278Y0063396D03*
X0079253Y0033521D03*
X0072953Y0033521D03*
X0066053Y0033521D03*
X0066053Y0026829D03*
X0072953Y0026829D03*
X0079253Y0026829D03*
X0052600Y0047675D03*
X0045907Y0047675D03*
X0044253Y0038521D03*
X0044253Y0031829D03*
X0124878Y0030796D03*
X0124878Y0024104D03*
X0165478Y0024104D03*
X0165478Y0030796D03*
X0205078Y0030796D03*
X0205078Y0024104D03*
X0258178Y0023496D03*
X0258178Y0016804D03*
X0171178Y0120904D03*
X0171178Y0127596D03*
X0256132Y0122450D03*
X0262825Y0122450D03*
D13*
X0120878Y0063863D03*
X0120878Y0053037D03*
D14*
X0054253Y0035175D03*
D15*
X0054799Y0031036D02*
X0054799Y0027798D01*
X0053707Y0027798D01*
X0053707Y0031036D01*
X0054799Y0031036D01*
X0054799Y0027808D02*
X0053707Y0027808D01*
X0053707Y0027818D02*
X0054799Y0027818D01*
X0054799Y0027828D02*
X0053707Y0027828D01*
X0053707Y0027838D02*
X0054799Y0027838D01*
X0054799Y0027848D02*
X0053707Y0027848D01*
X0053707Y0027858D02*
X0054799Y0027858D01*
X0054799Y0027868D02*
X0053707Y0027868D01*
X0053707Y0027878D02*
X0054799Y0027878D01*
X0054799Y0027888D02*
X0053707Y0027888D01*
X0053707Y0027898D02*
X0054799Y0027898D01*
X0054799Y0027908D02*
X0053707Y0027908D01*
X0053707Y0027918D02*
X0054799Y0027918D01*
X0054799Y0027928D02*
X0053707Y0027928D01*
X0053707Y0027938D02*
X0054799Y0027938D01*
X0054799Y0027948D02*
X0053707Y0027948D01*
X0053707Y0027958D02*
X0054799Y0027958D01*
X0054799Y0027968D02*
X0053707Y0027968D01*
X0053707Y0027978D02*
X0054799Y0027978D01*
X0054799Y0027988D02*
X0053707Y0027988D01*
X0053707Y0027998D02*
X0054799Y0027998D01*
X0054799Y0028008D02*
X0053707Y0028008D01*
X0053707Y0028018D02*
X0054799Y0028018D01*
X0054799Y0028028D02*
X0053707Y0028028D01*
X0053707Y0028038D02*
X0054799Y0028038D01*
X0054799Y0028048D02*
X0053707Y0028048D01*
X0053707Y0028058D02*
X0054799Y0028058D01*
X0054799Y0028068D02*
X0053707Y0028068D01*
X0053707Y0028078D02*
X0054799Y0028078D01*
X0054799Y0028088D02*
X0053707Y0028088D01*
X0053707Y0028098D02*
X0054799Y0028098D01*
X0054799Y0028108D02*
X0053707Y0028108D01*
X0053707Y0028118D02*
X0054799Y0028118D01*
X0054799Y0028128D02*
X0053707Y0028128D01*
X0053707Y0028138D02*
X0054799Y0028138D01*
X0054799Y0028148D02*
X0053707Y0028148D01*
X0053707Y0028158D02*
X0054799Y0028158D01*
X0054799Y0028168D02*
X0053707Y0028168D01*
X0053707Y0028178D02*
X0054799Y0028178D01*
X0054799Y0028188D02*
X0053707Y0028188D01*
X0053707Y0028198D02*
X0054799Y0028198D01*
X0054799Y0028208D02*
X0053707Y0028208D01*
X0053707Y0028218D02*
X0054799Y0028218D01*
X0054799Y0028228D02*
X0053707Y0028228D01*
X0053707Y0028238D02*
X0054799Y0028238D01*
X0054799Y0028248D02*
X0053707Y0028248D01*
X0053707Y0028258D02*
X0054799Y0028258D01*
X0054799Y0028268D02*
X0053707Y0028268D01*
X0053707Y0028278D02*
X0054799Y0028278D01*
X0054799Y0028288D02*
X0053707Y0028288D01*
X0053707Y0028298D02*
X0054799Y0028298D01*
X0054799Y0028308D02*
X0053707Y0028308D01*
X0053707Y0028318D02*
X0054799Y0028318D01*
X0054799Y0028328D02*
X0053707Y0028328D01*
X0053707Y0028338D02*
X0054799Y0028338D01*
X0054799Y0028348D02*
X0053707Y0028348D01*
X0053707Y0028358D02*
X0054799Y0028358D01*
X0054799Y0028368D02*
X0053707Y0028368D01*
X0053707Y0028378D02*
X0054799Y0028378D01*
X0054799Y0028388D02*
X0053707Y0028388D01*
X0053707Y0028398D02*
X0054799Y0028398D01*
X0054799Y0028408D02*
X0053707Y0028408D01*
X0053707Y0028418D02*
X0054799Y0028418D01*
X0054799Y0028428D02*
X0053707Y0028428D01*
X0053707Y0028438D02*
X0054799Y0028438D01*
X0054799Y0028448D02*
X0053707Y0028448D01*
X0053707Y0028458D02*
X0054799Y0028458D01*
X0054799Y0028468D02*
X0053707Y0028468D01*
X0053707Y0028478D02*
X0054799Y0028478D01*
X0054799Y0028488D02*
X0053707Y0028488D01*
X0053707Y0028498D02*
X0054799Y0028498D01*
X0054799Y0028508D02*
X0053707Y0028508D01*
X0053707Y0028518D02*
X0054799Y0028518D01*
X0054799Y0028528D02*
X0053707Y0028528D01*
X0053707Y0028538D02*
X0054799Y0028538D01*
X0054799Y0028548D02*
X0053707Y0028548D01*
X0053707Y0028558D02*
X0054799Y0028558D01*
X0054799Y0028568D02*
X0053707Y0028568D01*
X0053707Y0028578D02*
X0054799Y0028578D01*
X0054799Y0028588D02*
X0053707Y0028588D01*
X0053707Y0028598D02*
X0054799Y0028598D01*
X0054799Y0028608D02*
X0053707Y0028608D01*
X0053707Y0028618D02*
X0054799Y0028618D01*
X0054799Y0028628D02*
X0053707Y0028628D01*
X0053707Y0028638D02*
X0054799Y0028638D01*
X0054799Y0028648D02*
X0053707Y0028648D01*
X0053707Y0028658D02*
X0054799Y0028658D01*
X0054799Y0028668D02*
X0053707Y0028668D01*
X0053707Y0028678D02*
X0054799Y0028678D01*
X0054799Y0028688D02*
X0053707Y0028688D01*
X0053707Y0028698D02*
X0054799Y0028698D01*
X0054799Y0028708D02*
X0053707Y0028708D01*
X0053707Y0028718D02*
X0054799Y0028718D01*
X0054799Y0028728D02*
X0053707Y0028728D01*
X0053707Y0028738D02*
X0054799Y0028738D01*
X0054799Y0028748D02*
X0053707Y0028748D01*
X0053707Y0028758D02*
X0054799Y0028758D01*
X0054799Y0028768D02*
X0053707Y0028768D01*
X0053707Y0028778D02*
X0054799Y0028778D01*
X0054799Y0028788D02*
X0053707Y0028788D01*
X0053707Y0028798D02*
X0054799Y0028798D01*
X0054799Y0028808D02*
X0053707Y0028808D01*
X0053707Y0028818D02*
X0054799Y0028818D01*
X0054799Y0028828D02*
X0053707Y0028828D01*
X0053707Y0028838D02*
X0054799Y0028838D01*
X0054799Y0028848D02*
X0053707Y0028848D01*
X0053707Y0028858D02*
X0054799Y0028858D01*
X0054799Y0028868D02*
X0053707Y0028868D01*
X0053707Y0028878D02*
X0054799Y0028878D01*
X0054799Y0028888D02*
X0053707Y0028888D01*
X0053707Y0028898D02*
X0054799Y0028898D01*
X0054799Y0028908D02*
X0053707Y0028908D01*
X0053707Y0028918D02*
X0054799Y0028918D01*
X0054799Y0028928D02*
X0053707Y0028928D01*
X0053707Y0028938D02*
X0054799Y0028938D01*
X0054799Y0028948D02*
X0053707Y0028948D01*
X0053707Y0028958D02*
X0054799Y0028958D01*
X0054799Y0028968D02*
X0053707Y0028968D01*
X0053707Y0028978D02*
X0054799Y0028978D01*
X0054799Y0028988D02*
X0053707Y0028988D01*
X0053707Y0028998D02*
X0054799Y0028998D01*
X0054799Y0029008D02*
X0053707Y0029008D01*
X0053707Y0029018D02*
X0054799Y0029018D01*
X0054799Y0029028D02*
X0053707Y0029028D01*
X0053707Y0029038D02*
X0054799Y0029038D01*
X0054799Y0029048D02*
X0053707Y0029048D01*
X0053707Y0029058D02*
X0054799Y0029058D01*
X0054799Y0029068D02*
X0053707Y0029068D01*
X0053707Y0029078D02*
X0054799Y0029078D01*
X0054799Y0029088D02*
X0053707Y0029088D01*
X0053707Y0029098D02*
X0054799Y0029098D01*
X0054799Y0029108D02*
X0053707Y0029108D01*
X0053707Y0029118D02*
X0054799Y0029118D01*
X0054799Y0029128D02*
X0053707Y0029128D01*
X0053707Y0029138D02*
X0054799Y0029138D01*
X0054799Y0029148D02*
X0053707Y0029148D01*
X0053707Y0029158D02*
X0054799Y0029158D01*
X0054799Y0029168D02*
X0053707Y0029168D01*
X0053707Y0029178D02*
X0054799Y0029178D01*
X0054799Y0029188D02*
X0053707Y0029188D01*
X0053707Y0029198D02*
X0054799Y0029198D01*
X0054799Y0029208D02*
X0053707Y0029208D01*
X0053707Y0029218D02*
X0054799Y0029218D01*
X0054799Y0029228D02*
X0053707Y0029228D01*
X0053707Y0029238D02*
X0054799Y0029238D01*
X0054799Y0029248D02*
X0053707Y0029248D01*
X0053707Y0029258D02*
X0054799Y0029258D01*
X0054799Y0029268D02*
X0053707Y0029268D01*
X0053707Y0029278D02*
X0054799Y0029278D01*
X0054799Y0029288D02*
X0053707Y0029288D01*
X0053707Y0029298D02*
X0054799Y0029298D01*
X0054799Y0029308D02*
X0053707Y0029308D01*
X0053707Y0029318D02*
X0054799Y0029318D01*
X0054799Y0029328D02*
X0053707Y0029328D01*
X0053707Y0029338D02*
X0054799Y0029338D01*
X0054799Y0029348D02*
X0053707Y0029348D01*
X0053707Y0029358D02*
X0054799Y0029358D01*
X0054799Y0029368D02*
X0053707Y0029368D01*
X0053707Y0029378D02*
X0054799Y0029378D01*
X0054799Y0029388D02*
X0053707Y0029388D01*
X0053707Y0029398D02*
X0054799Y0029398D01*
X0054799Y0029408D02*
X0053707Y0029408D01*
X0053707Y0029418D02*
X0054799Y0029418D01*
X0054799Y0029428D02*
X0053707Y0029428D01*
X0053707Y0029438D02*
X0054799Y0029438D01*
X0054799Y0029448D02*
X0053707Y0029448D01*
X0053707Y0029458D02*
X0054799Y0029458D01*
X0054799Y0029468D02*
X0053707Y0029468D01*
X0053707Y0029478D02*
X0054799Y0029478D01*
X0054799Y0029488D02*
X0053707Y0029488D01*
X0053707Y0029498D02*
X0054799Y0029498D01*
X0054799Y0029508D02*
X0053707Y0029508D01*
X0053707Y0029518D02*
X0054799Y0029518D01*
X0054799Y0029528D02*
X0053707Y0029528D01*
X0053707Y0029538D02*
X0054799Y0029538D01*
X0054799Y0029548D02*
X0053707Y0029548D01*
X0053707Y0029558D02*
X0054799Y0029558D01*
X0054799Y0029568D02*
X0053707Y0029568D01*
X0053707Y0029578D02*
X0054799Y0029578D01*
X0054799Y0029588D02*
X0053707Y0029588D01*
X0053707Y0029598D02*
X0054799Y0029598D01*
X0054799Y0029608D02*
X0053707Y0029608D01*
X0053707Y0029618D02*
X0054799Y0029618D01*
X0054799Y0029628D02*
X0053707Y0029628D01*
X0053707Y0029638D02*
X0054799Y0029638D01*
X0054799Y0029648D02*
X0053707Y0029648D01*
X0053707Y0029658D02*
X0054799Y0029658D01*
X0054799Y0029668D02*
X0053707Y0029668D01*
X0053707Y0029678D02*
X0054799Y0029678D01*
X0054799Y0029688D02*
X0053707Y0029688D01*
X0053707Y0029698D02*
X0054799Y0029698D01*
X0054799Y0029708D02*
X0053707Y0029708D01*
X0053707Y0029718D02*
X0054799Y0029718D01*
X0054799Y0029728D02*
X0053707Y0029728D01*
X0053707Y0029738D02*
X0054799Y0029738D01*
X0054799Y0029748D02*
X0053707Y0029748D01*
X0053707Y0029758D02*
X0054799Y0029758D01*
X0054799Y0029768D02*
X0053707Y0029768D01*
X0053707Y0029778D02*
X0054799Y0029778D01*
X0054799Y0029788D02*
X0053707Y0029788D01*
X0053707Y0029798D02*
X0054799Y0029798D01*
X0054799Y0029808D02*
X0053707Y0029808D01*
X0053707Y0029818D02*
X0054799Y0029818D01*
X0054799Y0029828D02*
X0053707Y0029828D01*
X0053707Y0029838D02*
X0054799Y0029838D01*
X0054799Y0029848D02*
X0053707Y0029848D01*
X0053707Y0029858D02*
X0054799Y0029858D01*
X0054799Y0029868D02*
X0053707Y0029868D01*
X0053707Y0029878D02*
X0054799Y0029878D01*
X0054799Y0029888D02*
X0053707Y0029888D01*
X0053707Y0029898D02*
X0054799Y0029898D01*
X0054799Y0029908D02*
X0053707Y0029908D01*
X0053707Y0029918D02*
X0054799Y0029918D01*
X0054799Y0029928D02*
X0053707Y0029928D01*
X0053707Y0029938D02*
X0054799Y0029938D01*
X0054799Y0029948D02*
X0053707Y0029948D01*
X0053707Y0029958D02*
X0054799Y0029958D01*
X0054799Y0029968D02*
X0053707Y0029968D01*
X0053707Y0029978D02*
X0054799Y0029978D01*
X0054799Y0029988D02*
X0053707Y0029988D01*
X0053707Y0029998D02*
X0054799Y0029998D01*
X0054799Y0030008D02*
X0053707Y0030008D01*
X0053707Y0030018D02*
X0054799Y0030018D01*
X0054799Y0030028D02*
X0053707Y0030028D01*
X0053707Y0030038D02*
X0054799Y0030038D01*
X0054799Y0030048D02*
X0053707Y0030048D01*
X0053707Y0030058D02*
X0054799Y0030058D01*
X0054799Y0030068D02*
X0053707Y0030068D01*
X0053707Y0030078D02*
X0054799Y0030078D01*
X0054799Y0030088D02*
X0053707Y0030088D01*
X0053707Y0030098D02*
X0054799Y0030098D01*
X0054799Y0030108D02*
X0053707Y0030108D01*
X0053707Y0030118D02*
X0054799Y0030118D01*
X0054799Y0030128D02*
X0053707Y0030128D01*
X0053707Y0030138D02*
X0054799Y0030138D01*
X0054799Y0030148D02*
X0053707Y0030148D01*
X0053707Y0030158D02*
X0054799Y0030158D01*
X0054799Y0030168D02*
X0053707Y0030168D01*
X0053707Y0030178D02*
X0054799Y0030178D01*
X0054799Y0030188D02*
X0053707Y0030188D01*
X0053707Y0030198D02*
X0054799Y0030198D01*
X0054799Y0030208D02*
X0053707Y0030208D01*
X0053707Y0030218D02*
X0054799Y0030218D01*
X0054799Y0030228D02*
X0053707Y0030228D01*
X0053707Y0030238D02*
X0054799Y0030238D01*
X0054799Y0030248D02*
X0053707Y0030248D01*
X0053707Y0030258D02*
X0054799Y0030258D01*
X0054799Y0030268D02*
X0053707Y0030268D01*
X0053707Y0030278D02*
X0054799Y0030278D01*
X0054799Y0030288D02*
X0053707Y0030288D01*
X0053707Y0030298D02*
X0054799Y0030298D01*
X0054799Y0030308D02*
X0053707Y0030308D01*
X0053707Y0030318D02*
X0054799Y0030318D01*
X0054799Y0030328D02*
X0053707Y0030328D01*
X0053707Y0030338D02*
X0054799Y0030338D01*
X0054799Y0030348D02*
X0053707Y0030348D01*
X0053707Y0030358D02*
X0054799Y0030358D01*
X0054799Y0030368D02*
X0053707Y0030368D01*
X0053707Y0030378D02*
X0054799Y0030378D01*
X0054799Y0030388D02*
X0053707Y0030388D01*
X0053707Y0030398D02*
X0054799Y0030398D01*
X0054799Y0030408D02*
X0053707Y0030408D01*
X0053707Y0030418D02*
X0054799Y0030418D01*
X0054799Y0030428D02*
X0053707Y0030428D01*
X0053707Y0030438D02*
X0054799Y0030438D01*
X0054799Y0030448D02*
X0053707Y0030448D01*
X0053707Y0030458D02*
X0054799Y0030458D01*
X0054799Y0030468D02*
X0053707Y0030468D01*
X0053707Y0030478D02*
X0054799Y0030478D01*
X0054799Y0030488D02*
X0053707Y0030488D01*
X0053707Y0030498D02*
X0054799Y0030498D01*
X0054799Y0030508D02*
X0053707Y0030508D01*
X0053707Y0030518D02*
X0054799Y0030518D01*
X0054799Y0030528D02*
X0053707Y0030528D01*
X0053707Y0030538D02*
X0054799Y0030538D01*
X0054799Y0030548D02*
X0053707Y0030548D01*
X0053707Y0030558D02*
X0054799Y0030558D01*
X0054799Y0030568D02*
X0053707Y0030568D01*
X0053707Y0030578D02*
X0054799Y0030578D01*
X0054799Y0030588D02*
X0053707Y0030588D01*
X0053707Y0030598D02*
X0054799Y0030598D01*
X0054799Y0030608D02*
X0053707Y0030608D01*
X0053707Y0030618D02*
X0054799Y0030618D01*
X0054799Y0030628D02*
X0053707Y0030628D01*
X0053707Y0030638D02*
X0054799Y0030638D01*
X0054799Y0030648D02*
X0053707Y0030648D01*
X0053707Y0030658D02*
X0054799Y0030658D01*
X0054799Y0030668D02*
X0053707Y0030668D01*
X0053707Y0030678D02*
X0054799Y0030678D01*
X0054799Y0030688D02*
X0053707Y0030688D01*
X0053707Y0030698D02*
X0054799Y0030698D01*
X0054799Y0030708D02*
X0053707Y0030708D01*
X0053707Y0030718D02*
X0054799Y0030718D01*
X0054799Y0030728D02*
X0053707Y0030728D01*
X0053707Y0030738D02*
X0054799Y0030738D01*
X0054799Y0030748D02*
X0053707Y0030748D01*
X0053707Y0030758D02*
X0054799Y0030758D01*
X0054799Y0030768D02*
X0053707Y0030768D01*
X0053707Y0030778D02*
X0054799Y0030778D01*
X0054799Y0030788D02*
X0053707Y0030788D01*
X0053707Y0030798D02*
X0054799Y0030798D01*
X0054799Y0030808D02*
X0053707Y0030808D01*
X0053707Y0030818D02*
X0054799Y0030818D01*
X0054799Y0030828D02*
X0053707Y0030828D01*
X0053707Y0030838D02*
X0054799Y0030838D01*
X0054799Y0030848D02*
X0053707Y0030848D01*
X0053707Y0030858D02*
X0054799Y0030858D01*
X0054799Y0030868D02*
X0053707Y0030868D01*
X0053707Y0030878D02*
X0054799Y0030878D01*
X0054799Y0030888D02*
X0053707Y0030888D01*
X0053707Y0030898D02*
X0054799Y0030898D01*
X0054799Y0030908D02*
X0053707Y0030908D01*
X0053707Y0030918D02*
X0054799Y0030918D01*
X0054799Y0030928D02*
X0053707Y0030928D01*
X0053707Y0030938D02*
X0054799Y0030938D01*
X0054799Y0030948D02*
X0053707Y0030948D01*
X0053707Y0030958D02*
X0054799Y0030958D01*
X0054799Y0030968D02*
X0053707Y0030968D01*
X0053707Y0030978D02*
X0054799Y0030978D01*
X0054799Y0030988D02*
X0053707Y0030988D01*
X0053707Y0030998D02*
X0054799Y0030998D01*
X0054799Y0031008D02*
X0053707Y0031008D01*
X0053707Y0031018D02*
X0054799Y0031018D01*
X0054799Y0031028D02*
X0053707Y0031028D01*
X0052831Y0031036D02*
X0052831Y0027798D01*
X0051739Y0027798D01*
X0051739Y0031036D01*
X0052831Y0031036D01*
X0052831Y0027808D02*
X0051739Y0027808D01*
X0051739Y0027818D02*
X0052831Y0027818D01*
X0052831Y0027828D02*
X0051739Y0027828D01*
X0051739Y0027838D02*
X0052831Y0027838D01*
X0052831Y0027848D02*
X0051739Y0027848D01*
X0051739Y0027858D02*
X0052831Y0027858D01*
X0052831Y0027868D02*
X0051739Y0027868D01*
X0051739Y0027878D02*
X0052831Y0027878D01*
X0052831Y0027888D02*
X0051739Y0027888D01*
X0051739Y0027898D02*
X0052831Y0027898D01*
X0052831Y0027908D02*
X0051739Y0027908D01*
X0051739Y0027918D02*
X0052831Y0027918D01*
X0052831Y0027928D02*
X0051739Y0027928D01*
X0051739Y0027938D02*
X0052831Y0027938D01*
X0052831Y0027948D02*
X0051739Y0027948D01*
X0051739Y0027958D02*
X0052831Y0027958D01*
X0052831Y0027968D02*
X0051739Y0027968D01*
X0051739Y0027978D02*
X0052831Y0027978D01*
X0052831Y0027988D02*
X0051739Y0027988D01*
X0051739Y0027998D02*
X0052831Y0027998D01*
X0052831Y0028008D02*
X0051739Y0028008D01*
X0051739Y0028018D02*
X0052831Y0028018D01*
X0052831Y0028028D02*
X0051739Y0028028D01*
X0051739Y0028038D02*
X0052831Y0028038D01*
X0052831Y0028048D02*
X0051739Y0028048D01*
X0051739Y0028058D02*
X0052831Y0028058D01*
X0052831Y0028068D02*
X0051739Y0028068D01*
X0051739Y0028078D02*
X0052831Y0028078D01*
X0052831Y0028088D02*
X0051739Y0028088D01*
X0051739Y0028098D02*
X0052831Y0028098D01*
X0052831Y0028108D02*
X0051739Y0028108D01*
X0051739Y0028118D02*
X0052831Y0028118D01*
X0052831Y0028128D02*
X0051739Y0028128D01*
X0051739Y0028138D02*
X0052831Y0028138D01*
X0052831Y0028148D02*
X0051739Y0028148D01*
X0051739Y0028158D02*
X0052831Y0028158D01*
X0052831Y0028168D02*
X0051739Y0028168D01*
X0051739Y0028178D02*
X0052831Y0028178D01*
X0052831Y0028188D02*
X0051739Y0028188D01*
X0051739Y0028198D02*
X0052831Y0028198D01*
X0052831Y0028208D02*
X0051739Y0028208D01*
X0051739Y0028218D02*
X0052831Y0028218D01*
X0052831Y0028228D02*
X0051739Y0028228D01*
X0051739Y0028238D02*
X0052831Y0028238D01*
X0052831Y0028248D02*
X0051739Y0028248D01*
X0051739Y0028258D02*
X0052831Y0028258D01*
X0052831Y0028268D02*
X0051739Y0028268D01*
X0051739Y0028278D02*
X0052831Y0028278D01*
X0052831Y0028288D02*
X0051739Y0028288D01*
X0051739Y0028298D02*
X0052831Y0028298D01*
X0052831Y0028308D02*
X0051739Y0028308D01*
X0051739Y0028318D02*
X0052831Y0028318D01*
X0052831Y0028328D02*
X0051739Y0028328D01*
X0051739Y0028338D02*
X0052831Y0028338D01*
X0052831Y0028348D02*
X0051739Y0028348D01*
X0051739Y0028358D02*
X0052831Y0028358D01*
X0052831Y0028368D02*
X0051739Y0028368D01*
X0051739Y0028378D02*
X0052831Y0028378D01*
X0052831Y0028388D02*
X0051739Y0028388D01*
X0051739Y0028398D02*
X0052831Y0028398D01*
X0052831Y0028408D02*
X0051739Y0028408D01*
X0051739Y0028418D02*
X0052831Y0028418D01*
X0052831Y0028428D02*
X0051739Y0028428D01*
X0051739Y0028438D02*
X0052831Y0028438D01*
X0052831Y0028448D02*
X0051739Y0028448D01*
X0051739Y0028458D02*
X0052831Y0028458D01*
X0052831Y0028468D02*
X0051739Y0028468D01*
X0051739Y0028478D02*
X0052831Y0028478D01*
X0052831Y0028488D02*
X0051739Y0028488D01*
X0051739Y0028498D02*
X0052831Y0028498D01*
X0052831Y0028508D02*
X0051739Y0028508D01*
X0051739Y0028518D02*
X0052831Y0028518D01*
X0052831Y0028528D02*
X0051739Y0028528D01*
X0051739Y0028538D02*
X0052831Y0028538D01*
X0052831Y0028548D02*
X0051739Y0028548D01*
X0051739Y0028558D02*
X0052831Y0028558D01*
X0052831Y0028568D02*
X0051739Y0028568D01*
X0051739Y0028578D02*
X0052831Y0028578D01*
X0052831Y0028588D02*
X0051739Y0028588D01*
X0051739Y0028598D02*
X0052831Y0028598D01*
X0052831Y0028608D02*
X0051739Y0028608D01*
X0051739Y0028618D02*
X0052831Y0028618D01*
X0052831Y0028628D02*
X0051739Y0028628D01*
X0051739Y0028638D02*
X0052831Y0028638D01*
X0052831Y0028648D02*
X0051739Y0028648D01*
X0051739Y0028658D02*
X0052831Y0028658D01*
X0052831Y0028668D02*
X0051739Y0028668D01*
X0051739Y0028678D02*
X0052831Y0028678D01*
X0052831Y0028688D02*
X0051739Y0028688D01*
X0051739Y0028698D02*
X0052831Y0028698D01*
X0052831Y0028708D02*
X0051739Y0028708D01*
X0051739Y0028718D02*
X0052831Y0028718D01*
X0052831Y0028728D02*
X0051739Y0028728D01*
X0051739Y0028738D02*
X0052831Y0028738D01*
X0052831Y0028748D02*
X0051739Y0028748D01*
X0051739Y0028758D02*
X0052831Y0028758D01*
X0052831Y0028768D02*
X0051739Y0028768D01*
X0051739Y0028778D02*
X0052831Y0028778D01*
X0052831Y0028788D02*
X0051739Y0028788D01*
X0051739Y0028798D02*
X0052831Y0028798D01*
X0052831Y0028808D02*
X0051739Y0028808D01*
X0051739Y0028818D02*
X0052831Y0028818D01*
X0052831Y0028828D02*
X0051739Y0028828D01*
X0051739Y0028838D02*
X0052831Y0028838D01*
X0052831Y0028848D02*
X0051739Y0028848D01*
X0051739Y0028858D02*
X0052831Y0028858D01*
X0052831Y0028868D02*
X0051739Y0028868D01*
X0051739Y0028878D02*
X0052831Y0028878D01*
X0052831Y0028888D02*
X0051739Y0028888D01*
X0051739Y0028898D02*
X0052831Y0028898D01*
X0052831Y0028908D02*
X0051739Y0028908D01*
X0051739Y0028918D02*
X0052831Y0028918D01*
X0052831Y0028928D02*
X0051739Y0028928D01*
X0051739Y0028938D02*
X0052831Y0028938D01*
X0052831Y0028948D02*
X0051739Y0028948D01*
X0051739Y0028958D02*
X0052831Y0028958D01*
X0052831Y0028968D02*
X0051739Y0028968D01*
X0051739Y0028978D02*
X0052831Y0028978D01*
X0052831Y0028988D02*
X0051739Y0028988D01*
X0051739Y0028998D02*
X0052831Y0028998D01*
X0052831Y0029008D02*
X0051739Y0029008D01*
X0051739Y0029018D02*
X0052831Y0029018D01*
X0052831Y0029028D02*
X0051739Y0029028D01*
X0051739Y0029038D02*
X0052831Y0029038D01*
X0052831Y0029048D02*
X0051739Y0029048D01*
X0051739Y0029058D02*
X0052831Y0029058D01*
X0052831Y0029068D02*
X0051739Y0029068D01*
X0051739Y0029078D02*
X0052831Y0029078D01*
X0052831Y0029088D02*
X0051739Y0029088D01*
X0051739Y0029098D02*
X0052831Y0029098D01*
X0052831Y0029108D02*
X0051739Y0029108D01*
X0051739Y0029118D02*
X0052831Y0029118D01*
X0052831Y0029128D02*
X0051739Y0029128D01*
X0051739Y0029138D02*
X0052831Y0029138D01*
X0052831Y0029148D02*
X0051739Y0029148D01*
X0051739Y0029158D02*
X0052831Y0029158D01*
X0052831Y0029168D02*
X0051739Y0029168D01*
X0051739Y0029178D02*
X0052831Y0029178D01*
X0052831Y0029188D02*
X0051739Y0029188D01*
X0051739Y0029198D02*
X0052831Y0029198D01*
X0052831Y0029208D02*
X0051739Y0029208D01*
X0051739Y0029218D02*
X0052831Y0029218D01*
X0052831Y0029228D02*
X0051739Y0029228D01*
X0051739Y0029238D02*
X0052831Y0029238D01*
X0052831Y0029248D02*
X0051739Y0029248D01*
X0051739Y0029258D02*
X0052831Y0029258D01*
X0052831Y0029268D02*
X0051739Y0029268D01*
X0051739Y0029278D02*
X0052831Y0029278D01*
X0052831Y0029288D02*
X0051739Y0029288D01*
X0051739Y0029298D02*
X0052831Y0029298D01*
X0052831Y0029308D02*
X0051739Y0029308D01*
X0051739Y0029318D02*
X0052831Y0029318D01*
X0052831Y0029328D02*
X0051739Y0029328D01*
X0051739Y0029338D02*
X0052831Y0029338D01*
X0052831Y0029348D02*
X0051739Y0029348D01*
X0051739Y0029358D02*
X0052831Y0029358D01*
X0052831Y0029368D02*
X0051739Y0029368D01*
X0051739Y0029378D02*
X0052831Y0029378D01*
X0052831Y0029388D02*
X0051739Y0029388D01*
X0051739Y0029398D02*
X0052831Y0029398D01*
X0052831Y0029408D02*
X0051739Y0029408D01*
X0051739Y0029418D02*
X0052831Y0029418D01*
X0052831Y0029428D02*
X0051739Y0029428D01*
X0051739Y0029438D02*
X0052831Y0029438D01*
X0052831Y0029448D02*
X0051739Y0029448D01*
X0051739Y0029458D02*
X0052831Y0029458D01*
X0052831Y0029468D02*
X0051739Y0029468D01*
X0051739Y0029478D02*
X0052831Y0029478D01*
X0052831Y0029488D02*
X0051739Y0029488D01*
X0051739Y0029498D02*
X0052831Y0029498D01*
X0052831Y0029508D02*
X0051739Y0029508D01*
X0051739Y0029518D02*
X0052831Y0029518D01*
X0052831Y0029528D02*
X0051739Y0029528D01*
X0051739Y0029538D02*
X0052831Y0029538D01*
X0052831Y0029548D02*
X0051739Y0029548D01*
X0051739Y0029558D02*
X0052831Y0029558D01*
X0052831Y0029568D02*
X0051739Y0029568D01*
X0051739Y0029578D02*
X0052831Y0029578D01*
X0052831Y0029588D02*
X0051739Y0029588D01*
X0051739Y0029598D02*
X0052831Y0029598D01*
X0052831Y0029608D02*
X0051739Y0029608D01*
X0051739Y0029618D02*
X0052831Y0029618D01*
X0052831Y0029628D02*
X0051739Y0029628D01*
X0051739Y0029638D02*
X0052831Y0029638D01*
X0052831Y0029648D02*
X0051739Y0029648D01*
X0051739Y0029658D02*
X0052831Y0029658D01*
X0052831Y0029668D02*
X0051739Y0029668D01*
X0051739Y0029678D02*
X0052831Y0029678D01*
X0052831Y0029688D02*
X0051739Y0029688D01*
X0051739Y0029698D02*
X0052831Y0029698D01*
X0052831Y0029708D02*
X0051739Y0029708D01*
X0051739Y0029718D02*
X0052831Y0029718D01*
X0052831Y0029728D02*
X0051739Y0029728D01*
X0051739Y0029738D02*
X0052831Y0029738D01*
X0052831Y0029748D02*
X0051739Y0029748D01*
X0051739Y0029758D02*
X0052831Y0029758D01*
X0052831Y0029768D02*
X0051739Y0029768D01*
X0051739Y0029778D02*
X0052831Y0029778D01*
X0052831Y0029788D02*
X0051739Y0029788D01*
X0051739Y0029798D02*
X0052831Y0029798D01*
X0052831Y0029808D02*
X0051739Y0029808D01*
X0051739Y0029818D02*
X0052831Y0029818D01*
X0052831Y0029828D02*
X0051739Y0029828D01*
X0051739Y0029838D02*
X0052831Y0029838D01*
X0052831Y0029848D02*
X0051739Y0029848D01*
X0051739Y0029858D02*
X0052831Y0029858D01*
X0052831Y0029868D02*
X0051739Y0029868D01*
X0051739Y0029878D02*
X0052831Y0029878D01*
X0052831Y0029888D02*
X0051739Y0029888D01*
X0051739Y0029898D02*
X0052831Y0029898D01*
X0052831Y0029908D02*
X0051739Y0029908D01*
X0051739Y0029918D02*
X0052831Y0029918D01*
X0052831Y0029928D02*
X0051739Y0029928D01*
X0051739Y0029938D02*
X0052831Y0029938D01*
X0052831Y0029948D02*
X0051739Y0029948D01*
X0051739Y0029958D02*
X0052831Y0029958D01*
X0052831Y0029968D02*
X0051739Y0029968D01*
X0051739Y0029978D02*
X0052831Y0029978D01*
X0052831Y0029988D02*
X0051739Y0029988D01*
X0051739Y0029998D02*
X0052831Y0029998D01*
X0052831Y0030008D02*
X0051739Y0030008D01*
X0051739Y0030018D02*
X0052831Y0030018D01*
X0052831Y0030028D02*
X0051739Y0030028D01*
X0051739Y0030038D02*
X0052831Y0030038D01*
X0052831Y0030048D02*
X0051739Y0030048D01*
X0051739Y0030058D02*
X0052831Y0030058D01*
X0052831Y0030068D02*
X0051739Y0030068D01*
X0051739Y0030078D02*
X0052831Y0030078D01*
X0052831Y0030088D02*
X0051739Y0030088D01*
X0051739Y0030098D02*
X0052831Y0030098D01*
X0052831Y0030108D02*
X0051739Y0030108D01*
X0051739Y0030118D02*
X0052831Y0030118D01*
X0052831Y0030128D02*
X0051739Y0030128D01*
X0051739Y0030138D02*
X0052831Y0030138D01*
X0052831Y0030148D02*
X0051739Y0030148D01*
X0051739Y0030158D02*
X0052831Y0030158D01*
X0052831Y0030168D02*
X0051739Y0030168D01*
X0051739Y0030178D02*
X0052831Y0030178D01*
X0052831Y0030188D02*
X0051739Y0030188D01*
X0051739Y0030198D02*
X0052831Y0030198D01*
X0052831Y0030208D02*
X0051739Y0030208D01*
X0051739Y0030218D02*
X0052831Y0030218D01*
X0052831Y0030228D02*
X0051739Y0030228D01*
X0051739Y0030238D02*
X0052831Y0030238D01*
X0052831Y0030248D02*
X0051739Y0030248D01*
X0051739Y0030258D02*
X0052831Y0030258D01*
X0052831Y0030268D02*
X0051739Y0030268D01*
X0051739Y0030278D02*
X0052831Y0030278D01*
X0052831Y0030288D02*
X0051739Y0030288D01*
X0051739Y0030298D02*
X0052831Y0030298D01*
X0052831Y0030308D02*
X0051739Y0030308D01*
X0051739Y0030318D02*
X0052831Y0030318D01*
X0052831Y0030328D02*
X0051739Y0030328D01*
X0051739Y0030338D02*
X0052831Y0030338D01*
X0052831Y0030348D02*
X0051739Y0030348D01*
X0051739Y0030358D02*
X0052831Y0030358D01*
X0052831Y0030368D02*
X0051739Y0030368D01*
X0051739Y0030378D02*
X0052831Y0030378D01*
X0052831Y0030388D02*
X0051739Y0030388D01*
X0051739Y0030398D02*
X0052831Y0030398D01*
X0052831Y0030408D02*
X0051739Y0030408D01*
X0051739Y0030418D02*
X0052831Y0030418D01*
X0052831Y0030428D02*
X0051739Y0030428D01*
X0051739Y0030438D02*
X0052831Y0030438D01*
X0052831Y0030448D02*
X0051739Y0030448D01*
X0051739Y0030458D02*
X0052831Y0030458D01*
X0052831Y0030468D02*
X0051739Y0030468D01*
X0051739Y0030478D02*
X0052831Y0030478D01*
X0052831Y0030488D02*
X0051739Y0030488D01*
X0051739Y0030498D02*
X0052831Y0030498D01*
X0052831Y0030508D02*
X0051739Y0030508D01*
X0051739Y0030518D02*
X0052831Y0030518D01*
X0052831Y0030528D02*
X0051739Y0030528D01*
X0051739Y0030538D02*
X0052831Y0030538D01*
X0052831Y0030548D02*
X0051739Y0030548D01*
X0051739Y0030558D02*
X0052831Y0030558D01*
X0052831Y0030568D02*
X0051739Y0030568D01*
X0051739Y0030578D02*
X0052831Y0030578D01*
X0052831Y0030588D02*
X0051739Y0030588D01*
X0051739Y0030598D02*
X0052831Y0030598D01*
X0052831Y0030608D02*
X0051739Y0030608D01*
X0051739Y0030618D02*
X0052831Y0030618D01*
X0052831Y0030628D02*
X0051739Y0030628D01*
X0051739Y0030638D02*
X0052831Y0030638D01*
X0052831Y0030648D02*
X0051739Y0030648D01*
X0051739Y0030658D02*
X0052831Y0030658D01*
X0052831Y0030668D02*
X0051739Y0030668D01*
X0051739Y0030678D02*
X0052831Y0030678D01*
X0052831Y0030688D02*
X0051739Y0030688D01*
X0051739Y0030698D02*
X0052831Y0030698D01*
X0052831Y0030708D02*
X0051739Y0030708D01*
X0051739Y0030718D02*
X0052831Y0030718D01*
X0052831Y0030728D02*
X0051739Y0030728D01*
X0051739Y0030738D02*
X0052831Y0030738D01*
X0052831Y0030748D02*
X0051739Y0030748D01*
X0051739Y0030758D02*
X0052831Y0030758D01*
X0052831Y0030768D02*
X0051739Y0030768D01*
X0051739Y0030778D02*
X0052831Y0030778D01*
X0052831Y0030788D02*
X0051739Y0030788D01*
X0051739Y0030798D02*
X0052831Y0030798D01*
X0052831Y0030808D02*
X0051739Y0030808D01*
X0051739Y0030818D02*
X0052831Y0030818D01*
X0052831Y0030828D02*
X0051739Y0030828D01*
X0051739Y0030838D02*
X0052831Y0030838D01*
X0052831Y0030848D02*
X0051739Y0030848D01*
X0051739Y0030858D02*
X0052831Y0030858D01*
X0052831Y0030868D02*
X0051739Y0030868D01*
X0051739Y0030878D02*
X0052831Y0030878D01*
X0052831Y0030888D02*
X0051739Y0030888D01*
X0051739Y0030898D02*
X0052831Y0030898D01*
X0052831Y0030908D02*
X0051739Y0030908D01*
X0051739Y0030918D02*
X0052831Y0030918D01*
X0052831Y0030928D02*
X0051739Y0030928D01*
X0051739Y0030938D02*
X0052831Y0030938D01*
X0052831Y0030948D02*
X0051739Y0030948D01*
X0051739Y0030958D02*
X0052831Y0030958D01*
X0052831Y0030968D02*
X0051739Y0030968D01*
X0051739Y0030978D02*
X0052831Y0030978D01*
X0052831Y0030988D02*
X0051739Y0030988D01*
X0051739Y0030998D02*
X0052831Y0030998D01*
X0052831Y0031008D02*
X0051739Y0031008D01*
X0051739Y0031018D02*
X0052831Y0031018D01*
X0052831Y0031028D02*
X0051739Y0031028D01*
X0050862Y0031036D02*
X0050862Y0027798D01*
X0049770Y0027798D01*
X0049770Y0031036D01*
X0050862Y0031036D01*
X0050862Y0027808D02*
X0049770Y0027808D01*
X0049770Y0027818D02*
X0050862Y0027818D01*
X0050862Y0027828D02*
X0049770Y0027828D01*
X0049770Y0027838D02*
X0050862Y0027838D01*
X0050862Y0027848D02*
X0049770Y0027848D01*
X0049770Y0027858D02*
X0050862Y0027858D01*
X0050862Y0027868D02*
X0049770Y0027868D01*
X0049770Y0027878D02*
X0050862Y0027878D01*
X0050862Y0027888D02*
X0049770Y0027888D01*
X0049770Y0027898D02*
X0050862Y0027898D01*
X0050862Y0027908D02*
X0049770Y0027908D01*
X0049770Y0027918D02*
X0050862Y0027918D01*
X0050862Y0027928D02*
X0049770Y0027928D01*
X0049770Y0027938D02*
X0050862Y0027938D01*
X0050862Y0027948D02*
X0049770Y0027948D01*
X0049770Y0027958D02*
X0050862Y0027958D01*
X0050862Y0027968D02*
X0049770Y0027968D01*
X0049770Y0027978D02*
X0050862Y0027978D01*
X0050862Y0027988D02*
X0049770Y0027988D01*
X0049770Y0027998D02*
X0050862Y0027998D01*
X0050862Y0028008D02*
X0049770Y0028008D01*
X0049770Y0028018D02*
X0050862Y0028018D01*
X0050862Y0028028D02*
X0049770Y0028028D01*
X0049770Y0028038D02*
X0050862Y0028038D01*
X0050862Y0028048D02*
X0049770Y0028048D01*
X0049770Y0028058D02*
X0050862Y0028058D01*
X0050862Y0028068D02*
X0049770Y0028068D01*
X0049770Y0028078D02*
X0050862Y0028078D01*
X0050862Y0028088D02*
X0049770Y0028088D01*
X0049770Y0028098D02*
X0050862Y0028098D01*
X0050862Y0028108D02*
X0049770Y0028108D01*
X0049770Y0028118D02*
X0050862Y0028118D01*
X0050862Y0028128D02*
X0049770Y0028128D01*
X0049770Y0028138D02*
X0050862Y0028138D01*
X0050862Y0028148D02*
X0049770Y0028148D01*
X0049770Y0028158D02*
X0050862Y0028158D01*
X0050862Y0028168D02*
X0049770Y0028168D01*
X0049770Y0028178D02*
X0050862Y0028178D01*
X0050862Y0028188D02*
X0049770Y0028188D01*
X0049770Y0028198D02*
X0050862Y0028198D01*
X0050862Y0028208D02*
X0049770Y0028208D01*
X0049770Y0028218D02*
X0050862Y0028218D01*
X0050862Y0028228D02*
X0049770Y0028228D01*
X0049770Y0028238D02*
X0050862Y0028238D01*
X0050862Y0028248D02*
X0049770Y0028248D01*
X0049770Y0028258D02*
X0050862Y0028258D01*
X0050862Y0028268D02*
X0049770Y0028268D01*
X0049770Y0028278D02*
X0050862Y0028278D01*
X0050862Y0028288D02*
X0049770Y0028288D01*
X0049770Y0028298D02*
X0050862Y0028298D01*
X0050862Y0028308D02*
X0049770Y0028308D01*
X0049770Y0028318D02*
X0050862Y0028318D01*
X0050862Y0028328D02*
X0049770Y0028328D01*
X0049770Y0028338D02*
X0050862Y0028338D01*
X0050862Y0028348D02*
X0049770Y0028348D01*
X0049770Y0028358D02*
X0050862Y0028358D01*
X0050862Y0028368D02*
X0049770Y0028368D01*
X0049770Y0028378D02*
X0050862Y0028378D01*
X0050862Y0028388D02*
X0049770Y0028388D01*
X0049770Y0028398D02*
X0050862Y0028398D01*
X0050862Y0028408D02*
X0049770Y0028408D01*
X0049770Y0028418D02*
X0050862Y0028418D01*
X0050862Y0028428D02*
X0049770Y0028428D01*
X0049770Y0028438D02*
X0050862Y0028438D01*
X0050862Y0028448D02*
X0049770Y0028448D01*
X0049770Y0028458D02*
X0050862Y0028458D01*
X0050862Y0028468D02*
X0049770Y0028468D01*
X0049770Y0028478D02*
X0050862Y0028478D01*
X0050862Y0028488D02*
X0049770Y0028488D01*
X0049770Y0028498D02*
X0050862Y0028498D01*
X0050862Y0028508D02*
X0049770Y0028508D01*
X0049770Y0028518D02*
X0050862Y0028518D01*
X0050862Y0028528D02*
X0049770Y0028528D01*
X0049770Y0028538D02*
X0050862Y0028538D01*
X0050862Y0028548D02*
X0049770Y0028548D01*
X0049770Y0028558D02*
X0050862Y0028558D01*
X0050862Y0028568D02*
X0049770Y0028568D01*
X0049770Y0028578D02*
X0050862Y0028578D01*
X0050862Y0028588D02*
X0049770Y0028588D01*
X0049770Y0028598D02*
X0050862Y0028598D01*
X0050862Y0028608D02*
X0049770Y0028608D01*
X0049770Y0028618D02*
X0050862Y0028618D01*
X0050862Y0028628D02*
X0049770Y0028628D01*
X0049770Y0028638D02*
X0050862Y0028638D01*
X0050862Y0028648D02*
X0049770Y0028648D01*
X0049770Y0028658D02*
X0050862Y0028658D01*
X0050862Y0028668D02*
X0049770Y0028668D01*
X0049770Y0028678D02*
X0050862Y0028678D01*
X0050862Y0028688D02*
X0049770Y0028688D01*
X0049770Y0028698D02*
X0050862Y0028698D01*
X0050862Y0028708D02*
X0049770Y0028708D01*
X0049770Y0028718D02*
X0050862Y0028718D01*
X0050862Y0028728D02*
X0049770Y0028728D01*
X0049770Y0028738D02*
X0050862Y0028738D01*
X0050862Y0028748D02*
X0049770Y0028748D01*
X0049770Y0028758D02*
X0050862Y0028758D01*
X0050862Y0028768D02*
X0049770Y0028768D01*
X0049770Y0028778D02*
X0050862Y0028778D01*
X0050862Y0028788D02*
X0049770Y0028788D01*
X0049770Y0028798D02*
X0050862Y0028798D01*
X0050862Y0028808D02*
X0049770Y0028808D01*
X0049770Y0028818D02*
X0050862Y0028818D01*
X0050862Y0028828D02*
X0049770Y0028828D01*
X0049770Y0028838D02*
X0050862Y0028838D01*
X0050862Y0028848D02*
X0049770Y0028848D01*
X0049770Y0028858D02*
X0050862Y0028858D01*
X0050862Y0028868D02*
X0049770Y0028868D01*
X0049770Y0028878D02*
X0050862Y0028878D01*
X0050862Y0028888D02*
X0049770Y0028888D01*
X0049770Y0028898D02*
X0050862Y0028898D01*
X0050862Y0028908D02*
X0049770Y0028908D01*
X0049770Y0028918D02*
X0050862Y0028918D01*
X0050862Y0028928D02*
X0049770Y0028928D01*
X0049770Y0028938D02*
X0050862Y0028938D01*
X0050862Y0028948D02*
X0049770Y0028948D01*
X0049770Y0028958D02*
X0050862Y0028958D01*
X0050862Y0028968D02*
X0049770Y0028968D01*
X0049770Y0028978D02*
X0050862Y0028978D01*
X0050862Y0028988D02*
X0049770Y0028988D01*
X0049770Y0028998D02*
X0050862Y0028998D01*
X0050862Y0029008D02*
X0049770Y0029008D01*
X0049770Y0029018D02*
X0050862Y0029018D01*
X0050862Y0029028D02*
X0049770Y0029028D01*
X0049770Y0029038D02*
X0050862Y0029038D01*
X0050862Y0029048D02*
X0049770Y0029048D01*
X0049770Y0029058D02*
X0050862Y0029058D01*
X0050862Y0029068D02*
X0049770Y0029068D01*
X0049770Y0029078D02*
X0050862Y0029078D01*
X0050862Y0029088D02*
X0049770Y0029088D01*
X0049770Y0029098D02*
X0050862Y0029098D01*
X0050862Y0029108D02*
X0049770Y0029108D01*
X0049770Y0029118D02*
X0050862Y0029118D01*
X0050862Y0029128D02*
X0049770Y0029128D01*
X0049770Y0029138D02*
X0050862Y0029138D01*
X0050862Y0029148D02*
X0049770Y0029148D01*
X0049770Y0029158D02*
X0050862Y0029158D01*
X0050862Y0029168D02*
X0049770Y0029168D01*
X0049770Y0029178D02*
X0050862Y0029178D01*
X0050862Y0029188D02*
X0049770Y0029188D01*
X0049770Y0029198D02*
X0050862Y0029198D01*
X0050862Y0029208D02*
X0049770Y0029208D01*
X0049770Y0029218D02*
X0050862Y0029218D01*
X0050862Y0029228D02*
X0049770Y0029228D01*
X0049770Y0029238D02*
X0050862Y0029238D01*
X0050862Y0029248D02*
X0049770Y0029248D01*
X0049770Y0029258D02*
X0050862Y0029258D01*
X0050862Y0029268D02*
X0049770Y0029268D01*
X0049770Y0029278D02*
X0050862Y0029278D01*
X0050862Y0029288D02*
X0049770Y0029288D01*
X0049770Y0029298D02*
X0050862Y0029298D01*
X0050862Y0029308D02*
X0049770Y0029308D01*
X0049770Y0029318D02*
X0050862Y0029318D01*
X0050862Y0029328D02*
X0049770Y0029328D01*
X0049770Y0029338D02*
X0050862Y0029338D01*
X0050862Y0029348D02*
X0049770Y0029348D01*
X0049770Y0029358D02*
X0050862Y0029358D01*
X0050862Y0029368D02*
X0049770Y0029368D01*
X0049770Y0029378D02*
X0050862Y0029378D01*
X0050862Y0029388D02*
X0049770Y0029388D01*
X0049770Y0029398D02*
X0050862Y0029398D01*
X0050862Y0029408D02*
X0049770Y0029408D01*
X0049770Y0029418D02*
X0050862Y0029418D01*
X0050862Y0029428D02*
X0049770Y0029428D01*
X0049770Y0029438D02*
X0050862Y0029438D01*
X0050862Y0029448D02*
X0049770Y0029448D01*
X0049770Y0029458D02*
X0050862Y0029458D01*
X0050862Y0029468D02*
X0049770Y0029468D01*
X0049770Y0029478D02*
X0050862Y0029478D01*
X0050862Y0029488D02*
X0049770Y0029488D01*
X0049770Y0029498D02*
X0050862Y0029498D01*
X0050862Y0029508D02*
X0049770Y0029508D01*
X0049770Y0029518D02*
X0050862Y0029518D01*
X0050862Y0029528D02*
X0049770Y0029528D01*
X0049770Y0029538D02*
X0050862Y0029538D01*
X0050862Y0029548D02*
X0049770Y0029548D01*
X0049770Y0029558D02*
X0050862Y0029558D01*
X0050862Y0029568D02*
X0049770Y0029568D01*
X0049770Y0029578D02*
X0050862Y0029578D01*
X0050862Y0029588D02*
X0049770Y0029588D01*
X0049770Y0029598D02*
X0050862Y0029598D01*
X0050862Y0029608D02*
X0049770Y0029608D01*
X0049770Y0029618D02*
X0050862Y0029618D01*
X0050862Y0029628D02*
X0049770Y0029628D01*
X0049770Y0029638D02*
X0050862Y0029638D01*
X0050862Y0029648D02*
X0049770Y0029648D01*
X0049770Y0029658D02*
X0050862Y0029658D01*
X0050862Y0029668D02*
X0049770Y0029668D01*
X0049770Y0029678D02*
X0050862Y0029678D01*
X0050862Y0029688D02*
X0049770Y0029688D01*
X0049770Y0029698D02*
X0050862Y0029698D01*
X0050862Y0029708D02*
X0049770Y0029708D01*
X0049770Y0029718D02*
X0050862Y0029718D01*
X0050862Y0029728D02*
X0049770Y0029728D01*
X0049770Y0029738D02*
X0050862Y0029738D01*
X0050862Y0029748D02*
X0049770Y0029748D01*
X0049770Y0029758D02*
X0050862Y0029758D01*
X0050862Y0029768D02*
X0049770Y0029768D01*
X0049770Y0029778D02*
X0050862Y0029778D01*
X0050862Y0029788D02*
X0049770Y0029788D01*
X0049770Y0029798D02*
X0050862Y0029798D01*
X0050862Y0029808D02*
X0049770Y0029808D01*
X0049770Y0029818D02*
X0050862Y0029818D01*
X0050862Y0029828D02*
X0049770Y0029828D01*
X0049770Y0029838D02*
X0050862Y0029838D01*
X0050862Y0029848D02*
X0049770Y0029848D01*
X0049770Y0029858D02*
X0050862Y0029858D01*
X0050862Y0029868D02*
X0049770Y0029868D01*
X0049770Y0029878D02*
X0050862Y0029878D01*
X0050862Y0029888D02*
X0049770Y0029888D01*
X0049770Y0029898D02*
X0050862Y0029898D01*
X0050862Y0029908D02*
X0049770Y0029908D01*
X0049770Y0029918D02*
X0050862Y0029918D01*
X0050862Y0029928D02*
X0049770Y0029928D01*
X0049770Y0029938D02*
X0050862Y0029938D01*
X0050862Y0029948D02*
X0049770Y0029948D01*
X0049770Y0029958D02*
X0050862Y0029958D01*
X0050862Y0029968D02*
X0049770Y0029968D01*
X0049770Y0029978D02*
X0050862Y0029978D01*
X0050862Y0029988D02*
X0049770Y0029988D01*
X0049770Y0029998D02*
X0050862Y0029998D01*
X0050862Y0030008D02*
X0049770Y0030008D01*
X0049770Y0030018D02*
X0050862Y0030018D01*
X0050862Y0030028D02*
X0049770Y0030028D01*
X0049770Y0030038D02*
X0050862Y0030038D01*
X0050862Y0030048D02*
X0049770Y0030048D01*
X0049770Y0030058D02*
X0050862Y0030058D01*
X0050862Y0030068D02*
X0049770Y0030068D01*
X0049770Y0030078D02*
X0050862Y0030078D01*
X0050862Y0030088D02*
X0049770Y0030088D01*
X0049770Y0030098D02*
X0050862Y0030098D01*
X0050862Y0030108D02*
X0049770Y0030108D01*
X0049770Y0030118D02*
X0050862Y0030118D01*
X0050862Y0030128D02*
X0049770Y0030128D01*
X0049770Y0030138D02*
X0050862Y0030138D01*
X0050862Y0030148D02*
X0049770Y0030148D01*
X0049770Y0030158D02*
X0050862Y0030158D01*
X0050862Y0030168D02*
X0049770Y0030168D01*
X0049770Y0030178D02*
X0050862Y0030178D01*
X0050862Y0030188D02*
X0049770Y0030188D01*
X0049770Y0030198D02*
X0050862Y0030198D01*
X0050862Y0030208D02*
X0049770Y0030208D01*
X0049770Y0030218D02*
X0050862Y0030218D01*
X0050862Y0030228D02*
X0049770Y0030228D01*
X0049770Y0030238D02*
X0050862Y0030238D01*
X0050862Y0030248D02*
X0049770Y0030248D01*
X0049770Y0030258D02*
X0050862Y0030258D01*
X0050862Y0030268D02*
X0049770Y0030268D01*
X0049770Y0030278D02*
X0050862Y0030278D01*
X0050862Y0030288D02*
X0049770Y0030288D01*
X0049770Y0030298D02*
X0050862Y0030298D01*
X0050862Y0030308D02*
X0049770Y0030308D01*
X0049770Y0030318D02*
X0050862Y0030318D01*
X0050862Y0030328D02*
X0049770Y0030328D01*
X0049770Y0030338D02*
X0050862Y0030338D01*
X0050862Y0030348D02*
X0049770Y0030348D01*
X0049770Y0030358D02*
X0050862Y0030358D01*
X0050862Y0030368D02*
X0049770Y0030368D01*
X0049770Y0030378D02*
X0050862Y0030378D01*
X0050862Y0030388D02*
X0049770Y0030388D01*
X0049770Y0030398D02*
X0050862Y0030398D01*
X0050862Y0030408D02*
X0049770Y0030408D01*
X0049770Y0030418D02*
X0050862Y0030418D01*
X0050862Y0030428D02*
X0049770Y0030428D01*
X0049770Y0030438D02*
X0050862Y0030438D01*
X0050862Y0030448D02*
X0049770Y0030448D01*
X0049770Y0030458D02*
X0050862Y0030458D01*
X0050862Y0030468D02*
X0049770Y0030468D01*
X0049770Y0030478D02*
X0050862Y0030478D01*
X0050862Y0030488D02*
X0049770Y0030488D01*
X0049770Y0030498D02*
X0050862Y0030498D01*
X0050862Y0030508D02*
X0049770Y0030508D01*
X0049770Y0030518D02*
X0050862Y0030518D01*
X0050862Y0030528D02*
X0049770Y0030528D01*
X0049770Y0030538D02*
X0050862Y0030538D01*
X0050862Y0030548D02*
X0049770Y0030548D01*
X0049770Y0030558D02*
X0050862Y0030558D01*
X0050862Y0030568D02*
X0049770Y0030568D01*
X0049770Y0030578D02*
X0050862Y0030578D01*
X0050862Y0030588D02*
X0049770Y0030588D01*
X0049770Y0030598D02*
X0050862Y0030598D01*
X0050862Y0030608D02*
X0049770Y0030608D01*
X0049770Y0030618D02*
X0050862Y0030618D01*
X0050862Y0030628D02*
X0049770Y0030628D01*
X0049770Y0030638D02*
X0050862Y0030638D01*
X0050862Y0030648D02*
X0049770Y0030648D01*
X0049770Y0030658D02*
X0050862Y0030658D01*
X0050862Y0030668D02*
X0049770Y0030668D01*
X0049770Y0030678D02*
X0050862Y0030678D01*
X0050862Y0030688D02*
X0049770Y0030688D01*
X0049770Y0030698D02*
X0050862Y0030698D01*
X0050862Y0030708D02*
X0049770Y0030708D01*
X0049770Y0030718D02*
X0050862Y0030718D01*
X0050862Y0030728D02*
X0049770Y0030728D01*
X0049770Y0030738D02*
X0050862Y0030738D01*
X0050862Y0030748D02*
X0049770Y0030748D01*
X0049770Y0030758D02*
X0050862Y0030758D01*
X0050862Y0030768D02*
X0049770Y0030768D01*
X0049770Y0030778D02*
X0050862Y0030778D01*
X0050862Y0030788D02*
X0049770Y0030788D01*
X0049770Y0030798D02*
X0050862Y0030798D01*
X0050862Y0030808D02*
X0049770Y0030808D01*
X0049770Y0030818D02*
X0050862Y0030818D01*
X0050862Y0030828D02*
X0049770Y0030828D01*
X0049770Y0030838D02*
X0050862Y0030838D01*
X0050862Y0030848D02*
X0049770Y0030848D01*
X0049770Y0030858D02*
X0050862Y0030858D01*
X0050862Y0030868D02*
X0049770Y0030868D01*
X0049770Y0030878D02*
X0050862Y0030878D01*
X0050862Y0030888D02*
X0049770Y0030888D01*
X0049770Y0030898D02*
X0050862Y0030898D01*
X0050862Y0030908D02*
X0049770Y0030908D01*
X0049770Y0030918D02*
X0050862Y0030918D01*
X0050862Y0030928D02*
X0049770Y0030928D01*
X0049770Y0030938D02*
X0050862Y0030938D01*
X0050862Y0030948D02*
X0049770Y0030948D01*
X0049770Y0030958D02*
X0050862Y0030958D01*
X0050862Y0030968D02*
X0049770Y0030968D01*
X0049770Y0030978D02*
X0050862Y0030978D01*
X0050862Y0030988D02*
X0049770Y0030988D01*
X0049770Y0030998D02*
X0050862Y0030998D01*
X0050862Y0031008D02*
X0049770Y0031008D01*
X0049770Y0031018D02*
X0050862Y0031018D01*
X0050862Y0031028D02*
X0049770Y0031028D01*
X0056768Y0031036D02*
X0056768Y0027798D01*
X0055676Y0027798D01*
X0055676Y0031036D01*
X0056768Y0031036D01*
X0056768Y0027808D02*
X0055676Y0027808D01*
X0055676Y0027818D02*
X0056768Y0027818D01*
X0056768Y0027828D02*
X0055676Y0027828D01*
X0055676Y0027838D02*
X0056768Y0027838D01*
X0056768Y0027848D02*
X0055676Y0027848D01*
X0055676Y0027858D02*
X0056768Y0027858D01*
X0056768Y0027868D02*
X0055676Y0027868D01*
X0055676Y0027878D02*
X0056768Y0027878D01*
X0056768Y0027888D02*
X0055676Y0027888D01*
X0055676Y0027898D02*
X0056768Y0027898D01*
X0056768Y0027908D02*
X0055676Y0027908D01*
X0055676Y0027918D02*
X0056768Y0027918D01*
X0056768Y0027928D02*
X0055676Y0027928D01*
X0055676Y0027938D02*
X0056768Y0027938D01*
X0056768Y0027948D02*
X0055676Y0027948D01*
X0055676Y0027958D02*
X0056768Y0027958D01*
X0056768Y0027968D02*
X0055676Y0027968D01*
X0055676Y0027978D02*
X0056768Y0027978D01*
X0056768Y0027988D02*
X0055676Y0027988D01*
X0055676Y0027998D02*
X0056768Y0027998D01*
X0056768Y0028008D02*
X0055676Y0028008D01*
X0055676Y0028018D02*
X0056768Y0028018D01*
X0056768Y0028028D02*
X0055676Y0028028D01*
X0055676Y0028038D02*
X0056768Y0028038D01*
X0056768Y0028048D02*
X0055676Y0028048D01*
X0055676Y0028058D02*
X0056768Y0028058D01*
X0056768Y0028068D02*
X0055676Y0028068D01*
X0055676Y0028078D02*
X0056768Y0028078D01*
X0056768Y0028088D02*
X0055676Y0028088D01*
X0055676Y0028098D02*
X0056768Y0028098D01*
X0056768Y0028108D02*
X0055676Y0028108D01*
X0055676Y0028118D02*
X0056768Y0028118D01*
X0056768Y0028128D02*
X0055676Y0028128D01*
X0055676Y0028138D02*
X0056768Y0028138D01*
X0056768Y0028148D02*
X0055676Y0028148D01*
X0055676Y0028158D02*
X0056768Y0028158D01*
X0056768Y0028168D02*
X0055676Y0028168D01*
X0055676Y0028178D02*
X0056768Y0028178D01*
X0056768Y0028188D02*
X0055676Y0028188D01*
X0055676Y0028198D02*
X0056768Y0028198D01*
X0056768Y0028208D02*
X0055676Y0028208D01*
X0055676Y0028218D02*
X0056768Y0028218D01*
X0056768Y0028228D02*
X0055676Y0028228D01*
X0055676Y0028238D02*
X0056768Y0028238D01*
X0056768Y0028248D02*
X0055676Y0028248D01*
X0055676Y0028258D02*
X0056768Y0028258D01*
X0056768Y0028268D02*
X0055676Y0028268D01*
X0055676Y0028278D02*
X0056768Y0028278D01*
X0056768Y0028288D02*
X0055676Y0028288D01*
X0055676Y0028298D02*
X0056768Y0028298D01*
X0056768Y0028308D02*
X0055676Y0028308D01*
X0055676Y0028318D02*
X0056768Y0028318D01*
X0056768Y0028328D02*
X0055676Y0028328D01*
X0055676Y0028338D02*
X0056768Y0028338D01*
X0056768Y0028348D02*
X0055676Y0028348D01*
X0055676Y0028358D02*
X0056768Y0028358D01*
X0056768Y0028368D02*
X0055676Y0028368D01*
X0055676Y0028378D02*
X0056768Y0028378D01*
X0056768Y0028388D02*
X0055676Y0028388D01*
X0055676Y0028398D02*
X0056768Y0028398D01*
X0056768Y0028408D02*
X0055676Y0028408D01*
X0055676Y0028418D02*
X0056768Y0028418D01*
X0056768Y0028428D02*
X0055676Y0028428D01*
X0055676Y0028438D02*
X0056768Y0028438D01*
X0056768Y0028448D02*
X0055676Y0028448D01*
X0055676Y0028458D02*
X0056768Y0028458D01*
X0056768Y0028468D02*
X0055676Y0028468D01*
X0055676Y0028478D02*
X0056768Y0028478D01*
X0056768Y0028488D02*
X0055676Y0028488D01*
X0055676Y0028498D02*
X0056768Y0028498D01*
X0056768Y0028508D02*
X0055676Y0028508D01*
X0055676Y0028518D02*
X0056768Y0028518D01*
X0056768Y0028528D02*
X0055676Y0028528D01*
X0055676Y0028538D02*
X0056768Y0028538D01*
X0056768Y0028548D02*
X0055676Y0028548D01*
X0055676Y0028558D02*
X0056768Y0028558D01*
X0056768Y0028568D02*
X0055676Y0028568D01*
X0055676Y0028578D02*
X0056768Y0028578D01*
X0056768Y0028588D02*
X0055676Y0028588D01*
X0055676Y0028598D02*
X0056768Y0028598D01*
X0056768Y0028608D02*
X0055676Y0028608D01*
X0055676Y0028618D02*
X0056768Y0028618D01*
X0056768Y0028628D02*
X0055676Y0028628D01*
X0055676Y0028638D02*
X0056768Y0028638D01*
X0056768Y0028648D02*
X0055676Y0028648D01*
X0055676Y0028658D02*
X0056768Y0028658D01*
X0056768Y0028668D02*
X0055676Y0028668D01*
X0055676Y0028678D02*
X0056768Y0028678D01*
X0056768Y0028688D02*
X0055676Y0028688D01*
X0055676Y0028698D02*
X0056768Y0028698D01*
X0056768Y0028708D02*
X0055676Y0028708D01*
X0055676Y0028718D02*
X0056768Y0028718D01*
X0056768Y0028728D02*
X0055676Y0028728D01*
X0055676Y0028738D02*
X0056768Y0028738D01*
X0056768Y0028748D02*
X0055676Y0028748D01*
X0055676Y0028758D02*
X0056768Y0028758D01*
X0056768Y0028768D02*
X0055676Y0028768D01*
X0055676Y0028778D02*
X0056768Y0028778D01*
X0056768Y0028788D02*
X0055676Y0028788D01*
X0055676Y0028798D02*
X0056768Y0028798D01*
X0056768Y0028808D02*
X0055676Y0028808D01*
X0055676Y0028818D02*
X0056768Y0028818D01*
X0056768Y0028828D02*
X0055676Y0028828D01*
X0055676Y0028838D02*
X0056768Y0028838D01*
X0056768Y0028848D02*
X0055676Y0028848D01*
X0055676Y0028858D02*
X0056768Y0028858D01*
X0056768Y0028868D02*
X0055676Y0028868D01*
X0055676Y0028878D02*
X0056768Y0028878D01*
X0056768Y0028888D02*
X0055676Y0028888D01*
X0055676Y0028898D02*
X0056768Y0028898D01*
X0056768Y0028908D02*
X0055676Y0028908D01*
X0055676Y0028918D02*
X0056768Y0028918D01*
X0056768Y0028928D02*
X0055676Y0028928D01*
X0055676Y0028938D02*
X0056768Y0028938D01*
X0056768Y0028948D02*
X0055676Y0028948D01*
X0055676Y0028958D02*
X0056768Y0028958D01*
X0056768Y0028968D02*
X0055676Y0028968D01*
X0055676Y0028978D02*
X0056768Y0028978D01*
X0056768Y0028988D02*
X0055676Y0028988D01*
X0055676Y0028998D02*
X0056768Y0028998D01*
X0056768Y0029008D02*
X0055676Y0029008D01*
X0055676Y0029018D02*
X0056768Y0029018D01*
X0056768Y0029028D02*
X0055676Y0029028D01*
X0055676Y0029038D02*
X0056768Y0029038D01*
X0056768Y0029048D02*
X0055676Y0029048D01*
X0055676Y0029058D02*
X0056768Y0029058D01*
X0056768Y0029068D02*
X0055676Y0029068D01*
X0055676Y0029078D02*
X0056768Y0029078D01*
X0056768Y0029088D02*
X0055676Y0029088D01*
X0055676Y0029098D02*
X0056768Y0029098D01*
X0056768Y0029108D02*
X0055676Y0029108D01*
X0055676Y0029118D02*
X0056768Y0029118D01*
X0056768Y0029128D02*
X0055676Y0029128D01*
X0055676Y0029138D02*
X0056768Y0029138D01*
X0056768Y0029148D02*
X0055676Y0029148D01*
X0055676Y0029158D02*
X0056768Y0029158D01*
X0056768Y0029168D02*
X0055676Y0029168D01*
X0055676Y0029178D02*
X0056768Y0029178D01*
X0056768Y0029188D02*
X0055676Y0029188D01*
X0055676Y0029198D02*
X0056768Y0029198D01*
X0056768Y0029208D02*
X0055676Y0029208D01*
X0055676Y0029218D02*
X0056768Y0029218D01*
X0056768Y0029228D02*
X0055676Y0029228D01*
X0055676Y0029238D02*
X0056768Y0029238D01*
X0056768Y0029248D02*
X0055676Y0029248D01*
X0055676Y0029258D02*
X0056768Y0029258D01*
X0056768Y0029268D02*
X0055676Y0029268D01*
X0055676Y0029278D02*
X0056768Y0029278D01*
X0056768Y0029288D02*
X0055676Y0029288D01*
X0055676Y0029298D02*
X0056768Y0029298D01*
X0056768Y0029308D02*
X0055676Y0029308D01*
X0055676Y0029318D02*
X0056768Y0029318D01*
X0056768Y0029328D02*
X0055676Y0029328D01*
X0055676Y0029338D02*
X0056768Y0029338D01*
X0056768Y0029348D02*
X0055676Y0029348D01*
X0055676Y0029358D02*
X0056768Y0029358D01*
X0056768Y0029368D02*
X0055676Y0029368D01*
X0055676Y0029378D02*
X0056768Y0029378D01*
X0056768Y0029388D02*
X0055676Y0029388D01*
X0055676Y0029398D02*
X0056768Y0029398D01*
X0056768Y0029408D02*
X0055676Y0029408D01*
X0055676Y0029418D02*
X0056768Y0029418D01*
X0056768Y0029428D02*
X0055676Y0029428D01*
X0055676Y0029438D02*
X0056768Y0029438D01*
X0056768Y0029448D02*
X0055676Y0029448D01*
X0055676Y0029458D02*
X0056768Y0029458D01*
X0056768Y0029468D02*
X0055676Y0029468D01*
X0055676Y0029478D02*
X0056768Y0029478D01*
X0056768Y0029488D02*
X0055676Y0029488D01*
X0055676Y0029498D02*
X0056768Y0029498D01*
X0056768Y0029508D02*
X0055676Y0029508D01*
X0055676Y0029518D02*
X0056768Y0029518D01*
X0056768Y0029528D02*
X0055676Y0029528D01*
X0055676Y0029538D02*
X0056768Y0029538D01*
X0056768Y0029548D02*
X0055676Y0029548D01*
X0055676Y0029558D02*
X0056768Y0029558D01*
X0056768Y0029568D02*
X0055676Y0029568D01*
X0055676Y0029578D02*
X0056768Y0029578D01*
X0056768Y0029588D02*
X0055676Y0029588D01*
X0055676Y0029598D02*
X0056768Y0029598D01*
X0056768Y0029608D02*
X0055676Y0029608D01*
X0055676Y0029618D02*
X0056768Y0029618D01*
X0056768Y0029628D02*
X0055676Y0029628D01*
X0055676Y0029638D02*
X0056768Y0029638D01*
X0056768Y0029648D02*
X0055676Y0029648D01*
X0055676Y0029658D02*
X0056768Y0029658D01*
X0056768Y0029668D02*
X0055676Y0029668D01*
X0055676Y0029678D02*
X0056768Y0029678D01*
X0056768Y0029688D02*
X0055676Y0029688D01*
X0055676Y0029698D02*
X0056768Y0029698D01*
X0056768Y0029708D02*
X0055676Y0029708D01*
X0055676Y0029718D02*
X0056768Y0029718D01*
X0056768Y0029728D02*
X0055676Y0029728D01*
X0055676Y0029738D02*
X0056768Y0029738D01*
X0056768Y0029748D02*
X0055676Y0029748D01*
X0055676Y0029758D02*
X0056768Y0029758D01*
X0056768Y0029768D02*
X0055676Y0029768D01*
X0055676Y0029778D02*
X0056768Y0029778D01*
X0056768Y0029788D02*
X0055676Y0029788D01*
X0055676Y0029798D02*
X0056768Y0029798D01*
X0056768Y0029808D02*
X0055676Y0029808D01*
X0055676Y0029818D02*
X0056768Y0029818D01*
X0056768Y0029828D02*
X0055676Y0029828D01*
X0055676Y0029838D02*
X0056768Y0029838D01*
X0056768Y0029848D02*
X0055676Y0029848D01*
X0055676Y0029858D02*
X0056768Y0029858D01*
X0056768Y0029868D02*
X0055676Y0029868D01*
X0055676Y0029878D02*
X0056768Y0029878D01*
X0056768Y0029888D02*
X0055676Y0029888D01*
X0055676Y0029898D02*
X0056768Y0029898D01*
X0056768Y0029908D02*
X0055676Y0029908D01*
X0055676Y0029918D02*
X0056768Y0029918D01*
X0056768Y0029928D02*
X0055676Y0029928D01*
X0055676Y0029938D02*
X0056768Y0029938D01*
X0056768Y0029948D02*
X0055676Y0029948D01*
X0055676Y0029958D02*
X0056768Y0029958D01*
X0056768Y0029968D02*
X0055676Y0029968D01*
X0055676Y0029978D02*
X0056768Y0029978D01*
X0056768Y0029988D02*
X0055676Y0029988D01*
X0055676Y0029998D02*
X0056768Y0029998D01*
X0056768Y0030008D02*
X0055676Y0030008D01*
X0055676Y0030018D02*
X0056768Y0030018D01*
X0056768Y0030028D02*
X0055676Y0030028D01*
X0055676Y0030038D02*
X0056768Y0030038D01*
X0056768Y0030048D02*
X0055676Y0030048D01*
X0055676Y0030058D02*
X0056768Y0030058D01*
X0056768Y0030068D02*
X0055676Y0030068D01*
X0055676Y0030078D02*
X0056768Y0030078D01*
X0056768Y0030088D02*
X0055676Y0030088D01*
X0055676Y0030098D02*
X0056768Y0030098D01*
X0056768Y0030108D02*
X0055676Y0030108D01*
X0055676Y0030118D02*
X0056768Y0030118D01*
X0056768Y0030128D02*
X0055676Y0030128D01*
X0055676Y0030138D02*
X0056768Y0030138D01*
X0056768Y0030148D02*
X0055676Y0030148D01*
X0055676Y0030158D02*
X0056768Y0030158D01*
X0056768Y0030168D02*
X0055676Y0030168D01*
X0055676Y0030178D02*
X0056768Y0030178D01*
X0056768Y0030188D02*
X0055676Y0030188D01*
X0055676Y0030198D02*
X0056768Y0030198D01*
X0056768Y0030208D02*
X0055676Y0030208D01*
X0055676Y0030218D02*
X0056768Y0030218D01*
X0056768Y0030228D02*
X0055676Y0030228D01*
X0055676Y0030238D02*
X0056768Y0030238D01*
X0056768Y0030248D02*
X0055676Y0030248D01*
X0055676Y0030258D02*
X0056768Y0030258D01*
X0056768Y0030268D02*
X0055676Y0030268D01*
X0055676Y0030278D02*
X0056768Y0030278D01*
X0056768Y0030288D02*
X0055676Y0030288D01*
X0055676Y0030298D02*
X0056768Y0030298D01*
X0056768Y0030308D02*
X0055676Y0030308D01*
X0055676Y0030318D02*
X0056768Y0030318D01*
X0056768Y0030328D02*
X0055676Y0030328D01*
X0055676Y0030338D02*
X0056768Y0030338D01*
X0056768Y0030348D02*
X0055676Y0030348D01*
X0055676Y0030358D02*
X0056768Y0030358D01*
X0056768Y0030368D02*
X0055676Y0030368D01*
X0055676Y0030378D02*
X0056768Y0030378D01*
X0056768Y0030388D02*
X0055676Y0030388D01*
X0055676Y0030398D02*
X0056768Y0030398D01*
X0056768Y0030408D02*
X0055676Y0030408D01*
X0055676Y0030418D02*
X0056768Y0030418D01*
X0056768Y0030428D02*
X0055676Y0030428D01*
X0055676Y0030438D02*
X0056768Y0030438D01*
X0056768Y0030448D02*
X0055676Y0030448D01*
X0055676Y0030458D02*
X0056768Y0030458D01*
X0056768Y0030468D02*
X0055676Y0030468D01*
X0055676Y0030478D02*
X0056768Y0030478D01*
X0056768Y0030488D02*
X0055676Y0030488D01*
X0055676Y0030498D02*
X0056768Y0030498D01*
X0056768Y0030508D02*
X0055676Y0030508D01*
X0055676Y0030518D02*
X0056768Y0030518D01*
X0056768Y0030528D02*
X0055676Y0030528D01*
X0055676Y0030538D02*
X0056768Y0030538D01*
X0056768Y0030548D02*
X0055676Y0030548D01*
X0055676Y0030558D02*
X0056768Y0030558D01*
X0056768Y0030568D02*
X0055676Y0030568D01*
X0055676Y0030578D02*
X0056768Y0030578D01*
X0056768Y0030588D02*
X0055676Y0030588D01*
X0055676Y0030598D02*
X0056768Y0030598D01*
X0056768Y0030608D02*
X0055676Y0030608D01*
X0055676Y0030618D02*
X0056768Y0030618D01*
X0056768Y0030628D02*
X0055676Y0030628D01*
X0055676Y0030638D02*
X0056768Y0030638D01*
X0056768Y0030648D02*
X0055676Y0030648D01*
X0055676Y0030658D02*
X0056768Y0030658D01*
X0056768Y0030668D02*
X0055676Y0030668D01*
X0055676Y0030678D02*
X0056768Y0030678D01*
X0056768Y0030688D02*
X0055676Y0030688D01*
X0055676Y0030698D02*
X0056768Y0030698D01*
X0056768Y0030708D02*
X0055676Y0030708D01*
X0055676Y0030718D02*
X0056768Y0030718D01*
X0056768Y0030728D02*
X0055676Y0030728D01*
X0055676Y0030738D02*
X0056768Y0030738D01*
X0056768Y0030748D02*
X0055676Y0030748D01*
X0055676Y0030758D02*
X0056768Y0030758D01*
X0056768Y0030768D02*
X0055676Y0030768D01*
X0055676Y0030778D02*
X0056768Y0030778D01*
X0056768Y0030788D02*
X0055676Y0030788D01*
X0055676Y0030798D02*
X0056768Y0030798D01*
X0056768Y0030808D02*
X0055676Y0030808D01*
X0055676Y0030818D02*
X0056768Y0030818D01*
X0056768Y0030828D02*
X0055676Y0030828D01*
X0055676Y0030838D02*
X0056768Y0030838D01*
X0056768Y0030848D02*
X0055676Y0030848D01*
X0055676Y0030858D02*
X0056768Y0030858D01*
X0056768Y0030868D02*
X0055676Y0030868D01*
X0055676Y0030878D02*
X0056768Y0030878D01*
X0056768Y0030888D02*
X0055676Y0030888D01*
X0055676Y0030898D02*
X0056768Y0030898D01*
X0056768Y0030908D02*
X0055676Y0030908D01*
X0055676Y0030918D02*
X0056768Y0030918D01*
X0056768Y0030928D02*
X0055676Y0030928D01*
X0055676Y0030938D02*
X0056768Y0030938D01*
X0056768Y0030948D02*
X0055676Y0030948D01*
X0055676Y0030958D02*
X0056768Y0030958D01*
X0056768Y0030968D02*
X0055676Y0030968D01*
X0055676Y0030978D02*
X0056768Y0030978D01*
X0056768Y0030988D02*
X0055676Y0030988D01*
X0055676Y0030998D02*
X0056768Y0030998D01*
X0056768Y0031008D02*
X0055676Y0031008D01*
X0055676Y0031018D02*
X0056768Y0031018D01*
X0056768Y0031028D02*
X0055676Y0031028D01*
X0058736Y0031036D02*
X0058736Y0027798D01*
X0057644Y0027798D01*
X0057644Y0031036D01*
X0058736Y0031036D01*
X0058736Y0027808D02*
X0057644Y0027808D01*
X0057644Y0027818D02*
X0058736Y0027818D01*
X0058736Y0027828D02*
X0057644Y0027828D01*
X0057644Y0027838D02*
X0058736Y0027838D01*
X0058736Y0027848D02*
X0057644Y0027848D01*
X0057644Y0027858D02*
X0058736Y0027858D01*
X0058736Y0027868D02*
X0057644Y0027868D01*
X0057644Y0027878D02*
X0058736Y0027878D01*
X0058736Y0027888D02*
X0057644Y0027888D01*
X0057644Y0027898D02*
X0058736Y0027898D01*
X0058736Y0027908D02*
X0057644Y0027908D01*
X0057644Y0027918D02*
X0058736Y0027918D01*
X0058736Y0027928D02*
X0057644Y0027928D01*
X0057644Y0027938D02*
X0058736Y0027938D01*
X0058736Y0027948D02*
X0057644Y0027948D01*
X0057644Y0027958D02*
X0058736Y0027958D01*
X0058736Y0027968D02*
X0057644Y0027968D01*
X0057644Y0027978D02*
X0058736Y0027978D01*
X0058736Y0027988D02*
X0057644Y0027988D01*
X0057644Y0027998D02*
X0058736Y0027998D01*
X0058736Y0028008D02*
X0057644Y0028008D01*
X0057644Y0028018D02*
X0058736Y0028018D01*
X0058736Y0028028D02*
X0057644Y0028028D01*
X0057644Y0028038D02*
X0058736Y0028038D01*
X0058736Y0028048D02*
X0057644Y0028048D01*
X0057644Y0028058D02*
X0058736Y0028058D01*
X0058736Y0028068D02*
X0057644Y0028068D01*
X0057644Y0028078D02*
X0058736Y0028078D01*
X0058736Y0028088D02*
X0057644Y0028088D01*
X0057644Y0028098D02*
X0058736Y0028098D01*
X0058736Y0028108D02*
X0057644Y0028108D01*
X0057644Y0028118D02*
X0058736Y0028118D01*
X0058736Y0028128D02*
X0057644Y0028128D01*
X0057644Y0028138D02*
X0058736Y0028138D01*
X0058736Y0028148D02*
X0057644Y0028148D01*
X0057644Y0028158D02*
X0058736Y0028158D01*
X0058736Y0028168D02*
X0057644Y0028168D01*
X0057644Y0028178D02*
X0058736Y0028178D01*
X0058736Y0028188D02*
X0057644Y0028188D01*
X0057644Y0028198D02*
X0058736Y0028198D01*
X0058736Y0028208D02*
X0057644Y0028208D01*
X0057644Y0028218D02*
X0058736Y0028218D01*
X0058736Y0028228D02*
X0057644Y0028228D01*
X0057644Y0028238D02*
X0058736Y0028238D01*
X0058736Y0028248D02*
X0057644Y0028248D01*
X0057644Y0028258D02*
X0058736Y0028258D01*
X0058736Y0028268D02*
X0057644Y0028268D01*
X0057644Y0028278D02*
X0058736Y0028278D01*
X0058736Y0028288D02*
X0057644Y0028288D01*
X0057644Y0028298D02*
X0058736Y0028298D01*
X0058736Y0028308D02*
X0057644Y0028308D01*
X0057644Y0028318D02*
X0058736Y0028318D01*
X0058736Y0028328D02*
X0057644Y0028328D01*
X0057644Y0028338D02*
X0058736Y0028338D01*
X0058736Y0028348D02*
X0057644Y0028348D01*
X0057644Y0028358D02*
X0058736Y0028358D01*
X0058736Y0028368D02*
X0057644Y0028368D01*
X0057644Y0028378D02*
X0058736Y0028378D01*
X0058736Y0028388D02*
X0057644Y0028388D01*
X0057644Y0028398D02*
X0058736Y0028398D01*
X0058736Y0028408D02*
X0057644Y0028408D01*
X0057644Y0028418D02*
X0058736Y0028418D01*
X0058736Y0028428D02*
X0057644Y0028428D01*
X0057644Y0028438D02*
X0058736Y0028438D01*
X0058736Y0028448D02*
X0057644Y0028448D01*
X0057644Y0028458D02*
X0058736Y0028458D01*
X0058736Y0028468D02*
X0057644Y0028468D01*
X0057644Y0028478D02*
X0058736Y0028478D01*
X0058736Y0028488D02*
X0057644Y0028488D01*
X0057644Y0028498D02*
X0058736Y0028498D01*
X0058736Y0028508D02*
X0057644Y0028508D01*
X0057644Y0028518D02*
X0058736Y0028518D01*
X0058736Y0028528D02*
X0057644Y0028528D01*
X0057644Y0028538D02*
X0058736Y0028538D01*
X0058736Y0028548D02*
X0057644Y0028548D01*
X0057644Y0028558D02*
X0058736Y0028558D01*
X0058736Y0028568D02*
X0057644Y0028568D01*
X0057644Y0028578D02*
X0058736Y0028578D01*
X0058736Y0028588D02*
X0057644Y0028588D01*
X0057644Y0028598D02*
X0058736Y0028598D01*
X0058736Y0028608D02*
X0057644Y0028608D01*
X0057644Y0028618D02*
X0058736Y0028618D01*
X0058736Y0028628D02*
X0057644Y0028628D01*
X0057644Y0028638D02*
X0058736Y0028638D01*
X0058736Y0028648D02*
X0057644Y0028648D01*
X0057644Y0028658D02*
X0058736Y0028658D01*
X0058736Y0028668D02*
X0057644Y0028668D01*
X0057644Y0028678D02*
X0058736Y0028678D01*
X0058736Y0028688D02*
X0057644Y0028688D01*
X0057644Y0028698D02*
X0058736Y0028698D01*
X0058736Y0028708D02*
X0057644Y0028708D01*
X0057644Y0028718D02*
X0058736Y0028718D01*
X0058736Y0028728D02*
X0057644Y0028728D01*
X0057644Y0028738D02*
X0058736Y0028738D01*
X0058736Y0028748D02*
X0057644Y0028748D01*
X0057644Y0028758D02*
X0058736Y0028758D01*
X0058736Y0028768D02*
X0057644Y0028768D01*
X0057644Y0028778D02*
X0058736Y0028778D01*
X0058736Y0028788D02*
X0057644Y0028788D01*
X0057644Y0028798D02*
X0058736Y0028798D01*
X0058736Y0028808D02*
X0057644Y0028808D01*
X0057644Y0028818D02*
X0058736Y0028818D01*
X0058736Y0028828D02*
X0057644Y0028828D01*
X0057644Y0028838D02*
X0058736Y0028838D01*
X0058736Y0028848D02*
X0057644Y0028848D01*
X0057644Y0028858D02*
X0058736Y0028858D01*
X0058736Y0028868D02*
X0057644Y0028868D01*
X0057644Y0028878D02*
X0058736Y0028878D01*
X0058736Y0028888D02*
X0057644Y0028888D01*
X0057644Y0028898D02*
X0058736Y0028898D01*
X0058736Y0028908D02*
X0057644Y0028908D01*
X0057644Y0028918D02*
X0058736Y0028918D01*
X0058736Y0028928D02*
X0057644Y0028928D01*
X0057644Y0028938D02*
X0058736Y0028938D01*
X0058736Y0028948D02*
X0057644Y0028948D01*
X0057644Y0028958D02*
X0058736Y0028958D01*
X0058736Y0028968D02*
X0057644Y0028968D01*
X0057644Y0028978D02*
X0058736Y0028978D01*
X0058736Y0028988D02*
X0057644Y0028988D01*
X0057644Y0028998D02*
X0058736Y0028998D01*
X0058736Y0029008D02*
X0057644Y0029008D01*
X0057644Y0029018D02*
X0058736Y0029018D01*
X0058736Y0029028D02*
X0057644Y0029028D01*
X0057644Y0029038D02*
X0058736Y0029038D01*
X0058736Y0029048D02*
X0057644Y0029048D01*
X0057644Y0029058D02*
X0058736Y0029058D01*
X0058736Y0029068D02*
X0057644Y0029068D01*
X0057644Y0029078D02*
X0058736Y0029078D01*
X0058736Y0029088D02*
X0057644Y0029088D01*
X0057644Y0029098D02*
X0058736Y0029098D01*
X0058736Y0029108D02*
X0057644Y0029108D01*
X0057644Y0029118D02*
X0058736Y0029118D01*
X0058736Y0029128D02*
X0057644Y0029128D01*
X0057644Y0029138D02*
X0058736Y0029138D01*
X0058736Y0029148D02*
X0057644Y0029148D01*
X0057644Y0029158D02*
X0058736Y0029158D01*
X0058736Y0029168D02*
X0057644Y0029168D01*
X0057644Y0029178D02*
X0058736Y0029178D01*
X0058736Y0029188D02*
X0057644Y0029188D01*
X0057644Y0029198D02*
X0058736Y0029198D01*
X0058736Y0029208D02*
X0057644Y0029208D01*
X0057644Y0029218D02*
X0058736Y0029218D01*
X0058736Y0029228D02*
X0057644Y0029228D01*
X0057644Y0029238D02*
X0058736Y0029238D01*
X0058736Y0029248D02*
X0057644Y0029248D01*
X0057644Y0029258D02*
X0058736Y0029258D01*
X0058736Y0029268D02*
X0057644Y0029268D01*
X0057644Y0029278D02*
X0058736Y0029278D01*
X0058736Y0029288D02*
X0057644Y0029288D01*
X0057644Y0029298D02*
X0058736Y0029298D01*
X0058736Y0029308D02*
X0057644Y0029308D01*
X0057644Y0029318D02*
X0058736Y0029318D01*
X0058736Y0029328D02*
X0057644Y0029328D01*
X0057644Y0029338D02*
X0058736Y0029338D01*
X0058736Y0029348D02*
X0057644Y0029348D01*
X0057644Y0029358D02*
X0058736Y0029358D01*
X0058736Y0029368D02*
X0057644Y0029368D01*
X0057644Y0029378D02*
X0058736Y0029378D01*
X0058736Y0029388D02*
X0057644Y0029388D01*
X0057644Y0029398D02*
X0058736Y0029398D01*
X0058736Y0029408D02*
X0057644Y0029408D01*
X0057644Y0029418D02*
X0058736Y0029418D01*
X0058736Y0029428D02*
X0057644Y0029428D01*
X0057644Y0029438D02*
X0058736Y0029438D01*
X0058736Y0029448D02*
X0057644Y0029448D01*
X0057644Y0029458D02*
X0058736Y0029458D01*
X0058736Y0029468D02*
X0057644Y0029468D01*
X0057644Y0029478D02*
X0058736Y0029478D01*
X0058736Y0029488D02*
X0057644Y0029488D01*
X0057644Y0029498D02*
X0058736Y0029498D01*
X0058736Y0029508D02*
X0057644Y0029508D01*
X0057644Y0029518D02*
X0058736Y0029518D01*
X0058736Y0029528D02*
X0057644Y0029528D01*
X0057644Y0029538D02*
X0058736Y0029538D01*
X0058736Y0029548D02*
X0057644Y0029548D01*
X0057644Y0029558D02*
X0058736Y0029558D01*
X0058736Y0029568D02*
X0057644Y0029568D01*
X0057644Y0029578D02*
X0058736Y0029578D01*
X0058736Y0029588D02*
X0057644Y0029588D01*
X0057644Y0029598D02*
X0058736Y0029598D01*
X0058736Y0029608D02*
X0057644Y0029608D01*
X0057644Y0029618D02*
X0058736Y0029618D01*
X0058736Y0029628D02*
X0057644Y0029628D01*
X0057644Y0029638D02*
X0058736Y0029638D01*
X0058736Y0029648D02*
X0057644Y0029648D01*
X0057644Y0029658D02*
X0058736Y0029658D01*
X0058736Y0029668D02*
X0057644Y0029668D01*
X0057644Y0029678D02*
X0058736Y0029678D01*
X0058736Y0029688D02*
X0057644Y0029688D01*
X0057644Y0029698D02*
X0058736Y0029698D01*
X0058736Y0029708D02*
X0057644Y0029708D01*
X0057644Y0029718D02*
X0058736Y0029718D01*
X0058736Y0029728D02*
X0057644Y0029728D01*
X0057644Y0029738D02*
X0058736Y0029738D01*
X0058736Y0029748D02*
X0057644Y0029748D01*
X0057644Y0029758D02*
X0058736Y0029758D01*
X0058736Y0029768D02*
X0057644Y0029768D01*
X0057644Y0029778D02*
X0058736Y0029778D01*
X0058736Y0029788D02*
X0057644Y0029788D01*
X0057644Y0029798D02*
X0058736Y0029798D01*
X0058736Y0029808D02*
X0057644Y0029808D01*
X0057644Y0029818D02*
X0058736Y0029818D01*
X0058736Y0029828D02*
X0057644Y0029828D01*
X0057644Y0029838D02*
X0058736Y0029838D01*
X0058736Y0029848D02*
X0057644Y0029848D01*
X0057644Y0029858D02*
X0058736Y0029858D01*
X0058736Y0029868D02*
X0057644Y0029868D01*
X0057644Y0029878D02*
X0058736Y0029878D01*
X0058736Y0029888D02*
X0057644Y0029888D01*
X0057644Y0029898D02*
X0058736Y0029898D01*
X0058736Y0029908D02*
X0057644Y0029908D01*
X0057644Y0029918D02*
X0058736Y0029918D01*
X0058736Y0029928D02*
X0057644Y0029928D01*
X0057644Y0029938D02*
X0058736Y0029938D01*
X0058736Y0029948D02*
X0057644Y0029948D01*
X0057644Y0029958D02*
X0058736Y0029958D01*
X0058736Y0029968D02*
X0057644Y0029968D01*
X0057644Y0029978D02*
X0058736Y0029978D01*
X0058736Y0029988D02*
X0057644Y0029988D01*
X0057644Y0029998D02*
X0058736Y0029998D01*
X0058736Y0030008D02*
X0057644Y0030008D01*
X0057644Y0030018D02*
X0058736Y0030018D01*
X0058736Y0030028D02*
X0057644Y0030028D01*
X0057644Y0030038D02*
X0058736Y0030038D01*
X0058736Y0030048D02*
X0057644Y0030048D01*
X0057644Y0030058D02*
X0058736Y0030058D01*
X0058736Y0030068D02*
X0057644Y0030068D01*
X0057644Y0030078D02*
X0058736Y0030078D01*
X0058736Y0030088D02*
X0057644Y0030088D01*
X0057644Y0030098D02*
X0058736Y0030098D01*
X0058736Y0030108D02*
X0057644Y0030108D01*
X0057644Y0030118D02*
X0058736Y0030118D01*
X0058736Y0030128D02*
X0057644Y0030128D01*
X0057644Y0030138D02*
X0058736Y0030138D01*
X0058736Y0030148D02*
X0057644Y0030148D01*
X0057644Y0030158D02*
X0058736Y0030158D01*
X0058736Y0030168D02*
X0057644Y0030168D01*
X0057644Y0030178D02*
X0058736Y0030178D01*
X0058736Y0030188D02*
X0057644Y0030188D01*
X0057644Y0030198D02*
X0058736Y0030198D01*
X0058736Y0030208D02*
X0057644Y0030208D01*
X0057644Y0030218D02*
X0058736Y0030218D01*
X0058736Y0030228D02*
X0057644Y0030228D01*
X0057644Y0030238D02*
X0058736Y0030238D01*
X0058736Y0030248D02*
X0057644Y0030248D01*
X0057644Y0030258D02*
X0058736Y0030258D01*
X0058736Y0030268D02*
X0057644Y0030268D01*
X0057644Y0030278D02*
X0058736Y0030278D01*
X0058736Y0030288D02*
X0057644Y0030288D01*
X0057644Y0030298D02*
X0058736Y0030298D01*
X0058736Y0030308D02*
X0057644Y0030308D01*
X0057644Y0030318D02*
X0058736Y0030318D01*
X0058736Y0030328D02*
X0057644Y0030328D01*
X0057644Y0030338D02*
X0058736Y0030338D01*
X0058736Y0030348D02*
X0057644Y0030348D01*
X0057644Y0030358D02*
X0058736Y0030358D01*
X0058736Y0030368D02*
X0057644Y0030368D01*
X0057644Y0030378D02*
X0058736Y0030378D01*
X0058736Y0030388D02*
X0057644Y0030388D01*
X0057644Y0030398D02*
X0058736Y0030398D01*
X0058736Y0030408D02*
X0057644Y0030408D01*
X0057644Y0030418D02*
X0058736Y0030418D01*
X0058736Y0030428D02*
X0057644Y0030428D01*
X0057644Y0030438D02*
X0058736Y0030438D01*
X0058736Y0030448D02*
X0057644Y0030448D01*
X0057644Y0030458D02*
X0058736Y0030458D01*
X0058736Y0030468D02*
X0057644Y0030468D01*
X0057644Y0030478D02*
X0058736Y0030478D01*
X0058736Y0030488D02*
X0057644Y0030488D01*
X0057644Y0030498D02*
X0058736Y0030498D01*
X0058736Y0030508D02*
X0057644Y0030508D01*
X0057644Y0030518D02*
X0058736Y0030518D01*
X0058736Y0030528D02*
X0057644Y0030528D01*
X0057644Y0030538D02*
X0058736Y0030538D01*
X0058736Y0030548D02*
X0057644Y0030548D01*
X0057644Y0030558D02*
X0058736Y0030558D01*
X0058736Y0030568D02*
X0057644Y0030568D01*
X0057644Y0030578D02*
X0058736Y0030578D01*
X0058736Y0030588D02*
X0057644Y0030588D01*
X0057644Y0030598D02*
X0058736Y0030598D01*
X0058736Y0030608D02*
X0057644Y0030608D01*
X0057644Y0030618D02*
X0058736Y0030618D01*
X0058736Y0030628D02*
X0057644Y0030628D01*
X0057644Y0030638D02*
X0058736Y0030638D01*
X0058736Y0030648D02*
X0057644Y0030648D01*
X0057644Y0030658D02*
X0058736Y0030658D01*
X0058736Y0030668D02*
X0057644Y0030668D01*
X0057644Y0030678D02*
X0058736Y0030678D01*
X0058736Y0030688D02*
X0057644Y0030688D01*
X0057644Y0030698D02*
X0058736Y0030698D01*
X0058736Y0030708D02*
X0057644Y0030708D01*
X0057644Y0030718D02*
X0058736Y0030718D01*
X0058736Y0030728D02*
X0057644Y0030728D01*
X0057644Y0030738D02*
X0058736Y0030738D01*
X0058736Y0030748D02*
X0057644Y0030748D01*
X0057644Y0030758D02*
X0058736Y0030758D01*
X0058736Y0030768D02*
X0057644Y0030768D01*
X0057644Y0030778D02*
X0058736Y0030778D01*
X0058736Y0030788D02*
X0057644Y0030788D01*
X0057644Y0030798D02*
X0058736Y0030798D01*
X0058736Y0030808D02*
X0057644Y0030808D01*
X0057644Y0030818D02*
X0058736Y0030818D01*
X0058736Y0030828D02*
X0057644Y0030828D01*
X0057644Y0030838D02*
X0058736Y0030838D01*
X0058736Y0030848D02*
X0057644Y0030848D01*
X0057644Y0030858D02*
X0058736Y0030858D01*
X0058736Y0030868D02*
X0057644Y0030868D01*
X0057644Y0030878D02*
X0058736Y0030878D01*
X0058736Y0030888D02*
X0057644Y0030888D01*
X0057644Y0030898D02*
X0058736Y0030898D01*
X0058736Y0030908D02*
X0057644Y0030908D01*
X0057644Y0030918D02*
X0058736Y0030918D01*
X0058736Y0030928D02*
X0057644Y0030928D01*
X0057644Y0030938D02*
X0058736Y0030938D01*
X0058736Y0030948D02*
X0057644Y0030948D01*
X0057644Y0030958D02*
X0058736Y0030958D01*
X0058736Y0030968D02*
X0057644Y0030968D01*
X0057644Y0030978D02*
X0058736Y0030978D01*
X0058736Y0030988D02*
X0057644Y0030988D01*
X0057644Y0030998D02*
X0058736Y0030998D01*
X0058736Y0031008D02*
X0057644Y0031008D01*
X0057644Y0031018D02*
X0058736Y0031018D01*
X0058736Y0031028D02*
X0057644Y0031028D01*
X0058736Y0039314D02*
X0058736Y0042552D01*
X0058736Y0039314D02*
X0057644Y0039314D01*
X0057644Y0042552D01*
X0058736Y0042552D01*
X0058736Y0039324D02*
X0057644Y0039324D01*
X0057644Y0039334D02*
X0058736Y0039334D01*
X0058736Y0039344D02*
X0057644Y0039344D01*
X0057644Y0039354D02*
X0058736Y0039354D01*
X0058736Y0039364D02*
X0057644Y0039364D01*
X0057644Y0039374D02*
X0058736Y0039374D01*
X0058736Y0039384D02*
X0057644Y0039384D01*
X0057644Y0039394D02*
X0058736Y0039394D01*
X0058736Y0039404D02*
X0057644Y0039404D01*
X0057644Y0039414D02*
X0058736Y0039414D01*
X0058736Y0039424D02*
X0057644Y0039424D01*
X0057644Y0039434D02*
X0058736Y0039434D01*
X0058736Y0039444D02*
X0057644Y0039444D01*
X0057644Y0039454D02*
X0058736Y0039454D01*
X0058736Y0039464D02*
X0057644Y0039464D01*
X0057644Y0039474D02*
X0058736Y0039474D01*
X0058736Y0039484D02*
X0057644Y0039484D01*
X0057644Y0039494D02*
X0058736Y0039494D01*
X0058736Y0039504D02*
X0057644Y0039504D01*
X0057644Y0039514D02*
X0058736Y0039514D01*
X0058736Y0039524D02*
X0057644Y0039524D01*
X0057644Y0039534D02*
X0058736Y0039534D01*
X0058736Y0039544D02*
X0057644Y0039544D01*
X0057644Y0039554D02*
X0058736Y0039554D01*
X0058736Y0039564D02*
X0057644Y0039564D01*
X0057644Y0039574D02*
X0058736Y0039574D01*
X0058736Y0039584D02*
X0057644Y0039584D01*
X0057644Y0039594D02*
X0058736Y0039594D01*
X0058736Y0039604D02*
X0057644Y0039604D01*
X0057644Y0039614D02*
X0058736Y0039614D01*
X0058736Y0039624D02*
X0057644Y0039624D01*
X0057644Y0039634D02*
X0058736Y0039634D01*
X0058736Y0039644D02*
X0057644Y0039644D01*
X0057644Y0039654D02*
X0058736Y0039654D01*
X0058736Y0039664D02*
X0057644Y0039664D01*
X0057644Y0039674D02*
X0058736Y0039674D01*
X0058736Y0039684D02*
X0057644Y0039684D01*
X0057644Y0039694D02*
X0058736Y0039694D01*
X0058736Y0039704D02*
X0057644Y0039704D01*
X0057644Y0039714D02*
X0058736Y0039714D01*
X0058736Y0039724D02*
X0057644Y0039724D01*
X0057644Y0039734D02*
X0058736Y0039734D01*
X0058736Y0039744D02*
X0057644Y0039744D01*
X0057644Y0039754D02*
X0058736Y0039754D01*
X0058736Y0039764D02*
X0057644Y0039764D01*
X0057644Y0039774D02*
X0058736Y0039774D01*
X0058736Y0039784D02*
X0057644Y0039784D01*
X0057644Y0039794D02*
X0058736Y0039794D01*
X0058736Y0039804D02*
X0057644Y0039804D01*
X0057644Y0039814D02*
X0058736Y0039814D01*
X0058736Y0039824D02*
X0057644Y0039824D01*
X0057644Y0039834D02*
X0058736Y0039834D01*
X0058736Y0039844D02*
X0057644Y0039844D01*
X0057644Y0039854D02*
X0058736Y0039854D01*
X0058736Y0039864D02*
X0057644Y0039864D01*
X0057644Y0039874D02*
X0058736Y0039874D01*
X0058736Y0039884D02*
X0057644Y0039884D01*
X0057644Y0039894D02*
X0058736Y0039894D01*
X0058736Y0039904D02*
X0057644Y0039904D01*
X0057644Y0039914D02*
X0058736Y0039914D01*
X0058736Y0039924D02*
X0057644Y0039924D01*
X0057644Y0039934D02*
X0058736Y0039934D01*
X0058736Y0039944D02*
X0057644Y0039944D01*
X0057644Y0039954D02*
X0058736Y0039954D01*
X0058736Y0039964D02*
X0057644Y0039964D01*
X0057644Y0039974D02*
X0058736Y0039974D01*
X0058736Y0039984D02*
X0057644Y0039984D01*
X0057644Y0039994D02*
X0058736Y0039994D01*
X0058736Y0040004D02*
X0057644Y0040004D01*
X0057644Y0040014D02*
X0058736Y0040014D01*
X0058736Y0040024D02*
X0057644Y0040024D01*
X0057644Y0040034D02*
X0058736Y0040034D01*
X0058736Y0040044D02*
X0057644Y0040044D01*
X0057644Y0040054D02*
X0058736Y0040054D01*
X0058736Y0040064D02*
X0057644Y0040064D01*
X0057644Y0040074D02*
X0058736Y0040074D01*
X0058736Y0040084D02*
X0057644Y0040084D01*
X0057644Y0040094D02*
X0058736Y0040094D01*
X0058736Y0040104D02*
X0057644Y0040104D01*
X0057644Y0040114D02*
X0058736Y0040114D01*
X0058736Y0040124D02*
X0057644Y0040124D01*
X0057644Y0040134D02*
X0058736Y0040134D01*
X0058736Y0040144D02*
X0057644Y0040144D01*
X0057644Y0040154D02*
X0058736Y0040154D01*
X0058736Y0040164D02*
X0057644Y0040164D01*
X0057644Y0040174D02*
X0058736Y0040174D01*
X0058736Y0040184D02*
X0057644Y0040184D01*
X0057644Y0040194D02*
X0058736Y0040194D01*
X0058736Y0040204D02*
X0057644Y0040204D01*
X0057644Y0040214D02*
X0058736Y0040214D01*
X0058736Y0040224D02*
X0057644Y0040224D01*
X0057644Y0040234D02*
X0058736Y0040234D01*
X0058736Y0040244D02*
X0057644Y0040244D01*
X0057644Y0040254D02*
X0058736Y0040254D01*
X0058736Y0040264D02*
X0057644Y0040264D01*
X0057644Y0040274D02*
X0058736Y0040274D01*
X0058736Y0040284D02*
X0057644Y0040284D01*
X0057644Y0040294D02*
X0058736Y0040294D01*
X0058736Y0040304D02*
X0057644Y0040304D01*
X0057644Y0040314D02*
X0058736Y0040314D01*
X0058736Y0040324D02*
X0057644Y0040324D01*
X0057644Y0040334D02*
X0058736Y0040334D01*
X0058736Y0040344D02*
X0057644Y0040344D01*
X0057644Y0040354D02*
X0058736Y0040354D01*
X0058736Y0040364D02*
X0057644Y0040364D01*
X0057644Y0040374D02*
X0058736Y0040374D01*
X0058736Y0040384D02*
X0057644Y0040384D01*
X0057644Y0040394D02*
X0058736Y0040394D01*
X0058736Y0040404D02*
X0057644Y0040404D01*
X0057644Y0040414D02*
X0058736Y0040414D01*
X0058736Y0040424D02*
X0057644Y0040424D01*
X0057644Y0040434D02*
X0058736Y0040434D01*
X0058736Y0040444D02*
X0057644Y0040444D01*
X0057644Y0040454D02*
X0058736Y0040454D01*
X0058736Y0040464D02*
X0057644Y0040464D01*
X0057644Y0040474D02*
X0058736Y0040474D01*
X0058736Y0040484D02*
X0057644Y0040484D01*
X0057644Y0040494D02*
X0058736Y0040494D01*
X0058736Y0040504D02*
X0057644Y0040504D01*
X0057644Y0040514D02*
X0058736Y0040514D01*
X0058736Y0040524D02*
X0057644Y0040524D01*
X0057644Y0040534D02*
X0058736Y0040534D01*
X0058736Y0040544D02*
X0057644Y0040544D01*
X0057644Y0040554D02*
X0058736Y0040554D01*
X0058736Y0040564D02*
X0057644Y0040564D01*
X0057644Y0040574D02*
X0058736Y0040574D01*
X0058736Y0040584D02*
X0057644Y0040584D01*
X0057644Y0040594D02*
X0058736Y0040594D01*
X0058736Y0040604D02*
X0057644Y0040604D01*
X0057644Y0040614D02*
X0058736Y0040614D01*
X0058736Y0040624D02*
X0057644Y0040624D01*
X0057644Y0040634D02*
X0058736Y0040634D01*
X0058736Y0040644D02*
X0057644Y0040644D01*
X0057644Y0040654D02*
X0058736Y0040654D01*
X0058736Y0040664D02*
X0057644Y0040664D01*
X0057644Y0040674D02*
X0058736Y0040674D01*
X0058736Y0040684D02*
X0057644Y0040684D01*
X0057644Y0040694D02*
X0058736Y0040694D01*
X0058736Y0040704D02*
X0057644Y0040704D01*
X0057644Y0040714D02*
X0058736Y0040714D01*
X0058736Y0040724D02*
X0057644Y0040724D01*
X0057644Y0040734D02*
X0058736Y0040734D01*
X0058736Y0040744D02*
X0057644Y0040744D01*
X0057644Y0040754D02*
X0058736Y0040754D01*
X0058736Y0040764D02*
X0057644Y0040764D01*
X0057644Y0040774D02*
X0058736Y0040774D01*
X0058736Y0040784D02*
X0057644Y0040784D01*
X0057644Y0040794D02*
X0058736Y0040794D01*
X0058736Y0040804D02*
X0057644Y0040804D01*
X0057644Y0040814D02*
X0058736Y0040814D01*
X0058736Y0040824D02*
X0057644Y0040824D01*
X0057644Y0040834D02*
X0058736Y0040834D01*
X0058736Y0040844D02*
X0057644Y0040844D01*
X0057644Y0040854D02*
X0058736Y0040854D01*
X0058736Y0040864D02*
X0057644Y0040864D01*
X0057644Y0040874D02*
X0058736Y0040874D01*
X0058736Y0040884D02*
X0057644Y0040884D01*
X0057644Y0040894D02*
X0058736Y0040894D01*
X0058736Y0040904D02*
X0057644Y0040904D01*
X0057644Y0040914D02*
X0058736Y0040914D01*
X0058736Y0040924D02*
X0057644Y0040924D01*
X0057644Y0040934D02*
X0058736Y0040934D01*
X0058736Y0040944D02*
X0057644Y0040944D01*
X0057644Y0040954D02*
X0058736Y0040954D01*
X0058736Y0040964D02*
X0057644Y0040964D01*
X0057644Y0040974D02*
X0058736Y0040974D01*
X0058736Y0040984D02*
X0057644Y0040984D01*
X0057644Y0040994D02*
X0058736Y0040994D01*
X0058736Y0041004D02*
X0057644Y0041004D01*
X0057644Y0041014D02*
X0058736Y0041014D01*
X0058736Y0041024D02*
X0057644Y0041024D01*
X0057644Y0041034D02*
X0058736Y0041034D01*
X0058736Y0041044D02*
X0057644Y0041044D01*
X0057644Y0041054D02*
X0058736Y0041054D01*
X0058736Y0041064D02*
X0057644Y0041064D01*
X0057644Y0041074D02*
X0058736Y0041074D01*
X0058736Y0041084D02*
X0057644Y0041084D01*
X0057644Y0041094D02*
X0058736Y0041094D01*
X0058736Y0041104D02*
X0057644Y0041104D01*
X0057644Y0041114D02*
X0058736Y0041114D01*
X0058736Y0041124D02*
X0057644Y0041124D01*
X0057644Y0041134D02*
X0058736Y0041134D01*
X0058736Y0041144D02*
X0057644Y0041144D01*
X0057644Y0041154D02*
X0058736Y0041154D01*
X0058736Y0041164D02*
X0057644Y0041164D01*
X0057644Y0041174D02*
X0058736Y0041174D01*
X0058736Y0041184D02*
X0057644Y0041184D01*
X0057644Y0041194D02*
X0058736Y0041194D01*
X0058736Y0041204D02*
X0057644Y0041204D01*
X0057644Y0041214D02*
X0058736Y0041214D01*
X0058736Y0041224D02*
X0057644Y0041224D01*
X0057644Y0041234D02*
X0058736Y0041234D01*
X0058736Y0041244D02*
X0057644Y0041244D01*
X0057644Y0041254D02*
X0058736Y0041254D01*
X0058736Y0041264D02*
X0057644Y0041264D01*
X0057644Y0041274D02*
X0058736Y0041274D01*
X0058736Y0041284D02*
X0057644Y0041284D01*
X0057644Y0041294D02*
X0058736Y0041294D01*
X0058736Y0041304D02*
X0057644Y0041304D01*
X0057644Y0041314D02*
X0058736Y0041314D01*
X0058736Y0041324D02*
X0057644Y0041324D01*
X0057644Y0041334D02*
X0058736Y0041334D01*
X0058736Y0041344D02*
X0057644Y0041344D01*
X0057644Y0041354D02*
X0058736Y0041354D01*
X0058736Y0041364D02*
X0057644Y0041364D01*
X0057644Y0041374D02*
X0058736Y0041374D01*
X0058736Y0041384D02*
X0057644Y0041384D01*
X0057644Y0041394D02*
X0058736Y0041394D01*
X0058736Y0041404D02*
X0057644Y0041404D01*
X0057644Y0041414D02*
X0058736Y0041414D01*
X0058736Y0041424D02*
X0057644Y0041424D01*
X0057644Y0041434D02*
X0058736Y0041434D01*
X0058736Y0041444D02*
X0057644Y0041444D01*
X0057644Y0041454D02*
X0058736Y0041454D01*
X0058736Y0041464D02*
X0057644Y0041464D01*
X0057644Y0041474D02*
X0058736Y0041474D01*
X0058736Y0041484D02*
X0057644Y0041484D01*
X0057644Y0041494D02*
X0058736Y0041494D01*
X0058736Y0041504D02*
X0057644Y0041504D01*
X0057644Y0041514D02*
X0058736Y0041514D01*
X0058736Y0041524D02*
X0057644Y0041524D01*
X0057644Y0041534D02*
X0058736Y0041534D01*
X0058736Y0041544D02*
X0057644Y0041544D01*
X0057644Y0041554D02*
X0058736Y0041554D01*
X0058736Y0041564D02*
X0057644Y0041564D01*
X0057644Y0041574D02*
X0058736Y0041574D01*
X0058736Y0041584D02*
X0057644Y0041584D01*
X0057644Y0041594D02*
X0058736Y0041594D01*
X0058736Y0041604D02*
X0057644Y0041604D01*
X0057644Y0041614D02*
X0058736Y0041614D01*
X0058736Y0041624D02*
X0057644Y0041624D01*
X0057644Y0041634D02*
X0058736Y0041634D01*
X0058736Y0041644D02*
X0057644Y0041644D01*
X0057644Y0041654D02*
X0058736Y0041654D01*
X0058736Y0041664D02*
X0057644Y0041664D01*
X0057644Y0041674D02*
X0058736Y0041674D01*
X0058736Y0041684D02*
X0057644Y0041684D01*
X0057644Y0041694D02*
X0058736Y0041694D01*
X0058736Y0041704D02*
X0057644Y0041704D01*
X0057644Y0041714D02*
X0058736Y0041714D01*
X0058736Y0041724D02*
X0057644Y0041724D01*
X0057644Y0041734D02*
X0058736Y0041734D01*
X0058736Y0041744D02*
X0057644Y0041744D01*
X0057644Y0041754D02*
X0058736Y0041754D01*
X0058736Y0041764D02*
X0057644Y0041764D01*
X0057644Y0041774D02*
X0058736Y0041774D01*
X0058736Y0041784D02*
X0057644Y0041784D01*
X0057644Y0041794D02*
X0058736Y0041794D01*
X0058736Y0041804D02*
X0057644Y0041804D01*
X0057644Y0041814D02*
X0058736Y0041814D01*
X0058736Y0041824D02*
X0057644Y0041824D01*
X0057644Y0041834D02*
X0058736Y0041834D01*
X0058736Y0041844D02*
X0057644Y0041844D01*
X0057644Y0041854D02*
X0058736Y0041854D01*
X0058736Y0041864D02*
X0057644Y0041864D01*
X0057644Y0041874D02*
X0058736Y0041874D01*
X0058736Y0041884D02*
X0057644Y0041884D01*
X0057644Y0041894D02*
X0058736Y0041894D01*
X0058736Y0041904D02*
X0057644Y0041904D01*
X0057644Y0041914D02*
X0058736Y0041914D01*
X0058736Y0041924D02*
X0057644Y0041924D01*
X0057644Y0041934D02*
X0058736Y0041934D01*
X0058736Y0041944D02*
X0057644Y0041944D01*
X0057644Y0041954D02*
X0058736Y0041954D01*
X0058736Y0041964D02*
X0057644Y0041964D01*
X0057644Y0041974D02*
X0058736Y0041974D01*
X0058736Y0041984D02*
X0057644Y0041984D01*
X0057644Y0041994D02*
X0058736Y0041994D01*
X0058736Y0042004D02*
X0057644Y0042004D01*
X0057644Y0042014D02*
X0058736Y0042014D01*
X0058736Y0042024D02*
X0057644Y0042024D01*
X0057644Y0042034D02*
X0058736Y0042034D01*
X0058736Y0042044D02*
X0057644Y0042044D01*
X0057644Y0042054D02*
X0058736Y0042054D01*
X0058736Y0042064D02*
X0057644Y0042064D01*
X0057644Y0042074D02*
X0058736Y0042074D01*
X0058736Y0042084D02*
X0057644Y0042084D01*
X0057644Y0042094D02*
X0058736Y0042094D01*
X0058736Y0042104D02*
X0057644Y0042104D01*
X0057644Y0042114D02*
X0058736Y0042114D01*
X0058736Y0042124D02*
X0057644Y0042124D01*
X0057644Y0042134D02*
X0058736Y0042134D01*
X0058736Y0042144D02*
X0057644Y0042144D01*
X0057644Y0042154D02*
X0058736Y0042154D01*
X0058736Y0042164D02*
X0057644Y0042164D01*
X0057644Y0042174D02*
X0058736Y0042174D01*
X0058736Y0042184D02*
X0057644Y0042184D01*
X0057644Y0042194D02*
X0058736Y0042194D01*
X0058736Y0042204D02*
X0057644Y0042204D01*
X0057644Y0042214D02*
X0058736Y0042214D01*
X0058736Y0042224D02*
X0057644Y0042224D01*
X0057644Y0042234D02*
X0058736Y0042234D01*
X0058736Y0042244D02*
X0057644Y0042244D01*
X0057644Y0042254D02*
X0058736Y0042254D01*
X0058736Y0042264D02*
X0057644Y0042264D01*
X0057644Y0042274D02*
X0058736Y0042274D01*
X0058736Y0042284D02*
X0057644Y0042284D01*
X0057644Y0042294D02*
X0058736Y0042294D01*
X0058736Y0042304D02*
X0057644Y0042304D01*
X0057644Y0042314D02*
X0058736Y0042314D01*
X0058736Y0042324D02*
X0057644Y0042324D01*
X0057644Y0042334D02*
X0058736Y0042334D01*
X0058736Y0042344D02*
X0057644Y0042344D01*
X0057644Y0042354D02*
X0058736Y0042354D01*
X0058736Y0042364D02*
X0057644Y0042364D01*
X0057644Y0042374D02*
X0058736Y0042374D01*
X0058736Y0042384D02*
X0057644Y0042384D01*
X0057644Y0042394D02*
X0058736Y0042394D01*
X0058736Y0042404D02*
X0057644Y0042404D01*
X0057644Y0042414D02*
X0058736Y0042414D01*
X0058736Y0042424D02*
X0057644Y0042424D01*
X0057644Y0042434D02*
X0058736Y0042434D01*
X0058736Y0042444D02*
X0057644Y0042444D01*
X0057644Y0042454D02*
X0058736Y0042454D01*
X0058736Y0042464D02*
X0057644Y0042464D01*
X0057644Y0042474D02*
X0058736Y0042474D01*
X0058736Y0042484D02*
X0057644Y0042484D01*
X0057644Y0042494D02*
X0058736Y0042494D01*
X0058736Y0042504D02*
X0057644Y0042504D01*
X0057644Y0042514D02*
X0058736Y0042514D01*
X0058736Y0042524D02*
X0057644Y0042524D01*
X0057644Y0042534D02*
X0058736Y0042534D01*
X0058736Y0042544D02*
X0057644Y0042544D01*
X0056768Y0042552D02*
X0056768Y0039314D01*
X0055676Y0039314D01*
X0055676Y0042552D01*
X0056768Y0042552D01*
X0056768Y0039324D02*
X0055676Y0039324D01*
X0055676Y0039334D02*
X0056768Y0039334D01*
X0056768Y0039344D02*
X0055676Y0039344D01*
X0055676Y0039354D02*
X0056768Y0039354D01*
X0056768Y0039364D02*
X0055676Y0039364D01*
X0055676Y0039374D02*
X0056768Y0039374D01*
X0056768Y0039384D02*
X0055676Y0039384D01*
X0055676Y0039394D02*
X0056768Y0039394D01*
X0056768Y0039404D02*
X0055676Y0039404D01*
X0055676Y0039414D02*
X0056768Y0039414D01*
X0056768Y0039424D02*
X0055676Y0039424D01*
X0055676Y0039434D02*
X0056768Y0039434D01*
X0056768Y0039444D02*
X0055676Y0039444D01*
X0055676Y0039454D02*
X0056768Y0039454D01*
X0056768Y0039464D02*
X0055676Y0039464D01*
X0055676Y0039474D02*
X0056768Y0039474D01*
X0056768Y0039484D02*
X0055676Y0039484D01*
X0055676Y0039494D02*
X0056768Y0039494D01*
X0056768Y0039504D02*
X0055676Y0039504D01*
X0055676Y0039514D02*
X0056768Y0039514D01*
X0056768Y0039524D02*
X0055676Y0039524D01*
X0055676Y0039534D02*
X0056768Y0039534D01*
X0056768Y0039544D02*
X0055676Y0039544D01*
X0055676Y0039554D02*
X0056768Y0039554D01*
X0056768Y0039564D02*
X0055676Y0039564D01*
X0055676Y0039574D02*
X0056768Y0039574D01*
X0056768Y0039584D02*
X0055676Y0039584D01*
X0055676Y0039594D02*
X0056768Y0039594D01*
X0056768Y0039604D02*
X0055676Y0039604D01*
X0055676Y0039614D02*
X0056768Y0039614D01*
X0056768Y0039624D02*
X0055676Y0039624D01*
X0055676Y0039634D02*
X0056768Y0039634D01*
X0056768Y0039644D02*
X0055676Y0039644D01*
X0055676Y0039654D02*
X0056768Y0039654D01*
X0056768Y0039664D02*
X0055676Y0039664D01*
X0055676Y0039674D02*
X0056768Y0039674D01*
X0056768Y0039684D02*
X0055676Y0039684D01*
X0055676Y0039694D02*
X0056768Y0039694D01*
X0056768Y0039704D02*
X0055676Y0039704D01*
X0055676Y0039714D02*
X0056768Y0039714D01*
X0056768Y0039724D02*
X0055676Y0039724D01*
X0055676Y0039734D02*
X0056768Y0039734D01*
X0056768Y0039744D02*
X0055676Y0039744D01*
X0055676Y0039754D02*
X0056768Y0039754D01*
X0056768Y0039764D02*
X0055676Y0039764D01*
X0055676Y0039774D02*
X0056768Y0039774D01*
X0056768Y0039784D02*
X0055676Y0039784D01*
X0055676Y0039794D02*
X0056768Y0039794D01*
X0056768Y0039804D02*
X0055676Y0039804D01*
X0055676Y0039814D02*
X0056768Y0039814D01*
X0056768Y0039824D02*
X0055676Y0039824D01*
X0055676Y0039834D02*
X0056768Y0039834D01*
X0056768Y0039844D02*
X0055676Y0039844D01*
X0055676Y0039854D02*
X0056768Y0039854D01*
X0056768Y0039864D02*
X0055676Y0039864D01*
X0055676Y0039874D02*
X0056768Y0039874D01*
X0056768Y0039884D02*
X0055676Y0039884D01*
X0055676Y0039894D02*
X0056768Y0039894D01*
X0056768Y0039904D02*
X0055676Y0039904D01*
X0055676Y0039914D02*
X0056768Y0039914D01*
X0056768Y0039924D02*
X0055676Y0039924D01*
X0055676Y0039934D02*
X0056768Y0039934D01*
X0056768Y0039944D02*
X0055676Y0039944D01*
X0055676Y0039954D02*
X0056768Y0039954D01*
X0056768Y0039964D02*
X0055676Y0039964D01*
X0055676Y0039974D02*
X0056768Y0039974D01*
X0056768Y0039984D02*
X0055676Y0039984D01*
X0055676Y0039994D02*
X0056768Y0039994D01*
X0056768Y0040004D02*
X0055676Y0040004D01*
X0055676Y0040014D02*
X0056768Y0040014D01*
X0056768Y0040024D02*
X0055676Y0040024D01*
X0055676Y0040034D02*
X0056768Y0040034D01*
X0056768Y0040044D02*
X0055676Y0040044D01*
X0055676Y0040054D02*
X0056768Y0040054D01*
X0056768Y0040064D02*
X0055676Y0040064D01*
X0055676Y0040074D02*
X0056768Y0040074D01*
X0056768Y0040084D02*
X0055676Y0040084D01*
X0055676Y0040094D02*
X0056768Y0040094D01*
X0056768Y0040104D02*
X0055676Y0040104D01*
X0055676Y0040114D02*
X0056768Y0040114D01*
X0056768Y0040124D02*
X0055676Y0040124D01*
X0055676Y0040134D02*
X0056768Y0040134D01*
X0056768Y0040144D02*
X0055676Y0040144D01*
X0055676Y0040154D02*
X0056768Y0040154D01*
X0056768Y0040164D02*
X0055676Y0040164D01*
X0055676Y0040174D02*
X0056768Y0040174D01*
X0056768Y0040184D02*
X0055676Y0040184D01*
X0055676Y0040194D02*
X0056768Y0040194D01*
X0056768Y0040204D02*
X0055676Y0040204D01*
X0055676Y0040214D02*
X0056768Y0040214D01*
X0056768Y0040224D02*
X0055676Y0040224D01*
X0055676Y0040234D02*
X0056768Y0040234D01*
X0056768Y0040244D02*
X0055676Y0040244D01*
X0055676Y0040254D02*
X0056768Y0040254D01*
X0056768Y0040264D02*
X0055676Y0040264D01*
X0055676Y0040274D02*
X0056768Y0040274D01*
X0056768Y0040284D02*
X0055676Y0040284D01*
X0055676Y0040294D02*
X0056768Y0040294D01*
X0056768Y0040304D02*
X0055676Y0040304D01*
X0055676Y0040314D02*
X0056768Y0040314D01*
X0056768Y0040324D02*
X0055676Y0040324D01*
X0055676Y0040334D02*
X0056768Y0040334D01*
X0056768Y0040344D02*
X0055676Y0040344D01*
X0055676Y0040354D02*
X0056768Y0040354D01*
X0056768Y0040364D02*
X0055676Y0040364D01*
X0055676Y0040374D02*
X0056768Y0040374D01*
X0056768Y0040384D02*
X0055676Y0040384D01*
X0055676Y0040394D02*
X0056768Y0040394D01*
X0056768Y0040404D02*
X0055676Y0040404D01*
X0055676Y0040414D02*
X0056768Y0040414D01*
X0056768Y0040424D02*
X0055676Y0040424D01*
X0055676Y0040434D02*
X0056768Y0040434D01*
X0056768Y0040444D02*
X0055676Y0040444D01*
X0055676Y0040454D02*
X0056768Y0040454D01*
X0056768Y0040464D02*
X0055676Y0040464D01*
X0055676Y0040474D02*
X0056768Y0040474D01*
X0056768Y0040484D02*
X0055676Y0040484D01*
X0055676Y0040494D02*
X0056768Y0040494D01*
X0056768Y0040504D02*
X0055676Y0040504D01*
X0055676Y0040514D02*
X0056768Y0040514D01*
X0056768Y0040524D02*
X0055676Y0040524D01*
X0055676Y0040534D02*
X0056768Y0040534D01*
X0056768Y0040544D02*
X0055676Y0040544D01*
X0055676Y0040554D02*
X0056768Y0040554D01*
X0056768Y0040564D02*
X0055676Y0040564D01*
X0055676Y0040574D02*
X0056768Y0040574D01*
X0056768Y0040584D02*
X0055676Y0040584D01*
X0055676Y0040594D02*
X0056768Y0040594D01*
X0056768Y0040604D02*
X0055676Y0040604D01*
X0055676Y0040614D02*
X0056768Y0040614D01*
X0056768Y0040624D02*
X0055676Y0040624D01*
X0055676Y0040634D02*
X0056768Y0040634D01*
X0056768Y0040644D02*
X0055676Y0040644D01*
X0055676Y0040654D02*
X0056768Y0040654D01*
X0056768Y0040664D02*
X0055676Y0040664D01*
X0055676Y0040674D02*
X0056768Y0040674D01*
X0056768Y0040684D02*
X0055676Y0040684D01*
X0055676Y0040694D02*
X0056768Y0040694D01*
X0056768Y0040704D02*
X0055676Y0040704D01*
X0055676Y0040714D02*
X0056768Y0040714D01*
X0056768Y0040724D02*
X0055676Y0040724D01*
X0055676Y0040734D02*
X0056768Y0040734D01*
X0056768Y0040744D02*
X0055676Y0040744D01*
X0055676Y0040754D02*
X0056768Y0040754D01*
X0056768Y0040764D02*
X0055676Y0040764D01*
X0055676Y0040774D02*
X0056768Y0040774D01*
X0056768Y0040784D02*
X0055676Y0040784D01*
X0055676Y0040794D02*
X0056768Y0040794D01*
X0056768Y0040804D02*
X0055676Y0040804D01*
X0055676Y0040814D02*
X0056768Y0040814D01*
X0056768Y0040824D02*
X0055676Y0040824D01*
X0055676Y0040834D02*
X0056768Y0040834D01*
X0056768Y0040844D02*
X0055676Y0040844D01*
X0055676Y0040854D02*
X0056768Y0040854D01*
X0056768Y0040864D02*
X0055676Y0040864D01*
X0055676Y0040874D02*
X0056768Y0040874D01*
X0056768Y0040884D02*
X0055676Y0040884D01*
X0055676Y0040894D02*
X0056768Y0040894D01*
X0056768Y0040904D02*
X0055676Y0040904D01*
X0055676Y0040914D02*
X0056768Y0040914D01*
X0056768Y0040924D02*
X0055676Y0040924D01*
X0055676Y0040934D02*
X0056768Y0040934D01*
X0056768Y0040944D02*
X0055676Y0040944D01*
X0055676Y0040954D02*
X0056768Y0040954D01*
X0056768Y0040964D02*
X0055676Y0040964D01*
X0055676Y0040974D02*
X0056768Y0040974D01*
X0056768Y0040984D02*
X0055676Y0040984D01*
X0055676Y0040994D02*
X0056768Y0040994D01*
X0056768Y0041004D02*
X0055676Y0041004D01*
X0055676Y0041014D02*
X0056768Y0041014D01*
X0056768Y0041024D02*
X0055676Y0041024D01*
X0055676Y0041034D02*
X0056768Y0041034D01*
X0056768Y0041044D02*
X0055676Y0041044D01*
X0055676Y0041054D02*
X0056768Y0041054D01*
X0056768Y0041064D02*
X0055676Y0041064D01*
X0055676Y0041074D02*
X0056768Y0041074D01*
X0056768Y0041084D02*
X0055676Y0041084D01*
X0055676Y0041094D02*
X0056768Y0041094D01*
X0056768Y0041104D02*
X0055676Y0041104D01*
X0055676Y0041114D02*
X0056768Y0041114D01*
X0056768Y0041124D02*
X0055676Y0041124D01*
X0055676Y0041134D02*
X0056768Y0041134D01*
X0056768Y0041144D02*
X0055676Y0041144D01*
X0055676Y0041154D02*
X0056768Y0041154D01*
X0056768Y0041164D02*
X0055676Y0041164D01*
X0055676Y0041174D02*
X0056768Y0041174D01*
X0056768Y0041184D02*
X0055676Y0041184D01*
X0055676Y0041194D02*
X0056768Y0041194D01*
X0056768Y0041204D02*
X0055676Y0041204D01*
X0055676Y0041214D02*
X0056768Y0041214D01*
X0056768Y0041224D02*
X0055676Y0041224D01*
X0055676Y0041234D02*
X0056768Y0041234D01*
X0056768Y0041244D02*
X0055676Y0041244D01*
X0055676Y0041254D02*
X0056768Y0041254D01*
X0056768Y0041264D02*
X0055676Y0041264D01*
X0055676Y0041274D02*
X0056768Y0041274D01*
X0056768Y0041284D02*
X0055676Y0041284D01*
X0055676Y0041294D02*
X0056768Y0041294D01*
X0056768Y0041304D02*
X0055676Y0041304D01*
X0055676Y0041314D02*
X0056768Y0041314D01*
X0056768Y0041324D02*
X0055676Y0041324D01*
X0055676Y0041334D02*
X0056768Y0041334D01*
X0056768Y0041344D02*
X0055676Y0041344D01*
X0055676Y0041354D02*
X0056768Y0041354D01*
X0056768Y0041364D02*
X0055676Y0041364D01*
X0055676Y0041374D02*
X0056768Y0041374D01*
X0056768Y0041384D02*
X0055676Y0041384D01*
X0055676Y0041394D02*
X0056768Y0041394D01*
X0056768Y0041404D02*
X0055676Y0041404D01*
X0055676Y0041414D02*
X0056768Y0041414D01*
X0056768Y0041424D02*
X0055676Y0041424D01*
X0055676Y0041434D02*
X0056768Y0041434D01*
X0056768Y0041444D02*
X0055676Y0041444D01*
X0055676Y0041454D02*
X0056768Y0041454D01*
X0056768Y0041464D02*
X0055676Y0041464D01*
X0055676Y0041474D02*
X0056768Y0041474D01*
X0056768Y0041484D02*
X0055676Y0041484D01*
X0055676Y0041494D02*
X0056768Y0041494D01*
X0056768Y0041504D02*
X0055676Y0041504D01*
X0055676Y0041514D02*
X0056768Y0041514D01*
X0056768Y0041524D02*
X0055676Y0041524D01*
X0055676Y0041534D02*
X0056768Y0041534D01*
X0056768Y0041544D02*
X0055676Y0041544D01*
X0055676Y0041554D02*
X0056768Y0041554D01*
X0056768Y0041564D02*
X0055676Y0041564D01*
X0055676Y0041574D02*
X0056768Y0041574D01*
X0056768Y0041584D02*
X0055676Y0041584D01*
X0055676Y0041594D02*
X0056768Y0041594D01*
X0056768Y0041604D02*
X0055676Y0041604D01*
X0055676Y0041614D02*
X0056768Y0041614D01*
X0056768Y0041624D02*
X0055676Y0041624D01*
X0055676Y0041634D02*
X0056768Y0041634D01*
X0056768Y0041644D02*
X0055676Y0041644D01*
X0055676Y0041654D02*
X0056768Y0041654D01*
X0056768Y0041664D02*
X0055676Y0041664D01*
X0055676Y0041674D02*
X0056768Y0041674D01*
X0056768Y0041684D02*
X0055676Y0041684D01*
X0055676Y0041694D02*
X0056768Y0041694D01*
X0056768Y0041704D02*
X0055676Y0041704D01*
X0055676Y0041714D02*
X0056768Y0041714D01*
X0056768Y0041724D02*
X0055676Y0041724D01*
X0055676Y0041734D02*
X0056768Y0041734D01*
X0056768Y0041744D02*
X0055676Y0041744D01*
X0055676Y0041754D02*
X0056768Y0041754D01*
X0056768Y0041764D02*
X0055676Y0041764D01*
X0055676Y0041774D02*
X0056768Y0041774D01*
X0056768Y0041784D02*
X0055676Y0041784D01*
X0055676Y0041794D02*
X0056768Y0041794D01*
X0056768Y0041804D02*
X0055676Y0041804D01*
X0055676Y0041814D02*
X0056768Y0041814D01*
X0056768Y0041824D02*
X0055676Y0041824D01*
X0055676Y0041834D02*
X0056768Y0041834D01*
X0056768Y0041844D02*
X0055676Y0041844D01*
X0055676Y0041854D02*
X0056768Y0041854D01*
X0056768Y0041864D02*
X0055676Y0041864D01*
X0055676Y0041874D02*
X0056768Y0041874D01*
X0056768Y0041884D02*
X0055676Y0041884D01*
X0055676Y0041894D02*
X0056768Y0041894D01*
X0056768Y0041904D02*
X0055676Y0041904D01*
X0055676Y0041914D02*
X0056768Y0041914D01*
X0056768Y0041924D02*
X0055676Y0041924D01*
X0055676Y0041934D02*
X0056768Y0041934D01*
X0056768Y0041944D02*
X0055676Y0041944D01*
X0055676Y0041954D02*
X0056768Y0041954D01*
X0056768Y0041964D02*
X0055676Y0041964D01*
X0055676Y0041974D02*
X0056768Y0041974D01*
X0056768Y0041984D02*
X0055676Y0041984D01*
X0055676Y0041994D02*
X0056768Y0041994D01*
X0056768Y0042004D02*
X0055676Y0042004D01*
X0055676Y0042014D02*
X0056768Y0042014D01*
X0056768Y0042024D02*
X0055676Y0042024D01*
X0055676Y0042034D02*
X0056768Y0042034D01*
X0056768Y0042044D02*
X0055676Y0042044D01*
X0055676Y0042054D02*
X0056768Y0042054D01*
X0056768Y0042064D02*
X0055676Y0042064D01*
X0055676Y0042074D02*
X0056768Y0042074D01*
X0056768Y0042084D02*
X0055676Y0042084D01*
X0055676Y0042094D02*
X0056768Y0042094D01*
X0056768Y0042104D02*
X0055676Y0042104D01*
X0055676Y0042114D02*
X0056768Y0042114D01*
X0056768Y0042124D02*
X0055676Y0042124D01*
X0055676Y0042134D02*
X0056768Y0042134D01*
X0056768Y0042144D02*
X0055676Y0042144D01*
X0055676Y0042154D02*
X0056768Y0042154D01*
X0056768Y0042164D02*
X0055676Y0042164D01*
X0055676Y0042174D02*
X0056768Y0042174D01*
X0056768Y0042184D02*
X0055676Y0042184D01*
X0055676Y0042194D02*
X0056768Y0042194D01*
X0056768Y0042204D02*
X0055676Y0042204D01*
X0055676Y0042214D02*
X0056768Y0042214D01*
X0056768Y0042224D02*
X0055676Y0042224D01*
X0055676Y0042234D02*
X0056768Y0042234D01*
X0056768Y0042244D02*
X0055676Y0042244D01*
X0055676Y0042254D02*
X0056768Y0042254D01*
X0056768Y0042264D02*
X0055676Y0042264D01*
X0055676Y0042274D02*
X0056768Y0042274D01*
X0056768Y0042284D02*
X0055676Y0042284D01*
X0055676Y0042294D02*
X0056768Y0042294D01*
X0056768Y0042304D02*
X0055676Y0042304D01*
X0055676Y0042314D02*
X0056768Y0042314D01*
X0056768Y0042324D02*
X0055676Y0042324D01*
X0055676Y0042334D02*
X0056768Y0042334D01*
X0056768Y0042344D02*
X0055676Y0042344D01*
X0055676Y0042354D02*
X0056768Y0042354D01*
X0056768Y0042364D02*
X0055676Y0042364D01*
X0055676Y0042374D02*
X0056768Y0042374D01*
X0056768Y0042384D02*
X0055676Y0042384D01*
X0055676Y0042394D02*
X0056768Y0042394D01*
X0056768Y0042404D02*
X0055676Y0042404D01*
X0055676Y0042414D02*
X0056768Y0042414D01*
X0056768Y0042424D02*
X0055676Y0042424D01*
X0055676Y0042434D02*
X0056768Y0042434D01*
X0056768Y0042444D02*
X0055676Y0042444D01*
X0055676Y0042454D02*
X0056768Y0042454D01*
X0056768Y0042464D02*
X0055676Y0042464D01*
X0055676Y0042474D02*
X0056768Y0042474D01*
X0056768Y0042484D02*
X0055676Y0042484D01*
X0055676Y0042494D02*
X0056768Y0042494D01*
X0056768Y0042504D02*
X0055676Y0042504D01*
X0055676Y0042514D02*
X0056768Y0042514D01*
X0056768Y0042524D02*
X0055676Y0042524D01*
X0055676Y0042534D02*
X0056768Y0042534D01*
X0056768Y0042544D02*
X0055676Y0042544D01*
X0054799Y0042552D02*
X0054799Y0039314D01*
X0053707Y0039314D01*
X0053707Y0042552D01*
X0054799Y0042552D01*
X0054799Y0039324D02*
X0053707Y0039324D01*
X0053707Y0039334D02*
X0054799Y0039334D01*
X0054799Y0039344D02*
X0053707Y0039344D01*
X0053707Y0039354D02*
X0054799Y0039354D01*
X0054799Y0039364D02*
X0053707Y0039364D01*
X0053707Y0039374D02*
X0054799Y0039374D01*
X0054799Y0039384D02*
X0053707Y0039384D01*
X0053707Y0039394D02*
X0054799Y0039394D01*
X0054799Y0039404D02*
X0053707Y0039404D01*
X0053707Y0039414D02*
X0054799Y0039414D01*
X0054799Y0039424D02*
X0053707Y0039424D01*
X0053707Y0039434D02*
X0054799Y0039434D01*
X0054799Y0039444D02*
X0053707Y0039444D01*
X0053707Y0039454D02*
X0054799Y0039454D01*
X0054799Y0039464D02*
X0053707Y0039464D01*
X0053707Y0039474D02*
X0054799Y0039474D01*
X0054799Y0039484D02*
X0053707Y0039484D01*
X0053707Y0039494D02*
X0054799Y0039494D01*
X0054799Y0039504D02*
X0053707Y0039504D01*
X0053707Y0039514D02*
X0054799Y0039514D01*
X0054799Y0039524D02*
X0053707Y0039524D01*
X0053707Y0039534D02*
X0054799Y0039534D01*
X0054799Y0039544D02*
X0053707Y0039544D01*
X0053707Y0039554D02*
X0054799Y0039554D01*
X0054799Y0039564D02*
X0053707Y0039564D01*
X0053707Y0039574D02*
X0054799Y0039574D01*
X0054799Y0039584D02*
X0053707Y0039584D01*
X0053707Y0039594D02*
X0054799Y0039594D01*
X0054799Y0039604D02*
X0053707Y0039604D01*
X0053707Y0039614D02*
X0054799Y0039614D01*
X0054799Y0039624D02*
X0053707Y0039624D01*
X0053707Y0039634D02*
X0054799Y0039634D01*
X0054799Y0039644D02*
X0053707Y0039644D01*
X0053707Y0039654D02*
X0054799Y0039654D01*
X0054799Y0039664D02*
X0053707Y0039664D01*
X0053707Y0039674D02*
X0054799Y0039674D01*
X0054799Y0039684D02*
X0053707Y0039684D01*
X0053707Y0039694D02*
X0054799Y0039694D01*
X0054799Y0039704D02*
X0053707Y0039704D01*
X0053707Y0039714D02*
X0054799Y0039714D01*
X0054799Y0039724D02*
X0053707Y0039724D01*
X0053707Y0039734D02*
X0054799Y0039734D01*
X0054799Y0039744D02*
X0053707Y0039744D01*
X0053707Y0039754D02*
X0054799Y0039754D01*
X0054799Y0039764D02*
X0053707Y0039764D01*
X0053707Y0039774D02*
X0054799Y0039774D01*
X0054799Y0039784D02*
X0053707Y0039784D01*
X0053707Y0039794D02*
X0054799Y0039794D01*
X0054799Y0039804D02*
X0053707Y0039804D01*
X0053707Y0039814D02*
X0054799Y0039814D01*
X0054799Y0039824D02*
X0053707Y0039824D01*
X0053707Y0039834D02*
X0054799Y0039834D01*
X0054799Y0039844D02*
X0053707Y0039844D01*
X0053707Y0039854D02*
X0054799Y0039854D01*
X0054799Y0039864D02*
X0053707Y0039864D01*
X0053707Y0039874D02*
X0054799Y0039874D01*
X0054799Y0039884D02*
X0053707Y0039884D01*
X0053707Y0039894D02*
X0054799Y0039894D01*
X0054799Y0039904D02*
X0053707Y0039904D01*
X0053707Y0039914D02*
X0054799Y0039914D01*
X0054799Y0039924D02*
X0053707Y0039924D01*
X0053707Y0039934D02*
X0054799Y0039934D01*
X0054799Y0039944D02*
X0053707Y0039944D01*
X0053707Y0039954D02*
X0054799Y0039954D01*
X0054799Y0039964D02*
X0053707Y0039964D01*
X0053707Y0039974D02*
X0054799Y0039974D01*
X0054799Y0039984D02*
X0053707Y0039984D01*
X0053707Y0039994D02*
X0054799Y0039994D01*
X0054799Y0040004D02*
X0053707Y0040004D01*
X0053707Y0040014D02*
X0054799Y0040014D01*
X0054799Y0040024D02*
X0053707Y0040024D01*
X0053707Y0040034D02*
X0054799Y0040034D01*
X0054799Y0040044D02*
X0053707Y0040044D01*
X0053707Y0040054D02*
X0054799Y0040054D01*
X0054799Y0040064D02*
X0053707Y0040064D01*
X0053707Y0040074D02*
X0054799Y0040074D01*
X0054799Y0040084D02*
X0053707Y0040084D01*
X0053707Y0040094D02*
X0054799Y0040094D01*
X0054799Y0040104D02*
X0053707Y0040104D01*
X0053707Y0040114D02*
X0054799Y0040114D01*
X0054799Y0040124D02*
X0053707Y0040124D01*
X0053707Y0040134D02*
X0054799Y0040134D01*
X0054799Y0040144D02*
X0053707Y0040144D01*
X0053707Y0040154D02*
X0054799Y0040154D01*
X0054799Y0040164D02*
X0053707Y0040164D01*
X0053707Y0040174D02*
X0054799Y0040174D01*
X0054799Y0040184D02*
X0053707Y0040184D01*
X0053707Y0040194D02*
X0054799Y0040194D01*
X0054799Y0040204D02*
X0053707Y0040204D01*
X0053707Y0040214D02*
X0054799Y0040214D01*
X0054799Y0040224D02*
X0053707Y0040224D01*
X0053707Y0040234D02*
X0054799Y0040234D01*
X0054799Y0040244D02*
X0053707Y0040244D01*
X0053707Y0040254D02*
X0054799Y0040254D01*
X0054799Y0040264D02*
X0053707Y0040264D01*
X0053707Y0040274D02*
X0054799Y0040274D01*
X0054799Y0040284D02*
X0053707Y0040284D01*
X0053707Y0040294D02*
X0054799Y0040294D01*
X0054799Y0040304D02*
X0053707Y0040304D01*
X0053707Y0040314D02*
X0054799Y0040314D01*
X0054799Y0040324D02*
X0053707Y0040324D01*
X0053707Y0040334D02*
X0054799Y0040334D01*
X0054799Y0040344D02*
X0053707Y0040344D01*
X0053707Y0040354D02*
X0054799Y0040354D01*
X0054799Y0040364D02*
X0053707Y0040364D01*
X0053707Y0040374D02*
X0054799Y0040374D01*
X0054799Y0040384D02*
X0053707Y0040384D01*
X0053707Y0040394D02*
X0054799Y0040394D01*
X0054799Y0040404D02*
X0053707Y0040404D01*
X0053707Y0040414D02*
X0054799Y0040414D01*
X0054799Y0040424D02*
X0053707Y0040424D01*
X0053707Y0040434D02*
X0054799Y0040434D01*
X0054799Y0040444D02*
X0053707Y0040444D01*
X0053707Y0040454D02*
X0054799Y0040454D01*
X0054799Y0040464D02*
X0053707Y0040464D01*
X0053707Y0040474D02*
X0054799Y0040474D01*
X0054799Y0040484D02*
X0053707Y0040484D01*
X0053707Y0040494D02*
X0054799Y0040494D01*
X0054799Y0040504D02*
X0053707Y0040504D01*
X0053707Y0040514D02*
X0054799Y0040514D01*
X0054799Y0040524D02*
X0053707Y0040524D01*
X0053707Y0040534D02*
X0054799Y0040534D01*
X0054799Y0040544D02*
X0053707Y0040544D01*
X0053707Y0040554D02*
X0054799Y0040554D01*
X0054799Y0040564D02*
X0053707Y0040564D01*
X0053707Y0040574D02*
X0054799Y0040574D01*
X0054799Y0040584D02*
X0053707Y0040584D01*
X0053707Y0040594D02*
X0054799Y0040594D01*
X0054799Y0040604D02*
X0053707Y0040604D01*
X0053707Y0040614D02*
X0054799Y0040614D01*
X0054799Y0040624D02*
X0053707Y0040624D01*
X0053707Y0040634D02*
X0054799Y0040634D01*
X0054799Y0040644D02*
X0053707Y0040644D01*
X0053707Y0040654D02*
X0054799Y0040654D01*
X0054799Y0040664D02*
X0053707Y0040664D01*
X0053707Y0040674D02*
X0054799Y0040674D01*
X0054799Y0040684D02*
X0053707Y0040684D01*
X0053707Y0040694D02*
X0054799Y0040694D01*
X0054799Y0040704D02*
X0053707Y0040704D01*
X0053707Y0040714D02*
X0054799Y0040714D01*
X0054799Y0040724D02*
X0053707Y0040724D01*
X0053707Y0040734D02*
X0054799Y0040734D01*
X0054799Y0040744D02*
X0053707Y0040744D01*
X0053707Y0040754D02*
X0054799Y0040754D01*
X0054799Y0040764D02*
X0053707Y0040764D01*
X0053707Y0040774D02*
X0054799Y0040774D01*
X0054799Y0040784D02*
X0053707Y0040784D01*
X0053707Y0040794D02*
X0054799Y0040794D01*
X0054799Y0040804D02*
X0053707Y0040804D01*
X0053707Y0040814D02*
X0054799Y0040814D01*
X0054799Y0040824D02*
X0053707Y0040824D01*
X0053707Y0040834D02*
X0054799Y0040834D01*
X0054799Y0040844D02*
X0053707Y0040844D01*
X0053707Y0040854D02*
X0054799Y0040854D01*
X0054799Y0040864D02*
X0053707Y0040864D01*
X0053707Y0040874D02*
X0054799Y0040874D01*
X0054799Y0040884D02*
X0053707Y0040884D01*
X0053707Y0040894D02*
X0054799Y0040894D01*
X0054799Y0040904D02*
X0053707Y0040904D01*
X0053707Y0040914D02*
X0054799Y0040914D01*
X0054799Y0040924D02*
X0053707Y0040924D01*
X0053707Y0040934D02*
X0054799Y0040934D01*
X0054799Y0040944D02*
X0053707Y0040944D01*
X0053707Y0040954D02*
X0054799Y0040954D01*
X0054799Y0040964D02*
X0053707Y0040964D01*
X0053707Y0040974D02*
X0054799Y0040974D01*
X0054799Y0040984D02*
X0053707Y0040984D01*
X0053707Y0040994D02*
X0054799Y0040994D01*
X0054799Y0041004D02*
X0053707Y0041004D01*
X0053707Y0041014D02*
X0054799Y0041014D01*
X0054799Y0041024D02*
X0053707Y0041024D01*
X0053707Y0041034D02*
X0054799Y0041034D01*
X0054799Y0041044D02*
X0053707Y0041044D01*
X0053707Y0041054D02*
X0054799Y0041054D01*
X0054799Y0041064D02*
X0053707Y0041064D01*
X0053707Y0041074D02*
X0054799Y0041074D01*
X0054799Y0041084D02*
X0053707Y0041084D01*
X0053707Y0041094D02*
X0054799Y0041094D01*
X0054799Y0041104D02*
X0053707Y0041104D01*
X0053707Y0041114D02*
X0054799Y0041114D01*
X0054799Y0041124D02*
X0053707Y0041124D01*
X0053707Y0041134D02*
X0054799Y0041134D01*
X0054799Y0041144D02*
X0053707Y0041144D01*
X0053707Y0041154D02*
X0054799Y0041154D01*
X0054799Y0041164D02*
X0053707Y0041164D01*
X0053707Y0041174D02*
X0054799Y0041174D01*
X0054799Y0041184D02*
X0053707Y0041184D01*
X0053707Y0041194D02*
X0054799Y0041194D01*
X0054799Y0041204D02*
X0053707Y0041204D01*
X0053707Y0041214D02*
X0054799Y0041214D01*
X0054799Y0041224D02*
X0053707Y0041224D01*
X0053707Y0041234D02*
X0054799Y0041234D01*
X0054799Y0041244D02*
X0053707Y0041244D01*
X0053707Y0041254D02*
X0054799Y0041254D01*
X0054799Y0041264D02*
X0053707Y0041264D01*
X0053707Y0041274D02*
X0054799Y0041274D01*
X0054799Y0041284D02*
X0053707Y0041284D01*
X0053707Y0041294D02*
X0054799Y0041294D01*
X0054799Y0041304D02*
X0053707Y0041304D01*
X0053707Y0041314D02*
X0054799Y0041314D01*
X0054799Y0041324D02*
X0053707Y0041324D01*
X0053707Y0041334D02*
X0054799Y0041334D01*
X0054799Y0041344D02*
X0053707Y0041344D01*
X0053707Y0041354D02*
X0054799Y0041354D01*
X0054799Y0041364D02*
X0053707Y0041364D01*
X0053707Y0041374D02*
X0054799Y0041374D01*
X0054799Y0041384D02*
X0053707Y0041384D01*
X0053707Y0041394D02*
X0054799Y0041394D01*
X0054799Y0041404D02*
X0053707Y0041404D01*
X0053707Y0041414D02*
X0054799Y0041414D01*
X0054799Y0041424D02*
X0053707Y0041424D01*
X0053707Y0041434D02*
X0054799Y0041434D01*
X0054799Y0041444D02*
X0053707Y0041444D01*
X0053707Y0041454D02*
X0054799Y0041454D01*
X0054799Y0041464D02*
X0053707Y0041464D01*
X0053707Y0041474D02*
X0054799Y0041474D01*
X0054799Y0041484D02*
X0053707Y0041484D01*
X0053707Y0041494D02*
X0054799Y0041494D01*
X0054799Y0041504D02*
X0053707Y0041504D01*
X0053707Y0041514D02*
X0054799Y0041514D01*
X0054799Y0041524D02*
X0053707Y0041524D01*
X0053707Y0041534D02*
X0054799Y0041534D01*
X0054799Y0041544D02*
X0053707Y0041544D01*
X0053707Y0041554D02*
X0054799Y0041554D01*
X0054799Y0041564D02*
X0053707Y0041564D01*
X0053707Y0041574D02*
X0054799Y0041574D01*
X0054799Y0041584D02*
X0053707Y0041584D01*
X0053707Y0041594D02*
X0054799Y0041594D01*
X0054799Y0041604D02*
X0053707Y0041604D01*
X0053707Y0041614D02*
X0054799Y0041614D01*
X0054799Y0041624D02*
X0053707Y0041624D01*
X0053707Y0041634D02*
X0054799Y0041634D01*
X0054799Y0041644D02*
X0053707Y0041644D01*
X0053707Y0041654D02*
X0054799Y0041654D01*
X0054799Y0041664D02*
X0053707Y0041664D01*
X0053707Y0041674D02*
X0054799Y0041674D01*
X0054799Y0041684D02*
X0053707Y0041684D01*
X0053707Y0041694D02*
X0054799Y0041694D01*
X0054799Y0041704D02*
X0053707Y0041704D01*
X0053707Y0041714D02*
X0054799Y0041714D01*
X0054799Y0041724D02*
X0053707Y0041724D01*
X0053707Y0041734D02*
X0054799Y0041734D01*
X0054799Y0041744D02*
X0053707Y0041744D01*
X0053707Y0041754D02*
X0054799Y0041754D01*
X0054799Y0041764D02*
X0053707Y0041764D01*
X0053707Y0041774D02*
X0054799Y0041774D01*
X0054799Y0041784D02*
X0053707Y0041784D01*
X0053707Y0041794D02*
X0054799Y0041794D01*
X0054799Y0041804D02*
X0053707Y0041804D01*
X0053707Y0041814D02*
X0054799Y0041814D01*
X0054799Y0041824D02*
X0053707Y0041824D01*
X0053707Y0041834D02*
X0054799Y0041834D01*
X0054799Y0041844D02*
X0053707Y0041844D01*
X0053707Y0041854D02*
X0054799Y0041854D01*
X0054799Y0041864D02*
X0053707Y0041864D01*
X0053707Y0041874D02*
X0054799Y0041874D01*
X0054799Y0041884D02*
X0053707Y0041884D01*
X0053707Y0041894D02*
X0054799Y0041894D01*
X0054799Y0041904D02*
X0053707Y0041904D01*
X0053707Y0041914D02*
X0054799Y0041914D01*
X0054799Y0041924D02*
X0053707Y0041924D01*
X0053707Y0041934D02*
X0054799Y0041934D01*
X0054799Y0041944D02*
X0053707Y0041944D01*
X0053707Y0041954D02*
X0054799Y0041954D01*
X0054799Y0041964D02*
X0053707Y0041964D01*
X0053707Y0041974D02*
X0054799Y0041974D01*
X0054799Y0041984D02*
X0053707Y0041984D01*
X0053707Y0041994D02*
X0054799Y0041994D01*
X0054799Y0042004D02*
X0053707Y0042004D01*
X0053707Y0042014D02*
X0054799Y0042014D01*
X0054799Y0042024D02*
X0053707Y0042024D01*
X0053707Y0042034D02*
X0054799Y0042034D01*
X0054799Y0042044D02*
X0053707Y0042044D01*
X0053707Y0042054D02*
X0054799Y0042054D01*
X0054799Y0042064D02*
X0053707Y0042064D01*
X0053707Y0042074D02*
X0054799Y0042074D01*
X0054799Y0042084D02*
X0053707Y0042084D01*
X0053707Y0042094D02*
X0054799Y0042094D01*
X0054799Y0042104D02*
X0053707Y0042104D01*
X0053707Y0042114D02*
X0054799Y0042114D01*
X0054799Y0042124D02*
X0053707Y0042124D01*
X0053707Y0042134D02*
X0054799Y0042134D01*
X0054799Y0042144D02*
X0053707Y0042144D01*
X0053707Y0042154D02*
X0054799Y0042154D01*
X0054799Y0042164D02*
X0053707Y0042164D01*
X0053707Y0042174D02*
X0054799Y0042174D01*
X0054799Y0042184D02*
X0053707Y0042184D01*
X0053707Y0042194D02*
X0054799Y0042194D01*
X0054799Y0042204D02*
X0053707Y0042204D01*
X0053707Y0042214D02*
X0054799Y0042214D01*
X0054799Y0042224D02*
X0053707Y0042224D01*
X0053707Y0042234D02*
X0054799Y0042234D01*
X0054799Y0042244D02*
X0053707Y0042244D01*
X0053707Y0042254D02*
X0054799Y0042254D01*
X0054799Y0042264D02*
X0053707Y0042264D01*
X0053707Y0042274D02*
X0054799Y0042274D01*
X0054799Y0042284D02*
X0053707Y0042284D01*
X0053707Y0042294D02*
X0054799Y0042294D01*
X0054799Y0042304D02*
X0053707Y0042304D01*
X0053707Y0042314D02*
X0054799Y0042314D01*
X0054799Y0042324D02*
X0053707Y0042324D01*
X0053707Y0042334D02*
X0054799Y0042334D01*
X0054799Y0042344D02*
X0053707Y0042344D01*
X0053707Y0042354D02*
X0054799Y0042354D01*
X0054799Y0042364D02*
X0053707Y0042364D01*
X0053707Y0042374D02*
X0054799Y0042374D01*
X0054799Y0042384D02*
X0053707Y0042384D01*
X0053707Y0042394D02*
X0054799Y0042394D01*
X0054799Y0042404D02*
X0053707Y0042404D01*
X0053707Y0042414D02*
X0054799Y0042414D01*
X0054799Y0042424D02*
X0053707Y0042424D01*
X0053707Y0042434D02*
X0054799Y0042434D01*
X0054799Y0042444D02*
X0053707Y0042444D01*
X0053707Y0042454D02*
X0054799Y0042454D01*
X0054799Y0042464D02*
X0053707Y0042464D01*
X0053707Y0042474D02*
X0054799Y0042474D01*
X0054799Y0042484D02*
X0053707Y0042484D01*
X0053707Y0042494D02*
X0054799Y0042494D01*
X0054799Y0042504D02*
X0053707Y0042504D01*
X0053707Y0042514D02*
X0054799Y0042514D01*
X0054799Y0042524D02*
X0053707Y0042524D01*
X0053707Y0042534D02*
X0054799Y0042534D01*
X0054799Y0042544D02*
X0053707Y0042544D01*
X0052831Y0042552D02*
X0052831Y0039314D01*
X0051739Y0039314D01*
X0051739Y0042552D01*
X0052831Y0042552D01*
X0052831Y0039324D02*
X0051739Y0039324D01*
X0051739Y0039334D02*
X0052831Y0039334D01*
X0052831Y0039344D02*
X0051739Y0039344D01*
X0051739Y0039354D02*
X0052831Y0039354D01*
X0052831Y0039364D02*
X0051739Y0039364D01*
X0051739Y0039374D02*
X0052831Y0039374D01*
X0052831Y0039384D02*
X0051739Y0039384D01*
X0051739Y0039394D02*
X0052831Y0039394D01*
X0052831Y0039404D02*
X0051739Y0039404D01*
X0051739Y0039414D02*
X0052831Y0039414D01*
X0052831Y0039424D02*
X0051739Y0039424D01*
X0051739Y0039434D02*
X0052831Y0039434D01*
X0052831Y0039444D02*
X0051739Y0039444D01*
X0051739Y0039454D02*
X0052831Y0039454D01*
X0052831Y0039464D02*
X0051739Y0039464D01*
X0051739Y0039474D02*
X0052831Y0039474D01*
X0052831Y0039484D02*
X0051739Y0039484D01*
X0051739Y0039494D02*
X0052831Y0039494D01*
X0052831Y0039504D02*
X0051739Y0039504D01*
X0051739Y0039514D02*
X0052831Y0039514D01*
X0052831Y0039524D02*
X0051739Y0039524D01*
X0051739Y0039534D02*
X0052831Y0039534D01*
X0052831Y0039544D02*
X0051739Y0039544D01*
X0051739Y0039554D02*
X0052831Y0039554D01*
X0052831Y0039564D02*
X0051739Y0039564D01*
X0051739Y0039574D02*
X0052831Y0039574D01*
X0052831Y0039584D02*
X0051739Y0039584D01*
X0051739Y0039594D02*
X0052831Y0039594D01*
X0052831Y0039604D02*
X0051739Y0039604D01*
X0051739Y0039614D02*
X0052831Y0039614D01*
X0052831Y0039624D02*
X0051739Y0039624D01*
X0051739Y0039634D02*
X0052831Y0039634D01*
X0052831Y0039644D02*
X0051739Y0039644D01*
X0051739Y0039654D02*
X0052831Y0039654D01*
X0052831Y0039664D02*
X0051739Y0039664D01*
X0051739Y0039674D02*
X0052831Y0039674D01*
X0052831Y0039684D02*
X0051739Y0039684D01*
X0051739Y0039694D02*
X0052831Y0039694D01*
X0052831Y0039704D02*
X0051739Y0039704D01*
X0051739Y0039714D02*
X0052831Y0039714D01*
X0052831Y0039724D02*
X0051739Y0039724D01*
X0051739Y0039734D02*
X0052831Y0039734D01*
X0052831Y0039744D02*
X0051739Y0039744D01*
X0051739Y0039754D02*
X0052831Y0039754D01*
X0052831Y0039764D02*
X0051739Y0039764D01*
X0051739Y0039774D02*
X0052831Y0039774D01*
X0052831Y0039784D02*
X0051739Y0039784D01*
X0051739Y0039794D02*
X0052831Y0039794D01*
X0052831Y0039804D02*
X0051739Y0039804D01*
X0051739Y0039814D02*
X0052831Y0039814D01*
X0052831Y0039824D02*
X0051739Y0039824D01*
X0051739Y0039834D02*
X0052831Y0039834D01*
X0052831Y0039844D02*
X0051739Y0039844D01*
X0051739Y0039854D02*
X0052831Y0039854D01*
X0052831Y0039864D02*
X0051739Y0039864D01*
X0051739Y0039874D02*
X0052831Y0039874D01*
X0052831Y0039884D02*
X0051739Y0039884D01*
X0051739Y0039894D02*
X0052831Y0039894D01*
X0052831Y0039904D02*
X0051739Y0039904D01*
X0051739Y0039914D02*
X0052831Y0039914D01*
X0052831Y0039924D02*
X0051739Y0039924D01*
X0051739Y0039934D02*
X0052831Y0039934D01*
X0052831Y0039944D02*
X0051739Y0039944D01*
X0051739Y0039954D02*
X0052831Y0039954D01*
X0052831Y0039964D02*
X0051739Y0039964D01*
X0051739Y0039974D02*
X0052831Y0039974D01*
X0052831Y0039984D02*
X0051739Y0039984D01*
X0051739Y0039994D02*
X0052831Y0039994D01*
X0052831Y0040004D02*
X0051739Y0040004D01*
X0051739Y0040014D02*
X0052831Y0040014D01*
X0052831Y0040024D02*
X0051739Y0040024D01*
X0051739Y0040034D02*
X0052831Y0040034D01*
X0052831Y0040044D02*
X0051739Y0040044D01*
X0051739Y0040054D02*
X0052831Y0040054D01*
X0052831Y0040064D02*
X0051739Y0040064D01*
X0051739Y0040074D02*
X0052831Y0040074D01*
X0052831Y0040084D02*
X0051739Y0040084D01*
X0051739Y0040094D02*
X0052831Y0040094D01*
X0052831Y0040104D02*
X0051739Y0040104D01*
X0051739Y0040114D02*
X0052831Y0040114D01*
X0052831Y0040124D02*
X0051739Y0040124D01*
X0051739Y0040134D02*
X0052831Y0040134D01*
X0052831Y0040144D02*
X0051739Y0040144D01*
X0051739Y0040154D02*
X0052831Y0040154D01*
X0052831Y0040164D02*
X0051739Y0040164D01*
X0051739Y0040174D02*
X0052831Y0040174D01*
X0052831Y0040184D02*
X0051739Y0040184D01*
X0051739Y0040194D02*
X0052831Y0040194D01*
X0052831Y0040204D02*
X0051739Y0040204D01*
X0051739Y0040214D02*
X0052831Y0040214D01*
X0052831Y0040224D02*
X0051739Y0040224D01*
X0051739Y0040234D02*
X0052831Y0040234D01*
X0052831Y0040244D02*
X0051739Y0040244D01*
X0051739Y0040254D02*
X0052831Y0040254D01*
X0052831Y0040264D02*
X0051739Y0040264D01*
X0051739Y0040274D02*
X0052831Y0040274D01*
X0052831Y0040284D02*
X0051739Y0040284D01*
X0051739Y0040294D02*
X0052831Y0040294D01*
X0052831Y0040304D02*
X0051739Y0040304D01*
X0051739Y0040314D02*
X0052831Y0040314D01*
X0052831Y0040324D02*
X0051739Y0040324D01*
X0051739Y0040334D02*
X0052831Y0040334D01*
X0052831Y0040344D02*
X0051739Y0040344D01*
X0051739Y0040354D02*
X0052831Y0040354D01*
X0052831Y0040364D02*
X0051739Y0040364D01*
X0051739Y0040374D02*
X0052831Y0040374D01*
X0052831Y0040384D02*
X0051739Y0040384D01*
X0051739Y0040394D02*
X0052831Y0040394D01*
X0052831Y0040404D02*
X0051739Y0040404D01*
X0051739Y0040414D02*
X0052831Y0040414D01*
X0052831Y0040424D02*
X0051739Y0040424D01*
X0051739Y0040434D02*
X0052831Y0040434D01*
X0052831Y0040444D02*
X0051739Y0040444D01*
X0051739Y0040454D02*
X0052831Y0040454D01*
X0052831Y0040464D02*
X0051739Y0040464D01*
X0051739Y0040474D02*
X0052831Y0040474D01*
X0052831Y0040484D02*
X0051739Y0040484D01*
X0051739Y0040494D02*
X0052831Y0040494D01*
X0052831Y0040504D02*
X0051739Y0040504D01*
X0051739Y0040514D02*
X0052831Y0040514D01*
X0052831Y0040524D02*
X0051739Y0040524D01*
X0051739Y0040534D02*
X0052831Y0040534D01*
X0052831Y0040544D02*
X0051739Y0040544D01*
X0051739Y0040554D02*
X0052831Y0040554D01*
X0052831Y0040564D02*
X0051739Y0040564D01*
X0051739Y0040574D02*
X0052831Y0040574D01*
X0052831Y0040584D02*
X0051739Y0040584D01*
X0051739Y0040594D02*
X0052831Y0040594D01*
X0052831Y0040604D02*
X0051739Y0040604D01*
X0051739Y0040614D02*
X0052831Y0040614D01*
X0052831Y0040624D02*
X0051739Y0040624D01*
X0051739Y0040634D02*
X0052831Y0040634D01*
X0052831Y0040644D02*
X0051739Y0040644D01*
X0051739Y0040654D02*
X0052831Y0040654D01*
X0052831Y0040664D02*
X0051739Y0040664D01*
X0051739Y0040674D02*
X0052831Y0040674D01*
X0052831Y0040684D02*
X0051739Y0040684D01*
X0051739Y0040694D02*
X0052831Y0040694D01*
X0052831Y0040704D02*
X0051739Y0040704D01*
X0051739Y0040714D02*
X0052831Y0040714D01*
X0052831Y0040724D02*
X0051739Y0040724D01*
X0051739Y0040734D02*
X0052831Y0040734D01*
X0052831Y0040744D02*
X0051739Y0040744D01*
X0051739Y0040754D02*
X0052831Y0040754D01*
X0052831Y0040764D02*
X0051739Y0040764D01*
X0051739Y0040774D02*
X0052831Y0040774D01*
X0052831Y0040784D02*
X0051739Y0040784D01*
X0051739Y0040794D02*
X0052831Y0040794D01*
X0052831Y0040804D02*
X0051739Y0040804D01*
X0051739Y0040814D02*
X0052831Y0040814D01*
X0052831Y0040824D02*
X0051739Y0040824D01*
X0051739Y0040834D02*
X0052831Y0040834D01*
X0052831Y0040844D02*
X0051739Y0040844D01*
X0051739Y0040854D02*
X0052831Y0040854D01*
X0052831Y0040864D02*
X0051739Y0040864D01*
X0051739Y0040874D02*
X0052831Y0040874D01*
X0052831Y0040884D02*
X0051739Y0040884D01*
X0051739Y0040894D02*
X0052831Y0040894D01*
X0052831Y0040904D02*
X0051739Y0040904D01*
X0051739Y0040914D02*
X0052831Y0040914D01*
X0052831Y0040924D02*
X0051739Y0040924D01*
X0051739Y0040934D02*
X0052831Y0040934D01*
X0052831Y0040944D02*
X0051739Y0040944D01*
X0051739Y0040954D02*
X0052831Y0040954D01*
X0052831Y0040964D02*
X0051739Y0040964D01*
X0051739Y0040974D02*
X0052831Y0040974D01*
X0052831Y0040984D02*
X0051739Y0040984D01*
X0051739Y0040994D02*
X0052831Y0040994D01*
X0052831Y0041004D02*
X0051739Y0041004D01*
X0051739Y0041014D02*
X0052831Y0041014D01*
X0052831Y0041024D02*
X0051739Y0041024D01*
X0051739Y0041034D02*
X0052831Y0041034D01*
X0052831Y0041044D02*
X0051739Y0041044D01*
X0051739Y0041054D02*
X0052831Y0041054D01*
X0052831Y0041064D02*
X0051739Y0041064D01*
X0051739Y0041074D02*
X0052831Y0041074D01*
X0052831Y0041084D02*
X0051739Y0041084D01*
X0051739Y0041094D02*
X0052831Y0041094D01*
X0052831Y0041104D02*
X0051739Y0041104D01*
X0051739Y0041114D02*
X0052831Y0041114D01*
X0052831Y0041124D02*
X0051739Y0041124D01*
X0051739Y0041134D02*
X0052831Y0041134D01*
X0052831Y0041144D02*
X0051739Y0041144D01*
X0051739Y0041154D02*
X0052831Y0041154D01*
X0052831Y0041164D02*
X0051739Y0041164D01*
X0051739Y0041174D02*
X0052831Y0041174D01*
X0052831Y0041184D02*
X0051739Y0041184D01*
X0051739Y0041194D02*
X0052831Y0041194D01*
X0052831Y0041204D02*
X0051739Y0041204D01*
X0051739Y0041214D02*
X0052831Y0041214D01*
X0052831Y0041224D02*
X0051739Y0041224D01*
X0051739Y0041234D02*
X0052831Y0041234D01*
X0052831Y0041244D02*
X0051739Y0041244D01*
X0051739Y0041254D02*
X0052831Y0041254D01*
X0052831Y0041264D02*
X0051739Y0041264D01*
X0051739Y0041274D02*
X0052831Y0041274D01*
X0052831Y0041284D02*
X0051739Y0041284D01*
X0051739Y0041294D02*
X0052831Y0041294D01*
X0052831Y0041304D02*
X0051739Y0041304D01*
X0051739Y0041314D02*
X0052831Y0041314D01*
X0052831Y0041324D02*
X0051739Y0041324D01*
X0051739Y0041334D02*
X0052831Y0041334D01*
X0052831Y0041344D02*
X0051739Y0041344D01*
X0051739Y0041354D02*
X0052831Y0041354D01*
X0052831Y0041364D02*
X0051739Y0041364D01*
X0051739Y0041374D02*
X0052831Y0041374D01*
X0052831Y0041384D02*
X0051739Y0041384D01*
X0051739Y0041394D02*
X0052831Y0041394D01*
X0052831Y0041404D02*
X0051739Y0041404D01*
X0051739Y0041414D02*
X0052831Y0041414D01*
X0052831Y0041424D02*
X0051739Y0041424D01*
X0051739Y0041434D02*
X0052831Y0041434D01*
X0052831Y0041444D02*
X0051739Y0041444D01*
X0051739Y0041454D02*
X0052831Y0041454D01*
X0052831Y0041464D02*
X0051739Y0041464D01*
X0051739Y0041474D02*
X0052831Y0041474D01*
X0052831Y0041484D02*
X0051739Y0041484D01*
X0051739Y0041494D02*
X0052831Y0041494D01*
X0052831Y0041504D02*
X0051739Y0041504D01*
X0051739Y0041514D02*
X0052831Y0041514D01*
X0052831Y0041524D02*
X0051739Y0041524D01*
X0051739Y0041534D02*
X0052831Y0041534D01*
X0052831Y0041544D02*
X0051739Y0041544D01*
X0051739Y0041554D02*
X0052831Y0041554D01*
X0052831Y0041564D02*
X0051739Y0041564D01*
X0051739Y0041574D02*
X0052831Y0041574D01*
X0052831Y0041584D02*
X0051739Y0041584D01*
X0051739Y0041594D02*
X0052831Y0041594D01*
X0052831Y0041604D02*
X0051739Y0041604D01*
X0051739Y0041614D02*
X0052831Y0041614D01*
X0052831Y0041624D02*
X0051739Y0041624D01*
X0051739Y0041634D02*
X0052831Y0041634D01*
X0052831Y0041644D02*
X0051739Y0041644D01*
X0051739Y0041654D02*
X0052831Y0041654D01*
X0052831Y0041664D02*
X0051739Y0041664D01*
X0051739Y0041674D02*
X0052831Y0041674D01*
X0052831Y0041684D02*
X0051739Y0041684D01*
X0051739Y0041694D02*
X0052831Y0041694D01*
X0052831Y0041704D02*
X0051739Y0041704D01*
X0051739Y0041714D02*
X0052831Y0041714D01*
X0052831Y0041724D02*
X0051739Y0041724D01*
X0051739Y0041734D02*
X0052831Y0041734D01*
X0052831Y0041744D02*
X0051739Y0041744D01*
X0051739Y0041754D02*
X0052831Y0041754D01*
X0052831Y0041764D02*
X0051739Y0041764D01*
X0051739Y0041774D02*
X0052831Y0041774D01*
X0052831Y0041784D02*
X0051739Y0041784D01*
X0051739Y0041794D02*
X0052831Y0041794D01*
X0052831Y0041804D02*
X0051739Y0041804D01*
X0051739Y0041814D02*
X0052831Y0041814D01*
X0052831Y0041824D02*
X0051739Y0041824D01*
X0051739Y0041834D02*
X0052831Y0041834D01*
X0052831Y0041844D02*
X0051739Y0041844D01*
X0051739Y0041854D02*
X0052831Y0041854D01*
X0052831Y0041864D02*
X0051739Y0041864D01*
X0051739Y0041874D02*
X0052831Y0041874D01*
X0052831Y0041884D02*
X0051739Y0041884D01*
X0051739Y0041894D02*
X0052831Y0041894D01*
X0052831Y0041904D02*
X0051739Y0041904D01*
X0051739Y0041914D02*
X0052831Y0041914D01*
X0052831Y0041924D02*
X0051739Y0041924D01*
X0051739Y0041934D02*
X0052831Y0041934D01*
X0052831Y0041944D02*
X0051739Y0041944D01*
X0051739Y0041954D02*
X0052831Y0041954D01*
X0052831Y0041964D02*
X0051739Y0041964D01*
X0051739Y0041974D02*
X0052831Y0041974D01*
X0052831Y0041984D02*
X0051739Y0041984D01*
X0051739Y0041994D02*
X0052831Y0041994D01*
X0052831Y0042004D02*
X0051739Y0042004D01*
X0051739Y0042014D02*
X0052831Y0042014D01*
X0052831Y0042024D02*
X0051739Y0042024D01*
X0051739Y0042034D02*
X0052831Y0042034D01*
X0052831Y0042044D02*
X0051739Y0042044D01*
X0051739Y0042054D02*
X0052831Y0042054D01*
X0052831Y0042064D02*
X0051739Y0042064D01*
X0051739Y0042074D02*
X0052831Y0042074D01*
X0052831Y0042084D02*
X0051739Y0042084D01*
X0051739Y0042094D02*
X0052831Y0042094D01*
X0052831Y0042104D02*
X0051739Y0042104D01*
X0051739Y0042114D02*
X0052831Y0042114D01*
X0052831Y0042124D02*
X0051739Y0042124D01*
X0051739Y0042134D02*
X0052831Y0042134D01*
X0052831Y0042144D02*
X0051739Y0042144D01*
X0051739Y0042154D02*
X0052831Y0042154D01*
X0052831Y0042164D02*
X0051739Y0042164D01*
X0051739Y0042174D02*
X0052831Y0042174D01*
X0052831Y0042184D02*
X0051739Y0042184D01*
X0051739Y0042194D02*
X0052831Y0042194D01*
X0052831Y0042204D02*
X0051739Y0042204D01*
X0051739Y0042214D02*
X0052831Y0042214D01*
X0052831Y0042224D02*
X0051739Y0042224D01*
X0051739Y0042234D02*
X0052831Y0042234D01*
X0052831Y0042244D02*
X0051739Y0042244D01*
X0051739Y0042254D02*
X0052831Y0042254D01*
X0052831Y0042264D02*
X0051739Y0042264D01*
X0051739Y0042274D02*
X0052831Y0042274D01*
X0052831Y0042284D02*
X0051739Y0042284D01*
X0051739Y0042294D02*
X0052831Y0042294D01*
X0052831Y0042304D02*
X0051739Y0042304D01*
X0051739Y0042314D02*
X0052831Y0042314D01*
X0052831Y0042324D02*
X0051739Y0042324D01*
X0051739Y0042334D02*
X0052831Y0042334D01*
X0052831Y0042344D02*
X0051739Y0042344D01*
X0051739Y0042354D02*
X0052831Y0042354D01*
X0052831Y0042364D02*
X0051739Y0042364D01*
X0051739Y0042374D02*
X0052831Y0042374D01*
X0052831Y0042384D02*
X0051739Y0042384D01*
X0051739Y0042394D02*
X0052831Y0042394D01*
X0052831Y0042404D02*
X0051739Y0042404D01*
X0051739Y0042414D02*
X0052831Y0042414D01*
X0052831Y0042424D02*
X0051739Y0042424D01*
X0051739Y0042434D02*
X0052831Y0042434D01*
X0052831Y0042444D02*
X0051739Y0042444D01*
X0051739Y0042454D02*
X0052831Y0042454D01*
X0052831Y0042464D02*
X0051739Y0042464D01*
X0051739Y0042474D02*
X0052831Y0042474D01*
X0052831Y0042484D02*
X0051739Y0042484D01*
X0051739Y0042494D02*
X0052831Y0042494D01*
X0052831Y0042504D02*
X0051739Y0042504D01*
X0051739Y0042514D02*
X0052831Y0042514D01*
X0052831Y0042524D02*
X0051739Y0042524D01*
X0051739Y0042534D02*
X0052831Y0042534D01*
X0052831Y0042544D02*
X0051739Y0042544D01*
X0050862Y0042552D02*
X0050862Y0039314D01*
X0049770Y0039314D01*
X0049770Y0042552D01*
X0050862Y0042552D01*
X0050862Y0039324D02*
X0049770Y0039324D01*
X0049770Y0039334D02*
X0050862Y0039334D01*
X0050862Y0039344D02*
X0049770Y0039344D01*
X0049770Y0039354D02*
X0050862Y0039354D01*
X0050862Y0039364D02*
X0049770Y0039364D01*
X0049770Y0039374D02*
X0050862Y0039374D01*
X0050862Y0039384D02*
X0049770Y0039384D01*
X0049770Y0039394D02*
X0050862Y0039394D01*
X0050862Y0039404D02*
X0049770Y0039404D01*
X0049770Y0039414D02*
X0050862Y0039414D01*
X0050862Y0039424D02*
X0049770Y0039424D01*
X0049770Y0039434D02*
X0050862Y0039434D01*
X0050862Y0039444D02*
X0049770Y0039444D01*
X0049770Y0039454D02*
X0050862Y0039454D01*
X0050862Y0039464D02*
X0049770Y0039464D01*
X0049770Y0039474D02*
X0050862Y0039474D01*
X0050862Y0039484D02*
X0049770Y0039484D01*
X0049770Y0039494D02*
X0050862Y0039494D01*
X0050862Y0039504D02*
X0049770Y0039504D01*
X0049770Y0039514D02*
X0050862Y0039514D01*
X0050862Y0039524D02*
X0049770Y0039524D01*
X0049770Y0039534D02*
X0050862Y0039534D01*
X0050862Y0039544D02*
X0049770Y0039544D01*
X0049770Y0039554D02*
X0050862Y0039554D01*
X0050862Y0039564D02*
X0049770Y0039564D01*
X0049770Y0039574D02*
X0050862Y0039574D01*
X0050862Y0039584D02*
X0049770Y0039584D01*
X0049770Y0039594D02*
X0050862Y0039594D01*
X0050862Y0039604D02*
X0049770Y0039604D01*
X0049770Y0039614D02*
X0050862Y0039614D01*
X0050862Y0039624D02*
X0049770Y0039624D01*
X0049770Y0039634D02*
X0050862Y0039634D01*
X0050862Y0039644D02*
X0049770Y0039644D01*
X0049770Y0039654D02*
X0050862Y0039654D01*
X0050862Y0039664D02*
X0049770Y0039664D01*
X0049770Y0039674D02*
X0050862Y0039674D01*
X0050862Y0039684D02*
X0049770Y0039684D01*
X0049770Y0039694D02*
X0050862Y0039694D01*
X0050862Y0039704D02*
X0049770Y0039704D01*
X0049770Y0039714D02*
X0050862Y0039714D01*
X0050862Y0039724D02*
X0049770Y0039724D01*
X0049770Y0039734D02*
X0050862Y0039734D01*
X0050862Y0039744D02*
X0049770Y0039744D01*
X0049770Y0039754D02*
X0050862Y0039754D01*
X0050862Y0039764D02*
X0049770Y0039764D01*
X0049770Y0039774D02*
X0050862Y0039774D01*
X0050862Y0039784D02*
X0049770Y0039784D01*
X0049770Y0039794D02*
X0050862Y0039794D01*
X0050862Y0039804D02*
X0049770Y0039804D01*
X0049770Y0039814D02*
X0050862Y0039814D01*
X0050862Y0039824D02*
X0049770Y0039824D01*
X0049770Y0039834D02*
X0050862Y0039834D01*
X0050862Y0039844D02*
X0049770Y0039844D01*
X0049770Y0039854D02*
X0050862Y0039854D01*
X0050862Y0039864D02*
X0049770Y0039864D01*
X0049770Y0039874D02*
X0050862Y0039874D01*
X0050862Y0039884D02*
X0049770Y0039884D01*
X0049770Y0039894D02*
X0050862Y0039894D01*
X0050862Y0039904D02*
X0049770Y0039904D01*
X0049770Y0039914D02*
X0050862Y0039914D01*
X0050862Y0039924D02*
X0049770Y0039924D01*
X0049770Y0039934D02*
X0050862Y0039934D01*
X0050862Y0039944D02*
X0049770Y0039944D01*
X0049770Y0039954D02*
X0050862Y0039954D01*
X0050862Y0039964D02*
X0049770Y0039964D01*
X0049770Y0039974D02*
X0050862Y0039974D01*
X0050862Y0039984D02*
X0049770Y0039984D01*
X0049770Y0039994D02*
X0050862Y0039994D01*
X0050862Y0040004D02*
X0049770Y0040004D01*
X0049770Y0040014D02*
X0050862Y0040014D01*
X0050862Y0040024D02*
X0049770Y0040024D01*
X0049770Y0040034D02*
X0050862Y0040034D01*
X0050862Y0040044D02*
X0049770Y0040044D01*
X0049770Y0040054D02*
X0050862Y0040054D01*
X0050862Y0040064D02*
X0049770Y0040064D01*
X0049770Y0040074D02*
X0050862Y0040074D01*
X0050862Y0040084D02*
X0049770Y0040084D01*
X0049770Y0040094D02*
X0050862Y0040094D01*
X0050862Y0040104D02*
X0049770Y0040104D01*
X0049770Y0040114D02*
X0050862Y0040114D01*
X0050862Y0040124D02*
X0049770Y0040124D01*
X0049770Y0040134D02*
X0050862Y0040134D01*
X0050862Y0040144D02*
X0049770Y0040144D01*
X0049770Y0040154D02*
X0050862Y0040154D01*
X0050862Y0040164D02*
X0049770Y0040164D01*
X0049770Y0040174D02*
X0050862Y0040174D01*
X0050862Y0040184D02*
X0049770Y0040184D01*
X0049770Y0040194D02*
X0050862Y0040194D01*
X0050862Y0040204D02*
X0049770Y0040204D01*
X0049770Y0040214D02*
X0050862Y0040214D01*
X0050862Y0040224D02*
X0049770Y0040224D01*
X0049770Y0040234D02*
X0050862Y0040234D01*
X0050862Y0040244D02*
X0049770Y0040244D01*
X0049770Y0040254D02*
X0050862Y0040254D01*
X0050862Y0040264D02*
X0049770Y0040264D01*
X0049770Y0040274D02*
X0050862Y0040274D01*
X0050862Y0040284D02*
X0049770Y0040284D01*
X0049770Y0040294D02*
X0050862Y0040294D01*
X0050862Y0040304D02*
X0049770Y0040304D01*
X0049770Y0040314D02*
X0050862Y0040314D01*
X0050862Y0040324D02*
X0049770Y0040324D01*
X0049770Y0040334D02*
X0050862Y0040334D01*
X0050862Y0040344D02*
X0049770Y0040344D01*
X0049770Y0040354D02*
X0050862Y0040354D01*
X0050862Y0040364D02*
X0049770Y0040364D01*
X0049770Y0040374D02*
X0050862Y0040374D01*
X0050862Y0040384D02*
X0049770Y0040384D01*
X0049770Y0040394D02*
X0050862Y0040394D01*
X0050862Y0040404D02*
X0049770Y0040404D01*
X0049770Y0040414D02*
X0050862Y0040414D01*
X0050862Y0040424D02*
X0049770Y0040424D01*
X0049770Y0040434D02*
X0050862Y0040434D01*
X0050862Y0040444D02*
X0049770Y0040444D01*
X0049770Y0040454D02*
X0050862Y0040454D01*
X0050862Y0040464D02*
X0049770Y0040464D01*
X0049770Y0040474D02*
X0050862Y0040474D01*
X0050862Y0040484D02*
X0049770Y0040484D01*
X0049770Y0040494D02*
X0050862Y0040494D01*
X0050862Y0040504D02*
X0049770Y0040504D01*
X0049770Y0040514D02*
X0050862Y0040514D01*
X0050862Y0040524D02*
X0049770Y0040524D01*
X0049770Y0040534D02*
X0050862Y0040534D01*
X0050862Y0040544D02*
X0049770Y0040544D01*
X0049770Y0040554D02*
X0050862Y0040554D01*
X0050862Y0040564D02*
X0049770Y0040564D01*
X0049770Y0040574D02*
X0050862Y0040574D01*
X0050862Y0040584D02*
X0049770Y0040584D01*
X0049770Y0040594D02*
X0050862Y0040594D01*
X0050862Y0040604D02*
X0049770Y0040604D01*
X0049770Y0040614D02*
X0050862Y0040614D01*
X0050862Y0040624D02*
X0049770Y0040624D01*
X0049770Y0040634D02*
X0050862Y0040634D01*
X0050862Y0040644D02*
X0049770Y0040644D01*
X0049770Y0040654D02*
X0050862Y0040654D01*
X0050862Y0040664D02*
X0049770Y0040664D01*
X0049770Y0040674D02*
X0050862Y0040674D01*
X0050862Y0040684D02*
X0049770Y0040684D01*
X0049770Y0040694D02*
X0050862Y0040694D01*
X0050862Y0040704D02*
X0049770Y0040704D01*
X0049770Y0040714D02*
X0050862Y0040714D01*
X0050862Y0040724D02*
X0049770Y0040724D01*
X0049770Y0040734D02*
X0050862Y0040734D01*
X0050862Y0040744D02*
X0049770Y0040744D01*
X0049770Y0040754D02*
X0050862Y0040754D01*
X0050862Y0040764D02*
X0049770Y0040764D01*
X0049770Y0040774D02*
X0050862Y0040774D01*
X0050862Y0040784D02*
X0049770Y0040784D01*
X0049770Y0040794D02*
X0050862Y0040794D01*
X0050862Y0040804D02*
X0049770Y0040804D01*
X0049770Y0040814D02*
X0050862Y0040814D01*
X0050862Y0040824D02*
X0049770Y0040824D01*
X0049770Y0040834D02*
X0050862Y0040834D01*
X0050862Y0040844D02*
X0049770Y0040844D01*
X0049770Y0040854D02*
X0050862Y0040854D01*
X0050862Y0040864D02*
X0049770Y0040864D01*
X0049770Y0040874D02*
X0050862Y0040874D01*
X0050862Y0040884D02*
X0049770Y0040884D01*
X0049770Y0040894D02*
X0050862Y0040894D01*
X0050862Y0040904D02*
X0049770Y0040904D01*
X0049770Y0040914D02*
X0050862Y0040914D01*
X0050862Y0040924D02*
X0049770Y0040924D01*
X0049770Y0040934D02*
X0050862Y0040934D01*
X0050862Y0040944D02*
X0049770Y0040944D01*
X0049770Y0040954D02*
X0050862Y0040954D01*
X0050862Y0040964D02*
X0049770Y0040964D01*
X0049770Y0040974D02*
X0050862Y0040974D01*
X0050862Y0040984D02*
X0049770Y0040984D01*
X0049770Y0040994D02*
X0050862Y0040994D01*
X0050862Y0041004D02*
X0049770Y0041004D01*
X0049770Y0041014D02*
X0050862Y0041014D01*
X0050862Y0041024D02*
X0049770Y0041024D01*
X0049770Y0041034D02*
X0050862Y0041034D01*
X0050862Y0041044D02*
X0049770Y0041044D01*
X0049770Y0041054D02*
X0050862Y0041054D01*
X0050862Y0041064D02*
X0049770Y0041064D01*
X0049770Y0041074D02*
X0050862Y0041074D01*
X0050862Y0041084D02*
X0049770Y0041084D01*
X0049770Y0041094D02*
X0050862Y0041094D01*
X0050862Y0041104D02*
X0049770Y0041104D01*
X0049770Y0041114D02*
X0050862Y0041114D01*
X0050862Y0041124D02*
X0049770Y0041124D01*
X0049770Y0041134D02*
X0050862Y0041134D01*
X0050862Y0041144D02*
X0049770Y0041144D01*
X0049770Y0041154D02*
X0050862Y0041154D01*
X0050862Y0041164D02*
X0049770Y0041164D01*
X0049770Y0041174D02*
X0050862Y0041174D01*
X0050862Y0041184D02*
X0049770Y0041184D01*
X0049770Y0041194D02*
X0050862Y0041194D01*
X0050862Y0041204D02*
X0049770Y0041204D01*
X0049770Y0041214D02*
X0050862Y0041214D01*
X0050862Y0041224D02*
X0049770Y0041224D01*
X0049770Y0041234D02*
X0050862Y0041234D01*
X0050862Y0041244D02*
X0049770Y0041244D01*
X0049770Y0041254D02*
X0050862Y0041254D01*
X0050862Y0041264D02*
X0049770Y0041264D01*
X0049770Y0041274D02*
X0050862Y0041274D01*
X0050862Y0041284D02*
X0049770Y0041284D01*
X0049770Y0041294D02*
X0050862Y0041294D01*
X0050862Y0041304D02*
X0049770Y0041304D01*
X0049770Y0041314D02*
X0050862Y0041314D01*
X0050862Y0041324D02*
X0049770Y0041324D01*
X0049770Y0041334D02*
X0050862Y0041334D01*
X0050862Y0041344D02*
X0049770Y0041344D01*
X0049770Y0041354D02*
X0050862Y0041354D01*
X0050862Y0041364D02*
X0049770Y0041364D01*
X0049770Y0041374D02*
X0050862Y0041374D01*
X0050862Y0041384D02*
X0049770Y0041384D01*
X0049770Y0041394D02*
X0050862Y0041394D01*
X0050862Y0041404D02*
X0049770Y0041404D01*
X0049770Y0041414D02*
X0050862Y0041414D01*
X0050862Y0041424D02*
X0049770Y0041424D01*
X0049770Y0041434D02*
X0050862Y0041434D01*
X0050862Y0041444D02*
X0049770Y0041444D01*
X0049770Y0041454D02*
X0050862Y0041454D01*
X0050862Y0041464D02*
X0049770Y0041464D01*
X0049770Y0041474D02*
X0050862Y0041474D01*
X0050862Y0041484D02*
X0049770Y0041484D01*
X0049770Y0041494D02*
X0050862Y0041494D01*
X0050862Y0041504D02*
X0049770Y0041504D01*
X0049770Y0041514D02*
X0050862Y0041514D01*
X0050862Y0041524D02*
X0049770Y0041524D01*
X0049770Y0041534D02*
X0050862Y0041534D01*
X0050862Y0041544D02*
X0049770Y0041544D01*
X0049770Y0041554D02*
X0050862Y0041554D01*
X0050862Y0041564D02*
X0049770Y0041564D01*
X0049770Y0041574D02*
X0050862Y0041574D01*
X0050862Y0041584D02*
X0049770Y0041584D01*
X0049770Y0041594D02*
X0050862Y0041594D01*
X0050862Y0041604D02*
X0049770Y0041604D01*
X0049770Y0041614D02*
X0050862Y0041614D01*
X0050862Y0041624D02*
X0049770Y0041624D01*
X0049770Y0041634D02*
X0050862Y0041634D01*
X0050862Y0041644D02*
X0049770Y0041644D01*
X0049770Y0041654D02*
X0050862Y0041654D01*
X0050862Y0041664D02*
X0049770Y0041664D01*
X0049770Y0041674D02*
X0050862Y0041674D01*
X0050862Y0041684D02*
X0049770Y0041684D01*
X0049770Y0041694D02*
X0050862Y0041694D01*
X0050862Y0041704D02*
X0049770Y0041704D01*
X0049770Y0041714D02*
X0050862Y0041714D01*
X0050862Y0041724D02*
X0049770Y0041724D01*
X0049770Y0041734D02*
X0050862Y0041734D01*
X0050862Y0041744D02*
X0049770Y0041744D01*
X0049770Y0041754D02*
X0050862Y0041754D01*
X0050862Y0041764D02*
X0049770Y0041764D01*
X0049770Y0041774D02*
X0050862Y0041774D01*
X0050862Y0041784D02*
X0049770Y0041784D01*
X0049770Y0041794D02*
X0050862Y0041794D01*
X0050862Y0041804D02*
X0049770Y0041804D01*
X0049770Y0041814D02*
X0050862Y0041814D01*
X0050862Y0041824D02*
X0049770Y0041824D01*
X0049770Y0041834D02*
X0050862Y0041834D01*
X0050862Y0041844D02*
X0049770Y0041844D01*
X0049770Y0041854D02*
X0050862Y0041854D01*
X0050862Y0041864D02*
X0049770Y0041864D01*
X0049770Y0041874D02*
X0050862Y0041874D01*
X0050862Y0041884D02*
X0049770Y0041884D01*
X0049770Y0041894D02*
X0050862Y0041894D01*
X0050862Y0041904D02*
X0049770Y0041904D01*
X0049770Y0041914D02*
X0050862Y0041914D01*
X0050862Y0041924D02*
X0049770Y0041924D01*
X0049770Y0041934D02*
X0050862Y0041934D01*
X0050862Y0041944D02*
X0049770Y0041944D01*
X0049770Y0041954D02*
X0050862Y0041954D01*
X0050862Y0041964D02*
X0049770Y0041964D01*
X0049770Y0041974D02*
X0050862Y0041974D01*
X0050862Y0041984D02*
X0049770Y0041984D01*
X0049770Y0041994D02*
X0050862Y0041994D01*
X0050862Y0042004D02*
X0049770Y0042004D01*
X0049770Y0042014D02*
X0050862Y0042014D01*
X0050862Y0042024D02*
X0049770Y0042024D01*
X0049770Y0042034D02*
X0050862Y0042034D01*
X0050862Y0042044D02*
X0049770Y0042044D01*
X0049770Y0042054D02*
X0050862Y0042054D01*
X0050862Y0042064D02*
X0049770Y0042064D01*
X0049770Y0042074D02*
X0050862Y0042074D01*
X0050862Y0042084D02*
X0049770Y0042084D01*
X0049770Y0042094D02*
X0050862Y0042094D01*
X0050862Y0042104D02*
X0049770Y0042104D01*
X0049770Y0042114D02*
X0050862Y0042114D01*
X0050862Y0042124D02*
X0049770Y0042124D01*
X0049770Y0042134D02*
X0050862Y0042134D01*
X0050862Y0042144D02*
X0049770Y0042144D01*
X0049770Y0042154D02*
X0050862Y0042154D01*
X0050862Y0042164D02*
X0049770Y0042164D01*
X0049770Y0042174D02*
X0050862Y0042174D01*
X0050862Y0042184D02*
X0049770Y0042184D01*
X0049770Y0042194D02*
X0050862Y0042194D01*
X0050862Y0042204D02*
X0049770Y0042204D01*
X0049770Y0042214D02*
X0050862Y0042214D01*
X0050862Y0042224D02*
X0049770Y0042224D01*
X0049770Y0042234D02*
X0050862Y0042234D01*
X0050862Y0042244D02*
X0049770Y0042244D01*
X0049770Y0042254D02*
X0050862Y0042254D01*
X0050862Y0042264D02*
X0049770Y0042264D01*
X0049770Y0042274D02*
X0050862Y0042274D01*
X0050862Y0042284D02*
X0049770Y0042284D01*
X0049770Y0042294D02*
X0050862Y0042294D01*
X0050862Y0042304D02*
X0049770Y0042304D01*
X0049770Y0042314D02*
X0050862Y0042314D01*
X0050862Y0042324D02*
X0049770Y0042324D01*
X0049770Y0042334D02*
X0050862Y0042334D01*
X0050862Y0042344D02*
X0049770Y0042344D01*
X0049770Y0042354D02*
X0050862Y0042354D01*
X0050862Y0042364D02*
X0049770Y0042364D01*
X0049770Y0042374D02*
X0050862Y0042374D01*
X0050862Y0042384D02*
X0049770Y0042384D01*
X0049770Y0042394D02*
X0050862Y0042394D01*
X0050862Y0042404D02*
X0049770Y0042404D01*
X0049770Y0042414D02*
X0050862Y0042414D01*
X0050862Y0042424D02*
X0049770Y0042424D01*
X0049770Y0042434D02*
X0050862Y0042434D01*
X0050862Y0042444D02*
X0049770Y0042444D01*
X0049770Y0042454D02*
X0050862Y0042454D01*
X0050862Y0042464D02*
X0049770Y0042464D01*
X0049770Y0042474D02*
X0050862Y0042474D01*
X0050862Y0042484D02*
X0049770Y0042484D01*
X0049770Y0042494D02*
X0050862Y0042494D01*
X0050862Y0042504D02*
X0049770Y0042504D01*
X0049770Y0042514D02*
X0050862Y0042514D01*
X0050862Y0042524D02*
X0049770Y0042524D01*
X0049770Y0042534D02*
X0050862Y0042534D01*
X0050862Y0042544D02*
X0049770Y0042544D01*
D16*
X0048903Y0017675D03*
X0039603Y0017675D03*
D17*
X0059553Y0016153D03*
X0059553Y0010247D03*
X0094826Y0052850D03*
X0100731Y0052850D03*
X0137478Y0119297D03*
X0142978Y0119197D03*
X0142978Y0125103D03*
X0137478Y0125203D03*
D18*
X0142878Y0033350D03*
X0144778Y0033350D03*
X0146778Y0033350D03*
X0148778Y0033350D03*
X0150778Y0033350D03*
X0152678Y0033350D03*
X0152678Y0025350D03*
X0150778Y0025350D03*
X0148778Y0025350D03*
X0146778Y0025350D03*
X0144778Y0025350D03*
X0142878Y0025350D03*
X0112578Y0025350D03*
X0110678Y0025350D03*
X0108678Y0025350D03*
X0106678Y0025350D03*
X0104678Y0025350D03*
X0102778Y0025350D03*
X0102778Y0033350D03*
X0104678Y0033350D03*
X0106678Y0033350D03*
X0108678Y0033350D03*
X0110678Y0033350D03*
X0112578Y0033350D03*
X0182778Y0033550D03*
X0184678Y0033550D03*
X0186678Y0033550D03*
X0188678Y0033550D03*
X0190678Y0033550D03*
X0192578Y0033550D03*
X0192578Y0025550D03*
X0190678Y0025550D03*
X0188678Y0025550D03*
X0186678Y0025550D03*
X0184678Y0025550D03*
X0182778Y0025550D03*
X0222878Y0025450D03*
X0224778Y0025450D03*
X0226778Y0025450D03*
X0228778Y0025450D03*
X0230778Y0025450D03*
X0232678Y0025450D03*
X0232678Y0033450D03*
X0230778Y0033450D03*
X0228778Y0033450D03*
X0226778Y0033450D03*
X0224778Y0033450D03*
X0222878Y0033450D03*
D19*
X0227778Y0029450D03*
X0187678Y0029550D03*
X0147778Y0029350D03*
X0107678Y0029350D03*
D20*
X0108978Y0017450D02*
X0108978Y0011450D01*
X0118978Y0011450D02*
X0118978Y0017450D01*
X0128978Y0017450D02*
X0128978Y0011450D01*
X0138978Y0011450D02*
X0138978Y0017450D01*
X0148978Y0017450D02*
X0148978Y0011450D01*
X0158978Y0011450D02*
X0158978Y0017450D01*
X0168978Y0017550D02*
X0168978Y0011550D01*
X0178978Y0011550D02*
X0178978Y0017550D01*
X0188978Y0017550D02*
X0188978Y0011550D01*
X0198978Y0011550D02*
X0198978Y0017550D01*
X0208978Y0017550D02*
X0208978Y0011550D01*
X0218978Y0011550D02*
X0218978Y0017550D01*
X0228978Y0017550D02*
X0228978Y0011550D01*
X0238978Y0011550D02*
X0238978Y0017550D01*
X0274478Y0036250D02*
X0280478Y0036250D01*
X0280478Y0046250D02*
X0274478Y0046250D01*
X0274478Y0056250D02*
X0280478Y0056250D01*
X0280478Y0066250D02*
X0274478Y0066250D01*
X0232478Y0083050D02*
X0226478Y0083050D01*
X0226478Y0093050D02*
X0232478Y0093050D01*
X0232478Y0103050D02*
X0226478Y0103050D01*
X0226478Y0113050D02*
X0232478Y0113050D01*
X0274478Y0136250D02*
X0280478Y0136250D01*
X0280478Y0146250D02*
X0274478Y0146250D01*
X0274478Y0156250D02*
X0280478Y0156250D01*
X0262078Y0158050D02*
X0262078Y0164050D01*
X0252078Y0164050D02*
X0252078Y0158050D01*
X0242078Y0158050D02*
X0242078Y0164050D01*
X0232078Y0164050D02*
X0232078Y0158050D01*
X0222078Y0158050D02*
X0222078Y0164050D01*
X0212078Y0164050D02*
X0212078Y0158050D01*
X0202078Y0158050D02*
X0202078Y0164050D01*
X0192078Y0164050D02*
X0192078Y0158050D01*
X0182078Y0158050D02*
X0182078Y0164050D01*
X0172078Y0164050D02*
X0172078Y0158050D01*
X0162078Y0158050D02*
X0162078Y0164050D01*
X0151978Y0164050D02*
X0151978Y0158050D01*
X0141978Y0158050D02*
X0141978Y0164050D01*
X0131978Y0164050D02*
X0131978Y0158050D01*
X0121978Y0158050D02*
X0121978Y0164050D01*
X0111978Y0164050D02*
X0111978Y0158050D01*
X0101978Y0158050D02*
X0101978Y0164050D01*
X0091978Y0164050D02*
X0091978Y0158050D01*
X0081978Y0158050D02*
X0081978Y0164050D01*
X0162678Y0145250D02*
X0168678Y0145250D01*
X0168678Y0135250D02*
X0162678Y0135250D01*
X0213978Y0062750D02*
X0219978Y0062750D01*
X0219978Y0052750D02*
X0213978Y0052750D01*
X0098978Y0017450D02*
X0098978Y0011450D01*
X0088978Y0011450D02*
X0088978Y0017450D01*
D21*
X0037731Y0136644D03*
X0035763Y0136644D03*
X0033794Y0136644D03*
X0031826Y0136644D03*
X0031826Y0148456D03*
X0033794Y0148456D03*
X0035763Y0148456D03*
X0037731Y0148456D03*
D22*
X0040684Y0145503D03*
X0040684Y0143534D03*
X0040684Y0141566D03*
X0040684Y0139597D03*
X0028873Y0139597D03*
X0028873Y0141566D03*
X0028873Y0143534D03*
X0028873Y0145503D03*
D23*
X0063057Y0091224D03*
X0065026Y0091224D03*
X0066994Y0091224D03*
X0068963Y0091224D03*
X0070931Y0091224D03*
X0072900Y0091224D03*
X0072900Y0075476D03*
X0070931Y0075476D03*
X0068963Y0075476D03*
X0066994Y0075476D03*
X0065026Y0075476D03*
X0063057Y0075476D03*
D24*
X0060203Y0078429D03*
X0060203Y0080397D03*
X0060203Y0082366D03*
X0060203Y0084334D03*
X0060203Y0086303D03*
X0060203Y0088271D03*
X0075754Y0088271D03*
X0075754Y0086303D03*
X0075754Y0084334D03*
X0075754Y0082366D03*
X0075754Y0080397D03*
X0075754Y0078429D03*
D25*
X0067978Y0083350D03*
D26*
X0140170Y0083150D03*
X0140170Y0081181D03*
X0140170Y0079213D03*
X0140170Y0077244D03*
X0140170Y0075276D03*
X0140170Y0073307D03*
X0140170Y0071339D03*
X0140170Y0069370D03*
X0140170Y0067402D03*
X0140170Y0065433D03*
X0140170Y0063465D03*
X0140170Y0061496D03*
X0140170Y0059528D03*
X0140170Y0085119D03*
X0140170Y0087087D03*
X0140170Y0089056D03*
X0140170Y0091024D03*
X0140170Y0092993D03*
X0140170Y0094961D03*
X0140170Y0096930D03*
X0140170Y0098898D03*
X0140170Y0100867D03*
X0140170Y0102835D03*
X0140170Y0104804D03*
X0140170Y0106772D03*
X0201587Y0106772D03*
X0201587Y0104804D03*
X0201587Y0102835D03*
X0201587Y0100867D03*
X0201587Y0098898D03*
X0201587Y0096930D03*
X0201587Y0094961D03*
X0201587Y0092993D03*
X0201587Y0091024D03*
X0201587Y0089056D03*
X0201587Y0087087D03*
X0201587Y0085119D03*
X0201587Y0083150D03*
X0201587Y0081181D03*
X0201587Y0079213D03*
X0201587Y0077244D03*
X0201587Y0075276D03*
X0201587Y0073307D03*
X0201587Y0071339D03*
X0201587Y0069370D03*
X0201587Y0067402D03*
X0201587Y0065433D03*
X0201587Y0063465D03*
X0201587Y0061496D03*
X0201587Y0059528D03*
D27*
X0194500Y0052441D03*
X0192532Y0052441D03*
X0190563Y0052441D03*
X0188595Y0052441D03*
X0186626Y0052441D03*
X0184658Y0052441D03*
X0182689Y0052441D03*
X0180721Y0052441D03*
X0178752Y0052441D03*
X0176784Y0052441D03*
X0174815Y0052441D03*
X0172847Y0052441D03*
X0170878Y0052441D03*
X0168910Y0052441D03*
X0166941Y0052441D03*
X0164973Y0052441D03*
X0163004Y0052441D03*
X0161036Y0052441D03*
X0159067Y0052441D03*
X0157099Y0052441D03*
X0155130Y0052441D03*
X0153162Y0052441D03*
X0151193Y0052441D03*
X0149225Y0052441D03*
X0147256Y0052441D03*
X0147256Y0113859D03*
X0149225Y0113859D03*
X0151193Y0113859D03*
X0153162Y0113859D03*
X0155130Y0113859D03*
X0157099Y0113859D03*
X0159067Y0113859D03*
X0161036Y0113859D03*
X0163004Y0113859D03*
X0164973Y0113859D03*
X0166941Y0113859D03*
X0168910Y0113859D03*
X0170878Y0113859D03*
X0172847Y0113859D03*
X0174815Y0113859D03*
X0176784Y0113859D03*
X0178752Y0113859D03*
X0180721Y0113859D03*
X0182689Y0113859D03*
X0184658Y0113859D03*
X0186626Y0113859D03*
X0188595Y0113859D03*
X0190563Y0113859D03*
X0192532Y0113859D03*
X0194500Y0113859D03*
D28*
X0127837Y0088850D03*
X0122719Y0088850D03*
X0122319Y0097050D03*
X0127437Y0097050D03*
X0127437Y0102050D03*
X0122319Y0102050D03*
X0122719Y0075250D03*
X0127837Y0075250D03*
D29*
X0128619Y0080300D03*
X0128619Y0084000D03*
D30*
X0106060Y0082150D03*
D31*
X0242578Y0079450D03*
X0247578Y0079450D03*
X0252578Y0079450D03*
X0257578Y0079450D03*
X0257578Y0111300D03*
X0252578Y0111300D03*
X0247578Y0111300D03*
X0242578Y0111300D03*
D32*
X0029478Y0090250D03*
X0019478Y0090250D03*
X0019478Y0080250D03*
X0029478Y0080250D03*
X0029553Y0070175D03*
X0019553Y0070175D03*
X0019553Y0060175D03*
X0029553Y0060175D03*
X0029553Y0050175D03*
X0019553Y0050175D03*
X0019553Y0040175D03*
X0029553Y0040175D03*
X0029553Y0030175D03*
X0019553Y0030175D03*
X0019553Y0020175D03*
X0029553Y0020175D03*
X0029553Y0010175D03*
X0019553Y0010175D03*
D33*
X0049243Y0104211D03*
X0049243Y0106770D03*
X0049243Y0109330D03*
X0049243Y0111889D03*
X0057314Y0111889D03*
X0057314Y0109330D03*
X0057314Y0106770D03*
X0057314Y0104211D03*
D34*
X0040684Y0145503D02*
X0043178Y0147997D01*
X0043178Y0153004D01*
X0039078Y0151950D02*
X0037731Y0150603D01*
X0037731Y0148456D01*
X0035978Y0148671D02*
X0035978Y0151450D01*
X0036678Y0152950D01*
X0036678Y0156950D01*
X0035125Y0156950D01*
X0031678Y0153750D02*
X0031726Y0160650D01*
X0042225Y0160650D01*
X0042285Y0160648D01*
X0042345Y0160642D01*
X0042404Y0160633D01*
X0042462Y0160620D01*
X0042520Y0160603D01*
X0042576Y0160583D01*
X0042631Y0160559D01*
X0042685Y0160532D01*
X0042736Y0160501D01*
X0042786Y0160468D01*
X0042833Y0160431D01*
X0042878Y0160391D01*
X0042920Y0160349D01*
X0042960Y0160304D01*
X0042997Y0160257D01*
X0043030Y0160207D01*
X0043061Y0160156D01*
X0043088Y0160102D01*
X0043112Y0160047D01*
X0043132Y0159991D01*
X0043149Y0159933D01*
X0043162Y0159875D01*
X0043171Y0159816D01*
X0043177Y0159756D01*
X0043179Y0159696D01*
X0031678Y0153750D02*
X0031378Y0153050D01*
X0031378Y0150550D01*
X0031826Y0148456D01*
X0035763Y0148456D02*
X0035978Y0148671D01*
X0107678Y0029350D02*
X0107678Y0029150D01*
X0112478Y0029150D01*
X0187678Y0029550D02*
X0188078Y0029250D01*
X0192278Y0029250D01*
X0227778Y0029450D02*
X0227978Y0029250D01*
X0232778Y0025650D02*
X0232678Y0025450D01*
D35*
X0029553Y0050175D02*
X0019553Y0050175D01*
X0019553Y0060175D02*
X0029553Y0060175D01*
D36*
X0039878Y0047050D02*
X0045907Y0047050D01*
X0045907Y0047675D01*
X0052285Y0047675D02*
X0052600Y0047675D01*
X0052600Y0048650D01*
X0056878Y0048650D01*
X0056222Y0045800D02*
X0076128Y0045800D01*
X0076128Y0039550D01*
X0081128Y0039550D01*
X0079481Y0037675D02*
X0079717Y0037439D01*
X0080633Y0037059D01*
X0081624Y0037059D01*
X0081753Y0037113D01*
X0081753Y0031425D01*
X0062425Y0031425D01*
X0062089Y0031761D01*
X0061174Y0032141D01*
X0060183Y0032141D01*
X0059926Y0032034D01*
X0059413Y0032205D01*
X0059287Y0032331D01*
X0059297Y0032341D01*
X0059297Y0034072D01*
X0058194Y0035175D01*
X0059297Y0036278D01*
X0059297Y0037675D01*
X0079481Y0037675D01*
X0081753Y0037005D02*
X0059297Y0037005D01*
X0059026Y0036007D02*
X0081753Y0036007D01*
X0081753Y0035008D02*
X0058361Y0035008D01*
X0059297Y0034010D02*
X0081753Y0034010D01*
X0081753Y0033011D02*
X0059297Y0033011D01*
X0061482Y0032013D02*
X0081753Y0032013D01*
X0081753Y0028300D02*
X0062815Y0028300D01*
X0062790Y0028239D01*
X0062378Y0027828D01*
X0062378Y0024550D01*
X0056128Y0024550D01*
X0056128Y0030175D01*
X0054253Y0030175D01*
X0054253Y0021425D01*
X0061331Y0021425D01*
X0061867Y0021961D01*
X0062783Y0022341D01*
X0063774Y0022341D01*
X0064689Y0021961D01*
X0065000Y0021650D01*
X0068124Y0021650D01*
X0068349Y0021425D01*
X0069731Y0021425D01*
X0069867Y0021561D01*
X0070783Y0021941D01*
X0071774Y0021941D01*
X0072689Y0021561D01*
X0072825Y0021425D01*
X0081753Y0021425D01*
X0081753Y0028300D01*
X0081753Y0028019D02*
X0062569Y0028019D01*
X0062378Y0027020D02*
X0081753Y0027020D01*
X0081753Y0026022D02*
X0062378Y0026022D01*
X0062378Y0025023D02*
X0081753Y0025023D01*
X0081753Y0024025D02*
X0054253Y0024025D01*
X0054253Y0025023D02*
X0056128Y0025023D01*
X0056128Y0026022D02*
X0054253Y0026022D01*
X0054253Y0027020D02*
X0056128Y0027020D01*
X0056128Y0028019D02*
X0054253Y0028019D01*
X0054253Y0029017D02*
X0056128Y0029017D01*
X0056128Y0030016D02*
X0054253Y0030016D01*
X0052378Y0030016D02*
X0049799Y0030016D01*
X0049878Y0030175D02*
X0052378Y0030175D01*
X0052378Y0011425D01*
X0047378Y0011425D01*
X0047378Y0025175D01*
X0049878Y0030175D01*
X0049299Y0029017D02*
X0052378Y0029017D01*
X0052378Y0028019D02*
X0048800Y0028019D01*
X0048301Y0027020D02*
X0052378Y0027020D01*
X0052378Y0026022D02*
X0047802Y0026022D01*
X0047378Y0025023D02*
X0052378Y0025023D01*
X0052378Y0024025D02*
X0047378Y0024025D01*
X0047378Y0023026D02*
X0052378Y0023026D01*
X0052378Y0022028D02*
X0047378Y0022028D01*
X0047378Y0021029D02*
X0052378Y0021029D01*
X0052378Y0020031D02*
X0047378Y0020031D01*
X0047378Y0019032D02*
X0052378Y0019032D01*
X0052378Y0018034D02*
X0047378Y0018034D01*
X0047378Y0017035D02*
X0052378Y0017035D01*
X0052378Y0016037D02*
X0047378Y0016037D01*
X0047378Y0015038D02*
X0052378Y0015038D01*
X0052378Y0014040D02*
X0047378Y0014040D01*
X0047378Y0013041D02*
X0052378Y0013041D01*
X0052378Y0012043D02*
X0047378Y0012043D01*
X0055103Y0009947D02*
X0055303Y0016153D01*
X0059553Y0016153D01*
X0063278Y0019850D02*
X0067378Y0019850D01*
X0067378Y0015971D01*
X0071278Y0019450D02*
X0075078Y0019450D01*
X0075078Y0015896D01*
X0075078Y0009204D02*
X0081978Y0009204D01*
X0081978Y0019750D01*
X0081753Y0022028D02*
X0064529Y0022028D01*
X0062028Y0022028D02*
X0054253Y0022028D01*
X0054253Y0023026D02*
X0081753Y0023026D01*
X0096825Y0031850D02*
X0096825Y0031950D01*
X0102778Y0033350D02*
X0104678Y0033350D01*
X0104678Y0044650D01*
X0104674Y0044685D01*
X0104675Y0044719D01*
X0104678Y0044754D01*
X0104685Y0044788D01*
X0104695Y0044821D01*
X0104709Y0044853D01*
X0104725Y0044884D01*
X0104745Y0044912D01*
X0104767Y0044939D01*
X0104792Y0044964D01*
X0104819Y0044985D01*
X0104848Y0045005D01*
X0104878Y0045021D01*
X0104911Y0045034D01*
X0104944Y0045044D01*
X0104978Y0045050D01*
X0136278Y0045050D01*
X0135678Y0045850D01*
X0136078Y0047850D01*
X0136078Y0061450D01*
X0140170Y0061450D01*
X0140170Y0061496D01*
X0140170Y0059528D02*
X0138478Y0059528D01*
X0138478Y0043050D01*
X0106678Y0043050D01*
X0106678Y0033350D01*
X0108678Y0033350D02*
X0108678Y0041050D01*
X0140278Y0041050D01*
X0140278Y0047650D01*
X0147256Y0047650D01*
X0147256Y0052441D01*
X0149225Y0052441D02*
X0149225Y0045850D01*
X0142078Y0045850D01*
X0142078Y0038850D01*
X0139878Y0038850D01*
X0110678Y0039050D01*
X0110678Y0033350D01*
X0112578Y0033350D02*
X0112578Y0037050D01*
X0144078Y0037050D01*
X0144078Y0044050D01*
X0151193Y0044050D01*
X0151193Y0052441D01*
X0147378Y0059550D02*
X0163004Y0059550D01*
X0163004Y0052441D01*
X0164973Y0052441D02*
X0164973Y0064550D01*
X0147378Y0064550D01*
X0140170Y0063465D02*
X0132478Y0063465D01*
X0132478Y0046850D01*
X0089878Y0046850D01*
X0089878Y0052850D01*
X0065878Y0052850D01*
X0065478Y0052650D01*
X0056222Y0045800D02*
X0056222Y0040933D01*
X0058190Y0040933D02*
X0063407Y0040933D01*
X0063407Y0041425D01*
X0070100Y0041425D02*
X0071753Y0041425D01*
X0072953Y0033521D01*
X0060678Y0029650D02*
X0058423Y0029650D01*
X0058190Y0029417D01*
X0049210Y0032646D02*
X0049210Y0034072D01*
X0050313Y0035175D01*
X0049210Y0036278D01*
X0049210Y0036382D01*
X0046753Y0033925D01*
X0043003Y0033925D01*
X0043003Y0030175D01*
X0045503Y0030175D01*
X0049210Y0032646D01*
X0049210Y0033011D02*
X0043003Y0033011D01*
X0043003Y0032013D02*
X0048260Y0032013D01*
X0046762Y0031014D02*
X0043003Y0031014D01*
X0043628Y0032050D02*
X0043628Y0028300D01*
X0039253Y0028019D02*
X0034253Y0028019D01*
X0034253Y0029017D02*
X0039253Y0029017D01*
X0039253Y0030016D02*
X0034253Y0030016D01*
X0034253Y0031014D02*
X0039253Y0031014D01*
X0039253Y0032013D02*
X0034253Y0032013D01*
X0034253Y0033011D02*
X0039253Y0033011D01*
X0039253Y0034010D02*
X0034253Y0034010D01*
X0034253Y0035008D02*
X0039253Y0035008D01*
X0039253Y0036007D02*
X0034253Y0036007D01*
X0034253Y0037005D02*
X0039253Y0037005D01*
X0039253Y0038004D02*
X0034253Y0038004D01*
X0034253Y0039002D02*
X0039253Y0039002D01*
X0039253Y0040001D02*
X0034253Y0040001D01*
X0034253Y0040175D02*
X0039253Y0040175D01*
X0039253Y0011425D01*
X0034253Y0011425D01*
X0034253Y0040175D01*
X0044253Y0038521D02*
X0050316Y0040933D01*
X0052285Y0040933D02*
X0052285Y0047675D01*
X0049481Y0036007D02*
X0048835Y0036007D01*
X0047837Y0035008D02*
X0050146Y0035008D01*
X0049210Y0034010D02*
X0046838Y0034010D01*
X0039253Y0027020D02*
X0034253Y0027020D01*
X0034253Y0026022D02*
X0039253Y0026022D01*
X0039253Y0025023D02*
X0034253Y0025023D01*
X0034253Y0024025D02*
X0039253Y0024025D01*
X0039253Y0023026D02*
X0034253Y0023026D01*
X0034253Y0022028D02*
X0039253Y0022028D01*
X0039253Y0021029D02*
X0034253Y0021029D01*
X0034253Y0020031D02*
X0039253Y0020031D01*
X0039253Y0019032D02*
X0034253Y0019032D01*
X0034253Y0018034D02*
X0039253Y0018034D01*
X0039253Y0017035D02*
X0034253Y0017035D01*
X0034253Y0016037D02*
X0039253Y0016037D01*
X0039253Y0015038D02*
X0034253Y0015038D01*
X0034253Y0014040D02*
X0039253Y0014040D01*
X0039253Y0013041D02*
X0034253Y0013041D01*
X0034253Y0012043D02*
X0039253Y0012043D01*
X0059553Y0010247D02*
X0060553Y0009279D01*
X0067378Y0009279D01*
X0112578Y0025350D02*
X0112578Y0029050D01*
X0112576Y0029067D01*
X0112572Y0029084D01*
X0112565Y0029100D01*
X0112555Y0029114D01*
X0112542Y0029127D01*
X0112528Y0029137D01*
X0112512Y0029144D01*
X0112495Y0029148D01*
X0112478Y0029150D01*
X0124878Y0024104D02*
X0138778Y0024104D01*
X0138778Y0024300D01*
X0135478Y0033450D02*
X0142878Y0033350D01*
X0146778Y0033350D02*
X0146792Y0033367D01*
X0146804Y0033386D01*
X0146812Y0033406D01*
X0146817Y0033428D01*
X0146819Y0033450D01*
X0146817Y0033472D01*
X0146812Y0033494D01*
X0146804Y0033514D01*
X0146792Y0033533D01*
X0146778Y0033550D01*
X0146778Y0042250D01*
X0178752Y0042250D01*
X0178752Y0052441D01*
X0180721Y0052441D02*
X0180721Y0040250D01*
X0148778Y0040250D01*
X0148778Y0033350D01*
X0150778Y0033350D02*
X0150778Y0038050D01*
X0182689Y0038050D01*
X0182689Y0052441D01*
X0184658Y0052441D02*
X0184658Y0036250D01*
X0152678Y0036150D01*
X0152778Y0033350D01*
X0152678Y0033350D01*
X0153278Y0029450D02*
X0159528Y0029450D01*
X0153278Y0029450D02*
X0153231Y0029448D01*
X0153184Y0029443D01*
X0153138Y0029433D01*
X0153093Y0029421D01*
X0153048Y0029404D01*
X0153006Y0029385D01*
X0152965Y0029362D01*
X0152925Y0029335D01*
X0152888Y0029306D01*
X0152854Y0029274D01*
X0152822Y0029240D01*
X0152793Y0029203D01*
X0152766Y0029163D01*
X0152743Y0029122D01*
X0152724Y0029080D01*
X0152707Y0029035D01*
X0152695Y0028990D01*
X0152685Y0028944D01*
X0152680Y0028897D01*
X0152678Y0028850D01*
X0152678Y0025350D01*
X0165478Y0024104D02*
X0170978Y0024104D01*
X0170978Y0025750D01*
X0178578Y0025750D01*
X0178591Y0025752D01*
X0178603Y0025757D01*
X0178613Y0025765D01*
X0178621Y0025775D01*
X0178626Y0025787D01*
X0178628Y0025800D01*
X0178878Y0033450D02*
X0180778Y0033450D01*
X0182778Y0033550D01*
X0184678Y0033550D01*
X0186678Y0033550D02*
X0186678Y0047841D01*
X0186626Y0052441D01*
X0188595Y0052441D02*
X0188678Y0047841D01*
X0188678Y0033550D01*
X0190678Y0033550D02*
X0190678Y0047841D01*
X0190563Y0052441D01*
X0192532Y0052441D02*
X0192578Y0047841D01*
X0192578Y0033550D01*
X0192689Y0033550D01*
X0194500Y0036250D02*
X0194500Y0052441D01*
X0205978Y0051350D02*
X0211278Y0046050D01*
X0222478Y0046050D01*
X0223578Y0047150D01*
X0226778Y0038050D02*
X0226778Y0033450D01*
X0226778Y0069370D01*
X0201587Y0069370D01*
X0201587Y0071339D02*
X0228778Y0071339D01*
X0228778Y0033450D01*
X0230778Y0033450D02*
X0230778Y0073307D01*
X0201587Y0073307D01*
X0201587Y0075276D02*
X0232678Y0075276D01*
X0232678Y0033450D01*
X0232728Y0029550D02*
X0227878Y0029550D01*
X0227861Y0029548D01*
X0227844Y0029544D01*
X0227828Y0029537D01*
X0227814Y0029527D01*
X0227801Y0029514D01*
X0227791Y0029500D01*
X0227784Y0029484D01*
X0227780Y0029467D01*
X0227778Y0029450D01*
X0232678Y0029500D02*
X0232678Y0025450D01*
X0232678Y0029500D02*
X0232680Y0029513D01*
X0232685Y0029525D01*
X0232693Y0029535D01*
X0232703Y0029543D01*
X0232715Y0029548D01*
X0232728Y0029550D01*
X0224778Y0033450D02*
X0222878Y0033450D01*
X0222878Y0036250D01*
X0197078Y0036250D01*
X0197078Y0033450D01*
X0196878Y0033450D01*
X0196878Y0036250D01*
X0194500Y0036250D01*
X0192578Y0028950D02*
X0192578Y0025550D01*
X0192578Y0028950D02*
X0192576Y0028984D01*
X0192570Y0029017D01*
X0192561Y0029049D01*
X0192548Y0029080D01*
X0192532Y0029110D01*
X0192513Y0029137D01*
X0192490Y0029162D01*
X0192465Y0029185D01*
X0192438Y0029204D01*
X0192408Y0029220D01*
X0192377Y0029233D01*
X0192345Y0029242D01*
X0192312Y0029248D01*
X0192278Y0029250D01*
X0205078Y0024104D02*
X0210378Y0024104D01*
X0210378Y0025750D01*
X0213878Y0025750D01*
X0213878Y0025800D01*
X0222878Y0025800D01*
X0222878Y0025450D01*
X0239678Y0047150D02*
X0247878Y0047150D01*
X0266378Y0065650D01*
X0276878Y0065650D01*
X0277478Y0066250D01*
X0247578Y0072250D02*
X0236878Y0072250D01*
X0236878Y0083050D01*
X0229478Y0083050D01*
X0229478Y0086850D01*
X0221078Y0086850D01*
X0221078Y0092993D01*
X0201587Y0092993D01*
X0201587Y0098898D02*
X0220678Y0098898D01*
X0224078Y0093050D01*
X0229478Y0093050D01*
X0226278Y0100867D02*
X0226278Y0103050D01*
X0229478Y0103050D01*
X0226278Y0100867D02*
X0201587Y0100867D01*
X0201587Y0102835D02*
X0220878Y0102835D01*
X0220878Y0113050D01*
X0229478Y0113050D01*
X0252078Y0133650D02*
X0252078Y0161050D01*
X0262078Y0161050D02*
X0262078Y0130650D01*
X0194500Y0130650D01*
X0194500Y0113859D01*
X0192532Y0113859D02*
X0192532Y0133650D01*
X0252078Y0133650D01*
X0242078Y0136450D02*
X0242078Y0161050D01*
X0232078Y0161050D02*
X0232078Y0139450D01*
X0188595Y0139450D01*
X0188595Y0113859D01*
X0190563Y0113859D02*
X0190563Y0136450D01*
X0242078Y0136450D01*
X0222078Y0142250D02*
X0222078Y0161050D01*
X0212278Y0161050D02*
X0212278Y0159050D01*
X0211878Y0159050D01*
X0211878Y0144650D01*
X0184658Y0144650D01*
X0184658Y0113859D01*
X0186626Y0113859D02*
X0186626Y0142250D01*
X0222078Y0142250D01*
X0202078Y0147250D02*
X0202078Y0161050D01*
X0211078Y0159050D02*
X0211878Y0159050D01*
X0212078Y0161050D02*
X0212278Y0161050D01*
X0192078Y0161050D02*
X0191278Y0161050D01*
X0191278Y0150250D01*
X0180721Y0150250D01*
X0180721Y0113859D01*
X0182689Y0113859D02*
X0182689Y0147250D01*
X0202078Y0147250D01*
X0181878Y0157050D02*
X0181878Y0161050D01*
X0182078Y0161050D01*
X0181878Y0157050D02*
X0178752Y0157050D01*
X0178752Y0113859D01*
X0176784Y0113859D02*
X0176784Y0157250D01*
X0171678Y0157250D01*
X0171878Y0161050D01*
X0172078Y0161050D01*
X0168278Y0152450D02*
X0162078Y0156650D01*
X0162078Y0161050D01*
X0168278Y0152450D02*
X0174815Y0152450D01*
X0174815Y0113859D01*
X0155130Y0113859D02*
X0155130Y0145250D01*
X0165678Y0145250D01*
X0142978Y0134504D02*
X0142978Y0125103D01*
X0137478Y0125203D02*
X0137478Y0133704D01*
X0136778Y0134404D01*
X0133878Y0129650D02*
X0111978Y0151550D01*
X0111978Y0161050D01*
X0103878Y0159150D02*
X0103878Y0156050D01*
X0131678Y0128250D01*
X0131678Y0113650D01*
X0135878Y0109450D01*
X0135878Y0104804D01*
X0140170Y0104804D01*
X0140170Y0106772D02*
X0137878Y0106772D01*
X0137878Y0111650D01*
X0133878Y0115650D01*
X0133878Y0129650D01*
X0129078Y0123950D02*
X0091978Y0161050D01*
X0082078Y0160950D02*
X0081978Y0161050D01*
X0081678Y0160750D01*
X0081678Y0158250D01*
X0089478Y0150450D01*
X0095878Y0150450D01*
X0124678Y0121850D01*
X0124678Y0112850D01*
X0131978Y0105550D01*
X0131978Y0100867D01*
X0140170Y0100867D01*
X0140170Y0102835D02*
X0133878Y0102835D01*
X0133878Y0107650D01*
X0129078Y0112450D01*
X0129078Y0123950D01*
X0137478Y0119297D02*
X0139878Y0116897D01*
X0139878Y0112650D01*
X0145478Y0107050D01*
X0145478Y0091024D01*
X0140170Y0091024D01*
X0140170Y0089056D02*
X0147678Y0089056D01*
X0147678Y0107850D01*
X0143078Y0112450D01*
X0143078Y0118050D01*
X0127437Y0102050D02*
X0127437Y0097050D01*
X0127437Y0094550D01*
X0134878Y0094550D01*
X0134878Y0087050D01*
X0140170Y0087050D01*
X0140170Y0087087D01*
X0140170Y0085119D02*
X0144878Y0085119D01*
X0144878Y0079250D01*
X0138678Y0079250D01*
X0140170Y0079213D02*
X0134078Y0079213D01*
X0134078Y0079250D01*
X0131478Y0076650D01*
X0131478Y0071850D01*
X0122678Y0071850D01*
X0122678Y0075250D01*
X0122719Y0075250D01*
X0122719Y0088850D01*
X0122719Y0092450D01*
X0131878Y0092450D01*
X0131878Y0087250D01*
X0134010Y0085119D01*
X0140170Y0085119D01*
X0140170Y0083150D02*
X0129470Y0083150D01*
X0128619Y0084000D01*
X0127837Y0084782D01*
X0127837Y0088850D01*
X0122678Y0092450D02*
X0122678Y0097050D01*
X0122319Y0097050D01*
X0122319Y0102050D02*
X0117378Y0102050D01*
X0104878Y0087050D02*
X0104878Y0083332D01*
X0106060Y0082150D01*
X0127837Y0079518D02*
X0127837Y0075250D01*
X0127837Y0079518D02*
X0128619Y0080300D01*
X0129501Y0081181D01*
X0140170Y0081181D01*
X0120878Y0063863D02*
X0120878Y0063396D01*
X0107378Y0064550D02*
X0059878Y0064550D01*
X0060378Y0064950D01*
X0063057Y0077429D02*
X0064078Y0078450D01*
X0064478Y0088050D02*
X0063257Y0088829D01*
X0063057Y0091224D01*
X0023825Y0099450D02*
X0020478Y0102796D01*
X0020478Y0113850D01*
X0082078Y0160950D02*
X0081878Y0164250D01*
X0101978Y0161050D02*
X0103878Y0159150D01*
X0247578Y0079450D02*
X0247578Y0072250D01*
X0205978Y0061496D02*
X0205978Y0051350D01*
X0205978Y0061496D02*
X0201587Y0061496D01*
X0173175Y0046000D02*
X0170878Y0046000D01*
X0170878Y0052441D01*
X0168910Y0052441D02*
X0168910Y0046000D01*
X0166482Y0046000D01*
X0166482Y0046150D01*
X0161578Y0046150D01*
X0168910Y0052441D02*
X0168910Y0054050D01*
X0120878Y0053037D02*
X0120092Y0052250D01*
X0113425Y0052250D01*
X0106732Y0052250D02*
X0106132Y0052850D01*
X0100731Y0052850D01*
X0094826Y0052850D02*
X0094826Y0059403D01*
X0094678Y0059550D01*
D37*
X0112478Y0068450D02*
X0056478Y0068450D01*
X0055878Y0069050D01*
X0055878Y0070175D01*
X0029553Y0070175D01*
X0030378Y0070200D01*
X0029478Y0070200D01*
X0029478Y0080250D01*
X0029478Y0080850D01*
X0034678Y0086050D01*
X0034678Y0097796D01*
X0029352Y0103123D01*
X0038117Y0111889D01*
X0049243Y0111889D01*
X0049243Y0109330D02*
X0041358Y0109330D01*
X0035278Y0103250D01*
X0029352Y0103123D02*
X0023825Y0108650D01*
X0023825Y0128644D01*
X0031826Y0136644D01*
X0033794Y0136644D02*
X0033794Y0133334D01*
X0034478Y0132650D01*
X0034278Y0132650D02*
X0034278Y0132850D01*
X0037731Y0132850D01*
X0037731Y0127044D01*
X0037825Y0126950D01*
X0031132Y0126950D02*
X0031132Y0122450D01*
X0032878Y0121650D01*
X0020478Y0113850D02*
X0020478Y0131203D01*
X0028873Y0139597D01*
X0028873Y0145503D02*
X0024278Y0145503D01*
X0024278Y0145250D01*
X0033794Y0148456D02*
X0033794Y0152166D01*
X0033878Y0152450D01*
X0039078Y0151950D02*
X0039125Y0151996D01*
X0028432Y0156950D02*
X0025132Y0157050D01*
X0023478Y0157450D01*
X0037731Y0136644D02*
X0037731Y0132850D01*
X0064178Y0116196D02*
X0064378Y0115650D01*
X0059078Y0115650D01*
X0057314Y0115650D01*
X0057314Y0111889D01*
X0057314Y0109330D02*
X0054158Y0109330D01*
X0051678Y0106850D01*
X0049322Y0106850D01*
X0049243Y0106770D01*
X0049243Y0104211D02*
X0049243Y0101650D01*
X0052678Y0101650D01*
X0052678Y0103650D01*
X0055799Y0106770D01*
X0057314Y0106770D01*
X0057314Y0104211D02*
X0061878Y0104211D01*
X0061878Y0109330D01*
X0063057Y0094450D02*
X0059478Y0094450D01*
X0053678Y0094450D01*
X0053678Y0093096D01*
X0063057Y0094450D02*
X0063057Y0091224D01*
X0064478Y0088050D02*
X0067878Y0088050D01*
X0069878Y0086050D01*
X0069878Y0086303D01*
X0075754Y0086303D01*
X0075754Y0084334D02*
X0081848Y0084334D01*
X0081932Y0084250D01*
X0078385Y0080397D02*
X0075754Y0080397D01*
X0075807Y0080450D01*
X0096878Y0080450D01*
X0097278Y0080850D01*
X0097278Y0101499D01*
X0088625Y0091050D02*
X0088625Y0084250D01*
X0088625Y0087396D01*
X0088678Y0087450D01*
X0093678Y0087450D01*
X0081932Y0091050D02*
X0073074Y0091050D01*
X0072900Y0091224D01*
X0069878Y0086050D02*
X0069878Y0083250D01*
X0069778Y0083350D01*
X0067978Y0083350D01*
X0064078Y0079450D01*
X0064078Y0078450D01*
X0063057Y0077429D02*
X0063057Y0075476D01*
X0060203Y0078429D02*
X0060203Y0071250D01*
X0059578Y0071250D01*
X0055878Y0070175D02*
X0055878Y0080397D01*
X0060203Y0080397D01*
X0060203Y0086303D02*
X0053779Y0086303D01*
X0053678Y0086404D01*
X0069878Y0083250D02*
X0069878Y0082450D01*
X0069963Y0082366D01*
X0075754Y0082366D01*
X0078385Y0080397D02*
X0082132Y0076650D01*
X0088825Y0076650D02*
X0093678Y0076650D01*
X0093878Y0076450D01*
X0120878Y0056704D02*
X0120878Y0053037D01*
X0120978Y0052150D02*
X0128178Y0052150D01*
X0128278Y0052150D01*
X0128278Y0056704D01*
X0120878Y0056704D01*
X0128278Y0063396D02*
X0128278Y0066550D01*
X0135278Y0066550D01*
X0135278Y0077244D01*
X0140170Y0077244D01*
X0170878Y0077244D01*
X0170878Y0077250D01*
X0192878Y0077250D01*
X0192878Y0085119D01*
X0201587Y0085119D01*
X0209832Y0085119D01*
X0209832Y0086650D01*
X0216525Y0086650D02*
X0216525Y0083150D01*
X0220678Y0083150D01*
X0220678Y0079750D01*
X0216525Y0079750D01*
X0216525Y0083150D02*
X0201587Y0083150D01*
X0201587Y0081181D02*
X0208400Y0081181D01*
X0208475Y0081179D01*
X0208550Y0081173D01*
X0208624Y0081163D01*
X0208698Y0081150D01*
X0208770Y0081132D01*
X0208842Y0081111D01*
X0208913Y0081086D01*
X0208982Y0081057D01*
X0209050Y0081025D01*
X0209116Y0080989D01*
X0209179Y0080950D01*
X0209241Y0080908D01*
X0209301Y0080862D01*
X0209358Y0080813D01*
X0209412Y0080762D01*
X0209463Y0080708D01*
X0209512Y0080651D01*
X0209558Y0080591D01*
X0209600Y0080529D01*
X0209639Y0080466D01*
X0209675Y0080400D01*
X0209707Y0080332D01*
X0209736Y0080263D01*
X0209761Y0080192D01*
X0209782Y0080120D01*
X0209800Y0080048D01*
X0209813Y0079974D01*
X0209823Y0079900D01*
X0209829Y0079825D01*
X0209831Y0079750D01*
X0214295Y0065433D02*
X0201587Y0065433D01*
X0201587Y0063465D02*
X0206863Y0063465D01*
X0208378Y0061950D01*
X0208378Y0052750D01*
X0216978Y0052750D01*
X0216978Y0062750D02*
X0214295Y0065433D01*
X0242578Y0079450D02*
X0242578Y0100650D01*
X0231278Y0100650D01*
X0231278Y0103050D01*
X0229478Y0103050D01*
X0218878Y0106772D02*
X0201587Y0106772D01*
X0198078Y0110450D02*
X0194078Y0106450D01*
X0173447Y0106450D01*
X0172847Y0107050D01*
X0172847Y0102050D01*
X0159278Y0102050D01*
X0159278Y0077250D01*
X0148278Y0077250D01*
X0170878Y0077244D02*
X0170878Y0052441D01*
X0144778Y0033350D02*
X0142878Y0033350D01*
X0141620Y0030728D02*
X0141698Y0030650D01*
X0153858Y0030650D01*
X0153945Y0030737D01*
X0221663Y0030786D01*
X0221698Y0030750D01*
X0233858Y0030750D01*
X0233903Y0030794D01*
X0241828Y0030800D01*
X0241728Y0028300D01*
X0214538Y0028281D01*
X0214394Y0028341D01*
X0213363Y0028341D01*
X0213216Y0028280D01*
X0179469Y0028256D01*
X0179144Y0028391D01*
X0178113Y0028391D01*
X0177784Y0028254D01*
X0101678Y0028200D01*
X0101678Y0030650D01*
X0113758Y0030650D01*
X0113817Y0030709D01*
X0141620Y0030728D01*
X0142878Y0025700D02*
X0138778Y0024300D01*
X0137978Y0021550D02*
X0127778Y0016350D01*
X0126978Y0017750D01*
X0126978Y0016150D02*
X0133378Y0019350D01*
X0130178Y0016150D01*
X0128978Y0014450D02*
X0129778Y0020750D01*
X0144778Y0022150D01*
X0140178Y0021750D01*
X0128578Y0019350D01*
X0134978Y0020950D01*
X0126978Y0016150D01*
X0129078Y0014050D02*
X0135178Y0020950D01*
X0140178Y0021750D01*
X0139778Y0019350D02*
X0144978Y0019950D01*
X0139778Y0017750D01*
X0139078Y0014050D01*
X0138978Y0014450D02*
X0139778Y0017150D01*
X0146178Y0020550D01*
X0146778Y0021750D01*
X0146778Y0025350D01*
X0146778Y0024950D02*
X0146778Y0021550D01*
X0146378Y0020750D01*
X0144978Y0019950D01*
X0139778Y0016150D01*
X0139778Y0017750D01*
X0139778Y0019350D01*
X0144778Y0022150D02*
X0144778Y0024950D01*
X0144778Y0025350D02*
X0144778Y0022150D01*
X0148778Y0022550D02*
X0148578Y0020150D01*
X0149078Y0014050D01*
X0148978Y0013750D02*
X0148778Y0025350D01*
X0148778Y0024950D02*
X0148778Y0022550D01*
X0150978Y0017750D01*
X0149378Y0017750D01*
X0149378Y0020950D01*
X0148778Y0022550D01*
X0148778Y0017750D01*
X0147778Y0017750D01*
X0148578Y0020150D01*
X0149378Y0020950D01*
X0151178Y0022550D02*
X0158978Y0019350D01*
X0155378Y0019950D01*
X0159078Y0014050D01*
X0158978Y0014450D02*
X0158578Y0018150D01*
X0151178Y0022550D01*
X0156578Y0018550D01*
X0150778Y0022950D01*
X0150778Y0024950D01*
X0150778Y0025350D02*
X0150778Y0022950D01*
X0151178Y0022550D01*
X0142878Y0025350D02*
X0142878Y0025700D01*
X0148978Y0014450D02*
X0148978Y0013750D01*
X0166878Y0016450D02*
X0173278Y0019650D01*
X0170078Y0016450D01*
X0168878Y0017850D02*
X0168978Y0014550D01*
X0168978Y0014350D02*
X0175078Y0021250D01*
X0180078Y0022050D01*
X0168478Y0019650D01*
X0174878Y0021250D01*
X0166878Y0016450D01*
X0167678Y0016650D02*
X0166878Y0018050D01*
X0167678Y0016650D02*
X0177878Y0021850D01*
X0176078Y0021450D02*
X0168878Y0017850D01*
X0176078Y0021450D02*
X0184678Y0022450D01*
X0180078Y0022050D01*
X0179678Y0019650D02*
X0184878Y0020250D01*
X0179678Y0018050D01*
X0178978Y0014350D01*
X0178978Y0014550D02*
X0180278Y0018050D01*
X0186078Y0020850D01*
X0186678Y0021650D01*
X0186678Y0025550D01*
X0186678Y0025250D02*
X0186678Y0021850D01*
X0186278Y0021050D01*
X0184878Y0020250D01*
X0179678Y0016450D01*
X0179678Y0018050D01*
X0179678Y0019650D01*
X0184678Y0022450D02*
X0184678Y0025250D01*
X0184678Y0025550D02*
X0184678Y0022450D01*
X0188678Y0022850D02*
X0188478Y0020450D01*
X0188978Y0014350D01*
X0188978Y0014550D02*
X0188678Y0025550D01*
X0188678Y0025250D02*
X0188678Y0022850D01*
X0190878Y0018050D01*
X0189278Y0018050D01*
X0189278Y0021250D01*
X0188678Y0022850D01*
X0188678Y0018050D01*
X0187678Y0018050D01*
X0188478Y0020450D01*
X0189278Y0021250D01*
X0191078Y0022850D02*
X0198878Y0019650D01*
X0195278Y0020250D01*
X0198978Y0014350D01*
X0198978Y0014550D02*
X0198878Y0017850D01*
X0190678Y0023250D01*
X0196478Y0018850D01*
X0191078Y0022850D01*
X0190678Y0023250D02*
X0190678Y0025250D01*
X0190678Y0025550D02*
X0190678Y0023250D01*
X0182778Y0025550D02*
X0182778Y0025800D01*
X0178628Y0025800D01*
X0206978Y0018050D02*
X0207778Y0016650D01*
X0216978Y0021550D01*
X0210778Y0018850D01*
X0208978Y0014550D01*
X0209078Y0014350D02*
X0215178Y0021250D01*
X0220178Y0022050D01*
X0208578Y0019650D01*
X0214978Y0021250D01*
X0206978Y0016450D01*
X0213378Y0019650D01*
X0210178Y0016450D01*
X0216978Y0021550D02*
X0224778Y0022650D01*
X0224778Y0025450D01*
X0224778Y0025050D02*
X0224778Y0022450D01*
X0220178Y0022050D01*
X0219778Y0019650D02*
X0224978Y0020250D01*
X0219778Y0018050D01*
X0219078Y0014350D01*
X0218978Y0014550D02*
X0223978Y0019450D01*
X0226778Y0021650D01*
X0226778Y0025450D01*
X0226778Y0025250D02*
X0226778Y0021850D01*
X0226378Y0021050D01*
X0224978Y0020250D01*
X0219778Y0016450D01*
X0219778Y0018050D01*
X0219778Y0019650D01*
X0227778Y0018050D02*
X0228578Y0020450D01*
X0229078Y0014350D01*
X0228978Y0014550D02*
X0228778Y0025450D01*
X0228778Y0025250D02*
X0228778Y0022850D01*
X0228578Y0020450D01*
X0229378Y0021250D01*
X0229378Y0018050D01*
X0230978Y0018050D01*
X0228778Y0022850D01*
X0229378Y0021250D01*
X0228778Y0022850D02*
X0228778Y0018050D01*
X0227778Y0018050D01*
X0231178Y0022850D02*
X0238978Y0019650D01*
X0235378Y0020250D01*
X0239078Y0014350D01*
X0238978Y0014550D02*
X0239378Y0017650D01*
X0230778Y0023250D01*
X0236578Y0018850D01*
X0231178Y0022850D01*
X0230778Y0023250D02*
X0230778Y0025250D01*
X0230778Y0025450D02*
X0230778Y0023250D01*
X0241741Y0028623D02*
X0101678Y0028623D01*
X0101678Y0029822D02*
X0241789Y0029822D01*
X0252578Y0079450D02*
X0257578Y0079450D01*
X0261478Y0079450D01*
X0261478Y0123050D01*
X0262078Y0122450D01*
X0262825Y0122450D01*
X0261478Y0123050D02*
X0261478Y0127250D01*
X0216478Y0127250D01*
X0216478Y0110450D01*
X0198078Y0110450D01*
X0218878Y0106772D02*
X0218878Y0122050D01*
X0257578Y0122050D01*
X0257578Y0111300D01*
X0252578Y0111300D02*
X0252478Y0111300D01*
X0252478Y0118650D01*
X0238478Y0118650D01*
X0238478Y0113050D01*
X0229478Y0113050D01*
X0242578Y0111300D02*
X0242578Y0105950D01*
X0245678Y0102850D01*
X0256132Y0122450D02*
X0257578Y0122650D01*
X0257578Y0122050D01*
X0172847Y0122350D02*
X0172847Y0113859D01*
X0172847Y0107050D01*
X0170878Y0106650D02*
X0168078Y0106650D01*
X0170878Y0106650D02*
X0170878Y0113859D01*
X0164973Y0113859D02*
X0164973Y0119250D01*
X0162078Y0119250D01*
X0162078Y0135250D01*
X0165678Y0135250D01*
X0171178Y0127596D02*
X0170978Y0126450D01*
X0166078Y0126450D01*
X0171178Y0120904D02*
X0172847Y0122350D01*
X0153162Y0113859D02*
X0153162Y0161050D01*
X0151978Y0161050D01*
X0141978Y0161050D02*
X0141978Y0156550D01*
X0146078Y0152450D01*
X0151193Y0152450D01*
X0151193Y0113859D01*
X0149225Y0113859D02*
X0149225Y0149850D01*
X0141678Y0149850D01*
X0131978Y0159550D01*
X0131978Y0161050D01*
X0122278Y0160750D02*
X0122278Y0157050D01*
X0132678Y0146650D01*
X0147256Y0146650D01*
X0147256Y0113859D01*
X0143078Y0118050D02*
X0143078Y0119097D01*
X0142978Y0119197D01*
X0142978Y0141196D02*
X0136478Y0141196D01*
X0136578Y0141096D01*
X0136778Y0141096D01*
X0136478Y0141196D02*
X0134132Y0141196D01*
X0132678Y0142650D01*
X0122278Y0160750D02*
X0121978Y0161050D01*
X0017132Y0108650D02*
X0016332Y0109450D01*
X0013278Y0109450D01*
X0017078Y0108650D02*
X0017132Y0108650D01*
X0017132Y0100996D02*
X0015585Y0099450D01*
X0013278Y0099450D01*
X0017132Y0099450D02*
X0017132Y0100996D01*
X0023825Y0099450D02*
X0024478Y0098796D01*
X0024478Y0085250D01*
X0019478Y0080250D01*
X0019478Y0070400D01*
X0019178Y0070400D01*
X0019553Y0070175D01*
X0024678Y0065050D01*
X0042378Y0065050D01*
X0060378Y0064950D01*
X0079253Y0033521D02*
X0088460Y0033521D01*
X0090132Y0031850D01*
X0096678Y0031704D02*
X0096678Y0028050D01*
X0096678Y0025850D01*
X0097178Y0025350D01*
X0102778Y0025350D01*
X0104678Y0025350D02*
X0104678Y0022550D01*
X0099978Y0022350D01*
X0088478Y0019750D01*
X0094878Y0021350D01*
X0086878Y0016550D01*
X0093278Y0019750D01*
X0090078Y0016550D01*
X0088978Y0014450D02*
X0095078Y0021350D01*
X0099978Y0022350D01*
X0097878Y0021950D02*
X0087678Y0016750D01*
X0086878Y0018150D01*
X0098978Y0014450D02*
X0099678Y0018150D01*
X0104878Y0020350D01*
X0099678Y0019750D01*
X0099678Y0018150D01*
X0099678Y0016550D01*
X0104878Y0020350D01*
X0106278Y0021150D01*
X0106678Y0021950D01*
X0106678Y0025350D01*
X0108678Y0025350D02*
X0108678Y0022950D01*
X0108478Y0020550D01*
X0108978Y0014450D01*
X0108678Y0018150D02*
X0107678Y0018150D01*
X0108478Y0020550D01*
X0109278Y0021350D01*
X0109278Y0018150D01*
X0110878Y0018150D01*
X0108678Y0022950D01*
X0109278Y0021350D01*
X0108678Y0022950D02*
X0108678Y0018150D01*
X0111078Y0022950D02*
X0117078Y0019850D01*
X0115278Y0020350D01*
X0118978Y0014450D01*
X0116478Y0018950D02*
X0111078Y0022950D01*
X0110678Y0023350D02*
X0116478Y0018950D01*
X0110678Y0023350D02*
X0110678Y0025350D01*
X0096825Y0031850D02*
X0096678Y0031704D01*
X0029478Y0098650D02*
X0024625Y0098650D01*
X0024570Y0098652D01*
X0024516Y0098657D01*
X0024462Y0098667D01*
X0024409Y0098680D01*
X0024357Y0098696D01*
X0024306Y0098716D01*
X0024257Y0098740D01*
X0024209Y0098766D01*
X0024164Y0098796D01*
X0024120Y0098829D01*
X0024079Y0098865D01*
X0024040Y0098904D01*
X0024004Y0098945D01*
X0023971Y0098989D01*
X0023941Y0099034D01*
X0023915Y0099082D01*
X0023891Y0099131D01*
X0023871Y0099182D01*
X0023855Y0099234D01*
X0023842Y0099287D01*
X0023832Y0099341D01*
X0023827Y0099395D01*
X0023825Y0099450D01*
D38*
X0029478Y0098650D03*
X0035278Y0103250D03*
X0052678Y0101650D03*
X0059478Y0094450D03*
X0093678Y0087450D03*
X0104878Y0087050D03*
X0093878Y0076450D03*
X0107378Y0064550D03*
X0112478Y0068450D03*
X0122678Y0071850D03*
X0131478Y0076650D03*
X0122678Y0082250D03*
X0122678Y0092450D03*
X0117378Y0102050D03*
X0159278Y0102050D03*
X0168078Y0106650D03*
X0166078Y0126450D03*
X0132678Y0142650D03*
X0059078Y0115650D03*
X0032878Y0121650D03*
X0034278Y0132650D03*
X0034478Y0132650D03*
X0024278Y0145250D03*
X0033878Y0152450D03*
X0039078Y0151950D03*
X0023478Y0157450D03*
X0059578Y0071250D03*
X0059878Y0064550D03*
X0065478Y0052650D03*
X0056878Y0048650D03*
X0067378Y0037050D03*
X0074878Y0037050D03*
X0081128Y0039550D03*
X0099878Y0039550D03*
X0117928Y0029450D03*
X0132028Y0029450D03*
X0135478Y0033450D03*
X0137528Y0029450D03*
X0138778Y0024300D03*
X0159528Y0029450D03*
X0172328Y0029450D03*
X0178628Y0025800D03*
X0178878Y0033450D03*
X0197078Y0033450D03*
X0199878Y0029550D03*
X0210328Y0029550D03*
X0213878Y0025750D03*
X0217628Y0029550D03*
X0239828Y0029750D03*
X0263678Y0021050D03*
X0239678Y0047150D03*
X0223578Y0047150D03*
X0220678Y0079750D03*
X0245678Y0102850D03*
X0161578Y0046150D03*
X0147378Y0059550D03*
X0147378Y0064550D03*
X0128178Y0052150D03*
X0135678Y0045850D03*
X0097178Y0025350D03*
X0071278Y0019450D03*
X0063278Y0019850D03*
X0060678Y0029650D03*
X0043628Y0028300D03*
D39*
X0055103Y0023300D02*
X0055103Y0009947D01*
X0055103Y0007050D01*
X0029553Y0007050D01*
X0029553Y0010175D01*
X0019553Y0010175D01*
X0037378Y0038521D02*
X0039878Y0038521D01*
X0039878Y0047050D01*
X0039878Y0053300D01*
X0060828Y0053300D01*
X0060828Y0048300D01*
X0086128Y0048300D01*
X0086128Y0039550D01*
X0099878Y0039550D01*
X0094678Y0059550D02*
X0112378Y0059550D01*
X0112378Y0063863D01*
X0117378Y0063863D01*
X0117378Y0102050D01*
X0116827Y0101499D01*
X0097278Y0101499D01*
X0082278Y0101499D01*
X0078693Y0101499D01*
X0019478Y0090250D02*
X0013678Y0090250D01*
X0013278Y0089850D01*
X0013278Y0099450D01*
X0013278Y0109450D01*
X0013278Y0145250D01*
X0024278Y0145250D01*
X0013278Y0089850D02*
X0013278Y0044450D01*
X0016353Y0040175D01*
X0019553Y0040175D01*
X0034878Y0039550D02*
X0037378Y0039550D01*
X0037378Y0059550D01*
X0094678Y0059550D01*
X0117378Y0063863D02*
X0120878Y0063863D01*
X0120878Y0063396D02*
X0128278Y0063396D01*
X0249878Y0009550D02*
X0258178Y0009550D01*
X0258178Y0016804D01*
X0258178Y0023650D02*
X0263678Y0021050D01*
X0258178Y0023496D02*
X0258178Y0023650D01*
X0258178Y0009550D02*
X0287478Y0009550D01*
X0287478Y0056250D01*
X0277478Y0056250D01*
D40*
X0081978Y0019750D03*
D41*
X0077378Y0026829D01*
X0079253Y0026829D01*
D42*
X0249878Y0009550D03*
D43*
X0082278Y0091396D02*
X0082278Y0101499D01*
X0078693Y0101499D02*
X0075383Y0101499D01*
X0064178Y0109504D01*
X0063204Y0109330D01*
X0061878Y0109330D01*
X0057314Y0109330D01*
X0081932Y0091050D02*
X0082278Y0091396D01*
X0039253Y0045175D02*
X0011678Y0045175D01*
X0011678Y0025175D01*
X0034253Y0025175D01*
X0039253Y0045175D01*
X0038913Y0043816D02*
X0032701Y0043816D01*
X0031541Y0044975D02*
X0029753Y0044975D01*
X0029753Y0040375D01*
X0029353Y0040375D01*
X0029353Y0039975D01*
X0024753Y0039975D01*
X0024753Y0038187D01*
X0027565Y0035375D01*
X0029353Y0035375D01*
X0029353Y0039975D01*
X0029753Y0039975D01*
X0029753Y0035375D01*
X0031541Y0035375D01*
X0034353Y0038187D01*
X0034353Y0039975D01*
X0029753Y0039975D01*
X0029753Y0040375D01*
X0034353Y0040375D01*
X0034353Y0042163D01*
X0031541Y0044975D01*
X0029753Y0043816D02*
X0029353Y0043816D01*
X0029353Y0044975D02*
X0027565Y0044975D01*
X0024753Y0042163D01*
X0024753Y0040375D01*
X0029353Y0040375D01*
X0029353Y0044975D01*
X0026406Y0043816D02*
X0022701Y0043816D01*
X0021541Y0044975D02*
X0019753Y0044975D01*
X0019753Y0040375D01*
X0019353Y0040375D01*
X0019353Y0039975D01*
X0014753Y0039975D01*
X0014753Y0038187D01*
X0017565Y0035375D01*
X0019353Y0035375D01*
X0019353Y0039975D01*
X0019753Y0039975D01*
X0019753Y0035375D01*
X0021541Y0035375D01*
X0024353Y0038187D01*
X0024353Y0039975D01*
X0019753Y0039975D01*
X0019753Y0040375D01*
X0024353Y0040375D01*
X0024353Y0042163D01*
X0021541Y0044975D01*
X0019753Y0043816D02*
X0019353Y0043816D01*
X0019353Y0044975D02*
X0017565Y0044975D01*
X0014753Y0042163D01*
X0014753Y0040375D01*
X0019353Y0040375D01*
X0019353Y0044975D01*
X0016406Y0043816D02*
X0011678Y0043816D01*
X0011678Y0042217D02*
X0014807Y0042217D01*
X0014753Y0040619D02*
X0011678Y0040619D01*
X0011678Y0039020D02*
X0014753Y0039020D01*
X0015518Y0037422D02*
X0011678Y0037422D01*
X0011678Y0035823D02*
X0017117Y0035823D01*
X0017565Y0034975D02*
X0014753Y0032163D01*
X0014753Y0030375D01*
X0019353Y0030375D01*
X0019353Y0029975D01*
X0014753Y0029975D01*
X0014753Y0028187D01*
X0017565Y0025375D01*
X0019353Y0025375D01*
X0019353Y0029975D01*
X0019753Y0029975D01*
X0019753Y0025375D01*
X0021541Y0025375D01*
X0024353Y0028187D01*
X0024353Y0029975D01*
X0019753Y0029975D01*
X0019753Y0030375D01*
X0019353Y0030375D01*
X0019353Y0034975D01*
X0017565Y0034975D01*
X0016815Y0034225D02*
X0011678Y0034225D01*
X0011678Y0032626D02*
X0015216Y0032626D01*
X0014753Y0031028D02*
X0011678Y0031028D01*
X0011678Y0029429D02*
X0014753Y0029429D01*
X0015109Y0027831D02*
X0011678Y0027831D01*
X0011678Y0026232D02*
X0016708Y0026232D01*
X0019353Y0026232D02*
X0019753Y0026232D01*
X0019753Y0027831D02*
X0019353Y0027831D01*
X0019353Y0029429D02*
X0019753Y0029429D01*
X0019753Y0030375D02*
X0024353Y0030375D01*
X0024353Y0032163D01*
X0021541Y0034975D01*
X0019753Y0034975D01*
X0019753Y0030375D01*
X0019753Y0031028D02*
X0019353Y0031028D01*
X0019353Y0032626D02*
X0019753Y0032626D01*
X0019753Y0034225D02*
X0019353Y0034225D01*
X0019353Y0035823D02*
X0019753Y0035823D01*
X0019753Y0037422D02*
X0019353Y0037422D01*
X0019353Y0039020D02*
X0019753Y0039020D01*
X0019753Y0040619D02*
X0019353Y0040619D01*
X0019353Y0042217D02*
X0019753Y0042217D01*
X0024299Y0042217D02*
X0024807Y0042217D01*
X0024753Y0040619D02*
X0024353Y0040619D01*
X0024353Y0039020D02*
X0024753Y0039020D01*
X0025518Y0037422D02*
X0023588Y0037422D01*
X0021990Y0035823D02*
X0027117Y0035823D01*
X0027565Y0034975D02*
X0024753Y0032163D01*
X0024753Y0030375D01*
X0029353Y0030375D01*
X0029353Y0029975D01*
X0024753Y0029975D01*
X0024753Y0028187D01*
X0027565Y0025375D01*
X0029353Y0025375D01*
X0029353Y0029975D01*
X0029753Y0029975D01*
X0029753Y0025375D01*
X0031541Y0025375D01*
X0034353Y0028187D01*
X0034353Y0029975D01*
X0029753Y0029975D01*
X0029753Y0030375D01*
X0029353Y0030375D01*
X0029353Y0034975D01*
X0027565Y0034975D01*
X0026815Y0034225D02*
X0022292Y0034225D01*
X0023890Y0032626D02*
X0025216Y0032626D01*
X0024753Y0031028D02*
X0024353Y0031028D01*
X0024353Y0029429D02*
X0024753Y0029429D01*
X0025109Y0027831D02*
X0023997Y0027831D01*
X0022399Y0026232D02*
X0026708Y0026232D01*
X0029353Y0026232D02*
X0029753Y0026232D01*
X0029753Y0027831D02*
X0029353Y0027831D01*
X0029353Y0029429D02*
X0029753Y0029429D01*
X0029753Y0030375D02*
X0034353Y0030375D01*
X0034353Y0032163D01*
X0031541Y0034975D01*
X0029753Y0034975D01*
X0029753Y0030375D01*
X0029753Y0031028D02*
X0029353Y0031028D01*
X0029353Y0032626D02*
X0029753Y0032626D01*
X0029753Y0034225D02*
X0029353Y0034225D01*
X0029353Y0035823D02*
X0029753Y0035823D01*
X0029753Y0037422D02*
X0029353Y0037422D01*
X0029353Y0039020D02*
X0029753Y0039020D01*
X0029753Y0040619D02*
X0029353Y0040619D01*
X0029353Y0042217D02*
X0029753Y0042217D01*
X0034299Y0042217D02*
X0038514Y0042217D01*
X0038114Y0040619D02*
X0034353Y0040619D01*
X0034353Y0039020D02*
X0037715Y0039020D01*
X0037315Y0037422D02*
X0033588Y0037422D01*
X0031990Y0035823D02*
X0036915Y0035823D01*
X0036516Y0034225D02*
X0032292Y0034225D01*
X0033890Y0032626D02*
X0036116Y0032626D01*
X0035716Y0031028D02*
X0034353Y0031028D01*
X0034353Y0029429D02*
X0035317Y0029429D01*
X0034917Y0027831D02*
X0033997Y0027831D01*
X0034518Y0026232D02*
X0032399Y0026232D01*
D44*
X0035503Y0037675D02*
X0026753Y0037675D01*
X0026753Y0038925D01*
X0035503Y0038521D02*
X0035503Y0037675D01*
X0035503Y0038521D02*
X0037378Y0038521D01*
X0044253Y0038521D01*
M02*
