G75*
%MOIN*%
%OFA0B0*%
%FSLAX25Y25*%
%IPPOS*%
%LPD*%
%AMOC8*
5,1,8,0,0,1.08239X$1,22.5*
%
%ADD10C,0.00000*%
%ADD11C,0.00600*%
D10*
X0009878Y0004550D02*
X0009878Y0169550D01*
X0307378Y0169550D01*
X0307378Y0004550D01*
X0009878Y0004550D01*
X0050710Y0033206D02*
X0050712Y0033254D01*
X0050718Y0033302D01*
X0050728Y0033349D01*
X0050741Y0033395D01*
X0050759Y0033440D01*
X0050779Y0033484D01*
X0050804Y0033526D01*
X0050832Y0033565D01*
X0050862Y0033602D01*
X0050896Y0033636D01*
X0050933Y0033668D01*
X0050971Y0033697D01*
X0051012Y0033722D01*
X0051055Y0033744D01*
X0051100Y0033762D01*
X0051146Y0033776D01*
X0051193Y0033787D01*
X0051241Y0033794D01*
X0051289Y0033797D01*
X0051337Y0033796D01*
X0051385Y0033791D01*
X0051433Y0033782D01*
X0051479Y0033770D01*
X0051524Y0033753D01*
X0051568Y0033733D01*
X0051610Y0033710D01*
X0051650Y0033683D01*
X0051688Y0033653D01*
X0051723Y0033620D01*
X0051755Y0033584D01*
X0051785Y0033546D01*
X0051811Y0033505D01*
X0051833Y0033462D01*
X0051853Y0033418D01*
X0051868Y0033373D01*
X0051880Y0033326D01*
X0051888Y0033278D01*
X0051892Y0033230D01*
X0051892Y0033182D01*
X0051888Y0033134D01*
X0051880Y0033086D01*
X0051868Y0033039D01*
X0051853Y0032994D01*
X0051833Y0032950D01*
X0051811Y0032907D01*
X0051785Y0032866D01*
X0051755Y0032828D01*
X0051723Y0032792D01*
X0051688Y0032759D01*
X0051650Y0032729D01*
X0051610Y0032702D01*
X0051568Y0032679D01*
X0051524Y0032659D01*
X0051479Y0032642D01*
X0051433Y0032630D01*
X0051385Y0032621D01*
X0051337Y0032616D01*
X0051289Y0032615D01*
X0051241Y0032618D01*
X0051193Y0032625D01*
X0051146Y0032636D01*
X0051100Y0032650D01*
X0051055Y0032668D01*
X0051012Y0032690D01*
X0050971Y0032715D01*
X0050933Y0032744D01*
X0050896Y0032776D01*
X0050862Y0032810D01*
X0050832Y0032847D01*
X0050804Y0032886D01*
X0050779Y0032928D01*
X0050759Y0032972D01*
X0050741Y0033017D01*
X0050728Y0033063D01*
X0050718Y0033110D01*
X0050712Y0033158D01*
X0050710Y0033206D01*
X0053662Y0035175D02*
X0053664Y0035223D01*
X0053670Y0035271D01*
X0053680Y0035318D01*
X0053693Y0035364D01*
X0053711Y0035409D01*
X0053731Y0035453D01*
X0053756Y0035495D01*
X0053784Y0035534D01*
X0053814Y0035571D01*
X0053848Y0035605D01*
X0053885Y0035637D01*
X0053923Y0035666D01*
X0053964Y0035691D01*
X0054007Y0035713D01*
X0054052Y0035731D01*
X0054098Y0035745D01*
X0054145Y0035756D01*
X0054193Y0035763D01*
X0054241Y0035766D01*
X0054289Y0035765D01*
X0054337Y0035760D01*
X0054385Y0035751D01*
X0054431Y0035739D01*
X0054476Y0035722D01*
X0054520Y0035702D01*
X0054562Y0035679D01*
X0054602Y0035652D01*
X0054640Y0035622D01*
X0054675Y0035589D01*
X0054707Y0035553D01*
X0054737Y0035515D01*
X0054763Y0035474D01*
X0054785Y0035431D01*
X0054805Y0035387D01*
X0054820Y0035342D01*
X0054832Y0035295D01*
X0054840Y0035247D01*
X0054844Y0035199D01*
X0054844Y0035151D01*
X0054840Y0035103D01*
X0054832Y0035055D01*
X0054820Y0035008D01*
X0054805Y0034963D01*
X0054785Y0034919D01*
X0054763Y0034876D01*
X0054737Y0034835D01*
X0054707Y0034797D01*
X0054675Y0034761D01*
X0054640Y0034728D01*
X0054602Y0034698D01*
X0054562Y0034671D01*
X0054520Y0034648D01*
X0054476Y0034628D01*
X0054431Y0034611D01*
X0054385Y0034599D01*
X0054337Y0034590D01*
X0054289Y0034585D01*
X0054241Y0034584D01*
X0054193Y0034587D01*
X0054145Y0034594D01*
X0054098Y0034605D01*
X0054052Y0034619D01*
X0054007Y0034637D01*
X0053964Y0034659D01*
X0053923Y0034684D01*
X0053885Y0034713D01*
X0053848Y0034745D01*
X0053814Y0034779D01*
X0053784Y0034816D01*
X0053756Y0034855D01*
X0053731Y0034897D01*
X0053711Y0034941D01*
X0053693Y0034986D01*
X0053680Y0035032D01*
X0053670Y0035079D01*
X0053664Y0035127D01*
X0053662Y0035175D01*
X0050710Y0037144D02*
X0050712Y0037192D01*
X0050718Y0037240D01*
X0050728Y0037287D01*
X0050741Y0037333D01*
X0050759Y0037378D01*
X0050779Y0037422D01*
X0050804Y0037464D01*
X0050832Y0037503D01*
X0050862Y0037540D01*
X0050896Y0037574D01*
X0050933Y0037606D01*
X0050971Y0037635D01*
X0051012Y0037660D01*
X0051055Y0037682D01*
X0051100Y0037700D01*
X0051146Y0037714D01*
X0051193Y0037725D01*
X0051241Y0037732D01*
X0051289Y0037735D01*
X0051337Y0037734D01*
X0051385Y0037729D01*
X0051433Y0037720D01*
X0051479Y0037708D01*
X0051524Y0037691D01*
X0051568Y0037671D01*
X0051610Y0037648D01*
X0051650Y0037621D01*
X0051688Y0037591D01*
X0051723Y0037558D01*
X0051755Y0037522D01*
X0051785Y0037484D01*
X0051811Y0037443D01*
X0051833Y0037400D01*
X0051853Y0037356D01*
X0051868Y0037311D01*
X0051880Y0037264D01*
X0051888Y0037216D01*
X0051892Y0037168D01*
X0051892Y0037120D01*
X0051888Y0037072D01*
X0051880Y0037024D01*
X0051868Y0036977D01*
X0051853Y0036932D01*
X0051833Y0036888D01*
X0051811Y0036845D01*
X0051785Y0036804D01*
X0051755Y0036766D01*
X0051723Y0036730D01*
X0051688Y0036697D01*
X0051650Y0036667D01*
X0051610Y0036640D01*
X0051568Y0036617D01*
X0051524Y0036597D01*
X0051479Y0036580D01*
X0051433Y0036568D01*
X0051385Y0036559D01*
X0051337Y0036554D01*
X0051289Y0036553D01*
X0051241Y0036556D01*
X0051193Y0036563D01*
X0051146Y0036574D01*
X0051100Y0036588D01*
X0051055Y0036606D01*
X0051012Y0036628D01*
X0050971Y0036653D01*
X0050933Y0036682D01*
X0050896Y0036714D01*
X0050862Y0036748D01*
X0050832Y0036785D01*
X0050804Y0036824D01*
X0050779Y0036866D01*
X0050759Y0036910D01*
X0050741Y0036955D01*
X0050728Y0037001D01*
X0050718Y0037048D01*
X0050712Y0037096D01*
X0050710Y0037144D01*
X0056615Y0037144D02*
X0056617Y0037192D01*
X0056623Y0037240D01*
X0056633Y0037287D01*
X0056646Y0037333D01*
X0056664Y0037378D01*
X0056684Y0037422D01*
X0056709Y0037464D01*
X0056737Y0037503D01*
X0056767Y0037540D01*
X0056801Y0037574D01*
X0056838Y0037606D01*
X0056876Y0037635D01*
X0056917Y0037660D01*
X0056960Y0037682D01*
X0057005Y0037700D01*
X0057051Y0037714D01*
X0057098Y0037725D01*
X0057146Y0037732D01*
X0057194Y0037735D01*
X0057242Y0037734D01*
X0057290Y0037729D01*
X0057338Y0037720D01*
X0057384Y0037708D01*
X0057429Y0037691D01*
X0057473Y0037671D01*
X0057515Y0037648D01*
X0057555Y0037621D01*
X0057593Y0037591D01*
X0057628Y0037558D01*
X0057660Y0037522D01*
X0057690Y0037484D01*
X0057716Y0037443D01*
X0057738Y0037400D01*
X0057758Y0037356D01*
X0057773Y0037311D01*
X0057785Y0037264D01*
X0057793Y0037216D01*
X0057797Y0037168D01*
X0057797Y0037120D01*
X0057793Y0037072D01*
X0057785Y0037024D01*
X0057773Y0036977D01*
X0057758Y0036932D01*
X0057738Y0036888D01*
X0057716Y0036845D01*
X0057690Y0036804D01*
X0057660Y0036766D01*
X0057628Y0036730D01*
X0057593Y0036697D01*
X0057555Y0036667D01*
X0057515Y0036640D01*
X0057473Y0036617D01*
X0057429Y0036597D01*
X0057384Y0036580D01*
X0057338Y0036568D01*
X0057290Y0036559D01*
X0057242Y0036554D01*
X0057194Y0036553D01*
X0057146Y0036556D01*
X0057098Y0036563D01*
X0057051Y0036574D01*
X0057005Y0036588D01*
X0056960Y0036606D01*
X0056917Y0036628D01*
X0056876Y0036653D01*
X0056838Y0036682D01*
X0056801Y0036714D01*
X0056767Y0036748D01*
X0056737Y0036785D01*
X0056709Y0036824D01*
X0056684Y0036866D01*
X0056664Y0036910D01*
X0056646Y0036955D01*
X0056633Y0037001D01*
X0056623Y0037048D01*
X0056617Y0037096D01*
X0056615Y0037144D01*
X0056615Y0033206D02*
X0056617Y0033254D01*
X0056623Y0033302D01*
X0056633Y0033349D01*
X0056646Y0033395D01*
X0056664Y0033440D01*
X0056684Y0033484D01*
X0056709Y0033526D01*
X0056737Y0033565D01*
X0056767Y0033602D01*
X0056801Y0033636D01*
X0056838Y0033668D01*
X0056876Y0033697D01*
X0056917Y0033722D01*
X0056960Y0033744D01*
X0057005Y0033762D01*
X0057051Y0033776D01*
X0057098Y0033787D01*
X0057146Y0033794D01*
X0057194Y0033797D01*
X0057242Y0033796D01*
X0057290Y0033791D01*
X0057338Y0033782D01*
X0057384Y0033770D01*
X0057429Y0033753D01*
X0057473Y0033733D01*
X0057515Y0033710D01*
X0057555Y0033683D01*
X0057593Y0033653D01*
X0057628Y0033620D01*
X0057660Y0033584D01*
X0057690Y0033546D01*
X0057716Y0033505D01*
X0057738Y0033462D01*
X0057758Y0033418D01*
X0057773Y0033373D01*
X0057785Y0033326D01*
X0057793Y0033278D01*
X0057797Y0033230D01*
X0057797Y0033182D01*
X0057793Y0033134D01*
X0057785Y0033086D01*
X0057773Y0033039D01*
X0057758Y0032994D01*
X0057738Y0032950D01*
X0057716Y0032907D01*
X0057690Y0032866D01*
X0057660Y0032828D01*
X0057628Y0032792D01*
X0057593Y0032759D01*
X0057555Y0032729D01*
X0057515Y0032702D01*
X0057473Y0032679D01*
X0057429Y0032659D01*
X0057384Y0032642D01*
X0057338Y0032630D01*
X0057290Y0032621D01*
X0057242Y0032616D01*
X0057194Y0032615D01*
X0057146Y0032618D01*
X0057098Y0032625D01*
X0057051Y0032636D01*
X0057005Y0032650D01*
X0056960Y0032668D01*
X0056917Y0032690D01*
X0056876Y0032715D01*
X0056838Y0032744D01*
X0056801Y0032776D01*
X0056767Y0032810D01*
X0056737Y0032847D01*
X0056709Y0032886D01*
X0056684Y0032928D01*
X0056664Y0032972D01*
X0056646Y0033017D01*
X0056633Y0033063D01*
X0056623Y0033110D01*
X0056617Y0033158D01*
X0056615Y0033206D01*
D11*
X0087178Y0034950D02*
X0087178Y0028950D01*
X0087180Y0028890D01*
X0087185Y0028829D01*
X0087194Y0028770D01*
X0087207Y0028711D01*
X0087223Y0028652D01*
X0087243Y0028595D01*
X0087266Y0028540D01*
X0087293Y0028485D01*
X0087322Y0028433D01*
X0087355Y0028382D01*
X0087391Y0028333D01*
X0087429Y0028287D01*
X0087471Y0028243D01*
X0087515Y0028201D01*
X0087561Y0028163D01*
X0087610Y0028127D01*
X0087661Y0028094D01*
X0087713Y0028065D01*
X0087768Y0028038D01*
X0087823Y0028015D01*
X0087880Y0027995D01*
X0087939Y0027979D01*
X0087998Y0027966D01*
X0088057Y0027957D01*
X0088118Y0027952D01*
X0088178Y0027950D01*
X0105178Y0027950D01*
X0105238Y0027952D01*
X0105299Y0027957D01*
X0105358Y0027966D01*
X0105417Y0027979D01*
X0105476Y0027995D01*
X0105533Y0028015D01*
X0105588Y0028038D01*
X0105643Y0028065D01*
X0105695Y0028094D01*
X0105746Y0028127D01*
X0105795Y0028163D01*
X0105841Y0028201D01*
X0105885Y0028243D01*
X0105927Y0028287D01*
X0105965Y0028333D01*
X0106001Y0028382D01*
X0106034Y0028433D01*
X0106063Y0028485D01*
X0106090Y0028540D01*
X0106113Y0028595D01*
X0106133Y0028652D01*
X0106149Y0028711D01*
X0106162Y0028770D01*
X0106171Y0028829D01*
X0106176Y0028890D01*
X0106178Y0028950D01*
X0106178Y0034950D01*
X0106176Y0035010D01*
X0106171Y0035071D01*
X0106162Y0035130D01*
X0106149Y0035189D01*
X0106133Y0035248D01*
X0106113Y0035305D01*
X0106090Y0035360D01*
X0106063Y0035415D01*
X0106034Y0035467D01*
X0106001Y0035518D01*
X0105965Y0035567D01*
X0105927Y0035613D01*
X0105885Y0035657D01*
X0105841Y0035699D01*
X0105795Y0035737D01*
X0105746Y0035773D01*
X0105695Y0035806D01*
X0105643Y0035835D01*
X0105588Y0035862D01*
X0105533Y0035885D01*
X0105476Y0035905D01*
X0105417Y0035921D01*
X0105358Y0035934D01*
X0105299Y0035943D01*
X0105238Y0035948D01*
X0105178Y0035950D01*
X0088178Y0035950D01*
X0088118Y0035948D01*
X0088057Y0035943D01*
X0087998Y0035934D01*
X0087939Y0035921D01*
X0087880Y0035905D01*
X0087823Y0035885D01*
X0087768Y0035862D01*
X0087713Y0035835D01*
X0087661Y0035806D01*
X0087610Y0035773D01*
X0087561Y0035737D01*
X0087515Y0035699D01*
X0087471Y0035657D01*
X0087429Y0035613D01*
X0087391Y0035567D01*
X0087355Y0035518D01*
X0087322Y0035467D01*
X0087293Y0035415D01*
X0087266Y0035360D01*
X0087243Y0035305D01*
X0087223Y0035248D01*
X0087207Y0035189D01*
X0087194Y0035130D01*
X0087185Y0035071D01*
X0087180Y0035010D01*
X0087178Y0034950D01*
X0048578Y0055050D02*
X0048578Y0061050D01*
X0048576Y0061110D01*
X0048571Y0061171D01*
X0048562Y0061230D01*
X0048549Y0061289D01*
X0048533Y0061348D01*
X0048513Y0061405D01*
X0048490Y0061460D01*
X0048463Y0061515D01*
X0048434Y0061567D01*
X0048401Y0061618D01*
X0048365Y0061667D01*
X0048327Y0061713D01*
X0048285Y0061757D01*
X0048241Y0061799D01*
X0048195Y0061837D01*
X0048146Y0061873D01*
X0048095Y0061906D01*
X0048043Y0061935D01*
X0047988Y0061962D01*
X0047933Y0061985D01*
X0047876Y0062005D01*
X0047817Y0062021D01*
X0047758Y0062034D01*
X0047699Y0062043D01*
X0047638Y0062048D01*
X0047578Y0062050D01*
X0036578Y0062050D01*
X0036518Y0062048D01*
X0036457Y0062043D01*
X0036398Y0062034D01*
X0036339Y0062021D01*
X0036280Y0062005D01*
X0036223Y0061985D01*
X0036168Y0061962D01*
X0036113Y0061935D01*
X0036061Y0061906D01*
X0036010Y0061873D01*
X0035961Y0061837D01*
X0035915Y0061799D01*
X0035871Y0061757D01*
X0035829Y0061713D01*
X0035791Y0061667D01*
X0035755Y0061618D01*
X0035722Y0061567D01*
X0035693Y0061515D01*
X0035666Y0061460D01*
X0035643Y0061405D01*
X0035623Y0061348D01*
X0035607Y0061289D01*
X0035594Y0061230D01*
X0035585Y0061171D01*
X0035580Y0061110D01*
X0035578Y0061050D01*
X0035578Y0055050D01*
X0035580Y0054990D01*
X0035585Y0054929D01*
X0035594Y0054870D01*
X0035607Y0054811D01*
X0035623Y0054752D01*
X0035643Y0054695D01*
X0035666Y0054640D01*
X0035693Y0054585D01*
X0035722Y0054533D01*
X0035755Y0054482D01*
X0035791Y0054433D01*
X0035829Y0054387D01*
X0035871Y0054343D01*
X0035915Y0054301D01*
X0035961Y0054263D01*
X0036010Y0054227D01*
X0036061Y0054194D01*
X0036113Y0054165D01*
X0036168Y0054138D01*
X0036223Y0054115D01*
X0036280Y0054095D01*
X0036339Y0054079D01*
X0036398Y0054066D01*
X0036457Y0054057D01*
X0036518Y0054052D01*
X0036578Y0054050D01*
X0047578Y0054050D01*
X0047638Y0054052D01*
X0047699Y0054057D01*
X0047758Y0054066D01*
X0047817Y0054079D01*
X0047876Y0054095D01*
X0047933Y0054115D01*
X0047988Y0054138D01*
X0048043Y0054165D01*
X0048095Y0054194D01*
X0048146Y0054227D01*
X0048195Y0054263D01*
X0048241Y0054301D01*
X0048285Y0054343D01*
X0048327Y0054387D01*
X0048365Y0054433D01*
X0048401Y0054482D01*
X0048434Y0054533D01*
X0048463Y0054585D01*
X0048490Y0054640D01*
X0048513Y0054695D01*
X0048533Y0054752D01*
X0048549Y0054811D01*
X0048562Y0054870D01*
X0048571Y0054929D01*
X0048576Y0054990D01*
X0048578Y0055050D01*
M02*
