G75*
%MOIN*%
%OFA0B0*%
%FSLAX25Y25*%
%IPPOS*%
%LPD*%
%AMOC8*
5,1,8,0,0,1.08239X$1,22.5*
%
%ADD10R,0.04331X0.03937*%
%ADD11R,0.03937X0.04331*%
%ADD12R,0.05906X0.07677*%
%ADD13R,0.08465X0.06299*%
%ADD14C,0.00011*%
%ADD15R,0.03800X0.13200*%
%ADD16R,0.03150X0.03150*%
%ADD17R,0.01200X0.02600*%
%ADD18R,0.12200X0.03900*%
%ADD19R,0.01181X0.03150*%
%ADD20R,0.03150X0.01181*%
%ADD21R,0.01378X0.03150*%
%ADD22R,0.03346X0.01378*%
%ADD23R,0.10236X0.11024*%
%ADD24R,0.05512X0.01181*%
%ADD25R,0.01181X0.05512*%
%ADD26R,0.02756X0.03543*%
%ADD27R,0.05000X0.02500*%
%ADD28R,0.10000X0.05000*%
%ADD29R,0.02400X0.08700*%
%ADD30R,0.01969X0.01378*%
D10*
X0067378Y0009279D03*
X0067378Y0015971D03*
X0075078Y0015896D03*
X0075078Y0009204D03*
X0090132Y0031850D03*
X0096825Y0031850D03*
X0070100Y0041425D03*
X0063407Y0041425D03*
X0082132Y0076650D03*
X0088825Y0076650D03*
X0088625Y0084250D03*
X0081932Y0084250D03*
X0081932Y0091050D03*
X0088625Y0091050D03*
X0037825Y0126950D03*
X0031132Y0126950D03*
X0028432Y0156950D03*
X0035125Y0156950D03*
X0136778Y0141096D03*
X0142978Y0141196D03*
X0142978Y0134504D03*
X0136778Y0134404D03*
X0209832Y0086650D03*
X0216525Y0086650D03*
X0216525Y0079750D03*
X0209832Y0079750D03*
X0173175Y0046000D03*
X0166482Y0046000D03*
D11*
X0165478Y0030796D03*
X0165478Y0024104D03*
X0205078Y0024104D03*
X0205078Y0030796D03*
X0258178Y0023496D03*
X0258178Y0016804D03*
X0128278Y0056704D03*
X0128278Y0063396D03*
X0113425Y0052250D03*
X0106732Y0052250D03*
X0079253Y0033521D03*
X0072953Y0033521D03*
X0066053Y0033521D03*
X0066053Y0026829D03*
X0072953Y0026829D03*
X0079253Y0026829D03*
X0052600Y0047675D03*
X0045907Y0047675D03*
X0044253Y0038521D03*
X0044253Y0031829D03*
X0124878Y0030796D03*
X0124878Y0024104D03*
X0053678Y0086404D03*
X0053678Y0093096D03*
X0064178Y0109504D03*
X0064178Y0116196D03*
X0023825Y0108650D03*
X0017132Y0108650D03*
X0017132Y0099450D03*
X0023825Y0099450D03*
X0043178Y0153004D03*
X0043178Y0159696D03*
X0171178Y0127596D03*
X0171178Y0120904D03*
X0256132Y0122450D03*
X0262825Y0122450D03*
D12*
X0120878Y0063863D03*
X0120878Y0053037D03*
D13*
X0054253Y0035175D03*
D14*
X0054799Y0031036D02*
X0054799Y0027798D01*
X0053707Y0027798D01*
X0053707Y0031036D01*
X0054799Y0031036D01*
X0054799Y0027808D02*
X0053707Y0027808D01*
X0053707Y0027818D02*
X0054799Y0027818D01*
X0054799Y0027828D02*
X0053707Y0027828D01*
X0053707Y0027838D02*
X0054799Y0027838D01*
X0054799Y0027848D02*
X0053707Y0027848D01*
X0053707Y0027858D02*
X0054799Y0027858D01*
X0054799Y0027868D02*
X0053707Y0027868D01*
X0053707Y0027878D02*
X0054799Y0027878D01*
X0054799Y0027888D02*
X0053707Y0027888D01*
X0053707Y0027898D02*
X0054799Y0027898D01*
X0054799Y0027908D02*
X0053707Y0027908D01*
X0053707Y0027918D02*
X0054799Y0027918D01*
X0054799Y0027928D02*
X0053707Y0027928D01*
X0053707Y0027938D02*
X0054799Y0027938D01*
X0054799Y0027948D02*
X0053707Y0027948D01*
X0053707Y0027958D02*
X0054799Y0027958D01*
X0054799Y0027968D02*
X0053707Y0027968D01*
X0053707Y0027978D02*
X0054799Y0027978D01*
X0054799Y0027988D02*
X0053707Y0027988D01*
X0053707Y0027998D02*
X0054799Y0027998D01*
X0054799Y0028008D02*
X0053707Y0028008D01*
X0053707Y0028018D02*
X0054799Y0028018D01*
X0054799Y0028028D02*
X0053707Y0028028D01*
X0053707Y0028038D02*
X0054799Y0028038D01*
X0054799Y0028048D02*
X0053707Y0028048D01*
X0053707Y0028058D02*
X0054799Y0028058D01*
X0054799Y0028068D02*
X0053707Y0028068D01*
X0053707Y0028078D02*
X0054799Y0028078D01*
X0054799Y0028088D02*
X0053707Y0028088D01*
X0053707Y0028098D02*
X0054799Y0028098D01*
X0054799Y0028108D02*
X0053707Y0028108D01*
X0053707Y0028118D02*
X0054799Y0028118D01*
X0054799Y0028128D02*
X0053707Y0028128D01*
X0053707Y0028138D02*
X0054799Y0028138D01*
X0054799Y0028148D02*
X0053707Y0028148D01*
X0053707Y0028158D02*
X0054799Y0028158D01*
X0054799Y0028168D02*
X0053707Y0028168D01*
X0053707Y0028178D02*
X0054799Y0028178D01*
X0054799Y0028188D02*
X0053707Y0028188D01*
X0053707Y0028198D02*
X0054799Y0028198D01*
X0054799Y0028208D02*
X0053707Y0028208D01*
X0053707Y0028218D02*
X0054799Y0028218D01*
X0054799Y0028228D02*
X0053707Y0028228D01*
X0053707Y0028238D02*
X0054799Y0028238D01*
X0054799Y0028248D02*
X0053707Y0028248D01*
X0053707Y0028258D02*
X0054799Y0028258D01*
X0054799Y0028268D02*
X0053707Y0028268D01*
X0053707Y0028278D02*
X0054799Y0028278D01*
X0054799Y0028288D02*
X0053707Y0028288D01*
X0053707Y0028298D02*
X0054799Y0028298D01*
X0054799Y0028308D02*
X0053707Y0028308D01*
X0053707Y0028318D02*
X0054799Y0028318D01*
X0054799Y0028328D02*
X0053707Y0028328D01*
X0053707Y0028338D02*
X0054799Y0028338D01*
X0054799Y0028348D02*
X0053707Y0028348D01*
X0053707Y0028358D02*
X0054799Y0028358D01*
X0054799Y0028368D02*
X0053707Y0028368D01*
X0053707Y0028378D02*
X0054799Y0028378D01*
X0054799Y0028388D02*
X0053707Y0028388D01*
X0053707Y0028398D02*
X0054799Y0028398D01*
X0054799Y0028408D02*
X0053707Y0028408D01*
X0053707Y0028418D02*
X0054799Y0028418D01*
X0054799Y0028428D02*
X0053707Y0028428D01*
X0053707Y0028438D02*
X0054799Y0028438D01*
X0054799Y0028448D02*
X0053707Y0028448D01*
X0053707Y0028458D02*
X0054799Y0028458D01*
X0054799Y0028468D02*
X0053707Y0028468D01*
X0053707Y0028478D02*
X0054799Y0028478D01*
X0054799Y0028488D02*
X0053707Y0028488D01*
X0053707Y0028498D02*
X0054799Y0028498D01*
X0054799Y0028508D02*
X0053707Y0028508D01*
X0053707Y0028518D02*
X0054799Y0028518D01*
X0054799Y0028528D02*
X0053707Y0028528D01*
X0053707Y0028538D02*
X0054799Y0028538D01*
X0054799Y0028548D02*
X0053707Y0028548D01*
X0053707Y0028558D02*
X0054799Y0028558D01*
X0054799Y0028568D02*
X0053707Y0028568D01*
X0053707Y0028578D02*
X0054799Y0028578D01*
X0054799Y0028588D02*
X0053707Y0028588D01*
X0053707Y0028598D02*
X0054799Y0028598D01*
X0054799Y0028608D02*
X0053707Y0028608D01*
X0053707Y0028618D02*
X0054799Y0028618D01*
X0054799Y0028628D02*
X0053707Y0028628D01*
X0053707Y0028638D02*
X0054799Y0028638D01*
X0054799Y0028648D02*
X0053707Y0028648D01*
X0053707Y0028658D02*
X0054799Y0028658D01*
X0054799Y0028668D02*
X0053707Y0028668D01*
X0053707Y0028678D02*
X0054799Y0028678D01*
X0054799Y0028688D02*
X0053707Y0028688D01*
X0053707Y0028698D02*
X0054799Y0028698D01*
X0054799Y0028708D02*
X0053707Y0028708D01*
X0053707Y0028718D02*
X0054799Y0028718D01*
X0054799Y0028728D02*
X0053707Y0028728D01*
X0053707Y0028738D02*
X0054799Y0028738D01*
X0054799Y0028748D02*
X0053707Y0028748D01*
X0053707Y0028758D02*
X0054799Y0028758D01*
X0054799Y0028768D02*
X0053707Y0028768D01*
X0053707Y0028778D02*
X0054799Y0028778D01*
X0054799Y0028788D02*
X0053707Y0028788D01*
X0053707Y0028798D02*
X0054799Y0028798D01*
X0054799Y0028808D02*
X0053707Y0028808D01*
X0053707Y0028818D02*
X0054799Y0028818D01*
X0054799Y0028828D02*
X0053707Y0028828D01*
X0053707Y0028838D02*
X0054799Y0028838D01*
X0054799Y0028848D02*
X0053707Y0028848D01*
X0053707Y0028858D02*
X0054799Y0028858D01*
X0054799Y0028868D02*
X0053707Y0028868D01*
X0053707Y0028878D02*
X0054799Y0028878D01*
X0054799Y0028888D02*
X0053707Y0028888D01*
X0053707Y0028898D02*
X0054799Y0028898D01*
X0054799Y0028908D02*
X0053707Y0028908D01*
X0053707Y0028918D02*
X0054799Y0028918D01*
X0054799Y0028928D02*
X0053707Y0028928D01*
X0053707Y0028938D02*
X0054799Y0028938D01*
X0054799Y0028948D02*
X0053707Y0028948D01*
X0053707Y0028958D02*
X0054799Y0028958D01*
X0054799Y0028968D02*
X0053707Y0028968D01*
X0053707Y0028978D02*
X0054799Y0028978D01*
X0054799Y0028988D02*
X0053707Y0028988D01*
X0053707Y0028998D02*
X0054799Y0028998D01*
X0054799Y0029008D02*
X0053707Y0029008D01*
X0053707Y0029018D02*
X0054799Y0029018D01*
X0054799Y0029028D02*
X0053707Y0029028D01*
X0053707Y0029038D02*
X0054799Y0029038D01*
X0054799Y0029048D02*
X0053707Y0029048D01*
X0053707Y0029058D02*
X0054799Y0029058D01*
X0054799Y0029068D02*
X0053707Y0029068D01*
X0053707Y0029078D02*
X0054799Y0029078D01*
X0054799Y0029088D02*
X0053707Y0029088D01*
X0053707Y0029098D02*
X0054799Y0029098D01*
X0054799Y0029108D02*
X0053707Y0029108D01*
X0053707Y0029118D02*
X0054799Y0029118D01*
X0054799Y0029128D02*
X0053707Y0029128D01*
X0053707Y0029138D02*
X0054799Y0029138D01*
X0054799Y0029148D02*
X0053707Y0029148D01*
X0053707Y0029158D02*
X0054799Y0029158D01*
X0054799Y0029168D02*
X0053707Y0029168D01*
X0053707Y0029178D02*
X0054799Y0029178D01*
X0054799Y0029188D02*
X0053707Y0029188D01*
X0053707Y0029198D02*
X0054799Y0029198D01*
X0054799Y0029208D02*
X0053707Y0029208D01*
X0053707Y0029218D02*
X0054799Y0029218D01*
X0054799Y0029228D02*
X0053707Y0029228D01*
X0053707Y0029238D02*
X0054799Y0029238D01*
X0054799Y0029248D02*
X0053707Y0029248D01*
X0053707Y0029258D02*
X0054799Y0029258D01*
X0054799Y0029268D02*
X0053707Y0029268D01*
X0053707Y0029278D02*
X0054799Y0029278D01*
X0054799Y0029288D02*
X0053707Y0029288D01*
X0053707Y0029298D02*
X0054799Y0029298D01*
X0054799Y0029308D02*
X0053707Y0029308D01*
X0053707Y0029318D02*
X0054799Y0029318D01*
X0054799Y0029328D02*
X0053707Y0029328D01*
X0053707Y0029338D02*
X0054799Y0029338D01*
X0054799Y0029348D02*
X0053707Y0029348D01*
X0053707Y0029358D02*
X0054799Y0029358D01*
X0054799Y0029368D02*
X0053707Y0029368D01*
X0053707Y0029378D02*
X0054799Y0029378D01*
X0054799Y0029388D02*
X0053707Y0029388D01*
X0053707Y0029398D02*
X0054799Y0029398D01*
X0054799Y0029408D02*
X0053707Y0029408D01*
X0053707Y0029418D02*
X0054799Y0029418D01*
X0054799Y0029428D02*
X0053707Y0029428D01*
X0053707Y0029438D02*
X0054799Y0029438D01*
X0054799Y0029448D02*
X0053707Y0029448D01*
X0053707Y0029458D02*
X0054799Y0029458D01*
X0054799Y0029468D02*
X0053707Y0029468D01*
X0053707Y0029478D02*
X0054799Y0029478D01*
X0054799Y0029488D02*
X0053707Y0029488D01*
X0053707Y0029498D02*
X0054799Y0029498D01*
X0054799Y0029508D02*
X0053707Y0029508D01*
X0053707Y0029518D02*
X0054799Y0029518D01*
X0054799Y0029528D02*
X0053707Y0029528D01*
X0053707Y0029538D02*
X0054799Y0029538D01*
X0054799Y0029548D02*
X0053707Y0029548D01*
X0053707Y0029558D02*
X0054799Y0029558D01*
X0054799Y0029568D02*
X0053707Y0029568D01*
X0053707Y0029578D02*
X0054799Y0029578D01*
X0054799Y0029588D02*
X0053707Y0029588D01*
X0053707Y0029598D02*
X0054799Y0029598D01*
X0054799Y0029608D02*
X0053707Y0029608D01*
X0053707Y0029618D02*
X0054799Y0029618D01*
X0054799Y0029628D02*
X0053707Y0029628D01*
X0053707Y0029638D02*
X0054799Y0029638D01*
X0054799Y0029648D02*
X0053707Y0029648D01*
X0053707Y0029658D02*
X0054799Y0029658D01*
X0054799Y0029668D02*
X0053707Y0029668D01*
X0053707Y0029678D02*
X0054799Y0029678D01*
X0054799Y0029688D02*
X0053707Y0029688D01*
X0053707Y0029698D02*
X0054799Y0029698D01*
X0054799Y0029708D02*
X0053707Y0029708D01*
X0053707Y0029718D02*
X0054799Y0029718D01*
X0054799Y0029728D02*
X0053707Y0029728D01*
X0053707Y0029738D02*
X0054799Y0029738D01*
X0054799Y0029748D02*
X0053707Y0029748D01*
X0053707Y0029758D02*
X0054799Y0029758D01*
X0054799Y0029768D02*
X0053707Y0029768D01*
X0053707Y0029778D02*
X0054799Y0029778D01*
X0054799Y0029788D02*
X0053707Y0029788D01*
X0053707Y0029798D02*
X0054799Y0029798D01*
X0054799Y0029808D02*
X0053707Y0029808D01*
X0053707Y0029818D02*
X0054799Y0029818D01*
X0054799Y0029828D02*
X0053707Y0029828D01*
X0053707Y0029838D02*
X0054799Y0029838D01*
X0054799Y0029848D02*
X0053707Y0029848D01*
X0053707Y0029858D02*
X0054799Y0029858D01*
X0054799Y0029868D02*
X0053707Y0029868D01*
X0053707Y0029878D02*
X0054799Y0029878D01*
X0054799Y0029888D02*
X0053707Y0029888D01*
X0053707Y0029898D02*
X0054799Y0029898D01*
X0054799Y0029908D02*
X0053707Y0029908D01*
X0053707Y0029918D02*
X0054799Y0029918D01*
X0054799Y0029928D02*
X0053707Y0029928D01*
X0053707Y0029938D02*
X0054799Y0029938D01*
X0054799Y0029948D02*
X0053707Y0029948D01*
X0053707Y0029958D02*
X0054799Y0029958D01*
X0054799Y0029968D02*
X0053707Y0029968D01*
X0053707Y0029978D02*
X0054799Y0029978D01*
X0054799Y0029988D02*
X0053707Y0029988D01*
X0053707Y0029998D02*
X0054799Y0029998D01*
X0054799Y0030008D02*
X0053707Y0030008D01*
X0053707Y0030018D02*
X0054799Y0030018D01*
X0054799Y0030028D02*
X0053707Y0030028D01*
X0053707Y0030038D02*
X0054799Y0030038D01*
X0054799Y0030048D02*
X0053707Y0030048D01*
X0053707Y0030058D02*
X0054799Y0030058D01*
X0054799Y0030068D02*
X0053707Y0030068D01*
X0053707Y0030078D02*
X0054799Y0030078D01*
X0054799Y0030088D02*
X0053707Y0030088D01*
X0053707Y0030098D02*
X0054799Y0030098D01*
X0054799Y0030108D02*
X0053707Y0030108D01*
X0053707Y0030118D02*
X0054799Y0030118D01*
X0054799Y0030128D02*
X0053707Y0030128D01*
X0053707Y0030138D02*
X0054799Y0030138D01*
X0054799Y0030148D02*
X0053707Y0030148D01*
X0053707Y0030158D02*
X0054799Y0030158D01*
X0054799Y0030168D02*
X0053707Y0030168D01*
X0053707Y0030178D02*
X0054799Y0030178D01*
X0054799Y0030188D02*
X0053707Y0030188D01*
X0053707Y0030198D02*
X0054799Y0030198D01*
X0054799Y0030208D02*
X0053707Y0030208D01*
X0053707Y0030218D02*
X0054799Y0030218D01*
X0054799Y0030228D02*
X0053707Y0030228D01*
X0053707Y0030238D02*
X0054799Y0030238D01*
X0054799Y0030248D02*
X0053707Y0030248D01*
X0053707Y0030258D02*
X0054799Y0030258D01*
X0054799Y0030268D02*
X0053707Y0030268D01*
X0053707Y0030278D02*
X0054799Y0030278D01*
X0054799Y0030288D02*
X0053707Y0030288D01*
X0053707Y0030298D02*
X0054799Y0030298D01*
X0054799Y0030308D02*
X0053707Y0030308D01*
X0053707Y0030318D02*
X0054799Y0030318D01*
X0054799Y0030328D02*
X0053707Y0030328D01*
X0053707Y0030338D02*
X0054799Y0030338D01*
X0054799Y0030348D02*
X0053707Y0030348D01*
X0053707Y0030358D02*
X0054799Y0030358D01*
X0054799Y0030368D02*
X0053707Y0030368D01*
X0053707Y0030378D02*
X0054799Y0030378D01*
X0054799Y0030388D02*
X0053707Y0030388D01*
X0053707Y0030398D02*
X0054799Y0030398D01*
X0054799Y0030408D02*
X0053707Y0030408D01*
X0053707Y0030418D02*
X0054799Y0030418D01*
X0054799Y0030428D02*
X0053707Y0030428D01*
X0053707Y0030438D02*
X0054799Y0030438D01*
X0054799Y0030448D02*
X0053707Y0030448D01*
X0053707Y0030458D02*
X0054799Y0030458D01*
X0054799Y0030468D02*
X0053707Y0030468D01*
X0053707Y0030478D02*
X0054799Y0030478D01*
X0054799Y0030488D02*
X0053707Y0030488D01*
X0053707Y0030498D02*
X0054799Y0030498D01*
X0054799Y0030508D02*
X0053707Y0030508D01*
X0053707Y0030518D02*
X0054799Y0030518D01*
X0054799Y0030528D02*
X0053707Y0030528D01*
X0053707Y0030538D02*
X0054799Y0030538D01*
X0054799Y0030548D02*
X0053707Y0030548D01*
X0053707Y0030558D02*
X0054799Y0030558D01*
X0054799Y0030568D02*
X0053707Y0030568D01*
X0053707Y0030578D02*
X0054799Y0030578D01*
X0054799Y0030588D02*
X0053707Y0030588D01*
X0053707Y0030598D02*
X0054799Y0030598D01*
X0054799Y0030608D02*
X0053707Y0030608D01*
X0053707Y0030618D02*
X0054799Y0030618D01*
X0054799Y0030628D02*
X0053707Y0030628D01*
X0053707Y0030638D02*
X0054799Y0030638D01*
X0054799Y0030648D02*
X0053707Y0030648D01*
X0053707Y0030658D02*
X0054799Y0030658D01*
X0054799Y0030668D02*
X0053707Y0030668D01*
X0053707Y0030678D02*
X0054799Y0030678D01*
X0054799Y0030688D02*
X0053707Y0030688D01*
X0053707Y0030698D02*
X0054799Y0030698D01*
X0054799Y0030708D02*
X0053707Y0030708D01*
X0053707Y0030718D02*
X0054799Y0030718D01*
X0054799Y0030728D02*
X0053707Y0030728D01*
X0053707Y0030738D02*
X0054799Y0030738D01*
X0054799Y0030748D02*
X0053707Y0030748D01*
X0053707Y0030758D02*
X0054799Y0030758D01*
X0054799Y0030768D02*
X0053707Y0030768D01*
X0053707Y0030778D02*
X0054799Y0030778D01*
X0054799Y0030788D02*
X0053707Y0030788D01*
X0053707Y0030798D02*
X0054799Y0030798D01*
X0054799Y0030808D02*
X0053707Y0030808D01*
X0053707Y0030818D02*
X0054799Y0030818D01*
X0054799Y0030828D02*
X0053707Y0030828D01*
X0053707Y0030838D02*
X0054799Y0030838D01*
X0054799Y0030848D02*
X0053707Y0030848D01*
X0053707Y0030858D02*
X0054799Y0030858D01*
X0054799Y0030868D02*
X0053707Y0030868D01*
X0053707Y0030878D02*
X0054799Y0030878D01*
X0054799Y0030888D02*
X0053707Y0030888D01*
X0053707Y0030898D02*
X0054799Y0030898D01*
X0054799Y0030908D02*
X0053707Y0030908D01*
X0053707Y0030918D02*
X0054799Y0030918D01*
X0054799Y0030928D02*
X0053707Y0030928D01*
X0053707Y0030938D02*
X0054799Y0030938D01*
X0054799Y0030948D02*
X0053707Y0030948D01*
X0053707Y0030958D02*
X0054799Y0030958D01*
X0054799Y0030968D02*
X0053707Y0030968D01*
X0053707Y0030978D02*
X0054799Y0030978D01*
X0054799Y0030988D02*
X0053707Y0030988D01*
X0053707Y0030998D02*
X0054799Y0030998D01*
X0054799Y0031008D02*
X0053707Y0031008D01*
X0053707Y0031018D02*
X0054799Y0031018D01*
X0054799Y0031028D02*
X0053707Y0031028D01*
X0052831Y0031036D02*
X0052831Y0027798D01*
X0051739Y0027798D01*
X0051739Y0031036D01*
X0052831Y0031036D01*
X0052831Y0027808D02*
X0051739Y0027808D01*
X0051739Y0027818D02*
X0052831Y0027818D01*
X0052831Y0027828D02*
X0051739Y0027828D01*
X0051739Y0027838D02*
X0052831Y0027838D01*
X0052831Y0027848D02*
X0051739Y0027848D01*
X0051739Y0027858D02*
X0052831Y0027858D01*
X0052831Y0027868D02*
X0051739Y0027868D01*
X0051739Y0027878D02*
X0052831Y0027878D01*
X0052831Y0027888D02*
X0051739Y0027888D01*
X0051739Y0027898D02*
X0052831Y0027898D01*
X0052831Y0027908D02*
X0051739Y0027908D01*
X0051739Y0027918D02*
X0052831Y0027918D01*
X0052831Y0027928D02*
X0051739Y0027928D01*
X0051739Y0027938D02*
X0052831Y0027938D01*
X0052831Y0027948D02*
X0051739Y0027948D01*
X0051739Y0027958D02*
X0052831Y0027958D01*
X0052831Y0027968D02*
X0051739Y0027968D01*
X0051739Y0027978D02*
X0052831Y0027978D01*
X0052831Y0027988D02*
X0051739Y0027988D01*
X0051739Y0027998D02*
X0052831Y0027998D01*
X0052831Y0028008D02*
X0051739Y0028008D01*
X0051739Y0028018D02*
X0052831Y0028018D01*
X0052831Y0028028D02*
X0051739Y0028028D01*
X0051739Y0028038D02*
X0052831Y0028038D01*
X0052831Y0028048D02*
X0051739Y0028048D01*
X0051739Y0028058D02*
X0052831Y0028058D01*
X0052831Y0028068D02*
X0051739Y0028068D01*
X0051739Y0028078D02*
X0052831Y0028078D01*
X0052831Y0028088D02*
X0051739Y0028088D01*
X0051739Y0028098D02*
X0052831Y0028098D01*
X0052831Y0028108D02*
X0051739Y0028108D01*
X0051739Y0028118D02*
X0052831Y0028118D01*
X0052831Y0028128D02*
X0051739Y0028128D01*
X0051739Y0028138D02*
X0052831Y0028138D01*
X0052831Y0028148D02*
X0051739Y0028148D01*
X0051739Y0028158D02*
X0052831Y0028158D01*
X0052831Y0028168D02*
X0051739Y0028168D01*
X0051739Y0028178D02*
X0052831Y0028178D01*
X0052831Y0028188D02*
X0051739Y0028188D01*
X0051739Y0028198D02*
X0052831Y0028198D01*
X0052831Y0028208D02*
X0051739Y0028208D01*
X0051739Y0028218D02*
X0052831Y0028218D01*
X0052831Y0028228D02*
X0051739Y0028228D01*
X0051739Y0028238D02*
X0052831Y0028238D01*
X0052831Y0028248D02*
X0051739Y0028248D01*
X0051739Y0028258D02*
X0052831Y0028258D01*
X0052831Y0028268D02*
X0051739Y0028268D01*
X0051739Y0028278D02*
X0052831Y0028278D01*
X0052831Y0028288D02*
X0051739Y0028288D01*
X0051739Y0028298D02*
X0052831Y0028298D01*
X0052831Y0028308D02*
X0051739Y0028308D01*
X0051739Y0028318D02*
X0052831Y0028318D01*
X0052831Y0028328D02*
X0051739Y0028328D01*
X0051739Y0028338D02*
X0052831Y0028338D01*
X0052831Y0028348D02*
X0051739Y0028348D01*
X0051739Y0028358D02*
X0052831Y0028358D01*
X0052831Y0028368D02*
X0051739Y0028368D01*
X0051739Y0028378D02*
X0052831Y0028378D01*
X0052831Y0028388D02*
X0051739Y0028388D01*
X0051739Y0028398D02*
X0052831Y0028398D01*
X0052831Y0028408D02*
X0051739Y0028408D01*
X0051739Y0028418D02*
X0052831Y0028418D01*
X0052831Y0028428D02*
X0051739Y0028428D01*
X0051739Y0028438D02*
X0052831Y0028438D01*
X0052831Y0028448D02*
X0051739Y0028448D01*
X0051739Y0028458D02*
X0052831Y0028458D01*
X0052831Y0028468D02*
X0051739Y0028468D01*
X0051739Y0028478D02*
X0052831Y0028478D01*
X0052831Y0028488D02*
X0051739Y0028488D01*
X0051739Y0028498D02*
X0052831Y0028498D01*
X0052831Y0028508D02*
X0051739Y0028508D01*
X0051739Y0028518D02*
X0052831Y0028518D01*
X0052831Y0028528D02*
X0051739Y0028528D01*
X0051739Y0028538D02*
X0052831Y0028538D01*
X0052831Y0028548D02*
X0051739Y0028548D01*
X0051739Y0028558D02*
X0052831Y0028558D01*
X0052831Y0028568D02*
X0051739Y0028568D01*
X0051739Y0028578D02*
X0052831Y0028578D01*
X0052831Y0028588D02*
X0051739Y0028588D01*
X0051739Y0028598D02*
X0052831Y0028598D01*
X0052831Y0028608D02*
X0051739Y0028608D01*
X0051739Y0028618D02*
X0052831Y0028618D01*
X0052831Y0028628D02*
X0051739Y0028628D01*
X0051739Y0028638D02*
X0052831Y0028638D01*
X0052831Y0028648D02*
X0051739Y0028648D01*
X0051739Y0028658D02*
X0052831Y0028658D01*
X0052831Y0028668D02*
X0051739Y0028668D01*
X0051739Y0028678D02*
X0052831Y0028678D01*
X0052831Y0028688D02*
X0051739Y0028688D01*
X0051739Y0028698D02*
X0052831Y0028698D01*
X0052831Y0028708D02*
X0051739Y0028708D01*
X0051739Y0028718D02*
X0052831Y0028718D01*
X0052831Y0028728D02*
X0051739Y0028728D01*
X0051739Y0028738D02*
X0052831Y0028738D01*
X0052831Y0028748D02*
X0051739Y0028748D01*
X0051739Y0028758D02*
X0052831Y0028758D01*
X0052831Y0028768D02*
X0051739Y0028768D01*
X0051739Y0028778D02*
X0052831Y0028778D01*
X0052831Y0028788D02*
X0051739Y0028788D01*
X0051739Y0028798D02*
X0052831Y0028798D01*
X0052831Y0028808D02*
X0051739Y0028808D01*
X0051739Y0028818D02*
X0052831Y0028818D01*
X0052831Y0028828D02*
X0051739Y0028828D01*
X0051739Y0028838D02*
X0052831Y0028838D01*
X0052831Y0028848D02*
X0051739Y0028848D01*
X0051739Y0028858D02*
X0052831Y0028858D01*
X0052831Y0028868D02*
X0051739Y0028868D01*
X0051739Y0028878D02*
X0052831Y0028878D01*
X0052831Y0028888D02*
X0051739Y0028888D01*
X0051739Y0028898D02*
X0052831Y0028898D01*
X0052831Y0028908D02*
X0051739Y0028908D01*
X0051739Y0028918D02*
X0052831Y0028918D01*
X0052831Y0028928D02*
X0051739Y0028928D01*
X0051739Y0028938D02*
X0052831Y0028938D01*
X0052831Y0028948D02*
X0051739Y0028948D01*
X0051739Y0028958D02*
X0052831Y0028958D01*
X0052831Y0028968D02*
X0051739Y0028968D01*
X0051739Y0028978D02*
X0052831Y0028978D01*
X0052831Y0028988D02*
X0051739Y0028988D01*
X0051739Y0028998D02*
X0052831Y0028998D01*
X0052831Y0029008D02*
X0051739Y0029008D01*
X0051739Y0029018D02*
X0052831Y0029018D01*
X0052831Y0029028D02*
X0051739Y0029028D01*
X0051739Y0029038D02*
X0052831Y0029038D01*
X0052831Y0029048D02*
X0051739Y0029048D01*
X0051739Y0029058D02*
X0052831Y0029058D01*
X0052831Y0029068D02*
X0051739Y0029068D01*
X0051739Y0029078D02*
X0052831Y0029078D01*
X0052831Y0029088D02*
X0051739Y0029088D01*
X0051739Y0029098D02*
X0052831Y0029098D01*
X0052831Y0029108D02*
X0051739Y0029108D01*
X0051739Y0029118D02*
X0052831Y0029118D01*
X0052831Y0029128D02*
X0051739Y0029128D01*
X0051739Y0029138D02*
X0052831Y0029138D01*
X0052831Y0029148D02*
X0051739Y0029148D01*
X0051739Y0029158D02*
X0052831Y0029158D01*
X0052831Y0029168D02*
X0051739Y0029168D01*
X0051739Y0029178D02*
X0052831Y0029178D01*
X0052831Y0029188D02*
X0051739Y0029188D01*
X0051739Y0029198D02*
X0052831Y0029198D01*
X0052831Y0029208D02*
X0051739Y0029208D01*
X0051739Y0029218D02*
X0052831Y0029218D01*
X0052831Y0029228D02*
X0051739Y0029228D01*
X0051739Y0029238D02*
X0052831Y0029238D01*
X0052831Y0029248D02*
X0051739Y0029248D01*
X0051739Y0029258D02*
X0052831Y0029258D01*
X0052831Y0029268D02*
X0051739Y0029268D01*
X0051739Y0029278D02*
X0052831Y0029278D01*
X0052831Y0029288D02*
X0051739Y0029288D01*
X0051739Y0029298D02*
X0052831Y0029298D01*
X0052831Y0029308D02*
X0051739Y0029308D01*
X0051739Y0029318D02*
X0052831Y0029318D01*
X0052831Y0029328D02*
X0051739Y0029328D01*
X0051739Y0029338D02*
X0052831Y0029338D01*
X0052831Y0029348D02*
X0051739Y0029348D01*
X0051739Y0029358D02*
X0052831Y0029358D01*
X0052831Y0029368D02*
X0051739Y0029368D01*
X0051739Y0029378D02*
X0052831Y0029378D01*
X0052831Y0029388D02*
X0051739Y0029388D01*
X0051739Y0029398D02*
X0052831Y0029398D01*
X0052831Y0029408D02*
X0051739Y0029408D01*
X0051739Y0029418D02*
X0052831Y0029418D01*
X0052831Y0029428D02*
X0051739Y0029428D01*
X0051739Y0029438D02*
X0052831Y0029438D01*
X0052831Y0029448D02*
X0051739Y0029448D01*
X0051739Y0029458D02*
X0052831Y0029458D01*
X0052831Y0029468D02*
X0051739Y0029468D01*
X0051739Y0029478D02*
X0052831Y0029478D01*
X0052831Y0029488D02*
X0051739Y0029488D01*
X0051739Y0029498D02*
X0052831Y0029498D01*
X0052831Y0029508D02*
X0051739Y0029508D01*
X0051739Y0029518D02*
X0052831Y0029518D01*
X0052831Y0029528D02*
X0051739Y0029528D01*
X0051739Y0029538D02*
X0052831Y0029538D01*
X0052831Y0029548D02*
X0051739Y0029548D01*
X0051739Y0029558D02*
X0052831Y0029558D01*
X0052831Y0029568D02*
X0051739Y0029568D01*
X0051739Y0029578D02*
X0052831Y0029578D01*
X0052831Y0029588D02*
X0051739Y0029588D01*
X0051739Y0029598D02*
X0052831Y0029598D01*
X0052831Y0029608D02*
X0051739Y0029608D01*
X0051739Y0029618D02*
X0052831Y0029618D01*
X0052831Y0029628D02*
X0051739Y0029628D01*
X0051739Y0029638D02*
X0052831Y0029638D01*
X0052831Y0029648D02*
X0051739Y0029648D01*
X0051739Y0029658D02*
X0052831Y0029658D01*
X0052831Y0029668D02*
X0051739Y0029668D01*
X0051739Y0029678D02*
X0052831Y0029678D01*
X0052831Y0029688D02*
X0051739Y0029688D01*
X0051739Y0029698D02*
X0052831Y0029698D01*
X0052831Y0029708D02*
X0051739Y0029708D01*
X0051739Y0029718D02*
X0052831Y0029718D01*
X0052831Y0029728D02*
X0051739Y0029728D01*
X0051739Y0029738D02*
X0052831Y0029738D01*
X0052831Y0029748D02*
X0051739Y0029748D01*
X0051739Y0029758D02*
X0052831Y0029758D01*
X0052831Y0029768D02*
X0051739Y0029768D01*
X0051739Y0029778D02*
X0052831Y0029778D01*
X0052831Y0029788D02*
X0051739Y0029788D01*
X0051739Y0029798D02*
X0052831Y0029798D01*
X0052831Y0029808D02*
X0051739Y0029808D01*
X0051739Y0029818D02*
X0052831Y0029818D01*
X0052831Y0029828D02*
X0051739Y0029828D01*
X0051739Y0029838D02*
X0052831Y0029838D01*
X0052831Y0029848D02*
X0051739Y0029848D01*
X0051739Y0029858D02*
X0052831Y0029858D01*
X0052831Y0029868D02*
X0051739Y0029868D01*
X0051739Y0029878D02*
X0052831Y0029878D01*
X0052831Y0029888D02*
X0051739Y0029888D01*
X0051739Y0029898D02*
X0052831Y0029898D01*
X0052831Y0029908D02*
X0051739Y0029908D01*
X0051739Y0029918D02*
X0052831Y0029918D01*
X0052831Y0029928D02*
X0051739Y0029928D01*
X0051739Y0029938D02*
X0052831Y0029938D01*
X0052831Y0029948D02*
X0051739Y0029948D01*
X0051739Y0029958D02*
X0052831Y0029958D01*
X0052831Y0029968D02*
X0051739Y0029968D01*
X0051739Y0029978D02*
X0052831Y0029978D01*
X0052831Y0029988D02*
X0051739Y0029988D01*
X0051739Y0029998D02*
X0052831Y0029998D01*
X0052831Y0030008D02*
X0051739Y0030008D01*
X0051739Y0030018D02*
X0052831Y0030018D01*
X0052831Y0030028D02*
X0051739Y0030028D01*
X0051739Y0030038D02*
X0052831Y0030038D01*
X0052831Y0030048D02*
X0051739Y0030048D01*
X0051739Y0030058D02*
X0052831Y0030058D01*
X0052831Y0030068D02*
X0051739Y0030068D01*
X0051739Y0030078D02*
X0052831Y0030078D01*
X0052831Y0030088D02*
X0051739Y0030088D01*
X0051739Y0030098D02*
X0052831Y0030098D01*
X0052831Y0030108D02*
X0051739Y0030108D01*
X0051739Y0030118D02*
X0052831Y0030118D01*
X0052831Y0030128D02*
X0051739Y0030128D01*
X0051739Y0030138D02*
X0052831Y0030138D01*
X0052831Y0030148D02*
X0051739Y0030148D01*
X0051739Y0030158D02*
X0052831Y0030158D01*
X0052831Y0030168D02*
X0051739Y0030168D01*
X0051739Y0030178D02*
X0052831Y0030178D01*
X0052831Y0030188D02*
X0051739Y0030188D01*
X0051739Y0030198D02*
X0052831Y0030198D01*
X0052831Y0030208D02*
X0051739Y0030208D01*
X0051739Y0030218D02*
X0052831Y0030218D01*
X0052831Y0030228D02*
X0051739Y0030228D01*
X0051739Y0030238D02*
X0052831Y0030238D01*
X0052831Y0030248D02*
X0051739Y0030248D01*
X0051739Y0030258D02*
X0052831Y0030258D01*
X0052831Y0030268D02*
X0051739Y0030268D01*
X0051739Y0030278D02*
X0052831Y0030278D01*
X0052831Y0030288D02*
X0051739Y0030288D01*
X0051739Y0030298D02*
X0052831Y0030298D01*
X0052831Y0030308D02*
X0051739Y0030308D01*
X0051739Y0030318D02*
X0052831Y0030318D01*
X0052831Y0030328D02*
X0051739Y0030328D01*
X0051739Y0030338D02*
X0052831Y0030338D01*
X0052831Y0030348D02*
X0051739Y0030348D01*
X0051739Y0030358D02*
X0052831Y0030358D01*
X0052831Y0030368D02*
X0051739Y0030368D01*
X0051739Y0030378D02*
X0052831Y0030378D01*
X0052831Y0030388D02*
X0051739Y0030388D01*
X0051739Y0030398D02*
X0052831Y0030398D01*
X0052831Y0030408D02*
X0051739Y0030408D01*
X0051739Y0030418D02*
X0052831Y0030418D01*
X0052831Y0030428D02*
X0051739Y0030428D01*
X0051739Y0030438D02*
X0052831Y0030438D01*
X0052831Y0030448D02*
X0051739Y0030448D01*
X0051739Y0030458D02*
X0052831Y0030458D01*
X0052831Y0030468D02*
X0051739Y0030468D01*
X0051739Y0030478D02*
X0052831Y0030478D01*
X0052831Y0030488D02*
X0051739Y0030488D01*
X0051739Y0030498D02*
X0052831Y0030498D01*
X0052831Y0030508D02*
X0051739Y0030508D01*
X0051739Y0030518D02*
X0052831Y0030518D01*
X0052831Y0030528D02*
X0051739Y0030528D01*
X0051739Y0030538D02*
X0052831Y0030538D01*
X0052831Y0030548D02*
X0051739Y0030548D01*
X0051739Y0030558D02*
X0052831Y0030558D01*
X0052831Y0030568D02*
X0051739Y0030568D01*
X0051739Y0030578D02*
X0052831Y0030578D01*
X0052831Y0030588D02*
X0051739Y0030588D01*
X0051739Y0030598D02*
X0052831Y0030598D01*
X0052831Y0030608D02*
X0051739Y0030608D01*
X0051739Y0030618D02*
X0052831Y0030618D01*
X0052831Y0030628D02*
X0051739Y0030628D01*
X0051739Y0030638D02*
X0052831Y0030638D01*
X0052831Y0030648D02*
X0051739Y0030648D01*
X0051739Y0030658D02*
X0052831Y0030658D01*
X0052831Y0030668D02*
X0051739Y0030668D01*
X0051739Y0030678D02*
X0052831Y0030678D01*
X0052831Y0030688D02*
X0051739Y0030688D01*
X0051739Y0030698D02*
X0052831Y0030698D01*
X0052831Y0030708D02*
X0051739Y0030708D01*
X0051739Y0030718D02*
X0052831Y0030718D01*
X0052831Y0030728D02*
X0051739Y0030728D01*
X0051739Y0030738D02*
X0052831Y0030738D01*
X0052831Y0030748D02*
X0051739Y0030748D01*
X0051739Y0030758D02*
X0052831Y0030758D01*
X0052831Y0030768D02*
X0051739Y0030768D01*
X0051739Y0030778D02*
X0052831Y0030778D01*
X0052831Y0030788D02*
X0051739Y0030788D01*
X0051739Y0030798D02*
X0052831Y0030798D01*
X0052831Y0030808D02*
X0051739Y0030808D01*
X0051739Y0030818D02*
X0052831Y0030818D01*
X0052831Y0030828D02*
X0051739Y0030828D01*
X0051739Y0030838D02*
X0052831Y0030838D01*
X0052831Y0030848D02*
X0051739Y0030848D01*
X0051739Y0030858D02*
X0052831Y0030858D01*
X0052831Y0030868D02*
X0051739Y0030868D01*
X0051739Y0030878D02*
X0052831Y0030878D01*
X0052831Y0030888D02*
X0051739Y0030888D01*
X0051739Y0030898D02*
X0052831Y0030898D01*
X0052831Y0030908D02*
X0051739Y0030908D01*
X0051739Y0030918D02*
X0052831Y0030918D01*
X0052831Y0030928D02*
X0051739Y0030928D01*
X0051739Y0030938D02*
X0052831Y0030938D01*
X0052831Y0030948D02*
X0051739Y0030948D01*
X0051739Y0030958D02*
X0052831Y0030958D01*
X0052831Y0030968D02*
X0051739Y0030968D01*
X0051739Y0030978D02*
X0052831Y0030978D01*
X0052831Y0030988D02*
X0051739Y0030988D01*
X0051739Y0030998D02*
X0052831Y0030998D01*
X0052831Y0031008D02*
X0051739Y0031008D01*
X0051739Y0031018D02*
X0052831Y0031018D01*
X0052831Y0031028D02*
X0051739Y0031028D01*
X0050862Y0031036D02*
X0050862Y0027798D01*
X0049770Y0027798D01*
X0049770Y0031036D01*
X0050862Y0031036D01*
X0050862Y0027808D02*
X0049770Y0027808D01*
X0049770Y0027818D02*
X0050862Y0027818D01*
X0050862Y0027828D02*
X0049770Y0027828D01*
X0049770Y0027838D02*
X0050862Y0027838D01*
X0050862Y0027848D02*
X0049770Y0027848D01*
X0049770Y0027858D02*
X0050862Y0027858D01*
X0050862Y0027868D02*
X0049770Y0027868D01*
X0049770Y0027878D02*
X0050862Y0027878D01*
X0050862Y0027888D02*
X0049770Y0027888D01*
X0049770Y0027898D02*
X0050862Y0027898D01*
X0050862Y0027908D02*
X0049770Y0027908D01*
X0049770Y0027918D02*
X0050862Y0027918D01*
X0050862Y0027928D02*
X0049770Y0027928D01*
X0049770Y0027938D02*
X0050862Y0027938D01*
X0050862Y0027948D02*
X0049770Y0027948D01*
X0049770Y0027958D02*
X0050862Y0027958D01*
X0050862Y0027968D02*
X0049770Y0027968D01*
X0049770Y0027978D02*
X0050862Y0027978D01*
X0050862Y0027988D02*
X0049770Y0027988D01*
X0049770Y0027998D02*
X0050862Y0027998D01*
X0050862Y0028008D02*
X0049770Y0028008D01*
X0049770Y0028018D02*
X0050862Y0028018D01*
X0050862Y0028028D02*
X0049770Y0028028D01*
X0049770Y0028038D02*
X0050862Y0028038D01*
X0050862Y0028048D02*
X0049770Y0028048D01*
X0049770Y0028058D02*
X0050862Y0028058D01*
X0050862Y0028068D02*
X0049770Y0028068D01*
X0049770Y0028078D02*
X0050862Y0028078D01*
X0050862Y0028088D02*
X0049770Y0028088D01*
X0049770Y0028098D02*
X0050862Y0028098D01*
X0050862Y0028108D02*
X0049770Y0028108D01*
X0049770Y0028118D02*
X0050862Y0028118D01*
X0050862Y0028128D02*
X0049770Y0028128D01*
X0049770Y0028138D02*
X0050862Y0028138D01*
X0050862Y0028148D02*
X0049770Y0028148D01*
X0049770Y0028158D02*
X0050862Y0028158D01*
X0050862Y0028168D02*
X0049770Y0028168D01*
X0049770Y0028178D02*
X0050862Y0028178D01*
X0050862Y0028188D02*
X0049770Y0028188D01*
X0049770Y0028198D02*
X0050862Y0028198D01*
X0050862Y0028208D02*
X0049770Y0028208D01*
X0049770Y0028218D02*
X0050862Y0028218D01*
X0050862Y0028228D02*
X0049770Y0028228D01*
X0049770Y0028238D02*
X0050862Y0028238D01*
X0050862Y0028248D02*
X0049770Y0028248D01*
X0049770Y0028258D02*
X0050862Y0028258D01*
X0050862Y0028268D02*
X0049770Y0028268D01*
X0049770Y0028278D02*
X0050862Y0028278D01*
X0050862Y0028288D02*
X0049770Y0028288D01*
X0049770Y0028298D02*
X0050862Y0028298D01*
X0050862Y0028308D02*
X0049770Y0028308D01*
X0049770Y0028318D02*
X0050862Y0028318D01*
X0050862Y0028328D02*
X0049770Y0028328D01*
X0049770Y0028338D02*
X0050862Y0028338D01*
X0050862Y0028348D02*
X0049770Y0028348D01*
X0049770Y0028358D02*
X0050862Y0028358D01*
X0050862Y0028368D02*
X0049770Y0028368D01*
X0049770Y0028378D02*
X0050862Y0028378D01*
X0050862Y0028388D02*
X0049770Y0028388D01*
X0049770Y0028398D02*
X0050862Y0028398D01*
X0050862Y0028408D02*
X0049770Y0028408D01*
X0049770Y0028418D02*
X0050862Y0028418D01*
X0050862Y0028428D02*
X0049770Y0028428D01*
X0049770Y0028438D02*
X0050862Y0028438D01*
X0050862Y0028448D02*
X0049770Y0028448D01*
X0049770Y0028458D02*
X0050862Y0028458D01*
X0050862Y0028468D02*
X0049770Y0028468D01*
X0049770Y0028478D02*
X0050862Y0028478D01*
X0050862Y0028488D02*
X0049770Y0028488D01*
X0049770Y0028498D02*
X0050862Y0028498D01*
X0050862Y0028508D02*
X0049770Y0028508D01*
X0049770Y0028518D02*
X0050862Y0028518D01*
X0050862Y0028528D02*
X0049770Y0028528D01*
X0049770Y0028538D02*
X0050862Y0028538D01*
X0050862Y0028548D02*
X0049770Y0028548D01*
X0049770Y0028558D02*
X0050862Y0028558D01*
X0050862Y0028568D02*
X0049770Y0028568D01*
X0049770Y0028578D02*
X0050862Y0028578D01*
X0050862Y0028588D02*
X0049770Y0028588D01*
X0049770Y0028598D02*
X0050862Y0028598D01*
X0050862Y0028608D02*
X0049770Y0028608D01*
X0049770Y0028618D02*
X0050862Y0028618D01*
X0050862Y0028628D02*
X0049770Y0028628D01*
X0049770Y0028638D02*
X0050862Y0028638D01*
X0050862Y0028648D02*
X0049770Y0028648D01*
X0049770Y0028658D02*
X0050862Y0028658D01*
X0050862Y0028668D02*
X0049770Y0028668D01*
X0049770Y0028678D02*
X0050862Y0028678D01*
X0050862Y0028688D02*
X0049770Y0028688D01*
X0049770Y0028698D02*
X0050862Y0028698D01*
X0050862Y0028708D02*
X0049770Y0028708D01*
X0049770Y0028718D02*
X0050862Y0028718D01*
X0050862Y0028728D02*
X0049770Y0028728D01*
X0049770Y0028738D02*
X0050862Y0028738D01*
X0050862Y0028748D02*
X0049770Y0028748D01*
X0049770Y0028758D02*
X0050862Y0028758D01*
X0050862Y0028768D02*
X0049770Y0028768D01*
X0049770Y0028778D02*
X0050862Y0028778D01*
X0050862Y0028788D02*
X0049770Y0028788D01*
X0049770Y0028798D02*
X0050862Y0028798D01*
X0050862Y0028808D02*
X0049770Y0028808D01*
X0049770Y0028818D02*
X0050862Y0028818D01*
X0050862Y0028828D02*
X0049770Y0028828D01*
X0049770Y0028838D02*
X0050862Y0028838D01*
X0050862Y0028848D02*
X0049770Y0028848D01*
X0049770Y0028858D02*
X0050862Y0028858D01*
X0050862Y0028868D02*
X0049770Y0028868D01*
X0049770Y0028878D02*
X0050862Y0028878D01*
X0050862Y0028888D02*
X0049770Y0028888D01*
X0049770Y0028898D02*
X0050862Y0028898D01*
X0050862Y0028908D02*
X0049770Y0028908D01*
X0049770Y0028918D02*
X0050862Y0028918D01*
X0050862Y0028928D02*
X0049770Y0028928D01*
X0049770Y0028938D02*
X0050862Y0028938D01*
X0050862Y0028948D02*
X0049770Y0028948D01*
X0049770Y0028958D02*
X0050862Y0028958D01*
X0050862Y0028968D02*
X0049770Y0028968D01*
X0049770Y0028978D02*
X0050862Y0028978D01*
X0050862Y0028988D02*
X0049770Y0028988D01*
X0049770Y0028998D02*
X0050862Y0028998D01*
X0050862Y0029008D02*
X0049770Y0029008D01*
X0049770Y0029018D02*
X0050862Y0029018D01*
X0050862Y0029028D02*
X0049770Y0029028D01*
X0049770Y0029038D02*
X0050862Y0029038D01*
X0050862Y0029048D02*
X0049770Y0029048D01*
X0049770Y0029058D02*
X0050862Y0029058D01*
X0050862Y0029068D02*
X0049770Y0029068D01*
X0049770Y0029078D02*
X0050862Y0029078D01*
X0050862Y0029088D02*
X0049770Y0029088D01*
X0049770Y0029098D02*
X0050862Y0029098D01*
X0050862Y0029108D02*
X0049770Y0029108D01*
X0049770Y0029118D02*
X0050862Y0029118D01*
X0050862Y0029128D02*
X0049770Y0029128D01*
X0049770Y0029138D02*
X0050862Y0029138D01*
X0050862Y0029148D02*
X0049770Y0029148D01*
X0049770Y0029158D02*
X0050862Y0029158D01*
X0050862Y0029168D02*
X0049770Y0029168D01*
X0049770Y0029178D02*
X0050862Y0029178D01*
X0050862Y0029188D02*
X0049770Y0029188D01*
X0049770Y0029198D02*
X0050862Y0029198D01*
X0050862Y0029208D02*
X0049770Y0029208D01*
X0049770Y0029218D02*
X0050862Y0029218D01*
X0050862Y0029228D02*
X0049770Y0029228D01*
X0049770Y0029238D02*
X0050862Y0029238D01*
X0050862Y0029248D02*
X0049770Y0029248D01*
X0049770Y0029258D02*
X0050862Y0029258D01*
X0050862Y0029268D02*
X0049770Y0029268D01*
X0049770Y0029278D02*
X0050862Y0029278D01*
X0050862Y0029288D02*
X0049770Y0029288D01*
X0049770Y0029298D02*
X0050862Y0029298D01*
X0050862Y0029308D02*
X0049770Y0029308D01*
X0049770Y0029318D02*
X0050862Y0029318D01*
X0050862Y0029328D02*
X0049770Y0029328D01*
X0049770Y0029338D02*
X0050862Y0029338D01*
X0050862Y0029348D02*
X0049770Y0029348D01*
X0049770Y0029358D02*
X0050862Y0029358D01*
X0050862Y0029368D02*
X0049770Y0029368D01*
X0049770Y0029378D02*
X0050862Y0029378D01*
X0050862Y0029388D02*
X0049770Y0029388D01*
X0049770Y0029398D02*
X0050862Y0029398D01*
X0050862Y0029408D02*
X0049770Y0029408D01*
X0049770Y0029418D02*
X0050862Y0029418D01*
X0050862Y0029428D02*
X0049770Y0029428D01*
X0049770Y0029438D02*
X0050862Y0029438D01*
X0050862Y0029448D02*
X0049770Y0029448D01*
X0049770Y0029458D02*
X0050862Y0029458D01*
X0050862Y0029468D02*
X0049770Y0029468D01*
X0049770Y0029478D02*
X0050862Y0029478D01*
X0050862Y0029488D02*
X0049770Y0029488D01*
X0049770Y0029498D02*
X0050862Y0029498D01*
X0050862Y0029508D02*
X0049770Y0029508D01*
X0049770Y0029518D02*
X0050862Y0029518D01*
X0050862Y0029528D02*
X0049770Y0029528D01*
X0049770Y0029538D02*
X0050862Y0029538D01*
X0050862Y0029548D02*
X0049770Y0029548D01*
X0049770Y0029558D02*
X0050862Y0029558D01*
X0050862Y0029568D02*
X0049770Y0029568D01*
X0049770Y0029578D02*
X0050862Y0029578D01*
X0050862Y0029588D02*
X0049770Y0029588D01*
X0049770Y0029598D02*
X0050862Y0029598D01*
X0050862Y0029608D02*
X0049770Y0029608D01*
X0049770Y0029618D02*
X0050862Y0029618D01*
X0050862Y0029628D02*
X0049770Y0029628D01*
X0049770Y0029638D02*
X0050862Y0029638D01*
X0050862Y0029648D02*
X0049770Y0029648D01*
X0049770Y0029658D02*
X0050862Y0029658D01*
X0050862Y0029668D02*
X0049770Y0029668D01*
X0049770Y0029678D02*
X0050862Y0029678D01*
X0050862Y0029688D02*
X0049770Y0029688D01*
X0049770Y0029698D02*
X0050862Y0029698D01*
X0050862Y0029708D02*
X0049770Y0029708D01*
X0049770Y0029718D02*
X0050862Y0029718D01*
X0050862Y0029728D02*
X0049770Y0029728D01*
X0049770Y0029738D02*
X0050862Y0029738D01*
X0050862Y0029748D02*
X0049770Y0029748D01*
X0049770Y0029758D02*
X0050862Y0029758D01*
X0050862Y0029768D02*
X0049770Y0029768D01*
X0049770Y0029778D02*
X0050862Y0029778D01*
X0050862Y0029788D02*
X0049770Y0029788D01*
X0049770Y0029798D02*
X0050862Y0029798D01*
X0050862Y0029808D02*
X0049770Y0029808D01*
X0049770Y0029818D02*
X0050862Y0029818D01*
X0050862Y0029828D02*
X0049770Y0029828D01*
X0049770Y0029838D02*
X0050862Y0029838D01*
X0050862Y0029848D02*
X0049770Y0029848D01*
X0049770Y0029858D02*
X0050862Y0029858D01*
X0050862Y0029868D02*
X0049770Y0029868D01*
X0049770Y0029878D02*
X0050862Y0029878D01*
X0050862Y0029888D02*
X0049770Y0029888D01*
X0049770Y0029898D02*
X0050862Y0029898D01*
X0050862Y0029908D02*
X0049770Y0029908D01*
X0049770Y0029918D02*
X0050862Y0029918D01*
X0050862Y0029928D02*
X0049770Y0029928D01*
X0049770Y0029938D02*
X0050862Y0029938D01*
X0050862Y0029948D02*
X0049770Y0029948D01*
X0049770Y0029958D02*
X0050862Y0029958D01*
X0050862Y0029968D02*
X0049770Y0029968D01*
X0049770Y0029978D02*
X0050862Y0029978D01*
X0050862Y0029988D02*
X0049770Y0029988D01*
X0049770Y0029998D02*
X0050862Y0029998D01*
X0050862Y0030008D02*
X0049770Y0030008D01*
X0049770Y0030018D02*
X0050862Y0030018D01*
X0050862Y0030028D02*
X0049770Y0030028D01*
X0049770Y0030038D02*
X0050862Y0030038D01*
X0050862Y0030048D02*
X0049770Y0030048D01*
X0049770Y0030058D02*
X0050862Y0030058D01*
X0050862Y0030068D02*
X0049770Y0030068D01*
X0049770Y0030078D02*
X0050862Y0030078D01*
X0050862Y0030088D02*
X0049770Y0030088D01*
X0049770Y0030098D02*
X0050862Y0030098D01*
X0050862Y0030108D02*
X0049770Y0030108D01*
X0049770Y0030118D02*
X0050862Y0030118D01*
X0050862Y0030128D02*
X0049770Y0030128D01*
X0049770Y0030138D02*
X0050862Y0030138D01*
X0050862Y0030148D02*
X0049770Y0030148D01*
X0049770Y0030158D02*
X0050862Y0030158D01*
X0050862Y0030168D02*
X0049770Y0030168D01*
X0049770Y0030178D02*
X0050862Y0030178D01*
X0050862Y0030188D02*
X0049770Y0030188D01*
X0049770Y0030198D02*
X0050862Y0030198D01*
X0050862Y0030208D02*
X0049770Y0030208D01*
X0049770Y0030218D02*
X0050862Y0030218D01*
X0050862Y0030228D02*
X0049770Y0030228D01*
X0049770Y0030238D02*
X0050862Y0030238D01*
X0050862Y0030248D02*
X0049770Y0030248D01*
X0049770Y0030258D02*
X0050862Y0030258D01*
X0050862Y0030268D02*
X0049770Y0030268D01*
X0049770Y0030278D02*
X0050862Y0030278D01*
X0050862Y0030288D02*
X0049770Y0030288D01*
X0049770Y0030298D02*
X0050862Y0030298D01*
X0050862Y0030308D02*
X0049770Y0030308D01*
X0049770Y0030318D02*
X0050862Y0030318D01*
X0050862Y0030328D02*
X0049770Y0030328D01*
X0049770Y0030338D02*
X0050862Y0030338D01*
X0050862Y0030348D02*
X0049770Y0030348D01*
X0049770Y0030358D02*
X0050862Y0030358D01*
X0050862Y0030368D02*
X0049770Y0030368D01*
X0049770Y0030378D02*
X0050862Y0030378D01*
X0050862Y0030388D02*
X0049770Y0030388D01*
X0049770Y0030398D02*
X0050862Y0030398D01*
X0050862Y0030408D02*
X0049770Y0030408D01*
X0049770Y0030418D02*
X0050862Y0030418D01*
X0050862Y0030428D02*
X0049770Y0030428D01*
X0049770Y0030438D02*
X0050862Y0030438D01*
X0050862Y0030448D02*
X0049770Y0030448D01*
X0049770Y0030458D02*
X0050862Y0030458D01*
X0050862Y0030468D02*
X0049770Y0030468D01*
X0049770Y0030478D02*
X0050862Y0030478D01*
X0050862Y0030488D02*
X0049770Y0030488D01*
X0049770Y0030498D02*
X0050862Y0030498D01*
X0050862Y0030508D02*
X0049770Y0030508D01*
X0049770Y0030518D02*
X0050862Y0030518D01*
X0050862Y0030528D02*
X0049770Y0030528D01*
X0049770Y0030538D02*
X0050862Y0030538D01*
X0050862Y0030548D02*
X0049770Y0030548D01*
X0049770Y0030558D02*
X0050862Y0030558D01*
X0050862Y0030568D02*
X0049770Y0030568D01*
X0049770Y0030578D02*
X0050862Y0030578D01*
X0050862Y0030588D02*
X0049770Y0030588D01*
X0049770Y0030598D02*
X0050862Y0030598D01*
X0050862Y0030608D02*
X0049770Y0030608D01*
X0049770Y0030618D02*
X0050862Y0030618D01*
X0050862Y0030628D02*
X0049770Y0030628D01*
X0049770Y0030638D02*
X0050862Y0030638D01*
X0050862Y0030648D02*
X0049770Y0030648D01*
X0049770Y0030658D02*
X0050862Y0030658D01*
X0050862Y0030668D02*
X0049770Y0030668D01*
X0049770Y0030678D02*
X0050862Y0030678D01*
X0050862Y0030688D02*
X0049770Y0030688D01*
X0049770Y0030698D02*
X0050862Y0030698D01*
X0050862Y0030708D02*
X0049770Y0030708D01*
X0049770Y0030718D02*
X0050862Y0030718D01*
X0050862Y0030728D02*
X0049770Y0030728D01*
X0049770Y0030738D02*
X0050862Y0030738D01*
X0050862Y0030748D02*
X0049770Y0030748D01*
X0049770Y0030758D02*
X0050862Y0030758D01*
X0050862Y0030768D02*
X0049770Y0030768D01*
X0049770Y0030778D02*
X0050862Y0030778D01*
X0050862Y0030788D02*
X0049770Y0030788D01*
X0049770Y0030798D02*
X0050862Y0030798D01*
X0050862Y0030808D02*
X0049770Y0030808D01*
X0049770Y0030818D02*
X0050862Y0030818D01*
X0050862Y0030828D02*
X0049770Y0030828D01*
X0049770Y0030838D02*
X0050862Y0030838D01*
X0050862Y0030848D02*
X0049770Y0030848D01*
X0049770Y0030858D02*
X0050862Y0030858D01*
X0050862Y0030868D02*
X0049770Y0030868D01*
X0049770Y0030878D02*
X0050862Y0030878D01*
X0050862Y0030888D02*
X0049770Y0030888D01*
X0049770Y0030898D02*
X0050862Y0030898D01*
X0050862Y0030908D02*
X0049770Y0030908D01*
X0049770Y0030918D02*
X0050862Y0030918D01*
X0050862Y0030928D02*
X0049770Y0030928D01*
X0049770Y0030938D02*
X0050862Y0030938D01*
X0050862Y0030948D02*
X0049770Y0030948D01*
X0049770Y0030958D02*
X0050862Y0030958D01*
X0050862Y0030968D02*
X0049770Y0030968D01*
X0049770Y0030978D02*
X0050862Y0030978D01*
X0050862Y0030988D02*
X0049770Y0030988D01*
X0049770Y0030998D02*
X0050862Y0030998D01*
X0050862Y0031008D02*
X0049770Y0031008D01*
X0049770Y0031018D02*
X0050862Y0031018D01*
X0050862Y0031028D02*
X0049770Y0031028D01*
X0056768Y0031036D02*
X0056768Y0027798D01*
X0055676Y0027798D01*
X0055676Y0031036D01*
X0056768Y0031036D01*
X0056768Y0027808D02*
X0055676Y0027808D01*
X0055676Y0027818D02*
X0056768Y0027818D01*
X0056768Y0027828D02*
X0055676Y0027828D01*
X0055676Y0027838D02*
X0056768Y0027838D01*
X0056768Y0027848D02*
X0055676Y0027848D01*
X0055676Y0027858D02*
X0056768Y0027858D01*
X0056768Y0027868D02*
X0055676Y0027868D01*
X0055676Y0027878D02*
X0056768Y0027878D01*
X0056768Y0027888D02*
X0055676Y0027888D01*
X0055676Y0027898D02*
X0056768Y0027898D01*
X0056768Y0027908D02*
X0055676Y0027908D01*
X0055676Y0027918D02*
X0056768Y0027918D01*
X0056768Y0027928D02*
X0055676Y0027928D01*
X0055676Y0027938D02*
X0056768Y0027938D01*
X0056768Y0027948D02*
X0055676Y0027948D01*
X0055676Y0027958D02*
X0056768Y0027958D01*
X0056768Y0027968D02*
X0055676Y0027968D01*
X0055676Y0027978D02*
X0056768Y0027978D01*
X0056768Y0027988D02*
X0055676Y0027988D01*
X0055676Y0027998D02*
X0056768Y0027998D01*
X0056768Y0028008D02*
X0055676Y0028008D01*
X0055676Y0028018D02*
X0056768Y0028018D01*
X0056768Y0028028D02*
X0055676Y0028028D01*
X0055676Y0028038D02*
X0056768Y0028038D01*
X0056768Y0028048D02*
X0055676Y0028048D01*
X0055676Y0028058D02*
X0056768Y0028058D01*
X0056768Y0028068D02*
X0055676Y0028068D01*
X0055676Y0028078D02*
X0056768Y0028078D01*
X0056768Y0028088D02*
X0055676Y0028088D01*
X0055676Y0028098D02*
X0056768Y0028098D01*
X0056768Y0028108D02*
X0055676Y0028108D01*
X0055676Y0028118D02*
X0056768Y0028118D01*
X0056768Y0028128D02*
X0055676Y0028128D01*
X0055676Y0028138D02*
X0056768Y0028138D01*
X0056768Y0028148D02*
X0055676Y0028148D01*
X0055676Y0028158D02*
X0056768Y0028158D01*
X0056768Y0028168D02*
X0055676Y0028168D01*
X0055676Y0028178D02*
X0056768Y0028178D01*
X0056768Y0028188D02*
X0055676Y0028188D01*
X0055676Y0028198D02*
X0056768Y0028198D01*
X0056768Y0028208D02*
X0055676Y0028208D01*
X0055676Y0028218D02*
X0056768Y0028218D01*
X0056768Y0028228D02*
X0055676Y0028228D01*
X0055676Y0028238D02*
X0056768Y0028238D01*
X0056768Y0028248D02*
X0055676Y0028248D01*
X0055676Y0028258D02*
X0056768Y0028258D01*
X0056768Y0028268D02*
X0055676Y0028268D01*
X0055676Y0028278D02*
X0056768Y0028278D01*
X0056768Y0028288D02*
X0055676Y0028288D01*
X0055676Y0028298D02*
X0056768Y0028298D01*
X0056768Y0028308D02*
X0055676Y0028308D01*
X0055676Y0028318D02*
X0056768Y0028318D01*
X0056768Y0028328D02*
X0055676Y0028328D01*
X0055676Y0028338D02*
X0056768Y0028338D01*
X0056768Y0028348D02*
X0055676Y0028348D01*
X0055676Y0028358D02*
X0056768Y0028358D01*
X0056768Y0028368D02*
X0055676Y0028368D01*
X0055676Y0028378D02*
X0056768Y0028378D01*
X0056768Y0028388D02*
X0055676Y0028388D01*
X0055676Y0028398D02*
X0056768Y0028398D01*
X0056768Y0028408D02*
X0055676Y0028408D01*
X0055676Y0028418D02*
X0056768Y0028418D01*
X0056768Y0028428D02*
X0055676Y0028428D01*
X0055676Y0028438D02*
X0056768Y0028438D01*
X0056768Y0028448D02*
X0055676Y0028448D01*
X0055676Y0028458D02*
X0056768Y0028458D01*
X0056768Y0028468D02*
X0055676Y0028468D01*
X0055676Y0028478D02*
X0056768Y0028478D01*
X0056768Y0028488D02*
X0055676Y0028488D01*
X0055676Y0028498D02*
X0056768Y0028498D01*
X0056768Y0028508D02*
X0055676Y0028508D01*
X0055676Y0028518D02*
X0056768Y0028518D01*
X0056768Y0028528D02*
X0055676Y0028528D01*
X0055676Y0028538D02*
X0056768Y0028538D01*
X0056768Y0028548D02*
X0055676Y0028548D01*
X0055676Y0028558D02*
X0056768Y0028558D01*
X0056768Y0028568D02*
X0055676Y0028568D01*
X0055676Y0028578D02*
X0056768Y0028578D01*
X0056768Y0028588D02*
X0055676Y0028588D01*
X0055676Y0028598D02*
X0056768Y0028598D01*
X0056768Y0028608D02*
X0055676Y0028608D01*
X0055676Y0028618D02*
X0056768Y0028618D01*
X0056768Y0028628D02*
X0055676Y0028628D01*
X0055676Y0028638D02*
X0056768Y0028638D01*
X0056768Y0028648D02*
X0055676Y0028648D01*
X0055676Y0028658D02*
X0056768Y0028658D01*
X0056768Y0028668D02*
X0055676Y0028668D01*
X0055676Y0028678D02*
X0056768Y0028678D01*
X0056768Y0028688D02*
X0055676Y0028688D01*
X0055676Y0028698D02*
X0056768Y0028698D01*
X0056768Y0028708D02*
X0055676Y0028708D01*
X0055676Y0028718D02*
X0056768Y0028718D01*
X0056768Y0028728D02*
X0055676Y0028728D01*
X0055676Y0028738D02*
X0056768Y0028738D01*
X0056768Y0028748D02*
X0055676Y0028748D01*
X0055676Y0028758D02*
X0056768Y0028758D01*
X0056768Y0028768D02*
X0055676Y0028768D01*
X0055676Y0028778D02*
X0056768Y0028778D01*
X0056768Y0028788D02*
X0055676Y0028788D01*
X0055676Y0028798D02*
X0056768Y0028798D01*
X0056768Y0028808D02*
X0055676Y0028808D01*
X0055676Y0028818D02*
X0056768Y0028818D01*
X0056768Y0028828D02*
X0055676Y0028828D01*
X0055676Y0028838D02*
X0056768Y0028838D01*
X0056768Y0028848D02*
X0055676Y0028848D01*
X0055676Y0028858D02*
X0056768Y0028858D01*
X0056768Y0028868D02*
X0055676Y0028868D01*
X0055676Y0028878D02*
X0056768Y0028878D01*
X0056768Y0028888D02*
X0055676Y0028888D01*
X0055676Y0028898D02*
X0056768Y0028898D01*
X0056768Y0028908D02*
X0055676Y0028908D01*
X0055676Y0028918D02*
X0056768Y0028918D01*
X0056768Y0028928D02*
X0055676Y0028928D01*
X0055676Y0028938D02*
X0056768Y0028938D01*
X0056768Y0028948D02*
X0055676Y0028948D01*
X0055676Y0028958D02*
X0056768Y0028958D01*
X0056768Y0028968D02*
X0055676Y0028968D01*
X0055676Y0028978D02*
X0056768Y0028978D01*
X0056768Y0028988D02*
X0055676Y0028988D01*
X0055676Y0028998D02*
X0056768Y0028998D01*
X0056768Y0029008D02*
X0055676Y0029008D01*
X0055676Y0029018D02*
X0056768Y0029018D01*
X0056768Y0029028D02*
X0055676Y0029028D01*
X0055676Y0029038D02*
X0056768Y0029038D01*
X0056768Y0029048D02*
X0055676Y0029048D01*
X0055676Y0029058D02*
X0056768Y0029058D01*
X0056768Y0029068D02*
X0055676Y0029068D01*
X0055676Y0029078D02*
X0056768Y0029078D01*
X0056768Y0029088D02*
X0055676Y0029088D01*
X0055676Y0029098D02*
X0056768Y0029098D01*
X0056768Y0029108D02*
X0055676Y0029108D01*
X0055676Y0029118D02*
X0056768Y0029118D01*
X0056768Y0029128D02*
X0055676Y0029128D01*
X0055676Y0029138D02*
X0056768Y0029138D01*
X0056768Y0029148D02*
X0055676Y0029148D01*
X0055676Y0029158D02*
X0056768Y0029158D01*
X0056768Y0029168D02*
X0055676Y0029168D01*
X0055676Y0029178D02*
X0056768Y0029178D01*
X0056768Y0029188D02*
X0055676Y0029188D01*
X0055676Y0029198D02*
X0056768Y0029198D01*
X0056768Y0029208D02*
X0055676Y0029208D01*
X0055676Y0029218D02*
X0056768Y0029218D01*
X0056768Y0029228D02*
X0055676Y0029228D01*
X0055676Y0029238D02*
X0056768Y0029238D01*
X0056768Y0029248D02*
X0055676Y0029248D01*
X0055676Y0029258D02*
X0056768Y0029258D01*
X0056768Y0029268D02*
X0055676Y0029268D01*
X0055676Y0029278D02*
X0056768Y0029278D01*
X0056768Y0029288D02*
X0055676Y0029288D01*
X0055676Y0029298D02*
X0056768Y0029298D01*
X0056768Y0029308D02*
X0055676Y0029308D01*
X0055676Y0029318D02*
X0056768Y0029318D01*
X0056768Y0029328D02*
X0055676Y0029328D01*
X0055676Y0029338D02*
X0056768Y0029338D01*
X0056768Y0029348D02*
X0055676Y0029348D01*
X0055676Y0029358D02*
X0056768Y0029358D01*
X0056768Y0029368D02*
X0055676Y0029368D01*
X0055676Y0029378D02*
X0056768Y0029378D01*
X0056768Y0029388D02*
X0055676Y0029388D01*
X0055676Y0029398D02*
X0056768Y0029398D01*
X0056768Y0029408D02*
X0055676Y0029408D01*
X0055676Y0029418D02*
X0056768Y0029418D01*
X0056768Y0029428D02*
X0055676Y0029428D01*
X0055676Y0029438D02*
X0056768Y0029438D01*
X0056768Y0029448D02*
X0055676Y0029448D01*
X0055676Y0029458D02*
X0056768Y0029458D01*
X0056768Y0029468D02*
X0055676Y0029468D01*
X0055676Y0029478D02*
X0056768Y0029478D01*
X0056768Y0029488D02*
X0055676Y0029488D01*
X0055676Y0029498D02*
X0056768Y0029498D01*
X0056768Y0029508D02*
X0055676Y0029508D01*
X0055676Y0029518D02*
X0056768Y0029518D01*
X0056768Y0029528D02*
X0055676Y0029528D01*
X0055676Y0029538D02*
X0056768Y0029538D01*
X0056768Y0029548D02*
X0055676Y0029548D01*
X0055676Y0029558D02*
X0056768Y0029558D01*
X0056768Y0029568D02*
X0055676Y0029568D01*
X0055676Y0029578D02*
X0056768Y0029578D01*
X0056768Y0029588D02*
X0055676Y0029588D01*
X0055676Y0029598D02*
X0056768Y0029598D01*
X0056768Y0029608D02*
X0055676Y0029608D01*
X0055676Y0029618D02*
X0056768Y0029618D01*
X0056768Y0029628D02*
X0055676Y0029628D01*
X0055676Y0029638D02*
X0056768Y0029638D01*
X0056768Y0029648D02*
X0055676Y0029648D01*
X0055676Y0029658D02*
X0056768Y0029658D01*
X0056768Y0029668D02*
X0055676Y0029668D01*
X0055676Y0029678D02*
X0056768Y0029678D01*
X0056768Y0029688D02*
X0055676Y0029688D01*
X0055676Y0029698D02*
X0056768Y0029698D01*
X0056768Y0029708D02*
X0055676Y0029708D01*
X0055676Y0029718D02*
X0056768Y0029718D01*
X0056768Y0029728D02*
X0055676Y0029728D01*
X0055676Y0029738D02*
X0056768Y0029738D01*
X0056768Y0029748D02*
X0055676Y0029748D01*
X0055676Y0029758D02*
X0056768Y0029758D01*
X0056768Y0029768D02*
X0055676Y0029768D01*
X0055676Y0029778D02*
X0056768Y0029778D01*
X0056768Y0029788D02*
X0055676Y0029788D01*
X0055676Y0029798D02*
X0056768Y0029798D01*
X0056768Y0029808D02*
X0055676Y0029808D01*
X0055676Y0029818D02*
X0056768Y0029818D01*
X0056768Y0029828D02*
X0055676Y0029828D01*
X0055676Y0029838D02*
X0056768Y0029838D01*
X0056768Y0029848D02*
X0055676Y0029848D01*
X0055676Y0029858D02*
X0056768Y0029858D01*
X0056768Y0029868D02*
X0055676Y0029868D01*
X0055676Y0029878D02*
X0056768Y0029878D01*
X0056768Y0029888D02*
X0055676Y0029888D01*
X0055676Y0029898D02*
X0056768Y0029898D01*
X0056768Y0029908D02*
X0055676Y0029908D01*
X0055676Y0029918D02*
X0056768Y0029918D01*
X0056768Y0029928D02*
X0055676Y0029928D01*
X0055676Y0029938D02*
X0056768Y0029938D01*
X0056768Y0029948D02*
X0055676Y0029948D01*
X0055676Y0029958D02*
X0056768Y0029958D01*
X0056768Y0029968D02*
X0055676Y0029968D01*
X0055676Y0029978D02*
X0056768Y0029978D01*
X0056768Y0029988D02*
X0055676Y0029988D01*
X0055676Y0029998D02*
X0056768Y0029998D01*
X0056768Y0030008D02*
X0055676Y0030008D01*
X0055676Y0030018D02*
X0056768Y0030018D01*
X0056768Y0030028D02*
X0055676Y0030028D01*
X0055676Y0030038D02*
X0056768Y0030038D01*
X0056768Y0030048D02*
X0055676Y0030048D01*
X0055676Y0030058D02*
X0056768Y0030058D01*
X0056768Y0030068D02*
X0055676Y0030068D01*
X0055676Y0030078D02*
X0056768Y0030078D01*
X0056768Y0030088D02*
X0055676Y0030088D01*
X0055676Y0030098D02*
X0056768Y0030098D01*
X0056768Y0030108D02*
X0055676Y0030108D01*
X0055676Y0030118D02*
X0056768Y0030118D01*
X0056768Y0030128D02*
X0055676Y0030128D01*
X0055676Y0030138D02*
X0056768Y0030138D01*
X0056768Y0030148D02*
X0055676Y0030148D01*
X0055676Y0030158D02*
X0056768Y0030158D01*
X0056768Y0030168D02*
X0055676Y0030168D01*
X0055676Y0030178D02*
X0056768Y0030178D01*
X0056768Y0030188D02*
X0055676Y0030188D01*
X0055676Y0030198D02*
X0056768Y0030198D01*
X0056768Y0030208D02*
X0055676Y0030208D01*
X0055676Y0030218D02*
X0056768Y0030218D01*
X0056768Y0030228D02*
X0055676Y0030228D01*
X0055676Y0030238D02*
X0056768Y0030238D01*
X0056768Y0030248D02*
X0055676Y0030248D01*
X0055676Y0030258D02*
X0056768Y0030258D01*
X0056768Y0030268D02*
X0055676Y0030268D01*
X0055676Y0030278D02*
X0056768Y0030278D01*
X0056768Y0030288D02*
X0055676Y0030288D01*
X0055676Y0030298D02*
X0056768Y0030298D01*
X0056768Y0030308D02*
X0055676Y0030308D01*
X0055676Y0030318D02*
X0056768Y0030318D01*
X0056768Y0030328D02*
X0055676Y0030328D01*
X0055676Y0030338D02*
X0056768Y0030338D01*
X0056768Y0030348D02*
X0055676Y0030348D01*
X0055676Y0030358D02*
X0056768Y0030358D01*
X0056768Y0030368D02*
X0055676Y0030368D01*
X0055676Y0030378D02*
X0056768Y0030378D01*
X0056768Y0030388D02*
X0055676Y0030388D01*
X0055676Y0030398D02*
X0056768Y0030398D01*
X0056768Y0030408D02*
X0055676Y0030408D01*
X0055676Y0030418D02*
X0056768Y0030418D01*
X0056768Y0030428D02*
X0055676Y0030428D01*
X0055676Y0030438D02*
X0056768Y0030438D01*
X0056768Y0030448D02*
X0055676Y0030448D01*
X0055676Y0030458D02*
X0056768Y0030458D01*
X0056768Y0030468D02*
X0055676Y0030468D01*
X0055676Y0030478D02*
X0056768Y0030478D01*
X0056768Y0030488D02*
X0055676Y0030488D01*
X0055676Y0030498D02*
X0056768Y0030498D01*
X0056768Y0030508D02*
X0055676Y0030508D01*
X0055676Y0030518D02*
X0056768Y0030518D01*
X0056768Y0030528D02*
X0055676Y0030528D01*
X0055676Y0030538D02*
X0056768Y0030538D01*
X0056768Y0030548D02*
X0055676Y0030548D01*
X0055676Y0030558D02*
X0056768Y0030558D01*
X0056768Y0030568D02*
X0055676Y0030568D01*
X0055676Y0030578D02*
X0056768Y0030578D01*
X0056768Y0030588D02*
X0055676Y0030588D01*
X0055676Y0030598D02*
X0056768Y0030598D01*
X0056768Y0030608D02*
X0055676Y0030608D01*
X0055676Y0030618D02*
X0056768Y0030618D01*
X0056768Y0030628D02*
X0055676Y0030628D01*
X0055676Y0030638D02*
X0056768Y0030638D01*
X0056768Y0030648D02*
X0055676Y0030648D01*
X0055676Y0030658D02*
X0056768Y0030658D01*
X0056768Y0030668D02*
X0055676Y0030668D01*
X0055676Y0030678D02*
X0056768Y0030678D01*
X0056768Y0030688D02*
X0055676Y0030688D01*
X0055676Y0030698D02*
X0056768Y0030698D01*
X0056768Y0030708D02*
X0055676Y0030708D01*
X0055676Y0030718D02*
X0056768Y0030718D01*
X0056768Y0030728D02*
X0055676Y0030728D01*
X0055676Y0030738D02*
X0056768Y0030738D01*
X0056768Y0030748D02*
X0055676Y0030748D01*
X0055676Y0030758D02*
X0056768Y0030758D01*
X0056768Y0030768D02*
X0055676Y0030768D01*
X0055676Y0030778D02*
X0056768Y0030778D01*
X0056768Y0030788D02*
X0055676Y0030788D01*
X0055676Y0030798D02*
X0056768Y0030798D01*
X0056768Y0030808D02*
X0055676Y0030808D01*
X0055676Y0030818D02*
X0056768Y0030818D01*
X0056768Y0030828D02*
X0055676Y0030828D01*
X0055676Y0030838D02*
X0056768Y0030838D01*
X0056768Y0030848D02*
X0055676Y0030848D01*
X0055676Y0030858D02*
X0056768Y0030858D01*
X0056768Y0030868D02*
X0055676Y0030868D01*
X0055676Y0030878D02*
X0056768Y0030878D01*
X0056768Y0030888D02*
X0055676Y0030888D01*
X0055676Y0030898D02*
X0056768Y0030898D01*
X0056768Y0030908D02*
X0055676Y0030908D01*
X0055676Y0030918D02*
X0056768Y0030918D01*
X0056768Y0030928D02*
X0055676Y0030928D01*
X0055676Y0030938D02*
X0056768Y0030938D01*
X0056768Y0030948D02*
X0055676Y0030948D01*
X0055676Y0030958D02*
X0056768Y0030958D01*
X0056768Y0030968D02*
X0055676Y0030968D01*
X0055676Y0030978D02*
X0056768Y0030978D01*
X0056768Y0030988D02*
X0055676Y0030988D01*
X0055676Y0030998D02*
X0056768Y0030998D01*
X0056768Y0031008D02*
X0055676Y0031008D01*
X0055676Y0031018D02*
X0056768Y0031018D01*
X0056768Y0031028D02*
X0055676Y0031028D01*
X0058736Y0031036D02*
X0058736Y0027798D01*
X0057644Y0027798D01*
X0057644Y0031036D01*
X0058736Y0031036D01*
X0058736Y0027808D02*
X0057644Y0027808D01*
X0057644Y0027818D02*
X0058736Y0027818D01*
X0058736Y0027828D02*
X0057644Y0027828D01*
X0057644Y0027838D02*
X0058736Y0027838D01*
X0058736Y0027848D02*
X0057644Y0027848D01*
X0057644Y0027858D02*
X0058736Y0027858D01*
X0058736Y0027868D02*
X0057644Y0027868D01*
X0057644Y0027878D02*
X0058736Y0027878D01*
X0058736Y0027888D02*
X0057644Y0027888D01*
X0057644Y0027898D02*
X0058736Y0027898D01*
X0058736Y0027908D02*
X0057644Y0027908D01*
X0057644Y0027918D02*
X0058736Y0027918D01*
X0058736Y0027928D02*
X0057644Y0027928D01*
X0057644Y0027938D02*
X0058736Y0027938D01*
X0058736Y0027948D02*
X0057644Y0027948D01*
X0057644Y0027958D02*
X0058736Y0027958D01*
X0058736Y0027968D02*
X0057644Y0027968D01*
X0057644Y0027978D02*
X0058736Y0027978D01*
X0058736Y0027988D02*
X0057644Y0027988D01*
X0057644Y0027998D02*
X0058736Y0027998D01*
X0058736Y0028008D02*
X0057644Y0028008D01*
X0057644Y0028018D02*
X0058736Y0028018D01*
X0058736Y0028028D02*
X0057644Y0028028D01*
X0057644Y0028038D02*
X0058736Y0028038D01*
X0058736Y0028048D02*
X0057644Y0028048D01*
X0057644Y0028058D02*
X0058736Y0028058D01*
X0058736Y0028068D02*
X0057644Y0028068D01*
X0057644Y0028078D02*
X0058736Y0028078D01*
X0058736Y0028088D02*
X0057644Y0028088D01*
X0057644Y0028098D02*
X0058736Y0028098D01*
X0058736Y0028108D02*
X0057644Y0028108D01*
X0057644Y0028118D02*
X0058736Y0028118D01*
X0058736Y0028128D02*
X0057644Y0028128D01*
X0057644Y0028138D02*
X0058736Y0028138D01*
X0058736Y0028148D02*
X0057644Y0028148D01*
X0057644Y0028158D02*
X0058736Y0028158D01*
X0058736Y0028168D02*
X0057644Y0028168D01*
X0057644Y0028178D02*
X0058736Y0028178D01*
X0058736Y0028188D02*
X0057644Y0028188D01*
X0057644Y0028198D02*
X0058736Y0028198D01*
X0058736Y0028208D02*
X0057644Y0028208D01*
X0057644Y0028218D02*
X0058736Y0028218D01*
X0058736Y0028228D02*
X0057644Y0028228D01*
X0057644Y0028238D02*
X0058736Y0028238D01*
X0058736Y0028248D02*
X0057644Y0028248D01*
X0057644Y0028258D02*
X0058736Y0028258D01*
X0058736Y0028268D02*
X0057644Y0028268D01*
X0057644Y0028278D02*
X0058736Y0028278D01*
X0058736Y0028288D02*
X0057644Y0028288D01*
X0057644Y0028298D02*
X0058736Y0028298D01*
X0058736Y0028308D02*
X0057644Y0028308D01*
X0057644Y0028318D02*
X0058736Y0028318D01*
X0058736Y0028328D02*
X0057644Y0028328D01*
X0057644Y0028338D02*
X0058736Y0028338D01*
X0058736Y0028348D02*
X0057644Y0028348D01*
X0057644Y0028358D02*
X0058736Y0028358D01*
X0058736Y0028368D02*
X0057644Y0028368D01*
X0057644Y0028378D02*
X0058736Y0028378D01*
X0058736Y0028388D02*
X0057644Y0028388D01*
X0057644Y0028398D02*
X0058736Y0028398D01*
X0058736Y0028408D02*
X0057644Y0028408D01*
X0057644Y0028418D02*
X0058736Y0028418D01*
X0058736Y0028428D02*
X0057644Y0028428D01*
X0057644Y0028438D02*
X0058736Y0028438D01*
X0058736Y0028448D02*
X0057644Y0028448D01*
X0057644Y0028458D02*
X0058736Y0028458D01*
X0058736Y0028468D02*
X0057644Y0028468D01*
X0057644Y0028478D02*
X0058736Y0028478D01*
X0058736Y0028488D02*
X0057644Y0028488D01*
X0057644Y0028498D02*
X0058736Y0028498D01*
X0058736Y0028508D02*
X0057644Y0028508D01*
X0057644Y0028518D02*
X0058736Y0028518D01*
X0058736Y0028528D02*
X0057644Y0028528D01*
X0057644Y0028538D02*
X0058736Y0028538D01*
X0058736Y0028548D02*
X0057644Y0028548D01*
X0057644Y0028558D02*
X0058736Y0028558D01*
X0058736Y0028568D02*
X0057644Y0028568D01*
X0057644Y0028578D02*
X0058736Y0028578D01*
X0058736Y0028588D02*
X0057644Y0028588D01*
X0057644Y0028598D02*
X0058736Y0028598D01*
X0058736Y0028608D02*
X0057644Y0028608D01*
X0057644Y0028618D02*
X0058736Y0028618D01*
X0058736Y0028628D02*
X0057644Y0028628D01*
X0057644Y0028638D02*
X0058736Y0028638D01*
X0058736Y0028648D02*
X0057644Y0028648D01*
X0057644Y0028658D02*
X0058736Y0028658D01*
X0058736Y0028668D02*
X0057644Y0028668D01*
X0057644Y0028678D02*
X0058736Y0028678D01*
X0058736Y0028688D02*
X0057644Y0028688D01*
X0057644Y0028698D02*
X0058736Y0028698D01*
X0058736Y0028708D02*
X0057644Y0028708D01*
X0057644Y0028718D02*
X0058736Y0028718D01*
X0058736Y0028728D02*
X0057644Y0028728D01*
X0057644Y0028738D02*
X0058736Y0028738D01*
X0058736Y0028748D02*
X0057644Y0028748D01*
X0057644Y0028758D02*
X0058736Y0028758D01*
X0058736Y0028768D02*
X0057644Y0028768D01*
X0057644Y0028778D02*
X0058736Y0028778D01*
X0058736Y0028788D02*
X0057644Y0028788D01*
X0057644Y0028798D02*
X0058736Y0028798D01*
X0058736Y0028808D02*
X0057644Y0028808D01*
X0057644Y0028818D02*
X0058736Y0028818D01*
X0058736Y0028828D02*
X0057644Y0028828D01*
X0057644Y0028838D02*
X0058736Y0028838D01*
X0058736Y0028848D02*
X0057644Y0028848D01*
X0057644Y0028858D02*
X0058736Y0028858D01*
X0058736Y0028868D02*
X0057644Y0028868D01*
X0057644Y0028878D02*
X0058736Y0028878D01*
X0058736Y0028888D02*
X0057644Y0028888D01*
X0057644Y0028898D02*
X0058736Y0028898D01*
X0058736Y0028908D02*
X0057644Y0028908D01*
X0057644Y0028918D02*
X0058736Y0028918D01*
X0058736Y0028928D02*
X0057644Y0028928D01*
X0057644Y0028938D02*
X0058736Y0028938D01*
X0058736Y0028948D02*
X0057644Y0028948D01*
X0057644Y0028958D02*
X0058736Y0028958D01*
X0058736Y0028968D02*
X0057644Y0028968D01*
X0057644Y0028978D02*
X0058736Y0028978D01*
X0058736Y0028988D02*
X0057644Y0028988D01*
X0057644Y0028998D02*
X0058736Y0028998D01*
X0058736Y0029008D02*
X0057644Y0029008D01*
X0057644Y0029018D02*
X0058736Y0029018D01*
X0058736Y0029028D02*
X0057644Y0029028D01*
X0057644Y0029038D02*
X0058736Y0029038D01*
X0058736Y0029048D02*
X0057644Y0029048D01*
X0057644Y0029058D02*
X0058736Y0029058D01*
X0058736Y0029068D02*
X0057644Y0029068D01*
X0057644Y0029078D02*
X0058736Y0029078D01*
X0058736Y0029088D02*
X0057644Y0029088D01*
X0057644Y0029098D02*
X0058736Y0029098D01*
X0058736Y0029108D02*
X0057644Y0029108D01*
X0057644Y0029118D02*
X0058736Y0029118D01*
X0058736Y0029128D02*
X0057644Y0029128D01*
X0057644Y0029138D02*
X0058736Y0029138D01*
X0058736Y0029148D02*
X0057644Y0029148D01*
X0057644Y0029158D02*
X0058736Y0029158D01*
X0058736Y0029168D02*
X0057644Y0029168D01*
X0057644Y0029178D02*
X0058736Y0029178D01*
X0058736Y0029188D02*
X0057644Y0029188D01*
X0057644Y0029198D02*
X0058736Y0029198D01*
X0058736Y0029208D02*
X0057644Y0029208D01*
X0057644Y0029218D02*
X0058736Y0029218D01*
X0058736Y0029228D02*
X0057644Y0029228D01*
X0057644Y0029238D02*
X0058736Y0029238D01*
X0058736Y0029248D02*
X0057644Y0029248D01*
X0057644Y0029258D02*
X0058736Y0029258D01*
X0058736Y0029268D02*
X0057644Y0029268D01*
X0057644Y0029278D02*
X0058736Y0029278D01*
X0058736Y0029288D02*
X0057644Y0029288D01*
X0057644Y0029298D02*
X0058736Y0029298D01*
X0058736Y0029308D02*
X0057644Y0029308D01*
X0057644Y0029318D02*
X0058736Y0029318D01*
X0058736Y0029328D02*
X0057644Y0029328D01*
X0057644Y0029338D02*
X0058736Y0029338D01*
X0058736Y0029348D02*
X0057644Y0029348D01*
X0057644Y0029358D02*
X0058736Y0029358D01*
X0058736Y0029368D02*
X0057644Y0029368D01*
X0057644Y0029378D02*
X0058736Y0029378D01*
X0058736Y0029388D02*
X0057644Y0029388D01*
X0057644Y0029398D02*
X0058736Y0029398D01*
X0058736Y0029408D02*
X0057644Y0029408D01*
X0057644Y0029418D02*
X0058736Y0029418D01*
X0058736Y0029428D02*
X0057644Y0029428D01*
X0057644Y0029438D02*
X0058736Y0029438D01*
X0058736Y0029448D02*
X0057644Y0029448D01*
X0057644Y0029458D02*
X0058736Y0029458D01*
X0058736Y0029468D02*
X0057644Y0029468D01*
X0057644Y0029478D02*
X0058736Y0029478D01*
X0058736Y0029488D02*
X0057644Y0029488D01*
X0057644Y0029498D02*
X0058736Y0029498D01*
X0058736Y0029508D02*
X0057644Y0029508D01*
X0057644Y0029518D02*
X0058736Y0029518D01*
X0058736Y0029528D02*
X0057644Y0029528D01*
X0057644Y0029538D02*
X0058736Y0029538D01*
X0058736Y0029548D02*
X0057644Y0029548D01*
X0057644Y0029558D02*
X0058736Y0029558D01*
X0058736Y0029568D02*
X0057644Y0029568D01*
X0057644Y0029578D02*
X0058736Y0029578D01*
X0058736Y0029588D02*
X0057644Y0029588D01*
X0057644Y0029598D02*
X0058736Y0029598D01*
X0058736Y0029608D02*
X0057644Y0029608D01*
X0057644Y0029618D02*
X0058736Y0029618D01*
X0058736Y0029628D02*
X0057644Y0029628D01*
X0057644Y0029638D02*
X0058736Y0029638D01*
X0058736Y0029648D02*
X0057644Y0029648D01*
X0057644Y0029658D02*
X0058736Y0029658D01*
X0058736Y0029668D02*
X0057644Y0029668D01*
X0057644Y0029678D02*
X0058736Y0029678D01*
X0058736Y0029688D02*
X0057644Y0029688D01*
X0057644Y0029698D02*
X0058736Y0029698D01*
X0058736Y0029708D02*
X0057644Y0029708D01*
X0057644Y0029718D02*
X0058736Y0029718D01*
X0058736Y0029728D02*
X0057644Y0029728D01*
X0057644Y0029738D02*
X0058736Y0029738D01*
X0058736Y0029748D02*
X0057644Y0029748D01*
X0057644Y0029758D02*
X0058736Y0029758D01*
X0058736Y0029768D02*
X0057644Y0029768D01*
X0057644Y0029778D02*
X0058736Y0029778D01*
X0058736Y0029788D02*
X0057644Y0029788D01*
X0057644Y0029798D02*
X0058736Y0029798D01*
X0058736Y0029808D02*
X0057644Y0029808D01*
X0057644Y0029818D02*
X0058736Y0029818D01*
X0058736Y0029828D02*
X0057644Y0029828D01*
X0057644Y0029838D02*
X0058736Y0029838D01*
X0058736Y0029848D02*
X0057644Y0029848D01*
X0057644Y0029858D02*
X0058736Y0029858D01*
X0058736Y0029868D02*
X0057644Y0029868D01*
X0057644Y0029878D02*
X0058736Y0029878D01*
X0058736Y0029888D02*
X0057644Y0029888D01*
X0057644Y0029898D02*
X0058736Y0029898D01*
X0058736Y0029908D02*
X0057644Y0029908D01*
X0057644Y0029918D02*
X0058736Y0029918D01*
X0058736Y0029928D02*
X0057644Y0029928D01*
X0057644Y0029938D02*
X0058736Y0029938D01*
X0058736Y0029948D02*
X0057644Y0029948D01*
X0057644Y0029958D02*
X0058736Y0029958D01*
X0058736Y0029968D02*
X0057644Y0029968D01*
X0057644Y0029978D02*
X0058736Y0029978D01*
X0058736Y0029988D02*
X0057644Y0029988D01*
X0057644Y0029998D02*
X0058736Y0029998D01*
X0058736Y0030008D02*
X0057644Y0030008D01*
X0057644Y0030018D02*
X0058736Y0030018D01*
X0058736Y0030028D02*
X0057644Y0030028D01*
X0057644Y0030038D02*
X0058736Y0030038D01*
X0058736Y0030048D02*
X0057644Y0030048D01*
X0057644Y0030058D02*
X0058736Y0030058D01*
X0058736Y0030068D02*
X0057644Y0030068D01*
X0057644Y0030078D02*
X0058736Y0030078D01*
X0058736Y0030088D02*
X0057644Y0030088D01*
X0057644Y0030098D02*
X0058736Y0030098D01*
X0058736Y0030108D02*
X0057644Y0030108D01*
X0057644Y0030118D02*
X0058736Y0030118D01*
X0058736Y0030128D02*
X0057644Y0030128D01*
X0057644Y0030138D02*
X0058736Y0030138D01*
X0058736Y0030148D02*
X0057644Y0030148D01*
X0057644Y0030158D02*
X0058736Y0030158D01*
X0058736Y0030168D02*
X0057644Y0030168D01*
X0057644Y0030178D02*
X0058736Y0030178D01*
X0058736Y0030188D02*
X0057644Y0030188D01*
X0057644Y0030198D02*
X0058736Y0030198D01*
X0058736Y0030208D02*
X0057644Y0030208D01*
X0057644Y0030218D02*
X0058736Y0030218D01*
X0058736Y0030228D02*
X0057644Y0030228D01*
X0057644Y0030238D02*
X0058736Y0030238D01*
X0058736Y0030248D02*
X0057644Y0030248D01*
X0057644Y0030258D02*
X0058736Y0030258D01*
X0058736Y0030268D02*
X0057644Y0030268D01*
X0057644Y0030278D02*
X0058736Y0030278D01*
X0058736Y0030288D02*
X0057644Y0030288D01*
X0057644Y0030298D02*
X0058736Y0030298D01*
X0058736Y0030308D02*
X0057644Y0030308D01*
X0057644Y0030318D02*
X0058736Y0030318D01*
X0058736Y0030328D02*
X0057644Y0030328D01*
X0057644Y0030338D02*
X0058736Y0030338D01*
X0058736Y0030348D02*
X0057644Y0030348D01*
X0057644Y0030358D02*
X0058736Y0030358D01*
X0058736Y0030368D02*
X0057644Y0030368D01*
X0057644Y0030378D02*
X0058736Y0030378D01*
X0058736Y0030388D02*
X0057644Y0030388D01*
X0057644Y0030398D02*
X0058736Y0030398D01*
X0058736Y0030408D02*
X0057644Y0030408D01*
X0057644Y0030418D02*
X0058736Y0030418D01*
X0058736Y0030428D02*
X0057644Y0030428D01*
X0057644Y0030438D02*
X0058736Y0030438D01*
X0058736Y0030448D02*
X0057644Y0030448D01*
X0057644Y0030458D02*
X0058736Y0030458D01*
X0058736Y0030468D02*
X0057644Y0030468D01*
X0057644Y0030478D02*
X0058736Y0030478D01*
X0058736Y0030488D02*
X0057644Y0030488D01*
X0057644Y0030498D02*
X0058736Y0030498D01*
X0058736Y0030508D02*
X0057644Y0030508D01*
X0057644Y0030518D02*
X0058736Y0030518D01*
X0058736Y0030528D02*
X0057644Y0030528D01*
X0057644Y0030538D02*
X0058736Y0030538D01*
X0058736Y0030548D02*
X0057644Y0030548D01*
X0057644Y0030558D02*
X0058736Y0030558D01*
X0058736Y0030568D02*
X0057644Y0030568D01*
X0057644Y0030578D02*
X0058736Y0030578D01*
X0058736Y0030588D02*
X0057644Y0030588D01*
X0057644Y0030598D02*
X0058736Y0030598D01*
X0058736Y0030608D02*
X0057644Y0030608D01*
X0057644Y0030618D02*
X0058736Y0030618D01*
X0058736Y0030628D02*
X0057644Y0030628D01*
X0057644Y0030638D02*
X0058736Y0030638D01*
X0058736Y0030648D02*
X0057644Y0030648D01*
X0057644Y0030658D02*
X0058736Y0030658D01*
X0058736Y0030668D02*
X0057644Y0030668D01*
X0057644Y0030678D02*
X0058736Y0030678D01*
X0058736Y0030688D02*
X0057644Y0030688D01*
X0057644Y0030698D02*
X0058736Y0030698D01*
X0058736Y0030708D02*
X0057644Y0030708D01*
X0057644Y0030718D02*
X0058736Y0030718D01*
X0058736Y0030728D02*
X0057644Y0030728D01*
X0057644Y0030738D02*
X0058736Y0030738D01*
X0058736Y0030748D02*
X0057644Y0030748D01*
X0057644Y0030758D02*
X0058736Y0030758D01*
X0058736Y0030768D02*
X0057644Y0030768D01*
X0057644Y0030778D02*
X0058736Y0030778D01*
X0058736Y0030788D02*
X0057644Y0030788D01*
X0057644Y0030798D02*
X0058736Y0030798D01*
X0058736Y0030808D02*
X0057644Y0030808D01*
X0057644Y0030818D02*
X0058736Y0030818D01*
X0058736Y0030828D02*
X0057644Y0030828D01*
X0057644Y0030838D02*
X0058736Y0030838D01*
X0058736Y0030848D02*
X0057644Y0030848D01*
X0057644Y0030858D02*
X0058736Y0030858D01*
X0058736Y0030868D02*
X0057644Y0030868D01*
X0057644Y0030878D02*
X0058736Y0030878D01*
X0058736Y0030888D02*
X0057644Y0030888D01*
X0057644Y0030898D02*
X0058736Y0030898D01*
X0058736Y0030908D02*
X0057644Y0030908D01*
X0057644Y0030918D02*
X0058736Y0030918D01*
X0058736Y0030928D02*
X0057644Y0030928D01*
X0057644Y0030938D02*
X0058736Y0030938D01*
X0058736Y0030948D02*
X0057644Y0030948D01*
X0057644Y0030958D02*
X0058736Y0030958D01*
X0058736Y0030968D02*
X0057644Y0030968D01*
X0057644Y0030978D02*
X0058736Y0030978D01*
X0058736Y0030988D02*
X0057644Y0030988D01*
X0057644Y0030998D02*
X0058736Y0030998D01*
X0058736Y0031008D02*
X0057644Y0031008D01*
X0057644Y0031018D02*
X0058736Y0031018D01*
X0058736Y0031028D02*
X0057644Y0031028D01*
X0058736Y0039314D02*
X0058736Y0042552D01*
X0058736Y0039314D02*
X0057644Y0039314D01*
X0057644Y0042552D01*
X0058736Y0042552D01*
X0058736Y0039324D02*
X0057644Y0039324D01*
X0057644Y0039334D02*
X0058736Y0039334D01*
X0058736Y0039344D02*
X0057644Y0039344D01*
X0057644Y0039354D02*
X0058736Y0039354D01*
X0058736Y0039364D02*
X0057644Y0039364D01*
X0057644Y0039374D02*
X0058736Y0039374D01*
X0058736Y0039384D02*
X0057644Y0039384D01*
X0057644Y0039394D02*
X0058736Y0039394D01*
X0058736Y0039404D02*
X0057644Y0039404D01*
X0057644Y0039414D02*
X0058736Y0039414D01*
X0058736Y0039424D02*
X0057644Y0039424D01*
X0057644Y0039434D02*
X0058736Y0039434D01*
X0058736Y0039444D02*
X0057644Y0039444D01*
X0057644Y0039454D02*
X0058736Y0039454D01*
X0058736Y0039464D02*
X0057644Y0039464D01*
X0057644Y0039474D02*
X0058736Y0039474D01*
X0058736Y0039484D02*
X0057644Y0039484D01*
X0057644Y0039494D02*
X0058736Y0039494D01*
X0058736Y0039504D02*
X0057644Y0039504D01*
X0057644Y0039514D02*
X0058736Y0039514D01*
X0058736Y0039524D02*
X0057644Y0039524D01*
X0057644Y0039534D02*
X0058736Y0039534D01*
X0058736Y0039544D02*
X0057644Y0039544D01*
X0057644Y0039554D02*
X0058736Y0039554D01*
X0058736Y0039564D02*
X0057644Y0039564D01*
X0057644Y0039574D02*
X0058736Y0039574D01*
X0058736Y0039584D02*
X0057644Y0039584D01*
X0057644Y0039594D02*
X0058736Y0039594D01*
X0058736Y0039604D02*
X0057644Y0039604D01*
X0057644Y0039614D02*
X0058736Y0039614D01*
X0058736Y0039624D02*
X0057644Y0039624D01*
X0057644Y0039634D02*
X0058736Y0039634D01*
X0058736Y0039644D02*
X0057644Y0039644D01*
X0057644Y0039654D02*
X0058736Y0039654D01*
X0058736Y0039664D02*
X0057644Y0039664D01*
X0057644Y0039674D02*
X0058736Y0039674D01*
X0058736Y0039684D02*
X0057644Y0039684D01*
X0057644Y0039694D02*
X0058736Y0039694D01*
X0058736Y0039704D02*
X0057644Y0039704D01*
X0057644Y0039714D02*
X0058736Y0039714D01*
X0058736Y0039724D02*
X0057644Y0039724D01*
X0057644Y0039734D02*
X0058736Y0039734D01*
X0058736Y0039744D02*
X0057644Y0039744D01*
X0057644Y0039754D02*
X0058736Y0039754D01*
X0058736Y0039764D02*
X0057644Y0039764D01*
X0057644Y0039774D02*
X0058736Y0039774D01*
X0058736Y0039784D02*
X0057644Y0039784D01*
X0057644Y0039794D02*
X0058736Y0039794D01*
X0058736Y0039804D02*
X0057644Y0039804D01*
X0057644Y0039814D02*
X0058736Y0039814D01*
X0058736Y0039824D02*
X0057644Y0039824D01*
X0057644Y0039834D02*
X0058736Y0039834D01*
X0058736Y0039844D02*
X0057644Y0039844D01*
X0057644Y0039854D02*
X0058736Y0039854D01*
X0058736Y0039864D02*
X0057644Y0039864D01*
X0057644Y0039874D02*
X0058736Y0039874D01*
X0058736Y0039884D02*
X0057644Y0039884D01*
X0057644Y0039894D02*
X0058736Y0039894D01*
X0058736Y0039904D02*
X0057644Y0039904D01*
X0057644Y0039914D02*
X0058736Y0039914D01*
X0058736Y0039924D02*
X0057644Y0039924D01*
X0057644Y0039934D02*
X0058736Y0039934D01*
X0058736Y0039944D02*
X0057644Y0039944D01*
X0057644Y0039954D02*
X0058736Y0039954D01*
X0058736Y0039964D02*
X0057644Y0039964D01*
X0057644Y0039974D02*
X0058736Y0039974D01*
X0058736Y0039984D02*
X0057644Y0039984D01*
X0057644Y0039994D02*
X0058736Y0039994D01*
X0058736Y0040004D02*
X0057644Y0040004D01*
X0057644Y0040014D02*
X0058736Y0040014D01*
X0058736Y0040024D02*
X0057644Y0040024D01*
X0057644Y0040034D02*
X0058736Y0040034D01*
X0058736Y0040044D02*
X0057644Y0040044D01*
X0057644Y0040054D02*
X0058736Y0040054D01*
X0058736Y0040064D02*
X0057644Y0040064D01*
X0057644Y0040074D02*
X0058736Y0040074D01*
X0058736Y0040084D02*
X0057644Y0040084D01*
X0057644Y0040094D02*
X0058736Y0040094D01*
X0058736Y0040104D02*
X0057644Y0040104D01*
X0057644Y0040114D02*
X0058736Y0040114D01*
X0058736Y0040124D02*
X0057644Y0040124D01*
X0057644Y0040134D02*
X0058736Y0040134D01*
X0058736Y0040144D02*
X0057644Y0040144D01*
X0057644Y0040154D02*
X0058736Y0040154D01*
X0058736Y0040164D02*
X0057644Y0040164D01*
X0057644Y0040174D02*
X0058736Y0040174D01*
X0058736Y0040184D02*
X0057644Y0040184D01*
X0057644Y0040194D02*
X0058736Y0040194D01*
X0058736Y0040204D02*
X0057644Y0040204D01*
X0057644Y0040214D02*
X0058736Y0040214D01*
X0058736Y0040224D02*
X0057644Y0040224D01*
X0057644Y0040234D02*
X0058736Y0040234D01*
X0058736Y0040244D02*
X0057644Y0040244D01*
X0057644Y0040254D02*
X0058736Y0040254D01*
X0058736Y0040264D02*
X0057644Y0040264D01*
X0057644Y0040274D02*
X0058736Y0040274D01*
X0058736Y0040284D02*
X0057644Y0040284D01*
X0057644Y0040294D02*
X0058736Y0040294D01*
X0058736Y0040304D02*
X0057644Y0040304D01*
X0057644Y0040314D02*
X0058736Y0040314D01*
X0058736Y0040324D02*
X0057644Y0040324D01*
X0057644Y0040334D02*
X0058736Y0040334D01*
X0058736Y0040344D02*
X0057644Y0040344D01*
X0057644Y0040354D02*
X0058736Y0040354D01*
X0058736Y0040364D02*
X0057644Y0040364D01*
X0057644Y0040374D02*
X0058736Y0040374D01*
X0058736Y0040384D02*
X0057644Y0040384D01*
X0057644Y0040394D02*
X0058736Y0040394D01*
X0058736Y0040404D02*
X0057644Y0040404D01*
X0057644Y0040414D02*
X0058736Y0040414D01*
X0058736Y0040424D02*
X0057644Y0040424D01*
X0057644Y0040434D02*
X0058736Y0040434D01*
X0058736Y0040444D02*
X0057644Y0040444D01*
X0057644Y0040454D02*
X0058736Y0040454D01*
X0058736Y0040464D02*
X0057644Y0040464D01*
X0057644Y0040474D02*
X0058736Y0040474D01*
X0058736Y0040484D02*
X0057644Y0040484D01*
X0057644Y0040494D02*
X0058736Y0040494D01*
X0058736Y0040504D02*
X0057644Y0040504D01*
X0057644Y0040514D02*
X0058736Y0040514D01*
X0058736Y0040524D02*
X0057644Y0040524D01*
X0057644Y0040534D02*
X0058736Y0040534D01*
X0058736Y0040544D02*
X0057644Y0040544D01*
X0057644Y0040554D02*
X0058736Y0040554D01*
X0058736Y0040564D02*
X0057644Y0040564D01*
X0057644Y0040574D02*
X0058736Y0040574D01*
X0058736Y0040584D02*
X0057644Y0040584D01*
X0057644Y0040594D02*
X0058736Y0040594D01*
X0058736Y0040604D02*
X0057644Y0040604D01*
X0057644Y0040614D02*
X0058736Y0040614D01*
X0058736Y0040624D02*
X0057644Y0040624D01*
X0057644Y0040634D02*
X0058736Y0040634D01*
X0058736Y0040644D02*
X0057644Y0040644D01*
X0057644Y0040654D02*
X0058736Y0040654D01*
X0058736Y0040664D02*
X0057644Y0040664D01*
X0057644Y0040674D02*
X0058736Y0040674D01*
X0058736Y0040684D02*
X0057644Y0040684D01*
X0057644Y0040694D02*
X0058736Y0040694D01*
X0058736Y0040704D02*
X0057644Y0040704D01*
X0057644Y0040714D02*
X0058736Y0040714D01*
X0058736Y0040724D02*
X0057644Y0040724D01*
X0057644Y0040734D02*
X0058736Y0040734D01*
X0058736Y0040744D02*
X0057644Y0040744D01*
X0057644Y0040754D02*
X0058736Y0040754D01*
X0058736Y0040764D02*
X0057644Y0040764D01*
X0057644Y0040774D02*
X0058736Y0040774D01*
X0058736Y0040784D02*
X0057644Y0040784D01*
X0057644Y0040794D02*
X0058736Y0040794D01*
X0058736Y0040804D02*
X0057644Y0040804D01*
X0057644Y0040814D02*
X0058736Y0040814D01*
X0058736Y0040824D02*
X0057644Y0040824D01*
X0057644Y0040834D02*
X0058736Y0040834D01*
X0058736Y0040844D02*
X0057644Y0040844D01*
X0057644Y0040854D02*
X0058736Y0040854D01*
X0058736Y0040864D02*
X0057644Y0040864D01*
X0057644Y0040874D02*
X0058736Y0040874D01*
X0058736Y0040884D02*
X0057644Y0040884D01*
X0057644Y0040894D02*
X0058736Y0040894D01*
X0058736Y0040904D02*
X0057644Y0040904D01*
X0057644Y0040914D02*
X0058736Y0040914D01*
X0058736Y0040924D02*
X0057644Y0040924D01*
X0057644Y0040934D02*
X0058736Y0040934D01*
X0058736Y0040944D02*
X0057644Y0040944D01*
X0057644Y0040954D02*
X0058736Y0040954D01*
X0058736Y0040964D02*
X0057644Y0040964D01*
X0057644Y0040974D02*
X0058736Y0040974D01*
X0058736Y0040984D02*
X0057644Y0040984D01*
X0057644Y0040994D02*
X0058736Y0040994D01*
X0058736Y0041004D02*
X0057644Y0041004D01*
X0057644Y0041014D02*
X0058736Y0041014D01*
X0058736Y0041024D02*
X0057644Y0041024D01*
X0057644Y0041034D02*
X0058736Y0041034D01*
X0058736Y0041044D02*
X0057644Y0041044D01*
X0057644Y0041054D02*
X0058736Y0041054D01*
X0058736Y0041064D02*
X0057644Y0041064D01*
X0057644Y0041074D02*
X0058736Y0041074D01*
X0058736Y0041084D02*
X0057644Y0041084D01*
X0057644Y0041094D02*
X0058736Y0041094D01*
X0058736Y0041104D02*
X0057644Y0041104D01*
X0057644Y0041114D02*
X0058736Y0041114D01*
X0058736Y0041124D02*
X0057644Y0041124D01*
X0057644Y0041134D02*
X0058736Y0041134D01*
X0058736Y0041144D02*
X0057644Y0041144D01*
X0057644Y0041154D02*
X0058736Y0041154D01*
X0058736Y0041164D02*
X0057644Y0041164D01*
X0057644Y0041174D02*
X0058736Y0041174D01*
X0058736Y0041184D02*
X0057644Y0041184D01*
X0057644Y0041194D02*
X0058736Y0041194D01*
X0058736Y0041204D02*
X0057644Y0041204D01*
X0057644Y0041214D02*
X0058736Y0041214D01*
X0058736Y0041224D02*
X0057644Y0041224D01*
X0057644Y0041234D02*
X0058736Y0041234D01*
X0058736Y0041244D02*
X0057644Y0041244D01*
X0057644Y0041254D02*
X0058736Y0041254D01*
X0058736Y0041264D02*
X0057644Y0041264D01*
X0057644Y0041274D02*
X0058736Y0041274D01*
X0058736Y0041284D02*
X0057644Y0041284D01*
X0057644Y0041294D02*
X0058736Y0041294D01*
X0058736Y0041304D02*
X0057644Y0041304D01*
X0057644Y0041314D02*
X0058736Y0041314D01*
X0058736Y0041324D02*
X0057644Y0041324D01*
X0057644Y0041334D02*
X0058736Y0041334D01*
X0058736Y0041344D02*
X0057644Y0041344D01*
X0057644Y0041354D02*
X0058736Y0041354D01*
X0058736Y0041364D02*
X0057644Y0041364D01*
X0057644Y0041374D02*
X0058736Y0041374D01*
X0058736Y0041384D02*
X0057644Y0041384D01*
X0057644Y0041394D02*
X0058736Y0041394D01*
X0058736Y0041404D02*
X0057644Y0041404D01*
X0057644Y0041414D02*
X0058736Y0041414D01*
X0058736Y0041424D02*
X0057644Y0041424D01*
X0057644Y0041434D02*
X0058736Y0041434D01*
X0058736Y0041444D02*
X0057644Y0041444D01*
X0057644Y0041454D02*
X0058736Y0041454D01*
X0058736Y0041464D02*
X0057644Y0041464D01*
X0057644Y0041474D02*
X0058736Y0041474D01*
X0058736Y0041484D02*
X0057644Y0041484D01*
X0057644Y0041494D02*
X0058736Y0041494D01*
X0058736Y0041504D02*
X0057644Y0041504D01*
X0057644Y0041514D02*
X0058736Y0041514D01*
X0058736Y0041524D02*
X0057644Y0041524D01*
X0057644Y0041534D02*
X0058736Y0041534D01*
X0058736Y0041544D02*
X0057644Y0041544D01*
X0057644Y0041554D02*
X0058736Y0041554D01*
X0058736Y0041564D02*
X0057644Y0041564D01*
X0057644Y0041574D02*
X0058736Y0041574D01*
X0058736Y0041584D02*
X0057644Y0041584D01*
X0057644Y0041594D02*
X0058736Y0041594D01*
X0058736Y0041604D02*
X0057644Y0041604D01*
X0057644Y0041614D02*
X0058736Y0041614D01*
X0058736Y0041624D02*
X0057644Y0041624D01*
X0057644Y0041634D02*
X0058736Y0041634D01*
X0058736Y0041644D02*
X0057644Y0041644D01*
X0057644Y0041654D02*
X0058736Y0041654D01*
X0058736Y0041664D02*
X0057644Y0041664D01*
X0057644Y0041674D02*
X0058736Y0041674D01*
X0058736Y0041684D02*
X0057644Y0041684D01*
X0057644Y0041694D02*
X0058736Y0041694D01*
X0058736Y0041704D02*
X0057644Y0041704D01*
X0057644Y0041714D02*
X0058736Y0041714D01*
X0058736Y0041724D02*
X0057644Y0041724D01*
X0057644Y0041734D02*
X0058736Y0041734D01*
X0058736Y0041744D02*
X0057644Y0041744D01*
X0057644Y0041754D02*
X0058736Y0041754D01*
X0058736Y0041764D02*
X0057644Y0041764D01*
X0057644Y0041774D02*
X0058736Y0041774D01*
X0058736Y0041784D02*
X0057644Y0041784D01*
X0057644Y0041794D02*
X0058736Y0041794D01*
X0058736Y0041804D02*
X0057644Y0041804D01*
X0057644Y0041814D02*
X0058736Y0041814D01*
X0058736Y0041824D02*
X0057644Y0041824D01*
X0057644Y0041834D02*
X0058736Y0041834D01*
X0058736Y0041844D02*
X0057644Y0041844D01*
X0057644Y0041854D02*
X0058736Y0041854D01*
X0058736Y0041864D02*
X0057644Y0041864D01*
X0057644Y0041874D02*
X0058736Y0041874D01*
X0058736Y0041884D02*
X0057644Y0041884D01*
X0057644Y0041894D02*
X0058736Y0041894D01*
X0058736Y0041904D02*
X0057644Y0041904D01*
X0057644Y0041914D02*
X0058736Y0041914D01*
X0058736Y0041924D02*
X0057644Y0041924D01*
X0057644Y0041934D02*
X0058736Y0041934D01*
X0058736Y0041944D02*
X0057644Y0041944D01*
X0057644Y0041954D02*
X0058736Y0041954D01*
X0058736Y0041964D02*
X0057644Y0041964D01*
X0057644Y0041974D02*
X0058736Y0041974D01*
X0058736Y0041984D02*
X0057644Y0041984D01*
X0057644Y0041994D02*
X0058736Y0041994D01*
X0058736Y0042004D02*
X0057644Y0042004D01*
X0057644Y0042014D02*
X0058736Y0042014D01*
X0058736Y0042024D02*
X0057644Y0042024D01*
X0057644Y0042034D02*
X0058736Y0042034D01*
X0058736Y0042044D02*
X0057644Y0042044D01*
X0057644Y0042054D02*
X0058736Y0042054D01*
X0058736Y0042064D02*
X0057644Y0042064D01*
X0057644Y0042074D02*
X0058736Y0042074D01*
X0058736Y0042084D02*
X0057644Y0042084D01*
X0057644Y0042094D02*
X0058736Y0042094D01*
X0058736Y0042104D02*
X0057644Y0042104D01*
X0057644Y0042114D02*
X0058736Y0042114D01*
X0058736Y0042124D02*
X0057644Y0042124D01*
X0057644Y0042134D02*
X0058736Y0042134D01*
X0058736Y0042144D02*
X0057644Y0042144D01*
X0057644Y0042154D02*
X0058736Y0042154D01*
X0058736Y0042164D02*
X0057644Y0042164D01*
X0057644Y0042174D02*
X0058736Y0042174D01*
X0058736Y0042184D02*
X0057644Y0042184D01*
X0057644Y0042194D02*
X0058736Y0042194D01*
X0058736Y0042204D02*
X0057644Y0042204D01*
X0057644Y0042214D02*
X0058736Y0042214D01*
X0058736Y0042224D02*
X0057644Y0042224D01*
X0057644Y0042234D02*
X0058736Y0042234D01*
X0058736Y0042244D02*
X0057644Y0042244D01*
X0057644Y0042254D02*
X0058736Y0042254D01*
X0058736Y0042264D02*
X0057644Y0042264D01*
X0057644Y0042274D02*
X0058736Y0042274D01*
X0058736Y0042284D02*
X0057644Y0042284D01*
X0057644Y0042294D02*
X0058736Y0042294D01*
X0058736Y0042304D02*
X0057644Y0042304D01*
X0057644Y0042314D02*
X0058736Y0042314D01*
X0058736Y0042324D02*
X0057644Y0042324D01*
X0057644Y0042334D02*
X0058736Y0042334D01*
X0058736Y0042344D02*
X0057644Y0042344D01*
X0057644Y0042354D02*
X0058736Y0042354D01*
X0058736Y0042364D02*
X0057644Y0042364D01*
X0057644Y0042374D02*
X0058736Y0042374D01*
X0058736Y0042384D02*
X0057644Y0042384D01*
X0057644Y0042394D02*
X0058736Y0042394D01*
X0058736Y0042404D02*
X0057644Y0042404D01*
X0057644Y0042414D02*
X0058736Y0042414D01*
X0058736Y0042424D02*
X0057644Y0042424D01*
X0057644Y0042434D02*
X0058736Y0042434D01*
X0058736Y0042444D02*
X0057644Y0042444D01*
X0057644Y0042454D02*
X0058736Y0042454D01*
X0058736Y0042464D02*
X0057644Y0042464D01*
X0057644Y0042474D02*
X0058736Y0042474D01*
X0058736Y0042484D02*
X0057644Y0042484D01*
X0057644Y0042494D02*
X0058736Y0042494D01*
X0058736Y0042504D02*
X0057644Y0042504D01*
X0057644Y0042514D02*
X0058736Y0042514D01*
X0058736Y0042524D02*
X0057644Y0042524D01*
X0057644Y0042534D02*
X0058736Y0042534D01*
X0058736Y0042544D02*
X0057644Y0042544D01*
X0056768Y0042552D02*
X0056768Y0039314D01*
X0055676Y0039314D01*
X0055676Y0042552D01*
X0056768Y0042552D01*
X0056768Y0039324D02*
X0055676Y0039324D01*
X0055676Y0039334D02*
X0056768Y0039334D01*
X0056768Y0039344D02*
X0055676Y0039344D01*
X0055676Y0039354D02*
X0056768Y0039354D01*
X0056768Y0039364D02*
X0055676Y0039364D01*
X0055676Y0039374D02*
X0056768Y0039374D01*
X0056768Y0039384D02*
X0055676Y0039384D01*
X0055676Y0039394D02*
X0056768Y0039394D01*
X0056768Y0039404D02*
X0055676Y0039404D01*
X0055676Y0039414D02*
X0056768Y0039414D01*
X0056768Y0039424D02*
X0055676Y0039424D01*
X0055676Y0039434D02*
X0056768Y0039434D01*
X0056768Y0039444D02*
X0055676Y0039444D01*
X0055676Y0039454D02*
X0056768Y0039454D01*
X0056768Y0039464D02*
X0055676Y0039464D01*
X0055676Y0039474D02*
X0056768Y0039474D01*
X0056768Y0039484D02*
X0055676Y0039484D01*
X0055676Y0039494D02*
X0056768Y0039494D01*
X0056768Y0039504D02*
X0055676Y0039504D01*
X0055676Y0039514D02*
X0056768Y0039514D01*
X0056768Y0039524D02*
X0055676Y0039524D01*
X0055676Y0039534D02*
X0056768Y0039534D01*
X0056768Y0039544D02*
X0055676Y0039544D01*
X0055676Y0039554D02*
X0056768Y0039554D01*
X0056768Y0039564D02*
X0055676Y0039564D01*
X0055676Y0039574D02*
X0056768Y0039574D01*
X0056768Y0039584D02*
X0055676Y0039584D01*
X0055676Y0039594D02*
X0056768Y0039594D01*
X0056768Y0039604D02*
X0055676Y0039604D01*
X0055676Y0039614D02*
X0056768Y0039614D01*
X0056768Y0039624D02*
X0055676Y0039624D01*
X0055676Y0039634D02*
X0056768Y0039634D01*
X0056768Y0039644D02*
X0055676Y0039644D01*
X0055676Y0039654D02*
X0056768Y0039654D01*
X0056768Y0039664D02*
X0055676Y0039664D01*
X0055676Y0039674D02*
X0056768Y0039674D01*
X0056768Y0039684D02*
X0055676Y0039684D01*
X0055676Y0039694D02*
X0056768Y0039694D01*
X0056768Y0039704D02*
X0055676Y0039704D01*
X0055676Y0039714D02*
X0056768Y0039714D01*
X0056768Y0039724D02*
X0055676Y0039724D01*
X0055676Y0039734D02*
X0056768Y0039734D01*
X0056768Y0039744D02*
X0055676Y0039744D01*
X0055676Y0039754D02*
X0056768Y0039754D01*
X0056768Y0039764D02*
X0055676Y0039764D01*
X0055676Y0039774D02*
X0056768Y0039774D01*
X0056768Y0039784D02*
X0055676Y0039784D01*
X0055676Y0039794D02*
X0056768Y0039794D01*
X0056768Y0039804D02*
X0055676Y0039804D01*
X0055676Y0039814D02*
X0056768Y0039814D01*
X0056768Y0039824D02*
X0055676Y0039824D01*
X0055676Y0039834D02*
X0056768Y0039834D01*
X0056768Y0039844D02*
X0055676Y0039844D01*
X0055676Y0039854D02*
X0056768Y0039854D01*
X0056768Y0039864D02*
X0055676Y0039864D01*
X0055676Y0039874D02*
X0056768Y0039874D01*
X0056768Y0039884D02*
X0055676Y0039884D01*
X0055676Y0039894D02*
X0056768Y0039894D01*
X0056768Y0039904D02*
X0055676Y0039904D01*
X0055676Y0039914D02*
X0056768Y0039914D01*
X0056768Y0039924D02*
X0055676Y0039924D01*
X0055676Y0039934D02*
X0056768Y0039934D01*
X0056768Y0039944D02*
X0055676Y0039944D01*
X0055676Y0039954D02*
X0056768Y0039954D01*
X0056768Y0039964D02*
X0055676Y0039964D01*
X0055676Y0039974D02*
X0056768Y0039974D01*
X0056768Y0039984D02*
X0055676Y0039984D01*
X0055676Y0039994D02*
X0056768Y0039994D01*
X0056768Y0040004D02*
X0055676Y0040004D01*
X0055676Y0040014D02*
X0056768Y0040014D01*
X0056768Y0040024D02*
X0055676Y0040024D01*
X0055676Y0040034D02*
X0056768Y0040034D01*
X0056768Y0040044D02*
X0055676Y0040044D01*
X0055676Y0040054D02*
X0056768Y0040054D01*
X0056768Y0040064D02*
X0055676Y0040064D01*
X0055676Y0040074D02*
X0056768Y0040074D01*
X0056768Y0040084D02*
X0055676Y0040084D01*
X0055676Y0040094D02*
X0056768Y0040094D01*
X0056768Y0040104D02*
X0055676Y0040104D01*
X0055676Y0040114D02*
X0056768Y0040114D01*
X0056768Y0040124D02*
X0055676Y0040124D01*
X0055676Y0040134D02*
X0056768Y0040134D01*
X0056768Y0040144D02*
X0055676Y0040144D01*
X0055676Y0040154D02*
X0056768Y0040154D01*
X0056768Y0040164D02*
X0055676Y0040164D01*
X0055676Y0040174D02*
X0056768Y0040174D01*
X0056768Y0040184D02*
X0055676Y0040184D01*
X0055676Y0040194D02*
X0056768Y0040194D01*
X0056768Y0040204D02*
X0055676Y0040204D01*
X0055676Y0040214D02*
X0056768Y0040214D01*
X0056768Y0040224D02*
X0055676Y0040224D01*
X0055676Y0040234D02*
X0056768Y0040234D01*
X0056768Y0040244D02*
X0055676Y0040244D01*
X0055676Y0040254D02*
X0056768Y0040254D01*
X0056768Y0040264D02*
X0055676Y0040264D01*
X0055676Y0040274D02*
X0056768Y0040274D01*
X0056768Y0040284D02*
X0055676Y0040284D01*
X0055676Y0040294D02*
X0056768Y0040294D01*
X0056768Y0040304D02*
X0055676Y0040304D01*
X0055676Y0040314D02*
X0056768Y0040314D01*
X0056768Y0040324D02*
X0055676Y0040324D01*
X0055676Y0040334D02*
X0056768Y0040334D01*
X0056768Y0040344D02*
X0055676Y0040344D01*
X0055676Y0040354D02*
X0056768Y0040354D01*
X0056768Y0040364D02*
X0055676Y0040364D01*
X0055676Y0040374D02*
X0056768Y0040374D01*
X0056768Y0040384D02*
X0055676Y0040384D01*
X0055676Y0040394D02*
X0056768Y0040394D01*
X0056768Y0040404D02*
X0055676Y0040404D01*
X0055676Y0040414D02*
X0056768Y0040414D01*
X0056768Y0040424D02*
X0055676Y0040424D01*
X0055676Y0040434D02*
X0056768Y0040434D01*
X0056768Y0040444D02*
X0055676Y0040444D01*
X0055676Y0040454D02*
X0056768Y0040454D01*
X0056768Y0040464D02*
X0055676Y0040464D01*
X0055676Y0040474D02*
X0056768Y0040474D01*
X0056768Y0040484D02*
X0055676Y0040484D01*
X0055676Y0040494D02*
X0056768Y0040494D01*
X0056768Y0040504D02*
X0055676Y0040504D01*
X0055676Y0040514D02*
X0056768Y0040514D01*
X0056768Y0040524D02*
X0055676Y0040524D01*
X0055676Y0040534D02*
X0056768Y0040534D01*
X0056768Y0040544D02*
X0055676Y0040544D01*
X0055676Y0040554D02*
X0056768Y0040554D01*
X0056768Y0040564D02*
X0055676Y0040564D01*
X0055676Y0040574D02*
X0056768Y0040574D01*
X0056768Y0040584D02*
X0055676Y0040584D01*
X0055676Y0040594D02*
X0056768Y0040594D01*
X0056768Y0040604D02*
X0055676Y0040604D01*
X0055676Y0040614D02*
X0056768Y0040614D01*
X0056768Y0040624D02*
X0055676Y0040624D01*
X0055676Y0040634D02*
X0056768Y0040634D01*
X0056768Y0040644D02*
X0055676Y0040644D01*
X0055676Y0040654D02*
X0056768Y0040654D01*
X0056768Y0040664D02*
X0055676Y0040664D01*
X0055676Y0040674D02*
X0056768Y0040674D01*
X0056768Y0040684D02*
X0055676Y0040684D01*
X0055676Y0040694D02*
X0056768Y0040694D01*
X0056768Y0040704D02*
X0055676Y0040704D01*
X0055676Y0040714D02*
X0056768Y0040714D01*
X0056768Y0040724D02*
X0055676Y0040724D01*
X0055676Y0040734D02*
X0056768Y0040734D01*
X0056768Y0040744D02*
X0055676Y0040744D01*
X0055676Y0040754D02*
X0056768Y0040754D01*
X0056768Y0040764D02*
X0055676Y0040764D01*
X0055676Y0040774D02*
X0056768Y0040774D01*
X0056768Y0040784D02*
X0055676Y0040784D01*
X0055676Y0040794D02*
X0056768Y0040794D01*
X0056768Y0040804D02*
X0055676Y0040804D01*
X0055676Y0040814D02*
X0056768Y0040814D01*
X0056768Y0040824D02*
X0055676Y0040824D01*
X0055676Y0040834D02*
X0056768Y0040834D01*
X0056768Y0040844D02*
X0055676Y0040844D01*
X0055676Y0040854D02*
X0056768Y0040854D01*
X0056768Y0040864D02*
X0055676Y0040864D01*
X0055676Y0040874D02*
X0056768Y0040874D01*
X0056768Y0040884D02*
X0055676Y0040884D01*
X0055676Y0040894D02*
X0056768Y0040894D01*
X0056768Y0040904D02*
X0055676Y0040904D01*
X0055676Y0040914D02*
X0056768Y0040914D01*
X0056768Y0040924D02*
X0055676Y0040924D01*
X0055676Y0040934D02*
X0056768Y0040934D01*
X0056768Y0040944D02*
X0055676Y0040944D01*
X0055676Y0040954D02*
X0056768Y0040954D01*
X0056768Y0040964D02*
X0055676Y0040964D01*
X0055676Y0040974D02*
X0056768Y0040974D01*
X0056768Y0040984D02*
X0055676Y0040984D01*
X0055676Y0040994D02*
X0056768Y0040994D01*
X0056768Y0041004D02*
X0055676Y0041004D01*
X0055676Y0041014D02*
X0056768Y0041014D01*
X0056768Y0041024D02*
X0055676Y0041024D01*
X0055676Y0041034D02*
X0056768Y0041034D01*
X0056768Y0041044D02*
X0055676Y0041044D01*
X0055676Y0041054D02*
X0056768Y0041054D01*
X0056768Y0041064D02*
X0055676Y0041064D01*
X0055676Y0041074D02*
X0056768Y0041074D01*
X0056768Y0041084D02*
X0055676Y0041084D01*
X0055676Y0041094D02*
X0056768Y0041094D01*
X0056768Y0041104D02*
X0055676Y0041104D01*
X0055676Y0041114D02*
X0056768Y0041114D01*
X0056768Y0041124D02*
X0055676Y0041124D01*
X0055676Y0041134D02*
X0056768Y0041134D01*
X0056768Y0041144D02*
X0055676Y0041144D01*
X0055676Y0041154D02*
X0056768Y0041154D01*
X0056768Y0041164D02*
X0055676Y0041164D01*
X0055676Y0041174D02*
X0056768Y0041174D01*
X0056768Y0041184D02*
X0055676Y0041184D01*
X0055676Y0041194D02*
X0056768Y0041194D01*
X0056768Y0041204D02*
X0055676Y0041204D01*
X0055676Y0041214D02*
X0056768Y0041214D01*
X0056768Y0041224D02*
X0055676Y0041224D01*
X0055676Y0041234D02*
X0056768Y0041234D01*
X0056768Y0041244D02*
X0055676Y0041244D01*
X0055676Y0041254D02*
X0056768Y0041254D01*
X0056768Y0041264D02*
X0055676Y0041264D01*
X0055676Y0041274D02*
X0056768Y0041274D01*
X0056768Y0041284D02*
X0055676Y0041284D01*
X0055676Y0041294D02*
X0056768Y0041294D01*
X0056768Y0041304D02*
X0055676Y0041304D01*
X0055676Y0041314D02*
X0056768Y0041314D01*
X0056768Y0041324D02*
X0055676Y0041324D01*
X0055676Y0041334D02*
X0056768Y0041334D01*
X0056768Y0041344D02*
X0055676Y0041344D01*
X0055676Y0041354D02*
X0056768Y0041354D01*
X0056768Y0041364D02*
X0055676Y0041364D01*
X0055676Y0041374D02*
X0056768Y0041374D01*
X0056768Y0041384D02*
X0055676Y0041384D01*
X0055676Y0041394D02*
X0056768Y0041394D01*
X0056768Y0041404D02*
X0055676Y0041404D01*
X0055676Y0041414D02*
X0056768Y0041414D01*
X0056768Y0041424D02*
X0055676Y0041424D01*
X0055676Y0041434D02*
X0056768Y0041434D01*
X0056768Y0041444D02*
X0055676Y0041444D01*
X0055676Y0041454D02*
X0056768Y0041454D01*
X0056768Y0041464D02*
X0055676Y0041464D01*
X0055676Y0041474D02*
X0056768Y0041474D01*
X0056768Y0041484D02*
X0055676Y0041484D01*
X0055676Y0041494D02*
X0056768Y0041494D01*
X0056768Y0041504D02*
X0055676Y0041504D01*
X0055676Y0041514D02*
X0056768Y0041514D01*
X0056768Y0041524D02*
X0055676Y0041524D01*
X0055676Y0041534D02*
X0056768Y0041534D01*
X0056768Y0041544D02*
X0055676Y0041544D01*
X0055676Y0041554D02*
X0056768Y0041554D01*
X0056768Y0041564D02*
X0055676Y0041564D01*
X0055676Y0041574D02*
X0056768Y0041574D01*
X0056768Y0041584D02*
X0055676Y0041584D01*
X0055676Y0041594D02*
X0056768Y0041594D01*
X0056768Y0041604D02*
X0055676Y0041604D01*
X0055676Y0041614D02*
X0056768Y0041614D01*
X0056768Y0041624D02*
X0055676Y0041624D01*
X0055676Y0041634D02*
X0056768Y0041634D01*
X0056768Y0041644D02*
X0055676Y0041644D01*
X0055676Y0041654D02*
X0056768Y0041654D01*
X0056768Y0041664D02*
X0055676Y0041664D01*
X0055676Y0041674D02*
X0056768Y0041674D01*
X0056768Y0041684D02*
X0055676Y0041684D01*
X0055676Y0041694D02*
X0056768Y0041694D01*
X0056768Y0041704D02*
X0055676Y0041704D01*
X0055676Y0041714D02*
X0056768Y0041714D01*
X0056768Y0041724D02*
X0055676Y0041724D01*
X0055676Y0041734D02*
X0056768Y0041734D01*
X0056768Y0041744D02*
X0055676Y0041744D01*
X0055676Y0041754D02*
X0056768Y0041754D01*
X0056768Y0041764D02*
X0055676Y0041764D01*
X0055676Y0041774D02*
X0056768Y0041774D01*
X0056768Y0041784D02*
X0055676Y0041784D01*
X0055676Y0041794D02*
X0056768Y0041794D01*
X0056768Y0041804D02*
X0055676Y0041804D01*
X0055676Y0041814D02*
X0056768Y0041814D01*
X0056768Y0041824D02*
X0055676Y0041824D01*
X0055676Y0041834D02*
X0056768Y0041834D01*
X0056768Y0041844D02*
X0055676Y0041844D01*
X0055676Y0041854D02*
X0056768Y0041854D01*
X0056768Y0041864D02*
X0055676Y0041864D01*
X0055676Y0041874D02*
X0056768Y0041874D01*
X0056768Y0041884D02*
X0055676Y0041884D01*
X0055676Y0041894D02*
X0056768Y0041894D01*
X0056768Y0041904D02*
X0055676Y0041904D01*
X0055676Y0041914D02*
X0056768Y0041914D01*
X0056768Y0041924D02*
X0055676Y0041924D01*
X0055676Y0041934D02*
X0056768Y0041934D01*
X0056768Y0041944D02*
X0055676Y0041944D01*
X0055676Y0041954D02*
X0056768Y0041954D01*
X0056768Y0041964D02*
X0055676Y0041964D01*
X0055676Y0041974D02*
X0056768Y0041974D01*
X0056768Y0041984D02*
X0055676Y0041984D01*
X0055676Y0041994D02*
X0056768Y0041994D01*
X0056768Y0042004D02*
X0055676Y0042004D01*
X0055676Y0042014D02*
X0056768Y0042014D01*
X0056768Y0042024D02*
X0055676Y0042024D01*
X0055676Y0042034D02*
X0056768Y0042034D01*
X0056768Y0042044D02*
X0055676Y0042044D01*
X0055676Y0042054D02*
X0056768Y0042054D01*
X0056768Y0042064D02*
X0055676Y0042064D01*
X0055676Y0042074D02*
X0056768Y0042074D01*
X0056768Y0042084D02*
X0055676Y0042084D01*
X0055676Y0042094D02*
X0056768Y0042094D01*
X0056768Y0042104D02*
X0055676Y0042104D01*
X0055676Y0042114D02*
X0056768Y0042114D01*
X0056768Y0042124D02*
X0055676Y0042124D01*
X0055676Y0042134D02*
X0056768Y0042134D01*
X0056768Y0042144D02*
X0055676Y0042144D01*
X0055676Y0042154D02*
X0056768Y0042154D01*
X0056768Y0042164D02*
X0055676Y0042164D01*
X0055676Y0042174D02*
X0056768Y0042174D01*
X0056768Y0042184D02*
X0055676Y0042184D01*
X0055676Y0042194D02*
X0056768Y0042194D01*
X0056768Y0042204D02*
X0055676Y0042204D01*
X0055676Y0042214D02*
X0056768Y0042214D01*
X0056768Y0042224D02*
X0055676Y0042224D01*
X0055676Y0042234D02*
X0056768Y0042234D01*
X0056768Y0042244D02*
X0055676Y0042244D01*
X0055676Y0042254D02*
X0056768Y0042254D01*
X0056768Y0042264D02*
X0055676Y0042264D01*
X0055676Y0042274D02*
X0056768Y0042274D01*
X0056768Y0042284D02*
X0055676Y0042284D01*
X0055676Y0042294D02*
X0056768Y0042294D01*
X0056768Y0042304D02*
X0055676Y0042304D01*
X0055676Y0042314D02*
X0056768Y0042314D01*
X0056768Y0042324D02*
X0055676Y0042324D01*
X0055676Y0042334D02*
X0056768Y0042334D01*
X0056768Y0042344D02*
X0055676Y0042344D01*
X0055676Y0042354D02*
X0056768Y0042354D01*
X0056768Y0042364D02*
X0055676Y0042364D01*
X0055676Y0042374D02*
X0056768Y0042374D01*
X0056768Y0042384D02*
X0055676Y0042384D01*
X0055676Y0042394D02*
X0056768Y0042394D01*
X0056768Y0042404D02*
X0055676Y0042404D01*
X0055676Y0042414D02*
X0056768Y0042414D01*
X0056768Y0042424D02*
X0055676Y0042424D01*
X0055676Y0042434D02*
X0056768Y0042434D01*
X0056768Y0042444D02*
X0055676Y0042444D01*
X0055676Y0042454D02*
X0056768Y0042454D01*
X0056768Y0042464D02*
X0055676Y0042464D01*
X0055676Y0042474D02*
X0056768Y0042474D01*
X0056768Y0042484D02*
X0055676Y0042484D01*
X0055676Y0042494D02*
X0056768Y0042494D01*
X0056768Y0042504D02*
X0055676Y0042504D01*
X0055676Y0042514D02*
X0056768Y0042514D01*
X0056768Y0042524D02*
X0055676Y0042524D01*
X0055676Y0042534D02*
X0056768Y0042534D01*
X0056768Y0042544D02*
X0055676Y0042544D01*
X0054799Y0042552D02*
X0054799Y0039314D01*
X0053707Y0039314D01*
X0053707Y0042552D01*
X0054799Y0042552D01*
X0054799Y0039324D02*
X0053707Y0039324D01*
X0053707Y0039334D02*
X0054799Y0039334D01*
X0054799Y0039344D02*
X0053707Y0039344D01*
X0053707Y0039354D02*
X0054799Y0039354D01*
X0054799Y0039364D02*
X0053707Y0039364D01*
X0053707Y0039374D02*
X0054799Y0039374D01*
X0054799Y0039384D02*
X0053707Y0039384D01*
X0053707Y0039394D02*
X0054799Y0039394D01*
X0054799Y0039404D02*
X0053707Y0039404D01*
X0053707Y0039414D02*
X0054799Y0039414D01*
X0054799Y0039424D02*
X0053707Y0039424D01*
X0053707Y0039434D02*
X0054799Y0039434D01*
X0054799Y0039444D02*
X0053707Y0039444D01*
X0053707Y0039454D02*
X0054799Y0039454D01*
X0054799Y0039464D02*
X0053707Y0039464D01*
X0053707Y0039474D02*
X0054799Y0039474D01*
X0054799Y0039484D02*
X0053707Y0039484D01*
X0053707Y0039494D02*
X0054799Y0039494D01*
X0054799Y0039504D02*
X0053707Y0039504D01*
X0053707Y0039514D02*
X0054799Y0039514D01*
X0054799Y0039524D02*
X0053707Y0039524D01*
X0053707Y0039534D02*
X0054799Y0039534D01*
X0054799Y0039544D02*
X0053707Y0039544D01*
X0053707Y0039554D02*
X0054799Y0039554D01*
X0054799Y0039564D02*
X0053707Y0039564D01*
X0053707Y0039574D02*
X0054799Y0039574D01*
X0054799Y0039584D02*
X0053707Y0039584D01*
X0053707Y0039594D02*
X0054799Y0039594D01*
X0054799Y0039604D02*
X0053707Y0039604D01*
X0053707Y0039614D02*
X0054799Y0039614D01*
X0054799Y0039624D02*
X0053707Y0039624D01*
X0053707Y0039634D02*
X0054799Y0039634D01*
X0054799Y0039644D02*
X0053707Y0039644D01*
X0053707Y0039654D02*
X0054799Y0039654D01*
X0054799Y0039664D02*
X0053707Y0039664D01*
X0053707Y0039674D02*
X0054799Y0039674D01*
X0054799Y0039684D02*
X0053707Y0039684D01*
X0053707Y0039694D02*
X0054799Y0039694D01*
X0054799Y0039704D02*
X0053707Y0039704D01*
X0053707Y0039714D02*
X0054799Y0039714D01*
X0054799Y0039724D02*
X0053707Y0039724D01*
X0053707Y0039734D02*
X0054799Y0039734D01*
X0054799Y0039744D02*
X0053707Y0039744D01*
X0053707Y0039754D02*
X0054799Y0039754D01*
X0054799Y0039764D02*
X0053707Y0039764D01*
X0053707Y0039774D02*
X0054799Y0039774D01*
X0054799Y0039784D02*
X0053707Y0039784D01*
X0053707Y0039794D02*
X0054799Y0039794D01*
X0054799Y0039804D02*
X0053707Y0039804D01*
X0053707Y0039814D02*
X0054799Y0039814D01*
X0054799Y0039824D02*
X0053707Y0039824D01*
X0053707Y0039834D02*
X0054799Y0039834D01*
X0054799Y0039844D02*
X0053707Y0039844D01*
X0053707Y0039854D02*
X0054799Y0039854D01*
X0054799Y0039864D02*
X0053707Y0039864D01*
X0053707Y0039874D02*
X0054799Y0039874D01*
X0054799Y0039884D02*
X0053707Y0039884D01*
X0053707Y0039894D02*
X0054799Y0039894D01*
X0054799Y0039904D02*
X0053707Y0039904D01*
X0053707Y0039914D02*
X0054799Y0039914D01*
X0054799Y0039924D02*
X0053707Y0039924D01*
X0053707Y0039934D02*
X0054799Y0039934D01*
X0054799Y0039944D02*
X0053707Y0039944D01*
X0053707Y0039954D02*
X0054799Y0039954D01*
X0054799Y0039964D02*
X0053707Y0039964D01*
X0053707Y0039974D02*
X0054799Y0039974D01*
X0054799Y0039984D02*
X0053707Y0039984D01*
X0053707Y0039994D02*
X0054799Y0039994D01*
X0054799Y0040004D02*
X0053707Y0040004D01*
X0053707Y0040014D02*
X0054799Y0040014D01*
X0054799Y0040024D02*
X0053707Y0040024D01*
X0053707Y0040034D02*
X0054799Y0040034D01*
X0054799Y0040044D02*
X0053707Y0040044D01*
X0053707Y0040054D02*
X0054799Y0040054D01*
X0054799Y0040064D02*
X0053707Y0040064D01*
X0053707Y0040074D02*
X0054799Y0040074D01*
X0054799Y0040084D02*
X0053707Y0040084D01*
X0053707Y0040094D02*
X0054799Y0040094D01*
X0054799Y0040104D02*
X0053707Y0040104D01*
X0053707Y0040114D02*
X0054799Y0040114D01*
X0054799Y0040124D02*
X0053707Y0040124D01*
X0053707Y0040134D02*
X0054799Y0040134D01*
X0054799Y0040144D02*
X0053707Y0040144D01*
X0053707Y0040154D02*
X0054799Y0040154D01*
X0054799Y0040164D02*
X0053707Y0040164D01*
X0053707Y0040174D02*
X0054799Y0040174D01*
X0054799Y0040184D02*
X0053707Y0040184D01*
X0053707Y0040194D02*
X0054799Y0040194D01*
X0054799Y0040204D02*
X0053707Y0040204D01*
X0053707Y0040214D02*
X0054799Y0040214D01*
X0054799Y0040224D02*
X0053707Y0040224D01*
X0053707Y0040234D02*
X0054799Y0040234D01*
X0054799Y0040244D02*
X0053707Y0040244D01*
X0053707Y0040254D02*
X0054799Y0040254D01*
X0054799Y0040264D02*
X0053707Y0040264D01*
X0053707Y0040274D02*
X0054799Y0040274D01*
X0054799Y0040284D02*
X0053707Y0040284D01*
X0053707Y0040294D02*
X0054799Y0040294D01*
X0054799Y0040304D02*
X0053707Y0040304D01*
X0053707Y0040314D02*
X0054799Y0040314D01*
X0054799Y0040324D02*
X0053707Y0040324D01*
X0053707Y0040334D02*
X0054799Y0040334D01*
X0054799Y0040344D02*
X0053707Y0040344D01*
X0053707Y0040354D02*
X0054799Y0040354D01*
X0054799Y0040364D02*
X0053707Y0040364D01*
X0053707Y0040374D02*
X0054799Y0040374D01*
X0054799Y0040384D02*
X0053707Y0040384D01*
X0053707Y0040394D02*
X0054799Y0040394D01*
X0054799Y0040404D02*
X0053707Y0040404D01*
X0053707Y0040414D02*
X0054799Y0040414D01*
X0054799Y0040424D02*
X0053707Y0040424D01*
X0053707Y0040434D02*
X0054799Y0040434D01*
X0054799Y0040444D02*
X0053707Y0040444D01*
X0053707Y0040454D02*
X0054799Y0040454D01*
X0054799Y0040464D02*
X0053707Y0040464D01*
X0053707Y0040474D02*
X0054799Y0040474D01*
X0054799Y0040484D02*
X0053707Y0040484D01*
X0053707Y0040494D02*
X0054799Y0040494D01*
X0054799Y0040504D02*
X0053707Y0040504D01*
X0053707Y0040514D02*
X0054799Y0040514D01*
X0054799Y0040524D02*
X0053707Y0040524D01*
X0053707Y0040534D02*
X0054799Y0040534D01*
X0054799Y0040544D02*
X0053707Y0040544D01*
X0053707Y0040554D02*
X0054799Y0040554D01*
X0054799Y0040564D02*
X0053707Y0040564D01*
X0053707Y0040574D02*
X0054799Y0040574D01*
X0054799Y0040584D02*
X0053707Y0040584D01*
X0053707Y0040594D02*
X0054799Y0040594D01*
X0054799Y0040604D02*
X0053707Y0040604D01*
X0053707Y0040614D02*
X0054799Y0040614D01*
X0054799Y0040624D02*
X0053707Y0040624D01*
X0053707Y0040634D02*
X0054799Y0040634D01*
X0054799Y0040644D02*
X0053707Y0040644D01*
X0053707Y0040654D02*
X0054799Y0040654D01*
X0054799Y0040664D02*
X0053707Y0040664D01*
X0053707Y0040674D02*
X0054799Y0040674D01*
X0054799Y0040684D02*
X0053707Y0040684D01*
X0053707Y0040694D02*
X0054799Y0040694D01*
X0054799Y0040704D02*
X0053707Y0040704D01*
X0053707Y0040714D02*
X0054799Y0040714D01*
X0054799Y0040724D02*
X0053707Y0040724D01*
X0053707Y0040734D02*
X0054799Y0040734D01*
X0054799Y0040744D02*
X0053707Y0040744D01*
X0053707Y0040754D02*
X0054799Y0040754D01*
X0054799Y0040764D02*
X0053707Y0040764D01*
X0053707Y0040774D02*
X0054799Y0040774D01*
X0054799Y0040784D02*
X0053707Y0040784D01*
X0053707Y0040794D02*
X0054799Y0040794D01*
X0054799Y0040804D02*
X0053707Y0040804D01*
X0053707Y0040814D02*
X0054799Y0040814D01*
X0054799Y0040824D02*
X0053707Y0040824D01*
X0053707Y0040834D02*
X0054799Y0040834D01*
X0054799Y0040844D02*
X0053707Y0040844D01*
X0053707Y0040854D02*
X0054799Y0040854D01*
X0054799Y0040864D02*
X0053707Y0040864D01*
X0053707Y0040874D02*
X0054799Y0040874D01*
X0054799Y0040884D02*
X0053707Y0040884D01*
X0053707Y0040894D02*
X0054799Y0040894D01*
X0054799Y0040904D02*
X0053707Y0040904D01*
X0053707Y0040914D02*
X0054799Y0040914D01*
X0054799Y0040924D02*
X0053707Y0040924D01*
X0053707Y0040934D02*
X0054799Y0040934D01*
X0054799Y0040944D02*
X0053707Y0040944D01*
X0053707Y0040954D02*
X0054799Y0040954D01*
X0054799Y0040964D02*
X0053707Y0040964D01*
X0053707Y0040974D02*
X0054799Y0040974D01*
X0054799Y0040984D02*
X0053707Y0040984D01*
X0053707Y0040994D02*
X0054799Y0040994D01*
X0054799Y0041004D02*
X0053707Y0041004D01*
X0053707Y0041014D02*
X0054799Y0041014D01*
X0054799Y0041024D02*
X0053707Y0041024D01*
X0053707Y0041034D02*
X0054799Y0041034D01*
X0054799Y0041044D02*
X0053707Y0041044D01*
X0053707Y0041054D02*
X0054799Y0041054D01*
X0054799Y0041064D02*
X0053707Y0041064D01*
X0053707Y0041074D02*
X0054799Y0041074D01*
X0054799Y0041084D02*
X0053707Y0041084D01*
X0053707Y0041094D02*
X0054799Y0041094D01*
X0054799Y0041104D02*
X0053707Y0041104D01*
X0053707Y0041114D02*
X0054799Y0041114D01*
X0054799Y0041124D02*
X0053707Y0041124D01*
X0053707Y0041134D02*
X0054799Y0041134D01*
X0054799Y0041144D02*
X0053707Y0041144D01*
X0053707Y0041154D02*
X0054799Y0041154D01*
X0054799Y0041164D02*
X0053707Y0041164D01*
X0053707Y0041174D02*
X0054799Y0041174D01*
X0054799Y0041184D02*
X0053707Y0041184D01*
X0053707Y0041194D02*
X0054799Y0041194D01*
X0054799Y0041204D02*
X0053707Y0041204D01*
X0053707Y0041214D02*
X0054799Y0041214D01*
X0054799Y0041224D02*
X0053707Y0041224D01*
X0053707Y0041234D02*
X0054799Y0041234D01*
X0054799Y0041244D02*
X0053707Y0041244D01*
X0053707Y0041254D02*
X0054799Y0041254D01*
X0054799Y0041264D02*
X0053707Y0041264D01*
X0053707Y0041274D02*
X0054799Y0041274D01*
X0054799Y0041284D02*
X0053707Y0041284D01*
X0053707Y0041294D02*
X0054799Y0041294D01*
X0054799Y0041304D02*
X0053707Y0041304D01*
X0053707Y0041314D02*
X0054799Y0041314D01*
X0054799Y0041324D02*
X0053707Y0041324D01*
X0053707Y0041334D02*
X0054799Y0041334D01*
X0054799Y0041344D02*
X0053707Y0041344D01*
X0053707Y0041354D02*
X0054799Y0041354D01*
X0054799Y0041364D02*
X0053707Y0041364D01*
X0053707Y0041374D02*
X0054799Y0041374D01*
X0054799Y0041384D02*
X0053707Y0041384D01*
X0053707Y0041394D02*
X0054799Y0041394D01*
X0054799Y0041404D02*
X0053707Y0041404D01*
X0053707Y0041414D02*
X0054799Y0041414D01*
X0054799Y0041424D02*
X0053707Y0041424D01*
X0053707Y0041434D02*
X0054799Y0041434D01*
X0054799Y0041444D02*
X0053707Y0041444D01*
X0053707Y0041454D02*
X0054799Y0041454D01*
X0054799Y0041464D02*
X0053707Y0041464D01*
X0053707Y0041474D02*
X0054799Y0041474D01*
X0054799Y0041484D02*
X0053707Y0041484D01*
X0053707Y0041494D02*
X0054799Y0041494D01*
X0054799Y0041504D02*
X0053707Y0041504D01*
X0053707Y0041514D02*
X0054799Y0041514D01*
X0054799Y0041524D02*
X0053707Y0041524D01*
X0053707Y0041534D02*
X0054799Y0041534D01*
X0054799Y0041544D02*
X0053707Y0041544D01*
X0053707Y0041554D02*
X0054799Y0041554D01*
X0054799Y0041564D02*
X0053707Y0041564D01*
X0053707Y0041574D02*
X0054799Y0041574D01*
X0054799Y0041584D02*
X0053707Y0041584D01*
X0053707Y0041594D02*
X0054799Y0041594D01*
X0054799Y0041604D02*
X0053707Y0041604D01*
X0053707Y0041614D02*
X0054799Y0041614D01*
X0054799Y0041624D02*
X0053707Y0041624D01*
X0053707Y0041634D02*
X0054799Y0041634D01*
X0054799Y0041644D02*
X0053707Y0041644D01*
X0053707Y0041654D02*
X0054799Y0041654D01*
X0054799Y0041664D02*
X0053707Y0041664D01*
X0053707Y0041674D02*
X0054799Y0041674D01*
X0054799Y0041684D02*
X0053707Y0041684D01*
X0053707Y0041694D02*
X0054799Y0041694D01*
X0054799Y0041704D02*
X0053707Y0041704D01*
X0053707Y0041714D02*
X0054799Y0041714D01*
X0054799Y0041724D02*
X0053707Y0041724D01*
X0053707Y0041734D02*
X0054799Y0041734D01*
X0054799Y0041744D02*
X0053707Y0041744D01*
X0053707Y0041754D02*
X0054799Y0041754D01*
X0054799Y0041764D02*
X0053707Y0041764D01*
X0053707Y0041774D02*
X0054799Y0041774D01*
X0054799Y0041784D02*
X0053707Y0041784D01*
X0053707Y0041794D02*
X0054799Y0041794D01*
X0054799Y0041804D02*
X0053707Y0041804D01*
X0053707Y0041814D02*
X0054799Y0041814D01*
X0054799Y0041824D02*
X0053707Y0041824D01*
X0053707Y0041834D02*
X0054799Y0041834D01*
X0054799Y0041844D02*
X0053707Y0041844D01*
X0053707Y0041854D02*
X0054799Y0041854D01*
X0054799Y0041864D02*
X0053707Y0041864D01*
X0053707Y0041874D02*
X0054799Y0041874D01*
X0054799Y0041884D02*
X0053707Y0041884D01*
X0053707Y0041894D02*
X0054799Y0041894D01*
X0054799Y0041904D02*
X0053707Y0041904D01*
X0053707Y0041914D02*
X0054799Y0041914D01*
X0054799Y0041924D02*
X0053707Y0041924D01*
X0053707Y0041934D02*
X0054799Y0041934D01*
X0054799Y0041944D02*
X0053707Y0041944D01*
X0053707Y0041954D02*
X0054799Y0041954D01*
X0054799Y0041964D02*
X0053707Y0041964D01*
X0053707Y0041974D02*
X0054799Y0041974D01*
X0054799Y0041984D02*
X0053707Y0041984D01*
X0053707Y0041994D02*
X0054799Y0041994D01*
X0054799Y0042004D02*
X0053707Y0042004D01*
X0053707Y0042014D02*
X0054799Y0042014D01*
X0054799Y0042024D02*
X0053707Y0042024D01*
X0053707Y0042034D02*
X0054799Y0042034D01*
X0054799Y0042044D02*
X0053707Y0042044D01*
X0053707Y0042054D02*
X0054799Y0042054D01*
X0054799Y0042064D02*
X0053707Y0042064D01*
X0053707Y0042074D02*
X0054799Y0042074D01*
X0054799Y0042084D02*
X0053707Y0042084D01*
X0053707Y0042094D02*
X0054799Y0042094D01*
X0054799Y0042104D02*
X0053707Y0042104D01*
X0053707Y0042114D02*
X0054799Y0042114D01*
X0054799Y0042124D02*
X0053707Y0042124D01*
X0053707Y0042134D02*
X0054799Y0042134D01*
X0054799Y0042144D02*
X0053707Y0042144D01*
X0053707Y0042154D02*
X0054799Y0042154D01*
X0054799Y0042164D02*
X0053707Y0042164D01*
X0053707Y0042174D02*
X0054799Y0042174D01*
X0054799Y0042184D02*
X0053707Y0042184D01*
X0053707Y0042194D02*
X0054799Y0042194D01*
X0054799Y0042204D02*
X0053707Y0042204D01*
X0053707Y0042214D02*
X0054799Y0042214D01*
X0054799Y0042224D02*
X0053707Y0042224D01*
X0053707Y0042234D02*
X0054799Y0042234D01*
X0054799Y0042244D02*
X0053707Y0042244D01*
X0053707Y0042254D02*
X0054799Y0042254D01*
X0054799Y0042264D02*
X0053707Y0042264D01*
X0053707Y0042274D02*
X0054799Y0042274D01*
X0054799Y0042284D02*
X0053707Y0042284D01*
X0053707Y0042294D02*
X0054799Y0042294D01*
X0054799Y0042304D02*
X0053707Y0042304D01*
X0053707Y0042314D02*
X0054799Y0042314D01*
X0054799Y0042324D02*
X0053707Y0042324D01*
X0053707Y0042334D02*
X0054799Y0042334D01*
X0054799Y0042344D02*
X0053707Y0042344D01*
X0053707Y0042354D02*
X0054799Y0042354D01*
X0054799Y0042364D02*
X0053707Y0042364D01*
X0053707Y0042374D02*
X0054799Y0042374D01*
X0054799Y0042384D02*
X0053707Y0042384D01*
X0053707Y0042394D02*
X0054799Y0042394D01*
X0054799Y0042404D02*
X0053707Y0042404D01*
X0053707Y0042414D02*
X0054799Y0042414D01*
X0054799Y0042424D02*
X0053707Y0042424D01*
X0053707Y0042434D02*
X0054799Y0042434D01*
X0054799Y0042444D02*
X0053707Y0042444D01*
X0053707Y0042454D02*
X0054799Y0042454D01*
X0054799Y0042464D02*
X0053707Y0042464D01*
X0053707Y0042474D02*
X0054799Y0042474D01*
X0054799Y0042484D02*
X0053707Y0042484D01*
X0053707Y0042494D02*
X0054799Y0042494D01*
X0054799Y0042504D02*
X0053707Y0042504D01*
X0053707Y0042514D02*
X0054799Y0042514D01*
X0054799Y0042524D02*
X0053707Y0042524D01*
X0053707Y0042534D02*
X0054799Y0042534D01*
X0054799Y0042544D02*
X0053707Y0042544D01*
X0052831Y0042552D02*
X0052831Y0039314D01*
X0051739Y0039314D01*
X0051739Y0042552D01*
X0052831Y0042552D01*
X0052831Y0039324D02*
X0051739Y0039324D01*
X0051739Y0039334D02*
X0052831Y0039334D01*
X0052831Y0039344D02*
X0051739Y0039344D01*
X0051739Y0039354D02*
X0052831Y0039354D01*
X0052831Y0039364D02*
X0051739Y0039364D01*
X0051739Y0039374D02*
X0052831Y0039374D01*
X0052831Y0039384D02*
X0051739Y0039384D01*
X0051739Y0039394D02*
X0052831Y0039394D01*
X0052831Y0039404D02*
X0051739Y0039404D01*
X0051739Y0039414D02*
X0052831Y0039414D01*
X0052831Y0039424D02*
X0051739Y0039424D01*
X0051739Y0039434D02*
X0052831Y0039434D01*
X0052831Y0039444D02*
X0051739Y0039444D01*
X0051739Y0039454D02*
X0052831Y0039454D01*
X0052831Y0039464D02*
X0051739Y0039464D01*
X0051739Y0039474D02*
X0052831Y0039474D01*
X0052831Y0039484D02*
X0051739Y0039484D01*
X0051739Y0039494D02*
X0052831Y0039494D01*
X0052831Y0039504D02*
X0051739Y0039504D01*
X0051739Y0039514D02*
X0052831Y0039514D01*
X0052831Y0039524D02*
X0051739Y0039524D01*
X0051739Y0039534D02*
X0052831Y0039534D01*
X0052831Y0039544D02*
X0051739Y0039544D01*
X0051739Y0039554D02*
X0052831Y0039554D01*
X0052831Y0039564D02*
X0051739Y0039564D01*
X0051739Y0039574D02*
X0052831Y0039574D01*
X0052831Y0039584D02*
X0051739Y0039584D01*
X0051739Y0039594D02*
X0052831Y0039594D01*
X0052831Y0039604D02*
X0051739Y0039604D01*
X0051739Y0039614D02*
X0052831Y0039614D01*
X0052831Y0039624D02*
X0051739Y0039624D01*
X0051739Y0039634D02*
X0052831Y0039634D01*
X0052831Y0039644D02*
X0051739Y0039644D01*
X0051739Y0039654D02*
X0052831Y0039654D01*
X0052831Y0039664D02*
X0051739Y0039664D01*
X0051739Y0039674D02*
X0052831Y0039674D01*
X0052831Y0039684D02*
X0051739Y0039684D01*
X0051739Y0039694D02*
X0052831Y0039694D01*
X0052831Y0039704D02*
X0051739Y0039704D01*
X0051739Y0039714D02*
X0052831Y0039714D01*
X0052831Y0039724D02*
X0051739Y0039724D01*
X0051739Y0039734D02*
X0052831Y0039734D01*
X0052831Y0039744D02*
X0051739Y0039744D01*
X0051739Y0039754D02*
X0052831Y0039754D01*
X0052831Y0039764D02*
X0051739Y0039764D01*
X0051739Y0039774D02*
X0052831Y0039774D01*
X0052831Y0039784D02*
X0051739Y0039784D01*
X0051739Y0039794D02*
X0052831Y0039794D01*
X0052831Y0039804D02*
X0051739Y0039804D01*
X0051739Y0039814D02*
X0052831Y0039814D01*
X0052831Y0039824D02*
X0051739Y0039824D01*
X0051739Y0039834D02*
X0052831Y0039834D01*
X0052831Y0039844D02*
X0051739Y0039844D01*
X0051739Y0039854D02*
X0052831Y0039854D01*
X0052831Y0039864D02*
X0051739Y0039864D01*
X0051739Y0039874D02*
X0052831Y0039874D01*
X0052831Y0039884D02*
X0051739Y0039884D01*
X0051739Y0039894D02*
X0052831Y0039894D01*
X0052831Y0039904D02*
X0051739Y0039904D01*
X0051739Y0039914D02*
X0052831Y0039914D01*
X0052831Y0039924D02*
X0051739Y0039924D01*
X0051739Y0039934D02*
X0052831Y0039934D01*
X0052831Y0039944D02*
X0051739Y0039944D01*
X0051739Y0039954D02*
X0052831Y0039954D01*
X0052831Y0039964D02*
X0051739Y0039964D01*
X0051739Y0039974D02*
X0052831Y0039974D01*
X0052831Y0039984D02*
X0051739Y0039984D01*
X0051739Y0039994D02*
X0052831Y0039994D01*
X0052831Y0040004D02*
X0051739Y0040004D01*
X0051739Y0040014D02*
X0052831Y0040014D01*
X0052831Y0040024D02*
X0051739Y0040024D01*
X0051739Y0040034D02*
X0052831Y0040034D01*
X0052831Y0040044D02*
X0051739Y0040044D01*
X0051739Y0040054D02*
X0052831Y0040054D01*
X0052831Y0040064D02*
X0051739Y0040064D01*
X0051739Y0040074D02*
X0052831Y0040074D01*
X0052831Y0040084D02*
X0051739Y0040084D01*
X0051739Y0040094D02*
X0052831Y0040094D01*
X0052831Y0040104D02*
X0051739Y0040104D01*
X0051739Y0040114D02*
X0052831Y0040114D01*
X0052831Y0040124D02*
X0051739Y0040124D01*
X0051739Y0040134D02*
X0052831Y0040134D01*
X0052831Y0040144D02*
X0051739Y0040144D01*
X0051739Y0040154D02*
X0052831Y0040154D01*
X0052831Y0040164D02*
X0051739Y0040164D01*
X0051739Y0040174D02*
X0052831Y0040174D01*
X0052831Y0040184D02*
X0051739Y0040184D01*
X0051739Y0040194D02*
X0052831Y0040194D01*
X0052831Y0040204D02*
X0051739Y0040204D01*
X0051739Y0040214D02*
X0052831Y0040214D01*
X0052831Y0040224D02*
X0051739Y0040224D01*
X0051739Y0040234D02*
X0052831Y0040234D01*
X0052831Y0040244D02*
X0051739Y0040244D01*
X0051739Y0040254D02*
X0052831Y0040254D01*
X0052831Y0040264D02*
X0051739Y0040264D01*
X0051739Y0040274D02*
X0052831Y0040274D01*
X0052831Y0040284D02*
X0051739Y0040284D01*
X0051739Y0040294D02*
X0052831Y0040294D01*
X0052831Y0040304D02*
X0051739Y0040304D01*
X0051739Y0040314D02*
X0052831Y0040314D01*
X0052831Y0040324D02*
X0051739Y0040324D01*
X0051739Y0040334D02*
X0052831Y0040334D01*
X0052831Y0040344D02*
X0051739Y0040344D01*
X0051739Y0040354D02*
X0052831Y0040354D01*
X0052831Y0040364D02*
X0051739Y0040364D01*
X0051739Y0040374D02*
X0052831Y0040374D01*
X0052831Y0040384D02*
X0051739Y0040384D01*
X0051739Y0040394D02*
X0052831Y0040394D01*
X0052831Y0040404D02*
X0051739Y0040404D01*
X0051739Y0040414D02*
X0052831Y0040414D01*
X0052831Y0040424D02*
X0051739Y0040424D01*
X0051739Y0040434D02*
X0052831Y0040434D01*
X0052831Y0040444D02*
X0051739Y0040444D01*
X0051739Y0040454D02*
X0052831Y0040454D01*
X0052831Y0040464D02*
X0051739Y0040464D01*
X0051739Y0040474D02*
X0052831Y0040474D01*
X0052831Y0040484D02*
X0051739Y0040484D01*
X0051739Y0040494D02*
X0052831Y0040494D01*
X0052831Y0040504D02*
X0051739Y0040504D01*
X0051739Y0040514D02*
X0052831Y0040514D01*
X0052831Y0040524D02*
X0051739Y0040524D01*
X0051739Y0040534D02*
X0052831Y0040534D01*
X0052831Y0040544D02*
X0051739Y0040544D01*
X0051739Y0040554D02*
X0052831Y0040554D01*
X0052831Y0040564D02*
X0051739Y0040564D01*
X0051739Y0040574D02*
X0052831Y0040574D01*
X0052831Y0040584D02*
X0051739Y0040584D01*
X0051739Y0040594D02*
X0052831Y0040594D01*
X0052831Y0040604D02*
X0051739Y0040604D01*
X0051739Y0040614D02*
X0052831Y0040614D01*
X0052831Y0040624D02*
X0051739Y0040624D01*
X0051739Y0040634D02*
X0052831Y0040634D01*
X0052831Y0040644D02*
X0051739Y0040644D01*
X0051739Y0040654D02*
X0052831Y0040654D01*
X0052831Y0040664D02*
X0051739Y0040664D01*
X0051739Y0040674D02*
X0052831Y0040674D01*
X0052831Y0040684D02*
X0051739Y0040684D01*
X0051739Y0040694D02*
X0052831Y0040694D01*
X0052831Y0040704D02*
X0051739Y0040704D01*
X0051739Y0040714D02*
X0052831Y0040714D01*
X0052831Y0040724D02*
X0051739Y0040724D01*
X0051739Y0040734D02*
X0052831Y0040734D01*
X0052831Y0040744D02*
X0051739Y0040744D01*
X0051739Y0040754D02*
X0052831Y0040754D01*
X0052831Y0040764D02*
X0051739Y0040764D01*
X0051739Y0040774D02*
X0052831Y0040774D01*
X0052831Y0040784D02*
X0051739Y0040784D01*
X0051739Y0040794D02*
X0052831Y0040794D01*
X0052831Y0040804D02*
X0051739Y0040804D01*
X0051739Y0040814D02*
X0052831Y0040814D01*
X0052831Y0040824D02*
X0051739Y0040824D01*
X0051739Y0040834D02*
X0052831Y0040834D01*
X0052831Y0040844D02*
X0051739Y0040844D01*
X0051739Y0040854D02*
X0052831Y0040854D01*
X0052831Y0040864D02*
X0051739Y0040864D01*
X0051739Y0040874D02*
X0052831Y0040874D01*
X0052831Y0040884D02*
X0051739Y0040884D01*
X0051739Y0040894D02*
X0052831Y0040894D01*
X0052831Y0040904D02*
X0051739Y0040904D01*
X0051739Y0040914D02*
X0052831Y0040914D01*
X0052831Y0040924D02*
X0051739Y0040924D01*
X0051739Y0040934D02*
X0052831Y0040934D01*
X0052831Y0040944D02*
X0051739Y0040944D01*
X0051739Y0040954D02*
X0052831Y0040954D01*
X0052831Y0040964D02*
X0051739Y0040964D01*
X0051739Y0040974D02*
X0052831Y0040974D01*
X0052831Y0040984D02*
X0051739Y0040984D01*
X0051739Y0040994D02*
X0052831Y0040994D01*
X0052831Y0041004D02*
X0051739Y0041004D01*
X0051739Y0041014D02*
X0052831Y0041014D01*
X0052831Y0041024D02*
X0051739Y0041024D01*
X0051739Y0041034D02*
X0052831Y0041034D01*
X0052831Y0041044D02*
X0051739Y0041044D01*
X0051739Y0041054D02*
X0052831Y0041054D01*
X0052831Y0041064D02*
X0051739Y0041064D01*
X0051739Y0041074D02*
X0052831Y0041074D01*
X0052831Y0041084D02*
X0051739Y0041084D01*
X0051739Y0041094D02*
X0052831Y0041094D01*
X0052831Y0041104D02*
X0051739Y0041104D01*
X0051739Y0041114D02*
X0052831Y0041114D01*
X0052831Y0041124D02*
X0051739Y0041124D01*
X0051739Y0041134D02*
X0052831Y0041134D01*
X0052831Y0041144D02*
X0051739Y0041144D01*
X0051739Y0041154D02*
X0052831Y0041154D01*
X0052831Y0041164D02*
X0051739Y0041164D01*
X0051739Y0041174D02*
X0052831Y0041174D01*
X0052831Y0041184D02*
X0051739Y0041184D01*
X0051739Y0041194D02*
X0052831Y0041194D01*
X0052831Y0041204D02*
X0051739Y0041204D01*
X0051739Y0041214D02*
X0052831Y0041214D01*
X0052831Y0041224D02*
X0051739Y0041224D01*
X0051739Y0041234D02*
X0052831Y0041234D01*
X0052831Y0041244D02*
X0051739Y0041244D01*
X0051739Y0041254D02*
X0052831Y0041254D01*
X0052831Y0041264D02*
X0051739Y0041264D01*
X0051739Y0041274D02*
X0052831Y0041274D01*
X0052831Y0041284D02*
X0051739Y0041284D01*
X0051739Y0041294D02*
X0052831Y0041294D01*
X0052831Y0041304D02*
X0051739Y0041304D01*
X0051739Y0041314D02*
X0052831Y0041314D01*
X0052831Y0041324D02*
X0051739Y0041324D01*
X0051739Y0041334D02*
X0052831Y0041334D01*
X0052831Y0041344D02*
X0051739Y0041344D01*
X0051739Y0041354D02*
X0052831Y0041354D01*
X0052831Y0041364D02*
X0051739Y0041364D01*
X0051739Y0041374D02*
X0052831Y0041374D01*
X0052831Y0041384D02*
X0051739Y0041384D01*
X0051739Y0041394D02*
X0052831Y0041394D01*
X0052831Y0041404D02*
X0051739Y0041404D01*
X0051739Y0041414D02*
X0052831Y0041414D01*
X0052831Y0041424D02*
X0051739Y0041424D01*
X0051739Y0041434D02*
X0052831Y0041434D01*
X0052831Y0041444D02*
X0051739Y0041444D01*
X0051739Y0041454D02*
X0052831Y0041454D01*
X0052831Y0041464D02*
X0051739Y0041464D01*
X0051739Y0041474D02*
X0052831Y0041474D01*
X0052831Y0041484D02*
X0051739Y0041484D01*
X0051739Y0041494D02*
X0052831Y0041494D01*
X0052831Y0041504D02*
X0051739Y0041504D01*
X0051739Y0041514D02*
X0052831Y0041514D01*
X0052831Y0041524D02*
X0051739Y0041524D01*
X0051739Y0041534D02*
X0052831Y0041534D01*
X0052831Y0041544D02*
X0051739Y0041544D01*
X0051739Y0041554D02*
X0052831Y0041554D01*
X0052831Y0041564D02*
X0051739Y0041564D01*
X0051739Y0041574D02*
X0052831Y0041574D01*
X0052831Y0041584D02*
X0051739Y0041584D01*
X0051739Y0041594D02*
X0052831Y0041594D01*
X0052831Y0041604D02*
X0051739Y0041604D01*
X0051739Y0041614D02*
X0052831Y0041614D01*
X0052831Y0041624D02*
X0051739Y0041624D01*
X0051739Y0041634D02*
X0052831Y0041634D01*
X0052831Y0041644D02*
X0051739Y0041644D01*
X0051739Y0041654D02*
X0052831Y0041654D01*
X0052831Y0041664D02*
X0051739Y0041664D01*
X0051739Y0041674D02*
X0052831Y0041674D01*
X0052831Y0041684D02*
X0051739Y0041684D01*
X0051739Y0041694D02*
X0052831Y0041694D01*
X0052831Y0041704D02*
X0051739Y0041704D01*
X0051739Y0041714D02*
X0052831Y0041714D01*
X0052831Y0041724D02*
X0051739Y0041724D01*
X0051739Y0041734D02*
X0052831Y0041734D01*
X0052831Y0041744D02*
X0051739Y0041744D01*
X0051739Y0041754D02*
X0052831Y0041754D01*
X0052831Y0041764D02*
X0051739Y0041764D01*
X0051739Y0041774D02*
X0052831Y0041774D01*
X0052831Y0041784D02*
X0051739Y0041784D01*
X0051739Y0041794D02*
X0052831Y0041794D01*
X0052831Y0041804D02*
X0051739Y0041804D01*
X0051739Y0041814D02*
X0052831Y0041814D01*
X0052831Y0041824D02*
X0051739Y0041824D01*
X0051739Y0041834D02*
X0052831Y0041834D01*
X0052831Y0041844D02*
X0051739Y0041844D01*
X0051739Y0041854D02*
X0052831Y0041854D01*
X0052831Y0041864D02*
X0051739Y0041864D01*
X0051739Y0041874D02*
X0052831Y0041874D01*
X0052831Y0041884D02*
X0051739Y0041884D01*
X0051739Y0041894D02*
X0052831Y0041894D01*
X0052831Y0041904D02*
X0051739Y0041904D01*
X0051739Y0041914D02*
X0052831Y0041914D01*
X0052831Y0041924D02*
X0051739Y0041924D01*
X0051739Y0041934D02*
X0052831Y0041934D01*
X0052831Y0041944D02*
X0051739Y0041944D01*
X0051739Y0041954D02*
X0052831Y0041954D01*
X0052831Y0041964D02*
X0051739Y0041964D01*
X0051739Y0041974D02*
X0052831Y0041974D01*
X0052831Y0041984D02*
X0051739Y0041984D01*
X0051739Y0041994D02*
X0052831Y0041994D01*
X0052831Y0042004D02*
X0051739Y0042004D01*
X0051739Y0042014D02*
X0052831Y0042014D01*
X0052831Y0042024D02*
X0051739Y0042024D01*
X0051739Y0042034D02*
X0052831Y0042034D01*
X0052831Y0042044D02*
X0051739Y0042044D01*
X0051739Y0042054D02*
X0052831Y0042054D01*
X0052831Y0042064D02*
X0051739Y0042064D01*
X0051739Y0042074D02*
X0052831Y0042074D01*
X0052831Y0042084D02*
X0051739Y0042084D01*
X0051739Y0042094D02*
X0052831Y0042094D01*
X0052831Y0042104D02*
X0051739Y0042104D01*
X0051739Y0042114D02*
X0052831Y0042114D01*
X0052831Y0042124D02*
X0051739Y0042124D01*
X0051739Y0042134D02*
X0052831Y0042134D01*
X0052831Y0042144D02*
X0051739Y0042144D01*
X0051739Y0042154D02*
X0052831Y0042154D01*
X0052831Y0042164D02*
X0051739Y0042164D01*
X0051739Y0042174D02*
X0052831Y0042174D01*
X0052831Y0042184D02*
X0051739Y0042184D01*
X0051739Y0042194D02*
X0052831Y0042194D01*
X0052831Y0042204D02*
X0051739Y0042204D01*
X0051739Y0042214D02*
X0052831Y0042214D01*
X0052831Y0042224D02*
X0051739Y0042224D01*
X0051739Y0042234D02*
X0052831Y0042234D01*
X0052831Y0042244D02*
X0051739Y0042244D01*
X0051739Y0042254D02*
X0052831Y0042254D01*
X0052831Y0042264D02*
X0051739Y0042264D01*
X0051739Y0042274D02*
X0052831Y0042274D01*
X0052831Y0042284D02*
X0051739Y0042284D01*
X0051739Y0042294D02*
X0052831Y0042294D01*
X0052831Y0042304D02*
X0051739Y0042304D01*
X0051739Y0042314D02*
X0052831Y0042314D01*
X0052831Y0042324D02*
X0051739Y0042324D01*
X0051739Y0042334D02*
X0052831Y0042334D01*
X0052831Y0042344D02*
X0051739Y0042344D01*
X0051739Y0042354D02*
X0052831Y0042354D01*
X0052831Y0042364D02*
X0051739Y0042364D01*
X0051739Y0042374D02*
X0052831Y0042374D01*
X0052831Y0042384D02*
X0051739Y0042384D01*
X0051739Y0042394D02*
X0052831Y0042394D01*
X0052831Y0042404D02*
X0051739Y0042404D01*
X0051739Y0042414D02*
X0052831Y0042414D01*
X0052831Y0042424D02*
X0051739Y0042424D01*
X0051739Y0042434D02*
X0052831Y0042434D01*
X0052831Y0042444D02*
X0051739Y0042444D01*
X0051739Y0042454D02*
X0052831Y0042454D01*
X0052831Y0042464D02*
X0051739Y0042464D01*
X0051739Y0042474D02*
X0052831Y0042474D01*
X0052831Y0042484D02*
X0051739Y0042484D01*
X0051739Y0042494D02*
X0052831Y0042494D01*
X0052831Y0042504D02*
X0051739Y0042504D01*
X0051739Y0042514D02*
X0052831Y0042514D01*
X0052831Y0042524D02*
X0051739Y0042524D01*
X0051739Y0042534D02*
X0052831Y0042534D01*
X0052831Y0042544D02*
X0051739Y0042544D01*
X0050862Y0042552D02*
X0050862Y0039314D01*
X0049770Y0039314D01*
X0049770Y0042552D01*
X0050862Y0042552D01*
X0050862Y0039324D02*
X0049770Y0039324D01*
X0049770Y0039334D02*
X0050862Y0039334D01*
X0050862Y0039344D02*
X0049770Y0039344D01*
X0049770Y0039354D02*
X0050862Y0039354D01*
X0050862Y0039364D02*
X0049770Y0039364D01*
X0049770Y0039374D02*
X0050862Y0039374D01*
X0050862Y0039384D02*
X0049770Y0039384D01*
X0049770Y0039394D02*
X0050862Y0039394D01*
X0050862Y0039404D02*
X0049770Y0039404D01*
X0049770Y0039414D02*
X0050862Y0039414D01*
X0050862Y0039424D02*
X0049770Y0039424D01*
X0049770Y0039434D02*
X0050862Y0039434D01*
X0050862Y0039444D02*
X0049770Y0039444D01*
X0049770Y0039454D02*
X0050862Y0039454D01*
X0050862Y0039464D02*
X0049770Y0039464D01*
X0049770Y0039474D02*
X0050862Y0039474D01*
X0050862Y0039484D02*
X0049770Y0039484D01*
X0049770Y0039494D02*
X0050862Y0039494D01*
X0050862Y0039504D02*
X0049770Y0039504D01*
X0049770Y0039514D02*
X0050862Y0039514D01*
X0050862Y0039524D02*
X0049770Y0039524D01*
X0049770Y0039534D02*
X0050862Y0039534D01*
X0050862Y0039544D02*
X0049770Y0039544D01*
X0049770Y0039554D02*
X0050862Y0039554D01*
X0050862Y0039564D02*
X0049770Y0039564D01*
X0049770Y0039574D02*
X0050862Y0039574D01*
X0050862Y0039584D02*
X0049770Y0039584D01*
X0049770Y0039594D02*
X0050862Y0039594D01*
X0050862Y0039604D02*
X0049770Y0039604D01*
X0049770Y0039614D02*
X0050862Y0039614D01*
X0050862Y0039624D02*
X0049770Y0039624D01*
X0049770Y0039634D02*
X0050862Y0039634D01*
X0050862Y0039644D02*
X0049770Y0039644D01*
X0049770Y0039654D02*
X0050862Y0039654D01*
X0050862Y0039664D02*
X0049770Y0039664D01*
X0049770Y0039674D02*
X0050862Y0039674D01*
X0050862Y0039684D02*
X0049770Y0039684D01*
X0049770Y0039694D02*
X0050862Y0039694D01*
X0050862Y0039704D02*
X0049770Y0039704D01*
X0049770Y0039714D02*
X0050862Y0039714D01*
X0050862Y0039724D02*
X0049770Y0039724D01*
X0049770Y0039734D02*
X0050862Y0039734D01*
X0050862Y0039744D02*
X0049770Y0039744D01*
X0049770Y0039754D02*
X0050862Y0039754D01*
X0050862Y0039764D02*
X0049770Y0039764D01*
X0049770Y0039774D02*
X0050862Y0039774D01*
X0050862Y0039784D02*
X0049770Y0039784D01*
X0049770Y0039794D02*
X0050862Y0039794D01*
X0050862Y0039804D02*
X0049770Y0039804D01*
X0049770Y0039814D02*
X0050862Y0039814D01*
X0050862Y0039824D02*
X0049770Y0039824D01*
X0049770Y0039834D02*
X0050862Y0039834D01*
X0050862Y0039844D02*
X0049770Y0039844D01*
X0049770Y0039854D02*
X0050862Y0039854D01*
X0050862Y0039864D02*
X0049770Y0039864D01*
X0049770Y0039874D02*
X0050862Y0039874D01*
X0050862Y0039884D02*
X0049770Y0039884D01*
X0049770Y0039894D02*
X0050862Y0039894D01*
X0050862Y0039904D02*
X0049770Y0039904D01*
X0049770Y0039914D02*
X0050862Y0039914D01*
X0050862Y0039924D02*
X0049770Y0039924D01*
X0049770Y0039934D02*
X0050862Y0039934D01*
X0050862Y0039944D02*
X0049770Y0039944D01*
X0049770Y0039954D02*
X0050862Y0039954D01*
X0050862Y0039964D02*
X0049770Y0039964D01*
X0049770Y0039974D02*
X0050862Y0039974D01*
X0050862Y0039984D02*
X0049770Y0039984D01*
X0049770Y0039994D02*
X0050862Y0039994D01*
X0050862Y0040004D02*
X0049770Y0040004D01*
X0049770Y0040014D02*
X0050862Y0040014D01*
X0050862Y0040024D02*
X0049770Y0040024D01*
X0049770Y0040034D02*
X0050862Y0040034D01*
X0050862Y0040044D02*
X0049770Y0040044D01*
X0049770Y0040054D02*
X0050862Y0040054D01*
X0050862Y0040064D02*
X0049770Y0040064D01*
X0049770Y0040074D02*
X0050862Y0040074D01*
X0050862Y0040084D02*
X0049770Y0040084D01*
X0049770Y0040094D02*
X0050862Y0040094D01*
X0050862Y0040104D02*
X0049770Y0040104D01*
X0049770Y0040114D02*
X0050862Y0040114D01*
X0050862Y0040124D02*
X0049770Y0040124D01*
X0049770Y0040134D02*
X0050862Y0040134D01*
X0050862Y0040144D02*
X0049770Y0040144D01*
X0049770Y0040154D02*
X0050862Y0040154D01*
X0050862Y0040164D02*
X0049770Y0040164D01*
X0049770Y0040174D02*
X0050862Y0040174D01*
X0050862Y0040184D02*
X0049770Y0040184D01*
X0049770Y0040194D02*
X0050862Y0040194D01*
X0050862Y0040204D02*
X0049770Y0040204D01*
X0049770Y0040214D02*
X0050862Y0040214D01*
X0050862Y0040224D02*
X0049770Y0040224D01*
X0049770Y0040234D02*
X0050862Y0040234D01*
X0050862Y0040244D02*
X0049770Y0040244D01*
X0049770Y0040254D02*
X0050862Y0040254D01*
X0050862Y0040264D02*
X0049770Y0040264D01*
X0049770Y0040274D02*
X0050862Y0040274D01*
X0050862Y0040284D02*
X0049770Y0040284D01*
X0049770Y0040294D02*
X0050862Y0040294D01*
X0050862Y0040304D02*
X0049770Y0040304D01*
X0049770Y0040314D02*
X0050862Y0040314D01*
X0050862Y0040324D02*
X0049770Y0040324D01*
X0049770Y0040334D02*
X0050862Y0040334D01*
X0050862Y0040344D02*
X0049770Y0040344D01*
X0049770Y0040354D02*
X0050862Y0040354D01*
X0050862Y0040364D02*
X0049770Y0040364D01*
X0049770Y0040374D02*
X0050862Y0040374D01*
X0050862Y0040384D02*
X0049770Y0040384D01*
X0049770Y0040394D02*
X0050862Y0040394D01*
X0050862Y0040404D02*
X0049770Y0040404D01*
X0049770Y0040414D02*
X0050862Y0040414D01*
X0050862Y0040424D02*
X0049770Y0040424D01*
X0049770Y0040434D02*
X0050862Y0040434D01*
X0050862Y0040444D02*
X0049770Y0040444D01*
X0049770Y0040454D02*
X0050862Y0040454D01*
X0050862Y0040464D02*
X0049770Y0040464D01*
X0049770Y0040474D02*
X0050862Y0040474D01*
X0050862Y0040484D02*
X0049770Y0040484D01*
X0049770Y0040494D02*
X0050862Y0040494D01*
X0050862Y0040504D02*
X0049770Y0040504D01*
X0049770Y0040514D02*
X0050862Y0040514D01*
X0050862Y0040524D02*
X0049770Y0040524D01*
X0049770Y0040534D02*
X0050862Y0040534D01*
X0050862Y0040544D02*
X0049770Y0040544D01*
X0049770Y0040554D02*
X0050862Y0040554D01*
X0050862Y0040564D02*
X0049770Y0040564D01*
X0049770Y0040574D02*
X0050862Y0040574D01*
X0050862Y0040584D02*
X0049770Y0040584D01*
X0049770Y0040594D02*
X0050862Y0040594D01*
X0050862Y0040604D02*
X0049770Y0040604D01*
X0049770Y0040614D02*
X0050862Y0040614D01*
X0050862Y0040624D02*
X0049770Y0040624D01*
X0049770Y0040634D02*
X0050862Y0040634D01*
X0050862Y0040644D02*
X0049770Y0040644D01*
X0049770Y0040654D02*
X0050862Y0040654D01*
X0050862Y0040664D02*
X0049770Y0040664D01*
X0049770Y0040674D02*
X0050862Y0040674D01*
X0050862Y0040684D02*
X0049770Y0040684D01*
X0049770Y0040694D02*
X0050862Y0040694D01*
X0050862Y0040704D02*
X0049770Y0040704D01*
X0049770Y0040714D02*
X0050862Y0040714D01*
X0050862Y0040724D02*
X0049770Y0040724D01*
X0049770Y0040734D02*
X0050862Y0040734D01*
X0050862Y0040744D02*
X0049770Y0040744D01*
X0049770Y0040754D02*
X0050862Y0040754D01*
X0050862Y0040764D02*
X0049770Y0040764D01*
X0049770Y0040774D02*
X0050862Y0040774D01*
X0050862Y0040784D02*
X0049770Y0040784D01*
X0049770Y0040794D02*
X0050862Y0040794D01*
X0050862Y0040804D02*
X0049770Y0040804D01*
X0049770Y0040814D02*
X0050862Y0040814D01*
X0050862Y0040824D02*
X0049770Y0040824D01*
X0049770Y0040834D02*
X0050862Y0040834D01*
X0050862Y0040844D02*
X0049770Y0040844D01*
X0049770Y0040854D02*
X0050862Y0040854D01*
X0050862Y0040864D02*
X0049770Y0040864D01*
X0049770Y0040874D02*
X0050862Y0040874D01*
X0050862Y0040884D02*
X0049770Y0040884D01*
X0049770Y0040894D02*
X0050862Y0040894D01*
X0050862Y0040904D02*
X0049770Y0040904D01*
X0049770Y0040914D02*
X0050862Y0040914D01*
X0050862Y0040924D02*
X0049770Y0040924D01*
X0049770Y0040934D02*
X0050862Y0040934D01*
X0050862Y0040944D02*
X0049770Y0040944D01*
X0049770Y0040954D02*
X0050862Y0040954D01*
X0050862Y0040964D02*
X0049770Y0040964D01*
X0049770Y0040974D02*
X0050862Y0040974D01*
X0050862Y0040984D02*
X0049770Y0040984D01*
X0049770Y0040994D02*
X0050862Y0040994D01*
X0050862Y0041004D02*
X0049770Y0041004D01*
X0049770Y0041014D02*
X0050862Y0041014D01*
X0050862Y0041024D02*
X0049770Y0041024D01*
X0049770Y0041034D02*
X0050862Y0041034D01*
X0050862Y0041044D02*
X0049770Y0041044D01*
X0049770Y0041054D02*
X0050862Y0041054D01*
X0050862Y0041064D02*
X0049770Y0041064D01*
X0049770Y0041074D02*
X0050862Y0041074D01*
X0050862Y0041084D02*
X0049770Y0041084D01*
X0049770Y0041094D02*
X0050862Y0041094D01*
X0050862Y0041104D02*
X0049770Y0041104D01*
X0049770Y0041114D02*
X0050862Y0041114D01*
X0050862Y0041124D02*
X0049770Y0041124D01*
X0049770Y0041134D02*
X0050862Y0041134D01*
X0050862Y0041144D02*
X0049770Y0041144D01*
X0049770Y0041154D02*
X0050862Y0041154D01*
X0050862Y0041164D02*
X0049770Y0041164D01*
X0049770Y0041174D02*
X0050862Y0041174D01*
X0050862Y0041184D02*
X0049770Y0041184D01*
X0049770Y0041194D02*
X0050862Y0041194D01*
X0050862Y0041204D02*
X0049770Y0041204D01*
X0049770Y0041214D02*
X0050862Y0041214D01*
X0050862Y0041224D02*
X0049770Y0041224D01*
X0049770Y0041234D02*
X0050862Y0041234D01*
X0050862Y0041244D02*
X0049770Y0041244D01*
X0049770Y0041254D02*
X0050862Y0041254D01*
X0050862Y0041264D02*
X0049770Y0041264D01*
X0049770Y0041274D02*
X0050862Y0041274D01*
X0050862Y0041284D02*
X0049770Y0041284D01*
X0049770Y0041294D02*
X0050862Y0041294D01*
X0050862Y0041304D02*
X0049770Y0041304D01*
X0049770Y0041314D02*
X0050862Y0041314D01*
X0050862Y0041324D02*
X0049770Y0041324D01*
X0049770Y0041334D02*
X0050862Y0041334D01*
X0050862Y0041344D02*
X0049770Y0041344D01*
X0049770Y0041354D02*
X0050862Y0041354D01*
X0050862Y0041364D02*
X0049770Y0041364D01*
X0049770Y0041374D02*
X0050862Y0041374D01*
X0050862Y0041384D02*
X0049770Y0041384D01*
X0049770Y0041394D02*
X0050862Y0041394D01*
X0050862Y0041404D02*
X0049770Y0041404D01*
X0049770Y0041414D02*
X0050862Y0041414D01*
X0050862Y0041424D02*
X0049770Y0041424D01*
X0049770Y0041434D02*
X0050862Y0041434D01*
X0050862Y0041444D02*
X0049770Y0041444D01*
X0049770Y0041454D02*
X0050862Y0041454D01*
X0050862Y0041464D02*
X0049770Y0041464D01*
X0049770Y0041474D02*
X0050862Y0041474D01*
X0050862Y0041484D02*
X0049770Y0041484D01*
X0049770Y0041494D02*
X0050862Y0041494D01*
X0050862Y0041504D02*
X0049770Y0041504D01*
X0049770Y0041514D02*
X0050862Y0041514D01*
X0050862Y0041524D02*
X0049770Y0041524D01*
X0049770Y0041534D02*
X0050862Y0041534D01*
X0050862Y0041544D02*
X0049770Y0041544D01*
X0049770Y0041554D02*
X0050862Y0041554D01*
X0050862Y0041564D02*
X0049770Y0041564D01*
X0049770Y0041574D02*
X0050862Y0041574D01*
X0050862Y0041584D02*
X0049770Y0041584D01*
X0049770Y0041594D02*
X0050862Y0041594D01*
X0050862Y0041604D02*
X0049770Y0041604D01*
X0049770Y0041614D02*
X0050862Y0041614D01*
X0050862Y0041624D02*
X0049770Y0041624D01*
X0049770Y0041634D02*
X0050862Y0041634D01*
X0050862Y0041644D02*
X0049770Y0041644D01*
X0049770Y0041654D02*
X0050862Y0041654D01*
X0050862Y0041664D02*
X0049770Y0041664D01*
X0049770Y0041674D02*
X0050862Y0041674D01*
X0050862Y0041684D02*
X0049770Y0041684D01*
X0049770Y0041694D02*
X0050862Y0041694D01*
X0050862Y0041704D02*
X0049770Y0041704D01*
X0049770Y0041714D02*
X0050862Y0041714D01*
X0050862Y0041724D02*
X0049770Y0041724D01*
X0049770Y0041734D02*
X0050862Y0041734D01*
X0050862Y0041744D02*
X0049770Y0041744D01*
X0049770Y0041754D02*
X0050862Y0041754D01*
X0050862Y0041764D02*
X0049770Y0041764D01*
X0049770Y0041774D02*
X0050862Y0041774D01*
X0050862Y0041784D02*
X0049770Y0041784D01*
X0049770Y0041794D02*
X0050862Y0041794D01*
X0050862Y0041804D02*
X0049770Y0041804D01*
X0049770Y0041814D02*
X0050862Y0041814D01*
X0050862Y0041824D02*
X0049770Y0041824D01*
X0049770Y0041834D02*
X0050862Y0041834D01*
X0050862Y0041844D02*
X0049770Y0041844D01*
X0049770Y0041854D02*
X0050862Y0041854D01*
X0050862Y0041864D02*
X0049770Y0041864D01*
X0049770Y0041874D02*
X0050862Y0041874D01*
X0050862Y0041884D02*
X0049770Y0041884D01*
X0049770Y0041894D02*
X0050862Y0041894D01*
X0050862Y0041904D02*
X0049770Y0041904D01*
X0049770Y0041914D02*
X0050862Y0041914D01*
X0050862Y0041924D02*
X0049770Y0041924D01*
X0049770Y0041934D02*
X0050862Y0041934D01*
X0050862Y0041944D02*
X0049770Y0041944D01*
X0049770Y0041954D02*
X0050862Y0041954D01*
X0050862Y0041964D02*
X0049770Y0041964D01*
X0049770Y0041974D02*
X0050862Y0041974D01*
X0050862Y0041984D02*
X0049770Y0041984D01*
X0049770Y0041994D02*
X0050862Y0041994D01*
X0050862Y0042004D02*
X0049770Y0042004D01*
X0049770Y0042014D02*
X0050862Y0042014D01*
X0050862Y0042024D02*
X0049770Y0042024D01*
X0049770Y0042034D02*
X0050862Y0042034D01*
X0050862Y0042044D02*
X0049770Y0042044D01*
X0049770Y0042054D02*
X0050862Y0042054D01*
X0050862Y0042064D02*
X0049770Y0042064D01*
X0049770Y0042074D02*
X0050862Y0042074D01*
X0050862Y0042084D02*
X0049770Y0042084D01*
X0049770Y0042094D02*
X0050862Y0042094D01*
X0050862Y0042104D02*
X0049770Y0042104D01*
X0049770Y0042114D02*
X0050862Y0042114D01*
X0050862Y0042124D02*
X0049770Y0042124D01*
X0049770Y0042134D02*
X0050862Y0042134D01*
X0050862Y0042144D02*
X0049770Y0042144D01*
X0049770Y0042154D02*
X0050862Y0042154D01*
X0050862Y0042164D02*
X0049770Y0042164D01*
X0049770Y0042174D02*
X0050862Y0042174D01*
X0050862Y0042184D02*
X0049770Y0042184D01*
X0049770Y0042194D02*
X0050862Y0042194D01*
X0050862Y0042204D02*
X0049770Y0042204D01*
X0049770Y0042214D02*
X0050862Y0042214D01*
X0050862Y0042224D02*
X0049770Y0042224D01*
X0049770Y0042234D02*
X0050862Y0042234D01*
X0050862Y0042244D02*
X0049770Y0042244D01*
X0049770Y0042254D02*
X0050862Y0042254D01*
X0050862Y0042264D02*
X0049770Y0042264D01*
X0049770Y0042274D02*
X0050862Y0042274D01*
X0050862Y0042284D02*
X0049770Y0042284D01*
X0049770Y0042294D02*
X0050862Y0042294D01*
X0050862Y0042304D02*
X0049770Y0042304D01*
X0049770Y0042314D02*
X0050862Y0042314D01*
X0050862Y0042324D02*
X0049770Y0042324D01*
X0049770Y0042334D02*
X0050862Y0042334D01*
X0050862Y0042344D02*
X0049770Y0042344D01*
X0049770Y0042354D02*
X0050862Y0042354D01*
X0050862Y0042364D02*
X0049770Y0042364D01*
X0049770Y0042374D02*
X0050862Y0042374D01*
X0050862Y0042384D02*
X0049770Y0042384D01*
X0049770Y0042394D02*
X0050862Y0042394D01*
X0050862Y0042404D02*
X0049770Y0042404D01*
X0049770Y0042414D02*
X0050862Y0042414D01*
X0050862Y0042424D02*
X0049770Y0042424D01*
X0049770Y0042434D02*
X0050862Y0042434D01*
X0050862Y0042444D02*
X0049770Y0042444D01*
X0049770Y0042454D02*
X0050862Y0042454D01*
X0050862Y0042464D02*
X0049770Y0042464D01*
X0049770Y0042474D02*
X0050862Y0042474D01*
X0050862Y0042484D02*
X0049770Y0042484D01*
X0049770Y0042494D02*
X0050862Y0042494D01*
X0050862Y0042504D02*
X0049770Y0042504D01*
X0049770Y0042514D02*
X0050862Y0042514D01*
X0050862Y0042524D02*
X0049770Y0042524D01*
X0049770Y0042534D02*
X0050862Y0042534D01*
X0050862Y0042544D02*
X0049770Y0042544D01*
D15*
X0039603Y0017675D03*
X0048903Y0017675D03*
D16*
X0059553Y0016153D03*
X0059553Y0010247D03*
X0094826Y0052850D03*
X0100731Y0052850D03*
X0137478Y0119297D03*
X0142978Y0119197D03*
X0142978Y0125103D03*
X0137478Y0125203D03*
D17*
X0142878Y0033350D03*
X0144778Y0033350D03*
X0146778Y0033350D03*
X0148778Y0033350D03*
X0150778Y0033350D03*
X0152678Y0033350D03*
X0152678Y0025350D03*
X0150778Y0025350D03*
X0148778Y0025350D03*
X0146778Y0025350D03*
X0144778Y0025350D03*
X0142878Y0025350D03*
X0112578Y0025350D03*
X0110678Y0025350D03*
X0108678Y0025350D03*
X0106678Y0025350D03*
X0104678Y0025350D03*
X0102778Y0025350D03*
X0102778Y0033350D03*
X0104678Y0033350D03*
X0106678Y0033350D03*
X0108678Y0033350D03*
X0110678Y0033350D03*
X0112578Y0033350D03*
X0182778Y0033550D03*
X0184678Y0033550D03*
X0186678Y0033550D03*
X0188678Y0033550D03*
X0190678Y0033550D03*
X0192578Y0033550D03*
X0192578Y0025550D03*
X0190678Y0025550D03*
X0188678Y0025550D03*
X0186678Y0025550D03*
X0184678Y0025550D03*
X0182778Y0025550D03*
X0222878Y0025450D03*
X0224778Y0025450D03*
X0226778Y0025450D03*
X0228778Y0025450D03*
X0230778Y0025450D03*
X0232678Y0025450D03*
X0232678Y0033450D03*
X0230778Y0033450D03*
X0228778Y0033450D03*
X0226778Y0033450D03*
X0224778Y0033450D03*
X0222878Y0033450D03*
D18*
X0227778Y0029450D03*
X0187678Y0029550D03*
X0147778Y0029350D03*
X0107678Y0029350D03*
D19*
X0037731Y0136644D03*
X0035763Y0136644D03*
X0033794Y0136644D03*
X0031826Y0136644D03*
X0031826Y0148456D03*
X0033794Y0148456D03*
X0035763Y0148456D03*
X0037731Y0148456D03*
D20*
X0040684Y0145503D03*
X0040684Y0143534D03*
X0040684Y0141566D03*
X0040684Y0139597D03*
X0028873Y0139597D03*
X0028873Y0141566D03*
X0028873Y0143534D03*
X0028873Y0145503D03*
D21*
X0063057Y0091224D03*
X0065026Y0091224D03*
X0066994Y0091224D03*
X0068963Y0091224D03*
X0070931Y0091224D03*
X0072900Y0091224D03*
X0072900Y0075476D03*
X0070931Y0075476D03*
X0068963Y0075476D03*
X0066994Y0075476D03*
X0065026Y0075476D03*
X0063057Y0075476D03*
D22*
X0060203Y0078429D03*
X0060203Y0080397D03*
X0060203Y0082366D03*
X0060203Y0084334D03*
X0060203Y0086303D03*
X0060203Y0088271D03*
X0075754Y0088271D03*
X0075754Y0086303D03*
X0075754Y0084334D03*
X0075754Y0082366D03*
X0075754Y0080397D03*
X0075754Y0078429D03*
D23*
X0067978Y0083350D03*
D24*
X0140170Y0083150D03*
X0140170Y0081181D03*
X0140170Y0079213D03*
X0140170Y0077244D03*
X0140170Y0075276D03*
X0140170Y0073307D03*
X0140170Y0071339D03*
X0140170Y0069370D03*
X0140170Y0067402D03*
X0140170Y0065433D03*
X0140170Y0063465D03*
X0140170Y0061496D03*
X0140170Y0059528D03*
X0140170Y0085119D03*
X0140170Y0087087D03*
X0140170Y0089056D03*
X0140170Y0091024D03*
X0140170Y0092993D03*
X0140170Y0094961D03*
X0140170Y0096930D03*
X0140170Y0098898D03*
X0140170Y0100867D03*
X0140170Y0102835D03*
X0140170Y0104804D03*
X0140170Y0106772D03*
X0201587Y0106772D03*
X0201587Y0104804D03*
X0201587Y0102835D03*
X0201587Y0100867D03*
X0201587Y0098898D03*
X0201587Y0096930D03*
X0201587Y0094961D03*
X0201587Y0092993D03*
X0201587Y0091024D03*
X0201587Y0089056D03*
X0201587Y0087087D03*
X0201587Y0085119D03*
X0201587Y0083150D03*
X0201587Y0081181D03*
X0201587Y0079213D03*
X0201587Y0077244D03*
X0201587Y0075276D03*
X0201587Y0073307D03*
X0201587Y0071339D03*
X0201587Y0069370D03*
X0201587Y0067402D03*
X0201587Y0065433D03*
X0201587Y0063465D03*
X0201587Y0061496D03*
X0201587Y0059528D03*
D25*
X0194500Y0052441D03*
X0192532Y0052441D03*
X0190563Y0052441D03*
X0188595Y0052441D03*
X0186626Y0052441D03*
X0184658Y0052441D03*
X0182689Y0052441D03*
X0180721Y0052441D03*
X0178752Y0052441D03*
X0176784Y0052441D03*
X0174815Y0052441D03*
X0172847Y0052441D03*
X0170878Y0052441D03*
X0168910Y0052441D03*
X0166941Y0052441D03*
X0164973Y0052441D03*
X0163004Y0052441D03*
X0161036Y0052441D03*
X0159067Y0052441D03*
X0157099Y0052441D03*
X0155130Y0052441D03*
X0153162Y0052441D03*
X0151193Y0052441D03*
X0149225Y0052441D03*
X0147256Y0052441D03*
X0147256Y0113859D03*
X0149225Y0113859D03*
X0151193Y0113859D03*
X0153162Y0113859D03*
X0155130Y0113859D03*
X0157099Y0113859D03*
X0159067Y0113859D03*
X0161036Y0113859D03*
X0163004Y0113859D03*
X0164973Y0113859D03*
X0166941Y0113859D03*
X0168910Y0113859D03*
X0170878Y0113859D03*
X0172847Y0113859D03*
X0174815Y0113859D03*
X0176784Y0113859D03*
X0178752Y0113859D03*
X0180721Y0113859D03*
X0182689Y0113859D03*
X0184658Y0113859D03*
X0186626Y0113859D03*
X0188595Y0113859D03*
X0190563Y0113859D03*
X0192532Y0113859D03*
X0194500Y0113859D03*
D26*
X0127837Y0088850D03*
X0122719Y0088850D03*
X0122319Y0097050D03*
X0127437Y0097050D03*
X0127437Y0102050D03*
X0122319Y0102050D03*
X0122719Y0075250D03*
X0127837Y0075250D03*
D27*
X0128619Y0080300D03*
X0128619Y0084000D03*
D28*
X0106060Y0082150D03*
D29*
X0242578Y0079450D03*
X0247578Y0079450D03*
X0252578Y0079450D03*
X0257578Y0079450D03*
X0257578Y0111300D03*
X0252578Y0111300D03*
X0247578Y0111300D03*
X0242578Y0111300D03*
D30*
X0057314Y0111889D03*
X0057314Y0109330D03*
X0057314Y0106770D03*
X0057314Y0104211D03*
X0049243Y0104211D03*
X0049243Y0106770D03*
X0049243Y0109330D03*
X0049243Y0111889D03*
M02*
