%
M48
M72
T01C0.01181
T02C0.01969
T03C0.02362
T04C0.04000
%
T01
X43628Y28300
X51301Y33206
X54253Y35175
X51301Y37144
X57206Y37144
X57206Y33206
X60678Y29650
X67378Y37050
X74878Y37050
X81128Y39550
X99878Y39550
X117928Y29450
X132028Y29450
X135478Y33450
X137528Y29450
X138778Y24300
X159528Y29450
X172328Y29450
X178628Y25800
X178878Y33450
X197078Y33450
X199878Y29550
X210328Y29550
X213878Y25750
X217628Y29550
X239828Y29750
X263678Y21050
X239678Y47150
X223578Y47150
X220678Y79750
X245678Y102850
X168078Y106650
X159278Y102050
X122678Y92450
X122678Y82250
X131478Y76650
X122678Y71850
X112478Y68450
X107378Y64550
X93878Y76450
X104878Y87050
X93678Y87450
X117378Y102050
X166078Y126450
X132678Y142650
X59078Y115650
X52678Y101650
X59478Y94450
X35278Y103250
X29478Y98650
X32878Y121650
X34278Y132650
X34478Y132650
X24278Y145250
X33878Y152450
X39078Y151950
X23478Y157450
X59578Y71250
X59878Y64550
X65478Y52650
X56878Y48650
X97178Y25350
X71278Y19450
X63278Y19850
X128178Y52150
X135678Y45850
X147378Y59550
X147378Y64550
X161578Y46150
T02
X249878Y9550
T03
X81978Y19750
T04
X19553Y10175
X29553Y10175
X29553Y20175
X19553Y20175
X19553Y30175
X29553Y30175
X29553Y40175
X19553Y40175
X19553Y50175
X29553Y50175
X29553Y60175
X19553Y60175
X19553Y70175
X29553Y70175
X29478Y80250
X19478Y80250
X19478Y90250
X29478Y90250
X81978Y161050
X91978Y161050
X101978Y161050
X111978Y161050
X121978Y161050
X131978Y161050
X141978Y161050
X151978Y161050
X162078Y161050
X172078Y161050
X182078Y161050
X192078Y161050
X202078Y161050
X212078Y161050
X222078Y161050
X232078Y161050
X242078Y161050
X252078Y161050
X262078Y161050
X277478Y156250
X277478Y146250
X277478Y136250
X229478Y113050
X229478Y103050
X229478Y93050
X229478Y83050
X216978Y62750
X216978Y52750
X277478Y56250
X277478Y46250
X277478Y36250
X238978Y14550
X228978Y14550
X218978Y14550
X208978Y14550
X198978Y14550
X188978Y14550
X178978Y14550
X168978Y14550
X158978Y14450
X148978Y14450
X138978Y14450
X128978Y14450
X118978Y14450
X108978Y14450
X98978Y14450
X88978Y14450
X277478Y66250
X165678Y135250
X165678Y145250
M30
